<svg xmlns="http://www.w3.org/2000/svg" xmlns:xlink="http://www.w3.org/1999/xlink" width="210.00mm" height="297.00mm" viewBox="0 0 210.00 297.00">
<rect x="0" y="0" width="210.00" height="297.00" fill="#ffffff" stroke="#cccccc" stroke-width="0.2"/>
<polygon points="59.595,37.201 51.996,37.007 50.834,35.551 52.337,28.1" fill="rgb(216,216,216)"/>
<polygon points="71.236,37.201 76.719,31.936 78.571,32.135 82.81,38.445" fill="rgb(216,216,216)"/>
<polygon points="65.806,116.805 69.188,117.836 69.356,118.509 66.854,121.008" fill="rgb(216,216,216)"/>
<polygon points="82.81,38.445 87.818,51.371 78.935,106.493 70.12,117.191" fill="rgb(216,216,216)"/>
<polygon points="78.494,28.1 83.78,25.102 81.967,17.157 75.904,16.75" fill="rgb(216,216,216)"/>
<polygon points="49.239,121.769 51.223,124.5 53.393,123.214 51.952,120.162" fill="rgb(216,216,216)"/>
<polygon points="75.904,16.75 76.856,10.748 69.514,7.213 65.415,11.699" fill="rgb(216,216,216)"/>
<polygon points="51.952,120.162 54.672,125.361 56.966,124.314 54.82,118.853" fill="rgb(216,216,216)"/>
<polygon points="65.415,11.699 61.317,7.213 53.975,10.748 54.927,16.75" fill="rgb(216,216,216)"/>
<polygon points="54.82,118.853 56.83,123.886 58.33,120.409 57.811,117.856" fill="rgb(216,216,216)"/>
<polygon points="54.927,16.75 48.864,17.157 47.051,25.102 52.337,28.1" fill="rgb(216,216,216)"/>
<polygon points="57.811,117.856 58.644,120.187 60.583,117.25 60.891,117.182" fill="rgb(216,216,216)"/>
<polygon points="51.952,120.162 54.672,125.361 56.966,124.314 54.82,118.853" fill="#99d9fa"/>
<line x1="59.595" y1="37.201" x2="71.236" y2="37.201" stroke="#8c8c8c" stroke-width="0.3" stroke-dasharray="1.2,0.8"/>
<line x1="65.806" y1="116.805" x2="59.595" y2="37.201" stroke="#8c8c8c" stroke-width="0.3" stroke-dasharray="1.2,0.8"/>
<line x1="59.595" y1="37.201" x2="60.891" y2="117.182" stroke="#8c8c8c" stroke-width="0.3" stroke-dasharray="1.2,0.8"/>
<line x1="71.236" y1="37.201" x2="65.806" y2="116.805" stroke="#8c8c8c" stroke-width="0.3" stroke-dasharray="1.2,0.8"/>
<line x1="60.891" y1="117.182" x2="65.806" y2="116.805" stroke="#8c8c8c" stroke-width="0.3" stroke-dasharray="1.2,0.8"/>
<line x1="15.016" y1="49.467" x2="51.952" y2="120.162" stroke="#8c8c8c" stroke-width="0.3" stroke-dasharray="1.2,0.8"/>
<line x1="25.606" y1="44.633" x2="54.82" y2="118.853" stroke="#8c8c8c" stroke-width="0.3" stroke-dasharray="1.2,0.8"/>
<line x1="36.65" y1="40.952" x2="57.811" y2="117.856" stroke="#8c8c8c" stroke-width="0.3" stroke-dasharray="1.2,0.8"/>
<line x1="48.023" y1="38.465" x2="60.891" y2="117.182" stroke="#8c8c8c" stroke-width="0.3" stroke-dasharray="1.2,0.8"/>
<line x1="82.811" y1="38.445" x2="65.806" y2="116.805" stroke="#8c8c8c" stroke-width="0.3" stroke-dasharray="1.2,0.8"/>
<line x1="52.337" y1="28.1" x2="59.595" y2="37.201" stroke="#8c8c8c" stroke-width="0.3" stroke-dasharray="1.2,0.8"/>
<line x1="82.81" y1="38.445" x2="71.236" y2="37.201" stroke="#8c8c8c" stroke-width="0.3" stroke-dasharray="1.2,0.8"/>
<line x1="66.854" y1="121.008" x2="65.806" y2="116.805" stroke="#8c8c8c" stroke-width="0.3" stroke-dasharray="1.2,0.8"/>
<line x1="70.12" y1="117.191" x2="82.81" y2="38.445" stroke="#8c8c8c" stroke-width="0.3" stroke-dasharray="1.2,0.8"/>
<line x1="75.904" y1="16.75" x2="78.494" y2="28.1" stroke="#8c8c8c" stroke-width="0.3" stroke-dasharray="1.2,0.8"/>
<line x1="51.952" y1="120.162" x2="49.239" y2="121.769" stroke="#8c8c8c" stroke-width="0.3" stroke-dasharray="1.2,0.8"/>
<line x1="65.415" y1="11.699" x2="75.904" y2="16.75" stroke="#8c8c8c" stroke-width="0.3" stroke-dasharray="1.2,0.8"/>
<line x1="54.82" y1="118.853" x2="51.952" y2="120.162" stroke="#8c8c8c" stroke-width="0.3" stroke-dasharray="1.2,0.8"/>
<line x1="54.927" y1="16.75" x2="65.415" y2="11.699" stroke="#8c8c8c" stroke-width="0.3" stroke-dasharray="1.2,0.8"/>
<line x1="57.811" y1="117.856" x2="54.82" y2="118.853" stroke="#8c8c8c" stroke-width="0.3" stroke-dasharray="1.2,0.8"/>
<line x1="52.337" y1="28.1" x2="54.927" y2="16.75" stroke="#8c8c8c" stroke-width="0.3" stroke-dasharray="1.2,0.8"/>
<line x1="60.891" y1="117.182" x2="57.811" y2="117.856" stroke="#8c8c8c" stroke-width="0.3" stroke-dasharray="1.2,0.8"/>
<line x1="48.023" y1="38.465" x2="59.595" y2="37.201" stroke="#141414" stroke-width="0.4"/>
<line x1="78.494" y1="28.099" x2="71.236" y2="37.201" stroke="#141414" stroke-width="0.4"/>
<line x1="70.12" y1="117.191" x2="65.806" y2="116.805" stroke="#141414" stroke-width="0.4"/>
<line x1="49.239" y1="121.769" x2="5.0" y2="55.399" stroke="#141414" stroke-width="0.4"/>
<line x1="5.0" y1="55.399" x2="15.016" y2="49.467" stroke="#141414" stroke-width="0.4"/>
<line x1="66.854" y1="121.008" x2="64.604" y2="123.216" stroke="#141414" stroke-width="0.4"/>
<line x1="15.016" y1="49.467" x2="25.606" y2="44.633" stroke="#141414" stroke-width="0.4"/>
<line x1="64.604" y1="123.216" x2="61.474" y2="122.834" stroke="#141414" stroke-width="0.4"/>
<line x1="25.606" y1="44.633" x2="36.65" y2="40.952" stroke="#141414" stroke-width="0.4"/>
<line x1="61.474" y1="122.834" x2="59.822" y2="120.148" stroke="#141414" stroke-width="0.4"/>
<line x1="36.65" y1="40.952" x2="48.023" y2="38.465" stroke="#141414" stroke-width="0.4"/>
<line x1="59.822" y1="120.148" x2="60.891" y2="117.182" stroke="#141414" stroke-width="0.4"/>
<line x1="59.595" y1="37.201" x2="51.996" y2="37.007" stroke="#141414" stroke-width="0.4"/>
<line x1="51.996" y1="37.007" x2="50.834" y2="35.551" stroke="#141414" stroke-width="0.4"/>
<line x1="50.834" y1="35.551" x2="52.337" y2="28.1" stroke="#141414" stroke-width="0.4"/>
<line x1="71.236" y1="37.201" x2="76.719" y2="31.936" stroke="#141414" stroke-width="0.4"/>
<line x1="76.719" y1="31.936" x2="78.571" y2="32.135" stroke="#141414" stroke-width="0.4"/>
<line x1="78.571" y1="32.135" x2="82.81" y2="38.445" stroke="#141414" stroke-width="0.4"/>
<line x1="65.806" y1="116.805" x2="69.188" y2="117.836" stroke="#141414" stroke-width="0.4"/>
<line x1="69.188" y1="117.836" x2="69.356" y2="118.509" stroke="#141414" stroke-width="0.4"/>
<line x1="69.356" y1="118.509" x2="66.854" y2="121.008" stroke="#141414" stroke-width="0.4"/>
<line x1="82.81" y1="38.445" x2="87.818" y2="51.371" stroke="#141414" stroke-width="0.4"/>
<line x1="87.818" y1="51.371" x2="78.935" y2="106.493" stroke="#141414" stroke-width="0.4"/>
<line x1="78.935" y1="106.493" x2="70.12" y2="117.191" stroke="#141414" stroke-width="0.4"/>
<line x1="78.494" y1="28.1" x2="83.78" y2="25.102" stroke="#141414" stroke-width="0.4"/>
<line x1="83.78" y1="25.102" x2="81.967" y2="17.157" stroke="#141414" stroke-width="0.4"/>
<line x1="81.967" y1="17.157" x2="75.904" y2="16.75" stroke="#141414" stroke-width="0.4"/>
<line x1="49.239" y1="121.769" x2="51.223" y2="124.5" stroke="#141414" stroke-width="0.4"/>
<line x1="51.223" y1="124.5" x2="53.393" y2="123.214" stroke="#141414" stroke-width="0.4"/>
<line x1="53.393" y1="123.214" x2="51.952" y2="120.162" stroke="#141414" stroke-width="0.4"/>
<line x1="75.904" y1="16.75" x2="76.856" y2="10.748" stroke="#141414" stroke-width="0.4"/>
<line x1="76.856" y1="10.748" x2="69.514" y2="7.213" stroke="#141414" stroke-width="0.4"/>
<line x1="69.514" y1="7.213" x2="65.415" y2="11.699" stroke="#141414" stroke-width="0.4"/>
<line x1="51.952" y1="120.162" x2="54.672" y2="125.361" stroke="#141414" stroke-width="0.4"/>
<line x1="54.672" y1="125.361" x2="56.966" y2="124.314" stroke="#141414" stroke-width="0.4"/>
<line x1="56.966" y1="124.314" x2="54.82" y2="118.853" stroke="#141414" stroke-width="0.4"/>
<line x1="65.415" y1="11.699" x2="61.317" y2="7.213" stroke="#141414" stroke-width="0.4"/>
<line x1="61.317" y1="7.213" x2="53.975" y2="10.748" stroke="#141414" stroke-width="0.4"/>
<line x1="53.975" y1="10.748" x2="54.927" y2="16.75" stroke="#141414" stroke-width="0.4"/>
<line x1="54.82" y1="118.853" x2="56.83" y2="123.886" stroke="#141414" stroke-width="0.4"/>
<line x1="56.83" y1="123.886" x2="58.33" y2="120.409" stroke="#141414" stroke-width="0.4"/>
<line x1="58.33" y1="120.409" x2="57.811" y2="117.856" stroke="#141414" stroke-width="0.4"/>
<line x1="54.927" y1="16.75" x2="48.864" y2="17.157" stroke="#141414" stroke-width="0.4"/>
<line x1="48.864" y1="17.157" x2="47.051" y2="25.102" stroke="#141414" stroke-width="0.4"/>
<line x1="47.051" y1="25.102" x2="52.337" y2="28.1" stroke="#141414" stroke-width="0.4"/>
<line x1="57.811" y1="117.856" x2="58.644" y2="120.187" stroke="#141414" stroke-width="0.4"/>
<line x1="58.644" y1="120.187" x2="60.583" y2="117.25" stroke="#141414" stroke-width="0.4"/>
<line x1="60.583" y1="117.25" x2="60.891" y2="117.182" stroke="#141414" stroke-width="0.4"/>
<circle cx="53.69" cy="34.465" r="0.95" fill="#ffe082" stroke="#464646" stroke-width="0.2"/>
<text x="53.69" y="34.79" font-size="0.93" text-anchor="middle" fill="#141414">151</text>
<circle cx="77.334" cy="34.929" r="0.95" fill="#ffe082" stroke="#464646" stroke-width="0.2"/>
<text x="77.334" y="35.25" font-size="0.93" text-anchor="middle" fill="#141414">152</text>
<circle cx="67.801" cy="118.539" r="0.95" fill="#ffe082" stroke="#464646" stroke-width="0.2"/>
<text x="67.801" y="118.86" font-size="0.93" text-anchor="middle" fill="#141414">153</text>
<circle cx="79.921" cy="78.375" r="0.95" fill="#ffe082" stroke="#464646" stroke-width="0.2"/>
<text x="79.921" y="78.70" font-size="0.93" text-anchor="middle" fill="#141414">154</text>
<circle cx="80.036" cy="21.777" r="0.95" fill="#ffe082" stroke="#464646" stroke-width="0.2"/>
<text x="80.036" y="22.10" font-size="0.93" text-anchor="middle" fill="#141414">155</text>
<circle cx="71.922" cy="11.603" r="0.95" fill="#ffe082" stroke="#464646" stroke-width="0.2"/>
<text x="71.922" y="11.93" font-size="0.93" text-anchor="middle" fill="#141414">157</text>
<circle cx="58.909" cy="11.603" r="0.95" fill="#ffe082" stroke="#464646" stroke-width="0.2"/>
<text x="58.909" y="11.93" font-size="0.93" text-anchor="middle" fill="#141414">159</text>
<circle cx="50.795" cy="21.777" r="0.95" fill="#ffe082" stroke="#464646" stroke-width="0.2"/>
<text x="50.795" y="22.10" font-size="0.93" text-anchor="middle" fill="#141414">161</text>
<circle cx="46.409" cy="129.248" r="4.6" fill="#eaf1fe" stroke="#2e78e6" stroke-width="0.3"/>
<text x="46.409" y="131.048" font-size="5.2" text-anchor="middle" fill="#14306e" font-weight="bold">15</text>
<polygon points="145.413,37.201 137.813,37.007 136.652,35.551 138.154,28.1" fill="rgb(216,216,216)"/>
<polygon points="157.054,37.201 162.537,31.936 164.389,32.135 168.628,38.445" fill="rgb(216,216,216)"/>
<polygon points="151.624,116.805 155.006,117.836 155.174,118.509 152.672,121.008" fill="rgb(216,216,216)"/>
<polygon points="168.628,38.445 173.636,51.371 164.752,106.493 155.938,117.191" fill="rgb(216,216,216)"/>
<polygon points="164.312,28.1 169.598,25.102 167.785,17.157 161.722,16.75" fill="rgb(216,216,216)"/>
<polygon points="135.057,121.769 137.041,124.5 139.211,123.214 137.77,120.162" fill="rgb(216,216,216)"/>
<polygon points="161.722,16.75 162.674,10.748 155.332,7.213 151.233,11.699" fill="rgb(216,216,216)"/>
<polygon points="137.77,120.162 140.49,125.361 142.784,124.314 140.638,118.853" fill="rgb(216,216,216)"/>
<polygon points="151.233,11.699 147.135,7.213 139.793,10.748 140.745,16.75" fill="rgb(216,216,216)"/>
<polygon points="140.638,118.853 142.648,123.886 144.148,120.409 143.629,117.856" fill="rgb(216,216,216)"/>
<polygon points="140.745,16.75 134.682,17.157 132.868,25.102 138.154,28.1" fill="rgb(216,216,216)"/>
<polygon points="143.629,117.856 144.462,120.187 146.401,117.25 146.709,117.182" fill="rgb(216,216,216)"/>
<polygon points="140.638,118.853 142.648,123.886 144.148,120.409 143.629,117.856" fill="#99d9fa"/>
<line x1="145.413" y1="37.201" x2="157.054" y2="37.201" stroke="#8c8c8c" stroke-width="0.3" stroke-dasharray="1.2,0.8"/>
<line x1="151.624" y1="116.805" x2="145.413" y2="37.201" stroke="#8c8c8c" stroke-width="0.3" stroke-dasharray="1.2,0.8"/>
<line x1="145.413" y1="37.201" x2="146.709" y2="117.182" stroke="#8c8c8c" stroke-width="0.3" stroke-dasharray="1.2,0.8"/>
<line x1="157.054" y1="37.201" x2="151.624" y2="116.805" stroke="#8c8c8c" stroke-width="0.3" stroke-dasharray="1.2,0.8"/>
<line x1="146.709" y1="117.182" x2="151.624" y2="116.805" stroke="#8c8c8c" stroke-width="0.3" stroke-dasharray="1.2,0.8"/>
<line x1="100.834" y1="49.467" x2="137.77" y2="120.162" stroke="#8c8c8c" stroke-width="0.3" stroke-dasharray="1.2,0.8"/>
<line x1="111.424" y1="44.633" x2="140.638" y2="118.853" stroke="#8c8c8c" stroke-width="0.3" stroke-dasharray="1.2,0.8"/>
<line x1="122.468" y1="40.952" x2="143.629" y2="117.856" stroke="#8c8c8c" stroke-width="0.3" stroke-dasharray="1.2,0.8"/>
<line x1="133.84" y1="38.465" x2="146.709" y2="117.182" stroke="#8c8c8c" stroke-width="0.3" stroke-dasharray="1.2,0.8"/>
<line x1="168.628" y1="38.445" x2="151.624" y2="116.805" stroke="#8c8c8c" stroke-width="0.3" stroke-dasharray="1.2,0.8"/>
<line x1="138.154" y1="28.1" x2="145.413" y2="37.201" stroke="#8c8c8c" stroke-width="0.3" stroke-dasharray="1.2,0.8"/>
<line x1="168.628" y1="38.445" x2="157.054" y2="37.201" stroke="#8c8c8c" stroke-width="0.3" stroke-dasharray="1.2,0.8"/>
<line x1="152.672" y1="121.008" x2="151.624" y2="116.805" stroke="#8c8c8c" stroke-width="0.3" stroke-dasharray="1.2,0.8"/>
<line x1="155.938" y1="117.191" x2="168.628" y2="38.445" stroke="#8c8c8c" stroke-width="0.3" stroke-dasharray="1.2,0.8"/>
<line x1="161.722" y1="16.75" x2="164.312" y2="28.1" stroke="#8c8c8c" stroke-width="0.3" stroke-dasharray="1.2,0.8"/>
<line x1="137.77" y1="120.162" x2="135.057" y2="121.769" stroke="#8c8c8c" stroke-width="0.3" stroke-dasharray="1.2,0.8"/>
<line x1="151.233" y1="11.699" x2="161.722" y2="16.75" stroke="#8c8c8c" stroke-width="0.3" stroke-dasharray="1.2,0.8"/>
<line x1="140.638" y1="118.853" x2="137.77" y2="120.162" stroke="#8c8c8c" stroke-width="0.3" stroke-dasharray="1.2,0.8"/>
<line x1="140.745" y1="16.75" x2="151.233" y2="11.699" stroke="#8c8c8c" stroke-width="0.3" stroke-dasharray="1.2,0.8"/>
<line x1="143.629" y1="117.856" x2="140.638" y2="118.853" stroke="#8c8c8c" stroke-width="0.3" stroke-dasharray="1.2,0.8"/>
<line x1="138.154" y1="28.1" x2="140.745" y2="16.75" stroke="#8c8c8c" stroke-width="0.3" stroke-dasharray="1.2,0.8"/>
<line x1="146.709" y1="117.182" x2="143.629" y2="117.856" stroke="#8c8c8c" stroke-width="0.3" stroke-dasharray="1.2,0.8"/>
<line x1="133.84" y1="38.465" x2="145.413" y2="37.201" stroke="#141414" stroke-width="0.4"/>
<line x1="164.312" y1="28.099" x2="157.054" y2="37.201" stroke="#141414" stroke-width="0.4"/>
<line x1="155.938" y1="117.191" x2="151.624" y2="116.805" stroke="#141414" stroke-width="0.4"/>
<line x1="135.057" y1="121.769" x2="90.818" y2="55.399" stroke="#141414" stroke-width="0.4"/>
<line x1="90.818" y1="55.399" x2="100.834" y2="49.467" stroke="#141414" stroke-width="0.4"/>
<line x1="152.672" y1="121.008" x2="150.422" y2="123.216" stroke="#141414" stroke-width="0.4"/>
<line x1="100.834" y1="49.467" x2="111.424" y2="44.633" stroke="#141414" stroke-width="0.4"/>
<line x1="150.422" y1="123.216" x2="147.292" y2="122.834" stroke="#141414" stroke-width="0.4"/>
<line x1="111.424" y1="44.633" x2="122.468" y2="40.952" stroke="#141414" stroke-width="0.4"/>
<line x1="147.292" y1="122.834" x2="145.64" y2="120.148" stroke="#141414" stroke-width="0.4"/>
<line x1="122.468" y1="40.952" x2="133.84" y2="38.465" stroke="#141414" stroke-width="0.4"/>
<line x1="145.64" y1="120.148" x2="146.709" y2="117.182" stroke="#141414" stroke-width="0.4"/>
<line x1="145.413" y1="37.201" x2="137.813" y2="37.007" stroke="#141414" stroke-width="0.4"/>
<line x1="137.813" y1="37.007" x2="136.652" y2="35.551" stroke="#141414" stroke-width="0.4"/>
<line x1="136.652" y1="35.551" x2="138.154" y2="28.1" stroke="#141414" stroke-width="0.4"/>
<line x1="157.054" y1="37.201" x2="162.537" y2="31.936" stroke="#141414" stroke-width="0.4"/>
<line x1="162.537" y1="31.936" x2="164.389" y2="32.135" stroke="#141414" stroke-width="0.4"/>
<line x1="164.389" y1="32.135" x2="168.628" y2="38.445" stroke="#141414" stroke-width="0.4"/>
<line x1="151.624" y1="116.805" x2="155.006" y2="117.836" stroke="#141414" stroke-width="0.4"/>
<line x1="155.006" y1="117.836" x2="155.174" y2="118.509" stroke="#141414" stroke-width="0.4"/>
<line x1="155.174" y1="118.509" x2="152.672" y2="121.008" stroke="#141414" stroke-width="0.4"/>
<line x1="168.628" y1="38.445" x2="173.636" y2="51.371" stroke="#141414" stroke-width="0.4"/>
<line x1="173.636" y1="51.371" x2="164.752" y2="106.493" stroke="#141414" stroke-width="0.4"/>
<line x1="164.752" y1="106.493" x2="155.938" y2="117.191" stroke="#141414" stroke-width="0.4"/>
<line x1="164.312" y1="28.1" x2="169.598" y2="25.102" stroke="#141414" stroke-width="0.4"/>
<line x1="169.598" y1="25.102" x2="167.785" y2="17.157" stroke="#141414" stroke-width="0.4"/>
<line x1="167.785" y1="17.157" x2="161.722" y2="16.75" stroke="#141414" stroke-width="0.4"/>
<line x1="135.057" y1="121.769" x2="137.041" y2="124.5" stroke="#141414" stroke-width="0.4"/>
<line x1="137.041" y1="124.5" x2="139.211" y2="123.214" stroke="#141414" stroke-width="0.4"/>
<line x1="139.211" y1="123.214" x2="137.77" y2="120.162" stroke="#141414" stroke-width="0.4"/>
<line x1="161.722" y1="16.75" x2="162.674" y2="10.748" stroke="#141414" stroke-width="0.4"/>
<line x1="162.674" y1="10.748" x2="155.332" y2="7.213" stroke="#141414" stroke-width="0.4"/>
<line x1="155.332" y1="7.213" x2="151.233" y2="11.699" stroke="#141414" stroke-width="0.4"/>
<line x1="137.77" y1="120.162" x2="140.49" y2="125.361" stroke="#141414" stroke-width="0.4"/>
<line x1="140.49" y1="125.361" x2="142.784" y2="124.314" stroke="#141414" stroke-width="0.4"/>
<line x1="142.784" y1="124.314" x2="140.638" y2="118.853" stroke="#141414" stroke-width="0.4"/>
<line x1="151.233" y1="11.699" x2="147.135" y2="7.213" stroke="#141414" stroke-width="0.4"/>
<line x1="147.135" y1="7.213" x2="139.793" y2="10.748" stroke="#141414" stroke-width="0.4"/>
<line x1="139.793" y1="10.748" x2="140.745" y2="16.75" stroke="#141414" stroke-width="0.4"/>
<line x1="140.638" y1="118.853" x2="142.648" y2="123.886" stroke="#141414" stroke-width="0.4"/>
<line x1="142.648" y1="123.886" x2="144.148" y2="120.409" stroke="#141414" stroke-width="0.4"/>
<line x1="144.148" y1="120.409" x2="143.629" y2="117.856" stroke="#141414" stroke-width="0.4"/>
<line x1="140.745" y1="16.75" x2="134.682" y2="17.157" stroke="#141414" stroke-width="0.4"/>
<line x1="134.682" y1="17.157" x2="132.868" y2="25.102" stroke="#141414" stroke-width="0.4"/>
<line x1="132.868" y1="25.102" x2="138.154" y2="28.1" stroke="#141414" stroke-width="0.4"/>
<line x1="143.629" y1="117.856" x2="144.462" y2="120.187" stroke="#141414" stroke-width="0.4"/>
<line x1="144.462" y1="120.187" x2="146.401" y2="117.25" stroke="#141414" stroke-width="0.4"/>
<line x1="146.401" y1="117.25" x2="146.709" y2="117.182" stroke="#141414" stroke-width="0.4"/>
<circle cx="139.508" cy="34.465" r="0.95" fill="#ffe082" stroke="#464646" stroke-width="0.2"/>
<text x="139.508" y="34.79" font-size="0.93" text-anchor="middle" fill="#141414">163</text>
<circle cx="163.152" cy="34.929" r="0.95" fill="#ffe082" stroke="#464646" stroke-width="0.2"/>
<text x="163.152" y="35.25" font-size="0.93" text-anchor="middle" fill="#141414">164</text>
<circle cx="153.619" cy="118.539" r="0.95" fill="#ffe082" stroke="#464646" stroke-width="0.2"/>
<text x="153.619" y="118.86" font-size="0.93" text-anchor="middle" fill="#141414">165</text>
<circle cx="165.739" cy="78.375" r="0.95" fill="#ffe082" stroke="#464646" stroke-width="0.2"/>
<text x="165.739" y="78.70" font-size="0.93" text-anchor="middle" fill="#141414">166</text>
<circle cx="165.854" cy="21.777" r="0.95" fill="#ffe082" stroke="#464646" stroke-width="0.2"/>
<text x="165.854" y="22.10" font-size="0.93" text-anchor="middle" fill="#141414">167</text>
<circle cx="157.74" cy="11.603" r="0.95" fill="#ffe082" stroke="#464646" stroke-width="0.2"/>
<text x="157.74" y="11.93" font-size="0.93" text-anchor="middle" fill="#141414">169</text>
<circle cx="144.726" cy="11.603" r="0.95" fill="#ffe082" stroke="#464646" stroke-width="0.2"/>
<text x="144.726" y="11.93" font-size="0.93" text-anchor="middle" fill="#141414">171</text>
<circle cx="136.612" cy="21.777" r="0.95" fill="#ffe082" stroke="#464646" stroke-width="0.2"/>
<text x="136.612" y="22.10" font-size="0.93" text-anchor="middle" fill="#141414">173</text>
<circle cx="132.227" cy="129.248" r="4.6" fill="#eaf1fe" stroke="#2e78e6" stroke-width="0.3"/>
<text x="132.227" y="131.048" font-size="5.2" text-anchor="middle" fill="#14306e" font-weight="bold">16</text>
<polygon points="59.595,158.349 51.996,158.156 50.834,156.699 52.337,149.248" fill="rgb(216,216,216)"/>
<polygon points="71.236,158.349 76.719,153.084 78.571,153.283 82.81,159.593" fill="rgb(216,216,216)"/>
<polygon points="65.806,237.953 69.188,238.984 69.356,239.657 66.854,242.156" fill="rgb(216,216,216)"/>
<polygon points="82.81,159.593 87.818,172.519 78.935,227.641 70.12,238.34" fill="rgb(216,216,216)"/>
<polygon points="78.494,149.248 83.78,146.25 81.967,138.306 75.904,137.898" fill="rgb(216,216,216)"/>
<polygon points="49.239,242.917 51.223,245.648 53.393,244.362 51.952,241.31" fill="rgb(216,216,216)"/>
<polygon points="75.904,137.898 76.856,131.897 69.514,128.361 65.415,132.847" fill="rgb(216,216,216)"/>
<polygon points="51.952,241.31 54.672,246.509 56.966,245.462 54.82,240.001" fill="rgb(216,216,216)"/>
<polygon points="65.415,132.847 61.317,128.361 53.975,131.897 54.927,137.898" fill="rgb(216,216,216)"/>
<polygon points="54.82,240.001 56.83,245.034 58.33,241.557 57.811,239.004" fill="rgb(216,216,216)"/>
<polygon points="54.927,137.898 48.864,138.306 47.051,146.25 52.337,149.248" fill="rgb(216,216,216)"/>
<polygon points="57.811,239.004 58.644,241.336 60.583,238.398 60.891,238.331" fill="rgb(216,216,216)"/>
<polygon points="57.811,239.004 58.644,241.336 60.583,238.398 60.891,238.331" fill="#99d9fa"/>
<line x1="59.595" y1="158.349" x2="71.236" y2="158.349" stroke="#8c8c8c" stroke-width="0.3" stroke-dasharray="1.2,0.8"/>
<line x1="65.806" y1="237.953" x2="59.595" y2="158.349" stroke="#8c8c8c" stroke-width="0.3" stroke-dasharray="1.2,0.8"/>
<line x1="59.595" y1="158.349" x2="60.891" y2="238.331" stroke="#8c8c8c" stroke-width="0.3" stroke-dasharray="1.2,0.8"/>
<line x1="71.236" y1="158.349" x2="65.806" y2="237.953" stroke="#8c8c8c" stroke-width="0.3" stroke-dasharray="1.2,0.8"/>
<line x1="60.891" y1="238.331" x2="65.806" y2="237.953" stroke="#8c8c8c" stroke-width="0.3" stroke-dasharray="1.2,0.8"/>
<line x1="15.016" y1="170.616" x2="51.952" y2="241.31" stroke="#8c8c8c" stroke-width="0.3" stroke-dasharray="1.2,0.8"/>
<line x1="25.606" y1="165.781" x2="54.82" y2="240.001" stroke="#8c8c8c" stroke-width="0.3" stroke-dasharray="1.2,0.8"/>
<line x1="36.65" y1="162.1" x2="57.811" y2="239.004" stroke="#8c8c8c" stroke-width="0.3" stroke-dasharray="1.2,0.8"/>
<line x1="48.023" y1="159.613" x2="60.891" y2="238.331" stroke="#8c8c8c" stroke-width="0.3" stroke-dasharray="1.2,0.8"/>
<line x1="82.811" y1="159.593" x2="65.806" y2="237.953" stroke="#8c8c8c" stroke-width="0.3" stroke-dasharray="1.2,0.8"/>
<line x1="52.337" y1="149.248" x2="59.595" y2="158.349" stroke="#8c8c8c" stroke-width="0.3" stroke-dasharray="1.2,0.8"/>
<line x1="82.81" y1="159.593" x2="71.236" y2="158.349" stroke="#8c8c8c" stroke-width="0.3" stroke-dasharray="1.2,0.8"/>
<line x1="66.854" y1="242.156" x2="65.806" y2="237.953" stroke="#8c8c8c" stroke-width="0.3" stroke-dasharray="1.2,0.8"/>
<line x1="70.12" y1="238.34" x2="82.81" y2="159.593" stroke="#8c8c8c" stroke-width="0.3" stroke-dasharray="1.2,0.8"/>
<line x1="75.904" y1="137.898" x2="78.494" y2="149.248" stroke="#8c8c8c" stroke-width="0.3" stroke-dasharray="1.2,0.8"/>
<line x1="51.952" y1="241.31" x2="49.239" y2="242.917" stroke="#8c8c8c" stroke-width="0.3" stroke-dasharray="1.2,0.8"/>
<line x1="65.415" y1="132.847" x2="75.904" y2="137.898" stroke="#8c8c8c" stroke-width="0.3" stroke-dasharray="1.2,0.8"/>
<line x1="54.82" y1="240.001" x2="51.952" y2="241.31" stroke="#8c8c8c" stroke-width="0.3" stroke-dasharray="1.2,0.8"/>
<line x1="54.927" y1="137.898" x2="65.415" y2="132.847" stroke="#8c8c8c" stroke-width="0.3" stroke-dasharray="1.2,0.8"/>
<line x1="57.811" y1="239.004" x2="54.82" y2="240.001" stroke="#8c8c8c" stroke-width="0.3" stroke-dasharray="1.2,0.8"/>
<line x1="52.337" y1="149.248" x2="54.927" y2="137.898" stroke="#8c8c8c" stroke-width="0.3" stroke-dasharray="1.2,0.8"/>
<line x1="60.891" y1="238.331" x2="57.811" y2="239.004" stroke="#8c8c8c" stroke-width="0.3" stroke-dasharray="1.2,0.8"/>
<line x1="48.023" y1="159.613" x2="59.595" y2="158.349" stroke="#141414" stroke-width="0.4"/>
<line x1="78.494" y1="149.248" x2="71.236" y2="158.349" stroke="#141414" stroke-width="0.4"/>
<line x1="70.12" y1="238.339" x2="65.806" y2="237.953" stroke="#141414" stroke-width="0.4"/>
<line x1="49.239" y1="242.917" x2="5.0" y2="176.548" stroke="#141414" stroke-width="0.4"/>
<line x1="5.0" y1="176.548" x2="15.016" y2="170.616" stroke="#141414" stroke-width="0.4"/>
<line x1="66.854" y1="242.156" x2="64.604" y2="244.364" stroke="#141414" stroke-width="0.4"/>
<line x1="15.016" y1="170.616" x2="25.606" y2="165.781" stroke="#141414" stroke-width="0.4"/>
<line x1="64.604" y1="244.364" x2="61.474" y2="243.982" stroke="#141414" stroke-width="0.4"/>
<line x1="25.606" y1="165.781" x2="36.65" y2="162.1" stroke="#141414" stroke-width="0.4"/>
<line x1="61.474" y1="243.982" x2="59.822" y2="241.297" stroke="#141414" stroke-width="0.4"/>
<line x1="36.65" y1="162.1" x2="48.023" y2="159.613" stroke="#141414" stroke-width="0.4"/>
<line x1="59.822" y1="241.297" x2="60.891" y2="238.331" stroke="#141414" stroke-width="0.4"/>
<line x1="59.595" y1="158.349" x2="51.996" y2="158.156" stroke="#141414" stroke-width="0.4"/>
<line x1="51.996" y1="158.156" x2="50.834" y2="156.699" stroke="#141414" stroke-width="0.4"/>
<line x1="50.834" y1="156.699" x2="52.337" y2="149.248" stroke="#141414" stroke-width="0.4"/>
<line x1="71.236" y1="158.349" x2="76.719" y2="153.084" stroke="#141414" stroke-width="0.4"/>
<line x1="76.719" y1="153.084" x2="78.571" y2="153.283" stroke="#141414" stroke-width="0.4"/>
<line x1="78.571" y1="153.283" x2="82.81" y2="159.593" stroke="#141414" stroke-width="0.4"/>
<line x1="65.806" y1="237.953" x2="69.188" y2="238.984" stroke="#141414" stroke-width="0.4"/>
<line x1="69.188" y1="238.984" x2="69.356" y2="239.657" stroke="#141414" stroke-width="0.4"/>
<line x1="69.356" y1="239.657" x2="66.854" y2="242.156" stroke="#141414" stroke-width="0.4"/>
<line x1="82.81" y1="159.593" x2="87.818" y2="172.519" stroke="#141414" stroke-width="0.4"/>
<line x1="87.818" y1="172.519" x2="78.935" y2="227.641" stroke="#141414" stroke-width="0.4"/>
<line x1="78.935" y1="227.641" x2="70.12" y2="238.34" stroke="#141414" stroke-width="0.4"/>
<line x1="78.494" y1="149.248" x2="83.78" y2="146.25" stroke="#141414" stroke-width="0.4"/>
<line x1="83.78" y1="146.25" x2="81.967" y2="138.306" stroke="#141414" stroke-width="0.4"/>
<line x1="81.967" y1="138.306" x2="75.904" y2="137.898" stroke="#141414" stroke-width="0.4"/>
<line x1="49.239" y1="242.917" x2="51.223" y2="245.648" stroke="#141414" stroke-width="0.4"/>
<line x1="51.223" y1="245.648" x2="53.393" y2="244.362" stroke="#141414" stroke-width="0.4"/>
<line x1="53.393" y1="244.362" x2="51.952" y2="241.31" stroke="#141414" stroke-width="0.4"/>
<line x1="75.904" y1="137.898" x2="76.856" y2="131.897" stroke="#141414" stroke-width="0.4"/>
<line x1="76.856" y1="131.897" x2="69.514" y2="128.361" stroke="#141414" stroke-width="0.4"/>
<line x1="69.514" y1="128.361" x2="65.415" y2="132.847" stroke="#141414" stroke-width="0.4"/>
<line x1="51.952" y1="241.31" x2="54.672" y2="246.509" stroke="#141414" stroke-width="0.4"/>
<line x1="54.672" y1="246.509" x2="56.966" y2="245.462" stroke="#141414" stroke-width="0.4"/>
<line x1="56.966" y1="245.462" x2="54.82" y2="240.001" stroke="#141414" stroke-width="0.4"/>
<line x1="65.415" y1="132.847" x2="61.317" y2="128.361" stroke="#141414" stroke-width="0.4"/>
<line x1="61.317" y1="128.361" x2="53.975" y2="131.897" stroke="#141414" stroke-width="0.4"/>
<line x1="53.975" y1="131.897" x2="54.927" y2="137.898" stroke="#141414" stroke-width="0.4"/>
<line x1="54.82" y1="240.001" x2="56.83" y2="245.034" stroke="#141414" stroke-width="0.4"/>
<line x1="56.83" y1="245.034" x2="58.33" y2="241.557" stroke="#141414" stroke-width="0.4"/>
<line x1="58.33" y1="241.557" x2="57.811" y2="239.004" stroke="#141414" stroke-width="0.4"/>
<line x1="54.927" y1="137.898" x2="48.864" y2="138.306" stroke="#141414" stroke-width="0.4"/>
<line x1="48.864" y1="138.306" x2="47.051" y2="146.25" stroke="#141414" stroke-width="0.4"/>
<line x1="47.051" y1="146.25" x2="52.337" y2="149.248" stroke="#141414" stroke-width="0.4"/>
<line x1="57.811" y1="239.004" x2="58.644" y2="241.336" stroke="#141414" stroke-width="0.4"/>
<line x1="58.644" y1="241.336" x2="60.583" y2="238.398" stroke="#141414" stroke-width="0.4"/>
<line x1="60.583" y1="238.398" x2="60.891" y2="238.331" stroke="#141414" stroke-width="0.4"/>
<circle cx="53.69" cy="155.613" r="0.95" fill="#ffe082" stroke="#464646" stroke-width="0.2"/>
<text x="53.69" y="155.94" font-size="0.93" text-anchor="middle" fill="#141414">175</text>
<circle cx="77.334" cy="156.078" r="0.95" fill="#ffe082" stroke="#464646" stroke-width="0.2"/>
<text x="77.334" y="156.40" font-size="0.93" text-anchor="middle" fill="#141414">176</text>
<circle cx="67.801" cy="239.688" r="0.95" fill="#ffe082" stroke="#464646" stroke-width="0.2"/>
<text x="67.801" y="240.01" font-size="0.93" text-anchor="middle" fill="#141414">177</text>
<circle cx="79.921" cy="199.523" r="0.95" fill="#ffe082" stroke="#464646" stroke-width="0.2"/>
<text x="79.921" y="199.85" font-size="0.93" text-anchor="middle" fill="#141414">178</text>
<circle cx="80.036" cy="142.925" r="0.95" fill="#ffe082" stroke="#464646" stroke-width="0.2"/>
<text x="80.036" y="143.25" font-size="0.93" text-anchor="middle" fill="#141414">179</text>
<circle cx="71.922" cy="132.751" r="0.95" fill="#ffe082" stroke="#464646" stroke-width="0.2"/>
<text x="71.922" y="133.08" font-size="0.93" text-anchor="middle" fill="#141414">181</text>
<circle cx="58.909" cy="132.751" r="0.95" fill="#ffe082" stroke="#464646" stroke-width="0.2"/>
<text x="58.909" y="133.08" font-size="0.93" text-anchor="middle" fill="#141414">183</text>
<circle cx="50.795" cy="142.925" r="0.95" fill="#ffe082" stroke="#464646" stroke-width="0.2"/>
<text x="50.795" y="143.25" font-size="0.93" text-anchor="middle" fill="#141414">185</text>
<circle cx="46.409" cy="120.048" r="4.6" fill="#eaf1fe" stroke="#2e78e6" stroke-width="0.3"/>
<text x="46.409" y="121.848" font-size="5.2" text-anchor="middle" fill="#14306e" font-weight="bold">17</text>
<polygon points="145.413,158.349 137.813,158.156 136.652,156.699 138.154,149.248" fill="rgb(216,216,216)"/>
<polygon points="157.054,158.349 162.537,153.084 164.389,153.283 168.628,159.593" fill="rgb(216,216,216)"/>
<polygon points="151.624,237.953 155.006,238.984 155.174,239.657 152.672,242.156" fill="rgb(216,216,216)"/>
<polygon points="168.628,159.593 173.636,172.519 164.752,227.641 155.938,238.34" fill="rgb(216,216,216)"/>
<polygon points="164.312,149.248 169.598,146.25 167.785,138.306 161.722,137.898" fill="rgb(216,216,216)"/>
<polygon points="135.057,242.917 137.041,245.648 139.211,244.362 137.77,241.31" fill="rgb(216,216,216)"/>
<polygon points="161.722,137.898 162.674,131.897 155.332,128.361 151.233,132.847" fill="rgb(216,216,216)"/>
<polygon points="137.77,241.31 140.49,246.509 142.784,245.462 140.638,240.001" fill="rgb(216,216,216)"/>
<polygon points="151.233,132.847 147.135,128.361 139.793,131.897 140.745,137.898" fill="rgb(216,216,216)"/>
<polygon points="140.638,240.001 142.648,245.034 144.148,241.557 143.629,239.004" fill="rgb(216,216,216)"/>
<polygon points="140.745,137.898 134.682,138.306 132.868,146.25 138.154,149.248" fill="rgb(216,216,216)"/>
<polygon points="143.629,239.004 144.462,241.336 146.401,238.398 146.709,238.331" fill="rgb(216,216,216)"/>
<polygon points="143.629,239.004 144.462,241.336 146.401,238.398 146.709,238.331" fill="#99d9fa"/>
<line x1="145.413" y1="158.349" x2="157.054" y2="158.349" stroke="#8c8c8c" stroke-width="0.3" stroke-dasharray="1.2,0.8"/>
<line x1="151.624" y1="237.953" x2="145.413" y2="158.349" stroke="#8c8c8c" stroke-width="0.3" stroke-dasharray="1.2,0.8"/>
<line x1="145.413" y1="158.349" x2="146.709" y2="238.331" stroke="#8c8c8c" stroke-width="0.3" stroke-dasharray="1.2,0.8"/>
<line x1="157.054" y1="158.349" x2="151.624" y2="237.953" stroke="#8c8c8c" stroke-width="0.3" stroke-dasharray="1.2,0.8"/>
<line x1="146.709" y1="238.331" x2="151.624" y2="237.953" stroke="#8c8c8c" stroke-width="0.3" stroke-dasharray="1.2,0.8"/>
<line x1="100.834" y1="170.616" x2="137.77" y2="241.31" stroke="#8c8c8c" stroke-width="0.3" stroke-dasharray="1.2,0.8"/>
<line x1="111.424" y1="165.781" x2="140.638" y2="240.001" stroke="#8c8c8c" stroke-width="0.3" stroke-dasharray="1.2,0.8"/>
<line x1="122.468" y1="162.1" x2="143.629" y2="239.004" stroke="#8c8c8c" stroke-width="0.3" stroke-dasharray="1.2,0.8"/>
<line x1="133.84" y1="159.613" x2="146.709" y2="238.331" stroke="#8c8c8c" stroke-width="0.3" stroke-dasharray="1.2,0.8"/>
<line x1="168.628" y1="159.593" x2="151.624" y2="237.953" stroke="#8c8c8c" stroke-width="0.3" stroke-dasharray="1.2,0.8"/>
<line x1="138.154" y1="149.248" x2="145.413" y2="158.349" stroke="#8c8c8c" stroke-width="0.3" stroke-dasharray="1.2,0.8"/>
<line x1="168.628" y1="159.593" x2="157.054" y2="158.349" stroke="#8c8c8c" stroke-width="0.3" stroke-dasharray="1.2,0.8"/>
<line x1="152.672" y1="242.156" x2="151.624" y2="237.953" stroke="#8c8c8c" stroke-width="0.3" stroke-dasharray="1.2,0.8"/>
<line x1="155.938" y1="238.34" x2="168.628" y2="159.593" stroke="#8c8c8c" stroke-width="0.3" stroke-dasharray="1.2,0.8"/>
<line x1="161.722" y1="137.898" x2="164.312" y2="149.248" stroke="#8c8c8c" stroke-width="0.3" stroke-dasharray="1.2,0.8"/>
<line x1="137.77" y1="241.31" x2="135.057" y2="242.917" stroke="#8c8c8c" stroke-width="0.3" stroke-dasharray="1.2,0.8"/>
<line x1="151.233" y1="132.847" x2="161.722" y2="137.898" stroke="#8c8c8c" stroke-width="0.3" stroke-dasharray="1.2,0.8"/>
<line x1="140.638" y1="240.001" x2="137.77" y2="241.31" stroke="#8c8c8c" stroke-width="0.3" stroke-dasharray="1.2,0.8"/>
<line x1="140.745" y1="137.898" x2="151.233" y2="132.847" stroke="#8c8c8c" stroke-width="0.3" stroke-dasharray="1.2,0.8"/>
<line x1="143.629" y1="239.004" x2="140.638" y2="240.001" stroke="#8c8c8c" stroke-width="0.3" stroke-dasharray="1.2,0.8"/>
<line x1="138.154" y1="149.248" x2="140.745" y2="137.898" stroke="#8c8c8c" stroke-width="0.3" stroke-dasharray="1.2,0.8"/>
<line x1="146.709" y1="238.331" x2="143.629" y2="239.004" stroke="#8c8c8c" stroke-width="0.3" stroke-dasharray="1.2,0.8"/>
<line x1="133.84" y1="159.613" x2="145.413" y2="158.349" stroke="#141414" stroke-width="0.4"/>
<line x1="164.312" y1="149.248" x2="157.054" y2="158.349" stroke="#141414" stroke-width="0.4"/>
<line x1="155.938" y1="238.339" x2="151.624" y2="237.953" stroke="#141414" stroke-width="0.4"/>
<line x1="135.057" y1="242.917" x2="90.818" y2="176.548" stroke="#141414" stroke-width="0.4"/>
<line x1="90.818" y1="176.548" x2="100.834" y2="170.616" stroke="#141414" stroke-width="0.4"/>
<line x1="152.672" y1="242.156" x2="150.422" y2="244.364" stroke="#141414" stroke-width="0.4"/>
<line x1="100.834" y1="170.616" x2="111.424" y2="165.781" stroke="#141414" stroke-width="0.4"/>
<line x1="150.422" y1="244.364" x2="147.292" y2="243.982" stroke="#141414" stroke-width="0.4"/>
<line x1="111.424" y1="165.781" x2="122.468" y2="162.1" stroke="#141414" stroke-width="0.4"/>
<line x1="147.292" y1="243.982" x2="145.64" y2="241.297" stroke="#141414" stroke-width="0.4"/>
<line x1="122.468" y1="162.1" x2="133.84" y2="159.613" stroke="#141414" stroke-width="0.4"/>
<line x1="145.64" y1="241.297" x2="146.709" y2="238.331" stroke="#141414" stroke-width="0.4"/>
<line x1="145.413" y1="158.349" x2="137.813" y2="158.156" stroke="#141414" stroke-width="0.4"/>
<line x1="137.813" y1="158.156" x2="136.652" y2="156.699" stroke="#141414" stroke-width="0.4"/>
<line x1="136.652" y1="156.699" x2="138.154" y2="149.248" stroke="#141414" stroke-width="0.4"/>
<line x1="157.054" y1="158.349" x2="162.537" y2="153.084" stroke="#141414" stroke-width="0.4"/>
<line x1="162.537" y1="153.084" x2="164.389" y2="153.283" stroke="#141414" stroke-width="0.4"/>
<line x1="164.389" y1="153.283" x2="168.628" y2="159.593" stroke="#141414" stroke-width="0.4"/>
<line x1="151.624" y1="237.953" x2="155.006" y2="238.984" stroke="#141414" stroke-width="0.4"/>
<line x1="155.006" y1="238.984" x2="155.174" y2="239.657" stroke="#141414" stroke-width="0.4"/>
<line x1="155.174" y1="239.657" x2="152.672" y2="242.156" stroke="#141414" stroke-width="0.4"/>
<line x1="168.628" y1="159.593" x2="173.636" y2="172.519" stroke="#141414" stroke-width="0.4"/>
<line x1="173.636" y1="172.519" x2="164.752" y2="227.641" stroke="#141414" stroke-width="0.4"/>
<line x1="164.752" y1="227.641" x2="155.938" y2="238.34" stroke="#141414" stroke-width="0.4"/>
<line x1="164.312" y1="149.248" x2="169.598" y2="146.25" stroke="#141414" stroke-width="0.4"/>
<line x1="169.598" y1="146.25" x2="167.785" y2="138.306" stroke="#141414" stroke-width="0.4"/>
<line x1="167.785" y1="138.306" x2="161.722" y2="137.898" stroke="#141414" stroke-width="0.4"/>
<line x1="135.057" y1="242.917" x2="137.041" y2="245.648" stroke="#141414" stroke-width="0.4"/>
<line x1="137.041" y1="245.648" x2="139.211" y2="244.362" stroke="#141414" stroke-width="0.4"/>
<line x1="139.211" y1="244.362" x2="137.77" y2="241.31" stroke="#141414" stroke-width="0.4"/>
<line x1="161.722" y1="137.898" x2="162.674" y2="131.897" stroke="#141414" stroke-width="0.4"/>
<line x1="162.674" y1="131.897" x2="155.332" y2="128.361" stroke="#141414" stroke-width="0.4"/>
<line x1="155.332" y1="128.361" x2="151.233" y2="132.847" stroke="#141414" stroke-width="0.4"/>
<line x1="137.77" y1="241.31" x2="140.49" y2="246.509" stroke="#141414" stroke-width="0.4"/>
<line x1="140.49" y1="246.509" x2="142.784" y2="245.462" stroke="#141414" stroke-width="0.4"/>
<line x1="142.784" y1="245.462" x2="140.638" y2="240.001" stroke="#141414" stroke-width="0.4"/>
<line x1="151.233" y1="132.847" x2="147.135" y2="128.361" stroke="#141414" stroke-width="0.4"/>
<line x1="147.135" y1="128.361" x2="139.793" y2="131.897" stroke="#141414" stroke-width="0.4"/>
<line x1="139.793" y1="131.897" x2="140.745" y2="137.898" stroke="#141414" stroke-width="0.4"/>
<line x1="140.638" y1="240.001" x2="142.648" y2="245.034" stroke="#141414" stroke-width="0.4"/>
<line x1="142.648" y1="245.034" x2="144.148" y2="241.557" stroke="#141414" stroke-width="0.4"/>
<line x1="144.148" y1="241.557" x2="143.629" y2="239.004" stroke="#141414" stroke-width="0.4"/>
<line x1="140.745" y1="137.898" x2="134.682" y2="138.306" stroke="#141414" stroke-width="0.4"/>
<line x1="134.682" y1="138.306" x2="132.868" y2="146.25" stroke="#141414" stroke-width="0.4"/>
<line x1="132.868" y1="146.25" x2="138.154" y2="149.248" stroke="#141414" stroke-width="0.4"/>
<line x1="143.629" y1="239.004" x2="144.462" y2="241.336" stroke="#141414" stroke-width="0.4"/>
<line x1="144.462" y1="241.336" x2="146.401" y2="238.398" stroke="#141414" stroke-width="0.4"/>
<line x1="146.401" y1="238.398" x2="146.709" y2="238.331" stroke="#141414" stroke-width="0.4"/>
<circle cx="139.508" cy="155.613" r="0.95" fill="#ffe082" stroke="#464646" stroke-width="0.2"/>
<text x="139.508" y="155.94" font-size="0.93" text-anchor="middle" fill="#141414">187</text>
<circle cx="163.152" cy="156.078" r="0.95" fill="#ffe082" stroke="#464646" stroke-width="0.2"/>
<text x="163.152" y="156.40" font-size="0.93" text-anchor="middle" fill="#141414">188</text>
<circle cx="153.619" cy="239.688" r="0.95" fill="#ffe082" stroke="#464646" stroke-width="0.2"/>
<text x="153.619" y="240.01" font-size="0.93" text-anchor="middle" fill="#141414">189</text>
<circle cx="165.739" cy="199.523" r="0.95" fill="#ffe082" stroke="#464646" stroke-width="0.2"/>
<text x="165.739" y="199.85" font-size="0.93" text-anchor="middle" fill="#141414">190</text>
<circle cx="165.854" cy="142.925" r="0.95" fill="#ffe082" stroke="#464646" stroke-width="0.2"/>
<text x="165.854" y="143.25" font-size="0.93" text-anchor="middle" fill="#141414">191</text>
<circle cx="157.74" cy="132.751" r="0.95" fill="#ffe082" stroke="#464646" stroke-width="0.2"/>
<text x="157.74" y="133.08" font-size="0.93" text-anchor="middle" fill="#141414">193</text>
<circle cx="144.726" cy="132.751" r="0.95" fill="#ffe082" stroke="#464646" stroke-width="0.2"/>
<text x="144.726" y="133.08" font-size="0.93" text-anchor="middle" fill="#141414">195</text>
<circle cx="136.612" cy="142.925" r="0.95" fill="#ffe082" stroke="#464646" stroke-width="0.2"/>
<text x="136.612" y="143.25" font-size="0.93" text-anchor="middle" fill="#141414">197</text>
<circle cx="132.227" cy="120.048" r="4.6" fill="#eaf1fe" stroke="#2e78e6" stroke-width="0.3"/>
<text x="132.227" y="121.848" font-size="5.2" text-anchor="middle" fill="#14306e" font-weight="bold">18</text>
<g pointer-events="none"><text x="105.0" y="83.2" text-anchor="middle" font-family="sans-serif" font-size="12.4" fill="#9aa0a6" fill-opacity="0.3" transform="rotate(-28 105.0 83.2)">papercraft.kr</text><text x="105.0" y="148.5" text-anchor="middle" font-family="sans-serif" font-size="12.4" fill="#9aa0a6" fill-opacity="0.3" transform="rotate(-28 105.0 148.5)">papercraft.kr</text><text x="105.0" y="213.8" text-anchor="middle" font-family="sans-serif" font-size="12.4" fill="#9aa0a6" fill-opacity="0.3" transform="rotate(-28 105.0 213.8)">papercraft.kr</text></g></svg>
