<svg xmlns="http://www.w3.org/2000/svg" xmlns:xlink="http://www.w3.org/1999/xlink" width="210.00mm" height="297.00mm" viewBox="0 0 210.00 297.00">
<rect x="0" y="0" width="210.00" height="297.00" fill="#ffffff" stroke="#cccccc" stroke-width="0.2"/>
<polygon points="134.858,206.047 123.761,192.318 94.502,119.231 93.059,101.637" fill="rgb(216,216,216)"/>
<polygon points="134.858,206.047 137.597,211.434 151.931,212.354 155.336,207.362" fill="rgb(216,216,216)"/>
<polygon points="93.059,101.637 107.462,101.593 124.181,108.007 134.858,117.673" fill="rgb(216,216,216)"/>
<polygon points="167.626,86.682 170.956,105.311 162.352,189.786 155.336,207.362" fill="rgb(216,216,216)"/>
<polygon points="167.626,86.682 174.282,82.139 181.96,54.454 178.595,47.132" fill="rgb(216,216,216)"/>
<line x1="134.858" y1="206.047" x2="134.858" y2="117.673" stroke="#8c8c8c" stroke-width="0.3" stroke-dasharray="1.2,0.8"/>
<line x1="134.858" y1="117.673" x2="155.336" y2="207.362" stroke="#8c8c8c" stroke-width="0.3" stroke-dasharray="1.2,0.8"/>
<line x1="128.802" y1="52.679" x2="117.053" y2="82.245" stroke="#8c8c8c" stroke-width="0.3" stroke-dasharray="1.2,0.8"/>
<line x1="128.802" y1="52.679" x2="167.626" y2="86.681" stroke="#8c8c8c" stroke-width="0.3" stroke-dasharray="1.2,0.8"/>
<line x1="128.802" y1="52.679" x2="178.595" y2="47.132" stroke="#8c8c8c" stroke-width="0.3" stroke-dasharray="1.2,0.8"/>
<line x1="134.858" y1="117.673" x2="167.626" y2="86.681" stroke="#8c8c8c" stroke-width="0.3" stroke-dasharray="1.2,0.8"/>
<line x1="93.059" y1="101.637" x2="134.858" y2="206.047" stroke="#8c8c8c" stroke-width="0.3" stroke-dasharray="1.2,0.8"/>
<line x1="155.336" y1="207.362" x2="134.858" y2="206.047" stroke="#8c8c8c" stroke-width="0.3" stroke-dasharray="1.2,0.8"/>
<line x1="134.858" y1="117.673" x2="93.059" y2="101.637" stroke="#8c8c8c" stroke-width="0.3" stroke-dasharray="1.2,0.8"/>
<line x1="155.336" y1="207.362" x2="167.626" y2="86.682" stroke="#8c8c8c" stroke-width="0.3" stroke-dasharray="1.2,0.8"/>
<line x1="178.595" y1="47.132" x2="167.626" y2="86.682" stroke="#8c8c8c" stroke-width="0.3" stroke-dasharray="1.2,0.8"/>
<line x1="117.053" y1="82.245" x2="5.0" y2="88.157" stroke="#141414" stroke-width="0.4"/>
<line x1="5.0" y1="88.157" x2="128.802" y2="52.679" stroke="#141414" stroke-width="0.4"/>
<line x1="134.858" y1="117.673" x2="117.053" y2="82.245" stroke="#141414" stroke-width="0.4"/>
<line x1="128.802" y1="52.679" x2="126.858" y2="5.0" stroke="#141414" stroke-width="0.4"/>
<line x1="126.858" y1="5.0" x2="178.595" y2="47.132" stroke="#141414" stroke-width="0.4"/>
<line x1="134.858" y1="206.047" x2="123.761" y2="192.318" stroke="#141414" stroke-width="0.4"/>
<line x1="123.761" y1="192.318" x2="94.502" y2="119.231" stroke="#141414" stroke-width="0.4"/>
<line x1="94.502" y1="119.231" x2="93.059" y2="101.637" stroke="#141414" stroke-width="0.4"/>
<line x1="134.858" y1="206.047" x2="137.597" y2="211.434" stroke="#141414" stroke-width="0.4"/>
<line x1="137.597" y1="211.434" x2="151.931" y2="212.354" stroke="#141414" stroke-width="0.4"/>
<line x1="151.931" y1="212.354" x2="155.336" y2="207.362" stroke="#141414" stroke-width="0.4"/>
<line x1="93.059" y1="101.637" x2="107.462" y2="101.593" stroke="#141414" stroke-width="0.4"/>
<line x1="107.462" y1="101.593" x2="124.181" y2="108.007" stroke="#141414" stroke-width="0.4"/>
<line x1="124.181" y1="108.007" x2="134.858" y2="117.673" stroke="#141414" stroke-width="0.4"/>
<line x1="167.626" y1="86.682" x2="170.956" y2="105.311" stroke="#141414" stroke-width="0.4"/>
<line x1="170.956" y1="105.311" x2="162.352" y2="189.786" stroke="#141414" stroke-width="0.4"/>
<line x1="162.352" y1="189.786" x2="155.336" y2="207.362" stroke="#141414" stroke-width="0.4"/>
<line x1="167.626" y1="86.682" x2="174.282" y2="82.139" stroke="#141414" stroke-width="0.4"/>
<line x1="174.282" y1="82.139" x2="181.96" y2="54.454" stroke="#141414" stroke-width="0.4"/>
<line x1="181.96" y1="54.454" x2="178.595" y2="47.132" stroke="#141414" stroke-width="0.4"/>
<circle cx="111.545" cy="154.808" r="2.29" fill="#ffe082" stroke="#464646" stroke-width="0.2"/>
<text x="111.545" y="155.89" font-size="3.11" text-anchor="middle" fill="#141414">17</text>
<circle cx="144.93" cy="209.299" r="2.29" fill="#ffe082" stroke="#464646" stroke-width="0.2"/>
<text x="144.93" y="210.39" font-size="3.11" text-anchor="middle" fill="#141414">18</text>
<circle cx="114.89" cy="107.227" r="2.29" fill="#ffe082" stroke="#464646" stroke-width="0.2"/>
<text x="114.89" y="108.31" font-size="3.11" text-anchor="middle" fill="#141414">20</text>
<circle cx="164.068" cy="147.285" r="2.29" fill="#ffe082" stroke="#464646" stroke-width="0.2"/>
<text x="164.068" y="148.37" font-size="3.11" text-anchor="middle" fill="#141414">28</text>
<circle cx="175.616" cy="67.602" r="2.29" fill="#ffe082" stroke="#464646" stroke-width="0.2"/>
<text x="175.616" y="68.69" font-size="3.11" text-anchor="middle" fill="#141414">29</text>
<circle cx="158.341" cy="62.164" r="4.60" fill="#eaf1fe" stroke="#2e78e6" stroke-width="0.3"/>
<text x="158.341" y="63.96" font-size="5.20" text-anchor="middle" fill="#14306e" font-weight="bold">2</text>
<text x="205.0" y="295.0" font-size="3.2" text-anchor="end" fill="#737373" font-family="sans-serif">2 / 12</text>
<g pointer-events="none"><text x="105.0" y="83.2" text-anchor="middle" font-family="sans-serif" font-size="12.4" fill="#9aa0a6" fill-opacity="0.3" transform="rotate(-28 105.0 83.2)">papercraft.kr</text><text x="105.0" y="148.5" text-anchor="middle" font-family="sans-serif" font-size="12.4" fill="#9aa0a6" fill-opacity="0.3" transform="rotate(-28 105.0 148.5)">papercraft.kr</text><text x="105.0" y="213.8" text-anchor="middle" font-family="sans-serif" font-size="12.4" fill="#9aa0a6" fill-opacity="0.3" transform="rotate(-28 105.0 213.8)">papercraft.kr</text></g></svg>
