<svg xmlns="http://www.w3.org/2000/svg" xmlns:xlink="http://www.w3.org/1999/xlink" width="210.00mm" height="297.00mm" viewBox="0 0 210.00 297.00">
<rect x="0" y="0" width="210.00" height="297.00" fill="#ffffff" stroke="#cccccc" stroke-width="0.2"/>
<polygon points="91.497,75.892 85.973,82.892 60.194,82.892 54.67,75.892" fill="rgb(216,216,216)"/>
<polygon points="91.497,41.827 97.297,34.827 124.365,34.827 130.165,41.827" fill="rgb(216,216,216)"/>
<polygon points="91.497,41.827 85.973,34.827 60.194,34.827 54.67,41.827" fill="rgb(216,216,216)"/>
<polygon points="130.165,75.892 137.165,81.416 137.165,107.195 130.165,112.719" fill="rgb(216,216,216)"/>
<polygon points="16.002,5.0 9.002,10.524 9.002,36.303 16.002,41.827" fill="rgb(216,216,216)"/>
<polygon points="91.497,112.719 97.297,119.719 124.365,119.719 130.165,112.719" fill="rgb(216,216,216)"/>
<polygon points="166.992,75.892 173.992,70.782 173.992,46.937 166.992,41.827" fill="rgb(216,216,216)"/>
<polygon points="91.497,75.892 85.973,82.892 60.194,82.892 54.67,75.892" fill="#99d9fa"/>
<line x1="91.497" y1="75.892" x2="91.497" y2="41.827" stroke="#8c8c8c" stroke-width="0.3" stroke-dasharray="1.2,0.8"/>
<line x1="130.165" y1="75.892" x2="91.497" y2="75.892" stroke="#8c8c8c" stroke-width="0.3" stroke-dasharray="1.2,0.8"/>
<line x1="130.165" y1="41.827" x2="130.165" y2="75.892" stroke="#8c8c8c" stroke-width="0.3" stroke-dasharray="1.2,0.8"/>
<line x1="54.67" y1="75.892" x2="54.67" y2="41.827" stroke="#8c8c8c" stroke-width="0.3" stroke-dasharray="1.2,0.8"/>
<line x1="54.67" y1="41.827" x2="16.002" y2="41.827" stroke="#8c8c8c" stroke-width="0.3" stroke-dasharray="1.2,0.8"/>
<line x1="54.67" y1="75.892" x2="91.497" y2="75.892" stroke="#8c8c8c" stroke-width="0.3" stroke-dasharray="1.2,0.8"/>
<line x1="130.165" y1="41.827" x2="91.497" y2="41.827" stroke="#8c8c8c" stroke-width="0.3" stroke-dasharray="1.2,0.8"/>
<line x1="54.67" y1="41.827" x2="91.497" y2="41.827" stroke="#8c8c8c" stroke-width="0.3" stroke-dasharray="1.2,0.8"/>
<line x1="130.165" y1="112.719" x2="130.165" y2="75.892" stroke="#8c8c8c" stroke-width="0.3" stroke-dasharray="1.2,0.8"/>
<line x1="16.002" y1="41.827" x2="16.002" y2="5.0" stroke="#8c8c8c" stroke-width="0.3" stroke-dasharray="1.2,0.8"/>
<line x1="130.165" y1="112.719" x2="91.497" y2="112.719" stroke="#8c8c8c" stroke-width="0.3" stroke-dasharray="1.2,0.8"/>
<line x1="166.992" y1="41.827" x2="166.992" y2="75.892" stroke="#8c8c8c" stroke-width="0.3" stroke-dasharray="1.2,0.8"/>
<line x1="91.497" y1="112.719" x2="91.497" y2="75.892" stroke="#141414" stroke-width="0.4"/>
<line x1="16.002" y1="5.0" x2="54.67" y2="5.0" stroke="#141414" stroke-width="0.4"/>
<line x1="54.67" y1="5.0" x2="54.67" y2="41.827" stroke="#141414" stroke-width="0.4"/>
<line x1="166.992" y1="75.892" x2="130.165" y2="75.892" stroke="#141414" stroke-width="0.4"/>
<line x1="130.165" y1="41.827" x2="166.992" y2="41.827" stroke="#141414" stroke-width="0.4"/>
<line x1="54.67" y1="75.892" x2="16.002" y2="75.892" stroke="#141414" stroke-width="0.4"/>
<line x1="16.002" y1="75.892" x2="16.002" y2="41.827" stroke="#141414" stroke-width="0.4"/>
<line x1="91.497" y1="75.892" x2="85.973" y2="82.892" stroke="#141414" stroke-width="0.4"/>
<line x1="85.973" y1="82.892" x2="60.194" y2="82.892" stroke="#141414" stroke-width="0.4"/>
<line x1="60.194" y1="82.892" x2="54.67" y2="75.892" stroke="#141414" stroke-width="0.4"/>
<line x1="91.497" y1="41.827" x2="97.297" y2="34.827" stroke="#141414" stroke-width="0.4"/>
<line x1="97.297" y1="34.827" x2="124.365" y2="34.827" stroke="#141414" stroke-width="0.4"/>
<line x1="124.365" y1="34.827" x2="130.165" y2="41.827" stroke="#141414" stroke-width="0.4"/>
<line x1="91.497" y1="41.827" x2="85.973" y2="34.827" stroke="#141414" stroke-width="0.4"/>
<line x1="85.973" y1="34.827" x2="60.194" y2="34.827" stroke="#141414" stroke-width="0.4"/>
<line x1="60.194" y1="34.827" x2="54.67" y2="41.827" stroke="#141414" stroke-width="0.4"/>
<line x1="130.165" y1="75.892" x2="137.165" y2="81.416" stroke="#141414" stroke-width="0.4"/>
<line x1="137.165" y1="81.416" x2="137.165" y2="107.195" stroke="#141414" stroke-width="0.4"/>
<line x1="137.165" y1="107.195" x2="130.165" y2="112.719" stroke="#141414" stroke-width="0.4"/>
<line x1="16.002" y1="5.0" x2="9.002" y2="10.524" stroke="#141414" stroke-width="0.4"/>
<line x1="9.002" y1="10.524" x2="9.002" y2="36.303" stroke="#141414" stroke-width="0.4"/>
<line x1="9.002" y1="36.303" x2="16.002" y2="41.827" stroke="#141414" stroke-width="0.4"/>
<line x1="91.497" y1="112.719" x2="97.297" y2="119.719" stroke="#141414" stroke-width="0.4"/>
<line x1="97.297" y1="119.719" x2="124.365" y2="119.719" stroke="#141414" stroke-width="0.4"/>
<line x1="124.365" y1="119.719" x2="130.165" y2="112.719" stroke="#141414" stroke-width="0.4"/>
<line x1="166.992" y1="75.892" x2="173.992" y2="70.782" stroke="#141414" stroke-width="0.4"/>
<line x1="173.992" y1="70.782" x2="173.992" y2="46.937" stroke="#141414" stroke-width="0.4"/>
<line x1="173.992" y1="46.937" x2="166.992" y2="41.827" stroke="#141414" stroke-width="0.4"/>
<circle cx="73.083" cy="79.392" r="2.00" fill="#99d9fa" stroke="#464646" stroke-width="0.2"/>
<text x="73.083" y="80.08" font-size="1.96" text-anchor="middle" fill="#141414">22</text>
<circle cx="110.831" cy="38.327" r="2.00" fill="#ffe082" stroke="#464646" stroke-width="0.2"/>
<text x="110.831" y="39.01" font-size="1.96" text-anchor="middle" fill="#141414">23</text>
<circle cx="73.083" cy="38.327" r="2.00" fill="#ffe082" stroke="#464646" stroke-width="0.2"/>
<text x="73.083" y="39.01" font-size="1.96" text-anchor="middle" fill="#141414">24</text>
<circle cx="133.665" cy="94.305" r="2.00" fill="#ffe082" stroke="#464646" stroke-width="0.2"/>
<text x="133.665" y="94.99" font-size="1.96" text-anchor="middle" fill="#141414">25</text>
<circle cx="12.502" cy="23.413" r="2.00" fill="#ffe082" stroke="#464646" stroke-width="0.2"/>
<text x="12.502" y="24.10" font-size="1.96" text-anchor="middle" fill="#141414">26</text>
<circle cx="110.831" cy="116.219" r="2.00" fill="#ffe082" stroke="#464646" stroke-width="0.2"/>
<text x="110.831" y="116.90" font-size="1.96" text-anchor="middle" fill="#141414">27</text>
<circle cx="170.492" cy="58.859" r="2.00" fill="#ffe082" stroke="#464646" stroke-width="0.2"/>
<text x="170.492" y="59.54" font-size="1.96" text-anchor="middle" fill="#141414">28</text>
<circle cx="117.276" cy="100.443" r="4.60" fill="#eaf1fe" stroke="#2e78e6" stroke-width="0.3"/>
<text x="117.276" y="102.24" font-size="5.20" text-anchor="middle" fill="#14306e" font-weight="bold">2</text>
<polygon points="61.114,162.308 58.076,169.308 43.898,169.308 40.86,162.308" fill="rgb(216,216,216)"/>
<polygon points="61.114,142.974 64.843,135.974 82.244,135.974 85.973,142.974" fill="rgb(216,216,216)"/>
<polygon points="61.114,142.974 58.076,135.974 43.898,135.974 40.86,142.974" fill="rgb(216,216,216)"/>
<polygon points="85.973,162.308 92.973,165.346 92.973,179.524 85.973,182.563" fill="rgb(216,216,216)"/>
<polygon points="16.002,122.719 9.002,125.757 9.002,139.935 16.002,142.974" fill="rgb(216,216,216)"/>
<polygon points="61.114,182.563 64.843,189.563 82.244,189.563 85.973,182.563" fill="rgb(216,216,216)"/>
<polygon points="106.228,162.308 113.228,159.408 113.228,145.874 106.228,142.974" fill="rgb(216,216,216)"/>
<polygon points="61.114,162.308 58.076,169.308 43.898,169.308 40.86,162.308" fill="#99d9fa"/>
<line x1="61.114" y1="162.308" x2="61.114" y2="142.974" stroke="#8c8c8c" stroke-width="0.3" stroke-dasharray="1.2,0.8"/>
<line x1="85.973" y1="162.308" x2="61.114" y2="162.308" stroke="#8c8c8c" stroke-width="0.3" stroke-dasharray="1.2,0.8"/>
<line x1="85.973" y1="142.974" x2="85.973" y2="162.308" stroke="#8c8c8c" stroke-width="0.3" stroke-dasharray="1.2,0.8"/>
<line x1="40.86" y1="162.308" x2="40.86" y2="142.974" stroke="#8c8c8c" stroke-width="0.3" stroke-dasharray="1.2,0.8"/>
<line x1="40.86" y1="142.974" x2="16.002" y2="142.974" stroke="#8c8c8c" stroke-width="0.3" stroke-dasharray="1.2,0.8"/>
<line x1="40.86" y1="162.308" x2="61.114" y2="162.308" stroke="#8c8c8c" stroke-width="0.3" stroke-dasharray="1.2,0.8"/>
<line x1="85.973" y1="142.974" x2="61.114" y2="142.974" stroke="#8c8c8c" stroke-width="0.3" stroke-dasharray="1.2,0.8"/>
<line x1="40.86" y1="142.974" x2="61.114" y2="142.974" stroke="#8c8c8c" stroke-width="0.3" stroke-dasharray="1.2,0.8"/>
<line x1="85.973" y1="182.563" x2="85.973" y2="162.308" stroke="#8c8c8c" stroke-width="0.3" stroke-dasharray="1.2,0.8"/>
<line x1="16.002" y1="142.974" x2="16.002" y2="122.719" stroke="#8c8c8c" stroke-width="0.3" stroke-dasharray="1.2,0.8"/>
<line x1="85.973" y1="182.563" x2="61.114" y2="182.563" stroke="#8c8c8c" stroke-width="0.3" stroke-dasharray="1.2,0.8"/>
<line x1="106.228" y1="142.974" x2="106.228" y2="162.308" stroke="#8c8c8c" stroke-width="0.3" stroke-dasharray="1.2,0.8"/>
<line x1="61.114" y1="182.563" x2="61.114" y2="162.308" stroke="#141414" stroke-width="0.4"/>
<line x1="16.002" y1="122.719" x2="40.86" y2="122.719" stroke="#141414" stroke-width="0.4"/>
<line x1="40.86" y1="122.719" x2="40.86" y2="142.974" stroke="#141414" stroke-width="0.4"/>
<line x1="106.228" y1="162.308" x2="85.973" y2="162.308" stroke="#141414" stroke-width="0.4"/>
<line x1="85.973" y1="142.974" x2="106.228" y2="142.974" stroke="#141414" stroke-width="0.4"/>
<line x1="40.86" y1="162.308" x2="16.002" y2="162.308" stroke="#141414" stroke-width="0.4"/>
<line x1="16.002" y1="162.308" x2="16.002" y2="142.974" stroke="#141414" stroke-width="0.4"/>
<line x1="61.114" y1="162.308" x2="58.076" y2="169.308" stroke="#141414" stroke-width="0.4"/>
<line x1="58.076" y1="169.308" x2="43.898" y2="169.308" stroke="#141414" stroke-width="0.4"/>
<line x1="43.898" y1="169.308" x2="40.86" y2="162.308" stroke="#141414" stroke-width="0.4"/>
<line x1="61.114" y1="142.974" x2="64.843" y2="135.974" stroke="#141414" stroke-width="0.4"/>
<line x1="64.843" y1="135.974" x2="82.244" y2="135.974" stroke="#141414" stroke-width="0.4"/>
<line x1="82.244" y1="135.974" x2="85.973" y2="142.974" stroke="#141414" stroke-width="0.4"/>
<line x1="61.114" y1="142.974" x2="58.076" y2="135.974" stroke="#141414" stroke-width="0.4"/>
<line x1="58.076" y1="135.974" x2="43.898" y2="135.974" stroke="#141414" stroke-width="0.4"/>
<line x1="43.898" y1="135.974" x2="40.86" y2="142.974" stroke="#141414" stroke-width="0.4"/>
<line x1="85.973" y1="162.308" x2="92.973" y2="165.346" stroke="#141414" stroke-width="0.4"/>
<line x1="92.973" y1="165.346" x2="92.973" y2="179.524" stroke="#141414" stroke-width="0.4"/>
<line x1="92.973" y1="179.524" x2="85.973" y2="182.563" stroke="#141414" stroke-width="0.4"/>
<line x1="16.002" y1="122.719" x2="9.002" y2="125.757" stroke="#141414" stroke-width="0.4"/>
<line x1="9.002" y1="125.757" x2="9.002" y2="139.935" stroke="#141414" stroke-width="0.4"/>
<line x1="9.002" y1="139.935" x2="16.002" y2="142.974" stroke="#141414" stroke-width="0.4"/>
<line x1="61.114" y1="182.563" x2="64.843" y2="189.563" stroke="#141414" stroke-width="0.4"/>
<line x1="64.843" y1="189.563" x2="82.244" y2="189.563" stroke="#141414" stroke-width="0.4"/>
<line x1="82.244" y1="189.563" x2="85.973" y2="182.563" stroke="#141414" stroke-width="0.4"/>
<line x1="106.228" y1="162.308" x2="113.228" y2="159.408" stroke="#141414" stroke-width="0.4"/>
<line x1="113.228" y1="159.408" x2="113.228" y2="145.874" stroke="#141414" stroke-width="0.4"/>
<line x1="113.228" y1="145.874" x2="106.228" y2="142.974" stroke="#141414" stroke-width="0.4"/>
<circle cx="50.987" cy="165.808" r="2.00" fill="#99d9fa" stroke="#464646" stroke-width="0.2"/>
<text x="50.987" y="166.49" font-size="1.96" text-anchor="middle" fill="#141414">29</text>
<circle cx="73.544" cy="139.474" r="2.00" fill="#ffe082" stroke="#464646" stroke-width="0.2"/>
<text x="73.544" y="140.16" font-size="1.96" text-anchor="middle" fill="#141414">30</text>
<circle cx="50.987" cy="139.474" r="2.00" fill="#ffe082" stroke="#464646" stroke-width="0.2"/>
<text x="50.987" y="140.16" font-size="1.96" text-anchor="middle" fill="#141414">31</text>
<circle cx="89.473" cy="172.435" r="2.00" fill="#ffe082" stroke="#464646" stroke-width="0.2"/>
<text x="89.473" y="173.12" font-size="1.96" text-anchor="middle" fill="#141414">32</text>
<circle cx="12.502" cy="132.846" r="2.00" fill="#ffe082" stroke="#464646" stroke-width="0.2"/>
<text x="12.502" y="133.53" font-size="1.96" text-anchor="middle" fill="#141414">33</text>
<circle cx="73.544" cy="186.063" r="2.00" fill="#ffe082" stroke="#464646" stroke-width="0.2"/>
<text x="73.544" y="186.75" font-size="1.96" text-anchor="middle" fill="#141414">34</text>
<circle cx="109.728" cy="152.641" r="2.00" fill="#ffe082" stroke="#464646" stroke-width="0.2"/>
<text x="109.728" y="153.33" font-size="1.96" text-anchor="middle" fill="#141414">35</text>
<circle cx="77.687" cy="175.811" r="4.19" fill="#eaf1fe" stroke="#2e78e6" stroke-width="0.3"/>
<text x="77.687" y="177.45" font-size="4.73" text-anchor="middle" fill="#14306e" font-weight="bold">3</text>
<polygon points="133.709,165.793 131.712,172.45 122.392,172.45 120.395,165.793" fill="rgb(216,216,216)"/>
<polygon points="133.709,150.913 131.712,144.256 122.392,144.256 120.395,150.913" fill="rgb(216,216,216)"/>
<polygon points="142.785,165.793 149.785,163.561 149.785,153.145 142.785,150.913" fill="rgb(216,216,216)"/>
<polygon points="142.785,165.793 149.442,167.79 149.442,177.11 142.785,179.107" fill="rgb(216,216,216)"/>
<polygon points="142.785,150.913 149.442,148.916 149.442,139.596 142.785,137.599" fill="rgb(216,216,216)"/>
<polygon points="120.395,165.793 113.395,163.561 113.395,153.145 120.395,150.913" fill="rgb(216,216,216)"/>
<polygon points="133.709,179.107 135.07,183.645 141.423,183.645 142.785,179.107" fill="rgb(216,216,216)"/>
<polygon points="133.709,165.793 131.712,172.45 122.392,172.45 120.395,165.793" fill="#99d9fa"/>
<line x1="133.709" y1="165.793" x2="133.709" y2="150.913" stroke="#8c8c8c" stroke-width="0.3" stroke-dasharray="1.2,0.8"/>
<line x1="142.785" y1="165.793" x2="133.709" y2="165.793" stroke="#8c8c8c" stroke-width="0.3" stroke-dasharray="1.2,0.8"/>
<line x1="133.709" y1="150.913" x2="142.785" y2="150.913" stroke="#8c8c8c" stroke-width="0.3" stroke-dasharray="1.2,0.8"/>
<line x1="133.709" y1="137.599" x2="142.785" y2="137.599" stroke="#8c8c8c" stroke-width="0.3" stroke-dasharray="1.2,0.8"/>
<line x1="142.785" y1="137.599" x2="142.785" y2="122.719" stroke="#8c8c8c" stroke-width="0.3" stroke-dasharray="1.2,0.8"/>
<line x1="120.395" y1="165.793" x2="133.709" y2="165.793" stroke="#8c8c8c" stroke-width="0.3" stroke-dasharray="1.2,0.8"/>
<line x1="120.395" y1="150.913" x2="133.709" y2="150.913" stroke="#8c8c8c" stroke-width="0.3" stroke-dasharray="1.2,0.8"/>
<line x1="142.785" y1="150.913" x2="142.785" y2="165.793" stroke="#8c8c8c" stroke-width="0.3" stroke-dasharray="1.2,0.8"/>
<line x1="142.785" y1="179.107" x2="142.785" y2="165.793" stroke="#8c8c8c" stroke-width="0.3" stroke-dasharray="1.2,0.8"/>
<line x1="142.785" y1="137.599" x2="142.785" y2="150.913" stroke="#8c8c8c" stroke-width="0.3" stroke-dasharray="1.2,0.8"/>
<line x1="120.395" y1="150.913" x2="120.395" y2="165.793" stroke="#8c8c8c" stroke-width="0.3" stroke-dasharray="1.2,0.8"/>
<line x1="142.785" y1="179.107" x2="133.709" y2="179.107" stroke="#8c8c8c" stroke-width="0.3" stroke-dasharray="1.2,0.8"/>
<line x1="133.709" y1="179.107" x2="133.709" y2="165.793" stroke="#141414" stroke-width="0.4"/>
<line x1="133.709" y1="150.913" x2="133.709" y2="137.599" stroke="#141414" stroke-width="0.4"/>
<line x1="156.099" y1="122.719" x2="156.099" y2="137.599" stroke="#141414" stroke-width="0.4"/>
<line x1="142.785" y1="122.719" x2="156.099" y2="122.719" stroke="#141414" stroke-width="0.4"/>
<line x1="156.099" y1="137.599" x2="142.785" y2="137.599" stroke="#141414" stroke-width="0.4"/>
<line x1="133.709" y1="137.599" x2="133.709" y2="122.719" stroke="#141414" stroke-width="0.4"/>
<line x1="133.709" y1="122.719" x2="142.785" y2="122.719" stroke="#141414" stroke-width="0.4"/>
<line x1="133.709" y1="165.793" x2="131.712" y2="172.45" stroke="#141414" stroke-width="0.4"/>
<line x1="131.712" y1="172.45" x2="122.392" y2="172.45" stroke="#141414" stroke-width="0.4"/>
<line x1="122.392" y1="172.45" x2="120.395" y2="165.793" stroke="#141414" stroke-width="0.4"/>
<line x1="133.709" y1="150.913" x2="131.712" y2="144.256" stroke="#141414" stroke-width="0.4"/>
<line x1="131.712" y1="144.256" x2="122.392" y2="144.256" stroke="#141414" stroke-width="0.4"/>
<line x1="122.392" y1="144.256" x2="120.395" y2="150.913" stroke="#141414" stroke-width="0.4"/>
<line x1="142.785" y1="165.793" x2="149.785" y2="163.561" stroke="#141414" stroke-width="0.4"/>
<line x1="149.785" y1="163.561" x2="149.785" y2="153.145" stroke="#141414" stroke-width="0.4"/>
<line x1="149.785" y1="153.145" x2="142.785" y2="150.913" stroke="#141414" stroke-width="0.4"/>
<line x1="142.785" y1="165.793" x2="149.442" y2="167.79" stroke="#141414" stroke-width="0.4"/>
<line x1="149.442" y1="167.79" x2="149.442" y2="177.11" stroke="#141414" stroke-width="0.4"/>
<line x1="149.442" y1="177.11" x2="142.785" y2="179.107" stroke="#141414" stroke-width="0.4"/>
<line x1="142.785" y1="150.913" x2="149.442" y2="148.916" stroke="#141414" stroke-width="0.4"/>
<line x1="149.442" y1="148.916" x2="149.442" y2="139.596" stroke="#141414" stroke-width="0.4"/>
<line x1="149.442" y1="139.596" x2="142.785" y2="137.599" stroke="#141414" stroke-width="0.4"/>
<line x1="120.395" y1="165.793" x2="113.395" y2="163.561" stroke="#141414" stroke-width="0.4"/>
<line x1="113.395" y1="163.561" x2="113.395" y2="153.145" stroke="#141414" stroke-width="0.4"/>
<line x1="113.395" y1="153.145" x2="120.395" y2="150.913" stroke="#141414" stroke-width="0.4"/>
<line x1="133.709" y1="179.107" x2="135.07" y2="183.645" stroke="#141414" stroke-width="0.4"/>
<line x1="135.07" y1="183.645" x2="141.423" y2="183.645" stroke="#141414" stroke-width="0.4"/>
<line x1="141.423" y1="183.645" x2="142.785" y2="179.107" stroke="#141414" stroke-width="0.4"/>
<circle cx="127.052" cy="169.122" r="2.00" fill="#99d9fa" stroke="#464646" stroke-width="0.2"/>
<text x="127.052" y="169.81" font-size="1.96" text-anchor="middle" fill="#141414">43</text>
<circle cx="127.052" cy="147.584" r="2.00" fill="#ffe082" stroke="#464646" stroke-width="0.2"/>
<text x="127.052" y="148.27" font-size="1.96" text-anchor="middle" fill="#141414">44</text>
<circle cx="146.285" cy="158.353" r="2.00" fill="#ffe082" stroke="#464646" stroke-width="0.2"/>
<text x="146.285" y="159.04" font-size="1.96" text-anchor="middle" fill="#141414">45</text>
<circle cx="146.113" cy="172.45" r="2.00" fill="#ffe082" stroke="#464646" stroke-width="0.2"/>
<text x="146.113" y="173.13" font-size="1.96" text-anchor="middle" fill="#141414">46</text>
<circle cx="146.113" cy="144.256" r="2.00" fill="#ffe082" stroke="#464646" stroke-width="0.2"/>
<text x="146.113" y="144.94" font-size="1.96" text-anchor="middle" fill="#141414">47</text>
<circle cx="116.895" cy="158.353" r="2.00" fill="#ffe082" stroke="#464646" stroke-width="0.2"/>
<text x="116.895" y="159.04" font-size="1.96" text-anchor="middle" fill="#141414">48</text>
<circle cx="138.247" cy="181.376" r="2.00" fill="#ffe082" stroke="#464646" stroke-width="0.2"/>
<text x="138.247" y="182.06" font-size="1.96" text-anchor="middle" fill="#141414">49</text>
<circle cx="129.271" cy="160.833" r="2.65" fill="#eaf1fe" stroke="#2e78e6" stroke-width="0.3"/>
<text x="129.271" y="161.87" font-size="2.99" text-anchor="middle" fill="#14306e" font-weight="bold">5</text>
<polygon points="179.413,165.793 177.416,172.45 168.096,172.45 166.099,165.793" fill="rgb(216,216,216)"/>
<polygon points="179.413,150.913 177.416,144.256 168.096,144.256 166.099,150.913" fill="rgb(216,216,216)"/>
<polygon points="188.489,165.793 195.489,163.561 195.489,153.145 188.489,150.913" fill="rgb(216,216,216)"/>
<polygon points="188.489,165.793 195.146,167.79 195.146,177.11 188.489,179.107" fill="rgb(216,216,216)"/>
<polygon points="188.489,150.913 195.146,148.916 195.146,139.596 188.489,137.599" fill="rgb(216,216,216)"/>
<polygon points="166.099,165.793 159.099,163.561 159.099,153.145 166.099,150.913" fill="rgb(216,216,216)"/>
<polygon points="179.413,179.107 180.774,183.645 187.127,183.645 188.489,179.107" fill="rgb(216,216,216)"/>
<polygon points="179.413,165.793 177.416,172.45 168.096,172.45 166.099,165.793" fill="#99d9fa"/>
<line x1="179.413" y1="165.793" x2="179.413" y2="150.913" stroke="#8c8c8c" stroke-width="0.3" stroke-dasharray="1.2,0.8"/>
<line x1="188.489" y1="165.793" x2="179.413" y2="165.793" stroke="#8c8c8c" stroke-width="0.3" stroke-dasharray="1.2,0.8"/>
<line x1="179.413" y1="150.913" x2="188.489" y2="150.913" stroke="#8c8c8c" stroke-width="0.3" stroke-dasharray="1.2,0.8"/>
<line x1="179.413" y1="137.599" x2="188.489" y2="137.599" stroke="#8c8c8c" stroke-width="0.3" stroke-dasharray="1.2,0.8"/>
<line x1="188.489" y1="137.599" x2="188.489" y2="122.719" stroke="#8c8c8c" stroke-width="0.3" stroke-dasharray="1.2,0.8"/>
<line x1="166.099" y1="165.793" x2="179.413" y2="165.793" stroke="#8c8c8c" stroke-width="0.3" stroke-dasharray="1.2,0.8"/>
<line x1="166.099" y1="150.913" x2="179.413" y2="150.913" stroke="#8c8c8c" stroke-width="0.3" stroke-dasharray="1.2,0.8"/>
<line x1="188.489" y1="150.913" x2="188.489" y2="165.793" stroke="#8c8c8c" stroke-width="0.3" stroke-dasharray="1.2,0.8"/>
<line x1="188.489" y1="179.107" x2="188.489" y2="165.793" stroke="#8c8c8c" stroke-width="0.3" stroke-dasharray="1.2,0.8"/>
<line x1="188.489" y1="137.599" x2="188.489" y2="150.913" stroke="#8c8c8c" stroke-width="0.3" stroke-dasharray="1.2,0.8"/>
<line x1="166.099" y1="150.913" x2="166.099" y2="165.793" stroke="#8c8c8c" stroke-width="0.3" stroke-dasharray="1.2,0.8"/>
<line x1="188.489" y1="179.107" x2="179.413" y2="179.107" stroke="#8c8c8c" stroke-width="0.3" stroke-dasharray="1.2,0.8"/>
<line x1="179.413" y1="179.107" x2="179.413" y2="165.793" stroke="#141414" stroke-width="0.4"/>
<line x1="179.413" y1="150.913" x2="179.413" y2="137.599" stroke="#141414" stroke-width="0.4"/>
<line x1="201.803" y1="122.719" x2="201.803" y2="137.599" stroke="#141414" stroke-width="0.4"/>
<line x1="188.489" y1="122.719" x2="201.803" y2="122.719" stroke="#141414" stroke-width="0.4"/>
<line x1="201.803" y1="137.599" x2="188.489" y2="137.599" stroke="#141414" stroke-width="0.4"/>
<line x1="179.413" y1="137.599" x2="179.413" y2="122.719" stroke="#141414" stroke-width="0.4"/>
<line x1="179.413" y1="122.719" x2="188.489" y2="122.719" stroke="#141414" stroke-width="0.4"/>
<line x1="179.413" y1="165.793" x2="177.416" y2="172.45" stroke="#141414" stroke-width="0.4"/>
<line x1="177.416" y1="172.45" x2="168.096" y2="172.45" stroke="#141414" stroke-width="0.4"/>
<line x1="168.096" y1="172.45" x2="166.099" y2="165.793" stroke="#141414" stroke-width="0.4"/>
<line x1="179.413" y1="150.913" x2="177.416" y2="144.256" stroke="#141414" stroke-width="0.4"/>
<line x1="177.416" y1="144.256" x2="168.096" y2="144.256" stroke="#141414" stroke-width="0.4"/>
<line x1="168.096" y1="144.256" x2="166.099" y2="150.913" stroke="#141414" stroke-width="0.4"/>
<line x1="188.489" y1="165.793" x2="195.489" y2="163.561" stroke="#141414" stroke-width="0.4"/>
<line x1="195.489" y1="163.561" x2="195.489" y2="153.145" stroke="#141414" stroke-width="0.4"/>
<line x1="195.489" y1="153.145" x2="188.489" y2="150.913" stroke="#141414" stroke-width="0.4"/>
<line x1="188.489" y1="165.793" x2="195.146" y2="167.79" stroke="#141414" stroke-width="0.4"/>
<line x1="195.146" y1="167.79" x2="195.146" y2="177.11" stroke="#141414" stroke-width="0.4"/>
<line x1="195.146" y1="177.11" x2="188.489" y2="179.107" stroke="#141414" stroke-width="0.4"/>
<line x1="188.489" y1="150.913" x2="195.146" y2="148.916" stroke="#141414" stroke-width="0.4"/>
<line x1="195.146" y1="148.916" x2="195.146" y2="139.596" stroke="#141414" stroke-width="0.4"/>
<line x1="195.146" y1="139.596" x2="188.489" y2="137.599" stroke="#141414" stroke-width="0.4"/>
<line x1="166.099" y1="165.793" x2="159.099" y2="163.561" stroke="#141414" stroke-width="0.4"/>
<line x1="159.099" y1="163.561" x2="159.099" y2="153.145" stroke="#141414" stroke-width="0.4"/>
<line x1="159.099" y1="153.145" x2="166.099" y2="150.913" stroke="#141414" stroke-width="0.4"/>
<line x1="179.413" y1="179.107" x2="180.774" y2="183.645" stroke="#141414" stroke-width="0.4"/>
<line x1="180.774" y1="183.645" x2="187.127" y2="183.645" stroke="#141414" stroke-width="0.4"/>
<line x1="187.127" y1="183.645" x2="188.489" y2="179.107" stroke="#141414" stroke-width="0.4"/>
<circle cx="172.756" cy="169.122" r="2.00" fill="#99d9fa" stroke="#464646" stroke-width="0.2"/>
<text x="172.756" y="169.81" font-size="1.96" text-anchor="middle" fill="#141414">50</text>
<circle cx="172.756" cy="147.584" r="2.00" fill="#ffe082" stroke="#464646" stroke-width="0.2"/>
<text x="172.756" y="148.27" font-size="1.96" text-anchor="middle" fill="#141414">51</text>
<circle cx="191.989" cy="158.353" r="2.00" fill="#ffe082" stroke="#464646" stroke-width="0.2"/>
<text x="191.989" y="159.04" font-size="1.96" text-anchor="middle" fill="#141414">52</text>
<circle cx="191.817" cy="172.45" r="2.00" fill="#ffe082" stroke="#464646" stroke-width="0.2"/>
<text x="191.817" y="173.13" font-size="1.96" text-anchor="middle" fill="#141414">53</text>
<circle cx="191.817" cy="144.256" r="2.00" fill="#ffe082" stroke="#464646" stroke-width="0.2"/>
<text x="191.817" y="144.94" font-size="1.96" text-anchor="middle" fill="#141414">54</text>
<circle cx="162.599" cy="158.353" r="2.00" fill="#ffe082" stroke="#464646" stroke-width="0.2"/>
<text x="162.599" y="159.04" font-size="1.96" text-anchor="middle" fill="#141414">55</text>
<circle cx="183.951" cy="181.376" r="2.00" fill="#ffe082" stroke="#464646" stroke-width="0.2"/>
<text x="183.951" y="182.06" font-size="1.96" text-anchor="middle" fill="#141414">56</text>
<circle cx="174.975" cy="160.833" r="2.65" fill="#eaf1fe" stroke="#2e78e6" stroke-width="0.3"/>
<text x="174.975" y="161.87" font-size="2.99" text-anchor="middle" fill="#14306e" font-weight="bold">6</text>
<polygon points="88.948,248.23 84.773,255.23 65.29,255.23 61.114,248.23" fill="rgb(216,216,216)"/>
<polygon points="88.948,220.396 95.715,213.397 127.294,213.397 134.061,220.396" fill="rgb(216,216,216)"/>
<polygon points="88.948,220.396 84.773,213.397 65.29,213.397 61.114,220.396" fill="rgb(216,216,216)"/>
<polygon points="134.061,248.23 141.061,252.405 141.061,271.889 134.061,276.064" fill="rgb(216,216,216)"/>
<polygon points="16.002,192.563 9.002,196.738 9.002,216.221 16.002,220.396" fill="rgb(216,216,216)"/>
<polygon points="88.948,276.064 95.715,283.064 127.294,283.064 134.061,276.064" fill="rgb(216,216,216)"/>
<polygon points="161.895,248.23 168.895,244.055 168.895,224.572 161.895,220.396" fill="rgb(216,216,216)"/>
<polygon points="88.948,248.23 84.773,255.23 65.29,255.23 61.114,248.23" fill="#99d9fa"/>
<line x1="88.948" y1="248.23" x2="88.948" y2="220.397" stroke="#8c8c8c" stroke-width="0.3" stroke-dasharray="1.2,0.8"/>
<line x1="134.061" y1="248.23" x2="88.948" y2="248.23" stroke="#8c8c8c" stroke-width="0.3" stroke-dasharray="1.2,0.8"/>
<line x1="134.061" y1="220.397" x2="134.061" y2="248.23" stroke="#8c8c8c" stroke-width="0.3" stroke-dasharray="1.2,0.8"/>
<line x1="61.114" y1="248.23" x2="61.114" y2="220.397" stroke="#8c8c8c" stroke-width="0.3" stroke-dasharray="1.2,0.8"/>
<line x1="61.114" y1="220.397" x2="16.002" y2="220.397" stroke="#8c8c8c" stroke-width="0.3" stroke-dasharray="1.2,0.8"/>
<line x1="61.114" y1="248.23" x2="88.948" y2="248.23" stroke="#8c8c8c" stroke-width="0.3" stroke-dasharray="1.2,0.8"/>
<line x1="134.061" y1="220.396" x2="88.948" y2="220.396" stroke="#8c8c8c" stroke-width="0.3" stroke-dasharray="1.2,0.8"/>
<line x1="61.114" y1="220.396" x2="88.948" y2="220.396" stroke="#8c8c8c" stroke-width="0.3" stroke-dasharray="1.2,0.8"/>
<line x1="134.061" y1="276.064" x2="134.061" y2="248.23" stroke="#8c8c8c" stroke-width="0.3" stroke-dasharray="1.2,0.8"/>
<line x1="16.002" y1="220.396" x2="16.002" y2="192.563" stroke="#8c8c8c" stroke-width="0.3" stroke-dasharray="1.2,0.8"/>
<line x1="134.061" y1="276.064" x2="88.948" y2="276.064" stroke="#8c8c8c" stroke-width="0.3" stroke-dasharray="1.2,0.8"/>
<line x1="161.895" y1="220.396" x2="161.895" y2="248.23" stroke="#8c8c8c" stroke-width="0.3" stroke-dasharray="1.2,0.8"/>
<line x1="88.948" y1="276.064" x2="88.948" y2="248.23" stroke="#141414" stroke-width="0.4"/>
<line x1="16.002" y1="192.563" x2="61.114" y2="192.563" stroke="#141414" stroke-width="0.4"/>
<line x1="61.114" y1="192.563" x2="61.114" y2="220.397" stroke="#141414" stroke-width="0.4"/>
<line x1="161.895" y1="248.23" x2="134.061" y2="248.23" stroke="#141414" stroke-width="0.4"/>
<line x1="134.061" y1="220.397" x2="161.895" y2="220.397" stroke="#141414" stroke-width="0.4"/>
<line x1="61.114" y1="248.23" x2="16.002" y2="248.23" stroke="#141414" stroke-width="0.4"/>
<line x1="16.002" y1="248.23" x2="16.002" y2="220.397" stroke="#141414" stroke-width="0.4"/>
<line x1="88.948" y1="248.23" x2="84.773" y2="255.23" stroke="#141414" stroke-width="0.4"/>
<line x1="84.773" y1="255.23" x2="65.29" y2="255.23" stroke="#141414" stroke-width="0.4"/>
<line x1="65.29" y1="255.23" x2="61.114" y2="248.23" stroke="#141414" stroke-width="0.4"/>
<line x1="88.948" y1="220.396" x2="95.715" y2="213.397" stroke="#141414" stroke-width="0.4"/>
<line x1="95.715" y1="213.397" x2="127.294" y2="213.397" stroke="#141414" stroke-width="0.4"/>
<line x1="127.294" y1="213.397" x2="134.061" y2="220.396" stroke="#141414" stroke-width="0.4"/>
<line x1="88.948" y1="220.396" x2="84.773" y2="213.397" stroke="#141414" stroke-width="0.4"/>
<line x1="84.773" y1="213.397" x2="65.29" y2="213.397" stroke="#141414" stroke-width="0.4"/>
<line x1="65.29" y1="213.397" x2="61.114" y2="220.396" stroke="#141414" stroke-width="0.4"/>
<line x1="134.061" y1="248.23" x2="141.061" y2="252.405" stroke="#141414" stroke-width="0.4"/>
<line x1="141.061" y1="252.405" x2="141.061" y2="271.889" stroke="#141414" stroke-width="0.4"/>
<line x1="141.061" y1="271.889" x2="134.061" y2="276.064" stroke="#141414" stroke-width="0.4"/>
<line x1="16.002" y1="192.563" x2="9.002" y2="196.738" stroke="#141414" stroke-width="0.4"/>
<line x1="9.002" y1="196.738" x2="9.002" y2="216.221" stroke="#141414" stroke-width="0.4"/>
<line x1="9.002" y1="216.221" x2="16.002" y2="220.396" stroke="#141414" stroke-width="0.4"/>
<line x1="88.948" y1="276.064" x2="95.715" y2="283.064" stroke="#141414" stroke-width="0.4"/>
<line x1="95.715" y1="283.064" x2="127.294" y2="283.064" stroke="#141414" stroke-width="0.4"/>
<line x1="127.294" y1="283.064" x2="134.061" y2="276.064" stroke="#141414" stroke-width="0.4"/>
<line x1="161.895" y1="248.23" x2="168.895" y2="244.055" stroke="#141414" stroke-width="0.4"/>
<line x1="168.895" y1="244.055" x2="168.895" y2="224.572" stroke="#141414" stroke-width="0.4"/>
<line x1="168.895" y1="224.572" x2="161.895" y2="220.396" stroke="#141414" stroke-width="0.4"/>
<circle cx="75.031" cy="251.73" r="2.00" fill="#99d9fa" stroke="#464646" stroke-width="0.2"/>
<text x="75.031" y="252.41" font-size="1.96" text-anchor="middle" fill="#141414">57</text>
<circle cx="111.505" cy="216.896" r="2.00" fill="#ffe082" stroke="#464646" stroke-width="0.2"/>
<text x="111.505" y="217.58" font-size="1.96" text-anchor="middle" fill="#141414">58</text>
<circle cx="75.031" cy="216.896" r="2.00" fill="#ffe082" stroke="#464646" stroke-width="0.2"/>
<text x="75.031" y="217.58" font-size="1.96" text-anchor="middle" fill="#141414">59</text>
<circle cx="137.561" cy="262.147" r="2.00" fill="#ffe082" stroke="#464646" stroke-width="0.2"/>
<text x="137.561" y="262.83" font-size="1.96" text-anchor="middle" fill="#141414">60</text>
<circle cx="12.502" cy="206.48" r="2.00" fill="#ffe082" stroke="#464646" stroke-width="0.2"/>
<text x="12.502" y="207.16" font-size="1.96" text-anchor="middle" fill="#141414">61</text>
<circle cx="111.505" cy="279.564" r="2.00" fill="#ffe082" stroke="#464646" stroke-width="0.2"/>
<text x="111.505" y="280.25" font-size="1.96" text-anchor="middle" fill="#141414">62</text>
<circle cx="165.395" cy="234.313" r="2.00" fill="#ffe082" stroke="#464646" stroke-width="0.2"/>
<text x="165.395" y="235.00" font-size="1.96" text-anchor="middle" fill="#141414">63</text>
<circle cx="103.986" cy="257.508" r="4.60" fill="#eaf1fe" stroke="#2e78e6" stroke-width="0.3"/>
<text x="103.986" y="259.31" font-size="5.20" text-anchor="middle" fill="#14306e" font-weight="bold">7</text>
<text x="205.0" y="295.0" font-size="3.2" text-anchor="end" fill="#737373" font-family="sans-serif">2 / 5</text>
</svg>
