<svg xmlns="http://www.w3.org/2000/svg" xmlns:xlink="http://www.w3.org/1999/xlink" width="210.00mm" height="297.00mm" viewBox="0 0 210.00 297.00">
<rect x="0" y="0" width="210.00" height="297.00" fill="#ffffff" stroke="#cccccc" stroke-width="0.2"/>
<polygon points="26.777,126.033 19.855,125.182 17.913,120.811 21.921,115.104" fill="rgb(216,216,216)"/>
<polygon points="14.274,124.299 9.415,117.547 9.819,115.4 16.803,110.879" fill="rgb(216,216,216)"/>
<polygon points="10.335,5.0 4.715,9.386 8.183,18.295 15.29,17.726" fill="rgb(216,216,216)"/>
<polygon points="57.604,184.983 54.241,190.242 59.7,196.588 65.403,194.048" fill="rgb(216,216,216)"/>
<polygon points="57.604,184.983 56.453,173.229 79.154,135.083 90.034,130.489" fill="rgb(216,216,216)"/>
<polygon points="26.777,118.759 36.563,112.198 80.745,114.21 89.894,121.635" fill="rgb(216,216,216)"/>
<polygon points="65.556,68.878 69.759,67.671 68.425,57.87 64.053,57.83" fill="rgb(216,216,216)"/>
<polygon points="138.482,180.743 137.958,177.899 127.774,177.524 127.041,180.322" fill="rgb(216,216,216)"/>
<polygon points="59.185,64.008 47.373,65.021 13.721,94.369 11.111,105.933" fill="rgb(216,216,216)"/>
<polygon points="128.198,185.05 119.772,193.329 75.815,199.628 65.403,194.048" fill="rgb(216,216,216)"/>
<polygon points="94.117,132.275 95.795,143.957 74.837,183.031 64.178,188.095" fill="rgb(216,216,216)"/>
<polygon points="14.274,124.299 9.415,117.547 9.819,115.4 16.803,110.879" fill="#99d9fa"/>
<line x1="26.777" y1="126.033" x2="26.777" y2="118.759" stroke="#8c8c8c" stroke-width="0.3" stroke-dasharray="1.2,0.8"/>
<line x1="89.894" y1="121.635" x2="26.777" y2="126.033" stroke="#8c8c8c" stroke-width="0.3" stroke-dasharray="1.2,0.8"/>
<line x1="57.603" y1="184.983" x2="64.178" y2="188.095" stroke="#8c8c8c" stroke-width="0.3" stroke-dasharray="1.2,0.8"/>
<line x1="21.921" y1="115.104" x2="26.777" y2="118.759" stroke="#8c8c8c" stroke-width="0.3" stroke-dasharray="1.2,0.8"/>
<line x1="21.921" y1="115.104" x2="65.556" y2="68.878" stroke="#8c8c8c" stroke-width="0.3" stroke-dasharray="1.2,0.8"/>
<line x1="59.185" y1="64.008" x2="65.556" y2="68.878" stroke="#8c8c8c" stroke-width="0.3" stroke-dasharray="1.2,0.8"/>
<line x1="90.034" y1="130.489" x2="89.894" y2="121.635" stroke="#8c8c8c" stroke-width="0.3" stroke-dasharray="1.2,0.8"/>
<line x1="16.803" y1="110.879" x2="21.921" y2="115.104" stroke="#8c8c8c" stroke-width="0.3" stroke-dasharray="1.2,0.8"/>
<line x1="21.921" y1="115.104" x2="59.185" y2="64.008" stroke="#8c8c8c" stroke-width="0.3" stroke-dasharray="1.2,0.8"/>
<line x1="16.803" y1="110.879" x2="59.185" y2="64.008" stroke="#8c8c8c" stroke-width="0.3" stroke-dasharray="1.2,0.8"/>
<line x1="11.111" y1="105.933" x2="16.803" y2="110.879" stroke="#8c8c8c" stroke-width="0.3" stroke-dasharray="1.2,0.8"/>
<line x1="64.053" y1="57.83" x2="59.185" y2="64.008" stroke="#8c8c8c" stroke-width="0.3" stroke-dasharray="1.2,0.8"/>
<line x1="15.29" y1="17.726" x2="64.053" y2="57.83" stroke="#8c8c8c" stroke-width="0.3" stroke-dasharray="1.2,0.8"/>
<line x1="19.543" y1="12.631" x2="15.29" y2="17.726" stroke="#8c8c8c" stroke-width="0.3" stroke-dasharray="1.2,0.8"/>
<line x1="127.041" y1="180.322" x2="128.198" y2="185.05" stroke="#8c8c8c" stroke-width="0.3" stroke-dasharray="1.2,0.8"/>
<line x1="65.403" y1="194.048" x2="127.041" y2="180.322" stroke="#8c8c8c" stroke-width="0.3" stroke-dasharray="1.2,0.8"/>
<line x1="64.178" y1="188.095" x2="65.403" y2="194.048" stroke="#8c8c8c" stroke-width="0.3" stroke-dasharray="1.2,0.8"/>
<line x1="90.034" y1="130.489" x2="94.117" y2="132.275" stroke="#8c8c8c" stroke-width="0.3" stroke-dasharray="1.2,0.8"/>
<line x1="64.178" y1="188.095" x2="90.034" y2="130.489" stroke="#8c8c8c" stroke-width="0.3" stroke-dasharray="1.2,0.8"/>
<line x1="21.921" y1="115.104" x2="26.777" y2="126.033" stroke="#8c8c8c" stroke-width="0.3" stroke-dasharray="1.2,0.8"/>
<line x1="16.803" y1="110.879" x2="14.274" y2="124.299" stroke="#8c8c8c" stroke-width="0.3" stroke-dasharray="1.2,0.8"/>
<line x1="15.29" y1="17.726" x2="10.335" y2="5.0" stroke="#8c8c8c" stroke-width="0.3" stroke-dasharray="1.2,0.8"/>
<line x1="65.403" y1="194.048" x2="57.604" y2="184.983" stroke="#8c8c8c" stroke-width="0.3" stroke-dasharray="1.2,0.8"/>
<line x1="90.034" y1="130.489" x2="57.604" y2="184.983" stroke="#8c8c8c" stroke-width="0.3" stroke-dasharray="1.2,0.8"/>
<line x1="89.894" y1="121.635" x2="26.777" y2="118.759" stroke="#8c8c8c" stroke-width="0.3" stroke-dasharray="1.2,0.8"/>
<line x1="64.053" y1="57.83" x2="65.556" y2="68.878" stroke="#8c8c8c" stroke-width="0.3" stroke-dasharray="1.2,0.8"/>
<line x1="127.041" y1="180.322" x2="138.482" y2="180.743" stroke="#8c8c8c" stroke-width="0.3" stroke-dasharray="1.2,0.8"/>
<line x1="11.111" y1="105.933" x2="59.185" y2="64.008" stroke="#8c8c8c" stroke-width="0.3" stroke-dasharray="1.2,0.8"/>
<line x1="65.403" y1="194.048" x2="128.198" y2="185.05" stroke="#8c8c8c" stroke-width="0.3" stroke-dasharray="1.2,0.8"/>
<line x1="64.178" y1="188.095" x2="94.117" y2="132.275" stroke="#8c8c8c" stroke-width="0.3" stroke-dasharray="1.2,0.8"/>
<line x1="21.921" y1="115.104" x2="14.274" y2="124.299" stroke="#141414" stroke-width="0.4"/>
<line x1="16.803" y1="110.879" x2="5.348" y2="118.315" stroke="#141414" stroke-width="0.4"/>
<line x1="5.348" y1="118.315" x2="11.111" y2="105.933" stroke="#141414" stroke-width="0.4"/>
<line x1="10.335" y1="5.0" x2="19.543" y2="12.631" stroke="#141414" stroke-width="0.4"/>
<line x1="90.034" y1="130.489" x2="26.777" y2="126.033" stroke="#141414" stroke-width="0.4"/>
<line x1="65.556" y1="68.878" x2="26.777" y2="118.759" stroke="#141414" stroke-width="0.4"/>
<line x1="138.482" y1="180.743" x2="128.198" y2="185.05" stroke="#141414" stroke-width="0.4"/>
<line x1="89.894" y1="121.635" x2="94.117" y2="132.275" stroke="#141414" stroke-width="0.4"/>
<line x1="59.185" y1="64.008" x2="15.29" y2="17.726" stroke="#141414" stroke-width="0.4"/>
<line x1="19.543" y1="12.631" x2="64.053" y2="57.83" stroke="#141414" stroke-width="0.4"/>
<line x1="64.178" y1="188.095" x2="127.041" y2="180.322" stroke="#141414" stroke-width="0.4"/>
<line x1="26.777" y1="126.033" x2="19.855" y2="125.182" stroke="#141414" stroke-width="0.4"/>
<line x1="19.855" y1="125.182" x2="17.913" y2="120.811" stroke="#141414" stroke-width="0.4"/>
<line x1="17.913" y1="120.811" x2="21.921" y2="115.104" stroke="#141414" stroke-width="0.4"/>
<line x1="14.274" y1="124.299" x2="9.415" y2="117.547" stroke="#141414" stroke-width="0.4"/>
<line x1="9.415" y1="117.547" x2="9.819" y2="115.4" stroke="#141414" stroke-width="0.4"/>
<line x1="9.819" y1="115.4" x2="16.803" y2="110.879" stroke="#141414" stroke-width="0.4"/>
<line x1="10.335" y1="5.0" x2="4.715" y2="9.386" stroke="#141414" stroke-width="0.4"/>
<line x1="4.715" y1="9.386" x2="8.183" y2="18.295" stroke="#141414" stroke-width="0.4"/>
<line x1="8.183" y1="18.295" x2="15.29" y2="17.726" stroke="#141414" stroke-width="0.4"/>
<line x1="57.604" y1="184.983" x2="54.241" y2="190.242" stroke="#141414" stroke-width="0.4"/>
<line x1="54.241" y1="190.242" x2="59.7" y2="196.588" stroke="#141414" stroke-width="0.4"/>
<line x1="59.7" y1="196.588" x2="65.403" y2="194.048" stroke="#141414" stroke-width="0.4"/>
<line x1="57.604" y1="184.983" x2="56.453" y2="173.229" stroke="#141414" stroke-width="0.4"/>
<line x1="56.453" y1="173.229" x2="79.154" y2="135.083" stroke="#141414" stroke-width="0.4"/>
<line x1="79.154" y1="135.083" x2="90.034" y2="130.489" stroke="#141414" stroke-width="0.4"/>
<line x1="26.777" y1="118.759" x2="36.563" y2="112.198" stroke="#141414" stroke-width="0.4"/>
<line x1="36.563" y1="112.198" x2="80.745" y2="114.21" stroke="#141414" stroke-width="0.4"/>
<line x1="80.745" y1="114.21" x2="89.894" y2="121.635" stroke="#141414" stroke-width="0.4"/>
<line x1="65.556" y1="68.878" x2="69.759" y2="67.671" stroke="#141414" stroke-width="0.4"/>
<line x1="69.759" y1="67.671" x2="68.425" y2="57.87" stroke="#141414" stroke-width="0.4"/>
<line x1="68.425" y1="57.87" x2="64.053" y2="57.83" stroke="#141414" stroke-width="0.4"/>
<line x1="138.482" y1="180.743" x2="137.958" y2="177.899" stroke="#141414" stroke-width="0.4"/>
<line x1="137.958" y1="177.899" x2="127.774" y2="177.524" stroke="#141414" stroke-width="0.4"/>
<line x1="127.774" y1="177.524" x2="127.041" y2="180.322" stroke="#141414" stroke-width="0.4"/>
<line x1="59.185" y1="64.008" x2="47.373" y2="65.021" stroke="#141414" stroke-width="0.4"/>
<line x1="47.373" y1="65.021" x2="13.721" y2="94.369" stroke="#141414" stroke-width="0.4"/>
<line x1="13.721" y1="94.369" x2="11.111" y2="105.933" stroke="#141414" stroke-width="0.4"/>
<line x1="128.198" y1="185.05" x2="119.772" y2="193.329" stroke="#141414" stroke-width="0.4"/>
<line x1="119.772" y1="193.329" x2="75.815" y2="199.628" stroke="#141414" stroke-width="0.4"/>
<line x1="75.815" y1="199.628" x2="65.403" y2="194.048" stroke="#141414" stroke-width="0.4"/>
<line x1="94.117" y1="132.275" x2="95.795" y2="143.957" stroke="#141414" stroke-width="0.4"/>
<line x1="95.795" y1="143.957" x2="74.837" y2="183.031" stroke="#141414" stroke-width="0.4"/>
<line x1="74.837" y1="183.031" x2="64.178" y2="188.095" stroke="#141414" stroke-width="0.4"/>
<circle cx="21.617" cy="121.782" r="2.00" fill="#ffe082" stroke="#464646" stroke-width="0.2"/>
<text x="21.617" y="122.47" font-size="1.96" text-anchor="middle" fill="#141414">85</text>
<circle cx="12.578" cy="117.031" r="2.00" fill="#99d9fa" stroke="#464646" stroke-width="0.2"/>
<text x="12.578" y="117.72" font-size="1.96" text-anchor="middle" fill="#141414">86</text>
<circle cx="9.631" cy="12.602" r="2.00" fill="#ffe082" stroke="#464646" stroke-width="0.2"/>
<text x="9.631" y="13.29" font-size="1.96" text-anchor="middle" fill="#141414">87</text>
<circle cx="59.237" cy="191.466" r="2.00" fill="#ffe082" stroke="#464646" stroke-width="0.2"/>
<text x="59.237" y="192.15" font-size="1.96" text-anchor="middle" fill="#141414">88</text>
<circle cx="70.811" cy="155.946" r="2.00" fill="#ffe082" stroke="#464646" stroke-width="0.2"/>
<text x="70.811" y="156.63" font-size="1.96" text-anchor="middle" fill="#141414">89</text>
<circle cx="58.495" cy="116.7" r="2.00" fill="#ffe082" stroke="#464646" stroke-width="0.2"/>
<text x="58.495" y="117.38" font-size="1.96" text-anchor="middle" fill="#141414">90</text>
<circle cx="32.847" cy="82.333" r="2.00" fill="#ffe082" stroke="#464646" stroke-width="0.2"/>
<text x="32.847" y="83.02" font-size="1.96" text-anchor="middle" fill="#141414">93</text>
<circle cx="97.297" cy="193.014" r="2.00" fill="#ffe082" stroke="#464646" stroke-width="0.2"/>
<text x="97.297" y="193.70" font-size="1.96" text-anchor="middle" fill="#141414">94</text>
<circle cx="82.232" cy="161.84" r="2.00" fill="#ffe082" stroke="#464646" stroke-width="0.2"/>
<text x="82.232" y="162.52" font-size="1.96" text-anchor="middle" fill="#141414">95</text>
<circle cx="68.901" cy="126.052" r="2.35" fill="#eaf1fe" stroke="#2e78e6" stroke-width="0.3"/>
<text x="68.901" y="126.97" font-size="2.66" text-anchor="middle" fill="#14306e" font-weight="bold">11</text>
<polygon points="178.523,17.774 176.106,13.286 180.939,8.453 185.428,10.869" fill="rgb(216,216,216)"/>
<polygon points="152.846,41.609 149.785,47.294 155.908,53.417 161.593,50.356" fill="rgb(216,216,216)"/>
<polygon points="152.846,41.609 146.949,44.24 141.298,37.679 144.774,32.237" fill="rgb(216,216,216)"/>
<polygon points="185.428,24.679 189.916,27.096 194.749,22.263 192.333,17.774" fill="rgb(216,216,216)"/>
<polygon points="161.593,50.356 158.962,56.252 165.522,61.903 170.964,58.428" fill="rgb(216,216,216)"/>
<polygon points="192.333,17.774 194.75,13.286 189.916,8.453 185.428,10.869" fill="rgb(216,216,216)"/>
<polygon points="200.678,36.858 203.492,45.147 189.655,65.394 180.91,65.782" fill="rgb(216,216,216)"/>
<polygon points="178.523,17.774 176.106,13.286 180.939,8.453 185.428,10.869" fill="#99d9fa"/>
<line x1="152.846" y1="41.609" x2="178.523" y2="17.774" stroke="#8c8c8c" stroke-width="0.3" stroke-dasharray="1.2,0.8"/>
<line x1="185.428" y1="24.679" x2="178.523" y2="17.774" stroke="#8c8c8c" stroke-width="0.3" stroke-dasharray="1.2,0.8"/>
<line x1="185.428" y1="24.679" x2="161.593" y2="50.356" stroke="#8c8c8c" stroke-width="0.3" stroke-dasharray="1.2,0.8"/>
<line x1="192.827" y1="31.052" x2="170.964" y2="58.428" stroke="#8c8c8c" stroke-width="0.3" stroke-dasharray="1.2,0.8"/>
<line x1="180.91" y1="65.782" x2="170.964" y2="58.428" stroke="#8c8c8c" stroke-width="0.3" stroke-dasharray="1.2,0.8"/>
<line x1="185.428" y1="10.869" x2="178.523" y2="17.774" stroke="#8c8c8c" stroke-width="0.3" stroke-dasharray="1.2,0.8"/>
<line x1="161.593" y1="50.356" x2="152.846" y2="41.609" stroke="#8c8c8c" stroke-width="0.3" stroke-dasharray="1.2,0.8"/>
<line x1="144.774" y1="32.237" x2="152.846" y2="41.609" stroke="#8c8c8c" stroke-width="0.3" stroke-dasharray="1.2,0.8"/>
<line x1="192.333" y1="17.774" x2="185.428" y2="24.679" stroke="#8c8c8c" stroke-width="0.3" stroke-dasharray="1.2,0.8"/>
<line x1="170.964" y1="58.428" x2="161.593" y2="50.356" stroke="#8c8c8c" stroke-width="0.3" stroke-dasharray="1.2,0.8"/>
<line x1="185.428" y1="10.869" x2="192.333" y2="17.774" stroke="#8c8c8c" stroke-width="0.3" stroke-dasharray="1.2,0.8"/>
<line x1="180.91" y1="65.782" x2="200.678" y2="36.858" stroke="#8c8c8c" stroke-width="0.3" stroke-dasharray="1.2,0.8"/>
<line x1="172.15" y1="10.375" x2="178.523" y2="17.774" stroke="#141414" stroke-width="0.4"/>
<line x1="173.556" y1="75.728" x2="163.61" y2="68.374" stroke="#141414" stroke-width="0.4"/>
<line x1="180.91" y1="65.782" x2="173.556" y2="75.728" stroke="#141414" stroke-width="0.4"/>
<line x1="185.428" y1="24.679" x2="192.827" y2="31.052" stroke="#141414" stroke-width="0.4"/>
<line x1="163.61" y1="68.374" x2="170.964" y2="58.428" stroke="#141414" stroke-width="0.4"/>
<line x1="192.827" y1="31.052" x2="200.678" y2="36.858" stroke="#141414" stroke-width="0.4"/>
<line x1="144.774" y1="32.237" x2="172.15" y2="10.375" stroke="#141414" stroke-width="0.4"/>
<line x1="178.523" y1="17.774" x2="176.106" y2="13.286" stroke="#141414" stroke-width="0.4"/>
<line x1="176.106" y1="13.286" x2="180.939" y2="8.453" stroke="#141414" stroke-width="0.4"/>
<line x1="180.939" y1="8.453" x2="185.428" y2="10.869" stroke="#141414" stroke-width="0.4"/>
<line x1="152.846" y1="41.609" x2="149.785" y2="47.294" stroke="#141414" stroke-width="0.4"/>
<line x1="149.785" y1="47.294" x2="155.908" y2="53.417" stroke="#141414" stroke-width="0.4"/>
<line x1="155.908" y1="53.417" x2="161.593" y2="50.356" stroke="#141414" stroke-width="0.4"/>
<line x1="152.846" y1="41.609" x2="146.949" y2="44.24" stroke="#141414" stroke-width="0.4"/>
<line x1="146.949" y1="44.24" x2="141.298" y2="37.679" stroke="#141414" stroke-width="0.4"/>
<line x1="141.298" y1="37.679" x2="144.774" y2="32.237" stroke="#141414" stroke-width="0.4"/>
<line x1="185.428" y1="24.679" x2="189.916" y2="27.096" stroke="#141414" stroke-width="0.4"/>
<line x1="189.916" y1="27.096" x2="194.749" y2="22.263" stroke="#141414" stroke-width="0.4"/>
<line x1="194.749" y1="22.263" x2="192.333" y2="17.774" stroke="#141414" stroke-width="0.4"/>
<line x1="161.593" y1="50.356" x2="158.962" y2="56.252" stroke="#141414" stroke-width="0.4"/>
<line x1="158.962" y1="56.252" x2="165.522" y2="61.903" stroke="#141414" stroke-width="0.4"/>
<line x1="165.522" y1="61.903" x2="170.964" y2="58.428" stroke="#141414" stroke-width="0.4"/>
<line x1="192.333" y1="17.774" x2="194.75" y2="13.286" stroke="#141414" stroke-width="0.4"/>
<line x1="194.75" y1="13.286" x2="189.916" y2="8.453" stroke="#141414" stroke-width="0.4"/>
<line x1="189.916" y1="8.453" x2="185.428" y2="10.869" stroke="#141414" stroke-width="0.4"/>
<line x1="200.678" y1="36.858" x2="203.492" y2="45.147" stroke="#141414" stroke-width="0.4"/>
<line x1="203.492" y1="45.147" x2="189.655" y2="65.394" stroke="#141414" stroke-width="0.4"/>
<line x1="189.655" y1="65.394" x2="180.91" y2="65.782" stroke="#141414" stroke-width="0.4"/>
<circle cx="180.249" cy="12.596" r="2.00" fill="#99d9fa" stroke="#464646" stroke-width="0.2"/>
<text x="180.249" y="13.28" font-size="1.96" text-anchor="middle" fill="#141414">103</text>
<circle cx="155.033" cy="48.169" r="2.00" fill="#ffe082" stroke="#464646" stroke-width="0.2"/>
<text x="155.033" y="48.85" font-size="1.96" text-anchor="middle" fill="#141414">104</text>
<circle cx="146.467" cy="38.942" r="2.00" fill="#ffe082" stroke="#464646" stroke-width="0.2"/>
<text x="146.467" y="39.63" font-size="1.96" text-anchor="middle" fill="#141414">105</text>
<circle cx="190.606" cy="22.953" r="2.00" fill="#ffe082" stroke="#464646" stroke-width="0.2"/>
<text x="190.606" y="23.64" font-size="1.96" text-anchor="middle" fill="#141414">106</text>
<circle cx="164.26" cy="56.735" r="2.00" fill="#ffe082" stroke="#464646" stroke-width="0.2"/>
<text x="164.26" y="57.42" font-size="1.96" text-anchor="middle" fill="#141414">107</text>
<circle cx="190.606" cy="12.596" r="2.00" fill="#ffe082" stroke="#464646" stroke-width="0.2"/>
<text x="190.606" y="13.28" font-size="1.96" text-anchor="middle" fill="#141414">108</text>
<circle cx="193.684" cy="53.295" r="2.00" fill="#ffe082" stroke="#464646" stroke-width="0.2"/>
<text x="193.684" y="53.98" font-size="1.96" text-anchor="middle" fill="#141414">109</text>
<circle cx="158.714" cy="30.54" r="3.15" fill="#eaf1fe" stroke="#2e78e6" stroke-width="0.3"/>
<text x="158.714" y="31.77" font-size="3.56" text-anchor="middle" fill="#14306e" font-weight="bold">13</text>
<polygon points="41.755,215.402 39.339,210.914 44.172,206.081 48.66,208.497" fill="rgb(216,216,216)"/>
<polygon points="16.079,239.237 13.018,244.922 19.14,251.045 24.826,247.984" fill="rgb(216,216,216)"/>
<polygon points="16.079,239.237 10.182,241.868 4.531,235.307 8.006,229.865" fill="rgb(216,216,216)"/>
<polygon points="48.66,222.307 53.149,224.724 57.982,219.891 55.566,215.402" fill="rgb(216,216,216)"/>
<polygon points="24.826,247.984 22.195,253.88 28.755,259.531 34.197,256.056" fill="rgb(216,216,216)"/>
<polygon points="55.566,215.402 57.982,210.914 53.149,206.08 48.66,208.497" fill="rgb(216,216,216)"/>
<polygon points="63.911,234.486 66.725,242.775 52.888,263.022 44.143,263.41" fill="rgb(216,216,216)"/>
<polygon points="41.755,215.402 39.339,210.914 44.172,206.081 48.66,208.497" fill="#99d9fa"/>
<line x1="16.079" y1="239.237" x2="41.755" y2="215.402" stroke="#8c8c8c" stroke-width="0.3" stroke-dasharray="1.2,0.8"/>
<line x1="48.66" y1="222.307" x2="41.755" y2="215.402" stroke="#8c8c8c" stroke-width="0.3" stroke-dasharray="1.2,0.8"/>
<line x1="48.66" y1="222.307" x2="24.826" y2="247.984" stroke="#8c8c8c" stroke-width="0.3" stroke-dasharray="1.2,0.8"/>
<line x1="56.059" y1="228.68" x2="34.197" y2="256.056" stroke="#8c8c8c" stroke-width="0.3" stroke-dasharray="1.2,0.8"/>
<line x1="44.143" y1="263.41" x2="34.197" y2="256.056" stroke="#8c8c8c" stroke-width="0.3" stroke-dasharray="1.2,0.8"/>
<line x1="48.66" y1="208.497" x2="41.755" y2="215.402" stroke="#8c8c8c" stroke-width="0.3" stroke-dasharray="1.2,0.8"/>
<line x1="24.826" y1="247.984" x2="16.079" y2="239.237" stroke="#8c8c8c" stroke-width="0.3" stroke-dasharray="1.2,0.8"/>
<line x1="8.006" y1="229.865" x2="16.079" y2="239.237" stroke="#8c8c8c" stroke-width="0.3" stroke-dasharray="1.2,0.8"/>
<line x1="55.566" y1="215.402" x2="48.66" y2="222.307" stroke="#8c8c8c" stroke-width="0.3" stroke-dasharray="1.2,0.8"/>
<line x1="34.197" y1="256.056" x2="24.826" y2="247.984" stroke="#8c8c8c" stroke-width="0.3" stroke-dasharray="1.2,0.8"/>
<line x1="48.66" y1="208.497" x2="55.566" y2="215.402" stroke="#8c8c8c" stroke-width="0.3" stroke-dasharray="1.2,0.8"/>
<line x1="44.143" y1="263.41" x2="63.911" y2="234.486" stroke="#8c8c8c" stroke-width="0.3" stroke-dasharray="1.2,0.8"/>
<line x1="35.382" y1="208.003" x2="41.755" y2="215.402" stroke="#141414" stroke-width="0.4"/>
<line x1="36.789" y1="273.356" x2="26.843" y2="266.002" stroke="#141414" stroke-width="0.4"/>
<line x1="44.143" y1="263.41" x2="36.789" y2="273.356" stroke="#141414" stroke-width="0.4"/>
<line x1="48.66" y1="222.307" x2="56.059" y2="228.68" stroke="#141414" stroke-width="0.4"/>
<line x1="26.843" y1="266.002" x2="34.197" y2="256.056" stroke="#141414" stroke-width="0.4"/>
<line x1="56.059" y1="228.68" x2="63.911" y2="234.486" stroke="#141414" stroke-width="0.4"/>
<line x1="8.006" y1="229.865" x2="35.382" y2="208.003" stroke="#141414" stroke-width="0.4"/>
<line x1="41.755" y1="215.402" x2="39.339" y2="210.914" stroke="#141414" stroke-width="0.4"/>
<line x1="39.339" y1="210.914" x2="44.172" y2="206.081" stroke="#141414" stroke-width="0.4"/>
<line x1="44.172" y1="206.081" x2="48.66" y2="208.497" stroke="#141414" stroke-width="0.4"/>
<line x1="16.079" y1="239.237" x2="13.018" y2="244.922" stroke="#141414" stroke-width="0.4"/>
<line x1="13.018" y1="244.922" x2="19.14" y2="251.045" stroke="#141414" stroke-width="0.4"/>
<line x1="19.14" y1="251.045" x2="24.826" y2="247.984" stroke="#141414" stroke-width="0.4"/>
<line x1="16.079" y1="239.237" x2="10.182" y2="241.868" stroke="#141414" stroke-width="0.4"/>
<line x1="10.182" y1="241.868" x2="4.531" y2="235.307" stroke="#141414" stroke-width="0.4"/>
<line x1="4.531" y1="235.307" x2="8.006" y2="229.865" stroke="#141414" stroke-width="0.4"/>
<line x1="48.66" y1="222.307" x2="53.149" y2="224.724" stroke="#141414" stroke-width="0.4"/>
<line x1="53.149" y1="224.724" x2="57.982" y2="219.891" stroke="#141414" stroke-width="0.4"/>
<line x1="57.982" y1="219.891" x2="55.566" y2="215.402" stroke="#141414" stroke-width="0.4"/>
<line x1="24.826" y1="247.984" x2="22.195" y2="253.88" stroke="#141414" stroke-width="0.4"/>
<line x1="22.195" y1="253.88" x2="28.755" y2="259.531" stroke="#141414" stroke-width="0.4"/>
<line x1="28.755" y1="259.531" x2="34.197" y2="256.056" stroke="#141414" stroke-width="0.4"/>
<line x1="55.566" y1="215.402" x2="57.982" y2="210.914" stroke="#141414" stroke-width="0.4"/>
<line x1="57.982" y1="210.914" x2="53.149" y2="206.08" stroke="#141414" stroke-width="0.4"/>
<line x1="53.149" y1="206.08" x2="48.66" y2="208.497" stroke="#141414" stroke-width="0.4"/>
<line x1="63.911" y1="234.486" x2="66.725" y2="242.775" stroke="#141414" stroke-width="0.4"/>
<line x1="66.725" y1="242.775" x2="52.888" y2="263.022" stroke="#141414" stroke-width="0.4"/>
<line x1="52.888" y1="263.022" x2="44.143" y2="263.41" stroke="#141414" stroke-width="0.4"/>
<circle cx="43.482" cy="210.223" r="2.00" fill="#99d9fa" stroke="#464646" stroke-width="0.2"/>
<text x="43.482" y="210.91" font-size="1.96" text-anchor="middle" fill="#141414">110</text>
<circle cx="18.266" cy="245.797" r="2.00" fill="#ffe082" stroke="#464646" stroke-width="0.2"/>
<text x="18.266" y="246.48" font-size="1.96" text-anchor="middle" fill="#141414">111</text>
<circle cx="9.7" cy="236.569" r="2.00" fill="#ffe082" stroke="#464646" stroke-width="0.2"/>
<text x="9.7" y="237.25" font-size="1.96" text-anchor="middle" fill="#141414">112</text>
<circle cx="53.839" cy="220.581" r="2.00" fill="#ffe082" stroke="#464646" stroke-width="0.2"/>
<text x="53.839" y="221.27" font-size="1.96" text-anchor="middle" fill="#141414">113</text>
<circle cx="27.493" cy="254.363" r="2.00" fill="#ffe082" stroke="#464646" stroke-width="0.2"/>
<text x="27.493" y="255.05" font-size="1.96" text-anchor="middle" fill="#141414">114</text>
<circle cx="53.839" cy="210.223" r="2.00" fill="#ffe082" stroke="#464646" stroke-width="0.2"/>
<text x="53.839" y="210.91" font-size="1.96" text-anchor="middle" fill="#141414">115</text>
<circle cx="56.917" cy="250.923" r="2.00" fill="#ffe082" stroke="#464646" stroke-width="0.2"/>
<text x="56.917" y="251.61" font-size="1.96" text-anchor="middle" fill="#141414">116</text>
<circle cx="21.947" cy="228.168" r="3.15" fill="#eaf1fe" stroke="#2e78e6" stroke-width="0.3"/>
<text x="21.947" y="229.40" font-size="3.56" text-anchor="middle" fill="#14306e" font-weight="bold">14</text>
<polygon points="106.949,215.402 104.532,210.914 109.366,206.081 113.854,208.497" fill="rgb(216,216,216)"/>
<polygon points="81.273,239.237 78.211,244.922 84.334,251.045 90.019,247.984" fill="rgb(216,216,216)"/>
<polygon points="81.273,239.237 75.376,241.868 69.725,235.307 73.2,229.865" fill="rgb(216,216,216)"/>
<polygon points="113.854,222.307 118.343,224.724 123.176,219.891 120.759,215.402" fill="rgb(216,216,216)"/>
<polygon points="90.019,247.984 87.389,253.88 93.949,259.531 99.391,256.056" fill="rgb(216,216,216)"/>
<polygon points="120.759,215.402 123.176,210.914 118.342,206.08 113.854,208.497" fill="rgb(216,216,216)"/>
<polygon points="129.105,234.486 131.919,242.775 118.081,263.022 109.337,263.41" fill="rgb(216,216,216)"/>
<polygon points="106.949,215.402 104.532,210.914 109.366,206.081 113.854,208.497" fill="#99d9fa"/>
<line x1="81.273" y1="239.237" x2="106.949" y2="215.402" stroke="#8c8c8c" stroke-width="0.3" stroke-dasharray="1.2,0.8"/>
<line x1="113.854" y1="222.307" x2="106.949" y2="215.402" stroke="#8c8c8c" stroke-width="0.3" stroke-dasharray="1.2,0.8"/>
<line x1="113.854" y1="222.307" x2="90.019" y2="247.984" stroke="#8c8c8c" stroke-width="0.3" stroke-dasharray="1.2,0.8"/>
<line x1="121.253" y1="228.68" x2="99.391" y2="256.056" stroke="#8c8c8c" stroke-width="0.3" stroke-dasharray="1.2,0.8"/>
<line x1="109.337" y1="263.41" x2="99.391" y2="256.056" stroke="#8c8c8c" stroke-width="0.3" stroke-dasharray="1.2,0.8"/>
<line x1="113.854" y1="208.497" x2="106.949" y2="215.402" stroke="#8c8c8c" stroke-width="0.3" stroke-dasharray="1.2,0.8"/>
<line x1="90.019" y1="247.984" x2="81.273" y2="239.237" stroke="#8c8c8c" stroke-width="0.3" stroke-dasharray="1.2,0.8"/>
<line x1="73.2" y1="229.865" x2="81.273" y2="239.237" stroke="#8c8c8c" stroke-width="0.3" stroke-dasharray="1.2,0.8"/>
<line x1="120.759" y1="215.402" x2="113.854" y2="222.307" stroke="#8c8c8c" stroke-width="0.3" stroke-dasharray="1.2,0.8"/>
<line x1="99.391" y1="256.056" x2="90.019" y2="247.984" stroke="#8c8c8c" stroke-width="0.3" stroke-dasharray="1.2,0.8"/>
<line x1="113.854" y1="208.497" x2="120.759" y2="215.402" stroke="#8c8c8c" stroke-width="0.3" stroke-dasharray="1.2,0.8"/>
<line x1="109.337" y1="263.41" x2="129.105" y2="234.486" stroke="#8c8c8c" stroke-width="0.3" stroke-dasharray="1.2,0.8"/>
<line x1="100.576" y1="208.003" x2="106.949" y2="215.402" stroke="#141414" stroke-width="0.4"/>
<line x1="101.983" y1="273.356" x2="92.037" y2="266.002" stroke="#141414" stroke-width="0.4"/>
<line x1="109.337" y1="263.41" x2="101.983" y2="273.356" stroke="#141414" stroke-width="0.4"/>
<line x1="113.854" y1="222.307" x2="121.253" y2="228.68" stroke="#141414" stroke-width="0.4"/>
<line x1="92.037" y1="266.002" x2="99.391" y2="256.056" stroke="#141414" stroke-width="0.4"/>
<line x1="121.253" y1="228.68" x2="129.105" y2="234.486" stroke="#141414" stroke-width="0.4"/>
<line x1="73.2" y1="229.865" x2="100.576" y2="208.003" stroke="#141414" stroke-width="0.4"/>
<line x1="106.949" y1="215.402" x2="104.532" y2="210.914" stroke="#141414" stroke-width="0.4"/>
<line x1="104.532" y1="210.914" x2="109.366" y2="206.081" stroke="#141414" stroke-width="0.4"/>
<line x1="109.366" y1="206.081" x2="113.854" y2="208.497" stroke="#141414" stroke-width="0.4"/>
<line x1="81.273" y1="239.237" x2="78.211" y2="244.922" stroke="#141414" stroke-width="0.4"/>
<line x1="78.211" y1="244.922" x2="84.334" y2="251.045" stroke="#141414" stroke-width="0.4"/>
<line x1="84.334" y1="251.045" x2="90.019" y2="247.984" stroke="#141414" stroke-width="0.4"/>
<line x1="81.273" y1="239.237" x2="75.376" y2="241.868" stroke="#141414" stroke-width="0.4"/>
<line x1="75.376" y1="241.868" x2="69.725" y2="235.307" stroke="#141414" stroke-width="0.4"/>
<line x1="69.725" y1="235.307" x2="73.2" y2="229.865" stroke="#141414" stroke-width="0.4"/>
<line x1="113.854" y1="222.307" x2="118.343" y2="224.724" stroke="#141414" stroke-width="0.4"/>
<line x1="118.343" y1="224.724" x2="123.176" y2="219.891" stroke="#141414" stroke-width="0.4"/>
<line x1="123.176" y1="219.891" x2="120.759" y2="215.402" stroke="#141414" stroke-width="0.4"/>
<line x1="90.019" y1="247.984" x2="87.389" y2="253.88" stroke="#141414" stroke-width="0.4"/>
<line x1="87.389" y1="253.88" x2="93.949" y2="259.531" stroke="#141414" stroke-width="0.4"/>
<line x1="93.949" y1="259.531" x2="99.391" y2="256.056" stroke="#141414" stroke-width="0.4"/>
<line x1="120.759" y1="215.402" x2="123.176" y2="210.914" stroke="#141414" stroke-width="0.4"/>
<line x1="123.176" y1="210.914" x2="118.342" y2="206.08" stroke="#141414" stroke-width="0.4"/>
<line x1="118.342" y1="206.08" x2="113.854" y2="208.497" stroke="#141414" stroke-width="0.4"/>
<line x1="129.105" y1="234.486" x2="131.919" y2="242.775" stroke="#141414" stroke-width="0.4"/>
<line x1="131.919" y1="242.775" x2="118.081" y2="263.022" stroke="#141414" stroke-width="0.4"/>
<line x1="118.081" y1="263.022" x2="109.337" y2="263.41" stroke="#141414" stroke-width="0.4"/>
<circle cx="108.675" cy="210.223" r="2.00" fill="#99d9fa" stroke="#464646" stroke-width="0.2"/>
<text x="108.675" y="210.91" font-size="1.96" text-anchor="middle" fill="#141414">117</text>
<circle cx="83.459" cy="245.797" r="2.00" fill="#ffe082" stroke="#464646" stroke-width="0.2"/>
<text x="83.459" y="246.48" font-size="1.96" text-anchor="middle" fill="#141414">118</text>
<circle cx="74.893" cy="236.569" r="2.00" fill="#ffe082" stroke="#464646" stroke-width="0.2"/>
<text x="74.893" y="237.25" font-size="1.96" text-anchor="middle" fill="#141414">119</text>
<circle cx="119.033" cy="220.581" r="2.00" fill="#ffe082" stroke="#464646" stroke-width="0.2"/>
<text x="119.033" y="221.27" font-size="1.96" text-anchor="middle" fill="#141414">120</text>
<circle cx="92.687" cy="254.363" r="2.00" fill="#ffe082" stroke="#464646" stroke-width="0.2"/>
<text x="92.687" y="255.05" font-size="1.96" text-anchor="middle" fill="#141414">121</text>
<circle cx="119.033" cy="210.223" r="2.00" fill="#ffe082" stroke="#464646" stroke-width="0.2"/>
<text x="119.033" y="210.91" font-size="1.96" text-anchor="middle" fill="#141414">122</text>
<circle cx="122.11" cy="250.923" r="2.00" fill="#ffe082" stroke="#464646" stroke-width="0.2"/>
<text x="122.11" y="251.61" font-size="1.96" text-anchor="middle" fill="#141414">123</text>
<circle cx="87.141" cy="228.168" r="3.15" fill="#eaf1fe" stroke="#2e78e6" stroke-width="0.3"/>
<text x="87.141" y="229.40" font-size="3.56" text-anchor="middle" fill="#14306e" font-weight="bold">15</text>
<polygon points="172.143,215.402 169.726,210.914 174.56,206.081 179.048,208.497" fill="rgb(216,216,216)"/>
<polygon points="146.466,239.237 143.405,244.922 149.528,251.045 155.213,247.984" fill="rgb(216,216,216)"/>
<polygon points="146.466,239.237 140.57,241.868 134.919,235.307 138.394,229.865" fill="rgb(216,216,216)"/>
<polygon points="179.048,222.307 183.536,224.724 188.37,219.891 185.953,215.402" fill="rgb(216,216,216)"/>
<polygon points="155.213,247.984 152.582,253.88 159.143,259.531 164.585,256.056" fill="rgb(216,216,216)"/>
<polygon points="185.953,215.402 188.37,210.914 183.536,206.08 179.048,208.497" fill="rgb(216,216,216)"/>
<polygon points="194.299,234.486 197.112,242.775 183.275,263.022 174.53,263.41" fill="rgb(216,216,216)"/>
<polygon points="172.143,215.402 169.726,210.914 174.56,206.081 179.048,208.497" fill="#99d9fa"/>
<line x1="146.466" y1="239.237" x2="172.143" y2="215.402" stroke="#8c8c8c" stroke-width="0.3" stroke-dasharray="1.2,0.8"/>
<line x1="179.048" y1="222.307" x2="172.143" y2="215.402" stroke="#8c8c8c" stroke-width="0.3" stroke-dasharray="1.2,0.8"/>
<line x1="179.048" y1="222.307" x2="155.213" y2="247.984" stroke="#8c8c8c" stroke-width="0.3" stroke-dasharray="1.2,0.8"/>
<line x1="186.447" y1="228.68" x2="164.585" y2="256.056" stroke="#8c8c8c" stroke-width="0.3" stroke-dasharray="1.2,0.8"/>
<line x1="174.53" y1="263.41" x2="164.585" y2="256.056" stroke="#8c8c8c" stroke-width="0.3" stroke-dasharray="1.2,0.8"/>
<line x1="179.048" y1="208.497" x2="172.143" y2="215.402" stroke="#8c8c8c" stroke-width="0.3" stroke-dasharray="1.2,0.8"/>
<line x1="155.213" y1="247.984" x2="146.466" y2="239.237" stroke="#8c8c8c" stroke-width="0.3" stroke-dasharray="1.2,0.8"/>
<line x1="138.394" y1="229.865" x2="146.466" y2="239.237" stroke="#8c8c8c" stroke-width="0.3" stroke-dasharray="1.2,0.8"/>
<line x1="185.953" y1="215.402" x2="179.048" y2="222.307" stroke="#8c8c8c" stroke-width="0.3" stroke-dasharray="1.2,0.8"/>
<line x1="164.585" y1="256.056" x2="155.213" y2="247.984" stroke="#8c8c8c" stroke-width="0.3" stroke-dasharray="1.2,0.8"/>
<line x1="179.048" y1="208.497" x2="185.953" y2="215.402" stroke="#8c8c8c" stroke-width="0.3" stroke-dasharray="1.2,0.8"/>
<line x1="174.53" y1="263.41" x2="194.299" y2="234.486" stroke="#8c8c8c" stroke-width="0.3" stroke-dasharray="1.2,0.8"/>
<line x1="165.77" y1="208.003" x2="172.143" y2="215.402" stroke="#141414" stroke-width="0.4"/>
<line x1="167.176" y1="273.356" x2="157.231" y2="266.002" stroke="#141414" stroke-width="0.4"/>
<line x1="174.53" y1="263.41" x2="167.176" y2="273.356" stroke="#141414" stroke-width="0.4"/>
<line x1="179.048" y1="222.307" x2="186.447" y2="228.68" stroke="#141414" stroke-width="0.4"/>
<line x1="157.231" y1="266.002" x2="164.585" y2="256.056" stroke="#141414" stroke-width="0.4"/>
<line x1="186.447" y1="228.68" x2="194.299" y2="234.486" stroke="#141414" stroke-width="0.4"/>
<line x1="138.394" y1="229.865" x2="165.77" y2="208.003" stroke="#141414" stroke-width="0.4"/>
<line x1="172.143" y1="215.402" x2="169.726" y2="210.914" stroke="#141414" stroke-width="0.4"/>
<line x1="169.726" y1="210.914" x2="174.56" y2="206.081" stroke="#141414" stroke-width="0.4"/>
<line x1="174.56" y1="206.081" x2="179.048" y2="208.497" stroke="#141414" stroke-width="0.4"/>
<line x1="146.466" y1="239.237" x2="143.405" y2="244.922" stroke="#141414" stroke-width="0.4"/>
<line x1="143.405" y1="244.922" x2="149.528" y2="251.045" stroke="#141414" stroke-width="0.4"/>
<line x1="149.528" y1="251.045" x2="155.213" y2="247.984" stroke="#141414" stroke-width="0.4"/>
<line x1="146.466" y1="239.237" x2="140.57" y2="241.868" stroke="#141414" stroke-width="0.4"/>
<line x1="140.57" y1="241.868" x2="134.919" y2="235.307" stroke="#141414" stroke-width="0.4"/>
<line x1="134.919" y1="235.307" x2="138.394" y2="229.865" stroke="#141414" stroke-width="0.4"/>
<line x1="179.048" y1="222.307" x2="183.536" y2="224.724" stroke="#141414" stroke-width="0.4"/>
<line x1="183.536" y1="224.724" x2="188.37" y2="219.891" stroke="#141414" stroke-width="0.4"/>
<line x1="188.37" y1="219.891" x2="185.953" y2="215.402" stroke="#141414" stroke-width="0.4"/>
<line x1="155.213" y1="247.984" x2="152.582" y2="253.88" stroke="#141414" stroke-width="0.4"/>
<line x1="152.582" y1="253.88" x2="159.143" y2="259.531" stroke="#141414" stroke-width="0.4"/>
<line x1="159.143" y1="259.531" x2="164.585" y2="256.056" stroke="#141414" stroke-width="0.4"/>
<line x1="185.953" y1="215.402" x2="188.37" y2="210.914" stroke="#141414" stroke-width="0.4"/>
<line x1="188.37" y1="210.914" x2="183.536" y2="206.08" stroke="#141414" stroke-width="0.4"/>
<line x1="183.536" y1="206.08" x2="179.048" y2="208.497" stroke="#141414" stroke-width="0.4"/>
<line x1="194.299" y1="234.486" x2="197.112" y2="242.775" stroke="#141414" stroke-width="0.4"/>
<line x1="197.112" y1="242.775" x2="183.275" y2="263.022" stroke="#141414" stroke-width="0.4"/>
<line x1="183.275" y1="263.022" x2="174.53" y2="263.41" stroke="#141414" stroke-width="0.4"/>
<circle cx="173.869" cy="210.223" r="2.00" fill="#99d9fa" stroke="#464646" stroke-width="0.2"/>
<text x="173.869" y="210.91" font-size="1.96" text-anchor="middle" fill="#141414">124</text>
<circle cx="148.653" cy="245.797" r="2.00" fill="#ffe082" stroke="#464646" stroke-width="0.2"/>
<text x="148.653" y="246.48" font-size="1.96" text-anchor="middle" fill="#141414">125</text>
<circle cx="140.087" cy="236.569" r="2.00" fill="#ffe082" stroke="#464646" stroke-width="0.2"/>
<text x="140.087" y="237.25" font-size="1.96" text-anchor="middle" fill="#141414">126</text>
<circle cx="184.227" cy="220.581" r="2.00" fill="#ffe082" stroke="#464646" stroke-width="0.2"/>
<text x="184.227" y="221.27" font-size="1.96" text-anchor="middle" fill="#141414">127</text>
<circle cx="157.881" cy="254.363" r="2.00" fill="#ffe082" stroke="#464646" stroke-width="0.2"/>
<text x="157.881" y="255.05" font-size="1.96" text-anchor="middle" fill="#141414">128</text>
<circle cx="184.227" cy="210.223" r="2.00" fill="#ffe082" stroke="#464646" stroke-width="0.2"/>
<text x="184.227" y="210.91" font-size="1.96" text-anchor="middle" fill="#141414">129</text>
<circle cx="187.304" cy="250.923" r="2.00" fill="#ffe082" stroke="#464646" stroke-width="0.2"/>
<text x="187.304" y="251.61" font-size="1.96" text-anchor="middle" fill="#141414">130</text>
<circle cx="152.334" cy="228.168" r="3.15" fill="#eaf1fe" stroke="#2e78e6" stroke-width="0.3"/>
<text x="152.334" y="229.40" font-size="3.56" text-anchor="middle" fill="#14306e" font-weight="bold">16</text>
<text x="205.0" y="295.0" font-size="3.2" text-anchor="end" fill="#737373" font-family="sans-serif">5 / 5</text>
</svg>
