<svg xmlns="http://www.w3.org/2000/svg" xmlns:xlink="http://www.w3.org/1999/xlink" width="210.00mm" height="297.00mm" viewBox="0 0 210.00 297.00">
<rect x="0" y="0" width="210.00" height="297.00" fill="#ffffff" stroke="#cccccc" stroke-width="0.2"/>
<polygon points="63.686,103.063 57.835,98.158 61.861,84.52 69.438,83.58" fill="rgb(216,216,216)"/>
<polygon points="63.686,123.378 60.624,132.718 64.838,140.898 74.221,143.827" fill="rgb(216,216,216)"/>
<polygon points="74.221,143.827 69.579,150.1 76.954,164.414 84.757,164.276" fill="rgb(216,216,216)"/>
<polygon points="84.757,164.276 80.115,170.549 87.49,184.863 95.293,184.725" fill="rgb(216,216,216)"/>
<polygon points="95.293,184.725 90.651,190.998 98.026,205.313 105.829,205.174" fill="rgb(216,216,216)"/>
<polygon points="105.829,205.174 104.247,212.643 115.826,220.897 122.371,216.966" fill="rgb(216,216,216)"/>
<polygon points="122.371,216.966 129.371,213.919 129.371,199.698 122.371,196.651" fill="rgb(216,216,216)"/>
<polygon points="190.5,121.392 192.082,113.923 180.502,105.669 173.958,109.6" fill="rgb(216,216,216)"/>
<polygon points="152.221,10.438 147.057,4.815 133.615,9.453 133.017,17.064" fill="rgb(216,216,216)"/>
<polygon points="80.228,114.855 89.611,117.784 93.825,125.963 90.763,135.304" fill="rgb(216,216,216)"/>
<polygon points="90.763,135.304 98.567,135.165 105.942,149.479 101.299,155.753" fill="rgb(216,216,216)"/>
<polygon points="101.299,155.753 109.102,155.614 116.477,169.929 111.835,176.202" fill="rgb(216,216,216)"/>
<polygon points="111.835,176.202 119.638,176.063 127.013,190.378 122.371,196.651" fill="rgb(216,216,216)"/>
<polygon points="82.889,96.438 90.721,90.497 99.828,91.813 105.656,99.728" fill="rgb(216,216,216)"/>
<polygon points="105.656,99.728 110.073,93.294 126.01,95.597 128.424,103.019" fill="rgb(216,216,216)"/>
<polygon points="128.424,103.019 132.84,96.584 148.777,98.888 151.191,106.309" fill="rgb(216,216,216)"/>
<polygon points="151.191,106.309 155.607,99.875 171.544,102.178 173.958,109.6" fill="rgb(216,216,216)"/>
<polygon points="69.438,83.58 66.762,76.248 77.888,64.608 85.332,66.951" fill="rgb(216,216,216)"/>
<polygon points="85.332,66.951 82.657,59.619 93.783,47.979 101.227,50.322" fill="rgb(216,216,216)"/>
<polygon points="101.227,50.322 98.551,42.99 109.678,31.35 117.122,33.693" fill="rgb(216,216,216)"/>
<polygon points="117.122,33.693 114.446,26.362 125.573,14.721 133.017,17.064" fill="rgb(216,216,216)"/>
<polygon points="69.438,83.58 66.762,76.248 77.888,64.608 85.332,66.951" fill="#99d9fa"/>
<line x1="63.685" y1="123.378" x2="63.685" y2="103.063" stroke="#8c8c8c" stroke-width="0.3" stroke-dasharray="1.2,0.8"/>
<line x1="63.685" y1="103.063" x2="80.228" y2="114.855" stroke="#8c8c8c" stroke-width="0.3" stroke-dasharray="1.2,0.8"/>
<line x1="63.685" y1="103.063" x2="82.889" y2="96.438" stroke="#8c8c8c" stroke-width="0.3" stroke-dasharray="1.2,0.8"/>
<line x1="80.228" y1="114.855" x2="63.685" y2="123.378" stroke="#8c8c8c" stroke-width="0.3" stroke-dasharray="1.2,0.8"/>
<line x1="63.685" y1="123.378" x2="47.143" y2="114.855" stroke="#8c8c8c" stroke-width="0.3" stroke-dasharray="1.2,0.8"/>
<line x1="122.371" y1="196.651" x2="105.829" y2="205.174" stroke="#8c8c8c" stroke-width="0.3" stroke-dasharray="1.2,0.8"/>
<line x1="21.542" y1="205.174" x2="5.0" y2="196.651" stroke="#8c8c8c" stroke-width="0.3" stroke-dasharray="1.2,0.8"/>
<line x1="82.889" y1="96.438" x2="80.228" y2="114.855" stroke="#8c8c8c" stroke-width="0.3" stroke-dasharray="1.2,0.8"/>
<line x1="173.958" y1="109.6" x2="171.296" y2="128.017" stroke="#8c8c8c" stroke-width="0.3" stroke-dasharray="1.2,0.8"/>
<line x1="69.438" y1="83.58" x2="82.889" y2="96.438" stroke="#8c8c8c" stroke-width="0.3" stroke-dasharray="1.2,0.8"/>
<line x1="133.017" y1="17.064" x2="146.469" y2="29.922" stroke="#8c8c8c" stroke-width="0.3" stroke-dasharray="1.2,0.8"/>
<line x1="69.438" y1="83.58" x2="63.686" y2="103.063" stroke="#8c8c8c" stroke-width="0.3" stroke-dasharray="1.2,0.8"/>
<line x1="74.221" y1="143.827" x2="63.686" y2="123.378" stroke="#8c8c8c" stroke-width="0.3" stroke-dasharray="1.2,0.8"/>
<line x1="84.757" y1="164.276" x2="74.221" y2="143.827" stroke="#8c8c8c" stroke-width="0.3" stroke-dasharray="1.2,0.8"/>
<line x1="95.293" y1="184.725" x2="84.757" y2="164.276" stroke="#8c8c8c" stroke-width="0.3" stroke-dasharray="1.2,0.8"/>
<line x1="105.829" y1="205.174" x2="95.293" y2="184.725" stroke="#8c8c8c" stroke-width="0.3" stroke-dasharray="1.2,0.8"/>
<line x1="122.371" y1="216.966" x2="105.829" y2="205.174" stroke="#8c8c8c" stroke-width="0.3" stroke-dasharray="1.2,0.8"/>
<line x1="122.371" y1="196.651" x2="122.371" y2="216.966" stroke="#8c8c8c" stroke-width="0.3" stroke-dasharray="1.2,0.8"/>
<line x1="173.958" y1="109.6" x2="190.5" y2="121.392" stroke="#8c8c8c" stroke-width="0.3" stroke-dasharray="1.2,0.8"/>
<line x1="133.017" y1="17.064" x2="152.221" y2="10.438" stroke="#8c8c8c" stroke-width="0.3" stroke-dasharray="1.2,0.8"/>
<line x1="90.763" y1="135.304" x2="80.228" y2="114.855" stroke="#8c8c8c" stroke-width="0.3" stroke-dasharray="1.2,0.8"/>
<line x1="101.299" y1="155.753" x2="90.763" y2="135.304" stroke="#8c8c8c" stroke-width="0.3" stroke-dasharray="1.2,0.8"/>
<line x1="111.835" y1="176.202" x2="101.299" y2="155.753" stroke="#8c8c8c" stroke-width="0.3" stroke-dasharray="1.2,0.8"/>
<line x1="122.371" y1="196.651" x2="111.835" y2="176.202" stroke="#8c8c8c" stroke-width="0.3" stroke-dasharray="1.2,0.8"/>
<line x1="105.656" y1="99.728" x2="82.889" y2="96.438" stroke="#8c8c8c" stroke-width="0.3" stroke-dasharray="1.2,0.8"/>
<line x1="128.424" y1="103.019" x2="105.656" y2="99.728" stroke="#8c8c8c" stroke-width="0.3" stroke-dasharray="1.2,0.8"/>
<line x1="151.191" y1="106.309" x2="128.424" y2="103.019" stroke="#8c8c8c" stroke-width="0.3" stroke-dasharray="1.2,0.8"/>
<line x1="173.958" y1="109.6" x2="151.191" y2="106.309" stroke="#8c8c8c" stroke-width="0.3" stroke-dasharray="1.2,0.8"/>
<line x1="85.332" y1="66.951" x2="69.438" y2="83.58" stroke="#8c8c8c" stroke-width="0.3" stroke-dasharray="1.2,0.8"/>
<line x1="101.227" y1="50.322" x2="85.332" y2="66.951" stroke="#8c8c8c" stroke-width="0.3" stroke-dasharray="1.2,0.8"/>
<line x1="117.122" y1="33.693" x2="101.227" y2="50.322" stroke="#8c8c8c" stroke-width="0.3" stroke-dasharray="1.2,0.8"/>
<line x1="133.017" y1="17.064" x2="117.122" y2="33.693" stroke="#8c8c8c" stroke-width="0.3" stroke-dasharray="1.2,0.8"/>
<line x1="47.143" y1="114.855" x2="63.685" y2="103.063" stroke="#141414" stroke-width="0.4"/>
<line x1="63.685" y1="123.378" x2="53.15" y2="143.827" stroke="#141414" stroke-width="0.4"/>
<line x1="53.15" y1="143.827" x2="42.614" y2="164.276" stroke="#141414" stroke-width="0.4"/>
<line x1="42.614" y1="164.276" x2="32.078" y2="184.725" stroke="#141414" stroke-width="0.4"/>
<line x1="32.078" y1="184.725" x2="21.542" y2="205.174" stroke="#141414" stroke-width="0.4"/>
<line x1="21.542" y1="205.174" x2="5.0" y2="216.966" stroke="#141414" stroke-width="0.4"/>
<line x1="190.5" y1="121.392" x2="171.296" y2="128.017" stroke="#141414" stroke-width="0.4"/>
<line x1="152.221" y1="10.438" x2="146.469" y2="29.922" stroke="#141414" stroke-width="0.4"/>
<line x1="5.0" y1="216.966" x2="5.0" y2="196.651" stroke="#141414" stroke-width="0.4"/>
<line x1="102.995" y1="118.145" x2="80.228" y2="114.855" stroke="#141414" stroke-width="0.4"/>
<line x1="125.762" y1="121.436" x2="102.995" y2="118.145" stroke="#141414" stroke-width="0.4"/>
<line x1="148.529" y1="124.727" x2="125.762" y2="121.436" stroke="#141414" stroke-width="0.4"/>
<line x1="171.296" y1="128.017" x2="148.529" y2="124.727" stroke="#141414" stroke-width="0.4"/>
<line x1="98.784" y1="79.808" x2="82.889" y2="96.438" stroke="#141414" stroke-width="0.4"/>
<line x1="114.679" y1="63.18" x2="98.784" y2="79.808" stroke="#141414" stroke-width="0.4"/>
<line x1="130.574" y1="46.551" x2="114.679" y2="63.18" stroke="#141414" stroke-width="0.4"/>
<line x1="146.469" y1="29.922" x2="130.574" y2="46.551" stroke="#141414" stroke-width="0.4"/>
<line x1="36.608" y1="135.304" x2="47.143" y2="114.855" stroke="#141414" stroke-width="0.4"/>
<line x1="26.072" y1="155.753" x2="36.608" y2="135.304" stroke="#141414" stroke-width="0.4"/>
<line x1="15.536" y1="176.202" x2="26.072" y2="155.753" stroke="#141414" stroke-width="0.4"/>
<line x1="5.0" y1="196.651" x2="15.536" y2="176.202" stroke="#141414" stroke-width="0.4"/>
<line x1="63.686" y1="103.063" x2="57.835" y2="98.158" stroke="#141414" stroke-width="0.4"/>
<line x1="57.835" y1="98.158" x2="61.861" y2="84.52" stroke="#141414" stroke-width="0.4"/>
<line x1="61.861" y1="84.52" x2="69.438" y2="83.58" stroke="#141414" stroke-width="0.4"/>
<line x1="63.686" y1="123.378" x2="60.624" y2="132.718" stroke="#141414" stroke-width="0.4"/>
<line x1="60.624" y1="132.718" x2="64.838" y2="140.898" stroke="#141414" stroke-width="0.4"/>
<line x1="64.838" y1="140.898" x2="74.221" y2="143.827" stroke="#141414" stroke-width="0.4"/>
<line x1="74.221" y1="143.827" x2="69.579" y2="150.1" stroke="#141414" stroke-width="0.4"/>
<line x1="69.579" y1="150.1" x2="76.954" y2="164.414" stroke="#141414" stroke-width="0.4"/>
<line x1="76.954" y1="164.414" x2="84.757" y2="164.276" stroke="#141414" stroke-width="0.4"/>
<line x1="84.757" y1="164.276" x2="80.115" y2="170.549" stroke="#141414" stroke-width="0.4"/>
<line x1="80.115" y1="170.549" x2="87.49" y2="184.863" stroke="#141414" stroke-width="0.4"/>
<line x1="87.49" y1="184.863" x2="95.293" y2="184.725" stroke="#141414" stroke-width="0.4"/>
<line x1="95.293" y1="184.725" x2="90.651" y2="190.998" stroke="#141414" stroke-width="0.4"/>
<line x1="90.651" y1="190.998" x2="98.026" y2="205.313" stroke="#141414" stroke-width="0.4"/>
<line x1="98.026" y1="205.313" x2="105.829" y2="205.174" stroke="#141414" stroke-width="0.4"/>
<line x1="105.829" y1="205.174" x2="104.247" y2="212.643" stroke="#141414" stroke-width="0.4"/>
<line x1="104.247" y1="212.643" x2="115.826" y2="220.897" stroke="#141414" stroke-width="0.4"/>
<line x1="115.826" y1="220.897" x2="122.371" y2="216.966" stroke="#141414" stroke-width="0.4"/>
<line x1="122.371" y1="216.966" x2="129.371" y2="213.919" stroke="#141414" stroke-width="0.4"/>
<line x1="129.371" y1="213.919" x2="129.371" y2="199.698" stroke="#141414" stroke-width="0.4"/>
<line x1="129.371" y1="199.698" x2="122.371" y2="196.651" stroke="#141414" stroke-width="0.4"/>
<line x1="190.5" y1="121.392" x2="192.082" y2="113.923" stroke="#141414" stroke-width="0.4"/>
<line x1="192.082" y1="113.923" x2="180.502" y2="105.669" stroke="#141414" stroke-width="0.4"/>
<line x1="180.502" y1="105.669" x2="173.958" y2="109.6" stroke="#141414" stroke-width="0.4"/>
<line x1="152.221" y1="10.438" x2="147.057" y2="4.815" stroke="#141414" stroke-width="0.4"/>
<line x1="147.057" y1="4.815" x2="133.615" y2="9.453" stroke="#141414" stroke-width="0.4"/>
<line x1="133.615" y1="9.453" x2="133.017" y2="17.064" stroke="#141414" stroke-width="0.4"/>
<line x1="80.228" y1="114.855" x2="89.611" y2="117.784" stroke="#141414" stroke-width="0.4"/>
<line x1="89.611" y1="117.784" x2="93.825" y2="125.963" stroke="#141414" stroke-width="0.4"/>
<line x1="93.825" y1="125.963" x2="90.763" y2="135.304" stroke="#141414" stroke-width="0.4"/>
<line x1="90.763" y1="135.304" x2="98.567" y2="135.165" stroke="#141414" stroke-width="0.4"/>
<line x1="98.567" y1="135.165" x2="105.942" y2="149.479" stroke="#141414" stroke-width="0.4"/>
<line x1="105.942" y1="149.479" x2="101.299" y2="155.753" stroke="#141414" stroke-width="0.4"/>
<line x1="101.299" y1="155.753" x2="109.102" y2="155.614" stroke="#141414" stroke-width="0.4"/>
<line x1="109.102" y1="155.614" x2="116.477" y2="169.929" stroke="#141414" stroke-width="0.4"/>
<line x1="116.477" y1="169.929" x2="111.835" y2="176.202" stroke="#141414" stroke-width="0.4"/>
<line x1="111.835" y1="176.202" x2="119.638" y2="176.063" stroke="#141414" stroke-width="0.4"/>
<line x1="119.638" y1="176.063" x2="127.013" y2="190.378" stroke="#141414" stroke-width="0.4"/>
<line x1="127.013" y1="190.378" x2="122.371" y2="196.651" stroke="#141414" stroke-width="0.4"/>
<line x1="82.889" y1="96.438" x2="90.721" y2="90.497" stroke="#141414" stroke-width="0.4"/>
<line x1="90.721" y1="90.497" x2="99.828" y2="91.813" stroke="#141414" stroke-width="0.4"/>
<line x1="99.828" y1="91.813" x2="105.656" y2="99.728" stroke="#141414" stroke-width="0.4"/>
<line x1="105.656" y1="99.728" x2="110.073" y2="93.294" stroke="#141414" stroke-width="0.4"/>
<line x1="110.073" y1="93.294" x2="126.01" y2="95.597" stroke="#141414" stroke-width="0.4"/>
<line x1="126.01" y1="95.597" x2="128.424" y2="103.019" stroke="#141414" stroke-width="0.4"/>
<line x1="128.424" y1="103.019" x2="132.84" y2="96.584" stroke="#141414" stroke-width="0.4"/>
<line x1="132.84" y1="96.584" x2="148.777" y2="98.888" stroke="#141414" stroke-width="0.4"/>
<line x1="148.777" y1="98.888" x2="151.191" y2="106.309" stroke="#141414" stroke-width="0.4"/>
<line x1="151.191" y1="106.309" x2="155.607" y2="99.875" stroke="#141414" stroke-width="0.4"/>
<line x1="155.607" y1="99.875" x2="171.544" y2="102.178" stroke="#141414" stroke-width="0.4"/>
<line x1="171.544" y1="102.178" x2="173.958" y2="109.6" stroke="#141414" stroke-width="0.4"/>
<line x1="69.438" y1="83.58" x2="66.762" y2="76.248" stroke="#141414" stroke-width="0.4"/>
<line x1="66.762" y1="76.248" x2="77.888" y2="64.608" stroke="#141414" stroke-width="0.4"/>
<line x1="77.888" y1="64.608" x2="85.332" y2="66.951" stroke="#141414" stroke-width="0.4"/>
<line x1="85.332" y1="66.951" x2="82.657" y2="59.619" stroke="#141414" stroke-width="0.4"/>
<line x1="82.657" y1="59.619" x2="93.783" y2="47.979" stroke="#141414" stroke-width="0.4"/>
<line x1="93.783" y1="47.979" x2="101.227" y2="50.322" stroke="#141414" stroke-width="0.4"/>
<line x1="101.227" y1="50.322" x2="98.551" y2="42.99" stroke="#141414" stroke-width="0.4"/>
<line x1="98.551" y1="42.99" x2="109.678" y2="31.35" stroke="#141414" stroke-width="0.4"/>
<line x1="109.678" y1="31.35" x2="117.122" y2="33.693" stroke="#141414" stroke-width="0.4"/>
<line x1="117.122" y1="33.693" x2="114.446" y2="26.362" stroke="#141414" stroke-width="0.4"/>
<line x1="114.446" y1="26.362" x2="125.573" y2="14.721" stroke="#141414" stroke-width="0.4"/>
<line x1="125.573" y1="14.721" x2="133.017" y2="17.064" stroke="#141414" stroke-width="0.4"/>
<circle cx="63.205" cy="92.33" r="2.31" fill="#ffe082" stroke="#464646" stroke-width="0.2"/>
<text x="63.205" y="93.42" font-size="3.13" text-anchor="middle" fill="#141414">1</text>
<circle cx="65.842" cy="135.205" r="2.31" fill="#ffe082" stroke="#464646" stroke-width="0.2"/>
<text x="65.842" y="136.30" font-size="3.13" text-anchor="middle" fill="#141414">2</text>
<circle cx="76.378" cy="155.654" r="2.31" fill="#ffe082" stroke="#464646" stroke-width="0.2"/>
<text x="76.378" y="156.75" font-size="3.13" text-anchor="middle" fill="#141414">3</text>
<circle cx="86.914" cy="176.103" r="2.31" fill="#ffe082" stroke="#464646" stroke-width="0.2"/>
<text x="86.914" y="177.20" font-size="3.13" text-anchor="middle" fill="#141414">4</text>
<circle cx="97.45" cy="196.552" r="2.31" fill="#ffe082" stroke="#464646" stroke-width="0.2"/>
<text x="97.45" y="197.65" font-size="3.13" text-anchor="middle" fill="#141414">5</text>
<circle cx="112.068" cy="213.92" r="2.31" fill="#ffe082" stroke="#464646" stroke-width="0.2"/>
<text x="112.068" y="215.01" font-size="3.13" text-anchor="middle" fill="#141414">6</text>
<circle cx="125.871" cy="206.808" r="2.31" fill="#ffe082" stroke="#464646" stroke-width="0.2"/>
<text x="125.871" y="207.90" font-size="3.13" text-anchor="middle" fill="#141414">7</text>
<circle cx="184.26" cy="112.646" r="2.31" fill="#ffe082" stroke="#464646" stroke-width="0.2"/>
<text x="184.26" y="113.74" font-size="3.13" text-anchor="middle" fill="#141414">8</text>
<circle cx="141.478" cy="10.442" r="2.31" fill="#ffe082" stroke="#464646" stroke-width="0.2"/>
<text x="141.478" y="11.54" font-size="3.13" text-anchor="middle" fill="#141414">9</text>
<circle cx="88.607" cy="123.476" r="2.31" fill="#ffe082" stroke="#464646" stroke-width="0.2"/>
<text x="88.607" y="124.57" font-size="3.13" text-anchor="middle" fill="#141414">10</text>
<circle cx="99.143" cy="143.925" r="2.31" fill="#ffe082" stroke="#464646" stroke-width="0.2"/>
<text x="99.143" y="145.02" font-size="3.13" text-anchor="middle" fill="#141414">11</text>
<circle cx="109.679" cy="164.374" r="2.31" fill="#ffe082" stroke="#464646" stroke-width="0.2"/>
<text x="109.679" y="165.47" font-size="3.13" text-anchor="middle" fill="#141414">12</text>
<circle cx="120.214" cy="184.823" r="2.31" fill="#ffe082" stroke="#464646" stroke-width="0.2"/>
<text x="120.214" y="185.92" font-size="3.13" text-anchor="middle" fill="#141414">13</text>
<circle cx="94.774" cy="94.619" r="2.31" fill="#ffe082" stroke="#464646" stroke-width="0.2"/>
<text x="94.774" y="95.71" font-size="3.13" text-anchor="middle" fill="#141414">14</text>
<circle cx="117.541" cy="97.909" r="2.31" fill="#ffe082" stroke="#464646" stroke-width="0.2"/>
<text x="117.541" y="99.00" font-size="3.13" text-anchor="middle" fill="#141414">15</text>
<circle cx="140.308" cy="101.2" r="2.31" fill="#ffe082" stroke="#464646" stroke-width="0.2"/>
<text x="140.308" y="102.29" font-size="3.13" text-anchor="middle" fill="#141414">16</text>
<circle cx="163.075" cy="104.491" r="2.31" fill="#ffe082" stroke="#464646" stroke-width="0.2"/>
<text x="163.075" y="105.59" font-size="3.13" text-anchor="middle" fill="#141414">17</text>
<circle cx="74.855" cy="72.847" r="2.31" fill="#99d9fa" stroke="#464646" stroke-width="0.2"/>
<text x="74.855" y="73.94" font-size="3.13" text-anchor="middle" fill="#141414">18</text>
<circle cx="90.75" cy="56.218" r="2.31" fill="#ffe082" stroke="#464646" stroke-width="0.2"/>
<text x="90.75" y="57.31" font-size="3.13" text-anchor="middle" fill="#141414">19</text>
<circle cx="106.645" cy="39.589" r="2.31" fill="#ffe082" stroke="#464646" stroke-width="0.2"/>
<text x="106.645" y="40.68" font-size="3.13" text-anchor="middle" fill="#141414">20</text>
<circle cx="122.539" cy="22.96" r="2.31" fill="#ffe082" stroke="#464646" stroke-width="0.2"/>
<text x="122.539" y="24.05" font-size="3.13" text-anchor="middle" fill="#141414">21</text>
<circle cx="38.61" cy="144.961" r="3.86" fill="#eaf1fe" stroke="#2e78e6" stroke-width="0.3"/>
<text x="38.61" y="146.47" font-size="4.36" text-anchor="middle" fill="#14306e" font-weight="bold">1</text>
<polygon points="22.44,239.601 19.38,232.761 28.198,223.944 35.037,227.004" fill="rgb(216,216,216)"/>
<polygon points="7.629,267.008 6.992,275.401 24.16,288.847 32.155,286.218" fill="rgb(216,216,216)"/>
<polygon points="35.037,252.198 41.876,255.258 50.694,246.44 47.634,239.601" fill="rgb(216,216,216)"/>
<polygon points="47.634,239.601 50.694,232.762 41.876,223.944 35.037,227.004" fill="rgb(216,216,216)"/>
<polygon points="22.44,239.601 19.38,232.761 28.198,223.944 35.037,227.004" fill="#99d9fa"/>
<line x1="7.629" y1="267.008" x2="22.44" y2="239.601" stroke="#8c8c8c" stroke-width="0.3" stroke-dasharray="1.2,0.8"/>
<line x1="35.037" y1="252.198" x2="22.44" y2="239.601" stroke="#8c8c8c" stroke-width="0.3" stroke-dasharray="1.2,0.8"/>
<line x1="35.037" y1="252.198" x2="7.629" y2="267.008" stroke="#8c8c8c" stroke-width="0.3" stroke-dasharray="1.2,0.8"/>
<line x1="38.671" y1="269.638" x2="7.629" y2="267.008" stroke="#8c8c8c" stroke-width="0.3" stroke-dasharray="1.2,0.8"/>
<line x1="35.037" y1="227.004" x2="22.44" y2="239.601" stroke="#8c8c8c" stroke-width="0.3" stroke-dasharray="1.2,0.8"/>
<line x1="32.155" y1="286.218" x2="7.629" y2="267.008" stroke="#8c8c8c" stroke-width="0.3" stroke-dasharray="1.2,0.8"/>
<line x1="47.634" y1="239.601" x2="35.037" y2="252.198" stroke="#8c8c8c" stroke-width="0.3" stroke-dasharray="1.2,0.8"/>
<line x1="35.037" y1="227.004" x2="47.634" y2="239.601" stroke="#8c8c8c" stroke-width="0.3" stroke-dasharray="1.2,0.8"/>
<line x1="5.0" y1="235.966" x2="22.44" y2="239.601" stroke="#141414" stroke-width="0.4"/>
<line x1="7.629" y1="267.008" x2="5.0" y2="235.966" stroke="#141414" stroke-width="0.4"/>
<line x1="35.037" y1="252.198" x2="38.671" y2="269.638" stroke="#141414" stroke-width="0.4"/>
<line x1="38.671" y1="269.638" x2="32.155" y2="286.218" stroke="#141414" stroke-width="0.4"/>
<line x1="22.44" y1="239.601" x2="19.38" y2="232.761" stroke="#141414" stroke-width="0.4"/>
<line x1="19.38" y1="232.761" x2="28.198" y2="223.944" stroke="#141414" stroke-width="0.4"/>
<line x1="28.198" y1="223.944" x2="35.037" y2="227.004" stroke="#141414" stroke-width="0.4"/>
<line x1="7.629" y1="267.008" x2="6.992" y2="275.401" stroke="#141414" stroke-width="0.4"/>
<line x1="6.992" y1="275.401" x2="24.16" y2="288.847" stroke="#141414" stroke-width="0.4"/>
<line x1="24.16" y1="288.847" x2="32.155" y2="286.218" stroke="#141414" stroke-width="0.4"/>
<line x1="35.037" y1="252.198" x2="41.876" y2="255.258" stroke="#141414" stroke-width="0.4"/>
<line x1="41.876" y1="255.258" x2="50.694" y2="246.44" stroke="#141414" stroke-width="0.4"/>
<line x1="50.694" y1="246.44" x2="47.634" y2="239.601" stroke="#141414" stroke-width="0.4"/>
<line x1="47.634" y1="239.601" x2="50.694" y2="232.762" stroke="#141414" stroke-width="0.4"/>
<line x1="50.694" y1="232.762" x2="41.876" y2="223.944" stroke="#141414" stroke-width="0.4"/>
<line x1="41.876" y1="223.944" x2="35.037" y2="227.004" stroke="#141414" stroke-width="0.4"/>
<circle cx="26.264" cy="230.827" r="2.31" fill="#99d9fa" stroke="#464646" stroke-width="0.2"/>
<text x="26.264" y="231.92" font-size="3.13" text-anchor="middle" fill="#141414">22</text>
<circle cx="17.734" cy="279.368" r="2.31" fill="#ffe082" stroke="#464646" stroke-width="0.2"/>
<text x="17.734" y="280.46" font-size="3.13" text-anchor="middle" fill="#141414">23</text>
<circle cx="43.81" cy="248.374" r="2.31" fill="#ffe082" stroke="#464646" stroke-width="0.2"/>
<text x="43.81" y="249.47" font-size="3.13" text-anchor="middle" fill="#141414">24</text>
<circle cx="43.81" cy="230.827" r="2.31" fill="#ffe082" stroke="#464646" stroke-width="0.2"/>
<text x="43.81" y="231.92" font-size="3.13" text-anchor="middle" fill="#141414">25</text>
<circle cx="26.152" cy="274.288" r="4.55" fill="#eaf1fe" stroke="#2e78e6" stroke-width="0.3"/>
<text x="26.152" y="276.07" font-size="5.15" text-anchor="middle" fill="#14306e" font-weight="bold">2</text>
<polygon points="76.295,230.812 82.609,231.463 84.206,239.824 78.576,242.756" fill="rgb(216,216,216)"/>
<polygon points="64.135,230.812 57.732,227.767 53.681,230.459 54.008,237.542" fill="rgb(216,216,216)"/>
<polygon points="54.008,237.542 57.656,243.621 62.52,243.621 66.168,237.542" fill="rgb(216,216,216)"/>
<polygon points="61.457,248.752 67.86,251.797 71.911,249.105 71.585,242.022" fill="rgb(216,216,216)"/>
<polygon points="73.866,253.966 80.177,254.64 83.475,246.792 78.576,242.756" fill="rgb(216,216,216)"/>
<polygon points="76.295,230.812 82.609,231.463 84.206,239.824 78.576,242.756" fill="#99d9fa"/>
<line x1="64.135" y1="230.812" x2="76.295" y2="230.812" stroke="#8c8c8c" stroke-width="0.3" stroke-dasharray="1.2,0.8"/>
<line x1="76.295" y1="230.812" x2="66.168" y2="237.542" stroke="#8c8c8c" stroke-width="0.3" stroke-dasharray="1.2,0.8"/>
<line x1="76.295" y1="230.812" x2="71.585" y2="242.022" stroke="#8c8c8c" stroke-width="0.3" stroke-dasharray="1.2,0.8"/>
<line x1="66.168" y1="237.542" x2="64.135" y2="230.812" stroke="#8c8c8c" stroke-width="0.3" stroke-dasharray="1.2,0.8"/>
<line x1="64.135" y1="230.812" x2="66.168" y2="224.082" stroke="#8c8c8c" stroke-width="0.3" stroke-dasharray="1.2,0.8"/>
<line x1="71.585" y1="242.022" x2="66.168" y2="237.542" stroke="#8c8c8c" stroke-width="0.3" stroke-dasharray="1.2,0.8"/>
<line x1="78.576" y1="242.756" x2="71.585" y2="242.022" stroke="#8c8c8c" stroke-width="0.3" stroke-dasharray="1.2,0.8"/>
<line x1="78.576" y1="242.756" x2="76.295" y2="230.812" stroke="#8c8c8c" stroke-width="0.3" stroke-dasharray="1.2,0.8"/>
<line x1="54.008" y1="237.542" x2="64.135" y2="230.812" stroke="#8c8c8c" stroke-width="0.3" stroke-dasharray="1.2,0.8"/>
<line x1="66.168" y1="237.542" x2="54.008" y2="237.542" stroke="#8c8c8c" stroke-width="0.3" stroke-dasharray="1.2,0.8"/>
<line x1="71.585" y1="242.022" x2="61.457" y2="248.752" stroke="#8c8c8c" stroke-width="0.3" stroke-dasharray="1.2,0.8"/>
<line x1="78.576" y1="242.756" x2="73.866" y2="253.966" stroke="#8c8c8c" stroke-width="0.3" stroke-dasharray="1.2,0.8"/>
<line x1="66.168" y1="224.082" x2="76.295" y2="230.812" stroke="#141414" stroke-width="0.4"/>
<line x1="64.135" y1="230.812" x2="54.008" y2="224.082" stroke="#141414" stroke-width="0.4"/>
<line x1="61.457" y1="248.752" x2="66.168" y2="237.542" stroke="#141414" stroke-width="0.4"/>
<line x1="73.866" y1="253.966" x2="71.585" y2="242.022" stroke="#141414" stroke-width="0.4"/>
<line x1="54.008" y1="224.082" x2="66.168" y2="224.082" stroke="#141414" stroke-width="0.4"/>
<line x1="76.295" y1="230.812" x2="82.609" y2="231.463" stroke="#141414" stroke-width="0.4"/>
<line x1="82.609" y1="231.463" x2="84.206" y2="239.824" stroke="#141414" stroke-width="0.4"/>
<line x1="84.206" y1="239.824" x2="78.576" y2="242.756" stroke="#141414" stroke-width="0.4"/>
<line x1="64.135" y1="230.812" x2="57.732" y2="227.767" stroke="#141414" stroke-width="0.4"/>
<line x1="57.732" y1="227.767" x2="53.681" y2="230.459" stroke="#141414" stroke-width="0.4"/>
<line x1="53.681" y1="230.459" x2="54.008" y2="237.542" stroke="#141414" stroke-width="0.4"/>
<line x1="54.008" y1="237.542" x2="57.656" y2="243.621" stroke="#141414" stroke-width="0.4"/>
<line x1="57.656" y1="243.621" x2="62.52" y2="243.621" stroke="#141414" stroke-width="0.4"/>
<line x1="62.52" y1="243.621" x2="66.168" y2="237.542" stroke="#141414" stroke-width="0.4"/>
<line x1="61.457" y1="248.752" x2="67.86" y2="251.797" stroke="#141414" stroke-width="0.4"/>
<line x1="67.86" y1="251.797" x2="71.911" y2="249.105" stroke="#141414" stroke-width="0.4"/>
<line x1="71.911" y1="249.105" x2="71.585" y2="242.022" stroke="#141414" stroke-width="0.4"/>
<line x1="73.866" y1="253.966" x2="80.177" y2="254.64" stroke="#141414" stroke-width="0.4"/>
<line x1="80.177" y1="254.64" x2="83.475" y2="246.792" stroke="#141414" stroke-width="0.4"/>
<line x1="83.475" y1="246.792" x2="78.576" y2="242.756" stroke="#141414" stroke-width="0.4"/>
<circle cx="80.422" cy="236.214" r="2.31" fill="#99d9fa" stroke="#464646" stroke-width="0.2"/>
<text x="80.422" y="237.31" font-size="3.13" text-anchor="middle" fill="#141414">34</text>
<circle cx="57.389" cy="231.645" r="2.31" fill="#ffe082" stroke="#464646" stroke-width="0.2"/>
<text x="57.389" y="232.74" font-size="3.13" text-anchor="middle" fill="#141414">35</text>
<circle cx="60.088" cy="240.582" r="2.31" fill="#ffe082" stroke="#464646" stroke-width="0.2"/>
<text x="60.088" y="241.68" font-size="3.13" text-anchor="middle" fill="#141414">36</text>
<circle cx="68.203" cy="247.919" r="2.31" fill="#ffe082" stroke="#464646" stroke-width="0.2"/>
<text x="68.203" y="249.01" font-size="3.13" text-anchor="middle" fill="#141414">37</text>
<circle cx="79.023" cy="249.539" r="2.31" fill="#ffe082" stroke="#464646" stroke-width="0.2"/>
<text x="79.023" y="250.63" font-size="3.13" text-anchor="middle" fill="#141414">38</text>
<circle cx="68.866" cy="233.055" r="1.79" fill="#eaf1fe" stroke="#2e78e6" stroke-width="0.3"/>
<text x="68.866" y="233.76" font-size="2.60" text-anchor="middle" fill="#14306e" font-weight="bold">5</text>
<polygon points="109.82,230.812 116.134,231.463 117.731,239.824 112.101,242.756" fill="rgb(216,216,216)"/>
<polygon points="97.66,230.812 91.257,227.767 87.206,230.459 87.533,237.542" fill="rgb(216,216,216)"/>
<polygon points="87.533,237.542 91.18,243.621 96.044,243.621 99.692,237.542" fill="rgb(216,216,216)"/>
<polygon points="94.982,248.752 101.385,251.797 105.436,249.105 105.11,242.022" fill="rgb(216,216,216)"/>
<polygon points="107.39,253.966 113.702,254.64 116.999,246.792 112.101,242.756" fill="rgb(216,216,216)"/>
<polygon points="109.82,230.812 116.134,231.463 117.731,239.824 112.101,242.756" fill="#99d9fa"/>
<line x1="97.66" y1="230.812" x2="109.82" y2="230.812" stroke="#8c8c8c" stroke-width="0.3" stroke-dasharray="1.2,0.8"/>
<line x1="109.82" y1="230.812" x2="99.692" y2="237.542" stroke="#8c8c8c" stroke-width="0.3" stroke-dasharray="1.2,0.8"/>
<line x1="109.82" y1="230.812" x2="105.109" y2="242.022" stroke="#8c8c8c" stroke-width="0.3" stroke-dasharray="1.2,0.8"/>
<line x1="99.692" y1="237.542" x2="97.66" y2="230.812" stroke="#8c8c8c" stroke-width="0.3" stroke-dasharray="1.2,0.8"/>
<line x1="97.66" y1="230.812" x2="99.692" y2="224.082" stroke="#8c8c8c" stroke-width="0.3" stroke-dasharray="1.2,0.8"/>
<line x1="105.109" y1="242.022" x2="99.692" y2="237.542" stroke="#8c8c8c" stroke-width="0.3" stroke-dasharray="1.2,0.8"/>
<line x1="112.101" y1="242.756" x2="105.109" y2="242.022" stroke="#8c8c8c" stroke-width="0.3" stroke-dasharray="1.2,0.8"/>
<line x1="112.101" y1="242.756" x2="109.82" y2="230.812" stroke="#8c8c8c" stroke-width="0.3" stroke-dasharray="1.2,0.8"/>
<line x1="87.533" y1="237.542" x2="97.66" y2="230.812" stroke="#8c8c8c" stroke-width="0.3" stroke-dasharray="1.2,0.8"/>
<line x1="99.692" y1="237.542" x2="87.533" y2="237.542" stroke="#8c8c8c" stroke-width="0.3" stroke-dasharray="1.2,0.8"/>
<line x1="105.11" y1="242.022" x2="94.982" y2="248.752" stroke="#8c8c8c" stroke-width="0.3" stroke-dasharray="1.2,0.8"/>
<line x1="112.101" y1="242.756" x2="107.39" y2="253.966" stroke="#8c8c8c" stroke-width="0.3" stroke-dasharray="1.2,0.8"/>
<line x1="99.692" y1="224.082" x2="109.82" y2="230.812" stroke="#141414" stroke-width="0.4"/>
<line x1="97.66" y1="230.812" x2="87.533" y2="224.082" stroke="#141414" stroke-width="0.4"/>
<line x1="94.982" y1="248.752" x2="99.692" y2="237.542" stroke="#141414" stroke-width="0.4"/>
<line x1="107.391" y1="253.966" x2="105.109" y2="242.022" stroke="#141414" stroke-width="0.4"/>
<line x1="87.533" y1="224.082" x2="99.692" y2="224.082" stroke="#141414" stroke-width="0.4"/>
<line x1="109.82" y1="230.812" x2="116.134" y2="231.463" stroke="#141414" stroke-width="0.4"/>
<line x1="116.134" y1="231.463" x2="117.731" y2="239.824" stroke="#141414" stroke-width="0.4"/>
<line x1="117.731" y1="239.824" x2="112.101" y2="242.756" stroke="#141414" stroke-width="0.4"/>
<line x1="97.66" y1="230.812" x2="91.257" y2="227.767" stroke="#141414" stroke-width="0.4"/>
<line x1="91.257" y1="227.767" x2="87.206" y2="230.459" stroke="#141414" stroke-width="0.4"/>
<line x1="87.206" y1="230.459" x2="87.533" y2="237.542" stroke="#141414" stroke-width="0.4"/>
<line x1="87.533" y1="237.542" x2="91.18" y2="243.621" stroke="#141414" stroke-width="0.4"/>
<line x1="91.18" y1="243.621" x2="96.044" y2="243.621" stroke="#141414" stroke-width="0.4"/>
<line x1="96.044" y1="243.621" x2="99.692" y2="237.542" stroke="#141414" stroke-width="0.4"/>
<line x1="94.982" y1="248.752" x2="101.385" y2="251.797" stroke="#141414" stroke-width="0.4"/>
<line x1="101.385" y1="251.797" x2="105.436" y2="249.105" stroke="#141414" stroke-width="0.4"/>
<line x1="105.436" y1="249.105" x2="105.11" y2="242.022" stroke="#141414" stroke-width="0.4"/>
<line x1="107.39" y1="253.966" x2="113.702" y2="254.64" stroke="#141414" stroke-width="0.4"/>
<line x1="113.702" y1="254.64" x2="116.999" y2="246.792" stroke="#141414" stroke-width="0.4"/>
<line x1="116.999" y1="246.792" x2="112.101" y2="242.756" stroke="#141414" stroke-width="0.4"/>
<circle cx="113.946" cy="236.214" r="2.31" fill="#99d9fa" stroke="#464646" stroke-width="0.2"/>
<text x="113.946" y="237.31" font-size="3.13" text-anchor="middle" fill="#141414">39</text>
<circle cx="90.914" cy="231.645" r="2.31" fill="#ffe082" stroke="#464646" stroke-width="0.2"/>
<text x="90.914" y="232.74" font-size="3.13" text-anchor="middle" fill="#141414">40</text>
<circle cx="93.612" cy="240.582" r="2.31" fill="#ffe082" stroke="#464646" stroke-width="0.2"/>
<text x="93.612" y="241.68" font-size="3.13" text-anchor="middle" fill="#141414">41</text>
<circle cx="101.728" cy="247.919" r="2.31" fill="#ffe082" stroke="#464646" stroke-width="0.2"/>
<text x="101.728" y="249.01" font-size="3.13" text-anchor="middle" fill="#141414">42</text>
<circle cx="112.548" cy="249.539" r="2.31" fill="#ffe082" stroke="#464646" stroke-width="0.2"/>
<text x="112.548" y="250.63" font-size="3.13" text-anchor="middle" fill="#141414">43</text>
<circle cx="102.391" cy="233.055" r="1.79" fill="#eaf1fe" stroke="#2e78e6" stroke-width="0.3"/>
<text x="102.391" y="233.76" font-size="2.60" text-anchor="middle" fill="#14306e" font-weight="bold">6</text>
<text x="205.0" y="295.0" font-size="3.2" text-anchor="end" fill="#737373" font-family="sans-serif">1 / 3</text>
<g pointer-events="none"><text x="105.0" y="83.2" text-anchor="middle" font-family="sans-serif" font-size="12.4" fill="#9aa0a6" fill-opacity="0.3" transform="rotate(-28 105.0 83.2)">papercraft.kr</text><text x="105.0" y="148.5" text-anchor="middle" font-family="sans-serif" font-size="12.4" fill="#9aa0a6" fill-opacity="0.3" transform="rotate(-28 105.0 148.5)">papercraft.kr</text><text x="105.0" y="213.8" text-anchor="middle" font-family="sans-serif" font-size="12.4" fill="#9aa0a6" fill-opacity="0.3" transform="rotate(-28 105.0 213.8)">papercraft.kr</text></g></svg>
