<svg xmlns="http://www.w3.org/2000/svg" xmlns:xlink="http://www.w3.org/1999/xlink" width="210.00mm" height="297.00mm" viewBox="0 0 210.00 297.00">
<rect x="0" y="0" width="210.00" height="297.00" fill="#ffffff" stroke="#cccccc" stroke-width="0.2"/>
<polygon points="148.533,241.407 133.516,238.735 83.279,200.319 76.766,186.527" fill="rgb(216,216,216)"/>
<polygon points="190.5,186.527 183.987,172.734 133.751,134.318 118.734,131.646" fill="rgb(216,216,216)"/>
<polygon points="101.847,5.0 88.055,11.513 49.639,61.749 46.967,76.766" fill="rgb(216,216,216)"/>
<polygon points="190.5,186.527 183.987,172.734 133.751,134.318 118.734,131.646" fill="#99d9fa"/>
<line x1="76.766" y1="186.527" x2="118.734" y2="131.647" stroke="#8c8c8c" stroke-width="0.3" stroke-dasharray="1.2,0.8"/>
<line x1="118.734" y1="131.647" x2="46.967" y2="76.766" stroke="#8c8c8c" stroke-width="0.3" stroke-dasharray="1.2,0.8"/>
<line x1="76.766" y1="186.527" x2="148.533" y2="241.407" stroke="#8c8c8c" stroke-width="0.3" stroke-dasharray="1.2,0.8"/>
<line x1="118.734" y1="131.646" x2="190.5" y2="186.527" stroke="#8c8c8c" stroke-width="0.3" stroke-dasharray="1.2,0.8"/>
<line x1="46.967" y1="76.766" x2="101.847" y2="5.0" stroke="#8c8c8c" stroke-width="0.3" stroke-dasharray="1.2,0.8"/>
<line x1="190.5" y1="186.527" x2="148.533" y2="241.407" stroke="#141414" stroke-width="0.4"/>
<line x1="101.847" y1="5.0" x2="173.614" y2="59.88" stroke="#141414" stroke-width="0.4"/>
<line x1="173.614" y1="59.88" x2="118.734" y2="131.647" stroke="#141414" stroke-width="0.4"/>
<line x1="76.766" y1="186.527" x2="5.0" y2="131.647" stroke="#141414" stroke-width="0.4"/>
<line x1="5.0" y1="131.647" x2="46.967" y2="76.766" stroke="#141414" stroke-width="0.4"/>
<line x1="148.533" y1="241.407" x2="133.516" y2="238.735" stroke="#141414" stroke-width="0.4"/>
<line x1="133.516" y1="238.735" x2="83.279" y2="200.319" stroke="#141414" stroke-width="0.4"/>
<line x1="83.279" y1="200.319" x2="76.766" y2="186.527" stroke="#141414" stroke-width="0.4"/>
<line x1="190.5" y1="186.527" x2="183.987" y2="172.734" stroke="#141414" stroke-width="0.4"/>
<line x1="183.987" y1="172.734" x2="133.751" y2="134.318" stroke="#141414" stroke-width="0.4"/>
<line x1="133.751" y1="134.318" x2="118.734" y2="131.646" stroke="#141414" stroke-width="0.4"/>
<line x1="101.847" y1="5.0" x2="88.055" y2="11.513" stroke="#141414" stroke-width="0.4"/>
<line x1="88.055" y1="11.513" x2="49.639" y2="61.749" stroke="#141414" stroke-width="0.4"/>
<line x1="49.639" y1="61.749" x2="46.967" y2="76.766" stroke="#141414" stroke-width="0.4"/>
<circle cx="110.523" cy="216.747" r="2.81" fill="#ffe082" stroke="#464646" stroke-width="0.2"/>
<text x="110.523" y="218.08" font-size="3.81" text-anchor="middle" fill="#141414">6</text>
<circle cx="156.743" cy="156.306" r="2.81" fill="#99d9fa" stroke="#464646" stroke-width="0.2"/>
<text x="156.743" y="157.64" font-size="3.81" text-anchor="middle" fill="#141414">7</text>
<circle cx="71.627" cy="38.757" r="2.81" fill="#ffe082" stroke="#464646" stroke-width="0.2"/>
<text x="71.627" y="40.09" font-size="3.81" text-anchor="middle" fill="#141414">8</text>
<circle cx="107.476" cy="47.216" r="4.60" fill="#eaf1fe" stroke="#2e78e6" stroke-width="0.3"/>
<text x="107.476" y="49.02" font-size="5.20" text-anchor="middle" fill="#14306e" font-weight="bold">2</text>
<text x="205.0" y="295.0" font-size="3.2" text-anchor="end" fill="#737373" font-family="sans-serif">2 / 3</text>
</svg>
