<svg xmlns="http://www.w3.org/2000/svg" xmlns:xlink="http://www.w3.org/1999/xlink" width="210.00mm" height="297.00mm" viewBox="0 0 210.00 297.00">
<rect x="0" y="0" width="210.00" height="297.00" fill="#ffffff" stroke="#cccccc" stroke-width="0.2"/>
<polygon points="47.41,281.1 52.371,286.147 74.766,285.446 79.402,280.098" fill="rgb(216,216,216)"/>
<polygon points="47.41,281.1 42.21,277.29 42.21,259.513 47.41,255.704" fill="rgb(216,216,216)"/>
<polygon points="79.402,280.098 87.701,273.005 103.777,231.193 102.369,220.368" fill="rgb(216,216,216)"/>
<polygon points="40.949,246.254 32.9,243.177 15.925,215.969 16.7,207.386" fill="rgb(216,216,216)"/>
<polygon points="16.7,207.386 11.002,205.484 8.186,191.736 12.677,187.747" fill="rgb(216,216,216)"/>
<polygon points="102.369,220.368 109.048,216.543 117.097,191.318 113.868,184.332" fill="rgb(216,216,216)"/>
<polygon points="113.868,184.332 118.708,164.094 117.031,70.078 111.473,50.024" fill="rgb(216,216,216)"/>
<polygon points="11.34,60.903 7.328,54.66 12.36,30.466 18.529,26.34" fill="rgb(216,216,216)"/>
<polygon points="36.548,52.265 38.115,45.409 25.502,27.261 18.529,26.34" fill="rgb(216,216,216)"/>
<line x1="47.41" y1="255.704" x2="79.402" y2="280.098" stroke="#8c8c8c" stroke-width="0.3" stroke-dasharray="1.2,0.8"/>
<line x1="102.369" y1="220.368" x2="78.544" y2="260.294" stroke="#8c8c8c" stroke-width="0.3" stroke-dasharray="1.2,0.8"/>
<line x1="40.949" y1="246.254" x2="102.369" y2="220.368" stroke="#8c8c8c" stroke-width="0.3" stroke-dasharray="1.2,0.8"/>
<line x1="16.7" y1="207.386" x2="102.369" y2="220.368" stroke="#8c8c8c" stroke-width="0.3" stroke-dasharray="1.2,0.8"/>
<line x1="113.868" y1="184.332" x2="12.677" y2="187.747" stroke="#8c8c8c" stroke-width="0.3" stroke-dasharray="1.2,0.8"/>
<line x1="36.547" y1="52.265" x2="11.34" y2="60.903" stroke="#8c8c8c" stroke-width="0.3" stroke-dasharray="1.2,0.8"/>
<line x1="36.547" y1="52.265" x2="111.473" y2="50.025" stroke="#8c8c8c" stroke-width="0.3" stroke-dasharray="1.2,0.8"/>
<line x1="78.544" y1="260.294" x2="79.402" y2="280.098" stroke="#8c8c8c" stroke-width="0.3" stroke-dasharray="1.2,0.8"/>
<line x1="79.402" y1="280.098" x2="47.41" y2="281.1" stroke="#8c8c8c" stroke-width="0.3" stroke-dasharray="1.2,0.8"/>
<line x1="47.41" y1="255.704" x2="47.41" y2="281.1" stroke="#8c8c8c" stroke-width="0.3" stroke-dasharray="1.2,0.8"/>
<line x1="102.369" y1="220.368" x2="79.402" y2="280.098" stroke="#8c8c8c" stroke-width="0.3" stroke-dasharray="1.2,0.8"/>
<line x1="16.7" y1="207.386" x2="40.949" y2="246.254" stroke="#8c8c8c" stroke-width="0.3" stroke-dasharray="1.2,0.8"/>
<line x1="12.677" y1="187.747" x2="16.7" y2="207.386" stroke="#8c8c8c" stroke-width="0.3" stroke-dasharray="1.2,0.8"/>
<line x1="113.868" y1="184.332" x2="102.369" y2="220.368" stroke="#8c8c8c" stroke-width="0.3" stroke-dasharray="1.2,0.8"/>
<line x1="111.473" y1="50.024" x2="113.868" y2="184.332" stroke="#8c8c8c" stroke-width="0.3" stroke-dasharray="1.2,0.8"/>
<line x1="18.529" y1="26.34" x2="11.34" y2="60.903" stroke="#8c8c8c" stroke-width="0.3" stroke-dasharray="1.2,0.8"/>
<line x1="18.529" y1="26.34" x2="36.548" y2="52.265" stroke="#8c8c8c" stroke-width="0.3" stroke-dasharray="1.2,0.8"/>
<line x1="47.41" y1="255.704" x2="78.544" y2="260.294" stroke="#141414" stroke-width="0.4"/>
<line x1="78.544" y1="260.294" x2="40.949" y2="246.254" stroke="#141414" stroke-width="0.4"/>
<line x1="12.677" y1="187.747" x2="11.34" y2="60.903" stroke="#141414" stroke-width="0.4"/>
<line x1="88.158" y1="5.0" x2="111.473" y2="50.025" stroke="#141414" stroke-width="0.4"/>
<line x1="36.547" y1="52.265" x2="88.158" y2="5.0" stroke="#141414" stroke-width="0.4"/>
<line x1="47.41" y1="281.1" x2="52.371" y2="286.147" stroke="#141414" stroke-width="0.4"/>
<line x1="52.371" y1="286.147" x2="74.766" y2="285.446" stroke="#141414" stroke-width="0.4"/>
<line x1="74.766" y1="285.446" x2="79.402" y2="280.098" stroke="#141414" stroke-width="0.4"/>
<line x1="47.41" y1="281.1" x2="42.21" y2="277.29" stroke="#141414" stroke-width="0.4"/>
<line x1="42.21" y1="277.29" x2="42.21" y2="259.513" stroke="#141414" stroke-width="0.4"/>
<line x1="42.21" y1="259.513" x2="47.41" y2="255.704" stroke="#141414" stroke-width="0.4"/>
<line x1="79.402" y1="280.098" x2="87.701" y2="273.005" stroke="#141414" stroke-width="0.4"/>
<line x1="87.701" y1="273.005" x2="103.777" y2="231.193" stroke="#141414" stroke-width="0.4"/>
<line x1="103.777" y1="231.193" x2="102.369" y2="220.368" stroke="#141414" stroke-width="0.4"/>
<line x1="40.949" y1="246.254" x2="32.9" y2="243.177" stroke="#141414" stroke-width="0.4"/>
<line x1="32.9" y1="243.177" x2="15.925" y2="215.969" stroke="#141414" stroke-width="0.4"/>
<line x1="15.925" y1="215.969" x2="16.7" y2="207.386" stroke="#141414" stroke-width="0.4"/>
<line x1="16.7" y1="207.386" x2="11.002" y2="205.484" stroke="#141414" stroke-width="0.4"/>
<line x1="11.002" y1="205.484" x2="8.186" y2="191.736" stroke="#141414" stroke-width="0.4"/>
<line x1="8.186" y1="191.736" x2="12.677" y2="187.747" stroke="#141414" stroke-width="0.4"/>
<line x1="102.369" y1="220.368" x2="109.048" y2="216.543" stroke="#141414" stroke-width="0.4"/>
<line x1="109.048" y1="216.543" x2="117.097" y2="191.318" stroke="#141414" stroke-width="0.4"/>
<line x1="117.097" y1="191.318" x2="113.868" y2="184.332" stroke="#141414" stroke-width="0.4"/>
<line x1="113.868" y1="184.332" x2="118.708" y2="164.094" stroke="#141414" stroke-width="0.4"/>
<line x1="118.708" y1="164.094" x2="117.031" y2="70.078" stroke="#141414" stroke-width="0.4"/>
<line x1="117.031" y1="70.078" x2="111.473" y2="50.024" stroke="#141414" stroke-width="0.4"/>
<line x1="11.34" y1="60.903" x2="7.328" y2="54.66" stroke="#141414" stroke-width="0.4"/>
<line x1="7.328" y1="54.66" x2="12.36" y2="30.466" stroke="#141414" stroke-width="0.4"/>
<line x1="12.36" y1="30.466" x2="18.529" y2="26.34" stroke="#141414" stroke-width="0.4"/>
<line x1="36.548" y1="52.265" x2="38.115" y2="45.409" stroke="#141414" stroke-width="0.4"/>
<line x1="38.115" y1="45.409" x2="25.502" y2="27.261" stroke="#141414" stroke-width="0.4"/>
<line x1="25.502" y1="27.261" x2="18.529" y2="26.34" stroke="#141414" stroke-width="0.4"/>
<circle cx="63.487" cy="283.198" r="2.29" fill="#ffe082" stroke="#464646" stroke-width="0.2"/>
<text x="63.487" y="283.98" font-size="2.24" text-anchor="middle" fill="#141414">1</text>
<circle cx="44.81" cy="268.402" r="2.29" fill="#ffe082" stroke="#464646" stroke-width="0.2"/>
<text x="44.81" y="269.19" font-size="2.24" text-anchor="middle" fill="#141414">3</text>
<circle cx="93.312" cy="251.166" r="2.29" fill="#ffe082" stroke="#464646" stroke-width="0.2"/>
<text x="93.312" y="251.95" font-size="2.24" text-anchor="middle" fill="#141414">7</text>
<circle cx="26.618" cy="228.196" r="2.29" fill="#ffe082" stroke="#464646" stroke-width="0.2"/>
<text x="26.618" y="228.98" font-size="2.24" text-anchor="middle" fill="#141414">11</text>
<circle cx="12.141" cy="198.088" r="2.29" fill="#ffe082" stroke="#464646" stroke-width="0.2"/>
<text x="12.141" y="198.87" font-size="2.24" text-anchor="middle" fill="#141414">12</text>
<circle cx="110.595" cy="203.14" r="2.29" fill="#ffe082" stroke="#464646" stroke-width="0.2"/>
<text x="110.595" y="203.92" font-size="2.24" text-anchor="middle" fill="#141414">16</text>
<circle cx="115.27" cy="117.132" r="2.29" fill="#ffe082" stroke="#464646" stroke-width="0.2"/>
<text x="115.27" y="117.92" font-size="2.24" text-anchor="middle" fill="#141414">50</text>
<circle cx="12.389" cy="43.092" r="2.29" fill="#ffe082" stroke="#464646" stroke-width="0.2"/>
<text x="12.389" y="43.88" font-size="2.24" text-anchor="middle" fill="#141414">62</text>
<circle cx="29.673" cy="37.819" r="2.29" fill="#ffe082" stroke="#464646" stroke-width="0.2"/>
<text x="29.673" y="38.60" font-size="2.24" text-anchor="middle" fill="#141414">77</text>
<circle cx="79.339" cy="140.701" r="4.60" fill="#eaf1fe" stroke="#2e78e6" stroke-width="0.3"/>
<text x="79.339" y="142.50" font-size="5.20" text-anchor="middle" fill="#14306e" font-weight="bold">8</text>
<text x="205.0" y="295.0" font-size="3.2" text-anchor="end" fill="#737373" font-family="sans-serif">5 / 13</text>
<g pointer-events="none"><text x="105.0" y="83.2" text-anchor="middle" font-family="sans-serif" font-size="12.4" fill="#9aa0a6" fill-opacity="0.3" transform="rotate(-28 105.0 83.2)">papercraft.kr</text><text x="105.0" y="148.5" text-anchor="middle" font-family="sans-serif" font-size="12.4" fill="#9aa0a6" fill-opacity="0.3" transform="rotate(-28 105.0 148.5)">papercraft.kr</text><text x="105.0" y="213.8" text-anchor="middle" font-family="sans-serif" font-size="12.4" fill="#9aa0a6" fill-opacity="0.3" transform="rotate(-28 105.0 213.8)">papercraft.kr</text></g></svg>
