<svg xmlns="http://www.w3.org/2000/svg" xmlns:xlink="http://www.w3.org/1999/xlink" width="210.00mm" height="297.00mm" viewBox="0 0 210.00 297.00">
<rect x="0" y="0" width="210.00" height="297.00" fill="#ffffff" stroke="#cccccc" stroke-width="0.2"/>
<polygon points="53.923,82.307 50.801,89.416 26.264,100.468 18.87,98.096" fill="rgb(216,216,216)"/>
<polygon points="18.87,98.096 12.578,95.854 6.123,77.386 9.648,71.713" fill="rgb(216,216,216)"/>
<polygon points="28.555,45.472 25.841,37.644 36.015,9.313 43.089,5.0" fill="rgb(216,216,216)"/>
<polygon points="28.555,45.472 21.5,46.368 8.265,64.737 9.648,71.713" fill="rgb(216,216,216)"/>
<polygon points="123.159,28.7 125.61,23.051 116.968,10.314 110.813,10.505" fill="rgb(216,216,216)"/>
<polygon points="53.923,82.307 50.801,89.416 26.264,100.468 18.87,98.096" fill="#99d9fa"/>
<line x1="28.555" y1="45.472" x2="53.923" y2="82.307" stroke="#8c8c8c" stroke-width="0.3" stroke-dasharray="1.2,0.8"/>
<line x1="43.089" y1="5.0" x2="53.923" y2="82.307" stroke="#8c8c8c" stroke-width="0.3" stroke-dasharray="1.2,0.8"/>
<line x1="53.923" y1="82.307" x2="9.649" y2="71.713" stroke="#8c8c8c" stroke-width="0.3" stroke-dasharray="1.2,0.8"/>
<line x1="87.443" y1="63.481" x2="43.089" y2="5.0" stroke="#8c8c8c" stroke-width="0.3" stroke-dasharray="1.2,0.8"/>
<line x1="114.301" y1="51.852" x2="82.587" y2="28.7" stroke="#8c8c8c" stroke-width="0.3" stroke-dasharray="1.2,0.8"/>
<line x1="82.587" y1="28.7" x2="123.159" y2="28.7" stroke="#8c8c8c" stroke-width="0.3" stroke-dasharray="1.2,0.8"/>
<line x1="82.587" y1="28.7" x2="87.443" y2="63.481" stroke="#8c8c8c" stroke-width="0.3" stroke-dasharray="1.2,0.8"/>
<line x1="18.87" y1="98.096" x2="53.923" y2="82.307" stroke="#8c8c8c" stroke-width="0.3" stroke-dasharray="1.2,0.8"/>
<line x1="9.648" y1="71.713" x2="18.87" y2="98.096" stroke="#8c8c8c" stroke-width="0.3" stroke-dasharray="1.2,0.8"/>
<line x1="43.089" y1="5.0" x2="28.555" y2="45.472" stroke="#8c8c8c" stroke-width="0.3" stroke-dasharray="1.2,0.8"/>
<line x1="9.648" y1="71.713" x2="28.555" y2="45.472" stroke="#8c8c8c" stroke-width="0.3" stroke-dasharray="1.2,0.8"/>
<line x1="110.813" y1="10.505" x2="123.159" y2="28.7" stroke="#8c8c8c" stroke-width="0.3" stroke-dasharray="1.2,0.8"/>
<line x1="87.443" y1="63.481" x2="53.923" y2="82.307" stroke="#141414" stroke-width="0.4"/>
<line x1="114.301" y1="51.852" x2="87.443" y2="63.481" stroke="#141414" stroke-width="0.4"/>
<line x1="123.159" y1="28.7" x2="114.301" y2="51.852" stroke="#141414" stroke-width="0.4"/>
<line x1="43.089" y1="5.0" x2="82.587" y2="28.7" stroke="#141414" stroke-width="0.4"/>
<line x1="82.587" y1="28.7" x2="110.813" y2="10.505" stroke="#141414" stroke-width="0.4"/>
<line x1="53.923" y1="82.307" x2="50.801" y2="89.416" stroke="#141414" stroke-width="0.4"/>
<line x1="50.801" y1="89.416" x2="26.264" y2="100.468" stroke="#141414" stroke-width="0.4"/>
<line x1="26.264" y1="100.468" x2="18.87" y2="98.096" stroke="#141414" stroke-width="0.4"/>
<line x1="18.87" y1="98.096" x2="12.578" y2="95.854" stroke="#141414" stroke-width="0.4"/>
<line x1="12.578" y1="95.854" x2="6.123" y2="77.386" stroke="#141414" stroke-width="0.4"/>
<line x1="6.123" y1="77.386" x2="9.648" y2="71.713" stroke="#141414" stroke-width="0.4"/>
<line x1="28.555" y1="45.472" x2="25.841" y2="37.644" stroke="#141414" stroke-width="0.4"/>
<line x1="25.841" y1="37.644" x2="36.015" y2="9.313" stroke="#141414" stroke-width="0.4"/>
<line x1="36.015" y1="9.313" x2="43.089" y2="5.0" stroke="#141414" stroke-width="0.4"/>
<line x1="28.555" y1="45.472" x2="21.5" y2="46.368" stroke="#141414" stroke-width="0.4"/>
<line x1="21.5" y1="46.368" x2="8.265" y2="64.737" stroke="#141414" stroke-width="0.4"/>
<line x1="8.265" y1="64.737" x2="9.648" y2="71.713" stroke="#141414" stroke-width="0.4"/>
<line x1="123.159" y1="28.7" x2="125.61" y2="23.051" stroke="#141414" stroke-width="0.4"/>
<line x1="125.61" y1="23.051" x2="116.968" y2="10.314" stroke="#141414" stroke-width="0.4"/>
<line x1="116.968" y1="10.314" x2="110.813" y2="10.505" stroke="#141414" stroke-width="0.4"/>
<circle cx="37.465" cy="92.572" r="0.60" fill="#99d9fa" stroke="#464646" stroke-width="0.2"/>
<text x="37.465" y="92.86" font-size="0.81" text-anchor="middle" fill="#141414">21</text>
<circle cx="11.805" cy="85.762" r="0.60" fill="#ffe082" stroke="#464646" stroke-width="0.2"/>
<text x="11.805" y="86.05" font-size="0.81" text-anchor="middle" fill="#141414">27</text>
<circle cx="33.375" cy="24.357" r="0.60" fill="#ffe082" stroke="#464646" stroke-width="0.2"/>
<text x="33.375" y="24.64" font-size="0.81" text-anchor="middle" fill="#141414">29</text>
<circle cx="16.992" cy="57.073" r="0.60" fill="#ffe082" stroke="#464646" stroke-width="0.2"/>
<text x="16.992" y="57.36" font-size="0.81" text-anchor="middle" fill="#141414">30</text>
<circle cx="119.137" cy="18.142" r="0.60" fill="#ffe082" stroke="#464646" stroke-width="0.2"/>
<text x="119.137" y="18.43" font-size="0.81" text-anchor="middle" fill="#141414">45</text>
<circle cx="94.777" cy="48.011" r="4.60" fill="#eaf1fe" stroke="#2e78e6" stroke-width="0.3"/>
<text x="94.777" y="49.81" font-size="5.20" text-anchor="middle" fill="#14306e" font-weight="bold">7</text>
<text x="205.0" y="295.0" font-size="3.2" text-anchor="end" fill="#737373" font-family="sans-serif">5 / 5</text>
</svg>
