<svg xmlns="http://www.w3.org/2000/svg" xmlns:xlink="http://www.w3.org/1999/xlink" width="210.00mm" height="297.00mm" viewBox="0 0 210.00 297.00">
<rect x="0" y="0" width="210.00" height="297.00" fill="#ffffff" stroke="#cccccc" stroke-width="0.2"/>
<polygon points="36.093,90.414 28.154,91.06 20.982,107.284 25.847,113.591" fill="rgb(216,216,216)"/>
<polygon points="25.847,113.591 38.239,120.127 42.859,119.953 54.722,112.499" fill="rgb(216,216,216)"/>
<polygon points="14.831,76.627 21.628,64.369 25.592,61.985 39.606,61.724" fill="rgb(216,216,216)"/>
<polygon points="11.987,53.175 23.904,37.243 29.881,33.421 49.342,29.284" fill="rgb(216,216,216)"/>
<polygon points="36.321,134.778 43.044,141.707 74.073,141.375 80.647,134.305" fill="rgb(216,216,216)"/>
<polygon points="135.233,111.12 140.101,117.425 132.934,133.651 124.995,134.3" fill="rgb(216,216,216)"/>
<polygon points="135.233,111.12 122.832,104.588 118.209,104.764 106.342,112.222" fill="rgb(216,216,216)"/>
<polygon points="107.701,18.779 100.914,31.035 96.953,33.42 82.945,33.682" fill="rgb(216,216,216)"/>
<polygon points="117.528,66.129 98.911,59.128 91.818,59.127 73.199,66.125" fill="rgb(216,216,216)"/>
<polygon points="117.528,66.129 105.779,82.186 99.843,86.071 80.427,90.414" fill="rgb(216,216,216)"/>
<polygon points="124.995,134.3 118.344,141.301 87.3,141.304 80.647,134.305" fill="rgb(216,216,216)"/>
<polygon points="135.233,111.12 140.101,117.425 132.934,133.651 124.995,134.3" fill="#99d9fa"/>
<line x1="54.722" y1="112.499" x2="36.093" y2="90.414" stroke="#8c8c8c" stroke-width="0.3" stroke-dasharray="1.2,0.8"/>
<line x1="39.606" y1="61.724" x2="36.093" y2="90.414" stroke="#8c8c8c" stroke-width="0.3" stroke-dasharray="1.2,0.8"/>
<line x1="73.199" y1="66.125" x2="36.093" y2="90.414" stroke="#8c8c8c" stroke-width="0.3" stroke-dasharray="1.2,0.8"/>
<line x1="36.093" y1="90.414" x2="80.427" y2="90.414" stroke="#8c8c8c" stroke-width="0.3" stroke-dasharray="1.2,0.8"/>
<line x1="106.342" y1="112.222" x2="124.995" y2="134.3" stroke="#8c8c8c" stroke-width="0.3" stroke-dasharray="1.2,0.8"/>
<line x1="82.945" y1="33.682" x2="86.434" y2="5.0" stroke="#8c8c8c" stroke-width="0.3" stroke-dasharray="1.2,0.8"/>
<line x1="49.342" y1="29.284" x2="86.434" y2="5.0" stroke="#8c8c8c" stroke-width="0.3" stroke-dasharray="1.2,0.8"/>
<line x1="106.342" y1="112.222" x2="54.722" y2="112.499" stroke="#8c8c8c" stroke-width="0.3" stroke-dasharray="1.2,0.8"/>
<line x1="80.647" y1="134.305" x2="106.342" y2="112.222" stroke="#8c8c8c" stroke-width="0.3" stroke-dasharray="1.2,0.8"/>
<line x1="80.427" y1="90.414" x2="106.342" y2="112.222" stroke="#8c8c8c" stroke-width="0.3" stroke-dasharray="1.2,0.8"/>
<line x1="54.722" y1="112.499" x2="80.647" y2="134.305" stroke="#8c8c8c" stroke-width="0.3" stroke-dasharray="1.2,0.8"/>
<line x1="80.427" y1="90.414" x2="54.722" y2="112.499" stroke="#8c8c8c" stroke-width="0.3" stroke-dasharray="1.2,0.8"/>
<line x1="39.606" y1="61.724" x2="82.945" y2="33.682" stroke="#8c8c8c" stroke-width="0.3" stroke-dasharray="1.2,0.8"/>
<line x1="82.945" y1="33.682" x2="49.342" y2="29.284" stroke="#8c8c8c" stroke-width="0.3" stroke-dasharray="1.2,0.8"/>
<line x1="82.945" y1="33.682" x2="73.199" y2="66.125" stroke="#8c8c8c" stroke-width="0.3" stroke-dasharray="1.2,0.8"/>
<line x1="49.342" y1="29.284" x2="39.606" y2="61.724" stroke="#8c8c8c" stroke-width="0.3" stroke-dasharray="1.2,0.8"/>
<line x1="39.606" y1="61.724" x2="73.199" y2="66.125" stroke="#8c8c8c" stroke-width="0.3" stroke-dasharray="1.2,0.8"/>
<line x1="49.342" y1="29.284" x2="42.085" y2="5.004" stroke="#8c8c8c" stroke-width="0.3" stroke-dasharray="1.2,0.8"/>
<line x1="73.199" y1="66.125" x2="80.427" y2="90.414" stroke="#8c8c8c" stroke-width="0.3" stroke-dasharray="1.2,0.8"/>
<line x1="25.847" y1="113.591" x2="36.093" y2="90.414" stroke="#8c8c8c" stroke-width="0.3" stroke-dasharray="1.2,0.8"/>
<line x1="54.722" y1="112.499" x2="25.847" y2="113.591" stroke="#8c8c8c" stroke-width="0.3" stroke-dasharray="1.2,0.8"/>
<line x1="39.606" y1="61.724" x2="14.831" y2="76.627" stroke="#8c8c8c" stroke-width="0.3" stroke-dasharray="1.2,0.8"/>
<line x1="49.342" y1="29.284" x2="11.987" y2="53.175" stroke="#8c8c8c" stroke-width="0.3" stroke-dasharray="1.2,0.8"/>
<line x1="80.647" y1="134.305" x2="36.321" y2="134.778" stroke="#8c8c8c" stroke-width="0.3" stroke-dasharray="1.2,0.8"/>
<line x1="124.995" y1="134.3" x2="135.233" y2="111.12" stroke="#8c8c8c" stroke-width="0.3" stroke-dasharray="1.2,0.8"/>
<line x1="106.342" y1="112.222" x2="135.233" y2="111.12" stroke="#8c8c8c" stroke-width="0.3" stroke-dasharray="1.2,0.8"/>
<line x1="82.945" y1="33.682" x2="107.701" y2="18.779" stroke="#8c8c8c" stroke-width="0.3" stroke-dasharray="1.2,0.8"/>
<line x1="73.199" y1="66.125" x2="117.528" y2="66.129" stroke="#8c8c8c" stroke-width="0.3" stroke-dasharray="1.2,0.8"/>
<line x1="80.427" y1="90.414" x2="117.528" y2="66.129" stroke="#8c8c8c" stroke-width="0.3" stroke-dasharray="1.2,0.8"/>
<line x1="80.647" y1="134.305" x2="124.995" y2="134.3" stroke="#8c8c8c" stroke-width="0.3" stroke-dasharray="1.2,0.8"/>
<line x1="36.093" y1="90.414" x2="14.831" y2="76.627" stroke="#141414" stroke-width="0.4"/>
<line x1="36.32" y1="134.778" x2="54.722" y2="112.499" stroke="#141414" stroke-width="0.4"/>
<line x1="39.606" y1="61.724" x2="11.986" y2="53.175" stroke="#141414" stroke-width="0.4"/>
<line x1="49.342" y1="29.284" x2="5.0" y2="29.288" stroke="#141414" stroke-width="0.4"/>
<line x1="5.0" y1="29.288" x2="42.085" y2="5.004" stroke="#141414" stroke-width="0.4"/>
<line x1="86.434" y1="5.0" x2="107.701" y2="18.779" stroke="#141414" stroke-width="0.4"/>
<line x1="124.766" y1="89.941" x2="106.342" y2="112.222" stroke="#141414" stroke-width="0.4"/>
<line x1="82.945" y1="33.682" x2="110.544" y2="42.242" stroke="#141414" stroke-width="0.4"/>
<line x1="110.544" y1="42.242" x2="73.199" y2="66.125" stroke="#141414" stroke-width="0.4"/>
<line x1="80.427" y1="90.414" x2="124.766" y2="89.941" stroke="#141414" stroke-width="0.4"/>
<line x1="42.085" y1="5.004" x2="86.434" y2="5.0" stroke="#141414" stroke-width="0.4"/>
<line x1="36.093" y1="90.414" x2="28.154" y2="91.06" stroke="#141414" stroke-width="0.4"/>
<line x1="28.154" y1="91.06" x2="20.982" y2="107.284" stroke="#141414" stroke-width="0.4"/>
<line x1="20.982" y1="107.284" x2="25.847" y2="113.591" stroke="#141414" stroke-width="0.4"/>
<line x1="25.847" y1="113.591" x2="38.239" y2="120.127" stroke="#141414" stroke-width="0.4"/>
<line x1="38.239" y1="120.127" x2="42.859" y2="119.953" stroke="#141414" stroke-width="0.4"/>
<line x1="42.859" y1="119.953" x2="54.722" y2="112.499" stroke="#141414" stroke-width="0.4"/>
<line x1="14.831" y1="76.627" x2="21.628" y2="64.369" stroke="#141414" stroke-width="0.4"/>
<line x1="21.628" y1="64.369" x2="25.592" y2="61.985" stroke="#141414" stroke-width="0.4"/>
<line x1="25.592" y1="61.985" x2="39.606" y2="61.724" stroke="#141414" stroke-width="0.4"/>
<line x1="11.987" y1="53.175" x2="23.904" y2="37.243" stroke="#141414" stroke-width="0.4"/>
<line x1="23.904" y1="37.243" x2="29.881" y2="33.421" stroke="#141414" stroke-width="0.4"/>
<line x1="29.881" y1="33.421" x2="49.342" y2="29.284" stroke="#141414" stroke-width="0.4"/>
<line x1="36.321" y1="134.778" x2="43.044" y2="141.707" stroke="#141414" stroke-width="0.4"/>
<line x1="43.044" y1="141.707" x2="74.073" y2="141.375" stroke="#141414" stroke-width="0.4"/>
<line x1="74.073" y1="141.375" x2="80.647" y2="134.305" stroke="#141414" stroke-width="0.4"/>
<line x1="135.233" y1="111.12" x2="140.101" y2="117.425" stroke="#141414" stroke-width="0.4"/>
<line x1="140.101" y1="117.425" x2="132.934" y2="133.651" stroke="#141414" stroke-width="0.4"/>
<line x1="132.934" y1="133.651" x2="124.995" y2="134.3" stroke="#141414" stroke-width="0.4"/>
<line x1="135.233" y1="111.12" x2="122.832" y2="104.588" stroke="#141414" stroke-width="0.4"/>
<line x1="122.832" y1="104.588" x2="118.209" y2="104.764" stroke="#141414" stroke-width="0.4"/>
<line x1="118.209" y1="104.764" x2="106.342" y2="112.222" stroke="#141414" stroke-width="0.4"/>
<line x1="107.701" y1="18.779" x2="100.914" y2="31.035" stroke="#141414" stroke-width="0.4"/>
<line x1="100.914" y1="31.035" x2="96.953" y2="33.42" stroke="#141414" stroke-width="0.4"/>
<line x1="96.953" y1="33.42" x2="82.945" y2="33.682" stroke="#141414" stroke-width="0.4"/>
<line x1="117.528" y1="66.129" x2="98.911" y2="59.128" stroke="#141414" stroke-width="0.4"/>
<line x1="98.911" y1="59.128" x2="91.818" y2="59.127" stroke="#141414" stroke-width="0.4"/>
<line x1="91.818" y1="59.127" x2="73.199" y2="66.125" stroke="#141414" stroke-width="0.4"/>
<line x1="117.528" y1="66.129" x2="105.779" y2="82.186" stroke="#141414" stroke-width="0.4"/>
<line x1="105.779" y1="82.186" x2="99.843" y2="86.071" stroke="#141414" stroke-width="0.4"/>
<line x1="99.843" y1="86.071" x2="80.427" y2="90.414" stroke="#141414" stroke-width="0.4"/>
<line x1="124.995" y1="134.3" x2="118.344" y2="141.301" stroke="#141414" stroke-width="0.4"/>
<line x1="118.344" y1="141.301" x2="87.3" y2="141.304" stroke="#141414" stroke-width="0.4"/>
<line x1="87.3" y1="141.304" x2="80.647" y2="134.305" stroke="#141414" stroke-width="0.4"/>
<circle cx="27.769" cy="100.587" r="1.68" fill="#ffe082" stroke="#464646" stroke-width="0.2"/>
<text x="27.769" y="101.16" font-size="1.65" text-anchor="middle" fill="#141414">23</text>
<circle cx="40.417" cy="116.542" r="1.68" fill="#ffe082" stroke="#464646" stroke-width="0.2"/>
<text x="40.417" y="117.12" font-size="1.65" text-anchor="middle" fill="#141414">24</text>
<circle cx="25.414" cy="66.176" r="1.68" fill="#ffe082" stroke="#464646" stroke-width="0.2"/>
<text x="25.414" y="66.75" font-size="1.65" text-anchor="middle" fill="#141414">25</text>
<circle cx="28.779" cy="38.281" r="1.68" fill="#ffe082" stroke="#464646" stroke-width="0.2"/>
<text x="28.779" y="38.86" font-size="1.65" text-anchor="middle" fill="#141414">26</text>
<circle cx="58.521" cy="138.041" r="1.68" fill="#ffe082" stroke="#464646" stroke-width="0.2"/>
<text x="58.521" y="138.62" font-size="1.65" text-anchor="middle" fill="#141414">27</text>
<circle cx="133.316" cy="124.124" r="1.68" fill="#99d9fa" stroke="#464646" stroke-width="0.2"/>
<text x="133.316" y="124.70" font-size="1.65" text-anchor="middle" fill="#141414">28</text>
<circle cx="120.654" cy="108.173" r="1.68" fill="#ffe082" stroke="#464646" stroke-width="0.2"/>
<text x="120.654" y="108.75" font-size="1.65" text-anchor="middle" fill="#141414">29</text>
<circle cx="97.128" cy="29.229" r="1.68" fill="#ffe082" stroke="#464646" stroke-width="0.2"/>
<text x="97.128" y="29.80" font-size="1.65" text-anchor="middle" fill="#141414">30</text>
<circle cx="95.364" cy="62.627" r="1.68" fill="#ffe082" stroke="#464646" stroke-width="0.2"/>
<text x="95.364" y="63.20" font-size="1.65" text-anchor="middle" fill="#141414">31</text>
<circle cx="100.894" cy="81.2" r="1.68" fill="#ffe082" stroke="#464646" stroke-width="0.2"/>
<text x="100.894" y="81.78" font-size="1.65" text-anchor="middle" fill="#141414">32</text>
<circle cx="102.821" cy="137.803" r="1.68" fill="#ffe082" stroke="#464646" stroke-width="0.2"/>
<text x="102.821" y="138.38" font-size="1.65" text-anchor="middle" fill="#141414">33</text>
<circle cx="92.36" cy="19.154" r="4.60" fill="#eaf1fe" stroke="#2e78e6" stroke-width="0.3"/>
<text x="92.36" y="20.95" font-size="5.20" text-anchor="middle" fill="#14306e" font-weight="bold">3</text>
<polygon points="84.892,232.136 79.913,237.933 86.116,250.83 93.754,250.559" fill="rgb(216,216,216)"/>
<polygon points="84.892,232.136 81.252,223.568 84.806,216.199 93.776,213.712" fill="rgb(216,216,216)"/>
<polygon points="77.619,175.018 76.603,172.032 75.587,169.047 66.136,172.43" fill="rgb(216,216,216)"/>
<polygon points="77.619,175.018 79.376,169.127 87.62,169.114 89.396,174.999" fill="rgb(216,216,216)"/>
<polygon points="93.754,250.559 95.186,258.066 109.141,261.251 113.688,255.109" fill="rgb(216,216,216)"/>
<polygon points="113.688,255.109 120.451,258.671 131.648,249.746 129.685,242.36" fill="rgb(216,216,216)"/>
<polygon points="55.512,167.359 53.949,160.576 52.433,159.378 46.27,160.059" fill="rgb(216,216,216)"/>
<polygon points="129.685,242.36 136.687,239.297 136.695,224.983 129.697,221.911" fill="rgb(216,216,216)"/>
<polygon points="46.27,160.059 49.741,154.987 44.564,148.575 38.874,150.898" fill="rgb(216,216,216)"/>
<polygon points="6.028,171.852 7.19,162.808 30.182,148.14 38.874,150.898" fill="rgb(216,216,216)"/>
<polygon points="129.697,221.911 129.268,212.615 122.876,207.515 113.716,209.162" fill="rgb(216,216,216)"/>
<polygon points="111.489,167.289 107.352,162.746 99.923,166.31 100.876,172.38" fill="rgb(216,216,216)"/>
<polygon points="100.876,172.38 97.844,167.032 89.808,168.866 89.396,174.999" fill="rgb(216,216,216)"/>
<polygon points="129.697,221.911 129.268,212.615 122.876,207.515 113.716,209.162" fill="#99d9fa"/>
<line x1="77.619" y1="175.018" x2="73.322" y2="213.744" stroke="#8c8c8c" stroke-width="0.3" stroke-dasharray="1.2,0.8"/>
<line x1="53.379" y1="209.249" x2="66.136" y2="172.43" stroke="#8c8c8c" stroke-width="0.3" stroke-dasharray="1.2,0.8"/>
<line x1="55.512" y1="167.359" x2="66.136" y2="172.43" stroke="#8c8c8c" stroke-width="0.3" stroke-dasharray="1.2,0.8"/>
<line x1="34.925" y1="200.442" x2="55.512" y2="167.359" stroke="#8c8c8c" stroke-width="0.3" stroke-dasharray="1.2,0.8"/>
<line x1="18.873" y1="187.763" x2="46.27" y2="160.059" stroke="#8c8c8c" stroke-width="0.3" stroke-dasharray="1.2,0.8"/>
<line x1="113.716" y1="209.162" x2="100.876" y2="172.38" stroke="#8c8c8c" stroke-width="0.3" stroke-dasharray="1.2,0.8"/>
<line x1="93.776" y1="213.712" x2="113.716" y2="209.162" stroke="#8c8c8c" stroke-width="0.3" stroke-dasharray="1.2,0.8"/>
<line x1="93.776" y1="213.712" x2="89.396" y2="174.999" stroke="#8c8c8c" stroke-width="0.3" stroke-dasharray="1.2,0.8"/>
<line x1="93.754" y1="250.559" x2="84.892" y2="232.136" stroke="#8c8c8c" stroke-width="0.3" stroke-dasharray="1.2,0.8"/>
<line x1="93.776" y1="213.712" x2="84.892" y2="232.136" stroke="#8c8c8c" stroke-width="0.3" stroke-dasharray="1.2,0.8"/>
<line x1="66.136" y1="172.43" x2="77.619" y2="175.018" stroke="#8c8c8c" stroke-width="0.3" stroke-dasharray="1.2,0.8"/>
<line x1="89.396" y1="174.999" x2="77.619" y2="175.018" stroke="#8c8c8c" stroke-width="0.3" stroke-dasharray="1.2,0.8"/>
<line x1="113.688" y1="255.109" x2="93.754" y2="250.559" stroke="#8c8c8c" stroke-width="0.3" stroke-dasharray="1.2,0.8"/>
<line x1="129.685" y1="242.36" x2="113.688" y2="255.109" stroke="#8c8c8c" stroke-width="0.3" stroke-dasharray="1.2,0.8"/>
<line x1="46.27" y1="160.059" x2="55.512" y2="167.359" stroke="#8c8c8c" stroke-width="0.3" stroke-dasharray="1.2,0.8"/>
<line x1="129.697" y1="221.911" x2="129.685" y2="242.36" stroke="#8c8c8c" stroke-width="0.3" stroke-dasharray="1.2,0.8"/>
<line x1="38.874" y1="150.898" x2="46.27" y2="160.059" stroke="#8c8c8c" stroke-width="0.3" stroke-dasharray="1.2,0.8"/>
<line x1="38.874" y1="150.898" x2="6.028" y2="171.852" stroke="#8c8c8c" stroke-width="0.3" stroke-dasharray="1.2,0.8"/>
<line x1="113.716" y1="209.162" x2="129.697" y2="221.911" stroke="#8c8c8c" stroke-width="0.3" stroke-dasharray="1.2,0.8"/>
<line x1="100.876" y1="172.38" x2="111.489" y2="167.289" stroke="#8c8c8c" stroke-width="0.3" stroke-dasharray="1.2,0.8"/>
<line x1="89.396" y1="174.999" x2="100.876" y2="172.38" stroke="#8c8c8c" stroke-width="0.3" stroke-dasharray="1.2,0.8"/>
<line x1="73.322" y1="213.744" x2="53.379" y2="209.249" stroke="#141414" stroke-width="0.4"/>
<line x1="93.776" y1="213.712" x2="73.322" y2="213.744" stroke="#141414" stroke-width="0.4"/>
<line x1="76.721" y1="167.28" x2="66.136" y2="172.43" stroke="#141414" stroke-width="0.4"/>
<line x1="79.295" y1="155.789" x2="76.721" y2="167.28" stroke="#141414" stroke-width="0.4"/>
<line x1="53.379" y1="209.249" x2="34.925" y2="200.442" stroke="#141414" stroke-width="0.4"/>
<line x1="34.925" y1="200.442" x2="18.873" y2="187.763" stroke="#141414" stroke-width="0.4"/>
<line x1="55.512" y1="167.359" x2="52.847" y2="155.887" stroke="#141414" stroke-width="0.4"/>
<line x1="18.873" y1="187.763" x2="6.028" y2="171.852" stroke="#141414" stroke-width="0.4"/>
<line x1="52.847" y1="155.887" x2="60.15" y2="146.652" stroke="#141414" stroke-width="0.4"/>
<line x1="111.489" y1="167.289" x2="132.149" y2="200.321" stroke="#141414" stroke-width="0.4"/>
<line x1="132.149" y1="200.321" x2="113.716" y2="209.162" stroke="#141414" stroke-width="0.4"/>
<line x1="60.15" y1="146.652" x2="71.921" y2="146.608" stroke="#141414" stroke-width="0.4"/>
<line x1="71.921" y1="146.608" x2="79.295" y2="155.789" stroke="#141414" stroke-width="0.4"/>
<line x1="84.892" y1="232.136" x2="79.913" y2="237.933" stroke="#141414" stroke-width="0.4"/>
<line x1="79.913" y1="237.933" x2="86.116" y2="250.83" stroke="#141414" stroke-width="0.4"/>
<line x1="86.116" y1="250.83" x2="93.754" y2="250.559" stroke="#141414" stroke-width="0.4"/>
<line x1="84.892" y1="232.136" x2="81.252" y2="223.568" stroke="#141414" stroke-width="0.4"/>
<line x1="81.252" y1="223.568" x2="84.806" y2="216.199" stroke="#141414" stroke-width="0.4"/>
<line x1="84.806" y1="216.199" x2="93.776" y2="213.712" stroke="#141414" stroke-width="0.4"/>
<line x1="77.619" y1="175.018" x2="76.603" y2="172.032" stroke="#141414" stroke-width="0.4"/>
<line x1="76.603" y1="172.032" x2="75.587" y2="169.047" stroke="#141414" stroke-width="0.4"/>
<line x1="75.587" y1="169.047" x2="66.136" y2="172.43" stroke="#141414" stroke-width="0.4"/>
<line x1="77.619" y1="175.018" x2="79.376" y2="169.127" stroke="#141414" stroke-width="0.4"/>
<line x1="79.376" y1="169.127" x2="87.62" y2="169.114" stroke="#141414" stroke-width="0.4"/>
<line x1="87.62" y1="169.114" x2="89.396" y2="174.999" stroke="#141414" stroke-width="0.4"/>
<line x1="93.754" y1="250.559" x2="95.186" y2="258.066" stroke="#141414" stroke-width="0.4"/>
<line x1="95.186" y1="258.066" x2="109.141" y2="261.251" stroke="#141414" stroke-width="0.4"/>
<line x1="109.141" y1="261.251" x2="113.688" y2="255.109" stroke="#141414" stroke-width="0.4"/>
<line x1="113.688" y1="255.109" x2="120.451" y2="258.671" stroke="#141414" stroke-width="0.4"/>
<line x1="120.451" y1="258.671" x2="131.648" y2="249.746" stroke="#141414" stroke-width="0.4"/>
<line x1="131.648" y1="249.746" x2="129.685" y2="242.36" stroke="#141414" stroke-width="0.4"/>
<line x1="55.512" y1="167.359" x2="53.949" y2="160.576" stroke="#141414" stroke-width="0.4"/>
<line x1="53.949" y1="160.576" x2="52.433" y2="159.378" stroke="#141414" stroke-width="0.4"/>
<line x1="52.433" y1="159.378" x2="46.27" y2="160.059" stroke="#141414" stroke-width="0.4"/>
<line x1="129.685" y1="242.36" x2="136.687" y2="239.297" stroke="#141414" stroke-width="0.4"/>
<line x1="136.687" y1="239.297" x2="136.695" y2="224.983" stroke="#141414" stroke-width="0.4"/>
<line x1="136.695" y1="224.983" x2="129.697" y2="221.911" stroke="#141414" stroke-width="0.4"/>
<line x1="46.27" y1="160.059" x2="49.741" y2="154.987" stroke="#141414" stroke-width="0.4"/>
<line x1="49.741" y1="154.987" x2="44.564" y2="148.575" stroke="#141414" stroke-width="0.4"/>
<line x1="44.564" y1="148.575" x2="38.874" y2="150.898" stroke="#141414" stroke-width="0.4"/>
<line x1="6.028" y1="171.852" x2="7.19" y2="162.808" stroke="#141414" stroke-width="0.4"/>
<line x1="7.19" y1="162.808" x2="30.182" y2="148.14" stroke="#141414" stroke-width="0.4"/>
<line x1="30.182" y1="148.14" x2="38.874" y2="150.898" stroke="#141414" stroke-width="0.4"/>
<line x1="129.697" y1="221.911" x2="129.268" y2="212.615" stroke="#141414" stroke-width="0.4"/>
<line x1="129.268" y1="212.615" x2="122.876" y2="207.515" stroke="#141414" stroke-width="0.4"/>
<line x1="122.876" y1="207.515" x2="113.716" y2="209.162" stroke="#141414" stroke-width="0.4"/>
<line x1="111.489" y1="167.289" x2="107.352" y2="162.746" stroke="#141414" stroke-width="0.4"/>
<line x1="107.352" y1="162.746" x2="99.923" y2="166.31" stroke="#141414" stroke-width="0.4"/>
<line x1="99.923" y1="166.31" x2="100.876" y2="172.38" stroke="#141414" stroke-width="0.4"/>
<line x1="100.876" y1="172.38" x2="97.844" y2="167.032" stroke="#141414" stroke-width="0.4"/>
<line x1="97.844" y1="167.032" x2="89.808" y2="168.866" stroke="#141414" stroke-width="0.4"/>
<line x1="89.808" y1="168.866" x2="89.396" y2="174.999" stroke="#141414" stroke-width="0.4"/>
<circle cx="86.169" cy="242.864" r="1.68" fill="#ffe082" stroke="#464646" stroke-width="0.2"/>
<text x="86.169" y="243.44" font-size="1.65" text-anchor="middle" fill="#141414">34</text>
<circle cx="86.181" cy="221.404" r="1.68" fill="#ffe082" stroke="#464646" stroke-width="0.2"/>
<text x="86.181" y="221.98" font-size="1.65" text-anchor="middle" fill="#141414">35</text>
<circle cx="73.986" cy="172.132" r="1.68" fill="#ffe082" stroke="#464646" stroke-width="0.2"/>
<text x="73.986" y="172.71" font-size="1.65" text-anchor="middle" fill="#141414">36</text>
<circle cx="83.503" cy="172.065" r="1.68" fill="#ffe082" stroke="#464646" stroke-width="0.2"/>
<text x="83.503" y="172.64" font-size="1.65" text-anchor="middle" fill="#141414">37</text>
<circle cx="102.942" cy="256.246" r="1.68" fill="#ffe082" stroke="#464646" stroke-width="0.2"/>
<text x="102.942" y="256.82" font-size="1.65" text-anchor="middle" fill="#141414">38</text>
<circle cx="123.868" cy="251.471" r="1.68" fill="#ffe082" stroke="#464646" stroke-width="0.2"/>
<text x="123.868" y="252.05" font-size="1.65" text-anchor="middle" fill="#141414">39</text>
<circle cx="52.041" cy="161.843" r="1.68" fill="#ffe082" stroke="#464646" stroke-width="0.2"/>
<text x="52.041" y="162.42" font-size="1.65" text-anchor="middle" fill="#141414">40</text>
<circle cx="133.191" cy="232.138" r="1.68" fill="#ffe082" stroke="#464646" stroke-width="0.2"/>
<text x="133.191" y="232.71" font-size="1.65" text-anchor="middle" fill="#141414">41</text>
<circle cx="44.862" cy="153.63" r="1.68" fill="#ffe082" stroke="#464646" stroke-width="0.2"/>
<text x="44.862" y="154.21" font-size="1.65" text-anchor="middle" fill="#141414">42</text>
<circle cx="20.569" cy="158.425" r="1.68" fill="#ffe082" stroke="#464646" stroke-width="0.2"/>
<text x="20.569" y="159.00" font-size="1.65" text-anchor="middle" fill="#141414">43</text>
<circle cx="123.889" cy="212.801" r="1.68" fill="#99d9fa" stroke="#464646" stroke-width="0.2"/>
<text x="123.889" y="213.38" font-size="1.65" text-anchor="middle" fill="#141414">44</text>
<circle cx="104.91" cy="167.181" r="1.68" fill="#ffe082" stroke="#464646" stroke-width="0.2"/>
<text x="104.91" y="167.76" font-size="1.65" text-anchor="middle" fill="#141414">45</text>
<circle cx="94.481" cy="170.819" r="1.68" fill="#ffe082" stroke="#464646" stroke-width="0.2"/>
<text x="94.481" y="171.39" font-size="1.65" text-anchor="middle" fill="#141414">46</text>
<circle cx="119.118" cy="192.257" r="4.60" fill="#eaf1fe" stroke="#2e78e6" stroke-width="0.3"/>
<text x="119.118" y="194.06" font-size="5.20" text-anchor="middle" fill="#14306e" font-weight="bold">4</text>
<polygon points="169.239,46.382 171.268,53.146 180.737,53.146 182.766,46.382" fill="rgb(216,216,216)"/>
<polygon points="169.239,32.455 171.268,25.691 180.737,25.691 182.766,32.455" fill="rgb(216,216,216)"/>
<polygon points="182.766,46.382 189.729,44.293 189.729,34.544 182.766,32.455" fill="rgb(216,216,216)"/>
<polygon points="169.239,59.909 167.347,66.215 158.519,66.215 156.627,59.909" fill="rgb(216,216,216)"/>
<polygon points="156.627,46.382 149.663,44.293 149.663,34.544 156.627,32.455" fill="rgb(216,216,216)"/>
<polygon points="156.627,46.382 149.864,48.411 149.864,57.88 156.627,59.909" fill="rgb(216,216,216)"/>
<polygon points="156.627,32.455 149.864,30.426 149.864,20.957 156.627,18.928" fill="rgb(216,216,216)"/>
<polygon points="169.239,46.382 171.268,53.146 180.737,53.146 182.766,46.382" fill="#99d9fa"/>
<line x1="169.239" y1="46.382" x2="169.239" y2="32.455" stroke="#8c8c8c" stroke-width="0.3" stroke-dasharray="1.2,0.8"/>
<line x1="169.239" y1="46.382" x2="156.627" y2="46.382" stroke="#8c8c8c" stroke-width="0.3" stroke-dasharray="1.2,0.8"/>
<line x1="156.627" y1="32.455" x2="169.239" y2="32.455" stroke="#8c8c8c" stroke-width="0.3" stroke-dasharray="1.2,0.8"/>
<line x1="156.627" y1="18.928" x2="169.239" y2="18.928" stroke="#8c8c8c" stroke-width="0.3" stroke-dasharray="1.2,0.8"/>
<line x1="156.627" y1="18.928" x2="156.627" y2="5.0" stroke="#8c8c8c" stroke-width="0.3" stroke-dasharray="1.2,0.8"/>
<line x1="182.766" y1="46.382" x2="169.239" y2="46.382" stroke="#8c8c8c" stroke-width="0.3" stroke-dasharray="1.2,0.8"/>
<line x1="182.766" y1="32.455" x2="169.239" y2="32.455" stroke="#8c8c8c" stroke-width="0.3" stroke-dasharray="1.2,0.8"/>
<line x1="182.766" y1="32.455" x2="182.766" y2="46.382" stroke="#8c8c8c" stroke-width="0.3" stroke-dasharray="1.2,0.8"/>
<line x1="156.627" y1="59.909" x2="169.239" y2="59.909" stroke="#8c8c8c" stroke-width="0.3" stroke-dasharray="1.2,0.8"/>
<line x1="156.627" y1="32.455" x2="156.627" y2="46.382" stroke="#8c8c8c" stroke-width="0.3" stroke-dasharray="1.2,0.8"/>
<line x1="156.627" y1="59.909" x2="156.627" y2="46.382" stroke="#8c8c8c" stroke-width="0.3" stroke-dasharray="1.2,0.8"/>
<line x1="156.627" y1="18.928" x2="156.627" y2="32.455" stroke="#8c8c8c" stroke-width="0.3" stroke-dasharray="1.2,0.8"/>
<line x1="169.239" y1="46.382" x2="169.239" y2="59.909" stroke="#141414" stroke-width="0.4"/>
<line x1="169.239" y1="18.928" x2="169.239" y2="32.455" stroke="#141414" stroke-width="0.4"/>
<line x1="169.239" y1="5.0" x2="169.239" y2="18.928" stroke="#141414" stroke-width="0.4"/>
<line x1="156.627" y1="5.0" x2="169.239" y2="5.0" stroke="#141414" stroke-width="0.4"/>
<line x1="143.101" y1="18.928" x2="143.101" y2="5.0" stroke="#141414" stroke-width="0.4"/>
<line x1="143.101" y1="5.0" x2="156.627" y2="5.0" stroke="#141414" stroke-width="0.4"/>
<line x1="156.627" y1="18.928" x2="143.101" y2="18.928" stroke="#141414" stroke-width="0.4"/>
<line x1="169.239" y1="46.382" x2="171.268" y2="53.146" stroke="#141414" stroke-width="0.4"/>
<line x1="171.268" y1="53.146" x2="180.737" y2="53.146" stroke="#141414" stroke-width="0.4"/>
<line x1="180.737" y1="53.146" x2="182.766" y2="46.382" stroke="#141414" stroke-width="0.4"/>
<line x1="169.239" y1="32.455" x2="171.268" y2="25.691" stroke="#141414" stroke-width="0.4"/>
<line x1="171.268" y1="25.691" x2="180.737" y2="25.691" stroke="#141414" stroke-width="0.4"/>
<line x1="180.737" y1="25.691" x2="182.766" y2="32.455" stroke="#141414" stroke-width="0.4"/>
<line x1="182.766" y1="46.382" x2="189.729" y2="44.293" stroke="#141414" stroke-width="0.4"/>
<line x1="189.729" y1="44.293" x2="189.729" y2="34.544" stroke="#141414" stroke-width="0.4"/>
<line x1="189.729" y1="34.544" x2="182.766" y2="32.455" stroke="#141414" stroke-width="0.4"/>
<line x1="169.239" y1="59.909" x2="167.347" y2="66.215" stroke="#141414" stroke-width="0.4"/>
<line x1="167.347" y1="66.215" x2="158.519" y2="66.215" stroke="#141414" stroke-width="0.4"/>
<line x1="158.519" y1="66.215" x2="156.627" y2="59.909" stroke="#141414" stroke-width="0.4"/>
<line x1="156.627" y1="46.382" x2="149.663" y2="44.293" stroke="#141414" stroke-width="0.4"/>
<line x1="149.663" y1="44.293" x2="149.663" y2="34.544" stroke="#141414" stroke-width="0.4"/>
<line x1="149.663" y1="34.544" x2="156.627" y2="32.455" stroke="#141414" stroke-width="0.4"/>
<line x1="156.627" y1="46.382" x2="149.864" y2="48.411" stroke="#141414" stroke-width="0.4"/>
<line x1="149.864" y1="48.411" x2="149.864" y2="57.88" stroke="#141414" stroke-width="0.4"/>
<line x1="149.864" y1="57.88" x2="156.627" y2="59.909" stroke="#141414" stroke-width="0.4"/>
<line x1="156.627" y1="32.455" x2="149.864" y2="30.426" stroke="#141414" stroke-width="0.4"/>
<line x1="149.864" y1="30.426" x2="149.864" y2="20.957" stroke="#141414" stroke-width="0.4"/>
<line x1="149.864" y1="20.957" x2="156.627" y2="18.928" stroke="#141414" stroke-width="0.4"/>
<circle cx="176.002" cy="49.764" r="1.68" fill="#99d9fa" stroke="#464646" stroke-width="0.2"/>
<text x="176.002" y="50.34" font-size="1.65" text-anchor="middle" fill="#141414">96</text>
<circle cx="176.002" cy="29.073" r="1.68" fill="#ffe082" stroke="#464646" stroke-width="0.2"/>
<text x="176.002" y="29.65" font-size="1.65" text-anchor="middle" fill="#141414">97</text>
<circle cx="186.248" cy="39.419" r="1.68" fill="#ffe082" stroke="#464646" stroke-width="0.2"/>
<text x="186.248" y="39.99" font-size="1.65" text-anchor="middle" fill="#141414">98</text>
<circle cx="162.933" cy="63.062" r="1.68" fill="#ffe082" stroke="#464646" stroke-width="0.2"/>
<text x="162.933" y="63.64" font-size="1.65" text-anchor="middle" fill="#141414">99</text>
<circle cx="153.145" cy="39.419" r="1.68" fill="#ffe082" stroke="#464646" stroke-width="0.2"/>
<text x="153.145" y="39.99" font-size="1.65" text-anchor="middle" fill="#141414">100</text>
<circle cx="153.246" cy="53.146" r="1.68" fill="#ffe082" stroke="#464646" stroke-width="0.2"/>
<text x="153.246" y="53.72" font-size="1.65" text-anchor="middle" fill="#141414">101</text>
<circle cx="153.246" cy="25.691" r="1.68" fill="#ffe082" stroke="#464646" stroke-width="0.2"/>
<text x="153.246" y="26.27" font-size="1.65" text-anchor="middle" fill="#141414">102</text>
<circle cx="147.609" cy="9.643" r="2.59" fill="#eaf1fe" stroke="#2e78e6" stroke-width="0.3"/>
<text x="147.609" y="10.66" font-size="2.93" text-anchor="middle" fill="#14306e" font-weight="bold">10</text>
<text x="205.0" y="295.0" font-size="3.2" text-anchor="end" fill="#737373" font-family="sans-serif">3 / 6</text>
</svg>
