<svg xmlns="http://www.w3.org/2000/svg" xmlns:xlink="http://www.w3.org/1999/xlink" width="210.00mm" height="297.00mm" viewBox="0 0 210.00 297.00">
<rect x="0" y="0" width="210.00" height="297.00" fill="#ffffff" stroke="#cccccc" stroke-width="0.2"/>
<polygon points="75.524,95.937 83.277,92.771 87.575,85.145 86.268,76.873" fill="rgb(216,216,216)"/>
<polygon points="97.298,93.766 102.921,101.567 104.927,139.261 100.165,147.615" fill="rgb(216,216,216)"/>
<polygon points="86.268,76.873 85.647,62.2 83.589,57.39 73.406,46.807" fill="rgb(216,216,216)"/>
<polygon points="34.804,76.873 29.969,71.932 31.6,50.734 37.134,46.59" fill="rgb(216,216,216)"/>
<polygon points="37.134,46.59 32.053,41.857 32.601,20.39 37.917,15.923" fill="rgb(216,216,216)"/>
<polygon points="82.798,13.957 75.838,9.057 44.422,10.433 37.917,15.923" fill="rgb(216,216,216)"/>
<polygon points="82.798,13.957 88.395,16.72 90.449,32.709 85.731,36.798" fill="rgb(216,216,216)"/>
<polygon points="100.165,147.615 94.048,146.934 87.316,133.12 90.548,127.882" fill="rgb(216,216,216)"/>
<polygon points="105.693,45.931 107.879,40.65 118.945,40.254 121.502,45.366" fill="rgb(216,216,216)"/>
<polygon points="121.502,45.366 127.235,47.758 130.129,63.347 125.636,67.637" fill="rgb(216,216,216)"/>
<polygon points="37.134,46.59 32.053,41.857 32.601,20.39 37.917,15.923" fill="#99d9fa"/>
<line x1="75.524" y1="95.937" x2="34.804" y2="76.873" stroke="#8c8c8c" stroke-width="0.3" stroke-dasharray="1.2,0.8"/>
<line x1="75.524" y1="95.937" x2="69.914" y2="117.656" stroke="#8c8c8c" stroke-width="0.3" stroke-dasharray="1.2,0.8"/>
<line x1="75.524" y1="95.937" x2="27.125" y2="103.974" stroke="#8c8c8c" stroke-width="0.3" stroke-dasharray="1.2,0.8"/>
<line x1="34.804" y1="76.873" x2="86.267" y2="76.873" stroke="#8c8c8c" stroke-width="0.3" stroke-dasharray="1.2,0.8"/>
<line x1="86.267" y1="76.873" x2="37.134" y2="46.59" stroke="#8c8c8c" stroke-width="0.3" stroke-dasharray="1.2,0.8"/>
<line x1="69.914" y1="117.656" x2="97.298" y2="93.766" stroke="#8c8c8c" stroke-width="0.3" stroke-dasharray="1.2,0.8"/>
<line x1="27.125" y1="103.974" x2="34.804" y2="76.873" stroke="#8c8c8c" stroke-width="0.3" stroke-dasharray="1.2,0.8"/>
<line x1="73.406" y1="46.807" x2="37.134" y2="46.59" stroke="#8c8c8c" stroke-width="0.3" stroke-dasharray="1.2,0.8"/>
<line x1="37.134" y1="46.59" x2="85.731" y2="36.798" stroke="#8c8c8c" stroke-width="0.3" stroke-dasharray="1.2,0.8"/>
<line x1="101.165" y1="70.438" x2="105.693" y2="45.931" stroke="#8c8c8c" stroke-width="0.3" stroke-dasharray="1.2,0.8"/>
<line x1="85.731" y1="36.798" x2="37.917" y2="15.923" stroke="#8c8c8c" stroke-width="0.3" stroke-dasharray="1.2,0.8"/>
<line x1="97.298" y1="93.766" x2="90.548" y2="127.882" stroke="#8c8c8c" stroke-width="0.3" stroke-dasharray="1.2,0.8"/>
<line x1="85.731" y1="36.798" x2="73.406" y2="46.807" stroke="#8c8c8c" stroke-width="0.3" stroke-dasharray="1.2,0.8"/>
<line x1="86.268" y1="76.873" x2="75.524" y2="95.937" stroke="#8c8c8c" stroke-width="0.3" stroke-dasharray="1.2,0.8"/>
<line x1="100.165" y1="147.615" x2="97.298" y2="93.766" stroke="#8c8c8c" stroke-width="0.3" stroke-dasharray="1.2,0.8"/>
<line x1="73.406" y1="46.807" x2="86.268" y2="76.873" stroke="#8c8c8c" stroke-width="0.3" stroke-dasharray="1.2,0.8"/>
<line x1="37.134" y1="46.59" x2="34.804" y2="76.873" stroke="#8c8c8c" stroke-width="0.3" stroke-dasharray="1.2,0.8"/>
<line x1="37.917" y1="15.923" x2="37.134" y2="46.59" stroke="#8c8c8c" stroke-width="0.3" stroke-dasharray="1.2,0.8"/>
<line x1="37.917" y1="15.923" x2="82.798" y2="13.957" stroke="#8c8c8c" stroke-width="0.3" stroke-dasharray="1.2,0.8"/>
<line x1="85.731" y1="36.798" x2="82.798" y2="13.957" stroke="#8c8c8c" stroke-width="0.3" stroke-dasharray="1.2,0.8"/>
<line x1="90.548" y1="127.882" x2="100.165" y2="147.615" stroke="#8c8c8c" stroke-width="0.3" stroke-dasharray="1.2,0.8"/>
<line x1="121.502" y1="45.366" x2="105.693" y2="45.931" stroke="#8c8c8c" stroke-width="0.3" stroke-dasharray="1.2,0.8"/>
<line x1="125.636" y1="67.637" x2="121.502" y2="45.366" stroke="#8c8c8c" stroke-width="0.3" stroke-dasharray="1.2,0.8"/>
<line x1="75.524" y1="95.937" x2="97.298" y2="93.766" stroke="#141414" stroke-width="0.4"/>
<line x1="5.0" y1="82.724" x2="34.804" y2="76.873" stroke="#141414" stroke-width="0.4"/>
<line x1="27.125" y1="103.974" x2="5.0" y2="82.724" stroke="#141414" stroke-width="0.4"/>
<line x1="69.914" y1="117.656" x2="27.125" y2="103.974" stroke="#141414" stroke-width="0.4"/>
<line x1="90.548" y1="127.882" x2="69.914" y2="117.656" stroke="#141414" stroke-width="0.4"/>
<line x1="85.731" y1="36.798" x2="105.693" y2="45.931" stroke="#141414" stroke-width="0.4"/>
<line x1="101.165" y1="70.438" x2="73.406" y2="46.807" stroke="#141414" stroke-width="0.4"/>
<line x1="125.636" y1="67.637" x2="101.165" y2="70.438" stroke="#141414" stroke-width="0.4"/>
<line x1="75.524" y1="95.937" x2="83.277" y2="92.771" stroke="#141414" stroke-width="0.4"/>
<line x1="83.277" y1="92.771" x2="87.575" y2="85.145" stroke="#141414" stroke-width="0.4"/>
<line x1="87.575" y1="85.145" x2="86.268" y2="76.873" stroke="#141414" stroke-width="0.4"/>
<line x1="97.298" y1="93.766" x2="102.921" y2="101.567" stroke="#141414" stroke-width="0.4"/>
<line x1="102.921" y1="101.567" x2="104.927" y2="139.261" stroke="#141414" stroke-width="0.4"/>
<line x1="104.927" y1="139.261" x2="100.165" y2="147.615" stroke="#141414" stroke-width="0.4"/>
<line x1="86.268" y1="76.873" x2="85.647" y2="62.2" stroke="#141414" stroke-width="0.4"/>
<line x1="85.647" y1="62.2" x2="83.589" y2="57.39" stroke="#141414" stroke-width="0.4"/>
<line x1="83.589" y1="57.39" x2="73.406" y2="46.807" stroke="#141414" stroke-width="0.4"/>
<line x1="34.804" y1="76.873" x2="29.969" y2="71.932" stroke="#141414" stroke-width="0.4"/>
<line x1="29.969" y1="71.932" x2="31.6" y2="50.734" stroke="#141414" stroke-width="0.4"/>
<line x1="31.6" y1="50.734" x2="37.134" y2="46.59" stroke="#141414" stroke-width="0.4"/>
<line x1="37.134" y1="46.59" x2="32.053" y2="41.857" stroke="#141414" stroke-width="0.4"/>
<line x1="32.053" y1="41.857" x2="32.601" y2="20.39" stroke="#141414" stroke-width="0.4"/>
<line x1="32.601" y1="20.39" x2="37.917" y2="15.923" stroke="#141414" stroke-width="0.4"/>
<line x1="82.798" y1="13.957" x2="75.838" y2="9.057" stroke="#141414" stroke-width="0.4"/>
<line x1="75.838" y1="9.057" x2="44.422" y2="10.433" stroke="#141414" stroke-width="0.4"/>
<line x1="44.422" y1="10.433" x2="37.917" y2="15.923" stroke="#141414" stroke-width="0.4"/>
<line x1="82.798" y1="13.957" x2="88.395" y2="16.72" stroke="#141414" stroke-width="0.4"/>
<line x1="88.395" y1="16.72" x2="90.449" y2="32.709" stroke="#141414" stroke-width="0.4"/>
<line x1="90.449" y1="32.709" x2="85.731" y2="36.798" stroke="#141414" stroke-width="0.4"/>
<line x1="100.165" y1="147.615" x2="94.048" y2="146.934" stroke="#141414" stroke-width="0.4"/>
<line x1="94.048" y1="146.934" x2="87.316" y2="133.12" stroke="#141414" stroke-width="0.4"/>
<line x1="87.316" y1="133.12" x2="90.548" y2="127.882" stroke="#141414" stroke-width="0.4"/>
<line x1="105.693" y1="45.931" x2="107.879" y2="40.65" stroke="#141414" stroke-width="0.4"/>
<line x1="107.879" y1="40.65" x2="118.945" y2="40.254" stroke="#141414" stroke-width="0.4"/>
<line x1="118.945" y1="40.254" x2="121.502" y2="45.366" stroke="#141414" stroke-width="0.4"/>
<line x1="121.502" y1="45.366" x2="127.235" y2="47.758" stroke="#141414" stroke-width="0.4"/>
<line x1="127.235" y1="47.758" x2="130.129" y2="63.347" stroke="#141414" stroke-width="0.4"/>
<line x1="130.129" y1="63.347" x2="125.636" y2="67.637" stroke="#141414" stroke-width="0.4"/>
<circle cx="83.161" cy="87.682" r="1.62" fill="#ffe082" stroke="#464646" stroke-width="0.2"/>
<text x="83.161" y="88.24" font-size="1.59" text-anchor="middle" fill="#141414">44</text>
<circle cx="101.328" cy="120.552" r="1.62" fill="#ffe082" stroke="#464646" stroke-width="0.2"/>
<text x="101.328" y="121.11" font-size="1.59" text-anchor="middle" fill="#141414">47</text>
<circle cx="82.227" cy="60.818" r="1.62" fill="#ffe082" stroke="#464646" stroke-width="0.2"/>
<text x="82.227" y="61.38" font-size="1.59" text-anchor="middle" fill="#141414">48</text>
<circle cx="33.377" cy="61.532" r="1.62" fill="#ffe082" stroke="#464646" stroke-width="0.2"/>
<text x="33.377" y="62.09" font-size="1.59" text-anchor="middle" fill="#141414">49</text>
<circle cx="34.926" cy="31.19" r="1.62" fill="#99d9fa" stroke="#464646" stroke-width="0.2"/>
<text x="34.926" y="31.75" font-size="1.59" text-anchor="middle" fill="#141414">56</text>
<circle cx="60.244" cy="12.342" r="1.62" fill="#ffe082" stroke="#464646" stroke-width="0.2"/>
<text x="60.244" y="12.90" font-size="1.59" text-anchor="middle" fill="#141414">57</text>
<circle cx="86.843" cy="25.046" r="1.62" fill="#ffe082" stroke="#464646" stroke-width="0.2"/>
<text x="86.843" y="25.60" font-size="1.59" text-anchor="middle" fill="#141414">58</text>
<circle cx="93.019" cy="138.888" r="1.62" fill="#ffe082" stroke="#464646" stroke-width="0.2"/>
<text x="93.019" y="139.45" font-size="1.59" text-anchor="middle" fill="#141414">63</text>
<circle cx="113.505" cy="43.05" r="1.62" fill="#ffe082" stroke="#464646" stroke-width="0.2"/>
<text x="113.505" y="43.61" font-size="1.59" text-anchor="middle" fill="#141414">64</text>
<circle cx="126.126" cy="56.027" r="1.62" fill="#ffe082" stroke="#464646" stroke-width="0.2"/>
<text x="126.126" y="56.58" font-size="1.59" text-anchor="middle" fill="#141414">84</text>
<circle cx="22.31" cy="87.857" r="4.60" fill="#eaf1fe" stroke="#2e78e6" stroke-width="0.3"/>
<text x="22.31" y="89.66" font-size="5.20" text-anchor="middle" fill="#14306e" font-weight="bold">11</text>
<polygon points="158.964,30.511 165.377,36.419 171.463,68.512 167.659,76.358" fill="rgb(216,216,216)"/>
<polygon points="167.659,76.358 175.433,72.079 184.948,73.254 191.447,79.295" fill="rgb(216,216,216)"/>
<polygon points="143.089,99.401 152.339,101.187 186.189,87.113 191.447,79.295" fill="rgb(216,216,216)"/>
<line x1="158.964" y1="30.511" x2="136.429" y2="74.953" stroke="#8c8c8c" stroke-width="0.3" stroke-dasharray="1.2,0.8"/>
<line x1="167.659" y1="76.358" x2="136.429" y2="74.953" stroke="#8c8c8c" stroke-width="0.3" stroke-dasharray="1.2,0.8"/>
<line x1="137.728" y1="30.511" x2="158.964" y2="30.511" stroke="#8c8c8c" stroke-width="0.3" stroke-dasharray="1.2,0.8"/>
<line x1="143.089" y1="99.401" x2="167.659" y2="76.358" stroke="#8c8c8c" stroke-width="0.3" stroke-dasharray="1.2,0.8"/>
<line x1="167.659" y1="76.358" x2="158.964" y2="30.511" stroke="#8c8c8c" stroke-width="0.3" stroke-dasharray="1.2,0.8"/>
<line x1="191.447" y1="79.295" x2="167.659" y2="76.358" stroke="#8c8c8c" stroke-width="0.3" stroke-dasharray="1.2,0.8"/>
<line x1="191.447" y1="79.295" x2="143.089" y2="99.401" stroke="#8c8c8c" stroke-width="0.3" stroke-dasharray="1.2,0.8"/>
<line x1="137.728" y1="30.511" x2="133.129" y2="8.236" stroke="#141414" stroke-width="0.4"/>
<line x1="133.129" y1="8.236" x2="158.333" y2="5.0" stroke="#141414" stroke-width="0.4"/>
<line x1="136.429" y1="74.953" x2="137.728" y2="30.511" stroke="#141414" stroke-width="0.4"/>
<line x1="143.089" y1="99.401" x2="136.429" y2="74.953" stroke="#141414" stroke-width="0.4"/>
<line x1="158.333" y1="5.0" x2="158.964" y2="30.511" stroke="#141414" stroke-width="0.4"/>
<line x1="158.964" y1="30.511" x2="165.377" y2="36.419" stroke="#141414" stroke-width="0.4"/>
<line x1="165.377" y1="36.419" x2="171.463" y2="68.512" stroke="#141414" stroke-width="0.4"/>
<line x1="171.463" y1="68.512" x2="167.659" y2="76.358" stroke="#141414" stroke-width="0.4"/>
<line x1="167.659" y1="76.358" x2="175.433" y2="72.079" stroke="#141414" stroke-width="0.4"/>
<line x1="175.433" y1="72.079" x2="184.948" y2="73.254" stroke="#141414" stroke-width="0.4"/>
<line x1="184.948" y1="73.254" x2="191.447" y2="79.295" stroke="#141414" stroke-width="0.4"/>
<line x1="143.089" y1="99.401" x2="152.339" y2="101.187" stroke="#141414" stroke-width="0.4"/>
<line x1="152.339" y1="101.187" x2="186.189" y2="87.113" stroke="#141414" stroke-width="0.4"/>
<line x1="186.189" y1="87.113" x2="191.447" y2="79.295" stroke="#141414" stroke-width="0.4"/>
<circle cx="165.866" cy="52.95" r="1.62" fill="#ffe082" stroke="#464646" stroke-width="0.2"/>
<text x="165.866" y="53.51" font-size="1.59" text-anchor="middle" fill="#141414">59</text>
<circle cx="179.871" cy="75.246" r="1.62" fill="#ffe082" stroke="#464646" stroke-width="0.2"/>
<text x="179.871" y="75.80" font-size="1.59" text-anchor="middle" fill="#141414">61</text>
<circle cx="168.266" cy="91.749" r="1.62" fill="#ffe082" stroke="#464646" stroke-width="0.2"/>
<text x="168.266" y="92.31" font-size="1.59" text-anchor="middle" fill="#141414">65</text>
<circle cx="143.063" cy="14.582" r="4.60" fill="#eaf1fe" stroke="#2e78e6" stroke-width="0.3"/>
<text x="143.063" y="16.38" font-size="5.20" text-anchor="middle" fill="#14306e" font-weight="bold">12</text>
<polygon points="22.577,271.033 32.178,272.713 67.767,258.101 73.418,250.16" fill="rgb(216,216,216)"/>
<polygon points="18.806,237.854 25.271,232.654 55.441,232.654 61.906,237.854" fill="rgb(216,216,216)"/>
<polygon points="61.906,237.854 59.797,228.49 63.495,218.39 71.152,212.603" fill="rgb(216,216,216)"/>
<polygon points="78.164,150.474 84.596,149.471 97.699,162.199 96.884,168.656" fill="rgb(216,216,216)"/>
<polygon points="73.418,250.16 79.153,252.17 90.477,242.832 89.595,236.819" fill="rgb(216,216,216)"/>
<polygon points="52.674,183.707 58.322,177.217 67.266,175.352 75.036,179.044" fill="rgb(216,216,216)"/>
<polygon points="111.25,208.018 118.139,207.963 132.101,223.772 131.195,230.602" fill="rgb(216,216,216)"/>
<polygon points="111.25,208.018 108.266,198.988 105.895,197.097 96.427,196.198" fill="rgb(216,216,216)"/>
<polygon points="52.674,183.707 58.322,177.217 67.266,175.352 75.036,179.044" fill="#99d9fa"/>
<line x1="61.906" y1="237.853" x2="73.418" y2="250.16" stroke="#8c8c8c" stroke-width="0.3" stroke-dasharray="1.2,0.8"/>
<line x1="75.036" y1="179.044" x2="78.165" y2="150.474" stroke="#8c8c8c" stroke-width="0.3" stroke-dasharray="1.2,0.8"/>
<line x1="52.675" y1="183.707" x2="71.152" y2="212.603" stroke="#8c8c8c" stroke-width="0.3" stroke-dasharray="1.2,0.8"/>
<line x1="111.25" y1="208.018" x2="104.831" y2="244.269" stroke="#8c8c8c" stroke-width="0.3" stroke-dasharray="1.2,0.8"/>
<line x1="111.25" y1="208.018" x2="89.595" y2="236.819" stroke="#8c8c8c" stroke-width="0.3" stroke-dasharray="1.2,0.8"/>
<line x1="71.152" y1="212.603" x2="89.595" y2="236.819" stroke="#8c8c8c" stroke-width="0.3" stroke-dasharray="1.2,0.8"/>
<line x1="75.036" y1="179.044" x2="96.885" y2="168.656" stroke="#8c8c8c" stroke-width="0.3" stroke-dasharray="1.2,0.8"/>
<line x1="71.152" y1="212.603" x2="75.036" y2="179.044" stroke="#8c8c8c" stroke-width="0.3" stroke-dasharray="1.2,0.8"/>
<line x1="96.427" y1="196.198" x2="75.036" y2="179.044" stroke="#8c8c8c" stroke-width="0.3" stroke-dasharray="1.2,0.8"/>
<line x1="71.152" y1="212.603" x2="111.25" y2="208.018" stroke="#8c8c8c" stroke-width="0.3" stroke-dasharray="1.2,0.8"/>
<line x1="96.885" y1="168.656" x2="96.427" y2="196.198" stroke="#8c8c8c" stroke-width="0.3" stroke-dasharray="1.2,0.8"/>
<line x1="96.427" y1="196.198" x2="71.152" y2="212.603" stroke="#8c8c8c" stroke-width="0.3" stroke-dasharray="1.2,0.8"/>
<line x1="22.577" y1="271.033" x2="18.806" y2="237.853" stroke="#8c8c8c" stroke-width="0.3" stroke-dasharray="1.2,0.8"/>
<line x1="61.906" y1="237.853" x2="22.577" y2="271.033" stroke="#8c8c8c" stroke-width="0.3" stroke-dasharray="1.2,0.8"/>
<line x1="61.906" y1="237.853" x2="89.595" y2="236.819" stroke="#8c8c8c" stroke-width="0.3" stroke-dasharray="1.2,0.8"/>
<line x1="73.418" y1="250.16" x2="22.577" y2="271.033" stroke="#8c8c8c" stroke-width="0.3" stroke-dasharray="1.2,0.8"/>
<line x1="61.906" y1="237.854" x2="18.806" y2="237.854" stroke="#8c8c8c" stroke-width="0.3" stroke-dasharray="1.2,0.8"/>
<line x1="71.152" y1="212.603" x2="61.906" y2="237.854" stroke="#8c8c8c" stroke-width="0.3" stroke-dasharray="1.2,0.8"/>
<line x1="96.884" y1="168.656" x2="78.164" y2="150.474" stroke="#8c8c8c" stroke-width="0.3" stroke-dasharray="1.2,0.8"/>
<line x1="89.595" y1="236.819" x2="73.418" y2="250.16" stroke="#8c8c8c" stroke-width="0.3" stroke-dasharray="1.2,0.8"/>
<line x1="75.036" y1="179.044" x2="52.674" y2="183.707" stroke="#8c8c8c" stroke-width="0.3" stroke-dasharray="1.2,0.8"/>
<line x1="131.195" y1="230.602" x2="111.25" y2="208.018" stroke="#8c8c8c" stroke-width="0.3" stroke-dasharray="1.2,0.8"/>
<line x1="96.427" y1="196.198" x2="111.25" y2="208.018" stroke="#8c8c8c" stroke-width="0.3" stroke-dasharray="1.2,0.8"/>
<line x1="22.577" y1="271.033" x2="5.0" y2="271.803" stroke="#141414" stroke-width="0.4"/>
<line x1="5.0" y1="271.803" x2="18.806" y2="237.853" stroke="#141414" stroke-width="0.4"/>
<line x1="44.76" y1="207.451" x2="52.675" y2="183.707" stroke="#141414" stroke-width="0.4"/>
<line x1="71.152" y1="212.603" x2="44.76" y2="207.451" stroke="#141414" stroke-width="0.4"/>
<line x1="58.486" y1="163.3" x2="78.165" y2="150.474" stroke="#141414" stroke-width="0.4"/>
<line x1="75.036" y1="179.044" x2="58.486" y2="163.3" stroke="#141414" stroke-width="0.4"/>
<line x1="104.831" y1="244.269" x2="89.595" y2="236.819" stroke="#141414" stroke-width="0.4"/>
<line x1="131.195" y1="230.602" x2="104.831" y2="244.269" stroke="#141414" stroke-width="0.4"/>
<line x1="96.885" y1="168.656" x2="115.058" y2="192.689" stroke="#141414" stroke-width="0.4"/>
<line x1="115.058" y1="192.689" x2="96.427" y2="196.198" stroke="#141414" stroke-width="0.4"/>
<line x1="22.577" y1="271.033" x2="32.178" y2="272.713" stroke="#141414" stroke-width="0.4"/>
<line x1="32.178" y1="272.713" x2="67.767" y2="258.101" stroke="#141414" stroke-width="0.4"/>
<line x1="67.767" y1="258.101" x2="73.418" y2="250.16" stroke="#141414" stroke-width="0.4"/>
<line x1="18.806" y1="237.854" x2="25.271" y2="232.654" stroke="#141414" stroke-width="0.4"/>
<line x1="25.271" y1="232.654" x2="55.441" y2="232.654" stroke="#141414" stroke-width="0.4"/>
<line x1="55.441" y1="232.654" x2="61.906" y2="237.854" stroke="#141414" stroke-width="0.4"/>
<line x1="61.906" y1="237.854" x2="59.797" y2="228.49" stroke="#141414" stroke-width="0.4"/>
<line x1="59.797" y1="228.49" x2="63.495" y2="218.39" stroke="#141414" stroke-width="0.4"/>
<line x1="63.495" y1="218.39" x2="71.152" y2="212.603" stroke="#141414" stroke-width="0.4"/>
<line x1="78.164" y1="150.474" x2="84.596" y2="149.471" stroke="#141414" stroke-width="0.4"/>
<line x1="84.596" y1="149.471" x2="97.699" y2="162.199" stroke="#141414" stroke-width="0.4"/>
<line x1="97.699" y1="162.199" x2="96.884" y2="168.656" stroke="#141414" stroke-width="0.4"/>
<line x1="73.418" y1="250.16" x2="79.153" y2="252.17" stroke="#141414" stroke-width="0.4"/>
<line x1="79.153" y1="252.17" x2="90.477" y2="242.832" stroke="#141414" stroke-width="0.4"/>
<line x1="90.477" y1="242.832" x2="89.595" y2="236.819" stroke="#141414" stroke-width="0.4"/>
<line x1="52.674" y1="183.707" x2="58.322" y2="177.217" stroke="#141414" stroke-width="0.4"/>
<line x1="58.322" y1="177.217" x2="67.266" y2="175.352" stroke="#141414" stroke-width="0.4"/>
<line x1="67.266" y1="175.352" x2="75.036" y2="179.044" stroke="#141414" stroke-width="0.4"/>
<line x1="111.25" y1="208.018" x2="118.139" y2="207.963" stroke="#141414" stroke-width="0.4"/>
<line x1="118.139" y1="207.963" x2="132.101" y2="223.772" stroke="#141414" stroke-width="0.4"/>
<line x1="132.101" y1="223.772" x2="131.195" y2="230.602" stroke="#141414" stroke-width="0.4"/>
<line x1="111.25" y1="208.018" x2="108.266" y2="198.988" stroke="#141414" stroke-width="0.4"/>
<line x1="108.266" y1="198.988" x2="105.895" y2="197.097" stroke="#141414" stroke-width="0.4"/>
<line x1="105.895" y1="197.097" x2="96.427" y2="196.198" stroke="#141414" stroke-width="0.4"/>
<circle cx="48.985" cy="263.002" r="1.62" fill="#ffe082" stroke="#464646" stroke-width="0.2"/>
<text x="48.985" y="263.56" font-size="1.59" text-anchor="middle" fill="#141414">62</text>
<circle cx="40.356" cy="235.254" r="1.62" fill="#ffe082" stroke="#464646" stroke-width="0.2"/>
<text x="40.356" y="235.81" font-size="1.59" text-anchor="middle" fill="#141414">69</text>
<circle cx="64.088" cy="224.334" r="1.62" fill="#ffe082" stroke="#464646" stroke-width="0.2"/>
<text x="64.088" y="224.89" font-size="1.59" text-anchor="middle" fill="#141414">79</text>
<circle cx="89.336" cy="157.7" r="1.62" fill="#ffe082" stroke="#464646" stroke-width="0.2"/>
<text x="89.336" y="158.26" font-size="1.59" text-anchor="middle" fill="#141414">95</text>
<circle cx="83.161" cy="245.495" r="1.62" fill="#ffe082" stroke="#464646" stroke-width="0.2"/>
<text x="83.161" y="246.05" font-size="1.59" text-anchor="middle" fill="#141414">97</text>
<circle cx="63.325" cy="178.83" r="1.62" fill="#99d9fa" stroke="#464646" stroke-width="0.2"/>
<text x="63.325" y="179.39" font-size="1.59" text-anchor="middle" fill="#141414">98</text>
<circle cx="123.171" cy="217.588" r="1.62" fill="#ffe082" stroke="#464646" stroke-width="0.2"/>
<text x="123.171" y="218.15" font-size="1.59" text-anchor="middle" fill="#141414">101</text>
<circle cx="105.459" cy="200.075" r="1.62" fill="#ffe082" stroke="#464646" stroke-width="0.2"/>
<text x="105.459" y="200.63" font-size="1.59" text-anchor="middle" fill="#141414">102</text>
<circle cx="66.288" cy="191.784" r="4.60" fill="#eaf1fe" stroke="#2e78e6" stroke-width="0.3"/>
<text x="66.288" y="193.58" font-size="5.20" text-anchor="middle" fill="#14306e" font-weight="bold">13</text>
<polygon points="142.93,155.819 144.791,150.619 153.473,150.619 155.333,155.819" fill="rgb(216,216,216)"/>
<polygon points="142.93,155.819 138.982,160.671 143.752,176.175 149.744,177.968" fill="rgb(216,216,216)"/>
<polygon points="155.333,155.819 159.537,160.414 155.625,175.918 149.744,177.968" fill="rgb(216,216,216)"/>
<line x1="155.333" y1="155.819" x2="142.93" y2="155.819" stroke="#8c8c8c" stroke-width="0.3" stroke-dasharray="1.2,0.8"/>
<line x1="149.744" y1="177.968" x2="142.93" y2="155.819" stroke="#8c8c8c" stroke-width="0.3" stroke-dasharray="1.2,0.8"/>
<line x1="149.744" y1="177.968" x2="155.333" y2="155.819" stroke="#8c8c8c" stroke-width="0.3" stroke-dasharray="1.2,0.8"/>
<line x1="142.93" y1="155.819" x2="144.791" y2="150.619" stroke="#141414" stroke-width="0.4"/>
<line x1="144.791" y1="150.619" x2="153.473" y2="150.619" stroke="#141414" stroke-width="0.4"/>
<line x1="153.473" y1="150.619" x2="155.333" y2="155.819" stroke="#141414" stroke-width="0.4"/>
<line x1="142.93" y1="155.819" x2="138.982" y2="160.671" stroke="#141414" stroke-width="0.4"/>
<line x1="138.982" y1="160.671" x2="143.752" y2="176.175" stroke="#141414" stroke-width="0.4"/>
<line x1="143.752" y1="176.175" x2="149.744" y2="177.968" stroke="#141414" stroke-width="0.4"/>
<line x1="155.333" y1="155.819" x2="159.537" y2="160.414" stroke="#141414" stroke-width="0.4"/>
<line x1="159.537" y1="160.414" x2="155.625" y2="175.918" stroke="#141414" stroke-width="0.4"/>
<line x1="155.625" y1="175.918" x2="149.744" y2="177.968" stroke="#141414" stroke-width="0.4"/>
<circle cx="149.132" cy="153.219" r="1.62" fill="#ffe082" stroke="#464646" stroke-width="0.2"/>
<text x="149.132" y="153.78" font-size="1.59" text-anchor="middle" fill="#141414">52</text>
<circle cx="143.852" cy="167.658" r="1.62" fill="#ffe082" stroke="#464646" stroke-width="0.2"/>
<text x="143.852" y="168.22" font-size="1.59" text-anchor="middle" fill="#141414">53</text>
<circle cx="155.06" cy="167.53" r="1.62" fill="#ffe082" stroke="#464646" stroke-width="0.2"/>
<text x="155.06" y="168.09" font-size="1.59" text-anchor="middle" fill="#141414">55</text>
<circle cx="149.336" cy="163.202" r="3.16" fill="#eaf1fe" stroke="#2e78e6" stroke-width="0.3"/>
<text x="149.336" y="164.44" font-size="3.57" text-anchor="middle" fill="#14306e" font-weight="bold">14</text>
<polygon points="178.168,155.819 171.286,161.249 162.572,193.01 165.719,201.192" fill="rgb(216,216,216)"/>
<polygon points="178.168,155.819 181.343,150.619 196.161,150.619 199.336,155.819" fill="rgb(216,216,216)"/>
<polygon points="175.824,211.723 170.556,213.744 163.483,206.372 165.719,201.192" fill="rgb(216,216,216)"/>
<polygon points="175.824,211.723 184.144,205.354 200.603,166.221 199.336,155.819" fill="rgb(216,216,216)"/>
<line x1="175.824" y1="211.723" x2="178.168" y2="155.819" stroke="#8c8c8c" stroke-width="0.3" stroke-dasharray="1.2,0.8"/>
<line x1="165.719" y1="201.192" x2="178.168" y2="155.819" stroke="#8c8c8c" stroke-width="0.3" stroke-dasharray="1.2,0.8"/>
<line x1="199.336" y1="155.819" x2="178.168" y2="155.819" stroke="#8c8c8c" stroke-width="0.3" stroke-dasharray="1.2,0.8"/>
<line x1="165.719" y1="201.192" x2="175.824" y2="211.723" stroke="#8c8c8c" stroke-width="0.3" stroke-dasharray="1.2,0.8"/>
<line x1="199.336" y1="155.819" x2="175.824" y2="211.723" stroke="#8c8c8c" stroke-width="0.3" stroke-dasharray="1.2,0.8"/>
<line x1="178.168" y1="155.819" x2="171.286" y2="161.249" stroke="#141414" stroke-width="0.4"/>
<line x1="171.286" y1="161.249" x2="162.572" y2="193.01" stroke="#141414" stroke-width="0.4"/>
<line x1="162.572" y1="193.01" x2="165.719" y2="201.192" stroke="#141414" stroke-width="0.4"/>
<line x1="178.168" y1="155.819" x2="181.343" y2="150.619" stroke="#141414" stroke-width="0.4"/>
<line x1="181.343" y1="150.619" x2="196.161" y2="150.619" stroke="#141414" stroke-width="0.4"/>
<line x1="196.161" y1="150.619" x2="199.336" y2="155.819" stroke="#141414" stroke-width="0.4"/>
<line x1="175.824" y1="211.723" x2="170.556" y2="213.744" stroke="#141414" stroke-width="0.4"/>
<line x1="170.556" y1="213.744" x2="163.483" y2="206.372" stroke="#141414" stroke-width="0.4"/>
<line x1="163.483" y1="206.372" x2="165.719" y2="201.192" stroke="#141414" stroke-width="0.4"/>
<line x1="175.824" y1="211.723" x2="184.144" y2="205.354" stroke="#141414" stroke-width="0.4"/>
<line x1="184.144" y1="205.354" x2="200.603" y2="166.221" stroke="#141414" stroke-width="0.4"/>
<line x1="200.603" y1="166.221" x2="199.336" y2="155.819" stroke="#141414" stroke-width="0.4"/>
<circle cx="169.436" cy="177.818" r="1.62" fill="#ffe082" stroke="#464646" stroke-width="0.2"/>
<text x="169.436" y="178.38" font-size="1.59" text-anchor="middle" fill="#141414">81</text>
<circle cx="188.752" cy="153.219" r="1.62" fill="#ffe082" stroke="#464646" stroke-width="0.2"/>
<text x="188.752" y="153.78" font-size="1.59" text-anchor="middle" fill="#141414">83</text>
<circle cx="168.896" cy="208.258" r="1.62" fill="#ffe082" stroke="#464646" stroke-width="0.2"/>
<text x="168.896" y="208.82" font-size="1.59" text-anchor="middle" fill="#141414">86</text>
<circle cx="189.977" cy="184.779" r="1.62" fill="#ffe082" stroke="#464646" stroke-width="0.2"/>
<text x="189.977" y="185.34" font-size="1.59" text-anchor="middle" fill="#141414">88</text>
<circle cx="184.443" cy="174.454" r="4.60" fill="#eaf1fe" stroke="#2e78e6" stroke-width="0.3"/>
<text x="184.443" y="176.25" font-size="5.20" text-anchor="middle" fill="#14306e" font-weight="bold">15</text>
<text x="205.0" y="295.0" font-size="3.2" text-anchor="end" fill="#737373" font-family="sans-serif">6 / 7</text>
</svg>
