<svg xmlns="http://www.w3.org/2000/svg" xmlns:xlink="http://www.w3.org/1999/xlink" width="210.00mm" height="297.00mm" viewBox="0 0 210.00 297.00">
<rect x="0" y="0" width="210.00" height="297.00" fill="#ffffff" stroke="#cccccc" stroke-width="0.2"/>
<polygon points="19.721,42.843 13.745,41.396 8.847,26.885 12.725,22.113" fill="rgb(216,216,216)"/>
<polygon points="19.721,42.843 26.769,43.717 44.062,29.205 44.425,22.113" fill="rgb(216,216,216)"/>
<polygon points="44.425,22.113 47.669,17.318 41.761,7.021 35.985,7.402" fill="rgb(216,216,216)"/>
<line x1="12.725" y1="22.113" x2="44.425" y2="22.113" stroke="#8c8c8c" stroke-width="0.3" stroke-dasharray="1.2,0.8"/>
<line x1="15.043" y1="6.365" x2="44.425" y2="22.113" stroke="#8c8c8c" stroke-width="0.3" stroke-dasharray="1.2,0.8"/>
<line x1="12.725" y1="22.113" x2="19.721" y2="42.843" stroke="#8c8c8c" stroke-width="0.3" stroke-dasharray="1.2,0.8"/>
<line x1="44.425" y1="22.113" x2="19.721" y2="42.843" stroke="#8c8c8c" stroke-width="0.3" stroke-dasharray="1.2,0.8"/>
<line x1="35.985" y1="7.402" x2="44.425" y2="22.113" stroke="#8c8c8c" stroke-width="0.3" stroke-dasharray="1.2,0.8"/>
<line x1="12.725" y1="22.113" x2="15.043" y2="6.365" stroke="#141414" stroke-width="0.4"/>
<line x1="15.043" y1="6.365" x2="35.985" y2="7.402" stroke="#141414" stroke-width="0.4"/>
<line x1="19.721" y1="42.843" x2="13.745" y2="41.396" stroke="#141414" stroke-width="0.4"/>
<line x1="13.745" y1="41.396" x2="8.847" y2="26.885" stroke="#141414" stroke-width="0.4"/>
<line x1="8.847" y1="26.885" x2="12.725" y2="22.113" stroke="#141414" stroke-width="0.4"/>
<line x1="19.721" y1="42.843" x2="26.769" y2="43.717" stroke="#141414" stroke-width="0.4"/>
<line x1="26.769" y1="43.717" x2="44.062" y2="29.205" stroke="#141414" stroke-width="0.4"/>
<line x1="44.062" y1="29.205" x2="44.425" y2="22.113" stroke="#141414" stroke-width="0.4"/>
<line x1="44.425" y1="22.113" x2="47.669" y2="17.318" stroke="#141414" stroke-width="0.4"/>
<line x1="47.669" y1="17.318" x2="41.761" y2="7.021" stroke="#141414" stroke-width="0.4"/>
<line x1="41.761" y1="7.021" x2="35.985" y2="7.402" stroke="#141414" stroke-width="0.4"/>
<circle cx="13.76" cy="33.309" r="1.62" fill="#ffe082" stroke="#464646" stroke-width="0.2"/>
<text x="13.76" y="33.87" font-size="1.59" text-anchor="middle" fill="#141414">92</text>
<circle cx="33.744" cy="34.469" r="1.62" fill="#ffe082" stroke="#464646" stroke-width="0.2"/>
<text x="33.744" y="35.03" font-size="1.59" text-anchor="middle" fill="#141414">93</text>
<circle cx="42.46" cy="13.464" r="1.62" fill="#ffe082" stroke="#464646" stroke-width="0.2"/>
<text x="42.46" y="14.02" font-size="1.59" text-anchor="middle" fill="#141414">99</text>
<circle cx="25.624" cy="29.023" r="4.60" fill="#eaf1fe" stroke="#2e78e6" stroke-width="0.3"/>
<text x="25.624" y="30.82" font-size="5.20" text-anchor="middle" fill="#14306e" font-weight="bold">16</text>
<polygon points="94.735,29.29 92.214,23.625 100.799,10.411 106.999,10.412" fill="rgb(216,216,216)"/>
<polygon points="94.735,29.29 87.726,32.272 84.72,39.057 87.219,46.253" fill="rgb(216,216,216)"/>
<polygon points="106.999,10.412 114.901,8.615 140.721,21.829 143.885,29.29" fill="rgb(216,216,216)"/>
<polygon points="51.9,85.935 50.081,79.667 61.064,64.892 67.591,64.829" fill="rgb(216,216,216)"/>
<polygon points="109.727,111.282 113.615,110.427 107.309,101.199 100.969,98.466" fill="rgb(216,216,216)"/>
<polygon points="160.728,55.996 162.6,49.216 150.81,30.522 143.885,29.29" fill="rgb(216,216,216)"/>
<polygon points="115.26,104.527 120.142,100.052 118.723,80.971 113.233,77.267" fill="rgb(216,216,216)"/>
<polygon points="51.9,85.935 50.081,79.667 61.064,64.892 67.591,64.829" fill="#99d9fa"/>
<line x1="160.728" y1="55.996" x2="152.923" y2="84.007" stroke="#8c8c8c" stroke-width="0.3" stroke-dasharray="1.2,0.8"/>
<line x1="127.713" y1="58.678" x2="94.735" y2="29.29" stroke="#8c8c8c" stroke-width="0.3" stroke-dasharray="1.2,0.8"/>
<line x1="127.713" y1="58.678" x2="87.219" y2="46.253" stroke="#8c8c8c" stroke-width="0.3" stroke-dasharray="1.2,0.8"/>
<line x1="143.885" y1="29.29" x2="127.713" y2="58.678" stroke="#8c8c8c" stroke-width="0.3" stroke-dasharray="1.2,0.8"/>
<line x1="94.735" y1="29.29" x2="143.885" y2="29.29" stroke="#8c8c8c" stroke-width="0.3" stroke-dasharray="1.2,0.8"/>
<line x1="75.051" y1="32.247" x2="67.591" y2="64.829" stroke="#8c8c8c" stroke-width="0.3" stroke-dasharray="1.2,0.8"/>
<line x1="100.969" y1="98.466" x2="78.768" y2="117.48" stroke="#8c8c8c" stroke-width="0.3" stroke-dasharray="1.2,0.8"/>
<line x1="67.591" y1="64.829" x2="100.969" y2="98.466" stroke="#8c8c8c" stroke-width="0.3" stroke-dasharray="1.2,0.8"/>
<line x1="113.233" y1="77.267" x2="100.969" y2="98.466" stroke="#8c8c8c" stroke-width="0.3" stroke-dasharray="1.2,0.8"/>
<line x1="67.591" y1="64.829" x2="87.219" y2="46.253" stroke="#8c8c8c" stroke-width="0.3" stroke-dasharray="1.2,0.8"/>
<line x1="87.219" y1="46.253" x2="113.233" y2="77.267" stroke="#8c8c8c" stroke-width="0.3" stroke-dasharray="1.2,0.8"/>
<line x1="113.233" y1="77.267" x2="67.591" y2="64.829" stroke="#8c8c8c" stroke-width="0.3" stroke-dasharray="1.2,0.8"/>
<line x1="160.728" y1="55.996" x2="127.713" y2="58.678" stroke="#8c8c8c" stroke-width="0.3" stroke-dasharray="1.2,0.8"/>
<line x1="127.713" y1="58.678" x2="113.233" y2="77.267" stroke="#8c8c8c" stroke-width="0.3" stroke-dasharray="1.2,0.8"/>
<line x1="106.999" y1="10.412" x2="94.735" y2="29.29" stroke="#8c8c8c" stroke-width="0.3" stroke-dasharray="1.2,0.8"/>
<line x1="87.219" y1="46.253" x2="94.735" y2="29.29" stroke="#8c8c8c" stroke-width="0.3" stroke-dasharray="1.2,0.8"/>
<line x1="143.885" y1="29.29" x2="106.999" y2="10.412" stroke="#8c8c8c" stroke-width="0.3" stroke-dasharray="1.2,0.8"/>
<line x1="67.591" y1="64.829" x2="51.9" y2="85.935" stroke="#8c8c8c" stroke-width="0.3" stroke-dasharray="1.2,0.8"/>
<line x1="100.969" y1="98.466" x2="109.727" y2="111.282" stroke="#8c8c8c" stroke-width="0.3" stroke-dasharray="1.2,0.8"/>
<line x1="143.885" y1="29.29" x2="160.728" y2="55.996" stroke="#8c8c8c" stroke-width="0.3" stroke-dasharray="1.2,0.8"/>
<line x1="113.233" y1="77.267" x2="115.26" y2="104.527" stroke="#8c8c8c" stroke-width="0.3" stroke-dasharray="1.2,0.8"/>
<line x1="152.923" y1="84.007" x2="127.713" y2="58.678" stroke="#141414" stroke-width="0.4"/>
<line x1="179.793" y1="62.137" x2="152.923" y2="84.007" stroke="#141414" stroke-width="0.4"/>
<line x1="127.713" y1="58.678" x2="134.597" y2="81.266" stroke="#141414" stroke-width="0.4"/>
<line x1="54.712" y1="41.898" x2="75.051" y2="32.247" stroke="#141414" stroke-width="0.4"/>
<line x1="75.051" y1="32.247" x2="87.219" y2="46.253" stroke="#141414" stroke-width="0.4"/>
<line x1="78.768" y1="117.48" x2="51.9" y2="85.935" stroke="#141414" stroke-width="0.4"/>
<line x1="67.591" y1="64.829" x2="54.712" y2="41.898" stroke="#141414" stroke-width="0.4"/>
<line x1="115.26" y1="104.527" x2="100.969" y2="98.466" stroke="#141414" stroke-width="0.4"/>
<line x1="109.727" y1="111.282" x2="78.768" y2="117.48" stroke="#141414" stroke-width="0.4"/>
<line x1="160.728" y1="55.996" x2="179.793" y2="62.137" stroke="#141414" stroke-width="0.4"/>
<line x1="134.597" y1="81.266" x2="113.233" y2="77.267" stroke="#141414" stroke-width="0.4"/>
<line x1="94.735" y1="29.29" x2="92.214" y2="23.625" stroke="#141414" stroke-width="0.4"/>
<line x1="92.214" y1="23.625" x2="100.799" y2="10.411" stroke="#141414" stroke-width="0.4"/>
<line x1="100.799" y1="10.411" x2="106.999" y2="10.412" stroke="#141414" stroke-width="0.4"/>
<line x1="94.735" y1="29.29" x2="87.726" y2="32.272" stroke="#141414" stroke-width="0.4"/>
<line x1="87.726" y1="32.272" x2="84.72" y2="39.057" stroke="#141414" stroke-width="0.4"/>
<line x1="84.72" y1="39.057" x2="87.219" y2="46.253" stroke="#141414" stroke-width="0.4"/>
<line x1="106.999" y1="10.412" x2="114.901" y2="8.615" stroke="#141414" stroke-width="0.4"/>
<line x1="114.901" y1="8.615" x2="140.721" y2="21.829" stroke="#141414" stroke-width="0.4"/>
<line x1="140.721" y1="21.829" x2="143.885" y2="29.29" stroke="#141414" stroke-width="0.4"/>
<line x1="51.9" y1="85.935" x2="50.081" y2="79.667" stroke="#141414" stroke-width="0.4"/>
<line x1="50.081" y1="79.667" x2="61.064" y2="64.892" stroke="#141414" stroke-width="0.4"/>
<line x1="61.064" y1="64.892" x2="67.591" y2="64.829" stroke="#141414" stroke-width="0.4"/>
<line x1="109.727" y1="111.282" x2="113.615" y2="110.427" stroke="#141414" stroke-width="0.4"/>
<line x1="113.615" y1="110.427" x2="107.309" y2="101.199" stroke="#141414" stroke-width="0.4"/>
<line x1="107.309" y1="101.199" x2="100.969" y2="98.466" stroke="#141414" stroke-width="0.4"/>
<line x1="160.728" y1="55.996" x2="162.6" y2="49.216" stroke="#141414" stroke-width="0.4"/>
<line x1="162.6" y1="49.216" x2="150.81" y2="30.522" stroke="#141414" stroke-width="0.4"/>
<line x1="150.81" y1="30.522" x2="143.885" y2="29.29" stroke="#141414" stroke-width="0.4"/>
<line x1="115.26" y1="104.527" x2="120.142" y2="100.052" stroke="#141414" stroke-width="0.4"/>
<line x1="120.142" y1="100.052" x2="118.723" y2="80.971" stroke="#141414" stroke-width="0.4"/>
<line x1="118.723" y1="80.971" x2="113.233" y2="77.267" stroke="#141414" stroke-width="0.4"/>
<circle cx="98.687" cy="18.435" r="1.62" fill="#ffe082" stroke="#464646" stroke-width="0.2"/>
<text x="98.687" y="18.99" font-size="1.59" text-anchor="middle" fill="#141414">16</text>
<circle cx="88.6" cy="36.718" r="1.62" fill="#ffe082" stroke="#464646" stroke-width="0.2"/>
<text x="88.6" y="37.28" font-size="1.59" text-anchor="middle" fill="#141414">17</text>
<circle cx="126.627" cy="17.536" r="1.62" fill="#ffe082" stroke="#464646" stroke-width="0.2"/>
<text x="126.627" y="18.09" font-size="1.59" text-anchor="middle" fill="#141414">20</text>
<circle cx="57.659" cy="73.831" r="1.62" fill="#99d9fa" stroke="#464646" stroke-width="0.2"/>
<text x="57.659" y="74.39" font-size="1.59" text-anchor="middle" fill="#141414">21</text>
<circle cx="107.905" cy="105.344" r="1.62" fill="#ffe082" stroke="#464646" stroke-width="0.2"/>
<text x="107.905" y="105.90" font-size="1.59" text-anchor="middle" fill="#141414">22</text>
<circle cx="154.506" cy="41.256" r="1.62" fill="#ffe082" stroke="#464646" stroke-width="0.2"/>
<text x="154.506" y="41.81" font-size="1.59" text-anchor="middle" fill="#141414">23</text>
<circle cx="116.839" cy="90.704" r="1.62" fill="#ffe082" stroke="#464646" stroke-width="0.2"/>
<text x="116.839" y="91.26" font-size="1.59" text-anchor="middle" fill="#141414">24</text>
<circle cx="65.785" cy="46.325" r="4.60" fill="#eaf1fe" stroke="#2e78e6" stroke-width="0.3"/>
<text x="65.785" y="48.12" font-size="5.20" text-anchor="middle" fill="#14306e" font-weight="bold">17</text>
<text x="205.0" y="295.0" font-size="3.2" text-anchor="end" fill="#737373" font-family="sans-serif">7 / 7</text>
</svg>
