<svg xmlns="http://www.w3.org/2000/svg" xmlns:xlink="http://www.w3.org/1999/xlink" width="210.00mm" height="297.00mm" viewBox="0 0 210.00 297.00">
<rect x="0" y="0" width="210.00" height="297.00" fill="#ffffff" stroke="#cccccc" stroke-width="0.2"/>
<polygon points="39.663,78.151 35.795,85.151 17.743,85.151 13.874,78.151" fill="rgb(216,216,216)"/>
<polygon points="39.663,54.47 35.795,47.47 17.743,47.47 13.874,54.47" fill="rgb(216,216,216)"/>
<polygon points="56.955,78.151 63.955,74.599 63.955,58.022 56.955,54.47" fill="rgb(216,216,216)"/>
<polygon points="56.955,78.151 63.955,82.02 63.955,100.072 56.955,103.94" fill="rgb(216,216,216)"/>
<polygon points="56.955,54.47 63.955,50.602 63.955,32.55 56.955,28.682" fill="rgb(216,216,216)"/>
<polygon points="13.874,78.151 6.874,74.599 6.874,58.022 13.874,54.47" fill="rgb(216,216,216)"/>
<polygon points="39.663,103.94 42.257,110.94 54.361,110.94 56.955,103.94" fill="rgb(216,216,216)"/>
<polygon points="39.663,78.151 35.795,85.151 17.743,85.151 13.874,78.151" fill="#99d9fa"/>
<line x1="39.663" y1="78.151" x2="39.663" y2="54.47" stroke="#8c8c8c" stroke-width="0.3" stroke-dasharray="1.2,0.8"/>
<line x1="56.955" y1="78.151" x2="39.663" y2="78.151" stroke="#8c8c8c" stroke-width="0.3" stroke-dasharray="1.2,0.8"/>
<line x1="39.663" y1="54.47" x2="56.955" y2="54.47" stroke="#8c8c8c" stroke-width="0.3" stroke-dasharray="1.2,0.8"/>
<line x1="39.663" y1="28.681" x2="56.955" y2="28.681" stroke="#8c8c8c" stroke-width="0.3" stroke-dasharray="1.2,0.8"/>
<line x1="56.955" y1="28.681" x2="56.955" y2="5.0" stroke="#8c8c8c" stroke-width="0.3" stroke-dasharray="1.2,0.8"/>
<line x1="13.874" y1="78.151" x2="39.663" y2="78.151" stroke="#8c8c8c" stroke-width="0.3" stroke-dasharray="1.2,0.8"/>
<line x1="13.874" y1="54.47" x2="39.663" y2="54.47" stroke="#8c8c8c" stroke-width="0.3" stroke-dasharray="1.2,0.8"/>
<line x1="56.955" y1="54.47" x2="56.955" y2="78.151" stroke="#8c8c8c" stroke-width="0.3" stroke-dasharray="1.2,0.8"/>
<line x1="56.955" y1="103.94" x2="56.955" y2="78.151" stroke="#8c8c8c" stroke-width="0.3" stroke-dasharray="1.2,0.8"/>
<line x1="56.955" y1="28.682" x2="56.955" y2="54.47" stroke="#8c8c8c" stroke-width="0.3" stroke-dasharray="1.2,0.8"/>
<line x1="13.874" y1="54.47" x2="13.874" y2="78.151" stroke="#8c8c8c" stroke-width="0.3" stroke-dasharray="1.2,0.8"/>
<line x1="56.955" y1="103.94" x2="39.663" y2="103.94" stroke="#8c8c8c" stroke-width="0.3" stroke-dasharray="1.2,0.8"/>
<line x1="39.663" y1="103.94" x2="39.663" y2="78.151" stroke="#141414" stroke-width="0.4"/>
<line x1="39.663" y1="54.47" x2="39.663" y2="28.681" stroke="#141414" stroke-width="0.4"/>
<line x1="82.744" y1="5.0" x2="82.744" y2="28.681" stroke="#141414" stroke-width="0.4"/>
<line x1="56.955" y1="5.0" x2="82.744" y2="5.0" stroke="#141414" stroke-width="0.4"/>
<line x1="82.744" y1="28.681" x2="56.955" y2="28.681" stroke="#141414" stroke-width="0.4"/>
<line x1="39.663" y1="28.681" x2="39.663" y2="5.0" stroke="#141414" stroke-width="0.4"/>
<line x1="39.663" y1="5.0" x2="56.955" y2="5.0" stroke="#141414" stroke-width="0.4"/>
<line x1="39.663" y1="78.151" x2="35.795" y2="85.151" stroke="#141414" stroke-width="0.4"/>
<line x1="35.795" y1="85.151" x2="17.743" y2="85.151" stroke="#141414" stroke-width="0.4"/>
<line x1="17.743" y1="85.151" x2="13.874" y2="78.151" stroke="#141414" stroke-width="0.4"/>
<line x1="39.663" y1="54.47" x2="35.795" y2="47.47" stroke="#141414" stroke-width="0.4"/>
<line x1="35.795" y1="47.47" x2="17.743" y2="47.47" stroke="#141414" stroke-width="0.4"/>
<line x1="17.743" y1="47.47" x2="13.874" y2="54.47" stroke="#141414" stroke-width="0.4"/>
<line x1="56.955" y1="78.151" x2="63.955" y2="74.599" stroke="#141414" stroke-width="0.4"/>
<line x1="63.955" y1="74.599" x2="63.955" y2="58.022" stroke="#141414" stroke-width="0.4"/>
<line x1="63.955" y1="58.022" x2="56.955" y2="54.47" stroke="#141414" stroke-width="0.4"/>
<line x1="56.955" y1="78.151" x2="63.955" y2="82.02" stroke="#141414" stroke-width="0.4"/>
<line x1="63.955" y1="82.02" x2="63.955" y2="100.072" stroke="#141414" stroke-width="0.4"/>
<line x1="63.955" y1="100.072" x2="56.955" y2="103.94" stroke="#141414" stroke-width="0.4"/>
<line x1="56.955" y1="54.47" x2="63.955" y2="50.602" stroke="#141414" stroke-width="0.4"/>
<line x1="63.955" y1="50.602" x2="63.955" y2="32.55" stroke="#141414" stroke-width="0.4"/>
<line x1="63.955" y1="32.55" x2="56.955" y2="28.682" stroke="#141414" stroke-width="0.4"/>
<line x1="13.874" y1="78.151" x2="6.874" y2="74.599" stroke="#141414" stroke-width="0.4"/>
<line x1="6.874" y1="74.599" x2="6.874" y2="58.022" stroke="#141414" stroke-width="0.4"/>
<line x1="6.874" y1="58.022" x2="13.874" y2="54.47" stroke="#141414" stroke-width="0.4"/>
<line x1="39.663" y1="103.94" x2="42.257" y2="110.94" stroke="#141414" stroke-width="0.4"/>
<line x1="42.257" y1="110.94" x2="54.361" y2="110.94" stroke="#141414" stroke-width="0.4"/>
<line x1="54.361" y1="110.94" x2="56.955" y2="103.94" stroke="#141414" stroke-width="0.4"/>
<circle cx="26.769" cy="81.651" r="2.40" fill="#99d9fa" stroke="#464646" stroke-width="0.2"/>
<text x="26.769" y="82.47" font-size="2.35" text-anchor="middle" fill="#141414">103</text>
<circle cx="26.769" cy="50.97" r="2.40" fill="#ffe082" stroke="#464646" stroke-width="0.2"/>
<text x="26.769" y="51.79" font-size="2.35" text-anchor="middle" fill="#141414">104</text>
<circle cx="60.455" cy="66.311" r="2.40" fill="#ffe082" stroke="#464646" stroke-width="0.2"/>
<text x="60.455" y="67.13" font-size="2.35" text-anchor="middle" fill="#141414">105</text>
<circle cx="60.455" cy="91.046" r="2.40" fill="#ffe082" stroke="#464646" stroke-width="0.2"/>
<text x="60.455" y="91.87" font-size="2.35" text-anchor="middle" fill="#141414">106</text>
<circle cx="60.455" cy="41.576" r="2.40" fill="#ffe082" stroke="#464646" stroke-width="0.2"/>
<text x="60.455" y="42.40" font-size="2.35" text-anchor="middle" fill="#141414">107</text>
<circle cx="10.374" cy="66.311" r="2.40" fill="#ffe082" stroke="#464646" stroke-width="0.2"/>
<text x="10.374" y="67.13" font-size="2.35" text-anchor="middle" fill="#141414">108</text>
<circle cx="48.309" cy="107.44" r="2.40" fill="#ffe082" stroke="#464646" stroke-width="0.2"/>
<text x="48.309" y="108.26" font-size="2.35" text-anchor="middle" fill="#141414">109</text>
<circle cx="51.191" cy="95.344" r="3.83" fill="#eaf1fe" stroke="#2e78e6" stroke-width="0.3"/>
<text x="51.191" y="96.84" font-size="4.33" text-anchor="middle" fill="#14306e" font-weight="bold">11</text>
<text x="205.0" y="295.0" font-size="3.2" text-anchor="end" fill="#737373" font-family="sans-serif">4 / 4</text>
</svg>
