<svg xmlns="http://www.w3.org/2000/svg" xmlns:xlink="http://www.w3.org/1999/xlink" width="210.00mm" height="297.00mm" viewBox="0 0 210.00 297.00">
<rect x="0" y="0" width="210.00" height="297.00" fill="#ffffff" stroke="#cccccc" stroke-width="0.2"/>
<polygon points="74.231,131.923 79.423,138.923 103.654,138.923 108.846,131.923" fill="rgb(216,216,216)"/>
<polygon points="74.231,85.769 79.423,78.769 103.654,78.769 108.846,85.769" fill="rgb(216,216,216)"/>
<polygon points="108.846,131.923 115.846,125.0 115.846,92.692 108.846,85.769" fill="rgb(216,216,216)"/>
<polygon points="74.231,166.538 69.038,173.538 44.808,173.538 39.615,166.538" fill="rgb(216,216,216)"/>
<polygon points="39.615,131.923 32.615,125.0 32.615,92.692 39.615,85.769" fill="rgb(216,216,216)"/>
<polygon points="39.615,131.923 32.615,137.115 32.615,161.346 39.615,166.538" fill="rgb(216,216,216)"/>
<polygon points="39.615,85.769 32.615,80.577 32.615,56.346 39.615,51.154" fill="rgb(216,216,216)"/>
<line x1="74.231" y1="131.923" x2="74.231" y2="85.769" stroke="#8c8c8c" stroke-width="0.3" stroke-dasharray="1.2,0.8"/>
<line x1="74.231" y1="131.923" x2="39.615" y2="131.923" stroke="#8c8c8c" stroke-width="0.3" stroke-dasharray="1.2,0.8"/>
<line x1="39.615" y1="85.769" x2="74.231" y2="85.769" stroke="#8c8c8c" stroke-width="0.3" stroke-dasharray="1.2,0.8"/>
<line x1="39.615" y1="51.154" x2="74.231" y2="51.154" stroke="#8c8c8c" stroke-width="0.3" stroke-dasharray="1.2,0.8"/>
<line x1="39.615" y1="51.154" x2="39.615" y2="5.0" stroke="#8c8c8c" stroke-width="0.3" stroke-dasharray="1.2,0.8"/>
<line x1="108.846" y1="131.923" x2="74.231" y2="131.923" stroke="#8c8c8c" stroke-width="0.3" stroke-dasharray="1.2,0.8"/>
<line x1="108.846" y1="85.769" x2="74.231" y2="85.769" stroke="#8c8c8c" stroke-width="0.3" stroke-dasharray="1.2,0.8"/>
<line x1="108.846" y1="85.769" x2="108.846" y2="131.923" stroke="#8c8c8c" stroke-width="0.3" stroke-dasharray="1.2,0.8"/>
<line x1="39.615" y1="166.538" x2="74.231" y2="166.538" stroke="#8c8c8c" stroke-width="0.3" stroke-dasharray="1.2,0.8"/>
<line x1="39.615" y1="85.769" x2="39.615" y2="131.923" stroke="#8c8c8c" stroke-width="0.3" stroke-dasharray="1.2,0.8"/>
<line x1="39.615" y1="166.538" x2="39.615" y2="131.923" stroke="#8c8c8c" stroke-width="0.3" stroke-dasharray="1.2,0.8"/>
<line x1="39.615" y1="51.154" x2="39.615" y2="85.769" stroke="#8c8c8c" stroke-width="0.3" stroke-dasharray="1.2,0.8"/>
<line x1="74.231" y1="131.923" x2="74.231" y2="166.538" stroke="#141414" stroke-width="0.4"/>
<line x1="74.231" y1="51.154" x2="74.231" y2="85.769" stroke="#141414" stroke-width="0.4"/>
<line x1="74.231" y1="5.0" x2="74.231" y2="51.154" stroke="#141414" stroke-width="0.4"/>
<line x1="39.615" y1="5.0" x2="74.231" y2="5.0" stroke="#141414" stroke-width="0.4"/>
<line x1="5.0" y1="51.154" x2="5.0" y2="5.0" stroke="#141414" stroke-width="0.4"/>
<line x1="5.0" y1="5.0" x2="39.615" y2="5.0" stroke="#141414" stroke-width="0.4"/>
<line x1="39.615" y1="51.154" x2="5.0" y2="51.154" stroke="#141414" stroke-width="0.4"/>
<line x1="74.231" y1="131.923" x2="79.423" y2="138.923" stroke="#141414" stroke-width="0.4"/>
<line x1="79.423" y1="138.923" x2="103.654" y2="138.923" stroke="#141414" stroke-width="0.4"/>
<line x1="103.654" y1="138.923" x2="108.846" y2="131.923" stroke="#141414" stroke-width="0.4"/>
<line x1="74.231" y1="85.769" x2="79.423" y2="78.769" stroke="#141414" stroke-width="0.4"/>
<line x1="79.423" y1="78.769" x2="103.654" y2="78.769" stroke="#141414" stroke-width="0.4"/>
<line x1="103.654" y1="78.769" x2="108.846" y2="85.769" stroke="#141414" stroke-width="0.4"/>
<line x1="108.846" y1="131.923" x2="115.846" y2="125.0" stroke="#141414" stroke-width="0.4"/>
<line x1="115.846" y1="125.0" x2="115.846" y2="92.692" stroke="#141414" stroke-width="0.4"/>
<line x1="115.846" y1="92.692" x2="108.846" y2="85.769" stroke="#141414" stroke-width="0.4"/>
<line x1="74.231" y1="166.538" x2="69.038" y2="173.538" stroke="#141414" stroke-width="0.4"/>
<line x1="69.038" y1="173.538" x2="44.808" y2="173.538" stroke="#141414" stroke-width="0.4"/>
<line x1="44.808" y1="173.538" x2="39.615" y2="166.538" stroke="#141414" stroke-width="0.4"/>
<line x1="39.615" y1="131.923" x2="32.615" y2="125.0" stroke="#141414" stroke-width="0.4"/>
<line x1="32.615" y1="125.0" x2="32.615" y2="92.692" stroke="#141414" stroke-width="0.4"/>
<line x1="32.615" y1="92.692" x2="39.615" y2="85.769" stroke="#141414" stroke-width="0.4"/>
<line x1="39.615" y1="131.923" x2="32.615" y2="137.115" stroke="#141414" stroke-width="0.4"/>
<line x1="32.615" y1="137.115" x2="32.615" y2="161.346" stroke="#141414" stroke-width="0.4"/>
<line x1="32.615" y1="161.346" x2="39.615" y2="166.538" stroke="#141414" stroke-width="0.4"/>
<line x1="39.615" y1="85.769" x2="32.615" y2="80.577" stroke="#141414" stroke-width="0.4"/>
<line x1="32.615" y1="80.577" x2="32.615" y2="56.346" stroke="#141414" stroke-width="0.4"/>
<line x1="32.615" y1="56.346" x2="39.615" y2="51.154" stroke="#141414" stroke-width="0.4"/>
<circle cx="91.538" cy="135.423" r="3.08" fill="#ffe082" stroke="#464646" stroke-width="0.2"/>
<text x="91.538" y="136.89" font-size="4.18" text-anchor="middle" fill="#141414">16</text>
<circle cx="91.538" cy="82.269" r="3.08" fill="#ffe082" stroke="#464646" stroke-width="0.2"/>
<text x="91.538" y="83.73" font-size="4.18" text-anchor="middle" fill="#141414">17</text>
<circle cx="112.346" cy="108.846" r="3.08" fill="#ffe082" stroke="#464646" stroke-width="0.2"/>
<text x="112.346" y="110.31" font-size="4.18" text-anchor="middle" fill="#141414">18</text>
<circle cx="56.923" cy="170.038" r="3.08" fill="#ffe082" stroke="#464646" stroke-width="0.2"/>
<text x="56.923" y="171.50" font-size="4.18" text-anchor="middle" fill="#141414">19</text>
<circle cx="36.115" cy="108.846" r="3.08" fill="#ffe082" stroke="#464646" stroke-width="0.2"/>
<text x="36.115" y="110.31" font-size="4.18" text-anchor="middle" fill="#141414">20</text>
<circle cx="36.115" cy="149.231" r="3.08" fill="#ffe082" stroke="#464646" stroke-width="0.2"/>
<text x="36.115" y="150.69" font-size="4.18" text-anchor="middle" fill="#141414">21</text>
<circle cx="36.115" cy="68.462" r="3.08" fill="#ffe082" stroke="#464646" stroke-width="0.2"/>
<text x="36.115" y="69.92" font-size="4.18" text-anchor="middle" fill="#141414">22</text>
<circle cx="60.423" cy="179.638" r="4.6" fill="#eaf1fe" stroke="#2e78e6" stroke-width="0.3"/>
<text x="60.423" y="181.43800000000002" font-size="5.2" text-anchor="middle" fill="#14306e" font-weight="bold">4</text>
</svg>
