<svg xmlns="http://www.w3.org/2000/svg" xmlns:xlink="http://www.w3.org/1999/xlink" width="210.00mm" height="297.00mm" viewBox="0 0 210.00 297.00">
<rect x="0" y="0" width="210.00" height="297.00" fill="#ffffff" stroke="#cccccc" stroke-width="0.2"/>
<polygon points="156.231,190.846 160.558,197.846 180.75,197.846 185.077,190.846" fill="rgb(216,216,216)"/>
<polygon points="156.231,190.846 134.596,197.846 33.635,197.846 12.0,190.846" fill="rgb(216,216,216)"/>
<polygon points="156.231,156.231 134.596,149.231 33.635,149.231 12.0,156.231" fill="rgb(216,216,216)"/>
<polygon points="185.077,190.846 192.077,185.654 192.077,161.423 185.077,156.231" fill="rgb(216,216,216)"/>
<polygon points="185.077,156.231 192.077,134.596 192.077,33.635 185.077,12.0" fill="rgb(216,216,216)"/>
<polygon points="12.0,190.846 5.0,185.654 5.0,161.423 12.0,156.231" fill="rgb(216,216,216)"/>
<polygon points="156.231,12.0 160.558,5.0 180.75,5.0 185.077,12.0" fill="rgb(216,216,216)"/>
<line x1="156.231" y1="190.846" x2="156.231" y2="156.231" stroke="#8c8c8c" stroke-width="0.3" stroke-dasharray="1.2,0.8"/>
<line x1="156.231" y1="156.231" x2="185.077" y2="156.231" stroke="#8c8c8c" stroke-width="0.3" stroke-dasharray="1.2,0.8"/>
<line x1="185.077" y1="190.846" x2="156.231" y2="190.846" stroke="#8c8c8c" stroke-width="0.3" stroke-dasharray="1.2,0.8"/>
<line x1="12.0" y1="190.846" x2="156.231" y2="190.846" stroke="#8c8c8c" stroke-width="0.3" stroke-dasharray="1.2,0.8"/>
<line x1="12.0" y1="156.231" x2="156.231" y2="156.231" stroke="#8c8c8c" stroke-width="0.3" stroke-dasharray="1.2,0.8"/>
<line x1="185.077" y1="156.231" x2="185.077" y2="190.846" stroke="#8c8c8c" stroke-width="0.3" stroke-dasharray="1.2,0.8"/>
<line x1="185.077" y1="12.0" x2="185.077" y2="156.231" stroke="#8c8c8c" stroke-width="0.3" stroke-dasharray="1.2,0.8"/>
<line x1="12.0" y1="156.231" x2="12.0" y2="190.846" stroke="#8c8c8c" stroke-width="0.3" stroke-dasharray="1.2,0.8"/>
<line x1="185.077" y1="12.0" x2="156.231" y2="12.0" stroke="#8c8c8c" stroke-width="0.3" stroke-dasharray="1.2,0.8"/>
<line x1="156.231" y1="156.231" x2="156.231" y2="12.0" stroke="#141414" stroke-width="0.4"/>
<line x1="156.231" y1="190.846" x2="160.558" y2="197.846" stroke="#141414" stroke-width="0.4"/>
<line x1="160.558" y1="197.846" x2="180.75" y2="197.846" stroke="#141414" stroke-width="0.4"/>
<line x1="180.75" y1="197.846" x2="185.077" y2="190.846" stroke="#141414" stroke-width="0.4"/>
<line x1="156.231" y1="190.846" x2="134.596" y2="197.846" stroke="#141414" stroke-width="0.4"/>
<line x1="134.596" y1="197.846" x2="33.635" y2="197.846" stroke="#141414" stroke-width="0.4"/>
<line x1="33.635" y1="197.846" x2="12.0" y2="190.846" stroke="#141414" stroke-width="0.4"/>
<line x1="156.231" y1="156.231" x2="134.596" y2="149.231" stroke="#141414" stroke-width="0.4"/>
<line x1="134.596" y1="149.231" x2="33.635" y2="149.231" stroke="#141414" stroke-width="0.4"/>
<line x1="33.635" y1="149.231" x2="12.0" y2="156.231" stroke="#141414" stroke-width="0.4"/>
<line x1="185.077" y1="190.846" x2="192.077" y2="185.654" stroke="#141414" stroke-width="0.4"/>
<line x1="192.077" y1="185.654" x2="192.077" y2="161.423" stroke="#141414" stroke-width="0.4"/>
<line x1="192.077" y1="161.423" x2="185.077" y2="156.231" stroke="#141414" stroke-width="0.4"/>
<line x1="185.077" y1="156.231" x2="192.077" y2="134.596" stroke="#141414" stroke-width="0.4"/>
<line x1="192.077" y1="134.596" x2="192.077" y2="33.635" stroke="#141414" stroke-width="0.4"/>
<line x1="192.077" y1="33.635" x2="185.077" y2="12.0" stroke="#141414" stroke-width="0.4"/>
<line x1="12.0" y1="190.846" x2="5.0" y2="185.654" stroke="#141414" stroke-width="0.4"/>
<line x1="5.0" y1="185.654" x2="5.0" y2="161.423" stroke="#141414" stroke-width="0.4"/>
<line x1="5.0" y1="161.423" x2="12.0" y2="156.231" stroke="#141414" stroke-width="0.4"/>
<line x1="156.231" y1="12.0" x2="160.558" y2="5.0" stroke="#141414" stroke-width="0.4"/>
<line x1="160.558" y1="5.0" x2="180.75" y2="5.0" stroke="#141414" stroke-width="0.4"/>
<line x1="180.75" y1="5.0" x2="185.077" y2="12.0" stroke="#141414" stroke-width="0.4"/>
<circle cx="170.654" cy="194.346" r="3.08" fill="#ffe082" stroke="#464646" stroke-width="0.2"/>
<text x="170.654" y="195.81" font-size="4.18" text-anchor="middle" fill="#141414">1</text>
<circle cx="84.115" cy="194.346" r="3.08" fill="#ffe082" stroke="#464646" stroke-width="0.2"/>
<text x="84.115" y="195.81" font-size="4.18" text-anchor="middle" fill="#141414">2</text>
<circle cx="84.115" cy="152.731" r="3.08" fill="#ffe082" stroke="#464646" stroke-width="0.2"/>
<text x="84.115" y="154.19" font-size="4.18" text-anchor="middle" fill="#141414">3</text>
<circle cx="188.577" cy="173.538" r="3.08" fill="#ffe082" stroke="#464646" stroke-width="0.2"/>
<text x="188.577" y="175.00" font-size="4.18" text-anchor="middle" fill="#141414">4</text>
<circle cx="188.577" cy="84.115" r="3.08" fill="#ffe082" stroke="#464646" stroke-width="0.2"/>
<text x="188.577" y="85.58" font-size="4.18" text-anchor="middle" fill="#141414">5</text>
<circle cx="8.5" cy="173.538" r="3.08" fill="#ffe082" stroke="#464646" stroke-width="0.2"/>
<text x="8.5" y="175.00" font-size="4.18" text-anchor="middle" fill="#141414">6</text>
<circle cx="170.654" cy="8.5" r="3.08" fill="#ffe082" stroke="#464646" stroke-width="0.2"/>
<text x="170.654" y="9.96" font-size="4.18" text-anchor="middle" fill="#141414">7</text>
<circle cx="98.538" cy="203.946" r="4.6" fill="#eaf1fe" stroke="#2e78e6" stroke-width="0.3"/>
<text x="98.538" y="205.746" font-size="5.2" text-anchor="middle" fill="#14306e" font-weight="bold">1</text>
</svg>
