<svg xmlns="http://www.w3.org/2000/svg" xmlns:xlink="http://www.w3.org/1999/xlink" width="210.00mm" height="297.00mm" viewBox="0 0 210.00 297.00">
<rect x="0" y="0" width="210.00" height="297.00" fill="#ffffff" stroke="#cccccc" stroke-width="0.2"/>
<polygon points="183.82,54.351 177.115,61.351 145.821,61.351 139.115,54.351" fill="rgb(216,216,216)"/>
<polygon points="5.0,54.351 11.706,61.351 42.999,61.351 49.705,54.351" fill="rgb(216,216,216)"/>
<polygon points="49.705,54.351 56.411,61.351 87.704,61.351 94.41,54.351" fill="rgb(216,216,216)"/>
<polygon points="94.41,54.351 101.116,61.351 132.409,61.351 139.115,54.351" fill="rgb(216,216,216)"/>
<line x1="49.705" y1="5.0" x2="49.705" y2="54.351" stroke="#8c8c8c" stroke-width="0.3" stroke-dasharray="1.2,0.8"/>
<line x1="94.41" y1="5.0" x2="94.41" y2="54.351" stroke="#8c8c8c" stroke-width="0.3" stroke-dasharray="1.2,0.8"/>
<line x1="139.115" y1="5.0" x2="139.115" y2="54.351" stroke="#8c8c8c" stroke-width="0.3" stroke-dasharray="1.2,0.8"/>
<line x1="139.115" y1="54.351" x2="183.82" y2="54.351" stroke="#8c8c8c" stroke-width="0.3" stroke-dasharray="1.2,0.8"/>
<line x1="49.705" y1="54.351" x2="5.0" y2="54.351" stroke="#8c8c8c" stroke-width="0.3" stroke-dasharray="1.2,0.8"/>
<line x1="94.41" y1="54.351" x2="49.705" y2="54.351" stroke="#8c8c8c" stroke-width="0.3" stroke-dasharray="1.2,0.8"/>
<line x1="139.115" y1="54.351" x2="94.41" y2="54.351" stroke="#8c8c8c" stroke-width="0.3" stroke-dasharray="1.2,0.8"/>
<line x1="183.82" y1="5.0" x2="183.82" y2="54.351" stroke="#141414" stroke-width="0.4"/>
<line x1="139.115" y1="5.0" x2="183.82" y2="5.0" stroke="#141414" stroke-width="0.4"/>
<line x1="5.0" y1="54.351" x2="5.0" y2="5.0" stroke="#141414" stroke-width="0.4"/>
<line x1="5.0" y1="5.0" x2="49.705" y2="5.0" stroke="#141414" stroke-width="0.4"/>
<line x1="49.705" y1="5.0" x2="94.41" y2="5.0" stroke="#141414" stroke-width="0.4"/>
<line x1="94.41" y1="5.0" x2="139.115" y2="5.0" stroke="#141414" stroke-width="0.4"/>
<line x1="183.82" y1="54.351" x2="177.115" y2="61.351" stroke="#141414" stroke-width="0.4"/>
<line x1="177.115" y1="61.351" x2="145.821" y2="61.351" stroke="#141414" stroke-width="0.4"/>
<line x1="145.821" y1="61.351" x2="139.115" y2="54.351" stroke="#141414" stroke-width="0.4"/>
<line x1="5.0" y1="54.351" x2="11.706" y2="61.351" stroke="#141414" stroke-width="0.4"/>
<line x1="11.706" y1="61.351" x2="42.999" y2="61.351" stroke="#141414" stroke-width="0.4"/>
<line x1="42.999" y1="61.351" x2="49.705" y2="54.351" stroke="#141414" stroke-width="0.4"/>
<line x1="49.705" y1="54.351" x2="56.411" y2="61.351" stroke="#141414" stroke-width="0.4"/>
<line x1="56.411" y1="61.351" x2="87.704" y2="61.351" stroke="#141414" stroke-width="0.4"/>
<line x1="87.704" y1="61.351" x2="94.41" y2="54.351" stroke="#141414" stroke-width="0.4"/>
<line x1="94.41" y1="54.351" x2="101.116" y2="61.351" stroke="#141414" stroke-width="0.4"/>
<line x1="101.116" y1="61.351" x2="132.409" y2="61.351" stroke="#141414" stroke-width="0.4"/>
<line x1="132.409" y1="61.351" x2="139.115" y2="54.351" stroke="#141414" stroke-width="0.4"/>
<circle cx="161.468" cy="57.851" r="1.93" fill="#ffe082" stroke="#464646" stroke-width="0.2"/>
<text x="161.468" y="58.77" font-size="2.62" text-anchor="middle" fill="#141414">23</text>
<circle cx="27.353" cy="57.851" r="1.93" fill="#ffe082" stroke="#464646" stroke-width="0.2"/>
<text x="27.353" y="58.77" font-size="2.62" text-anchor="middle" fill="#141414">24</text>
<circle cx="72.058" cy="57.851" r="1.93" fill="#ffe082" stroke="#464646" stroke-width="0.2"/>
<text x="72.058" y="58.77" font-size="2.62" text-anchor="middle" fill="#141414">25</text>
<circle cx="116.763" cy="57.851" r="1.93" fill="#ffe082" stroke="#464646" stroke-width="0.2"/>
<text x="116.763" y="58.77" font-size="2.62" text-anchor="middle" fill="#141414">26</text>
<circle cx="19.902" cy="21.45" r="4.60" fill="#eaf1fe" stroke="#2e78e6" stroke-width="0.3"/>
<text x="19.902" y="23.25" font-size="5.20" text-anchor="middle" fill="#14306e" font-weight="bold">4</text>
<polygon points="39.241,75.326 37.068,71.292 41.413,66.947 45.447,69.119" fill="rgb(216,216,216)"/>
<polygon points="13.069,101.498 10.896,105.532 15.241,109.877 19.275,107.705" fill="rgb(216,216,216)"/>
<polygon points="13.069,101.498 9.034,103.67 4.69,99.326 6.862,95.291" fill="rgb(216,216,216)"/>
<polygon points="45.447,81.533 49.482,83.705 53.826,79.36 51.654,75.326" fill="rgb(216,216,216)"/>
<polygon points="19.275,107.705 17.103,111.739 21.448,116.084 25.482,113.911" fill="rgb(216,216,216)"/>
<polygon points="51.654,75.326 53.827,71.292 49.482,66.947 45.447,69.119" fill="rgb(216,216,216)"/>
<polygon points="57.861,93.946 58.885,102.822 40.564,121.142 31.689,120.118" fill="rgb(216,216,216)"/>
<polygon points="39.241,75.326 37.068,71.292 41.413,66.947 45.447,69.119" fill="#99d9fa"/>
<line x1="13.069" y1="101.498" x2="39.241" y2="75.326" stroke="#8c8c8c" stroke-width="0.3" stroke-dasharray="1.2,0.8"/>
<line x1="45.447" y1="81.533" x2="39.241" y2="75.326" stroke="#8c8c8c" stroke-width="0.3" stroke-dasharray="1.2,0.8"/>
<line x1="45.447" y1="81.533" x2="19.275" y2="107.705" stroke="#8c8c8c" stroke-width="0.3" stroke-dasharray="1.2,0.8"/>
<line x1="51.654" y1="87.739" x2="25.482" y2="113.911" stroke="#8c8c8c" stroke-width="0.3" stroke-dasharray="1.2,0.8"/>
<line x1="31.689" y1="120.118" x2="25.482" y2="113.911" stroke="#8c8c8c" stroke-width="0.3" stroke-dasharray="1.2,0.8"/>
<line x1="45.447" y1="69.119" x2="39.241" y2="75.326" stroke="#8c8c8c" stroke-width="0.3" stroke-dasharray="1.2,0.8"/>
<line x1="19.275" y1="107.705" x2="13.069" y2="101.498" stroke="#8c8c8c" stroke-width="0.3" stroke-dasharray="1.2,0.8"/>
<line x1="6.862" y1="95.291" x2="13.069" y2="101.498" stroke="#8c8c8c" stroke-width="0.3" stroke-dasharray="1.2,0.8"/>
<line x1="51.654" y1="75.326" x2="45.447" y2="81.533" stroke="#8c8c8c" stroke-width="0.3" stroke-dasharray="1.2,0.8"/>
<line x1="25.482" y1="113.911" x2="19.275" y2="107.705" stroke="#8c8c8c" stroke-width="0.3" stroke-dasharray="1.2,0.8"/>
<line x1="45.447" y1="69.119" x2="51.654" y2="75.326" stroke="#8c8c8c" stroke-width="0.3" stroke-dasharray="1.2,0.8"/>
<line x1="31.689" y1="120.118" x2="57.861" y2="93.946" stroke="#8c8c8c" stroke-width="0.3" stroke-dasharray="1.2,0.8"/>
<line x1="33.034" y1="69.119" x2="39.241" y2="75.326" stroke="#141414" stroke-width="0.4"/>
<line x1="25.482" y1="126.325" x2="19.275" y2="120.118" stroke="#141414" stroke-width="0.4"/>
<line x1="31.689" y1="120.118" x2="25.482" y2="126.325" stroke="#141414" stroke-width="0.4"/>
<line x1="45.447" y1="81.533" x2="51.654" y2="87.739" stroke="#141414" stroke-width="0.4"/>
<line x1="19.275" y1="120.118" x2="25.482" y2="113.911" stroke="#141414" stroke-width="0.4"/>
<line x1="51.654" y1="87.739" x2="57.861" y2="93.946" stroke="#141414" stroke-width="0.4"/>
<line x1="6.862" y1="95.291" x2="33.034" y2="69.119" stroke="#141414" stroke-width="0.4"/>
<line x1="39.241" y1="75.326" x2="37.068" y2="71.292" stroke="#141414" stroke-width="0.4"/>
<line x1="37.068" y1="71.292" x2="41.413" y2="66.947" stroke="#141414" stroke-width="0.4"/>
<line x1="41.413" y1="66.947" x2="45.447" y2="69.119" stroke="#141414" stroke-width="0.4"/>
<line x1="13.069" y1="101.498" x2="10.896" y2="105.532" stroke="#141414" stroke-width="0.4"/>
<line x1="10.896" y1="105.532" x2="15.241" y2="109.877" stroke="#141414" stroke-width="0.4"/>
<line x1="15.241" y1="109.877" x2="19.275" y2="107.705" stroke="#141414" stroke-width="0.4"/>
<line x1="13.069" y1="101.498" x2="9.034" y2="103.67" stroke="#141414" stroke-width="0.4"/>
<line x1="9.034" y1="103.67" x2="4.69" y2="99.326" stroke="#141414" stroke-width="0.4"/>
<line x1="4.69" y1="99.326" x2="6.862" y2="95.291" stroke="#141414" stroke-width="0.4"/>
<line x1="45.447" y1="81.533" x2="49.482" y2="83.705" stroke="#141414" stroke-width="0.4"/>
<line x1="49.482" y1="83.705" x2="53.826" y2="79.36" stroke="#141414" stroke-width="0.4"/>
<line x1="53.826" y1="79.36" x2="51.654" y2="75.326" stroke="#141414" stroke-width="0.4"/>
<line x1="19.275" y1="107.705" x2="17.103" y2="111.739" stroke="#141414" stroke-width="0.4"/>
<line x1="17.103" y1="111.739" x2="21.448" y2="116.084" stroke="#141414" stroke-width="0.4"/>
<line x1="21.448" y1="116.084" x2="25.482" y2="113.911" stroke="#141414" stroke-width="0.4"/>
<line x1="51.654" y1="75.326" x2="53.827" y2="71.292" stroke="#141414" stroke-width="0.4"/>
<line x1="53.827" y1="71.292" x2="49.482" y2="66.947" stroke="#141414" stroke-width="0.4"/>
<line x1="49.482" y1="66.947" x2="45.447" y2="69.119" stroke="#141414" stroke-width="0.4"/>
<line x1="57.861" y1="93.946" x2="58.885" y2="102.822" stroke="#141414" stroke-width="0.4"/>
<line x1="58.885" y1="102.822" x2="40.564" y2="121.142" stroke="#141414" stroke-width="0.4"/>
<line x1="40.564" y1="121.142" x2="31.689" y2="120.118" stroke="#141414" stroke-width="0.4"/>
<circle cx="40.792" cy="70.671" r="1.93" fill="#99d9fa" stroke="#464646" stroke-width="0.2"/>
<text x="40.792" y="71.59" font-size="2.62" text-anchor="middle" fill="#141414">51</text>
<circle cx="14.62" cy="106.153" r="1.93" fill="#ffe082" stroke="#464646" stroke-width="0.2"/>
<text x="14.62" y="107.07" font-size="2.62" text-anchor="middle" fill="#141414">52</text>
<circle cx="8.414" cy="99.946" r="1.93" fill="#ffe082" stroke="#464646" stroke-width="0.2"/>
<text x="8.414" y="100.86" font-size="2.62" text-anchor="middle" fill="#141414">53</text>
<circle cx="50.102" cy="79.981" r="1.93" fill="#ffe082" stroke="#464646" stroke-width="0.2"/>
<text x="50.102" y="80.90" font-size="2.62" text-anchor="middle" fill="#141414">54</text>
<circle cx="20.827" cy="112.36" r="1.93" fill="#ffe082" stroke="#464646" stroke-width="0.2"/>
<text x="20.827" y="113.28" font-size="2.62" text-anchor="middle" fill="#141414">55</text>
<circle cx="50.102" cy="70.671" r="1.93" fill="#ffe082" stroke="#464646" stroke-width="0.2"/>
<text x="50.102" y="71.59" font-size="2.62" text-anchor="middle" fill="#141414">56</text>
<circle cx="47.25" cy="109.507" r="1.93" fill="#ffe082" stroke="#464646" stroke-width="0.2"/>
<text x="47.25" y="110.42" font-size="2.62" text-anchor="middle" fill="#141414">57</text>
<circle cx="32.137" cy="103.118" r="2.28" fill="#eaf1fe" stroke="#2e78e6" stroke-width="0.3"/>
<text x="32.137" y="104.01" font-size="2.60" text-anchor="middle" fill="#14306e" font-weight="bold">7</text>
<polygon points="29.675,169.91 31.526,176.079 40.162,176.079 42.013,169.91" fill="rgb(216,216,216)"/>
<polygon points="29.675,154.488 31.526,148.319 40.162,148.319 42.013,154.488" fill="rgb(216,216,216)"/>
<polygon points="42.013,169.91 49.013,167.597 49.013,156.801 42.013,154.488" fill="rgb(216,216,216)"/>
<polygon points="29.675,182.248 27.825,188.416 19.188,188.416 17.338,182.248" fill="rgb(216,216,216)"/>
<polygon points="17.338,169.91 10.338,167.597 10.338,156.801 17.338,154.488" fill="rgb(216,216,216)"/>
<polygon points="17.338,169.91 11.169,171.761 11.169,180.397 17.338,182.248" fill="rgb(216,216,216)"/>
<polygon points="17.338,154.488 11.169,152.637 11.169,144.001 17.338,142.15" fill="rgb(216,216,216)"/>
<polygon points="29.675,169.91 31.526,176.079 40.162,176.079 42.013,169.91" fill="#99d9fa"/>
<line x1="29.675" y1="169.91" x2="29.675" y2="154.488" stroke="#8c8c8c" stroke-width="0.3" stroke-dasharray="1.2,0.8"/>
<line x1="29.675" y1="169.91" x2="17.338" y2="169.91" stroke="#8c8c8c" stroke-width="0.3" stroke-dasharray="1.2,0.8"/>
<line x1="17.338" y1="154.488" x2="29.675" y2="154.488" stroke="#8c8c8c" stroke-width="0.3" stroke-dasharray="1.2,0.8"/>
<line x1="17.338" y1="142.15" x2="29.675" y2="142.15" stroke="#8c8c8c" stroke-width="0.3" stroke-dasharray="1.2,0.8"/>
<line x1="17.338" y1="142.15" x2="17.338" y2="126.728" stroke="#8c8c8c" stroke-width="0.3" stroke-dasharray="1.2,0.8"/>
<line x1="42.013" y1="169.91" x2="29.675" y2="169.91" stroke="#8c8c8c" stroke-width="0.3" stroke-dasharray="1.2,0.8"/>
<line x1="42.013" y1="154.488" x2="29.675" y2="154.488" stroke="#8c8c8c" stroke-width="0.3" stroke-dasharray="1.2,0.8"/>
<line x1="42.013" y1="154.488" x2="42.013" y2="169.91" stroke="#8c8c8c" stroke-width="0.3" stroke-dasharray="1.2,0.8"/>
<line x1="17.338" y1="182.248" x2="29.675" y2="182.248" stroke="#8c8c8c" stroke-width="0.3" stroke-dasharray="1.2,0.8"/>
<line x1="17.338" y1="154.488" x2="17.338" y2="169.91" stroke="#8c8c8c" stroke-width="0.3" stroke-dasharray="1.2,0.8"/>
<line x1="17.338" y1="182.248" x2="17.338" y2="169.91" stroke="#8c8c8c" stroke-width="0.3" stroke-dasharray="1.2,0.8"/>
<line x1="17.338" y1="142.15" x2="17.338" y2="154.488" stroke="#8c8c8c" stroke-width="0.3" stroke-dasharray="1.2,0.8"/>
<line x1="29.675" y1="169.91" x2="29.675" y2="182.248" stroke="#141414" stroke-width="0.4"/>
<line x1="29.675" y1="142.15" x2="29.675" y2="154.488" stroke="#141414" stroke-width="0.4"/>
<line x1="29.675" y1="126.728" x2="29.675" y2="142.15" stroke="#141414" stroke-width="0.4"/>
<line x1="17.338" y1="126.728" x2="29.675" y2="126.728" stroke="#141414" stroke-width="0.4"/>
<line x1="5.0" y1="142.15" x2="5.0" y2="126.728" stroke="#141414" stroke-width="0.4"/>
<line x1="5.0" y1="126.728" x2="17.338" y2="126.728" stroke="#141414" stroke-width="0.4"/>
<line x1="17.338" y1="142.15" x2="5.0" y2="142.15" stroke="#141414" stroke-width="0.4"/>
<line x1="29.675" y1="169.91" x2="31.526" y2="176.079" stroke="#141414" stroke-width="0.4"/>
<line x1="31.526" y1="176.079" x2="40.162" y2="176.079" stroke="#141414" stroke-width="0.4"/>
<line x1="40.162" y1="176.079" x2="42.013" y2="169.91" stroke="#141414" stroke-width="0.4"/>
<line x1="29.675" y1="154.488" x2="31.526" y2="148.319" stroke="#141414" stroke-width="0.4"/>
<line x1="31.526" y1="148.319" x2="40.162" y2="148.319" stroke="#141414" stroke-width="0.4"/>
<line x1="40.162" y1="148.319" x2="42.013" y2="154.488" stroke="#141414" stroke-width="0.4"/>
<line x1="42.013" y1="169.91" x2="49.013" y2="167.597" stroke="#141414" stroke-width="0.4"/>
<line x1="49.013" y1="167.597" x2="49.013" y2="156.801" stroke="#141414" stroke-width="0.4"/>
<line x1="49.013" y1="156.801" x2="42.013" y2="154.488" stroke="#141414" stroke-width="0.4"/>
<line x1="29.675" y1="182.248" x2="27.825" y2="188.416" stroke="#141414" stroke-width="0.4"/>
<line x1="27.825" y1="188.416" x2="19.188" y2="188.416" stroke="#141414" stroke-width="0.4"/>
<line x1="19.188" y1="188.416" x2="17.338" y2="182.248" stroke="#141414" stroke-width="0.4"/>
<line x1="17.338" y1="169.91" x2="10.338" y2="167.597" stroke="#141414" stroke-width="0.4"/>
<line x1="10.338" y1="167.597" x2="10.338" y2="156.801" stroke="#141414" stroke-width="0.4"/>
<line x1="10.338" y1="156.801" x2="17.338" y2="154.488" stroke="#141414" stroke-width="0.4"/>
<line x1="17.338" y1="169.91" x2="11.169" y2="171.761" stroke="#141414" stroke-width="0.4"/>
<line x1="11.169" y1="171.761" x2="11.169" y2="180.397" stroke="#141414" stroke-width="0.4"/>
<line x1="11.169" y1="180.397" x2="17.338" y2="182.248" stroke="#141414" stroke-width="0.4"/>
<line x1="17.338" y1="154.488" x2="11.169" y2="152.637" stroke="#141414" stroke-width="0.4"/>
<line x1="11.169" y1="152.637" x2="11.169" y2="144.001" stroke="#141414" stroke-width="0.4"/>
<line x1="11.169" y1="144.001" x2="17.338" y2="142.15" stroke="#141414" stroke-width="0.4"/>
<circle cx="35.844" cy="172.995" r="1.93" fill="#99d9fa" stroke="#464646" stroke-width="0.2"/>
<text x="35.844" y="173.91" font-size="2.62" text-anchor="middle" fill="#141414">58</text>
<circle cx="35.844" cy="151.404" r="1.93" fill="#ffe082" stroke="#464646" stroke-width="0.2"/>
<text x="35.844" y="152.32" font-size="2.62" text-anchor="middle" fill="#141414">59</text>
<circle cx="45.513" cy="162.199" r="1.93" fill="#ffe082" stroke="#464646" stroke-width="0.2"/>
<text x="45.513" y="163.12" font-size="2.62" text-anchor="middle" fill="#141414">60</text>
<circle cx="23.506" cy="185.332" r="1.93" fill="#ffe082" stroke="#464646" stroke-width="0.2"/>
<text x="23.506" y="186.25" font-size="2.62" text-anchor="middle" fill="#141414">61</text>
<circle cx="13.838" cy="162.199" r="1.93" fill="#ffe082" stroke="#464646" stroke-width="0.2"/>
<text x="13.838" y="163.12" font-size="2.62" text-anchor="middle" fill="#141414">62</text>
<circle cx="14.253" cy="176.079" r="1.93" fill="#ffe082" stroke="#464646" stroke-width="0.2"/>
<text x="14.253" y="177.00" font-size="2.62" text-anchor="middle" fill="#141414">63</text>
<circle cx="14.253" cy="148.319" r="1.93" fill="#ffe082" stroke="#464646" stroke-width="0.2"/>
<text x="14.253" y="149.24" font-size="2.62" text-anchor="middle" fill="#141414">64</text>
<circle cx="25.563" cy="164.769" r="2.57" fill="#eaf1fe" stroke="#2e78e6" stroke-width="0.3"/>
<text x="25.563" y="165.77" font-size="2.90" text-anchor="middle" fill="#14306e" font-weight="bold">8</text>
<text x="205.0" y="295.0" font-size="3.2" text-anchor="end" fill="#737373" font-family="sans-serif">3 / 5</text>
</svg>
