<svg xmlns="http://www.w3.org/2000/svg" xmlns:xlink="http://www.w3.org/1999/xlink" width="210.00mm" height="297.00mm" viewBox="0 0 210.00 297.00">
<rect x="0" y="0" width="210.00" height="297.00" fill="#ffffff" stroke="#cccccc" stroke-width="0.2"/>
<polygon points="81.953,41.152 79.241,30.651 80.61,27.807 90.512,23.38" fill="rgb(216,216,216)"/>
<polygon points="32.435,67.28 23.061,64.986 21.399,62.099 24.645,53.745" fill="rgb(216,216,216)"/>
<polygon points="90.512,58.925 97.031,67.594 100.108,68.296 109.744,63.315" fill="rgb(216,216,216)"/>
<polygon points="39.211,81.35 35.159,90.109 36.38,93.208 44.936,95.879" fill="rgb(216,216,216)"/>
<polygon points="109.744,63.315 116.421,66.943 127.217,58.333 125.166,51.016" fill="rgb(216,216,216)"/>
<polygon points="44.936,95.879 38.95,100.198 42.2,110.635 49.58,110.789" fill="rgb(216,216,216)"/>
<polygon points="125.166,51.016 132.166,48.057 132.166,34.248 125.166,31.289" fill="rgb(216,216,216)"/>
<polygon points="49.58,110.789 43.293,114.657 45.77,125.304 53.118,126.0" fill="rgb(216,216,216)"/>
<polygon points="125.166,31.289 127.217,23.972 116.421,15.362 109.744,18.99" fill="rgb(216,216,216)"/>
<polygon points="53.118,126.0 46.565,129.396 48.253,140.196 55.531,141.429" fill="rgb(216,216,216)"/>
<polygon points="109.744,18.99 105.301,12.824 91.839,15.897 90.512,23.38" fill="rgb(216,216,216)"/>
<polygon points="55.531,141.429 48.746,144.335 49.638,155.23 56.806,156.994" fill="rgb(216,216,216)"/>
<polygon points="112.737,154.475 104.662,161.846 65.511,163.609 56.806,156.994" fill="rgb(216,216,216)"/>
<polygon points="32.435,67.28 23.061,64.986 21.399,62.099 24.645,53.745" fill="#99d9fa"/>
<line x1="32.435" y1="67.28" x2="81.953" y2="41.153" stroke="#8c8c8c" stroke-width="0.3" stroke-dasharray="1.2,0.8"/>
<line x1="90.512" y1="58.925" x2="81.953" y2="41.153" stroke="#8c8c8c" stroke-width="0.3" stroke-dasharray="1.2,0.8"/>
<line x1="39.211" y1="81.35" x2="32.435" y2="67.28" stroke="#8c8c8c" stroke-width="0.3" stroke-dasharray="1.2,0.8"/>
<line x1="90.512" y1="58.925" x2="39.211" y2="81.35" stroke="#8c8c8c" stroke-width="0.3" stroke-dasharray="1.2,0.8"/>
<line x1="97.744" y1="77.278" x2="44.936" y2="95.879" stroke="#8c8c8c" stroke-width="0.3" stroke-dasharray="1.2,0.8"/>
<line x1="103.61" y1="96.112" x2="49.58" y2="110.789" stroke="#8c8c8c" stroke-width="0.3" stroke-dasharray="1.2,0.8"/>
<line x1="108.079" y1="115.325" x2="53.118" y2="126.0" stroke="#8c8c8c" stroke-width="0.3" stroke-dasharray="1.2,0.8"/>
<line x1="111.127" y1="134.815" x2="55.531" y2="141.429" stroke="#8c8c8c" stroke-width="0.3" stroke-dasharray="1.2,0.8"/>
<line x1="90.512" y1="23.38" x2="81.953" y2="41.152" stroke="#8c8c8c" stroke-width="0.3" stroke-dasharray="1.2,0.8"/>
<line x1="24.645" y1="53.745" x2="32.435" y2="67.28" stroke="#8c8c8c" stroke-width="0.3" stroke-dasharray="1.2,0.8"/>
<line x1="109.744" y1="63.315" x2="90.512" y2="58.925" stroke="#8c8c8c" stroke-width="0.3" stroke-dasharray="1.2,0.8"/>
<line x1="44.936" y1="95.879" x2="39.211" y2="81.35" stroke="#8c8c8c" stroke-width="0.3" stroke-dasharray="1.2,0.8"/>
<line x1="125.166" y1="51.016" x2="109.744" y2="63.315" stroke="#8c8c8c" stroke-width="0.3" stroke-dasharray="1.2,0.8"/>
<line x1="49.58" y1="110.789" x2="44.936" y2="95.879" stroke="#8c8c8c" stroke-width="0.3" stroke-dasharray="1.2,0.8"/>
<line x1="125.166" y1="31.289" x2="125.166" y2="51.016" stroke="#8c8c8c" stroke-width="0.3" stroke-dasharray="1.2,0.8"/>
<line x1="53.118" y1="126.0" x2="49.58" y2="110.789" stroke="#8c8c8c" stroke-width="0.3" stroke-dasharray="1.2,0.8"/>
<line x1="109.744" y1="18.99" x2="125.166" y2="31.289" stroke="#8c8c8c" stroke-width="0.3" stroke-dasharray="1.2,0.8"/>
<line x1="55.531" y1="141.429" x2="53.118" y2="126.0" stroke="#8c8c8c" stroke-width="0.3" stroke-dasharray="1.2,0.8"/>
<line x1="90.512" y1="23.38" x2="109.744" y2="18.99" stroke="#8c8c8c" stroke-width="0.3" stroke-dasharray="1.2,0.8"/>
<line x1="56.806" y1="156.994" x2="55.531" y2="141.429" stroke="#8c8c8c" stroke-width="0.3" stroke-dasharray="1.2,0.8"/>
<line x1="56.806" y1="156.994" x2="112.737" y2="154.475" stroke="#8c8c8c" stroke-width="0.3" stroke-dasharray="1.2,0.8"/>
<line x1="72.113" y1="24.055" x2="81.953" y2="41.153" stroke="#141414" stroke-width="0.4"/>
<line x1="17.21" y1="63.805" x2="32.435" y2="67.28" stroke="#141414" stroke-width="0.4"/>
<line x1="90.512" y1="58.925" x2="97.744" y2="77.278" stroke="#141414" stroke-width="0.4"/>
<line x1="39.211" y1="81.35" x2="32.435" y2="95.42" stroke="#141414" stroke-width="0.4"/>
<line x1="97.744" y1="77.278" x2="103.61" y2="96.112" stroke="#141414" stroke-width="0.4"/>
<line x1="32.435" y1="95.42" x2="17.21" y2="98.895" stroke="#141414" stroke-width="0.4"/>
<line x1="103.61" y1="96.112" x2="108.079" y2="115.325" stroke="#141414" stroke-width="0.4"/>
<line x1="17.21" y1="98.895" x2="5.0" y2="89.158" stroke="#141414" stroke-width="0.4"/>
<line x1="108.079" y1="115.325" x2="111.127" y2="134.815" stroke="#141414" stroke-width="0.4"/>
<line x1="5.0" y1="89.158" x2="5.0" y2="73.542" stroke="#141414" stroke-width="0.4"/>
<line x1="111.127" y1="134.815" x2="112.737" y2="154.475" stroke="#141414" stroke-width="0.4"/>
<line x1="5.0" y1="73.542" x2="17.21" y2="63.805" stroke="#141414" stroke-width="0.4"/>
<line x1="24.645" y1="53.745" x2="72.113" y2="24.055" stroke="#141414" stroke-width="0.4"/>
<line x1="81.953" y1="41.152" x2="79.241" y2="30.651" stroke="#141414" stroke-width="0.4"/>
<line x1="79.241" y1="30.651" x2="80.61" y2="27.807" stroke="#141414" stroke-width="0.4"/>
<line x1="80.61" y1="27.807" x2="90.512" y2="23.38" stroke="#141414" stroke-width="0.4"/>
<line x1="32.435" y1="67.28" x2="23.061" y2="64.986" stroke="#141414" stroke-width="0.4"/>
<line x1="23.061" y1="64.986" x2="21.399" y2="62.099" stroke="#141414" stroke-width="0.4"/>
<line x1="21.399" y1="62.099" x2="24.645" y2="53.745" stroke="#141414" stroke-width="0.4"/>
<line x1="90.512" y1="58.925" x2="97.031" y2="67.594" stroke="#141414" stroke-width="0.4"/>
<line x1="97.031" y1="67.594" x2="100.108" y2="68.296" stroke="#141414" stroke-width="0.4"/>
<line x1="100.108" y1="68.296" x2="109.744" y2="63.315" stroke="#141414" stroke-width="0.4"/>
<line x1="39.211" y1="81.35" x2="35.159" y2="90.109" stroke="#141414" stroke-width="0.4"/>
<line x1="35.159" y1="90.109" x2="36.38" y2="93.208" stroke="#141414" stroke-width="0.4"/>
<line x1="36.38" y1="93.208" x2="44.936" y2="95.879" stroke="#141414" stroke-width="0.4"/>
<line x1="109.744" y1="63.315" x2="116.421" y2="66.943" stroke="#141414" stroke-width="0.4"/>
<line x1="116.421" y1="66.943" x2="127.217" y2="58.333" stroke="#141414" stroke-width="0.4"/>
<line x1="127.217" y1="58.333" x2="125.166" y2="51.016" stroke="#141414" stroke-width="0.4"/>
<line x1="44.936" y1="95.879" x2="38.95" y2="100.198" stroke="#141414" stroke-width="0.4"/>
<line x1="38.95" y1="100.198" x2="42.2" y2="110.635" stroke="#141414" stroke-width="0.4"/>
<line x1="42.2" y1="110.635" x2="49.58" y2="110.789" stroke="#141414" stroke-width="0.4"/>
<line x1="125.166" y1="51.016" x2="132.166" y2="48.057" stroke="#141414" stroke-width="0.4"/>
<line x1="132.166" y1="48.057" x2="132.166" y2="34.248" stroke="#141414" stroke-width="0.4"/>
<line x1="132.166" y1="34.248" x2="125.166" y2="31.289" stroke="#141414" stroke-width="0.4"/>
<line x1="49.58" y1="110.789" x2="43.293" y2="114.657" stroke="#141414" stroke-width="0.4"/>
<line x1="43.293" y1="114.657" x2="45.77" y2="125.304" stroke="#141414" stroke-width="0.4"/>
<line x1="45.77" y1="125.304" x2="53.118" y2="126.0" stroke="#141414" stroke-width="0.4"/>
<line x1="125.166" y1="31.289" x2="127.217" y2="23.972" stroke="#141414" stroke-width="0.4"/>
<line x1="127.217" y1="23.972" x2="116.421" y2="15.362" stroke="#141414" stroke-width="0.4"/>
<line x1="116.421" y1="15.362" x2="109.744" y2="18.99" stroke="#141414" stroke-width="0.4"/>
<line x1="53.118" y1="126.0" x2="46.565" y2="129.396" stroke="#141414" stroke-width="0.4"/>
<line x1="46.565" y1="129.396" x2="48.253" y2="140.196" stroke="#141414" stroke-width="0.4"/>
<line x1="48.253" y1="140.196" x2="55.531" y2="141.429" stroke="#141414" stroke-width="0.4"/>
<line x1="109.744" y1="18.99" x2="105.301" y2="12.824" stroke="#141414" stroke-width="0.4"/>
<line x1="105.301" y1="12.824" x2="91.839" y2="15.897" stroke="#141414" stroke-width="0.4"/>
<line x1="91.839" y1="15.897" x2="90.512" y2="23.38" stroke="#141414" stroke-width="0.4"/>
<line x1="55.531" y1="141.429" x2="48.746" y2="144.335" stroke="#141414" stroke-width="0.4"/>
<line x1="48.746" y1="144.335" x2="49.638" y2="155.23" stroke="#141414" stroke-width="0.4"/>
<line x1="49.638" y1="155.23" x2="56.806" y2="156.994" stroke="#141414" stroke-width="0.4"/>
<line x1="112.737" y1="154.475" x2="104.662" y2="161.846" stroke="#141414" stroke-width="0.4"/>
<line x1="104.662" y1="161.846" x2="65.511" y2="163.609" stroke="#141414" stroke-width="0.4"/>
<line x1="65.511" y1="163.609" x2="56.806" y2="156.994" stroke="#141414" stroke-width="0.4"/>
<circle cx="83.079" cy="30.748" r="1.99" fill="#ffe082" stroke="#464646" stroke-width="0.2"/>
<text x="83.079" y="31.43" font-size="1.95" text-anchor="middle" fill="#141414">173</text>
<circle cx="25.385" cy="62.027" r="1.99" fill="#99d9fa" stroke="#464646" stroke-width="0.2"/>
<text x="25.385" y="62.71" font-size="1.95" text-anchor="middle" fill="#141414">174</text>
<circle cx="99.349" cy="64.532" r="1.99" fill="#ffe082" stroke="#464646" stroke-width="0.2"/>
<text x="99.349" y="65.21" font-size="1.95" text-anchor="middle" fill="#141414">175</text>
<circle cx="38.922" cy="90.136" r="1.99" fill="#ffe082" stroke="#464646" stroke-width="0.2"/>
<text x="38.922" y="90.82" font-size="1.95" text-anchor="middle" fill="#141414">176</text>
<circle cx="119.637" cy="59.902" r="1.99" fill="#ffe082" stroke="#464646" stroke-width="0.2"/>
<text x="119.637" y="60.58" font-size="1.95" text-anchor="middle" fill="#141414">177</text>
<circle cx="43.917" cy="104.375" r="1.99" fill="#ffe082" stroke="#464646" stroke-width="0.2"/>
<text x="43.917" y="105.06" font-size="1.95" text-anchor="middle" fill="#141414">178</text>
<circle cx="128.666" cy="41.152" r="1.99" fill="#ffe082" stroke="#464646" stroke-width="0.2"/>
<text x="128.666" y="41.83" font-size="1.95" text-anchor="middle" fill="#141414">179</text>
<circle cx="47.94" cy="119.188" r="1.99" fill="#ffe082" stroke="#464646" stroke-width="0.2"/>
<text x="47.94" y="119.87" font-size="1.95" text-anchor="middle" fill="#141414">180</text>
<circle cx="119.637" cy="22.403" r="1.99" fill="#ffe082" stroke="#464646" stroke-width="0.2"/>
<text x="119.637" y="23.08" font-size="1.95" text-anchor="middle" fill="#141414">181</text>
<circle cx="50.867" cy="134.255" r="1.99" fill="#ffe082" stroke="#464646" stroke-width="0.2"/>
<text x="50.867" y="134.94" font-size="1.95" text-anchor="middle" fill="#141414">182</text>
<circle cx="99.349" cy="17.773" r="1.99" fill="#ffe082" stroke="#464646" stroke-width="0.2"/>
<text x="99.349" y="18.45" font-size="1.95" text-anchor="middle" fill="#141414">183</text>
<circle cx="52.68" cy="149.497" r="1.99" fill="#ffe082" stroke="#464646" stroke-width="0.2"/>
<text x="52.68" y="150.18" font-size="1.95" text-anchor="middle" fill="#141414">184</text>
<circle cx="84.929" cy="159.231" r="1.99" fill="#ffe082" stroke="#464646" stroke-width="0.2"/>
<text x="84.929" y="159.91" font-size="1.95" text-anchor="middle" fill="#141414">185</text>
<circle cx="93.132" cy="143.573" r="4.60" fill="#eaf1fe" stroke="#2e78e6" stroke-width="0.3"/>
<text x="93.132" y="145.37" font-size="5.20" text-anchor="middle" fill="#14306e" font-weight="bold">11</text>
<text x="205.0" y="295.0" font-size="3.2" text-anchor="end" fill="#737373" font-family="sans-serif">9 / 10</text>
<g pointer-events="none"><text x="105.0" y="83.2" text-anchor="middle" font-family="sans-serif" font-size="12.4" fill="#9aa0a6" fill-opacity="0.3" transform="rotate(-28 105.0 83.2)">papercraft.kr</text><text x="105.0" y="148.5" text-anchor="middle" font-family="sans-serif" font-size="12.4" fill="#9aa0a6" fill-opacity="0.3" transform="rotate(-28 105.0 148.5)">papercraft.kr</text><text x="105.0" y="213.8" text-anchor="middle" font-family="sans-serif" font-size="12.4" fill="#9aa0a6" fill-opacity="0.3" transform="rotate(-28 105.0 213.8)">papercraft.kr</text></g></svg>
