<svg xmlns="http://www.w3.org/2000/svg" xmlns:xlink="http://www.w3.org/1999/xlink" width="210.00mm" height="297.00mm" viewBox="0 0 210.00 297.00">
<rect x="0" y="0" width="210.00" height="297.00" fill="#ffffff" stroke="#cccccc" stroke-width="0.2"/>
<polygon points="90.616,151.482 96.248,144.916 98.317,112.718 93.571,105.485" fill="rgb(216,216,216)"/>
<polygon points="90.616,151.482 78.101,155.015 22.994,147.462 11.892,140.692" fill="rgb(216,216,216)"/>
<polygon points="27.649,105.485 24.042,99.105 30.568,75.9 36.972,72.336" fill="rgb(216,216,216)"/>
<polygon points="27.649,105.485 20.539,108.642 9.509,133.286 11.892,140.692" fill="rgb(216,216,216)"/>
<polygon points="36.972,72.336 33.036,67.127 38.026,49.394 44.101,47.002" fill="rgb(216,216,216)"/>
<polygon points="93.571,105.485 99.964,101.483 106.29,76.787 102.608,70.204" fill="rgb(216,216,216)"/>
<polygon points="120.979,45.812 123.992,40.533 116.85,27.707 110.776,27.488" fill="rgb(216,216,216)"/>
<polygon points="120.979,45.812 122.377,52.599 109.518,69.674 102.608,70.204" fill="rgb(216,216,216)"/>
<polygon points="110.776,27.488 102.463,20.199 58.129,9.81 47.442,12.646" fill="rgb(216,216,216)"/>
<polygon points="47.442,12.646 41.766,17.297 39.427,41.345 44.101,47.002" fill="rgb(216,216,216)"/>
<line x1="90.616" y1="151.482" x2="27.649" y2="105.485" stroke="#8c8c8c" stroke-width="0.3" stroke-dasharray="1.2,0.8"/>
<line x1="27.649" y1="105.485" x2="93.571" y2="105.485" stroke="#8c8c8c" stroke-width="0.3" stroke-dasharray="1.2,0.8"/>
<line x1="36.972" y1="72.336" x2="93.571" y2="105.485" stroke="#8c8c8c" stroke-width="0.3" stroke-dasharray="1.2,0.8"/>
<line x1="102.608" y1="70.204" x2="36.972" y2="72.336" stroke="#8c8c8c" stroke-width="0.3" stroke-dasharray="1.2,0.8"/>
<line x1="44.101" y1="47.002" x2="120.979" y2="45.812" stroke="#8c8c8c" stroke-width="0.3" stroke-dasharray="1.2,0.8"/>
<line x1="102.608" y1="70.204" x2="44.101" y2="47.002" stroke="#8c8c8c" stroke-width="0.3" stroke-dasharray="1.2,0.8"/>
<line x1="120.979" y1="45.812" x2="47.443" y2="12.646" stroke="#8c8c8c" stroke-width="0.3" stroke-dasharray="1.2,0.8"/>
<line x1="93.571" y1="105.485" x2="90.616" y2="151.482" stroke="#8c8c8c" stroke-width="0.3" stroke-dasharray="1.2,0.8"/>
<line x1="11.892" y1="140.692" x2="90.616" y2="151.482" stroke="#8c8c8c" stroke-width="0.3" stroke-dasharray="1.2,0.8"/>
<line x1="36.972" y1="72.336" x2="27.649" y2="105.485" stroke="#8c8c8c" stroke-width="0.3" stroke-dasharray="1.2,0.8"/>
<line x1="11.892" y1="140.692" x2="27.649" y2="105.485" stroke="#8c8c8c" stroke-width="0.3" stroke-dasharray="1.2,0.8"/>
<line x1="44.101" y1="47.002" x2="36.972" y2="72.336" stroke="#8c8c8c" stroke-width="0.3" stroke-dasharray="1.2,0.8"/>
<line x1="102.608" y1="70.204" x2="93.571" y2="105.485" stroke="#8c8c8c" stroke-width="0.3" stroke-dasharray="1.2,0.8"/>
<line x1="110.776" y1="27.488" x2="120.979" y2="45.812" stroke="#8c8c8c" stroke-width="0.3" stroke-dasharray="1.2,0.8"/>
<line x1="102.608" y1="70.204" x2="120.979" y2="45.812" stroke="#8c8c8c" stroke-width="0.3" stroke-dasharray="1.2,0.8"/>
<line x1="47.442" y1="12.646" x2="110.776" y2="27.488" stroke="#8c8c8c" stroke-width="0.3" stroke-dasharray="1.2,0.8"/>
<line x1="44.101" y1="47.002" x2="47.442" y2="12.646" stroke="#8c8c8c" stroke-width="0.3" stroke-dasharray="1.2,0.8"/>
<line x1="90.616" y1="151.482" x2="96.248" y2="144.916" stroke="#141414" stroke-width="0.4"/>
<line x1="96.248" y1="144.916" x2="98.317" y2="112.718" stroke="#141414" stroke-width="0.4"/>
<line x1="98.317" y1="112.718" x2="93.571" y2="105.485" stroke="#141414" stroke-width="0.4"/>
<line x1="90.616" y1="151.482" x2="78.101" y2="155.015" stroke="#141414" stroke-width="0.4"/>
<line x1="78.101" y1="155.015" x2="22.994" y2="147.462" stroke="#141414" stroke-width="0.4"/>
<line x1="22.994" y1="147.462" x2="11.892" y2="140.692" stroke="#141414" stroke-width="0.4"/>
<line x1="27.649" y1="105.485" x2="24.042" y2="99.105" stroke="#141414" stroke-width="0.4"/>
<line x1="24.042" y1="99.105" x2="30.568" y2="75.9" stroke="#141414" stroke-width="0.4"/>
<line x1="30.568" y1="75.9" x2="36.972" y2="72.336" stroke="#141414" stroke-width="0.4"/>
<line x1="27.649" y1="105.485" x2="20.539" y2="108.642" stroke="#141414" stroke-width="0.4"/>
<line x1="20.539" y1="108.642" x2="9.509" y2="133.286" stroke="#141414" stroke-width="0.4"/>
<line x1="9.509" y1="133.286" x2="11.892" y2="140.692" stroke="#141414" stroke-width="0.4"/>
<line x1="36.972" y1="72.336" x2="33.036" y2="67.127" stroke="#141414" stroke-width="0.4"/>
<line x1="33.036" y1="67.127" x2="38.026" y2="49.394" stroke="#141414" stroke-width="0.4"/>
<line x1="38.026" y1="49.394" x2="44.101" y2="47.002" stroke="#141414" stroke-width="0.4"/>
<line x1="93.571" y1="105.485" x2="99.964" y2="101.483" stroke="#141414" stroke-width="0.4"/>
<line x1="99.964" y1="101.483" x2="106.29" y2="76.787" stroke="#141414" stroke-width="0.4"/>
<line x1="106.29" y1="76.787" x2="102.608" y2="70.204" stroke="#141414" stroke-width="0.4"/>
<line x1="120.979" y1="45.812" x2="123.992" y2="40.533" stroke="#141414" stroke-width="0.4"/>
<line x1="123.992" y1="40.533" x2="116.85" y2="27.707" stroke="#141414" stroke-width="0.4"/>
<line x1="116.85" y1="27.707" x2="110.776" y2="27.488" stroke="#141414" stroke-width="0.4"/>
<line x1="120.979" y1="45.812" x2="122.377" y2="52.599" stroke="#141414" stroke-width="0.4"/>
<line x1="122.377" y1="52.599" x2="109.518" y2="69.674" stroke="#141414" stroke-width="0.4"/>
<line x1="109.518" y1="69.674" x2="102.608" y2="70.204" stroke="#141414" stroke-width="0.4"/>
<line x1="110.776" y1="27.488" x2="102.463" y2="20.199" stroke="#141414" stroke-width="0.4"/>
<line x1="102.463" y1="20.199" x2="58.129" y2="9.81" stroke="#141414" stroke-width="0.4"/>
<line x1="58.129" y1="9.81" x2="47.442" y2="12.646" stroke="#141414" stroke-width="0.4"/>
<line x1="47.442" y1="12.646" x2="41.766" y2="17.297" stroke="#141414" stroke-width="0.4"/>
<line x1="41.766" y1="17.297" x2="39.427" y2="41.345" stroke="#141414" stroke-width="0.4"/>
<line x1="39.427" y1="41.345" x2="44.101" y2="47.002" stroke="#141414" stroke-width="0.4"/>
<circle cx="94.688" cy="128.65" r="2.29" fill="#ffe082" stroke="#464646" stroke-width="0.2"/>
<text x="94.688" y="129.43" font-size="2.24" text-anchor="middle" fill="#141414">23</text>
<circle cx="50.901" cy="148.663" r="2.29" fill="#ffe082" stroke="#464646" stroke-width="0.2"/>
<text x="50.901" y="149.45" font-size="2.24" text-anchor="middle" fill="#141414">26</text>
<circle cx="29.808" cy="88.206" r="2.29" fill="#ffe082" stroke="#464646" stroke-width="0.2"/>
<text x="29.808" y="88.99" font-size="2.24" text-anchor="middle" fill="#141414">28</text>
<circle cx="17.397" cy="122.026" r="2.29" fill="#ffe082" stroke="#464646" stroke-width="0.2"/>
<text x="17.397" y="122.81" font-size="2.24" text-anchor="middle" fill="#141414">29</text>
<circle cx="38.034" cy="58.965" r="2.29" fill="#ffe082" stroke="#464646" stroke-width="0.2"/>
<text x="38.034" y="59.75" font-size="2.24" text-anchor="middle" fill="#141414">37</text>
<circle cx="100.609" cy="88.49" r="2.29" fill="#ffe082" stroke="#464646" stroke-width="0.2"/>
<text x="100.609" y="89.27" font-size="2.24" text-anchor="middle" fill="#141414">38</text>
<circle cx="118.149" cy="35.385" r="2.29" fill="#ffe082" stroke="#464646" stroke-width="0.2"/>
<text x="118.149" y="36.17" font-size="2.24" text-anchor="middle" fill="#141414">39</text>
<circle cx="113.871" cy="59.572" r="2.29" fill="#ffe082" stroke="#464646" stroke-width="0.2"/>
<text x="113.871" y="60.36" font-size="2.24" text-anchor="middle" fill="#141414">40</text>
<circle cx="79.703" cy="17.536" r="2.29" fill="#ffe082" stroke="#464646" stroke-width="0.2"/>
<text x="79.703" y="18.32" font-size="2.24" text-anchor="middle" fill="#141414">48</text>
<circle cx="43.184" cy="29.573" r="2.29" fill="#ffe082" stroke="#464646" stroke-width="0.2"/>
<text x="43.184" y="30.36" font-size="2.24" text-anchor="middle" fill="#141414">50</text>
<circle cx="70.612" cy="120.817" r="4.60" fill="#eaf1fe" stroke="#2e78e6" stroke-width="0.3"/>
<text x="70.612" y="122.62" font-size="5.20" text-anchor="middle" fill="#14306e" font-weight="bold">1</text>
<text x="205.0" y="295.0" font-size="3.2" text-anchor="end" fill="#737373" font-family="sans-serif">1 / 17</text>
<g pointer-events="none"><text x="105.0" y="83.2" text-anchor="middle" font-family="sans-serif" font-size="12.4" fill="#9aa0a6" fill-opacity="0.3" transform="rotate(-28 105.0 83.2)">papercraft.kr</text><text x="105.0" y="148.5" text-anchor="middle" font-family="sans-serif" font-size="12.4" fill="#9aa0a6" fill-opacity="0.3" transform="rotate(-28 105.0 148.5)">papercraft.kr</text><text x="105.0" y="213.8" text-anchor="middle" font-family="sans-serif" font-size="12.4" fill="#9aa0a6" fill-opacity="0.3" transform="rotate(-28 105.0 213.8)">papercraft.kr</text></g></svg>
