<svg xmlns="http://www.w3.org/2000/svg" xmlns:xlink="http://www.w3.org/1999/xlink" width="210.00mm" height="297.00mm" viewBox="0 0 210.00 297.00">
<rect x="0" y="0" width="210.00" height="297.00" fill="#ffffff" stroke="#cccccc" stroke-width="0.2"/>
<polygon points="35.7,123.364 27.535,121.04 8.979,95.812 9.192,87.325" fill="rgb(216,216,216)"/>
<polygon points="81.71,59.153 87.069,51.929 87.82,17.683 82.782,10.231" fill="rgb(216,216,216)"/>
<polygon points="16.994,37.73 24.857,28.807 70.908,9.558 82.782,10.231" fill="rgb(216,216,216)"/>
<line x1="107.376" y1="60.027" x2="76.564" y2="127.059" stroke="#8c8c8c" stroke-width="0.3" stroke-dasharray="1.2,0.8"/>
<line x1="76.564" y1="127.059" x2="52.417" y2="87.325" stroke="#8c8c8c" stroke-width="0.3" stroke-dasharray="1.2,0.8"/>
<line x1="52.417" y1="87.325" x2="35.7" y2="123.364" stroke="#8c8c8c" stroke-width="0.3" stroke-dasharray="1.2,0.8"/>
<line x1="16.994" y1="37.73" x2="81.71" y2="59.153" stroke="#8c8c8c" stroke-width="0.3" stroke-dasharray="1.2,0.8"/>
<line x1="52.417" y1="87.325" x2="107.376" y2="60.027" stroke="#8c8c8c" stroke-width="0.3" stroke-dasharray="1.2,0.8"/>
<line x1="81.71" y1="59.153" x2="52.417" y2="87.325" stroke="#8c8c8c" stroke-width="0.3" stroke-dasharray="1.2,0.8"/>
<line x1="9.192" y1="87.325" x2="35.7" y2="123.364" stroke="#8c8c8c" stroke-width="0.3" stroke-dasharray="1.2,0.8"/>
<line x1="82.782" y1="10.231" x2="81.71" y2="59.153" stroke="#8c8c8c" stroke-width="0.3" stroke-dasharray="1.2,0.8"/>
<line x1="82.782" y1="10.231" x2="16.994" y2="37.73" stroke="#8c8c8c" stroke-width="0.3" stroke-dasharray="1.2,0.8"/>
<line x1="109.689" y1="98.412" x2="76.564" y2="127.059" stroke="#141414" stroke-width="0.4"/>
<line x1="76.564" y1="127.059" x2="35.7" y2="123.364" stroke="#141414" stroke-width="0.4"/>
<line x1="107.376" y1="60.027" x2="109.689" y2="98.412" stroke="#141414" stroke-width="0.4"/>
<line x1="81.71" y1="59.153" x2="107.376" y2="60.027" stroke="#141414" stroke-width="0.4"/>
<line x1="9.192" y1="87.325" x2="27.436" y2="56.902" stroke="#141414" stroke-width="0.4"/>
<line x1="27.436" y1="56.902" x2="52.417" y2="87.325" stroke="#141414" stroke-width="0.4"/>
<line x1="52.417" y1="87.325" x2="16.994" y2="37.73" stroke="#141414" stroke-width="0.4"/>
<line x1="35.7" y1="123.364" x2="27.535" y2="121.04" stroke="#141414" stroke-width="0.4"/>
<line x1="27.535" y1="121.04" x2="8.979" y2="95.812" stroke="#141414" stroke-width="0.4"/>
<line x1="8.979" y1="95.812" x2="9.192" y2="87.325" stroke="#141414" stroke-width="0.4"/>
<line x1="81.71" y1="59.153" x2="87.069" y2="51.929" stroke="#141414" stroke-width="0.4"/>
<line x1="87.069" y1="51.929" x2="87.82" y2="17.683" stroke="#141414" stroke-width="0.4"/>
<line x1="87.82" y1="17.683" x2="82.782" y2="10.231" stroke="#141414" stroke-width="0.4"/>
<line x1="16.994" y1="37.73" x2="24.857" y2="28.807" stroke="#141414" stroke-width="0.4"/>
<line x1="24.857" y1="28.807" x2="70.908" y2="9.558" stroke="#141414" stroke-width="0.4"/>
<line x1="70.908" y1="9.558" x2="82.782" y2="10.231" stroke="#141414" stroke-width="0.4"/>
<circle cx="20.352" cy="106.885" r="2.29" fill="#ffe082" stroke="#464646" stroke-width="0.2"/>
<text x="20.352" y="107.67" font-size="2.24" text-anchor="middle" fill="#141414">16</text>
<circle cx="84.845" cy="34.749" r="2.29" fill="#ffe082" stroke="#464646" stroke-width="0.2"/>
<text x="84.845" y="35.53" font-size="2.24" text-anchor="middle" fill="#141414">18</text>
<circle cx="48.885" cy="21.581" r="2.29" fill="#ffe082" stroke="#464646" stroke-width="0.2"/>
<text x="48.885" y="22.37" font-size="2.24" text-anchor="middle" fill="#141414">33</text>
<circle cx="60.495" cy="35.705" r="4.60" fill="#eaf1fe" stroke="#2e78e6" stroke-width="0.3"/>
<text x="60.495" y="37.50" font-size="5.20" text-anchor="middle" fill="#14306e" font-weight="bold">7</text>
<polygon points="129.507,162.113 130.267,173.967 111.359,220.083 102.496,227.992" fill="rgb(216,216,216)"/>
<polygon points="129.507,162.113 124.044,156.913 98.548,156.913 93.084,162.113" fill="rgb(216,216,216)"/>
<polygon points="102.496,227.992 95.875,232.109 69.173,227.42 64.351,221.294" fill="rgb(216,216,216)"/>
<polygon points="79.95,128.208 72.204,128.876 53.781,148.569 53.631,156.341" fill="rgb(216,216,216)"/>
<polygon points="64.351,221.294 57.924,226.714 27.112,227.756 20.333,222.782" fill="rgb(216,216,216)"/>
<polygon points="129.507,162.113 124.044,156.913 98.548,156.913 93.084,162.113" fill="#99d9fa"/>
<line x1="102.496" y1="227.992" x2="93.085" y2="162.113" stroke="#8c8c8c" stroke-width="0.3" stroke-dasharray="1.2,0.8"/>
<line x1="64.35" y1="221.294" x2="93.085" y2="162.113" stroke="#8c8c8c" stroke-width="0.3" stroke-dasharray="1.2,0.8"/>
<line x1="53.631" y1="156.341" x2="93.085" y2="162.113" stroke="#8c8c8c" stroke-width="0.3" stroke-dasharray="1.2,0.8"/>
<line x1="5.0" y1="159.243" x2="53.631" y2="156.341" stroke="#8c8c8c" stroke-width="0.3" stroke-dasharray="1.2,0.8"/>
<line x1="64.35" y1="221.294" x2="53.631" y2="156.341" stroke="#8c8c8c" stroke-width="0.3" stroke-dasharray="1.2,0.8"/>
<line x1="53.631" y1="156.341" x2="20.333" y2="222.782" stroke="#8c8c8c" stroke-width="0.3" stroke-dasharray="1.2,0.8"/>
<line x1="104.412" y1="127.496" x2="53.631" y2="156.341" stroke="#8c8c8c" stroke-width="0.3" stroke-dasharray="1.2,0.8"/>
<line x1="102.496" y1="227.992" x2="129.507" y2="162.113" stroke="#8c8c8c" stroke-width="0.3" stroke-dasharray="1.2,0.8"/>
<line x1="93.084" y1="162.113" x2="129.507" y2="162.113" stroke="#8c8c8c" stroke-width="0.3" stroke-dasharray="1.2,0.8"/>
<line x1="64.351" y1="221.294" x2="102.496" y2="227.992" stroke="#8c8c8c" stroke-width="0.3" stroke-dasharray="1.2,0.8"/>
<line x1="53.631" y1="156.341" x2="79.95" y2="128.208" stroke="#8c8c8c" stroke-width="0.3" stroke-dasharray="1.2,0.8"/>
<line x1="20.333" y1="222.782" x2="64.351" y2="221.294" stroke="#8c8c8c" stroke-width="0.3" stroke-dasharray="1.2,0.8"/>
<line x1="104.412" y1="127.496" x2="93.085" y2="162.113" stroke="#141414" stroke-width="0.4"/>
<line x1="79.95" y1="128.208" x2="104.412" y2="127.496" stroke="#141414" stroke-width="0.4"/>
<line x1="5.0" y1="159.243" x2="21.797" y2="134.643" stroke="#141414" stroke-width="0.4"/>
<line x1="20.333" y1="222.782" x2="5.0" y2="159.243" stroke="#141414" stroke-width="0.4"/>
<line x1="21.797" y1="134.643" x2="53.631" y2="156.341" stroke="#141414" stroke-width="0.4"/>
<line x1="129.507" y1="162.113" x2="130.267" y2="173.967" stroke="#141414" stroke-width="0.4"/>
<line x1="130.267" y1="173.967" x2="111.359" y2="220.083" stroke="#141414" stroke-width="0.4"/>
<line x1="111.359" y1="220.083" x2="102.496" y2="227.992" stroke="#141414" stroke-width="0.4"/>
<line x1="129.507" y1="162.113" x2="124.044" y2="156.913" stroke="#141414" stroke-width="0.4"/>
<line x1="124.044" y1="156.913" x2="98.548" y2="156.913" stroke="#141414" stroke-width="0.4"/>
<line x1="98.548" y1="156.913" x2="93.084" y2="162.113" stroke="#141414" stroke-width="0.4"/>
<line x1="102.496" y1="227.992" x2="95.875" y2="232.109" stroke="#141414" stroke-width="0.4"/>
<line x1="95.875" y1="232.109" x2="69.173" y2="227.42" stroke="#141414" stroke-width="0.4"/>
<line x1="69.173" y1="227.42" x2="64.351" y2="221.294" stroke="#141414" stroke-width="0.4"/>
<line x1="79.95" y1="128.208" x2="72.204" y2="128.876" stroke="#141414" stroke-width="0.4"/>
<line x1="72.204" y1="128.876" x2="53.781" y2="148.569" stroke="#141414" stroke-width="0.4"/>
<line x1="53.781" y1="148.569" x2="53.631" y2="156.341" stroke="#141414" stroke-width="0.4"/>
<line x1="64.351" y1="221.294" x2="57.924" y2="226.714" stroke="#141414" stroke-width="0.4"/>
<line x1="57.924" y1="226.714" x2="27.112" y2="227.756" stroke="#141414" stroke-width="0.4"/>
<line x1="27.112" y1="227.756" x2="20.333" y2="222.782" stroke="#141414" stroke-width="0.4"/>
<circle cx="118.407" cy="196.039" r="2.29" fill="#ffe082" stroke="#464646" stroke-width="0.2"/>
<text x="118.407" y="196.82" font-size="2.24" text-anchor="middle" fill="#141414">58</text>
<circle cx="111.296" cy="159.513" r="2.29" fill="#99d9fa" stroke="#464646" stroke-width="0.2"/>
<text x="111.296" y="160.30" font-size="2.24" text-anchor="middle" fill="#141414">59</text>
<circle cx="82.974" cy="227.204" r="2.29" fill="#ffe082" stroke="#464646" stroke-width="0.2"/>
<text x="82.974" y="227.99" font-size="2.24" text-anchor="middle" fill="#141414">61</text>
<circle cx="64.892" cy="140.498" r="2.29" fill="#ffe082" stroke="#464646" stroke-width="0.2"/>
<text x="64.892" y="141.28" font-size="2.24" text-anchor="middle" fill="#141414">72</text>
<circle cx="42.43" cy="224.636" r="2.29" fill="#ffe082" stroke="#464646" stroke-width="0.2"/>
<text x="42.43" y="225.42" font-size="2.24" text-anchor="middle" fill="#141414">74</text>
<circle cx="26.321" cy="179.456" r="4.60" fill="#eaf1fe" stroke="#2e78e6" stroke-width="0.3"/>
<text x="26.321" y="181.26" font-size="5.20" text-anchor="middle" fill="#14306e" font-weight="bold">8</text>
<text x="205.0" y="295.0" font-size="3.2" text-anchor="end" fill="#737373" font-family="sans-serif">4 / 17</text>
<g pointer-events="none"><text x="105.0" y="83.2" text-anchor="middle" font-family="sans-serif" font-size="12.4" fill="#9aa0a6" fill-opacity="0.3" transform="rotate(-28 105.0 83.2)">papercraft.kr</text><text x="105.0" y="148.5" text-anchor="middle" font-family="sans-serif" font-size="12.4" fill="#9aa0a6" fill-opacity="0.3" transform="rotate(-28 105.0 148.5)">papercraft.kr</text><text x="105.0" y="213.8" text-anchor="middle" font-family="sans-serif" font-size="12.4" fill="#9aa0a6" fill-opacity="0.3" transform="rotate(-28 105.0 213.8)">papercraft.kr</text></g></svg>
