<svg xmlns="http://www.w3.org/2000/svg" xmlns:xlink="http://www.w3.org/1999/xlink" width="210.00mm" height="297.00mm" viewBox="0 0 210.00 297.00">
<rect x="0" y="0" width="210.00" height="297.00" fill="#ffffff" stroke="#cccccc" stroke-width="0.2"/>
<polygon points="61.75,5.0 73.113,24.791 102.896,124.119 104.297,146.897" fill="rgb(216,216,216)"/>
<polygon points="29.384,10.162 28.001,11.309 49.369,90.745 49.556,91.502" fill="rgb(216,216,216)"/>
<polygon points="16.798,82.638 12.387,94.987 16.015,151.05 21.981,162.727" fill="rgb(216,216,216)"/>
<polygon points="104.297,146.897 101.181,154.011 76.65,165.091 69.252,162.727" fill="rgb(216,216,216)"/>
<polygon points="21.981,162.727 15.75,164.965 9.685,183.103 13.317,188.638" fill="rgb(216,216,216)"/>
<polygon points="69.252,162.727 71.609,168.754 62.053,183.98 55.6,184.479" fill="rgb(216,216,216)"/>
<polygon points="55.6,184.479 49.767,190.278 20.169,193.19 13.317,188.638" fill="rgb(216,216,216)"/>
<polygon points="29.384,10.162 28.001,11.309 49.369,90.745 49.556,91.502" fill="#99d9fa"/>
<line x1="21.981" y1="162.727" x2="49.556" y2="91.502" stroke="#8c8c8c" stroke-width="0.3" stroke-dasharray="1.2,0.8"/>
<line x1="21.981" y1="162.727" x2="69.252" y2="162.727" stroke="#8c8c8c" stroke-width="0.3" stroke-dasharray="1.2,0.8"/>
<line x1="69.252" y1="162.727" x2="49.556" y2="91.502" stroke="#8c8c8c" stroke-width="0.3" stroke-dasharray="1.2,0.8"/>
<line x1="16.798" y1="82.638" x2="49.556" y2="91.502" stroke="#8c8c8c" stroke-width="0.3" stroke-dasharray="1.2,0.8"/>
<line x1="55.6" y1="184.479" x2="21.981" y2="162.727" stroke="#8c8c8c" stroke-width="0.3" stroke-dasharray="1.2,0.8"/>
<line x1="104.297" y1="146.897" x2="61.75" y2="5.0" stroke="#8c8c8c" stroke-width="0.3" stroke-dasharray="1.2,0.8"/>
<line x1="49.556" y1="91.502" x2="29.384" y2="10.162" stroke="#8c8c8c" stroke-width="0.3" stroke-dasharray="1.2,0.8"/>
<line x1="21.981" y1="162.727" x2="16.798" y2="82.638" stroke="#8c8c8c" stroke-width="0.3" stroke-dasharray="1.2,0.8"/>
<line x1="69.252" y1="162.727" x2="104.297" y2="146.897" stroke="#8c8c8c" stroke-width="0.3" stroke-dasharray="1.2,0.8"/>
<line x1="13.317" y1="188.638" x2="21.981" y2="162.727" stroke="#8c8c8c" stroke-width="0.3" stroke-dasharray="1.2,0.8"/>
<line x1="55.6" y1="184.479" x2="69.252" y2="162.727" stroke="#8c8c8c" stroke-width="0.3" stroke-dasharray="1.2,0.8"/>
<line x1="13.317" y1="188.638" x2="55.6" y2="184.479" stroke="#8c8c8c" stroke-width="0.3" stroke-dasharray="1.2,0.8"/>
<line x1="29.384" y1="10.162" x2="61.75" y2="5.0" stroke="#141414" stroke-width="0.4"/>
<line x1="16.798" y1="82.638" x2="27.682" y2="10.604" stroke="#141414" stroke-width="0.4"/>
<line x1="27.682" y1="10.604" x2="49.556" y2="91.502" stroke="#141414" stroke-width="0.4"/>
<line x1="61.75" y1="5.0" x2="73.113" y2="24.791" stroke="#141414" stroke-width="0.4"/>
<line x1="73.113" y1="24.791" x2="102.896" y2="124.119" stroke="#141414" stroke-width="0.4"/>
<line x1="102.896" y1="124.119" x2="104.297" y2="146.897" stroke="#141414" stroke-width="0.4"/>
<line x1="29.384" y1="10.162" x2="28.001" y2="11.309" stroke="#141414" stroke-width="0.4"/>
<line x1="28.001" y1="11.309" x2="49.369" y2="90.745" stroke="#141414" stroke-width="0.4"/>
<line x1="49.369" y1="90.745" x2="49.556" y2="91.502" stroke="#141414" stroke-width="0.4"/>
<line x1="16.798" y1="82.638" x2="12.387" y2="94.987" stroke="#141414" stroke-width="0.4"/>
<line x1="12.387" y1="94.987" x2="16.015" y2="151.05" stroke="#141414" stroke-width="0.4"/>
<line x1="16.015" y1="151.05" x2="21.981" y2="162.727" stroke="#141414" stroke-width="0.4"/>
<line x1="104.297" y1="146.897" x2="101.181" y2="154.011" stroke="#141414" stroke-width="0.4"/>
<line x1="101.181" y1="154.011" x2="76.65" y2="165.091" stroke="#141414" stroke-width="0.4"/>
<line x1="76.65" y1="165.091" x2="69.252" y2="162.727" stroke="#141414" stroke-width="0.4"/>
<line x1="21.981" y1="162.727" x2="15.75" y2="164.965" stroke="#141414" stroke-width="0.4"/>
<line x1="15.75" y1="164.965" x2="9.685" y2="183.103" stroke="#141414" stroke-width="0.4"/>
<line x1="9.685" y1="183.103" x2="13.317" y2="188.638" stroke="#141414" stroke-width="0.4"/>
<line x1="69.252" y1="162.727" x2="71.609" y2="168.754" stroke="#141414" stroke-width="0.4"/>
<line x1="71.609" y1="168.754" x2="62.053" y2="183.98" stroke="#141414" stroke-width="0.4"/>
<line x1="62.053" y1="183.98" x2="55.6" y2="184.479" stroke="#141414" stroke-width="0.4"/>
<line x1="55.6" y1="184.479" x2="49.767" y2="190.278" stroke="#141414" stroke-width="0.4"/>
<line x1="49.767" y1="190.278" x2="20.169" y2="193.19" stroke="#141414" stroke-width="0.4"/>
<line x1="20.169" y1="193.19" x2="13.317" y2="188.638" stroke="#141414" stroke-width="0.4"/>
<circle cx="85.514" cy="75.202" r="2.29" fill="#ffe082" stroke="#464646" stroke-width="0.2"/>
<text x="85.514" y="75.99" font-size="2.24" text-anchor="middle" fill="#141414">5</text>
<circle cx="16.795" cy="122.85" r="2.29" fill="#ffe082" stroke="#464646" stroke-width="0.2"/>
<text x="16.795" y="123.63" font-size="2.24" text-anchor="middle" fill="#141414">8</text>
<circle cx="87.845" cy="157.182" r="2.29" fill="#ffe082" stroke="#464646" stroke-width="0.2"/>
<text x="87.845" y="157.97" font-size="2.24" text-anchor="middle" fill="#141414">13</text>
<circle cx="15.184" cy="174.858" r="2.29" fill="#ffe082" stroke="#464646" stroke-width="0.2"/>
<text x="15.184" y="175.64" font-size="2.24" text-anchor="middle" fill="#141414">14</text>
<circle cx="64.628" cy="174.985" r="2.29" fill="#ffe082" stroke="#464646" stroke-width="0.2"/>
<text x="64.628" y="175.77" font-size="2.24" text-anchor="middle" fill="#141414">15</text>
<circle cx="34.713" cy="189.146" r="2.29" fill="#ffe082" stroke="#464646" stroke-width="0.2"/>
<text x="34.713" y="189.93" font-size="2.24" text-anchor="middle" fill="#141414">19</text>
<circle cx="31.345" cy="61.581" r="4.60" fill="#eaf1fe" stroke="#2e78e6" stroke-width="0.3"/>
<text x="31.345" y="63.38" font-size="5.20" text-anchor="middle" fill="#14306e" font-weight="bold">13</text>
<text x="205.0" y="295.0" font-size="3.2" text-anchor="end" fill="#737373" font-family="sans-serif">8 / 17</text>
<g pointer-events="none"><text x="105.0" y="83.2" text-anchor="middle" font-family="sans-serif" font-size="12.4" fill="#9aa0a6" fill-opacity="0.3" transform="rotate(-28 105.0 83.2)">papercraft.kr</text><text x="105.0" y="148.5" text-anchor="middle" font-family="sans-serif" font-size="12.4" fill="#9aa0a6" fill-opacity="0.3" transform="rotate(-28 105.0 148.5)">papercraft.kr</text><text x="105.0" y="213.8" text-anchor="middle" font-family="sans-serif" font-size="12.4" fill="#9aa0a6" fill-opacity="0.3" transform="rotate(-28 105.0 213.8)">papercraft.kr</text></g></svg>
