<svg xmlns="http://www.w3.org/2000/svg" xmlns:xlink="http://www.w3.org/1999/xlink" width="210.00mm" height="297.00mm" viewBox="0 0 210.00 297.00">
<rect x="0" y="0" width="210.00" height="297.00" fill="#ffffff" stroke="#cccccc" stroke-width="0.2"/>
<line x1="47.992" y1="34.821" x2="5.0" y2="5.0" stroke="#8c8c8c" stroke-width="0.3" stroke-dasharray="1.2,0.8"/>
<line x1="6.757" y1="51.059" x2="5.0" y2="5.0" stroke="#141414" stroke-width="0.4"/>
<line x1="47.992" y1="34.821" x2="6.757" y2="51.059" stroke="#141414" stroke-width="0.4"/>
<line x1="5.0" y1="5.0" x2="41.419" y2="5.0" stroke="#141414" stroke-width="0.4"/>
<line x1="41.419" y1="5.0" x2="47.992" y2="34.821" stroke="#141414" stroke-width="0.4"/>
<circle cx="19.916" cy="30.293" r="4.60" fill="#eaf1fe" stroke="#2e78e6" stroke-width="0.3"/>
<text x="19.916" y="32.09" font-size="5.20" text-anchor="middle" fill="#14306e" font-weight="bold">4</text>
<line x1="50.992" y1="32.675" x2="98.351" y2="32.675" stroke="#8c8c8c" stroke-width="0.3" stroke-dasharray="1.2,0.8"/>
<line x1="50.992" y1="32.675" x2="71.483" y2="5.0" stroke="#141414" stroke-width="0.4"/>
<line x1="71.483" y1="5.0" x2="98.351" y2="32.675" stroke="#141414" stroke-width="0.4"/>
<line x1="69.405" y1="51.479" x2="50.992" y2="32.675" stroke="#141414" stroke-width="0.4"/>
<line x1="98.351" y1="32.675" x2="69.405" y2="51.479" stroke="#141414" stroke-width="0.4"/>
<circle cx="73.609" cy="23.45" r="4.60" fill="#eaf1fe" stroke="#2e78e6" stroke-width="0.3"/>
<text x="73.609" y="25.25" font-size="5.20" text-anchor="middle" fill="#14306e" font-weight="bold">5</text>
<polygon points="48.714,222.26 49.129,230.216 68.6,250.571 76.53,251.339" fill="rgb(216,216,216)"/>
<polygon points="48.714,222.26 38.338,211.24 12.224,150.26 11.408,135.145" fill="rgb(216,216,216)"/>
<polygon points="91.651,222.26 97.782,221.066 89.009,182.988 88.956,182.21" fill="rgb(216,216,216)"/>
<polygon points="91.651,222.26 93.996,229.021 83.412,249.376 76.53,251.339" fill="rgb(216,216,216)"/>
<polygon points="11.408,135.145 9.702,123.499 24.832,76.597 33.023,68.143" fill="rgb(216,216,216)"/>
<polygon points="118.492,67.237 126.643,65.298 154.431,78.244 158.189,85.732" fill="rgb(216,216,216)"/>
<polygon points="118.492,67.237 112.75,61.585 84.112,59.405 77.58,64.122" fill="rgb(216,216,216)"/>
<polygon points="91.651,222.26 97.782,221.066 89.009,182.988 88.956,182.21" fill="#99d9fa"/>
<line x1="48.714" y1="222.26" x2="91.651" y2="222.26" stroke="#8c8c8c" stroke-width="0.3" stroke-dasharray="1.2,0.8"/>
<line x1="48.714" y1="222.26" x2="88.956" y2="182.21" stroke="#8c8c8c" stroke-width="0.3" stroke-dasharray="1.2,0.8"/>
<line x1="48.714" y1="222.26" x2="77.58" y2="64.123" stroke="#8c8c8c" stroke-width="0.3" stroke-dasharray="1.2,0.8"/>
<line x1="33.023" y1="68.143" x2="48.714" y2="222.26" stroke="#8c8c8c" stroke-width="0.3" stroke-dasharray="1.2,0.8"/>
<line x1="118.492" y1="67.237" x2="88.956" y2="182.21" stroke="#8c8c8c" stroke-width="0.3" stroke-dasharray="1.2,0.8"/>
<line x1="77.58" y1="64.123" x2="88.956" y2="182.21" stroke="#8c8c8c" stroke-width="0.3" stroke-dasharray="1.2,0.8"/>
<line x1="88.956" y1="182.21" x2="158.189" y2="85.732" stroke="#8c8c8c" stroke-width="0.3" stroke-dasharray="1.2,0.8"/>
<line x1="76.53" y1="251.339" x2="48.714" y2="222.26" stroke="#8c8c8c" stroke-width="0.3" stroke-dasharray="1.2,0.8"/>
<line x1="11.408" y1="135.145" x2="48.714" y2="222.26" stroke="#8c8c8c" stroke-width="0.3" stroke-dasharray="1.2,0.8"/>
<line x1="88.956" y1="182.21" x2="91.651" y2="222.26" stroke="#8c8c8c" stroke-width="0.3" stroke-dasharray="1.2,0.8"/>
<line x1="76.53" y1="251.339" x2="91.651" y2="222.26" stroke="#8c8c8c" stroke-width="0.3" stroke-dasharray="1.2,0.8"/>
<line x1="33.023" y1="68.143" x2="11.408" y2="135.145" stroke="#8c8c8c" stroke-width="0.3" stroke-dasharray="1.2,0.8"/>
<line x1="158.189" y1="85.732" x2="118.492" y2="67.237" stroke="#8c8c8c" stroke-width="0.3" stroke-dasharray="1.2,0.8"/>
<line x1="77.58" y1="64.122" x2="118.492" y2="67.237" stroke="#8c8c8c" stroke-width="0.3" stroke-dasharray="1.2,0.8"/>
<line x1="98.334" y1="221.24" x2="88.956" y2="182.21" stroke="#141414" stroke-width="0.4"/>
<line x1="158.189" y1="85.732" x2="98.334" y2="221.24" stroke="#141414" stroke-width="0.4"/>
<line x1="33.023" y1="68.143" x2="77.58" y2="64.123" stroke="#141414" stroke-width="0.4"/>
<line x1="48.714" y1="222.26" x2="49.129" y2="230.216" stroke="#141414" stroke-width="0.4"/>
<line x1="49.129" y1="230.216" x2="68.6" y2="250.571" stroke="#141414" stroke-width="0.4"/>
<line x1="68.6" y1="250.571" x2="76.53" y2="251.339" stroke="#141414" stroke-width="0.4"/>
<line x1="48.714" y1="222.26" x2="38.338" y2="211.24" stroke="#141414" stroke-width="0.4"/>
<line x1="38.338" y1="211.24" x2="12.224" y2="150.26" stroke="#141414" stroke-width="0.4"/>
<line x1="12.224" y1="150.26" x2="11.408" y2="135.145" stroke="#141414" stroke-width="0.4"/>
<line x1="91.651" y1="222.26" x2="97.782" y2="221.066" stroke="#141414" stroke-width="0.4"/>
<line x1="97.782" y1="221.066" x2="89.009" y2="182.988" stroke="#141414" stroke-width="0.4"/>
<line x1="89.009" y1="182.988" x2="88.956" y2="182.21" stroke="#141414" stroke-width="0.4"/>
<line x1="91.651" y1="222.26" x2="93.996" y2="229.021" stroke="#141414" stroke-width="0.4"/>
<line x1="93.996" y1="229.021" x2="83.412" y2="249.376" stroke="#141414" stroke-width="0.4"/>
<line x1="83.412" y1="249.376" x2="76.53" y2="251.339" stroke="#141414" stroke-width="0.4"/>
<line x1="11.408" y1="135.145" x2="9.702" y2="123.499" stroke="#141414" stroke-width="0.4"/>
<line x1="9.702" y1="123.499" x2="24.832" y2="76.597" stroke="#141414" stroke-width="0.4"/>
<line x1="24.832" y1="76.597" x2="33.023" y2="68.143" stroke="#141414" stroke-width="0.4"/>
<line x1="118.492" y1="67.237" x2="126.643" y2="65.298" stroke="#141414" stroke-width="0.4"/>
<line x1="126.643" y1="65.298" x2="154.431" y2="78.244" stroke="#141414" stroke-width="0.4"/>
<line x1="154.431" y1="78.244" x2="158.189" y2="85.732" stroke="#141414" stroke-width="0.4"/>
<line x1="118.492" y1="67.237" x2="112.75" y2="61.585" stroke="#141414" stroke-width="0.4"/>
<line x1="112.75" y1="61.585" x2="84.112" y2="59.405" stroke="#141414" stroke-width="0.4"/>
<line x1="84.112" y1="59.405" x2="77.58" y2="64.122" stroke="#141414" stroke-width="0.4"/>
<circle cx="60.743" cy="238.597" r="2.29" fill="#ffe082" stroke="#464646" stroke-width="0.2"/>
<text x="60.743" y="239.38" font-size="2.24" text-anchor="middle" fill="#141414">1</text>
<circle cx="27.671" cy="179.726" r="2.29" fill="#ffe082" stroke="#464646" stroke-width="0.2"/>
<text x="27.671" y="180.51" font-size="2.24" text-anchor="middle" fill="#141414">2</text>
<circle cx="86.397" cy="237.999" r="2.29" fill="#ffe082" stroke="#464646" stroke-width="0.2"/>
<text x="86.397" y="238.78" font-size="2.24" text-anchor="middle" fill="#141414">4</text>
<circle cx="19.741" cy="100.846" r="2.29" fill="#ffe082" stroke="#464646" stroke-width="0.2"/>
<text x="19.741" y="101.63" font-size="2.24" text-anchor="middle" fill="#141414">9</text>
<circle cx="139.439" cy="74.128" r="2.29" fill="#ffe082" stroke="#464646" stroke-width="0.2"/>
<text x="139.439" y="74.91" font-size="2.24" text-anchor="middle" fill="#141414">11</text>
<circle cx="98.234" cy="63.087" r="2.29" fill="#ffe082" stroke="#464646" stroke-width="0.2"/>
<text x="98.234" y="63.87" font-size="2.24" text-anchor="middle" fill="#141414">12</text>
<circle cx="31.048" cy="141.85" r="4.60" fill="#eaf1fe" stroke="#2e78e6" stroke-width="0.3"/>
<text x="31.048" y="143.65" font-size="5.20" text-anchor="middle" fill="#14306e" font-weight="bold">6</text>
<text x="205.0" y="295.0" font-size="3.2" text-anchor="end" fill="#737373" font-family="sans-serif">3 / 17</text>
<g pointer-events="none"><text x="105.0" y="83.2" text-anchor="middle" font-family="sans-serif" font-size="12.4" fill="#9aa0a6" fill-opacity="0.3" transform="rotate(-28 105.0 83.2)">papercraft.kr</text><text x="105.0" y="148.5" text-anchor="middle" font-family="sans-serif" font-size="12.4" fill="#9aa0a6" fill-opacity="0.3" transform="rotate(-28 105.0 148.5)">papercraft.kr</text><text x="105.0" y="213.8" text-anchor="middle" font-family="sans-serif" font-size="12.4" fill="#9aa0a6" fill-opacity="0.3" transform="rotate(-28 105.0 213.8)">papercraft.kr</text></g></svg>
