<svg xmlns="http://www.w3.org/2000/svg" xmlns:xlink="http://www.w3.org/1999/xlink" width="210.00mm" height="297.00mm" viewBox="0 0 210.00 297.00">
<rect x="0" y="0" width="210.00" height="297.00" fill="#ffffff" stroke="#cccccc" stroke-width="0.2"/>
<polygon points="62.264,116.61 66.614,123.61 86.91,123.61 91.26,116.61" fill="rgb(216,216,216)"/>
<polygon points="62.264,75.303 66.614,68.303 86.91,68.303 91.26,75.303" fill="rgb(216,216,216)"/>
<polygon points="91.26,116.61 98.26,110.414 98.26,81.499 91.26,75.303" fill="rgb(216,216,216)"/>
<polygon points="62.264,145.606 58.024,152.606 38.236,152.606 33.996,145.606" fill="rgb(216,216,216)"/>
<polygon points="33.996,116.61 26.996,110.414 26.996,81.499 33.996,75.303" fill="rgb(216,216,216)"/>
<polygon points="33.996,116.61 26.996,120.96 26.996,141.256 33.996,145.606" fill="rgb(216,216,216)"/>
<polygon points="33.996,75.303 26.996,70.954 26.996,50.657 33.996,46.307" fill="rgb(216,216,216)"/>
<polygon points="62.264,116.61 66.614,123.61 86.91,123.61 91.26,116.61" fill="#99d9fa"/>
<line x1="62.264" y1="116.61" x2="62.264" y2="75.303" stroke="#8c8c8c" stroke-width="0.3" stroke-dasharray="1.2,0.8"/>
<line x1="62.264" y1="116.61" x2="33.996" y2="116.61" stroke="#8c8c8c" stroke-width="0.3" stroke-dasharray="1.2,0.8"/>
<line x1="33.996" y1="75.303" x2="62.264" y2="75.303" stroke="#8c8c8c" stroke-width="0.3" stroke-dasharray="1.2,0.8"/>
<line x1="33.996" y1="46.307" x2="62.264" y2="46.307" stroke="#8c8c8c" stroke-width="0.3" stroke-dasharray="1.2,0.8"/>
<line x1="33.996" y1="46.307" x2="33.996" y2="5.0" stroke="#8c8c8c" stroke-width="0.3" stroke-dasharray="1.2,0.8"/>
<line x1="91.26" y1="116.61" x2="62.264" y2="116.61" stroke="#8c8c8c" stroke-width="0.3" stroke-dasharray="1.2,0.8"/>
<line x1="91.26" y1="75.303" x2="62.264" y2="75.303" stroke="#8c8c8c" stroke-width="0.3" stroke-dasharray="1.2,0.8"/>
<line x1="91.26" y1="75.303" x2="91.26" y2="116.61" stroke="#8c8c8c" stroke-width="0.3" stroke-dasharray="1.2,0.8"/>
<line x1="33.996" y1="145.606" x2="62.264" y2="145.606" stroke="#8c8c8c" stroke-width="0.3" stroke-dasharray="1.2,0.8"/>
<line x1="33.996" y1="75.303" x2="33.996" y2="116.61" stroke="#8c8c8c" stroke-width="0.3" stroke-dasharray="1.2,0.8"/>
<line x1="33.996" y1="145.606" x2="33.996" y2="116.61" stroke="#8c8c8c" stroke-width="0.3" stroke-dasharray="1.2,0.8"/>
<line x1="33.996" y1="46.307" x2="33.996" y2="75.303" stroke="#8c8c8c" stroke-width="0.3" stroke-dasharray="1.2,0.8"/>
<line x1="62.264" y1="116.61" x2="62.264" y2="145.606" stroke="#141414" stroke-width="0.4"/>
<line x1="62.264" y1="46.307" x2="62.264" y2="75.303" stroke="#141414" stroke-width="0.4"/>
<line x1="62.264" y1="5.0" x2="62.264" y2="46.307" stroke="#141414" stroke-width="0.4"/>
<line x1="33.996" y1="5.0" x2="62.264" y2="5.0" stroke="#141414" stroke-width="0.4"/>
<line x1="5.0" y1="46.307" x2="5.0" y2="5.0" stroke="#141414" stroke-width="0.4"/>
<line x1="5.0" y1="5.0" x2="33.996" y2="5.0" stroke="#141414" stroke-width="0.4"/>
<line x1="33.996" y1="46.307" x2="5.0" y2="46.307" stroke="#141414" stroke-width="0.4"/>
<line x1="62.264" y1="116.61" x2="66.614" y2="123.61" stroke="#141414" stroke-width="0.4"/>
<line x1="66.614" y1="123.61" x2="86.91" y2="123.61" stroke="#141414" stroke-width="0.4"/>
<line x1="86.91" y1="123.61" x2="91.26" y2="116.61" stroke="#141414" stroke-width="0.4"/>
<line x1="62.264" y1="75.303" x2="66.614" y2="68.303" stroke="#141414" stroke-width="0.4"/>
<line x1="66.614" y1="68.303" x2="86.91" y2="68.303" stroke="#141414" stroke-width="0.4"/>
<line x1="86.91" y1="68.303" x2="91.26" y2="75.303" stroke="#141414" stroke-width="0.4"/>
<line x1="91.26" y1="116.61" x2="98.26" y2="110.414" stroke="#141414" stroke-width="0.4"/>
<line x1="98.26" y1="110.414" x2="98.26" y2="81.499" stroke="#141414" stroke-width="0.4"/>
<line x1="98.26" y1="81.499" x2="91.26" y2="75.303" stroke="#141414" stroke-width="0.4"/>
<line x1="62.264" y1="145.606" x2="58.024" y2="152.606" stroke="#141414" stroke-width="0.4"/>
<line x1="58.024" y1="152.606" x2="38.236" y2="152.606" stroke="#141414" stroke-width="0.4"/>
<line x1="38.236" y1="152.606" x2="33.996" y2="145.606" stroke="#141414" stroke-width="0.4"/>
<line x1="33.996" y1="116.61" x2="26.996" y2="110.414" stroke="#141414" stroke-width="0.4"/>
<line x1="26.996" y1="110.414" x2="26.996" y2="81.499" stroke="#141414" stroke-width="0.4"/>
<line x1="26.996" y1="81.499" x2="33.996" y2="75.303" stroke="#141414" stroke-width="0.4"/>
<line x1="33.996" y1="116.61" x2="26.996" y2="120.96" stroke="#141414" stroke-width="0.4"/>
<line x1="26.996" y1="120.96" x2="26.996" y2="141.256" stroke="#141414" stroke-width="0.4"/>
<line x1="26.996" y1="141.256" x2="33.996" y2="145.606" stroke="#141414" stroke-width="0.4"/>
<line x1="33.996" y1="75.303" x2="26.996" y2="70.954" stroke="#141414" stroke-width="0.4"/>
<line x1="26.996" y1="70.954" x2="26.996" y2="50.657" stroke="#141414" stroke-width="0.4"/>
<line x1="26.996" y1="50.657" x2="33.996" y2="46.307" stroke="#141414" stroke-width="0.4"/>
<circle cx="76.762" cy="120.11" r="2.33" fill="#99d9fa" stroke="#464646" stroke-width="0.2"/>
<text x="76.762" y="120.91" font-size="2.28" text-anchor="middle" fill="#141414">91</text>
<circle cx="76.762" cy="71.803" r="2.33" fill="#ffe082" stroke="#464646" stroke-width="0.2"/>
<text x="76.762" y="72.60" font-size="2.28" text-anchor="middle" fill="#141414">92</text>
<circle cx="94.76" cy="95.957" r="2.33" fill="#ffe082" stroke="#464646" stroke-width="0.2"/>
<text x="94.76" y="96.76" font-size="2.28" text-anchor="middle" fill="#141414">93</text>
<circle cx="48.13" cy="149.106" r="2.33" fill="#ffe082" stroke="#464646" stroke-width="0.2"/>
<text x="48.13" y="149.91" font-size="2.28" text-anchor="middle" fill="#141414">94</text>
<circle cx="30.496" cy="95.957" r="2.33" fill="#ffe082" stroke="#464646" stroke-width="0.2"/>
<text x="30.496" y="96.76" font-size="2.28" text-anchor="middle" fill="#141414">95</text>
<circle cx="30.496" cy="131.108" r="2.33" fill="#ffe082" stroke="#464646" stroke-width="0.2"/>
<text x="30.496" y="131.91" font-size="2.28" text-anchor="middle" fill="#141414">96</text>
<circle cx="30.496" cy="60.805" r="2.33" fill="#ffe082" stroke="#464646" stroke-width="0.2"/>
<text x="30.496" y="61.60" font-size="2.28" text-anchor="middle" fill="#141414">97</text>
<circle cx="71.929" cy="89.072" r="4.60" fill="#eaf1fe" stroke="#2e78e6" stroke-width="0.3"/>
<text x="71.929" y="90.87" font-size="5.20" text-anchor="middle" fill="#14306e" font-weight="bold">13</text>
<polygon points="158.524,116.61 162.874,123.61 183.17,123.61 187.52,116.61" fill="rgb(216,216,216)"/>
<polygon points="158.524,75.303 162.874,68.303 183.17,68.303 187.52,75.303" fill="rgb(216,216,216)"/>
<polygon points="187.52,116.61 194.52,110.414 194.52,81.499 187.52,75.303" fill="rgb(216,216,216)"/>
<polygon points="158.524,145.606 154.284,152.606 134.496,152.606 130.256,145.606" fill="rgb(216,216,216)"/>
<polygon points="130.256,116.61 123.255,110.414 123.255,81.499 130.256,75.303" fill="rgb(216,216,216)"/>
<polygon points="130.256,116.61 123.255,120.96 123.255,141.256 130.256,145.606" fill="rgb(216,216,216)"/>
<polygon points="130.256,75.303 123.255,70.954 123.255,50.657 130.256,46.307" fill="rgb(216,216,216)"/>
<polygon points="158.524,116.61 162.874,123.61 183.17,123.61 187.52,116.61" fill="#99d9fa"/>
<line x1="158.524" y1="116.61" x2="158.524" y2="75.303" stroke="#8c8c8c" stroke-width="0.3" stroke-dasharray="1.2,0.8"/>
<line x1="158.524" y1="116.61" x2="130.256" y2="116.61" stroke="#8c8c8c" stroke-width="0.3" stroke-dasharray="1.2,0.8"/>
<line x1="130.256" y1="75.303" x2="158.524" y2="75.303" stroke="#8c8c8c" stroke-width="0.3" stroke-dasharray="1.2,0.8"/>
<line x1="130.256" y1="46.307" x2="158.524" y2="46.307" stroke="#8c8c8c" stroke-width="0.3" stroke-dasharray="1.2,0.8"/>
<line x1="130.256" y1="46.307" x2="130.256" y2="5.0" stroke="#8c8c8c" stroke-width="0.3" stroke-dasharray="1.2,0.8"/>
<line x1="187.52" y1="116.61" x2="158.524" y2="116.61" stroke="#8c8c8c" stroke-width="0.3" stroke-dasharray="1.2,0.8"/>
<line x1="187.52" y1="75.303" x2="158.524" y2="75.303" stroke="#8c8c8c" stroke-width="0.3" stroke-dasharray="1.2,0.8"/>
<line x1="187.52" y1="75.303" x2="187.52" y2="116.61" stroke="#8c8c8c" stroke-width="0.3" stroke-dasharray="1.2,0.8"/>
<line x1="130.256" y1="145.606" x2="158.524" y2="145.606" stroke="#8c8c8c" stroke-width="0.3" stroke-dasharray="1.2,0.8"/>
<line x1="130.256" y1="75.303" x2="130.256" y2="116.61" stroke="#8c8c8c" stroke-width="0.3" stroke-dasharray="1.2,0.8"/>
<line x1="130.256" y1="145.606" x2="130.256" y2="116.61" stroke="#8c8c8c" stroke-width="0.3" stroke-dasharray="1.2,0.8"/>
<line x1="130.256" y1="46.307" x2="130.256" y2="75.303" stroke="#8c8c8c" stroke-width="0.3" stroke-dasharray="1.2,0.8"/>
<line x1="158.524" y1="116.61" x2="158.524" y2="145.606" stroke="#141414" stroke-width="0.4"/>
<line x1="158.524" y1="46.307" x2="158.524" y2="75.303" stroke="#141414" stroke-width="0.4"/>
<line x1="158.524" y1="5.0" x2="158.524" y2="46.307" stroke="#141414" stroke-width="0.4"/>
<line x1="130.256" y1="5.0" x2="158.524" y2="5.0" stroke="#141414" stroke-width="0.4"/>
<line x1="101.26" y1="46.307" x2="101.26" y2="5.0" stroke="#141414" stroke-width="0.4"/>
<line x1="101.26" y1="5.0" x2="130.256" y2="5.0" stroke="#141414" stroke-width="0.4"/>
<line x1="130.256" y1="46.307" x2="101.26" y2="46.307" stroke="#141414" stroke-width="0.4"/>
<line x1="158.524" y1="116.61" x2="162.874" y2="123.61" stroke="#141414" stroke-width="0.4"/>
<line x1="162.874" y1="123.61" x2="183.17" y2="123.61" stroke="#141414" stroke-width="0.4"/>
<line x1="183.17" y1="123.61" x2="187.52" y2="116.61" stroke="#141414" stroke-width="0.4"/>
<line x1="158.524" y1="75.303" x2="162.874" y2="68.303" stroke="#141414" stroke-width="0.4"/>
<line x1="162.874" y1="68.303" x2="183.17" y2="68.303" stroke="#141414" stroke-width="0.4"/>
<line x1="183.17" y1="68.303" x2="187.52" y2="75.303" stroke="#141414" stroke-width="0.4"/>
<line x1="187.52" y1="116.61" x2="194.52" y2="110.414" stroke="#141414" stroke-width="0.4"/>
<line x1="194.52" y1="110.414" x2="194.52" y2="81.499" stroke="#141414" stroke-width="0.4"/>
<line x1="194.52" y1="81.499" x2="187.52" y2="75.303" stroke="#141414" stroke-width="0.4"/>
<line x1="158.524" y1="145.606" x2="154.284" y2="152.606" stroke="#141414" stroke-width="0.4"/>
<line x1="154.284" y1="152.606" x2="134.496" y2="152.606" stroke="#141414" stroke-width="0.4"/>
<line x1="134.496" y1="152.606" x2="130.256" y2="145.606" stroke="#141414" stroke-width="0.4"/>
<line x1="130.256" y1="116.61" x2="123.255" y2="110.414" stroke="#141414" stroke-width="0.4"/>
<line x1="123.255" y1="110.414" x2="123.255" y2="81.499" stroke="#141414" stroke-width="0.4"/>
<line x1="123.255" y1="81.499" x2="130.256" y2="75.303" stroke="#141414" stroke-width="0.4"/>
<line x1="130.256" y1="116.61" x2="123.255" y2="120.96" stroke="#141414" stroke-width="0.4"/>
<line x1="123.255" y1="120.96" x2="123.255" y2="141.256" stroke="#141414" stroke-width="0.4"/>
<line x1="123.255" y1="141.256" x2="130.256" y2="145.606" stroke="#141414" stroke-width="0.4"/>
<line x1="130.256" y1="75.303" x2="123.255" y2="70.954" stroke="#141414" stroke-width="0.4"/>
<line x1="123.255" y1="70.954" x2="123.255" y2="50.657" stroke="#141414" stroke-width="0.4"/>
<line x1="123.255" y1="50.657" x2="130.256" y2="46.307" stroke="#141414" stroke-width="0.4"/>
<circle cx="173.022" cy="120.11" r="2.33" fill="#99d9fa" stroke="#464646" stroke-width="0.2"/>
<text x="173.022" y="120.91" font-size="2.28" text-anchor="middle" fill="#141414">98</text>
<circle cx="173.022" cy="71.803" r="2.33" fill="#ffe082" stroke="#464646" stroke-width="0.2"/>
<text x="173.022" y="72.60" font-size="2.28" text-anchor="middle" fill="#141414">99</text>
<circle cx="191.02" cy="95.957" r="2.33" fill="#ffe082" stroke="#464646" stroke-width="0.2"/>
<text x="191.02" y="96.76" font-size="2.28" text-anchor="middle" fill="#141414">100</text>
<circle cx="144.39" cy="149.106" r="2.33" fill="#ffe082" stroke="#464646" stroke-width="0.2"/>
<text x="144.39" y="149.91" font-size="2.28" text-anchor="middle" fill="#141414">101</text>
<circle cx="126.756" cy="95.957" r="2.33" fill="#ffe082" stroke="#464646" stroke-width="0.2"/>
<text x="126.756" y="96.76" font-size="2.28" text-anchor="middle" fill="#141414">102</text>
<circle cx="126.756" cy="131.108" r="2.33" fill="#ffe082" stroke="#464646" stroke-width="0.2"/>
<text x="126.756" y="131.91" font-size="2.28" text-anchor="middle" fill="#141414">103</text>
<circle cx="126.756" cy="60.805" r="2.33" fill="#ffe082" stroke="#464646" stroke-width="0.2"/>
<text x="126.756" y="61.60" font-size="2.28" text-anchor="middle" fill="#141414">104</text>
<circle cx="168.189" cy="89.072" r="4.60" fill="#eaf1fe" stroke="#2e78e6" stroke-width="0.3"/>
<text x="168.189" y="90.87" font-size="5.20" text-anchor="middle" fill="#14306e" font-weight="bold">14</text>
<text x="205.0" y="295.0" font-size="3.2" text-anchor="end" fill="#737373" font-family="sans-serif">8 / 8</text>
<g pointer-events="none"><text x="105.0" y="83.2" text-anchor="middle" font-family="sans-serif" font-size="12.4" fill="#9aa0a6" fill-opacity="0.3" transform="rotate(-28 105.0 83.2)">papercraft.kr</text><text x="105.0" y="148.5" text-anchor="middle" font-family="sans-serif" font-size="12.4" fill="#9aa0a6" fill-opacity="0.3" transform="rotate(-28 105.0 148.5)">papercraft.kr</text><text x="105.0" y="213.8" text-anchor="middle" font-family="sans-serif" font-size="12.4" fill="#9aa0a6" fill-opacity="0.3" transform="rotate(-28 105.0 213.8)">papercraft.kr</text></g></svg>
