<svg xmlns="http://www.w3.org/2000/svg" xmlns:xlink="http://www.w3.org/1999/xlink" width="210.00mm" height="297.00mm" viewBox="0 0 210.00 297.00">
<rect x="0" y="0" width="210.00" height="297.00" fill="#ffffff" stroke="#cccccc" stroke-width="0.2"/>
<polygon points="42.856,22.365 39.438,15.884 46.585,8.737 53.066,12.155" fill="rgb(216,216,216)"/>
<polygon points="19.648,44.296 16.422,50.969 24.462,59.009 31.134,55.782" fill="rgb(216,216,216)"/>
<polygon points="19.648,44.296 12.804,47.141 5.231,38.659 8.83,32.18" fill="rgb(216,216,216)"/>
<polygon points="53.066,32.574 59.547,35.993 66.694,28.846 63.276,22.365" fill="rgb(216,216,216)"/>
<polygon points="31.134,55.782 28.29,62.627 36.771,70.2 43.251,66.601" fill="rgb(216,216,216)"/>
<polygon points="63.276,22.365 66.694,15.884 59.547,8.737 53.066,12.155" fill="rgb(216,216,216)"/>
<polygon points="75.133,51.184 77.855,59.217 64.433,77.091 55.96,76.718" fill="rgb(216,216,216)"/>
<polygon points="42.856,22.365 39.438,15.884 46.585,8.737 53.066,12.155" fill="#99d9fa"/>
<line x1="19.648" y1="44.296" x2="42.856" y2="22.365" stroke="#8c8c8c" stroke-width="0.3" stroke-dasharray="1.2,0.8"/>
<line x1="53.066" y1="32.575" x2="42.856" y2="22.365" stroke="#8c8c8c" stroke-width="0.3" stroke-dasharray="1.2,0.8"/>
<line x1="53.066" y1="32.575" x2="31.134" y2="55.782" stroke="#8c8c8c" stroke-width="0.3" stroke-dasharray="1.2,0.8"/>
<line x1="63.836" y1="42.191" x2="43.251" y2="66.601" stroke="#8c8c8c" stroke-width="0.3" stroke-dasharray="1.2,0.8"/>
<line x1="55.96" y1="76.718" x2="43.251" y2="66.601" stroke="#8c8c8c" stroke-width="0.3" stroke-dasharray="1.2,0.8"/>
<line x1="53.066" y1="12.155" x2="42.856" y2="22.365" stroke="#8c8c8c" stroke-width="0.3" stroke-dasharray="1.2,0.8"/>
<line x1="31.134" y1="55.782" x2="19.648" y2="44.296" stroke="#8c8c8c" stroke-width="0.3" stroke-dasharray="1.2,0.8"/>
<line x1="8.83" y1="32.18" x2="19.648" y2="44.296" stroke="#8c8c8c" stroke-width="0.3" stroke-dasharray="1.2,0.8"/>
<line x1="63.276" y1="22.365" x2="53.066" y2="32.574" stroke="#8c8c8c" stroke-width="0.3" stroke-dasharray="1.2,0.8"/>
<line x1="43.251" y1="66.601" x2="31.134" y2="55.782" stroke="#8c8c8c" stroke-width="0.3" stroke-dasharray="1.2,0.8"/>
<line x1="53.066" y1="12.155" x2="63.276" y2="22.365" stroke="#8c8c8c" stroke-width="0.3" stroke-dasharray="1.2,0.8"/>
<line x1="55.96" y1="76.718" x2="75.133" y2="51.184" stroke="#8c8c8c" stroke-width="0.3" stroke-dasharray="1.2,0.8"/>
<line x1="33.24" y1="11.594" x2="42.856" y2="22.365" stroke="#141414" stroke-width="0.4"/>
<line x1="45.843" y1="89.426" x2="33.134" y2="79.31" stroke="#141414" stroke-width="0.4"/>
<line x1="55.96" y1="76.718" x2="45.843" y2="89.426" stroke="#141414" stroke-width="0.4"/>
<line x1="53.066" y1="32.575" x2="63.836" y2="42.191" stroke="#141414" stroke-width="0.4"/>
<line x1="33.134" y1="79.31" x2="43.251" y2="66.601" stroke="#141414" stroke-width="0.4"/>
<line x1="63.836" y1="42.191" x2="75.133" y2="51.184" stroke="#141414" stroke-width="0.4"/>
<line x1="8.83" y1="32.18" x2="33.24" y2="11.594" stroke="#141414" stroke-width="0.4"/>
<line x1="42.856" y1="22.365" x2="39.438" y2="15.884" stroke="#141414" stroke-width="0.4"/>
<line x1="39.438" y1="15.884" x2="46.585" y2="8.737" stroke="#141414" stroke-width="0.4"/>
<line x1="46.585" y1="8.737" x2="53.066" y2="12.155" stroke="#141414" stroke-width="0.4"/>
<line x1="19.648" y1="44.296" x2="16.422" y2="50.969" stroke="#141414" stroke-width="0.4"/>
<line x1="16.422" y1="50.969" x2="24.462" y2="59.009" stroke="#141414" stroke-width="0.4"/>
<line x1="24.462" y1="59.009" x2="31.134" y2="55.782" stroke="#141414" stroke-width="0.4"/>
<line x1="19.648" y1="44.296" x2="12.804" y2="47.141" stroke="#141414" stroke-width="0.4"/>
<line x1="12.804" y1="47.141" x2="5.231" y2="38.659" stroke="#141414" stroke-width="0.4"/>
<line x1="5.231" y1="38.659" x2="8.83" y2="32.18" stroke="#141414" stroke-width="0.4"/>
<line x1="53.066" y1="32.574" x2="59.547" y2="35.993" stroke="#141414" stroke-width="0.4"/>
<line x1="59.547" y1="35.993" x2="66.694" y2="28.846" stroke="#141414" stroke-width="0.4"/>
<line x1="66.694" y1="28.846" x2="63.276" y2="22.365" stroke="#141414" stroke-width="0.4"/>
<line x1="31.134" y1="55.782" x2="28.29" y2="62.627" stroke="#141414" stroke-width="0.4"/>
<line x1="28.29" y1="62.627" x2="36.771" y2="70.2" stroke="#141414" stroke-width="0.4"/>
<line x1="36.771" y1="70.2" x2="43.251" y2="66.601" stroke="#141414" stroke-width="0.4"/>
<line x1="63.276" y1="22.365" x2="66.694" y2="15.884" stroke="#141414" stroke-width="0.4"/>
<line x1="66.694" y1="15.884" x2="59.547" y2="8.737" stroke="#141414" stroke-width="0.4"/>
<line x1="59.547" y1="8.737" x2="53.066" y2="12.155" stroke="#141414" stroke-width="0.4"/>
<line x1="75.133" y1="51.184" x2="77.855" y2="59.217" stroke="#141414" stroke-width="0.4"/>
<line x1="77.855" y1="59.217" x2="64.433" y2="77.091" stroke="#141414" stroke-width="0.4"/>
<line x1="64.433" y1="77.091" x2="55.96" y2="76.718" stroke="#141414" stroke-width="0.4"/>
<circle cx="45.486" cy="14.785" r="1.50" fill="#99d9fa" stroke="#464646" stroke-width="0.2"/>
<text x="45.486" y="15.30" font-size="1.47" text-anchor="middle" fill="#141414">150</text>
<circle cx="22.917" cy="52.514" r="1.50" fill="#ffe082" stroke="#464646" stroke-width="0.2"/>
<text x="22.917" y="53.03" font-size="1.47" text-anchor="middle" fill="#141414">151</text>
<circle cx="11.628" cy="40.569" r="1.50" fill="#ffe082" stroke="#464646" stroke-width="0.2"/>
<text x="11.628" y="41.08" font-size="1.47" text-anchor="middle" fill="#141414">152</text>
<circle cx="60.646" cy="29.944" r="1.50" fill="#ffe082" stroke="#464646" stroke-width="0.2"/>
<text x="60.646" y="30.46" font-size="1.47" text-anchor="middle" fill="#141414">153</text>
<circle cx="34.862" cy="63.802" r="1.50" fill="#ffe082" stroke="#464646" stroke-width="0.2"/>
<text x="34.862" y="64.32" font-size="1.47" text-anchor="middle" fill="#141414">154</text>
<circle cx="60.646" cy="14.785" r="1.50" fill="#ffe082" stroke="#464646" stroke-width="0.2"/>
<text x="60.646" y="15.30" font-size="1.47" text-anchor="middle" fill="#141414">155</text>
<circle cx="68.345" cy="66.052" r="1.50" fill="#ffe082" stroke="#464646" stroke-width="0.2"/>
<text x="68.345" y="66.57" font-size="1.47" text-anchor="middle" fill="#141414">156</text>
<circle cx="41.312" cy="91.79" r="4.6" fill="#eaf1fe" stroke="#2e78e6" stroke-width="0.3"/>
<text x="41.312" y="93.59" font-size="5.2" text-anchor="middle" fill="#14306e" font-weight="bold">14</text>
<g pointer-events="none"><text x="105.0" y="83.2" text-anchor="middle" font-family="sans-serif" font-size="12.4" fill="#9aa0a6" fill-opacity="0.3" transform="rotate(-28 105.0 83.2)">papercraft.kr</text><text x="105.0" y="148.5" text-anchor="middle" font-family="sans-serif" font-size="12.4" fill="#9aa0a6" fill-opacity="0.3" transform="rotate(-28 105.0 148.5)">papercraft.kr</text><text x="105.0" y="213.8" text-anchor="middle" font-family="sans-serif" font-size="12.4" fill="#9aa0a6" fill-opacity="0.3" transform="rotate(-28 105.0 213.8)">papercraft.kr</text></g></svg>
