<svg xmlns="http://www.w3.org/2000/svg" xmlns:xlink="http://www.w3.org/1999/xlink" width="210.00mm" height="297.00mm" viewBox="0 0 210.00 297.00">
<rect x="0" y="0" width="210.00" height="297.00" fill="#ffffff" stroke="#cccccc" stroke-width="0.2"/>
<polygon points="55.302,22.859 52.502,15.759 62.533,5.729 69.632,8.529" fill="rgb(216,216,216)"/>
<polygon points="23.934,52.316 21.421,59.702 32.789,71.07 40.175,68.556" fill="rgb(216,216,216)"/>
<polygon points="23.934,52.316 16.405,54.361 5.773,42.302 8.745,35.089" fill="rgb(216,216,216)"/>
<polygon points="69.632,37.188 76.731,39.989 86.762,29.958 83.962,22.859" fill="rgb(216,216,216)"/>
<polygon points="40.175,68.556 38.129,76.085 50.189,86.718 57.402,83.746" fill="rgb(216,216,216)"/>
<polygon points="83.962,22.859 86.762,15.759 76.731,5.729 69.632,8.529" fill="rgb(216,216,216)"/>
<polygon points="100.845,63.012 102.713,72.349 85.006,96.717 75.549,97.823" fill="rgb(216,216,216)"/>
<polygon points="55.302,22.859 52.502,15.759 62.533,5.729 69.632,8.529" fill="#99d9fa"/>
<line x1="23.934" y1="52.316" x2="55.303" y2="22.859" stroke="#8c8c8c" stroke-width="0.3" stroke-dasharray="1.2,0.8"/>
<line x1="69.632" y1="37.188" x2="55.303" y2="22.859" stroke="#8c8c8c" stroke-width="0.3" stroke-dasharray="1.2,0.8"/>
<line x1="69.632" y1="37.188" x2="40.175" y2="68.556" stroke="#8c8c8c" stroke-width="0.3" stroke-dasharray="1.2,0.8"/>
<line x1="84.833" y1="50.59" x2="57.402" y2="83.746" stroke="#8c8c8c" stroke-width="0.3" stroke-dasharray="1.2,0.8"/>
<line x1="75.549" y1="97.823" x2="57.402" y2="83.746" stroke="#8c8c8c" stroke-width="0.3" stroke-dasharray="1.2,0.8"/>
<line x1="69.632" y1="8.529" x2="55.302" y2="22.859" stroke="#8c8c8c" stroke-width="0.3" stroke-dasharray="1.2,0.8"/>
<line x1="40.175" y1="68.556" x2="23.934" y2="52.316" stroke="#8c8c8c" stroke-width="0.3" stroke-dasharray="1.2,0.8"/>
<line x1="8.745" y1="35.089" x2="23.934" y2="52.316" stroke="#8c8c8c" stroke-width="0.3" stroke-dasharray="1.2,0.8"/>
<line x1="83.962" y1="22.859" x2="69.632" y2="37.188" stroke="#8c8c8c" stroke-width="0.3" stroke-dasharray="1.2,0.8"/>
<line x1="57.402" y1="83.746" x2="40.175" y2="68.556" stroke="#8c8c8c" stroke-width="0.3" stroke-dasharray="1.2,0.8"/>
<line x1="69.632" y1="8.529" x2="83.962" y2="22.859" stroke="#8c8c8c" stroke-width="0.3" stroke-dasharray="1.2,0.8"/>
<line x1="75.549" y1="97.823" x2="100.845" y2="63.012" stroke="#8c8c8c" stroke-width="0.3" stroke-dasharray="1.2,0.8"/>
<line x1="41.9" y1="7.658" x2="55.303" y2="22.859" stroke="#141414" stroke-width="0.4"/>
<line x1="61.471" y1="115.97" x2="43.324" y2="101.892" stroke="#141414" stroke-width="0.4"/>
<line x1="75.549" y1="97.823" x2="61.471" y2="115.97" stroke="#141414" stroke-width="0.4"/>
<line x1="69.632" y1="37.188" x2="84.833" y2="50.59" stroke="#141414" stroke-width="0.4"/>
<line x1="43.324" y1="101.892" x2="57.402" y2="83.746" stroke="#141414" stroke-width="0.4"/>
<line x1="84.833" y1="50.59" x2="100.845" y2="63.012" stroke="#141414" stroke-width="0.4"/>
<line x1="8.745" y1="35.089" x2="41.9" y2="7.658" stroke="#141414" stroke-width="0.4"/>
<line x1="55.302" y1="22.859" x2="52.502" y2="15.759" stroke="#141414" stroke-width="0.4"/>
<line x1="52.502" y1="15.759" x2="62.533" y2="5.729" stroke="#141414" stroke-width="0.4"/>
<line x1="62.533" y1="5.729" x2="69.632" y2="8.529" stroke="#141414" stroke-width="0.4"/>
<line x1="23.934" y1="52.316" x2="21.421" y2="59.702" stroke="#141414" stroke-width="0.4"/>
<line x1="21.421" y1="59.702" x2="32.789" y2="71.07" stroke="#141414" stroke-width="0.4"/>
<line x1="32.789" y1="71.07" x2="40.175" y2="68.556" stroke="#141414" stroke-width="0.4"/>
<line x1="23.934" y1="52.316" x2="16.405" y2="54.361" stroke="#141414" stroke-width="0.4"/>
<line x1="16.405" y1="54.361" x2="5.773" y2="42.302" stroke="#141414" stroke-width="0.4"/>
<line x1="5.773" y1="42.302" x2="8.745" y2="35.089" stroke="#141414" stroke-width="0.4"/>
<line x1="69.632" y1="37.188" x2="76.731" y2="39.989" stroke="#141414" stroke-width="0.4"/>
<line x1="76.731" y1="39.989" x2="86.762" y2="29.958" stroke="#141414" stroke-width="0.4"/>
<line x1="86.762" y1="29.958" x2="83.962" y2="22.859" stroke="#141414" stroke-width="0.4"/>
<line x1="40.175" y1="68.556" x2="38.129" y2="76.085" stroke="#141414" stroke-width="0.4"/>
<line x1="38.129" y1="76.085" x2="50.189" y2="86.718" stroke="#141414" stroke-width="0.4"/>
<line x1="50.189" y1="86.718" x2="57.402" y2="83.746" stroke="#141414" stroke-width="0.4"/>
<line x1="83.962" y1="22.859" x2="86.762" y2="15.759" stroke="#141414" stroke-width="0.4"/>
<line x1="86.762" y1="15.759" x2="76.731" y2="5.729" stroke="#141414" stroke-width="0.4"/>
<line x1="76.731" y1="5.729" x2="69.632" y2="8.529" stroke="#141414" stroke-width="0.4"/>
<line x1="100.845" y1="63.012" x2="102.713" y2="72.349" stroke="#141414" stroke-width="0.4"/>
<line x1="102.713" y1="72.349" x2="85.006" y2="96.717" stroke="#141414" stroke-width="0.4"/>
<line x1="85.006" y1="96.717" x2="75.549" y2="97.823" stroke="#141414" stroke-width="0.4"/>
<circle cx="59.992" cy="13.219" r="2.65" fill="#99d9fa" stroke="#464646" stroke-width="0.2"/>
<text x="59.992" y="14.13" font-size="2.59" text-anchor="middle" fill="#141414">104</text>
<circle cx="29.58" cy="62.911" r="2.65" fill="#ffe082" stroke="#464646" stroke-width="0.2"/>
<text x="29.58" y="63.82" font-size="2.59" text-anchor="middle" fill="#141414">105</text>
<circle cx="13.714" cy="46.017" r="2.65" fill="#ffe082" stroke="#464646" stroke-width="0.2"/>
<text x="13.714" y="46.92" font-size="2.59" text-anchor="middle" fill="#141414">106</text>
<circle cx="79.272" cy="32.498" r="2.65" fill="#ffe082" stroke="#464646" stroke-width="0.2"/>
<text x="79.272" y="33.41" font-size="2.59" text-anchor="middle" fill="#141414">107</text>
<circle cx="46.474" cy="78.776" r="2.65" fill="#ffe082" stroke="#464646" stroke-width="0.2"/>
<text x="46.474" y="79.68" font-size="2.59" text-anchor="middle" fill="#141414">108</text>
<circle cx="79.272" cy="13.219" r="2.65" fill="#ffe082" stroke="#464646" stroke-width="0.2"/>
<text x="79.272" y="14.13" font-size="2.59" text-anchor="middle" fill="#141414">109</text>
<circle cx="91.028" cy="82.475" r="2.65" fill="#ffe082" stroke="#464646" stroke-width="0.2"/>
<text x="91.028" y="83.38" font-size="2.59" text-anchor="middle" fill="#141414">110</text>
<circle cx="44.58" cy="52.687" r="4.60" fill="#eaf1fe" stroke="#2e78e6" stroke-width="0.3"/>
<text x="44.58" y="54.49" font-size="5.20" text-anchor="middle" fill="#14306e" font-weight="bold">14</text>
<polygon points="155.243,22.859 152.442,15.759 162.473,5.729 169.573,8.529" fill="rgb(216,216,216)"/>
<polygon points="123.875,52.316 121.361,59.702 132.729,71.07 140.115,68.556" fill="rgb(216,216,216)"/>
<polygon points="123.875,52.316 116.346,54.361 105.713,42.302 108.686,35.089" fill="rgb(216,216,216)"/>
<polygon points="169.573,37.188 176.672,39.989 186.703,29.958 183.902,22.859" fill="rgb(216,216,216)"/>
<polygon points="140.115,68.556 138.07,76.085 150.129,86.718 157.343,83.746" fill="rgb(216,216,216)"/>
<polygon points="183.902,22.859 186.703,15.759 176.672,5.729 169.573,8.529" fill="rgb(216,216,216)"/>
<polygon points="200.785,63.012 202.654,72.349 184.947,96.717 175.489,97.823" fill="rgb(216,216,216)"/>
<polygon points="155.243,22.859 152.442,15.759 162.473,5.729 169.573,8.529" fill="#99d9fa"/>
<line x1="123.875" y1="52.316" x2="155.243" y2="22.859" stroke="#8c8c8c" stroke-width="0.3" stroke-dasharray="1.2,0.8"/>
<line x1="169.573" y1="37.188" x2="155.243" y2="22.859" stroke="#8c8c8c" stroke-width="0.3" stroke-dasharray="1.2,0.8"/>
<line x1="169.573" y1="37.188" x2="140.115" y2="68.556" stroke="#8c8c8c" stroke-width="0.3" stroke-dasharray="1.2,0.8"/>
<line x1="184.773" y1="50.59" x2="157.343" y2="83.746" stroke="#8c8c8c" stroke-width="0.3" stroke-dasharray="1.2,0.8"/>
<line x1="175.489" y1="97.823" x2="157.343" y2="83.746" stroke="#8c8c8c" stroke-width="0.3" stroke-dasharray="1.2,0.8"/>
<line x1="169.573" y1="8.529" x2="155.243" y2="22.859" stroke="#8c8c8c" stroke-width="0.3" stroke-dasharray="1.2,0.8"/>
<line x1="140.115" y1="68.556" x2="123.875" y2="52.316" stroke="#8c8c8c" stroke-width="0.3" stroke-dasharray="1.2,0.8"/>
<line x1="108.686" y1="35.089" x2="123.875" y2="52.316" stroke="#8c8c8c" stroke-width="0.3" stroke-dasharray="1.2,0.8"/>
<line x1="183.902" y1="22.859" x2="169.573" y2="37.188" stroke="#8c8c8c" stroke-width="0.3" stroke-dasharray="1.2,0.8"/>
<line x1="157.343" y1="83.746" x2="140.115" y2="68.556" stroke="#8c8c8c" stroke-width="0.3" stroke-dasharray="1.2,0.8"/>
<line x1="169.573" y1="8.529" x2="183.902" y2="22.859" stroke="#8c8c8c" stroke-width="0.3" stroke-dasharray="1.2,0.8"/>
<line x1="175.489" y1="97.823" x2="200.785" y2="63.012" stroke="#8c8c8c" stroke-width="0.3" stroke-dasharray="1.2,0.8"/>
<line x1="141.841" y1="7.658" x2="155.243" y2="22.859" stroke="#141414" stroke-width="0.4"/>
<line x1="161.412" y1="115.97" x2="143.265" y2="101.892" stroke="#141414" stroke-width="0.4"/>
<line x1="175.489" y1="97.823" x2="161.412" y2="115.97" stroke="#141414" stroke-width="0.4"/>
<line x1="169.573" y1="37.188" x2="184.773" y2="50.59" stroke="#141414" stroke-width="0.4"/>
<line x1="143.265" y1="101.892" x2="157.343" y2="83.746" stroke="#141414" stroke-width="0.4"/>
<line x1="184.773" y1="50.59" x2="200.785" y2="63.012" stroke="#141414" stroke-width="0.4"/>
<line x1="108.686" y1="35.089" x2="141.841" y2="7.658" stroke="#141414" stroke-width="0.4"/>
<line x1="155.243" y1="22.859" x2="152.442" y2="15.759" stroke="#141414" stroke-width="0.4"/>
<line x1="152.442" y1="15.759" x2="162.473" y2="5.729" stroke="#141414" stroke-width="0.4"/>
<line x1="162.473" y1="5.729" x2="169.573" y2="8.529" stroke="#141414" stroke-width="0.4"/>
<line x1="123.875" y1="52.316" x2="121.361" y2="59.702" stroke="#141414" stroke-width="0.4"/>
<line x1="121.361" y1="59.702" x2="132.729" y2="71.07" stroke="#141414" stroke-width="0.4"/>
<line x1="132.729" y1="71.07" x2="140.115" y2="68.556" stroke="#141414" stroke-width="0.4"/>
<line x1="123.875" y1="52.316" x2="116.346" y2="54.361" stroke="#141414" stroke-width="0.4"/>
<line x1="116.346" y1="54.361" x2="105.713" y2="42.302" stroke="#141414" stroke-width="0.4"/>
<line x1="105.713" y1="42.302" x2="108.686" y2="35.089" stroke="#141414" stroke-width="0.4"/>
<line x1="169.573" y1="37.188" x2="176.672" y2="39.989" stroke="#141414" stroke-width="0.4"/>
<line x1="176.672" y1="39.989" x2="186.703" y2="29.958" stroke="#141414" stroke-width="0.4"/>
<line x1="186.703" y1="29.958" x2="183.902" y2="22.859" stroke="#141414" stroke-width="0.4"/>
<line x1="140.115" y1="68.556" x2="138.07" y2="76.085" stroke="#141414" stroke-width="0.4"/>
<line x1="138.07" y1="76.085" x2="150.129" y2="86.718" stroke="#141414" stroke-width="0.4"/>
<line x1="150.129" y1="86.718" x2="157.343" y2="83.746" stroke="#141414" stroke-width="0.4"/>
<line x1="183.902" y1="22.859" x2="186.703" y2="15.759" stroke="#141414" stroke-width="0.4"/>
<line x1="186.703" y1="15.759" x2="176.672" y2="5.729" stroke="#141414" stroke-width="0.4"/>
<line x1="176.672" y1="5.729" x2="169.573" y2="8.529" stroke="#141414" stroke-width="0.4"/>
<line x1="200.785" y1="63.012" x2="202.654" y2="72.349" stroke="#141414" stroke-width="0.4"/>
<line x1="202.654" y1="72.349" x2="184.947" y2="96.717" stroke="#141414" stroke-width="0.4"/>
<line x1="184.947" y1="96.717" x2="175.489" y2="97.823" stroke="#141414" stroke-width="0.4"/>
<circle cx="159.933" cy="13.219" r="2.65" fill="#99d9fa" stroke="#464646" stroke-width="0.2"/>
<text x="159.933" y="14.13" font-size="2.59" text-anchor="middle" fill="#141414">111</text>
<circle cx="129.52" cy="62.911" r="2.65" fill="#ffe082" stroke="#464646" stroke-width="0.2"/>
<text x="129.52" y="63.82" font-size="2.59" text-anchor="middle" fill="#141414">112</text>
<circle cx="113.655" cy="46.017" r="2.65" fill="#ffe082" stroke="#464646" stroke-width="0.2"/>
<text x="113.655" y="46.92" font-size="2.59" text-anchor="middle" fill="#141414">113</text>
<circle cx="179.212" cy="32.498" r="2.65" fill="#ffe082" stroke="#464646" stroke-width="0.2"/>
<text x="179.212" y="33.41" font-size="2.59" text-anchor="middle" fill="#141414">114</text>
<circle cx="146.414" cy="78.776" r="2.65" fill="#ffe082" stroke="#464646" stroke-width="0.2"/>
<text x="146.414" y="79.68" font-size="2.59" text-anchor="middle" fill="#141414">115</text>
<circle cx="179.212" cy="13.219" r="2.65" fill="#ffe082" stroke="#464646" stroke-width="0.2"/>
<text x="179.212" y="14.13" font-size="2.59" text-anchor="middle" fill="#141414">116</text>
<circle cx="190.969" cy="82.475" r="2.65" fill="#ffe082" stroke="#464646" stroke-width="0.2"/>
<text x="190.969" y="83.38" font-size="2.59" text-anchor="middle" fill="#141414">117</text>
<circle cx="144.521" cy="52.687" r="4.60" fill="#eaf1fe" stroke="#2e78e6" stroke-width="0.3"/>
<text x="144.521" y="54.49" font-size="5.20" text-anchor="middle" fill="#14306e" font-weight="bold">15</text>
<text x="205.0" y="295.0" font-size="3.2" text-anchor="end" fill="#737373" font-family="sans-serif">5 / 5</text>
<g pointer-events="none"><text x="105.0" y="83.2" text-anchor="middle" font-family="sans-serif" font-size="12.4" fill="#9aa0a6" fill-opacity="0.3" transform="rotate(-28 105.0 83.2)">papercraft.kr</text><text x="105.0" y="148.5" text-anchor="middle" font-family="sans-serif" font-size="12.4" fill="#9aa0a6" fill-opacity="0.3" transform="rotate(-28 105.0 148.5)">papercraft.kr</text><text x="105.0" y="213.8" text-anchor="middle" font-family="sans-serif" font-size="12.4" fill="#9aa0a6" fill-opacity="0.3" transform="rotate(-28 105.0 213.8)">papercraft.kr</text></g></svg>
