<svg xmlns="http://www.w3.org/2000/svg" xmlns:xlink="http://www.w3.org/1999/xlink" width="210.00mm" height="297.00mm" viewBox="0 0 210.00 297.00">
<rect x="0" y="0" width="210.00" height="297.00" fill="#ffffff" stroke="#cccccc" stroke-width="0.2"/>
<polygon points="9.738,59.254 6.343,71.588 14.496,125.516 21.384,136.294" fill="rgb(216,216,216)"/>
<polygon points="59.666,131.774 65.389,121.149 67.861,70.385 63.196,59.254" fill="rgb(216,216,216)"/>
<polygon points="63.196,59.254 54.804,49.192 50.738,46.897 37.787,44.908" fill="rgb(216,216,216)"/>
<polygon points="41.679,12.207 59.335,6.893 141.886,6.359 159.609,11.444" fill="rgb(216,216,216)"/>
<polygon points="72.61,50.365 87.784,49.273 148.683,22.029 159.609,11.444" fill="rgb(216,216,216)"/>
<line x1="9.738" y1="59.254" x2="63.196" y2="59.254" stroke="#8c8c8c" stroke-width="0.3" stroke-dasharray="1.2,0.8"/>
<line x1="59.666" y1="131.774" x2="21.384" y2="136.294" stroke="#8c8c8c" stroke-width="0.3" stroke-dasharray="1.2,0.8"/>
<line x1="63.196" y1="59.254" x2="21.384" y2="136.294" stroke="#8c8c8c" stroke-width="0.3" stroke-dasharray="1.2,0.8"/>
<line x1="37.787" y1="44.908" x2="41.679" y2="12.207" stroke="#8c8c8c" stroke-width="0.3" stroke-dasharray="1.2,0.8"/>
<line x1="37.787" y1="44.908" x2="9.738" y2="59.254" stroke="#8c8c8c" stroke-width="0.3" stroke-dasharray="1.2,0.8"/>
<line x1="37.787" y1="44.908" x2="159.609" y2="11.444" stroke="#8c8c8c" stroke-width="0.3" stroke-dasharray="1.2,0.8"/>
<line x1="21.384" y1="136.294" x2="9.738" y2="59.254" stroke="#8c8c8c" stroke-width="0.3" stroke-dasharray="1.2,0.8"/>
<line x1="63.196" y1="59.254" x2="59.666" y2="131.774" stroke="#8c8c8c" stroke-width="0.3" stroke-dasharray="1.2,0.8"/>
<line x1="37.787" y1="44.908" x2="63.196" y2="59.254" stroke="#8c8c8c" stroke-width="0.3" stroke-dasharray="1.2,0.8"/>
<line x1="159.609" y1="11.444" x2="41.679" y2="12.207" stroke="#8c8c8c" stroke-width="0.3" stroke-dasharray="1.2,0.8"/>
<line x1="159.609" y1="11.444" x2="72.61" y2="50.365" stroke="#8c8c8c" stroke-width="0.3" stroke-dasharray="1.2,0.8"/>
<line x1="9.738" y1="59.254" x2="41.679" y2="12.207" stroke="#141414" stroke-width="0.4"/>
<line x1="33.366" y1="184.289" x2="21.384" y2="136.294" stroke="#141414" stroke-width="0.4"/>
<line x1="59.666" y1="131.774" x2="71.813" y2="169.211" stroke="#141414" stroke-width="0.4"/>
<line x1="71.813" y1="169.211" x2="33.366" y2="184.289" stroke="#141414" stroke-width="0.4"/>
<line x1="72.61" y1="50.365" x2="37.787" y2="44.908" stroke="#141414" stroke-width="0.4"/>
<line x1="9.738" y1="59.254" x2="6.343" y2="71.588" stroke="#141414" stroke-width="0.4"/>
<line x1="6.343" y1="71.588" x2="14.496" y2="125.516" stroke="#141414" stroke-width="0.4"/>
<line x1="14.496" y1="125.516" x2="21.384" y2="136.294" stroke="#141414" stroke-width="0.4"/>
<line x1="59.666" y1="131.774" x2="65.389" y2="121.149" stroke="#141414" stroke-width="0.4"/>
<line x1="65.389" y1="121.149" x2="67.861" y2="70.385" stroke="#141414" stroke-width="0.4"/>
<line x1="67.861" y1="70.385" x2="63.196" y2="59.254" stroke="#141414" stroke-width="0.4"/>
<line x1="63.196" y1="59.254" x2="54.804" y2="49.192" stroke="#141414" stroke-width="0.4"/>
<line x1="54.804" y1="49.192" x2="50.738" y2="46.897" stroke="#141414" stroke-width="0.4"/>
<line x1="50.738" y1="46.897" x2="37.787" y2="44.908" stroke="#141414" stroke-width="0.4"/>
<line x1="41.679" y1="12.207" x2="59.335" y2="6.893" stroke="#141414" stroke-width="0.4"/>
<line x1="59.335" y1="6.893" x2="141.886" y2="6.359" stroke="#141414" stroke-width="0.4"/>
<line x1="141.886" y1="6.359" x2="159.609" y2="11.444" stroke="#141414" stroke-width="0.4"/>
<line x1="72.61" y1="50.365" x2="87.784" y2="49.273" stroke="#141414" stroke-width="0.4"/>
<line x1="87.784" y1="49.273" x2="148.683" y2="22.029" stroke="#141414" stroke-width="0.4"/>
<line x1="148.683" y1="22.029" x2="159.609" y2="11.444" stroke="#141414" stroke-width="0.4"/>
<circle cx="12.99" cy="98.163" r="2.04" fill="#ffe082" stroke="#464646" stroke-width="0.2"/>
<text x="12.99" y="98.86" font-size="2.00" text-anchor="middle" fill="#141414">7</text>
<circle cx="64.028" cy="95.64" r="2.04" fill="#ffe082" stroke="#464646" stroke-width="0.2"/>
<text x="64.028" y="96.34" font-size="2.00" text-anchor="middle" fill="#141414">21</text>
<circle cx="51.631" cy="50.063" r="2.04" fill="#ffe082" stroke="#464646" stroke-width="0.2"/>
<text x="51.631" y="50.76" font-size="2.00" text-anchor="middle" fill="#141414">23</text>
<circle cx="100.627" cy="9.226" r="2.04" fill="#ffe082" stroke="#464646" stroke-width="0.2"/>
<text x="100.627" y="9.93" font-size="2.00" text-anchor="middle" fill="#141414">35</text>
<circle cx="117.171" cy="33.278" r="2.04" fill="#ffe082" stroke="#464646" stroke-width="0.2"/>
<text x="117.171" y="33.98" font-size="2.00" text-anchor="middle" fill="#141414">38</text>
<circle cx="42.188" cy="163.265" r="4.60" fill="#eaf1fe" stroke="#2e78e6" stroke-width="0.3"/>
<text x="42.188" y="165.06" font-size="5.20" text-anchor="middle" fill="#14306e" font-weight="bold">8</text>
<text x="205.0" y="295.0" font-size="3.2" text-anchor="end" fill="#737373" font-family="sans-serif">5 / 15</text>
<g pointer-events="none"><text x="105.0" y="83.2" text-anchor="middle" font-family="sans-serif" font-size="12.4" fill="#9aa0a6" fill-opacity="0.3" transform="rotate(-28 105.0 83.2)">papercraft.kr</text><text x="105.0" y="148.5" text-anchor="middle" font-family="sans-serif" font-size="12.4" fill="#9aa0a6" fill-opacity="0.3" transform="rotate(-28 105.0 148.5)">papercraft.kr</text><text x="105.0" y="213.8" text-anchor="middle" font-family="sans-serif" font-size="12.4" fill="#9aa0a6" fill-opacity="0.3" transform="rotate(-28 105.0 213.8)">papercraft.kr</text></g></svg>
