<svg xmlns="http://www.w3.org/2000/svg" xmlns:xlink="http://www.w3.org/1999/xlink" width="210.00mm" height="297.00mm" viewBox="0 0 210.00 297.00">
<rect x="0" y="0" width="210.00" height="297.00" fill="#ffffff" stroke="#cccccc" stroke-width="0.2"/>
<polygon points="12.85,5.0 22.196,10.939 44.697,50.624 44.995,61.693" fill="rgb(216,216,216)"/>
<polygon points="12.85,5.0 9.364,15.494 17.018,60.388 23.784,69.134" fill="rgb(216,216,216)"/>
<polygon points="44.995,61.693 59.535,79.864 72.677,107.105 77.851,129.795" fill="rgb(216,216,216)"/>
<polygon points="84.019,70.721 90.406,71.594 98.874,87.226 96.116,93.053" fill="rgb(216,216,216)"/>
<polygon points="23.784,69.134 18.225,79.208 16.537,127.077 21.372,137.518" fill="rgb(216,216,216)"/>
<polygon points="96.116,93.053 113.206,83.688 137.581,77.95 157.054,78.707" fill="rgb(216,216,216)"/>
<polygon points="157.054,78.707 162.994,80.444 167.456,95.462 163.427,100.161" fill="rgb(216,216,216)"/>
<polygon points="131.156,115.519 133.796,119.211 95.413,151.202 94.889,151.726" fill="rgb(216,216,216)"/>
<polygon points="163.355,150.151 166.413,157.601 157.591,184.913 150.753,189.167" fill="rgb(216,216,216)"/>
<polygon points="54.763,232.116 51.62,239.596 60.15,267.383 66.949,271.811" fill="rgb(216,216,216)"/>
<polygon points="150.753,189.167 151.488,196.128 136.873,212.389 129.874,212.398" fill="rgb(216,216,216)"/>
<polygon points="108.145,223.26 113.729,226.282 128.939,218.678 129.874,212.398" fill="rgb(216,216,216)"/>
<polygon points="97.945,223.042 105.284,228.231 116.647,260.507 114.176,269.15" fill="rgb(216,216,216)"/>
<polygon points="66.949,271.811 69.52,278.14 89.147,284.643 94.989,281.1" fill="rgb(216,216,216)"/>
<line x1="77.851" y1="129.795" x2="23.784" y2="69.134" stroke="#8c8c8c" stroke-width="0.3" stroke-dasharray="1.2,0.8"/>
<line x1="77.851" y1="129.795" x2="21.372" y2="137.518" stroke="#8c8c8c" stroke-width="0.3" stroke-dasharray="1.2,0.8"/>
<line x1="131.156" y1="115.519" x2="77.851" y2="129.795" stroke="#8c8c8c" stroke-width="0.3" stroke-dasharray="1.2,0.8"/>
<line x1="94.889" y1="151.726" x2="77.851" y2="129.795" stroke="#8c8c8c" stroke-width="0.3" stroke-dasharray="1.2,0.8"/>
<line x1="96.116" y1="93.053" x2="131.156" y2="115.519" stroke="#8c8c8c" stroke-width="0.3" stroke-dasharray="1.2,0.8"/>
<line x1="131.156" y1="115.519" x2="157.054" y2="78.707" stroke="#8c8c8c" stroke-width="0.3" stroke-dasharray="1.2,0.8"/>
<line x1="80.058" y1="184.548" x2="94.889" y2="151.726" stroke="#8c8c8c" stroke-width="0.3" stroke-dasharray="1.2,0.8"/>
<line x1="108.145" y1="198.6" x2="94.889" y2="151.726" stroke="#8c8c8c" stroke-width="0.3" stroke-dasharray="1.2,0.8"/>
<line x1="139.583" y1="154.127" x2="108.145" y2="198.6" stroke="#8c8c8c" stroke-width="0.3" stroke-dasharray="1.2,0.8"/>
<line x1="150.753" y1="189.167" x2="139.583" y2="154.127" stroke="#8c8c8c" stroke-width="0.3" stroke-dasharray="1.2,0.8"/>
<line x1="108.145" y1="198.6" x2="150.753" y2="189.167" stroke="#8c8c8c" stroke-width="0.3" stroke-dasharray="1.2,0.8"/>
<line x1="94.989" y1="281.1" x2="54.763" y2="232.116" stroke="#8c8c8c" stroke-width="0.3" stroke-dasharray="1.2,0.8"/>
<line x1="97.945" y1="223.042" x2="94.989" y2="281.1" stroke="#8c8c8c" stroke-width="0.3" stroke-dasharray="1.2,0.8"/>
<line x1="77.851" y1="129.795" x2="96.116" y2="93.053" stroke="#8c8c8c" stroke-width="0.3" stroke-dasharray="1.2,0.8"/>
<line x1="94.889" y1="151.726" x2="44.293" y2="185.887" stroke="#8c8c8c" stroke-width="0.3" stroke-dasharray="1.2,0.8"/>
<line x1="139.583" y1="154.127" x2="163.355" y2="150.151" stroke="#8c8c8c" stroke-width="0.3" stroke-dasharray="1.2,0.8"/>
<line x1="94.889" y1="151.726" x2="139.583" y2="154.127" stroke="#8c8c8c" stroke-width="0.3" stroke-dasharray="1.2,0.8"/>
<line x1="80.058" y1="184.548" x2="108.145" y2="198.6" stroke="#8c8c8c" stroke-width="0.3" stroke-dasharray="1.2,0.8"/>
<line x1="97.945" y1="223.042" x2="80.058" y2="184.548" stroke="#8c8c8c" stroke-width="0.3" stroke-dasharray="1.2,0.8"/>
<line x1="108.145" y1="198.6" x2="129.874" y2="212.398" stroke="#8c8c8c" stroke-width="0.3" stroke-dasharray="1.2,0.8"/>
<line x1="97.945" y1="223.042" x2="54.763" y2="232.116" stroke="#8c8c8c" stroke-width="0.3" stroke-dasharray="1.2,0.8"/>
<line x1="44.995" y1="61.693" x2="12.85" y2="5.0" stroke="#8c8c8c" stroke-width="0.3" stroke-dasharray="1.2,0.8"/>
<line x1="23.784" y1="69.134" x2="12.85" y2="5.0" stroke="#8c8c8c" stroke-width="0.3" stroke-dasharray="1.2,0.8"/>
<line x1="77.851" y1="129.795" x2="44.995" y2="61.693" stroke="#8c8c8c" stroke-width="0.3" stroke-dasharray="1.2,0.8"/>
<line x1="96.116" y1="93.053" x2="84.019" y2="70.721" stroke="#8c8c8c" stroke-width="0.3" stroke-dasharray="1.2,0.8"/>
<line x1="21.372" y1="137.518" x2="23.784" y2="69.134" stroke="#8c8c8c" stroke-width="0.3" stroke-dasharray="1.2,0.8"/>
<line x1="157.054" y1="78.707" x2="96.116" y2="93.053" stroke="#8c8c8c" stroke-width="0.3" stroke-dasharray="1.2,0.8"/>
<line x1="163.427" y1="100.161" x2="157.054" y2="78.707" stroke="#8c8c8c" stroke-width="0.3" stroke-dasharray="1.2,0.8"/>
<line x1="94.889" y1="151.726" x2="131.156" y2="115.519" stroke="#8c8c8c" stroke-width="0.3" stroke-dasharray="1.2,0.8"/>
<line x1="150.753" y1="189.167" x2="163.355" y2="150.151" stroke="#8c8c8c" stroke-width="0.3" stroke-dasharray="1.2,0.8"/>
<line x1="66.949" y1="271.811" x2="54.763" y2="232.116" stroke="#8c8c8c" stroke-width="0.3" stroke-dasharray="1.2,0.8"/>
<line x1="129.874" y1="212.398" x2="150.753" y2="189.167" stroke="#8c8c8c" stroke-width="0.3" stroke-dasharray="1.2,0.8"/>
<line x1="129.874" y1="212.398" x2="108.145" y2="223.26" stroke="#8c8c8c" stroke-width="0.3" stroke-dasharray="1.2,0.8"/>
<line x1="114.176" y1="269.15" x2="97.945" y2="223.042" stroke="#8c8c8c" stroke-width="0.3" stroke-dasharray="1.2,0.8"/>
<line x1="94.989" y1="281.1" x2="66.949" y2="271.811" stroke="#8c8c8c" stroke-width="0.3" stroke-dasharray="1.2,0.8"/>
<line x1="77.851" y1="129.795" x2="84.019" y2="70.721" stroke="#141414" stroke-width="0.4"/>
<line x1="44.293" y1="185.887" x2="21.372" y2="137.518" stroke="#141414" stroke-width="0.4"/>
<line x1="80.058" y1="184.548" x2="44.293" y2="185.887" stroke="#141414" stroke-width="0.4"/>
<line x1="156.345" y1="135.708" x2="163.355" y2="150.151" stroke="#141414" stroke-width="0.4"/>
<line x1="139.583" y1="154.127" x2="156.345" y2="135.708" stroke="#141414" stroke-width="0.4"/>
<line x1="163.427" y1="100.161" x2="131.156" y2="115.519" stroke="#141414" stroke-width="0.4"/>
<line x1="94.889" y1="151.726" x2="134.431" y2="119.127" stroke="#141414" stroke-width="0.4"/>
<line x1="134.431" y1="119.127" x2="139.583" y2="154.127" stroke="#141414" stroke-width="0.4"/>
<line x1="54.763" y1="232.116" x2="80.058" y2="184.548" stroke="#141414" stroke-width="0.4"/>
<line x1="108.145" y1="223.26" x2="108.145" y2="198.6" stroke="#141414" stroke-width="0.4"/>
<line x1="108.145" y1="198.6" x2="97.945" y2="223.042" stroke="#141414" stroke-width="0.4"/>
<line x1="114.176" y1="269.15" x2="94.989" y2="281.1" stroke="#141414" stroke-width="0.4"/>
<line x1="12.85" y1="5.0" x2="22.196" y2="10.939" stroke="#141414" stroke-width="0.4"/>
<line x1="22.196" y1="10.939" x2="44.697" y2="50.624" stroke="#141414" stroke-width="0.4"/>
<line x1="44.697" y1="50.624" x2="44.995" y2="61.693" stroke="#141414" stroke-width="0.4"/>
<line x1="12.85" y1="5.0" x2="9.364" y2="15.494" stroke="#141414" stroke-width="0.4"/>
<line x1="9.364" y1="15.494" x2="17.018" y2="60.388" stroke="#141414" stroke-width="0.4"/>
<line x1="17.018" y1="60.388" x2="23.784" y2="69.134" stroke="#141414" stroke-width="0.4"/>
<line x1="44.995" y1="61.693" x2="59.535" y2="79.864" stroke="#141414" stroke-width="0.4"/>
<line x1="59.535" y1="79.864" x2="72.677" y2="107.105" stroke="#141414" stroke-width="0.4"/>
<line x1="72.677" y1="107.105" x2="77.851" y2="129.795" stroke="#141414" stroke-width="0.4"/>
<line x1="84.019" y1="70.721" x2="90.406" y2="71.594" stroke="#141414" stroke-width="0.4"/>
<line x1="90.406" y1="71.594" x2="98.874" y2="87.226" stroke="#141414" stroke-width="0.4"/>
<line x1="98.874" y1="87.226" x2="96.116" y2="93.053" stroke="#141414" stroke-width="0.4"/>
<line x1="23.784" y1="69.134" x2="18.225" y2="79.208" stroke="#141414" stroke-width="0.4"/>
<line x1="18.225" y1="79.208" x2="16.537" y2="127.077" stroke="#141414" stroke-width="0.4"/>
<line x1="16.537" y1="127.077" x2="21.372" y2="137.518" stroke="#141414" stroke-width="0.4"/>
<line x1="96.116" y1="93.053" x2="113.206" y2="83.688" stroke="#141414" stroke-width="0.4"/>
<line x1="113.206" y1="83.688" x2="137.581" y2="77.95" stroke="#141414" stroke-width="0.4"/>
<line x1="137.581" y1="77.95" x2="157.054" y2="78.707" stroke="#141414" stroke-width="0.4"/>
<line x1="157.054" y1="78.707" x2="162.994" y2="80.444" stroke="#141414" stroke-width="0.4"/>
<line x1="162.994" y1="80.444" x2="167.456" y2="95.462" stroke="#141414" stroke-width="0.4"/>
<line x1="167.456" y1="95.462" x2="163.427" y2="100.161" stroke="#141414" stroke-width="0.4"/>
<line x1="131.156" y1="115.519" x2="133.796" y2="119.211" stroke="#141414" stroke-width="0.4"/>
<line x1="133.796" y1="119.211" x2="95.413" y2="151.202" stroke="#141414" stroke-width="0.4"/>
<line x1="95.413" y1="151.202" x2="94.889" y2="151.726" stroke="#141414" stroke-width="0.4"/>
<line x1="163.355" y1="150.151" x2="166.413" y2="157.601" stroke="#141414" stroke-width="0.4"/>
<line x1="166.413" y1="157.601" x2="157.591" y2="184.913" stroke="#141414" stroke-width="0.4"/>
<line x1="157.591" y1="184.913" x2="150.753" y2="189.167" stroke="#141414" stroke-width="0.4"/>
<line x1="54.763" y1="232.116" x2="51.62" y2="239.596" stroke="#141414" stroke-width="0.4"/>
<line x1="51.62" y1="239.596" x2="60.15" y2="267.383" stroke="#141414" stroke-width="0.4"/>
<line x1="60.15" y1="267.383" x2="66.949" y2="271.811" stroke="#141414" stroke-width="0.4"/>
<line x1="150.753" y1="189.167" x2="151.488" y2="196.128" stroke="#141414" stroke-width="0.4"/>
<line x1="151.488" y1="196.128" x2="136.873" y2="212.389" stroke="#141414" stroke-width="0.4"/>
<line x1="136.873" y1="212.389" x2="129.874" y2="212.398" stroke="#141414" stroke-width="0.4"/>
<line x1="108.145" y1="223.26" x2="113.729" y2="226.282" stroke="#141414" stroke-width="0.4"/>
<line x1="113.729" y1="226.282" x2="128.939" y2="218.678" stroke="#141414" stroke-width="0.4"/>
<line x1="128.939" y1="218.678" x2="129.874" y2="212.398" stroke="#141414" stroke-width="0.4"/>
<line x1="97.945" y1="223.042" x2="105.284" y2="228.231" stroke="#141414" stroke-width="0.4"/>
<line x1="105.284" y1="228.231" x2="116.647" y2="260.507" stroke="#141414" stroke-width="0.4"/>
<line x1="116.647" y1="260.507" x2="114.176" y2="269.15" stroke="#141414" stroke-width="0.4"/>
<line x1="66.949" y1="271.811" x2="69.52" y2="278.14" stroke="#141414" stroke-width="0.4"/>
<line x1="69.52" y1="278.14" x2="89.147" y2="284.643" stroke="#141414" stroke-width="0.4"/>
<line x1="89.147" y1="284.643" x2="94.989" y2="281.1" stroke="#141414" stroke-width="0.4"/>
<circle cx="31.184" cy="32.064" r="2.29" fill="#ffe082" stroke="#464646" stroke-width="0.2"/>
<text x="31.184" y="33.15" font-size="3.11" text-anchor="middle" fill="#141414">2</text>
<circle cx="15.754" cy="37.504" r="2.29" fill="#ffe082" stroke="#464646" stroke-width="0.2"/>
<text x="15.754" y="38.59" font-size="3.11" text-anchor="middle" fill="#141414">3</text>
<circle cx="63.764" cy="94.614" r="2.29" fill="#ffe082" stroke="#464646" stroke-width="0.2"/>
<text x="63.764" y="95.70" font-size="3.11" text-anchor="middle" fill="#141414">6</text>
<circle cx="92.354" cy="80.649" r="2.29" fill="#ffe082" stroke="#464646" stroke-width="0.2"/>
<text x="92.354" y="81.74" font-size="3.11" text-anchor="middle" fill="#141414">9</text>
<circle cx="19.98" cy="103.234" r="2.29" fill="#ffe082" stroke="#464646" stroke-width="0.2"/>
<text x="19.98" y="104.32" font-size="3.11" text-anchor="middle" fill="#141414">11</text>
<circle cx="125.989" cy="83.349" r="2.29" fill="#ffe082" stroke="#464646" stroke-width="0.2"/>
<text x="125.989" y="84.44" font-size="3.11" text-anchor="middle" fill="#141414">15</text>
<circle cx="162.733" cy="88.694" r="2.29" fill="#ffe082" stroke="#464646" stroke-width="0.2"/>
<text x="162.733" y="89.78" font-size="3.11" text-anchor="middle" fill="#141414">19</text>
<circle cx="159.528" cy="170.458" r="2.29" fill="#ffe082" stroke="#464646" stroke-width="0.2"/>
<text x="159.528" y="171.54" font-size="3.11" text-anchor="middle" fill="#141414">30</text>
<circle cx="58.371" cy="252.726" r="2.29" fill="#ffe082" stroke="#464646" stroke-width="0.2"/>
<text x="58.371" y="253.81" font-size="3.11" text-anchor="middle" fill="#141414">39</text>
<circle cx="142.247" cy="202.521" r="2.29" fill="#ffe082" stroke="#464646" stroke-width="0.2"/>
<text x="142.247" y="203.61" font-size="3.11" text-anchor="middle" fill="#141414">40</text>
<circle cx="120.172" cy="220.154" r="2.29" fill="#ffe082" stroke="#464646" stroke-width="0.2"/>
<text x="120.172" y="221.24" font-size="3.11" text-anchor="middle" fill="#141414">44</text>
<circle cx="108.513" cy="245.232" r="2.29" fill="#ffe082" stroke="#464646" stroke-width="0.2"/>
<text x="108.513" y="246.32" font-size="3.11" text-anchor="middle" fill="#141414">48</text>
<circle cx="80.151" cy="278.924" r="2.29" fill="#ffe082" stroke="#464646" stroke-width="0.2"/>
<text x="80.151" y="280.01" font-size="3.11" text-anchor="middle" fill="#141414">51</text>
<circle cx="84.046" cy="144.821" r="4.6" fill="#eaf1fe" stroke="#2e78e6" stroke-width="0.3"/>
<text x="84.046" y="146.621" font-size="5.2" text-anchor="middle" fill="#14306e" font-weight="bold">2</text>
</svg>
