<svg xmlns="http://www.w3.org/2000/svg" xmlns:xlink="http://www.w3.org/1999/xlink" width="210.00mm" height="297.00mm" viewBox="0 0 210.00 297.00">
<rect x="0" y="0" width="210.00" height="297.00" fill="#ffffff" stroke="#cccccc" stroke-width="0.2"/>
<polygon points="75.725,74.778 86.094,80.083 114.947,119.236 116.944,130.711" fill="rgb(216,216,216)"/>
<polygon points="108.486,185.111 111.211,197.682 108.053,213.048 100.591,223.526" fill="rgb(216,216,216)"/>
<polygon points="43.588,172.061 42.597,177.928 53.133,186.361 58.64,184.108" fill="rgb(216,216,216)"/>
<polygon points="58.64,184.108 52.097,191.105 45.443,228.055 49.135,236.895" fill="rgb(216,216,216)"/>
<polygon points="49.135,236.895 43.935,241.185 43.935,261.207 49.135,265.497" fill="rgb(216,216,216)"/>
<polygon points="100.591,223.526 105.318,230.012 103.179,258.461 97.536,264.167" fill="rgb(216,216,216)"/>
<polygon points="97.536,264.167 90.418,269.565 56.538,270.496 49.135,265.497" fill="rgb(216,216,216)"/>
<polygon points="100.591,223.526 105.318,230.012 103.179,258.461 97.536,264.167" fill="#99d9fa"/>
<line x1="75.725" y1="74.778" x2="45.553" y2="80.104" stroke="#8c8c8c" stroke-width="0.3" stroke-dasharray="1.2,0.8"/>
<line x1="63.463" y1="110.831" x2="75.725" y2="74.778" stroke="#8c8c8c" stroke-width="0.3" stroke-dasharray="1.2,0.8"/>
<line x1="94.282" y1="136.55" x2="108.486" y2="185.111" stroke="#8c8c8c" stroke-width="0.3" stroke-dasharray="1.2,0.8"/>
<line x1="147.27" y1="173.432" x2="94.282" y2="136.55" stroke="#8c8c8c" stroke-width="0.3" stroke-dasharray="1.2,0.8"/>
<line x1="84.744" y1="163.489" x2="108.486" y2="185.111" stroke="#8c8c8c" stroke-width="0.3" stroke-dasharray="1.2,0.8"/>
<line x1="147.27" y1="173.432" x2="108.486" y2="185.111" stroke="#8c8c8c" stroke-width="0.3" stroke-dasharray="1.2,0.8"/>
<line x1="100.591" y1="223.525" x2="58.64" y2="184.108" stroke="#8c8c8c" stroke-width="0.3" stroke-dasharray="1.2,0.8"/>
<line x1="100.591" y1="223.525" x2="49.135" y2="236.895" stroke="#8c8c8c" stroke-width="0.3" stroke-dasharray="1.2,0.8"/>
<line x1="49.135" y1="236.895" x2="97.536" y2="264.167" stroke="#8c8c8c" stroke-width="0.3" stroke-dasharray="1.2,0.8"/>
<line x1="70.412" y1="149.56" x2="58.64" y2="184.108" stroke="#8c8c8c" stroke-width="0.3" stroke-dasharray="1.2,0.8"/>
<line x1="116.944" y1="130.711" x2="94.282" y2="136.55" stroke="#8c8c8c" stroke-width="0.3" stroke-dasharray="1.2,0.8"/>
<line x1="58.64" y1="184.108" x2="84.744" y2="163.489" stroke="#8c8c8c" stroke-width="0.3" stroke-dasharray="1.2,0.8"/>
<line x1="108.486" y1="185.111" x2="58.64" y2="184.108" stroke="#8c8c8c" stroke-width="0.3" stroke-dasharray="1.2,0.8"/>
<line x1="116.944" y1="130.711" x2="75.725" y2="74.778" stroke="#8c8c8c" stroke-width="0.3" stroke-dasharray="1.2,0.8"/>
<line x1="100.591" y1="223.526" x2="108.486" y2="185.111" stroke="#8c8c8c" stroke-width="0.3" stroke-dasharray="1.2,0.8"/>
<line x1="58.64" y1="184.108" x2="43.588" y2="172.061" stroke="#8c8c8c" stroke-width="0.3" stroke-dasharray="1.2,0.8"/>
<line x1="49.135" y1="236.895" x2="58.64" y2="184.108" stroke="#8c8c8c" stroke-width="0.3" stroke-dasharray="1.2,0.8"/>
<line x1="49.135" y1="265.497" x2="49.135" y2="236.895" stroke="#8c8c8c" stroke-width="0.3" stroke-dasharray="1.2,0.8"/>
<line x1="97.536" y1="264.167" x2="100.591" y2="223.526" stroke="#8c8c8c" stroke-width="0.3" stroke-dasharray="1.2,0.8"/>
<line x1="49.135" y1="265.497" x2="97.536" y2="264.167" stroke="#8c8c8c" stroke-width="0.3" stroke-dasharray="1.2,0.8"/>
<line x1="45.553" y1="80.104" x2="5.0" y2="5.0" stroke="#141414" stroke-width="0.4"/>
<line x1="5.0" y1="5.0" x2="75.725" y2="74.778" stroke="#141414" stroke-width="0.4"/>
<line x1="63.463" y1="110.831" x2="45.553" y2="80.104" stroke="#141414" stroke-width="0.4"/>
<line x1="94.282" y1="136.55" x2="63.463" y2="110.831" stroke="#141414" stroke-width="0.4"/>
<line x1="70.412" y1="149.56" x2="84.744" y2="163.489" stroke="#141414" stroke-width="0.4"/>
<line x1="43.588" y1="172.061" x2="70.412" y2="149.56" stroke="#141414" stroke-width="0.4"/>
<line x1="84.744" y1="163.489" x2="94.282" y2="136.55" stroke="#141414" stroke-width="0.4"/>
<line x1="116.944" y1="130.711" x2="147.27" y2="173.432" stroke="#141414" stroke-width="0.4"/>
<line x1="125.706" y1="220.346" x2="108.486" y2="185.111" stroke="#141414" stroke-width="0.4"/>
<line x1="147.27" y1="173.432" x2="166.396" y2="222.666" stroke="#141414" stroke-width="0.4"/>
<line x1="166.396" y1="222.666" x2="125.706" y2="220.346" stroke="#141414" stroke-width="0.4"/>
<line x1="75.725" y1="74.778" x2="86.094" y2="80.083" stroke="#141414" stroke-width="0.4"/>
<line x1="86.094" y1="80.083" x2="114.947" y2="119.236" stroke="#141414" stroke-width="0.4"/>
<line x1="114.947" y1="119.236" x2="116.944" y2="130.711" stroke="#141414" stroke-width="0.4"/>
<line x1="108.486" y1="185.111" x2="111.211" y2="197.682" stroke="#141414" stroke-width="0.4"/>
<line x1="111.211" y1="197.682" x2="108.053" y2="213.048" stroke="#141414" stroke-width="0.4"/>
<line x1="108.053" y1="213.048" x2="100.591" y2="223.526" stroke="#141414" stroke-width="0.4"/>
<line x1="43.588" y1="172.061" x2="42.597" y2="177.928" stroke="#141414" stroke-width="0.4"/>
<line x1="42.597" y1="177.928" x2="53.133" y2="186.361" stroke="#141414" stroke-width="0.4"/>
<line x1="53.133" y1="186.361" x2="58.64" y2="184.108" stroke="#141414" stroke-width="0.4"/>
<line x1="58.64" y1="184.108" x2="52.097" y2="191.105" stroke="#141414" stroke-width="0.4"/>
<line x1="52.097" y1="191.105" x2="45.443" y2="228.055" stroke="#141414" stroke-width="0.4"/>
<line x1="45.443" y1="228.055" x2="49.135" y2="236.895" stroke="#141414" stroke-width="0.4"/>
<line x1="49.135" y1="236.895" x2="43.935" y2="241.185" stroke="#141414" stroke-width="0.4"/>
<line x1="43.935" y1="241.185" x2="43.935" y2="261.207" stroke="#141414" stroke-width="0.4"/>
<line x1="43.935" y1="261.207" x2="49.135" y2="265.497" stroke="#141414" stroke-width="0.4"/>
<line x1="100.591" y1="223.526" x2="105.318" y2="230.012" stroke="#141414" stroke-width="0.4"/>
<line x1="105.318" y1="230.012" x2="103.179" y2="258.461" stroke="#141414" stroke-width="0.4"/>
<line x1="103.179" y1="258.461" x2="97.536" y2="264.167" stroke="#141414" stroke-width="0.4"/>
<line x1="97.536" y1="264.167" x2="90.418" y2="269.565" stroke="#141414" stroke-width="0.4"/>
<line x1="90.418" y1="269.565" x2="56.538" y2="270.496" stroke="#141414" stroke-width="0.4"/>
<line x1="56.538" y1="270.496" x2="49.135" y2="265.497" stroke="#141414" stroke-width="0.4"/>
<circle cx="98.428" cy="101.202" r="2.29" fill="#ffe082" stroke="#464646" stroke-width="0.2"/>
<text x="98.428" y="102.29" font-size="3.11" text-anchor="middle" fill="#141414">16</text>
<circle cx="107.085" cy="204.842" r="2.29" fill="#ffe082" stroke="#464646" stroke-width="0.2"/>
<text x="107.085" y="205.93" font-size="3.11" text-anchor="middle" fill="#141414">34</text>
<circle cx="49.489" cy="180.115" r="2.29" fill="#ffe082" stroke="#464646" stroke-width="0.2"/>
<text x="49.489" y="181.20" font-size="3.11" text-anchor="middle" fill="#141414">35</text>
<circle cx="51.329" cy="210.041" r="2.29" fill="#ffe082" stroke="#464646" stroke-width="0.2"/>
<text x="51.329" y="211.13" font-size="3.11" text-anchor="middle" fill="#141414">38</text>
<circle cx="46.535" cy="251.196" r="2.29" fill="#ffe082" stroke="#464646" stroke-width="0.2"/>
<text x="46.535" y="252.28" font-size="3.11" text-anchor="middle" fill="#141414">40</text>
<circle cx="101.656" cy="244.041" r="2.29" fill="#99d9fa" stroke="#464646" stroke-width="0.2"/>
<text x="101.656" y="245.13" font-size="3.11" text-anchor="middle" fill="#141414">41</text>
<circle cx="73.407" cy="267.431" r="2.29" fill="#ffe082" stroke="#464646" stroke-width="0.2"/>
<text x="73.407" y="268.52" font-size="3.11" text-anchor="middle" fill="#141414">42</text>
<circle cx="69.455" cy="214.843" r="4.60" fill="#eaf1fe" stroke="#2e78e6" stroke-width="0.3"/>
<text x="69.455" y="216.64" font-size="5.20" text-anchor="middle" fill="#14306e" font-weight="bold">1</text>
<text x="205.0" y="295.0" font-size="3.2" text-anchor="end" fill="#737373" font-family="sans-serif">1 / 4</text>
</svg>
