<svg xmlns="http://www.w3.org/2000/svg" xmlns:xlink="http://www.w3.org/1999/xlink" width="210.00mm" height="297.00mm" viewBox="0 0 210.00 297.00">
<rect x="0" y="0" width="210.00" height="297.00" fill="#ffffff" stroke="#cccccc" stroke-width="0.2"/>
<polygon points="35.592,14.628 39.842,19.401 36.009,36.312 30.117,38.787" fill="rgb(216,216,216)"/>
<polygon points="35.592,14.628 31.003,9.428 9.589,9.428 5.0,14.628" fill="rgb(216,216,216)"/>
<line x1="30.117" y1="38.787" x2="35.592" y2="14.628" stroke="#8c8c8c" stroke-width="0.3" stroke-dasharray="1.2,0.8"/>
<line x1="5.0" y1="14.628" x2="35.592" y2="14.628" stroke="#8c8c8c" stroke-width="0.3" stroke-dasharray="1.2,0.8"/>
<line x1="30.117" y1="38.787" x2="5.0" y2="14.628" stroke="#141414" stroke-width="0.4"/>
<line x1="35.592" y1="14.628" x2="39.842" y2="19.401" stroke="#141414" stroke-width="0.4"/>
<line x1="39.842" y1="19.401" x2="36.009" y2="36.312" stroke="#141414" stroke-width="0.4"/>
<line x1="36.009" y1="36.312" x2="30.117" y2="38.787" stroke="#141414" stroke-width="0.4"/>
<line x1="35.592" y1="14.628" x2="31.003" y2="9.428" stroke="#141414" stroke-width="0.4"/>
<line x1="31.003" y1="9.428" x2="9.589" y2="9.428" stroke="#141414" stroke-width="0.4"/>
<line x1="9.589" y1="9.428" x2="5.0" y2="14.628" stroke="#141414" stroke-width="0.4"/>
<circle cx="35.39" cy="27.282" r="2.29" fill="#ffe082" stroke="#464646" stroke-width="0.2"/>
<text x="35.39" y="28.37" font-size="3.11" text-anchor="middle" fill="#141414">45</text>
<circle cx="20.296" cy="12.028" r="2.29" fill="#ffe082" stroke="#464646" stroke-width="0.2"/>
<text x="20.296" y="13.11" font-size="3.11" text-anchor="middle" fill="#141414">46</text>
<circle cx="22.421" cy="40.459" r="4.6" fill="#eaf1fe" stroke="#2e78e6" stroke-width="0.3"/>
<text x="22.421" y="42.259" font-size="5.2" text-anchor="middle" fill="#14306e" font-weight="bold">6</text>
<polygon points="48.629,14.628 51.35,9.428 64.047,9.428 66.768,14.628" fill="rgb(216,216,216)"/>
<polygon points="48.629,14.628 47.05,26.505 62.739,74.373 71.042,83.01" fill="rgb(216,216,216)"/>
<line x1="66.768" y1="14.628" x2="48.629" y2="14.628" stroke="#8c8c8c" stroke-width="0.3" stroke-dasharray="1.2,0.8"/>
<line x1="71.042" y1="83.01" x2="48.629" y2="14.628" stroke="#8c8c8c" stroke-width="0.3" stroke-dasharray="1.2,0.8"/>
<line x1="66.768" y1="14.628" x2="71.042" y2="83.01" stroke="#141414" stroke-width="0.4"/>
<line x1="48.629" y1="14.628" x2="51.35" y2="9.428" stroke="#141414" stroke-width="0.4"/>
<line x1="51.35" y1="9.428" x2="64.047" y2="9.428" stroke="#141414" stroke-width="0.4"/>
<line x1="64.047" y1="9.428" x2="66.768" y2="14.628" stroke="#141414" stroke-width="0.4"/>
<line x1="48.629" y1="14.628" x2="47.05" y2="26.505" stroke="#141414" stroke-width="0.4"/>
<line x1="47.05" y1="26.505" x2="62.739" y2="74.373" stroke="#141414" stroke-width="0.4"/>
<line x1="62.739" y1="74.373" x2="71.042" y2="83.01" stroke="#141414" stroke-width="0.4"/>
<circle cx="57.698" cy="12.028" r="2.29" fill="#ffe082" stroke="#464646" stroke-width="0.2"/>
<text x="57.698" y="13.11" font-size="3.11" text-anchor="middle" fill="#141414">37</text>
<circle cx="57.365" cy="49.629" r="2.29" fill="#ffe082" stroke="#464646" stroke-width="0.2"/>
<text x="57.365" y="50.72" font-size="3.11" text-anchor="middle" fill="#141414">38</text>
<circle cx="54.839" cy="84.683" r="4.6" fill="#eaf1fe" stroke="#2e78e6" stroke-width="0.3"/>
<text x="54.839" y="86.483" font-size="5.2" text-anchor="middle" fill="#14306e" font-weight="bold">7</text>
</svg>
