<svg xmlns="http://www.w3.org/2000/svg" xmlns:xlink="http://www.w3.org/1999/xlink" width="210.00mm" height="297.00mm" viewBox="0 0 210.00 297.00">
<rect x="0" y="0" width="210.00" height="297.00" fill="#ffffff" stroke="#cccccc" stroke-width="0.2"/>
<polygon points="87.997,146.096 77.4,146.582 48.35,123.342 46.499,112.896" fill="rgb(216,216,216)"/>
<polygon points="114.556,112.896 112.704,102.451 83.656,79.211 73.058,79.698" fill="rgb(216,216,216)"/>
<polygon points="64.758,5.0 54.312,6.852 31.073,35.901 31.559,46.499" fill="rgb(216,216,216)"/>
<polygon points="114.556,112.896 112.704,102.451 83.656,79.211 73.058,79.698" fill="#99d9fa"/>
<line x1="46.499" y1="112.897" x2="73.058" y2="79.698" stroke="#8c8c8c" stroke-width="0.3" stroke-dasharray="1.2,0.8"/>
<line x1="73.058" y1="79.698" x2="31.559" y2="46.499" stroke="#8c8c8c" stroke-width="0.3" stroke-dasharray="1.2,0.8"/>
<line x1="46.499" y1="112.896" x2="87.997" y2="146.096" stroke="#8c8c8c" stroke-width="0.3" stroke-dasharray="1.2,0.8"/>
<line x1="73.058" y1="79.698" x2="114.556" y2="112.896" stroke="#8c8c8c" stroke-width="0.3" stroke-dasharray="1.2,0.8"/>
<line x1="31.559" y1="46.499" x2="64.758" y2="5.0" stroke="#8c8c8c" stroke-width="0.3" stroke-dasharray="1.2,0.8"/>
<line x1="114.556" y1="112.897" x2="87.997" y2="146.095" stroke="#141414" stroke-width="0.4"/>
<line x1="64.758" y1="5.0" x2="106.257" y2="38.199" stroke="#141414" stroke-width="0.4"/>
<line x1="106.257" y1="38.199" x2="73.058" y2="79.698" stroke="#141414" stroke-width="0.4"/>
<line x1="46.499" y1="112.897" x2="5.0" y2="79.698" stroke="#141414" stroke-width="0.4"/>
<line x1="5.0" y1="79.698" x2="31.559" y2="46.499" stroke="#141414" stroke-width="0.4"/>
<line x1="87.997" y1="146.096" x2="77.4" y2="146.582" stroke="#141414" stroke-width="0.4"/>
<line x1="77.4" y1="146.582" x2="48.35" y2="123.342" stroke="#141414" stroke-width="0.4"/>
<line x1="48.35" y1="123.342" x2="46.499" y2="112.896" stroke="#141414" stroke-width="0.4"/>
<line x1="114.556" y1="112.896" x2="112.704" y2="102.451" stroke="#141414" stroke-width="0.4"/>
<line x1="112.704" y1="102.451" x2="83.656" y2="79.211" stroke="#141414" stroke-width="0.4"/>
<line x1="83.656" y1="79.211" x2="73.058" y2="79.698" stroke="#141414" stroke-width="0.4"/>
<line x1="64.758" y1="5.0" x2="54.312" y2="6.852" stroke="#141414" stroke-width="0.4"/>
<line x1="54.312" y1="6.852" x2="31.073" y2="35.901" stroke="#141414" stroke-width="0.4"/>
<line x1="31.073" y1="35.901" x2="31.559" y2="46.499" stroke="#141414" stroke-width="0.4"/>
<circle cx="65.062" cy="132.229" r="2.81" fill="#ffe082" stroke="#464646" stroke-width="0.2"/>
<text x="65.062" y="133.56" font-size="3.81" text-anchor="middle" fill="#141414">14</text>
<circle cx="95.994" cy="93.564" r="2.81" fill="#99d9fa" stroke="#464646" stroke-width="0.2"/>
<text x="95.994" y="94.90" font-size="3.81" text-anchor="middle" fill="#141414">15</text>
<circle cx="45.426" cy="23.563" r="2.81" fill="#ffe082" stroke="#464646" stroke-width="0.2"/>
<text x="45.426" y="24.90" font-size="3.81" text-anchor="middle" fill="#141414">16</text>
<circle cx="67.525" cy="29.899" r="4.60" fill="#eaf1fe" stroke="#2e78e6" stroke-width="0.3"/>
<text x="67.525" y="31.70" font-size="5.20" text-anchor="middle" fill="#14306e" font-weight="bold">4</text>
<polygon points="145.191,46.452 147.264,53.361 156.936,53.361 159.009,46.452" fill="rgb(216,216,216)"/>
<polygon points="145.191,32.635 147.264,25.726 156.936,25.726 159.009,32.635" fill="rgb(216,216,216)"/>
<polygon points="159.009,46.452 165.918,44.38 165.918,34.708 159.009,32.635" fill="rgb(216,216,216)"/>
<polygon points="145.191,60.27 143.119,67.179 133.447,67.179 131.374,60.27" fill="rgb(216,216,216)"/>
<polygon points="131.374,46.452 124.465,44.38 124.465,34.708 131.374,32.635" fill="rgb(216,216,216)"/>
<polygon points="131.374,46.452 124.465,48.525 124.465,58.197 131.374,60.27" fill="rgb(216,216,216)"/>
<polygon points="131.374,32.635 124.465,30.562 124.465,20.89 131.374,18.818" fill="rgb(216,216,216)"/>
<polygon points="145.191,46.452 147.264,53.361 156.936,53.361 159.009,46.452" fill="#99d9fa"/>
<line x1="145.191" y1="46.453" x2="145.191" y2="32.635" stroke="#8c8c8c" stroke-width="0.3" stroke-dasharray="1.2,0.8"/>
<line x1="145.191" y1="46.453" x2="131.374" y2="46.453" stroke="#8c8c8c" stroke-width="0.3" stroke-dasharray="1.2,0.8"/>
<line x1="131.374" y1="32.635" x2="145.191" y2="32.635" stroke="#8c8c8c" stroke-width="0.3" stroke-dasharray="1.2,0.8"/>
<line x1="131.374" y1="18.818" x2="145.191" y2="18.818" stroke="#8c8c8c" stroke-width="0.3" stroke-dasharray="1.2,0.8"/>
<line x1="131.374" y1="18.818" x2="131.374" y2="5.0" stroke="#8c8c8c" stroke-width="0.3" stroke-dasharray="1.2,0.8"/>
<line x1="159.009" y1="46.452" x2="145.191" y2="46.452" stroke="#8c8c8c" stroke-width="0.3" stroke-dasharray="1.2,0.8"/>
<line x1="159.009" y1="32.635" x2="145.191" y2="32.635" stroke="#8c8c8c" stroke-width="0.3" stroke-dasharray="1.2,0.8"/>
<line x1="159.009" y1="32.635" x2="159.009" y2="46.452" stroke="#8c8c8c" stroke-width="0.3" stroke-dasharray="1.2,0.8"/>
<line x1="131.374" y1="60.27" x2="145.191" y2="60.27" stroke="#8c8c8c" stroke-width="0.3" stroke-dasharray="1.2,0.8"/>
<line x1="131.374" y1="32.635" x2="131.374" y2="46.452" stroke="#8c8c8c" stroke-width="0.3" stroke-dasharray="1.2,0.8"/>
<line x1="131.374" y1="60.27" x2="131.374" y2="46.452" stroke="#8c8c8c" stroke-width="0.3" stroke-dasharray="1.2,0.8"/>
<line x1="131.374" y1="18.818" x2="131.374" y2="32.635" stroke="#8c8c8c" stroke-width="0.3" stroke-dasharray="1.2,0.8"/>
<line x1="145.191" y1="46.453" x2="145.191" y2="60.27" stroke="#141414" stroke-width="0.4"/>
<line x1="145.191" y1="18.818" x2="145.191" y2="32.635" stroke="#141414" stroke-width="0.4"/>
<line x1="145.191" y1="5.0" x2="145.191" y2="18.818" stroke="#141414" stroke-width="0.4"/>
<line x1="131.374" y1="5.0" x2="145.191" y2="5.0" stroke="#141414" stroke-width="0.4"/>
<line x1="117.556" y1="18.818" x2="117.556" y2="5.0" stroke="#141414" stroke-width="0.4"/>
<line x1="117.556" y1="5.0" x2="131.374" y2="5.0" stroke="#141414" stroke-width="0.4"/>
<line x1="131.374" y1="18.818" x2="117.556" y2="18.818" stroke="#141414" stroke-width="0.4"/>
<line x1="145.191" y1="46.452" x2="147.264" y2="53.361" stroke="#141414" stroke-width="0.4"/>
<line x1="147.264" y1="53.361" x2="156.936" y2="53.361" stroke="#141414" stroke-width="0.4"/>
<line x1="156.936" y1="53.361" x2="159.009" y2="46.452" stroke="#141414" stroke-width="0.4"/>
<line x1="145.191" y1="32.635" x2="147.264" y2="25.726" stroke="#141414" stroke-width="0.4"/>
<line x1="147.264" y1="25.726" x2="156.936" y2="25.726" stroke="#141414" stroke-width="0.4"/>
<line x1="156.936" y1="25.726" x2="159.009" y2="32.635" stroke="#141414" stroke-width="0.4"/>
<line x1="159.009" y1="46.452" x2="165.918" y2="44.38" stroke="#141414" stroke-width="0.4"/>
<line x1="165.918" y1="44.38" x2="165.918" y2="34.708" stroke="#141414" stroke-width="0.4"/>
<line x1="165.918" y1="34.708" x2="159.009" y2="32.635" stroke="#141414" stroke-width="0.4"/>
<line x1="145.191" y1="60.27" x2="143.119" y2="67.179" stroke="#141414" stroke-width="0.4"/>
<line x1="143.119" y1="67.179" x2="133.447" y2="67.179" stroke="#141414" stroke-width="0.4"/>
<line x1="133.447" y1="67.179" x2="131.374" y2="60.27" stroke="#141414" stroke-width="0.4"/>
<line x1="131.374" y1="46.452" x2="124.465" y2="44.38" stroke="#141414" stroke-width="0.4"/>
<line x1="124.465" y1="44.38" x2="124.465" y2="34.708" stroke="#141414" stroke-width="0.4"/>
<line x1="124.465" y1="34.708" x2="131.374" y2="32.635" stroke="#141414" stroke-width="0.4"/>
<line x1="131.374" y1="46.452" x2="124.465" y2="48.525" stroke="#141414" stroke-width="0.4"/>
<line x1="124.465" y1="48.525" x2="124.465" y2="58.197" stroke="#141414" stroke-width="0.4"/>
<line x1="124.465" y1="58.197" x2="131.374" y2="60.27" stroke="#141414" stroke-width="0.4"/>
<line x1="131.374" y1="32.635" x2="124.465" y2="30.562" stroke="#141414" stroke-width="0.4"/>
<line x1="124.465" y1="30.562" x2="124.465" y2="20.89" stroke="#141414" stroke-width="0.4"/>
<line x1="124.465" y1="20.89" x2="131.374" y2="18.818" stroke="#141414" stroke-width="0.4"/>
<circle cx="152.1" cy="49.907" r="2.81" fill="#99d9fa" stroke="#464646" stroke-width="0.2"/>
<text x="152.1" y="51.24" font-size="3.81" text-anchor="middle" fill="#141414">24</text>
<circle cx="152.1" cy="29.181" r="2.81" fill="#ffe082" stroke="#464646" stroke-width="0.2"/>
<text x="152.1" y="30.51" font-size="3.81" text-anchor="middle" fill="#141414">25</text>
<circle cx="162.463" cy="39.544" r="2.81" fill="#ffe082" stroke="#464646" stroke-width="0.2"/>
<text x="162.463" y="40.88" font-size="3.81" text-anchor="middle" fill="#141414">26</text>
<circle cx="138.283" cy="63.724" r="2.81" fill="#ffe082" stroke="#464646" stroke-width="0.2"/>
<text x="138.283" y="65.06" font-size="3.81" text-anchor="middle" fill="#141414">27</text>
<circle cx="127.92" cy="39.544" r="2.81" fill="#ffe082" stroke="#464646" stroke-width="0.2"/>
<text x="127.92" y="40.88" font-size="3.81" text-anchor="middle" fill="#141414">28</text>
<circle cx="127.92" cy="53.361" r="2.81" fill="#ffe082" stroke="#464646" stroke-width="0.2"/>
<text x="127.92" y="54.69" font-size="3.81" text-anchor="middle" fill="#141414">29</text>
<circle cx="127.92" cy="25.726" r="2.81" fill="#ffe082" stroke="#464646" stroke-width="0.2"/>
<text x="127.92" y="27.06" font-size="3.81" text-anchor="middle" fill="#141414">30</text>
<circle cx="135.98" cy="55.664" r="2.61" fill="#eaf1fe" stroke="#2e78e6" stroke-width="0.3"/>
<text x="135.98" y="56.68" font-size="2.95" text-anchor="middle" fill="#14306e" font-weight="bold">6</text>
<polygon points="44.327,201.663 48.312,208.663 66.913,208.663 70.899,201.663" fill="rgb(216,216,216)"/>
<polygon points="44.327,188.908 48.312,181.908 66.913,181.908 70.899,188.908" fill="rgb(216,216,216)"/>
<polygon points="70.899,201.663 77.276,199.75 77.276,190.822 70.899,188.908" fill="rgb(216,216,216)"/>
<polygon points="44.327,228.235 42.414,234.612 33.485,234.612 31.572,228.235" fill="rgb(216,216,216)"/>
<polygon points="31.572,201.663 25.195,199.75 25.195,190.822 31.572,188.908" fill="rgb(216,216,216)"/>
<polygon points="31.572,201.663 24.572,205.649 24.572,224.249 31.572,228.235" fill="rgb(216,216,216)"/>
<polygon points="31.572,188.908 24.572,184.923 24.572,166.322 31.572,162.336" fill="rgb(216,216,216)"/>
<polygon points="44.327,201.663 48.312,208.663 66.913,208.663 70.899,201.663" fill="#99d9fa"/>
<line x1="44.327" y1="201.663" x2="44.327" y2="188.908" stroke="#8c8c8c" stroke-width="0.3" stroke-dasharray="1.2,0.8"/>
<line x1="44.327" y1="201.663" x2="31.572" y2="201.663" stroke="#8c8c8c" stroke-width="0.3" stroke-dasharray="1.2,0.8"/>
<line x1="31.572" y1="188.908" x2="44.327" y2="188.908" stroke="#8c8c8c" stroke-width="0.3" stroke-dasharray="1.2,0.8"/>
<line x1="31.572" y1="162.336" x2="44.327" y2="162.336" stroke="#8c8c8c" stroke-width="0.3" stroke-dasharray="1.2,0.8"/>
<line x1="31.572" y1="162.336" x2="31.572" y2="149.582" stroke="#8c8c8c" stroke-width="0.3" stroke-dasharray="1.2,0.8"/>
<line x1="70.899" y1="201.663" x2="44.327" y2="201.663" stroke="#8c8c8c" stroke-width="0.3" stroke-dasharray="1.2,0.8"/>
<line x1="70.899" y1="188.908" x2="44.327" y2="188.908" stroke="#8c8c8c" stroke-width="0.3" stroke-dasharray="1.2,0.8"/>
<line x1="70.899" y1="188.908" x2="70.899" y2="201.663" stroke="#8c8c8c" stroke-width="0.3" stroke-dasharray="1.2,0.8"/>
<line x1="31.572" y1="228.235" x2="44.327" y2="228.235" stroke="#8c8c8c" stroke-width="0.3" stroke-dasharray="1.2,0.8"/>
<line x1="31.572" y1="188.908" x2="31.572" y2="201.663" stroke="#8c8c8c" stroke-width="0.3" stroke-dasharray="1.2,0.8"/>
<line x1="31.572" y1="228.235" x2="31.572" y2="201.663" stroke="#8c8c8c" stroke-width="0.3" stroke-dasharray="1.2,0.8"/>
<line x1="31.572" y1="162.336" x2="31.572" y2="188.908" stroke="#8c8c8c" stroke-width="0.3" stroke-dasharray="1.2,0.8"/>
<line x1="44.327" y1="201.663" x2="44.327" y2="228.235" stroke="#141414" stroke-width="0.4"/>
<line x1="44.327" y1="162.336" x2="44.327" y2="188.908" stroke="#141414" stroke-width="0.4"/>
<line x1="44.327" y1="149.582" x2="44.327" y2="162.336" stroke="#141414" stroke-width="0.4"/>
<line x1="31.572" y1="149.582" x2="44.327" y2="149.582" stroke="#141414" stroke-width="0.4"/>
<line x1="5.0" y1="162.336" x2="5.0" y2="149.582" stroke="#141414" stroke-width="0.4"/>
<line x1="5.0" y1="149.582" x2="31.572" y2="149.582" stroke="#141414" stroke-width="0.4"/>
<line x1="31.572" y1="162.336" x2="5.0" y2="162.336" stroke="#141414" stroke-width="0.4"/>
<line x1="44.327" y1="201.663" x2="48.312" y2="208.663" stroke="#141414" stroke-width="0.4"/>
<line x1="48.312" y1="208.663" x2="66.913" y2="208.663" stroke="#141414" stroke-width="0.4"/>
<line x1="66.913" y1="208.663" x2="70.899" y2="201.663" stroke="#141414" stroke-width="0.4"/>
<line x1="44.327" y1="188.908" x2="48.312" y2="181.908" stroke="#141414" stroke-width="0.4"/>
<line x1="48.312" y1="181.908" x2="66.913" y2="181.908" stroke="#141414" stroke-width="0.4"/>
<line x1="66.913" y1="181.908" x2="70.899" y2="188.908" stroke="#141414" stroke-width="0.4"/>
<line x1="70.899" y1="201.663" x2="77.276" y2="199.75" stroke="#141414" stroke-width="0.4"/>
<line x1="77.276" y1="199.75" x2="77.276" y2="190.822" stroke="#141414" stroke-width="0.4"/>
<line x1="77.276" y1="190.822" x2="70.899" y2="188.908" stroke="#141414" stroke-width="0.4"/>
<line x1="44.327" y1="228.235" x2="42.414" y2="234.612" stroke="#141414" stroke-width="0.4"/>
<line x1="42.414" y1="234.612" x2="33.485" y2="234.612" stroke="#141414" stroke-width="0.4"/>
<line x1="33.485" y1="234.612" x2="31.572" y2="228.235" stroke="#141414" stroke-width="0.4"/>
<line x1="31.572" y1="201.663" x2="25.195" y2="199.75" stroke="#141414" stroke-width="0.4"/>
<line x1="25.195" y1="199.75" x2="25.195" y2="190.822" stroke="#141414" stroke-width="0.4"/>
<line x1="25.195" y1="190.822" x2="31.572" y2="188.908" stroke="#141414" stroke-width="0.4"/>
<line x1="31.572" y1="201.663" x2="24.572" y2="205.649" stroke="#141414" stroke-width="0.4"/>
<line x1="24.572" y1="205.649" x2="24.572" y2="224.249" stroke="#141414" stroke-width="0.4"/>
<line x1="24.572" y1="224.249" x2="31.572" y2="228.235" stroke="#141414" stroke-width="0.4"/>
<line x1="31.572" y1="188.908" x2="24.572" y2="184.923" stroke="#141414" stroke-width="0.4"/>
<line x1="24.572" y1="184.923" x2="24.572" y2="166.322" stroke="#141414" stroke-width="0.4"/>
<line x1="24.572" y1="166.322" x2="31.572" y2="162.336" stroke="#141414" stroke-width="0.4"/>
<circle cx="57.613" cy="205.163" r="2.81" fill="#99d9fa" stroke="#464646" stroke-width="0.2"/>
<text x="57.613" y="206.50" font-size="3.81" text-anchor="middle" fill="#141414">31</text>
<circle cx="57.613" cy="185.408" r="2.81" fill="#ffe082" stroke="#464646" stroke-width="0.2"/>
<text x="57.613" y="186.74" font-size="3.81" text-anchor="middle" fill="#141414">32</text>
<circle cx="74.087" cy="195.286" r="2.81" fill="#ffe082" stroke="#464646" stroke-width="0.2"/>
<text x="74.087" y="196.62" font-size="3.81" text-anchor="middle" fill="#141414">33</text>
<circle cx="37.949" cy="231.424" r="2.81" fill="#ffe082" stroke="#464646" stroke-width="0.2"/>
<text x="37.949" y="232.76" font-size="3.81" text-anchor="middle" fill="#141414">34</text>
<circle cx="28.383" cy="195.286" r="2.81" fill="#ffe082" stroke="#464646" stroke-width="0.2"/>
<text x="28.383" y="196.62" font-size="3.81" text-anchor="middle" fill="#141414">35</text>
<circle cx="28.072" cy="214.949" r="2.81" fill="#ffe082" stroke="#464646" stroke-width="0.2"/>
<text x="28.072" y="216.28" font-size="3.81" text-anchor="middle" fill="#141414">36</text>
<circle cx="28.072" cy="175.622" r="2.81" fill="#ffe082" stroke="#464646" stroke-width="0.2"/>
<text x="28.072" y="176.95" font-size="3.81" text-anchor="middle" fill="#141414">37</text>
<circle cx="35.824" cy="219.378" r="3.07" fill="#eaf1fe" stroke="#2e78e6" stroke-width="0.3"/>
<text x="35.824" y="220.58" font-size="3.47" text-anchor="middle" fill="#14306e" font-weight="bold">7</text>
<text x="205.0" y="295.0" font-size="3.2" text-anchor="end" fill="#737373" font-family="sans-serif">3 / 3</text>
<g pointer-events="none"><text x="105.0" y="83.2" text-anchor="middle" font-family="sans-serif" font-size="12.4" fill="#9aa0a6" fill-opacity="0.3" transform="rotate(-28 105.0 83.2)">papercraft.kr</text><text x="105.0" y="148.5" text-anchor="middle" font-family="sans-serif" font-size="12.4" fill="#9aa0a6" fill-opacity="0.3" transform="rotate(-28 105.0 148.5)">papercraft.kr</text><text x="105.0" y="213.8" text-anchor="middle" font-family="sans-serif" font-size="12.4" fill="#9aa0a6" fill-opacity="0.3" transform="rotate(-28 105.0 213.8)">papercraft.kr</text></g></svg>
