<svg xmlns="http://www.w3.org/2000/svg" xmlns:xlink="http://www.w3.org/1999/xlink" width="210.00mm" height="297.00mm" viewBox="0 0 210.00 297.00">
<rect x="0" y="0" width="210.00" height="297.00" fill="#ffffff" stroke="#cccccc" stroke-width="0.2"/>
<polygon points="38.122,111.75 45.123,114.51 45.123,127.391 38.122,130.151" fill="rgb(216,216,216)"/>
<polygon points="23.401,111.75 16.401,99.605 16.401,42.928 23.401,30.783" fill="rgb(216,216,216)"/>
<polygon points="23.401,111.75 16.401,114.51 16.401,127.391 23.401,130.151" fill="rgb(216,216,216)"/>
<polygon points="38.122,30.783 40.883,23.783 53.764,23.783 56.524,30.783" fill="rgb(216,216,216)"/>
<polygon points="5.0,211.117 7.76,218.117 20.641,218.117 23.401,211.117" fill="rgb(216,216,216)"/>
<polygon points="56.524,111.75 63.524,99.605 63.524,42.928 56.524,30.783" fill="rgb(216,216,216)"/>
<polygon points="38.122,12.382 35.914,5.382 25.61,5.382 23.401,12.382" fill="rgb(216,216,216)"/>
<polygon points="38.122,111.75 45.123,114.51 45.123,127.391 38.122,130.151" fill="#99d9fa"/>
<line x1="38.123" y1="111.749" x2="23.401" y2="111.749" stroke="#8c8c8c" stroke-width="0.3" stroke-dasharray="1.2,0.8"/>
<line x1="38.123" y1="30.783" x2="38.123" y2="111.749" stroke="#8c8c8c" stroke-width="0.3" stroke-dasharray="1.2,0.8"/>
<line x1="23.401" y1="30.783" x2="38.123" y2="30.783" stroke="#8c8c8c" stroke-width="0.3" stroke-dasharray="1.2,0.8"/>
<line x1="38.123" y1="130.151" x2="23.401" y2="130.151" stroke="#8c8c8c" stroke-width="0.3" stroke-dasharray="1.2,0.8"/>
<line x1="23.401" y1="130.151" x2="23.401" y2="211.117" stroke="#8c8c8c" stroke-width="0.3" stroke-dasharray="1.2,0.8"/>
<line x1="38.122" y1="130.151" x2="38.122" y2="111.75" stroke="#8c8c8c" stroke-width="0.3" stroke-dasharray="1.2,0.8"/>
<line x1="23.401" y1="30.783" x2="23.401" y2="111.75" stroke="#8c8c8c" stroke-width="0.3" stroke-dasharray="1.2,0.8"/>
<line x1="23.401" y1="130.151" x2="23.401" y2="111.75" stroke="#8c8c8c" stroke-width="0.3" stroke-dasharray="1.2,0.8"/>
<line x1="56.524" y1="30.783" x2="38.122" y2="30.783" stroke="#8c8c8c" stroke-width="0.3" stroke-dasharray="1.2,0.8"/>
<line x1="23.401" y1="211.117" x2="5.0" y2="211.117" stroke="#8c8c8c" stroke-width="0.3" stroke-dasharray="1.2,0.8"/>
<line x1="56.524" y1="30.783" x2="56.524" y2="111.75" stroke="#8c8c8c" stroke-width="0.3" stroke-dasharray="1.2,0.8"/>
<line x1="23.401" y1="12.382" x2="38.122" y2="12.382" stroke="#8c8c8c" stroke-width="0.3" stroke-dasharray="1.2,0.8"/>
<line x1="56.524" y1="111.749" x2="38.123" y2="111.749" stroke="#141414" stroke-width="0.4"/>
<line x1="5.0" y1="211.117" x2="5.0" y2="130.151" stroke="#141414" stroke-width="0.4"/>
<line x1="5.0" y1="130.151" x2="23.401" y2="130.151" stroke="#141414" stroke-width="0.4"/>
<line x1="38.123" y1="12.382" x2="38.123" y2="30.783" stroke="#141414" stroke-width="0.4"/>
<line x1="23.401" y1="30.783" x2="23.401" y2="12.382" stroke="#141414" stroke-width="0.4"/>
<line x1="38.123" y1="130.151" x2="38.123" y2="211.117" stroke="#141414" stroke-width="0.4"/>
<line x1="38.123" y1="211.117" x2="23.401" y2="211.117" stroke="#141414" stroke-width="0.4"/>
<line x1="38.122" y1="111.75" x2="45.123" y2="114.51" stroke="#141414" stroke-width="0.4"/>
<line x1="45.123" y1="114.51" x2="45.123" y2="127.391" stroke="#141414" stroke-width="0.4"/>
<line x1="45.123" y1="127.391" x2="38.122" y2="130.151" stroke="#141414" stroke-width="0.4"/>
<line x1="23.401" y1="111.75" x2="16.401" y2="99.605" stroke="#141414" stroke-width="0.4"/>
<line x1="16.401" y1="99.605" x2="16.401" y2="42.928" stroke="#141414" stroke-width="0.4"/>
<line x1="16.401" y1="42.928" x2="23.401" y2="30.783" stroke="#141414" stroke-width="0.4"/>
<line x1="23.401" y1="111.75" x2="16.401" y2="114.51" stroke="#141414" stroke-width="0.4"/>
<line x1="16.401" y1="114.51" x2="16.401" y2="127.391" stroke="#141414" stroke-width="0.4"/>
<line x1="16.401" y1="127.391" x2="23.401" y2="130.151" stroke="#141414" stroke-width="0.4"/>
<line x1="38.122" y1="30.783" x2="40.883" y2="23.783" stroke="#141414" stroke-width="0.4"/>
<line x1="40.883" y1="23.783" x2="53.764" y2="23.783" stroke="#141414" stroke-width="0.4"/>
<line x1="53.764" y1="23.783" x2="56.524" y2="30.783" stroke="#141414" stroke-width="0.4"/>
<line x1="5.0" y1="211.117" x2="7.76" y2="218.117" stroke="#141414" stroke-width="0.4"/>
<line x1="7.76" y1="218.117" x2="20.641" y2="218.117" stroke="#141414" stroke-width="0.4"/>
<line x1="20.641" y1="218.117" x2="23.401" y2="211.117" stroke="#141414" stroke-width="0.4"/>
<line x1="56.524" y1="111.75" x2="63.524" y2="99.605" stroke="#141414" stroke-width="0.4"/>
<line x1="63.524" y1="99.605" x2="63.524" y2="42.928" stroke="#141414" stroke-width="0.4"/>
<line x1="63.524" y1="42.928" x2="56.524" y2="30.783" stroke="#141414" stroke-width="0.4"/>
<line x1="38.122" y1="12.382" x2="35.914" y2="5.382" stroke="#141414" stroke-width="0.4"/>
<line x1="35.914" y1="5.382" x2="25.61" y2="5.382" stroke="#141414" stroke-width="0.4"/>
<line x1="25.61" y1="5.382" x2="23.401" y2="12.382" stroke="#141414" stroke-width="0.4"/>
<circle cx="41.622" cy="120.95" r="3.08" fill="#99d9fa" stroke="#464646" stroke-width="0.2"/>
<text x="41.622" y="122.41" font-size="4.18" text-anchor="middle" fill="#141414">43</text>
<circle cx="19.901" cy="71.266" r="3.08" fill="#ffe082" stroke="#464646" stroke-width="0.2"/>
<text x="19.901" y="72.73" font-size="4.18" text-anchor="middle" fill="#141414">44</text>
<circle cx="19.901" cy="120.95" r="3.08" fill="#ffe082" stroke="#464646" stroke-width="0.2"/>
<text x="19.901" y="122.41" font-size="4.18" text-anchor="middle" fill="#141414">45</text>
<circle cx="47.323" cy="27.283" r="3.08" fill="#ffe082" stroke="#464646" stroke-width="0.2"/>
<text x="47.323" y="28.75" font-size="4.18" text-anchor="middle" fill="#141414">46</text>
<circle cx="14.201" cy="214.617" r="3.08" fill="#ffe082" stroke="#464646" stroke-width="0.2"/>
<text x="14.201" y="216.08" font-size="4.18" text-anchor="middle" fill="#141414">47</text>
<circle cx="60.024" cy="71.266" r="3.08" fill="#ffe082" stroke="#464646" stroke-width="0.2"/>
<text x="60.024" y="72.73" font-size="4.18" text-anchor="middle" fill="#141414">48</text>
<circle cx="30.762" cy="8.882" r="3.08" fill="#ffe082" stroke="#464646" stroke-width="0.2"/>
<text x="30.762" y="10.34" font-size="4.18" text-anchor="middle" fill="#141414">49</text>
<circle cx="34.262" cy="223.835" r="4.6" fill="#eaf1fe" stroke="#2e78e6" stroke-width="0.3"/>
<text x="34.262" y="225.63500000000002" font-size="5.2" text-anchor="middle" fill="#14306e" font-weight="bold">7</text>
<text x="205.0" y="295.0" font-size="3.2" text-anchor="end" fill="#737373" font-family="sans-serif">3 / 4</text>
</svg>
