<svg xmlns="http://www.w3.org/2000/svg" xmlns:xlink="http://www.w3.org/1999/xlink" width="210.00mm" height="297.00mm" viewBox="0 0 210.00 297.00">
<rect x="0" y="0" width="210.00" height="297.00" fill="#ffffff" stroke="#cccccc" stroke-width="0.2"/>
<polygon points="31.417,65.142 28.195,72.141 13.16,72.141 9.938,65.142" fill="rgb(216,216,216)"/>
<polygon points="31.417,45.81 28.195,38.81 13.16,38.81 9.938,45.81" fill="rgb(216,216,216)"/>
<polygon points="47.527,65.142 54.527,62.242 54.527,48.71 47.527,45.81" fill="rgb(216,216,216)"/>
<polygon points="47.527,65.142 54.527,68.363 54.527,83.399 47.527,86.621" fill="rgb(216,216,216)"/>
<polygon points="47.527,45.81 54.527,42.588 54.527,27.553 47.527,24.331" fill="rgb(216,216,216)"/>
<polygon points="9.938,65.142 2.938,62.242 2.938,48.71 9.938,45.81" fill="rgb(216,216,216)"/>
<polygon points="31.417,86.621 33.834,93.621 45.11,93.621 47.527,86.621" fill="rgb(216,216,216)"/>
<line x1="31.417" y1="65.142" x2="31.417" y2="45.81" stroke="#8c8c8c" stroke-width="0.3" stroke-dasharray="1.2,0.8"/>
<line x1="47.527" y1="65.142" x2="31.417" y2="65.142" stroke="#8c8c8c" stroke-width="0.3" stroke-dasharray="1.2,0.8"/>
<line x1="31.417" y1="45.81" x2="47.527" y2="45.81" stroke="#8c8c8c" stroke-width="0.3" stroke-dasharray="1.2,0.8"/>
<line x1="31.417" y1="24.331" x2="47.527" y2="24.331" stroke="#8c8c8c" stroke-width="0.3" stroke-dasharray="1.2,0.8"/>
<line x1="47.527" y1="24.331" x2="47.527" y2="5.0" stroke="#8c8c8c" stroke-width="0.3" stroke-dasharray="1.2,0.8"/>
<line x1="9.938" y1="65.142" x2="31.417" y2="65.142" stroke="#8c8c8c" stroke-width="0.3" stroke-dasharray="1.2,0.8"/>
<line x1="9.938" y1="45.81" x2="31.417" y2="45.81" stroke="#8c8c8c" stroke-width="0.3" stroke-dasharray="1.2,0.8"/>
<line x1="47.527" y1="45.81" x2="47.527" y2="65.142" stroke="#8c8c8c" stroke-width="0.3" stroke-dasharray="1.2,0.8"/>
<line x1="47.527" y1="86.621" x2="47.527" y2="65.142" stroke="#8c8c8c" stroke-width="0.3" stroke-dasharray="1.2,0.8"/>
<line x1="47.527" y1="24.331" x2="47.527" y2="45.81" stroke="#8c8c8c" stroke-width="0.3" stroke-dasharray="1.2,0.8"/>
<line x1="9.938" y1="45.81" x2="9.938" y2="65.142" stroke="#8c8c8c" stroke-width="0.3" stroke-dasharray="1.2,0.8"/>
<line x1="47.527" y1="86.621" x2="31.417" y2="86.621" stroke="#8c8c8c" stroke-width="0.3" stroke-dasharray="1.2,0.8"/>
<line x1="31.417" y1="86.621" x2="31.417" y2="65.142" stroke="#141414" stroke-width="0.4"/>
<line x1="31.417" y1="45.81" x2="31.417" y2="24.331" stroke="#141414" stroke-width="0.4"/>
<line x1="69.006" y1="5.0" x2="69.006" y2="24.331" stroke="#141414" stroke-width="0.4"/>
<line x1="47.527" y1="5.0" x2="69.006" y2="5.0" stroke="#141414" stroke-width="0.4"/>
<line x1="69.006" y1="24.331" x2="47.527" y2="24.331" stroke="#141414" stroke-width="0.4"/>
<line x1="31.417" y1="24.331" x2="31.417" y2="5.0" stroke="#141414" stroke-width="0.4"/>
<line x1="31.417" y1="5.0" x2="47.527" y2="5.0" stroke="#141414" stroke-width="0.4"/>
<line x1="31.417" y1="65.142" x2="28.195" y2="72.141" stroke="#141414" stroke-width="0.4"/>
<line x1="28.195" y1="72.141" x2="13.16" y2="72.141" stroke="#141414" stroke-width="0.4"/>
<line x1="13.16" y1="72.141" x2="9.938" y2="65.142" stroke="#141414" stroke-width="0.4"/>
<line x1="31.417" y1="45.81" x2="28.195" y2="38.81" stroke="#141414" stroke-width="0.4"/>
<line x1="28.195" y1="38.81" x2="13.16" y2="38.81" stroke="#141414" stroke-width="0.4"/>
<line x1="13.16" y1="38.81" x2="9.938" y2="45.81" stroke="#141414" stroke-width="0.4"/>
<line x1="47.527" y1="65.142" x2="54.527" y2="62.242" stroke="#141414" stroke-width="0.4"/>
<line x1="54.527" y1="62.242" x2="54.527" y2="48.71" stroke="#141414" stroke-width="0.4"/>
<line x1="54.527" y1="48.71" x2="47.527" y2="45.81" stroke="#141414" stroke-width="0.4"/>
<line x1="47.527" y1="65.142" x2="54.527" y2="68.363" stroke="#141414" stroke-width="0.4"/>
<line x1="54.527" y1="68.363" x2="54.527" y2="83.399" stroke="#141414" stroke-width="0.4"/>
<line x1="54.527" y1="83.399" x2="47.527" y2="86.621" stroke="#141414" stroke-width="0.4"/>
<line x1="47.527" y1="45.81" x2="54.527" y2="42.588" stroke="#141414" stroke-width="0.4"/>
<line x1="54.527" y1="42.588" x2="54.527" y2="27.553" stroke="#141414" stroke-width="0.4"/>
<line x1="54.527" y1="27.553" x2="47.527" y2="24.331" stroke="#141414" stroke-width="0.4"/>
<line x1="9.938" y1="65.142" x2="2.938" y2="62.242" stroke="#141414" stroke-width="0.4"/>
<line x1="2.938" y1="62.242" x2="2.938" y2="48.71" stroke="#141414" stroke-width="0.4"/>
<line x1="2.938" y1="48.71" x2="9.938" y2="45.81" stroke="#141414" stroke-width="0.4"/>
<line x1="31.417" y1="86.621" x2="33.834" y2="93.621" stroke="#141414" stroke-width="0.4"/>
<line x1="33.834" y1="93.621" x2="45.11" y2="93.621" stroke="#141414" stroke-width="0.4"/>
<line x1="45.11" y1="93.621" x2="47.527" y2="86.621" stroke="#141414" stroke-width="0.4"/>
<circle cx="20.678" cy="68.642" r="0.80" fill="#ffe082" stroke="#464646" stroke-width="0.2"/>
<text x="20.678" y="68.92" font-size="0.79" text-anchor="middle" fill="#141414">1</text>
<circle cx="20.678" cy="42.31" r="0.80" fill="#ffe082" stroke="#464646" stroke-width="0.2"/>
<text x="20.678" y="42.59" font-size="0.79" text-anchor="middle" fill="#141414">2</text>
<circle cx="51.027" cy="55.476" r="0.80" fill="#ffe082" stroke="#464646" stroke-width="0.2"/>
<text x="51.027" y="55.75" font-size="0.79" text-anchor="middle" fill="#141414">3</text>
<circle cx="51.027" cy="75.881" r="0.80" fill="#ffe082" stroke="#464646" stroke-width="0.2"/>
<text x="51.027" y="76.16" font-size="0.79" text-anchor="middle" fill="#141414">4</text>
<circle cx="51.027" cy="35.071" r="0.80" fill="#ffe082" stroke="#464646" stroke-width="0.2"/>
<text x="51.027" y="35.35" font-size="0.79" text-anchor="middle" fill="#141414">5</text>
<circle cx="6.438" cy="55.476" r="0.80" fill="#ffe082" stroke="#464646" stroke-width="0.2"/>
<text x="6.438" y="55.75" font-size="0.79" text-anchor="middle" fill="#141414">6</text>
<circle cx="39.472" cy="90.121" r="0.80" fill="#ffe082" stroke="#464646" stroke-width="0.2"/>
<text x="39.472" y="90.40" font-size="0.79" text-anchor="middle" fill="#141414">7</text>
<circle cx="38.034" cy="99.721" r="4.6" fill="#eaf1fe" stroke="#2e78e6" stroke-width="0.3"/>
<text x="38.034" y="101.521" font-size="5.2" text-anchor="middle" fill="#14306e" font-weight="bold">1</text>
<polygon points="91.236,21.731 87.497,22.495 86.056,20.688 87.634,17.213" fill="rgb(216,216,216)"/>
<polygon points="97.014,21.731 100.753,22.495 102.194,20.688 100.617,17.213" fill="rgb(216,216,216)"/>
<polygon points="94.471,69.367 95.01,72.816 98.689,73.087 99.727,69.754" fill="rgb(216,216,216)"/>
<polygon points="100.617,17.213 103.739,15.612 102.839,11.668 99.331,11.58" fill="rgb(216,216,216)"/>
<polygon points="99.331,11.58 100.025,8.141 96.381,6.386 94.125,9.073" fill="rgb(216,216,216)"/>
<polygon points="99.727,69.754 99.807,72.503 102.451,72.99 103.505,70.45" fill="rgb(216,216,216)"/>
<polygon points="114.177,23.977 119.398,32.515 111.928,65.046 103.505,70.45" fill="rgb(216,216,216)"/>
<polygon points="94.125,9.073 91.869,6.386 88.225,8.141 88.919,11.58" fill="rgb(216,216,216)"/>
<polygon points="84.587,70.458 85.371,72.3 87.292,71.928 87.332,69.927" fill="rgb(216,216,216)"/>
<polygon points="88.919,11.58 85.412,11.669 84.512,15.611 87.634,17.213" fill="rgb(216,216,216)"/>
<polygon points="87.332,69.927 87.254,71.778 89.251,71.519 90.105,69.568" fill="rgb(216,216,216)"/>
<line x1="91.236" y1="21.731" x2="97.014" y2="21.731" stroke="#8c8c8c" stroke-width="0.3" stroke-dasharray="1.2,0.8"/>
<line x1="94.471" y1="69.367" x2="91.236" y2="21.731" stroke="#8c8c8c" stroke-width="0.3" stroke-dasharray="1.2,0.8"/>
<line x1="91.236" y1="21.731" x2="90.105" y2="69.569" stroke="#8c8c8c" stroke-width="0.3" stroke-dasharray="1.2,0.8"/>
<line x1="97.014" y1="21.731" x2="94.471" y2="69.367" stroke="#8c8c8c" stroke-width="0.3" stroke-dasharray="1.2,0.8"/>
<line x1="102.781" y1="22.097" x2="94.471" y2="69.367" stroke="#8c8c8c" stroke-width="0.3" stroke-dasharray="1.2,0.8"/>
<line x1="90.105" y1="69.569" x2="94.471" y2="69.367" stroke="#8c8c8c" stroke-width="0.3" stroke-dasharray="1.2,0.8"/>
<line x1="102.781" y1="22.097" x2="99.727" y2="69.754" stroke="#8c8c8c" stroke-width="0.3" stroke-dasharray="1.2,0.8"/>
<line x1="108.509" y1="22.856" x2="99.727" y2="69.754" stroke="#8c8c8c" stroke-width="0.3" stroke-dasharray="1.2,0.8"/>
<line x1="79.74" y1="22.853" x2="87.332" y2="69.927" stroke="#8c8c8c" stroke-width="0.3" stroke-dasharray="1.2,0.8"/>
<line x1="85.471" y1="22.112" x2="90.105" y2="69.569" stroke="#8c8c8c" stroke-width="0.3" stroke-dasharray="1.2,0.8"/>
<line x1="114.177" y1="23.977" x2="99.727" y2="69.754" stroke="#8c8c8c" stroke-width="0.3" stroke-dasharray="1.2,0.8"/>
<line x1="87.634" y1="17.213" x2="91.236" y2="21.731" stroke="#8c8c8c" stroke-width="0.3" stroke-dasharray="1.2,0.8"/>
<line x1="100.617" y1="17.213" x2="97.014" y2="21.731" stroke="#8c8c8c" stroke-width="0.3" stroke-dasharray="1.2,0.8"/>
<line x1="99.727" y1="69.754" x2="94.471" y2="69.367" stroke="#8c8c8c" stroke-width="0.3" stroke-dasharray="1.2,0.8"/>
<line x1="99.331" y1="11.58" x2="100.617" y2="17.213" stroke="#8c8c8c" stroke-width="0.3" stroke-dasharray="1.2,0.8"/>
<line x1="94.125" y1="9.073" x2="99.331" y2="11.58" stroke="#8c8c8c" stroke-width="0.3" stroke-dasharray="1.2,0.8"/>
<line x1="103.505" y1="70.45" x2="99.727" y2="69.754" stroke="#8c8c8c" stroke-width="0.3" stroke-dasharray="1.2,0.8"/>
<line x1="103.505" y1="70.45" x2="114.177" y2="23.977" stroke="#8c8c8c" stroke-width="0.3" stroke-dasharray="1.2,0.8"/>
<line x1="88.919" y1="11.58" x2="94.125" y2="9.073" stroke="#8c8c8c" stroke-width="0.3" stroke-dasharray="1.2,0.8"/>
<line x1="87.332" y1="69.927" x2="84.587" y2="70.458" stroke="#8c8c8c" stroke-width="0.3" stroke-dasharray="1.2,0.8"/>
<line x1="87.634" y1="17.213" x2="88.919" y2="11.58" stroke="#8c8c8c" stroke-width="0.3" stroke-dasharray="1.2,0.8"/>
<line x1="90.105" y1="69.568" x2="87.332" y2="69.927" stroke="#8c8c8c" stroke-width="0.3" stroke-dasharray="1.2,0.8"/>
<line x1="85.471" y1="22.112" x2="91.236" y2="21.731" stroke="#141414" stroke-width="0.4"/>
<line x1="97.014" y1="21.731" x2="102.781" y2="22.097" stroke="#141414" stroke-width="0.4"/>
<line x1="94.471" y1="69.367" x2="94.309" y2="74.634" stroke="#141414" stroke-width="0.4"/>
<line x1="102.781" y1="22.097" x2="108.509" y2="22.856" stroke="#141414" stroke-width="0.4"/>
<line x1="108.509" y1="22.856" x2="114.177" y2="23.977" stroke="#141414" stroke-width="0.4"/>
<line x1="94.309" y1="74.634" x2="90.468" y2="74.593" stroke="#141414" stroke-width="0.4"/>
<line x1="84.587" y1="70.458" x2="74.068" y2="23.951" stroke="#141414" stroke-width="0.4"/>
<line x1="74.068" y1="23.951" x2="79.74" y2="22.853" stroke="#141414" stroke-width="0.4"/>
<line x1="90.468" y1="74.593" x2="89.076" y2="72.168" stroke="#141414" stroke-width="0.4"/>
<line x1="79.74" y1="22.853" x2="85.471" y2="22.112" stroke="#141414" stroke-width="0.4"/>
<line x1="89.076" y1="72.168" x2="90.105" y2="69.569" stroke="#141414" stroke-width="0.4"/>
<line x1="91.236" y1="21.731" x2="87.497" y2="22.495" stroke="#141414" stroke-width="0.4"/>
<line x1="87.497" y1="22.495" x2="86.056" y2="20.688" stroke="#141414" stroke-width="0.4"/>
<line x1="86.056" y1="20.688" x2="87.634" y2="17.213" stroke="#141414" stroke-width="0.4"/>
<line x1="97.014" y1="21.731" x2="100.753" y2="22.495" stroke="#141414" stroke-width="0.4"/>
<line x1="100.753" y1="22.495" x2="102.194" y2="20.688" stroke="#141414" stroke-width="0.4"/>
<line x1="102.194" y1="20.688" x2="100.617" y2="17.213" stroke="#141414" stroke-width="0.4"/>
<line x1="94.471" y1="69.367" x2="95.01" y2="72.816" stroke="#141414" stroke-width="0.4"/>
<line x1="95.01" y1="72.816" x2="98.689" y2="73.087" stroke="#141414" stroke-width="0.4"/>
<line x1="98.689" y1="73.087" x2="99.727" y2="69.754" stroke="#141414" stroke-width="0.4"/>
<line x1="100.617" y1="17.213" x2="103.739" y2="15.612" stroke="#141414" stroke-width="0.4"/>
<line x1="103.739" y1="15.612" x2="102.839" y2="11.668" stroke="#141414" stroke-width="0.4"/>
<line x1="102.839" y1="11.668" x2="99.331" y2="11.58" stroke="#141414" stroke-width="0.4"/>
<line x1="99.331" y1="11.58" x2="100.025" y2="8.141" stroke="#141414" stroke-width="0.4"/>
<line x1="100.025" y1="8.141" x2="96.381" y2="6.386" stroke="#141414" stroke-width="0.4"/>
<line x1="96.381" y1="6.386" x2="94.125" y2="9.073" stroke="#141414" stroke-width="0.4"/>
<line x1="99.727" y1="69.754" x2="99.807" y2="72.503" stroke="#141414" stroke-width="0.4"/>
<line x1="99.807" y1="72.503" x2="102.451" y2="72.99" stroke="#141414" stroke-width="0.4"/>
<line x1="102.451" y1="72.99" x2="103.505" y2="70.45" stroke="#141414" stroke-width="0.4"/>
<line x1="114.177" y1="23.977" x2="119.398" y2="32.515" stroke="#141414" stroke-width="0.4"/>
<line x1="119.398" y1="32.515" x2="111.928" y2="65.046" stroke="#141414" stroke-width="0.4"/>
<line x1="111.928" y1="65.046" x2="103.505" y2="70.45" stroke="#141414" stroke-width="0.4"/>
<line x1="94.125" y1="9.073" x2="91.869" y2="6.386" stroke="#141414" stroke-width="0.4"/>
<line x1="91.869" y1="6.386" x2="88.225" y2="8.141" stroke="#141414" stroke-width="0.4"/>
<line x1="88.225" y1="8.141" x2="88.919" y2="11.58" stroke="#141414" stroke-width="0.4"/>
<line x1="84.587" y1="70.458" x2="85.371" y2="72.3" stroke="#141414" stroke-width="0.4"/>
<line x1="85.371" y1="72.3" x2="87.292" y2="71.928" stroke="#141414" stroke-width="0.4"/>
<line x1="87.292" y1="71.928" x2="87.332" y2="69.927" stroke="#141414" stroke-width="0.4"/>
<line x1="88.919" y1="11.58" x2="85.412" y2="11.669" stroke="#141414" stroke-width="0.4"/>
<line x1="85.412" y1="11.669" x2="84.512" y2="15.611" stroke="#141414" stroke-width="0.4"/>
<line x1="84.512" y1="15.611" x2="87.634" y2="17.213" stroke="#141414" stroke-width="0.4"/>
<line x1="87.332" y1="69.927" x2="87.254" y2="71.778" stroke="#141414" stroke-width="0.4"/>
<line x1="87.254" y1="71.778" x2="89.251" y2="71.519" stroke="#141414" stroke-width="0.4"/>
<line x1="89.251" y1="71.519" x2="90.105" y2="69.568" stroke="#141414" stroke-width="0.4"/>
<circle cx="88.106" cy="20.532" r="0.80" fill="#ffe082" stroke="#464646" stroke-width="0.2"/>
<text x="88.106" y="20.81" font-size="0.79" text-anchor="middle" fill="#141414">69</text>
<circle cx="100.145" cy="20.532" r="0.80" fill="#ffe082" stroke="#464646" stroke-width="0.2"/>
<text x="100.145" y="20.81" font-size="0.79" text-anchor="middle" fill="#141414">70</text>
<circle cx="96.974" cy="71.256" r="0.80" fill="#ffe082" stroke="#464646" stroke-width="0.2"/>
<text x="96.974" y="71.53" font-size="0.79" text-anchor="middle" fill="#141414">71</text>
<circle cx="101.631" cy="14.018" r="0.80" fill="#ffe082" stroke="#464646" stroke-width="0.2"/>
<text x="101.631" y="14.29" font-size="0.79" text-anchor="middle" fill="#141414">72</text>
<circle cx="97.466" cy="8.795" r="0.80" fill="#ffe082" stroke="#464646" stroke-width="0.2"/>
<text x="97.466" y="9.07" font-size="0.79" text-anchor="middle" fill="#141414">73</text>
<circle cx="101.372" cy="71.424" r="0.80" fill="#ffe082" stroke="#464646" stroke-width="0.2"/>
<text x="101.372" y="71.70" font-size="0.79" text-anchor="middle" fill="#141414">74</text>
<circle cx="112.252" cy="47.997" r="0.80" fill="#ffe082" stroke="#464646" stroke-width="0.2"/>
<text x="112.252" y="48.27" font-size="0.79" text-anchor="middle" fill="#141414">75</text>
<circle cx="90.785" cy="8.795" r="0.80" fill="#ffe082" stroke="#464646" stroke-width="0.2"/>
<text x="90.785" y="9.07" font-size="0.79" text-anchor="middle" fill="#141414">76</text>
<circle cx="86.146" cy="71.154" r="0.80" fill="#ffe082" stroke="#464646" stroke-width="0.2"/>
<text x="86.146" y="71.43" font-size="0.79" text-anchor="middle" fill="#141414">77</text>
<circle cx="86.619" cy="14.018" r="0.80" fill="#ffe082" stroke="#464646" stroke-width="0.2"/>
<text x="86.619" y="14.29" font-size="0.79" text-anchor="middle" fill="#141414">78</text>
<circle cx="88.486" cy="70.698" r="0.80" fill="#ffe082" stroke="#464646" stroke-width="0.2"/>
<text x="88.486" y="70.97" font-size="0.79" text-anchor="middle" fill="#141414">79</text>
<circle cx="96.733" cy="79.349" r="4.6" fill="#eaf1fe" stroke="#2e78e6" stroke-width="0.3"/>
<text x="96.733" y="81.149" font-size="5.2" text-anchor="middle" fill="#14306e" font-weight="bold">3</text>
<polygon points="139.567,21.731 135.828,22.495 134.387,20.688 135.964,17.213" fill="rgb(216,216,216)"/>
<polygon points="145.345,21.731 149.084,22.495 150.525,20.688 148.948,17.213" fill="rgb(216,216,216)"/>
<polygon points="142.802,69.367 143.341,72.816 147.02,73.087 148.058,69.754" fill="rgb(216,216,216)"/>
<polygon points="148.948,17.213 152.07,15.612 151.169,11.668 147.662,11.58" fill="rgb(216,216,216)"/>
<polygon points="147.662,11.58 148.356,8.141 144.712,6.386 142.456,9.073" fill="rgb(216,216,216)"/>
<polygon points="148.058,69.754 148.137,72.503 150.782,72.99 151.835,70.45" fill="rgb(216,216,216)"/>
<polygon points="162.508,23.977 167.729,32.515 160.259,65.046 151.835,70.45" fill="rgb(216,216,216)"/>
<polygon points="142.456,9.073 140.2,6.386 136.556,8.141 137.25,11.58" fill="rgb(216,216,216)"/>
<polygon points="132.918,70.458 133.702,72.3 135.623,71.928 135.663,69.927" fill="rgb(216,216,216)"/>
<polygon points="137.25,11.58 133.743,11.669 132.843,15.611 135.964,17.213" fill="rgb(216,216,216)"/>
<polygon points="135.663,69.927 135.585,71.778 137.582,71.519 138.436,69.568" fill="rgb(216,216,216)"/>
<line x1="139.567" y1="21.731" x2="145.345" y2="21.731" stroke="#8c8c8c" stroke-width="0.3" stroke-dasharray="1.2,0.8"/>
<line x1="142.802" y1="69.367" x2="139.567" y2="21.731" stroke="#8c8c8c" stroke-width="0.3" stroke-dasharray="1.2,0.8"/>
<line x1="139.567" y1="21.731" x2="138.436" y2="69.569" stroke="#8c8c8c" stroke-width="0.3" stroke-dasharray="1.2,0.8"/>
<line x1="145.345" y1="21.731" x2="142.802" y2="69.367" stroke="#8c8c8c" stroke-width="0.3" stroke-dasharray="1.2,0.8"/>
<line x1="151.111" y1="22.097" x2="142.802" y2="69.367" stroke="#8c8c8c" stroke-width="0.3" stroke-dasharray="1.2,0.8"/>
<line x1="138.436" y1="69.569" x2="142.802" y2="69.367" stroke="#8c8c8c" stroke-width="0.3" stroke-dasharray="1.2,0.8"/>
<line x1="151.111" y1="22.097" x2="148.058" y2="69.754" stroke="#8c8c8c" stroke-width="0.3" stroke-dasharray="1.2,0.8"/>
<line x1="156.839" y1="22.856" x2="148.058" y2="69.754" stroke="#8c8c8c" stroke-width="0.3" stroke-dasharray="1.2,0.8"/>
<line x1="128.071" y1="22.853" x2="135.663" y2="69.927" stroke="#8c8c8c" stroke-width="0.3" stroke-dasharray="1.2,0.8"/>
<line x1="133.802" y1="22.112" x2="138.436" y2="69.569" stroke="#8c8c8c" stroke-width="0.3" stroke-dasharray="1.2,0.8"/>
<line x1="162.508" y1="23.977" x2="148.058" y2="69.754" stroke="#8c8c8c" stroke-width="0.3" stroke-dasharray="1.2,0.8"/>
<line x1="135.964" y1="17.213" x2="139.567" y2="21.731" stroke="#8c8c8c" stroke-width="0.3" stroke-dasharray="1.2,0.8"/>
<line x1="148.948" y1="17.213" x2="145.345" y2="21.731" stroke="#8c8c8c" stroke-width="0.3" stroke-dasharray="1.2,0.8"/>
<line x1="148.058" y1="69.754" x2="142.802" y2="69.367" stroke="#8c8c8c" stroke-width="0.3" stroke-dasharray="1.2,0.8"/>
<line x1="147.662" y1="11.58" x2="148.948" y2="17.213" stroke="#8c8c8c" stroke-width="0.3" stroke-dasharray="1.2,0.8"/>
<line x1="142.456" y1="9.073" x2="147.662" y2="11.58" stroke="#8c8c8c" stroke-width="0.3" stroke-dasharray="1.2,0.8"/>
<line x1="151.835" y1="70.45" x2="148.058" y2="69.754" stroke="#8c8c8c" stroke-width="0.3" stroke-dasharray="1.2,0.8"/>
<line x1="151.835" y1="70.45" x2="162.508" y2="23.977" stroke="#8c8c8c" stroke-width="0.3" stroke-dasharray="1.2,0.8"/>
<line x1="137.25" y1="11.58" x2="142.456" y2="9.073" stroke="#8c8c8c" stroke-width="0.3" stroke-dasharray="1.2,0.8"/>
<line x1="135.663" y1="69.927" x2="132.918" y2="70.458" stroke="#8c8c8c" stroke-width="0.3" stroke-dasharray="1.2,0.8"/>
<line x1="135.964" y1="17.213" x2="137.25" y2="11.58" stroke="#8c8c8c" stroke-width="0.3" stroke-dasharray="1.2,0.8"/>
<line x1="138.436" y1="69.568" x2="135.663" y2="69.927" stroke="#8c8c8c" stroke-width="0.3" stroke-dasharray="1.2,0.8"/>
<line x1="133.802" y1="22.112" x2="139.567" y2="21.731" stroke="#141414" stroke-width="0.4"/>
<line x1="145.345" y1="21.731" x2="151.111" y2="22.097" stroke="#141414" stroke-width="0.4"/>
<line x1="142.802" y1="69.367" x2="142.639" y2="74.634" stroke="#141414" stroke-width="0.4"/>
<line x1="151.111" y1="22.097" x2="156.839" y2="22.856" stroke="#141414" stroke-width="0.4"/>
<line x1="156.839" y1="22.856" x2="162.508" y2="23.977" stroke="#141414" stroke-width="0.4"/>
<line x1="142.639" y1="74.634" x2="138.798" y2="74.593" stroke="#141414" stroke-width="0.4"/>
<line x1="132.918" y1="70.458" x2="122.398" y2="23.951" stroke="#141414" stroke-width="0.4"/>
<line x1="122.398" y1="23.951" x2="128.071" y2="22.853" stroke="#141414" stroke-width="0.4"/>
<line x1="138.798" y1="74.593" x2="137.407" y2="72.168" stroke="#141414" stroke-width="0.4"/>
<line x1="128.071" y1="22.853" x2="133.802" y2="22.112" stroke="#141414" stroke-width="0.4"/>
<line x1="137.407" y1="72.168" x2="138.436" y2="69.569" stroke="#141414" stroke-width="0.4"/>
<line x1="139.567" y1="21.731" x2="135.828" y2="22.495" stroke="#141414" stroke-width="0.4"/>
<line x1="135.828" y1="22.495" x2="134.387" y2="20.688" stroke="#141414" stroke-width="0.4"/>
<line x1="134.387" y1="20.688" x2="135.964" y2="17.213" stroke="#141414" stroke-width="0.4"/>
<line x1="145.345" y1="21.731" x2="149.084" y2="22.495" stroke="#141414" stroke-width="0.4"/>
<line x1="149.084" y1="22.495" x2="150.525" y2="20.688" stroke="#141414" stroke-width="0.4"/>
<line x1="150.525" y1="20.688" x2="148.948" y2="17.213" stroke="#141414" stroke-width="0.4"/>
<line x1="142.802" y1="69.367" x2="143.341" y2="72.816" stroke="#141414" stroke-width="0.4"/>
<line x1="143.341" y1="72.816" x2="147.02" y2="73.087" stroke="#141414" stroke-width="0.4"/>
<line x1="147.02" y1="73.087" x2="148.058" y2="69.754" stroke="#141414" stroke-width="0.4"/>
<line x1="148.948" y1="17.213" x2="152.07" y2="15.612" stroke="#141414" stroke-width="0.4"/>
<line x1="152.07" y1="15.612" x2="151.169" y2="11.668" stroke="#141414" stroke-width="0.4"/>
<line x1="151.169" y1="11.668" x2="147.662" y2="11.58" stroke="#141414" stroke-width="0.4"/>
<line x1="147.662" y1="11.58" x2="148.356" y2="8.141" stroke="#141414" stroke-width="0.4"/>
<line x1="148.356" y1="8.141" x2="144.712" y2="6.386" stroke="#141414" stroke-width="0.4"/>
<line x1="144.712" y1="6.386" x2="142.456" y2="9.073" stroke="#141414" stroke-width="0.4"/>
<line x1="148.058" y1="69.754" x2="148.137" y2="72.503" stroke="#141414" stroke-width="0.4"/>
<line x1="148.137" y1="72.503" x2="150.782" y2="72.99" stroke="#141414" stroke-width="0.4"/>
<line x1="150.782" y1="72.99" x2="151.835" y2="70.45" stroke="#141414" stroke-width="0.4"/>
<line x1="162.508" y1="23.977" x2="167.729" y2="32.515" stroke="#141414" stroke-width="0.4"/>
<line x1="167.729" y1="32.515" x2="160.259" y2="65.046" stroke="#141414" stroke-width="0.4"/>
<line x1="160.259" y1="65.046" x2="151.835" y2="70.45" stroke="#141414" stroke-width="0.4"/>
<line x1="142.456" y1="9.073" x2="140.2" y2="6.386" stroke="#141414" stroke-width="0.4"/>
<line x1="140.2" y1="6.386" x2="136.556" y2="8.141" stroke="#141414" stroke-width="0.4"/>
<line x1="136.556" y1="8.141" x2="137.25" y2="11.58" stroke="#141414" stroke-width="0.4"/>
<line x1="132.918" y1="70.458" x2="133.702" y2="72.3" stroke="#141414" stroke-width="0.4"/>
<line x1="133.702" y1="72.3" x2="135.623" y2="71.928" stroke="#141414" stroke-width="0.4"/>
<line x1="135.623" y1="71.928" x2="135.663" y2="69.927" stroke="#141414" stroke-width="0.4"/>
<line x1="137.25" y1="11.58" x2="133.743" y2="11.669" stroke="#141414" stroke-width="0.4"/>
<line x1="133.743" y1="11.669" x2="132.843" y2="15.611" stroke="#141414" stroke-width="0.4"/>
<line x1="132.843" y1="15.611" x2="135.964" y2="17.213" stroke="#141414" stroke-width="0.4"/>
<line x1="135.663" y1="69.927" x2="135.585" y2="71.778" stroke="#141414" stroke-width="0.4"/>
<line x1="135.585" y1="71.778" x2="137.582" y2="71.519" stroke="#141414" stroke-width="0.4"/>
<line x1="137.582" y1="71.519" x2="138.436" y2="69.568" stroke="#141414" stroke-width="0.4"/>
<circle cx="136.437" cy="20.532" r="0.80" fill="#ffe082" stroke="#464646" stroke-width="0.2"/>
<text x="136.437" y="20.81" font-size="0.79" text-anchor="middle" fill="#141414">80</text>
<circle cx="148.475" cy="20.532" r="0.80" fill="#ffe082" stroke="#464646" stroke-width="0.2"/>
<text x="148.475" y="20.81" font-size="0.79" text-anchor="middle" fill="#141414">81</text>
<circle cx="145.305" cy="71.256" r="0.80" fill="#ffe082" stroke="#464646" stroke-width="0.2"/>
<text x="145.305" y="71.53" font-size="0.79" text-anchor="middle" fill="#141414">82</text>
<circle cx="149.962" cy="14.018" r="0.80" fill="#ffe082" stroke="#464646" stroke-width="0.2"/>
<text x="149.962" y="14.29" font-size="0.79" text-anchor="middle" fill="#141414">83</text>
<circle cx="145.797" cy="8.795" r="0.80" fill="#ffe082" stroke="#464646" stroke-width="0.2"/>
<text x="145.797" y="9.07" font-size="0.79" text-anchor="middle" fill="#141414">84</text>
<circle cx="149.703" cy="71.424" r="0.80" fill="#ffe082" stroke="#464646" stroke-width="0.2"/>
<text x="149.703" y="71.70" font-size="0.79" text-anchor="middle" fill="#141414">85</text>
<circle cx="160.583" cy="47.997" r="0.80" fill="#ffe082" stroke="#464646" stroke-width="0.2"/>
<text x="160.583" y="48.27" font-size="0.79" text-anchor="middle" fill="#141414">86</text>
<circle cx="139.116" cy="8.795" r="0.80" fill="#ffe082" stroke="#464646" stroke-width="0.2"/>
<text x="139.116" y="9.07" font-size="0.79" text-anchor="middle" fill="#141414">87</text>
<circle cx="134.476" cy="71.154" r="0.80" fill="#ffe082" stroke="#464646" stroke-width="0.2"/>
<text x="134.476" y="71.43" font-size="0.79" text-anchor="middle" fill="#141414">88</text>
<circle cx="134.95" cy="14.018" r="0.80" fill="#ffe082" stroke="#464646" stroke-width="0.2"/>
<text x="134.95" y="14.29" font-size="0.79" text-anchor="middle" fill="#141414">89</text>
<circle cx="136.816" cy="70.698" r="0.80" fill="#ffe082" stroke="#464646" stroke-width="0.2"/>
<text x="136.816" y="70.97" font-size="0.79" text-anchor="middle" fill="#141414">90</text>
<circle cx="145.064" cy="79.349" r="4.6" fill="#eaf1fe" stroke="#2e78e6" stroke-width="0.3"/>
<text x="145.064" y="81.149" font-size="5.2" text-anchor="middle" fill="#14306e" font-weight="bold">4</text>
<polygon points="183.269,21.641 180.674,18.044 179.592,17.965 176.506,21.15" fill="rgb(216,216,216)"/>
<polygon points="180.553,26.591 176.125,26.335 175.477,25.465 176.506,21.15" fill="rgb(216,216,216)"/>
<polygon points="190.628,15.866 187.751,12.491 187.932,11.421 191.76,9.181" fill="rgb(216,216,216)"/>
<polygon points="196.082,14.406 196.886,10.044 196.195,9.208 191.76,9.181" fill="rgb(216,216,216)"/>
<polygon points="192.621,26.288 191.532,29.889 189.41,30.206 187.316,27.082" fill="rgb(216,216,216)"/>
<polygon points="194.95,21.091 197.147,23.826 200.817,22.153 200.192,18.701" fill="rgb(216,216,216)"/>
<polygon points="192.621,26.288 193.932,22.326 193.387,21.582 189.214,21.641" fill="rgb(216,216,216)"/>
<polygon points="180.979,11.452 177.528,10.909 176.105,14.383 178.947,16.416" fill="rgb(216,216,216)"/>
<polygon points="196.868,7.671 199.743,5.661 202.797,8.296 201.231,11.434" fill="rgb(216,216,216)"/>
<polygon points="180.979,11.452 185.139,11.121 185.732,11.827 184.683,15.866" fill="rgb(216,216,216)"/>
<polygon points="201.231,11.434 204.708,13.043 203.981,18.13 200.192,18.701" fill="rgb(216,216,216)"/>
<line x1="180.553" y1="26.591" x2="183.269" y2="21.641" stroke="#8c8c8c" stroke-width="0.3" stroke-dasharray="1.2,0.8"/>
<line x1="187.316" y1="27.081" x2="183.269" y2="21.641" stroke="#8c8c8c" stroke-width="0.3" stroke-dasharray="1.2,0.8"/>
<line x1="184.683" y1="15.867" x2="183.269" y2="21.641" stroke="#8c8c8c" stroke-width="0.3" stroke-dasharray="1.2,0.8"/>
<line x1="183.269" y1="21.641" x2="189.214" y2="21.641" stroke="#8c8c8c" stroke-width="0.3" stroke-dasharray="1.2,0.8"/>
<line x1="187.316" y1="27.081" x2="180.553" y2="26.591" stroke="#8c8c8c" stroke-width="0.3" stroke-dasharray="1.2,0.8"/>
<line x1="180.553" y1="26.591" x2="176.442" y2="30.886" stroke="#8c8c8c" stroke-width="0.3" stroke-dasharray="1.2,0.8"/>
<line x1="183.747" y1="31.605" x2="180.553" y2="26.591" stroke="#8c8c8c" stroke-width="0.3" stroke-dasharray="1.2,0.8"/>
<line x1="190.628" y1="15.867" x2="196.082" y2="14.406" stroke="#8c8c8c" stroke-width="0.3" stroke-dasharray="1.2,0.8"/>
<line x1="194.95" y1="21.091" x2="190.628" y2="15.867" stroke="#8c8c8c" stroke-width="0.3" stroke-dasharray="1.2,0.8"/>
<line x1="184.683" y1="15.867" x2="190.628" y2="15.867" stroke="#8c8c8c" stroke-width="0.3" stroke-dasharray="1.2,0.8"/>
<line x1="190.628" y1="15.867" x2="189.214" y2="21.641" stroke="#8c8c8c" stroke-width="0.3" stroke-dasharray="1.2,0.8"/>
<line x1="194.95" y1="21.091" x2="196.082" y2="14.406" stroke="#8c8c8c" stroke-width="0.3" stroke-dasharray="1.2,0.8"/>
<line x1="201.231" y1="11.434" x2="196.082" y2="14.406" stroke="#8c8c8c" stroke-width="0.3" stroke-dasharray="1.2,0.8"/>
<line x1="196.082" y1="14.406" x2="200.192" y2="18.701" stroke="#8c8c8c" stroke-width="0.3" stroke-dasharray="1.2,0.8"/>
<line x1="187.316" y1="27.081" x2="183.747" y2="31.605" stroke="#8c8c8c" stroke-width="0.3" stroke-dasharray="1.2,0.8"/>
<line x1="189.214" y1="21.641" x2="187.316" y2="27.081" stroke="#8c8c8c" stroke-width="0.3" stroke-dasharray="1.2,0.8"/>
<line x1="176.442" y1="30.886" x2="173.824" y2="25.753" stroke="#8c8c8c" stroke-width="0.3" stroke-dasharray="1.2,0.8"/>
<line x1="178.947" y1="16.416" x2="184.683" y2="15.867" stroke="#8c8c8c" stroke-width="0.3" stroke-dasharray="1.2,0.8"/>
<line x1="184.683" y1="15.867" x2="189.214" y2="21.641" stroke="#8c8c8c" stroke-width="0.3" stroke-dasharray="1.2,0.8"/>
<line x1="176.506" y1="21.15" x2="183.269" y2="21.641" stroke="#8c8c8c" stroke-width="0.3" stroke-dasharray="1.2,0.8"/>
<line x1="176.506" y1="21.15" x2="180.553" y2="26.591" stroke="#8c8c8c" stroke-width="0.3" stroke-dasharray="1.2,0.8"/>
<line x1="191.76" y1="9.181" x2="190.628" y2="15.866" stroke="#8c8c8c" stroke-width="0.3" stroke-dasharray="1.2,0.8"/>
<line x1="191.76" y1="9.181" x2="196.082" y2="14.406" stroke="#8c8c8c" stroke-width="0.3" stroke-dasharray="1.2,0.8"/>
<line x1="187.316" y1="27.082" x2="192.621" y2="26.288" stroke="#8c8c8c" stroke-width="0.3" stroke-dasharray="1.2,0.8"/>
<line x1="200.192" y1="18.701" x2="194.95" y2="21.091" stroke="#8c8c8c" stroke-width="0.3" stroke-dasharray="1.2,0.8"/>
<line x1="189.214" y1="21.641" x2="192.621" y2="26.288" stroke="#8c8c8c" stroke-width="0.3" stroke-dasharray="1.2,0.8"/>
<line x1="178.947" y1="16.416" x2="180.979" y2="11.452" stroke="#8c8c8c" stroke-width="0.3" stroke-dasharray="1.2,0.8"/>
<line x1="201.231" y1="11.434" x2="196.868" y2="7.671" stroke="#8c8c8c" stroke-width="0.3" stroke-dasharray="1.2,0.8"/>
<line x1="184.683" y1="15.866" x2="180.979" y2="11.452" stroke="#8c8c8c" stroke-width="0.3" stroke-dasharray="1.2,0.8"/>
<line x1="200.192" y1="18.701" x2="201.231" y2="11.434" stroke="#8c8c8c" stroke-width="0.3" stroke-dasharray="1.2,0.8"/>
<line x1="183.269" y1="21.641" x2="178.947" y2="16.416" stroke="#141414" stroke-width="0.4"/>
<line x1="173.824" y1="25.753" x2="180.553" y2="26.591" stroke="#141414" stroke-width="0.4"/>
<line x1="186.581" y1="10.426" x2="190.628" y2="15.867" stroke="#141414" stroke-width="0.4"/>
<line x1="196.082" y1="14.406" x2="196.868" y2="7.671" stroke="#141414" stroke-width="0.4"/>
<line x1="187.316" y1="27.081" x2="189.496" y2="31.982" stroke="#141414" stroke-width="0.4"/>
<line x1="189.496" y1="31.982" x2="183.747" y2="31.605" stroke="#141414" stroke-width="0.4"/>
<line x1="194.95" y1="21.091" x2="189.214" y2="21.641" stroke="#141414" stroke-width="0.4"/>
<line x1="170.729" y1="30.134" x2="173.824" y2="25.753" stroke="#141414" stroke-width="0.4"/>
<line x1="176.442" y1="30.886" x2="170.729" y2="30.134" stroke="#141414" stroke-width="0.4"/>
<line x1="184.683" y1="15.867" x2="186.581" y2="10.426" stroke="#141414" stroke-width="0.4"/>
<line x1="183.747" y1="31.605" x2="176.442" y2="30.886" stroke="#141414" stroke-width="0.4"/>
<line x1="183.269" y1="21.641" x2="180.674" y2="18.044" stroke="#141414" stroke-width="0.4"/>
<line x1="180.674" y1="18.044" x2="179.592" y2="17.965" stroke="#141414" stroke-width="0.4"/>
<line x1="179.592" y1="17.965" x2="176.506" y2="21.15" stroke="#141414" stroke-width="0.4"/>
<line x1="180.553" y1="26.591" x2="176.125" y2="26.335" stroke="#141414" stroke-width="0.4"/>
<line x1="176.125" y1="26.335" x2="175.477" y2="25.465" stroke="#141414" stroke-width="0.4"/>
<line x1="175.477" y1="25.465" x2="176.506" y2="21.15" stroke="#141414" stroke-width="0.4"/>
<line x1="190.628" y1="15.866" x2="187.751" y2="12.491" stroke="#141414" stroke-width="0.4"/>
<line x1="187.751" y1="12.491" x2="187.932" y2="11.421" stroke="#141414" stroke-width="0.4"/>
<line x1="187.932" y1="11.421" x2="191.76" y2="9.181" stroke="#141414" stroke-width="0.4"/>
<line x1="196.082" y1="14.406" x2="196.886" y2="10.044" stroke="#141414" stroke-width="0.4"/>
<line x1="196.886" y1="10.044" x2="196.195" y2="9.208" stroke="#141414" stroke-width="0.4"/>
<line x1="196.195" y1="9.208" x2="191.76" y2="9.181" stroke="#141414" stroke-width="0.4"/>
<line x1="192.621" y1="26.288" x2="191.532" y2="29.889" stroke="#141414" stroke-width="0.4"/>
<line x1="191.532" y1="29.889" x2="189.41" y2="30.206" stroke="#141414" stroke-width="0.4"/>
<line x1="189.41" y1="30.206" x2="187.316" y2="27.082" stroke="#141414" stroke-width="0.4"/>
<line x1="194.95" y1="21.091" x2="197.147" y2="23.826" stroke="#141414" stroke-width="0.4"/>
<line x1="197.147" y1="23.826" x2="200.817" y2="22.153" stroke="#141414" stroke-width="0.4"/>
<line x1="200.817" y1="22.153" x2="200.192" y2="18.701" stroke="#141414" stroke-width="0.4"/>
<line x1="192.621" y1="26.288" x2="193.932" y2="22.326" stroke="#141414" stroke-width="0.4"/>
<line x1="193.932" y1="22.326" x2="193.387" y2="21.582" stroke="#141414" stroke-width="0.4"/>
<line x1="193.387" y1="21.582" x2="189.214" y2="21.641" stroke="#141414" stroke-width="0.4"/>
<line x1="180.979" y1="11.452" x2="177.528" y2="10.909" stroke="#141414" stroke-width="0.4"/>
<line x1="177.528" y1="10.909" x2="176.105" y2="14.383" stroke="#141414" stroke-width="0.4"/>
<line x1="176.105" y1="14.383" x2="178.947" y2="16.416" stroke="#141414" stroke-width="0.4"/>
<line x1="196.868" y1="7.671" x2="199.743" y2="5.661" stroke="#141414" stroke-width="0.4"/>
<line x1="199.743" y1="5.661" x2="202.797" y2="8.296" stroke="#141414" stroke-width="0.4"/>
<line x1="202.797" y1="8.296" x2="201.231" y2="11.434" stroke="#141414" stroke-width="0.4"/>
<line x1="180.979" y1="11.452" x2="185.139" y2="11.121" stroke="#141414" stroke-width="0.4"/>
<line x1="185.139" y1="11.121" x2="185.732" y2="11.827" stroke="#141414" stroke-width="0.4"/>
<line x1="185.732" y1="11.827" x2="184.683" y2="15.866" stroke="#141414" stroke-width="0.4"/>
<line x1="201.231" y1="11.434" x2="204.708" y2="13.043" stroke="#141414" stroke-width="0.4"/>
<line x1="204.708" y1="13.043" x2="203.981" y2="18.13" stroke="#141414" stroke-width="0.4"/>
<line x1="203.981" y1="18.13" x2="200.192" y2="18.701" stroke="#141414" stroke-width="0.4"/>
<circle cx="180.01" cy="19.7" r="0.80" fill="#ffe082" stroke="#464646" stroke-width="0.2"/>
<text x="180.01" y="19.98" font-size="0.79" text-anchor="middle" fill="#141414">91</text>
<circle cx="177.165" cy="24.885" r="0.80" fill="#ffe082" stroke="#464646" stroke-width="0.2"/>
<text x="177.165" y="25.16" font-size="0.79" text-anchor="middle" fill="#141414">92</text>
<circle cx="189.517" cy="12.24" r="0.80" fill="#ffe082" stroke="#464646" stroke-width="0.2"/>
<text x="189.517" y="12.52" font-size="0.79" text-anchor="middle" fill="#141414">93</text>
<circle cx="195.231" cy="10.71" r="0.80" fill="#ffe082" stroke="#464646" stroke-width="0.2"/>
<text x="195.231" y="10.99" font-size="0.79" text-anchor="middle" fill="#141414">94</text>
<circle cx="190.22" cy="28.366" r="0.80" fill="#ffe082" stroke="#464646" stroke-width="0.2"/>
<text x="190.22" y="28.64" font-size="0.79" text-anchor="middle" fill="#141414">95</text>
<circle cx="198.276" cy="21.443" r="0.80" fill="#ffe082" stroke="#464646" stroke-width="0.2"/>
<text x="198.276" y="21.72" font-size="0.79" text-anchor="middle" fill="#141414">96</text>
<circle cx="192.288" cy="22.959" r="0.80" fill="#ffe082" stroke="#464646" stroke-width="0.2"/>
<text x="192.288" y="23.23" font-size="0.79" text-anchor="middle" fill="#141414">97</text>
<circle cx="178.39" cy="13.29" r="0.80" fill="#ffe082" stroke="#464646" stroke-width="0.2"/>
<text x="178.39" y="13.57" font-size="0.79" text-anchor="middle" fill="#141414">98</text>
<circle cx="200.16" cy="8.265" r="0.80" fill="#ffe082" stroke="#464646" stroke-width="0.2"/>
<text x="200.16" y="8.54" font-size="0.79" text-anchor="middle" fill="#141414">99</text>
<circle cx="184.133" cy="12.567" r="0.80" fill="#ffe082" stroke="#464646" stroke-width="0.2"/>
<text x="184.133" y="12.84" font-size="0.79" text-anchor="middle" fill="#141414">100</text>
<circle cx="202.528" cy="15.327" r="0.80" fill="#ffe082" stroke="#464646" stroke-width="0.2"/>
<text x="202.528" y="15.60" font-size="0.79" text-anchor="middle" fill="#141414">101</text>
<circle cx="187.719" cy="37.421" r="4.6" fill="#eaf1fe" stroke="#2e78e6" stroke-width="0.3"/>
<text x="187.719" y="39.221" font-size="5.2" text-anchor="middle" fill="#14306e" font-weight="bold">5</text>
</svg>
