<svg xmlns="http://www.w3.org/2000/svg" xmlns:xlink="http://www.w3.org/1999/xlink" width="210.00mm" height="297.00mm" viewBox="0 0 210.00 297.00">
<rect x="0" y="0" width="210.00" height="297.00" fill="#ffffff" stroke="#cccccc" stroke-width="0.2"/>
<polygon points="48.6,255.7 51.87,262.7 67.13,262.7 70.4,255.7" fill="rgb(216,216,216)"/>
<polygon points="48.6,141.25 51.87,134.25 67.13,134.25 70.4,141.25" fill="rgb(216,216,216)"/>
<polygon points="70.4,255.7 77.4,238.532 77.4,158.417 70.4,141.25" fill="rgb(216,216,216)"/>
<polygon points="48.6,277.5 45.33,284.5 30.07,284.5 26.8,277.5" fill="rgb(216,216,216)"/>
<polygon points="26.8,255.7 19.8,238.532 19.8,158.417 26.8,141.25" fill="rgb(216,216,216)"/>
<polygon points="26.8,255.7 19.8,258.97 19.8,274.23 26.8,277.5" fill="rgb(216,216,216)"/>
<polygon points="26.8,141.25 19.8,137.98 19.8,122.72 26.8,119.45" fill="rgb(216,216,216)"/>
<line x1="48.6" y1="255.7" x2="48.6" y2="141.25" stroke="#8c8c8c" stroke-width="0.3" stroke-dasharray="1.2,0.8"/>
<line x1="48.6" y1="255.7" x2="26.8" y2="255.7" stroke="#8c8c8c" stroke-width="0.3" stroke-dasharray="1.2,0.8"/>
<line x1="26.8" y1="141.25" x2="48.6" y2="141.25" stroke="#8c8c8c" stroke-width="0.3" stroke-dasharray="1.2,0.8"/>
<line x1="26.8" y1="119.45" x2="48.6" y2="119.45" stroke="#8c8c8c" stroke-width="0.3" stroke-dasharray="1.2,0.8"/>
<line x1="26.8" y1="119.45" x2="26.8" y2="5.0" stroke="#8c8c8c" stroke-width="0.3" stroke-dasharray="1.2,0.8"/>
<line x1="70.4" y1="255.7" x2="48.6" y2="255.7" stroke="#8c8c8c" stroke-width="0.3" stroke-dasharray="1.2,0.8"/>
<line x1="70.4" y1="141.25" x2="48.6" y2="141.25" stroke="#8c8c8c" stroke-width="0.3" stroke-dasharray="1.2,0.8"/>
<line x1="70.4" y1="141.25" x2="70.4" y2="255.7" stroke="#8c8c8c" stroke-width="0.3" stroke-dasharray="1.2,0.8"/>
<line x1="26.8" y1="277.5" x2="48.6" y2="277.5" stroke="#8c8c8c" stroke-width="0.3" stroke-dasharray="1.2,0.8"/>
<line x1="26.8" y1="141.25" x2="26.8" y2="255.7" stroke="#8c8c8c" stroke-width="0.3" stroke-dasharray="1.2,0.8"/>
<line x1="26.8" y1="277.5" x2="26.8" y2="255.7" stroke="#8c8c8c" stroke-width="0.3" stroke-dasharray="1.2,0.8"/>
<line x1="26.8" y1="119.45" x2="26.8" y2="141.25" stroke="#8c8c8c" stroke-width="0.3" stroke-dasharray="1.2,0.8"/>
<line x1="48.6" y1="255.7" x2="48.6" y2="277.5" stroke="#141414" stroke-width="0.4"/>
<line x1="48.6" y1="119.45" x2="48.6" y2="141.25" stroke="#141414" stroke-width="0.4"/>
<line x1="48.6" y1="5.0" x2="48.6" y2="119.45" stroke="#141414" stroke-width="0.4"/>
<line x1="26.8" y1="5.0" x2="48.6" y2="5.0" stroke="#141414" stroke-width="0.4"/>
<line x1="5.0" y1="119.45" x2="5.0" y2="5.0" stroke="#141414" stroke-width="0.4"/>
<line x1="5.0" y1="5.0" x2="26.8" y2="5.0" stroke="#141414" stroke-width="0.4"/>
<line x1="26.8" y1="119.45" x2="5.0" y2="119.45" stroke="#141414" stroke-width="0.4"/>
<line x1="48.6" y1="255.7" x2="51.87" y2="262.7" stroke="#141414" stroke-width="0.4"/>
<line x1="51.87" y1="262.7" x2="67.13" y2="262.7" stroke="#141414" stroke-width="0.4"/>
<line x1="67.13" y1="262.7" x2="70.4" y2="255.7" stroke="#141414" stroke-width="0.4"/>
<line x1="48.6" y1="141.25" x2="51.87" y2="134.25" stroke="#141414" stroke-width="0.4"/>
<line x1="51.87" y1="134.25" x2="67.13" y2="134.25" stroke="#141414" stroke-width="0.4"/>
<line x1="67.13" y1="134.25" x2="70.4" y2="141.25" stroke="#141414" stroke-width="0.4"/>
<line x1="70.4" y1="255.7" x2="77.4" y2="238.532" stroke="#141414" stroke-width="0.4"/>
<line x1="77.4" y1="238.532" x2="77.4" y2="158.417" stroke="#141414" stroke-width="0.4"/>
<line x1="77.4" y1="158.417" x2="70.4" y2="141.25" stroke="#141414" stroke-width="0.4"/>
<line x1="48.6" y1="277.5" x2="45.33" y2="284.5" stroke="#141414" stroke-width="0.4"/>
<line x1="45.33" y1="284.5" x2="30.07" y2="284.5" stroke="#141414" stroke-width="0.4"/>
<line x1="30.07" y1="284.5" x2="26.8" y2="277.5" stroke="#141414" stroke-width="0.4"/>
<line x1="26.8" y1="255.7" x2="19.8" y2="238.532" stroke="#141414" stroke-width="0.4"/>
<line x1="19.8" y1="238.532" x2="19.8" y2="158.417" stroke="#141414" stroke-width="0.4"/>
<line x1="19.8" y1="158.417" x2="26.8" y2="141.25" stroke="#141414" stroke-width="0.4"/>
<line x1="26.8" y1="255.7" x2="19.8" y2="258.97" stroke="#141414" stroke-width="0.4"/>
<line x1="19.8" y1="258.97" x2="19.8" y2="274.23" stroke="#141414" stroke-width="0.4"/>
<line x1="19.8" y1="274.23" x2="26.8" y2="277.5" stroke="#141414" stroke-width="0.4"/>
<line x1="26.8" y1="141.25" x2="19.8" y2="137.98" stroke="#141414" stroke-width="0.4"/>
<line x1="19.8" y1="137.98" x2="19.8" y2="122.72" stroke="#141414" stroke-width="0.4"/>
<line x1="19.8" y1="122.72" x2="26.8" y2="119.45" stroke="#141414" stroke-width="0.4"/>
<circle cx="59.5" cy="259.2" r="3.08" fill="#ffe082" stroke="#464646" stroke-width="0.2"/>
<text x="59.5" y="260.66" font-size="4.18" text-anchor="middle" fill="#141414">16</text>
<circle cx="59.5" cy="137.75" r="3.08" fill="#ffe082" stroke="#464646" stroke-width="0.2"/>
<text x="59.5" y="139.21" font-size="4.18" text-anchor="middle" fill="#141414">17</text>
<circle cx="73.9" cy="198.475" r="3.08" fill="#ffe082" stroke="#464646" stroke-width="0.2"/>
<text x="73.9" y="199.94" font-size="4.18" text-anchor="middle" fill="#141414">18</text>
<circle cx="37.7" cy="281.0" r="3.08" fill="#ffe082" stroke="#464646" stroke-width="0.2"/>
<text x="37.7" y="282.46" font-size="4.18" text-anchor="middle" fill="#141414">19</text>
<circle cx="23.3" cy="198.475" r="3.08" fill="#ffe082" stroke="#464646" stroke-width="0.2"/>
<text x="23.3" y="199.94" font-size="4.18" text-anchor="middle" fill="#141414">20</text>
<circle cx="23.3" cy="266.6" r="3.08" fill="#ffe082" stroke="#464646" stroke-width="0.2"/>
<text x="23.3" y="268.06" font-size="4.18" text-anchor="middle" fill="#141414">21</text>
<circle cx="23.3" cy="130.35" r="3.08" fill="#ffe082" stroke="#464646" stroke-width="0.2"/>
<text x="23.3" y="131.81" font-size="4.18" text-anchor="middle" fill="#141414">22</text>
<circle cx="41.2" cy="144.75" r="4.6" fill="#eaf1fe" stroke="#2e78e6" stroke-width="0.3"/>
<text x="41.2" y="146.55" font-size="5.2" text-anchor="middle" fill="#14306e" font-weight="bold">4</text>
<g pointer-events="none"><text x="105.0" y="89.1" text-anchor="middle" font-family="sans-serif" font-size="21.2" fill="#9aa0a6" fill-opacity="0.33" transform="rotate(-28 105.0 89.1)">papercraft.kr 미리보기</text><text x="105.0" y="163.4" text-anchor="middle" font-family="sans-serif" font-size="21.2" fill="#9aa0a6" fill-opacity="0.33" transform="rotate(-28 105.0 163.4)">papercraft.kr 미리보기</text><text x="105.0" y="237.6" text-anchor="middle" font-family="sans-serif" font-size="21.2" fill="#9aa0a6" fill-opacity="0.33" transform="rotate(-28 105.0 237.6)">papercraft.kr 미리보기</text></g></svg>
