<svg xmlns="http://www.w3.org/2000/svg" xmlns:xlink="http://www.w3.org/1999/xlink" width="210.00mm" height="297.00mm" viewBox="0 0 210.00 297.00">
<rect x="0" y="0" width="210.00" height="297.00" fill="#ffffff" stroke="#cccccc" stroke-width="0.2"/>
<polygon points="179.522,157.003 160.476,162.102 74.901,153.4 57.272,144.571" fill="rgb(216,216,216)"/>
<polygon points="180.786,144.571 163.157,135.742 77.582,127.039 58.536,132.139" fill="rgb(216,216,216)"/>
<polygon points="22.897,5.0 14.068,22.629 5.365,108.204 10.465,127.25" fill="rgb(216,216,216)"/>
<line x1="57.272" y1="144.571" x2="58.536" y2="132.139" stroke="#8c8c8c" stroke-width="0.3" stroke-dasharray="1.2,0.8"/>
<line x1="58.536" y1="132.139" x2="10.465" y2="127.25" stroke="#8c8c8c" stroke-width="0.3" stroke-dasharray="1.2,0.8"/>
<line x1="57.272" y1="144.571" x2="179.522" y2="157.003" stroke="#8c8c8c" stroke-width="0.3" stroke-dasharray="1.2,0.8"/>
<line x1="58.536" y1="132.139" x2="180.786" y2="144.571" stroke="#8c8c8c" stroke-width="0.3" stroke-dasharray="1.2,0.8"/>
<line x1="10.465" y1="127.25" x2="22.897" y2="5.0" stroke="#8c8c8c" stroke-width="0.3" stroke-dasharray="1.2,0.8"/>
<line x1="180.786" y1="144.571" x2="179.522" y2="157.003" stroke="#141414" stroke-width="0.4"/>
<line x1="22.897" y1="5.0" x2="70.968" y2="9.889" stroke="#141414" stroke-width="0.4"/>
<line x1="70.968" y1="9.889" x2="58.536" y2="132.139" stroke="#141414" stroke-width="0.4"/>
<line x1="57.272" y1="144.571" x2="9.2" y2="139.682" stroke="#141414" stroke-width="0.4"/>
<line x1="9.2" y1="139.682" x2="10.465" y2="127.25" stroke="#141414" stroke-width="0.4"/>
<line x1="179.522" y1="157.003" x2="160.476" y2="162.102" stroke="#141414" stroke-width="0.4"/>
<line x1="160.476" y1="162.102" x2="74.901" y2="153.4" stroke="#141414" stroke-width="0.4"/>
<line x1="74.901" y1="153.4" x2="57.272" y2="144.571" stroke="#141414" stroke-width="0.4"/>
<line x1="180.786" y1="144.571" x2="163.157" y2="135.742" stroke="#141414" stroke-width="0.4"/>
<line x1="163.157" y1="135.742" x2="77.582" y2="127.039" stroke="#141414" stroke-width="0.4"/>
<line x1="77.582" y1="127.039" x2="58.536" y2="132.139" stroke="#141414" stroke-width="0.4"/>
<line x1="22.897" y1="5.0" x2="14.068" y2="22.629" stroke="#141414" stroke-width="0.4"/>
<line x1="14.068" y1="22.629" x2="5.365" y2="108.204" stroke="#141414" stroke-width="0.4"/>
<line x1="5.365" y1="108.204" x2="10.465" y2="127.25" stroke="#141414" stroke-width="0.4"/>
<circle cx="118.042" cy="154.269" r="1.50" fill="#ffe082" stroke="#464646" stroke-width="0.2"/>
<text x="118.042" y="154.78" font-size="1.47" text-anchor="middle" fill="#141414">20</text>
<circle cx="120.015" cy="134.873" r="1.50" fill="#ffe082" stroke="#464646" stroke-width="0.2"/>
<text x="120.015" y="135.39" font-size="1.47" text-anchor="middle" fill="#141414">21</text>
<circle cx="13.199" cy="65.771" r="1.50" fill="#ffe082" stroke="#464646" stroke-width="0.2"/>
<text x="13.199" y="66.28" font-size="1.47" text-anchor="middle" fill="#141414">22</text>
<circle cx="92.71" cy="168.202" r="4.6" fill="#eaf1fe" stroke="#2e78e6" stroke-width="0.3"/>
<text x="92.71" y="170.002" font-size="5.2" text-anchor="middle" fill="#14306e" font-weight="bold">4</text>
<polygon points="57.485,228.417 64.357,235.417 96.431,235.417 103.304,228.417" fill="rgb(216,216,216)"/>
<polygon points="57.485,219.67 64.357,212.67 96.431,212.67 103.304,219.67" fill="rgb(216,216,216)"/>
<polygon points="103.304,228.417 107.678,227.105 107.678,220.982 103.304,219.67" fill="rgb(216,216,216)"/>
<polygon points="57.485,274.237 56.485,277.637 51.819,277.637 50.82,274.237" fill="rgb(216,216,216)"/>
<polygon points="50.82,228.417 46.446,227.105 46.446,220.982 50.82,219.67" fill="rgb(216,216,216)"/>
<polygon points="50.82,228.417 43.82,235.29 43.82,267.364 50.82,274.237" fill="rgb(216,216,216)"/>
<polygon points="50.82,219.67 43.82,212.797 43.82,180.723 50.82,173.85" fill="rgb(216,216,216)"/>
<line x1="57.485" y1="228.417" x2="57.485" y2="219.67" stroke="#8c8c8c" stroke-width="0.3" stroke-dasharray="1.2,0.8"/>
<line x1="57.485" y1="228.417" x2="50.82" y2="228.417" stroke="#8c8c8c" stroke-width="0.3" stroke-dasharray="1.2,0.8"/>
<line x1="50.82" y1="219.67" x2="57.485" y2="219.67" stroke="#8c8c8c" stroke-width="0.3" stroke-dasharray="1.2,0.8"/>
<line x1="50.82" y1="173.85" x2="57.485" y2="173.85" stroke="#8c8c8c" stroke-width="0.3" stroke-dasharray="1.2,0.8"/>
<line x1="50.82" y1="173.85" x2="50.82" y2="165.102" stroke="#8c8c8c" stroke-width="0.3" stroke-dasharray="1.2,0.8"/>
<line x1="103.304" y1="228.417" x2="57.485" y2="228.417" stroke="#8c8c8c" stroke-width="0.3" stroke-dasharray="1.2,0.8"/>
<line x1="103.304" y1="219.67" x2="57.485" y2="219.67" stroke="#8c8c8c" stroke-width="0.3" stroke-dasharray="1.2,0.8"/>
<line x1="103.304" y1="219.67" x2="103.304" y2="228.417" stroke="#8c8c8c" stroke-width="0.3" stroke-dasharray="1.2,0.8"/>
<line x1="50.82" y1="274.237" x2="57.485" y2="274.237" stroke="#8c8c8c" stroke-width="0.3" stroke-dasharray="1.2,0.8"/>
<line x1="50.82" y1="219.67" x2="50.82" y2="228.417" stroke="#8c8c8c" stroke-width="0.3" stroke-dasharray="1.2,0.8"/>
<line x1="50.82" y1="274.237" x2="50.82" y2="228.417" stroke="#8c8c8c" stroke-width="0.3" stroke-dasharray="1.2,0.8"/>
<line x1="50.82" y1="173.85" x2="50.82" y2="219.67" stroke="#8c8c8c" stroke-width="0.3" stroke-dasharray="1.2,0.8"/>
<line x1="57.485" y1="228.417" x2="57.485" y2="274.237" stroke="#141414" stroke-width="0.4"/>
<line x1="57.485" y1="173.85" x2="57.485" y2="219.67" stroke="#141414" stroke-width="0.4"/>
<line x1="57.485" y1="165.102" x2="57.485" y2="173.85" stroke="#141414" stroke-width="0.4"/>
<line x1="50.82" y1="165.102" x2="57.485" y2="165.102" stroke="#141414" stroke-width="0.4"/>
<line x1="5.0" y1="173.85" x2="5.0" y2="165.102" stroke="#141414" stroke-width="0.4"/>
<line x1="5.0" y1="165.102" x2="50.82" y2="165.102" stroke="#141414" stroke-width="0.4"/>
<line x1="50.82" y1="173.85" x2="5.0" y2="173.85" stroke="#141414" stroke-width="0.4"/>
<line x1="57.485" y1="228.417" x2="64.357" y2="235.417" stroke="#141414" stroke-width="0.4"/>
<line x1="64.357" y1="235.417" x2="96.431" y2="235.417" stroke="#141414" stroke-width="0.4"/>
<line x1="96.431" y1="235.417" x2="103.304" y2="228.417" stroke="#141414" stroke-width="0.4"/>
<line x1="57.485" y1="219.67" x2="64.357" y2="212.67" stroke="#141414" stroke-width="0.4"/>
<line x1="64.357" y1="212.67" x2="96.431" y2="212.67" stroke="#141414" stroke-width="0.4"/>
<line x1="96.431" y1="212.67" x2="103.304" y2="219.67" stroke="#141414" stroke-width="0.4"/>
<line x1="103.304" y1="228.417" x2="107.678" y2="227.105" stroke="#141414" stroke-width="0.4"/>
<line x1="107.678" y1="227.105" x2="107.678" y2="220.982" stroke="#141414" stroke-width="0.4"/>
<line x1="107.678" y1="220.982" x2="103.304" y2="219.67" stroke="#141414" stroke-width="0.4"/>
<line x1="57.485" y1="274.237" x2="56.485" y2="277.637" stroke="#141414" stroke-width="0.4"/>
<line x1="56.485" y1="277.637" x2="51.819" y2="277.637" stroke="#141414" stroke-width="0.4"/>
<line x1="51.819" y1="277.637" x2="50.82" y2="274.237" stroke="#141414" stroke-width="0.4"/>
<line x1="50.82" y1="228.417" x2="46.446" y2="227.105" stroke="#141414" stroke-width="0.4"/>
<line x1="46.446" y1="227.105" x2="46.446" y2="220.982" stroke="#141414" stroke-width="0.4"/>
<line x1="46.446" y1="220.982" x2="50.82" y2="219.67" stroke="#141414" stroke-width="0.4"/>
<line x1="50.82" y1="228.417" x2="43.82" y2="235.29" stroke="#141414" stroke-width="0.4"/>
<line x1="43.82" y1="235.29" x2="43.82" y2="267.364" stroke="#141414" stroke-width="0.4"/>
<line x1="43.82" y1="267.364" x2="50.82" y2="274.237" stroke="#141414" stroke-width="0.4"/>
<line x1="50.82" y1="219.67" x2="43.82" y2="212.797" stroke="#141414" stroke-width="0.4"/>
<line x1="43.82" y1="212.797" x2="43.82" y2="180.723" stroke="#141414" stroke-width="0.4"/>
<line x1="43.82" y1="180.723" x2="50.82" y2="173.85" stroke="#141414" stroke-width="0.4"/>
<circle cx="80.395" cy="231.917" r="1.50" fill="#ffe082" stroke="#464646" stroke-width="0.2"/>
<text x="80.395" y="232.43" font-size="1.47" text-anchor="middle" fill="#141414">58</text>
<circle cx="80.395" cy="216.17" r="1.50" fill="#ffe082" stroke="#464646" stroke-width="0.2"/>
<text x="80.395" y="216.68" font-size="1.47" text-anchor="middle" fill="#141414">59</text>
<circle cx="105.491" cy="224.043" r="1.50" fill="#ffe082" stroke="#464646" stroke-width="0.2"/>
<text x="105.491" y="224.56" font-size="1.47" text-anchor="middle" fill="#141414">60</text>
<circle cx="54.152" cy="275.937" r="1.50" fill="#ffe082" stroke="#464646" stroke-width="0.2"/>
<text x="54.152" y="276.45" font-size="1.47" text-anchor="middle" fill="#141414">61</text>
<circle cx="48.633" cy="224.043" r="1.50" fill="#ffe082" stroke="#464646" stroke-width="0.2"/>
<text x="48.633" y="224.56" font-size="1.47" text-anchor="middle" fill="#141414">62</text>
<circle cx="47.32" cy="251.327" r="1.50" fill="#ffe082" stroke="#464646" stroke-width="0.2"/>
<text x="47.32" y="251.84" font-size="1.47" text-anchor="middle" fill="#141414">63</text>
<circle cx="47.32" cy="196.76" r="1.50" fill="#ffe082" stroke="#464646" stroke-width="0.2"/>
<text x="47.32" y="197.27" font-size="1.47" text-anchor="middle" fill="#141414">64</text>
<circle cx="56.339" cy="159.002" r="4.6" fill="#eaf1fe" stroke="#2e78e6" stroke-width="0.3"/>
<text x="56.339" y="160.80200000000002" font-size="5.2" text-anchor="middle" fill="#14306e" font-weight="bold">10</text>
<polygon points="116.881,204.591 112.625,208.062 115.443,214.866 120.907,214.311" fill="rgb(216,216,216)"/>
<polygon points="116.881,204.591 112.625,201.12 115.443,194.316 120.907,194.871" fill="rgb(216,216,216)"/>
<polygon points="170.483,239.326 177.034,241.395 177.678,242.951 174.509,249.046" fill="rgb(216,216,216)"/>
<polygon points="120.907,214.311 120.352,219.775 127.156,222.593 130.627,218.337" fill="rgb(216,216,216)"/>
<polygon points="166.457,229.606 169.626,223.511 168.982,221.956 162.431,219.886" fill="rgb(216,216,216)"/>
<polygon points="130.627,218.337 134.098,222.593 140.902,219.775 140.347,214.311" fill="rgb(216,216,216)"/>
<polygon points="162.431,219.886 166.687,216.415 163.868,209.612 158.404,210.167" fill="rgb(216,216,216)"/>
<polygon points="140.347,214.311 146.898,212.242 147.542,210.687 144.373,204.591" fill="rgb(216,216,216)"/>
<polygon points="158.404,210.167 162.661,206.695 159.842,199.892 154.378,200.447" fill="rgb(216,216,216)"/>
<polygon points="154.378,200.447 158.634,196.976 155.816,190.172 150.352,190.727" fill="rgb(216,216,216)"/>
<polygon points="140.347,194.871 138.277,188.32 136.722,187.676 130.627,190.845" fill="rgb(216,216,216)"/>
<polygon points="150.352,190.727 154.608,187.256 151.79,180.452 146.326,181.007" fill="rgb(216,216,216)"/>
<polygon points="130.627,190.845 127.156,186.589 120.352,189.408 120.907,194.871" fill="rgb(216,216,216)"/>
<polygon points="146.326,181.007 150.582,177.536 147.764,170.732 142.3,171.287" fill="rgb(216,216,216)"/>
<polygon points="132.294,175.432 131.723,169.807 138.727,166.906 142.3,171.287" fill="rgb(216,216,216)"/>
<line x1="170.483" y1="239.326" x2="160.477" y2="243.471" stroke="#8c8c8c" stroke-width="0.3" stroke-dasharray="1.2,0.8"/>
<line x1="166.457" y1="229.606" x2="170.483" y2="239.326" stroke="#8c8c8c" stroke-width="0.3" stroke-dasharray="1.2,0.8"/>
<line x1="156.451" y1="233.751" x2="166.457" y2="229.606" stroke="#8c8c8c" stroke-width="0.3" stroke-dasharray="1.2,0.8"/>
<line x1="152.425" y1="224.031" x2="162.431" y2="219.886" stroke="#8c8c8c" stroke-width="0.3" stroke-dasharray="1.2,0.8"/>
<line x1="148.399" y1="214.311" x2="158.405" y2="210.167" stroke="#8c8c8c" stroke-width="0.3" stroke-dasharray="1.2,0.8"/>
<line x1="144.373" y1="204.591" x2="154.378" y2="200.447" stroke="#8c8c8c" stroke-width="0.3" stroke-dasharray="1.2,0.8"/>
<line x1="140.347" y1="194.871" x2="144.373" y2="204.591" stroke="#8c8c8c" stroke-width="0.3" stroke-dasharray="1.2,0.8"/>
<line x1="140.347" y1="194.871" x2="150.352" y2="190.727" stroke="#8c8c8c" stroke-width="0.3" stroke-dasharray="1.2,0.8"/>
<line x1="136.32" y1="185.151" x2="146.326" y2="181.007" stroke="#8c8c8c" stroke-width="0.3" stroke-dasharray="1.2,0.8"/>
<line x1="120.907" y1="214.311" x2="116.881" y2="204.591" stroke="#8c8c8c" stroke-width="0.3" stroke-dasharray="1.2,0.8"/>
<line x1="120.907" y1="194.871" x2="116.881" y2="204.591" stroke="#8c8c8c" stroke-width="0.3" stroke-dasharray="1.2,0.8"/>
<line x1="174.509" y1="249.046" x2="170.483" y2="239.326" stroke="#8c8c8c" stroke-width="0.3" stroke-dasharray="1.2,0.8"/>
<line x1="130.627" y1="218.337" x2="120.907" y2="214.311" stroke="#8c8c8c" stroke-width="0.3" stroke-dasharray="1.2,0.8"/>
<line x1="162.431" y1="219.886" x2="166.457" y2="229.606" stroke="#8c8c8c" stroke-width="0.3" stroke-dasharray="1.2,0.8"/>
<line x1="140.347" y1="214.311" x2="130.627" y2="218.337" stroke="#8c8c8c" stroke-width="0.3" stroke-dasharray="1.2,0.8"/>
<line x1="158.404" y1="210.167" x2="162.431" y2="219.886" stroke="#8c8c8c" stroke-width="0.3" stroke-dasharray="1.2,0.8"/>
<line x1="144.373" y1="204.591" x2="140.347" y2="214.311" stroke="#8c8c8c" stroke-width="0.3" stroke-dasharray="1.2,0.8"/>
<line x1="154.378" y1="200.447" x2="158.404" y2="210.167" stroke="#8c8c8c" stroke-width="0.3" stroke-dasharray="1.2,0.8"/>
<line x1="150.352" y1="190.727" x2="154.378" y2="200.447" stroke="#8c8c8c" stroke-width="0.3" stroke-dasharray="1.2,0.8"/>
<line x1="130.627" y1="190.845" x2="140.347" y2="194.871" stroke="#8c8c8c" stroke-width="0.3" stroke-dasharray="1.2,0.8"/>
<line x1="146.326" y1="181.007" x2="150.352" y2="190.727" stroke="#8c8c8c" stroke-width="0.3" stroke-dasharray="1.2,0.8"/>
<line x1="120.907" y1="194.871" x2="130.627" y2="190.845" stroke="#8c8c8c" stroke-width="0.3" stroke-dasharray="1.2,0.8"/>
<line x1="142.3" y1="171.287" x2="146.326" y2="181.007" stroke="#8c8c8c" stroke-width="0.3" stroke-dasharray="1.2,0.8"/>
<line x1="142.3" y1="171.287" x2="132.294" y2="175.432" stroke="#8c8c8c" stroke-width="0.3" stroke-dasharray="1.2,0.8"/>
<line x1="160.477" y1="243.471" x2="156.451" y2="233.751" stroke="#141414" stroke-width="0.4"/>
<line x1="164.503" y1="253.191" x2="160.477" y2="243.471" stroke="#141414" stroke-width="0.4"/>
<line x1="180.203" y1="243.352" x2="170.483" y2="239.326" stroke="#141414" stroke-width="0.4"/>
<line x1="156.451" y1="233.751" x2="152.425" y2="224.031" stroke="#141414" stroke-width="0.4"/>
<line x1="166.457" y1="229.606" x2="170.483" y2="219.886" stroke="#141414" stroke-width="0.4"/>
<line x1="152.425" y1="224.031" x2="148.399" y2="214.311" stroke="#141414" stroke-width="0.4"/>
<line x1="170.483" y1="219.886" x2="180.203" y2="215.86" stroke="#141414" stroke-width="0.4"/>
<line x1="148.399" y1="214.311" x2="144.373" y2="204.591" stroke="#141414" stroke-width="0.4"/>
<line x1="180.203" y1="215.86" x2="189.923" y2="219.886" stroke="#141414" stroke-width="0.4"/>
<line x1="189.923" y1="219.886" x2="193.949" y2="229.606" stroke="#141414" stroke-width="0.4"/>
<line x1="140.347" y1="194.871" x2="136.32" y2="185.151" stroke="#141414" stroke-width="0.4"/>
<line x1="193.949" y1="229.606" x2="189.923" y2="239.326" stroke="#141414" stroke-width="0.4"/>
<line x1="136.32" y1="185.151" x2="132.294" y2="175.432" stroke="#141414" stroke-width="0.4"/>
<line x1="189.923" y1="239.326" x2="180.203" y2="243.352" stroke="#141414" stroke-width="0.4"/>
<line x1="174.509" y1="249.046" x2="164.503" y2="253.191" stroke="#141414" stroke-width="0.4"/>
<line x1="116.881" y1="204.591" x2="112.625" y2="208.062" stroke="#141414" stroke-width="0.4"/>
<line x1="112.625" y1="208.062" x2="115.443" y2="214.866" stroke="#141414" stroke-width="0.4"/>
<line x1="115.443" y1="214.866" x2="120.907" y2="214.311" stroke="#141414" stroke-width="0.4"/>
<line x1="116.881" y1="204.591" x2="112.625" y2="201.12" stroke="#141414" stroke-width="0.4"/>
<line x1="112.625" y1="201.12" x2="115.443" y2="194.316" stroke="#141414" stroke-width="0.4"/>
<line x1="115.443" y1="194.316" x2="120.907" y2="194.871" stroke="#141414" stroke-width="0.4"/>
<line x1="170.483" y1="239.326" x2="177.034" y2="241.395" stroke="#141414" stroke-width="0.4"/>
<line x1="177.034" y1="241.395" x2="177.678" y2="242.951" stroke="#141414" stroke-width="0.4"/>
<line x1="177.678" y1="242.951" x2="174.509" y2="249.046" stroke="#141414" stroke-width="0.4"/>
<line x1="120.907" y1="214.311" x2="120.352" y2="219.775" stroke="#141414" stroke-width="0.4"/>
<line x1="120.352" y1="219.775" x2="127.156" y2="222.593" stroke="#141414" stroke-width="0.4"/>
<line x1="127.156" y1="222.593" x2="130.627" y2="218.337" stroke="#141414" stroke-width="0.4"/>
<line x1="166.457" y1="229.606" x2="169.626" y2="223.511" stroke="#141414" stroke-width="0.4"/>
<line x1="169.626" y1="223.511" x2="168.982" y2="221.956" stroke="#141414" stroke-width="0.4"/>
<line x1="168.982" y1="221.956" x2="162.431" y2="219.886" stroke="#141414" stroke-width="0.4"/>
<line x1="130.627" y1="218.337" x2="134.098" y2="222.593" stroke="#141414" stroke-width="0.4"/>
<line x1="134.098" y1="222.593" x2="140.902" y2="219.775" stroke="#141414" stroke-width="0.4"/>
<line x1="140.902" y1="219.775" x2="140.347" y2="214.311" stroke="#141414" stroke-width="0.4"/>
<line x1="162.431" y1="219.886" x2="166.687" y2="216.415" stroke="#141414" stroke-width="0.4"/>
<line x1="166.687" y1="216.415" x2="163.868" y2="209.612" stroke="#141414" stroke-width="0.4"/>
<line x1="163.868" y1="209.612" x2="158.404" y2="210.167" stroke="#141414" stroke-width="0.4"/>
<line x1="140.347" y1="214.311" x2="146.898" y2="212.242" stroke="#141414" stroke-width="0.4"/>
<line x1="146.898" y1="212.242" x2="147.542" y2="210.687" stroke="#141414" stroke-width="0.4"/>
<line x1="147.542" y1="210.687" x2="144.373" y2="204.591" stroke="#141414" stroke-width="0.4"/>
<line x1="158.404" y1="210.167" x2="162.661" y2="206.695" stroke="#141414" stroke-width="0.4"/>
<line x1="162.661" y1="206.695" x2="159.842" y2="199.892" stroke="#141414" stroke-width="0.4"/>
<line x1="159.842" y1="199.892" x2="154.378" y2="200.447" stroke="#141414" stroke-width="0.4"/>
<line x1="154.378" y1="200.447" x2="158.634" y2="196.976" stroke="#141414" stroke-width="0.4"/>
<line x1="158.634" y1="196.976" x2="155.816" y2="190.172" stroke="#141414" stroke-width="0.4"/>
<line x1="155.816" y1="190.172" x2="150.352" y2="190.727" stroke="#141414" stroke-width="0.4"/>
<line x1="140.347" y1="194.871" x2="138.277" y2="188.32" stroke="#141414" stroke-width="0.4"/>
<line x1="138.277" y1="188.32" x2="136.722" y2="187.676" stroke="#141414" stroke-width="0.4"/>
<line x1="136.722" y1="187.676" x2="130.627" y2="190.845" stroke="#141414" stroke-width="0.4"/>
<line x1="150.352" y1="190.727" x2="154.608" y2="187.256" stroke="#141414" stroke-width="0.4"/>
<line x1="154.608" y1="187.256" x2="151.79" y2="180.452" stroke="#141414" stroke-width="0.4"/>
<line x1="151.79" y1="180.452" x2="146.326" y2="181.007" stroke="#141414" stroke-width="0.4"/>
<line x1="130.627" y1="190.845" x2="127.156" y2="186.589" stroke="#141414" stroke-width="0.4"/>
<line x1="127.156" y1="186.589" x2="120.352" y2="189.408" stroke="#141414" stroke-width="0.4"/>
<line x1="120.352" y1="189.408" x2="120.907" y2="194.871" stroke="#141414" stroke-width="0.4"/>
<line x1="146.326" y1="181.007" x2="150.582" y2="177.536" stroke="#141414" stroke-width="0.4"/>
<line x1="150.582" y1="177.536" x2="147.764" y2="170.732" stroke="#141414" stroke-width="0.4"/>
<line x1="147.764" y1="170.732" x2="142.3" y2="171.287" stroke="#141414" stroke-width="0.4"/>
<line x1="132.294" y1="175.432" x2="131.723" y2="169.807" stroke="#141414" stroke-width="0.4"/>
<line x1="131.723" y1="169.807" x2="138.727" y2="166.906" stroke="#141414" stroke-width="0.4"/>
<line x1="138.727" y1="166.906" x2="142.3" y2="171.287" stroke="#141414" stroke-width="0.4"/>
<circle cx="116.464" cy="210.458" r="1.50" fill="#ffe082" stroke="#464646" stroke-width="0.2"/>
<text x="116.464" y="210.97" font-size="1.47" text-anchor="middle" fill="#141414">65</text>
<circle cx="116.464" cy="198.725" r="1.50" fill="#ffe082" stroke="#464646" stroke-width="0.2"/>
<text x="116.464" y="199.24" font-size="1.47" text-anchor="middle" fill="#141414">66</text>
<circle cx="174.926" cy="243.18" r="1.50" fill="#ffe082" stroke="#464646" stroke-width="0.2"/>
<text x="174.926" y="243.69" font-size="1.47" text-anchor="middle" fill="#141414">67</text>
<circle cx="124.76" cy="218.754" r="1.50" fill="#ffe082" stroke="#464646" stroke-width="0.2"/>
<text x="124.76" y="219.27" font-size="1.47" text-anchor="middle" fill="#141414">68</text>
<circle cx="166.874" cy="223.74" r="1.50" fill="#ffe082" stroke="#464646" stroke-width="0.2"/>
<text x="166.874" y="224.25" font-size="1.47" text-anchor="middle" fill="#141414">69</text>
<circle cx="136.493" cy="218.754" r="1.50" fill="#ffe082" stroke="#464646" stroke-width="0.2"/>
<text x="136.493" y="219.27" font-size="1.47" text-anchor="middle" fill="#141414">70</text>
<circle cx="162.848" cy="214.02" r="1.50" fill="#ffe082" stroke="#464646" stroke-width="0.2"/>
<text x="162.848" y="214.53" font-size="1.47" text-anchor="middle" fill="#141414">71</text>
<circle cx="144.79" cy="210.458" r="1.50" fill="#ffe082" stroke="#464646" stroke-width="0.2"/>
<text x="144.79" y="210.97" font-size="1.47" text-anchor="middle" fill="#141414">72</text>
<circle cx="158.821" cy="204.3" r="1.50" fill="#ffe082" stroke="#464646" stroke-width="0.2"/>
<text x="158.821" y="204.81" font-size="1.47" text-anchor="middle" fill="#141414">73</text>
<circle cx="154.795" cy="194.58" r="1.50" fill="#ffe082" stroke="#464646" stroke-width="0.2"/>
<text x="154.795" y="195.09" font-size="1.47" text-anchor="middle" fill="#141414">74</text>
<circle cx="136.493" cy="190.428" r="1.50" fill="#ffe082" stroke="#464646" stroke-width="0.2"/>
<text x="136.493" y="190.94" font-size="1.47" text-anchor="middle" fill="#141414">75</text>
<circle cx="150.769" cy="184.86" r="1.50" fill="#ffe082" stroke="#464646" stroke-width="0.2"/>
<text x="150.769" y="185.37" font-size="1.47" text-anchor="middle" fill="#141414">76</text>
<circle cx="124.76" cy="190.428" r="1.50" fill="#ffe082" stroke="#464646" stroke-width="0.2"/>
<text x="124.76" y="190.94" font-size="1.47" text-anchor="middle" fill="#141414">77</text>
<circle cx="146.743" cy="175.141" r="1.50" fill="#ffe082" stroke="#464646" stroke-width="0.2"/>
<text x="146.743" y="175.65" font-size="1.47" text-anchor="middle" fill="#141414">78</text>
<circle cx="136.261" cy="170.858" r="1.50" fill="#ffe082" stroke="#464646" stroke-width="0.2"/>
<text x="136.261" y="171.37" font-size="1.47" text-anchor="middle" fill="#141414">79</text>
<circle cx="151.34" cy="159.002" r="4.6" fill="#eaf1fe" stroke="#2e78e6" stroke-width="0.3"/>
<text x="151.34" y="160.80200000000002" font-size="5.2" text-anchor="middle" fill="#14306e" font-weight="bold">11</text>
<g pointer-events="none"><text x="105.0" y="83.2" text-anchor="middle" font-family="sans-serif" font-size="12.4" fill="#9aa0a6" fill-opacity="0.3" transform="rotate(-28 105.0 83.2)">papercraft.kr</text><text x="105.0" y="148.5" text-anchor="middle" font-family="sans-serif" font-size="12.4" fill="#9aa0a6" fill-opacity="0.3" transform="rotate(-28 105.0 148.5)">papercraft.kr</text><text x="105.0" y="213.8" text-anchor="middle" font-family="sans-serif" font-size="12.4" fill="#9aa0a6" fill-opacity="0.3" transform="rotate(-28 105.0 213.8)">papercraft.kr</text></g></svg>
