<svg xmlns="http://www.w3.org/2000/svg" xmlns:xlink="http://www.w3.org/1999/xlink" width="210.00mm" height="297.00mm" viewBox="0 0 210.00 297.00">
<rect x="0" y="0" width="210.00" height="297.00" fill="#ffffff" stroke="#cccccc" stroke-width="0.2"/>
<polygon points="59.513,73.864 66.177,80.864 97.277,80.864 103.941,73.864" fill="rgb(216,216,216)"/>
<polygon points="59.513,61.646 66.177,54.646 97.277,54.646 103.941,61.646" fill="rgb(216,216,216)"/>
<polygon points="103.941,73.864 110.05,72.031 110.05,63.479 103.941,61.646" fill="rgb(216,216,216)"/>
<polygon points="59.513,118.293 58.0,123.335 50.941,123.335 49.428,118.293" fill="rgb(216,216,216)"/>
<polygon points="49.428,73.864 43.32,72.031 43.32,63.479 49.428,61.646" fill="rgb(216,216,216)"/>
<polygon points="49.428,73.864 42.428,80.528 42.428,111.628 49.428,118.293" fill="rgb(216,216,216)"/>
<polygon points="49.428,61.646 42.428,54.982 42.428,23.882 49.428,17.218" fill="rgb(216,216,216)"/>
<polygon points="59.513,73.864 66.177,80.864 97.277,80.864 103.941,73.864" fill="#99d9fa"/>
<line x1="59.513" y1="73.864" x2="59.513" y2="61.646" stroke="#8c8c8c" stroke-width="0.3" stroke-dasharray="1.2,0.8"/>
<line x1="59.513" y1="73.864" x2="49.428" y2="73.864" stroke="#8c8c8c" stroke-width="0.3" stroke-dasharray="1.2,0.8"/>
<line x1="49.428" y1="61.646" x2="59.513" y2="61.646" stroke="#8c8c8c" stroke-width="0.3" stroke-dasharray="1.2,0.8"/>
<line x1="49.428" y1="17.218" x2="59.513" y2="17.218" stroke="#8c8c8c" stroke-width="0.3" stroke-dasharray="1.2,0.8"/>
<line x1="49.428" y1="17.218" x2="49.428" y2="5.0" stroke="#8c8c8c" stroke-width="0.3" stroke-dasharray="1.2,0.8"/>
<line x1="103.941" y1="73.864" x2="59.513" y2="73.864" stroke="#8c8c8c" stroke-width="0.3" stroke-dasharray="1.2,0.8"/>
<line x1="103.941" y1="61.646" x2="59.513" y2="61.646" stroke="#8c8c8c" stroke-width="0.3" stroke-dasharray="1.2,0.8"/>
<line x1="103.941" y1="61.646" x2="103.941" y2="73.864" stroke="#8c8c8c" stroke-width="0.3" stroke-dasharray="1.2,0.8"/>
<line x1="49.428" y1="118.293" x2="59.513" y2="118.293" stroke="#8c8c8c" stroke-width="0.3" stroke-dasharray="1.2,0.8"/>
<line x1="49.428" y1="61.646" x2="49.428" y2="73.864" stroke="#8c8c8c" stroke-width="0.3" stroke-dasharray="1.2,0.8"/>
<line x1="49.428" y1="118.293" x2="49.428" y2="73.864" stroke="#8c8c8c" stroke-width="0.3" stroke-dasharray="1.2,0.8"/>
<line x1="49.428" y1="17.218" x2="49.428" y2="61.646" stroke="#8c8c8c" stroke-width="0.3" stroke-dasharray="1.2,0.8"/>
<line x1="59.513" y1="73.864" x2="59.513" y2="118.293" stroke="#141414" stroke-width="0.4"/>
<line x1="59.513" y1="17.218" x2="59.513" y2="61.646" stroke="#141414" stroke-width="0.4"/>
<line x1="59.513" y1="5.0" x2="59.513" y2="17.218" stroke="#141414" stroke-width="0.4"/>
<line x1="49.428" y1="5.0" x2="59.513" y2="5.0" stroke="#141414" stroke-width="0.4"/>
<line x1="5.0" y1="17.218" x2="5.0" y2="5.0" stroke="#141414" stroke-width="0.4"/>
<line x1="5.0" y1="5.0" x2="49.428" y2="5.0" stroke="#141414" stroke-width="0.4"/>
<line x1="49.428" y1="17.218" x2="5.0" y2="17.218" stroke="#141414" stroke-width="0.4"/>
<line x1="59.513" y1="73.864" x2="66.177" y2="80.864" stroke="#141414" stroke-width="0.4"/>
<line x1="66.177" y1="80.864" x2="97.277" y2="80.864" stroke="#141414" stroke-width="0.4"/>
<line x1="97.277" y1="80.864" x2="103.941" y2="73.864" stroke="#141414" stroke-width="0.4"/>
<line x1="59.513" y1="61.646" x2="66.177" y2="54.646" stroke="#141414" stroke-width="0.4"/>
<line x1="66.177" y1="54.646" x2="97.277" y2="54.646" stroke="#141414" stroke-width="0.4"/>
<line x1="97.277" y1="54.646" x2="103.941" y2="61.646" stroke="#141414" stroke-width="0.4"/>
<line x1="103.941" y1="73.864" x2="110.05" y2="72.031" stroke="#141414" stroke-width="0.4"/>
<line x1="110.05" y1="72.031" x2="110.05" y2="63.479" stroke="#141414" stroke-width="0.4"/>
<line x1="110.05" y1="63.479" x2="103.941" y2="61.646" stroke="#141414" stroke-width="0.4"/>
<line x1="59.513" y1="118.293" x2="58.0" y2="123.335" stroke="#141414" stroke-width="0.4"/>
<line x1="58.0" y1="123.335" x2="50.941" y2="123.335" stroke="#141414" stroke-width="0.4"/>
<line x1="50.941" y1="123.335" x2="49.428" y2="118.293" stroke="#141414" stroke-width="0.4"/>
<line x1="49.428" y1="73.864" x2="43.32" y2="72.031" stroke="#141414" stroke-width="0.4"/>
<line x1="43.32" y1="72.031" x2="43.32" y2="63.479" stroke="#141414" stroke-width="0.4"/>
<line x1="43.32" y1="63.479" x2="49.428" y2="61.646" stroke="#141414" stroke-width="0.4"/>
<line x1="49.428" y1="73.864" x2="42.428" y2="80.528" stroke="#141414" stroke-width="0.4"/>
<line x1="42.428" y1="80.528" x2="42.428" y2="111.628" stroke="#141414" stroke-width="0.4"/>
<line x1="42.428" y1="111.628" x2="49.428" y2="118.293" stroke="#141414" stroke-width="0.4"/>
<line x1="49.428" y1="61.646" x2="42.428" y2="54.982" stroke="#141414" stroke-width="0.4"/>
<line x1="42.428" y1="54.982" x2="42.428" y2="23.882" stroke="#141414" stroke-width="0.4"/>
<line x1="42.428" y1="23.882" x2="49.428" y2="17.218" stroke="#141414" stroke-width="0.4"/>
<circle cx="81.727" cy="77.364" r="2.12" fill="#99d9fa" stroke="#464646" stroke-width="0.2"/>
<text x="81.727" y="78.37" font-size="2.87" text-anchor="middle" fill="#141414">31</text>
<circle cx="81.727" cy="58.146" r="2.12" fill="#ffe082" stroke="#464646" stroke-width="0.2"/>
<text x="81.727" y="59.15" font-size="2.87" text-anchor="middle" fill="#141414">32</text>
<circle cx="106.996" cy="67.755" r="2.12" fill="#ffe082" stroke="#464646" stroke-width="0.2"/>
<text x="106.996" y="68.76" font-size="2.87" text-anchor="middle" fill="#141414">33</text>
<circle cx="54.471" cy="120.814" r="2.12" fill="#ffe082" stroke="#464646" stroke-width="0.2"/>
<text x="54.471" y="121.82" font-size="2.87" text-anchor="middle" fill="#141414">34</text>
<circle cx="46.374" cy="67.755" r="2.12" fill="#ffe082" stroke="#464646" stroke-width="0.2"/>
<text x="46.374" y="68.76" font-size="2.87" text-anchor="middle" fill="#141414">35</text>
<circle cx="45.928" cy="96.078" r="2.12" fill="#ffe082" stroke="#464646" stroke-width="0.2"/>
<text x="45.928" y="97.08" font-size="2.87" text-anchor="middle" fill="#141414">36</text>
<circle cx="45.928" cy="39.432" r="2.12" fill="#ffe082" stroke="#464646" stroke-width="0.2"/>
<text x="45.928" y="40.44" font-size="2.87" text-anchor="middle" fill="#141414">37</text>
<circle cx="52.79" cy="103.483" r="2.62" fill="#eaf1fe" stroke="#2e78e6" stroke-width="0.3"/>
<text x="52.79" y="104.51" font-size="2.96" text-anchor="middle" fill="#14306e" font-weight="bold">7</text>
<polygon points="53.959,197.791 59.79,204.791 87.003,204.791 92.834,197.791" fill="rgb(216,216,216)"/>
<polygon points="53.959,181.5 59.79,174.5 87.003,174.5 92.834,181.5" fill="rgb(216,216,216)"/>
<polygon points="92.834,197.791 99.834,195.347 99.834,183.944 92.834,181.5" fill="rgb(216,216,216)"/>
<polygon points="53.959,236.666 52.447,241.708 45.388,241.708 43.875,236.666" fill="rgb(216,216,216)"/>
<polygon points="43.875,197.791 36.875,195.347 36.875,183.944 43.875,181.5" fill="rgb(216,216,216)"/>
<polygon points="43.875,197.791 36.875,203.622 36.875,230.834 43.875,236.666" fill="rgb(216,216,216)"/>
<polygon points="43.875,181.5 36.875,175.669 36.875,148.457 43.875,142.625" fill="rgb(216,216,216)"/>
<polygon points="53.959,197.791 59.79,204.791 87.003,204.791 92.834,197.791" fill="#99d9fa"/>
<line x1="53.959" y1="197.791" x2="53.959" y2="181.5" stroke="#8c8c8c" stroke-width="0.3" stroke-dasharray="1.2,0.8"/>
<line x1="53.959" y1="197.791" x2="43.875" y2="197.791" stroke="#8c8c8c" stroke-width="0.3" stroke-dasharray="1.2,0.8"/>
<line x1="43.875" y1="181.5" x2="53.959" y2="181.5" stroke="#8c8c8c" stroke-width="0.3" stroke-dasharray="1.2,0.8"/>
<line x1="43.875" y1="142.625" x2="53.959" y2="142.625" stroke="#8c8c8c" stroke-width="0.3" stroke-dasharray="1.2,0.8"/>
<line x1="43.875" y1="142.625" x2="43.875" y2="126.335" stroke="#8c8c8c" stroke-width="0.3" stroke-dasharray="1.2,0.8"/>
<line x1="92.834" y1="197.791" x2="53.959" y2="197.791" stroke="#8c8c8c" stroke-width="0.3" stroke-dasharray="1.2,0.8"/>
<line x1="92.834" y1="181.5" x2="53.959" y2="181.5" stroke="#8c8c8c" stroke-width="0.3" stroke-dasharray="1.2,0.8"/>
<line x1="92.834" y1="181.5" x2="92.834" y2="197.791" stroke="#8c8c8c" stroke-width="0.3" stroke-dasharray="1.2,0.8"/>
<line x1="43.875" y1="236.666" x2="53.959" y2="236.666" stroke="#8c8c8c" stroke-width="0.3" stroke-dasharray="1.2,0.8"/>
<line x1="43.875" y1="181.5" x2="43.875" y2="197.791" stroke="#8c8c8c" stroke-width="0.3" stroke-dasharray="1.2,0.8"/>
<line x1="43.875" y1="236.666" x2="43.875" y2="197.791" stroke="#8c8c8c" stroke-width="0.3" stroke-dasharray="1.2,0.8"/>
<line x1="43.875" y1="142.625" x2="43.875" y2="181.5" stroke="#8c8c8c" stroke-width="0.3" stroke-dasharray="1.2,0.8"/>
<line x1="53.959" y1="197.791" x2="53.959" y2="236.666" stroke="#141414" stroke-width="0.4"/>
<line x1="53.959" y1="142.625" x2="53.959" y2="181.5" stroke="#141414" stroke-width="0.4"/>
<line x1="53.959" y1="126.335" x2="53.959" y2="142.625" stroke="#141414" stroke-width="0.4"/>
<line x1="43.875" y1="126.335" x2="53.959" y2="126.335" stroke="#141414" stroke-width="0.4"/>
<line x1="5.0" y1="142.625" x2="5.0" y2="126.335" stroke="#141414" stroke-width="0.4"/>
<line x1="5.0" y1="126.335" x2="43.875" y2="126.335" stroke="#141414" stroke-width="0.4"/>
<line x1="43.875" y1="142.625" x2="5.0" y2="142.625" stroke="#141414" stroke-width="0.4"/>
<line x1="53.959" y1="197.791" x2="59.79" y2="204.791" stroke="#141414" stroke-width="0.4"/>
<line x1="59.79" y1="204.791" x2="87.003" y2="204.791" stroke="#141414" stroke-width="0.4"/>
<line x1="87.003" y1="204.791" x2="92.834" y2="197.791" stroke="#141414" stroke-width="0.4"/>
<line x1="53.959" y1="181.5" x2="59.79" y2="174.5" stroke="#141414" stroke-width="0.4"/>
<line x1="59.79" y1="174.5" x2="87.003" y2="174.5" stroke="#141414" stroke-width="0.4"/>
<line x1="87.003" y1="174.5" x2="92.834" y2="181.5" stroke="#141414" stroke-width="0.4"/>
<line x1="92.834" y1="197.791" x2="99.834" y2="195.347" stroke="#141414" stroke-width="0.4"/>
<line x1="99.834" y1="195.347" x2="99.834" y2="183.944" stroke="#141414" stroke-width="0.4"/>
<line x1="99.834" y1="183.944" x2="92.834" y2="181.5" stroke="#141414" stroke-width="0.4"/>
<line x1="53.959" y1="236.666" x2="52.447" y2="241.708" stroke="#141414" stroke-width="0.4"/>
<line x1="52.447" y1="241.708" x2="45.388" y2="241.708" stroke="#141414" stroke-width="0.4"/>
<line x1="45.388" y1="241.708" x2="43.875" y2="236.666" stroke="#141414" stroke-width="0.4"/>
<line x1="43.875" y1="197.791" x2="36.875" y2="195.347" stroke="#141414" stroke-width="0.4"/>
<line x1="36.875" y1="195.347" x2="36.875" y2="183.944" stroke="#141414" stroke-width="0.4"/>
<line x1="36.875" y1="183.944" x2="43.875" y2="181.5" stroke="#141414" stroke-width="0.4"/>
<line x1="43.875" y1="197.791" x2="36.875" y2="203.622" stroke="#141414" stroke-width="0.4"/>
<line x1="36.875" y1="203.622" x2="36.875" y2="230.834" stroke="#141414" stroke-width="0.4"/>
<line x1="36.875" y1="230.834" x2="43.875" y2="236.666" stroke="#141414" stroke-width="0.4"/>
<line x1="43.875" y1="181.5" x2="36.875" y2="175.669" stroke="#141414" stroke-width="0.4"/>
<line x1="36.875" y1="175.669" x2="36.875" y2="148.457" stroke="#141414" stroke-width="0.4"/>
<line x1="36.875" y1="148.457" x2="43.875" y2="142.625" stroke="#141414" stroke-width="0.4"/>
<circle cx="73.397" cy="201.291" r="2.12" fill="#99d9fa" stroke="#464646" stroke-width="0.2"/>
<text x="73.397" y="202.30" font-size="2.87" text-anchor="middle" fill="#141414">38</text>
<circle cx="73.397" cy="178.0" r="2.12" fill="#ffe082" stroke="#464646" stroke-width="0.2"/>
<text x="73.397" y="179.01" font-size="2.87" text-anchor="middle" fill="#141414">39</text>
<circle cx="96.334" cy="189.645" r="2.12" fill="#ffe082" stroke="#464646" stroke-width="0.2"/>
<text x="96.334" y="190.65" font-size="2.87" text-anchor="middle" fill="#141414">40</text>
<circle cx="48.917" cy="239.187" r="2.12" fill="#ffe082" stroke="#464646" stroke-width="0.2"/>
<text x="48.917" y="240.19" font-size="2.87" text-anchor="middle" fill="#141414">41</text>
<circle cx="40.375" cy="189.645" r="2.12" fill="#ffe082" stroke="#464646" stroke-width="0.2"/>
<text x="40.375" y="190.65" font-size="2.87" text-anchor="middle" fill="#141414">42</text>
<circle cx="40.375" cy="217.228" r="2.12" fill="#ffe082" stroke="#464646" stroke-width="0.2"/>
<text x="40.375" y="218.23" font-size="2.87" text-anchor="middle" fill="#141414">43</text>
<circle cx="40.375" cy="162.063" r="2.12" fill="#ffe082" stroke="#464646" stroke-width="0.2"/>
<text x="40.375" y="163.07" font-size="2.87" text-anchor="middle" fill="#141414">44</text>
<circle cx="47.236" cy="223.707" r="2.60" fill="#eaf1fe" stroke="#2e78e6" stroke-width="0.3"/>
<text x="47.236" y="224.73" font-size="2.94" text-anchor="middle" fill="#14306e" font-weight="bold">8</text>
<polygon points="134.872,20.016 131.755,13.233 140.308,4.681 147.09,7.798" fill="rgb(216,216,216)"/>
<polygon points="128.066,26.822 124.949,33.605 133.501,42.157 140.284,39.04" fill="rgb(216,216,216)"/>
<polygon points="128.066,26.822 121.283,29.939 112.731,21.387 115.848,14.604" fill="rgb(216,216,216)"/>
<polygon points="147.09,32.233 153.873,35.35 162.425,26.798 159.308,20.016" fill="rgb(216,216,216)"/>
<polygon points="140.284,39.04 137.166,45.822 145.719,54.375 152.501,51.258" fill="rgb(216,216,216)"/>
<polygon points="159.308,20.016 162.425,13.233 153.873,4.681 147.09,7.798" fill="rgb(216,216,216)"/>
<polygon points="171.526,56.669 173.908,61.093 169.144,65.858 164.719,63.476" fill="rgb(216,216,216)"/>
<polygon points="171.526,56.669 173.908,61.093 169.144,65.858 164.719,63.476" fill="#99d9fa"/>
<line x1="128.066" y1="26.822" x2="134.872" y2="20.015" stroke="#8c8c8c" stroke-width="0.3" stroke-dasharray="1.2,0.8"/>
<line x1="147.09" y1="32.233" x2="134.872" y2="20.015" stroke="#8c8c8c" stroke-width="0.3" stroke-dasharray="1.2,0.8"/>
<line x1="147.09" y1="32.233" x2="140.284" y2="39.04" stroke="#8c8c8c" stroke-width="0.3" stroke-dasharray="1.2,0.8"/>
<line x1="159.308" y1="44.451" x2="152.501" y2="51.258" stroke="#8c8c8c" stroke-width="0.3" stroke-dasharray="1.2,0.8"/>
<line x1="164.719" y1="63.476" x2="152.501" y2="51.258" stroke="#8c8c8c" stroke-width="0.3" stroke-dasharray="1.2,0.8"/>
<line x1="147.09" y1="7.798" x2="134.872" y2="20.016" stroke="#8c8c8c" stroke-width="0.3" stroke-dasharray="1.2,0.8"/>
<line x1="140.284" y1="39.04" x2="128.066" y2="26.822" stroke="#8c8c8c" stroke-width="0.3" stroke-dasharray="1.2,0.8"/>
<line x1="115.848" y1="14.604" x2="128.066" y2="26.822" stroke="#8c8c8c" stroke-width="0.3" stroke-dasharray="1.2,0.8"/>
<line x1="159.308" y1="20.016" x2="147.09" y2="32.233" stroke="#8c8c8c" stroke-width="0.3" stroke-dasharray="1.2,0.8"/>
<line x1="152.501" y1="51.258" x2="140.284" y2="39.04" stroke="#8c8c8c" stroke-width="0.3" stroke-dasharray="1.2,0.8"/>
<line x1="147.09" y1="7.798" x2="159.308" y2="20.016" stroke="#8c8c8c" stroke-width="0.3" stroke-dasharray="1.2,0.8"/>
<line x1="164.719" y1="63.476" x2="171.526" y2="56.669" stroke="#8c8c8c" stroke-width="0.3" stroke-dasharray="1.2,0.8"/>
<line x1="122.654" y1="7.798" x2="134.872" y2="20.015" stroke="#141414" stroke-width="0.4"/>
<line x1="152.501" y1="75.694" x2="140.284" y2="63.476" stroke="#141414" stroke-width="0.4"/>
<line x1="164.719" y1="63.476" x2="152.501" y2="75.694" stroke="#141414" stroke-width="0.4"/>
<line x1="147.09" y1="32.233" x2="159.308" y2="44.451" stroke="#141414" stroke-width="0.4"/>
<line x1="140.284" y1="63.476" x2="152.501" y2="51.258" stroke="#141414" stroke-width="0.4"/>
<line x1="159.308" y1="44.451" x2="171.526" y2="56.669" stroke="#141414" stroke-width="0.4"/>
<line x1="115.848" y1="14.604" x2="122.654" y2="7.798" stroke="#141414" stroke-width="0.4"/>
<line x1="134.872" y1="20.016" x2="131.755" y2="13.233" stroke="#141414" stroke-width="0.4"/>
<line x1="131.755" y1="13.233" x2="140.308" y2="4.681" stroke="#141414" stroke-width="0.4"/>
<line x1="140.308" y1="4.681" x2="147.09" y2="7.798" stroke="#141414" stroke-width="0.4"/>
<line x1="128.066" y1="26.822" x2="124.949" y2="33.605" stroke="#141414" stroke-width="0.4"/>
<line x1="124.949" y1="33.605" x2="133.501" y2="42.157" stroke="#141414" stroke-width="0.4"/>
<line x1="133.501" y1="42.157" x2="140.284" y2="39.04" stroke="#141414" stroke-width="0.4"/>
<line x1="128.066" y1="26.822" x2="121.283" y2="29.939" stroke="#141414" stroke-width="0.4"/>
<line x1="121.283" y1="29.939" x2="112.731" y2="21.387" stroke="#141414" stroke-width="0.4"/>
<line x1="112.731" y1="21.387" x2="115.848" y2="14.604" stroke="#141414" stroke-width="0.4"/>
<line x1="147.09" y1="32.233" x2="153.873" y2="35.35" stroke="#141414" stroke-width="0.4"/>
<line x1="153.873" y1="35.35" x2="162.425" y2="26.798" stroke="#141414" stroke-width="0.4"/>
<line x1="162.425" y1="26.798" x2="159.308" y2="20.016" stroke="#141414" stroke-width="0.4"/>
<line x1="140.284" y1="39.04" x2="137.166" y2="45.822" stroke="#141414" stroke-width="0.4"/>
<line x1="137.166" y1="45.822" x2="145.719" y2="54.375" stroke="#141414" stroke-width="0.4"/>
<line x1="145.719" y1="54.375" x2="152.501" y2="51.258" stroke="#141414" stroke-width="0.4"/>
<line x1="159.308" y1="20.016" x2="162.425" y2="13.233" stroke="#141414" stroke-width="0.4"/>
<line x1="162.425" y1="13.233" x2="153.873" y2="4.681" stroke="#141414" stroke-width="0.4"/>
<line x1="153.873" y1="4.681" x2="147.09" y2="7.798" stroke="#141414" stroke-width="0.4"/>
<line x1="171.526" y1="56.669" x2="173.908" y2="61.093" stroke="#141414" stroke-width="0.4"/>
<line x1="173.908" y1="61.093" x2="169.144" y2="65.858" stroke="#141414" stroke-width="0.4"/>
<line x1="169.144" y1="65.858" x2="164.719" y2="63.476" stroke="#141414" stroke-width="0.4"/>
<circle cx="138.506" cy="11.432" r="2.12" fill="#ffe082" stroke="#464646" stroke-width="0.2"/>
<text x="138.506" y="12.44" font-size="2.87" text-anchor="middle" fill="#141414">73</text>
<circle cx="131.7" cy="35.406" r="2.12" fill="#ffe082" stroke="#464646" stroke-width="0.2"/>
<text x="131.7" y="36.41" font-size="2.87" text-anchor="middle" fill="#141414">74</text>
<circle cx="119.482" cy="23.188" r="2.12" fill="#ffe082" stroke="#464646" stroke-width="0.2"/>
<text x="119.482" y="24.19" font-size="2.87" text-anchor="middle" fill="#141414">75</text>
<circle cx="155.674" cy="28.599" r="2.12" fill="#ffe082" stroke="#464646" stroke-width="0.2"/>
<text x="155.674" y="29.60" font-size="2.87" text-anchor="middle" fill="#141414">76</text>
<circle cx="143.918" cy="47.624" r="2.12" fill="#ffe082" stroke="#464646" stroke-width="0.2"/>
<text x="143.918" y="48.63" font-size="2.87" text-anchor="middle" fill="#141414">77</text>
<circle cx="155.674" cy="11.432" r="2.12" fill="#ffe082" stroke="#464646" stroke-width="0.2"/>
<text x="155.674" y="12.44" font-size="2.87" text-anchor="middle" fill="#141414">78</text>
<circle cx="169.824" cy="61.774" r="2.12" fill="#99d9fa" stroke="#464646" stroke-width="0.2"/>
<text x="169.824" y="62.78" font-size="2.87" text-anchor="middle" fill="#141414">79</text>
<circle cx="161.112" cy="50.793" r="2.24" fill="#eaf1fe" stroke="#2e78e6" stroke-width="0.3"/>
<text x="161.112" y="51.67" font-size="2.60" text-anchor="middle" fill="#14306e" font-weight="bold">13</text>
<polygon points="124.656,141.35 121.539,134.568 130.092,126.015 136.874,129.132" fill="rgb(216,216,216)"/>
<polygon points="117.85,148.157 114.733,154.94 123.285,163.492 130.068,160.375" fill="rgb(216,216,216)"/>
<polygon points="117.85,148.157 111.067,151.274 102.515,142.722 105.632,135.939" fill="rgb(216,216,216)"/>
<polygon points="136.874,153.568 143.657,156.685 152.209,148.133 149.092,141.35" fill="rgb(216,216,216)"/>
<polygon points="130.068,160.375 126.95,167.157 135.503,175.71 142.285,172.593" fill="rgb(216,216,216)"/>
<polygon points="149.092,141.35 152.209,134.568 143.657,126.015 136.874,129.132" fill="rgb(216,216,216)"/>
<polygon points="161.31,178.004 163.692,182.428 158.928,187.193 154.503,184.811" fill="rgb(216,216,216)"/>
<polygon points="161.31,178.004 163.692,182.428 158.928,187.193 154.503,184.811" fill="#99d9fa"/>
<line x1="117.85" y1="148.157" x2="124.656" y2="141.35" stroke="#8c8c8c" stroke-width="0.3" stroke-dasharray="1.2,0.8"/>
<line x1="136.874" y1="153.568" x2="124.656" y2="141.35" stroke="#8c8c8c" stroke-width="0.3" stroke-dasharray="1.2,0.8"/>
<line x1="136.874" y1="153.568" x2="130.067" y2="160.375" stroke="#8c8c8c" stroke-width="0.3" stroke-dasharray="1.2,0.8"/>
<line x1="149.092" y1="165.786" x2="142.285" y2="172.593" stroke="#8c8c8c" stroke-width="0.3" stroke-dasharray="1.2,0.8"/>
<line x1="154.503" y1="184.811" x2="142.285" y2="172.593" stroke="#8c8c8c" stroke-width="0.3" stroke-dasharray="1.2,0.8"/>
<line x1="136.874" y1="129.132" x2="124.656" y2="141.35" stroke="#8c8c8c" stroke-width="0.3" stroke-dasharray="1.2,0.8"/>
<line x1="130.068" y1="160.375" x2="117.85" y2="148.157" stroke="#8c8c8c" stroke-width="0.3" stroke-dasharray="1.2,0.8"/>
<line x1="105.632" y1="135.939" x2="117.85" y2="148.157" stroke="#8c8c8c" stroke-width="0.3" stroke-dasharray="1.2,0.8"/>
<line x1="149.092" y1="141.35" x2="136.874" y2="153.568" stroke="#8c8c8c" stroke-width="0.3" stroke-dasharray="1.2,0.8"/>
<line x1="142.285" y1="172.593" x2="130.068" y2="160.375" stroke="#8c8c8c" stroke-width="0.3" stroke-dasharray="1.2,0.8"/>
<line x1="136.874" y1="129.132" x2="149.092" y2="141.35" stroke="#8c8c8c" stroke-width="0.3" stroke-dasharray="1.2,0.8"/>
<line x1="154.503" y1="184.811" x2="161.31" y2="178.004" stroke="#8c8c8c" stroke-width="0.3" stroke-dasharray="1.2,0.8"/>
<line x1="112.438" y1="129.132" x2="124.656" y2="141.35" stroke="#141414" stroke-width="0.4"/>
<line x1="142.285" y1="197.028" x2="130.067" y2="184.811" stroke="#141414" stroke-width="0.4"/>
<line x1="154.503" y1="184.811" x2="142.285" y2="197.028" stroke="#141414" stroke-width="0.4"/>
<line x1="136.874" y1="153.568" x2="149.092" y2="165.786" stroke="#141414" stroke-width="0.4"/>
<line x1="130.067" y1="184.811" x2="142.285" y2="172.593" stroke="#141414" stroke-width="0.4"/>
<line x1="149.092" y1="165.786" x2="161.31" y2="178.004" stroke="#141414" stroke-width="0.4"/>
<line x1="105.632" y1="135.939" x2="112.438" y2="129.132" stroke="#141414" stroke-width="0.4"/>
<line x1="124.656" y1="141.35" x2="121.539" y2="134.568" stroke="#141414" stroke-width="0.4"/>
<line x1="121.539" y1="134.568" x2="130.092" y2="126.015" stroke="#141414" stroke-width="0.4"/>
<line x1="130.092" y1="126.015" x2="136.874" y2="129.132" stroke="#141414" stroke-width="0.4"/>
<line x1="117.85" y1="148.157" x2="114.733" y2="154.94" stroke="#141414" stroke-width="0.4"/>
<line x1="114.733" y1="154.94" x2="123.285" y2="163.492" stroke="#141414" stroke-width="0.4"/>
<line x1="123.285" y1="163.492" x2="130.068" y2="160.375" stroke="#141414" stroke-width="0.4"/>
<line x1="117.85" y1="148.157" x2="111.067" y2="151.274" stroke="#141414" stroke-width="0.4"/>
<line x1="111.067" y1="151.274" x2="102.515" y2="142.722" stroke="#141414" stroke-width="0.4"/>
<line x1="102.515" y1="142.722" x2="105.632" y2="135.939" stroke="#141414" stroke-width="0.4"/>
<line x1="136.874" y1="153.568" x2="143.657" y2="156.685" stroke="#141414" stroke-width="0.4"/>
<line x1="143.657" y1="156.685" x2="152.209" y2="148.133" stroke="#141414" stroke-width="0.4"/>
<line x1="152.209" y1="148.133" x2="149.092" y2="141.35" stroke="#141414" stroke-width="0.4"/>
<line x1="130.068" y1="160.375" x2="126.95" y2="167.157" stroke="#141414" stroke-width="0.4"/>
<line x1="126.95" y1="167.157" x2="135.503" y2="175.71" stroke="#141414" stroke-width="0.4"/>
<line x1="135.503" y1="175.71" x2="142.285" y2="172.593" stroke="#141414" stroke-width="0.4"/>
<line x1="149.092" y1="141.35" x2="152.209" y2="134.568" stroke="#141414" stroke-width="0.4"/>
<line x1="152.209" y1="134.568" x2="143.657" y2="126.015" stroke="#141414" stroke-width="0.4"/>
<line x1="143.657" y1="126.015" x2="136.874" y2="129.132" stroke="#141414" stroke-width="0.4"/>
<line x1="161.31" y1="178.004" x2="163.692" y2="182.428" stroke="#141414" stroke-width="0.4"/>
<line x1="163.692" y1="182.428" x2="158.928" y2="187.193" stroke="#141414" stroke-width="0.4"/>
<line x1="158.928" y1="187.193" x2="154.503" y2="184.811" stroke="#141414" stroke-width="0.4"/>
<circle cx="128.29" cy="132.766" r="2.12" fill="#ffe082" stroke="#464646" stroke-width="0.2"/>
<text x="128.29" y="133.77" font-size="2.87" text-anchor="middle" fill="#141414">80</text>
<circle cx="121.484" cy="156.741" r="2.12" fill="#ffe082" stroke="#464646" stroke-width="0.2"/>
<text x="121.484" y="157.75" font-size="2.87" text-anchor="middle" fill="#141414">81</text>
<circle cx="109.266" cy="144.523" r="2.12" fill="#ffe082" stroke="#464646" stroke-width="0.2"/>
<text x="109.266" y="145.53" font-size="2.87" text-anchor="middle" fill="#141414">82</text>
<circle cx="145.458" cy="149.934" r="2.12" fill="#ffe082" stroke="#464646" stroke-width="0.2"/>
<text x="145.458" y="150.94" font-size="2.87" text-anchor="middle" fill="#141414">83</text>
<circle cx="133.702" cy="168.959" r="2.12" fill="#ffe082" stroke="#464646" stroke-width="0.2"/>
<text x="133.702" y="169.96" font-size="2.87" text-anchor="middle" fill="#141414">84</text>
<circle cx="145.458" cy="132.766" r="2.12" fill="#ffe082" stroke="#464646" stroke-width="0.2"/>
<text x="145.458" y="133.77" font-size="2.87" text-anchor="middle" fill="#141414">85</text>
<circle cx="159.608" cy="183.109" r="2.12" fill="#99d9fa" stroke="#464646" stroke-width="0.2"/>
<text x="159.608" y="184.11" font-size="2.87" text-anchor="middle" fill="#141414">86</text>
<circle cx="150.896" cy="172.127" r="2.24" fill="#eaf1fe" stroke="#2e78e6" stroke-width="0.3"/>
<text x="150.896" y="173.00" font-size="2.60" text-anchor="middle" fill="#14306e" font-weight="bold">14</text>
<text x="205.0" y="295.0" font-size="3.2" text-anchor="end" fill="#737373" font-family="sans-serif">5 / 5</text>
<g pointer-events="none"><text x="105.0" y="83.2" text-anchor="middle" font-family="sans-serif" font-size="12.4" fill="#9aa0a6" fill-opacity="0.3" transform="rotate(-28 105.0 83.2)">papercraft.kr</text><text x="105.0" y="148.5" text-anchor="middle" font-family="sans-serif" font-size="12.4" fill="#9aa0a6" fill-opacity="0.3" transform="rotate(-28 105.0 148.5)">papercraft.kr</text><text x="105.0" y="213.8" text-anchor="middle" font-family="sans-serif" font-size="12.4" fill="#9aa0a6" fill-opacity="0.3" transform="rotate(-28 105.0 213.8)">papercraft.kr</text></g></svg>
