<svg xmlns="http://www.w3.org/2000/svg" xmlns:xlink="http://www.w3.org/1999/xlink" width="210.00mm" height="297.00mm" viewBox="0 0 210.00 297.00">
<rect x="0" y="0" width="210.00" height="297.00" fill="#ffffff" stroke="#cccccc" stroke-width="0.2"/>
<polygon points="57.536,35.449 52.942,30.249 31.498,30.249 26.904,35.449" fill="rgb(216,216,216)"/>
<polygon points="7.18,80.368 5.525,87.126 17.776,104.88 24.681,105.732" fill="rgb(216,216,216)"/>
<polygon points="32.448,76.771 36.305,82.462 30.869,102.734 24.681,105.732" fill="rgb(216,216,216)"/>
<polygon points="121.622,58.063 126.723,62.831 126.266,84.57 120.969,89.119" fill="rgb(216,216,216)"/>
<polygon points="111.525,126.916 104.626,129.67 81.78,120.131 78.888,113.288" fill="rgb(216,216,216)"/>
<line x1="57.536" y1="35.449" x2="32.448" y2="76.771" stroke="#8c8c8c" stroke-width="0.3" stroke-dasharray="1.2,0.8"/>
<line x1="7.18" y1="80.368" x2="32.448" y2="76.771" stroke="#8c8c8c" stroke-width="0.3" stroke-dasharray="1.2,0.8"/>
<line x1="80.568" y1="62.684" x2="32.448" y2="76.771" stroke="#8c8c8c" stroke-width="0.3" stroke-dasharray="1.2,0.8"/>
<line x1="80.568" y1="62.684" x2="120.969" y2="89.119" stroke="#8c8c8c" stroke-width="0.3" stroke-dasharray="1.2,0.8"/>
<line x1="120.969" y1="89.119" x2="111.525" y2="126.916" stroke="#8c8c8c" stroke-width="0.3" stroke-dasharray="1.2,0.8"/>
<line x1="32.448" y1="76.771" x2="26.904" y2="35.449" stroke="#8c8c8c" stroke-width="0.3" stroke-dasharray="1.2,0.8"/>
<line x1="104.787" y1="25.178" x2="80.568" y2="62.684" stroke="#8c8c8c" stroke-width="0.3" stroke-dasharray="1.2,0.8"/>
<line x1="78.888" y1="113.288" x2="120.969" y2="89.119" stroke="#8c8c8c" stroke-width="0.3" stroke-dasharray="1.2,0.8"/>
<line x1="26.904" y1="35.449" x2="57.536" y2="35.449" stroke="#8c8c8c" stroke-width="0.3" stroke-dasharray="1.2,0.8"/>
<line x1="24.681" y1="105.732" x2="7.18" y2="80.368" stroke="#8c8c8c" stroke-width="0.3" stroke-dasharray="1.2,0.8"/>
<line x1="24.681" y1="105.732" x2="32.448" y2="76.771" stroke="#8c8c8c" stroke-width="0.3" stroke-dasharray="1.2,0.8"/>
<line x1="120.969" y1="89.119" x2="121.622" y2="58.063" stroke="#8c8c8c" stroke-width="0.3" stroke-dasharray="1.2,0.8"/>
<line x1="78.888" y1="113.288" x2="111.525" y2="126.916" stroke="#8c8c8c" stroke-width="0.3" stroke-dasharray="1.2,0.8"/>
<line x1="57.536" y1="35.449" x2="80.568" y2="62.684" stroke="#141414" stroke-width="0.4"/>
<line x1="69.391" y1="10.844" x2="104.787" y2="25.178" stroke="#141414" stroke-width="0.4"/>
<line x1="80.568" y1="62.684" x2="69.391" y2="10.844" stroke="#141414" stroke-width="0.4"/>
<line x1="7.18" y1="80.368" x2="26.904" y2="35.449" stroke="#141414" stroke-width="0.4"/>
<line x1="104.787" y1="25.178" x2="133.413" y2="5.0" stroke="#141414" stroke-width="0.4"/>
<line x1="78.888" y1="113.288" x2="32.448" y2="76.771" stroke="#141414" stroke-width="0.4"/>
<line x1="133.413" y1="5.0" x2="121.622" y2="58.063" stroke="#141414" stroke-width="0.4"/>
<line x1="141.542" y1="140.823" x2="111.525" y2="126.916" stroke="#141414" stroke-width="0.4"/>
<line x1="120.969" y1="89.119" x2="141.542" y2="140.823" stroke="#141414" stroke-width="0.4"/>
<line x1="57.536" y1="35.449" x2="52.942" y2="30.249" stroke="#141414" stroke-width="0.4"/>
<line x1="52.942" y1="30.249" x2="31.498" y2="30.249" stroke="#141414" stroke-width="0.4"/>
<line x1="31.498" y1="30.249" x2="26.904" y2="35.449" stroke="#141414" stroke-width="0.4"/>
<line x1="7.18" y1="80.368" x2="5.525" y2="87.126" stroke="#141414" stroke-width="0.4"/>
<line x1="5.525" y1="87.126" x2="17.776" y2="104.88" stroke="#141414" stroke-width="0.4"/>
<line x1="17.776" y1="104.88" x2="24.681" y2="105.732" stroke="#141414" stroke-width="0.4"/>
<line x1="32.448" y1="76.771" x2="36.305" y2="82.462" stroke="#141414" stroke-width="0.4"/>
<line x1="36.305" y1="82.462" x2="30.869" y2="102.734" stroke="#141414" stroke-width="0.4"/>
<line x1="30.869" y1="102.734" x2="24.681" y2="105.732" stroke="#141414" stroke-width="0.4"/>
<line x1="121.622" y1="58.063" x2="126.723" y2="62.831" stroke="#141414" stroke-width="0.4"/>
<line x1="126.723" y1="62.831" x2="126.266" y2="84.57" stroke="#141414" stroke-width="0.4"/>
<line x1="126.266" y1="84.57" x2="120.969" y2="89.119" stroke="#141414" stroke-width="0.4"/>
<line x1="111.525" y1="126.916" x2="104.626" y2="129.67" stroke="#141414" stroke-width="0.4"/>
<line x1="104.626" y1="129.67" x2="81.78" y2="120.131" stroke="#141414" stroke-width="0.4"/>
<line x1="81.78" y1="120.131" x2="78.888" y2="113.288" stroke="#141414" stroke-width="0.4"/>
<circle cx="42.22" cy="32.849" r="1.74" fill="#ffe082" stroke="#464646" stroke-width="0.2"/>
<text x="42.22" y="33.67" font-size="2.36" text-anchor="middle" fill="#141414">7</text>
<circle cx="13.791" cy="94.527" r="1.74" fill="#ffe082" stroke="#464646" stroke-width="0.2"/>
<text x="13.791" y="95.35" font-size="2.36" text-anchor="middle" fill="#141414">18</text>
<circle cx="31.076" cy="91.925" r="1.74" fill="#ffe082" stroke="#464646" stroke-width="0.2"/>
<text x="31.076" y="92.75" font-size="2.36" text-anchor="middle" fill="#141414">25</text>
<circle cx="123.895" cy="73.646" r="1.74" fill="#ffe082" stroke="#464646" stroke-width="0.2"/>
<text x="123.895" y="74.47" font-size="2.36" text-anchor="middle" fill="#141414">36</text>
<circle cx="94.205" cy="122.501" r="1.74" fill="#ffe082" stroke="#464646" stroke-width="0.2"/>
<text x="94.205" y="123.33" font-size="2.36" text-anchor="middle" fill="#141414">43</text>
<circle cx="63.968" cy="84.248" r="4.60" fill="#eaf1fe" stroke="#2e78e6" stroke-width="0.3"/>
<text x="63.968" y="86.05" font-size="5.20" text-anchor="middle" fill="#14306e" font-weight="bold">5</text>
<polygon points="162.408,5.0 155.858,6.468 146.994,24.18 149.744,30.303" fill="rgb(216,216,216)"/>
<polygon points="149.744,30.303 144.655,35.759 145.167,60.721 150.476,65.964" fill="rgb(216,216,216)"/>
<polygon points="189.727,30.303 187.336,39.501 159.86,64.463 150.476,65.964" fill="rgb(216,216,216)"/>
<line x1="149.744" y1="30.303" x2="189.727" y2="30.303" stroke="#8c8c8c" stroke-width="0.3" stroke-dasharray="1.2,0.8"/>
<line x1="149.744" y1="30.303" x2="162.408" y2="5.0" stroke="#8c8c8c" stroke-width="0.3" stroke-dasharray="1.2,0.8"/>
<line x1="150.476" y1="65.964" x2="149.744" y2="30.303" stroke="#8c8c8c" stroke-width="0.3" stroke-dasharray="1.2,0.8"/>
<line x1="150.476" y1="65.964" x2="189.727" y2="30.303" stroke="#8c8c8c" stroke-width="0.3" stroke-dasharray="1.2,0.8"/>
<line x1="162.408" y1="5.0" x2="189.727" y2="30.303" stroke="#141414" stroke-width="0.4"/>
<line x1="162.408" y1="5.0" x2="155.858" y2="6.468" stroke="#141414" stroke-width="0.4"/>
<line x1="155.858" y1="6.468" x2="146.994" y2="24.18" stroke="#141414" stroke-width="0.4"/>
<line x1="146.994" y1="24.18" x2="149.744" y2="30.303" stroke="#141414" stroke-width="0.4"/>
<line x1="149.744" y1="30.303" x2="144.655" y2="35.759" stroke="#141414" stroke-width="0.4"/>
<line x1="144.655" y1="35.759" x2="145.167" y2="60.721" stroke="#141414" stroke-width="0.4"/>
<line x1="145.167" y1="60.721" x2="150.476" y2="65.964" stroke="#141414" stroke-width="0.4"/>
<line x1="189.727" y1="30.303" x2="187.336" y2="39.501" stroke="#141414" stroke-width="0.4"/>
<line x1="187.336" y1="39.501" x2="159.86" y2="64.463" stroke="#141414" stroke-width="0.4"/>
<line x1="159.86" y1="64.463" x2="150.476" y2="65.964" stroke="#141414" stroke-width="0.4"/>
<circle cx="153.751" cy="16.488" r="1.74" fill="#ffe082" stroke="#464646" stroke-width="0.2"/>
<text x="153.751" y="17.31" font-size="2.36" text-anchor="middle" fill="#141414">5</text>
<circle cx="147.51" cy="48.187" r="1.74" fill="#ffe082" stroke="#464646" stroke-width="0.2"/>
<text x="147.51" y="49.01" font-size="2.36" text-anchor="middle" fill="#141414">8</text>
<circle cx="171.85" cy="50.058" r="1.74" fill="#ffe082" stroke="#464646" stroke-width="0.2"/>
<text x="171.85" y="50.88" font-size="2.36" text-anchor="middle" fill="#141414">13</text>
<circle cx="167.293" cy="21.869" r="4.60" fill="#eaf1fe" stroke="#2e78e6" stroke-width="0.3"/>
<text x="167.293" y="23.67" font-size="5.20" text-anchor="middle" fill="#14306e" font-weight="bold">6</text>
<polygon points="37.062,195.012 28.007,191.212 5.563,159.466 5.0,149.661" fill="rgb(216,216,216)"/>
<polygon points="5.0,149.661 13.548,144.461 53.436,144.461 61.984,149.661" fill="rgb(216,216,216)"/>
<polygon points="101.768,183.184 99.151,174.179 71.302,150.713 61.984,149.661" fill="rgb(216,216,216)"/>
<line x1="61.984" y1="149.661" x2="37.062" y2="195.012" stroke="#8c8c8c" stroke-width="0.3" stroke-dasharray="1.2,0.8"/>
<line x1="68.989" y1="181.734" x2="61.984" y2="149.661" stroke="#8c8c8c" stroke-width="0.3" stroke-dasharray="1.2,0.8"/>
<line x1="5.0" y1="149.661" x2="37.062" y2="195.012" stroke="#8c8c8c" stroke-width="0.3" stroke-dasharray="1.2,0.8"/>
<line x1="61.984" y1="149.661" x2="5.0" y2="149.661" stroke="#8c8c8c" stroke-width="0.3" stroke-dasharray="1.2,0.8"/>
<line x1="61.984" y1="149.661" x2="101.768" y2="183.184" stroke="#8c8c8c" stroke-width="0.3" stroke-dasharray="1.2,0.8"/>
<line x1="68.989" y1="181.734" x2="37.062" y2="195.012" stroke="#141414" stroke-width="0.4"/>
<line x1="101.767" y1="183.184" x2="68.989" y2="181.734" stroke="#141414" stroke-width="0.4"/>
<line x1="37.062" y1="195.012" x2="28.007" y2="191.212" stroke="#141414" stroke-width="0.4"/>
<line x1="28.007" y1="191.212" x2="5.563" y2="159.466" stroke="#141414" stroke-width="0.4"/>
<line x1="5.563" y1="159.466" x2="5.0" y2="149.661" stroke="#141414" stroke-width="0.4"/>
<line x1="5.0" y1="149.661" x2="13.548" y2="144.461" stroke="#141414" stroke-width="0.4"/>
<line x1="13.548" y1="144.461" x2="53.436" y2="144.461" stroke="#141414" stroke-width="0.4"/>
<line x1="53.436" y1="144.461" x2="61.984" y2="149.661" stroke="#141414" stroke-width="0.4"/>
<line x1="101.768" y1="183.184" x2="99.151" y2="174.179" stroke="#141414" stroke-width="0.4"/>
<line x1="99.151" y1="174.179" x2="71.302" y2="150.713" stroke="#141414" stroke-width="0.4"/>
<line x1="71.302" y1="150.713" x2="61.984" y2="149.661" stroke="#141414" stroke-width="0.4"/>
<circle cx="18.908" cy="173.838" r="1.74" fill="#ffe082" stroke="#464646" stroke-width="0.2"/>
<text x="18.908" y="174.66" font-size="2.36" text-anchor="middle" fill="#141414">19</text>
<circle cx="33.492" cy="147.061" r="1.74" fill="#ffe082" stroke="#464646" stroke-width="0.2"/>
<text x="33.492" y="147.89" font-size="2.36" text-anchor="middle" fill="#141414">20</text>
<circle cx="83.551" cy="164.435" r="1.74" fill="#ffe082" stroke="#464646" stroke-width="0.2"/>
<text x="83.551" y="165.26" font-size="2.36" text-anchor="middle" fill="#141414">31</text>
<circle cx="34.682" cy="164.778" r="4.60" fill="#eaf1fe" stroke="#2e78e6" stroke-width="0.3"/>
<text x="34.682" y="166.58" font-size="5.20" text-anchor="middle" fill="#14306e" font-weight="bold">7</text>
<text x="205.0" y="295.0" font-size="3.2" text-anchor="end" fill="#737373" font-family="sans-serif">5 / 7</text>
<g pointer-events="none"><text x="105.0" y="83.2" text-anchor="middle" font-family="sans-serif" font-size="12.4" fill="#9aa0a6" fill-opacity="0.3" transform="rotate(-28 105.0 83.2)">papercraft.kr</text><text x="105.0" y="148.5" text-anchor="middle" font-family="sans-serif" font-size="12.4" fill="#9aa0a6" fill-opacity="0.3" transform="rotate(-28 105.0 148.5)">papercraft.kr</text><text x="105.0" y="213.8" text-anchor="middle" font-family="sans-serif" font-size="12.4" fill="#9aa0a6" fill-opacity="0.3" transform="rotate(-28 105.0 213.8)">papercraft.kr</text></g></svg>
