<svg xmlns="http://www.w3.org/2000/svg" xmlns:xlink="http://www.w3.org/1999/xlink" width="210.00mm" height="297.00mm" viewBox="0 0 210.00 297.00">
<rect x="0" y="0" width="210.00" height="297.00" fill="#ffffff" stroke="#cccccc" stroke-width="0.2"/>
<polygon points="15.953,206.458 10.753,215.083 10.753,255.333 15.953,263.958" fill="rgb(216,216,216)"/>
<polygon points="31.557,179.961 34.329,193.51 23.406,252.308 15.953,263.958" fill="rgb(216,216,216)"/>
<polygon points="50.781,104.489 58.242,101.955 72.033,78.018 70.482,70.293" fill="rgb(216,216,216)"/>
<polygon points="64.974,55.226 66.328,44.611 92.193,9.453 101.924,5.0" fill="rgb(216,216,216)"/>
<polygon points="101.869,31.1 107.077,27.196 107.116,8.926 101.924,5.0" fill="rgb(216,216,216)"/>
<line x1="15.953" y1="206.458" x2="31.557" y2="179.961" stroke="#8c8c8c" stroke-width="0.3" stroke-dasharray="1.2,0.8"/>
<line x1="50.781" y1="104.489" x2="37.315" y2="90.024" stroke="#8c8c8c" stroke-width="0.3" stroke-dasharray="1.2,0.8"/>
<line x1="37.315" y1="90.024" x2="70.482" y2="70.293" stroke="#8c8c8c" stroke-width="0.3" stroke-dasharray="1.2,0.8"/>
<line x1="64.974" y1="55.227" x2="70.482" y2="70.293" stroke="#8c8c8c" stroke-width="0.3" stroke-dasharray="1.2,0.8"/>
<line x1="64.974" y1="55.227" x2="101.869" y2="31.1" stroke="#8c8c8c" stroke-width="0.3" stroke-dasharray="1.2,0.8"/>
<line x1="15.953" y1="263.958" x2="15.953" y2="206.458" stroke="#8c8c8c" stroke-width="0.3" stroke-dasharray="1.2,0.8"/>
<line x1="15.953" y1="263.958" x2="31.557" y2="179.961" stroke="#8c8c8c" stroke-width="0.3" stroke-dasharray="1.2,0.8"/>
<line x1="70.482" y1="70.293" x2="50.781" y2="104.489" stroke="#8c8c8c" stroke-width="0.3" stroke-dasharray="1.2,0.8"/>
<line x1="101.924" y1="5.0" x2="64.974" y2="55.226" stroke="#8c8c8c" stroke-width="0.3" stroke-dasharray="1.2,0.8"/>
<line x1="101.924" y1="5.0" x2="101.869" y2="31.1" stroke="#8c8c8c" stroke-width="0.3" stroke-dasharray="1.2,0.8"/>
<line x1="15.953" y1="206.458" x2="17.501" y2="162.611" stroke="#141414" stroke-width="0.4"/>
<line x1="50.781" y1="104.489" x2="31.557" y2="179.961" stroke="#141414" stroke-width="0.4"/>
<line x1="17.501" y1="162.611" x2="37.315" y2="90.024" stroke="#141414" stroke-width="0.4"/>
<line x1="37.315" y1="90.024" x2="64.974" y2="55.227" stroke="#141414" stroke-width="0.4"/>
<line x1="101.869" y1="31.1" x2="70.482" y2="70.293" stroke="#141414" stroke-width="0.4"/>
<line x1="15.953" y1="206.458" x2="10.753" y2="215.083" stroke="#141414" stroke-width="0.4"/>
<line x1="10.753" y1="215.083" x2="10.753" y2="255.333" stroke="#141414" stroke-width="0.4"/>
<line x1="10.753" y1="255.333" x2="15.953" y2="263.958" stroke="#141414" stroke-width="0.4"/>
<line x1="31.557" y1="179.961" x2="34.329" y2="193.51" stroke="#141414" stroke-width="0.4"/>
<line x1="34.329" y1="193.51" x2="23.406" y2="252.308" stroke="#141414" stroke-width="0.4"/>
<line x1="23.406" y1="252.308" x2="15.953" y2="263.958" stroke="#141414" stroke-width="0.4"/>
<line x1="50.781" y1="104.489" x2="58.242" y2="101.955" stroke="#141414" stroke-width="0.4"/>
<line x1="58.242" y1="101.955" x2="72.033" y2="78.018" stroke="#141414" stroke-width="0.4"/>
<line x1="72.033" y1="78.018" x2="70.482" y2="70.293" stroke="#141414" stroke-width="0.4"/>
<line x1="64.974" y1="55.226" x2="66.328" y2="44.611" stroke="#141414" stroke-width="0.4"/>
<line x1="66.328" y1="44.611" x2="92.193" y2="9.453" stroke="#141414" stroke-width="0.4"/>
<line x1="92.193" y1="9.453" x2="101.924" y2="5.0" stroke="#141414" stroke-width="0.4"/>
<line x1="101.869" y1="31.1" x2="107.077" y2="27.196" stroke="#141414" stroke-width="0.4"/>
<line x1="107.077" y1="27.196" x2="107.116" y2="8.926" stroke="#141414" stroke-width="0.4"/>
<line x1="107.116" y1="8.926" x2="101.924" y2="5.0" stroke="#141414" stroke-width="0.4"/>
<circle cx="13.353" cy="235.208" r="2.29" fill="#ffe082" stroke="#464646" stroke-width="0.2"/>
<text x="13.353" y="236.29" font-size="3.11" text-anchor="middle" fill="#141414">1</text>
<circle cx="26.312" cy="222.434" r="2.29" fill="#ffe082" stroke="#464646" stroke-width="0.2"/>
<text x="26.312" y="223.52" font-size="3.11" text-anchor="middle" fill="#141414">3</text>
<circle cx="62.885" cy="88.689" r="2.29" fill="#ffe082" stroke="#464646" stroke-width="0.2"/>
<text x="62.885" y="89.78" font-size="3.11" text-anchor="middle" fill="#141414">11</text>
<circle cx="81.355" cy="28.573" r="2.29" fill="#ffe082" stroke="#464646" stroke-width="0.2"/>
<text x="81.355" y="29.66" font-size="3.11" text-anchor="middle" fill="#141414">33</text>
<circle cx="104.496" cy="18.055" r="2.29" fill="#ffe082" stroke="#464646" stroke-width="0.2"/>
<text x="104.496" y="19.14" font-size="3.11" text-anchor="middle" fill="#141414">40</text>
<circle cx="33.28" cy="149.02" r="4.60" fill="#eaf1fe" stroke="#2e78e6" stroke-width="0.3"/>
<text x="33.28" y="150.82" font-size="5.20" text-anchor="middle" fill="#14306e" font-weight="bold">2</text>
<polygon points="125.26,84.196 120.06,92.962 120.06,133.871 125.26,142.637" fill="rgb(216,216,216)"/>
<polygon points="152.797,234.365 154.877,240.626 144.381,256.401 137.802,256.901" fill="rgb(216,216,216)"/>
<line x1="152.798" y1="234.365" x2="125.26" y2="142.637" stroke="#8c8c8c" stroke-width="0.3" stroke-dasharray="1.2,0.8"/>
<line x1="123.864" y1="55.337" x2="141.583" y2="55.947" stroke="#8c8c8c" stroke-width="0.3" stroke-dasharray="1.2,0.8"/>
<line x1="125.26" y1="84.196" x2="141.583" y2="55.947" stroke="#8c8c8c" stroke-width="0.3" stroke-dasharray="1.2,0.8"/>
<line x1="155.762" y1="123.159" x2="125.26" y2="142.637" stroke="#8c8c8c" stroke-width="0.3" stroke-dasharray="1.2,0.8"/>
<line x1="125.26" y1="142.637" x2="125.26" y2="84.196" stroke="#8c8c8c" stroke-width="0.3" stroke-dasharray="1.2,0.8"/>
<line x1="137.802" y1="256.901" x2="152.797" y2="234.365" stroke="#8c8c8c" stroke-width="0.3" stroke-dasharray="1.2,0.8"/>
<line x1="123.864" y1="55.337" x2="104.363" y2="5.0" stroke="#141414" stroke-width="0.4"/>
<line x1="104.363" y1="5.0" x2="141.583" y2="55.947" stroke="#141414" stroke-width="0.4"/>
<line x1="125.26" y1="84.196" x2="123.864" y2="55.337" stroke="#141414" stroke-width="0.4"/>
<line x1="141.583" y1="55.947" x2="155.762" y2="123.159" stroke="#141414" stroke-width="0.4"/>
<line x1="155.762" y1="123.159" x2="157.474" y2="178.895" stroke="#141414" stroke-width="0.4"/>
<line x1="122.827" y1="214.248" x2="125.26" y2="142.637" stroke="#141414" stroke-width="0.4"/>
<line x1="157.474" y1="178.895" x2="152.798" y2="234.365" stroke="#141414" stroke-width="0.4"/>
<line x1="152.798" y1="234.365" x2="137.803" y2="256.901" stroke="#141414" stroke-width="0.4"/>
<line x1="137.803" y1="256.901" x2="122.827" y2="214.248" stroke="#141414" stroke-width="0.4"/>
<line x1="125.26" y1="84.196" x2="120.06" y2="92.962" stroke="#141414" stroke-width="0.4"/>
<line x1="120.06" y1="92.962" x2="120.06" y2="133.871" stroke="#141414" stroke-width="0.4"/>
<line x1="120.06" y1="133.871" x2="125.26" y2="142.637" stroke="#141414" stroke-width="0.4"/>
<line x1="152.797" y1="234.365" x2="154.877" y2="240.626" stroke="#141414" stroke-width="0.4"/>
<line x1="154.877" y1="240.626" x2="144.381" y2="256.401" stroke="#141414" stroke-width="0.4"/>
<line x1="144.381" y1="256.401" x2="137.802" y2="256.901" stroke="#141414" stroke-width="0.4"/>
<circle cx="122.66" cy="113.417" r="2.29" fill="#ffe082" stroke="#464646" stroke-width="0.2"/>
<text x="122.66" y="114.50" font-size="3.11" text-anchor="middle" fill="#141414">34</text>
<circle cx="147.464" cy="247.073" r="2.29" fill="#ffe082" stroke="#464646" stroke-width="0.2"/>
<text x="147.464" y="248.16" font-size="3.11" text-anchor="middle" fill="#141414">48</text>
<circle cx="133.628" cy="197.083" r="4.60" fill="#eaf1fe" stroke="#2e78e6" stroke-width="0.3"/>
<text x="133.628" y="198.88" font-size="5.20" text-anchor="middle" fill="#14306e" font-weight="bold">3</text>
<text x="205.0" y="295.0" font-size="3.2" text-anchor="end" fill="#737373" font-family="sans-serif">2 / 8</text>
<g pointer-events="none"><text x="105.0" y="83.2" text-anchor="middle" font-family="sans-serif" font-size="12.4" fill="#9aa0a6" fill-opacity="0.3" transform="rotate(-28 105.0 83.2)">papercraft.kr</text><text x="105.0" y="148.5" text-anchor="middle" font-family="sans-serif" font-size="12.4" fill="#9aa0a6" fill-opacity="0.3" transform="rotate(-28 105.0 148.5)">papercraft.kr</text><text x="105.0" y="213.8" text-anchor="middle" font-family="sans-serif" font-size="12.4" fill="#9aa0a6" fill-opacity="0.3" transform="rotate(-28 105.0 213.8)">papercraft.kr</text></g></svg>
