<svg xmlns="http://www.w3.org/2000/svg" xmlns:xlink="http://www.w3.org/1999/xlink" width="210.00mm" height="297.00mm" viewBox="0 0 210.00 297.00">
<rect x="0" y="0" width="210.00" height="297.00" fill="#ffffff" stroke="#cccccc" stroke-width="0.2"/>
<polygon points="61.064,121.927 65.269,128.927 84.891,128.927 89.096,121.927" fill="rgb(216,216,216)"/>
<polygon points="61.064,77.48 65.269,70.48 84.891,70.48 89.096,77.48" fill="rgb(216,216,216)"/>
<polygon points="89.096,121.927 96.096,115.26 96.096,84.147 89.096,77.48" fill="rgb(216,216,216)"/>
<polygon points="61.064,149.959 56.859,156.959 37.237,156.959 33.032,149.959" fill="rgb(216,216,216)"/>
<polygon points="33.032,121.927 26.032,115.26 26.032,84.147 33.032,77.48" fill="rgb(216,216,216)"/>
<polygon points="33.032,121.927 26.032,126.132 26.032,145.754 33.032,149.959" fill="rgb(216,216,216)"/>
<polygon points="33.032,77.48 26.032,73.275 26.032,53.652 33.032,49.448" fill="rgb(216,216,216)"/>
<polygon points="61.064,121.927 65.269,128.927 84.891,128.927 89.096,121.927" fill="#99d9fa"/>
<line x1="61.064" y1="121.927" x2="61.064" y2="77.48" stroke="#8c8c8c" stroke-width="0.3" stroke-dasharray="1.2,0.8"/>
<line x1="61.064" y1="121.927" x2="33.032" y2="121.927" stroke="#8c8c8c" stroke-width="0.3" stroke-dasharray="1.2,0.8"/>
<line x1="33.032" y1="77.48" x2="61.064" y2="77.48" stroke="#8c8c8c" stroke-width="0.3" stroke-dasharray="1.2,0.8"/>
<line x1="33.032" y1="49.447" x2="61.064" y2="49.447" stroke="#8c8c8c" stroke-width="0.3" stroke-dasharray="1.2,0.8"/>
<line x1="33.032" y1="49.447" x2="33.032" y2="5.0" stroke="#8c8c8c" stroke-width="0.3" stroke-dasharray="1.2,0.8"/>
<line x1="89.096" y1="121.927" x2="61.064" y2="121.927" stroke="#8c8c8c" stroke-width="0.3" stroke-dasharray="1.2,0.8"/>
<line x1="89.096" y1="77.48" x2="61.064" y2="77.48" stroke="#8c8c8c" stroke-width="0.3" stroke-dasharray="1.2,0.8"/>
<line x1="89.096" y1="77.48" x2="89.096" y2="121.927" stroke="#8c8c8c" stroke-width="0.3" stroke-dasharray="1.2,0.8"/>
<line x1="33.032" y1="149.959" x2="61.064" y2="149.959" stroke="#8c8c8c" stroke-width="0.3" stroke-dasharray="1.2,0.8"/>
<line x1="33.032" y1="77.48" x2="33.032" y2="121.927" stroke="#8c8c8c" stroke-width="0.3" stroke-dasharray="1.2,0.8"/>
<line x1="33.032" y1="149.959" x2="33.032" y2="121.927" stroke="#8c8c8c" stroke-width="0.3" stroke-dasharray="1.2,0.8"/>
<line x1="33.032" y1="49.448" x2="33.032" y2="77.48" stroke="#8c8c8c" stroke-width="0.3" stroke-dasharray="1.2,0.8"/>
<line x1="61.064" y1="121.927" x2="61.064" y2="149.959" stroke="#141414" stroke-width="0.4"/>
<line x1="61.064" y1="49.447" x2="61.064" y2="77.48" stroke="#141414" stroke-width="0.4"/>
<line x1="61.064" y1="5.0" x2="61.064" y2="49.447" stroke="#141414" stroke-width="0.4"/>
<line x1="33.032" y1="5.0" x2="61.064" y2="5.0" stroke="#141414" stroke-width="0.4"/>
<line x1="5.0" y1="49.447" x2="5.0" y2="5.0" stroke="#141414" stroke-width="0.4"/>
<line x1="5.0" y1="5.0" x2="33.032" y2="5.0" stroke="#141414" stroke-width="0.4"/>
<line x1="33.032" y1="49.447" x2="5.0" y2="49.447" stroke="#141414" stroke-width="0.4"/>
<line x1="61.064" y1="121.927" x2="65.269" y2="128.927" stroke="#141414" stroke-width="0.4"/>
<line x1="65.269" y1="128.927" x2="84.891" y2="128.927" stroke="#141414" stroke-width="0.4"/>
<line x1="84.891" y1="128.927" x2="89.096" y2="121.927" stroke="#141414" stroke-width="0.4"/>
<line x1="61.064" y1="77.48" x2="65.269" y2="70.48" stroke="#141414" stroke-width="0.4"/>
<line x1="65.269" y1="70.48" x2="84.891" y2="70.48" stroke="#141414" stroke-width="0.4"/>
<line x1="84.891" y1="70.48" x2="89.096" y2="77.48" stroke="#141414" stroke-width="0.4"/>
<line x1="89.096" y1="121.927" x2="96.096" y2="115.26" stroke="#141414" stroke-width="0.4"/>
<line x1="96.096" y1="115.26" x2="96.096" y2="84.147" stroke="#141414" stroke-width="0.4"/>
<line x1="96.096" y1="84.147" x2="89.096" y2="77.48" stroke="#141414" stroke-width="0.4"/>
<line x1="61.064" y1="149.959" x2="56.859" y2="156.959" stroke="#141414" stroke-width="0.4"/>
<line x1="56.859" y1="156.959" x2="37.237" y2="156.959" stroke="#141414" stroke-width="0.4"/>
<line x1="37.237" y1="156.959" x2="33.032" y2="149.959" stroke="#141414" stroke-width="0.4"/>
<line x1="33.032" y1="121.927" x2="26.032" y2="115.26" stroke="#141414" stroke-width="0.4"/>
<line x1="26.032" y1="115.26" x2="26.032" y2="84.147" stroke="#141414" stroke-width="0.4"/>
<line x1="26.032" y1="84.147" x2="33.032" y2="77.48" stroke="#141414" stroke-width="0.4"/>
<line x1="33.032" y1="121.927" x2="26.032" y2="126.132" stroke="#141414" stroke-width="0.4"/>
<line x1="26.032" y1="126.132" x2="26.032" y2="145.754" stroke="#141414" stroke-width="0.4"/>
<line x1="26.032" y1="145.754" x2="33.032" y2="149.959" stroke="#141414" stroke-width="0.4"/>
<line x1="33.032" y1="77.48" x2="26.032" y2="73.275" stroke="#141414" stroke-width="0.4"/>
<line x1="26.032" y1="73.275" x2="26.032" y2="53.652" stroke="#141414" stroke-width="0.4"/>
<line x1="26.032" y1="53.652" x2="33.032" y2="49.448" stroke="#141414" stroke-width="0.4"/>
<circle cx="75.08" cy="125.427" r="2.01" fill="#99d9fa" stroke="#464646" stroke-width="0.2"/>
<text x="75.08" y="126.38" font-size="2.73" text-anchor="middle" fill="#141414">32</text>
<circle cx="75.08" cy="73.98" r="2.01" fill="#ffe082" stroke="#464646" stroke-width="0.2"/>
<text x="75.08" y="74.94" font-size="2.73" text-anchor="middle" fill="#141414">33</text>
<circle cx="92.596" cy="99.703" r="2.01" fill="#ffe082" stroke="#464646" stroke-width="0.2"/>
<text x="92.596" y="100.66" font-size="2.73" text-anchor="middle" fill="#141414">34</text>
<circle cx="47.048" cy="153.459" r="2.01" fill="#ffe082" stroke="#464646" stroke-width="0.2"/>
<text x="47.048" y="154.41" font-size="2.73" text-anchor="middle" fill="#141414">35</text>
<circle cx="29.532" cy="99.703" r="2.01" fill="#ffe082" stroke="#464646" stroke-width="0.2"/>
<text x="29.532" y="100.66" font-size="2.73" text-anchor="middle" fill="#141414">36</text>
<circle cx="29.532" cy="135.943" r="2.01" fill="#ffe082" stroke="#464646" stroke-width="0.2"/>
<text x="29.532" y="136.90" font-size="2.73" text-anchor="middle" fill="#141414">37</text>
<circle cx="29.532" cy="63.463" r="2.01" fill="#ffe082" stroke="#464646" stroke-width="0.2"/>
<text x="29.532" y="64.42" font-size="2.73" text-anchor="middle" fill="#141414">38</text>
<circle cx="42.376" cy="140.615" r="4.60" fill="#eaf1fe" stroke="#2e78e6" stroke-width="0.3"/>
<text x="42.376" y="142.42" font-size="5.20" text-anchor="middle" fill="#14306e" font-weight="bold">5</text>
<text x="205.0" y="295.0" font-size="3.2" text-anchor="end" fill="#737373" font-family="sans-serif">4 / 4</text>
<g pointer-events="none"><text x="105.0" y="83.2" text-anchor="middle" font-family="sans-serif" font-size="12.4" fill="#9aa0a6" fill-opacity="0.3" transform="rotate(-28 105.0 83.2)">papercraft.kr</text><text x="105.0" y="148.5" text-anchor="middle" font-family="sans-serif" font-size="12.4" fill="#9aa0a6" fill-opacity="0.3" transform="rotate(-28 105.0 148.5)">papercraft.kr</text><text x="105.0" y="213.8" text-anchor="middle" font-family="sans-serif" font-size="12.4" fill="#9aa0a6" fill-opacity="0.3" transform="rotate(-28 105.0 213.8)">papercraft.kr</text></g></svg>
