<svg xmlns="http://www.w3.org/2000/svg" xmlns:xlink="http://www.w3.org/1999/xlink" width="210.00mm" height="297.00mm" viewBox="0 0 210.00 297.00">
<rect x="0" y="0" width="210.00" height="297.00" fill="#ffffff" stroke="#cccccc" stroke-width="0.2"/>
<polygon points="178.849,168.976 178.032,179.908 150.703,208.248 139.808,209.462" fill="rgb(216,216,216)"/>
<polygon points="178.827,163.29 173.855,148.2 160.554,134.607 145.575,129.309" fill="rgb(216,216,216)"/>
<polygon points="178.849,168.976 178.37,163.732 94.284,166.477 93.651,166.458" fill="rgb(216,216,216)"/>
<polygon points="139.808,209.462 136.719,220.14 103.644,243.158 92.558,242.345" fill="rgb(216,216,216)"/>
<polygon points="92.558,242.345 81.451,242.831 49.052,218.846 46.274,208.081" fill="rgb(216,216,216)"/>
<polygon points="46.274,208.081 35.417,206.548 8.915,177.412 8.414,166.458" fill="rgb(216,216,216)"/>
<polygon points="8.414,166.458 8.021,156.475 30.378,131.839 40.353,131.265" fill="rgb(216,216,216)"/>
<polygon points="70.378,8.253 69.034,10.542 130.797,67.055 131.251,67.496" fill="rgb(216,216,216)"/>
<polygon points="40.353,131.265 45.456,121.503 82.003,106.033 92.563,109.164" fill="rgb(216,216,216)"/>
<polygon points="40.353,131.265 45.456,121.503 82.003,106.033 92.563,109.164" fill="#99d9fa"/>
<line x1="192.992" y1="125.837" x2="131.251" y2="67.496" stroke="#8c8c8c" stroke-width="0.3" stroke-dasharray="1.2,0.8"/>
<line x1="93.651" y1="166.458" x2="92.558" y2="242.345" stroke="#8c8c8c" stroke-width="0.3" stroke-dasharray="1.2,0.8"/>
<line x1="183.582" y1="12.97" x2="131.251" y2="67.496" stroke="#8c8c8c" stroke-width="0.3" stroke-dasharray="1.2,0.8"/>
<line x1="8.414" y1="166.458" x2="93.651" y2="166.458" stroke="#8c8c8c" stroke-width="0.3" stroke-dasharray="1.2,0.8"/>
<line x1="92.563" y1="109.164" x2="145.575" y2="129.309" stroke="#8c8c8c" stroke-width="0.3" stroke-dasharray="1.2,0.8"/>
<line x1="92.563" y1="109.164" x2="93.651" y2="166.458" stroke="#8c8c8c" stroke-width="0.3" stroke-dasharray="1.2,0.8"/>
<line x1="131.251" y1="67.496" x2="92.563" y2="109.164" stroke="#8c8c8c" stroke-width="0.3" stroke-dasharray="1.2,0.8"/>
<line x1="139.808" y1="209.462" x2="178.849" y2="168.976" stroke="#8c8c8c" stroke-width="0.3" stroke-dasharray="1.2,0.8"/>
<line x1="145.575" y1="129.309" x2="178.827" y2="163.29" stroke="#8c8c8c" stroke-width="0.3" stroke-dasharray="1.2,0.8"/>
<line x1="93.651" y1="166.458" x2="178.849" y2="168.976" stroke="#8c8c8c" stroke-width="0.3" stroke-dasharray="1.2,0.8"/>
<line x1="92.558" y1="242.345" x2="139.808" y2="209.462" stroke="#8c8c8c" stroke-width="0.3" stroke-dasharray="1.2,0.8"/>
<line x1="46.274" y1="208.081" x2="92.558" y2="242.345" stroke="#8c8c8c" stroke-width="0.3" stroke-dasharray="1.2,0.8"/>
<line x1="8.414" y1="166.458" x2="46.274" y2="208.081" stroke="#8c8c8c" stroke-width="0.3" stroke-dasharray="1.2,0.8"/>
<line x1="40.353" y1="131.265" x2="8.414" y2="166.458" stroke="#8c8c8c" stroke-width="0.3" stroke-dasharray="1.2,0.8"/>
<line x1="131.251" y1="67.496" x2="70.378" y2="8.253" stroke="#8c8c8c" stroke-width="0.3" stroke-dasharray="1.2,0.8"/>
<line x1="92.563" y1="109.164" x2="40.353" y2="131.265" stroke="#8c8c8c" stroke-width="0.3" stroke-dasharray="1.2,0.8"/>
<line x1="193.914" y1="69.601" x2="192.992" y2="125.837" stroke="#141414" stroke-width="0.4"/>
<line x1="192.992" y1="125.837" x2="145.575" y2="129.309" stroke="#141414" stroke-width="0.4"/>
<line x1="178.827" y1="163.29" x2="93.651" y2="166.458" stroke="#141414" stroke-width="0.4"/>
<line x1="183.582" y1="12.97" x2="193.914" y2="69.601" stroke="#141414" stroke-width="0.4"/>
<line x1="126.55" y1="5.0" x2="183.582" y2="12.97" stroke="#141414" stroke-width="0.4"/>
<line x1="70.378" y1="8.253" x2="126.55" y2="5.0" stroke="#141414" stroke-width="0.4"/>
<line x1="68.522" y1="57.818" x2="68.458" y2="10.293" stroke="#141414" stroke-width="0.4"/>
<line x1="68.458" y1="10.293" x2="131.251" y2="67.496" stroke="#141414" stroke-width="0.4"/>
<line x1="92.563" y1="109.164" x2="68.522" y2="57.818" stroke="#141414" stroke-width="0.4"/>
<line x1="178.849" y1="168.976" x2="178.032" y2="179.908" stroke="#141414" stroke-width="0.4"/>
<line x1="178.032" y1="179.908" x2="150.703" y2="208.248" stroke="#141414" stroke-width="0.4"/>
<line x1="150.703" y1="208.248" x2="139.808" y2="209.462" stroke="#141414" stroke-width="0.4"/>
<line x1="178.827" y1="163.29" x2="173.855" y2="148.2" stroke="#141414" stroke-width="0.4"/>
<line x1="173.855" y1="148.2" x2="160.554" y2="134.607" stroke="#141414" stroke-width="0.4"/>
<line x1="160.554" y1="134.607" x2="145.575" y2="129.309" stroke="#141414" stroke-width="0.4"/>
<line x1="178.849" y1="168.976" x2="178.37" y2="163.732" stroke="#141414" stroke-width="0.4"/>
<line x1="178.37" y1="163.732" x2="94.284" y2="166.477" stroke="#141414" stroke-width="0.4"/>
<line x1="94.284" y1="166.477" x2="93.651" y2="166.458" stroke="#141414" stroke-width="0.4"/>
<line x1="139.808" y1="209.462" x2="136.719" y2="220.14" stroke="#141414" stroke-width="0.4"/>
<line x1="136.719" y1="220.14" x2="103.644" y2="243.158" stroke="#141414" stroke-width="0.4"/>
<line x1="103.644" y1="243.158" x2="92.558" y2="242.345" stroke="#141414" stroke-width="0.4"/>
<line x1="92.558" y1="242.345" x2="81.451" y2="242.831" stroke="#141414" stroke-width="0.4"/>
<line x1="81.451" y1="242.831" x2="49.052" y2="218.846" stroke="#141414" stroke-width="0.4"/>
<line x1="49.052" y1="218.846" x2="46.274" y2="208.081" stroke="#141414" stroke-width="0.4"/>
<line x1="46.274" y1="208.081" x2="35.417" y2="206.548" stroke="#141414" stroke-width="0.4"/>
<line x1="35.417" y1="206.548" x2="8.915" y2="177.412" stroke="#141414" stroke-width="0.4"/>
<line x1="8.915" y1="177.412" x2="8.414" y2="166.458" stroke="#141414" stroke-width="0.4"/>
<line x1="8.414" y1="166.458" x2="8.021" y2="156.475" stroke="#141414" stroke-width="0.4"/>
<line x1="8.021" y1="156.475" x2="30.378" y2="131.839" stroke="#141414" stroke-width="0.4"/>
<line x1="30.378" y1="131.839" x2="40.353" y2="131.265" stroke="#141414" stroke-width="0.4"/>
<line x1="70.378" y1="8.253" x2="69.034" y2="10.542" stroke="#141414" stroke-width="0.4"/>
<line x1="69.034" y1="10.542" x2="130.797" y2="67.055" stroke="#141414" stroke-width="0.4"/>
<line x1="130.797" y1="67.055" x2="131.251" y2="67.496" stroke="#141414" stroke-width="0.4"/>
<line x1="40.353" y1="131.265" x2="45.456" y2="121.503" stroke="#141414" stroke-width="0.4"/>
<line x1="45.456" y1="121.503" x2="82.003" y2="106.033" stroke="#141414" stroke-width="0.4"/>
<line x1="82.003" y1="106.033" x2="92.563" y2="109.164" stroke="#141414" stroke-width="0.4"/>
<circle cx="161.848" cy="191.649" r="2.01" fill="#ffe082" stroke="#464646" stroke-width="0.2"/>
<text x="161.848" y="192.60" font-size="2.73" text-anchor="middle" fill="#141414">1</text>
<circle cx="164.703" cy="143.852" r="2.01" fill="#ffe082" stroke="#464646" stroke-width="0.2"/>
<text x="164.703" y="144.81" font-size="2.73" text-anchor="middle" fill="#141414">2</text>
<circle cx="118.182" cy="228.776" r="2.01" fill="#ffe082" stroke="#464646" stroke-width="0.2"/>
<text x="118.182" y="229.73" font-size="2.73" text-anchor="middle" fill="#141414">4</text>
<circle cx="67.334" cy="228.026" r="2.01" fill="#ffe082" stroke="#464646" stroke-width="0.2"/>
<text x="67.334" y="228.98" font-size="2.73" text-anchor="middle" fill="#141414">5</text>
<circle cx="24.755" cy="189.625" r="2.01" fill="#ffe082" stroke="#464646" stroke-width="0.2"/>
<text x="24.755" y="190.58" font-size="2.73" text-anchor="middle" fill="#141414">6</text>
<circle cx="21.792" cy="146.509" r="2.01" fill="#ffe082" stroke="#464646" stroke-width="0.2"/>
<text x="21.792" y="147.46" font-size="2.73" text-anchor="middle" fill="#141414">7</text>
<circle cx="65.093" cy="116.991" r="2.01" fill="#99d9fa" stroke="#464646" stroke-width="0.2"/>
<text x="65.093" y="117.95" font-size="2.73" text-anchor="middle" fill="#141414">9</text>
<circle cx="123.13" cy="101.99" r="4.60" fill="#eaf1fe" stroke="#2e78e6" stroke-width="0.3"/>
<text x="123.13" y="103.79" font-size="5.20" text-anchor="middle" fill="#14306e" font-weight="bold">1</text>
<polygon points="31.884,264.44 30.513,269.01 24.114,269.01 22.743,264.44" fill="rgb(216,216,216)"/>
<polygon points="31.884,255.299 33.312,250.541 39.973,250.541 41.401,255.299" fill="rgb(216,216,216)"/>
<polygon points="31.884,255.299 30.513,250.728 24.114,250.728 22.743,255.299" fill="rgb(216,216,216)"/>
<polygon points="41.401,264.44 45.971,265.811 45.971,272.209 41.401,273.581" fill="rgb(216,216,216)"/>
<polygon points="13.227,246.158 8.656,247.529 8.656,253.928 13.227,255.299" fill="rgb(216,216,216)"/>
<polygon points="31.884,273.581 33.312,278.339 39.973,278.339 41.401,273.581" fill="rgb(216,216,216)"/>
<polygon points="50.542,264.44 55.112,263.069 55.112,256.67 50.542,255.299" fill="rgb(216,216,216)"/>
<polygon points="31.884,264.44 30.513,269.01 24.114,269.01 22.743,264.44" fill="#99d9fa"/>
<line x1="31.884" y1="264.44" x2="31.884" y2="255.299" stroke="#8c8c8c" stroke-width="0.3" stroke-dasharray="1.2,0.8"/>
<line x1="41.401" y1="264.44" x2="31.884" y2="264.44" stroke="#8c8c8c" stroke-width="0.3" stroke-dasharray="1.2,0.8"/>
<line x1="41.401" y1="255.299" x2="41.401" y2="264.44" stroke="#8c8c8c" stroke-width="0.3" stroke-dasharray="1.2,0.8"/>
<line x1="22.743" y1="264.44" x2="22.743" y2="255.299" stroke="#8c8c8c" stroke-width="0.3" stroke-dasharray="1.2,0.8"/>
<line x1="22.743" y1="255.299" x2="13.227" y2="255.299" stroke="#8c8c8c" stroke-width="0.3" stroke-dasharray="1.2,0.8"/>
<line x1="22.743" y1="264.44" x2="31.884" y2="264.44" stroke="#8c8c8c" stroke-width="0.3" stroke-dasharray="1.2,0.8"/>
<line x1="41.401" y1="255.299" x2="31.884" y2="255.299" stroke="#8c8c8c" stroke-width="0.3" stroke-dasharray="1.2,0.8"/>
<line x1="22.743" y1="255.299" x2="31.884" y2="255.299" stroke="#8c8c8c" stroke-width="0.3" stroke-dasharray="1.2,0.8"/>
<line x1="41.401" y1="273.581" x2="41.401" y2="264.44" stroke="#8c8c8c" stroke-width="0.3" stroke-dasharray="1.2,0.8"/>
<line x1="13.227" y1="255.299" x2="13.227" y2="246.158" stroke="#8c8c8c" stroke-width="0.3" stroke-dasharray="1.2,0.8"/>
<line x1="41.401" y1="273.581" x2="31.884" y2="273.581" stroke="#8c8c8c" stroke-width="0.3" stroke-dasharray="1.2,0.8"/>
<line x1="50.542" y1="255.299" x2="50.542" y2="264.44" stroke="#8c8c8c" stroke-width="0.3" stroke-dasharray="1.2,0.8"/>
<line x1="31.884" y1="273.581" x2="31.884" y2="264.44" stroke="#141414" stroke-width="0.4"/>
<line x1="13.227" y1="246.158" x2="22.743" y2="246.158" stroke="#141414" stroke-width="0.4"/>
<line x1="22.743" y1="246.158" x2="22.743" y2="255.299" stroke="#141414" stroke-width="0.4"/>
<line x1="50.542" y1="264.44" x2="41.401" y2="264.44" stroke="#141414" stroke-width="0.4"/>
<line x1="41.401" y1="255.299" x2="50.542" y2="255.299" stroke="#141414" stroke-width="0.4"/>
<line x1="22.743" y1="264.44" x2="13.227" y2="264.44" stroke="#141414" stroke-width="0.4"/>
<line x1="13.227" y1="264.44" x2="13.227" y2="255.299" stroke="#141414" stroke-width="0.4"/>
<line x1="31.884" y1="264.44" x2="30.513" y2="269.01" stroke="#141414" stroke-width="0.4"/>
<line x1="30.513" y1="269.01" x2="24.114" y2="269.01" stroke="#141414" stroke-width="0.4"/>
<line x1="24.114" y1="269.01" x2="22.743" y2="264.44" stroke="#141414" stroke-width="0.4"/>
<line x1="31.884" y1="255.299" x2="33.312" y2="250.541" stroke="#141414" stroke-width="0.4"/>
<line x1="33.312" y1="250.541" x2="39.973" y2="250.541" stroke="#141414" stroke-width="0.4"/>
<line x1="39.973" y1="250.541" x2="41.401" y2="255.299" stroke="#141414" stroke-width="0.4"/>
<line x1="31.884" y1="255.299" x2="30.513" y2="250.728" stroke="#141414" stroke-width="0.4"/>
<line x1="30.513" y1="250.728" x2="24.114" y2="250.728" stroke="#141414" stroke-width="0.4"/>
<line x1="24.114" y1="250.728" x2="22.743" y2="255.299" stroke="#141414" stroke-width="0.4"/>
<line x1="41.401" y1="264.44" x2="45.971" y2="265.811" stroke="#141414" stroke-width="0.4"/>
<line x1="45.971" y1="265.811" x2="45.971" y2="272.209" stroke="#141414" stroke-width="0.4"/>
<line x1="45.971" y1="272.209" x2="41.401" y2="273.581" stroke="#141414" stroke-width="0.4"/>
<line x1="13.227" y1="246.158" x2="8.656" y2="247.529" stroke="#141414" stroke-width="0.4"/>
<line x1="8.656" y1="247.529" x2="8.656" y2="253.928" stroke="#141414" stroke-width="0.4"/>
<line x1="8.656" y1="253.928" x2="13.227" y2="255.299" stroke="#141414" stroke-width="0.4"/>
<line x1="31.884" y1="273.581" x2="33.312" y2="278.339" stroke="#141414" stroke-width="0.4"/>
<line x1="33.312" y1="278.339" x2="39.973" y2="278.339" stroke="#141414" stroke-width="0.4"/>
<line x1="39.973" y1="278.339" x2="41.401" y2="273.581" stroke="#141414" stroke-width="0.4"/>
<line x1="50.542" y1="264.44" x2="55.112" y2="263.069" stroke="#141414" stroke-width="0.4"/>
<line x1="55.112" y1="263.069" x2="55.112" y2="256.67" stroke="#141414" stroke-width="0.4"/>
<line x1="55.112" y1="256.67" x2="50.542" y2="255.299" stroke="#141414" stroke-width="0.4"/>
<circle cx="27.314" cy="266.725" r="2.01" fill="#99d9fa" stroke="#464646" stroke-width="0.2"/>
<text x="27.314" y="267.68" font-size="2.73" text-anchor="middle" fill="#141414">39</text>
<circle cx="36.643" cy="252.92" r="2.01" fill="#ffe082" stroke="#464646" stroke-width="0.2"/>
<text x="36.643" y="253.88" font-size="2.73" text-anchor="middle" fill="#141414">40</text>
<circle cx="27.314" cy="253.014" r="2.01" fill="#ffe082" stroke="#464646" stroke-width="0.2"/>
<text x="27.314" y="253.97" font-size="2.73" text-anchor="middle" fill="#141414">41</text>
<circle cx="43.686" cy="269.01" r="2.01" fill="#ffe082" stroke="#464646" stroke-width="0.2"/>
<text x="43.686" y="269.97" font-size="2.73" text-anchor="middle" fill="#141414">42</text>
<circle cx="10.942" cy="250.728" r="2.01" fill="#ffe082" stroke="#464646" stroke-width="0.2"/>
<text x="10.942" y="251.68" font-size="2.73" text-anchor="middle" fill="#141414">43</text>
<circle cx="36.643" cy="275.96" r="2.01" fill="#ffe082" stroke="#464646" stroke-width="0.2"/>
<text x="36.643" y="276.92" font-size="2.73" text-anchor="middle" fill="#141414">44</text>
<circle cx="52.827" cy="259.869" r="2.01" fill="#ffe082" stroke="#464646" stroke-width="0.2"/>
<text x="52.827" y="260.82" font-size="2.73" text-anchor="middle" fill="#141414">45</text>
<circle cx="28.228" cy="240.058" r="4.60" fill="#eaf1fe" stroke="#2e78e6" stroke-width="0.3"/>
<text x="28.228" y="241.86" font-size="5.20" text-anchor="middle" fill="#14306e" font-weight="bold">6</text>
<polygon points="81.34,264.44 79.969,269.01 73.57,269.01 72.199,264.44" fill="rgb(216,216,216)"/>
<polygon points="81.34,255.299 82.767,250.541 89.429,250.541 90.857,255.299" fill="rgb(216,216,216)"/>
<polygon points="81.34,255.299 79.969,250.728 73.57,250.728 72.199,255.299" fill="rgb(216,216,216)"/>
<polygon points="90.857,264.44 95.427,265.811 95.427,272.209 90.857,273.581" fill="rgb(216,216,216)"/>
<polygon points="62.683,246.158 58.112,247.529 58.112,253.928 62.683,255.299" fill="rgb(216,216,216)"/>
<polygon points="81.34,273.581 82.767,278.339 89.429,278.339 90.857,273.581" fill="rgb(216,216,216)"/>
<polygon points="99.997,264.44 104.568,263.068 104.568,256.67 99.997,255.299" fill="rgb(216,216,216)"/>
<polygon points="81.34,264.44 79.969,269.01 73.57,269.01 72.199,264.44" fill="#99d9fa"/>
<line x1="81.34" y1="264.44" x2="81.34" y2="255.299" stroke="#8c8c8c" stroke-width="0.3" stroke-dasharray="1.2,0.8"/>
<line x1="90.857" y1="264.44" x2="81.34" y2="264.44" stroke="#8c8c8c" stroke-width="0.3" stroke-dasharray="1.2,0.8"/>
<line x1="90.857" y1="255.299" x2="90.857" y2="264.44" stroke="#8c8c8c" stroke-width="0.3" stroke-dasharray="1.2,0.8"/>
<line x1="72.199" y1="264.44" x2="72.199" y2="255.299" stroke="#8c8c8c" stroke-width="0.3" stroke-dasharray="1.2,0.8"/>
<line x1="72.199" y1="255.299" x2="62.683" y2="255.299" stroke="#8c8c8c" stroke-width="0.3" stroke-dasharray="1.2,0.8"/>
<line x1="72.199" y1="264.44" x2="81.34" y2="264.44" stroke="#8c8c8c" stroke-width="0.3" stroke-dasharray="1.2,0.8"/>
<line x1="90.857" y1="255.299" x2="81.34" y2="255.299" stroke="#8c8c8c" stroke-width="0.3" stroke-dasharray="1.2,0.8"/>
<line x1="72.199" y1="255.299" x2="81.34" y2="255.299" stroke="#8c8c8c" stroke-width="0.3" stroke-dasharray="1.2,0.8"/>
<line x1="90.857" y1="273.581" x2="90.857" y2="264.44" stroke="#8c8c8c" stroke-width="0.3" stroke-dasharray="1.2,0.8"/>
<line x1="62.683" y1="255.299" x2="62.683" y2="246.158" stroke="#8c8c8c" stroke-width="0.3" stroke-dasharray="1.2,0.8"/>
<line x1="90.857" y1="273.581" x2="81.34" y2="273.581" stroke="#8c8c8c" stroke-width="0.3" stroke-dasharray="1.2,0.8"/>
<line x1="99.997" y1="255.299" x2="99.997" y2="264.44" stroke="#8c8c8c" stroke-width="0.3" stroke-dasharray="1.2,0.8"/>
<line x1="81.34" y1="273.581" x2="81.34" y2="264.44" stroke="#141414" stroke-width="0.4"/>
<line x1="62.683" y1="246.158" x2="72.199" y2="246.158" stroke="#141414" stroke-width="0.4"/>
<line x1="72.199" y1="246.158" x2="72.199" y2="255.299" stroke="#141414" stroke-width="0.4"/>
<line x1="99.997" y1="264.44" x2="90.857" y2="264.44" stroke="#141414" stroke-width="0.4"/>
<line x1="90.857" y1="255.299" x2="99.997" y2="255.299" stroke="#141414" stroke-width="0.4"/>
<line x1="72.199" y1="264.44" x2="62.683" y2="264.44" stroke="#141414" stroke-width="0.4"/>
<line x1="62.683" y1="264.44" x2="62.683" y2="255.299" stroke="#141414" stroke-width="0.4"/>
<line x1="81.34" y1="264.44" x2="79.969" y2="269.01" stroke="#141414" stroke-width="0.4"/>
<line x1="79.969" y1="269.01" x2="73.57" y2="269.01" stroke="#141414" stroke-width="0.4"/>
<line x1="73.57" y1="269.01" x2="72.199" y2="264.44" stroke="#141414" stroke-width="0.4"/>
<line x1="81.34" y1="255.299" x2="82.767" y2="250.541" stroke="#141414" stroke-width="0.4"/>
<line x1="82.767" y1="250.541" x2="89.429" y2="250.541" stroke="#141414" stroke-width="0.4"/>
<line x1="89.429" y1="250.541" x2="90.857" y2="255.299" stroke="#141414" stroke-width="0.4"/>
<line x1="81.34" y1="255.299" x2="79.969" y2="250.728" stroke="#141414" stroke-width="0.4"/>
<line x1="79.969" y1="250.728" x2="73.57" y2="250.728" stroke="#141414" stroke-width="0.4"/>
<line x1="73.57" y1="250.728" x2="72.199" y2="255.299" stroke="#141414" stroke-width="0.4"/>
<line x1="90.857" y1="264.44" x2="95.427" y2="265.811" stroke="#141414" stroke-width="0.4"/>
<line x1="95.427" y1="265.811" x2="95.427" y2="272.209" stroke="#141414" stroke-width="0.4"/>
<line x1="95.427" y1="272.209" x2="90.857" y2="273.581" stroke="#141414" stroke-width="0.4"/>
<line x1="62.683" y1="246.158" x2="58.112" y2="247.529" stroke="#141414" stroke-width="0.4"/>
<line x1="58.112" y1="247.529" x2="58.112" y2="253.928" stroke="#141414" stroke-width="0.4"/>
<line x1="58.112" y1="253.928" x2="62.683" y2="255.299" stroke="#141414" stroke-width="0.4"/>
<line x1="81.34" y1="273.581" x2="82.767" y2="278.339" stroke="#141414" stroke-width="0.4"/>
<line x1="82.767" y1="278.339" x2="89.429" y2="278.339" stroke="#141414" stroke-width="0.4"/>
<line x1="89.429" y1="278.339" x2="90.857" y2="273.581" stroke="#141414" stroke-width="0.4"/>
<line x1="99.997" y1="264.44" x2="104.568" y2="263.068" stroke="#141414" stroke-width="0.4"/>
<line x1="104.568" y1="263.068" x2="104.568" y2="256.67" stroke="#141414" stroke-width="0.4"/>
<line x1="104.568" y1="256.67" x2="99.997" y2="255.299" stroke="#141414" stroke-width="0.4"/>
<circle cx="76.769" cy="266.725" r="2.01" fill="#99d9fa" stroke="#464646" stroke-width="0.2"/>
<text x="76.769" y="267.68" font-size="2.73" text-anchor="middle" fill="#141414">46</text>
<circle cx="86.098" cy="252.92" r="2.01" fill="#ffe082" stroke="#464646" stroke-width="0.2"/>
<text x="86.098" y="253.88" font-size="2.73" text-anchor="middle" fill="#141414">47</text>
<circle cx="76.77" cy="253.014" r="2.01" fill="#ffe082" stroke="#464646" stroke-width="0.2"/>
<text x="76.77" y="253.97" font-size="2.73" text-anchor="middle" fill="#141414">48</text>
<circle cx="93.142" cy="269.01" r="2.01" fill="#ffe082" stroke="#464646" stroke-width="0.2"/>
<text x="93.142" y="269.97" font-size="2.73" text-anchor="middle" fill="#141414">49</text>
<circle cx="60.397" cy="250.728" r="2.01" fill="#ffe082" stroke="#464646" stroke-width="0.2"/>
<text x="60.397" y="251.68" font-size="2.73" text-anchor="middle" fill="#141414">50</text>
<circle cx="86.098" cy="275.96" r="2.01" fill="#ffe082" stroke="#464646" stroke-width="0.2"/>
<text x="86.098" y="276.92" font-size="2.73" text-anchor="middle" fill="#141414">51</text>
<circle cx="102.283" cy="259.869" r="2.01" fill="#ffe082" stroke="#464646" stroke-width="0.2"/>
<text x="102.283" y="260.82" font-size="2.73" text-anchor="middle" fill="#141414">52</text>
<circle cx="77.684" cy="240.058" r="4.60" fill="#eaf1fe" stroke="#2e78e6" stroke-width="0.3"/>
<text x="77.684" y="241.86" font-size="5.20" text-anchor="middle" fill="#14306e" font-weight="bold">7</text>
<text x="205.0" y="295.0" font-size="3.2" text-anchor="end" fill="#737373" font-family="sans-serif">1 / 4</text>
<g pointer-events="none"><text x="105.0" y="83.2" text-anchor="middle" font-family="sans-serif" font-size="12.4" fill="#9aa0a6" fill-opacity="0.3" transform="rotate(-28 105.0 83.2)">papercraft.kr</text><text x="105.0" y="148.5" text-anchor="middle" font-family="sans-serif" font-size="12.4" fill="#9aa0a6" fill-opacity="0.3" transform="rotate(-28 105.0 148.5)">papercraft.kr</text><text x="105.0" y="213.8" text-anchor="middle" font-family="sans-serif" font-size="12.4" fill="#9aa0a6" fill-opacity="0.3" transform="rotate(-28 105.0 213.8)">papercraft.kr</text></g></svg>
