<svg xmlns="http://www.w3.org/2000/svg" xmlns:xlink="http://www.w3.org/1999/xlink" width="210.00mm" height="297.00mm" viewBox="0 0 210.00 297.00">
<rect x="0" y="0" width="210.00" height="297.00" fill="#ffffff" stroke="#cccccc" stroke-width="0.2"/>
<polygon points="33.761,68.238 33.873,67.822 40.071,39.779 41.41,39.691" fill="rgb(216,216,216)"/>
<polygon points="11.086,68.768 5.888,76.414 13.184,103.641 21.508,107.663" fill="rgb(216,216,216)"/>
<polygon points="11.086,68.768 5.537,61.373 11.552,33.836 19.68,29.429" fill="rgb(216,216,216)"/>
<polygon points="41.41,96.785 41.782,104.559 27.851,112.174 21.508,107.663" fill="rgb(216,216,216)"/>
<polygon points="41.41,96.785 42.73,108.004 51.089,116.363 62.308,117.683" fill="rgb(216,216,216)"/>
<polygon points="62.308,117.683 64.778,125.591 84.761,130.946 90.854,125.332" fill="rgb(216,216,216)"/>
<polygon points="90.854,125.332 96.948,130.946 116.931,125.591 119.401,117.683" fill="rgb(216,216,216)"/>
<polygon points="119.401,117.683 127.486,119.498 142.114,104.869 140.299,96.785" fill="rgb(216,216,216)"/>
<polygon points="140.299,96.785 148.208,94.315 153.562,74.332 147.948,68.238" fill="rgb(216,216,216)"/>
<polygon points="147.948,68.238 153.562,62.144 148.208,42.162 140.299,39.692" fill="rgb(216,216,216)"/>
<polygon points="140.299,39.692 142.114,31.607 127.486,16.979 119.401,18.794" fill="rgb(216,216,216)"/>
<polygon points="119.401,18.794 116.931,10.885 96.948,5.531 90.854,11.145" fill="rgb(216,216,216)"/>
<polygon points="90.854,11.145 84.761,5.531 64.778,10.885 62.308,18.794" fill="rgb(216,216,216)"/>
<polygon points="62.308,18.794 54.223,16.979 39.595,31.607 41.41,39.692" fill="rgb(216,216,216)"/>
<polygon points="33.761,68.238 33.873,67.822 40.071,39.779 41.41,39.691" fill="#99d9fa"/>
<line x1="11.087" y1="68.768" x2="33.761" y2="68.238" stroke="#8c8c8c" stroke-width="0.3" stroke-dasharray="1.2,0.8"/>
<line x1="41.41" y1="96.785" x2="33.761" y2="68.238" stroke="#8c8c8c" stroke-width="0.3" stroke-dasharray="1.2,0.8"/>
<line x1="41.41" y1="39.691" x2="33.761" y2="68.238" stroke="#8c8c8c" stroke-width="0.3" stroke-dasharray="1.2,0.8"/>
<line x1="21.508" y1="107.663" x2="11.086" y2="68.768" stroke="#8c8c8c" stroke-width="0.3" stroke-dasharray="1.2,0.8"/>
<line x1="19.68" y1="29.429" x2="11.086" y2="68.768" stroke="#8c8c8c" stroke-width="0.3" stroke-dasharray="1.2,0.8"/>
<line x1="21.508" y1="107.663" x2="41.41" y2="96.785" stroke="#8c8c8c" stroke-width="0.3" stroke-dasharray="1.2,0.8"/>
<line x1="62.308" y1="117.683" x2="41.41" y2="96.785" stroke="#8c8c8c" stroke-width="0.3" stroke-dasharray="1.2,0.8"/>
<line x1="90.854" y1="125.332" x2="62.308" y2="117.683" stroke="#8c8c8c" stroke-width="0.3" stroke-dasharray="1.2,0.8"/>
<line x1="119.401" y1="117.683" x2="90.854" y2="125.332" stroke="#8c8c8c" stroke-width="0.3" stroke-dasharray="1.2,0.8"/>
<line x1="140.299" y1="96.785" x2="119.401" y2="117.683" stroke="#8c8c8c" stroke-width="0.3" stroke-dasharray="1.2,0.8"/>
<line x1="147.948" y1="68.238" x2="140.299" y2="96.785" stroke="#8c8c8c" stroke-width="0.3" stroke-dasharray="1.2,0.8"/>
<line x1="140.299" y1="39.692" x2="147.948" y2="68.238" stroke="#8c8c8c" stroke-width="0.3" stroke-dasharray="1.2,0.8"/>
<line x1="119.401" y1="18.794" x2="140.299" y2="39.692" stroke="#8c8c8c" stroke-width="0.3" stroke-dasharray="1.2,0.8"/>
<line x1="90.854" y1="11.145" x2="119.401" y2="18.794" stroke="#8c8c8c" stroke-width="0.3" stroke-dasharray="1.2,0.8"/>
<line x1="62.308" y1="18.794" x2="90.854" y2="11.145" stroke="#8c8c8c" stroke-width="0.3" stroke-dasharray="1.2,0.8"/>
<line x1="41.41" y1="39.692" x2="62.308" y2="18.794" stroke="#8c8c8c" stroke-width="0.3" stroke-dasharray="1.2,0.8"/>
<line x1="40.068" y1="39.365" x2="33.761" y2="68.238" stroke="#141414" stroke-width="0.4"/>
<line x1="19.68" y1="29.429" x2="40.068" y2="39.365" stroke="#141414" stroke-width="0.4"/>
<line x1="33.761" y1="68.238" x2="33.873" y2="67.822" stroke="#141414" stroke-width="0.4"/>
<line x1="33.873" y1="67.822" x2="40.071" y2="39.779" stroke="#141414" stroke-width="0.4"/>
<line x1="40.071" y1="39.779" x2="41.41" y2="39.691" stroke="#141414" stroke-width="0.4"/>
<line x1="11.086" y1="68.768" x2="5.888" y2="76.414" stroke="#141414" stroke-width="0.4"/>
<line x1="5.888" y1="76.414" x2="13.184" y2="103.641" stroke="#141414" stroke-width="0.4"/>
<line x1="13.184" y1="103.641" x2="21.508" y2="107.663" stroke="#141414" stroke-width="0.4"/>
<line x1="11.086" y1="68.768" x2="5.537" y2="61.373" stroke="#141414" stroke-width="0.4"/>
<line x1="5.537" y1="61.373" x2="11.552" y2="33.836" stroke="#141414" stroke-width="0.4"/>
<line x1="11.552" y1="33.836" x2="19.68" y2="29.429" stroke="#141414" stroke-width="0.4"/>
<line x1="41.41" y1="96.785" x2="41.782" y2="104.559" stroke="#141414" stroke-width="0.4"/>
<line x1="41.782" y1="104.559" x2="27.851" y2="112.174" stroke="#141414" stroke-width="0.4"/>
<line x1="27.851" y1="112.174" x2="21.508" y2="107.663" stroke="#141414" stroke-width="0.4"/>
<line x1="41.41" y1="96.785" x2="42.73" y2="108.004" stroke="#141414" stroke-width="0.4"/>
<line x1="42.73" y1="108.004" x2="51.089" y2="116.363" stroke="#141414" stroke-width="0.4"/>
<line x1="51.089" y1="116.363" x2="62.308" y2="117.683" stroke="#141414" stroke-width="0.4"/>
<line x1="62.308" y1="117.683" x2="64.778" y2="125.591" stroke="#141414" stroke-width="0.4"/>
<line x1="64.778" y1="125.591" x2="84.761" y2="130.946" stroke="#141414" stroke-width="0.4"/>
<line x1="84.761" y1="130.946" x2="90.854" y2="125.332" stroke="#141414" stroke-width="0.4"/>
<line x1="90.854" y1="125.332" x2="96.948" y2="130.946" stroke="#141414" stroke-width="0.4"/>
<line x1="96.948" y1="130.946" x2="116.931" y2="125.591" stroke="#141414" stroke-width="0.4"/>
<line x1="116.931" y1="125.591" x2="119.401" y2="117.683" stroke="#141414" stroke-width="0.4"/>
<line x1="119.401" y1="117.683" x2="127.486" y2="119.498" stroke="#141414" stroke-width="0.4"/>
<line x1="127.486" y1="119.498" x2="142.114" y2="104.869" stroke="#141414" stroke-width="0.4"/>
<line x1="142.114" y1="104.869" x2="140.299" y2="96.785" stroke="#141414" stroke-width="0.4"/>
<line x1="140.299" y1="96.785" x2="148.208" y2="94.315" stroke="#141414" stroke-width="0.4"/>
<line x1="148.208" y1="94.315" x2="153.562" y2="74.332" stroke="#141414" stroke-width="0.4"/>
<line x1="153.562" y1="74.332" x2="147.948" y2="68.238" stroke="#141414" stroke-width="0.4"/>
<line x1="147.948" y1="68.238" x2="153.562" y2="62.144" stroke="#141414" stroke-width="0.4"/>
<line x1="153.562" y1="62.144" x2="148.208" y2="42.162" stroke="#141414" stroke-width="0.4"/>
<line x1="148.208" y1="42.162" x2="140.299" y2="39.692" stroke="#141414" stroke-width="0.4"/>
<line x1="140.299" y1="39.692" x2="142.114" y2="31.607" stroke="#141414" stroke-width="0.4"/>
<line x1="142.114" y1="31.607" x2="127.486" y2="16.979" stroke="#141414" stroke-width="0.4"/>
<line x1="127.486" y1="16.979" x2="119.401" y2="18.794" stroke="#141414" stroke-width="0.4"/>
<line x1="119.401" y1="18.794" x2="116.931" y2="10.885" stroke="#141414" stroke-width="0.4"/>
<line x1="116.931" y1="10.885" x2="96.948" y2="5.531" stroke="#141414" stroke-width="0.4"/>
<line x1="96.948" y1="5.531" x2="90.854" y2="11.145" stroke="#141414" stroke-width="0.4"/>
<line x1="90.854" y1="11.145" x2="84.761" y2="5.531" stroke="#141414" stroke-width="0.4"/>
<line x1="84.761" y1="5.531" x2="64.778" y2="10.885" stroke="#141414" stroke-width="0.4"/>
<line x1="64.778" y1="10.885" x2="62.308" y2="18.794" stroke="#141414" stroke-width="0.4"/>
<line x1="62.308" y1="18.794" x2="54.223" y2="16.979" stroke="#141414" stroke-width="0.4"/>
<line x1="54.223" y1="16.979" x2="39.595" y2="31.607" stroke="#141414" stroke-width="0.4"/>
<line x1="39.595" y1="31.607" x2="41.41" y2="39.692" stroke="#141414" stroke-width="0.4"/>
<circle cx="12.917" cy="89.122" r="1.64" fill="#ffe082" stroke="#464646" stroke-width="0.2"/>
<text x="12.917" y="89.68" font-size="1.60" text-anchor="middle" fill="#141414">28</text>
<circle cx="11.964" cy="48.352" r="1.64" fill="#ffe082" stroke="#464646" stroke-width="0.2"/>
<text x="11.964" y="48.91" font-size="1.60" text-anchor="middle" fill="#141414">29</text>
<circle cx="33.138" cy="105.295" r="1.64" fill="#ffe082" stroke="#464646" stroke-width="0.2"/>
<text x="33.138" y="105.86" font-size="1.60" text-anchor="middle" fill="#141414">30</text>
<circle cx="49.384" cy="109.709" r="1.64" fill="#ffe082" stroke="#464646" stroke-width="0.2"/>
<text x="49.384" y="110.27" font-size="1.60" text-anchor="middle" fill="#141414">31</text>
<circle cx="75.675" cy="124.888" r="1.64" fill="#ffe082" stroke="#464646" stroke-width="0.2"/>
<text x="75.675" y="125.45" font-size="1.60" text-anchor="middle" fill="#141414">32</text>
<circle cx="106.034" cy="124.888" r="1.64" fill="#ffe082" stroke="#464646" stroke-width="0.2"/>
<text x="106.034" y="125.45" font-size="1.60" text-anchor="middle" fill="#141414">33</text>
<circle cx="132.325" cy="109.709" r="1.64" fill="#ffe082" stroke="#464646" stroke-width="0.2"/>
<text x="132.325" y="110.27" font-size="1.60" text-anchor="middle" fill="#141414">34</text>
<circle cx="147.504" cy="83.417" r="1.64" fill="#ffe082" stroke="#464646" stroke-width="0.2"/>
<text x="147.504" y="83.98" font-size="1.60" text-anchor="middle" fill="#141414">35</text>
<circle cx="147.504" cy="53.059" r="1.64" fill="#ffe082" stroke="#464646" stroke-width="0.2"/>
<text x="147.504" y="53.62" font-size="1.60" text-anchor="middle" fill="#141414">36</text>
<circle cx="132.325" cy="26.768" r="1.64" fill="#ffe082" stroke="#464646" stroke-width="0.2"/>
<text x="132.325" y="27.33" font-size="1.60" text-anchor="middle" fill="#141414">37</text>
<circle cx="106.034" cy="11.589" r="1.64" fill="#ffe082" stroke="#464646" stroke-width="0.2"/>
<text x="106.034" y="12.15" font-size="1.60" text-anchor="middle" fill="#141414">38</text>
<circle cx="75.675" cy="11.588" r="1.64" fill="#ffe082" stroke="#464646" stroke-width="0.2"/>
<text x="75.675" y="12.15" font-size="1.60" text-anchor="middle" fill="#141414">39</text>
<circle cx="49.384" cy="26.768" r="1.64" fill="#ffe082" stroke="#464646" stroke-width="0.2"/>
<text x="49.384" y="27.33" font-size="1.60" text-anchor="middle" fill="#141414">40</text>
<circle cx="81.339" cy="32.726" r="4.60" fill="#eaf1fe" stroke="#2e78e6" stroke-width="0.3"/>
<text x="81.339" y="34.53" font-size="5.20" text-anchor="middle" fill="#14306e" font-weight="bold">4</text>
<polygon points="44.696,170.155 47.356,177.155 59.769,177.155 62.429,170.155" fill="rgb(216,216,216)"/>
<polygon points="44.696,170.155 45.38,177.612 34.228,183.062 28.765,177.941" fill="rgb(216,216,216)"/>
<polygon points="62.429,170.155 61.745,177.612 72.897,183.062 78.361,177.941" fill="rgb(216,216,216)"/>
<polygon points="78.361,177.941 74.472,184.34 82.1,194.133 89.256,191.93" fill="rgb(216,216,216)"/>
<polygon points="89.256,191.93 82.953,195.973 85.507,208.12 92.904,209.283" fill="rgb(216,216,216)"/>
<polygon points="92.904,209.283 85.466,210.148 82.427,222.183 88.562,226.476" fill="rgb(216,216,216)"/>
<polygon points="88.562,226.476 81.5,223.987 73.485,233.466 77.113,240.016" fill="rgb(216,216,216)"/>
<polygon points="77.113,240.016 71.86,234.68 60.498,239.677 60.882,247.156" fill="rgb(216,216,216)"/>
<polygon points="67.896,284.207 59.966,279.952 55.056,254.015 60.882,247.156" fill="rgb(216,216,216)"/>
<line x1="44.697" y1="170.155" x2="36.2" y2="133.415" stroke="#8c8c8c" stroke-width="0.3" stroke-dasharray="1.2,0.8"/>
<line x1="70.925" y1="133.415" x2="62.429" y2="170.155" stroke="#8c8c8c" stroke-width="0.3" stroke-dasharray="1.2,0.8"/>
<line x1="102.125" y1="148.661" x2="78.36" y2="177.941" stroke="#8c8c8c" stroke-width="0.3" stroke-dasharray="1.2,0.8"/>
<line x1="123.463" y1="176.058" x2="89.256" y2="191.93" stroke="#8c8c8c" stroke-width="0.3" stroke-dasharray="1.2,0.8"/>
<line x1="130.606" y1="210.041" x2="92.904" y2="209.283" stroke="#8c8c8c" stroke-width="0.3" stroke-dasharray="1.2,0.8"/>
<line x1="122.104" y1="243.71" x2="88.562" y2="226.476" stroke="#8c8c8c" stroke-width="0.3" stroke-dasharray="1.2,0.8"/>
<line x1="99.682" y1="270.227" x2="77.113" y2="240.017" stroke="#8c8c8c" stroke-width="0.3" stroke-dasharray="1.2,0.8"/>
<line x1="62.429" y1="170.155" x2="44.696" y2="170.155" stroke="#8c8c8c" stroke-width="0.3" stroke-dasharray="1.2,0.8"/>
<line x1="28.765" y1="177.941" x2="44.696" y2="170.155" stroke="#8c8c8c" stroke-width="0.3" stroke-dasharray="1.2,0.8"/>
<line x1="78.361" y1="177.941" x2="62.429" y2="170.155" stroke="#8c8c8c" stroke-width="0.3" stroke-dasharray="1.2,0.8"/>
<line x1="89.256" y1="191.93" x2="78.361" y2="177.941" stroke="#8c8c8c" stroke-width="0.3" stroke-dasharray="1.2,0.8"/>
<line x1="92.904" y1="209.283" x2="89.256" y2="191.93" stroke="#8c8c8c" stroke-width="0.3" stroke-dasharray="1.2,0.8"/>
<line x1="88.562" y1="226.476" x2="92.904" y2="209.283" stroke="#8c8c8c" stroke-width="0.3" stroke-dasharray="1.2,0.8"/>
<line x1="77.113" y1="240.016" x2="88.562" y2="226.476" stroke="#8c8c8c" stroke-width="0.3" stroke-dasharray="1.2,0.8"/>
<line x1="60.882" y1="247.156" x2="77.113" y2="240.016" stroke="#8c8c8c" stroke-width="0.3" stroke-dasharray="1.2,0.8"/>
<line x1="60.882" y1="247.156" x2="67.896" y2="284.207" stroke="#8c8c8c" stroke-width="0.3" stroke-dasharray="1.2,0.8"/>
<line x1="36.2" y1="133.415" x2="70.925" y2="133.415" stroke="#141414" stroke-width="0.4"/>
<line x1="5.0" y1="148.661" x2="36.2" y2="133.415" stroke="#141414" stroke-width="0.4"/>
<line x1="70.925" y1="133.415" x2="102.125" y2="148.661" stroke="#141414" stroke-width="0.4"/>
<line x1="102.125" y1="148.661" x2="123.463" y2="176.058" stroke="#141414" stroke-width="0.4"/>
<line x1="123.463" y1="176.058" x2="130.606" y2="210.041" stroke="#141414" stroke-width="0.4"/>
<line x1="130.606" y1="210.041" x2="122.104" y2="243.71" stroke="#141414" stroke-width="0.4"/>
<line x1="122.104" y1="243.71" x2="99.682" y2="270.227" stroke="#141414" stroke-width="0.4"/>
<line x1="99.682" y1="270.227" x2="67.895" y2="284.207" stroke="#141414" stroke-width="0.4"/>
<line x1="28.765" y1="177.941" x2="5.0" y2="148.661" stroke="#141414" stroke-width="0.4"/>
<line x1="44.696" y1="170.155" x2="47.356" y2="177.155" stroke="#141414" stroke-width="0.4"/>
<line x1="47.356" y1="177.155" x2="59.769" y2="177.155" stroke="#141414" stroke-width="0.4"/>
<line x1="59.769" y1="177.155" x2="62.429" y2="170.155" stroke="#141414" stroke-width="0.4"/>
<line x1="44.696" y1="170.155" x2="45.38" y2="177.612" stroke="#141414" stroke-width="0.4"/>
<line x1="45.38" y1="177.612" x2="34.228" y2="183.062" stroke="#141414" stroke-width="0.4"/>
<line x1="34.228" y1="183.062" x2="28.765" y2="177.941" stroke="#141414" stroke-width="0.4"/>
<line x1="62.429" y1="170.155" x2="61.745" y2="177.612" stroke="#141414" stroke-width="0.4"/>
<line x1="61.745" y1="177.612" x2="72.897" y2="183.062" stroke="#141414" stroke-width="0.4"/>
<line x1="72.897" y1="183.062" x2="78.361" y2="177.941" stroke="#141414" stroke-width="0.4"/>
<line x1="78.361" y1="177.941" x2="74.472" y2="184.34" stroke="#141414" stroke-width="0.4"/>
<line x1="74.472" y1="184.34" x2="82.1" y2="194.133" stroke="#141414" stroke-width="0.4"/>
<line x1="82.1" y1="194.133" x2="89.256" y2="191.93" stroke="#141414" stroke-width="0.4"/>
<line x1="89.256" y1="191.93" x2="82.953" y2="195.973" stroke="#141414" stroke-width="0.4"/>
<line x1="82.953" y1="195.973" x2="85.507" y2="208.12" stroke="#141414" stroke-width="0.4"/>
<line x1="85.507" y1="208.12" x2="92.904" y2="209.283" stroke="#141414" stroke-width="0.4"/>
<line x1="92.904" y1="209.283" x2="85.466" y2="210.148" stroke="#141414" stroke-width="0.4"/>
<line x1="85.466" y1="210.148" x2="82.427" y2="222.183" stroke="#141414" stroke-width="0.4"/>
<line x1="82.427" y1="222.183" x2="88.562" y2="226.476" stroke="#141414" stroke-width="0.4"/>
<line x1="88.562" y1="226.476" x2="81.5" y2="223.987" stroke="#141414" stroke-width="0.4"/>
<line x1="81.5" y1="223.987" x2="73.485" y2="233.466" stroke="#141414" stroke-width="0.4"/>
<line x1="73.485" y1="233.466" x2="77.113" y2="240.016" stroke="#141414" stroke-width="0.4"/>
<line x1="77.113" y1="240.016" x2="71.86" y2="234.68" stroke="#141414" stroke-width="0.4"/>
<line x1="71.86" y1="234.68" x2="60.498" y2="239.677" stroke="#141414" stroke-width="0.4"/>
<line x1="60.498" y1="239.677" x2="60.882" y2="247.156" stroke="#141414" stroke-width="0.4"/>
<line x1="67.896" y1="284.207" x2="59.966" y2="279.952" stroke="#141414" stroke-width="0.4"/>
<line x1="59.966" y1="279.952" x2="55.056" y2="254.015" stroke="#141414" stroke-width="0.4"/>
<line x1="55.056" y1="254.015" x2="60.882" y2="247.156" stroke="#141414" stroke-width="0.4"/>
<circle cx="53.563" cy="173.655" r="1.64" fill="#ffe082" stroke="#464646" stroke-width="0.2"/>
<text x="53.563" y="174.22" font-size="1.60" text-anchor="middle" fill="#141414">50</text>
<circle cx="38.267" cy="177.193" r="1.64" fill="#ffe082" stroke="#464646" stroke-width="0.2"/>
<text x="38.267" y="177.75" font-size="1.60" text-anchor="middle" fill="#141414">51</text>
<circle cx="68.858" cy="177.193" r="1.64" fill="#ffe082" stroke="#464646" stroke-width="0.2"/>
<text x="68.858" y="177.75" font-size="1.60" text-anchor="middle" fill="#141414">52</text>
<circle cx="81.047" cy="187.086" r="1.64" fill="#ffe082" stroke="#464646" stroke-width="0.2"/>
<text x="81.047" y="187.65" font-size="1.60" text-anchor="middle" fill="#141414">53</text>
<circle cx="87.655" cy="201.327" r="1.64" fill="#ffe082" stroke="#464646" stroke-width="0.2"/>
<text x="87.655" y="201.89" font-size="1.60" text-anchor="middle" fill="#141414">54</text>
<circle cx="87.34" cy="217.023" r="1.64" fill="#ffe082" stroke="#464646" stroke-width="0.2"/>
<text x="87.34" y="217.58" font-size="1.60" text-anchor="middle" fill="#141414">55</text>
<circle cx="80.165" cy="230.986" r="1.64" fill="#ffe082" stroke="#464646" stroke-width="0.2"/>
<text x="80.165" y="231.55" font-size="1.60" text-anchor="middle" fill="#141414">56</text>
<circle cx="67.588" cy="240.382" r="1.64" fill="#ffe082" stroke="#464646" stroke-width="0.2"/>
<text x="67.588" y="240.94" font-size="1.60" text-anchor="middle" fill="#141414">57</text>
<circle cx="60.95" cy="266.332" r="1.64" fill="#ffe082" stroke="#464646" stroke-width="0.2"/>
<text x="60.95" y="266.89" font-size="1.60" text-anchor="middle" fill="#141414">58</text>
<circle cx="114.442" cy="192.676" r="4.60" fill="#eaf1fe" stroke="#2e78e6" stroke-width="0.3"/>
<text x="114.442" y="194.48" font-size="5.20" text-anchor="middle" fill="#14306e" font-weight="bold">6</text>
<text x="205.0" y="295.0" font-size="3.2" text-anchor="end" fill="#737373" font-family="sans-serif">2 / 7</text>
</svg>
