<svg xmlns="http://www.w3.org/2000/svg" xmlns:xlink="http://www.w3.org/1999/xlink" width="210.00mm" height="297.00mm" viewBox="0 0 210.00 297.00">
<rect x="0" y="0" width="210.00" height="297.00" fill="#ffffff" stroke="#cccccc" stroke-width="0.2"/>
<polygon points="125.063,206.423 125.868,214.67 144.34,223.992 151.451,219.74" fill="rgb(216,216,216)"/>
<polygon points="134.178,193.107 141.289,188.856 159.761,198.177 160.566,206.423" fill="rgb(216,216,216)"/>
<polygon points="151.451,219.74 155.723,227.92 183.057,234.278 190.5,228.822" fill="rgb(216,216,216)"/>
<polygon points="160.566,206.423 169.25,204.179 190.204,219.858 190.5,228.822" fill="rgb(216,216,216)"/>
<line x1="125.063" y1="206.423" x2="134.178" y2="193.107" stroke="#8c8c8c" stroke-width="0.3" stroke-dasharray="1.2,0.8"/>
<line x1="125.063" y1="206.423" x2="160.566" y2="206.423" stroke="#8c8c8c" stroke-width="0.3" stroke-dasharray="1.2,0.8"/>
<line x1="134.178" y1="193.107" x2="93.856" y2="188.053" stroke="#8c8c8c" stroke-width="0.3" stroke-dasharray="1.2,0.8"/>
<line x1="160.566" y1="206.423" x2="151.451" y2="219.739" stroke="#8c8c8c" stroke-width="0.3" stroke-dasharray="1.2,0.8"/>
<line x1="18.168" y1="38.819" x2="6.025" y2="40.359" stroke="#8c8c8c" stroke-width="0.3" stroke-dasharray="1.2,0.8"/>
<line x1="23.084" y1="72.391" x2="15.192" y2="74.393" stroke="#8c8c8c" stroke-width="0.3" stroke-dasharray="1.2,0.8"/>
<line x1="36.867" y1="99.972" x2="23.775" y2="109.574" stroke="#8c8c8c" stroke-width="0.3" stroke-dasharray="1.2,0.8"/>
<line x1="51.922" y1="132.484" x2="23.775" y2="109.574" stroke="#8c8c8c" stroke-width="0.3" stroke-dasharray="1.2,0.8"/>
<line x1="51.922" y1="132.484" x2="42.122" y2="139.818" stroke="#8c8c8c" stroke-width="0.3" stroke-dasharray="1.2,0.8"/>
<line x1="72.77" y1="159.254" x2="66.895" y2="164.891" stroke="#8c8c8c" stroke-width="0.3" stroke-dasharray="1.2,0.8"/>
<line x1="98.372" y1="176.436" x2="93.856" y2="188.053" stroke="#8c8c8c" stroke-width="0.3" stroke-dasharray="1.2,0.8"/>
<line x1="23.084" y1="72.391" x2="6.025" y2="40.359" stroke="#8c8c8c" stroke-width="0.3" stroke-dasharray="1.2,0.8"/>
<line x1="72.77" y1="159.254" x2="42.122" y2="139.818" stroke="#8c8c8c" stroke-width="0.3" stroke-dasharray="1.2,0.8"/>
<line x1="98.372" y1="176.436" x2="66.895" y2="164.891" stroke="#8c8c8c" stroke-width="0.3" stroke-dasharray="1.2,0.8"/>
<line x1="151.451" y1="219.74" x2="125.063" y2="206.423" stroke="#8c8c8c" stroke-width="0.3" stroke-dasharray="1.2,0.8"/>
<line x1="160.566" y1="206.423" x2="134.178" y2="193.107" stroke="#8c8c8c" stroke-width="0.3" stroke-dasharray="1.2,0.8"/>
<line x1="190.5" y1="228.822" x2="151.451" y2="219.74" stroke="#8c8c8c" stroke-width="0.3" stroke-dasharray="1.2,0.8"/>
<line x1="190.5" y1="228.822" x2="160.566" y2="206.423" stroke="#8c8c8c" stroke-width="0.3" stroke-dasharray="1.2,0.8"/>
<line x1="125.063" y1="206.423" x2="93.856" y2="188.053" stroke="#141414" stroke-width="0.4"/>
<line x1="98.372" y1="176.436" x2="134.178" y2="193.107" stroke="#141414" stroke-width="0.4"/>
<line x1="6.025" y1="40.359" x2="5.0" y2="5.0" stroke="#141414" stroke-width="0.4"/>
<line x1="5.0" y1="5.0" x2="18.168" y2="38.819" stroke="#141414" stroke-width="0.4"/>
<line x1="15.192" y1="74.393" x2="6.025" y2="40.359" stroke="#141414" stroke-width="0.4"/>
<line x1="18.168" y1="38.819" x2="23.084" y2="72.391" stroke="#141414" stroke-width="0.4"/>
<line x1="23.775" y1="109.574" x2="15.192" y2="74.393" stroke="#141414" stroke-width="0.4"/>
<line x1="23.084" y1="72.391" x2="36.867" y2="99.972" stroke="#141414" stroke-width="0.4"/>
<line x1="42.122" y1="139.818" x2="23.775" y2="109.574" stroke="#141414" stroke-width="0.4"/>
<line x1="36.867" y1="99.972" x2="51.922" y2="132.484" stroke="#141414" stroke-width="0.4"/>
<line x1="66.895" y1="164.891" x2="42.122" y2="139.818" stroke="#141414" stroke-width="0.4"/>
<line x1="51.922" y1="132.484" x2="72.77" y2="159.254" stroke="#141414" stroke-width="0.4"/>
<line x1="93.856" y1="188.053" x2="66.895" y2="164.891" stroke="#141414" stroke-width="0.4"/>
<line x1="72.77" y1="159.254" x2="98.372" y2="176.436" stroke="#141414" stroke-width="0.4"/>
<line x1="125.063" y1="206.423" x2="125.868" y2="214.67" stroke="#141414" stroke-width="0.4"/>
<line x1="125.868" y1="214.67" x2="144.34" y2="223.992" stroke="#141414" stroke-width="0.4"/>
<line x1="144.34" y1="223.992" x2="151.451" y2="219.74" stroke="#141414" stroke-width="0.4"/>
<line x1="134.178" y1="193.107" x2="141.289" y2="188.856" stroke="#141414" stroke-width="0.4"/>
<line x1="141.289" y1="188.856" x2="159.761" y2="198.177" stroke="#141414" stroke-width="0.4"/>
<line x1="159.761" y1="198.177" x2="160.566" y2="206.423" stroke="#141414" stroke-width="0.4"/>
<line x1="151.451" y1="219.74" x2="155.723" y2="227.92" stroke="#141414" stroke-width="0.4"/>
<line x1="155.723" y1="227.92" x2="183.057" y2="234.278" stroke="#141414" stroke-width="0.4"/>
<line x1="183.057" y1="234.278" x2="190.5" y2="228.822" stroke="#141414" stroke-width="0.4"/>
<line x1="160.566" y1="206.423" x2="169.25" y2="204.179" stroke="#141414" stroke-width="0.4"/>
<line x1="169.25" y1="204.179" x2="190.204" y2="219.858" stroke="#141414" stroke-width="0.4"/>
<line x1="190.204" y1="219.858" x2="190.5" y2="228.822" stroke="#141414" stroke-width="0.4"/>
<circle cx="136.68" cy="216.206" r="1.12" fill="#ffe082" stroke="#464646" stroke-width="0.2"/>
<text x="136.68" y="216.59" font-size="1.10" text-anchor="middle" fill="#141414">1</text>
<circle cx="148.948" cy="196.641" r="1.12" fill="#ffe082" stroke="#464646" stroke-width="0.2"/>
<text x="148.948" y="197.03" font-size="1.10" text-anchor="middle" fill="#141414">2</text>
<circle cx="170.183" cy="227.69" r="1.12" fill="#ffe082" stroke="#464646" stroke-width="0.2"/>
<text x="170.183" y="228.07" font-size="1.10" text-anchor="middle" fill="#141414">3</text>
<circle cx="177.63" cy="214.82" r="1.12" fill="#ffe082" stroke="#464646" stroke-width="0.2"/>
<text x="177.63" y="215.20" font-size="1.10" text-anchor="middle" fill="#141414">4</text>
<circle cx="97.75" cy="240.378" r="4.6" fill="#eaf1fe" stroke="#2e78e6" stroke-width="0.3"/>
<text x="97.75" y="242.178" font-size="5.2" text-anchor="middle" fill="#14306e" font-weight="bold">1</text>
<polygon points="105.832,261.86 100.165,267.471 83.075,262.361 81.419,254.56" fill="rgb(216,216,216)"/>
<polygon points="7.067,244.574 10.889,237.574 28.726,237.574 32.549,244.574" fill="rgb(216,216,216)"/>
<polygon points="5.0,252.449 7.735,259.992 25.793,262.959 30.797,256.688" fill="rgb(216,216,216)"/>
<polygon points="30.797,256.688 35.254,263.283 52.853,261.552 55.939,254.215" fill="rgb(216,216,216)"/>
<polygon points="55.939,254.215 59.666,261.266 77.502,261.507 81.419,254.56" fill="rgb(216,216,216)"/>
<line x1="55.939" y1="254.215" x2="32.549" y2="244.574" stroke="#8c8c8c" stroke-width="0.3" stroke-dasharray="1.2,0.8"/>
<line x1="32.549" y1="244.574" x2="5.0" y2="252.449" stroke="#8c8c8c" stroke-width="0.3" stroke-dasharray="1.2,0.8"/>
<line x1="32.549" y1="244.574" x2="30.797" y2="256.688" stroke="#8c8c8c" stroke-width="0.3" stroke-dasharray="1.2,0.8"/>
<line x1="57.691" y1="242.101" x2="55.939" y2="254.215" stroke="#8c8c8c" stroke-width="0.3" stroke-dasharray="1.2,0.8"/>
<line x1="87.382" y1="243.614" x2="55.939" y2="254.215" stroke="#8c8c8c" stroke-width="0.3" stroke-dasharray="1.2,0.8"/>
<line x1="87.382" y1="243.614" x2="81.419" y2="254.56" stroke="#8c8c8c" stroke-width="0.3" stroke-dasharray="1.2,0.8"/>
<line x1="81.419" y1="254.56" x2="105.832" y2="261.86" stroke="#8c8c8c" stroke-width="0.3" stroke-dasharray="1.2,0.8"/>
<line x1="32.549" y1="244.574" x2="7.067" y2="244.574" stroke="#8c8c8c" stroke-width="0.3" stroke-dasharray="1.2,0.8"/>
<line x1="30.797" y1="256.688" x2="5.0" y2="252.449" stroke="#8c8c8c" stroke-width="0.3" stroke-dasharray="1.2,0.8"/>
<line x1="55.939" y1="254.215" x2="30.797" y2="256.688" stroke="#8c8c8c" stroke-width="0.3" stroke-dasharray="1.2,0.8"/>
<line x1="81.419" y1="254.56" x2="55.939" y2="254.215" stroke="#8c8c8c" stroke-width="0.3" stroke-dasharray="1.2,0.8"/>
<line x1="133.68" y1="268.539" x2="105.832" y2="261.86" stroke="#141414" stroke-width="0.4"/>
<line x1="87.382" y1="243.614" x2="133.68" y2="268.539" stroke="#141414" stroke-width="0.4"/>
<line x1="5.0" y1="252.449" x2="7.067" y2="244.574" stroke="#141414" stroke-width="0.4"/>
<line x1="32.549" y1="244.574" x2="57.691" y2="242.101" stroke="#141414" stroke-width="0.4"/>
<line x1="57.691" y1="242.101" x2="87.382" y2="243.614" stroke="#141414" stroke-width="0.4"/>
<line x1="105.832" y1="261.86" x2="100.165" y2="267.471" stroke="#141414" stroke-width="0.4"/>
<line x1="100.165" y1="267.471" x2="83.075" y2="262.361" stroke="#141414" stroke-width="0.4"/>
<line x1="83.075" y1="262.361" x2="81.419" y2="254.56" stroke="#141414" stroke-width="0.4"/>
<line x1="7.067" y1="244.574" x2="10.889" y2="237.574" stroke="#141414" stroke-width="0.4"/>
<line x1="10.889" y1="237.574" x2="28.726" y2="237.574" stroke="#141414" stroke-width="0.4"/>
<line x1="28.726" y1="237.574" x2="32.549" y2="244.574" stroke="#141414" stroke-width="0.4"/>
<line x1="5.0" y1="252.449" x2="7.735" y2="259.992" stroke="#141414" stroke-width="0.4"/>
<line x1="7.735" y1="259.992" x2="25.793" y2="262.959" stroke="#141414" stroke-width="0.4"/>
<line x1="25.793" y1="262.959" x2="30.797" y2="256.688" stroke="#141414" stroke-width="0.4"/>
<line x1="30.797" y1="256.688" x2="35.254" y2="263.283" stroke="#141414" stroke-width="0.4"/>
<line x1="35.254" y1="263.283" x2="52.853" y2="261.552" stroke="#141414" stroke-width="0.4"/>
<line x1="52.853" y1="261.552" x2="55.939" y2="254.215" stroke="#141414" stroke-width="0.4"/>
<line x1="55.939" y1="254.215" x2="59.666" y2="261.266" stroke="#141414" stroke-width="0.4"/>
<line x1="59.666" y1="261.266" x2="77.502" y2="261.507" stroke="#141414" stroke-width="0.4"/>
<line x1="77.502" y1="261.507" x2="81.419" y2="254.56" stroke="#141414" stroke-width="0.4"/>
<circle cx="92.623" cy="261.563" r="1.12" fill="#ffe082" stroke="#464646" stroke-width="0.2"/>
<text x="92.623" y="261.95" font-size="1.10" text-anchor="middle" fill="#141414">64</text>
<circle cx="19.808" cy="241.074" r="1.12" fill="#ffe082" stroke="#464646" stroke-width="0.2"/>
<text x="19.808" y="241.46" font-size="1.10" text-anchor="middle" fill="#141414">65</text>
<circle cx="17.331" cy="258.022" r="1.12" fill="#ffe082" stroke="#464646" stroke-width="0.2"/>
<text x="17.331" y="258.41" font-size="1.10" text-anchor="middle" fill="#141414">66</text>
<circle cx="43.711" cy="258.934" r="1.12" fill="#ffe082" stroke="#464646" stroke-width="0.2"/>
<text x="43.711" y="259.32" font-size="1.10" text-anchor="middle" fill="#141414">67</text>
<circle cx="68.632" cy="257.887" r="1.12" fill="#ffe082" stroke="#464646" stroke-width="0.2"/>
<text x="68.632" y="258.27" font-size="1.10" text-anchor="middle" fill="#141414">68</text>
<circle cx="69.34" cy="231.178" r="4.6" fill="#eaf1fe" stroke="#2e78e6" stroke-width="0.3"/>
<text x="69.34" y="232.978" font-size="5.2" text-anchor="middle" fill="#14306e" font-weight="bold">8</text>
<g pointer-events="none"><text x="105.0" y="89.1" text-anchor="middle" font-family="sans-serif" font-size="21.2" fill="#9aa0a6" fill-opacity="0.33" transform="rotate(-28 105.0 89.1)">papercraft.kr 미리보기</text><text x="105.0" y="163.4" text-anchor="middle" font-family="sans-serif" font-size="21.2" fill="#9aa0a6" fill-opacity="0.33" transform="rotate(-28 105.0 163.4)">papercraft.kr 미리보기</text><text x="105.0" y="237.6" text-anchor="middle" font-family="sans-serif" font-size="21.2" fill="#9aa0a6" fill-opacity="0.33" transform="rotate(-28 105.0 237.6)">papercraft.kr 미리보기</text></g></svg>
