<svg xmlns="http://www.w3.org/2000/svg" xmlns:xlink="http://www.w3.org/1999/xlink" width="210.00mm" height="297.00mm" viewBox="0 0 210.00 297.00">
<rect x="0" y="0" width="210.00" height="297.00" fill="#ffffff" stroke="#cccccc" stroke-width="0.2"/>
<polygon points="52.683,39.294 51.774,30.304 70.631,11.447 79.621,12.356" fill="rgb(216,216,216)"/>
<polygon points="40.02,51.957 39.111,60.947 57.968,79.804 66.959,78.895" fill="rgb(216,216,216)"/>
<polygon points="40.02,51.957 31.03,52.866 12.173,34.009 13.082,25.018" fill="rgb(216,216,216)"/>
<polygon points="79.621,66.233 88.612,67.142 107.469,48.285 106.56,39.294" fill="rgb(216,216,216)"/>
<polygon points="66.959,78.895 66.05,87.886 84.907,106.743 93.897,105.834" fill="rgb(216,216,216)"/>
<polygon points="106.56,39.294 107.469,30.304 88.612,11.447 79.621,12.356" fill="rgb(216,216,216)"/>
<polygon points="133.498,120.11 136.549,126.959 127.685,135.823 120.836,132.773" fill="rgb(216,216,216)"/>
<polygon points="52.683,39.294 51.774,30.304 70.631,11.447 79.621,12.356" fill="#99d9fa"/>
<line x1="40.02" y1="51.957" x2="52.683" y2="39.294" stroke="#8c8c8c" stroke-width="0.3" stroke-dasharray="1.2,0.8"/>
<line x1="79.621" y1="66.233" x2="52.683" y2="39.294" stroke="#8c8c8c" stroke-width="0.3" stroke-dasharray="1.2,0.8"/>
<line x1="79.621" y1="66.233" x2="66.959" y2="78.895" stroke="#8c8c8c" stroke-width="0.3" stroke-dasharray="1.2,0.8"/>
<line x1="106.56" y1="93.171" x2="93.897" y2="105.834" stroke="#8c8c8c" stroke-width="0.3" stroke-dasharray="1.2,0.8"/>
<line x1="120.836" y1="132.773" x2="93.897" y2="105.834" stroke="#8c8c8c" stroke-width="0.3" stroke-dasharray="1.2,0.8"/>
<line x1="79.621" y1="12.356" x2="52.683" y2="39.294" stroke="#8c8c8c" stroke-width="0.3" stroke-dasharray="1.2,0.8"/>
<line x1="66.959" y1="78.895" x2="40.02" y2="51.957" stroke="#8c8c8c" stroke-width="0.3" stroke-dasharray="1.2,0.8"/>
<line x1="13.082" y1="25.018" x2="40.02" y2="51.957" stroke="#8c8c8c" stroke-width="0.3" stroke-dasharray="1.2,0.8"/>
<line x1="106.56" y1="39.294" x2="79.621" y2="66.233" stroke="#8c8c8c" stroke-width="0.3" stroke-dasharray="1.2,0.8"/>
<line x1="93.897" y1="105.834" x2="66.959" y2="78.895" stroke="#8c8c8c" stroke-width="0.3" stroke-dasharray="1.2,0.8"/>
<line x1="79.621" y1="12.356" x2="106.56" y2="39.294" stroke="#8c8c8c" stroke-width="0.3" stroke-dasharray="1.2,0.8"/>
<line x1="120.836" y1="132.773" x2="133.498" y2="120.11" stroke="#8c8c8c" stroke-width="0.3" stroke-dasharray="1.2,0.8"/>
<line x1="25.744" y1="12.356" x2="52.683" y2="39.294" stroke="#141414" stroke-width="0.4"/>
<line x1="93.897" y1="159.711" x2="66.959" y2="132.773" stroke="#141414" stroke-width="0.4"/>
<line x1="120.836" y1="132.773" x2="93.897" y2="159.711" stroke="#141414" stroke-width="0.4"/>
<line x1="79.621" y1="66.233" x2="106.56" y2="93.171" stroke="#141414" stroke-width="0.4"/>
<line x1="66.959" y1="132.773" x2="93.897" y2="105.834" stroke="#141414" stroke-width="0.4"/>
<line x1="106.56" y1="93.171" x2="133.499" y2="120.11" stroke="#141414" stroke-width="0.4"/>
<line x1="13.082" y1="25.018" x2="25.744" y2="12.356" stroke="#141414" stroke-width="0.4"/>
<line x1="52.683" y1="39.294" x2="51.774" y2="30.304" stroke="#141414" stroke-width="0.4"/>
<line x1="51.774" y1="30.304" x2="70.631" y2="11.447" stroke="#141414" stroke-width="0.4"/>
<line x1="70.631" y1="11.447" x2="79.621" y2="12.356" stroke="#141414" stroke-width="0.4"/>
<line x1="40.02" y1="51.957" x2="39.111" y2="60.947" stroke="#141414" stroke-width="0.4"/>
<line x1="39.111" y1="60.947" x2="57.968" y2="79.804" stroke="#141414" stroke-width="0.4"/>
<line x1="57.968" y1="79.804" x2="66.959" y2="78.895" stroke="#141414" stroke-width="0.4"/>
<line x1="40.02" y1="51.957" x2="31.03" y2="52.866" stroke="#141414" stroke-width="0.4"/>
<line x1="31.03" y1="52.866" x2="12.173" y2="34.009" stroke="#141414" stroke-width="0.4"/>
<line x1="12.173" y1="34.009" x2="13.082" y2="25.018" stroke="#141414" stroke-width="0.4"/>
<line x1="79.621" y1="66.233" x2="88.612" y2="67.142" stroke="#141414" stroke-width="0.4"/>
<line x1="88.612" y1="67.142" x2="107.469" y2="48.285" stroke="#141414" stroke-width="0.4"/>
<line x1="107.469" y1="48.285" x2="106.56" y2="39.294" stroke="#141414" stroke-width="0.4"/>
<line x1="66.959" y1="78.895" x2="66.05" y2="87.886" stroke="#141414" stroke-width="0.4"/>
<line x1="66.05" y1="87.886" x2="84.907" y2="106.743" stroke="#141414" stroke-width="0.4"/>
<line x1="84.907" y1="106.743" x2="93.897" y2="105.834" stroke="#141414" stroke-width="0.4"/>
<line x1="106.56" y1="39.294" x2="107.469" y2="30.304" stroke="#141414" stroke-width="0.4"/>
<line x1="107.469" y1="30.304" x2="88.612" y2="11.447" stroke="#141414" stroke-width="0.4"/>
<line x1="88.612" y1="11.447" x2="79.621" y2="12.356" stroke="#141414" stroke-width="0.4"/>
<line x1="133.498" y1="120.11" x2="136.549" y2="126.959" stroke="#141414" stroke-width="0.4"/>
<line x1="136.549" y1="126.959" x2="127.685" y2="135.823" stroke="#141414" stroke-width="0.4"/>
<line x1="127.685" y1="135.823" x2="120.836" y2="132.773" stroke="#141414" stroke-width="0.4"/>
<circle cx="63.677" cy="23.35" r="2.87" fill="#99d9fa" stroke="#464646" stroke-width="0.2"/>
<text x="63.677" y="24.33" font-size="2.81" text-anchor="middle" fill="#141414">34</text>
<circle cx="51.015" cy="67.901" r="2.87" fill="#ffe082" stroke="#464646" stroke-width="0.2"/>
<text x="51.015" y="68.89" font-size="2.81" text-anchor="middle" fill="#141414">35</text>
<circle cx="24.076" cy="40.962" r="2.87" fill="#ffe082" stroke="#464646" stroke-width="0.2"/>
<text x="24.076" y="41.95" font-size="2.81" text-anchor="middle" fill="#141414">36</text>
<circle cx="95.566" cy="55.238" r="2.87" fill="#ffe082" stroke="#464646" stroke-width="0.2"/>
<text x="95.566" y="56.22" font-size="2.81" text-anchor="middle" fill="#141414">37</text>
<circle cx="77.953" cy="94.839" r="2.87" fill="#ffe082" stroke="#464646" stroke-width="0.2"/>
<text x="77.953" y="95.82" font-size="2.81" text-anchor="middle" fill="#141414">38</text>
<circle cx="95.566" cy="23.35" r="2.87" fill="#ffe082" stroke="#464646" stroke-width="0.2"/>
<text x="95.566" y="24.33" font-size="2.81" text-anchor="middle" fill="#141414">39</text>
<circle cx="129.642" cy="128.916" r="2.87" fill="#ffe082" stroke="#464646" stroke-width="0.2"/>
<text x="129.642" y="129.90" font-size="2.81" text-anchor="middle" fill="#141414">40</text>
<circle cx="67.188" cy="159.365" r="4.6" fill="#eaf1fe" stroke="#2e78e6" stroke-width="0.3"/>
<text x="67.188" y="161.16500000000002" font-size="5.2" text-anchor="middle" fill="#14306e" font-weight="bold">4</text>
<polygon points="47.307,186.678 45.949,178.137 62.711,161.375 71.252,162.733" fill="rgb(216,216,216)"/>
<polygon points="36.129,197.857 34.771,206.398 51.533,223.16 60.074,221.802" fill="rgb(216,216,216)"/>
<polygon points="36.129,197.857 27.587,199.215 10.825,182.453 12.184,173.911" fill="rgb(216,216,216)"/>
<polygon points="71.252,210.624 79.794,211.982 96.556,195.22 95.198,186.678" fill="rgb(216,216,216)"/>
<polygon points="60.074,221.802 58.716,230.344 75.478,247.105 84.02,245.747" fill="rgb(216,216,216)"/>
<polygon points="95.198,186.678 96.556,178.137 79.794,161.375 71.252,162.733" fill="rgb(216,216,216)"/>
<polygon points="119.143,258.515 122.416,265.142 114.592,272.966 107.965,269.693" fill="rgb(216,216,216)"/>
<polygon points="47.307,186.678 45.949,178.137 62.711,161.375 71.252,162.733" fill="#99d9fa"/>
<line x1="36.129" y1="197.857" x2="47.307" y2="186.679" stroke="#8c8c8c" stroke-width="0.3" stroke-dasharray="1.2,0.8"/>
<line x1="71.252" y1="210.624" x2="47.307" y2="186.679" stroke="#8c8c8c" stroke-width="0.3" stroke-dasharray="1.2,0.8"/>
<line x1="71.252" y1="210.624" x2="60.074" y2="221.802" stroke="#8c8c8c" stroke-width="0.3" stroke-dasharray="1.2,0.8"/>
<line x1="95.198" y1="234.569" x2="84.02" y2="245.747" stroke="#8c8c8c" stroke-width="0.3" stroke-dasharray="1.2,0.8"/>
<line x1="107.965" y1="269.693" x2="84.02" y2="245.747" stroke="#8c8c8c" stroke-width="0.3" stroke-dasharray="1.2,0.8"/>
<line x1="71.252" y1="162.733" x2="47.307" y2="186.678" stroke="#8c8c8c" stroke-width="0.3" stroke-dasharray="1.2,0.8"/>
<line x1="60.074" y1="221.802" x2="36.129" y2="197.857" stroke="#8c8c8c" stroke-width="0.3" stroke-dasharray="1.2,0.8"/>
<line x1="12.184" y1="173.911" x2="36.129" y2="197.857" stroke="#8c8c8c" stroke-width="0.3" stroke-dasharray="1.2,0.8"/>
<line x1="95.198" y1="186.678" x2="71.252" y2="210.624" stroke="#8c8c8c" stroke-width="0.3" stroke-dasharray="1.2,0.8"/>
<line x1="84.02" y1="245.747" x2="60.074" y2="221.802" stroke="#8c8c8c" stroke-width="0.3" stroke-dasharray="1.2,0.8"/>
<line x1="71.252" y1="162.733" x2="95.198" y2="186.678" stroke="#8c8c8c" stroke-width="0.3" stroke-dasharray="1.2,0.8"/>
<line x1="107.965" y1="269.693" x2="119.143" y2="258.515" stroke="#8c8c8c" stroke-width="0.3" stroke-dasharray="1.2,0.8"/>
<line x1="23.362" y1="162.733" x2="47.307" y2="186.679" stroke="#141414" stroke-width="0.4"/>
<line x1="84.02" y1="293.638" x2="60.074" y2="269.693" stroke="#141414" stroke-width="0.4"/>
<line x1="107.965" y1="269.693" x2="84.02" y2="293.638" stroke="#141414" stroke-width="0.4"/>
<line x1="71.252" y1="210.624" x2="95.198" y2="234.569" stroke="#141414" stroke-width="0.4"/>
<line x1="60.074" y1="269.693" x2="84.02" y2="245.747" stroke="#141414" stroke-width="0.4"/>
<line x1="95.198" y1="234.569" x2="119.143" y2="258.515" stroke="#141414" stroke-width="0.4"/>
<line x1="12.184" y1="173.911" x2="23.362" y2="162.733" stroke="#141414" stroke-width="0.4"/>
<line x1="47.307" y1="186.678" x2="45.949" y2="178.137" stroke="#141414" stroke-width="0.4"/>
<line x1="45.949" y1="178.137" x2="62.711" y2="161.375" stroke="#141414" stroke-width="0.4"/>
<line x1="62.711" y1="161.375" x2="71.252" y2="162.733" stroke="#141414" stroke-width="0.4"/>
<line x1="36.129" y1="197.857" x2="34.771" y2="206.398" stroke="#141414" stroke-width="0.4"/>
<line x1="34.771" y1="206.398" x2="51.533" y2="223.16" stroke="#141414" stroke-width="0.4"/>
<line x1="51.533" y1="223.16" x2="60.074" y2="221.802" stroke="#141414" stroke-width="0.4"/>
<line x1="36.129" y1="197.857" x2="27.587" y2="199.215" stroke="#141414" stroke-width="0.4"/>
<line x1="27.587" y1="199.215" x2="10.825" y2="182.453" stroke="#141414" stroke-width="0.4"/>
<line x1="10.825" y1="182.453" x2="12.184" y2="173.911" stroke="#141414" stroke-width="0.4"/>
<line x1="71.252" y1="210.624" x2="79.794" y2="211.982" stroke="#141414" stroke-width="0.4"/>
<line x1="79.794" y1="211.982" x2="96.556" y2="195.22" stroke="#141414" stroke-width="0.4"/>
<line x1="96.556" y1="195.22" x2="95.198" y2="186.678" stroke="#141414" stroke-width="0.4"/>
<line x1="60.074" y1="221.802" x2="58.716" y2="230.344" stroke="#141414" stroke-width="0.4"/>
<line x1="58.716" y1="230.344" x2="75.478" y2="247.105" stroke="#141414" stroke-width="0.4"/>
<line x1="75.478" y1="247.105" x2="84.02" y2="245.747" stroke="#141414" stroke-width="0.4"/>
<line x1="95.198" y1="186.678" x2="96.556" y2="178.137" stroke="#141414" stroke-width="0.4"/>
<line x1="96.556" y1="178.137" x2="79.794" y2="161.375" stroke="#141414" stroke-width="0.4"/>
<line x1="79.794" y1="161.375" x2="71.252" y2="162.733" stroke="#141414" stroke-width="0.4"/>
<line x1="119.143" y1="258.515" x2="122.416" y2="265.142" stroke="#141414" stroke-width="0.4"/>
<line x1="122.416" y1="265.142" x2="114.592" y2="272.966" stroke="#141414" stroke-width="0.4"/>
<line x1="114.592" y1="272.966" x2="107.965" y2="269.693" stroke="#141414" stroke-width="0.4"/>
<circle cx="56.805" cy="172.231" r="2.87" fill="#99d9fa" stroke="#464646" stroke-width="0.2"/>
<text x="56.805" y="173.22" font-size="2.81" text-anchor="middle" fill="#141414">85</text>
<circle cx="45.627" cy="212.304" r="2.87" fill="#ffe082" stroke="#464646" stroke-width="0.2"/>
<text x="45.627" y="213.29" font-size="2.81" text-anchor="middle" fill="#141414">86</text>
<circle cx="21.681" cy="188.359" r="2.87" fill="#ffe082" stroke="#464646" stroke-width="0.2"/>
<text x="21.681" y="189.34" font-size="2.81" text-anchor="middle" fill="#141414">87</text>
<circle cx="85.7" cy="201.126" r="2.87" fill="#ffe082" stroke="#464646" stroke-width="0.2"/>
<text x="85.7" y="202.11" font-size="2.81" text-anchor="middle" fill="#141414">88</text>
<circle cx="69.572" cy="236.25" r="2.87" fill="#ffe082" stroke="#464646" stroke-width="0.2"/>
<text x="69.572" y="237.23" font-size="2.81" text-anchor="middle" fill="#141414">89</text>
<circle cx="85.7" cy="172.231" r="2.87" fill="#ffe082" stroke="#464646" stroke-width="0.2"/>
<text x="85.7" y="173.22" font-size="2.81" text-anchor="middle" fill="#141414">90</text>
<circle cx="116.029" cy="266.579" r="2.87" fill="#ffe082" stroke="#464646" stroke-width="0.2"/>
<text x="116.029" y="267.56" font-size="2.81" text-anchor="middle" fill="#141414">91</text>
<circle cx="60.795" cy="150.165" r="4.6" fill="#eaf1fe" stroke="#2e78e6" stroke-width="0.3"/>
<text x="60.795" y="151.965" font-size="5.2" text-anchor="middle" fill="#14306e" font-weight="bold">9</text>
</svg>
