<svg xmlns="http://www.w3.org/2000/svg" xmlns:xlink="http://www.w3.org/1999/xlink" width="210.00mm" height="297.00mm" viewBox="0 0 210.00 297.00">
<rect x="0" y="0" width="210.00" height="297.00" fill="#ffffff" stroke="#cccccc" stroke-width="0.2"/>
<polygon points="138.482,99.981 142.58,90.052 137.595,46.478 131.36,37.732" fill="rgb(216,216,216)"/>
<polygon points="61.262,68.104 55.503,64.658 52.64,45.069 57.172,40.119" fill="rgb(216,216,216)"/>
<polygon points="55.642,12.717 50.68,17.117 51.75,36.298 57.172,40.119" fill="rgb(216,216,216)"/>
<polygon points="55.642,12.717 62.916,7.517 96.858,7.517 104.131,12.717" fill="rgb(216,216,216)"/>
<polygon points="17.519,93.522 11.555,90.445 7.462,71.071 11.673,65.845" fill="rgb(216,216,216)"/>
<polygon points="104.131,12.717 108.998,17.537 107.505,38.292 101.998,42.366" fill="rgb(216,216,216)"/>
<polygon points="104.131,12.717 108.998,17.537 107.505,38.292 101.998,42.366" fill="#99d9fa"/>
<line x1="138.482" y1="99.981" x2="101.998" y2="42.366" stroke="#8c8c8c" stroke-width="0.3" stroke-dasharray="1.2,0.8"/>
<line x1="96.699" y1="72.167" x2="17.519" y2="93.522" stroke="#8c8c8c" stroke-width="0.3" stroke-dasharray="1.2,0.8"/>
<line x1="96.699" y1="72.167" x2="101.998" y2="42.366" stroke="#8c8c8c" stroke-width="0.3" stroke-dasharray="1.2,0.8"/>
<line x1="101.998" y1="42.366" x2="57.172" y2="40.119" stroke="#8c8c8c" stroke-width="0.3" stroke-dasharray="1.2,0.8"/>
<line x1="96.699" y1="72.167" x2="138.482" y2="99.981" stroke="#8c8c8c" stroke-width="0.3" stroke-dasharray="1.2,0.8"/>
<line x1="131.36" y1="37.732" x2="138.482" y2="99.981" stroke="#8c8c8c" stroke-width="0.3" stroke-dasharray="1.2,0.8"/>
<line x1="57.172" y1="40.119" x2="61.262" y2="68.104" stroke="#8c8c8c" stroke-width="0.3" stroke-dasharray="1.2,0.8"/>
<line x1="57.172" y1="40.119" x2="55.642" y2="12.717" stroke="#8c8c8c" stroke-width="0.3" stroke-dasharray="1.2,0.8"/>
<line x1="104.131" y1="12.717" x2="55.642" y2="12.717" stroke="#8c8c8c" stroke-width="0.3" stroke-dasharray="1.2,0.8"/>
<line x1="11.673" y1="65.845" x2="17.519" y2="93.522" stroke="#8c8c8c" stroke-width="0.3" stroke-dasharray="1.2,0.8"/>
<line x1="101.998" y1="42.366" x2="104.131" y2="12.717" stroke="#8c8c8c" stroke-width="0.3" stroke-dasharray="1.2,0.8"/>
<line x1="138.482" y1="99.981" x2="17.519" y2="93.522" stroke="#141414" stroke-width="0.4"/>
<line x1="96.699" y1="72.167" x2="61.261" y2="68.103" stroke="#141414" stroke-width="0.4"/>
<line x1="11.673" y1="65.845" x2="96.699" y2="72.167" stroke="#141414" stroke-width="0.4"/>
<line x1="101.998" y1="42.366" x2="131.361" y2="37.732" stroke="#141414" stroke-width="0.4"/>
<line x1="138.482" y1="99.981" x2="142.58" y2="90.052" stroke="#141414" stroke-width="0.4"/>
<line x1="142.58" y1="90.052" x2="137.595" y2="46.478" stroke="#141414" stroke-width="0.4"/>
<line x1="137.595" y1="46.478" x2="131.36" y2="37.732" stroke="#141414" stroke-width="0.4"/>
<line x1="61.262" y1="68.104" x2="55.503" y2="64.658" stroke="#141414" stroke-width="0.4"/>
<line x1="55.503" y1="64.658" x2="52.64" y2="45.069" stroke="#141414" stroke-width="0.4"/>
<line x1="52.64" y1="45.069" x2="57.172" y2="40.119" stroke="#141414" stroke-width="0.4"/>
<line x1="55.642" y1="12.717" x2="50.68" y2="17.117" stroke="#141414" stroke-width="0.4"/>
<line x1="50.68" y1="17.117" x2="51.75" y2="36.298" stroke="#141414" stroke-width="0.4"/>
<line x1="51.75" y1="36.298" x2="57.172" y2="40.119" stroke="#141414" stroke-width="0.4"/>
<line x1="55.642" y1="12.717" x2="62.916" y2="7.517" stroke="#141414" stroke-width="0.4"/>
<line x1="62.916" y1="7.517" x2="96.858" y2="7.517" stroke="#141414" stroke-width="0.4"/>
<line x1="96.858" y1="7.517" x2="104.131" y2="12.717" stroke="#141414" stroke-width="0.4"/>
<line x1="17.519" y1="93.522" x2="11.555" y2="90.445" stroke="#141414" stroke-width="0.4"/>
<line x1="11.555" y1="90.445" x2="7.462" y2="71.071" stroke="#141414" stroke-width="0.4"/>
<line x1="7.462" y1="71.071" x2="11.673" y2="65.845" stroke="#141414" stroke-width="0.4"/>
<line x1="104.131" y1="12.717" x2="108.998" y2="17.537" stroke="#141414" stroke-width="0.4"/>
<line x1="108.998" y1="17.537" x2="107.505" y2="38.292" stroke="#141414" stroke-width="0.4"/>
<line x1="107.505" y1="38.292" x2="101.998" y2="42.366" stroke="#141414" stroke-width="0.4"/>
<circle cx="137.504" cy="68.561" r="2.29" fill="#ffe082" stroke="#464646" stroke-width="0.2"/>
<text x="137.504" y="69.35" font-size="2.24" text-anchor="middle" fill="#141414">60</text>
<circle cx="56.644" cy="54.487" r="2.29" fill="#ffe082" stroke="#464646" stroke-width="0.2"/>
<text x="56.644" y="55.27" font-size="2.24" text-anchor="middle" fill="#141414">64</text>
<circle cx="53.811" cy="26.563" r="2.29" fill="#ffe082" stroke="#464646" stroke-width="0.2"/>
<text x="53.811" y="27.35" font-size="2.24" text-anchor="middle" fill="#141414">66</text>
<circle cx="79.887" cy="10.117" r="2.29" fill="#ffe082" stroke="#464646" stroke-width="0.2"/>
<text x="79.887" y="10.90" font-size="2.24" text-anchor="middle" fill="#141414">67</text>
<circle cx="12.052" cy="80.22" r="2.29" fill="#ffe082" stroke="#464646" stroke-width="0.2"/>
<text x="12.052" y="81.00" font-size="2.24" text-anchor="middle" fill="#141414">75</text>
<circle cx="105.658" cy="27.728" r="2.29" fill="#99d9fa" stroke="#464646" stroke-width="0.2"/>
<text x="105.658" y="28.51" font-size="2.24" text-anchor="middle" fill="#141414">84</text>
<circle cx="84.233" cy="88.556" r="4.60" fill="#eaf1fe" stroke="#2e78e6" stroke-width="0.3"/>
<text x="84.233" y="90.36" font-size="5.20" text-anchor="middle" fill="#14306e" font-weight="bold">15</text>
<text x="205.0" y="295.0" font-size="3.2" text-anchor="end" fill="#737373" font-family="sans-serif">9 / 13</text>
<g pointer-events="none"><text x="105.0" y="83.2" text-anchor="middle" font-family="sans-serif" font-size="12.4" fill="#9aa0a6" fill-opacity="0.3" transform="rotate(-28 105.0 83.2)">papercraft.kr</text><text x="105.0" y="148.5" text-anchor="middle" font-family="sans-serif" font-size="12.4" fill="#9aa0a6" fill-opacity="0.3" transform="rotate(-28 105.0 148.5)">papercraft.kr</text><text x="105.0" y="213.8" text-anchor="middle" font-family="sans-serif" font-size="12.4" fill="#9aa0a6" fill-opacity="0.3" transform="rotate(-28 105.0 213.8)">papercraft.kr</text></g></svg>
