<svg xmlns="http://www.w3.org/2000/svg" xmlns:xlink="http://www.w3.org/1999/xlink" width="210.00mm" height="297.00mm" viewBox="0 0 210.00 297.00">
<rect x="0" y="0" width="210.00" height="297.00" fill="#ffffff" stroke="#cccccc" stroke-width="0.2"/>
<polygon points="7.806,75.168 6.665,81.591 19.148,95.08 25.639,94.439" fill="rgb(216,216,216)"/>
<polygon points="182.122,147.874 175.913,149.616 161.898,138.642 162.101,132.196" fill="rgb(216,216,216)"/>
<polygon points="79.712,14.846 88.859,15.536 116.326,37.655 118.951,46.445" fill="rgb(216,216,216)"/>
<polygon points="196.122,89.914 191.226,82.02 158.449,67.329 149.299,68.926" fill="rgb(216,216,216)"/>
<polygon points="162.101,132.196 157.976,138.649 132.591,145.283 125.837,141.674" fill="rgb(216,216,216)"/>
<polygon points="88.865,148.958 90.82,137.592 119.435,99.003 129.744,93.832" fill="rgb(216,216,216)"/>
<polygon points="88.865,148.958 92.199,158.714 123.628,185.886 133.764,187.775" fill="rgb(216,216,216)"/>
<polygon points="81.302,54.293 75.331,61.413 74.265,71.626 78.637,79.826" fill="rgb(216,216,216)"/>
<polygon points="125.837,141.674 133.667,152.27 134.721,156.76 132.426,169.734" fill="rgb(216,216,216)"/>
<polygon points="78.637,79.826 80.251,86.406 98.456,95.318 104.643,92.557" fill="rgb(216,216,216)"/>
<polygon points="133.764,187.775 138.749,184.684 137.812,172.055 132.426,169.734" fill="rgb(216,216,216)"/>
<line x1="79.712" y1="14.847" x2="25.639" y2="94.439" stroke="#8c8c8c" stroke-width="0.3" stroke-dasharray="1.2,0.8"/>
<line x1="162.101" y1="132.196" x2="196.122" y2="89.913" stroke="#8c8c8c" stroke-width="0.3" stroke-dasharray="1.2,0.8"/>
<line x1="196.122" y1="89.913" x2="132.552" y2="85.618" stroke="#8c8c8c" stroke-width="0.3" stroke-dasharray="1.2,0.8"/>
<line x1="162.101" y1="132.196" x2="151.424" y2="107.578" stroke="#8c8c8c" stroke-width="0.3" stroke-dasharray="1.2,0.8"/>
<line x1="118.951" y1="46.445" x2="113.585" y2="68.926" stroke="#8c8c8c" stroke-width="0.3" stroke-dasharray="1.2,0.8"/>
<line x1="118.951" y1="46.445" x2="149.299" y2="68.926" stroke="#8c8c8c" stroke-width="0.3" stroke-dasharray="1.2,0.8"/>
<line x1="129.744" y1="93.832" x2="125.837" y2="141.674" stroke="#8c8c8c" stroke-width="0.3" stroke-dasharray="1.2,0.8"/>
<line x1="113.585" y1="68.926" x2="81.302" y2="54.293" stroke="#8c8c8c" stroke-width="0.3" stroke-dasharray="1.2,0.8"/>
<line x1="151.424" y1="107.578" x2="125.837" y2="141.674" stroke="#8c8c8c" stroke-width="0.3" stroke-dasharray="1.2,0.8"/>
<line x1="149.299" y1="68.926" x2="132.552" y2="85.618" stroke="#8c8c8c" stroke-width="0.3" stroke-dasharray="1.2,0.8"/>
<line x1="113.585" y1="68.926" x2="149.299" y2="68.926" stroke="#8c8c8c" stroke-width="0.3" stroke-dasharray="1.2,0.8"/>
<line x1="113.585" y1="68.926" x2="79.712" y2="14.847" stroke="#8c8c8c" stroke-width="0.3" stroke-dasharray="1.2,0.8"/>
<line x1="151.424" y1="107.578" x2="196.122" y2="89.913" stroke="#8c8c8c" stroke-width="0.3" stroke-dasharray="1.2,0.8"/>
<line x1="125.837" y1="141.674" x2="88.865" y2="148.958" stroke="#8c8c8c" stroke-width="0.3" stroke-dasharray="1.2,0.8"/>
<line x1="81.302" y1="54.293" x2="104.643" y2="92.557" stroke="#8c8c8c" stroke-width="0.3" stroke-dasharray="1.2,0.8"/>
<line x1="25.639" y1="94.439" x2="7.806" y2="75.168" stroke="#8c8c8c" stroke-width="0.3" stroke-dasharray="1.2,0.8"/>
<line x1="162.101" y1="132.196" x2="182.122" y2="147.874" stroke="#8c8c8c" stroke-width="0.3" stroke-dasharray="1.2,0.8"/>
<line x1="118.951" y1="46.445" x2="79.712" y2="14.846" stroke="#8c8c8c" stroke-width="0.3" stroke-dasharray="1.2,0.8"/>
<line x1="149.299" y1="68.926" x2="196.122" y2="89.914" stroke="#8c8c8c" stroke-width="0.3" stroke-dasharray="1.2,0.8"/>
<line x1="125.837" y1="141.674" x2="162.101" y2="132.196" stroke="#8c8c8c" stroke-width="0.3" stroke-dasharray="1.2,0.8"/>
<line x1="129.744" y1="93.832" x2="88.865" y2="148.958" stroke="#8c8c8c" stroke-width="0.3" stroke-dasharray="1.2,0.8"/>
<line x1="133.764" y1="187.775" x2="88.865" y2="148.958" stroke="#8c8c8c" stroke-width="0.3" stroke-dasharray="1.2,0.8"/>
<line x1="78.637" y1="79.826" x2="81.302" y2="54.293" stroke="#8c8c8c" stroke-width="0.3" stroke-dasharray="1.2,0.8"/>
<line x1="132.426" y1="169.734" x2="125.837" y2="141.674" stroke="#8c8c8c" stroke-width="0.3" stroke-dasharray="1.2,0.8"/>
<line x1="104.643" y1="92.557" x2="78.637" y2="79.826" stroke="#8c8c8c" stroke-width="0.3" stroke-dasharray="1.2,0.8"/>
<line x1="132.426" y1="169.734" x2="133.764" y2="187.775" stroke="#8c8c8c" stroke-width="0.3" stroke-dasharray="1.2,0.8"/>
<line x1="7.806" y1="75.168" x2="79.712" y2="14.847" stroke="#141414" stroke-width="0.4"/>
<line x1="196.122" y1="89.913" x2="182.122" y2="147.874" stroke="#141414" stroke-width="0.4"/>
<line x1="147.595" y1="5.0" x2="181.774" y2="29.198" stroke="#141414" stroke-width="0.4"/>
<line x1="118.951" y1="46.445" x2="147.595" y2="5.0" stroke="#141414" stroke-width="0.4"/>
<line x1="181.774" y1="29.198" x2="149.299" y2="68.926" stroke="#141414" stroke-width="0.4"/>
<line x1="81.302" y1="54.293" x2="25.639" y2="94.439" stroke="#141414" stroke-width="0.4"/>
<line x1="129.744" y1="93.832" x2="151.424" y2="107.578" stroke="#141414" stroke-width="0.4"/>
<line x1="151.424" y1="107.578" x2="132.552" y2="85.618" stroke="#141414" stroke-width="0.4"/>
<line x1="7.806" y1="75.168" x2="6.665" y2="81.591" stroke="#141414" stroke-width="0.4"/>
<line x1="6.665" y1="81.591" x2="19.148" y2="95.08" stroke="#141414" stroke-width="0.4"/>
<line x1="19.148" y1="95.08" x2="25.639" y2="94.439" stroke="#141414" stroke-width="0.4"/>
<line x1="182.122" y1="147.874" x2="175.913" y2="149.616" stroke="#141414" stroke-width="0.4"/>
<line x1="175.913" y1="149.616" x2="161.898" y2="138.642" stroke="#141414" stroke-width="0.4"/>
<line x1="161.898" y1="138.642" x2="162.101" y2="132.196" stroke="#141414" stroke-width="0.4"/>
<line x1="79.712" y1="14.846" x2="88.859" y2="15.536" stroke="#141414" stroke-width="0.4"/>
<line x1="88.859" y1="15.536" x2="116.326" y2="37.655" stroke="#141414" stroke-width="0.4"/>
<line x1="116.326" y1="37.655" x2="118.951" y2="46.445" stroke="#141414" stroke-width="0.4"/>
<line x1="196.122" y1="89.914" x2="191.226" y2="82.02" stroke="#141414" stroke-width="0.4"/>
<line x1="191.226" y1="82.02" x2="158.449" y2="67.329" stroke="#141414" stroke-width="0.4"/>
<line x1="158.449" y1="67.329" x2="149.299" y2="68.926" stroke="#141414" stroke-width="0.4"/>
<line x1="162.101" y1="132.196" x2="157.976" y2="138.649" stroke="#141414" stroke-width="0.4"/>
<line x1="157.976" y1="138.649" x2="132.591" y2="145.283" stroke="#141414" stroke-width="0.4"/>
<line x1="132.591" y1="145.283" x2="125.837" y2="141.674" stroke="#141414" stroke-width="0.4"/>
<line x1="88.865" y1="148.958" x2="90.82" y2="137.592" stroke="#141414" stroke-width="0.4"/>
<line x1="90.82" y1="137.592" x2="119.435" y2="99.003" stroke="#141414" stroke-width="0.4"/>
<line x1="119.435" y1="99.003" x2="129.744" y2="93.832" stroke="#141414" stroke-width="0.4"/>
<line x1="88.865" y1="148.958" x2="92.199" y2="158.714" stroke="#141414" stroke-width="0.4"/>
<line x1="92.199" y1="158.714" x2="123.628" y2="185.886" stroke="#141414" stroke-width="0.4"/>
<line x1="123.628" y1="185.886" x2="133.764" y2="187.775" stroke="#141414" stroke-width="0.4"/>
<line x1="81.302" y1="54.293" x2="75.331" y2="61.413" stroke="#141414" stroke-width="0.4"/>
<line x1="75.331" y1="61.413" x2="74.265" y2="71.626" stroke="#141414" stroke-width="0.4"/>
<line x1="74.265" y1="71.626" x2="78.637" y2="79.826" stroke="#141414" stroke-width="0.4"/>
<line x1="125.837" y1="141.674" x2="133.667" y2="152.27" stroke="#141414" stroke-width="0.4"/>
<line x1="133.667" y1="152.27" x2="134.721" y2="156.76" stroke="#141414" stroke-width="0.4"/>
<line x1="134.721" y1="156.76" x2="132.426" y2="169.734" stroke="#141414" stroke-width="0.4"/>
<line x1="78.637" y1="79.826" x2="80.251" y2="86.406" stroke="#141414" stroke-width="0.4"/>
<line x1="80.251" y1="86.406" x2="98.456" y2="95.318" stroke="#141414" stroke-width="0.4"/>
<line x1="98.456" y1="95.318" x2="104.643" y2="92.557" stroke="#141414" stroke-width="0.4"/>
<line x1="133.764" y1="187.775" x2="138.749" y2="184.684" stroke="#141414" stroke-width="0.4"/>
<line x1="138.749" y1="184.684" x2="137.812" y2="172.055" stroke="#141414" stroke-width="0.4"/>
<line x1="137.812" y1="172.055" x2="132.426" y2="169.734" stroke="#141414" stroke-width="0.4"/>
<circle cx="14.814" cy="86.569" r="2.20" fill="#ffe082" stroke="#464646" stroke-width="0.2"/>
<text x="14.814" y="87.61" font-size="2.98" text-anchor="middle" fill="#141414">4</text>
<circle cx="170.508" cy="142.082" r="2.20" fill="#ffe082" stroke="#464646" stroke-width="0.2"/>
<text x="170.508" y="143.13" font-size="2.98" text-anchor="middle" fill="#141414">9</text>
<circle cx="100.962" cy="28.621" r="2.20" fill="#ffe082" stroke="#464646" stroke-width="0.2"/>
<text x="100.962" y="29.66" font-size="2.98" text-anchor="middle" fill="#141414">14</text>
<circle cx="173.774" cy="77.047" r="2.20" fill="#ffe082" stroke="#464646" stroke-width="0.2"/>
<text x="173.774" y="78.09" font-size="2.98" text-anchor="middle" fill="#141414">20</text>
<circle cx="144.626" cy="139.45" r="2.20" fill="#ffe082" stroke="#464646" stroke-width="0.2"/>
<text x="144.626" y="140.49" font-size="2.98" text-anchor="middle" fill="#141414">24</text>
<circle cx="107.216" cy="119.846" r="2.20" fill="#ffe082" stroke="#464646" stroke-width="0.2"/>
<text x="107.216" y="120.89" font-size="2.98" text-anchor="middle" fill="#141414">25</text>
<circle cx="109.614" cy="170.333" r="2.20" fill="#ffe082" stroke="#464646" stroke-width="0.2"/>
<text x="109.614" y="171.38" font-size="2.98" text-anchor="middle" fill="#141414">26</text>
<circle cx="77.384" cy="66.789" r="2.20" fill="#ffe082" stroke="#464646" stroke-width="0.2"/>
<text x="77.384" y="67.83" font-size="2.98" text-anchor="middle" fill="#141414">30</text>
<circle cx="131.663" cy="155.109" r="2.20" fill="#ffe082" stroke="#464646" stroke-width="0.2"/>
<text x="131.663" y="156.15" font-size="2.98" text-anchor="middle" fill="#141414">31</text>
<circle cx="90.497" cy="88.526" r="2.20" fill="#ffe082" stroke="#464646" stroke-width="0.2"/>
<text x="90.497" y="89.57" font-size="2.98" text-anchor="middle" fill="#141414">33</text>
<circle cx="135.688" cy="178.562" r="2.20" fill="#ffe082" stroke="#464646" stroke-width="0.2"/>
<text x="135.688" y="179.61" font-size="2.98" text-anchor="middle" fill="#141414">35</text>
<circle cx="99.729" cy="193.875" r="4.6" fill="#eaf1fe" stroke="#2e78e6" stroke-width="0.3"/>
<text x="99.729" y="195.675" font-size="5.2" text-anchor="middle" fill="#14306e" font-weight="bold">5</text>
<polygon points="9.162,227.308 7.051,219.606 19.136,194.033 26.427,190.775" fill="rgb(216,216,216)"/>
<polygon points="69.834,260.236 72.763,253.414 63.815,230.365 57.05,227.308" fill="rgb(216,216,216)"/>
<line x1="9.162" y1="227.308" x2="57.05" y2="227.308" stroke="#8c8c8c" stroke-width="0.3" stroke-dasharray="1.2,0.8"/>
<line x1="9.162" y1="227.308" x2="63.25" y2="203.102" stroke="#8c8c8c" stroke-width="0.3" stroke-dasharray="1.2,0.8"/>
<line x1="26.427" y1="190.775" x2="9.162" y2="227.308" stroke="#8c8c8c" stroke-width="0.3" stroke-dasharray="1.2,0.8"/>
<line x1="57.05" y1="227.308" x2="69.834" y2="260.236" stroke="#8c8c8c" stroke-width="0.3" stroke-dasharray="1.2,0.8"/>
<line x1="69.834" y1="260.236" x2="9.162" y2="227.308" stroke="#141414" stroke-width="0.4"/>
<line x1="63.25" y1="203.102" x2="57.05" y2="227.308" stroke="#141414" stroke-width="0.4"/>
<line x1="26.427" y1="190.775" x2="63.25" y2="203.102" stroke="#141414" stroke-width="0.4"/>
<line x1="9.162" y1="227.308" x2="7.051" y2="219.606" stroke="#141414" stroke-width="0.4"/>
<line x1="7.051" y1="219.606" x2="19.136" y2="194.033" stroke="#141414" stroke-width="0.4"/>
<line x1="19.136" y1="194.033" x2="26.427" y2="190.775" stroke="#141414" stroke-width="0.4"/>
<line x1="69.834" y1="260.236" x2="72.763" y2="253.414" stroke="#141414" stroke-width="0.4"/>
<line x1="72.763" y1="253.414" x2="63.815" y2="230.365" stroke="#141414" stroke-width="0.4"/>
<line x1="63.815" y1="230.365" x2="57.05" y2="227.308" stroke="#141414" stroke-width="0.4"/>
<circle cx="15.444" cy="207.93" r="2.20" fill="#ffe082" stroke="#464646" stroke-width="0.2"/>
<text x="15.444" y="208.97" font-size="2.98" text-anchor="middle" fill="#141414">22</text>
<circle cx="65.866" cy="242.831" r="2.20" fill="#ffe082" stroke="#464646" stroke-width="0.2"/>
<text x="65.866" y="243.87" font-size="2.98" text-anchor="middle" fill="#141414">32</text>
<circle cx="37.856" cy="184.675" r="4.6" fill="#eaf1fe" stroke="#2e78e6" stroke-width="0.3"/>
<text x="37.856" y="186.47500000000002" font-size="5.2" text-anchor="middle" fill="#14306e" font-weight="bold">6</text>
<polygon points="107.046,261.678 99.738,258.634 87.388,233.668 89.402,226.012" fill="rgb(216,216,216)"/>
<polygon points="107.046,261.678 112.136,256.491 111.631,232.8 106.324,227.835" fill="rgb(216,216,216)"/>
<polygon points="73.713,198.243 77.145,193.043 93.162,193.043 96.594,198.243" fill="rgb(216,216,216)"/>
<polygon points="96.594,198.243 102.994,201.057 109.805,221.772 106.324,227.835" fill="rgb(216,216,216)"/>
<line x1="96.594" y1="198.243" x2="89.402" y2="226.012" stroke="#8c8c8c" stroke-width="0.3" stroke-dasharray="1.2,0.8"/>
<line x1="89.402" y1="226.012" x2="106.324" y2="227.835" stroke="#8c8c8c" stroke-width="0.3" stroke-dasharray="1.2,0.8"/>
<line x1="89.402" y1="226.012" x2="107.046" y2="261.678" stroke="#8c8c8c" stroke-width="0.3" stroke-dasharray="1.2,0.8"/>
<line x1="106.324" y1="227.835" x2="107.046" y2="261.678" stroke="#8c8c8c" stroke-width="0.3" stroke-dasharray="1.2,0.8"/>
<line x1="96.594" y1="198.243" x2="73.713" y2="198.243" stroke="#8c8c8c" stroke-width="0.3" stroke-dasharray="1.2,0.8"/>
<line x1="106.324" y1="227.835" x2="96.594" y2="198.243" stroke="#8c8c8c" stroke-width="0.3" stroke-dasharray="1.2,0.8"/>
<line x1="89.402" y1="226.012" x2="73.713" y2="198.243" stroke="#141414" stroke-width="0.4"/>
<line x1="107.046" y1="261.678" x2="99.738" y2="258.634" stroke="#141414" stroke-width="0.4"/>
<line x1="99.738" y1="258.634" x2="87.388" y2="233.668" stroke="#141414" stroke-width="0.4"/>
<line x1="87.388" y1="233.668" x2="89.402" y2="226.012" stroke="#141414" stroke-width="0.4"/>
<line x1="107.046" y1="261.678" x2="112.136" y2="256.491" stroke="#141414" stroke-width="0.4"/>
<line x1="112.136" y1="256.491" x2="111.631" y2="232.8" stroke="#141414" stroke-width="0.4"/>
<line x1="111.631" y1="232.8" x2="106.324" y2="227.835" stroke="#141414" stroke-width="0.4"/>
<line x1="73.713" y1="198.243" x2="77.145" y2="193.043" stroke="#141414" stroke-width="0.4"/>
<line x1="77.145" y1="193.043" x2="93.162" y2="193.043" stroke="#141414" stroke-width="0.4"/>
<line x1="93.162" y1="193.043" x2="96.594" y2="198.243" stroke="#141414" stroke-width="0.4"/>
<line x1="96.594" y1="198.243" x2="102.994" y2="201.057" stroke="#141414" stroke-width="0.4"/>
<line x1="102.994" y1="201.057" x2="109.805" y2="221.772" stroke="#141414" stroke-width="0.4"/>
<line x1="109.805" y1="221.772" x2="106.324" y2="227.835" stroke="#141414" stroke-width="0.4"/>
<circle cx="95.894" cy="244.998" r="2.20" fill="#ffe082" stroke="#464646" stroke-width="0.2"/>
<text x="95.894" y="246.04" font-size="2.98" text-anchor="middle" fill="#141414">57</text>
<circle cx="109.284" cy="244.701" r="2.20" fill="#ffe082" stroke="#464646" stroke-width="0.2"/>
<text x="109.284" y="245.74" font-size="2.98" text-anchor="middle" fill="#141414">58</text>
<circle cx="85.154" cy="195.643" r="2.20" fill="#ffe082" stroke="#464646" stroke-width="0.2"/>
<text x="85.154" y="196.69" font-size="2.98" text-anchor="middle" fill="#141414">67</text>
<circle cx="103.929" cy="212.227" r="2.20" fill="#ffe082" stroke="#464646" stroke-width="0.2"/>
<text x="103.929" y="213.27" font-size="2.98" text-anchor="middle" fill="#141414">70</text>
<circle cx="92.925" cy="184.675" r="4.6" fill="#eaf1fe" stroke="#2e78e6" stroke-width="0.3"/>
<text x="92.925" y="186.47500000000002" font-size="5.2" text-anchor="middle" fill="#14306e" font-weight="bold">7</text>
<polygon points="120.474,264.687 117.33,256.174 126.133,222.604 133.049,216.729" fill="rgb(216,216,216)"/>
<polygon points="158.23,243.005 161.934,248.664 181.982,250.962 186.87,246.289" fill="rgb(216,216,216)"/>
<polygon points="153.689,198.243 148.683,201.855 149.548,217.356 154.925,220.389" fill="rgb(216,216,216)"/>
<polygon points="153.689,198.243 159.567,193.043 186.998,193.043 192.876,198.243" fill="rgb(216,216,216)"/>
<polygon points="186.87,246.289 192.632,243.587 195.63,226.728 191.153,222.204" fill="rgb(216,216,216)"/>
<polygon points="192.876,198.243 197.804,202.21 196.598,218.983 191.153,222.204" fill="rgb(216,216,216)"/>
<line x1="154.925" y1="220.389" x2="120.474" y2="264.687" stroke="#8c8c8c" stroke-width="0.3" stroke-dasharray="1.2,0.8"/>
<line x1="154.925" y1="220.389" x2="158.23" y2="243.005" stroke="#8c8c8c" stroke-width="0.3" stroke-dasharray="1.2,0.8"/>
<line x1="191.153" y1="222.204" x2="154.925" y2="220.389" stroke="#8c8c8c" stroke-width="0.3" stroke-dasharray="1.2,0.8"/>
<line x1="133.049" y1="216.729" x2="120.474" y2="264.687" stroke="#8c8c8c" stroke-width="0.3" stroke-dasharray="1.2,0.8"/>
<line x1="186.87" y1="246.289" x2="158.23" y2="243.005" stroke="#8c8c8c" stroke-width="0.3" stroke-dasharray="1.2,0.8"/>
<line x1="154.925" y1="220.389" x2="153.689" y2="198.243" stroke="#8c8c8c" stroke-width="0.3" stroke-dasharray="1.2,0.8"/>
<line x1="192.876" y1="198.243" x2="153.689" y2="198.243" stroke="#8c8c8c" stroke-width="0.3" stroke-dasharray="1.2,0.8"/>
<line x1="191.153" y1="222.204" x2="186.87" y2="246.289" stroke="#8c8c8c" stroke-width="0.3" stroke-dasharray="1.2,0.8"/>
<line x1="191.153" y1="222.204" x2="192.876" y2="198.243" stroke="#8c8c8c" stroke-width="0.3" stroke-dasharray="1.2,0.8"/>
<line x1="158.23" y1="243.005" x2="120.474" y2="264.687" stroke="#141414" stroke-width="0.4"/>
<line x1="133.049" y1="216.729" x2="154.925" y2="220.389" stroke="#141414" stroke-width="0.4"/>
<line x1="120.474" y1="264.687" x2="117.33" y2="256.174" stroke="#141414" stroke-width="0.4"/>
<line x1="117.33" y1="256.174" x2="126.133" y2="222.604" stroke="#141414" stroke-width="0.4"/>
<line x1="126.133" y1="222.604" x2="133.049" y2="216.729" stroke="#141414" stroke-width="0.4"/>
<line x1="158.23" y1="243.005" x2="161.934" y2="248.664" stroke="#141414" stroke-width="0.4"/>
<line x1="161.934" y1="248.664" x2="181.982" y2="250.962" stroke="#141414" stroke-width="0.4"/>
<line x1="181.982" y1="250.962" x2="186.87" y2="246.289" stroke="#141414" stroke-width="0.4"/>
<line x1="153.689" y1="198.243" x2="148.683" y2="201.855" stroke="#141414" stroke-width="0.4"/>
<line x1="148.683" y1="201.855" x2="149.548" y2="217.356" stroke="#141414" stroke-width="0.4"/>
<line x1="149.548" y1="217.356" x2="154.925" y2="220.389" stroke="#141414" stroke-width="0.4"/>
<line x1="153.689" y1="198.243" x2="159.567" y2="193.043" stroke="#141414" stroke-width="0.4"/>
<line x1="159.567" y1="193.043" x2="186.998" y2="193.043" stroke="#141414" stroke-width="0.4"/>
<line x1="186.998" y1="193.043" x2="192.876" y2="198.243" stroke="#141414" stroke-width="0.4"/>
<line x1="186.87" y1="246.289" x2="192.632" y2="243.587" stroke="#141414" stroke-width="0.4"/>
<line x1="192.632" y1="243.587" x2="195.63" y2="226.728" stroke="#141414" stroke-width="0.4"/>
<line x1="195.63" y1="226.728" x2="191.153" y2="222.204" stroke="#141414" stroke-width="0.4"/>
<line x1="192.876" y1="198.243" x2="197.804" y2="202.21" stroke="#141414" stroke-width="0.4"/>
<line x1="197.804" y1="202.21" x2="196.598" y2="218.983" stroke="#141414" stroke-width="0.4"/>
<line x1="196.598" y1="218.983" x2="191.153" y2="222.204" stroke="#141414" stroke-width="0.4"/>
<circle cx="124.246" cy="240.048" r="2.20" fill="#ffe082" stroke="#464646" stroke-width="0.2"/>
<text x="124.246" y="241.09" font-size="2.98" text-anchor="middle" fill="#141414">48</text>
<circle cx="172.254" cy="247.23" r="2.20" fill="#ffe082" stroke="#464646" stroke-width="0.2"/>
<text x="172.254" y="248.27" font-size="2.98" text-anchor="middle" fill="#141414">55</text>
<circle cx="151.711" cy="209.461" r="2.20" fill="#ffe082" stroke="#464646" stroke-width="0.2"/>
<text x="151.711" y="210.50" font-size="2.98" text-anchor="middle" fill="#141414">59</text>
<circle cx="173.283" cy="195.643" r="2.20" fill="#ffe082" stroke="#464646" stroke-width="0.2"/>
<text x="173.283" y="196.69" font-size="2.98" text-anchor="middle" fill="#141414">60</text>
<circle cx="191.571" cy="234.702" r="2.20" fill="#ffe082" stroke="#464646" stroke-width="0.2"/>
<text x="191.571" y="235.75" font-size="2.98" text-anchor="middle" fill="#141414">61</text>
<circle cx="194.608" cy="210.41" r="2.20" fill="#ffe082" stroke="#464646" stroke-width="0.2"/>
<text x="194.608" y="211.45" font-size="2.98" text-anchor="middle" fill="#141414">77</text>
<circle cx="155.373" cy="184.675" r="4.6" fill="#eaf1fe" stroke="#2e78e6" stroke-width="0.3"/>
<text x="155.373" y="186.47500000000002" font-size="5.2" text-anchor="middle" fill="#14306e" font-weight="bold">8</text>
<g pointer-events="none"><text x="105.0" y="89.1" text-anchor="middle" font-family="sans-serif" font-size="21.2" fill="#9aa0a6" fill-opacity="0.33" transform="rotate(-28 105.0 89.1)">papercraft.kr 미리보기</text><text x="105.0" y="163.4" text-anchor="middle" font-family="sans-serif" font-size="21.2" fill="#9aa0a6" fill-opacity="0.33" transform="rotate(-28 105.0 163.4)">papercraft.kr 미리보기</text><text x="105.0" y="237.6" text-anchor="middle" font-family="sans-serif" font-size="21.2" fill="#9aa0a6" fill-opacity="0.33" transform="rotate(-28 105.0 237.6)">papercraft.kr 미리보기</text></g></svg>
