<svg xmlns="http://www.w3.org/2000/svg" xmlns:xlink="http://www.w3.org/1999/xlink" width="210.00mm" height="297.00mm" viewBox="0 0 210.00 297.00">
<rect x="0" y="0" width="210.00" height="297.00" fill="#ffffff" stroke="#cccccc" stroke-width="0.2"/>
<polygon points="32.594,110.079 35.392,102.662 41.831,100.365 48.692,104.335" fill="rgb(216,216,216)"/>
<polygon points="32.594,110.079 25.2,108.785 18.666,119.619 23.26,125.556" fill="rgb(216,216,216)"/>
<polygon points="79.39,90.269 88.493,85.008 92.7,74.742 89.907,64.606" fill="rgb(216,216,216)"/>
<polygon points="36.155,154.959 35.639,163.038 51.411,173.603 58.686,170.051" fill="rgb(216,216,216)"/>
<polygon points="36.155,154.959 27.81,153.36 18.784,132.777 23.26,125.556" fill="rgb(216,216,216)"/>
<polygon points="26.478,13.925 20.274,9.407 7.516,16.691 8.253,24.331" fill="rgb(216,216,216)"/>
<polygon points="26.478,13.925 34.797,15.181 44.035,34.901 39.676,42.097" fill="rgb(216,216,216)"/>
<polygon points="73.336,155.603 76.054,162.754 65.799,172.868 58.686,170.051" fill="rgb(216,216,216)"/>
<polygon points="96.873,106.778 95.279,114.352 80.284,117.917 75.451,111.871" fill="rgb(216,216,216)"/>
<polygon points="75.451,111.871 76.425,120.877 71.059,126.351 62.036,125.556" fill="rgb(216,216,216)"/>
<polygon points="49.587,67.59 53.138,57.405 49.174,47.208 39.676,42.097" fill="rgb(216,216,216)"/>
<polygon points="26.478,13.925 20.274,9.407 7.516,16.691 8.253,24.331" fill="#99d9fa"/>
<line x1="32.594" y1="110.079" x2="62.036" y2="125.556" stroke="#8c8c8c" stroke-width="0.3" stroke-dasharray="1.2,0.8"/>
<line x1="33.866" y1="95.832" x2="49.587" y2="67.59" stroke="#8c8c8c" stroke-width="0.3" stroke-dasharray="1.2,0.8"/>
<line x1="96.873" y1="106.778" x2="79.39" y2="90.269" stroke="#8c8c8c" stroke-width="0.3" stroke-dasharray="1.2,0.8"/>
<line x1="79.39" y1="90.269" x2="75.451" y2="111.871" stroke="#8c8c8c" stroke-width="0.3" stroke-dasharray="1.2,0.8"/>
<line x1="48.692" y1="104.335" x2="79.39" y2="90.269" stroke="#8c8c8c" stroke-width="0.3" stroke-dasharray="1.2,0.8"/>
<line x1="49.587" y1="67.59" x2="79.39" y2="90.269" stroke="#8c8c8c" stroke-width="0.3" stroke-dasharray="1.2,0.8"/>
<line x1="62.036" y1="125.556" x2="36.155" y2="154.959" stroke="#8c8c8c" stroke-width="0.3" stroke-dasharray="1.2,0.8"/>
<line x1="39.676" y1="42.097" x2="14.653" y2="50.683" stroke="#8c8c8c" stroke-width="0.3" stroke-dasharray="1.2,0.8"/>
<line x1="103.367" y1="76.329" x2="96.873" y2="106.778" stroke="#8c8c8c" stroke-width="0.3" stroke-dasharray="1.2,0.8"/>
<line x1="49.587" y1="67.59" x2="89.907" y2="64.606" stroke="#8c8c8c" stroke-width="0.3" stroke-dasharray="1.2,0.8"/>
<line x1="62.036" y1="125.556" x2="73.336" y2="155.603" stroke="#8c8c8c" stroke-width="0.3" stroke-dasharray="1.2,0.8"/>
<line x1="62.036" y1="125.556" x2="58.686" y2="170.051" stroke="#8c8c8c" stroke-width="0.3" stroke-dasharray="1.2,0.8"/>
<line x1="8.253" y1="24.331" x2="39.676" y2="42.097" stroke="#8c8c8c" stroke-width="0.3" stroke-dasharray="1.2,0.8"/>
<line x1="75.451" y1="111.871" x2="48.692" y2="104.335" stroke="#8c8c8c" stroke-width="0.3" stroke-dasharray="1.2,0.8"/>
<line x1="62.036" y1="125.556" x2="48.692" y2="104.335" stroke="#8c8c8c" stroke-width="0.3" stroke-dasharray="1.2,0.8"/>
<line x1="48.692" y1="104.335" x2="49.587" y2="67.59" stroke="#8c8c8c" stroke-width="0.3" stroke-dasharray="1.2,0.8"/>
<line x1="23.26" y1="125.556" x2="62.036" y2="125.556" stroke="#8c8c8c" stroke-width="0.3" stroke-dasharray="1.2,0.8"/>
<line x1="49.587" y1="67.59" x2="22.435" y2="81.832" stroke="#8c8c8c" stroke-width="0.3" stroke-dasharray="1.2,0.8"/>
<line x1="39.676" y1="42.097" x2="22.435" y2="81.832" stroke="#8c8c8c" stroke-width="0.3" stroke-dasharray="1.2,0.8"/>
<line x1="48.692" y1="104.335" x2="32.594" y2="110.079" stroke="#8c8c8c" stroke-width="0.3" stroke-dasharray="1.2,0.8"/>
<line x1="23.26" y1="125.556" x2="32.594" y2="110.079" stroke="#8c8c8c" stroke-width="0.3" stroke-dasharray="1.2,0.8"/>
<line x1="89.907" y1="64.606" x2="79.39" y2="90.269" stroke="#8c8c8c" stroke-width="0.3" stroke-dasharray="1.2,0.8"/>
<line x1="58.686" y1="170.051" x2="36.155" y2="154.959" stroke="#8c8c8c" stroke-width="0.3" stroke-dasharray="1.2,0.8"/>
<line x1="23.26" y1="125.556" x2="36.155" y2="154.959" stroke="#8c8c8c" stroke-width="0.3" stroke-dasharray="1.2,0.8"/>
<line x1="8.253" y1="24.331" x2="26.478" y2="13.925" stroke="#8c8c8c" stroke-width="0.3" stroke-dasharray="1.2,0.8"/>
<line x1="39.676" y1="42.097" x2="26.478" y2="13.925" stroke="#8c8c8c" stroke-width="0.3" stroke-dasharray="1.2,0.8"/>
<line x1="58.686" y1="170.051" x2="73.336" y2="155.603" stroke="#8c8c8c" stroke-width="0.3" stroke-dasharray="1.2,0.8"/>
<line x1="75.451" y1="111.871" x2="96.873" y2="106.778" stroke="#8c8c8c" stroke-width="0.3" stroke-dasharray="1.2,0.8"/>
<line x1="62.036" y1="125.556" x2="75.451" y2="111.871" stroke="#8c8c8c" stroke-width="0.3" stroke-dasharray="1.2,0.8"/>
<line x1="39.676" y1="42.097" x2="49.587" y2="67.59" stroke="#8c8c8c" stroke-width="0.3" stroke-dasharray="1.2,0.8"/>
<line x1="48.692" y1="104.335" x2="33.866" y2="95.832" stroke="#141414" stroke-width="0.4"/>
<line x1="33.866" y1="95.832" x2="22.435" y2="81.832" stroke="#141414" stroke-width="0.4"/>
<line x1="79.39" y1="90.269" x2="103.367" y2="76.329" stroke="#141414" stroke-width="0.4"/>
<line x1="14.653" y1="50.683" x2="8.253" y2="24.331" stroke="#141414" stroke-width="0.4"/>
<line x1="22.435" y1="81.832" x2="14.653" y2="50.683" stroke="#141414" stroke-width="0.4"/>
<line x1="103.367" y1="76.329" x2="113.525" y2="94.692" stroke="#141414" stroke-width="0.4"/>
<line x1="65.486" y1="45.333" x2="89.907" y2="64.606" stroke="#141414" stroke-width="0.4"/>
<line x1="113.525" y1="94.692" x2="96.873" y2="106.778" stroke="#141414" stroke-width="0.4"/>
<line x1="79.066" y1="134.343" x2="73.336" y2="155.603" stroke="#141414" stroke-width="0.4"/>
<line x1="62.036" y1="125.556" x2="79.066" y2="134.343" stroke="#141414" stroke-width="0.4"/>
<line x1="49.587" y1="67.59" x2="65.486" y2="45.333" stroke="#141414" stroke-width="0.4"/>
<line x1="32.594" y1="110.079" x2="35.392" y2="102.662" stroke="#141414" stroke-width="0.4"/>
<line x1="35.392" y1="102.662" x2="41.831" y2="100.365" stroke="#141414" stroke-width="0.4"/>
<line x1="41.831" y1="100.365" x2="48.692" y2="104.335" stroke="#141414" stroke-width="0.4"/>
<line x1="32.594" y1="110.079" x2="25.2" y2="108.785" stroke="#141414" stroke-width="0.4"/>
<line x1="25.2" y1="108.785" x2="18.666" y2="119.619" stroke="#141414" stroke-width="0.4"/>
<line x1="18.666" y1="119.619" x2="23.26" y2="125.556" stroke="#141414" stroke-width="0.4"/>
<line x1="79.39" y1="90.269" x2="88.493" y2="85.008" stroke="#141414" stroke-width="0.4"/>
<line x1="88.493" y1="85.008" x2="92.7" y2="74.742" stroke="#141414" stroke-width="0.4"/>
<line x1="92.7" y1="74.742" x2="89.907" y2="64.606" stroke="#141414" stroke-width="0.4"/>
<line x1="36.155" y1="154.959" x2="35.639" y2="163.038" stroke="#141414" stroke-width="0.4"/>
<line x1="35.639" y1="163.038" x2="51.411" y2="173.603" stroke="#141414" stroke-width="0.4"/>
<line x1="51.411" y1="173.603" x2="58.686" y2="170.051" stroke="#141414" stroke-width="0.4"/>
<line x1="36.155" y1="154.959" x2="27.81" y2="153.36" stroke="#141414" stroke-width="0.4"/>
<line x1="27.81" y1="153.36" x2="18.784" y2="132.777" stroke="#141414" stroke-width="0.4"/>
<line x1="18.784" y1="132.777" x2="23.26" y2="125.556" stroke="#141414" stroke-width="0.4"/>
<line x1="26.478" y1="13.925" x2="20.274" y2="9.407" stroke="#141414" stroke-width="0.4"/>
<line x1="20.274" y1="9.407" x2="7.516" y2="16.691" stroke="#141414" stroke-width="0.4"/>
<line x1="7.516" y1="16.691" x2="8.253" y2="24.331" stroke="#141414" stroke-width="0.4"/>
<line x1="26.478" y1="13.925" x2="34.797" y2="15.181" stroke="#141414" stroke-width="0.4"/>
<line x1="34.797" y1="15.181" x2="44.035" y2="34.901" stroke="#141414" stroke-width="0.4"/>
<line x1="44.035" y1="34.901" x2="39.676" y2="42.097" stroke="#141414" stroke-width="0.4"/>
<line x1="73.336" y1="155.603" x2="76.054" y2="162.754" stroke="#141414" stroke-width="0.4"/>
<line x1="76.054" y1="162.754" x2="65.799" y2="172.868" stroke="#141414" stroke-width="0.4"/>
<line x1="65.799" y1="172.868" x2="58.686" y2="170.051" stroke="#141414" stroke-width="0.4"/>
<line x1="96.873" y1="106.778" x2="95.279" y2="114.352" stroke="#141414" stroke-width="0.4"/>
<line x1="95.279" y1="114.352" x2="80.284" y2="117.917" stroke="#141414" stroke-width="0.4"/>
<line x1="80.284" y1="117.917" x2="75.451" y2="111.871" stroke="#141414" stroke-width="0.4"/>
<line x1="75.451" y1="111.871" x2="76.425" y2="120.877" stroke="#141414" stroke-width="0.4"/>
<line x1="76.425" y1="120.877" x2="71.059" y2="126.351" stroke="#141414" stroke-width="0.4"/>
<line x1="71.059" y1="126.351" x2="62.036" y2="125.556" stroke="#141414" stroke-width="0.4"/>
<line x1="49.587" y1="67.59" x2="53.138" y2="57.405" stroke="#141414" stroke-width="0.4"/>
<line x1="53.138" y1="57.405" x2="49.174" y2="47.208" stroke="#141414" stroke-width="0.4"/>
<line x1="49.174" y1="47.208" x2="39.676" y2="42.097" stroke="#141414" stroke-width="0.4"/>
<circle cx="39.627" cy="104.36" r="1.94" fill="#ffe082" stroke="#464646" stroke-width="0.2"/>
<text x="39.627" y="105.02" font-size="1.90" text-anchor="middle" fill="#141414">12</text>
<circle cx="24.93" cy="116.01" r="1.94" fill="#ffe082" stroke="#464646" stroke-width="0.2"/>
<text x="24.93" y="116.67" font-size="1.90" text-anchor="middle" fill="#141414">13</text>
<circle cx="87.622" cy="78.656" r="1.94" fill="#ffe082" stroke="#464646" stroke-width="0.2"/>
<text x="87.622" y="79.32" font-size="1.90" text-anchor="middle" fill="#141414">14</text>
<circle cx="45.473" cy="165.413" r="1.94" fill="#ffe082" stroke="#464646" stroke-width="0.2"/>
<text x="45.473" y="166.08" font-size="1.90" text-anchor="middle" fill="#141414">15</text>
<circle cx="26.502" cy="141.663" r="1.94" fill="#ffe082" stroke="#464646" stroke-width="0.2"/>
<text x="26.502" y="142.33" font-size="1.90" text-anchor="middle" fill="#141414">16</text>
<circle cx="15.63" cy="16.088" r="1.94" fill="#99d9fa" stroke="#464646" stroke-width="0.2"/>
<text x="15.63" y="16.75" font-size="1.90" text-anchor="middle" fill="#141414">17</text>
<circle cx="36.246" cy="26.526" r="1.94" fill="#ffe082" stroke="#464646" stroke-width="0.2"/>
<text x="36.246" y="27.19" font-size="1.90" text-anchor="middle" fill="#141414">18</text>
<circle cx="68.469" cy="165.319" r="1.94" fill="#ffe082" stroke="#464646" stroke-width="0.2"/>
<text x="68.469" y="165.98" font-size="1.90" text-anchor="middle" fill="#141414">19</text>
<circle cx="86.972" cy="112.73" r="1.94" fill="#ffe082" stroke="#464646" stroke-width="0.2"/>
<text x="86.972" y="113.39" font-size="1.90" text-anchor="middle" fill="#141414">20</text>
<circle cx="71.243" cy="121.164" r="1.94" fill="#ffe082" stroke="#464646" stroke-width="0.2"/>
<text x="71.243" y="121.83" font-size="1.90" text-anchor="middle" fill="#141414">21</text>
<circle cx="47.894" cy="53.575" r="1.94" fill="#ffe082" stroke="#464646" stroke-width="0.2"/>
<text x="47.894" y="54.24" font-size="1.90" text-anchor="middle" fill="#141414">22</text>
<circle cx="24.802" cy="26.784" r="4.60" fill="#eaf1fe" stroke="#2e78e6" stroke-width="0.3"/>
<text x="24.802" y="28.58" font-size="5.20" text-anchor="middle" fill="#14306e" font-weight="bold">2</text>
<polygon points="59.246,228.322 49.791,227.694 44.482,221.036 45.973,211.679" fill="rgb(216,216,216)"/>
<polygon points="80.533,228.322 89.988,227.694 95.297,221.036 93.806,211.679" fill="rgb(216,216,216)"/>
<polygon points="71.143,271.706 74.561,280.07 81.847,282.297 89.358,277.273" fill="rgb(216,216,216)"/>
<polygon points="93.806,211.679 99.919,207.008 96.604,192.481 89.069,190.926" fill="rgb(216,216,216)"/>
<polygon points="89.069,190.926 89.229,183.233 75.804,176.768 69.89,181.689" fill="rgb(216,216,216)"/>
<polygon points="89.358,277.273 86.249,283.825 93.467,290.344 99.67,286.585" fill="rgb(216,216,216)"/>
<polygon points="134.502,259.588 133.565,269.171 109.183,288.068 99.67,286.585" fill="rgb(216,216,216)"/>
<polygon points="69.89,181.689 63.975,176.768 50.55,183.233 50.71,190.926" fill="rgb(216,216,216)"/>
<polygon points="39.529,286.747 44.158,289.311 49.235,284.354 46.782,279.665" fill="rgb(216,216,216)"/>
<polygon points="50.71,190.926 43.175,192.481 39.859,207.008 45.973,211.679" fill="rgb(216,216,216)"/>
<polygon points="46.782,279.665 49.47,281.506 52.158,283.346 55.58,274.631" fill="rgb(216,216,216)"/>
<polygon points="89.069,190.926 89.229,183.233 75.804,176.768 69.89,181.689" fill="#99d9fa"/>
<line x1="59.246" y1="228.322" x2="80.533" y2="228.322" stroke="#8c8c8c" stroke-width="0.3" stroke-dasharray="1.2,0.8"/>
<line x1="71.143" y1="271.706" x2="59.246" y2="228.322" stroke="#8c8c8c" stroke-width="0.3" stroke-dasharray="1.2,0.8"/>
<line x1="59.246" y1="228.322" x2="55.58" y2="274.631" stroke="#8c8c8c" stroke-width="0.3" stroke-dasharray="1.2,0.8"/>
<line x1="80.533" y1="228.322" x2="71.143" y2="271.706" stroke="#8c8c8c" stroke-width="0.3" stroke-dasharray="1.2,0.8"/>
<line x1="101.122" y1="233.73" x2="71.143" y2="271.706" stroke="#8c8c8c" stroke-width="0.3" stroke-dasharray="1.2,0.8"/>
<line x1="55.58" y1="274.631" x2="71.143" y2="271.706" stroke="#8c8c8c" stroke-width="0.3" stroke-dasharray="1.2,0.8"/>
<line x1="101.122" y1="233.73" x2="89.358" y2="277.273" stroke="#8c8c8c" stroke-width="0.3" stroke-dasharray="1.2,0.8"/>
<line x1="119.481" y1="244.504" x2="89.358" y2="277.273" stroke="#8c8c8c" stroke-width="0.3" stroke-dasharray="1.2,0.8"/>
<line x1="20.231" y1="244.492" x2="46.782" y2="279.665" stroke="#8c8c8c" stroke-width="0.3" stroke-dasharray="1.2,0.8"/>
<line x1="38.707" y1="233.919" x2="55.58" y2="274.631" stroke="#8c8c8c" stroke-width="0.3" stroke-dasharray="1.2,0.8"/>
<line x1="134.502" y1="259.588" x2="89.358" y2="277.273" stroke="#8c8c8c" stroke-width="0.3" stroke-dasharray="1.2,0.8"/>
<line x1="45.973" y1="211.679" x2="59.246" y2="228.322" stroke="#8c8c8c" stroke-width="0.3" stroke-dasharray="1.2,0.8"/>
<line x1="93.806" y1="211.679" x2="80.533" y2="228.322" stroke="#8c8c8c" stroke-width="0.3" stroke-dasharray="1.2,0.8"/>
<line x1="89.358" y1="277.273" x2="71.143" y2="271.706" stroke="#8c8c8c" stroke-width="0.3" stroke-dasharray="1.2,0.8"/>
<line x1="89.069" y1="190.926" x2="93.806" y2="211.679" stroke="#8c8c8c" stroke-width="0.3" stroke-dasharray="1.2,0.8"/>
<line x1="69.89" y1="181.689" x2="89.069" y2="190.926" stroke="#8c8c8c" stroke-width="0.3" stroke-dasharray="1.2,0.8"/>
<line x1="99.67" y1="286.585" x2="89.358" y2="277.273" stroke="#8c8c8c" stroke-width="0.3" stroke-dasharray="1.2,0.8"/>
<line x1="99.67" y1="286.585" x2="134.502" y2="259.588" stroke="#8c8c8c" stroke-width="0.3" stroke-dasharray="1.2,0.8"/>
<line x1="50.71" y1="190.926" x2="69.89" y2="181.689" stroke="#8c8c8c" stroke-width="0.3" stroke-dasharray="1.2,0.8"/>
<line x1="46.782" y1="279.665" x2="39.529" y2="286.747" stroke="#8c8c8c" stroke-width="0.3" stroke-dasharray="1.2,0.8"/>
<line x1="45.973" y1="211.679" x2="50.71" y2="190.926" stroke="#8c8c8c" stroke-width="0.3" stroke-dasharray="1.2,0.8"/>
<line x1="55.58" y1="274.631" x2="46.782" y2="279.665" stroke="#8c8c8c" stroke-width="0.3" stroke-dasharray="1.2,0.8"/>
<line x1="38.707" y1="233.919" x2="59.246" y2="228.322" stroke="#141414" stroke-width="0.4"/>
<line x1="80.533" y1="228.322" x2="101.122" y2="233.73" stroke="#141414" stroke-width="0.4"/>
<line x1="71.143" y1="271.706" x2="73.208" y2="290.64" stroke="#141414" stroke-width="0.4"/>
<line x1="101.122" y1="233.73" x2="119.481" y2="244.504" stroke="#141414" stroke-width="0.4"/>
<line x1="119.481" y1="244.504" x2="134.502" y2="259.588" stroke="#141414" stroke-width="0.4"/>
<line x1="73.208" y1="290.64" x2="59.437" y2="292.485" stroke="#141414" stroke-width="0.4"/>
<line x1="39.529" y1="286.747" x2="5.0" y2="259.363" stroke="#141414" stroke-width="0.4"/>
<line x1="5.0" y1="259.363" x2="20.231" y2="244.492" stroke="#141414" stroke-width="0.4"/>
<line x1="59.437" y1="292.485" x2="53.209" y2="284.486" stroke="#141414" stroke-width="0.4"/>
<line x1="20.231" y1="244.492" x2="38.707" y2="233.919" stroke="#141414" stroke-width="0.4"/>
<line x1="53.209" y1="284.486" x2="55.58" y2="274.631" stroke="#141414" stroke-width="0.4"/>
<line x1="59.246" y1="228.322" x2="49.791" y2="227.694" stroke="#141414" stroke-width="0.4"/>
<line x1="49.791" y1="227.694" x2="44.482" y2="221.036" stroke="#141414" stroke-width="0.4"/>
<line x1="44.482" y1="221.036" x2="45.973" y2="211.679" stroke="#141414" stroke-width="0.4"/>
<line x1="80.533" y1="228.322" x2="89.988" y2="227.694" stroke="#141414" stroke-width="0.4"/>
<line x1="89.988" y1="227.694" x2="95.297" y2="221.036" stroke="#141414" stroke-width="0.4"/>
<line x1="95.297" y1="221.036" x2="93.806" y2="211.679" stroke="#141414" stroke-width="0.4"/>
<line x1="71.143" y1="271.706" x2="74.561" y2="280.07" stroke="#141414" stroke-width="0.4"/>
<line x1="74.561" y1="280.07" x2="81.847" y2="282.297" stroke="#141414" stroke-width="0.4"/>
<line x1="81.847" y1="282.297" x2="89.358" y2="277.273" stroke="#141414" stroke-width="0.4"/>
<line x1="93.806" y1="211.679" x2="99.919" y2="207.008" stroke="#141414" stroke-width="0.4"/>
<line x1="99.919" y1="207.008" x2="96.604" y2="192.481" stroke="#141414" stroke-width="0.4"/>
<line x1="96.604" y1="192.481" x2="89.069" y2="190.926" stroke="#141414" stroke-width="0.4"/>
<line x1="89.069" y1="190.926" x2="89.229" y2="183.233" stroke="#141414" stroke-width="0.4"/>
<line x1="89.229" y1="183.233" x2="75.804" y2="176.768" stroke="#141414" stroke-width="0.4"/>
<line x1="75.804" y1="176.768" x2="69.89" y2="181.689" stroke="#141414" stroke-width="0.4"/>
<line x1="89.358" y1="277.273" x2="86.249" y2="283.825" stroke="#141414" stroke-width="0.4"/>
<line x1="86.249" y1="283.825" x2="93.467" y2="290.344" stroke="#141414" stroke-width="0.4"/>
<line x1="93.467" y1="290.344" x2="99.67" y2="286.585" stroke="#141414" stroke-width="0.4"/>
<line x1="134.502" y1="259.588" x2="133.565" y2="269.171" stroke="#141414" stroke-width="0.4"/>
<line x1="133.565" y1="269.171" x2="109.183" y2="288.068" stroke="#141414" stroke-width="0.4"/>
<line x1="109.183" y1="288.068" x2="99.67" y2="286.585" stroke="#141414" stroke-width="0.4"/>
<line x1="69.89" y1="181.689" x2="63.975" y2="176.768" stroke="#141414" stroke-width="0.4"/>
<line x1="63.975" y1="176.768" x2="50.55" y2="183.233" stroke="#141414" stroke-width="0.4"/>
<line x1="50.55" y1="183.233" x2="50.71" y2="190.926" stroke="#141414" stroke-width="0.4"/>
<line x1="39.529" y1="286.747" x2="44.158" y2="289.311" stroke="#141414" stroke-width="0.4"/>
<line x1="44.158" y1="289.311" x2="49.235" y2="284.354" stroke="#141414" stroke-width="0.4"/>
<line x1="49.235" y1="284.354" x2="46.782" y2="279.665" stroke="#141414" stroke-width="0.4"/>
<line x1="50.71" y1="190.926" x2="43.175" y2="192.481" stroke="#141414" stroke-width="0.4"/>
<line x1="43.175" y1="192.481" x2="39.859" y2="207.008" stroke="#141414" stroke-width="0.4"/>
<line x1="39.859" y1="207.008" x2="45.973" y2="211.679" stroke="#141414" stroke-width="0.4"/>
<line x1="46.782" y1="279.665" x2="49.47" y2="281.506" stroke="#141414" stroke-width="0.4"/>
<line x1="49.47" y1="281.506" x2="52.158" y2="283.346" stroke="#141414" stroke-width="0.4"/>
<line x1="52.158" y1="283.346" x2="55.58" y2="274.631" stroke="#141414" stroke-width="0.4"/>
<circle cx="49.873" cy="222.183" r="1.94" fill="#ffe082" stroke="#464646" stroke-width="0.2"/>
<text x="49.873" y="222.85" font-size="1.90" text-anchor="middle" fill="#141414">23</text>
<circle cx="89.906" cy="222.183" r="1.94" fill="#ffe082" stroke="#464646" stroke-width="0.2"/>
<text x="89.906" y="222.85" font-size="1.90" text-anchor="middle" fill="#141414">24</text>
<circle cx="79.227" cy="277.837" r="1.94" fill="#ffe082" stroke="#464646" stroke-width="0.2"/>
<text x="79.227" y="278.50" font-size="1.90" text-anchor="middle" fill="#141414">25</text>
<circle cx="94.849" cy="200.524" r="1.94" fill="#ffe082" stroke="#464646" stroke-width="0.2"/>
<text x="94.849" y="201.19" font-size="1.90" text-anchor="middle" fill="#141414">26</text>
<circle cx="80.998" cy="183.154" r="1.94" fill="#99d9fa" stroke="#464646" stroke-width="0.2"/>
<text x="80.998" y="183.82" font-size="1.90" text-anchor="middle" fill="#141414">27</text>
<circle cx="92.186" cy="284.507" r="1.94" fill="#ffe082" stroke="#464646" stroke-width="0.2"/>
<text x="92.186" y="285.17" font-size="1.90" text-anchor="middle" fill="#141414">28</text>
<circle cx="119.23" cy="275.853" r="1.94" fill="#ffe082" stroke="#464646" stroke-width="0.2"/>
<text x="119.23" y="276.52" font-size="1.90" text-anchor="middle" fill="#141414">29</text>
<circle cx="58.781" cy="183.154" r="1.94" fill="#ffe082" stroke="#464646" stroke-width="0.2"/>
<text x="58.781" y="183.82" font-size="1.90" text-anchor="middle" fill="#141414">30</text>
<circle cx="44.926" cy="285.019" r="1.94" fill="#ffe082" stroke="#464646" stroke-width="0.2"/>
<text x="44.926" y="285.68" font-size="1.90" text-anchor="middle" fill="#141414">31</text>
<circle cx="44.93" cy="200.524" r="1.94" fill="#ffe082" stroke="#464646" stroke-width="0.2"/>
<text x="44.93" y="201.19" font-size="1.90" text-anchor="middle" fill="#141414">32</text>
<circle cx="50.998" cy="279.787" r="1.94" fill="#ffe082" stroke="#464646" stroke-width="0.2"/>
<text x="50.998" y="280.45" font-size="1.90" text-anchor="middle" fill="#141414">33</text>
<circle cx="114.447" cy="260.455" r="4.60" fill="#eaf1fe" stroke="#2e78e6" stroke-width="0.3"/>
<text x="114.447" y="262.25" font-size="5.20" text-anchor="middle" fill="#14306e" font-weight="bold">3</text>
<polygon points="141.197,24.984 138.35,17.931 148.163,8.119 155.215,10.966" fill="rgb(216,216,216)"/>
<polygon points="132.232,33.949 129.385,41.001 139.198,50.813 146.25,47.966" fill="rgb(216,216,216)"/>
<polygon points="132.232,33.949 125.18,36.796 115.367,26.983 118.214,19.931" fill="rgb(216,216,216)"/>
<polygon points="155.215,39.002 162.267,41.849 172.08,32.036 169.233,24.984" fill="rgb(216,216,216)"/>
<polygon points="146.25,47.966 143.403,55.019 153.215,64.831 160.268,61.984" fill="rgb(216,216,216)"/>
<polygon points="169.233,24.984 172.08,17.931 162.267,8.119 155.215,10.966" fill="rgb(216,216,216)"/>
<polygon points="183.25,67.037 186.388,72.865 180.113,79.14 174.286,76.002" fill="rgb(216,216,216)"/>
<polygon points="183.25,67.037 186.388,72.865 180.113,79.14 174.286,76.002" fill="#99d9fa"/>
<line x1="132.232" y1="33.949" x2="141.197" y2="24.984" stroke="#8c8c8c" stroke-width="0.3" stroke-dasharray="1.2,0.8"/>
<line x1="155.215" y1="39.002" x2="141.197" y2="24.984" stroke="#8c8c8c" stroke-width="0.3" stroke-dasharray="1.2,0.8"/>
<line x1="155.215" y1="39.002" x2="146.25" y2="47.967" stroke="#8c8c8c" stroke-width="0.3" stroke-dasharray="1.2,0.8"/>
<line x1="169.233" y1="53.019" x2="160.268" y2="61.984" stroke="#8c8c8c" stroke-width="0.3" stroke-dasharray="1.2,0.8"/>
<line x1="174.286" y1="76.002" x2="160.268" y2="61.984" stroke="#8c8c8c" stroke-width="0.3" stroke-dasharray="1.2,0.8"/>
<line x1="155.215" y1="10.966" x2="141.197" y2="24.984" stroke="#8c8c8c" stroke-width="0.3" stroke-dasharray="1.2,0.8"/>
<line x1="146.25" y1="47.966" x2="132.232" y2="33.949" stroke="#8c8c8c" stroke-width="0.3" stroke-dasharray="1.2,0.8"/>
<line x1="118.214" y1="19.931" x2="132.232" y2="33.949" stroke="#8c8c8c" stroke-width="0.3" stroke-dasharray="1.2,0.8"/>
<line x1="169.233" y1="24.984" x2="155.215" y2="39.002" stroke="#8c8c8c" stroke-width="0.3" stroke-dasharray="1.2,0.8"/>
<line x1="160.268" y1="61.984" x2="146.25" y2="47.966" stroke="#8c8c8c" stroke-width="0.3" stroke-dasharray="1.2,0.8"/>
<line x1="155.215" y1="10.966" x2="169.233" y2="24.984" stroke="#8c8c8c" stroke-width="0.3" stroke-dasharray="1.2,0.8"/>
<line x1="174.286" y1="76.002" x2="183.25" y2="67.037" stroke="#8c8c8c" stroke-width="0.3" stroke-dasharray="1.2,0.8"/>
<line x1="127.18" y1="10.966" x2="141.197" y2="24.984" stroke="#141414" stroke-width="0.4"/>
<line x1="160.268" y1="90.02" x2="146.25" y2="76.002" stroke="#141414" stroke-width="0.4"/>
<line x1="174.286" y1="76.002" x2="160.268" y2="90.02" stroke="#141414" stroke-width="0.4"/>
<line x1="155.215" y1="39.002" x2="169.233" y2="53.019" stroke="#141414" stroke-width="0.4"/>
<line x1="146.25" y1="76.002" x2="160.268" y2="61.984" stroke="#141414" stroke-width="0.4"/>
<line x1="169.233" y1="53.019" x2="183.25" y2="67.037" stroke="#141414" stroke-width="0.4"/>
<line x1="118.215" y1="19.931" x2="127.18" y2="10.966" stroke="#141414" stroke-width="0.4"/>
<line x1="141.197" y1="24.984" x2="138.35" y2="17.931" stroke="#141414" stroke-width="0.4"/>
<line x1="138.35" y1="17.931" x2="148.163" y2="8.119" stroke="#141414" stroke-width="0.4"/>
<line x1="148.163" y1="8.119" x2="155.215" y2="10.966" stroke="#141414" stroke-width="0.4"/>
<line x1="132.232" y1="33.949" x2="129.385" y2="41.001" stroke="#141414" stroke-width="0.4"/>
<line x1="129.385" y1="41.001" x2="139.198" y2="50.813" stroke="#141414" stroke-width="0.4"/>
<line x1="139.198" y1="50.813" x2="146.25" y2="47.966" stroke="#141414" stroke-width="0.4"/>
<line x1="132.232" y1="33.949" x2="125.18" y2="36.796" stroke="#141414" stroke-width="0.4"/>
<line x1="125.18" y1="36.796" x2="115.367" y2="26.983" stroke="#141414" stroke-width="0.4"/>
<line x1="115.367" y1="26.983" x2="118.214" y2="19.931" stroke="#141414" stroke-width="0.4"/>
<line x1="155.215" y1="39.002" x2="162.267" y2="41.849" stroke="#141414" stroke-width="0.4"/>
<line x1="162.267" y1="41.849" x2="172.08" y2="32.036" stroke="#141414" stroke-width="0.4"/>
<line x1="172.08" y1="32.036" x2="169.233" y2="24.984" stroke="#141414" stroke-width="0.4"/>
<line x1="146.25" y1="47.966" x2="143.403" y2="55.019" stroke="#141414" stroke-width="0.4"/>
<line x1="143.403" y1="55.019" x2="153.215" y2="64.831" stroke="#141414" stroke-width="0.4"/>
<line x1="153.215" y1="64.831" x2="160.268" y2="61.984" stroke="#141414" stroke-width="0.4"/>
<line x1="169.233" y1="24.984" x2="172.08" y2="17.931" stroke="#141414" stroke-width="0.4"/>
<line x1="172.08" y1="17.931" x2="162.267" y2="8.119" stroke="#141414" stroke-width="0.4"/>
<line x1="162.267" y1="8.119" x2="155.215" y2="10.966" stroke="#141414" stroke-width="0.4"/>
<line x1="183.25" y1="67.037" x2="186.388" y2="72.865" stroke="#141414" stroke-width="0.4"/>
<line x1="186.388" y1="72.865" x2="180.113" y2="79.14" stroke="#141414" stroke-width="0.4"/>
<line x1="180.113" y1="79.14" x2="174.286" y2="76.002" stroke="#141414" stroke-width="0.4"/>
<circle cx="145.731" cy="15.5" r="1.94" fill="#ffe082" stroke="#464646" stroke-width="0.2"/>
<text x="145.731" y="16.16" font-size="1.90" text-anchor="middle" fill="#141414">87</text>
<circle cx="136.766" cy="43.432" r="1.94" fill="#ffe082" stroke="#464646" stroke-width="0.2"/>
<text x="136.766" y="44.10" font-size="1.90" text-anchor="middle" fill="#141414">88</text>
<circle cx="122.748" cy="29.415" r="1.94" fill="#ffe082" stroke="#464646" stroke-width="0.2"/>
<text x="122.748" y="30.08" font-size="1.90" text-anchor="middle" fill="#141414">89</text>
<circle cx="164.699" cy="34.467" r="1.94" fill="#ffe082" stroke="#464646" stroke-width="0.2"/>
<text x="164.699" y="35.13" font-size="1.90" text-anchor="middle" fill="#141414">90</text>
<circle cx="150.784" cy="57.45" r="1.94" fill="#ffe082" stroke="#464646" stroke-width="0.2"/>
<text x="150.784" y="58.11" font-size="1.90" text-anchor="middle" fill="#141414">91</text>
<circle cx="164.699" cy="15.5" r="1.94" fill="#ffe082" stroke="#464646" stroke-width="0.2"/>
<text x="164.699" y="16.16" font-size="1.90" text-anchor="middle" fill="#141414">92</text>
<circle cx="181.009" cy="73.761" r="1.94" fill="#99d9fa" stroke="#464646" stroke-width="0.2"/>
<text x="181.009" y="74.42" font-size="1.90" text-anchor="middle" fill="#141414">93</text>
<circle cx="158.583" cy="54.323" r="2.85" fill="#eaf1fe" stroke="#2e78e6" stroke-width="0.3"/>
<text x="158.583" y="55.44" font-size="3.22" text-anchor="middle" fill="#14306e" font-weight="bold">11</text>
<polygon points="168.49,235.276 171.644,242.276 186.363,242.276 189.517,235.276" fill="rgb(216,216,216)"/>
<polygon points="168.49,214.249 171.644,207.249 186.363,207.249 189.517,214.249" fill="rgb(216,216,216)"/>
<polygon points="189.517,235.276 196.517,232.122 196.517,217.403 189.517,214.249" fill="rgb(216,216,216)"/>
<polygon points="168.49,256.302 166.996,261.283 160.023,261.283 158.528,256.302" fill="rgb(216,216,216)"/>
<polygon points="158.528,235.276 151.529,232.122 151.529,217.403 158.528,214.249" fill="rgb(216,216,216)"/>
<polygon points="158.528,235.276 151.529,238.43 151.529,253.148 158.528,256.302" fill="rgb(216,216,216)"/>
<polygon points="158.528,214.249 151.529,211.095 151.529,196.376 158.528,193.222" fill="rgb(216,216,216)"/>
<polygon points="168.49,235.276 171.644,242.276 186.363,242.276 189.517,235.276" fill="#99d9fa"/>
<line x1="168.49" y1="235.276" x2="168.49" y2="214.249" stroke="#8c8c8c" stroke-width="0.3" stroke-dasharray="1.2,0.8"/>
<line x1="168.49" y1="235.276" x2="158.529" y2="235.276" stroke="#8c8c8c" stroke-width="0.3" stroke-dasharray="1.2,0.8"/>
<line x1="158.529" y1="214.249" x2="168.49" y2="214.249" stroke="#8c8c8c" stroke-width="0.3" stroke-dasharray="1.2,0.8"/>
<line x1="158.529" y1="193.222" x2="168.49" y2="193.222" stroke="#8c8c8c" stroke-width="0.3" stroke-dasharray="1.2,0.8"/>
<line x1="158.529" y1="193.222" x2="158.529" y2="172.196" stroke="#8c8c8c" stroke-width="0.3" stroke-dasharray="1.2,0.8"/>
<line x1="189.517" y1="235.276" x2="168.49" y2="235.276" stroke="#8c8c8c" stroke-width="0.3" stroke-dasharray="1.2,0.8"/>
<line x1="189.517" y1="214.249" x2="168.49" y2="214.249" stroke="#8c8c8c" stroke-width="0.3" stroke-dasharray="1.2,0.8"/>
<line x1="189.517" y1="214.249" x2="189.517" y2="235.276" stroke="#8c8c8c" stroke-width="0.3" stroke-dasharray="1.2,0.8"/>
<line x1="158.528" y1="256.302" x2="168.49" y2="256.302" stroke="#8c8c8c" stroke-width="0.3" stroke-dasharray="1.2,0.8"/>
<line x1="158.528" y1="214.249" x2="158.528" y2="235.276" stroke="#8c8c8c" stroke-width="0.3" stroke-dasharray="1.2,0.8"/>
<line x1="158.528" y1="256.302" x2="158.528" y2="235.276" stroke="#8c8c8c" stroke-width="0.3" stroke-dasharray="1.2,0.8"/>
<line x1="158.528" y1="193.222" x2="158.528" y2="214.249" stroke="#8c8c8c" stroke-width="0.3" stroke-dasharray="1.2,0.8"/>
<line x1="168.49" y1="235.276" x2="168.49" y2="256.303" stroke="#141414" stroke-width="0.4"/>
<line x1="168.49" y1="193.222" x2="168.49" y2="214.249" stroke="#141414" stroke-width="0.4"/>
<line x1="168.49" y1="172.196" x2="168.49" y2="193.222" stroke="#141414" stroke-width="0.4"/>
<line x1="158.529" y1="172.196" x2="168.49" y2="172.196" stroke="#141414" stroke-width="0.4"/>
<line x1="137.502" y1="193.222" x2="137.502" y2="172.196" stroke="#141414" stroke-width="0.4"/>
<line x1="137.502" y1="172.196" x2="158.529" y2="172.196" stroke="#141414" stroke-width="0.4"/>
<line x1="158.529" y1="193.222" x2="137.502" y2="193.222" stroke="#141414" stroke-width="0.4"/>
<line x1="168.49" y1="235.276" x2="171.644" y2="242.276" stroke="#141414" stroke-width="0.4"/>
<line x1="171.644" y1="242.276" x2="186.363" y2="242.276" stroke="#141414" stroke-width="0.4"/>
<line x1="186.363" y1="242.276" x2="189.517" y2="235.276" stroke="#141414" stroke-width="0.4"/>
<line x1="168.49" y1="214.249" x2="171.644" y2="207.249" stroke="#141414" stroke-width="0.4"/>
<line x1="171.644" y1="207.249" x2="186.363" y2="207.249" stroke="#141414" stroke-width="0.4"/>
<line x1="186.363" y1="207.249" x2="189.517" y2="214.249" stroke="#141414" stroke-width="0.4"/>
<line x1="189.517" y1="235.276" x2="196.517" y2="232.122" stroke="#141414" stroke-width="0.4"/>
<line x1="196.517" y1="232.122" x2="196.517" y2="217.403" stroke="#141414" stroke-width="0.4"/>
<line x1="196.517" y1="217.403" x2="189.517" y2="214.249" stroke="#141414" stroke-width="0.4"/>
<line x1="168.49" y1="256.302" x2="166.996" y2="261.283" stroke="#141414" stroke-width="0.4"/>
<line x1="166.996" y1="261.283" x2="160.023" y2="261.283" stroke="#141414" stroke-width="0.4"/>
<line x1="160.023" y1="261.283" x2="158.528" y2="256.302" stroke="#141414" stroke-width="0.4"/>
<line x1="158.528" y1="235.276" x2="151.529" y2="232.122" stroke="#141414" stroke-width="0.4"/>
<line x1="151.529" y1="232.122" x2="151.529" y2="217.403" stroke="#141414" stroke-width="0.4"/>
<line x1="151.529" y1="217.403" x2="158.528" y2="214.249" stroke="#141414" stroke-width="0.4"/>
<line x1="158.528" y1="235.276" x2="151.529" y2="238.43" stroke="#141414" stroke-width="0.4"/>
<line x1="151.529" y1="238.43" x2="151.529" y2="253.148" stroke="#141414" stroke-width="0.4"/>
<line x1="151.529" y1="253.148" x2="158.528" y2="256.302" stroke="#141414" stroke-width="0.4"/>
<line x1="158.528" y1="214.249" x2="151.529" y2="211.095" stroke="#141414" stroke-width="0.4"/>
<line x1="151.529" y1="211.095" x2="151.529" y2="196.376" stroke="#141414" stroke-width="0.4"/>
<line x1="151.529" y1="196.376" x2="158.528" y2="193.222" stroke="#141414" stroke-width="0.4"/>
<circle cx="179.004" cy="238.776" r="1.94" fill="#99d9fa" stroke="#464646" stroke-width="0.2"/>
<text x="179.004" y="239.44" font-size="1.90" text-anchor="middle" fill="#141414">115</text>
<circle cx="179.004" cy="210.749" r="1.94" fill="#ffe082" stroke="#464646" stroke-width="0.2"/>
<text x="179.004" y="211.41" font-size="1.90" text-anchor="middle" fill="#141414">116</text>
<circle cx="193.017" cy="224.762" r="1.94" fill="#ffe082" stroke="#464646" stroke-width="0.2"/>
<text x="193.017" y="225.43" font-size="1.90" text-anchor="middle" fill="#141414">117</text>
<circle cx="163.509" cy="258.793" r="1.94" fill="#ffe082" stroke="#464646" stroke-width="0.2"/>
<text x="163.509" y="259.46" font-size="1.90" text-anchor="middle" fill="#141414">118</text>
<circle cx="155.028" cy="224.762" r="1.94" fill="#ffe082" stroke="#464646" stroke-width="0.2"/>
<text x="155.028" y="225.43" font-size="1.90" text-anchor="middle" fill="#141414">119</text>
<circle cx="155.028" cy="245.789" r="1.94" fill="#ffe082" stroke="#464646" stroke-width="0.2"/>
<text x="155.028" y="246.45" font-size="1.90" text-anchor="middle" fill="#141414">120</text>
<circle cx="155.028" cy="203.736" r="1.94" fill="#ffe082" stroke="#464646" stroke-width="0.2"/>
<text x="155.028" y="204.40" font-size="1.90" text-anchor="middle" fill="#141414">121</text>
<circle cx="144.511" cy="179.205" r="3.96" fill="#eaf1fe" stroke="#2e78e6" stroke-width="0.3"/>
<text x="144.511" y="180.76" font-size="4.48" text-anchor="middle" fill="#14306e" font-weight="bold">15</text>
<text x="205.0" y="295.0" font-size="3.2" text-anchor="end" fill="#737373" font-family="sans-serif">2 / 6</text>
</svg>
