<svg xmlns="http://www.w3.org/2000/svg" xmlns:xlink="http://www.w3.org/1999/xlink" width="210.00mm" height="297.00mm" viewBox="0 0 210.00 297.00">
<rect x="0" y="0" width="210.00" height="297.00" fill="#ffffff" stroke="#cccccc" stroke-width="0.2"/>
<polygon points="50.565,90.1 42.192,90.728 31.622,109.613 35.465,117.079" fill="rgb(216,216,216)"/>
<polygon points="35.465,117.079 44.69,123.808 56.714,123.452 65.524,116.188" fill="rgb(216,216,216)"/>
<polygon points="20.01,85.387 20.387,73.975 28.071,64.72 39.22,62.251" fill="rgb(216,216,216)"/>
<polygon points="9.265,59.591 6.362,51.518 19.605,32.538 28.184,32.477" fill="rgb(216,216,216)"/>
<polygon points="130.351,116.237 134.195,123.703 123.625,142.588 115.252,143.216" fill="rgb(216,216,216)"/>
<polygon points="130.351,116.237 121.126,109.508 109.103,109.864 100.292,117.128" fill="rgb(216,216,216)"/>
<polygon points="79.096,11.138 78.719,22.551 71.035,31.806 59.886,34.275" fill="rgb(216,216,216)"/>
<polygon points="103.984,64.049 94.065,57.049 80.84,57.049 70.922,64.049" fill="rgb(216,216,216)"/>
<polygon points="103.984,64.049 103.392,76.174 95.249,86.595 83.627,90.1" fill="rgb(216,216,216)"/>
<polygon points="48.541,6.425 39.972,6.023 25.722,24.259 28.184,32.477" fill="rgb(216,216,216)"/>
<polygon points="115.252,143.216 105.333,150.216 92.108,150.216 82.19,143.216" fill="rgb(216,216,216)"/>
<line x1="65.524" y1="116.188" x2="50.565" y2="90.1" stroke="#8c8c8c" stroke-width="0.3" stroke-dasharray="1.2,0.8"/>
<line x1="39.22" y1="62.251" x2="50.565" y2="90.1" stroke="#8c8c8c" stroke-width="0.3" stroke-dasharray="1.2,0.8"/>
<line x1="70.922" y1="64.049" x2="50.565" y2="90.1" stroke="#8c8c8c" stroke-width="0.3" stroke-dasharray="1.2,0.8"/>
<line x1="50.565" y1="90.1" x2="83.627" y2="90.1" stroke="#8c8c8c" stroke-width="0.3" stroke-dasharray="1.2,0.8"/>
<line x1="82.19" y1="143.216" x2="49.176" y2="141.429" stroke="#8c8c8c" stroke-width="0.3" stroke-dasharray="1.2,0.8"/>
<line x1="100.293" y1="117.128" x2="115.252" y2="143.216" stroke="#8c8c8c" stroke-width="0.3" stroke-dasharray="1.2,0.8"/>
<line x1="59.886" y1="34.275" x2="48.541" y2="6.425" stroke="#8c8c8c" stroke-width="0.3" stroke-dasharray="1.2,0.8"/>
<line x1="100.293" y1="117.128" x2="65.524" y2="116.188" stroke="#8c8c8c" stroke-width="0.3" stroke-dasharray="1.2,0.8"/>
<line x1="82.19" y1="143.216" x2="100.293" y2="117.128" stroke="#8c8c8c" stroke-width="0.3" stroke-dasharray="1.2,0.8"/>
<line x1="83.627" y1="90.1" x2="100.293" y2="117.128" stroke="#8c8c8c" stroke-width="0.3" stroke-dasharray="1.2,0.8"/>
<line x1="65.524" y1="116.188" x2="82.19" y2="143.216" stroke="#8c8c8c" stroke-width="0.3" stroke-dasharray="1.2,0.8"/>
<line x1="83.627" y1="90.1" x2="65.524" y2="116.188" stroke="#8c8c8c" stroke-width="0.3" stroke-dasharray="1.2,0.8"/>
<line x1="39.22" y1="62.251" x2="59.886" y2="34.275" stroke="#8c8c8c" stroke-width="0.3" stroke-dasharray="1.2,0.8"/>
<line x1="59.886" y1="34.275" x2="28.184" y2="32.477" stroke="#8c8c8c" stroke-width="0.3" stroke-dasharray="1.2,0.8"/>
<line x1="59.886" y1="34.275" x2="70.922" y2="64.049" stroke="#8c8c8c" stroke-width="0.3" stroke-dasharray="1.2,0.8"/>
<line x1="28.184" y1="32.477" x2="39.22" y2="62.251" stroke="#8c8c8c" stroke-width="0.3" stroke-dasharray="1.2,0.8"/>
<line x1="39.22" y1="62.251" x2="70.922" y2="64.049" stroke="#8c8c8c" stroke-width="0.3" stroke-dasharray="1.2,0.8"/>
<line x1="68.095" y1="168.542" x2="82.19" y2="143.216" stroke="#8c8c8c" stroke-width="0.3" stroke-dasharray="1.2,0.8"/>
<line x1="70.922" y1="64.049" x2="83.627" y2="90.1" stroke="#8c8c8c" stroke-width="0.3" stroke-dasharray="1.2,0.8"/>
<line x1="35.465" y1="117.079" x2="50.565" y2="90.1" stroke="#8c8c8c" stroke-width="0.3" stroke-dasharray="1.2,0.8"/>
<line x1="65.524" y1="116.188" x2="35.465" y2="117.079" stroke="#8c8c8c" stroke-width="0.3" stroke-dasharray="1.2,0.8"/>
<line x1="39.22" y1="62.251" x2="20.01" y2="85.387" stroke="#8c8c8c" stroke-width="0.3" stroke-dasharray="1.2,0.8"/>
<line x1="28.184" y1="32.477" x2="9.265" y2="59.591" stroke="#8c8c8c" stroke-width="0.3" stroke-dasharray="1.2,0.8"/>
<line x1="115.252" y1="143.216" x2="130.351" y2="116.237" stroke="#8c8c8c" stroke-width="0.3" stroke-dasharray="1.2,0.8"/>
<line x1="100.292" y1="117.128" x2="130.351" y2="116.237" stroke="#8c8c8c" stroke-width="0.3" stroke-dasharray="1.2,0.8"/>
<line x1="59.886" y1="34.275" x2="79.096" y2="11.138" stroke="#8c8c8c" stroke-width="0.3" stroke-dasharray="1.2,0.8"/>
<line x1="70.922" y1="64.049" x2="103.984" y2="64.049" stroke="#8c8c8c" stroke-width="0.3" stroke-dasharray="1.2,0.8"/>
<line x1="83.627" y1="90.1" x2="103.984" y2="64.049" stroke="#8c8c8c" stroke-width="0.3" stroke-dasharray="1.2,0.8"/>
<line x1="28.184" y1="32.477" x2="48.541" y2="6.425" stroke="#8c8c8c" stroke-width="0.3" stroke-dasharray="1.2,0.8"/>
<line x1="82.19" y1="143.216" x2="115.252" y2="143.216" stroke="#8c8c8c" stroke-width="0.3" stroke-dasharray="1.2,0.8"/>
<line x1="50.565" y1="90.1" x2="20.009" y2="85.387" stroke="#141414" stroke-width="0.4"/>
<line x1="49.176" y1="141.429" x2="65.524" y2="116.188" stroke="#141414" stroke-width="0.4"/>
<line x1="39.22" y1="62.251" x2="9.265" y2="59.591" stroke="#141414" stroke-width="0.4"/>
<line x1="68.095" y1="168.542" x2="49.176" y2="141.429" stroke="#141414" stroke-width="0.4"/>
<line x1="48.541" y1="6.425" x2="79.096" y2="11.138" stroke="#141414" stroke-width="0.4"/>
<line x1="116.64" y1="91.888" x2="100.293" y2="117.128" stroke="#141414" stroke-width="0.4"/>
<line x1="59.886" y1="34.275" x2="89.84" y2="36.935" stroke="#141414" stroke-width="0.4"/>
<line x1="89.84" y1="36.935" x2="70.922" y2="64.049" stroke="#141414" stroke-width="0.4"/>
<line x1="83.627" y1="90.1" x2="116.64" y2="91.888" stroke="#141414" stroke-width="0.4"/>
<line x1="101.109" y1="170.33" x2="68.095" y2="168.542" stroke="#141414" stroke-width="0.4"/>
<line x1="82.19" y1="143.216" x2="101.109" y2="170.33" stroke="#141414" stroke-width="0.4"/>
<line x1="50.565" y1="90.1" x2="42.192" y2="90.728" stroke="#141414" stroke-width="0.4"/>
<line x1="42.192" y1="90.728" x2="31.622" y2="109.613" stroke="#141414" stroke-width="0.4"/>
<line x1="31.622" y1="109.613" x2="35.465" y2="117.079" stroke="#141414" stroke-width="0.4"/>
<line x1="35.465" y1="117.079" x2="44.69" y2="123.808" stroke="#141414" stroke-width="0.4"/>
<line x1="44.69" y1="123.808" x2="56.714" y2="123.452" stroke="#141414" stroke-width="0.4"/>
<line x1="56.714" y1="123.452" x2="65.524" y2="116.188" stroke="#141414" stroke-width="0.4"/>
<line x1="20.01" y1="85.387" x2="20.387" y2="73.975" stroke="#141414" stroke-width="0.4"/>
<line x1="20.387" y1="73.975" x2="28.071" y2="64.72" stroke="#141414" stroke-width="0.4"/>
<line x1="28.071" y1="64.72" x2="39.22" y2="62.251" stroke="#141414" stroke-width="0.4"/>
<line x1="9.265" y1="59.591" x2="6.362" y2="51.518" stroke="#141414" stroke-width="0.4"/>
<line x1="6.362" y1="51.518" x2="19.605" y2="32.538" stroke="#141414" stroke-width="0.4"/>
<line x1="19.605" y1="32.538" x2="28.184" y2="32.477" stroke="#141414" stroke-width="0.4"/>
<line x1="130.351" y1="116.237" x2="134.195" y2="123.703" stroke="#141414" stroke-width="0.4"/>
<line x1="134.195" y1="123.703" x2="123.625" y2="142.588" stroke="#141414" stroke-width="0.4"/>
<line x1="123.625" y1="142.588" x2="115.252" y2="143.216" stroke="#141414" stroke-width="0.4"/>
<line x1="130.351" y1="116.237" x2="121.126" y2="109.508" stroke="#141414" stroke-width="0.4"/>
<line x1="121.126" y1="109.508" x2="109.103" y2="109.864" stroke="#141414" stroke-width="0.4"/>
<line x1="109.103" y1="109.864" x2="100.292" y2="117.128" stroke="#141414" stroke-width="0.4"/>
<line x1="79.096" y1="11.138" x2="78.719" y2="22.551" stroke="#141414" stroke-width="0.4"/>
<line x1="78.719" y1="22.551" x2="71.035" y2="31.806" stroke="#141414" stroke-width="0.4"/>
<line x1="71.035" y1="31.806" x2="59.886" y2="34.275" stroke="#141414" stroke-width="0.4"/>
<line x1="103.984" y1="64.049" x2="94.065" y2="57.049" stroke="#141414" stroke-width="0.4"/>
<line x1="94.065" y1="57.049" x2="80.84" y2="57.049" stroke="#141414" stroke-width="0.4"/>
<line x1="80.84" y1="57.049" x2="70.922" y2="64.049" stroke="#141414" stroke-width="0.4"/>
<line x1="103.984" y1="64.049" x2="103.392" y2="76.174" stroke="#141414" stroke-width="0.4"/>
<line x1="103.392" y1="76.174" x2="95.249" y2="86.595" stroke="#141414" stroke-width="0.4"/>
<line x1="95.249" y1="86.595" x2="83.627" y2="90.1" stroke="#141414" stroke-width="0.4"/>
<line x1="48.541" y1="6.425" x2="39.972" y2="6.023" stroke="#141414" stroke-width="0.4"/>
<line x1="39.972" y1="6.023" x2="25.722" y2="24.259" stroke="#141414" stroke-width="0.4"/>
<line x1="25.722" y1="24.259" x2="28.184" y2="32.477" stroke="#141414" stroke-width="0.4"/>
<line x1="115.252" y1="143.216" x2="105.333" y2="150.216" stroke="#141414" stroke-width="0.4"/>
<line x1="105.333" y1="150.216" x2="92.108" y2="150.216" stroke="#141414" stroke-width="0.4"/>
<line x1="92.108" y1="150.216" x2="82.19" y2="143.216" stroke="#141414" stroke-width="0.4"/>
<circle cx="39.961" cy="101.88" r="2.08" fill="#ffe082" stroke="#464646" stroke-width="0.2"/>
<text x="39.961" y="102.59" font-size="2.04" text-anchor="middle" fill="#141414">23</text>
<circle cx="50.598" cy="120.132" r="2.08" fill="#ffe082" stroke="#464646" stroke-width="0.2"/>
<text x="50.598" y="120.85" font-size="2.04" text-anchor="middle" fill="#141414">24</text>
<circle cx="26.922" cy="71.583" r="2.08" fill="#ffe082" stroke="#464646" stroke-width="0.2"/>
<text x="26.922" y="72.30" font-size="2.04" text-anchor="middle" fill="#141414">25</text>
<circle cx="15.854" cy="44.031" r="2.08" fill="#ffe082" stroke="#464646" stroke-width="0.2"/>
<text x="15.854" y="44.74" font-size="2.04" text-anchor="middle" fill="#141414">26</text>
<circle cx="125.856" cy="131.436" r="2.08" fill="#ffe082" stroke="#464646" stroke-width="0.2"/>
<text x="125.856" y="132.15" font-size="2.04" text-anchor="middle" fill="#141414">27</text>
<circle cx="115.218" cy="113.184" r="2.08" fill="#ffe082" stroke="#464646" stroke-width="0.2"/>
<text x="115.218" y="113.90" font-size="2.04" text-anchor="middle" fill="#141414">28</text>
<circle cx="72.184" cy="24.943" r="2.08" fill="#ffe082" stroke="#464646" stroke-width="0.2"/>
<text x="72.184" y="25.66" font-size="2.04" text-anchor="middle" fill="#141414">29</text>
<circle cx="87.453" cy="60.549" r="2.08" fill="#ffe082" stroke="#464646" stroke-width="0.2"/>
<text x="87.453" y="61.26" font-size="2.04" text-anchor="middle" fill="#141414">30</text>
<circle cx="96.563" cy="79.23" r="2.08" fill="#ffe082" stroke="#464646" stroke-width="0.2"/>
<text x="96.563" y="79.94" font-size="2.04" text-anchor="middle" fill="#141414">31</text>
<circle cx="35.605" cy="17.296" r="2.08" fill="#ffe082" stroke="#464646" stroke-width="0.2"/>
<text x="35.605" y="18.01" font-size="2.04" text-anchor="middle" fill="#141414">32</text>
<circle cx="98.721" cy="146.716" r="2.08" fill="#ffe082" stroke="#464646" stroke-width="0.2"/>
<text x="98.721" y="147.43" font-size="2.04" text-anchor="middle" fill="#141414">33</text>
<circle cx="68.916" cy="175.407" r="4.6" fill="#eaf1fe" stroke="#2e78e6" stroke-width="0.3"/>
<text x="68.916" y="177.20700000000002" font-size="5.2" text-anchor="middle" fill="#14306e" font-weight="bold">3</text>
<polygon points="68.576,207.962 70.159,196.404 64.112,185.529 53.459,180.775" fill="rgb(216,216,216)"/>
<polygon points="51.922,236.276 42.591,243.276 30.148,243.276 20.816,236.276" fill="rgb(216,216,216)"/>
<polygon points="130.725,209.952 132.779,198.469 127.181,187.356 116.732,182.171" fill="rgb(216,216,216)"/>
<polygon points="145.533,239.274 154.398,246.857 166.815,247.653 176.575,241.264" fill="rgb(216,216,216)"/>
<polygon points="114.229,236.682 112.32,248.457 118.112,259.959 128.708,265.438" fill="rgb(216,216,216)"/>
<polygon points="83.328,235.693 84.479,247.565 77.964,258.673 67.039,263.463" fill="rgb(216,216,216)"/>
<polygon points="162.029,212.544 170.456,213.689 180.638,233.793 176.575,241.264" fill="rgb(216,216,216)"/>
<polygon points="21.289,182.019 25.844,174.838 48.363,173.967 53.459,180.775" fill="rgb(216,216,216)"/>
<polygon points="37.17,208.545 26.235,213.308 19.693,224.401 20.816,236.276" fill="rgb(216,216,216)"/>
<polygon points="159.584,267.026 154.592,273.779 132.979,272.667 128.708,265.438" fill="rgb(216,216,216)"/>
<polygon points="84.318,181.133 92.697,181.678 103.452,200.459 99.682,207.962" fill="rgb(216,216,216)"/>
<line x1="51.922" y1="236.276" x2="68.576" y2="207.962" stroke="#8c8c8c" stroke-width="0.3" stroke-dasharray="1.2,0.8"/>
<line x1="83.328" y1="235.693" x2="68.576" y2="207.962" stroke="#8c8c8c" stroke-width="0.3" stroke-dasharray="1.2,0.8"/>
<line x1="37.17" y1="208.545" x2="68.576" y2="207.962" stroke="#8c8c8c" stroke-width="0.3" stroke-dasharray="1.2,0.8"/>
<line x1="68.576" y1="207.962" x2="99.682" y2="207.962" stroke="#8c8c8c" stroke-width="0.3" stroke-dasharray="1.2,0.8"/>
<line x1="83.328" y1="235.693" x2="51.922" y2="236.276" stroke="#8c8c8c" stroke-width="0.3" stroke-dasharray="1.2,0.8"/>
<line x1="51.922" y1="236.276" x2="37.17" y2="208.545" stroke="#8c8c8c" stroke-width="0.3" stroke-dasharray="1.2,0.8"/>
<line x1="67.039" y1="263.463" x2="51.922" y2="236.276" stroke="#8c8c8c" stroke-width="0.3" stroke-dasharray="1.2,0.8"/>
<line x1="130.725" y1="209.952" x2="145.533" y2="239.274" stroke="#8c8c8c" stroke-width="0.3" stroke-dasharray="1.2,0.8"/>
<line x1="114.229" y1="236.683" x2="130.725" y2="209.952" stroke="#8c8c8c" stroke-width="0.3" stroke-dasharray="1.2,0.8"/>
<line x1="130.725" y1="209.952" x2="162.029" y2="212.543" stroke="#8c8c8c" stroke-width="0.3" stroke-dasharray="1.2,0.8"/>
<line x1="130.725" y1="209.952" x2="99.682" y2="207.962" stroke="#8c8c8c" stroke-width="0.3" stroke-dasharray="1.2,0.8"/>
<line x1="114.229" y1="236.683" x2="145.533" y2="239.274" stroke="#8c8c8c" stroke-width="0.3" stroke-dasharray="1.2,0.8"/>
<line x1="162.029" y1="212.543" x2="145.533" y2="239.274" stroke="#8c8c8c" stroke-width="0.3" stroke-dasharray="1.2,0.8"/>
<line x1="145.533" y1="239.274" x2="128.708" y2="265.438" stroke="#8c8c8c" stroke-width="0.3" stroke-dasharray="1.2,0.8"/>
<line x1="114.229" y1="236.683" x2="83.328" y2="235.693" stroke="#8c8c8c" stroke-width="0.3" stroke-dasharray="1.2,0.8"/>
<line x1="99.682" y1="207.962" x2="114.229" y2="236.683" stroke="#8c8c8c" stroke-width="0.3" stroke-dasharray="1.2,0.8"/>
<line x1="99.682" y1="207.962" x2="83.328" y2="235.693" stroke="#8c8c8c" stroke-width="0.3" stroke-dasharray="1.2,0.8"/>
<line x1="37.17" y1="208.545" x2="21.289" y2="182.019" stroke="#8c8c8c" stroke-width="0.3" stroke-dasharray="1.2,0.8"/>
<line x1="37.17" y1="208.545" x2="53.459" y2="180.775" stroke="#8c8c8c" stroke-width="0.3" stroke-dasharray="1.2,0.8"/>
<line x1="53.459" y1="180.775" x2="68.576" y2="207.962" stroke="#8c8c8c" stroke-width="0.3" stroke-dasharray="1.2,0.8"/>
<line x1="20.816" y1="236.276" x2="51.922" y2="236.276" stroke="#8c8c8c" stroke-width="0.3" stroke-dasharray="1.2,0.8"/>
<line x1="116.732" y1="182.171" x2="130.725" y2="209.952" stroke="#8c8c8c" stroke-width="0.3" stroke-dasharray="1.2,0.8"/>
<line x1="176.575" y1="241.264" x2="145.533" y2="239.274" stroke="#8c8c8c" stroke-width="0.3" stroke-dasharray="1.2,0.8"/>
<line x1="128.708" y1="265.438" x2="114.229" y2="236.682" stroke="#8c8c8c" stroke-width="0.3" stroke-dasharray="1.2,0.8"/>
<line x1="67.039" y1="263.463" x2="83.328" y2="235.693" stroke="#8c8c8c" stroke-width="0.3" stroke-dasharray="1.2,0.8"/>
<line x1="176.575" y1="241.264" x2="162.029" y2="212.544" stroke="#8c8c8c" stroke-width="0.3" stroke-dasharray="1.2,0.8"/>
<line x1="53.459" y1="180.775" x2="21.289" y2="182.019" stroke="#8c8c8c" stroke-width="0.3" stroke-dasharray="1.2,0.8"/>
<line x1="20.816" y1="236.276" x2="37.17" y2="208.545" stroke="#8c8c8c" stroke-width="0.3" stroke-dasharray="1.2,0.8"/>
<line x1="128.708" y1="265.438" x2="159.584" y2="267.026" stroke="#8c8c8c" stroke-width="0.3" stroke-dasharray="1.2,0.8"/>
<line x1="99.682" y1="207.962" x2="84.318" y2="181.133" stroke="#8c8c8c" stroke-width="0.3" stroke-dasharray="1.2,0.8"/>
<line x1="68.576" y1="207.962" x2="84.318" y2="181.133" stroke="#141414" stroke-width="0.4"/>
<line x1="36.125" y1="263.073" x2="51.922" y2="236.276" stroke="#141414" stroke-width="0.4"/>
<line x1="130.725" y1="209.952" x2="147.55" y2="183.788" stroke="#141414" stroke-width="0.4"/>
<line x1="145.533" y1="239.274" x2="159.583" y2="267.026" stroke="#141414" stroke-width="0.4"/>
<line x1="114.229" y1="236.683" x2="97.874" y2="264.414" stroke="#141414" stroke-width="0.4"/>
<line x1="97.874" y1="264.414" x2="83.328" y2="235.693" stroke="#141414" stroke-width="0.4"/>
<line x1="5.0" y1="209.789" x2="21.289" y2="182.019" stroke="#141414" stroke-width="0.4"/>
<line x1="147.55" y1="183.788" x2="162.029" y2="212.543" stroke="#141414" stroke-width="0.4"/>
<line x1="37.17" y1="208.545" x2="5.0" y2="209.789" stroke="#141414" stroke-width="0.4"/>
<line x1="67.039" y1="263.463" x2="36.125" y2="263.073" stroke="#141414" stroke-width="0.4"/>
<line x1="99.682" y1="207.962" x2="116.732" y2="182.171" stroke="#141414" stroke-width="0.4"/>
<line x1="68.576" y1="207.962" x2="70.159" y2="196.404" stroke="#141414" stroke-width="0.4"/>
<line x1="70.159" y1="196.404" x2="64.112" y2="185.529" stroke="#141414" stroke-width="0.4"/>
<line x1="64.112" y1="185.529" x2="53.459" y2="180.775" stroke="#141414" stroke-width="0.4"/>
<line x1="51.922" y1="236.276" x2="42.591" y2="243.276" stroke="#141414" stroke-width="0.4"/>
<line x1="42.591" y1="243.276" x2="30.148" y2="243.276" stroke="#141414" stroke-width="0.4"/>
<line x1="30.148" y1="243.276" x2="20.816" y2="236.276" stroke="#141414" stroke-width="0.4"/>
<line x1="130.725" y1="209.952" x2="132.779" y2="198.469" stroke="#141414" stroke-width="0.4"/>
<line x1="132.779" y1="198.469" x2="127.181" y2="187.356" stroke="#141414" stroke-width="0.4"/>
<line x1="127.181" y1="187.356" x2="116.732" y2="182.171" stroke="#141414" stroke-width="0.4"/>
<line x1="145.533" y1="239.274" x2="154.398" y2="246.857" stroke="#141414" stroke-width="0.4"/>
<line x1="154.398" y1="246.857" x2="166.815" y2="247.653" stroke="#141414" stroke-width="0.4"/>
<line x1="166.815" y1="247.653" x2="176.575" y2="241.264" stroke="#141414" stroke-width="0.4"/>
<line x1="114.229" y1="236.682" x2="112.32" y2="248.457" stroke="#141414" stroke-width="0.4"/>
<line x1="112.32" y1="248.457" x2="118.112" y2="259.959" stroke="#141414" stroke-width="0.4"/>
<line x1="118.112" y1="259.959" x2="128.708" y2="265.438" stroke="#141414" stroke-width="0.4"/>
<line x1="83.328" y1="235.693" x2="84.479" y2="247.565" stroke="#141414" stroke-width="0.4"/>
<line x1="84.479" y1="247.565" x2="77.964" y2="258.673" stroke="#141414" stroke-width="0.4"/>
<line x1="77.964" y1="258.673" x2="67.039" y2="263.463" stroke="#141414" stroke-width="0.4"/>
<line x1="162.029" y1="212.544" x2="170.456" y2="213.689" stroke="#141414" stroke-width="0.4"/>
<line x1="170.456" y1="213.689" x2="180.638" y2="233.793" stroke="#141414" stroke-width="0.4"/>
<line x1="180.638" y1="233.793" x2="176.575" y2="241.264" stroke="#141414" stroke-width="0.4"/>
<line x1="21.289" y1="182.019" x2="25.844" y2="174.838" stroke="#141414" stroke-width="0.4"/>
<line x1="25.844" y1="174.838" x2="48.363" y2="173.967" stroke="#141414" stroke-width="0.4"/>
<line x1="48.363" y1="173.967" x2="53.459" y2="180.775" stroke="#141414" stroke-width="0.4"/>
<line x1="37.17" y1="208.545" x2="26.235" y2="213.308" stroke="#141414" stroke-width="0.4"/>
<line x1="26.235" y1="213.308" x2="19.693" y2="224.401" stroke="#141414" stroke-width="0.4"/>
<line x1="19.693" y1="224.401" x2="20.816" y2="236.276" stroke="#141414" stroke-width="0.4"/>
<line x1="159.584" y1="267.026" x2="154.592" y2="273.779" stroke="#141414" stroke-width="0.4"/>
<line x1="154.592" y1="273.779" x2="132.979" y2="272.667" stroke="#141414" stroke-width="0.4"/>
<line x1="132.979" y1="272.667" x2="128.708" y2="265.438" stroke="#141414" stroke-width="0.4"/>
<line x1="84.318" y1="181.133" x2="92.697" y2="181.678" stroke="#141414" stroke-width="0.4"/>
<line x1="92.697" y1="181.678" x2="103.452" y2="200.459" stroke="#141414" stroke-width="0.4"/>
<line x1="103.452" y1="200.459" x2="99.682" y2="207.962" stroke="#141414" stroke-width="0.4"/>
<circle cx="64.077" cy="192.668" r="2.08" fill="#ffe082" stroke="#464646" stroke-width="0.2"/>
<text x="64.077" y="193.38" font-size="2.04" text-anchor="middle" fill="#141414">34</text>
<circle cx="36.369" cy="239.776" r="2.08" fill="#ffe082" stroke="#464646" stroke-width="0.2"/>
<text x="36.369" y="240.49" font-size="2.04" text-anchor="middle" fill="#141414">35</text>
<circle cx="126.854" cy="194.487" r="2.08" fill="#ffe082" stroke="#464646" stroke-width="0.2"/>
<text x="126.854" y="195.20" font-size="2.04" text-anchor="middle" fill="#141414">36</text>
<circle cx="160.83" cy="243.762" r="2.08" fill="#ffe082" stroke="#464646" stroke-width="0.2"/>
<text x="160.83" y="244.48" font-size="2.04" text-anchor="middle" fill="#141414">37</text>
<circle cx="118.342" cy="252.634" r="2.08" fill="#ffe082" stroke="#464646" stroke-width="0.2"/>
<text x="118.342" y="253.35" font-size="2.04" text-anchor="middle" fill="#141414">38</text>
<circle cx="78.203" cy="251.349" r="2.08" fill="#ffe082" stroke="#464646" stroke-width="0.2"/>
<text x="78.203" y="252.06" font-size="2.04" text-anchor="middle" fill="#141414">39</text>
<circle cx="172.424" cy="225.323" r="2.08" fill="#ffe082" stroke="#464646" stroke-width="0.2"/>
<text x="172.424" y="226.04" font-size="2.04" text-anchor="middle" fill="#141414">40</text>
<circle cx="37.239" cy="177.9" r="2.08" fill="#ffe082" stroke="#464646" stroke-width="0.2"/>
<text x="37.239" y="178.61" font-size="2.04" text-anchor="middle" fill="#141414">41</text>
<circle cx="25.979" cy="220.633" r="2.08" fill="#ffe082" stroke="#464646" stroke-width="0.2"/>
<text x="25.979" y="221.35" font-size="2.04" text-anchor="middle" fill="#141414">42</text>
<circle cx="143.966" cy="269.727" r="2.08" fill="#ffe082" stroke="#464646" stroke-width="0.2"/>
<text x="143.966" y="270.44" font-size="2.04" text-anchor="middle" fill="#141414">43</text>
<circle cx="95.038" cy="192.808" r="2.08" fill="#ffe082" stroke="#464646" stroke-width="0.2"/>
<text x="95.038" y="193.52" font-size="2.04" text-anchor="middle" fill="#141414">44</text>
<circle cx="92.819" cy="166.207" r="4.6" fill="#eaf1fe" stroke="#2e78e6" stroke-width="0.3"/>
<text x="92.819" y="168.007" font-size="5.2" text-anchor="middle" fill="#14306e" font-weight="bold">4</text>
<polygon points="154.655,38.61 153.131,43.691 146.018,43.691 144.494,38.61" fill="rgb(216,216,216)"/>
<polygon points="154.655,26.886 153.131,21.805 146.018,21.805 144.494,26.886" fill="rgb(216,216,216)"/>
<polygon points="164.816,38.61 170.678,36.851 170.678,28.644 164.816,26.886" fill="rgb(216,216,216)"/>
<polygon points="164.816,38.61 169.897,40.134 169.897,47.247 164.816,48.771" fill="rgb(216,216,216)"/>
<polygon points="164.816,26.886 169.897,25.361 169.897,18.249 164.816,16.724" fill="rgb(216,216,216)"/>
<polygon points="144.494,38.61 138.632,36.851 138.632,28.644 144.494,26.886" fill="rgb(216,216,216)"/>
<polygon points="154.655,48.771 156.179,53.852 163.292,53.852 164.816,48.771" fill="rgb(216,216,216)"/>
<line x1="154.655" y1="38.61" x2="154.655" y2="26.886" stroke="#8c8c8c" stroke-width="0.3" stroke-dasharray="1.2,0.8"/>
<line x1="164.816" y1="38.61" x2="154.655" y2="38.61" stroke="#8c8c8c" stroke-width="0.3" stroke-dasharray="1.2,0.8"/>
<line x1="154.655" y1="26.886" x2="164.816" y2="26.886" stroke="#8c8c8c" stroke-width="0.3" stroke-dasharray="1.2,0.8"/>
<line x1="154.655" y1="16.724" x2="164.816" y2="16.724" stroke="#8c8c8c" stroke-width="0.3" stroke-dasharray="1.2,0.8"/>
<line x1="164.816" y1="16.724" x2="164.816" y2="5.0" stroke="#8c8c8c" stroke-width="0.3" stroke-dasharray="1.2,0.8"/>
<line x1="144.494" y1="38.61" x2="154.655" y2="38.61" stroke="#8c8c8c" stroke-width="0.3" stroke-dasharray="1.2,0.8"/>
<line x1="144.494" y1="26.886" x2="154.655" y2="26.886" stroke="#8c8c8c" stroke-width="0.3" stroke-dasharray="1.2,0.8"/>
<line x1="164.816" y1="26.886" x2="164.816" y2="38.61" stroke="#8c8c8c" stroke-width="0.3" stroke-dasharray="1.2,0.8"/>
<line x1="164.816" y1="48.771" x2="164.816" y2="38.61" stroke="#8c8c8c" stroke-width="0.3" stroke-dasharray="1.2,0.8"/>
<line x1="164.816" y1="16.724" x2="164.816" y2="26.886" stroke="#8c8c8c" stroke-width="0.3" stroke-dasharray="1.2,0.8"/>
<line x1="144.494" y1="26.886" x2="144.494" y2="38.61" stroke="#8c8c8c" stroke-width="0.3" stroke-dasharray="1.2,0.8"/>
<line x1="164.816" y1="48.771" x2="154.655" y2="48.771" stroke="#8c8c8c" stroke-width="0.3" stroke-dasharray="1.2,0.8"/>
<line x1="154.655" y1="48.771" x2="154.655" y2="38.61" stroke="#141414" stroke-width="0.4"/>
<line x1="154.655" y1="26.886" x2="154.655" y2="16.724" stroke="#141414" stroke-width="0.4"/>
<line x1="174.977" y1="5.0" x2="174.977" y2="16.724" stroke="#141414" stroke-width="0.4"/>
<line x1="164.816" y1="5.0" x2="174.977" y2="5.0" stroke="#141414" stroke-width="0.4"/>
<line x1="174.977" y1="16.724" x2="164.816" y2="16.724" stroke="#141414" stroke-width="0.4"/>
<line x1="154.655" y1="16.724" x2="154.655" y2="5.0" stroke="#141414" stroke-width="0.4"/>
<line x1="154.655" y1="5.0" x2="164.816" y2="5.0" stroke="#141414" stroke-width="0.4"/>
<line x1="154.655" y1="38.61" x2="153.131" y2="43.691" stroke="#141414" stroke-width="0.4"/>
<line x1="153.131" y1="43.691" x2="146.018" y2="43.691" stroke="#141414" stroke-width="0.4"/>
<line x1="146.018" y1="43.691" x2="144.494" y2="38.61" stroke="#141414" stroke-width="0.4"/>
<line x1="154.655" y1="26.886" x2="153.131" y2="21.805" stroke="#141414" stroke-width="0.4"/>
<line x1="153.131" y1="21.805" x2="146.018" y2="21.805" stroke="#141414" stroke-width="0.4"/>
<line x1="146.018" y1="21.805" x2="144.494" y2="26.886" stroke="#141414" stroke-width="0.4"/>
<line x1="164.816" y1="38.61" x2="170.678" y2="36.851" stroke="#141414" stroke-width="0.4"/>
<line x1="170.678" y1="36.851" x2="170.678" y2="28.644" stroke="#141414" stroke-width="0.4"/>
<line x1="170.678" y1="28.644" x2="164.816" y2="26.886" stroke="#141414" stroke-width="0.4"/>
<line x1="164.816" y1="38.61" x2="169.897" y2="40.134" stroke="#141414" stroke-width="0.4"/>
<line x1="169.897" y1="40.134" x2="169.897" y2="47.247" stroke="#141414" stroke-width="0.4"/>
<line x1="169.897" y1="47.247" x2="164.816" y2="48.771" stroke="#141414" stroke-width="0.4"/>
<line x1="164.816" y1="26.886" x2="169.897" y2="25.361" stroke="#141414" stroke-width="0.4"/>
<line x1="169.897" y1="25.361" x2="169.897" y2="18.249" stroke="#141414" stroke-width="0.4"/>
<line x1="169.897" y1="18.249" x2="164.816" y2="16.724" stroke="#141414" stroke-width="0.4"/>
<line x1="144.494" y1="38.61" x2="138.632" y2="36.851" stroke="#141414" stroke-width="0.4"/>
<line x1="138.632" y1="36.851" x2="138.632" y2="28.644" stroke="#141414" stroke-width="0.4"/>
<line x1="138.632" y1="28.644" x2="144.494" y2="26.886" stroke="#141414" stroke-width="0.4"/>
<line x1="154.655" y1="48.771" x2="156.179" y2="53.852" stroke="#141414" stroke-width="0.4"/>
<line x1="156.179" y1="53.852" x2="163.292" y2="53.852" stroke="#141414" stroke-width="0.4"/>
<line x1="163.292" y1="53.852" x2="164.816" y2="48.771" stroke="#141414" stroke-width="0.4"/>
<circle cx="149.574" cy="41.15" r="2.08" fill="#ffe082" stroke="#464646" stroke-width="0.2"/>
<text x="149.574" y="41.86" font-size="2.04" text-anchor="middle" fill="#141414">74</text>
<circle cx="149.574" cy="24.345" r="2.08" fill="#ffe082" stroke="#464646" stroke-width="0.2"/>
<text x="149.574" y="25.06" font-size="2.04" text-anchor="middle" fill="#141414">75</text>
<circle cx="167.747" cy="32.748" r="2.08" fill="#ffe082" stroke="#464646" stroke-width="0.2"/>
<text x="167.747" y="33.46" font-size="2.04" text-anchor="middle" fill="#141414">76</text>
<circle cx="167.356" cy="43.691" r="2.08" fill="#ffe082" stroke="#464646" stroke-width="0.2"/>
<text x="167.356" y="44.40" font-size="2.04" text-anchor="middle" fill="#141414">77</text>
<circle cx="167.356" cy="21.805" r="2.08" fill="#ffe082" stroke="#464646" stroke-width="0.2"/>
<text x="167.356" y="22.52" font-size="2.04" text-anchor="middle" fill="#141414">78</text>
<circle cx="141.563" cy="32.748" r="2.08" fill="#ffe082" stroke="#464646" stroke-width="0.2"/>
<text x="141.563" y="33.46" font-size="2.04" text-anchor="middle" fill="#141414">79</text>
<circle cx="159.736" cy="51.311" r="2.08" fill="#ffe082" stroke="#464646" stroke-width="0.2"/>
<text x="159.736" y="52.02" font-size="2.04" text-anchor="middle" fill="#141414">80</text>
<circle cx="154.005" cy="59.952" r="4.6" fill="#eaf1fe" stroke="#2e78e6" stroke-width="0.3"/>
<text x="154.005" y="61.751999999999995" font-size="5.2" text-anchor="middle" fill="#14306e" font-weight="bold">8</text>
</svg>
