<svg xmlns="http://www.w3.org/2000/svg" xmlns:xlink="http://www.w3.org/1999/xlink" width="210.00mm" height="297.00mm" viewBox="0 0 210.00 297.00">
<rect x="0" y="0" width="210.00" height="297.00" fill="#ffffff" stroke="#cccccc" stroke-width="0.2"/>
<polygon points="48.919,44.878 42.328,37.691 33.281,37.439 26.3,44.247" fill="rgb(216,216,216)"/>
<polygon points="38.416,63.357 28.87,61.373 24.023,53.728 26.3,44.247" fill="rgb(216,216,216)"/>
<polygon points="48.357,120.269 56.073,121.266 64.752,108.017 60.757,101.342" fill="rgb(216,216,216)"/>
<polygon points="48.357,120.269 45.054,127.313 29.216,127.519 25.732,120.563" fill="rgb(216,216,216)"/>
<polygon points="38.131,101.636 28.556,103.478 23.596,111.049 25.732,120.563" fill="rgb(216,216,216)"/>
<polygon points="83.234,62.988 76.889,70.281 68.01,70.681 61.035,63.988" fill="rgb(216,216,216)"/>
<polygon points="60.757,101.342 63.544,92.2 59.188,84.696 49.867,82.583" fill="rgb(216,216,216)"/>
<polygon points="83.234,62.988 85.497,53.702 80.722,46.458 71.296,44.878" fill="rgb(216,216,216)"/>
<polygon points="48.761,6.077 41.034,5.441 33.217,18.889 37.593,25.289" fill="rgb(216,216,216)"/>
<polygon points="15.513,101.005 12.862,91.823 17.329,84.385 26.68,82.41" fill="rgb(216,216,216)"/>
<polygon points="48.761,6.077 58.039,8.372 62.248,15.959 59.283,25.045" fill="rgb(216,216,216)"/>
<polygon points="48.761,6.077 41.034,5.441 33.217,18.889 37.593,25.289" fill="#99d9fa"/>
<line x1="38.416" y1="63.357" x2="48.919" y2="44.878" stroke="#8c8c8c" stroke-width="0.3" stroke-dasharray="1.2,0.8"/>
<line x1="61.035" y1="63.988" x2="48.919" y2="44.878" stroke="#8c8c8c" stroke-width="0.3" stroke-dasharray="1.2,0.8"/>
<line x1="59.283" y1="25.045" x2="48.919" y2="44.878" stroke="#8c8c8c" stroke-width="0.3" stroke-dasharray="1.2,0.8"/>
<line x1="48.919" y1="44.878" x2="71.296" y2="44.878" stroke="#8c8c8c" stroke-width="0.3" stroke-dasharray="1.2,0.8"/>
<line x1="61.035" y1="63.988" x2="38.416" y2="63.357" stroke="#8c8c8c" stroke-width="0.3" stroke-dasharray="1.2,0.8"/>
<line x1="38.416" y1="63.357" x2="26.68" y2="82.41" stroke="#8c8c8c" stroke-width="0.3" stroke-dasharray="1.2,0.8"/>
<line x1="49.867" y1="82.583" x2="38.416" y2="63.357" stroke="#8c8c8c" stroke-width="0.3" stroke-dasharray="1.2,0.8"/>
<line x1="48.357" y1="120.269" x2="38.131" y2="101.636" stroke="#8c8c8c" stroke-width="0.3" stroke-dasharray="1.2,0.8"/>
<line x1="59.283" y1="25.045" x2="81.66" y2="25.045" stroke="#8c8c8c" stroke-width="0.3" stroke-dasharray="1.2,0.8"/>
<line x1="81.66" y1="25.045" x2="71.296" y2="44.878" stroke="#8c8c8c" stroke-width="0.3" stroke-dasharray="1.2,0.8"/>
<line x1="60.757" y1="101.342" x2="38.131" y2="101.636" stroke="#8c8c8c" stroke-width="0.3" stroke-dasharray="1.2,0.8"/>
<line x1="26.68" y1="82.41" x2="38.131" y2="101.636" stroke="#8c8c8c" stroke-width="0.3" stroke-dasharray="1.2,0.8"/>
<line x1="38.131" y1="101.636" x2="49.867" y2="82.583" stroke="#8c8c8c" stroke-width="0.3" stroke-dasharray="1.2,0.8"/>
<line x1="61.035" y1="63.988" x2="49.867" y2="82.583" stroke="#8c8c8c" stroke-width="0.3" stroke-dasharray="1.2,0.8"/>
<line x1="71.296" y1="44.878" x2="61.035" y2="63.988" stroke="#8c8c8c" stroke-width="0.3" stroke-dasharray="1.2,0.8"/>
<line x1="26.68" y1="82.41" x2="15.791" y2="63.651" stroke="#8c8c8c" stroke-width="0.3" stroke-dasharray="1.2,0.8"/>
<line x1="37.593" y1="25.289" x2="59.283" y2="25.045" stroke="#8c8c8c" stroke-width="0.3" stroke-dasharray="1.2,0.8"/>
<line x1="26.68" y1="82.41" x2="49.867" y2="82.583" stroke="#8c8c8c" stroke-width="0.3" stroke-dasharray="1.2,0.8"/>
<line x1="59.283" y1="25.045" x2="71.296" y2="44.878" stroke="#8c8c8c" stroke-width="0.3" stroke-dasharray="1.2,0.8"/>
<line x1="26.3" y1="44.247" x2="48.919" y2="44.878" stroke="#8c8c8c" stroke-width="0.3" stroke-dasharray="1.2,0.8"/>
<line x1="26.3" y1="44.247" x2="38.416" y2="63.357" stroke="#8c8c8c" stroke-width="0.3" stroke-dasharray="1.2,0.8"/>
<line x1="60.757" y1="101.342" x2="48.357" y2="120.269" stroke="#8c8c8c" stroke-width="0.3" stroke-dasharray="1.2,0.8"/>
<line x1="25.732" y1="120.563" x2="48.357" y2="120.269" stroke="#8c8c8c" stroke-width="0.3" stroke-dasharray="1.2,0.8"/>
<line x1="25.732" y1="120.563" x2="38.131" y2="101.636" stroke="#8c8c8c" stroke-width="0.3" stroke-dasharray="1.2,0.8"/>
<line x1="61.035" y1="63.988" x2="83.234" y2="62.988" stroke="#8c8c8c" stroke-width="0.3" stroke-dasharray="1.2,0.8"/>
<line x1="49.867" y1="82.583" x2="60.757" y2="101.342" stroke="#8c8c8c" stroke-width="0.3" stroke-dasharray="1.2,0.8"/>
<line x1="71.296" y1="44.878" x2="83.234" y2="62.988" stroke="#8c8c8c" stroke-width="0.3" stroke-dasharray="1.2,0.8"/>
<line x1="37.593" y1="25.289" x2="48.761" y2="6.077" stroke="#8c8c8c" stroke-width="0.3" stroke-dasharray="1.2,0.8"/>
<line x1="26.68" y1="82.41" x2="15.513" y2="101.005" stroke="#8c8c8c" stroke-width="0.3" stroke-dasharray="1.2,0.8"/>
<line x1="59.283" y1="25.045" x2="48.761" y2="6.077" stroke="#8c8c8c" stroke-width="0.3" stroke-dasharray="1.2,0.8"/>
<line x1="48.919" y1="44.878" x2="37.593" y2="25.289" stroke="#141414" stroke-width="0.4"/>
<line x1="15.791" y1="63.651" x2="38.416" y2="63.357" stroke="#141414" stroke-width="0.4"/>
<line x1="81.66" y1="25.045" x2="92.986" y2="44.634" stroke="#141414" stroke-width="0.4"/>
<line x1="69.544" y1="5.935" x2="81.66" y2="25.045" stroke="#141414" stroke-width="0.4"/>
<line x1="38.131" y1="101.636" x2="15.513" y2="101.005" stroke="#141414" stroke-width="0.4"/>
<line x1="61.035" y1="63.988" x2="71.535" y2="83.572" stroke="#141414" stroke-width="0.4"/>
<line x1="71.535" y1="83.572" x2="49.867" y2="82.583" stroke="#141414" stroke-width="0.4"/>
<line x1="92.986" y1="44.634" x2="71.296" y2="44.878" stroke="#141414" stroke-width="0.4"/>
<line x1="5.0" y1="83.076" x2="15.791" y2="63.651" stroke="#141414" stroke-width="0.4"/>
<line x1="26.68" y1="82.41" x2="5.0" y2="83.076" stroke="#141414" stroke-width="0.4"/>
<line x1="59.283" y1="25.045" x2="69.544" y2="5.935" stroke="#141414" stroke-width="0.4"/>
<line x1="48.919" y1="44.878" x2="42.328" y2="37.691" stroke="#141414" stroke-width="0.4"/>
<line x1="42.328" y1="37.691" x2="33.281" y2="37.439" stroke="#141414" stroke-width="0.4"/>
<line x1="33.281" y1="37.439" x2="26.3" y2="44.247" stroke="#141414" stroke-width="0.4"/>
<line x1="38.416" y1="63.357" x2="28.87" y2="61.373" stroke="#141414" stroke-width="0.4"/>
<line x1="28.87" y1="61.373" x2="24.023" y2="53.728" stroke="#141414" stroke-width="0.4"/>
<line x1="24.023" y1="53.728" x2="26.3" y2="44.247" stroke="#141414" stroke-width="0.4"/>
<line x1="48.357" y1="120.269" x2="56.073" y2="121.266" stroke="#141414" stroke-width="0.4"/>
<line x1="56.073" y1="121.266" x2="64.752" y2="108.017" stroke="#141414" stroke-width="0.4"/>
<line x1="64.752" y1="108.017" x2="60.757" y2="101.342" stroke="#141414" stroke-width="0.4"/>
<line x1="48.357" y1="120.269" x2="45.054" y2="127.313" stroke="#141414" stroke-width="0.4"/>
<line x1="45.054" y1="127.313" x2="29.216" y2="127.519" stroke="#141414" stroke-width="0.4"/>
<line x1="29.216" y1="127.519" x2="25.732" y2="120.563" stroke="#141414" stroke-width="0.4"/>
<line x1="38.131" y1="101.636" x2="28.556" y2="103.478" stroke="#141414" stroke-width="0.4"/>
<line x1="28.556" y1="103.478" x2="23.596" y2="111.049" stroke="#141414" stroke-width="0.4"/>
<line x1="23.596" y1="111.049" x2="25.732" y2="120.563" stroke="#141414" stroke-width="0.4"/>
<line x1="83.234" y1="62.988" x2="76.889" y2="70.281" stroke="#141414" stroke-width="0.4"/>
<line x1="76.889" y1="70.281" x2="68.01" y2="70.681" stroke="#141414" stroke-width="0.4"/>
<line x1="68.01" y1="70.681" x2="61.035" y2="63.988" stroke="#141414" stroke-width="0.4"/>
<line x1="60.757" y1="101.342" x2="63.544" y2="92.2" stroke="#141414" stroke-width="0.4"/>
<line x1="63.544" y1="92.2" x2="59.188" y2="84.696" stroke="#141414" stroke-width="0.4"/>
<line x1="59.188" y1="84.696" x2="49.867" y2="82.583" stroke="#141414" stroke-width="0.4"/>
<line x1="83.234" y1="62.988" x2="85.497" y2="53.702" stroke="#141414" stroke-width="0.4"/>
<line x1="85.497" y1="53.702" x2="80.722" y2="46.458" stroke="#141414" stroke-width="0.4"/>
<line x1="80.722" y1="46.458" x2="71.296" y2="44.878" stroke="#141414" stroke-width="0.4"/>
<line x1="48.761" y1="6.077" x2="41.034" y2="5.441" stroke="#141414" stroke-width="0.4"/>
<line x1="41.034" y1="5.441" x2="33.217" y2="18.889" stroke="#141414" stroke-width="0.4"/>
<line x1="33.217" y1="18.889" x2="37.593" y2="25.289" stroke="#141414" stroke-width="0.4"/>
<line x1="15.513" y1="101.005" x2="12.862" y2="91.823" stroke="#141414" stroke-width="0.4"/>
<line x1="12.862" y1="91.823" x2="17.329" y2="84.385" stroke="#141414" stroke-width="0.4"/>
<line x1="17.329" y1="84.385" x2="26.68" y2="82.41" stroke="#141414" stroke-width="0.4"/>
<line x1="48.761" y1="6.077" x2="58.039" y2="8.372" stroke="#141414" stroke-width="0.4"/>
<line x1="58.039" y1="8.372" x2="62.248" y2="15.959" stroke="#141414" stroke-width="0.4"/>
<line x1="62.248" y1="15.959" x2="59.283" y2="25.045" stroke="#141414" stroke-width="0.4"/>
<circle cx="37.707" cy="41.064" r="3.05" fill="#ffe082" stroke="#464646" stroke-width="0.2"/>
<text x="37.707" y="42.11" font-size="2.99" text-anchor="middle" fill="#141414">45</text>
<circle cx="29.402" cy="55.676" r="3.05" fill="#ffe082" stroke="#464646" stroke-width="0.2"/>
<text x="29.402" y="56.72" font-size="2.99" text-anchor="middle" fill="#141414">46</text>
<circle cx="57.485" cy="112.724" r="3.05" fill="#ffe082" stroke="#464646" stroke-width="0.2"/>
<text x="57.485" y="113.77" font-size="2.99" text-anchor="middle" fill="#141414">47</text>
<circle cx="37.09" cy="123.916" r="3.05" fill="#ffe082" stroke="#464646" stroke-width="0.2"/>
<text x="37.09" y="124.96" font-size="2.99" text-anchor="middle" fill="#141414">48</text>
<circle cx="29.004" cy="109.182" r="3.05" fill="#ffe082" stroke="#464646" stroke-width="0.2"/>
<text x="29.004" y="110.23" font-size="2.99" text-anchor="middle" fill="#141414">49</text>
<circle cx="72.292" cy="66.984" r="3.05" fill="#ffe082" stroke="#464646" stroke-width="0.2"/>
<text x="72.292" y="68.03" font-size="2.99" text-anchor="middle" fill="#141414">50</text>
<circle cx="58.339" cy="90.205" r="3.05" fill="#ffe082" stroke="#464646" stroke-width="0.2"/>
<text x="58.339" y="91.25" font-size="2.99" text-anchor="middle" fill="#141414">51</text>
<circle cx="80.187" cy="52.007" r="3.05" fill="#ffe082" stroke="#464646" stroke-width="0.2"/>
<text x="80.187" y="53.05" font-size="2.99" text-anchor="middle" fill="#141414">52</text>
<circle cx="40.151" cy="13.924" r="3.05" fill="#99d9fa" stroke="#464646" stroke-width="0.2"/>
<text x="40.151" y="14.97" font-size="2.99" text-anchor="middle" fill="#141414">53</text>
<circle cx="18.096" cy="89.906" r="3.05" fill="#ffe082" stroke="#464646" stroke-width="0.2"/>
<text x="18.096" y="90.95" font-size="2.99" text-anchor="middle" fill="#141414">54</text>
<circle cx="57.082" cy="13.863" r="3.05" fill="#ffe082" stroke="#464646" stroke-width="0.2"/>
<text x="57.082" y="14.91" font-size="2.99" text-anchor="middle" fill="#141414">55</text>
<circle cx="15.824" cy="76.379" r="4.60" fill="#eaf1fe" stroke="#2e78e6" stroke-width="0.3"/>
<text x="15.824" y="78.18" font-size="5.20" text-anchor="middle" fill="#14306e" font-weight="bold">5</text>
<polygon points="139.904,44.878 133.314,37.691 124.267,37.439 117.286,44.247" fill="rgb(216,216,216)"/>
<polygon points="129.402,63.357 119.855,61.373 115.009,53.728 117.286,44.247" fill="rgb(216,216,216)"/>
<polygon points="139.343,120.269 147.058,121.266 155.738,108.017 151.743,101.342" fill="rgb(216,216,216)"/>
<polygon points="139.343,120.269 136.04,127.313 120.202,127.519 116.717,120.563" fill="rgb(216,216,216)"/>
<polygon points="129.117,101.636 119.542,103.478 114.582,111.049 116.717,120.563" fill="rgb(216,216,216)"/>
<polygon points="174.22,62.988 167.875,70.281 158.995,70.681 152.021,63.988" fill="rgb(216,216,216)"/>
<polygon points="151.743,101.342 154.53,92.2 150.174,84.696 140.853,82.583" fill="rgb(216,216,216)"/>
<polygon points="174.22,62.988 176.483,53.702 171.708,46.458 162.282,44.878" fill="rgb(216,216,216)"/>
<polygon points="139.746,6.077 132.02,5.441 124.202,18.889 128.579,25.289" fill="rgb(216,216,216)"/>
<polygon points="106.498,101.005 103.848,91.823 108.315,84.385 117.666,82.41" fill="rgb(216,216,216)"/>
<polygon points="139.746,6.077 149.024,8.372 153.233,15.959 150.268,25.045" fill="rgb(216,216,216)"/>
<polygon points="139.746,6.077 132.02,5.441 124.202,18.889 128.579,25.289" fill="#99d9fa"/>
<line x1="129.402" y1="63.357" x2="139.905" y2="44.878" stroke="#8c8c8c" stroke-width="0.3" stroke-dasharray="1.2,0.8"/>
<line x1="152.021" y1="63.988" x2="139.905" y2="44.878" stroke="#8c8c8c" stroke-width="0.3" stroke-dasharray="1.2,0.8"/>
<line x1="150.268" y1="25.045" x2="139.905" y2="44.878" stroke="#8c8c8c" stroke-width="0.3" stroke-dasharray="1.2,0.8"/>
<line x1="139.905" y1="44.878" x2="162.282" y2="44.878" stroke="#8c8c8c" stroke-width="0.3" stroke-dasharray="1.2,0.8"/>
<line x1="152.021" y1="63.988" x2="129.402" y2="63.357" stroke="#8c8c8c" stroke-width="0.3" stroke-dasharray="1.2,0.8"/>
<line x1="129.402" y1="63.357" x2="117.666" y2="82.41" stroke="#8c8c8c" stroke-width="0.3" stroke-dasharray="1.2,0.8"/>
<line x1="140.853" y1="82.583" x2="129.402" y2="63.357" stroke="#8c8c8c" stroke-width="0.3" stroke-dasharray="1.2,0.8"/>
<line x1="139.343" y1="120.269" x2="129.117" y2="101.636" stroke="#8c8c8c" stroke-width="0.3" stroke-dasharray="1.2,0.8"/>
<line x1="150.268" y1="25.045" x2="172.646" y2="25.045" stroke="#8c8c8c" stroke-width="0.3" stroke-dasharray="1.2,0.8"/>
<line x1="172.646" y1="25.045" x2="162.282" y2="44.878" stroke="#8c8c8c" stroke-width="0.3" stroke-dasharray="1.2,0.8"/>
<line x1="151.743" y1="101.342" x2="129.117" y2="101.636" stroke="#8c8c8c" stroke-width="0.3" stroke-dasharray="1.2,0.8"/>
<line x1="117.666" y1="82.41" x2="129.117" y2="101.636" stroke="#8c8c8c" stroke-width="0.3" stroke-dasharray="1.2,0.8"/>
<line x1="129.117" y1="101.636" x2="140.853" y2="82.583" stroke="#8c8c8c" stroke-width="0.3" stroke-dasharray="1.2,0.8"/>
<line x1="152.021" y1="63.988" x2="140.853" y2="82.583" stroke="#8c8c8c" stroke-width="0.3" stroke-dasharray="1.2,0.8"/>
<line x1="162.282" y1="44.878" x2="152.021" y2="63.988" stroke="#8c8c8c" stroke-width="0.3" stroke-dasharray="1.2,0.8"/>
<line x1="117.666" y1="82.41" x2="106.776" y2="63.651" stroke="#8c8c8c" stroke-width="0.3" stroke-dasharray="1.2,0.8"/>
<line x1="128.579" y1="25.289" x2="150.268" y2="25.045" stroke="#8c8c8c" stroke-width="0.3" stroke-dasharray="1.2,0.8"/>
<line x1="117.666" y1="82.41" x2="140.853" y2="82.583" stroke="#8c8c8c" stroke-width="0.3" stroke-dasharray="1.2,0.8"/>
<line x1="150.268" y1="25.045" x2="162.282" y2="44.878" stroke="#8c8c8c" stroke-width="0.3" stroke-dasharray="1.2,0.8"/>
<line x1="117.286" y1="44.247" x2="139.904" y2="44.878" stroke="#8c8c8c" stroke-width="0.3" stroke-dasharray="1.2,0.8"/>
<line x1="117.286" y1="44.247" x2="129.402" y2="63.357" stroke="#8c8c8c" stroke-width="0.3" stroke-dasharray="1.2,0.8"/>
<line x1="151.743" y1="101.342" x2="139.343" y2="120.269" stroke="#8c8c8c" stroke-width="0.3" stroke-dasharray="1.2,0.8"/>
<line x1="116.717" y1="120.563" x2="139.343" y2="120.269" stroke="#8c8c8c" stroke-width="0.3" stroke-dasharray="1.2,0.8"/>
<line x1="116.717" y1="120.563" x2="129.117" y2="101.636" stroke="#8c8c8c" stroke-width="0.3" stroke-dasharray="1.2,0.8"/>
<line x1="152.021" y1="63.988" x2="174.22" y2="62.988" stroke="#8c8c8c" stroke-width="0.3" stroke-dasharray="1.2,0.8"/>
<line x1="140.853" y1="82.583" x2="151.743" y2="101.342" stroke="#8c8c8c" stroke-width="0.3" stroke-dasharray="1.2,0.8"/>
<line x1="162.282" y1="44.878" x2="174.22" y2="62.988" stroke="#8c8c8c" stroke-width="0.3" stroke-dasharray="1.2,0.8"/>
<line x1="128.579" y1="25.289" x2="139.746" y2="6.077" stroke="#8c8c8c" stroke-width="0.3" stroke-dasharray="1.2,0.8"/>
<line x1="117.666" y1="82.41" x2="106.498" y2="101.005" stroke="#8c8c8c" stroke-width="0.3" stroke-dasharray="1.2,0.8"/>
<line x1="150.268" y1="25.045" x2="139.746" y2="6.077" stroke="#8c8c8c" stroke-width="0.3" stroke-dasharray="1.2,0.8"/>
<line x1="139.905" y1="44.878" x2="128.579" y2="25.289" stroke="#141414" stroke-width="0.4"/>
<line x1="106.776" y1="63.651" x2="129.402" y2="63.357" stroke="#141414" stroke-width="0.4"/>
<line x1="172.646" y1="25.045" x2="183.971" y2="44.634" stroke="#141414" stroke-width="0.4"/>
<line x1="160.529" y1="5.935" x2="172.646" y2="25.045" stroke="#141414" stroke-width="0.4"/>
<line x1="129.117" y1="101.636" x2="106.498" y2="101.005" stroke="#141414" stroke-width="0.4"/>
<line x1="152.021" y1="63.988" x2="162.521" y2="83.572" stroke="#141414" stroke-width="0.4"/>
<line x1="162.521" y1="83.572" x2="140.853" y2="82.583" stroke="#141414" stroke-width="0.4"/>
<line x1="183.971" y1="44.634" x2="162.282" y2="44.878" stroke="#141414" stroke-width="0.4"/>
<line x1="95.986" y1="83.076" x2="106.776" y2="63.651" stroke="#141414" stroke-width="0.4"/>
<line x1="117.666" y1="82.41" x2="95.986" y2="83.076" stroke="#141414" stroke-width="0.4"/>
<line x1="150.268" y1="25.045" x2="160.529" y2="5.935" stroke="#141414" stroke-width="0.4"/>
<line x1="139.904" y1="44.878" x2="133.314" y2="37.691" stroke="#141414" stroke-width="0.4"/>
<line x1="133.314" y1="37.691" x2="124.267" y2="37.439" stroke="#141414" stroke-width="0.4"/>
<line x1="124.267" y1="37.439" x2="117.286" y2="44.247" stroke="#141414" stroke-width="0.4"/>
<line x1="129.402" y1="63.357" x2="119.855" y2="61.373" stroke="#141414" stroke-width="0.4"/>
<line x1="119.855" y1="61.373" x2="115.009" y2="53.728" stroke="#141414" stroke-width="0.4"/>
<line x1="115.009" y1="53.728" x2="117.286" y2="44.247" stroke="#141414" stroke-width="0.4"/>
<line x1="139.343" y1="120.269" x2="147.058" y2="121.266" stroke="#141414" stroke-width="0.4"/>
<line x1="147.058" y1="121.266" x2="155.738" y2="108.017" stroke="#141414" stroke-width="0.4"/>
<line x1="155.738" y1="108.017" x2="151.743" y2="101.342" stroke="#141414" stroke-width="0.4"/>
<line x1="139.343" y1="120.269" x2="136.04" y2="127.313" stroke="#141414" stroke-width="0.4"/>
<line x1="136.04" y1="127.313" x2="120.202" y2="127.519" stroke="#141414" stroke-width="0.4"/>
<line x1="120.202" y1="127.519" x2="116.717" y2="120.563" stroke="#141414" stroke-width="0.4"/>
<line x1="129.117" y1="101.636" x2="119.542" y2="103.478" stroke="#141414" stroke-width="0.4"/>
<line x1="119.542" y1="103.478" x2="114.582" y2="111.049" stroke="#141414" stroke-width="0.4"/>
<line x1="114.582" y1="111.049" x2="116.717" y2="120.563" stroke="#141414" stroke-width="0.4"/>
<line x1="174.22" y1="62.988" x2="167.875" y2="70.281" stroke="#141414" stroke-width="0.4"/>
<line x1="167.875" y1="70.281" x2="158.995" y2="70.681" stroke="#141414" stroke-width="0.4"/>
<line x1="158.995" y1="70.681" x2="152.021" y2="63.988" stroke="#141414" stroke-width="0.4"/>
<line x1="151.743" y1="101.342" x2="154.53" y2="92.2" stroke="#141414" stroke-width="0.4"/>
<line x1="154.53" y1="92.2" x2="150.174" y2="84.696" stroke="#141414" stroke-width="0.4"/>
<line x1="150.174" y1="84.696" x2="140.853" y2="82.583" stroke="#141414" stroke-width="0.4"/>
<line x1="174.22" y1="62.988" x2="176.483" y2="53.702" stroke="#141414" stroke-width="0.4"/>
<line x1="176.483" y1="53.702" x2="171.708" y2="46.458" stroke="#141414" stroke-width="0.4"/>
<line x1="171.708" y1="46.458" x2="162.282" y2="44.878" stroke="#141414" stroke-width="0.4"/>
<line x1="139.746" y1="6.077" x2="132.02" y2="5.441" stroke="#141414" stroke-width="0.4"/>
<line x1="132.02" y1="5.441" x2="124.202" y2="18.889" stroke="#141414" stroke-width="0.4"/>
<line x1="124.202" y1="18.889" x2="128.579" y2="25.289" stroke="#141414" stroke-width="0.4"/>
<line x1="106.498" y1="101.005" x2="103.848" y2="91.823" stroke="#141414" stroke-width="0.4"/>
<line x1="103.848" y1="91.823" x2="108.315" y2="84.385" stroke="#141414" stroke-width="0.4"/>
<line x1="108.315" y1="84.385" x2="117.666" y2="82.41" stroke="#141414" stroke-width="0.4"/>
<line x1="139.746" y1="6.077" x2="149.024" y2="8.372" stroke="#141414" stroke-width="0.4"/>
<line x1="149.024" y1="8.372" x2="153.233" y2="15.959" stroke="#141414" stroke-width="0.4"/>
<line x1="153.233" y1="15.959" x2="150.268" y2="25.045" stroke="#141414" stroke-width="0.4"/>
<circle cx="128.693" cy="41.064" r="3.05" fill="#ffe082" stroke="#464646" stroke-width="0.2"/>
<text x="128.693" y="42.11" font-size="2.99" text-anchor="middle" fill="#141414">56</text>
<circle cx="120.388" cy="55.676" r="3.05" fill="#ffe082" stroke="#464646" stroke-width="0.2"/>
<text x="120.388" y="56.72" font-size="2.99" text-anchor="middle" fill="#141414">57</text>
<circle cx="148.47" cy="112.724" r="3.05" fill="#ffe082" stroke="#464646" stroke-width="0.2"/>
<text x="148.47" y="113.77" font-size="2.99" text-anchor="middle" fill="#141414">58</text>
<circle cx="128.076" cy="123.916" r="3.05" fill="#ffe082" stroke="#464646" stroke-width="0.2"/>
<text x="128.076" y="124.96" font-size="2.99" text-anchor="middle" fill="#141414">59</text>
<circle cx="119.989" cy="109.182" r="3.05" fill="#ffe082" stroke="#464646" stroke-width="0.2"/>
<text x="119.989" y="110.23" font-size="2.99" text-anchor="middle" fill="#141414">60</text>
<circle cx="163.278" cy="66.984" r="3.05" fill="#ffe082" stroke="#464646" stroke-width="0.2"/>
<text x="163.278" y="68.03" font-size="2.99" text-anchor="middle" fill="#141414">61</text>
<circle cx="149.325" cy="90.205" r="3.05" fill="#ffe082" stroke="#464646" stroke-width="0.2"/>
<text x="149.325" y="91.25" font-size="2.99" text-anchor="middle" fill="#141414">62</text>
<circle cx="171.173" cy="52.007" r="3.05" fill="#ffe082" stroke="#464646" stroke-width="0.2"/>
<text x="171.173" y="53.05" font-size="2.99" text-anchor="middle" fill="#141414">63</text>
<circle cx="131.137" cy="13.924" r="3.05" fill="#99d9fa" stroke="#464646" stroke-width="0.2"/>
<text x="131.137" y="14.97" font-size="2.99" text-anchor="middle" fill="#141414">64</text>
<circle cx="109.082" cy="89.906" r="3.05" fill="#ffe082" stroke="#464646" stroke-width="0.2"/>
<text x="109.082" y="90.95" font-size="2.99" text-anchor="middle" fill="#141414">65</text>
<circle cx="148.068" cy="13.863" r="3.05" fill="#ffe082" stroke="#464646" stroke-width="0.2"/>
<text x="148.068" y="14.91" font-size="2.99" text-anchor="middle" fill="#141414">66</text>
<circle cx="106.809" cy="76.379" r="4.60" fill="#eaf1fe" stroke="#2e78e6" stroke-width="0.3"/>
<text x="106.809" y="78.18" font-size="5.20" text-anchor="middle" fill="#14306e" font-weight="bold">6</text>
<polygon points="32.729,171.672 34.809,178.604 44.514,178.604 46.594,171.672" fill="rgb(216,216,216)"/>
<polygon points="32.729,157.807 34.809,150.875 44.514,150.875 46.594,157.807" fill="rgb(216,216,216)"/>
<polygon points="46.594,171.672 53.526,169.592 53.526,159.887 46.594,157.807" fill="rgb(216,216,216)"/>
<polygon points="32.729,185.536 30.65,192.469 20.944,192.469 18.865,185.536" fill="rgb(216,216,216)"/>
<polygon points="18.865,171.672 11.932,169.592 11.932,159.887 18.865,157.807" fill="rgb(216,216,216)"/>
<polygon points="18.865,171.672 11.932,173.751 11.932,183.457 18.865,185.536" fill="rgb(216,216,216)"/>
<polygon points="18.865,157.807 11.932,155.727 11.932,146.022 18.865,143.942" fill="rgb(216,216,216)"/>
<polygon points="32.729,171.672 34.809,178.604 44.514,178.604 46.594,171.672" fill="#99d9fa"/>
<line x1="32.729" y1="171.672" x2="32.729" y2="157.807" stroke="#8c8c8c" stroke-width="0.3" stroke-dasharray="1.2,0.8"/>
<line x1="32.729" y1="171.672" x2="18.865" y2="171.672" stroke="#8c8c8c" stroke-width="0.3" stroke-dasharray="1.2,0.8"/>
<line x1="18.865" y1="157.807" x2="32.729" y2="157.807" stroke="#8c8c8c" stroke-width="0.3" stroke-dasharray="1.2,0.8"/>
<line x1="18.865" y1="143.942" x2="32.729" y2="143.942" stroke="#8c8c8c" stroke-width="0.3" stroke-dasharray="1.2,0.8"/>
<line x1="18.865" y1="143.942" x2="18.865" y2="130.078" stroke="#8c8c8c" stroke-width="0.3" stroke-dasharray="1.2,0.8"/>
<line x1="46.594" y1="171.672" x2="32.729" y2="171.672" stroke="#8c8c8c" stroke-width="0.3" stroke-dasharray="1.2,0.8"/>
<line x1="46.594" y1="157.807" x2="32.729" y2="157.807" stroke="#8c8c8c" stroke-width="0.3" stroke-dasharray="1.2,0.8"/>
<line x1="46.594" y1="157.807" x2="46.594" y2="171.672" stroke="#8c8c8c" stroke-width="0.3" stroke-dasharray="1.2,0.8"/>
<line x1="18.865" y1="185.536" x2="32.729" y2="185.536" stroke="#8c8c8c" stroke-width="0.3" stroke-dasharray="1.2,0.8"/>
<line x1="18.865" y1="157.807" x2="18.865" y2="171.672" stroke="#8c8c8c" stroke-width="0.3" stroke-dasharray="1.2,0.8"/>
<line x1="18.865" y1="185.536" x2="18.865" y2="171.672" stroke="#8c8c8c" stroke-width="0.3" stroke-dasharray="1.2,0.8"/>
<line x1="18.865" y1="143.942" x2="18.865" y2="157.807" stroke="#8c8c8c" stroke-width="0.3" stroke-dasharray="1.2,0.8"/>
<line x1="32.729" y1="171.672" x2="32.729" y2="185.536" stroke="#141414" stroke-width="0.4"/>
<line x1="32.729" y1="143.942" x2="32.729" y2="157.807" stroke="#141414" stroke-width="0.4"/>
<line x1="32.729" y1="130.078" x2="32.729" y2="143.942" stroke="#141414" stroke-width="0.4"/>
<line x1="18.865" y1="130.078" x2="32.729" y2="130.078" stroke="#141414" stroke-width="0.4"/>
<line x1="5.0" y1="143.942" x2="5.0" y2="130.078" stroke="#141414" stroke-width="0.4"/>
<line x1="5.0" y1="130.078" x2="18.865" y2="130.078" stroke="#141414" stroke-width="0.4"/>
<line x1="18.865" y1="143.942" x2="5.0" y2="143.942" stroke="#141414" stroke-width="0.4"/>
<line x1="32.729" y1="171.672" x2="34.809" y2="178.604" stroke="#141414" stroke-width="0.4"/>
<line x1="34.809" y1="178.604" x2="44.514" y2="178.604" stroke="#141414" stroke-width="0.4"/>
<line x1="44.514" y1="178.604" x2="46.594" y2="171.672" stroke="#141414" stroke-width="0.4"/>
<line x1="32.729" y1="157.807" x2="34.809" y2="150.875" stroke="#141414" stroke-width="0.4"/>
<line x1="34.809" y1="150.875" x2="44.514" y2="150.875" stroke="#141414" stroke-width="0.4"/>
<line x1="44.514" y1="150.875" x2="46.594" y2="157.807" stroke="#141414" stroke-width="0.4"/>
<line x1="46.594" y1="171.672" x2="53.526" y2="169.592" stroke="#141414" stroke-width="0.4"/>
<line x1="53.526" y1="169.592" x2="53.526" y2="159.887" stroke="#141414" stroke-width="0.4"/>
<line x1="53.526" y1="159.887" x2="46.594" y2="157.807" stroke="#141414" stroke-width="0.4"/>
<line x1="32.729" y1="185.536" x2="30.65" y2="192.469" stroke="#141414" stroke-width="0.4"/>
<line x1="30.65" y1="192.469" x2="20.944" y2="192.469" stroke="#141414" stroke-width="0.4"/>
<line x1="20.944" y1="192.469" x2="18.865" y2="185.536" stroke="#141414" stroke-width="0.4"/>
<line x1="18.865" y1="171.672" x2="11.932" y2="169.592" stroke="#141414" stroke-width="0.4"/>
<line x1="11.932" y1="169.592" x2="11.932" y2="159.887" stroke="#141414" stroke-width="0.4"/>
<line x1="11.932" y1="159.887" x2="18.865" y2="157.807" stroke="#141414" stroke-width="0.4"/>
<line x1="18.865" y1="171.672" x2="11.932" y2="173.751" stroke="#141414" stroke-width="0.4"/>
<line x1="11.932" y1="173.751" x2="11.932" y2="183.457" stroke="#141414" stroke-width="0.4"/>
<line x1="11.932" y1="183.457" x2="18.865" y2="185.536" stroke="#141414" stroke-width="0.4"/>
<line x1="18.865" y1="157.807" x2="11.932" y2="155.727" stroke="#141414" stroke-width="0.4"/>
<line x1="11.932" y1="155.727" x2="11.932" y2="146.022" stroke="#141414" stroke-width="0.4"/>
<line x1="11.932" y1="146.022" x2="18.865" y2="143.942" stroke="#141414" stroke-width="0.4"/>
<circle cx="39.662" cy="175.138" r="3.05" fill="#99d9fa" stroke="#464646" stroke-width="0.2"/>
<text x="39.662" y="176.18" font-size="2.99" text-anchor="middle" fill="#141414">74</text>
<circle cx="39.662" cy="154.341" r="3.05" fill="#ffe082" stroke="#464646" stroke-width="0.2"/>
<text x="39.662" y="155.39" font-size="2.99" text-anchor="middle" fill="#141414">75</text>
<circle cx="50.06" cy="164.739" r="3.05" fill="#ffe082" stroke="#464646" stroke-width="0.2"/>
<text x="50.06" y="165.79" font-size="2.99" text-anchor="middle" fill="#141414">76</text>
<circle cx="25.797" cy="189.003" r="3.05" fill="#ffe082" stroke="#464646" stroke-width="0.2"/>
<text x="25.797" y="190.05" font-size="2.99" text-anchor="middle" fill="#141414">77</text>
<circle cx="15.398" cy="164.739" r="3.05" fill="#ffe082" stroke="#464646" stroke-width="0.2"/>
<text x="15.398" y="165.79" font-size="2.99" text-anchor="middle" fill="#141414">78</text>
<circle cx="15.398" cy="178.604" r="3.05" fill="#ffe082" stroke="#464646" stroke-width="0.2"/>
<text x="15.398" y="179.65" font-size="2.99" text-anchor="middle" fill="#141414">79</text>
<circle cx="15.398" cy="150.875" r="3.05" fill="#ffe082" stroke="#464646" stroke-width="0.2"/>
<text x="15.398" y="151.92" font-size="2.99" text-anchor="middle" fill="#141414">80</text>
<circle cx="28.108" cy="167.05" r="2.61" fill="#eaf1fe" stroke="#2e78e6" stroke-width="0.3"/>
<text x="28.108" y="168.07" font-size="2.96" text-anchor="middle" fill="#14306e" font-weight="bold">8</text>
<polygon points="84.256,171.672 86.335,178.604 96.041,178.604 98.12,171.672" fill="rgb(216,216,216)"/>
<polygon points="84.256,157.807 86.335,150.875 96.041,150.875 98.12,157.807" fill="rgb(216,216,216)"/>
<polygon points="98.12,171.672 105.053,169.592 105.053,159.887 98.12,157.807" fill="rgb(216,216,216)"/>
<polygon points="84.256,185.536 82.176,192.469 72.471,192.469 70.391,185.536" fill="rgb(216,216,216)"/>
<polygon points="70.391,171.672 63.459,169.592 63.459,159.887 70.391,157.807" fill="rgb(216,216,216)"/>
<polygon points="70.391,171.672 63.459,173.751 63.459,183.457 70.391,185.536" fill="rgb(216,216,216)"/>
<polygon points="70.391,157.807 63.459,155.727 63.459,146.022 70.391,143.942" fill="rgb(216,216,216)"/>
<polygon points="84.256,171.672 86.335,178.604 96.041,178.604 98.12,171.672" fill="#99d9fa"/>
<line x1="84.256" y1="171.672" x2="84.256" y2="157.807" stroke="#8c8c8c" stroke-width="0.3" stroke-dasharray="1.2,0.8"/>
<line x1="84.256" y1="171.672" x2="70.391" y2="171.672" stroke="#8c8c8c" stroke-width="0.3" stroke-dasharray="1.2,0.8"/>
<line x1="70.391" y1="157.807" x2="84.256" y2="157.807" stroke="#8c8c8c" stroke-width="0.3" stroke-dasharray="1.2,0.8"/>
<line x1="70.391" y1="143.942" x2="84.256" y2="143.942" stroke="#8c8c8c" stroke-width="0.3" stroke-dasharray="1.2,0.8"/>
<line x1="70.391" y1="143.942" x2="70.391" y2="130.078" stroke="#8c8c8c" stroke-width="0.3" stroke-dasharray="1.2,0.8"/>
<line x1="98.12" y1="171.672" x2="84.256" y2="171.672" stroke="#8c8c8c" stroke-width="0.3" stroke-dasharray="1.2,0.8"/>
<line x1="98.12" y1="157.807" x2="84.256" y2="157.807" stroke="#8c8c8c" stroke-width="0.3" stroke-dasharray="1.2,0.8"/>
<line x1="98.12" y1="157.807" x2="98.12" y2="171.672" stroke="#8c8c8c" stroke-width="0.3" stroke-dasharray="1.2,0.8"/>
<line x1="70.391" y1="185.536" x2="84.256" y2="185.536" stroke="#8c8c8c" stroke-width="0.3" stroke-dasharray="1.2,0.8"/>
<line x1="70.391" y1="157.807" x2="70.391" y2="171.672" stroke="#8c8c8c" stroke-width="0.3" stroke-dasharray="1.2,0.8"/>
<line x1="70.391" y1="185.536" x2="70.391" y2="171.672" stroke="#8c8c8c" stroke-width="0.3" stroke-dasharray="1.2,0.8"/>
<line x1="70.391" y1="143.942" x2="70.391" y2="157.807" stroke="#8c8c8c" stroke-width="0.3" stroke-dasharray="1.2,0.8"/>
<line x1="84.256" y1="171.672" x2="84.256" y2="185.536" stroke="#141414" stroke-width="0.4"/>
<line x1="84.256" y1="143.942" x2="84.256" y2="157.807" stroke="#141414" stroke-width="0.4"/>
<line x1="84.256" y1="130.078" x2="84.256" y2="143.942" stroke="#141414" stroke-width="0.4"/>
<line x1="70.391" y1="130.078" x2="84.256" y2="130.078" stroke="#141414" stroke-width="0.4"/>
<line x1="56.526" y1="143.942" x2="56.526" y2="130.078" stroke="#141414" stroke-width="0.4"/>
<line x1="56.526" y1="130.078" x2="70.391" y2="130.078" stroke="#141414" stroke-width="0.4"/>
<line x1="70.391" y1="143.942" x2="56.526" y2="143.942" stroke="#141414" stroke-width="0.4"/>
<line x1="84.256" y1="171.672" x2="86.335" y2="178.604" stroke="#141414" stroke-width="0.4"/>
<line x1="86.335" y1="178.604" x2="96.041" y2="178.604" stroke="#141414" stroke-width="0.4"/>
<line x1="96.041" y1="178.604" x2="98.12" y2="171.672" stroke="#141414" stroke-width="0.4"/>
<line x1="84.256" y1="157.807" x2="86.335" y2="150.875" stroke="#141414" stroke-width="0.4"/>
<line x1="86.335" y1="150.875" x2="96.041" y2="150.875" stroke="#141414" stroke-width="0.4"/>
<line x1="96.041" y1="150.875" x2="98.12" y2="157.807" stroke="#141414" stroke-width="0.4"/>
<line x1="98.12" y1="171.672" x2="105.053" y2="169.592" stroke="#141414" stroke-width="0.4"/>
<line x1="105.053" y1="169.592" x2="105.053" y2="159.887" stroke="#141414" stroke-width="0.4"/>
<line x1="105.053" y1="159.887" x2="98.12" y2="157.807" stroke="#141414" stroke-width="0.4"/>
<line x1="84.256" y1="185.536" x2="82.176" y2="192.469" stroke="#141414" stroke-width="0.4"/>
<line x1="82.176" y1="192.469" x2="72.471" y2="192.469" stroke="#141414" stroke-width="0.4"/>
<line x1="72.471" y1="192.469" x2="70.391" y2="185.536" stroke="#141414" stroke-width="0.4"/>
<line x1="70.391" y1="171.672" x2="63.459" y2="169.592" stroke="#141414" stroke-width="0.4"/>
<line x1="63.459" y1="169.592" x2="63.459" y2="159.887" stroke="#141414" stroke-width="0.4"/>
<line x1="63.459" y1="159.887" x2="70.391" y2="157.807" stroke="#141414" stroke-width="0.4"/>
<line x1="70.391" y1="171.672" x2="63.459" y2="173.751" stroke="#141414" stroke-width="0.4"/>
<line x1="63.459" y1="173.751" x2="63.459" y2="183.457" stroke="#141414" stroke-width="0.4"/>
<line x1="63.459" y1="183.457" x2="70.391" y2="185.536" stroke="#141414" stroke-width="0.4"/>
<line x1="70.391" y1="157.807" x2="63.459" y2="155.727" stroke="#141414" stroke-width="0.4"/>
<line x1="63.459" y1="155.727" x2="63.459" y2="146.022" stroke="#141414" stroke-width="0.4"/>
<line x1="63.459" y1="146.022" x2="70.391" y2="143.942" stroke="#141414" stroke-width="0.4"/>
<circle cx="91.188" cy="175.138" r="3.05" fill="#99d9fa" stroke="#464646" stroke-width="0.2"/>
<text x="91.188" y="176.18" font-size="2.99" text-anchor="middle" fill="#141414">81</text>
<circle cx="91.188" cy="154.341" r="3.05" fill="#ffe082" stroke="#464646" stroke-width="0.2"/>
<text x="91.188" y="155.39" font-size="2.99" text-anchor="middle" fill="#141414">82</text>
<circle cx="101.587" cy="164.739" r="3.05" fill="#ffe082" stroke="#464646" stroke-width="0.2"/>
<text x="101.587" y="165.79" font-size="2.99" text-anchor="middle" fill="#141414">83</text>
<circle cx="77.323" cy="189.003" r="3.05" fill="#ffe082" stroke="#464646" stroke-width="0.2"/>
<text x="77.323" y="190.05" font-size="2.99" text-anchor="middle" fill="#141414">84</text>
<circle cx="66.925" cy="164.739" r="3.05" fill="#ffe082" stroke="#464646" stroke-width="0.2"/>
<text x="66.925" y="165.79" font-size="2.99" text-anchor="middle" fill="#141414">85</text>
<circle cx="66.925" cy="178.604" r="3.05" fill="#ffe082" stroke="#464646" stroke-width="0.2"/>
<text x="66.925" y="179.65" font-size="2.99" text-anchor="middle" fill="#141414">86</text>
<circle cx="66.925" cy="150.875" r="3.05" fill="#ffe082" stroke="#464646" stroke-width="0.2"/>
<text x="66.925" y="151.92" font-size="2.99" text-anchor="middle" fill="#141414">87</text>
<circle cx="79.634" cy="167.05" r="2.61" fill="#eaf1fe" stroke="#2e78e6" stroke-width="0.3"/>
<text x="79.634" y="168.07" font-size="2.96" text-anchor="middle" fill="#14306e" font-weight="bold">9</text>
<polygon points="31.637,258.34 28.823,265.34 15.692,265.34 12.878,258.34" fill="rgb(216,216,216)"/>
<polygon points="31.637,236.284 28.823,229.284 15.692,229.284 12.878,236.284" fill="rgb(216,216,216)"/>
<polygon points="46.805,258.34 53.805,255.031 53.805,239.592 46.805,236.284" fill="rgb(216,216,216)"/>
<polygon points="46.805,258.34 53.805,261.154 53.805,274.285 46.805,277.099" fill="rgb(216,216,216)"/>
<polygon points="46.805,236.284 53.805,233.47 53.805,220.339 46.805,217.525" fill="rgb(216,216,216)"/>
<polygon points="12.878,258.34 5.878,255.031 5.878,239.592 12.878,236.284" fill="rgb(216,216,216)"/>
<polygon points="31.637,277.099 33.912,284.099 44.53,284.099 46.805,277.099" fill="rgb(216,216,216)"/>
<polygon points="31.637,258.34 28.823,265.34 15.692,265.34 12.878,258.34" fill="#99d9fa"/>
<line x1="31.637" y1="258.34" x2="31.637" y2="236.284" stroke="#8c8c8c" stroke-width="0.3" stroke-dasharray="1.2,0.8"/>
<line x1="46.805" y1="258.34" x2="31.637" y2="258.34" stroke="#8c8c8c" stroke-width="0.3" stroke-dasharray="1.2,0.8"/>
<line x1="31.637" y1="236.284" x2="46.805" y2="236.284" stroke="#8c8c8c" stroke-width="0.3" stroke-dasharray="1.2,0.8"/>
<line x1="31.637" y1="217.525" x2="46.805" y2="217.525" stroke="#8c8c8c" stroke-width="0.3" stroke-dasharray="1.2,0.8"/>
<line x1="46.805" y1="217.525" x2="46.805" y2="195.469" stroke="#8c8c8c" stroke-width="0.3" stroke-dasharray="1.2,0.8"/>
<line x1="12.878" y1="258.34" x2="31.637" y2="258.34" stroke="#8c8c8c" stroke-width="0.3" stroke-dasharray="1.2,0.8"/>
<line x1="12.878" y1="236.284" x2="31.637" y2="236.284" stroke="#8c8c8c" stroke-width="0.3" stroke-dasharray="1.2,0.8"/>
<line x1="46.805" y1="236.284" x2="46.805" y2="258.34" stroke="#8c8c8c" stroke-width="0.3" stroke-dasharray="1.2,0.8"/>
<line x1="46.805" y1="277.099" x2="46.805" y2="258.34" stroke="#8c8c8c" stroke-width="0.3" stroke-dasharray="1.2,0.8"/>
<line x1="46.805" y1="217.525" x2="46.805" y2="236.284" stroke="#8c8c8c" stroke-width="0.3" stroke-dasharray="1.2,0.8"/>
<line x1="12.878" y1="236.284" x2="12.878" y2="258.34" stroke="#8c8c8c" stroke-width="0.3" stroke-dasharray="1.2,0.8"/>
<line x1="46.805" y1="277.099" x2="31.637" y2="277.099" stroke="#8c8c8c" stroke-width="0.3" stroke-dasharray="1.2,0.8"/>
<line x1="31.637" y1="277.099" x2="31.637" y2="258.34" stroke="#141414" stroke-width="0.4"/>
<line x1="31.637" y1="236.284" x2="31.637" y2="217.525" stroke="#141414" stroke-width="0.4"/>
<line x1="65.564" y1="195.469" x2="65.564" y2="217.525" stroke="#141414" stroke-width="0.4"/>
<line x1="46.805" y1="195.469" x2="65.564" y2="195.469" stroke="#141414" stroke-width="0.4"/>
<line x1="65.564" y1="217.525" x2="46.805" y2="217.525" stroke="#141414" stroke-width="0.4"/>
<line x1="31.637" y1="217.525" x2="31.637" y2="195.469" stroke="#141414" stroke-width="0.4"/>
<line x1="31.637" y1="195.469" x2="46.805" y2="195.469" stroke="#141414" stroke-width="0.4"/>
<line x1="31.637" y1="258.34" x2="28.823" y2="265.34" stroke="#141414" stroke-width="0.4"/>
<line x1="28.823" y1="265.34" x2="15.692" y2="265.34" stroke="#141414" stroke-width="0.4"/>
<line x1="15.692" y1="265.34" x2="12.878" y2="258.34" stroke="#141414" stroke-width="0.4"/>
<line x1="31.637" y1="236.284" x2="28.823" y2="229.284" stroke="#141414" stroke-width="0.4"/>
<line x1="28.823" y1="229.284" x2="15.692" y2="229.284" stroke="#141414" stroke-width="0.4"/>
<line x1="15.692" y1="229.284" x2="12.878" y2="236.284" stroke="#141414" stroke-width="0.4"/>
<line x1="46.805" y1="258.34" x2="53.805" y2="255.031" stroke="#141414" stroke-width="0.4"/>
<line x1="53.805" y1="255.031" x2="53.805" y2="239.592" stroke="#141414" stroke-width="0.4"/>
<line x1="53.805" y1="239.592" x2="46.805" y2="236.284" stroke="#141414" stroke-width="0.4"/>
<line x1="46.805" y1="258.34" x2="53.805" y2="261.154" stroke="#141414" stroke-width="0.4"/>
<line x1="53.805" y1="261.154" x2="53.805" y2="274.285" stroke="#141414" stroke-width="0.4"/>
<line x1="53.805" y1="274.285" x2="46.805" y2="277.099" stroke="#141414" stroke-width="0.4"/>
<line x1="46.805" y1="236.284" x2="53.805" y2="233.47" stroke="#141414" stroke-width="0.4"/>
<line x1="53.805" y1="233.47" x2="53.805" y2="220.339" stroke="#141414" stroke-width="0.4"/>
<line x1="53.805" y1="220.339" x2="46.805" y2="217.525" stroke="#141414" stroke-width="0.4"/>
<line x1="12.878" y1="258.34" x2="5.878" y2="255.031" stroke="#141414" stroke-width="0.4"/>
<line x1="5.878" y1="255.031" x2="5.878" y2="239.592" stroke="#141414" stroke-width="0.4"/>
<line x1="5.878" y1="239.592" x2="12.878" y2="236.284" stroke="#141414" stroke-width="0.4"/>
<line x1="31.637" y1="277.099" x2="33.912" y2="284.099" stroke="#141414" stroke-width="0.4"/>
<line x1="33.912" y1="284.099" x2="44.53" y2="284.099" stroke="#141414" stroke-width="0.4"/>
<line x1="44.53" y1="284.099" x2="46.805" y2="277.099" stroke="#141414" stroke-width="0.4"/>
<circle cx="22.257" cy="261.84" r="3.05" fill="#99d9fa" stroke="#464646" stroke-width="0.2"/>
<text x="22.257" y="262.89" font-size="2.99" text-anchor="middle" fill="#141414">88</text>
<circle cx="22.257" cy="232.784" r="3.05" fill="#ffe082" stroke="#464646" stroke-width="0.2"/>
<text x="22.257" y="233.83" font-size="2.99" text-anchor="middle" fill="#141414">89</text>
<circle cx="50.305" cy="247.312" r="3.05" fill="#ffe082" stroke="#464646" stroke-width="0.2"/>
<text x="50.305" y="248.36" font-size="2.99" text-anchor="middle" fill="#141414">90</text>
<circle cx="50.305" cy="267.719" r="3.05" fill="#ffe082" stroke="#464646" stroke-width="0.2"/>
<text x="50.305" y="268.77" font-size="2.99" text-anchor="middle" fill="#141414">91</text>
<circle cx="50.305" cy="226.904" r="3.05" fill="#ffe082" stroke="#464646" stroke-width="0.2"/>
<text x="50.305" y="227.95" font-size="2.99" text-anchor="middle" fill="#141414">92</text>
<circle cx="9.378" cy="247.312" r="3.05" fill="#ffe082" stroke="#464646" stroke-width="0.2"/>
<text x="9.378" y="248.36" font-size="2.99" text-anchor="middle" fill="#141414">93</text>
<circle cx="39.221" cy="280.599" r="3.05" fill="#ffe082" stroke="#464646" stroke-width="0.2"/>
<text x="39.221" y="281.65" font-size="2.99" text-anchor="middle" fill="#141414">94</text>
<circle cx="41.749" cy="270.846" r="3.15" fill="#eaf1fe" stroke="#2e78e6" stroke-width="0.3"/>
<text x="41.749" y="272.08" font-size="3.56" text-anchor="middle" fill="#14306e" font-weight="bold">10</text>
<polygon points="94.323,258.34 91.509,265.34 78.378,265.34 75.564,258.34" fill="rgb(216,216,216)"/>
<polygon points="94.323,236.284 91.509,229.284 78.378,229.284 75.564,236.284" fill="rgb(216,216,216)"/>
<polygon points="109.491,258.34 116.491,255.031 116.491,239.592 109.491,236.284" fill="rgb(216,216,216)"/>
<polygon points="109.491,258.34 116.491,261.154 116.491,274.285 109.491,277.099" fill="rgb(216,216,216)"/>
<polygon points="109.491,236.284 116.491,233.47 116.491,220.339 109.491,217.525" fill="rgb(216,216,216)"/>
<polygon points="75.564,258.34 68.564,255.031 68.564,239.592 75.564,236.284" fill="rgb(216,216,216)"/>
<polygon points="94.323,277.099 96.598,284.099 107.216,284.099 109.491,277.099" fill="rgb(216,216,216)"/>
<polygon points="94.323,258.34 91.509,265.34 78.378,265.34 75.564,258.34" fill="#99d9fa"/>
<line x1="94.323" y1="258.34" x2="94.323" y2="236.284" stroke="#8c8c8c" stroke-width="0.3" stroke-dasharray="1.2,0.8"/>
<line x1="109.491" y1="258.34" x2="94.323" y2="258.34" stroke="#8c8c8c" stroke-width="0.3" stroke-dasharray="1.2,0.8"/>
<line x1="94.323" y1="236.284" x2="109.491" y2="236.284" stroke="#8c8c8c" stroke-width="0.3" stroke-dasharray="1.2,0.8"/>
<line x1="94.323" y1="217.525" x2="109.491" y2="217.525" stroke="#8c8c8c" stroke-width="0.3" stroke-dasharray="1.2,0.8"/>
<line x1="109.491" y1="217.525" x2="109.491" y2="195.469" stroke="#8c8c8c" stroke-width="0.3" stroke-dasharray="1.2,0.8"/>
<line x1="75.564" y1="258.34" x2="94.323" y2="258.34" stroke="#8c8c8c" stroke-width="0.3" stroke-dasharray="1.2,0.8"/>
<line x1="75.564" y1="236.284" x2="94.323" y2="236.284" stroke="#8c8c8c" stroke-width="0.3" stroke-dasharray="1.2,0.8"/>
<line x1="109.491" y1="236.284" x2="109.491" y2="258.34" stroke="#8c8c8c" stroke-width="0.3" stroke-dasharray="1.2,0.8"/>
<line x1="109.491" y1="277.099" x2="109.491" y2="258.34" stroke="#8c8c8c" stroke-width="0.3" stroke-dasharray="1.2,0.8"/>
<line x1="109.491" y1="217.525" x2="109.491" y2="236.284" stroke="#8c8c8c" stroke-width="0.3" stroke-dasharray="1.2,0.8"/>
<line x1="75.564" y1="236.284" x2="75.564" y2="258.34" stroke="#8c8c8c" stroke-width="0.3" stroke-dasharray="1.2,0.8"/>
<line x1="109.491" y1="277.099" x2="94.323" y2="277.099" stroke="#8c8c8c" stroke-width="0.3" stroke-dasharray="1.2,0.8"/>
<line x1="94.323" y1="277.099" x2="94.323" y2="258.34" stroke="#141414" stroke-width="0.4"/>
<line x1="94.323" y1="236.284" x2="94.323" y2="217.525" stroke="#141414" stroke-width="0.4"/>
<line x1="128.25" y1="195.469" x2="128.25" y2="217.525" stroke="#141414" stroke-width="0.4"/>
<line x1="109.491" y1="195.469" x2="128.25" y2="195.469" stroke="#141414" stroke-width="0.4"/>
<line x1="128.25" y1="217.525" x2="109.491" y2="217.525" stroke="#141414" stroke-width="0.4"/>
<line x1="94.323" y1="217.525" x2="94.323" y2="195.469" stroke="#141414" stroke-width="0.4"/>
<line x1="94.323" y1="195.469" x2="109.491" y2="195.469" stroke="#141414" stroke-width="0.4"/>
<line x1="94.323" y1="258.34" x2="91.509" y2="265.34" stroke="#141414" stroke-width="0.4"/>
<line x1="91.509" y1="265.34" x2="78.378" y2="265.34" stroke="#141414" stroke-width="0.4"/>
<line x1="78.378" y1="265.34" x2="75.564" y2="258.34" stroke="#141414" stroke-width="0.4"/>
<line x1="94.323" y1="236.284" x2="91.509" y2="229.284" stroke="#141414" stroke-width="0.4"/>
<line x1="91.509" y1="229.284" x2="78.378" y2="229.284" stroke="#141414" stroke-width="0.4"/>
<line x1="78.378" y1="229.284" x2="75.564" y2="236.284" stroke="#141414" stroke-width="0.4"/>
<line x1="109.491" y1="258.34" x2="116.491" y2="255.031" stroke="#141414" stroke-width="0.4"/>
<line x1="116.491" y1="255.031" x2="116.491" y2="239.592" stroke="#141414" stroke-width="0.4"/>
<line x1="116.491" y1="239.592" x2="109.491" y2="236.284" stroke="#141414" stroke-width="0.4"/>
<line x1="109.491" y1="258.34" x2="116.491" y2="261.154" stroke="#141414" stroke-width="0.4"/>
<line x1="116.491" y1="261.154" x2="116.491" y2="274.285" stroke="#141414" stroke-width="0.4"/>
<line x1="116.491" y1="274.285" x2="109.491" y2="277.099" stroke="#141414" stroke-width="0.4"/>
<line x1="109.491" y1="236.284" x2="116.491" y2="233.47" stroke="#141414" stroke-width="0.4"/>
<line x1="116.491" y1="233.47" x2="116.491" y2="220.339" stroke="#141414" stroke-width="0.4"/>
<line x1="116.491" y1="220.339" x2="109.491" y2="217.525" stroke="#141414" stroke-width="0.4"/>
<line x1="75.564" y1="258.34" x2="68.564" y2="255.031" stroke="#141414" stroke-width="0.4"/>
<line x1="68.564" y1="255.031" x2="68.564" y2="239.592" stroke="#141414" stroke-width="0.4"/>
<line x1="68.564" y1="239.592" x2="75.564" y2="236.284" stroke="#141414" stroke-width="0.4"/>
<line x1="94.323" y1="277.099" x2="96.598" y2="284.099" stroke="#141414" stroke-width="0.4"/>
<line x1="96.598" y1="284.099" x2="107.216" y2="284.099" stroke="#141414" stroke-width="0.4"/>
<line x1="107.216" y1="284.099" x2="109.491" y2="277.099" stroke="#141414" stroke-width="0.4"/>
<circle cx="84.944" cy="261.84" r="3.05" fill="#99d9fa" stroke="#464646" stroke-width="0.2"/>
<text x="84.944" y="262.89" font-size="2.99" text-anchor="middle" fill="#141414">95</text>
<circle cx="84.944" cy="232.784" r="3.05" fill="#ffe082" stroke="#464646" stroke-width="0.2"/>
<text x="84.944" y="233.83" font-size="2.99" text-anchor="middle" fill="#141414">96</text>
<circle cx="112.991" cy="247.312" r="3.05" fill="#ffe082" stroke="#464646" stroke-width="0.2"/>
<text x="112.991" y="248.36" font-size="2.99" text-anchor="middle" fill="#141414">97</text>
<circle cx="112.991" cy="267.719" r="3.05" fill="#ffe082" stroke="#464646" stroke-width="0.2"/>
<text x="112.991" y="268.77" font-size="2.99" text-anchor="middle" fill="#141414">98</text>
<circle cx="112.991" cy="226.904" r="3.05" fill="#ffe082" stroke="#464646" stroke-width="0.2"/>
<text x="112.991" y="227.95" font-size="2.99" text-anchor="middle" fill="#141414">99</text>
<circle cx="72.064" cy="247.312" r="3.05" fill="#ffe082" stroke="#464646" stroke-width="0.2"/>
<text x="72.064" y="248.36" font-size="2.99" text-anchor="middle" fill="#141414">100</text>
<circle cx="101.907" cy="280.599" r="3.05" fill="#ffe082" stroke="#464646" stroke-width="0.2"/>
<text x="101.907" y="281.65" font-size="2.99" text-anchor="middle" fill="#141414">101</text>
<circle cx="104.435" cy="270.846" r="3.15" fill="#eaf1fe" stroke="#2e78e6" stroke-width="0.3"/>
<text x="104.435" y="272.08" font-size="3.56" text-anchor="middle" fill="#14306e" font-weight="bold">11</text>
<text x="205.0" y="295.0" font-size="3.2" text-anchor="end" fill="#737373" font-family="sans-serif">4 / 6</text>
</svg>
