<svg xmlns="http://www.w3.org/2000/svg" xmlns:xlink="http://www.w3.org/1999/xlink" width="210.00mm" height="297.00mm" viewBox="0 0 210.00 297.00">
<rect x="0" y="0" width="210.00" height="297.00" fill="#ffffff" stroke="#cccccc" stroke-width="0.2"/>
<polygon points="99.338,119.336 86.223,126.336 25.02,126.336 11.905,119.336" fill="rgb(216,216,216)"/>
<polygon points="99.338,105.884 86.223,98.884 25.02,98.884 11.905,105.884" fill="rgb(216,216,216)"/>
<polygon points="109.972,119.336 116.698,117.318 116.698,107.902 109.972,105.884" fill="rgb(216,216,216)"/>
<polygon points="109.972,119.336 116.972,132.451 116.972,193.654 109.972,206.769" fill="rgb(216,216,216)"/>
<polygon points="109.972,105.884 116.972,92.769 116.972,31.566 109.972,18.451" fill="rgb(216,216,216)"/>
<polygon points="11.905,119.336 5.179,117.318 5.179,107.902 11.905,105.884" fill="rgb(216,216,216)"/>
<polygon points="99.338,206.769 100.933,212.086 108.377,212.086 109.972,206.769" fill="rgb(216,216,216)"/>
<polygon points="99.338,119.336 86.223,126.336 25.02,126.336 11.905,119.336" fill="#99d9fa"/>
<line x1="99.338" y1="119.336" x2="99.338" y2="105.884" stroke="#8c8c8c" stroke-width="0.3" stroke-dasharray="1.2,0.8"/>
<line x1="109.972" y1="119.336" x2="99.338" y2="119.336" stroke="#8c8c8c" stroke-width="0.3" stroke-dasharray="1.2,0.8"/>
<line x1="99.338" y1="105.884" x2="109.972" y2="105.884" stroke="#8c8c8c" stroke-width="0.3" stroke-dasharray="1.2,0.8"/>
<line x1="99.338" y1="18.451" x2="109.972" y2="18.451" stroke="#8c8c8c" stroke-width="0.3" stroke-dasharray="1.2,0.8"/>
<line x1="109.972" y1="18.451" x2="109.972" y2="5.0" stroke="#8c8c8c" stroke-width="0.3" stroke-dasharray="1.2,0.8"/>
<line x1="11.905" y1="119.336" x2="99.338" y2="119.336" stroke="#8c8c8c" stroke-width="0.3" stroke-dasharray="1.2,0.8"/>
<line x1="11.905" y1="105.884" x2="99.338" y2="105.884" stroke="#8c8c8c" stroke-width="0.3" stroke-dasharray="1.2,0.8"/>
<line x1="109.972" y1="105.884" x2="109.972" y2="119.336" stroke="#8c8c8c" stroke-width="0.3" stroke-dasharray="1.2,0.8"/>
<line x1="109.972" y1="206.769" x2="109.972" y2="119.336" stroke="#8c8c8c" stroke-width="0.3" stroke-dasharray="1.2,0.8"/>
<line x1="109.972" y1="18.451" x2="109.972" y2="105.884" stroke="#8c8c8c" stroke-width="0.3" stroke-dasharray="1.2,0.8"/>
<line x1="11.905" y1="105.884" x2="11.905" y2="119.336" stroke="#8c8c8c" stroke-width="0.3" stroke-dasharray="1.2,0.8"/>
<line x1="109.972" y1="206.769" x2="99.338" y2="206.769" stroke="#8c8c8c" stroke-width="0.3" stroke-dasharray="1.2,0.8"/>
<line x1="99.338" y1="206.769" x2="99.338" y2="119.336" stroke="#141414" stroke-width="0.4"/>
<line x1="99.338" y1="105.884" x2="99.338" y2="18.451" stroke="#141414" stroke-width="0.4"/>
<line x1="197.405" y1="5.0" x2="197.405" y2="18.451" stroke="#141414" stroke-width="0.4"/>
<line x1="109.972" y1="5.0" x2="197.405" y2="5.0" stroke="#141414" stroke-width="0.4"/>
<line x1="197.405" y1="18.451" x2="109.972" y2="18.451" stroke="#141414" stroke-width="0.4"/>
<line x1="99.338" y1="18.451" x2="99.338" y2="5.0" stroke="#141414" stroke-width="0.4"/>
<line x1="99.338" y1="5.0" x2="109.972" y2="5.0" stroke="#141414" stroke-width="0.4"/>
<line x1="99.338" y1="119.336" x2="86.223" y2="126.336" stroke="#141414" stroke-width="0.4"/>
<line x1="86.223" y1="126.336" x2="25.02" y2="126.336" stroke="#141414" stroke-width="0.4"/>
<line x1="25.02" y1="126.336" x2="11.905" y2="119.336" stroke="#141414" stroke-width="0.4"/>
<line x1="99.338" y1="105.884" x2="86.223" y2="98.884" stroke="#141414" stroke-width="0.4"/>
<line x1="86.223" y1="98.884" x2="25.02" y2="98.884" stroke="#141414" stroke-width="0.4"/>
<line x1="25.02" y1="98.884" x2="11.905" y2="105.884" stroke="#141414" stroke-width="0.4"/>
<line x1="109.972" y1="119.336" x2="116.698" y2="117.318" stroke="#141414" stroke-width="0.4"/>
<line x1="116.698" y1="117.318" x2="116.698" y2="107.902" stroke="#141414" stroke-width="0.4"/>
<line x1="116.698" y1="107.902" x2="109.972" y2="105.884" stroke="#141414" stroke-width="0.4"/>
<line x1="109.972" y1="119.336" x2="116.972" y2="132.451" stroke="#141414" stroke-width="0.4"/>
<line x1="116.972" y1="132.451" x2="116.972" y2="193.654" stroke="#141414" stroke-width="0.4"/>
<line x1="116.972" y1="193.654" x2="109.972" y2="206.769" stroke="#141414" stroke-width="0.4"/>
<line x1="109.972" y1="105.884" x2="116.972" y2="92.769" stroke="#141414" stroke-width="0.4"/>
<line x1="116.972" y1="92.769" x2="116.972" y2="31.566" stroke="#141414" stroke-width="0.4"/>
<line x1="116.972" y1="31.566" x2="109.972" y2="18.451" stroke="#141414" stroke-width="0.4"/>
<line x1="11.905" y1="119.336" x2="5.179" y2="117.318" stroke="#141414" stroke-width="0.4"/>
<line x1="5.179" y1="117.318" x2="5.179" y2="107.902" stroke="#141414" stroke-width="0.4"/>
<line x1="5.179" y1="107.902" x2="11.905" y2="105.884" stroke="#141414" stroke-width="0.4"/>
<line x1="99.338" y1="206.769" x2="100.933" y2="212.086" stroke="#141414" stroke-width="0.4"/>
<line x1="100.933" y1="212.086" x2="108.377" y2="212.086" stroke="#141414" stroke-width="0.4"/>
<line x1="108.377" y1="212.086" x2="109.972" y2="206.769" stroke="#141414" stroke-width="0.4"/>
<circle cx="55.622" cy="122.836" r="2.34" fill="#99d9fa" stroke="#464646" stroke-width="0.2"/>
<text x="55.622" y="123.64" font-size="2.29" text-anchor="middle" fill="#141414">16</text>
<circle cx="55.622" cy="102.384" r="2.34" fill="#ffe082" stroke="#464646" stroke-width="0.2"/>
<text x="55.622" y="103.19" font-size="2.29" text-anchor="middle" fill="#141414">17</text>
<circle cx="113.335" cy="112.61" r="2.34" fill="#ffe082" stroke="#464646" stroke-width="0.2"/>
<text x="113.335" y="113.41" font-size="2.29" text-anchor="middle" fill="#141414">18</text>
<circle cx="113.472" cy="163.052" r="2.34" fill="#ffe082" stroke="#464646" stroke-width="0.2"/>
<text x="113.472" y="163.85" font-size="2.29" text-anchor="middle" fill="#141414">19</text>
<circle cx="113.472" cy="62.168" r="2.34" fill="#ffe082" stroke="#464646" stroke-width="0.2"/>
<text x="113.472" y="62.97" font-size="2.29" text-anchor="middle" fill="#141414">20</text>
<circle cx="8.542" cy="112.61" r="2.34" fill="#ffe082" stroke="#464646" stroke-width="0.2"/>
<text x="8.542" y="113.41" font-size="2.29" text-anchor="middle" fill="#141414">21</text>
<circle cx="104.655" cy="209.427" r="2.34" fill="#ffe082" stroke="#464646" stroke-width="0.2"/>
<text x="104.655" y="210.23" font-size="2.29" text-anchor="middle" fill="#141414">22</text>
<circle cx="106.427" cy="177.625" r="2.81" fill="#eaf1fe" stroke="#2e78e6" stroke-width="0.3"/>
<text x="106.427" y="178.73" font-size="3.18" text-anchor="middle" fill="#14306e" font-weight="bold">4</text>
<text x="205.0" y="295.0" font-size="3.2" text-anchor="end" fill="#737373" font-family="sans-serif">4 / 10</text>
</svg>
