<svg xmlns="http://www.w3.org/2000/svg" xmlns:xlink="http://www.w3.org/1999/xlink" width="210.00mm" height="297.00mm" viewBox="0 0 210.00 297.00">
<rect x="0" y="0" width="210.00" height="297.00" fill="#ffffff" stroke="#cccccc" stroke-width="0.2"/>
<polygon points="60.877,32.309 57.721,22.728 58.922,20.236 68.38,16.729" fill="rgb(216,216,216)"/>
<polygon points="28.475,50.094 19.839,48.846 18.712,47.03 21.432,38.739" fill="rgb(216,216,216)"/>
<polygon points="68.38,47.89 73.903,56.331 76.601,56.946 85.239,51.738" fill="rgb(216,216,216)"/>
<polygon points="34.273,62.134 29.864,69.663 30.582,71.678 38.76,74.721" fill="rgb(216,216,216)"/>
<polygon points="85.239,51.738 91.632,55.593 101.096,48.046 98.76,40.956" fill="rgb(216,216,216)"/>
<polygon points="38.76,74.721 32.733,78.232 34.92,87.327 41.885,87.713" fill="rgb(216,216,216)"/>
<polygon points="98.76,40.956 105.76,38.362 105.76,26.257 98.76,23.663" fill="rgb(216,216,216)"/>
<polygon points="41.885,87.713 35.519,90.564 36.728,99.84 43.612,100.964" fill="rgb(216,216,216)"/>
<polygon points="98.76,23.663 101.096,16.573 91.632,9.025 85.239,12.881" fill="rgb(216,216,216)"/>
<polygon points="43.612,100.964 36.979,103.123 37.197,112.475 43.923,114.323" fill="rgb(216,216,216)"/>
<polygon points="85.239,12.881 81.153,6.634 69.351,9.327 68.38,16.729" fill="rgb(216,216,216)"/>
<polygon points="43.923,114.323 37.099,115.766 36.322,125.087 42.814,127.639" fill="rgb(216,216,216)"/>
<polygon points="79.433,132.662 72.989,138.844 47.355,135.328 42.814,127.639" fill="rgb(216,216,216)"/>
<line x1="28.475" y1="50.094" x2="60.877" y2="32.309" stroke="#8c8c8c" stroke-width="0.3" stroke-dasharray="1.2,0.8"/>
<line x1="68.38" y1="47.89" x2="60.877" y2="32.309" stroke="#8c8c8c" stroke-width="0.3" stroke-dasharray="1.2,0.8"/>
<line x1="34.273" y1="62.134" x2="28.475" y2="50.094" stroke="#8c8c8c" stroke-width="0.3" stroke-dasharray="1.2,0.8"/>
<line x1="68.38" y1="47.89" x2="34.273" y2="62.134" stroke="#8c8c8c" stroke-width="0.3" stroke-dasharray="1.2,0.8"/>
<line x1="74.186" y1="64.179" x2="38.76" y2="74.721" stroke="#8c8c8c" stroke-width="0.3" stroke-dasharray="1.2,0.8"/>
<line x1="78.23" y1="80.992" x2="41.885" y2="87.713" stroke="#8c8c8c" stroke-width="0.3" stroke-dasharray="1.2,0.8"/>
<line x1="80.466" y1="98.14" x2="43.612" y2="100.964" stroke="#8c8c8c" stroke-width="0.3" stroke-dasharray="1.2,0.8"/>
<line x1="80.868" y1="115.429" x2="43.923" y2="114.323" stroke="#8c8c8c" stroke-width="0.3" stroke-dasharray="1.2,0.8"/>
<line x1="68.38" y1="16.729" x2="60.877" y2="32.309" stroke="#8c8c8c" stroke-width="0.3" stroke-dasharray="1.2,0.8"/>
<line x1="21.432" y1="38.739" x2="28.475" y2="50.094" stroke="#8c8c8c" stroke-width="0.3" stroke-dasharray="1.2,0.8"/>
<line x1="85.239" y1="51.738" x2="68.38" y2="47.89" stroke="#8c8c8c" stroke-width="0.3" stroke-dasharray="1.2,0.8"/>
<line x1="38.76" y1="74.721" x2="34.273" y2="62.134" stroke="#8c8c8c" stroke-width="0.3" stroke-dasharray="1.2,0.8"/>
<line x1="98.76" y1="40.956" x2="85.239" y2="51.738" stroke="#8c8c8c" stroke-width="0.3" stroke-dasharray="1.2,0.8"/>
<line x1="41.885" y1="87.713" x2="38.76" y2="74.721" stroke="#8c8c8c" stroke-width="0.3" stroke-dasharray="1.2,0.8"/>
<line x1="98.76" y1="23.663" x2="98.76" y2="40.956" stroke="#8c8c8c" stroke-width="0.3" stroke-dasharray="1.2,0.8"/>
<line x1="43.612" y1="100.964" x2="41.885" y2="87.713" stroke="#8c8c8c" stroke-width="0.3" stroke-dasharray="1.2,0.8"/>
<line x1="85.239" y1="12.881" x2="98.76" y2="23.663" stroke="#8c8c8c" stroke-width="0.3" stroke-dasharray="1.2,0.8"/>
<line x1="43.923" y1="114.323" x2="43.612" y2="100.964" stroke="#8c8c8c" stroke-width="0.3" stroke-dasharray="1.2,0.8"/>
<line x1="68.38" y1="16.729" x2="85.239" y2="12.881" stroke="#8c8c8c" stroke-width="0.3" stroke-dasharray="1.2,0.8"/>
<line x1="42.814" y1="127.639" x2="43.923" y2="114.323" stroke="#8c8c8c" stroke-width="0.3" stroke-dasharray="1.2,0.8"/>
<line x1="42.814" y1="127.639" x2="79.433" y2="132.662" stroke="#8c8c8c" stroke-width="0.3" stroke-dasharray="1.2,0.8"/>
<line x1="51.762" y1="17.614" x2="60.877" y2="32.309" stroke="#141414" stroke-width="0.4"/>
<line x1="15.447" y1="47.121" x2="28.475" y2="50.094" stroke="#141414" stroke-width="0.4"/>
<line x1="68.38" y1="47.89" x2="74.186" y2="64.179" stroke="#141414" stroke-width="0.4"/>
<line x1="34.273" y1="62.134" x2="28.475" y2="74.173" stroke="#141414" stroke-width="0.4"/>
<line x1="74.186" y1="64.179" x2="78.23" y2="80.992" stroke="#141414" stroke-width="0.4"/>
<line x1="28.475" y1="74.173" x2="15.447" y2="77.147" stroke="#141414" stroke-width="0.4"/>
<line x1="78.23" y1="80.992" x2="80.466" y2="98.14" stroke="#141414" stroke-width="0.4"/>
<line x1="15.447" y1="77.147" x2="5.0" y2="68.815" stroke="#141414" stroke-width="0.4"/>
<line x1="80.466" y1="98.14" x2="80.868" y2="115.429" stroke="#141414" stroke-width="0.4"/>
<line x1="5.0" y1="68.815" x2="5.0" y2="55.452" stroke="#141414" stroke-width="0.4"/>
<line x1="80.868" y1="115.429" x2="79.433" y2="132.662" stroke="#141414" stroke-width="0.4"/>
<line x1="5.0" y1="55.452" x2="15.447" y2="47.121" stroke="#141414" stroke-width="0.4"/>
<line x1="21.432" y1="38.739" x2="51.762" y2="17.614" stroke="#141414" stroke-width="0.4"/>
<line x1="60.877" y1="32.309" x2="57.721" y2="22.728" stroke="#141414" stroke-width="0.4"/>
<line x1="57.721" y1="22.728" x2="58.922" y2="20.236" stroke="#141414" stroke-width="0.4"/>
<line x1="58.922" y1="20.236" x2="68.38" y2="16.729" stroke="#141414" stroke-width="0.4"/>
<line x1="28.475" y1="50.094" x2="19.839" y2="48.846" stroke="#141414" stroke-width="0.4"/>
<line x1="19.839" y1="48.846" x2="18.712" y2="47.03" stroke="#141414" stroke-width="0.4"/>
<line x1="18.712" y1="47.03" x2="21.432" y2="38.739" stroke="#141414" stroke-width="0.4"/>
<line x1="68.38" y1="47.89" x2="73.903" y2="56.331" stroke="#141414" stroke-width="0.4"/>
<line x1="73.903" y1="56.331" x2="76.601" y2="56.946" stroke="#141414" stroke-width="0.4"/>
<line x1="76.601" y1="56.946" x2="85.239" y2="51.738" stroke="#141414" stroke-width="0.4"/>
<line x1="34.273" y1="62.134" x2="29.864" y2="69.663" stroke="#141414" stroke-width="0.4"/>
<line x1="29.864" y1="69.663" x2="30.582" y2="71.678" stroke="#141414" stroke-width="0.4"/>
<line x1="30.582" y1="71.678" x2="38.76" y2="74.721" stroke="#141414" stroke-width="0.4"/>
<line x1="85.239" y1="51.738" x2="91.632" y2="55.593" stroke="#141414" stroke-width="0.4"/>
<line x1="91.632" y1="55.593" x2="101.096" y2="48.046" stroke="#141414" stroke-width="0.4"/>
<line x1="101.096" y1="48.046" x2="98.76" y2="40.956" stroke="#141414" stroke-width="0.4"/>
<line x1="38.76" y1="74.721" x2="32.733" y2="78.232" stroke="#141414" stroke-width="0.4"/>
<line x1="32.733" y1="78.232" x2="34.92" y2="87.327" stroke="#141414" stroke-width="0.4"/>
<line x1="34.92" y1="87.327" x2="41.885" y2="87.713" stroke="#141414" stroke-width="0.4"/>
<line x1="98.76" y1="40.956" x2="105.76" y2="38.362" stroke="#141414" stroke-width="0.4"/>
<line x1="105.76" y1="38.362" x2="105.76" y2="26.257" stroke="#141414" stroke-width="0.4"/>
<line x1="105.76" y1="26.257" x2="98.76" y2="23.663" stroke="#141414" stroke-width="0.4"/>
<line x1="41.885" y1="87.713" x2="35.519" y2="90.564" stroke="#141414" stroke-width="0.4"/>
<line x1="35.519" y1="90.564" x2="36.728" y2="99.84" stroke="#141414" stroke-width="0.4"/>
<line x1="36.728" y1="99.84" x2="43.612" y2="100.964" stroke="#141414" stroke-width="0.4"/>
<line x1="98.76" y1="23.663" x2="101.096" y2="16.573" stroke="#141414" stroke-width="0.4"/>
<line x1="101.096" y1="16.573" x2="91.632" y2="9.025" stroke="#141414" stroke-width="0.4"/>
<line x1="91.632" y1="9.025" x2="85.239" y2="12.881" stroke="#141414" stroke-width="0.4"/>
<line x1="43.612" y1="100.964" x2="36.979" y2="103.123" stroke="#141414" stroke-width="0.4"/>
<line x1="36.979" y1="103.123" x2="37.197" y2="112.475" stroke="#141414" stroke-width="0.4"/>
<line x1="37.197" y1="112.475" x2="43.923" y2="114.323" stroke="#141414" stroke-width="0.4"/>
<line x1="85.239" y1="12.881" x2="81.153" y2="6.634" stroke="#141414" stroke-width="0.4"/>
<line x1="81.153" y1="6.634" x2="69.351" y2="9.327" stroke="#141414" stroke-width="0.4"/>
<line x1="69.351" y1="9.327" x2="68.38" y2="16.729" stroke="#141414" stroke-width="0.4"/>
<line x1="43.923" y1="114.323" x2="37.099" y2="115.766" stroke="#141414" stroke-width="0.4"/>
<line x1="37.099" y1="115.766" x2="36.322" y2="125.087" stroke="#141414" stroke-width="0.4"/>
<line x1="36.322" y1="125.087" x2="42.814" y2="127.639" stroke="#141414" stroke-width="0.4"/>
<line x1="79.433" y1="132.662" x2="72.989" y2="138.844" stroke="#141414" stroke-width="0.4"/>
<line x1="72.989" y1="138.844" x2="47.355" y2="135.328" stroke="#141414" stroke-width="0.4"/>
<line x1="47.355" y1="135.328" x2="42.814" y2="127.639" stroke="#141414" stroke-width="0.4"/>
<circle cx="61.475" cy="23.001" r="1.72" fill="#ffe082" stroke="#464646" stroke-width="0.2"/>
<text x="61.475" y="23.59" font-size="1.69" text-anchor="middle" fill="#141414">118</text>
<circle cx="22.115" cy="46.177" r="1.72" fill="#ffe082" stroke="#464646" stroke-width="0.2"/>
<text x="22.115" y="46.77" font-size="1.69" text-anchor="middle" fill="#141414">119</text>
<circle cx="76.031" cy="53.226" r="1.72" fill="#ffe082" stroke="#464646" stroke-width="0.2"/>
<text x="76.031" y="53.82" font-size="1.69" text-anchor="middle" fill="#141414">120</text>
<circle cx="33.37" cy="69.549" r="1.72" fill="#ffe082" stroke="#464646" stroke-width="0.2"/>
<text x="33.37" y="70.14" font-size="1.69" text-anchor="middle" fill="#141414">121</text>
<circle cx="94.182" cy="49.083" r="1.72" fill="#ffe082" stroke="#464646" stroke-width="0.2"/>
<text x="94.182" y="49.67" font-size="1.69" text-anchor="middle" fill="#141414">122</text>
<circle cx="37.074" cy="81.998" r="1.72" fill="#ffe082" stroke="#464646" stroke-width="0.2"/>
<text x="37.074" y="82.59" font-size="1.69" text-anchor="middle" fill="#141414">123</text>
<circle cx="102.26" cy="32.309" r="1.72" fill="#ffe082" stroke="#464646" stroke-width="0.2"/>
<text x="102.26" y="32.90" font-size="1.69" text-anchor="middle" fill="#141414">124</text>
<circle cx="39.436" cy="94.77" r="1.72" fill="#ffe082" stroke="#464646" stroke-width="0.2"/>
<text x="39.436" y="95.36" font-size="1.69" text-anchor="middle" fill="#141414">125</text>
<circle cx="94.182" cy="15.535" r="1.72" fill="#ffe082" stroke="#464646" stroke-width="0.2"/>
<text x="94.182" y="16.13" font-size="1.69" text-anchor="middle" fill="#141414">126</text>
<circle cx="40.428" cy="107.721" r="1.72" fill="#ffe082" stroke="#464646" stroke-width="0.2"/>
<text x="40.428" y="108.31" font-size="1.69" text-anchor="middle" fill="#141414">127</text>
<circle cx="76.031" cy="11.393" r="1.72" fill="#ffe082" stroke="#464646" stroke-width="0.2"/>
<text x="76.031" y="11.98" font-size="1.69" text-anchor="middle" fill="#141414">128</text>
<circle cx="40.039" cy="120.704" r="1.72" fill="#ffe082" stroke="#464646" stroke-width="0.2"/>
<text x="40.039" y="121.29" font-size="1.69" text-anchor="middle" fill="#141414">129</text>
<circle cx="60.648" cy="133.618" r="1.72" fill="#ffe082" stroke="#464646" stroke-width="0.2"/>
<text x="60.648" y="134.21" font-size="1.69" text-anchor="middle" fill="#141414">130</text>
<circle cx="55.38" cy="143.31" r="4.6" fill="#eaf1fe" stroke="#2e78e6" stroke-width="0.3"/>
<text x="55.38" y="145.11" font-size="5.2" text-anchor="middle" fill="#14306e" font-weight="bold">10</text>
<polygon points="64.996,165.806 61.554,156.82 62.646,154.553 71.817,151.642" fill="rgb(216,216,216)"/>
<polygon points="21.571,190.208 15.578,189.608 14.142,187.392 16.44,182.293" fill="rgb(216,216,216)"/>
<polygon points="71.817,179.97 76.697,188.264 79.149,188.823 87.144,183.468" fill="rgb(216,216,216)"/>
<polygon points="25.663,198.707 22.396,203.766 23.233,206.27 28.653,207.653" fill="rgb(216,216,216)"/>
<polygon points="87.144,183.468 93.352,187.471 101.956,180.609 99.435,173.666" fill="rgb(216,216,216)"/>
<polygon points="28.653,207.653 24.303,209.96 25.589,216.436 30.491,216.905" fill="rgb(216,216,216)"/>
<polygon points="99.435,173.666 106.435,171.308 106.435,160.303 99.435,157.945" fill="rgb(216,216,216)"/>
<polygon points="30.491,216.905 25.885,218.645 26.346,225.232 31.149,226.314" fill="rgb(216,216,216)"/>
<polygon points="99.435,157.945 101.956,151.002 93.352,144.141 87.144,148.143" fill="rgb(216,216,216)"/>
<polygon points="31.149,226.314 26.36,227.46 25.988,234.053 30.616,235.732" fill="rgb(216,216,216)"/>
<polygon points="87.144,148.143 83.287,141.844 72.559,144.293 71.817,151.642" fill="rgb(216,216,216)"/>
<polygon points="30.616,235.732 25.721,236.266 24.521,242.758 28.902,245.007" fill="rgb(216,216,216)"/>
<polygon points="77.214,257.137 68.263,262.107 34.444,253.616 28.902,245.007" fill="rgb(216,216,216)"/>
<line x1="21.571" y1="190.208" x2="64.996" y2="165.806" stroke="#8c8c8c" stroke-width="0.3" stroke-dasharray="1.2,0.8"/>
<line x1="71.817" y1="179.97" x2="64.996" y2="165.806" stroke="#8c8c8c" stroke-width="0.3" stroke-dasharray="1.2,0.8"/>
<line x1="25.663" y1="198.707" x2="21.571" y2="190.208" stroke="#8c8c8c" stroke-width="0.3" stroke-dasharray="1.2,0.8"/>
<line x1="71.817" y1="179.97" x2="25.663" y2="198.707" stroke="#8c8c8c" stroke-width="0.3" stroke-dasharray="1.2,0.8"/>
<line x1="76.799" y1="194.88" x2="28.653" y2="207.653" stroke="#8c8c8c" stroke-width="0.3" stroke-dasharray="1.2,0.8"/>
<line x1="79.863" y1="210.3" x2="30.491" y2="216.905" stroke="#8c8c8c" stroke-width="0.3" stroke-dasharray="1.2,0.8"/>
<line x1="80.96" y1="225.982" x2="31.149" y2="226.314" stroke="#8c8c8c" stroke-width="0.3" stroke-dasharray="1.2,0.8"/>
<line x1="80.072" y1="241.678" x2="30.616" y2="235.732" stroke="#8c8c8c" stroke-width="0.3" stroke-dasharray="1.2,0.8"/>
<line x1="71.817" y1="151.642" x2="64.996" y2="165.806" stroke="#8c8c8c" stroke-width="0.3" stroke-dasharray="1.2,0.8"/>
<line x1="16.44" y1="182.293" x2="21.571" y2="190.208" stroke="#8c8c8c" stroke-width="0.3" stroke-dasharray="1.2,0.8"/>
<line x1="87.144" y1="183.468" x2="71.817" y2="179.97" stroke="#8c8c8c" stroke-width="0.3" stroke-dasharray="1.2,0.8"/>
<line x1="28.653" y1="207.653" x2="25.663" y2="198.707" stroke="#8c8c8c" stroke-width="0.3" stroke-dasharray="1.2,0.8"/>
<line x1="99.435" y1="173.666" x2="87.144" y2="183.468" stroke="#8c8c8c" stroke-width="0.3" stroke-dasharray="1.2,0.8"/>
<line x1="30.491" y1="216.905" x2="28.653" y2="207.653" stroke="#8c8c8c" stroke-width="0.3" stroke-dasharray="1.2,0.8"/>
<line x1="99.435" y1="157.945" x2="99.435" y2="173.666" stroke="#8c8c8c" stroke-width="0.3" stroke-dasharray="1.2,0.8"/>
<line x1="31.149" y1="226.314" x2="30.491" y2="216.905" stroke="#8c8c8c" stroke-width="0.3" stroke-dasharray="1.2,0.8"/>
<line x1="87.144" y1="148.143" x2="99.435" y2="157.945" stroke="#8c8c8c" stroke-width="0.3" stroke-dasharray="1.2,0.8"/>
<line x1="30.616" y1="235.732" x2="31.149" y2="226.314" stroke="#8c8c8c" stroke-width="0.3" stroke-dasharray="1.2,0.8"/>
<line x1="71.817" y1="151.642" x2="87.144" y2="148.143" stroke="#8c8c8c" stroke-width="0.3" stroke-dasharray="1.2,0.8"/>
<line x1="28.902" y1="245.007" x2="30.616" y2="235.732" stroke="#8c8c8c" stroke-width="0.3" stroke-dasharray="1.2,0.8"/>
<line x1="28.902" y1="245.007" x2="77.214" y2="257.137" stroke="#8c8c8c" stroke-width="0.3" stroke-dasharray="1.2,0.8"/>
<line x1="56.445" y1="152.614" x2="64.996" y2="165.806" stroke="#141414" stroke-width="0.4"/>
<line x1="12.375" y1="188.109" x2="21.571" y2="190.208" stroke="#141414" stroke-width="0.4"/>
<line x1="71.817" y1="179.97" x2="76.799" y2="194.88" stroke="#141414" stroke-width="0.4"/>
<line x1="25.663" y1="198.707" x2="21.571" y2="207.205" stroke="#141414" stroke-width="0.4"/>
<line x1="76.799" y1="194.88" x2="79.863" y2="210.3" stroke="#141414" stroke-width="0.4"/>
<line x1="21.571" y1="207.205" x2="12.375" y2="209.304" stroke="#141414" stroke-width="0.4"/>
<line x1="79.863" y1="210.3" x2="80.96" y2="225.982" stroke="#141414" stroke-width="0.4"/>
<line x1="12.375" y1="209.304" x2="5.0" y2="203.423" stroke="#141414" stroke-width="0.4"/>
<line x1="80.96" y1="225.982" x2="80.072" y2="241.678" stroke="#141414" stroke-width="0.4"/>
<line x1="5.0" y1="203.423" x2="5.0" y2="193.99" stroke="#141414" stroke-width="0.4"/>
<line x1="80.072" y1="241.678" x2="77.214" y2="257.137" stroke="#141414" stroke-width="0.4"/>
<line x1="5.0" y1="193.99" x2="12.375" y2="188.109" stroke="#141414" stroke-width="0.4"/>
<line x1="16.44" y1="182.293" x2="56.445" y2="152.614" stroke="#141414" stroke-width="0.4"/>
<line x1="64.996" y1="165.806" x2="61.554" y2="156.82" stroke="#141414" stroke-width="0.4"/>
<line x1="61.554" y1="156.82" x2="62.646" y2="154.553" stroke="#141414" stroke-width="0.4"/>
<line x1="62.646" y1="154.553" x2="71.817" y2="151.642" stroke="#141414" stroke-width="0.4"/>
<line x1="21.571" y1="190.208" x2="15.578" y2="189.608" stroke="#141414" stroke-width="0.4"/>
<line x1="15.578" y1="189.608" x2="14.142" y2="187.392" stroke="#141414" stroke-width="0.4"/>
<line x1="14.142" y1="187.392" x2="16.44" y2="182.293" stroke="#141414" stroke-width="0.4"/>
<line x1="71.817" y1="179.97" x2="76.697" y2="188.264" stroke="#141414" stroke-width="0.4"/>
<line x1="76.697" y1="188.264" x2="79.149" y2="188.823" stroke="#141414" stroke-width="0.4"/>
<line x1="79.149" y1="188.823" x2="87.144" y2="183.468" stroke="#141414" stroke-width="0.4"/>
<line x1="25.663" y1="198.707" x2="22.396" y2="203.766" stroke="#141414" stroke-width="0.4"/>
<line x1="22.396" y1="203.766" x2="23.233" y2="206.27" stroke="#141414" stroke-width="0.4"/>
<line x1="23.233" y1="206.27" x2="28.653" y2="207.653" stroke="#141414" stroke-width="0.4"/>
<line x1="87.144" y1="183.468" x2="93.352" y2="187.471" stroke="#141414" stroke-width="0.4"/>
<line x1="93.352" y1="187.471" x2="101.956" y2="180.609" stroke="#141414" stroke-width="0.4"/>
<line x1="101.956" y1="180.609" x2="99.435" y2="173.666" stroke="#141414" stroke-width="0.4"/>
<line x1="28.653" y1="207.653" x2="24.303" y2="209.96" stroke="#141414" stroke-width="0.4"/>
<line x1="24.303" y1="209.96" x2="25.589" y2="216.436" stroke="#141414" stroke-width="0.4"/>
<line x1="25.589" y1="216.436" x2="30.491" y2="216.905" stroke="#141414" stroke-width="0.4"/>
<line x1="99.435" y1="173.666" x2="106.435" y2="171.308" stroke="#141414" stroke-width="0.4"/>
<line x1="106.435" y1="171.308" x2="106.435" y2="160.303" stroke="#141414" stroke-width="0.4"/>
<line x1="106.435" y1="160.303" x2="99.435" y2="157.945" stroke="#141414" stroke-width="0.4"/>
<line x1="30.491" y1="216.905" x2="25.885" y2="218.645" stroke="#141414" stroke-width="0.4"/>
<line x1="25.885" y1="218.645" x2="26.346" y2="225.232" stroke="#141414" stroke-width="0.4"/>
<line x1="26.346" y1="225.232" x2="31.149" y2="226.314" stroke="#141414" stroke-width="0.4"/>
<line x1="99.435" y1="157.945" x2="101.956" y2="151.002" stroke="#141414" stroke-width="0.4"/>
<line x1="101.956" y1="151.002" x2="93.352" y2="144.141" stroke="#141414" stroke-width="0.4"/>
<line x1="93.352" y1="144.141" x2="87.144" y2="148.143" stroke="#141414" stroke-width="0.4"/>
<line x1="31.149" y1="226.314" x2="26.36" y2="227.46" stroke="#141414" stroke-width="0.4"/>
<line x1="26.36" y1="227.46" x2="25.988" y2="234.053" stroke="#141414" stroke-width="0.4"/>
<line x1="25.988" y1="234.053" x2="30.616" y2="235.732" stroke="#141414" stroke-width="0.4"/>
<line x1="87.144" y1="148.143" x2="83.287" y2="141.844" stroke="#141414" stroke-width="0.4"/>
<line x1="83.287" y1="141.844" x2="72.559" y2="144.293" stroke="#141414" stroke-width="0.4"/>
<line x1="72.559" y1="144.293" x2="71.817" y2="151.642" stroke="#141414" stroke-width="0.4"/>
<line x1="30.616" y1="235.732" x2="25.721" y2="236.266" stroke="#141414" stroke-width="0.4"/>
<line x1="25.721" y1="236.266" x2="24.521" y2="242.758" stroke="#141414" stroke-width="0.4"/>
<line x1="24.521" y1="242.758" x2="28.902" y2="245.007" stroke="#141414" stroke-width="0.4"/>
<line x1="77.214" y1="257.137" x2="68.263" y2="262.107" stroke="#141414" stroke-width="0.4"/>
<line x1="68.263" y1="262.107" x2="34.444" y2="253.616" stroke="#141414" stroke-width="0.4"/>
<line x1="34.444" y1="253.616" x2="28.902" y2="245.007" stroke="#141414" stroke-width="0.4"/>
<circle cx="65.253" cy="157.205" r="1.72" fill="#ffe082" stroke="#464646" stroke-width="0.2"/>
<text x="65.253" y="157.80" font-size="1.69" text-anchor="middle" fill="#141414">131</text>
<circle cx="16.933" cy="187.375" r="1.72" fill="#ffe082" stroke="#464646" stroke-width="0.2"/>
<text x="16.933" y="187.97" font-size="1.69" text-anchor="middle" fill="#141414">132</text>
<circle cx="78.702" cy="185.131" r="1.72" fill="#ffe082" stroke="#464646" stroke-width="0.2"/>
<text x="78.702" y="185.72" font-size="1.69" text-anchor="middle" fill="#141414">133</text>
<circle cx="24.986" cy="204.099" r="1.72" fill="#ffe082" stroke="#464646" stroke-width="0.2"/>
<text x="24.986" y="204.69" font-size="1.69" text-anchor="middle" fill="#141414">134</text>
<circle cx="95.472" cy="181.303" r="1.72" fill="#ffe082" stroke="#464646" stroke-width="0.2"/>
<text x="95.472" y="181.89" font-size="1.69" text-anchor="middle" fill="#141414">135</text>
<circle cx="27.259" cy="212.738" r="1.72" fill="#ffe082" stroke="#464646" stroke-width="0.2"/>
<text x="27.259" y="213.33" font-size="1.69" text-anchor="middle" fill="#141414">136</text>
<circle cx="102.935" cy="165.806" r="1.72" fill="#ffe082" stroke="#464646" stroke-width="0.2"/>
<text x="102.935" y="166.40" font-size="1.69" text-anchor="middle" fill="#141414">137</text>
<circle cx="28.468" cy="221.774" r="1.72" fill="#ffe082" stroke="#464646" stroke-width="0.2"/>
<text x="28.468" y="222.36" font-size="1.69" text-anchor="middle" fill="#141414">138</text>
<circle cx="95.472" cy="150.308" r="1.72" fill="#ffe082" stroke="#464646" stroke-width="0.2"/>
<text x="95.472" y="150.90" font-size="1.69" text-anchor="middle" fill="#141414">139</text>
<circle cx="28.528" cy="230.89" r="1.72" fill="#ffe082" stroke="#464646" stroke-width="0.2"/>
<text x="28.528" y="231.48" font-size="1.69" text-anchor="middle" fill="#141414">140</text>
<circle cx="78.702" cy="146.48" r="1.72" fill="#ffe082" stroke="#464646" stroke-width="0.2"/>
<text x="78.702" y="147.07" font-size="1.69" text-anchor="middle" fill="#141414">141</text>
<circle cx="27.44" cy="239.941" r="1.72" fill="#ffe082" stroke="#464646" stroke-width="0.2"/>
<text x="27.44" y="240.53" font-size="1.69" text-anchor="middle" fill="#141414">142</text>
<circle cx="52.205" cy="254.467" r="1.72" fill="#ffe082" stroke="#464646" stroke-width="0.2"/>
<text x="52.205" y="255.06" font-size="1.69" text-anchor="middle" fill="#141414">143</text>
<circle cx="55.718" cy="134.11" r="4.6" fill="#eaf1fe" stroke="#2e78e6" stroke-width="0.3"/>
<text x="55.718" y="135.91000000000003" font-size="5.2" text-anchor="middle" fill="#14306e" font-weight="bold">11</text>
<g pointer-events="none"><text x="105.0" y="83.2" text-anchor="middle" font-family="sans-serif" font-size="12.4" fill="#9aa0a6" fill-opacity="0.3" transform="rotate(-28 105.0 83.2)">papercraft.kr</text><text x="105.0" y="148.5" text-anchor="middle" font-family="sans-serif" font-size="12.4" fill="#9aa0a6" fill-opacity="0.3" transform="rotate(-28 105.0 148.5)">papercraft.kr</text><text x="105.0" y="213.8" text-anchor="middle" font-family="sans-serif" font-size="12.4" fill="#9aa0a6" fill-opacity="0.3" transform="rotate(-28 105.0 213.8)">papercraft.kr</text></g></svg>
