<svg xmlns="http://www.w3.org/2000/svg" xmlns:xlink="http://www.w3.org/1999/xlink" width="210.00mm" height="297.00mm" viewBox="0 0 210.00 297.00">
<rect x="0" y="0" width="210.00" height="297.00" fill="#ffffff" stroke="#cccccc" stroke-width="0.2"/>
<polygon points="5.0,75.086 16.823,82.631 76.537,94.001 90.306,91.329" fill="rgb(216,216,216)"/>
<polygon points="155.191,5.0 157.333,17.278 143.865,68.394 135.951,78.022" fill="rgb(216,216,216)"/>
<polygon points="90.306,91.329 85.106,108.146 85.106,186.625 90.306,203.442" fill="rgb(216,216,216)"/>
<polygon points="137.038,178.032 147.292,179.998 187.235,166.23 194.1,158.363" fill="rgb(216,216,216)"/>
<line x1="90.306" y1="91.329" x2="82.797" y2="13.926" stroke="#8c8c8c" stroke-width="0.3" stroke-dasharray="1.2,0.8"/>
<line x1="82.797" y1="13.926" x2="135.951" y2="78.022" stroke="#8c8c8c" stroke-width="0.3" stroke-dasharray="1.2,0.8"/>
<line x1="135.951" y1="78.022" x2="90.306" y2="91.329" stroke="#8c8c8c" stroke-width="0.3" stroke-dasharray="1.2,0.8"/>
<line x1="90.306" y1="91.329" x2="137.038" y2="178.032" stroke="#8c8c8c" stroke-width="0.3" stroke-dasharray="1.2,0.8"/>
<line x1="132.587" y1="119.247" x2="137.038" y2="178.032" stroke="#8c8c8c" stroke-width="0.3" stroke-dasharray="1.2,0.8"/>
<line x1="55.471" y1="35.478" x2="90.306" y2="91.329" stroke="#8c8c8c" stroke-width="0.3" stroke-dasharray="1.2,0.8"/>
<line x1="132.587" y1="119.247" x2="90.306" y2="91.329" stroke="#8c8c8c" stroke-width="0.3" stroke-dasharray="1.2,0.8"/>
<line x1="90.306" y1="91.329" x2="5.0" y2="75.086" stroke="#8c8c8c" stroke-width="0.3" stroke-dasharray="1.2,0.8"/>
<line x1="135.951" y1="78.022" x2="155.191" y2="5.0" stroke="#8c8c8c" stroke-width="0.3" stroke-dasharray="1.2,0.8"/>
<line x1="90.306" y1="203.442" x2="90.306" y2="91.329" stroke="#8c8c8c" stroke-width="0.3" stroke-dasharray="1.2,0.8"/>
<line x1="194.1" y1="158.363" x2="137.038" y2="178.032" stroke="#8c8c8c" stroke-width="0.3" stroke-dasharray="1.2,0.8"/>
<line x1="5.0" y1="75.086" x2="55.471" y2="35.478" stroke="#141414" stroke-width="0.4"/>
<line x1="55.471" y1="35.478" x2="82.797" y2="13.926" stroke="#141414" stroke-width="0.4"/>
<line x1="82.797" y1="13.926" x2="155.191" y2="5.0" stroke="#141414" stroke-width="0.4"/>
<line x1="135.951" y1="78.022" x2="132.587" y2="119.247" stroke="#141414" stroke-width="0.4"/>
<line x1="132.587" y1="119.247" x2="194.1" y2="158.363" stroke="#141414" stroke-width="0.4"/>
<line x1="137.038" y1="178.032" x2="90.306" y2="203.442" stroke="#141414" stroke-width="0.4"/>
<line x1="5.0" y1="75.086" x2="16.823" y2="82.631" stroke="#141414" stroke-width="0.4"/>
<line x1="16.823" y1="82.631" x2="76.537" y2="94.001" stroke="#141414" stroke-width="0.4"/>
<line x1="76.537" y1="94.001" x2="90.306" y2="91.329" stroke="#141414" stroke-width="0.4"/>
<line x1="155.191" y1="5.0" x2="157.333" y2="17.278" stroke="#141414" stroke-width="0.4"/>
<line x1="157.333" y1="17.278" x2="143.865" y2="68.394" stroke="#141414" stroke-width="0.4"/>
<line x1="143.865" y1="68.394" x2="135.951" y2="78.022" stroke="#141414" stroke-width="0.4"/>
<line x1="90.306" y1="91.329" x2="85.106" y2="108.146" stroke="#141414" stroke-width="0.4"/>
<line x1="85.106" y1="108.146" x2="85.106" y2="186.625" stroke="#141414" stroke-width="0.4"/>
<line x1="85.106" y1="186.625" x2="90.306" y2="203.442" stroke="#141414" stroke-width="0.4"/>
<line x1="137.038" y1="178.032" x2="147.292" y2="179.998" stroke="#141414" stroke-width="0.4"/>
<line x1="147.292" y1="179.998" x2="187.235" y2="166.23" stroke="#141414" stroke-width="0.4"/>
<line x1="187.235" y1="166.23" x2="194.1" y2="158.363" stroke="#141414" stroke-width="0.4"/>
<circle cx="47.166" cy="85.762" r="2.29" fill="#ffe082" stroke="#464646" stroke-width="0.2"/>
<text x="47.166" y="86.55" font-size="2.24" text-anchor="middle" fill="#141414">59</text>
<circle cx="148.085" cy="42.174" r="2.29" fill="#ffe082" stroke="#464646" stroke-width="0.2"/>
<text x="148.085" y="42.96" font-size="2.24" text-anchor="middle" fill="#141414">66</text>
<circle cx="87.706" cy="147.386" r="2.29" fill="#ffe082" stroke="#464646" stroke-width="0.2"/>
<text x="87.706" y="148.17" font-size="2.24" text-anchor="middle" fill="#141414">74</text>
<circle cx="166.416" cy="170.656" r="2.29" fill="#ffe082" stroke="#464646" stroke-width="0.2"/>
<text x="166.416" y="171.44" font-size="2.24" text-anchor="middle" fill="#141414">104</text>
<circle cx="119.614" cy="96.2" r="4.60" fill="#eaf1fe" stroke="#2e78e6" stroke-width="0.3"/>
<text x="119.614" y="98.00" font-size="5.20" text-anchor="middle" fill="#14306e" font-weight="bold">4</text>
<text x="205.0" y="295.0" font-size="3.2" text-anchor="end" fill="#737373" font-family="sans-serif">4 / 39</text>
<g pointer-events="none"><text x="105.0" y="83.2" text-anchor="middle" font-family="sans-serif" font-size="12.4" fill="#9aa0a6" fill-opacity="0.3" transform="rotate(-28 105.0 83.2)">papercraft.kr</text><text x="105.0" y="148.5" text-anchor="middle" font-family="sans-serif" font-size="12.4" fill="#9aa0a6" fill-opacity="0.3" transform="rotate(-28 105.0 148.5)">papercraft.kr</text><text x="105.0" y="213.8" text-anchor="middle" font-family="sans-serif" font-size="12.4" fill="#9aa0a6" fill-opacity="0.3" transform="rotate(-28 105.0 213.8)">papercraft.kr</text></g></svg>
