<svg xmlns="http://www.w3.org/2000/svg" xmlns:xlink="http://www.w3.org/1999/xlink" width="210.00mm" height="297.00mm" viewBox="0 0 210.00 297.00">
<rect x="0" y="0" width="210.00" height="297.00" fill="#ffffff" stroke="#cccccc" stroke-width="0.2"/>
<polygon points="155.547,68.359 148.556,80.177 101.284,115.987 88.014,119.516" fill="rgb(216,216,216)"/>
<polygon points="73.944,68.359 67.454,60.223 28.296,44.843 18.004,46.387" fill="rgb(216,216,216)"/>
<polygon points="111.658,17.152 126.146,21.288 179.446,60.191 187.802,72.727" fill="rgb(216,216,216)"/>
<polygon points="111.658,17.152 105.01,13.399 79.647,19.484 75.425,25.844" fill="rgb(216,216,216)"/>
<polygon points="18.004,46.387 13.62,59.326 17.38,118.158 23.375,130.434" fill="rgb(216,216,216)"/>
<polygon points="54.417,144.922 47.561,147.461 25.832,137.319 23.375,130.434" fill="rgb(216,216,216)"/>
<line x1="73.944" y1="68.359" x2="155.547" y2="68.359" stroke="#8c8c8c" stroke-width="0.3" stroke-dasharray="1.2,0.8"/>
<line x1="73.944" y1="68.359" x2="111.658" y2="17.152" stroke="#8c8c8c" stroke-width="0.3" stroke-dasharray="1.2,0.8"/>
<line x1="73.944" y1="68.359" x2="23.375" y2="130.434" stroke="#8c8c8c" stroke-width="0.3" stroke-dasharray="1.2,0.8"/>
<line x1="88.014" y1="119.516" x2="23.375" y2="130.434" stroke="#8c8c8c" stroke-width="0.3" stroke-dasharray="1.2,0.8"/>
<line x1="88.014" y1="119.516" x2="73.944" y2="68.359" stroke="#8c8c8c" stroke-width="0.3" stroke-dasharray="1.2,0.8"/>
<line x1="88.014" y1="119.516" x2="54.417" y2="144.922" stroke="#8c8c8c" stroke-width="0.3" stroke-dasharray="1.2,0.8"/>
<line x1="88.014" y1="119.516" x2="155.547" y2="68.359" stroke="#8c8c8c" stroke-width="0.3" stroke-dasharray="1.2,0.8"/>
<line x1="18.004" y1="46.387" x2="73.944" y2="68.359" stroke="#8c8c8c" stroke-width="0.3" stroke-dasharray="1.2,0.8"/>
<line x1="187.802" y1="72.727" x2="111.658" y2="17.152" stroke="#8c8c8c" stroke-width="0.3" stroke-dasharray="1.2,0.8"/>
<line x1="75.425" y1="25.844" x2="111.658" y2="17.152" stroke="#8c8c8c" stroke-width="0.3" stroke-dasharray="1.2,0.8"/>
<line x1="23.375" y1="130.434" x2="18.004" y2="46.387" stroke="#8c8c8c" stroke-width="0.3" stroke-dasharray="1.2,0.8"/>
<line x1="23.375" y1="130.434" x2="54.417" y2="144.922" stroke="#8c8c8c" stroke-width="0.3" stroke-dasharray="1.2,0.8"/>
<line x1="187.802" y1="72.727" x2="155.547" y2="68.359" stroke="#141414" stroke-width="0.4"/>
<line x1="73.944" y1="68.359" x2="75.425" y2="25.844" stroke="#141414" stroke-width="0.4"/>
<line x1="88.014" y1="119.516" x2="83.77" y2="180.097" stroke="#141414" stroke-width="0.4"/>
<line x1="83.77" y1="180.097" x2="54.417" y2="144.922" stroke="#141414" stroke-width="0.4"/>
<line x1="155.547" y1="68.359" x2="148.556" y2="80.177" stroke="#141414" stroke-width="0.4"/>
<line x1="148.556" y1="80.177" x2="101.284" y2="115.987" stroke="#141414" stroke-width="0.4"/>
<line x1="101.284" y1="115.987" x2="88.014" y2="119.516" stroke="#141414" stroke-width="0.4"/>
<line x1="73.944" y1="68.359" x2="67.454" y2="60.223" stroke="#141414" stroke-width="0.4"/>
<line x1="67.454" y1="60.223" x2="28.296" y2="44.843" stroke="#141414" stroke-width="0.4"/>
<line x1="28.296" y1="44.843" x2="18.004" y2="46.387" stroke="#141414" stroke-width="0.4"/>
<line x1="111.658" y1="17.152" x2="126.146" y2="21.288" stroke="#141414" stroke-width="0.4"/>
<line x1="126.146" y1="21.288" x2="179.446" y2="60.191" stroke="#141414" stroke-width="0.4"/>
<line x1="179.446" y1="60.191" x2="187.802" y2="72.727" stroke="#141414" stroke-width="0.4"/>
<line x1="111.658" y1="17.152" x2="105.01" y2="13.399" stroke="#141414" stroke-width="0.4"/>
<line x1="105.01" y1="13.399" x2="79.647" y2="19.484" stroke="#141414" stroke-width="0.4"/>
<line x1="79.647" y1="19.484" x2="75.425" y2="25.844" stroke="#141414" stroke-width="0.4"/>
<line x1="18.004" y1="46.387" x2="13.62" y2="59.326" stroke="#141414" stroke-width="0.4"/>
<line x1="13.62" y1="59.326" x2="17.38" y2="118.158" stroke="#141414" stroke-width="0.4"/>
<line x1="17.38" y1="118.158" x2="23.375" y2="130.434" stroke="#141414" stroke-width="0.4"/>
<line x1="54.417" y1="144.922" x2="47.561" y2="147.461" stroke="#141414" stroke-width="0.4"/>
<line x1="47.561" y1="147.461" x2="25.832" y2="137.319" stroke="#141414" stroke-width="0.4"/>
<line x1="25.832" y1="137.319" x2="23.375" y2="130.434" stroke="#141414" stroke-width="0.4"/>
<circle cx="123.35" cy="96.01" r="2.29" fill="#ffe082" stroke="#464646" stroke-width="0.2"/>
<text x="123.35" y="96.79" font-size="2.24" text-anchor="middle" fill="#141414">24</text>
<circle cx="46.925" cy="54.953" r="2.29" fill="#ffe082" stroke="#464646" stroke-width="0.2"/>
<text x="46.925" y="55.74" font-size="2.24" text-anchor="middle" fill="#141414">29</text>
<circle cx="151.263" cy="42.84" r="2.29" fill="#ffe082" stroke="#464646" stroke-width="0.2"/>
<text x="151.263" y="43.62" font-size="2.24" text-anchor="middle" fill="#141414">38</text>
<circle cx="92.935" cy="18.97" r="2.29" fill="#ffe082" stroke="#464646" stroke-width="0.2"/>
<text x="92.935" y="19.75" font-size="2.24" text-anchor="middle" fill="#141414">39</text>
<circle cx="18.095" cy="88.576" r="2.29" fill="#ffe082" stroke="#464646" stroke-width="0.2"/>
<text x="18.095" y="89.36" font-size="2.24" text-anchor="middle" fill="#141414">43</text>
<circle cx="37.796" cy="140.034" r="2.29" fill="#ffe082" stroke="#464646" stroke-width="0.2"/>
<text x="37.796" y="140.82" font-size="2.24" text-anchor="middle" fill="#141414">50</text>
<circle cx="38.441" cy="81.727" r="4.60" fill="#eaf1fe" stroke="#2e78e6" stroke-width="0.3"/>
<text x="38.441" y="83.53" font-size="5.20" text-anchor="middle" fill="#14306e" font-weight="bold">14</text>
<text x="205.0" y="295.0" font-size="3.2" text-anchor="end" fill="#737373" font-family="sans-serif">12 / 39</text>
<g pointer-events="none"><text x="105.0" y="83.2" text-anchor="middle" font-family="sans-serif" font-size="12.4" fill="#9aa0a6" fill-opacity="0.3" transform="rotate(-28 105.0 83.2)">papercraft.kr</text><text x="105.0" y="148.5" text-anchor="middle" font-family="sans-serif" font-size="12.4" fill="#9aa0a6" fill-opacity="0.3" transform="rotate(-28 105.0 148.5)">papercraft.kr</text><text x="105.0" y="213.8" text-anchor="middle" font-family="sans-serif" font-size="12.4" fill="#9aa0a6" fill-opacity="0.3" transform="rotate(-28 105.0 213.8)">papercraft.kr</text></g></svg>
