<svg xmlns="http://www.w3.org/2000/svg" xmlns:xlink="http://www.w3.org/1999/xlink" width="210.00mm" height="297.00mm" viewBox="0 0 210.00 297.00">
<rect x="0" y="0" width="210.00" height="297.00" fill="#ffffff" stroke="#cccccc" stroke-width="0.2"/>
<polygon points="151.753,5.0 144.753,9.837 144.753,32.409 151.753,37.246" fill="rgb(216,216,216)"/>
<polygon points="151.753,5.0 160.234,5.689 171.52,25.237 167.876,32.926" fill="rgb(216,216,216)"/>
<polygon points="31.706,277.5 29.36,269.321 43.673,251.867 52.153,252.565" fill="rgb(216,216,216)"/>
<polygon points="17.533,249.097 16.652,240.634 33.794,225.948 42.021,228.117" fill="rgb(216,216,216)"/>
<polygon points="8.539,218.655 9.149,210.168 28.593,198.702 36.315,202.274" fill="rgb(216,216,216)"/>
<polygon points="5.0,187.11 7.083,178.86 28.23,170.966 35.21,175.832" fill="rgb(216,216,216)"/>
<polygon points="7.025,155.431 10.517,147.672 32.718,143.593 38.74,149.604" fill="rgb(216,216,216)"/>
<polygon points="14.552,124.594 19.346,117.564 41.918,117.425 46.798,124.395" fill="rgb(216,216,216)"/>
<polygon points="27.349,95.544 33.297,89.46 55.547,93.266 59.134,100.981" fill="rgb(216,216,216)"/>
<polygon points="45.024,69.177 51.943,64.225 73.185,71.858 75.37,80.082" fill="rgb(216,216,216)"/>
<polygon points="67.031,46.302 74.709,42.635 94.292,53.861 95.007,62.339" fill="rgb(216,216,216)"/>
<polygon points="92.696,27.622 100.897,25.352 118.218,39.826 117.441,48.299" fill="rgb(216,216,216)"/>
<polygon points="141.982,38.393 150.488,51.743 152.551,70.561 147.14,85.437" fill="rgb(216,216,216)"/>
<polygon points="164.738,80.148 172.194,73.529 174.39,40.474 167.876,32.926" fill="rgb(216,216,216)"/>
<polygon points="164.738,80.148 172.166,86.672 174.226,119.184 167.682,126.594" fill="rgb(216,216,216)"/>
<polygon points="139.874,219.72 139.479,219.898 96.108,234.825 97.449,238.851" fill="rgb(216,216,216)"/>
<polygon points="185.991,182.776 189.9,172.18 177.083,132.852 167.682,126.594" fill="rgb(216,216,216)"/>
<polygon points="97.449,238.851 81.831,236.266 63.713,241.751 52.153,252.565" fill="rgb(216,216,216)"/>
<polygon points="134.13,211.097 133.71,211.203 88.399,218.326 89.016,222.524" fill="rgb(216,216,216)"/>
<polygon points="89.016,222.524 74.09,217.251 55.292,219.488 42.021,228.117" fill="rgb(216,216,216)"/>
<polygon points="129.981,201.603 129.549,201.635 83.69,200.734 83.564,204.976" fill="rgb(216,216,216)"/>
<polygon points="83.564,204.976 69.789,197.177 50.889,196.096 36.315,202.274" fill="rgb(216,216,216)"/>
<polygon points="127.553,191.531 127.123,191.487 82.126,182.59 81.261,186.745" fill="rgb(216,216,216)"/>
<polygon points="81.261,186.745 69.06,176.66 50.639,172.294 35.21,175.832" fill="rgb(216,216,216)"/>
<polygon points="126.922,181.19 126.506,181.071 83.755,164.452 82.177,168.392" fill="rgb(216,216,216)"/>
<polygon points="82.178,168.392 71.925,156.33 54.55,148.815 38.74,149.604" fill="rgb(216,216,216)"/>
<polygon points="128.107,170.898 127.718,170.708 88.526,146.877 86.285,150.481" fill="rgb(216,216,216)"/>
<polygon points="86.286,150.481 78.297,136.814 62.502,126.38 46.798,124.395" fill="rgb(216,216,216)"/>
<polygon points="131.071,160.97 130.721,160.715 96.295,130.406 93.459,133.563" fill="rgb(216,216,216)"/>
<polygon points="93.459,133.563 87.981,118.711 74.251,105.678 59.134,100.981" fill="rgb(216,216,216)"/>
<polygon points="135.724,151.713 135.424,151.401 106.82,115.545 103.477,118.157" fill="rgb(216,216,216)"/>
<polygon points="103.477,118.157 100.677,102.578 89.434,87.347 75.37,80.082" fill="rgb(216,216,216)"/>
<polygon points="141.922,143.411 141.681,143.052 119.78,102.75 116.031,104.739" fill="rgb(216,216,216)"/>
<polygon points="116.031,104.739 115.995,88.909 107.586,71.949 95.007,62.339" fill="rgb(216,216,216)"/>
<polygon points="149.475,136.319 149.301,135.923 134.775,92.416 130.736,93.719" fill="rgb(216,216,216)"/>
<polygon points="130.736,93.719 133.466,78.127 128.148,59.959 117.441,48.299" fill="rgb(216,216,216)"/>
<polygon points="158.15,130.656 158.048,130.235 151.344,84.859 147.14,85.437" fill="rgb(216,216,216)"/>
<line x1="164.738" y1="80.148" x2="151.753" y2="37.246" stroke="#8c8c8c" stroke-width="0.3" stroke-dasharray="1.2,0.8"/>
<line x1="167.876" y1="32.926" x2="151.753" y2="37.246" stroke="#8c8c8c" stroke-width="0.3" stroke-dasharray="1.2,0.8"/>
<line x1="141.982" y1="38.393" x2="126.861" y2="45.463" stroke="#8c8c8c" stroke-width="0.3" stroke-dasharray="1.2,0.8"/>
<line x1="139.874" y1="219.72" x2="106.203" y2="249.537" stroke="#8c8c8c" stroke-width="0.3" stroke-dasharray="1.2,0.8"/>
<line x1="185.991" y1="182.776" x2="139.874" y2="219.72" stroke="#8c8c8c" stroke-width="0.3" stroke-dasharray="1.2,0.8"/>
<line x1="134.13" y1="211.097" x2="139.874" y2="219.72" stroke="#8c8c8c" stroke-width="0.3" stroke-dasharray="1.2,0.8"/>
<line x1="139.874" y1="219.72" x2="147.035" y2="227.207" stroke="#8c8c8c" stroke-width="0.3" stroke-dasharray="1.2,0.8"/>
<line x1="134.13" y1="211.097" x2="185.991" y2="182.776" stroke="#8c8c8c" stroke-width="0.3" stroke-dasharray="1.2,0.8"/>
<line x1="129.981" y1="201.603" x2="185.991" y2="182.776" stroke="#8c8c8c" stroke-width="0.3" stroke-dasharray="1.2,0.8"/>
<line x1="127.553" y1="191.531" x2="185.991" y2="182.776" stroke="#8c8c8c" stroke-width="0.3" stroke-dasharray="1.2,0.8"/>
<line x1="126.922" y1="181.19" x2="185.991" y2="182.776" stroke="#8c8c8c" stroke-width="0.3" stroke-dasharray="1.2,0.8"/>
<line x1="128.107" y1="170.898" x2="185.991" y2="182.776" stroke="#8c8c8c" stroke-width="0.3" stroke-dasharray="1.2,0.8"/>
<line x1="131.071" y1="160.97" x2="185.991" y2="182.776" stroke="#8c8c8c" stroke-width="0.3" stroke-dasharray="1.2,0.8"/>
<line x1="135.724" y1="151.713" x2="185.991" y2="182.776" stroke="#8c8c8c" stroke-width="0.3" stroke-dasharray="1.2,0.8"/>
<line x1="141.922" y1="143.411" x2="185.991" y2="182.776" stroke="#8c8c8c" stroke-width="0.3" stroke-dasharray="1.2,0.8"/>
<line x1="149.475" y1="136.319" x2="185.991" y2="182.776" stroke="#8c8c8c" stroke-width="0.3" stroke-dasharray="1.2,0.8"/>
<line x1="158.15" y1="130.656" x2="185.991" y2="182.776" stroke="#8c8c8c" stroke-width="0.3" stroke-dasharray="1.2,0.8"/>
<line x1="61.881" y1="266.13" x2="97.449" y2="238.851" stroke="#8c8c8c" stroke-width="0.3" stroke-dasharray="1.2,0.8"/>
<line x1="52.153" y1="252.565" x2="61.881" y2="266.13" stroke="#8c8c8c" stroke-width="0.3" stroke-dasharray="1.2,0.8"/>
<line x1="95.769" y1="234.575" x2="134.13" y2="211.097" stroke="#8c8c8c" stroke-width="0.3" stroke-dasharray="1.2,0.8"/>
<line x1="129.981" y1="201.603" x2="134.13" y2="211.097" stroke="#8c8c8c" stroke-width="0.3" stroke-dasharray="1.2,0.8"/>
<line x1="49.23" y1="243.172" x2="89.016" y2="222.524" stroke="#8c8c8c" stroke-width="0.3" stroke-dasharray="1.2,0.8"/>
<line x1="42.021" y1="228.117" x2="49.23" y2="243.172" stroke="#8c8c8c" stroke-width="0.3" stroke-dasharray="1.2,0.8"/>
<line x1="88.109" y1="218.021" x2="129.981" y2="201.603" stroke="#8c8c8c" stroke-width="0.3" stroke-dasharray="1.2,0.8"/>
<line x1="127.553" y1="191.531" x2="129.981" y2="201.603" stroke="#8c8c8c" stroke-width="0.3" stroke-dasharray="1.2,0.8"/>
<line x1="40.784" y1="218.357" x2="83.564" y2="204.976" stroke="#8c8c8c" stroke-width="0.3" stroke-dasharray="1.2,0.8"/>
<line x1="36.315" y1="202.274" x2="40.784" y2="218.357" stroke="#8c8c8c" stroke-width="0.3" stroke-dasharray="1.2,0.8"/>
<line x1="83.457" y1="200.383" x2="127.553" y2="191.531" stroke="#8c8c8c" stroke-width="0.3" stroke-dasharray="1.2,0.8"/>
<line x1="126.922" y1="181.19" x2="127.553" y2="191.531" stroke="#8c8c8c" stroke-width="0.3" stroke-dasharray="1.2,0.8"/>
<line x1="36.801" y1="192.448" x2="81.261" y2="186.745" stroke="#8c8c8c" stroke-width="0.3" stroke-dasharray="1.2,0.8"/>
<line x1="35.21" y1="175.832" x2="36.801" y2="192.448" stroke="#8c8c8c" stroke-width="0.3" stroke-dasharray="1.2,0.8"/>
<line x1="81.958" y1="182.204" x2="126.922" y2="181.19" stroke="#8c8c8c" stroke-width="0.3" stroke-dasharray="1.2,0.8"/>
<line x1="128.107" y1="170.898" x2="126.922" y2="181.19" stroke="#8c8c8c" stroke-width="0.3" stroke-dasharray="1.2,0.8"/>
<line x1="37.405" y1="166.242" x2="82.177" y2="168.392" stroke="#8c8c8c" stroke-width="0.3" stroke-dasharray="1.2,0.8"/>
<line x1="38.74" y1="149.604" x2="37.405" y2="166.242" stroke="#8c8c8c" stroke-width="0.3" stroke-dasharray="1.2,0.8"/>
<line x1="83.657" y1="164.042" x2="128.107" y2="170.898" stroke="#8c8c8c" stroke-width="0.3" stroke-dasharray="1.2,0.8"/>
<line x1="131.071" y1="160.97" x2="128.107" y2="170.898" stroke="#8c8c8c" stroke-width="0.3" stroke-dasharray="1.2,0.8"/>
<line x1="42.577" y1="140.544" x2="86.285" y2="150.481" stroke="#8c8c8c" stroke-width="0.3" stroke-dasharray="1.2,0.8"/>
<line x1="46.798" y1="124.395" x2="42.577" y2="140.544" stroke="#8c8c8c" stroke-width="0.3" stroke-dasharray="1.2,0.8"/>
<line x1="88.502" y1="146.457" x2="131.071" y2="160.97" stroke="#8c8c8c" stroke-width="0.3" stroke-dasharray="1.2,0.8"/>
<line x1="135.724" y1="151.713" x2="131.071" y2="160.97" stroke="#8c8c8c" stroke-width="0.3" stroke-dasharray="1.2,0.8"/>
<line x1="52.157" y1="116.145" x2="93.459" y2="133.563" stroke="#8c8c8c" stroke-width="0.3" stroke-dasharray="1.2,0.8"/>
<line x1="59.134" y1="100.981" x2="52.157" y2="116.145" stroke="#8c8c8c" stroke-width="0.3" stroke-dasharray="1.2,0.8"/>
<line x1="96.344" y1="129.988" x2="135.724" y2="151.713" stroke="#8c8c8c" stroke-width="0.3" stroke-dasharray="1.2,0.8"/>
<line x1="141.922" y1="143.411" x2="135.724" y2="151.713" stroke="#8c8c8c" stroke-width="0.3" stroke-dasharray="1.2,0.8"/>
<line x1="65.852" y1="93.794" x2="103.477" y2="118.157" stroke="#8c8c8c" stroke-width="0.3" stroke-dasharray="1.2,0.8"/>
<line x1="75.37" y1="80.082" x2="65.852" y2="93.794" stroke="#8c8c8c" stroke-width="0.3" stroke-dasharray="1.2,0.8"/>
<line x1="106.942" y1="115.142" x2="141.922" y2="143.411" stroke="#8c8c8c" stroke-width="0.3" stroke-dasharray="1.2,0.8"/>
<line x1="149.475" y1="136.319" x2="141.922" y2="143.411" stroke="#8c8c8c" stroke-width="0.3" stroke-dasharray="1.2,0.8"/>
<line x1="83.24" y1="74.178" x2="116.031" y2="104.739" stroke="#8c8c8c" stroke-width="0.3" stroke-dasharray="1.2,0.8"/>
<line x1="95.007" y1="62.339" x2="83.24" y2="74.178" stroke="#8c8c8c" stroke-width="0.3" stroke-dasharray="1.2,0.8"/>
<line x1="119.97" y1="102.375" x2="149.475" y2="136.319" stroke="#8c8c8c" stroke-width="0.3" stroke-dasharray="1.2,0.8"/>
<line x1="158.15" y1="130.656" x2="149.475" y2="136.319" stroke="#8c8c8c" stroke-width="0.3" stroke-dasharray="1.2,0.8"/>
<line x1="103.787" y1="57.901" x2="130.736" y2="93.719" stroke="#8c8c8c" stroke-width="0.3" stroke-dasharray="1.2,0.8"/>
<line x1="117.441" y1="48.299" x2="103.787" y2="57.901" stroke="#8c8c8c" stroke-width="0.3" stroke-dasharray="1.2,0.8"/>
<line x1="135.028" y1="92.079" x2="158.15" y2="130.656" stroke="#8c8c8c" stroke-width="0.3" stroke-dasharray="1.2,0.8"/>
<line x1="167.681" y1="126.594" x2="158.15" y2="130.656" stroke="#8c8c8c" stroke-width="0.3" stroke-dasharray="1.2,0.8"/>
<line x1="126.861" y1="45.463" x2="147.14" y2="85.437" stroke="#8c8c8c" stroke-width="0.3" stroke-dasharray="1.2,0.8"/>
<line x1="151.652" y1="84.572" x2="167.681" y2="126.594" stroke="#8c8c8c" stroke-width="0.3" stroke-dasharray="1.2,0.8"/>
<line x1="151.753" y1="37.246" x2="151.753" y2="5.0" stroke="#8c8c8c" stroke-width="0.3" stroke-dasharray="1.2,0.8"/>
<line x1="167.876" y1="32.926" x2="151.753" y2="5.0" stroke="#8c8c8c" stroke-width="0.3" stroke-dasharray="1.2,0.8"/>
<line x1="52.153" y1="252.565" x2="31.706" y2="277.5" stroke="#8c8c8c" stroke-width="0.3" stroke-dasharray="1.2,0.8"/>
<line x1="42.021" y1="228.117" x2="17.533" y2="249.097" stroke="#8c8c8c" stroke-width="0.3" stroke-dasharray="1.2,0.8"/>
<line x1="36.315" y1="202.274" x2="8.539" y2="218.655" stroke="#8c8c8c" stroke-width="0.3" stroke-dasharray="1.2,0.8"/>
<line x1="35.21" y1="175.832" x2="5.0" y2="187.11" stroke="#8c8c8c" stroke-width="0.3" stroke-dasharray="1.2,0.8"/>
<line x1="38.74" y1="149.604" x2="7.025" y2="155.431" stroke="#8c8c8c" stroke-width="0.3" stroke-dasharray="1.2,0.8"/>
<line x1="46.798" y1="124.395" x2="14.552" y2="124.594" stroke="#8c8c8c" stroke-width="0.3" stroke-dasharray="1.2,0.8"/>
<line x1="59.134" y1="100.981" x2="27.349" y2="95.544" stroke="#8c8c8c" stroke-width="0.3" stroke-dasharray="1.2,0.8"/>
<line x1="75.37" y1="80.082" x2="45.024" y2="69.177" stroke="#8c8c8c" stroke-width="0.3" stroke-dasharray="1.2,0.8"/>
<line x1="95.007" y1="62.339" x2="67.031" y2="46.302" stroke="#8c8c8c" stroke-width="0.3" stroke-dasharray="1.2,0.8"/>
<line x1="117.441" y1="48.299" x2="92.696" y2="27.622" stroke="#8c8c8c" stroke-width="0.3" stroke-dasharray="1.2,0.8"/>
<line x1="147.14" y1="85.437" x2="141.982" y2="38.393" stroke="#8c8c8c" stroke-width="0.3" stroke-dasharray="1.2,0.8"/>
<line x1="167.876" y1="32.926" x2="164.738" y2="80.148" stroke="#8c8c8c" stroke-width="0.3" stroke-dasharray="1.2,0.8"/>
<line x1="167.682" y1="126.594" x2="164.738" y2="80.148" stroke="#8c8c8c" stroke-width="0.3" stroke-dasharray="1.2,0.8"/>
<line x1="97.449" y1="238.851" x2="139.874" y2="219.72" stroke="#8c8c8c" stroke-width="0.3" stroke-dasharray="1.2,0.8"/>
<line x1="167.682" y1="126.594" x2="185.991" y2="182.776" stroke="#8c8c8c" stroke-width="0.3" stroke-dasharray="1.2,0.8"/>
<line x1="52.153" y1="252.565" x2="97.449" y2="238.851" stroke="#8c8c8c" stroke-width="0.3" stroke-dasharray="1.2,0.8"/>
<line x1="89.016" y1="222.524" x2="134.13" y2="211.097" stroke="#8c8c8c" stroke-width="0.3" stroke-dasharray="1.2,0.8"/>
<line x1="42.021" y1="228.117" x2="89.016" y2="222.524" stroke="#8c8c8c" stroke-width="0.3" stroke-dasharray="1.2,0.8"/>
<line x1="83.564" y1="204.976" x2="129.981" y2="201.603" stroke="#8c8c8c" stroke-width="0.3" stroke-dasharray="1.2,0.8"/>
<line x1="36.315" y1="202.274" x2="83.564" y2="204.976" stroke="#8c8c8c" stroke-width="0.3" stroke-dasharray="1.2,0.8"/>
<line x1="81.261" y1="186.745" x2="127.553" y2="191.531" stroke="#8c8c8c" stroke-width="0.3" stroke-dasharray="1.2,0.8"/>
<line x1="35.21" y1="175.832" x2="81.261" y2="186.745" stroke="#8c8c8c" stroke-width="0.3" stroke-dasharray="1.2,0.8"/>
<line x1="82.177" y1="168.392" x2="126.922" y2="181.19" stroke="#8c8c8c" stroke-width="0.3" stroke-dasharray="1.2,0.8"/>
<line x1="38.74" y1="149.604" x2="82.178" y2="168.392" stroke="#8c8c8c" stroke-width="0.3" stroke-dasharray="1.2,0.8"/>
<line x1="86.285" y1="150.481" x2="128.107" y2="170.898" stroke="#8c8c8c" stroke-width="0.3" stroke-dasharray="1.2,0.8"/>
<line x1="46.798" y1="124.395" x2="86.286" y2="150.481" stroke="#8c8c8c" stroke-width="0.3" stroke-dasharray="1.2,0.8"/>
<line x1="93.459" y1="133.563" x2="131.071" y2="160.97" stroke="#8c8c8c" stroke-width="0.3" stroke-dasharray="1.2,0.8"/>
<line x1="59.134" y1="100.981" x2="93.459" y2="133.563" stroke="#8c8c8c" stroke-width="0.3" stroke-dasharray="1.2,0.8"/>
<line x1="103.477" y1="118.157" x2="135.724" y2="151.713" stroke="#8c8c8c" stroke-width="0.3" stroke-dasharray="1.2,0.8"/>
<line x1="75.37" y1="80.082" x2="103.477" y2="118.157" stroke="#8c8c8c" stroke-width="0.3" stroke-dasharray="1.2,0.8"/>
<line x1="116.031" y1="104.739" x2="141.922" y2="143.411" stroke="#8c8c8c" stroke-width="0.3" stroke-dasharray="1.2,0.8"/>
<line x1="95.007" y1="62.339" x2="116.031" y2="104.739" stroke="#8c8c8c" stroke-width="0.3" stroke-dasharray="1.2,0.8"/>
<line x1="130.736" y1="93.719" x2="149.475" y2="136.319" stroke="#8c8c8c" stroke-width="0.3" stroke-dasharray="1.2,0.8"/>
<line x1="117.441" y1="48.299" x2="130.736" y2="93.719" stroke="#8c8c8c" stroke-width="0.3" stroke-dasharray="1.2,0.8"/>
<line x1="147.14" y1="85.437" x2="158.15" y2="130.656" stroke="#8c8c8c" stroke-width="0.3" stroke-dasharray="1.2,0.8"/>
<line x1="121.229" y1="13.713" x2="141.982" y2="38.393" stroke="#141414" stroke-width="0.4"/>
<line x1="61.881" y1="266.13" x2="31.706" y2="277.5" stroke="#141414" stroke-width="0.4"/>
<line x1="49.23" y1="243.172" x2="17.533" y2="249.097" stroke="#141414" stroke-width="0.4"/>
<line x1="40.784" y1="218.357" x2="8.539" y2="218.655" stroke="#141414" stroke-width="0.4"/>
<line x1="36.801" y1="192.448" x2="5.0" y2="187.109" stroke="#141414" stroke-width="0.4"/>
<line x1="37.405" y1="166.242" x2="7.025" y2="155.431" stroke="#141414" stroke-width="0.4"/>
<line x1="42.577" y1="140.544" x2="14.552" y2="124.594" stroke="#141414" stroke-width="0.4"/>
<line x1="52.157" y1="116.145" x2="27.349" y2="95.544" stroke="#141414" stroke-width="0.4"/>
<line x1="65.852" y1="93.794" x2="45.023" y2="69.177" stroke="#141414" stroke-width="0.4"/>
<line x1="83.24" y1="74.178" x2="67.031" y2="46.302" stroke="#141414" stroke-width="0.4"/>
<line x1="103.787" y1="57.901" x2="92.696" y2="27.622" stroke="#141414" stroke-width="0.4"/>
<line x1="126.861" y1="45.463" x2="121.229" y2="13.713" stroke="#141414" stroke-width="0.4"/>
<line x1="151.652" y1="84.572" x2="151.753" y2="37.246" stroke="#141414" stroke-width="0.4"/>
<line x1="106.203" y1="249.537" x2="61.881" y2="266.13" stroke="#141414" stroke-width="0.4"/>
<line x1="147.035" y1="227.207" x2="106.203" y2="249.537" stroke="#141414" stroke-width="0.4"/>
<line x1="139.874" y1="219.72" x2="95.769" y2="234.575" stroke="#141414" stroke-width="0.4"/>
<line x1="185.991" y1="182.776" x2="147.035" y2="227.207" stroke="#141414" stroke-width="0.4"/>
<line x1="95.769" y1="234.575" x2="49.23" y2="243.172" stroke="#141414" stroke-width="0.4"/>
<line x1="134.13" y1="211.097" x2="88.109" y2="218.021" stroke="#141414" stroke-width="0.4"/>
<line x1="88.109" y1="218.021" x2="40.784" y2="218.357" stroke="#141414" stroke-width="0.4"/>
<line x1="129.981" y1="201.603" x2="83.457" y2="200.383" stroke="#141414" stroke-width="0.4"/>
<line x1="83.457" y1="200.383" x2="36.801" y2="192.448" stroke="#141414" stroke-width="0.4"/>
<line x1="127.553" y1="191.531" x2="81.958" y2="182.204" stroke="#141414" stroke-width="0.4"/>
<line x1="81.958" y1="182.204" x2="37.405" y2="166.242" stroke="#141414" stroke-width="0.4"/>
<line x1="126.922" y1="181.19" x2="83.657" y2="164.042" stroke="#141414" stroke-width="0.4"/>
<line x1="83.657" y1="164.042" x2="42.577" y2="140.544" stroke="#141414" stroke-width="0.4"/>
<line x1="128.107" y1="170.898" x2="88.502" y2="146.457" stroke="#141414" stroke-width="0.4"/>
<line x1="88.502" y1="146.457" x2="52.157" y2="116.145" stroke="#141414" stroke-width="0.4"/>
<line x1="131.071" y1="160.97" x2="96.344" y2="129.988" stroke="#141414" stroke-width="0.4"/>
<line x1="96.344" y1="129.988" x2="65.852" y2="93.794" stroke="#141414" stroke-width="0.4"/>
<line x1="135.724" y1="151.713" x2="106.942" y2="115.142" stroke="#141414" stroke-width="0.4"/>
<line x1="106.942" y1="115.142" x2="83.24" y2="74.178" stroke="#141414" stroke-width="0.4"/>
<line x1="141.922" y1="143.411" x2="119.97" y2="102.375" stroke="#141414" stroke-width="0.4"/>
<line x1="119.97" y1="102.375" x2="103.787" y2="57.901" stroke="#141414" stroke-width="0.4"/>
<line x1="149.475" y1="136.319" x2="135.028" y2="92.079" stroke="#141414" stroke-width="0.4"/>
<line x1="135.028" y1="92.079" x2="126.861" y2="45.463" stroke="#141414" stroke-width="0.4"/>
<line x1="158.15" y1="130.656" x2="151.652" y2="84.572" stroke="#141414" stroke-width="0.4"/>
<line x1="151.753" y1="5.0" x2="144.753" y2="9.837" stroke="#141414" stroke-width="0.4"/>
<line x1="144.753" y1="9.837" x2="144.753" y2="32.409" stroke="#141414" stroke-width="0.4"/>
<line x1="144.753" y1="32.409" x2="151.753" y2="37.246" stroke="#141414" stroke-width="0.4"/>
<line x1="151.753" y1="5.0" x2="160.234" y2="5.689" stroke="#141414" stroke-width="0.4"/>
<line x1="160.234" y1="5.689" x2="171.52" y2="25.237" stroke="#141414" stroke-width="0.4"/>
<line x1="171.52" y1="25.237" x2="167.876" y2="32.926" stroke="#141414" stroke-width="0.4"/>
<line x1="31.706" y1="277.5" x2="29.36" y2="269.321" stroke="#141414" stroke-width="0.4"/>
<line x1="29.36" y1="269.321" x2="43.673" y2="251.867" stroke="#141414" stroke-width="0.4"/>
<line x1="43.673" y1="251.867" x2="52.153" y2="252.565" stroke="#141414" stroke-width="0.4"/>
<line x1="17.533" y1="249.097" x2="16.652" y2="240.634" stroke="#141414" stroke-width="0.4"/>
<line x1="16.652" y1="240.634" x2="33.794" y2="225.948" stroke="#141414" stroke-width="0.4"/>
<line x1="33.794" y1="225.948" x2="42.021" y2="228.117" stroke="#141414" stroke-width="0.4"/>
<line x1="8.539" y1="218.655" x2="9.149" y2="210.168" stroke="#141414" stroke-width="0.4"/>
<line x1="9.149" y1="210.168" x2="28.593" y2="198.702" stroke="#141414" stroke-width="0.4"/>
<line x1="28.593" y1="198.702" x2="36.315" y2="202.274" stroke="#141414" stroke-width="0.4"/>
<line x1="5.0" y1="187.11" x2="7.083" y2="178.86" stroke="#141414" stroke-width="0.4"/>
<line x1="7.083" y1="178.86" x2="28.23" y2="170.966" stroke="#141414" stroke-width="0.4"/>
<line x1="28.23" y1="170.966" x2="35.21" y2="175.832" stroke="#141414" stroke-width="0.4"/>
<line x1="7.025" y1="155.431" x2="10.517" y2="147.672" stroke="#141414" stroke-width="0.4"/>
<line x1="10.517" y1="147.672" x2="32.718" y2="143.593" stroke="#141414" stroke-width="0.4"/>
<line x1="32.718" y1="143.593" x2="38.74" y2="149.604" stroke="#141414" stroke-width="0.4"/>
<line x1="14.552" y1="124.594" x2="19.346" y2="117.564" stroke="#141414" stroke-width="0.4"/>
<line x1="19.346" y1="117.564" x2="41.918" y2="117.425" stroke="#141414" stroke-width="0.4"/>
<line x1="41.918" y1="117.425" x2="46.798" y2="124.395" stroke="#141414" stroke-width="0.4"/>
<line x1="27.349" y1="95.544" x2="33.297" y2="89.46" stroke="#141414" stroke-width="0.4"/>
<line x1="33.297" y1="89.46" x2="55.547" y2="93.266" stroke="#141414" stroke-width="0.4"/>
<line x1="55.547" y1="93.266" x2="59.134" y2="100.981" stroke="#141414" stroke-width="0.4"/>
<line x1="45.024" y1="69.177" x2="51.943" y2="64.225" stroke="#141414" stroke-width="0.4"/>
<line x1="51.943" y1="64.225" x2="73.185" y2="71.858" stroke="#141414" stroke-width="0.4"/>
<line x1="73.185" y1="71.858" x2="75.37" y2="80.082" stroke="#141414" stroke-width="0.4"/>
<line x1="67.031" y1="46.302" x2="74.709" y2="42.635" stroke="#141414" stroke-width="0.4"/>
<line x1="74.709" y1="42.635" x2="94.292" y2="53.861" stroke="#141414" stroke-width="0.4"/>
<line x1="94.292" y1="53.861" x2="95.007" y2="62.339" stroke="#141414" stroke-width="0.4"/>
<line x1="92.696" y1="27.622" x2="100.897" y2="25.352" stroke="#141414" stroke-width="0.4"/>
<line x1="100.897" y1="25.352" x2="118.218" y2="39.826" stroke="#141414" stroke-width="0.4"/>
<line x1="118.218" y1="39.826" x2="117.441" y2="48.299" stroke="#141414" stroke-width="0.4"/>
<line x1="141.982" y1="38.393" x2="150.488" y2="51.743" stroke="#141414" stroke-width="0.4"/>
<line x1="150.488" y1="51.743" x2="152.551" y2="70.561" stroke="#141414" stroke-width="0.4"/>
<line x1="152.551" y1="70.561" x2="147.14" y2="85.437" stroke="#141414" stroke-width="0.4"/>
<line x1="164.738" y1="80.148" x2="172.194" y2="73.529" stroke="#141414" stroke-width="0.4"/>
<line x1="172.194" y1="73.529" x2="174.39" y2="40.474" stroke="#141414" stroke-width="0.4"/>
<line x1="174.39" y1="40.474" x2="167.876" y2="32.926" stroke="#141414" stroke-width="0.4"/>
<line x1="164.738" y1="80.148" x2="172.166" y2="86.672" stroke="#141414" stroke-width="0.4"/>
<line x1="172.166" y1="86.672" x2="174.226" y2="119.184" stroke="#141414" stroke-width="0.4"/>
<line x1="174.226" y1="119.184" x2="167.682" y2="126.594" stroke="#141414" stroke-width="0.4"/>
<line x1="139.874" y1="219.72" x2="139.479" y2="219.898" stroke="#141414" stroke-width="0.4"/>
<line x1="139.479" y1="219.898" x2="96.108" y2="234.825" stroke="#141414" stroke-width="0.4"/>
<line x1="96.108" y1="234.825" x2="97.449" y2="238.851" stroke="#141414" stroke-width="0.4"/>
<line x1="185.991" y1="182.776" x2="189.9" y2="172.18" stroke="#141414" stroke-width="0.4"/>
<line x1="189.9" y1="172.18" x2="177.083" y2="132.852" stroke="#141414" stroke-width="0.4"/>
<line x1="177.083" y1="132.852" x2="167.682" y2="126.594" stroke="#141414" stroke-width="0.4"/>
<line x1="97.449" y1="238.851" x2="81.831" y2="236.266" stroke="#141414" stroke-width="0.4"/>
<line x1="81.831" y1="236.266" x2="63.713" y2="241.751" stroke="#141414" stroke-width="0.4"/>
<line x1="63.713" y1="241.751" x2="52.153" y2="252.565" stroke="#141414" stroke-width="0.4"/>
<line x1="134.13" y1="211.097" x2="133.71" y2="211.203" stroke="#141414" stroke-width="0.4"/>
<line x1="133.71" y1="211.203" x2="88.399" y2="218.326" stroke="#141414" stroke-width="0.4"/>
<line x1="88.399" y1="218.326" x2="89.016" y2="222.524" stroke="#141414" stroke-width="0.4"/>
<line x1="89.016" y1="222.524" x2="74.09" y2="217.251" stroke="#141414" stroke-width="0.4"/>
<line x1="74.09" y1="217.251" x2="55.292" y2="219.488" stroke="#141414" stroke-width="0.4"/>
<line x1="55.292" y1="219.488" x2="42.021" y2="228.117" stroke="#141414" stroke-width="0.4"/>
<line x1="129.981" y1="201.603" x2="129.549" y2="201.635" stroke="#141414" stroke-width="0.4"/>
<line x1="129.549" y1="201.635" x2="83.69" y2="200.734" stroke="#141414" stroke-width="0.4"/>
<line x1="83.69" y1="200.734" x2="83.564" y2="204.976" stroke="#141414" stroke-width="0.4"/>
<line x1="83.564" y1="204.976" x2="69.789" y2="197.177" stroke="#141414" stroke-width="0.4"/>
<line x1="69.789" y1="197.177" x2="50.889" y2="196.096" stroke="#141414" stroke-width="0.4"/>
<line x1="50.889" y1="196.096" x2="36.315" y2="202.274" stroke="#141414" stroke-width="0.4"/>
<line x1="127.553" y1="191.531" x2="127.123" y2="191.487" stroke="#141414" stroke-width="0.4"/>
<line x1="127.123" y1="191.487" x2="82.126" y2="182.59" stroke="#141414" stroke-width="0.4"/>
<line x1="82.126" y1="182.59" x2="81.261" y2="186.745" stroke="#141414" stroke-width="0.4"/>
<line x1="81.261" y1="186.745" x2="69.06" y2="176.66" stroke="#141414" stroke-width="0.4"/>
<line x1="69.06" y1="176.66" x2="50.639" y2="172.294" stroke="#141414" stroke-width="0.4"/>
<line x1="50.639" y1="172.294" x2="35.21" y2="175.832" stroke="#141414" stroke-width="0.4"/>
<line x1="126.922" y1="181.19" x2="126.506" y2="181.071" stroke="#141414" stroke-width="0.4"/>
<line x1="126.506" y1="181.071" x2="83.755" y2="164.452" stroke="#141414" stroke-width="0.4"/>
<line x1="83.755" y1="164.452" x2="82.177" y2="168.392" stroke="#141414" stroke-width="0.4"/>
<line x1="82.178" y1="168.392" x2="71.925" y2="156.33" stroke="#141414" stroke-width="0.4"/>
<line x1="71.925" y1="156.33" x2="54.55" y2="148.815" stroke="#141414" stroke-width="0.4"/>
<line x1="54.55" y1="148.815" x2="38.74" y2="149.604" stroke="#141414" stroke-width="0.4"/>
<line x1="128.107" y1="170.898" x2="127.718" y2="170.708" stroke="#141414" stroke-width="0.4"/>
<line x1="127.718" y1="170.708" x2="88.526" y2="146.877" stroke="#141414" stroke-width="0.4"/>
<line x1="88.526" y1="146.877" x2="86.285" y2="150.481" stroke="#141414" stroke-width="0.4"/>
<line x1="86.286" y1="150.481" x2="78.297" y2="136.814" stroke="#141414" stroke-width="0.4"/>
<line x1="78.297" y1="136.814" x2="62.502" y2="126.38" stroke="#141414" stroke-width="0.4"/>
<line x1="62.502" y1="126.38" x2="46.798" y2="124.395" stroke="#141414" stroke-width="0.4"/>
<line x1="131.071" y1="160.97" x2="130.721" y2="160.715" stroke="#141414" stroke-width="0.4"/>
<line x1="130.721" y1="160.715" x2="96.295" y2="130.406" stroke="#141414" stroke-width="0.4"/>
<line x1="96.295" y1="130.406" x2="93.459" y2="133.563" stroke="#141414" stroke-width="0.4"/>
<line x1="93.459" y1="133.563" x2="87.981" y2="118.711" stroke="#141414" stroke-width="0.4"/>
<line x1="87.981" y1="118.711" x2="74.251" y2="105.678" stroke="#141414" stroke-width="0.4"/>
<line x1="74.251" y1="105.678" x2="59.134" y2="100.981" stroke="#141414" stroke-width="0.4"/>
<line x1="135.724" y1="151.713" x2="135.424" y2="151.401" stroke="#141414" stroke-width="0.4"/>
<line x1="135.424" y1="151.401" x2="106.82" y2="115.545" stroke="#141414" stroke-width="0.4"/>
<line x1="106.82" y1="115.545" x2="103.477" y2="118.157" stroke="#141414" stroke-width="0.4"/>
<line x1="103.477" y1="118.157" x2="100.677" y2="102.578" stroke="#141414" stroke-width="0.4"/>
<line x1="100.677" y1="102.578" x2="89.434" y2="87.347" stroke="#141414" stroke-width="0.4"/>
<line x1="89.434" y1="87.347" x2="75.37" y2="80.082" stroke="#141414" stroke-width="0.4"/>
<line x1="141.922" y1="143.411" x2="141.681" y2="143.052" stroke="#141414" stroke-width="0.4"/>
<line x1="141.681" y1="143.052" x2="119.78" y2="102.75" stroke="#141414" stroke-width="0.4"/>
<line x1="119.78" y1="102.75" x2="116.031" y2="104.739" stroke="#141414" stroke-width="0.4"/>
<line x1="116.031" y1="104.739" x2="115.995" y2="88.909" stroke="#141414" stroke-width="0.4"/>
<line x1="115.995" y1="88.909" x2="107.586" y2="71.949" stroke="#141414" stroke-width="0.4"/>
<line x1="107.586" y1="71.949" x2="95.007" y2="62.339" stroke="#141414" stroke-width="0.4"/>
<line x1="149.475" y1="136.319" x2="149.301" y2="135.923" stroke="#141414" stroke-width="0.4"/>
<line x1="149.301" y1="135.923" x2="134.775" y2="92.416" stroke="#141414" stroke-width="0.4"/>
<line x1="134.775" y1="92.416" x2="130.736" y2="93.719" stroke="#141414" stroke-width="0.4"/>
<line x1="130.736" y1="93.719" x2="133.466" y2="78.127" stroke="#141414" stroke-width="0.4"/>
<line x1="133.466" y1="78.127" x2="128.148" y2="59.959" stroke="#141414" stroke-width="0.4"/>
<line x1="128.148" y1="59.959" x2="117.441" y2="48.299" stroke="#141414" stroke-width="0.4"/>
<line x1="158.15" y1="130.656" x2="158.048" y2="130.235" stroke="#141414" stroke-width="0.4"/>
<line x1="158.048" y1="130.235" x2="151.344" y2="84.859" stroke="#141414" stroke-width="0.4"/>
<line x1="151.344" y1="84.859" x2="147.14" y2="85.437" stroke="#141414" stroke-width="0.4"/>
<circle cx="148.253" cy="21.123" r="1.80" fill="#ffe082" stroke="#464646" stroke-width="0.2"/>
<text x="148.253" y="21.98" font-size="2.44" text-anchor="middle" fill="#141414">1</text>
<circle cx="162.846" cy="17.213" r="1.80" fill="#ffe082" stroke="#464646" stroke-width="0.2"/>
<text x="162.846" y="18.07" font-size="2.44" text-anchor="middle" fill="#141414">2</text>
<circle cx="39.223" cy="262.813" r="1.80" fill="#ffe082" stroke="#464646" stroke-width="0.2"/>
<text x="39.223" y="263.67" font-size="2.44" text-anchor="middle" fill="#141414">3</text>
<circle cx="27.5" cy="235.949" r="1.80" fill="#ffe082" stroke="#464646" stroke-width="0.2"/>
<text x="27.5" y="236.80" font-size="2.44" text-anchor="middle" fill="#141414">4</text>
<circle cx="20.649" cy="207.45" r="1.80" fill="#ffe082" stroke="#464646" stroke-width="0.2"/>
<text x="20.649" y="208.30" font-size="2.44" text-anchor="middle" fill="#141414">5</text>
<circle cx="18.881" cy="178.192" r="1.80" fill="#ffe082" stroke="#464646" stroke-width="0.2"/>
<text x="18.881" y="179.05" font-size="2.44" text-anchor="middle" fill="#141414">6</text>
<circle cx="22.25" cy="149.075" r="1.80" fill="#ffe082" stroke="#464646" stroke-width="0.2"/>
<text x="22.25" y="149.93" font-size="2.44" text-anchor="middle" fill="#141414">7</text>
<circle cx="30.653" cy="120.994" r="1.80" fill="#ffe082" stroke="#464646" stroke-width="0.2"/>
<text x="30.653" y="121.85" font-size="2.44" text-anchor="middle" fill="#141414">8</text>
<circle cx="43.832" cy="94.813" r="1.80" fill="#ffe082" stroke="#464646" stroke-width="0.2"/>
<text x="43.832" y="95.67" font-size="2.44" text-anchor="middle" fill="#141414">9</text>
<circle cx="61.38" cy="71.335" r="1.80" fill="#ffe082" stroke="#464646" stroke-width="0.2"/>
<text x="61.38" y="72.19" font-size="2.44" text-anchor="middle" fill="#141414">10</text>
<circle cx="82.76" cy="51.284" r="1.80" fill="#ffe082" stroke="#464646" stroke-width="0.2"/>
<text x="82.76" y="52.14" font-size="2.44" text-anchor="middle" fill="#141414">11</text>
<circle cx="107.313" cy="35.275" r="1.80" fill="#ffe082" stroke="#464646" stroke-width="0.2"/>
<text x="107.313" y="36.13" font-size="2.44" text-anchor="middle" fill="#141414">12</text>
<circle cx="148.04" cy="61.534" r="1.80" fill="#ffe082" stroke="#464646" stroke-width="0.2"/>
<text x="148.04" y="62.39" font-size="2.44" text-anchor="middle" fill="#141414">13</text>
<circle cx="169.8" cy="56.769" r="1.80" fill="#ffe082" stroke="#464646" stroke-width="0.2"/>
<text x="169.8" y="57.62" font-size="2.44" text-anchor="middle" fill="#141414">14</text>
<circle cx="169.703" cy="103.15" r="1.80" fill="#ffe082" stroke="#464646" stroke-width="0.2"/>
<text x="169.703" y="104.00" font-size="2.44" text-anchor="middle" fill="#141414">15</text>
<circle cx="180.164" cy="153.6" r="1.80" fill="#ffe082" stroke="#464646" stroke-width="0.2"/>
<text x="180.164" y="154.45" font-size="2.44" text-anchor="middle" fill="#141414">17</text>
<circle cx="73.787" cy="242.358" r="1.80" fill="#ffe082" stroke="#464646" stroke-width="0.2"/>
<text x="73.787" y="243.21" font-size="2.44" text-anchor="middle" fill="#141414">18</text>
<circle cx="65.105" cy="221.845" r="1.80" fill="#ffe082" stroke="#464646" stroke-width="0.2"/>
<text x="65.105" y="222.70" font-size="2.44" text-anchor="middle" fill="#141414">20</text>
<circle cx="60.139" cy="200.131" r="1.80" fill="#ffe082" stroke="#464646" stroke-width="0.2"/>
<text x="60.139" y="200.99" font-size="2.44" text-anchor="middle" fill="#141414">22</text>
<circle cx="59.042" cy="177.883" r="1.80" fill="#ffe082" stroke="#464646" stroke-width="0.2"/>
<text x="59.042" y="178.74" font-size="2.44" text-anchor="middle" fill="#141414">24</text>
<circle cx="61.848" cy="155.785" r="1.80" fill="#ffe082" stroke="#464646" stroke-width="0.2"/>
<text x="61.848" y="156.64" font-size="2.44" text-anchor="middle" fill="#141414">26</text>
<circle cx="68.471" cy="134.517" r="1.80" fill="#ffe082" stroke="#464646" stroke-width="0.2"/>
<text x="68.471" y="135.37" font-size="2.44" text-anchor="middle" fill="#141414">28</text>
<circle cx="78.706" cy="114.733" r="1.80" fill="#ffe082" stroke="#464646" stroke-width="0.2"/>
<text x="78.706" y="115.59" font-size="2.44" text-anchor="middle" fill="#141414">30</text>
<circle cx="92.239" cy="97.041" r="1.80" fill="#ffe082" stroke="#464646" stroke-width="0.2"/>
<text x="92.239" y="97.90" font-size="2.44" text-anchor="middle" fill="#141414">32</text>
<circle cx="108.655" cy="81.984" r="1.80" fill="#ffe082" stroke="#464646" stroke-width="0.2"/>
<text x="108.655" y="82.84" font-size="2.44" text-anchor="middle" fill="#141414">34</text>
<circle cx="127.448" cy="70.026" r="1.80" fill="#ffe082" stroke="#464646" stroke-width="0.2"/>
<text x="127.448" y="70.88" font-size="2.44" text-anchor="middle" fill="#141414">36</text>
<circle cx="97.45" cy="283.6" r="4.6" fill="#eaf1fe" stroke="#2e78e6" stroke-width="0.3"/>
<text x="97.45" y="285.40000000000003" font-size="5.2" text-anchor="middle" fill="#14306e" font-weight="bold">1</text>
</svg>
