<svg xmlns="http://www.w3.org/2000/svg" xmlns:xlink="http://www.w3.org/1999/xlink" width="210.00mm" height="297.00mm" viewBox="0 0 210.00 297.00">
<rect x="0" y="0" width="210.00" height="297.00" fill="#ffffff" stroke="#cccccc" stroke-width="0.2"/>
<polygon points="91.524,145.487 98.523,156.643 98.523,208.706 91.524,219.862" fill="rgb(216,216,216)"/>
<polygon points="79.376,145.487 72.376,137.306 72.376,99.126 79.376,90.945" fill="rgb(216,216,216)"/>
<polygon points="79.376,145.487 72.376,156.643 72.376,208.706 79.376,219.862" fill="rgb(216,216,216)"/>
<polygon points="91.524,90.945 102.68,83.945 154.743,83.945 165.899,90.945" fill="rgb(216,216,216)"/>
<polygon points="5.0,274.404 16.156,281.404 68.219,281.404 79.376,274.404" fill="rgb(216,216,216)"/>
<polygon points="165.899,145.487 172.899,137.306 172.899,99.126 165.899,90.945" fill="rgb(216,216,216)"/>
<polygon points="91.524,16.569 89.701,10.495 81.198,10.495 79.376,16.569" fill="rgb(216,216,216)"/>
<polygon points="91.524,145.487 98.523,156.643 98.523,208.706 91.524,219.862" fill="#99d9fa"/>
<line x1="91.523" y1="145.487" x2="79.376" y2="145.487" stroke="#8c8c8c" stroke-width="0.3" stroke-dasharray="1.2,0.8"/>
<line x1="91.523" y1="90.945" x2="91.523" y2="145.487" stroke="#8c8c8c" stroke-width="0.3" stroke-dasharray="1.2,0.8"/>
<line x1="79.376" y1="90.945" x2="91.523" y2="90.945" stroke="#8c8c8c" stroke-width="0.3" stroke-dasharray="1.2,0.8"/>
<line x1="91.523" y1="219.863" x2="79.376" y2="219.863" stroke="#8c8c8c" stroke-width="0.3" stroke-dasharray="1.2,0.8"/>
<line x1="79.376" y1="219.863" x2="79.376" y2="274.404" stroke="#8c8c8c" stroke-width="0.3" stroke-dasharray="1.2,0.8"/>
<line x1="91.524" y1="219.862" x2="91.524" y2="145.487" stroke="#8c8c8c" stroke-width="0.3" stroke-dasharray="1.2,0.8"/>
<line x1="79.376" y1="90.945" x2="79.376" y2="145.487" stroke="#8c8c8c" stroke-width="0.3" stroke-dasharray="1.2,0.8"/>
<line x1="79.376" y1="219.862" x2="79.376" y2="145.487" stroke="#8c8c8c" stroke-width="0.3" stroke-dasharray="1.2,0.8"/>
<line x1="165.899" y1="90.945" x2="91.524" y2="90.945" stroke="#8c8c8c" stroke-width="0.3" stroke-dasharray="1.2,0.8"/>
<line x1="79.376" y1="274.404" x2="5.0" y2="274.404" stroke="#8c8c8c" stroke-width="0.3" stroke-dasharray="1.2,0.8"/>
<line x1="165.899" y1="90.945" x2="165.899" y2="145.487" stroke="#8c8c8c" stroke-width="0.3" stroke-dasharray="1.2,0.8"/>
<line x1="79.376" y1="16.569" x2="91.524" y2="16.569" stroke="#8c8c8c" stroke-width="0.3" stroke-dasharray="1.2,0.8"/>
<line x1="165.899" y1="145.487" x2="91.523" y2="145.487" stroke="#141414" stroke-width="0.4"/>
<line x1="5.0" y1="274.404" x2="5.0" y2="219.863" stroke="#141414" stroke-width="0.4"/>
<line x1="5.0" y1="219.863" x2="79.376" y2="219.863" stroke="#141414" stroke-width="0.4"/>
<line x1="91.523" y1="16.569" x2="91.523" y2="90.945" stroke="#141414" stroke-width="0.4"/>
<line x1="79.376" y1="90.945" x2="79.376" y2="16.569" stroke="#141414" stroke-width="0.4"/>
<line x1="91.523" y1="219.863" x2="91.523" y2="274.404" stroke="#141414" stroke-width="0.4"/>
<line x1="91.523" y1="274.404" x2="79.376" y2="274.404" stroke="#141414" stroke-width="0.4"/>
<line x1="91.524" y1="145.487" x2="98.523" y2="156.643" stroke="#141414" stroke-width="0.4"/>
<line x1="98.523" y1="156.643" x2="98.523" y2="208.706" stroke="#141414" stroke-width="0.4"/>
<line x1="98.523" y1="208.706" x2="91.524" y2="219.862" stroke="#141414" stroke-width="0.4"/>
<line x1="79.376" y1="145.487" x2="72.376" y2="137.306" stroke="#141414" stroke-width="0.4"/>
<line x1="72.376" y1="137.306" x2="72.376" y2="99.126" stroke="#141414" stroke-width="0.4"/>
<line x1="72.376" y1="99.126" x2="79.376" y2="90.945" stroke="#141414" stroke-width="0.4"/>
<line x1="79.376" y1="145.487" x2="72.376" y2="156.643" stroke="#141414" stroke-width="0.4"/>
<line x1="72.376" y1="156.643" x2="72.376" y2="208.706" stroke="#141414" stroke-width="0.4"/>
<line x1="72.376" y1="208.706" x2="79.376" y2="219.862" stroke="#141414" stroke-width="0.4"/>
<line x1="91.524" y1="90.945" x2="102.68" y2="83.945" stroke="#141414" stroke-width="0.4"/>
<line x1="102.68" y1="83.945" x2="154.743" y2="83.945" stroke="#141414" stroke-width="0.4"/>
<line x1="154.743" y1="83.945" x2="165.899" y2="90.945" stroke="#141414" stroke-width="0.4"/>
<line x1="5.0" y1="274.404" x2="16.156" y2="281.404" stroke="#141414" stroke-width="0.4"/>
<line x1="16.156" y1="281.404" x2="68.219" y2="281.404" stroke="#141414" stroke-width="0.4"/>
<line x1="68.219" y1="281.404" x2="79.376" y2="274.404" stroke="#141414" stroke-width="0.4"/>
<line x1="165.899" y1="145.487" x2="172.899" y2="137.306" stroke="#141414" stroke-width="0.4"/>
<line x1="172.899" y1="137.306" x2="172.899" y2="99.126" stroke="#141414" stroke-width="0.4"/>
<line x1="172.899" y1="99.126" x2="165.899" y2="90.945" stroke="#141414" stroke-width="0.4"/>
<line x1="91.524" y1="16.569" x2="89.701" y2="10.495" stroke="#141414" stroke-width="0.4"/>
<line x1="89.701" y1="10.495" x2="81.198" y2="10.495" stroke="#141414" stroke-width="0.4"/>
<line x1="81.198" y1="10.495" x2="79.376" y2="16.569" stroke="#141414" stroke-width="0.4"/>
<circle cx="95.024" cy="182.675" r="0.42" fill="#99d9fa" stroke="#464646" stroke-width="0.2"/>
<text x="95.024" y="182.88" font-size="0.58" text-anchor="middle" fill="#141414">1</text>
<circle cx="75.876" cy="118.216" r="0.42" fill="#ffe082" stroke="#464646" stroke-width="0.2"/>
<text x="75.876" y="118.42" font-size="0.58" text-anchor="middle" fill="#141414">2</text>
<circle cx="75.876" cy="182.675" r="0.42" fill="#ffe082" stroke="#464646" stroke-width="0.2"/>
<text x="75.876" y="182.88" font-size="0.58" text-anchor="middle" fill="#141414">3</text>
<circle cx="128.711" cy="87.445" r="0.42" fill="#ffe082" stroke="#464646" stroke-width="0.2"/>
<text x="128.711" y="87.65" font-size="0.58" text-anchor="middle" fill="#141414">4</text>
<circle cx="42.188" cy="277.904" r="0.42" fill="#ffe082" stroke="#464646" stroke-width="0.2"/>
<text x="42.188" y="278.11" font-size="0.58" text-anchor="middle" fill="#141414">5</text>
<circle cx="169.399" cy="118.216" r="0.42" fill="#ffe082" stroke="#464646" stroke-width="0.2"/>
<text x="169.399" y="118.42" font-size="0.58" text-anchor="middle" fill="#141414">6</text>
<circle cx="85.45" cy="13.532" r="0.42" fill="#ffe082" stroke="#464646" stroke-width="0.2"/>
<text x="85.45" y="13.73" font-size="0.58" text-anchor="middle" fill="#141414">7</text>
<circle cx="141.107" cy="109.126" r="4.60" fill="#eaf1fe" stroke="#2e78e6" stroke-width="0.3"/>
<text x="141.107" y="110.93" font-size="5.20" text-anchor="middle" fill="#14306e" font-weight="bold">1</text>
<text x="205.0" y="295.0" font-size="3.2" text-anchor="end" fill="#737373" font-family="sans-serif">1 / 3</text>
</svg>
