<svg xmlns="http://www.w3.org/2000/svg" xmlns:xlink="http://www.w3.org/1999/xlink" width="210.00mm" height="297.00mm" viewBox="0 0 210.00 297.00">
<rect x="0" y="0" width="210.00" height="297.00" fill="#ffffff" stroke="#cccccc" stroke-width="0.2"/>
<polygon points="37.15,20.076 33.822,13.505 41.389,5.937 47.961,9.265" fill="rgb(216,216,216)"/>
<polygon points="19.832,36.622 16.619,43.309 24.728,51.417 31.415,48.205" fill="rgb(216,216,216)"/>
<polygon points="19.832,36.622 13.005,39.526 5.274,31.056 8.788,24.522" fill="rgb(216,216,216)"/>
<polygon points="47.961,30.887 54.532,34.215 62.1,26.647 58.772,20.076" fill="rgb(216,216,216)"/>
<polygon points="31.415,48.205 28.511,55.032 36.981,62.762 43.515,59.249" fill="rgb(216,216,216)"/>
<polygon points="58.772,20.076 62.1,13.505 54.532,5.937 47.961,9.265" fill="rgb(216,216,216)"/>
<polygon points="71.005,50.976 74.25,58.144 63.82,71.271 56.105,69.729" fill="rgb(216,216,216)"/>
<polygon points="37.15,20.076 33.822,13.505 41.389,5.937 47.961,9.265" fill="#99d9fa"/>
<line x1="19.832" y1="36.622" x2="37.15" y2="20.076" stroke="#8c8c8c" stroke-width="0.3" stroke-dasharray="1.2,0.8"/>
<line x1="47.961" y1="30.887" x2="37.15" y2="20.076" stroke="#8c8c8c" stroke-width="0.3" stroke-dasharray="1.2,0.8"/>
<line x1="47.961" y1="30.887" x2="31.415" y2="48.205" stroke="#8c8c8c" stroke-width="0.3" stroke-dasharray="1.2,0.8"/>
<line x1="59.254" y1="41.194" x2="43.515" y2="59.249" stroke="#8c8c8c" stroke-width="0.3" stroke-dasharray="1.2,0.8"/>
<line x1="56.105" y1="69.729" x2="43.515" y2="59.249" stroke="#8c8c8c" stroke-width="0.3" stroke-dasharray="1.2,0.8"/>
<line x1="47.961" y1="9.265" x2="37.15" y2="20.076" stroke="#8c8c8c" stroke-width="0.3" stroke-dasharray="1.2,0.8"/>
<line x1="31.415" y1="48.205" x2="19.832" y2="36.622" stroke="#8c8c8c" stroke-width="0.3" stroke-dasharray="1.2,0.8"/>
<line x1="8.788" y1="24.522" x2="19.832" y2="36.622" stroke="#8c8c8c" stroke-width="0.3" stroke-dasharray="1.2,0.8"/>
<line x1="58.772" y1="20.076" x2="47.961" y2="30.887" stroke="#8c8c8c" stroke-width="0.3" stroke-dasharray="1.2,0.8"/>
<line x1="43.515" y1="59.249" x2="31.415" y2="48.205" stroke="#8c8c8c" stroke-width="0.3" stroke-dasharray="1.2,0.8"/>
<line x1="47.961" y1="9.265" x2="58.772" y2="20.076" stroke="#8c8c8c" stroke-width="0.3" stroke-dasharray="1.2,0.8"/>
<line x1="56.105" y1="69.729" x2="71.005" y2="50.976" stroke="#8c8c8c" stroke-width="0.3" stroke-dasharray="1.2,0.8"/>
<line x1="26.843" y1="8.783" x2="37.15" y2="20.076" stroke="#141414" stroke-width="0.4"/>
<line x1="45.624" y1="82.319" x2="33.034" y2="71.839" stroke="#141414" stroke-width="0.4"/>
<line x1="56.105" y1="69.729" x2="45.624" y2="82.319" stroke="#141414" stroke-width="0.4"/>
<line x1="47.961" y1="30.887" x2="59.254" y2="41.194" stroke="#141414" stroke-width="0.4"/>
<line x1="33.034" y1="71.839" x2="43.515" y2="59.249" stroke="#141414" stroke-width="0.4"/>
<line x1="59.254" y1="41.194" x2="71.005" y2="50.976" stroke="#141414" stroke-width="0.4"/>
<line x1="8.788" y1="24.522" x2="26.843" y2="8.783" stroke="#141414" stroke-width="0.4"/>
<line x1="37.15" y1="20.076" x2="33.822" y2="13.505" stroke="#141414" stroke-width="0.4"/>
<line x1="33.822" y1="13.505" x2="41.389" y2="5.937" stroke="#141414" stroke-width="0.4"/>
<line x1="41.389" y1="5.937" x2="47.961" y2="9.265" stroke="#141414" stroke-width="0.4"/>
<line x1="19.832" y1="36.622" x2="16.619" y2="43.309" stroke="#141414" stroke-width="0.4"/>
<line x1="16.619" y1="43.309" x2="24.728" y2="51.417" stroke="#141414" stroke-width="0.4"/>
<line x1="24.728" y1="51.417" x2="31.415" y2="48.205" stroke="#141414" stroke-width="0.4"/>
<line x1="19.832" y1="36.622" x2="13.005" y2="39.526" stroke="#141414" stroke-width="0.4"/>
<line x1="13.005" y1="39.526" x2="5.274" y2="31.056" stroke="#141414" stroke-width="0.4"/>
<line x1="5.274" y1="31.056" x2="8.788" y2="24.522" stroke="#141414" stroke-width="0.4"/>
<line x1="47.961" y1="30.887" x2="54.532" y2="34.215" stroke="#141414" stroke-width="0.4"/>
<line x1="54.532" y1="34.215" x2="62.1" y2="26.647" stroke="#141414" stroke-width="0.4"/>
<line x1="62.1" y1="26.647" x2="58.772" y2="20.076" stroke="#141414" stroke-width="0.4"/>
<line x1="31.415" y1="48.205" x2="28.511" y2="55.032" stroke="#141414" stroke-width="0.4"/>
<line x1="28.511" y1="55.032" x2="36.981" y2="62.762" stroke="#141414" stroke-width="0.4"/>
<line x1="36.981" y1="62.762" x2="43.515" y2="59.249" stroke="#141414" stroke-width="0.4"/>
<line x1="58.772" y1="20.076" x2="62.1" y2="13.505" stroke="#141414" stroke-width="0.4"/>
<line x1="62.1" y1="13.505" x2="54.532" y2="5.937" stroke="#141414" stroke-width="0.4"/>
<line x1="54.532" y1="5.937" x2="47.961" y2="9.265" stroke="#141414" stroke-width="0.4"/>
<line x1="71.005" y1="50.976" x2="74.25" y2="58.144" stroke="#141414" stroke-width="0.4"/>
<line x1="74.25" y1="58.144" x2="63.82" y2="71.271" stroke="#141414" stroke-width="0.4"/>
<line x1="63.82" y1="71.271" x2="56.105" y2="69.729" stroke="#141414" stroke-width="0.4"/>
<circle cx="40.08" cy="12.195" r="1.92" fill="#99d9fa" stroke="#464646" stroke-width="0.2"/>
<text x="40.08" y="12.85" font-size="1.88" text-anchor="middle" fill="#141414">154</text>
<circle cx="23.148" cy="44.888" r="1.92" fill="#ffe082" stroke="#464646" stroke-width="0.2"/>
<text x="23.148" y="45.55" font-size="1.88" text-anchor="middle" fill="#141414">155</text>
<circle cx="11.725" cy="32.932" r="1.92" fill="#ffe082" stroke="#464646" stroke-width="0.2"/>
<text x="11.725" y="33.59" font-size="1.88" text-anchor="middle" fill="#141414">156</text>
<circle cx="55.841" cy="27.956" r="1.92" fill="#ffe082" stroke="#464646" stroke-width="0.2"/>
<text x="55.841" y="28.62" font-size="1.88" text-anchor="middle" fill="#141414">157</text>
<circle cx="35.105" cy="56.312" r="1.92" fill="#ffe082" stroke="#464646" stroke-width="0.2"/>
<text x="35.105" y="56.97" font-size="1.88" text-anchor="middle" fill="#141414">158</text>
<circle cx="55.841" cy="12.195" r="1.92" fill="#ffe082" stroke="#464646" stroke-width="0.2"/>
<text x="55.841" y="12.85" font-size="1.88" text-anchor="middle" fill="#141414">159</text>
<circle cx="66.295" cy="62.53" r="1.92" fill="#ffe082" stroke="#464646" stroke-width="0.2"/>
<text x="66.295" y="63.19" font-size="1.88" text-anchor="middle" fill="#141414">160</text>
<circle cx="33.069" cy="38.571" r="3.64" fill="#eaf1fe" stroke="#2e78e6" stroke-width="0.3"/>
<text x="33.069" y="40.00" font-size="4.12" text-anchor="middle" fill="#14306e" font-weight="bold">18</text>
<text x="205.0" y="295.0" font-size="3.2" text-anchor="end" fill="#737373" font-family="sans-serif">4 / 4</text>
<g pointer-events="none"><text x="105.0" y="83.2" text-anchor="middle" font-family="sans-serif" font-size="12.4" fill="#9aa0a6" fill-opacity="0.3" transform="rotate(-28 105.0 83.2)">papercraft.kr</text><text x="105.0" y="148.5" text-anchor="middle" font-family="sans-serif" font-size="12.4" fill="#9aa0a6" fill-opacity="0.3" transform="rotate(-28 105.0 148.5)">papercraft.kr</text><text x="105.0" y="213.8" text-anchor="middle" font-family="sans-serif" font-size="12.4" fill="#9aa0a6" fill-opacity="0.3" transform="rotate(-28 105.0 213.8)">papercraft.kr</text></g></svg>
