<svg xmlns="http://www.w3.org/2000/svg" xmlns:xlink="http://www.w3.org/1999/xlink" width="210.00mm" height="297.00mm" viewBox="0 0 210.00 297.00">
<rect x="0" y="0" width="210.00" height="297.00" fill="#ffffff" stroke="#cccccc" stroke-width="0.2"/>
<polygon points="125.42,9.243 133.409,7.274 160.3,20.016 163.836,27.446" fill="rgb(216,216,216)"/>
<polygon points="42.038,57.598 41.665,68.87 61.816,110.996 70.825,117.779" fill="rgb(216,216,216)"/>
<polygon points="163.836,27.446 151.682,36.398 88.183,54.871 73.124,53.837" fill="rgb(216,216,216)"/>
<polygon points="73.124,53.837 82.059,61.357 101.501,106.116 100.897,117.779" fill="rgb(216,216,216)"/>
<polygon points="42.038,57.598 41.665,68.87 61.816,110.996 70.825,117.779" fill="#99d9fa"/>
<line x1="125.42" y1="9.243" x2="73.124" y2="53.837" stroke="#8c8c8c" stroke-width="0.3" stroke-dasharray="1.2,0.8"/>
<line x1="73.124" y1="53.837" x2="42.038" y2="57.598" stroke="#8c8c8c" stroke-width="0.3" stroke-dasharray="1.2,0.8"/>
<line x1="78.816" y1="162.922" x2="70.825" y2="117.779" stroke="#8c8c8c" stroke-width="0.3" stroke-dasharray="1.2,0.8"/>
<line x1="70.825" y1="117.779" x2="100.897" y2="117.779" stroke="#8c8c8c" stroke-width="0.3" stroke-dasharray="1.2,0.8"/>
<line x1="91.09" y1="143.063" x2="70.825" y2="117.779" stroke="#8c8c8c" stroke-width="0.3" stroke-dasharray="1.2,0.8"/>
<line x1="100.897" y1="117.779" x2="42.038" y2="57.598" stroke="#8c8c8c" stroke-width="0.3" stroke-dasharray="1.2,0.8"/>
<line x1="163.836" y1="27.446" x2="125.42" y2="9.243" stroke="#8c8c8c" stroke-width="0.3" stroke-dasharray="1.2,0.8"/>
<line x1="70.825" y1="117.779" x2="42.038" y2="57.598" stroke="#8c8c8c" stroke-width="0.3" stroke-dasharray="1.2,0.8"/>
<line x1="73.124" y1="53.837" x2="163.836" y2="27.446" stroke="#8c8c8c" stroke-width="0.3" stroke-dasharray="1.2,0.8"/>
<line x1="100.897" y1="117.779" x2="73.124" y2="53.837" stroke="#8c8c8c" stroke-width="0.3" stroke-dasharray="1.2,0.8"/>
<line x1="42.038" y1="57.598" x2="125.42" y2="9.243" stroke="#141414" stroke-width="0.4"/>
<line x1="14.768" y1="172.197" x2="5.0" y2="128.618" stroke="#141414" stroke-width="0.4"/>
<line x1="5.0" y1="128.618" x2="70.825" y2="117.779" stroke="#141414" stroke-width="0.4"/>
<line x1="78.816" y1="162.922" x2="14.768" y2="172.197" stroke="#141414" stroke-width="0.4"/>
<line x1="91.09" y1="143.063" x2="78.816" y2="162.922" stroke="#141414" stroke-width="0.4"/>
<line x1="125.42" y1="9.243" x2="133.409" y2="7.274" stroke="#141414" stroke-width="0.4"/>
<line x1="133.409" y1="7.274" x2="160.3" y2="20.016" stroke="#141414" stroke-width="0.4"/>
<line x1="160.3" y1="20.016" x2="163.836" y2="27.446" stroke="#141414" stroke-width="0.4"/>
<line x1="42.038" y1="57.598" x2="41.665" y2="68.87" stroke="#141414" stroke-width="0.4"/>
<line x1="41.665" y1="68.87" x2="61.816" y2="110.996" stroke="#141414" stroke-width="0.4"/>
<line x1="61.816" y1="110.996" x2="70.825" y2="117.779" stroke="#141414" stroke-width="0.4"/>
<line x1="163.836" y1="27.446" x2="151.682" y2="36.398" stroke="#141414" stroke-width="0.4"/>
<line x1="151.682" y1="36.398" x2="88.183" y2="54.871" stroke="#141414" stroke-width="0.4"/>
<line x1="88.183" y1="54.871" x2="73.124" y2="53.837" stroke="#141414" stroke-width="0.4"/>
<line x1="73.124" y1="53.837" x2="82.059" y2="61.357" stroke="#141414" stroke-width="0.4"/>
<line x1="82.059" y1="61.357" x2="101.501" y2="106.116" stroke="#141414" stroke-width="0.4"/>
<line x1="101.501" y1="106.116" x2="100.897" y2="117.779" stroke="#141414" stroke-width="0.4"/>
<circle cx="145.741" cy="15.995" r="2.29" fill="#ffe082" stroke="#464646" stroke-width="0.2"/>
<text x="145.741" y="16.78" font-size="2.24" text-anchor="middle" fill="#141414">9</text>
<circle cx="54.086" cy="88.811" r="2.29" fill="#99d9fa" stroke="#464646" stroke-width="0.2"/>
<text x="54.086" y="89.60" font-size="2.24" text-anchor="middle" fill="#141414">13</text>
<circle cx="119.206" cy="43.138" r="2.29" fill="#ffe082" stroke="#464646" stroke-width="0.2"/>
<text x="119.206" y="43.92" font-size="2.24" text-anchor="middle" fill="#141414">24</text>
<circle cx="89.395" cy="84.772" r="2.29" fill="#ffe082" stroke="#464646" stroke-width="0.2"/>
<text x="89.395" y="85.56" font-size="2.24" text-anchor="middle" fill="#141414">36</text>
<circle cx="30.198" cy="139.532" r="4.60" fill="#eaf1fe" stroke="#2e78e6" stroke-width="0.3"/>
<text x="30.198" y="141.33" font-size="5.20" text-anchor="middle" fill="#14306e" font-weight="bold">8</text>
<text x="205.0" y="295.0" font-size="3.2" text-anchor="end" fill="#737373" font-family="sans-serif">6 / 13</text>
</svg>
