<svg xmlns="http://www.w3.org/2000/svg" xmlns:xlink="http://www.w3.org/1999/xlink" width="210.00mm" height="297.00mm" viewBox="0 0 210.00 297.00">
<rect x="0" y="0" width="210.00" height="297.00" fill="#ffffff" stroke="#cccccc" stroke-width="0.2"/>
<polygon points="44.924,230.185 57.082,226.382 97.751,190.447 103.022,178.85" fill="rgb(216,216,216)"/>
<polygon points="49.676,130.081 44.564,127.612 57.811,107.699 58.007,107.16" fill="rgb(216,216,216)"/>
<polygon points="103.022,178.85 109.249,180.392 122.632,169.065 122.14,162.668" fill="rgb(216,216,216)"/>
<polygon points="16.031,35.374 21.317,28.065 53.855,16.908 62.515,19.436" fill="rgb(216,216,216)"/>
<polygon points="95.377,9.134 88.253,12.803 77.458,39.128 79.956,46.742" fill="rgb(216,216,216)"/>
<polygon points="95.377,9.134 101.399,16.215 105.387,51.951 101.074,60.185" fill="rgb(216,216,216)"/>
<polygon points="94.953,145.99 109.091,148.563 113.441,151.231 122.14,162.668" fill="rgb(216,216,216)"/>
<polygon points="101.074,60.185 103.8,69.703 93.161,107.551 85.875,114.255" fill="rgb(216,216,216)"/>
<polygon points="117.801,147.227 125.658,145.48 142.999,122.649 142.574,114.612" fill="rgb(216,216,216)"/>
<polygon points="85.875,114.255 96.701,108.74 100.882,108.619 112.007,113.5" fill="rgb(216,216,216)"/>
<polygon points="170.008,46.992 173.27,52.056 166.852,64.712 160.839,65.072" fill="rgb(216,216,216)"/>
<polygon points="170.008,46.992 175.822,42.245 178.861,17.17 174.35,11.171" fill="rgb(216,216,216)"/>
<line x1="49.676" y1="130.081" x2="103.022" y2="178.85" stroke="#8c8c8c" stroke-width="0.3" stroke-dasharray="1.2,0.8"/>
<line x1="94.953" y1="145.99" x2="49.676" y2="130.081" stroke="#8c8c8c" stroke-width="0.3" stroke-dasharray="1.2,0.8"/>
<line x1="103.022" y1="178.85" x2="94.953" y2="145.99" stroke="#8c8c8c" stroke-width="0.3" stroke-dasharray="1.2,0.8"/>
<line x1="58.007" y1="107.16" x2="16.032" y2="35.374" stroke="#8c8c8c" stroke-width="0.3" stroke-dasharray="1.2,0.8"/>
<line x1="56.323" y1="54.706" x2="58.007" y2="107.16" stroke="#8c8c8c" stroke-width="0.3" stroke-dasharray="1.2,0.8"/>
<line x1="58.007" y1="107.16" x2="85.876" y2="114.255" stroke="#8c8c8c" stroke-width="0.3" stroke-dasharray="1.2,0.8"/>
<line x1="85.876" y1="114.255" x2="56.323" y2="54.706" stroke="#8c8c8c" stroke-width="0.3" stroke-dasharray="1.2,0.8"/>
<line x1="101.074" y1="60.185" x2="79.957" y2="46.742" stroke="#8c8c8c" stroke-width="0.3" stroke-dasharray="1.2,0.8"/>
<line x1="79.957" y1="46.742" x2="85.876" y2="114.255" stroke="#8c8c8c" stroke-width="0.3" stroke-dasharray="1.2,0.8"/>
<line x1="112.007" y1="113.5" x2="117.801" y2="147.227" stroke="#8c8c8c" stroke-width="0.3" stroke-dasharray="1.2,0.8"/>
<line x1="157.31" y1="5.0" x2="170.008" y2="46.992" stroke="#8c8c8c" stroke-width="0.3" stroke-dasharray="1.2,0.8"/>
<line x1="139.079" y1="46.992" x2="170.008" y2="46.992" stroke="#8c8c8c" stroke-width="0.3" stroke-dasharray="1.2,0.8"/>
<line x1="119.636" y1="80.129" x2="142.574" y2="114.612" stroke="#8c8c8c" stroke-width="0.3" stroke-dasharray="1.2,0.8"/>
<line x1="160.839" y1="65.072" x2="139.079" y2="46.992" stroke="#8c8c8c" stroke-width="0.3" stroke-dasharray="1.2,0.8"/>
<line x1="16.032" y1="35.374" x2="56.323" y2="54.706" stroke="#8c8c8c" stroke-width="0.3" stroke-dasharray="1.2,0.8"/>
<line x1="56.323" y1="54.706" x2="62.515" y2="19.436" stroke="#8c8c8c" stroke-width="0.3" stroke-dasharray="1.2,0.8"/>
<line x1="85.876" y1="114.255" x2="94.953" y2="145.99" stroke="#8c8c8c" stroke-width="0.3" stroke-dasharray="1.2,0.8"/>
<line x1="160.839" y1="65.072" x2="119.636" y2="80.129" stroke="#8c8c8c" stroke-width="0.3" stroke-dasharray="1.2,0.8"/>
<line x1="119.636" y1="80.129" x2="139.079" y2="46.992" stroke="#8c8c8c" stroke-width="0.3" stroke-dasharray="1.2,0.8"/>
<line x1="103.022" y1="178.85" x2="44.924" y2="230.185" stroke="#8c8c8c" stroke-width="0.3" stroke-dasharray="1.2,0.8"/>
<line x1="58.007" y1="107.16" x2="49.676" y2="130.081" stroke="#8c8c8c" stroke-width="0.3" stroke-dasharray="1.2,0.8"/>
<line x1="122.14" y1="162.668" x2="103.022" y2="178.85" stroke="#8c8c8c" stroke-width="0.3" stroke-dasharray="1.2,0.8"/>
<line x1="62.515" y1="19.436" x2="16.031" y2="35.374" stroke="#8c8c8c" stroke-width="0.3" stroke-dasharray="1.2,0.8"/>
<line x1="79.956" y1="46.742" x2="95.377" y2="9.134" stroke="#8c8c8c" stroke-width="0.3" stroke-dasharray="1.2,0.8"/>
<line x1="101.074" y1="60.185" x2="95.377" y2="9.134" stroke="#8c8c8c" stroke-width="0.3" stroke-dasharray="1.2,0.8"/>
<line x1="122.14" y1="162.668" x2="94.953" y2="145.99" stroke="#8c8c8c" stroke-width="0.3" stroke-dasharray="1.2,0.8"/>
<line x1="85.875" y1="114.255" x2="101.074" y2="60.185" stroke="#8c8c8c" stroke-width="0.3" stroke-dasharray="1.2,0.8"/>
<line x1="142.574" y1="114.612" x2="117.801" y2="147.227" stroke="#8c8c8c" stroke-width="0.3" stroke-dasharray="1.2,0.8"/>
<line x1="112.007" y1="113.5" x2="85.875" y2="114.255" stroke="#8c8c8c" stroke-width="0.3" stroke-dasharray="1.2,0.8"/>
<line x1="160.839" y1="65.072" x2="170.008" y2="46.992" stroke="#8c8c8c" stroke-width="0.3" stroke-dasharray="1.2,0.8"/>
<line x1="174.35" y1="11.171" x2="170.008" y2="46.992" stroke="#8c8c8c" stroke-width="0.3" stroke-dasharray="1.2,0.8"/>
<line x1="44.924" y1="230.185" x2="5.0" y2="169.154" stroke="#141414" stroke-width="0.4"/>
<line x1="5.0" y1="169.154" x2="49.676" y2="130.081" stroke="#141414" stroke-width="0.4"/>
<line x1="44.175" y1="127.246" x2="16.032" y2="35.374" stroke="#141414" stroke-width="0.4"/>
<line x1="58.007" y1="107.16" x2="44.175" y2="127.246" stroke="#141414" stroke-width="0.4"/>
<line x1="56.323" y1="54.706" x2="79.957" y2="46.742" stroke="#141414" stroke-width="0.4"/>
<line x1="71.994" y1="40.462" x2="56.323" y2="54.706" stroke="#141414" stroke-width="0.4"/>
<line x1="117.801" y1="147.227" x2="94.953" y2="145.99" stroke="#141414" stroke-width="0.4"/>
<line x1="62.515" y1="19.436" x2="71.994" y2="40.462" stroke="#141414" stroke-width="0.4"/>
<line x1="112.007" y1="113.5" x2="119.636" y2="80.129" stroke="#141414" stroke-width="0.4"/>
<line x1="119.636" y1="80.129" x2="119.974" y2="27.56" stroke="#141414" stroke-width="0.4"/>
<line x1="157.31" y1="5.0" x2="174.35" y2="11.171" stroke="#141414" stroke-width="0.4"/>
<line x1="139.079" y1="46.992" x2="157.31" y2="5.0" stroke="#141414" stroke-width="0.4"/>
<line x1="160.839" y1="65.072" x2="142.574" y2="114.612" stroke="#141414" stroke-width="0.4"/>
<line x1="119.974" y1="27.56" x2="139.079" y2="46.992" stroke="#141414" stroke-width="0.4"/>
<line x1="44.924" y1="230.185" x2="57.082" y2="226.382" stroke="#141414" stroke-width="0.4"/>
<line x1="57.082" y1="226.382" x2="97.751" y2="190.447" stroke="#141414" stroke-width="0.4"/>
<line x1="97.751" y1="190.447" x2="103.022" y2="178.85" stroke="#141414" stroke-width="0.4"/>
<line x1="49.676" y1="130.081" x2="44.564" y2="127.612" stroke="#141414" stroke-width="0.4"/>
<line x1="44.564" y1="127.612" x2="57.811" y2="107.699" stroke="#141414" stroke-width="0.4"/>
<line x1="57.811" y1="107.699" x2="58.007" y2="107.16" stroke="#141414" stroke-width="0.4"/>
<line x1="103.022" y1="178.85" x2="109.249" y2="180.392" stroke="#141414" stroke-width="0.4"/>
<line x1="109.249" y1="180.392" x2="122.632" y2="169.065" stroke="#141414" stroke-width="0.4"/>
<line x1="122.632" y1="169.065" x2="122.14" y2="162.668" stroke="#141414" stroke-width="0.4"/>
<line x1="16.031" y1="35.374" x2="21.317" y2="28.065" stroke="#141414" stroke-width="0.4"/>
<line x1="21.317" y1="28.065" x2="53.855" y2="16.908" stroke="#141414" stroke-width="0.4"/>
<line x1="53.855" y1="16.908" x2="62.515" y2="19.436" stroke="#141414" stroke-width="0.4"/>
<line x1="95.377" y1="9.134" x2="88.253" y2="12.803" stroke="#141414" stroke-width="0.4"/>
<line x1="88.253" y1="12.803" x2="77.458" y2="39.128" stroke="#141414" stroke-width="0.4"/>
<line x1="77.458" y1="39.128" x2="79.956" y2="46.742" stroke="#141414" stroke-width="0.4"/>
<line x1="95.377" y1="9.134" x2="101.399" y2="16.215" stroke="#141414" stroke-width="0.4"/>
<line x1="101.399" y1="16.215" x2="105.387" y2="51.951" stroke="#141414" stroke-width="0.4"/>
<line x1="105.387" y1="51.951" x2="101.074" y2="60.185" stroke="#141414" stroke-width="0.4"/>
<line x1="94.953" y1="145.99" x2="109.091" y2="148.563" stroke="#141414" stroke-width="0.4"/>
<line x1="109.091" y1="148.563" x2="113.441" y2="151.231" stroke="#141414" stroke-width="0.4"/>
<line x1="113.441" y1="151.231" x2="122.14" y2="162.668" stroke="#141414" stroke-width="0.4"/>
<line x1="101.074" y1="60.185" x2="103.8" y2="69.703" stroke="#141414" stroke-width="0.4"/>
<line x1="103.8" y1="69.703" x2="93.161" y2="107.551" stroke="#141414" stroke-width="0.4"/>
<line x1="93.161" y1="107.551" x2="85.875" y2="114.255" stroke="#141414" stroke-width="0.4"/>
<line x1="117.801" y1="147.227" x2="125.658" y2="145.48" stroke="#141414" stroke-width="0.4"/>
<line x1="125.658" y1="145.48" x2="142.999" y2="122.649" stroke="#141414" stroke-width="0.4"/>
<line x1="142.999" y1="122.649" x2="142.574" y2="114.612" stroke="#141414" stroke-width="0.4"/>
<line x1="85.875" y1="114.255" x2="96.701" y2="108.74" stroke="#141414" stroke-width="0.4"/>
<line x1="96.701" y1="108.74" x2="100.882" y2="108.619" stroke="#141414" stroke-width="0.4"/>
<line x1="100.882" y1="108.619" x2="112.007" y2="113.5" stroke="#141414" stroke-width="0.4"/>
<line x1="170.008" y1="46.992" x2="173.27" y2="52.056" stroke="#141414" stroke-width="0.4"/>
<line x1="173.27" y1="52.056" x2="166.852" y2="64.712" stroke="#141414" stroke-width="0.4"/>
<line x1="166.852" y1="64.712" x2="160.839" y2="65.072" stroke="#141414" stroke-width="0.4"/>
<line x1="170.008" y1="46.992" x2="175.822" y2="42.245" stroke="#141414" stroke-width="0.4"/>
<line x1="175.822" y1="42.245" x2="178.861" y2="17.17" stroke="#141414" stroke-width="0.4"/>
<line x1="178.861" y1="17.17" x2="174.35" y2="11.171" stroke="#141414" stroke-width="0.4"/>
<circle cx="75.695" cy="206.466" r="2.20" fill="#ffe082" stroke="#464646" stroke-width="0.2"/>
<text x="75.695" y="207.51" font-size="2.98" text-anchor="middle" fill="#141414">16</text>
<circle cx="114.261" cy="172.744" r="2.20" fill="#ffe082" stroke="#464646" stroke-width="0.2"/>
<text x="114.261" y="173.79" font-size="2.98" text-anchor="middle" fill="#141414">39</text>
<circle cx="38.43" cy="24.946" r="2.20" fill="#ffe082" stroke="#464646" stroke-width="0.2"/>
<text x="38.43" y="25.99" font-size="2.98" text-anchor="middle" fill="#141414">46</text>
<circle cx="85.261" cy="26.952" r="2.20" fill="#ffe082" stroke="#464646" stroke-width="0.2"/>
<text x="85.261" y="28.00" font-size="2.98" text-anchor="middle" fill="#141414">50</text>
<circle cx="100.809" cy="34.371" r="2.20" fill="#ffe082" stroke="#464646" stroke-width="0.2"/>
<text x="100.809" y="35.41" font-size="2.98" text-anchor="middle" fill="#141414">51</text>
<circle cx="109.906" cy="152.113" r="2.20" fill="#ffe082" stroke="#464646" stroke-width="0.2"/>
<text x="109.906" y="153.16" font-size="2.98" text-anchor="middle" fill="#141414">66</text>
<circle cx="95.978" cy="87.924" r="2.20" fill="#ffe082" stroke="#464646" stroke-width="0.2"/>
<text x="95.978" y="88.97" font-size="2.98" text-anchor="middle" fill="#141414">69</text>
<circle cx="132.258" cy="132.492" r="2.20" fill="#ffe082" stroke="#464646" stroke-width="0.2"/>
<text x="132.258" y="133.54" font-size="2.98" text-anchor="middle" fill="#141414">71</text>
<circle cx="98.866" cy="111.279" r="2.20" fill="#ffe082" stroke="#464646" stroke-width="0.2"/>
<text x="98.866" y="112.32" font-size="2.98" text-anchor="middle" fill="#141414">73</text>
<circle cx="167.742" cy="57.208" r="2.20" fill="#ffe082" stroke="#464646" stroke-width="0.2"/>
<text x="167.742" y="58.25" font-size="2.98" text-anchor="middle" fill="#141414">83</text>
<circle cx="174.76" cy="29.395" r="2.20" fill="#ffe082" stroke="#464646" stroke-width="0.2"/>
<text x="174.76" y="30.44" font-size="2.98" text-anchor="middle" fill="#141414">84</text>
<circle cx="91.931" cy="236.285" r="4.6" fill="#eaf1fe" stroke="#2e78e6" stroke-width="0.3"/>
<text x="91.931" y="238.085" font-size="5.2" text-anchor="middle" fill="#14306e" font-weight="bold">3</text>
</svg>
