<svg xmlns="http://www.w3.org/2000/svg" xmlns:xlink="http://www.w3.org/1999/xlink" width="210.00mm" height="297.00mm" viewBox="0 0 210.00 297.00">
<rect x="0" y="0" width="210.00" height="297.00" fill="#ffffff" stroke="#cccccc" stroke-width="0.2"/>
<polygon points="43.948,7.939 50.821,9.992 61.255,30.555 58.853,37.314" fill="rgb(216,216,216)"/>
<polygon points="43.948,7.939 37.26,6.087 19.286,17.784 18.27,24.649" fill="rgb(216,216,216)"/>
<polygon points="18.27,24.649 19.516,32.37 40.654,49.584 48.468,49.241" fill="rgb(216,216,216)"/>
<polygon points="48.468,49.241 36.931,55.05 26.897,67.207 23.382,79.636" fill="rgb(216,216,216)"/>
<polygon points="99.018,55.775 108.847,60.368 135.167,96.176 136.618,106.929" fill="rgb(216,216,216)"/>
<polygon points="6.885,106.657 5.87,112.752 17.418,123.204 23.382,121.588" fill="rgb(216,216,216)"/>
<polygon points="23.382,121.588 44.409,105.428 50.928,97.968 64.124,74.964" fill="rgb(216,216,216)"/>
<line x1="18.27" y1="24.649" x2="58.853" y2="37.314" stroke="#8c8c8c" stroke-width="0.3" stroke-dasharray="1.2,0.8"/>
<line x1="58.853" y1="37.314" x2="64.124" y2="74.964" stroke="#8c8c8c" stroke-width="0.3" stroke-dasharray="1.2,0.8"/>
<line x1="64.124" y1="74.964" x2="48.468" y2="49.241" stroke="#8c8c8c" stroke-width="0.3" stroke-dasharray="1.2,0.8"/>
<line x1="99.018" y1="55.775" x2="64.124" y2="74.964" stroke="#8c8c8c" stroke-width="0.3" stroke-dasharray="1.2,0.8"/>
<line x1="102.522" y1="131.729" x2="71.6" y2="94.179" stroke="#8c8c8c" stroke-width="0.3" stroke-dasharray="1.2,0.8"/>
<line x1="23.382" y1="121.588" x2="23.382" y2="79.636" stroke="#8c8c8c" stroke-width="0.3" stroke-dasharray="1.2,0.8"/>
<line x1="64.124" y1="74.964" x2="102.522" y2="131.729" stroke="#8c8c8c" stroke-width="0.3" stroke-dasharray="1.2,0.8"/>
<line x1="58.853" y1="37.314" x2="48.468" y2="49.241" stroke="#8c8c8c" stroke-width="0.3" stroke-dasharray="1.2,0.8"/>
<line x1="23.382" y1="79.636" x2="64.124" y2="74.964" stroke="#8c8c8c" stroke-width="0.3" stroke-dasharray="1.2,0.8"/>
<line x1="102.522" y1="131.729" x2="37.734" y2="110.511" stroke="#8c8c8c" stroke-width="0.3" stroke-dasharray="1.2,0.8"/>
<line x1="58.853" y1="37.314" x2="43.948" y2="7.939" stroke="#8c8c8c" stroke-width="0.3" stroke-dasharray="1.2,0.8"/>
<line x1="18.27" y1="24.649" x2="43.948" y2="7.939" stroke="#8c8c8c" stroke-width="0.3" stroke-dasharray="1.2,0.8"/>
<line x1="48.468" y1="49.241" x2="18.27" y2="24.649" stroke="#8c8c8c" stroke-width="0.3" stroke-dasharray="1.2,0.8"/>
<line x1="23.382" y1="79.636" x2="48.468" y2="49.241" stroke="#8c8c8c" stroke-width="0.3" stroke-dasharray="1.2,0.8"/>
<line x1="136.618" y1="106.929" x2="99.018" y2="55.775" stroke="#8c8c8c" stroke-width="0.3" stroke-dasharray="1.2,0.8"/>
<line x1="23.382" y1="121.588" x2="6.885" y2="106.657" stroke="#8c8c8c" stroke-width="0.3" stroke-dasharray="1.2,0.8"/>
<line x1="64.124" y1="74.964" x2="23.382" y2="121.588" stroke="#8c8c8c" stroke-width="0.3" stroke-dasharray="1.2,0.8"/>
<line x1="58.853" y1="37.314" x2="99.018" y2="55.775" stroke="#141414" stroke-width="0.4"/>
<line x1="37.734" y1="110.511" x2="71.6" y2="94.179" stroke="#141414" stroke-width="0.4"/>
<line x1="71.6" y1="94.179" x2="64.124" y2="74.964" stroke="#141414" stroke-width="0.4"/>
<line x1="6.885" y1="106.657" x2="23.382" y2="79.636" stroke="#141414" stroke-width="0.4"/>
<line x1="71.362" y1="160.914" x2="37.734" y2="110.511" stroke="#141414" stroke-width="0.4"/>
<line x1="136.618" y1="106.929" x2="102.522" y2="131.729" stroke="#141414" stroke-width="0.4"/>
<line x1="102.522" y1="131.729" x2="71.362" y2="160.914" stroke="#141414" stroke-width="0.4"/>
<line x1="43.948" y1="7.939" x2="50.821" y2="9.992" stroke="#141414" stroke-width="0.4"/>
<line x1="50.821" y1="9.992" x2="61.255" y2="30.555" stroke="#141414" stroke-width="0.4"/>
<line x1="61.255" y1="30.555" x2="58.853" y2="37.314" stroke="#141414" stroke-width="0.4"/>
<line x1="43.948" y1="7.939" x2="37.26" y2="6.087" stroke="#141414" stroke-width="0.4"/>
<line x1="37.26" y1="6.087" x2="19.286" y2="17.784" stroke="#141414" stroke-width="0.4"/>
<line x1="19.286" y1="17.784" x2="18.27" y2="24.649" stroke="#141414" stroke-width="0.4"/>
<line x1="18.27" y1="24.649" x2="19.516" y2="32.37" stroke="#141414" stroke-width="0.4"/>
<line x1="19.516" y1="32.37" x2="40.654" y2="49.584" stroke="#141414" stroke-width="0.4"/>
<line x1="40.654" y1="49.584" x2="48.468" y2="49.241" stroke="#141414" stroke-width="0.4"/>
<line x1="48.468" y1="49.241" x2="36.931" y2="55.05" stroke="#141414" stroke-width="0.4"/>
<line x1="36.931" y1="55.05" x2="26.897" y2="67.207" stroke="#141414" stroke-width="0.4"/>
<line x1="26.897" y1="67.207" x2="23.382" y2="79.636" stroke="#141414" stroke-width="0.4"/>
<line x1="99.018" y1="55.775" x2="108.847" y2="60.368" stroke="#141414" stroke-width="0.4"/>
<line x1="108.847" y1="60.368" x2="135.167" y2="96.176" stroke="#141414" stroke-width="0.4"/>
<line x1="135.167" y1="96.176" x2="136.618" y2="106.929" stroke="#141414" stroke-width="0.4"/>
<line x1="6.885" y1="106.657" x2="5.87" y2="112.752" stroke="#141414" stroke-width="0.4"/>
<line x1="5.87" y1="112.752" x2="17.418" y2="123.204" stroke="#141414" stroke-width="0.4"/>
<line x1="17.418" y1="123.204" x2="23.382" y2="121.588" stroke="#141414" stroke-width="0.4"/>
<line x1="23.382" y1="121.588" x2="44.409" y2="105.428" stroke="#141414" stroke-width="0.4"/>
<line x1="44.409" y1="105.428" x2="50.928" y2="97.968" stroke="#141414" stroke-width="0.4"/>
<line x1="50.928" y1="97.968" x2="64.124" y2="74.964" stroke="#141414" stroke-width="0.4"/>
<circle cx="53.72" cy="21.45" r="2.29" fill="#ffe082" stroke="#464646" stroke-width="0.2"/>
<text x="53.72" y="22.54" font-size="3.11" text-anchor="middle" fill="#141414">1</text>
<circle cx="29.691" cy="14.115" r="2.29" fill="#ffe082" stroke="#464646" stroke-width="0.2"/>
<text x="29.691" y="15.20" font-size="3.11" text-anchor="middle" fill="#141414">2</text>
<circle cx="31.727" cy="38.961" r="2.29" fill="#ffe082" stroke="#464646" stroke-width="0.2"/>
<text x="31.727" y="40.05" font-size="3.11" text-anchor="middle" fill="#141414">5</text>
<circle cx="33.919" cy="62.784" r="2.29" fill="#ffe082" stroke="#464646" stroke-width="0.2"/>
<text x="33.919" y="63.87" font-size="3.11" text-anchor="middle" fill="#141414">7</text>
<circle cx="119.913" cy="79.812" r="2.29" fill="#ffe082" stroke="#464646" stroke-width="0.2"/>
<text x="119.913" y="80.90" font-size="3.11" text-anchor="middle" fill="#141414">8</text>
<circle cx="13.389" cy="116.05" r="2.29" fill="#ffe082" stroke="#464646" stroke-width="0.2"/>
<text x="13.389" y="117.14" font-size="3.11" text-anchor="middle" fill="#141414">15</text>
<circle cx="45.711" cy="99.987" r="2.29" fill="#ffe082" stroke="#464646" stroke-width="0.2"/>
<text x="45.711" y="101.07" font-size="3.11" text-anchor="middle" fill="#141414">18</text>
<circle cx="70.618" cy="112.14" r="4.60" fill="#eaf1fe" stroke="#2e78e6" stroke-width="0.3"/>
<text x="70.618" y="113.94" font-size="5.20" text-anchor="middle" fill="#14306e" font-weight="bold">1</text>
<text x="205.0" y="295.0" font-size="3.2" text-anchor="end" fill="#737373" font-family="sans-serif">1 / 6</text>
<g pointer-events="none"><text x="105.0" y="83.2" text-anchor="middle" font-family="sans-serif" font-size="12.4" fill="#9aa0a6" fill-opacity="0.3" transform="rotate(-28 105.0 83.2)">papercraft.kr</text><text x="105.0" y="148.5" text-anchor="middle" font-family="sans-serif" font-size="12.4" fill="#9aa0a6" fill-opacity="0.3" transform="rotate(-28 105.0 148.5)">papercraft.kr</text><text x="105.0" y="213.8" text-anchor="middle" font-family="sans-serif" font-size="12.4" fill="#9aa0a6" fill-opacity="0.3" transform="rotate(-28 105.0 213.8)">papercraft.kr</text></g></svg>
