<svg xmlns="http://www.w3.org/2000/svg" xmlns:xlink="http://www.w3.org/1999/xlink" width="210.00mm" height="297.00mm" viewBox="0 0 210.00 297.00">
<rect x="0" y="0" width="210.00" height="297.00" fill="#ffffff" stroke="#cccccc" stroke-width="0.2"/>
<polygon points="61.994,164.606 68.286,158.662 65.251,135.099 57.658,130.944" fill="rgb(216,216,216)"/>
<polygon points="62.422,26.685 53.648,26.485 38.304,45.842 40.502,54.339" fill="rgb(216,216,216)"/>
<polygon points="41.222,151.573 37.154,144.732 46.219,129.559 54.17,129.898" fill="rgb(216,216,216)"/>
<polygon points="6.229,115.838 5.535,107.697 21.458,96.163 28.977,99.36" fill="rgb(216,216,216)"/>
<polygon points="90.946,27.383 97.543,23.274 95.852,7.606 88.53,5.0" fill="rgb(216,216,216)"/>
<polygon points="90.946,27.383 98.928,31.078 104.274,55.347 98.584,62.054" fill="rgb(216,216,216)"/>
<polygon points="87.542,26.685 82.517,34.077 90.246,58.834 98.584,62.054" fill="rgb(216,216,216)"/>
<polygon points="54.17,129.898 41.694,126.512 31.991,115.749 29.913,102.989" fill="rgb(216,216,216)"/>
<polygon points="91.528,101.026 75.742,99.195 71.171,96.255 62.96,82.649" fill="rgb(216,216,216)"/>
<polygon points="57.658,130.944 60.668,130.198 55.008,103.559 54.964,103.109" fill="rgb(216,216,216)"/>
<polygon points="31.108,89.307 33.927,81.115 56.691,74.109 63.629,79.298" fill="rgb(216,216,216)"/>
<polygon points="28.977,99.36 40.295,92.531 44.567,92.596 55.673,99.766" fill="rgb(216,216,216)"/>
<polygon points="90.946,27.383 98.928,31.078 104.274,55.347 98.584,62.054" fill="#99d9fa"/>
<line x1="61.994" y1="164.606" x2="41.221" y2="151.573" stroke="#8c8c8c" stroke-width="0.3" stroke-dasharray="1.2,0.8"/>
<line x1="62.422" y1="26.685" x2="87.542" y2="26.685" stroke="#8c8c8c" stroke-width="0.3" stroke-dasharray="1.2,0.8"/>
<line x1="62.453" y1="53.95" x2="62.422" y2="26.685" stroke="#8c8c8c" stroke-width="0.3" stroke-dasharray="1.2,0.8"/>
<line x1="57.658" y1="130.944" x2="41.221" y2="151.573" stroke="#8c8c8c" stroke-width="0.3" stroke-dasharray="1.2,0.8"/>
<line x1="6.229" y1="115.838" x2="29.913" y2="102.989" stroke="#8c8c8c" stroke-width="0.3" stroke-dasharray="1.2,0.8"/>
<line x1="87.542" y1="26.685" x2="90.946" y2="27.383" stroke="#8c8c8c" stroke-width="0.3" stroke-dasharray="1.2,0.8"/>
<line x1="87.782" y1="78.827" x2="63.629" y2="79.298" stroke="#8c8c8c" stroke-width="0.3" stroke-dasharray="1.2,0.8"/>
<line x1="88.53" y1="5.0" x2="87.542" y2="26.685" stroke="#8c8c8c" stroke-width="0.3" stroke-dasharray="1.2,0.8"/>
<line x1="54.17" y1="129.898" x2="57.658" y2="130.944" stroke="#8c8c8c" stroke-width="0.3" stroke-dasharray="1.2,0.8"/>
<line x1="54.964" y1="103.109" x2="54.17" y2="129.898" stroke="#8c8c8c" stroke-width="0.3" stroke-dasharray="1.2,0.8"/>
<line x1="55.673" y1="99.766" x2="81.823" y2="110.899" stroke="#8c8c8c" stroke-width="0.3" stroke-dasharray="1.2,0.8"/>
<line x1="40.502" y1="54.339" x2="62.453" y2="53.95" stroke="#8c8c8c" stroke-width="0.3" stroke-dasharray="1.2,0.8"/>
<line x1="63.629" y1="79.298" x2="62.453" y2="53.95" stroke="#8c8c8c" stroke-width="0.3" stroke-dasharray="1.2,0.8"/>
<line x1="29.913" y1="102.989" x2="28.977" y2="99.36" stroke="#8c8c8c" stroke-width="0.3" stroke-dasharray="1.2,0.8"/>
<line x1="29.913" y1="102.989" x2="54.964" y2="103.109" stroke="#8c8c8c" stroke-width="0.3" stroke-dasharray="1.2,0.8"/>
<line x1="31.108" y1="89.307" x2="62.96" y2="82.649" stroke="#8c8c8c" stroke-width="0.3" stroke-dasharray="1.2,0.8"/>
<line x1="62.96" y1="82.649" x2="63.629" y2="79.298" stroke="#8c8c8c" stroke-width="0.3" stroke-dasharray="1.2,0.8"/>
<line x1="55.673" y1="99.766" x2="62.96" y2="82.649" stroke="#8c8c8c" stroke-width="0.3" stroke-dasharray="1.2,0.8"/>
<line x1="54.964" y1="103.109" x2="55.673" y2="99.766" stroke="#8c8c8c" stroke-width="0.3" stroke-dasharray="1.2,0.8"/>
<line x1="91.528" y1="101.026" x2="63.629" y2="79.298" stroke="#8c8c8c" stroke-width="0.3" stroke-dasharray="1.2,0.8"/>
<line x1="57.658" y1="130.944" x2="61.994" y2="164.606" stroke="#8c8c8c" stroke-width="0.3" stroke-dasharray="1.2,0.8"/>
<line x1="40.502" y1="54.339" x2="62.422" y2="26.685" stroke="#8c8c8c" stroke-width="0.3" stroke-dasharray="1.2,0.8"/>
<line x1="54.17" y1="129.898" x2="41.222" y2="151.573" stroke="#8c8c8c" stroke-width="0.3" stroke-dasharray="1.2,0.8"/>
<line x1="28.977" y1="99.36" x2="6.229" y2="115.838" stroke="#8c8c8c" stroke-width="0.3" stroke-dasharray="1.2,0.8"/>
<line x1="88.53" y1="5.0" x2="90.946" y2="27.383" stroke="#8c8c8c" stroke-width="0.3" stroke-dasharray="1.2,0.8"/>
<line x1="98.584" y1="62.054" x2="90.946" y2="27.383" stroke="#8c8c8c" stroke-width="0.3" stroke-dasharray="1.2,0.8"/>
<line x1="98.584" y1="62.054" x2="87.542" y2="26.685" stroke="#8c8c8c" stroke-width="0.3" stroke-dasharray="1.2,0.8"/>
<line x1="29.913" y1="102.989" x2="54.17" y2="129.898" stroke="#8c8c8c" stroke-width="0.3" stroke-dasharray="1.2,0.8"/>
<line x1="62.96" y1="82.649" x2="91.528" y2="101.026" stroke="#8c8c8c" stroke-width="0.3" stroke-dasharray="1.2,0.8"/>
<line x1="54.964" y1="103.109" x2="57.658" y2="130.944" stroke="#8c8c8c" stroke-width="0.3" stroke-dasharray="1.2,0.8"/>
<line x1="63.629" y1="79.298" x2="31.108" y2="89.307" stroke="#8c8c8c" stroke-width="0.3" stroke-dasharray="1.2,0.8"/>
<line x1="55.673" y1="99.766" x2="28.977" y2="99.36" stroke="#8c8c8c" stroke-width="0.3" stroke-dasharray="1.2,0.8"/>
<line x1="62.422" y1="26.685" x2="88.53" y2="5.0" stroke="#141414" stroke-width="0.4"/>
<line x1="61.994" y1="164.606" x2="28.884" y2="176.807" stroke="#141414" stroke-width="0.4"/>
<line x1="19.093" y1="137.564" x2="6.229" y2="115.838" stroke="#141414" stroke-width="0.4"/>
<line x1="28.884" y1="176.807" x2="41.221" y2="151.573" stroke="#141414" stroke-width="0.4"/>
<line x1="87.782" y1="78.827" x2="91.528" y2="101.026" stroke="#141414" stroke-width="0.4"/>
<line x1="62.453" y1="53.95" x2="87.782" y2="78.827" stroke="#141414" stroke-width="0.4"/>
<line x1="87.542" y1="26.685" x2="62.453" y2="53.95" stroke="#141414" stroke-width="0.4"/>
<line x1="29.913" y1="102.989" x2="19.093" y2="137.564" stroke="#141414" stroke-width="0.4"/>
<line x1="62.96" y1="82.649" x2="81.823" y2="110.899" stroke="#141414" stroke-width="0.4"/>
<line x1="81.823" y1="110.899" x2="54.964" y2="103.109" stroke="#141414" stroke-width="0.4"/>
<line x1="63.629" y1="79.298" x2="40.502" y2="54.339" stroke="#141414" stroke-width="0.4"/>
<line x1="55.673" y1="99.766" x2="31.108" y2="89.307" stroke="#141414" stroke-width="0.4"/>
<line x1="61.994" y1="164.606" x2="68.286" y2="158.662" stroke="#141414" stroke-width="0.4"/>
<line x1="68.286" y1="158.662" x2="65.251" y2="135.099" stroke="#141414" stroke-width="0.4"/>
<line x1="65.251" y1="135.099" x2="57.658" y2="130.944" stroke="#141414" stroke-width="0.4"/>
<line x1="62.422" y1="26.685" x2="53.648" y2="26.485" stroke="#141414" stroke-width="0.4"/>
<line x1="53.648" y1="26.485" x2="38.304" y2="45.842" stroke="#141414" stroke-width="0.4"/>
<line x1="38.304" y1="45.842" x2="40.502" y2="54.339" stroke="#141414" stroke-width="0.4"/>
<line x1="41.222" y1="151.573" x2="37.154" y2="144.732" stroke="#141414" stroke-width="0.4"/>
<line x1="37.154" y1="144.732" x2="46.219" y2="129.559" stroke="#141414" stroke-width="0.4"/>
<line x1="46.219" y1="129.559" x2="54.17" y2="129.898" stroke="#141414" stroke-width="0.4"/>
<line x1="6.229" y1="115.838" x2="5.535" y2="107.697" stroke="#141414" stroke-width="0.4"/>
<line x1="5.535" y1="107.697" x2="21.458" y2="96.163" stroke="#141414" stroke-width="0.4"/>
<line x1="21.458" y1="96.163" x2="28.977" y2="99.36" stroke="#141414" stroke-width="0.4"/>
<line x1="90.946" y1="27.383" x2="97.543" y2="23.274" stroke="#141414" stroke-width="0.4"/>
<line x1="97.543" y1="23.274" x2="95.852" y2="7.606" stroke="#141414" stroke-width="0.4"/>
<line x1="95.852" y1="7.606" x2="88.53" y2="5.0" stroke="#141414" stroke-width="0.4"/>
<line x1="90.946" y1="27.383" x2="98.928" y2="31.078" stroke="#141414" stroke-width="0.4"/>
<line x1="98.928" y1="31.078" x2="104.274" y2="55.347" stroke="#141414" stroke-width="0.4"/>
<line x1="104.274" y1="55.347" x2="98.584" y2="62.054" stroke="#141414" stroke-width="0.4"/>
<line x1="87.542" y1="26.685" x2="82.517" y2="34.077" stroke="#141414" stroke-width="0.4"/>
<line x1="82.517" y1="34.077" x2="90.246" y2="58.834" stroke="#141414" stroke-width="0.4"/>
<line x1="90.246" y1="58.834" x2="98.584" y2="62.054" stroke="#141414" stroke-width="0.4"/>
<line x1="54.17" y1="129.898" x2="41.694" y2="126.512" stroke="#141414" stroke-width="0.4"/>
<line x1="41.694" y1="126.512" x2="31.991" y2="115.749" stroke="#141414" stroke-width="0.4"/>
<line x1="31.991" y1="115.749" x2="29.913" y2="102.989" stroke="#141414" stroke-width="0.4"/>
<line x1="91.528" y1="101.026" x2="75.742" y2="99.195" stroke="#141414" stroke-width="0.4"/>
<line x1="75.742" y1="99.195" x2="71.171" y2="96.255" stroke="#141414" stroke-width="0.4"/>
<line x1="71.171" y1="96.255" x2="62.96" y2="82.649" stroke="#141414" stroke-width="0.4"/>
<line x1="57.658" y1="130.944" x2="60.668" y2="130.198" stroke="#141414" stroke-width="0.4"/>
<line x1="60.668" y1="130.198" x2="55.008" y2="103.559" stroke="#141414" stroke-width="0.4"/>
<line x1="55.008" y1="103.559" x2="54.964" y2="103.109" stroke="#141414" stroke-width="0.4"/>
<line x1="31.108" y1="89.307" x2="33.927" y2="81.115" stroke="#141414" stroke-width="0.4"/>
<line x1="33.927" y1="81.115" x2="56.691" y2="74.109" stroke="#141414" stroke-width="0.4"/>
<line x1="56.691" y1="74.109" x2="63.629" y2="79.298" stroke="#141414" stroke-width="0.4"/>
<line x1="28.977" y1="99.36" x2="40.295" y2="92.531" stroke="#141414" stroke-width="0.4"/>
<line x1="40.295" y1="92.531" x2="44.567" y2="92.596" stroke="#141414" stroke-width="0.4"/>
<line x1="44.567" y1="92.596" x2="55.673" y2="99.766" stroke="#141414" stroke-width="0.4"/>
<circle cx="63.297" cy="147.328" r="1.57" fill="#ffe082" stroke="#464646" stroke-width="0.2"/>
<text x="63.297" y="147.87" font-size="1.53" text-anchor="middle" fill="#141414">107</text>
<circle cx="48.719" cy="38.338" r="1.57" fill="#ffe082" stroke="#464646" stroke-width="0.2"/>
<text x="48.719" y="38.88" font-size="1.53" text-anchor="middle" fill="#141414">108</text>
<circle cx="44.691" cy="138.94" r="1.57" fill="#ffe082" stroke="#464646" stroke-width="0.2"/>
<text x="44.691" y="139.48" font-size="1.53" text-anchor="middle" fill="#141414">109</text>
<circle cx="15.55" cy="104.764" r="1.57" fill="#ffe082" stroke="#464646" stroke-width="0.2"/>
<text x="15.55" y="105.30" font-size="1.53" text-anchor="middle" fill="#141414">110</text>
<circle cx="93.218" cy="15.816" r="1.57" fill="#ffe082" stroke="#464646" stroke-width="0.2"/>
<text x="93.218" y="16.35" font-size="1.53" text-anchor="middle" fill="#141414">111</text>
<circle cx="98.183" cy="43.965" r="1.57" fill="#99d9fa" stroke="#464646" stroke-width="0.2"/>
<text x="98.183" y="44.50" font-size="1.53" text-anchor="middle" fill="#141414">112</text>
<circle cx="89.722" cy="45.412" r="1.57" fill="#ffe082" stroke="#464646" stroke-width="0.2"/>
<text x="89.722" y="45.95" font-size="1.53" text-anchor="middle" fill="#141414">113</text>
<circle cx="39.442" cy="118.787" r="1.57" fill="#ffe082" stroke="#464646" stroke-width="0.2"/>
<text x="39.442" y="119.32" font-size="1.53" text-anchor="middle" fill="#141414">114</text>
<circle cx="75.35" cy="94.781" r="1.57" fill="#ffe082" stroke="#464646" stroke-width="0.2"/>
<text x="75.35" y="95.32" font-size="1.53" text-anchor="middle" fill="#141414">115</text>
<circle cx="46.339" cy="80.957" r="1.57" fill="#ffe082" stroke="#464646" stroke-width="0.2"/>
<text x="46.339" y="81.49" font-size="1.53" text-anchor="middle" fill="#141414">117</text>
<circle cx="42.378" cy="96.063" r="1.57" fill="#ffe082" stroke="#464646" stroke-width="0.2"/>
<text x="42.378" y="96.60" font-size="1.53" text-anchor="middle" fill="#141414">118</text>
<circle cx="54.37" cy="182.907" r="4.6" fill="#eaf1fe" stroke="#2e78e6" stroke-width="0.3"/>
<text x="54.37" y="184.70700000000002" font-size="5.2" text-anchor="middle" fill="#14306e" font-weight="bold">5</text>
<polygon points="41.402,196.49 42.816,190.951 44.077,190.343 49.289,192.692" fill="rgb(216,216,216)"/>
<polygon points="41.667,188.386 45.292,183.154 49.649,183.439 52.56,189.1" fill="rgb(216,216,216)"/>
<polygon points="104.205,189.034 101.668,183.932 94.138,185.224 93.447,190.88" fill="rgb(216,216,216)"/>
<polygon points="15.434,209.098 11.642,206.547 6.905,210.434 8.666,214.651" fill="rgb(216,216,216)"/>
<polygon points="15.434,209.098 22.811,205.569 39.303,216.404 38.994,224.576" fill="rgb(216,216,216)"/>
<polygon points="46.26,196.49 52.94,201.174 51.531,220.681 44.248,224.358" fill="rgb(216,216,216)"/>
<polygon points="67.812,214.271 68.978,216.848 75.75,215.016 75.457,212.202" fill="rgb(216,216,216)"/>
<polygon points="17.784,248.659 19.596,247.73 18.011,241.521 15.976,241.574" fill="rgb(216,216,216)"/>
<polygon points="71.816,209.356 75.27,201.921 64.215,185.358 56.024,185.695" fill="rgb(216,216,216)"/>
<polygon points="12.755,242.542 5.215,239.373 2.354,219.849 8.666,214.651" fill="rgb(216,216,216)"/>
<polygon points="37.742,227.697 30.564,231.616 13.516,221.681 13.387,213.504" fill="rgb(216,216,216)"/>
<polygon points="67.812,214.271 68.978,216.848 75.75,215.016 75.457,212.202" fill="#99d9fa"/>
<line x1="41.402" y1="196.49" x2="46.26" y2="196.49" stroke="#8c8c8c" stroke-width="0.3" stroke-dasharray="1.2,0.8"/>
<line x1="44.248" y1="224.357" x2="41.402" y2="196.49" stroke="#8c8c8c" stroke-width="0.3" stroke-dasharray="1.2,0.8"/>
<line x1="15.434" y1="209.098" x2="13.387" y2="213.504" stroke="#8c8c8c" stroke-width="0.3" stroke-dasharray="1.2,0.8"/>
<line x1="49.289" y1="192.692" x2="46.26" y2="196.49" stroke="#8c8c8c" stroke-width="0.3" stroke-dasharray="1.2,0.8"/>
<line x1="49.289" y1="192.692" x2="67.812" y2="214.271" stroke="#8c8c8c" stroke-width="0.3" stroke-dasharray="1.2,0.8"/>
<line x1="71.816" y1="209.356" x2="67.812" y2="214.271" stroke="#8c8c8c" stroke-width="0.3" stroke-dasharray="1.2,0.8"/>
<line x1="38.994" y1="224.576" x2="44.248" y2="224.357" stroke="#8c8c8c" stroke-width="0.3" stroke-dasharray="1.2,0.8"/>
<line x1="52.559" y1="189.1" x2="49.289" y2="192.692" stroke="#8c8c8c" stroke-width="0.3" stroke-dasharray="1.2,0.8"/>
<line x1="49.289" y1="192.692" x2="71.816" y2="209.356" stroke="#8c8c8c" stroke-width="0.3" stroke-dasharray="1.2,0.8"/>
<line x1="52.559" y1="189.1" x2="71.816" y2="209.356" stroke="#8c8c8c" stroke-width="0.3" stroke-dasharray="1.2,0.8"/>
<line x1="56.024" y1="185.695" x2="52.559" y2="189.1" stroke="#8c8c8c" stroke-width="0.3" stroke-dasharray="1.2,0.8"/>
<line x1="75.457" y1="212.202" x2="71.816" y2="209.356" stroke="#8c8c8c" stroke-width="0.3" stroke-dasharray="1.2,0.8"/>
<line x1="93.447" y1="190.88" x2="75.457" y2="212.202" stroke="#8c8c8c" stroke-width="0.3" stroke-dasharray="1.2,0.8"/>
<line x1="97.075" y1="194.111" x2="93.447" y2="190.88" stroke="#8c8c8c" stroke-width="0.3" stroke-dasharray="1.2,0.8"/>
<line x1="15.976" y1="241.574" x2="12.755" y2="242.542" stroke="#8c8c8c" stroke-width="0.3" stroke-dasharray="1.2,0.8"/>
<line x1="8.666" y1="214.651" x2="15.976" y2="241.574" stroke="#8c8c8c" stroke-width="0.3" stroke-dasharray="1.2,0.8"/>
<line x1="13.387" y1="213.504" x2="8.666" y2="214.651" stroke="#8c8c8c" stroke-width="0.3" stroke-dasharray="1.2,0.8"/>
<line x1="38.994" y1="224.576" x2="37.742" y2="227.697" stroke="#8c8c8c" stroke-width="0.3" stroke-dasharray="1.2,0.8"/>
<line x1="13.387" y1="213.504" x2="38.994" y2="224.576" stroke="#8c8c8c" stroke-width="0.3" stroke-dasharray="1.2,0.8"/>
<line x1="49.289" y1="192.692" x2="41.402" y2="196.49" stroke="#8c8c8c" stroke-width="0.3" stroke-dasharray="1.2,0.8"/>
<line x1="52.56" y1="189.1" x2="41.667" y2="188.386" stroke="#8c8c8c" stroke-width="0.3" stroke-dasharray="1.2,0.8"/>
<line x1="93.447" y1="190.88" x2="104.205" y2="189.034" stroke="#8c8c8c" stroke-width="0.3" stroke-dasharray="1.2,0.8"/>
<line x1="8.666" y1="214.651" x2="15.434" y2="209.098" stroke="#8c8c8c" stroke-width="0.3" stroke-dasharray="1.2,0.8"/>
<line x1="38.994" y1="224.576" x2="15.434" y2="209.098" stroke="#8c8c8c" stroke-width="0.3" stroke-dasharray="1.2,0.8"/>
<line x1="44.248" y1="224.358" x2="46.26" y2="196.49" stroke="#8c8c8c" stroke-width="0.3" stroke-dasharray="1.2,0.8"/>
<line x1="75.457" y1="212.202" x2="67.812" y2="214.271" stroke="#8c8c8c" stroke-width="0.3" stroke-dasharray="1.2,0.8"/>
<line x1="15.976" y1="241.574" x2="17.784" y2="248.659" stroke="#8c8c8c" stroke-width="0.3" stroke-dasharray="1.2,0.8"/>
<line x1="56.024" y1="185.695" x2="71.816" y2="209.356" stroke="#8c8c8c" stroke-width="0.3" stroke-dasharray="1.2,0.8"/>
<line x1="8.666" y1="214.651" x2="12.755" y2="242.542" stroke="#8c8c8c" stroke-width="0.3" stroke-dasharray="1.2,0.8"/>
<line x1="13.387" y1="213.504" x2="37.742" y2="227.697" stroke="#8c8c8c" stroke-width="0.3" stroke-dasharray="1.2,0.8"/>
<line x1="49.289" y1="192.692" x2="41.667" y2="188.386" stroke="#141414" stroke-width="0.4"/>
<line x1="52.559" y1="189.1" x2="46.833" y2="179.807" stroke="#141414" stroke-width="0.4"/>
<line x1="46.833" y1="179.807" x2="56.024" y2="185.695" stroke="#141414" stroke-width="0.4"/>
<line x1="104.205" y1="189.034" x2="97.075" y2="194.111" stroke="#141414" stroke-width="0.4"/>
<line x1="38.994" y1="224.576" x2="41.402" y2="196.49" stroke="#141414" stroke-width="0.4"/>
<line x1="67.812" y1="214.271" x2="46.26" y2="196.49" stroke="#141414" stroke-width="0.4"/>
<line x1="17.784" y1="248.659" x2="12.755" y2="242.542" stroke="#141414" stroke-width="0.4"/>
<line x1="44.248" y1="224.357" x2="37.742" y2="227.697" stroke="#141414" stroke-width="0.4"/>
<line x1="71.816" y1="209.356" x2="93.447" y2="190.88" stroke="#141414" stroke-width="0.4"/>
<line x1="97.075" y1="194.111" x2="75.457" y2="212.202" stroke="#141414" stroke-width="0.4"/>
<line x1="13.387" y1="213.504" x2="15.976" y2="241.574" stroke="#141414" stroke-width="0.4"/>
<line x1="41.402" y1="196.49" x2="42.816" y2="190.951" stroke="#141414" stroke-width="0.4"/>
<line x1="42.816" y1="190.951" x2="44.077" y2="190.343" stroke="#141414" stroke-width="0.4"/>
<line x1="44.077" y1="190.343" x2="49.289" y2="192.692" stroke="#141414" stroke-width="0.4"/>
<line x1="41.667" y1="188.386" x2="45.292" y2="183.154" stroke="#141414" stroke-width="0.4"/>
<line x1="45.292" y1="183.154" x2="49.649" y2="183.439" stroke="#141414" stroke-width="0.4"/>
<line x1="49.649" y1="183.439" x2="52.56" y2="189.1" stroke="#141414" stroke-width="0.4"/>
<line x1="104.205" y1="189.034" x2="101.668" y2="183.932" stroke="#141414" stroke-width="0.4"/>
<line x1="101.668" y1="183.932" x2="94.138" y2="185.224" stroke="#141414" stroke-width="0.4"/>
<line x1="94.138" y1="185.224" x2="93.447" y2="190.88" stroke="#141414" stroke-width="0.4"/>
<line x1="15.434" y1="209.098" x2="11.642" y2="206.547" stroke="#141414" stroke-width="0.4"/>
<line x1="11.642" y1="206.547" x2="6.905" y2="210.434" stroke="#141414" stroke-width="0.4"/>
<line x1="6.905" y1="210.434" x2="8.666" y2="214.651" stroke="#141414" stroke-width="0.4"/>
<line x1="15.434" y1="209.098" x2="22.811" y2="205.569" stroke="#141414" stroke-width="0.4"/>
<line x1="22.811" y1="205.569" x2="39.303" y2="216.404" stroke="#141414" stroke-width="0.4"/>
<line x1="39.303" y1="216.404" x2="38.994" y2="224.576" stroke="#141414" stroke-width="0.4"/>
<line x1="46.26" y1="196.49" x2="52.94" y2="201.174" stroke="#141414" stroke-width="0.4"/>
<line x1="52.94" y1="201.174" x2="51.531" y2="220.681" stroke="#141414" stroke-width="0.4"/>
<line x1="51.531" y1="220.681" x2="44.248" y2="224.358" stroke="#141414" stroke-width="0.4"/>
<line x1="67.812" y1="214.271" x2="68.978" y2="216.848" stroke="#141414" stroke-width="0.4"/>
<line x1="68.978" y1="216.848" x2="75.75" y2="215.016" stroke="#141414" stroke-width="0.4"/>
<line x1="75.75" y1="215.016" x2="75.457" y2="212.202" stroke="#141414" stroke-width="0.4"/>
<line x1="17.784" y1="248.659" x2="19.596" y2="247.73" stroke="#141414" stroke-width="0.4"/>
<line x1="19.596" y1="247.73" x2="18.011" y2="241.521" stroke="#141414" stroke-width="0.4"/>
<line x1="18.011" y1="241.521" x2="15.976" y2="241.574" stroke="#141414" stroke-width="0.4"/>
<line x1="71.816" y1="209.356" x2="75.27" y2="201.921" stroke="#141414" stroke-width="0.4"/>
<line x1="75.27" y1="201.921" x2="64.215" y2="185.358" stroke="#141414" stroke-width="0.4"/>
<line x1="64.215" y1="185.358" x2="56.024" y2="185.695" stroke="#141414" stroke-width="0.4"/>
<line x1="12.755" y1="242.542" x2="5.215" y2="239.373" stroke="#141414" stroke-width="0.4"/>
<line x1="5.215" y1="239.373" x2="2.354" y2="219.849" stroke="#141414" stroke-width="0.4"/>
<line x1="2.354" y1="219.849" x2="8.666" y2="214.651" stroke="#141414" stroke-width="0.4"/>
<line x1="37.742" y1="227.697" x2="30.564" y2="231.616" stroke="#141414" stroke-width="0.4"/>
<line x1="30.564" y1="231.616" x2="13.516" y2="221.681" stroke="#141414" stroke-width="0.4"/>
<line x1="13.516" y1="221.681" x2="13.387" y2="213.504" stroke="#141414" stroke-width="0.4"/>
<circle cx="44.396" cy="192.619" r="1.57" fill="#ffe082" stroke="#464646" stroke-width="0.2"/>
<text x="44.396" y="193.16" font-size="1.53" text-anchor="middle" fill="#141414">144</text>
<circle cx="47.292" cy="186.02" r="1.57" fill="#ffe082" stroke="#464646" stroke-width="0.2"/>
<text x="47.292" y="186.56" font-size="1.53" text-anchor="middle" fill="#141414">145</text>
<circle cx="98.364" cy="187.267" r="1.57" fill="#ffe082" stroke="#464646" stroke-width="0.2"/>
<text x="98.364" y="187.80" font-size="1.53" text-anchor="middle" fill="#141414">146</text>
<circle cx="10.662" cy="210.183" r="1.57" fill="#ffe082" stroke="#464646" stroke-width="0.2"/>
<text x="10.662" y="210.72" font-size="1.53" text-anchor="middle" fill="#141414">147</text>
<circle cx="29.135" cy="213.912" r="1.57" fill="#ffe082" stroke="#464646" stroke-width="0.2"/>
<text x="29.135" y="214.45" font-size="1.53" text-anchor="middle" fill="#141414">148</text>
<circle cx="48.745" cy="210.676" r="1.57" fill="#ffe082" stroke="#464646" stroke-width="0.2"/>
<text x="48.745" y="211.21" font-size="1.53" text-anchor="middle" fill="#141414">149</text>
<circle cx="66.831" cy="195.583" r="1.57" fill="#ffe082" stroke="#464646" stroke-width="0.2"/>
<text x="66.831" y="196.12" font-size="1.53" text-anchor="middle" fill="#141414">152</text>
<circle cx="7.248" cy="229.104" r="1.57" fill="#ffe082" stroke="#464646" stroke-width="0.2"/>
<text x="7.248" y="229.64" font-size="1.53" text-anchor="middle" fill="#141414">153</text>
<circle cx="23.802" cy="223.625" r="1.57" fill="#ffe082" stroke="#464646" stroke-width="0.2"/>
<text x="23.802" y="224.16" font-size="1.53" text-anchor="middle" fill="#141414">154</text>
<circle cx="55.926" cy="173.707" r="4.6" fill="#eaf1fe" stroke="#2e78e6" stroke-width="0.3"/>
<text x="55.926" y="175.507" font-size="5.2" text-anchor="middle" fill="#14306e" font-weight="bold">9</text>
<polygon points="140.269,15.719 138.159,11.8 142.379,7.58 146.298,9.69" fill="rgb(216,216,216)"/>
<polygon points="116.554,37.712 113.841,42.75 119.267,48.176 124.305,45.463" fill="rgb(216,216,216)"/>
<polygon points="116.554,37.712 111.326,40.038 106.324,34.219 109.408,29.399" fill="rgb(216,216,216)"/>
<polygon points="146.298,21.748 150.216,23.858 154.436,19.638 152.326,15.719" fill="rgb(216,216,216)"/>
<polygon points="124.305,45.463 121.979,50.691 127.798,55.693 132.618,52.609" fill="rgb(216,216,216)"/>
<polygon points="152.326,15.719 154.436,11.8 150.216,7.58 146.298,9.69" fill="rgb(216,216,216)"/>
<polygon points="159.628,32.361 162.69,40.309 149.961,59.032 141.445,59.109" fill="rgb(216,216,216)"/>
<polygon points="140.269,15.719 138.159,11.8 142.379,7.58 146.298,9.69" fill="#99d9fa"/>
<line x1="116.554" y1="37.712" x2="140.269" y2="15.719" stroke="#8c8c8c" stroke-width="0.3" stroke-dasharray="1.2,0.8"/>
<line x1="146.298" y1="21.748" x2="140.269" y2="15.719" stroke="#8c8c8c" stroke-width="0.3" stroke-dasharray="1.2,0.8"/>
<line x1="146.298" y1="21.748" x2="124.305" y2="45.463" stroke="#8c8c8c" stroke-width="0.3" stroke-dasharray="1.2,0.8"/>
<line x1="152.763" y1="27.306" x2="132.618" y2="52.609" stroke="#8c8c8c" stroke-width="0.3" stroke-dasharray="1.2,0.8"/>
<line x1="141.445" y1="59.109" x2="132.618" y2="52.609" stroke="#8c8c8c" stroke-width="0.3" stroke-dasharray="1.2,0.8"/>
<line x1="146.298" y1="9.69" x2="140.269" y2="15.719" stroke="#8c8c8c" stroke-width="0.3" stroke-dasharray="1.2,0.8"/>
<line x1="124.305" y1="45.463" x2="116.554" y2="37.712" stroke="#8c8c8c" stroke-width="0.3" stroke-dasharray="1.2,0.8"/>
<line x1="109.408" y1="29.399" x2="116.554" y2="37.712" stroke="#8c8c8c" stroke-width="0.3" stroke-dasharray="1.2,0.8"/>
<line x1="152.326" y1="15.719" x2="146.298" y2="21.748" stroke="#8c8c8c" stroke-width="0.3" stroke-dasharray="1.2,0.8"/>
<line x1="132.618" y1="52.609" x2="124.305" y2="45.463" stroke="#8c8c8c" stroke-width="0.3" stroke-dasharray="1.2,0.8"/>
<line x1="146.298" y1="9.69" x2="152.326" y2="15.719" stroke="#8c8c8c" stroke-width="0.3" stroke-dasharray="1.2,0.8"/>
<line x1="141.445" y1="59.109" x2="159.628" y2="32.361" stroke="#8c8c8c" stroke-width="0.3" stroke-dasharray="1.2,0.8"/>
<line x1="134.711" y1="9.254" x2="140.269" y2="15.719" stroke="#141414" stroke-width="0.4"/>
<line x1="134.945" y1="67.935" x2="126.118" y2="61.435" stroke="#141414" stroke-width="0.4"/>
<line x1="141.445" y1="59.109" x2="134.945" y2="67.935" stroke="#141414" stroke-width="0.4"/>
<line x1="146.298" y1="21.748" x2="152.763" y2="27.306" stroke="#141414" stroke-width="0.4"/>
<line x1="126.118" y1="61.435" x2="132.618" y2="52.609" stroke="#141414" stroke-width="0.4"/>
<line x1="152.763" y1="27.306" x2="159.628" y2="32.361" stroke="#141414" stroke-width="0.4"/>
<line x1="109.408" y1="29.399" x2="134.711" y2="9.254" stroke="#141414" stroke-width="0.4"/>
<line x1="140.269" y1="15.719" x2="138.159" y2="11.8" stroke="#141414" stroke-width="0.4"/>
<line x1="138.159" y1="11.8" x2="142.379" y2="7.58" stroke="#141414" stroke-width="0.4"/>
<line x1="142.379" y1="7.58" x2="146.298" y2="9.69" stroke="#141414" stroke-width="0.4"/>
<line x1="116.554" y1="37.712" x2="113.841" y2="42.75" stroke="#141414" stroke-width="0.4"/>
<line x1="113.841" y1="42.75" x2="119.267" y2="48.176" stroke="#141414" stroke-width="0.4"/>
<line x1="119.267" y1="48.176" x2="124.305" y2="45.463" stroke="#141414" stroke-width="0.4"/>
<line x1="116.554" y1="37.712" x2="111.326" y2="40.038" stroke="#141414" stroke-width="0.4"/>
<line x1="111.326" y1="40.038" x2="106.324" y2="34.219" stroke="#141414" stroke-width="0.4"/>
<line x1="106.324" y1="34.219" x2="109.408" y2="29.399" stroke="#141414" stroke-width="0.4"/>
<line x1="146.298" y1="21.748" x2="150.216" y2="23.858" stroke="#141414" stroke-width="0.4"/>
<line x1="150.216" y1="23.858" x2="154.436" y2="19.638" stroke="#141414" stroke-width="0.4"/>
<line x1="154.436" y1="19.638" x2="152.326" y2="15.719" stroke="#141414" stroke-width="0.4"/>
<line x1="124.305" y1="45.463" x2="121.979" y2="50.691" stroke="#141414" stroke-width="0.4"/>
<line x1="121.979" y1="50.691" x2="127.798" y2="55.693" stroke="#141414" stroke-width="0.4"/>
<line x1="127.798" y1="55.693" x2="132.618" y2="52.609" stroke="#141414" stroke-width="0.4"/>
<line x1="152.326" y1="15.719" x2="154.436" y2="11.8" stroke="#141414" stroke-width="0.4"/>
<line x1="154.436" y1="11.8" x2="150.216" y2="7.58" stroke="#141414" stroke-width="0.4"/>
<line x1="150.216" y1="7.58" x2="146.298" y2="9.69" stroke="#141414" stroke-width="0.4"/>
<line x1="159.628" y1="32.361" x2="162.69" y2="40.309" stroke="#141414" stroke-width="0.4"/>
<line x1="162.69" y1="40.309" x2="149.961" y2="59.032" stroke="#141414" stroke-width="0.4"/>
<line x1="149.961" y1="59.032" x2="141.445" y2="59.109" stroke="#141414" stroke-width="0.4"/>
<circle cx="141.776" cy="11.198" r="1.57" fill="#99d9fa" stroke="#464646" stroke-width="0.2"/>
<text x="141.776" y="11.74" font-size="1.53" text-anchor="middle" fill="#141414">173</text>
<circle cx="118.492" cy="43.525" r="1.57" fill="#ffe082" stroke="#464646" stroke-width="0.2"/>
<text x="118.492" y="44.06" font-size="1.53" text-anchor="middle" fill="#141414">174</text>
<circle cx="110.903" cy="35.342" r="1.57" fill="#ffe082" stroke="#464646" stroke-width="0.2"/>
<text x="110.903" y="35.88" font-size="1.53" text-anchor="middle" fill="#141414">175</text>
<circle cx="150.819" cy="20.241" r="1.57" fill="#ffe082" stroke="#464646" stroke-width="0.2"/>
<text x="150.819" y="20.78" font-size="1.53" text-anchor="middle" fill="#141414">176</text>
<circle cx="126.675" cy="51.114" r="1.57" fill="#ffe082" stroke="#464646" stroke-width="0.2"/>
<text x="126.675" y="51.65" font-size="1.53" text-anchor="middle" fill="#141414">177</text>
<circle cx="150.819" cy="11.198" r="1.57" fill="#ffe082" stroke="#464646" stroke-width="0.2"/>
<text x="150.819" y="11.74" font-size="1.53" text-anchor="middle" fill="#141414">178</text>
<circle cx="153.431" cy="47.703" r="1.57" fill="#ffe082" stroke="#464646" stroke-width="0.2"/>
<text x="153.431" y="48.24" font-size="1.53" text-anchor="middle" fill="#141414">179</text>
<circle cx="134.922" cy="71.455" r="4.6" fill="#eaf1fe" stroke="#2e78e6" stroke-width="0.3"/>
<text x="134.922" y="73.255" font-size="5.2" text-anchor="middle" fill="#14306e" font-weight="bold">12</text>
<polygon points="143.381,190.526 141.271,186.608 145.491,182.387 149.41,184.498" fill="rgb(216,216,216)"/>
<polygon points="119.666,212.519 116.954,217.557 122.379,222.983 127.418,220.27" fill="rgb(216,216,216)"/>
<polygon points="119.666,212.519 114.438,214.845 109.436,209.026 112.52,204.206" fill="rgb(216,216,216)"/>
<polygon points="149.41,196.555 153.329,198.665 157.549,194.445 155.439,190.526" fill="rgb(216,216,216)"/>
<polygon points="155.439,190.526 157.549,186.608 153.329,182.387 149.41,184.498" fill="rgb(216,216,216)"/>
<polygon points="135.73,227.416 133.804,232.804 139.983,237.354 144.557,233.916" fill="rgb(216,216,216)"/>
<polygon points="162.741,207.168 165.802,215.116 153.074,233.839 144.557,233.916" fill="rgb(216,216,216)"/>
<polygon points="143.381,190.526 141.271,186.608 145.491,182.387 149.41,184.498" fill="#99d9fa"/>
<line x1="119.666" y1="212.519" x2="143.381" y2="190.526" stroke="#8c8c8c" stroke-width="0.3" stroke-dasharray="1.2,0.8"/>
<line x1="149.41" y1="196.555" x2="143.381" y2="190.526" stroke="#8c8c8c" stroke-width="0.3" stroke-dasharray="1.2,0.8"/>
<line x1="149.41" y1="196.555" x2="127.418" y2="220.27" stroke="#8c8c8c" stroke-width="0.3" stroke-dasharray="1.2,0.8"/>
<line x1="135.73" y1="227.416" x2="127.418" y2="220.27" stroke="#8c8c8c" stroke-width="0.3" stroke-dasharray="1.2,0.8"/>
<line x1="155.875" y1="202.113" x2="135.73" y2="227.416" stroke="#8c8c8c" stroke-width="0.3" stroke-dasharray="1.2,0.8"/>
<line x1="149.41" y1="184.498" x2="143.381" y2="190.526" stroke="#8c8c8c" stroke-width="0.3" stroke-dasharray="1.2,0.8"/>
<line x1="127.418" y1="220.27" x2="119.666" y2="212.519" stroke="#8c8c8c" stroke-width="0.3" stroke-dasharray="1.2,0.8"/>
<line x1="112.52" y1="204.206" x2="119.666" y2="212.519" stroke="#8c8c8c" stroke-width="0.3" stroke-dasharray="1.2,0.8"/>
<line x1="155.439" y1="190.526" x2="149.41" y2="196.555" stroke="#8c8c8c" stroke-width="0.3" stroke-dasharray="1.2,0.8"/>
<line x1="149.41" y1="184.498" x2="155.439" y2="190.526" stroke="#8c8c8c" stroke-width="0.3" stroke-dasharray="1.2,0.8"/>
<line x1="144.557" y1="233.916" x2="135.73" y2="227.416" stroke="#8c8c8c" stroke-width="0.3" stroke-dasharray="1.2,0.8"/>
<line x1="144.557" y1="233.916" x2="162.741" y2="207.168" stroke="#8c8c8c" stroke-width="0.3" stroke-dasharray="1.2,0.8"/>
<line x1="137.823" y1="184.061" x2="143.381" y2="190.526" stroke="#141414" stroke-width="0.4"/>
<line x1="120.272" y1="228.582" x2="127.418" y2="220.27" stroke="#141414" stroke-width="0.4"/>
<line x1="128.584" y1="235.728" x2="120.272" y2="228.582" stroke="#141414" stroke-width="0.4"/>
<line x1="149.41" y1="196.555" x2="155.875" y2="202.113" stroke="#141414" stroke-width="0.4"/>
<line x1="155.875" y1="202.113" x2="162.741" y2="207.168" stroke="#141414" stroke-width="0.4"/>
<line x1="135.73" y1="227.416" x2="128.584" y2="235.728" stroke="#141414" stroke-width="0.4"/>
<line x1="112.52" y1="204.206" x2="137.823" y2="184.061" stroke="#141414" stroke-width="0.4"/>
<line x1="143.381" y1="190.526" x2="141.271" y2="186.608" stroke="#141414" stroke-width="0.4"/>
<line x1="141.271" y1="186.608" x2="145.491" y2="182.387" stroke="#141414" stroke-width="0.4"/>
<line x1="145.491" y1="182.387" x2="149.41" y2="184.498" stroke="#141414" stroke-width="0.4"/>
<line x1="119.666" y1="212.519" x2="116.954" y2="217.557" stroke="#141414" stroke-width="0.4"/>
<line x1="116.954" y1="217.557" x2="122.379" y2="222.983" stroke="#141414" stroke-width="0.4"/>
<line x1="122.379" y1="222.983" x2="127.418" y2="220.27" stroke="#141414" stroke-width="0.4"/>
<line x1="119.666" y1="212.519" x2="114.438" y2="214.845" stroke="#141414" stroke-width="0.4"/>
<line x1="114.438" y1="214.845" x2="109.436" y2="209.026" stroke="#141414" stroke-width="0.4"/>
<line x1="109.436" y1="209.026" x2="112.52" y2="204.206" stroke="#141414" stroke-width="0.4"/>
<line x1="149.41" y1="196.555" x2="153.329" y2="198.665" stroke="#141414" stroke-width="0.4"/>
<line x1="153.329" y1="198.665" x2="157.549" y2="194.445" stroke="#141414" stroke-width="0.4"/>
<line x1="157.549" y1="194.445" x2="155.439" y2="190.526" stroke="#141414" stroke-width="0.4"/>
<line x1="155.439" y1="190.526" x2="157.549" y2="186.608" stroke="#141414" stroke-width="0.4"/>
<line x1="157.549" y1="186.608" x2="153.329" y2="182.387" stroke="#141414" stroke-width="0.4"/>
<line x1="153.329" y1="182.387" x2="149.41" y2="184.498" stroke="#141414" stroke-width="0.4"/>
<line x1="135.73" y1="227.416" x2="133.804" y2="232.804" stroke="#141414" stroke-width="0.4"/>
<line x1="133.804" y1="232.804" x2="139.983" y2="237.354" stroke="#141414" stroke-width="0.4"/>
<line x1="139.983" y1="237.354" x2="144.557" y2="233.916" stroke="#141414" stroke-width="0.4"/>
<line x1="162.741" y1="207.168" x2="165.802" y2="215.116" stroke="#141414" stroke-width="0.4"/>
<line x1="165.802" y1="215.116" x2="153.074" y2="233.839" stroke="#141414" stroke-width="0.4"/>
<line x1="153.074" y1="233.839" x2="144.557" y2="233.916" stroke="#141414" stroke-width="0.4"/>
<circle cx="144.888" cy="186.005" r="1.57" fill="#99d9fa" stroke="#464646" stroke-width="0.2"/>
<text x="144.888" y="186.54" font-size="1.53" text-anchor="middle" fill="#141414">180</text>
<circle cx="121.604" cy="218.332" r="1.57" fill="#ffe082" stroke="#464646" stroke-width="0.2"/>
<text x="121.604" y="218.87" font-size="1.53" text-anchor="middle" fill="#141414">181</text>
<circle cx="114.015" cy="210.149" r="1.57" fill="#ffe082" stroke="#464646" stroke-width="0.2"/>
<text x="114.015" y="210.69" font-size="1.53" text-anchor="middle" fill="#141414">182</text>
<circle cx="153.932" cy="195.048" r="1.57" fill="#ffe082" stroke="#464646" stroke-width="0.2"/>
<text x="153.932" y="195.59" font-size="1.53" text-anchor="middle" fill="#141414">183</text>
<circle cx="153.932" cy="186.005" r="1.57" fill="#ffe082" stroke="#464646" stroke-width="0.2"/>
<text x="153.932" y="186.54" font-size="1.53" text-anchor="middle" fill="#141414">184</text>
<circle cx="138.519" cy="232.872" r="1.57" fill="#ffe082" stroke="#464646" stroke-width="0.2"/>
<text x="138.519" y="233.41" font-size="1.53" text-anchor="middle" fill="#141414">185</text>
<circle cx="156.543" cy="222.51" r="1.57" fill="#ffe082" stroke="#464646" stroke-width="0.2"/>
<text x="156.543" y="223.05" font-size="1.53" text-anchor="middle" fill="#141414">186</text>
<circle cx="138.035" cy="173.707" r="4.6" fill="#eaf1fe" stroke="#2e78e6" stroke-width="0.3"/>
<text x="138.035" y="175.507" font-size="5.2" text-anchor="middle" fill="#14306e" font-weight="bold">13</text>
<g pointer-events="none"><text x="105.0" y="83.2" text-anchor="middle" font-family="sans-serif" font-size="12.4" fill="#9aa0a6" fill-opacity="0.3" transform="rotate(-28 105.0 83.2)">papercraft.kr</text><text x="105.0" y="148.5" text-anchor="middle" font-family="sans-serif" font-size="12.4" fill="#9aa0a6" fill-opacity="0.3" transform="rotate(-28 105.0 148.5)">papercraft.kr</text><text x="105.0" y="213.8" text-anchor="middle" font-family="sans-serif" font-size="12.4" fill="#9aa0a6" fill-opacity="0.3" transform="rotate(-28 105.0 213.8)">papercraft.kr</text></g></svg>
