<svg xmlns="http://www.w3.org/2000/svg" xmlns:xlink="http://www.w3.org/1999/xlink" width="210.00mm" height="297.00mm" viewBox="0 0 210.00 297.00">
<rect x="0" y="0" width="210.00" height="297.00" fill="#ffffff" stroke="#cccccc" stroke-width="0.2"/>
<polygon points="190.5,22.693 192.495,31.902 175.293,55.793 165.927,56.822" fill="rgb(216,216,216)"/>
<polygon points="165.927,5.0 156.56,6.029 139.359,29.92 141.354,39.129" fill="rgb(216,216,216)"/>
<polygon points="5.0,156.534 6.029,165.901 29.92,183.102 39.129,181.108" fill="rgb(216,216,216)"/>
<polygon points="165.927,5.0 156.56,6.029 139.359,29.92 141.354,39.129" fill="#99d9fa"/>
<line x1="165.927" y1="56.822" x2="141.354" y2="39.129" stroke="#8c8c8c" stroke-width="0.3" stroke-dasharray="1.2,0.8"/>
<line x1="141.354" y1="39.129" x2="39.129" y2="181.108" stroke="#8c8c8c" stroke-width="0.3" stroke-dasharray="1.2,0.8"/>
<line x1="165.927" y1="56.822" x2="190.5" y2="22.693" stroke="#8c8c8c" stroke-width="0.3" stroke-dasharray="1.2,0.8"/>
<line x1="141.354" y1="39.129" x2="165.927" y2="5.0" stroke="#8c8c8c" stroke-width="0.3" stroke-dasharray="1.2,0.8"/>
<line x1="39.129" y1="181.108" x2="5.0" y2="156.534" stroke="#8c8c8c" stroke-width="0.3" stroke-dasharray="1.2,0.8"/>
<line x1="165.927" y1="5.0" x2="190.5" y2="22.693" stroke="#141414" stroke-width="0.4"/>
<line x1="5.0" y1="156.534" x2="107.224" y2="14.556" stroke="#141414" stroke-width="0.4"/>
<line x1="107.224" y1="14.556" x2="141.354" y2="39.129" stroke="#141414" stroke-width="0.4"/>
<line x1="165.927" y1="56.822" x2="63.703" y2="198.8" stroke="#141414" stroke-width="0.4"/>
<line x1="63.703" y1="198.8" x2="39.129" y2="181.108" stroke="#141414" stroke-width="0.4"/>
<line x1="190.5" y1="22.693" x2="192.495" y2="31.902" stroke="#141414" stroke-width="0.4"/>
<line x1="192.495" y1="31.902" x2="175.293" y2="55.793" stroke="#141414" stroke-width="0.4"/>
<line x1="175.293" y1="55.793" x2="165.927" y2="56.822" stroke="#141414" stroke-width="0.4"/>
<line x1="165.927" y1="5.0" x2="156.56" y2="6.029" stroke="#141414" stroke-width="0.4"/>
<line x1="156.56" y1="6.029" x2="139.359" y2="29.92" stroke="#141414" stroke-width="0.4"/>
<line x1="139.359" y1="29.92" x2="141.354" y2="39.129" stroke="#141414" stroke-width="0.4"/>
<line x1="5.0" y1="156.534" x2="6.029" y2="165.901" stroke="#141414" stroke-width="0.4"/>
<line x1="6.029" y1="165.901" x2="29.92" y2="183.102" stroke="#141414" stroke-width="0.4"/>
<line x1="29.92" y1="183.102" x2="39.129" y2="181.108" stroke="#141414" stroke-width="0.4"/>
<circle cx="181.054" cy="41.802" r="2.22" fill="#ffe082" stroke="#464646" stroke-width="0.2"/>
<text x="181.054" y="42.56" font-size="2.18" text-anchor="middle" fill="#141414">14</text>
<circle cx="150.8" cy="20.02" r="2.22" fill="#99d9fa" stroke="#464646" stroke-width="0.2"/>
<text x="150.8" y="20.78" font-size="2.18" text-anchor="middle" fill="#141414">15</text>
<circle cx="20.02" cy="171.661" r="2.22" fill="#ffe082" stroke="#464646" stroke-width="0.2"/>
<text x="20.02" y="172.42" font-size="2.18" text-anchor="middle" fill="#141414">16</text>
<circle cx="50.451" cy="117.399" r="4.60" fill="#eaf1fe" stroke="#2e78e6" stroke-width="0.3"/>
<text x="50.451" y="119.20" font-size="5.20" text-anchor="middle" fill="#14306e" font-weight="bold">4</text>
<polygon points="104.318,245.538 99.271,252.538 75.72,252.538 70.674,245.538" fill="rgb(216,216,216)"/>
<polygon points="104.318,235.444 112.897,228.445 152.934,228.445 161.513,235.444" fill="rgb(216,216,216)"/>
<polygon points="104.318,235.444 99.271,228.445 75.72,228.445 70.674,235.444" fill="rgb(216,216,216)"/>
<polygon points="161.513,245.538 168.513,250.584 168.513,274.135 161.513,279.182" fill="rgb(216,216,216)"/>
<polygon points="13.478,201.8 6.478,206.847 6.478,230.398 13.478,235.444" fill="rgb(216,216,216)"/>
<polygon points="104.318,279.182 112.897,286.182 152.934,286.182 161.513,279.182" fill="rgb(216,216,216)"/>
<polygon points="195.158,245.538 200.204,244.024 200.204,236.958 195.158,235.444" fill="rgb(216,216,216)"/>
<polygon points="104.318,245.538 99.271,252.538 75.72,252.538 70.674,245.538" fill="#99d9fa"/>
<line x1="104.318" y1="245.538" x2="104.318" y2="235.445" stroke="#8c8c8c" stroke-width="0.3" stroke-dasharray="1.2,0.8"/>
<line x1="161.513" y1="245.538" x2="104.318" y2="245.538" stroke="#8c8c8c" stroke-width="0.3" stroke-dasharray="1.2,0.8"/>
<line x1="161.513" y1="235.445" x2="161.513" y2="245.538" stroke="#8c8c8c" stroke-width="0.3" stroke-dasharray="1.2,0.8"/>
<line x1="70.674" y1="245.538" x2="70.674" y2="235.445" stroke="#8c8c8c" stroke-width="0.3" stroke-dasharray="1.2,0.8"/>
<line x1="70.674" y1="235.445" x2="13.478" y2="235.445" stroke="#8c8c8c" stroke-width="0.3" stroke-dasharray="1.2,0.8"/>
<line x1="70.674" y1="245.538" x2="104.318" y2="245.538" stroke="#8c8c8c" stroke-width="0.3" stroke-dasharray="1.2,0.8"/>
<line x1="161.513" y1="235.444" x2="104.318" y2="235.444" stroke="#8c8c8c" stroke-width="0.3" stroke-dasharray="1.2,0.8"/>
<line x1="70.674" y1="235.444" x2="104.318" y2="235.444" stroke="#8c8c8c" stroke-width="0.3" stroke-dasharray="1.2,0.8"/>
<line x1="161.513" y1="279.182" x2="161.513" y2="245.538" stroke="#8c8c8c" stroke-width="0.3" stroke-dasharray="1.2,0.8"/>
<line x1="13.478" y1="235.444" x2="13.478" y2="201.8" stroke="#8c8c8c" stroke-width="0.3" stroke-dasharray="1.2,0.8"/>
<line x1="161.513" y1="279.182" x2="104.318" y2="279.182" stroke="#8c8c8c" stroke-width="0.3" stroke-dasharray="1.2,0.8"/>
<line x1="195.158" y1="235.444" x2="195.158" y2="245.538" stroke="#8c8c8c" stroke-width="0.3" stroke-dasharray="1.2,0.8"/>
<line x1="104.318" y1="279.182" x2="104.318" y2="245.538" stroke="#141414" stroke-width="0.4"/>
<line x1="13.478" y1="201.8" x2="70.674" y2="201.8" stroke="#141414" stroke-width="0.4"/>
<line x1="70.674" y1="201.8" x2="70.674" y2="235.445" stroke="#141414" stroke-width="0.4"/>
<line x1="195.157" y1="245.538" x2="161.513" y2="245.538" stroke="#141414" stroke-width="0.4"/>
<line x1="161.513" y1="235.445" x2="195.157" y2="235.445" stroke="#141414" stroke-width="0.4"/>
<line x1="70.674" y1="245.538" x2="13.478" y2="245.538" stroke="#141414" stroke-width="0.4"/>
<line x1="13.478" y1="245.538" x2="13.478" y2="235.445" stroke="#141414" stroke-width="0.4"/>
<line x1="104.318" y1="245.538" x2="99.271" y2="252.538" stroke="#141414" stroke-width="0.4"/>
<line x1="99.271" y1="252.538" x2="75.72" y2="252.538" stroke="#141414" stroke-width="0.4"/>
<line x1="75.72" y1="252.538" x2="70.674" y2="245.538" stroke="#141414" stroke-width="0.4"/>
<line x1="104.318" y1="235.444" x2="112.897" y2="228.445" stroke="#141414" stroke-width="0.4"/>
<line x1="112.897" y1="228.445" x2="152.934" y2="228.445" stroke="#141414" stroke-width="0.4"/>
<line x1="152.934" y1="228.445" x2="161.513" y2="235.444" stroke="#141414" stroke-width="0.4"/>
<line x1="104.318" y1="235.444" x2="99.271" y2="228.445" stroke="#141414" stroke-width="0.4"/>
<line x1="99.271" y1="228.445" x2="75.72" y2="228.445" stroke="#141414" stroke-width="0.4"/>
<line x1="75.72" y1="228.445" x2="70.674" y2="235.444" stroke="#141414" stroke-width="0.4"/>
<line x1="161.513" y1="245.538" x2="168.513" y2="250.584" stroke="#141414" stroke-width="0.4"/>
<line x1="168.513" y1="250.584" x2="168.513" y2="274.135" stroke="#141414" stroke-width="0.4"/>
<line x1="168.513" y1="274.135" x2="161.513" y2="279.182" stroke="#141414" stroke-width="0.4"/>
<line x1="13.478" y1="201.8" x2="6.478" y2="206.847" stroke="#141414" stroke-width="0.4"/>
<line x1="6.478" y1="206.847" x2="6.478" y2="230.398" stroke="#141414" stroke-width="0.4"/>
<line x1="6.478" y1="230.398" x2="13.478" y2="235.444" stroke="#141414" stroke-width="0.4"/>
<line x1="104.318" y1="279.182" x2="112.897" y2="286.182" stroke="#141414" stroke-width="0.4"/>
<line x1="112.897" y1="286.182" x2="152.934" y2="286.182" stroke="#141414" stroke-width="0.4"/>
<line x1="152.934" y1="286.182" x2="161.513" y2="279.182" stroke="#141414" stroke-width="0.4"/>
<line x1="195.158" y1="245.538" x2="200.204" y2="244.024" stroke="#141414" stroke-width="0.4"/>
<line x1="200.204" y1="244.024" x2="200.204" y2="236.958" stroke="#141414" stroke-width="0.4"/>
<line x1="200.204" y1="236.958" x2="195.158" y2="235.444" stroke="#141414" stroke-width="0.4"/>
<circle cx="87.496" cy="249.038" r="2.22" fill="#99d9fa" stroke="#464646" stroke-width="0.2"/>
<text x="87.496" y="249.80" font-size="2.18" text-anchor="middle" fill="#141414">59</text>
<circle cx="132.916" cy="231.944" r="2.22" fill="#ffe082" stroke="#464646" stroke-width="0.2"/>
<text x="132.916" y="232.71" font-size="2.18" text-anchor="middle" fill="#141414">60</text>
<circle cx="87.496" cy="231.944" r="2.22" fill="#ffe082" stroke="#464646" stroke-width="0.2"/>
<text x="87.496" y="232.71" font-size="2.18" text-anchor="middle" fill="#141414">61</text>
<circle cx="165.013" cy="262.36" r="2.22" fill="#ffe082" stroke="#464646" stroke-width="0.2"/>
<text x="165.013" y="263.12" font-size="2.18" text-anchor="middle" fill="#141414">62</text>
<circle cx="9.978" cy="218.622" r="2.22" fill="#ffe082" stroke="#464646" stroke-width="0.2"/>
<text x="9.978" y="219.38" font-size="2.18" text-anchor="middle" fill="#141414">63</text>
<circle cx="132.916" cy="282.682" r="2.22" fill="#ffe082" stroke="#464646" stroke-width="0.2"/>
<text x="132.916" y="283.44" font-size="2.18" text-anchor="middle" fill="#141414">64</text>
<circle cx="197.681" cy="240.491" r="2.22" fill="#ffe082" stroke="#464646" stroke-width="0.2"/>
<text x="197.681" y="241.25" font-size="2.18" text-anchor="middle" fill="#141414">65</text>
<circle cx="142.448" cy="267.967" r="4.60" fill="#eaf1fe" stroke="#2e78e6" stroke-width="0.3"/>
<text x="142.448" y="269.77" font-size="5.20" text-anchor="middle" fill="#14306e" font-weight="bold">11</text>
<text x="205.0" y="295.0" font-size="3.2" text-anchor="end" fill="#737373" font-family="sans-serif">3 / 7</text>
</svg>
