<svg xmlns="http://www.w3.org/2000/svg" xmlns:xlink="http://www.w3.org/1999/xlink" width="210.00mm" height="297.00mm" viewBox="0 0 210.00 297.00">
<rect x="0" y="0" width="210.00" height="297.00" fill="#ffffff" stroke="#cccccc" stroke-width="0.2"/>
<polygon points="66.174,110.484 73.174,117.266 73.174,148.917 66.174,155.699" fill="rgb(216,216,216)"/>
<polygon points="50.216,110.484 43.215,102.584 43.215,65.72 50.216,57.821" fill="rgb(216,216,216)"/>
<polygon points="50.216,110.484 43.215,117.266 43.215,148.917 50.216,155.699" fill="rgb(216,216,216)"/>
<polygon points="66.174,57.821 72.956,50.821 104.607,50.821 111.39,57.821" fill="rgb(216,216,216)"/>
<polygon points="5.0,208.362 11.782,215.362 43.433,215.362 50.216,208.362" fill="rgb(216,216,216)"/>
<polygon points="111.39,110.484 118.389,102.584 118.389,65.72 111.39,57.821" fill="rgb(216,216,216)"/>
<polygon points="66.174,12.605 63.78,5.605 52.609,5.605 50.216,12.605" fill="rgb(216,216,216)"/>
<line x1="66.174" y1="110.484" x2="50.215" y2="110.484" stroke="#8c8c8c" stroke-width="0.3" stroke-dasharray="1.2,0.8"/>
<line x1="66.174" y1="57.821" x2="66.174" y2="110.484" stroke="#8c8c8c" stroke-width="0.3" stroke-dasharray="1.2,0.8"/>
<line x1="50.215" y1="57.821" x2="66.174" y2="57.821" stroke="#8c8c8c" stroke-width="0.3" stroke-dasharray="1.2,0.8"/>
<line x1="66.174" y1="155.699" x2="50.215" y2="155.699" stroke="#8c8c8c" stroke-width="0.3" stroke-dasharray="1.2,0.8"/>
<line x1="50.215" y1="155.699" x2="50.215" y2="208.362" stroke="#8c8c8c" stroke-width="0.3" stroke-dasharray="1.2,0.8"/>
<line x1="66.174" y1="155.699" x2="66.174" y2="110.484" stroke="#8c8c8c" stroke-width="0.3" stroke-dasharray="1.2,0.8"/>
<line x1="50.216" y1="57.821" x2="50.216" y2="110.484" stroke="#8c8c8c" stroke-width="0.3" stroke-dasharray="1.2,0.8"/>
<line x1="50.216" y1="155.699" x2="50.216" y2="110.484" stroke="#8c8c8c" stroke-width="0.3" stroke-dasharray="1.2,0.8"/>
<line x1="111.39" y1="57.821" x2="66.174" y2="57.821" stroke="#8c8c8c" stroke-width="0.3" stroke-dasharray="1.2,0.8"/>
<line x1="50.216" y1="208.362" x2="5.0" y2="208.362" stroke="#8c8c8c" stroke-width="0.3" stroke-dasharray="1.2,0.8"/>
<line x1="111.39" y1="57.821" x2="111.39" y2="110.484" stroke="#8c8c8c" stroke-width="0.3" stroke-dasharray="1.2,0.8"/>
<line x1="50.216" y1="12.605" x2="66.174" y2="12.605" stroke="#8c8c8c" stroke-width="0.3" stroke-dasharray="1.2,0.8"/>
<line x1="111.389" y1="110.484" x2="66.174" y2="110.484" stroke="#141414" stroke-width="0.4"/>
<line x1="5.0" y1="208.362" x2="5.0" y2="155.699" stroke="#141414" stroke-width="0.4"/>
<line x1="5.0" y1="155.699" x2="50.215" y2="155.699" stroke="#141414" stroke-width="0.4"/>
<line x1="66.174" y1="12.605" x2="66.174" y2="57.821" stroke="#141414" stroke-width="0.4"/>
<line x1="50.215" y1="57.821" x2="50.215" y2="12.605" stroke="#141414" stroke-width="0.4"/>
<line x1="66.174" y1="155.699" x2="66.174" y2="208.362" stroke="#141414" stroke-width="0.4"/>
<line x1="66.174" y1="208.362" x2="50.215" y2="208.362" stroke="#141414" stroke-width="0.4"/>
<line x1="66.174" y1="110.484" x2="73.174" y2="117.266" stroke="#141414" stroke-width="0.4"/>
<line x1="73.174" y1="117.266" x2="73.174" y2="148.917" stroke="#141414" stroke-width="0.4"/>
<line x1="73.174" y1="148.917" x2="66.174" y2="155.699" stroke="#141414" stroke-width="0.4"/>
<line x1="50.216" y1="110.484" x2="43.215" y2="102.584" stroke="#141414" stroke-width="0.4"/>
<line x1="43.215" y1="102.584" x2="43.215" y2="65.72" stroke="#141414" stroke-width="0.4"/>
<line x1="43.215" y1="65.72" x2="50.216" y2="57.821" stroke="#141414" stroke-width="0.4"/>
<line x1="50.216" y1="110.484" x2="43.215" y2="117.266" stroke="#141414" stroke-width="0.4"/>
<line x1="43.215" y1="117.266" x2="43.215" y2="148.917" stroke="#141414" stroke-width="0.4"/>
<line x1="43.215" y1="148.917" x2="50.216" y2="155.699" stroke="#141414" stroke-width="0.4"/>
<line x1="66.174" y1="57.821" x2="72.956" y2="50.821" stroke="#141414" stroke-width="0.4"/>
<line x1="72.956" y1="50.821" x2="104.607" y2="50.821" stroke="#141414" stroke-width="0.4"/>
<line x1="104.607" y1="50.821" x2="111.39" y2="57.821" stroke="#141414" stroke-width="0.4"/>
<line x1="5.0" y1="208.362" x2="11.782" y2="215.362" stroke="#141414" stroke-width="0.4"/>
<line x1="11.782" y1="215.362" x2="43.433" y2="215.362" stroke="#141414" stroke-width="0.4"/>
<line x1="43.433" y1="215.362" x2="50.216" y2="208.362" stroke="#141414" stroke-width="0.4"/>
<line x1="111.39" y1="110.484" x2="118.389" y2="102.584" stroke="#141414" stroke-width="0.4"/>
<line x1="118.389" y1="102.584" x2="118.389" y2="65.72" stroke="#141414" stroke-width="0.4"/>
<line x1="118.389" y1="65.72" x2="111.39" y2="57.821" stroke="#141414" stroke-width="0.4"/>
<line x1="66.174" y1="12.605" x2="63.78" y2="5.605" stroke="#141414" stroke-width="0.4"/>
<line x1="63.78" y1="5.605" x2="52.609" y2="5.605" stroke="#141414" stroke-width="0.4"/>
<line x1="52.609" y1="5.605" x2="50.216" y2="12.605" stroke="#141414" stroke-width="0.4"/>
<circle cx="69.674" cy="133.092" r="1.51" fill="#ffe082" stroke="#464646" stroke-width="0.2"/>
<text x="69.674" y="133.61" font-size="1.48" text-anchor="middle" fill="#141414">46</text>
<circle cx="46.716" cy="84.152" r="1.51" fill="#ffe082" stroke="#464646" stroke-width="0.2"/>
<text x="46.716" y="84.67" font-size="1.48" text-anchor="middle" fill="#141414">47</text>
<circle cx="46.716" cy="133.092" r="1.51" fill="#ffe082" stroke="#464646" stroke-width="0.2"/>
<text x="46.716" y="133.61" font-size="1.48" text-anchor="middle" fill="#141414">48</text>
<circle cx="88.782" cy="54.321" r="1.51" fill="#ffe082" stroke="#464646" stroke-width="0.2"/>
<text x="88.782" y="54.84" font-size="1.48" text-anchor="middle" fill="#141414">49</text>
<circle cx="27.608" cy="211.862" r="1.51" fill="#ffe082" stroke="#464646" stroke-width="0.2"/>
<text x="27.608" y="212.38" font-size="1.48" text-anchor="middle" fill="#141414">50</text>
<circle cx="114.89" cy="84.152" r="1.51" fill="#ffe082" stroke="#464646" stroke-width="0.2"/>
<text x="114.89" y="84.67" font-size="1.48" text-anchor="middle" fill="#141414">51</text>
<circle cx="58.195" cy="9.105" r="1.51" fill="#ffe082" stroke="#464646" stroke-width="0.2"/>
<text x="58.195" y="9.62" font-size="1.48" text-anchor="middle" fill="#141414">52</text>
<circle cx="61.695" cy="220.857" r="4.6" fill="#eaf1fe" stroke="#2e78e6" stroke-width="0.3"/>
<text x="61.695" y="222.657" font-size="5.2" text-anchor="middle" fill="#14306e" font-weight="bold">6</text>
<g pointer-events="none"><text x="105.0" y="83.2" text-anchor="middle" font-family="sans-serif" font-size="12.4" fill="#9aa0a6" fill-opacity="0.3" transform="rotate(-28 105.0 83.2)">papercraft.kr</text><text x="105.0" y="148.5" text-anchor="middle" font-family="sans-serif" font-size="12.4" fill="#9aa0a6" fill-opacity="0.3" transform="rotate(-28 105.0 148.5)">papercraft.kr</text><text x="105.0" y="213.8" text-anchor="middle" font-family="sans-serif" font-size="12.4" fill="#9aa0a6" fill-opacity="0.3" transform="rotate(-28 105.0 213.8)">papercraft.kr</text></g></svg>
