<svg xmlns="http://www.w3.org/2000/svg" xmlns:xlink="http://www.w3.org/1999/xlink" width="210.00mm" height="297.00mm" viewBox="0 0 210.00 297.00">
<rect x="0" y="0" width="210.00" height="297.00" fill="#ffffff" stroke="#cccccc" stroke-width="0.2"/>
<polygon points="99.723,19.105 99.941,18.826 100.46,15.64 101.904,16.323" fill="rgb(216,216,216)"/>
<polygon points="101.904,16.323 114.534,14.59 159.416,35.989 166.021,46.894" fill="rgb(216,216,216)"/>
<polygon points="77.273,5.0 61.921,16.828 18.217,88.953 14.838,108.036" fill="rgb(216,216,216)"/>
<polygon points="165.418,50.271 165.478,49.933 167.511,47.508 166.021,46.894" fill="rgb(216,216,216)"/>
<polygon points="149.924,172.171 162.602,157.487 191.006,77.976 190.5,58.583" fill="rgb(216,216,216)"/>
<polygon points="149.924,172.171 149.7,180.73 130.549,193.485 122.565,190.392" fill="rgb(216,216,216)"/>
<polygon points="38.966,149.833 38.126,151.468 35.857,148.945 35.511,148.846" fill="rgb(216,216,216)"/>
<polygon points="38.966,149.833 45.028,160.548 87.558,181.153 99.723,179.268" fill="rgb(216,216,216)"/>
<polygon points="103.167,180.295 101.932,182.551 99.521,181.833 99.723,179.268" fill="rgb(216,216,216)"/>
<polygon points="103.167,180.295 102.845,188.018 116.424,195.086 122.565,190.392" fill="rgb(216,216,216)"/>
<line x1="38.966" y1="149.833" x2="99.723" y2="19.105" stroke="#8c8c8c" stroke-width="0.3" stroke-dasharray="1.2,0.8"/>
<line x1="99.723" y1="19.105" x2="35.511" y2="148.846" stroke="#8c8c8c" stroke-width="0.3" stroke-dasharray="1.2,0.8"/>
<line x1="99.723" y1="179.268" x2="99.723" y2="19.105" stroke="#8c8c8c" stroke-width="0.3" stroke-dasharray="1.2,0.8"/>
<line x1="165.418" y1="50.271" x2="103.167" y2="180.295" stroke="#8c8c8c" stroke-width="0.3" stroke-dasharray="1.2,0.8"/>
<line x1="99.723" y1="179.268" x2="165.418" y2="50.271" stroke="#8c8c8c" stroke-width="0.3" stroke-dasharray="1.2,0.8"/>
<line x1="165.418" y1="50.271" x2="122.565" y2="190.392" stroke="#8c8c8c" stroke-width="0.3" stroke-dasharray="1.2,0.8"/>
<line x1="35.511" y1="148.846" x2="14.838" y2="108.036" stroke="#8c8c8c" stroke-width="0.3" stroke-dasharray="1.2,0.8"/>
<line x1="35.511" y1="148.846" x2="13.632" y2="140.884" stroke="#8c8c8c" stroke-width="0.3" stroke-dasharray="1.2,0.8"/>
<line x1="35.511" y1="148.846" x2="100.304" y2="15.618" stroke="#8c8c8c" stroke-width="0.3" stroke-dasharray="1.2,0.8"/>
<line x1="101.904" y1="16.323" x2="99.723" y2="179.268" stroke="#8c8c8c" stroke-width="0.3" stroke-dasharray="1.2,0.8"/>
<line x1="77.273" y1="5.0" x2="35.511" y2="148.846" stroke="#8c8c8c" stroke-width="0.3" stroke-dasharray="1.2,0.8"/>
<line x1="166.021" y1="46.894" x2="99.723" y2="179.268" stroke="#8c8c8c" stroke-width="0.3" stroke-dasharray="1.2,0.8"/>
<line x1="122.565" y1="190.392" x2="167.626" y2="47.645" stroke="#8c8c8c" stroke-width="0.3" stroke-dasharray="1.2,0.8"/>
<line x1="190.5" y1="58.583" x2="122.565" y2="190.392" stroke="#8c8c8c" stroke-width="0.3" stroke-dasharray="1.2,0.8"/>
<line x1="13.632" y1="140.884" x2="37.869" y2="151.558" stroke="#8c8c8c" stroke-width="0.3" stroke-dasharray="1.2,0.8"/>
<line x1="101.904" y1="16.323" x2="99.723" y2="19.105" stroke="#8c8c8c" stroke-width="0.3" stroke-dasharray="1.2,0.8"/>
<line x1="166.021" y1="46.894" x2="101.904" y2="16.323" stroke="#8c8c8c" stroke-width="0.3" stroke-dasharray="1.2,0.8"/>
<line x1="14.838" y1="108.036" x2="77.273" y2="5.0" stroke="#8c8c8c" stroke-width="0.3" stroke-dasharray="1.2,0.8"/>
<line x1="166.021" y1="46.894" x2="165.418" y2="50.271" stroke="#8c8c8c" stroke-width="0.3" stroke-dasharray="1.2,0.8"/>
<line x1="190.5" y1="58.583" x2="149.924" y2="172.171" stroke="#8c8c8c" stroke-width="0.3" stroke-dasharray="1.2,0.8"/>
<line x1="122.565" y1="190.392" x2="149.924" y2="172.171" stroke="#8c8c8c" stroke-width="0.3" stroke-dasharray="1.2,0.8"/>
<line x1="35.511" y1="148.846" x2="38.966" y2="149.833" stroke="#8c8c8c" stroke-width="0.3" stroke-dasharray="1.2,0.8"/>
<line x1="99.723" y1="179.268" x2="38.966" y2="149.833" stroke="#8c8c8c" stroke-width="0.3" stroke-dasharray="1.2,0.8"/>
<line x1="99.723" y1="179.268" x2="103.167" y2="180.295" stroke="#8c8c8c" stroke-width="0.3" stroke-dasharray="1.2,0.8"/>
<line x1="122.565" y1="190.392" x2="103.167" y2="180.295" stroke="#8c8c8c" stroke-width="0.3" stroke-dasharray="1.2,0.8"/>
<line x1="100.304" y1="15.618" x2="99.723" y2="19.105" stroke="#141414" stroke-width="0.4"/>
<line x1="77.273" y1="5.0" x2="100.304" y2="15.618" stroke="#141414" stroke-width="0.4"/>
<line x1="165.418" y1="50.271" x2="167.626" y2="47.645" stroke="#141414" stroke-width="0.4"/>
<line x1="167.626" y1="47.645" x2="190.5" y2="58.583" stroke="#141414" stroke-width="0.4"/>
<line x1="35.511" y1="148.846" x2="37.869" y2="151.558" stroke="#141414" stroke-width="0.4"/>
<line x1="37.869" y1="151.558" x2="5.0" y2="210.528" stroke="#141414" stroke-width="0.4"/>
<line x1="13.632" y1="140.884" x2="14.838" y2="108.036" stroke="#141414" stroke-width="0.4"/>
<line x1="5.0" y1="210.528" x2="13.632" y2="140.884" stroke="#141414" stroke-width="0.4"/>
<line x1="99.723" y1="19.105" x2="99.941" y2="18.826" stroke="#141414" stroke-width="0.4"/>
<line x1="99.941" y1="18.826" x2="100.46" y2="15.64" stroke="#141414" stroke-width="0.4"/>
<line x1="100.46" y1="15.64" x2="101.904" y2="16.323" stroke="#141414" stroke-width="0.4"/>
<line x1="101.904" y1="16.323" x2="114.534" y2="14.59" stroke="#141414" stroke-width="0.4"/>
<line x1="114.534" y1="14.59" x2="159.416" y2="35.989" stroke="#141414" stroke-width="0.4"/>
<line x1="159.416" y1="35.989" x2="166.021" y2="46.894" stroke="#141414" stroke-width="0.4"/>
<line x1="77.273" y1="5.0" x2="61.921" y2="16.828" stroke="#141414" stroke-width="0.4"/>
<line x1="61.921" y1="16.828" x2="18.217" y2="88.953" stroke="#141414" stroke-width="0.4"/>
<line x1="18.217" y1="88.953" x2="14.838" y2="108.036" stroke="#141414" stroke-width="0.4"/>
<line x1="165.418" y1="50.271" x2="165.478" y2="49.933" stroke="#141414" stroke-width="0.4"/>
<line x1="165.478" y1="49.933" x2="167.511" y2="47.508" stroke="#141414" stroke-width="0.4"/>
<line x1="167.511" y1="47.508" x2="166.021" y2="46.894" stroke="#141414" stroke-width="0.4"/>
<line x1="149.924" y1="172.171" x2="162.602" y2="157.487" stroke="#141414" stroke-width="0.4"/>
<line x1="162.602" y1="157.487" x2="191.006" y2="77.976" stroke="#141414" stroke-width="0.4"/>
<line x1="191.006" y1="77.976" x2="190.5" y2="58.583" stroke="#141414" stroke-width="0.4"/>
<line x1="149.924" y1="172.171" x2="149.7" y2="180.73" stroke="#141414" stroke-width="0.4"/>
<line x1="149.7" y1="180.73" x2="130.549" y2="193.485" stroke="#141414" stroke-width="0.4"/>
<line x1="130.549" y1="193.485" x2="122.565" y2="190.392" stroke="#141414" stroke-width="0.4"/>
<line x1="38.966" y1="149.833" x2="38.126" y2="151.468" stroke="#141414" stroke-width="0.4"/>
<line x1="38.126" y1="151.468" x2="35.857" y2="148.945" stroke="#141414" stroke-width="0.4"/>
<line x1="35.857" y1="148.945" x2="35.511" y2="148.846" stroke="#141414" stroke-width="0.4"/>
<line x1="38.966" y1="149.833" x2="45.028" y2="160.548" stroke="#141414" stroke-width="0.4"/>
<line x1="45.028" y1="160.548" x2="87.558" y2="181.153" stroke="#141414" stroke-width="0.4"/>
<line x1="87.558" y1="181.153" x2="99.723" y2="179.268" stroke="#141414" stroke-width="0.4"/>
<line x1="103.167" y1="180.295" x2="101.932" y2="182.551" stroke="#141414" stroke-width="0.4"/>
<line x1="101.932" y1="182.551" x2="99.521" y2="181.833" stroke="#141414" stroke-width="0.4"/>
<line x1="99.521" y1="181.833" x2="99.723" y2="179.268" stroke="#141414" stroke-width="0.4"/>
<line x1="103.167" y1="180.295" x2="102.845" y2="188.018" stroke="#141414" stroke-width="0.4"/>
<line x1="102.845" y1="188.018" x2="116.424" y2="195.086" stroke="#141414" stroke-width="0.4"/>
<line x1="116.424" y1="195.086" x2="122.565" y2="190.392" stroke="#141414" stroke-width="0.4"/>
<circle cx="135.469" cy="28.449" r="1.11" fill="#ffe082" stroke="#464646" stroke-width="0.2"/>
<text x="135.469" y="28.83" font-size="1.08" text-anchor="middle" fill="#141414">2</text>
<circle cx="43.062" cy="54.704" r="1.11" fill="#ffe082" stroke="#464646" stroke-width="0.2"/>
<text x="43.062" y="55.08" font-size="1.08" text-anchor="middle" fill="#141414">3</text>
<circle cx="173.508" cy="116.554" r="1.11" fill="#ffe082" stroke="#464646" stroke-width="0.2"/>
<text x="173.508" y="116.93" font-size="1.08" text-anchor="middle" fill="#141414">5</text>
<circle cx="138.185" cy="184.194" r="1.11" fill="#ffe082" stroke="#464646" stroke-width="0.2"/>
<text x="138.185" y="184.57" font-size="1.08" text-anchor="middle" fill="#141414">6</text>
<circle cx="67.819" cy="167.701" r="1.11" fill="#ffe082" stroke="#464646" stroke-width="0.2"/>
<text x="67.819" y="168.08" font-size="1.08" text-anchor="middle" fill="#141414">8</text>
<circle cx="101.086" cy="180.987" r="1.11" fill="#ffe082" stroke="#464646" stroke-width="0.2"/>
<text x="101.086" y="181.37" font-size="1.08" text-anchor="middle" fill="#141414">9</text>
<circle cx="111.25" cy="188.448" r="1.11" fill="#ffe082" stroke="#464646" stroke-width="0.2"/>
<text x="111.25" y="188.83" font-size="1.08" text-anchor="middle" fill="#141414">10</text>
<circle cx="98.003" cy="216.628" r="4.6" fill="#eaf1fe" stroke="#2e78e6" stroke-width="0.3"/>
<text x="98.003" y="218.428" font-size="5.2" text-anchor="middle" fill="#14306e" font-weight="bold">1</text>
<polygon points="45.33,243.219 42.547,250.219 29.557,250.219 26.773,243.219" fill="rgb(216,216,216)"/>
<polygon points="45.33,232.085 47.557,225.085 57.949,225.085 60.176,232.085" fill="rgb(216,216,216)"/>
<polygon points="45.33,232.085 42.547,225.085 29.557,225.085 26.773,232.085" fill="rgb(216,216,216)"/>
<polygon points="60.176,243.219 67.176,246.002 67.176,258.992 60.176,261.776" fill="rgb(216,216,216)"/>
<polygon points="11.928,213.528 4.928,216.311 4.928,229.301 11.928,232.085" fill="rgb(216,216,216)"/>
<polygon points="45.33,261.776 47.557,268.776 57.949,268.776 60.176,261.776" fill="rgb(216,216,216)"/>
<polygon points="78.733,243.219 84.3,241.549 84.3,233.755 78.733,232.085" fill="rgb(216,216,216)"/>
<line x1="45.33" y1="243.219" x2="45.33" y2="232.085" stroke="#8c8c8c" stroke-width="0.3" stroke-dasharray="1.2,0.8"/>
<line x1="60.176" y1="243.219" x2="45.33" y2="243.219" stroke="#8c8c8c" stroke-width="0.3" stroke-dasharray="1.2,0.8"/>
<line x1="60.176" y1="232.085" x2="60.176" y2="243.219" stroke="#8c8c8c" stroke-width="0.3" stroke-dasharray="1.2,0.8"/>
<line x1="26.773" y1="243.219" x2="26.773" y2="232.085" stroke="#8c8c8c" stroke-width="0.3" stroke-dasharray="1.2,0.8"/>
<line x1="26.773" y1="232.085" x2="11.928" y2="232.085" stroke="#8c8c8c" stroke-width="0.3" stroke-dasharray="1.2,0.8"/>
<line x1="26.773" y1="243.219" x2="45.33" y2="243.219" stroke="#8c8c8c" stroke-width="0.3" stroke-dasharray="1.2,0.8"/>
<line x1="60.176" y1="232.085" x2="45.33" y2="232.085" stroke="#8c8c8c" stroke-width="0.3" stroke-dasharray="1.2,0.8"/>
<line x1="26.773" y1="232.085" x2="45.33" y2="232.085" stroke="#8c8c8c" stroke-width="0.3" stroke-dasharray="1.2,0.8"/>
<line x1="60.176" y1="261.776" x2="60.176" y2="243.219" stroke="#8c8c8c" stroke-width="0.3" stroke-dasharray="1.2,0.8"/>
<line x1="11.928" y1="232.085" x2="11.928" y2="213.528" stroke="#8c8c8c" stroke-width="0.3" stroke-dasharray="1.2,0.8"/>
<line x1="60.176" y1="261.776" x2="45.33" y2="261.776" stroke="#8c8c8c" stroke-width="0.3" stroke-dasharray="1.2,0.8"/>
<line x1="78.733" y1="232.085" x2="78.733" y2="243.219" stroke="#8c8c8c" stroke-width="0.3" stroke-dasharray="1.2,0.8"/>
<line x1="45.33" y1="261.776" x2="45.33" y2="243.219" stroke="#141414" stroke-width="0.4"/>
<line x1="11.928" y1="213.528" x2="26.773" y2="213.528" stroke="#141414" stroke-width="0.4"/>
<line x1="26.773" y1="213.528" x2="26.773" y2="232.085" stroke="#141414" stroke-width="0.4"/>
<line x1="78.733" y1="243.219" x2="60.176" y2="243.219" stroke="#141414" stroke-width="0.4"/>
<line x1="60.176" y1="232.085" x2="78.733" y2="232.085" stroke="#141414" stroke-width="0.4"/>
<line x1="26.773" y1="243.219" x2="11.928" y2="243.219" stroke="#141414" stroke-width="0.4"/>
<line x1="11.928" y1="243.219" x2="11.928" y2="232.085" stroke="#141414" stroke-width="0.4"/>
<line x1="45.33" y1="243.219" x2="42.547" y2="250.219" stroke="#141414" stroke-width="0.4"/>
<line x1="42.547" y1="250.219" x2="29.557" y2="250.219" stroke="#141414" stroke-width="0.4"/>
<line x1="29.557" y1="250.219" x2="26.773" y2="243.219" stroke="#141414" stroke-width="0.4"/>
<line x1="45.33" y1="232.085" x2="47.557" y2="225.085" stroke="#141414" stroke-width="0.4"/>
<line x1="47.557" y1="225.085" x2="57.949" y2="225.085" stroke="#141414" stroke-width="0.4"/>
<line x1="57.949" y1="225.085" x2="60.176" y2="232.085" stroke="#141414" stroke-width="0.4"/>
<line x1="45.33" y1="232.085" x2="42.547" y2="225.085" stroke="#141414" stroke-width="0.4"/>
<line x1="42.547" y1="225.085" x2="29.557" y2="225.085" stroke="#141414" stroke-width="0.4"/>
<line x1="29.557" y1="225.085" x2="26.773" y2="232.085" stroke="#141414" stroke-width="0.4"/>
<line x1="60.176" y1="243.219" x2="67.176" y2="246.002" stroke="#141414" stroke-width="0.4"/>
<line x1="67.176" y1="246.002" x2="67.176" y2="258.992" stroke="#141414" stroke-width="0.4"/>
<line x1="67.176" y1="258.992" x2="60.176" y2="261.776" stroke="#141414" stroke-width="0.4"/>
<line x1="11.928" y1="213.528" x2="4.928" y2="216.311" stroke="#141414" stroke-width="0.4"/>
<line x1="4.928" y1="216.311" x2="4.928" y2="229.301" stroke="#141414" stroke-width="0.4"/>
<line x1="4.928" y1="229.301" x2="11.928" y2="232.085" stroke="#141414" stroke-width="0.4"/>
<line x1="45.33" y1="261.776" x2="47.557" y2="268.776" stroke="#141414" stroke-width="0.4"/>
<line x1="47.557" y1="268.776" x2="57.949" y2="268.776" stroke="#141414" stroke-width="0.4"/>
<line x1="57.949" y1="268.776" x2="60.176" y2="261.776" stroke="#141414" stroke-width="0.4"/>
<line x1="78.733" y1="243.219" x2="84.3" y2="241.549" stroke="#141414" stroke-width="0.4"/>
<line x1="84.3" y1="241.549" x2="84.3" y2="233.755" stroke="#141414" stroke-width="0.4"/>
<line x1="84.3" y1="233.755" x2="78.733" y2="232.085" stroke="#141414" stroke-width="0.4"/>
<circle cx="36.052" cy="246.719" r="1.11" fill="#ffe082" stroke="#464646" stroke-width="0.2"/>
<text x="36.052" y="247.10" font-size="1.08" text-anchor="middle" fill="#141414">39</text>
<circle cx="52.753" cy="228.585" r="1.11" fill="#ffe082" stroke="#464646" stroke-width="0.2"/>
<text x="52.753" y="228.96" font-size="1.08" text-anchor="middle" fill="#141414">40</text>
<circle cx="36.052" cy="228.585" r="1.11" fill="#ffe082" stroke="#464646" stroke-width="0.2"/>
<text x="36.052" y="228.96" font-size="1.08" text-anchor="middle" fill="#141414">41</text>
<circle cx="63.676" cy="252.497" r="1.11" fill="#ffe082" stroke="#464646" stroke-width="0.2"/>
<text x="63.676" y="252.88" font-size="1.08" text-anchor="middle" fill="#141414">42</text>
<circle cx="8.428" cy="222.806" r="1.11" fill="#ffe082" stroke="#464646" stroke-width="0.2"/>
<text x="8.428" y="223.19" font-size="1.08" text-anchor="middle" fill="#141414">43</text>
<circle cx="52.753" cy="265.276" r="1.11" fill="#ffe082" stroke="#464646" stroke-width="0.2"/>
<text x="52.753" y="265.66" font-size="1.08" text-anchor="middle" fill="#141414">44</text>
<circle cx="81.516" cy="237.652" r="1.11" fill="#ffe082" stroke="#464646" stroke-width="0.2"/>
<text x="81.516" y="238.03" font-size="1.08" text-anchor="middle" fill="#141414">45</text>
<circle cx="44.686" cy="207.428" r="4.6" fill="#eaf1fe" stroke="#2e78e6" stroke-width="0.3"/>
<text x="44.686" y="209.228" font-size="5.2" text-anchor="middle" fill="#14306e" font-weight="bold">5</text>
<g pointer-events="none"><text x="105.0" y="89.1" text-anchor="middle" font-family="sans-serif" font-size="21.2" fill="#9aa0a6" fill-opacity="0.33" transform="rotate(-28 105.0 89.1)">papercraft.kr 미리보기</text><text x="105.0" y="163.4" text-anchor="middle" font-family="sans-serif" font-size="21.2" fill="#9aa0a6" fill-opacity="0.33" transform="rotate(-28 105.0 163.4)">papercraft.kr 미리보기</text><text x="105.0" y="237.6" text-anchor="middle" font-family="sans-serif" font-size="21.2" fill="#9aa0a6" fill-opacity="0.33" transform="rotate(-28 105.0 237.6)">papercraft.kr 미리보기</text></g></svg>
