<svg xmlns="http://www.w3.org/2000/svg" xmlns:xlink="http://www.w3.org/1999/xlink" width="210.00mm" height="297.00mm" viewBox="0 0 210.00 297.00">
<rect x="0" y="0" width="210.00" height="297.00" fill="#ffffff" stroke="#cccccc" stroke-width="0.2"/>
<polygon points="7.991,187.29 6.132,179.966 18.629,157.639 25.844,155.395" fill="rgb(216,216,216)"/>
<polygon points="117.167,103.373 115.386,112.343 90.183,136.779 81.162,138.282" fill="rgb(216,216,216)"/>
<polygon points="128.721,7.304 121.143,6.082 99.165,20.619 97.324,28.072" fill="rgb(216,216,216)"/>
<polygon points="25.844,155.395 22.281,150.673 27.736,138.694 33.638,138.282" fill="rgb(216,216,216)"/>
<polygon points="95.322,80.015 90.426,72.023 91.828,35.663 97.324,28.072" fill="rgb(216,216,216)"/>
<polygon points="95.322,80.015 88.101,83.538 76.63,109.717 78.935,117.414" fill="rgb(216,216,216)"/>
<polygon points="117.167,103.373 115.386,112.343 90.183,136.779 81.162,138.282" fill="#99d9fa"/>
<line x1="25.844" y1="155.395" x2="63.592" y2="169.745" stroke="#8c8c8c" stroke-width="0.3" stroke-dasharray="1.2,0.8"/>
<line x1="63.592" y1="169.745" x2="81.162" y2="138.282" stroke="#8c8c8c" stroke-width="0.3" stroke-dasharray="1.2,0.8"/>
<line x1="95.322" y1="80.015" x2="123.168" y2="44.566" stroke="#8c8c8c" stroke-width="0.3" stroke-dasharray="1.2,0.8"/>
<line x1="95.322" y1="80.015" x2="117.167" y2="103.373" stroke="#8c8c8c" stroke-width="0.3" stroke-dasharray="1.2,0.8"/>
<line x1="81.162" y1="138.282" x2="25.844" y2="155.395" stroke="#8c8c8c" stroke-width="0.3" stroke-dasharray="1.2,0.8"/>
<line x1="95.322" y1="80.015" x2="81.162" y2="138.282" stroke="#8c8c8c" stroke-width="0.3" stroke-dasharray="1.2,0.8"/>
<line x1="78.935" y1="117.414" x2="81.162" y2="138.282" stroke="#8c8c8c" stroke-width="0.3" stroke-dasharray="1.2,0.8"/>
<line x1="33.638" y1="138.282" x2="81.162" y2="138.282" stroke="#8c8c8c" stroke-width="0.3" stroke-dasharray="1.2,0.8"/>
<line x1="33.638" y1="138.282" x2="63.377" y2="102.601" stroke="#8c8c8c" stroke-width="0.3" stroke-dasharray="1.2,0.8"/>
<line x1="123.168" y1="44.566" x2="97.324" y2="28.072" stroke="#8c8c8c" stroke-width="0.3" stroke-dasharray="1.2,0.8"/>
<line x1="33.638" y1="138.282" x2="78.935" y2="117.414" stroke="#8c8c8c" stroke-width="0.3" stroke-dasharray="1.2,0.8"/>
<line x1="25.844" y1="155.395" x2="7.991" y2="187.29" stroke="#8c8c8c" stroke-width="0.3" stroke-dasharray="1.2,0.8"/>
<line x1="81.162" y1="138.282" x2="117.167" y2="103.373" stroke="#8c8c8c" stroke-width="0.3" stroke-dasharray="1.2,0.8"/>
<line x1="97.324" y1="28.072" x2="128.721" y2="7.304" stroke="#8c8c8c" stroke-width="0.3" stroke-dasharray="1.2,0.8"/>
<line x1="33.638" y1="138.282" x2="25.844" y2="155.395" stroke="#8c8c8c" stroke-width="0.3" stroke-dasharray="1.2,0.8"/>
<line x1="97.324" y1="28.072" x2="95.322" y2="80.015" stroke="#8c8c8c" stroke-width="0.3" stroke-dasharray="1.2,0.8"/>
<line x1="78.935" y1="117.414" x2="95.322" y2="80.015" stroke="#8c8c8c" stroke-width="0.3" stroke-dasharray="1.2,0.8"/>
<line x1="63.592" y1="169.745" x2="7.991" y2="187.291" stroke="#141414" stroke-width="0.4"/>
<line x1="129.785" y1="150.564" x2="63.592" y2="169.745" stroke="#141414" stroke-width="0.4"/>
<line x1="123.168" y1="44.566" x2="117.167" y2="103.373" stroke="#141414" stroke-width="0.4"/>
<line x1="128.721" y1="7.303" x2="123.168" y2="44.566" stroke="#141414" stroke-width="0.4"/>
<line x1="81.162" y1="138.282" x2="129.785" y2="150.564" stroke="#141414" stroke-width="0.4"/>
<line x1="63.377" y1="102.601" x2="78.935" y2="117.414" stroke="#141414" stroke-width="0.4"/>
<line x1="41.733" y1="89.237" x2="63.377" y2="102.601" stroke="#141414" stroke-width="0.4"/>
<line x1="33.638" y1="138.282" x2="41.733" y2="89.237" stroke="#141414" stroke-width="0.4"/>
<line x1="7.991" y1="187.29" x2="6.132" y2="179.966" stroke="#141414" stroke-width="0.4"/>
<line x1="6.132" y1="179.966" x2="18.629" y2="157.639" stroke="#141414" stroke-width="0.4"/>
<line x1="18.629" y1="157.639" x2="25.844" y2="155.395" stroke="#141414" stroke-width="0.4"/>
<line x1="117.167" y1="103.373" x2="115.386" y2="112.343" stroke="#141414" stroke-width="0.4"/>
<line x1="115.386" y1="112.343" x2="90.183" y2="136.779" stroke="#141414" stroke-width="0.4"/>
<line x1="90.183" y1="136.779" x2="81.162" y2="138.282" stroke="#141414" stroke-width="0.4"/>
<line x1="128.721" y1="7.304" x2="121.143" y2="6.082" stroke="#141414" stroke-width="0.4"/>
<line x1="121.143" y1="6.082" x2="99.165" y2="20.619" stroke="#141414" stroke-width="0.4"/>
<line x1="99.165" y1="20.619" x2="97.324" y2="28.072" stroke="#141414" stroke-width="0.4"/>
<line x1="25.844" y1="155.395" x2="22.281" y2="150.673" stroke="#141414" stroke-width="0.4"/>
<line x1="22.281" y1="150.673" x2="27.736" y2="138.694" stroke="#141414" stroke-width="0.4"/>
<line x1="27.736" y1="138.694" x2="33.638" y2="138.282" stroke="#141414" stroke-width="0.4"/>
<line x1="95.322" y1="80.015" x2="90.426" y2="72.023" stroke="#141414" stroke-width="0.4"/>
<line x1="90.426" y1="72.023" x2="91.828" y2="35.663" stroke="#141414" stroke-width="0.4"/>
<line x1="91.828" y1="35.663" x2="97.324" y2="28.072" stroke="#141414" stroke-width="0.4"/>
<line x1="95.322" y1="80.015" x2="88.101" y2="83.538" stroke="#141414" stroke-width="0.4"/>
<line x1="88.101" y1="83.538" x2="76.63" y2="109.717" stroke="#141414" stroke-width="0.4"/>
<line x1="76.63" y1="109.717" x2="78.935" y2="117.414" stroke="#141414" stroke-width="0.4"/>
<circle cx="14.649" cy="170.073" r="2.29" fill="#ffe082" stroke="#464646" stroke-width="0.2"/>
<text x="14.649" y="171.16" font-size="3.11" text-anchor="middle" fill="#141414">26</text>
<circle cx="100.974" cy="122.694" r="2.29" fill="#99d9fa" stroke="#464646" stroke-width="0.2"/>
<text x="100.974" y="123.78" font-size="3.11" text-anchor="middle" fill="#141414">34</text>
<circle cx="111.588" cy="15.519" r="2.29" fill="#ffe082" stroke="#464646" stroke-width="0.2"/>
<text x="111.588" y="16.61" font-size="3.11" text-anchor="middle" fill="#141414">38</text>
<circle cx="27.375" cy="145.761" r="2.29" fill="#ffe082" stroke="#464646" stroke-width="0.2"/>
<text x="27.375" y="146.85" font-size="3.11" text-anchor="middle" fill="#141414">39</text>
<circle cx="93.725" cy="53.943" r="2.29" fill="#ffe082" stroke="#464646" stroke-width="0.2"/>
<text x="93.725" y="55.03" font-size="3.11" text-anchor="middle" fill="#141414">41</text>
<circle cx="84.747" cy="97.671" r="2.29" fill="#ffe082" stroke="#464646" stroke-width="0.2"/>
<text x="84.747" y="98.76" font-size="3.11" text-anchor="middle" fill="#141414">42</text>
<circle cx="105.271" cy="50.884" r="4.60" fill="#eaf1fe" stroke="#2e78e6" stroke-width="0.3"/>
<text x="105.271" y="52.68" font-size="5.20" text-anchor="middle" fill="#14306e" font-weight="bold">8</text>
<polygon points="133.147,5.0 132.436,10.986 143.777,19.58 149.348,17.277" fill="rgb(216,216,216)"/>
<polygon points="149.348,17.277 155.43,20.121 173.293,11.527 174.866,5.0" fill="rgb(216,216,216)"/>
<line x1="149.348" y1="17.277" x2="133.147" y2="5.0" stroke="#8c8c8c" stroke-width="0.3" stroke-dasharray="1.2,0.8"/>
<line x1="174.866" y1="5.0" x2="149.348" y2="17.277" stroke="#8c8c8c" stroke-width="0.3" stroke-dasharray="1.2,0.8"/>
<line x1="133.147" y1="5.0" x2="174.866" y2="5.0" stroke="#141414" stroke-width="0.4"/>
<line x1="133.147" y1="5.0" x2="132.436" y2="10.986" stroke="#141414" stroke-width="0.4"/>
<line x1="132.436" y1="10.986" x2="143.777" y2="19.58" stroke="#141414" stroke-width="0.4"/>
<line x1="143.777" y1="19.58" x2="149.348" y2="17.277" stroke="#141414" stroke-width="0.4"/>
<line x1="149.348" y1="17.277" x2="155.43" y2="20.121" stroke="#141414" stroke-width="0.4"/>
<line x1="155.43" y1="20.121" x2="173.293" y2="11.527" stroke="#141414" stroke-width="0.4"/>
<line x1="173.293" y1="11.527" x2="174.866" y2="5.0" stroke="#141414" stroke-width="0.4"/>
<circle cx="139.677" cy="13.211" r="2.29" fill="#ffe082" stroke="#464646" stroke-width="0.2"/>
<text x="139.677" y="14.30" font-size="3.11" text-anchor="middle" fill="#141414">13</text>
<circle cx="163.234" cy="13.482" r="2.29" fill="#ffe082" stroke="#464646" stroke-width="0.2"/>
<text x="163.234" y="14.57" font-size="3.11" text-anchor="middle" fill="#141414">17</text>
<circle cx="152.454" cy="9.092" r="3.27" fill="#eaf1fe" stroke="#2e78e6" stroke-width="0.3"/>
<text x="152.454" y="10.37" font-size="3.70" text-anchor="middle" fill="#14306e" font-weight="bold">9</text>
<text x="205.0" y="295.0" font-size="3.2" text-anchor="end" fill="#737373" font-family="sans-serif">5 / 6</text>
</svg>
