<svg xmlns="http://www.w3.org/2000/svg" xmlns:xlink="http://www.w3.org/1999/xlink" width="210.00mm" height="297.00mm" viewBox="0 0 210.00 297.00">
<rect x="0" y="0" width="210.00" height="297.00" fill="#ffffff" stroke="#cccccc" stroke-width="0.2"/>
<polygon points="71.481,55.294 67.026,44.877 67.904,41.599 76.971,34.805" fill="rgb(216,216,216)"/>
<polygon points="48.525,61.445 42.587,66.33 46.429,80.672 54.014,81.933" fill="rgb(216,216,216)"/>
<polygon points="48.525,61.445 40.94,60.184 37.097,45.842 43.035,40.957" fill="rgb(216,216,216)"/>
<polygon points="76.971,75.782 78.321,87.031 80.721,89.431 91.97,90.781" fill="rgb(216,216,216)"/>
<polygon points="54.014,81.933 48.077,86.818 51.919,101.16 59.504,102.422" fill="rgb(216,216,216)"/>
<polygon points="91.97,90.781 93.231,98.366 107.573,102.209 112.458,96.27" fill="rgb(216,216,216)"/>
<polygon points="59.504,102.422 53.566,107.307 57.409,121.649 64.994,122.91" fill="rgb(216,216,216)"/>
<polygon points="112.458,96.27 117.343,102.209 131.685,98.366 132.946,90.781" fill="rgb(216,216,216)"/>
<polygon points="64.994,122.91 59.056,127.795 62.899,142.137 70.484,143.398" fill="rgb(216,216,216)"/>
<polygon points="132.946,90.781 140.146,93.481 150.645,82.982 147.945,75.782" fill="rgb(216,216,216)"/>
<polygon points="70.484,143.398 64.546,148.283 68.389,162.625 75.974,163.887" fill="rgb(216,216,216)"/>
<polygon points="147.945,75.782 155.53,74.521 159.373,60.179 153.435,55.294" fill="rgb(216,216,216)"/>
<polygon points="75.974,163.887 71.518,174.304 72.396,177.582 81.464,184.375" fill="rgb(216,216,216)"/>
<polygon points="153.435,55.294 159.373,50.409 155.53,36.067 147.945,34.805" fill="rgb(216,216,216)"/>
<polygon points="147.945,34.805 150.645,27.606 140.146,17.107 132.946,19.807" fill="rgb(216,216,216)"/>
<polygon points="86.954,204.864 82.498,215.281 83.376,218.559 92.443,225.352" fill="rgb(216,216,216)"/>
<polygon points="132.946,19.807 131.685,12.222 117.343,8.379 112.458,14.317" fill="rgb(216,216,216)"/>
<polygon points="92.443,225.352 86.505,230.237 90.348,244.579 97.933,245.84" fill="rgb(216,216,216)"/>
<polygon points="112.458,14.317 107.573,8.379 93.231,12.222 91.97,19.807" fill="rgb(216,216,216)"/>
<polygon points="97.933,245.84 91.995,250.725 95.838,265.067 103.423,266.329" fill="rgb(216,216,216)"/>
<polygon points="91.97,19.807 84.77,17.107 74.271,27.606 76.971,34.805" fill="rgb(216,216,216)"/>
<polygon points="103.423,266.329 97.485,271.214 101.328,285.555 108.913,286.817" fill="rgb(216,216,216)"/>
<polygon points="131.87,280.666 130.238,288.35 114.168,292.656 108.913,286.817" fill="rgb(216,216,216)"/>
<line x1="48.525" y1="61.445" x2="71.481" y2="55.294" stroke="#8c8c8c" stroke-width="0.3" stroke-dasharray="1.2,0.8"/>
<line x1="76.971" y1="75.782" x2="71.481" y2="55.294" stroke="#8c8c8c" stroke-width="0.3" stroke-dasharray="1.2,0.8"/>
<line x1="76.971" y1="75.782" x2="54.014" y2="81.933" stroke="#8c8c8c" stroke-width="0.3" stroke-dasharray="1.2,0.8"/>
<line x1="82.461" y1="96.27" x2="59.504" y2="102.422" stroke="#8c8c8c" stroke-width="0.3" stroke-dasharray="1.2,0.8"/>
<line x1="87.951" y1="116.759" x2="64.994" y2="122.91" stroke="#8c8c8c" stroke-width="0.3" stroke-dasharray="1.2,0.8"/>
<line x1="93.441" y1="137.247" x2="70.484" y2="143.399" stroke="#8c8c8c" stroke-width="0.3" stroke-dasharray="1.2,0.8"/>
<line x1="98.93" y1="157.736" x2="75.974" y2="163.887" stroke="#8c8c8c" stroke-width="0.3" stroke-dasharray="1.2,0.8"/>
<line x1="104.42" y1="178.224" x2="81.464" y2="184.375" stroke="#8c8c8c" stroke-width="0.3" stroke-dasharray="1.2,0.8"/>
<line x1="86.954" y1="204.864" x2="81.464" y2="184.375" stroke="#8c8c8c" stroke-width="0.3" stroke-dasharray="1.2,0.8"/>
<line x1="109.91" y1="198.712" x2="86.954" y2="204.864" stroke="#8c8c8c" stroke-width="0.3" stroke-dasharray="1.2,0.8"/>
<line x1="115.4" y1="219.201" x2="92.443" y2="225.352" stroke="#8c8c8c" stroke-width="0.3" stroke-dasharray="1.2,0.8"/>
<line x1="120.89" y1="239.689" x2="97.933" y2="245.84" stroke="#8c8c8c" stroke-width="0.3" stroke-dasharray="1.2,0.8"/>
<line x1="126.38" y1="260.178" x2="103.423" y2="266.329" stroke="#8c8c8c" stroke-width="0.3" stroke-dasharray="1.2,0.8"/>
<line x1="76.971" y1="34.805" x2="71.481" y2="55.294" stroke="#8c8c8c" stroke-width="0.3" stroke-dasharray="1.2,0.8"/>
<line x1="54.014" y1="81.933" x2="48.525" y2="61.445" stroke="#8c8c8c" stroke-width="0.3" stroke-dasharray="1.2,0.8"/>
<line x1="43.035" y1="40.957" x2="48.525" y2="61.445" stroke="#8c8c8c" stroke-width="0.3" stroke-dasharray="1.2,0.8"/>
<line x1="91.97" y1="90.781" x2="76.971" y2="75.782" stroke="#8c8c8c" stroke-width="0.3" stroke-dasharray="1.2,0.8"/>
<line x1="59.504" y1="102.422" x2="54.014" y2="81.933" stroke="#8c8c8c" stroke-width="0.3" stroke-dasharray="1.2,0.8"/>
<line x1="112.458" y1="96.27" x2="91.97" y2="90.781" stroke="#8c8c8c" stroke-width="0.3" stroke-dasharray="1.2,0.8"/>
<line x1="64.994" y1="122.91" x2="59.504" y2="102.422" stroke="#8c8c8c" stroke-width="0.3" stroke-dasharray="1.2,0.8"/>
<line x1="132.946" y1="90.781" x2="112.458" y2="96.27" stroke="#8c8c8c" stroke-width="0.3" stroke-dasharray="1.2,0.8"/>
<line x1="70.484" y1="143.398" x2="64.994" y2="122.91" stroke="#8c8c8c" stroke-width="0.3" stroke-dasharray="1.2,0.8"/>
<line x1="147.945" y1="75.782" x2="132.946" y2="90.781" stroke="#8c8c8c" stroke-width="0.3" stroke-dasharray="1.2,0.8"/>
<line x1="75.974" y1="163.887" x2="70.484" y2="143.398" stroke="#8c8c8c" stroke-width="0.3" stroke-dasharray="1.2,0.8"/>
<line x1="153.435" y1="55.294" x2="147.945" y2="75.782" stroke="#8c8c8c" stroke-width="0.3" stroke-dasharray="1.2,0.8"/>
<line x1="81.464" y1="184.375" x2="75.974" y2="163.887" stroke="#8c8c8c" stroke-width="0.3" stroke-dasharray="1.2,0.8"/>
<line x1="147.945" y1="34.805" x2="153.435" y2="55.294" stroke="#8c8c8c" stroke-width="0.3" stroke-dasharray="1.2,0.8"/>
<line x1="132.946" y1="19.807" x2="147.945" y2="34.805" stroke="#8c8c8c" stroke-width="0.3" stroke-dasharray="1.2,0.8"/>
<line x1="92.443" y1="225.352" x2="86.954" y2="204.864" stroke="#8c8c8c" stroke-width="0.3" stroke-dasharray="1.2,0.8"/>
<line x1="112.458" y1="14.317" x2="132.946" y2="19.807" stroke="#8c8c8c" stroke-width="0.3" stroke-dasharray="1.2,0.8"/>
<line x1="97.933" y1="245.84" x2="92.443" y2="225.352" stroke="#8c8c8c" stroke-width="0.3" stroke-dasharray="1.2,0.8"/>
<line x1="91.97" y1="19.807" x2="112.458" y2="14.317" stroke="#8c8c8c" stroke-width="0.3" stroke-dasharray="1.2,0.8"/>
<line x1="103.423" y1="266.329" x2="97.933" y2="245.84" stroke="#8c8c8c" stroke-width="0.3" stroke-dasharray="1.2,0.8"/>
<line x1="76.971" y1="34.805" x2="91.97" y2="19.807" stroke="#8c8c8c" stroke-width="0.3" stroke-dasharray="1.2,0.8"/>
<line x1="108.913" y1="286.817" x2="103.423" y2="266.329" stroke="#8c8c8c" stroke-width="0.3" stroke-dasharray="1.2,0.8"/>
<line x1="108.913" y1="286.817" x2="131.87" y2="280.666" stroke="#8c8c8c" stroke-width="0.3" stroke-dasharray="1.2,0.8"/>
<line x1="65.992" y1="34.805" x2="71.481" y2="55.294" stroke="#141414" stroke-width="0.4"/>
<line x1="10.49" y1="225.352" x2="5.0" y2="204.864" stroke="#141414" stroke-width="0.4"/>
<line x1="25.488" y1="240.351" x2="10.49" y2="225.352" stroke="#141414" stroke-width="0.4"/>
<line x1="76.971" y1="75.782" x2="82.461" y2="96.27" stroke="#141414" stroke-width="0.4"/>
<line x1="5.0" y1="204.864" x2="10.49" y2="184.375" stroke="#141414" stroke-width="0.4"/>
<line x1="82.461" y1="96.27" x2="87.951" y2="116.759" stroke="#141414" stroke-width="0.4"/>
<line x1="10.49" y1="184.375" x2="25.488" y2="169.377" stroke="#141414" stroke-width="0.4"/>
<line x1="87.951" y1="116.759" x2="93.441" y2="137.247" stroke="#141414" stroke-width="0.4"/>
<line x1="25.488" y1="169.377" x2="45.977" y2="163.887" stroke="#141414" stroke-width="0.4"/>
<line x1="93.441" y1="137.247" x2="98.93" y2="157.736" stroke="#141414" stroke-width="0.4"/>
<line x1="45.977" y1="163.887" x2="66.465" y2="169.377" stroke="#141414" stroke-width="0.4"/>
<line x1="98.93" y1="157.736" x2="104.42" y2="178.224" stroke="#141414" stroke-width="0.4"/>
<line x1="66.465" y1="169.377" x2="81.464" y2="184.375" stroke="#141414" stroke-width="0.4"/>
<line x1="104.42" y1="178.224" x2="109.91" y2="198.712" stroke="#141414" stroke-width="0.4"/>
<line x1="109.91" y1="198.712" x2="115.4" y2="219.201" stroke="#141414" stroke-width="0.4"/>
<line x1="86.954" y1="204.864" x2="81.464" y2="225.352" stroke="#141414" stroke-width="0.4"/>
<line x1="115.4" y1="219.201" x2="120.89" y2="239.689" stroke="#141414" stroke-width="0.4"/>
<line x1="81.464" y1="225.352" x2="66.465" y2="240.351" stroke="#141414" stroke-width="0.4"/>
<line x1="120.89" y1="239.689" x2="126.38" y2="260.178" stroke="#141414" stroke-width="0.4"/>
<line x1="66.465" y1="240.351" x2="45.977" y2="245.84" stroke="#141414" stroke-width="0.4"/>
<line x1="126.38" y1="260.178" x2="131.87" y2="280.666" stroke="#141414" stroke-width="0.4"/>
<line x1="45.977" y1="245.84" x2="25.488" y2="240.351" stroke="#141414" stroke-width="0.4"/>
<line x1="43.035" y1="40.957" x2="65.992" y2="34.805" stroke="#141414" stroke-width="0.4"/>
<line x1="71.481" y1="55.294" x2="67.026" y2="44.877" stroke="#141414" stroke-width="0.4"/>
<line x1="67.026" y1="44.877" x2="67.904" y2="41.599" stroke="#141414" stroke-width="0.4"/>
<line x1="67.904" y1="41.599" x2="76.971" y2="34.805" stroke="#141414" stroke-width="0.4"/>
<line x1="48.525" y1="61.445" x2="42.587" y2="66.33" stroke="#141414" stroke-width="0.4"/>
<line x1="42.587" y1="66.33" x2="46.429" y2="80.672" stroke="#141414" stroke-width="0.4"/>
<line x1="46.429" y1="80.672" x2="54.014" y2="81.933" stroke="#141414" stroke-width="0.4"/>
<line x1="48.525" y1="61.445" x2="40.94" y2="60.184" stroke="#141414" stroke-width="0.4"/>
<line x1="40.94" y1="60.184" x2="37.097" y2="45.842" stroke="#141414" stroke-width="0.4"/>
<line x1="37.097" y1="45.842" x2="43.035" y2="40.957" stroke="#141414" stroke-width="0.4"/>
<line x1="76.971" y1="75.782" x2="78.321" y2="87.031" stroke="#141414" stroke-width="0.4"/>
<line x1="78.321" y1="87.031" x2="80.721" y2="89.431" stroke="#141414" stroke-width="0.4"/>
<line x1="80.721" y1="89.431" x2="91.97" y2="90.781" stroke="#141414" stroke-width="0.4"/>
<line x1="54.014" y1="81.933" x2="48.077" y2="86.818" stroke="#141414" stroke-width="0.4"/>
<line x1="48.077" y1="86.818" x2="51.919" y2="101.16" stroke="#141414" stroke-width="0.4"/>
<line x1="51.919" y1="101.16" x2="59.504" y2="102.422" stroke="#141414" stroke-width="0.4"/>
<line x1="91.97" y1="90.781" x2="93.231" y2="98.366" stroke="#141414" stroke-width="0.4"/>
<line x1="93.231" y1="98.366" x2="107.573" y2="102.209" stroke="#141414" stroke-width="0.4"/>
<line x1="107.573" y1="102.209" x2="112.458" y2="96.27" stroke="#141414" stroke-width="0.4"/>
<line x1="59.504" y1="102.422" x2="53.566" y2="107.307" stroke="#141414" stroke-width="0.4"/>
<line x1="53.566" y1="107.307" x2="57.409" y2="121.649" stroke="#141414" stroke-width="0.4"/>
<line x1="57.409" y1="121.649" x2="64.994" y2="122.91" stroke="#141414" stroke-width="0.4"/>
<line x1="112.458" y1="96.27" x2="117.343" y2="102.209" stroke="#141414" stroke-width="0.4"/>
<line x1="117.343" y1="102.209" x2="131.685" y2="98.366" stroke="#141414" stroke-width="0.4"/>
<line x1="131.685" y1="98.366" x2="132.946" y2="90.781" stroke="#141414" stroke-width="0.4"/>
<line x1="64.994" y1="122.91" x2="59.056" y2="127.795" stroke="#141414" stroke-width="0.4"/>
<line x1="59.056" y1="127.795" x2="62.899" y2="142.137" stroke="#141414" stroke-width="0.4"/>
<line x1="62.899" y1="142.137" x2="70.484" y2="143.398" stroke="#141414" stroke-width="0.4"/>
<line x1="132.946" y1="90.781" x2="140.146" y2="93.481" stroke="#141414" stroke-width="0.4"/>
<line x1="140.146" y1="93.481" x2="150.645" y2="82.982" stroke="#141414" stroke-width="0.4"/>
<line x1="150.645" y1="82.982" x2="147.945" y2="75.782" stroke="#141414" stroke-width="0.4"/>
<line x1="70.484" y1="143.398" x2="64.546" y2="148.283" stroke="#141414" stroke-width="0.4"/>
<line x1="64.546" y1="148.283" x2="68.389" y2="162.625" stroke="#141414" stroke-width="0.4"/>
<line x1="68.389" y1="162.625" x2="75.974" y2="163.887" stroke="#141414" stroke-width="0.4"/>
<line x1="147.945" y1="75.782" x2="155.53" y2="74.521" stroke="#141414" stroke-width="0.4"/>
<line x1="155.53" y1="74.521" x2="159.373" y2="60.179" stroke="#141414" stroke-width="0.4"/>
<line x1="159.373" y1="60.179" x2="153.435" y2="55.294" stroke="#141414" stroke-width="0.4"/>
<line x1="75.974" y1="163.887" x2="71.518" y2="174.304" stroke="#141414" stroke-width="0.4"/>
<line x1="71.518" y1="174.304" x2="72.396" y2="177.582" stroke="#141414" stroke-width="0.4"/>
<line x1="72.396" y1="177.582" x2="81.464" y2="184.375" stroke="#141414" stroke-width="0.4"/>
<line x1="153.435" y1="55.294" x2="159.373" y2="50.409" stroke="#141414" stroke-width="0.4"/>
<line x1="159.373" y1="50.409" x2="155.53" y2="36.067" stroke="#141414" stroke-width="0.4"/>
<line x1="155.53" y1="36.067" x2="147.945" y2="34.805" stroke="#141414" stroke-width="0.4"/>
<line x1="147.945" y1="34.805" x2="150.645" y2="27.606" stroke="#141414" stroke-width="0.4"/>
<line x1="150.645" y1="27.606" x2="140.146" y2="17.107" stroke="#141414" stroke-width="0.4"/>
<line x1="140.146" y1="17.107" x2="132.946" y2="19.807" stroke="#141414" stroke-width="0.4"/>
<line x1="86.954" y1="204.864" x2="82.498" y2="215.281" stroke="#141414" stroke-width="0.4"/>
<line x1="82.498" y1="215.281" x2="83.376" y2="218.559" stroke="#141414" stroke-width="0.4"/>
<line x1="83.376" y1="218.559" x2="92.443" y2="225.352" stroke="#141414" stroke-width="0.4"/>
<line x1="132.946" y1="19.807" x2="131.685" y2="12.222" stroke="#141414" stroke-width="0.4"/>
<line x1="131.685" y1="12.222" x2="117.343" y2="8.379" stroke="#141414" stroke-width="0.4"/>
<line x1="117.343" y1="8.379" x2="112.458" y2="14.317" stroke="#141414" stroke-width="0.4"/>
<line x1="92.443" y1="225.352" x2="86.505" y2="230.237" stroke="#141414" stroke-width="0.4"/>
<line x1="86.505" y1="230.237" x2="90.348" y2="244.579" stroke="#141414" stroke-width="0.4"/>
<line x1="90.348" y1="244.579" x2="97.933" y2="245.84" stroke="#141414" stroke-width="0.4"/>
<line x1="112.458" y1="14.317" x2="107.573" y2="8.379" stroke="#141414" stroke-width="0.4"/>
<line x1="107.573" y1="8.379" x2="93.231" y2="12.222" stroke="#141414" stroke-width="0.4"/>
<line x1="93.231" y1="12.222" x2="91.97" y2="19.807" stroke="#141414" stroke-width="0.4"/>
<line x1="97.933" y1="245.84" x2="91.995" y2="250.725" stroke="#141414" stroke-width="0.4"/>
<line x1="91.995" y1="250.725" x2="95.838" y2="265.067" stroke="#141414" stroke-width="0.4"/>
<line x1="95.838" y1="265.067" x2="103.423" y2="266.329" stroke="#141414" stroke-width="0.4"/>
<line x1="91.97" y1="19.807" x2="84.77" y2="17.107" stroke="#141414" stroke-width="0.4"/>
<line x1="84.77" y1="17.107" x2="74.271" y2="27.606" stroke="#141414" stroke-width="0.4"/>
<line x1="74.271" y1="27.606" x2="76.971" y2="34.805" stroke="#141414" stroke-width="0.4"/>
<line x1="103.423" y1="266.329" x2="97.485" y2="271.214" stroke="#141414" stroke-width="0.4"/>
<line x1="97.485" y1="271.214" x2="101.328" y2="285.555" stroke="#141414" stroke-width="0.4"/>
<line x1="101.328" y1="285.555" x2="108.913" y2="286.817" stroke="#141414" stroke-width="0.4"/>
<line x1="131.87" y1="280.666" x2="130.238" y2="288.35" stroke="#141414" stroke-width="0.4"/>
<line x1="130.238" y1="288.35" x2="114.168" y2="292.656" stroke="#141414" stroke-width="0.4"/>
<line x1="114.168" y1="292.656" x2="108.913" y2="286.817" stroke="#141414" stroke-width="0.4"/>
<circle cx="70.845" cy="44.144" r="1.98" fill="#ffe082" stroke="#464646" stroke-width="0.2"/>
<text x="70.845" y="44.82" font-size="1.94" text-anchor="middle" fill="#141414">1</text>
<circle cx="47.889" cy="72.595" r="1.98" fill="#ffe082" stroke="#464646" stroke-width="0.2"/>
<text x="47.889" y="73.27" font-size="1.94" text-anchor="middle" fill="#141414">2</text>
<circle cx="42.399" cy="52.107" r="1.98" fill="#ffe082" stroke="#464646" stroke-width="0.2"/>
<text x="42.399" y="52.79" font-size="1.94" text-anchor="middle" fill="#141414">3</text>
<circle cx="81.996" cy="85.756" r="1.98" fill="#ffe082" stroke="#464646" stroke-width="0.2"/>
<text x="81.996" y="86.44" font-size="1.94" text-anchor="middle" fill="#141414">4</text>
<circle cx="53.379" cy="93.083" r="1.98" fill="#ffe082" stroke="#464646" stroke-width="0.2"/>
<text x="53.379" y="93.76" font-size="1.94" text-anchor="middle" fill="#141414">5</text>
<circle cx="101.308" cy="96.906" r="1.98" fill="#ffe082" stroke="#464646" stroke-width="0.2"/>
<text x="101.308" y="97.59" font-size="1.94" text-anchor="middle" fill="#141414">6</text>
<circle cx="58.868" cy="113.572" r="1.98" fill="#ffe082" stroke="#464646" stroke-width="0.2"/>
<text x="58.868" y="114.25" font-size="1.94" text-anchor="middle" fill="#141414">7</text>
<circle cx="123.608" cy="96.906" r="1.98" fill="#ffe082" stroke="#464646" stroke-width="0.2"/>
<text x="123.608" y="97.59" font-size="1.94" text-anchor="middle" fill="#141414">8</text>
<circle cx="64.358" cy="134.06" r="1.98" fill="#ffe082" stroke="#464646" stroke-width="0.2"/>
<text x="64.358" y="134.74" font-size="1.94" text-anchor="middle" fill="#141414">9</text>
<circle cx="142.921" cy="85.756" r="1.98" fill="#ffe082" stroke="#464646" stroke-width="0.2"/>
<text x="142.921" y="86.44" font-size="1.94" text-anchor="middle" fill="#141414">10</text>
<circle cx="69.848" cy="154.549" r="1.98" fill="#ffe082" stroke="#464646" stroke-width="0.2"/>
<text x="69.848" y="155.23" font-size="1.94" text-anchor="middle" fill="#141414">11</text>
<circle cx="154.071" cy="66.444" r="1.98" fill="#ffe082" stroke="#464646" stroke-width="0.2"/>
<text x="154.071" y="67.12" font-size="1.94" text-anchor="middle" fill="#141414">12</text>
<circle cx="75.338" cy="175.037" r="1.98" fill="#ffe082" stroke="#464646" stroke-width="0.2"/>
<text x="75.338" y="175.72" font-size="1.94" text-anchor="middle" fill="#141414">13</text>
<circle cx="154.071" cy="44.144" r="1.98" fill="#ffe082" stroke="#464646" stroke-width="0.2"/>
<text x="154.071" y="44.82" font-size="1.94" text-anchor="middle" fill="#141414">14</text>
<circle cx="142.921" cy="24.831" r="1.98" fill="#ffe082" stroke="#464646" stroke-width="0.2"/>
<text x="142.921" y="25.51" font-size="1.94" text-anchor="middle" fill="#141414">15</text>
<circle cx="86.318" cy="216.014" r="1.98" fill="#ffe082" stroke="#464646" stroke-width="0.2"/>
<text x="86.318" y="216.69" font-size="1.94" text-anchor="middle" fill="#141414">16</text>
<circle cx="123.608" cy="13.681" r="1.98" fill="#ffe082" stroke="#464646" stroke-width="0.2"/>
<text x="123.608" y="14.36" font-size="1.94" text-anchor="middle" fill="#141414">17</text>
<circle cx="91.808" cy="236.502" r="1.98" fill="#ffe082" stroke="#464646" stroke-width="0.2"/>
<text x="91.808" y="237.18" font-size="1.94" text-anchor="middle" fill="#141414">18</text>
<circle cx="101.308" cy="13.681" r="1.98" fill="#ffe082" stroke="#464646" stroke-width="0.2"/>
<text x="101.308" y="14.36" font-size="1.94" text-anchor="middle" fill="#141414">19</text>
<circle cx="97.297" cy="256.99" r="1.98" fill="#ffe082" stroke="#464646" stroke-width="0.2"/>
<text x="97.297" y="257.67" font-size="1.94" text-anchor="middle" fill="#141414">20</text>
<circle cx="81.996" cy="24.831" r="1.98" fill="#ffe082" stroke="#464646" stroke-width="0.2"/>
<text x="81.996" y="25.51" font-size="1.94" text-anchor="middle" fill="#141414">21</text>
<circle cx="102.787" cy="277.479" r="1.98" fill="#ffe082" stroke="#464646" stroke-width="0.2"/>
<text x="102.787" y="278.16" font-size="1.94" text-anchor="middle" fill="#141414">22</text>
<circle cx="121.297" cy="287.122" r="1.98" fill="#ffe082" stroke="#464646" stroke-width="0.2"/>
<text x="121.297" y="287.80" font-size="1.94" text-anchor="middle" fill="#141414">23</text>
<circle cx="82.186" cy="147.138" r="4.6" fill="#eaf1fe" stroke="#2e78e6" stroke-width="0.3"/>
<text x="82.186" y="148.93800000000002" font-size="5.2" text-anchor="middle" fill="#14306e" font-weight="bold">1</text>
<g pointer-events="none"><text x="105.0" y="83.2" text-anchor="middle" font-family="sans-serif" font-size="12.4" fill="#9aa0a6" fill-opacity="0.3" transform="rotate(-28 105.0 83.2)">papercraft.kr</text><text x="105.0" y="148.5" text-anchor="middle" font-family="sans-serif" font-size="12.4" fill="#9aa0a6" fill-opacity="0.3" transform="rotate(-28 105.0 148.5)">papercraft.kr</text><text x="105.0" y="213.8" text-anchor="middle" font-family="sans-serif" font-size="12.4" fill="#9aa0a6" fill-opacity="0.3" transform="rotate(-28 105.0 213.8)">papercraft.kr</text></g></svg>
