<svg xmlns="http://www.w3.org/2000/svg" xmlns:xlink="http://www.w3.org/1999/xlink" width="210.00mm" height="297.00mm" viewBox="0 0 210.00 297.00">
<rect x="0" y="0" width="210.00" height="297.00" fill="#ffffff" stroke="#cccccc" stroke-width="0.2"/>
<polygon points="47.268,82.764 40.824,87.671 23.255,80.394 22.169,72.367" fill="rgb(216,216,216)"/>
<polygon points="81.852,130.761 80.214,141.944 100.88,177.831 111.375,182.027" fill="rgb(216,216,216)"/>
<polygon points="72.367,72.367 80.394,71.281 87.671,53.712 82.764,47.268" fill="rgb(216,216,216)"/>
<polygon points="82.764,47.268 87.671,40.825 80.394,23.255 72.367,22.169" fill="rgb(216,216,216)"/>
<polygon points="72.367,22.169 71.281,14.142 53.712,6.865 47.268,11.773" fill="rgb(216,216,216)"/>
<polygon points="47.268,11.773 40.825,6.865 23.255,14.142 22.169,22.169" fill="rgb(216,216,216)"/>
<polygon points="22.169,22.169 14.142,23.255 6.865,40.825 11.773,47.268" fill="rgb(216,216,216)"/>
<polygon points="11.773,47.268 6.865,53.712 14.142,71.281 22.169,72.367" fill="rgb(216,216,216)"/>
<line x1="81.852" y1="130.761" x2="47.268" y2="82.763" stroke="#8c8c8c" stroke-width="0.3" stroke-dasharray="1.2,0.8"/>
<line x1="72.367" y1="72.367" x2="47.268" y2="82.763" stroke="#8c8c8c" stroke-width="0.3" stroke-dasharray="1.2,0.8"/>
<line x1="72.367" y1="72.367" x2="81.852" y2="130.761" stroke="#8c8c8c" stroke-width="0.3" stroke-dasharray="1.2,0.8"/>
<line x1="99.466" y1="74.285" x2="81.852" y2="130.761" stroke="#8c8c8c" stroke-width="0.3" stroke-dasharray="1.2,0.8"/>
<line x1="122.851" y1="88.113" x2="81.852" y2="130.761" stroke="#8c8c8c" stroke-width="0.3" stroke-dasharray="1.2,0.8"/>
<line x1="137.59" y1="110.934" x2="81.852" y2="130.761" stroke="#8c8c8c" stroke-width="0.3" stroke-dasharray="1.2,0.8"/>
<line x1="140.574" y1="137.937" x2="81.852" y2="130.761" stroke="#8c8c8c" stroke-width="0.3" stroke-dasharray="1.2,0.8"/>
<line x1="131.175" y1="163.426" x2="81.852" y2="130.761" stroke="#8c8c8c" stroke-width="0.3" stroke-dasharray="1.2,0.8"/>
<line x1="22.169" y1="72.367" x2="47.268" y2="82.764" stroke="#8c8c8c" stroke-width="0.3" stroke-dasharray="1.2,0.8"/>
<line x1="111.375" y1="182.027" x2="81.852" y2="130.761" stroke="#8c8c8c" stroke-width="0.3" stroke-dasharray="1.2,0.8"/>
<line x1="82.764" y1="47.268" x2="72.367" y2="72.367" stroke="#8c8c8c" stroke-width="0.3" stroke-dasharray="1.2,0.8"/>
<line x1="72.367" y1="22.169" x2="82.764" y2="47.268" stroke="#8c8c8c" stroke-width="0.3" stroke-dasharray="1.2,0.8"/>
<line x1="47.268" y1="11.773" x2="72.367" y2="22.169" stroke="#8c8c8c" stroke-width="0.3" stroke-dasharray="1.2,0.8"/>
<line x1="22.169" y1="22.169" x2="47.268" y2="11.773" stroke="#8c8c8c" stroke-width="0.3" stroke-dasharray="1.2,0.8"/>
<line x1="11.773" y1="47.268" x2="22.169" y2="22.169" stroke="#8c8c8c" stroke-width="0.3" stroke-dasharray="1.2,0.8"/>
<line x1="22.169" y1="72.367" x2="11.773" y2="47.268" stroke="#8c8c8c" stroke-width="0.3" stroke-dasharray="1.2,0.8"/>
<line x1="29.462" y1="103.282" x2="47.268" y2="82.763" stroke="#141414" stroke-width="0.4"/>
<line x1="81.852" y1="130.761" x2="29.462" y2="103.282" stroke="#141414" stroke-width="0.4"/>
<line x1="72.367" y1="72.367" x2="99.466" y2="74.285" stroke="#141414" stroke-width="0.4"/>
<line x1="99.466" y1="74.285" x2="122.851" y2="88.113" stroke="#141414" stroke-width="0.4"/>
<line x1="122.851" y1="88.113" x2="137.59" y2="110.934" stroke="#141414" stroke-width="0.4"/>
<line x1="137.59" y1="110.934" x2="140.574" y2="137.937" stroke="#141414" stroke-width="0.4"/>
<line x1="140.574" y1="137.937" x2="131.175" y2="163.426" stroke="#141414" stroke-width="0.4"/>
<line x1="131.175" y1="163.426" x2="111.375" y2="182.027" stroke="#141414" stroke-width="0.4"/>
<line x1="47.268" y1="82.764" x2="40.824" y2="87.671" stroke="#141414" stroke-width="0.4"/>
<line x1="40.824" y1="87.671" x2="23.255" y2="80.394" stroke="#141414" stroke-width="0.4"/>
<line x1="23.255" y1="80.394" x2="22.169" y2="72.367" stroke="#141414" stroke-width="0.4"/>
<line x1="81.852" y1="130.761" x2="80.214" y2="141.944" stroke="#141414" stroke-width="0.4"/>
<line x1="80.214" y1="141.944" x2="100.88" y2="177.831" stroke="#141414" stroke-width="0.4"/>
<line x1="100.88" y1="177.831" x2="111.375" y2="182.027" stroke="#141414" stroke-width="0.4"/>
<line x1="72.367" y1="72.367" x2="80.394" y2="71.281" stroke="#141414" stroke-width="0.4"/>
<line x1="80.394" y1="71.281" x2="87.671" y2="53.712" stroke="#141414" stroke-width="0.4"/>
<line x1="87.671" y1="53.712" x2="82.764" y2="47.268" stroke="#141414" stroke-width="0.4"/>
<line x1="82.764" y1="47.268" x2="87.671" y2="40.825" stroke="#141414" stroke-width="0.4"/>
<line x1="87.671" y1="40.825" x2="80.394" y2="23.255" stroke="#141414" stroke-width="0.4"/>
<line x1="80.394" y1="23.255" x2="72.367" y2="22.169" stroke="#141414" stroke-width="0.4"/>
<line x1="72.367" y1="22.169" x2="71.281" y2="14.142" stroke="#141414" stroke-width="0.4"/>
<line x1="71.281" y1="14.142" x2="53.712" y2="6.865" stroke="#141414" stroke-width="0.4"/>
<line x1="53.712" y1="6.865" x2="47.268" y2="11.773" stroke="#141414" stroke-width="0.4"/>
<line x1="47.268" y1="11.773" x2="40.825" y2="6.865" stroke="#141414" stroke-width="0.4"/>
<line x1="40.825" y1="6.865" x2="23.255" y2="14.142" stroke="#141414" stroke-width="0.4"/>
<line x1="23.255" y1="14.142" x2="22.169" y2="22.169" stroke="#141414" stroke-width="0.4"/>
<line x1="22.169" y1="22.169" x2="14.142" y2="23.255" stroke="#141414" stroke-width="0.4"/>
<line x1="14.142" y1="23.255" x2="6.865" y2="40.825" stroke="#141414" stroke-width="0.4"/>
<line x1="6.865" y1="40.825" x2="11.773" y2="47.268" stroke="#141414" stroke-width="0.4"/>
<line x1="11.773" y1="47.268" x2="6.865" y2="53.712" stroke="#141414" stroke-width="0.4"/>
<line x1="6.865" y1="53.712" x2="14.142" y2="71.281" stroke="#141414" stroke-width="0.4"/>
<line x1="14.142" y1="71.281" x2="22.169" y2="72.367" stroke="#141414" stroke-width="0.4"/>
<circle cx="33.379" cy="80.799" r="3.08" fill="#ffe082" stroke="#464646" stroke-width="0.2"/>
<text x="33.379" y="82.26" font-size="4.18" text-anchor="middle" fill="#141414">16</text>
<circle cx="93.58" cy="158.141" r="3.08" fill="#ffe082" stroke="#464646" stroke-width="0.2"/>
<text x="93.58" y="159.60" font-size="4.18" text-anchor="middle" fill="#141414">17</text>
<circle cx="80.799" cy="61.157" r="3.08" fill="#ffe082" stroke="#464646" stroke-width="0.2"/>
<text x="80.799" y="62.62" font-size="4.18" text-anchor="middle" fill="#141414">18</text>
<circle cx="80.799" cy="33.379" r="3.08" fill="#ffe082" stroke="#464646" stroke-width="0.2"/>
<text x="80.799" y="34.84" font-size="4.18" text-anchor="middle" fill="#141414">19</text>
<circle cx="61.157" cy="13.737" r="3.08" fill="#ffe082" stroke="#464646" stroke-width="0.2"/>
<text x="61.157" y="15.20" font-size="4.18" text-anchor="middle" fill="#141414">20</text>
<circle cx="33.379" cy="13.737" r="3.08" fill="#ffe082" stroke="#464646" stroke-width="0.2"/>
<text x="33.379" y="15.20" font-size="4.18" text-anchor="middle" fill="#141414">21</text>
<circle cx="13.737" cy="33.379" r="3.08" fill="#ffe082" stroke="#464646" stroke-width="0.2"/>
<text x="13.737" y="34.84" font-size="4.18" text-anchor="middle" fill="#141414">22</text>
<circle cx="13.737" cy="61.157" r="3.08" fill="#ffe082" stroke="#464646" stroke-width="0.2"/>
<text x="13.737" y="62.62" font-size="4.18" text-anchor="middle" fill="#141414">23</text>
<circle cx="71.855" cy="186.262" r="4.6" fill="#eaf1fe" stroke="#2e78e6" stroke-width="0.3"/>
<text x="71.855" y="188.062" font-size="5.2" text-anchor="middle" fill="#14306e" font-weight="bold">3</text>
<g pointer-events="none"><text x="105.0" y="89.1" text-anchor="middle" font-family="sans-serif" font-size="21.2" fill="#9aa0a6" fill-opacity="0.33" transform="rotate(-28 105.0 89.1)">papercraft.kr 미리보기</text><text x="105.0" y="163.4" text-anchor="middle" font-family="sans-serif" font-size="21.2" fill="#9aa0a6" fill-opacity="0.33" transform="rotate(-28 105.0 163.4)">papercraft.kr 미리보기</text><text x="105.0" y="237.6" text-anchor="middle" font-family="sans-serif" font-size="21.2" fill="#9aa0a6" fill-opacity="0.33" transform="rotate(-28 105.0 237.6)">papercraft.kr 미리보기</text></g></svg>
