<svg xmlns="http://www.w3.org/2000/svg" xmlns:xlink="http://www.w3.org/1999/xlink" width="210.00mm" height="297.00mm" viewBox="0 0 210.00 297.00">
<rect x="0" y="0" width="210.00" height="297.00" fill="#ffffff" stroke="#cccccc" stroke-width="0.2"/>
<polygon points="99.259,125.888 86.754,132.888 28.394,132.888 15.888,125.888" fill="rgb(216,216,216)"/>
<polygon points="99.259,107.129 86.754,100.129 28.394,100.129 15.888,107.129" fill="rgb(216,216,216)"/>
<polygon points="118.018,125.888 125.018,123.074 125.018,109.943 118.018,107.129" fill="rgb(216,216,216)"/>
<polygon points="118.018,125.888 125.018,138.393 125.018,196.753 118.018,209.258" fill="rgb(216,216,216)"/>
<polygon points="118.018,107.129 125.018,94.624 125.018,36.264 118.018,23.758" fill="rgb(216,216,216)"/>
<polygon points="15.888,125.888 8.889,123.074 8.889,109.943 15.888,107.129" fill="rgb(216,216,216)"/>
<polygon points="99.259,209.258 102.073,216.258 115.204,216.258 118.018,209.258" fill="rgb(216,216,216)"/>
<polygon points="99.259,125.888 86.754,132.888 28.394,132.888 15.888,125.888" fill="#99d9fa"/>
<line x1="99.259" y1="125.888" x2="99.259" y2="107.129" stroke="#8c8c8c" stroke-width="0.3" stroke-dasharray="1.2,0.8"/>
<line x1="118.018" y1="125.888" x2="99.259" y2="125.888" stroke="#8c8c8c" stroke-width="0.3" stroke-dasharray="1.2,0.8"/>
<line x1="99.259" y1="107.129" x2="118.018" y2="107.129" stroke="#8c8c8c" stroke-width="0.3" stroke-dasharray="1.2,0.8"/>
<line x1="99.259" y1="23.759" x2="118.018" y2="23.759" stroke="#8c8c8c" stroke-width="0.3" stroke-dasharray="1.2,0.8"/>
<line x1="118.018" y1="23.759" x2="118.018" y2="5.0" stroke="#8c8c8c" stroke-width="0.3" stroke-dasharray="1.2,0.8"/>
<line x1="15.888" y1="125.888" x2="99.259" y2="125.888" stroke="#8c8c8c" stroke-width="0.3" stroke-dasharray="1.2,0.8"/>
<line x1="15.888" y1="107.129" x2="99.259" y2="107.129" stroke="#8c8c8c" stroke-width="0.3" stroke-dasharray="1.2,0.8"/>
<line x1="118.018" y1="107.129" x2="118.018" y2="125.888" stroke="#8c8c8c" stroke-width="0.3" stroke-dasharray="1.2,0.8"/>
<line x1="118.018" y1="209.258" x2="118.018" y2="125.888" stroke="#8c8c8c" stroke-width="0.3" stroke-dasharray="1.2,0.8"/>
<line x1="118.018" y1="23.758" x2="118.018" y2="107.129" stroke="#8c8c8c" stroke-width="0.3" stroke-dasharray="1.2,0.8"/>
<line x1="15.888" y1="107.129" x2="15.888" y2="125.888" stroke="#8c8c8c" stroke-width="0.3" stroke-dasharray="1.2,0.8"/>
<line x1="118.018" y1="209.258" x2="99.259" y2="209.258" stroke="#8c8c8c" stroke-width="0.3" stroke-dasharray="1.2,0.8"/>
<line x1="99.259" y1="209.258" x2="99.259" y2="125.888" stroke="#141414" stroke-width="0.4"/>
<line x1="99.259" y1="107.129" x2="99.259" y2="23.759" stroke="#141414" stroke-width="0.4"/>
<line x1="201.388" y1="5.0" x2="201.388" y2="23.759" stroke="#141414" stroke-width="0.4"/>
<line x1="118.018" y1="5.0" x2="201.388" y2="5.0" stroke="#141414" stroke-width="0.4"/>
<line x1="201.388" y1="23.759" x2="118.018" y2="23.759" stroke="#141414" stroke-width="0.4"/>
<line x1="99.259" y1="23.759" x2="99.259" y2="5.0" stroke="#141414" stroke-width="0.4"/>
<line x1="99.259" y1="5.0" x2="118.018" y2="5.0" stroke="#141414" stroke-width="0.4"/>
<line x1="99.259" y1="125.888" x2="86.754" y2="132.888" stroke="#141414" stroke-width="0.4"/>
<line x1="86.754" y1="132.888" x2="28.394" y2="132.888" stroke="#141414" stroke-width="0.4"/>
<line x1="28.394" y1="132.888" x2="15.888" y2="125.888" stroke="#141414" stroke-width="0.4"/>
<line x1="99.259" y1="107.129" x2="86.754" y2="100.129" stroke="#141414" stroke-width="0.4"/>
<line x1="86.754" y1="100.129" x2="28.394" y2="100.129" stroke="#141414" stroke-width="0.4"/>
<line x1="28.394" y1="100.129" x2="15.888" y2="107.129" stroke="#141414" stroke-width="0.4"/>
<line x1="118.018" y1="125.888" x2="125.018" y2="123.074" stroke="#141414" stroke-width="0.4"/>
<line x1="125.018" y1="123.074" x2="125.018" y2="109.943" stroke="#141414" stroke-width="0.4"/>
<line x1="125.018" y1="109.943" x2="118.018" y2="107.129" stroke="#141414" stroke-width="0.4"/>
<line x1="118.018" y1="125.888" x2="125.018" y2="138.393" stroke="#141414" stroke-width="0.4"/>
<line x1="125.018" y1="138.393" x2="125.018" y2="196.753" stroke="#141414" stroke-width="0.4"/>
<line x1="125.018" y1="196.753" x2="118.018" y2="209.258" stroke="#141414" stroke-width="0.4"/>
<line x1="118.018" y1="107.129" x2="125.018" y2="94.624" stroke="#141414" stroke-width="0.4"/>
<line x1="125.018" y1="94.624" x2="125.018" y2="36.264" stroke="#141414" stroke-width="0.4"/>
<line x1="125.018" y1="36.264" x2="118.018" y2="23.758" stroke="#141414" stroke-width="0.4"/>
<line x1="15.888" y1="125.888" x2="8.889" y2="123.074" stroke="#141414" stroke-width="0.4"/>
<line x1="8.889" y1="123.074" x2="8.889" y2="109.943" stroke="#141414" stroke-width="0.4"/>
<line x1="8.889" y1="109.943" x2="15.888" y2="107.129" stroke="#141414" stroke-width="0.4"/>
<line x1="99.259" y1="209.258" x2="102.073" y2="216.258" stroke="#141414" stroke-width="0.4"/>
<line x1="102.073" y1="216.258" x2="115.204" y2="216.258" stroke="#141414" stroke-width="0.4"/>
<line x1="115.204" y1="216.258" x2="118.018" y2="209.258" stroke="#141414" stroke-width="0.4"/>
<circle cx="57.574" cy="129.388" r="1.46" fill="#99d9fa" stroke="#464646" stroke-width="0.2"/>
<text x="57.574" y="130.08" font-size="1.98" text-anchor="middle" fill="#141414">8</text>
<circle cx="57.574" cy="103.629" r="1.46" fill="#ffe082" stroke="#464646" stroke-width="0.2"/>
<text x="57.574" y="104.32" font-size="1.98" text-anchor="middle" fill="#141414">9</text>
<circle cx="121.518" cy="116.508" r="1.46" fill="#ffe082" stroke="#464646" stroke-width="0.2"/>
<text x="121.518" y="117.20" font-size="1.98" text-anchor="middle" fill="#141414">10</text>
<circle cx="121.518" cy="167.573" r="1.46" fill="#ffe082" stroke="#464646" stroke-width="0.2"/>
<text x="121.518" y="168.27" font-size="1.98" text-anchor="middle" fill="#141414">11</text>
<circle cx="121.518" cy="65.444" r="1.46" fill="#ffe082" stroke="#464646" stroke-width="0.2"/>
<text x="121.518" y="66.14" font-size="1.98" text-anchor="middle" fill="#141414">12</text>
<circle cx="12.388" cy="116.508" r="1.46" fill="#ffe082" stroke="#464646" stroke-width="0.2"/>
<text x="12.388" y="117.20" font-size="1.98" text-anchor="middle" fill="#141414">13</text>
<circle cx="108.639" cy="212.758" r="1.46" fill="#ffe082" stroke="#464646" stroke-width="0.2"/>
<text x="108.639" y="213.45" font-size="1.98" text-anchor="middle" fill="#141414">14</text>
<circle cx="101.25" cy="222.358" r="4.6" fill="#eaf1fe" stroke="#2e78e6" stroke-width="0.3"/>
<text x="101.25" y="224.15800000000002" font-size="5.2" text-anchor="middle" fill="#14306e" font-weight="bold">2</text>
<g pointer-events="none"><text x="105.0" y="83.2" text-anchor="middle" font-family="sans-serif" font-size="12.4" fill="#9aa0a6" fill-opacity="0.3" transform="rotate(-28 105.0 83.2)">papercraft.kr</text><text x="105.0" y="148.5" text-anchor="middle" font-family="sans-serif" font-size="12.4" fill="#9aa0a6" fill-opacity="0.3" transform="rotate(-28 105.0 148.5)">papercraft.kr</text><text x="105.0" y="213.8" text-anchor="middle" font-family="sans-serif" font-size="12.4" fill="#9aa0a6" fill-opacity="0.3" transform="rotate(-28 105.0 213.8)">papercraft.kr</text></g></svg>
