<svg xmlns="http://www.w3.org/2000/svg" xmlns:xlink="http://www.w3.org/1999/xlink" width="210.00mm" height="297.00mm" viewBox="0 0 210.00 297.00">
<rect x="0" y="0" width="210.00" height="297.00" fill="#ffffff" stroke="#cccccc" stroke-width="0.2"/>
<polygon points="37.983,17.886 34.839,12.046 41.128,5.757 46.967,8.902" fill="rgb(216,216,216)"/>
<polygon points="18.046,36.54 14.636,43.03 21.823,50.217 28.313,46.807" fill="rgb(216,216,216)"/>
<polygon points="18.046,36.54 11.343,39.511 4.649,31.862 8.483,25.613" fill="rgb(216,216,216)"/>
<polygon points="46.967,26.87 52.807,30.014 59.096,23.725 55.952,17.886" fill="rgb(216,216,216)"/>
<polygon points="28.313,46.807 25.342,53.509 32.991,60.203 39.24,56.37" fill="rgb(216,216,216)"/>
<polygon points="55.952,17.886 59.096,12.046 52.807,5.757 46.967,8.902" fill="rgb(216,216,216)"/>
<polygon points="66.625,42.951 69.948,50.349 58.856,65.913 50.779,65.186" fill="rgb(216,216,216)"/>
<polygon points="37.983,17.886 34.839,12.046 41.128,5.757 46.967,8.902" fill="#99d9fa"/>
<line x1="18.046" y1="36.54" x2="37.983" y2="17.886" stroke="#8c8c8c" stroke-width="0.3" stroke-dasharray="1.2,0.8"/>
<line x1="46.967" y1="26.87" x2="37.983" y2="17.886" stroke="#8c8c8c" stroke-width="0.3" stroke-dasharray="1.2,0.8"/>
<line x1="46.967" y1="26.87" x2="28.313" y2="46.807" stroke="#8c8c8c" stroke-width="0.3" stroke-dasharray="1.2,0.8"/>
<line x1="56.529" y1="35.237" x2="39.24" y2="56.37" stroke="#8c8c8c" stroke-width="0.3" stroke-dasharray="1.2,0.8"/>
<line x1="50.779" y1="65.186" x2="39.24" y2="56.37" stroke="#8c8c8c" stroke-width="0.3" stroke-dasharray="1.2,0.8"/>
<line x1="46.967" y1="8.902" x2="37.983" y2="17.886" stroke="#8c8c8c" stroke-width="0.3" stroke-dasharray="1.2,0.8"/>
<line x1="28.313" y1="46.807" x2="18.046" y2="36.54" stroke="#8c8c8c" stroke-width="0.3" stroke-dasharray="1.2,0.8"/>
<line x1="8.483" y1="25.613" x2="18.046" y2="36.54" stroke="#8c8c8c" stroke-width="0.3" stroke-dasharray="1.2,0.8"/>
<line x1="55.952" y1="17.886" x2="46.967" y2="26.87" stroke="#8c8c8c" stroke-width="0.3" stroke-dasharray="1.2,0.8"/>
<line x1="39.24" y1="56.37" x2="28.313" y2="46.807" stroke="#8c8c8c" stroke-width="0.3" stroke-dasharray="1.2,0.8"/>
<line x1="46.967" y1="8.902" x2="55.952" y2="17.886" stroke="#8c8c8c" stroke-width="0.3" stroke-dasharray="1.2,0.8"/>
<line x1="50.779" y1="65.186" x2="66.625" y2="42.951" stroke="#8c8c8c" stroke-width="0.3" stroke-dasharray="1.2,0.8"/>
<line x1="29.616" y1="8.325" x2="37.983" y2="17.886" stroke="#141414" stroke-width="0.4"/>
<line x1="41.963" y1="76.724" x2="30.425" y2="67.909" stroke="#141414" stroke-width="0.4"/>
<line x1="50.779" y1="65.186" x2="41.963" y2="76.724" stroke="#141414" stroke-width="0.4"/>
<line x1="46.967" y1="26.87" x2="56.529" y2="35.237" stroke="#141414" stroke-width="0.4"/>
<line x1="30.425" y1="67.909" x2="39.24" y2="56.37" stroke="#141414" stroke-width="0.4"/>
<line x1="56.529" y1="35.237" x2="66.625" y2="42.951" stroke="#141414" stroke-width="0.4"/>
<line x1="8.483" y1="25.613" x2="29.616" y2="8.325" stroke="#141414" stroke-width="0.4"/>
<line x1="37.983" y1="17.886" x2="34.839" y2="12.046" stroke="#141414" stroke-width="0.4"/>
<line x1="34.839" y1="12.046" x2="41.128" y2="5.757" stroke="#141414" stroke-width="0.4"/>
<line x1="41.128" y1="5.757" x2="46.967" y2="8.902" stroke="#141414" stroke-width="0.4"/>
<line x1="18.046" y1="36.54" x2="14.636" y2="43.03" stroke="#141414" stroke-width="0.4"/>
<line x1="14.636" y1="43.03" x2="21.823" y2="50.217" stroke="#141414" stroke-width="0.4"/>
<line x1="21.823" y1="50.217" x2="28.313" y2="46.807" stroke="#141414" stroke-width="0.4"/>
<line x1="18.046" y1="36.54" x2="11.343" y2="39.511" stroke="#141414" stroke-width="0.4"/>
<line x1="11.343" y1="39.511" x2="4.649" y2="31.862" stroke="#141414" stroke-width="0.4"/>
<line x1="4.649" y1="31.862" x2="8.483" y2="25.613" stroke="#141414" stroke-width="0.4"/>
<line x1="46.967" y1="26.87" x2="52.807" y2="30.014" stroke="#141414" stroke-width="0.4"/>
<line x1="52.807" y1="30.014" x2="59.096" y2="23.725" stroke="#141414" stroke-width="0.4"/>
<line x1="59.096" y1="23.725" x2="55.952" y2="17.886" stroke="#141414" stroke-width="0.4"/>
<line x1="28.313" y1="46.807" x2="25.342" y2="53.509" stroke="#141414" stroke-width="0.4"/>
<line x1="25.342" y1="53.509" x2="32.991" y2="60.203" stroke="#141414" stroke-width="0.4"/>
<line x1="32.991" y1="60.203" x2="39.24" y2="56.37" stroke="#141414" stroke-width="0.4"/>
<line x1="55.952" y1="17.886" x2="59.096" y2="12.046" stroke="#141414" stroke-width="0.4"/>
<line x1="59.096" y1="12.046" x2="52.807" y2="5.757" stroke="#141414" stroke-width="0.4"/>
<line x1="52.807" y1="5.757" x2="46.967" y2="8.902" stroke="#141414" stroke-width="0.4"/>
<line x1="66.625" y1="42.951" x2="69.948" y2="50.349" stroke="#141414" stroke-width="0.4"/>
<line x1="69.948" y1="50.349" x2="58.856" y2="65.913" stroke="#141414" stroke-width="0.4"/>
<line x1="58.856" y1="65.913" x2="50.779" y2="65.186" stroke="#141414" stroke-width="0.4"/>
<circle cx="40.229" cy="11.148" r="1.04" fill="#99d9fa" stroke="#464646" stroke-width="0.2"/>
<text x="40.229" y="11.51" font-size="1.02" text-anchor="middle" fill="#141414">144</text>
<circle cx="20.705" cy="44.148" r="1.04" fill="#ffe082" stroke="#464646" stroke-width="0.2"/>
<text x="20.705" y="44.51" font-size="1.02" text-anchor="middle" fill="#141414">145</text>
<circle cx="10.63" cy="33.381" r="1.04" fill="#ffe082" stroke="#464646" stroke-width="0.2"/>
<text x="10.63" y="33.74" font-size="1.02" text-anchor="middle" fill="#141414">146</text>
<circle cx="53.705" cy="24.624" r="1.04" fill="#ffe082" stroke="#464646" stroke-width="0.2"/>
<text x="53.705" y="24.98" font-size="1.02" text-anchor="middle" fill="#141414">147</text>
<circle cx="31.472" cy="54.223" r="1.04" fill="#ffe082" stroke="#464646" stroke-width="0.2"/>
<text x="31.472" y="54.58" font-size="1.02" text-anchor="middle" fill="#141414">148</text>
<circle cx="53.705" cy="11.148" r="1.04" fill="#ffe082" stroke="#464646" stroke-width="0.2"/>
<text x="53.705" y="11.51" font-size="1.02" text-anchor="middle" fill="#141414">149</text>
<circle cx="61.552" cy="56.1" r="1.04" fill="#ffe082" stroke="#464646" stroke-width="0.2"/>
<text x="61.552" y="56.46" font-size="1.02" text-anchor="middle" fill="#141414">150</text>
<circle cx="21.504" cy="26.679" r="3.46" fill="#eaf1fe" stroke="#2e78e6" stroke-width="0.3"/>
<text x="21.504" y="28.03" font-size="3.92" text-anchor="middle" fill="#14306e" font-weight="bold">16</text>
<polygon points="46.743,114.678 37.667,114.794 36.08,113.093 36.824,104.047" fill="rgb(216,216,216)"/>
<polygon points="61.283,114.678 70.048,114.319 71.362,112.618 69.495,104.047" fill="rgb(216,216,216)"/>
<polygon points="53.975,155.412 56.471,162.543 69.717,163.191 72.898,156.339" fill="rgb(216,216,216)"/>
<polygon points="67.435,174.48 68.26,181.931 80.37,185.097 84.736,179.003" fill="rgb(216,216,216)"/>
<polygon points="69.495,104.047 75.479,99.909 72.469,90.629 65.195,90.79" fill="rgb(216,216,216)"/>
<polygon points="65.195,90.79 65.949,83.485 56.448,79.355 51.622,84.89" fill="rgb(216,216,216)"/>
<polygon points="102.507,122.075 106.905,130.325 96.816,157.433 88.094,160.8" fill="rgb(216,216,216)"/>
<polygon points="51.622,84.89 46.778,79.462 37.939,83.592 38.995,90.79" fill="rgb(216,216,216)"/>
<polygon points="15.29,157.428 17.668,162.458 25.044,161.342 25.828,155.834" fill="rgb(216,216,216)"/>
<polygon points="38.995,90.79 32.041,91.693 30.521,100.973 36.824,104.047" fill="rgb(216,216,216)"/>
<polygon points="25.828,155.834 27.565,160.908 34.75,160.632 36.093,155.441" fill="rgb(216,216,216)"/>
<polygon points="15.29,157.428 17.668,162.458 25.044,161.342 25.828,155.834" fill="#99d9fa"/>
<line x1="46.743" y1="114.678" x2="61.283" y2="114.678" stroke="#8c8c8c" stroke-width="0.3" stroke-dasharray="1.2,0.8"/>
<line x1="53.975" y1="155.412" x2="46.743" y2="114.678" stroke="#8c8c8c" stroke-width="0.3" stroke-dasharray="1.2,0.8"/>
<line x1="46.743" y1="114.678" x2="36.093" y2="155.441" stroke="#8c8c8c" stroke-width="0.3" stroke-dasharray="1.2,0.8"/>
<line x1="61.283" y1="114.678" x2="53.975" y2="155.412" stroke="#8c8c8c" stroke-width="0.3" stroke-dasharray="1.2,0.8"/>
<line x1="74.71" y1="115.102" x2="53.975" y2="155.412" stroke="#8c8c8c" stroke-width="0.3" stroke-dasharray="1.2,0.8"/>
<line x1="74.71" y1="115.102" x2="72.898" y2="156.339" stroke="#8c8c8c" stroke-width="0.3" stroke-dasharray="1.2,0.8"/>
<line x1="88.448" y1="117.448" x2="72.898" y2="156.339" stroke="#8c8c8c" stroke-width="0.3" stroke-dasharray="1.2,0.8"/>
<line x1="88.094" y1="160.8" x2="72.898" y2="156.339" stroke="#8c8c8c" stroke-width="0.3" stroke-dasharray="1.2,0.8"/>
<line x1="18.78" y1="115.326" x2="25.828" y2="155.834" stroke="#8c8c8c" stroke-width="0.3" stroke-dasharray="1.2,0.8"/>
<line x1="32.204" y1="114.811" x2="36.093" y2="155.441" stroke="#8c8c8c" stroke-width="0.3" stroke-dasharray="1.2,0.8"/>
<line x1="102.507" y1="122.075" x2="72.898" y2="156.339" stroke="#8c8c8c" stroke-width="0.3" stroke-dasharray="1.2,0.8"/>
<line x1="36.824" y1="104.047" x2="46.743" y2="114.678" stroke="#8c8c8c" stroke-width="0.3" stroke-dasharray="1.2,0.8"/>
<line x1="69.495" y1="104.047" x2="61.283" y2="114.678" stroke="#8c8c8c" stroke-width="0.3" stroke-dasharray="1.2,0.8"/>
<line x1="72.898" y1="156.339" x2="53.975" y2="155.412" stroke="#8c8c8c" stroke-width="0.3" stroke-dasharray="1.2,0.8"/>
<line x1="84.736" y1="179.003" x2="67.435" y2="174.48" stroke="#8c8c8c" stroke-width="0.3" stroke-dasharray="1.2,0.8"/>
<line x1="65.195" y1="90.79" x2="69.495" y2="104.047" stroke="#8c8c8c" stroke-width="0.3" stroke-dasharray="1.2,0.8"/>
<line x1="51.622" y1="84.89" x2="65.195" y2="90.79" stroke="#8c8c8c" stroke-width="0.3" stroke-dasharray="1.2,0.8"/>
<line x1="88.094" y1="160.8" x2="102.507" y2="122.075" stroke="#8c8c8c" stroke-width="0.3" stroke-dasharray="1.2,0.8"/>
<line x1="38.995" y1="90.79" x2="51.622" y2="84.89" stroke="#8c8c8c" stroke-width="0.3" stroke-dasharray="1.2,0.8"/>
<line x1="25.828" y1="155.834" x2="15.29" y2="157.428" stroke="#8c8c8c" stroke-width="0.3" stroke-dasharray="1.2,0.8"/>
<line x1="36.824" y1="104.047" x2="38.995" y2="90.79" stroke="#8c8c8c" stroke-width="0.3" stroke-dasharray="1.2,0.8"/>
<line x1="36.093" y1="155.441" x2="25.828" y2="155.834" stroke="#8c8c8c" stroke-width="0.3" stroke-dasharray="1.2,0.8"/>
<line x1="32.204" y1="114.811" x2="46.743" y2="114.678" stroke="#141414" stroke-width="0.4"/>
<line x1="61.283" y1="114.678" x2="74.71" y2="115.102" stroke="#141414" stroke-width="0.4"/>
<line x1="67.435" y1="174.48" x2="72.898" y2="156.339" stroke="#141414" stroke-width="0.4"/>
<line x1="53.975" y1="155.412" x2="36.093" y2="155.441" stroke="#141414" stroke-width="0.4"/>
<line x1="74.71" y1="115.102" x2="88.448" y2="117.448" stroke="#141414" stroke-width="0.4"/>
<line x1="88.448" y1="117.448" x2="102.507" y2="122.075" stroke="#141414" stroke-width="0.4"/>
<line x1="15.29" y1="157.428" x2="5.0" y2="117.41" stroke="#141414" stroke-width="0.4"/>
<line x1="38.995" y1="90.79" x2="51.621" y2="84.89" stroke="#141414" stroke-width="0.4"/>
<line x1="5.0" y1="117.41" x2="18.78" y2="115.326" stroke="#141414" stroke-width="0.4"/>
<line x1="88.094" y1="160.8" x2="91.178" y2="171.002" stroke="#141414" stroke-width="0.4"/>
<line x1="36.824" y1="104.047" x2="38.995" y2="90.79" stroke="#141414" stroke-width="0.4"/>
<line x1="18.78" y1="115.326" x2="32.204" y2="114.811" stroke="#141414" stroke-width="0.4"/>
<line x1="91.178" y1="171.002" x2="84.736" y2="179.003" stroke="#141414" stroke-width="0.4"/>
<line x1="46.743" y1="114.678" x2="37.667" y2="114.794" stroke="#141414" stroke-width="0.4"/>
<line x1="37.667" y1="114.794" x2="36.08" y2="113.093" stroke="#141414" stroke-width="0.4"/>
<line x1="36.08" y1="113.093" x2="36.824" y2="104.047" stroke="#141414" stroke-width="0.4"/>
<line x1="61.283" y1="114.678" x2="70.048" y2="114.319" stroke="#141414" stroke-width="0.4"/>
<line x1="70.048" y1="114.319" x2="71.362" y2="112.618" stroke="#141414" stroke-width="0.4"/>
<line x1="71.362" y1="112.618" x2="69.495" y2="104.047" stroke="#141414" stroke-width="0.4"/>
<line x1="53.975" y1="155.412" x2="56.471" y2="162.543" stroke="#141414" stroke-width="0.4"/>
<line x1="56.471" y1="162.543" x2="69.717" y2="163.191" stroke="#141414" stroke-width="0.4"/>
<line x1="69.717" y1="163.191" x2="72.898" y2="156.339" stroke="#141414" stroke-width="0.4"/>
<line x1="67.435" y1="174.48" x2="68.26" y2="181.931" stroke="#141414" stroke-width="0.4"/>
<line x1="68.26" y1="181.931" x2="80.37" y2="185.097" stroke="#141414" stroke-width="0.4"/>
<line x1="80.37" y1="185.097" x2="84.736" y2="179.003" stroke="#141414" stroke-width="0.4"/>
<line x1="69.495" y1="104.047" x2="75.479" y2="99.909" stroke="#141414" stroke-width="0.4"/>
<line x1="75.479" y1="99.909" x2="72.469" y2="90.629" stroke="#141414" stroke-width="0.4"/>
<line x1="72.469" y1="90.629" x2="65.195" y2="90.79" stroke="#141414" stroke-width="0.4"/>
<line x1="65.195" y1="90.79" x2="65.949" y2="83.485" stroke="#141414" stroke-width="0.4"/>
<line x1="65.949" y1="83.485" x2="56.448" y2="79.355" stroke="#141414" stroke-width="0.4"/>
<line x1="56.448" y1="79.355" x2="51.622" y2="84.89" stroke="#141414" stroke-width="0.4"/>
<line x1="102.507" y1="122.075" x2="106.905" y2="130.325" stroke="#141414" stroke-width="0.4"/>
<line x1="106.905" y1="130.325" x2="96.816" y2="157.433" stroke="#141414" stroke-width="0.4"/>
<line x1="96.816" y1="157.433" x2="88.094" y2="160.8" stroke="#141414" stroke-width="0.4"/>
<line x1="51.622" y1="84.89" x2="46.778" y2="79.462" stroke="#141414" stroke-width="0.4"/>
<line x1="46.778" y1="79.462" x2="37.939" y2="83.592" stroke="#141414" stroke-width="0.4"/>
<line x1="37.939" y1="83.592" x2="38.995" y2="90.79" stroke="#141414" stroke-width="0.4"/>
<line x1="15.29" y1="157.428" x2="17.668" y2="162.458" stroke="#141414" stroke-width="0.4"/>
<line x1="17.668" y1="162.458" x2="25.044" y2="161.342" stroke="#141414" stroke-width="0.4"/>
<line x1="25.044" y1="161.342" x2="25.828" y2="155.834" stroke="#141414" stroke-width="0.4"/>
<line x1="38.995" y1="90.79" x2="32.041" y2="91.693" stroke="#141414" stroke-width="0.4"/>
<line x1="32.041" y1="91.693" x2="30.521" y2="100.973" stroke="#141414" stroke-width="0.4"/>
<line x1="30.521" y1="100.973" x2="36.824" y2="104.047" stroke="#141414" stroke-width="0.4"/>
<line x1="25.828" y1="155.834" x2="27.565" y2="160.908" stroke="#141414" stroke-width="0.4"/>
<line x1="27.565" y1="160.908" x2="34.75" y2="160.632" stroke="#141414" stroke-width="0.4"/>
<line x1="34.75" y1="160.632" x2="36.093" y2="155.441" stroke="#141414" stroke-width="0.4"/>
<circle cx="39.329" cy="111.653" r="1.04" fill="#ffe082" stroke="#464646" stroke-width="0.2"/>
<text x="39.329" y="112.01" font-size="1.02" text-anchor="middle" fill="#141414">151</text>
<circle cx="68.047" cy="111.416" r="1.04" fill="#ffe082" stroke="#464646" stroke-width="0.2"/>
<text x="68.047" y="111.77" font-size="1.02" text-anchor="middle" fill="#141414">152</text>
<circle cx="63.265" cy="159.371" r="1.04" fill="#ffe082" stroke="#464646" stroke-width="0.2"/>
<text x="63.265" y="159.73" font-size="1.02" text-anchor="middle" fill="#141414">153</text>
<circle cx="75.2" cy="180.128" r="1.04" fill="#ffe082" stroke="#464646" stroke-width="0.2"/>
<text x="75.2" y="180.49" font-size="1.02" text-anchor="middle" fill="#141414">154</text>
<circle cx="70.659" cy="96.344" r="1.04" fill="#ffe082" stroke="#464646" stroke-width="0.2"/>
<text x="70.659" y="96.70" font-size="1.02" text-anchor="middle" fill="#141414">155</text>
<circle cx="59.804" cy="84.63" r="1.04" fill="#ffe082" stroke="#464646" stroke-width="0.2"/>
<text x="59.804" y="84.99" font-size="1.02" text-anchor="middle" fill="#141414">156</text>
<circle cx="98.58" cy="142.658" r="1.04" fill="#ffe082" stroke="#464646" stroke-width="0.2"/>
<text x="98.58" y="143.02" font-size="1.02" text-anchor="middle" fill="#141414">157</text>
<circle cx="43.833" cy="84.684" r="1.04" fill="#ffe082" stroke="#464646" stroke-width="0.2"/>
<text x="43.833" y="85.04" font-size="1.02" text-anchor="middle" fill="#141414">158</text>
<circle cx="20.957" cy="159.266" r="1.04" fill="#99d9fa" stroke="#464646" stroke-width="0.2"/>
<text x="20.957" y="159.62" font-size="1.02" text-anchor="middle" fill="#141414">159</text>
<circle cx="34.595" cy="96.876" r="1.04" fill="#ffe082" stroke="#464646" stroke-width="0.2"/>
<text x="34.595" y="97.23" font-size="1.02" text-anchor="middle" fill="#141414">160</text>
<circle cx="31.059" cy="158.204" r="1.04" fill="#ffe082" stroke="#464646" stroke-width="0.2"/>
<text x="31.059" y="158.56" font-size="1.02" text-anchor="middle" fill="#141414">161</text>
<circle cx="76.142" cy="163.873" r="3.23" fill="#eaf1fe" stroke="#2e78e6" stroke-width="0.3"/>
<text x="76.142" y="165.14" font-size="3.65" text-anchor="middle" fill="#14306e" font-weight="bold">17</text>
<text x="205.0" y="295.0" font-size="3.2" text-anchor="end" fill="#737373" font-family="sans-serif">4 / 4</text>
<g pointer-events="none"><text x="105.0" y="83.2" text-anchor="middle" font-family="sans-serif" font-size="12.4" fill="#9aa0a6" fill-opacity="0.3" transform="rotate(-28 105.0 83.2)">papercraft.kr</text><text x="105.0" y="148.5" text-anchor="middle" font-family="sans-serif" font-size="12.4" fill="#9aa0a6" fill-opacity="0.3" transform="rotate(-28 105.0 148.5)">papercraft.kr</text><text x="105.0" y="213.8" text-anchor="middle" font-family="sans-serif" font-size="12.4" fill="#9aa0a6" fill-opacity="0.3" transform="rotate(-28 105.0 213.8)">papercraft.kr</text></g></svg>
