<svg xmlns="http://www.w3.org/2000/svg" xmlns:xlink="http://www.w3.org/1999/xlink" width="210.00mm" height="297.00mm" viewBox="0 0 210.00 297.00">
<rect x="0" y="0" width="210.00" height="297.00" fill="#ffffff" stroke="#cccccc" stroke-width="0.2"/>
<polygon points="45.952,82.659 49.976,89.659 68.752,89.659 72.776,82.659" fill="rgb(216,216,216)"/>
<polygon points="45.952,57.241 49.976,50.241 68.752,50.241 72.776,57.241" fill="rgb(216,216,216)"/>
<polygon points="72.776,82.659 79.776,78.846 79.776,61.054 72.776,57.241" fill="rgb(216,216,216)"/>
<polygon points="45.952,109.483 43.833,116.483 33.943,116.483 31.824,109.483" fill="rgb(216,216,216)"/>
<polygon points="31.824,82.659 24.824,78.846 24.824,61.054 31.824,57.241" fill="rgb(216,216,216)"/>
<polygon points="31.824,82.659 24.824,86.682 24.824,105.459 31.824,109.483" fill="rgb(216,216,216)"/>
<polygon points="31.824,57.241 24.824,53.218 24.824,34.441 31.824,30.417" fill="rgb(216,216,216)"/>
<polygon points="45.952,82.659 49.976,89.659 68.752,89.659 72.776,82.659" fill="#99d9fa"/>
<line x1="45.952" y1="82.659" x2="45.952" y2="57.241" stroke="#8c8c8c" stroke-width="0.3" stroke-dasharray="1.2,0.8"/>
<line x1="45.952" y1="82.659" x2="31.824" y2="82.659" stroke="#8c8c8c" stroke-width="0.3" stroke-dasharray="1.2,0.8"/>
<line x1="31.824" y1="57.241" x2="45.952" y2="57.241" stroke="#8c8c8c" stroke-width="0.3" stroke-dasharray="1.2,0.8"/>
<line x1="31.824" y1="30.417" x2="45.952" y2="30.417" stroke="#8c8c8c" stroke-width="0.3" stroke-dasharray="1.2,0.8"/>
<line x1="31.824" y1="30.417" x2="31.824" y2="5.0" stroke="#8c8c8c" stroke-width="0.3" stroke-dasharray="1.2,0.8"/>
<line x1="72.776" y1="82.659" x2="45.952" y2="82.659" stroke="#8c8c8c" stroke-width="0.3" stroke-dasharray="1.2,0.8"/>
<line x1="72.776" y1="57.241" x2="45.952" y2="57.241" stroke="#8c8c8c" stroke-width="0.3" stroke-dasharray="1.2,0.8"/>
<line x1="72.776" y1="57.241" x2="72.776" y2="82.659" stroke="#8c8c8c" stroke-width="0.3" stroke-dasharray="1.2,0.8"/>
<line x1="31.824" y1="109.483" x2="45.952" y2="109.483" stroke="#8c8c8c" stroke-width="0.3" stroke-dasharray="1.2,0.8"/>
<line x1="31.824" y1="57.241" x2="31.824" y2="82.659" stroke="#8c8c8c" stroke-width="0.3" stroke-dasharray="1.2,0.8"/>
<line x1="31.824" y1="109.483" x2="31.824" y2="82.659" stroke="#8c8c8c" stroke-width="0.3" stroke-dasharray="1.2,0.8"/>
<line x1="31.824" y1="30.417" x2="31.824" y2="57.241" stroke="#8c8c8c" stroke-width="0.3" stroke-dasharray="1.2,0.8"/>
<line x1="45.952" y1="82.659" x2="45.952" y2="109.483" stroke="#141414" stroke-width="0.4"/>
<line x1="45.952" y1="30.417" x2="45.952" y2="57.241" stroke="#141414" stroke-width="0.4"/>
<line x1="45.952" y1="5.0" x2="45.952" y2="30.417" stroke="#141414" stroke-width="0.4"/>
<line x1="31.824" y1="5.0" x2="45.952" y2="5.0" stroke="#141414" stroke-width="0.4"/>
<line x1="5.0" y1="30.417" x2="5.0" y2="5.0" stroke="#141414" stroke-width="0.4"/>
<line x1="5.0" y1="5.0" x2="31.824" y2="5.0" stroke="#141414" stroke-width="0.4"/>
<line x1="31.824" y1="30.417" x2="5.0" y2="30.417" stroke="#141414" stroke-width="0.4"/>
<line x1="45.952" y1="82.659" x2="49.976" y2="89.659" stroke="#141414" stroke-width="0.4"/>
<line x1="49.976" y1="89.659" x2="68.752" y2="89.659" stroke="#141414" stroke-width="0.4"/>
<line x1="68.752" y1="89.659" x2="72.776" y2="82.659" stroke="#141414" stroke-width="0.4"/>
<line x1="45.952" y1="57.241" x2="49.976" y2="50.241" stroke="#141414" stroke-width="0.4"/>
<line x1="49.976" y1="50.241" x2="68.752" y2="50.241" stroke="#141414" stroke-width="0.4"/>
<line x1="68.752" y1="50.241" x2="72.776" y2="57.241" stroke="#141414" stroke-width="0.4"/>
<line x1="72.776" y1="82.659" x2="79.776" y2="78.846" stroke="#141414" stroke-width="0.4"/>
<line x1="79.776" y1="78.846" x2="79.776" y2="61.054" stroke="#141414" stroke-width="0.4"/>
<line x1="79.776" y1="61.054" x2="72.776" y2="57.241" stroke="#141414" stroke-width="0.4"/>
<line x1="45.952" y1="109.483" x2="43.833" y2="116.483" stroke="#141414" stroke-width="0.4"/>
<line x1="43.833" y1="116.483" x2="33.943" y2="116.483" stroke="#141414" stroke-width="0.4"/>
<line x1="33.943" y1="116.483" x2="31.824" y2="109.483" stroke="#141414" stroke-width="0.4"/>
<line x1="31.824" y1="82.659" x2="24.824" y2="78.846" stroke="#141414" stroke-width="0.4"/>
<line x1="24.824" y1="78.846" x2="24.824" y2="61.054" stroke="#141414" stroke-width="0.4"/>
<line x1="24.824" y1="61.054" x2="31.824" y2="57.241" stroke="#141414" stroke-width="0.4"/>
<line x1="31.824" y1="82.659" x2="24.824" y2="86.682" stroke="#141414" stroke-width="0.4"/>
<line x1="24.824" y1="86.682" x2="24.824" y2="105.459" stroke="#141414" stroke-width="0.4"/>
<line x1="24.824" y1="105.459" x2="31.824" y2="109.483" stroke="#141414" stroke-width="0.4"/>
<line x1="31.824" y1="57.241" x2="24.824" y2="53.218" stroke="#141414" stroke-width="0.4"/>
<line x1="24.824" y1="53.218" x2="24.824" y2="34.441" stroke="#141414" stroke-width="0.4"/>
<line x1="24.824" y1="34.441" x2="31.824" y2="30.417" stroke="#141414" stroke-width="0.4"/>
<circle cx="59.364" cy="86.159" r="1.04" fill="#99d9fa" stroke="#464646" stroke-width="0.2"/>
<text x="59.364" y="86.52" font-size="1.02" text-anchor="middle" fill="#141414">73</text>
<circle cx="59.364" cy="53.741" r="1.04" fill="#ffe082" stroke="#464646" stroke-width="0.2"/>
<text x="59.364" y="54.10" font-size="1.02" text-anchor="middle" fill="#141414">74</text>
<circle cx="76.276" cy="69.95" r="1.04" fill="#ffe082" stroke="#464646" stroke-width="0.2"/>
<text x="76.276" y="70.31" font-size="1.02" text-anchor="middle" fill="#141414">75</text>
<circle cx="38.888" cy="112.983" r="1.04" fill="#ffe082" stroke="#464646" stroke-width="0.2"/>
<text x="38.888" y="113.34" font-size="1.02" text-anchor="middle" fill="#141414">76</text>
<circle cx="28.324" cy="69.95" r="1.04" fill="#ffe082" stroke="#464646" stroke-width="0.2"/>
<text x="28.324" y="70.31" font-size="1.02" text-anchor="middle" fill="#141414">77</text>
<circle cx="28.324" cy="96.071" r="1.04" fill="#ffe082" stroke="#464646" stroke-width="0.2"/>
<text x="28.324" y="96.43" font-size="1.02" text-anchor="middle" fill="#141414">78</text>
<circle cx="28.324" cy="43.829" r="1.04" fill="#ffe082" stroke="#464646" stroke-width="0.2"/>
<text x="28.324" y="44.19" font-size="1.02" text-anchor="middle" fill="#141414">79</text>
<circle cx="36.533" cy="100.541" r="3.33" fill="#eaf1fe" stroke="#2e78e6" stroke-width="0.3"/>
<text x="36.533" y="101.85" font-size="3.77" text-anchor="middle" fill="#14306e" font-weight="bold">7</text>
<polygon points="123.728,82.659 127.752,89.659 146.528,89.659 150.552,82.659" fill="rgb(216,216,216)"/>
<polygon points="123.728,57.241 127.752,50.241 146.528,50.241 150.552,57.241" fill="rgb(216,216,216)"/>
<polygon points="150.552,82.659 157.552,78.846 157.552,61.054 150.552,57.241" fill="rgb(216,216,216)"/>
<polygon points="123.728,109.483 121.609,116.483 111.719,116.483 109.6,109.483" fill="rgb(216,216,216)"/>
<polygon points="109.6,82.659 102.6,78.846 102.6,61.054 109.6,57.241" fill="rgb(216,216,216)"/>
<polygon points="109.6,82.659 102.6,86.682 102.6,105.459 109.6,109.483" fill="rgb(216,216,216)"/>
<polygon points="109.6,57.241 102.6,53.218 102.6,34.441 109.6,30.417" fill="rgb(216,216,216)"/>
<polygon points="123.728,82.659 127.752,89.659 146.528,89.659 150.552,82.659" fill="#99d9fa"/>
<line x1="123.728" y1="82.659" x2="123.728" y2="57.241" stroke="#8c8c8c" stroke-width="0.3" stroke-dasharray="1.2,0.8"/>
<line x1="123.728" y1="82.659" x2="109.6" y2="82.659" stroke="#8c8c8c" stroke-width="0.3" stroke-dasharray="1.2,0.8"/>
<line x1="109.6" y1="57.241" x2="123.728" y2="57.241" stroke="#8c8c8c" stroke-width="0.3" stroke-dasharray="1.2,0.8"/>
<line x1="109.6" y1="30.417" x2="123.728" y2="30.417" stroke="#8c8c8c" stroke-width="0.3" stroke-dasharray="1.2,0.8"/>
<line x1="109.6" y1="30.417" x2="109.6" y2="5.0" stroke="#8c8c8c" stroke-width="0.3" stroke-dasharray="1.2,0.8"/>
<line x1="150.552" y1="82.659" x2="123.728" y2="82.659" stroke="#8c8c8c" stroke-width="0.3" stroke-dasharray="1.2,0.8"/>
<line x1="150.552" y1="57.241" x2="123.728" y2="57.241" stroke="#8c8c8c" stroke-width="0.3" stroke-dasharray="1.2,0.8"/>
<line x1="150.552" y1="57.241" x2="150.552" y2="82.659" stroke="#8c8c8c" stroke-width="0.3" stroke-dasharray="1.2,0.8"/>
<line x1="109.6" y1="109.483" x2="123.728" y2="109.483" stroke="#8c8c8c" stroke-width="0.3" stroke-dasharray="1.2,0.8"/>
<line x1="109.6" y1="57.241" x2="109.6" y2="82.659" stroke="#8c8c8c" stroke-width="0.3" stroke-dasharray="1.2,0.8"/>
<line x1="109.6" y1="109.483" x2="109.6" y2="82.659" stroke="#8c8c8c" stroke-width="0.3" stroke-dasharray="1.2,0.8"/>
<line x1="109.6" y1="30.417" x2="109.6" y2="57.241" stroke="#8c8c8c" stroke-width="0.3" stroke-dasharray="1.2,0.8"/>
<line x1="123.728" y1="82.659" x2="123.728" y2="109.483" stroke="#141414" stroke-width="0.4"/>
<line x1="123.728" y1="30.417" x2="123.728" y2="57.241" stroke="#141414" stroke-width="0.4"/>
<line x1="123.728" y1="5.0" x2="123.728" y2="30.417" stroke="#141414" stroke-width="0.4"/>
<line x1="109.6" y1="5.0" x2="123.728" y2="5.0" stroke="#141414" stroke-width="0.4"/>
<line x1="82.776" y1="30.417" x2="82.776" y2="5.0" stroke="#141414" stroke-width="0.4"/>
<line x1="82.776" y1="5.0" x2="109.6" y2="5.0" stroke="#141414" stroke-width="0.4"/>
<line x1="109.6" y1="30.417" x2="82.776" y2="30.417" stroke="#141414" stroke-width="0.4"/>
<line x1="123.728" y1="82.659" x2="127.752" y2="89.659" stroke="#141414" stroke-width="0.4"/>
<line x1="127.752" y1="89.659" x2="146.528" y2="89.659" stroke="#141414" stroke-width="0.4"/>
<line x1="146.528" y1="89.659" x2="150.552" y2="82.659" stroke="#141414" stroke-width="0.4"/>
<line x1="123.728" y1="57.241" x2="127.752" y2="50.241" stroke="#141414" stroke-width="0.4"/>
<line x1="127.752" y1="50.241" x2="146.528" y2="50.241" stroke="#141414" stroke-width="0.4"/>
<line x1="146.528" y1="50.241" x2="150.552" y2="57.241" stroke="#141414" stroke-width="0.4"/>
<line x1="150.552" y1="82.659" x2="157.552" y2="78.846" stroke="#141414" stroke-width="0.4"/>
<line x1="157.552" y1="78.846" x2="157.552" y2="61.054" stroke="#141414" stroke-width="0.4"/>
<line x1="157.552" y1="61.054" x2="150.552" y2="57.241" stroke="#141414" stroke-width="0.4"/>
<line x1="123.728" y1="109.483" x2="121.609" y2="116.483" stroke="#141414" stroke-width="0.4"/>
<line x1="121.609" y1="116.483" x2="111.719" y2="116.483" stroke="#141414" stroke-width="0.4"/>
<line x1="111.719" y1="116.483" x2="109.6" y2="109.483" stroke="#141414" stroke-width="0.4"/>
<line x1="109.6" y1="82.659" x2="102.6" y2="78.846" stroke="#141414" stroke-width="0.4"/>
<line x1="102.6" y1="78.846" x2="102.6" y2="61.054" stroke="#141414" stroke-width="0.4"/>
<line x1="102.6" y1="61.054" x2="109.6" y2="57.241" stroke="#141414" stroke-width="0.4"/>
<line x1="109.6" y1="82.659" x2="102.6" y2="86.682" stroke="#141414" stroke-width="0.4"/>
<line x1="102.6" y1="86.682" x2="102.6" y2="105.459" stroke="#141414" stroke-width="0.4"/>
<line x1="102.6" y1="105.459" x2="109.6" y2="109.483" stroke="#141414" stroke-width="0.4"/>
<line x1="109.6" y1="57.241" x2="102.6" y2="53.218" stroke="#141414" stroke-width="0.4"/>
<line x1="102.6" y1="53.218" x2="102.6" y2="34.441" stroke="#141414" stroke-width="0.4"/>
<line x1="102.6" y1="34.441" x2="109.6" y2="30.417" stroke="#141414" stroke-width="0.4"/>
<circle cx="137.14" cy="86.159" r="1.04" fill="#99d9fa" stroke="#464646" stroke-width="0.2"/>
<text x="137.14" y="86.52" font-size="1.02" text-anchor="middle" fill="#141414">80</text>
<circle cx="137.14" cy="53.741" r="1.04" fill="#ffe082" stroke="#464646" stroke-width="0.2"/>
<text x="137.14" y="54.10" font-size="1.02" text-anchor="middle" fill="#141414">81</text>
<circle cx="154.052" cy="69.95" r="1.04" fill="#ffe082" stroke="#464646" stroke-width="0.2"/>
<text x="154.052" y="70.31" font-size="1.02" text-anchor="middle" fill="#141414">82</text>
<circle cx="116.664" cy="112.983" r="1.04" fill="#ffe082" stroke="#464646" stroke-width="0.2"/>
<text x="116.664" y="113.34" font-size="1.02" text-anchor="middle" fill="#141414">83</text>
<circle cx="106.1" cy="69.95" r="1.04" fill="#ffe082" stroke="#464646" stroke-width="0.2"/>
<text x="106.1" y="70.31" font-size="1.02" text-anchor="middle" fill="#141414">84</text>
<circle cx="106.1" cy="96.071" r="1.04" fill="#ffe082" stroke="#464646" stroke-width="0.2"/>
<text x="106.1" y="96.43" font-size="1.02" text-anchor="middle" fill="#141414">85</text>
<circle cx="106.1" cy="43.829" r="1.04" fill="#ffe082" stroke="#464646" stroke-width="0.2"/>
<text x="106.1" y="44.19" font-size="1.02" text-anchor="middle" fill="#141414">86</text>
<circle cx="114.309" cy="100.541" r="3.33" fill="#eaf1fe" stroke="#2e78e6" stroke-width="0.3"/>
<text x="114.309" y="101.85" font-size="3.77" text-anchor="middle" fill="#14306e" font-weight="bold">8</text>
<polygon points="37.983,132.368 34.839,126.529 41.128,120.24 46.967,123.384" fill="rgb(216,216,216)"/>
<polygon points="18.046,151.022 14.636,157.512 21.823,164.7 28.313,161.29" fill="rgb(216,216,216)"/>
<polygon points="18.046,151.022 11.343,153.993 4.649,146.344 8.483,140.095" fill="rgb(216,216,216)"/>
<polygon points="46.967,141.353 52.807,144.497 59.096,138.208 55.952,132.368" fill="rgb(216,216,216)"/>
<polygon points="28.313,161.29 25.342,167.992 32.991,174.686 39.24,170.853" fill="rgb(216,216,216)"/>
<polygon points="55.952,132.368 59.096,126.529 52.807,120.24 46.967,123.384" fill="rgb(216,216,216)"/>
<polygon points="66.625,157.434 69.948,164.831 58.856,180.396 50.779,179.668" fill="rgb(216,216,216)"/>
<polygon points="37.983,132.368 34.839,126.529 41.128,120.24 46.967,123.384" fill="#99d9fa"/>
<line x1="18.046" y1="151.022" x2="37.983" y2="132.368" stroke="#8c8c8c" stroke-width="0.3" stroke-dasharray="1.2,0.8"/>
<line x1="46.967" y1="141.353" x2="37.983" y2="132.368" stroke="#8c8c8c" stroke-width="0.3" stroke-dasharray="1.2,0.8"/>
<line x1="46.967" y1="141.353" x2="28.313" y2="161.29" stroke="#8c8c8c" stroke-width="0.3" stroke-dasharray="1.2,0.8"/>
<line x1="56.529" y1="149.72" x2="39.24" y2="170.853" stroke="#8c8c8c" stroke-width="0.3" stroke-dasharray="1.2,0.8"/>
<line x1="50.779" y1="179.668" x2="39.24" y2="170.853" stroke="#8c8c8c" stroke-width="0.3" stroke-dasharray="1.2,0.8"/>
<line x1="46.967" y1="123.384" x2="37.983" y2="132.368" stroke="#8c8c8c" stroke-width="0.3" stroke-dasharray="1.2,0.8"/>
<line x1="28.313" y1="161.29" x2="18.046" y2="151.022" stroke="#8c8c8c" stroke-width="0.3" stroke-dasharray="1.2,0.8"/>
<line x1="8.483" y1="140.095" x2="18.046" y2="151.022" stroke="#8c8c8c" stroke-width="0.3" stroke-dasharray="1.2,0.8"/>
<line x1="55.952" y1="132.368" x2="46.967" y2="141.353" stroke="#8c8c8c" stroke-width="0.3" stroke-dasharray="1.2,0.8"/>
<line x1="39.24" y1="170.853" x2="28.313" y2="161.29" stroke="#8c8c8c" stroke-width="0.3" stroke-dasharray="1.2,0.8"/>
<line x1="46.967" y1="123.384" x2="55.952" y2="132.368" stroke="#8c8c8c" stroke-width="0.3" stroke-dasharray="1.2,0.8"/>
<line x1="50.779" y1="179.668" x2="66.625" y2="157.434" stroke="#8c8c8c" stroke-width="0.3" stroke-dasharray="1.2,0.8"/>
<line x1="29.616" y1="122.807" x2="37.983" y2="132.368" stroke="#141414" stroke-width="0.4"/>
<line x1="41.963" y1="191.207" x2="30.425" y2="182.391" stroke="#141414" stroke-width="0.4"/>
<line x1="50.779" y1="179.668" x2="41.963" y2="191.207" stroke="#141414" stroke-width="0.4"/>
<line x1="46.967" y1="141.353" x2="56.529" y2="149.72" stroke="#141414" stroke-width="0.4"/>
<line x1="30.425" y1="182.391" x2="39.24" y2="170.853" stroke="#141414" stroke-width="0.4"/>
<line x1="56.529" y1="149.72" x2="66.625" y2="157.434" stroke="#141414" stroke-width="0.4"/>
<line x1="8.483" y1="140.095" x2="29.616" y2="122.807" stroke="#141414" stroke-width="0.4"/>
<line x1="37.983" y1="132.368" x2="34.839" y2="126.529" stroke="#141414" stroke-width="0.4"/>
<line x1="34.839" y1="126.529" x2="41.128" y2="120.24" stroke="#141414" stroke-width="0.4"/>
<line x1="41.128" y1="120.24" x2="46.967" y2="123.384" stroke="#141414" stroke-width="0.4"/>
<line x1="18.046" y1="151.022" x2="14.636" y2="157.512" stroke="#141414" stroke-width="0.4"/>
<line x1="14.636" y1="157.512" x2="21.823" y2="164.7" stroke="#141414" stroke-width="0.4"/>
<line x1="21.823" y1="164.7" x2="28.313" y2="161.29" stroke="#141414" stroke-width="0.4"/>
<line x1="18.046" y1="151.022" x2="11.343" y2="153.993" stroke="#141414" stroke-width="0.4"/>
<line x1="11.343" y1="153.993" x2="4.649" y2="146.344" stroke="#141414" stroke-width="0.4"/>
<line x1="4.649" y1="146.344" x2="8.483" y2="140.095" stroke="#141414" stroke-width="0.4"/>
<line x1="46.967" y1="141.353" x2="52.807" y2="144.497" stroke="#141414" stroke-width="0.4"/>
<line x1="52.807" y1="144.497" x2="59.096" y2="138.208" stroke="#141414" stroke-width="0.4"/>
<line x1="59.096" y1="138.208" x2="55.952" y2="132.368" stroke="#141414" stroke-width="0.4"/>
<line x1="28.313" y1="161.29" x2="25.342" y2="167.992" stroke="#141414" stroke-width="0.4"/>
<line x1="25.342" y1="167.992" x2="32.991" y2="174.686" stroke="#141414" stroke-width="0.4"/>
<line x1="32.991" y1="174.686" x2="39.24" y2="170.853" stroke="#141414" stroke-width="0.4"/>
<line x1="55.952" y1="132.368" x2="59.096" y2="126.529" stroke="#141414" stroke-width="0.4"/>
<line x1="59.096" y1="126.529" x2="52.807" y2="120.24" stroke="#141414" stroke-width="0.4"/>
<line x1="52.807" y1="120.24" x2="46.967" y2="123.384" stroke="#141414" stroke-width="0.4"/>
<line x1="66.625" y1="157.434" x2="69.948" y2="164.831" stroke="#141414" stroke-width="0.4"/>
<line x1="69.948" y1="164.831" x2="58.856" y2="180.396" stroke="#141414" stroke-width="0.4"/>
<line x1="58.856" y1="180.396" x2="50.779" y2="179.668" stroke="#141414" stroke-width="0.4"/>
<circle cx="40.229" cy="125.63" r="1.04" fill="#99d9fa" stroke="#464646" stroke-width="0.2"/>
<text x="40.229" y="125.99" font-size="1.02" text-anchor="middle" fill="#141414">115</text>
<circle cx="20.705" cy="158.631" r="1.04" fill="#ffe082" stroke="#464646" stroke-width="0.2"/>
<text x="20.705" y="158.99" font-size="1.02" text-anchor="middle" fill="#141414">116</text>
<circle cx="10.63" cy="147.864" r="1.04" fill="#ffe082" stroke="#464646" stroke-width="0.2"/>
<text x="10.63" y="148.22" font-size="1.02" text-anchor="middle" fill="#141414">117</text>
<circle cx="53.705" cy="139.107" r="1.04" fill="#ffe082" stroke="#464646" stroke-width="0.2"/>
<text x="53.705" y="139.46" font-size="1.02" text-anchor="middle" fill="#141414">118</text>
<circle cx="31.472" cy="168.705" r="1.04" fill="#ffe082" stroke="#464646" stroke-width="0.2"/>
<text x="31.472" y="169.06" font-size="1.02" text-anchor="middle" fill="#141414">119</text>
<circle cx="53.705" cy="125.63" r="1.04" fill="#ffe082" stroke="#464646" stroke-width="0.2"/>
<text x="53.705" y="125.99" font-size="1.02" text-anchor="middle" fill="#141414">120</text>
<circle cx="61.552" cy="170.582" r="1.04" fill="#ffe082" stroke="#464646" stroke-width="0.2"/>
<text x="61.552" y="170.94" font-size="1.02" text-anchor="middle" fill="#141414">121</text>
<circle cx="21.504" cy="141.162" r="3.46" fill="#eaf1fe" stroke="#2e78e6" stroke-width="0.3"/>
<text x="21.504" y="142.52" font-size="3.92" text-anchor="middle" fill="#14306e" font-weight="bold">13</text>
<polygon points="106.282,132.368 103.137,126.529 109.426,120.24 115.266,123.384" fill="rgb(216,216,216)"/>
<polygon points="86.344,151.022 82.935,157.512 90.122,164.7 96.612,161.29" fill="rgb(216,216,216)"/>
<polygon points="86.344,151.022 79.642,153.993 72.948,146.344 76.782,140.095" fill="rgb(216,216,216)"/>
<polygon points="115.266,141.353 121.106,144.497 127.395,138.208 124.25,132.368" fill="rgb(216,216,216)"/>
<polygon points="96.612,161.29 93.641,167.992 101.29,174.686 107.539,170.853" fill="rgb(216,216,216)"/>
<polygon points="124.25,132.368 127.395,126.529 121.106,120.24 115.266,123.384" fill="rgb(216,216,216)"/>
<polygon points="134.923,157.434 138.247,164.831 127.155,180.396 119.077,179.668" fill="rgb(216,216,216)"/>
<polygon points="106.282,132.368 103.137,126.529 109.426,120.24 115.266,123.384" fill="#99d9fa"/>
<line x1="86.344" y1="151.022" x2="106.282" y2="132.368" stroke="#8c8c8c" stroke-width="0.3" stroke-dasharray="1.2,0.8"/>
<line x1="115.266" y1="141.353" x2="106.282" y2="132.368" stroke="#8c8c8c" stroke-width="0.3" stroke-dasharray="1.2,0.8"/>
<line x1="115.266" y1="141.353" x2="96.612" y2="161.29" stroke="#8c8c8c" stroke-width="0.3" stroke-dasharray="1.2,0.8"/>
<line x1="124.827" y1="149.72" x2="107.539" y2="170.853" stroke="#8c8c8c" stroke-width="0.3" stroke-dasharray="1.2,0.8"/>
<line x1="119.077" y1="179.668" x2="107.539" y2="170.853" stroke="#8c8c8c" stroke-width="0.3" stroke-dasharray="1.2,0.8"/>
<line x1="115.266" y1="123.384" x2="106.282" y2="132.368" stroke="#8c8c8c" stroke-width="0.3" stroke-dasharray="1.2,0.8"/>
<line x1="96.612" y1="161.29" x2="86.344" y2="151.022" stroke="#8c8c8c" stroke-width="0.3" stroke-dasharray="1.2,0.8"/>
<line x1="76.782" y1="140.095" x2="86.344" y2="151.022" stroke="#8c8c8c" stroke-width="0.3" stroke-dasharray="1.2,0.8"/>
<line x1="124.25" y1="132.368" x2="115.266" y2="141.353" stroke="#8c8c8c" stroke-width="0.3" stroke-dasharray="1.2,0.8"/>
<line x1="107.539" y1="170.853" x2="96.612" y2="161.29" stroke="#8c8c8c" stroke-width="0.3" stroke-dasharray="1.2,0.8"/>
<line x1="115.266" y1="123.384" x2="124.25" y2="132.368" stroke="#8c8c8c" stroke-width="0.3" stroke-dasharray="1.2,0.8"/>
<line x1="119.077" y1="179.668" x2="134.923" y2="157.434" stroke="#8c8c8c" stroke-width="0.3" stroke-dasharray="1.2,0.8"/>
<line x1="97.915" y1="122.807" x2="106.282" y2="132.368" stroke="#141414" stroke-width="0.4"/>
<line x1="110.262" y1="191.207" x2="98.723" y2="182.391" stroke="#141414" stroke-width="0.4"/>
<line x1="119.077" y1="179.668" x2="110.262" y2="191.207" stroke="#141414" stroke-width="0.4"/>
<line x1="115.266" y1="141.353" x2="124.827" y2="149.72" stroke="#141414" stroke-width="0.4"/>
<line x1="98.723" y1="182.391" x2="107.539" y2="170.853" stroke="#141414" stroke-width="0.4"/>
<line x1="124.827" y1="149.72" x2="134.923" y2="157.434" stroke="#141414" stroke-width="0.4"/>
<line x1="76.781" y1="140.095" x2="97.915" y2="122.807" stroke="#141414" stroke-width="0.4"/>
<line x1="106.282" y1="132.368" x2="103.137" y2="126.529" stroke="#141414" stroke-width="0.4"/>
<line x1="103.137" y1="126.529" x2="109.426" y2="120.24" stroke="#141414" stroke-width="0.4"/>
<line x1="109.426" y1="120.24" x2="115.266" y2="123.384" stroke="#141414" stroke-width="0.4"/>
<line x1="86.344" y1="151.022" x2="82.935" y2="157.512" stroke="#141414" stroke-width="0.4"/>
<line x1="82.935" y1="157.512" x2="90.122" y2="164.7" stroke="#141414" stroke-width="0.4"/>
<line x1="90.122" y1="164.7" x2="96.612" y2="161.29" stroke="#141414" stroke-width="0.4"/>
<line x1="86.344" y1="151.022" x2="79.642" y2="153.993" stroke="#141414" stroke-width="0.4"/>
<line x1="79.642" y1="153.993" x2="72.948" y2="146.344" stroke="#141414" stroke-width="0.4"/>
<line x1="72.948" y1="146.344" x2="76.782" y2="140.095" stroke="#141414" stroke-width="0.4"/>
<line x1="115.266" y1="141.353" x2="121.106" y2="144.497" stroke="#141414" stroke-width="0.4"/>
<line x1="121.106" y1="144.497" x2="127.395" y2="138.208" stroke="#141414" stroke-width="0.4"/>
<line x1="127.395" y1="138.208" x2="124.25" y2="132.368" stroke="#141414" stroke-width="0.4"/>
<line x1="96.612" y1="161.29" x2="93.641" y2="167.992" stroke="#141414" stroke-width="0.4"/>
<line x1="93.641" y1="167.992" x2="101.29" y2="174.686" stroke="#141414" stroke-width="0.4"/>
<line x1="101.29" y1="174.686" x2="107.539" y2="170.853" stroke="#141414" stroke-width="0.4"/>
<line x1="124.25" y1="132.368" x2="127.395" y2="126.529" stroke="#141414" stroke-width="0.4"/>
<line x1="127.395" y1="126.529" x2="121.106" y2="120.24" stroke="#141414" stroke-width="0.4"/>
<line x1="121.106" y1="120.24" x2="115.266" y2="123.384" stroke="#141414" stroke-width="0.4"/>
<line x1="134.923" y1="157.434" x2="138.247" y2="164.831" stroke="#141414" stroke-width="0.4"/>
<line x1="138.247" y1="164.831" x2="127.155" y2="180.396" stroke="#141414" stroke-width="0.4"/>
<line x1="127.155" y1="180.396" x2="119.077" y2="179.668" stroke="#141414" stroke-width="0.4"/>
<circle cx="108.528" cy="125.63" r="1.04" fill="#99d9fa" stroke="#464646" stroke-width="0.2"/>
<text x="108.528" y="125.99" font-size="1.02" text-anchor="middle" fill="#141414">122</text>
<circle cx="89.003" cy="158.631" r="1.04" fill="#ffe082" stroke="#464646" stroke-width="0.2"/>
<text x="89.003" y="158.99" font-size="1.02" text-anchor="middle" fill="#141414">123</text>
<circle cx="78.929" cy="147.864" r="1.04" fill="#ffe082" stroke="#464646" stroke-width="0.2"/>
<text x="78.929" y="148.22" font-size="1.02" text-anchor="middle" fill="#141414">124</text>
<circle cx="122.004" cy="139.107" r="1.04" fill="#ffe082" stroke="#464646" stroke-width="0.2"/>
<text x="122.004" y="139.46" font-size="1.02" text-anchor="middle" fill="#141414">125</text>
<circle cx="99.771" cy="168.705" r="1.04" fill="#ffe082" stroke="#464646" stroke-width="0.2"/>
<text x="99.771" y="169.06" font-size="1.02" text-anchor="middle" fill="#141414">126</text>
<circle cx="122.004" cy="125.63" r="1.04" fill="#ffe082" stroke="#464646" stroke-width="0.2"/>
<text x="122.004" y="125.99" font-size="1.02" text-anchor="middle" fill="#141414">127</text>
<circle cx="129.851" cy="170.582" r="1.04" fill="#ffe082" stroke="#464646" stroke-width="0.2"/>
<text x="129.851" y="170.94" font-size="1.02" text-anchor="middle" fill="#141414">128</text>
<circle cx="89.803" cy="141.162" r="3.46" fill="#eaf1fe" stroke="#2e78e6" stroke-width="0.3"/>
<text x="89.803" y="142.52" font-size="3.92" text-anchor="middle" fill="#14306e" font-weight="bold">14</text>
<text x="205.0" y="295.0" font-size="3.2" text-anchor="end" fill="#737373" font-family="sans-serif">3 / 4</text>
<g pointer-events="none"><text x="105.0" y="83.2" text-anchor="middle" font-family="sans-serif" font-size="12.4" fill="#9aa0a6" fill-opacity="0.3" transform="rotate(-28 105.0 83.2)">papercraft.kr</text><text x="105.0" y="148.5" text-anchor="middle" font-family="sans-serif" font-size="12.4" fill="#9aa0a6" fill-opacity="0.3" transform="rotate(-28 105.0 148.5)">papercraft.kr</text><text x="105.0" y="213.8" text-anchor="middle" font-family="sans-serif" font-size="12.4" fill="#9aa0a6" fill-opacity="0.3" transform="rotate(-28 105.0 213.8)">papercraft.kr</text></g></svg>
