<svg xmlns="http://www.w3.org/2000/svg" xmlns:xlink="http://www.w3.org/1999/xlink" width="210.00mm" height="297.00mm" viewBox="0 0 210.00 297.00">
<rect x="0" y="0" width="210.00" height="297.00" fill="#ffffff" stroke="#cccccc" stroke-width="0.2"/>
<polygon points="118.886,229.584 121.11,236.584 131.488,236.584 133.712,229.584" fill="rgb(216,216,216)"/>
<polygon points="118.886,229.584 102.578,236.584 26.474,236.584 10.166,229.584" fill="rgb(216,216,216)"/>
<polygon points="118.886,118.886 102.578,111.886 26.474,111.886 10.166,118.886" fill="rgb(216,216,216)"/>
<polygon points="133.712,229.584 140.712,212.979 140.712,135.491 133.712,118.886" fill="rgb(216,216,216)"/>
<polygon points="133.712,118.886 140.712,102.578 140.712,26.474 133.712,10.166" fill="rgb(216,216,216)"/>
<polygon points="10.166,229.584 3.166,212.979 3.166,135.491 10.166,118.886" fill="rgb(216,216,216)"/>
<polygon points="118.886,10.166 121.11,3.166 131.488,3.166 133.712,10.166" fill="rgb(216,216,216)"/>
<line x1="118.886" y1="229.584" x2="118.886" y2="118.886" stroke="#8c8c8c" stroke-width="0.3" stroke-dasharray="1.2,0.8"/>
<line x1="118.886" y1="118.886" x2="133.712" y2="118.886" stroke="#8c8c8c" stroke-width="0.3" stroke-dasharray="1.2,0.8"/>
<line x1="133.712" y1="229.584" x2="118.886" y2="229.584" stroke="#8c8c8c" stroke-width="0.3" stroke-dasharray="1.2,0.8"/>
<line x1="10.166" y1="229.584" x2="118.886" y2="229.584" stroke="#8c8c8c" stroke-width="0.3" stroke-dasharray="1.2,0.8"/>
<line x1="10.166" y1="118.886" x2="118.886" y2="118.886" stroke="#8c8c8c" stroke-width="0.3" stroke-dasharray="1.2,0.8"/>
<line x1="133.712" y1="118.886" x2="133.712" y2="229.584" stroke="#8c8c8c" stroke-width="0.3" stroke-dasharray="1.2,0.8"/>
<line x1="133.712" y1="10.166" x2="133.712" y2="118.886" stroke="#8c8c8c" stroke-width="0.3" stroke-dasharray="1.2,0.8"/>
<line x1="10.166" y1="118.886" x2="10.166" y2="229.584" stroke="#8c8c8c" stroke-width="0.3" stroke-dasharray="1.2,0.8"/>
<line x1="133.712" y1="10.166" x2="118.886" y2="10.166" stroke="#8c8c8c" stroke-width="0.3" stroke-dasharray="1.2,0.8"/>
<line x1="118.886" y1="118.886" x2="118.886" y2="10.166" stroke="#141414" stroke-width="0.4"/>
<line x1="118.886" y1="229.584" x2="121.11" y2="236.584" stroke="#141414" stroke-width="0.4"/>
<line x1="121.11" y1="236.584" x2="131.488" y2="236.584" stroke="#141414" stroke-width="0.4"/>
<line x1="131.488" y1="236.584" x2="133.712" y2="229.584" stroke="#141414" stroke-width="0.4"/>
<line x1="118.886" y1="229.584" x2="102.578" y2="236.584" stroke="#141414" stroke-width="0.4"/>
<line x1="102.578" y1="236.584" x2="26.474" y2="236.584" stroke="#141414" stroke-width="0.4"/>
<line x1="26.474" y1="236.584" x2="10.166" y2="229.584" stroke="#141414" stroke-width="0.4"/>
<line x1="118.886" y1="118.886" x2="102.578" y2="111.886" stroke="#141414" stroke-width="0.4"/>
<line x1="102.578" y1="111.886" x2="26.474" y2="111.886" stroke="#141414" stroke-width="0.4"/>
<line x1="26.474" y1="111.886" x2="10.166" y2="118.886" stroke="#141414" stroke-width="0.4"/>
<line x1="133.712" y1="229.584" x2="140.712" y2="212.979" stroke="#141414" stroke-width="0.4"/>
<line x1="140.712" y1="212.979" x2="140.712" y2="135.491" stroke="#141414" stroke-width="0.4"/>
<line x1="140.712" y1="135.491" x2="133.712" y2="118.886" stroke="#141414" stroke-width="0.4"/>
<line x1="133.712" y1="118.886" x2="140.712" y2="102.578" stroke="#141414" stroke-width="0.4"/>
<line x1="140.712" y1="102.578" x2="140.712" y2="26.474" stroke="#141414" stroke-width="0.4"/>
<line x1="140.712" y1="26.474" x2="133.712" y2="10.166" stroke="#141414" stroke-width="0.4"/>
<line x1="10.166" y1="229.584" x2="3.166" y2="212.979" stroke="#141414" stroke-width="0.4"/>
<line x1="3.166" y1="212.979" x2="3.166" y2="135.491" stroke="#141414" stroke-width="0.4"/>
<line x1="3.166" y1="135.491" x2="10.166" y2="118.886" stroke="#141414" stroke-width="0.4"/>
<line x1="118.886" y1="10.166" x2="121.11" y2="3.166" stroke="#141414" stroke-width="0.4"/>
<line x1="121.11" y1="3.166" x2="131.488" y2="3.166" stroke="#141414" stroke-width="0.4"/>
<line x1="131.488" y1="3.166" x2="133.712" y2="10.166" stroke="#141414" stroke-width="0.4"/>
<circle cx="126.299" cy="233.084" r="3.08" fill="#ffe082" stroke="#464646" stroke-width="0.2"/>
<text x="126.299" y="234.55" font-size="4.18" text-anchor="middle" fill="#141414">25</text>
<circle cx="64.526" cy="233.084" r="3.08" fill="#ffe082" stroke="#464646" stroke-width="0.2"/>
<text x="64.526" y="234.55" font-size="4.18" text-anchor="middle" fill="#141414">26</text>
<circle cx="64.526" cy="115.386" r="3.08" fill="#ffe082" stroke="#464646" stroke-width="0.2"/>
<text x="64.526" y="116.85" font-size="4.18" text-anchor="middle" fill="#141414">27</text>
<circle cx="137.212" cy="174.235" r="3.08" fill="#ffe082" stroke="#464646" stroke-width="0.2"/>
<text x="137.212" y="175.70" font-size="4.18" text-anchor="middle" fill="#141414">28</text>
<circle cx="137.212" cy="64.526" r="3.08" fill="#ffe082" stroke="#464646" stroke-width="0.2"/>
<text x="137.212" y="65.99" font-size="4.18" text-anchor="middle" fill="#141414">29</text>
<circle cx="6.666" cy="174.235" r="3.08" fill="#ffe082" stroke="#464646" stroke-width="0.2"/>
<text x="6.666" y="175.70" font-size="4.18" text-anchor="middle" fill="#141414">30</text>
<circle cx="126.299" cy="6.666" r="3.08" fill="#ffe082" stroke="#464646" stroke-width="0.2"/>
<text x="126.299" y="8.13" font-size="4.18" text-anchor="middle" fill="#141414">31</text>
<circle cx="73.773" cy="244.518" r="4.6" fill="#eaf1fe" stroke="#2e78e6" stroke-width="0.3"/>
<text x="73.773" y="246.318" font-size="5.2" text-anchor="middle" fill="#14306e" font-weight="bold">7</text>
<g pointer-events="none"><text x="105.0" y="89.1" text-anchor="middle" font-family="sans-serif" font-size="21.2" fill="#9aa0a6" fill-opacity="0.33" transform="rotate(-28 105.0 89.1)">papercraft.kr 미리보기</text><text x="105.0" y="163.4" text-anchor="middle" font-family="sans-serif" font-size="21.2" fill="#9aa0a6" fill-opacity="0.33" transform="rotate(-28 105.0 163.4)">papercraft.kr 미리보기</text><text x="105.0" y="237.6" text-anchor="middle" font-family="sans-serif" font-size="21.2" fill="#9aa0a6" fill-opacity="0.33" transform="rotate(-28 105.0 237.6)">papercraft.kr 미리보기</text></g></svg>
