<svg xmlns="http://www.w3.org/2000/svg" xmlns:xlink="http://www.w3.org/1999/xlink" width="210.00mm" height="297.00mm" viewBox="0 0 210.00 297.00">
<rect x="0" y="0" width="210.00" height="297.00" fill="#ffffff" stroke="#cccccc" stroke-width="0.2"/>
<polygon points="47.65,75.332 39.763,70.534 13.055,79.213 9.494,87.73" fill="rgb(216,216,216)"/>
<polygon points="47.65,75.332 42.908,67.274 51.847,39.762 60.42,36.03" fill="rgb(216,216,216)"/>
<polygon points="9.494,87.73 4.753,95.788 13.692,123.299 22.265,127.032" fill="rgb(216,216,216)"/>
<polygon points="60.42,114.634 66.335,127.584 79.708,137.3 93.852,138.924" fill="rgb(216,216,216)"/>
<polygon points="22.265,127.032 17.523,135.09 26.462,162.601 35.035,166.334" fill="rgb(216,216,216)"/>
<polygon points="93.852,138.924 100.051,145.924 128.978,145.924 135.177,138.924" fill="rgb(216,216,216)"/>
<polygon points="35.035,166.334 30.293,174.392 39.232,201.904 47.805,205.636" fill="rgb(216,216,216)"/>
<polygon points="135.177,138.924 144.306,140.944 167.709,123.941 168.609,114.634" fill="rgb(216,216,216)"/>
<polygon points="47.805,205.636 43.063,213.694 52.002,241.206 60.575,244.938" fill="rgb(216,216,216)"/>
<polygon points="168.609,114.634 177.182,110.902 186.121,83.391 181.379,75.332" fill="rgb(216,216,216)"/>
<polygon points="60.575,244.938 55.833,252.996 64.772,280.508 73.345,284.24" fill="rgb(216,216,216)"/>
<polygon points="111.5,271.843 107.94,280.36 81.231,289.038 73.345,284.24" fill="rgb(216,216,216)"/>
<polygon points="181.379,75.332 186.121,67.274 177.182,39.762 168.609,36.03" fill="rgb(216,216,216)"/>
<polygon points="168.609,36.03 167.709,26.723 144.306,9.72 135.177,11.74" fill="rgb(216,216,216)"/>
<polygon points="135.177,11.74 128.978,4.74 100.051,4.74 93.852,11.74" fill="rgb(216,216,216)"/>
<polygon points="93.852,11.74 84.723,9.72 61.32,26.723 60.42,36.03" fill="rgb(216,216,216)"/>
<line x1="60.42" y1="114.634" x2="47.65" y2="75.332" stroke="#8c8c8c" stroke-width="0.3" stroke-dasharray="1.2,0.8"/>
<line x1="60.42" y1="114.634" x2="22.265" y2="127.032" stroke="#8c8c8c" stroke-width="0.3" stroke-dasharray="1.2,0.8"/>
<line x1="73.19" y1="153.936" x2="35.035" y2="166.334" stroke="#8c8c8c" stroke-width="0.3" stroke-dasharray="1.2,0.8"/>
<line x1="85.96" y1="193.238" x2="47.805" y2="205.636" stroke="#8c8c8c" stroke-width="0.3" stroke-dasharray="1.2,0.8"/>
<line x1="98.73" y1="232.541" x2="60.575" y2="244.938" stroke="#8c8c8c" stroke-width="0.3" stroke-dasharray="1.2,0.8"/>
<line x1="9.494" y1="87.73" x2="47.65" y2="75.332" stroke="#8c8c8c" stroke-width="0.3" stroke-dasharray="1.2,0.8"/>
<line x1="60.42" y1="36.03" x2="47.65" y2="75.332" stroke="#8c8c8c" stroke-width="0.3" stroke-dasharray="1.2,0.8"/>
<line x1="22.265" y1="127.032" x2="9.494" y2="87.73" stroke="#8c8c8c" stroke-width="0.3" stroke-dasharray="1.2,0.8"/>
<line x1="93.852" y1="138.924" x2="60.42" y2="114.634" stroke="#8c8c8c" stroke-width="0.3" stroke-dasharray="1.2,0.8"/>
<line x1="35.035" y1="166.334" x2="22.265" y2="127.032" stroke="#8c8c8c" stroke-width="0.3" stroke-dasharray="1.2,0.8"/>
<line x1="135.177" y1="138.924" x2="93.852" y2="138.924" stroke="#8c8c8c" stroke-width="0.3" stroke-dasharray="1.2,0.8"/>
<line x1="47.805" y1="205.636" x2="35.035" y2="166.334" stroke="#8c8c8c" stroke-width="0.3" stroke-dasharray="1.2,0.8"/>
<line x1="168.609" y1="114.634" x2="135.177" y2="138.924" stroke="#8c8c8c" stroke-width="0.3" stroke-dasharray="1.2,0.8"/>
<line x1="60.575" y1="244.938" x2="47.805" y2="205.636" stroke="#8c8c8c" stroke-width="0.3" stroke-dasharray="1.2,0.8"/>
<line x1="181.379" y1="75.332" x2="168.609" y2="114.634" stroke="#8c8c8c" stroke-width="0.3" stroke-dasharray="1.2,0.8"/>
<line x1="73.345" y1="284.24" x2="60.575" y2="244.938" stroke="#8c8c8c" stroke-width="0.3" stroke-dasharray="1.2,0.8"/>
<line x1="73.345" y1="284.24" x2="111.5" y2="271.843" stroke="#8c8c8c" stroke-width="0.3" stroke-dasharray="1.2,0.8"/>
<line x1="168.609" y1="36.03" x2="181.379" y2="75.332" stroke="#8c8c8c" stroke-width="0.3" stroke-dasharray="1.2,0.8"/>
<line x1="135.177" y1="11.74" x2="168.609" y2="36.03" stroke="#8c8c8c" stroke-width="0.3" stroke-dasharray="1.2,0.8"/>
<line x1="93.852" y1="11.74" x2="135.177" y2="11.74" stroke="#8c8c8c" stroke-width="0.3" stroke-dasharray="1.2,0.8"/>
<line x1="60.42" y1="36.03" x2="93.852" y2="11.74" stroke="#8c8c8c" stroke-width="0.3" stroke-dasharray="1.2,0.8"/>
<line x1="60.42" y1="114.634" x2="73.19" y2="153.936" stroke="#141414" stroke-width="0.4"/>
<line x1="73.19" y1="153.936" x2="85.96" y2="193.238" stroke="#141414" stroke-width="0.4"/>
<line x1="85.96" y1="193.238" x2="98.73" y2="232.541" stroke="#141414" stroke-width="0.4"/>
<line x1="98.73" y1="232.541" x2="111.5" y2="271.843" stroke="#141414" stroke-width="0.4"/>
<line x1="47.65" y1="75.332" x2="39.763" y2="70.534" stroke="#141414" stroke-width="0.4"/>
<line x1="39.763" y1="70.534" x2="13.055" y2="79.213" stroke="#141414" stroke-width="0.4"/>
<line x1="13.055" y1="79.213" x2="9.494" y2="87.73" stroke="#141414" stroke-width="0.4"/>
<line x1="47.65" y1="75.332" x2="42.908" y2="67.274" stroke="#141414" stroke-width="0.4"/>
<line x1="42.908" y1="67.274" x2="51.847" y2="39.762" stroke="#141414" stroke-width="0.4"/>
<line x1="51.847" y1="39.762" x2="60.42" y2="36.03" stroke="#141414" stroke-width="0.4"/>
<line x1="9.494" y1="87.73" x2="4.753" y2="95.788" stroke="#141414" stroke-width="0.4"/>
<line x1="4.753" y1="95.788" x2="13.692" y2="123.299" stroke="#141414" stroke-width="0.4"/>
<line x1="13.692" y1="123.299" x2="22.265" y2="127.032" stroke="#141414" stroke-width="0.4"/>
<line x1="60.42" y1="114.634" x2="66.335" y2="127.584" stroke="#141414" stroke-width="0.4"/>
<line x1="66.335" y1="127.584" x2="79.708" y2="137.3" stroke="#141414" stroke-width="0.4"/>
<line x1="79.708" y1="137.3" x2="93.852" y2="138.924" stroke="#141414" stroke-width="0.4"/>
<line x1="22.265" y1="127.032" x2="17.523" y2="135.09" stroke="#141414" stroke-width="0.4"/>
<line x1="17.523" y1="135.09" x2="26.462" y2="162.601" stroke="#141414" stroke-width="0.4"/>
<line x1="26.462" y1="162.601" x2="35.035" y2="166.334" stroke="#141414" stroke-width="0.4"/>
<line x1="93.852" y1="138.924" x2="100.051" y2="145.924" stroke="#141414" stroke-width="0.4"/>
<line x1="100.051" y1="145.924" x2="128.978" y2="145.924" stroke="#141414" stroke-width="0.4"/>
<line x1="128.978" y1="145.924" x2="135.177" y2="138.924" stroke="#141414" stroke-width="0.4"/>
<line x1="35.035" y1="166.334" x2="30.293" y2="174.392" stroke="#141414" stroke-width="0.4"/>
<line x1="30.293" y1="174.392" x2="39.232" y2="201.904" stroke="#141414" stroke-width="0.4"/>
<line x1="39.232" y1="201.904" x2="47.805" y2="205.636" stroke="#141414" stroke-width="0.4"/>
<line x1="135.177" y1="138.924" x2="144.306" y2="140.944" stroke="#141414" stroke-width="0.4"/>
<line x1="144.306" y1="140.944" x2="167.709" y2="123.941" stroke="#141414" stroke-width="0.4"/>
<line x1="167.709" y1="123.941" x2="168.609" y2="114.634" stroke="#141414" stroke-width="0.4"/>
<line x1="47.805" y1="205.636" x2="43.063" y2="213.694" stroke="#141414" stroke-width="0.4"/>
<line x1="43.063" y1="213.694" x2="52.002" y2="241.206" stroke="#141414" stroke-width="0.4"/>
<line x1="52.002" y1="241.206" x2="60.575" y2="244.938" stroke="#141414" stroke-width="0.4"/>
<line x1="168.609" y1="114.634" x2="177.182" y2="110.902" stroke="#141414" stroke-width="0.4"/>
<line x1="177.182" y1="110.902" x2="186.121" y2="83.391" stroke="#141414" stroke-width="0.4"/>
<line x1="186.121" y1="83.391" x2="181.379" y2="75.332" stroke="#141414" stroke-width="0.4"/>
<line x1="60.575" y1="244.938" x2="55.833" y2="252.996" stroke="#141414" stroke-width="0.4"/>
<line x1="55.833" y1="252.996" x2="64.772" y2="280.508" stroke="#141414" stroke-width="0.4"/>
<line x1="64.772" y1="280.508" x2="73.345" y2="284.24" stroke="#141414" stroke-width="0.4"/>
<line x1="111.5" y1="271.843" x2="107.94" y2="280.36" stroke="#141414" stroke-width="0.4"/>
<line x1="107.94" y1="280.36" x2="81.231" y2="289.038" stroke="#141414" stroke-width="0.4"/>
<line x1="81.231" y1="289.038" x2="73.345" y2="284.24" stroke="#141414" stroke-width="0.4"/>
<line x1="181.379" y1="75.332" x2="186.121" y2="67.274" stroke="#141414" stroke-width="0.4"/>
<line x1="186.121" y1="67.274" x2="177.182" y2="39.762" stroke="#141414" stroke-width="0.4"/>
<line x1="177.182" y1="39.762" x2="168.609" y2="36.03" stroke="#141414" stroke-width="0.4"/>
<line x1="168.609" y1="36.03" x2="167.709" y2="26.723" stroke="#141414" stroke-width="0.4"/>
<line x1="167.709" y1="26.723" x2="144.306" y2="9.72" stroke="#141414" stroke-width="0.4"/>
<line x1="144.306" y1="9.72" x2="135.177" y2="11.74" stroke="#141414" stroke-width="0.4"/>
<line x1="135.177" y1="11.74" x2="128.978" y2="4.74" stroke="#141414" stroke-width="0.4"/>
<line x1="128.978" y1="4.74" x2="100.051" y2="4.74" stroke="#141414" stroke-width="0.4"/>
<line x1="100.051" y1="4.74" x2="93.852" y2="11.74" stroke="#141414" stroke-width="0.4"/>
<line x1="93.852" y1="11.74" x2="84.723" y2="9.72" stroke="#141414" stroke-width="0.4"/>
<line x1="84.723" y1="9.72" x2="61.32" y2="26.723" stroke="#141414" stroke-width="0.4"/>
<line x1="61.32" y1="26.723" x2="60.42" y2="36.03" stroke="#141414" stroke-width="0.4"/>
<circle cx="27.491" cy="78.202" r="3.08" fill="#ffe082" stroke="#464646" stroke-width="0.2"/>
<text x="27.491" y="79.66" font-size="4.18" text-anchor="middle" fill="#141414">1</text>
<circle cx="50.706" cy="54.599" r="3.08" fill="#ffe082" stroke="#464646" stroke-width="0.2"/>
<text x="50.706" y="56.06" font-size="4.18" text-anchor="middle" fill="#141414">2</text>
<circle cx="12.551" cy="108.462" r="3.08" fill="#ffe082" stroke="#464646" stroke-width="0.2"/>
<text x="12.551" y="109.92" font-size="4.18" text-anchor="middle" fill="#141414">3</text>
<circle cx="75.079" cy="129.611" r="3.08" fill="#ffe082" stroke="#464646" stroke-width="0.2"/>
<text x="75.079" y="131.07" font-size="4.18" text-anchor="middle" fill="#141414">4</text>
<circle cx="25.321" cy="147.764" r="3.08" fill="#ffe082" stroke="#464646" stroke-width="0.2"/>
<text x="25.321" y="149.23" font-size="4.18" text-anchor="middle" fill="#141414">5</text>
<circle cx="114.515" cy="142.424" r="3.08" fill="#ffe082" stroke="#464646" stroke-width="0.2"/>
<text x="114.515" y="143.89" font-size="4.18" text-anchor="middle" fill="#141414">6</text>
<circle cx="38.091" cy="187.066" r="3.08" fill="#ffe082" stroke="#464646" stroke-width="0.2"/>
<text x="38.091" y="188.53" font-size="4.18" text-anchor="middle" fill="#141414">7</text>
<circle cx="153.95" cy="129.611" r="3.08" fill="#ffe082" stroke="#464646" stroke-width="0.2"/>
<text x="153.95" y="131.07" font-size="4.18" text-anchor="middle" fill="#141414">8</text>
<circle cx="50.861" cy="226.368" r="3.08" fill="#ffe082" stroke="#464646" stroke-width="0.2"/>
<text x="50.861" y="227.83" font-size="4.18" text-anchor="middle" fill="#141414">9</text>
<circle cx="178.323" cy="96.065" r="3.08" fill="#ffe082" stroke="#464646" stroke-width="0.2"/>
<text x="178.323" y="97.53" font-size="4.18" text-anchor="middle" fill="#141414">10</text>
<circle cx="63.631" cy="265.671" r="3.08" fill="#ffe082" stroke="#464646" stroke-width="0.2"/>
<text x="63.631" y="267.13" font-size="4.18" text-anchor="middle" fill="#141414">11</text>
<circle cx="93.504" cy="281.37" r="3.08" fill="#ffe082" stroke="#464646" stroke-width="0.2"/>
<text x="93.504" y="282.83" font-size="4.18" text-anchor="middle" fill="#141414">12</text>
<circle cx="178.323" cy="54.599" r="3.08" fill="#ffe082" stroke="#464646" stroke-width="0.2"/>
<text x="178.323" y="56.06" font-size="4.18" text-anchor="middle" fill="#141414">13</text>
<circle cx="153.95" cy="21.053" r="3.08" fill="#ffe082" stroke="#464646" stroke-width="0.2"/>
<text x="153.95" y="22.52" font-size="4.18" text-anchor="middle" fill="#141414">14</text>
<circle cx="114.515" cy="8.24" r="3.08" fill="#ffe082" stroke="#464646" stroke-width="0.2"/>
<text x="114.515" y="9.70" font-size="4.18" text-anchor="middle" fill="#141414">15</text>
<circle cx="75.079" cy="21.053" r="3.08" fill="#ffe082" stroke="#464646" stroke-width="0.2"/>
<text x="75.079" y="22.52" font-size="4.18" text-anchor="middle" fill="#141414">16</text>
<circle cx="95.684" cy="147.149" r="4.6" fill="#eaf1fe" stroke="#2e78e6" stroke-width="0.3"/>
<text x="95.684" y="148.949" font-size="5.2" text-anchor="middle" fill="#14306e" font-weight="bold">1</text>
<g pointer-events="none"><text x="105.0" y="89.1" text-anchor="middle" font-family="sans-serif" font-size="21.2" fill="#9aa0a6" fill-opacity="0.33" transform="rotate(-28 105.0 89.1)">papercraft.kr 미리보기</text><text x="105.0" y="163.4" text-anchor="middle" font-family="sans-serif" font-size="21.2" fill="#9aa0a6" fill-opacity="0.33" transform="rotate(-28 105.0 163.4)">papercraft.kr 미리보기</text><text x="105.0" y="237.6" text-anchor="middle" font-family="sans-serif" font-size="21.2" fill="#9aa0a6" fill-opacity="0.33" transform="rotate(-28 105.0 237.6)">papercraft.kr 미리보기</text></g></svg>
