<svg xmlns="http://www.w3.org/2000/svg" xmlns:xlink="http://www.w3.org/1999/xlink" width="210.00mm" height="297.00mm" viewBox="0 0 210.00 297.00">
<rect x="0" y="0" width="210.00" height="297.00" fill="#ffffff" stroke="#cccccc" stroke-width="0.2"/>
<polygon points="5.0,84.896 8.211,77.896 23.197,77.896 26.408,84.896" fill="rgb(216,216,216)"/>
<polygon points="112.041,84.896 103.049,79.667 99.624,79.667 90.632,84.896" fill="rgb(216,216,216)"/>
<polygon points="90.632,84.896 87.421,77.896 72.436,77.896 69.224,84.896" fill="rgb(216,216,216)"/>
<polygon points="69.224,84.896 66.013,77.896 51.028,77.896 47.816,84.896" fill="rgb(216,216,216)"/>
<polygon points="47.816,84.896 44.605,77.896 29.619,77.896 26.408,84.896" fill="rgb(216,216,216)"/>
<polygon points="5.0,84.896 8.211,77.896 23.197,77.896 26.408,84.896" fill="#99d9fa"/>
<line x1="112.041" y1="84.896" x2="133.449" y2="84.896" stroke="#8c8c8c" stroke-width="0.3" stroke-dasharray="1.2,0.8"/>
<line x1="112.041" y1="95.821" x2="112.041" y2="84.896" stroke="#8c8c8c" stroke-width="0.3" stroke-dasharray="1.2,0.8"/>
<line x1="90.632" y1="95.821" x2="90.632" y2="84.896" stroke="#8c8c8c" stroke-width="0.3" stroke-dasharray="1.2,0.8"/>
<line x1="69.224" y1="95.821" x2="69.224" y2="84.896" stroke="#8c8c8c" stroke-width="0.3" stroke-dasharray="1.2,0.8"/>
<line x1="47.816" y1="95.821" x2="47.816" y2="84.896" stroke="#8c8c8c" stroke-width="0.3" stroke-dasharray="1.2,0.8"/>
<line x1="26.408" y1="95.821" x2="26.408" y2="84.896" stroke="#8c8c8c" stroke-width="0.3" stroke-dasharray="1.2,0.8"/>
<line x1="26.408" y1="84.896" x2="5.0" y2="84.896" stroke="#8c8c8c" stroke-width="0.3" stroke-dasharray="1.2,0.8"/>
<line x1="90.632" y1="84.896" x2="112.041" y2="84.896" stroke="#8c8c8c" stroke-width="0.3" stroke-dasharray="1.2,0.8"/>
<line x1="69.224" y1="84.896" x2="90.632" y2="84.896" stroke="#8c8c8c" stroke-width="0.3" stroke-dasharray="1.2,0.8"/>
<line x1="47.816" y1="84.896" x2="69.224" y2="84.896" stroke="#8c8c8c" stroke-width="0.3" stroke-dasharray="1.2,0.8"/>
<line x1="26.408" y1="84.896" x2="47.816" y2="84.896" stroke="#8c8c8c" stroke-width="0.3" stroke-dasharray="1.2,0.8"/>
<line x1="5.0" y1="95.821" x2="5.0" y2="84.896" stroke="#141414" stroke-width="0.4"/>
<line x1="26.408" y1="95.821" x2="5.0" y2="95.821" stroke="#141414" stroke-width="0.4"/>
<line x1="112.041" y1="5.0" x2="133.449" y2="5.0" stroke="#141414" stroke-width="0.4"/>
<line x1="93.501" y1="15.704" x2="112.041" y2="5.0" stroke="#141414" stroke-width="0.4"/>
<line x1="133.449" y1="5.0" x2="151.989" y2="15.704" stroke="#141414" stroke-width="0.4"/>
<line x1="151.989" y1="15.704" x2="162.693" y2="34.244" stroke="#141414" stroke-width="0.4"/>
<line x1="162.693" y1="34.244" x2="162.693" y2="55.652" stroke="#141414" stroke-width="0.4"/>
<line x1="162.693" y1="55.652" x2="151.989" y2="74.192" stroke="#141414" stroke-width="0.4"/>
<line x1="151.989" y1="74.192" x2="133.449" y2="84.896" stroke="#141414" stroke-width="0.4"/>
<line x1="133.449" y1="84.896" x2="133.449" y2="95.821" stroke="#141414" stroke-width="0.4"/>
<line x1="133.449" y1="95.821" x2="112.041" y2="95.821" stroke="#141414" stroke-width="0.4"/>
<line x1="112.041" y1="95.821" x2="90.632" y2="95.821" stroke="#141414" stroke-width="0.4"/>
<line x1="112.041" y1="84.896" x2="93.501" y2="74.192" stroke="#141414" stroke-width="0.4"/>
<line x1="90.632" y1="95.821" x2="69.224" y2="95.821" stroke="#141414" stroke-width="0.4"/>
<line x1="93.501" y1="74.192" x2="82.797" y2="55.652" stroke="#141414" stroke-width="0.4"/>
<line x1="69.224" y1="95.821" x2="47.816" y2="95.821" stroke="#141414" stroke-width="0.4"/>
<line x1="82.797" y1="55.652" x2="82.797" y2="34.244" stroke="#141414" stroke-width="0.4"/>
<line x1="47.816" y1="95.821" x2="26.408" y2="95.821" stroke="#141414" stroke-width="0.4"/>
<line x1="82.797" y1="34.244" x2="93.501" y2="15.704" stroke="#141414" stroke-width="0.4"/>
<line x1="5.0" y1="84.896" x2="8.211" y2="77.896" stroke="#141414" stroke-width="0.4"/>
<line x1="8.211" y1="77.896" x2="23.197" y2="77.896" stroke="#141414" stroke-width="0.4"/>
<line x1="23.197" y1="77.896" x2="26.408" y2="84.896" stroke="#141414" stroke-width="0.4"/>
<line x1="112.041" y1="84.896" x2="103.049" y2="79.667" stroke="#141414" stroke-width="0.4"/>
<line x1="103.049" y1="79.667" x2="99.624" y2="79.667" stroke="#141414" stroke-width="0.4"/>
<line x1="99.624" y1="79.667" x2="90.632" y2="84.896" stroke="#141414" stroke-width="0.4"/>
<line x1="90.632" y1="84.896" x2="87.421" y2="77.896" stroke="#141414" stroke-width="0.4"/>
<line x1="87.421" y1="77.896" x2="72.436" y2="77.896" stroke="#141414" stroke-width="0.4"/>
<line x1="72.436" y1="77.896" x2="69.224" y2="84.896" stroke="#141414" stroke-width="0.4"/>
<line x1="69.224" y1="84.896" x2="66.013" y2="77.896" stroke="#141414" stroke-width="0.4"/>
<line x1="66.013" y1="77.896" x2="51.028" y2="77.896" stroke="#141414" stroke-width="0.4"/>
<line x1="51.028" y1="77.896" x2="47.816" y2="84.896" stroke="#141414" stroke-width="0.4"/>
<line x1="47.816" y1="84.896" x2="44.605" y2="77.896" stroke="#141414" stroke-width="0.4"/>
<line x1="44.605" y1="77.896" x2="29.619" y2="77.896" stroke="#141414" stroke-width="0.4"/>
<line x1="29.619" y1="77.896" x2="26.408" y2="84.896" stroke="#141414" stroke-width="0.4"/>
<circle cx="15.704" cy="81.396" r="1.04" fill="#99d9fa" stroke="#464646" stroke-width="0.2"/>
<text x="15.704" y="81.75" font-size="1.02" text-anchor="middle" fill="#141414">76</text>
<circle cx="101.337" cy="82.282" r="1.04" fill="#ffe082" stroke="#464646" stroke-width="0.2"/>
<text x="101.337" y="82.64" font-size="1.02" text-anchor="middle" fill="#141414">77</text>
<circle cx="79.928" cy="81.396" r="1.04" fill="#ffe082" stroke="#464646" stroke-width="0.2"/>
<text x="79.928" y="81.75" font-size="1.02" text-anchor="middle" fill="#141414">78</text>
<circle cx="58.52" cy="81.396" r="1.04" fill="#ffe082" stroke="#464646" stroke-width="0.2"/>
<text x="58.52" y="81.75" font-size="1.02" text-anchor="middle" fill="#141414">79</text>
<circle cx="37.112" cy="81.396" r="1.04" fill="#ffe082" stroke="#464646" stroke-width="0.2"/>
<text x="37.112" y="81.75" font-size="1.02" text-anchor="middle" fill="#141414">80</text>
<circle cx="99.681" cy="31.632" r="4.60" fill="#eaf1fe" stroke="#2e78e6" stroke-width="0.3"/>
<text x="99.681" y="33.43" font-size="5.20" text-anchor="middle" fill="#14306e" font-weight="bold">7</text>
<polygon points="38.39,124.486 37.289,115.686 55.255,97.721 64.055,98.821" fill="rgb(216,216,216)"/>
<polygon points="30.665,132.21 29.565,141.01 47.53,158.975 56.33,157.875" fill="rgb(216,216,216)"/>
<polygon points="30.665,132.21 21.866,133.31 3.9,115.345 5.0,106.545" fill="rgb(216,216,216)"/>
<polygon points="64.055,150.151 72.854,151.251 90.82,133.285 89.72,124.486" fill="rgb(216,216,216)"/>
<polygon points="56.33,157.875 55.23,166.675 73.195,184.64 81.995,183.54" fill="rgb(216,216,216)"/>
<polygon points="89.72,124.486 90.82,115.686 72.854,97.721 64.055,98.821" fill="rgb(216,216,216)"/>
<polygon points="115.384,201.48 118.088,206.502 112.681,211.909 107.66,209.205" fill="rgb(216,216,216)"/>
<polygon points="38.39,124.486 37.289,115.686 55.255,97.721 64.055,98.821" fill="#99d9fa"/>
<line x1="30.665" y1="132.21" x2="38.39" y2="124.486" stroke="#8c8c8c" stroke-width="0.3" stroke-dasharray="1.2,0.8"/>
<line x1="64.055" y1="150.151" x2="38.39" y2="124.486" stroke="#8c8c8c" stroke-width="0.3" stroke-dasharray="1.2,0.8"/>
<line x1="64.055" y1="150.151" x2="56.33" y2="157.875" stroke="#8c8c8c" stroke-width="0.3" stroke-dasharray="1.2,0.8"/>
<line x1="89.72" y1="175.815" x2="81.995" y2="183.54" stroke="#8c8c8c" stroke-width="0.3" stroke-dasharray="1.2,0.8"/>
<line x1="107.66" y1="209.205" x2="81.995" y2="183.54" stroke="#8c8c8c" stroke-width="0.3" stroke-dasharray="1.2,0.8"/>
<line x1="64.055" y1="98.821" x2="38.39" y2="124.486" stroke="#8c8c8c" stroke-width="0.3" stroke-dasharray="1.2,0.8"/>
<line x1="56.33" y1="157.875" x2="30.665" y2="132.21" stroke="#8c8c8c" stroke-width="0.3" stroke-dasharray="1.2,0.8"/>
<line x1="5.0" y1="106.545" x2="30.665" y2="132.21" stroke="#8c8c8c" stroke-width="0.3" stroke-dasharray="1.2,0.8"/>
<line x1="89.72" y1="124.486" x2="64.055" y2="150.151" stroke="#8c8c8c" stroke-width="0.3" stroke-dasharray="1.2,0.8"/>
<line x1="81.995" y1="183.54" x2="56.33" y2="157.875" stroke="#8c8c8c" stroke-width="0.3" stroke-dasharray="1.2,0.8"/>
<line x1="64.055" y1="98.821" x2="89.72" y2="124.486" stroke="#8c8c8c" stroke-width="0.3" stroke-dasharray="1.2,0.8"/>
<line x1="107.66" y1="209.205" x2="115.384" y2="201.48" stroke="#8c8c8c" stroke-width="0.3" stroke-dasharray="1.2,0.8"/>
<line x1="12.725" y1="98.821" x2="38.39" y2="124.486" stroke="#141414" stroke-width="0.4"/>
<line x1="81.995" y1="234.87" x2="56.33" y2="209.205" stroke="#141414" stroke-width="0.4"/>
<line x1="107.66" y1="209.205" x2="81.995" y2="234.87" stroke="#141414" stroke-width="0.4"/>
<line x1="64.055" y1="150.151" x2="89.72" y2="175.815" stroke="#141414" stroke-width="0.4"/>
<line x1="56.33" y1="209.205" x2="81.995" y2="183.54" stroke="#141414" stroke-width="0.4"/>
<line x1="89.72" y1="175.815" x2="115.385" y2="201.48" stroke="#141414" stroke-width="0.4"/>
<line x1="5.0" y1="106.545" x2="12.725" y2="98.821" stroke="#141414" stroke-width="0.4"/>
<line x1="38.39" y1="124.486" x2="37.289" y2="115.686" stroke="#141414" stroke-width="0.4"/>
<line x1="37.289" y1="115.686" x2="55.255" y2="97.721" stroke="#141414" stroke-width="0.4"/>
<line x1="55.255" y1="97.721" x2="64.055" y2="98.821" stroke="#141414" stroke-width="0.4"/>
<line x1="30.665" y1="132.21" x2="29.565" y2="141.01" stroke="#141414" stroke-width="0.4"/>
<line x1="29.565" y1="141.01" x2="47.53" y2="158.975" stroke="#141414" stroke-width="0.4"/>
<line x1="47.53" y1="158.975" x2="56.33" y2="157.875" stroke="#141414" stroke-width="0.4"/>
<line x1="30.665" y1="132.21" x2="21.866" y2="133.31" stroke="#141414" stroke-width="0.4"/>
<line x1="21.866" y1="133.31" x2="3.9" y2="115.345" stroke="#141414" stroke-width="0.4"/>
<line x1="3.9" y1="115.345" x2="5.0" y2="106.545" stroke="#141414" stroke-width="0.4"/>
<line x1="64.055" y1="150.151" x2="72.854" y2="151.251" stroke="#141414" stroke-width="0.4"/>
<line x1="72.854" y1="151.251" x2="90.82" y2="133.285" stroke="#141414" stroke-width="0.4"/>
<line x1="90.82" y1="133.285" x2="89.72" y2="124.486" stroke="#141414" stroke-width="0.4"/>
<line x1="56.33" y1="157.875" x2="55.23" y2="166.675" stroke="#141414" stroke-width="0.4"/>
<line x1="55.23" y1="166.675" x2="73.195" y2="184.64" stroke="#141414" stroke-width="0.4"/>
<line x1="73.195" y1="184.64" x2="81.995" y2="183.54" stroke="#141414" stroke-width="0.4"/>
<line x1="89.72" y1="124.486" x2="90.82" y2="115.686" stroke="#141414" stroke-width="0.4"/>
<line x1="90.82" y1="115.686" x2="72.854" y2="97.721" stroke="#141414" stroke-width="0.4"/>
<line x1="72.854" y1="97.721" x2="64.055" y2="98.821" stroke="#141414" stroke-width="0.4"/>
<line x1="115.384" y1="201.48" x2="118.088" y2="206.502" stroke="#141414" stroke-width="0.4"/>
<line x1="118.088" y1="206.502" x2="112.681" y2="211.909" stroke="#141414" stroke-width="0.4"/>
<line x1="112.681" y1="211.909" x2="107.66" y2="209.205" stroke="#141414" stroke-width="0.4"/>
<circle cx="48.747" cy="109.178" r="1.04" fill="#99d9fa" stroke="#464646" stroke-width="0.2"/>
<text x="48.747" y="109.54" font-size="1.02" text-anchor="middle" fill="#141414">81</text>
<circle cx="41.023" cy="147.518" r="1.04" fill="#ffe082" stroke="#464646" stroke-width="0.2"/>
<text x="41.023" y="147.88" font-size="1.02" text-anchor="middle" fill="#141414">82</text>
<circle cx="15.358" cy="121.853" r="1.04" fill="#ffe082" stroke="#464646" stroke-width="0.2"/>
<text x="15.358" y="122.21" font-size="1.02" text-anchor="middle" fill="#141414">83</text>
<circle cx="79.362" cy="139.793" r="1.04" fill="#ffe082" stroke="#464646" stroke-width="0.2"/>
<text x="79.362" y="140.15" font-size="1.02" text-anchor="middle" fill="#141414">84</text>
<circle cx="66.687" cy="173.183" r="1.04" fill="#ffe082" stroke="#464646" stroke-width="0.2"/>
<text x="66.687" y="173.54" font-size="1.02" text-anchor="middle" fill="#141414">85</text>
<circle cx="79.362" cy="109.178" r="1.04" fill="#ffe082" stroke="#464646" stroke-width="0.2"/>
<text x="79.362" y="109.54" font-size="1.02" text-anchor="middle" fill="#141414">86</text>
<circle cx="113.453" cy="207.274" r="1.04" fill="#ffe082" stroke="#464646" stroke-width="0.2"/>
<text x="113.453" y="207.63" font-size="1.02" text-anchor="middle" fill="#141414">87</text>
<circle cx="55.5" cy="115.931" r="4.60" fill="#eaf1fe" stroke="#2e78e6" stroke-width="0.3"/>
<text x="55.5" y="117.73" font-size="5.20" text-anchor="middle" fill="#14306e" font-weight="bold">8</text>
<polygon points="146.866,145.995 148.716,152.164 157.353,152.164 159.204,145.995" fill="rgb(216,216,216)"/>
<polygon points="146.866,128.577 148.716,122.408 157.353,122.408 159.204,128.577" fill="rgb(216,216,216)"/>
<polygon points="159.204,145.995 166.204,143.382 166.204,131.19 159.204,128.577" fill="rgb(216,216,216)"/>
<polygon points="146.866,158.334 145.015,164.503 136.378,164.503 134.527,158.334" fill="rgb(216,216,216)"/>
<polygon points="134.527,145.995 127.527,143.382 127.527,131.19 134.527,128.577" fill="rgb(216,216,216)"/>
<polygon points="134.527,145.995 128.358,147.846 128.358,156.483 134.527,158.334" fill="rgb(216,216,216)"/>
<polygon points="134.527,128.577 128.357,126.726 128.357,118.089 134.527,116.238" fill="rgb(216,216,216)"/>
<polygon points="146.866,145.995 148.716,152.164 157.353,152.164 159.204,145.995" fill="#99d9fa"/>
<line x1="146.866" y1="145.995" x2="146.866" y2="128.577" stroke="#8c8c8c" stroke-width="0.3" stroke-dasharray="1.2,0.8"/>
<line x1="146.866" y1="145.995" x2="134.527" y2="145.995" stroke="#8c8c8c" stroke-width="0.3" stroke-dasharray="1.2,0.8"/>
<line x1="134.527" y1="128.577" x2="146.866" y2="128.577" stroke="#8c8c8c" stroke-width="0.3" stroke-dasharray="1.2,0.8"/>
<line x1="134.527" y1="116.239" x2="146.866" y2="116.239" stroke="#8c8c8c" stroke-width="0.3" stroke-dasharray="1.2,0.8"/>
<line x1="134.527" y1="116.239" x2="134.527" y2="98.821" stroke="#8c8c8c" stroke-width="0.3" stroke-dasharray="1.2,0.8"/>
<line x1="159.204" y1="145.995" x2="146.866" y2="145.995" stroke="#8c8c8c" stroke-width="0.3" stroke-dasharray="1.2,0.8"/>
<line x1="159.204" y1="128.577" x2="146.866" y2="128.577" stroke="#8c8c8c" stroke-width="0.3" stroke-dasharray="1.2,0.8"/>
<line x1="159.204" y1="128.577" x2="159.204" y2="145.995" stroke="#8c8c8c" stroke-width="0.3" stroke-dasharray="1.2,0.8"/>
<line x1="134.527" y1="158.334" x2="146.866" y2="158.334" stroke="#8c8c8c" stroke-width="0.3" stroke-dasharray="1.2,0.8"/>
<line x1="134.527" y1="128.577" x2="134.527" y2="145.995" stroke="#8c8c8c" stroke-width="0.3" stroke-dasharray="1.2,0.8"/>
<line x1="134.527" y1="158.334" x2="134.527" y2="145.995" stroke="#8c8c8c" stroke-width="0.3" stroke-dasharray="1.2,0.8"/>
<line x1="134.527" y1="116.238" x2="134.527" y2="128.577" stroke="#8c8c8c" stroke-width="0.3" stroke-dasharray="1.2,0.8"/>
<line x1="146.866" y1="145.995" x2="146.866" y2="158.334" stroke="#141414" stroke-width="0.4"/>
<line x1="146.866" y1="116.239" x2="146.866" y2="128.577" stroke="#141414" stroke-width="0.4"/>
<line x1="146.866" y1="98.821" x2="146.866" y2="116.239" stroke="#141414" stroke-width="0.4"/>
<line x1="134.527" y1="98.821" x2="146.866" y2="98.821" stroke="#141414" stroke-width="0.4"/>
<line x1="122.188" y1="116.239" x2="122.188" y2="98.821" stroke="#141414" stroke-width="0.4"/>
<line x1="122.188" y1="98.821" x2="134.527" y2="98.821" stroke="#141414" stroke-width="0.4"/>
<line x1="134.527" y1="116.239" x2="122.188" y2="116.239" stroke="#141414" stroke-width="0.4"/>
<line x1="146.866" y1="145.995" x2="148.716" y2="152.164" stroke="#141414" stroke-width="0.4"/>
<line x1="148.716" y1="152.164" x2="157.353" y2="152.164" stroke="#141414" stroke-width="0.4"/>
<line x1="157.353" y1="152.164" x2="159.204" y2="145.995" stroke="#141414" stroke-width="0.4"/>
<line x1="146.866" y1="128.577" x2="148.716" y2="122.408" stroke="#141414" stroke-width="0.4"/>
<line x1="148.716" y1="122.408" x2="157.353" y2="122.408" stroke="#141414" stroke-width="0.4"/>
<line x1="157.353" y1="122.408" x2="159.204" y2="128.577" stroke="#141414" stroke-width="0.4"/>
<line x1="159.204" y1="145.995" x2="166.204" y2="143.382" stroke="#141414" stroke-width="0.4"/>
<line x1="166.204" y1="143.382" x2="166.204" y2="131.19" stroke="#141414" stroke-width="0.4"/>
<line x1="166.204" y1="131.19" x2="159.204" y2="128.577" stroke="#141414" stroke-width="0.4"/>
<line x1="146.866" y1="158.334" x2="145.015" y2="164.503" stroke="#141414" stroke-width="0.4"/>
<line x1="145.015" y1="164.503" x2="136.378" y2="164.503" stroke="#141414" stroke-width="0.4"/>
<line x1="136.378" y1="164.503" x2="134.527" y2="158.334" stroke="#141414" stroke-width="0.4"/>
<line x1="134.527" y1="145.995" x2="127.527" y2="143.382" stroke="#141414" stroke-width="0.4"/>
<line x1="127.527" y1="143.382" x2="127.527" y2="131.19" stroke="#141414" stroke-width="0.4"/>
<line x1="127.527" y1="131.19" x2="134.527" y2="128.577" stroke="#141414" stroke-width="0.4"/>
<line x1="134.527" y1="145.995" x2="128.358" y2="147.846" stroke="#141414" stroke-width="0.4"/>
<line x1="128.358" y1="147.846" x2="128.358" y2="156.483" stroke="#141414" stroke-width="0.4"/>
<line x1="128.358" y1="156.483" x2="134.527" y2="158.334" stroke="#141414" stroke-width="0.4"/>
<line x1="134.527" y1="128.577" x2="128.357" y2="126.726" stroke="#141414" stroke-width="0.4"/>
<line x1="128.357" y1="126.726" x2="128.357" y2="118.089" stroke="#141414" stroke-width="0.4"/>
<line x1="128.357" y1="118.089" x2="134.527" y2="116.238" stroke="#141414" stroke-width="0.4"/>
<circle cx="153.035" cy="149.08" r="1.04" fill="#99d9fa" stroke="#464646" stroke-width="0.2"/>
<text x="153.035" y="149.44" font-size="1.02" text-anchor="middle" fill="#141414">102</text>
<circle cx="153.035" cy="125.493" r="1.04" fill="#ffe082" stroke="#464646" stroke-width="0.2"/>
<text x="153.035" y="125.85" font-size="1.02" text-anchor="middle" fill="#141414">103</text>
<circle cx="162.704" cy="137.286" r="1.04" fill="#ffe082" stroke="#464646" stroke-width="0.2"/>
<text x="162.704" y="137.64" font-size="1.02" text-anchor="middle" fill="#141414">104</text>
<circle cx="140.696" cy="161.418" r="1.04" fill="#ffe082" stroke="#464646" stroke-width="0.2"/>
<text x="140.696" y="161.78" font-size="1.02" text-anchor="middle" fill="#141414">105</text>
<circle cx="131.027" cy="137.286" r="1.04" fill="#ffe082" stroke="#464646" stroke-width="0.2"/>
<text x="131.027" y="137.64" font-size="1.02" text-anchor="middle" fill="#141414">106</text>
<circle cx="131.442" cy="152.164" r="1.04" fill="#ffe082" stroke="#464646" stroke-width="0.2"/>
<text x="131.442" y="152.52" font-size="1.02" text-anchor="middle" fill="#141414">107</text>
<circle cx="131.442" cy="122.408" r="1.04" fill="#ffe082" stroke="#464646" stroke-width="0.2"/>
<text x="131.442" y="122.77" font-size="1.02" text-anchor="middle" fill="#141414">108</text>
<circle cx="138.64" cy="154.221" r="2.33" fill="#eaf1fe" stroke="#2e78e6" stroke-width="0.3"/>
<text x="138.64" y="155.13" font-size="2.63" text-anchor="middle" fill="#14306e" font-weight="bold">11</text>
<text x="205.0" y="295.0" font-size="3.2" text-anchor="end" fill="#737373" font-family="sans-serif">4 / 6</text>
</svg>
