<svg xmlns="http://www.w3.org/2000/svg" xmlns:xlink="http://www.w3.org/1999/xlink" width="210.00mm" height="297.00mm" viewBox="0 0 210.00 297.00">
<rect x="0" y="0" width="210.00" height="297.00" fill="#ffffff" stroke="#cccccc" stroke-width="0.2"/>
<polygon points="74.969,13.015 64.473,6.015 15.495,6.015 5.0,13.015" fill="rgb(216,216,216)"/>
<line x1="74.969" y1="191.907" x2="5.0" y2="191.907" stroke="#8c8c8c" stroke-width="0.3" stroke-dasharray="1.2,0.8"/>
<line x1="5.0" y1="168.947" x2="74.969" y2="168.947" stroke="#8c8c8c" stroke-width="0.3" stroke-dasharray="1.2,0.8"/>
<line x1="5.0" y1="143.947" x2="74.969" y2="143.947" stroke="#8c8c8c" stroke-width="0.3" stroke-dasharray="1.2,0.8"/>
<line x1="5.0" y1="116.615" x2="74.969" y2="116.615" stroke="#8c8c8c" stroke-width="0.3" stroke-dasharray="1.2,0.8"/>
<line x1="5.0" y1="88.307" x2="74.969" y2="88.307" stroke="#8c8c8c" stroke-width="0.3" stroke-dasharray="1.2,0.8"/>
<line x1="5.0" y1="60.974" x2="74.969" y2="60.974" stroke="#8c8c8c" stroke-width="0.3" stroke-dasharray="1.2,0.8"/>
<line x1="5.0" y1="35.974" x2="74.969" y2="35.974" stroke="#8c8c8c" stroke-width="0.3" stroke-dasharray="1.2,0.8"/>
<line x1="5.0" y1="13.015" x2="74.969" y2="13.015" stroke="#8c8c8c" stroke-width="0.3" stroke-dasharray="1.2,0.8"/>
<line x1="74.969" y1="168.947" x2="74.969" y2="191.907" stroke="#141414" stroke-width="0.4"/>
<line x1="74.969" y1="191.907" x2="74.969" y2="214.867" stroke="#141414" stroke-width="0.4"/>
<line x1="5.0" y1="191.907" x2="5.0" y2="168.947" stroke="#141414" stroke-width="0.4"/>
<line x1="5.0" y1="214.867" x2="5.0" y2="191.907" stroke="#141414" stroke-width="0.4"/>
<line x1="74.969" y1="143.947" x2="74.969" y2="168.947" stroke="#141414" stroke-width="0.4"/>
<line x1="5.0" y1="168.947" x2="5.0" y2="143.947" stroke="#141414" stroke-width="0.4"/>
<line x1="74.969" y1="116.615" x2="74.969" y2="143.947" stroke="#141414" stroke-width="0.4"/>
<line x1="5.0" y1="143.947" x2="5.0" y2="116.615" stroke="#141414" stroke-width="0.4"/>
<line x1="74.969" y1="88.307" x2="74.969" y2="116.615" stroke="#141414" stroke-width="0.4"/>
<line x1="5.0" y1="116.615" x2="5.0" y2="88.307" stroke="#141414" stroke-width="0.4"/>
<line x1="74.969" y1="60.974" x2="74.969" y2="88.307" stroke="#141414" stroke-width="0.4"/>
<line x1="5.0" y1="88.307" x2="5.0" y2="60.974" stroke="#141414" stroke-width="0.4"/>
<line x1="74.969" y1="35.974" x2="74.969" y2="60.974" stroke="#141414" stroke-width="0.4"/>
<line x1="5.0" y1="60.974" x2="5.0" y2="35.974" stroke="#141414" stroke-width="0.4"/>
<line x1="74.969" y1="13.015" x2="74.969" y2="35.974" stroke="#141414" stroke-width="0.4"/>
<line x1="5.0" y1="35.974" x2="5.0" y2="13.015" stroke="#141414" stroke-width="0.4"/>
<line x1="74.969" y1="214.867" x2="5.0" y2="214.867" stroke="#141414" stroke-width="0.4"/>
<line x1="74.969" y1="13.015" x2="64.473" y2="6.015" stroke="#141414" stroke-width="0.4"/>
<line x1="64.473" y1="6.015" x2="15.495" y2="6.015" stroke="#141414" stroke-width="0.4"/>
<line x1="15.495" y1="6.015" x2="5.0" y2="13.015" stroke="#141414" stroke-width="0.4"/>
<circle cx="39.984" cy="9.515" r="1.50" fill="#ffe082" stroke="#464646" stroke-width="0.2"/>
<text x="39.984" y="10.23" font-size="2.03" text-anchor="middle" fill="#141414">36</text>
<circle cx="39.984" cy="219.952" r="4.6" fill="#eaf1fe" stroke="#2e78e6" stroke-width="0.3"/>
<text x="39.984" y="221.752" font-size="5.2" text-anchor="middle" fill="#14306e" font-weight="bold">4</text>
<polygon points="77.969,13.015 89.236,6.015 141.819,6.015 153.086,13.015" fill="rgb(216,216,216)"/>
<polygon points="117.255,113.586 129.578,116.287 175.199,98.466 182.428,88.128" fill="rgb(216,216,216)"/>
<line x1="153.086" y1="13.015" x2="87.914" y2="38.473" stroke="#8c8c8c" stroke-width="0.3" stroke-dasharray="1.2,0.8"/>
<line x1="163.386" y1="39.382" x2="98.214" y2="64.841" stroke="#8c8c8c" stroke-width="0.3" stroke-dasharray="1.2,0.8"/>
<line x1="173.331" y1="64.841" x2="108.159" y2="90.299" stroke="#8c8c8c" stroke-width="0.3" stroke-dasharray="1.2,0.8"/>
<line x1="153.086" y1="13.015" x2="77.969" y2="13.015" stroke="#8c8c8c" stroke-width="0.3" stroke-dasharray="1.2,0.8"/>
<line x1="182.428" y1="88.128" x2="117.255" y2="113.586" stroke="#8c8c8c" stroke-width="0.3" stroke-dasharray="1.2,0.8"/>
<line x1="87.914" y1="38.473" x2="77.969" y2="13.015" stroke="#141414" stroke-width="0.4"/>
<line x1="98.214" y1="64.841" x2="87.914" y2="38.473" stroke="#141414" stroke-width="0.4"/>
<line x1="153.086" y1="13.015" x2="163.386" y2="39.382" stroke="#141414" stroke-width="0.4"/>
<line x1="108.159" y1="90.299" x2="98.214" y2="64.841" stroke="#141414" stroke-width="0.4"/>
<line x1="163.386" y1="39.382" x2="173.331" y2="64.841" stroke="#141414" stroke-width="0.4"/>
<line x1="117.255" y1="113.586" x2="108.159" y2="90.299" stroke="#141414" stroke-width="0.4"/>
<line x1="173.331" y1="64.841" x2="182.428" y2="88.127" stroke="#141414" stroke-width="0.4"/>
<line x1="77.969" y1="13.015" x2="89.236" y2="6.015" stroke="#141414" stroke-width="0.4"/>
<line x1="89.236" y1="6.015" x2="141.819" y2="6.015" stroke="#141414" stroke-width="0.4"/>
<line x1="141.819" y1="6.015" x2="153.086" y2="13.015" stroke="#141414" stroke-width="0.4"/>
<line x1="117.255" y1="113.586" x2="129.578" y2="116.287" stroke="#141414" stroke-width="0.4"/>
<line x1="129.578" y1="116.287" x2="175.199" y2="98.466" stroke="#141414" stroke-width="0.4"/>
<line x1="175.199" y1="98.466" x2="182.428" y2="88.128" stroke="#141414" stroke-width="0.4"/>
<circle cx="115.527" cy="9.515" r="1.50" fill="#ffe082" stroke="#464646" stroke-width="0.2"/>
<text x="115.527" y="10.23" font-size="2.03" text-anchor="middle" fill="#141414">63</text>
<circle cx="151.115" cy="104.117" r="1.50" fill="#ffe082" stroke="#464646" stroke-width="0.2"/>
<text x="151.115" y="104.83" font-size="2.03" text-anchor="middle" fill="#141414">64</text>
<circle cx="130.198" cy="121.373" r="4.6" fill="#eaf1fe" stroke="#2e78e6" stroke-width="0.3"/>
<text x="130.198" y="123.173" font-size="5.2" text-anchor="middle" fill="#14306e" font-weight="bold">8</text>
</svg>
