<svg xmlns="http://www.w3.org/2000/svg" xmlns:xlink="http://www.w3.org/1999/xlink" width="210.00mm" height="297.00mm" viewBox="0 0 210.00 297.00">
<rect x="0" y="0" width="210.00" height="297.00" fill="#ffffff" stroke="#cccccc" stroke-width="0.2"/>
<polygon points="124.273,9.833 119.05,15.628 125.014,30.553 132.792,31.153" fill="rgb(216,216,216)"/>
<polygon points="124.273,9.833 131.874,5.9 152.255,16.517 153.388,25.0" fill="rgb(216,216,216)"/>
<polygon points="6.009,101.252 5.602,109.646 23.072,122.513 30.966,119.633" fill="rgb(216,216,216)"/>
<polygon points="30.966,119.633 35.087,127.226 58.516,130.263 64.437,123.972" fill="rgb(216,216,216)"/>
<polygon points="66.903,104.466 72.755,95.412 83.231,92.282 93.091,96.642" fill="rgb(216,216,216)"/>
<polygon points="64.437,123.972 71.744,129.095 96.492,121.701 99.791,113.409" fill="rgb(216,216,216)"/>
<polygon points="93.091,96.642 92.169,88.507 107.847,76.387 115.488,79.329" fill="rgb(216,216,216)"/>
<polygon points="99.791,113.409 108.607,115.442 129.772,99.081 130.026,90.037" fill="rgb(216,216,216)"/>
<polygon points="115.488,79.329 111.627,72.194 121.546,55.833 129.657,55.956" fill="rgb(216,216,216)"/>
<polygon points="130.026,90.037 138.881,88.933 152.272,66.846 149.155,58.484" fill="rgb(216,216,216)"/>
<polygon points="129.657,55.956 123.182,51.358 125.377,33.996 132.792,31.153" fill="rgb(216,216,216)"/>
<polygon points="149.155,58.484 156.734,54.339 159.697,30.901 153.388,25.0" fill="rgb(216,216,216)"/>
<line x1="42.11" y1="101.252" x2="66.903" y2="104.466" stroke="#8c8c8c" stroke-width="0.3" stroke-dasharray="1.2,0.8"/>
<line x1="51.105" y1="31.864" x2="42.11" y2="101.252" stroke="#8c8c8c" stroke-width="0.3" stroke-dasharray="1.2,0.8"/>
<line x1="75.897" y1="35.078" x2="66.903" y2="104.466" stroke="#8c8c8c" stroke-width="0.3" stroke-dasharray="1.2,0.8"/>
<line x1="132.792" y1="31.153" x2="124.273" y2="9.833" stroke="#8c8c8c" stroke-width="0.3" stroke-dasharray="1.2,0.8"/>
<line x1="153.388" y1="25.0" x2="124.273" y2="9.833" stroke="#8c8c8c" stroke-width="0.3" stroke-dasharray="1.2,0.8"/>
<line x1="30.966" y1="119.633" x2="6.009" y2="101.252" stroke="#8c8c8c" stroke-width="0.3" stroke-dasharray="1.2,0.8"/>
<line x1="64.437" y1="123.972" x2="30.966" y2="119.633" stroke="#8c8c8c" stroke-width="0.3" stroke-dasharray="1.2,0.8"/>
<line x1="93.091" y1="96.642" x2="66.903" y2="104.466" stroke="#8c8c8c" stroke-width="0.3" stroke-dasharray="1.2,0.8"/>
<line x1="99.791" y1="113.409" x2="64.437" y2="123.972" stroke="#8c8c8c" stroke-width="0.3" stroke-dasharray="1.2,0.8"/>
<line x1="115.488" y1="79.329" x2="93.091" y2="96.642" stroke="#8c8c8c" stroke-width="0.3" stroke-dasharray="1.2,0.8"/>
<line x1="130.026" y1="90.037" x2="99.791" y2="113.409" stroke="#8c8c8c" stroke-width="0.3" stroke-dasharray="1.2,0.8"/>
<line x1="129.657" y1="55.956" x2="115.488" y2="79.329" stroke="#8c8c8c" stroke-width="0.3" stroke-dasharray="1.2,0.8"/>
<line x1="149.155" y1="58.484" x2="130.026" y2="90.037" stroke="#8c8c8c" stroke-width="0.3" stroke-dasharray="1.2,0.8"/>
<line x1="132.792" y1="31.153" x2="129.657" y2="55.956" stroke="#8c8c8c" stroke-width="0.3" stroke-dasharray="1.2,0.8"/>
<line x1="153.388" y1="25.0" x2="149.155" y2="58.484" stroke="#8c8c8c" stroke-width="0.3" stroke-dasharray="1.2,0.8"/>
<line x1="19.341" y1="98.301" x2="28.335" y2="28.913" stroke="#141414" stroke-width="0.4"/>
<line x1="42.11" y1="101.252" x2="19.341" y2="98.301" stroke="#141414" stroke-width="0.4"/>
<line x1="6.009" y1="101.252" x2="42.11" y2="101.252" stroke="#141414" stroke-width="0.4"/>
<line x1="28.335" y1="28.913" x2="51.105" y2="31.864" stroke="#141414" stroke-width="0.4"/>
<line x1="51.105" y1="31.864" x2="75.897" y2="35.078" stroke="#141414" stroke-width="0.4"/>
<line x1="103.003" y1="38.592" x2="66.903" y2="104.466" stroke="#141414" stroke-width="0.4"/>
<line x1="75.897" y1="35.078" x2="103.003" y2="38.592" stroke="#141414" stroke-width="0.4"/>
<line x1="124.273" y1="9.833" x2="119.05" y2="15.628" stroke="#141414" stroke-width="0.4"/>
<line x1="119.05" y1="15.628" x2="125.014" y2="30.553" stroke="#141414" stroke-width="0.4"/>
<line x1="125.014" y1="30.553" x2="132.792" y2="31.153" stroke="#141414" stroke-width="0.4"/>
<line x1="124.273" y1="9.833" x2="131.874" y2="5.9" stroke="#141414" stroke-width="0.4"/>
<line x1="131.874" y1="5.9" x2="152.255" y2="16.517" stroke="#141414" stroke-width="0.4"/>
<line x1="152.255" y1="16.517" x2="153.388" y2="25.0" stroke="#141414" stroke-width="0.4"/>
<line x1="6.009" y1="101.252" x2="5.602" y2="109.646" stroke="#141414" stroke-width="0.4"/>
<line x1="5.602" y1="109.646" x2="23.072" y2="122.513" stroke="#141414" stroke-width="0.4"/>
<line x1="23.072" y1="122.513" x2="30.966" y2="119.633" stroke="#141414" stroke-width="0.4"/>
<line x1="30.966" y1="119.633" x2="35.087" y2="127.226" stroke="#141414" stroke-width="0.4"/>
<line x1="35.087" y1="127.226" x2="58.516" y2="130.263" stroke="#141414" stroke-width="0.4"/>
<line x1="58.516" y1="130.263" x2="64.437" y2="123.972" stroke="#141414" stroke-width="0.4"/>
<line x1="66.903" y1="104.466" x2="72.755" y2="95.412" stroke="#141414" stroke-width="0.4"/>
<line x1="72.755" y1="95.412" x2="83.231" y2="92.282" stroke="#141414" stroke-width="0.4"/>
<line x1="83.231" y1="92.282" x2="93.091" y2="96.642" stroke="#141414" stroke-width="0.4"/>
<line x1="64.437" y1="123.972" x2="71.744" y2="129.095" stroke="#141414" stroke-width="0.4"/>
<line x1="71.744" y1="129.095" x2="96.492" y2="121.701" stroke="#141414" stroke-width="0.4"/>
<line x1="96.492" y1="121.701" x2="99.791" y2="113.409" stroke="#141414" stroke-width="0.4"/>
<line x1="93.091" y1="96.642" x2="92.169" y2="88.507" stroke="#141414" stroke-width="0.4"/>
<line x1="92.169" y1="88.507" x2="107.847" y2="76.387" stroke="#141414" stroke-width="0.4"/>
<line x1="107.847" y1="76.387" x2="115.488" y2="79.329" stroke="#141414" stroke-width="0.4"/>
<line x1="99.791" y1="113.409" x2="108.607" y2="115.442" stroke="#141414" stroke-width="0.4"/>
<line x1="108.607" y1="115.442" x2="129.772" y2="99.081" stroke="#141414" stroke-width="0.4"/>
<line x1="129.772" y1="99.081" x2="130.026" y2="90.037" stroke="#141414" stroke-width="0.4"/>
<line x1="115.488" y1="79.329" x2="111.627" y2="72.194" stroke="#141414" stroke-width="0.4"/>
<line x1="111.627" y1="72.194" x2="121.546" y2="55.833" stroke="#141414" stroke-width="0.4"/>
<line x1="121.546" y1="55.833" x2="129.657" y2="55.956" stroke="#141414" stroke-width="0.4"/>
<line x1="130.026" y1="90.037" x2="138.881" y2="88.933" stroke="#141414" stroke-width="0.4"/>
<line x1="138.881" y1="88.933" x2="152.272" y2="66.846" stroke="#141414" stroke-width="0.4"/>
<line x1="152.272" y1="66.846" x2="149.155" y2="58.484" stroke="#141414" stroke-width="0.4"/>
<line x1="129.657" y1="55.956" x2="123.182" y2="51.358" stroke="#141414" stroke-width="0.4"/>
<line x1="123.182" y1="51.358" x2="125.377" y2="33.996" stroke="#141414" stroke-width="0.4"/>
<line x1="125.377" y1="33.996" x2="132.792" y2="31.153" stroke="#141414" stroke-width="0.4"/>
<line x1="149.155" y1="58.484" x2="156.734" y2="54.339" stroke="#141414" stroke-width="0.4"/>
<line x1="156.734" y1="54.339" x2="159.697" y2="30.901" stroke="#141414" stroke-width="0.4"/>
<line x1="159.697" y1="30.901" x2="153.388" y2="25.0" stroke="#141414" stroke-width="0.4"/>
<circle cx="125.282" cy="21.792" r="1.50" fill="#ffe082" stroke="#464646" stroke-width="0.2"/>
<text x="125.282" y="22.50" font-size="2.03" text-anchor="middle" fill="#141414">46</text>
<circle cx="140.447" cy="14.312" r="1.50" fill="#ffe082" stroke="#464646" stroke-width="0.2"/>
<text x="140.447" y="15.02" font-size="2.03" text-anchor="middle" fill="#141414">47</text>
<circle cx="16.412" cy="113.261" r="1.50" fill="#ffe082" stroke="#464646" stroke-width="0.2"/>
<text x="16.412" y="113.97" font-size="2.03" text-anchor="middle" fill="#141414">48</text>
<circle cx="47.252" cy="125.274" r="1.50" fill="#ffe082" stroke="#464646" stroke-width="0.2"/>
<text x="47.252" y="125.98" font-size="2.03" text-anchor="middle" fill="#141414">49</text>
<circle cx="78.995" cy="97.2" r="1.50" fill="#ffe082" stroke="#464646" stroke-width="0.2"/>
<text x="78.995" y="97.91" font-size="2.03" text-anchor="middle" fill="#141414">50</text>
<circle cx="83.116" cy="122.044" r="1.50" fill="#ffe082" stroke="#464646" stroke-width="0.2"/>
<text x="83.116" y="122.75" font-size="2.03" text-anchor="middle" fill="#141414">51</text>
<circle cx="102.149" cy="85.216" r="1.50" fill="#ffe082" stroke="#464646" stroke-width="0.2"/>
<text x="102.149" y="85.93" font-size="2.03" text-anchor="middle" fill="#141414">52</text>
<circle cx="117.049" cy="104.492" r="1.50" fill="#ffe082" stroke="#464646" stroke-width="0.2"/>
<text x="117.049" y="105.20" font-size="2.03" text-anchor="middle" fill="#141414">53</text>
<circle cx="119.579" cy="65.828" r="1.50" fill="#ffe082" stroke="#464646" stroke-width="0.2"/>
<text x="119.579" y="66.54" font-size="2.03" text-anchor="middle" fill="#141414">54</text>
<circle cx="142.584" cy="76.075" r="1.50" fill="#ffe082" stroke="#464646" stroke-width="0.2"/>
<text x="142.584" y="76.79" font-size="2.03" text-anchor="middle" fill="#141414">55</text>
<circle cx="127.752" cy="43.116" r="1.50" fill="#ffe082" stroke="#464646" stroke-width="0.2"/>
<text x="127.752" y="43.83" font-size="2.03" text-anchor="middle" fill="#141414">56</text>
<circle cx="154.744" cy="42.181" r="1.50" fill="#ffe082" stroke="#464646" stroke-width="0.2"/>
<text x="154.744" y="42.89" font-size="2.03" text-anchor="middle" fill="#141414">57</text>
<circle cx="82.048" cy="135.463" r="4.6" fill="#eaf1fe" stroke="#2e78e6" stroke-width="0.3"/>
<text x="82.048" y="137.263" font-size="5.2" text-anchor="middle" fill="#14306e" font-weight="bold">6</text>
</svg>
