<svg xmlns="http://www.w3.org/2000/svg" xmlns:xlink="http://www.w3.org/1999/xlink" width="210.00mm" height="297.00mm" viewBox="0 0 210.00 297.00">
<rect x="0" y="0" width="210.00" height="297.00" fill="#ffffff" stroke="#cccccc" stroke-width="0.2"/>
<polygon points="40.775,81.85 43.557,88.85 56.543,88.85 59.325,81.85" fill="rgb(216,216,216)"/>
<polygon points="40.775,52.7 43.557,45.7 56.543,45.7 59.325,52.7" fill="rgb(216,216,216)"/>
<polygon points="59.325,81.85 66.325,77.477 66.325,57.072 59.325,52.7" fill="rgb(216,216,216)"/>
<polygon points="40.775,100.4 38.191,107.4 26.134,107.4 23.55,100.4" fill="rgb(216,216,216)"/>
<polygon points="23.55,81.85 16.55,77.477 16.55,57.072 23.55,52.7" fill="rgb(216,216,216)"/>
<polygon points="23.55,81.85 16.55,84.632 16.55,97.617 23.55,100.4" fill="rgb(216,216,216)"/>
<polygon points="23.55,52.7 16.55,49.917 16.55,36.932 23.55,34.15" fill="rgb(216,216,216)"/>
<polygon points="40.775,81.85 43.557,88.85 56.543,88.85 59.325,81.85" fill="#99d9fa"/>
<line x1="40.775" y1="81.85" x2="40.775" y2="52.7" stroke="#8c8c8c" stroke-width="0.3" stroke-dasharray="1.2,0.8"/>
<line x1="40.775" y1="81.85" x2="23.55" y2="81.85" stroke="#8c8c8c" stroke-width="0.3" stroke-dasharray="1.2,0.8"/>
<line x1="23.55" y1="52.7" x2="40.775" y2="52.7" stroke="#8c8c8c" stroke-width="0.3" stroke-dasharray="1.2,0.8"/>
<line x1="23.55" y1="34.15" x2="40.775" y2="34.15" stroke="#8c8c8c" stroke-width="0.3" stroke-dasharray="1.2,0.8"/>
<line x1="23.55" y1="34.15" x2="23.55" y2="5.0" stroke="#8c8c8c" stroke-width="0.3" stroke-dasharray="1.2,0.8"/>
<line x1="59.325" y1="81.85" x2="40.775" y2="81.85" stroke="#8c8c8c" stroke-width="0.3" stroke-dasharray="1.2,0.8"/>
<line x1="59.325" y1="52.7" x2="40.775" y2="52.7" stroke="#8c8c8c" stroke-width="0.3" stroke-dasharray="1.2,0.8"/>
<line x1="59.325" y1="52.7" x2="59.325" y2="81.85" stroke="#8c8c8c" stroke-width="0.3" stroke-dasharray="1.2,0.8"/>
<line x1="23.55" y1="100.4" x2="40.775" y2="100.4" stroke="#8c8c8c" stroke-width="0.3" stroke-dasharray="1.2,0.8"/>
<line x1="23.55" y1="52.7" x2="23.55" y2="81.85" stroke="#8c8c8c" stroke-width="0.3" stroke-dasharray="1.2,0.8"/>
<line x1="23.55" y1="100.4" x2="23.55" y2="81.85" stroke="#8c8c8c" stroke-width="0.3" stroke-dasharray="1.2,0.8"/>
<line x1="23.55" y1="34.15" x2="23.55" y2="52.7" stroke="#8c8c8c" stroke-width="0.3" stroke-dasharray="1.2,0.8"/>
<line x1="40.775" y1="81.85" x2="40.775" y2="100.4" stroke="#141414" stroke-width="0.4"/>
<line x1="40.775" y1="34.15" x2="40.775" y2="52.7" stroke="#141414" stroke-width="0.4"/>
<line x1="40.775" y1="5.0" x2="40.775" y2="34.15" stroke="#141414" stroke-width="0.4"/>
<line x1="23.55" y1="5.0" x2="40.775" y2="5.0" stroke="#141414" stroke-width="0.4"/>
<line x1="5.0" y1="34.15" x2="5.0" y2="5.0" stroke="#141414" stroke-width="0.4"/>
<line x1="5.0" y1="5.0" x2="23.55" y2="5.0" stroke="#141414" stroke-width="0.4"/>
<line x1="23.55" y1="34.15" x2="5.0" y2="34.15" stroke="#141414" stroke-width="0.4"/>
<line x1="40.775" y1="81.85" x2="43.557" y2="88.85" stroke="#141414" stroke-width="0.4"/>
<line x1="43.557" y1="88.85" x2="56.543" y2="88.85" stroke="#141414" stroke-width="0.4"/>
<line x1="56.543" y1="88.85" x2="59.325" y2="81.85" stroke="#141414" stroke-width="0.4"/>
<line x1="40.775" y1="52.7" x2="43.557" y2="45.7" stroke="#141414" stroke-width="0.4"/>
<line x1="43.557" y1="45.7" x2="56.543" y2="45.7" stroke="#141414" stroke-width="0.4"/>
<line x1="56.543" y1="45.7" x2="59.325" y2="52.7" stroke="#141414" stroke-width="0.4"/>
<line x1="59.325" y1="81.85" x2="66.325" y2="77.477" stroke="#141414" stroke-width="0.4"/>
<line x1="66.325" y1="77.477" x2="66.325" y2="57.072" stroke="#141414" stroke-width="0.4"/>
<line x1="66.325" y1="57.072" x2="59.325" y2="52.7" stroke="#141414" stroke-width="0.4"/>
<line x1="40.775" y1="100.4" x2="38.191" y2="107.4" stroke="#141414" stroke-width="0.4"/>
<line x1="38.191" y1="107.4" x2="26.134" y2="107.4" stroke="#141414" stroke-width="0.4"/>
<line x1="26.134" y1="107.4" x2="23.55" y2="100.4" stroke="#141414" stroke-width="0.4"/>
<line x1="23.55" y1="81.85" x2="16.55" y2="77.477" stroke="#141414" stroke-width="0.4"/>
<line x1="16.55" y1="77.477" x2="16.55" y2="57.072" stroke="#141414" stroke-width="0.4"/>
<line x1="16.55" y1="57.072" x2="23.55" y2="52.7" stroke="#141414" stroke-width="0.4"/>
<line x1="23.55" y1="81.85" x2="16.55" y2="84.632" stroke="#141414" stroke-width="0.4"/>
<line x1="16.55" y1="84.632" x2="16.55" y2="97.617" stroke="#141414" stroke-width="0.4"/>
<line x1="16.55" y1="97.617" x2="23.55" y2="100.4" stroke="#141414" stroke-width="0.4"/>
<line x1="23.55" y1="52.7" x2="16.55" y2="49.917" stroke="#141414" stroke-width="0.4"/>
<line x1="16.55" y1="49.917" x2="16.55" y2="36.932" stroke="#141414" stroke-width="0.4"/>
<line x1="16.55" y1="36.932" x2="23.55" y2="34.15" stroke="#141414" stroke-width="0.4"/>
<circle cx="50.05" cy="85.35" r="1.89" fill="#99d9fa" stroke="#464646" stroke-width="0.2"/>
<text x="50.05" y="86.25" font-size="2.57" text-anchor="middle" fill="#141414">58</text>
<circle cx="50.05" cy="49.2" r="1.89" fill="#ffe082" stroke="#464646" stroke-width="0.2"/>
<text x="50.05" y="50.10" font-size="2.57" text-anchor="middle" fill="#141414">59</text>
<circle cx="62.825" cy="67.275" r="1.89" fill="#ffe082" stroke="#464646" stroke-width="0.2"/>
<text x="62.825" y="68.17" font-size="2.57" text-anchor="middle" fill="#141414">60</text>
<circle cx="32.162" cy="103.9" r="1.89" fill="#ffe082" stroke="#464646" stroke-width="0.2"/>
<text x="32.162" y="104.80" font-size="2.57" text-anchor="middle" fill="#141414">61</text>
<circle cx="20.05" cy="67.275" r="1.89" fill="#ffe082" stroke="#464646" stroke-width="0.2"/>
<text x="20.05" y="68.17" font-size="2.57" text-anchor="middle" fill="#141414">62</text>
<circle cx="20.05" cy="91.125" r="1.89" fill="#ffe082" stroke="#464646" stroke-width="0.2"/>
<text x="20.05" y="92.02" font-size="2.57" text-anchor="middle" fill="#141414">63</text>
<circle cx="20.05" cy="43.425" r="1.89" fill="#ffe082" stroke="#464646" stroke-width="0.2"/>
<text x="20.05" y="44.32" font-size="2.57" text-anchor="middle" fill="#141414">64</text>
<circle cx="46.958" cy="62.417" r="4.17" fill="#eaf1fe" stroke="#2e78e6" stroke-width="0.3"/>
<text x="46.958" y="64.05" font-size="4.72" text-anchor="middle" fill="#14306e" font-weight="bold">8</text>
<text x="205.0" y="295.0" font-size="3.2" text-anchor="end" fill="#737373" font-family="sans-serif">4 / 4</text>
</svg>
