<svg xmlns="http://www.w3.org/2000/svg" xmlns:xlink="http://www.w3.org/1999/xlink" width="210.00mm" height="297.00mm" viewBox="0 0 210.00 297.00">
<rect x="0" y="0" width="210.00" height="297.00" fill="#ffffff" stroke="#cccccc" stroke-width="0.2"/>
<polygon points="28.173,260.455 30.729,267.455 42.661,267.455 45.218,260.455" fill="rgb(216,216,216)"/>
<polygon points="28.173,141.25 30.729,134.25 42.661,134.25 45.218,141.25" fill="rgb(216,216,216)"/>
<polygon points="45.218,260.455 52.218,242.574 52.218,159.131 45.218,141.25" fill="rgb(216,216,216)"/>
<polygon points="28.173,277.5 27.253,280.9 22.964,280.9 22.045,277.5" fill="rgb(216,216,216)"/>
<polygon points="22.045,260.455 15.045,242.574 15.045,159.131 22.045,141.25" fill="rgb(216,216,216)"/>
<polygon points="22.045,260.455 15.045,263.012 15.045,274.943 22.045,277.5" fill="rgb(216,216,216)"/>
<polygon points="22.045,141.25 15.045,138.693 15.045,126.762 22.045,124.205" fill="rgb(216,216,216)"/>
<polygon points="28.173,260.455 30.729,267.455 42.661,267.455 45.218,260.455" fill="#99d9fa"/>
<line x1="28.173" y1="260.455" x2="28.173" y2="141.25" stroke="#8c8c8c" stroke-width="0.3" stroke-dasharray="1.2,0.8"/>
<line x1="28.173" y1="260.455" x2="22.045" y2="260.455" stroke="#8c8c8c" stroke-width="0.3" stroke-dasharray="1.2,0.8"/>
<line x1="22.045" y1="141.25" x2="28.173" y2="141.25" stroke="#8c8c8c" stroke-width="0.3" stroke-dasharray="1.2,0.8"/>
<line x1="22.045" y1="124.205" x2="28.173" y2="124.205" stroke="#8c8c8c" stroke-width="0.3" stroke-dasharray="1.2,0.8"/>
<line x1="22.045" y1="124.205" x2="22.045" y2="5.0" stroke="#8c8c8c" stroke-width="0.3" stroke-dasharray="1.2,0.8"/>
<line x1="45.218" y1="260.455" x2="28.173" y2="260.455" stroke="#8c8c8c" stroke-width="0.3" stroke-dasharray="1.2,0.8"/>
<line x1="45.218" y1="141.25" x2="28.173" y2="141.25" stroke="#8c8c8c" stroke-width="0.3" stroke-dasharray="1.2,0.8"/>
<line x1="45.218" y1="141.25" x2="45.218" y2="260.455" stroke="#8c8c8c" stroke-width="0.3" stroke-dasharray="1.2,0.8"/>
<line x1="22.045" y1="277.5" x2="28.173" y2="277.5" stroke="#8c8c8c" stroke-width="0.3" stroke-dasharray="1.2,0.8"/>
<line x1="22.045" y1="141.25" x2="22.045" y2="260.455" stroke="#8c8c8c" stroke-width="0.3" stroke-dasharray="1.2,0.8"/>
<line x1="22.045" y1="277.5" x2="22.045" y2="260.455" stroke="#8c8c8c" stroke-width="0.3" stroke-dasharray="1.2,0.8"/>
<line x1="22.045" y1="124.205" x2="22.045" y2="141.25" stroke="#8c8c8c" stroke-width="0.3" stroke-dasharray="1.2,0.8"/>
<line x1="28.173" y1="260.455" x2="28.173" y2="277.5" stroke="#141414" stroke-width="0.4"/>
<line x1="28.173" y1="124.205" x2="28.173" y2="141.25" stroke="#141414" stroke-width="0.4"/>
<line x1="28.173" y1="5.0" x2="28.173" y2="124.205" stroke="#141414" stroke-width="0.4"/>
<line x1="22.045" y1="5.0" x2="28.173" y2="5.0" stroke="#141414" stroke-width="0.4"/>
<line x1="5.0" y1="124.205" x2="5.0" y2="5.0" stroke="#141414" stroke-width="0.4"/>
<line x1="5.0" y1="5.0" x2="22.045" y2="5.0" stroke="#141414" stroke-width="0.4"/>
<line x1="22.045" y1="124.205" x2="5.0" y2="124.205" stroke="#141414" stroke-width="0.4"/>
<line x1="28.173" y1="260.455" x2="30.729" y2="267.455" stroke="#141414" stroke-width="0.4"/>
<line x1="30.729" y1="267.455" x2="42.661" y2="267.455" stroke="#141414" stroke-width="0.4"/>
<line x1="42.661" y1="267.455" x2="45.218" y2="260.455" stroke="#141414" stroke-width="0.4"/>
<line x1="28.173" y1="141.25" x2="30.729" y2="134.25" stroke="#141414" stroke-width="0.4"/>
<line x1="30.729" y1="134.25" x2="42.661" y2="134.25" stroke="#141414" stroke-width="0.4"/>
<line x1="42.661" y1="134.25" x2="45.218" y2="141.25" stroke="#141414" stroke-width="0.4"/>
<line x1="45.218" y1="260.455" x2="52.218" y2="242.574" stroke="#141414" stroke-width="0.4"/>
<line x1="52.218" y1="242.574" x2="52.218" y2="159.131" stroke="#141414" stroke-width="0.4"/>
<line x1="52.218" y1="159.131" x2="45.218" y2="141.25" stroke="#141414" stroke-width="0.4"/>
<line x1="28.173" y1="277.5" x2="27.253" y2="280.9" stroke="#141414" stroke-width="0.4"/>
<line x1="27.253" y1="280.9" x2="22.964" y2="280.9" stroke="#141414" stroke-width="0.4"/>
<line x1="22.964" y1="280.9" x2="22.045" y2="277.5" stroke="#141414" stroke-width="0.4"/>
<line x1="22.045" y1="260.455" x2="15.045" y2="242.574" stroke="#141414" stroke-width="0.4"/>
<line x1="15.045" y1="242.574" x2="15.045" y2="159.131" stroke="#141414" stroke-width="0.4"/>
<line x1="15.045" y1="159.131" x2="22.045" y2="141.25" stroke="#141414" stroke-width="0.4"/>
<line x1="22.045" y1="260.455" x2="15.045" y2="263.012" stroke="#141414" stroke-width="0.4"/>
<line x1="15.045" y1="263.012" x2="15.045" y2="274.943" stroke="#141414" stroke-width="0.4"/>
<line x1="15.045" y1="274.943" x2="22.045" y2="277.5" stroke="#141414" stroke-width="0.4"/>
<line x1="22.045" y1="141.25" x2="15.045" y2="138.693" stroke="#141414" stroke-width="0.4"/>
<line x1="15.045" y1="138.693" x2="15.045" y2="126.762" stroke="#141414" stroke-width="0.4"/>
<line x1="15.045" y1="126.762" x2="22.045" y2="124.205" stroke="#141414" stroke-width="0.4"/>
<circle cx="36.695" cy="263.955" r="1.50" fill="#99d9fa" stroke="#464646" stroke-width="0.2"/>
<text x="36.695" y="264.67" font-size="2.03" text-anchor="middle" fill="#141414">35</text>
<circle cx="36.695" cy="137.75" r="1.50" fill="#ffe082" stroke="#464646" stroke-width="0.2"/>
<text x="36.695" y="138.46" font-size="2.03" text-anchor="middle" fill="#141414">36</text>
<circle cx="48.718" cy="200.852" r="1.50" fill="#ffe082" stroke="#464646" stroke-width="0.2"/>
<text x="48.718" y="201.56" font-size="2.03" text-anchor="middle" fill="#141414">37</text>
<circle cx="25.109" cy="279.2" r="1.50" fill="#ffe082" stroke="#464646" stroke-width="0.2"/>
<text x="25.109" y="279.91" font-size="2.03" text-anchor="middle" fill="#141414">38</text>
<circle cx="18.545" cy="200.852" r="1.50" fill="#ffe082" stroke="#464646" stroke-width="0.2"/>
<text x="18.545" y="201.56" font-size="2.03" text-anchor="middle" fill="#141414">39</text>
<circle cx="18.545" cy="268.977" r="1.50" fill="#ffe082" stroke="#464646" stroke-width="0.2"/>
<text x="18.545" y="269.69" font-size="2.03" text-anchor="middle" fill="#141414">40</text>
<circle cx="18.545" cy="132.727" r="1.50" fill="#ffe082" stroke="#464646" stroke-width="0.2"/>
<text x="18.545" y="133.44" font-size="2.03" text-anchor="middle" fill="#141414">41</text>
<circle cx="28.609" cy="287.0" r="4.6" fill="#eaf1fe" stroke="#2e78e6" stroke-width="0.3"/>
<text x="28.609" y="288.8" font-size="5.2" text-anchor="middle" fill="#14306e" font-weight="bold">5</text>
<polygon points="78.39,260.455 80.947,267.455 92.879,267.455 95.435,260.455" fill="rgb(216,216,216)"/>
<polygon points="78.39,141.25 80.947,134.25 92.879,134.25 95.435,141.25" fill="rgb(216,216,216)"/>
<polygon points="95.435,260.455 102.435,242.574 102.435,159.131 95.435,141.25" fill="rgb(216,216,216)"/>
<polygon points="78.39,277.5 77.471,280.9 73.182,280.9 72.263,277.5" fill="rgb(216,216,216)"/>
<polygon points="72.263,260.455 65.263,242.574 65.263,159.131 72.263,141.25" fill="rgb(216,216,216)"/>
<polygon points="72.263,260.455 65.263,263.012 65.263,274.943 72.263,277.5" fill="rgb(216,216,216)"/>
<polygon points="72.263,141.25 65.263,138.693 65.263,126.762 72.263,124.205" fill="rgb(216,216,216)"/>
<polygon points="78.39,260.455 80.947,267.455 92.879,267.455 95.435,260.455" fill="#99d9fa"/>
<line x1="78.39" y1="260.455" x2="78.39" y2="141.25" stroke="#8c8c8c" stroke-width="0.3" stroke-dasharray="1.2,0.8"/>
<line x1="78.39" y1="260.455" x2="72.263" y2="260.455" stroke="#8c8c8c" stroke-width="0.3" stroke-dasharray="1.2,0.8"/>
<line x1="72.263" y1="141.25" x2="78.39" y2="141.25" stroke="#8c8c8c" stroke-width="0.3" stroke-dasharray="1.2,0.8"/>
<line x1="72.263" y1="124.205" x2="78.39" y2="124.205" stroke="#8c8c8c" stroke-width="0.3" stroke-dasharray="1.2,0.8"/>
<line x1="72.263" y1="124.205" x2="72.263" y2="5.0" stroke="#8c8c8c" stroke-width="0.3" stroke-dasharray="1.2,0.8"/>
<line x1="95.435" y1="260.455" x2="78.39" y2="260.455" stroke="#8c8c8c" stroke-width="0.3" stroke-dasharray="1.2,0.8"/>
<line x1="95.435" y1="141.25" x2="78.39" y2="141.25" stroke="#8c8c8c" stroke-width="0.3" stroke-dasharray="1.2,0.8"/>
<line x1="95.435" y1="141.25" x2="95.435" y2="260.455" stroke="#8c8c8c" stroke-width="0.3" stroke-dasharray="1.2,0.8"/>
<line x1="72.263" y1="277.5" x2="78.39" y2="277.5" stroke="#8c8c8c" stroke-width="0.3" stroke-dasharray="1.2,0.8"/>
<line x1="72.263" y1="141.25" x2="72.263" y2="260.455" stroke="#8c8c8c" stroke-width="0.3" stroke-dasharray="1.2,0.8"/>
<line x1="72.263" y1="277.5" x2="72.263" y2="260.455" stroke="#8c8c8c" stroke-width="0.3" stroke-dasharray="1.2,0.8"/>
<line x1="72.263" y1="124.205" x2="72.263" y2="141.25" stroke="#8c8c8c" stroke-width="0.3" stroke-dasharray="1.2,0.8"/>
<line x1="78.39" y1="260.455" x2="78.39" y2="277.5" stroke="#141414" stroke-width="0.4"/>
<line x1="78.39" y1="124.205" x2="78.39" y2="141.25" stroke="#141414" stroke-width="0.4"/>
<line x1="78.39" y1="5.0" x2="78.39" y2="124.205" stroke="#141414" stroke-width="0.4"/>
<line x1="72.263" y1="5.0" x2="78.39" y2="5.0" stroke="#141414" stroke-width="0.4"/>
<line x1="55.218" y1="124.205" x2="55.218" y2="5.0" stroke="#141414" stroke-width="0.4"/>
<line x1="55.218" y1="5.0" x2="72.263" y2="5.0" stroke="#141414" stroke-width="0.4"/>
<line x1="72.263" y1="124.205" x2="55.218" y2="124.205" stroke="#141414" stroke-width="0.4"/>
<line x1="78.39" y1="260.455" x2="80.947" y2="267.455" stroke="#141414" stroke-width="0.4"/>
<line x1="80.947" y1="267.455" x2="92.879" y2="267.455" stroke="#141414" stroke-width="0.4"/>
<line x1="92.879" y1="267.455" x2="95.435" y2="260.455" stroke="#141414" stroke-width="0.4"/>
<line x1="78.39" y1="141.25" x2="80.947" y2="134.25" stroke="#141414" stroke-width="0.4"/>
<line x1="80.947" y1="134.25" x2="92.879" y2="134.25" stroke="#141414" stroke-width="0.4"/>
<line x1="92.879" y1="134.25" x2="95.435" y2="141.25" stroke="#141414" stroke-width="0.4"/>
<line x1="95.435" y1="260.455" x2="102.435" y2="242.574" stroke="#141414" stroke-width="0.4"/>
<line x1="102.435" y1="242.574" x2="102.435" y2="159.131" stroke="#141414" stroke-width="0.4"/>
<line x1="102.435" y1="159.131" x2="95.435" y2="141.25" stroke="#141414" stroke-width="0.4"/>
<line x1="78.39" y1="277.5" x2="77.471" y2="280.9" stroke="#141414" stroke-width="0.4"/>
<line x1="77.471" y1="280.9" x2="73.182" y2="280.9" stroke="#141414" stroke-width="0.4"/>
<line x1="73.182" y1="280.9" x2="72.263" y2="277.5" stroke="#141414" stroke-width="0.4"/>
<line x1="72.263" y1="260.455" x2="65.263" y2="242.574" stroke="#141414" stroke-width="0.4"/>
<line x1="65.263" y1="242.574" x2="65.263" y2="159.131" stroke="#141414" stroke-width="0.4"/>
<line x1="65.263" y1="159.131" x2="72.263" y2="141.25" stroke="#141414" stroke-width="0.4"/>
<line x1="72.263" y1="260.455" x2="65.263" y2="263.012" stroke="#141414" stroke-width="0.4"/>
<line x1="65.263" y1="263.012" x2="65.263" y2="274.943" stroke="#141414" stroke-width="0.4"/>
<line x1="65.263" y1="274.943" x2="72.263" y2="277.5" stroke="#141414" stroke-width="0.4"/>
<line x1="72.263" y1="141.25" x2="65.263" y2="138.693" stroke="#141414" stroke-width="0.4"/>
<line x1="65.263" y1="138.693" x2="65.263" y2="126.762" stroke="#141414" stroke-width="0.4"/>
<line x1="65.263" y1="126.762" x2="72.263" y2="124.205" stroke="#141414" stroke-width="0.4"/>
<circle cx="86.913" cy="263.955" r="1.50" fill="#99d9fa" stroke="#464646" stroke-width="0.2"/>
<text x="86.913" y="264.67" font-size="2.03" text-anchor="middle" fill="#141414">42</text>
<circle cx="86.913" cy="137.75" r="1.50" fill="#ffe082" stroke="#464646" stroke-width="0.2"/>
<text x="86.913" y="138.46" font-size="2.03" text-anchor="middle" fill="#141414">43</text>
<circle cx="98.935" cy="200.852" r="1.50" fill="#ffe082" stroke="#464646" stroke-width="0.2"/>
<text x="98.935" y="201.56" font-size="2.03" text-anchor="middle" fill="#141414">44</text>
<circle cx="75.327" cy="279.2" r="1.50" fill="#ffe082" stroke="#464646" stroke-width="0.2"/>
<text x="75.327" y="279.91" font-size="2.03" text-anchor="middle" fill="#141414">45</text>
<circle cx="68.763" cy="200.852" r="1.50" fill="#ffe082" stroke="#464646" stroke-width="0.2"/>
<text x="68.763" y="201.56" font-size="2.03" text-anchor="middle" fill="#141414">46</text>
<circle cx="68.763" cy="268.977" r="1.50" fill="#ffe082" stroke="#464646" stroke-width="0.2"/>
<text x="68.763" y="269.69" font-size="2.03" text-anchor="middle" fill="#141414">47</text>
<circle cx="68.763" cy="132.727" r="1.50" fill="#ffe082" stroke="#464646" stroke-width="0.2"/>
<text x="68.763" y="133.44" font-size="2.03" text-anchor="middle" fill="#141414">48</text>
<circle cx="78.827" cy="287.0" r="4.6" fill="#eaf1fe" stroke="#2e78e6" stroke-width="0.3"/>
<text x="78.827" y="288.8" font-size="5.2" text-anchor="middle" fill="#14306e" font-weight="bold">6</text>
</svg>
