<svg xmlns="http://www.w3.org/2000/svg" xmlns:xlink="http://www.w3.org/1999/xlink" width="210.00mm" height="297.00mm" viewBox="0 0 210.00 297.00">
<rect x="0" y="0" width="210.00" height="297.00" fill="#ffffff" stroke="#cccccc" stroke-width="0.2"/>
<polygon points="84.383,30.586 80.716,22.068 81.722,19.98 90.668,17.536" fill="rgb(216,216,216)"/>
<polygon points="36.808,51.488 27.491,47.013 26.419,44.322 30.107,34.667" fill="rgb(216,216,216)"/>
<polygon points="90.668,43.636 95.041,51.815 97.301,52.33 104.79,46.86" fill="rgb(216,216,216)"/>
<polygon points="44.664,67.8 42.353,77.874 43.788,80.391 53.637,83.527" fill="rgb(216,216,216)"/>
<polygon points="104.79,46.86 110.853,50.978 118.78,44.656 116.114,37.828" fill="rgb(216,216,216)"/>
<polygon points="53.637,83.527 49.32,89.67 56.353,100.214 63.683,98.59" fill="rgb(216,216,216)"/>
<polygon points="116.114,37.828 123.114,35.656 123.114,25.516 116.114,23.344" fill="rgb(216,216,216)"/>
<polygon points="63.683,98.59 59.805,105.019 67.555,115.048 74.754,112.917" fill="rgb(216,216,216)"/>
<polygon points="116.114,23.344 118.78,16.516 110.853,10.194 104.79,14.312" fill="rgb(216,216,216)"/>
<polygon points="74.754,112.917 71.333,119.6 79.763,129.065 86.796,126.438" fill="rgb(216,216,216)"/>
<polygon points="104.79,14.312 101.114,7.971 91.228,10.228 90.668,17.536" fill="rgb(216,216,216)"/>
<polygon points="86.796,126.438 83.849,133.344 92.917,142.198 99.751,139.087" fill="rgb(216,216,216)"/>
<polygon points="134.737,100.666 134.665,111.142 110.174,138.037 99.751,139.087" fill="rgb(216,216,216)"/>
<polygon points="36.808,51.488 27.491,47.013 26.419,44.322 30.107,34.667" fill="#99d9fa"/>
<line x1="36.808" y1="51.487" x2="84.383" y2="30.586" stroke="#8c8c8c" stroke-width="0.3" stroke-dasharray="1.2,0.8"/>
<line x1="90.668" y1="43.636" x2="84.383" y2="30.586" stroke="#8c8c8c" stroke-width="0.3" stroke-dasharray="1.2,0.8"/>
<line x1="44.664" y1="67.8" x2="36.808" y2="51.487" stroke="#8c8c8c" stroke-width="0.3" stroke-dasharray="1.2,0.8"/>
<line x1="90.668" y1="43.636" x2="44.664" y2="67.8" stroke="#8c8c8c" stroke-width="0.3" stroke-dasharray="1.2,0.8"/>
<line x1="97.846" y1="56.217" x2="53.637" y2="83.527" stroke="#8c8c8c" stroke-width="0.3" stroke-dasharray="1.2,0.8"/>
<line x1="105.883" y1="68.268" x2="63.683" y2="98.59" stroke="#8c8c8c" stroke-width="0.3" stroke-dasharray="1.2,0.8"/>
<line x1="114.74" y1="79.729" x2="74.754" y2="112.917" stroke="#8c8c8c" stroke-width="0.3" stroke-dasharray="1.2,0.8"/>
<line x1="124.374" y1="90.546" x2="86.796" y2="126.438" stroke="#8c8c8c" stroke-width="0.3" stroke-dasharray="1.2,0.8"/>
<line x1="90.668" y1="17.536" x2="84.383" y2="30.586" stroke="#8c8c8c" stroke-width="0.3" stroke-dasharray="1.2,0.8"/>
<line x1="30.107" y1="34.667" x2="36.808" y2="51.488" stroke="#8c8c8c" stroke-width="0.3" stroke-dasharray="1.2,0.8"/>
<line x1="104.79" y1="46.86" x2="90.668" y2="43.636" stroke="#8c8c8c" stroke-width="0.3" stroke-dasharray="1.2,0.8"/>
<line x1="53.637" y1="83.527" x2="44.664" y2="67.8" stroke="#8c8c8c" stroke-width="0.3" stroke-dasharray="1.2,0.8"/>
<line x1="116.114" y1="37.828" x2="104.79" y2="46.86" stroke="#8c8c8c" stroke-width="0.3" stroke-dasharray="1.2,0.8"/>
<line x1="63.683" y1="98.59" x2="53.637" y2="83.527" stroke="#8c8c8c" stroke-width="0.3" stroke-dasharray="1.2,0.8"/>
<line x1="116.114" y1="23.344" x2="116.114" y2="37.828" stroke="#8c8c8c" stroke-width="0.3" stroke-dasharray="1.2,0.8"/>
<line x1="74.754" y1="112.917" x2="63.683" y2="98.59" stroke="#8c8c8c" stroke-width="0.3" stroke-dasharray="1.2,0.8"/>
<line x1="104.79" y1="14.312" x2="116.114" y2="23.344" stroke="#8c8c8c" stroke-width="0.3" stroke-dasharray="1.2,0.8"/>
<line x1="86.796" y1="126.438" x2="74.754" y2="112.917" stroke="#8c8c8c" stroke-width="0.3" stroke-dasharray="1.2,0.8"/>
<line x1="90.668" y1="17.536" x2="104.79" y2="14.312" stroke="#8c8c8c" stroke-width="0.3" stroke-dasharray="1.2,0.8"/>
<line x1="99.751" y1="139.087" x2="86.796" y2="126.438" stroke="#8c8c8c" stroke-width="0.3" stroke-dasharray="1.2,0.8"/>
<line x1="99.751" y1="139.087" x2="134.737" y2="100.666" stroke="#8c8c8c" stroke-width="0.3" stroke-dasharray="1.2,0.8"/>
<line x1="79.023" y1="17.13" x2="84.383" y2="30.586" stroke="#141414" stroke-width="0.4"/>
<line x1="19.156" y1="47.458" x2="36.808" y2="51.487" stroke="#141414" stroke-width="0.4"/>
<line x1="90.668" y1="43.636" x2="97.846" y2="56.217" stroke="#141414" stroke-width="0.4"/>
<line x1="44.664" y1="67.8" x2="36.808" y2="84.113" stroke="#141414" stroke-width="0.4"/>
<line x1="97.846" y1="56.217" x2="105.883" y2="68.268" stroke="#141414" stroke-width="0.4"/>
<line x1="36.808" y1="84.113" x2="19.156" y2="88.142" stroke="#141414" stroke-width="0.4"/>
<line x1="105.883" y1="68.268" x2="114.74" y2="79.729" stroke="#141414" stroke-width="0.4"/>
<line x1="19.156" y1="88.142" x2="5.0" y2="76.853" stroke="#141414" stroke-width="0.4"/>
<line x1="114.74" y1="79.729" x2="124.374" y2="90.546" stroke="#141414" stroke-width="0.4"/>
<line x1="5.0" y1="76.853" x2="5.0" y2="58.747" stroke="#141414" stroke-width="0.4"/>
<line x1="124.374" y1="90.546" x2="134.737" y2="100.666" stroke="#141414" stroke-width="0.4"/>
<line x1="5.0" y1="58.747" x2="19.156" y2="47.458" stroke="#141414" stroke-width="0.4"/>
<line x1="30.107" y1="34.667" x2="79.023" y2="17.13" stroke="#141414" stroke-width="0.4"/>
<line x1="84.383" y1="30.586" x2="80.716" y2="22.068" stroke="#141414" stroke-width="0.4"/>
<line x1="80.716" y1="22.068" x2="81.722" y2="19.98" stroke="#141414" stroke-width="0.4"/>
<line x1="81.722" y1="19.98" x2="90.668" y2="17.536" stroke="#141414" stroke-width="0.4"/>
<line x1="36.808" y1="51.488" x2="27.491" y2="47.013" stroke="#141414" stroke-width="0.4"/>
<line x1="27.491" y1="47.013" x2="26.419" y2="44.322" stroke="#141414" stroke-width="0.4"/>
<line x1="26.419" y1="44.322" x2="30.107" y2="34.667" stroke="#141414" stroke-width="0.4"/>
<line x1="90.668" y1="43.636" x2="95.041" y2="51.815" stroke="#141414" stroke-width="0.4"/>
<line x1="95.041" y1="51.815" x2="97.301" y2="52.33" stroke="#141414" stroke-width="0.4"/>
<line x1="97.301" y1="52.33" x2="104.79" y2="46.86" stroke="#141414" stroke-width="0.4"/>
<line x1="44.664" y1="67.8" x2="42.353" y2="77.874" stroke="#141414" stroke-width="0.4"/>
<line x1="42.353" y1="77.874" x2="43.788" y2="80.391" stroke="#141414" stroke-width="0.4"/>
<line x1="43.788" y1="80.391" x2="53.637" y2="83.527" stroke="#141414" stroke-width="0.4"/>
<line x1="104.79" y1="46.86" x2="110.853" y2="50.978" stroke="#141414" stroke-width="0.4"/>
<line x1="110.853" y1="50.978" x2="118.78" y2="44.656" stroke="#141414" stroke-width="0.4"/>
<line x1="118.78" y1="44.656" x2="116.114" y2="37.828" stroke="#141414" stroke-width="0.4"/>
<line x1="53.637" y1="83.527" x2="49.32" y2="89.67" stroke="#141414" stroke-width="0.4"/>
<line x1="49.32" y1="89.67" x2="56.353" y2="100.214" stroke="#141414" stroke-width="0.4"/>
<line x1="56.353" y1="100.214" x2="63.683" y2="98.59" stroke="#141414" stroke-width="0.4"/>
<line x1="116.114" y1="37.828" x2="123.114" y2="35.656" stroke="#141414" stroke-width="0.4"/>
<line x1="123.114" y1="35.656" x2="123.114" y2="25.516" stroke="#141414" stroke-width="0.4"/>
<line x1="123.114" y1="25.516" x2="116.114" y2="23.344" stroke="#141414" stroke-width="0.4"/>
<line x1="63.683" y1="98.59" x2="59.805" y2="105.019" stroke="#141414" stroke-width="0.4"/>
<line x1="59.805" y1="105.019" x2="67.555" y2="115.048" stroke="#141414" stroke-width="0.4"/>
<line x1="67.555" y1="115.048" x2="74.754" y2="112.917" stroke="#141414" stroke-width="0.4"/>
<line x1="116.114" y1="23.344" x2="118.78" y2="16.516" stroke="#141414" stroke-width="0.4"/>
<line x1="118.78" y1="16.516" x2="110.853" y2="10.194" stroke="#141414" stroke-width="0.4"/>
<line x1="110.853" y1="10.194" x2="104.79" y2="14.312" stroke="#141414" stroke-width="0.4"/>
<line x1="74.754" y1="112.917" x2="71.333" y2="119.6" stroke="#141414" stroke-width="0.4"/>
<line x1="71.333" y1="119.6" x2="79.763" y2="129.065" stroke="#141414" stroke-width="0.4"/>
<line x1="79.763" y1="129.065" x2="86.796" y2="126.438" stroke="#141414" stroke-width="0.4"/>
<line x1="104.79" y1="14.312" x2="101.114" y2="7.971" stroke="#141414" stroke-width="0.4"/>
<line x1="101.114" y1="7.971" x2="91.228" y2="10.228" stroke="#141414" stroke-width="0.4"/>
<line x1="91.228" y1="10.228" x2="90.668" y2="17.536" stroke="#141414" stroke-width="0.4"/>
<line x1="86.796" y1="126.438" x2="83.849" y2="133.344" stroke="#141414" stroke-width="0.4"/>
<line x1="83.849" y1="133.344" x2="92.917" y2="142.198" stroke="#141414" stroke-width="0.4"/>
<line x1="92.917" y1="142.198" x2="99.751" y2="139.087" stroke="#141414" stroke-width="0.4"/>
<line x1="134.737" y1="100.666" x2="134.665" y2="111.142" stroke="#141414" stroke-width="0.4"/>
<line x1="134.665" y1="111.142" x2="110.174" y2="138.037" stroke="#141414" stroke-width="0.4"/>
<line x1="110.174" y1="138.037" x2="99.751" y2="139.087" stroke="#141414" stroke-width="0.4"/>
<circle cx="84.372" cy="22.542" r="1.23" fill="#ffe082" stroke="#464646" stroke-width="0.2"/>
<text x="84.372" y="22.96" font-size="1.21" text-anchor="middle" fill="#141414">115</text>
<circle cx="30.206" cy="44.372" r="1.23" fill="#99d9fa" stroke="#464646" stroke-width="0.2"/>
<text x="30.206" y="44.79" font-size="1.21" text-anchor="middle" fill="#141414">116</text>
<circle cx="96.95" cy="48.66" r="1.23" fill="#ffe082" stroke="#464646" stroke-width="0.2"/>
<text x="96.95" y="49.08" font-size="1.21" text-anchor="middle" fill="#141414">117</text>
<circle cx="46.11" cy="77.398" r="1.23" fill="#ffe082" stroke="#464646" stroke-width="0.2"/>
<text x="46.11" y="77.82" font-size="1.21" text-anchor="middle" fill="#141414">118</text>
<circle cx="112.634" cy="45.08" r="1.23" fill="#ffe082" stroke="#464646" stroke-width="0.2"/>
<text x="112.634" y="45.50" font-size="1.21" text-anchor="middle" fill="#141414">119</text>
<circle cx="55.748" cy="93.0" r="1.23" fill="#ffe082" stroke="#464646" stroke-width="0.2"/>
<text x="55.748" y="93.42" font-size="1.21" text-anchor="middle" fill="#141414">120</text>
<circle cx="119.614" cy="30.586" r="1.23" fill="#ffe082" stroke="#464646" stroke-width="0.2"/>
<text x="119.614" y="31.01" font-size="1.21" text-anchor="middle" fill="#141414">121</text>
<circle cx="66.449" cy="107.893" r="1.23" fill="#ffe082" stroke="#464646" stroke-width="0.2"/>
<text x="66.449" y="108.31" font-size="1.21" text-anchor="middle" fill="#141414">122</text>
<circle cx="112.634" cy="16.092" r="1.23" fill="#ffe082" stroke="#464646" stroke-width="0.2"/>
<text x="112.634" y="16.51" font-size="1.21" text-anchor="middle" fill="#141414">123</text>
<circle cx="78.162" cy="122.005" r="1.23" fill="#ffe082" stroke="#464646" stroke-width="0.2"/>
<text x="78.162" y="122.43" font-size="1.21" text-anchor="middle" fill="#141414">124</text>
<circle cx="96.95" cy="12.512" r="1.23" fill="#ffe082" stroke="#464646" stroke-width="0.2"/>
<text x="96.95" y="12.93" font-size="1.21" text-anchor="middle" fill="#141414">125</text>
<circle cx="90.828" cy="135.267" r="1.23" fill="#ffe082" stroke="#464646" stroke-width="0.2"/>
<text x="90.828" y="135.69" font-size="1.21" text-anchor="middle" fill="#141414">126</text>
<circle cx="119.832" cy="122.233" r="1.23" fill="#ffe082" stroke="#464646" stroke-width="0.2"/>
<text x="119.832" y="122.65" font-size="1.21" text-anchor="middle" fill="#141414">127</text>
<circle cx="69.869" cy="145.327" r="4.6" fill="#eaf1fe" stroke="#2e78e6" stroke-width="0.3"/>
<text x="69.869" y="147.127" font-size="5.2" text-anchor="middle" fill="#14306e" font-weight="bold">11</text>
<polygon points="84.383,167.813 80.716,159.294 81.722,157.206 90.668,154.762" fill="rgb(216,216,216)"/>
<polygon points="36.808,188.714 27.491,184.24 26.419,181.549 30.107,171.894" fill="rgb(216,216,216)"/>
<polygon points="90.668,180.863 95.041,189.041 97.301,189.557 104.79,184.086" fill="rgb(216,216,216)"/>
<polygon points="44.664,205.027 42.353,215.101 43.788,217.618 53.637,220.754" fill="rgb(216,216,216)"/>
<polygon points="104.79,184.086 110.853,188.205 118.78,181.883 116.114,175.055" fill="rgb(216,216,216)"/>
<polygon points="53.637,220.754 49.32,226.897 56.353,237.441 63.683,235.817" fill="rgb(216,216,216)"/>
<polygon points="116.114,175.055 123.114,172.883 123.114,162.743 116.114,160.57" fill="rgb(216,216,216)"/>
<polygon points="63.683,235.817 59.805,242.246 67.555,252.275 74.754,250.144" fill="rgb(216,216,216)"/>
<polygon points="116.114,160.57 118.78,153.743 110.853,147.421 104.79,151.539" fill="rgb(216,216,216)"/>
<polygon points="74.754,250.144 71.333,256.827 79.763,266.292 86.796,263.665" fill="rgb(216,216,216)"/>
<polygon points="104.79,151.539 101.114,145.198 91.228,147.454 90.668,154.762" fill="rgb(216,216,216)"/>
<polygon points="86.796,263.665 83.849,270.571 92.917,279.425 99.751,276.314" fill="rgb(216,216,216)"/>
<polygon points="134.737,237.893 134.665,248.369 110.174,275.264 99.751,276.314" fill="rgb(216,216,216)"/>
<polygon points="36.808,188.714 27.491,184.24 26.419,181.549 30.107,171.894" fill="#99d9fa"/>
<line x1="36.808" y1="188.714" x2="84.383" y2="167.813" stroke="#8c8c8c" stroke-width="0.3" stroke-dasharray="1.2,0.8"/>
<line x1="90.668" y1="180.863" x2="84.383" y2="167.813" stroke="#8c8c8c" stroke-width="0.3" stroke-dasharray="1.2,0.8"/>
<line x1="44.664" y1="205.027" x2="36.808" y2="188.714" stroke="#8c8c8c" stroke-width="0.3" stroke-dasharray="1.2,0.8"/>
<line x1="90.668" y1="180.863" x2="44.664" y2="205.027" stroke="#8c8c8c" stroke-width="0.3" stroke-dasharray="1.2,0.8"/>
<line x1="97.846" y1="193.444" x2="53.637" y2="220.754" stroke="#8c8c8c" stroke-width="0.3" stroke-dasharray="1.2,0.8"/>
<line x1="105.883" y1="205.495" x2="63.683" y2="235.817" stroke="#8c8c8c" stroke-width="0.3" stroke-dasharray="1.2,0.8"/>
<line x1="114.74" y1="216.956" x2="74.754" y2="250.144" stroke="#8c8c8c" stroke-width="0.3" stroke-dasharray="1.2,0.8"/>
<line x1="124.374" y1="227.773" x2="86.796" y2="263.665" stroke="#8c8c8c" stroke-width="0.3" stroke-dasharray="1.2,0.8"/>
<line x1="90.668" y1="154.762" x2="84.383" y2="167.813" stroke="#8c8c8c" stroke-width="0.3" stroke-dasharray="1.2,0.8"/>
<line x1="30.107" y1="171.894" x2="36.808" y2="188.714" stroke="#8c8c8c" stroke-width="0.3" stroke-dasharray="1.2,0.8"/>
<line x1="104.79" y1="184.086" x2="90.668" y2="180.863" stroke="#8c8c8c" stroke-width="0.3" stroke-dasharray="1.2,0.8"/>
<line x1="53.637" y1="220.754" x2="44.664" y2="205.027" stroke="#8c8c8c" stroke-width="0.3" stroke-dasharray="1.2,0.8"/>
<line x1="116.114" y1="175.055" x2="104.79" y2="184.086" stroke="#8c8c8c" stroke-width="0.3" stroke-dasharray="1.2,0.8"/>
<line x1="63.683" y1="235.817" x2="53.637" y2="220.754" stroke="#8c8c8c" stroke-width="0.3" stroke-dasharray="1.2,0.8"/>
<line x1="116.114" y1="160.57" x2="116.114" y2="175.055" stroke="#8c8c8c" stroke-width="0.3" stroke-dasharray="1.2,0.8"/>
<line x1="74.754" y1="250.144" x2="63.683" y2="235.817" stroke="#8c8c8c" stroke-width="0.3" stroke-dasharray="1.2,0.8"/>
<line x1="104.79" y1="151.539" x2="116.114" y2="160.57" stroke="#8c8c8c" stroke-width="0.3" stroke-dasharray="1.2,0.8"/>
<line x1="86.796" y1="263.665" x2="74.754" y2="250.144" stroke="#8c8c8c" stroke-width="0.3" stroke-dasharray="1.2,0.8"/>
<line x1="90.668" y1="154.762" x2="104.79" y2="151.539" stroke="#8c8c8c" stroke-width="0.3" stroke-dasharray="1.2,0.8"/>
<line x1="99.751" y1="276.314" x2="86.796" y2="263.665" stroke="#8c8c8c" stroke-width="0.3" stroke-dasharray="1.2,0.8"/>
<line x1="99.751" y1="276.314" x2="134.737" y2="237.893" stroke="#8c8c8c" stroke-width="0.3" stroke-dasharray="1.2,0.8"/>
<line x1="79.023" y1="154.357" x2="84.383" y2="167.813" stroke="#141414" stroke-width="0.4"/>
<line x1="19.156" y1="184.685" x2="36.808" y2="188.714" stroke="#141414" stroke-width="0.4"/>
<line x1="90.668" y1="180.863" x2="97.846" y2="193.444" stroke="#141414" stroke-width="0.4"/>
<line x1="44.664" y1="205.027" x2="36.808" y2="221.34" stroke="#141414" stroke-width="0.4"/>
<line x1="97.846" y1="193.444" x2="105.883" y2="205.495" stroke="#141414" stroke-width="0.4"/>
<line x1="36.808" y1="221.34" x2="19.156" y2="225.369" stroke="#141414" stroke-width="0.4"/>
<line x1="105.883" y1="205.495" x2="114.74" y2="216.956" stroke="#141414" stroke-width="0.4"/>
<line x1="19.156" y1="225.369" x2="5.0" y2="214.08" stroke="#141414" stroke-width="0.4"/>
<line x1="114.74" y1="216.956" x2="124.374" y2="227.773" stroke="#141414" stroke-width="0.4"/>
<line x1="5.0" y1="214.08" x2="5.0" y2="195.974" stroke="#141414" stroke-width="0.4"/>
<line x1="124.374" y1="227.773" x2="134.737" y2="237.893" stroke="#141414" stroke-width="0.4"/>
<line x1="5.0" y1="195.974" x2="19.156" y2="184.685" stroke="#141414" stroke-width="0.4"/>
<line x1="30.107" y1="171.894" x2="79.023" y2="154.357" stroke="#141414" stroke-width="0.4"/>
<line x1="84.383" y1="167.813" x2="80.716" y2="159.294" stroke="#141414" stroke-width="0.4"/>
<line x1="80.716" y1="159.294" x2="81.722" y2="157.206" stroke="#141414" stroke-width="0.4"/>
<line x1="81.722" y1="157.206" x2="90.668" y2="154.762" stroke="#141414" stroke-width="0.4"/>
<line x1="36.808" y1="188.714" x2="27.491" y2="184.24" stroke="#141414" stroke-width="0.4"/>
<line x1="27.491" y1="184.24" x2="26.419" y2="181.549" stroke="#141414" stroke-width="0.4"/>
<line x1="26.419" y1="181.549" x2="30.107" y2="171.894" stroke="#141414" stroke-width="0.4"/>
<line x1="90.668" y1="180.863" x2="95.041" y2="189.041" stroke="#141414" stroke-width="0.4"/>
<line x1="95.041" y1="189.041" x2="97.301" y2="189.557" stroke="#141414" stroke-width="0.4"/>
<line x1="97.301" y1="189.557" x2="104.79" y2="184.086" stroke="#141414" stroke-width="0.4"/>
<line x1="44.664" y1="205.027" x2="42.353" y2="215.101" stroke="#141414" stroke-width="0.4"/>
<line x1="42.353" y1="215.101" x2="43.788" y2="217.618" stroke="#141414" stroke-width="0.4"/>
<line x1="43.788" y1="217.618" x2="53.637" y2="220.754" stroke="#141414" stroke-width="0.4"/>
<line x1="104.79" y1="184.086" x2="110.853" y2="188.205" stroke="#141414" stroke-width="0.4"/>
<line x1="110.853" y1="188.205" x2="118.78" y2="181.883" stroke="#141414" stroke-width="0.4"/>
<line x1="118.78" y1="181.883" x2="116.114" y2="175.055" stroke="#141414" stroke-width="0.4"/>
<line x1="53.637" y1="220.754" x2="49.32" y2="226.897" stroke="#141414" stroke-width="0.4"/>
<line x1="49.32" y1="226.897" x2="56.353" y2="237.441" stroke="#141414" stroke-width="0.4"/>
<line x1="56.353" y1="237.441" x2="63.683" y2="235.817" stroke="#141414" stroke-width="0.4"/>
<line x1="116.114" y1="175.055" x2="123.114" y2="172.883" stroke="#141414" stroke-width="0.4"/>
<line x1="123.114" y1="172.883" x2="123.114" y2="162.743" stroke="#141414" stroke-width="0.4"/>
<line x1="123.114" y1="162.743" x2="116.114" y2="160.57" stroke="#141414" stroke-width="0.4"/>
<line x1="63.683" y1="235.817" x2="59.805" y2="242.246" stroke="#141414" stroke-width="0.4"/>
<line x1="59.805" y1="242.246" x2="67.555" y2="252.275" stroke="#141414" stroke-width="0.4"/>
<line x1="67.555" y1="252.275" x2="74.754" y2="250.144" stroke="#141414" stroke-width="0.4"/>
<line x1="116.114" y1="160.57" x2="118.78" y2="153.743" stroke="#141414" stroke-width="0.4"/>
<line x1="118.78" y1="153.743" x2="110.853" y2="147.421" stroke="#141414" stroke-width="0.4"/>
<line x1="110.853" y1="147.421" x2="104.79" y2="151.539" stroke="#141414" stroke-width="0.4"/>
<line x1="74.754" y1="250.144" x2="71.333" y2="256.827" stroke="#141414" stroke-width="0.4"/>
<line x1="71.333" y1="256.827" x2="79.763" y2="266.292" stroke="#141414" stroke-width="0.4"/>
<line x1="79.763" y1="266.292" x2="86.796" y2="263.665" stroke="#141414" stroke-width="0.4"/>
<line x1="104.79" y1="151.539" x2="101.114" y2="145.198" stroke="#141414" stroke-width="0.4"/>
<line x1="101.114" y1="145.198" x2="91.228" y2="147.454" stroke="#141414" stroke-width="0.4"/>
<line x1="91.228" y1="147.454" x2="90.668" y2="154.762" stroke="#141414" stroke-width="0.4"/>
<line x1="86.796" y1="263.665" x2="83.849" y2="270.571" stroke="#141414" stroke-width="0.4"/>
<line x1="83.849" y1="270.571" x2="92.917" y2="279.425" stroke="#141414" stroke-width="0.4"/>
<line x1="92.917" y1="279.425" x2="99.751" y2="276.314" stroke="#141414" stroke-width="0.4"/>
<line x1="134.737" y1="237.893" x2="134.665" y2="248.369" stroke="#141414" stroke-width="0.4"/>
<line x1="134.665" y1="248.369" x2="110.174" y2="275.264" stroke="#141414" stroke-width="0.4"/>
<line x1="110.174" y1="275.264" x2="99.751" y2="276.314" stroke="#141414" stroke-width="0.4"/>
<circle cx="84.372" cy="159.769" r="1.23" fill="#ffe082" stroke="#464646" stroke-width="0.2"/>
<text x="84.372" y="160.19" font-size="1.21" text-anchor="middle" fill="#141414">128</text>
<circle cx="30.206" cy="181.599" r="1.23" fill="#99d9fa" stroke="#464646" stroke-width="0.2"/>
<text x="30.206" y="182.02" font-size="1.21" text-anchor="middle" fill="#141414">129</text>
<circle cx="96.95" cy="185.887" r="1.23" fill="#ffe082" stroke="#464646" stroke-width="0.2"/>
<text x="96.95" y="186.31" font-size="1.21" text-anchor="middle" fill="#141414">130</text>
<circle cx="46.11" cy="214.625" r="1.23" fill="#ffe082" stroke="#464646" stroke-width="0.2"/>
<text x="46.11" y="215.05" font-size="1.21" text-anchor="middle" fill="#141414">131</text>
<circle cx="112.634" cy="182.307" r="1.23" fill="#ffe082" stroke="#464646" stroke-width="0.2"/>
<text x="112.634" y="182.73" font-size="1.21" text-anchor="middle" fill="#141414">132</text>
<circle cx="55.748" cy="230.227" r="1.23" fill="#ffe082" stroke="#464646" stroke-width="0.2"/>
<text x="55.748" y="230.65" font-size="1.21" text-anchor="middle" fill="#141414">133</text>
<circle cx="119.614" cy="167.813" r="1.23" fill="#ffe082" stroke="#464646" stroke-width="0.2"/>
<text x="119.614" y="168.23" font-size="1.21" text-anchor="middle" fill="#141414">134</text>
<circle cx="66.449" cy="245.12" r="1.23" fill="#ffe082" stroke="#464646" stroke-width="0.2"/>
<text x="66.449" y="245.54" font-size="1.21" text-anchor="middle" fill="#141414">135</text>
<circle cx="112.634" cy="153.319" r="1.23" fill="#ffe082" stroke="#464646" stroke-width="0.2"/>
<text x="112.634" y="153.74" font-size="1.21" text-anchor="middle" fill="#141414">136</text>
<circle cx="78.162" cy="259.232" r="1.23" fill="#ffe082" stroke="#464646" stroke-width="0.2"/>
<text x="78.162" y="259.65" font-size="1.21" text-anchor="middle" fill="#141414">137</text>
<circle cx="96.95" cy="149.739" r="1.23" fill="#ffe082" stroke="#464646" stroke-width="0.2"/>
<text x="96.95" y="150.16" font-size="1.21" text-anchor="middle" fill="#141414">138</text>
<circle cx="90.828" cy="272.494" r="1.23" fill="#ffe082" stroke="#464646" stroke-width="0.2"/>
<text x="90.828" y="272.92" font-size="1.21" text-anchor="middle" fill="#141414">139</text>
<circle cx="119.832" cy="259.46" r="1.23" fill="#ffe082" stroke="#464646" stroke-width="0.2"/>
<text x="119.832" y="259.88" font-size="1.21" text-anchor="middle" fill="#141414">140</text>
<circle cx="69.869" cy="136.127" r="4.6" fill="#eaf1fe" stroke="#2e78e6" stroke-width="0.3"/>
<text x="69.869" y="137.92700000000002" font-size="5.2" text-anchor="middle" fill="#14306e" font-weight="bold">12</text>
<text x="205.0" y="295.0" font-size="3.2" text-anchor="end" fill="#737373" font-family="sans-serif">6 / 11</text>
</svg>
