<svg xmlns="http://www.w3.org/2000/svg" xmlns:xlink="http://www.w3.org/1999/xlink" width="210.00mm" height="297.00mm" viewBox="0 0 210.00 297.00">
<rect x="0" y="0" width="210.00" height="297.00" fill="#ffffff" stroke="#cccccc" stroke-width="0.2"/>
<polygon points="68.542,135.489 58.18,139.695 38.355,175.236 40.22,186.262" fill="rgb(216,216,216)"/>
<polygon points="40.22,186.262 59.866,189.289 66.802,187.832 83.57,177.158" fill="rgb(216,216,216)"/>
<polygon points="14.567,113.883 27.923,99.16 34.228,95.924 53.976,93.656" fill="rgb(216,216,216)"/>
<polygon points="10.144,87.258 7.688,77.008 25.031,44.576 34.92,40.928" fill="rgb(216,216,216)"/>
<polygon points="182.834,179.344 184.698,190.37 164.873,225.911 154.512,230.117" fill="rgb(216,216,216)"/>
<polygon points="182.834,179.344 163.187,176.317 156.252,177.774 139.483,188.448" fill="rgb(216,216,216)"/>
<polygon points="129.708,29.448 116.353,44.171 110.047,47.407 90.299,49.675" fill="rgb(216,216,216)"/>
<polygon points="161.894,102.403 154.013,95.403 117.236,95.403 109.355,102.403" fill="rgb(216,216,216)"/>
<polygon points="161.894,102.403 160.18,112.804 131.611,135.964 121.081,135.489" fill="rgb(216,216,216)"/>
<polygon points="75.733,7.842 65.203,7.368 36.634,30.527 34.92,40.928" fill="rgb(216,216,216)"/>
<polygon points="154.512,230.117 146.631,237.117 109.853,237.117 101.972,230.117" fill="rgb(216,216,216)"/>
<line x1="83.57" y1="177.158" x2="68.542" y2="135.489" stroke="#8c8c8c" stroke-width="0.3" stroke-dasharray="1.2,0.8"/>
<line x1="53.976" y1="93.656" x2="68.542" y2="135.489" stroke="#8c8c8c" stroke-width="0.3" stroke-dasharray="1.2,0.8"/>
<line x1="109.355" y1="102.403" x2="68.542" y2="135.489" stroke="#8c8c8c" stroke-width="0.3" stroke-dasharray="1.2,0.8"/>
<line x1="68.542" y1="135.489" x2="121.081" y2="135.489" stroke="#8c8c8c" stroke-width="0.3" stroke-dasharray="1.2,0.8"/>
<line x1="101.972" y1="230.117" x2="53.55" y2="209.73" stroke="#8c8c8c" stroke-width="0.3" stroke-dasharray="1.2,0.8"/>
<line x1="139.483" y1="188.448" x2="154.512" y2="230.117" stroke="#8c8c8c" stroke-width="0.3" stroke-dasharray="1.2,0.8"/>
<line x1="90.299" y1="49.675" x2="75.733" y2="7.842" stroke="#8c8c8c" stroke-width="0.3" stroke-dasharray="1.2,0.8"/>
<line x1="139.483" y1="188.448" x2="83.57" y2="177.158" stroke="#8c8c8c" stroke-width="0.3" stroke-dasharray="1.2,0.8"/>
<line x1="101.972" y1="230.117" x2="139.483" y2="188.448" stroke="#8c8c8c" stroke-width="0.3" stroke-dasharray="1.2,0.8"/>
<line x1="121.081" y1="135.489" x2="139.483" y2="188.448" stroke="#8c8c8c" stroke-width="0.3" stroke-dasharray="1.2,0.8"/>
<line x1="83.57" y1="177.158" x2="101.972" y2="230.117" stroke="#8c8c8c" stroke-width="0.3" stroke-dasharray="1.2,0.8"/>
<line x1="121.081" y1="135.489" x2="83.57" y2="177.158" stroke="#8c8c8c" stroke-width="0.3" stroke-dasharray="1.2,0.8"/>
<line x1="53.976" y1="93.656" x2="90.299" y2="49.675" stroke="#8c8c8c" stroke-width="0.3" stroke-dasharray="1.2,0.8"/>
<line x1="90.299" y1="49.675" x2="34.92" y2="40.928" stroke="#8c8c8c" stroke-width="0.3" stroke-dasharray="1.2,0.8"/>
<line x1="90.299" y1="49.675" x2="109.355" y2="102.403" stroke="#8c8c8c" stroke-width="0.3" stroke-dasharray="1.2,0.8"/>
<line x1="34.92" y1="40.928" x2="53.976" y2="93.656" stroke="#8c8c8c" stroke-width="0.3" stroke-dasharray="1.2,0.8"/>
<line x1="53.976" y1="93.656" x2="109.355" y2="102.403" stroke="#8c8c8c" stroke-width="0.3" stroke-dasharray="1.2,0.8"/>
<line x1="78.327" y1="256.06" x2="101.972" y2="230.117" stroke="#8c8c8c" stroke-width="0.3" stroke-dasharray="1.2,0.8"/>
<line x1="109.355" y1="102.403" x2="121.081" y2="135.489" stroke="#8c8c8c" stroke-width="0.3" stroke-dasharray="1.2,0.8"/>
<line x1="40.22" y1="186.262" x2="68.542" y2="135.489" stroke="#8c8c8c" stroke-width="0.3" stroke-dasharray="1.2,0.8"/>
<line x1="83.57" y1="177.158" x2="40.22" y2="186.262" stroke="#8c8c8c" stroke-width="0.3" stroke-dasharray="1.2,0.8"/>
<line x1="53.976" y1="93.656" x2="14.567" y2="113.883" stroke="#8c8c8c" stroke-width="0.3" stroke-dasharray="1.2,0.8"/>
<line x1="34.92" y1="40.928" x2="10.144" y2="87.258" stroke="#8c8c8c" stroke-width="0.3" stroke-dasharray="1.2,0.8"/>
<line x1="154.512" y1="230.117" x2="182.834" y2="179.344" stroke="#8c8c8c" stroke-width="0.3" stroke-dasharray="1.2,0.8"/>
<line x1="139.483" y1="188.448" x2="182.834" y2="179.344" stroke="#8c8c8c" stroke-width="0.3" stroke-dasharray="1.2,0.8"/>
<line x1="90.299" y1="49.675" x2="129.708" y2="29.448" stroke="#8c8c8c" stroke-width="0.3" stroke-dasharray="1.2,0.8"/>
<line x1="109.355" y1="102.403" x2="161.894" y2="102.403" stroke="#8c8c8c" stroke-width="0.3" stroke-dasharray="1.2,0.8"/>
<line x1="121.081" y1="135.489" x2="161.894" y2="102.403" stroke="#8c8c8c" stroke-width="0.3" stroke-dasharray="1.2,0.8"/>
<line x1="34.92" y1="40.928" x2="75.733" y2="7.842" stroke="#8c8c8c" stroke-width="0.3" stroke-dasharray="1.2,0.8"/>
<line x1="101.972" y1="230.117" x2="154.512" y2="230.117" stroke="#8c8c8c" stroke-width="0.3" stroke-dasharray="1.2,0.8"/>
<line x1="68.542" y1="135.489" x2="14.567" y2="113.883" stroke="#141414" stroke-width="0.4"/>
<line x1="53.55" y1="209.73" x2="83.57" y2="177.158" stroke="#141414" stroke-width="0.4"/>
<line x1="53.976" y1="93.656" x2="10.144" y2="87.258" stroke="#141414" stroke-width="0.4"/>
<line x1="78.327" y1="256.06" x2="53.55" y2="209.73" stroke="#141414" stroke-width="0.4"/>
<line x1="75.733" y1="7.842" x2="129.708" y2="29.448" stroke="#141414" stroke-width="0.4"/>
<line x1="169.503" y1="155.876" x2="139.483" y2="188.448" stroke="#141414" stroke-width="0.4"/>
<line x1="90.299" y1="49.675" x2="134.131" y2="56.073" stroke="#141414" stroke-width="0.4"/>
<line x1="134.131" y1="56.073" x2="109.355" y2="102.403" stroke="#141414" stroke-width="0.4"/>
<line x1="121.081" y1="135.489" x2="169.503" y2="155.876" stroke="#141414" stroke-width="0.4"/>
<line x1="126.749" y1="276.447" x2="78.327" y2="256.06" stroke="#141414" stroke-width="0.4"/>
<line x1="101.972" y1="230.117" x2="126.749" y2="276.447" stroke="#141414" stroke-width="0.4"/>
<line x1="68.542" y1="135.489" x2="58.18" y2="139.695" stroke="#141414" stroke-width="0.4"/>
<line x1="58.18" y1="139.695" x2="38.355" y2="175.236" stroke="#141414" stroke-width="0.4"/>
<line x1="38.355" y1="175.236" x2="40.22" y2="186.262" stroke="#141414" stroke-width="0.4"/>
<line x1="40.22" y1="186.262" x2="59.866" y2="189.289" stroke="#141414" stroke-width="0.4"/>
<line x1="59.866" y1="189.289" x2="66.802" y2="187.832" stroke="#141414" stroke-width="0.4"/>
<line x1="66.802" y1="187.832" x2="83.57" y2="177.158" stroke="#141414" stroke-width="0.4"/>
<line x1="14.567" y1="113.883" x2="27.923" y2="99.16" stroke="#141414" stroke-width="0.4"/>
<line x1="27.923" y1="99.16" x2="34.228" y2="95.924" stroke="#141414" stroke-width="0.4"/>
<line x1="34.228" y1="95.924" x2="53.976" y2="93.656" stroke="#141414" stroke-width="0.4"/>
<line x1="10.144" y1="87.258" x2="7.688" y2="77.008" stroke="#141414" stroke-width="0.4"/>
<line x1="7.688" y1="77.008" x2="25.031" y2="44.576" stroke="#141414" stroke-width="0.4"/>
<line x1="25.031" y1="44.576" x2="34.92" y2="40.928" stroke="#141414" stroke-width="0.4"/>
<line x1="182.834" y1="179.344" x2="184.698" y2="190.37" stroke="#141414" stroke-width="0.4"/>
<line x1="184.698" y1="190.37" x2="164.873" y2="225.911" stroke="#141414" stroke-width="0.4"/>
<line x1="164.873" y1="225.911" x2="154.512" y2="230.117" stroke="#141414" stroke-width="0.4"/>
<line x1="182.834" y1="179.344" x2="163.187" y2="176.317" stroke="#141414" stroke-width="0.4"/>
<line x1="163.187" y1="176.317" x2="156.252" y2="177.774" stroke="#141414" stroke-width="0.4"/>
<line x1="156.252" y1="177.774" x2="139.483" y2="188.448" stroke="#141414" stroke-width="0.4"/>
<line x1="129.708" y1="29.448" x2="116.353" y2="44.171" stroke="#141414" stroke-width="0.4"/>
<line x1="116.353" y1="44.171" x2="110.047" y2="47.407" stroke="#141414" stroke-width="0.4"/>
<line x1="110.047" y1="47.407" x2="90.299" y2="49.675" stroke="#141414" stroke-width="0.4"/>
<line x1="161.894" y1="102.403" x2="154.013" y2="95.403" stroke="#141414" stroke-width="0.4"/>
<line x1="154.013" y1="95.403" x2="117.236" y2="95.403" stroke="#141414" stroke-width="0.4"/>
<line x1="117.236" y1="95.403" x2="109.355" y2="102.403" stroke="#141414" stroke-width="0.4"/>
<line x1="161.894" y1="102.403" x2="160.18" y2="112.804" stroke="#141414" stroke-width="0.4"/>
<line x1="160.18" y1="112.804" x2="131.611" y2="135.964" stroke="#141414" stroke-width="0.4"/>
<line x1="131.611" y1="135.964" x2="121.081" y2="135.489" stroke="#141414" stroke-width="0.4"/>
<line x1="75.733" y1="7.842" x2="65.203" y2="7.368" stroke="#141414" stroke-width="0.4"/>
<line x1="65.203" y1="7.368" x2="36.634" y2="30.527" stroke="#141414" stroke-width="0.4"/>
<line x1="36.634" y1="30.527" x2="34.92" y2="40.928" stroke="#141414" stroke-width="0.4"/>
<line x1="154.512" y1="230.117" x2="146.631" y2="237.117" stroke="#141414" stroke-width="0.4"/>
<line x1="146.631" y1="237.117" x2="109.853" y2="237.117" stroke="#141414" stroke-width="0.4"/>
<line x1="109.853" y1="237.117" x2="101.972" y2="230.117" stroke="#141414" stroke-width="0.4"/>
<circle cx="51.324" cy="159.17" r="1.23" fill="#ffe082" stroke="#464646" stroke-width="0.2"/>
<text x="51.324" y="159.59" font-size="1.21" text-anchor="middle" fill="#141414">12</text>
<circle cx="62.614" cy="185.135" r="1.23" fill="#ffe082" stroke="#464646" stroke-width="0.2"/>
<text x="62.614" y="185.56" font-size="1.21" text-anchor="middle" fill="#141414">13</text>
<circle cx="32.673" cy="100.656" r="1.23" fill="#ffe082" stroke="#464646" stroke-width="0.2"/>
<text x="32.673" y="101.08" font-size="1.21" text-anchor="middle" fill="#141414">14</text>
<circle cx="19.446" cy="62.443" r="1.23" fill="#ffe082" stroke="#464646" stroke-width="0.2"/>
<text x="19.446" y="62.86" font-size="1.21" text-anchor="middle" fill="#141414">15</text>
<circle cx="171.729" cy="206.436" r="1.23" fill="#ffe082" stroke="#464646" stroke-width="0.2"/>
<text x="171.729" y="206.86" font-size="1.21" text-anchor="middle" fill="#141414">16</text>
<circle cx="160.439" cy="180.471" r="1.23" fill="#ffe082" stroke="#464646" stroke-width="0.2"/>
<text x="160.439" y="180.89" font-size="1.21" text-anchor="middle" fill="#141414">17</text>
<circle cx="111.602" cy="42.675" r="1.23" fill="#ffe082" stroke="#464646" stroke-width="0.2"/>
<text x="111.602" y="43.10" font-size="1.21" text-anchor="middle" fill="#141414">18</text>
<circle cx="135.624" cy="98.903" r="1.23" fill="#ffe082" stroke="#464646" stroke-width="0.2"/>
<text x="135.624" y="99.32" font-size="1.21" text-anchor="middle" fill="#141414">19</text>
<circle cx="143.691" cy="121.665" r="1.23" fill="#ffe082" stroke="#464646" stroke-width="0.2"/>
<text x="143.691" y="122.09" font-size="1.21" text-anchor="middle" fill="#141414">20</text>
<circle cx="53.123" cy="21.666" r="1.23" fill="#ffe082" stroke="#464646" stroke-width="0.2"/>
<text x="53.123" y="22.09" font-size="1.21" text-anchor="middle" fill="#141414">21</text>
<circle cx="128.242" cy="233.617" r="1.23" fill="#ffe082" stroke="#464646" stroke-width="0.2"/>
<text x="128.242" y="234.04" font-size="1.21" text-anchor="middle" fill="#141414">22</text>
<circle cx="93.505" cy="280.18" r="4.6" fill="#eaf1fe" stroke="#2e78e6" stroke-width="0.3"/>
<text x="93.505" y="281.98" font-size="5.2" text-anchor="middle" fill="#14306e" font-weight="bold">2</text>
</svg>
