<svg xmlns="http://www.w3.org/2000/svg" xmlns:xlink="http://www.w3.org/1999/xlink" width="210.00mm" height="297.00mm" viewBox="0 0 210.00 297.00">
<rect x="0" y="0" width="210.00" height="297.00" fill="#ffffff" stroke="#cccccc" stroke-width="0.2"/>
<polygon points="70.47,85.197 57.734,84.316 18.056,54.188 13.787,42.157" fill="rgb(216,216,216)"/>
<polygon points="69.607,83.689 57.039,65.613 34.711,49.001 13.787,42.157" fill="rgb(216,216,216)"/>
<polygon points="168.001,105.881 157.568,98.275 107.02,95.391 95.79,101.762" fill="rgb(216,216,216)"/>
<polygon points="168.001,105.881 146.483,111.909 118.217,110.621 97.336,102.663" fill="rgb(216,216,216)"/>
<polygon points="161.16,155.682 157.499,162.193 145.479,160.307 143.988,152.987" fill="rgb(216,216,216)"/>
<polygon points="161.16,155.682 158.085,147.624 151.593,145.902 144.929,151.376" fill="rgb(216,216,216)"/>
<polygon points="54.38,16.778 56.421,10.971 49.748,6.111 44.847,9.836" fill="rgb(216,216,216)"/>
<polygon points="7.664,176.563 5.54,169.192 16.719,159.74 23.634,163.06" fill="rgb(216,216,216)"/>
<polygon points="52.759,17.703 45.502,18.355 44.237,17.096 44.847,9.836" fill="rgb(216,216,216)"/>
<polygon points="95.79,101.762 90.443,93.642 81.601,91.989 73.683,97.63" fill="rgb(216,216,216)"/>
<polygon points="25.013,175.486 36.968,179.95 85.526,168.924 94.382,159.735" fill="rgb(216,216,216)"/>
<polygon points="72.057,98.539 71.651,98.627 5.758,114.641 5.0,113.109" fill="rgb(216,216,216)"/>
<polygon points="24.892,145.704 36.701,140.947 85.344,150.769 94.382,159.735" fill="rgb(216,216,216)"/>
<polygon points="95.79,101.762 90.443,93.642 81.601,91.989 73.683,97.63" fill="#99d9fa"/>
<line x1="69.607" y1="83.689" x2="70.47" y2="85.197" stroke="#8c8c8c" stroke-width="0.3" stroke-dasharray="1.2,0.8"/>
<line x1="70.47" y1="85.197" x2="88.387" y2="80.614" stroke="#8c8c8c" stroke-width="0.3" stroke-dasharray="1.2,0.8"/>
<line x1="73.683" y1="97.63" x2="70.47" y2="85.197" stroke="#8c8c8c" stroke-width="0.3" stroke-dasharray="1.2,0.8"/>
<line x1="69.607" y1="83.689" x2="54.38" y2="16.778" stroke="#8c8c8c" stroke-width="0.3" stroke-dasharray="1.2,0.8"/>
<line x1="52.759" y1="17.703" x2="69.607" y2="83.689" stroke="#8c8c8c" stroke-width="0.3" stroke-dasharray="1.2,0.8"/>
<line x1="52.759" y1="17.703" x2="54.38" y2="16.778" stroke="#8c8c8c" stroke-width="0.3" stroke-dasharray="1.2,0.8"/>
<line x1="95.79" y1="101.762" x2="97.337" y2="102.663" stroke="#8c8c8c" stroke-width="0.3" stroke-dasharray="1.2,0.8"/>
<line x1="86.647" y1="110.891" x2="95.79" y2="101.762" stroke="#8c8c8c" stroke-width="0.3" stroke-dasharray="1.2,0.8"/>
<line x1="97.337" y1="102.663" x2="143.988" y2="152.987" stroke="#8c8c8c" stroke-width="0.3" stroke-dasharray="1.2,0.8"/>
<line x1="97.337" y1="102.663" x2="144.929" y2="151.376" stroke="#8c8c8c" stroke-width="0.3" stroke-dasharray="1.2,0.8"/>
<line x1="144.929" y1="151.376" x2="143.988" y2="152.987" stroke="#8c8c8c" stroke-width="0.3" stroke-dasharray="1.2,0.8"/>
<line x1="25.013" y1="175.486" x2="23.634" y2="163.06" stroke="#8c8c8c" stroke-width="0.3" stroke-dasharray="1.2,0.8"/>
<line x1="72.057" y1="98.539" x2="73.683" y2="97.63" stroke="#8c8c8c" stroke-width="0.3" stroke-dasharray="1.2,0.8"/>
<line x1="86.647" y1="110.891" x2="73.683" y2="97.63" stroke="#8c8c8c" stroke-width="0.3" stroke-dasharray="1.2,0.8"/>
<line x1="24.892" y1="145.704" x2="72.057" y2="98.539" stroke="#8c8c8c" stroke-width="0.3" stroke-dasharray="1.2,0.8"/>
<line x1="22.213" y1="145.704" x2="24.892" y2="145.704" stroke="#8c8c8c" stroke-width="0.3" stroke-dasharray="1.2,0.8"/>
<line x1="23.634" y1="163.06" x2="22.213" y2="145.704" stroke="#8c8c8c" stroke-width="0.3" stroke-dasharray="1.2,0.8"/>
<line x1="24.892" y1="145.704" x2="23.634" y2="163.06" stroke="#8c8c8c" stroke-width="0.3" stroke-dasharray="1.2,0.8"/>
<line x1="23.634" y1="163.06" x2="94.382" y2="159.735" stroke="#8c8c8c" stroke-width="0.3" stroke-dasharray="1.2,0.8"/>
<line x1="54.38" y1="16.778" x2="70.47" y2="85.197" stroke="#8c8c8c" stroke-width="0.3" stroke-dasharray="1.2,0.8"/>
<line x1="143.988" y1="152.987" x2="95.79" y2="101.762" stroke="#8c8c8c" stroke-width="0.3" stroke-dasharray="1.2,0.8"/>
<line x1="73.683" y1="97.63" x2="5.0" y2="113.109" stroke="#8c8c8c" stroke-width="0.3" stroke-dasharray="1.2,0.8"/>
<line x1="24.892" y1="145.704" x2="73.683" y2="97.63" stroke="#8c8c8c" stroke-width="0.3" stroke-dasharray="1.2,0.8"/>
<line x1="13.787" y1="42.157" x2="70.47" y2="85.197" stroke="#8c8c8c" stroke-width="0.3" stroke-dasharray="1.2,0.8"/>
<line x1="13.787" y1="42.157" x2="69.607" y2="83.689" stroke="#8c8c8c" stroke-width="0.3" stroke-dasharray="1.2,0.8"/>
<line x1="95.79" y1="101.762" x2="168.001" y2="105.881" stroke="#8c8c8c" stroke-width="0.3" stroke-dasharray="1.2,0.8"/>
<line x1="97.336" y1="102.663" x2="168.001" y2="105.881" stroke="#8c8c8c" stroke-width="0.3" stroke-dasharray="1.2,0.8"/>
<line x1="143.988" y1="152.987" x2="161.16" y2="155.682" stroke="#8c8c8c" stroke-width="0.3" stroke-dasharray="1.2,0.8"/>
<line x1="144.929" y1="151.376" x2="161.16" y2="155.682" stroke="#8c8c8c" stroke-width="0.3" stroke-dasharray="1.2,0.8"/>
<line x1="44.847" y1="9.836" x2="54.38" y2="16.778" stroke="#8c8c8c" stroke-width="0.3" stroke-dasharray="1.2,0.8"/>
<line x1="23.634" y1="163.06" x2="7.664" y2="176.563" stroke="#8c8c8c" stroke-width="0.3" stroke-dasharray="1.2,0.8"/>
<line x1="44.847" y1="9.836" x2="52.759" y2="17.703" stroke="#8c8c8c" stroke-width="0.3" stroke-dasharray="1.2,0.8"/>
<line x1="73.683" y1="97.63" x2="95.79" y2="101.762" stroke="#8c8c8c" stroke-width="0.3" stroke-dasharray="1.2,0.8"/>
<line x1="94.382" y1="159.735" x2="25.013" y2="175.486" stroke="#8c8c8c" stroke-width="0.3" stroke-dasharray="1.2,0.8"/>
<line x1="5.0" y1="113.109" x2="72.057" y2="98.539" stroke="#8c8c8c" stroke-width="0.3" stroke-dasharray="1.2,0.8"/>
<line x1="94.382" y1="159.735" x2="24.892" y2="145.704" stroke="#8c8c8c" stroke-width="0.3" stroke-dasharray="1.2,0.8"/>
<line x1="5.0" y1="113.109" x2="70.47" y2="85.197" stroke="#141414" stroke-width="0.4"/>
<line x1="69.607" y1="83.689" x2="41.821" y2="19.902" stroke="#141414" stroke-width="0.4"/>
<line x1="54.38" y1="16.778" x2="88.387" y2="80.614" stroke="#141414" stroke-width="0.4"/>
<line x1="97.337" y1="102.663" x2="157.363" y2="140.089" stroke="#141414" stroke-width="0.4"/>
<line x1="25.013" y1="175.486" x2="7.665" y2="176.563" stroke="#141414" stroke-width="0.4"/>
<line x1="157.363" y1="140.089" x2="144.929" y2="151.376" stroke="#141414" stroke-width="0.4"/>
<line x1="10.472" y1="146.808" x2="22.213" y2="145.704" stroke="#141414" stroke-width="0.4"/>
<line x1="23.634" y1="163.06" x2="10.472" y2="146.808" stroke="#141414" stroke-width="0.4"/>
<line x1="41.821" y1="19.902" x2="52.759" y2="17.703" stroke="#141414" stroke-width="0.4"/>
<line x1="88.387" y1="80.614" x2="73.683" y2="97.63" stroke="#141414" stroke-width="0.4"/>
<line x1="143.988" y1="152.987" x2="86.647" y2="110.891" stroke="#141414" stroke-width="0.4"/>
<line x1="22.213" y1="145.704" x2="72.057" y2="98.539" stroke="#141414" stroke-width="0.4"/>
<line x1="86.647" y1="110.891" x2="24.892" y2="145.704" stroke="#141414" stroke-width="0.4"/>
<line x1="70.47" y1="85.197" x2="57.734" y2="84.316" stroke="#141414" stroke-width="0.4"/>
<line x1="57.734" y1="84.316" x2="18.056" y2="54.188" stroke="#141414" stroke-width="0.4"/>
<line x1="18.056" y1="54.188" x2="13.787" y2="42.157" stroke="#141414" stroke-width="0.4"/>
<line x1="69.607" y1="83.689" x2="57.039" y2="65.613" stroke="#141414" stroke-width="0.4"/>
<line x1="57.039" y1="65.613" x2="34.711" y2="49.001" stroke="#141414" stroke-width="0.4"/>
<line x1="34.711" y1="49.001" x2="13.787" y2="42.157" stroke="#141414" stroke-width="0.4"/>
<line x1="168.001" y1="105.881" x2="157.568" y2="98.275" stroke="#141414" stroke-width="0.4"/>
<line x1="157.568" y1="98.275" x2="107.02" y2="95.391" stroke="#141414" stroke-width="0.4"/>
<line x1="107.02" y1="95.391" x2="95.79" y2="101.762" stroke="#141414" stroke-width="0.4"/>
<line x1="168.001" y1="105.881" x2="146.483" y2="111.909" stroke="#141414" stroke-width="0.4"/>
<line x1="146.483" y1="111.909" x2="118.217" y2="110.621" stroke="#141414" stroke-width="0.4"/>
<line x1="118.217" y1="110.621" x2="97.336" y2="102.663" stroke="#141414" stroke-width="0.4"/>
<line x1="161.16" y1="155.682" x2="157.499" y2="162.193" stroke="#141414" stroke-width="0.4"/>
<line x1="157.499" y1="162.193" x2="145.479" y2="160.307" stroke="#141414" stroke-width="0.4"/>
<line x1="145.479" y1="160.307" x2="143.988" y2="152.987" stroke="#141414" stroke-width="0.4"/>
<line x1="161.16" y1="155.682" x2="158.085" y2="147.624" stroke="#141414" stroke-width="0.4"/>
<line x1="158.085" y1="147.624" x2="151.593" y2="145.902" stroke="#141414" stroke-width="0.4"/>
<line x1="151.593" y1="145.902" x2="144.929" y2="151.376" stroke="#141414" stroke-width="0.4"/>
<line x1="54.38" y1="16.778" x2="56.421" y2="10.971" stroke="#141414" stroke-width="0.4"/>
<line x1="56.421" y1="10.971" x2="49.748" y2="6.111" stroke="#141414" stroke-width="0.4"/>
<line x1="49.748" y1="6.111" x2="44.847" y2="9.836" stroke="#141414" stroke-width="0.4"/>
<line x1="7.664" y1="176.563" x2="5.54" y2="169.192" stroke="#141414" stroke-width="0.4"/>
<line x1="5.54" y1="169.192" x2="16.719" y2="159.74" stroke="#141414" stroke-width="0.4"/>
<line x1="16.719" y1="159.74" x2="23.634" y2="163.06" stroke="#141414" stroke-width="0.4"/>
<line x1="52.759" y1="17.703" x2="45.502" y2="18.355" stroke="#141414" stroke-width="0.4"/>
<line x1="45.502" y1="18.355" x2="44.237" y2="17.096" stroke="#141414" stroke-width="0.4"/>
<line x1="44.237" y1="17.096" x2="44.847" y2="9.836" stroke="#141414" stroke-width="0.4"/>
<line x1="95.79" y1="101.762" x2="90.443" y2="93.642" stroke="#141414" stroke-width="0.4"/>
<line x1="90.443" y1="93.642" x2="81.601" y2="91.989" stroke="#141414" stroke-width="0.4"/>
<line x1="81.601" y1="91.989" x2="73.683" y2="97.63" stroke="#141414" stroke-width="0.4"/>
<line x1="25.013" y1="175.486" x2="36.968" y2="179.95" stroke="#141414" stroke-width="0.4"/>
<line x1="36.968" y1="179.95" x2="85.526" y2="168.924" stroke="#141414" stroke-width="0.4"/>
<line x1="85.526" y1="168.924" x2="94.382" y2="159.735" stroke="#141414" stroke-width="0.4"/>
<line x1="72.057" y1="98.539" x2="71.651" y2="98.627" stroke="#141414" stroke-width="0.4"/>
<line x1="71.651" y1="98.627" x2="5.758" y2="114.641" stroke="#141414" stroke-width="0.4"/>
<line x1="5.758" y1="114.641" x2="5.0" y2="113.109" stroke="#141414" stroke-width="0.4"/>
<line x1="24.892" y1="145.704" x2="36.701" y2="140.947" stroke="#141414" stroke-width="0.4"/>
<line x1="36.701" y1="140.947" x2="85.344" y2="150.769" stroke="#141414" stroke-width="0.4"/>
<line x1="85.344" y1="150.769" x2="94.382" y2="159.735" stroke="#141414" stroke-width="0.4"/>
<circle cx="40.012" cy="66.464" r="1.05" fill="#ffe082" stroke="#464646" stroke-width="0.2"/>
<text x="40.012" y="66.96" font-size="1.42" text-anchor="middle" fill="#141414">54</text>
<circle cx="43.786" cy="60.115" r="1.05" fill="#ffe082" stroke="#464646" stroke-width="0.2"/>
<text x="43.786" y="60.61" font-size="1.42" text-anchor="middle" fill="#141414">55</text>
<circle cx="132.095" cy="100.327" r="1.05" fill="#ffe082" stroke="#464646" stroke-width="0.2"/>
<text x="132.095" y="100.82" font-size="1.42" text-anchor="middle" fill="#141414">56</text>
<circle cx="132.51" cy="107.768" r="1.05" fill="#ffe082" stroke="#464646" stroke-width="0.2"/>
<text x="132.51" y="108.27" font-size="1.42" text-anchor="middle" fill="#141414">57</text>
<circle cx="152.031" cy="157.792" r="1.05" fill="#ffe082" stroke="#464646" stroke-width="0.2"/>
<text x="152.031" y="158.29" font-size="1.42" text-anchor="middle" fill="#141414">58</text>
<circle cx="153.942" cy="150.146" r="1.05" fill="#ffe082" stroke="#464646" stroke-width="0.2"/>
<text x="153.942" y="150.64" font-size="1.42" text-anchor="middle" fill="#141414">59</text>
<circle cx="51.349" cy="10.924" r="1.05" fill="#ffe082" stroke="#464646" stroke-width="0.2"/>
<text x="51.349" y="11.42" font-size="1.42" text-anchor="middle" fill="#141414">60</text>
<circle cx="13.39" cy="167.139" r="1.05" fill="#ffe082" stroke="#464646" stroke-width="0.2"/>
<text x="13.39" y="167.64" font-size="1.42" text-anchor="middle" fill="#141414">61</text>
<circle cx="46.836" cy="15.747" r="1.05" fill="#ffe082" stroke="#464646" stroke-width="0.2"/>
<text x="46.836" y="16.24" font-size="1.42" text-anchor="middle" fill="#141414">62</text>
<circle cx="85.379" cy="96.256" r="1.05" fill="#99d9fa" stroke="#464646" stroke-width="0.2"/>
<text x="85.379" y="96.75" font-size="1.42" text-anchor="middle" fill="#141414">63</text>
<circle cx="60.472" cy="171.024" r="1.05" fill="#ffe082" stroke="#464646" stroke-width="0.2"/>
<text x="60.472" y="171.52" font-size="1.42" text-anchor="middle" fill="#141414">64</text>
<circle cx="60.33" cy="149.289" r="1.05" fill="#ffe082" stroke="#464646" stroke-width="0.2"/>
<text x="60.33" y="149.79" font-size="1.42" text-anchor="middle" fill="#141414">66</text>
<circle cx="86.501" cy="184.939" r="4.6" fill="#eaf1fe" stroke="#2e78e6" stroke-width="0.3"/>
<text x="86.501" y="186.739" font-size="5.2" text-anchor="middle" fill="#14306e" font-weight="bold">6</text>
<text x="205.0" y="295.0" font-size="3.2" text-anchor="end" fill="#737373" font-family="sans-serif">4 / 4</text>
<g pointer-events="none"><text x="105.0" y="83.2" text-anchor="middle" font-family="sans-serif" font-size="12.4" fill="#9aa0a6" fill-opacity="0.3" transform="rotate(-28 105.0 83.2)">papercraft.kr</text><text x="105.0" y="148.5" text-anchor="middle" font-family="sans-serif" font-size="12.4" fill="#9aa0a6" fill-opacity="0.3" transform="rotate(-28 105.0 148.5)">papercraft.kr</text><text x="105.0" y="213.8" text-anchor="middle" font-family="sans-serif" font-size="12.4" fill="#9aa0a6" fill-opacity="0.3" transform="rotate(-28 105.0 213.8)">papercraft.kr</text></g></svg>
