<svg xmlns="http://www.w3.org/2000/svg" xmlns:xlink="http://www.w3.org/1999/xlink" width="210.00mm" height="297.00mm" viewBox="0 0 210.00 297.00">
<rect x="0" y="0" width="210.00" height="297.00" fill="#ffffff" stroke="#cccccc" stroke-width="0.2"/>
<polygon points="25.668,55.092 18.949,49.052 11.245,15.446 14.662,7.083" fill="rgb(216,216,216)"/>
<polygon points="25.668,55.092 20.062,61.951 18.124,95.367 22.9,102.828" fill="rgb(216,216,216)"/>
<polygon points="14.662,7.083 27.382,10.125 72.176,43.731 78.655,55.092" fill="rgb(216,216,216)"/>
<polygon points="22.9,102.828 24.321,109.505 42.485,119.317 48.848,116.844" fill="rgb(216,216,216)"/>
<polygon points="78.655,55.092 78.867,66.615 58.002,109.841 48.848,116.844" fill="rgb(216,216,216)"/>
<line x1="25.668" y1="55.092" x2="78.655" y2="55.092" stroke="#8c8c8c" stroke-width="0.3" stroke-dasharray="1.2,0.8"/>
<line x1="14.662" y1="7.083" x2="25.668" y2="55.092" stroke="#8c8c8c" stroke-width="0.3" stroke-dasharray="1.2,0.8"/>
<line x1="22.9" y1="102.828" x2="25.668" y2="55.092" stroke="#8c8c8c" stroke-width="0.3" stroke-dasharray="1.2,0.8"/>
<line x1="78.655" y1="55.092" x2="14.662" y2="7.083" stroke="#8c8c8c" stroke-width="0.3" stroke-dasharray="1.2,0.8"/>
<line x1="48.848" y1="116.844" x2="22.9" y2="102.828" stroke="#8c8c8c" stroke-width="0.3" stroke-dasharray="1.2,0.8"/>
<line x1="48.848" y1="116.844" x2="78.655" y2="55.092" stroke="#8c8c8c" stroke-width="0.3" stroke-dasharray="1.2,0.8"/>
<line x1="25.668" y1="55.092" x2="18.949" y2="49.052" stroke="#141414" stroke-width="0.4"/>
<line x1="18.949" y1="49.052" x2="11.245" y2="15.446" stroke="#141414" stroke-width="0.4"/>
<line x1="11.245" y1="15.446" x2="14.662" y2="7.083" stroke="#141414" stroke-width="0.4"/>
<line x1="25.668" y1="55.092" x2="20.062" y2="61.951" stroke="#141414" stroke-width="0.4"/>
<line x1="20.062" y1="61.951" x2="18.124" y2="95.367" stroke="#141414" stroke-width="0.4"/>
<line x1="18.124" y1="95.367" x2="22.9" y2="102.828" stroke="#141414" stroke-width="0.4"/>
<line x1="14.662" y1="7.083" x2="27.382" y2="10.125" stroke="#141414" stroke-width="0.4"/>
<line x1="27.382" y1="10.125" x2="72.176" y2="43.731" stroke="#141414" stroke-width="0.4"/>
<line x1="72.176" y1="43.731" x2="78.655" y2="55.092" stroke="#141414" stroke-width="0.4"/>
<line x1="22.9" y1="102.828" x2="24.321" y2="109.505" stroke="#141414" stroke-width="0.4"/>
<line x1="24.321" y1="109.505" x2="42.485" y2="119.317" stroke="#141414" stroke-width="0.4"/>
<line x1="42.485" y1="119.317" x2="48.848" y2="116.844" stroke="#141414" stroke-width="0.4"/>
<line x1="78.655" y1="55.092" x2="78.867" y2="66.615" stroke="#141414" stroke-width="0.4"/>
<line x1="78.867" y1="66.615" x2="58.002" y2="109.841" stroke="#141414" stroke-width="0.4"/>
<line x1="58.002" y1="109.841" x2="48.848" y2="116.844" stroke="#141414" stroke-width="0.4"/>
<circle cx="17.631" cy="31.668" r="2.29" fill="#ffe082" stroke="#464646" stroke-width="0.2"/>
<text x="17.631" y="32.45" font-size="2.24" text-anchor="middle" fill="#141414">106</text>
<circle cx="21.689" cy="78.809" r="2.29" fill="#ffe082" stroke="#464646" stroke-width="0.2"/>
<text x="21.689" y="79.59" font-size="2.24" text-anchor="middle" fill="#141414">107</text>
<circle cx="48.219" cy="29.007" r="2.29" fill="#ffe082" stroke="#464646" stroke-width="0.2"/>
<text x="48.219" y="29.79" font-size="2.24" text-anchor="middle" fill="#141414">113</text>
<circle cx="34.639" cy="112.124" r="2.29" fill="#ffe082" stroke="#464646" stroke-width="0.2"/>
<text x="34.639" y="112.91" font-size="2.24" text-anchor="middle" fill="#141414">115</text>
<circle cx="66.093" cy="87.098" r="2.29" fill="#ffe082" stroke="#464646" stroke-width="0.2"/>
<text x="66.093" y="87.88" font-size="2.24" text-anchor="middle" fill="#141414">116</text>
<circle cx="51.057" cy="75.676" r="4.60" fill="#eaf1fe" stroke="#2e78e6" stroke-width="0.3"/>
<text x="51.057" y="77.48" font-size="5.20" text-anchor="middle" fill="#14306e" font-weight="bold">25</text>
<polygon points="157.142,251.658 145.307,254.335 95.384,243.147 85.823,235.675" fill="rgb(216,216,216)"/>
<polygon points="157.142,251.658 158.708,239.27 142.858,188.718 134.5,179.441" fill="rgb(216,216,216)"/>
<polygon points="125.298,120.234 131.817,128.316 138.258,169.761 134.5,179.441" fill="rgb(216,216,216)"/>
<polygon points="85.823,235.675 80.802,238.747 69.727,232.197 70.001,226.317" fill="rgb(216,216,216)"/>
<polygon points="90.09,165.468 88.679,181.537 90.065,187.187 98.754,200.779" fill="rgb(216,216,216)"/>
<polygon points="39.988,157.429 36.199,152.229 18.518,152.229 14.729,157.429" fill="rgb(216,216,216)"/>
<polygon points="14.729,157.429 11.052,162.693 16.817,179.294 22.965,181.145" fill="rgb(216,216,216)"/>
<line x1="85.823" y1="235.675" x2="134.5" y2="179.441" stroke="#8c8c8c" stroke-width="0.3" stroke-dasharray="1.2,0.8"/>
<line x1="98.754" y1="200.779" x2="85.823" y2="235.675" stroke="#8c8c8c" stroke-width="0.3" stroke-dasharray="1.2,0.8"/>
<line x1="90.091" y1="165.468" x2="134.5" y2="179.441" stroke="#8c8c8c" stroke-width="0.3" stroke-dasharray="1.2,0.8"/>
<line x1="134.5" y1="179.441" x2="98.754" y2="200.779" stroke="#8c8c8c" stroke-width="0.3" stroke-dasharray="1.2,0.8"/>
<line x1="70.001" y1="226.317" x2="39.988" y2="157.429" stroke="#8c8c8c" stroke-width="0.3" stroke-dasharray="1.2,0.8"/>
<line x1="39.988" y1="157.429" x2="22.965" y2="181.145" stroke="#8c8c8c" stroke-width="0.3" stroke-dasharray="1.2,0.8"/>
<line x1="70.001" y1="226.317" x2="98.754" y2="200.779" stroke="#8c8c8c" stroke-width="0.3" stroke-dasharray="1.2,0.8"/>
<line x1="85.823" y1="235.675" x2="157.142" y2="251.658" stroke="#8c8c8c" stroke-width="0.3" stroke-dasharray="1.2,0.8"/>
<line x1="134.5" y1="179.441" x2="157.142" y2="251.658" stroke="#8c8c8c" stroke-width="0.3" stroke-dasharray="1.2,0.8"/>
<line x1="134.5" y1="179.441" x2="125.298" y2="120.234" stroke="#8c8c8c" stroke-width="0.3" stroke-dasharray="1.2,0.8"/>
<line x1="70.001" y1="226.317" x2="85.823" y2="235.675" stroke="#8c8c8c" stroke-width="0.3" stroke-dasharray="1.2,0.8"/>
<line x1="98.754" y1="200.779" x2="90.09" y2="165.468" stroke="#8c8c8c" stroke-width="0.3" stroke-dasharray="1.2,0.8"/>
<line x1="14.729" y1="157.429" x2="39.988" y2="157.429" stroke="#8c8c8c" stroke-width="0.3" stroke-dasharray="1.2,0.8"/>
<line x1="22.965" y1="181.145" x2="14.729" y2="157.429" stroke="#8c8c8c" stroke-width="0.3" stroke-dasharray="1.2,0.8"/>
<line x1="90.091" y1="165.468" x2="125.299" y2="120.234" stroke="#141414" stroke-width="0.4"/>
<line x1="70.001" y1="226.317" x2="22.965" y2="181.145" stroke="#141414" stroke-width="0.4"/>
<line x1="39.988" y1="157.429" x2="98.754" y2="200.779" stroke="#141414" stroke-width="0.4"/>
<line x1="157.142" y1="251.658" x2="145.307" y2="254.335" stroke="#141414" stroke-width="0.4"/>
<line x1="145.307" y1="254.335" x2="95.384" y2="243.147" stroke="#141414" stroke-width="0.4"/>
<line x1="95.384" y1="243.147" x2="85.823" y2="235.675" stroke="#141414" stroke-width="0.4"/>
<line x1="157.142" y1="251.658" x2="158.708" y2="239.27" stroke="#141414" stroke-width="0.4"/>
<line x1="158.708" y1="239.27" x2="142.858" y2="188.718" stroke="#141414" stroke-width="0.4"/>
<line x1="142.858" y1="188.718" x2="134.5" y2="179.441" stroke="#141414" stroke-width="0.4"/>
<line x1="125.298" y1="120.234" x2="131.817" y2="128.316" stroke="#141414" stroke-width="0.4"/>
<line x1="131.817" y1="128.316" x2="138.258" y2="169.761" stroke="#141414" stroke-width="0.4"/>
<line x1="138.258" y1="169.761" x2="134.5" y2="179.441" stroke="#141414" stroke-width="0.4"/>
<line x1="85.823" y1="235.675" x2="80.802" y2="238.747" stroke="#141414" stroke-width="0.4"/>
<line x1="80.802" y1="238.747" x2="69.727" y2="232.197" stroke="#141414" stroke-width="0.4"/>
<line x1="69.727" y1="232.197" x2="70.001" y2="226.317" stroke="#141414" stroke-width="0.4"/>
<line x1="90.09" y1="165.468" x2="88.679" y2="181.537" stroke="#141414" stroke-width="0.4"/>
<line x1="88.679" y1="181.537" x2="90.065" y2="187.187" stroke="#141414" stroke-width="0.4"/>
<line x1="90.065" y1="187.187" x2="98.754" y2="200.779" stroke="#141414" stroke-width="0.4"/>
<line x1="39.988" y1="157.429" x2="36.199" y2="152.229" stroke="#141414" stroke-width="0.4"/>
<line x1="36.199" y1="152.229" x2="18.518" y2="152.229" stroke="#141414" stroke-width="0.4"/>
<line x1="18.518" y1="152.229" x2="14.729" y2="157.429" stroke="#141414" stroke-width="0.4"/>
<line x1="14.729" y1="157.429" x2="11.052" y2="162.693" stroke="#141414" stroke-width="0.4"/>
<line x1="11.052" y1="162.693" x2="16.817" y2="179.294" stroke="#141414" stroke-width="0.4"/>
<line x1="16.817" y1="179.294" x2="22.965" y2="181.145" stroke="#141414" stroke-width="0.4"/>
<circle cx="120.914" cy="246.204" r="2.29" fill="#ffe082" stroke="#464646" stroke-width="0.2"/>
<text x="120.914" y="246.99" font-size="2.24" text-anchor="middle" fill="#141414">55</text>
<circle cx="148.302" cy="214.772" r="2.29" fill="#ffe082" stroke="#464646" stroke-width="0.2"/>
<text x="148.302" y="215.56" font-size="2.24" text-anchor="middle" fill="#141414">56</text>
<circle cx="132.468" cy="149.438" r="2.29" fill="#ffe082" stroke="#464646" stroke-width="0.2"/>
<text x="132.468" y="150.22" font-size="2.24" text-anchor="middle" fill="#141414">72</text>
<circle cx="76.588" cy="233.234" r="2.29" fill="#ffe082" stroke="#464646" stroke-width="0.2"/>
<text x="76.588" y="234.02" font-size="2.24" text-anchor="middle" fill="#141414">86</text>
<circle cx="91.897" cy="183.743" r="2.29" fill="#ffe082" stroke="#464646" stroke-width="0.2"/>
<text x="91.897" y="184.53" font-size="2.24" text-anchor="middle" fill="#141414">100</text>
<circle cx="27.358" cy="154.829" r="2.29" fill="#ffe082" stroke="#464646" stroke-width="0.2"/>
<text x="27.358" y="155.61" font-size="2.24" text-anchor="middle" fill="#141414">118</text>
<circle cx="16.391" cy="170.14" r="2.29" fill="#ffe082" stroke="#464646" stroke-width="0.2"/>
<text x="16.391" y="170.92" font-size="2.24" text-anchor="middle" fill="#141414">119</text>
<circle cx="116.63" cy="155.047" r="4.60" fill="#eaf1fe" stroke="#2e78e6" stroke-width="0.3"/>
<text x="116.63" y="156.85" font-size="5.20" text-anchor="middle" fill="#14306e" font-weight="bold">26</text>
<text x="205.0" y="295.0" font-size="3.2" text-anchor="end" fill="#737373" font-family="sans-serif">18 / 20</text>
<g pointer-events="none"><text x="105.0" y="83.2" text-anchor="middle" font-family="sans-serif" font-size="12.4" fill="#9aa0a6" fill-opacity="0.3" transform="rotate(-28 105.0 83.2)">papercraft.kr</text><text x="105.0" y="148.5" text-anchor="middle" font-family="sans-serif" font-size="12.4" fill="#9aa0a6" fill-opacity="0.3" transform="rotate(-28 105.0 148.5)">papercraft.kr</text><text x="105.0" y="213.8" text-anchor="middle" font-family="sans-serif" font-size="12.4" fill="#9aa0a6" fill-opacity="0.3" transform="rotate(-28 105.0 213.8)">papercraft.kr</text></g></svg>
