<svg xmlns="http://www.w3.org/2000/svg" xmlns:xlink="http://www.w3.org/1999/xlink" width="210.00mm" height="297.00mm" viewBox="0 0 210.00 297.00">
<rect x="0" y="0" width="210.00" height="297.00" fill="#ffffff" stroke="#cccccc" stroke-width="0.2"/>
<polygon points="59.25,86.914 57.7,74.037 79.878,28.165 90.933,21.382" fill="rgb(216,216,216)"/>
<polygon points="60.604,85.984 76.039,69.579 88.171,43.738 90.933,21.382" fill="rgb(216,216,216)"/>
<polygon points="127.02,68.681 121.892,80.435 80.006,108.001 67.182,108.061" fill="rgb(216,216,216)"/>
<polygon points="152.05,126.65 150.625,134.186 136.402,137.575 131.731,131.492" fill="rgb(216,216,216)"/>
<polygon points="152.05,126.65 145.464,120.172 137.454,120.836 132.025,128.31" fill="rgb(216,216,216)"/>
<polygon points="127.02,68.681 134.393,70.546 142.787,59.494 139.011,52.892" fill="rgb(216,216,216)"/>
<polygon points="43.652,220.841 35.569,220.264 27.161,203.159 31.642,196.406" fill="rgb(216,216,216)"/>
<polygon points="125.727,66.868 124.638,57.853 129.952,52.262 139.011,52.892" fill="rgb(216,216,216)"/>
<polygon points="65.464,108.061 58.013,104.109 38.649,114.467 37.802,122.859" fill="rgb(216,216,216)"/>
<polygon points="52.509,201.924 60.456,191.682 65.009,140.963 59.013,129.469" fill="rgb(216,216,216)"/>
<polygon points="37.802,122.859 29.902,133.307 25.59,184.79 31.642,196.406" fill="rgb(216,216,216)"/>
<polygon points="65.464,108.061 58.013,104.109 38.649,114.467 37.802,122.859" fill="#99d9fa"/>
<line x1="60.604" y1="85.984" x2="59.25" y2="86.914" stroke="#8c8c8c" stroke-width="0.3" stroke-dasharray="1.2,0.8"/>
<line x1="59.25" y1="86.914" x2="65.464" y2="108.061" stroke="#8c8c8c" stroke-width="0.3" stroke-dasharray="1.2,0.8"/>
<line x1="37.867" y1="93.143" x2="59.25" y2="86.914" stroke="#8c8c8c" stroke-width="0.3" stroke-dasharray="1.2,0.8"/>
<line x1="60.604" y1="85.984" x2="127.02" y2="68.681" stroke="#8c8c8c" stroke-width="0.3" stroke-dasharray="1.2,0.8"/>
<line x1="125.727" y1="66.868" x2="60.604" y2="85.984" stroke="#8c8c8c" stroke-width="0.3" stroke-dasharray="1.2,0.8"/>
<line x1="125.727" y1="66.868" x2="127.02" y2="68.681" stroke="#8c8c8c" stroke-width="0.3" stroke-dasharray="1.2,0.8"/>
<line x1="65.464" y1="108.061" x2="67.182" y2="108.061" stroke="#8c8c8c" stroke-width="0.3" stroke-dasharray="1.2,0.8"/>
<line x1="59.013" y1="129.469" x2="65.464" y2="108.061" stroke="#8c8c8c" stroke-width="0.3" stroke-dasharray="1.2,0.8"/>
<line x1="67.182" y1="108.061" x2="131.731" y2="131.492" stroke="#8c8c8c" stroke-width="0.3" stroke-dasharray="1.2,0.8"/>
<line x1="67.182" y1="108.061" x2="132.025" y2="128.31" stroke="#8c8c8c" stroke-width="0.3" stroke-dasharray="1.2,0.8"/>
<line x1="132.025" y1="128.31" x2="131.731" y2="131.492" stroke="#8c8c8c" stroke-width="0.3" stroke-dasharray="1.2,0.8"/>
<line x1="52.509" y1="201.924" x2="31.642" y2="196.406" stroke="#8c8c8c" stroke-width="0.3" stroke-dasharray="1.2,0.8"/>
<line x1="37.867" y1="93.143" x2="21.263" y2="24.824" stroke="#8c8c8c" stroke-width="0.3" stroke-dasharray="1.2,0.8"/>
<line x1="59.013" y1="129.469" x2="37.802" y2="122.859" stroke="#8c8c8c" stroke-width="0.3" stroke-dasharray="1.2,0.8"/>
<line x1="5.0" y1="27.06" x2="21.263" y2="24.824" stroke="#8c8c8c" stroke-width="0.3" stroke-dasharray="1.2,0.8"/>
<line x1="31.642" y1="196.406" x2="59.013" y2="129.469" stroke="#8c8c8c" stroke-width="0.3" stroke-dasharray="1.2,0.8"/>
<line x1="127.02" y1="68.681" x2="59.25" y2="86.914" stroke="#8c8c8c" stroke-width="0.3" stroke-dasharray="1.2,0.8"/>
<line x1="127.02" y1="68.681" x2="65.464" y2="108.061" stroke="#8c8c8c" stroke-width="0.3" stroke-dasharray="1.2,0.8"/>
<line x1="131.731" y1="131.492" x2="65.464" y2="108.061" stroke="#8c8c8c" stroke-width="0.3" stroke-dasharray="1.2,0.8"/>
<line x1="90.933" y1="21.382" x2="59.25" y2="86.914" stroke="#8c8c8c" stroke-width="0.3" stroke-dasharray="1.2,0.8"/>
<line x1="90.933" y1="21.382" x2="60.604" y2="85.984" stroke="#8c8c8c" stroke-width="0.3" stroke-dasharray="1.2,0.8"/>
<line x1="67.182" y1="108.061" x2="127.02" y2="68.681" stroke="#8c8c8c" stroke-width="0.3" stroke-dasharray="1.2,0.8"/>
<line x1="131.731" y1="131.492" x2="152.05" y2="126.65" stroke="#8c8c8c" stroke-width="0.3" stroke-dasharray="1.2,0.8"/>
<line x1="132.025" y1="128.31" x2="152.05" y2="126.65" stroke="#8c8c8c" stroke-width="0.3" stroke-dasharray="1.2,0.8"/>
<line x1="139.011" y1="52.892" x2="127.02" y2="68.681" stroke="#8c8c8c" stroke-width="0.3" stroke-dasharray="1.2,0.8"/>
<line x1="31.642" y1="196.406" x2="43.652" y2="220.841" stroke="#8c8c8c" stroke-width="0.3" stroke-dasharray="1.2,0.8"/>
<line x1="139.011" y1="52.892" x2="125.727" y2="66.868" stroke="#8c8c8c" stroke-width="0.3" stroke-dasharray="1.2,0.8"/>
<line x1="37.802" y1="122.859" x2="65.464" y2="108.061" stroke="#8c8c8c" stroke-width="0.3" stroke-dasharray="1.2,0.8"/>
<line x1="59.013" y1="129.469" x2="52.509" y2="201.924" stroke="#8c8c8c" stroke-width="0.3" stroke-dasharray="1.2,0.8"/>
<line x1="31.642" y1="196.406" x2="37.802" y2="122.859" stroke="#8c8c8c" stroke-width="0.3" stroke-dasharray="1.2,0.8"/>
<line x1="21.263" y1="24.824" x2="59.25" y2="86.914" stroke="#141414" stroke-width="0.4"/>
<line x1="60.604" y1="85.984" x2="121.115" y2="48.146" stroke="#141414" stroke-width="0.4"/>
<line x1="67.182" y1="108.061" x2="138.803" y2="109.394" stroke="#141414" stroke-width="0.4"/>
<line x1="52.509" y1="201.924" x2="43.652" y2="220.841" stroke="#141414" stroke-width="0.4"/>
<line x1="138.803" y1="109.394" x2="132.025" y2="128.31" stroke="#141414" stroke-width="0.4"/>
<line x1="20.958" y1="5.0" x2="21.263" y2="24.824" stroke="#141414" stroke-width="0.4"/>
<line x1="5.0" y1="27.06" x2="20.958" y2="5.0" stroke="#141414" stroke-width="0.4"/>
<line x1="121.115" y1="48.146" x2="125.727" y2="66.868" stroke="#141414" stroke-width="0.4"/>
<line x1="65.464" y1="108.061" x2="37.867" y2="93.143" stroke="#141414" stroke-width="0.4"/>
<line x1="131.731" y1="131.492" x2="59.013" y2="129.469" stroke="#141414" stroke-width="0.4"/>
<line x1="37.867" y1="93.143" x2="5.0" y2="27.06" stroke="#141414" stroke-width="0.4"/>
<line x1="59.25" y1="86.914" x2="57.7" y2="74.037" stroke="#141414" stroke-width="0.4"/>
<line x1="57.7" y1="74.037" x2="79.878" y2="28.165" stroke="#141414" stroke-width="0.4"/>
<line x1="79.878" y1="28.165" x2="90.933" y2="21.382" stroke="#141414" stroke-width="0.4"/>
<line x1="60.604" y1="85.984" x2="76.039" y2="69.579" stroke="#141414" stroke-width="0.4"/>
<line x1="76.039" y1="69.579" x2="88.171" y2="43.738" stroke="#141414" stroke-width="0.4"/>
<line x1="88.171" y1="43.738" x2="90.933" y2="21.382" stroke="#141414" stroke-width="0.4"/>
<line x1="127.02" y1="68.681" x2="121.892" y2="80.435" stroke="#141414" stroke-width="0.4"/>
<line x1="121.892" y1="80.435" x2="80.006" y2="108.001" stroke="#141414" stroke-width="0.4"/>
<line x1="80.006" y1="108.001" x2="67.182" y2="108.061" stroke="#141414" stroke-width="0.4"/>
<line x1="152.05" y1="126.65" x2="150.625" y2="134.186" stroke="#141414" stroke-width="0.4"/>
<line x1="150.625" y1="134.186" x2="136.402" y2="137.575" stroke="#141414" stroke-width="0.4"/>
<line x1="136.402" y1="137.575" x2="131.731" y2="131.492" stroke="#141414" stroke-width="0.4"/>
<line x1="152.05" y1="126.65" x2="145.464" y2="120.172" stroke="#141414" stroke-width="0.4"/>
<line x1="145.464" y1="120.172" x2="137.454" y2="120.836" stroke="#141414" stroke-width="0.4"/>
<line x1="137.454" y1="120.836" x2="132.025" y2="128.31" stroke="#141414" stroke-width="0.4"/>
<line x1="127.02" y1="68.681" x2="134.393" y2="70.546" stroke="#141414" stroke-width="0.4"/>
<line x1="134.393" y1="70.546" x2="142.787" y2="59.494" stroke="#141414" stroke-width="0.4"/>
<line x1="142.787" y1="59.494" x2="139.011" y2="52.892" stroke="#141414" stroke-width="0.4"/>
<line x1="43.652" y1="220.841" x2="35.569" y2="220.264" stroke="#141414" stroke-width="0.4"/>
<line x1="35.569" y1="220.264" x2="27.161" y2="203.159" stroke="#141414" stroke-width="0.4"/>
<line x1="27.161" y1="203.159" x2="31.642" y2="196.406" stroke="#141414" stroke-width="0.4"/>
<line x1="125.727" y1="66.868" x2="124.638" y2="57.853" stroke="#141414" stroke-width="0.4"/>
<line x1="124.638" y1="57.853" x2="129.952" y2="52.262" stroke="#141414" stroke-width="0.4"/>
<line x1="129.952" y1="52.262" x2="139.011" y2="52.892" stroke="#141414" stroke-width="0.4"/>
<line x1="65.464" y1="108.061" x2="58.013" y2="104.109" stroke="#141414" stroke-width="0.4"/>
<line x1="58.013" y1="104.109" x2="38.649" y2="114.467" stroke="#141414" stroke-width="0.4"/>
<line x1="38.649" y1="114.467" x2="37.802" y2="122.859" stroke="#141414" stroke-width="0.4"/>
<line x1="52.509" y1="201.924" x2="60.456" y2="191.682" stroke="#141414" stroke-width="0.4"/>
<line x1="60.456" y1="191.682" x2="65.009" y2="140.963" stroke="#141414" stroke-width="0.4"/>
<line x1="65.009" y1="140.963" x2="59.013" y2="129.469" stroke="#141414" stroke-width="0.4"/>
<line x1="37.802" y1="122.859" x2="29.902" y2="133.307" stroke="#141414" stroke-width="0.4"/>
<line x1="29.902" y1="133.307" x2="25.59" y2="184.79" stroke="#141414" stroke-width="0.4"/>
<line x1="25.59" y1="184.79" x2="31.642" y2="196.406" stroke="#141414" stroke-width="0.4"/>
<circle cx="71.94" cy="52.625" r="2.64" fill="#ffe082" stroke="#464646" stroke-width="0.2"/>
<text x="71.94" y="53.88" font-size="3.58" text-anchor="middle" fill="#141414">49</text>
<circle cx="78.937" cy="55.171" r="2.64" fill="#ffe082" stroke="#464646" stroke-width="0.2"/>
<text x="78.937" y="56.42" font-size="3.58" text-anchor="middle" fill="#141414">50</text>
<circle cx="99.025" cy="91.295" r="2.64" fill="#ffe082" stroke="#464646" stroke-width="0.2"/>
<text x="99.025" y="92.55" font-size="3.58" text-anchor="middle" fill="#141414">51</text>
<circle cx="142.702" cy="132.476" r="2.64" fill="#ffe082" stroke="#464646" stroke-width="0.2"/>
<text x="142.702" y="133.73" font-size="3.58" text-anchor="middle" fill="#141414">52</text>
<circle cx="141.748" cy="123.992" r="2.64" fill="#ffe082" stroke="#464646" stroke-width="0.2"/>
<text x="141.748" y="125.24" font-size="3.58" text-anchor="middle" fill="#141414">53</text>
<circle cx="135.802" cy="62.903" r="2.64" fill="#ffe082" stroke="#464646" stroke-width="0.2"/>
<text x="135.802" y="64.15" font-size="3.58" text-anchor="middle" fill="#141414">54</text>
<circle cx="34.506" cy="210.167" r="2.64" fill="#ffe082" stroke="#464646" stroke-width="0.2"/>
<text x="34.506" y="211.42" font-size="3.58" text-anchor="middle" fill="#141414">55</text>
<circle cx="129.832" cy="57.469" r="2.64" fill="#ffe082" stroke="#464646" stroke-width="0.2"/>
<text x="129.832" y="58.72" font-size="3.58" text-anchor="middle" fill="#141414">56</text>
<circle cx="49.982" cy="112.374" r="2.64" fill="#99d9fa" stroke="#464646" stroke-width="0.2"/>
<text x="49.982" y="113.63" font-size="3.58" text-anchor="middle" fill="#141414">57</text>
<circle cx="59.247" cy="166.01" r="2.64" fill="#ffe082" stroke="#464646" stroke-width="0.2"/>
<text x="59.247" y="167.26" font-size="3.58" text-anchor="middle" fill="#141414">58</text>
<circle cx="31.234" cy="159.34" r="2.64" fill="#ffe082" stroke="#464646" stroke-width="0.2"/>
<text x="31.234" y="160.59" font-size="3.58" text-anchor="middle" fill="#141414">59</text>
<circle cx="54.093" cy="120.13" r="4.22" fill="#eaf1fe" stroke="#2e78e6" stroke-width="0.3"/>
<text x="54.093" y="121.78" font-size="4.77" text-anchor="middle" fill="#14306e" font-weight="bold">6</text>
<text x="205.0" y="295.0" font-size="3.2" text-anchor="end" fill="#737373" font-family="sans-serif">4 / 5</text>
<g pointer-events="none"><text x="105.0" y="83.2" text-anchor="middle" font-family="sans-serif" font-size="12.4" fill="#9aa0a6" fill-opacity="0.3" transform="rotate(-28 105.0 83.2)">papercraft.kr</text><text x="105.0" y="148.5" text-anchor="middle" font-family="sans-serif" font-size="12.4" fill="#9aa0a6" fill-opacity="0.3" transform="rotate(-28 105.0 148.5)">papercraft.kr</text><text x="105.0" y="213.8" text-anchor="middle" font-family="sans-serif" font-size="12.4" fill="#9aa0a6" fill-opacity="0.3" transform="rotate(-28 105.0 213.8)">papercraft.kr</text></g></svg>
