<svg xmlns="http://www.w3.org/2000/svg" xmlns:xlink="http://www.w3.org/1999/xlink" width="210.00mm" height="297.00mm" viewBox="0 0 210.00 297.00">
<rect x="0" y="0" width="210.00" height="297.00" fill="#ffffff" stroke="#cccccc" stroke-width="0.2"/>
<polygon points="125.28,113.322 116.409,129.4 113.854,151.891 118.894,169.55" fill="rgb(216,216,216)"/>
<polygon points="157.575,128.245 151.08,145.422 135.607,161.943 118.894,169.55" fill="rgb(216,216,216)"/>
<polygon points="82.29,75.644 67.514,86.547 45.552,92.028 27.385,89.348" fill="rgb(216,216,216)"/>
<polygon points="63.261,45.584 47.085,54.276 32.734,71.781 27.385,89.348" fill="rgb(216,216,216)"/>
<polygon points="151.826,41.748 160.144,43.684 168.639,64.872 163.962,72.018" fill="rgb(216,216,216)"/>
<polygon points="118.166,31.88 117.565,22.803 95.604,6.898 86.792,9.16" fill="rgb(216,216,216)"/>
<polygon points="151.826,41.748 142.747,41.182 124.164,60.929 125.28,69.958" fill="rgb(216,216,216)"/>
<polygon points="57.805,149.025 60.814,157.017 82.934,162.659 89.404,157.086" fill="rgb(216,216,216)"/>
<polygon points="9.379,62.877 5.104,54.846 15.385,29.755 24.065,27.032" fill="rgb(216,216,216)"/>
<polygon points="57.805,149.025 56.053,140.097 73.193,119.086 82.29,119.008" fill="rgb(216,216,216)"/>
<polygon points="24.065,27.032 31.556,17.619 75.465,5.108 86.792,9.16" fill="rgb(216,216,216)"/>
<polygon points="57.805,149.025 60.814,157.017 82.934,162.659 89.404,157.086" fill="#99d9fa"/>
<line x1="157.575" y1="128.245" x2="125.28" y2="113.322" stroke="#8c8c8c" stroke-width="0.3" stroke-dasharray="1.2,0.8"/>
<line x1="163.962" y1="72.018" x2="125.28" y2="113.322" stroke="#8c8c8c" stroke-width="0.3" stroke-dasharray="1.2,0.8"/>
<line x1="82.29" y1="119.008" x2="125.28" y2="113.322" stroke="#8c8c8c" stroke-width="0.3" stroke-dasharray="1.2,0.8"/>
<line x1="125.28" y1="113.322" x2="125.28" y2="69.958" stroke="#8c8c8c" stroke-width="0.3" stroke-dasharray="1.2,0.8"/>
<line x1="163.962" y1="72.018" x2="157.575" y2="128.245" stroke="#8c8c8c" stroke-width="0.3" stroke-dasharray="1.2,0.8"/>
<line x1="157.575" y1="128.245" x2="181.107" y2="164.67" stroke="#8c8c8c" stroke-width="0.3" stroke-dasharray="1.2,0.8"/>
<line x1="190.6" y1="100.141" x2="157.575" y2="128.245" stroke="#8c8c8c" stroke-width="0.3" stroke-dasharray="1.2,0.8"/>
<line x1="82.29" y1="75.644" x2="63.261" y2="45.584" stroke="#8c8c8c" stroke-width="0.3" stroke-dasharray="1.2,0.8"/>
<line x1="118.166" y1="31.88" x2="82.29" y2="75.644" stroke="#8c8c8c" stroke-width="0.3" stroke-dasharray="1.2,0.8"/>
<line x1="82.29" y1="119.008" x2="82.29" y2="75.644" stroke="#8c8c8c" stroke-width="0.3" stroke-dasharray="1.2,0.8"/>
<line x1="82.29" y1="75.644" x2="125.28" y2="69.958" stroke="#8c8c8c" stroke-width="0.3" stroke-dasharray="1.2,0.8"/>
<line x1="118.166" y1="31.88" x2="63.261" y2="45.584" stroke="#8c8c8c" stroke-width="0.3" stroke-dasharray="1.2,0.8"/>
<line x1="24.065" y1="27.032" x2="63.261" y2="45.584" stroke="#8c8c8c" stroke-width="0.3" stroke-dasharray="1.2,0.8"/>
<line x1="63.261" y1="45.584" x2="86.792" y2="9.16" stroke="#8c8c8c" stroke-width="0.3" stroke-dasharray="1.2,0.8"/>
<line x1="163.962" y1="72.018" x2="190.6" y2="100.141" stroke="#8c8c8c" stroke-width="0.3" stroke-dasharray="1.2,0.8"/>
<line x1="125.28" y1="69.958" x2="163.962" y2="72.018" stroke="#8c8c8c" stroke-width="0.3" stroke-dasharray="1.2,0.8"/>
<line x1="181.107" y1="164.67" x2="147.498" y2="183.93" stroke="#8c8c8c" stroke-width="0.3" stroke-dasharray="1.2,0.8"/>
<line x1="89.404" y1="157.086" x2="82.29" y2="119.008" stroke="#8c8c8c" stroke-width="0.3" stroke-dasharray="1.2,0.8"/>
<line x1="82.29" y1="119.008" x2="125.28" y2="69.958" stroke="#8c8c8c" stroke-width="0.3" stroke-dasharray="1.2,0.8"/>
<line x1="118.894" y1="169.55" x2="125.28" y2="113.322" stroke="#8c8c8c" stroke-width="0.3" stroke-dasharray="1.2,0.8"/>
<line x1="118.894" y1="169.55" x2="157.575" y2="128.245" stroke="#8c8c8c" stroke-width="0.3" stroke-dasharray="1.2,0.8"/>
<line x1="27.385" y1="89.348" x2="82.29" y2="75.644" stroke="#8c8c8c" stroke-width="0.3" stroke-dasharray="1.2,0.8"/>
<line x1="27.385" y1="89.348" x2="63.261" y2="45.584" stroke="#8c8c8c" stroke-width="0.3" stroke-dasharray="1.2,0.8"/>
<line x1="163.962" y1="72.018" x2="151.826" y2="41.748" stroke="#8c8c8c" stroke-width="0.3" stroke-dasharray="1.2,0.8"/>
<line x1="86.792" y1="9.16" x2="118.166" y2="31.88" stroke="#8c8c8c" stroke-width="0.3" stroke-dasharray="1.2,0.8"/>
<line x1="125.28" y1="69.958" x2="151.826" y2="41.748" stroke="#8c8c8c" stroke-width="0.3" stroke-dasharray="1.2,0.8"/>
<line x1="89.404" y1="157.086" x2="57.805" y2="149.025" stroke="#8c8c8c" stroke-width="0.3" stroke-dasharray="1.2,0.8"/>
<line x1="24.065" y1="27.032" x2="9.379" y2="62.877" stroke="#8c8c8c" stroke-width="0.3" stroke-dasharray="1.2,0.8"/>
<line x1="82.29" y1="119.008" x2="57.805" y2="149.025" stroke="#8c8c8c" stroke-width="0.3" stroke-dasharray="1.2,0.8"/>
<line x1="86.792" y1="9.16" x2="24.065" y2="27.032" stroke="#8c8c8c" stroke-width="0.3" stroke-dasharray="1.2,0.8"/>
<line x1="125.28" y1="113.322" x2="89.404" y2="157.086" stroke="#141414" stroke-width="0.4"/>
<line x1="147.498" y1="183.93" x2="157.575" y2="128.245" stroke="#141414" stroke-width="0.4"/>
<line x1="43.608" y1="116.948" x2="82.29" y2="75.644" stroke="#141414" stroke-width="0.4"/>
<line x1="63.261" y1="45.584" x2="9.379" y2="62.877" stroke="#141414" stroke-width="0.4"/>
<line x1="163.962" y1="72.018" x2="194.879" y2="61.642" stroke="#141414" stroke-width="0.4"/>
<line x1="194.879" y1="61.642" x2="190.6" y2="100.141" stroke="#141414" stroke-width="0.4"/>
<line x1="118.166" y1="31.88" x2="125.28" y2="69.958" stroke="#141414" stroke-width="0.4"/>
<line x1="174.116" y1="202.77" x2="147.498" y2="183.93" stroke="#141414" stroke-width="0.4"/>
<line x1="181.107" y1="164.67" x2="174.116" y2="202.77" stroke="#141414" stroke-width="0.4"/>
<line x1="82.29" y1="119.008" x2="43.608" y2="116.948" stroke="#141414" stroke-width="0.4"/>
<line x1="190.6" y1="100.141" x2="181.107" y2="164.67" stroke="#141414" stroke-width="0.4"/>
<line x1="125.28" y1="113.322" x2="116.409" y2="129.4" stroke="#141414" stroke-width="0.4"/>
<line x1="116.409" y1="129.4" x2="113.854" y2="151.891" stroke="#141414" stroke-width="0.4"/>
<line x1="113.854" y1="151.891" x2="118.894" y2="169.55" stroke="#141414" stroke-width="0.4"/>
<line x1="157.575" y1="128.245" x2="151.08" y2="145.422" stroke="#141414" stroke-width="0.4"/>
<line x1="151.08" y1="145.422" x2="135.607" y2="161.943" stroke="#141414" stroke-width="0.4"/>
<line x1="135.607" y1="161.943" x2="118.894" y2="169.55" stroke="#141414" stroke-width="0.4"/>
<line x1="82.29" y1="75.644" x2="67.514" y2="86.547" stroke="#141414" stroke-width="0.4"/>
<line x1="67.514" y1="86.547" x2="45.552" y2="92.028" stroke="#141414" stroke-width="0.4"/>
<line x1="45.552" y1="92.028" x2="27.385" y2="89.348" stroke="#141414" stroke-width="0.4"/>
<line x1="63.261" y1="45.584" x2="47.085" y2="54.276" stroke="#141414" stroke-width="0.4"/>
<line x1="47.085" y1="54.276" x2="32.734" y2="71.781" stroke="#141414" stroke-width="0.4"/>
<line x1="32.734" y1="71.781" x2="27.385" y2="89.348" stroke="#141414" stroke-width="0.4"/>
<line x1="151.826" y1="41.748" x2="160.144" y2="43.684" stroke="#141414" stroke-width="0.4"/>
<line x1="160.144" y1="43.684" x2="168.639" y2="64.872" stroke="#141414" stroke-width="0.4"/>
<line x1="168.639" y1="64.872" x2="163.962" y2="72.018" stroke="#141414" stroke-width="0.4"/>
<line x1="118.166" y1="31.88" x2="117.565" y2="22.803" stroke="#141414" stroke-width="0.4"/>
<line x1="117.565" y1="22.803" x2="95.604" y2="6.898" stroke="#141414" stroke-width="0.4"/>
<line x1="95.604" y1="6.898" x2="86.792" y2="9.16" stroke="#141414" stroke-width="0.4"/>
<line x1="151.826" y1="41.748" x2="142.747" y2="41.182" stroke="#141414" stroke-width="0.4"/>
<line x1="142.747" y1="41.182" x2="124.164" y2="60.929" stroke="#141414" stroke-width="0.4"/>
<line x1="124.164" y1="60.929" x2="125.28" y2="69.958" stroke="#141414" stroke-width="0.4"/>
<line x1="57.805" y1="149.025" x2="60.814" y2="157.017" stroke="#141414" stroke-width="0.4"/>
<line x1="60.814" y1="157.017" x2="82.934" y2="162.659" stroke="#141414" stroke-width="0.4"/>
<line x1="82.934" y1="162.659" x2="89.404" y2="157.086" stroke="#141414" stroke-width="0.4"/>
<line x1="9.379" y1="62.877" x2="5.104" y2="54.846" stroke="#141414" stroke-width="0.4"/>
<line x1="5.104" y1="54.846" x2="15.385" y2="29.755" stroke="#141414" stroke-width="0.4"/>
<line x1="15.385" y1="29.755" x2="24.065" y2="27.032" stroke="#141414" stroke-width="0.4"/>
<line x1="57.805" y1="149.025" x2="56.053" y2="140.097" stroke="#141414" stroke-width="0.4"/>
<line x1="56.053" y1="140.097" x2="73.193" y2="119.086" stroke="#141414" stroke-width="0.4"/>
<line x1="73.193" y1="119.086" x2="82.29" y2="119.008" stroke="#141414" stroke-width="0.4"/>
<line x1="24.065" y1="27.032" x2="31.556" y2="17.619" stroke="#141414" stroke-width="0.4"/>
<line x1="31.556" y1="17.619" x2="75.465" y2="5.108" stroke="#141414" stroke-width="0.4"/>
<line x1="75.465" y1="5.108" x2="86.792" y2="9.16" stroke="#141414" stroke-width="0.4"/>
<circle cx="118.609" cy="141.041" r="2.64" fill="#ffe082" stroke="#464646" stroke-width="0.2"/>
<text x="118.609" y="142.29" font-size="3.58" text-anchor="middle" fill="#141414">1</text>
<circle cx="140.789" cy="151.29" r="2.64" fill="#ffe082" stroke="#464646" stroke-width="0.2"/>
<text x="140.789" y="152.54" font-size="3.58" text-anchor="middle" fill="#141414">2</text>
<circle cx="55.685" cy="85.892" r="2.64" fill="#ffe082" stroke="#464646" stroke-width="0.2"/>
<text x="55.685" y="87.14" font-size="3.58" text-anchor="middle" fill="#141414">3</text>
<circle cx="42.616" cy="65.247" r="2.64" fill="#ffe082" stroke="#464646" stroke-width="0.2"/>
<text x="42.616" y="66.50" font-size="3.58" text-anchor="middle" fill="#141414">4</text>
<circle cx="161.143" cy="55.58" r="2.64" fill="#ffe082" stroke="#464646" stroke-width="0.2"/>
<text x="161.143" y="56.83" font-size="3.58" text-anchor="middle" fill="#141414">5</text>
<circle cx="104.532" cy="17.685" r="2.64" fill="#ffe082" stroke="#464646" stroke-width="0.2"/>
<text x="104.532" y="18.94" font-size="3.58" text-anchor="middle" fill="#141414">6</text>
<circle cx="136.004" cy="53.454" r="2.64" fill="#ffe082" stroke="#464646" stroke-width="0.2"/>
<text x="136.004" y="54.71" font-size="3.58" text-anchor="middle" fill="#141414">7</text>
<circle cx="72.739" cy="156.447" r="2.64" fill="#99d9fa" stroke="#464646" stroke-width="0.2"/>
<text x="72.739" y="157.70" font-size="3.58" text-anchor="middle" fill="#141414">8</text>
<circle cx="13.483" cy="43.627" r="2.64" fill="#ffe082" stroke="#464646" stroke-width="0.2"/>
<text x="13.483" y="44.88" font-size="3.58" text-anchor="middle" fill="#141414">9</text>
<circle cx="67.335" cy="131.804" r="2.64" fill="#ffe082" stroke="#464646" stroke-width="0.2"/>
<text x="67.335" y="133.06" font-size="3.58" text-anchor="middle" fill="#141414">10</text>
<circle cx="54.47" cy="14.73" r="2.64" fill="#ffe082" stroke="#464646" stroke-width="0.2"/>
<text x="54.47" y="15.98" font-size="3.58" text-anchor="middle" fill="#141414">11</text>
<circle cx="167.573" cy="183.79" r="4.60" fill="#eaf1fe" stroke="#2e78e6" stroke-width="0.3"/>
<text x="167.573" y="185.59" font-size="5.20" text-anchor="middle" fill="#14306e" font-weight="bold">1</text>
<polygon points="18.142,218.84 14.786,212.609 21.497,205.898 27.728,209.253" fill="rgb(216,216,216)"/>
<polygon points="5.515,241.053 5.066,249.021 20.247,258.479 27.201,254.565" fill="rgb(216,216,216)"/>
<polygon points="27.728,228.427 33.959,231.782 40.67,225.071 37.315,218.84" fill="rgb(216,216,216)"/>
<polygon points="37.315,218.84 40.67,212.609 33.959,205.898 27.728,209.253" fill="rgb(216,216,216)"/>
<polygon points="18.142,218.84 14.786,212.609 21.497,205.898 27.728,209.253" fill="#99d9fa"/>
<line x1="5.515" y1="241.053" x2="18.142" y2="218.84" stroke="#8c8c8c" stroke-width="0.3" stroke-dasharray="1.2,0.8"/>
<line x1="27.728" y1="228.427" x2="18.142" y2="218.84" stroke="#8c8c8c" stroke-width="0.3" stroke-dasharray="1.2,0.8"/>
<line x1="27.728" y1="228.427" x2="5.515" y2="241.053" stroke="#8c8c8c" stroke-width="0.3" stroke-dasharray="1.2,0.8"/>
<line x1="31.061" y1="241.568" x2="5.515" y2="241.053" stroke="#8c8c8c" stroke-width="0.3" stroke-dasharray="1.2,0.8"/>
<line x1="27.728" y1="209.253" x2="18.142" y2="218.84" stroke="#8c8c8c" stroke-width="0.3" stroke-dasharray="1.2,0.8"/>
<line x1="27.201" y1="254.565" x2="5.515" y2="241.053" stroke="#8c8c8c" stroke-width="0.3" stroke-dasharray="1.2,0.8"/>
<line x1="37.315" y1="218.84" x2="27.728" y2="228.427" stroke="#8c8c8c" stroke-width="0.3" stroke-dasharray="1.2,0.8"/>
<line x1="27.728" y1="209.253" x2="37.315" y2="218.84" stroke="#8c8c8c" stroke-width="0.3" stroke-dasharray="1.2,0.8"/>
<line x1="5.0" y1="215.507" x2="18.142" y2="218.84" stroke="#141414" stroke-width="0.4"/>
<line x1="5.515" y1="241.053" x2="5.0" y2="215.507" stroke="#141414" stroke-width="0.4"/>
<line x1="27.728" y1="228.427" x2="31.061" y2="241.568" stroke="#141414" stroke-width="0.4"/>
<line x1="31.061" y1="241.568" x2="27.201" y2="254.565" stroke="#141414" stroke-width="0.4"/>
<line x1="18.142" y1="218.84" x2="14.786" y2="212.609" stroke="#141414" stroke-width="0.4"/>
<line x1="14.786" y1="212.609" x2="21.497" y2="205.898" stroke="#141414" stroke-width="0.4"/>
<line x1="21.497" y1="205.898" x2="27.728" y2="209.253" stroke="#141414" stroke-width="0.4"/>
<line x1="5.515" y1="241.053" x2="5.066" y2="249.021" stroke="#141414" stroke-width="0.4"/>
<line x1="5.066" y1="249.021" x2="20.247" y2="258.479" stroke="#141414" stroke-width="0.4"/>
<line x1="20.247" y1="258.479" x2="27.201" y2="254.565" stroke="#141414" stroke-width="0.4"/>
<line x1="27.728" y1="228.427" x2="33.959" y2="231.782" stroke="#141414" stroke-width="0.4"/>
<line x1="33.959" y1="231.782" x2="40.67" y2="225.071" stroke="#141414" stroke-width="0.4"/>
<line x1="40.67" y1="225.071" x2="37.315" y2="218.84" stroke="#141414" stroke-width="0.4"/>
<line x1="37.315" y1="218.84" x2="40.67" y2="212.609" stroke="#141414" stroke-width="0.4"/>
<line x1="40.67" y1="212.609" x2="33.959" y2="205.898" stroke="#141414" stroke-width="0.4"/>
<line x1="33.959" y1="205.898" x2="27.728" y2="209.253" stroke="#141414" stroke-width="0.4"/>
<circle cx="20.538" cy="211.65" r="2.64" fill="#99d9fa" stroke="#464646" stroke-width="0.2"/>
<text x="20.538" y="212.90" font-size="3.58" text-anchor="middle" fill="#141414">34</text>
<circle cx="14.507" cy="250.78" r="2.64" fill="#ffe082" stroke="#464646" stroke-width="0.2"/>
<text x="14.507" y="252.03" font-size="3.58" text-anchor="middle" fill="#141414">35</text>
<circle cx="34.918" cy="226.03" r="2.64" fill="#ffe082" stroke="#464646" stroke-width="0.2"/>
<text x="34.918" y="227.28" font-size="3.58" text-anchor="middle" fill="#141414">36</text>
<circle cx="34.918" cy="211.65" r="2.64" fill="#ffe082" stroke="#464646" stroke-width="0.2"/>
<text x="34.918" y="212.90" font-size="3.58" text-anchor="middle" fill="#141414">37</text>
<circle cx="21.259" cy="245.729" r="3.49" fill="#eaf1fe" stroke="#2e78e6" stroke-width="0.3"/>
<text x="21.259" y="247.09" font-size="3.94" text-anchor="middle" fill="#14306e" font-weight="bold">4</text>
<text x="205.0" y="295.0" font-size="3.2" text-anchor="end" fill="#737373" font-family="sans-serif">1 / 3</text>
<g pointer-events="none"><text x="105.0" y="83.2" text-anchor="middle" font-family="sans-serif" font-size="12.4" fill="#9aa0a6" fill-opacity="0.3" transform="rotate(-28 105.0 83.2)">papercraft.kr</text><text x="105.0" y="148.5" text-anchor="middle" font-family="sans-serif" font-size="12.4" fill="#9aa0a6" fill-opacity="0.3" transform="rotate(-28 105.0 148.5)">papercraft.kr</text><text x="105.0" y="213.8" text-anchor="middle" font-family="sans-serif" font-size="12.4" fill="#9aa0a6" fill-opacity="0.3" transform="rotate(-28 105.0 213.8)">papercraft.kr</text></g></svg>
