<svg xmlns="http://www.w3.org/2000/svg" xmlns:xlink="http://www.w3.org/1999/xlink" width="210.00mm" height="297.00mm" viewBox="0 0 210.00 297.00">
<rect x="0" y="0" width="210.00" height="297.00" fill="#ffffff" stroke="#cccccc" stroke-width="0.2"/>
<polygon points="72.341,62.079 67.571,69.079 45.31,69.079 40.54,62.079" fill="rgb(216,216,216)"/>
<polygon points="72.341,36.801 76.622,29.801 96.6,29.801 100.881,36.801" fill="rgb(216,216,216)"/>
<polygon points="72.341,36.801 67.571,29.801 45.31,29.801 40.54,36.801" fill="rgb(216,216,216)"/>
<polygon points="100.881,62.079 107.881,66.85 107.881,89.11 100.881,93.881" fill="rgb(216,216,216)"/>
<polygon points="12.0,5.0 5.0,9.77 5.0,32.031 12.0,36.801" fill="rgb(216,216,216)"/>
<polygon points="72.341,93.881 76.622,100.881 96.6,100.881 100.881,93.881" fill="rgb(216,216,216)"/>
<polygon points="132.682,62.079 139.682,58.288 139.682,40.593 132.682,36.801" fill="rgb(216,216,216)"/>
<polygon points="72.341,62.079 67.571,69.079 45.31,69.079 40.54,62.079" fill="#99d9fa"/>
<line x1="72.341" y1="62.079" x2="72.341" y2="36.801" stroke="#8c8c8c" stroke-width="0.3" stroke-dasharray="1.2,0.8"/>
<line x1="100.881" y1="62.079" x2="72.341" y2="62.079" stroke="#8c8c8c" stroke-width="0.3" stroke-dasharray="1.2,0.8"/>
<line x1="100.881" y1="36.801" x2="100.881" y2="62.079" stroke="#8c8c8c" stroke-width="0.3" stroke-dasharray="1.2,0.8"/>
<line x1="40.54" y1="62.079" x2="40.54" y2="36.801" stroke="#8c8c8c" stroke-width="0.3" stroke-dasharray="1.2,0.8"/>
<line x1="40.54" y1="36.801" x2="12.0" y2="36.801" stroke="#8c8c8c" stroke-width="0.3" stroke-dasharray="1.2,0.8"/>
<line x1="40.54" y1="62.079" x2="72.341" y2="62.079" stroke="#8c8c8c" stroke-width="0.3" stroke-dasharray="1.2,0.8"/>
<line x1="100.881" y1="36.801" x2="72.341" y2="36.801" stroke="#8c8c8c" stroke-width="0.3" stroke-dasharray="1.2,0.8"/>
<line x1="40.54" y1="36.801" x2="72.341" y2="36.801" stroke="#8c8c8c" stroke-width="0.3" stroke-dasharray="1.2,0.8"/>
<line x1="100.881" y1="93.881" x2="100.881" y2="62.079" stroke="#8c8c8c" stroke-width="0.3" stroke-dasharray="1.2,0.8"/>
<line x1="12.0" y1="36.801" x2="12.0" y2="5.0" stroke="#8c8c8c" stroke-width="0.3" stroke-dasharray="1.2,0.8"/>
<line x1="100.881" y1="93.881" x2="72.341" y2="93.881" stroke="#8c8c8c" stroke-width="0.3" stroke-dasharray="1.2,0.8"/>
<line x1="132.682" y1="36.801" x2="132.682" y2="62.079" stroke="#8c8c8c" stroke-width="0.3" stroke-dasharray="1.2,0.8"/>
<line x1="72.341" y1="93.881" x2="72.341" y2="62.079" stroke="#141414" stroke-width="0.4"/>
<line x1="12.0" y1="5.0" x2="40.54" y2="5.0" stroke="#141414" stroke-width="0.4"/>
<line x1="40.54" y1="5.0" x2="40.54" y2="36.801" stroke="#141414" stroke-width="0.4"/>
<line x1="132.682" y1="62.079" x2="100.881" y2="62.079" stroke="#141414" stroke-width="0.4"/>
<line x1="100.881" y1="36.801" x2="132.682" y2="36.801" stroke="#141414" stroke-width="0.4"/>
<line x1="40.54" y1="62.079" x2="12.0" y2="62.079" stroke="#141414" stroke-width="0.4"/>
<line x1="12.0" y1="62.079" x2="12.0" y2="36.801" stroke="#141414" stroke-width="0.4"/>
<line x1="72.341" y1="62.079" x2="67.571" y2="69.079" stroke="#141414" stroke-width="0.4"/>
<line x1="67.571" y1="69.079" x2="45.31" y2="69.079" stroke="#141414" stroke-width="0.4"/>
<line x1="45.31" y1="69.079" x2="40.54" y2="62.079" stroke="#141414" stroke-width="0.4"/>
<line x1="72.341" y1="36.801" x2="76.622" y2="29.801" stroke="#141414" stroke-width="0.4"/>
<line x1="76.622" y1="29.801" x2="96.6" y2="29.801" stroke="#141414" stroke-width="0.4"/>
<line x1="96.6" y1="29.801" x2="100.881" y2="36.801" stroke="#141414" stroke-width="0.4"/>
<line x1="72.341" y1="36.801" x2="67.571" y2="29.801" stroke="#141414" stroke-width="0.4"/>
<line x1="67.571" y1="29.801" x2="45.31" y2="29.801" stroke="#141414" stroke-width="0.4"/>
<line x1="45.31" y1="29.801" x2="40.54" y2="36.801" stroke="#141414" stroke-width="0.4"/>
<line x1="100.881" y1="62.079" x2="107.881" y2="66.85" stroke="#141414" stroke-width="0.4"/>
<line x1="107.881" y1="66.85" x2="107.881" y2="89.11" stroke="#141414" stroke-width="0.4"/>
<line x1="107.881" y1="89.11" x2="100.881" y2="93.881" stroke="#141414" stroke-width="0.4"/>
<line x1="12.0" y1="5.0" x2="5.0" y2="9.77" stroke="#141414" stroke-width="0.4"/>
<line x1="5.0" y1="9.77" x2="5.0" y2="32.031" stroke="#141414" stroke-width="0.4"/>
<line x1="5.0" y1="32.031" x2="12.0" y2="36.801" stroke="#141414" stroke-width="0.4"/>
<line x1="72.341" y1="93.881" x2="76.622" y2="100.881" stroke="#141414" stroke-width="0.4"/>
<line x1="76.622" y1="100.881" x2="96.6" y2="100.881" stroke="#141414" stroke-width="0.4"/>
<line x1="96.6" y1="100.881" x2="100.881" y2="93.881" stroke="#141414" stroke-width="0.4"/>
<line x1="132.682" y1="62.079" x2="139.682" y2="58.288" stroke="#141414" stroke-width="0.4"/>
<line x1="139.682" y1="58.288" x2="139.682" y2="40.593" stroke="#141414" stroke-width="0.4"/>
<line x1="139.682" y1="40.593" x2="132.682" y2="36.801" stroke="#141414" stroke-width="0.4"/>
<circle cx="56.44" cy="65.579" r="3.08" fill="#99d9fa" stroke="#464646" stroke-width="0.2"/>
<text x="56.44" y="66.64" font-size="3.02" text-anchor="middle" fill="#141414">26</text>
<circle cx="86.611" cy="33.301" r="3.08" fill="#ffe082" stroke="#464646" stroke-width="0.2"/>
<text x="86.611" y="34.36" font-size="3.02" text-anchor="middle" fill="#141414">27</text>
<circle cx="56.44" cy="33.301" r="3.08" fill="#ffe082" stroke="#464646" stroke-width="0.2"/>
<text x="56.44" y="34.36" font-size="3.02" text-anchor="middle" fill="#141414">28</text>
<circle cx="104.381" cy="77.98" r="3.08" fill="#ffe082" stroke="#464646" stroke-width="0.2"/>
<text x="104.381" y="79.04" font-size="3.02" text-anchor="middle" fill="#141414">29</text>
<circle cx="8.5" cy="20.901" r="3.08" fill="#ffe082" stroke="#464646" stroke-width="0.2"/>
<text x="8.5" y="21.96" font-size="3.02" text-anchor="middle" fill="#141414">30</text>
<circle cx="86.611" cy="97.381" r="3.08" fill="#ffe082" stroke="#464646" stroke-width="0.2"/>
<text x="86.611" y="98.44" font-size="3.02" text-anchor="middle" fill="#141414">31</text>
<circle cx="136.182" cy="49.44" r="3.08" fill="#ffe082" stroke="#464646" stroke-width="0.2"/>
<text x="136.182" y="50.50" font-size="3.02" text-anchor="middle" fill="#141414">32</text>
<circle cx="91.367" cy="83.28" r="4.60" fill="#eaf1fe" stroke="#2e78e6" stroke-width="0.3"/>
<text x="91.367" y="85.08" font-size="5.20" text-anchor="middle" fill="#14306e" font-weight="bold">4</text>
<polygon points="167.392,58.13 164.736,65.13 152.338,65.13 149.682,58.13" fill="rgb(216,216,216)"/>
<polygon points="167.392,40.42 164.736,33.42 152.338,33.42 149.682,40.42" fill="rgb(216,216,216)"/>
<polygon points="185.102,58.13 192.102,55.474 192.102,43.077 185.102,40.42" fill="rgb(216,216,216)"/>
<polygon points="185.102,58.13 192.102,60.786 192.102,73.183 185.102,75.84" fill="rgb(216,216,216)"/>
<polygon points="185.102,40.42 192.102,37.764 192.102,25.366 185.102,22.71" fill="rgb(216,216,216)"/>
<polygon points="149.682,58.13 142.682,55.474 142.682,43.077 149.682,40.42" fill="rgb(216,216,216)"/>
<polygon points="167.392,75.84 170.048,82.84 182.445,82.84 185.102,75.84" fill="rgb(216,216,216)"/>
<polygon points="167.392,58.13 164.736,65.13 152.338,65.13 149.682,58.13" fill="#99d9fa"/>
<line x1="167.392" y1="58.13" x2="167.392" y2="40.42" stroke="#8c8c8c" stroke-width="0.3" stroke-dasharray="1.2,0.8"/>
<line x1="185.102" y1="58.13" x2="167.392" y2="58.13" stroke="#8c8c8c" stroke-width="0.3" stroke-dasharray="1.2,0.8"/>
<line x1="167.392" y1="40.42" x2="185.102" y2="40.42" stroke="#8c8c8c" stroke-width="0.3" stroke-dasharray="1.2,0.8"/>
<line x1="167.392" y1="22.71" x2="185.102" y2="22.71" stroke="#8c8c8c" stroke-width="0.3" stroke-dasharray="1.2,0.8"/>
<line x1="185.102" y1="22.71" x2="185.102" y2="5.0" stroke="#8c8c8c" stroke-width="0.3" stroke-dasharray="1.2,0.8"/>
<line x1="149.682" y1="58.13" x2="167.392" y2="58.13" stroke="#8c8c8c" stroke-width="0.3" stroke-dasharray="1.2,0.8"/>
<line x1="149.682" y1="40.42" x2="167.392" y2="40.42" stroke="#8c8c8c" stroke-width="0.3" stroke-dasharray="1.2,0.8"/>
<line x1="185.102" y1="40.42" x2="185.102" y2="58.13" stroke="#8c8c8c" stroke-width="0.3" stroke-dasharray="1.2,0.8"/>
<line x1="185.102" y1="75.84" x2="185.102" y2="58.13" stroke="#8c8c8c" stroke-width="0.3" stroke-dasharray="1.2,0.8"/>
<line x1="185.102" y1="22.71" x2="185.102" y2="40.42" stroke="#8c8c8c" stroke-width="0.3" stroke-dasharray="1.2,0.8"/>
<line x1="149.682" y1="40.42" x2="149.682" y2="58.13" stroke="#8c8c8c" stroke-width="0.3" stroke-dasharray="1.2,0.8"/>
<line x1="185.102" y1="75.84" x2="167.392" y2="75.84" stroke="#8c8c8c" stroke-width="0.3" stroke-dasharray="1.2,0.8"/>
<line x1="167.392" y1="75.84" x2="167.392" y2="58.13" stroke="#141414" stroke-width="0.4"/>
<line x1="167.392" y1="40.42" x2="167.392" y2="22.71" stroke="#141414" stroke-width="0.4"/>
<line x1="202.812" y1="5.0" x2="202.812" y2="22.71" stroke="#141414" stroke-width="0.4"/>
<line x1="185.102" y1="5.0" x2="202.812" y2="5.0" stroke="#141414" stroke-width="0.4"/>
<line x1="202.812" y1="22.71" x2="185.102" y2="22.71" stroke="#141414" stroke-width="0.4"/>
<line x1="167.392" y1="22.71" x2="167.392" y2="5.0" stroke="#141414" stroke-width="0.4"/>
<line x1="167.392" y1="5.0" x2="185.102" y2="5.0" stroke="#141414" stroke-width="0.4"/>
<line x1="167.392" y1="58.13" x2="164.736" y2="65.13" stroke="#141414" stroke-width="0.4"/>
<line x1="164.736" y1="65.13" x2="152.338" y2="65.13" stroke="#141414" stroke-width="0.4"/>
<line x1="152.338" y1="65.13" x2="149.682" y2="58.13" stroke="#141414" stroke-width="0.4"/>
<line x1="167.392" y1="40.42" x2="164.736" y2="33.42" stroke="#141414" stroke-width="0.4"/>
<line x1="164.736" y1="33.42" x2="152.338" y2="33.42" stroke="#141414" stroke-width="0.4"/>
<line x1="152.338" y1="33.42" x2="149.682" y2="40.42" stroke="#141414" stroke-width="0.4"/>
<line x1="185.102" y1="58.13" x2="192.102" y2="55.474" stroke="#141414" stroke-width="0.4"/>
<line x1="192.102" y1="55.474" x2="192.102" y2="43.077" stroke="#141414" stroke-width="0.4"/>
<line x1="192.102" y1="43.077" x2="185.102" y2="40.42" stroke="#141414" stroke-width="0.4"/>
<line x1="185.102" y1="58.13" x2="192.102" y2="60.786" stroke="#141414" stroke-width="0.4"/>
<line x1="192.102" y1="60.786" x2="192.102" y2="73.183" stroke="#141414" stroke-width="0.4"/>
<line x1="192.102" y1="73.183" x2="185.102" y2="75.84" stroke="#141414" stroke-width="0.4"/>
<line x1="185.102" y1="40.42" x2="192.102" y2="37.764" stroke="#141414" stroke-width="0.4"/>
<line x1="192.102" y1="37.764" x2="192.102" y2="25.366" stroke="#141414" stroke-width="0.4"/>
<line x1="192.102" y1="25.366" x2="185.102" y2="22.71" stroke="#141414" stroke-width="0.4"/>
<line x1="149.682" y1="58.13" x2="142.682" y2="55.474" stroke="#141414" stroke-width="0.4"/>
<line x1="142.682" y1="55.474" x2="142.682" y2="43.077" stroke="#141414" stroke-width="0.4"/>
<line x1="142.682" y1="43.077" x2="149.682" y2="40.42" stroke="#141414" stroke-width="0.4"/>
<line x1="167.392" y1="75.84" x2="170.048" y2="82.84" stroke="#141414" stroke-width="0.4"/>
<line x1="170.048" y1="82.84" x2="182.445" y2="82.84" stroke="#141414" stroke-width="0.4"/>
<line x1="182.445" y1="82.84" x2="185.102" y2="75.84" stroke="#141414" stroke-width="0.4"/>
<circle cx="158.537" cy="61.63" r="3.08" fill="#99d9fa" stroke="#464646" stroke-width="0.2"/>
<text x="158.537" y="62.69" font-size="3.02" text-anchor="middle" fill="#141414">54</text>
<circle cx="158.537" cy="36.92" r="3.08" fill="#ffe082" stroke="#464646" stroke-width="0.2"/>
<text x="158.537" y="37.98" font-size="3.02" text-anchor="middle" fill="#141414">55</text>
<circle cx="188.602" cy="49.275" r="3.08" fill="#ffe082" stroke="#464646" stroke-width="0.2"/>
<text x="188.602" y="50.33" font-size="3.02" text-anchor="middle" fill="#141414">56</text>
<circle cx="188.602" cy="66.985" r="3.08" fill="#ffe082" stroke="#464646" stroke-width="0.2"/>
<text x="188.602" y="68.04" font-size="3.02" text-anchor="middle" fill="#141414">57</text>
<circle cx="188.602" cy="31.565" r="3.08" fill="#ffe082" stroke="#464646" stroke-width="0.2"/>
<text x="188.602" y="32.62" font-size="3.02" text-anchor="middle" fill="#141414">58</text>
<circle cx="146.182" cy="49.275" r="3.08" fill="#ffe082" stroke="#464646" stroke-width="0.2"/>
<text x="146.182" y="50.33" font-size="3.02" text-anchor="middle" fill="#141414">59</text>
<circle cx="176.247" cy="79.34" r="3.08" fill="#ffe082" stroke="#464646" stroke-width="0.2"/>
<text x="176.247" y="80.40" font-size="3.02" text-anchor="middle" fill="#141414">60</text>
<circle cx="179.199" cy="69.937" r="3.34" fill="#eaf1fe" stroke="#2e78e6" stroke-width="0.3"/>
<text x="179.199" y="71.24" font-size="3.78" text-anchor="middle" fill="#14306e" font-weight="bold">8</text>
<polygon points="29.71,157.011 27.053,164.011 14.656,164.011 12.0,157.011" fill="rgb(216,216,216)"/>
<polygon points="29.71,139.301 27.053,132.301 14.656,132.301 12.0,139.301" fill="rgb(216,216,216)"/>
<polygon points="47.42,157.011 54.42,154.354 54.42,141.957 47.42,139.301" fill="rgb(216,216,216)"/>
<polygon points="47.42,157.011 54.42,159.667 54.42,172.064 47.42,174.721" fill="rgb(216,216,216)"/>
<polygon points="47.42,139.301 54.42,136.644 54.42,124.247 47.42,121.591" fill="rgb(216,216,216)"/>
<polygon points="12.0,157.011 5.0,154.354 5.0,141.957 12.0,139.301" fill="rgb(216,216,216)"/>
<polygon points="29.71,174.721 32.367,181.721 44.764,181.721 47.42,174.721" fill="rgb(216,216,216)"/>
<polygon points="29.71,157.011 27.053,164.011 14.656,164.011 12.0,157.011" fill="#99d9fa"/>
<line x1="29.71" y1="157.011" x2="29.71" y2="139.301" stroke="#8c8c8c" stroke-width="0.3" stroke-dasharray="1.2,0.8"/>
<line x1="47.42" y1="157.011" x2="29.71" y2="157.011" stroke="#8c8c8c" stroke-width="0.3" stroke-dasharray="1.2,0.8"/>
<line x1="29.71" y1="139.301" x2="47.42" y2="139.301" stroke="#8c8c8c" stroke-width="0.3" stroke-dasharray="1.2,0.8"/>
<line x1="29.71" y1="121.591" x2="47.42" y2="121.591" stroke="#8c8c8c" stroke-width="0.3" stroke-dasharray="1.2,0.8"/>
<line x1="47.42" y1="121.591" x2="47.42" y2="103.881" stroke="#8c8c8c" stroke-width="0.3" stroke-dasharray="1.2,0.8"/>
<line x1="12.0" y1="157.011" x2="29.71" y2="157.011" stroke="#8c8c8c" stroke-width="0.3" stroke-dasharray="1.2,0.8"/>
<line x1="12.0" y1="139.301" x2="29.71" y2="139.301" stroke="#8c8c8c" stroke-width="0.3" stroke-dasharray="1.2,0.8"/>
<line x1="47.42" y1="139.301" x2="47.42" y2="157.011" stroke="#8c8c8c" stroke-width="0.3" stroke-dasharray="1.2,0.8"/>
<line x1="47.42" y1="174.721" x2="47.42" y2="157.011" stroke="#8c8c8c" stroke-width="0.3" stroke-dasharray="1.2,0.8"/>
<line x1="47.42" y1="121.591" x2="47.42" y2="139.301" stroke="#8c8c8c" stroke-width="0.3" stroke-dasharray="1.2,0.8"/>
<line x1="12.0" y1="139.301" x2="12.0" y2="157.011" stroke="#8c8c8c" stroke-width="0.3" stroke-dasharray="1.2,0.8"/>
<line x1="47.42" y1="174.721" x2="29.71" y2="174.721" stroke="#8c8c8c" stroke-width="0.3" stroke-dasharray="1.2,0.8"/>
<line x1="29.71" y1="174.721" x2="29.71" y2="157.011" stroke="#141414" stroke-width="0.4"/>
<line x1="29.71" y1="139.301" x2="29.71" y2="121.591" stroke="#141414" stroke-width="0.4"/>
<line x1="65.13" y1="103.881" x2="65.13" y2="121.591" stroke="#141414" stroke-width="0.4"/>
<line x1="47.42" y1="103.881" x2="65.13" y2="103.881" stroke="#141414" stroke-width="0.4"/>
<line x1="65.13" y1="121.591" x2="47.42" y2="121.591" stroke="#141414" stroke-width="0.4"/>
<line x1="29.71" y1="121.591" x2="29.71" y2="103.881" stroke="#141414" stroke-width="0.4"/>
<line x1="29.71" y1="103.881" x2="47.42" y2="103.881" stroke="#141414" stroke-width="0.4"/>
<line x1="29.71" y1="157.011" x2="27.053" y2="164.011" stroke="#141414" stroke-width="0.4"/>
<line x1="27.053" y1="164.011" x2="14.656" y2="164.011" stroke="#141414" stroke-width="0.4"/>
<line x1="14.656" y1="164.011" x2="12.0" y2="157.011" stroke="#141414" stroke-width="0.4"/>
<line x1="29.71" y1="139.301" x2="27.053" y2="132.301" stroke="#141414" stroke-width="0.4"/>
<line x1="27.053" y1="132.301" x2="14.656" y2="132.301" stroke="#141414" stroke-width="0.4"/>
<line x1="14.656" y1="132.301" x2="12.0" y2="139.301" stroke="#141414" stroke-width="0.4"/>
<line x1="47.42" y1="157.011" x2="54.42" y2="154.354" stroke="#141414" stroke-width="0.4"/>
<line x1="54.42" y1="154.354" x2="54.42" y2="141.957" stroke="#141414" stroke-width="0.4"/>
<line x1="54.42" y1="141.957" x2="47.42" y2="139.301" stroke="#141414" stroke-width="0.4"/>
<line x1="47.42" y1="157.011" x2="54.42" y2="159.667" stroke="#141414" stroke-width="0.4"/>
<line x1="54.42" y1="159.667" x2="54.42" y2="172.064" stroke="#141414" stroke-width="0.4"/>
<line x1="54.42" y1="172.064" x2="47.42" y2="174.721" stroke="#141414" stroke-width="0.4"/>
<line x1="47.42" y1="139.301" x2="54.42" y2="136.644" stroke="#141414" stroke-width="0.4"/>
<line x1="54.42" y1="136.644" x2="54.42" y2="124.247" stroke="#141414" stroke-width="0.4"/>
<line x1="54.42" y1="124.247" x2="47.42" y2="121.591" stroke="#141414" stroke-width="0.4"/>
<line x1="12.0" y1="157.011" x2="5.0" y2="154.354" stroke="#141414" stroke-width="0.4"/>
<line x1="5.0" y1="154.354" x2="5.0" y2="141.957" stroke="#141414" stroke-width="0.4"/>
<line x1="5.0" y1="141.957" x2="12.0" y2="139.301" stroke="#141414" stroke-width="0.4"/>
<line x1="29.71" y1="174.721" x2="32.367" y2="181.721" stroke="#141414" stroke-width="0.4"/>
<line x1="32.367" y1="181.721" x2="44.764" y2="181.721" stroke="#141414" stroke-width="0.4"/>
<line x1="44.764" y1="181.721" x2="47.42" y2="174.721" stroke="#141414" stroke-width="0.4"/>
<circle cx="20.855" cy="160.511" r="3.08" fill="#99d9fa" stroke="#464646" stroke-width="0.2"/>
<text x="20.855" y="161.57" font-size="3.02" text-anchor="middle" fill="#141414">61</text>
<circle cx="20.855" cy="135.801" r="3.08" fill="#ffe082" stroke="#464646" stroke-width="0.2"/>
<text x="20.855" y="136.86" font-size="3.02" text-anchor="middle" fill="#141414">62</text>
<circle cx="50.92" cy="148.156" r="3.08" fill="#ffe082" stroke="#464646" stroke-width="0.2"/>
<text x="50.92" y="149.21" font-size="3.02" text-anchor="middle" fill="#141414">63</text>
<circle cx="50.92" cy="165.866" r="3.08" fill="#ffe082" stroke="#464646" stroke-width="0.2"/>
<text x="50.92" y="166.92" font-size="3.02" text-anchor="middle" fill="#141414">64</text>
<circle cx="50.92" cy="130.446" r="3.08" fill="#ffe082" stroke="#464646" stroke-width="0.2"/>
<text x="50.92" y="131.50" font-size="3.02" text-anchor="middle" fill="#141414">65</text>
<circle cx="8.5" cy="148.156" r="3.08" fill="#ffe082" stroke="#464646" stroke-width="0.2"/>
<text x="8.5" y="149.21" font-size="3.02" text-anchor="middle" fill="#141414">66</text>
<circle cx="38.565" cy="178.221" r="3.08" fill="#ffe082" stroke="#464646" stroke-width="0.2"/>
<text x="38.565" y="179.28" font-size="3.02" text-anchor="middle" fill="#141414">67</text>
<circle cx="41.517" cy="168.817" r="3.34" fill="#eaf1fe" stroke="#2e78e6" stroke-width="0.3"/>
<text x="41.517" y="170.12" font-size="3.78" text-anchor="middle" fill="#14306e" font-weight="bold">9</text>
<polygon points="92.84,157.011 90.183,164.011 77.786,164.011 75.13,157.011" fill="rgb(216,216,216)"/>
<polygon points="92.84,139.301 90.183,132.301 77.786,132.301 75.13,139.301" fill="rgb(216,216,216)"/>
<polygon points="110.55,157.011 117.55,154.354 117.55,141.957 110.55,139.301" fill="rgb(216,216,216)"/>
<polygon points="110.55,157.011 117.55,159.667 117.55,172.064 110.55,174.721" fill="rgb(216,216,216)"/>
<polygon points="110.55,139.301 117.55,136.644 117.55,124.247 110.55,121.591" fill="rgb(216,216,216)"/>
<polygon points="75.13,157.011 68.13,154.354 68.13,141.957 75.13,139.301" fill="rgb(216,216,216)"/>
<polygon points="92.84,174.721 95.496,181.721 107.893,181.721 110.55,174.721" fill="rgb(216,216,216)"/>
<polygon points="92.84,157.011 90.183,164.011 77.786,164.011 75.13,157.011" fill="#99d9fa"/>
<line x1="92.84" y1="157.011" x2="92.84" y2="139.301" stroke="#8c8c8c" stroke-width="0.3" stroke-dasharray="1.2,0.8"/>
<line x1="110.55" y1="157.011" x2="92.84" y2="157.011" stroke="#8c8c8c" stroke-width="0.3" stroke-dasharray="1.2,0.8"/>
<line x1="92.84" y1="139.301" x2="110.55" y2="139.301" stroke="#8c8c8c" stroke-width="0.3" stroke-dasharray="1.2,0.8"/>
<line x1="92.84" y1="121.591" x2="110.55" y2="121.591" stroke="#8c8c8c" stroke-width="0.3" stroke-dasharray="1.2,0.8"/>
<line x1="110.55" y1="121.591" x2="110.55" y2="103.881" stroke="#8c8c8c" stroke-width="0.3" stroke-dasharray="1.2,0.8"/>
<line x1="75.13" y1="157.011" x2="92.84" y2="157.011" stroke="#8c8c8c" stroke-width="0.3" stroke-dasharray="1.2,0.8"/>
<line x1="75.13" y1="139.301" x2="92.84" y2="139.301" stroke="#8c8c8c" stroke-width="0.3" stroke-dasharray="1.2,0.8"/>
<line x1="110.55" y1="139.301" x2="110.55" y2="157.011" stroke="#8c8c8c" stroke-width="0.3" stroke-dasharray="1.2,0.8"/>
<line x1="110.55" y1="174.721" x2="110.55" y2="157.011" stroke="#8c8c8c" stroke-width="0.3" stroke-dasharray="1.2,0.8"/>
<line x1="110.55" y1="121.591" x2="110.55" y2="139.301" stroke="#8c8c8c" stroke-width="0.3" stroke-dasharray="1.2,0.8"/>
<line x1="75.13" y1="139.301" x2="75.13" y2="157.011" stroke="#8c8c8c" stroke-width="0.3" stroke-dasharray="1.2,0.8"/>
<line x1="110.55" y1="174.721" x2="92.84" y2="174.721" stroke="#8c8c8c" stroke-width="0.3" stroke-dasharray="1.2,0.8"/>
<line x1="92.84" y1="174.721" x2="92.84" y2="157.011" stroke="#141414" stroke-width="0.4"/>
<line x1="92.84" y1="139.301" x2="92.84" y2="121.591" stroke="#141414" stroke-width="0.4"/>
<line x1="128.26" y1="103.881" x2="128.26" y2="121.591" stroke="#141414" stroke-width="0.4"/>
<line x1="110.55" y1="103.881" x2="128.26" y2="103.881" stroke="#141414" stroke-width="0.4"/>
<line x1="128.26" y1="121.591" x2="110.55" y2="121.591" stroke="#141414" stroke-width="0.4"/>
<line x1="92.84" y1="121.591" x2="92.84" y2="103.881" stroke="#141414" stroke-width="0.4"/>
<line x1="92.84" y1="103.881" x2="110.55" y2="103.881" stroke="#141414" stroke-width="0.4"/>
<line x1="92.84" y1="157.011" x2="90.183" y2="164.011" stroke="#141414" stroke-width="0.4"/>
<line x1="90.183" y1="164.011" x2="77.786" y2="164.011" stroke="#141414" stroke-width="0.4"/>
<line x1="77.786" y1="164.011" x2="75.13" y2="157.011" stroke="#141414" stroke-width="0.4"/>
<line x1="92.84" y1="139.301" x2="90.183" y2="132.301" stroke="#141414" stroke-width="0.4"/>
<line x1="90.183" y1="132.301" x2="77.786" y2="132.301" stroke="#141414" stroke-width="0.4"/>
<line x1="77.786" y1="132.301" x2="75.13" y2="139.301" stroke="#141414" stroke-width="0.4"/>
<line x1="110.55" y1="157.011" x2="117.55" y2="154.354" stroke="#141414" stroke-width="0.4"/>
<line x1="117.55" y1="154.354" x2="117.55" y2="141.957" stroke="#141414" stroke-width="0.4"/>
<line x1="117.55" y1="141.957" x2="110.55" y2="139.301" stroke="#141414" stroke-width="0.4"/>
<line x1="110.55" y1="157.011" x2="117.55" y2="159.667" stroke="#141414" stroke-width="0.4"/>
<line x1="117.55" y1="159.667" x2="117.55" y2="172.064" stroke="#141414" stroke-width="0.4"/>
<line x1="117.55" y1="172.064" x2="110.55" y2="174.721" stroke="#141414" stroke-width="0.4"/>
<line x1="110.55" y1="139.301" x2="117.55" y2="136.644" stroke="#141414" stroke-width="0.4"/>
<line x1="117.55" y1="136.644" x2="117.55" y2="124.247" stroke="#141414" stroke-width="0.4"/>
<line x1="117.55" y1="124.247" x2="110.55" y2="121.591" stroke="#141414" stroke-width="0.4"/>
<line x1="75.13" y1="157.011" x2="68.13" y2="154.354" stroke="#141414" stroke-width="0.4"/>
<line x1="68.13" y1="154.354" x2="68.13" y2="141.957" stroke="#141414" stroke-width="0.4"/>
<line x1="68.13" y1="141.957" x2="75.13" y2="139.301" stroke="#141414" stroke-width="0.4"/>
<line x1="92.84" y1="174.721" x2="95.496" y2="181.721" stroke="#141414" stroke-width="0.4"/>
<line x1="95.496" y1="181.721" x2="107.893" y2="181.721" stroke="#141414" stroke-width="0.4"/>
<line x1="107.893" y1="181.721" x2="110.55" y2="174.721" stroke="#141414" stroke-width="0.4"/>
<circle cx="83.985" cy="160.511" r="3.08" fill="#99d9fa" stroke="#464646" stroke-width="0.2"/>
<text x="83.985" y="161.57" font-size="3.02" text-anchor="middle" fill="#141414">68</text>
<circle cx="83.985" cy="135.801" r="3.08" fill="#ffe082" stroke="#464646" stroke-width="0.2"/>
<text x="83.985" y="136.86" font-size="3.02" text-anchor="middle" fill="#141414">69</text>
<circle cx="114.05" cy="148.156" r="3.08" fill="#ffe082" stroke="#464646" stroke-width="0.2"/>
<text x="114.05" y="149.21" font-size="3.02" text-anchor="middle" fill="#141414">70</text>
<circle cx="114.05" cy="165.866" r="3.08" fill="#ffe082" stroke="#464646" stroke-width="0.2"/>
<text x="114.05" y="166.92" font-size="3.02" text-anchor="middle" fill="#141414">71</text>
<circle cx="114.05" cy="130.446" r="3.08" fill="#ffe082" stroke="#464646" stroke-width="0.2"/>
<text x="114.05" y="131.50" font-size="3.02" text-anchor="middle" fill="#141414">72</text>
<circle cx="71.63" cy="148.156" r="3.08" fill="#ffe082" stroke="#464646" stroke-width="0.2"/>
<text x="71.63" y="149.21" font-size="3.02" text-anchor="middle" fill="#141414">73</text>
<circle cx="101.695" cy="178.221" r="3.08" fill="#ffe082" stroke="#464646" stroke-width="0.2"/>
<text x="101.695" y="179.28" font-size="3.02" text-anchor="middle" fill="#141414">74</text>
<circle cx="104.647" cy="168.817" r="3.34" fill="#eaf1fe" stroke="#2e78e6" stroke-width="0.3"/>
<text x="104.647" y="170.12" font-size="3.78" text-anchor="middle" fill="#14306e" font-weight="bold">10</text>
<polygon points="49.68,221.261 46.89,228.261 33.87,228.261 31.079,221.261" fill="rgb(216,216,216)"/>
<polygon points="49.68,203.322 52.542,196.322 65.898,196.322 68.76,203.322" fill="rgb(216,216,216)"/>
<polygon points="49.68,203.322 46.89,196.322 33.87,196.322 31.079,203.322" fill="rgb(216,216,216)"/>
<polygon points="68.76,221.261 75.76,224.051 75.76,237.072 68.76,239.862" fill="rgb(216,216,216)"/>
<polygon points="12.0,184.721 5.0,187.511 5.0,200.531 12.0,203.322" fill="rgb(216,216,216)"/>
<polygon points="49.68,239.862 52.542,246.862 65.898,246.862 68.76,239.862" fill="rgb(216,216,216)"/>
<polygon points="87.361,221.261 94.361,218.57 94.361,206.012 87.361,203.322" fill="rgb(216,216,216)"/>
<polygon points="49.68,221.261 46.89,228.261 33.87,228.261 31.079,221.261" fill="#99d9fa"/>
<line x1="49.68" y1="221.261" x2="49.68" y2="203.322" stroke="#8c8c8c" stroke-width="0.3" stroke-dasharray="1.2,0.8"/>
<line x1="68.76" y1="221.261" x2="49.68" y2="221.261" stroke="#8c8c8c" stroke-width="0.3" stroke-dasharray="1.2,0.8"/>
<line x1="68.76" y1="203.322" x2="68.76" y2="221.261" stroke="#8c8c8c" stroke-width="0.3" stroke-dasharray="1.2,0.8"/>
<line x1="31.079" y1="221.261" x2="31.079" y2="203.322" stroke="#8c8c8c" stroke-width="0.3" stroke-dasharray="1.2,0.8"/>
<line x1="31.079" y1="203.322" x2="12.0" y2="203.322" stroke="#8c8c8c" stroke-width="0.3" stroke-dasharray="1.2,0.8"/>
<line x1="31.079" y1="221.261" x2="49.68" y2="221.261" stroke="#8c8c8c" stroke-width="0.3" stroke-dasharray="1.2,0.8"/>
<line x1="68.76" y1="203.322" x2="49.68" y2="203.322" stroke="#8c8c8c" stroke-width="0.3" stroke-dasharray="1.2,0.8"/>
<line x1="31.079" y1="203.322" x2="49.68" y2="203.322" stroke="#8c8c8c" stroke-width="0.3" stroke-dasharray="1.2,0.8"/>
<line x1="68.76" y1="239.862" x2="68.76" y2="221.261" stroke="#8c8c8c" stroke-width="0.3" stroke-dasharray="1.2,0.8"/>
<line x1="12.0" y1="203.322" x2="12.0" y2="184.721" stroke="#8c8c8c" stroke-width="0.3" stroke-dasharray="1.2,0.8"/>
<line x1="68.76" y1="239.862" x2="49.68" y2="239.862" stroke="#8c8c8c" stroke-width="0.3" stroke-dasharray="1.2,0.8"/>
<line x1="87.361" y1="203.322" x2="87.361" y2="221.261" stroke="#8c8c8c" stroke-width="0.3" stroke-dasharray="1.2,0.8"/>
<line x1="49.68" y1="239.862" x2="49.68" y2="221.261" stroke="#141414" stroke-width="0.4"/>
<line x1="12.0" y1="184.721" x2="31.079" y2="184.721" stroke="#141414" stroke-width="0.4"/>
<line x1="31.079" y1="184.721" x2="31.079" y2="203.322" stroke="#141414" stroke-width="0.4"/>
<line x1="87.361" y1="221.261" x2="68.76" y2="221.261" stroke="#141414" stroke-width="0.4"/>
<line x1="68.76" y1="203.322" x2="87.361" y2="203.322" stroke="#141414" stroke-width="0.4"/>
<line x1="31.079" y1="221.261" x2="12.0" y2="221.261" stroke="#141414" stroke-width="0.4"/>
<line x1="12.0" y1="221.261" x2="12.0" y2="203.322" stroke="#141414" stroke-width="0.4"/>
<line x1="49.68" y1="221.261" x2="46.89" y2="228.261" stroke="#141414" stroke-width="0.4"/>
<line x1="46.89" y1="228.261" x2="33.87" y2="228.261" stroke="#141414" stroke-width="0.4"/>
<line x1="33.87" y1="228.261" x2="31.079" y2="221.261" stroke="#141414" stroke-width="0.4"/>
<line x1="49.68" y1="203.322" x2="52.542" y2="196.322" stroke="#141414" stroke-width="0.4"/>
<line x1="52.542" y1="196.322" x2="65.898" y2="196.322" stroke="#141414" stroke-width="0.4"/>
<line x1="65.898" y1="196.322" x2="68.76" y2="203.322" stroke="#141414" stroke-width="0.4"/>
<line x1="49.68" y1="203.322" x2="46.89" y2="196.322" stroke="#141414" stroke-width="0.4"/>
<line x1="46.89" y1="196.322" x2="33.87" y2="196.322" stroke="#141414" stroke-width="0.4"/>
<line x1="33.87" y1="196.322" x2="31.079" y2="203.322" stroke="#141414" stroke-width="0.4"/>
<line x1="68.76" y1="221.261" x2="75.76" y2="224.051" stroke="#141414" stroke-width="0.4"/>
<line x1="75.76" y1="224.051" x2="75.76" y2="237.072" stroke="#141414" stroke-width="0.4"/>
<line x1="75.76" y1="237.072" x2="68.76" y2="239.862" stroke="#141414" stroke-width="0.4"/>
<line x1="12.0" y1="184.721" x2="5.0" y2="187.511" stroke="#141414" stroke-width="0.4"/>
<line x1="5.0" y1="187.511" x2="5.0" y2="200.531" stroke="#141414" stroke-width="0.4"/>
<line x1="5.0" y1="200.531" x2="12.0" y2="203.322" stroke="#141414" stroke-width="0.4"/>
<line x1="49.68" y1="239.862" x2="52.542" y2="246.862" stroke="#141414" stroke-width="0.4"/>
<line x1="52.542" y1="246.862" x2="65.898" y2="246.862" stroke="#141414" stroke-width="0.4"/>
<line x1="65.898" y1="246.862" x2="68.76" y2="239.862" stroke="#141414" stroke-width="0.4"/>
<line x1="87.361" y1="221.261" x2="94.361" y2="218.57" stroke="#141414" stroke-width="0.4"/>
<line x1="94.361" y1="218.57" x2="94.361" y2="206.012" stroke="#141414" stroke-width="0.4"/>
<line x1="94.361" y1="206.012" x2="87.361" y2="203.322" stroke="#141414" stroke-width="0.4"/>
<circle cx="40.38" cy="224.761" r="3.08" fill="#99d9fa" stroke="#464646" stroke-width="0.2"/>
<text x="40.38" y="225.82" font-size="3.02" text-anchor="middle" fill="#141414">82</text>
<circle cx="59.22" cy="199.822" r="3.08" fill="#ffe082" stroke="#464646" stroke-width="0.2"/>
<text x="59.22" y="200.88" font-size="3.02" text-anchor="middle" fill="#141414">83</text>
<circle cx="40.38" cy="199.822" r="3.08" fill="#ffe082" stroke="#464646" stroke-width="0.2"/>
<text x="40.38" y="200.88" font-size="3.02" text-anchor="middle" fill="#141414">84</text>
<circle cx="72.26" cy="230.561" r="3.08" fill="#ffe082" stroke="#464646" stroke-width="0.2"/>
<text x="72.26" y="231.62" font-size="3.02" text-anchor="middle" fill="#141414">85</text>
<circle cx="8.5" cy="194.021" r="3.08" fill="#ffe082" stroke="#464646" stroke-width="0.2"/>
<text x="8.5" y="195.08" font-size="3.02" text-anchor="middle" fill="#141414">86</text>
<circle cx="59.22" cy="243.362" r="3.08" fill="#ffe082" stroke="#464646" stroke-width="0.2"/>
<text x="59.22" y="244.42" font-size="3.02" text-anchor="middle" fill="#141414">87</text>
<circle cx="90.861" cy="212.291" r="3.08" fill="#ffe082" stroke="#464646" stroke-width="0.2"/>
<text x="90.861" y="213.35" font-size="3.02" text-anchor="middle" fill="#141414">88</text>
<circle cx="62.4" cy="233.662" r="3.55" fill="#eaf1fe" stroke="#2e78e6" stroke-width="0.3"/>
<text x="62.4" y="235.05" font-size="4.01" text-anchor="middle" fill="#14306e" font-weight="bold">12</text>
<text x="205.0" y="295.0" font-size="3.2" text-anchor="end" fill="#737373" font-family="sans-serif">3 / 4</text>
</svg>
