<svg xmlns="http://www.w3.org/2000/svg" xmlns:xlink="http://www.w3.org/1999/xlink" width="210.00mm" height="297.00mm" viewBox="0 0 210.00 297.00">
<rect x="0" y="0" width="210.00" height="297.00" fill="#ffffff" stroke="#cccccc" stroke-width="0.2"/>
<polygon points="19.129,5.0 37.57,26.794 102.556,140.536 111.967,167.489" fill="rgb(216,216,216)"/>
<polygon points="5.0,5.0 16.702,32.233 91.579,145.975 111.967,167.489" fill="rgb(216,216,216)"/>
<line x1="111.967" y1="167.489" x2="19.129" y2="5.0" stroke="#8c8c8c" stroke-width="0.3" stroke-dasharray="1.2,0.8"/>
<line x1="111.967" y1="167.489" x2="5.0" y2="5.0" stroke="#8c8c8c" stroke-width="0.3" stroke-dasharray="1.2,0.8"/>
<line x1="5.0" y1="5.0" x2="19.129" y2="5.0" stroke="#141414" stroke-width="0.4"/>
<line x1="19.129" y1="5.0" x2="37.57" y2="26.794" stroke="#141414" stroke-width="0.4"/>
<line x1="37.57" y1="26.794" x2="102.556" y2="140.536" stroke="#141414" stroke-width="0.4"/>
<line x1="102.556" y1="140.536" x2="111.967" y2="167.489" stroke="#141414" stroke-width="0.4"/>
<line x1="5.0" y1="5.0" x2="16.702" y2="32.233" stroke="#141414" stroke-width="0.4"/>
<line x1="16.702" y1="32.233" x2="91.579" y2="145.975" stroke="#141414" stroke-width="0.4"/>
<line x1="91.579" y1="145.975" x2="111.967" y2="167.489" stroke="#141414" stroke-width="0.4"/>
<circle cx="67.806" cy="84.955" r="0.78" fill="#ffe082" stroke="#464646" stroke-width="0.2"/>
<text x="67.806" y="85.22" font-size="0.76" text-anchor="middle" fill="#141414">51</text>
<circle cx="56.312" cy="87.674" r="0.78" fill="#ffe082" stroke="#464646" stroke-width="0.2"/>
<text x="56.312" y="87.94" font-size="0.76" text-anchor="middle" fill="#141414">59</text>
<circle cx="45.366" cy="59.163" r="3.15" fill="#eaf1fe" stroke="#2e78e6" stroke-width="0.3"/>
<text x="45.366" y="60.39" font-size="3.56" text-anchor="middle" fill="#14306e" font-weight="bold">27</text>
<text x="205.0" y="295.0" font-size="3.2" text-anchor="end" fill="#737373" font-family="sans-serif">14 / 15</text>
</svg>
