<svg xmlns="http://www.w3.org/2000/svg" xmlns:xlink="http://www.w3.org/1999/xlink" width="210.00mm" height="297.00mm" viewBox="0 0 210.00 297.00">
<rect x="0" y="0" width="210.00" height="297.00" fill="#ffffff" stroke="#cccccc" stroke-width="0.2"/>
<polygon points="23.798,254.775 16.797,247.474 16.797,213.403 23.798,206.103" fill="rgb(216,216,216)"/>
<polygon points="68.284,254.793 75.283,247.498 75.279,213.46 68.278,206.168" fill="rgb(216,216,216)"/>
<polygon points="9.269,81.932 5.744,74.016 17.62,53.344 26.235,52.401" fill="rgb(216,216,216)"/>
<line x1="23.797" y1="206.103" x2="68.278" y2="206.168" stroke="#8c8c8c" stroke-width="0.3" stroke-dasharray="1.2,0.8"/>
<line x1="26.235" y1="52.401" x2="81.64" y2="81.626" stroke="#8c8c8c" stroke-width="0.3" stroke-dasharray="1.2,0.8"/>
<line x1="68.491" y1="50.209" x2="26.235" y2="52.401" stroke="#8c8c8c" stroke-width="0.3" stroke-dasharray="1.2,0.8"/>
<line x1="26.235" y1="52.401" x2="23.797" y2="206.103" stroke="#8c8c8c" stroke-width="0.3" stroke-dasharray="1.2,0.8"/>
<line x1="26.235" y1="52.401" x2="68.278" y2="206.168" stroke="#8c8c8c" stroke-width="0.3" stroke-dasharray="1.2,0.8"/>
<line x1="23.798" y1="206.103" x2="23.798" y2="254.775" stroke="#8c8c8c" stroke-width="0.3" stroke-dasharray="1.2,0.8"/>
<line x1="68.278" y1="206.168" x2="68.284" y2="254.793" stroke="#8c8c8c" stroke-width="0.3" stroke-dasharray="1.2,0.8"/>
<line x1="26.235" y1="52.401" x2="9.269" y2="81.932" stroke="#8c8c8c" stroke-width="0.3" stroke-dasharray="1.2,0.8"/>
<line x1="68.284" y1="254.793" x2="23.797" y2="254.775" stroke="#141414" stroke-width="0.4"/>
<line x1="23.797" y1="206.103" x2="9.269" y2="81.933" stroke="#141414" stroke-width="0.4"/>
<line x1="81.64" y1="81.626" x2="68.278" y2="206.168" stroke="#141414" stroke-width="0.4"/>
<line x1="68.491" y1="50.209" x2="81.64" y2="81.626" stroke="#141414" stroke-width="0.4"/>
<line x1="26.235" y1="52.401" x2="69.703" y2="5.0" stroke="#141414" stroke-width="0.4"/>
<line x1="69.703" y1="5.0" x2="68.491" y2="50.209" stroke="#141414" stroke-width="0.4"/>
<line x1="23.798" y1="254.775" x2="16.797" y2="247.474" stroke="#141414" stroke-width="0.4"/>
<line x1="16.797" y1="247.474" x2="16.797" y2="213.403" stroke="#141414" stroke-width="0.4"/>
<line x1="16.797" y1="213.403" x2="23.798" y2="206.103" stroke="#141414" stroke-width="0.4"/>
<line x1="68.284" y1="254.793" x2="75.283" y2="247.498" stroke="#141414" stroke-width="0.4"/>
<line x1="75.283" y1="247.498" x2="75.279" y2="213.46" stroke="#141414" stroke-width="0.4"/>
<line x1="75.279" y1="213.46" x2="68.278" y2="206.168" stroke="#141414" stroke-width="0.4"/>
<line x1="9.269" y1="81.932" x2="5.744" y2="74.016" stroke="#141414" stroke-width="0.4"/>
<line x1="5.744" y1="74.016" x2="17.62" y2="53.344" stroke="#141414" stroke-width="0.4"/>
<line x1="17.62" y1="53.344" x2="26.235" y2="52.401" stroke="#141414" stroke-width="0.4"/>
<circle cx="20.298" cy="230.439" r="1.50" fill="#ffe082" stroke="#464646" stroke-width="0.2"/>
<text x="20.298" y="231.15" font-size="2.03" text-anchor="middle" fill="#141414">12</text>
<circle cx="71.781" cy="230.48" r="1.50" fill="#ffe082" stroke="#464646" stroke-width="0.2"/>
<text x="71.781" y="231.19" font-size="2.03" text-anchor="middle" fill="#141414">13</text>
<circle cx="14.717" cy="65.423" r="1.50" fill="#ffe082" stroke="#464646" stroke-width="0.2"/>
<text x="14.717" y="66.13" font-size="2.03" text-anchor="middle" fill="#141414">14</text>
<circle cx="42.948" cy="260.893" r="4.6" fill="#eaf1fe" stroke="#2e78e6" stroke-width="0.3"/>
<text x="42.948" y="262.693" font-size="5.2" text-anchor="middle" fill="#14306e" font-weight="bold">2</text>
<polygon points="138.88,82.477 146.377,89.477 181.367,89.477 188.865,82.477" fill="rgb(216,216,216)"/>
<polygon points="138.88,68.731 146.377,61.731 181.367,61.731 188.865,68.731" fill="rgb(216,216,216)"/>
<polygon points="188.865,82.477 195.738,80.415 195.738,70.793 188.865,68.731" fill="rgb(216,216,216)"/>
<polygon points="138.88,132.462 138.13,135.862 134.631,135.862 133.881,132.462" fill="rgb(216,216,216)"/>
<polygon points="133.881,82.477 127.008,80.415 127.008,70.793 133.881,68.731" fill="rgb(216,216,216)"/>
<polygon points="133.881,82.477 126.881,89.975 126.881,124.965 133.881,132.462" fill="rgb(216,216,216)"/>
<polygon points="133.881,68.731 126.881,61.233 126.881,26.244 133.881,18.746" fill="rgb(216,216,216)"/>
<polygon points="138.88,82.477 146.377,89.477 181.367,89.477 188.865,82.477" fill="#99d9fa"/>
<line x1="138.88" y1="82.477" x2="138.88" y2="68.731" stroke="#8c8c8c" stroke-width="0.3" stroke-dasharray="1.2,0.8"/>
<line x1="138.88" y1="82.477" x2="133.881" y2="82.477" stroke="#8c8c8c" stroke-width="0.3" stroke-dasharray="1.2,0.8"/>
<line x1="133.881" y1="68.731" x2="138.88" y2="68.731" stroke="#8c8c8c" stroke-width="0.3" stroke-dasharray="1.2,0.8"/>
<line x1="133.881" y1="18.746" x2="138.88" y2="18.746" stroke="#8c8c8c" stroke-width="0.3" stroke-dasharray="1.2,0.8"/>
<line x1="133.881" y1="18.746" x2="133.881" y2="5.0" stroke="#8c8c8c" stroke-width="0.3" stroke-dasharray="1.2,0.8"/>
<line x1="188.865" y1="82.477" x2="138.88" y2="82.477" stroke="#8c8c8c" stroke-width="0.3" stroke-dasharray="1.2,0.8"/>
<line x1="188.865" y1="68.731" x2="138.88" y2="68.731" stroke="#8c8c8c" stroke-width="0.3" stroke-dasharray="1.2,0.8"/>
<line x1="188.865" y1="68.731" x2="188.865" y2="82.477" stroke="#8c8c8c" stroke-width="0.3" stroke-dasharray="1.2,0.8"/>
<line x1="133.881" y1="132.462" x2="138.88" y2="132.462" stroke="#8c8c8c" stroke-width="0.3" stroke-dasharray="1.2,0.8"/>
<line x1="133.881" y1="68.731" x2="133.881" y2="82.477" stroke="#8c8c8c" stroke-width="0.3" stroke-dasharray="1.2,0.8"/>
<line x1="133.881" y1="132.462" x2="133.881" y2="82.477" stroke="#8c8c8c" stroke-width="0.3" stroke-dasharray="1.2,0.8"/>
<line x1="133.881" y1="18.746" x2="133.881" y2="68.731" stroke="#8c8c8c" stroke-width="0.3" stroke-dasharray="1.2,0.8"/>
<line x1="138.88" y1="82.477" x2="138.88" y2="132.463" stroke="#141414" stroke-width="0.4"/>
<line x1="138.88" y1="18.746" x2="138.88" y2="68.731" stroke="#141414" stroke-width="0.4"/>
<line x1="138.88" y1="5.0" x2="138.88" y2="18.746" stroke="#141414" stroke-width="0.4"/>
<line x1="133.881" y1="5.0" x2="138.88" y2="5.0" stroke="#141414" stroke-width="0.4"/>
<line x1="83.896" y1="18.746" x2="83.896" y2="5.0" stroke="#141414" stroke-width="0.4"/>
<line x1="83.896" y1="5.0" x2="133.881" y2="5.0" stroke="#141414" stroke-width="0.4"/>
<line x1="133.881" y1="18.746" x2="83.896" y2="18.746" stroke="#141414" stroke-width="0.4"/>
<line x1="138.88" y1="82.477" x2="146.377" y2="89.477" stroke="#141414" stroke-width="0.4"/>
<line x1="146.377" y1="89.477" x2="181.367" y2="89.477" stroke="#141414" stroke-width="0.4"/>
<line x1="181.367" y1="89.477" x2="188.865" y2="82.477" stroke="#141414" stroke-width="0.4"/>
<line x1="138.88" y1="68.731" x2="146.377" y2="61.731" stroke="#141414" stroke-width="0.4"/>
<line x1="146.377" y1="61.731" x2="181.367" y2="61.731" stroke="#141414" stroke-width="0.4"/>
<line x1="181.367" y1="61.731" x2="188.865" y2="68.731" stroke="#141414" stroke-width="0.4"/>
<line x1="188.865" y1="82.477" x2="195.738" y2="80.415" stroke="#141414" stroke-width="0.4"/>
<line x1="195.738" y1="80.415" x2="195.738" y2="70.793" stroke="#141414" stroke-width="0.4"/>
<line x1="195.738" y1="70.793" x2="188.865" y2="68.731" stroke="#141414" stroke-width="0.4"/>
<line x1="138.88" y1="132.462" x2="138.13" y2="135.862" stroke="#141414" stroke-width="0.4"/>
<line x1="138.13" y1="135.862" x2="134.631" y2="135.862" stroke="#141414" stroke-width="0.4"/>
<line x1="134.631" y1="135.862" x2="133.881" y2="132.462" stroke="#141414" stroke-width="0.4"/>
<line x1="133.881" y1="82.477" x2="127.008" y2="80.415" stroke="#141414" stroke-width="0.4"/>
<line x1="127.008" y1="80.415" x2="127.008" y2="70.793" stroke="#141414" stroke-width="0.4"/>
<line x1="127.008" y1="70.793" x2="133.881" y2="68.731" stroke="#141414" stroke-width="0.4"/>
<line x1="133.881" y1="82.477" x2="126.881" y2="89.975" stroke="#141414" stroke-width="0.4"/>
<line x1="126.881" y1="89.975" x2="126.881" y2="124.965" stroke="#141414" stroke-width="0.4"/>
<line x1="126.881" y1="124.965" x2="133.881" y2="132.462" stroke="#141414" stroke-width="0.4"/>
<line x1="133.881" y1="68.731" x2="126.881" y2="61.233" stroke="#141414" stroke-width="0.4"/>
<line x1="126.881" y1="61.233" x2="126.881" y2="26.244" stroke="#141414" stroke-width="0.4"/>
<line x1="126.881" y1="26.244" x2="133.881" y2="18.746" stroke="#141414" stroke-width="0.4"/>
<circle cx="163.872" cy="85.977" r="1.50" fill="#99d9fa" stroke="#464646" stroke-width="0.2"/>
<text x="163.872" y="86.69" font-size="2.03" text-anchor="middle" fill="#141414">23</text>
<circle cx="163.872" cy="65.231" r="1.50" fill="#ffe082" stroke="#464646" stroke-width="0.2"/>
<text x="163.872" y="65.94" font-size="2.03" text-anchor="middle" fill="#141414">24</text>
<circle cx="192.302" cy="75.604" r="1.50" fill="#ffe082" stroke="#464646" stroke-width="0.2"/>
<text x="192.302" y="76.31" font-size="2.03" text-anchor="middle" fill="#141414">25</text>
<circle cx="136.38" cy="134.162" r="1.50" fill="#ffe082" stroke="#464646" stroke-width="0.2"/>
<text x="136.38" y="134.87" font-size="2.03" text-anchor="middle" fill="#141414">26</text>
<circle cx="130.445" cy="75.604" r="1.50" fill="#ffe082" stroke="#464646" stroke-width="0.2"/>
<text x="130.445" y="76.31" font-size="2.03" text-anchor="middle" fill="#141414">27</text>
<circle cx="130.381" cy="107.47" r="1.50" fill="#ffe082" stroke="#464646" stroke-width="0.2"/>
<text x="130.381" y="108.18" font-size="2.03" text-anchor="middle" fill="#141414">28</text>
<circle cx="130.381" cy="43.739" r="1.50" fill="#ffe082" stroke="#464646" stroke-width="0.2"/>
<text x="130.381" y="44.45" font-size="2.03" text-anchor="middle" fill="#141414">29</text>
<circle cx="139.817" cy="141.962" r="4.6" fill="#eaf1fe" stroke="#2e78e6" stroke-width="0.3"/>
<text x="139.817" y="143.762" font-size="5.2" text-anchor="middle" fill="#14306e" font-weight="bold">5</text>
<text x="205.0" y="295.0" font-size="3.2" text-anchor="end" fill="#737373" font-family="sans-serif">2 / 6</text>
</svg>
