<svg xmlns="http://www.w3.org/2000/svg" xmlns:xlink="http://www.w3.org/1999/xlink" width="210.00mm" height="297.00mm" viewBox="0 0 210.00 297.00">
<rect x="0" y="0" width="210.00" height="297.00" fill="#ffffff" stroke="#cccccc" stroke-width="0.2"/>
<polygon points="28.985,39.248 25.909,28.382 27.201,25.264 37.059,19.756" fill="rgb(216,216,216)"/>
<polygon points="20.215,42.88 14.959,48.483 20.611,62.127 28.289,62.372" fill="rgb(216,216,216)"/>
<polygon points="20.215,42.88 12.537,42.635 6.885,28.991 12.141,23.388" fill="rgb(216,216,216)"/>
<polygon points="37.059,58.74 42.567,68.598 45.685,69.889 56.551,66.813" fill="rgb(216,216,216)"/>
<polygon points="28.289,62.372 23.033,67.975 28.685,81.619 36.363,81.864" fill="rgb(216,216,216)"/>
<polygon points="56.551,66.813 62.153,72.07 75.798,66.418 76.043,58.74" fill="rgb(216,216,216)"/>
<polygon points="36.363,81.864 31.107,87.467 36.758,101.111 44.437,101.356" fill="rgb(216,216,216)"/>
<polygon points="76.043,58.74 83.721,58.495 89.373,44.85 84.117,39.248" fill="rgb(216,216,216)"/>
<polygon points="44.437,101.356 41.36,112.222 42.652,115.34 52.51,120.848" fill="rgb(216,216,216)"/>
<polygon points="84.117,39.248 89.373,33.645 83.721,20.001 76.043,19.756" fill="rgb(216,216,216)"/>
<polygon points="76.043,19.756 75.798,12.078 62.153,6.426 56.551,11.682" fill="rgb(216,216,216)"/>
<polygon points="60.584,140.34 57.508,151.205 58.8,154.324 68.658,159.832" fill="rgb(216,216,216)"/>
<polygon points="56.551,11.682 50.948,6.426 37.304,12.078 37.059,19.756" fill="rgb(216,216,216)"/>
<polygon points="68.658,159.832 63.402,165.435 69.054,179.079 76.732,179.324" fill="rgb(216,216,216)"/>
<polygon points="85.502,175.691 86.002,180.621 79.864,183.164 76.732,179.324" fill="rgb(216,216,216)"/>
<polygon points="28.985,39.248 25.909,28.382 27.201,25.264 37.059,19.756" fill="#99d9fa"/>
<line x1="20.215" y1="42.88" x2="28.985" y2="39.248" stroke="#8c8c8c" stroke-width="0.3" stroke-dasharray="1.2,0.8"/>
<line x1="37.059" y1="58.739" x2="28.985" y2="39.248" stroke="#8c8c8c" stroke-width="0.3" stroke-dasharray="1.2,0.8"/>
<line x1="37.059" y1="58.739" x2="28.289" y2="62.372" stroke="#8c8c8c" stroke-width="0.3" stroke-dasharray="1.2,0.8"/>
<line x1="45.133" y1="78.231" x2="36.363" y2="81.864" stroke="#8c8c8c" stroke-width="0.3" stroke-dasharray="1.2,0.8"/>
<line x1="53.206" y1="97.723" x2="44.437" y2="101.356" stroke="#8c8c8c" stroke-width="0.3" stroke-dasharray="1.2,0.8"/>
<line x1="61.28" y1="117.215" x2="52.51" y2="120.848" stroke="#8c8c8c" stroke-width="0.3" stroke-dasharray="1.2,0.8"/>
<line x1="60.584" y1="140.34" x2="52.51" y2="120.848" stroke="#8c8c8c" stroke-width="0.3" stroke-dasharray="1.2,0.8"/>
<line x1="69.354" y1="136.707" x2="60.584" y2="140.34" stroke="#8c8c8c" stroke-width="0.3" stroke-dasharray="1.2,0.8"/>
<line x1="77.428" y1="156.199" x2="68.658" y2="159.832" stroke="#8c8c8c" stroke-width="0.3" stroke-dasharray="1.2,0.8"/>
<line x1="37.059" y1="19.756" x2="28.985" y2="39.248" stroke="#8c8c8c" stroke-width="0.3" stroke-dasharray="1.2,0.8"/>
<line x1="28.289" y1="62.372" x2="20.215" y2="42.88" stroke="#8c8c8c" stroke-width="0.3" stroke-dasharray="1.2,0.8"/>
<line x1="12.141" y1="23.388" x2="20.215" y2="42.88" stroke="#8c8c8c" stroke-width="0.3" stroke-dasharray="1.2,0.8"/>
<line x1="56.551" y1="66.813" x2="37.059" y2="58.74" stroke="#8c8c8c" stroke-width="0.3" stroke-dasharray="1.2,0.8"/>
<line x1="36.363" y1="81.864" x2="28.289" y2="62.372" stroke="#8c8c8c" stroke-width="0.3" stroke-dasharray="1.2,0.8"/>
<line x1="76.043" y1="58.74" x2="56.551" y2="66.813" stroke="#8c8c8c" stroke-width="0.3" stroke-dasharray="1.2,0.8"/>
<line x1="44.437" y1="101.356" x2="36.363" y2="81.864" stroke="#8c8c8c" stroke-width="0.3" stroke-dasharray="1.2,0.8"/>
<line x1="84.117" y1="39.248" x2="76.043" y2="58.74" stroke="#8c8c8c" stroke-width="0.3" stroke-dasharray="1.2,0.8"/>
<line x1="52.51" y1="120.848" x2="44.437" y2="101.356" stroke="#8c8c8c" stroke-width="0.3" stroke-dasharray="1.2,0.8"/>
<line x1="76.043" y1="19.756" x2="84.117" y2="39.248" stroke="#8c8c8c" stroke-width="0.3" stroke-dasharray="1.2,0.8"/>
<line x1="56.551" y1="11.682" x2="76.043" y2="19.756" stroke="#8c8c8c" stroke-width="0.3" stroke-dasharray="1.2,0.8"/>
<line x1="68.658" y1="159.832" x2="60.584" y2="140.34" stroke="#8c8c8c" stroke-width="0.3" stroke-dasharray="1.2,0.8"/>
<line x1="37.059" y1="19.756" x2="56.551" y2="11.682" stroke="#8c8c8c" stroke-width="0.3" stroke-dasharray="1.2,0.8"/>
<line x1="76.732" y1="179.324" x2="68.658" y2="159.832" stroke="#8c8c8c" stroke-width="0.3" stroke-dasharray="1.2,0.8"/>
<line x1="76.732" y1="179.324" x2="85.502" y2="175.691" stroke="#8c8c8c" stroke-width="0.3" stroke-dasharray="1.2,0.8"/>
<line x1="20.911" y1="19.756" x2="28.985" y2="39.248" stroke="#141414" stroke-width="0.4"/>
<line x1="13.526" y1="159.832" x2="5.453" y2="140.34" stroke="#141414" stroke-width="0.4"/>
<line x1="33.019" y1="167.906" x2="13.526" y2="159.832" stroke="#141414" stroke-width="0.4"/>
<line x1="37.059" y1="58.739" x2="45.133" y2="78.231" stroke="#141414" stroke-width="0.4"/>
<line x1="5.453" y1="140.34" x2="13.526" y2="120.848" stroke="#141414" stroke-width="0.4"/>
<line x1="45.133" y1="78.231" x2="53.206" y2="97.723" stroke="#141414" stroke-width="0.4"/>
<line x1="13.526" y1="120.848" x2="33.019" y2="112.774" stroke="#141414" stroke-width="0.4"/>
<line x1="53.206" y1="97.723" x2="61.28" y2="117.215" stroke="#141414" stroke-width="0.4"/>
<line x1="33.019" y1="112.774" x2="52.51" y2="120.848" stroke="#141414" stroke-width="0.4"/>
<line x1="61.28" y1="117.215" x2="69.354" y2="136.707" stroke="#141414" stroke-width="0.4"/>
<line x1="69.354" y1="136.707" x2="77.428" y2="156.199" stroke="#141414" stroke-width="0.4"/>
<line x1="60.584" y1="140.34" x2="52.51" y2="159.832" stroke="#141414" stroke-width="0.4"/>
<line x1="77.428" y1="156.199" x2="85.502" y2="175.691" stroke="#141414" stroke-width="0.4"/>
<line x1="52.51" y1="159.832" x2="33.019" y2="167.906" stroke="#141414" stroke-width="0.4"/>
<line x1="12.141" y1="23.388" x2="20.911" y2="19.756" stroke="#141414" stroke-width="0.4"/>
<line x1="28.985" y1="39.248" x2="25.909" y2="28.382" stroke="#141414" stroke-width="0.4"/>
<line x1="25.909" y1="28.382" x2="27.201" y2="25.264" stroke="#141414" stroke-width="0.4"/>
<line x1="27.201" y1="25.264" x2="37.059" y2="19.756" stroke="#141414" stroke-width="0.4"/>
<line x1="20.215" y1="42.88" x2="14.959" y2="48.483" stroke="#141414" stroke-width="0.4"/>
<line x1="14.959" y1="48.483" x2="20.611" y2="62.127" stroke="#141414" stroke-width="0.4"/>
<line x1="20.611" y1="62.127" x2="28.289" y2="62.372" stroke="#141414" stroke-width="0.4"/>
<line x1="20.215" y1="42.88" x2="12.537" y2="42.635" stroke="#141414" stroke-width="0.4"/>
<line x1="12.537" y1="42.635" x2="6.885" y2="28.991" stroke="#141414" stroke-width="0.4"/>
<line x1="6.885" y1="28.991" x2="12.141" y2="23.388" stroke="#141414" stroke-width="0.4"/>
<line x1="37.059" y1="58.74" x2="42.567" y2="68.598" stroke="#141414" stroke-width="0.4"/>
<line x1="42.567" y1="68.598" x2="45.685" y2="69.889" stroke="#141414" stroke-width="0.4"/>
<line x1="45.685" y1="69.889" x2="56.551" y2="66.813" stroke="#141414" stroke-width="0.4"/>
<line x1="28.289" y1="62.372" x2="23.033" y2="67.975" stroke="#141414" stroke-width="0.4"/>
<line x1="23.033" y1="67.975" x2="28.685" y2="81.619" stroke="#141414" stroke-width="0.4"/>
<line x1="28.685" y1="81.619" x2="36.363" y2="81.864" stroke="#141414" stroke-width="0.4"/>
<line x1="56.551" y1="66.813" x2="62.153" y2="72.07" stroke="#141414" stroke-width="0.4"/>
<line x1="62.153" y1="72.07" x2="75.798" y2="66.418" stroke="#141414" stroke-width="0.4"/>
<line x1="75.798" y1="66.418" x2="76.043" y2="58.74" stroke="#141414" stroke-width="0.4"/>
<line x1="36.363" y1="81.864" x2="31.107" y2="87.467" stroke="#141414" stroke-width="0.4"/>
<line x1="31.107" y1="87.467" x2="36.758" y2="101.111" stroke="#141414" stroke-width="0.4"/>
<line x1="36.758" y1="101.111" x2="44.437" y2="101.356" stroke="#141414" stroke-width="0.4"/>
<line x1="76.043" y1="58.74" x2="83.721" y2="58.495" stroke="#141414" stroke-width="0.4"/>
<line x1="83.721" y1="58.495" x2="89.373" y2="44.85" stroke="#141414" stroke-width="0.4"/>
<line x1="89.373" y1="44.85" x2="84.117" y2="39.248" stroke="#141414" stroke-width="0.4"/>
<line x1="44.437" y1="101.356" x2="41.36" y2="112.222" stroke="#141414" stroke-width="0.4"/>
<line x1="41.36" y1="112.222" x2="42.652" y2="115.34" stroke="#141414" stroke-width="0.4"/>
<line x1="42.652" y1="115.34" x2="52.51" y2="120.848" stroke="#141414" stroke-width="0.4"/>
<line x1="84.117" y1="39.248" x2="89.373" y2="33.645" stroke="#141414" stroke-width="0.4"/>
<line x1="89.373" y1="33.645" x2="83.721" y2="20.001" stroke="#141414" stroke-width="0.4"/>
<line x1="83.721" y1="20.001" x2="76.043" y2="19.756" stroke="#141414" stroke-width="0.4"/>
<line x1="76.043" y1="19.756" x2="75.798" y2="12.078" stroke="#141414" stroke-width="0.4"/>
<line x1="75.798" y1="12.078" x2="62.153" y2="6.426" stroke="#141414" stroke-width="0.4"/>
<line x1="62.153" y1="6.426" x2="56.551" y2="11.682" stroke="#141414" stroke-width="0.4"/>
<line x1="60.584" y1="140.34" x2="57.508" y2="151.205" stroke="#141414" stroke-width="0.4"/>
<line x1="57.508" y1="151.205" x2="58.8" y2="154.324" stroke="#141414" stroke-width="0.4"/>
<line x1="58.8" y1="154.324" x2="68.658" y2="159.832" stroke="#141414" stroke-width="0.4"/>
<line x1="56.551" y1="11.682" x2="50.948" y2="6.426" stroke="#141414" stroke-width="0.4"/>
<line x1="50.948" y1="6.426" x2="37.304" y2="12.078" stroke="#141414" stroke-width="0.4"/>
<line x1="37.304" y1="12.078" x2="37.059" y2="19.756" stroke="#141414" stroke-width="0.4"/>
<line x1="68.658" y1="159.832" x2="63.402" y2="165.435" stroke="#141414" stroke-width="0.4"/>
<line x1="63.402" y1="165.435" x2="69.054" y2="179.079" stroke="#141414" stroke-width="0.4"/>
<line x1="69.054" y1="179.079" x2="76.732" y2="179.324" stroke="#141414" stroke-width="0.4"/>
<line x1="85.502" y1="175.691" x2="86.002" y2="180.621" stroke="#141414" stroke-width="0.4"/>
<line x1="86.002" y1="180.621" x2="79.864" y2="183.164" stroke="#141414" stroke-width="0.4"/>
<line x1="79.864" y1="183.164" x2="76.732" y2="179.324" stroke="#141414" stroke-width="0.4"/>
<circle cx="29.788" cy="28.162" r="2.09" fill="#99d9fa" stroke="#464646" stroke-width="0.2"/>
<text x="29.788" y="29.15" font-size="2.83" text-anchor="middle" fill="#141414">49</text>
<circle cx="21.018" cy="53.966" r="2.09" fill="#ffe082" stroke="#464646" stroke-width="0.2"/>
<text x="21.018" y="54.96" font-size="2.83" text-anchor="middle" fill="#141414">50</text>
<circle cx="12.945" cy="34.474" r="2.09" fill="#ffe082" stroke="#464646" stroke-width="0.2"/>
<text x="12.945" y="35.47" font-size="2.83" text-anchor="middle" fill="#141414">51</text>
<circle cx="45.465" cy="66.01" r="2.09" fill="#ffe082" stroke="#464646" stroke-width="0.2"/>
<text x="45.465" y="67.00" font-size="2.83" text-anchor="middle" fill="#141414">52</text>
<circle cx="29.092" cy="73.458" r="2.09" fill="#ffe082" stroke="#464646" stroke-width="0.2"/>
<text x="29.092" y="74.45" font-size="2.83" text-anchor="middle" fill="#141414">53</text>
<circle cx="67.636" cy="66.01" r="2.09" fill="#ffe082" stroke="#464646" stroke-width="0.2"/>
<text x="67.636" y="67.00" font-size="2.83" text-anchor="middle" fill="#141414">54</text>
<circle cx="37.166" cy="92.95" r="2.09" fill="#ffe082" stroke="#464646" stroke-width="0.2"/>
<text x="37.166" y="93.94" font-size="2.83" text-anchor="middle" fill="#141414">55</text>
<circle cx="83.313" cy="50.333" r="2.09" fill="#ffe082" stroke="#464646" stroke-width="0.2"/>
<text x="83.313" y="51.32" font-size="2.83" text-anchor="middle" fill="#141414">56</text>
<circle cx="45.24" cy="112.441" r="2.09" fill="#ffe082" stroke="#464646" stroke-width="0.2"/>
<text x="45.24" y="113.43" font-size="2.83" text-anchor="middle" fill="#141414">57</text>
<circle cx="83.313" cy="28.162" r="2.09" fill="#ffe082" stroke="#464646" stroke-width="0.2"/>
<text x="83.313" y="29.15" font-size="2.83" text-anchor="middle" fill="#141414">58</text>
<circle cx="67.636" cy="12.485" r="2.09" fill="#ffe082" stroke="#464646" stroke-width="0.2"/>
<text x="67.636" y="13.48" font-size="2.83" text-anchor="middle" fill="#141414">59</text>
<circle cx="61.388" cy="151.425" r="2.09" fill="#ffe082" stroke="#464646" stroke-width="0.2"/>
<text x="61.388" y="152.42" font-size="2.83" text-anchor="middle" fill="#141414">60</text>
<circle cx="45.465" cy="12.485" r="2.09" fill="#ffe082" stroke="#464646" stroke-width="0.2"/>
<text x="45.465" y="13.48" font-size="2.83" text-anchor="middle" fill="#141414">61</text>
<circle cx="69.461" cy="170.917" r="2.09" fill="#ffe082" stroke="#464646" stroke-width="0.2"/>
<text x="69.461" y="171.91" font-size="2.83" text-anchor="middle" fill="#141414">62</text>
<circle cx="82.025" cy="179.7" r="2.09" fill="#ffe082" stroke="#464646" stroke-width="0.2"/>
<text x="82.025" y="180.69" font-size="2.83" text-anchor="middle" fill="#141414">63</text>
<circle cx="50.053" cy="54.934" r="4.60" fill="#eaf1fe" stroke="#2e78e6" stroke-width="0.3"/>
<text x="50.053" y="56.73" font-size="5.20" text-anchor="middle" fill="#14306e" font-weight="bold">5</text>
<text x="205.0" y="295.0" font-size="3.2" text-anchor="end" fill="#737373" font-family="sans-serif">4 / 4</text>
<g pointer-events="none"><text x="105.0" y="83.2" text-anchor="middle" font-family="sans-serif" font-size="12.4" fill="#9aa0a6" fill-opacity="0.3" transform="rotate(-28 105.0 83.2)">papercraft.kr</text><text x="105.0" y="148.5" text-anchor="middle" font-family="sans-serif" font-size="12.4" fill="#9aa0a6" fill-opacity="0.3" transform="rotate(-28 105.0 148.5)">papercraft.kr</text><text x="105.0" y="213.8" text-anchor="middle" font-family="sans-serif" font-size="12.4" fill="#9aa0a6" fill-opacity="0.3" transform="rotate(-28 105.0 213.8)">papercraft.kr</text></g></svg>
