<svg xmlns="http://www.w3.org/2000/svg" xmlns:xlink="http://www.w3.org/1999/xlink" width="210.00mm" height="297.00mm" viewBox="0 0 210.00 297.00">
<rect x="0" y="0" width="210.00" height="297.00" fill="#ffffff" stroke="#cccccc" stroke-width="0.2"/>
<polygon points="51.558,113.774 46.12,120.774 20.739,120.774 15.3,113.774" fill="rgb(216,216,216)"/>
<polygon points="51.558,77.516 46.12,70.516 20.739,70.516 15.3,77.516" fill="rgb(216,216,216)"/>
<polygon points="87.816,113.774 94.816,108.335 94.816,82.954 87.816,77.516" fill="rgb(216,216,216)"/>
<polygon points="87.816,113.774 94.816,119.212 94.816,144.593 87.816,150.031" fill="rgb(216,216,216)"/>
<polygon points="87.816,77.516 94.816,72.077 94.816,46.697 87.816,41.258" fill="rgb(216,216,216)"/>
<polygon points="15.3,113.774 8.3,108.335 8.3,82.954 15.3,77.516" fill="rgb(216,216,216)"/>
<polygon points="51.558,150.031 56.997,157.031 82.377,157.031 87.816,150.031" fill="rgb(216,216,216)"/>
<polygon points="51.558,113.774 46.12,120.774 20.739,120.774 15.3,113.774" fill="#99d9fa"/>
<line x1="51.558" y1="113.774" x2="51.558" y2="77.516" stroke="#8c8c8c" stroke-width="0.3" stroke-dasharray="1.2,0.8"/>
<line x1="87.816" y1="113.774" x2="51.558" y2="113.774" stroke="#8c8c8c" stroke-width="0.3" stroke-dasharray="1.2,0.8"/>
<line x1="51.558" y1="77.516" x2="87.816" y2="77.516" stroke="#8c8c8c" stroke-width="0.3" stroke-dasharray="1.2,0.8"/>
<line x1="51.558" y1="41.258" x2="87.816" y2="41.258" stroke="#8c8c8c" stroke-width="0.3" stroke-dasharray="1.2,0.8"/>
<line x1="87.816" y1="41.258" x2="87.816" y2="5.0" stroke="#8c8c8c" stroke-width="0.3" stroke-dasharray="1.2,0.8"/>
<line x1="15.3" y1="113.774" x2="51.558" y2="113.774" stroke="#8c8c8c" stroke-width="0.3" stroke-dasharray="1.2,0.8"/>
<line x1="15.3" y1="77.516" x2="51.558" y2="77.516" stroke="#8c8c8c" stroke-width="0.3" stroke-dasharray="1.2,0.8"/>
<line x1="87.816" y1="77.516" x2="87.816" y2="113.774" stroke="#8c8c8c" stroke-width="0.3" stroke-dasharray="1.2,0.8"/>
<line x1="87.816" y1="150.031" x2="87.816" y2="113.774" stroke="#8c8c8c" stroke-width="0.3" stroke-dasharray="1.2,0.8"/>
<line x1="87.816" y1="41.258" x2="87.816" y2="77.516" stroke="#8c8c8c" stroke-width="0.3" stroke-dasharray="1.2,0.8"/>
<line x1="15.3" y1="77.516" x2="15.3" y2="113.774" stroke="#8c8c8c" stroke-width="0.3" stroke-dasharray="1.2,0.8"/>
<line x1="87.816" y1="150.031" x2="51.558" y2="150.031" stroke="#8c8c8c" stroke-width="0.3" stroke-dasharray="1.2,0.8"/>
<line x1="51.558" y1="150.031" x2="51.558" y2="113.774" stroke="#141414" stroke-width="0.4"/>
<line x1="51.558" y1="77.516" x2="51.558" y2="41.258" stroke="#141414" stroke-width="0.4"/>
<line x1="124.074" y1="5.0" x2="124.074" y2="41.258" stroke="#141414" stroke-width="0.4"/>
<line x1="87.816" y1="5.0" x2="124.074" y2="5.0" stroke="#141414" stroke-width="0.4"/>
<line x1="124.074" y1="41.258" x2="87.816" y2="41.258" stroke="#141414" stroke-width="0.4"/>
<line x1="51.558" y1="41.258" x2="51.558" y2="5.0" stroke="#141414" stroke-width="0.4"/>
<line x1="51.558" y1="5.0" x2="87.816" y2="5.0" stroke="#141414" stroke-width="0.4"/>
<line x1="51.558" y1="113.774" x2="46.12" y2="120.774" stroke="#141414" stroke-width="0.4"/>
<line x1="46.12" y1="120.774" x2="20.739" y2="120.774" stroke="#141414" stroke-width="0.4"/>
<line x1="20.739" y1="120.774" x2="15.3" y2="113.774" stroke="#141414" stroke-width="0.4"/>
<line x1="51.558" y1="77.516" x2="46.12" y2="70.516" stroke="#141414" stroke-width="0.4"/>
<line x1="46.12" y1="70.516" x2="20.739" y2="70.516" stroke="#141414" stroke-width="0.4"/>
<line x1="20.739" y1="70.516" x2="15.3" y2="77.516" stroke="#141414" stroke-width="0.4"/>
<line x1="87.816" y1="113.774" x2="94.816" y2="108.335" stroke="#141414" stroke-width="0.4"/>
<line x1="94.816" y1="108.335" x2="94.816" y2="82.954" stroke="#141414" stroke-width="0.4"/>
<line x1="94.816" y1="82.954" x2="87.816" y2="77.516" stroke="#141414" stroke-width="0.4"/>
<line x1="87.816" y1="113.774" x2="94.816" y2="119.212" stroke="#141414" stroke-width="0.4"/>
<line x1="94.816" y1="119.212" x2="94.816" y2="144.593" stroke="#141414" stroke-width="0.4"/>
<line x1="94.816" y1="144.593" x2="87.816" y2="150.031" stroke="#141414" stroke-width="0.4"/>
<line x1="87.816" y1="77.516" x2="94.816" y2="72.077" stroke="#141414" stroke-width="0.4"/>
<line x1="94.816" y1="72.077" x2="94.816" y2="46.697" stroke="#141414" stroke-width="0.4"/>
<line x1="94.816" y1="46.697" x2="87.816" y2="41.258" stroke="#141414" stroke-width="0.4"/>
<line x1="15.3" y1="113.774" x2="8.3" y2="108.335" stroke="#141414" stroke-width="0.4"/>
<line x1="8.3" y1="108.335" x2="8.3" y2="82.954" stroke="#141414" stroke-width="0.4"/>
<line x1="8.3" y1="82.954" x2="15.3" y2="77.516" stroke="#141414" stroke-width="0.4"/>
<line x1="51.558" y1="150.031" x2="56.997" y2="157.031" stroke="#141414" stroke-width="0.4"/>
<line x1="56.997" y1="157.031" x2="82.377" y2="157.031" stroke="#141414" stroke-width="0.4"/>
<line x1="82.377" y1="157.031" x2="87.816" y2="150.031" stroke="#141414" stroke-width="0.4"/>
<circle cx="33.429" cy="117.274" r="1.53" fill="#99d9fa" stroke="#464646" stroke-width="0.2"/>
<text x="33.429" y="117.80" font-size="1.50" text-anchor="middle" fill="#141414">132</text>
<circle cx="33.429" cy="74.016" r="1.53" fill="#ffe082" stroke="#464646" stroke-width="0.2"/>
<text x="33.429" y="74.54" font-size="1.50" text-anchor="middle" fill="#141414">133</text>
<circle cx="91.316" cy="95.645" r="1.53" fill="#ffe082" stroke="#464646" stroke-width="0.2"/>
<text x="91.316" y="96.17" font-size="1.50" text-anchor="middle" fill="#141414">134</text>
<circle cx="91.316" cy="131.902" r="1.53" fill="#ffe082" stroke="#464646" stroke-width="0.2"/>
<text x="91.316" y="132.43" font-size="1.50" text-anchor="middle" fill="#141414">135</text>
<circle cx="91.316" cy="59.387" r="1.53" fill="#ffe082" stroke="#464646" stroke-width="0.2"/>
<text x="91.316" y="59.91" font-size="1.50" text-anchor="middle" fill="#141414">136</text>
<circle cx="11.8" cy="95.645" r="1.53" fill="#ffe082" stroke="#464646" stroke-width="0.2"/>
<text x="11.8" y="96.17" font-size="1.50" text-anchor="middle" fill="#141414">137</text>
<circle cx="69.687" cy="153.531" r="1.53" fill="#ffe082" stroke="#464646" stroke-width="0.2"/>
<text x="69.687" y="154.06" font-size="1.50" text-anchor="middle" fill="#141414">138</text>
<circle cx="75.73" cy="137.945" r="4.60" fill="#eaf1fe" stroke="#2e78e6" stroke-width="0.3"/>
<text x="75.73" y="139.75" font-size="5.20" text-anchor="middle" fill="#14306e" font-weight="bold">18</text>
<text x="205.0" y="295.0" font-size="3.2" text-anchor="end" fill="#737373" font-family="sans-serif">17 / 17</text>
</svg>
