<svg xmlns="http://www.w3.org/2000/svg" xmlns:xlink="http://www.w3.org/1999/xlink" width="210.00mm" height="297.00mm" viewBox="0 0 210.00 297.00">
<rect x="0" y="0" width="210.00" height="297.00" fill="#ffffff" stroke="#cccccc" stroke-width="0.2"/>
<polygon points="55.528,50.89 58.008,43.89 69.581,43.89 72.061,50.89" fill="rgb(216,216,216)"/>
<polygon points="81.598,21.55 80.924,14.154 91.438,9.317 96.616,14.64" fill="rgb(216,216,216)"/>
<polygon points="78.337,37.758 76.743,45.766 81.124,51.086 89.29,51.058" fill="rgb(216,216,216)"/>
<polygon points="68.322,198.407 72.117,205.457 90.247,205.691 94.222,198.741" fill="rgb(216,216,216)"/>
<polygon points="106.208,51.435 115.96,50.389 117.583,48.336 116.353,38.606" fill="rgb(216,216,216)"/>
<polygon points="94.222,198.741 96.625,205.826 108.939,206.241 111.813,199.334" fill="rgb(216,216,216)"/>
<polygon points="122.551,52.08 127.922,74.677 120.405,177.755 111.813,199.334" fill="rgb(216,216,216)"/>
<polygon points="116.353,38.606 122.486,34.384 119.498,22.921 112.084,22.23" fill="rgb(216,216,216)"/>
<polygon points="21.403,201.245 24.139,207.66 33.433,206.618 34.68,199.756" fill="rgb(216,216,216)"/>
<polygon points="112.084,22.23 112.848,14.807 102.02,9.494 96.616,14.64" fill="rgb(216,216,216)"/>
<polygon points="34.68,199.756 40.859,206.137 43.03,205.983 48.248,198.795" fill="rgb(216,216,216)"/>
<polygon points="78.337,37.758 76.743,45.766 81.124,51.086 89.29,51.058" fill="#99d9fa"/>
<line x1="68.322" y1="198.407" x2="55.528" y2="50.89" stroke="#8c8c8c" stroke-width="0.3" stroke-dasharray="1.2,0.8"/>
<line x1="55.528" y1="50.89" x2="48.248" y2="198.795" stroke="#8c8c8c" stroke-width="0.3" stroke-dasharray="1.2,0.8"/>
<line x1="72.061" y1="50.89" x2="68.322" y2="198.407" stroke="#8c8c8c" stroke-width="0.3" stroke-dasharray="1.2,0.8"/>
<line x1="89.29" y1="51.058" x2="68.322" y2="198.407" stroke="#8c8c8c" stroke-width="0.3" stroke-dasharray="1.2,0.8"/>
<line x1="48.248" y1="198.795" x2="68.322" y2="198.407" stroke="#8c8c8c" stroke-width="0.3" stroke-dasharray="1.2,0.8"/>
<line x1="106.208" y1="51.435" x2="89.29" y2="51.058" stroke="#8c8c8c" stroke-width="0.3" stroke-dasharray="1.2,0.8"/>
<line x1="89.29" y1="51.058" x2="94.222" y2="198.741" stroke="#8c8c8c" stroke-width="0.3" stroke-dasharray="1.2,0.8"/>
<line x1="106.208" y1="51.435" x2="94.222" y2="198.741" stroke="#8c8c8c" stroke-width="0.3" stroke-dasharray="1.2,0.8"/>
<line x1="21.817" y1="52.628" x2="34.68" y2="199.756" stroke="#8c8c8c" stroke-width="0.3" stroke-dasharray="1.2,0.8"/>
<line x1="39.004" y1="51.411" x2="48.248" y2="198.795" stroke="#8c8c8c" stroke-width="0.3" stroke-dasharray="1.2,0.8"/>
<line x1="122.551" y1="52.08" x2="94.222" y2="198.741" stroke="#8c8c8c" stroke-width="0.3" stroke-dasharray="1.2,0.8"/>
<line x1="72.061" y1="50.89" x2="55.528" y2="50.89" stroke="#8c8c8c" stroke-width="0.3" stroke-dasharray="1.2,0.8"/>
<line x1="96.616" y1="14.64" x2="81.598" y2="21.55" stroke="#8c8c8c" stroke-width="0.3" stroke-dasharray="1.2,0.8"/>
<line x1="89.29" y1="51.058" x2="78.337" y2="37.758" stroke="#8c8c8c" stroke-width="0.3" stroke-dasharray="1.2,0.8"/>
<line x1="94.222" y1="198.741" x2="68.322" y2="198.407" stroke="#8c8c8c" stroke-width="0.3" stroke-dasharray="1.2,0.8"/>
<line x1="116.353" y1="38.606" x2="106.208" y2="51.435" stroke="#8c8c8c" stroke-width="0.3" stroke-dasharray="1.2,0.8"/>
<line x1="111.813" y1="199.334" x2="94.222" y2="198.741" stroke="#8c8c8c" stroke-width="0.3" stroke-dasharray="1.2,0.8"/>
<line x1="111.813" y1="199.334" x2="122.551" y2="52.08" stroke="#8c8c8c" stroke-width="0.3" stroke-dasharray="1.2,0.8"/>
<line x1="112.084" y1="22.23" x2="116.353" y2="38.606" stroke="#8c8c8c" stroke-width="0.3" stroke-dasharray="1.2,0.8"/>
<line x1="34.68" y1="199.756" x2="21.403" y2="201.245" stroke="#8c8c8c" stroke-width="0.3" stroke-dasharray="1.2,0.8"/>
<line x1="96.616" y1="14.64" x2="112.084" y2="22.23" stroke="#8c8c8c" stroke-width="0.3" stroke-dasharray="1.2,0.8"/>
<line x1="48.248" y1="198.795" x2="34.68" y2="199.756" stroke="#8c8c8c" stroke-width="0.3" stroke-dasharray="1.2,0.8"/>
<line x1="78.337" y1="37.758" x2="81.597" y2="21.55" stroke="#141414" stroke-width="0.4"/>
<line x1="39.004" y1="51.411" x2="55.528" y2="50.89" stroke="#141414" stroke-width="0.4"/>
<line x1="72.061" y1="50.89" x2="89.29" y2="51.058" stroke="#141414" stroke-width="0.4"/>
<line x1="68.322" y1="198.407" x2="66.303" y2="224.23" stroke="#141414" stroke-width="0.4"/>
<line x1="106.208" y1="51.435" x2="122.551" y2="52.08" stroke="#141414" stroke-width="0.4"/>
<line x1="66.303" y1="224.23" x2="48.727" y2="223.301" stroke="#141414" stroke-width="0.4"/>
<line x1="21.403" y1="201.245" x2="5.0" y2="54.515" stroke="#141414" stroke-width="0.4"/>
<line x1="5.0" y1="54.515" x2="21.817" y2="52.628" stroke="#141414" stroke-width="0.4"/>
<line x1="48.727" y1="223.301" x2="42.874" y2="211.291" stroke="#141414" stroke-width="0.4"/>
<line x1="21.817" y1="52.628" x2="39.004" y2="51.411" stroke="#141414" stroke-width="0.4"/>
<line x1="42.874" y1="211.291" x2="48.248" y2="198.795" stroke="#141414" stroke-width="0.4"/>
<line x1="55.528" y1="50.89" x2="58.008" y2="43.89" stroke="#141414" stroke-width="0.4"/>
<line x1="58.008" y1="43.89" x2="69.581" y2="43.89" stroke="#141414" stroke-width="0.4"/>
<line x1="69.581" y1="43.89" x2="72.061" y2="50.89" stroke="#141414" stroke-width="0.4"/>
<line x1="81.598" y1="21.55" x2="80.924" y2="14.154" stroke="#141414" stroke-width="0.4"/>
<line x1="80.924" y1="14.154" x2="91.438" y2="9.317" stroke="#141414" stroke-width="0.4"/>
<line x1="91.438" y1="9.317" x2="96.616" y2="14.64" stroke="#141414" stroke-width="0.4"/>
<line x1="78.337" y1="37.758" x2="76.743" y2="45.766" stroke="#141414" stroke-width="0.4"/>
<line x1="76.743" y1="45.766" x2="81.124" y2="51.086" stroke="#141414" stroke-width="0.4"/>
<line x1="81.124" y1="51.086" x2="89.29" y2="51.058" stroke="#141414" stroke-width="0.4"/>
<line x1="68.322" y1="198.407" x2="72.117" y2="205.457" stroke="#141414" stroke-width="0.4"/>
<line x1="72.117" y1="205.457" x2="90.247" y2="205.691" stroke="#141414" stroke-width="0.4"/>
<line x1="90.247" y1="205.691" x2="94.222" y2="198.741" stroke="#141414" stroke-width="0.4"/>
<line x1="106.208" y1="51.435" x2="115.96" y2="50.389" stroke="#141414" stroke-width="0.4"/>
<line x1="115.96" y1="50.389" x2="117.583" y2="48.336" stroke="#141414" stroke-width="0.4"/>
<line x1="117.583" y1="48.336" x2="116.353" y2="38.606" stroke="#141414" stroke-width="0.4"/>
<line x1="94.222" y1="198.741" x2="96.625" y2="205.826" stroke="#141414" stroke-width="0.4"/>
<line x1="96.625" y1="205.826" x2="108.939" y2="206.241" stroke="#141414" stroke-width="0.4"/>
<line x1="108.939" y1="206.241" x2="111.813" y2="199.334" stroke="#141414" stroke-width="0.4"/>
<line x1="122.551" y1="52.08" x2="127.922" y2="74.677" stroke="#141414" stroke-width="0.4"/>
<line x1="127.922" y1="74.677" x2="120.405" y2="177.755" stroke="#141414" stroke-width="0.4"/>
<line x1="120.405" y1="177.755" x2="111.813" y2="199.334" stroke="#141414" stroke-width="0.4"/>
<line x1="116.353" y1="38.606" x2="122.486" y2="34.384" stroke="#141414" stroke-width="0.4"/>
<line x1="122.486" y1="34.384" x2="119.498" y2="22.921" stroke="#141414" stroke-width="0.4"/>
<line x1="119.498" y1="22.921" x2="112.084" y2="22.23" stroke="#141414" stroke-width="0.4"/>
<line x1="21.403" y1="201.245" x2="24.139" y2="207.66" stroke="#141414" stroke-width="0.4"/>
<line x1="24.139" y1="207.66" x2="33.433" y2="206.618" stroke="#141414" stroke-width="0.4"/>
<line x1="33.433" y1="206.618" x2="34.68" y2="199.756" stroke="#141414" stroke-width="0.4"/>
<line x1="112.084" y1="22.23" x2="112.848" y2="14.807" stroke="#141414" stroke-width="0.4"/>
<line x1="112.848" y1="14.807" x2="102.02" y2="9.494" stroke="#141414" stroke-width="0.4"/>
<line x1="102.02" y1="9.494" x2="96.616" y2="14.64" stroke="#141414" stroke-width="0.4"/>
<line x1="34.68" y1="199.756" x2="40.859" y2="206.137" stroke="#141414" stroke-width="0.4"/>
<line x1="40.859" y1="206.137" x2="43.03" y2="205.983" stroke="#141414" stroke-width="0.4"/>
<line x1="43.03" y1="205.983" x2="48.248" y2="198.795" stroke="#141414" stroke-width="0.4"/>
<circle cx="63.794" cy="47.39" r="1.71" fill="#ffe082" stroke="#464646" stroke-width="0.2"/>
<text x="63.794" y="47.98" font-size="1.68" text-anchor="middle" fill="#141414">46</text>
<circle cx="87.644" cy="14.915" r="1.71" fill="#ffe082" stroke="#464646" stroke-width="0.2"/>
<text x="87.644" y="15.50" font-size="1.68" text-anchor="middle" fill="#141414">47</text>
<circle cx="81.374" cy="46.417" r="1.71" fill="#99d9fa" stroke="#464646" stroke-width="0.2"/>
<text x="81.374" y="47.00" font-size="1.68" text-anchor="middle" fill="#141414">48</text>
<circle cx="81.227" cy="202.074" r="1.71" fill="#ffe082" stroke="#464646" stroke-width="0.2"/>
<text x="81.227" y="202.66" font-size="1.68" text-anchor="middle" fill="#141414">49</text>
<circle cx="114.026" cy="47.191" r="1.71" fill="#ffe082" stroke="#464646" stroke-width="0.2"/>
<text x="114.026" y="47.78" font-size="1.68" text-anchor="middle" fill="#141414">50</text>
<circle cx="102.9" cy="202.536" r="1.71" fill="#ffe082" stroke="#464646" stroke-width="0.2"/>
<text x="102.9" y="203.12" font-size="1.68" text-anchor="middle" fill="#141414">51</text>
<circle cx="120.673" cy="125.962" r="1.71" fill="#ffe082" stroke="#464646" stroke-width="0.2"/>
<text x="120.673" y="126.55" font-size="1.68" text-anchor="middle" fill="#141414">52</text>
<circle cx="117.605" cy="29.535" r="1.71" fill="#ffe082" stroke="#464646" stroke-width="0.2"/>
<text x="117.605" y="30.12" font-size="1.68" text-anchor="middle" fill="#141414">53</text>
<circle cx="28.414" cy="203.82" r="1.71" fill="#ffe082" stroke="#464646" stroke-width="0.2"/>
<text x="28.414" y="204.41" font-size="1.68" text-anchor="middle" fill="#141414">54</text>
<circle cx="105.892" cy="15.293" r="1.71" fill="#ffe082" stroke="#464646" stroke-width="0.2"/>
<text x="105.892" y="15.88" font-size="1.68" text-anchor="middle" fill="#141414">55</text>
<circle cx="41.704" cy="202.668" r="1.71" fill="#ffe082" stroke="#464646" stroke-width="0.2"/>
<text x="41.704" y="203.26" font-size="1.68" text-anchor="middle" fill="#141414">56</text>
<circle cx="83.945" cy="149.402" r="4.60" fill="#eaf1fe" stroke="#2e78e6" stroke-width="0.3"/>
<text x="83.945" y="151.20" font-size="5.20" text-anchor="middle" fill="#14306e" font-weight="bold">4</text>
<text x="205.0" y="295.0" font-size="3.2" text-anchor="end" fill="#737373" font-family="sans-serif">4 / 9</text>
</svg>
