<svg xmlns="http://www.w3.org/2000/svg" xmlns:xlink="http://www.w3.org/1999/xlink" width="210.00mm" height="297.00mm" viewBox="0 0 210.00 297.00">
<rect x="0" y="0" width="210.00" height="297.00" fill="#ffffff" stroke="#cccccc" stroke-width="0.2"/>
<polygon points="60.122,34.943 59.011,26.154 76.927,8.239 85.715,9.349" fill="rgb(216,216,216)"/>
<polygon points="32.936,65.785 31.277,74.025 46.633,89.382 54.873,87.723" fill="rgb(216,216,216)"/>
<polygon points="32.936,65.785 24.969,68.465 7.806,55.158 8.418,46.774" fill="rgb(216,216,216)"/>
<polygon points="85.715,60.537 94.504,61.648 112.42,43.732 111.309,34.943" fill="rgb(216,216,216)"/>
<polygon points="54.873,87.723 52.193,95.689 65.501,112.852 73.884,112.24" fill="rgb(216,216,216)"/>
<polygon points="111.309,34.943 112.42,26.154 94.504,8.239 85.715,9.349" fill="rgb(216,216,216)"/>
<polygon points="126.308,120.303 123.986,129.338 98.338,142.392 89.667,138.95" fill="rgb(216,216,216)"/>
<polygon points="60.122,34.943 59.011,26.154 76.927,8.239 85.715,9.349" fill="#99d9fa"/>
<line x1="32.936" y1="65.785" x2="60.121" y2="34.943" stroke="#8c8c8c" stroke-width="0.3" stroke-dasharray="1.2,0.8"/>
<line x1="85.715" y1="60.537" x2="60.121" y2="34.943" stroke="#8c8c8c" stroke-width="0.3" stroke-dasharray="1.2,0.8"/>
<line x1="85.715" y1="60.537" x2="54.873" y2="87.723" stroke="#8c8c8c" stroke-width="0.3" stroke-dasharray="1.2,0.8"/>
<line x1="107.894" y1="89.141" x2="73.884" y2="112.24" stroke="#8c8c8c" stroke-width="0.3" stroke-dasharray="1.2,0.8"/>
<line x1="89.667" y1="138.951" x2="73.884" y2="112.24" stroke="#8c8c8c" stroke-width="0.3" stroke-dasharray="1.2,0.8"/>
<line x1="85.715" y1="9.349" x2="60.122" y2="34.943" stroke="#8c8c8c" stroke-width="0.3" stroke-dasharray="1.2,0.8"/>
<line x1="54.873" y1="87.723" x2="32.936" y2="65.785" stroke="#8c8c8c" stroke-width="0.3" stroke-dasharray="1.2,0.8"/>
<line x1="8.418" y1="46.774" x2="32.936" y2="65.785" stroke="#8c8c8c" stroke-width="0.3" stroke-dasharray="1.2,0.8"/>
<line x1="111.309" y1="34.943" x2="85.715" y2="60.537" stroke="#8c8c8c" stroke-width="0.3" stroke-dasharray="1.2,0.8"/>
<line x1="73.884" y1="112.24" x2="54.873" y2="87.723" stroke="#8c8c8c" stroke-width="0.3" stroke-dasharray="1.2,0.8"/>
<line x1="85.715" y1="9.349" x2="111.309" y2="34.943" stroke="#8c8c8c" stroke-width="0.3" stroke-dasharray="1.2,0.8"/>
<line x1="89.667" y1="138.95" x2="126.308" y2="120.303" stroke="#8c8c8c" stroke-width="0.3" stroke-dasharray="1.2,0.8"/>
<line x1="31.517" y1="12.764" x2="60.121" y2="34.943" stroke="#141414" stroke-width="0.4"/>
<line x1="62.956" y1="154.733" x2="47.174" y2="128.023" stroke="#141414" stroke-width="0.4"/>
<line x1="89.667" y1="138.951" x2="62.956" y2="154.733" stroke="#141414" stroke-width="0.4"/>
<line x1="85.715" y1="60.537" x2="107.894" y2="89.141" stroke="#141414" stroke-width="0.4"/>
<line x1="47.174" y1="128.023" x2="73.884" y2="112.24" stroke="#141414" stroke-width="0.4"/>
<line x1="107.894" y1="89.141" x2="126.308" y2="120.303" stroke="#141414" stroke-width="0.4"/>
<line x1="8.418" y1="46.774" x2="31.517" y2="12.764" stroke="#141414" stroke-width="0.4"/>
<line x1="60.122" y1="34.943" x2="59.011" y2="26.154" stroke="#141414" stroke-width="0.4"/>
<line x1="59.011" y1="26.154" x2="76.927" y2="8.239" stroke="#141414" stroke-width="0.4"/>
<line x1="76.927" y1="8.239" x2="85.715" y2="9.349" stroke="#141414" stroke-width="0.4"/>
<line x1="32.936" y1="65.785" x2="31.277" y2="74.025" stroke="#141414" stroke-width="0.4"/>
<line x1="31.277" y1="74.025" x2="46.633" y2="89.382" stroke="#141414" stroke-width="0.4"/>
<line x1="46.633" y1="89.382" x2="54.873" y2="87.723" stroke="#141414" stroke-width="0.4"/>
<line x1="32.936" y1="65.785" x2="24.969" y2="68.465" stroke="#141414" stroke-width="0.4"/>
<line x1="24.969" y1="68.465" x2="7.806" y2="55.158" stroke="#141414" stroke-width="0.4"/>
<line x1="7.806" y1="55.158" x2="8.418" y2="46.774" stroke="#141414" stroke-width="0.4"/>
<line x1="85.715" y1="60.537" x2="94.504" y2="61.648" stroke="#141414" stroke-width="0.4"/>
<line x1="94.504" y1="61.648" x2="112.42" y2="43.732" stroke="#141414" stroke-width="0.4"/>
<line x1="112.42" y1="43.732" x2="111.309" y2="34.943" stroke="#141414" stroke-width="0.4"/>
<line x1="54.873" y1="87.723" x2="52.193" y2="95.689" stroke="#141414" stroke-width="0.4"/>
<line x1="52.193" y1="95.689" x2="65.501" y2="112.852" stroke="#141414" stroke-width="0.4"/>
<line x1="65.501" y1="112.852" x2="73.884" y2="112.24" stroke="#141414" stroke-width="0.4"/>
<line x1="111.309" y1="34.943" x2="112.42" y2="26.154" stroke="#141414" stroke-width="0.4"/>
<line x1="112.42" y1="26.154" x2="94.504" y2="8.239" stroke="#141414" stroke-width="0.4"/>
<line x1="94.504" y1="8.239" x2="85.715" y2="9.349" stroke="#141414" stroke-width="0.4"/>
<line x1="126.308" y1="120.303" x2="123.986" y2="129.338" stroke="#141414" stroke-width="0.4"/>
<line x1="123.986" y1="129.338" x2="98.338" y2="142.392" stroke="#141414" stroke-width="0.4"/>
<line x1="98.338" y1="142.392" x2="89.667" y2="138.95" stroke="#141414" stroke-width="0.4"/>
<circle cx="70.444" cy="19.671" r="1.86" fill="#99d9fa" stroke="#464646" stroke-width="0.2"/>
<text x="70.444" y="20.31" font-size="1.82" text-anchor="middle" fill="#141414">52</text>
<circle cx="41.43" cy="79.229" r="1.86" fill="#ffe082" stroke="#464646" stroke-width="0.2"/>
<text x="41.43" y="79.87" font-size="1.82" text-anchor="middle" fill="#141414">53</text>
<circle cx="18.532" cy="59.046" r="1.86" fill="#ffe082" stroke="#464646" stroke-width="0.2"/>
<text x="18.532" y="59.68" font-size="1.82" text-anchor="middle" fill="#141414">54</text>
<circle cx="100.987" cy="50.215" r="1.86" fill="#ffe082" stroke="#464646" stroke-width="0.2"/>
<text x="100.987" y="50.85" font-size="1.82" text-anchor="middle" fill="#141414">55</text>
<circle cx="61.613" cy="102.126" r="1.86" fill="#ffe082" stroke="#464646" stroke-width="0.2"/>
<text x="61.613" y="102.76" font-size="1.82" text-anchor="middle" fill="#141414">56</text>
<circle cx="100.987" cy="19.671" r="1.86" fill="#ffe082" stroke="#464646" stroke-width="0.2"/>
<text x="100.987" y="20.31" font-size="1.82" text-anchor="middle" fill="#141414">57</text>
<circle cx="109.575" cy="132.746" r="1.86" fill="#ffe082" stroke="#464646" stroke-width="0.2"/>
<text x="109.575" y="133.38" font-size="1.82" text-anchor="middle" fill="#141414">58</text>
<circle cx="94.247" cy="26.412" r="4.60" fill="#eaf1fe" stroke="#2e78e6" stroke-width="0.3"/>
<text x="94.247" y="28.21" font-size="5.20" text-anchor="middle" fill="#14306e" font-weight="bold">4</text>
<polygon points="56.648,181.33 54.989,173.089 70.345,157.733 78.586,159.392" fill="rgb(216,216,216)"/>
<polygon points="29.462,212.172 27.255,219.864 40.052,232.661 47.744,230.453" fill="rgb(216,216,216)"/>
<polygon points="29.462,212.172 22.108,215.327 7.806,204.238 9.031,196.33" fill="rgb(216,216,216)"/>
<polygon points="78.586,203.267 86.826,204.926 102.183,189.57 100.524,181.33" fill="rgb(216,216,216)"/>
<polygon points="47.744,230.453 44.588,237.807 55.678,252.109 63.586,250.885" fill="rgb(216,216,216)"/>
<polygon points="100.524,181.33 102.183,173.089 86.826,157.733 78.586,159.392" fill="rgb(216,216,216)"/>
<polygon points="113.379,254.495 111.058,263.531 85.409,276.584 76.738,273.143" fill="rgb(216,216,216)"/>
<polygon points="56.648,181.33 54.989,173.089 70.345,157.733 78.586,159.392" fill="#99d9fa"/>
<line x1="29.462" y1="212.172" x2="56.648" y2="181.33" stroke="#8c8c8c" stroke-width="0.3" stroke-dasharray="1.2,0.8"/>
<line x1="78.586" y1="203.267" x2="56.648" y2="181.33" stroke="#8c8c8c" stroke-width="0.3" stroke-dasharray="1.2,0.8"/>
<line x1="78.586" y1="203.267" x2="47.744" y2="230.453" stroke="#8c8c8c" stroke-width="0.3" stroke-dasharray="1.2,0.8"/>
<line x1="97.596" y1="227.785" x2="63.586" y2="250.885" stroke="#8c8c8c" stroke-width="0.3" stroke-dasharray="1.2,0.8"/>
<line x1="76.738" y1="273.143" x2="63.586" y2="250.885" stroke="#8c8c8c" stroke-width="0.3" stroke-dasharray="1.2,0.8"/>
<line x1="78.586" y1="159.392" x2="56.648" y2="181.33" stroke="#8c8c8c" stroke-width="0.3" stroke-dasharray="1.2,0.8"/>
<line x1="47.744" y1="230.453" x2="29.462" y2="212.172" stroke="#8c8c8c" stroke-width="0.3" stroke-dasharray="1.2,0.8"/>
<line x1="9.031" y1="196.33" x2="29.462" y2="212.172" stroke="#8c8c8c" stroke-width="0.3" stroke-dasharray="1.2,0.8"/>
<line x1="100.524" y1="181.33" x2="78.586" y2="203.267" stroke="#8c8c8c" stroke-width="0.3" stroke-dasharray="1.2,0.8"/>
<line x1="63.586" y1="250.885" x2="47.744" y2="230.453" stroke="#8c8c8c" stroke-width="0.3" stroke-dasharray="1.2,0.8"/>
<line x1="78.586" y1="159.392" x2="100.524" y2="181.33" stroke="#8c8c8c" stroke-width="0.3" stroke-dasharray="1.2,0.8"/>
<line x1="76.738" y1="273.143" x2="113.379" y2="254.495" stroke="#8c8c8c" stroke-width="0.3" stroke-dasharray="1.2,0.8"/>
<line x1="32.13" y1="162.319" x2="56.648" y2="181.33" stroke="#141414" stroke-width="0.4"/>
<line x1="54.48" y1="286.295" x2="41.328" y2="264.037" stroke="#141414" stroke-width="0.4"/>
<line x1="76.738" y1="273.143" x2="54.48" y2="286.295" stroke="#141414" stroke-width="0.4"/>
<line x1="78.586" y1="203.267" x2="97.596" y2="227.785" stroke="#141414" stroke-width="0.4"/>
<line x1="41.328" y1="264.037" x2="63.586" y2="250.885" stroke="#141414" stroke-width="0.4"/>
<line x1="97.596" y1="227.785" x2="113.379" y2="254.495" stroke="#141414" stroke-width="0.4"/>
<line x1="9.031" y1="196.329" x2="32.13" y2="162.319" stroke="#141414" stroke-width="0.4"/>
<line x1="56.648" y1="181.33" x2="54.989" y2="173.089" stroke="#141414" stroke-width="0.4"/>
<line x1="54.989" y1="173.089" x2="70.345" y2="157.733" stroke="#141414" stroke-width="0.4"/>
<line x1="70.345" y1="157.733" x2="78.586" y2="159.392" stroke="#141414" stroke-width="0.4"/>
<line x1="29.462" y1="212.172" x2="27.255" y2="219.864" stroke="#141414" stroke-width="0.4"/>
<line x1="27.255" y1="219.864" x2="40.052" y2="232.661" stroke="#141414" stroke-width="0.4"/>
<line x1="40.052" y1="232.661" x2="47.744" y2="230.453" stroke="#141414" stroke-width="0.4"/>
<line x1="29.462" y1="212.172" x2="22.108" y2="215.327" stroke="#141414" stroke-width="0.4"/>
<line x1="22.108" y1="215.327" x2="7.806" y2="204.238" stroke="#141414" stroke-width="0.4"/>
<line x1="7.806" y1="204.238" x2="9.031" y2="196.33" stroke="#141414" stroke-width="0.4"/>
<line x1="78.586" y1="203.267" x2="86.826" y2="204.926" stroke="#141414" stroke-width="0.4"/>
<line x1="86.826" y1="204.926" x2="102.183" y2="189.57" stroke="#141414" stroke-width="0.4"/>
<line x1="102.183" y1="189.57" x2="100.524" y2="181.33" stroke="#141414" stroke-width="0.4"/>
<line x1="47.744" y1="230.453" x2="44.588" y2="237.807" stroke="#141414" stroke-width="0.4"/>
<line x1="44.588" y1="237.807" x2="55.678" y2="252.109" stroke="#141414" stroke-width="0.4"/>
<line x1="55.678" y1="252.109" x2="63.586" y2="250.885" stroke="#141414" stroke-width="0.4"/>
<line x1="100.524" y1="181.33" x2="102.183" y2="173.089" stroke="#141414" stroke-width="0.4"/>
<line x1="102.183" y1="173.089" x2="86.826" y2="157.733" stroke="#141414" stroke-width="0.4"/>
<line x1="86.826" y1="157.733" x2="78.586" y2="159.392" stroke="#141414" stroke-width="0.4"/>
<line x1="113.379" y1="254.495" x2="111.058" y2="263.531" stroke="#141414" stroke-width="0.4"/>
<line x1="111.058" y1="263.531" x2="85.409" y2="276.584" stroke="#141414" stroke-width="0.4"/>
<line x1="85.409" y1="276.584" x2="76.738" y2="273.143" stroke="#141414" stroke-width="0.4"/>
<circle cx="65.142" cy="167.886" r="1.86" fill="#99d9fa" stroke="#464646" stroke-width="0.2"/>
<text x="65.142" y="168.52" font-size="1.82" text-anchor="middle" fill="#141414">59</text>
<circle cx="36.128" cy="223.787" r="1.86" fill="#ffe082" stroke="#464646" stroke-width="0.2"/>
<text x="36.128" y="224.42" font-size="1.82" text-anchor="middle" fill="#141414">60</text>
<circle cx="17.102" cy="207.017" r="1.86" fill="#ffe082" stroke="#464646" stroke-width="0.2"/>
<text x="17.102" y="207.65" font-size="1.82" text-anchor="middle" fill="#141414">61</text>
<circle cx="92.03" cy="194.773" r="1.86" fill="#ffe082" stroke="#464646" stroke-width="0.2"/>
<text x="92.03" y="195.41" font-size="1.82" text-anchor="middle" fill="#141414">62</text>
<circle cx="52.899" cy="242.813" r="1.86" fill="#ffe082" stroke="#464646" stroke-width="0.2"/>
<text x="52.899" y="243.45" font-size="1.82" text-anchor="middle" fill="#141414">63</text>
<circle cx="92.03" cy="167.886" r="1.86" fill="#ffe082" stroke="#464646" stroke-width="0.2"/>
<text x="92.03" y="168.52" font-size="1.82" text-anchor="middle" fill="#141414">64</text>
<circle cx="96.646" cy="266.938" r="1.86" fill="#ffe082" stroke="#464646" stroke-width="0.2"/>
<text x="96.646" y="267.57" font-size="1.82" text-anchor="middle" fill="#141414">65</text>
<circle cx="74.642" cy="220.502" r="4.60" fill="#eaf1fe" stroke="#2e78e6" stroke-width="0.3"/>
<text x="74.642" y="222.30" font-size="5.20" text-anchor="middle" fill="#14306e" font-weight="bold">5</text>
<polygon points="138.313,194.49 143.606,187.49 150.663,187.49 155.956,194.49" fill="rgb(216,216,216)"/>
<polygon points="151.895,177.32 149.355,170.119 159.772,160.41 166.777,163.451" fill="rgb(216,216,216)"/>
<polygon points="125.357,195.893 134.964,199.697 136.298,202.326 133.69,212.325" fill="rgb(216,216,216)"/>
<polygon points="147.603,208.878 147.111,217.684 148.194,219.88 154.881,223.637" fill="rgb(216,216,216)"/>
<polygon points="164.306,209.658 174.614,209.57 176.809,208.069 179.024,199.591" fill="rgb(216,216,216)"/>
<polygon points="182.136,209.475 183.663,220.841 181.935,223.839 171.334,228.212" fill="rgb(216,216,216)"/>
<polygon points="179.024,199.591 186.99,197.959 193.28,179.702 188.009,173.51" fill="rgb(216,216,216)"/>
<polygon points="188.009,173.51 187.822,165.675 172.959,158.633 166.777,163.451" fill="rgb(216,216,216)"/>
<polygon points="158.907,236.661 152.769,239.265 153.748,248.152 160.306,249.357" fill="rgb(216,216,216)"/>
<polygon points="158.907,236.661 151.791,236.72 148.973,227.604 154.881,223.637" fill="rgb(216,216,216)"/>
<polygon points="160.306,249.357 153.854,252.909 155.843,263.393 163.146,264.336" fill="rgb(216,216,216)"/>
<polygon points="151.895,177.32 149.355,170.119 159.772,160.41 166.777,163.451" fill="#99d9fa"/>
<line x1="147.603" y1="208.878" x2="138.313" y2="194.49" stroke="#8c8c8c" stroke-width="0.3" stroke-dasharray="1.2,0.8"/>
<line x1="155.957" y1="194.49" x2="147.603" y2="208.878" stroke="#8c8c8c" stroke-width="0.3" stroke-dasharray="1.2,0.8"/>
<line x1="164.306" y1="209.658" x2="147.603" y2="208.878" stroke="#8c8c8c" stroke-width="0.3" stroke-dasharray="1.2,0.8"/>
<line x1="147.603" y1="208.878" x2="133.69" y2="212.325" stroke="#8c8c8c" stroke-width="0.3" stroke-dasharray="1.2,0.8"/>
<line x1="155.957" y1="194.49" x2="164.306" y2="209.658" stroke="#8c8c8c" stroke-width="0.3" stroke-dasharray="1.2,0.8"/>
<line x1="179.024" y1="199.591" x2="155.957" y2="194.49" stroke="#8c8c8c" stroke-width="0.3" stroke-dasharray="1.2,0.8"/>
<line x1="171.334" y1="228.212" x2="164.306" y2="209.658" stroke="#8c8c8c" stroke-width="0.3" stroke-dasharray="1.2,0.8"/>
<line x1="164.306" y1="209.658" x2="154.881" y2="223.637" stroke="#8c8c8c" stroke-width="0.3" stroke-dasharray="1.2,0.8"/>
<line x1="180.864" y1="248.906" x2="171.334" y2="228.212" stroke="#8c8c8c" stroke-width="0.3" stroke-dasharray="1.2,0.8"/>
<line x1="171.334" y1="228.212" x2="158.907" y2="236.661" stroke="#8c8c8c" stroke-width="0.3" stroke-dasharray="1.2,0.8"/>
<line x1="171.334" y1="228.212" x2="154.881" y2="223.637" stroke="#8c8c8c" stroke-width="0.3" stroke-dasharray="1.2,0.8"/>
<line x1="180.864" y1="248.906" x2="158.907" y2="236.661" stroke="#8c8c8c" stroke-width="0.3" stroke-dasharray="1.2,0.8"/>
<line x1="180.864" y1="248.906" x2="160.305" y2="249.357" stroke="#8c8c8c" stroke-width="0.3" stroke-dasharray="1.2,0.8"/>
<line x1="133.69" y1="212.325" x2="134.136" y2="230.573" stroke="#8c8c8c" stroke-width="0.3" stroke-dasharray="1.2,0.8"/>
<line x1="133.69" y1="212.325" x2="122.866" y2="224.561" stroke="#8c8c8c" stroke-width="0.3" stroke-dasharray="1.2,0.8"/>
<line x1="113.573" y1="212.475" x2="133.69" y2="212.325" stroke="#8c8c8c" stroke-width="0.3" stroke-dasharray="1.2,0.8"/>
<line x1="133.69" y1="212.325" x2="146.711" y2="225.31" stroke="#8c8c8c" stroke-width="0.3" stroke-dasharray="1.2,0.8"/>
<line x1="155.956" y1="194.49" x2="138.313" y2="194.49" stroke="#8c8c8c" stroke-width="0.3" stroke-dasharray="1.2,0.8"/>
<line x1="166.777" y1="163.451" x2="151.895" y2="177.32" stroke="#8c8c8c" stroke-width="0.3" stroke-dasharray="1.2,0.8"/>
<line x1="133.69" y1="212.325" x2="125.357" y2="195.893" stroke="#8c8c8c" stroke-width="0.3" stroke-dasharray="1.2,0.8"/>
<line x1="154.881" y1="223.637" x2="147.603" y2="208.878" stroke="#8c8c8c" stroke-width="0.3" stroke-dasharray="1.2,0.8"/>
<line x1="179.024" y1="199.591" x2="164.306" y2="209.658" stroke="#8c8c8c" stroke-width="0.3" stroke-dasharray="1.2,0.8"/>
<line x1="171.334" y1="228.212" x2="182.136" y2="209.475" stroke="#8c8c8c" stroke-width="0.3" stroke-dasharray="1.2,0.8"/>
<line x1="188.009" y1="173.51" x2="179.024" y2="199.591" stroke="#8c8c8c" stroke-width="0.3" stroke-dasharray="1.2,0.8"/>
<line x1="166.777" y1="163.451" x2="188.009" y2="173.51" stroke="#8c8c8c" stroke-width="0.3" stroke-dasharray="1.2,0.8"/>
<line x1="160.306" y1="249.357" x2="158.907" y2="236.661" stroke="#8c8c8c" stroke-width="0.3" stroke-dasharray="1.2,0.8"/>
<line x1="154.881" y1="223.637" x2="158.907" y2="236.661" stroke="#8c8c8c" stroke-width="0.3" stroke-dasharray="1.2,0.8"/>
<line x1="163.146" y1="264.336" x2="160.306" y2="249.357" stroke="#8c8c8c" stroke-width="0.3" stroke-dasharray="1.2,0.8"/>
<line x1="155.957" y1="194.49" x2="151.895" y2="177.32" stroke="#141414" stroke-width="0.4"/>
<line x1="113.573" y1="212.475" x2="125.357" y2="195.893" stroke="#141414" stroke-width="0.4"/>
<line x1="133.69" y1="212.325" x2="138.313" y2="194.49" stroke="#141414" stroke-width="0.4"/>
<line x1="147.603" y1="208.878" x2="146.711" y2="225.31" stroke="#141414" stroke-width="0.4"/>
<line x1="164.306" y1="209.658" x2="182.136" y2="209.475" stroke="#141414" stroke-width="0.4"/>
<line x1="171.334" y1="228.212" x2="192.529" y2="223.908" stroke="#141414" stroke-width="0.4"/>
<line x1="192.529" y1="223.908" x2="180.864" y2="248.906" stroke="#141414" stroke-width="0.4"/>
<line x1="180.864" y1="248.906" x2="163.146" y2="264.336" stroke="#141414" stroke-width="0.4"/>
<line x1="134.136" y1="230.573" x2="122.866" y2="224.561" stroke="#141414" stroke-width="0.4"/>
<line x1="146.711" y1="225.31" x2="134.136" y2="230.573" stroke="#141414" stroke-width="0.4"/>
<line x1="122.866" y1="224.561" x2="113.573" y2="212.475" stroke="#141414" stroke-width="0.4"/>
<line x1="138.313" y1="194.49" x2="143.606" y2="187.49" stroke="#141414" stroke-width="0.4"/>
<line x1="143.606" y1="187.49" x2="150.663" y2="187.49" stroke="#141414" stroke-width="0.4"/>
<line x1="150.663" y1="187.49" x2="155.956" y2="194.49" stroke="#141414" stroke-width="0.4"/>
<line x1="151.895" y1="177.32" x2="149.355" y2="170.119" stroke="#141414" stroke-width="0.4"/>
<line x1="149.355" y1="170.119" x2="159.772" y2="160.41" stroke="#141414" stroke-width="0.4"/>
<line x1="159.772" y1="160.41" x2="166.777" y2="163.451" stroke="#141414" stroke-width="0.4"/>
<line x1="125.357" y1="195.893" x2="134.964" y2="199.697" stroke="#141414" stroke-width="0.4"/>
<line x1="134.964" y1="199.697" x2="136.298" y2="202.326" stroke="#141414" stroke-width="0.4"/>
<line x1="136.298" y1="202.326" x2="133.69" y2="212.325" stroke="#141414" stroke-width="0.4"/>
<line x1="147.603" y1="208.878" x2="147.111" y2="217.684" stroke="#141414" stroke-width="0.4"/>
<line x1="147.111" y1="217.684" x2="148.194" y2="219.88" stroke="#141414" stroke-width="0.4"/>
<line x1="148.194" y1="219.88" x2="154.881" y2="223.637" stroke="#141414" stroke-width="0.4"/>
<line x1="164.306" y1="209.658" x2="174.614" y2="209.57" stroke="#141414" stroke-width="0.4"/>
<line x1="174.614" y1="209.57" x2="176.809" y2="208.069" stroke="#141414" stroke-width="0.4"/>
<line x1="176.809" y1="208.069" x2="179.024" y2="199.591" stroke="#141414" stroke-width="0.4"/>
<line x1="182.136" y1="209.475" x2="183.663" y2="220.841" stroke="#141414" stroke-width="0.4"/>
<line x1="183.663" y1="220.841" x2="181.935" y2="223.839" stroke="#141414" stroke-width="0.4"/>
<line x1="181.935" y1="223.839" x2="171.334" y2="228.212" stroke="#141414" stroke-width="0.4"/>
<line x1="179.024" y1="199.591" x2="186.99" y2="197.959" stroke="#141414" stroke-width="0.4"/>
<line x1="186.99" y1="197.959" x2="193.28" y2="179.702" stroke="#141414" stroke-width="0.4"/>
<line x1="193.28" y1="179.702" x2="188.009" y2="173.51" stroke="#141414" stroke-width="0.4"/>
<line x1="188.009" y1="173.51" x2="187.822" y2="165.675" stroke="#141414" stroke-width="0.4"/>
<line x1="187.822" y1="165.675" x2="172.959" y2="158.633" stroke="#141414" stroke-width="0.4"/>
<line x1="172.959" y1="158.633" x2="166.777" y2="163.451" stroke="#141414" stroke-width="0.4"/>
<line x1="158.907" y1="236.661" x2="152.769" y2="239.265" stroke="#141414" stroke-width="0.4"/>
<line x1="152.769" y1="239.265" x2="153.748" y2="248.152" stroke="#141414" stroke-width="0.4"/>
<line x1="153.748" y1="248.152" x2="160.306" y2="249.357" stroke="#141414" stroke-width="0.4"/>
<line x1="158.907" y1="236.661" x2="151.791" y2="236.72" stroke="#141414" stroke-width="0.4"/>
<line x1="151.791" y1="236.72" x2="148.973" y2="227.604" stroke="#141414" stroke-width="0.4"/>
<line x1="148.973" y1="227.604" x2="154.881" y2="223.637" stroke="#141414" stroke-width="0.4"/>
<line x1="160.306" y1="249.357" x2="153.854" y2="252.909" stroke="#141414" stroke-width="0.4"/>
<line x1="153.854" y1="252.909" x2="155.843" y2="263.393" stroke="#141414" stroke-width="0.4"/>
<line x1="155.843" y1="263.393" x2="163.146" y2="264.336" stroke="#141414" stroke-width="0.4"/>
<circle cx="147.135" cy="190.99" r="1.86" fill="#ffe082" stroke="#464646" stroke-width="0.2"/>
<text x="147.135" y="191.63" font-size="1.82" text-anchor="middle" fill="#141414">87</text>
<circle cx="156.95" cy="167.825" r="1.86" fill="#99d9fa" stroke="#464646" stroke-width="0.2"/>
<text x="156.95" y="168.46" font-size="1.82" text-anchor="middle" fill="#141414">88</text>
<circle cx="132.577" cy="202.56" r="1.86" fill="#ffe082" stroke="#464646" stroke-width="0.2"/>
<text x="132.577" y="203.20" font-size="1.82" text-anchor="middle" fill="#141414">89</text>
<circle cx="149.447" cy="217.52" r="1.86" fill="#ffe082" stroke="#464646" stroke-width="0.2"/>
<text x="149.447" y="218.16" font-size="1.82" text-anchor="middle" fill="#141414">90</text>
<circle cx="173.688" cy="206.722" r="1.86" fill="#ffe082" stroke="#464646" stroke-width="0.2"/>
<text x="173.688" y="207.36" font-size="1.82" text-anchor="middle" fill="#141414">91</text>
<circle cx="179.767" cy="220.592" r="1.86" fill="#ffe082" stroke="#464646" stroke-width="0.2"/>
<text x="179.767" y="221.23" font-size="1.82" text-anchor="middle" fill="#141414">92</text>
<circle cx="186.826" cy="187.691" r="1.86" fill="#ffe082" stroke="#464646" stroke-width="0.2"/>
<text x="186.826" y="188.33" font-size="1.82" text-anchor="middle" fill="#141414">93</text>
<circle cx="178.892" cy="165.317" r="1.86" fill="#ffe082" stroke="#464646" stroke-width="0.2"/>
<text x="178.892" y="165.95" font-size="1.82" text-anchor="middle" fill="#141414">94</text>
<circle cx="156.432" cy="243.359" r="1.86" fill="#ffe082" stroke="#464646" stroke-width="0.2"/>
<text x="156.432" y="244.00" font-size="1.82" text-anchor="middle" fill="#141414">95</text>
<circle cx="153.638" cy="231.155" r="1.86" fill="#ffe082" stroke="#464646" stroke-width="0.2"/>
<text x="153.638" y="231.79" font-size="1.82" text-anchor="middle" fill="#141414">96</text>
<circle cx="158.287" cy="257.499" r="1.86" fill="#ffe082" stroke="#464646" stroke-width="0.2"/>
<text x="158.287" y="258.14" font-size="1.82" text-anchor="middle" fill="#141414">97</text>
<circle cx="172.976" cy="183.474" r="4.60" fill="#eaf1fe" stroke="#2e78e6" stroke-width="0.3"/>
<text x="172.976" y="185.27" font-size="5.20" text-anchor="middle" fill="#14306e" font-weight="bold">9</text>
<text x="205.0" y="295.0" font-size="3.2" text-anchor="end" fill="#737373" font-family="sans-serif">4 / 5</text>
</svg>
