<svg xmlns="http://www.w3.org/2000/svg" xmlns:xlink="http://www.w3.org/1999/xlink" width="210.00mm" height="297.00mm" viewBox="0 0 210.00 297.00">
<rect x="0" y="0" width="210.00" height="297.00" fill="#ffffff" stroke="#cccccc" stroke-width="0.2"/>
<polygon points="60.787,56.2 57.971,45.749 59.048,41.731 66.338,35.481" fill="rgb(216,216,216)"/>
<polygon points="49.014,59.354 43.086,64.274 46.972,78.777 54.566,80.073" fill="rgb(216,216,216)"/>
<polygon points="49.014,59.354 41.42,58.058 37.534,43.555 43.463,38.636" fill="rgb(216,216,216)"/>
<polygon points="66.338,76.919 69.126,87.377 72.067,90.319 81.506,92.086" fill="rgb(216,216,216)"/>
<polygon points="54.566,80.073 48.637,84.993 52.523,99.496 60.118,100.792" fill="rgb(216,216,216)"/>
<polygon points="81.506,92.086 82.802,99.68 97.305,103.567 102.224,97.638" fill="rgb(216,216,216)"/>
<polygon points="60.118,100.792 54.189,105.712 58.075,120.215 65.669,121.511" fill="rgb(216,216,216)"/>
<polygon points="102.224,97.638 107.144,103.567 121.647,99.68 122.943,92.086" fill="rgb(216,216,216)"/>
<polygon points="65.669,121.511 59.74,126.431 63.627,140.934 71.221,142.23" fill="rgb(216,216,216)"/>
<polygon points="122.943,92.086 130.168,94.761 140.785,84.144 138.111,76.919" fill="rgb(216,216,216)"/>
<polygon points="71.221,142.23 65.292,147.15 69.178,161.653 76.772,162.949" fill="rgb(216,216,216)"/>
<polygon points="138.111,76.919 145.705,75.623 149.591,61.12 143.662,56.2" fill="rgb(216,216,216)"/>
<polygon points="76.772,162.949 73.395,166.963 70.018,170.976 82.324,183.668" fill="rgb(216,216,216)"/>
<polygon points="143.662,56.2 149.591,51.281 145.705,36.777 138.111,35.481" fill="rgb(216,216,216)"/>
<polygon points="138.111,35.481 140.785,28.256 130.168,17.639 122.943,20.314" fill="rgb(216,216,216)"/>
<polygon points="87.876,204.387 85.039,214.847 86.115,218.865 93.427,225.106" fill="rgb(216,216,216)"/>
<polygon points="122.943,20.314 121.647,12.72 107.144,8.834 102.224,14.762" fill="rgb(216,216,216)"/>
<polygon points="93.427,225.106 87.499,230.025 91.385,244.528 98.979,245.824" fill="rgb(216,216,216)"/>
<polygon points="102.224,14.762 97.305,8.834 82.802,12.72 81.506,20.314" fill="rgb(216,216,216)"/>
<polygon points="98.979,245.824 93.05,250.744 96.936,265.247 104.53,266.543" fill="rgb(216,216,216)"/>
<polygon points="81.506,20.314 74.281,17.639 63.664,28.256 66.338,35.481" fill="rgb(216,216,216)"/>
<polygon points="104.53,266.543 98.602,271.463 102.488,285.966 110.082,287.262" fill="rgb(216,216,216)"/>
<polygon points="121.854,284.108 121.666,290.467 113.425,292.675 110.082,287.262" fill="rgb(216,216,216)"/>
<polygon points="60.787,56.2 57.971,45.749 59.048,41.731 66.338,35.481" fill="#99d9fa"/>
<line x1="49.014" y1="59.354" x2="60.787" y2="56.2" stroke="#8c8c8c" stroke-width="0.3" stroke-dasharray="1.2,0.8"/>
<line x1="66.338" y1="76.919" x2="60.787" y2="56.2" stroke="#8c8c8c" stroke-width="0.3" stroke-dasharray="1.2,0.8"/>
<line x1="66.338" y1="76.919" x2="54.566" y2="80.073" stroke="#8c8c8c" stroke-width="0.3" stroke-dasharray="1.2,0.8"/>
<line x1="71.89" y1="97.638" x2="60.117" y2="100.792" stroke="#8c8c8c" stroke-width="0.3" stroke-dasharray="1.2,0.8"/>
<line x1="77.441" y1="118.357" x2="65.669" y2="121.511" stroke="#8c8c8c" stroke-width="0.3" stroke-dasharray="1.2,0.8"/>
<line x1="82.993" y1="139.076" x2="71.221" y2="142.23" stroke="#8c8c8c" stroke-width="0.3" stroke-dasharray="1.2,0.8"/>
<line x1="88.545" y1="159.794" x2="76.772" y2="162.949" stroke="#8c8c8c" stroke-width="0.3" stroke-dasharray="1.2,0.8"/>
<line x1="94.096" y1="180.513" x2="82.324" y2="183.668" stroke="#8c8c8c" stroke-width="0.3" stroke-dasharray="1.2,0.8"/>
<line x1="87.876" y1="204.387" x2="82.324" y2="183.668" stroke="#8c8c8c" stroke-width="0.3" stroke-dasharray="1.2,0.8"/>
<line x1="99.648" y1="201.232" x2="87.876" y2="204.387" stroke="#8c8c8c" stroke-width="0.3" stroke-dasharray="1.2,0.8"/>
<line x1="105.199" y1="221.951" x2="93.427" y2="225.106" stroke="#8c8c8c" stroke-width="0.3" stroke-dasharray="1.2,0.8"/>
<line x1="110.751" y1="242.67" x2="98.979" y2="245.824" stroke="#8c8c8c" stroke-width="0.3" stroke-dasharray="1.2,0.8"/>
<line x1="116.303" y1="263.389" x2="104.53" y2="266.543" stroke="#8c8c8c" stroke-width="0.3" stroke-dasharray="1.2,0.8"/>
<line x1="66.338" y1="35.481" x2="60.787" y2="56.2" stroke="#8c8c8c" stroke-width="0.3" stroke-dasharray="1.2,0.8"/>
<line x1="54.566" y1="80.073" x2="49.014" y2="59.354" stroke="#8c8c8c" stroke-width="0.3" stroke-dasharray="1.2,0.8"/>
<line x1="43.463" y1="38.636" x2="49.014" y2="59.354" stroke="#8c8c8c" stroke-width="0.3" stroke-dasharray="1.2,0.8"/>
<line x1="81.506" y1="92.086" x2="66.338" y2="76.919" stroke="#8c8c8c" stroke-width="0.3" stroke-dasharray="1.2,0.8"/>
<line x1="60.118" y1="100.792" x2="54.566" y2="80.073" stroke="#8c8c8c" stroke-width="0.3" stroke-dasharray="1.2,0.8"/>
<line x1="102.224" y1="97.638" x2="81.506" y2="92.086" stroke="#8c8c8c" stroke-width="0.3" stroke-dasharray="1.2,0.8"/>
<line x1="65.669" y1="121.511" x2="60.118" y2="100.792" stroke="#8c8c8c" stroke-width="0.3" stroke-dasharray="1.2,0.8"/>
<line x1="122.943" y1="92.086" x2="102.224" y2="97.638" stroke="#8c8c8c" stroke-width="0.3" stroke-dasharray="1.2,0.8"/>
<line x1="71.221" y1="142.23" x2="65.669" y2="121.511" stroke="#8c8c8c" stroke-width="0.3" stroke-dasharray="1.2,0.8"/>
<line x1="138.111" y1="76.919" x2="122.943" y2="92.086" stroke="#8c8c8c" stroke-width="0.3" stroke-dasharray="1.2,0.8"/>
<line x1="76.772" y1="162.949" x2="71.221" y2="142.23" stroke="#8c8c8c" stroke-width="0.3" stroke-dasharray="1.2,0.8"/>
<line x1="143.662" y1="56.2" x2="138.111" y2="76.919" stroke="#8c8c8c" stroke-width="0.3" stroke-dasharray="1.2,0.8"/>
<line x1="82.324" y1="183.668" x2="76.772" y2="162.949" stroke="#8c8c8c" stroke-width="0.3" stroke-dasharray="1.2,0.8"/>
<line x1="138.111" y1="35.481" x2="143.662" y2="56.2" stroke="#8c8c8c" stroke-width="0.3" stroke-dasharray="1.2,0.8"/>
<line x1="122.943" y1="20.314" x2="138.111" y2="35.481" stroke="#8c8c8c" stroke-width="0.3" stroke-dasharray="1.2,0.8"/>
<line x1="93.427" y1="225.106" x2="87.876" y2="204.387" stroke="#8c8c8c" stroke-width="0.3" stroke-dasharray="1.2,0.8"/>
<line x1="102.224" y1="14.762" x2="122.943" y2="20.314" stroke="#8c8c8c" stroke-width="0.3" stroke-dasharray="1.2,0.8"/>
<line x1="98.979" y1="245.824" x2="93.427" y2="225.106" stroke="#8c8c8c" stroke-width="0.3" stroke-dasharray="1.2,0.8"/>
<line x1="81.506" y1="20.314" x2="102.224" y2="14.762" stroke="#8c8c8c" stroke-width="0.3" stroke-dasharray="1.2,0.8"/>
<line x1="104.53" y1="266.543" x2="98.979" y2="245.824" stroke="#8c8c8c" stroke-width="0.3" stroke-dasharray="1.2,0.8"/>
<line x1="66.338" y1="35.481" x2="81.506" y2="20.314" stroke="#8c8c8c" stroke-width="0.3" stroke-dasharray="1.2,0.8"/>
<line x1="110.082" y1="287.262" x2="104.53" y2="266.543" stroke="#8c8c8c" stroke-width="0.3" stroke-dasharray="1.2,0.8"/>
<line x1="110.082" y1="287.262" x2="121.854" y2="284.108" stroke="#8c8c8c" stroke-width="0.3" stroke-dasharray="1.2,0.8"/>
<line x1="55.235" y1="35.481" x2="60.787" y2="56.2" stroke="#141414" stroke-width="0.4"/>
<line x1="10.552" y1="225.106" x2="5.0" y2="204.387" stroke="#141414" stroke-width="0.4"/>
<line x1="25.719" y1="240.273" x2="10.552" y2="225.106" stroke="#141414" stroke-width="0.4"/>
<line x1="66.338" y1="76.919" x2="71.89" y2="97.638" stroke="#141414" stroke-width="0.4"/>
<line x1="5.0" y1="204.387" x2="10.552" y2="183.668" stroke="#141414" stroke-width="0.4"/>
<line x1="71.89" y1="97.638" x2="77.441" y2="118.357" stroke="#141414" stroke-width="0.4"/>
<line x1="10.552" y1="183.668" x2="25.719" y2="168.501" stroke="#141414" stroke-width="0.4"/>
<line x1="77.441" y1="118.357" x2="82.993" y2="139.076" stroke="#141414" stroke-width="0.4"/>
<line x1="25.719" y1="168.501" x2="46.438" y2="162.949" stroke="#141414" stroke-width="0.4"/>
<line x1="82.993" y1="139.076" x2="88.545" y2="159.794" stroke="#141414" stroke-width="0.4"/>
<line x1="46.438" y1="162.949" x2="67.157" y2="168.501" stroke="#141414" stroke-width="0.4"/>
<line x1="88.545" y1="159.794" x2="94.096" y2="180.513" stroke="#141414" stroke-width="0.4"/>
<line x1="67.157" y1="168.501" x2="82.324" y2="183.668" stroke="#141414" stroke-width="0.4"/>
<line x1="94.096" y1="180.513" x2="99.648" y2="201.232" stroke="#141414" stroke-width="0.4"/>
<line x1="99.648" y1="201.232" x2="105.199" y2="221.951" stroke="#141414" stroke-width="0.4"/>
<line x1="87.876" y1="204.387" x2="82.324" y2="225.106" stroke="#141414" stroke-width="0.4"/>
<line x1="105.199" y1="221.951" x2="110.751" y2="242.67" stroke="#141414" stroke-width="0.4"/>
<line x1="82.324" y1="225.106" x2="67.157" y2="240.273" stroke="#141414" stroke-width="0.4"/>
<line x1="110.751" y1="242.67" x2="116.303" y2="263.389" stroke="#141414" stroke-width="0.4"/>
<line x1="67.157" y1="240.273" x2="46.438" y2="245.824" stroke="#141414" stroke-width="0.4"/>
<line x1="116.303" y1="263.389" x2="121.854" y2="284.108" stroke="#141414" stroke-width="0.4"/>
<line x1="46.438" y1="245.824" x2="25.719" y2="240.273" stroke="#141414" stroke-width="0.4"/>
<line x1="43.463" y1="38.636" x2="55.235" y2="35.481" stroke="#141414" stroke-width="0.4"/>
<line x1="60.787" y1="56.2" x2="57.971" y2="45.749" stroke="#141414" stroke-width="0.4"/>
<line x1="57.971" y1="45.749" x2="59.048" y2="41.731" stroke="#141414" stroke-width="0.4"/>
<line x1="59.048" y1="41.731" x2="66.338" y2="35.481" stroke="#141414" stroke-width="0.4"/>
<line x1="49.014" y1="59.354" x2="43.086" y2="64.274" stroke="#141414" stroke-width="0.4"/>
<line x1="43.086" y1="64.274" x2="46.972" y2="78.777" stroke="#141414" stroke-width="0.4"/>
<line x1="46.972" y1="78.777" x2="54.566" y2="80.073" stroke="#141414" stroke-width="0.4"/>
<line x1="49.014" y1="59.354" x2="41.42" y2="58.058" stroke="#141414" stroke-width="0.4"/>
<line x1="41.42" y1="58.058" x2="37.534" y2="43.555" stroke="#141414" stroke-width="0.4"/>
<line x1="37.534" y1="43.555" x2="43.463" y2="38.636" stroke="#141414" stroke-width="0.4"/>
<line x1="66.338" y1="76.919" x2="69.126" y2="87.377" stroke="#141414" stroke-width="0.4"/>
<line x1="69.126" y1="87.377" x2="72.067" y2="90.319" stroke="#141414" stroke-width="0.4"/>
<line x1="72.067" y1="90.319" x2="81.506" y2="92.086" stroke="#141414" stroke-width="0.4"/>
<line x1="54.566" y1="80.073" x2="48.637" y2="84.993" stroke="#141414" stroke-width="0.4"/>
<line x1="48.637" y1="84.993" x2="52.523" y2="99.496" stroke="#141414" stroke-width="0.4"/>
<line x1="52.523" y1="99.496" x2="60.118" y2="100.792" stroke="#141414" stroke-width="0.4"/>
<line x1="81.506" y1="92.086" x2="82.802" y2="99.68" stroke="#141414" stroke-width="0.4"/>
<line x1="82.802" y1="99.68" x2="97.305" y2="103.567" stroke="#141414" stroke-width="0.4"/>
<line x1="97.305" y1="103.567" x2="102.224" y2="97.638" stroke="#141414" stroke-width="0.4"/>
<line x1="60.118" y1="100.792" x2="54.189" y2="105.712" stroke="#141414" stroke-width="0.4"/>
<line x1="54.189" y1="105.712" x2="58.075" y2="120.215" stroke="#141414" stroke-width="0.4"/>
<line x1="58.075" y1="120.215" x2="65.669" y2="121.511" stroke="#141414" stroke-width="0.4"/>
<line x1="102.224" y1="97.638" x2="107.144" y2="103.567" stroke="#141414" stroke-width="0.4"/>
<line x1="107.144" y1="103.567" x2="121.647" y2="99.68" stroke="#141414" stroke-width="0.4"/>
<line x1="121.647" y1="99.68" x2="122.943" y2="92.086" stroke="#141414" stroke-width="0.4"/>
<line x1="65.669" y1="121.511" x2="59.74" y2="126.431" stroke="#141414" stroke-width="0.4"/>
<line x1="59.74" y1="126.431" x2="63.627" y2="140.934" stroke="#141414" stroke-width="0.4"/>
<line x1="63.627" y1="140.934" x2="71.221" y2="142.23" stroke="#141414" stroke-width="0.4"/>
<line x1="122.943" y1="92.086" x2="130.168" y2="94.761" stroke="#141414" stroke-width="0.4"/>
<line x1="130.168" y1="94.761" x2="140.785" y2="84.144" stroke="#141414" stroke-width="0.4"/>
<line x1="140.785" y1="84.144" x2="138.111" y2="76.919" stroke="#141414" stroke-width="0.4"/>
<line x1="71.221" y1="142.23" x2="65.292" y2="147.15" stroke="#141414" stroke-width="0.4"/>
<line x1="65.292" y1="147.15" x2="69.178" y2="161.653" stroke="#141414" stroke-width="0.4"/>
<line x1="69.178" y1="161.653" x2="76.772" y2="162.949" stroke="#141414" stroke-width="0.4"/>
<line x1="138.111" y1="76.919" x2="145.705" y2="75.623" stroke="#141414" stroke-width="0.4"/>
<line x1="145.705" y1="75.623" x2="149.591" y2="61.12" stroke="#141414" stroke-width="0.4"/>
<line x1="149.591" y1="61.12" x2="143.662" y2="56.2" stroke="#141414" stroke-width="0.4"/>
<line x1="76.772" y1="162.949" x2="73.395" y2="166.963" stroke="#141414" stroke-width="0.4"/>
<line x1="73.395" y1="166.963" x2="70.018" y2="170.976" stroke="#141414" stroke-width="0.4"/>
<line x1="70.018" y1="170.976" x2="82.324" y2="183.668" stroke="#141414" stroke-width="0.4"/>
<line x1="143.662" y1="56.2" x2="149.591" y2="51.281" stroke="#141414" stroke-width="0.4"/>
<line x1="149.591" y1="51.281" x2="145.705" y2="36.777" stroke="#141414" stroke-width="0.4"/>
<line x1="145.705" y1="36.777" x2="138.111" y2="35.481" stroke="#141414" stroke-width="0.4"/>
<line x1="138.111" y1="35.481" x2="140.785" y2="28.256" stroke="#141414" stroke-width="0.4"/>
<line x1="140.785" y1="28.256" x2="130.168" y2="17.639" stroke="#141414" stroke-width="0.4"/>
<line x1="130.168" y1="17.639" x2="122.943" y2="20.314" stroke="#141414" stroke-width="0.4"/>
<line x1="87.876" y1="204.387" x2="85.039" y2="214.847" stroke="#141414" stroke-width="0.4"/>
<line x1="85.039" y1="214.847" x2="86.115" y2="218.865" stroke="#141414" stroke-width="0.4"/>
<line x1="86.115" y1="218.865" x2="93.427" y2="225.106" stroke="#141414" stroke-width="0.4"/>
<line x1="122.943" y1="20.314" x2="121.647" y2="12.72" stroke="#141414" stroke-width="0.4"/>
<line x1="121.647" y1="12.72" x2="107.144" y2="8.834" stroke="#141414" stroke-width="0.4"/>
<line x1="107.144" y1="8.834" x2="102.224" y2="14.762" stroke="#141414" stroke-width="0.4"/>
<line x1="93.427" y1="225.106" x2="87.499" y2="230.025" stroke="#141414" stroke-width="0.4"/>
<line x1="87.499" y1="230.025" x2="91.385" y2="244.528" stroke="#141414" stroke-width="0.4"/>
<line x1="91.385" y1="244.528" x2="98.979" y2="245.824" stroke="#141414" stroke-width="0.4"/>
<line x1="102.224" y1="14.762" x2="97.305" y2="8.834" stroke="#141414" stroke-width="0.4"/>
<line x1="97.305" y1="8.834" x2="82.802" y2="12.72" stroke="#141414" stroke-width="0.4"/>
<line x1="82.802" y1="12.72" x2="81.506" y2="20.314" stroke="#141414" stroke-width="0.4"/>
<line x1="98.979" y1="245.824" x2="93.05" y2="250.744" stroke="#141414" stroke-width="0.4"/>
<line x1="93.05" y1="250.744" x2="96.936" y2="265.247" stroke="#141414" stroke-width="0.4"/>
<line x1="96.936" y1="265.247" x2="104.53" y2="266.543" stroke="#141414" stroke-width="0.4"/>
<line x1="81.506" y1="20.314" x2="74.281" y2="17.639" stroke="#141414" stroke-width="0.4"/>
<line x1="74.281" y1="17.639" x2="63.664" y2="28.256" stroke="#141414" stroke-width="0.4"/>
<line x1="63.664" y1="28.256" x2="66.338" y2="35.481" stroke="#141414" stroke-width="0.4"/>
<line x1="104.53" y1="266.543" x2="98.602" y2="271.463" stroke="#141414" stroke-width="0.4"/>
<line x1="98.602" y1="271.463" x2="102.488" y2="285.966" stroke="#141414" stroke-width="0.4"/>
<line x1="102.488" y1="285.966" x2="110.082" y2="287.262" stroke="#141414" stroke-width="0.4"/>
<line x1="121.854" y1="284.108" x2="121.666" y2="290.467" stroke="#141414" stroke-width="0.4"/>
<line x1="121.666" y1="290.467" x2="113.425" y2="292.675" stroke="#141414" stroke-width="0.4"/>
<line x1="113.425" y1="292.675" x2="110.082" y2="287.262" stroke="#141414" stroke-width="0.4"/>
<circle cx="61.036" cy="44.79" r="1.60" fill="#99d9fa" stroke="#464646" stroke-width="0.2"/>
<text x="61.036" y="45.34" font-size="1.57" text-anchor="middle" fill="#141414">1</text>
<circle cx="48.409" cy="70.62" r="1.60" fill="#ffe082" stroke="#464646" stroke-width="0.2"/>
<text x="48.409" y="71.17" font-size="1.57" text-anchor="middle" fill="#141414">2</text>
<circle cx="42.858" cy="49.901" r="1.60" fill="#ffe082" stroke="#464646" stroke-width="0.2"/>
<text x="42.858" y="50.45" font-size="1.57" text-anchor="middle" fill="#141414">3</text>
<circle cx="72.259" cy="86.675" r="1.60" fill="#ffe082" stroke="#464646" stroke-width="0.2"/>
<text x="72.259" y="87.22" font-size="1.57" text-anchor="middle" fill="#141414">4</text>
<circle cx="53.961" cy="91.339" r="1.60" fill="#ffe082" stroke="#464646" stroke-width="0.2"/>
<text x="53.961" y="91.89" font-size="1.57" text-anchor="middle" fill="#141414">5</text>
<circle cx="90.959" cy="98.243" r="1.60" fill="#ffe082" stroke="#464646" stroke-width="0.2"/>
<text x="90.959" y="98.79" font-size="1.57" text-anchor="middle" fill="#141414">6</text>
<circle cx="59.513" cy="112.058" r="1.60" fill="#ffe082" stroke="#464646" stroke-width="0.2"/>
<text x="59.513" y="112.61" font-size="1.57" text-anchor="middle" fill="#141414">7</text>
<circle cx="113.49" cy="98.243" r="1.60" fill="#ffe082" stroke="#464646" stroke-width="0.2"/>
<text x="113.49" y="98.79" font-size="1.57" text-anchor="middle" fill="#141414">8</text>
<circle cx="65.064" cy="132.776" r="1.60" fill="#ffe082" stroke="#464646" stroke-width="0.2"/>
<text x="65.064" y="133.32" font-size="1.57" text-anchor="middle" fill="#141414">9</text>
<circle cx="133.002" cy="86.978" r="1.60" fill="#ffe082" stroke="#464646" stroke-width="0.2"/>
<text x="133.002" y="87.53" font-size="1.57" text-anchor="middle" fill="#141414">10</text>
<circle cx="70.616" cy="153.495" r="1.60" fill="#ffe082" stroke="#464646" stroke-width="0.2"/>
<text x="70.616" y="154.04" font-size="1.57" text-anchor="middle" fill="#141414">11</text>
<circle cx="144.267" cy="67.465" r="1.60" fill="#ffe082" stroke="#464646" stroke-width="0.2"/>
<text x="144.267" y="68.01" font-size="1.57" text-anchor="middle" fill="#141414">12</text>
<circle cx="75.627" cy="171.139" r="1.60" fill="#ffe082" stroke="#464646" stroke-width="0.2"/>
<text x="75.627" y="171.69" font-size="1.57" text-anchor="middle" fill="#141414">13</text>
<circle cx="144.267" cy="44.935" r="1.60" fill="#ffe082" stroke="#464646" stroke-width="0.2"/>
<text x="144.267" y="45.48" font-size="1.57" text-anchor="middle" fill="#141414">14</text>
<circle cx="133.002" cy="25.423" r="1.60" fill="#ffe082" stroke="#464646" stroke-width="0.2"/>
<text x="133.002" y="25.97" font-size="1.57" text-anchor="middle" fill="#141414">15</text>
<circle cx="88.114" cy="215.801" r="1.60" fill="#ffe082" stroke="#464646" stroke-width="0.2"/>
<text x="88.114" y="216.35" font-size="1.57" text-anchor="middle" fill="#141414">16</text>
<circle cx="113.49" cy="14.157" r="1.60" fill="#ffe082" stroke="#464646" stroke-width="0.2"/>
<text x="113.49" y="14.70" font-size="1.57" text-anchor="middle" fill="#141414">17</text>
<circle cx="92.822" cy="236.371" r="1.60" fill="#ffe082" stroke="#464646" stroke-width="0.2"/>
<text x="92.822" y="236.92" font-size="1.57" text-anchor="middle" fill="#141414">18</text>
<circle cx="90.959" cy="14.157" r="1.60" fill="#ffe082" stroke="#464646" stroke-width="0.2"/>
<text x="90.959" y="14.70" font-size="1.57" text-anchor="middle" fill="#141414">19</text>
<circle cx="98.374" cy="257.09" r="1.60" fill="#ffe082" stroke="#464646" stroke-width="0.2"/>
<text x="98.374" y="257.64" font-size="1.57" text-anchor="middle" fill="#141414">20</text>
<circle cx="71.447" cy="25.423" r="1.60" fill="#ffe082" stroke="#464646" stroke-width="0.2"/>
<text x="71.447" y="25.97" font-size="1.57" text-anchor="middle" fill="#141414">21</text>
<circle cx="103.925" cy="277.809" r="1.60" fill="#ffe082" stroke="#464646" stroke-width="0.2"/>
<text x="103.925" y="278.36" font-size="1.57" text-anchor="middle" fill="#141414">22</text>
<circle cx="116.757" cy="288.628" r="1.60" fill="#ffe082" stroke="#464646" stroke-width="0.2"/>
<text x="116.757" y="289.18" font-size="1.57" text-anchor="middle" fill="#141414">23</text>
<circle cx="121.093" cy="37.332" r="4.60" fill="#eaf1fe" stroke="#2e78e6" stroke-width="0.3"/>
<text x="121.093" y="39.13" font-size="5.20" text-anchor="middle" fill="#14306e" font-weight="bold">1</text>
<polygon points="171.675,44.975 170.067,50.338 162.559,50.338 160.95,44.975" fill="rgb(216,216,216)"/>
<polygon points="171.675,30.35 170.067,24.988 162.559,24.988 160.95,30.35" fill="rgb(216,216,216)"/>
<polygon points="180.964,44.975 187.964,42.781 187.964,32.544 180.964,30.35" fill="rgb(216,216,216)"/>
<polygon points="180.964,44.975 186.326,46.584 186.326,54.092 180.964,55.7" fill="rgb(216,216,216)"/>
<polygon points="180.964,30.35 186.326,28.741 186.326,21.234 180.964,19.625" fill="rgb(216,216,216)"/>
<polygon points="160.95,44.975 153.95,42.781 153.95,32.544 160.95,30.35" fill="rgb(216,216,216)"/>
<polygon points="171.675,55.7 173.069,60.345 179.57,60.345 180.964,55.7" fill="rgb(216,216,216)"/>
<polygon points="171.675,44.975 170.067,50.338 162.559,50.338 160.95,44.975" fill="#99d9fa"/>
<line x1="171.675" y1="44.975" x2="171.675" y2="30.35" stroke="#8c8c8c" stroke-width="0.3" stroke-dasharray="1.2,0.8"/>
<line x1="180.964" y1="44.975" x2="171.675" y2="44.975" stroke="#8c8c8c" stroke-width="0.3" stroke-dasharray="1.2,0.8"/>
<line x1="171.675" y1="30.35" x2="180.964" y2="30.35" stroke="#8c8c8c" stroke-width="0.3" stroke-dasharray="1.2,0.8"/>
<line x1="171.675" y1="19.625" x2="180.964" y2="19.625" stroke="#8c8c8c" stroke-width="0.3" stroke-dasharray="1.2,0.8"/>
<line x1="180.964" y1="19.625" x2="180.964" y2="5.0" stroke="#8c8c8c" stroke-width="0.3" stroke-dasharray="1.2,0.8"/>
<line x1="160.95" y1="44.975" x2="171.675" y2="44.975" stroke="#8c8c8c" stroke-width="0.3" stroke-dasharray="1.2,0.8"/>
<line x1="160.95" y1="30.35" x2="171.675" y2="30.35" stroke="#8c8c8c" stroke-width="0.3" stroke-dasharray="1.2,0.8"/>
<line x1="180.964" y1="30.35" x2="180.964" y2="44.975" stroke="#8c8c8c" stroke-width="0.3" stroke-dasharray="1.2,0.8"/>
<line x1="180.964" y1="55.7" x2="180.964" y2="44.975" stroke="#8c8c8c" stroke-width="0.3" stroke-dasharray="1.2,0.8"/>
<line x1="180.964" y1="19.625" x2="180.964" y2="30.35" stroke="#8c8c8c" stroke-width="0.3" stroke-dasharray="1.2,0.8"/>
<line x1="160.95" y1="30.35" x2="160.95" y2="44.975" stroke="#8c8c8c" stroke-width="0.3" stroke-dasharray="1.2,0.8"/>
<line x1="180.964" y1="55.7" x2="171.675" y2="55.7" stroke="#8c8c8c" stroke-width="0.3" stroke-dasharray="1.2,0.8"/>
<line x1="171.675" y1="55.7" x2="171.675" y2="44.975" stroke="#141414" stroke-width="0.4"/>
<line x1="171.675" y1="30.35" x2="171.675" y2="19.625" stroke="#141414" stroke-width="0.4"/>
<line x1="191.689" y1="5.0" x2="191.689" y2="19.625" stroke="#141414" stroke-width="0.4"/>
<line x1="180.964" y1="5.0" x2="191.689" y2="5.0" stroke="#141414" stroke-width="0.4"/>
<line x1="191.689" y1="19.625" x2="180.964" y2="19.625" stroke="#141414" stroke-width="0.4"/>
<line x1="171.675" y1="19.625" x2="171.675" y2="5.0" stroke="#141414" stroke-width="0.4"/>
<line x1="171.675" y1="5.0" x2="180.964" y2="5.0" stroke="#141414" stroke-width="0.4"/>
<line x1="171.675" y1="44.975" x2="170.067" y2="50.338" stroke="#141414" stroke-width="0.4"/>
<line x1="170.067" y1="50.338" x2="162.559" y2="50.338" stroke="#141414" stroke-width="0.4"/>
<line x1="162.559" y1="50.338" x2="160.95" y2="44.975" stroke="#141414" stroke-width="0.4"/>
<line x1="171.675" y1="30.35" x2="170.067" y2="24.988" stroke="#141414" stroke-width="0.4"/>
<line x1="170.067" y1="24.988" x2="162.559" y2="24.988" stroke="#141414" stroke-width="0.4"/>
<line x1="162.559" y1="24.988" x2="160.95" y2="30.35" stroke="#141414" stroke-width="0.4"/>
<line x1="180.964" y1="44.975" x2="187.964" y2="42.781" stroke="#141414" stroke-width="0.4"/>
<line x1="187.964" y1="42.781" x2="187.964" y2="32.544" stroke="#141414" stroke-width="0.4"/>
<line x1="187.964" y1="32.544" x2="180.964" y2="30.35" stroke="#141414" stroke-width="0.4"/>
<line x1="180.964" y1="44.975" x2="186.326" y2="46.584" stroke="#141414" stroke-width="0.4"/>
<line x1="186.326" y1="46.584" x2="186.326" y2="54.092" stroke="#141414" stroke-width="0.4"/>
<line x1="186.326" y1="54.092" x2="180.964" y2="55.7" stroke="#141414" stroke-width="0.4"/>
<line x1="180.964" y1="30.35" x2="186.326" y2="28.741" stroke="#141414" stroke-width="0.4"/>
<line x1="186.326" y1="28.741" x2="186.326" y2="21.234" stroke="#141414" stroke-width="0.4"/>
<line x1="186.326" y1="21.234" x2="180.964" y2="19.625" stroke="#141414" stroke-width="0.4"/>
<line x1="160.95" y1="44.975" x2="153.95" y2="42.781" stroke="#141414" stroke-width="0.4"/>
<line x1="153.95" y1="42.781" x2="153.95" y2="32.544" stroke="#141414" stroke-width="0.4"/>
<line x1="153.95" y1="32.544" x2="160.95" y2="30.35" stroke="#141414" stroke-width="0.4"/>
<line x1="171.675" y1="55.7" x2="173.069" y2="60.345" stroke="#141414" stroke-width="0.4"/>
<line x1="173.069" y1="60.345" x2="179.57" y2="60.345" stroke="#141414" stroke-width="0.4"/>
<line x1="179.57" y1="60.345" x2="180.964" y2="55.7" stroke="#141414" stroke-width="0.4"/>
<circle cx="166.313" cy="47.657" r="1.60" fill="#99d9fa" stroke="#464646" stroke-width="0.2"/>
<text x="166.313" y="48.20" font-size="1.57" text-anchor="middle" fill="#141414">162</text>
<circle cx="166.313" cy="27.669" r="1.60" fill="#ffe082" stroke="#464646" stroke-width="0.2"/>
<text x="166.313" y="28.22" font-size="1.57" text-anchor="middle" fill="#141414">163</text>
<circle cx="184.464" cy="37.663" r="1.60" fill="#ffe082" stroke="#464646" stroke-width="0.2"/>
<text x="184.464" y="38.21" font-size="1.57" text-anchor="middle" fill="#141414">164</text>
<circle cx="183.645" cy="50.338" r="1.60" fill="#ffe082" stroke="#464646" stroke-width="0.2"/>
<text x="183.645" y="50.89" font-size="1.57" text-anchor="middle" fill="#141414">165</text>
<circle cx="183.645" cy="24.988" r="1.60" fill="#ffe082" stroke="#464646" stroke-width="0.2"/>
<text x="183.645" y="25.54" font-size="1.57" text-anchor="middle" fill="#141414">166</text>
<circle cx="157.45" cy="37.663" r="1.60" fill="#ffe082" stroke="#464646" stroke-width="0.2"/>
<text x="157.45" y="38.21" font-size="1.57" text-anchor="middle" fill="#141414">167</text>
<circle cx="176.32" cy="58.023" r="1.60" fill="#ffe082" stroke="#464646" stroke-width="0.2"/>
<text x="176.32" y="58.57" font-size="1.57" text-anchor="middle" fill="#141414">168</text>
<circle cx="188.114" cy="14.75" r="2.31" fill="#eaf1fe" stroke="#2e78e6" stroke-width="0.3"/>
<text x="188.114" y="15.65" font-size="2.61" text-anchor="middle" fill="#14306e" font-weight="bold">10</text>
<text x="205.0" y="295.0" font-size="3.2" text-anchor="end" fill="#737373" font-family="sans-serif">1 / 7</text>
</svg>
