<svg xmlns="http://www.w3.org/2000/svg" xmlns:xlink="http://www.w3.org/1999/xlink" width="210.00mm" height="297.00mm" viewBox="0 0 210.00 297.00">
<rect x="0" y="0" width="210.00" height="297.00" fill="#ffffff" stroke="#cccccc" stroke-width="0.2"/>
<polygon points="40.22,117.34 39.764,117.512 8.788,124.659 9.818,128.78" fill="rgb(216,216,216)"/>
<polygon points="87.272,149.908 87.728,149.736 118.692,142.594 117.661,138.473" fill="rgb(216,216,216)"/>
<polygon points="89.275,37.47 89.206,36.987 88.919,5.212 84.673,5.328" fill="rgb(216,216,216)"/>
<polygon points="136.342,70.016 136.342,70.503 140.576,102.01 136.357,102.499" fill="rgb(216,216,216)"/>
<polygon points="89.403,87.604 75.037,79.795 55.363,78.701 40.22,84.87" fill="rgb(216,216,216)"/>
<polygon points="87.175,99.784 101.819,107.059 114.013,122.534 117.661,138.473" fill="rgb(216,216,216)"/>
<polygon points="136.213,19.887 146.286,21.354 167.645,48.429 166.726,58.567" fill="rgb(216,216,216)"/>
<polygon points="29.7,173.846 20.313,169.912 6.396,138.365 9.818,128.78" fill="rgb(216,216,216)"/>
<polygon points="40.312,167.466 52.276,178.612 71.055,184.579 87.259,182.383" fill="rgb(216,216,216)"/>
<polygon points="166.726,58.567 168.884,68.67 150.836,99.194 140.943,102.172" fill="rgb(216,216,216)"/>
<polygon points="8.507,124.373 7.806,114.065 30.004,86.414 40.22,84.87" fill="rgb(216,216,216)"/>
<line x1="87.272" y1="149.908" x2="40.22" y2="117.34" stroke="#8c8c8c" stroke-width="0.3" stroke-dasharray="1.2,0.8"/>
<line x1="87.175" y1="99.784" x2="40.22" y2="117.34" stroke="#8c8c8c" stroke-width="0.3" stroke-dasharray="1.2,0.8"/>
<line x1="40.312" y1="167.466" x2="40.22" y2="117.34" stroke="#8c8c8c" stroke-width="0.3" stroke-dasharray="1.2,0.8"/>
<line x1="40.22" y1="117.34" x2="40.22" y2="84.87" stroke="#8c8c8c" stroke-width="0.3" stroke-dasharray="1.2,0.8"/>
<line x1="87.175" y1="99.784" x2="87.272" y2="149.908" stroke="#8c8c8c" stroke-width="0.3" stroke-dasharray="1.2,0.8"/>
<line x1="87.272" y1="149.908" x2="40.312" y2="167.466" stroke="#8c8c8c" stroke-width="0.3" stroke-dasharray="1.2,0.8"/>
<line x1="87.272" y1="149.908" x2="87.259" y2="182.383" stroke="#8c8c8c" stroke-width="0.3" stroke-dasharray="1.2,0.8"/>
<line x1="89.275" y1="37.47" x2="136.342" y2="70.016" stroke="#8c8c8c" stroke-width="0.3" stroke-dasharray="1.2,0.8"/>
<line x1="89.403" y1="87.604" x2="89.275" y2="37.47" stroke="#8c8c8c" stroke-width="0.3" stroke-dasharray="1.2,0.8"/>
<line x1="89.275" y1="37.47" x2="136.213" y2="19.887" stroke="#8c8c8c" stroke-width="0.3" stroke-dasharray="1.2,0.8"/>
<line x1="89.275" y1="37.47" x2="58.891" y2="48.933" stroke="#8c8c8c" stroke-width="0.3" stroke-dasharray="1.2,0.8"/>
<line x1="89.403" y1="87.604" x2="136.342" y2="70.016" stroke="#8c8c8c" stroke-width="0.3" stroke-dasharray="1.2,0.8"/>
<line x1="136.213" y1="19.887" x2="136.342" y2="70.016" stroke="#8c8c8c" stroke-width="0.3" stroke-dasharray="1.2,0.8"/>
<line x1="166.726" y1="58.567" x2="136.342" y2="70.016" stroke="#8c8c8c" stroke-width="0.3" stroke-dasharray="1.2,0.8"/>
<line x1="89.403" y1="87.604" x2="87.175" y2="99.784" stroke="#8c8c8c" stroke-width="0.3" stroke-dasharray="1.2,0.8"/>
<line x1="136.357" y1="102.499" x2="89.403" y2="87.604" stroke="#8c8c8c" stroke-width="0.3" stroke-dasharray="1.2,0.8"/>
<line x1="40.22" y1="84.87" x2="87.175" y2="99.784" stroke="#8c8c8c" stroke-width="0.3" stroke-dasharray="1.2,0.8"/>
<line x1="40.312" y1="167.466" x2="29.7" y2="173.846" stroke="#8c8c8c" stroke-width="0.3" stroke-dasharray="1.2,0.8"/>
<line x1="40.312" y1="167.466" x2="9.818" y2="128.78" stroke="#8c8c8c" stroke-width="0.3" stroke-dasharray="1.2,0.8"/>
<line x1="9.818" y1="128.78" x2="40.22" y2="117.34" stroke="#8c8c8c" stroke-width="0.3" stroke-dasharray="1.2,0.8"/>
<line x1="117.661" y1="138.473" x2="87.272" y2="149.908" stroke="#8c8c8c" stroke-width="0.3" stroke-dasharray="1.2,0.8"/>
<line x1="84.673" y1="5.328" x2="89.275" y2="37.47" stroke="#8c8c8c" stroke-width="0.3" stroke-dasharray="1.2,0.8"/>
<line x1="136.357" y1="102.499" x2="136.342" y2="70.016" stroke="#8c8c8c" stroke-width="0.3" stroke-dasharray="1.2,0.8"/>
<line x1="40.22" y1="84.87" x2="89.403" y2="87.604" stroke="#8c8c8c" stroke-width="0.3" stroke-dasharray="1.2,0.8"/>
<line x1="117.661" y1="138.473" x2="87.175" y2="99.784" stroke="#8c8c8c" stroke-width="0.3" stroke-dasharray="1.2,0.8"/>
<line x1="166.726" y1="58.567" x2="136.213" y2="19.887" stroke="#8c8c8c" stroke-width="0.3" stroke-dasharray="1.2,0.8"/>
<line x1="9.818" y1="128.78" x2="29.7" y2="173.846" stroke="#8c8c8c" stroke-width="0.3" stroke-dasharray="1.2,0.8"/>
<line x1="87.259" y1="182.383" x2="40.312" y2="167.466" stroke="#8c8c8c" stroke-width="0.3" stroke-dasharray="1.2,0.8"/>
<line x1="140.943" y1="102.172" x2="166.726" y2="58.567" stroke="#8c8c8c" stroke-width="0.3" stroke-dasharray="1.2,0.8"/>
<line x1="40.22" y1="84.87" x2="8.507" y2="124.373" stroke="#8c8c8c" stroke-width="0.3" stroke-dasharray="1.2,0.8"/>
<line x1="40.22" y1="117.34" x2="8.507" y2="124.373" stroke="#141414" stroke-width="0.4"/>
<line x1="87.272" y1="149.908" x2="118.972" y2="142.881" stroke="#141414" stroke-width="0.4"/>
<line x1="89.275" y1="37.47" x2="89.26" y2="5.0" stroke="#141414" stroke-width="0.4"/>
<line x1="140.943" y1="102.171" x2="136.342" y2="70.016" stroke="#141414" stroke-width="0.4"/>
<line x1="89.403" y1="87.604" x2="58.891" y2="48.933" stroke="#141414" stroke-width="0.4"/>
<line x1="136.357" y1="102.499" x2="87.175" y2="99.784" stroke="#141414" stroke-width="0.4"/>
<line x1="60.213" y1="212.526" x2="29.7" y2="173.846" stroke="#141414" stroke-width="0.4"/>
<line x1="89.26" y1="5.0" x2="136.213" y2="19.887" stroke="#141414" stroke-width="0.4"/>
<line x1="40.312" y1="167.466" x2="60.213" y2="212.526" stroke="#141414" stroke-width="0.4"/>
<line x1="118.972" y1="142.881" x2="87.259" y2="182.383" stroke="#141414" stroke-width="0.4"/>
<line x1="58.891" y1="48.933" x2="84.673" y2="5.328" stroke="#141414" stroke-width="0.4"/>
<line x1="40.22" y1="117.34" x2="39.764" y2="117.512" stroke="#141414" stroke-width="0.4"/>
<line x1="39.764" y1="117.512" x2="8.788" y2="124.659" stroke="#141414" stroke-width="0.4"/>
<line x1="8.788" y1="124.659" x2="9.818" y2="128.78" stroke="#141414" stroke-width="0.4"/>
<line x1="87.272" y1="149.908" x2="87.728" y2="149.736" stroke="#141414" stroke-width="0.4"/>
<line x1="87.728" y1="149.736" x2="118.692" y2="142.594" stroke="#141414" stroke-width="0.4"/>
<line x1="118.692" y1="142.594" x2="117.661" y2="138.473" stroke="#141414" stroke-width="0.4"/>
<line x1="89.275" y1="37.47" x2="89.206" y2="36.987" stroke="#141414" stroke-width="0.4"/>
<line x1="89.206" y1="36.987" x2="88.919" y2="5.212" stroke="#141414" stroke-width="0.4"/>
<line x1="88.919" y1="5.212" x2="84.673" y2="5.328" stroke="#141414" stroke-width="0.4"/>
<line x1="136.342" y1="70.016" x2="136.342" y2="70.503" stroke="#141414" stroke-width="0.4"/>
<line x1="136.342" y1="70.503" x2="140.576" y2="102.01" stroke="#141414" stroke-width="0.4"/>
<line x1="140.576" y1="102.01" x2="136.357" y2="102.499" stroke="#141414" stroke-width="0.4"/>
<line x1="89.403" y1="87.604" x2="75.037" y2="79.795" stroke="#141414" stroke-width="0.4"/>
<line x1="75.037" y1="79.795" x2="55.363" y2="78.701" stroke="#141414" stroke-width="0.4"/>
<line x1="55.363" y1="78.701" x2="40.22" y2="84.87" stroke="#141414" stroke-width="0.4"/>
<line x1="87.175" y1="99.784" x2="101.819" y2="107.059" stroke="#141414" stroke-width="0.4"/>
<line x1="101.819" y1="107.059" x2="114.013" y2="122.534" stroke="#141414" stroke-width="0.4"/>
<line x1="114.013" y1="122.534" x2="117.661" y2="138.473" stroke="#141414" stroke-width="0.4"/>
<line x1="136.213" y1="19.887" x2="146.286" y2="21.354" stroke="#141414" stroke-width="0.4"/>
<line x1="146.286" y1="21.354" x2="167.645" y2="48.429" stroke="#141414" stroke-width="0.4"/>
<line x1="167.645" y1="48.429" x2="166.726" y2="58.567" stroke="#141414" stroke-width="0.4"/>
<line x1="29.7" y1="173.846" x2="20.313" y2="169.912" stroke="#141414" stroke-width="0.4"/>
<line x1="20.313" y1="169.912" x2="6.396" y2="138.365" stroke="#141414" stroke-width="0.4"/>
<line x1="6.396" y1="138.365" x2="9.818" y2="128.78" stroke="#141414" stroke-width="0.4"/>
<line x1="40.312" y1="167.466" x2="52.276" y2="178.612" stroke="#141414" stroke-width="0.4"/>
<line x1="52.276" y1="178.612" x2="71.055" y2="184.579" stroke="#141414" stroke-width="0.4"/>
<line x1="71.055" y1="184.579" x2="87.259" y2="182.383" stroke="#141414" stroke-width="0.4"/>
<line x1="166.726" y1="58.567" x2="168.884" y2="68.67" stroke="#141414" stroke-width="0.4"/>
<line x1="168.884" y1="68.67" x2="150.836" y2="99.194" stroke="#141414" stroke-width="0.4"/>
<line x1="150.836" y1="99.194" x2="140.943" y2="102.172" stroke="#141414" stroke-width="0.4"/>
<line x1="8.507" y1="124.373" x2="7.806" y2="114.065" stroke="#141414" stroke-width="0.4"/>
<line x1="7.806" y1="114.065" x2="30.004" y2="86.414" stroke="#141414" stroke-width="0.4"/>
<line x1="30.004" y1="86.414" x2="40.22" y2="84.87" stroke="#141414" stroke-width="0.4"/>
<circle cx="65.006" cy="82.743" r="1.50" fill="#ffe082" stroke="#464646" stroke-width="0.2"/>
<text x="65.006" y="83.26" font-size="1.47" text-anchor="middle" fill="#141414">27</text>
<circle cx="105.167" cy="116.963" r="1.50" fill="#ffe082" stroke="#464646" stroke-width="0.2"/>
<text x="105.167" y="117.48" font-size="1.47" text-anchor="middle" fill="#141414">28</text>
<circle cx="154.218" cy="37.059" r="1.50" fill="#ffe082" stroke="#464646" stroke-width="0.2"/>
<text x="154.218" y="37.57" font-size="1.47" text-anchor="middle" fill="#141414">29</text>
<circle cx="16.557" cy="152.726" r="1.50" fill="#ffe082" stroke="#464646" stroke-width="0.2"/>
<text x="16.557" y="153.24" font-size="1.47" text-anchor="middle" fill="#141414">30</text>
<circle cx="62.726" cy="178.26" r="1.50" fill="#ffe082" stroke="#464646" stroke-width="0.2"/>
<text x="62.726" y="178.77" font-size="1.47" text-anchor="middle" fill="#141414">31</text>
<circle cx="156.848" cy="82.15" r="1.50" fill="#ffe082" stroke="#464646" stroke-width="0.2"/>
<text x="156.848" y="82.66" font-size="1.47" text-anchor="middle" fill="#141414">32</text>
<circle cx="21.634" cy="102.43" r="1.50" fill="#ffe082" stroke="#464646" stroke-width="0.2"/>
<text x="21.634" y="102.94" font-size="1.47" text-anchor="middle" fill="#141414">33</text>
<circle cx="86.244" cy="218.626" r="4.6" fill="#eaf1fe" stroke="#2e78e6" stroke-width="0.3"/>
<text x="86.244" y="220.42600000000002" font-size="5.2" text-anchor="middle" fill="#14306e" font-weight="bold">3</text>
<polygon points="57.424,233.182 61.052,225.198 57.688,219.01 49.015,217.712" fill="rgb(216,216,216)"/>
<polygon points="47.64,249.629 44.012,257.611 47.373,263.794 56.044,265.089" fill="rgb(216,216,216)"/>
<polygon points="92.483,235.432 100.047,235.293 105.356,247.592 100.067,253.002" fill="rgb(216,216,216)"/>
<polygon points="92.483,235.432 97.681,230.051 92.412,218.918 84.955,219.526" fill="rgb(216,216,216)"/>
<polygon points="100.067,253.002 104.186,259.247 96.954,269.229 89.736,267.261" fill="rgb(216,216,216)"/>
<polygon points="82.77,250.05 79.207,259.905 80.322,262.659 89.736,267.261" fill="rgb(216,216,216)"/>
<polygon points="65.17,248.923 67.433,259.154 65.973,261.741 56.044,265.089" fill="rgb(216,216,216)"/>
<polygon points="22.293,232.733 20.503,222.408 22.081,219.892 32.154,217.004" fill="rgb(216,216,216)"/>
<polygon points="39.891,233.881 37.627,223.65 39.087,221.063 49.015,217.712" fill="rgb(216,216,216)"/>
<polygon points="30.037,249.612 32.718,257.826 28.745,263.288 20.104,263.267" fill="rgb(216,216,216)"/>
<polygon points="66.932,218.362 75.503,219.453 78.74,225.382 75.023,233.182" fill="rgb(216,216,216)"/>
<line x1="47.64" y1="249.629" x2="57.424" y2="233.182" stroke="#8c8c8c" stroke-width="0.3" stroke-dasharray="1.2,0.8"/>
<line x1="65.17" y1="248.923" x2="57.424" y2="233.182" stroke="#8c8c8c" stroke-width="0.3" stroke-dasharray="1.2,0.8"/>
<line x1="39.891" y1="233.881" x2="57.424" y2="233.182" stroke="#8c8c8c" stroke-width="0.3" stroke-dasharray="1.2,0.8"/>
<line x1="57.424" y1="233.182" x2="75.023" y2="233.182" stroke="#8c8c8c" stroke-width="0.3" stroke-dasharray="1.2,0.8"/>
<line x1="65.17" y1="248.923" x2="47.64" y2="249.629" stroke="#8c8c8c" stroke-width="0.3" stroke-dasharray="1.2,0.8"/>
<line x1="47.64" y1="249.629" x2="39.891" y2="233.881" stroke="#8c8c8c" stroke-width="0.3" stroke-dasharray="1.2,0.8"/>
<line x1="47.64" y1="249.629" x2="30.037" y2="249.611" stroke="#8c8c8c" stroke-width="0.3" stroke-dasharray="1.2,0.8"/>
<line x1="82.77" y1="250.05" x2="92.483" y2="235.431" stroke="#8c8c8c" stroke-width="0.3" stroke-dasharray="1.2,0.8"/>
<line x1="5.0" y1="229.775" x2="22.293" y2="232.732" stroke="#8c8c8c" stroke-width="0.3" stroke-dasharray="1.2,0.8"/>
<line x1="92.483" y1="235.431" x2="75.023" y2="233.182" stroke="#8c8c8c" stroke-width="0.3" stroke-dasharray="1.2,0.8"/>
<line x1="82.77" y1="250.05" x2="100.067" y2="253.002" stroke="#8c8c8c" stroke-width="0.3" stroke-dasharray="1.2,0.8"/>
<line x1="22.293" y1="232.732" x2="12.584" y2="247.345" stroke="#8c8c8c" stroke-width="0.3" stroke-dasharray="1.2,0.8"/>
<line x1="30.037" y1="249.611" x2="12.584" y2="247.345" stroke="#8c8c8c" stroke-width="0.3" stroke-dasharray="1.2,0.8"/>
<line x1="82.77" y1="250.05" x2="65.17" y2="248.923" stroke="#8c8c8c" stroke-width="0.3" stroke-dasharray="1.2,0.8"/>
<line x1="75.023" y1="233.182" x2="82.77" y2="250.05" stroke="#8c8c8c" stroke-width="0.3" stroke-dasharray="1.2,0.8"/>
<line x1="75.023" y1="233.182" x2="65.17" y2="248.923" stroke="#8c8c8c" stroke-width="0.3" stroke-dasharray="1.2,0.8"/>
<line x1="39.891" y1="233.881" x2="22.293" y2="232.732" stroke="#8c8c8c" stroke-width="0.3" stroke-dasharray="1.2,0.8"/>
<line x1="22.293" y1="232.732" x2="30.037" y2="249.611" stroke="#8c8c8c" stroke-width="0.3" stroke-dasharray="1.2,0.8"/>
<line x1="30.037" y1="249.611" x2="39.891" y2="233.881" stroke="#8c8c8c" stroke-width="0.3" stroke-dasharray="1.2,0.8"/>
<line x1="49.015" y1="217.712" x2="57.424" y2="233.182" stroke="#8c8c8c" stroke-width="0.3" stroke-dasharray="1.2,0.8"/>
<line x1="56.044" y1="265.089" x2="47.64" y2="249.629" stroke="#8c8c8c" stroke-width="0.3" stroke-dasharray="1.2,0.8"/>
<line x1="100.067" y1="253.002" x2="92.483" y2="235.432" stroke="#8c8c8c" stroke-width="0.3" stroke-dasharray="1.2,0.8"/>
<line x1="84.955" y1="219.526" x2="92.483" y2="235.432" stroke="#8c8c8c" stroke-width="0.3" stroke-dasharray="1.2,0.8"/>
<line x1="89.736" y1="267.261" x2="100.067" y2="253.002" stroke="#8c8c8c" stroke-width="0.3" stroke-dasharray="1.2,0.8"/>
<line x1="89.736" y1="267.261" x2="82.77" y2="250.05" stroke="#8c8c8c" stroke-width="0.3" stroke-dasharray="1.2,0.8"/>
<line x1="56.044" y1="265.089" x2="65.17" y2="248.923" stroke="#8c8c8c" stroke-width="0.3" stroke-dasharray="1.2,0.8"/>
<line x1="32.154" y1="217.004" x2="22.293" y2="232.733" stroke="#8c8c8c" stroke-width="0.3" stroke-dasharray="1.2,0.8"/>
<line x1="49.015" y1="217.712" x2="39.891" y2="233.881" stroke="#8c8c8c" stroke-width="0.3" stroke-dasharray="1.2,0.8"/>
<line x1="20.104" y1="263.267" x2="30.037" y2="249.612" stroke="#8c8c8c" stroke-width="0.3" stroke-dasharray="1.2,0.8"/>
<line x1="75.023" y1="233.182" x2="66.932" y2="218.362" stroke="#8c8c8c" stroke-width="0.3" stroke-dasharray="1.2,0.8"/>
<line x1="57.424" y1="233.182" x2="66.932" y2="218.361" stroke="#141414" stroke-width="0.4"/>
<line x1="47.64" y1="249.629" x2="38.127" y2="264.433" stroke="#141414" stroke-width="0.4"/>
<line x1="12.584" y1="247.345" x2="5.0" y2="229.775" stroke="#141414" stroke-width="0.4"/>
<line x1="5.0" y1="229.775" x2="15.325" y2="215.526" stroke="#141414" stroke-width="0.4"/>
<line x1="20.104" y1="263.267" x2="12.584" y2="247.345" stroke="#141414" stroke-width="0.4"/>
<line x1="82.77" y1="250.05" x2="72.923" y2="265.79" stroke="#141414" stroke-width="0.4"/>
<line x1="72.923" y1="265.79" x2="65.17" y2="248.923" stroke="#141414" stroke-width="0.4"/>
<line x1="15.325" y1="215.526" x2="22.293" y2="232.732" stroke="#141414" stroke-width="0.4"/>
<line x1="32.154" y1="217.004" x2="39.891" y2="233.881" stroke="#141414" stroke-width="0.4"/>
<line x1="38.127" y1="264.433" x2="30.037" y2="249.611" stroke="#141414" stroke-width="0.4"/>
<line x1="75.023" y1="233.182" x2="84.955" y2="219.526" stroke="#141414" stroke-width="0.4"/>
<line x1="57.424" y1="233.182" x2="61.052" y2="225.198" stroke="#141414" stroke-width="0.4"/>
<line x1="61.052" y1="225.198" x2="57.688" y2="219.01" stroke="#141414" stroke-width="0.4"/>
<line x1="57.688" y1="219.01" x2="49.015" y2="217.712" stroke="#141414" stroke-width="0.4"/>
<line x1="47.64" y1="249.629" x2="44.012" y2="257.611" stroke="#141414" stroke-width="0.4"/>
<line x1="44.012" y1="257.611" x2="47.373" y2="263.794" stroke="#141414" stroke-width="0.4"/>
<line x1="47.373" y1="263.794" x2="56.044" y2="265.089" stroke="#141414" stroke-width="0.4"/>
<line x1="92.483" y1="235.432" x2="100.047" y2="235.293" stroke="#141414" stroke-width="0.4"/>
<line x1="100.047" y1="235.293" x2="105.356" y2="247.592" stroke="#141414" stroke-width="0.4"/>
<line x1="105.356" y1="247.592" x2="100.067" y2="253.002" stroke="#141414" stroke-width="0.4"/>
<line x1="92.483" y1="235.432" x2="97.681" y2="230.051" stroke="#141414" stroke-width="0.4"/>
<line x1="97.681" y1="230.051" x2="92.412" y2="218.918" stroke="#141414" stroke-width="0.4"/>
<line x1="92.412" y1="218.918" x2="84.955" y2="219.526" stroke="#141414" stroke-width="0.4"/>
<line x1="100.067" y1="253.002" x2="104.186" y2="259.247" stroke="#141414" stroke-width="0.4"/>
<line x1="104.186" y1="259.247" x2="96.954" y2="269.229" stroke="#141414" stroke-width="0.4"/>
<line x1="96.954" y1="269.229" x2="89.736" y2="267.261" stroke="#141414" stroke-width="0.4"/>
<line x1="82.77" y1="250.05" x2="79.207" y2="259.905" stroke="#141414" stroke-width="0.4"/>
<line x1="79.207" y1="259.905" x2="80.322" y2="262.659" stroke="#141414" stroke-width="0.4"/>
<line x1="80.322" y1="262.659" x2="89.736" y2="267.261" stroke="#141414" stroke-width="0.4"/>
<line x1="65.17" y1="248.923" x2="67.433" y2="259.154" stroke="#141414" stroke-width="0.4"/>
<line x1="67.433" y1="259.154" x2="65.973" y2="261.741" stroke="#141414" stroke-width="0.4"/>
<line x1="65.973" y1="261.741" x2="56.044" y2="265.089" stroke="#141414" stroke-width="0.4"/>
<line x1="22.293" y1="232.733" x2="20.503" y2="222.408" stroke="#141414" stroke-width="0.4"/>
<line x1="20.503" y1="222.408" x2="22.081" y2="219.892" stroke="#141414" stroke-width="0.4"/>
<line x1="22.081" y1="219.892" x2="32.154" y2="217.004" stroke="#141414" stroke-width="0.4"/>
<line x1="39.891" y1="233.881" x2="37.627" y2="223.65" stroke="#141414" stroke-width="0.4"/>
<line x1="37.627" y1="223.65" x2="39.087" y2="221.063" stroke="#141414" stroke-width="0.4"/>
<line x1="39.087" y1="221.063" x2="49.015" y2="217.712" stroke="#141414" stroke-width="0.4"/>
<line x1="30.037" y1="249.612" x2="32.718" y2="257.826" stroke="#141414" stroke-width="0.4"/>
<line x1="32.718" y1="257.826" x2="28.745" y2="263.288" stroke="#141414" stroke-width="0.4"/>
<line x1="28.745" y1="263.288" x2="20.104" y2="263.267" stroke="#141414" stroke-width="0.4"/>
<line x1="66.932" y1="218.362" x2="75.503" y2="219.453" stroke="#141414" stroke-width="0.4"/>
<line x1="75.503" y1="219.453" x2="78.74" y2="225.382" stroke="#141414" stroke-width="0.4"/>
<line x1="78.74" y1="225.382" x2="75.023" y2="233.182" stroke="#141414" stroke-width="0.4"/>
<circle cx="56.295" cy="223.775" r="1.50" fill="#ffe082" stroke="#464646" stroke-width="0.2"/>
<text x="56.295" y="224.29" font-size="1.47" text-anchor="middle" fill="#141414">47</text>
<circle cx="48.767" cy="259.031" r="1.50" fill="#ffe082" stroke="#464646" stroke-width="0.2"/>
<text x="48.767" y="259.54" font-size="1.47" text-anchor="middle" fill="#141414">48</text>
<circle cx="99.488" cy="242.829" r="1.50" fill="#ffe082" stroke="#464646" stroke-width="0.2"/>
<text x="99.488" y="243.34" font-size="1.47" text-anchor="middle" fill="#141414">49</text>
<circle cx="91.883" cy="225.982" r="1.50" fill="#ffe082" stroke="#464646" stroke-width="0.2"/>
<text x="91.883" y="226.50" font-size="1.47" text-anchor="middle" fill="#141414">50</text>
<circle cx="97.736" cy="262.185" r="1.50" fill="#ffe082" stroke="#464646" stroke-width="0.2"/>
<text x="97.736" y="262.70" font-size="1.47" text-anchor="middle" fill="#141414">51</text>
<circle cx="83.009" cy="259.969" r="1.50" fill="#ffe082" stroke="#464646" stroke-width="0.2"/>
<text x="83.009" y="260.48" font-size="1.47" text-anchor="middle" fill="#141414">52</text>
<circle cx="63.655" cy="258.727" r="1.50" fill="#ffe082" stroke="#464646" stroke-width="0.2"/>
<text x="63.655" y="259.24" font-size="1.47" text-anchor="middle" fill="#141414">53</text>
<circle cx="24.258" cy="223.009" r="1.50" fill="#ffe082" stroke="#464646" stroke-width="0.2"/>
<text x="24.258" y="223.52" font-size="1.47" text-anchor="middle" fill="#141414">54</text>
<circle cx="41.405" cy="224.076" r="1.50" fill="#ffe082" stroke="#464646" stroke-width="0.2"/>
<text x="41.405" y="224.59" font-size="1.47" text-anchor="middle" fill="#141414">55</text>
<circle cx="27.901" cy="258.498" r="1.50" fill="#ffe082" stroke="#464646" stroke-width="0.2"/>
<text x="27.901" y="259.01" font-size="1.47" text-anchor="middle" fill="#141414">56</text>
<circle cx="74.05" cy="224.095" r="1.50" fill="#ffe082" stroke="#464646" stroke-width="0.2"/>
<text x="74.05" y="224.61" font-size="1.47" text-anchor="middle" fill="#141414">57</text>
<circle cx="55.178" cy="209.426" r="4.6" fill="#eaf1fe" stroke="#2e78e6" stroke-width="0.3"/>
<text x="55.178" y="211.226" font-size="5.2" text-anchor="middle" fill="#14306e" font-weight="bold">5</text>
<polygon points="129.559,247.358 131.201,252.833 138.866,252.833 140.508,247.358" fill="rgb(216,216,216)"/>
<polygon points="129.559,236.917 131.201,231.442 138.866,231.442 140.508,236.917" fill="rgb(216,216,216)"/>
<polygon points="140.508,247.358 145.729,245.792 145.729,238.483 140.508,236.917" fill="rgb(216,216,216)"/>
<polygon points="129.559,258.307 128.021,263.434 120.844,263.434 119.306,258.307" fill="rgb(216,216,216)"/>
<polygon points="119.306,247.358 114.086,245.792 114.086,238.483 119.306,236.917" fill="rgb(216,216,216)"/>
<polygon points="119.306,247.358 113.831,249.0 113.831,256.665 119.306,258.307" fill="rgb(216,216,216)"/>
<polygon points="119.306,236.917 113.831,235.274 113.831,227.61 119.306,225.967" fill="rgb(216,216,216)"/>
<line x1="129.559" y1="247.358" x2="129.559" y2="236.917" stroke="#8c8c8c" stroke-width="0.3" stroke-dasharray="1.2,0.8"/>
<line x1="129.559" y1="247.358" x2="119.306" y2="247.358" stroke="#8c8c8c" stroke-width="0.3" stroke-dasharray="1.2,0.8"/>
<line x1="119.306" y1="236.917" x2="129.559" y2="236.917" stroke="#8c8c8c" stroke-width="0.3" stroke-dasharray="1.2,0.8"/>
<line x1="119.306" y1="225.967" x2="129.559" y2="225.967" stroke="#8c8c8c" stroke-width="0.3" stroke-dasharray="1.2,0.8"/>
<line x1="119.306" y1="225.967" x2="119.306" y2="215.526" stroke="#8c8c8c" stroke-width="0.3" stroke-dasharray="1.2,0.8"/>
<line x1="140.508" y1="247.358" x2="129.559" y2="247.358" stroke="#8c8c8c" stroke-width="0.3" stroke-dasharray="1.2,0.8"/>
<line x1="140.508" y1="236.917" x2="129.559" y2="236.917" stroke="#8c8c8c" stroke-width="0.3" stroke-dasharray="1.2,0.8"/>
<line x1="140.508" y1="236.917" x2="140.508" y2="247.358" stroke="#8c8c8c" stroke-width="0.3" stroke-dasharray="1.2,0.8"/>
<line x1="119.306" y1="258.307" x2="129.559" y2="258.307" stroke="#8c8c8c" stroke-width="0.3" stroke-dasharray="1.2,0.8"/>
<line x1="119.306" y1="236.917" x2="119.306" y2="247.358" stroke="#8c8c8c" stroke-width="0.3" stroke-dasharray="1.2,0.8"/>
<line x1="119.306" y1="258.307" x2="119.306" y2="247.358" stroke="#8c8c8c" stroke-width="0.3" stroke-dasharray="1.2,0.8"/>
<line x1="119.306" y1="225.967" x2="119.306" y2="236.917" stroke="#8c8c8c" stroke-width="0.3" stroke-dasharray="1.2,0.8"/>
<line x1="129.559" y1="247.358" x2="129.559" y2="258.307" stroke="#141414" stroke-width="0.4"/>
<line x1="129.559" y1="225.967" x2="129.559" y2="236.917" stroke="#141414" stroke-width="0.4"/>
<line x1="129.559" y1="215.526" x2="129.559" y2="225.967" stroke="#141414" stroke-width="0.4"/>
<line x1="119.306" y1="215.526" x2="129.559" y2="215.526" stroke="#141414" stroke-width="0.4"/>
<line x1="108.356" y1="225.967" x2="108.356" y2="215.526" stroke="#141414" stroke-width="0.4"/>
<line x1="108.356" y1="215.526" x2="119.306" y2="215.526" stroke="#141414" stroke-width="0.4"/>
<line x1="119.306" y1="225.967" x2="108.356" y2="225.967" stroke="#141414" stroke-width="0.4"/>
<line x1="129.559" y1="247.358" x2="131.201" y2="252.833" stroke="#141414" stroke-width="0.4"/>
<line x1="131.201" y1="252.833" x2="138.866" y2="252.833" stroke="#141414" stroke-width="0.4"/>
<line x1="138.866" y1="252.833" x2="140.508" y2="247.358" stroke="#141414" stroke-width="0.4"/>
<line x1="129.559" y1="236.917" x2="131.201" y2="231.442" stroke="#141414" stroke-width="0.4"/>
<line x1="131.201" y1="231.442" x2="138.866" y2="231.442" stroke="#141414" stroke-width="0.4"/>
<line x1="138.866" y1="231.442" x2="140.508" y2="236.917" stroke="#141414" stroke-width="0.4"/>
<line x1="140.508" y1="247.358" x2="145.729" y2="245.792" stroke="#141414" stroke-width="0.4"/>
<line x1="145.729" y1="245.792" x2="145.729" y2="238.483" stroke="#141414" stroke-width="0.4"/>
<line x1="145.729" y1="238.483" x2="140.508" y2="236.917" stroke="#141414" stroke-width="0.4"/>
<line x1="129.559" y1="258.307" x2="128.021" y2="263.434" stroke="#141414" stroke-width="0.4"/>
<line x1="128.021" y1="263.434" x2="120.844" y2="263.434" stroke="#141414" stroke-width="0.4"/>
<line x1="120.844" y1="263.434" x2="119.306" y2="258.307" stroke="#141414" stroke-width="0.4"/>
<line x1="119.306" y1="247.358" x2="114.086" y2="245.792" stroke="#141414" stroke-width="0.4"/>
<line x1="114.086" y1="245.792" x2="114.086" y2="238.483" stroke="#141414" stroke-width="0.4"/>
<line x1="114.086" y1="238.483" x2="119.306" y2="236.917" stroke="#141414" stroke-width="0.4"/>
<line x1="119.306" y1="247.358" x2="113.831" y2="249.0" stroke="#141414" stroke-width="0.4"/>
<line x1="113.831" y1="249.0" x2="113.831" y2="256.665" stroke="#141414" stroke-width="0.4"/>
<line x1="113.831" y1="256.665" x2="119.306" y2="258.307" stroke="#141414" stroke-width="0.4"/>
<line x1="119.306" y1="236.917" x2="113.831" y2="235.274" stroke="#141414" stroke-width="0.4"/>
<line x1="113.831" y1="235.274" x2="113.831" y2="227.61" stroke="#141414" stroke-width="0.4"/>
<line x1="113.831" y1="227.61" x2="119.306" y2="225.967" stroke="#141414" stroke-width="0.4"/>
<circle cx="135.034" cy="250.095" r="1.50" fill="#ffe082" stroke="#464646" stroke-width="0.2"/>
<text x="135.034" y="250.61" font-size="1.47" text-anchor="middle" fill="#141414">69</text>
<circle cx="135.034" cy="234.179" r="1.50" fill="#ffe082" stroke="#464646" stroke-width="0.2"/>
<text x="135.034" y="234.69" font-size="1.47" text-anchor="middle" fill="#141414">70</text>
<circle cx="143.119" cy="242.137" r="1.50" fill="#ffe082" stroke="#464646" stroke-width="0.2"/>
<text x="143.119" y="242.65" font-size="1.47" text-anchor="middle" fill="#141414">71</text>
<circle cx="124.432" cy="260.871" r="1.50" fill="#ffe082" stroke="#464646" stroke-width="0.2"/>
<text x="124.432" y="261.38" font-size="1.47" text-anchor="middle" fill="#141414">72</text>
<circle cx="116.696" cy="242.137" r="1.50" fill="#ffe082" stroke="#464646" stroke-width="0.2"/>
<text x="116.696" y="242.65" font-size="1.47" text-anchor="middle" fill="#141414">73</text>
<circle cx="116.569" cy="252.832" r="1.50" fill="#ffe082" stroke="#464646" stroke-width="0.2"/>
<text x="116.569" y="253.35" font-size="1.47" text-anchor="middle" fill="#141414">74</text>
<circle cx="116.569" cy="231.442" r="1.50" fill="#ffe082" stroke="#464646" stroke-width="0.2"/>
<text x="116.569" y="231.96" font-size="1.47" text-anchor="middle" fill="#141414">75</text>
<circle cx="127.042" cy="209.426" r="4.6" fill="#eaf1fe" stroke="#2e78e6" stroke-width="0.3"/>
<text x="127.042" y="211.226" font-size="5.2" text-anchor="middle" fill="#14306e" font-weight="bold">7</text>
<polygon points="169.931,247.358 171.574,252.833 179.239,252.833 180.881,247.358" fill="rgb(216,216,216)"/>
<polygon points="169.931,236.917 171.574,231.442 179.239,231.442 180.881,236.917" fill="rgb(216,216,216)"/>
<polygon points="180.881,247.358 186.102,245.792 186.102,238.483 180.881,236.917" fill="rgb(216,216,216)"/>
<polygon points="169.931,258.307 168.394,263.434 161.217,263.434 159.679,258.307" fill="rgb(216,216,216)"/>
<polygon points="159.679,247.358 154.458,245.792 154.458,238.483 159.679,236.917" fill="rgb(216,216,216)"/>
<polygon points="159.679,247.358 154.204,249.0 154.204,256.665 159.679,258.307" fill="rgb(216,216,216)"/>
<polygon points="159.679,236.917 154.204,235.274 154.204,227.61 159.679,225.967" fill="rgb(216,216,216)"/>
<line x1="169.931" y1="247.358" x2="169.931" y2="236.917" stroke="#8c8c8c" stroke-width="0.3" stroke-dasharray="1.2,0.8"/>
<line x1="169.931" y1="247.358" x2="159.679" y2="247.358" stroke="#8c8c8c" stroke-width="0.3" stroke-dasharray="1.2,0.8"/>
<line x1="159.679" y1="236.917" x2="169.931" y2="236.917" stroke="#8c8c8c" stroke-width="0.3" stroke-dasharray="1.2,0.8"/>
<line x1="159.679" y1="225.967" x2="169.931" y2="225.967" stroke="#8c8c8c" stroke-width="0.3" stroke-dasharray="1.2,0.8"/>
<line x1="159.679" y1="225.967" x2="159.679" y2="215.526" stroke="#8c8c8c" stroke-width="0.3" stroke-dasharray="1.2,0.8"/>
<line x1="180.881" y1="247.358" x2="169.931" y2="247.358" stroke="#8c8c8c" stroke-width="0.3" stroke-dasharray="1.2,0.8"/>
<line x1="180.881" y1="236.917" x2="169.931" y2="236.917" stroke="#8c8c8c" stroke-width="0.3" stroke-dasharray="1.2,0.8"/>
<line x1="180.881" y1="236.917" x2="180.881" y2="247.358" stroke="#8c8c8c" stroke-width="0.3" stroke-dasharray="1.2,0.8"/>
<line x1="159.679" y1="258.307" x2="169.931" y2="258.307" stroke="#8c8c8c" stroke-width="0.3" stroke-dasharray="1.2,0.8"/>
<line x1="159.679" y1="236.917" x2="159.679" y2="247.358" stroke="#8c8c8c" stroke-width="0.3" stroke-dasharray="1.2,0.8"/>
<line x1="159.679" y1="258.307" x2="159.679" y2="247.358" stroke="#8c8c8c" stroke-width="0.3" stroke-dasharray="1.2,0.8"/>
<line x1="159.679" y1="225.967" x2="159.679" y2="236.917" stroke="#8c8c8c" stroke-width="0.3" stroke-dasharray="1.2,0.8"/>
<line x1="169.931" y1="247.358" x2="169.931" y2="258.307" stroke="#141414" stroke-width="0.4"/>
<line x1="169.931" y1="225.967" x2="169.931" y2="236.917" stroke="#141414" stroke-width="0.4"/>
<line x1="169.931" y1="215.526" x2="169.931" y2="225.967" stroke="#141414" stroke-width="0.4"/>
<line x1="159.679" y1="215.526" x2="169.931" y2="215.526" stroke="#141414" stroke-width="0.4"/>
<line x1="148.729" y1="225.967" x2="148.729" y2="215.526" stroke="#141414" stroke-width="0.4"/>
<line x1="148.729" y1="215.526" x2="159.679" y2="215.526" stroke="#141414" stroke-width="0.4"/>
<line x1="159.679" y1="225.967" x2="148.729" y2="225.967" stroke="#141414" stroke-width="0.4"/>
<line x1="169.931" y1="247.358" x2="171.574" y2="252.833" stroke="#141414" stroke-width="0.4"/>
<line x1="171.574" y1="252.833" x2="179.239" y2="252.833" stroke="#141414" stroke-width="0.4"/>
<line x1="179.239" y1="252.833" x2="180.881" y2="247.358" stroke="#141414" stroke-width="0.4"/>
<line x1="169.931" y1="236.917" x2="171.574" y2="231.442" stroke="#141414" stroke-width="0.4"/>
<line x1="171.574" y1="231.442" x2="179.239" y2="231.442" stroke="#141414" stroke-width="0.4"/>
<line x1="179.239" y1="231.442" x2="180.881" y2="236.917" stroke="#141414" stroke-width="0.4"/>
<line x1="180.881" y1="247.358" x2="186.102" y2="245.792" stroke="#141414" stroke-width="0.4"/>
<line x1="186.102" y1="245.792" x2="186.102" y2="238.483" stroke="#141414" stroke-width="0.4"/>
<line x1="186.102" y1="238.483" x2="180.881" y2="236.917" stroke="#141414" stroke-width="0.4"/>
<line x1="169.931" y1="258.307" x2="168.394" y2="263.434" stroke="#141414" stroke-width="0.4"/>
<line x1="168.394" y1="263.434" x2="161.217" y2="263.434" stroke="#141414" stroke-width="0.4"/>
<line x1="161.217" y1="263.434" x2="159.679" y2="258.307" stroke="#141414" stroke-width="0.4"/>
<line x1="159.679" y1="247.358" x2="154.458" y2="245.792" stroke="#141414" stroke-width="0.4"/>
<line x1="154.458" y1="245.792" x2="154.458" y2="238.483" stroke="#141414" stroke-width="0.4"/>
<line x1="154.458" y1="238.483" x2="159.679" y2="236.917" stroke="#141414" stroke-width="0.4"/>
<line x1="159.679" y1="247.358" x2="154.204" y2="249.0" stroke="#141414" stroke-width="0.4"/>
<line x1="154.204" y1="249.0" x2="154.204" y2="256.665" stroke="#141414" stroke-width="0.4"/>
<line x1="154.204" y1="256.665" x2="159.679" y2="258.307" stroke="#141414" stroke-width="0.4"/>
<line x1="159.679" y1="236.917" x2="154.204" y2="235.274" stroke="#141414" stroke-width="0.4"/>
<line x1="154.204" y1="235.274" x2="154.204" y2="227.61" stroke="#141414" stroke-width="0.4"/>
<line x1="154.204" y1="227.61" x2="159.679" y2="225.967" stroke="#141414" stroke-width="0.4"/>
<circle cx="175.406" cy="250.095" r="1.50" fill="#ffe082" stroke="#464646" stroke-width="0.2"/>
<text x="175.406" y="250.61" font-size="1.47" text-anchor="middle" fill="#141414">76</text>
<circle cx="175.406" cy="234.179" r="1.50" fill="#ffe082" stroke="#464646" stroke-width="0.2"/>
<text x="175.406" y="234.69" font-size="1.47" text-anchor="middle" fill="#141414">77</text>
<circle cx="183.492" cy="242.137" r="1.50" fill="#ffe082" stroke="#464646" stroke-width="0.2"/>
<text x="183.492" y="242.65" font-size="1.47" text-anchor="middle" fill="#141414">78</text>
<circle cx="164.805" cy="260.871" r="1.50" fill="#ffe082" stroke="#464646" stroke-width="0.2"/>
<text x="164.805" y="261.38" font-size="1.47" text-anchor="middle" fill="#141414">79</text>
<circle cx="157.069" cy="242.137" r="1.50" fill="#ffe082" stroke="#464646" stroke-width="0.2"/>
<text x="157.069" y="242.65" font-size="1.47" text-anchor="middle" fill="#141414">80</text>
<circle cx="156.941" cy="252.832" r="1.50" fill="#ffe082" stroke="#464646" stroke-width="0.2"/>
<text x="156.941" y="253.35" font-size="1.47" text-anchor="middle" fill="#141414">81</text>
<circle cx="156.941" cy="231.442" r="1.50" fill="#ffe082" stroke="#464646" stroke-width="0.2"/>
<text x="156.941" y="231.96" font-size="1.47" text-anchor="middle" fill="#141414">82</text>
<circle cx="167.415" cy="209.426" r="4.6" fill="#eaf1fe" stroke="#2e78e6" stroke-width="0.3"/>
<text x="167.415" y="211.226" font-size="5.2" text-anchor="middle" fill="#14306e" font-weight="bold">8</text>
</svg>
