<svg xmlns="http://www.w3.org/2000/svg" xmlns:xlink="http://www.w3.org/1999/xlink" width="210.00mm" height="297.00mm" viewBox="0 0 210.00 297.00">
<rect x="0" y="0" width="210.00" height="297.00" fill="#ffffff" stroke="#cccccc" stroke-width="0.2"/>
<polygon points="42.004,116.948 59.2,106.598 121.976,41.458 131.683,23.892" fill="rgb(216,216,216)"/>
<polygon points="47.19,12.21 54.255,9.009 79.842,17.186 83.742,23.892" fill="rgb(216,216,216)"/>
<polygon points="131.683,23.892 124.492,18.691 90.933,18.691 83.742,23.892" fill="rgb(216,216,216)"/>
<line x1="42.004" y1="116.948" x2="83.742" y2="23.892" stroke="#8c8c8c" stroke-width="0.3" stroke-dasharray="1.2,0.8"/>
<line x1="26.949" y1="105.737" x2="47.19" y2="12.21" stroke="#8c8c8c" stroke-width="0.3" stroke-dasharray="1.2,0.8"/>
<line x1="26.949" y1="105.737" x2="83.742" y2="23.892" stroke="#8c8c8c" stroke-width="0.3" stroke-dasharray="1.2,0.8"/>
<line x1="131.683" y1="23.892" x2="42.004" y2="116.948" stroke="#8c8c8c" stroke-width="0.3" stroke-dasharray="1.2,0.8"/>
<line x1="83.742" y1="23.892" x2="47.19" y2="12.21" stroke="#8c8c8c" stroke-width="0.3" stroke-dasharray="1.2,0.8"/>
<line x1="83.742" y1="23.892" x2="131.683" y2="23.892" stroke="#8c8c8c" stroke-width="0.3" stroke-dasharray="1.2,0.8"/>
<line x1="42.004" y1="116.948" x2="26.949" y2="105.737" stroke="#141414" stroke-width="0.4"/>
<line x1="26.949" y1="105.737" x2="5.0" y2="11.662" stroke="#141414" stroke-width="0.4"/>
<line x1="5.0" y1="11.662" x2="47.19" y2="12.21" stroke="#141414" stroke-width="0.4"/>
<line x1="42.004" y1="116.948" x2="59.2" y2="106.598" stroke="#141414" stroke-width="0.4"/>
<line x1="59.2" y1="106.598" x2="121.976" y2="41.458" stroke="#141414" stroke-width="0.4"/>
<line x1="121.976" y1="41.458" x2="131.683" y2="23.892" stroke="#141414" stroke-width="0.4"/>
<line x1="47.19" y1="12.21" x2="54.255" y2="9.009" stroke="#141414" stroke-width="0.4"/>
<line x1="54.255" y1="9.009" x2="79.842" y2="17.186" stroke="#141414" stroke-width="0.4"/>
<line x1="79.842" y1="17.186" x2="83.742" y2="23.892" stroke="#141414" stroke-width="0.4"/>
<line x1="131.683" y1="23.892" x2="124.492" y2="18.691" stroke="#141414" stroke-width="0.4"/>
<line x1="124.492" y1="18.691" x2="90.933" y2="18.691" stroke="#141414" stroke-width="0.4"/>
<line x1="90.933" y1="18.691" x2="83.742" y2="23.892" stroke="#141414" stroke-width="0.4"/>
<circle cx="88.716" cy="72.224" r="2.29" fill="#ffe082" stroke="#464646" stroke-width="0.2"/>
<text x="88.716" y="73.31" font-size="3.11" text-anchor="middle" fill="#141414">2</text>
<circle cx="66.257" cy="15.574" r="2.29" fill="#ffe082" stroke="#464646" stroke-width="0.2"/>
<text x="66.257" y="16.66" font-size="3.11" text-anchor="middle" fill="#141414">7</text>
<circle cx="107.713" cy="21.292" r="2.29" fill="#ffe082" stroke="#464646" stroke-width="0.2"/>
<text x="107.713" y="22.38" font-size="3.11" text-anchor="middle" fill="#141414">8</text>
<circle cx="68.342" cy="119.039" r="4.6" fill="#eaf1fe" stroke="#2e78e6" stroke-width="0.3"/>
<text x="68.342" y="120.839" font-size="5.2" text-anchor="middle" fill="#14306e" font-weight="bold">8</text>
</svg>
