<svg xmlns="http://www.w3.org/2000/svg" xmlns:xlink="http://www.w3.org/1999/xlink" width="210.00mm" height="297.00mm" viewBox="0 0 210.00 297.00">
<rect x="0" y="0" width="210.00" height="297.00" fill="#ffffff" stroke="#cccccc" stroke-width="0.2"/>
<polygon points="75.865,117.55 82.865,126.93 82.865,170.699 75.865,180.078" fill="rgb(216,216,216)"/>
<polygon points="67.528,117.55 60.528,111.298 60.528,82.118 67.528,75.865" fill="rgb(216,216,216)"/>
<polygon points="67.528,117.55 60.528,126.93 60.528,170.699 67.528,180.078" fill="rgb(216,216,216)"/>
<polygon points="75.865,75.865 85.244,68.865 129.014,68.865 138.393,75.865" fill="rgb(216,216,216)"/>
<polygon points="5.0,221.764 14.379,228.764 58.149,228.764 67.528,221.764" fill="rgb(216,216,216)"/>
<polygon points="138.393,117.55 145.393,111.298 145.393,82.118 138.393,75.865" fill="rgb(216,216,216)"/>
<polygon points="75.865,13.337 74.615,9.168 68.779,9.168 67.528,13.337" fill="rgb(216,216,216)"/>
<line x1="75.865" y1="117.55" x2="67.528" y2="117.55" stroke="#8c8c8c" stroke-width="0.3" stroke-dasharray="1.2,0.8"/>
<line x1="75.865" y1="75.865" x2="75.865" y2="117.55" stroke="#8c8c8c" stroke-width="0.3" stroke-dasharray="1.2,0.8"/>
<line x1="67.528" y1="75.865" x2="75.865" y2="75.865" stroke="#8c8c8c" stroke-width="0.3" stroke-dasharray="1.2,0.8"/>
<line x1="75.865" y1="180.078" x2="67.528" y2="180.078" stroke="#8c8c8c" stroke-width="0.3" stroke-dasharray="1.2,0.8"/>
<line x1="67.528" y1="180.078" x2="67.528" y2="221.764" stroke="#8c8c8c" stroke-width="0.3" stroke-dasharray="1.2,0.8"/>
<line x1="75.865" y1="180.078" x2="75.865" y2="117.55" stroke="#8c8c8c" stroke-width="0.3" stroke-dasharray="1.2,0.8"/>
<line x1="67.528" y1="75.865" x2="67.528" y2="117.55" stroke="#8c8c8c" stroke-width="0.3" stroke-dasharray="1.2,0.8"/>
<line x1="67.528" y1="180.078" x2="67.528" y2="117.55" stroke="#8c8c8c" stroke-width="0.3" stroke-dasharray="1.2,0.8"/>
<line x1="138.393" y1="75.865" x2="75.865" y2="75.865" stroke="#8c8c8c" stroke-width="0.3" stroke-dasharray="1.2,0.8"/>
<line x1="67.528" y1="221.764" x2="5.0" y2="221.764" stroke="#8c8c8c" stroke-width="0.3" stroke-dasharray="1.2,0.8"/>
<line x1="138.393" y1="75.865" x2="138.393" y2="117.55" stroke="#8c8c8c" stroke-width="0.3" stroke-dasharray="1.2,0.8"/>
<line x1="67.528" y1="13.337" x2="75.865" y2="13.337" stroke="#8c8c8c" stroke-width="0.3" stroke-dasharray="1.2,0.8"/>
<line x1="138.393" y1="117.55" x2="75.865" y2="117.55" stroke="#141414" stroke-width="0.4"/>
<line x1="5.0" y1="221.764" x2="5.0" y2="180.078" stroke="#141414" stroke-width="0.4"/>
<line x1="5.0" y1="180.078" x2="67.528" y2="180.078" stroke="#141414" stroke-width="0.4"/>
<line x1="75.865" y1="13.337" x2="75.865" y2="75.865" stroke="#141414" stroke-width="0.4"/>
<line x1="67.528" y1="75.865" x2="67.528" y2="13.337" stroke="#141414" stroke-width="0.4"/>
<line x1="75.865" y1="180.078" x2="75.865" y2="221.764" stroke="#141414" stroke-width="0.4"/>
<line x1="75.865" y1="221.764" x2="67.528" y2="221.764" stroke="#141414" stroke-width="0.4"/>
<line x1="75.865" y1="117.55" x2="82.865" y2="126.93" stroke="#141414" stroke-width="0.4"/>
<line x1="82.865" y1="126.93" x2="82.865" y2="170.699" stroke="#141414" stroke-width="0.4"/>
<line x1="82.865" y1="170.699" x2="75.865" y2="180.078" stroke="#141414" stroke-width="0.4"/>
<line x1="67.528" y1="117.55" x2="60.528" y2="111.298" stroke="#141414" stroke-width="0.4"/>
<line x1="60.528" y1="111.298" x2="60.528" y2="82.118" stroke="#141414" stroke-width="0.4"/>
<line x1="60.528" y1="82.118" x2="67.528" y2="75.865" stroke="#141414" stroke-width="0.4"/>
<line x1="67.528" y1="117.55" x2="60.528" y2="126.93" stroke="#141414" stroke-width="0.4"/>
<line x1="60.528" y1="126.93" x2="60.528" y2="170.699" stroke="#141414" stroke-width="0.4"/>
<line x1="60.528" y1="170.699" x2="67.528" y2="180.078" stroke="#141414" stroke-width="0.4"/>
<line x1="75.865" y1="75.865" x2="85.244" y2="68.865" stroke="#141414" stroke-width="0.4"/>
<line x1="85.244" y1="68.865" x2="129.014" y2="68.865" stroke="#141414" stroke-width="0.4"/>
<line x1="129.014" y1="68.865" x2="138.393" y2="75.865" stroke="#141414" stroke-width="0.4"/>
<line x1="5.0" y1="221.764" x2="14.379" y2="228.764" stroke="#141414" stroke-width="0.4"/>
<line x1="14.379" y1="228.764" x2="58.149" y2="228.764" stroke="#141414" stroke-width="0.4"/>
<line x1="58.149" y1="228.764" x2="67.528" y2="221.764" stroke="#141414" stroke-width="0.4"/>
<line x1="138.393" y1="117.55" x2="145.393" y2="111.298" stroke="#141414" stroke-width="0.4"/>
<line x1="145.393" y1="111.298" x2="145.393" y2="82.118" stroke="#141414" stroke-width="0.4"/>
<line x1="145.393" y1="82.118" x2="138.393" y2="75.865" stroke="#141414" stroke-width="0.4"/>
<line x1="75.865" y1="13.337" x2="74.615" y2="9.168" stroke="#141414" stroke-width="0.4"/>
<line x1="74.615" y1="9.168" x2="68.779" y2="9.168" stroke="#141414" stroke-width="0.4"/>
<line x1="68.779" y1="9.168" x2="67.528" y2="13.337" stroke="#141414" stroke-width="0.4"/>
<circle cx="79.365" cy="148.814" r="1.46" fill="#ffe082" stroke="#464646" stroke-width="0.2"/>
<text x="79.365" y="149.51" font-size="1.98" text-anchor="middle" fill="#141414">22</text>
<circle cx="64.028" cy="96.708" r="1.46" fill="#ffe082" stroke="#464646" stroke-width="0.2"/>
<text x="64.028" y="97.40" font-size="1.98" text-anchor="middle" fill="#141414">23</text>
<circle cx="64.028" cy="148.814" r="1.46" fill="#ffe082" stroke="#464646" stroke-width="0.2"/>
<text x="64.028" y="149.51" font-size="1.98" text-anchor="middle" fill="#141414">24</text>
<circle cx="107.129" cy="72.365" r="1.46" fill="#ffe082" stroke="#464646" stroke-width="0.2"/>
<text x="107.129" y="73.06" font-size="1.98" text-anchor="middle" fill="#141414">25</text>
<circle cx="36.264" cy="225.264" r="1.46" fill="#ffe082" stroke="#464646" stroke-width="0.2"/>
<text x="36.264" y="225.96" font-size="1.98" text-anchor="middle" fill="#141414">26</text>
<circle cx="141.893" cy="96.708" r="1.46" fill="#ffe082" stroke="#464646" stroke-width="0.2"/>
<text x="141.893" y="97.40" font-size="1.98" text-anchor="middle" fill="#141414">27</text>
<circle cx="71.697" cy="11.253" r="1.46" fill="#ffe082" stroke="#464646" stroke-width="0.2"/>
<text x="71.697" y="11.95" font-size="1.98" text-anchor="middle" fill="#141414">28</text>
<circle cx="75.197" cy="230.696" r="4.6" fill="#eaf1fe" stroke="#2e78e6" stroke-width="0.3"/>
<text x="75.197" y="232.496" font-size="5.2" text-anchor="middle" fill="#14306e" font-weight="bold">4</text>
<polygon points="167.896,24.706 163.643,24.815 162.506,23.389 163.836,19.616" fill="rgb(216,216,216)"/>
<polygon points="174.407,24.706 178.66,24.815 179.797,23.389 178.467,19.616" fill="rgb(216,216,216)"/>
<polygon points="171.779,85.211 167.879,86.581 168.135,92.118 172.145,93.121" fill="rgb(216,216,216)"/>
<polygon points="178.467,19.616 181.564,17.907 180.55,13.463 177.018,13.268" fill="rgb(216,216,216)"/>
<polygon points="177.018,13.268 177.613,9.781 173.507,7.803 171.152,10.442" fill="rgb(216,216,216)"/>
<polygon points="181.321,85.504 182.095,89.053 186.952,89.427 188.259,86.038" fill="rgb(216,216,216)"/>
<polygon points="193.906,25.781 200.028,35.473 196.076,77.653 188.259,86.038" fill="rgb(216,216,216)"/>
<polygon points="171.152,10.442 168.796,7.803 164.69,9.78 165.285,13.268" fill="rgb(216,216,216)"/>
<polygon points="153.755,86.021 154.862,93.807 159.055,95.493 158.805,85.632" fill="rgb(216,216,216)"/>
<polygon points="165.285,13.268 161.753,13.463 160.739,17.907 163.836,19.616" fill="rgb(216,216,216)"/>
<polygon points="158.805,85.632 159.654,92.095 163.699,91.881 163.862,85.365" fill="rgb(216,216,216)"/>
<line x1="167.896" y1="24.706" x2="174.407" y2="24.706" stroke="#8c8c8c" stroke-width="0.3" stroke-dasharray="1.2,0.8"/>
<line x1="171.779" y1="85.211" x2="167.896" y2="24.706" stroke="#8c8c8c" stroke-width="0.3" stroke-dasharray="1.2,0.8"/>
<line x1="167.896" y1="24.706" x2="163.862" y2="85.365" stroke="#8c8c8c" stroke-width="0.3" stroke-dasharray="1.2,0.8"/>
<line x1="174.407" y1="24.706" x2="171.779" y2="85.211" stroke="#8c8c8c" stroke-width="0.3" stroke-dasharray="1.2,0.8"/>
<line x1="180.916" y1="24.87" x2="171.779" y2="85.211" stroke="#8c8c8c" stroke-width="0.3" stroke-dasharray="1.2,0.8"/>
<line x1="181.321" y1="85.504" x2="171.779" y2="85.211" stroke="#8c8c8c" stroke-width="0.3" stroke-dasharray="1.2,0.8"/>
<line x1="180.916" y1="24.87" x2="181.321" y2="85.504" stroke="#8c8c8c" stroke-width="0.3" stroke-dasharray="1.2,0.8"/>
<line x1="187.417" y1="25.244" x2="181.321" y2="85.504" stroke="#8c8c8c" stroke-width="0.3" stroke-dasharray="1.2,0.8"/>
<line x1="154.885" y1="25.239" x2="158.805" y2="85.632" stroke="#8c8c8c" stroke-width="0.3" stroke-dasharray="1.2,0.8"/>
<line x1="161.387" y1="24.895" x2="163.862" y2="85.365" stroke="#8c8c8c" stroke-width="0.3" stroke-dasharray="1.2,0.8"/>
<line x1="193.906" y1="25.781" x2="181.321" y2="85.504" stroke="#8c8c8c" stroke-width="0.3" stroke-dasharray="1.2,0.8"/>
<line x1="163.836" y1="19.616" x2="167.896" y2="24.706" stroke="#8c8c8c" stroke-width="0.3" stroke-dasharray="1.2,0.8"/>
<line x1="178.467" y1="19.616" x2="174.407" y2="24.706" stroke="#8c8c8c" stroke-width="0.3" stroke-dasharray="1.2,0.8"/>
<line x1="172.145" y1="93.121" x2="171.779" y2="85.211" stroke="#8c8c8c" stroke-width="0.3" stroke-dasharray="1.2,0.8"/>
<line x1="177.018" y1="13.268" x2="178.467" y2="19.616" stroke="#8c8c8c" stroke-width="0.3" stroke-dasharray="1.2,0.8"/>
<line x1="171.152" y1="10.442" x2="177.018" y2="13.268" stroke="#8c8c8c" stroke-width="0.3" stroke-dasharray="1.2,0.8"/>
<line x1="188.259" y1="86.038" x2="181.321" y2="85.504" stroke="#8c8c8c" stroke-width="0.3" stroke-dasharray="1.2,0.8"/>
<line x1="188.259" y1="86.038" x2="193.906" y2="25.781" stroke="#8c8c8c" stroke-width="0.3" stroke-dasharray="1.2,0.8"/>
<line x1="165.285" y1="13.268" x2="171.152" y2="10.442" stroke="#8c8c8c" stroke-width="0.3" stroke-dasharray="1.2,0.8"/>
<line x1="158.805" y1="85.632" x2="153.755" y2="86.021" stroke="#8c8c8c" stroke-width="0.3" stroke-dasharray="1.2,0.8"/>
<line x1="163.836" y1="19.616" x2="165.285" y2="13.268" stroke="#8c8c8c" stroke-width="0.3" stroke-dasharray="1.2,0.8"/>
<line x1="163.862" y1="85.365" x2="158.805" y2="85.632" stroke="#8c8c8c" stroke-width="0.3" stroke-dasharray="1.2,0.8"/>
<line x1="161.387" y1="24.895" x2="167.896" y2="24.706" stroke="#141414" stroke-width="0.4"/>
<line x1="174.407" y1="24.706" x2="180.916" y2="24.87" stroke="#141414" stroke-width="0.4"/>
<line x1="171.779" y1="85.211" x2="163.862" y2="85.365" stroke="#141414" stroke-width="0.4"/>
<line x1="180.916" y1="24.87" x2="187.417" y2="25.244" stroke="#141414" stroke-width="0.4"/>
<line x1="187.417" y1="25.244" x2="193.906" y2="25.781" stroke="#141414" stroke-width="0.4"/>
<line x1="181.321" y1="85.504" x2="181.246" y2="92.463" stroke="#141414" stroke-width="0.4"/>
<line x1="153.755" y1="86.021" x2="148.393" y2="25.738" stroke="#141414" stroke-width="0.4"/>
<line x1="148.393" y1="25.738" x2="154.885" y2="25.239" stroke="#141414" stroke-width="0.4"/>
<line x1="181.246" y1="92.463" x2="176.854" y2="94.983" stroke="#141414" stroke-width="0.4"/>
<line x1="154.885" y1="25.239" x2="161.387" y2="24.895" stroke="#141414" stroke-width="0.4"/>
<line x1="176.854" y1="94.983" x2="172.145" y2="93.121" stroke="#141414" stroke-width="0.4"/>
<line x1="167.896" y1="24.706" x2="163.643" y2="24.815" stroke="#141414" stroke-width="0.4"/>
<line x1="163.643" y1="24.815" x2="162.506" y2="23.389" stroke="#141414" stroke-width="0.4"/>
<line x1="162.506" y1="23.389" x2="163.836" y2="19.616" stroke="#141414" stroke-width="0.4"/>
<line x1="174.407" y1="24.706" x2="178.66" y2="24.815" stroke="#141414" stroke-width="0.4"/>
<line x1="178.66" y1="24.815" x2="179.797" y2="23.389" stroke="#141414" stroke-width="0.4"/>
<line x1="179.797" y1="23.389" x2="178.467" y2="19.616" stroke="#141414" stroke-width="0.4"/>
<line x1="171.779" y1="85.211" x2="167.879" y2="86.581" stroke="#141414" stroke-width="0.4"/>
<line x1="167.879" y1="86.581" x2="168.135" y2="92.118" stroke="#141414" stroke-width="0.4"/>
<line x1="168.135" y1="92.118" x2="172.145" y2="93.121" stroke="#141414" stroke-width="0.4"/>
<line x1="178.467" y1="19.616" x2="181.564" y2="17.907" stroke="#141414" stroke-width="0.4"/>
<line x1="181.564" y1="17.907" x2="180.55" y2="13.463" stroke="#141414" stroke-width="0.4"/>
<line x1="180.55" y1="13.463" x2="177.018" y2="13.268" stroke="#141414" stroke-width="0.4"/>
<line x1="177.018" y1="13.268" x2="177.613" y2="9.781" stroke="#141414" stroke-width="0.4"/>
<line x1="177.613" y1="9.781" x2="173.507" y2="7.803" stroke="#141414" stroke-width="0.4"/>
<line x1="173.507" y1="7.803" x2="171.152" y2="10.442" stroke="#141414" stroke-width="0.4"/>
<line x1="181.321" y1="85.504" x2="182.095" y2="89.053" stroke="#141414" stroke-width="0.4"/>
<line x1="182.095" y1="89.053" x2="186.952" y2="89.427" stroke="#141414" stroke-width="0.4"/>
<line x1="186.952" y1="89.427" x2="188.259" y2="86.038" stroke="#141414" stroke-width="0.4"/>
<line x1="193.906" y1="25.781" x2="200.028" y2="35.473" stroke="#141414" stroke-width="0.4"/>
<line x1="200.028" y1="35.473" x2="196.076" y2="77.653" stroke="#141414" stroke-width="0.4"/>
<line x1="196.076" y1="77.653" x2="188.259" y2="86.038" stroke="#141414" stroke-width="0.4"/>
<line x1="171.152" y1="10.442" x2="168.796" y2="7.803" stroke="#141414" stroke-width="0.4"/>
<line x1="168.796" y1="7.803" x2="164.69" y2="9.78" stroke="#141414" stroke-width="0.4"/>
<line x1="164.69" y1="9.78" x2="165.285" y2="13.268" stroke="#141414" stroke-width="0.4"/>
<line x1="153.755" y1="86.021" x2="154.862" y2="93.807" stroke="#141414" stroke-width="0.4"/>
<line x1="154.862" y1="93.807" x2="159.055" y2="95.493" stroke="#141414" stroke-width="0.4"/>
<line x1="159.055" y1="95.493" x2="158.805" y2="85.632" stroke="#141414" stroke-width="0.4"/>
<line x1="165.285" y1="13.268" x2="161.753" y2="13.463" stroke="#141414" stroke-width="0.4"/>
<line x1="161.753" y1="13.463" x2="160.739" y2="17.907" stroke="#141414" stroke-width="0.4"/>
<line x1="160.739" y1="17.907" x2="163.836" y2="19.616" stroke="#141414" stroke-width="0.4"/>
<line x1="158.805" y1="85.632" x2="159.654" y2="92.095" stroke="#141414" stroke-width="0.4"/>
<line x1="159.654" y1="92.095" x2="163.699" y2="91.881" stroke="#141414" stroke-width="0.4"/>
<line x1="163.699" y1="91.881" x2="163.862" y2="85.365" stroke="#141414" stroke-width="0.4"/>
<circle cx="164.47" cy="23.132" r="1.46" fill="#ffe082" stroke="#464646" stroke-width="0.2"/>
<text x="164.47" y="23.83" font-size="1.98" text-anchor="middle" fill="#141414">50</text>
<circle cx="177.832" cy="23.131" r="1.46" fill="#ffe082" stroke="#464646" stroke-width="0.2"/>
<text x="177.832" y="23.83" font-size="1.98" text-anchor="middle" fill="#141414">51</text>
<circle cx="169.984" cy="89.258" r="1.46" fill="#ffe082" stroke="#464646" stroke-width="0.2"/>
<text x="169.984" y="89.95" font-size="1.98" text-anchor="middle" fill="#141414">52</text>
<circle cx="179.4" cy="16.063" r="1.46" fill="#ffe082" stroke="#464646" stroke-width="0.2"/>
<text x="179.4" y="16.76" font-size="1.98" text-anchor="middle" fill="#141414">53</text>
<circle cx="174.822" cy="10.323" r="1.46" fill="#ffe082" stroke="#464646" stroke-width="0.2"/>
<text x="174.822" y="11.02" font-size="1.98" text-anchor="middle" fill="#141414">54</text>
<circle cx="184.657" cy="87.506" r="1.46" fill="#ffe082" stroke="#464646" stroke-width="0.2"/>
<text x="184.657" y="88.20" font-size="1.98" text-anchor="middle" fill="#141414">55</text>
<circle cx="194.567" cy="56.236" r="1.46" fill="#ffe082" stroke="#464646" stroke-width="0.2"/>
<text x="194.567" y="56.93" font-size="1.98" text-anchor="middle" fill="#141414">56</text>
<circle cx="167.481" cy="10.323" r="1.46" fill="#ffe082" stroke="#464646" stroke-width="0.2"/>
<text x="167.481" y="11.02" font-size="1.98" text-anchor="middle" fill="#141414">57</text>
<circle cx="162.903" cy="16.063" r="1.46" fill="#ffe082" stroke="#464646" stroke-width="0.2"/>
<text x="162.903" y="16.76" font-size="1.98" text-anchor="middle" fill="#141414">59</text>
<circle cx="174.211" cy="98.79" r="4.6" fill="#eaf1fe" stroke="#2e78e6" stroke-width="0.3"/>
<text x="174.211" y="100.59" font-size="5.2" text-anchor="middle" fill="#14306e" font-weight="bold">8</text>
</svg>
