<svg xmlns="http://www.w3.org/2000/svg" xmlns:xlink="http://www.w3.org/1999/xlink" width="210.00mm" height="297.00mm" viewBox="0 0 210.00 297.00">
<rect x="0" y="0" width="210.00" height="297.00" fill="#ffffff" stroke="#cccccc" stroke-width="0.2"/>
<polygon points="103.297,26.12 111.267,25.206 134.939,41.089 137.114,48.811" fill="rgb(216,216,216)"/>
<polygon points="127.122,86.718 130.565,94.996 122.974,128.226 116.278,134.189" fill="rgb(216,216,216)"/>
<polygon points="63.549,101.176 59.178,106.924 62.757,130.033 68.663,134.189" fill="rgb(216,216,216)"/>
<polygon points="99.903,160.471 106.773,159.278 118.236,140.881 116.278,134.189" fill="rgb(216,216,216)"/>
<polygon points="99.903,160.471 97.846,168.013 75.011,182.865 67.283,181.688" fill="rgb(216,216,216)"/>
<polygon points="68.663,134.189 42.072,129.351 31.969,129.489 5.52,135.051" fill="rgb(216,216,216)"/>
<polygon points="5.52,135.051 7.048,142.829 29.083,159.979 36.998,159.55" fill="rgb(216,216,216)"/>
<line x1="103.297" y1="26.12" x2="73.174" y2="54.77" stroke="#8c8c8c" stroke-width="0.3" stroke-dasharray="1.2,0.8"/>
<line x1="103.048" y1="73.806" x2="73.174" y2="54.77" stroke="#8c8c8c" stroke-width="0.3" stroke-dasharray="1.2,0.8"/>
<line x1="103.048" y1="73.806" x2="103.297" y2="26.12" stroke="#8c8c8c" stroke-width="0.3" stroke-dasharray="1.2,0.8"/>
<line x1="99.903" y1="160.471" x2="68.663" y2="134.189" stroke="#8c8c8c" stroke-width="0.3" stroke-dasharray="1.2,0.8"/>
<line x1="36.998" y1="159.55" x2="68.663" y2="134.189" stroke="#8c8c8c" stroke-width="0.3" stroke-dasharray="1.2,0.8"/>
<line x1="67.283" y1="181.689" x2="68.663" y2="134.189" stroke="#8c8c8c" stroke-width="0.3" stroke-dasharray="1.2,0.8"/>
<line x1="63.549" y1="101.176" x2="103.048" y2="73.806" stroke="#8c8c8c" stroke-width="0.3" stroke-dasharray="1.2,0.8"/>
<line x1="103.048" y1="73.806" x2="116.278" y2="134.189" stroke="#8c8c8c" stroke-width="0.3" stroke-dasharray="1.2,0.8"/>
<line x1="116.278" y1="134.189" x2="63.549" y2="101.176" stroke="#8c8c8c" stroke-width="0.3" stroke-dasharray="1.2,0.8"/>
<line x1="68.663" y1="134.189" x2="116.278" y2="134.189" stroke="#8c8c8c" stroke-width="0.3" stroke-dasharray="1.2,0.8"/>
<line x1="137.114" y1="48.811" x2="103.297" y2="26.12" stroke="#8c8c8c" stroke-width="0.3" stroke-dasharray="1.2,0.8"/>
<line x1="116.278" y1="134.189" x2="127.122" y2="86.718" stroke="#8c8c8c" stroke-width="0.3" stroke-dasharray="1.2,0.8"/>
<line x1="68.663" y1="134.189" x2="63.549" y2="101.176" stroke="#8c8c8c" stroke-width="0.3" stroke-dasharray="1.2,0.8"/>
<line x1="116.278" y1="134.189" x2="99.903" y2="160.471" stroke="#8c8c8c" stroke-width="0.3" stroke-dasharray="1.2,0.8"/>
<line x1="67.283" y1="181.688" x2="99.903" y2="160.471" stroke="#8c8c8c" stroke-width="0.3" stroke-dasharray="1.2,0.8"/>
<line x1="5.52" y1="135.051" x2="68.663" y2="134.189" stroke="#8c8c8c" stroke-width="0.3" stroke-dasharray="1.2,0.8"/>
<line x1="36.998" y1="159.55" x2="5.52" y2="135.051" stroke="#8c8c8c" stroke-width="0.3" stroke-dasharray="1.2,0.8"/>
<line x1="73.174" y1="54.77" x2="46.37" y2="5.0" stroke="#141414" stroke-width="0.4"/>
<line x1="63.549" y1="101.176" x2="73.174" y2="54.77" stroke="#141414" stroke-width="0.4"/>
<line x1="46.37" y1="5.0" x2="103.297" y2="26.12" stroke="#141414" stroke-width="0.4"/>
<line x1="103.048" y1="73.806" x2="127.122" y2="86.718" stroke="#141414" stroke-width="0.4"/>
<line x1="137.114" y1="48.811" x2="103.048" y2="73.806" stroke="#141414" stroke-width="0.4"/>
<line x1="67.283" y1="181.689" x2="36.998" y2="159.55" stroke="#141414" stroke-width="0.4"/>
<line x1="103.297" y1="26.12" x2="111.267" y2="25.206" stroke="#141414" stroke-width="0.4"/>
<line x1="111.267" y1="25.206" x2="134.939" y2="41.089" stroke="#141414" stroke-width="0.4"/>
<line x1="134.939" y1="41.089" x2="137.114" y2="48.811" stroke="#141414" stroke-width="0.4"/>
<line x1="127.122" y1="86.718" x2="130.565" y2="94.996" stroke="#141414" stroke-width="0.4"/>
<line x1="130.565" y1="94.996" x2="122.974" y2="128.226" stroke="#141414" stroke-width="0.4"/>
<line x1="122.974" y1="128.226" x2="116.278" y2="134.189" stroke="#141414" stroke-width="0.4"/>
<line x1="63.549" y1="101.176" x2="59.178" y2="106.924" stroke="#141414" stroke-width="0.4"/>
<line x1="59.178" y1="106.924" x2="62.757" y2="130.033" stroke="#141414" stroke-width="0.4"/>
<line x1="62.757" y1="130.033" x2="68.663" y2="134.189" stroke="#141414" stroke-width="0.4"/>
<line x1="99.903" y1="160.471" x2="106.773" y2="159.278" stroke="#141414" stroke-width="0.4"/>
<line x1="106.773" y1="159.278" x2="118.236" y2="140.881" stroke="#141414" stroke-width="0.4"/>
<line x1="118.236" y1="140.881" x2="116.278" y2="134.189" stroke="#141414" stroke-width="0.4"/>
<line x1="99.903" y1="160.471" x2="97.846" y2="168.013" stroke="#141414" stroke-width="0.4"/>
<line x1="97.846" y1="168.013" x2="75.011" y2="182.865" stroke="#141414" stroke-width="0.4"/>
<line x1="75.011" y1="182.865" x2="67.283" y2="181.688" stroke="#141414" stroke-width="0.4"/>
<line x1="68.663" y1="134.189" x2="42.072" y2="129.351" stroke="#141414" stroke-width="0.4"/>
<line x1="42.072" y1="129.351" x2="31.969" y2="129.489" stroke="#141414" stroke-width="0.4"/>
<line x1="31.969" y1="129.489" x2="5.52" y2="135.051" stroke="#141414" stroke-width="0.4"/>
<line x1="5.52" y1="135.051" x2="7.048" y2="142.829" stroke="#141414" stroke-width="0.4"/>
<line x1="7.048" y1="142.829" x2="29.083" y2="159.979" stroke="#141414" stroke-width="0.4"/>
<line x1="29.083" y1="159.979" x2="36.998" y2="159.55" stroke="#141414" stroke-width="0.4"/>
<circle cx="121.655" cy="35.306" r="2.23" fill="#ffe082" stroke="#464646" stroke-width="0.2"/>
<text x="121.655" y="36.07" font-size="2.18" text-anchor="middle" fill="#141414">6</text>
<circle cx="124.235" cy="111.032" r="2.23" fill="#ffe082" stroke="#464646" stroke-width="0.2"/>
<text x="124.235" y="111.80" font-size="2.18" text-anchor="middle" fill="#141414">19</text>
<circle cx="63.537" cy="118.08" r="2.23" fill="#ffe082" stroke="#464646" stroke-width="0.2"/>
<text x="63.537" y="118.84" font-size="2.18" text-anchor="middle" fill="#141414">32</text>
<circle cx="110.298" cy="148.705" r="2.23" fill="#ffe082" stroke="#464646" stroke-width="0.2"/>
<text x="110.298" y="149.47" font-size="2.18" text-anchor="middle" fill="#141414">46</text>
<circle cx="85.011" cy="173.259" r="2.23" fill="#ffe082" stroke="#464646" stroke-width="0.2"/>
<text x="85.011" y="174.02" font-size="2.18" text-anchor="middle" fill="#141414">47</text>
<circle cx="37.056" cy="132.02" r="2.23" fill="#ffe082" stroke="#464646" stroke-width="0.2"/>
<text x="37.056" y="132.78" font-size="2.18" text-anchor="middle" fill="#141414">48</text>
<circle cx="19.662" cy="149.352" r="2.23" fill="#ffe082" stroke="#464646" stroke-width="0.2"/>
<text x="19.662" y="150.12" font-size="2.18" text-anchor="middle" fill="#141414">56</text>
<circle cx="37.06" cy="142.93" r="4.60" fill="#eaf1fe" stroke="#2e78e6" stroke-width="0.3"/>
<text x="37.06" y="144.73" font-size="5.20" text-anchor="middle" fill="#14306e" font-weight="bold">9</text>
<polygon points="161.062,39.576 168.505,36.932 182.071,12.729 180.442,5.0" fill="rgb(216,216,216)"/>
<line x1="180.442" y1="5.0" x2="161.062" y2="39.576" stroke="#8c8c8c" stroke-width="0.3" stroke-dasharray="1.2,0.8"/>
<line x1="161.062" y1="39.575" x2="139.595" y2="5.0" stroke="#141414" stroke-width="0.4"/>
<line x1="139.595" y1="5.0" x2="180.442" y2="5.0" stroke="#141414" stroke-width="0.4"/>
<line x1="161.062" y1="39.576" x2="168.505" y2="36.932" stroke="#141414" stroke-width="0.4"/>
<line x1="168.505" y1="36.932" x2="182.071" y2="12.729" stroke="#141414" stroke-width="0.4"/>
<line x1="182.071" y1="12.729" x2="180.442" y2="5.0" stroke="#141414" stroke-width="0.4"/>
<circle cx="173.02" cy="23.559" r="2.23" fill="#ffe082" stroke="#464646" stroke-width="0.2"/>
<text x="173.02" y="24.32" font-size="2.18" text-anchor="middle" fill="#141414">79</text>
<circle cx="160.366" cy="16.525" r="4.60" fill="#eaf1fe" stroke="#2e78e6" stroke-width="0.3"/>
<text x="160.366" y="18.32" font-size="5.20" text-anchor="middle" fill="#14306e" font-weight="bold">10</text>
<polygon points="85.507,218.324 88.514,225.44 79.658,250.591 72.855,254.253" fill="rgb(216,216,216)"/>
<polygon points="25.05,185.865 18.013,190.426 8.158,219.5 10.971,227.399" fill="rgb(216,216,216)"/>
<polygon points="50.538,223.612 49.682,231.27 65.304,252.719 72.855,254.253" fill="rgb(216,216,216)"/>
<line x1="75.605" y1="185.865" x2="85.507" y2="218.323" stroke="#8c8c8c" stroke-width="0.3" stroke-dasharray="1.2,0.8"/>
<line x1="75.605" y1="185.865" x2="50.538" y2="223.612" stroke="#8c8c8c" stroke-width="0.3" stroke-dasharray="1.2,0.8"/>
<line x1="85.507" y1="218.323" x2="50.538" y2="223.612" stroke="#8c8c8c" stroke-width="0.3" stroke-dasharray="1.2,0.8"/>
<line x1="50.538" y1="223.612" x2="25.05" y2="185.865" stroke="#8c8c8c" stroke-width="0.3" stroke-dasharray="1.2,0.8"/>
<line x1="72.855" y1="254.253" x2="85.507" y2="218.324" stroke="#8c8c8c" stroke-width="0.3" stroke-dasharray="1.2,0.8"/>
<line x1="10.971" y1="227.399" x2="25.05" y2="185.865" stroke="#8c8c8c" stroke-width="0.3" stroke-dasharray="1.2,0.8"/>
<line x1="72.855" y1="254.253" x2="50.538" y2="223.612" stroke="#8c8c8c" stroke-width="0.3" stroke-dasharray="1.2,0.8"/>
<line x1="75.605" y1="185.865" x2="103.089" y2="195.895" stroke="#141414" stroke-width="0.4"/>
<line x1="25.05" y1="185.865" x2="75.605" y2="185.865" stroke="#141414" stroke-width="0.4"/>
<line x1="103.089" y1="195.895" x2="85.507" y2="218.323" stroke="#141414" stroke-width="0.4"/>
<line x1="50.538" y1="223.612" x2="10.971" y2="227.399" stroke="#141414" stroke-width="0.4"/>
<line x1="85.507" y1="218.324" x2="88.514" y2="225.44" stroke="#141414" stroke-width="0.4"/>
<line x1="88.514" y1="225.44" x2="79.658" y2="250.591" stroke="#141414" stroke-width="0.4"/>
<line x1="79.658" y1="250.591" x2="72.855" y2="254.253" stroke="#141414" stroke-width="0.4"/>
<line x1="25.05" y1="185.865" x2="18.013" y2="190.426" stroke="#141414" stroke-width="0.4"/>
<line x1="18.013" y1="190.426" x2="8.158" y2="219.5" stroke="#141414" stroke-width="0.4"/>
<line x1="8.158" y1="219.5" x2="10.971" y2="227.399" stroke="#141414" stroke-width="0.4"/>
<line x1="50.538" y1="223.612" x2="49.682" y2="231.27" stroke="#141414" stroke-width="0.4"/>
<line x1="49.682" y1="231.27" x2="65.304" y2="252.719" stroke="#141414" stroke-width="0.4"/>
<line x1="65.304" y1="252.719" x2="72.855" y2="254.253" stroke="#141414" stroke-width="0.4"/>
<circle cx="81.634" cy="237.152" r="2.23" fill="#ffe082" stroke="#464646" stroke-width="0.2"/>
<text x="81.634" y="237.92" font-size="2.18" text-anchor="middle" fill="#141414">8</text>
<circle cx="15.548" cy="205.797" r="2.23" fill="#ffe082" stroke="#464646" stroke-width="0.2"/>
<text x="15.548" y="206.56" font-size="2.18" text-anchor="middle" fill="#141414">9</text>
<circle cx="59.595" cy="240.464" r="2.23" fill="#ffe082" stroke="#464646" stroke-width="0.2"/>
<text x="59.595" y="241.23" font-size="2.18" text-anchor="middle" fill="#141414">14</text>
<circle cx="88.067" cy="200.028" r="4.60" fill="#eaf1fe" stroke="#2e78e6" stroke-width="0.3"/>
<text x="88.067" y="201.83" font-size="5.20" text-anchor="middle" fill="#14306e" font-weight="bold">11</text>
<line x1="124.4" y1="185.865" x2="149.646" y2="185.865" stroke="#141414" stroke-width="0.4"/>
<line x1="102.931" y1="234.036" x2="124.4" y2="185.865" stroke="#141414" stroke-width="0.4"/>
<line x1="149.646" y1="185.865" x2="102.931" y2="234.036" stroke="#141414" stroke-width="0.4"/>
<circle cx="125.659" cy="201.922" r="4.60" fill="#eaf1fe" stroke="#2e78e6" stroke-width="0.3"/>
<text x="125.659" y="203.72" font-size="5.20" text-anchor="middle" fill="#14306e" font-weight="bold">12</text>
<text x="205.0" y="295.0" font-size="3.2" text-anchor="end" fill="#737373" font-family="sans-serif">8 / 12</text>
<g pointer-events="none"><text x="105.0" y="83.2" text-anchor="middle" font-family="sans-serif" font-size="12.4" fill="#9aa0a6" fill-opacity="0.3" transform="rotate(-28 105.0 83.2)">papercraft.kr</text><text x="105.0" y="148.5" text-anchor="middle" font-family="sans-serif" font-size="12.4" fill="#9aa0a6" fill-opacity="0.3" transform="rotate(-28 105.0 148.5)">papercraft.kr</text><text x="105.0" y="213.8" text-anchor="middle" font-family="sans-serif" font-size="12.4" fill="#9aa0a6" fill-opacity="0.3" transform="rotate(-28 105.0 213.8)">papercraft.kr</text></g></svg>
