<svg xmlns="http://www.w3.org/2000/svg" xmlns:xlink="http://www.w3.org/1999/xlink" width="210.00mm" height="297.00mm" viewBox="0 0 210.00 297.00">
<rect x="0" y="0" width="210.00" height="297.00" fill="#ffffff" stroke="#cccccc" stroke-width="0.2"/>
<polygon points="23.77,226.63 22.063,232.32 14.097,232.32 12.39,226.63" fill="rgb(216,216,216)"/>
<polygon points="12.39,226.63 5.39,208.466 5.39,123.701 12.39,105.538" fill="rgb(216,216,216)"/>
<polygon points="23.77,105.538 37.742,98.538 102.946,98.538 116.918,105.538" fill="rgb(216,216,216)"/>
<polygon points="116.918,226.63 123.918,208.466 123.918,123.701 116.918,105.538" fill="rgb(216,216,216)"/>
<polygon points="23.77,12.39 22.063,6.7 14.097,6.7 12.39,12.39" fill="rgb(216,216,216)"/>
<polygon points="23.77,105.538 37.742,98.538 102.946,98.538 116.918,105.538" fill="#99d9fa"/>
<line x1="23.77" y1="105.538" x2="23.77" y2="226.63" stroke="#8c8c8c" stroke-width="0.3" stroke-dasharray="1.2,0.8"/>
<line x1="12.39" y1="105.538" x2="23.77" y2="105.538" stroke="#8c8c8c" stroke-width="0.3" stroke-dasharray="1.2,0.8"/>
<line x1="12.39" y1="226.63" x2="23.77" y2="226.63" stroke="#8c8c8c" stroke-width="0.3" stroke-dasharray="1.2,0.8"/>
<line x1="12.39" y1="105.538" x2="12.39" y2="226.63" stroke="#8c8c8c" stroke-width="0.3" stroke-dasharray="1.2,0.8"/>
<line x1="116.918" y1="105.538" x2="23.77" y2="105.538" stroke="#8c8c8c" stroke-width="0.3" stroke-dasharray="1.2,0.8"/>
<line x1="116.918" y1="105.538" x2="116.918" y2="226.63" stroke="#8c8c8c" stroke-width="0.3" stroke-dasharray="1.2,0.8"/>
<line x1="12.39" y1="12.39" x2="23.77" y2="12.39" stroke="#8c8c8c" stroke-width="0.3" stroke-dasharray="1.2,0.8"/>
<line x1="116.918" y1="226.63" x2="23.77" y2="226.63" stroke="#141414" stroke-width="0.4"/>
<line x1="23.77" y1="12.39" x2="23.77" y2="105.538" stroke="#141414" stroke-width="0.4"/>
<line x1="12.39" y1="105.538" x2="12.39" y2="12.39" stroke="#141414" stroke-width="0.4"/>
<line x1="23.77" y1="226.63" x2="22.063" y2="232.32" stroke="#141414" stroke-width="0.4"/>
<line x1="22.063" y1="232.32" x2="14.097" y2="232.32" stroke="#141414" stroke-width="0.4"/>
<line x1="14.097" y1="232.32" x2="12.39" y2="226.63" stroke="#141414" stroke-width="0.4"/>
<line x1="12.39" y1="226.63" x2="5.39" y2="208.466" stroke="#141414" stroke-width="0.4"/>
<line x1="5.39" y1="208.466" x2="5.39" y2="123.701" stroke="#141414" stroke-width="0.4"/>
<line x1="5.39" y1="123.701" x2="12.39" y2="105.538" stroke="#141414" stroke-width="0.4"/>
<line x1="23.77" y1="105.538" x2="37.742" y2="98.538" stroke="#141414" stroke-width="0.4"/>
<line x1="37.742" y1="98.538" x2="102.946" y2="98.538" stroke="#141414" stroke-width="0.4"/>
<line x1="102.946" y1="98.538" x2="116.918" y2="105.538" stroke="#141414" stroke-width="0.4"/>
<line x1="116.918" y1="226.63" x2="123.918" y2="208.466" stroke="#141414" stroke-width="0.4"/>
<line x1="123.918" y1="208.466" x2="123.918" y2="123.701" stroke="#141414" stroke-width="0.4"/>
<line x1="123.918" y1="123.701" x2="116.918" y2="105.538" stroke="#141414" stroke-width="0.4"/>
<line x1="23.77" y1="12.39" x2="22.063" y2="6.7" stroke="#141414" stroke-width="0.4"/>
<line x1="22.063" y1="6.7" x2="14.097" y2="6.7" stroke="#141414" stroke-width="0.4"/>
<line x1="14.097" y1="6.7" x2="12.39" y2="12.39" stroke="#141414" stroke-width="0.4"/>
<circle cx="18.08" cy="229.475" r="2.05" fill="#ffe082" stroke="#464646" stroke-width="0.2"/>
<text x="18.08" y="230.45" font-size="2.78" text-anchor="middle" fill="#141414">35</text>
<circle cx="8.89" cy="166.084" r="2.05" fill="#ffe082" stroke="#464646" stroke-width="0.2"/>
<text x="8.89" y="167.06" font-size="2.78" text-anchor="middle" fill="#141414">36</text>
<circle cx="70.344" cy="102.038" r="2.05" fill="#99d9fa" stroke="#464646" stroke-width="0.2"/>
<text x="70.344" y="103.01" font-size="2.78" text-anchor="middle" fill="#141414">37</text>
<circle cx="120.418" cy="166.084" r="2.05" fill="#ffe082" stroke="#464646" stroke-width="0.2"/>
<text x="120.418" y="167.06" font-size="2.78" text-anchor="middle" fill="#141414">38</text>
<circle cx="18.08" cy="9.545" r="2.05" fill="#ffe082" stroke="#464646" stroke-width="0.2"/>
<text x="18.08" y="10.52" font-size="2.78" text-anchor="middle" fill="#141414">39</text>
<circle cx="54.819" cy="186.266" r="4.60" fill="#eaf1fe" stroke="#2e78e6" stroke-width="0.3"/>
<text x="54.819" y="188.07" font-size="5.20" text-anchor="middle" fill="#14306e" font-weight="bold">5</text>
<text x="205.0" y="295.0" font-size="3.2" text-anchor="end" fill="#737373" font-family="sans-serif">4 / 6</text>
<g pointer-events="none"><text x="105.0" y="83.2" text-anchor="middle" font-family="sans-serif" font-size="12.4" fill="#9aa0a6" fill-opacity="0.3" transform="rotate(-28 105.0 83.2)">papercraft.kr</text><text x="105.0" y="148.5" text-anchor="middle" font-family="sans-serif" font-size="12.4" fill="#9aa0a6" fill-opacity="0.3" transform="rotate(-28 105.0 148.5)">papercraft.kr</text><text x="105.0" y="213.8" text-anchor="middle" font-family="sans-serif" font-size="12.4" fill="#9aa0a6" fill-opacity="0.3" transform="rotate(-28 105.0 213.8)">papercraft.kr</text></g></svg>
