<svg xmlns="http://www.w3.org/2000/svg" xmlns:xlink="http://www.w3.org/1999/xlink" width="210.00mm" height="297.00mm" viewBox="0 0 210.00 297.00">
<rect x="0" y="0" width="210.00" height="297.00" fill="#ffffff" stroke="#cccccc" stroke-width="0.2"/>
<polygon points="131.63,38.779 136.9,35.213 137.232,18.1 132.104,14.332" fill="rgb(216,216,216)"/>
<polygon points="35.472,14.332 49.967,9.132 117.609,9.132 132.104,14.332" fill="rgb(216,216,216)"/>
<line x1="33.686" y1="46.075" x2="35.472" y2="14.332" stroke="#8c8c8c" stroke-width="0.3" stroke-dasharray="1.2,0.8"/>
<line x1="131.629" y1="38.779" x2="35.472" y2="14.332" stroke="#8c8c8c" stroke-width="0.3" stroke-dasharray="1.2,0.8"/>
<line x1="132.104" y1="14.332" x2="131.63" y2="38.779" stroke="#8c8c8c" stroke-width="0.3" stroke-dasharray="1.2,0.8"/>
<line x1="132.104" y1="14.332" x2="35.472" y2="14.332" stroke="#8c8c8c" stroke-width="0.3" stroke-dasharray="1.2,0.8"/>
<line x1="131.629" y1="38.779" x2="33.686" y2="46.075" stroke="#141414" stroke-width="0.4"/>
<line x1="33.686" y1="46.075" x2="5.0" y2="34.985" stroke="#141414" stroke-width="0.4"/>
<line x1="5.0" y1="34.985" x2="35.472" y2="14.332" stroke="#141414" stroke-width="0.4"/>
<line x1="131.63" y1="38.779" x2="136.9" y2="35.213" stroke="#141414" stroke-width="0.4"/>
<line x1="136.9" y1="35.213" x2="137.232" y2="18.1" stroke="#141414" stroke-width="0.4"/>
<line x1="137.232" y1="18.1" x2="132.104" y2="14.332" stroke="#141414" stroke-width="0.4"/>
<line x1="35.472" y1="14.332" x2="49.967" y2="9.132" stroke="#141414" stroke-width="0.4"/>
<line x1="49.967" y1="9.132" x2="117.609" y2="9.132" stroke="#141414" stroke-width="0.4"/>
<line x1="117.609" y1="9.132" x2="132.104" y2="14.332" stroke="#141414" stroke-width="0.4"/>
<circle cx="134.466" cy="26.606" r="2.29" fill="#ffe082" stroke="#464646" stroke-width="0.2"/>
<text x="134.466" y="27.69" font-size="3.11" text-anchor="middle" fill="#141414">41</text>
<circle cx="83.788" cy="11.732" r="2.29" fill="#ffe082" stroke="#464646" stroke-width="0.2"/>
<text x="83.788" y="12.82" font-size="3.11" text-anchor="middle" fill="#141414">43</text>
<circle cx="24.719" cy="31.797" r="4.60" fill="#eaf1fe" stroke="#2e78e6" stroke-width="0.3"/>
<text x="24.719" y="33.60" font-size="5.20" text-anchor="middle" fill="#14306e" font-weight="bold">14</text>
<polygon points="34.35,279.18 39.319,267.49 38.247,213.413 32.818,201.929" fill="rgb(216,216,216)"/>
<polygon points="34.35,279.18 25.791,269.665 8.93,217.763 10.262,205.034" fill="rgb(216,216,216)"/>
<polygon points="60.08,211.676 67.982,212.909 92.114,198.013 94.554,190.397" fill="rgb(216,216,216)"/>
<polygon points="10.262,205.034 9.504,184.065 29.679,91.369 39.083,72.611" fill="rgb(216,216,216)"/>
<polygon points="94.554,190.397 99.541,174.223 98.552,99.065 93.141,83.029" fill="rgb(216,216,216)"/>
<polygon points="93.141,83.029 99.625,82.413 109.214,66.826 106.84,60.761" fill="rgb(216,216,216)"/>
<polygon points="73.909,52.825 80.067,48.96 103.119,54.515 106.84,60.761" fill="rgb(216,216,216)"/>
<line x1="32.818" y1="201.929" x2="60.08" y2="81.855" stroke="#8c8c8c" stroke-width="0.3" stroke-dasharray="1.2,0.8"/>
<line x1="60.08" y1="211.676" x2="60.08" y2="81.855" stroke="#8c8c8c" stroke-width="0.3" stroke-dasharray="1.2,0.8"/>
<line x1="93.141" y1="83.029" x2="60.08" y2="211.676" stroke="#8c8c8c" stroke-width="0.3" stroke-dasharray="1.2,0.8"/>
<line x1="73.909" y1="52.825" x2="93.141" y2="83.029" stroke="#8c8c8c" stroke-width="0.3" stroke-dasharray="1.2,0.8"/>
<line x1="10.262" y1="205.034" x2="32.818" y2="201.929" stroke="#8c8c8c" stroke-width="0.3" stroke-dasharray="1.2,0.8"/>
<line x1="60.08" y1="81.855" x2="10.262" y2="205.034" stroke="#8c8c8c" stroke-width="0.3" stroke-dasharray="1.2,0.8"/>
<line x1="60.08" y1="81.855" x2="93.141" y2="83.029" stroke="#8c8c8c" stroke-width="0.3" stroke-dasharray="1.2,0.8"/>
<line x1="32.818" y1="201.929" x2="34.35" y2="279.18" stroke="#8c8c8c" stroke-width="0.3" stroke-dasharray="1.2,0.8"/>
<line x1="10.262" y1="205.034" x2="34.35" y2="279.18" stroke="#8c8c8c" stroke-width="0.3" stroke-dasharray="1.2,0.8"/>
<line x1="94.554" y1="190.397" x2="60.08" y2="211.676" stroke="#8c8c8c" stroke-width="0.3" stroke-dasharray="1.2,0.8"/>
<line x1="39.083" y1="72.611" x2="10.262" y2="205.034" stroke="#8c8c8c" stroke-width="0.3" stroke-dasharray="1.2,0.8"/>
<line x1="93.141" y1="83.029" x2="94.554" y2="190.397" stroke="#8c8c8c" stroke-width="0.3" stroke-dasharray="1.2,0.8"/>
<line x1="106.84" y1="60.761" x2="93.141" y2="83.029" stroke="#8c8c8c" stroke-width="0.3" stroke-dasharray="1.2,0.8"/>
<line x1="106.84" y1="60.761" x2="73.909" y2="52.825" stroke="#8c8c8c" stroke-width="0.3" stroke-dasharray="1.2,0.8"/>
<line x1="60.08" y1="211.676" x2="32.818" y2="201.929" stroke="#141414" stroke-width="0.4"/>
<line x1="39.083" y1="72.611" x2="60.08" y2="81.855" stroke="#141414" stroke-width="0.4"/>
<line x1="60.08" y1="81.855" x2="73.909" y2="52.825" stroke="#141414" stroke-width="0.4"/>
<line x1="34.35" y1="279.18" x2="39.319" y2="267.49" stroke="#141414" stroke-width="0.4"/>
<line x1="39.319" y1="267.49" x2="38.247" y2="213.413" stroke="#141414" stroke-width="0.4"/>
<line x1="38.247" y1="213.413" x2="32.818" y2="201.929" stroke="#141414" stroke-width="0.4"/>
<line x1="34.35" y1="279.18" x2="25.791" y2="269.665" stroke="#141414" stroke-width="0.4"/>
<line x1="25.791" y1="269.665" x2="8.93" y2="217.763" stroke="#141414" stroke-width="0.4"/>
<line x1="8.93" y1="217.763" x2="10.262" y2="205.034" stroke="#141414" stroke-width="0.4"/>
<line x1="60.08" y1="211.676" x2="67.982" y2="212.909" stroke="#141414" stroke-width="0.4"/>
<line x1="67.982" y1="212.909" x2="92.114" y2="198.013" stroke="#141414" stroke-width="0.4"/>
<line x1="92.114" y1="198.013" x2="94.554" y2="190.397" stroke="#141414" stroke-width="0.4"/>
<line x1="10.262" y1="205.034" x2="9.504" y2="184.065" stroke="#141414" stroke-width="0.4"/>
<line x1="9.504" y1="184.065" x2="29.679" y2="91.369" stroke="#141414" stroke-width="0.4"/>
<line x1="29.679" y1="91.369" x2="39.083" y2="72.611" stroke="#141414" stroke-width="0.4"/>
<line x1="94.554" y1="190.397" x2="99.541" y2="174.223" stroke="#141414" stroke-width="0.4"/>
<line x1="99.541" y1="174.223" x2="98.552" y2="99.065" stroke="#141414" stroke-width="0.4"/>
<line x1="98.552" y1="99.065" x2="93.141" y2="83.029" stroke="#141414" stroke-width="0.4"/>
<line x1="93.141" y1="83.029" x2="99.625" y2="82.413" stroke="#141414" stroke-width="0.4"/>
<line x1="99.625" y1="82.413" x2="109.214" y2="66.826" stroke="#141414" stroke-width="0.4"/>
<line x1="109.214" y1="66.826" x2="106.84" y2="60.761" stroke="#141414" stroke-width="0.4"/>
<line x1="73.909" y1="52.825" x2="80.067" y2="48.96" stroke="#141414" stroke-width="0.4"/>
<line x1="80.067" y1="48.96" x2="103.119" y2="54.515" stroke="#141414" stroke-width="0.4"/>
<line x1="103.119" y1="54.515" x2="106.84" y2="60.761" stroke="#141414" stroke-width="0.4"/>
<circle cx="36.184" cy="240.503" r="2.29" fill="#ffe082" stroke="#464646" stroke-width="0.2"/>
<text x="36.184" y="241.59" font-size="3.11" text-anchor="middle" fill="#141414">18</text>
<circle cx="19.833" cy="242.911" r="2.29" fill="#ffe082" stroke="#464646" stroke-width="0.2"/>
<text x="19.833" y="244.00" font-size="3.11" text-anchor="middle" fill="#141414">19</text>
<circle cx="78.682" cy="203.249" r="2.29" fill="#ffe082" stroke="#464646" stroke-width="0.2"/>
<text x="78.682" y="204.34" font-size="3.11" text-anchor="middle" fill="#141414">44</text>
<circle cx="22.132" cy="138.27" r="2.29" fill="#ffe082" stroke="#464646" stroke-width="0.2"/>
<text x="22.132" y="139.36" font-size="3.11" text-anchor="middle" fill="#141414">45</text>
<circle cx="96.447" cy="136.678" r="2.29" fill="#ffe082" stroke="#464646" stroke-width="0.2"/>
<text x="96.447" y="137.76" font-size="3.11" text-anchor="middle" fill="#141414">56</text>
<circle cx="102.205" cy="73.257" r="2.29" fill="#ffe082" stroke="#464646" stroke-width="0.2"/>
<text x="102.205" y="74.34" font-size="3.11" text-anchor="middle" fill="#141414">59</text>
<circle cx="90.984" cy="54.265" r="2.29" fill="#ffe082" stroke="#464646" stroke-width="0.2"/>
<text x="90.984" y="55.35" font-size="3.11" text-anchor="middle" fill="#141414">61</text>
<circle cx="75.71" cy="72.57" r="4.60" fill="#eaf1fe" stroke="#2e78e6" stroke-width="0.3"/>
<text x="75.71" y="74.37" font-size="5.20" text-anchor="middle" fill="#14306e" font-weight="bold">15</text>
<polygon points="151.36,177.176 156.699,181.412 176.856,177.381 180.155,171.418" fill="rgb(216,216,216)"/>
<line x1="175.505" y1="145.69" x2="108.285" y2="44.944" stroke="#8c8c8c" stroke-width="0.3" stroke-dasharray="1.2,0.8"/>
<line x1="175.505" y1="145.69" x2="151.36" y2="177.176" stroke="#8c8c8c" stroke-width="0.3" stroke-dasharray="1.2,0.8"/>
<line x1="180.155" y1="171.418" x2="151.36" y2="177.176" stroke="#8c8c8c" stroke-width="0.3" stroke-dasharray="1.2,0.8"/>
<line x1="108.285" y1="44.944" x2="138.357" y2="44.944" stroke="#141414" stroke-width="0.4"/>
<line x1="151.36" y1="177.176" x2="108.285" y2="44.944" stroke="#141414" stroke-width="0.4"/>
<line x1="138.357" y1="44.944" x2="175.505" y2="145.69" stroke="#141414" stroke-width="0.4"/>
<line x1="175.505" y1="145.69" x2="180.155" y2="171.418" stroke="#141414" stroke-width="0.4"/>
<line x1="151.36" y1="177.176" x2="156.699" y2="181.412" stroke="#141414" stroke-width="0.4"/>
<line x1="156.699" y1="181.412" x2="176.856" y2="177.381" stroke="#141414" stroke-width="0.4"/>
<line x1="176.856" y1="177.381" x2="180.155" y2="171.418" stroke="#141414" stroke-width="0.4"/>
<circle cx="166.267" cy="176.847" r="2.29" fill="#ffe082" stroke="#464646" stroke-width="0.2"/>
<text x="166.267" y="177.93" font-size="3.11" text-anchor="middle" fill="#141414">60</text>
<circle cx="169.007" cy="164.762" r="4.60" fill="#eaf1fe" stroke="#2e78e6" stroke-width="0.3"/>
<text x="169.007" y="166.56" font-size="5.20" text-anchor="middle" fill="#14306e" font-weight="bold">16</text>
<text x="205.0" y="295.0" font-size="3.2" text-anchor="end" fill="#737373" font-family="sans-serif">7 / 7</text>
<g pointer-events="none"><text x="105.0" y="83.2" text-anchor="middle" font-family="sans-serif" font-size="12.4" fill="#9aa0a6" fill-opacity="0.3" transform="rotate(-28 105.0 83.2)">papercraft.kr</text><text x="105.0" y="148.5" text-anchor="middle" font-family="sans-serif" font-size="12.4" fill="#9aa0a6" fill-opacity="0.3" transform="rotate(-28 105.0 148.5)">papercraft.kr</text><text x="105.0" y="213.8" text-anchor="middle" font-family="sans-serif" font-size="12.4" fill="#9aa0a6" fill-opacity="0.3" transform="rotate(-28 105.0 213.8)">papercraft.kr</text></g></svg>
