<svg xmlns="http://www.w3.org/2000/svg" xmlns:xlink="http://www.w3.org/1999/xlink" width="210.00mm" height="297.00mm" viewBox="0 0 210.00 297.00">
<rect x="0" y="0" width="210.00" height="297.00" fill="#ffffff" stroke="#cccccc" stroke-width="0.2"/>
<polygon points="78.67,125.694 68.235,125.152 60.924,117.834 60.393,107.398" fill="rgb(216,216,216)"/>
<polygon points="78.67,151.556 74.846,158.644 84.698,174.405 92.745,174.072" fill="rgb(216,216,216)"/>
<polygon points="92.745,174.072 89.668,181.562 101.227,196.629 109.258,195.597" fill="rgb(216,216,216)"/>
<polygon points="109.258,195.597 106.853,203.283 119.525,216.881 127.362,215.023" fill="rgb(216,216,216)"/>
<polygon points="127.362,215.023 129.296,222.788 146.781,227.477 152.341,221.72" fill="rgb(216,216,216)"/>
<polygon points="152.341,221.72 159.341,217.841 159.341,199.738 152.341,195.859" fill="rgb(216,216,216)"/>
<polygon points="190.5,79.407 188.566,71.641 171.081,66.952 165.521,72.709" fill="rgb(216,216,216)"/>
<polygon points="62.924,5.692 54.923,5.549 45.866,21.224 49.986,28.085" fill="rgb(216,216,216)"/>
<polygon points="103.65,132.392 111.486,130.533 124.159,144.131 121.753,151.818" fill="rgb(216,216,216)"/>
<polygon points="121.753,151.818 129.784,150.786 141.343,165.853 138.266,173.342" fill="rgb(216,216,216)"/>
<polygon points="138.266,173.342 146.313,173.009 156.166,188.771 152.341,195.859" fill="rgb(216,216,216)"/>
<polygon points="91.609,103.302 91.844,95.251 108.259,86.533 115.06,90.847" fill="rgb(216,216,216)"/>
<polygon points="115.06,90.847 116.143,82.823 133.69,75.56 140.127,80.472" fill="rgb(216,216,216)"/>
<polygon points="140.127,80.472 141.89,72.613 159.665,67.179 165.521,72.709" fill="rgb(216,216,216)"/>
<polygon points="60.393,107.398 52.678,105.086 48.508,86.972 54.437,81.521" fill="rgb(216,216,216)"/>
<polygon points="54.437,81.521 46.967,78.397 44.496,59.568 50.907,54.622" fill="rgb(216,216,216)"/>
<polygon points="50.907,54.622 43.773,50.884 43.128,32.308 49.986,28.085" fill="rgb(216,216,216)"/>
<polygon points="54.437,81.521 46.967,78.397 44.496,59.568 50.907,54.622" fill="#99d9fa"/>
<line x1="78.67" y1="151.556" x2="78.67" y2="125.694" stroke="#8c8c8c" stroke-width="0.3" stroke-dasharray="1.2,0.8"/>
<line x1="78.67" y1="125.694" x2="103.65" y2="132.392" stroke="#8c8c8c" stroke-width="0.3" stroke-dasharray="1.2,0.8"/>
<line x1="78.67" y1="125.694" x2="91.609" y2="103.302" stroke="#8c8c8c" stroke-width="0.3" stroke-dasharray="1.2,0.8"/>
<line x1="103.65" y1="132.392" x2="78.67" y2="151.556" stroke="#8c8c8c" stroke-width="0.3" stroke-dasharray="1.2,0.8"/>
<line x1="78.67" y1="151.556" x2="53.691" y2="132.392" stroke="#8c8c8c" stroke-width="0.3" stroke-dasharray="1.2,0.8"/>
<line x1="121.753" y1="151.818" x2="92.745" y2="174.072" stroke="#8c8c8c" stroke-width="0.3" stroke-dasharray="1.2,0.8"/>
<line x1="64.596" y1="174.072" x2="35.588" y2="151.818" stroke="#8c8c8c" stroke-width="0.3" stroke-dasharray="1.2,0.8"/>
<line x1="138.266" y1="173.342" x2="109.258" y2="195.597" stroke="#8c8c8c" stroke-width="0.3" stroke-dasharray="1.2,0.8"/>
<line x1="48.083" y1="195.597" x2="19.075" y2="173.342" stroke="#8c8c8c" stroke-width="0.3" stroke-dasharray="1.2,0.8"/>
<line x1="152.341" y1="195.859" x2="127.362" y2="215.023" stroke="#8c8c8c" stroke-width="0.3" stroke-dasharray="1.2,0.8"/>
<line x1="29.979" y1="215.023" x2="5.0" y2="195.859" stroke="#8c8c8c" stroke-width="0.3" stroke-dasharray="1.2,0.8"/>
<line x1="91.609" y1="103.302" x2="103.65" y2="132.392" stroke="#8c8c8c" stroke-width="0.3" stroke-dasharray="1.2,0.8"/>
<line x1="115.061" y1="90.847" x2="129.043" y2="124.629" stroke="#8c8c8c" stroke-width="0.3" stroke-dasharray="1.2,0.8"/>
<line x1="140.127" y1="80.472" x2="154.11" y2="114.254" stroke="#8c8c8c" stroke-width="0.3" stroke-dasharray="1.2,0.8"/>
<line x1="165.521" y1="72.709" x2="177.561" y2="101.799" stroke="#8c8c8c" stroke-width="0.3" stroke-dasharray="1.2,0.8"/>
<line x1="60.393" y1="107.398" x2="91.609" y2="103.302" stroke="#8c8c8c" stroke-width="0.3" stroke-dasharray="1.2,0.8"/>
<line x1="54.437" y1="81.521" x2="90.688" y2="76.764" stroke="#8c8c8c" stroke-width="0.3" stroke-dasharray="1.2,0.8"/>
<line x1="50.907" y1="54.622" x2="87.158" y2="49.865" stroke="#8c8c8c" stroke-width="0.3" stroke-dasharray="1.2,0.8"/>
<line x1="49.986" y1="28.085" x2="81.202" y2="23.989" stroke="#8c8c8c" stroke-width="0.3" stroke-dasharray="1.2,0.8"/>
<line x1="60.393" y1="107.398" x2="78.67" y2="125.694" stroke="#8c8c8c" stroke-width="0.3" stroke-dasharray="1.2,0.8"/>
<line x1="92.745" y1="174.072" x2="78.67" y2="151.556" stroke="#8c8c8c" stroke-width="0.3" stroke-dasharray="1.2,0.8"/>
<line x1="109.258" y1="195.597" x2="92.745" y2="174.072" stroke="#8c8c8c" stroke-width="0.3" stroke-dasharray="1.2,0.8"/>
<line x1="127.362" y1="215.023" x2="109.258" y2="195.597" stroke="#8c8c8c" stroke-width="0.3" stroke-dasharray="1.2,0.8"/>
<line x1="152.341" y1="221.72" x2="127.362" y2="215.023" stroke="#8c8c8c" stroke-width="0.3" stroke-dasharray="1.2,0.8"/>
<line x1="152.341" y1="195.859" x2="152.341" y2="221.72" stroke="#8c8c8c" stroke-width="0.3" stroke-dasharray="1.2,0.8"/>
<line x1="165.521" y1="72.709" x2="190.5" y2="79.407" stroke="#8c8c8c" stroke-width="0.3" stroke-dasharray="1.2,0.8"/>
<line x1="49.986" y1="28.085" x2="62.924" y2="5.692" stroke="#8c8c8c" stroke-width="0.3" stroke-dasharray="1.2,0.8"/>
<line x1="121.753" y1="151.818" x2="103.65" y2="132.392" stroke="#8c8c8c" stroke-width="0.3" stroke-dasharray="1.2,0.8"/>
<line x1="138.266" y1="173.342" x2="121.753" y2="151.818" stroke="#8c8c8c" stroke-width="0.3" stroke-dasharray="1.2,0.8"/>
<line x1="152.341" y1="195.859" x2="138.266" y2="173.342" stroke="#8c8c8c" stroke-width="0.3" stroke-dasharray="1.2,0.8"/>
<line x1="115.06" y1="90.847" x2="91.609" y2="103.302" stroke="#8c8c8c" stroke-width="0.3" stroke-dasharray="1.2,0.8"/>
<line x1="140.127" y1="80.472" x2="115.06" y2="90.847" stroke="#8c8c8c" stroke-width="0.3" stroke-dasharray="1.2,0.8"/>
<line x1="165.521" y1="72.709" x2="140.127" y2="80.472" stroke="#8c8c8c" stroke-width="0.3" stroke-dasharray="1.2,0.8"/>
<line x1="54.437" y1="81.521" x2="60.393" y2="107.398" stroke="#8c8c8c" stroke-width="0.3" stroke-dasharray="1.2,0.8"/>
<line x1="50.907" y1="54.622" x2="54.437" y2="81.521" stroke="#8c8c8c" stroke-width="0.3" stroke-dasharray="1.2,0.8"/>
<line x1="49.986" y1="28.085" x2="50.907" y2="54.622" stroke="#8c8c8c" stroke-width="0.3" stroke-dasharray="1.2,0.8"/>
<line x1="53.691" y1="132.392" x2="78.67" y2="125.694" stroke="#141414" stroke-width="0.4"/>
<line x1="78.67" y1="151.556" x2="64.596" y2="174.072" stroke="#141414" stroke-width="0.4"/>
<line x1="64.596" y1="174.072" x2="48.083" y2="195.597" stroke="#141414" stroke-width="0.4"/>
<line x1="48.083" y1="195.597" x2="29.979" y2="215.023" stroke="#141414" stroke-width="0.4"/>
<line x1="29.979" y1="215.023" x2="5.0" y2="221.72" stroke="#141414" stroke-width="0.4"/>
<line x1="190.5" y1="79.407" x2="177.561" y2="101.799" stroke="#141414" stroke-width="0.4"/>
<line x1="62.924" y1="5.692" x2="81.202" y2="23.989" stroke="#141414" stroke-width="0.4"/>
<line x1="5.0" y1="221.72" x2="5.0" y2="195.859" stroke="#141414" stroke-width="0.4"/>
<line x1="129.043" y1="124.629" x2="103.65" y2="132.392" stroke="#141414" stroke-width="0.4"/>
<line x1="154.11" y1="114.254" x2="129.043" y2="124.629" stroke="#141414" stroke-width="0.4"/>
<line x1="177.561" y1="101.799" x2="154.11" y2="114.254" stroke="#141414" stroke-width="0.4"/>
<line x1="90.688" y1="76.764" x2="91.609" y2="103.302" stroke="#141414" stroke-width="0.4"/>
<line x1="87.158" y1="49.865" x2="90.688" y2="76.764" stroke="#141414" stroke-width="0.4"/>
<line x1="81.202" y1="23.989" x2="87.158" y2="49.865" stroke="#141414" stroke-width="0.4"/>
<line x1="35.588" y1="151.818" x2="53.691" y2="132.392" stroke="#141414" stroke-width="0.4"/>
<line x1="19.075" y1="173.342" x2="35.588" y2="151.818" stroke="#141414" stroke-width="0.4"/>
<line x1="5.0" y1="195.859" x2="19.075" y2="173.342" stroke="#141414" stroke-width="0.4"/>
<line x1="78.67" y1="125.694" x2="68.235" y2="125.152" stroke="#141414" stroke-width="0.4"/>
<line x1="68.235" y1="125.152" x2="60.924" y2="117.834" stroke="#141414" stroke-width="0.4"/>
<line x1="60.924" y1="117.834" x2="60.393" y2="107.398" stroke="#141414" stroke-width="0.4"/>
<line x1="78.67" y1="151.556" x2="74.846" y2="158.644" stroke="#141414" stroke-width="0.4"/>
<line x1="74.846" y1="158.644" x2="84.698" y2="174.405" stroke="#141414" stroke-width="0.4"/>
<line x1="84.698" y1="174.405" x2="92.745" y2="174.072" stroke="#141414" stroke-width="0.4"/>
<line x1="92.745" y1="174.072" x2="89.668" y2="181.562" stroke="#141414" stroke-width="0.4"/>
<line x1="89.668" y1="181.562" x2="101.227" y2="196.629" stroke="#141414" stroke-width="0.4"/>
<line x1="101.227" y1="196.629" x2="109.258" y2="195.597" stroke="#141414" stroke-width="0.4"/>
<line x1="109.258" y1="195.597" x2="106.853" y2="203.283" stroke="#141414" stroke-width="0.4"/>
<line x1="106.853" y1="203.283" x2="119.525" y2="216.881" stroke="#141414" stroke-width="0.4"/>
<line x1="119.525" y1="216.881" x2="127.362" y2="215.023" stroke="#141414" stroke-width="0.4"/>
<line x1="127.362" y1="215.023" x2="129.296" y2="222.788" stroke="#141414" stroke-width="0.4"/>
<line x1="129.296" y1="222.788" x2="146.781" y2="227.477" stroke="#141414" stroke-width="0.4"/>
<line x1="146.781" y1="227.477" x2="152.341" y2="221.72" stroke="#141414" stroke-width="0.4"/>
<line x1="152.341" y1="221.72" x2="159.341" y2="217.841" stroke="#141414" stroke-width="0.4"/>
<line x1="159.341" y1="217.841" x2="159.341" y2="199.738" stroke="#141414" stroke-width="0.4"/>
<line x1="159.341" y1="199.738" x2="152.341" y2="195.859" stroke="#141414" stroke-width="0.4"/>
<line x1="190.5" y1="79.407" x2="188.566" y2="71.641" stroke="#141414" stroke-width="0.4"/>
<line x1="188.566" y1="71.641" x2="171.081" y2="66.952" stroke="#141414" stroke-width="0.4"/>
<line x1="171.081" y1="66.952" x2="165.521" y2="72.709" stroke="#141414" stroke-width="0.4"/>
<line x1="62.924" y1="5.692" x2="54.923" y2="5.549" stroke="#141414" stroke-width="0.4"/>
<line x1="54.923" y1="5.549" x2="45.866" y2="21.224" stroke="#141414" stroke-width="0.4"/>
<line x1="45.866" y1="21.224" x2="49.986" y2="28.085" stroke="#141414" stroke-width="0.4"/>
<line x1="103.65" y1="132.392" x2="111.486" y2="130.533" stroke="#141414" stroke-width="0.4"/>
<line x1="111.486" y1="130.533" x2="124.159" y2="144.131" stroke="#141414" stroke-width="0.4"/>
<line x1="124.159" y1="144.131" x2="121.753" y2="151.818" stroke="#141414" stroke-width="0.4"/>
<line x1="121.753" y1="151.818" x2="129.784" y2="150.786" stroke="#141414" stroke-width="0.4"/>
<line x1="129.784" y1="150.786" x2="141.343" y2="165.853" stroke="#141414" stroke-width="0.4"/>
<line x1="141.343" y1="165.853" x2="138.266" y2="173.342" stroke="#141414" stroke-width="0.4"/>
<line x1="138.266" y1="173.342" x2="146.313" y2="173.009" stroke="#141414" stroke-width="0.4"/>
<line x1="146.313" y1="173.009" x2="156.166" y2="188.771" stroke="#141414" stroke-width="0.4"/>
<line x1="156.166" y1="188.771" x2="152.341" y2="195.859" stroke="#141414" stroke-width="0.4"/>
<line x1="91.609" y1="103.302" x2="91.844" y2="95.251" stroke="#141414" stroke-width="0.4"/>
<line x1="91.844" y1="95.251" x2="108.259" y2="86.533" stroke="#141414" stroke-width="0.4"/>
<line x1="108.259" y1="86.533" x2="115.06" y2="90.847" stroke="#141414" stroke-width="0.4"/>
<line x1="115.06" y1="90.847" x2="116.143" y2="82.823" stroke="#141414" stroke-width="0.4"/>
<line x1="116.143" y1="82.823" x2="133.69" y2="75.56" stroke="#141414" stroke-width="0.4"/>
<line x1="133.69" y1="75.56" x2="140.127" y2="80.472" stroke="#141414" stroke-width="0.4"/>
<line x1="140.127" y1="80.472" x2="141.89" y2="72.613" stroke="#141414" stroke-width="0.4"/>
<line x1="141.89" y1="72.613" x2="159.665" y2="67.179" stroke="#141414" stroke-width="0.4"/>
<line x1="159.665" y1="67.179" x2="165.521" y2="72.709" stroke="#141414" stroke-width="0.4"/>
<line x1="60.393" y1="107.398" x2="52.678" y2="105.086" stroke="#141414" stroke-width="0.4"/>
<line x1="52.678" y1="105.086" x2="48.508" y2="86.972" stroke="#141414" stroke-width="0.4"/>
<line x1="48.508" y1="86.972" x2="54.437" y2="81.521" stroke="#141414" stroke-width="0.4"/>
<line x1="54.437" y1="81.521" x2="46.967" y2="78.397" stroke="#141414" stroke-width="0.4"/>
<line x1="46.967" y1="78.397" x2="44.496" y2="59.568" stroke="#141414" stroke-width="0.4"/>
<line x1="44.496" y1="59.568" x2="50.907" y2="54.622" stroke="#141414" stroke-width="0.4"/>
<line x1="50.907" y1="54.622" x2="43.773" y2="50.884" stroke="#141414" stroke-width="0.4"/>
<line x1="43.773" y1="50.884" x2="43.128" y2="32.308" stroke="#141414" stroke-width="0.4"/>
<line x1="43.128" y1="32.308" x2="49.986" y2="28.085" stroke="#141414" stroke-width="0.4"/>
<circle cx="67.056" cy="119.019" r="2.05" fill="#ffe082" stroke="#464646" stroke-width="0.2"/>
<text x="67.056" y="119.72" font-size="2.01" text-anchor="middle" fill="#141414">1</text>
<circle cx="82.74" cy="164.669" r="2.05" fill="#ffe082" stroke="#464646" stroke-width="0.2"/>
<text x="82.74" y="165.37" font-size="2.01" text-anchor="middle" fill="#141414">2</text>
<circle cx="98.225" cy="186.965" r="2.05" fill="#ffe082" stroke="#464646" stroke-width="0.2"/>
<text x="98.225" y="187.67" font-size="2.01" text-anchor="middle" fill="#141414">3</text>
<circle cx="115.749" cy="207.696" r="2.05" fill="#ffe082" stroke="#464646" stroke-width="0.2"/>
<text x="115.749" y="208.40" font-size="2.01" text-anchor="middle" fill="#141414">4</text>
<circle cx="138.945" cy="221.752" r="2.05" fill="#ffe082" stroke="#464646" stroke-width="0.2"/>
<text x="138.945" y="222.46" font-size="2.01" text-anchor="middle" fill="#141414">5</text>
<circle cx="155.841" cy="208.79" r="2.05" fill="#ffe082" stroke="#464646" stroke-width="0.2"/>
<text x="155.841" y="209.49" font-size="2.01" text-anchor="middle" fill="#141414">6</text>
<circle cx="178.917" cy="72.677" r="2.05" fill="#ffe082" stroke="#464646" stroke-width="0.2"/>
<text x="178.917" y="73.38" font-size="2.01" text-anchor="middle" fill="#141414">7</text>
<circle cx="53.425" cy="15.137" r="2.05" fill="#ffe082" stroke="#464646" stroke-width="0.2"/>
<text x="53.425" y="15.84" font-size="2.01" text-anchor="middle" fill="#141414">8</text>
<circle cx="115.262" cy="139.719" r="2.05" fill="#ffe082" stroke="#464646" stroke-width="0.2"/>
<text x="115.262" y="140.42" font-size="2.01" text-anchor="middle" fill="#141414">9</text>
<circle cx="132.787" cy="160.45" r="2.05" fill="#ffe082" stroke="#464646" stroke-width="0.2"/>
<text x="132.787" y="161.15" font-size="2.01" text-anchor="middle" fill="#141414">10</text>
<circle cx="148.272" cy="182.745" r="2.05" fill="#ffe082" stroke="#464646" stroke-width="0.2"/>
<text x="148.272" y="183.45" font-size="2.01" text-anchor="middle" fill="#141414">11</text>
<circle cx="101.693" cy="93.983" r="2.05" fill="#ffe082" stroke="#464646" stroke-width="0.2"/>
<text x="101.693" y="94.69" font-size="2.01" text-anchor="middle" fill="#141414">12</text>
<circle cx="126.255" cy="82.425" r="2.05" fill="#ffe082" stroke="#464646" stroke-width="0.2"/>
<text x="126.255" y="83.13" font-size="2.01" text-anchor="middle" fill="#141414">13</text>
<circle cx="151.801" cy="73.243" r="2.05" fill="#ffe082" stroke="#464646" stroke-width="0.2"/>
<text x="151.801" y="73.95" font-size="2.01" text-anchor="middle" fill="#141414">14</text>
<circle cx="54.004" cy="95.244" r="2.05" fill="#ffe082" stroke="#464646" stroke-width="0.2"/>
<text x="54.004" y="95.95" font-size="2.01" text-anchor="middle" fill="#141414">15</text>
<circle cx="49.202" cy="68.527" r="2.05" fill="#99d9fa" stroke="#464646" stroke-width="0.2"/>
<text x="49.202" y="69.23" font-size="2.01" text-anchor="middle" fill="#141414">16</text>
<circle cx="46.949" cy="41.475" r="2.05" fill="#ffe082" stroke="#464646" stroke-width="0.2"/>
<text x="46.949" y="42.18" font-size="2.01" text-anchor="middle" fill="#141414">17</text>
<circle cx="64.167" cy="62.003" r="4.60" fill="#eaf1fe" stroke="#2e78e6" stroke-width="0.3"/>
<text x="64.167" y="63.80" font-size="5.20" text-anchor="middle" fill="#14306e" font-weight="bold">1</text>
<polygon points="28.538,265.235 30.303,271.119 38.542,271.119 40.307,265.235" fill="rgb(216,216,216)"/>
<polygon points="28.538,253.466 30.303,247.581 38.542,247.581 40.307,253.466" fill="rgb(216,216,216)"/>
<polygon points="40.307,265.235 46.191,263.47 46.191,255.231 40.307,253.466" fill="rgb(216,216,216)"/>
<polygon points="28.538,277.004 26.773,282.888 18.534,282.888 16.769,277.004" fill="rgb(216,216,216)"/>
<polygon points="16.769,265.235 10.884,263.47 10.884,255.231 16.769,253.466" fill="rgb(216,216,216)"/>
<polygon points="16.769,265.235 10.884,267.0 10.884,275.238 16.769,277.004" fill="rgb(216,216,216)"/>
<polygon points="16.769,253.466 10.884,251.701 10.884,243.462 16.769,241.697" fill="rgb(216,216,216)"/>
<polygon points="28.538,265.235 30.303,271.119 38.542,271.119 40.307,265.235" fill="#99d9fa"/>
<line x1="28.538" y1="265.235" x2="28.538" y2="253.466" stroke="#8c8c8c" stroke-width="0.3" stroke-dasharray="1.2,0.8"/>
<line x1="28.538" y1="265.235" x2="16.769" y2="265.235" stroke="#8c8c8c" stroke-width="0.3" stroke-dasharray="1.2,0.8"/>
<line x1="16.769" y1="253.466" x2="28.538" y2="253.466" stroke="#8c8c8c" stroke-width="0.3" stroke-dasharray="1.2,0.8"/>
<line x1="16.769" y1="241.697" x2="28.538" y2="241.697" stroke="#8c8c8c" stroke-width="0.3" stroke-dasharray="1.2,0.8"/>
<line x1="16.769" y1="241.697" x2="16.769" y2="229.928" stroke="#8c8c8c" stroke-width="0.3" stroke-dasharray="1.2,0.8"/>
<line x1="40.307" y1="265.235" x2="28.538" y2="265.235" stroke="#8c8c8c" stroke-width="0.3" stroke-dasharray="1.2,0.8"/>
<line x1="40.307" y1="253.466" x2="28.538" y2="253.466" stroke="#8c8c8c" stroke-width="0.3" stroke-dasharray="1.2,0.8"/>
<line x1="40.307" y1="253.466" x2="40.307" y2="265.235" stroke="#8c8c8c" stroke-width="0.3" stroke-dasharray="1.2,0.8"/>
<line x1="16.769" y1="277.004" x2="28.538" y2="277.004" stroke="#8c8c8c" stroke-width="0.3" stroke-dasharray="1.2,0.8"/>
<line x1="16.769" y1="253.466" x2="16.769" y2="265.235" stroke="#8c8c8c" stroke-width="0.3" stroke-dasharray="1.2,0.8"/>
<line x1="16.769" y1="277.004" x2="16.769" y2="265.235" stroke="#8c8c8c" stroke-width="0.3" stroke-dasharray="1.2,0.8"/>
<line x1="16.769" y1="241.697" x2="16.769" y2="253.466" stroke="#8c8c8c" stroke-width="0.3" stroke-dasharray="1.2,0.8"/>
<line x1="28.538" y1="265.235" x2="28.538" y2="277.004" stroke="#141414" stroke-width="0.4"/>
<line x1="28.538" y1="241.697" x2="28.538" y2="253.466" stroke="#141414" stroke-width="0.4"/>
<line x1="28.538" y1="229.928" x2="28.538" y2="241.697" stroke="#141414" stroke-width="0.4"/>
<line x1="16.769" y1="229.928" x2="28.538" y2="229.928" stroke="#141414" stroke-width="0.4"/>
<line x1="5.0" y1="241.697" x2="5.0" y2="229.928" stroke="#141414" stroke-width="0.4"/>
<line x1="5.0" y1="229.928" x2="16.769" y2="229.928" stroke="#141414" stroke-width="0.4"/>
<line x1="16.769" y1="241.697" x2="5.0" y2="241.697" stroke="#141414" stroke-width="0.4"/>
<line x1="28.538" y1="265.235" x2="30.303" y2="271.119" stroke="#141414" stroke-width="0.4"/>
<line x1="30.303" y1="271.119" x2="38.542" y2="271.119" stroke="#141414" stroke-width="0.4"/>
<line x1="38.542" y1="271.119" x2="40.307" y2="265.235" stroke="#141414" stroke-width="0.4"/>
<line x1="28.538" y1="253.466" x2="30.303" y2="247.581" stroke="#141414" stroke-width="0.4"/>
<line x1="30.303" y1="247.581" x2="38.542" y2="247.581" stroke="#141414" stroke-width="0.4"/>
<line x1="38.542" y1="247.581" x2="40.307" y2="253.466" stroke="#141414" stroke-width="0.4"/>
<line x1="40.307" y1="265.235" x2="46.191" y2="263.47" stroke="#141414" stroke-width="0.4"/>
<line x1="46.191" y1="263.47" x2="46.191" y2="255.231" stroke="#141414" stroke-width="0.4"/>
<line x1="46.191" y1="255.231" x2="40.307" y2="253.466" stroke="#141414" stroke-width="0.4"/>
<line x1="28.538" y1="277.004" x2="26.773" y2="282.888" stroke="#141414" stroke-width="0.4"/>
<line x1="26.773" y1="282.888" x2="18.534" y2="282.888" stroke="#141414" stroke-width="0.4"/>
<line x1="18.534" y1="282.888" x2="16.769" y2="277.004" stroke="#141414" stroke-width="0.4"/>
<line x1="16.769" y1="265.235" x2="10.884" y2="263.47" stroke="#141414" stroke-width="0.4"/>
<line x1="10.884" y1="263.47" x2="10.884" y2="255.231" stroke="#141414" stroke-width="0.4"/>
<line x1="10.884" y1="255.231" x2="16.769" y2="253.466" stroke="#141414" stroke-width="0.4"/>
<line x1="16.769" y1="265.235" x2="10.884" y2="267.0" stroke="#141414" stroke-width="0.4"/>
<line x1="10.884" y1="267.0" x2="10.884" y2="275.238" stroke="#141414" stroke-width="0.4"/>
<line x1="10.884" y1="275.238" x2="16.769" y2="277.004" stroke="#141414" stroke-width="0.4"/>
<line x1="16.769" y1="253.466" x2="10.884" y2="251.701" stroke="#141414" stroke-width="0.4"/>
<line x1="10.884" y1="251.701" x2="10.884" y2="243.462" stroke="#141414" stroke-width="0.4"/>
<line x1="10.884" y1="243.462" x2="16.769" y2="241.697" stroke="#141414" stroke-width="0.4"/>
<circle cx="34.422" cy="268.177" r="2.05" fill="#99d9fa" stroke="#464646" stroke-width="0.2"/>
<text x="34.422" y="268.88" font-size="2.01" text-anchor="middle" fill="#141414">96</text>
<circle cx="34.422" cy="250.524" r="2.05" fill="#ffe082" stroke="#464646" stroke-width="0.2"/>
<text x="34.422" y="251.23" font-size="2.01" text-anchor="middle" fill="#141414">97</text>
<circle cx="43.249" cy="259.35" r="2.05" fill="#ffe082" stroke="#464646" stroke-width="0.2"/>
<text x="43.249" y="260.05" font-size="2.01" text-anchor="middle" fill="#141414">98</text>
<circle cx="22.654" cy="279.946" r="2.05" fill="#ffe082" stroke="#464646" stroke-width="0.2"/>
<text x="22.654" y="280.65" font-size="2.01" text-anchor="middle" fill="#141414">99</text>
<circle cx="13.827" cy="259.35" r="2.05" fill="#ffe082" stroke="#464646" stroke-width="0.2"/>
<text x="13.827" y="260.05" font-size="2.01" text-anchor="middle" fill="#141414">100</text>
<circle cx="13.827" cy="271.119" r="2.05" fill="#ffe082" stroke="#464646" stroke-width="0.2"/>
<text x="13.827" y="271.82" font-size="2.01" text-anchor="middle" fill="#141414">101</text>
<circle cx="13.827" cy="247.581" r="2.05" fill="#ffe082" stroke="#464646" stroke-width="0.2"/>
<text x="13.827" y="248.28" font-size="2.01" text-anchor="middle" fill="#141414">102</text>
<circle cx="24.615" cy="269.158" r="2.22" fill="#eaf1fe" stroke="#2e78e6" stroke-width="0.3"/>
<text x="24.615" y="270.03" font-size="2.60" text-anchor="middle" fill="#14306e" font-weight="bold">10</text>
<text x="205.0" y="295.0" font-size="3.2" text-anchor="end" fill="#737373" font-family="sans-serif">1 / 5</text>
</svg>
