<svg xmlns="http://www.w3.org/2000/svg" xmlns:xlink="http://www.w3.org/1999/xlink" width="210.00mm" height="297.00mm" viewBox="0 0 210.00 297.00">
<rect x="0" y="0" width="210.00" height="297.00" fill="#ffffff" stroke="#cccccc" stroke-width="0.2"/>
<polygon points="14.941,135.008 12.833,124.877 26.02,85.262 33.779,78.416" fill="rgb(216,216,216)"/>
<polygon points="104.182,117.284 110.191,112.68 114.273,87.338 110.014,81.08" fill="rgb(216,216,216)"/>
<polygon points="33.779,78.416 34.526,72.272 48.617,65.428 53.908,68.639" fill="rgb(216,216,216)"/>
<polygon points="117.559,33.333 121.564,41.307 116.282,74.73 110.014,81.08" fill="rgb(216,216,216)"/>
<polygon points="117.559,33.333 109.434,25.616 64.879,12.94 53.908,15.226" fill="rgb(216,216,216)"/>
<polygon points="53.908,68.639 48.708,46.205 48.708,37.659 53.908,15.226" fill="rgb(216,216,216)"/>
<line x1="33.779" y1="78.416" x2="59.075" y2="136.346" stroke="#8c8c8c" stroke-width="0.3" stroke-dasharray="1.2,0.8"/>
<line x1="110.014" y1="81.08" x2="33.779" y2="78.416" stroke="#8c8c8c" stroke-width="0.3" stroke-dasharray="1.2,0.8"/>
<line x1="117.559" y1="33.333" x2="53.908" y2="68.639" stroke="#8c8c8c" stroke-width="0.3" stroke-dasharray="1.2,0.8"/>
<line x1="110.014" y1="81.08" x2="53.908" y2="68.639" stroke="#8c8c8c" stroke-width="0.3" stroke-dasharray="1.2,0.8"/>
<line x1="33.779" y1="78.416" x2="14.941" y2="135.008" stroke="#8c8c8c" stroke-width="0.3" stroke-dasharray="1.2,0.8"/>
<line x1="110.014" y1="81.08" x2="104.182" y2="117.284" stroke="#8c8c8c" stroke-width="0.3" stroke-dasharray="1.2,0.8"/>
<line x1="53.908" y1="68.639" x2="33.779" y2="78.416" stroke="#8c8c8c" stroke-width="0.3" stroke-dasharray="1.2,0.8"/>
<line x1="110.014" y1="81.08" x2="117.559" y2="33.333" stroke="#8c8c8c" stroke-width="0.3" stroke-dasharray="1.2,0.8"/>
<line x1="53.908" y1="15.226" x2="117.559" y2="33.333" stroke="#8c8c8c" stroke-width="0.3" stroke-dasharray="1.2,0.8"/>
<line x1="53.908" y1="15.226" x2="53.908" y2="68.639" stroke="#8c8c8c" stroke-width="0.3" stroke-dasharray="1.2,0.8"/>
<line x1="129.477" y1="183.388" x2="41.657" y2="216.306" stroke="#141414" stroke-width="0.4"/>
<line x1="41.657" y1="216.306" x2="59.075" y2="136.346" stroke="#141414" stroke-width="0.4"/>
<line x1="104.182" y1="117.284" x2="129.477" y2="183.388" stroke="#141414" stroke-width="0.4"/>
<line x1="59.075" y1="136.346" x2="14.941" y2="135.008" stroke="#141414" stroke-width="0.4"/>
<line x1="14.941" y1="135.008" x2="12.833" y2="124.877" stroke="#141414" stroke-width="0.4"/>
<line x1="12.833" y1="124.877" x2="26.02" y2="85.262" stroke="#141414" stroke-width="0.4"/>
<line x1="26.02" y1="85.262" x2="33.779" y2="78.416" stroke="#141414" stroke-width="0.4"/>
<line x1="104.182" y1="117.284" x2="110.191" y2="112.68" stroke="#141414" stroke-width="0.4"/>
<line x1="110.191" y1="112.68" x2="114.273" y2="87.338" stroke="#141414" stroke-width="0.4"/>
<line x1="114.273" y1="87.338" x2="110.014" y2="81.08" stroke="#141414" stroke-width="0.4"/>
<line x1="33.779" y1="78.416" x2="34.526" y2="72.272" stroke="#141414" stroke-width="0.4"/>
<line x1="34.526" y1="72.272" x2="48.617" y2="65.428" stroke="#141414" stroke-width="0.4"/>
<line x1="48.617" y1="65.428" x2="53.908" y2="68.639" stroke="#141414" stroke-width="0.4"/>
<line x1="117.559" y1="33.333" x2="121.564" y2="41.307" stroke="#141414" stroke-width="0.4"/>
<line x1="121.564" y1="41.307" x2="116.282" y2="74.73" stroke="#141414" stroke-width="0.4"/>
<line x1="116.282" y1="74.73" x2="110.014" y2="81.08" stroke="#141414" stroke-width="0.4"/>
<line x1="117.559" y1="33.333" x2="109.434" y2="25.616" stroke="#141414" stroke-width="0.4"/>
<line x1="109.434" y1="25.616" x2="64.879" y2="12.94" stroke="#141414" stroke-width="0.4"/>
<line x1="64.879" y1="12.94" x2="53.908" y2="15.226" stroke="#141414" stroke-width="0.4"/>
<line x1="53.908" y1="68.639" x2="48.708" y2="46.205" stroke="#141414" stroke-width="0.4"/>
<line x1="48.708" y1="46.205" x2="48.708" y2="37.659" stroke="#141414" stroke-width="0.4"/>
<line x1="48.708" y1="37.659" x2="53.908" y2="15.226" stroke="#141414" stroke-width="0.4"/>
<circle cx="21.893" cy="105.891" r="2.29" fill="#ffe082" stroke="#464646" stroke-width="0.2"/>
<text x="21.893" y="106.68" font-size="2.24" text-anchor="middle" fill="#141414">62</text>
<circle cx="109.665" cy="99.595" r="2.29" fill="#ffe082" stroke="#464646" stroke-width="0.2"/>
<text x="109.665" y="100.38" font-size="2.24" text-anchor="middle" fill="#141414">63</text>
<circle cx="42.708" cy="71.188" r="2.29" fill="#ffe082" stroke="#464646" stroke-width="0.2"/>
<text x="42.708" y="71.97" font-size="2.24" text-anchor="middle" fill="#141414">94</text>
<circle cx="116.355" cy="57.613" r="2.29" fill="#ffe082" stroke="#464646" stroke-width="0.2"/>
<text x="116.355" y="58.40" font-size="2.24" text-anchor="middle" fill="#141414">98</text>
<circle cx="86.445" cy="21.779" r="2.29" fill="#ffe082" stroke="#464646" stroke-width="0.2"/>
<text x="86.445" y="22.56" font-size="2.24" text-anchor="middle" fill="#141414">99</text>
<circle cx="51.308" cy="41.932" r="2.29" fill="#ffe082" stroke="#464646" stroke-width="0.2"/>
<text x="51.308" y="42.72" font-size="2.24" text-anchor="middle" fill="#141414">101</text>
<circle cx="91.772" cy="172.326" r="4.60" fill="#eaf1fe" stroke="#2e78e6" stroke-width="0.3"/>
<text x="91.772" y="174.13" font-size="5.20" text-anchor="middle" fill="#14306e" font-weight="bold">26</text>
<polygon points="169.462,17.548 171.344,12.348 180.128,12.348 182.01,17.548" fill="rgb(216,216,216)"/>
<polygon points="182.01,17.548 188.991,18.613 201.427,37.12 199.776,43.986" fill="rgb(216,216,216)"/>
<line x1="199.776" y1="43.986" x2="169.462" y2="17.548" stroke="#8c8c8c" stroke-width="0.3" stroke-dasharray="1.2,0.8"/>
<line x1="182.01" y1="17.548" x2="169.462" y2="17.548" stroke="#8c8c8c" stroke-width="0.3" stroke-dasharray="1.2,0.8"/>
<line x1="199.776" y1="43.986" x2="182.01" y2="17.548" stroke="#8c8c8c" stroke-width="0.3" stroke-dasharray="1.2,0.8"/>
<line x1="124.644" y1="84.711" x2="169.462" y2="17.548" stroke="#141414" stroke-width="0.4"/>
<line x1="199.776" y1="43.986" x2="124.644" y2="84.711" stroke="#141414" stroke-width="0.4"/>
<line x1="169.462" y1="17.548" x2="171.344" y2="12.348" stroke="#141414" stroke-width="0.4"/>
<line x1="171.344" y1="12.348" x2="180.128" y2="12.348" stroke="#141414" stroke-width="0.4"/>
<line x1="180.128" y1="12.348" x2="182.01" y2="17.548" stroke="#141414" stroke-width="0.4"/>
<line x1="182.01" y1="17.548" x2="188.991" y2="18.613" stroke="#141414" stroke-width="0.4"/>
<line x1="188.991" y1="18.613" x2="201.427" y2="37.12" stroke="#141414" stroke-width="0.4"/>
<line x1="201.427" y1="37.12" x2="199.776" y2="43.986" stroke="#141414" stroke-width="0.4"/>
<circle cx="175.736" cy="14.948" r="2.29" fill="#ffe082" stroke="#464646" stroke-width="0.2"/>
<text x="175.736" y="15.73" font-size="2.24" text-anchor="middle" fill="#141414">37</text>
<circle cx="193.051" cy="29.317" r="2.29" fill="#ffe082" stroke="#464646" stroke-width="0.2"/>
<text x="193.051" y="30.10" font-size="2.24" text-anchor="middle" fill="#141414">51</text>
<circle cx="164.627" cy="48.748" r="4.60" fill="#eaf1fe" stroke="#2e78e6" stroke-width="0.3"/>
<text x="164.627" y="50.55" font-size="5.20" text-anchor="middle" fill="#14306e" font-weight="bold">27</text>
<text x="205.0" y="295.0" font-size="3.2" text-anchor="end" fill="#737373" font-family="sans-serif">10 / 13</text>
</svg>
