<svg xmlns="http://www.w3.org/2000/svg" xmlns:xlink="http://www.w3.org/1999/xlink" width="210.00mm" height="297.00mm" viewBox="0 0 210.00 297.00">
<rect x="0" y="0" width="210.00" height="297.00" fill="#ffffff" stroke="#cccccc" stroke-width="0.2"/>
<polygon points="78.096,74.302 89.006,83.708 118.51,139.021 120.244,153.322" fill="rgb(216,216,216)"/>
<polygon points="13.997,5.0 11.648,17.445 24.275,69.838 32.036,79.847" fill="rgb(216,216,216)"/>
<polygon points="32.036,79.847 26.836,87.239 26.836,121.734 32.036,129.125" fill="rgb(216,216,216)"/>
<line x1="32.036" y1="79.847" x2="51.713" y2="130.239" stroke="#8c8c8c" stroke-width="0.3" stroke-dasharray="1.2,0.8"/>
<line x1="63.611" y1="97.805" x2="51.713" y2="130.239" stroke="#8c8c8c" stroke-width="0.3" stroke-dasharray="1.2,0.8"/>
<line x1="120.245" y1="153.322" x2="51.713" y2="130.239" stroke="#8c8c8c" stroke-width="0.3" stroke-dasharray="1.2,0.8"/>
<line x1="120.245" y1="153.322" x2="63.611" y2="97.805" stroke="#8c8c8c" stroke-width="0.3" stroke-dasharray="1.2,0.8"/>
<line x1="143.613" y1="175.39" x2="51.713" y2="130.239" stroke="#8c8c8c" stroke-width="0.3" stroke-dasharray="1.2,0.8"/>
<line x1="120.244" y1="153.322" x2="78.096" y2="74.302" stroke="#8c8c8c" stroke-width="0.3" stroke-dasharray="1.2,0.8"/>
<line x1="32.036" y1="79.847" x2="13.997" y2="5.0" stroke="#8c8c8c" stroke-width="0.3" stroke-dasharray="1.2,0.8"/>
<line x1="32.036" y1="129.125" x2="32.036" y2="79.847" stroke="#8c8c8c" stroke-width="0.3" stroke-dasharray="1.2,0.8"/>
<line x1="63.611" y1="97.805" x2="78.096" y2="74.302" stroke="#141414" stroke-width="0.4"/>
<line x1="13.997" y1="5.0" x2="63.611" y2="97.805" stroke="#141414" stroke-width="0.4"/>
<line x1="51.713" y1="130.239" x2="32.036" y2="129.125" stroke="#141414" stroke-width="0.4"/>
<line x1="112.631" y1="239.115" x2="51.713" y2="130.239" stroke="#141414" stroke-width="0.4"/>
<line x1="146.845" y1="281.1" x2="112.631" y2="239.115" stroke="#141414" stroke-width="0.4"/>
<line x1="120.245" y1="153.322" x2="143.613" y2="175.39" stroke="#141414" stroke-width="0.4"/>
<line x1="143.613" y1="175.39" x2="146.845" y2="281.1" stroke="#141414" stroke-width="0.4"/>
<line x1="78.096" y1="74.302" x2="89.006" y2="83.708" stroke="#141414" stroke-width="0.4"/>
<line x1="89.006" y1="83.708" x2="118.51" y2="139.021" stroke="#141414" stroke-width="0.4"/>
<line x1="118.51" y1="139.021" x2="120.244" y2="153.322" stroke="#141414" stroke-width="0.4"/>
<line x1="13.997" y1="5.0" x2="11.648" y2="17.445" stroke="#141414" stroke-width="0.4"/>
<line x1="11.648" y1="17.445" x2="24.275" y2="69.838" stroke="#141414" stroke-width="0.4"/>
<line x1="24.275" y1="69.838" x2="32.036" y2="79.847" stroke="#141414" stroke-width="0.4"/>
<line x1="32.036" y1="79.847" x2="26.836" y2="87.239" stroke="#141414" stroke-width="0.4"/>
<line x1="26.836" y1="87.239" x2="26.836" y2="121.734" stroke="#141414" stroke-width="0.4"/>
<line x1="26.836" y1="121.734" x2="32.036" y2="129.125" stroke="#141414" stroke-width="0.4"/>
<circle cx="101.464" cy="112.588" r="1.49" fill="#ffe082" stroke="#464646" stroke-width="0.2"/>
<text x="101.464" y="113.29" font-size="2.02" text-anchor="middle" fill="#141414">8</text>
<circle cx="20.489" cy="43.033" r="1.49" fill="#ffe082" stroke="#464646" stroke-width="0.2"/>
<text x="20.489" y="43.74" font-size="2.02" text-anchor="middle" fill="#141414">9</text>
<circle cx="29.436" cy="104.486" r="1.49" fill="#ffe082" stroke="#464646" stroke-width="0.2"/>
<text x="29.436" y="105.19" font-size="2.02" text-anchor="middle" fill="#141414">11</text>
<circle cx="72.599" cy="287.2" r="4.6" fill="#eaf1fe" stroke="#2e78e6" stroke-width="0.3"/>
<text x="72.599" y="289.0" font-size="5.2" text-anchor="middle" fill="#14306e" font-weight="bold">4</text>
</svg>
