<svg xmlns="http://www.w3.org/2000/svg" xmlns:xlink="http://www.w3.org/1999/xlink" width="210.00mm" height="297.00mm" viewBox="0 0 210.00 297.00">
<rect x="0" y="0" width="210.00" height="297.00" fill="#ffffff" stroke="#cccccc" stroke-width="0.2"/>
<polygon points="13.824,32.313 12.131,39.731 25.193,62.127 32.483,64.306" fill="rgb(216,216,216)"/>
<polygon points="13.824,32.313 16.692,24.982 41.201,12.336 48.837,14.248" fill="rgb(216,216,216)"/>
<polygon points="23.887,158.537 35.194,159.463 78.635,141.379 85.946,132.703" fill="rgb(216,216,216)"/>
<polygon points="48.837,14.248 55.261,19.148 61.559,47.308 57.834,54.478" fill="rgb(216,216,216)"/>
<polygon points="57.834,54.478 69.323,52.54 82.623,56.589 91.084,64.6" fill="rgb(216,216,216)"/>
<line x1="33.077" y1="132.703" x2="85.946" y2="132.703" stroke="#8c8c8c" stroke-width="0.3" stroke-dasharray="1.2,0.8"/>
<line x1="32.483" y1="64.306" x2="91.084" y2="64.6" stroke="#8c8c8c" stroke-width="0.3" stroke-dasharray="1.2,0.8"/>
<line x1="35.281" y1="98.051" x2="85.946" y2="132.703" stroke="#8c8c8c" stroke-width="0.3" stroke-dasharray="1.2,0.8"/>
<line x1="86.508" y1="98.334" x2="35.281" y2="98.051" stroke="#8c8c8c" stroke-width="0.3" stroke-dasharray="1.2,0.8"/>
<line x1="48.837" y1="14.248" x2="32.483" y2="64.306" stroke="#8c8c8c" stroke-width="0.3" stroke-dasharray="1.2,0.8"/>
<line x1="57.834" y1="54.478" x2="32.483" y2="64.306" stroke="#8c8c8c" stroke-width="0.3" stroke-dasharray="1.2,0.8"/>
<line x1="91.084" y1="64.6" x2="35.281" y2="98.051" stroke="#8c8c8c" stroke-width="0.3" stroke-dasharray="1.2,0.8"/>
<line x1="32.483" y1="64.306" x2="13.824" y2="32.313" stroke="#8c8c8c" stroke-width="0.3" stroke-dasharray="1.2,0.8"/>
<line x1="48.837" y1="14.248" x2="13.824" y2="32.313" stroke="#8c8c8c" stroke-width="0.3" stroke-dasharray="1.2,0.8"/>
<line x1="85.946" y1="132.703" x2="23.887" y2="158.537" stroke="#8c8c8c" stroke-width="0.3" stroke-dasharray="1.2,0.8"/>
<line x1="57.834" y1="54.478" x2="48.837" y2="14.248" stroke="#8c8c8c" stroke-width="0.3" stroke-dasharray="1.2,0.8"/>
<line x1="91.084" y1="64.6" x2="57.834" y2="54.478" stroke="#8c8c8c" stroke-width="0.3" stroke-dasharray="1.2,0.8"/>
<line x1="33.077" y1="132.703" x2="35.281" y2="98.051" stroke="#141414" stroke-width="0.4"/>
<line x1="23.887" y1="158.537" x2="33.077" y2="132.703" stroke="#141414" stroke-width="0.4"/>
<line x1="35.281" y1="98.051" x2="32.483" y2="64.306" stroke="#141414" stroke-width="0.4"/>
<line x1="86.508" y1="98.334" x2="85.946" y2="132.703" stroke="#141414" stroke-width="0.4"/>
<line x1="91.084" y1="64.6" x2="86.508" y2="98.334" stroke="#141414" stroke-width="0.4"/>
<line x1="13.824" y1="32.313" x2="12.131" y2="39.731" stroke="#141414" stroke-width="0.4"/>
<line x1="12.131" y1="39.731" x2="25.193" y2="62.127" stroke="#141414" stroke-width="0.4"/>
<line x1="25.193" y1="62.127" x2="32.483" y2="64.306" stroke="#141414" stroke-width="0.4"/>
<line x1="13.824" y1="32.313" x2="16.692" y2="24.982" stroke="#141414" stroke-width="0.4"/>
<line x1="16.692" y1="24.982" x2="41.201" y2="12.336" stroke="#141414" stroke-width="0.4"/>
<line x1="41.201" y1="12.336" x2="48.837" y2="14.248" stroke="#141414" stroke-width="0.4"/>
<line x1="23.887" y1="158.537" x2="35.194" y2="159.463" stroke="#141414" stroke-width="0.4"/>
<line x1="35.194" y1="159.463" x2="78.635" y2="141.379" stroke="#141414" stroke-width="0.4"/>
<line x1="78.635" y1="141.379" x2="85.946" y2="132.703" stroke="#141414" stroke-width="0.4"/>
<line x1="48.837" y1="14.248" x2="55.261" y2="19.148" stroke="#141414" stroke-width="0.4"/>
<line x1="55.261" y1="19.148" x2="61.559" y2="47.308" stroke="#141414" stroke-width="0.4"/>
<line x1="61.559" y1="47.308" x2="57.834" y2="54.478" stroke="#141414" stroke-width="0.4"/>
<line x1="57.834" y1="54.478" x2="69.323" y2="52.54" stroke="#141414" stroke-width="0.4"/>
<line x1="69.323" y1="52.54" x2="82.623" y2="56.589" stroke="#141414" stroke-width="0.4"/>
<line x1="82.623" y1="56.589" x2="91.084" y2="64.6" stroke="#141414" stroke-width="0.4"/>
<circle cx="20.908" cy="49.619" r="2.29" fill="#ffe082" stroke="#464646" stroke-width="0.2"/>
<text x="20.908" y="50.40" font-size="2.24" text-anchor="middle" fill="#141414">48</text>
<circle cx="30.138" cy="20.97" r="2.29" fill="#ffe082" stroke="#464646" stroke-width="0.2"/>
<text x="30.138" y="21.75" font-size="2.24" text-anchor="middle" fill="#141414">49</text>
<circle cx="55.916" cy="148.021" r="2.29" fill="#ffe082" stroke="#464646" stroke-width="0.2"/>
<text x="55.916" y="148.81" font-size="2.24" text-anchor="middle" fill="#141414">66</text>
<circle cx="55.873" cy="33.795" r="2.29" fill="#ffe082" stroke="#464646" stroke-width="0.2"/>
<text x="55.873" y="34.58" font-size="2.24" text-anchor="middle" fill="#141414">69</text>
<circle cx="75.216" cy="57.052" r="2.29" fill="#ffe082" stroke="#464646" stroke-width="0.2"/>
<text x="75.216" y="57.84" font-size="2.24" text-anchor="middle" fill="#141414">86</text>
<circle cx="69.245" cy="109.696" r="4.60" fill="#eaf1fe" stroke="#2e78e6" stroke-width="0.3"/>
<text x="69.245" y="111.50" font-size="5.20" text-anchor="middle" fill="#14306e" font-weight="bold">10</text>
<polygon points="89.96,17.707 95.928,12.507 123.78,12.507 129.748,17.707" fill="rgb(216,216,216)"/>
<polygon points="89.96,17.707 92.448,26.894 120.209,51.654 129.62,53.079" fill="rgb(216,216,216)"/>
<line x1="129.748" y1="17.707" x2="89.96" y2="17.707" stroke="#8c8c8c" stroke-width="0.3" stroke-dasharray="1.2,0.8"/>
<line x1="129.62" y1="53.079" x2="89.96" y2="17.707" stroke="#8c8c8c" stroke-width="0.3" stroke-dasharray="1.2,0.8"/>
<line x1="129.748" y1="17.707" x2="129.62" y2="53.079" stroke="#141414" stroke-width="0.4"/>
<line x1="89.96" y1="17.707" x2="95.928" y2="12.507" stroke="#141414" stroke-width="0.4"/>
<line x1="95.928" y1="12.507" x2="123.78" y2="12.507" stroke="#141414" stroke-width="0.4"/>
<line x1="123.78" y1="12.507" x2="129.748" y2="17.707" stroke="#141414" stroke-width="0.4"/>
<line x1="89.96" y1="17.707" x2="92.448" y2="26.894" stroke="#141414" stroke-width="0.4"/>
<line x1="92.448" y1="26.894" x2="120.209" y2="51.654" stroke="#141414" stroke-width="0.4"/>
<line x1="120.209" y1="51.654" x2="129.62" y2="53.079" stroke="#141414" stroke-width="0.4"/>
<circle cx="109.854" cy="15.107" r="2.29" fill="#ffe082" stroke="#464646" stroke-width="0.2"/>
<text x="109.854" y="15.89" font-size="2.24" text-anchor="middle" fill="#141414">77</text>
<circle cx="108.059" cy="37.333" r="2.29" fill="#ffe082" stroke="#464646" stroke-width="0.2"/>
<text x="108.059" y="38.12" font-size="2.24" text-anchor="middle" fill="#141414">78</text>
<circle cx="116.443" cy="29.498" r="4.60" fill="#eaf1fe" stroke="#2e78e6" stroke-width="0.3"/>
<text x="116.443" y="31.30" font-size="5.20" text-anchor="middle" fill="#14306e" font-weight="bold">11</text>
<polygon points="177.288,201.524 183.149,197.706 186.529,176.132 182.116,170.704" fill="rgb(216,216,216)"/>
<polygon points="177.288,201.524 173.42,207.519 151.006,211.621 145.266,207.385" fill="rgb(216,216,216)"/>
<polygon points="148.053,170.704 153.162,165.504 177.006,165.504 182.116,170.704" fill="rgb(216,216,216)"/>
<polygon points="145.266,207.385 135.357,220.244 75.646,260.066 59.966,264.273" fill="rgb(216,216,216)"/>
<polygon points="105.383,158.523 88.454,162.279 21.573,200.831 9.838,213.598" fill="rgb(216,216,216)"/>
<polygon points="86.1,216.492 63.024,220.82 32.52,219.662 9.838,213.598" fill="rgb(216,216,216)"/>
<polygon points="59.966,264.273 56.243,271.206 30.406,280.819 23.057,278.006" fill="rgb(216,216,216)"/>
<polygon points="17.073,256.325 12.958,260.961 17.146,276.137 23.057,278.006" fill="rgb(216,216,216)"/>
<line x1="177.287" y1="201.524" x2="148.053" y2="170.704" stroke="#8c8c8c" stroke-width="0.3" stroke-dasharray="1.2,0.8"/>
<line x1="145.266" y1="207.385" x2="148.053" y2="170.704" stroke="#8c8c8c" stroke-width="0.3" stroke-dasharray="1.2,0.8"/>
<line x1="148.053" y1="170.704" x2="86.1" y2="216.492" stroke="#8c8c8c" stroke-width="0.3" stroke-dasharray="1.2,0.8"/>
<line x1="148.053" y1="170.704" x2="9.838" y2="213.598" stroke="#8c8c8c" stroke-width="0.3" stroke-dasharray="1.2,0.8"/>
<line x1="145.266" y1="207.385" x2="86.1" y2="216.492" stroke="#8c8c8c" stroke-width="0.3" stroke-dasharray="1.2,0.8"/>
<line x1="59.966" y1="264.273" x2="86.1" y2="216.492" stroke="#8c8c8c" stroke-width="0.3" stroke-dasharray="1.2,0.8"/>
<line x1="182.116" y1="170.704" x2="177.288" y2="201.524" stroke="#8c8c8c" stroke-width="0.3" stroke-dasharray="1.2,0.8"/>
<line x1="145.266" y1="207.385" x2="177.288" y2="201.524" stroke="#8c8c8c" stroke-width="0.3" stroke-dasharray="1.2,0.8"/>
<line x1="182.116" y1="170.704" x2="148.053" y2="170.704" stroke="#8c8c8c" stroke-width="0.3" stroke-dasharray="1.2,0.8"/>
<line x1="59.966" y1="264.273" x2="145.266" y2="207.385" stroke="#8c8c8c" stroke-width="0.3" stroke-dasharray="1.2,0.8"/>
<line x1="9.838" y1="213.598" x2="105.383" y2="158.523" stroke="#8c8c8c" stroke-width="0.3" stroke-dasharray="1.2,0.8"/>
<line x1="9.838" y1="213.598" x2="86.1" y2="216.492" stroke="#8c8c8c" stroke-width="0.3" stroke-dasharray="1.2,0.8"/>
<line x1="23.057" y1="278.006" x2="59.966" y2="264.273" stroke="#8c8c8c" stroke-width="0.3" stroke-dasharray="1.2,0.8"/>
<line x1="23.057" y1="278.006" x2="17.073" y2="256.325" stroke="#8c8c8c" stroke-width="0.3" stroke-dasharray="1.2,0.8"/>
<line x1="105.383" y1="158.523" x2="148.053" y2="170.704" stroke="#141414" stroke-width="0.4"/>
<line x1="17.073" y1="256.325" x2="86.1" y2="216.492" stroke="#141414" stroke-width="0.4"/>
<line x1="177.288" y1="201.524" x2="183.149" y2="197.706" stroke="#141414" stroke-width="0.4"/>
<line x1="183.149" y1="197.706" x2="186.529" y2="176.132" stroke="#141414" stroke-width="0.4"/>
<line x1="186.529" y1="176.132" x2="182.116" y2="170.704" stroke="#141414" stroke-width="0.4"/>
<line x1="177.288" y1="201.524" x2="173.42" y2="207.519" stroke="#141414" stroke-width="0.4"/>
<line x1="173.42" y1="207.519" x2="151.006" y2="211.621" stroke="#141414" stroke-width="0.4"/>
<line x1="151.006" y1="211.621" x2="145.266" y2="207.385" stroke="#141414" stroke-width="0.4"/>
<line x1="148.053" y1="170.704" x2="153.162" y2="165.504" stroke="#141414" stroke-width="0.4"/>
<line x1="153.162" y1="165.504" x2="177.006" y2="165.504" stroke="#141414" stroke-width="0.4"/>
<line x1="177.006" y1="165.504" x2="182.116" y2="170.704" stroke="#141414" stroke-width="0.4"/>
<line x1="145.266" y1="207.385" x2="135.357" y2="220.244" stroke="#141414" stroke-width="0.4"/>
<line x1="135.357" y1="220.244" x2="75.646" y2="260.066" stroke="#141414" stroke-width="0.4"/>
<line x1="75.646" y1="260.066" x2="59.966" y2="264.273" stroke="#141414" stroke-width="0.4"/>
<line x1="105.383" y1="158.523" x2="88.454" y2="162.279" stroke="#141414" stroke-width="0.4"/>
<line x1="88.454" y1="162.279" x2="21.573" y2="200.831" stroke="#141414" stroke-width="0.4"/>
<line x1="21.573" y1="200.831" x2="9.838" y2="213.598" stroke="#141414" stroke-width="0.4"/>
<line x1="86.1" y1="216.492" x2="63.024" y2="220.82" stroke="#141414" stroke-width="0.4"/>
<line x1="63.024" y1="220.82" x2="32.52" y2="219.662" stroke="#141414" stroke-width="0.4"/>
<line x1="32.52" y1="219.662" x2="9.838" y2="213.598" stroke="#141414" stroke-width="0.4"/>
<line x1="59.966" y1="264.273" x2="56.243" y2="271.206" stroke="#141414" stroke-width="0.4"/>
<line x1="56.243" y1="271.206" x2="30.406" y2="280.819" stroke="#141414" stroke-width="0.4"/>
<line x1="30.406" y1="280.819" x2="23.057" y2="278.006" stroke="#141414" stroke-width="0.4"/>
<line x1="17.073" y1="256.325" x2="12.958" y2="260.961" stroke="#141414" stroke-width="0.4"/>
<line x1="12.958" y1="260.961" x2="17.146" y2="276.137" stroke="#141414" stroke-width="0.4"/>
<line x1="17.146" y1="276.137" x2="23.057" y2="278.006" stroke="#141414" stroke-width="0.4"/>
<circle cx="182.27" cy="186.517" r="2.29" fill="#ffe082" stroke="#464646" stroke-width="0.2"/>
<text x="182.27" y="187.30" font-size="2.24" text-anchor="middle" fill="#141414">1</text>
<circle cx="161.745" cy="207.012" r="2.29" fill="#ffe082" stroke="#464646" stroke-width="0.2"/>
<text x="161.745" y="207.80" font-size="2.24" text-anchor="middle" fill="#141414">3</text>
<circle cx="165.084" cy="168.104" r="2.29" fill="#ffe082" stroke="#464646" stroke-width="0.2"/>
<text x="165.084" y="168.89" font-size="2.24" text-anchor="middle" fill="#141414">5</text>
<circle cx="104.059" cy="237.992" r="2.29" fill="#ffe082" stroke="#464646" stroke-width="0.2"/>
<text x="104.059" y="238.78" font-size="2.24" text-anchor="middle" fill="#141414">10</text>
<circle cx="56.312" cy="183.808" r="2.29" fill="#ffe082" stroke="#464646" stroke-width="0.2"/>
<text x="56.312" y="184.59" font-size="2.24" text-anchor="middle" fill="#141414">11</text>
<circle cx="47.871" cy="217.643" r="2.29" fill="#ffe082" stroke="#464646" stroke-width="0.2"/>
<text x="47.871" y="218.43" font-size="2.24" text-anchor="middle" fill="#141414">13</text>
<circle cx="42.418" cy="273.576" r="2.29" fill="#ffe082" stroke="#464646" stroke-width="0.2"/>
<text x="42.418" y="274.36" font-size="2.24" text-anchor="middle" fill="#141414">18</text>
<circle cx="17.558" cy="267.857" r="2.29" fill="#ffe082" stroke="#464646" stroke-width="0.2"/>
<text x="17.558" y="268.64" font-size="2.24" text-anchor="middle" fill="#141414">36</text>
<circle cx="54.38" cy="245.697" r="4.60" fill="#eaf1fe" stroke="#2e78e6" stroke-width="0.3"/>
<text x="54.38" y="247.50" font-size="5.20" text-anchor="middle" fill="#14306e" font-weight="bold">12</text>
<text x="205.0" y="295.0" font-size="3.2" text-anchor="end" fill="#737373" font-family="sans-serif">4 / 13</text>
</svg>
