<svg xmlns="http://www.w3.org/2000/svg" xmlns:xlink="http://www.w3.org/1999/xlink" width="210.00mm" height="297.00mm" viewBox="0 0 210.00 297.00">
<rect x="0" y="0" width="210.00" height="297.00" fill="#ffffff" stroke="#cccccc" stroke-width="0.2"/>
<polygon points="41.947,81.361 44.718,88.361 57.649,88.361 60.42,81.361" fill="rgb(216,216,216)"/>
<polygon points="41.947,52.417 44.718,45.417 57.649,45.417 60.42,52.417" fill="rgb(216,216,216)"/>
<polygon points="60.42,81.361 67.42,77.02 67.42,56.759 60.42,52.417" fill="rgb(216,216,216)"/>
<polygon points="41.947,99.835 39.176,106.835 26.245,106.835 23.474,99.835" fill="rgb(216,216,216)"/>
<polygon points="23.474,81.361 16.474,77.02 16.474,56.759 23.474,52.417" fill="rgb(216,216,216)"/>
<polygon points="23.474,81.361 16.474,84.132 16.474,97.064 23.474,99.835" fill="rgb(216,216,216)"/>
<polygon points="23.474,52.417 16.474,49.646 16.474,36.715 23.474,33.944" fill="rgb(216,216,216)"/>
<polygon points="41.947,81.361 44.718,88.361 57.649,88.361 60.42,81.361" fill="#99d9fa"/>
<line x1="41.947" y1="81.361" x2="41.947" y2="52.417" stroke="#8c8c8c" stroke-width="0.3" stroke-dasharray="1.2,0.8"/>
<line x1="41.947" y1="81.361" x2="23.474" y2="81.361" stroke="#8c8c8c" stroke-width="0.3" stroke-dasharray="1.2,0.8"/>
<line x1="23.474" y1="52.417" x2="41.947" y2="52.417" stroke="#8c8c8c" stroke-width="0.3" stroke-dasharray="1.2,0.8"/>
<line x1="23.474" y1="33.944" x2="41.947" y2="33.944" stroke="#8c8c8c" stroke-width="0.3" stroke-dasharray="1.2,0.8"/>
<line x1="23.474" y1="33.944" x2="23.474" y2="5.0" stroke="#8c8c8c" stroke-width="0.3" stroke-dasharray="1.2,0.8"/>
<line x1="60.42" y1="81.361" x2="41.947" y2="81.361" stroke="#8c8c8c" stroke-width="0.3" stroke-dasharray="1.2,0.8"/>
<line x1="60.42" y1="52.417" x2="41.947" y2="52.417" stroke="#8c8c8c" stroke-width="0.3" stroke-dasharray="1.2,0.8"/>
<line x1="60.42" y1="52.417" x2="60.42" y2="81.361" stroke="#8c8c8c" stroke-width="0.3" stroke-dasharray="1.2,0.8"/>
<line x1="23.474" y1="99.835" x2="41.947" y2="99.835" stroke="#8c8c8c" stroke-width="0.3" stroke-dasharray="1.2,0.8"/>
<line x1="23.474" y1="52.417" x2="23.474" y2="81.361" stroke="#8c8c8c" stroke-width="0.3" stroke-dasharray="1.2,0.8"/>
<line x1="23.474" y1="99.835" x2="23.474" y2="81.361" stroke="#8c8c8c" stroke-width="0.3" stroke-dasharray="1.2,0.8"/>
<line x1="23.474" y1="33.944" x2="23.474" y2="52.417" stroke="#8c8c8c" stroke-width="0.3" stroke-dasharray="1.2,0.8"/>
<line x1="41.947" y1="81.361" x2="41.947" y2="99.835" stroke="#141414" stroke-width="0.4"/>
<line x1="41.947" y1="33.944" x2="41.947" y2="52.417" stroke="#141414" stroke-width="0.4"/>
<line x1="41.947" y1="5.0" x2="41.947" y2="33.944" stroke="#141414" stroke-width="0.4"/>
<line x1="23.474" y1="5.0" x2="41.947" y2="5.0" stroke="#141414" stroke-width="0.4"/>
<line x1="5.0" y1="33.944" x2="5.0" y2="5.0" stroke="#141414" stroke-width="0.4"/>
<line x1="5.0" y1="5.0" x2="23.474" y2="5.0" stroke="#141414" stroke-width="0.4"/>
<line x1="23.474" y1="33.944" x2="5.0" y2="33.944" stroke="#141414" stroke-width="0.4"/>
<line x1="41.947" y1="81.361" x2="44.718" y2="88.361" stroke="#141414" stroke-width="0.4"/>
<line x1="44.718" y1="88.361" x2="57.649" y2="88.361" stroke="#141414" stroke-width="0.4"/>
<line x1="57.649" y1="88.361" x2="60.42" y2="81.361" stroke="#141414" stroke-width="0.4"/>
<line x1="41.947" y1="52.417" x2="44.718" y2="45.417" stroke="#141414" stroke-width="0.4"/>
<line x1="44.718" y1="45.417" x2="57.649" y2="45.417" stroke="#141414" stroke-width="0.4"/>
<line x1="57.649" y1="45.417" x2="60.42" y2="52.417" stroke="#141414" stroke-width="0.4"/>
<line x1="60.42" y1="81.361" x2="67.42" y2="77.02" stroke="#141414" stroke-width="0.4"/>
<line x1="67.42" y1="77.02" x2="67.42" y2="56.759" stroke="#141414" stroke-width="0.4"/>
<line x1="67.42" y1="56.759" x2="60.42" y2="52.417" stroke="#141414" stroke-width="0.4"/>
<line x1="41.947" y1="99.835" x2="39.176" y2="106.835" stroke="#141414" stroke-width="0.4"/>
<line x1="39.176" y1="106.835" x2="26.245" y2="106.835" stroke="#141414" stroke-width="0.4"/>
<line x1="26.245" y1="106.835" x2="23.474" y2="99.835" stroke="#141414" stroke-width="0.4"/>
<line x1="23.474" y1="81.361" x2="16.474" y2="77.02" stroke="#141414" stroke-width="0.4"/>
<line x1="16.474" y1="77.02" x2="16.474" y2="56.759" stroke="#141414" stroke-width="0.4"/>
<line x1="16.474" y1="56.759" x2="23.474" y2="52.417" stroke="#141414" stroke-width="0.4"/>
<line x1="23.474" y1="81.361" x2="16.474" y2="84.132" stroke="#141414" stroke-width="0.4"/>
<line x1="16.474" y1="84.132" x2="16.474" y2="97.064" stroke="#141414" stroke-width="0.4"/>
<line x1="16.474" y1="97.064" x2="23.474" y2="99.835" stroke="#141414" stroke-width="0.4"/>
<line x1="23.474" y1="52.417" x2="16.474" y2="49.646" stroke="#141414" stroke-width="0.4"/>
<line x1="16.474" y1="49.646" x2="16.474" y2="36.715" stroke="#141414" stroke-width="0.4"/>
<line x1="16.474" y1="36.715" x2="23.474" y2="33.944" stroke="#141414" stroke-width="0.4"/>
<circle cx="51.184" cy="84.861" r="1.91" fill="#99d9fa" stroke="#464646" stroke-width="0.2"/>
<text x="51.184" y="85.77" font-size="2.59" text-anchor="middle" fill="#141414">69</text>
<circle cx="51.184" cy="48.917" r="1.91" fill="#ffe082" stroke="#464646" stroke-width="0.2"/>
<text x="51.184" y="49.82" font-size="2.59" text-anchor="middle" fill="#141414">70</text>
<circle cx="63.92" cy="66.889" r="1.91" fill="#ffe082" stroke="#464646" stroke-width="0.2"/>
<text x="63.92" y="67.79" font-size="2.59" text-anchor="middle" fill="#141414">71</text>
<circle cx="32.71" cy="103.335" r="1.91" fill="#ffe082" stroke="#464646" stroke-width="0.2"/>
<text x="32.71" y="104.24" font-size="2.59" text-anchor="middle" fill="#141414">72</text>
<circle cx="19.974" cy="66.889" r="1.91" fill="#ffe082" stroke="#464646" stroke-width="0.2"/>
<text x="19.974" y="67.79" font-size="2.59" text-anchor="middle" fill="#141414">73</text>
<circle cx="19.974" cy="90.598" r="1.91" fill="#ffe082" stroke="#464646" stroke-width="0.2"/>
<text x="19.974" y="91.50" font-size="2.59" text-anchor="middle" fill="#141414">74</text>
<circle cx="19.974" cy="43.181" r="1.91" fill="#ffe082" stroke="#464646" stroke-width="0.2"/>
<text x="19.974" y="44.09" font-size="2.59" text-anchor="middle" fill="#141414">75</text>
<circle cx="35.789" cy="24.296" r="4.15" fill="#eaf1fe" stroke="#2e78e6" stroke-width="0.3"/>
<text x="35.789" y="25.92" font-size="4.69" text-anchor="middle" fill="#14306e" font-weight="bold">9</text>
<text x="205.0" y="295.0" font-size="3.2" text-anchor="end" fill="#737373" font-family="sans-serif">4 / 4</text>
</svg>
