<svg xmlns="http://www.w3.org/2000/svg" xmlns:xlink="http://www.w3.org/1999/xlink" width="210.00mm" height="297.00mm" viewBox="0 0 210.00 297.00">
<rect x="0" y="0" width="210.00" height="297.00" fill="#ffffff" stroke="#cccccc" stroke-width="0.2"/>
<polygon points="5.0,24.287 8.669,19.087 25.79,19.087 29.459,24.287" fill="rgb(216,216,216)"/>
<polygon points="31.747,39.738 32.725,41.687 60.317,37.352 70.069,33.717" fill="rgb(216,216,216)"/>
<polygon points="30.549,79.811 38.776,80.408 63.272,63.299 65.544,55.37" fill="rgb(216,216,216)"/>
<polygon points="29.459,24.287 38.504,17.153 85.523,7.651 96.628,10.711" fill="rgb(216,216,216)"/>
<polygon points="31.747,39.738 32.725,41.687 60.317,37.352 70.069,33.717" fill="#99d9fa"/>
<line x1="30.549" y1="79.811" x2="18.14" y2="72.435" stroke="#8c8c8c" stroke-width="0.3" stroke-dasharray="1.2,0.8"/>
<line x1="19.631" y1="37.766" x2="31.747" y2="39.738" stroke="#8c8c8c" stroke-width="0.3" stroke-dasharray="1.2,0.8"/>
<line x1="34.395" y1="48.955" x2="30.549" y2="79.811" stroke="#8c8c8c" stroke-width="0.3" stroke-dasharray="1.2,0.8"/>
<line x1="31.747" y1="39.738" x2="29.459" y2="24.287" stroke="#8c8c8c" stroke-width="0.3" stroke-dasharray="1.2,0.8"/>
<line x1="70.069" y1="33.717" x2="65.544" y2="55.37" stroke="#8c8c8c" stroke-width="0.3" stroke-dasharray="1.2,0.8"/>
<line x1="70.069" y1="33.717" x2="101.333" y2="28.442" stroke="#8c8c8c" stroke-width="0.3" stroke-dasharray="1.2,0.8"/>
<line x1="96.628" y1="10.711" x2="70.069" y2="33.717" stroke="#8c8c8c" stroke-width="0.3" stroke-dasharray="1.2,0.8"/>
<line x1="96.628" y1="10.711" x2="101.333" y2="28.442" stroke="#8c8c8c" stroke-width="0.3" stroke-dasharray="1.2,0.8"/>
<line x1="29.459" y1="24.287" x2="19.631" y2="37.766" stroke="#8c8c8c" stroke-width="0.3" stroke-dasharray="1.2,0.8"/>
<line x1="65.544" y1="55.37" x2="34.395" y2="48.955" stroke="#8c8c8c" stroke-width="0.3" stroke-dasharray="1.2,0.8"/>
<line x1="29.459" y1="24.287" x2="70.069" y2="33.717" stroke="#8c8c8c" stroke-width="0.3" stroke-dasharray="1.2,0.8"/>
<line x1="29.459" y1="24.287" x2="5.0" y2="24.287" stroke="#8c8c8c" stroke-width="0.3" stroke-dasharray="1.2,0.8"/>
<line x1="70.069" y1="33.717" x2="31.747" y2="39.738" stroke="#8c8c8c" stroke-width="0.3" stroke-dasharray="1.2,0.8"/>
<line x1="65.544" y1="55.37" x2="30.549" y2="79.811" stroke="#8c8c8c" stroke-width="0.3" stroke-dasharray="1.2,0.8"/>
<line x1="96.628" y1="10.711" x2="29.459" y2="24.287" stroke="#8c8c8c" stroke-width="0.3" stroke-dasharray="1.2,0.8"/>
<line x1="18.14" y1="72.435" x2="34.395" y2="48.955" stroke="#141414" stroke-width="0.4"/>
<line x1="14.947" y1="89.049" x2="18.14" y2="72.435" stroke="#141414" stroke-width="0.4"/>
<line x1="19.631" y1="37.766" x2="5.0" y2="24.287" stroke="#141414" stroke-width="0.4"/>
<line x1="20.666" y1="58.105" x2="19.631" y2="37.766" stroke="#141414" stroke-width="0.4"/>
<line x1="31.747" y1="39.738" x2="20.666" y2="58.105" stroke="#141414" stroke-width="0.4"/>
<line x1="34.395" y1="48.955" x2="70.069" y2="33.717" stroke="#141414" stroke-width="0.4"/>
<line x1="30.549" y1="79.811" x2="14.947" y2="89.049" stroke="#141414" stroke-width="0.4"/>
<line x1="101.333" y1="28.442" x2="65.544" y2="55.37" stroke="#141414" stroke-width="0.4"/>
<line x1="112.324" y1="19.25" x2="101.333" y2="28.442" stroke="#141414" stroke-width="0.4"/>
<line x1="96.628" y1="10.711" x2="112.324" y2="19.25" stroke="#141414" stroke-width="0.4"/>
<line x1="5.0" y1="24.287" x2="8.669" y2="19.087" stroke="#141414" stroke-width="0.4"/>
<line x1="8.669" y1="19.087" x2="25.79" y2="19.087" stroke="#141414" stroke-width="0.4"/>
<line x1="25.79" y1="19.087" x2="29.459" y2="24.287" stroke="#141414" stroke-width="0.4"/>
<line x1="31.747" y1="39.738" x2="32.725" y2="41.687" stroke="#141414" stroke-width="0.4"/>
<line x1="32.725" y1="41.687" x2="60.317" y2="37.352" stroke="#141414" stroke-width="0.4"/>
<line x1="60.317" y1="37.352" x2="70.069" y2="33.717" stroke="#141414" stroke-width="0.4"/>
<line x1="30.549" y1="79.811" x2="38.776" y2="80.408" stroke="#141414" stroke-width="0.4"/>
<line x1="38.776" y1="80.408" x2="63.272" y2="63.299" stroke="#141414" stroke-width="0.4"/>
<line x1="63.272" y1="63.299" x2="65.544" y2="55.37" stroke="#141414" stroke-width="0.4"/>
<line x1="29.459" y1="24.287" x2="38.504" y2="17.153" stroke="#141414" stroke-width="0.4"/>
<line x1="38.504" y1="17.153" x2="85.523" y2="7.651" stroke="#141414" stroke-width="0.4"/>
<line x1="85.523" y1="7.651" x2="96.628" y2="10.711" stroke="#141414" stroke-width="0.4"/>
<circle cx="17.23" cy="21.687" r="0.91" fill="#ffe082" stroke="#464646" stroke-width="0.2"/>
<text x="17.23" y="22.12" font-size="1.24" text-anchor="middle" fill="#141414">37</text>
<circle cx="48.715" cy="38.124" r="0.91" fill="#99d9fa" stroke="#464646" stroke-width="0.2"/>
<text x="48.715" y="38.56" font-size="1.24" text-anchor="middle" fill="#141414">41</text>
<circle cx="49.535" cy="69.722" r="0.91" fill="#ffe082" stroke="#464646" stroke-width="0.2"/>
<text x="49.535" y="70.16" font-size="1.24" text-anchor="middle" fill="#141414">43</text>
<circle cx="62.529" cy="14.951" r="0.91" fill="#ffe082" stroke="#464646" stroke-width="0.2"/>
<text x="62.529" y="15.39" font-size="1.24" text-anchor="middle" fill="#141414">50</text>
<circle cx="65.385" cy="22.905" r="4.60" fill="#eaf1fe" stroke="#2e78e6" stroke-width="0.3"/>
<text x="65.385" y="24.71" font-size="5.20" text-anchor="middle" fill="#14306e" font-weight="bold">6</text>
<polygon points="23.605,131.415 17.983,133.148 8.902,124.072 10.632,118.45" fill="rgb(216,216,216)"/>
<polygon points="23.605,131.415 23.673,137.671 37.267,146.553 43.024,144.103" fill="rgb(216,216,216)"/>
<polygon points="60.79,131.415 61.147,137.549 48.712,146.432 43.024,144.103" fill="rgb(216,216,216)"/>
<polygon points="46.605,113.112 49.32,107.399 65.901,104.691 70.292,109.243" fill="rgb(216,216,216)"/>
<polygon points="10.632,118.45 7.415,113.282 14.066,100.097 20.134,99.614" fill="rgb(216,216,216)"/>
<polygon points="80.026,141.737 78.885,147.25 87.207,152.909 91.914,149.822" fill="rgb(216,216,216)"/>
<polygon points="70.292,109.243 76.537,107.809 89.658,119.345 89.036,125.722" fill="rgb(216,216,216)"/>
<polygon points="89.036,125.722 94.34,123.314 103.885,130.989 102.672,136.686" fill="rgb(216,216,216)"/>
<polygon points="102.672,136.686 109.238,135.983 122.469,149.61 121.574,156.152" fill="rgb(216,216,216)"/>
<polygon points="46.605,113.112 49.32,107.399 65.901,104.691 70.292,109.243" fill="#99d9fa"/>
<line x1="23.605" y1="131.415" x2="60.789" y2="131.415" stroke="#8c8c8c" stroke-width="0.3" stroke-dasharray="1.2,0.8"/>
<line x1="46.605" y1="113.112" x2="23.605" y2="131.415" stroke="#8c8c8c" stroke-width="0.3" stroke-dasharray="1.2,0.8"/>
<line x1="60.789" y1="131.415" x2="46.605" y2="113.112" stroke="#8c8c8c" stroke-width="0.3" stroke-dasharray="1.2,0.8"/>
<line x1="60.789" y1="131.415" x2="70.292" y2="109.243" stroke="#8c8c8c" stroke-width="0.3" stroke-dasharray="1.2,0.8"/>
<line x1="10.632" y1="118.45" x2="46.605" y2="113.112" stroke="#8c8c8c" stroke-width="0.3" stroke-dasharray="1.2,0.8"/>
<line x1="91.914" y1="149.822" x2="102.672" y2="136.686" stroke="#8c8c8c" stroke-width="0.3" stroke-dasharray="1.2,0.8"/>
<line x1="121.574" y1="156.152" x2="91.914" y2="149.822" stroke="#8c8c8c" stroke-width="0.3" stroke-dasharray="1.2,0.8"/>
<line x1="20.134" y1="99.614" x2="46.605" y2="113.112" stroke="#8c8c8c" stroke-width="0.3" stroke-dasharray="1.2,0.8"/>
<line x1="89.036" y1="125.722" x2="80.026" y2="141.737" stroke="#8c8c8c" stroke-width="0.3" stroke-dasharray="1.2,0.8"/>
<line x1="89.036" y1="125.722" x2="91.914" y2="149.822" stroke="#8c8c8c" stroke-width="0.3" stroke-dasharray="1.2,0.8"/>
<line x1="10.632" y1="118.45" x2="23.605" y2="131.415" stroke="#8c8c8c" stroke-width="0.3" stroke-dasharray="1.2,0.8"/>
<line x1="43.024" y1="144.103" x2="23.605" y2="131.415" stroke="#8c8c8c" stroke-width="0.3" stroke-dasharray="1.2,0.8"/>
<line x1="43.024" y1="144.103" x2="60.79" y2="131.415" stroke="#8c8c8c" stroke-width="0.3" stroke-dasharray="1.2,0.8"/>
<line x1="70.292" y1="109.243" x2="46.605" y2="113.112" stroke="#8c8c8c" stroke-width="0.3" stroke-dasharray="1.2,0.8"/>
<line x1="20.134" y1="99.614" x2="10.632" y2="118.45" stroke="#8c8c8c" stroke-width="0.3" stroke-dasharray="1.2,0.8"/>
<line x1="91.914" y1="149.822" x2="80.026" y2="141.737" stroke="#8c8c8c" stroke-width="0.3" stroke-dasharray="1.2,0.8"/>
<line x1="89.036" y1="125.722" x2="70.292" y2="109.243" stroke="#8c8c8c" stroke-width="0.3" stroke-dasharray="1.2,0.8"/>
<line x1="102.672" y1="136.686" x2="89.036" y2="125.722" stroke="#8c8c8c" stroke-width="0.3" stroke-dasharray="1.2,0.8"/>
<line x1="121.574" y1="156.152" x2="102.672" y2="136.686" stroke="#8c8c8c" stroke-width="0.3" stroke-dasharray="1.2,0.8"/>
<line x1="80.026" y1="141.737" x2="60.789" y2="131.415" stroke="#141414" stroke-width="0.4"/>
<line x1="42.906" y1="89.398" x2="46.605" y2="113.112" stroke="#141414" stroke-width="0.4"/>
<line x1="20.134" y1="99.614" x2="42.906" y2="89.398" stroke="#141414" stroke-width="0.4"/>
<line x1="100.667" y1="168.846" x2="91.914" y2="149.822" stroke="#141414" stroke-width="0.4"/>
<line x1="121.574" y1="156.152" x2="100.667" y2="168.846" stroke="#141414" stroke-width="0.4"/>
<line x1="23.605" y1="131.415" x2="17.983" y2="133.148" stroke="#141414" stroke-width="0.4"/>
<line x1="17.983" y1="133.148" x2="8.902" y2="124.072" stroke="#141414" stroke-width="0.4"/>
<line x1="8.902" y1="124.072" x2="10.632" y2="118.45" stroke="#141414" stroke-width="0.4"/>
<line x1="23.605" y1="131.415" x2="23.673" y2="137.671" stroke="#141414" stroke-width="0.4"/>
<line x1="23.673" y1="137.671" x2="37.267" y2="146.553" stroke="#141414" stroke-width="0.4"/>
<line x1="37.267" y1="146.553" x2="43.024" y2="144.103" stroke="#141414" stroke-width="0.4"/>
<line x1="60.79" y1="131.415" x2="61.147" y2="137.549" stroke="#141414" stroke-width="0.4"/>
<line x1="61.147" y1="137.549" x2="48.712" y2="146.432" stroke="#141414" stroke-width="0.4"/>
<line x1="48.712" y1="146.432" x2="43.024" y2="144.103" stroke="#141414" stroke-width="0.4"/>
<line x1="46.605" y1="113.112" x2="49.32" y2="107.399" stroke="#141414" stroke-width="0.4"/>
<line x1="49.32" y1="107.399" x2="65.901" y2="104.691" stroke="#141414" stroke-width="0.4"/>
<line x1="65.901" y1="104.691" x2="70.292" y2="109.243" stroke="#141414" stroke-width="0.4"/>
<line x1="10.632" y1="118.45" x2="7.415" y2="113.282" stroke="#141414" stroke-width="0.4"/>
<line x1="7.415" y1="113.282" x2="14.066" y2="100.097" stroke="#141414" stroke-width="0.4"/>
<line x1="14.066" y1="100.097" x2="20.134" y2="99.614" stroke="#141414" stroke-width="0.4"/>
<line x1="80.026" y1="141.737" x2="78.885" y2="147.25" stroke="#141414" stroke-width="0.4"/>
<line x1="78.885" y1="147.25" x2="87.207" y2="152.909" stroke="#141414" stroke-width="0.4"/>
<line x1="87.207" y1="152.909" x2="91.914" y2="149.822" stroke="#141414" stroke-width="0.4"/>
<line x1="70.292" y1="109.243" x2="76.537" y2="107.809" stroke="#141414" stroke-width="0.4"/>
<line x1="76.537" y1="107.809" x2="89.658" y2="119.345" stroke="#141414" stroke-width="0.4"/>
<line x1="89.658" y1="119.345" x2="89.036" y2="125.722" stroke="#141414" stroke-width="0.4"/>
<line x1="89.036" y1="125.722" x2="94.34" y2="123.314" stroke="#141414" stroke-width="0.4"/>
<line x1="94.34" y1="123.314" x2="103.885" y2="130.989" stroke="#141414" stroke-width="0.4"/>
<line x1="103.885" y1="130.989" x2="102.672" y2="136.686" stroke="#141414" stroke-width="0.4"/>
<line x1="102.672" y1="136.686" x2="109.238" y2="135.983" stroke="#141414" stroke-width="0.4"/>
<line x1="109.238" y1="135.983" x2="122.469" y2="149.61" stroke="#141414" stroke-width="0.4"/>
<line x1="122.469" y1="149.61" x2="121.574" y2="156.152" stroke="#141414" stroke-width="0.4"/>
<circle cx="15.28" cy="126.771" r="0.91" fill="#ffe082" stroke="#464646" stroke-width="0.2"/>
<text x="15.28" y="127.21" font-size="1.24" text-anchor="middle" fill="#141414">17</text>
<circle cx="31.892" cy="139.936" r="0.91" fill="#ffe082" stroke="#464646" stroke-width="0.2"/>
<text x="31.892" y="140.37" font-size="1.24" text-anchor="middle" fill="#141414">18</text>
<circle cx="53.418" cy="139.875" r="0.91" fill="#ffe082" stroke="#464646" stroke-width="0.2"/>
<text x="53.418" y="140.31" font-size="1.24" text-anchor="middle" fill="#141414">25</text>
<circle cx="58.029" cy="108.611" r="0.91" fill="#99d9fa" stroke="#464646" stroke-width="0.2"/>
<text x="58.029" y="109.05" font-size="1.24" text-anchor="middle" fill="#141414">26</text>
<circle cx="13.062" cy="107.861" r="0.91" fill="#ffe082" stroke="#464646" stroke-width="0.2"/>
<text x="13.062" y="108.30" font-size="1.24" text-anchor="middle" fill="#141414">27</text>
<circle cx="84.508" cy="147.93" r="0.91" fill="#ffe082" stroke="#464646" stroke-width="0.2"/>
<text x="84.508" y="148.36" font-size="1.24" text-anchor="middle" fill="#141414">28</text>
<circle cx="81.381" cy="115.53" r="0.91" fill="#ffe082" stroke="#464646" stroke-width="0.2"/>
<text x="81.381" y="115.96" font-size="1.24" text-anchor="middle" fill="#141414">32</text>
<circle cx="97.483" cy="129.178" r="0.91" fill="#ffe082" stroke="#464646" stroke-width="0.2"/>
<text x="97.483" y="129.61" font-size="1.24" text-anchor="middle" fill="#141414">34</text>
<circle cx="113.988" cy="144.608" r="0.91" fill="#ffe082" stroke="#464646" stroke-width="0.2"/>
<text x="113.988" y="145.04" font-size="1.24" text-anchor="middle" fill="#141414">48</text>
<circle cx="59.229" cy="117.923" r="4.60" fill="#eaf1fe" stroke="#2e78e6" stroke-width="0.3"/>
<text x="59.229" y="119.72" font-size="5.20" text-anchor="middle" fill="#14306e" font-weight="bold">7</text>
<polygon points="108.087,208.784 112.589,205.02 109.887,192.619 104.227,191.069" fill="rgb(216,216,216)"/>
<polygon points="77.811,191.069 81.773,185.869 100.265,185.869 104.227,191.069" fill="rgb(216,216,216)"/>
<polygon points="60.046,210.27 43.81,227.405 39.328,234.946 32.032,257.396" fill="rgb(216,216,216)"/>
<polygon points="51.667,186.837 54.927,189.528 34.029,215.884 33.714,216.403" fill="rgb(216,216,216)"/>
<polygon points="67.564,222.196 68.846,230.595 53.614,257.998 45.805,261.344" fill="rgb(216,216,216)"/>
<polygon points="45.805,261.344 42.306,265.75 32.665,262.987 32.032,257.396" fill="rgb(216,216,216)"/>
<polygon points="7.727,238.642 6.657,244.394 16.541,252.06 21.845,249.594" fill="rgb(216,216,216)"/>
<polygon points="51.667,186.837 54.927,189.528 34.029,215.884 33.714,216.403" fill="#99d9fa"/>
<line x1="60.046" y1="210.27" x2="77.811" y2="191.069" stroke="#8c8c8c" stroke-width="0.3" stroke-dasharray="1.2,0.8"/>
<line x1="104.227" y1="191.069" x2="60.046" y2="210.27" stroke="#8c8c8c" stroke-width="0.3" stroke-dasharray="1.2,0.8"/>
<line x1="60.046" y1="210.27" x2="55.398" y2="189.454" stroke="#8c8c8c" stroke-width="0.3" stroke-dasharray="1.2,0.8"/>
<line x1="60.046" y1="210.27" x2="67.564" y2="222.196" stroke="#8c8c8c" stroke-width="0.3" stroke-dasharray="1.2,0.8"/>
<line x1="33.714" y1="216.403" x2="36.624" y2="176.506" stroke="#8c8c8c" stroke-width="0.3" stroke-dasharray="1.2,0.8"/>
<line x1="7.727" y1="238.642" x2="33.714" y2="216.403" stroke="#8c8c8c" stroke-width="0.3" stroke-dasharray="1.2,0.8"/>
<line x1="21.845" y1="249.594" x2="33.714" y2="216.403" stroke="#8c8c8c" stroke-width="0.3" stroke-dasharray="1.2,0.8"/>
<line x1="67.564" y1="222.196" x2="32.032" y2="257.396" stroke="#8c8c8c" stroke-width="0.3" stroke-dasharray="1.2,0.8"/>
<line x1="108.087" y1="208.785" x2="60.046" y2="210.27" stroke="#8c8c8c" stroke-width="0.3" stroke-dasharray="1.2,0.8"/>
<line x1="51.667" y1="186.837" x2="36.624" y2="176.506" stroke="#8c8c8c" stroke-width="0.3" stroke-dasharray="1.2,0.8"/>
<line x1="104.227" y1="191.069" x2="108.087" y2="208.784" stroke="#8c8c8c" stroke-width="0.3" stroke-dasharray="1.2,0.8"/>
<line x1="104.227" y1="191.069" x2="77.811" y2="191.069" stroke="#8c8c8c" stroke-width="0.3" stroke-dasharray="1.2,0.8"/>
<line x1="32.032" y1="257.396" x2="60.046" y2="210.27" stroke="#8c8c8c" stroke-width="0.3" stroke-dasharray="1.2,0.8"/>
<line x1="33.714" y1="216.403" x2="51.667" y2="186.837" stroke="#8c8c8c" stroke-width="0.3" stroke-dasharray="1.2,0.8"/>
<line x1="45.805" y1="261.344" x2="67.564" y2="222.196" stroke="#8c8c8c" stroke-width="0.3" stroke-dasharray="1.2,0.8"/>
<line x1="32.032" y1="257.396" x2="45.805" y2="261.344" stroke="#8c8c8c" stroke-width="0.3" stroke-dasharray="1.2,0.8"/>
<line x1="21.845" y1="249.594" x2="7.727" y2="238.642" stroke="#8c8c8c" stroke-width="0.3" stroke-dasharray="1.2,0.8"/>
<line x1="108.087" y1="208.785" x2="67.564" y2="222.196" stroke="#141414" stroke-width="0.4"/>
<line x1="55.398" y1="189.454" x2="77.811" y2="191.069" stroke="#141414" stroke-width="0.4"/>
<line x1="60.046" y1="210.27" x2="21.845" y2="249.594" stroke="#141414" stroke-width="0.4"/>
<line x1="36.624" y1="176.506" x2="63.354" y2="171.846" stroke="#141414" stroke-width="0.4"/>
<line x1="63.354" y1="171.846" x2="51.667" y2="186.837" stroke="#141414" stroke-width="0.4"/>
<line x1="7.727" y1="238.642" x2="36.624" y2="176.506" stroke="#141414" stroke-width="0.4"/>
<line x1="33.714" y1="216.403" x2="55.398" y2="189.454" stroke="#141414" stroke-width="0.4"/>
<line x1="108.087" y1="208.784" x2="112.589" y2="205.02" stroke="#141414" stroke-width="0.4"/>
<line x1="112.589" y1="205.02" x2="109.887" y2="192.619" stroke="#141414" stroke-width="0.4"/>
<line x1="109.887" y1="192.619" x2="104.227" y2="191.069" stroke="#141414" stroke-width="0.4"/>
<line x1="77.811" y1="191.069" x2="81.773" y2="185.869" stroke="#141414" stroke-width="0.4"/>
<line x1="81.773" y1="185.869" x2="100.265" y2="185.869" stroke="#141414" stroke-width="0.4"/>
<line x1="100.265" y1="185.869" x2="104.227" y2="191.069" stroke="#141414" stroke-width="0.4"/>
<line x1="60.046" y1="210.27" x2="43.81" y2="227.405" stroke="#141414" stroke-width="0.4"/>
<line x1="43.81" y1="227.405" x2="39.328" y2="234.946" stroke="#141414" stroke-width="0.4"/>
<line x1="39.328" y1="234.946" x2="32.032" y2="257.396" stroke="#141414" stroke-width="0.4"/>
<line x1="51.667" y1="186.837" x2="54.927" y2="189.528" stroke="#141414" stroke-width="0.4"/>
<line x1="54.927" y1="189.528" x2="34.029" y2="215.884" stroke="#141414" stroke-width="0.4"/>
<line x1="34.029" y1="215.884" x2="33.714" y2="216.403" stroke="#141414" stroke-width="0.4"/>
<line x1="67.564" y1="222.196" x2="68.846" y2="230.595" stroke="#141414" stroke-width="0.4"/>
<line x1="68.846" y1="230.595" x2="53.614" y2="257.998" stroke="#141414" stroke-width="0.4"/>
<line x1="53.614" y1="257.998" x2="45.805" y2="261.344" stroke="#141414" stroke-width="0.4"/>
<line x1="45.805" y1="261.344" x2="42.306" y2="265.75" stroke="#141414" stroke-width="0.4"/>
<line x1="42.306" y1="265.75" x2="32.665" y2="262.987" stroke="#141414" stroke-width="0.4"/>
<line x1="32.665" y1="262.987" x2="32.032" y2="257.396" stroke="#141414" stroke-width="0.4"/>
<line x1="7.727" y1="238.642" x2="6.657" y2="244.394" stroke="#141414" stroke-width="0.4"/>
<line x1="6.657" y1="244.394" x2="16.541" y2="252.06" stroke="#141414" stroke-width="0.4"/>
<line x1="16.541" y1="252.06" x2="21.845" y2="249.594" stroke="#141414" stroke-width="0.4"/>
<circle cx="108.698" cy="199.373" r="0.91" fill="#ffe082" stroke="#464646" stroke-width="0.2"/>
<text x="108.698" y="199.81" font-size="1.24" text-anchor="middle" fill="#141414">42</text>
<circle cx="91.019" cy="188.469" r="0.91" fill="#ffe082" stroke="#464646" stroke-width="0.2"/>
<text x="91.019" y="188.90" font-size="1.24" text-anchor="middle" fill="#141414">44</text>
<circle cx="43.804" cy="232.504" r="0.91" fill="#ffe082" stroke="#464646" stroke-width="0.2"/>
<text x="43.804" y="232.94" font-size="1.24" text-anchor="middle" fill="#141414">46</text>
<circle cx="58.957" cy="243.033" r="0.91" fill="#ffe082" stroke="#464646" stroke-width="0.2"/>
<text x="58.957" y="243.47" font-size="1.24" text-anchor="middle" fill="#141414">52</text>
<circle cx="38.202" cy="261.869" r="0.91" fill="#ffe082" stroke="#464646" stroke-width="0.2"/>
<text x="38.202" y="262.30" font-size="1.24" text-anchor="middle" fill="#141414">53</text>
<circle cx="13.193" cy="246.172" r="0.91" fill="#ffe082" stroke="#464646" stroke-width="0.2"/>
<text x="13.193" y="246.61" font-size="1.24" text-anchor="middle" fill="#141414">54</text>
<circle cx="21.095" cy="234.88" r="4.53" fill="#eaf1fe" stroke="#2e78e6" stroke-width="0.3"/>
<text x="21.095" y="236.65" font-size="5.12" text-anchor="middle" fill="#14306e" font-weight="bold">8</text>
<polygon points="122.121,179.75 116.871,183.973 116.636,203.962 121.785,208.306" fill="rgb(216,216,216)"/>
<polygon points="122.121,179.75 124.658,174.55 136.5,174.55 139.038,179.75" fill="rgb(216,216,216)"/>
<polygon points="121.785,208.306 125.576,213.104 140.493,211.387 143.094,205.853" fill="rgb(216,216,216)"/>
<line x1="139.038" y1="179.75" x2="121.785" y2="208.306" stroke="#8c8c8c" stroke-width="0.3" stroke-dasharray="1.2,0.8"/>
<line x1="121.785" y1="208.306" x2="122.121" y2="179.75" stroke="#8c8c8c" stroke-width="0.3" stroke-dasharray="1.2,0.8"/>
<line x1="139.038" y1="179.75" x2="122.121" y2="179.75" stroke="#8c8c8c" stroke-width="0.3" stroke-dasharray="1.2,0.8"/>
<line x1="143.094" y1="205.853" x2="121.785" y2="208.306" stroke="#8c8c8c" stroke-width="0.3" stroke-dasharray="1.2,0.8"/>
<line x1="139.038" y1="179.75" x2="143.095" y2="205.853" stroke="#141414" stroke-width="0.4"/>
<line x1="122.121" y1="179.75" x2="116.871" y2="183.973" stroke="#141414" stroke-width="0.4"/>
<line x1="116.871" y1="183.973" x2="116.636" y2="203.962" stroke="#141414" stroke-width="0.4"/>
<line x1="116.636" y1="203.962" x2="121.785" y2="208.306" stroke="#141414" stroke-width="0.4"/>
<line x1="122.121" y1="179.75" x2="124.658" y2="174.55" stroke="#141414" stroke-width="0.4"/>
<line x1="124.658" y1="174.55" x2="136.5" y2="174.55" stroke="#141414" stroke-width="0.4"/>
<line x1="136.5" y1="174.55" x2="139.038" y2="179.75" stroke="#141414" stroke-width="0.4"/>
<line x1="121.785" y1="208.306" x2="125.576" y2="213.104" stroke="#141414" stroke-width="0.4"/>
<line x1="125.576" y1="213.104" x2="140.493" y2="211.387" stroke="#141414" stroke-width="0.4"/>
<line x1="140.493" y1="211.387" x2="143.094" y2="205.853" stroke="#141414" stroke-width="0.4"/>
<circle cx="119.353" cy="193.998" r="0.91" fill="#ffe082" stroke="#464646" stroke-width="0.2"/>
<text x="119.353" y="194.43" font-size="1.24" text-anchor="middle" fill="#141414">30</text>
<circle cx="130.579" cy="177.15" r="0.91" fill="#ffe082" stroke="#464646" stroke-width="0.2"/>
<text x="130.579" y="177.58" font-size="1.24" text-anchor="middle" fill="#141414">31</text>
<circle cx="132.737" cy="209.663" r="0.91" fill="#ffe082" stroke="#464646" stroke-width="0.2"/>
<text x="132.737" y="210.10" font-size="1.24" text-anchor="middle" fill="#141414">40</text>
<circle cx="134.639" cy="197.97" r="4.53" fill="#eaf1fe" stroke="#2e78e6" stroke-width="0.3"/>
<text x="134.639" y="199.74" font-size="5.12" text-anchor="middle" fill="#14306e" font-weight="bold">9</text>
<text x="205.0" y="295.0" font-size="3.2" text-anchor="end" fill="#737373" font-family="sans-serif">3 / 3</text>
</svg>
