<svg xmlns="http://www.w3.org/2000/svg" xmlns:xlink="http://www.w3.org/1999/xlink" width="210.00mm" height="297.00mm" viewBox="0 0 210.00 297.00">
<rect x="0" y="0" width="210.00" height="297.00" fill="#ffffff" stroke="#cccccc" stroke-width="0.2"/>
<polygon points="41.495,64.606 30.635,67.145 27.655,65.71 22.869,55.636" fill="rgb(216,216,216)"/>
<polygon points="104.234,190.914 100.984,200.442 98.53,201.698 88.899,198.765" fill="rgb(216,216,216)"/>
<polygon points="60.121,55.636 68.878,48.729 69.614,45.504 64.722,35.481" fill="rgb(216,216,216)"/>
<polygon points="119.756,183.439 129.232,186.838 131.744,185.703 135.455,176.345" fill="rgb(216,216,216)"/>
<polygon points="64.722,35.481 68.261,28.692 59.238,17.378 51.832,19.318" fill="rgb(216,216,216)"/>
<polygon points="135.455,176.345 140.561,181.786 151.669,177.091 151.324,169.637" fill="rgb(216,216,216)"/>
<polygon points="51.832,19.318 48.731,12.318 34.26,12.318 31.159,19.318" fill="rgb(216,216,216)"/>
<polygon points="151.324,169.637 156.295,175.202 167.514,170.779 167.351,163.319" fill="rgb(216,216,216)"/>
<polygon points="31.159,19.318 23.752,17.378 14.729,28.692 18.269,35.481" fill="rgb(216,216,216)"/>
<polygon points="167.351,163.319 172.185,169.003 183.509,164.856 183.529,157.394" fill="rgb(216,216,216)"/>
<polygon points="18.269,35.481 12.134,40.062 15.355,54.171 22.869,55.636" fill="rgb(216,216,216)"/>
<polygon points="183.529,157.394 188.222,163.195 199.644,159.326 199.846,151.866" fill="rgb(216,216,216)"/>
<polygon points="156.23,17.75 169.429,35.702 199.96,129.584 199.846,151.866" fill="rgb(216,216,216)"/>
<polygon points="119.756,183.439 129.232,186.838 131.744,185.703 135.455,176.345" fill="#99d9fa"/>
<line x1="104.234" y1="190.914" x2="41.495" y2="64.606" stroke="#8c8c8c" stroke-width="0.3" stroke-dasharray="1.2,0.8"/>
<line x1="60.121" y1="55.636" x2="41.495" y2="64.606" stroke="#8c8c8c" stroke-width="0.3" stroke-dasharray="1.2,0.8"/>
<line x1="119.756" y1="183.439" x2="104.234" y2="190.914" stroke="#8c8c8c" stroke-width="0.3" stroke-dasharray="1.2,0.8"/>
<line x1="60.121" y1="55.636" x2="119.756" y2="183.439" stroke="#8c8c8c" stroke-width="0.3" stroke-dasharray="1.2,0.8"/>
<line x1="78.961" y1="47.124" x2="135.455" y2="176.345" stroke="#8c8c8c" stroke-width="0.3" stroke-dasharray="1.2,0.8"/>
<line x1="98.004" y1="39.075" x2="151.324" y2="169.637" stroke="#8c8c8c" stroke-width="0.3" stroke-dasharray="1.2,0.8"/>
<line x1="117.237" y1="31.493" x2="167.351" y2="163.319" stroke="#8c8c8c" stroke-width="0.3" stroke-dasharray="1.2,0.8"/>
<line x1="136.649" y1="24.383" x2="183.529" y2="157.394" stroke="#8c8c8c" stroke-width="0.3" stroke-dasharray="1.2,0.8"/>
<line x1="22.869" y1="55.636" x2="41.495" y2="64.606" stroke="#8c8c8c" stroke-width="0.3" stroke-dasharray="1.2,0.8"/>
<line x1="88.899" y1="198.765" x2="104.234" y2="190.914" stroke="#8c8c8c" stroke-width="0.3" stroke-dasharray="1.2,0.8"/>
<line x1="64.722" y1="35.481" x2="60.121" y2="55.636" stroke="#8c8c8c" stroke-width="0.3" stroke-dasharray="1.2,0.8"/>
<line x1="135.455" y1="176.345" x2="119.756" y2="183.439" stroke="#8c8c8c" stroke-width="0.3" stroke-dasharray="1.2,0.8"/>
<line x1="51.832" y1="19.318" x2="64.722" y2="35.481" stroke="#8c8c8c" stroke-width="0.3" stroke-dasharray="1.2,0.8"/>
<line x1="151.324" y1="169.637" x2="135.455" y2="176.345" stroke="#8c8c8c" stroke-width="0.3" stroke-dasharray="1.2,0.8"/>
<line x1="31.159" y1="19.318" x2="51.832" y2="19.318" stroke="#8c8c8c" stroke-width="0.3" stroke-dasharray="1.2,0.8"/>
<line x1="167.351" y1="163.319" x2="151.324" y2="169.637" stroke="#8c8c8c" stroke-width="0.3" stroke-dasharray="1.2,0.8"/>
<line x1="18.269" y1="35.481" x2="31.159" y2="19.318" stroke="#8c8c8c" stroke-width="0.3" stroke-dasharray="1.2,0.8"/>
<line x1="183.529" y1="157.394" x2="167.351" y2="163.319" stroke="#8c8c8c" stroke-width="0.3" stroke-dasharray="1.2,0.8"/>
<line x1="22.869" y1="55.636" x2="18.269" y2="35.481" stroke="#8c8c8c" stroke-width="0.3" stroke-dasharray="1.2,0.8"/>
<line x1="199.846" y1="151.866" x2="183.529" y2="157.394" stroke="#8c8c8c" stroke-width="0.3" stroke-dasharray="1.2,0.8"/>
<line x1="199.846" y1="151.866" x2="156.23" y2="17.75" stroke="#8c8c8c" stroke-width="0.3" stroke-dasharray="1.2,0.8"/>
<line x1="23.094" y1="74.029" x2="41.495" y2="64.606" stroke="#141414" stroke-width="0.4"/>
<line x1="100.4" y1="207.709" x2="104.234" y2="190.914" stroke="#141414" stroke-width="0.4"/>
<line x1="60.121" y1="55.636" x2="78.961" y2="47.124" stroke="#141414" stroke-width="0.4"/>
<line x1="119.756" y1="183.439" x2="135.278" y2="190.914" stroke="#141414" stroke-width="0.4"/>
<line x1="78.961" y1="47.124" x2="98.004" y2="39.075" stroke="#141414" stroke-width="0.4"/>
<line x1="135.278" y1="190.914" x2="139.111" y2="207.709" stroke="#141414" stroke-width="0.4"/>
<line x1="98.004" y1="39.075" x2="117.237" y2="31.493" stroke="#141414" stroke-width="0.4"/>
<line x1="139.111" y1="207.709" x2="128.37" y2="221.179" stroke="#141414" stroke-width="0.4"/>
<line x1="117.237" y1="31.493" x2="136.649" y2="24.383" stroke="#141414" stroke-width="0.4"/>
<line x1="128.37" y1="221.179" x2="111.142" y2="221.179" stroke="#141414" stroke-width="0.4"/>
<line x1="136.649" y1="24.383" x2="156.23" y2="17.75" stroke="#141414" stroke-width="0.4"/>
<line x1="111.142" y1="221.179" x2="100.4" y2="207.709" stroke="#141414" stroke-width="0.4"/>
<line x1="88.899" y1="198.766" x2="23.094" y2="74.029" stroke="#141414" stroke-width="0.4"/>
<line x1="41.495" y1="64.606" x2="30.635" y2="67.145" stroke="#141414" stroke-width="0.4"/>
<line x1="30.635" y1="67.145" x2="27.655" y2="65.71" stroke="#141414" stroke-width="0.4"/>
<line x1="27.655" y1="65.71" x2="22.869" y2="55.636" stroke="#141414" stroke-width="0.4"/>
<line x1="104.234" y1="190.914" x2="100.984" y2="200.442" stroke="#141414" stroke-width="0.4"/>
<line x1="100.984" y1="200.442" x2="98.53" y2="201.698" stroke="#141414" stroke-width="0.4"/>
<line x1="98.53" y1="201.698" x2="88.899" y2="198.765" stroke="#141414" stroke-width="0.4"/>
<line x1="60.121" y1="55.636" x2="68.878" y2="48.729" stroke="#141414" stroke-width="0.4"/>
<line x1="68.878" y1="48.729" x2="69.614" y2="45.504" stroke="#141414" stroke-width="0.4"/>
<line x1="69.614" y1="45.504" x2="64.722" y2="35.481" stroke="#141414" stroke-width="0.4"/>
<line x1="119.756" y1="183.439" x2="129.232" y2="186.838" stroke="#141414" stroke-width="0.4"/>
<line x1="129.232" y1="186.838" x2="131.744" y2="185.703" stroke="#141414" stroke-width="0.4"/>
<line x1="131.744" y1="185.703" x2="135.455" y2="176.345" stroke="#141414" stroke-width="0.4"/>
<line x1="64.722" y1="35.481" x2="68.261" y2="28.692" stroke="#141414" stroke-width="0.4"/>
<line x1="68.261" y1="28.692" x2="59.238" y2="17.378" stroke="#141414" stroke-width="0.4"/>
<line x1="59.238" y1="17.378" x2="51.832" y2="19.318" stroke="#141414" stroke-width="0.4"/>
<line x1="135.455" y1="176.345" x2="140.561" y2="181.786" stroke="#141414" stroke-width="0.4"/>
<line x1="140.561" y1="181.786" x2="151.669" y2="177.091" stroke="#141414" stroke-width="0.4"/>
<line x1="151.669" y1="177.091" x2="151.324" y2="169.637" stroke="#141414" stroke-width="0.4"/>
<line x1="51.832" y1="19.318" x2="48.731" y2="12.318" stroke="#141414" stroke-width="0.4"/>
<line x1="48.731" y1="12.318" x2="34.26" y2="12.318" stroke="#141414" stroke-width="0.4"/>
<line x1="34.26" y1="12.318" x2="31.159" y2="19.318" stroke="#141414" stroke-width="0.4"/>
<line x1="151.324" y1="169.637" x2="156.295" y2="175.202" stroke="#141414" stroke-width="0.4"/>
<line x1="156.295" y1="175.202" x2="167.514" y2="170.779" stroke="#141414" stroke-width="0.4"/>
<line x1="167.514" y1="170.779" x2="167.351" y2="163.319" stroke="#141414" stroke-width="0.4"/>
<line x1="31.159" y1="19.318" x2="23.752" y2="17.378" stroke="#141414" stroke-width="0.4"/>
<line x1="23.752" y1="17.378" x2="14.729" y2="28.692" stroke="#141414" stroke-width="0.4"/>
<line x1="14.729" y1="28.692" x2="18.269" y2="35.481" stroke="#141414" stroke-width="0.4"/>
<line x1="167.351" y1="163.319" x2="172.185" y2="169.003" stroke="#141414" stroke-width="0.4"/>
<line x1="172.185" y1="169.003" x2="183.509" y2="164.856" stroke="#141414" stroke-width="0.4"/>
<line x1="183.509" y1="164.856" x2="183.529" y2="157.394" stroke="#141414" stroke-width="0.4"/>
<line x1="18.269" y1="35.481" x2="12.134" y2="40.062" stroke="#141414" stroke-width="0.4"/>
<line x1="12.134" y1="40.062" x2="15.355" y2="54.171" stroke="#141414" stroke-width="0.4"/>
<line x1="15.355" y1="54.171" x2="22.869" y2="55.636" stroke="#141414" stroke-width="0.4"/>
<line x1="183.529" y1="157.394" x2="188.222" y2="163.195" stroke="#141414" stroke-width="0.4"/>
<line x1="188.222" y1="163.195" x2="199.644" y2="159.326" stroke="#141414" stroke-width="0.4"/>
<line x1="199.644" y1="159.326" x2="199.846" y2="151.866" stroke="#141414" stroke-width="0.4"/>
<line x1="156.23" y1="17.75" x2="169.429" y2="35.702" stroke="#141414" stroke-width="0.4"/>
<line x1="169.429" y1="35.702" x2="199.96" y2="129.584" stroke="#141414" stroke-width="0.4"/>
<line x1="199.96" y1="129.584" x2="199.846" y2="151.866" stroke="#141414" stroke-width="0.4"/>
<circle cx="30.664" cy="63.275" r="1.96" fill="#ffe082" stroke="#464646" stroke-width="0.2"/>
<text x="30.664" y="63.95" font-size="1.92" text-anchor="middle" fill="#141414">144</text>
<circle cx="98.162" cy="197.955" r="1.96" fill="#ffe082" stroke="#464646" stroke-width="0.2"/>
<text x="98.162" y="198.63" font-size="1.92" text-anchor="middle" fill="#141414">145</text>
<circle cx="65.834" cy="46.338" r="1.96" fill="#ffe082" stroke="#464646" stroke-width="0.2"/>
<text x="65.834" y="47.01" font-size="1.92" text-anchor="middle" fill="#141414">146</text>
<circle cx="129.047" cy="183.081" r="1.96" fill="#99d9fa" stroke="#464646" stroke-width="0.2"/>
<text x="129.047" y="183.75" font-size="1.92" text-anchor="middle" fill="#141414">147</text>
<circle cx="61.013" cy="25.217" r="1.96" fill="#ffe082" stroke="#464646" stroke-width="0.2"/>
<text x="61.013" y="25.89" font-size="1.92" text-anchor="middle" fill="#141414">148</text>
<circle cx="144.752" cy="176.215" r="1.96" fill="#ffe082" stroke="#464646" stroke-width="0.2"/>
<text x="144.752" y="176.89" font-size="1.92" text-anchor="middle" fill="#141414">149</text>
<circle cx="41.495" cy="15.818" r="1.96" fill="#ffe082" stroke="#464646" stroke-width="0.2"/>
<text x="41.495" y="16.49" font-size="1.92" text-anchor="middle" fill="#141414">150</text>
<circle cx="160.621" cy="169.734" r="1.96" fill="#ffe082" stroke="#464646" stroke-width="0.2"/>
<text x="160.621" y="170.41" font-size="1.92" text-anchor="middle" fill="#141414">151</text>
<circle cx="21.977" cy="25.217" r="1.96" fill="#ffe082" stroke="#464646" stroke-width="0.2"/>
<text x="21.977" y="25.89" font-size="1.92" text-anchor="middle" fill="#141414">152</text>
<circle cx="176.644" cy="163.643" r="1.96" fill="#ffe082" stroke="#464646" stroke-width="0.2"/>
<text x="176.644" y="164.31" font-size="1.92" text-anchor="middle" fill="#141414">153</text>
<circle cx="17.157" cy="46.338" r="1.96" fill="#ffe082" stroke="#464646" stroke-width="0.2"/>
<text x="17.157" y="47.01" font-size="1.92" text-anchor="middle" fill="#141414">154</text>
<circle cx="192.81" cy="157.945" r="1.96" fill="#ffe082" stroke="#464646" stroke-width="0.2"/>
<text x="192.81" y="158.62" font-size="1.92" text-anchor="middle" fill="#141414">155</text>
<circle cx="181.366" cy="83.726" r="1.96" fill="#ffe082" stroke="#464646" stroke-width="0.2"/>
<text x="181.366" y="84.40" font-size="1.92" text-anchor="middle" fill="#141414">156</text>
<circle cx="51.163" cy="112.467" r="4.60" fill="#eaf1fe" stroke="#2e78e6" stroke-width="0.3"/>
<text x="51.163" y="114.27" font-size="5.20" text-anchor="middle" fill="#14306e" font-weight="bold">14</text>
<text x="205.0" y="295.0" font-size="3.2" text-anchor="end" fill="#737373" font-family="sans-serif">14 / 14</text>
<g pointer-events="none"><text x="105.0" y="83.2" text-anchor="middle" font-family="sans-serif" font-size="12.4" fill="#9aa0a6" fill-opacity="0.3" transform="rotate(-28 105.0 83.2)">papercraft.kr</text><text x="105.0" y="148.5" text-anchor="middle" font-family="sans-serif" font-size="12.4" fill="#9aa0a6" fill-opacity="0.3" transform="rotate(-28 105.0 148.5)">papercraft.kr</text><text x="105.0" y="213.8" text-anchor="middle" font-family="sans-serif" font-size="12.4" fill="#9aa0a6" fill-opacity="0.3" transform="rotate(-28 105.0 213.8)">papercraft.kr</text></g></svg>
