<svg xmlns="http://www.w3.org/2000/svg" xmlns:xlink="http://www.w3.org/1999/xlink" width="210.00mm" height="297.00mm" viewBox="0 0 210.00 297.00">
<rect x="0" y="0" width="210.00" height="297.00" fill="#ffffff" stroke="#cccccc" stroke-width="0.2"/>
<polygon points="43.425,77.811 35.181,78.317 25.405,96.288 29.46,103.484" fill="rgb(216,216,216)"/>
<polygon points="29.46,103.484 28.211,108.355 43.516,104.704 50.718,98.413" fill="rgb(216,216,216)"/>
<polygon points="16.925,65.489 13.022,62.318 27.496,56.144 37.027,56.914" fill="rgb(216,216,216)"/>
<polygon points="15.492,53.194 11.343,46.282 20.472,30.012 28.533,29.951" fill="rgb(216,216,216)"/>
<polygon points="100.552,99.465 104.606,106.661 94.831,124.631 86.587,125.137" fill="rgb(216,216,216)"/>
<polygon points="100.552,99.465 101.801,94.594 86.496,98.245 79.294,104.536" fill="rgb(216,216,216)"/>
<polygon points="76.452,26.415 80.354,29.586 65.881,35.76 56.35,34.989" fill="rgb(216,216,216)"/>
<polygon points="91.495,61.952 80.302,54.952 76.037,54.952 64.844,61.952" fill="rgb(216,216,216)"/>
<polygon points="91.495,61.952 86.664,74.239 83.237,76.776 70.076,77.811" fill="rgb(216,216,216)"/>
<polygon points="49.952,14.092 42.573,10.845 27.58,21.947 28.533,29.951" fill="rgb(216,216,216)"/>
<polygon points="86.587,125.137 78.592,132.137 67.931,132.137 59.936,125.137" fill="rgb(216,216,216)"/>
<polygon points="15.492,53.194 11.343,46.282 20.472,30.012 28.533,29.951" fill="#99d9fa"/>
<line x1="50.718" y1="98.413" x2="43.425" y2="77.811" stroke="#8c8c8c" stroke-width="0.3" stroke-dasharray="1.2,0.8"/>
<line x1="37.027" y1="56.914" x2="43.425" y2="77.811" stroke="#8c8c8c" stroke-width="0.3" stroke-dasharray="1.2,0.8"/>
<line x1="64.844" y1="61.952" x2="43.425" y2="77.811" stroke="#8c8c8c" stroke-width="0.3" stroke-dasharray="1.2,0.8"/>
<line x1="43.425" y1="77.811" x2="70.076" y2="77.811" stroke="#8c8c8c" stroke-width="0.3" stroke-dasharray="1.2,0.8"/>
<line x1="59.936" y1="125.137" x2="35.624" y2="114.218" stroke="#8c8c8c" stroke-width="0.3" stroke-dasharray="1.2,0.8"/>
<line x1="79.294" y1="104.536" x2="86.587" y2="125.137" stroke="#8c8c8c" stroke-width="0.3" stroke-dasharray="1.2,0.8"/>
<line x1="56.35" y1="34.989" x2="49.952" y2="14.092" stroke="#8c8c8c" stroke-width="0.3" stroke-dasharray="1.2,0.8"/>
<line x1="79.294" y1="104.536" x2="50.718" y2="98.413" stroke="#8c8c8c" stroke-width="0.3" stroke-dasharray="1.2,0.8"/>
<line x1="59.936" y1="125.137" x2="79.294" y2="104.536" stroke="#8c8c8c" stroke-width="0.3" stroke-dasharray="1.2,0.8"/>
<line x1="70.076" y1="77.811" x2="79.294" y2="104.536" stroke="#8c8c8c" stroke-width="0.3" stroke-dasharray="1.2,0.8"/>
<line x1="50.718" y1="98.413" x2="59.936" y2="125.137" stroke="#8c8c8c" stroke-width="0.3" stroke-dasharray="1.2,0.8"/>
<line x1="70.076" y1="77.811" x2="50.718" y2="98.413" stroke="#8c8c8c" stroke-width="0.3" stroke-dasharray="1.2,0.8"/>
<line x1="37.027" y1="56.914" x2="56.35" y2="34.989" stroke="#8c8c8c" stroke-width="0.3" stroke-dasharray="1.2,0.8"/>
<line x1="56.35" y1="34.989" x2="28.533" y2="29.951" stroke="#8c8c8c" stroke-width="0.3" stroke-dasharray="1.2,0.8"/>
<line x1="56.35" y1="34.989" x2="64.844" y2="61.952" stroke="#8c8c8c" stroke-width="0.3" stroke-dasharray="1.2,0.8"/>
<line x1="28.533" y1="29.951" x2="37.027" y2="56.914" stroke="#8c8c8c" stroke-width="0.3" stroke-dasharray="1.2,0.8"/>
<line x1="37.027" y1="56.914" x2="64.844" y2="61.952" stroke="#8c8c8c" stroke-width="0.3" stroke-dasharray="1.2,0.8"/>
<line x1="48.666" y1="137.461" x2="59.936" y2="125.137" stroke="#8c8c8c" stroke-width="0.3" stroke-dasharray="1.2,0.8"/>
<line x1="64.844" y1="61.952" x2="70.076" y2="77.811" stroke="#8c8c8c" stroke-width="0.3" stroke-dasharray="1.2,0.8"/>
<line x1="29.46" y1="103.484" x2="43.425" y2="77.811" stroke="#8c8c8c" stroke-width="0.3" stroke-dasharray="1.2,0.8"/>
<line x1="50.718" y1="98.413" x2="29.46" y2="103.484" stroke="#8c8c8c" stroke-width="0.3" stroke-dasharray="1.2,0.8"/>
<line x1="37.027" y1="56.914" x2="16.925" y2="65.489" stroke="#8c8c8c" stroke-width="0.3" stroke-dasharray="1.2,0.8"/>
<line x1="28.533" y1="29.951" x2="15.492" y2="53.194" stroke="#8c8c8c" stroke-width="0.3" stroke-dasharray="1.2,0.8"/>
<line x1="86.587" y1="125.137" x2="100.552" y2="99.465" stroke="#8c8c8c" stroke-width="0.3" stroke-dasharray="1.2,0.8"/>
<line x1="79.294" y1="104.536" x2="100.552" y2="99.465" stroke="#8c8c8c" stroke-width="0.3" stroke-dasharray="1.2,0.8"/>
<line x1="56.35" y1="34.989" x2="76.452" y2="26.415" stroke="#8c8c8c" stroke-width="0.3" stroke-dasharray="1.2,0.8"/>
<line x1="64.844" y1="61.952" x2="91.495" y2="61.952" stroke="#8c8c8c" stroke-width="0.3" stroke-dasharray="1.2,0.8"/>
<line x1="70.076" y1="77.811" x2="91.495" y2="61.952" stroke="#8c8c8c" stroke-width="0.3" stroke-dasharray="1.2,0.8"/>
<line x1="28.533" y1="29.951" x2="49.952" y2="14.092" stroke="#8c8c8c" stroke-width="0.3" stroke-dasharray="1.2,0.8"/>
<line x1="59.936" y1="125.137" x2="86.587" y2="125.137" stroke="#8c8c8c" stroke-width="0.3" stroke-dasharray="1.2,0.8"/>
<line x1="43.425" y1="77.811" x2="16.925" y2="65.489" stroke="#141414" stroke-width="0.4"/>
<line x1="35.624" y1="114.218" x2="50.718" y2="98.413" stroke="#141414" stroke-width="0.4"/>
<line x1="37.027" y1="56.914" x2="15.492" y2="53.194" stroke="#141414" stroke-width="0.4"/>
<line x1="48.666" y1="137.461" x2="35.624" y2="114.218" stroke="#141414" stroke-width="0.4"/>
<line x1="49.952" y1="14.092" x2="76.452" y2="26.415" stroke="#141414" stroke-width="0.4"/>
<line x1="94.388" y1="88.731" x2="79.294" y2="104.536" stroke="#141414" stroke-width="0.4"/>
<line x1="56.35" y1="34.989" x2="77.885" y2="38.71" stroke="#141414" stroke-width="0.4"/>
<line x1="77.885" y1="38.71" x2="64.844" y2="61.952" stroke="#141414" stroke-width="0.4"/>
<line x1="70.076" y1="77.811" x2="94.388" y2="88.731" stroke="#141414" stroke-width="0.4"/>
<line x1="72.977" y1="148.38" x2="48.666" y2="137.461" stroke="#141414" stroke-width="0.4"/>
<line x1="59.936" y1="125.137" x2="72.977" y2="148.38" stroke="#141414" stroke-width="0.4"/>
<line x1="43.425" y1="77.811" x2="35.181" y2="78.317" stroke="#141414" stroke-width="0.4"/>
<line x1="35.181" y1="78.317" x2="25.405" y2="96.288" stroke="#141414" stroke-width="0.4"/>
<line x1="25.405" y1="96.288" x2="29.46" y2="103.484" stroke="#141414" stroke-width="0.4"/>
<line x1="29.46" y1="103.484" x2="28.211" y2="108.355" stroke="#141414" stroke-width="0.4"/>
<line x1="28.211" y1="108.355" x2="43.516" y2="104.704" stroke="#141414" stroke-width="0.4"/>
<line x1="43.516" y1="104.704" x2="50.718" y2="98.413" stroke="#141414" stroke-width="0.4"/>
<line x1="16.925" y1="65.489" x2="13.022" y2="62.318" stroke="#141414" stroke-width="0.4"/>
<line x1="13.022" y1="62.318" x2="27.496" y2="56.144" stroke="#141414" stroke-width="0.4"/>
<line x1="27.496" y1="56.144" x2="37.027" y2="56.914" stroke="#141414" stroke-width="0.4"/>
<line x1="15.492" y1="53.194" x2="11.343" y2="46.282" stroke="#141414" stroke-width="0.4"/>
<line x1="11.343" y1="46.282" x2="20.472" y2="30.012" stroke="#141414" stroke-width="0.4"/>
<line x1="20.472" y1="30.012" x2="28.533" y2="29.951" stroke="#141414" stroke-width="0.4"/>
<line x1="100.552" y1="99.465" x2="104.606" y2="106.661" stroke="#141414" stroke-width="0.4"/>
<line x1="104.606" y1="106.661" x2="94.831" y2="124.631" stroke="#141414" stroke-width="0.4"/>
<line x1="94.831" y1="124.631" x2="86.587" y2="125.137" stroke="#141414" stroke-width="0.4"/>
<line x1="100.552" y1="99.465" x2="101.801" y2="94.594" stroke="#141414" stroke-width="0.4"/>
<line x1="101.801" y1="94.594" x2="86.496" y2="98.245" stroke="#141414" stroke-width="0.4"/>
<line x1="86.496" y1="98.245" x2="79.294" y2="104.536" stroke="#141414" stroke-width="0.4"/>
<line x1="76.452" y1="26.415" x2="80.354" y2="29.586" stroke="#141414" stroke-width="0.4"/>
<line x1="80.354" y1="29.586" x2="65.881" y2="35.76" stroke="#141414" stroke-width="0.4"/>
<line x1="65.881" y1="35.76" x2="56.35" y2="34.989" stroke="#141414" stroke-width="0.4"/>
<line x1="91.495" y1="61.952" x2="80.302" y2="54.952" stroke="#141414" stroke-width="0.4"/>
<line x1="80.302" y1="54.952" x2="76.037" y2="54.952" stroke="#141414" stroke-width="0.4"/>
<line x1="76.037" y1="54.952" x2="64.844" y2="61.952" stroke="#141414" stroke-width="0.4"/>
<line x1="91.495" y1="61.952" x2="86.664" y2="74.239" stroke="#141414" stroke-width="0.4"/>
<line x1="86.664" y1="74.239" x2="83.237" y2="76.776" stroke="#141414" stroke-width="0.4"/>
<line x1="83.237" y1="76.776" x2="70.076" y2="77.811" stroke="#141414" stroke-width="0.4"/>
<line x1="49.952" y1="14.092" x2="42.573" y2="10.845" stroke="#141414" stroke-width="0.4"/>
<line x1="42.573" y1="10.845" x2="27.58" y2="21.947" stroke="#141414" stroke-width="0.4"/>
<line x1="27.58" y1="21.947" x2="28.533" y2="29.951" stroke="#141414" stroke-width="0.4"/>
<line x1="86.587" y1="125.137" x2="78.592" y2="132.137" stroke="#141414" stroke-width="0.4"/>
<line x1="78.592" y1="132.137" x2="67.931" y2="132.137" stroke="#141414" stroke-width="0.4"/>
<line x1="67.931" y1="132.137" x2="59.936" y2="125.137" stroke="#141414" stroke-width="0.4"/>
<circle cx="33.368" cy="88.975" r="1.96" fill="#ffe082" stroke="#464646" stroke-width="0.2"/>
<text x="33.368" y="89.65" font-size="1.92" text-anchor="middle" fill="#141414">133</text>
<circle cx="37.976" cy="103.739" r="1.96" fill="#ffe082" stroke="#464646" stroke-width="0.2"/>
<text x="37.976" y="104.41" font-size="1.92" text-anchor="middle" fill="#141414">134</text>
<circle cx="23.617" cy="60.216" r="1.96" fill="#ffe082" stroke="#464646" stroke-width="0.2"/>
<text x="23.617" y="60.89" font-size="1.92" text-anchor="middle" fill="#141414">135</text>
<circle cx="18.96" cy="39.86" r="1.96" fill="#99d9fa" stroke="#464646" stroke-width="0.2"/>
<text x="18.96" y="40.53" font-size="1.92" text-anchor="middle" fill="#141414">136</text>
<circle cx="96.644" cy="113.974" r="1.96" fill="#ffe082" stroke="#464646" stroke-width="0.2"/>
<text x="96.644" y="114.65" font-size="1.92" text-anchor="middle" fill="#141414">137</text>
<circle cx="92.036" cy="99.21" r="1.96" fill="#ffe082" stroke="#464646" stroke-width="0.2"/>
<text x="92.036" y="99.88" font-size="1.92" text-anchor="middle" fill="#141414">138</text>
<circle cx="69.759" cy="31.687" r="1.96" fill="#ffe082" stroke="#464646" stroke-width="0.2"/>
<text x="69.759" y="32.36" font-size="1.92" text-anchor="middle" fill="#141414">139</text>
<circle cx="78.169" cy="58.452" r="1.96" fill="#ffe082" stroke="#464646" stroke-width="0.2"/>
<text x="78.169" y="59.12" font-size="1.92" text-anchor="middle" fill="#141414">140</text>
<circle cx="82.868" cy="72.695" r="1.96" fill="#ffe082" stroke="#464646" stroke-width="0.2"/>
<text x="82.868" y="73.37" font-size="1.92" text-anchor="middle" fill="#141414">141</text>
<circle cx="37.16" cy="19.209" r="1.96" fill="#ffe082" stroke="#464646" stroke-width="0.2"/>
<text x="37.16" y="19.88" font-size="1.92" text-anchor="middle" fill="#141414">142</text>
<circle cx="73.262" cy="128.637" r="1.96" fill="#ffe082" stroke="#464646" stroke-width="0.2"/>
<text x="73.262" y="129.31" font-size="1.92" text-anchor="middle" fill="#141414">143</text>
<circle cx="40.636" cy="40.618" r="4.60" fill="#eaf1fe" stroke="#2e78e6" stroke-width="0.3"/>
<text x="40.636" y="42.42" font-size="5.20" text-anchor="middle" fill="#14306e" font-weight="bold">13</text>
<text x="205.0" y="295.0" font-size="3.2" text-anchor="end" fill="#737373" font-family="sans-serif">13 / 14</text>
<g pointer-events="none"><text x="105.0" y="83.2" text-anchor="middle" font-family="sans-serif" font-size="12.4" fill="#9aa0a6" fill-opacity="0.3" transform="rotate(-28 105.0 83.2)">papercraft.kr</text><text x="105.0" y="148.5" text-anchor="middle" font-family="sans-serif" font-size="12.4" fill="#9aa0a6" fill-opacity="0.3" transform="rotate(-28 105.0 148.5)">papercraft.kr</text><text x="105.0" y="213.8" text-anchor="middle" font-family="sans-serif" font-size="12.4" fill="#9aa0a6" fill-opacity="0.3" transform="rotate(-28 105.0 213.8)">papercraft.kr</text></g></svg>
