<svg xmlns="http://www.w3.org/2000/svg" xmlns:xlink="http://www.w3.org/1999/xlink" width="210.00mm" height="297.00mm" viewBox="0 0 210.00 297.00">
<rect x="0" y="0" width="210.00" height="297.00" fill="#ffffff" stroke="#cccccc" stroke-width="0.2"/>
<polygon points="49.82,101.37 45.002,108.37 22.515,108.37 17.697,101.37" fill="rgb(216,216,216)"/>
<polygon points="49.82,69.247 45.002,62.247 22.515,62.247 17.697,69.247" fill="rgb(216,216,216)"/>
<polygon points="81.944,101.37 88.944,96.552 88.944,74.066 81.944,69.247" fill="rgb(216,216,216)"/>
<polygon points="81.944,101.37 88.944,106.189 88.944,128.675 81.944,133.494" fill="rgb(216,216,216)"/>
<polygon points="81.944,69.247 88.944,64.428 88.944,41.942 81.944,37.124" fill="rgb(216,216,216)"/>
<polygon points="17.697,101.37 10.697,96.552 10.697,74.066 17.697,69.247" fill="rgb(216,216,216)"/>
<polygon points="49.82,133.494 54.639,140.494 77.126,140.494 81.944,133.494" fill="rgb(216,216,216)"/>
<polygon points="49.82,101.37 45.002,108.37 22.515,108.37 17.697,101.37" fill="#99d9fa"/>
<line x1="49.821" y1="101.37" x2="49.821" y2="69.247" stroke="#8c8c8c" stroke-width="0.3" stroke-dasharray="1.2,0.8"/>
<line x1="81.944" y1="101.37" x2="49.821" y2="101.37" stroke="#8c8c8c" stroke-width="0.3" stroke-dasharray="1.2,0.8"/>
<line x1="49.821" y1="69.247" x2="81.944" y2="69.247" stroke="#8c8c8c" stroke-width="0.3" stroke-dasharray="1.2,0.8"/>
<line x1="49.821" y1="37.123" x2="81.944" y2="37.123" stroke="#8c8c8c" stroke-width="0.3" stroke-dasharray="1.2,0.8"/>
<line x1="81.944" y1="37.123" x2="81.944" y2="5.0" stroke="#8c8c8c" stroke-width="0.3" stroke-dasharray="1.2,0.8"/>
<line x1="17.697" y1="101.37" x2="49.82" y2="101.37" stroke="#8c8c8c" stroke-width="0.3" stroke-dasharray="1.2,0.8"/>
<line x1="17.697" y1="69.247" x2="49.82" y2="69.247" stroke="#8c8c8c" stroke-width="0.3" stroke-dasharray="1.2,0.8"/>
<line x1="81.944" y1="69.247" x2="81.944" y2="101.37" stroke="#8c8c8c" stroke-width="0.3" stroke-dasharray="1.2,0.8"/>
<line x1="81.944" y1="133.494" x2="81.944" y2="101.37" stroke="#8c8c8c" stroke-width="0.3" stroke-dasharray="1.2,0.8"/>
<line x1="81.944" y1="37.124" x2="81.944" y2="69.247" stroke="#8c8c8c" stroke-width="0.3" stroke-dasharray="1.2,0.8"/>
<line x1="17.697" y1="69.247" x2="17.697" y2="101.37" stroke="#8c8c8c" stroke-width="0.3" stroke-dasharray="1.2,0.8"/>
<line x1="81.944" y1="133.494" x2="49.82" y2="133.494" stroke="#8c8c8c" stroke-width="0.3" stroke-dasharray="1.2,0.8"/>
<line x1="49.821" y1="133.494" x2="49.821" y2="101.37" stroke="#141414" stroke-width="0.4"/>
<line x1="49.821" y1="69.247" x2="49.821" y2="37.123" stroke="#141414" stroke-width="0.4"/>
<line x1="114.067" y1="5.0" x2="114.067" y2="37.123" stroke="#141414" stroke-width="0.4"/>
<line x1="81.944" y1="5.0" x2="114.067" y2="5.0" stroke="#141414" stroke-width="0.4"/>
<line x1="114.067" y1="37.123" x2="81.944" y2="37.123" stroke="#141414" stroke-width="0.4"/>
<line x1="49.821" y1="37.123" x2="49.821" y2="5.0" stroke="#141414" stroke-width="0.4"/>
<line x1="49.821" y1="5.0" x2="81.944" y2="5.0" stroke="#141414" stroke-width="0.4"/>
<line x1="49.82" y1="101.37" x2="45.002" y2="108.37" stroke="#141414" stroke-width="0.4"/>
<line x1="45.002" y1="108.37" x2="22.515" y2="108.37" stroke="#141414" stroke-width="0.4"/>
<line x1="22.515" y1="108.37" x2="17.697" y2="101.37" stroke="#141414" stroke-width="0.4"/>
<line x1="49.82" y1="69.247" x2="45.002" y2="62.247" stroke="#141414" stroke-width="0.4"/>
<line x1="45.002" y1="62.247" x2="22.515" y2="62.247" stroke="#141414" stroke-width="0.4"/>
<line x1="22.515" y1="62.247" x2="17.697" y2="69.247" stroke="#141414" stroke-width="0.4"/>
<line x1="81.944" y1="101.37" x2="88.944" y2="96.552" stroke="#141414" stroke-width="0.4"/>
<line x1="88.944" y1="96.552" x2="88.944" y2="74.066" stroke="#141414" stroke-width="0.4"/>
<line x1="88.944" y1="74.066" x2="81.944" y2="69.247" stroke="#141414" stroke-width="0.4"/>
<line x1="81.944" y1="101.37" x2="88.944" y2="106.189" stroke="#141414" stroke-width="0.4"/>
<line x1="88.944" y1="106.189" x2="88.944" y2="128.675" stroke="#141414" stroke-width="0.4"/>
<line x1="88.944" y1="128.675" x2="81.944" y2="133.494" stroke="#141414" stroke-width="0.4"/>
<line x1="81.944" y1="69.247" x2="88.944" y2="64.428" stroke="#141414" stroke-width="0.4"/>
<line x1="88.944" y1="64.428" x2="88.944" y2="41.942" stroke="#141414" stroke-width="0.4"/>
<line x1="88.944" y1="41.942" x2="81.944" y2="37.124" stroke="#141414" stroke-width="0.4"/>
<line x1="17.697" y1="101.37" x2="10.697" y2="96.552" stroke="#141414" stroke-width="0.4"/>
<line x1="10.697" y1="96.552" x2="10.697" y2="74.066" stroke="#141414" stroke-width="0.4"/>
<line x1="10.697" y1="74.066" x2="17.697" y2="69.247" stroke="#141414" stroke-width="0.4"/>
<line x1="49.82" y1="133.494" x2="54.639" y2="140.494" stroke="#141414" stroke-width="0.4"/>
<line x1="54.639" y1="140.494" x2="77.126" y2="140.494" stroke="#141414" stroke-width="0.4"/>
<line x1="77.126" y1="140.494" x2="81.944" y2="133.494" stroke="#141414" stroke-width="0.4"/>
<circle cx="33.759" cy="104.87" r="2.40" fill="#99d9fa" stroke="#464646" stroke-width="0.2"/>
<text x="33.759" y="105.69" font-size="2.35" text-anchor="middle" fill="#141414">132</text>
<circle cx="33.759" cy="65.747" r="2.40" fill="#ffe082" stroke="#464646" stroke-width="0.2"/>
<text x="33.759" y="66.57" font-size="2.35" text-anchor="middle" fill="#141414">133</text>
<circle cx="85.444" cy="85.309" r="2.40" fill="#ffe082" stroke="#464646" stroke-width="0.2"/>
<text x="85.444" y="86.13" font-size="2.35" text-anchor="middle" fill="#141414">134</text>
<circle cx="85.444" cy="117.432" r="2.40" fill="#ffe082" stroke="#464646" stroke-width="0.2"/>
<text x="85.444" y="118.26" font-size="2.35" text-anchor="middle" fill="#141414">135</text>
<circle cx="85.444" cy="53.185" r="2.40" fill="#ffe082" stroke="#464646" stroke-width="0.2"/>
<text x="85.444" y="54.01" font-size="2.35" text-anchor="middle" fill="#141414">136</text>
<circle cx="14.197" cy="85.309" r="2.40" fill="#ffe082" stroke="#464646" stroke-width="0.2"/>
<text x="14.197" y="86.13" font-size="2.35" text-anchor="middle" fill="#141414">137</text>
<circle cx="65.882" cy="136.994" r="2.40" fill="#ffe082" stroke="#464646" stroke-width="0.2"/>
<text x="65.882" y="137.82" font-size="2.35" text-anchor="middle" fill="#141414">138</text>
<circle cx="71.236" cy="122.786" r="4.60" fill="#eaf1fe" stroke="#2e78e6" stroke-width="0.3"/>
<text x="71.236" y="124.59" font-size="5.20" text-anchor="middle" fill="#14306e" font-weight="bold">18</text>
<text x="205.0" y="295.0" font-size="3.2" text-anchor="end" fill="#737373" font-family="sans-serif">11 / 11</text>
</svg>
