<svg xmlns="http://www.w3.org/2000/svg" xmlns:xlink="http://www.w3.org/1999/xlink" width="210.00mm" height="297.00mm" viewBox="0 0 210.00 297.00">
<rect x="0" y="0" width="210.00" height="297.00" fill="#ffffff" stroke="#cccccc" stroke-width="0.2"/>
<polygon points="81.944,69.247 77.126,76.247 54.639,76.247 49.82,69.247" fill="rgb(216,216,216)"/>
<polygon points="81.944,37.124 86.763,30.123 109.249,30.123 114.068,37.124" fill="rgb(216,216,216)"/>
<polygon points="81.944,37.124 77.126,30.123 54.639,30.123 49.82,37.124" fill="rgb(216,216,216)"/>
<polygon points="114.068,69.247 121.067,74.066 121.067,96.552 114.068,101.37" fill="rgb(216,216,216)"/>
<polygon points="17.697,5.0 10.697,9.819 10.697,32.305 17.697,37.124" fill="rgb(216,216,216)"/>
<polygon points="81.944,101.37 86.763,108.37 109.249,108.37 114.068,101.37" fill="rgb(216,216,216)"/>
<polygon points="146.191,69.247 153.191,64.428 153.191,41.942 146.191,37.124" fill="rgb(216,216,216)"/>
<polygon points="81.944,69.247 77.126,76.247 54.639,76.247 49.82,69.247" fill="#99d9fa"/>
<line x1="81.944" y1="69.247" x2="81.944" y2="37.123" stroke="#8c8c8c" stroke-width="0.3" stroke-dasharray="1.2,0.8"/>
<line x1="114.067" y1="69.247" x2="81.944" y2="69.247" stroke="#8c8c8c" stroke-width="0.3" stroke-dasharray="1.2,0.8"/>
<line x1="114.067" y1="37.123" x2="114.067" y2="69.247" stroke="#8c8c8c" stroke-width="0.3" stroke-dasharray="1.2,0.8"/>
<line x1="49.821" y1="69.247" x2="49.821" y2="37.123" stroke="#8c8c8c" stroke-width="0.3" stroke-dasharray="1.2,0.8"/>
<line x1="49.821" y1="37.123" x2="17.697" y2="37.123" stroke="#8c8c8c" stroke-width="0.3" stroke-dasharray="1.2,0.8"/>
<line x1="49.82" y1="69.247" x2="81.944" y2="69.247" stroke="#8c8c8c" stroke-width="0.3" stroke-dasharray="1.2,0.8"/>
<line x1="114.068" y1="37.124" x2="81.944" y2="37.124" stroke="#8c8c8c" stroke-width="0.3" stroke-dasharray="1.2,0.8"/>
<line x1="49.82" y1="37.124" x2="81.944" y2="37.124" stroke="#8c8c8c" stroke-width="0.3" stroke-dasharray="1.2,0.8"/>
<line x1="114.068" y1="101.37" x2="114.068" y2="69.247" stroke="#8c8c8c" stroke-width="0.3" stroke-dasharray="1.2,0.8"/>
<line x1="17.697" y1="37.124" x2="17.697" y2="5.0" stroke="#8c8c8c" stroke-width="0.3" stroke-dasharray="1.2,0.8"/>
<line x1="114.068" y1="101.37" x2="81.944" y2="101.37" stroke="#8c8c8c" stroke-width="0.3" stroke-dasharray="1.2,0.8"/>
<line x1="146.191" y1="37.124" x2="146.191" y2="69.247" stroke="#8c8c8c" stroke-width="0.3" stroke-dasharray="1.2,0.8"/>
<line x1="81.944" y1="101.37" x2="81.944" y2="69.247" stroke="#141414" stroke-width="0.4"/>
<line x1="17.697" y1="5.0" x2="49.821" y2="5.0" stroke="#141414" stroke-width="0.4"/>
<line x1="49.821" y1="5.0" x2="49.821" y2="37.123" stroke="#141414" stroke-width="0.4"/>
<line x1="146.191" y1="69.247" x2="114.067" y2="69.247" stroke="#141414" stroke-width="0.4"/>
<line x1="114.067" y1="37.123" x2="146.191" y2="37.123" stroke="#141414" stroke-width="0.4"/>
<line x1="49.821" y1="69.247" x2="17.697" y2="69.247" stroke="#141414" stroke-width="0.4"/>
<line x1="17.697" y1="69.247" x2="17.697" y2="37.123" stroke="#141414" stroke-width="0.4"/>
<line x1="81.944" y1="69.247" x2="77.126" y2="76.247" stroke="#141414" stroke-width="0.4"/>
<line x1="77.126" y1="76.247" x2="54.639" y2="76.247" stroke="#141414" stroke-width="0.4"/>
<line x1="54.639" y1="76.247" x2="49.82" y2="69.247" stroke="#141414" stroke-width="0.4"/>
<line x1="81.944" y1="37.124" x2="86.763" y2="30.123" stroke="#141414" stroke-width="0.4"/>
<line x1="86.763" y1="30.123" x2="109.249" y2="30.123" stroke="#141414" stroke-width="0.4"/>
<line x1="109.249" y1="30.123" x2="114.068" y2="37.124" stroke="#141414" stroke-width="0.4"/>
<line x1="81.944" y1="37.124" x2="77.126" y2="30.123" stroke="#141414" stroke-width="0.4"/>
<line x1="77.126" y1="30.123" x2="54.639" y2="30.123" stroke="#141414" stroke-width="0.4"/>
<line x1="54.639" y1="30.123" x2="49.82" y2="37.124" stroke="#141414" stroke-width="0.4"/>
<line x1="114.068" y1="69.247" x2="121.067" y2="74.066" stroke="#141414" stroke-width="0.4"/>
<line x1="121.067" y1="74.066" x2="121.067" y2="96.552" stroke="#141414" stroke-width="0.4"/>
<line x1="121.067" y1="96.552" x2="114.068" y2="101.37" stroke="#141414" stroke-width="0.4"/>
<line x1="17.697" y1="5.0" x2="10.697" y2="9.819" stroke="#141414" stroke-width="0.4"/>
<line x1="10.697" y1="9.819" x2="10.697" y2="32.305" stroke="#141414" stroke-width="0.4"/>
<line x1="10.697" y1="32.305" x2="17.697" y2="37.124" stroke="#141414" stroke-width="0.4"/>
<line x1="81.944" y1="101.37" x2="86.763" y2="108.37" stroke="#141414" stroke-width="0.4"/>
<line x1="86.763" y1="108.37" x2="109.249" y2="108.37" stroke="#141414" stroke-width="0.4"/>
<line x1="109.249" y1="108.37" x2="114.068" y2="101.37" stroke="#141414" stroke-width="0.4"/>
<line x1="146.191" y1="69.247" x2="153.191" y2="64.428" stroke="#141414" stroke-width="0.4"/>
<line x1="153.191" y1="64.428" x2="153.191" y2="41.942" stroke="#141414" stroke-width="0.4"/>
<line x1="153.191" y1="41.942" x2="146.191" y2="37.124" stroke="#141414" stroke-width="0.4"/>
<circle cx="65.882" cy="72.747" r="2.40" fill="#99d9fa" stroke="#464646" stroke-width="0.2"/>
<text x="65.882" y="73.57" font-size="2.35" text-anchor="middle" fill="#141414">72</text>
<circle cx="98.006" cy="33.624" r="2.40" fill="#ffe082" stroke="#464646" stroke-width="0.2"/>
<text x="98.006" y="34.45" font-size="2.35" text-anchor="middle" fill="#141414">73</text>
<circle cx="65.882" cy="33.624" r="2.40" fill="#ffe082" stroke="#464646" stroke-width="0.2"/>
<text x="65.882" y="34.45" font-size="2.35" text-anchor="middle" fill="#141414">74</text>
<circle cx="117.568" cy="85.309" r="2.40" fill="#ffe082" stroke="#464646" stroke-width="0.2"/>
<text x="117.568" y="86.13" font-size="2.35" text-anchor="middle" fill="#141414">75</text>
<circle cx="14.197" cy="21.062" r="2.40" fill="#ffe082" stroke="#464646" stroke-width="0.2"/>
<text x="14.197" y="21.89" font-size="2.35" text-anchor="middle" fill="#141414">76</text>
<circle cx="98.006" cy="104.87" r="2.40" fill="#ffe082" stroke="#464646" stroke-width="0.2"/>
<text x="98.006" y="105.69" font-size="2.35" text-anchor="middle" fill="#141414">77</text>
<circle cx="149.691" cy="53.185" r="2.40" fill="#ffe082" stroke="#464646" stroke-width="0.2"/>
<text x="149.691" y="54.01" font-size="2.35" text-anchor="middle" fill="#141414">78</text>
<circle cx="103.36" cy="90.663" r="4.60" fill="#eaf1fe" stroke="#2e78e6" stroke-width="0.3"/>
<text x="103.36" y="92.46" font-size="5.20" text-anchor="middle" fill="#14306e" font-weight="bold">10</text>
<polygon points="81.944,175.617 77.126,182.617 54.639,182.617 49.82,175.617" fill="rgb(216,216,216)"/>
<polygon points="81.944,143.494 86.763,136.494 109.249,136.494 114.068,143.494" fill="rgb(216,216,216)"/>
<polygon points="81.944,143.494 77.126,136.494 54.639,136.494 49.82,143.494" fill="rgb(216,216,216)"/>
<polygon points="114.068,175.617 121.067,180.436 121.067,202.922 114.068,207.741" fill="rgb(216,216,216)"/>
<polygon points="17.697,111.37 10.697,116.189 10.697,138.675 17.697,143.494" fill="rgb(216,216,216)"/>
<polygon points="81.944,207.741 86.763,214.741 109.249,214.741 114.068,207.741" fill="rgb(216,216,216)"/>
<polygon points="146.191,175.617 153.191,170.799 153.191,148.312 146.191,143.494" fill="rgb(216,216,216)"/>
<polygon points="81.944,175.617 77.126,182.617 54.639,182.617 49.82,175.617" fill="#99d9fa"/>
<line x1="81.944" y1="175.617" x2="81.944" y2="143.494" stroke="#8c8c8c" stroke-width="0.3" stroke-dasharray="1.2,0.8"/>
<line x1="114.067" y1="175.617" x2="81.944" y2="175.617" stroke="#8c8c8c" stroke-width="0.3" stroke-dasharray="1.2,0.8"/>
<line x1="114.067" y1="143.494" x2="114.067" y2="175.617" stroke="#8c8c8c" stroke-width="0.3" stroke-dasharray="1.2,0.8"/>
<line x1="49.821" y1="175.617" x2="49.821" y2="143.494" stroke="#8c8c8c" stroke-width="0.3" stroke-dasharray="1.2,0.8"/>
<line x1="49.821" y1="143.494" x2="17.697" y2="143.494" stroke="#8c8c8c" stroke-width="0.3" stroke-dasharray="1.2,0.8"/>
<line x1="49.82" y1="175.617" x2="81.944" y2="175.617" stroke="#8c8c8c" stroke-width="0.3" stroke-dasharray="1.2,0.8"/>
<line x1="114.068" y1="143.494" x2="81.944" y2="143.494" stroke="#8c8c8c" stroke-width="0.3" stroke-dasharray="1.2,0.8"/>
<line x1="49.82" y1="143.494" x2="81.944" y2="143.494" stroke="#8c8c8c" stroke-width="0.3" stroke-dasharray="1.2,0.8"/>
<line x1="114.068" y1="207.741" x2="114.068" y2="175.617" stroke="#8c8c8c" stroke-width="0.3" stroke-dasharray="1.2,0.8"/>
<line x1="17.697" y1="143.494" x2="17.697" y2="111.37" stroke="#8c8c8c" stroke-width="0.3" stroke-dasharray="1.2,0.8"/>
<line x1="114.068" y1="207.741" x2="81.944" y2="207.741" stroke="#8c8c8c" stroke-width="0.3" stroke-dasharray="1.2,0.8"/>
<line x1="146.191" y1="143.494" x2="146.191" y2="175.617" stroke="#8c8c8c" stroke-width="0.3" stroke-dasharray="1.2,0.8"/>
<line x1="81.944" y1="207.741" x2="81.944" y2="175.617" stroke="#141414" stroke-width="0.4"/>
<line x1="17.697" y1="111.37" x2="49.821" y2="111.37" stroke="#141414" stroke-width="0.4"/>
<line x1="49.821" y1="111.37" x2="49.821" y2="143.494" stroke="#141414" stroke-width="0.4"/>
<line x1="146.191" y1="175.617" x2="114.067" y2="175.617" stroke="#141414" stroke-width="0.4"/>
<line x1="114.067" y1="143.494" x2="146.191" y2="143.494" stroke="#141414" stroke-width="0.4"/>
<line x1="49.821" y1="175.617" x2="17.697" y2="175.617" stroke="#141414" stroke-width="0.4"/>
<line x1="17.697" y1="175.617" x2="17.697" y2="143.494" stroke="#141414" stroke-width="0.4"/>
<line x1="81.944" y1="175.617" x2="77.126" y2="182.617" stroke="#141414" stroke-width="0.4"/>
<line x1="77.126" y1="182.617" x2="54.639" y2="182.617" stroke="#141414" stroke-width="0.4"/>
<line x1="54.639" y1="182.617" x2="49.82" y2="175.617" stroke="#141414" stroke-width="0.4"/>
<line x1="81.944" y1="143.494" x2="86.763" y2="136.494" stroke="#141414" stroke-width="0.4"/>
<line x1="86.763" y1="136.494" x2="109.249" y2="136.494" stroke="#141414" stroke-width="0.4"/>
<line x1="109.249" y1="136.494" x2="114.068" y2="143.494" stroke="#141414" stroke-width="0.4"/>
<line x1="81.944" y1="143.494" x2="77.126" y2="136.494" stroke="#141414" stroke-width="0.4"/>
<line x1="77.126" y1="136.494" x2="54.639" y2="136.494" stroke="#141414" stroke-width="0.4"/>
<line x1="54.639" y1="136.494" x2="49.82" y2="143.494" stroke="#141414" stroke-width="0.4"/>
<line x1="114.068" y1="175.617" x2="121.067" y2="180.436" stroke="#141414" stroke-width="0.4"/>
<line x1="121.067" y1="180.436" x2="121.067" y2="202.922" stroke="#141414" stroke-width="0.4"/>
<line x1="121.067" y1="202.922" x2="114.068" y2="207.741" stroke="#141414" stroke-width="0.4"/>
<line x1="17.697" y1="111.37" x2="10.697" y2="116.189" stroke="#141414" stroke-width="0.4"/>
<line x1="10.697" y1="116.189" x2="10.697" y2="138.675" stroke="#141414" stroke-width="0.4"/>
<line x1="10.697" y1="138.675" x2="17.697" y2="143.494" stroke="#141414" stroke-width="0.4"/>
<line x1="81.944" y1="207.741" x2="86.763" y2="214.741" stroke="#141414" stroke-width="0.4"/>
<line x1="86.763" y1="214.741" x2="109.249" y2="214.741" stroke="#141414" stroke-width="0.4"/>
<line x1="109.249" y1="214.741" x2="114.068" y2="207.741" stroke="#141414" stroke-width="0.4"/>
<line x1="146.191" y1="175.617" x2="153.191" y2="170.799" stroke="#141414" stroke-width="0.4"/>
<line x1="153.191" y1="170.799" x2="153.191" y2="148.312" stroke="#141414" stroke-width="0.4"/>
<line x1="153.191" y1="148.312" x2="146.191" y2="143.494" stroke="#141414" stroke-width="0.4"/>
<circle cx="65.882" cy="179.117" r="2.40" fill="#99d9fa" stroke="#464646" stroke-width="0.2"/>
<text x="65.882" y="179.94" font-size="2.35" text-anchor="middle" fill="#141414">79</text>
<circle cx="98.006" cy="139.994" r="2.40" fill="#ffe082" stroke="#464646" stroke-width="0.2"/>
<text x="98.006" y="140.82" font-size="2.35" text-anchor="middle" fill="#141414">80</text>
<circle cx="65.882" cy="139.994" r="2.40" fill="#ffe082" stroke="#464646" stroke-width="0.2"/>
<text x="65.882" y="140.82" font-size="2.35" text-anchor="middle" fill="#141414">81</text>
<circle cx="117.568" cy="191.679" r="2.40" fill="#ffe082" stroke="#464646" stroke-width="0.2"/>
<text x="117.568" y="192.50" font-size="2.35" text-anchor="middle" fill="#141414">82</text>
<circle cx="14.197" cy="127.432" r="2.40" fill="#ffe082" stroke="#464646" stroke-width="0.2"/>
<text x="14.197" y="128.26" font-size="2.35" text-anchor="middle" fill="#141414">83</text>
<circle cx="98.006" cy="211.241" r="2.40" fill="#ffe082" stroke="#464646" stroke-width="0.2"/>
<text x="98.006" y="212.07" font-size="2.35" text-anchor="middle" fill="#141414">84</text>
<circle cx="149.691" cy="159.556" r="2.40" fill="#ffe082" stroke="#464646" stroke-width="0.2"/>
<text x="149.691" y="160.38" font-size="2.35" text-anchor="middle" fill="#141414">85</text>
<circle cx="103.36" cy="197.033" r="4.60" fill="#eaf1fe" stroke="#2e78e6" stroke-width="0.3"/>
<text x="103.36" y="198.83" font-size="5.20" text-anchor="middle" fill="#14306e" font-weight="bold">11</text>
<text x="205.0" y="295.0" font-size="3.2" text-anchor="end" fill="#737373" font-family="sans-serif">7 / 11</text>
</svg>
