<svg xmlns="http://www.w3.org/2000/svg" xmlns:xlink="http://www.w3.org/1999/xlink" width="210.00mm" height="297.00mm" viewBox="0 0 210.00 297.00">
<rect x="0" y="0" width="210.00" height="297.00" fill="#ffffff" stroke="#cccccc" stroke-width="0.2"/>
<polygon points="33.09,26.265 35.493,20.429 51.806,16.918 56.396,21.25" fill="rgb(216,216,216)"/>
<polygon points="21.22,193.284 25.215,199.869 50.666,207.307 57.579,203.91" fill="rgb(216,216,216)"/>
<polygon points="106.479,188.961 113.802,191.331 126.87,214.362 125.147,221.864" fill="rgb(216,216,216)"/>
<polygon points="88.28,245.885 96.648,246.639 122.456,229.824 125.147,221.864" fill="rgb(216,216,216)"/>
<line x1="57.579" y1="203.91" x2="76.378" y2="188.961" stroke="#8c8c8c" stroke-width="0.3" stroke-dasharray="1.2,0.8"/>
<line x1="76.378" y1="188.961" x2="106.479" y2="188.961" stroke="#8c8c8c" stroke-width="0.3" stroke-dasharray="1.2,0.8"/>
<line x1="76.378" y1="188.961" x2="88.279" y2="245.885" stroke="#8c8c8c" stroke-width="0.3" stroke-dasharray="1.2,0.8"/>
<line x1="125.147" y1="221.864" x2="76.378" y2="188.961" stroke="#8c8c8c" stroke-width="0.3" stroke-dasharray="1.2,0.8"/>
<line x1="76.378" y1="188.961" x2="21.22" y2="193.284" stroke="#8c8c8c" stroke-width="0.3" stroke-dasharray="1.2,0.8"/>
<line x1="56.396" y1="21.25" x2="33.09" y2="26.265" stroke="#8c8c8c" stroke-width="0.3" stroke-dasharray="1.2,0.8"/>
<line x1="57.579" y1="203.91" x2="21.22" y2="193.284" stroke="#8c8c8c" stroke-width="0.3" stroke-dasharray="1.2,0.8"/>
<line x1="125.147" y1="221.864" x2="106.479" y2="188.961" stroke="#8c8c8c" stroke-width="0.3" stroke-dasharray="1.2,0.8"/>
<line x1="125.147" y1="221.864" x2="88.28" y2="245.885" stroke="#8c8c8c" stroke-width="0.3" stroke-dasharray="1.2,0.8"/>
<line x1="76.378" y1="188.961" x2="33.09" y2="26.265" stroke="#141414" stroke-width="0.4"/>
<line x1="56.396" y1="21.25" x2="84.252" y2="118.062" stroke="#141414" stroke-width="0.4"/>
<line x1="21.22" y1="193.284" x2="5.0" y2="160.881" stroke="#141414" stroke-width="0.4"/>
<line x1="5.0" y1="160.881" x2="76.378" y2="188.961" stroke="#141414" stroke-width="0.4"/>
<line x1="84.252" y1="118.062" x2="106.479" y2="188.961" stroke="#141414" stroke-width="0.4"/>
<line x1="88.279" y1="245.885" x2="57.579" y2="203.91" stroke="#141414" stroke-width="0.4"/>
<line x1="33.09" y1="26.265" x2="35.493" y2="20.429" stroke="#141414" stroke-width="0.4"/>
<line x1="35.493" y1="20.429" x2="51.806" y2="16.918" stroke="#141414" stroke-width="0.4"/>
<line x1="51.806" y1="16.918" x2="56.396" y2="21.25" stroke="#141414" stroke-width="0.4"/>
<line x1="21.22" y1="193.284" x2="25.215" y2="199.869" stroke="#141414" stroke-width="0.4"/>
<line x1="25.215" y1="199.869" x2="50.666" y2="207.307" stroke="#141414" stroke-width="0.4"/>
<line x1="50.666" y1="207.307" x2="57.579" y2="203.91" stroke="#141414" stroke-width="0.4"/>
<line x1="106.479" y1="188.961" x2="113.802" y2="191.331" stroke="#141414" stroke-width="0.4"/>
<line x1="113.802" y1="191.331" x2="126.87" y2="214.362" stroke="#141414" stroke-width="0.4"/>
<line x1="126.87" y1="214.362" x2="125.147" y2="221.864" stroke="#141414" stroke-width="0.4"/>
<line x1="88.28" y1="245.885" x2="96.648" y2="246.639" stroke="#141414" stroke-width="0.4"/>
<line x1="96.648" y1="246.639" x2="122.456" y2="229.824" stroke="#141414" stroke-width="0.4"/>
<line x1="122.456" y1="229.824" x2="125.147" y2="221.864" stroke="#141414" stroke-width="0.4"/>
<circle cx="44.196" cy="21.216" r="2.29" fill="#ffe082" stroke="#464646" stroke-width="0.2"/>
<text x="44.196" y="22.00" font-size="2.24" text-anchor="middle" fill="#141414">36</text>
<circle cx="38.67" cy="201.093" r="2.29" fill="#ffe082" stroke="#464646" stroke-width="0.2"/>
<text x="38.67" y="201.88" font-size="2.24" text-anchor="middle" fill="#141414">103</text>
<circle cx="118.075" cy="204.129" r="2.29" fill="#ffe082" stroke="#464646" stroke-width="0.2"/>
<text x="118.075" y="204.91" font-size="2.24" text-anchor="middle" fill="#141414">130</text>
<circle cx="108.133" cy="236.053" r="2.29" fill="#ffe082" stroke="#464646" stroke-width="0.2"/>
<text x="108.133" y="236.84" font-size="2.24" text-anchor="middle" fill="#141414">139</text>
<circle cx="65.935" cy="240.82" r="4.6" fill="#eaf1fe" stroke="#2e78e6" stroke-width="0.3"/>
<text x="65.935" y="242.62" font-size="5.2" text-anchor="middle" fill="#14306e" font-weight="bold">8</text>
</svg>
