<svg xmlns="http://www.w3.org/2000/svg" xmlns:xlink="http://www.w3.org/1999/xlink" width="210.00mm" height="297.00mm" viewBox="0 0 210.00 297.00">
<rect x="0" y="0" width="210.00" height="297.00" fill="#ffffff" stroke="#cccccc" stroke-width="0.2"/>
<polygon points="75.055,192.943 63.088,174.987 30.086,82.998 27.909,61.53" fill="rgb(216,216,216)"/>
<polygon points="75.055,192.943 80.237,169.703 80.156,61.27 74.938,38.038" fill="rgb(216,216,216)"/>
<polygon points="74.938,38.038 69.923,30.248 37.002,16.215 27.909,17.991" fill="rgb(216,216,216)"/>
<line x1="74.938" y1="38.038" x2="27.909" y2="61.531" stroke="#8c8c8c" stroke-width="0.3" stroke-dasharray="1.2,0.8"/>
<line x1="27.909" y1="61.531" x2="27.909" y2="17.991" stroke="#8c8c8c" stroke-width="0.3" stroke-dasharray="1.2,0.8"/>
<line x1="27.909" y1="61.53" x2="75.055" y2="192.943" stroke="#8c8c8c" stroke-width="0.3" stroke-dasharray="1.2,0.8"/>
<line x1="74.938" y1="38.038" x2="75.055" y2="192.943" stroke="#8c8c8c" stroke-width="0.3" stroke-dasharray="1.2,0.8"/>
<line x1="27.909" y1="17.991" x2="74.938" y2="38.038" stroke="#8c8c8c" stroke-width="0.3" stroke-dasharray="1.2,0.8"/>
<line x1="27.909" y1="61.531" x2="5.0" y2="31.065" stroke="#141414" stroke-width="0.4"/>
<line x1="5.0" y1="31.065" x2="27.909" y2="17.991" stroke="#141414" stroke-width="0.4"/>
<line x1="75.055" y1="192.943" x2="63.088" y2="174.987" stroke="#141414" stroke-width="0.4"/>
<line x1="63.088" y1="174.987" x2="30.086" y2="82.998" stroke="#141414" stroke-width="0.4"/>
<line x1="30.086" y1="82.998" x2="27.909" y2="61.53" stroke="#141414" stroke-width="0.4"/>
<line x1="75.055" y1="192.943" x2="80.237" y2="169.703" stroke="#141414" stroke-width="0.4"/>
<line x1="80.237" y1="169.703" x2="80.156" y2="61.27" stroke="#141414" stroke-width="0.4"/>
<line x1="80.156" y1="61.27" x2="74.938" y2="38.038" stroke="#141414" stroke-width="0.4"/>
<line x1="74.938" y1="38.038" x2="69.923" y2="30.248" stroke="#141414" stroke-width="0.4"/>
<line x1="69.923" y1="30.248" x2="37.002" y2="16.215" stroke="#141414" stroke-width="0.4"/>
<line x1="37.002" y1="16.215" x2="27.909" y2="17.991" stroke="#141414" stroke-width="0.4"/>
<circle cx="49.035" cy="128.115" r="2.29" fill="#ffe082" stroke="#464646" stroke-width="0.2"/>
<text x="49.035" y="128.90" font-size="2.24" text-anchor="middle" fill="#141414">65</text>
<circle cx="77.596" cy="115.489" r="2.29" fill="#ffe082" stroke="#464646" stroke-width="0.2"/>
<text x="77.596" y="116.27" font-size="2.24" text-anchor="middle" fill="#141414">66</text>
<circle cx="52.443" cy="25.623" r="2.29" fill="#ffe082" stroke="#464646" stroke-width="0.2"/>
<text x="52.443" y="26.41" font-size="2.24" text-anchor="middle" fill="#141414">126</text>
<circle cx="42.619" cy="187.828" r="4.6" fill="#eaf1fe" stroke="#2e78e6" stroke-width="0.3"/>
<text x="42.619" y="189.62800000000001" font-size="5.2" text-anchor="middle" fill="#14306e" font-weight="bold">17</text>
</svg>
