<svg xmlns="http://www.w3.org/2000/svg" xmlns:xlink="http://www.w3.org/1999/xlink" width="210.00mm" height="297.00mm" viewBox="0 0 210.00 297.00">
<rect x="0" y="0" width="210.00" height="297.00" fill="#ffffff" stroke="#cccccc" stroke-width="0.2"/>
<polygon points="44.133,25.671 41.327,18.577 51.331,8.573 58.424,11.38" fill="rgb(216,216,216)"/>
<polygon points="24.39,44.574 21.71,51.793 32.302,62.385 39.521,59.706" fill="rgb(216,216,216)"/>
<polygon points="24.39,44.574 17.06,46.937 6.939,35.895 9.93,28.798" fill="rgb(216,216,216)"/>
<polygon points="58.424,39.962 65.518,42.768 75.522,32.764 72.716,25.671" fill="rgb(216,216,216)"/>
<polygon points="39.521,59.706 37.158,67.035 48.2,77.156 55.297,74.165" fill="rgb(216,216,216)"/>
<polygon points="72.716,25.671 75.522,18.577 65.518,8.573 58.424,11.38" fill="rgb(216,216,216)"/>
<polygon points="88.802,66.613 91.692,74.193 79.711,89.111 71.686,87.925" fill="rgb(216,216,216)"/>
<polygon points="44.133,25.671 41.327,18.577 51.331,8.573 58.424,11.38" fill="#99d9fa"/>
<line x1="24.39" y1="44.574" x2="44.133" y2="25.671" stroke="#8c8c8c" stroke-width="0.3" stroke-dasharray="1.2,0.8"/>
<line x1="58.424" y1="39.962" x2="44.133" y2="25.671" stroke="#8c8c8c" stroke-width="0.3" stroke-dasharray="1.2,0.8"/>
<line x1="58.424" y1="39.962" x2="39.521" y2="59.706" stroke="#8c8c8c" stroke-width="0.3" stroke-dasharray="1.2,0.8"/>
<line x1="73.323" y1="53.618" x2="55.297" y2="74.165" stroke="#8c8c8c" stroke-width="0.3" stroke-dasharray="1.2,0.8"/>
<line x1="71.686" y1="87.925" x2="55.297" y2="74.165" stroke="#8c8c8c" stroke-width="0.3" stroke-dasharray="1.2,0.8"/>
<line x1="58.424" y1="11.38" x2="44.133" y2="25.671" stroke="#8c8c8c" stroke-width="0.3" stroke-dasharray="1.2,0.8"/>
<line x1="39.521" y1="59.706" x2="24.39" y2="44.574" stroke="#8c8c8c" stroke-width="0.3" stroke-dasharray="1.2,0.8"/>
<line x1="9.93" y1="28.798" x2="24.39" y2="44.574" stroke="#8c8c8c" stroke-width="0.3" stroke-dasharray="1.2,0.8"/>
<line x1="72.716" y1="25.671" x2="58.424" y2="39.962" stroke="#8c8c8c" stroke-width="0.3" stroke-dasharray="1.2,0.8"/>
<line x1="55.297" y1="74.165" x2="39.521" y2="59.706" stroke="#8c8c8c" stroke-width="0.3" stroke-dasharray="1.2,0.8"/>
<line x1="58.424" y1="11.38" x2="72.716" y2="25.671" stroke="#8c8c8c" stroke-width="0.3" stroke-dasharray="1.2,0.8"/>
<line x1="71.686" y1="87.925" x2="88.802" y2="66.613" stroke="#8c8c8c" stroke-width="0.3" stroke-dasharray="1.2,0.8"/>
<line x1="30.477" y1="10.772" x2="44.133" y2="25.671" stroke="#141414" stroke-width="0.4"/>
<line x1="57.926" y1="104.314" x2="41.537" y2="90.554" stroke="#141414" stroke-width="0.4"/>
<line x1="71.686" y1="87.925" x2="57.926" y2="104.314" stroke="#141414" stroke-width="0.4"/>
<line x1="58.424" y1="39.962" x2="73.323" y2="53.618" stroke="#141414" stroke-width="0.4"/>
<line x1="41.537" y1="90.554" x2="55.297" y2="74.165" stroke="#141414" stroke-width="0.4"/>
<line x1="73.323" y1="53.618" x2="88.802" y2="66.613" stroke="#141414" stroke-width="0.4"/>
<line x1="9.93" y1="28.799" x2="30.477" y2="10.772" stroke="#141414" stroke-width="0.4"/>
<line x1="44.133" y1="25.671" x2="41.327" y2="18.577" stroke="#141414" stroke-width="0.4"/>
<line x1="41.327" y1="18.577" x2="51.331" y2="8.573" stroke="#141414" stroke-width="0.4"/>
<line x1="51.331" y1="8.573" x2="58.424" y2="11.38" stroke="#141414" stroke-width="0.4"/>
<line x1="24.39" y1="44.574" x2="21.71" y2="51.793" stroke="#141414" stroke-width="0.4"/>
<line x1="21.71" y1="51.793" x2="32.302" y2="62.385" stroke="#141414" stroke-width="0.4"/>
<line x1="32.302" y1="62.385" x2="39.521" y2="59.706" stroke="#141414" stroke-width="0.4"/>
<line x1="24.39" y1="44.574" x2="17.06" y2="46.937" stroke="#141414" stroke-width="0.4"/>
<line x1="17.06" y1="46.937" x2="6.939" y2="35.895" stroke="#141414" stroke-width="0.4"/>
<line x1="6.939" y1="35.895" x2="9.93" y2="28.798" stroke="#141414" stroke-width="0.4"/>
<line x1="58.424" y1="39.962" x2="65.518" y2="42.768" stroke="#141414" stroke-width="0.4"/>
<line x1="65.518" y1="42.768" x2="75.522" y2="32.764" stroke="#141414" stroke-width="0.4"/>
<line x1="75.522" y1="32.764" x2="72.716" y2="25.671" stroke="#141414" stroke-width="0.4"/>
<line x1="39.521" y1="59.706" x2="37.158" y2="67.035" stroke="#141414" stroke-width="0.4"/>
<line x1="37.158" y1="67.035" x2="48.2" y2="77.156" stroke="#141414" stroke-width="0.4"/>
<line x1="48.2" y1="77.156" x2="55.297" y2="74.165" stroke="#141414" stroke-width="0.4"/>
<line x1="72.716" y1="25.671" x2="75.522" y2="18.577" stroke="#141414" stroke-width="0.4"/>
<line x1="75.522" y1="18.577" x2="65.518" y2="8.573" stroke="#141414" stroke-width="0.4"/>
<line x1="65.518" y1="8.573" x2="58.424" y2="11.38" stroke="#141414" stroke-width="0.4"/>
<line x1="88.802" y1="66.613" x2="91.692" y2="74.193" stroke="#141414" stroke-width="0.4"/>
<line x1="91.692" y1="74.193" x2="79.711" y2="89.111" stroke="#141414" stroke-width="0.4"/>
<line x1="79.711" y1="89.111" x2="71.686" y2="87.925" stroke="#141414" stroke-width="0.4"/>
<circle cx="48.804" cy="16.05" r="1.58" fill="#99d9fa" stroke="#464646" stroke-width="0.2"/>
<text x="48.804" y="16.59" font-size="1.54" text-anchor="middle" fill="#141414">183</text>
<circle cx="29.48" cy="54.614" r="1.58" fill="#ffe082" stroke="#464646" stroke-width="0.2"/>
<text x="29.48" y="55.15" font-size="1.54" text-anchor="middle" fill="#141414">184</text>
<circle cx="14.58" cy="39.051" r="1.58" fill="#ffe082" stroke="#464646" stroke-width="0.2"/>
<text x="14.58" y="39.59" font-size="1.54" text-anchor="middle" fill="#141414">185</text>
<circle cx="68.045" cy="35.291" r="1.58" fill="#ffe082" stroke="#464646" stroke-width="0.2"/>
<text x="68.045" y="35.83" font-size="1.54" text-anchor="middle" fill="#141414">186</text>
<circle cx="45.044" cy="69.515" r="1.58" fill="#ffe082" stroke="#464646" stroke-width="0.2"/>
<text x="45.044" y="70.06" font-size="1.54" text-anchor="middle" fill="#141414">187</text>
<circle cx="68.045" cy="16.05" r="1.58" fill="#ffe082" stroke="#464646" stroke-width="0.2"/>
<text x="68.045" y="16.59" font-size="1.54" text-anchor="middle" fill="#141414">188</text>
<circle cx="82.973" cy="79.461" r="1.58" fill="#ffe082" stroke="#464646" stroke-width="0.2"/>
<text x="82.973" y="80.00" font-size="1.54" text-anchor="middle" fill="#141414">189</text>
<circle cx="56.047" cy="62.496" r="4.54" fill="#eaf1fe" stroke="#2e78e6" stroke-width="0.3"/>
<text x="56.047" y="64.27" font-size="5.13" text-anchor="middle" fill="#14306e" font-weight="bold">17</text>
<polygon points="131.887,25.671 129.081,18.577 139.085,8.573 146.178,11.38" fill="rgb(216,216,216)"/>
<polygon points="112.143,44.574 109.463,51.793 120.055,62.385 127.275,59.706" fill="rgb(216,216,216)"/>
<polygon points="112.143,44.574 104.814,46.937 94.692,35.895 97.684,28.798" fill="rgb(216,216,216)"/>
<polygon points="146.178,39.962 153.272,42.768 163.275,32.764 160.469,25.671" fill="rgb(216,216,216)"/>
<polygon points="160.469,25.671 163.275,18.577 153.272,8.573 146.178,11.38" fill="rgb(216,216,216)"/>
<polygon points="143.05,74.165 141.008,81.59 152.48,91.222 159.44,87.925" fill="rgb(216,216,216)"/>
<polygon points="176.556,66.613 179.446,74.193 167.465,89.111 159.44,87.925" fill="rgb(216,216,216)"/>
<polygon points="131.887,25.671 129.081,18.577 139.085,8.573 146.178,11.38" fill="#99d9fa"/>
<line x1="112.143" y1="44.574" x2="131.887" y2="25.671" stroke="#8c8c8c" stroke-width="0.3" stroke-dasharray="1.2,0.8"/>
<line x1="146.178" y1="39.962" x2="131.887" y2="25.671" stroke="#8c8c8c" stroke-width="0.3" stroke-dasharray="1.2,0.8"/>
<line x1="146.178" y1="39.962" x2="127.275" y2="59.706" stroke="#8c8c8c" stroke-width="0.3" stroke-dasharray="1.2,0.8"/>
<line x1="143.05" y1="74.165" x2="127.275" y2="59.706" stroke="#8c8c8c" stroke-width="0.3" stroke-dasharray="1.2,0.8"/>
<line x1="161.077" y1="53.618" x2="143.05" y2="74.165" stroke="#8c8c8c" stroke-width="0.3" stroke-dasharray="1.2,0.8"/>
<line x1="146.178" y1="11.38" x2="131.887" y2="25.671" stroke="#8c8c8c" stroke-width="0.3" stroke-dasharray="1.2,0.8"/>
<line x1="127.275" y1="59.706" x2="112.143" y2="44.574" stroke="#8c8c8c" stroke-width="0.3" stroke-dasharray="1.2,0.8"/>
<line x1="97.684" y1="28.798" x2="112.143" y2="44.574" stroke="#8c8c8c" stroke-width="0.3" stroke-dasharray="1.2,0.8"/>
<line x1="160.469" y1="25.671" x2="146.178" y2="39.962" stroke="#8c8c8c" stroke-width="0.3" stroke-dasharray="1.2,0.8"/>
<line x1="146.178" y1="11.38" x2="160.469" y2="25.671" stroke="#8c8c8c" stroke-width="0.3" stroke-dasharray="1.2,0.8"/>
<line x1="159.44" y1="87.925" x2="143.05" y2="74.165" stroke="#8c8c8c" stroke-width="0.3" stroke-dasharray="1.2,0.8"/>
<line x1="159.44" y1="87.925" x2="176.556" y2="66.613" stroke="#8c8c8c" stroke-width="0.3" stroke-dasharray="1.2,0.8"/>
<line x1="118.231" y1="10.772" x2="131.887" y2="25.671" stroke="#141414" stroke-width="0.4"/>
<line x1="112.815" y1="75.481" x2="127.275" y2="59.706" stroke="#141414" stroke-width="0.4"/>
<line x1="128.591" y1="89.94" x2="112.815" y2="75.481" stroke="#141414" stroke-width="0.4"/>
<line x1="146.178" y1="39.962" x2="161.077" y2="53.618" stroke="#141414" stroke-width="0.4"/>
<line x1="161.077" y1="53.618" x2="176.556" y2="66.613" stroke="#141414" stroke-width="0.4"/>
<line x1="143.05" y1="74.165" x2="128.591" y2="89.94" stroke="#141414" stroke-width="0.4"/>
<line x1="97.684" y1="28.799" x2="118.231" y2="10.772" stroke="#141414" stroke-width="0.4"/>
<line x1="131.887" y1="25.671" x2="129.081" y2="18.577" stroke="#141414" stroke-width="0.4"/>
<line x1="129.081" y1="18.577" x2="139.085" y2="8.573" stroke="#141414" stroke-width="0.4"/>
<line x1="139.085" y1="8.573" x2="146.178" y2="11.38" stroke="#141414" stroke-width="0.4"/>
<line x1="112.143" y1="44.574" x2="109.463" y2="51.793" stroke="#141414" stroke-width="0.4"/>
<line x1="109.463" y1="51.793" x2="120.055" y2="62.385" stroke="#141414" stroke-width="0.4"/>
<line x1="120.055" y1="62.385" x2="127.275" y2="59.706" stroke="#141414" stroke-width="0.4"/>
<line x1="112.143" y1="44.574" x2="104.814" y2="46.937" stroke="#141414" stroke-width="0.4"/>
<line x1="104.814" y1="46.937" x2="94.692" y2="35.895" stroke="#141414" stroke-width="0.4"/>
<line x1="94.692" y1="35.895" x2="97.684" y2="28.798" stroke="#141414" stroke-width="0.4"/>
<line x1="146.178" y1="39.962" x2="153.272" y2="42.768" stroke="#141414" stroke-width="0.4"/>
<line x1="153.272" y1="42.768" x2="163.275" y2="32.764" stroke="#141414" stroke-width="0.4"/>
<line x1="163.275" y1="32.764" x2="160.469" y2="25.671" stroke="#141414" stroke-width="0.4"/>
<line x1="160.469" y1="25.671" x2="163.275" y2="18.577" stroke="#141414" stroke-width="0.4"/>
<line x1="163.275" y1="18.577" x2="153.272" y2="8.573" stroke="#141414" stroke-width="0.4"/>
<line x1="153.272" y1="8.573" x2="146.178" y2="11.38" stroke="#141414" stroke-width="0.4"/>
<line x1="143.05" y1="74.165" x2="141.008" y2="81.59" stroke="#141414" stroke-width="0.4"/>
<line x1="141.008" y1="81.59" x2="152.48" y2="91.222" stroke="#141414" stroke-width="0.4"/>
<line x1="152.48" y1="91.222" x2="159.44" y2="87.925" stroke="#141414" stroke-width="0.4"/>
<line x1="176.556" y1="66.613" x2="179.446" y2="74.193" stroke="#141414" stroke-width="0.4"/>
<line x1="179.446" y1="74.193" x2="167.465" y2="89.111" stroke="#141414" stroke-width="0.4"/>
<line x1="167.465" y1="89.111" x2="159.44" y2="87.925" stroke="#141414" stroke-width="0.4"/>
<circle cx="136.558" cy="16.05" r="1.58" fill="#99d9fa" stroke="#464646" stroke-width="0.2"/>
<text x="136.558" y="16.59" font-size="1.54" text-anchor="middle" fill="#141414">190</text>
<circle cx="117.234" cy="54.614" r="1.58" fill="#ffe082" stroke="#464646" stroke-width="0.2"/>
<text x="117.234" y="55.15" font-size="1.54" text-anchor="middle" fill="#141414">191</text>
<circle cx="102.333" cy="39.051" r="1.58" fill="#ffe082" stroke="#464646" stroke-width="0.2"/>
<text x="102.333" y="39.59" font-size="1.54" text-anchor="middle" fill="#141414">192</text>
<circle cx="155.799" cy="35.291" r="1.58" fill="#ffe082" stroke="#464646" stroke-width="0.2"/>
<text x="155.799" y="35.83" font-size="1.54" text-anchor="middle" fill="#141414">193</text>
<circle cx="155.799" cy="16.05" r="1.58" fill="#ffe082" stroke="#464646" stroke-width="0.2"/>
<text x="155.799" y="16.59" font-size="1.54" text-anchor="middle" fill="#141414">194</text>
<circle cx="148.994" cy="83.725" r="1.58" fill="#ffe082" stroke="#464646" stroke-width="0.2"/>
<text x="148.994" y="84.27" font-size="1.54" text-anchor="middle" fill="#141414">195</text>
<circle cx="170.727" cy="79.461" r="1.58" fill="#ffe082" stroke="#464646" stroke-width="0.2"/>
<text x="170.727" y="80.00" font-size="1.54" text-anchor="middle" fill="#141414">196</text>
<circle cx="143.801" cy="62.496" r="4.54" fill="#eaf1fe" stroke="#2e78e6" stroke-width="0.3"/>
<text x="143.801" y="64.27" font-size="5.13" text-anchor="middle" fill="#14306e" font-weight="bold">18</text>
<text x="205.0" y="295.0" font-size="3.2" text-anchor="end" fill="#737373" font-family="sans-serif">6 / 6</text>
</svg>
