<svg xmlns="http://www.w3.org/2000/svg" xmlns:xlink="http://www.w3.org/1999/xlink" width="210.00mm" height="297.00mm" viewBox="0 0 210.00 297.00">
<rect x="0" y="0" width="210.00" height="297.00" fill="#ffffff" stroke="#cccccc" stroke-width="0.2"/>
<polygon points="16.27,40.864 11.667,35.148 14.308,11.127 20.043,6.547" fill="rgb(216,216,216)"/>
<polygon points="29.68,64.27 34.94,70.945 65.377,78.555 73.161,75.141" fill="rgb(216,216,216)"/>
<line x1="16.27" y1="40.864" x2="58.547" y2="40.864" stroke="#8c8c8c" stroke-width="0.3" stroke-dasharray="1.2,0.8"/>
<line x1="20.043" y1="6.547" x2="58.547" y2="40.864" stroke="#8c8c8c" stroke-width="0.3" stroke-dasharray="1.2,0.8"/>
<line x1="58.547" y1="40.864" x2="29.68" y2="64.27" stroke="#8c8c8c" stroke-width="0.3" stroke-dasharray="1.2,0.8"/>
<line x1="20.043" y1="6.547" x2="16.27" y2="40.864" stroke="#8c8c8c" stroke-width="0.3" stroke-dasharray="1.2,0.8"/>
<line x1="73.161" y1="75.141" x2="29.68" y2="64.27" stroke="#8c8c8c" stroke-width="0.3" stroke-dasharray="1.2,0.8"/>
<line x1="29.68" y1="64.27" x2="16.27" y2="40.864" stroke="#141414" stroke-width="0.4"/>
<line x1="20.043" y1="6.547" x2="53.831" y2="5.0" stroke="#141414" stroke-width="0.4"/>
<line x1="53.831" y1="5.0" x2="58.547" y2="40.864" stroke="#141414" stroke-width="0.4"/>
<line x1="58.547" y1="40.864" x2="73.161" y2="75.141" stroke="#141414" stroke-width="0.4"/>
<line x1="16.27" y1="40.864" x2="11.667" y2="35.148" stroke="#141414" stroke-width="0.4"/>
<line x1="11.667" y1="35.148" x2="14.308" y2="11.127" stroke="#141414" stroke-width="0.4"/>
<line x1="14.308" y1="11.127" x2="20.043" y2="6.547" stroke="#141414" stroke-width="0.4"/>
<line x1="29.68" y1="64.27" x2="34.94" y2="70.945" stroke="#141414" stroke-width="0.4"/>
<line x1="34.94" y1="70.945" x2="65.377" y2="78.555" stroke="#141414" stroke-width="0.4"/>
<line x1="65.377" y1="78.555" x2="73.161" y2="75.141" stroke="#141414" stroke-width="0.4"/>
<circle cx="15.572" cy="23.421" r="1.20" fill="#ffe082" stroke="#464646" stroke-width="0.2"/>
<text x="15.572" y="23.83" font-size="1.18" text-anchor="middle" fill="#141414">25</text>
<circle cx="50.789" cy="72.228" r="1.20" fill="#ffe082" stroke="#464646" stroke-width="0.2"/>
<text x="50.789" y="72.64" font-size="1.18" text-anchor="middle" fill="#141414">45</text>
<circle cx="31.62" cy="29.425" r="4.60" fill="#eaf1fe" stroke="#2e78e6" stroke-width="0.3"/>
<text x="31.62" y="31.23" font-size="5.20" text-anchor="middle" fill="#14306e" font-weight="bold">9</text>
<polygon points="81.808,110.656 87.777,111.803 97.612,100.899 95.858,95.079" fill="rgb(216,216,216)"/>
<polygon points="81.808,110.656 80.295,101.406 95.334,68.264 103.291,63.312" fill="rgb(216,216,216)"/>
<polygon points="138.84,111.912 118.891,109.684 112.014,106.991 95.858,95.079" fill="rgb(216,216,216)"/>
<polygon points="129.119,86.281 135.516,67.912 143.149,56.674 156.382,46.144" fill="rgb(216,216,216)"/>
<polygon points="105.728,16.908 101.564,11.707 82.129,11.707 77.964,16.908" fill="rgb(216,216,216)"/>
<polygon points="105.728,16.908 113.798,15.863 138.475,31.491 140.981,39.232" fill="rgb(216,216,216)"/>
<polygon points="77.964,16.908 75.554,23.963 86.235,46.492 93.223,49.092" fill="rgb(216,216,216)"/>
<polygon points="93.223,49.092 93.208,58.069 94.819,60.344 103.291,63.312" fill="rgb(216,216,216)"/>
<polygon points="129.119,86.281 135.516,67.912 143.149,56.674 156.382,46.144" fill="#99d9fa"/>
<line x1="138.84" y1="111.912" x2="129.119" y2="86.281" stroke="#8c8c8c" stroke-width="0.3" stroke-dasharray="1.2,0.8"/>
<line x1="129.119" y1="86.281" x2="95.858" y2="95.079" stroke="#8c8c8c" stroke-width="0.3" stroke-dasharray="1.2,0.8"/>
<line x1="105.728" y1="16.907" x2="93.223" y2="49.092" stroke="#8c8c8c" stroke-width="0.3" stroke-dasharray="1.2,0.8"/>
<line x1="95.858" y1="95.079" x2="103.291" y2="63.312" stroke="#8c8c8c" stroke-width="0.3" stroke-dasharray="1.2,0.8"/>
<line x1="103.291" y1="63.312" x2="140.981" y2="39.232" stroke="#8c8c8c" stroke-width="0.3" stroke-dasharray="1.2,0.8"/>
<line x1="95.858" y1="95.079" x2="81.808" y2="110.656" stroke="#8c8c8c" stroke-width="0.3" stroke-dasharray="1.2,0.8"/>
<line x1="103.291" y1="63.312" x2="81.808" y2="110.656" stroke="#8c8c8c" stroke-width="0.3" stroke-dasharray="1.2,0.8"/>
<line x1="95.858" y1="95.079" x2="138.84" y2="111.912" stroke="#8c8c8c" stroke-width="0.3" stroke-dasharray="1.2,0.8"/>
<line x1="156.382" y1="46.144" x2="129.119" y2="86.281" stroke="#8c8c8c" stroke-width="0.3" stroke-dasharray="1.2,0.8"/>
<line x1="77.964" y1="16.908" x2="105.728" y2="16.908" stroke="#8c8c8c" stroke-width="0.3" stroke-dasharray="1.2,0.8"/>
<line x1="140.981" y1="39.232" x2="105.728" y2="16.908" stroke="#8c8c8c" stroke-width="0.3" stroke-dasharray="1.2,0.8"/>
<line x1="93.223" y1="49.092" x2="77.964" y2="16.908" stroke="#8c8c8c" stroke-width="0.3" stroke-dasharray="1.2,0.8"/>
<line x1="103.291" y1="63.312" x2="93.223" y2="49.092" stroke="#8c8c8c" stroke-width="0.3" stroke-dasharray="1.2,0.8"/>
<line x1="156.382" y1="46.144" x2="138.84" y2="111.912" stroke="#141414" stroke-width="0.4"/>
<line x1="140.981" y1="39.232" x2="129.119" y2="86.281" stroke="#141414" stroke-width="0.4"/>
<line x1="81.808" y1="110.656" x2="87.777" y2="111.803" stroke="#141414" stroke-width="0.4"/>
<line x1="87.777" y1="111.803" x2="97.612" y2="100.899" stroke="#141414" stroke-width="0.4"/>
<line x1="97.612" y1="100.899" x2="95.858" y2="95.079" stroke="#141414" stroke-width="0.4"/>
<line x1="81.808" y1="110.656" x2="80.295" y2="101.406" stroke="#141414" stroke-width="0.4"/>
<line x1="80.295" y1="101.406" x2="95.334" y2="68.264" stroke="#141414" stroke-width="0.4"/>
<line x1="95.334" y1="68.264" x2="103.291" y2="63.312" stroke="#141414" stroke-width="0.4"/>
<line x1="138.84" y1="111.912" x2="118.891" y2="109.684" stroke="#141414" stroke-width="0.4"/>
<line x1="118.891" y1="109.684" x2="112.014" y2="106.991" stroke="#141414" stroke-width="0.4"/>
<line x1="112.014" y1="106.991" x2="95.858" y2="95.079" stroke="#141414" stroke-width="0.4"/>
<line x1="129.119" y1="86.281" x2="135.516" y2="67.912" stroke="#141414" stroke-width="0.4"/>
<line x1="135.516" y1="67.912" x2="143.149" y2="56.674" stroke="#141414" stroke-width="0.4"/>
<line x1="143.149" y1="56.674" x2="156.382" y2="46.144" stroke="#141414" stroke-width="0.4"/>
<line x1="105.728" y1="16.908" x2="101.564" y2="11.707" stroke="#141414" stroke-width="0.4"/>
<line x1="101.564" y1="11.707" x2="82.129" y2="11.707" stroke="#141414" stroke-width="0.4"/>
<line x1="82.129" y1="11.707" x2="77.964" y2="16.908" stroke="#141414" stroke-width="0.4"/>
<line x1="105.728" y1="16.908" x2="113.798" y2="15.863" stroke="#141414" stroke-width="0.4"/>
<line x1="113.798" y1="15.863" x2="138.475" y2="31.491" stroke="#141414" stroke-width="0.4"/>
<line x1="138.475" y1="31.491" x2="140.981" y2="39.232" stroke="#141414" stroke-width="0.4"/>
<line x1="77.964" y1="16.908" x2="75.554" y2="23.963" stroke="#141414" stroke-width="0.4"/>
<line x1="75.554" y1="23.963" x2="86.235" y2="46.492" stroke="#141414" stroke-width="0.4"/>
<line x1="86.235" y1="46.492" x2="93.223" y2="49.092" stroke="#141414" stroke-width="0.4"/>
<line x1="93.223" y1="49.092" x2="93.208" y2="58.069" stroke="#141414" stroke-width="0.4"/>
<line x1="93.208" y1="58.069" x2="94.819" y2="60.344" stroke="#141414" stroke-width="0.4"/>
<line x1="94.819" y1="60.344" x2="103.291" y2="63.312" stroke="#141414" stroke-width="0.4"/>
<circle cx="90.764" cy="104.609" r="1.20" fill="#ffe082" stroke="#464646" stroke-width="0.2"/>
<text x="90.764" y="105.02" font-size="1.18" text-anchor="middle" fill="#141414">54</text>
<circle cx="90.182" cy="85.91" r="1.20" fill="#ffe082" stroke="#464646" stroke-width="0.2"/>
<text x="90.182" y="86.32" font-size="1.18" text-anchor="middle" fill="#141414">55</text>
<circle cx="116.401" cy="105.917" r="1.20" fill="#ffe082" stroke="#464646" stroke-width="0.2"/>
<text x="116.401" y="106.33" font-size="1.18" text-anchor="middle" fill="#141414">74</text>
<circle cx="141.041" cy="64.253" r="1.20" fill="#99d9fa" stroke="#464646" stroke-width="0.2"/>
<text x="141.041" y="64.67" font-size="1.18" text-anchor="middle" fill="#141414">76</text>
<circle cx="91.846" cy="14.308" r="1.20" fill="#ffe082" stroke="#464646" stroke-width="0.2"/>
<text x="91.846" y="14.72" font-size="1.18" text-anchor="middle" fill="#141414">77</text>
<circle cx="124.746" cy="25.873" r="1.20" fill="#ffe082" stroke="#464646" stroke-width="0.2"/>
<text x="124.746" y="26.29" font-size="1.18" text-anchor="middle" fill="#141414">78</text>
<circle cx="83.244" cy="34.113" r="1.20" fill="#ffe082" stroke="#464646" stroke-width="0.2"/>
<text x="83.244" y="34.53" font-size="1.18" text-anchor="middle" fill="#141414">84</text>
<circle cx="96.135" cy="57.704" r="1.20" fill="#ffe082" stroke="#464646" stroke-width="0.2"/>
<text x="96.135" y="58.12" font-size="1.18" text-anchor="middle" fill="#141414">93</text>
<circle cx="124.464" cy="62.942" r="4.60" fill="#eaf1fe" stroke="#2e78e6" stroke-width="0.3"/>
<text x="124.464" y="64.74" font-size="5.20" text-anchor="middle" fill="#14306e" font-weight="bold">10</text>
<text x="205.0" y="295.0" font-size="3.2" text-anchor="end" fill="#737373" font-family="sans-serif">6 / 17</text>
</svg>
