<svg xmlns="http://www.w3.org/2000/svg" xmlns:xlink="http://www.w3.org/1999/xlink" width="210.00mm" height="297.00mm" viewBox="0 0 210.00 297.00">
<rect x="0" y="0" width="210.00" height="297.00" fill="#ffffff" stroke="#cccccc" stroke-width="0.2"/>
<polygon points="86.835,64.323 85.505,77.235 92.065,90.249 103.236,96.859" fill="rgb(216,216,216)"/>
<polygon points="86.147,60.924 71.518,60.813 63.418,65.073 57.22,76.139" fill="rgb(216,216,216)"/>
<polygon points="25.068,53.524 42.599,57.297 47.743,60.915 57.22,76.139" fill="rgb(216,216,216)"/>
<polygon points="5.0,76.605 15.68,71.706 27.992,74.304 35.78,83.103" fill="rgb(216,216,216)"/>
<polygon points="5.0,76.605 7.472,84.776 29.146,91.852 35.963,86.713" fill="rgb(216,216,216)"/>
<polygon points="158.696,75.14 166.447,71.533 170.451,48.988 164.417,42.933" fill="rgb(216,216,216)"/>
<polygon points="158.696,75.14 149.663,73.664 135.56,50.033 138.548,41.382" fill="rgb(216,216,216)"/>
<polygon points="107.274,41.208 114.259,30.335 114.238,15.852 107.223,5.0" fill="rgb(216,216,216)"/>
<polygon points="103.708,40.607 98.218,24.965 98.781,19.267 107.223,5.0" fill="rgb(216,216,216)"/>
<polygon points="167.506,15.324 158.713,22.075 156.072,33.227 160.902,43.206" fill="rgb(216,216,216)"/>
<polygon points="167.506,15.324 174.0,20.243 171.837,39.569 164.417,42.933" fill="rgb(216,216,216)"/>
<polygon points="86.835,64.323 85.505,77.235 92.065,90.249 103.236,96.859" fill="#99d9fa"/>
<line x1="86.835" y1="64.323" x2="86.147" y2="60.924" stroke="#8c8c8c" stroke-width="0.3" stroke-dasharray="1.2,0.8"/>
<line x1="86.835" y1="64.323" x2="106.623" y2="64.323" stroke="#8c8c8c" stroke-width="0.3" stroke-dasharray="1.2,0.8"/>
<line x1="57.22" y1="76.139" x2="86.835" y2="64.323" stroke="#8c8c8c" stroke-width="0.3" stroke-dasharray="1.2,0.8"/>
<line x1="86.147" y1="60.924" x2="86.884" y2="40.887" stroke="#8c8c8c" stroke-width="0.3" stroke-dasharray="1.2,0.8"/>
<line x1="86.147" y1="60.924" x2="103.708" y2="40.607" stroke="#8c8c8c" stroke-width="0.3" stroke-dasharray="1.2,0.8"/>
<line x1="86.884" y1="40.887" x2="103.708" y2="40.607" stroke="#8c8c8c" stroke-width="0.3" stroke-dasharray="1.2,0.8"/>
<line x1="107.274" y1="41.208" x2="106.623" y2="64.323" stroke="#8c8c8c" stroke-width="0.3" stroke-dasharray="1.2,0.8"/>
<line x1="106.623" y1="64.323" x2="103.708" y2="40.607" stroke="#8c8c8c" stroke-width="0.3" stroke-dasharray="1.2,0.8"/>
<line x1="158.696" y1="75.14" x2="160.902" y2="43.206" stroke="#8c8c8c" stroke-width="0.3" stroke-dasharray="1.2,0.8"/>
<line x1="103.708" y1="40.607" x2="107.274" y2="41.208" stroke="#8c8c8c" stroke-width="0.3" stroke-dasharray="1.2,0.8"/>
<line x1="107.274" y1="41.208" x2="138.548" y2="41.382" stroke="#8c8c8c" stroke-width="0.3" stroke-dasharray="1.2,0.8"/>
<line x1="57.22" y1="76.139" x2="35.78" y2="83.103" stroke="#8c8c8c" stroke-width="0.3" stroke-dasharray="1.2,0.8"/>
<line x1="35.963" y1="86.713" x2="57.22" y2="76.139" stroke="#8c8c8c" stroke-width="0.3" stroke-dasharray="1.2,0.8"/>
<line x1="63.223" y1="92.072" x2="57.22" y2="76.139" stroke="#8c8c8c" stroke-width="0.3" stroke-dasharray="1.2,0.8"/>
<line x1="35.78" y1="83.103" x2="35.963" y2="86.713" stroke="#8c8c8c" stroke-width="0.3" stroke-dasharray="1.2,0.8"/>
<line x1="139.321" y1="24.356" x2="138.548" y2="41.382" stroke="#8c8c8c" stroke-width="0.3" stroke-dasharray="1.2,0.8"/>
<line x1="160.902" y1="43.206" x2="164.417" y2="42.933" stroke="#8c8c8c" stroke-width="0.3" stroke-dasharray="1.2,0.8"/>
<line x1="138.548" y1="41.382" x2="160.902" y2="43.206" stroke="#8c8c8c" stroke-width="0.3" stroke-dasharray="1.2,0.8"/>
<line x1="103.708" y1="40.607" x2="86.835" y2="64.323" stroke="#8c8c8c" stroke-width="0.3" stroke-dasharray="1.2,0.8"/>
<line x1="103.236" y1="96.859" x2="86.835" y2="64.323" stroke="#8c8c8c" stroke-width="0.3" stroke-dasharray="1.2,0.8"/>
<line x1="57.22" y1="76.139" x2="86.147" y2="60.924" stroke="#8c8c8c" stroke-width="0.3" stroke-dasharray="1.2,0.8"/>
<line x1="57.22" y1="76.139" x2="25.068" y2="53.524" stroke="#8c8c8c" stroke-width="0.3" stroke-dasharray="1.2,0.8"/>
<line x1="35.78" y1="83.103" x2="5.0" y2="76.605" stroke="#8c8c8c" stroke-width="0.3" stroke-dasharray="1.2,0.8"/>
<line x1="35.963" y1="86.713" x2="5.0" y2="76.605" stroke="#8c8c8c" stroke-width="0.3" stroke-dasharray="1.2,0.8"/>
<line x1="164.417" y1="42.933" x2="158.696" y2="75.14" stroke="#8c8c8c" stroke-width="0.3" stroke-dasharray="1.2,0.8"/>
<line x1="138.548" y1="41.382" x2="158.696" y2="75.14" stroke="#8c8c8c" stroke-width="0.3" stroke-dasharray="1.2,0.8"/>
<line x1="107.223" y1="5.0" x2="107.274" y2="41.208" stroke="#8c8c8c" stroke-width="0.3" stroke-dasharray="1.2,0.8"/>
<line x1="107.223" y1="5.0" x2="103.708" y2="40.607" stroke="#8c8c8c" stroke-width="0.3" stroke-dasharray="1.2,0.8"/>
<line x1="160.902" y1="43.206" x2="167.506" y2="15.324" stroke="#8c8c8c" stroke-width="0.3" stroke-dasharray="1.2,0.8"/>
<line x1="164.417" y1="42.933" x2="167.506" y2="15.324" stroke="#8c8c8c" stroke-width="0.3" stroke-dasharray="1.2,0.8"/>
<line x1="86.835" y1="64.323" x2="63.223" y2="92.072" stroke="#141414" stroke-width="0.4"/>
<line x1="86.147" y1="60.924" x2="53.47" y2="61.592" stroke="#141414" stroke-width="0.4"/>
<line x1="53.47" y1="61.592" x2="86.884" y2="40.887" stroke="#141414" stroke-width="0.4"/>
<line x1="35.78" y1="83.103" x2="25.068" y2="53.524" stroke="#141414" stroke-width="0.4"/>
<line x1="86.884" y1="40.887" x2="88.239" y2="8.344" stroke="#141414" stroke-width="0.4"/>
<line x1="106.623" y1="64.323" x2="103.236" y2="96.859" stroke="#141414" stroke-width="0.4"/>
<line x1="138.548" y1="41.382" x2="106.623" y2="64.323" stroke="#141414" stroke-width="0.4"/>
<line x1="107.274" y1="41.208" x2="139.321" y2="24.356" stroke="#141414" stroke-width="0.4"/>
<line x1="88.239" y1="8.344" x2="103.708" y2="40.607" stroke="#141414" stroke-width="0.4"/>
<line x1="139.321" y1="24.356" x2="160.902" y2="43.206" stroke="#141414" stroke-width="0.4"/>
<line x1="63.223" y1="92.072" x2="35.963" y2="86.713" stroke="#141414" stroke-width="0.4"/>
<line x1="86.835" y1="64.323" x2="85.505" y2="77.235" stroke="#141414" stroke-width="0.4"/>
<line x1="85.505" y1="77.235" x2="92.065" y2="90.249" stroke="#141414" stroke-width="0.4"/>
<line x1="92.065" y1="90.249" x2="103.236" y2="96.859" stroke="#141414" stroke-width="0.4"/>
<line x1="86.147" y1="60.924" x2="71.518" y2="60.813" stroke="#141414" stroke-width="0.4"/>
<line x1="71.518" y1="60.813" x2="63.418" y2="65.073" stroke="#141414" stroke-width="0.4"/>
<line x1="63.418" y1="65.073" x2="57.22" y2="76.139" stroke="#141414" stroke-width="0.4"/>
<line x1="25.068" y1="53.524" x2="42.599" y2="57.297" stroke="#141414" stroke-width="0.4"/>
<line x1="42.599" y1="57.297" x2="47.743" y2="60.915" stroke="#141414" stroke-width="0.4"/>
<line x1="47.743" y1="60.915" x2="57.22" y2="76.139" stroke="#141414" stroke-width="0.4"/>
<line x1="5.0" y1="76.605" x2="15.68" y2="71.706" stroke="#141414" stroke-width="0.4"/>
<line x1="15.68" y1="71.706" x2="27.992" y2="74.304" stroke="#141414" stroke-width="0.4"/>
<line x1="27.992" y1="74.304" x2="35.78" y2="83.103" stroke="#141414" stroke-width="0.4"/>
<line x1="5.0" y1="76.605" x2="7.472" y2="84.776" stroke="#141414" stroke-width="0.4"/>
<line x1="7.472" y1="84.776" x2="29.146" y2="91.852" stroke="#141414" stroke-width="0.4"/>
<line x1="29.146" y1="91.852" x2="35.963" y2="86.713" stroke="#141414" stroke-width="0.4"/>
<line x1="158.696" y1="75.14" x2="166.447" y2="71.533" stroke="#141414" stroke-width="0.4"/>
<line x1="166.447" y1="71.533" x2="170.451" y2="48.988" stroke="#141414" stroke-width="0.4"/>
<line x1="170.451" y1="48.988" x2="164.417" y2="42.933" stroke="#141414" stroke-width="0.4"/>
<line x1="158.696" y1="75.14" x2="149.663" y2="73.664" stroke="#141414" stroke-width="0.4"/>
<line x1="149.663" y1="73.664" x2="135.56" y2="50.033" stroke="#141414" stroke-width="0.4"/>
<line x1="135.56" y1="50.033" x2="138.548" y2="41.382" stroke="#141414" stroke-width="0.4"/>
<line x1="107.274" y1="41.208" x2="114.259" y2="30.335" stroke="#141414" stroke-width="0.4"/>
<line x1="114.259" y1="30.335" x2="114.238" y2="15.852" stroke="#141414" stroke-width="0.4"/>
<line x1="114.238" y1="15.852" x2="107.223" y2="5.0" stroke="#141414" stroke-width="0.4"/>
<line x1="103.708" y1="40.607" x2="98.218" y2="24.965" stroke="#141414" stroke-width="0.4"/>
<line x1="98.218" y1="24.965" x2="98.781" y2="19.267" stroke="#141414" stroke-width="0.4"/>
<line x1="98.781" y1="19.267" x2="107.223" y2="5.0" stroke="#141414" stroke-width="0.4"/>
<line x1="167.506" y1="15.324" x2="158.713" y2="22.075" stroke="#141414" stroke-width="0.4"/>
<line x1="158.713" y1="22.075" x2="156.072" y2="33.227" stroke="#141414" stroke-width="0.4"/>
<line x1="156.072" y1="33.227" x2="160.902" y2="43.206" stroke="#141414" stroke-width="0.4"/>
<line x1="167.506" y1="15.324" x2="174.0" y2="20.243" stroke="#141414" stroke-width="0.4"/>
<line x1="174.0" y1="20.243" x2="171.837" y2="39.569" stroke="#141414" stroke-width="0.4"/>
<line x1="171.837" y1="39.569" x2="164.417" y2="42.933" stroke="#141414" stroke-width="0.4"/>
<circle cx="91.91" cy="82.167" r="1.69" fill="#99d9fa" stroke="#464646" stroke-width="0.2"/>
<text x="91.91" y="82.75" font-size="1.66" text-anchor="middle" fill="#141414">161</text>
<circle cx="69.576" cy="65.738" r="1.69" fill="#ffe082" stroke="#464646" stroke-width="0.2"/>
<text x="69.576" y="66.32" font-size="1.66" text-anchor="middle" fill="#141414">162</text>
<circle cx="43.158" cy="61.969" r="1.69" fill="#ffe082" stroke="#464646" stroke-width="0.2"/>
<text x="43.158" y="62.55" font-size="1.66" text-anchor="middle" fill="#141414">163</text>
<circle cx="21.113" cy="76.429" r="1.69" fill="#ffe082" stroke="#464646" stroke-width="0.2"/>
<text x="21.113" y="77.01" font-size="1.66" text-anchor="middle" fill="#141414">164</text>
<circle cx="19.395" cy="84.986" r="1.69" fill="#ffe082" stroke="#464646" stroke-width="0.2"/>
<text x="19.395" y="85.57" font-size="1.66" text-anchor="middle" fill="#141414">165</text>
<circle cx="165.003" cy="59.648" r="1.69" fill="#ffe082" stroke="#464646" stroke-width="0.2"/>
<text x="165.003" y="60.23" font-size="1.66" text-anchor="middle" fill="#141414">166</text>
<circle cx="145.617" cy="60.055" r="1.69" fill="#ffe082" stroke="#464646" stroke-width="0.2"/>
<text x="145.617" y="60.64" font-size="1.66" text-anchor="middle" fill="#141414">167</text>
<circle cx="110.749" cy="23.099" r="1.69" fill="#ffe082" stroke="#464646" stroke-width="0.2"/>
<text x="110.749" y="23.68" font-size="1.66" text-anchor="middle" fill="#141414">168</text>
<circle cx="101.983" cy="22.46" r="1.69" fill="#ffe082" stroke="#464646" stroke-width="0.2"/>
<text x="101.983" y="23.04" font-size="1.66" text-anchor="middle" fill="#141414">169</text>
<circle cx="160.798" cy="28.458" r="1.69" fill="#ffe082" stroke="#464646" stroke-width="0.2"/>
<text x="160.798" y="29.04" font-size="1.66" text-anchor="middle" fill="#141414">170</text>
<circle cx="169.44" cy="29.517" r="1.69" fill="#ffe082" stroke="#464646" stroke-width="0.2"/>
<text x="169.44" y="30.10" font-size="1.66" text-anchor="middle" fill="#141414">171</text>
<circle cx="89.5" cy="102.959" r="4.6" fill="#eaf1fe" stroke="#2e78e6" stroke-width="0.3"/>
<text x="89.5" y="104.759" font-size="5.2" text-anchor="middle" fill="#14306e" font-weight="bold">13</text>
<polygon points="47.813,145.528 38.306,144.834 36.77,142.908 38.209,133.485" fill="rgb(216,216,216)"/>
<polygon points="63.216,145.528 72.722,144.834 74.259,142.908 72.82,133.485" fill="rgb(216,216,216)"/>
<polygon points="56.814,174.038 49.233,178.009 48.378,184.519 54.677,190.312" fill="rgb(216,216,216)"/>
<polygon points="72.82,133.485 79.13,129.675 76.731,119.163 69.392,118.468" fill="rgb(216,216,216)"/>
<polygon points="69.392,118.468 70.348,111.159 60.633,106.481 55.515,111.785" fill="rgb(216,216,216)"/>
<polygon points="76.159,178.113 77.969,187.189 79.975,188.327 88.696,185.228" fill="rgb(216,216,216)"/>
<polygon points="105.787,162.028 108.859,169.66 96.895,185.9 88.696,185.228" fill="rgb(216,216,216)"/>
<polygon points="55.515,111.785 50.396,106.481 40.681,111.159 41.637,118.468" fill="rgb(216,216,216)"/>
<polygon points="21.661,185.206 25.679,188.935 32.017,185.21 30.715,179.885" fill="rgb(216,216,216)"/>
<polygon points="41.637,118.468 34.298,119.163 31.899,129.675 38.209,133.485" fill="rgb(216,216,216)"/>
<polygon points="30.715,179.885 35.517,183.684 39.448,182.2 40.54,176.174" fill="rgb(216,216,216)"/>
<polygon points="56.814,174.038 49.233,178.009 48.378,184.519 54.677,190.312" fill="#99d9fa"/>
<line x1="47.813" y1="145.528" x2="63.216" y2="145.528" stroke="#8c8c8c" stroke-width="0.3" stroke-dasharray="1.2,0.8"/>
<line x1="56.815" y1="174.038" x2="47.813" y2="145.528" stroke="#8c8c8c" stroke-width="0.3" stroke-dasharray="1.2,0.8"/>
<line x1="47.813" y1="145.528" x2="40.54" y2="176.174" stroke="#8c8c8c" stroke-width="0.3" stroke-dasharray="1.2,0.8"/>
<line x1="63.216" y1="145.528" x2="56.815" y2="174.038" stroke="#8c8c8c" stroke-width="0.3" stroke-dasharray="1.2,0.8"/>
<line x1="78.383" y1="148.216" x2="56.815" y2="174.038" stroke="#8c8c8c" stroke-width="0.3" stroke-dasharray="1.2,0.8"/>
<line x1="76.159" y1="178.113" x2="56.815" y2="174.038" stroke="#8c8c8c" stroke-width="0.3" stroke-dasharray="1.2,0.8"/>
<line x1="78.383" y1="148.216" x2="76.159" y2="178.113" stroke="#8c8c8c" stroke-width="0.3" stroke-dasharray="1.2,0.8"/>
<line x1="92.692" y1="153.917" x2="76.159" y2="178.113" stroke="#8c8c8c" stroke-width="0.3" stroke-dasharray="1.2,0.8"/>
<line x1="18.279" y1="153.89" x2="30.715" y2="179.885" stroke="#8c8c8c" stroke-width="0.3" stroke-dasharray="1.2,0.8"/>
<line x1="32.689" y1="148.448" x2="40.54" y2="176.174" stroke="#8c8c8c" stroke-width="0.3" stroke-dasharray="1.2,0.8"/>
<line x1="105.787" y1="162.028" x2="76.159" y2="178.113" stroke="#8c8c8c" stroke-width="0.3" stroke-dasharray="1.2,0.8"/>
<line x1="38.209" y1="133.485" x2="47.813" y2="145.528" stroke="#8c8c8c" stroke-width="0.3" stroke-dasharray="1.2,0.8"/>
<line x1="72.82" y1="133.485" x2="63.216" y2="145.528" stroke="#8c8c8c" stroke-width="0.3" stroke-dasharray="1.2,0.8"/>
<line x1="54.677" y1="190.312" x2="56.814" y2="174.038" stroke="#8c8c8c" stroke-width="0.3" stroke-dasharray="1.2,0.8"/>
<line x1="69.392" y1="118.468" x2="72.82" y2="133.485" stroke="#8c8c8c" stroke-width="0.3" stroke-dasharray="1.2,0.8"/>
<line x1="55.515" y1="111.785" x2="69.392" y2="118.468" stroke="#8c8c8c" stroke-width="0.3" stroke-dasharray="1.2,0.8"/>
<line x1="88.696" y1="185.228" x2="76.159" y2="178.113" stroke="#8c8c8c" stroke-width="0.3" stroke-dasharray="1.2,0.8"/>
<line x1="88.696" y1="185.228" x2="105.787" y2="162.028" stroke="#8c8c8c" stroke-width="0.3" stroke-dasharray="1.2,0.8"/>
<line x1="41.637" y1="118.468" x2="55.515" y2="111.785" stroke="#8c8c8c" stroke-width="0.3" stroke-dasharray="1.2,0.8"/>
<line x1="30.715" y1="179.885" x2="21.661" y2="185.206" stroke="#8c8c8c" stroke-width="0.3" stroke-dasharray="1.2,0.8"/>
<line x1="38.209" y1="133.485" x2="41.637" y2="118.468" stroke="#8c8c8c" stroke-width="0.3" stroke-dasharray="1.2,0.8"/>
<line x1="40.54" y1="176.174" x2="30.715" y2="179.885" stroke="#8c8c8c" stroke-width="0.3" stroke-dasharray="1.2,0.8"/>
<line x1="32.689" y1="148.448" x2="47.813" y2="145.528" stroke="#141414" stroke-width="0.4"/>
<line x1="63.216" y1="145.528" x2="78.383" y2="148.216" stroke="#141414" stroke-width="0.4"/>
<line x1="56.815" y1="174.038" x2="40.54" y2="176.174" stroke="#141414" stroke-width="0.4"/>
<line x1="78.383" y1="148.216" x2="92.692" y2="153.917" stroke="#141414" stroke-width="0.4"/>
<line x1="92.692" y1="153.917" x2="105.787" y2="162.028" stroke="#141414" stroke-width="0.4"/>
<line x1="76.159" y1="178.113" x2="73.499" y2="192.28" stroke="#141414" stroke-width="0.4"/>
<line x1="21.661" y1="185.206" x2="5.0" y2="161.695" stroke="#141414" stroke-width="0.4"/>
<line x1="5.0" y1="161.695" x2="18.279" y2="153.89" stroke="#141414" stroke-width="0.4"/>
<line x1="73.499" y1="192.28" x2="63.614" y2="195.828" stroke="#141414" stroke-width="0.4"/>
<line x1="18.279" y1="153.89" x2="32.689" y2="148.448" stroke="#141414" stroke-width="0.4"/>
<line x1="63.614" y1="195.828" x2="54.677" y2="190.312" stroke="#141414" stroke-width="0.4"/>
<line x1="47.813" y1="145.528" x2="38.306" y2="144.834" stroke="#141414" stroke-width="0.4"/>
<line x1="38.306" y1="144.834" x2="36.77" y2="142.908" stroke="#141414" stroke-width="0.4"/>
<line x1="36.77" y1="142.908" x2="38.209" y2="133.485" stroke="#141414" stroke-width="0.4"/>
<line x1="63.216" y1="145.528" x2="72.722" y2="144.834" stroke="#141414" stroke-width="0.4"/>
<line x1="72.722" y1="144.834" x2="74.259" y2="142.908" stroke="#141414" stroke-width="0.4"/>
<line x1="74.259" y1="142.908" x2="72.82" y2="133.485" stroke="#141414" stroke-width="0.4"/>
<line x1="56.814" y1="174.038" x2="49.233" y2="178.009" stroke="#141414" stroke-width="0.4"/>
<line x1="49.233" y1="178.009" x2="48.378" y2="184.519" stroke="#141414" stroke-width="0.4"/>
<line x1="48.378" y1="184.519" x2="54.677" y2="190.312" stroke="#141414" stroke-width="0.4"/>
<line x1="72.82" y1="133.485" x2="79.13" y2="129.675" stroke="#141414" stroke-width="0.4"/>
<line x1="79.13" y1="129.675" x2="76.731" y2="119.163" stroke="#141414" stroke-width="0.4"/>
<line x1="76.731" y1="119.163" x2="69.392" y2="118.468" stroke="#141414" stroke-width="0.4"/>
<line x1="69.392" y1="118.468" x2="70.348" y2="111.159" stroke="#141414" stroke-width="0.4"/>
<line x1="70.348" y1="111.159" x2="60.633" y2="106.481" stroke="#141414" stroke-width="0.4"/>
<line x1="60.633" y1="106.481" x2="55.515" y2="111.785" stroke="#141414" stroke-width="0.4"/>
<line x1="76.159" y1="178.113" x2="77.969" y2="187.189" stroke="#141414" stroke-width="0.4"/>
<line x1="77.969" y1="187.189" x2="79.975" y2="188.327" stroke="#141414" stroke-width="0.4"/>
<line x1="79.975" y1="188.327" x2="88.696" y2="185.228" stroke="#141414" stroke-width="0.4"/>
<line x1="105.787" y1="162.028" x2="108.859" y2="169.66" stroke="#141414" stroke-width="0.4"/>
<line x1="108.859" y1="169.66" x2="96.895" y2="185.9" stroke="#141414" stroke-width="0.4"/>
<line x1="96.895" y1="185.9" x2="88.696" y2="185.228" stroke="#141414" stroke-width="0.4"/>
<line x1="55.515" y1="111.785" x2="50.396" y2="106.481" stroke="#141414" stroke-width="0.4"/>
<line x1="50.396" y1="106.481" x2="40.681" y2="111.159" stroke="#141414" stroke-width="0.4"/>
<line x1="40.681" y1="111.159" x2="41.637" y2="118.468" stroke="#141414" stroke-width="0.4"/>
<line x1="21.661" y1="185.206" x2="25.679" y2="188.935" stroke="#141414" stroke-width="0.4"/>
<line x1="25.679" y1="188.935" x2="32.017" y2="185.21" stroke="#141414" stroke-width="0.4"/>
<line x1="32.017" y1="185.21" x2="30.715" y2="179.885" stroke="#141414" stroke-width="0.4"/>
<line x1="41.637" y1="118.468" x2="34.298" y2="119.163" stroke="#141414" stroke-width="0.4"/>
<line x1="34.298" y1="119.163" x2="31.899" y2="129.675" stroke="#141414" stroke-width="0.4"/>
<line x1="31.899" y1="129.675" x2="38.209" y2="133.485" stroke="#141414" stroke-width="0.4"/>
<line x1="30.715" y1="179.885" x2="35.517" y2="183.684" stroke="#141414" stroke-width="0.4"/>
<line x1="35.517" y1="183.684" x2="39.448" y2="182.2" stroke="#141414" stroke-width="0.4"/>
<line x1="39.448" y1="182.2" x2="40.54" y2="176.174" stroke="#141414" stroke-width="0.4"/>
<circle cx="40.275" cy="141.689" r="1.69" fill="#ffe082" stroke="#464646" stroke-width="0.2"/>
<text x="40.275" y="142.27" font-size="1.66" text-anchor="middle" fill="#141414">172</text>
<circle cx="70.754" cy="141.689" r="1.69" fill="#ffe082" stroke="#464646" stroke-width="0.2"/>
<text x="70.754" y="142.27" font-size="1.66" text-anchor="middle" fill="#141414">173</text>
<circle cx="52.276" cy="181.719" r="1.69" fill="#99d9fa" stroke="#464646" stroke-width="0.2"/>
<text x="52.276" y="182.30" font-size="1.66" text-anchor="middle" fill="#141414">174</text>
<circle cx="74.518" cy="125.198" r="1.69" fill="#ffe082" stroke="#464646" stroke-width="0.2"/>
<text x="74.518" y="125.78" font-size="1.66" text-anchor="middle" fill="#141414">175</text>
<circle cx="63.972" cy="111.973" r="1.69" fill="#ffe082" stroke="#464646" stroke-width="0.2"/>
<text x="63.972" y="112.55" font-size="1.66" text-anchor="middle" fill="#141414">176</text>
<circle cx="80.7" cy="184.714" r="1.69" fill="#ffe082" stroke="#464646" stroke-width="0.2"/>
<text x="80.7" y="185.29" font-size="1.66" text-anchor="middle" fill="#141414">177</text>
<circle cx="100.059" cy="175.704" r="1.69" fill="#ffe082" stroke="#464646" stroke-width="0.2"/>
<text x="100.059" y="176.28" font-size="1.66" text-anchor="middle" fill="#141414">178</text>
<circle cx="47.057" cy="111.973" r="1.69" fill="#ffe082" stroke="#464646" stroke-width="0.2"/>
<text x="47.057" y="112.55" font-size="1.66" text-anchor="middle" fill="#141414">179</text>
<circle cx="27.518" cy="184.809" r="1.69" fill="#ffe082" stroke="#464646" stroke-width="0.2"/>
<text x="27.518" y="185.39" font-size="1.66" text-anchor="middle" fill="#141414">180</text>
<circle cx="36.511" cy="125.198" r="1.69" fill="#ffe082" stroke="#464646" stroke-width="0.2"/>
<text x="36.511" y="125.78" font-size="1.66" text-anchor="middle" fill="#141414">181</text>
<circle cx="36.555" cy="180.486" r="1.69" fill="#ffe082" stroke="#464646" stroke-width="0.2"/>
<text x="36.555" y="181.07" font-size="1.66" text-anchor="middle" fill="#141414">182</text>
<circle cx="56.929" cy="93.759" r="4.6" fill="#eaf1fe" stroke="#2e78e6" stroke-width="0.3"/>
<text x="56.929" y="95.559" font-size="5.2" text-anchor="middle" fill="#14306e" font-weight="bold">14</text>
<polygon points="86.835,251.53 85.505,264.441 92.065,277.456 103.236,284.066" fill="rgb(216,216,216)"/>
<polygon points="86.147,248.13 71.518,248.02 63.418,252.28 57.22,263.346" fill="rgb(216,216,216)"/>
<polygon points="25.068,240.731 42.599,244.504 47.743,248.122 57.22,263.346" fill="rgb(216,216,216)"/>
<polygon points="5.0,263.812 15.68,258.912 27.992,261.511 35.78,270.309" fill="rgb(216,216,216)"/>
<polygon points="5.0,263.812 7.472,271.982 29.146,279.058 35.963,273.92" fill="rgb(216,216,216)"/>
<polygon points="158.696,262.347 166.447,258.74 170.451,236.195 164.417,230.139" fill="rgb(216,216,216)"/>
<polygon points="158.696,262.347 149.663,260.87 135.56,237.24 138.548,228.589" fill="rgb(216,216,216)"/>
<polygon points="107.274,228.414 114.259,217.542 114.238,203.059 107.223,192.206" fill="rgb(216,216,216)"/>
<polygon points="103.708,227.814 98.218,212.171 98.781,206.474 107.223,192.206" fill="rgb(216,216,216)"/>
<polygon points="167.506,202.53 158.713,209.281 156.072,220.434 160.902,230.412" fill="rgb(216,216,216)"/>
<polygon points="167.506,202.53 174.0,207.45 171.837,226.776 164.417,230.139" fill="rgb(216,216,216)"/>
<polygon points="86.835,251.53 85.505,264.441 92.065,277.456 103.236,284.066" fill="#99d9fa"/>
<line x1="86.835" y1="251.53" x2="86.147" y2="248.131" stroke="#8c8c8c" stroke-width="0.3" stroke-dasharray="1.2,0.8"/>
<line x1="86.835" y1="251.53" x2="106.623" y2="251.53" stroke="#8c8c8c" stroke-width="0.3" stroke-dasharray="1.2,0.8"/>
<line x1="57.22" y1="263.346" x2="86.835" y2="251.53" stroke="#8c8c8c" stroke-width="0.3" stroke-dasharray="1.2,0.8"/>
<line x1="86.147" y1="248.131" x2="86.884" y2="228.093" stroke="#8c8c8c" stroke-width="0.3" stroke-dasharray="1.2,0.8"/>
<line x1="86.147" y1="248.131" x2="103.708" y2="227.814" stroke="#8c8c8c" stroke-width="0.3" stroke-dasharray="1.2,0.8"/>
<line x1="86.884" y1="228.093" x2="103.708" y2="227.814" stroke="#8c8c8c" stroke-width="0.3" stroke-dasharray="1.2,0.8"/>
<line x1="107.274" y1="228.414" x2="106.623" y2="251.53" stroke="#8c8c8c" stroke-width="0.3" stroke-dasharray="1.2,0.8"/>
<line x1="106.623" y1="251.53" x2="103.708" y2="227.814" stroke="#8c8c8c" stroke-width="0.3" stroke-dasharray="1.2,0.8"/>
<line x1="158.696" y1="262.347" x2="160.902" y2="230.412" stroke="#8c8c8c" stroke-width="0.3" stroke-dasharray="1.2,0.8"/>
<line x1="103.708" y1="227.814" x2="107.274" y2="228.414" stroke="#8c8c8c" stroke-width="0.3" stroke-dasharray="1.2,0.8"/>
<line x1="107.274" y1="228.414" x2="138.548" y2="228.589" stroke="#8c8c8c" stroke-width="0.3" stroke-dasharray="1.2,0.8"/>
<line x1="57.22" y1="263.346" x2="35.78" y2="270.309" stroke="#8c8c8c" stroke-width="0.3" stroke-dasharray="1.2,0.8"/>
<line x1="35.963" y1="273.92" x2="57.22" y2="263.346" stroke="#8c8c8c" stroke-width="0.3" stroke-dasharray="1.2,0.8"/>
<line x1="63.223" y1="279.278" x2="57.22" y2="263.346" stroke="#8c8c8c" stroke-width="0.3" stroke-dasharray="1.2,0.8"/>
<line x1="35.78" y1="270.309" x2="35.963" y2="273.92" stroke="#8c8c8c" stroke-width="0.3" stroke-dasharray="1.2,0.8"/>
<line x1="139.321" y1="211.563" x2="138.548" y2="228.589" stroke="#8c8c8c" stroke-width="0.3" stroke-dasharray="1.2,0.8"/>
<line x1="160.902" y1="230.412" x2="164.417" y2="230.139" stroke="#8c8c8c" stroke-width="0.3" stroke-dasharray="1.2,0.8"/>
<line x1="138.548" y1="228.589" x2="160.902" y2="230.412" stroke="#8c8c8c" stroke-width="0.3" stroke-dasharray="1.2,0.8"/>
<line x1="103.708" y1="227.814" x2="86.835" y2="251.53" stroke="#8c8c8c" stroke-width="0.3" stroke-dasharray="1.2,0.8"/>
<line x1="103.236" y1="284.066" x2="86.835" y2="251.53" stroke="#8c8c8c" stroke-width="0.3" stroke-dasharray="1.2,0.8"/>
<line x1="57.22" y1="263.346" x2="86.147" y2="248.13" stroke="#8c8c8c" stroke-width="0.3" stroke-dasharray="1.2,0.8"/>
<line x1="57.22" y1="263.346" x2="25.068" y2="240.731" stroke="#8c8c8c" stroke-width="0.3" stroke-dasharray="1.2,0.8"/>
<line x1="35.78" y1="270.309" x2="5.0" y2="263.812" stroke="#8c8c8c" stroke-width="0.3" stroke-dasharray="1.2,0.8"/>
<line x1="35.963" y1="273.92" x2="5.0" y2="263.812" stroke="#8c8c8c" stroke-width="0.3" stroke-dasharray="1.2,0.8"/>
<line x1="164.417" y1="230.139" x2="158.696" y2="262.347" stroke="#8c8c8c" stroke-width="0.3" stroke-dasharray="1.2,0.8"/>
<line x1="138.548" y1="228.589" x2="158.696" y2="262.347" stroke="#8c8c8c" stroke-width="0.3" stroke-dasharray="1.2,0.8"/>
<line x1="107.223" y1="192.206" x2="107.274" y2="228.414" stroke="#8c8c8c" stroke-width="0.3" stroke-dasharray="1.2,0.8"/>
<line x1="107.223" y1="192.206" x2="103.708" y2="227.814" stroke="#8c8c8c" stroke-width="0.3" stroke-dasharray="1.2,0.8"/>
<line x1="160.902" y1="230.412" x2="167.506" y2="202.53" stroke="#8c8c8c" stroke-width="0.3" stroke-dasharray="1.2,0.8"/>
<line x1="164.417" y1="230.139" x2="167.506" y2="202.53" stroke="#8c8c8c" stroke-width="0.3" stroke-dasharray="1.2,0.8"/>
<line x1="86.835" y1="251.53" x2="63.223" y2="279.278" stroke="#141414" stroke-width="0.4"/>
<line x1="86.147" y1="248.131" x2="53.47" y2="248.799" stroke="#141414" stroke-width="0.4"/>
<line x1="53.47" y1="248.799" x2="86.884" y2="228.093" stroke="#141414" stroke-width="0.4"/>
<line x1="35.78" y1="270.309" x2="25.068" y2="240.731" stroke="#141414" stroke-width="0.4"/>
<line x1="86.884" y1="228.093" x2="88.239" y2="195.55" stroke="#141414" stroke-width="0.4"/>
<line x1="106.623" y1="251.53" x2="103.236" y2="284.065" stroke="#141414" stroke-width="0.4"/>
<line x1="138.548" y1="228.589" x2="106.623" y2="251.53" stroke="#141414" stroke-width="0.4"/>
<line x1="107.274" y1="228.414" x2="139.321" y2="211.563" stroke="#141414" stroke-width="0.4"/>
<line x1="88.239" y1="195.55" x2="103.708" y2="227.814" stroke="#141414" stroke-width="0.4"/>
<line x1="139.321" y1="211.563" x2="160.902" y2="230.412" stroke="#141414" stroke-width="0.4"/>
<line x1="63.223" y1="279.278" x2="35.963" y2="273.92" stroke="#141414" stroke-width="0.4"/>
<line x1="86.835" y1="251.53" x2="85.505" y2="264.441" stroke="#141414" stroke-width="0.4"/>
<line x1="85.505" y1="264.441" x2="92.065" y2="277.456" stroke="#141414" stroke-width="0.4"/>
<line x1="92.065" y1="277.456" x2="103.236" y2="284.066" stroke="#141414" stroke-width="0.4"/>
<line x1="86.147" y1="248.13" x2="71.518" y2="248.02" stroke="#141414" stroke-width="0.4"/>
<line x1="71.518" y1="248.02" x2="63.418" y2="252.28" stroke="#141414" stroke-width="0.4"/>
<line x1="63.418" y1="252.28" x2="57.22" y2="263.346" stroke="#141414" stroke-width="0.4"/>
<line x1="25.068" y1="240.731" x2="42.599" y2="244.504" stroke="#141414" stroke-width="0.4"/>
<line x1="42.599" y1="244.504" x2="47.743" y2="248.122" stroke="#141414" stroke-width="0.4"/>
<line x1="47.743" y1="248.122" x2="57.22" y2="263.346" stroke="#141414" stroke-width="0.4"/>
<line x1="5.0" y1="263.812" x2="15.68" y2="258.912" stroke="#141414" stroke-width="0.4"/>
<line x1="15.68" y1="258.912" x2="27.992" y2="261.511" stroke="#141414" stroke-width="0.4"/>
<line x1="27.992" y1="261.511" x2="35.78" y2="270.309" stroke="#141414" stroke-width="0.4"/>
<line x1="5.0" y1="263.812" x2="7.472" y2="271.982" stroke="#141414" stroke-width="0.4"/>
<line x1="7.472" y1="271.982" x2="29.146" y2="279.058" stroke="#141414" stroke-width="0.4"/>
<line x1="29.146" y1="279.058" x2="35.963" y2="273.92" stroke="#141414" stroke-width="0.4"/>
<line x1="158.696" y1="262.347" x2="166.447" y2="258.74" stroke="#141414" stroke-width="0.4"/>
<line x1="166.447" y1="258.74" x2="170.451" y2="236.195" stroke="#141414" stroke-width="0.4"/>
<line x1="170.451" y1="236.195" x2="164.417" y2="230.139" stroke="#141414" stroke-width="0.4"/>
<line x1="158.696" y1="262.347" x2="149.663" y2="260.87" stroke="#141414" stroke-width="0.4"/>
<line x1="149.663" y1="260.87" x2="135.56" y2="237.24" stroke="#141414" stroke-width="0.4"/>
<line x1="135.56" y1="237.24" x2="138.548" y2="228.589" stroke="#141414" stroke-width="0.4"/>
<line x1="107.274" y1="228.414" x2="114.259" y2="217.542" stroke="#141414" stroke-width="0.4"/>
<line x1="114.259" y1="217.542" x2="114.238" y2="203.059" stroke="#141414" stroke-width="0.4"/>
<line x1="114.238" y1="203.059" x2="107.223" y2="192.206" stroke="#141414" stroke-width="0.4"/>
<line x1="103.708" y1="227.814" x2="98.218" y2="212.171" stroke="#141414" stroke-width="0.4"/>
<line x1="98.218" y1="212.171" x2="98.781" y2="206.474" stroke="#141414" stroke-width="0.4"/>
<line x1="98.781" y1="206.474" x2="107.223" y2="192.206" stroke="#141414" stroke-width="0.4"/>
<line x1="167.506" y1="202.53" x2="158.713" y2="209.281" stroke="#141414" stroke-width="0.4"/>
<line x1="158.713" y1="209.281" x2="156.072" y2="220.434" stroke="#141414" stroke-width="0.4"/>
<line x1="156.072" y1="220.434" x2="160.902" y2="230.412" stroke="#141414" stroke-width="0.4"/>
<line x1="167.506" y1="202.53" x2="174.0" y2="207.45" stroke="#141414" stroke-width="0.4"/>
<line x1="174.0" y1="207.45" x2="171.837" y2="226.776" stroke="#141414" stroke-width="0.4"/>
<line x1="171.837" y1="226.776" x2="164.417" y2="230.139" stroke="#141414" stroke-width="0.4"/>
<circle cx="91.91" cy="269.373" r="1.69" fill="#99d9fa" stroke="#464646" stroke-width="0.2"/>
<text x="91.91" y="269.95" font-size="1.66" text-anchor="middle" fill="#141414">194</text>
<circle cx="69.576" cy="252.944" r="1.69" fill="#ffe082" stroke="#464646" stroke-width="0.2"/>
<text x="69.576" y="253.52" font-size="1.66" text-anchor="middle" fill="#141414">195</text>
<circle cx="43.158" cy="249.175" r="1.69" fill="#ffe082" stroke="#464646" stroke-width="0.2"/>
<text x="43.158" y="249.76" font-size="1.66" text-anchor="middle" fill="#141414">196</text>
<circle cx="21.113" cy="263.636" r="1.69" fill="#ffe082" stroke="#464646" stroke-width="0.2"/>
<text x="21.113" y="264.22" font-size="1.66" text-anchor="middle" fill="#141414">197</text>
<circle cx="19.395" cy="272.193" r="1.69" fill="#ffe082" stroke="#464646" stroke-width="0.2"/>
<text x="19.395" y="272.77" font-size="1.66" text-anchor="middle" fill="#141414">198</text>
<circle cx="165.003" cy="246.855" r="1.69" fill="#ffe082" stroke="#464646" stroke-width="0.2"/>
<text x="165.003" y="247.44" font-size="1.66" text-anchor="middle" fill="#141414">199</text>
<circle cx="145.617" cy="247.261" r="1.69" fill="#ffe082" stroke="#464646" stroke-width="0.2"/>
<text x="145.617" y="247.84" font-size="1.66" text-anchor="middle" fill="#141414">200</text>
<circle cx="110.749" cy="210.305" r="1.69" fill="#ffe082" stroke="#464646" stroke-width="0.2"/>
<text x="110.749" y="210.89" font-size="1.66" text-anchor="middle" fill="#141414">201</text>
<circle cx="101.983" cy="209.666" r="1.69" fill="#ffe082" stroke="#464646" stroke-width="0.2"/>
<text x="101.983" y="210.25" font-size="1.66" text-anchor="middle" fill="#141414">202</text>
<circle cx="160.798" cy="215.664" r="1.69" fill="#ffe082" stroke="#464646" stroke-width="0.2"/>
<text x="160.798" y="216.24" font-size="1.66" text-anchor="middle" fill="#141414">203</text>
<circle cx="169.44" cy="216.724" r="1.69" fill="#ffe082" stroke="#464646" stroke-width="0.2"/>
<text x="169.44" y="217.30" font-size="1.66" text-anchor="middle" fill="#141414">204</text>
<circle cx="89.5" cy="186.107" r="4.6" fill="#eaf1fe" stroke="#2e78e6" stroke-width="0.3"/>
<text x="89.5" y="187.907" font-size="5.2" text-anchor="middle" fill="#14306e" font-weight="bold">16</text>
<text x="205.0" y="295.0" font-size="3.2" text-anchor="end" fill="#737373" font-family="sans-serif">7 / 8</text>
<g pointer-events="none"><text x="105.0" y="83.2" text-anchor="middle" font-family="sans-serif" font-size="12.4" fill="#9aa0a6" fill-opacity="0.3" transform="rotate(-28 105.0 83.2)">papercraft.kr</text><text x="105.0" y="148.5" text-anchor="middle" font-family="sans-serif" font-size="12.4" fill="#9aa0a6" fill-opacity="0.3" transform="rotate(-28 105.0 148.5)">papercraft.kr</text><text x="105.0" y="213.8" text-anchor="middle" font-family="sans-serif" font-size="12.4" fill="#9aa0a6" fill-opacity="0.3" transform="rotate(-28 105.0 213.8)">papercraft.kr</text></g></svg>
