<svg xmlns="http://www.w3.org/2000/svg" xmlns:xlink="http://www.w3.org/1999/xlink" width="210.00mm" height="297.00mm" viewBox="0 0 210.00 297.00">
<rect x="0" y="0" width="210.00" height="297.00" fill="#ffffff" stroke="#cccccc" stroke-width="0.2"/>
<polygon points="35.913,223.883 28.607,225.459 7.341,212.216 5.532,204.964" fill="rgb(216,216,216)"/>
<polygon points="5.532,204.964 8.013,195.68 35.915,170.308 45.392,168.718" fill="rgb(216,216,216)"/>
<polygon points="83.766,24.759 85.385,18.587 101.531,12.48 106.83,16.035" fill="rgb(216,216,216)"/>
<polygon points="83.766,24.759 83.819,31.303 98.643,42.437 104.942,40.665" fill="rgb(216,216,216)"/>
<polygon points="76.891,180.247 88.136,177.754 125.231,147.353 129.885,136.817" fill="rgb(216,216,216)"/>
<polygon points="163.206,12.288 156.441,9.172 132.998,17.5 129.715,24.185" fill="rgb(216,216,216)"/>
<polygon points="163.206,12.288 167.761,16.852 165.037,34.436 159.315,37.408" fill="rgb(216,216,216)"/>
<polygon points="94.512,215.007 104.132,215.477 136.935,196.628 141.374,188.08" fill="rgb(216,216,216)"/>
<polygon points="124.991,43.442 136.189,46.753 149.918,44.34 159.315,37.408" fill="rgb(216,216,216)"/>
<polygon points="97.244,131.304 104.235,129.622 115.875,109.586 113.873,102.681" fill="rgb(216,216,216)"/>
<polygon points="85.081,85.33 78.916,84.599 68.774,96.745 70.592,102.681" fill="rgb(216,216,216)"/>
<line x1="35.913" y1="223.883" x2="69.968" y2="197.012" stroke="#8c8c8c" stroke-width="0.3" stroke-dasharray="1.2,0.8"/>
<line x1="45.392" y1="168.718" x2="35.913" y2="223.883" stroke="#8c8c8c" stroke-width="0.3" stroke-dasharray="1.2,0.8"/>
<line x1="94.512" y1="215.007" x2="69.968" y2="197.012" stroke="#8c8c8c" stroke-width="0.3" stroke-dasharray="1.2,0.8"/>
<line x1="45.392" y1="168.718" x2="76.891" y2="180.247" stroke="#8c8c8c" stroke-width="0.3" stroke-dasharray="1.2,0.8"/>
<line x1="76.891" y1="180.247" x2="97.245" y2="131.303" stroke="#8c8c8c" stroke-width="0.3" stroke-dasharray="1.2,0.8"/>
<line x1="76.891" y1="180.247" x2="63.515" y2="131.359" stroke="#8c8c8c" stroke-width="0.3" stroke-dasharray="1.2,0.8"/>
<line x1="104.942" y1="40.665" x2="106.83" y2="16.035" stroke="#8c8c8c" stroke-width="0.3" stroke-dasharray="1.2,0.8"/>
<line x1="106.83" y1="16.035" x2="124.991" y2="43.442" stroke="#8c8c8c" stroke-width="0.3" stroke-dasharray="1.2,0.8"/>
<line x1="129.715" y1="24.185" x2="159.315" y2="37.408" stroke="#8c8c8c" stroke-width="0.3" stroke-dasharray="1.2,0.8"/>
<line x1="124.991" y1="43.442" x2="85.081" y2="85.33" stroke="#8c8c8c" stroke-width="0.3" stroke-dasharray="1.2,0.8"/>
<line x1="124.991" y1="43.442" x2="113.873" y2="102.681" stroke="#8c8c8c" stroke-width="0.3" stroke-dasharray="1.2,0.8"/>
<line x1="63.515" y1="131.359" x2="97.245" y2="131.303" stroke="#8c8c8c" stroke-width="0.3" stroke-dasharray="1.2,0.8"/>
<line x1="97.245" y1="131.303" x2="70.592" y2="102.681" stroke="#8c8c8c" stroke-width="0.3" stroke-dasharray="1.2,0.8"/>
<line x1="85.081" y1="85.33" x2="113.873" y2="102.681" stroke="#8c8c8c" stroke-width="0.3" stroke-dasharray="1.2,0.8"/>
<line x1="70.592" y1="102.681" x2="113.873" y2="102.681" stroke="#8c8c8c" stroke-width="0.3" stroke-dasharray="1.2,0.8"/>
<line x1="45.392" y1="168.718" x2="69.968" y2="197.012" stroke="#8c8c8c" stroke-width="0.3" stroke-dasharray="1.2,0.8"/>
<line x1="129.715" y1="24.185" x2="124.991" y2="43.442" stroke="#8c8c8c" stroke-width="0.3" stroke-dasharray="1.2,0.8"/>
<line x1="124.991" y1="43.442" x2="104.942" y2="40.665" stroke="#8c8c8c" stroke-width="0.3" stroke-dasharray="1.2,0.8"/>
<line x1="5.532" y1="204.964" x2="35.913" y2="223.883" stroke="#8c8c8c" stroke-width="0.3" stroke-dasharray="1.2,0.8"/>
<line x1="45.392" y1="168.718" x2="5.532" y2="204.964" stroke="#8c8c8c" stroke-width="0.3" stroke-dasharray="1.2,0.8"/>
<line x1="106.83" y1="16.035" x2="83.766" y2="24.759" stroke="#8c8c8c" stroke-width="0.3" stroke-dasharray="1.2,0.8"/>
<line x1="104.942" y1="40.665" x2="83.766" y2="24.759" stroke="#8c8c8c" stroke-width="0.3" stroke-dasharray="1.2,0.8"/>
<line x1="129.885" y1="136.817" x2="76.891" y2="180.247" stroke="#8c8c8c" stroke-width="0.3" stroke-dasharray="1.2,0.8"/>
<line x1="129.715" y1="24.185" x2="163.206" y2="12.288" stroke="#8c8c8c" stroke-width="0.3" stroke-dasharray="1.2,0.8"/>
<line x1="159.315" y1="37.408" x2="163.206" y2="12.288" stroke="#8c8c8c" stroke-width="0.3" stroke-dasharray="1.2,0.8"/>
<line x1="141.374" y1="188.08" x2="94.512" y2="215.007" stroke="#8c8c8c" stroke-width="0.3" stroke-dasharray="1.2,0.8"/>
<line x1="159.315" y1="37.408" x2="124.991" y2="43.442" stroke="#8c8c8c" stroke-width="0.3" stroke-dasharray="1.2,0.8"/>
<line x1="113.873" y1="102.681" x2="97.244" y2="131.304" stroke="#8c8c8c" stroke-width="0.3" stroke-dasharray="1.2,0.8"/>
<line x1="70.592" y1="102.681" x2="85.081" y2="85.33" stroke="#8c8c8c" stroke-width="0.3" stroke-dasharray="1.2,0.8"/>
<line x1="94.512" y1="215.007" x2="35.913" y2="223.883" stroke="#141414" stroke-width="0.4"/>
<line x1="76.891" y1="180.247" x2="69.968" y2="197.012" stroke="#141414" stroke-width="0.4"/>
<line x1="69.968" y1="197.012" x2="141.374" y2="188.08" stroke="#141414" stroke-width="0.4"/>
<line x1="45.392" y1="168.718" x2="63.515" y2="131.359" stroke="#141414" stroke-width="0.4"/>
<line x1="106.83" y1="16.035" x2="129.715" y2="24.185" stroke="#141414" stroke-width="0.4"/>
<line x1="124.991" y1="43.442" x2="144.781" y2="58.343" stroke="#141414" stroke-width="0.4"/>
<line x1="144.781" y1="58.343" x2="113.873" y2="102.681" stroke="#141414" stroke-width="0.4"/>
<line x1="85.081" y1="85.33" x2="104.942" y2="40.665" stroke="#141414" stroke-width="0.4"/>
<line x1="97.245" y1="131.303" x2="129.885" y2="136.817" stroke="#141414" stroke-width="0.4"/>
<line x1="63.515" y1="131.359" x2="70.592" y2="102.681" stroke="#141414" stroke-width="0.4"/>
<line x1="35.913" y1="223.883" x2="28.607" y2="225.459" stroke="#141414" stroke-width="0.4"/>
<line x1="28.607" y1="225.459" x2="7.341" y2="212.216" stroke="#141414" stroke-width="0.4"/>
<line x1="7.341" y1="212.216" x2="5.532" y2="204.964" stroke="#141414" stroke-width="0.4"/>
<line x1="5.532" y1="204.964" x2="8.013" y2="195.68" stroke="#141414" stroke-width="0.4"/>
<line x1="8.013" y1="195.68" x2="35.915" y2="170.308" stroke="#141414" stroke-width="0.4"/>
<line x1="35.915" y1="170.308" x2="45.392" y2="168.718" stroke="#141414" stroke-width="0.4"/>
<line x1="83.766" y1="24.759" x2="85.385" y2="18.587" stroke="#141414" stroke-width="0.4"/>
<line x1="85.385" y1="18.587" x2="101.531" y2="12.48" stroke="#141414" stroke-width="0.4"/>
<line x1="101.531" y1="12.48" x2="106.83" y2="16.035" stroke="#141414" stroke-width="0.4"/>
<line x1="83.766" y1="24.759" x2="83.819" y2="31.303" stroke="#141414" stroke-width="0.4"/>
<line x1="83.819" y1="31.303" x2="98.643" y2="42.437" stroke="#141414" stroke-width="0.4"/>
<line x1="98.643" y1="42.437" x2="104.942" y2="40.665" stroke="#141414" stroke-width="0.4"/>
<line x1="76.891" y1="180.247" x2="88.136" y2="177.754" stroke="#141414" stroke-width="0.4"/>
<line x1="88.136" y1="177.754" x2="125.231" y2="147.353" stroke="#141414" stroke-width="0.4"/>
<line x1="125.231" y1="147.353" x2="129.885" y2="136.817" stroke="#141414" stroke-width="0.4"/>
<line x1="163.206" y1="12.288" x2="156.441" y2="9.172" stroke="#141414" stroke-width="0.4"/>
<line x1="156.441" y1="9.172" x2="132.998" y2="17.5" stroke="#141414" stroke-width="0.4"/>
<line x1="132.998" y1="17.5" x2="129.715" y2="24.185" stroke="#141414" stroke-width="0.4"/>
<line x1="163.206" y1="12.288" x2="167.761" y2="16.852" stroke="#141414" stroke-width="0.4"/>
<line x1="167.761" y1="16.852" x2="165.037" y2="34.436" stroke="#141414" stroke-width="0.4"/>
<line x1="165.037" y1="34.436" x2="159.315" y2="37.408" stroke="#141414" stroke-width="0.4"/>
<line x1="94.512" y1="215.007" x2="104.132" y2="215.477" stroke="#141414" stroke-width="0.4"/>
<line x1="104.132" y1="215.477" x2="136.935" y2="196.628" stroke="#141414" stroke-width="0.4"/>
<line x1="136.935" y1="196.628" x2="141.374" y2="188.08" stroke="#141414" stroke-width="0.4"/>
<line x1="124.991" y1="43.442" x2="136.189" y2="46.753" stroke="#141414" stroke-width="0.4"/>
<line x1="136.189" y1="46.753" x2="149.918" y2="44.34" stroke="#141414" stroke-width="0.4"/>
<line x1="149.918" y1="44.34" x2="159.315" y2="37.408" stroke="#141414" stroke-width="0.4"/>
<line x1="97.244" y1="131.304" x2="104.235" y2="129.622" stroke="#141414" stroke-width="0.4"/>
<line x1="104.235" y1="129.622" x2="115.875" y2="109.586" stroke="#141414" stroke-width="0.4"/>
<line x1="115.875" y1="109.586" x2="113.873" y2="102.681" stroke="#141414" stroke-width="0.4"/>
<line x1="85.081" y1="85.33" x2="78.916" y2="84.599" stroke="#141414" stroke-width="0.4"/>
<line x1="78.916" y1="84.599" x2="68.774" y2="96.745" stroke="#141414" stroke-width="0.4"/>
<line x1="68.774" y1="96.745" x2="70.592" y2="102.681" stroke="#141414" stroke-width="0.4"/>
<circle cx="19.348" cy="216.63" r="2.29" fill="#ffe082" stroke="#464646" stroke-width="0.2"/>
<text x="19.348" y="217.72" font-size="3.11" text-anchor="middle" fill="#141414">17</text>
<circle cx="23.713" cy="184.917" r="2.29" fill="#ffe082" stroke="#464646" stroke-width="0.2"/>
<text x="23.713" y="186.00" font-size="3.11" text-anchor="middle" fill="#141414">34</text>
<circle cx="94.378" cy="17.965" r="2.29" fill="#ffe082" stroke="#464646" stroke-width="0.2"/>
<text x="94.378" y="19.05" font-size="3.11" text-anchor="middle" fill="#141414">35</text>
<circle cx="92.792" cy="34.791" r="2.29" fill="#ffe082" stroke="#464646" stroke-width="0.2"/>
<text x="92.792" y="35.88" font-size="3.11" text-anchor="middle" fill="#141414">36</text>
<circle cx="105.036" cy="160.543" r="2.29" fill="#ffe082" stroke="#464646" stroke-width="0.2"/>
<text x="105.036" y="161.63" font-size="3.11" text-anchor="middle" fill="#141414">41</text>
<circle cx="145.59" cy="15.786" r="2.29" fill="#ffe082" stroke="#464646" stroke-width="0.2"/>
<text x="145.59" y="16.87" font-size="3.11" text-anchor="middle" fill="#141414">42</text>
<circle cx="163.83" cy="25.246" r="2.29" fill="#ffe082" stroke="#464646" stroke-width="0.2"/>
<text x="163.83" y="26.33" font-size="3.11" text-anchor="middle" fill="#141414">43</text>
<circle cx="119.238" cy="203.798" r="2.29" fill="#ffe082" stroke="#464646" stroke-width="0.2"/>
<text x="119.238" y="204.88" font-size="3.11" text-anchor="middle" fill="#141414">47</text>
<circle cx="142.603" cy="42.986" r="2.29" fill="#ffe082" stroke="#464646" stroke-width="0.2"/>
<text x="142.603" y="44.07" font-size="3.11" text-anchor="middle" fill="#141414">49</text>
<circle cx="107.807" cy="118.298" r="2.29" fill="#ffe082" stroke="#464646" stroke-width="0.2"/>
<text x="107.807" y="119.38" font-size="3.11" text-anchor="middle" fill="#141414">50</text>
<circle cx="75.841" cy="92.339" r="2.29" fill="#ffe082" stroke="#464646" stroke-width="0.2"/>
<text x="75.841" y="93.43" font-size="3.11" text-anchor="middle" fill="#141414">52</text>
<circle cx="86.114" cy="227.387" r="4.6" fill="#eaf1fe" stroke="#2e78e6" stroke-width="0.3"/>
<text x="86.114" y="229.187" font-size="5.2" text-anchor="middle" fill="#14306e" font-weight="bold">3</text>
<g pointer-events="none"><text x="105.0" y="89.1" text-anchor="middle" font-family="sans-serif" font-size="21.2" fill="#9aa0a6" fill-opacity="0.33" transform="rotate(-28 105.0 89.1)">papercraft.kr 미리보기</text><text x="105.0" y="163.4" text-anchor="middle" font-family="sans-serif" font-size="21.2" fill="#9aa0a6" fill-opacity="0.33" transform="rotate(-28 105.0 163.4)">papercraft.kr 미리보기</text><text x="105.0" y="237.6" text-anchor="middle" font-family="sans-serif" font-size="21.2" fill="#9aa0a6" fill-opacity="0.33" transform="rotate(-28 105.0 237.6)">papercraft.kr 미리보기</text></g></svg>
