<svg xmlns="http://www.w3.org/2000/svg" xmlns:xlink="http://www.w3.org/1999/xlink" width="210.00mm" height="297.00mm" viewBox="0 0 210.00 297.00">
<rect x="0" y="0" width="210.00" height="297.00" fill="#ffffff" stroke="#cccccc" stroke-width="0.2"/>
<polygon points="43.152,20.695 39.789,14.451 46.514,7.726 52.759,11.088" fill="rgb(216,216,216)"/>
<polygon points="19.141,43.189 15.86,49.808 23.646,57.594 30.265,54.313" fill="rgb(216,216,216)"/>
<polygon points="19.141,43.189 12.322,46.032 5.06,37.754 8.765,31.364" fill="rgb(216,216,216)"/>
<polygon points="52.759,30.302 59.003,33.665 65.728,26.94 62.366,20.695" fill="rgb(216,216,216)"/>
<polygon points="30.265,54.313 27.422,61.132 35.699,68.394 42.09,64.689" fill="rgb(216,216,216)"/>
<polygon points="62.366,20.695 65.728,14.451 59.003,7.726 52.759,11.088" fill="rgb(216,216,216)"/>
<polygon points="73.746,47.539 76.557,55.63 63.131,74.342 54.566,74.272" fill="rgb(216,216,216)"/>
<polygon points="43.152,20.695 39.789,14.451 46.514,7.726 52.759,11.088" fill="#99d9fa"/>
<line x1="19.141" y1="43.189" x2="43.151" y2="20.695" stroke="#8c8c8c" stroke-width="0.3" stroke-dasharray="1.2,0.8"/>
<line x1="52.759" y1="30.302" x2="43.151" y2="20.695" stroke="#8c8c8c" stroke-width="0.3" stroke-dasharray="1.2,0.8"/>
<line x1="52.759" y1="30.302" x2="30.265" y2="54.313" stroke="#8c8c8c" stroke-width="0.3" stroke-dasharray="1.2,0.8"/>
<line x1="62.971" y1="39.263" x2="42.09" y2="64.689" stroke="#8c8c8c" stroke-width="0.3" stroke-dasharray="1.2,0.8"/>
<line x1="54.566" y1="74.272" x2="42.09" y2="64.689" stroke="#8c8c8c" stroke-width="0.3" stroke-dasharray="1.2,0.8"/>
<line x1="52.759" y1="11.088" x2="43.152" y2="20.695" stroke="#8c8c8c" stroke-width="0.3" stroke-dasharray="1.2,0.8"/>
<line x1="30.265" y1="54.313" x2="19.141" y2="43.189" stroke="#8c8c8c" stroke-width="0.3" stroke-dasharray="1.2,0.8"/>
<line x1="8.765" y1="31.364" x2="19.141" y2="43.189" stroke="#8c8c8c" stroke-width="0.3" stroke-dasharray="1.2,0.8"/>
<line x1="62.366" y1="20.695" x2="52.759" y2="30.302" stroke="#8c8c8c" stroke-width="0.3" stroke-dasharray="1.2,0.8"/>
<line x1="42.09" y1="64.689" x2="30.265" y2="54.313" stroke="#8c8c8c" stroke-width="0.3" stroke-dasharray="1.2,0.8"/>
<line x1="52.759" y1="11.088" x2="62.366" y2="20.695" stroke="#8c8c8c" stroke-width="0.3" stroke-dasharray="1.2,0.8"/>
<line x1="54.566" y1="74.272" x2="73.746" y2="47.539" stroke="#8c8c8c" stroke-width="0.3" stroke-dasharray="1.2,0.8"/>
<line x1="34.191" y1="10.482" x2="43.151" y2="20.695" stroke="#141414" stroke-width="0.4"/>
<line x1="44.983" y1="86.748" x2="32.507" y2="77.165" stroke="#141414" stroke-width="0.4"/>
<line x1="54.566" y1="74.272" x2="44.983" y2="86.748" stroke="#141414" stroke-width="0.4"/>
<line x1="52.759" y1="30.302" x2="62.971" y2="39.263" stroke="#141414" stroke-width="0.4"/>
<line x1="32.507" y1="77.165" x2="42.09" y2="64.689" stroke="#141414" stroke-width="0.4"/>
<line x1="62.971" y1="39.263" x2="73.746" y2="47.539" stroke="#141414" stroke-width="0.4"/>
<line x1="8.765" y1="31.364" x2="34.191" y2="10.482" stroke="#141414" stroke-width="0.4"/>
<line x1="43.152" y1="20.695" x2="39.789" y2="14.451" stroke="#141414" stroke-width="0.4"/>
<line x1="39.789" y1="14.451" x2="46.514" y2="7.726" stroke="#141414" stroke-width="0.4"/>
<line x1="46.514" y1="7.726" x2="52.759" y2="11.088" stroke="#141414" stroke-width="0.4"/>
<line x1="19.141" y1="43.189" x2="15.86" y2="49.808" stroke="#141414" stroke-width="0.4"/>
<line x1="15.86" y1="49.808" x2="23.646" y2="57.594" stroke="#141414" stroke-width="0.4"/>
<line x1="23.646" y1="57.594" x2="30.265" y2="54.313" stroke="#141414" stroke-width="0.4"/>
<line x1="19.141" y1="43.189" x2="12.322" y2="46.032" stroke="#141414" stroke-width="0.4"/>
<line x1="12.322" y1="46.032" x2="5.06" y2="37.754" stroke="#141414" stroke-width="0.4"/>
<line x1="5.06" y1="37.754" x2="8.765" y2="31.364" stroke="#141414" stroke-width="0.4"/>
<line x1="52.759" y1="30.302" x2="59.003" y2="33.665" stroke="#141414" stroke-width="0.4"/>
<line x1="59.003" y1="33.665" x2="65.728" y2="26.94" stroke="#141414" stroke-width="0.4"/>
<line x1="65.728" y1="26.94" x2="62.366" y2="20.695" stroke="#141414" stroke-width="0.4"/>
<line x1="30.265" y1="54.313" x2="27.422" y2="61.132" stroke="#141414" stroke-width="0.4"/>
<line x1="27.422" y1="61.132" x2="35.699" y2="68.394" stroke="#141414" stroke-width="0.4"/>
<line x1="35.699" y1="68.394" x2="42.09" y2="64.689" stroke="#141414" stroke-width="0.4"/>
<line x1="62.366" y1="20.695" x2="65.728" y2="14.451" stroke="#141414" stroke-width="0.4"/>
<line x1="65.728" y1="14.451" x2="59.003" y2="7.726" stroke="#141414" stroke-width="0.4"/>
<line x1="59.003" y1="7.726" x2="52.759" y2="11.088" stroke="#141414" stroke-width="0.4"/>
<line x1="73.746" y1="47.539" x2="76.557" y2="55.63" stroke="#141414" stroke-width="0.4"/>
<line x1="76.557" y1="55.63" x2="63.131" y2="74.342" stroke="#141414" stroke-width="0.4"/>
<line x1="63.131" y1="74.342" x2="54.566" y2="74.272" stroke="#141414" stroke-width="0.4"/>
<circle cx="45.553" cy="13.49" r="2.08" fill="#99d9fa" stroke="#464646" stroke-width="0.2"/>
<text x="45.553" y="14.20" font-size="2.04" text-anchor="middle" fill="#141414">178</text>
<circle cx="22.228" cy="51.226" r="2.08" fill="#ffe082" stroke="#464646" stroke-width="0.2"/>
<text x="22.228" y="51.94" font-size="2.04" text-anchor="middle" fill="#141414">179</text>
<circle cx="11.322" cy="39.585" r="2.08" fill="#ffe082" stroke="#464646" stroke-width="0.2"/>
<text x="11.322" y="40.30" font-size="2.04" text-anchor="middle" fill="#141414">180</text>
<circle cx="59.964" cy="27.901" r="2.08" fill="#ffe082" stroke="#464646" stroke-width="0.2"/>
<text x="59.964" y="28.61" font-size="2.04" text-anchor="middle" fill="#141414">181</text>
<circle cx="33.869" cy="62.132" r="2.08" fill="#ffe082" stroke="#464646" stroke-width="0.2"/>
<text x="33.869" y="62.85" font-size="2.04" text-anchor="middle" fill="#141414">182</text>
<circle cx="59.964" cy="13.49" r="2.08" fill="#ffe082" stroke="#464646" stroke-width="0.2"/>
<text x="59.964" y="14.20" font-size="2.04" text-anchor="middle" fill="#141414">183</text>
<circle cx="67.0" cy="62.946" r="2.08" fill="#ffe082" stroke="#464646" stroke-width="0.2"/>
<text x="67.0" y="63.66" font-size="2.04" text-anchor="middle" fill="#141414">184</text>
<circle cx="45.109" cy="52.755" r="3.83" fill="#eaf1fe" stroke="#2e78e6" stroke-width="0.3"/>
<text x="45.109" y="54.25" font-size="4.33" text-anchor="middle" fill="#14306e" font-weight="bold">16</text>
<text x="205.0" y="295.0" font-size="3.2" text-anchor="end" fill="#737373" font-family="sans-serif">5 / 5</text>
<g pointer-events="none"><text x="105.0" y="83.2" text-anchor="middle" font-family="sans-serif" font-size="12.4" fill="#9aa0a6" fill-opacity="0.3" transform="rotate(-28 105.0 83.2)">papercraft.kr</text><text x="105.0" y="148.5" text-anchor="middle" font-family="sans-serif" font-size="12.4" fill="#9aa0a6" fill-opacity="0.3" transform="rotate(-28 105.0 148.5)">papercraft.kr</text><text x="105.0" y="213.8" text-anchor="middle" font-family="sans-serif" font-size="12.4" fill="#9aa0a6" fill-opacity="0.3" transform="rotate(-28 105.0 213.8)">papercraft.kr</text></g></svg>
