<svg xmlns="http://www.w3.org/2000/svg" xmlns:xlink="http://www.w3.org/1999/xlink" width="210.00mm" height="297.00mm" viewBox="0 0 210.00 297.00">
<rect x="0" y="0" width="210.00" height="297.00" fill="#ffffff" stroke="#cccccc" stroke-width="0.2"/>
<polygon points="62.429,34.514 58.38,27.527 67.777,11.252 75.852,11.264" fill="rgb(216,216,216)"/>
<polygon points="30.3,68.564 20.729,71.152 4.363,99.543 6.92,109.123" fill="rgb(216,216,216)"/>
<polygon points="75.852,57.764 79.879,64.764 98.672,64.764 102.699,57.764" fill="rgb(216,216,216)"/>
<polygon points="102.699,57.764 110.775,57.776 120.171,41.502 116.122,34.514" fill="rgb(216,216,216)"/>
<polygon points="116.122,34.514 120.171,27.527 110.775,11.252 102.699,11.264" fill="rgb(216,216,216)"/>
<polygon points="102.699,11.264 98.672,4.264 79.879,4.264 75.852,11.264" fill="rgb(216,216,216)"/>
<polygon points="62.429,34.514 58.38,27.527 67.777,11.252 75.852,11.264" fill="#99d9fa"/>
<line x1="30.3" y1="68.564" x2="62.429" y2="34.514" stroke="#8c8c8c" stroke-width="0.3" stroke-dasharray="1.2,0.8"/>
<line x1="75.853" y1="57.764" x2="62.429" y2="34.514" stroke="#8c8c8c" stroke-width="0.3" stroke-dasharray="1.2,0.8"/>
<line x1="75.853" y1="57.764" x2="30.3" y2="68.564" stroke="#8c8c8c" stroke-width="0.3" stroke-dasharray="1.2,0.8"/>
<line x1="74.296" y1="84.566" x2="30.3" y2="68.564" stroke="#8c8c8c" stroke-width="0.3" stroke-dasharray="1.2,0.8"/>
<line x1="58.27" y1="106.105" x2="30.3" y2="68.564" stroke="#8c8c8c" stroke-width="0.3" stroke-dasharray="1.2,0.8"/>
<line x1="33.047" y1="115.298" x2="30.3" y2="68.564" stroke="#8c8c8c" stroke-width="0.3" stroke-dasharray="1.2,0.8"/>
<line x1="75.852" y1="11.264" x2="62.429" y2="34.514" stroke="#8c8c8c" stroke-width="0.3" stroke-dasharray="1.2,0.8"/>
<line x1="6.92" y1="109.123" x2="30.3" y2="68.564" stroke="#8c8c8c" stroke-width="0.3" stroke-dasharray="1.2,0.8"/>
<line x1="102.699" y1="57.764" x2="75.852" y2="57.764" stroke="#8c8c8c" stroke-width="0.3" stroke-dasharray="1.2,0.8"/>
<line x1="116.122" y1="34.514" x2="102.699" y2="57.764" stroke="#8c8c8c" stroke-width="0.3" stroke-dasharray="1.2,0.8"/>
<line x1="102.699" y1="11.264" x2="116.122" y2="34.514" stroke="#8c8c8c" stroke-width="0.3" stroke-dasharray="1.2,0.8"/>
<line x1="75.852" y1="11.264" x2="102.699" y2="11.264" stroke="#8c8c8c" stroke-width="0.3" stroke-dasharray="1.2,0.8"/>
<line x1="38.44" y1="22.462" x2="62.429" y2="34.514" stroke="#141414" stroke-width="0.4"/>
<line x1="30.3" y1="68.564" x2="38.44" y2="22.462" stroke="#141414" stroke-width="0.4"/>
<line x1="75.853" y1="57.764" x2="74.296" y2="84.566" stroke="#141414" stroke-width="0.4"/>
<line x1="74.296" y1="84.566" x2="58.27" y2="106.105" stroke="#141414" stroke-width="0.4"/>
<line x1="58.27" y1="106.105" x2="33.047" y2="115.298" stroke="#141414" stroke-width="0.4"/>
<line x1="33.047" y1="115.298" x2="6.92" y2="109.123" stroke="#141414" stroke-width="0.4"/>
<line x1="62.429" y1="34.514" x2="58.38" y2="27.527" stroke="#141414" stroke-width="0.4"/>
<line x1="58.38" y1="27.527" x2="67.777" y2="11.252" stroke="#141414" stroke-width="0.4"/>
<line x1="67.777" y1="11.252" x2="75.852" y2="11.264" stroke="#141414" stroke-width="0.4"/>
<line x1="30.3" y1="68.564" x2="20.729" y2="71.152" stroke="#141414" stroke-width="0.4"/>
<line x1="20.729" y1="71.152" x2="4.363" y2="99.543" stroke="#141414" stroke-width="0.4"/>
<line x1="4.363" y1="99.543" x2="6.92" y2="109.123" stroke="#141414" stroke-width="0.4"/>
<line x1="75.852" y1="57.764" x2="79.879" y2="64.764" stroke="#141414" stroke-width="0.4"/>
<line x1="79.879" y1="64.764" x2="98.672" y2="64.764" stroke="#141414" stroke-width="0.4"/>
<line x1="98.672" y1="64.764" x2="102.699" y2="57.764" stroke="#141414" stroke-width="0.4"/>
<line x1="102.699" y1="57.764" x2="110.775" y2="57.776" stroke="#141414" stroke-width="0.4"/>
<line x1="110.775" y1="57.776" x2="120.171" y2="41.502" stroke="#141414" stroke-width="0.4"/>
<line x1="120.171" y1="41.502" x2="116.122" y2="34.514" stroke="#141414" stroke-width="0.4"/>
<line x1="116.122" y1="34.514" x2="120.171" y2="27.527" stroke="#141414" stroke-width="0.4"/>
<line x1="120.171" y1="27.527" x2="110.775" y2="11.252" stroke="#141414" stroke-width="0.4"/>
<line x1="110.775" y1="11.252" x2="102.699" y2="11.264" stroke="#141414" stroke-width="0.4"/>
<line x1="102.699" y1="11.264" x2="98.672" y2="4.264" stroke="#141414" stroke-width="0.4"/>
<line x1="98.672" y1="4.264" x2="79.879" y2="4.264" stroke="#141414" stroke-width="0.4"/>
<line x1="79.879" y1="4.264" x2="75.852" y2="11.264" stroke="#141414" stroke-width="0.4"/>
<circle cx="66.11" cy="21.139" r="3.08" fill="#99d9fa" stroke="#464646" stroke-width="0.2"/>
<text x="66.11" y="22.60" font-size="4.18" text-anchor="middle" fill="#141414">12</text>
<circle cx="15.578" cy="87.095" r="3.08" fill="#ffe082" stroke="#464646" stroke-width="0.2"/>
<text x="15.578" y="88.56" font-size="4.18" text-anchor="middle" fill="#141414">13</text>
<circle cx="89.276" cy="61.264" r="3.08" fill="#ffe082" stroke="#464646" stroke-width="0.2"/>
<text x="89.276" y="62.73" font-size="4.18" text-anchor="middle" fill="#141414">14</text>
<circle cx="112.442" cy="47.889" r="3.08" fill="#ffe082" stroke="#464646" stroke-width="0.2"/>
<text x="112.442" y="49.35" font-size="4.18" text-anchor="middle" fill="#141414">15</text>
<circle cx="112.442" cy="21.139" r="3.08" fill="#ffe082" stroke="#464646" stroke-width="0.2"/>
<text x="112.442" y="22.60" font-size="4.18" text-anchor="middle" fill="#141414">16</text>
<circle cx="89.276" cy="7.764" r="3.08" fill="#ffe082" stroke="#464646" stroke-width="0.2"/>
<text x="89.276" y="9.23" font-size="4.18" text-anchor="middle" fill="#141414">17</text>
<circle cx="75.852" cy="26.764" r="4.60" fill="#eaf1fe" stroke="#2e78e6" stroke-width="0.3"/>
<text x="75.852" y="28.56" font-size="5.20" text-anchor="middle" fill="#14306e" font-weight="bold">2</text>
<text x="205.0" y="295.0" font-size="3.2" text-anchor="end" fill="#737373" font-family="sans-serif">2 / 3</text>
<g pointer-events="none"><text x="105.0" y="83.2" text-anchor="middle" font-family="sans-serif" font-size="12.4" fill="#9aa0a6" fill-opacity="0.3" transform="rotate(-28 105.0 83.2)">papercraft.kr</text><text x="105.0" y="148.5" text-anchor="middle" font-family="sans-serif" font-size="12.4" fill="#9aa0a6" fill-opacity="0.3" transform="rotate(-28 105.0 148.5)">papercraft.kr</text><text x="105.0" y="213.8" text-anchor="middle" font-family="sans-serif" font-size="12.4" fill="#9aa0a6" fill-opacity="0.3" transform="rotate(-28 105.0 213.8)">papercraft.kr</text></g></svg>
