<svg xmlns="http://www.w3.org/2000/svg" xmlns:xlink="http://www.w3.org/1999/xlink" width="210.00mm" height="297.00mm" viewBox="0 0 210.00 297.00">
<rect x="0" y="0" width="210.00" height="297.00" fill="#ffffff" stroke="#cccccc" stroke-width="0.2"/>
<polygon points="142.814,201.599 137.614,194.95 137.614,186.086 142.814,179.437" fill="rgb(216,216,216)"/>
<polygon points="142.814,201.599 137.453,205.772 136.684,226.164 141.715,230.729" fill="rgb(216,216,216)"/>
<polygon points="190.264,183.402 195.988,186.724 198.673,205.638 194.1,210.422" fill="rgb(216,216,216)"/>
<polygon points="190.264,183.402 182.048,173.509 168.007,166.526 155.16,165.946" fill="rgb(216,216,216)"/>
<polygon points="194.1,210.422 188.122,218.316 151.453,232.532 141.715,230.729" fill="rgb(216,216,216)"/>
<polygon points="182.781,166.299 188.549,163.573 191.579,146.588 187.11,142.036" fill="rgb(216,216,216)"/>
<polygon points="130.49,133.656 121.0,133.21 118.39,134.747 114.176,143.263" fill="rgb(216,216,216)"/>
<polygon points="119.983,19.437 114.126,15.552 92.731,20.953 89.419,27.152" fill="rgb(216,216,216)"/>
<polygon points="5.0,10.868 13.128,6.897 47.242,12.328 53.734,18.627" fill="rgb(216,216,216)"/>
<line x1="155.161" y1="165.946" x2="112.319" y2="194.56" stroke="#8c8c8c" stroke-width="0.3" stroke-dasharray="1.2,0.8"/>
<line x1="106.901" y1="175.08" x2="126.955" y2="160.348" stroke="#8c8c8c" stroke-width="0.3" stroke-dasharray="1.2,0.8"/>
<line x1="106.901" y1="175.08" x2="114.177" y2="143.263" stroke="#8c8c8c" stroke-width="0.3" stroke-dasharray="1.2,0.8"/>
<line x1="190.264" y1="183.402" x2="142.814" y2="201.599" stroke="#8c8c8c" stroke-width="0.3" stroke-dasharray="1.2,0.8"/>
<line x1="194.1" y1="210.422" x2="142.814" y2="201.599" stroke="#8c8c8c" stroke-width="0.3" stroke-dasharray="1.2,0.8"/>
<line x1="142.814" y1="179.437" x2="190.264" y2="183.402" stroke="#8c8c8c" stroke-width="0.3" stroke-dasharray="1.2,0.8"/>
<line x1="114.177" y1="143.263" x2="126.955" y2="160.348" stroke="#8c8c8c" stroke-width="0.3" stroke-dasharray="1.2,0.8"/>
<line x1="78.871" y1="168.304" x2="114.177" y2="143.263" stroke="#8c8c8c" stroke-width="0.3" stroke-dasharray="1.2,0.8"/>
<line x1="130.49" y1="133.656" x2="182.781" y2="166.299" stroke="#8c8c8c" stroke-width="0.3" stroke-dasharray="1.2,0.8"/>
<line x1="114.177" y1="143.263" x2="114.616" y2="75.976" stroke="#8c8c8c" stroke-width="0.3" stroke-dasharray="1.2,0.8"/>
<line x1="78.564" y1="45.725" x2="114.177" y2="143.263" stroke="#8c8c8c" stroke-width="0.3" stroke-dasharray="1.2,0.8"/>
<line x1="128.567" y1="43.949" x2="89.419" y2="27.152" stroke="#8c8c8c" stroke-width="0.3" stroke-dasharray="1.2,0.8"/>
<line x1="78.564" y1="45.725" x2="106.339" y2="46.031" stroke="#8c8c8c" stroke-width="0.3" stroke-dasharray="1.2,0.8"/>
<line x1="106.339" y1="46.031" x2="89.419" y2="27.152" stroke="#8c8c8c" stroke-width="0.3" stroke-dasharray="1.2,0.8"/>
<line x1="106.901" y1="175.08" x2="112.319" y2="194.56" stroke="#8c8c8c" stroke-width="0.3" stroke-dasharray="1.2,0.8"/>
<line x1="142.814" y1="179.437" x2="155.161" y2="165.946" stroke="#8c8c8c" stroke-width="0.3" stroke-dasharray="1.2,0.8"/>
<line x1="126.955" y1="160.348" x2="130.49" y2="133.656" stroke="#8c8c8c" stroke-width="0.3" stroke-dasharray="1.2,0.8"/>
<line x1="78.871" y1="168.304" x2="78.564" y2="45.725" stroke="#8c8c8c" stroke-width="0.3" stroke-dasharray="1.2,0.8"/>
<line x1="48.943" y1="59.474" x2="78.564" y2="45.725" stroke="#8c8c8c" stroke-width="0.3" stroke-dasharray="1.2,0.8"/>
<line x1="78.564" y1="45.725" x2="39.641" y2="45.496" stroke="#8c8c8c" stroke-width="0.3" stroke-dasharray="1.2,0.8"/>
<line x1="53.734" y1="18.627" x2="39.641" y2="45.496" stroke="#8c8c8c" stroke-width="0.3" stroke-dasharray="1.2,0.8"/>
<line x1="142.814" y1="179.437" x2="142.814" y2="201.599" stroke="#8c8c8c" stroke-width="0.3" stroke-dasharray="1.2,0.8"/>
<line x1="141.715" y1="230.729" x2="142.814" y2="201.599" stroke="#8c8c8c" stroke-width="0.3" stroke-dasharray="1.2,0.8"/>
<line x1="194.1" y1="210.422" x2="190.264" y2="183.402" stroke="#8c8c8c" stroke-width="0.3" stroke-dasharray="1.2,0.8"/>
<line x1="155.16" y1="165.946" x2="190.264" y2="183.402" stroke="#8c8c8c" stroke-width="0.3" stroke-dasharray="1.2,0.8"/>
<line x1="141.715" y1="230.729" x2="194.1" y2="210.422" stroke="#8c8c8c" stroke-width="0.3" stroke-dasharray="1.2,0.8"/>
<line x1="187.11" y1="142.036" x2="182.781" y2="166.299" stroke="#8c8c8c" stroke-width="0.3" stroke-dasharray="1.2,0.8"/>
<line x1="114.176" y1="143.263" x2="130.49" y2="133.656" stroke="#8c8c8c" stroke-width="0.3" stroke-dasharray="1.2,0.8"/>
<line x1="89.419" y1="27.152" x2="119.983" y2="19.437" stroke="#8c8c8c" stroke-width="0.3" stroke-dasharray="1.2,0.8"/>
<line x1="53.734" y1="18.627" x2="5.0" y2="10.868" stroke="#8c8c8c" stroke-width="0.3" stroke-dasharray="1.2,0.8"/>
<line x1="112.319" y1="194.56" x2="61.251" y2="213.507" stroke="#141414" stroke-width="0.4"/>
<line x1="61.251" y1="213.507" x2="106.901" y2="175.08" stroke="#141414" stroke-width="0.4"/>
<line x1="142.814" y1="179.437" x2="112.319" y2="194.56" stroke="#141414" stroke-width="0.4"/>
<line x1="106.901" y1="175.08" x2="78.871" y2="168.304" stroke="#141414" stroke-width="0.4"/>
<line x1="126.955" y1="160.348" x2="155.161" y2="165.946" stroke="#141414" stroke-width="0.4"/>
<line x1="182.781" y1="166.299" x2="126.955" y2="160.348" stroke="#141414" stroke-width="0.4"/>
<line x1="78.871" y1="168.304" x2="48.943" y2="59.474" stroke="#141414" stroke-width="0.4"/>
<line x1="130.49" y1="133.656" x2="187.11" y2="142.036" stroke="#141414" stroke-width="0.4"/>
<line x1="48.943" y1="59.474" x2="39.641" y2="45.496" stroke="#141414" stroke-width="0.4"/>
<line x1="128.828" y1="51.144" x2="114.177" y2="143.263" stroke="#141414" stroke-width="0.4"/>
<line x1="114.616" y1="75.976" x2="128.828" y2="51.144" stroke="#141414" stroke-width="0.4"/>
<line x1="106.339" y1="46.031" x2="114.616" y2="75.976" stroke="#141414" stroke-width="0.4"/>
<line x1="119.983" y1="19.437" x2="128.567" y2="43.949" stroke="#141414" stroke-width="0.4"/>
<line x1="128.567" y1="43.949" x2="106.339" y2="46.031" stroke="#141414" stroke-width="0.4"/>
<line x1="78.564" y1="45.725" x2="89.419" y2="27.152" stroke="#141414" stroke-width="0.4"/>
<line x1="53.734" y1="18.627" x2="78.564" y2="45.725" stroke="#141414" stroke-width="0.4"/>
<line x1="39.641" y1="45.496" x2="5.0" y2="10.868" stroke="#141414" stroke-width="0.4"/>
<line x1="142.814" y1="201.599" x2="137.614" y2="194.95" stroke="#141414" stroke-width="0.4"/>
<line x1="137.614" y1="194.95" x2="137.614" y2="186.086" stroke="#141414" stroke-width="0.4"/>
<line x1="137.614" y1="186.086" x2="142.814" y2="179.437" stroke="#141414" stroke-width="0.4"/>
<line x1="142.814" y1="201.599" x2="137.453" y2="205.772" stroke="#141414" stroke-width="0.4"/>
<line x1="137.453" y1="205.772" x2="136.684" y2="226.164" stroke="#141414" stroke-width="0.4"/>
<line x1="136.684" y1="226.164" x2="141.715" y2="230.729" stroke="#141414" stroke-width="0.4"/>
<line x1="190.264" y1="183.402" x2="195.988" y2="186.724" stroke="#141414" stroke-width="0.4"/>
<line x1="195.988" y1="186.724" x2="198.673" y2="205.638" stroke="#141414" stroke-width="0.4"/>
<line x1="198.673" y1="205.638" x2="194.1" y2="210.422" stroke="#141414" stroke-width="0.4"/>
<line x1="190.264" y1="183.402" x2="182.048" y2="173.509" stroke="#141414" stroke-width="0.4"/>
<line x1="182.048" y1="173.509" x2="168.007" y2="166.526" stroke="#141414" stroke-width="0.4"/>
<line x1="168.007" y1="166.526" x2="155.16" y2="165.946" stroke="#141414" stroke-width="0.4"/>
<line x1="194.1" y1="210.422" x2="188.122" y2="218.316" stroke="#141414" stroke-width="0.4"/>
<line x1="188.122" y1="218.316" x2="151.453" y2="232.532" stroke="#141414" stroke-width="0.4"/>
<line x1="151.453" y1="232.532" x2="141.715" y2="230.729" stroke="#141414" stroke-width="0.4"/>
<line x1="182.781" y1="166.299" x2="188.549" y2="163.573" stroke="#141414" stroke-width="0.4"/>
<line x1="188.549" y1="163.573" x2="191.579" y2="146.588" stroke="#141414" stroke-width="0.4"/>
<line x1="191.579" y1="146.588" x2="187.11" y2="142.036" stroke="#141414" stroke-width="0.4"/>
<line x1="130.49" y1="133.656" x2="121.0" y2="133.21" stroke="#141414" stroke-width="0.4"/>
<line x1="121.0" y1="133.21" x2="118.39" y2="134.747" stroke="#141414" stroke-width="0.4"/>
<line x1="118.39" y1="134.747" x2="114.176" y2="143.263" stroke="#141414" stroke-width="0.4"/>
<line x1="119.983" y1="19.437" x2="114.126" y2="15.552" stroke="#141414" stroke-width="0.4"/>
<line x1="114.126" y1="15.552" x2="92.731" y2="20.953" stroke="#141414" stroke-width="0.4"/>
<line x1="92.731" y1="20.953" x2="89.419" y2="27.152" stroke="#141414" stroke-width="0.4"/>
<line x1="5.0" y1="10.868" x2="13.128" y2="6.897" stroke="#141414" stroke-width="0.4"/>
<line x1="13.128" y1="6.897" x2="47.242" y2="12.328" stroke="#141414" stroke-width="0.4"/>
<line x1="47.242" y1="12.328" x2="53.734" y2="18.627" stroke="#141414" stroke-width="0.4"/>
<circle cx="140.214" cy="190.518" r="1.07" fill="#ffe082" stroke="#464646" stroke-width="0.2"/>
<text x="140.214" y="191.03" font-size="1.45" text-anchor="middle" fill="#141414">6</text>
<circle cx="139.667" cy="216.066" r="1.07" fill="#ffe082" stroke="#464646" stroke-width="0.2"/>
<text x="139.667" y="216.57" font-size="1.45" text-anchor="middle" fill="#141414">7</text>
<circle cx="194.756" cy="196.546" r="1.07" fill="#ffe082" stroke="#464646" stroke-width="0.2"/>
<text x="194.756" y="197.05" font-size="1.45" text-anchor="middle" fill="#141414">8</text>
<circle cx="173.87" cy="172.346" r="1.07" fill="#ffe082" stroke="#464646" stroke-width="0.2"/>
<text x="173.87" y="172.85" font-size="1.45" text-anchor="middle" fill="#141414">9</text>
<circle cx="168.847" cy="223.0" r="1.07" fill="#ffe082" stroke="#464646" stroke-width="0.2"/>
<text x="168.847" y="223.51" font-size="1.45" text-anchor="middle" fill="#141414">15</text>
<circle cx="187.505" cy="154.624" r="1.07" fill="#ffe082" stroke="#464646" stroke-width="0.2"/>
<text x="187.505" y="155.13" font-size="1.45" text-anchor="middle" fill="#141414">18</text>
<circle cx="121.014" cy="136.219" r="1.07" fill="#ffe082" stroke="#464646" stroke-width="0.2"/>
<text x="121.014" y="136.73" font-size="1.45" text-anchor="middle" fill="#141414">21</text>
<circle cx="104.065" cy="20.773" r="1.07" fill="#ffe082" stroke="#464646" stroke-width="0.2"/>
<text x="104.065" y="21.28" font-size="1.45" text-anchor="middle" fill="#141414">38</text>
<circle cx="29.776" cy="12.18" r="1.07" fill="#ffe082" stroke="#464646" stroke-width="0.2"/>
<text x="29.776" y="12.69" font-size="1.45" text-anchor="middle" fill="#141414">49</text>
<circle cx="93.49" cy="194.383" r="4.60" fill="#eaf1fe" stroke="#2e78e6" stroke-width="0.3"/>
<text x="93.49" y="196.18" font-size="5.20" text-anchor="middle" fill="#14306e" font-weight="bold">1</text>
<text x="205.0" y="295.0" font-size="3.2" text-anchor="end" fill="#737373" font-family="sans-serif">1 / 5</text>
<g pointer-events="none"><text x="105.0" y="83.2" text-anchor="middle" font-family="sans-serif" font-size="12.4" fill="#9aa0a6" fill-opacity="0.3" transform="rotate(-28 105.0 83.2)">papercraft.kr</text><text x="105.0" y="148.5" text-anchor="middle" font-family="sans-serif" font-size="12.4" fill="#9aa0a6" fill-opacity="0.3" transform="rotate(-28 105.0 148.5)">papercraft.kr</text><text x="105.0" y="213.8" text-anchor="middle" font-family="sans-serif" font-size="12.4" fill="#9aa0a6" fill-opacity="0.3" transform="rotate(-28 105.0 213.8)">papercraft.kr</text></g></svg>
