<svg xmlns="http://www.w3.org/2000/svg" xmlns:xlink="http://www.w3.org/1999/xlink" width="210.00mm" height="297.00mm" viewBox="0 0 210.00 297.00">
<rect x="0" y="0" width="210.00" height="297.00" fill="#ffffff" stroke="#cccccc" stroke-width="0.2"/>
<polygon points="54.304,78.956 58.002,85.956 75.258,85.956 78.956,78.956" fill="rgb(216,216,216)"/>
<polygon points="54.304,54.304 58.002,47.304 75.258,47.304 78.956,54.304" fill="rgb(216,216,216)"/>
<polygon points="78.956,78.956 85.956,75.258 85.956,58.002 78.956,54.304" fill="rgb(216,216,216)"/>
<polygon points="54.304,103.608 50.606,110.608 33.35,110.608 29.652,103.608" fill="rgb(216,216,216)"/>
<polygon points="29.652,78.956 22.652,75.258 22.652,58.002 29.652,54.304" fill="rgb(216,216,216)"/>
<polygon points="29.652,78.956 22.652,82.654 22.652,99.91 29.652,103.608" fill="rgb(216,216,216)"/>
<polygon points="29.652,54.304 22.652,50.606 22.652,33.35 29.652,29.652" fill="rgb(216,216,216)"/>
<polygon points="54.304,78.956 58.002,85.956 75.258,85.956 78.956,78.956" fill="#99d9fa"/>
<line x1="54.304" y1="78.956" x2="54.304" y2="54.304" stroke="#8c8c8c" stroke-width="0.3" stroke-dasharray="1.2,0.8"/>
<line x1="54.304" y1="78.956" x2="29.652" y2="78.956" stroke="#8c8c8c" stroke-width="0.3" stroke-dasharray="1.2,0.8"/>
<line x1="29.652" y1="54.304" x2="54.304" y2="54.304" stroke="#8c8c8c" stroke-width="0.3" stroke-dasharray="1.2,0.8"/>
<line x1="29.652" y1="29.652" x2="54.304" y2="29.652" stroke="#8c8c8c" stroke-width="0.3" stroke-dasharray="1.2,0.8"/>
<line x1="29.652" y1="29.652" x2="29.652" y2="5.0" stroke="#8c8c8c" stroke-width="0.3" stroke-dasharray="1.2,0.8"/>
<line x1="78.956" y1="78.956" x2="54.304" y2="78.956" stroke="#8c8c8c" stroke-width="0.3" stroke-dasharray="1.2,0.8"/>
<line x1="78.956" y1="54.304" x2="54.304" y2="54.304" stroke="#8c8c8c" stroke-width="0.3" stroke-dasharray="1.2,0.8"/>
<line x1="78.956" y1="54.304" x2="78.956" y2="78.956" stroke="#8c8c8c" stroke-width="0.3" stroke-dasharray="1.2,0.8"/>
<line x1="29.652" y1="103.608" x2="54.304" y2="103.608" stroke="#8c8c8c" stroke-width="0.3" stroke-dasharray="1.2,0.8"/>
<line x1="29.652" y1="54.304" x2="29.652" y2="78.956" stroke="#8c8c8c" stroke-width="0.3" stroke-dasharray="1.2,0.8"/>
<line x1="29.652" y1="103.608" x2="29.652" y2="78.956" stroke="#8c8c8c" stroke-width="0.3" stroke-dasharray="1.2,0.8"/>
<line x1="29.652" y1="29.652" x2="29.652" y2="54.304" stroke="#8c8c8c" stroke-width="0.3" stroke-dasharray="1.2,0.8"/>
<line x1="54.304" y1="78.956" x2="54.304" y2="103.608" stroke="#141414" stroke-width="0.4"/>
<line x1="54.304" y1="29.652" x2="54.304" y2="54.304" stroke="#141414" stroke-width="0.4"/>
<line x1="54.304" y1="5.0" x2="54.304" y2="29.652" stroke="#141414" stroke-width="0.4"/>
<line x1="29.652" y1="5.0" x2="54.304" y2="5.0" stroke="#141414" stroke-width="0.4"/>
<line x1="5.0" y1="29.652" x2="5.0" y2="5.0" stroke="#141414" stroke-width="0.4"/>
<line x1="5.0" y1="5.0" x2="29.652" y2="5.0" stroke="#141414" stroke-width="0.4"/>
<line x1="29.652" y1="29.652" x2="5.0" y2="29.652" stroke="#141414" stroke-width="0.4"/>
<line x1="54.304" y1="78.956" x2="58.002" y2="85.956" stroke="#141414" stroke-width="0.4"/>
<line x1="58.002" y1="85.956" x2="75.258" y2="85.956" stroke="#141414" stroke-width="0.4"/>
<line x1="75.258" y1="85.956" x2="78.956" y2="78.956" stroke="#141414" stroke-width="0.4"/>
<line x1="54.304" y1="54.304" x2="58.002" y2="47.304" stroke="#141414" stroke-width="0.4"/>
<line x1="58.002" y1="47.304" x2="75.258" y2="47.304" stroke="#141414" stroke-width="0.4"/>
<line x1="75.258" y1="47.304" x2="78.956" y2="54.304" stroke="#141414" stroke-width="0.4"/>
<line x1="78.956" y1="78.956" x2="85.956" y2="75.258" stroke="#141414" stroke-width="0.4"/>
<line x1="85.956" y1="75.258" x2="85.956" y2="58.002" stroke="#141414" stroke-width="0.4"/>
<line x1="85.956" y1="58.002" x2="78.956" y2="54.304" stroke="#141414" stroke-width="0.4"/>
<line x1="54.304" y1="103.608" x2="50.606" y2="110.608" stroke="#141414" stroke-width="0.4"/>
<line x1="50.606" y1="110.608" x2="33.35" y2="110.608" stroke="#141414" stroke-width="0.4"/>
<line x1="33.35" y1="110.608" x2="29.652" y2="103.608" stroke="#141414" stroke-width="0.4"/>
<line x1="29.652" y1="78.956" x2="22.652" y2="75.258" stroke="#141414" stroke-width="0.4"/>
<line x1="22.652" y1="75.258" x2="22.652" y2="58.002" stroke="#141414" stroke-width="0.4"/>
<line x1="22.652" y1="58.002" x2="29.652" y2="54.304" stroke="#141414" stroke-width="0.4"/>
<line x1="29.652" y1="78.956" x2="22.652" y2="82.654" stroke="#141414" stroke-width="0.4"/>
<line x1="22.652" y1="82.654" x2="22.652" y2="99.91" stroke="#141414" stroke-width="0.4"/>
<line x1="22.652" y1="99.91" x2="29.652" y2="103.608" stroke="#141414" stroke-width="0.4"/>
<line x1="29.652" y1="54.304" x2="22.652" y2="50.606" stroke="#141414" stroke-width="0.4"/>
<line x1="22.652" y1="50.606" x2="22.652" y2="33.35" stroke="#141414" stroke-width="0.4"/>
<line x1="22.652" y1="33.35" x2="29.652" y2="29.652" stroke="#141414" stroke-width="0.4"/>
<circle cx="66.63" cy="82.456" r="2.66" fill="#99d9fa" stroke="#464646" stroke-width="0.2"/>
<text x="66.63" y="83.37" font-size="2.60" text-anchor="middle" fill="#141414">14</text>
<circle cx="66.63" cy="50.804" r="2.66" fill="#ffe082" stroke="#464646" stroke-width="0.2"/>
<text x="66.63" y="51.72" font-size="2.60" text-anchor="middle" fill="#141414">15</text>
<circle cx="82.456" cy="66.63" r="2.66" fill="#ffe082" stroke="#464646" stroke-width="0.2"/>
<text x="82.456" y="67.54" font-size="2.60" text-anchor="middle" fill="#141414">16</text>
<circle cx="41.978" cy="107.108" r="2.66" fill="#ffe082" stroke="#464646" stroke-width="0.2"/>
<text x="41.978" y="108.02" font-size="2.60" text-anchor="middle" fill="#141414">17</text>
<circle cx="26.152" cy="66.63" r="2.66" fill="#ffe082" stroke="#464646" stroke-width="0.2"/>
<text x="26.152" y="67.54" font-size="2.60" text-anchor="middle" fill="#141414">18</text>
<circle cx="26.152" cy="91.282" r="2.66" fill="#ffe082" stroke="#464646" stroke-width="0.2"/>
<text x="26.152" y="92.19" font-size="2.60" text-anchor="middle" fill="#141414">19</text>
<circle cx="26.152" cy="41.978" r="2.66" fill="#ffe082" stroke="#464646" stroke-width="0.2"/>
<text x="26.152" y="42.89" font-size="2.60" text-anchor="middle" fill="#141414">20</text>
<circle cx="37.869" cy="95.391" r="4.60" fill="#eaf1fe" stroke="#2e78e6" stroke-width="0.3"/>
<text x="37.869" y="97.19" font-size="5.20" text-anchor="middle" fill="#14306e" font-weight="bold">2</text>
<polygon points="73.19,170.801 68.752,177.801 48.045,177.801 43.607,170.801" fill="rgb(216,216,216)"/>
<polygon points="73.19,143.191 77.479,136.191 97.497,136.191 101.786,143.191" fill="rgb(216,216,216)"/>
<polygon points="73.19,143.191 68.752,136.191 48.045,136.191 43.607,143.191" fill="rgb(216,216,216)"/>
<polygon points="101.786,170.801 108.786,175.238 108.786,195.946 101.786,200.383" fill="rgb(216,216,216)"/>
<polygon points="15.011,113.608 8.011,118.045 8.011,138.753 15.011,143.191" fill="rgb(216,216,216)"/>
<polygon points="73.19,200.383 77.479,207.383 97.497,207.383 101.786,200.383" fill="rgb(216,216,216)"/>
<polygon points="131.369,170.801 138.369,166.659 138.369,147.332 131.369,143.191" fill="rgb(216,216,216)"/>
<polygon points="73.19,170.801 68.752,177.801 48.045,177.801 43.607,170.801" fill="#99d9fa"/>
<line x1="73.19" y1="170.801" x2="73.19" y2="143.191" stroke="#8c8c8c" stroke-width="0.3" stroke-dasharray="1.2,0.8"/>
<line x1="101.786" y1="170.801" x2="73.19" y2="170.801" stroke="#8c8c8c" stroke-width="0.3" stroke-dasharray="1.2,0.8"/>
<line x1="101.786" y1="143.191" x2="101.786" y2="170.801" stroke="#8c8c8c" stroke-width="0.3" stroke-dasharray="1.2,0.8"/>
<line x1="43.607" y1="170.801" x2="43.607" y2="143.191" stroke="#8c8c8c" stroke-width="0.3" stroke-dasharray="1.2,0.8"/>
<line x1="43.607" y1="143.191" x2="15.011" y2="143.191" stroke="#8c8c8c" stroke-width="0.3" stroke-dasharray="1.2,0.8"/>
<line x1="43.607" y1="170.801" x2="73.19" y2="170.801" stroke="#8c8c8c" stroke-width="0.3" stroke-dasharray="1.2,0.8"/>
<line x1="101.786" y1="143.191" x2="73.19" y2="143.191" stroke="#8c8c8c" stroke-width="0.3" stroke-dasharray="1.2,0.8"/>
<line x1="43.607" y1="143.191" x2="73.19" y2="143.191" stroke="#8c8c8c" stroke-width="0.3" stroke-dasharray="1.2,0.8"/>
<line x1="101.786" y1="200.383" x2="101.786" y2="170.801" stroke="#8c8c8c" stroke-width="0.3" stroke-dasharray="1.2,0.8"/>
<line x1="15.011" y1="143.191" x2="15.011" y2="113.608" stroke="#8c8c8c" stroke-width="0.3" stroke-dasharray="1.2,0.8"/>
<line x1="101.786" y1="200.383" x2="73.19" y2="200.383" stroke="#8c8c8c" stroke-width="0.3" stroke-dasharray="1.2,0.8"/>
<line x1="131.369" y1="143.191" x2="131.369" y2="170.801" stroke="#8c8c8c" stroke-width="0.3" stroke-dasharray="1.2,0.8"/>
<line x1="73.19" y1="200.383" x2="73.19" y2="170.801" stroke="#141414" stroke-width="0.4"/>
<line x1="15.011" y1="113.608" x2="43.607" y2="113.608" stroke="#141414" stroke-width="0.4"/>
<line x1="43.607" y1="113.608" x2="43.607" y2="143.191" stroke="#141414" stroke-width="0.4"/>
<line x1="131.369" y1="170.801" x2="101.786" y2="170.801" stroke="#141414" stroke-width="0.4"/>
<line x1="101.786" y1="143.191" x2="131.369" y2="143.191" stroke="#141414" stroke-width="0.4"/>
<line x1="43.607" y1="170.801" x2="15.011" y2="170.801" stroke="#141414" stroke-width="0.4"/>
<line x1="15.011" y1="170.801" x2="15.011" y2="143.191" stroke="#141414" stroke-width="0.4"/>
<line x1="73.19" y1="170.801" x2="68.752" y2="177.801" stroke="#141414" stroke-width="0.4"/>
<line x1="68.752" y1="177.801" x2="48.045" y2="177.801" stroke="#141414" stroke-width="0.4"/>
<line x1="48.045" y1="177.801" x2="43.607" y2="170.801" stroke="#141414" stroke-width="0.4"/>
<line x1="73.19" y1="143.191" x2="77.479" y2="136.191" stroke="#141414" stroke-width="0.4"/>
<line x1="77.479" y1="136.191" x2="97.497" y2="136.191" stroke="#141414" stroke-width="0.4"/>
<line x1="97.497" y1="136.191" x2="101.786" y2="143.191" stroke="#141414" stroke-width="0.4"/>
<line x1="73.19" y1="143.191" x2="68.752" y2="136.191" stroke="#141414" stroke-width="0.4"/>
<line x1="68.752" y1="136.191" x2="48.045" y2="136.191" stroke="#141414" stroke-width="0.4"/>
<line x1="48.045" y1="136.191" x2="43.607" y2="143.191" stroke="#141414" stroke-width="0.4"/>
<line x1="101.786" y1="170.801" x2="108.786" y2="175.238" stroke="#141414" stroke-width="0.4"/>
<line x1="108.786" y1="175.238" x2="108.786" y2="195.946" stroke="#141414" stroke-width="0.4"/>
<line x1="108.786" y1="195.946" x2="101.786" y2="200.383" stroke="#141414" stroke-width="0.4"/>
<line x1="15.011" y1="113.608" x2="8.011" y2="118.045" stroke="#141414" stroke-width="0.4"/>
<line x1="8.011" y1="118.045" x2="8.011" y2="138.753" stroke="#141414" stroke-width="0.4"/>
<line x1="8.011" y1="138.753" x2="15.011" y2="143.191" stroke="#141414" stroke-width="0.4"/>
<line x1="73.19" y1="200.383" x2="77.479" y2="207.383" stroke="#141414" stroke-width="0.4"/>
<line x1="77.479" y1="207.383" x2="97.497" y2="207.383" stroke="#141414" stroke-width="0.4"/>
<line x1="97.497" y1="207.383" x2="101.786" y2="200.383" stroke="#141414" stroke-width="0.4"/>
<line x1="131.369" y1="170.801" x2="138.369" y2="166.659" stroke="#141414" stroke-width="0.4"/>
<line x1="138.369" y1="166.659" x2="138.369" y2="147.332" stroke="#141414" stroke-width="0.4"/>
<line x1="138.369" y1="147.332" x2="131.369" y2="143.191" stroke="#141414" stroke-width="0.4"/>
<circle cx="58.399" cy="174.301" r="2.66" fill="#99d9fa" stroke="#464646" stroke-width="0.2"/>
<text x="58.399" y="175.21" font-size="2.60" text-anchor="middle" fill="#141414">21</text>
<circle cx="87.488" cy="139.691" r="2.66" fill="#ffe082" stroke="#464646" stroke-width="0.2"/>
<text x="87.488" y="140.60" font-size="2.60" text-anchor="middle" fill="#141414">22</text>
<circle cx="58.399" cy="139.691" r="2.66" fill="#ffe082" stroke="#464646" stroke-width="0.2"/>
<text x="58.399" y="140.60" font-size="2.60" text-anchor="middle" fill="#141414">23</text>
<circle cx="105.286" cy="185.592" r="2.66" fill="#ffe082" stroke="#464646" stroke-width="0.2"/>
<text x="105.286" y="186.50" font-size="2.60" text-anchor="middle" fill="#141414">24</text>
<circle cx="11.511" cy="128.399" r="2.66" fill="#ffe082" stroke="#464646" stroke-width="0.2"/>
<text x="11.511" y="129.31" font-size="2.60" text-anchor="middle" fill="#141414">25</text>
<circle cx="87.488" cy="203.883" r="2.66" fill="#ffe082" stroke="#464646" stroke-width="0.2"/>
<text x="87.488" y="204.79" font-size="2.60" text-anchor="middle" fill="#141414">26</text>
<circle cx="134.869" cy="156.996" r="2.66" fill="#ffe082" stroke="#464646" stroke-width="0.2"/>
<text x="134.869" y="157.91" font-size="2.60" text-anchor="middle" fill="#141414">27</text>
<circle cx="92.254" cy="190.523" r="4.60" fill="#eaf1fe" stroke="#2e78e6" stroke-width="0.3"/>
<text x="92.254" y="192.32" font-size="5.20" text-anchor="middle" fill="#14306e" font-weight="bold">3</text>
<polygon points="126.297,59.96 129.255,66.96 143.06,66.96 146.019,59.96" fill="rgb(216,216,216)"/>
<polygon points="126.297,42.341 129.255,35.341 143.06,35.341 146.019,42.341" fill="rgb(216,216,216)"/>
<polygon points="146.019,59.96 153.019,57.318 153.019,44.984 146.019,42.341" fill="rgb(216,216,216)"/>
<polygon points="126.297,79.682 123.654,86.682 111.321,86.682 108.678,79.682" fill="rgb(216,216,216)"/>
<polygon points="108.678,59.96 101.678,57.318 101.678,44.984 108.678,42.341" fill="rgb(216,216,216)"/>
<polygon points="108.678,59.96 101.678,62.919 101.678,76.724 108.678,79.682" fill="rgb(216,216,216)"/>
<polygon points="108.678,42.341 101.678,39.383 101.678,25.578 108.678,22.619" fill="rgb(216,216,216)"/>
<polygon points="126.297,59.96 129.255,66.96 143.06,66.96 146.019,59.96" fill="#99d9fa"/>
<line x1="126.297" y1="59.96" x2="126.297" y2="42.341" stroke="#8c8c8c" stroke-width="0.3" stroke-dasharray="1.2,0.8"/>
<line x1="126.297" y1="59.96" x2="108.678" y2="59.96" stroke="#8c8c8c" stroke-width="0.3" stroke-dasharray="1.2,0.8"/>
<line x1="108.678" y1="42.341" x2="126.297" y2="42.341" stroke="#8c8c8c" stroke-width="0.3" stroke-dasharray="1.2,0.8"/>
<line x1="108.678" y1="22.619" x2="126.297" y2="22.619" stroke="#8c8c8c" stroke-width="0.3" stroke-dasharray="1.2,0.8"/>
<line x1="108.678" y1="22.619" x2="108.678" y2="5.0" stroke="#8c8c8c" stroke-width="0.3" stroke-dasharray="1.2,0.8"/>
<line x1="146.019" y1="59.96" x2="126.297" y2="59.96" stroke="#8c8c8c" stroke-width="0.3" stroke-dasharray="1.2,0.8"/>
<line x1="146.019" y1="42.341" x2="126.297" y2="42.341" stroke="#8c8c8c" stroke-width="0.3" stroke-dasharray="1.2,0.8"/>
<line x1="146.019" y1="42.341" x2="146.019" y2="59.96" stroke="#8c8c8c" stroke-width="0.3" stroke-dasharray="1.2,0.8"/>
<line x1="108.678" y1="79.682" x2="126.297" y2="79.682" stroke="#8c8c8c" stroke-width="0.3" stroke-dasharray="1.2,0.8"/>
<line x1="108.678" y1="42.341" x2="108.678" y2="59.96" stroke="#8c8c8c" stroke-width="0.3" stroke-dasharray="1.2,0.8"/>
<line x1="108.678" y1="79.682" x2="108.678" y2="59.96" stroke="#8c8c8c" stroke-width="0.3" stroke-dasharray="1.2,0.8"/>
<line x1="108.678" y1="22.619" x2="108.678" y2="42.341" stroke="#8c8c8c" stroke-width="0.3" stroke-dasharray="1.2,0.8"/>
<line x1="126.297" y1="59.96" x2="126.297" y2="79.682" stroke="#141414" stroke-width="0.4"/>
<line x1="126.297" y1="22.619" x2="126.297" y2="42.341" stroke="#141414" stroke-width="0.4"/>
<line x1="126.297" y1="5.0" x2="126.297" y2="22.619" stroke="#141414" stroke-width="0.4"/>
<line x1="108.678" y1="5.0" x2="126.297" y2="5.0" stroke="#141414" stroke-width="0.4"/>
<line x1="88.956" y1="22.619" x2="88.956" y2="5.0" stroke="#141414" stroke-width="0.4"/>
<line x1="88.956" y1="5.0" x2="108.678" y2="5.0" stroke="#141414" stroke-width="0.4"/>
<line x1="108.678" y1="22.619" x2="88.956" y2="22.619" stroke="#141414" stroke-width="0.4"/>
<line x1="126.297" y1="59.96" x2="129.255" y2="66.96" stroke="#141414" stroke-width="0.4"/>
<line x1="129.255" y1="66.96" x2="143.06" y2="66.96" stroke="#141414" stroke-width="0.4"/>
<line x1="143.06" y1="66.96" x2="146.019" y2="59.96" stroke="#141414" stroke-width="0.4"/>
<line x1="126.297" y1="42.341" x2="129.255" y2="35.341" stroke="#141414" stroke-width="0.4"/>
<line x1="129.255" y1="35.341" x2="143.06" y2="35.341" stroke="#141414" stroke-width="0.4"/>
<line x1="143.06" y1="35.341" x2="146.019" y2="42.341" stroke="#141414" stroke-width="0.4"/>
<line x1="146.019" y1="59.96" x2="153.019" y2="57.318" stroke="#141414" stroke-width="0.4"/>
<line x1="153.019" y1="57.318" x2="153.019" y2="44.984" stroke="#141414" stroke-width="0.4"/>
<line x1="153.019" y1="44.984" x2="146.019" y2="42.341" stroke="#141414" stroke-width="0.4"/>
<line x1="126.297" y1="79.682" x2="123.654" y2="86.682" stroke="#141414" stroke-width="0.4"/>
<line x1="123.654" y1="86.682" x2="111.321" y2="86.682" stroke="#141414" stroke-width="0.4"/>
<line x1="111.321" y1="86.682" x2="108.678" y2="79.682" stroke="#141414" stroke-width="0.4"/>
<line x1="108.678" y1="59.96" x2="101.678" y2="57.318" stroke="#141414" stroke-width="0.4"/>
<line x1="101.678" y1="57.318" x2="101.678" y2="44.984" stroke="#141414" stroke-width="0.4"/>
<line x1="101.678" y1="44.984" x2="108.678" y2="42.341" stroke="#141414" stroke-width="0.4"/>
<line x1="108.678" y1="59.96" x2="101.678" y2="62.919" stroke="#141414" stroke-width="0.4"/>
<line x1="101.678" y1="62.919" x2="101.678" y2="76.724" stroke="#141414" stroke-width="0.4"/>
<line x1="101.678" y1="76.724" x2="108.678" y2="79.682" stroke="#141414" stroke-width="0.4"/>
<line x1="108.678" y1="42.341" x2="101.678" y2="39.383" stroke="#141414" stroke-width="0.4"/>
<line x1="101.678" y1="39.383" x2="101.678" y2="25.578" stroke="#141414" stroke-width="0.4"/>
<line x1="101.678" y1="25.578" x2="108.678" y2="22.619" stroke="#141414" stroke-width="0.4"/>
<circle cx="136.158" cy="63.46" r="2.66" fill="#99d9fa" stroke="#464646" stroke-width="0.2"/>
<text x="136.158" y="64.37" font-size="2.60" text-anchor="middle" fill="#141414">42</text>
<circle cx="136.158" cy="38.841" r="2.66" fill="#ffe082" stroke="#464646" stroke-width="0.2"/>
<text x="136.158" y="39.75" font-size="2.60" text-anchor="middle" fill="#141414">43</text>
<circle cx="149.519" cy="51.151" r="2.66" fill="#ffe082" stroke="#464646" stroke-width="0.2"/>
<text x="149.519" y="52.06" font-size="2.60" text-anchor="middle" fill="#141414">44</text>
<circle cx="117.487" cy="83.182" r="2.66" fill="#ffe082" stroke="#464646" stroke-width="0.2"/>
<text x="117.487" y="84.09" font-size="2.60" text-anchor="middle" fill="#141414">45</text>
<circle cx="105.178" cy="51.151" r="2.66" fill="#ffe082" stroke="#464646" stroke-width="0.2"/>
<text x="105.178" y="52.06" font-size="2.60" text-anchor="middle" fill="#141414">46</text>
<circle cx="105.178" cy="69.821" r="2.66" fill="#ffe082" stroke="#464646" stroke-width="0.2"/>
<text x="105.178" y="70.73" font-size="2.60" text-anchor="middle" fill="#141414">47</text>
<circle cx="105.178" cy="32.48" r="2.66" fill="#ffe082" stroke="#464646" stroke-width="0.2"/>
<text x="105.178" y="33.39" font-size="2.60" text-anchor="middle" fill="#141414">48</text>
<circle cx="95.53" cy="10.873" r="3.50" fill="#eaf1fe" stroke="#2e78e6" stroke-width="0.3"/>
<text x="95.53" y="12.24" font-size="3.96" text-anchor="middle" fill="#14306e" font-weight="bold">6</text>
<polygon points="173.596,166.466 176.239,173.466 188.573,173.466 191.216,166.466" fill="rgb(216,216,216)"/>
<polygon points="173.596,148.847 176.239,141.847 188.573,141.847 191.216,148.847" fill="rgb(216,216,216)"/>
<polygon points="191.216,166.466 198.216,163.823 198.216,151.49 191.216,148.847" fill="rgb(216,216,216)"/>
<polygon points="173.596,184.086 170.953,191.086 158.62,191.086 155.977,184.086" fill="rgb(216,216,216)"/>
<polygon points="155.977,166.466 148.977,163.823 148.977,151.49 155.977,148.847" fill="rgb(216,216,216)"/>
<polygon points="155.977,166.466 148.977,169.109 148.977,181.443 155.977,184.086" fill="rgb(216,216,216)"/>
<polygon points="155.977,148.847 148.977,146.204 148.977,133.87 155.977,131.228" fill="rgb(216,216,216)"/>
<polygon points="173.596,166.466 176.239,173.466 188.573,173.466 191.216,166.466" fill="#99d9fa"/>
<line x1="173.596" y1="166.466" x2="173.596" y2="148.847" stroke="#8c8c8c" stroke-width="0.3" stroke-dasharray="1.2,0.8"/>
<line x1="173.596" y1="166.466" x2="155.977" y2="166.466" stroke="#8c8c8c" stroke-width="0.3" stroke-dasharray="1.2,0.8"/>
<line x1="155.977" y1="148.847" x2="173.596" y2="148.847" stroke="#8c8c8c" stroke-width="0.3" stroke-dasharray="1.2,0.8"/>
<line x1="155.977" y1="131.227" x2="173.596" y2="131.227" stroke="#8c8c8c" stroke-width="0.3" stroke-dasharray="1.2,0.8"/>
<line x1="155.977" y1="131.227" x2="155.977" y2="113.608" stroke="#8c8c8c" stroke-width="0.3" stroke-dasharray="1.2,0.8"/>
<line x1="191.216" y1="166.466" x2="173.596" y2="166.466" stroke="#8c8c8c" stroke-width="0.3" stroke-dasharray="1.2,0.8"/>
<line x1="191.216" y1="148.847" x2="173.596" y2="148.847" stroke="#8c8c8c" stroke-width="0.3" stroke-dasharray="1.2,0.8"/>
<line x1="191.216" y1="148.847" x2="191.216" y2="166.466" stroke="#8c8c8c" stroke-width="0.3" stroke-dasharray="1.2,0.8"/>
<line x1="155.977" y1="184.086" x2="173.596" y2="184.086" stroke="#8c8c8c" stroke-width="0.3" stroke-dasharray="1.2,0.8"/>
<line x1="155.977" y1="148.847" x2="155.977" y2="166.466" stroke="#8c8c8c" stroke-width="0.3" stroke-dasharray="1.2,0.8"/>
<line x1="155.977" y1="184.086" x2="155.977" y2="166.466" stroke="#8c8c8c" stroke-width="0.3" stroke-dasharray="1.2,0.8"/>
<line x1="155.977" y1="131.228" x2="155.977" y2="148.847" stroke="#8c8c8c" stroke-width="0.3" stroke-dasharray="1.2,0.8"/>
<line x1="173.596" y1="166.466" x2="173.596" y2="184.086" stroke="#141414" stroke-width="0.4"/>
<line x1="173.596" y1="131.227" x2="173.596" y2="148.847" stroke="#141414" stroke-width="0.4"/>
<line x1="173.596" y1="113.608" x2="173.596" y2="131.227" stroke="#141414" stroke-width="0.4"/>
<line x1="155.977" y1="113.608" x2="173.596" y2="113.608" stroke="#141414" stroke-width="0.4"/>
<line x1="138.358" y1="131.227" x2="138.358" y2="113.608" stroke="#141414" stroke-width="0.4"/>
<line x1="138.358" y1="113.608" x2="155.977" y2="113.608" stroke="#141414" stroke-width="0.4"/>
<line x1="155.977" y1="131.227" x2="138.358" y2="131.227" stroke="#141414" stroke-width="0.4"/>
<line x1="173.596" y1="166.466" x2="176.239" y2="173.466" stroke="#141414" stroke-width="0.4"/>
<line x1="176.239" y1="173.466" x2="188.573" y2="173.466" stroke="#141414" stroke-width="0.4"/>
<line x1="188.573" y1="173.466" x2="191.216" y2="166.466" stroke="#141414" stroke-width="0.4"/>
<line x1="173.596" y1="148.847" x2="176.239" y2="141.847" stroke="#141414" stroke-width="0.4"/>
<line x1="176.239" y1="141.847" x2="188.573" y2="141.847" stroke="#141414" stroke-width="0.4"/>
<line x1="188.573" y1="141.847" x2="191.216" y2="148.847" stroke="#141414" stroke-width="0.4"/>
<line x1="191.216" y1="166.466" x2="198.216" y2="163.823" stroke="#141414" stroke-width="0.4"/>
<line x1="198.216" y1="163.823" x2="198.216" y2="151.49" stroke="#141414" stroke-width="0.4"/>
<line x1="198.216" y1="151.49" x2="191.216" y2="148.847" stroke="#141414" stroke-width="0.4"/>
<line x1="173.596" y1="184.086" x2="170.953" y2="191.086" stroke="#141414" stroke-width="0.4"/>
<line x1="170.953" y1="191.086" x2="158.62" y2="191.086" stroke="#141414" stroke-width="0.4"/>
<line x1="158.62" y1="191.086" x2="155.977" y2="184.086" stroke="#141414" stroke-width="0.4"/>
<line x1="155.977" y1="166.466" x2="148.977" y2="163.823" stroke="#141414" stroke-width="0.4"/>
<line x1="148.977" y1="163.823" x2="148.977" y2="151.49" stroke="#141414" stroke-width="0.4"/>
<line x1="148.977" y1="151.49" x2="155.977" y2="148.847" stroke="#141414" stroke-width="0.4"/>
<line x1="155.977" y1="166.466" x2="148.977" y2="169.109" stroke="#141414" stroke-width="0.4"/>
<line x1="148.977" y1="169.109" x2="148.977" y2="181.443" stroke="#141414" stroke-width="0.4"/>
<line x1="148.977" y1="181.443" x2="155.977" y2="184.086" stroke="#141414" stroke-width="0.4"/>
<line x1="155.977" y1="148.847" x2="148.977" y2="146.204" stroke="#141414" stroke-width="0.4"/>
<line x1="148.977" y1="146.204" x2="148.977" y2="133.87" stroke="#141414" stroke-width="0.4"/>
<line x1="148.977" y1="133.87" x2="155.977" y2="131.228" stroke="#141414" stroke-width="0.4"/>
<circle cx="182.406" cy="169.966" r="2.66" fill="#99d9fa" stroke="#464646" stroke-width="0.2"/>
<text x="182.406" y="170.88" font-size="2.60" text-anchor="middle" fill="#141414">49</text>
<circle cx="182.406" cy="145.347" r="2.66" fill="#ffe082" stroke="#464646" stroke-width="0.2"/>
<text x="182.406" y="146.26" font-size="2.60" text-anchor="middle" fill="#141414">50</text>
<circle cx="194.716" cy="157.656" r="2.66" fill="#ffe082" stroke="#464646" stroke-width="0.2"/>
<text x="194.716" y="158.57" font-size="2.60" text-anchor="middle" fill="#141414">51</text>
<circle cx="164.787" cy="187.586" r="2.66" fill="#ffe082" stroke="#464646" stroke-width="0.2"/>
<text x="164.787" y="188.50" font-size="2.60" text-anchor="middle" fill="#141414">52</text>
<circle cx="152.477" cy="157.656" r="2.66" fill="#ffe082" stroke="#464646" stroke-width="0.2"/>
<text x="152.477" y="158.57" font-size="2.60" text-anchor="middle" fill="#141414">53</text>
<circle cx="152.477" cy="175.276" r="2.66" fill="#ffe082" stroke="#464646" stroke-width="0.2"/>
<text x="152.477" y="176.19" font-size="2.60" text-anchor="middle" fill="#141414">54</text>
<circle cx="152.477" cy="140.037" r="2.66" fill="#ffe082" stroke="#464646" stroke-width="0.2"/>
<text x="152.477" y="140.95" font-size="2.60" text-anchor="middle" fill="#141414">55</text>
<circle cx="167.723" cy="160.593" r="3.32" fill="#eaf1fe" stroke="#2e78e6" stroke-width="0.3"/>
<text x="167.723" y="161.89" font-size="3.76" text-anchor="middle" fill="#14306e" font-weight="bold">7</text>
<polygon points="40.239,263.241 42.882,270.241 55.215,270.241 57.858,263.241" fill="rgb(216,216,216)"/>
<polygon points="40.239,245.622 42.882,238.622 55.215,238.622 57.858,245.622" fill="rgb(216,216,216)"/>
<polygon points="57.858,263.241 64.858,260.599 64.858,248.265 57.858,245.622" fill="rgb(216,216,216)"/>
<polygon points="40.239,280.861 37.596,287.861 25.262,287.861 22.619,280.861" fill="rgb(216,216,216)"/>
<polygon points="22.619,263.241 15.619,260.599 15.619,248.265 22.619,245.622" fill="rgb(216,216,216)"/>
<polygon points="22.619,263.241 15.619,265.884 15.619,278.218 22.619,280.861" fill="rgb(216,216,216)"/>
<polygon points="22.619,245.622 15.619,242.979 15.619,230.646 22.619,228.003" fill="rgb(216,216,216)"/>
<polygon points="40.239,263.241 42.882,270.241 55.215,270.241 57.858,263.241" fill="#99d9fa"/>
<line x1="40.239" y1="263.241" x2="40.239" y2="245.622" stroke="#8c8c8c" stroke-width="0.3" stroke-dasharray="1.2,0.8"/>
<line x1="40.239" y1="263.241" x2="22.619" y2="263.241" stroke="#8c8c8c" stroke-width="0.3" stroke-dasharray="1.2,0.8"/>
<line x1="22.619" y1="245.622" x2="40.239" y2="245.622" stroke="#8c8c8c" stroke-width="0.3" stroke-dasharray="1.2,0.8"/>
<line x1="22.619" y1="228.003" x2="40.239" y2="228.003" stroke="#8c8c8c" stroke-width="0.3" stroke-dasharray="1.2,0.8"/>
<line x1="22.619" y1="228.003" x2="22.619" y2="210.383" stroke="#8c8c8c" stroke-width="0.3" stroke-dasharray="1.2,0.8"/>
<line x1="57.858" y1="263.241" x2="40.239" y2="263.241" stroke="#8c8c8c" stroke-width="0.3" stroke-dasharray="1.2,0.8"/>
<line x1="57.858" y1="245.622" x2="40.239" y2="245.622" stroke="#8c8c8c" stroke-width="0.3" stroke-dasharray="1.2,0.8"/>
<line x1="57.858" y1="245.622" x2="57.858" y2="263.241" stroke="#8c8c8c" stroke-width="0.3" stroke-dasharray="1.2,0.8"/>
<line x1="22.619" y1="280.861" x2="40.239" y2="280.861" stroke="#8c8c8c" stroke-width="0.3" stroke-dasharray="1.2,0.8"/>
<line x1="22.619" y1="245.622" x2="22.619" y2="263.241" stroke="#8c8c8c" stroke-width="0.3" stroke-dasharray="1.2,0.8"/>
<line x1="22.619" y1="280.861" x2="22.619" y2="263.241" stroke="#8c8c8c" stroke-width="0.3" stroke-dasharray="1.2,0.8"/>
<line x1="22.619" y1="228.003" x2="22.619" y2="245.622" stroke="#8c8c8c" stroke-width="0.3" stroke-dasharray="1.2,0.8"/>
<line x1="40.239" y1="263.241" x2="40.239" y2="280.861" stroke="#141414" stroke-width="0.4"/>
<line x1="40.239" y1="228.003" x2="40.239" y2="245.622" stroke="#141414" stroke-width="0.4"/>
<line x1="40.239" y1="210.383" x2="40.239" y2="228.003" stroke="#141414" stroke-width="0.4"/>
<line x1="22.619" y1="210.383" x2="40.239" y2="210.383" stroke="#141414" stroke-width="0.4"/>
<line x1="5.0" y1="228.003" x2="5.0" y2="210.383" stroke="#141414" stroke-width="0.4"/>
<line x1="5.0" y1="210.383" x2="22.619" y2="210.383" stroke="#141414" stroke-width="0.4"/>
<line x1="22.619" y1="228.003" x2="5.0" y2="228.003" stroke="#141414" stroke-width="0.4"/>
<line x1="40.239" y1="263.241" x2="42.882" y2="270.241" stroke="#141414" stroke-width="0.4"/>
<line x1="42.882" y1="270.241" x2="55.215" y2="270.241" stroke="#141414" stroke-width="0.4"/>
<line x1="55.215" y1="270.241" x2="57.858" y2="263.241" stroke="#141414" stroke-width="0.4"/>
<line x1="40.239" y1="245.622" x2="42.882" y2="238.622" stroke="#141414" stroke-width="0.4"/>
<line x1="42.882" y1="238.622" x2="55.215" y2="238.622" stroke="#141414" stroke-width="0.4"/>
<line x1="55.215" y1="238.622" x2="57.858" y2="245.622" stroke="#141414" stroke-width="0.4"/>
<line x1="57.858" y1="263.241" x2="64.858" y2="260.599" stroke="#141414" stroke-width="0.4"/>
<line x1="64.858" y1="260.599" x2="64.858" y2="248.265" stroke="#141414" stroke-width="0.4"/>
<line x1="64.858" y1="248.265" x2="57.858" y2="245.622" stroke="#141414" stroke-width="0.4"/>
<line x1="40.239" y1="280.861" x2="37.596" y2="287.861" stroke="#141414" stroke-width="0.4"/>
<line x1="37.596" y1="287.861" x2="25.262" y2="287.861" stroke="#141414" stroke-width="0.4"/>
<line x1="25.262" y1="287.861" x2="22.619" y2="280.861" stroke="#141414" stroke-width="0.4"/>
<line x1="22.619" y1="263.241" x2="15.619" y2="260.599" stroke="#141414" stroke-width="0.4"/>
<line x1="15.619" y1="260.599" x2="15.619" y2="248.265" stroke="#141414" stroke-width="0.4"/>
<line x1="15.619" y1="248.265" x2="22.619" y2="245.622" stroke="#141414" stroke-width="0.4"/>
<line x1="22.619" y1="263.241" x2="15.619" y2="265.884" stroke="#141414" stroke-width="0.4"/>
<line x1="15.619" y1="265.884" x2="15.619" y2="278.218" stroke="#141414" stroke-width="0.4"/>
<line x1="15.619" y1="278.218" x2="22.619" y2="280.861" stroke="#141414" stroke-width="0.4"/>
<line x1="22.619" y1="245.622" x2="15.619" y2="242.979" stroke="#141414" stroke-width="0.4"/>
<line x1="15.619" y1="242.979" x2="15.619" y2="230.646" stroke="#141414" stroke-width="0.4"/>
<line x1="15.619" y1="230.646" x2="22.619" y2="228.003" stroke="#141414" stroke-width="0.4"/>
<circle cx="49.048" cy="266.741" r="2.66" fill="#99d9fa" stroke="#464646" stroke-width="0.2"/>
<text x="49.048" y="267.65" font-size="2.60" text-anchor="middle" fill="#141414">67</text>
<circle cx="49.048" cy="242.122" r="2.66" fill="#ffe082" stroke="#464646" stroke-width="0.2"/>
<text x="49.048" y="243.03" font-size="2.60" text-anchor="middle" fill="#141414">68</text>
<circle cx="61.358" cy="254.432" r="2.66" fill="#ffe082" stroke="#464646" stroke-width="0.2"/>
<text x="61.358" y="255.34" font-size="2.60" text-anchor="middle" fill="#141414">69</text>
<circle cx="31.429" cy="284.361" r="2.66" fill="#ffe082" stroke="#464646" stroke-width="0.2"/>
<text x="31.429" y="285.27" font-size="2.60" text-anchor="middle" fill="#141414">70</text>
<circle cx="19.119" cy="254.432" r="2.66" fill="#ffe082" stroke="#464646" stroke-width="0.2"/>
<text x="19.119" y="255.34" font-size="2.60" text-anchor="middle" fill="#141414">71</text>
<circle cx="19.119" cy="272.051" r="2.66" fill="#ffe082" stroke="#464646" stroke-width="0.2"/>
<text x="19.119" y="272.96" font-size="2.60" text-anchor="middle" fill="#141414">72</text>
<circle cx="19.119" cy="236.812" r="2.66" fill="#ffe082" stroke="#464646" stroke-width="0.2"/>
<text x="19.119" y="237.72" font-size="2.60" text-anchor="middle" fill="#141414">73</text>
<circle cx="34.366" cy="257.368" r="3.32" fill="#eaf1fe" stroke="#2e78e6" stroke-width="0.3"/>
<text x="34.366" y="258.67" font-size="3.76" text-anchor="middle" fill="#14306e" font-weight="bold">9</text>
<text x="205.0" y="295.0" font-size="3.2" text-anchor="end" fill="#737373" font-family="sans-serif">2 / 4</text>
<g pointer-events="none"><text x="105.0" y="83.2" text-anchor="middle" font-family="sans-serif" font-size="12.4" fill="#9aa0a6" fill-opacity="0.3" transform="rotate(-28 105.0 83.2)">papercraft.kr</text><text x="105.0" y="148.5" text-anchor="middle" font-family="sans-serif" font-size="12.4" fill="#9aa0a6" fill-opacity="0.3" transform="rotate(-28 105.0 148.5)">papercraft.kr</text><text x="105.0" y="213.8" text-anchor="middle" font-family="sans-serif" font-size="12.4" fill="#9aa0a6" fill-opacity="0.3" transform="rotate(-28 105.0 213.8)">papercraft.kr</text></g></svg>
