<svg xmlns="http://www.w3.org/2000/svg" xmlns:xlink="http://www.w3.org/1999/xlink" width="210.00mm" height="297.00mm" viewBox="0 0 210.00 297.00">
<rect x="0" y="0" width="210.00" height="297.00" fill="#ffffff" stroke="#cccccc" stroke-width="0.2"/>
<polygon points="25.808,13.859 23.036,20.238 32.112,39.793 38.774,41.794" fill="rgb(216,216,216)"/>
<polygon points="13.87,59.912 9.89,66.321 15.074,91.291 21.277,95.585" fill="rgb(216,216,216)"/>
<polygon points="97.528,82.962 104.561,84.713 124.571,72.273 126.113,65.192" fill="rgb(216,216,216)"/>
<polygon points="97.528,82.962 98.21,89.793 83.801,104.96 76.943,104.628" fill="rgb(216,216,216)"/>
<polygon points="115.475,15.194 108.748,9.994 77.355,9.994 70.628,15.194" fill="rgb(216,216,216)"/>
<polygon points="115.475,15.194 122.157,21.611 129.604,56.61 126.113,65.192" fill="rgb(216,216,216)"/>
<polygon points="57.33,131.822 64.49,130.785 78.219,111.749 76.943,104.628" fill="rgb(216,216,216)"/>
<polygon points="115.475,15.194 122.157,21.611 129.604,56.61 126.113,65.192" fill="#99d9fa"/>
<line x1="13.87" y1="59.912" x2="76.943" y2="104.629" stroke="#8c8c8c" stroke-width="0.3" stroke-dasharray="1.2,0.8"/>
<line x1="97.528" y1="82.962" x2="38.774" y2="41.794" stroke="#8c8c8c" stroke-width="0.3" stroke-dasharray="1.2,0.8"/>
<line x1="70.628" y1="15.194" x2="97.528" y2="82.962" stroke="#8c8c8c" stroke-width="0.3" stroke-dasharray="1.2,0.8"/>
<line x1="38.774" y1="41.794" x2="70.628" y2="15.194" stroke="#8c8c8c" stroke-width="0.3" stroke-dasharray="1.2,0.8"/>
<line x1="38.774" y1="41.794" x2="76.943" y2="104.629" stroke="#8c8c8c" stroke-width="0.3" stroke-dasharray="1.2,0.8"/>
<line x1="76.943" y1="104.629" x2="21.277" y2="95.585" stroke="#8c8c8c" stroke-width="0.3" stroke-dasharray="1.2,0.8"/>
<line x1="126.113" y1="65.192" x2="70.628" y2="15.194" stroke="#8c8c8c" stroke-width="0.3" stroke-dasharray="1.2,0.8"/>
<line x1="38.774" y1="41.794" x2="25.808" y2="13.859" stroke="#8c8c8c" stroke-width="0.3" stroke-dasharray="1.2,0.8"/>
<line x1="21.277" y1="95.585" x2="13.87" y2="59.912" stroke="#8c8c8c" stroke-width="0.3" stroke-dasharray="1.2,0.8"/>
<line x1="126.113" y1="65.192" x2="97.528" y2="82.962" stroke="#8c8c8c" stroke-width="0.3" stroke-dasharray="1.2,0.8"/>
<line x1="76.943" y1="104.628" x2="97.528" y2="82.962" stroke="#8c8c8c" stroke-width="0.3" stroke-dasharray="1.2,0.8"/>
<line x1="70.628" y1="15.194" x2="115.475" y2="15.194" stroke="#8c8c8c" stroke-width="0.3" stroke-dasharray="1.2,0.8"/>
<line x1="126.113" y1="65.192" x2="115.475" y2="15.194" stroke="#8c8c8c" stroke-width="0.3" stroke-dasharray="1.2,0.8"/>
<line x1="76.943" y1="104.628" x2="57.33" y2="131.822" stroke="#8c8c8c" stroke-width="0.3" stroke-dasharray="1.2,0.8"/>
<line x1="13.87" y1="59.912" x2="38.774" y2="41.794" stroke="#141414" stroke-width="0.4"/>
<line x1="25.808" y1="13.859" x2="70.628" y2="15.194" stroke="#141414" stroke-width="0.4"/>
<line x1="57.33" y1="131.822" x2="21.277" y2="95.585" stroke="#141414" stroke-width="0.4"/>
<line x1="25.808" y1="13.859" x2="23.036" y2="20.238" stroke="#141414" stroke-width="0.4"/>
<line x1="23.036" y1="20.238" x2="32.112" y2="39.793" stroke="#141414" stroke-width="0.4"/>
<line x1="32.112" y1="39.793" x2="38.774" y2="41.794" stroke="#141414" stroke-width="0.4"/>
<line x1="13.87" y1="59.912" x2="9.89" y2="66.321" stroke="#141414" stroke-width="0.4"/>
<line x1="9.89" y1="66.321" x2="15.074" y2="91.291" stroke="#141414" stroke-width="0.4"/>
<line x1="15.074" y1="91.291" x2="21.277" y2="95.585" stroke="#141414" stroke-width="0.4"/>
<line x1="97.528" y1="82.962" x2="104.561" y2="84.713" stroke="#141414" stroke-width="0.4"/>
<line x1="104.561" y1="84.713" x2="124.571" y2="72.273" stroke="#141414" stroke-width="0.4"/>
<line x1="124.571" y1="72.273" x2="126.113" y2="65.192" stroke="#141414" stroke-width="0.4"/>
<line x1="97.528" y1="82.962" x2="98.21" y2="89.793" stroke="#141414" stroke-width="0.4"/>
<line x1="98.21" y1="89.793" x2="83.801" y2="104.96" stroke="#141414" stroke-width="0.4"/>
<line x1="83.801" y1="104.96" x2="76.943" y2="104.628" stroke="#141414" stroke-width="0.4"/>
<line x1="115.475" y1="15.194" x2="108.748" y2="9.994" stroke="#141414" stroke-width="0.4"/>
<line x1="108.748" y1="9.994" x2="77.355" y2="9.994" stroke="#141414" stroke-width="0.4"/>
<line x1="77.355" y1="9.994" x2="70.628" y2="15.194" stroke="#141414" stroke-width="0.4"/>
<line x1="115.475" y1="15.194" x2="122.157" y2="21.611" stroke="#141414" stroke-width="0.4"/>
<line x1="122.157" y1="21.611" x2="129.604" y2="56.61" stroke="#141414" stroke-width="0.4"/>
<line x1="129.604" y1="56.61" x2="126.113" y2="65.192" stroke="#141414" stroke-width="0.4"/>
<line x1="57.33" y1="131.822" x2="64.49" y2="130.785" stroke="#141414" stroke-width="0.4"/>
<line x1="64.49" y1="130.785" x2="78.219" y2="111.749" stroke="#141414" stroke-width="0.4"/>
<line x1="78.219" y1="111.749" x2="76.943" y2="104.628" stroke="#141414" stroke-width="0.4"/>
<circle cx="29.933" cy="28.921" r="2.29" fill="#ffe082" stroke="#464646" stroke-width="0.2"/>
<text x="29.933" y="29.71" font-size="2.24" text-anchor="middle" fill="#141414">41</text>
<circle cx="15.028" cy="78.277" r="2.29" fill="#ffe082" stroke="#464646" stroke-width="0.2"/>
<text x="15.028" y="79.06" font-size="2.24" text-anchor="middle" fill="#141414">42</text>
<circle cx="113.193" cy="76.285" r="2.29" fill="#ffe082" stroke="#464646" stroke-width="0.2"/>
<text x="113.193" y="77.07" font-size="2.24" text-anchor="middle" fill="#141414">44</text>
<circle cx="89.12" cy="95.586" r="2.29" fill="#ffe082" stroke="#464646" stroke-width="0.2"/>
<text x="89.12" y="96.37" font-size="2.24" text-anchor="middle" fill="#141414">45</text>
<circle cx="93.052" cy="12.594" r="2.29" fill="#ffe082" stroke="#464646" stroke-width="0.2"/>
<text x="93.052" y="13.38" font-size="2.24" text-anchor="middle" fill="#141414">47</text>
<circle cx="123.337" cy="39.652" r="2.29" fill="#99d9fa" stroke="#464646" stroke-width="0.2"/>
<text x="123.337" y="40.44" font-size="2.24" text-anchor="middle" fill="#141414">48</text>
<circle cx="69.246" cy="119.746" r="2.29" fill="#ffe082" stroke="#464646" stroke-width="0.2"/>
<text x="69.246" y="120.53" font-size="2.24" text-anchor="middle" fill="#141414">53</text>
<circle cx="98.09" cy="54.449" r="4.60" fill="#eaf1fe" stroke="#2e78e6" stroke-width="0.3"/>
<text x="98.09" y="56.25" font-size="5.20" text-anchor="middle" fill="#14306e" font-weight="bold">16</text>
<polygon points="188.164,26.916 192.943,32.202 191.064,54.868 185.479,59.295" fill="rgb(216,216,216)"/>
<line x1="188.164" y1="26.916" x2="127.714" y2="5.0" stroke="#8c8c8c" stroke-width="0.3" stroke-dasharray="1.2,0.8"/>
<line x1="185.479" y1="59.295" x2="188.164" y2="26.916" stroke="#8c8c8c" stroke-width="0.3" stroke-dasharray="1.2,0.8"/>
<line x1="127.714" y1="5.0" x2="202.156" y2="5.0" stroke="#141414" stroke-width="0.4"/>
<line x1="185.479" y1="59.295" x2="127.714" y2="5.0" stroke="#141414" stroke-width="0.4"/>
<line x1="202.156" y1="5.0" x2="188.164" y2="26.916" stroke="#141414" stroke-width="0.4"/>
<line x1="188.164" y1="26.916" x2="192.943" y2="32.202" stroke="#141414" stroke-width="0.4"/>
<line x1="192.943" y1="32.202" x2="191.064" y2="54.868" stroke="#141414" stroke-width="0.4"/>
<line x1="191.064" y1="54.868" x2="185.479" y2="59.295" stroke="#141414" stroke-width="0.4"/>
<circle cx="189.412" cy="43.32" r="2.29" fill="#ffe082" stroke="#464646" stroke-width="0.2"/>
<text x="189.412" y="44.10" font-size="2.24" text-anchor="middle" fill="#141414">68</text>
<circle cx="172.678" cy="12.305" r="4.60" fill="#eaf1fe" stroke="#2e78e6" stroke-width="0.3"/>
<text x="172.678" y="14.11" font-size="5.20" text-anchor="middle" fill="#14306e" font-weight="bold">17</text>
<polygon points="52.875,170.3 47.076,169.146 38.691,179.254 40.896,184.74" fill="rgb(216,216,216)"/>
<polygon points="84.584,170.3 85.654,161.66 69.551,133.33 61.579,129.828" fill="rgb(216,216,216)"/>
<polygon points="84.584,170.3 91.945,174.444 103.901,203.12 101.663,211.266" fill="rgb(216,216,216)"/>
<polygon points="68.918,211.35 64.391,220.132 54.786,225.897 44.907,225.762" fill="rgb(216,216,216)"/>
<polygon points="15.109,192.502 9.993,198.62 10.384,226.84 15.667,232.815" fill="rgb(216,216,216)"/>
<polygon points="101.663,211.266 101.087,220.377 79.366,247.842 70.633,250.502" fill="rgb(216,216,216)"/>
<polygon points="44.907,225.762 41.74,231.875 21.272,236.812 15.667,232.815" fill="rgb(216,216,216)"/>
<line x1="52.875" y1="170.3" x2="84.584" y2="170.3" stroke="#8c8c8c" stroke-width="0.3" stroke-dasharray="1.2,0.8"/>
<line x1="84.584" y1="170.3" x2="68.918" y2="211.35" stroke="#8c8c8c" stroke-width="0.3" stroke-dasharray="1.2,0.8"/>
<line x1="68.918" y1="211.35" x2="40.896" y2="184.74" stroke="#8c8c8c" stroke-width="0.3" stroke-dasharray="1.2,0.8"/>
<line x1="44.907" y1="225.762" x2="40.896" y2="184.74" stroke="#8c8c8c" stroke-width="0.3" stroke-dasharray="1.2,0.8"/>
<line x1="40.896" y1="184.74" x2="15.667" y2="232.815" stroke="#8c8c8c" stroke-width="0.3" stroke-dasharray="1.2,0.8"/>
<line x1="101.663" y1="211.266" x2="68.918" y2="211.35" stroke="#8c8c8c" stroke-width="0.3" stroke-dasharray="1.2,0.8"/>
<line x1="40.896" y1="184.74" x2="52.875" y2="170.3" stroke="#8c8c8c" stroke-width="0.3" stroke-dasharray="1.2,0.8"/>
<line x1="61.579" y1="129.828" x2="84.584" y2="170.3" stroke="#8c8c8c" stroke-width="0.3" stroke-dasharray="1.2,0.8"/>
<line x1="101.663" y1="211.266" x2="84.584" y2="170.3" stroke="#8c8c8c" stroke-width="0.3" stroke-dasharray="1.2,0.8"/>
<line x1="44.907" y1="225.762" x2="68.918" y2="211.35" stroke="#8c8c8c" stroke-width="0.3" stroke-dasharray="1.2,0.8"/>
<line x1="15.667" y1="232.815" x2="15.109" y2="192.502" stroke="#8c8c8c" stroke-width="0.3" stroke-dasharray="1.2,0.8"/>
<line x1="70.633" y1="250.502" x2="101.663" y2="211.266" stroke="#8c8c8c" stroke-width="0.3" stroke-dasharray="1.2,0.8"/>
<line x1="15.667" y1="232.815" x2="44.907" y2="225.762" stroke="#8c8c8c" stroke-width="0.3" stroke-dasharray="1.2,0.8"/>
<line x1="52.875" y1="170.3" x2="61.579" y2="129.828" stroke="#141414" stroke-width="0.4"/>
<line x1="15.109" y1="192.502" x2="40.896" y2="184.74" stroke="#141414" stroke-width="0.4"/>
<line x1="70.633" y1="250.502" x2="68.918" y2="211.35" stroke="#141414" stroke-width="0.4"/>
<line x1="52.875" y1="170.3" x2="47.076" y2="169.146" stroke="#141414" stroke-width="0.4"/>
<line x1="47.076" y1="169.146" x2="38.691" y2="179.254" stroke="#141414" stroke-width="0.4"/>
<line x1="38.691" y1="179.254" x2="40.896" y2="184.74" stroke="#141414" stroke-width="0.4"/>
<line x1="84.584" y1="170.3" x2="85.654" y2="161.66" stroke="#141414" stroke-width="0.4"/>
<line x1="85.654" y1="161.66" x2="69.551" y2="133.33" stroke="#141414" stroke-width="0.4"/>
<line x1="69.551" y1="133.33" x2="61.579" y2="129.828" stroke="#141414" stroke-width="0.4"/>
<line x1="84.584" y1="170.3" x2="91.945" y2="174.444" stroke="#141414" stroke-width="0.4"/>
<line x1="91.945" y1="174.444" x2="103.901" y2="203.12" stroke="#141414" stroke-width="0.4"/>
<line x1="103.901" y1="203.12" x2="101.663" y2="211.266" stroke="#141414" stroke-width="0.4"/>
<line x1="68.918" y1="211.35" x2="64.391" y2="220.132" stroke="#141414" stroke-width="0.4"/>
<line x1="64.391" y1="220.132" x2="54.786" y2="225.897" stroke="#141414" stroke-width="0.4"/>
<line x1="54.786" y1="225.897" x2="44.907" y2="225.762" stroke="#141414" stroke-width="0.4"/>
<line x1="15.109" y1="192.502" x2="9.993" y2="198.62" stroke="#141414" stroke-width="0.4"/>
<line x1="9.993" y1="198.62" x2="10.384" y2="226.84" stroke="#141414" stroke-width="0.4"/>
<line x1="10.384" y1="226.84" x2="15.667" y2="232.815" stroke="#141414" stroke-width="0.4"/>
<line x1="101.663" y1="211.266" x2="101.087" y2="220.377" stroke="#141414" stroke-width="0.4"/>
<line x1="101.087" y1="220.377" x2="79.366" y2="247.842" stroke="#141414" stroke-width="0.4"/>
<line x1="79.366" y1="247.842" x2="70.633" y2="250.502" stroke="#141414" stroke-width="0.4"/>
<line x1="44.907" y1="225.762" x2="41.74" y2="231.875" stroke="#141414" stroke-width="0.4"/>
<line x1="41.74" y1="231.875" x2="21.272" y2="236.812" stroke="#141414" stroke-width="0.4"/>
<line x1="21.272" y1="236.812" x2="15.667" y2="232.815" stroke="#141414" stroke-width="0.4"/>
<circle cx="44.884" cy="175.86" r="2.29" fill="#ffe082" stroke="#464646" stroke-width="0.2"/>
<text x="44.884" y="176.64" font-size="2.24" text-anchor="middle" fill="#141414">54</text>
<circle cx="75.342" cy="148.78" r="2.29" fill="#ffe082" stroke="#464646" stroke-width="0.2"/>
<text x="75.342" y="149.56" font-size="2.24" text-anchor="middle" fill="#141414">69</text>
<circle cx="95.523" cy="189.783" r="2.29" fill="#ffe082" stroke="#464646" stroke-width="0.2"/>
<text x="95.523" y="190.57" font-size="2.24" text-anchor="middle" fill="#141414">70</text>
<circle cx="58.251" cy="220.785" r="2.29" fill="#ffe082" stroke="#464646" stroke-width="0.2"/>
<text x="58.251" y="221.57" font-size="2.24" text-anchor="middle" fill="#141414">75</text>
<circle cx="12.788" cy="212.694" r="2.29" fill="#ffe082" stroke="#464646" stroke-width="0.2"/>
<text x="12.788" y="213.48" font-size="2.24" text-anchor="middle" fill="#141414">88</text>
<circle cx="88.188" cy="232.497" r="2.29" fill="#ffe082" stroke="#464646" stroke-width="0.2"/>
<text x="88.188" y="233.28" font-size="2.24" text-anchor="middle" fill="#141414">92</text>
<circle cx="30.897" cy="231.816" r="2.29" fill="#ffe082" stroke="#464646" stroke-width="0.2"/>
<text x="30.897" y="232.60" font-size="2.24" text-anchor="middle" fill="#141414">95</text>
<circle cx="23.891" cy="203.352" r="4.60" fill="#eaf1fe" stroke="#2e78e6" stroke-width="0.3"/>
<text x="23.891" y="205.15" font-size="5.20" text-anchor="middle" fill="#14306e" font-weight="bold">18</text>
<polygon points="107.966,140.022 106.451,149.229 121.457,182.126 129.403,187.017" fill="rgb(216,216,216)"/>
<polygon points="107.966,140.022 112.005,134.822 130.856,134.822 134.895,140.022" fill="rgb(216,216,216)"/>
<polygon points="129.403,187.017 135.392,180.572 139.236,147.675 134.895,140.022" fill="rgb(216,216,216)"/>
<line x1="129.403" y1="187.017" x2="107.966" y2="140.022" stroke="#8c8c8c" stroke-width="0.3" stroke-dasharray="1.2,0.8"/>
<line x1="134.895" y1="140.022" x2="107.966" y2="140.022" stroke="#8c8c8c" stroke-width="0.3" stroke-dasharray="1.2,0.8"/>
<line x1="134.895" y1="140.022" x2="129.403" y2="187.017" stroke="#8c8c8c" stroke-width="0.3" stroke-dasharray="1.2,0.8"/>
<line x1="107.966" y1="140.022" x2="106.451" y2="149.229" stroke="#141414" stroke-width="0.4"/>
<line x1="106.451" y1="149.229" x2="121.457" y2="182.126" stroke="#141414" stroke-width="0.4"/>
<line x1="121.457" y1="182.126" x2="129.403" y2="187.017" stroke="#141414" stroke-width="0.4"/>
<line x1="107.966" y1="140.022" x2="112.005" y2="134.822" stroke="#141414" stroke-width="0.4"/>
<line x1="112.005" y1="134.822" x2="130.856" y2="134.822" stroke="#141414" stroke-width="0.4"/>
<line x1="130.856" y1="134.822" x2="134.895" y2="140.022" stroke="#141414" stroke-width="0.4"/>
<line x1="129.403" y1="187.017" x2="135.392" y2="180.572" stroke="#141414" stroke-width="0.4"/>
<line x1="135.392" y1="180.572" x2="139.236" y2="147.675" stroke="#141414" stroke-width="0.4"/>
<line x1="139.236" y1="147.675" x2="134.895" y2="140.022" stroke="#141414" stroke-width="0.4"/>
<circle cx="116.319" cy="164.599" r="2.29" fill="#ffe082" stroke="#464646" stroke-width="0.2"/>
<text x="116.319" y="165.38" font-size="2.24" text-anchor="middle" fill="#141414">71</text>
<circle cx="121.431" cy="137.422" r="2.29" fill="#ffe082" stroke="#464646" stroke-width="0.2"/>
<text x="121.431" y="138.21" font-size="2.24" text-anchor="middle" fill="#141414">72</text>
<circle cx="134.732" cy="163.822" r="2.29" fill="#ffe082" stroke="#464646" stroke-width="0.2"/>
<text x="134.732" y="164.61" font-size="2.24" text-anchor="middle" fill="#141414">79</text>
<circle cx="124.088" cy="155.687" r="4.60" fill="#eaf1fe" stroke="#2e78e6" stroke-width="0.3"/>
<text x="124.088" y="157.49" font-size="5.20" text-anchor="middle" fill="#14306e" font-weight="bold">19</text>
<text x="205.0" y="295.0" font-size="3.2" text-anchor="end" fill="#737373" font-family="sans-serif">12 / 15</text>
</svg>
