<svg xmlns="http://www.w3.org/2000/svg" xmlns:xlink="http://www.w3.org/1999/xlink" width="210.00mm" height="297.00mm" viewBox="0 0 210.00 297.00">
<rect x="0" y="0" width="210.00" height="297.00" fill="#ffffff" stroke="#cccccc" stroke-width="0.2"/>
<polygon points="79.827,32.351 73.933,29.877 59.165,38.985 58.73,45.362" fill="rgb(216,216,216)"/>
<polygon points="16.011,13.029 20.477,7.829 41.316,7.829 45.782,13.029" fill="rgb(216,216,216)"/>
<polygon points="16.011,13.029 10.298,18.838 7.819,48.004 12.469,54.694" fill="rgb(216,216,216)"/>
<polygon points="29.079,70.049 23.762,67.959 23.18,56.925 28.248,54.287" fill="rgb(216,216,216)"/>
<line x1="70.832" y1="67.753" x2="106.063" y2="64.957" stroke="#8c8c8c" stroke-width="0.3" stroke-dasharray="1.2,0.8"/>
<line x1="70.832" y1="67.753" x2="79.827" y2="32.351" stroke="#8c8c8c" stroke-width="0.3" stroke-dasharray="1.2,0.8"/>
<line x1="45.782" y1="13.029" x2="12.469" y2="54.694" stroke="#8c8c8c" stroke-width="0.3" stroke-dasharray="1.2,0.8"/>
<line x1="28.248" y1="54.287" x2="45.782" y2="13.029" stroke="#8c8c8c" stroke-width="0.3" stroke-dasharray="1.2,0.8"/>
<line x1="58.73" y1="45.362" x2="29.079" y2="70.049" stroke="#8c8c8c" stroke-width="0.3" stroke-dasharray="1.2,0.8"/>
<line x1="28.248" y1="54.287" x2="58.73" y2="45.362" stroke="#8c8c8c" stroke-width="0.3" stroke-dasharray="1.2,0.8"/>
<line x1="58.73" y1="45.362" x2="70.832" y2="67.753" stroke="#8c8c8c" stroke-width="0.3" stroke-dasharray="1.2,0.8"/>
<line x1="58.73" y1="45.362" x2="79.827" y2="32.351" stroke="#8c8c8c" stroke-width="0.3" stroke-dasharray="1.2,0.8"/>
<line x1="45.782" y1="13.029" x2="16.011" y2="13.029" stroke="#8c8c8c" stroke-width="0.3" stroke-dasharray="1.2,0.8"/>
<line x1="12.469" y1="54.694" x2="16.011" y2="13.029" stroke="#8c8c8c" stroke-width="0.3" stroke-dasharray="1.2,0.8"/>
<line x1="28.248" y1="54.287" x2="29.079" y2="70.049" stroke="#8c8c8c" stroke-width="0.3" stroke-dasharray="1.2,0.8"/>
<line x1="106.063" y1="64.957" x2="84.822" y2="83.879" stroke="#141414" stroke-width="0.4"/>
<line x1="79.827" y1="32.351" x2="106.063" y2="64.957" stroke="#141414" stroke-width="0.4"/>
<line x1="84.822" y1="83.879" x2="70.832" y2="67.753" stroke="#141414" stroke-width="0.4"/>
<line x1="70.832" y1="67.753" x2="29.079" y2="70.049" stroke="#141414" stroke-width="0.4"/>
<line x1="45.782" y1="13.029" x2="58.73" y2="45.362" stroke="#141414" stroke-width="0.4"/>
<line x1="28.248" y1="54.287" x2="12.469" y2="54.694" stroke="#141414" stroke-width="0.4"/>
<line x1="79.827" y1="32.351" x2="73.933" y2="29.877" stroke="#141414" stroke-width="0.4"/>
<line x1="73.933" y1="29.877" x2="59.165" y2="38.985" stroke="#141414" stroke-width="0.4"/>
<line x1="59.165" y1="38.985" x2="58.73" y2="45.362" stroke="#141414" stroke-width="0.4"/>
<line x1="16.011" y1="13.029" x2="20.477" y2="7.829" stroke="#141414" stroke-width="0.4"/>
<line x1="20.477" y1="7.829" x2="41.316" y2="7.829" stroke="#141414" stroke-width="0.4"/>
<line x1="41.316" y1="7.829" x2="45.782" y2="13.029" stroke="#141414" stroke-width="0.4"/>
<line x1="16.011" y1="13.029" x2="10.298" y2="18.838" stroke="#141414" stroke-width="0.4"/>
<line x1="10.298" y1="18.838" x2="7.819" y2="48.004" stroke="#141414" stroke-width="0.4"/>
<line x1="7.819" y1="48.004" x2="12.469" y2="54.694" stroke="#141414" stroke-width="0.4"/>
<line x1="29.079" y1="70.049" x2="23.762" y2="67.959" stroke="#141414" stroke-width="0.4"/>
<line x1="23.762" y1="67.959" x2="23.18" y2="56.925" stroke="#141414" stroke-width="0.4"/>
<line x1="23.18" y1="56.925" x2="28.248" y2="54.287" stroke="#141414" stroke-width="0.4"/>
<circle cx="67.914" cy="36.644" r="2.23" fill="#ffe082" stroke="#464646" stroke-width="0.2"/>
<text x="67.914" y="37.70" font-size="3.03" text-anchor="middle" fill="#141414">51</text>
<circle cx="30.896" cy="10.429" r="2.23" fill="#ffe082" stroke="#464646" stroke-width="0.2"/>
<text x="30.896" y="11.49" font-size="3.03" text-anchor="middle" fill="#141414">52</text>
<circle cx="11.649" cy="33.641" r="2.23" fill="#ffe082" stroke="#464646" stroke-width="0.2"/>
<text x="11.649" y="34.70" font-size="3.03" text-anchor="middle" fill="#141414">53</text>
<circle cx="26.067" cy="62.305" r="2.23" fill="#ffe082" stroke="#464646" stroke-width="0.2"/>
<text x="26.067" y="63.36" font-size="3.03" text-anchor="middle" fill="#141414">59</text>
<circle cx="54.122" cy="87.15" r="4.6" fill="#eaf1fe" stroke="#2e78e6" stroke-width="0.3"/>
<text x="54.122" y="88.95" font-size="5.2" text-anchor="middle" fill="#14306e" font-weight="bold">14</text>
</svg>
