<svg xmlns="http://www.w3.org/2000/svg" xmlns:xlink="http://www.w3.org/1999/xlink" width="210.00mm" height="297.00mm" viewBox="0 0 210.00 297.00">
<rect x="0" y="0" width="210.00" height="297.00" fill="#ffffff" stroke="#cccccc" stroke-width="0.2"/>
<polygon points="98.834,96.876 101.957,91.311 94.588,75.707 88.306,74.583" fill="rgb(216,216,216)"/>
<polygon points="98.834,96.876 104.349,100.97 105.885,121.856 101.029,126.712" fill="rgb(216,216,216)"/>
<polygon points="59.155,97.346 53.813,99.785 53.111,112.507 58.153,115.519" fill="rgb(216,216,216)"/>
<polygon points="58.153,115.519 56.732,122.064 69.043,137.44 75.74,137.484" fill="rgb(216,216,216)"/>
<polygon points="88.306,74.583 93.764,65.496 94.974,22.408 90.036,13.029" fill="rgb(216,216,216)"/>
<polygon points="62.46,78.575 57.338,68.702 57.698,22.82 62.975,13.029" fill="rgb(216,216,216)"/>
<polygon points="101.029,126.712 99.273,133.112 81.571,140.653 75.74,137.484" fill="rgb(216,216,216)"/>
<polygon points="90.036,13.029 85.976,7.829 67.034,7.829 62.975,13.029" fill="rgb(216,216,216)"/>
<line x1="59.155" y1="97.346" x2="98.834" y2="96.876" stroke="#8c8c8c" stroke-width="0.3" stroke-dasharray="1.2,0.8"/>
<line x1="98.834" y1="96.876" x2="58.153" y2="115.519" stroke="#8c8c8c" stroke-width="0.3" stroke-dasharray="1.2,0.8"/>
<line x1="59.155" y1="97.346" x2="88.306" y2="74.583" stroke="#8c8c8c" stroke-width="0.3" stroke-dasharray="1.2,0.8"/>
<line x1="59.155" y1="97.346" x2="62.46" y2="78.575" stroke="#8c8c8c" stroke-width="0.3" stroke-dasharray="1.2,0.8"/>
<line x1="101.029" y1="126.713" x2="58.153" y2="115.519" stroke="#8c8c8c" stroke-width="0.3" stroke-dasharray="1.2,0.8"/>
<line x1="88.306" y1="74.583" x2="62.975" y2="13.029" stroke="#8c8c8c" stroke-width="0.3" stroke-dasharray="1.2,0.8"/>
<line x1="62.46" y1="78.575" x2="88.306" y2="74.583" stroke="#8c8c8c" stroke-width="0.3" stroke-dasharray="1.2,0.8"/>
<line x1="88.306" y1="74.583" x2="98.834" y2="96.876" stroke="#8c8c8c" stroke-width="0.3" stroke-dasharray="1.2,0.8"/>
<line x1="101.029" y1="126.712" x2="98.834" y2="96.876" stroke="#8c8c8c" stroke-width="0.3" stroke-dasharray="1.2,0.8"/>
<line x1="58.153" y1="115.519" x2="59.155" y2="97.346" stroke="#8c8c8c" stroke-width="0.3" stroke-dasharray="1.2,0.8"/>
<line x1="75.74" y1="137.484" x2="58.153" y2="115.519" stroke="#8c8c8c" stroke-width="0.3" stroke-dasharray="1.2,0.8"/>
<line x1="90.036" y1="13.029" x2="88.306" y2="74.583" stroke="#8c8c8c" stroke-width="0.3" stroke-dasharray="1.2,0.8"/>
<line x1="62.975" y1="13.029" x2="62.46" y2="78.575" stroke="#8c8c8c" stroke-width="0.3" stroke-dasharray="1.2,0.8"/>
<line x1="75.74" y1="137.484" x2="101.029" y2="126.712" stroke="#8c8c8c" stroke-width="0.3" stroke-dasharray="1.2,0.8"/>
<line x1="62.975" y1="13.029" x2="90.036" y2="13.029" stroke="#8c8c8c" stroke-width="0.3" stroke-dasharray="1.2,0.8"/>
<line x1="59.155" y1="97.346" x2="5.0" y2="19.029" stroke="#141414" stroke-width="0.4"/>
<line x1="5.0" y1="19.029" x2="62.46" y2="78.575" stroke="#141414" stroke-width="0.4"/>
<line x1="98.834" y1="96.876" x2="101.957" y2="91.311" stroke="#141414" stroke-width="0.4"/>
<line x1="101.957" y1="91.311" x2="94.588" y2="75.707" stroke="#141414" stroke-width="0.4"/>
<line x1="94.588" y1="75.707" x2="88.306" y2="74.583" stroke="#141414" stroke-width="0.4"/>
<line x1="98.834" y1="96.876" x2="104.349" y2="100.97" stroke="#141414" stroke-width="0.4"/>
<line x1="104.349" y1="100.97" x2="105.885" y2="121.856" stroke="#141414" stroke-width="0.4"/>
<line x1="105.885" y1="121.856" x2="101.029" y2="126.712" stroke="#141414" stroke-width="0.4"/>
<line x1="59.155" y1="97.346" x2="53.813" y2="99.785" stroke="#141414" stroke-width="0.4"/>
<line x1="53.813" y1="99.785" x2="53.111" y2="112.507" stroke="#141414" stroke-width="0.4"/>
<line x1="53.111" y1="112.507" x2="58.153" y2="115.519" stroke="#141414" stroke-width="0.4"/>
<line x1="58.153" y1="115.519" x2="56.732" y2="122.064" stroke="#141414" stroke-width="0.4"/>
<line x1="56.732" y1="122.064" x2="69.043" y2="137.44" stroke="#141414" stroke-width="0.4"/>
<line x1="69.043" y1="137.44" x2="75.74" y2="137.484" stroke="#141414" stroke-width="0.4"/>
<line x1="88.306" y1="74.583" x2="93.764" y2="65.496" stroke="#141414" stroke-width="0.4"/>
<line x1="93.764" y1="65.496" x2="94.974" y2="22.408" stroke="#141414" stroke-width="0.4"/>
<line x1="94.974" y1="22.408" x2="90.036" y2="13.029" stroke="#141414" stroke-width="0.4"/>
<line x1="62.46" y1="78.575" x2="57.338" y2="68.702" stroke="#141414" stroke-width="0.4"/>
<line x1="57.338" y1="68.702" x2="57.698" y2="22.82" stroke="#141414" stroke-width="0.4"/>
<line x1="57.698" y1="22.82" x2="62.975" y2="13.029" stroke="#141414" stroke-width="0.4"/>
<line x1="101.029" y1="126.712" x2="99.273" y2="133.112" stroke="#141414" stroke-width="0.4"/>
<line x1="99.273" y1="133.112" x2="81.571" y2="140.653" stroke="#141414" stroke-width="0.4"/>
<line x1="81.571" y1="140.653" x2="75.74" y2="137.484" stroke="#141414" stroke-width="0.4"/>
<line x1="90.036" y1="13.029" x2="85.976" y2="7.829" stroke="#141414" stroke-width="0.4"/>
<line x1="85.976" y1="7.829" x2="67.034" y2="7.829" stroke="#141414" stroke-width="0.4"/>
<line x1="67.034" y1="7.829" x2="62.975" y2="13.029" stroke="#141414" stroke-width="0.4"/>
<circle cx="95.921" cy="84.619" r="2.23" fill="#ffe082" stroke="#464646" stroke-width="0.2"/>
<text x="95.921" y="85.68" font-size="3.03" text-anchor="middle" fill="#141414">1</text>
<circle cx="102.524" cy="111.604" r="2.23" fill="#ffe082" stroke="#464646" stroke-width="0.2"/>
<text x="102.524" y="112.66" font-size="3.03" text-anchor="middle" fill="#141414">2</text>
<circle cx="56.058" cy="106.289" r="2.23" fill="#ffe082" stroke="#464646" stroke-width="0.2"/>
<text x="56.058" y="107.35" font-size="3.03" text-anchor="middle" fill="#141414">3</text>
<circle cx="64.917" cy="128.127" r="2.23" fill="#ffe082" stroke="#464646" stroke-width="0.2"/>
<text x="64.917" y="129.19" font-size="3.03" text-anchor="middle" fill="#141414">5</text>
<circle cx="91.77" cy="43.879" r="2.23" fill="#ffe082" stroke="#464646" stroke-width="0.2"/>
<text x="91.77" y="44.94" font-size="3.03" text-anchor="middle" fill="#141414">8</text>
<circle cx="60.118" cy="45.781" r="2.23" fill="#ffe082" stroke="#464646" stroke-width="0.2"/>
<text x="60.118" y="46.84" font-size="3.03" text-anchor="middle" fill="#141414">10</text>
<circle cx="89.403" cy="134.491" r="2.23" fill="#ffe082" stroke="#464646" stroke-width="0.2"/>
<text x="89.403" y="135.55" font-size="3.03" text-anchor="middle" fill="#141414">12</text>
<circle cx="76.505" cy="10.429" r="2.23" fill="#ffe082" stroke="#464646" stroke-width="0.2"/>
<text x="76.505" y="11.49" font-size="3.03" text-anchor="middle" fill="#141414">20</text>
<circle cx="55.443" cy="143.924" r="4.6" fill="#eaf1fe" stroke="#2e78e6" stroke-width="0.3"/>
<text x="55.443" y="145.72400000000002" font-size="5.2" text-anchor="middle" fill="#14306e" font-weight="bold">1</text>
</svg>
