<svg xmlns="http://www.w3.org/2000/svg" xmlns:xlink="http://www.w3.org/1999/xlink" width="210.00mm" height="297.00mm" viewBox="0 0 210.00 297.00">
<rect x="0" y="0" width="210.00" height="297.00" fill="#ffffff" stroke="#cccccc" stroke-width="0.2"/>
<polygon points="178.904,159.268 170.903,167.541 125.626,183.215 114.223,181.66" fill="rgb(216,216,216)"/>
<polygon points="92.198,10.776 88.432,16.768 94.281,38.394 100.554,41.67" fill="rgb(216,216,216)"/>
<polygon points="92.198,10.776 96.601,5.576 117.149,5.576 121.552,10.776" fill="rgb(216,216,216)"/>
<polygon points="119.25,183.126 130.439,188.49 140.016,200.063 143.192,212.057" fill="rgb(216,216,216)"/>
<polygon points="119.25,183.126 117.775,184.07 106.665,215.431 103.82,226.684" fill="rgb(216,216,216)"/>
<polygon points="130.877,38.68 134.41,32.847 127.883,13.314 121.552,10.776" fill="rgb(216,216,216)"/>
<polygon points="130.877,38.68 137.849,37.853 154.46,52.304 154.606,59.324" fill="rgb(216,216,216)"/>
<polygon points="105.9,282.376 116.088,274.264 142.192,225.041 143.192,212.057" fill="rgb(216,216,216)"/>
<polygon points="105.9,282.376 100.496,288.218 72.561,291.368 65.992,286.876" fill="rgb(216,216,216)"/>
<polygon points="100.554,41.67 94.675,43.075 90.419,56.812 94.474,61.295" fill="rgb(216,216,216)"/>
<polygon points="5.0,171.612 7.226,166.005 21.329,163.821 25.147,168.491" fill="rgb(216,216,216)"/>
<polygon points="164.095,81.551 163.538,75.764 152.215,71.4 147.919,75.317" fill="rgb(216,216,216)"/>
<polygon points="67.048,260.211 61.694,264.005 60.955,282.671 65.992,286.876" fill="rgb(216,216,216)"/>
<polygon points="136.77,106.54 132.492,112.09 136.404,133.658 142.358,137.352" fill="rgb(216,216,216)"/>
<polygon points="136.77,106.54 126.426,111.499 112.796,111.179 102.696,105.74" fill="rgb(216,216,216)"/>
<polygon points="129.608,121.774 119.501,126.955 72.382,126.867 62.294,121.648" fill="rgb(216,216,216)"/>
<polygon points="120.594,65.249 111.98,69.204 101.531,67.623 94.474,61.295" fill="rgb(216,216,216)"/>
<polygon points="25.147,168.491 33.404,168.112 57.551,185.888 59.643,193.885" fill="rgb(216,216,216)"/>
<polygon points="110.329,137.139 98.848,142.187 63.368,181.909 59.643,193.885" fill="rgb(216,216,216)"/>
<polygon points="119.25,183.126 117.775,184.07 106.665,215.431 103.82,226.684" fill="#99d9fa"/>
<line x1="114.223" y1="181.66" x2="156.076" y2="140.814" stroke="#8c8c8c" stroke-width="0.3" stroke-dasharray="1.2,0.8"/>
<line x1="67.048" y1="260.211" x2="114.223" y2="181.66" stroke="#8c8c8c" stroke-width="0.3" stroke-dasharray="1.2,0.8"/>
<line x1="114.223" y1="181.66" x2="142.358" y2="137.352" stroke="#8c8c8c" stroke-width="0.3" stroke-dasharray="1.2,0.8"/>
<line x1="114.223" y1="181.66" x2="110.329" y2="137.139" stroke="#8c8c8c" stroke-width="0.3" stroke-dasharray="1.2,0.8"/>
<line x1="59.643" y1="193.885" x2="114.223" y2="181.66" stroke="#8c8c8c" stroke-width="0.3" stroke-dasharray="1.2,0.8"/>
<line x1="130.877" y1="38.68" x2="100.554" y2="41.67" stroke="#8c8c8c" stroke-width="0.3" stroke-dasharray="1.2,0.8"/>
<line x1="105.9" y1="282.376" x2="103.82" y2="226.684" stroke="#8c8c8c" stroke-width="0.3" stroke-dasharray="1.2,0.8"/>
<line x1="105.9" y1="282.376" x2="67.048" y2="260.211" stroke="#8c8c8c" stroke-width="0.3" stroke-dasharray="1.2,0.8"/>
<line x1="156.076" y1="140.814" x2="142.358" y2="137.352" stroke="#8c8c8c" stroke-width="0.3" stroke-dasharray="1.2,0.8"/>
<line x1="136.77" y1="106.54" x2="164.095" y2="81.551" stroke="#8c8c8c" stroke-width="0.3" stroke-dasharray="1.2,0.8"/>
<line x1="154.606" y1="59.324" x2="120.594" y2="65.249" stroke="#8c8c8c" stroke-width="0.3" stroke-dasharray="1.2,0.8"/>
<line x1="67.048" y1="260.211" x2="103.82" y2="226.684" stroke="#8c8c8c" stroke-width="0.3" stroke-dasharray="1.2,0.8"/>
<line x1="67.048" y1="260.211" x2="59.643" y2="193.885" stroke="#8c8c8c" stroke-width="0.3" stroke-dasharray="1.2,0.8"/>
<line x1="136.77" y1="106.54" x2="147.919" y2="75.317" stroke="#8c8c8c" stroke-width="0.3" stroke-dasharray="1.2,0.8"/>
<line x1="147.919" y1="75.317" x2="120.594" y2="65.249" stroke="#8c8c8c" stroke-width="0.3" stroke-dasharray="1.2,0.8"/>
<line x1="147.919" y1="75.317" x2="94.63" y2="83.188" stroke="#8c8c8c" stroke-width="0.3" stroke-dasharray="1.2,0.8"/>
<line x1="25.147" y1="168.491" x2="27.577" y2="242.748" stroke="#8c8c8c" stroke-width="0.3" stroke-dasharray="1.2,0.8"/>
<line x1="59.643" y1="193.885" x2="27.577" y2="242.748" stroke="#8c8c8c" stroke-width="0.3" stroke-dasharray="1.2,0.8"/>
<line x1="53.45" y1="239.819" x2="59.643" y2="193.885" stroke="#8c8c8c" stroke-width="0.3" stroke-dasharray="1.2,0.8"/>
<line x1="62.294" y1="121.648" x2="102.695" y2="105.74" stroke="#8c8c8c" stroke-width="0.3" stroke-dasharray="1.2,0.8"/>
<line x1="56.334" y1="105.274" x2="102.695" y2="105.74" stroke="#8c8c8c" stroke-width="0.3" stroke-dasharray="1.2,0.8"/>
<line x1="165.572" y1="112.968" x2="142.358" y2="137.352" stroke="#8c8c8c" stroke-width="0.3" stroke-dasharray="1.2,0.8"/>
<line x1="120.594" y1="65.249" x2="130.877" y2="38.68" stroke="#8c8c8c" stroke-width="0.3" stroke-dasharray="1.2,0.8"/>
<line x1="121.552" y1="10.776" x2="100.554" y2="41.67" stroke="#8c8c8c" stroke-width="0.3" stroke-dasharray="1.2,0.8"/>
<line x1="120.594" y1="65.249" x2="100.554" y2="41.67" stroke="#8c8c8c" stroke-width="0.3" stroke-dasharray="1.2,0.8"/>
<line x1="94.63" y1="83.188" x2="136.77" y2="106.54" stroke="#8c8c8c" stroke-width="0.3" stroke-dasharray="1.2,0.8"/>
<line x1="102.695" y1="105.74" x2="94.63" y2="83.188" stroke="#8c8c8c" stroke-width="0.3" stroke-dasharray="1.2,0.8"/>
<line x1="114.223" y1="181.66" x2="178.904" y2="159.268" stroke="#8c8c8c" stroke-width="0.3" stroke-dasharray="1.2,0.8"/>
<line x1="100.554" y1="41.67" x2="92.198" y2="10.776" stroke="#8c8c8c" stroke-width="0.3" stroke-dasharray="1.2,0.8"/>
<line x1="121.552" y1="10.776" x2="92.198" y2="10.776" stroke="#8c8c8c" stroke-width="0.3" stroke-dasharray="1.2,0.8"/>
<line x1="143.192" y1="212.057" x2="119.25" y2="183.126" stroke="#8c8c8c" stroke-width="0.3" stroke-dasharray="1.2,0.8"/>
<line x1="103.82" y1="226.684" x2="119.25" y2="183.126" stroke="#8c8c8c" stroke-width="0.3" stroke-dasharray="1.2,0.8"/>
<line x1="121.552" y1="10.776" x2="130.877" y2="38.68" stroke="#8c8c8c" stroke-width="0.3" stroke-dasharray="1.2,0.8"/>
<line x1="154.606" y1="59.324" x2="130.877" y2="38.68" stroke="#8c8c8c" stroke-width="0.3" stroke-dasharray="1.2,0.8"/>
<line x1="143.192" y1="212.057" x2="105.9" y2="282.376" stroke="#8c8c8c" stroke-width="0.3" stroke-dasharray="1.2,0.8"/>
<line x1="65.992" y1="286.876" x2="105.9" y2="282.376" stroke="#8c8c8c" stroke-width="0.3" stroke-dasharray="1.2,0.8"/>
<line x1="94.474" y1="61.295" x2="100.554" y2="41.67" stroke="#8c8c8c" stroke-width="0.3" stroke-dasharray="1.2,0.8"/>
<line x1="25.147" y1="168.491" x2="5.0" y2="171.612" stroke="#8c8c8c" stroke-width="0.3" stroke-dasharray="1.2,0.8"/>
<line x1="147.919" y1="75.317" x2="164.095" y2="81.551" stroke="#8c8c8c" stroke-width="0.3" stroke-dasharray="1.2,0.8"/>
<line x1="65.992" y1="286.876" x2="67.048" y2="260.211" stroke="#8c8c8c" stroke-width="0.3" stroke-dasharray="1.2,0.8"/>
<line x1="142.358" y1="137.352" x2="136.77" y2="106.54" stroke="#8c8c8c" stroke-width="0.3" stroke-dasharray="1.2,0.8"/>
<line x1="102.696" y1="105.74" x2="136.77" y2="106.54" stroke="#8c8c8c" stroke-width="0.3" stroke-dasharray="1.2,0.8"/>
<line x1="62.294" y1="121.648" x2="129.608" y2="121.774" stroke="#8c8c8c" stroke-width="0.3" stroke-dasharray="1.2,0.8"/>
<line x1="94.474" y1="61.295" x2="120.594" y2="65.249" stroke="#8c8c8c" stroke-width="0.3" stroke-dasharray="1.2,0.8"/>
<line x1="59.643" y1="193.885" x2="25.147" y2="168.491" stroke="#8c8c8c" stroke-width="0.3" stroke-dasharray="1.2,0.8"/>
<line x1="59.643" y1="193.885" x2="110.329" y2="137.139" stroke="#8c8c8c" stroke-width="0.3" stroke-dasharray="1.2,0.8"/>
<line x1="156.076" y1="140.814" x2="178.904" y2="159.268" stroke="#141414" stroke-width="0.4"/>
<line x1="114.223" y1="181.66" x2="103.82" y2="226.684" stroke="#141414" stroke-width="0.4"/>
<line x1="165.572" y1="112.968" x2="156.076" y2="140.814" stroke="#141414" stroke-width="0.4"/>
<line x1="164.095" y1="81.551" x2="165.572" y2="112.968" stroke="#141414" stroke-width="0.4"/>
<line x1="27.577" y1="242.748" x2="5.0" y2="171.612" stroke="#141414" stroke-width="0.4"/>
<line x1="154.606" y1="59.324" x2="147.919" y2="75.317" stroke="#141414" stroke-width="0.4"/>
<line x1="67.048" y1="260.211" x2="53.45" y2="239.819" stroke="#141414" stroke-width="0.4"/>
<line x1="102.695" y1="105.74" x2="129.608" y2="121.774" stroke="#141414" stroke-width="0.4"/>
<line x1="110.329" y1="137.139" x2="142.358" y2="137.352" stroke="#141414" stroke-width="0.4"/>
<line x1="94.63" y1="83.188" x2="120.594" y2="65.249" stroke="#141414" stroke-width="0.4"/>
<line x1="56.334" y1="105.274" x2="94.63" y2="83.188" stroke="#141414" stroke-width="0.4"/>
<line x1="53.45" y1="239.819" x2="27.577" y2="242.748" stroke="#141414" stroke-width="0.4"/>
<line x1="62.294" y1="121.648" x2="56.334" y2="105.274" stroke="#141414" stroke-width="0.4"/>
<line x1="178.904" y1="159.268" x2="170.903" y2="167.541" stroke="#141414" stroke-width="0.4"/>
<line x1="170.903" y1="167.541" x2="125.626" y2="183.215" stroke="#141414" stroke-width="0.4"/>
<line x1="125.626" y1="183.215" x2="114.223" y2="181.66" stroke="#141414" stroke-width="0.4"/>
<line x1="92.198" y1="10.776" x2="88.432" y2="16.768" stroke="#141414" stroke-width="0.4"/>
<line x1="88.432" y1="16.768" x2="94.281" y2="38.394" stroke="#141414" stroke-width="0.4"/>
<line x1="94.281" y1="38.394" x2="100.554" y2="41.67" stroke="#141414" stroke-width="0.4"/>
<line x1="92.198" y1="10.776" x2="96.601" y2="5.576" stroke="#141414" stroke-width="0.4"/>
<line x1="96.601" y1="5.576" x2="117.149" y2="5.576" stroke="#141414" stroke-width="0.4"/>
<line x1="117.149" y1="5.576" x2="121.552" y2="10.776" stroke="#141414" stroke-width="0.4"/>
<line x1="119.25" y1="183.126" x2="130.439" y2="188.49" stroke="#141414" stroke-width="0.4"/>
<line x1="130.439" y1="188.49" x2="140.016" y2="200.063" stroke="#141414" stroke-width="0.4"/>
<line x1="140.016" y1="200.063" x2="143.192" y2="212.057" stroke="#141414" stroke-width="0.4"/>
<line x1="119.25" y1="183.126" x2="117.775" y2="184.07" stroke="#141414" stroke-width="0.4"/>
<line x1="117.775" y1="184.07" x2="106.665" y2="215.431" stroke="#141414" stroke-width="0.4"/>
<line x1="106.665" y1="215.431" x2="103.82" y2="226.684" stroke="#141414" stroke-width="0.4"/>
<line x1="130.877" y1="38.68" x2="134.41" y2="32.847" stroke="#141414" stroke-width="0.4"/>
<line x1="134.41" y1="32.847" x2="127.883" y2="13.314" stroke="#141414" stroke-width="0.4"/>
<line x1="127.883" y1="13.314" x2="121.552" y2="10.776" stroke="#141414" stroke-width="0.4"/>
<line x1="130.877" y1="38.68" x2="137.849" y2="37.853" stroke="#141414" stroke-width="0.4"/>
<line x1="137.849" y1="37.853" x2="154.46" y2="52.304" stroke="#141414" stroke-width="0.4"/>
<line x1="154.46" y1="52.304" x2="154.606" y2="59.324" stroke="#141414" stroke-width="0.4"/>
<line x1="105.9" y1="282.376" x2="116.088" y2="274.264" stroke="#141414" stroke-width="0.4"/>
<line x1="116.088" y1="274.264" x2="142.192" y2="225.041" stroke="#141414" stroke-width="0.4"/>
<line x1="142.192" y1="225.041" x2="143.192" y2="212.057" stroke="#141414" stroke-width="0.4"/>
<line x1="105.9" y1="282.376" x2="100.496" y2="288.218" stroke="#141414" stroke-width="0.4"/>
<line x1="100.496" y1="288.218" x2="72.561" y2="291.368" stroke="#141414" stroke-width="0.4"/>
<line x1="72.561" y1="291.368" x2="65.992" y2="286.876" stroke="#141414" stroke-width="0.4"/>
<line x1="100.554" y1="41.67" x2="94.675" y2="43.075" stroke="#141414" stroke-width="0.4"/>
<line x1="94.675" y1="43.075" x2="90.419" y2="56.812" stroke="#141414" stroke-width="0.4"/>
<line x1="90.419" y1="56.812" x2="94.474" y2="61.295" stroke="#141414" stroke-width="0.4"/>
<line x1="5.0" y1="171.612" x2="7.226" y2="166.005" stroke="#141414" stroke-width="0.4"/>
<line x1="7.226" y1="166.005" x2="21.329" y2="163.821" stroke="#141414" stroke-width="0.4"/>
<line x1="21.329" y1="163.821" x2="25.147" y2="168.491" stroke="#141414" stroke-width="0.4"/>
<line x1="164.095" y1="81.551" x2="163.538" y2="75.764" stroke="#141414" stroke-width="0.4"/>
<line x1="163.538" y1="75.764" x2="152.215" y2="71.4" stroke="#141414" stroke-width="0.4"/>
<line x1="152.215" y1="71.4" x2="147.919" y2="75.317" stroke="#141414" stroke-width="0.4"/>
<line x1="67.048" y1="260.211" x2="61.694" y2="264.005" stroke="#141414" stroke-width="0.4"/>
<line x1="61.694" y1="264.005" x2="60.955" y2="282.671" stroke="#141414" stroke-width="0.4"/>
<line x1="60.955" y1="282.671" x2="65.992" y2="286.876" stroke="#141414" stroke-width="0.4"/>
<line x1="136.77" y1="106.54" x2="132.492" y2="112.09" stroke="#141414" stroke-width="0.4"/>
<line x1="132.492" y1="112.09" x2="136.404" y2="133.658" stroke="#141414" stroke-width="0.4"/>
<line x1="136.404" y1="133.658" x2="142.358" y2="137.352" stroke="#141414" stroke-width="0.4"/>
<line x1="136.77" y1="106.54" x2="126.426" y2="111.499" stroke="#141414" stroke-width="0.4"/>
<line x1="126.426" y1="111.499" x2="112.796" y2="111.179" stroke="#141414" stroke-width="0.4"/>
<line x1="112.796" y1="111.179" x2="102.696" y2="105.74" stroke="#141414" stroke-width="0.4"/>
<line x1="129.608" y1="121.774" x2="119.501" y2="126.955" stroke="#141414" stroke-width="0.4"/>
<line x1="119.501" y1="126.955" x2="72.382" y2="126.867" stroke="#141414" stroke-width="0.4"/>
<line x1="72.382" y1="126.867" x2="62.294" y2="121.648" stroke="#141414" stroke-width="0.4"/>
<line x1="120.594" y1="65.249" x2="111.98" y2="69.204" stroke="#141414" stroke-width="0.4"/>
<line x1="111.98" y1="69.204" x2="101.531" y2="67.623" stroke="#141414" stroke-width="0.4"/>
<line x1="101.531" y1="67.623" x2="94.474" y2="61.295" stroke="#141414" stroke-width="0.4"/>
<line x1="25.147" y1="168.491" x2="33.404" y2="168.112" stroke="#141414" stroke-width="0.4"/>
<line x1="33.404" y1="168.112" x2="57.551" y2="185.888" stroke="#141414" stroke-width="0.4"/>
<line x1="57.551" y1="185.888" x2="59.643" y2="193.885" stroke="#141414" stroke-width="0.4"/>
<line x1="110.329" y1="137.139" x2="98.848" y2="142.187" stroke="#141414" stroke-width="0.4"/>
<line x1="98.848" y1="142.187" x2="63.368" y2="181.909" stroke="#141414" stroke-width="0.4"/>
<line x1="63.368" y1="181.909" x2="59.643" y2="193.885" stroke="#141414" stroke-width="0.4"/>
<circle cx="147.414" cy="172.921" r="0.47" fill="#ffe082" stroke="#464646" stroke-width="0.2"/>
<text x="147.414" y="173.15" font-size="0.64" text-anchor="middle" fill="#141414">6</text>
<circle cx="93.866" cy="26.902" r="0.47" fill="#ffe082" stroke="#464646" stroke-width="0.2"/>
<text x="93.866" y="27.13" font-size="0.64" text-anchor="middle" fill="#141414">7</text>
<circle cx="106.875" cy="8.176" r="0.47" fill="#ffe082" stroke="#464646" stroke-width="0.2"/>
<text x="106.875" y="8.40" font-size="0.64" text-anchor="middle" fill="#141414">9</text>
<circle cx="133.224" cy="195.934" r="0.47" fill="#ffe082" stroke="#464646" stroke-width="0.2"/>
<text x="133.224" y="196.16" font-size="0.64" text-anchor="middle" fill="#141414">10</text>
<circle cx="111.878" cy="202.328" r="0.47" fill="#99d9fa" stroke="#464646" stroke-width="0.2"/>
<text x="111.878" y="202.55" font-size="0.64" text-anchor="middle" fill="#141414">11</text>
<circle cx="128.681" cy="23.904" r="0.47" fill="#ffe082" stroke="#464646" stroke-width="0.2"/>
<text x="128.681" y="24.13" font-size="0.64" text-anchor="middle" fill="#141414">14</text>
<circle cx="144.448" cy="47.04" r="0.47" fill="#ffe082" stroke="#464646" stroke-width="0.2"/>
<text x="144.448" y="47.26" font-size="0.64" text-anchor="middle" fill="#141414">15</text>
<circle cx="126.843" cy="248.435" r="0.47" fill="#ffe082" stroke="#464646" stroke-width="0.2"/>
<text x="126.843" y="248.66" font-size="0.64" text-anchor="middle" fill="#141414">16</text>
<circle cx="86.238" cy="287.21" r="0.47" fill="#ffe082" stroke="#464646" stroke-width="0.2"/>
<text x="86.238" y="287.43" font-size="0.64" text-anchor="middle" fill="#141414">17</text>
<circle cx="95.03" cy="50.713" r="0.47" fill="#ffe082" stroke="#464646" stroke-width="0.2"/>
<text x="95.03" y="50.94" font-size="0.64" text-anchor="middle" fill="#141414">18</text>
<circle cx="14.675" cy="167.482" r="0.47" fill="#ffe082" stroke="#464646" stroke-width="0.2"/>
<text x="14.675" y="167.71" font-size="0.64" text-anchor="middle" fill="#141414">20</text>
<circle cx="156.942" cy="76.008" r="0.47" fill="#ffe082" stroke="#464646" stroke-width="0.2"/>
<text x="156.942" y="76.23" font-size="0.64" text-anchor="middle" fill="#141414">29</text>
<circle cx="63.922" cy="273.441" r="0.47" fill="#ffe082" stroke="#464646" stroke-width="0.2"/>
<text x="63.922" y="273.67" font-size="0.64" text-anchor="middle" fill="#141414">30</text>
<circle cx="137.006" cy="122.41" r="0.47" fill="#ffe082" stroke="#464646" stroke-width="0.2"/>
<text x="137.006" y="122.63" font-size="0.64" text-anchor="middle" fill="#141414">32</text>
<circle cx="119.672" cy="108.739" r="0.47" fill="#ffe082" stroke="#464646" stroke-width="0.2"/>
<text x="119.672" y="108.96" font-size="0.64" text-anchor="middle" fill="#141414">34</text>
<circle cx="95.946" cy="124.311" r="0.47" fill="#ffe082" stroke="#464646" stroke-width="0.2"/>
<text x="95.946" y="124.54" font-size="0.64" text-anchor="middle" fill="#141414">38</text>
<circle cx="107.145" cy="65.843" r="0.47" fill="#ffe082" stroke="#464646" stroke-width="0.2"/>
<text x="107.145" y="66.07" font-size="0.64" text-anchor="middle" fill="#141414">40</text>
<circle cx="43.936" cy="179.094" r="0.47" fill="#ffe082" stroke="#464646" stroke-width="0.2"/>
<text x="43.936" y="179.32" font-size="0.64" text-anchor="middle" fill="#141414">42</text>
<circle cx="83.047" cy="163.78" r="0.47" fill="#ffe082" stroke="#464646" stroke-width="0.2"/>
<text x="83.047" y="164.00" font-size="0.64" text-anchor="middle" fill="#141414">49</text>
<circle cx="79.647" cy="276.488" r="4.60" fill="#eaf1fe" stroke="#2e78e6" stroke-width="0.3"/>
<text x="79.647" y="278.29" font-size="5.20" text-anchor="middle" fill="#14306e" font-weight="bold">1</text>
<text x="205.0" y="295.0" font-size="3.2" text-anchor="end" fill="#737373" font-family="sans-serif">1 / 4</text>
</svg>
