<svg xmlns="http://www.w3.org/2000/svg" xmlns:xlink="http://www.w3.org/1999/xlink" width="210.00mm" height="297.00mm" viewBox="0 0 210.00 297.00">
<rect x="0" y="0" width="210.00" height="297.00" fill="#ffffff" stroke="#cccccc" stroke-width="0.2"/>
<polygon points="9.974,50.732 4.72,55.017 8.2,63.417 14.945,62.732" fill="rgb(216,216,216)"/>
<polygon points="9.974,50.732 4.72,46.447 8.2,38.048 14.945,38.733" fill="rgb(216,216,216)"/>
<polygon points="75.197,94.007 83.284,96.561 84.079,98.481 80.167,106.006" fill="rgb(216,216,216)"/>
<polygon points="14.945,62.732 14.259,69.477 22.659,72.956 26.944,67.702" fill="rgb(216,216,216)"/>
<polygon points="70.226,82.007 74.138,74.483 73.343,72.563 65.256,70.008" fill="rgb(216,216,216)"/>
<polygon points="26.944,67.702 31.229,72.956 39.629,69.477 38.943,62.732" fill="rgb(216,216,216)"/>
<polygon points="65.256,70.008 70.51,65.723 67.031,57.324 60.286,58.009" fill="rgb(216,216,216)"/>
<polygon points="38.943,62.732 47.031,60.177 47.826,58.257 43.914,50.732" fill="rgb(216,216,216)"/>
<polygon points="60.286,58.009 65.54,53.724 62.061,45.324 55.316,46.009" fill="rgb(216,216,216)"/>
<polygon points="55.316,46.009 60.57,41.725 57.091,33.325 50.345,34.01" fill="rgb(216,216,216)"/>
<polygon points="38.943,38.733 36.389,30.646 34.469,29.851 26.944,33.763" fill="rgb(216,216,216)"/>
<polygon points="50.345,34.01 55.599,29.725 52.12,21.326 45.375,22.011" fill="rgb(216,216,216)"/>
<polygon points="26.944,33.763 22.659,28.509 14.259,31.988 14.945,38.733" fill="rgb(216,216,216)"/>
<polygon points="45.375,22.011 50.629,17.726 47.15,9.326 40.405,10.012" fill="rgb(216,216,216)"/>
<polygon points="29.003,14.734 28.352,8.325 36.333,5.019 40.405,10.012" fill="rgb(216,216,216)"/>
<line x1="75.197" y1="94.007" x2="63.795" y2="98.73" stroke="#8c8c8c" stroke-width="0.3" stroke-dasharray="1.2,0.8"/>
<line x1="70.226" y1="82.007" x2="75.197" y2="94.007" stroke="#8c8c8c" stroke-width="0.3" stroke-dasharray="1.2,0.8"/>
<line x1="58.824" y1="86.73" x2="70.226" y2="82.007" stroke="#8c8c8c" stroke-width="0.3" stroke-dasharray="1.2,0.8"/>
<line x1="53.854" y1="74.731" x2="65.256" y2="70.008" stroke="#8c8c8c" stroke-width="0.3" stroke-dasharray="1.2,0.8"/>
<line x1="48.884" y1="62.732" x2="60.286" y2="58.009" stroke="#8c8c8c" stroke-width="0.3" stroke-dasharray="1.2,0.8"/>
<line x1="43.914" y1="50.732" x2="55.316" y2="46.009" stroke="#8c8c8c" stroke-width="0.3" stroke-dasharray="1.2,0.8"/>
<line x1="38.943" y1="38.733" x2="43.914" y2="50.732" stroke="#8c8c8c" stroke-width="0.3" stroke-dasharray="1.2,0.8"/>
<line x1="38.943" y1="38.733" x2="50.345" y2="34.01" stroke="#8c8c8c" stroke-width="0.3" stroke-dasharray="1.2,0.8"/>
<line x1="33.973" y1="26.734" x2="45.375" y2="22.011" stroke="#8c8c8c" stroke-width="0.3" stroke-dasharray="1.2,0.8"/>
<line x1="14.945" y1="62.732" x2="9.974" y2="50.732" stroke="#8c8c8c" stroke-width="0.3" stroke-dasharray="1.2,0.8"/>
<line x1="14.945" y1="38.733" x2="9.974" y2="50.732" stroke="#8c8c8c" stroke-width="0.3" stroke-dasharray="1.2,0.8"/>
<line x1="80.167" y1="106.006" x2="75.197" y2="94.007" stroke="#8c8c8c" stroke-width="0.3" stroke-dasharray="1.2,0.8"/>
<line x1="26.944" y1="67.702" x2="14.945" y2="62.732" stroke="#8c8c8c" stroke-width="0.3" stroke-dasharray="1.2,0.8"/>
<line x1="65.256" y1="70.008" x2="70.226" y2="82.007" stroke="#8c8c8c" stroke-width="0.3" stroke-dasharray="1.2,0.8"/>
<line x1="38.943" y1="62.732" x2="26.944" y2="67.702" stroke="#8c8c8c" stroke-width="0.3" stroke-dasharray="1.2,0.8"/>
<line x1="60.286" y1="58.009" x2="65.256" y2="70.008" stroke="#8c8c8c" stroke-width="0.3" stroke-dasharray="1.2,0.8"/>
<line x1="43.914" y1="50.732" x2="38.943" y2="62.732" stroke="#8c8c8c" stroke-width="0.3" stroke-dasharray="1.2,0.8"/>
<line x1="55.316" y1="46.009" x2="60.286" y2="58.009" stroke="#8c8c8c" stroke-width="0.3" stroke-dasharray="1.2,0.8"/>
<line x1="50.345" y1="34.01" x2="55.316" y2="46.009" stroke="#8c8c8c" stroke-width="0.3" stroke-dasharray="1.2,0.8"/>
<line x1="26.944" y1="33.763" x2="38.943" y2="38.733" stroke="#8c8c8c" stroke-width="0.3" stroke-dasharray="1.2,0.8"/>
<line x1="45.375" y1="22.011" x2="50.345" y2="34.01" stroke="#8c8c8c" stroke-width="0.3" stroke-dasharray="1.2,0.8"/>
<line x1="14.945" y1="38.733" x2="26.944" y2="33.763" stroke="#8c8c8c" stroke-width="0.3" stroke-dasharray="1.2,0.8"/>
<line x1="40.405" y1="10.012" x2="45.375" y2="22.011" stroke="#8c8c8c" stroke-width="0.3" stroke-dasharray="1.2,0.8"/>
<line x1="40.405" y1="10.012" x2="29.003" y2="14.734" stroke="#8c8c8c" stroke-width="0.3" stroke-dasharray="1.2,0.8"/>
<line x1="63.795" y1="98.73" x2="58.824" y2="86.73" stroke="#141414" stroke-width="0.4"/>
<line x1="68.765" y1="110.729" x2="63.795" y2="98.73" stroke="#141414" stroke-width="0.4"/>
<line x1="87.196" y1="98.977" x2="75.197" y2="94.007" stroke="#141414" stroke-width="0.4"/>
<line x1="58.824" y1="86.73" x2="53.854" y2="74.731" stroke="#141414" stroke-width="0.4"/>
<line x1="70.226" y1="82.007" x2="75.197" y2="70.008" stroke="#141414" stroke-width="0.4"/>
<line x1="53.854" y1="74.731" x2="48.884" y2="62.732" stroke="#141414" stroke-width="0.4"/>
<line x1="75.197" y1="70.008" x2="87.196" y2="65.038" stroke="#141414" stroke-width="0.4"/>
<line x1="48.884" y1="62.732" x2="43.914" y2="50.732" stroke="#141414" stroke-width="0.4"/>
<line x1="87.196" y1="65.038" x2="99.195" y2="70.008" stroke="#141414" stroke-width="0.4"/>
<line x1="99.195" y1="70.008" x2="104.166" y2="82.007" stroke="#141414" stroke-width="0.4"/>
<line x1="38.943" y1="38.733" x2="33.973" y2="26.734" stroke="#141414" stroke-width="0.4"/>
<line x1="104.166" y1="82.007" x2="99.195" y2="94.007" stroke="#141414" stroke-width="0.4"/>
<line x1="33.973" y1="26.734" x2="29.003" y2="14.734" stroke="#141414" stroke-width="0.4"/>
<line x1="99.195" y1="94.007" x2="87.196" y2="98.977" stroke="#141414" stroke-width="0.4"/>
<line x1="80.167" y1="106.006" x2="68.765" y2="110.729" stroke="#141414" stroke-width="0.4"/>
<line x1="9.974" y1="50.732" x2="4.72" y2="55.017" stroke="#141414" stroke-width="0.4"/>
<line x1="4.72" y1="55.017" x2="8.2" y2="63.417" stroke="#141414" stroke-width="0.4"/>
<line x1="8.2" y1="63.417" x2="14.945" y2="62.732" stroke="#141414" stroke-width="0.4"/>
<line x1="9.974" y1="50.732" x2="4.72" y2="46.447" stroke="#141414" stroke-width="0.4"/>
<line x1="4.72" y1="46.447" x2="8.2" y2="38.048" stroke="#141414" stroke-width="0.4"/>
<line x1="8.2" y1="38.048" x2="14.945" y2="38.733" stroke="#141414" stroke-width="0.4"/>
<line x1="75.197" y1="94.007" x2="83.284" y2="96.561" stroke="#141414" stroke-width="0.4"/>
<line x1="83.284" y1="96.561" x2="84.079" y2="98.481" stroke="#141414" stroke-width="0.4"/>
<line x1="84.079" y1="98.481" x2="80.167" y2="106.006" stroke="#141414" stroke-width="0.4"/>
<line x1="14.945" y1="62.732" x2="14.259" y2="69.477" stroke="#141414" stroke-width="0.4"/>
<line x1="14.259" y1="69.477" x2="22.659" y2="72.956" stroke="#141414" stroke-width="0.4"/>
<line x1="22.659" y1="72.956" x2="26.944" y2="67.702" stroke="#141414" stroke-width="0.4"/>
<line x1="70.226" y1="82.007" x2="74.138" y2="74.483" stroke="#141414" stroke-width="0.4"/>
<line x1="74.138" y1="74.483" x2="73.343" y2="72.563" stroke="#141414" stroke-width="0.4"/>
<line x1="73.343" y1="72.563" x2="65.256" y2="70.008" stroke="#141414" stroke-width="0.4"/>
<line x1="26.944" y1="67.702" x2="31.229" y2="72.956" stroke="#141414" stroke-width="0.4"/>
<line x1="31.229" y1="72.956" x2="39.629" y2="69.477" stroke="#141414" stroke-width="0.4"/>
<line x1="39.629" y1="69.477" x2="38.943" y2="62.732" stroke="#141414" stroke-width="0.4"/>
<line x1="65.256" y1="70.008" x2="70.51" y2="65.723" stroke="#141414" stroke-width="0.4"/>
<line x1="70.51" y1="65.723" x2="67.031" y2="57.324" stroke="#141414" stroke-width="0.4"/>
<line x1="67.031" y1="57.324" x2="60.286" y2="58.009" stroke="#141414" stroke-width="0.4"/>
<line x1="38.943" y1="62.732" x2="47.031" y2="60.177" stroke="#141414" stroke-width="0.4"/>
<line x1="47.031" y1="60.177" x2="47.826" y2="58.257" stroke="#141414" stroke-width="0.4"/>
<line x1="47.826" y1="58.257" x2="43.914" y2="50.732" stroke="#141414" stroke-width="0.4"/>
<line x1="60.286" y1="58.009" x2="65.54" y2="53.724" stroke="#141414" stroke-width="0.4"/>
<line x1="65.54" y1="53.724" x2="62.061" y2="45.324" stroke="#141414" stroke-width="0.4"/>
<line x1="62.061" y1="45.324" x2="55.316" y2="46.009" stroke="#141414" stroke-width="0.4"/>
<line x1="55.316" y1="46.009" x2="60.57" y2="41.725" stroke="#141414" stroke-width="0.4"/>
<line x1="60.57" y1="41.725" x2="57.091" y2="33.325" stroke="#141414" stroke-width="0.4"/>
<line x1="57.091" y1="33.325" x2="50.345" y2="34.01" stroke="#141414" stroke-width="0.4"/>
<line x1="38.943" y1="38.733" x2="36.389" y2="30.646" stroke="#141414" stroke-width="0.4"/>
<line x1="36.389" y1="30.646" x2="34.469" y2="29.851" stroke="#141414" stroke-width="0.4"/>
<line x1="34.469" y1="29.851" x2="26.944" y2="33.763" stroke="#141414" stroke-width="0.4"/>
<line x1="50.345" y1="34.01" x2="55.599" y2="29.725" stroke="#141414" stroke-width="0.4"/>
<line x1="55.599" y1="29.725" x2="52.12" y2="21.326" stroke="#141414" stroke-width="0.4"/>
<line x1="52.12" y1="21.326" x2="45.375" y2="22.011" stroke="#141414" stroke-width="0.4"/>
<line x1="26.944" y1="33.763" x2="22.659" y2="28.509" stroke="#141414" stroke-width="0.4"/>
<line x1="22.659" y1="28.509" x2="14.259" y2="31.988" stroke="#141414" stroke-width="0.4"/>
<line x1="14.259" y1="31.988" x2="14.945" y2="38.733" stroke="#141414" stroke-width="0.4"/>
<line x1="45.375" y1="22.011" x2="50.629" y2="17.726" stroke="#141414" stroke-width="0.4"/>
<line x1="50.629" y1="17.726" x2="47.15" y2="9.326" stroke="#141414" stroke-width="0.4"/>
<line x1="47.15" y1="9.326" x2="40.405" y2="10.012" stroke="#141414" stroke-width="0.4"/>
<line x1="29.003" y1="14.734" x2="28.352" y2="8.325" stroke="#141414" stroke-width="0.4"/>
<line x1="28.352" y1="8.325" x2="36.333" y2="5.019" stroke="#141414" stroke-width="0.4"/>
<line x1="36.333" y1="5.019" x2="40.405" y2="10.012" stroke="#141414" stroke-width="0.4"/>
<circle cx="9.46" cy="57.975" r="2.54" fill="#ffe082" stroke="#464646" stroke-width="0.2"/>
<text x="9.46" y="59.18" font-size="3.44" text-anchor="middle" fill="#141414">16</text>
<circle cx="9.46" cy="43.49" r="2.54" fill="#ffe082" stroke="#464646" stroke-width="0.2"/>
<text x="9.46" y="44.70" font-size="3.44" text-anchor="middle" fill="#141414">17</text>
<circle cx="80.682" cy="98.764" r="2.54" fill="#ffe082" stroke="#464646" stroke-width="0.2"/>
<text x="80.682" y="99.97" font-size="3.44" text-anchor="middle" fill="#141414">18</text>
<circle cx="19.702" cy="68.217" r="2.54" fill="#ffe082" stroke="#464646" stroke-width="0.2"/>
<text x="19.702" y="69.42" font-size="3.44" text-anchor="middle" fill="#141414">19</text>
<circle cx="70.741" cy="74.765" r="2.54" fill="#ffe082" stroke="#464646" stroke-width="0.2"/>
<text x="70.741" y="75.97" font-size="3.44" text-anchor="middle" fill="#141414">20</text>
<circle cx="34.186" cy="68.217" r="2.54" fill="#ffe082" stroke="#464646" stroke-width="0.2"/>
<text x="34.186" y="69.42" font-size="3.44" text-anchor="middle" fill="#141414">21</text>
<circle cx="65.771" cy="62.766" r="2.54" fill="#ffe082" stroke="#464646" stroke-width="0.2"/>
<text x="65.771" y="63.97" font-size="3.44" text-anchor="middle" fill="#141414">22</text>
<circle cx="44.428" cy="57.975" r="2.54" fill="#ffe082" stroke="#464646" stroke-width="0.2"/>
<text x="44.428" y="59.18" font-size="3.44" text-anchor="middle" fill="#141414">23</text>
<circle cx="60.801" cy="50.766" r="2.54" fill="#ffe082" stroke="#464646" stroke-width="0.2"/>
<text x="60.801" y="51.97" font-size="3.44" text-anchor="middle" fill="#141414">24</text>
<circle cx="55.83" cy="38.767" r="2.54" fill="#ffe082" stroke="#464646" stroke-width="0.2"/>
<text x="55.83" y="39.97" font-size="3.44" text-anchor="middle" fill="#141414">25</text>
<circle cx="34.186" cy="33.248" r="2.54" fill="#ffe082" stroke="#464646" stroke-width="0.2"/>
<text x="34.186" y="34.45" font-size="3.44" text-anchor="middle" fill="#141414">26</text>
<circle cx="50.86" cy="26.768" r="2.54" fill="#ffe082" stroke="#464646" stroke-width="0.2"/>
<text x="50.86" y="27.97" font-size="3.44" text-anchor="middle" fill="#141414">27</text>
<circle cx="19.702" cy="33.248" r="2.54" fill="#ffe082" stroke="#464646" stroke-width="0.2"/>
<text x="19.702" y="34.45" font-size="3.44" text-anchor="middle" fill="#141414">28</text>
<circle cx="45.89" cy="14.769" r="2.54" fill="#ffe082" stroke="#464646" stroke-width="0.2"/>
<text x="45.89" y="15.97" font-size="3.44" text-anchor="middle" fill="#141414">29</text>
<circle cx="33.523" cy="9.522" r="2.54" fill="#ffe082" stroke="#464646" stroke-width="0.2"/>
<text x="33.523" y="10.73" font-size="3.44" text-anchor="middle" fill="#141414">30</text>
<circle cx="54.723" cy="116.81" r="4.6" fill="#eaf1fe" stroke="#2e78e6" stroke-width="0.3"/>
<text x="54.723" y="118.61" font-size="5.2" text-anchor="middle" fill="#14306e" font-weight="bold">4</text>
<polygon points="9.974,159.442 4.72,163.727 8.2,172.127 14.945,171.442" fill="rgb(216,216,216)"/>
<polygon points="9.974,159.442 4.72,155.157 8.2,146.758 14.945,147.443" fill="rgb(216,216,216)"/>
<polygon points="75.197,202.716 83.284,205.271 84.079,207.191 80.167,214.716" fill="rgb(216,216,216)"/>
<polygon points="14.945,171.442 14.259,178.187 22.659,181.666 26.944,176.412" fill="rgb(216,216,216)"/>
<polygon points="70.226,190.717 74.138,183.192 73.343,181.273 65.256,178.718" fill="rgb(216,216,216)"/>
<polygon points="26.944,176.412 31.229,181.666 39.629,178.187 38.943,171.442" fill="rgb(216,216,216)"/>
<polygon points="65.256,178.718 70.51,174.433 67.031,166.033 60.286,166.719" fill="rgb(216,216,216)"/>
<polygon points="38.943,171.442 47.031,168.887 47.826,166.967 43.914,159.442" fill="rgb(216,216,216)"/>
<polygon points="60.286,166.719 65.54,162.433 62.061,154.034 55.316,154.719" fill="rgb(216,216,216)"/>
<polygon points="55.316,154.719 60.57,150.434 57.091,142.035 50.345,142.72" fill="rgb(216,216,216)"/>
<polygon points="38.943,147.443 36.389,139.356 34.469,138.56 26.944,142.473" fill="rgb(216,216,216)"/>
<polygon points="50.345,142.72 55.599,138.435 52.12,130.035 45.375,130.721" fill="rgb(216,216,216)"/>
<polygon points="26.944,142.473 22.659,137.219 14.259,140.698 14.945,147.443" fill="rgb(216,216,216)"/>
<polygon points="45.375,130.721 50.629,126.436 47.15,118.036 40.405,118.721" fill="rgb(216,216,216)"/>
<polygon points="29.003,123.444 28.352,117.035 36.333,113.729 40.405,118.721" fill="rgb(216,216,216)"/>
<line x1="75.197" y1="202.716" x2="63.795" y2="207.439" stroke="#8c8c8c" stroke-width="0.3" stroke-dasharray="1.2,0.8"/>
<line x1="70.226" y1="190.717" x2="75.197" y2="202.716" stroke="#8c8c8c" stroke-width="0.3" stroke-dasharray="1.2,0.8"/>
<line x1="58.824" y1="195.44" x2="70.226" y2="190.717" stroke="#8c8c8c" stroke-width="0.3" stroke-dasharray="1.2,0.8"/>
<line x1="53.854" y1="183.441" x2="65.256" y2="178.718" stroke="#8c8c8c" stroke-width="0.3" stroke-dasharray="1.2,0.8"/>
<line x1="48.884" y1="171.441" x2="60.286" y2="166.719" stroke="#8c8c8c" stroke-width="0.3" stroke-dasharray="1.2,0.8"/>
<line x1="43.914" y1="159.442" x2="55.316" y2="154.719" stroke="#8c8c8c" stroke-width="0.3" stroke-dasharray="1.2,0.8"/>
<line x1="38.943" y1="147.443" x2="43.914" y2="159.442" stroke="#8c8c8c" stroke-width="0.3" stroke-dasharray="1.2,0.8"/>
<line x1="38.943" y1="147.443" x2="50.345" y2="142.72" stroke="#8c8c8c" stroke-width="0.3" stroke-dasharray="1.2,0.8"/>
<line x1="33.973" y1="135.444" x2="45.375" y2="130.721" stroke="#8c8c8c" stroke-width="0.3" stroke-dasharray="1.2,0.8"/>
<line x1="14.945" y1="171.442" x2="9.974" y2="159.442" stroke="#8c8c8c" stroke-width="0.3" stroke-dasharray="1.2,0.8"/>
<line x1="14.945" y1="147.443" x2="9.974" y2="159.442" stroke="#8c8c8c" stroke-width="0.3" stroke-dasharray="1.2,0.8"/>
<line x1="80.167" y1="214.716" x2="75.197" y2="202.716" stroke="#8c8c8c" stroke-width="0.3" stroke-dasharray="1.2,0.8"/>
<line x1="26.944" y1="176.412" x2="14.945" y2="171.442" stroke="#8c8c8c" stroke-width="0.3" stroke-dasharray="1.2,0.8"/>
<line x1="65.256" y1="178.718" x2="70.226" y2="190.717" stroke="#8c8c8c" stroke-width="0.3" stroke-dasharray="1.2,0.8"/>
<line x1="38.943" y1="171.442" x2="26.944" y2="176.412" stroke="#8c8c8c" stroke-width="0.3" stroke-dasharray="1.2,0.8"/>
<line x1="60.286" y1="166.719" x2="65.256" y2="178.718" stroke="#8c8c8c" stroke-width="0.3" stroke-dasharray="1.2,0.8"/>
<line x1="43.914" y1="159.442" x2="38.943" y2="171.442" stroke="#8c8c8c" stroke-width="0.3" stroke-dasharray="1.2,0.8"/>
<line x1="55.316" y1="154.719" x2="60.286" y2="166.719" stroke="#8c8c8c" stroke-width="0.3" stroke-dasharray="1.2,0.8"/>
<line x1="50.345" y1="142.72" x2="55.316" y2="154.719" stroke="#8c8c8c" stroke-width="0.3" stroke-dasharray="1.2,0.8"/>
<line x1="26.944" y1="142.473" x2="38.943" y2="147.443" stroke="#8c8c8c" stroke-width="0.3" stroke-dasharray="1.2,0.8"/>
<line x1="45.375" y1="130.721" x2="50.345" y2="142.72" stroke="#8c8c8c" stroke-width="0.3" stroke-dasharray="1.2,0.8"/>
<line x1="14.945" y1="147.443" x2="26.944" y2="142.473" stroke="#8c8c8c" stroke-width="0.3" stroke-dasharray="1.2,0.8"/>
<line x1="40.405" y1="118.721" x2="45.375" y2="130.721" stroke="#8c8c8c" stroke-width="0.3" stroke-dasharray="1.2,0.8"/>
<line x1="40.405" y1="118.721" x2="29.003" y2="123.444" stroke="#8c8c8c" stroke-width="0.3" stroke-dasharray="1.2,0.8"/>
<line x1="63.795" y1="207.439" x2="58.824" y2="195.44" stroke="#141414" stroke-width="0.4"/>
<line x1="68.765" y1="219.439" x2="63.795" y2="207.439" stroke="#141414" stroke-width="0.4"/>
<line x1="87.196" y1="207.687" x2="75.197" y2="202.716" stroke="#141414" stroke-width="0.4"/>
<line x1="58.824" y1="195.44" x2="53.854" y2="183.441" stroke="#141414" stroke-width="0.4"/>
<line x1="70.226" y1="190.717" x2="75.197" y2="178.718" stroke="#141414" stroke-width="0.4"/>
<line x1="53.854" y1="183.441" x2="48.884" y2="171.441" stroke="#141414" stroke-width="0.4"/>
<line x1="75.197" y1="178.718" x2="87.196" y2="173.748" stroke="#141414" stroke-width="0.4"/>
<line x1="48.884" y1="171.441" x2="43.914" y2="159.442" stroke="#141414" stroke-width="0.4"/>
<line x1="87.196" y1="173.748" x2="99.195" y2="178.718" stroke="#141414" stroke-width="0.4"/>
<line x1="99.195" y1="178.718" x2="104.166" y2="190.717" stroke="#141414" stroke-width="0.4"/>
<line x1="38.943" y1="147.443" x2="33.973" y2="135.444" stroke="#141414" stroke-width="0.4"/>
<line x1="104.166" y1="190.717" x2="99.195" y2="202.716" stroke="#141414" stroke-width="0.4"/>
<line x1="33.973" y1="135.444" x2="29.003" y2="123.444" stroke="#141414" stroke-width="0.4"/>
<line x1="99.195" y1="202.716" x2="87.196" y2="207.687" stroke="#141414" stroke-width="0.4"/>
<line x1="80.167" y1="214.716" x2="68.765" y2="219.439" stroke="#141414" stroke-width="0.4"/>
<line x1="9.974" y1="159.442" x2="4.72" y2="163.727" stroke="#141414" stroke-width="0.4"/>
<line x1="4.72" y1="163.727" x2="8.2" y2="172.127" stroke="#141414" stroke-width="0.4"/>
<line x1="8.2" y1="172.127" x2="14.945" y2="171.442" stroke="#141414" stroke-width="0.4"/>
<line x1="9.974" y1="159.442" x2="4.72" y2="155.157" stroke="#141414" stroke-width="0.4"/>
<line x1="4.72" y1="155.157" x2="8.2" y2="146.758" stroke="#141414" stroke-width="0.4"/>
<line x1="8.2" y1="146.758" x2="14.945" y2="147.443" stroke="#141414" stroke-width="0.4"/>
<line x1="75.197" y1="202.716" x2="83.284" y2="205.271" stroke="#141414" stroke-width="0.4"/>
<line x1="83.284" y1="205.271" x2="84.079" y2="207.191" stroke="#141414" stroke-width="0.4"/>
<line x1="84.079" y1="207.191" x2="80.167" y2="214.716" stroke="#141414" stroke-width="0.4"/>
<line x1="14.945" y1="171.442" x2="14.259" y2="178.187" stroke="#141414" stroke-width="0.4"/>
<line x1="14.259" y1="178.187" x2="22.659" y2="181.666" stroke="#141414" stroke-width="0.4"/>
<line x1="22.659" y1="181.666" x2="26.944" y2="176.412" stroke="#141414" stroke-width="0.4"/>
<line x1="70.226" y1="190.717" x2="74.138" y2="183.192" stroke="#141414" stroke-width="0.4"/>
<line x1="74.138" y1="183.192" x2="73.343" y2="181.273" stroke="#141414" stroke-width="0.4"/>
<line x1="73.343" y1="181.273" x2="65.256" y2="178.718" stroke="#141414" stroke-width="0.4"/>
<line x1="26.944" y1="176.412" x2="31.229" y2="181.666" stroke="#141414" stroke-width="0.4"/>
<line x1="31.229" y1="181.666" x2="39.629" y2="178.187" stroke="#141414" stroke-width="0.4"/>
<line x1="39.629" y1="178.187" x2="38.943" y2="171.442" stroke="#141414" stroke-width="0.4"/>
<line x1="65.256" y1="178.718" x2="70.51" y2="174.433" stroke="#141414" stroke-width="0.4"/>
<line x1="70.51" y1="174.433" x2="67.031" y2="166.033" stroke="#141414" stroke-width="0.4"/>
<line x1="67.031" y1="166.033" x2="60.286" y2="166.719" stroke="#141414" stroke-width="0.4"/>
<line x1="38.943" y1="171.442" x2="47.031" y2="168.887" stroke="#141414" stroke-width="0.4"/>
<line x1="47.031" y1="168.887" x2="47.826" y2="166.967" stroke="#141414" stroke-width="0.4"/>
<line x1="47.826" y1="166.967" x2="43.914" y2="159.442" stroke="#141414" stroke-width="0.4"/>
<line x1="60.286" y1="166.719" x2="65.54" y2="162.433" stroke="#141414" stroke-width="0.4"/>
<line x1="65.54" y1="162.433" x2="62.061" y2="154.034" stroke="#141414" stroke-width="0.4"/>
<line x1="62.061" y1="154.034" x2="55.316" y2="154.719" stroke="#141414" stroke-width="0.4"/>
<line x1="55.316" y1="154.719" x2="60.57" y2="150.434" stroke="#141414" stroke-width="0.4"/>
<line x1="60.57" y1="150.434" x2="57.091" y2="142.035" stroke="#141414" stroke-width="0.4"/>
<line x1="57.091" y1="142.035" x2="50.345" y2="142.72" stroke="#141414" stroke-width="0.4"/>
<line x1="38.943" y1="147.443" x2="36.389" y2="139.356" stroke="#141414" stroke-width="0.4"/>
<line x1="36.389" y1="139.356" x2="34.469" y2="138.56" stroke="#141414" stroke-width="0.4"/>
<line x1="34.469" y1="138.56" x2="26.944" y2="142.473" stroke="#141414" stroke-width="0.4"/>
<line x1="50.345" y1="142.72" x2="55.599" y2="138.435" stroke="#141414" stroke-width="0.4"/>
<line x1="55.599" y1="138.435" x2="52.12" y2="130.035" stroke="#141414" stroke-width="0.4"/>
<line x1="52.12" y1="130.035" x2="45.375" y2="130.721" stroke="#141414" stroke-width="0.4"/>
<line x1="26.944" y1="142.473" x2="22.659" y2="137.219" stroke="#141414" stroke-width="0.4"/>
<line x1="22.659" y1="137.219" x2="14.259" y2="140.698" stroke="#141414" stroke-width="0.4"/>
<line x1="14.259" y1="140.698" x2="14.945" y2="147.443" stroke="#141414" stroke-width="0.4"/>
<line x1="45.375" y1="130.721" x2="50.629" y2="126.436" stroke="#141414" stroke-width="0.4"/>
<line x1="50.629" y1="126.436" x2="47.15" y2="118.036" stroke="#141414" stroke-width="0.4"/>
<line x1="47.15" y1="118.036" x2="40.405" y2="118.721" stroke="#141414" stroke-width="0.4"/>
<line x1="29.003" y1="123.444" x2="28.352" y2="117.035" stroke="#141414" stroke-width="0.4"/>
<line x1="28.352" y1="117.035" x2="36.333" y2="113.729" stroke="#141414" stroke-width="0.4"/>
<line x1="36.333" y1="113.729" x2="40.405" y2="118.721" stroke="#141414" stroke-width="0.4"/>
<circle cx="9.46" cy="166.684" r="2.54" fill="#ffe082" stroke="#464646" stroke-width="0.2"/>
<text x="9.46" y="167.89" font-size="3.44" text-anchor="middle" fill="#141414">31</text>
<circle cx="9.46" cy="152.2" r="2.54" fill="#ffe082" stroke="#464646" stroke-width="0.2"/>
<text x="9.46" y="153.41" font-size="3.44" text-anchor="middle" fill="#141414">32</text>
<circle cx="80.682" cy="207.474" r="2.54" fill="#ffe082" stroke="#464646" stroke-width="0.2"/>
<text x="80.682" y="208.68" font-size="3.44" text-anchor="middle" fill="#141414">33</text>
<circle cx="19.702" cy="176.926" r="2.54" fill="#ffe082" stroke="#464646" stroke-width="0.2"/>
<text x="19.702" y="178.13" font-size="3.44" text-anchor="middle" fill="#141414">34</text>
<circle cx="70.741" cy="183.475" r="2.54" fill="#ffe082" stroke="#464646" stroke-width="0.2"/>
<text x="70.741" y="184.68" font-size="3.44" text-anchor="middle" fill="#141414">35</text>
<circle cx="34.186" cy="176.926" r="2.54" fill="#ffe082" stroke="#464646" stroke-width="0.2"/>
<text x="34.186" y="178.13" font-size="3.44" text-anchor="middle" fill="#141414">36</text>
<circle cx="65.771" cy="171.476" r="2.54" fill="#ffe082" stroke="#464646" stroke-width="0.2"/>
<text x="65.771" y="172.68" font-size="3.44" text-anchor="middle" fill="#141414">37</text>
<circle cx="44.428" cy="166.684" r="2.54" fill="#ffe082" stroke="#464646" stroke-width="0.2"/>
<text x="44.428" y="167.89" font-size="3.44" text-anchor="middle" fill="#141414">38</text>
<circle cx="60.801" cy="159.476" r="2.54" fill="#ffe082" stroke="#464646" stroke-width="0.2"/>
<text x="60.801" y="160.68" font-size="3.44" text-anchor="middle" fill="#141414">39</text>
<circle cx="55.83" cy="147.477" r="2.54" fill="#ffe082" stroke="#464646" stroke-width="0.2"/>
<text x="55.83" y="148.68" font-size="3.44" text-anchor="middle" fill="#141414">40</text>
<circle cx="34.186" cy="141.958" r="2.54" fill="#ffe082" stroke="#464646" stroke-width="0.2"/>
<text x="34.186" y="143.16" font-size="3.44" text-anchor="middle" fill="#141414">41</text>
<circle cx="50.86" cy="135.478" r="2.54" fill="#ffe082" stroke="#464646" stroke-width="0.2"/>
<text x="50.86" y="136.68" font-size="3.44" text-anchor="middle" fill="#141414">42</text>
<circle cx="19.702" cy="141.958" r="2.54" fill="#ffe082" stroke="#464646" stroke-width="0.2"/>
<text x="19.702" y="143.16" font-size="3.44" text-anchor="middle" fill="#141414">43</text>
<circle cx="45.89" cy="123.478" r="2.54" fill="#ffe082" stroke="#464646" stroke-width="0.2"/>
<text x="45.89" y="124.68" font-size="3.44" text-anchor="middle" fill="#141414">44</text>
<circle cx="33.523" cy="118.232" r="2.54" fill="#ffe082" stroke="#464646" stroke-width="0.2"/>
<text x="33.523" y="119.44" font-size="3.44" text-anchor="middle" fill="#141414">45</text>
<circle cx="54.723" cy="107.61" r="4.6" fill="#eaf1fe" stroke="#2e78e6" stroke-width="0.3"/>
<text x="54.723" y="109.41" font-size="5.2" text-anchor="middle" fill="#14306e" font-weight="bold">5</text>
</svg>
