<svg xmlns="http://www.w3.org/2000/svg" xmlns:xlink="http://www.w3.org/1999/xlink" width="210.00mm" height="297.00mm" viewBox="0 0 210.00 297.00">
<rect x="0" y="0" width="210.00" height="297.00" fill="#ffffff" stroke="#cccccc" stroke-width="0.2"/>
<polygon points="13.145,17.489 11.546,26.045 25.875,55.298 33.616,59.279" fill="rgb(216,216,216)"/>
<polygon points="13.145,17.489 26.21,12.289 87.183,12.289 100.249,17.489" fill="rgb(216,216,216)"/>
<polygon points="40.09,117.945 51.576,116.248 91.251,88.452 96.769,78.236" fill="rgb(216,216,216)"/>
<polygon points="33.616,59.279 36.734,60.49 74.879,51.675 86.595,47.035" fill="rgb(216,216,216)"/>
<line x1="96.769" y1="78.237" x2="37.868" y2="71.168" stroke="#8c8c8c" stroke-width="0.3" stroke-dasharray="1.2,0.8"/>
<line x1="100.249" y1="17.489" x2="33.615" y2="59.279" stroke="#8c8c8c" stroke-width="0.3" stroke-dasharray="1.2,0.8"/>
<line x1="119.288" y1="44.866" x2="96.769" y2="78.237" stroke="#8c8c8c" stroke-width="0.3" stroke-dasharray="1.2,0.8"/>
<line x1="100.249" y1="17.489" x2="86.595" y2="47.035" stroke="#8c8c8c" stroke-width="0.3" stroke-dasharray="1.2,0.8"/>
<line x1="119.288" y1="44.866" x2="86.595" y2="47.035" stroke="#8c8c8c" stroke-width="0.3" stroke-dasharray="1.2,0.8"/>
<line x1="33.616" y1="59.279" x2="13.145" y2="17.489" stroke="#8c8c8c" stroke-width="0.3" stroke-dasharray="1.2,0.8"/>
<line x1="100.249" y1="17.489" x2="13.145" y2="17.489" stroke="#8c8c8c" stroke-width="0.3" stroke-dasharray="1.2,0.8"/>
<line x1="96.769" y1="78.236" x2="40.09" y2="117.945" stroke="#8c8c8c" stroke-width="0.3" stroke-dasharray="1.2,0.8"/>
<line x1="86.595" y1="47.035" x2="33.616" y2="59.279" stroke="#8c8c8c" stroke-width="0.3" stroke-dasharray="1.2,0.8"/>
<line x1="40.09" y1="117.945" x2="37.868" y2="71.168" stroke="#141414" stroke-width="0.4"/>
<line x1="37.868" y1="71.168" x2="86.595" y2="47.035" stroke="#141414" stroke-width="0.4"/>
<line x1="132.161" y1="70.409" x2="96.769" y2="78.237" stroke="#141414" stroke-width="0.4"/>
<line x1="100.249" y1="17.489" x2="119.288" y2="44.866" stroke="#141414" stroke-width="0.4"/>
<line x1="119.288" y1="44.866" x2="132.161" y2="70.409" stroke="#141414" stroke-width="0.4"/>
<line x1="13.145" y1="17.489" x2="11.546" y2="26.045" stroke="#141414" stroke-width="0.4"/>
<line x1="11.546" y1="26.045" x2="25.875" y2="55.298" stroke="#141414" stroke-width="0.4"/>
<line x1="25.875" y1="55.298" x2="33.616" y2="59.279" stroke="#141414" stroke-width="0.4"/>
<line x1="13.145" y1="17.489" x2="26.21" y2="12.289" stroke="#141414" stroke-width="0.4"/>
<line x1="26.21" y1="12.289" x2="87.183" y2="12.289" stroke="#141414" stroke-width="0.4"/>
<line x1="87.183" y1="12.289" x2="100.249" y2="17.489" stroke="#141414" stroke-width="0.4"/>
<line x1="40.09" y1="117.945" x2="51.576" y2="116.248" stroke="#141414" stroke-width="0.4"/>
<line x1="51.576" y1="116.248" x2="91.251" y2="88.452" stroke="#141414" stroke-width="0.4"/>
<line x1="91.251" y1="88.452" x2="96.769" y2="78.236" stroke="#141414" stroke-width="0.4"/>
<line x1="33.616" y1="59.279" x2="36.734" y2="60.49" stroke="#141414" stroke-width="0.4"/>
<line x1="36.734" y1="60.49" x2="74.879" y2="51.675" stroke="#141414" stroke-width="0.4"/>
<line x1="74.879" y1="51.675" x2="86.595" y2="47.035" stroke="#141414" stroke-width="0.4"/>
<circle cx="21.045" cy="39.528" r="0.83" fill="#ffe082" stroke="#464646" stroke-width="0.2"/>
<text x="21.045" y="39.81" font-size="0.81" text-anchor="middle" fill="#141414">79</text>
<circle cx="56.697" cy="14.889" r="0.83" fill="#ffe082" stroke="#464646" stroke-width="0.2"/>
<text x="56.697" y="15.17" font-size="0.81" text-anchor="middle" fill="#141414">80</text>
<circle cx="69.922" cy="100.22" r="0.83" fill="#ffe082" stroke="#464646" stroke-width="0.2"/>
<text x="69.922" y="100.50" font-size="0.81" text-anchor="middle" fill="#141414">100</text>
<circle cx="57.956" cy="54.62" r="0.83" fill="#ffe082" stroke="#464646" stroke-width="0.2"/>
<text x="57.956" y="54.90" font-size="0.81" text-anchor="middle" fill="#141414">107</text>
<circle cx="65.308" cy="116.756" r="4.6" fill="#eaf1fe" stroke="#2e78e6" stroke-width="0.3"/>
<text x="65.308" y="118.556" font-size="5.2" text-anchor="middle" fill="#14306e" font-weight="bold">24</text>
<polygon points="93.316,127.999 89.907,122.483 71.898,120.918 67.589,125.763" fill="rgb(216,216,216)"/>
<polygon points="67.589,125.763 61.643,135.498 58.096,182.742 62.521,193.255" fill="rgb(216,216,216)"/>
<polygon points="37.897,175.79 30.251,175.154 9.479,191.332 8.223,198.902" fill="rgb(216,216,216)"/>
<polygon points="95.285,197.175 95.204,204.698 77.471,222.846 69.952,223.1" fill="rgb(216,216,216)"/>
<polygon points="36.365,197.589 28.165,203.177 16.908,203.702 8.223,198.902" fill="rgb(216,216,216)"/>
<polygon points="24.412,223.1 25.054,230.287 43.251,244.907 50.407,243.986" fill="rgb(216,216,216)"/>
<polygon points="69.952,223.1 70.817,229.786 57.136,244.406 50.407,243.986" fill="rgb(216,216,216)"/>
<line x1="93.316" y1="127.999" x2="62.521" y2="193.255" stroke="#8c8c8c" stroke-width="0.3" stroke-dasharray="1.2,0.8"/>
<line x1="37.897" y1="175.79" x2="36.365" y2="197.589" stroke="#8c8c8c" stroke-width="0.3" stroke-dasharray="1.2,0.8"/>
<line x1="62.521" y1="193.255" x2="36.365" y2="197.589" stroke="#8c8c8c" stroke-width="0.3" stroke-dasharray="1.2,0.8"/>
<line x1="69.952" y1="223.1" x2="36.365" y2="197.589" stroke="#8c8c8c" stroke-width="0.3" stroke-dasharray="1.2,0.8"/>
<line x1="62.521" y1="193.255" x2="69.952" y2="223.1" stroke="#8c8c8c" stroke-width="0.3" stroke-dasharray="1.2,0.8"/>
<line x1="24.412" y1="223.1" x2="69.952" y2="223.1" stroke="#8c8c8c" stroke-width="0.3" stroke-dasharray="1.2,0.8"/>
<line x1="95.285" y1="197.175" x2="62.521" y2="193.255" stroke="#8c8c8c" stroke-width="0.3" stroke-dasharray="1.2,0.8"/>
<line x1="67.589" y1="125.763" x2="93.316" y2="127.999" stroke="#8c8c8c" stroke-width="0.3" stroke-dasharray="1.2,0.8"/>
<line x1="62.521" y1="193.255" x2="67.589" y2="125.763" stroke="#8c8c8c" stroke-width="0.3" stroke-dasharray="1.2,0.8"/>
<line x1="8.223" y1="198.902" x2="37.897" y2="175.79" stroke="#8c8c8c" stroke-width="0.3" stroke-dasharray="1.2,0.8"/>
<line x1="69.952" y1="223.1" x2="95.285" y2="197.175" stroke="#8c8c8c" stroke-width="0.3" stroke-dasharray="1.2,0.8"/>
<line x1="8.223" y1="198.902" x2="36.365" y2="197.589" stroke="#8c8c8c" stroke-width="0.3" stroke-dasharray="1.2,0.8"/>
<line x1="50.407" y1="243.986" x2="24.412" y2="223.1" stroke="#8c8c8c" stroke-width="0.3" stroke-dasharray="1.2,0.8"/>
<line x1="50.407" y1="243.986" x2="69.952" y2="223.1" stroke="#8c8c8c" stroke-width="0.3" stroke-dasharray="1.2,0.8"/>
<line x1="93.316" y1="127.999" x2="95.285" y2="197.175" stroke="#141414" stroke-width="0.4"/>
<line x1="37.897" y1="175.79" x2="62.521" y2="193.255" stroke="#141414" stroke-width="0.4"/>
<line x1="24.412" y1="223.1" x2="36.365" y2="197.589" stroke="#141414" stroke-width="0.4"/>
<line x1="93.316" y1="127.999" x2="89.907" y2="122.483" stroke="#141414" stroke-width="0.4"/>
<line x1="89.907" y1="122.483" x2="71.898" y2="120.918" stroke="#141414" stroke-width="0.4"/>
<line x1="71.898" y1="120.918" x2="67.589" y2="125.763" stroke="#141414" stroke-width="0.4"/>
<line x1="67.589" y1="125.763" x2="61.643" y2="135.498" stroke="#141414" stroke-width="0.4"/>
<line x1="61.643" y1="135.498" x2="58.096" y2="182.742" stroke="#141414" stroke-width="0.4"/>
<line x1="58.096" y1="182.742" x2="62.521" y2="193.255" stroke="#141414" stroke-width="0.4"/>
<line x1="37.897" y1="175.79" x2="30.251" y2="175.154" stroke="#141414" stroke-width="0.4"/>
<line x1="30.251" y1="175.154" x2="9.479" y2="191.332" stroke="#141414" stroke-width="0.4"/>
<line x1="9.479" y1="191.332" x2="8.223" y2="198.902" stroke="#141414" stroke-width="0.4"/>
<line x1="95.285" y1="197.175" x2="95.204" y2="204.698" stroke="#141414" stroke-width="0.4"/>
<line x1="95.204" y1="204.698" x2="77.471" y2="222.846" stroke="#141414" stroke-width="0.4"/>
<line x1="77.471" y1="222.846" x2="69.952" y2="223.1" stroke="#141414" stroke-width="0.4"/>
<line x1="36.365" y1="197.589" x2="28.165" y2="203.177" stroke="#141414" stroke-width="0.4"/>
<line x1="28.165" y1="203.177" x2="16.908" y2="203.702" stroke="#141414" stroke-width="0.4"/>
<line x1="16.908" y1="203.702" x2="8.223" y2="198.902" stroke="#141414" stroke-width="0.4"/>
<line x1="24.412" y1="223.1" x2="25.054" y2="230.287" stroke="#141414" stroke-width="0.4"/>
<line x1="25.054" y1="230.287" x2="43.251" y2="244.907" stroke="#141414" stroke-width="0.4"/>
<line x1="43.251" y1="244.907" x2="50.407" y2="243.986" stroke="#141414" stroke-width="0.4"/>
<line x1="69.952" y1="223.1" x2="70.817" y2="229.786" stroke="#141414" stroke-width="0.4"/>
<line x1="70.817" y1="229.786" x2="57.136" y2="244.406" stroke="#141414" stroke-width="0.4"/>
<line x1="57.136" y1="244.406" x2="50.407" y2="243.986" stroke="#141414" stroke-width="0.4"/>
<circle cx="80.677" cy="124.291" r="0.83" fill="#ffe082" stroke="#464646" stroke-width="0.2"/>
<text x="80.677" y="124.58" font-size="0.81" text-anchor="middle" fill="#141414">98</text>
<circle cx="62.462" cy="159.314" r="0.83" fill="#ffe082" stroke="#464646" stroke-width="0.2"/>
<text x="62.462" y="159.60" font-size="0.81" text-anchor="middle" fill="#141414">101</text>
<circle cx="21.462" cy="185.295" r="0.83" fill="#ffe082" stroke="#464646" stroke-width="0.2"/>
<text x="21.462" y="185.58" font-size="0.81" text-anchor="middle" fill="#141414">109</text>
<circle cx="84.478" cy="211.955" r="0.83" fill="#ffe082" stroke="#464646" stroke-width="0.2"/>
<text x="84.478" y="212.24" font-size="0.81" text-anchor="middle" fill="#141414">110</text>
<circle cx="22.415" cy="200.842" r="0.83" fill="#ffe082" stroke="#464646" stroke-width="0.2"/>
<text x="22.415" y="201.13" font-size="0.81" text-anchor="middle" fill="#141414">111</text>
<circle cx="35.781" cy="235.57" r="0.83" fill="#ffe082" stroke="#464646" stroke-width="0.2"/>
<text x="35.781" y="235.85" font-size="0.81" text-anchor="middle" fill="#141414">112</text>
<circle cx="62.078" cy="235.32" r="0.83" fill="#ffe082" stroke="#464646" stroke-width="0.2"/>
<text x="62.078" y="235.60" font-size="0.81" text-anchor="middle" fill="#141414">113</text>
<circle cx="48.531" cy="107.556" r="4.6" fill="#eaf1fe" stroke="#2e78e6" stroke-width="0.3"/>
<text x="48.531" y="109.356" font-size="5.2" text-anchor="middle" fill="#14306e" font-weight="bold">25</text>
<polygon points="178.19,170.277 176.529,175.743 165.587,177.193 162.56,172.349" fill="rgb(216,216,216)"/>
<polygon points="152.266,198.635 144.502,199.084 123.434,182.228 122.167,174.555" fill="rgb(216,216,216)"/>
<polygon points="203.121,142.956 195.662,135.432 154.224,123.665 143.924,126.145" fill="rgb(216,216,216)"/>
<polygon points="106.734,126.145 102.216,130.145 104.95,144.166 110.64,146.176" fill="rgb(216,216,216)"/>
<polygon points="106.734,126.145 112.313,120.945 138.345,120.945 143.924,126.145" fill="rgb(216,216,216)"/>
<line x1="143.924" y1="126.145" x2="178.19" y2="170.277" stroke="#8c8c8c" stroke-width="0.3" stroke-dasharray="1.2,0.8"/>
<line x1="122.167" y1="174.555" x2="162.56" y2="172.349" stroke="#8c8c8c" stroke-width="0.3" stroke-dasharray="1.2,0.8"/>
<line x1="162.56" y1="172.349" x2="143.924" y2="126.145" stroke="#8c8c8c" stroke-width="0.3" stroke-dasharray="1.2,0.8"/>
<line x1="110.64" y1="146.176" x2="130.49" y2="153.616" stroke="#8c8c8c" stroke-width="0.3" stroke-dasharray="1.2,0.8"/>
<line x1="143.924" y1="126.145" x2="130.49" y2="153.616" stroke="#8c8c8c" stroke-width="0.3" stroke-dasharray="1.2,0.8"/>
<line x1="143.924" y1="126.145" x2="110.64" y2="146.176" stroke="#8c8c8c" stroke-width="0.3" stroke-dasharray="1.2,0.8"/>
<line x1="130.49" y1="153.616" x2="162.56" y2="172.349" stroke="#8c8c8c" stroke-width="0.3" stroke-dasharray="1.2,0.8"/>
<line x1="162.56" y1="172.349" x2="178.19" y2="170.277" stroke="#8c8c8c" stroke-width="0.3" stroke-dasharray="1.2,0.8"/>
<line x1="122.167" y1="174.555" x2="152.266" y2="198.635" stroke="#8c8c8c" stroke-width="0.3" stroke-dasharray="1.2,0.8"/>
<line x1="143.924" y1="126.145" x2="203.121" y2="142.956" stroke="#8c8c8c" stroke-width="0.3" stroke-dasharray="1.2,0.8"/>
<line x1="110.64" y1="146.176" x2="106.734" y2="126.145" stroke="#8c8c8c" stroke-width="0.3" stroke-dasharray="1.2,0.8"/>
<line x1="143.924" y1="126.145" x2="106.734" y2="126.145" stroke="#8c8c8c" stroke-width="0.3" stroke-dasharray="1.2,0.8"/>
<line x1="203.121" y1="142.956" x2="178.19" y2="170.277" stroke="#141414" stroke-width="0.4"/>
<line x1="162.56" y1="172.349" x2="152.266" y2="198.635" stroke="#141414" stroke-width="0.4"/>
<line x1="122.167" y1="174.555" x2="130.49" y2="153.616" stroke="#141414" stroke-width="0.4"/>
<line x1="130.49" y1="153.616" x2="110.163" y2="190.666" stroke="#141414" stroke-width="0.4"/>
<line x1="110.163" y1="190.666" x2="110.64" y2="146.176" stroke="#141414" stroke-width="0.4"/>
<line x1="178.19" y1="170.277" x2="176.529" y2="175.743" stroke="#141414" stroke-width="0.4"/>
<line x1="176.529" y1="175.743" x2="165.587" y2="177.193" stroke="#141414" stroke-width="0.4"/>
<line x1="165.587" y1="177.193" x2="162.56" y2="172.349" stroke="#141414" stroke-width="0.4"/>
<line x1="152.266" y1="198.635" x2="144.502" y2="199.084" stroke="#141414" stroke-width="0.4"/>
<line x1="144.502" y1="199.084" x2="123.434" y2="182.228" stroke="#141414" stroke-width="0.4"/>
<line x1="123.434" y1="182.228" x2="122.167" y2="174.555" stroke="#141414" stroke-width="0.4"/>
<line x1="203.121" y1="142.956" x2="195.662" y2="135.432" stroke="#141414" stroke-width="0.4"/>
<line x1="195.662" y1="135.432" x2="154.224" y2="123.665" stroke="#141414" stroke-width="0.4"/>
<line x1="154.224" y1="123.665" x2="143.924" y2="126.145" stroke="#141414" stroke-width="0.4"/>
<line x1="106.734" y1="126.145" x2="102.216" y2="130.145" stroke="#141414" stroke-width="0.4"/>
<line x1="102.216" y1="130.145" x2="104.95" y2="144.166" stroke="#141414" stroke-width="0.4"/>
<line x1="104.95" y1="144.166" x2="110.64" y2="146.176" stroke="#141414" stroke-width="0.4"/>
<line x1="106.734" y1="126.145" x2="112.313" y2="120.945" stroke="#141414" stroke-width="0.4"/>
<line x1="112.313" y1="120.945" x2="138.345" y2="120.945" stroke="#141414" stroke-width="0.4"/>
<line x1="138.345" y1="120.945" x2="143.924" y2="126.145" stroke="#141414" stroke-width="0.4"/>
<circle cx="170.717" cy="173.89" r="0.83" fill="#ffe082" stroke="#464646" stroke-width="0.2"/>
<text x="170.717" y="174.17" font-size="0.81" text-anchor="middle" fill="#141414">72</text>
<circle cx="135.592" cy="188.626" r="0.83" fill="#ffe082" stroke="#464646" stroke-width="0.2"/>
<text x="135.592" y="188.91" font-size="0.81" text-anchor="middle" fill="#141414">78</text>
<circle cx="174.233" cy="132.049" r="0.83" fill="#ffe082" stroke="#464646" stroke-width="0.2"/>
<text x="174.233" y="132.33" font-size="0.81" text-anchor="middle" fill="#141414">90</text>
<circle cx="106.135" cy="136.658" r="0.83" fill="#ffe082" stroke="#464646" stroke-width="0.2"/>
<text x="106.135" y="136.94" font-size="0.81" text-anchor="middle" fill="#141414">103</text>
<circle cx="125.329" cy="123.545" r="0.83" fill="#ffe082" stroke="#464646" stroke-width="0.2"/>
<text x="125.329" y="123.83" font-size="0.81" text-anchor="middle" fill="#141414">104</text>
<circle cx="145.515" cy="107.556" r="4.6" fill="#eaf1fe" stroke="#2e78e6" stroke-width="0.3"/>
<text x="145.515" y="109.356" font-size="5.2" text-anchor="middle" fill="#14306e" font-weight="bold">26</text>
<line x1="43.779" y1="270.057" x2="5.0" y2="240.645" stroke="#141414" stroke-width="0.4"/>
<line x1="5.0" y1="240.645" x2="66.538" y2="240.645" stroke="#141414" stroke-width="0.4"/>
<line x1="66.538" y1="240.645" x2="43.779" y2="270.057" stroke="#141414" stroke-width="0.4"/>
<circle cx="35.769" cy="234.545" r="4.6" fill="#eaf1fe" stroke="#2e78e6" stroke-width="0.3"/>
<text x="35.769" y="236.345" font-size="5.2" text-anchor="middle" fill="#14306e" font-weight="bold">27</text>
<g pointer-events="none"><text x="105.0" y="83.2" text-anchor="middle" font-family="sans-serif" font-size="12.4" fill="#9aa0a6" fill-opacity="0.3" transform="rotate(-28 105.0 83.2)">papercraft.kr</text><text x="105.0" y="148.5" text-anchor="middle" font-family="sans-serif" font-size="12.4" fill="#9aa0a6" fill-opacity="0.3" transform="rotate(-28 105.0 148.5)">papercraft.kr</text><text x="105.0" y="213.8" text-anchor="middle" font-family="sans-serif" font-size="12.4" fill="#9aa0a6" fill-opacity="0.3" transform="rotate(-28 105.0 213.8)">papercraft.kr</text></g></svg>
