<svg xmlns="http://www.w3.org/2000/svg" xmlns:xlink="http://www.w3.org/1999/xlink" width="210.00mm" height="297.00mm" viewBox="0 0 210.00 297.00">
<rect x="0" y="0" width="210.00" height="297.00" fill="#ffffff" stroke="#cccccc" stroke-width="0.2"/>
<polygon points="156.048,124.95 149.595,108.597 96.382,55.384 80.029,48.931" fill="rgb(216,216,216)"/>
<polygon points="156.048,132.012 148.874,149.085 132.709,165.25 115.635,172.424" fill="rgb(216,216,216)"/>
<polygon points="162.163,128.481 174.393,124.511 178.362,125.574 186.969,135.127" fill="rgb(216,216,216)"/>
<polygon points="190.5,115.718 193.088,98.33 173.61,25.64 162.675,11.875" fill="rgb(216,216,216)"/>
<polygon points="190.5,141.243 195.043,151.335 184.688,189.979 175.708,196.448" fill="rgb(216,216,216)"/>
<polygon points="108.573,172.424 92.221,165.971 39.008,112.758 32.555,96.406" fill="rgb(216,216,216)"/>
<polygon points="144.786,193.332 146.696,201.091 164.06,205.743 169.592,199.979" fill="rgb(216,216,216)"/>
<polygon points="80.029,48.931 82.557,46.248 80.086,41.968 76.498,42.816" fill="rgb(216,216,216)"/>
<polygon points="72.967,48.931 55.894,56.105 39.729,72.27 32.555,89.344" fill="rgb(216,216,216)"/>
<polygon points="131.754,14.991 133.663,7.232 151.027,2.579 156.56,8.344" fill="rgb(216,216,216)"/>
<polygon points="63.736,14.479 52.578,11.02 11.463,25.656 5.0,35.387" fill="rgb(216,216,216)"/>
<line x1="156.048" y1="132.012" x2="156.048" y2="124.95" stroke="#8c8c8c" stroke-width="0.3" stroke-dasharray="1.2,0.8"/>
<line x1="156.048" y1="124.95" x2="162.163" y2="128.481" stroke="#8c8c8c" stroke-width="0.3" stroke-dasharray="1.2,0.8"/>
<line x1="162.163" y1="128.481" x2="156.048" y2="132.012" stroke="#8c8c8c" stroke-width="0.3" stroke-dasharray="1.2,0.8"/>
<line x1="80.029" y1="48.931" x2="72.967" y2="48.931" stroke="#8c8c8c" stroke-width="0.3" stroke-dasharray="1.2,0.8"/>
<line x1="72.967" y1="48.931" x2="76.498" y2="42.816" stroke="#8c8c8c" stroke-width="0.3" stroke-dasharray="1.2,0.8"/>
<line x1="80.029" y1="48.931" x2="156.048" y2="124.95" stroke="#8c8c8c" stroke-width="0.3" stroke-dasharray="1.2,0.8"/>
<line x1="115.635" y1="172.424" x2="156.048" y2="132.012" stroke="#8c8c8c" stroke-width="0.3" stroke-dasharray="1.2,0.8"/>
<line x1="186.969" y1="135.127" x2="162.163" y2="128.481" stroke="#8c8c8c" stroke-width="0.3" stroke-dasharray="1.2,0.8"/>
<line x1="162.675" y1="11.875" x2="190.5" y2="115.718" stroke="#8c8c8c" stroke-width="0.3" stroke-dasharray="1.2,0.8"/>
<line x1="175.708" y1="196.448" x2="190.5" y2="141.243" stroke="#8c8c8c" stroke-width="0.3" stroke-dasharray="1.2,0.8"/>
<line x1="32.555" y1="96.406" x2="108.573" y2="172.424" stroke="#8c8c8c" stroke-width="0.3" stroke-dasharray="1.2,0.8"/>
<line x1="169.592" y1="199.979" x2="144.786" y2="193.332" stroke="#8c8c8c" stroke-width="0.3" stroke-dasharray="1.2,0.8"/>
<line x1="76.498" y1="42.816" x2="80.029" y2="48.931" stroke="#8c8c8c" stroke-width="0.3" stroke-dasharray="1.2,0.8"/>
<line x1="32.555" y1="89.344" x2="72.967" y2="48.931" stroke="#8c8c8c" stroke-width="0.3" stroke-dasharray="1.2,0.8"/>
<line x1="156.56" y1="8.344" x2="131.754" y2="14.991" stroke="#8c8c8c" stroke-width="0.3" stroke-dasharray="1.2,0.8"/>
<line x1="5.0" y1="35.387" x2="63.736" y2="14.479" stroke="#8c8c8c" stroke-width="0.3" stroke-dasharray="1.2,0.8"/>
<line x1="156.048" y1="124.95" x2="128.223" y2="21.106" stroke="#141414" stroke-width="0.4"/>
<line x1="141.256" y1="187.216" x2="156.048" y2="132.012" stroke="#141414" stroke-width="0.4"/>
<line x1="186.969" y1="121.834" x2="162.163" y2="128.481" stroke="#141414" stroke-width="0.4"/>
<line x1="190.5" y1="115.718" x2="186.969" y2="121.834" stroke="#141414" stroke-width="0.4"/>
<line x1="186.969" y1="135.127" x2="190.5" y2="141.243" stroke="#141414" stroke-width="0.4"/>
<line x1="115.635" y1="172.424" x2="108.573" y2="172.424" stroke="#141414" stroke-width="0.4"/>
<line x1="144.786" y1="193.332" x2="141.256" y2="187.216" stroke="#141414" stroke-width="0.4"/>
<line x1="175.708" y1="196.448" x2="169.592" y2="199.979" stroke="#141414" stroke-width="0.4"/>
<line x1="128.223" y1="21.106" x2="131.754" y2="14.991" stroke="#141414" stroke-width="0.4"/>
<line x1="72.967" y1="48.931" x2="17.762" y2="63.723" stroke="#141414" stroke-width="0.4"/>
<line x1="63.736" y1="14.479" x2="76.498" y2="42.816" stroke="#141414" stroke-width="0.4"/>
<line x1="156.56" y1="8.344" x2="162.675" y2="11.875" stroke="#141414" stroke-width="0.4"/>
<line x1="32.555" y1="96.406" x2="32.555" y2="89.344" stroke="#141414" stroke-width="0.4"/>
<line x1="17.762" y1="63.723" x2="11.647" y2="60.192" stroke="#141414" stroke-width="0.4"/>
<line x1="11.647" y1="60.192" x2="5.0" y2="35.387" stroke="#141414" stroke-width="0.4"/>
<line x1="156.048" y1="124.95" x2="149.595" y2="108.597" stroke="#141414" stroke-width="0.4"/>
<line x1="149.595" y1="108.597" x2="96.382" y2="55.384" stroke="#141414" stroke-width="0.4"/>
<line x1="96.382" y1="55.384" x2="80.029" y2="48.931" stroke="#141414" stroke-width="0.4"/>
<line x1="156.048" y1="132.012" x2="148.874" y2="149.085" stroke="#141414" stroke-width="0.4"/>
<line x1="148.874" y1="149.085" x2="132.709" y2="165.25" stroke="#141414" stroke-width="0.4"/>
<line x1="132.709" y1="165.25" x2="115.635" y2="172.424" stroke="#141414" stroke-width="0.4"/>
<line x1="162.163" y1="128.481" x2="174.393" y2="124.511" stroke="#141414" stroke-width="0.4"/>
<line x1="174.393" y1="124.511" x2="178.362" y2="125.574" stroke="#141414" stroke-width="0.4"/>
<line x1="178.362" y1="125.574" x2="186.969" y2="135.127" stroke="#141414" stroke-width="0.4"/>
<line x1="190.5" y1="115.718" x2="193.088" y2="98.33" stroke="#141414" stroke-width="0.4"/>
<line x1="193.088" y1="98.33" x2="173.61" y2="25.64" stroke="#141414" stroke-width="0.4"/>
<line x1="173.61" y1="25.64" x2="162.675" y2="11.875" stroke="#141414" stroke-width="0.4"/>
<line x1="190.5" y1="141.243" x2="195.043" y2="151.335" stroke="#141414" stroke-width="0.4"/>
<line x1="195.043" y1="151.335" x2="184.688" y2="189.979" stroke="#141414" stroke-width="0.4"/>
<line x1="184.688" y1="189.979" x2="175.708" y2="196.448" stroke="#141414" stroke-width="0.4"/>
<line x1="108.573" y1="172.424" x2="92.221" y2="165.971" stroke="#141414" stroke-width="0.4"/>
<line x1="92.221" y1="165.971" x2="39.008" y2="112.758" stroke="#141414" stroke-width="0.4"/>
<line x1="39.008" y1="112.758" x2="32.555" y2="96.406" stroke="#141414" stroke-width="0.4"/>
<line x1="144.786" y1="193.332" x2="146.696" y2="201.091" stroke="#141414" stroke-width="0.4"/>
<line x1="146.696" y1="201.091" x2="164.06" y2="205.743" stroke="#141414" stroke-width="0.4"/>
<line x1="164.06" y1="205.743" x2="169.592" y2="199.979" stroke="#141414" stroke-width="0.4"/>
<line x1="80.029" y1="48.931" x2="82.557" y2="46.248" stroke="#141414" stroke-width="0.4"/>
<line x1="82.557" y1="46.248" x2="80.086" y2="41.968" stroke="#141414" stroke-width="0.4"/>
<line x1="80.086" y1="41.968" x2="76.498" y2="42.816" stroke="#141414" stroke-width="0.4"/>
<line x1="72.967" y1="48.931" x2="55.894" y2="56.105" stroke="#141414" stroke-width="0.4"/>
<line x1="55.894" y1="56.105" x2="39.729" y2="72.27" stroke="#141414" stroke-width="0.4"/>
<line x1="39.729" y1="72.27" x2="32.555" y2="89.344" stroke="#141414" stroke-width="0.4"/>
<line x1="131.754" y1="14.991" x2="133.663" y2="7.232" stroke="#141414" stroke-width="0.4"/>
<line x1="133.663" y1="7.232" x2="151.027" y2="2.579" stroke="#141414" stroke-width="0.4"/>
<line x1="151.027" y1="2.579" x2="156.56" y2="8.344" stroke="#141414" stroke-width="0.4"/>
<line x1="63.736" y1="14.479" x2="52.578" y2="11.02" stroke="#141414" stroke-width="0.4"/>
<line x1="52.578" y1="11.02" x2="11.463" y2="25.656" stroke="#141414" stroke-width="0.4"/>
<line x1="11.463" y1="25.656" x2="5.0" y2="35.387" stroke="#141414" stroke-width="0.4"/>
<circle cx="120.513" cy="84.466" r="1.55" fill="#ffe082" stroke="#464646" stroke-width="0.2"/>
<text x="120.513" y="85.20" font-size="2.11" text-anchor="middle" fill="#141414">1</text>
<circle cx="138.316" cy="154.693" r="1.55" fill="#ffe082" stroke="#464646" stroke-width="0.2"/>
<text x="138.316" y="155.43" font-size="2.11" text-anchor="middle" fill="#141414">2</text>
<circle cx="175.472" cy="128.423" r="1.55" fill="#ffe082" stroke="#464646" stroke-width="0.2"/>
<text x="175.472" y="129.16" font-size="2.11" text-anchor="middle" fill="#141414">3</text>
<circle cx="179.968" cy="62.891" r="1.55" fill="#ffe082" stroke="#464646" stroke-width="0.2"/>
<text x="179.968" y="63.63" font-size="2.11" text-anchor="middle" fill="#141414">4</text>
<circle cx="186.485" cy="169.751" r="1.55" fill="#ffe082" stroke="#464646" stroke-width="0.2"/>
<text x="186.485" y="170.49" font-size="2.11" text-anchor="middle" fill="#141414">5</text>
<circle cx="68.089" cy="136.89" r="1.55" fill="#ffe082" stroke="#464646" stroke-width="0.2"/>
<text x="68.089" y="137.63" font-size="2.11" text-anchor="middle" fill="#141414">6</text>
<circle cx="156.283" cy="200.036" r="1.55" fill="#ffe082" stroke="#464646" stroke-width="0.2"/>
<text x="156.283" y="200.77" font-size="2.11" text-anchor="middle" fill="#141414">7</text>
<circle cx="79.792" cy="44.991" r="1.55" fill="#ffe082" stroke="#464646" stroke-width="0.2"/>
<text x="79.792" y="45.73" font-size="2.11" text-anchor="middle" fill="#141414">8</text>
<circle cx="50.286" cy="66.663" r="1.55" fill="#ffe082" stroke="#464646" stroke-width="0.2"/>
<text x="50.286" y="67.40" font-size="2.11" text-anchor="middle" fill="#141414">9</text>
<circle cx="143.251" cy="8.287" r="1.55" fill="#ffe082" stroke="#464646" stroke-width="0.2"/>
<text x="143.251" y="9.02" font-size="2.11" text-anchor="middle" fill="#141414">10</text>
<circle cx="33.194" cy="21.635" r="1.55" fill="#ffe082" stroke="#464646" stroke-width="0.2"/>
<text x="33.194" y="22.37" font-size="2.11" text-anchor="middle" fill="#141414">11</text>
<circle cx="100.021" cy="214.264" r="4.6" fill="#eaf1fe" stroke="#2e78e6" stroke-width="0.3"/>
<text x="100.021" y="216.06400000000002" font-size="5.2" text-anchor="middle" fill="#14306e" font-weight="bold">1</text>
<g pointer-events="none"><text x="105.0" y="89.1" text-anchor="middle" font-family="sans-serif" font-size="21.2" fill="#9aa0a6" fill-opacity="0.33" transform="rotate(-28 105.0 89.1)">papercraft.kr 미리보기</text><text x="105.0" y="163.4" text-anchor="middle" font-family="sans-serif" font-size="21.2" fill="#9aa0a6" fill-opacity="0.33" transform="rotate(-28 105.0 163.4)">papercraft.kr 미리보기</text><text x="105.0" y="237.6" text-anchor="middle" font-family="sans-serif" font-size="21.2" fill="#9aa0a6" fill-opacity="0.33" transform="rotate(-28 105.0 237.6)">papercraft.kr 미리보기</text></g></svg>
