<svg xmlns="http://www.w3.org/2000/svg" xmlns:xlink="http://www.w3.org/1999/xlink" width="210.00mm" height="297.00mm" viewBox="0 0 210.00 297.00">
<rect x="0" y="0" width="210.00" height="297.00" fill="#ffffff" stroke="#cccccc" stroke-width="0.2"/>
<polygon points="36.693,87.515 50.961,99.591 54.746,105.288 60.351,123.12" fill="rgb(216,216,216)"/>
<polygon points="9.023,117.716 7.011,123.255 15.665,132.88 21.387,131.465" fill="rgb(216,216,216)"/>
<polygon points="45.16,12.904 43.139,7.704 33.707,7.704 31.686,12.904" fill="rgb(216,216,216)"/>
<polygon points="45.16,12.904 54.681,27.689 75.74,103.203 75.244,120.781" fill="rgb(216,216,216)"/>
<polygon points="75.244,120.781 80.808,121.157 83.606,130.133 79.241,133.603" fill="rgb(216,216,216)"/>
<polygon points="79.241,133.603 81.073,139.523 70.994,151.6 64.842,150.856" fill="rgb(216,216,216)"/>
<polygon points="45.851,150.055 48.48,155.37 61.775,155.931 64.842,150.856" fill="rgb(216,216,216)"/>
<line x1="36.693" y1="87.515" x2="30.925" y2="110.319" stroke="#8c8c8c" stroke-width="0.3" stroke-dasharray="1.2,0.8"/>
<line x1="36.693" y1="87.515" x2="49.144" y2="112.438" stroke="#8c8c8c" stroke-width="0.3" stroke-dasharray="1.2,0.8"/>
<line x1="30.925" y1="110.319" x2="11.479" y2="90.064" stroke="#8c8c8c" stroke-width="0.3" stroke-dasharray="1.2,0.8"/>
<line x1="49.144" y1="112.438" x2="60.351" y2="123.12" stroke="#8c8c8c" stroke-width="0.3" stroke-dasharray="1.2,0.8"/>
<line x1="75.244" y1="120.781" x2="31.686" y2="12.904" stroke="#8c8c8c" stroke-width="0.3" stroke-dasharray="1.2,0.8"/>
<line x1="60.351" y1="123.12" x2="43.382" y2="132.732" stroke="#8c8c8c" stroke-width="0.3" stroke-dasharray="1.2,0.8"/>
<line x1="60.351" y1="123.12" x2="64.842" y2="150.856" stroke="#8c8c8c" stroke-width="0.3" stroke-dasharray="1.2,0.8"/>
<line x1="9.023" y1="117.716" x2="30.925" y2="110.319" stroke="#8c8c8c" stroke-width="0.3" stroke-dasharray="1.2,0.8"/>
<line x1="60.351" y1="123.12" x2="75.244" y2="120.781" stroke="#8c8c8c" stroke-width="0.3" stroke-dasharray="1.2,0.8"/>
<line x1="60.351" y1="123.12" x2="79.241" y2="133.603" stroke="#8c8c8c" stroke-width="0.3" stroke-dasharray="1.2,0.8"/>
<line x1="45.851" y1="150.055" x2="60.351" y2="123.12" stroke="#8c8c8c" stroke-width="0.3" stroke-dasharray="1.2,0.8"/>
<line x1="60.351" y1="123.12" x2="36.693" y2="87.515" stroke="#8c8c8c" stroke-width="0.3" stroke-dasharray="1.2,0.8"/>
<line x1="21.387" y1="131.465" x2="9.023" y2="117.716" stroke="#8c8c8c" stroke-width="0.3" stroke-dasharray="1.2,0.8"/>
<line x1="31.686" y1="12.904" x2="45.16" y2="12.904" stroke="#8c8c8c" stroke-width="0.3" stroke-dasharray="1.2,0.8"/>
<line x1="75.244" y1="120.781" x2="45.16" y2="12.904" stroke="#8c8c8c" stroke-width="0.3" stroke-dasharray="1.2,0.8"/>
<line x1="79.241" y1="133.603" x2="75.244" y2="120.781" stroke="#8c8c8c" stroke-width="0.3" stroke-dasharray="1.2,0.8"/>
<line x1="64.842" y1="150.856" x2="79.241" y2="133.603" stroke="#8c8c8c" stroke-width="0.3" stroke-dasharray="1.2,0.8"/>
<line x1="64.842" y1="150.856" x2="45.851" y2="150.055" stroke="#8c8c8c" stroke-width="0.3" stroke-dasharray="1.2,0.8"/>
<line x1="11.479" y1="90.064" x2="36.693" y2="87.515" stroke="#141414" stroke-width="0.4"/>
<line x1="9.023" y1="117.716" x2="11.479" y2="90.064" stroke="#141414" stroke-width="0.4"/>
<line x1="49.144" y1="112.438" x2="30.925" y2="110.319" stroke="#141414" stroke-width="0.4"/>
<line x1="30.925" y1="110.319" x2="21.387" y2="131.465" stroke="#141414" stroke-width="0.4"/>
<line x1="43.382" y1="132.732" x2="49.144" y2="112.438" stroke="#141414" stroke-width="0.4"/>
<line x1="60.351" y1="123.12" x2="31.686" y2="12.904" stroke="#141414" stroke-width="0.4"/>
<line x1="45.851" y1="150.055" x2="43.382" y2="132.732" stroke="#141414" stroke-width="0.4"/>
<line x1="36.693" y1="87.515" x2="50.961" y2="99.591" stroke="#141414" stroke-width="0.4"/>
<line x1="50.961" y1="99.591" x2="54.746" y2="105.288" stroke="#141414" stroke-width="0.4"/>
<line x1="54.746" y1="105.288" x2="60.351" y2="123.12" stroke="#141414" stroke-width="0.4"/>
<line x1="9.023" y1="117.716" x2="7.011" y2="123.255" stroke="#141414" stroke-width="0.4"/>
<line x1="7.011" y1="123.255" x2="15.665" y2="132.88" stroke="#141414" stroke-width="0.4"/>
<line x1="15.665" y1="132.88" x2="21.387" y2="131.465" stroke="#141414" stroke-width="0.4"/>
<line x1="45.16" y1="12.904" x2="43.139" y2="7.704" stroke="#141414" stroke-width="0.4"/>
<line x1="43.139" y1="7.704" x2="33.707" y2="7.704" stroke="#141414" stroke-width="0.4"/>
<line x1="33.707" y1="7.704" x2="31.686" y2="12.904" stroke="#141414" stroke-width="0.4"/>
<line x1="45.16" y1="12.904" x2="54.681" y2="27.689" stroke="#141414" stroke-width="0.4"/>
<line x1="54.681" y1="27.689" x2="75.74" y2="103.203" stroke="#141414" stroke-width="0.4"/>
<line x1="75.74" y1="103.203" x2="75.244" y2="120.781" stroke="#141414" stroke-width="0.4"/>
<line x1="75.244" y1="120.781" x2="80.808" y2="121.157" stroke="#141414" stroke-width="0.4"/>
<line x1="80.808" y1="121.157" x2="83.606" y2="130.133" stroke="#141414" stroke-width="0.4"/>
<line x1="83.606" y1="130.133" x2="79.241" y2="133.603" stroke="#141414" stroke-width="0.4"/>
<line x1="79.241" y1="133.603" x2="81.073" y2="139.523" stroke="#141414" stroke-width="0.4"/>
<line x1="81.073" y1="139.523" x2="70.994" y2="151.6" stroke="#141414" stroke-width="0.4"/>
<line x1="70.994" y1="151.6" x2="64.842" y2="150.856" stroke="#141414" stroke-width="0.4"/>
<line x1="45.851" y1="150.055" x2="48.48" y2="155.37" stroke="#141414" stroke-width="0.4"/>
<line x1="48.48" y1="155.37" x2="61.775" y2="155.931" stroke="#141414" stroke-width="0.4"/>
<line x1="61.775" y1="155.931" x2="64.842" y2="150.856" stroke="#141414" stroke-width="0.4"/>
<circle cx="50.688" cy="103.878" r="0.91" fill="#ffe082" stroke="#464646" stroke-width="0.2"/>
<text x="50.688" y="104.31" font-size="1.24" text-anchor="middle" fill="#141414">8</text>
<circle cx="13.271" cy="126.329" r="0.91" fill="#ffe082" stroke="#464646" stroke-width="0.2"/>
<text x="13.271" y="126.76" font-size="1.24" text-anchor="middle" fill="#141414">20</text>
<circle cx="38.423" cy="10.304" r="0.91" fill="#ffe082" stroke="#464646" stroke-width="0.2"/>
<text x="38.423" y="10.74" font-size="1.24" text-anchor="middle" fill="#141414">21</text>
<circle cx="62.706" cy="66.144" r="0.91" fill="#ffe082" stroke="#464646" stroke-width="0.2"/>
<text x="62.706" y="66.58" font-size="1.24" text-anchor="middle" fill="#141414">22</text>
<circle cx="79.725" cy="126.418" r="0.91" fill="#ffe082" stroke="#464646" stroke-width="0.2"/>
<text x="79.725" y="126.85" font-size="1.24" text-anchor="middle" fill="#141414">38</text>
<circle cx="74.038" cy="143.895" r="0.91" fill="#ffe082" stroke="#464646" stroke-width="0.2"/>
<text x="74.038" y="144.33" font-size="1.24" text-anchor="middle" fill="#141414">45</text>
<circle cx="55.237" cy="153.053" r="0.91" fill="#ffe082" stroke="#464646" stroke-width="0.2"/>
<text x="55.237" y="153.49" font-size="1.24" text-anchor="middle" fill="#141414">49</text>
<circle cx="17.142" cy="106.033" r="4.60" fill="#eaf1fe" stroke="#2e78e6" stroke-width="0.3"/>
<text x="17.142" y="107.83" font-size="5.20" text-anchor="middle" fill="#14306e" font-weight="bold">3</text>
<polygon points="112.207,76.562 118.386,81.309 145.384,79.262 150.776,73.638" fill="rgb(216,216,216)"/>
<polygon points="100.049,53.404 108.377,48.204 119.482,48.204 127.81,53.404" fill="rgb(216,216,216)"/>
<polygon points="144.268,35.178 150.352,33.887 156.13,19.052 152.522,13.985" fill="rgb(216,216,216)"/>
<polygon points="130.364,26.189 130.296,20.238 118.414,13.794 113.389,16.984" fill="rgb(216,216,216)"/>
<polygon points="101.379,36.508 101.971,42.554 90.222,51.32 84.595,49.03" fill="rgb(216,216,216)"/>
<polygon points="150.776,73.638 157.924,70.435 169.164,45.511 166.832,38.032" fill="rgb(216,216,216)"/>
<polygon points="96.339,11.779 100.415,7.587 112.35,11.23 113.389,16.984" fill="rgb(216,216,216)"/>
<polygon points="130.364,26.189 130.296,20.238 118.414,13.794 113.389,16.984" fill="#99d9fa"/>
<line x1="127.81" y1="53.404" x2="112.207" y2="76.562" stroke="#8c8c8c" stroke-width="0.3" stroke-dasharray="1.2,0.8"/>
<line x1="127.81" y1="53.404" x2="144.268" y2="35.178" stroke="#8c8c8c" stroke-width="0.3" stroke-dasharray="1.2,0.8"/>
<line x1="144.268" y1="35.178" x2="130.364" y2="26.189" stroke="#8c8c8c" stroke-width="0.3" stroke-dasharray="1.2,0.8"/>
<line x1="144.268" y1="35.178" x2="150.776" y2="73.638" stroke="#8c8c8c" stroke-width="0.3" stroke-dasharray="1.2,0.8"/>
<line x1="127.81" y1="53.404" x2="130.364" y2="26.189" stroke="#8c8c8c" stroke-width="0.3" stroke-dasharray="1.2,0.8"/>
<line x1="130.364" y1="26.189" x2="115.397" y2="39.699" stroke="#8c8c8c" stroke-width="0.3" stroke-dasharray="1.2,0.8"/>
<line x1="130.364" y1="26.189" x2="152.522" y2="13.985" stroke="#8c8c8c" stroke-width="0.3" stroke-dasharray="1.2,0.8"/>
<line x1="115.397" y1="39.699" x2="113.389" y2="16.985" stroke="#8c8c8c" stroke-width="0.3" stroke-dasharray="1.2,0.8"/>
<line x1="113.389" y1="16.985" x2="101.379" y2="36.508" stroke="#8c8c8c" stroke-width="0.3" stroke-dasharray="1.2,0.8"/>
<line x1="127.81" y1="53.404" x2="150.776" y2="73.638" stroke="#8c8c8c" stroke-width="0.3" stroke-dasharray="1.2,0.8"/>
<line x1="101.379" y1="36.508" x2="96.339" y2="11.779" stroke="#8c8c8c" stroke-width="0.3" stroke-dasharray="1.2,0.8"/>
<line x1="150.776" y1="73.638" x2="112.207" y2="76.562" stroke="#8c8c8c" stroke-width="0.3" stroke-dasharray="1.2,0.8"/>
<line x1="127.81" y1="53.404" x2="100.049" y2="53.404" stroke="#8c8c8c" stroke-width="0.3" stroke-dasharray="1.2,0.8"/>
<line x1="152.522" y1="13.985" x2="144.268" y2="35.178" stroke="#8c8c8c" stroke-width="0.3" stroke-dasharray="1.2,0.8"/>
<line x1="113.389" y1="16.984" x2="130.364" y2="26.189" stroke="#8c8c8c" stroke-width="0.3" stroke-dasharray="1.2,0.8"/>
<line x1="84.595" y1="49.03" x2="101.379" y2="36.508" stroke="#8c8c8c" stroke-width="0.3" stroke-dasharray="1.2,0.8"/>
<line x1="166.832" y1="38.032" x2="150.776" y2="73.638" stroke="#8c8c8c" stroke-width="0.3" stroke-dasharray="1.2,0.8"/>
<line x1="113.389" y1="16.984" x2="96.339" y2="11.779" stroke="#8c8c8c" stroke-width="0.3" stroke-dasharray="1.2,0.8"/>
<line x1="112.207" y1="76.562" x2="100.049" y2="53.404" stroke="#141414" stroke-width="0.4"/>
<line x1="144.268" y1="35.178" x2="166.832" y2="38.032" stroke="#141414" stroke-width="0.4"/>
<line x1="127.81" y1="53.404" x2="115.397" y2="39.699" stroke="#141414" stroke-width="0.4"/>
<line x1="130.364" y1="26.189" x2="135.85" y2="7.675" stroke="#141414" stroke-width="0.4"/>
<line x1="115.397" y1="39.699" x2="101.379" y2="36.508" stroke="#141414" stroke-width="0.4"/>
<line x1="84.595" y1="49.03" x2="96.339" y2="11.779" stroke="#141414" stroke-width="0.4"/>
<line x1="135.85" y1="7.675" x2="152.522" y2="13.985" stroke="#141414" stroke-width="0.4"/>
<line x1="112.207" y1="76.562" x2="118.386" y2="81.309" stroke="#141414" stroke-width="0.4"/>
<line x1="118.386" y1="81.309" x2="145.384" y2="79.262" stroke="#141414" stroke-width="0.4"/>
<line x1="145.384" y1="79.262" x2="150.776" y2="73.638" stroke="#141414" stroke-width="0.4"/>
<line x1="100.049" y1="53.404" x2="108.377" y2="48.204" stroke="#141414" stroke-width="0.4"/>
<line x1="108.377" y1="48.204" x2="119.482" y2="48.204" stroke="#141414" stroke-width="0.4"/>
<line x1="119.482" y1="48.204" x2="127.81" y2="53.404" stroke="#141414" stroke-width="0.4"/>
<line x1="144.268" y1="35.178" x2="150.352" y2="33.887" stroke="#141414" stroke-width="0.4"/>
<line x1="150.352" y1="33.887" x2="156.13" y2="19.052" stroke="#141414" stroke-width="0.4"/>
<line x1="156.13" y1="19.052" x2="152.522" y2="13.985" stroke="#141414" stroke-width="0.4"/>
<line x1="130.364" y1="26.189" x2="130.296" y2="20.238" stroke="#141414" stroke-width="0.4"/>
<line x1="130.296" y1="20.238" x2="118.414" y2="13.794" stroke="#141414" stroke-width="0.4"/>
<line x1="118.414" y1="13.794" x2="113.389" y2="16.984" stroke="#141414" stroke-width="0.4"/>
<line x1="101.379" y1="36.508" x2="101.971" y2="42.554" stroke="#141414" stroke-width="0.4"/>
<line x1="101.971" y1="42.554" x2="90.222" y2="51.32" stroke="#141414" stroke-width="0.4"/>
<line x1="90.222" y1="51.32" x2="84.595" y2="49.03" stroke="#141414" stroke-width="0.4"/>
<line x1="150.776" y1="73.638" x2="157.924" y2="70.435" stroke="#141414" stroke-width="0.4"/>
<line x1="157.924" y1="70.435" x2="169.164" y2="45.511" stroke="#141414" stroke-width="0.4"/>
<line x1="169.164" y1="45.511" x2="166.832" y2="38.032" stroke="#141414" stroke-width="0.4"/>
<line x1="96.339" y1="11.779" x2="100.415" y2="7.587" stroke="#141414" stroke-width="0.4"/>
<line x1="100.415" y1="7.587" x2="112.35" y2="11.23" stroke="#141414" stroke-width="0.4"/>
<line x1="112.35" y1="11.23" x2="113.389" y2="16.984" stroke="#141414" stroke-width="0.4"/>
<circle cx="131.688" cy="77.693" r="0.91" fill="#ffe082" stroke="#464646" stroke-width="0.2"/>
<text x="131.688" y="78.13" font-size="1.24" text-anchor="middle" fill="#141414">11</text>
<circle cx="113.93" cy="50.804" r="0.91" fill="#ffe082" stroke="#464646" stroke-width="0.2"/>
<text x="113.93" y="51.24" font-size="1.24" text-anchor="middle" fill="#141414">12</text>
<circle cx="150.818" cy="25.525" r="0.91" fill="#ffe082" stroke="#464646" stroke-width="0.2"/>
<text x="150.818" y="25.96" font-size="1.24" text-anchor="middle" fill="#141414">19</text>
<circle cx="123.116" cy="19.301" r="0.91" fill="#99d9fa" stroke="#464646" stroke-width="0.2"/>
<text x="123.116" y="19.74" font-size="1.24" text-anchor="middle" fill="#141414">24</text>
<circle cx="94.542" cy="44.853" r="0.91" fill="#ffe082" stroke="#464646" stroke-width="0.2"/>
<text x="94.542" y="45.29" font-size="1.24" text-anchor="middle" fill="#141414">33</text>
<circle cx="161.174" cy="56.904" r="0.91" fill="#ffe082" stroke="#464646" stroke-width="0.2"/>
<text x="161.174" y="57.34" font-size="1.24" text-anchor="middle" fill="#141414">36</text>
<circle cx="105.623" cy="11.895" r="0.91" fill="#ffe082" stroke="#464646" stroke-width="0.2"/>
<text x="105.623" y="12.33" font-size="1.24" text-anchor="middle" fill="#141414">47</text>
<circle cx="113.356" cy="61.123" r="4.60" fill="#eaf1fe" stroke="#2e78e6" stroke-width="0.3"/>
<text x="113.356" y="62.92" font-size="5.20" text-anchor="middle" fill="#14306e" font-weight="bold">4</text>
<polygon points="105.319,248.595 87.809,245.091 17.587,207.36 5.0,194.694" fill="rgb(216,216,216)"/>
<line x1="131.609" y1="209.934" x2="105.319" y2="248.595" stroke="#8c8c8c" stroke-width="0.3" stroke-dasharray="1.2,0.8"/>
<line x1="105.319" y1="248.595" x2="120.582" y2="209.934" stroke="#8c8c8c" stroke-width="0.3" stroke-dasharray="1.2,0.8"/>
<line x1="5.0" y1="194.694" x2="105.319" y2="248.595" stroke="#8c8c8c" stroke-width="0.3" stroke-dasharray="1.2,0.8"/>
<line x1="120.582" y1="209.934" x2="131.609" y2="209.934" stroke="#141414" stroke-width="0.4"/>
<line x1="131.609" y1="209.934" x2="117.433" y2="254.492" stroke="#141414" stroke-width="0.4"/>
<line x1="23.645" y1="156.226" x2="120.582" y2="209.934" stroke="#141414" stroke-width="0.4"/>
<line x1="5.0" y1="194.695" x2="23.645" y2="156.226" stroke="#141414" stroke-width="0.4"/>
<line x1="117.433" y1="254.492" x2="105.319" y2="248.595" stroke="#141414" stroke-width="0.4"/>
<line x1="105.319" y1="248.595" x2="87.809" y2="245.091" stroke="#141414" stroke-width="0.4"/>
<line x1="87.809" y1="245.091" x2="17.587" y2="207.36" stroke="#141414" stroke-width="0.4"/>
<line x1="17.587" y1="207.36" x2="5.0" y2="194.694" stroke="#141414" stroke-width="0.4"/>
<circle cx="53.929" cy="223.935" r="0.91" fill="#ffe082" stroke="#464646" stroke-width="0.2"/>
<text x="53.929" y="224.37" font-size="1.24" text-anchor="middle" fill="#141414">29</text>
<circle cx="44.654" cy="199.839" r="4.60" fill="#eaf1fe" stroke="#2e78e6" stroke-width="0.3"/>
<text x="44.654" y="201.64" font-size="5.20" text-anchor="middle" fill="#14306e" font-weight="bold">5</text>
<text x="205.0" y="295.0" font-size="3.2" text-anchor="end" fill="#737373" font-family="sans-serif">2 / 3</text>
<g pointer-events="none"><text x="105.0" y="83.2" text-anchor="middle" font-family="sans-serif" font-size="12.4" fill="#9aa0a6" fill-opacity="0.3" transform="rotate(-28 105.0 83.2)">papercraft.kr</text><text x="105.0" y="148.5" text-anchor="middle" font-family="sans-serif" font-size="12.4" fill="#9aa0a6" fill-opacity="0.3" transform="rotate(-28 105.0 148.5)">papercraft.kr</text><text x="105.0" y="213.8" text-anchor="middle" font-family="sans-serif" font-size="12.4" fill="#9aa0a6" fill-opacity="0.3" transform="rotate(-28 105.0 213.8)">papercraft.kr</text></g></svg>
