<svg xmlns="http://www.w3.org/2000/svg" xmlns:xlink="http://www.w3.org/1999/xlink" width="210.00mm" height="297.00mm" viewBox="0 0 210.00 297.00">
<rect x="0" y="0" width="210.00" height="297.00" fill="#ffffff" stroke="#cccccc" stroke-width="0.2"/>
<polygon points="82.474,37.728 82.721,36.846 93.038,18.367 88.528,16.149" fill="rgb(216,216,216)"/>
<polygon points="37.901,71.516 36.984,71.516 16.406,76.457 15.489,71.516" fill="rgb(216,216,216)"/>
<polygon points="108.885,59.781 109.59,59.194 128.56,49.812 126.1,45.429" fill="rgb(216,216,216)"/>
<polygon points="83.594,109.667 83.758,110.569 82.568,131.699 87.594,131.719" fill="rgb(216,216,216)"/>
<polygon points="79.685,76.331 66.312,91.985 63.713,98.888 63.442,119.475" fill="rgb(216,216,216)"/>
<polygon points="71.4,69.413 58.384,85.365 52.055,89.155 31.847,93.095" fill="rgb(216,216,216)"/>
<polygon points="112.794,93.117 114.876,102.734 97.235,129.756 87.594,131.719" fill="rgb(216,216,216)"/>
<polygon points="44.552,29.985 49.048,21.232 79.831,11.547 88.528,16.149" fill="rgb(216,216,216)"/>
<polygon points="48.975,39.831 30.1,48.054 24.742,53.124 15.489,71.516" fill="rgb(216,216,216)"/>
<polygon points="82.192,132.035 75.484,135.967 62.359,127.175 63.442,119.475" fill="rgb(216,216,216)"/>
<polygon points="93.523,18.229 101.275,17.629 109.229,31.279 104.886,37.728" fill="rgb(216,216,216)"/>
<polygon points="112.794,93.117 114.876,102.734 97.235,129.756 87.594,131.719" fill="#99d9fa"/>
<line x1="37.902" y1="71.516" x2="82.474" y2="37.728" stroke="#8c8c8c" stroke-width="0.3" stroke-dasharray="1.2,0.8"/>
<line x1="71.4" y1="69.413" x2="82.474" y2="37.728" stroke="#8c8c8c" stroke-width="0.3" stroke-dasharray="1.2,0.8"/>
<line x1="48.975" y1="39.831" x2="82.474" y2="37.728" stroke="#8c8c8c" stroke-width="0.3" stroke-dasharray="1.2,0.8"/>
<line x1="82.474" y1="37.728" x2="104.886" y2="37.728" stroke="#8c8c8c" stroke-width="0.3" stroke-dasharray="1.2,0.8"/>
<line x1="71.4" y1="69.413" x2="37.902" y2="71.516" stroke="#8c8c8c" stroke-width="0.3" stroke-dasharray="1.2,0.8"/>
<line x1="37.902" y1="71.516" x2="48.975" y2="39.831" stroke="#8c8c8c" stroke-width="0.3" stroke-dasharray="1.2,0.8"/>
<line x1="31.847" y1="93.095" x2="37.902" y2="71.516" stroke="#8c8c8c" stroke-width="0.3" stroke-dasharray="1.2,0.8"/>
<line x1="108.885" y1="59.781" x2="83.594" y2="109.667" stroke="#8c8c8c" stroke-width="0.3" stroke-dasharray="1.2,0.8"/>
<line x1="79.685" y1="76.331" x2="108.885" y2="59.781" stroke="#8c8c8c" stroke-width="0.3" stroke-dasharray="1.2,0.8"/>
<line x1="108.885" y1="59.781" x2="112.794" y2="93.117" stroke="#8c8c8c" stroke-width="0.3" stroke-dasharray="1.2,0.8"/>
<line x1="108.885" y1="59.781" x2="104.886" y2="37.728" stroke="#8c8c8c" stroke-width="0.3" stroke-dasharray="1.2,0.8"/>
<line x1="79.685" y1="76.331" x2="83.594" y2="109.667" stroke="#8c8c8c" stroke-width="0.3" stroke-dasharray="1.2,0.8"/>
<line x1="112.794" y1="93.117" x2="83.594" y2="109.667" stroke="#8c8c8c" stroke-width="0.3" stroke-dasharray="1.2,0.8"/>
<line x1="83.594" y1="109.667" x2="63.442" y2="119.475" stroke="#8c8c8c" stroke-width="0.3" stroke-dasharray="1.2,0.8"/>
<line x1="79.685" y1="76.331" x2="71.4" y2="69.413" stroke="#8c8c8c" stroke-width="0.3" stroke-dasharray="1.2,0.8"/>
<line x1="104.886" y1="37.728" x2="79.685" y2="76.331" stroke="#8c8c8c" stroke-width="0.3" stroke-dasharray="1.2,0.8"/>
<line x1="104.886" y1="37.728" x2="71.4" y2="69.413" stroke="#8c8c8c" stroke-width="0.3" stroke-dasharray="1.2,0.8"/>
<line x1="48.975" y1="39.831" x2="44.553" y2="29.985" stroke="#8c8c8c" stroke-width="0.3" stroke-dasharray="1.2,0.8"/>
<line x1="48.975" y1="39.831" x2="88.528" y2="16.149" stroke="#8c8c8c" stroke-width="0.3" stroke-dasharray="1.2,0.8"/>
<line x1="88.528" y1="16.149" x2="82.474" y2="37.728" stroke="#8c8c8c" stroke-width="0.3" stroke-dasharray="1.2,0.8"/>
<line x1="15.489" y1="71.516" x2="37.901" y2="71.516" stroke="#8c8c8c" stroke-width="0.3" stroke-dasharray="1.2,0.8"/>
<line x1="126.1" y1="45.429" x2="108.885" y2="59.781" stroke="#8c8c8c" stroke-width="0.3" stroke-dasharray="1.2,0.8"/>
<line x1="87.594" y1="131.719" x2="83.594" y2="109.667" stroke="#8c8c8c" stroke-width="0.3" stroke-dasharray="1.2,0.8"/>
<line x1="63.442" y1="119.475" x2="79.685" y2="76.331" stroke="#8c8c8c" stroke-width="0.3" stroke-dasharray="1.2,0.8"/>
<line x1="31.847" y1="93.095" x2="71.4" y2="69.413" stroke="#8c8c8c" stroke-width="0.3" stroke-dasharray="1.2,0.8"/>
<line x1="87.594" y1="131.719" x2="112.794" y2="93.117" stroke="#8c8c8c" stroke-width="0.3" stroke-dasharray="1.2,0.8"/>
<line x1="88.528" y1="16.149" x2="44.552" y2="29.985" stroke="#8c8c8c" stroke-width="0.3" stroke-dasharray="1.2,0.8"/>
<line x1="15.489" y1="71.516" x2="48.975" y2="39.831" stroke="#8c8c8c" stroke-width="0.3" stroke-dasharray="1.2,0.8"/>
<line x1="63.442" y1="119.475" x2="82.192" y2="132.035" stroke="#8c8c8c" stroke-width="0.3" stroke-dasharray="1.2,0.8"/>
<line x1="104.886" y1="37.728" x2="93.523" y2="18.229" stroke="#8c8c8c" stroke-width="0.3" stroke-dasharray="1.2,0.8"/>
<line x1="82.474" y1="37.728" x2="93.523" y2="18.229" stroke="#141414" stroke-width="0.4"/>
<line x1="16.142" y1="76.887" x2="37.902" y2="71.516" stroke="#141414" stroke-width="0.4"/>
<line x1="108.885" y1="59.781" x2="129.038" y2="49.973" stroke="#141414" stroke-width="0.4"/>
<line x1="83.594" y1="109.667" x2="82.193" y2="132.035" stroke="#141414" stroke-width="0.4"/>
<line x1="79.685" y1="76.331" x2="46.2" y2="108.016" stroke="#141414" stroke-width="0.4"/>
<line x1="46.2" y1="108.016" x2="71.4" y2="69.413" stroke="#141414" stroke-width="0.4"/>
<line x1="5.0" y1="53.667" x2="44.553" y2="29.985" stroke="#141414" stroke-width="0.4"/>
<line x1="129.038" y1="49.973" x2="112.794" y2="93.117" stroke="#141414" stroke-width="0.4"/>
<line x1="48.975" y1="39.831" x2="5.0" y2="53.667" stroke="#141414" stroke-width="0.4"/>
<line x1="31.847" y1="93.095" x2="16.142" y2="76.887" stroke="#141414" stroke-width="0.4"/>
<line x1="104.886" y1="37.728" x2="126.1" y2="45.429" stroke="#141414" stroke-width="0.4"/>
<line x1="82.474" y1="37.728" x2="82.721" y2="36.846" stroke="#141414" stroke-width="0.4"/>
<line x1="82.721" y1="36.846" x2="93.038" y2="18.367" stroke="#141414" stroke-width="0.4"/>
<line x1="93.038" y1="18.367" x2="88.528" y2="16.149" stroke="#141414" stroke-width="0.4"/>
<line x1="37.901" y1="71.516" x2="36.984" y2="71.516" stroke="#141414" stroke-width="0.4"/>
<line x1="36.984" y1="71.516" x2="16.406" y2="76.457" stroke="#141414" stroke-width="0.4"/>
<line x1="16.406" y1="76.457" x2="15.489" y2="71.516" stroke="#141414" stroke-width="0.4"/>
<line x1="108.885" y1="59.781" x2="109.59" y2="59.194" stroke="#141414" stroke-width="0.4"/>
<line x1="109.59" y1="59.194" x2="128.56" y2="49.812" stroke="#141414" stroke-width="0.4"/>
<line x1="128.56" y1="49.812" x2="126.1" y2="45.429" stroke="#141414" stroke-width="0.4"/>
<line x1="83.594" y1="109.667" x2="83.758" y2="110.569" stroke="#141414" stroke-width="0.4"/>
<line x1="83.758" y1="110.569" x2="82.568" y2="131.699" stroke="#141414" stroke-width="0.4"/>
<line x1="82.568" y1="131.699" x2="87.594" y2="131.719" stroke="#141414" stroke-width="0.4"/>
<line x1="79.685" y1="76.331" x2="66.312" y2="91.985" stroke="#141414" stroke-width="0.4"/>
<line x1="66.312" y1="91.985" x2="63.713" y2="98.888" stroke="#141414" stroke-width="0.4"/>
<line x1="63.713" y1="98.888" x2="63.442" y2="119.475" stroke="#141414" stroke-width="0.4"/>
<line x1="71.4" y1="69.413" x2="58.384" y2="85.365" stroke="#141414" stroke-width="0.4"/>
<line x1="58.384" y1="85.365" x2="52.055" y2="89.155" stroke="#141414" stroke-width="0.4"/>
<line x1="52.055" y1="89.155" x2="31.847" y2="93.095" stroke="#141414" stroke-width="0.4"/>
<line x1="112.794" y1="93.117" x2="114.876" y2="102.734" stroke="#141414" stroke-width="0.4"/>
<line x1="114.876" y1="102.734" x2="97.235" y2="129.756" stroke="#141414" stroke-width="0.4"/>
<line x1="97.235" y1="129.756" x2="87.594" y2="131.719" stroke="#141414" stroke-width="0.4"/>
<line x1="44.552" y1="29.985" x2="49.048" y2="21.232" stroke="#141414" stroke-width="0.4"/>
<line x1="49.048" y1="21.232" x2="79.831" y2="11.547" stroke="#141414" stroke-width="0.4"/>
<line x1="79.831" y1="11.547" x2="88.528" y2="16.149" stroke="#141414" stroke-width="0.4"/>
<line x1="48.975" y1="39.831" x2="30.1" y2="48.054" stroke="#141414" stroke-width="0.4"/>
<line x1="30.1" y1="48.054" x2="24.742" y2="53.124" stroke="#141414" stroke-width="0.4"/>
<line x1="24.742" y1="53.124" x2="15.489" y2="71.516" stroke="#141414" stroke-width="0.4"/>
<line x1="82.192" y1="132.035" x2="75.484" y2="135.967" stroke="#141414" stroke-width="0.4"/>
<line x1="75.484" y1="135.967" x2="62.359" y2="127.175" stroke="#141414" stroke-width="0.4"/>
<line x1="62.359" y1="127.175" x2="63.442" y2="119.475" stroke="#141414" stroke-width="0.4"/>
<line x1="93.523" y1="18.229" x2="101.275" y2="17.629" stroke="#141414" stroke-width="0.4"/>
<line x1="101.275" y1="17.629" x2="109.229" y2="31.279" stroke="#141414" stroke-width="0.4"/>
<line x1="109.229" y1="31.279" x2="104.886" y2="37.728" stroke="#141414" stroke-width="0.4"/>
<circle cx="68.288" cy="96.67" r="2.11" fill="#ffe082" stroke="#464646" stroke-width="0.2"/>
<text x="68.288" y="97.39" font-size="2.07" text-anchor="middle" fill="#141414">202</text>
<circle cx="53.421" cy="84.257" r="2.11" fill="#ffe082" stroke="#464646" stroke-width="0.2"/>
<text x="53.421" y="84.98" font-size="2.07" text-anchor="middle" fill="#141414">203</text>
<circle cx="103.125" cy="114.331" r="2.11" fill="#99d9fa" stroke="#464646" stroke-width="0.2"/>
<text x="103.125" y="115.05" font-size="2.07" text-anchor="middle" fill="#141414">204</text>
<circle cx="65.49" cy="19.729" r="2.11" fill="#ffe082" stroke="#464646" stroke-width="0.2"/>
<text x="65.49" y="20.45" font-size="2.07" text-anchor="middle" fill="#141414">205</text>
<circle cx="29.827" cy="53.131" r="2.11" fill="#ffe082" stroke="#464646" stroke-width="0.2"/>
<text x="29.827" y="53.85" font-size="2.07" text-anchor="middle" fill="#141414">206</text>
<circle cx="70.869" cy="128.663" r="2.11" fill="#ffe082" stroke="#464646" stroke-width="0.2"/>
<text x="70.869" y="129.39" font-size="2.07" text-anchor="middle" fill="#141414">207</text>
<circle cx="102.228" cy="26.216" r="2.11" fill="#ffe082" stroke="#464646" stroke-width="0.2"/>
<text x="102.228" y="26.94" font-size="2.07" text-anchor="middle" fill="#141414">208</text>
<circle cx="101.758" cy="87.522" r="4.60" fill="#eaf1fe" stroke="#2e78e6" stroke-width="0.3"/>
<text x="101.758" y="89.32" font-size="5.20" text-anchor="middle" fill="#14306e" font-weight="bold">18</text>
<text x="205.0" y="295.0" font-size="3.2" text-anchor="end" fill="#737373" font-family="sans-serif">11 / 11</text>
<g pointer-events="none"><text x="105.0" y="83.2" text-anchor="middle" font-family="sans-serif" font-size="12.4" fill="#9aa0a6" fill-opacity="0.3" transform="rotate(-28 105.0 83.2)">papercraft.kr</text><text x="105.0" y="148.5" text-anchor="middle" font-family="sans-serif" font-size="12.4" fill="#9aa0a6" fill-opacity="0.3" transform="rotate(-28 105.0 148.5)">papercraft.kr</text><text x="105.0" y="213.8" text-anchor="middle" font-family="sans-serif" font-size="12.4" fill="#9aa0a6" fill-opacity="0.3" transform="rotate(-28 105.0 213.8)">papercraft.kr</text></g></svg>
