<svg xmlns="http://www.w3.org/2000/svg" xmlns:xlink="http://www.w3.org/1999/xlink" width="210.00mm" height="297.00mm" viewBox="0 0 210.00 297.00">
<rect x="0" y="0" width="210.00" height="297.00" fill="#ffffff" stroke="#cccccc" stroke-width="0.2"/>
<polygon points="63.835,32.156 63.382,25.212 72.126,21.956 76.326,27.503" fill="rgb(216,216,216)"/>
<polygon points="69.973,15.785 73.312,13.551 76.652,11.317 81.43,22.148" fill="rgb(216,216,216)"/>
<polygon points="76.357,10.064 80.845,4.9 89.206,8.674 88.303,15.455" fill="rgb(216,216,216)"/>
<polygon points="21.267,50.599 15.462,46.762 8.297,52.74 11.032,59.138" fill="rgb(216,216,216)"/>
<polygon points="21.267,50.599 31.17,49.345 57.588,69.476 59.006,79.357" fill="rgb(216,216,216)"/>
<polygon points="72.809,32.156 79.195,39.791 76.442,72.698 68.876,79.166" fill="rgb(216,216,216)"/>
<polygon points="15.095,116.937 9.879,115.684 9.479,108.502 14.523,106.677" fill="rgb(216,216,216)"/>
<polygon points="15.095,116.937 17.544,117.204 21.11,106.915 19.022,105.609" fill="rgb(216,216,216)"/>
<polygon points="113.553,56.629 115.733,46.793 98.057,17.972 88.303,15.455" fill="rgb(216,216,216)"/>
<polygon points="14.523,106.677 7.018,100.059 4.574,66.782 11.032,59.138" fill="rgb(216,216,216)"/>
<polygon points="57.398,82.629 47.722,85.003 19.314,68.037 16.816,58.392" fill="rgb(216,216,216)"/>
<polygon points="69.973,15.785 73.312,13.551 76.652,11.317 81.43,22.148" fill="#99d9fa"/>
<line x1="63.835" y1="32.156" x2="72.809" y2="32.156" stroke="#8c8c8c" stroke-width="0.3" stroke-dasharray="1.2,0.8"/>
<line x1="68.876" y1="79.166" x2="63.835" y2="32.156" stroke="#8c8c8c" stroke-width="0.3" stroke-dasharray="1.2,0.8"/>
<line x1="21.267" y1="50.599" x2="16.816" y2="58.392" stroke="#8c8c8c" stroke-width="0.3" stroke-dasharray="1.2,0.8"/>
<line x1="76.326" y1="27.503" x2="72.809" y2="32.156" stroke="#8c8c8c" stroke-width="0.3" stroke-dasharray="1.2,0.8"/>
<line x1="76.326" y1="27.503" x2="109.782" y2="61.455" stroke="#8c8c8c" stroke-width="0.3" stroke-dasharray="1.2,0.8"/>
<line x1="113.553" y1="56.629" x2="109.782" y2="61.455" stroke="#8c8c8c" stroke-width="0.3" stroke-dasharray="1.2,0.8"/>
<line x1="59.006" y1="79.357" x2="68.876" y2="79.166" stroke="#8c8c8c" stroke-width="0.3" stroke-dasharray="1.2,0.8"/>
<line x1="81.43" y1="22.148" x2="76.326" y2="27.503" stroke="#8c8c8c" stroke-width="0.3" stroke-dasharray="1.2,0.8"/>
<line x1="76.326" y1="27.503" x2="113.553" y2="56.629" stroke="#8c8c8c" stroke-width="0.3" stroke-dasharray="1.2,0.8"/>
<line x1="81.43" y1="22.148" x2="113.553" y2="56.629" stroke="#8c8c8c" stroke-width="0.3" stroke-dasharray="1.2,0.8"/>
<line x1="88.303" y1="15.455" x2="81.43" y2="22.148" stroke="#8c8c8c" stroke-width="0.3" stroke-dasharray="1.2,0.8"/>
<line x1="119.968" y1="62.815" x2="113.553" y2="56.629" stroke="#8c8c8c" stroke-width="0.3" stroke-dasharray="1.2,0.8"/>
<line x1="154.163" y1="30.482" x2="119.968" y2="62.815" stroke="#8c8c8c" stroke-width="0.3" stroke-dasharray="1.2,0.8"/>
<line x1="159.266" y1="35.838" x2="154.163" y2="30.482" stroke="#8c8c8c" stroke-width="0.3" stroke-dasharray="1.2,0.8"/>
<line x1="19.022" y1="105.609" x2="14.523" y2="106.677" stroke="#8c8c8c" stroke-width="0.3" stroke-dasharray="1.2,0.8"/>
<line x1="11.032" y1="59.138" x2="19.022" y2="105.609" stroke="#8c8c8c" stroke-width="0.3" stroke-dasharray="1.2,0.8"/>
<line x1="16.816" y1="58.392" x2="11.032" y2="59.138" stroke="#8c8c8c" stroke-width="0.3" stroke-dasharray="1.2,0.8"/>
<line x1="59.006" y1="79.357" x2="57.398" y2="82.629" stroke="#8c8c8c" stroke-width="0.3" stroke-dasharray="1.2,0.8"/>
<line x1="16.816" y1="58.392" x2="59.006" y2="79.357" stroke="#8c8c8c" stroke-width="0.3" stroke-dasharray="1.2,0.8"/>
<line x1="76.326" y1="27.503" x2="63.835" y2="32.156" stroke="#8c8c8c" stroke-width="0.3" stroke-dasharray="1.2,0.8"/>
<line x1="81.43" y1="22.148" x2="69.973" y2="15.785" stroke="#8c8c8c" stroke-width="0.3" stroke-dasharray="1.2,0.8"/>
<line x1="88.303" y1="15.455" x2="76.357" y2="10.064" stroke="#8c8c8c" stroke-width="0.3" stroke-dasharray="1.2,0.8"/>
<line x1="11.032" y1="59.138" x2="21.267" y2="50.599" stroke="#8c8c8c" stroke-width="0.3" stroke-dasharray="1.2,0.8"/>
<line x1="59.006" y1="79.357" x2="21.267" y2="50.599" stroke="#8c8c8c" stroke-width="0.3" stroke-dasharray="1.2,0.8"/>
<line x1="68.876" y1="79.166" x2="72.809" y2="32.156" stroke="#8c8c8c" stroke-width="0.3" stroke-dasharray="1.2,0.8"/>
<line x1="14.523" y1="106.677" x2="15.095" y2="116.937" stroke="#8c8c8c" stroke-width="0.3" stroke-dasharray="1.2,0.8"/>
<line x1="19.022" y1="105.609" x2="15.095" y2="116.937" stroke="#8c8c8c" stroke-width="0.3" stroke-dasharray="1.2,0.8"/>
<line x1="88.303" y1="15.455" x2="113.553" y2="56.629" stroke="#8c8c8c" stroke-width="0.3" stroke-dasharray="1.2,0.8"/>
<line x1="11.032" y1="59.138" x2="14.523" y2="106.677" stroke="#8c8c8c" stroke-width="0.3" stroke-dasharray="1.2,0.8"/>
<line x1="16.816" y1="58.392" x2="57.398" y2="82.629" stroke="#8c8c8c" stroke-width="0.3" stroke-dasharray="1.2,0.8"/>
<line x1="76.326" y1="27.503" x2="69.973" y2="15.785" stroke="#141414" stroke-width="0.4"/>
<line x1="81.43" y1="22.148" x2="76.357" y2="10.064" stroke="#141414" stroke-width="0.4"/>
<line x1="154.163" y1="30.482" x2="165.621" y2="24.121" stroke="#141414" stroke-width="0.4"/>
<line x1="165.621" y1="24.121" x2="159.266" y2="35.838" stroke="#141414" stroke-width="0.4"/>
<line x1="59.006" y1="79.357" x2="63.835" y2="32.156" stroke="#141414" stroke-width="0.4"/>
<line x1="109.782" y1="61.455" x2="72.809" y2="32.156" stroke="#141414" stroke-width="0.4"/>
<line x1="119.968" y1="62.815" x2="109.782" y2="61.455" stroke="#141414" stroke-width="0.4"/>
<line x1="68.876" y1="79.166" x2="57.398" y2="82.629" stroke="#141414" stroke-width="0.4"/>
<line x1="113.553" y1="56.629" x2="154.163" y2="30.482" stroke="#141414" stroke-width="0.4"/>
<line x1="159.266" y1="35.838" x2="119.968" y2="62.815" stroke="#141414" stroke-width="0.4"/>
<line x1="16.816" y1="58.392" x2="19.022" y2="105.609" stroke="#141414" stroke-width="0.4"/>
<line x1="63.835" y1="32.156" x2="63.382" y2="25.212" stroke="#141414" stroke-width="0.4"/>
<line x1="63.382" y1="25.212" x2="72.126" y2="21.956" stroke="#141414" stroke-width="0.4"/>
<line x1="72.126" y1="21.956" x2="76.326" y2="27.503" stroke="#141414" stroke-width="0.4"/>
<line x1="69.973" y1="15.785" x2="73.312" y2="13.551" stroke="#141414" stroke-width="0.4"/>
<line x1="73.312" y1="13.551" x2="76.652" y2="11.317" stroke="#141414" stroke-width="0.4"/>
<line x1="76.652" y1="11.317" x2="81.43" y2="22.148" stroke="#141414" stroke-width="0.4"/>
<line x1="76.357" y1="10.064" x2="80.845" y2="4.9" stroke="#141414" stroke-width="0.4"/>
<line x1="80.845" y1="4.9" x2="89.206" y2="8.674" stroke="#141414" stroke-width="0.4"/>
<line x1="89.206" y1="8.674" x2="88.303" y2="15.455" stroke="#141414" stroke-width="0.4"/>
<line x1="21.267" y1="50.599" x2="15.462" y2="46.762" stroke="#141414" stroke-width="0.4"/>
<line x1="15.462" y1="46.762" x2="8.297" y2="52.74" stroke="#141414" stroke-width="0.4"/>
<line x1="8.297" y1="52.74" x2="11.032" y2="59.138" stroke="#141414" stroke-width="0.4"/>
<line x1="21.267" y1="50.599" x2="31.17" y2="49.345" stroke="#141414" stroke-width="0.4"/>
<line x1="31.17" y1="49.345" x2="57.588" y2="69.476" stroke="#141414" stroke-width="0.4"/>
<line x1="57.588" y1="69.476" x2="59.006" y2="79.357" stroke="#141414" stroke-width="0.4"/>
<line x1="72.809" y1="32.156" x2="79.195" y2="39.791" stroke="#141414" stroke-width="0.4"/>
<line x1="79.195" y1="39.791" x2="76.442" y2="72.698" stroke="#141414" stroke-width="0.4"/>
<line x1="76.442" y1="72.698" x2="68.876" y2="79.166" stroke="#141414" stroke-width="0.4"/>
<line x1="15.095" y1="116.937" x2="9.879" y2="115.684" stroke="#141414" stroke-width="0.4"/>
<line x1="9.879" y1="115.684" x2="9.479" y2="108.502" stroke="#141414" stroke-width="0.4"/>
<line x1="9.479" y1="108.502" x2="14.523" y2="106.677" stroke="#141414" stroke-width="0.4"/>
<line x1="15.095" y1="116.937" x2="17.544" y2="117.204" stroke="#141414" stroke-width="0.4"/>
<line x1="17.544" y1="117.204" x2="21.11" y2="106.915" stroke="#141414" stroke-width="0.4"/>
<line x1="21.11" y1="106.915" x2="19.022" y2="105.609" stroke="#141414" stroke-width="0.4"/>
<line x1="113.553" y1="56.629" x2="115.733" y2="46.793" stroke="#141414" stroke-width="0.4"/>
<line x1="115.733" y1="46.793" x2="98.057" y2="17.972" stroke="#141414" stroke-width="0.4"/>
<line x1="98.057" y1="17.972" x2="88.303" y2="15.455" stroke="#141414" stroke-width="0.4"/>
<line x1="14.523" y1="106.677" x2="7.018" y2="100.059" stroke="#141414" stroke-width="0.4"/>
<line x1="7.018" y1="100.059" x2="4.574" y2="66.782" stroke="#141414" stroke-width="0.4"/>
<line x1="4.574" y1="66.782" x2="11.032" y2="59.138" stroke="#141414" stroke-width="0.4"/>
<line x1="57.398" y1="82.629" x2="47.722" y2="85.003" stroke="#141414" stroke-width="0.4"/>
<line x1="47.722" y1="85.003" x2="19.314" y2="68.037" stroke="#141414" stroke-width="0.4"/>
<line x1="19.314" y1="68.037" x2="16.816" y2="58.392" stroke="#141414" stroke-width="0.4"/>
<circle cx="68.917" cy="26.707" r="1.99" fill="#ffe082" stroke="#464646" stroke-width="0.2"/>
<text x="68.917" y="27.39" font-size="1.95" text-anchor="middle" fill="#141414">68</text>
<circle cx="75.342" cy="15.7" r="1.99" fill="#99d9fa" stroke="#464646" stroke-width="0.2"/>
<text x="75.342" y="16.38" font-size="1.95" text-anchor="middle" fill="#141414">69</text>
<circle cx="83.678" cy="9.774" r="1.99" fill="#ffe082" stroke="#464646" stroke-width="0.2"/>
<text x="83.678" y="10.46" font-size="1.95" text-anchor="middle" fill="#141414">70</text>
<circle cx="14.014" cy="52.31" r="1.99" fill="#ffe082" stroke="#464646" stroke-width="0.2"/>
<text x="14.014" y="52.99" font-size="1.95" text-anchor="middle" fill="#141414">71</text>
<circle cx="42.258" cy="62.194" r="1.99" fill="#ffe082" stroke="#464646" stroke-width="0.2"/>
<text x="42.258" y="62.88" font-size="1.95" text-anchor="middle" fill="#141414">72</text>
<circle cx="74.331" cy="55.953" r="1.99" fill="#ffe082" stroke="#464646" stroke-width="0.2"/>
<text x="74.331" y="56.64" font-size="1.95" text-anchor="middle" fill="#141414">73</text>
<circle cx="12.244" cy="111.95" r="1.99" fill="#ffe082" stroke="#464646" stroke-width="0.2"/>
<text x="12.244" y="112.63" font-size="1.95" text-anchor="middle" fill="#141414">74</text>
<circle cx="103.911" cy="34.212" r="1.99" fill="#ffe082" stroke="#464646" stroke-width="0.2"/>
<text x="103.911" y="34.89" font-size="1.95" text-anchor="middle" fill="#141414">76</text>
<circle cx="9.287" cy="83.164" r="1.99" fill="#ffe082" stroke="#464646" stroke-width="0.2"/>
<text x="9.287" y="83.85" font-size="1.95" text-anchor="middle" fill="#141414">77</text>
<circle cx="35.313" cy="73.515" r="1.99" fill="#ffe082" stroke="#464646" stroke-width="0.2"/>
<text x="35.313" y="74.20" font-size="1.95" text-anchor="middle" fill="#141414">78</text>
<circle cx="63.906" cy="63.56" r="2.61" fill="#eaf1fe" stroke="#2e78e6" stroke-width="0.3"/>
<text x="63.906" y="64.58" font-size="2.95" text-anchor="middle" fill="#14306e" font-weight="bold">4</text>
<polygon points="50.396,161.516 40.914,160.854 39.386,158.938 40.85,149.546" fill="rgb(216,216,216)"/>
<polygon points="65.706,161.516 75.188,160.854 76.715,158.938 75.252,149.546" fill="rgb(216,216,216)"/>
<polygon points="59.344,234.069 52.331,236.481 52.272,247.905 59.259,250.39" fill="rgb(216,216,216)"/>
<polygon points="75.252,149.546 81.565,145.75 79.18,135.302 71.845,134.62" fill="rgb(216,216,216)"/>
<polygon points="71.845,134.62 72.813,127.317 63.157,122.667 58.051,127.977" fill="rgb(216,216,216)"/>
<polygon points="78.952,235.684 79.637,242.975 89.467,245.013 92.995,238.596" fill="rgb(216,216,216)"/>
<polygon points="111.059,168.205 115.13,180.504 102.485,229.778 92.995,238.596" fill="rgb(216,216,216)"/>
<polygon points="58.051,127.977 52.945,122.667 43.289,127.317 44.257,134.62" fill="rgb(216,216,216)"/>
<polygon points="22.502,238.569 25.12,243.349 32.267,241.827 32.712,236.396" fill="rgb(216,216,216)"/>
<polygon points="44.257,134.62 36.921,135.301 34.537,145.75 40.85,149.546" fill="rgb(216,216,216)"/>
<polygon points="32.712,236.396 35.004,241.34 42.237,240.301 43.044,234.912" fill="rgb(216,216,216)"/>
<polygon points="78.952,235.684 79.637,242.975 89.467,245.013 92.995,238.596" fill="#99d9fa"/>
<line x1="50.396" y1="161.516" x2="65.706" y2="161.516" stroke="#8c8c8c" stroke-width="0.3" stroke-dasharray="1.2,0.8"/>
<line x1="59.344" y1="234.069" x2="50.396" y2="161.516" stroke="#8c8c8c" stroke-width="0.3" stroke-dasharray="1.2,0.8"/>
<line x1="50.396" y1="161.516" x2="43.045" y2="234.912" stroke="#8c8c8c" stroke-width="0.3" stroke-dasharray="1.2,0.8"/>
<line x1="65.706" y1="161.516" x2="59.344" y2="234.069" stroke="#8c8c8c" stroke-width="0.3" stroke-dasharray="1.2,0.8"/>
<line x1="80.979" y1="162.576" x2="59.344" y2="234.069" stroke="#8c8c8c" stroke-width="0.3" stroke-dasharray="1.2,0.8"/>
<line x1="78.952" y1="235.684" x2="59.344" y2="234.069" stroke="#8c8c8c" stroke-width="0.3" stroke-dasharray="1.2,0.8"/>
<line x1="80.979" y1="162.576" x2="78.952" y2="235.684" stroke="#8c8c8c" stroke-width="0.3" stroke-dasharray="1.2,0.8"/>
<line x1="96.117" y1="164.87" x2="78.952" y2="235.684" stroke="#8c8c8c" stroke-width="0.3" stroke-dasharray="1.2,0.8"/>
<line x1="19.975" y1="164.85" x2="32.712" y2="236.396" stroke="#8c8c8c" stroke-width="0.3" stroke-dasharray="1.2,0.8"/>
<line x1="35.129" y1="162.673" x2="43.045" y2="234.912" stroke="#8c8c8c" stroke-width="0.3" stroke-dasharray="1.2,0.8"/>
<line x1="111.059" y1="168.205" x2="78.952" y2="235.684" stroke="#8c8c8c" stroke-width="0.3" stroke-dasharray="1.2,0.8"/>
<line x1="40.85" y1="149.546" x2="50.396" y2="161.516" stroke="#8c8c8c" stroke-width="0.3" stroke-dasharray="1.2,0.8"/>
<line x1="75.252" y1="149.546" x2="65.706" y2="161.516" stroke="#8c8c8c" stroke-width="0.3" stroke-dasharray="1.2,0.8"/>
<line x1="59.259" y1="250.39" x2="59.344" y2="234.069" stroke="#8c8c8c" stroke-width="0.3" stroke-dasharray="1.2,0.8"/>
<line x1="71.845" y1="134.62" x2="75.252" y2="149.546" stroke="#8c8c8c" stroke-width="0.3" stroke-dasharray="1.2,0.8"/>
<line x1="58.051" y1="127.977" x2="71.845" y2="134.62" stroke="#8c8c8c" stroke-width="0.3" stroke-dasharray="1.2,0.8"/>
<line x1="92.995" y1="238.596" x2="78.952" y2="235.684" stroke="#8c8c8c" stroke-width="0.3" stroke-dasharray="1.2,0.8"/>
<line x1="92.995" y1="238.596" x2="111.059" y2="168.205" stroke="#8c8c8c" stroke-width="0.3" stroke-dasharray="1.2,0.8"/>
<line x1="44.257" y1="134.62" x2="58.051" y2="127.977" stroke="#8c8c8c" stroke-width="0.3" stroke-dasharray="1.2,0.8"/>
<line x1="32.712" y1="236.396" x2="22.502" y2="238.569" stroke="#8c8c8c" stroke-width="0.3" stroke-dasharray="1.2,0.8"/>
<line x1="40.85" y1="149.546" x2="44.257" y2="134.62" stroke="#8c8c8c" stroke-width="0.3" stroke-dasharray="1.2,0.8"/>
<line x1="43.044" y1="234.912" x2="32.712" y2="236.396" stroke="#8c8c8c" stroke-width="0.3" stroke-dasharray="1.2,0.8"/>
<line x1="35.129" y1="162.673" x2="50.396" y2="161.516" stroke="#141414" stroke-width="0.4"/>
<line x1="65.706" y1="161.516" x2="80.979" y2="162.576" stroke="#141414" stroke-width="0.4"/>
<line x1="59.344" y1="234.069" x2="43.045" y2="234.912" stroke="#141414" stroke-width="0.4"/>
<line x1="80.979" y1="162.576" x2="96.117" y2="164.87" stroke="#141414" stroke-width="0.4"/>
<line x1="96.117" y1="164.87" x2="111.059" y2="168.205" stroke="#141414" stroke-width="0.4"/>
<line x1="92.995" y1="238.596" x2="78.952" y2="235.684" stroke="#141414" stroke-width="0.4"/>
<line x1="78.952" y1="235.684" x2="78.065" y2="249.998" stroke="#141414" stroke-width="0.4"/>
<line x1="111.059" y1="168.205" x2="92.995" y2="238.596" stroke="#141414" stroke-width="0.4"/>
<line x1="22.502" y1="238.569" x2="5.0" y2="168.037" stroke="#141414" stroke-width="0.4"/>
<line x1="5.0" y1="168.037" x2="19.975" y2="164.85" stroke="#141414" stroke-width="0.4"/>
<line x1="78.065" y1="249.998" x2="68.757" y2="254.722" stroke="#141414" stroke-width="0.4"/>
<line x1="19.975" y1="164.85" x2="35.129" y2="162.673" stroke="#141414" stroke-width="0.4"/>
<line x1="68.757" y1="254.722" x2="59.259" y2="250.39" stroke="#141414" stroke-width="0.4"/>
<line x1="50.396" y1="161.516" x2="40.914" y2="160.854" stroke="#141414" stroke-width="0.4"/>
<line x1="40.914" y1="160.854" x2="39.386" y2="158.938" stroke="#141414" stroke-width="0.4"/>
<line x1="39.386" y1="158.938" x2="40.85" y2="149.546" stroke="#141414" stroke-width="0.4"/>
<line x1="65.706" y1="161.516" x2="75.188" y2="160.854" stroke="#141414" stroke-width="0.4"/>
<line x1="75.188" y1="160.854" x2="76.715" y2="158.938" stroke="#141414" stroke-width="0.4"/>
<line x1="76.715" y1="158.938" x2="75.252" y2="149.546" stroke="#141414" stroke-width="0.4"/>
<line x1="59.344" y1="234.069" x2="52.331" y2="236.481" stroke="#141414" stroke-width="0.4"/>
<line x1="52.331" y1="236.481" x2="52.272" y2="247.905" stroke="#141414" stroke-width="0.4"/>
<line x1="52.272" y1="247.905" x2="59.259" y2="250.39" stroke="#141414" stroke-width="0.4"/>
<line x1="75.252" y1="149.546" x2="81.565" y2="145.75" stroke="#141414" stroke-width="0.4"/>
<line x1="81.565" y1="145.75" x2="79.18" y2="135.302" stroke="#141414" stroke-width="0.4"/>
<line x1="79.18" y1="135.302" x2="71.845" y2="134.62" stroke="#141414" stroke-width="0.4"/>
<line x1="71.845" y1="134.62" x2="72.813" y2="127.317" stroke="#141414" stroke-width="0.4"/>
<line x1="72.813" y1="127.317" x2="63.157" y2="122.667" stroke="#141414" stroke-width="0.4"/>
<line x1="63.157" y1="122.667" x2="58.051" y2="127.977" stroke="#141414" stroke-width="0.4"/>
<line x1="78.952" y1="235.684" x2="79.637" y2="242.975" stroke="#141414" stroke-width="0.4"/>
<line x1="79.637" y1="242.975" x2="89.467" y2="245.013" stroke="#141414" stroke-width="0.4"/>
<line x1="89.467" y1="245.013" x2="92.995" y2="238.596" stroke="#141414" stroke-width="0.4"/>
<line x1="111.059" y1="168.205" x2="115.13" y2="180.504" stroke="#141414" stroke-width="0.4"/>
<line x1="115.13" y1="180.504" x2="102.485" y2="229.778" stroke="#141414" stroke-width="0.4"/>
<line x1="102.485" y1="229.778" x2="92.995" y2="238.596" stroke="#141414" stroke-width="0.4"/>
<line x1="58.051" y1="127.977" x2="52.945" y2="122.667" stroke="#141414" stroke-width="0.4"/>
<line x1="52.945" y1="122.667" x2="43.289" y2="127.317" stroke="#141414" stroke-width="0.4"/>
<line x1="43.289" y1="127.317" x2="44.257" y2="134.62" stroke="#141414" stroke-width="0.4"/>
<line x1="22.502" y1="238.569" x2="25.12" y2="243.349" stroke="#141414" stroke-width="0.4"/>
<line x1="25.12" y1="243.349" x2="32.267" y2="241.827" stroke="#141414" stroke-width="0.4"/>
<line x1="32.267" y1="241.827" x2="32.712" y2="236.396" stroke="#141414" stroke-width="0.4"/>
<line x1="44.257" y1="134.62" x2="36.921" y2="135.301" stroke="#141414" stroke-width="0.4"/>
<line x1="36.921" y1="135.301" x2="34.537" y2="145.75" stroke="#141414" stroke-width="0.4"/>
<line x1="34.537" y1="145.75" x2="40.85" y2="149.546" stroke="#141414" stroke-width="0.4"/>
<line x1="32.712" y1="236.396" x2="35.004" y2="241.34" stroke="#141414" stroke-width="0.4"/>
<line x1="35.004" y1="241.34" x2="42.237" y2="240.301" stroke="#141414" stroke-width="0.4"/>
<line x1="42.237" y1="240.301" x2="43.044" y2="234.912" stroke="#141414" stroke-width="0.4"/>
<circle cx="42.886" cy="157.714" r="1.99" fill="#ffe082" stroke="#464646" stroke-width="0.2"/>
<text x="42.886" y="158.40" font-size="1.95" text-anchor="middle" fill="#141414">79</text>
<circle cx="73.215" cy="157.714" r="1.99" fill="#ffe082" stroke="#464646" stroke-width="0.2"/>
<text x="73.215" y="158.40" font-size="1.95" text-anchor="middle" fill="#141414">80</text>
<circle cx="55.801" cy="242.211" r="1.99" fill="#ffe082" stroke="#464646" stroke-width="0.2"/>
<text x="55.801" y="242.89" font-size="1.95" text-anchor="middle" fill="#141414">81</text>
<circle cx="76.961" cy="141.305" r="1.99" fill="#ffe082" stroke="#464646" stroke-width="0.2"/>
<text x="76.961" y="141.99" font-size="1.95" text-anchor="middle" fill="#141414">82</text>
<circle cx="66.466" cy="128.145" r="1.99" fill="#ffe082" stroke="#464646" stroke-width="0.2"/>
<text x="66.466" y="128.83" font-size="1.95" text-anchor="middle" fill="#141414">83</text>
<circle cx="85.263" cy="240.567" r="1.99" fill="#99d9fa" stroke="#464646" stroke-width="0.2"/>
<text x="85.263" y="241.25" font-size="1.95" text-anchor="middle" fill="#141414">84</text>
<circle cx="105.417" cy="204.271" r="1.99" fill="#ffe082" stroke="#464646" stroke-width="0.2"/>
<text x="105.417" y="204.95" font-size="1.95" text-anchor="middle" fill="#141414">85</text>
<circle cx="49.635" cy="128.145" r="1.99" fill="#ffe082" stroke="#464646" stroke-width="0.2"/>
<text x="49.635" y="128.83" font-size="1.95" text-anchor="middle" fill="#141414">86</text>
<circle cx="28.15" cy="240.035" r="1.99" fill="#ffe082" stroke="#464646" stroke-width="0.2"/>
<text x="28.15" y="240.72" font-size="1.95" text-anchor="middle" fill="#141414">87</text>
<circle cx="39.141" cy="141.305" r="1.99" fill="#ffe082" stroke="#464646" stroke-width="0.2"/>
<text x="39.141" y="141.99" font-size="1.95" text-anchor="middle" fill="#141414">88</text>
<circle cx="38.249" cy="238.237" r="1.99" fill="#ffe082" stroke="#464646" stroke-width="0.2"/>
<text x="38.249" y="238.92" font-size="1.95" text-anchor="middle" fill="#141414">89</text>
<circle cx="95.376" cy="189.586" r="3.98" fill="#eaf1fe" stroke="#2e78e6" stroke-width="0.3"/>
<text x="95.376" y="191.14" font-size="4.50" text-anchor="middle" fill="#14306e" font-weight="bold">5</text>
<text x="205.0" y="295.0" font-size="3.2" text-anchor="end" fill="#737373" font-family="sans-serif">3 / 4</text>
<g pointer-events="none"><text x="105.0" y="83.2" text-anchor="middle" font-family="sans-serif" font-size="12.4" fill="#9aa0a6" fill-opacity="0.3" transform="rotate(-28 105.0 83.2)">papercraft.kr</text><text x="105.0" y="148.5" text-anchor="middle" font-family="sans-serif" font-size="12.4" fill="#9aa0a6" fill-opacity="0.3" transform="rotate(-28 105.0 148.5)">papercraft.kr</text><text x="105.0" y="213.8" text-anchor="middle" font-family="sans-serif" font-size="12.4" fill="#9aa0a6" fill-opacity="0.3" transform="rotate(-28 105.0 213.8)">papercraft.kr</text></g></svg>
