<svg xmlns="http://www.w3.org/2000/svg" xmlns:xlink="http://www.w3.org/1999/xlink" width="210.00mm" height="297.00mm" viewBox="0 0 210.00 297.00">
<rect x="0" y="0" width="210.00" height="297.00" fill="#ffffff" stroke="#cccccc" stroke-width="0.2"/>
<polygon points="16.553,121.806 11.28,118.558 10.934,102.863 16.059,99.385" fill="rgb(216,216,216)"/>
<polygon points="16.553,121.806 23.601,123.731 44.324,111.719 46.156,104.646" fill="rgb(216,216,216)"/>
<polygon points="5.0,92.603 15.479,90.247 18.155,87.869 21.725,77.74" fill="rgb(216,216,216)"/>
<polygon points="101.755,104.195 108.067,102.54 115.102,85.539 111.805,79.908" fill="rgb(216,216,216)"/>
<polygon points="111.805,79.908 111.453,71.939 92.124,51.369 84.193,50.522" fill="rgb(216,216,216)"/>
<polygon points="45.142,161.243 48.917,170.916 81.683,197.096 91.95,198.644" fill="rgb(216,216,216)"/>
<polygon points="54.442,67.758 56.298,60.673 77.123,48.608 84.193,50.522" fill="rgb(216,216,216)"/>
<polygon points="54.442,67.758 51.281,39.867 48.184,29.826 35.085,5.0" fill="rgb(216,216,216)"/>
<polygon points="91.95,198.644 105.451,193.825 152.565,152.997 159.256,140.319" fill="rgb(216,216,216)"/>
<polygon points="101.755,104.195 108.067,102.54 115.102,85.539 111.805,79.908" fill="#99d9fa"/>
<line x1="101.755" y1="104.195" x2="46.156" y2="104.647" stroke="#8c8c8c" stroke-width="0.3" stroke-dasharray="1.2,0.8"/>
<line x1="101.755" y1="104.195" x2="76.961" y2="137.867" stroke="#8c8c8c" stroke-width="0.3" stroke-dasharray="1.2,0.8"/>
<line x1="54.442" y1="67.758" x2="101.755" y2="104.195" stroke="#8c8c8c" stroke-width="0.3" stroke-dasharray="1.2,0.8"/>
<line x1="46.156" y1="104.647" x2="21.725" y2="77.74" stroke="#8c8c8c" stroke-width="0.3" stroke-dasharray="1.2,0.8"/>
<line x1="14.909" y1="40.271" x2="21.725" y2="77.74" stroke="#8c8c8c" stroke-width="0.3" stroke-dasharray="1.2,0.8"/>
<line x1="21.725" y1="77.74" x2="54.442" y2="67.758" stroke="#8c8c8c" stroke-width="0.3" stroke-dasharray="1.2,0.8"/>
<line x1="76.961" y1="137.867" x2="112.245" y2="128.296" stroke="#8c8c8c" stroke-width="0.3" stroke-dasharray="1.2,0.8"/>
<line x1="76.961" y1="137.867" x2="45.142" y2="161.243" stroke="#8c8c8c" stroke-width="0.3" stroke-dasharray="1.2,0.8"/>
<line x1="111.805" y1="79.908" x2="54.442" y2="67.758" stroke="#8c8c8c" stroke-width="0.3" stroke-dasharray="1.2,0.8"/>
<line x1="45.142" y1="161.243" x2="88.997" y2="161.243" stroke="#8c8c8c" stroke-width="0.3" stroke-dasharray="1.2,0.8"/>
<line x1="16.059" y1="99.385" x2="46.156" y2="104.647" stroke="#8c8c8c" stroke-width="0.3" stroke-dasharray="1.2,0.8"/>
<line x1="88.997" y1="161.243" x2="76.961" y2="137.867" stroke="#8c8c8c" stroke-width="0.3" stroke-dasharray="1.2,0.8"/>
<line x1="54.442" y1="67.758" x2="14.909" y2="40.271" stroke="#8c8c8c" stroke-width="0.3" stroke-dasharray="1.2,0.8"/>
<line x1="88.997" y1="161.243" x2="91.95" y2="198.644" stroke="#8c8c8c" stroke-width="0.3" stroke-dasharray="1.2,0.8"/>
<line x1="16.059" y1="99.385" x2="16.553" y2="121.806" stroke="#8c8c8c" stroke-width="0.3" stroke-dasharray="1.2,0.8"/>
<line x1="46.156" y1="104.646" x2="16.553" y2="121.806" stroke="#8c8c8c" stroke-width="0.3" stroke-dasharray="1.2,0.8"/>
<line x1="21.725" y1="77.74" x2="5.0" y2="92.603" stroke="#8c8c8c" stroke-width="0.3" stroke-dasharray="1.2,0.8"/>
<line x1="111.805" y1="79.908" x2="101.755" y2="104.195" stroke="#8c8c8c" stroke-width="0.3" stroke-dasharray="1.2,0.8"/>
<line x1="84.193" y1="50.522" x2="111.805" y2="79.908" stroke="#8c8c8c" stroke-width="0.3" stroke-dasharray="1.2,0.8"/>
<line x1="91.95" y1="198.644" x2="45.142" y2="161.243" stroke="#8c8c8c" stroke-width="0.3" stroke-dasharray="1.2,0.8"/>
<line x1="84.193" y1="50.522" x2="54.442" y2="67.758" stroke="#8c8c8c" stroke-width="0.3" stroke-dasharray="1.2,0.8"/>
<line x1="35.085" y1="5.0" x2="54.442" y2="67.758" stroke="#8c8c8c" stroke-width="0.3" stroke-dasharray="1.2,0.8"/>
<line x1="159.256" y1="140.319" x2="91.95" y2="198.644" stroke="#8c8c8c" stroke-width="0.3" stroke-dasharray="1.2,0.8"/>
<line x1="16.059" y1="99.385" x2="21.725" y2="77.74" stroke="#141414" stroke-width="0.4"/>
<line x1="5.0" y1="92.603" x2="14.909" y2="40.271" stroke="#141414" stroke-width="0.4"/>
<line x1="101.755" y1="104.195" x2="112.245" y2="128.296" stroke="#141414" stroke-width="0.4"/>
<line x1="76.961" y1="137.867" x2="46.156" y2="104.647" stroke="#141414" stroke-width="0.4"/>
<line x1="38.354" y1="133.364" x2="76.961" y2="137.867" stroke="#141414" stroke-width="0.4"/>
<line x1="45.142" y1="161.243" x2="38.354" y2="133.364" stroke="#141414" stroke-width="0.4"/>
<line x1="112.245" y1="128.296" x2="88.997" y2="161.243" stroke="#141414" stroke-width="0.4"/>
<line x1="14.909" y1="40.271" x2="35.085" y2="5.0" stroke="#141414" stroke-width="0.4"/>
<line x1="88.997" y1="161.243" x2="159.256" y2="140.319" stroke="#141414" stroke-width="0.4"/>
<line x1="16.553" y1="121.806" x2="11.28" y2="118.558" stroke="#141414" stroke-width="0.4"/>
<line x1="11.28" y1="118.558" x2="10.934" y2="102.863" stroke="#141414" stroke-width="0.4"/>
<line x1="10.934" y1="102.863" x2="16.059" y2="99.385" stroke="#141414" stroke-width="0.4"/>
<line x1="16.553" y1="121.806" x2="23.601" y2="123.731" stroke="#141414" stroke-width="0.4"/>
<line x1="23.601" y1="123.731" x2="44.324" y2="111.719" stroke="#141414" stroke-width="0.4"/>
<line x1="44.324" y1="111.719" x2="46.156" y2="104.646" stroke="#141414" stroke-width="0.4"/>
<line x1="5.0" y1="92.603" x2="15.479" y2="90.247" stroke="#141414" stroke-width="0.4"/>
<line x1="15.479" y1="90.247" x2="18.155" y2="87.869" stroke="#141414" stroke-width="0.4"/>
<line x1="18.155" y1="87.869" x2="21.725" y2="77.74" stroke="#141414" stroke-width="0.4"/>
<line x1="101.755" y1="104.195" x2="108.067" y2="102.54" stroke="#141414" stroke-width="0.4"/>
<line x1="108.067" y1="102.54" x2="115.102" y2="85.539" stroke="#141414" stroke-width="0.4"/>
<line x1="115.102" y1="85.539" x2="111.805" y2="79.908" stroke="#141414" stroke-width="0.4"/>
<line x1="111.805" y1="79.908" x2="111.453" y2="71.939" stroke="#141414" stroke-width="0.4"/>
<line x1="111.453" y1="71.939" x2="92.124" y2="51.369" stroke="#141414" stroke-width="0.4"/>
<line x1="92.124" y1="51.369" x2="84.193" y2="50.522" stroke="#141414" stroke-width="0.4"/>
<line x1="45.142" y1="161.243" x2="48.917" y2="170.916" stroke="#141414" stroke-width="0.4"/>
<line x1="48.917" y1="170.916" x2="81.683" y2="197.096" stroke="#141414" stroke-width="0.4"/>
<line x1="81.683" y1="197.096" x2="91.95" y2="198.644" stroke="#141414" stroke-width="0.4"/>
<line x1="54.442" y1="67.758" x2="56.298" y2="60.673" stroke="#141414" stroke-width="0.4"/>
<line x1="56.298" y1="60.673" x2="77.123" y2="48.608" stroke="#141414" stroke-width="0.4"/>
<line x1="77.123" y1="48.608" x2="84.193" y2="50.522" stroke="#141414" stroke-width="0.4"/>
<line x1="54.442" y1="67.758" x2="51.281" y2="39.867" stroke="#141414" stroke-width="0.4"/>
<line x1="51.281" y1="39.867" x2="48.184" y2="29.826" stroke="#141414" stroke-width="0.4"/>
<line x1="48.184" y1="29.826" x2="35.085" y2="5.0" stroke="#141414" stroke-width="0.4"/>
<line x1="91.95" y1="198.644" x2="105.451" y2="193.825" stroke="#141414" stroke-width="0.4"/>
<line x1="105.451" y1="193.825" x2="152.565" y2="152.997" stroke="#141414" stroke-width="0.4"/>
<line x1="152.565" y1="152.997" x2="159.256" y2="140.319" stroke="#141414" stroke-width="0.4"/>
<circle cx="13.707" cy="110.653" r="2.29" fill="#ffe082" stroke="#464646" stroke-width="0.2"/>
<text x="13.707" y="111.74" font-size="3.11" text-anchor="middle" fill="#141414">28</text>
<circle cx="32.659" cy="115.476" r="2.29" fill="#ffe082" stroke="#464646" stroke-width="0.2"/>
<text x="32.659" y="116.56" font-size="3.11" text-anchor="middle" fill="#141414">29</text>
<circle cx="15.09" cy="87.115" r="2.29" fill="#ffe082" stroke="#464646" stroke-width="0.2"/>
<text x="15.09" y="88.20" font-size="3.11" text-anchor="middle" fill="#141414">31</text>
<circle cx="109.182" cy="93.046" r="2.29" fill="#99d9fa" stroke="#464646" stroke-width="0.2"/>
<text x="109.182" y="94.13" font-size="3.11" text-anchor="middle" fill="#141414">33</text>
<circle cx="99.894" cy="63.434" r="2.29" fill="#ffe082" stroke="#464646" stroke-width="0.2"/>
<text x="99.894" y="64.52" font-size="3.11" text-anchor="middle" fill="#141414">39</text>
<circle cx="66.923" cy="181.975" r="2.29" fill="#ffe082" stroke="#464646" stroke-width="0.2"/>
<text x="66.923" y="183.06" font-size="3.11" text-anchor="middle" fill="#141414">40</text>
<circle cx="68.014" cy="56.89" r="2.29" fill="#ffe082" stroke="#464646" stroke-width="0.2"/>
<text x="68.014" y="57.98" font-size="3.11" text-anchor="middle" fill="#141414">43</text>
<circle cx="47.248" cy="35.613" r="2.29" fill="#ffe082" stroke="#464646" stroke-width="0.2"/>
<text x="47.248" y="36.70" font-size="3.11" text-anchor="middle" fill="#141414">44</text>
<circle cx="127.306" cy="171.446" r="2.29" fill="#ffe082" stroke="#464646" stroke-width="0.2"/>
<text x="127.306" y="172.53" font-size="3.11" text-anchor="middle" fill="#141414">47</text>
<circle cx="113.401" cy="166.735" r="4.60" fill="#eaf1fe" stroke="#2e78e6" stroke-width="0.3"/>
<text x="113.401" y="168.54" font-size="5.20" text-anchor="middle" fill="#14306e" font-weight="bold">4</text>
<text x="205.0" y="295.0" font-size="3.2" text-anchor="end" fill="#737373" font-family="sans-serif">4 / 6</text>
<g pointer-events="none"><text x="105.0" y="83.2" text-anchor="middle" font-family="sans-serif" font-size="12.4" fill="#9aa0a6" fill-opacity="0.3" transform="rotate(-28 105.0 83.2)">papercraft.kr</text><text x="105.0" y="148.5" text-anchor="middle" font-family="sans-serif" font-size="12.4" fill="#9aa0a6" fill-opacity="0.3" transform="rotate(-28 105.0 148.5)">papercraft.kr</text><text x="105.0" y="213.8" text-anchor="middle" font-family="sans-serif" font-size="12.4" fill="#9aa0a6" fill-opacity="0.3" transform="rotate(-28 105.0 213.8)">papercraft.kr</text></g></svg>
