<svg xmlns="http://www.w3.org/2000/svg" xmlns:xlink="http://www.w3.org/1999/xlink" width="210.00mm" height="297.00mm" viewBox="0 0 210.00 297.00">
<rect x="0" y="0" width="210.00" height="297.00" fill="#ffffff" stroke="#cccccc" stroke-width="0.2"/>
<polygon points="130.984,92.076 132.868,82.9 119.178,49.214 111.427,43.953" fill="rgb(216,216,216)"/>
<polygon points="79.353,172.563 68.444,167.601 36.169,128.905 33.247,117.282" fill="rgb(216,216,216)"/>
<polygon points="117.962,12.757 105.351,7.557 46.501,7.557 33.89,12.757" fill="rgb(216,216,216)"/>
<polygon points="33.247,117.282 24.589,106.353 7.451,48.461 8.765,34.58" fill="rgb(216,216,216)"/>
<polygon points="54.43,78.074 44.317,61.26 26.051,43.863 8.765,34.58" fill="rgb(216,216,216)"/>
<line x1="94.147" y1="103.572" x2="111.427" y2="43.953" stroke="#8c8c8c" stroke-width="0.3" stroke-dasharray="1.2,0.8"/>
<line x1="65.513" y1="104.966" x2="33.247" y2="117.282" stroke="#8c8c8c" stroke-width="0.3" stroke-dasharray="1.2,0.8"/>
<line x1="65.513" y1="104.966" x2="54.43" y2="78.073" stroke="#8c8c8c" stroke-width="0.3" stroke-dasharray="1.2,0.8"/>
<line x1="77.587" y1="42.226" x2="111.427" y2="43.953" stroke="#8c8c8c" stroke-width="0.3" stroke-dasharray="1.2,0.8"/>
<line x1="71.432" y1="64.893" x2="77.587" y2="42.226" stroke="#8c8c8c" stroke-width="0.3" stroke-dasharray="1.2,0.8"/>
<line x1="54.43" y1="78.073" x2="71.432" y2="64.893" stroke="#8c8c8c" stroke-width="0.3" stroke-dasharray="1.2,0.8"/>
<line x1="41.667" y1="45.519" x2="71.432" y2="64.893" stroke="#8c8c8c" stroke-width="0.3" stroke-dasharray="1.2,0.8"/>
<line x1="77.587" y1="42.226" x2="33.89" y2="12.757" stroke="#8c8c8c" stroke-width="0.3" stroke-dasharray="1.2,0.8"/>
<line x1="111.427" y1="43.953" x2="71.432" y2="64.893" stroke="#8c8c8c" stroke-width="0.3" stroke-dasharray="1.2,0.8"/>
<line x1="117.962" y1="12.757" x2="77.587" y2="42.226" stroke="#8c8c8c" stroke-width="0.3" stroke-dasharray="1.2,0.8"/>
<line x1="54.43" y1="78.073" x2="33.247" y2="117.282" stroke="#8c8c8c" stroke-width="0.3" stroke-dasharray="1.2,0.8"/>
<line x1="111.427" y1="43.953" x2="130.984" y2="92.076" stroke="#8c8c8c" stroke-width="0.3" stroke-dasharray="1.2,0.8"/>
<line x1="33.247" y1="117.282" x2="79.353" y2="172.563" stroke="#8c8c8c" stroke-width="0.3" stroke-dasharray="1.2,0.8"/>
<line x1="33.89" y1="12.757" x2="117.962" y2="12.757" stroke="#8c8c8c" stroke-width="0.3" stroke-dasharray="1.2,0.8"/>
<line x1="8.765" y1="34.58" x2="33.247" y2="117.282" stroke="#8c8c8c" stroke-width="0.3" stroke-dasharray="1.2,0.8"/>
<line x1="8.765" y1="34.58" x2="54.43" y2="78.074" stroke="#8c8c8c" stroke-width="0.3" stroke-dasharray="1.2,0.8"/>
<line x1="130.984" y1="92.076" x2="94.147" y2="103.572" stroke="#141414" stroke-width="0.4"/>
<line x1="94.147" y1="103.572" x2="71.432" y2="64.893" stroke="#141414" stroke-width="0.4"/>
<line x1="65.513" y1="104.966" x2="79.353" y2="172.563" stroke="#141414" stroke-width="0.4"/>
<line x1="71.432" y1="64.893" x2="65.513" y2="104.966" stroke="#141414" stroke-width="0.4"/>
<line x1="117.962" y1="12.757" x2="111.427" y2="43.953" stroke="#141414" stroke-width="0.4"/>
<line x1="27.232" y1="36.586" x2="33.89" y2="12.757" stroke="#141414" stroke-width="0.4"/>
<line x1="77.587" y1="42.226" x2="27.232" y2="36.586" stroke="#141414" stroke-width="0.4"/>
<line x1="41.667" y1="45.519" x2="77.587" y2="42.226" stroke="#141414" stroke-width="0.4"/>
<line x1="54.43" y1="78.073" x2="41.667" y2="45.519" stroke="#141414" stroke-width="0.4"/>
<line x1="130.984" y1="92.076" x2="132.868" y2="82.9" stroke="#141414" stroke-width="0.4"/>
<line x1="132.868" y1="82.9" x2="119.178" y2="49.214" stroke="#141414" stroke-width="0.4"/>
<line x1="119.178" y1="49.214" x2="111.427" y2="43.953" stroke="#141414" stroke-width="0.4"/>
<line x1="79.353" y1="172.563" x2="68.444" y2="167.601" stroke="#141414" stroke-width="0.4"/>
<line x1="68.444" y1="167.601" x2="36.169" y2="128.905" stroke="#141414" stroke-width="0.4"/>
<line x1="36.169" y1="128.905" x2="33.247" y2="117.282" stroke="#141414" stroke-width="0.4"/>
<line x1="117.962" y1="12.757" x2="105.351" y2="7.557" stroke="#141414" stroke-width="0.4"/>
<line x1="105.351" y1="7.557" x2="46.501" y2="7.557" stroke="#141414" stroke-width="0.4"/>
<line x1="46.501" y1="7.557" x2="33.89" y2="12.757" stroke="#141414" stroke-width="0.4"/>
<line x1="33.247" y1="117.282" x2="24.589" y2="106.353" stroke="#141414" stroke-width="0.4"/>
<line x1="24.589" y1="106.353" x2="7.451" y2="48.461" stroke="#141414" stroke-width="0.4"/>
<line x1="7.451" y1="48.461" x2="8.765" y2="34.58" stroke="#141414" stroke-width="0.4"/>
<line x1="54.43" y1="78.074" x2="44.317" y2="61.26" stroke="#141414" stroke-width="0.4"/>
<line x1="44.317" y1="61.26" x2="26.051" y2="43.863" stroke="#141414" stroke-width="0.4"/>
<line x1="26.051" y1="43.863" x2="8.765" y2="34.58" stroke="#141414" stroke-width="0.4"/>
<circle cx="123.614" cy="67.036" r="2.29" fill="#ffe082" stroke="#464646" stroke-width="0.2"/>
<text x="123.614" y="68.12" font-size="3.11" text-anchor="middle" fill="#141414">5</text>
<circle cx="54.303" cy="146.588" r="2.29" fill="#ffe082" stroke="#464646" stroke-width="0.2"/>
<text x="54.303" y="147.67" font-size="3.11" text-anchor="middle" fill="#141414">11</text>
<circle cx="75.926" cy="10.157" r="2.29" fill="#ffe082" stroke="#464646" stroke-width="0.2"/>
<text x="75.926" y="11.24" font-size="3.11" text-anchor="middle" fill="#141414">13</text>
<circle cx="18.513" cy="76.669" r="2.29" fill="#ffe082" stroke="#464646" stroke-width="0.2"/>
<text x="18.513" y="77.76" font-size="3.11" text-anchor="middle" fill="#141414">19</text>
<circle cx="33.391" cy="54.444" r="2.29" fill="#ffe082" stroke="#464646" stroke-width="0.2"/>
<text x="33.391" y="55.53" font-size="3.11" text-anchor="middle" fill="#141414">21</text>
<circle cx="63.562" cy="50.88" r="4.60" fill="#eaf1fe" stroke="#2e78e6" stroke-width="0.3"/>
<text x="63.562" y="52.68" font-size="5.20" text-anchor="middle" fill="#14306e" font-weight="bold">4</text>
<text x="205.0" y="295.0" font-size="3.2" text-anchor="end" fill="#737373" font-family="sans-serif">4 / 9</text>
<g pointer-events="none"><text x="105.0" y="83.2" text-anchor="middle" font-family="sans-serif" font-size="12.4" fill="#9aa0a6" fill-opacity="0.3" transform="rotate(-28 105.0 83.2)">papercraft.kr</text><text x="105.0" y="148.5" text-anchor="middle" font-family="sans-serif" font-size="12.4" fill="#9aa0a6" fill-opacity="0.3" transform="rotate(-28 105.0 148.5)">papercraft.kr</text><text x="105.0" y="213.8" text-anchor="middle" font-family="sans-serif" font-size="12.4" fill="#9aa0a6" fill-opacity="0.3" transform="rotate(-28 105.0 213.8)">papercraft.kr</text></g></svg>
