<svg xmlns="http://www.w3.org/2000/svg" xmlns:xlink="http://www.w3.org/1999/xlink" width="210.00mm" height="297.00mm" viewBox="0 0 210.00 297.00">
<rect x="0" y="0" width="210.00" height="297.00" fill="#ffffff" stroke="#cccccc" stroke-width="0.2"/>
<polygon points="53.082,123.391 43.647,126.558 28.786,156.043 31.852,165.512" fill="rgb(216,216,216)"/>
<polygon points="31.852,165.512 49.02,169.256 55.044,168.066 69.499,158.076" fill="rgb(216,216,216)"/>
<polygon points="11.225,101.646 22.96,88.567 28.541,86.009 46.109,85.656" fill="rgb(216,216,216)"/>
<polygon points="8.523,77.922 7.436,67.724 28.464,39.774 38.564,37.993" fill="rgb(216,216,216)"/>
<polygon points="162.456,159.027 165.523,168.496 150.662,197.98 141.227,201.148" fill="rgb(216,216,216)"/>
<polygon points="162.456,159.027 145.289,155.283 139.265,156.473 124.81,166.463" fill="rgb(216,216,216)"/>
<polygon points="120.949,30.51 109.214,43.589 103.633,46.148 86.065,46.5" fill="rgb(216,216,216)"/>
<polygon points="143.577,94.163 128.587,87.163 108.6,87.163 93.61,94.163" fill="rgb(216,216,216)"/>
<polygon points="143.577,94.163 135.513,108.609 119.303,120.3 103.05,123.391" fill="rgb(216,216,216)"/>
<polygon points="79.092,8.765 68.918,7.472 40.549,27.931 38.564,37.993" fill="rgb(216,216,216)"/>
<polygon points="141.227,201.148 126.236,208.148 106.249,208.148 91.259,201.148" fill="rgb(216,216,216)"/>
<polygon points="11.225,101.646 22.96,88.567 28.541,86.009 46.109,85.656" fill="#99d9fa"/>
<line x1="69.499" y1="158.076" x2="53.082" y2="123.391" stroke="#8c8c8c" stroke-width="0.3" stroke-dasharray="1.2,0.8"/>
<line x1="46.109" y1="85.656" x2="53.082" y2="123.391" stroke="#8c8c8c" stroke-width="0.3" stroke-dasharray="1.2,0.8"/>
<line x1="93.61" y1="94.163" x2="53.082" y2="123.391" stroke="#8c8c8c" stroke-width="0.3" stroke-dasharray="1.2,0.8"/>
<line x1="53.082" y1="123.391" x2="103.05" y2="123.391" stroke="#8c8c8c" stroke-width="0.3" stroke-dasharray="1.2,0.8"/>
<line x1="91.259" y1="201.148" x2="43.538" y2="186.335" stroke="#8c8c8c" stroke-width="0.3" stroke-dasharray="1.2,0.8"/>
<line x1="124.81" y1="166.463" x2="141.227" y2="201.148" stroke="#8c8c8c" stroke-width="0.3" stroke-dasharray="1.2,0.8"/>
<line x1="86.065" y1="46.5" x2="79.091" y2="8.765" stroke="#8c8c8c" stroke-width="0.3" stroke-dasharray="1.2,0.8"/>
<line x1="124.81" y1="166.463" x2="69.499" y2="158.076" stroke="#8c8c8c" stroke-width="0.3" stroke-dasharray="1.2,0.8"/>
<line x1="91.259" y1="201.148" x2="124.81" y2="166.463" stroke="#8c8c8c" stroke-width="0.3" stroke-dasharray="1.2,0.8"/>
<line x1="103.05" y1="123.391" x2="124.81" y2="166.463" stroke="#8c8c8c" stroke-width="0.3" stroke-dasharray="1.2,0.8"/>
<line x1="69.499" y1="158.076" x2="91.259" y2="201.148" stroke="#8c8c8c" stroke-width="0.3" stroke-dasharray="1.2,0.8"/>
<line x1="103.05" y1="123.391" x2="69.499" y2="158.076" stroke="#8c8c8c" stroke-width="0.3" stroke-dasharray="1.2,0.8"/>
<line x1="46.109" y1="85.656" x2="86.065" y2="46.5" stroke="#8c8c8c" stroke-width="0.3" stroke-dasharray="1.2,0.8"/>
<line x1="86.065" y1="46.5" x2="38.564" y2="37.993" stroke="#8c8c8c" stroke-width="0.3" stroke-dasharray="1.2,0.8"/>
<line x1="86.065" y1="46.5" x2="93.61" y2="94.163" stroke="#8c8c8c" stroke-width="0.3" stroke-dasharray="1.2,0.8"/>
<line x1="38.564" y1="37.993" x2="46.109" y2="85.656" stroke="#8c8c8c" stroke-width="0.3" stroke-dasharray="1.2,0.8"/>
<line x1="46.109" y1="85.656" x2="93.61" y2="94.163" stroke="#8c8c8c" stroke-width="0.3" stroke-dasharray="1.2,0.8"/>
<line x1="73.579" y1="226.263" x2="91.259" y2="201.148" stroke="#8c8c8c" stroke-width="0.3" stroke-dasharray="1.2,0.8"/>
<line x1="93.61" y1="94.163" x2="103.05" y2="123.391" stroke="#8c8c8c" stroke-width="0.3" stroke-dasharray="1.2,0.8"/>
<line x1="31.852" y1="165.512" x2="53.082" y2="123.391" stroke="#8c8c8c" stroke-width="0.3" stroke-dasharray="1.2,0.8"/>
<line x1="69.499" y1="158.076" x2="31.852" y2="165.512" stroke="#8c8c8c" stroke-width="0.3" stroke-dasharray="1.2,0.8"/>
<line x1="46.109" y1="85.656" x2="11.225" y2="101.646" stroke="#8c8c8c" stroke-width="0.3" stroke-dasharray="1.2,0.8"/>
<line x1="38.564" y1="37.993" x2="8.523" y2="77.922" stroke="#8c8c8c" stroke-width="0.3" stroke-dasharray="1.2,0.8"/>
<line x1="141.227" y1="201.148" x2="162.456" y2="159.027" stroke="#8c8c8c" stroke-width="0.3" stroke-dasharray="1.2,0.8"/>
<line x1="124.81" y1="166.463" x2="162.456" y2="159.027" stroke="#8c8c8c" stroke-width="0.3" stroke-dasharray="1.2,0.8"/>
<line x1="86.065" y1="46.5" x2="120.949" y2="30.51" stroke="#8c8c8c" stroke-width="0.3" stroke-dasharray="1.2,0.8"/>
<line x1="93.61" y1="94.163" x2="143.577" y2="94.163" stroke="#8c8c8c" stroke-width="0.3" stroke-dasharray="1.2,0.8"/>
<line x1="103.05" y1="123.391" x2="143.577" y2="94.163" stroke="#8c8c8c" stroke-width="0.3" stroke-dasharray="1.2,0.8"/>
<line x1="38.564" y1="37.993" x2="79.092" y2="8.765" stroke="#8c8c8c" stroke-width="0.3" stroke-dasharray="1.2,0.8"/>
<line x1="91.259" y1="201.148" x2="141.227" y2="201.148" stroke="#8c8c8c" stroke-width="0.3" stroke-dasharray="1.2,0.8"/>
<line x1="53.082" y1="123.391" x2="11.225" y2="101.646" stroke="#141414" stroke-width="0.4"/>
<line x1="43.538" y1="186.335" x2="69.499" y2="158.076" stroke="#141414" stroke-width="0.4"/>
<line x1="46.109" y1="85.656" x2="8.523" y2="77.921" stroke="#141414" stroke-width="0.4"/>
<line x1="73.579" y1="226.263" x2="43.538" y2="186.335" stroke="#141414" stroke-width="0.4"/>
<line x1="79.091" y1="8.765" x2="120.949" y2="30.511" stroke="#141414" stroke-width="0.4"/>
<line x1="150.771" y1="138.204" x2="124.81" y2="166.463" stroke="#141414" stroke-width="0.4"/>
<line x1="86.065" y1="46.5" x2="123.651" y2="54.235" stroke="#141414" stroke-width="0.4"/>
<line x1="123.651" y1="54.235" x2="93.61" y2="94.163" stroke="#141414" stroke-width="0.4"/>
<line x1="103.05" y1="123.391" x2="150.771" y2="138.204" stroke="#141414" stroke-width="0.4"/>
<line x1="121.3" y1="241.076" x2="73.579" y2="226.263" stroke="#141414" stroke-width="0.4"/>
<line x1="91.259" y1="201.148" x2="121.3" y2="241.076" stroke="#141414" stroke-width="0.4"/>
<line x1="53.082" y1="123.391" x2="43.647" y2="126.558" stroke="#141414" stroke-width="0.4"/>
<line x1="43.647" y1="126.558" x2="28.786" y2="156.043" stroke="#141414" stroke-width="0.4"/>
<line x1="28.786" y1="156.043" x2="31.852" y2="165.512" stroke="#141414" stroke-width="0.4"/>
<line x1="31.852" y1="165.512" x2="49.02" y2="169.256" stroke="#141414" stroke-width="0.4"/>
<line x1="49.02" y1="169.256" x2="55.044" y2="168.066" stroke="#141414" stroke-width="0.4"/>
<line x1="55.044" y1="168.066" x2="69.499" y2="158.076" stroke="#141414" stroke-width="0.4"/>
<line x1="11.225" y1="101.646" x2="22.96" y2="88.567" stroke="#141414" stroke-width="0.4"/>
<line x1="22.96" y1="88.567" x2="28.541" y2="86.009" stroke="#141414" stroke-width="0.4"/>
<line x1="28.541" y1="86.009" x2="46.109" y2="85.656" stroke="#141414" stroke-width="0.4"/>
<line x1="8.523" y1="77.922" x2="7.436" y2="67.724" stroke="#141414" stroke-width="0.4"/>
<line x1="7.436" y1="67.724" x2="28.464" y2="39.774" stroke="#141414" stroke-width="0.4"/>
<line x1="28.464" y1="39.774" x2="38.564" y2="37.993" stroke="#141414" stroke-width="0.4"/>
<line x1="162.456" y1="159.027" x2="165.523" y2="168.496" stroke="#141414" stroke-width="0.4"/>
<line x1="165.523" y1="168.496" x2="150.662" y2="197.98" stroke="#141414" stroke-width="0.4"/>
<line x1="150.662" y1="197.98" x2="141.227" y2="201.148" stroke="#141414" stroke-width="0.4"/>
<line x1="162.456" y1="159.027" x2="145.289" y2="155.283" stroke="#141414" stroke-width="0.4"/>
<line x1="145.289" y1="155.283" x2="139.265" y2="156.473" stroke="#141414" stroke-width="0.4"/>
<line x1="139.265" y1="156.473" x2="124.81" y2="166.463" stroke="#141414" stroke-width="0.4"/>
<line x1="120.949" y1="30.51" x2="109.214" y2="43.589" stroke="#141414" stroke-width="0.4"/>
<line x1="109.214" y1="43.589" x2="103.633" y2="46.148" stroke="#141414" stroke-width="0.4"/>
<line x1="103.633" y1="46.148" x2="86.065" y2="46.5" stroke="#141414" stroke-width="0.4"/>
<line x1="143.577" y1="94.163" x2="128.587" y2="87.163" stroke="#141414" stroke-width="0.4"/>
<line x1="128.587" y1="87.163" x2="108.6" y2="87.163" stroke="#141414" stroke-width="0.4"/>
<line x1="108.6" y1="87.163" x2="93.61" y2="94.163" stroke="#141414" stroke-width="0.4"/>
<line x1="143.577" y1="94.163" x2="135.513" y2="108.609" stroke="#141414" stroke-width="0.4"/>
<line x1="135.513" y1="108.609" x2="119.303" y2="120.3" stroke="#141414" stroke-width="0.4"/>
<line x1="119.303" y1="120.3" x2="103.05" y2="123.391" stroke="#141414" stroke-width="0.4"/>
<line x1="79.092" y1="8.765" x2="68.918" y2="7.472" stroke="#141414" stroke-width="0.4"/>
<line x1="68.918" y1="7.472" x2="40.549" y2="27.931" stroke="#141414" stroke-width="0.4"/>
<line x1="40.549" y1="27.931" x2="38.564" y2="37.993" stroke="#141414" stroke-width="0.4"/>
<line x1="141.227" y1="201.148" x2="126.236" y2="208.148" stroke="#141414" stroke-width="0.4"/>
<line x1="126.236" y1="208.148" x2="106.249" y2="208.148" stroke="#141414" stroke-width="0.4"/>
<line x1="106.249" y1="208.148" x2="91.259" y2="201.148" stroke="#141414" stroke-width="0.4"/>
<circle cx="39.342" cy="142.876" r="1.61" fill="#ffe082" stroke="#464646" stroke-width="0.2"/>
<text x="39.342" y="143.43" font-size="1.58" text-anchor="middle" fill="#141414">23</text>
<circle cx="51.354" cy="165.228" r="1.61" fill="#ffe082" stroke="#464646" stroke-width="0.2"/>
<text x="51.354" y="165.78" font-size="1.58" text-anchor="middle" fill="#141414">24</text>
<circle cx="27.209" cy="90.469" r="1.61" fill="#99d9fa" stroke="#464646" stroke-width="0.2"/>
<text x="27.209" y="91.02" font-size="1.58" text-anchor="middle" fill="#141414">25</text>
<circle cx="20.747" cy="55.853" r="1.61" fill="#ffe082" stroke="#464646" stroke-width="0.2"/>
<text x="20.747" y="56.41" font-size="1.58" text-anchor="middle" fill="#141414">26</text>
<circle cx="154.967" cy="181.663" r="1.61" fill="#ffe082" stroke="#464646" stroke-width="0.2"/>
<text x="154.967" y="182.22" font-size="1.58" text-anchor="middle" fill="#141414">27</text>
<circle cx="142.955" cy="159.311" r="1.61" fill="#ffe082" stroke="#464646" stroke-width="0.2"/>
<text x="142.955" y="159.86" font-size="1.58" text-anchor="middle" fill="#141414">28</text>
<circle cx="104.965" cy="41.687" r="1.61" fill="#ffe082" stroke="#464646" stroke-width="0.2"/>
<text x="104.965" y="42.24" font-size="1.58" text-anchor="middle" fill="#141414">29</text>
<circle cx="118.594" cy="90.663" r="1.61" fill="#ffe082" stroke="#464646" stroke-width="0.2"/>
<text x="118.594" y="91.22" font-size="1.58" text-anchor="middle" fill="#141414">30</text>
<circle cx="125.361" cy="111.616" r="1.61" fill="#ffe082" stroke="#464646" stroke-width="0.2"/>
<text x="125.361" y="112.17" font-size="1.58" text-anchor="middle" fill="#141414">31</text>
<circle cx="56.78" cy="20.54" r="1.61" fill="#ffe082" stroke="#464646" stroke-width="0.2"/>
<text x="56.78" y="21.09" font-size="1.58" text-anchor="middle" fill="#141414">32</text>
<circle cx="116.243" cy="204.648" r="1.61" fill="#ffe082" stroke="#464646" stroke-width="0.2"/>
<text x="116.243" y="205.20" font-size="1.58" text-anchor="middle" fill="#141414">33</text>
<circle cx="56.913" cy="56.716" r="4.60" fill="#eaf1fe" stroke="#2e78e6" stroke-width="0.3"/>
<text x="56.913" y="58.52" font-size="5.20" text-anchor="middle" fill="#14306e" font-weight="bold">3</text>
<text x="205.0" y="295.0" font-size="3.2" text-anchor="end" fill="#737373" font-family="sans-serif">3 / 11</text>
<g pointer-events="none"><text x="105.0" y="83.2" text-anchor="middle" font-family="sans-serif" font-size="12.4" fill="#9aa0a6" fill-opacity="0.3" transform="rotate(-28 105.0 83.2)">papercraft.kr</text><text x="105.0" y="148.5" text-anchor="middle" font-family="sans-serif" font-size="12.4" fill="#9aa0a6" fill-opacity="0.3" transform="rotate(-28 105.0 148.5)">papercraft.kr</text><text x="105.0" y="213.8" text-anchor="middle" font-family="sans-serif" font-size="12.4" fill="#9aa0a6" fill-opacity="0.3" transform="rotate(-28 105.0 213.8)">papercraft.kr</text></g></svg>
