<svg xmlns="http://www.w3.org/2000/svg" xmlns:xlink="http://www.w3.org/1999/xlink" width="210.00mm" height="297.00mm" viewBox="0 0 210.00 297.00">
<rect x="0" y="0" width="210.00" height="297.00" fill="#ffffff" stroke="#cccccc" stroke-width="0.2"/>
<polygon points="58.82,131.394 52.414,138.394 22.517,138.394 16.11,131.394" fill="rgb(216,216,216)"/>
<polygon points="58.82,89.552 52.414,82.552 22.517,82.552 16.11,89.552" fill="rgb(216,216,216)"/>
<polygon points="89.759,131.394 96.759,125.118 96.759,95.828 89.759,89.552" fill="rgb(216,216,216)"/>
<polygon points="89.759,131.394 96.759,137.8 96.759,167.697 89.759,174.104" fill="rgb(216,216,216)"/>
<polygon points="89.759,89.552 96.759,83.145 96.759,53.248 89.759,46.842" fill="rgb(216,216,216)"/>
<polygon points="16.11,131.394 9.11,125.118 9.11,95.828 16.11,89.552" fill="rgb(216,216,216)"/>
<polygon points="58.82,174.104 63.461,181.104 85.118,181.104 89.759,174.104" fill="rgb(216,216,216)"/>
<polygon points="58.82,131.394 52.414,138.394 22.517,138.394 16.11,131.394" fill="#99d9fa"/>
<line x1="58.821" y1="131.394" x2="58.821" y2="89.552" stroke="#8c8c8c" stroke-width="0.3" stroke-dasharray="1.2,0.8"/>
<line x1="89.759" y1="131.394" x2="58.821" y2="131.394" stroke="#8c8c8c" stroke-width="0.3" stroke-dasharray="1.2,0.8"/>
<line x1="58.821" y1="89.552" x2="89.759" y2="89.552" stroke="#8c8c8c" stroke-width="0.3" stroke-dasharray="1.2,0.8"/>
<line x1="58.821" y1="46.842" x2="89.759" y2="46.842" stroke="#8c8c8c" stroke-width="0.3" stroke-dasharray="1.2,0.8"/>
<line x1="89.759" y1="46.842" x2="89.759" y2="5.0" stroke="#8c8c8c" stroke-width="0.3" stroke-dasharray="1.2,0.8"/>
<line x1="16.11" y1="131.394" x2="58.82" y2="131.394" stroke="#8c8c8c" stroke-width="0.3" stroke-dasharray="1.2,0.8"/>
<line x1="16.11" y1="89.552" x2="58.82" y2="89.552" stroke="#8c8c8c" stroke-width="0.3" stroke-dasharray="1.2,0.8"/>
<line x1="89.759" y1="89.552" x2="89.759" y2="131.394" stroke="#8c8c8c" stroke-width="0.3" stroke-dasharray="1.2,0.8"/>
<line x1="89.759" y1="174.104" x2="89.759" y2="131.394" stroke="#8c8c8c" stroke-width="0.3" stroke-dasharray="1.2,0.8"/>
<line x1="89.759" y1="46.842" x2="89.759" y2="89.552" stroke="#8c8c8c" stroke-width="0.3" stroke-dasharray="1.2,0.8"/>
<line x1="16.11" y1="89.552" x2="16.11" y2="131.394" stroke="#8c8c8c" stroke-width="0.3" stroke-dasharray="1.2,0.8"/>
<line x1="89.759" y1="174.104" x2="58.82" y2="174.104" stroke="#8c8c8c" stroke-width="0.3" stroke-dasharray="1.2,0.8"/>
<line x1="58.821" y1="174.104" x2="58.821" y2="131.394" stroke="#141414" stroke-width="0.4"/>
<line x1="58.821" y1="89.552" x2="58.821" y2="46.842" stroke="#141414" stroke-width="0.4"/>
<line x1="132.469" y1="5.0" x2="132.469" y2="46.842" stroke="#141414" stroke-width="0.4"/>
<line x1="89.759" y1="5.0" x2="132.469" y2="5.0" stroke="#141414" stroke-width="0.4"/>
<line x1="132.469" y1="46.842" x2="89.759" y2="46.842" stroke="#141414" stroke-width="0.4"/>
<line x1="58.821" y1="46.842" x2="58.821" y2="5.0" stroke="#141414" stroke-width="0.4"/>
<line x1="58.821" y1="5.0" x2="89.759" y2="5.0" stroke="#141414" stroke-width="0.4"/>
<line x1="58.82" y1="131.394" x2="52.414" y2="138.394" stroke="#141414" stroke-width="0.4"/>
<line x1="52.414" y1="138.394" x2="22.517" y2="138.394" stroke="#141414" stroke-width="0.4"/>
<line x1="22.517" y1="138.394" x2="16.11" y2="131.394" stroke="#141414" stroke-width="0.4"/>
<line x1="58.82" y1="89.552" x2="52.414" y2="82.552" stroke="#141414" stroke-width="0.4"/>
<line x1="52.414" y1="82.552" x2="22.517" y2="82.552" stroke="#141414" stroke-width="0.4"/>
<line x1="22.517" y1="82.552" x2="16.11" y2="89.552" stroke="#141414" stroke-width="0.4"/>
<line x1="89.759" y1="131.394" x2="96.759" y2="125.118" stroke="#141414" stroke-width="0.4"/>
<line x1="96.759" y1="125.118" x2="96.759" y2="95.828" stroke="#141414" stroke-width="0.4"/>
<line x1="96.759" y1="95.828" x2="89.759" y2="89.552" stroke="#141414" stroke-width="0.4"/>
<line x1="89.759" y1="131.394" x2="96.759" y2="137.8" stroke="#141414" stroke-width="0.4"/>
<line x1="96.759" y1="137.8" x2="96.759" y2="167.697" stroke="#141414" stroke-width="0.4"/>
<line x1="96.759" y1="167.697" x2="89.759" y2="174.104" stroke="#141414" stroke-width="0.4"/>
<line x1="89.759" y1="89.552" x2="96.759" y2="83.145" stroke="#141414" stroke-width="0.4"/>
<line x1="96.759" y1="83.145" x2="96.759" y2="53.248" stroke="#141414" stroke-width="0.4"/>
<line x1="96.759" y1="53.248" x2="89.759" y2="46.842" stroke="#141414" stroke-width="0.4"/>
<line x1="16.11" y1="131.394" x2="9.11" y2="125.118" stroke="#141414" stroke-width="0.4"/>
<line x1="9.11" y1="125.118" x2="9.11" y2="95.828" stroke="#141414" stroke-width="0.4"/>
<line x1="9.11" y1="95.828" x2="16.11" y2="89.552" stroke="#141414" stroke-width="0.4"/>
<line x1="58.82" y1="174.104" x2="63.461" y2="181.104" stroke="#141414" stroke-width="0.4"/>
<line x1="63.461" y1="181.104" x2="85.118" y2="181.104" stroke="#141414" stroke-width="0.4"/>
<line x1="85.118" y1="181.104" x2="89.759" y2="174.104" stroke="#141414" stroke-width="0.4"/>
<circle cx="37.465" cy="134.894" r="2.04" fill="#99d9fa" stroke="#464646" stroke-width="0.2"/>
<text x="37.465" y="135.59" font-size="2.00" text-anchor="middle" fill="#141414">127</text>
<circle cx="37.465" cy="86.052" r="2.04" fill="#ffe082" stroke="#464646" stroke-width="0.2"/>
<text x="37.465" y="86.75" font-size="2.00" text-anchor="middle" fill="#141414">128</text>
<circle cx="93.259" cy="110.473" r="2.04" fill="#ffe082" stroke="#464646" stroke-width="0.2"/>
<text x="93.259" y="111.17" font-size="2.00" text-anchor="middle" fill="#141414">129</text>
<circle cx="93.259" cy="152.749" r="2.04" fill="#ffe082" stroke="#464646" stroke-width="0.2"/>
<text x="93.259" y="153.45" font-size="2.00" text-anchor="middle" fill="#141414">130</text>
<circle cx="93.259" cy="68.197" r="2.04" fill="#ffe082" stroke="#464646" stroke-width="0.2"/>
<text x="93.259" y="68.90" font-size="2.00" text-anchor="middle" fill="#141414">131</text>
<circle cx="12.61" cy="110.473" r="2.04" fill="#ffe082" stroke="#464646" stroke-width="0.2"/>
<text x="12.61" y="111.17" font-size="2.00" text-anchor="middle" fill="#141414">132</text>
<circle cx="74.29" cy="177.604" r="2.04" fill="#ffe082" stroke="#464646" stroke-width="0.2"/>
<text x="74.29" y="178.30" font-size="2.00" text-anchor="middle" fill="#141414">133</text>
<circle cx="79.446" cy="159.867" r="4.60" fill="#eaf1fe" stroke="#2e78e6" stroke-width="0.3"/>
<text x="79.446" y="161.67" font-size="5.20" text-anchor="middle" fill="#14306e" font-weight="bold">11</text>
<text x="205.0" y="295.0" font-size="3.2" text-anchor="end" fill="#737373" font-family="sans-serif">7 / 7</text>
<g pointer-events="none"><text x="105.0" y="83.2" text-anchor="middle" font-family="sans-serif" font-size="12.4" fill="#9aa0a6" fill-opacity="0.3" transform="rotate(-28 105.0 83.2)">papercraft.kr</text><text x="105.0" y="148.5" text-anchor="middle" font-family="sans-serif" font-size="12.4" fill="#9aa0a6" fill-opacity="0.3" transform="rotate(-28 105.0 148.5)">papercraft.kr</text><text x="105.0" y="213.8" text-anchor="middle" font-family="sans-serif" font-size="12.4" fill="#9aa0a6" fill-opacity="0.3" transform="rotate(-28 105.0 213.8)">papercraft.kr</text></g></svg>
