<svg xmlns="http://www.w3.org/2000/svg" xmlns:xlink="http://www.w3.org/1999/xlink" width="210.00mm" height="297.00mm" viewBox="0 0 210.00 297.00">
<rect x="0" y="0" width="210.00" height="297.00" fill="#ffffff" stroke="#cccccc" stroke-width="0.2"/>
<polygon points="47.542,26.562 45.614,32.988 36.617,32.988 34.688,26.562" fill="rgb(216,216,216)"/>
<polygon points="47.542,17.854 50.82,10.854 66.116,10.854 69.393,17.854" fill="rgb(216,216,216)"/>
<polygon points="47.542,17.854 45.614,11.427 36.617,11.427 34.688,17.854" fill="rgb(216,216,216)"/>
<polygon points="69.393,26.562 75.82,28.49 75.82,37.487 69.393,39.415" fill="rgb(216,216,216)"/>
<polygon points="12.837,5.0 6.41,6.928 6.41,15.926 12.837,17.854" fill="rgb(216,216,216)"/>
<polygon points="47.542,39.415 50.82,46.415 66.116,46.415 69.393,39.415" fill="rgb(216,216,216)"/>
<polygon points="82.247,26.562 86.601,25.255 86.601,19.16 82.247,17.854" fill="rgb(216,216,216)"/>
<polygon points="47.542,26.562 45.614,32.988 36.617,32.988 34.688,26.562" fill="#99d9fa"/>
<line x1="47.542" y1="26.561" x2="47.542" y2="17.854" stroke="#8c8c8c" stroke-width="0.3" stroke-dasharray="1.2,0.8"/>
<line x1="69.393" y1="26.561" x2="47.542" y2="26.561" stroke="#8c8c8c" stroke-width="0.3" stroke-dasharray="1.2,0.8"/>
<line x1="69.393" y1="17.854" x2="69.393" y2="26.561" stroke="#8c8c8c" stroke-width="0.3" stroke-dasharray="1.2,0.8"/>
<line x1="34.688" y1="26.561" x2="34.688" y2="17.854" stroke="#8c8c8c" stroke-width="0.3" stroke-dasharray="1.2,0.8"/>
<line x1="34.688" y1="17.854" x2="12.837" y2="17.854" stroke="#8c8c8c" stroke-width="0.3" stroke-dasharray="1.2,0.8"/>
<line x1="34.688" y1="26.562" x2="47.542" y2="26.562" stroke="#8c8c8c" stroke-width="0.3" stroke-dasharray="1.2,0.8"/>
<line x1="69.393" y1="17.854" x2="47.542" y2="17.854" stroke="#8c8c8c" stroke-width="0.3" stroke-dasharray="1.2,0.8"/>
<line x1="34.688" y1="17.854" x2="47.542" y2="17.854" stroke="#8c8c8c" stroke-width="0.3" stroke-dasharray="1.2,0.8"/>
<line x1="69.393" y1="39.415" x2="69.393" y2="26.562" stroke="#8c8c8c" stroke-width="0.3" stroke-dasharray="1.2,0.8"/>
<line x1="12.837" y1="17.854" x2="12.837" y2="5.0" stroke="#8c8c8c" stroke-width="0.3" stroke-dasharray="1.2,0.8"/>
<line x1="69.393" y1="39.415" x2="47.542" y2="39.415" stroke="#8c8c8c" stroke-width="0.3" stroke-dasharray="1.2,0.8"/>
<line x1="82.247" y1="17.854" x2="82.247" y2="26.562" stroke="#8c8c8c" stroke-width="0.3" stroke-dasharray="1.2,0.8"/>
<line x1="47.542" y1="39.415" x2="47.542" y2="26.561" stroke="#141414" stroke-width="0.4"/>
<line x1="12.837" y1="5.0" x2="34.688" y2="5.0" stroke="#141414" stroke-width="0.4"/>
<line x1="34.688" y1="5.0" x2="34.688" y2="17.854" stroke="#141414" stroke-width="0.4"/>
<line x1="82.247" y1="26.561" x2="69.393" y2="26.561" stroke="#141414" stroke-width="0.4"/>
<line x1="69.393" y1="17.854" x2="82.247" y2="17.854" stroke="#141414" stroke-width="0.4"/>
<line x1="34.688" y1="26.561" x2="12.837" y2="26.561" stroke="#141414" stroke-width="0.4"/>
<line x1="12.837" y1="26.561" x2="12.837" y2="17.854" stroke="#141414" stroke-width="0.4"/>
<line x1="47.542" y1="26.562" x2="45.614" y2="32.988" stroke="#141414" stroke-width="0.4"/>
<line x1="45.614" y1="32.988" x2="36.617" y2="32.988" stroke="#141414" stroke-width="0.4"/>
<line x1="36.617" y1="32.988" x2="34.688" y2="26.562" stroke="#141414" stroke-width="0.4"/>
<line x1="47.542" y1="17.854" x2="50.82" y2="10.854" stroke="#141414" stroke-width="0.4"/>
<line x1="50.82" y1="10.854" x2="66.116" y2="10.854" stroke="#141414" stroke-width="0.4"/>
<line x1="66.116" y1="10.854" x2="69.393" y2="17.854" stroke="#141414" stroke-width="0.4"/>
<line x1="47.542" y1="17.854" x2="45.614" y2="11.427" stroke="#141414" stroke-width="0.4"/>
<line x1="45.614" y1="11.427" x2="36.617" y2="11.427" stroke="#141414" stroke-width="0.4"/>
<line x1="36.617" y1="11.427" x2="34.688" y2="17.854" stroke="#141414" stroke-width="0.4"/>
<line x1="69.393" y1="26.562" x2="75.82" y2="28.49" stroke="#141414" stroke-width="0.4"/>
<line x1="75.82" y1="28.49" x2="75.82" y2="37.487" stroke="#141414" stroke-width="0.4"/>
<line x1="75.82" y1="37.487" x2="69.393" y2="39.415" stroke="#141414" stroke-width="0.4"/>
<line x1="12.837" y1="5.0" x2="6.41" y2="6.928" stroke="#141414" stroke-width="0.4"/>
<line x1="6.41" y1="6.928" x2="6.41" y2="15.926" stroke="#141414" stroke-width="0.4"/>
<line x1="6.41" y1="15.926" x2="12.837" y2="17.854" stroke="#141414" stroke-width="0.4"/>
<line x1="47.542" y1="39.415" x2="50.82" y2="46.415" stroke="#141414" stroke-width="0.4"/>
<line x1="50.82" y1="46.415" x2="66.116" y2="46.415" stroke="#141414" stroke-width="0.4"/>
<line x1="66.116" y1="46.415" x2="69.393" y2="39.415" stroke="#141414" stroke-width="0.4"/>
<line x1="82.247" y1="26.562" x2="86.601" y2="25.255" stroke="#141414" stroke-width="0.4"/>
<line x1="86.601" y1="25.255" x2="86.601" y2="19.16" stroke="#141414" stroke-width="0.4"/>
<line x1="86.601" y1="19.16" x2="82.247" y2="17.854" stroke="#141414" stroke-width="0.4"/>
<circle cx="41.115" cy="29.775" r="1.88" fill="#99d9fa" stroke="#464646" stroke-width="0.2"/>
<text x="41.115" y="30.42" font-size="1.84" text-anchor="middle" fill="#141414">23</text>
<circle cx="58.468" cy="14.354" r="1.88" fill="#ffe082" stroke="#464646" stroke-width="0.2"/>
<text x="58.468" y="15.00" font-size="1.84" text-anchor="middle" fill="#141414">24</text>
<circle cx="41.115" cy="14.64" r="1.88" fill="#ffe082" stroke="#464646" stroke-width="0.2"/>
<text x="41.115" y="15.28" font-size="1.84" text-anchor="middle" fill="#141414">25</text>
<circle cx="72.607" cy="32.988" r="1.88" fill="#ffe082" stroke="#464646" stroke-width="0.2"/>
<text x="72.607" y="33.63" font-size="1.84" text-anchor="middle" fill="#141414">26</text>
<circle cx="9.623" cy="11.427" r="1.88" fill="#ffe082" stroke="#464646" stroke-width="0.2"/>
<text x="9.623" y="12.07" font-size="1.84" text-anchor="middle" fill="#141414">27</text>
<circle cx="58.468" cy="42.915" r="1.88" fill="#ffe082" stroke="#464646" stroke-width="0.2"/>
<text x="58.468" y="43.56" font-size="1.84" text-anchor="middle" fill="#141414">28</text>
<circle cx="84.424" cy="22.208" r="1.88" fill="#ffe082" stroke="#464646" stroke-width="0.2"/>
<text x="84.424" y="22.85" font-size="1.84" text-anchor="middle" fill="#141414">29</text>
<circle cx="20.121" cy="9.285" r="2.95" fill="#eaf1fe" stroke="#2e78e6" stroke-width="0.3"/>
<text x="20.121" y="10.44" font-size="3.34" text-anchor="middle" fill="#14306e" font-weight="bold">5</text>
<polygon points="130.733,26.562 128.805,32.988 119.808,32.988 117.879,26.562" fill="rgb(216,216,216)"/>
<polygon points="130.733,17.854 134.011,10.854 149.307,10.854 152.584,17.854" fill="rgb(216,216,216)"/>
<polygon points="130.733,17.854 128.805,11.427 119.808,11.427 117.879,17.854" fill="rgb(216,216,216)"/>
<polygon points="152.584,26.562 159.011,28.49 159.011,37.487 152.584,39.415" fill="rgb(216,216,216)"/>
<polygon points="96.028,5.0 89.601,6.928 89.601,15.926 96.028,17.854" fill="rgb(216,216,216)"/>
<polygon points="130.733,39.415 134.011,46.415 149.307,46.415 152.584,39.415" fill="rgb(216,216,216)"/>
<polygon points="165.438,26.562 169.792,25.255 169.792,19.16 165.438,17.854" fill="rgb(216,216,216)"/>
<polygon points="130.733,26.562 128.805,32.988 119.808,32.988 117.879,26.562" fill="#99d9fa"/>
<line x1="130.733" y1="26.561" x2="130.733" y2="17.854" stroke="#8c8c8c" stroke-width="0.3" stroke-dasharray="1.2,0.8"/>
<line x1="152.584" y1="26.561" x2="130.733" y2="26.561" stroke="#8c8c8c" stroke-width="0.3" stroke-dasharray="1.2,0.8"/>
<line x1="152.584" y1="17.854" x2="152.584" y2="26.561" stroke="#8c8c8c" stroke-width="0.3" stroke-dasharray="1.2,0.8"/>
<line x1="117.879" y1="26.561" x2="117.879" y2="17.854" stroke="#8c8c8c" stroke-width="0.3" stroke-dasharray="1.2,0.8"/>
<line x1="117.879" y1="17.854" x2="96.028" y2="17.854" stroke="#8c8c8c" stroke-width="0.3" stroke-dasharray="1.2,0.8"/>
<line x1="117.879" y1="26.562" x2="130.733" y2="26.562" stroke="#8c8c8c" stroke-width="0.3" stroke-dasharray="1.2,0.8"/>
<line x1="152.584" y1="17.854" x2="130.733" y2="17.854" stroke="#8c8c8c" stroke-width="0.3" stroke-dasharray="1.2,0.8"/>
<line x1="117.879" y1="17.854" x2="130.733" y2="17.854" stroke="#8c8c8c" stroke-width="0.3" stroke-dasharray="1.2,0.8"/>
<line x1="152.584" y1="39.415" x2="152.584" y2="26.562" stroke="#8c8c8c" stroke-width="0.3" stroke-dasharray="1.2,0.8"/>
<line x1="96.028" y1="17.854" x2="96.028" y2="5.0" stroke="#8c8c8c" stroke-width="0.3" stroke-dasharray="1.2,0.8"/>
<line x1="152.584" y1="39.415" x2="130.733" y2="39.415" stroke="#8c8c8c" stroke-width="0.3" stroke-dasharray="1.2,0.8"/>
<line x1="165.438" y1="17.854" x2="165.438" y2="26.562" stroke="#8c8c8c" stroke-width="0.3" stroke-dasharray="1.2,0.8"/>
<line x1="130.733" y1="39.415" x2="130.733" y2="26.561" stroke="#141414" stroke-width="0.4"/>
<line x1="96.028" y1="5.0" x2="117.879" y2="5.0" stroke="#141414" stroke-width="0.4"/>
<line x1="117.879" y1="5.0" x2="117.879" y2="17.854" stroke="#141414" stroke-width="0.4"/>
<line x1="165.438" y1="26.561" x2="152.584" y2="26.561" stroke="#141414" stroke-width="0.4"/>
<line x1="152.584" y1="17.854" x2="165.438" y2="17.854" stroke="#141414" stroke-width="0.4"/>
<line x1="117.879" y1="26.561" x2="96.028" y2="26.561" stroke="#141414" stroke-width="0.4"/>
<line x1="96.028" y1="26.561" x2="96.028" y2="17.854" stroke="#141414" stroke-width="0.4"/>
<line x1="130.733" y1="26.562" x2="128.805" y2="32.988" stroke="#141414" stroke-width="0.4"/>
<line x1="128.805" y1="32.988" x2="119.808" y2="32.988" stroke="#141414" stroke-width="0.4"/>
<line x1="119.808" y1="32.988" x2="117.879" y2="26.562" stroke="#141414" stroke-width="0.4"/>
<line x1="130.733" y1="17.854" x2="134.011" y2="10.854" stroke="#141414" stroke-width="0.4"/>
<line x1="134.011" y1="10.854" x2="149.307" y2="10.854" stroke="#141414" stroke-width="0.4"/>
<line x1="149.307" y1="10.854" x2="152.584" y2="17.854" stroke="#141414" stroke-width="0.4"/>
<line x1="130.733" y1="17.854" x2="128.805" y2="11.427" stroke="#141414" stroke-width="0.4"/>
<line x1="128.805" y1="11.427" x2="119.808" y2="11.427" stroke="#141414" stroke-width="0.4"/>
<line x1="119.808" y1="11.427" x2="117.879" y2="17.854" stroke="#141414" stroke-width="0.4"/>
<line x1="152.584" y1="26.562" x2="159.011" y2="28.49" stroke="#141414" stroke-width="0.4"/>
<line x1="159.011" y1="28.49" x2="159.011" y2="37.487" stroke="#141414" stroke-width="0.4"/>
<line x1="159.011" y1="37.487" x2="152.584" y2="39.415" stroke="#141414" stroke-width="0.4"/>
<line x1="96.028" y1="5.0" x2="89.601" y2="6.928" stroke="#141414" stroke-width="0.4"/>
<line x1="89.601" y1="6.928" x2="89.601" y2="15.926" stroke="#141414" stroke-width="0.4"/>
<line x1="89.601" y1="15.926" x2="96.028" y2="17.854" stroke="#141414" stroke-width="0.4"/>
<line x1="130.733" y1="39.415" x2="134.011" y2="46.415" stroke="#141414" stroke-width="0.4"/>
<line x1="134.011" y1="46.415" x2="149.307" y2="46.415" stroke="#141414" stroke-width="0.4"/>
<line x1="149.307" y1="46.415" x2="152.584" y2="39.415" stroke="#141414" stroke-width="0.4"/>
<line x1="165.438" y1="26.562" x2="169.792" y2="25.255" stroke="#141414" stroke-width="0.4"/>
<line x1="169.792" y1="25.255" x2="169.792" y2="19.16" stroke="#141414" stroke-width="0.4"/>
<line x1="169.792" y1="19.16" x2="165.438" y2="17.854" stroke="#141414" stroke-width="0.4"/>
<circle cx="124.306" cy="29.775" r="1.88" fill="#99d9fa" stroke="#464646" stroke-width="0.2"/>
<text x="124.306" y="30.42" font-size="1.84" text-anchor="middle" fill="#141414">30</text>
<circle cx="141.659" cy="14.354" r="1.88" fill="#ffe082" stroke="#464646" stroke-width="0.2"/>
<text x="141.659" y="15.00" font-size="1.84" text-anchor="middle" fill="#141414">31</text>
<circle cx="124.306" cy="14.64" r="1.88" fill="#ffe082" stroke="#464646" stroke-width="0.2"/>
<text x="124.306" y="15.28" font-size="1.84" text-anchor="middle" fill="#141414">32</text>
<circle cx="155.798" cy="32.988" r="1.88" fill="#ffe082" stroke="#464646" stroke-width="0.2"/>
<text x="155.798" y="33.63" font-size="1.84" text-anchor="middle" fill="#141414">33</text>
<circle cx="92.815" cy="11.427" r="1.88" fill="#ffe082" stroke="#464646" stroke-width="0.2"/>
<text x="92.815" y="12.07" font-size="1.84" text-anchor="middle" fill="#141414">34</text>
<circle cx="141.659" cy="42.915" r="1.88" fill="#ffe082" stroke="#464646" stroke-width="0.2"/>
<text x="141.659" y="43.56" font-size="1.84" text-anchor="middle" fill="#141414">35</text>
<circle cx="167.615" cy="22.208" r="1.88" fill="#ffe082" stroke="#464646" stroke-width="0.2"/>
<text x="167.615" y="22.85" font-size="1.84" text-anchor="middle" fill="#141414">36</text>
<circle cx="103.312" cy="9.285" r="2.95" fill="#eaf1fe" stroke="#2e78e6" stroke-width="0.3"/>
<text x="103.312" y="10.44" font-size="3.34" text-anchor="middle" fill="#14306e" font-weight="bold">6</text>
<polygon points="98.128,111.113 91.765,118.113 62.073,118.113 55.71,111.113" fill="rgb(216,216,216)"/>
<polygon points="98.128,91.833 104.49,84.833 134.183,84.833 140.545,91.833" fill="rgb(216,216,216)"/>
<polygon points="98.128,91.833 91.765,84.833 62.073,84.833 55.71,91.833" fill="rgb(216,216,216)"/>
<polygon points="140.545,111.113 147.545,117.476 147.545,147.168 140.545,153.531" fill="rgb(216,216,216)"/>
<polygon points="13.293,49.415 6.293,55.778 6.293,85.47 13.293,91.833" fill="rgb(216,216,216)"/>
<polygon points="98.128,153.531 104.49,160.531 134.183,160.531 140.545,153.531" fill="rgb(216,216,216)"/>
<polygon points="182.963,111.113 189.963,108.221 189.963,94.725 182.963,91.833" fill="rgb(216,216,216)"/>
<polygon points="98.128,111.113 91.765,118.113 62.073,118.113 55.71,111.113" fill="#99d9fa"/>
<line x1="98.128" y1="111.113" x2="98.128" y2="91.833" stroke="#8c8c8c" stroke-width="0.3" stroke-dasharray="1.2,0.8"/>
<line x1="140.545" y1="111.113" x2="98.128" y2="111.113" stroke="#8c8c8c" stroke-width="0.3" stroke-dasharray="1.2,0.8"/>
<line x1="140.545" y1="91.833" x2="140.545" y2="111.113" stroke="#8c8c8c" stroke-width="0.3" stroke-dasharray="1.2,0.8"/>
<line x1="55.71" y1="111.113" x2="55.71" y2="91.833" stroke="#8c8c8c" stroke-width="0.3" stroke-dasharray="1.2,0.8"/>
<line x1="55.71" y1="91.833" x2="13.293" y2="91.833" stroke="#8c8c8c" stroke-width="0.3" stroke-dasharray="1.2,0.8"/>
<line x1="55.71" y1="111.113" x2="98.128" y2="111.113" stroke="#8c8c8c" stroke-width="0.3" stroke-dasharray="1.2,0.8"/>
<line x1="140.545" y1="91.833" x2="98.128" y2="91.833" stroke="#8c8c8c" stroke-width="0.3" stroke-dasharray="1.2,0.8"/>
<line x1="55.71" y1="91.833" x2="98.128" y2="91.833" stroke="#8c8c8c" stroke-width="0.3" stroke-dasharray="1.2,0.8"/>
<line x1="140.545" y1="153.531" x2="140.545" y2="111.113" stroke="#8c8c8c" stroke-width="0.3" stroke-dasharray="1.2,0.8"/>
<line x1="13.293" y1="91.833" x2="13.293" y2="49.415" stroke="#8c8c8c" stroke-width="0.3" stroke-dasharray="1.2,0.8"/>
<line x1="140.545" y1="153.531" x2="98.128" y2="153.531" stroke="#8c8c8c" stroke-width="0.3" stroke-dasharray="1.2,0.8"/>
<line x1="182.963" y1="91.833" x2="182.963" y2="111.113" stroke="#8c8c8c" stroke-width="0.3" stroke-dasharray="1.2,0.8"/>
<line x1="98.128" y1="153.531" x2="98.128" y2="111.113" stroke="#141414" stroke-width="0.4"/>
<line x1="13.293" y1="49.415" x2="55.71" y2="49.415" stroke="#141414" stroke-width="0.4"/>
<line x1="55.71" y1="49.415" x2="55.71" y2="91.833" stroke="#141414" stroke-width="0.4"/>
<line x1="182.963" y1="111.113" x2="140.545" y2="111.113" stroke="#141414" stroke-width="0.4"/>
<line x1="140.545" y1="91.833" x2="182.963" y2="91.833" stroke="#141414" stroke-width="0.4"/>
<line x1="55.71" y1="111.113" x2="13.293" y2="111.113" stroke="#141414" stroke-width="0.4"/>
<line x1="13.293" y1="111.113" x2="13.293" y2="91.833" stroke="#141414" stroke-width="0.4"/>
<line x1="98.128" y1="111.113" x2="91.765" y2="118.113" stroke="#141414" stroke-width="0.4"/>
<line x1="91.765" y1="118.113" x2="62.073" y2="118.113" stroke="#141414" stroke-width="0.4"/>
<line x1="62.073" y1="118.113" x2="55.71" y2="111.113" stroke="#141414" stroke-width="0.4"/>
<line x1="98.128" y1="91.833" x2="104.49" y2="84.833" stroke="#141414" stroke-width="0.4"/>
<line x1="104.49" y1="84.833" x2="134.183" y2="84.833" stroke="#141414" stroke-width="0.4"/>
<line x1="134.183" y1="84.833" x2="140.545" y2="91.833" stroke="#141414" stroke-width="0.4"/>
<line x1="98.128" y1="91.833" x2="91.765" y2="84.833" stroke="#141414" stroke-width="0.4"/>
<line x1="91.765" y1="84.833" x2="62.073" y2="84.833" stroke="#141414" stroke-width="0.4"/>
<line x1="62.073" y1="84.833" x2="55.71" y2="91.833" stroke="#141414" stroke-width="0.4"/>
<line x1="140.545" y1="111.113" x2="147.545" y2="117.476" stroke="#141414" stroke-width="0.4"/>
<line x1="147.545" y1="117.476" x2="147.545" y2="147.168" stroke="#141414" stroke-width="0.4"/>
<line x1="147.545" y1="147.168" x2="140.545" y2="153.531" stroke="#141414" stroke-width="0.4"/>
<line x1="13.293" y1="49.415" x2="6.293" y2="55.778" stroke="#141414" stroke-width="0.4"/>
<line x1="6.293" y1="55.778" x2="6.293" y2="85.47" stroke="#141414" stroke-width="0.4"/>
<line x1="6.293" y1="85.47" x2="13.293" y2="91.833" stroke="#141414" stroke-width="0.4"/>
<line x1="98.128" y1="153.531" x2="104.49" y2="160.531" stroke="#141414" stroke-width="0.4"/>
<line x1="104.49" y1="160.531" x2="134.183" y2="160.531" stroke="#141414" stroke-width="0.4"/>
<line x1="134.183" y1="160.531" x2="140.545" y2="153.531" stroke="#141414" stroke-width="0.4"/>
<line x1="182.963" y1="111.113" x2="189.963" y2="108.221" stroke="#141414" stroke-width="0.4"/>
<line x1="189.963" y1="108.221" x2="189.963" y2="94.725" stroke="#141414" stroke-width="0.4"/>
<line x1="189.963" y1="94.725" x2="182.963" y2="91.833" stroke="#141414" stroke-width="0.4"/>
<circle cx="76.919" cy="114.613" r="1.88" fill="#99d9fa" stroke="#464646" stroke-width="0.2"/>
<text x="76.919" y="115.26" font-size="1.84" text-anchor="middle" fill="#141414">37</text>
<circle cx="119.337" cy="88.333" r="1.88" fill="#ffe082" stroke="#464646" stroke-width="0.2"/>
<text x="119.337" y="88.98" font-size="1.84" text-anchor="middle" fill="#141414">38</text>
<circle cx="76.919" cy="88.333" r="1.88" fill="#ffe082" stroke="#464646" stroke-width="0.2"/>
<text x="76.919" y="88.98" font-size="1.84" text-anchor="middle" fill="#141414">39</text>
<circle cx="144.045" cy="132.322" r="1.88" fill="#ffe082" stroke="#464646" stroke-width="0.2"/>
<text x="144.045" y="132.97" font-size="1.84" text-anchor="middle" fill="#141414">40</text>
<circle cx="9.793" cy="70.624" r="1.88" fill="#ffe082" stroke="#464646" stroke-width="0.2"/>
<text x="9.793" y="71.27" font-size="1.84" text-anchor="middle" fill="#141414">41</text>
<circle cx="119.337" cy="157.031" r="1.88" fill="#ffe082" stroke="#464646" stroke-width="0.2"/>
<text x="119.337" y="157.67" font-size="1.84" text-anchor="middle" fill="#141414">42</text>
<circle cx="186.463" cy="101.473" r="1.88" fill="#ffe082" stroke="#464646" stroke-width="0.2"/>
<text x="186.463" y="102.12" font-size="1.84" text-anchor="middle" fill="#141414">43</text>
<circle cx="126.406" cy="139.392" r="4.60" fill="#eaf1fe" stroke="#2e78e6" stroke-width="0.3"/>
<text x="126.406" y="141.19" font-size="5.20" text-anchor="middle" fill="#14306e" font-weight="bold">7</text>
<polygon points="22.415,210.8 23.721,215.154 29.817,215.154 31.123,210.8" fill="rgb(216,216,216)"/>
<polygon points="22.415,191.519 23.721,187.165 29.817,187.165 31.123,191.519" fill="rgb(216,216,216)"/>
<polygon points="31.123,210.8 38.123,207.908 38.123,194.411 31.123,191.519" fill="rgb(216,216,216)"/>
<polygon points="22.415,219.507 21.109,223.861 15.014,223.861 13.708,219.507" fill="rgb(216,216,216)"/>
<polygon points="13.708,210.8 6.708,207.908 6.708,194.411 13.708,191.519" fill="rgb(216,216,216)"/>
<polygon points="13.708,210.8 9.354,212.106 9.354,218.201 13.708,219.507" fill="rgb(216,216,216)"/>
<polygon points="13.708,191.519 9.354,190.213 9.354,184.118 13.708,182.811" fill="rgb(216,216,216)"/>
<polygon points="22.415,210.8 23.721,215.154 29.817,215.154 31.123,210.8" fill="#99d9fa"/>
<line x1="22.415" y1="210.8" x2="22.415" y2="191.519" stroke="#8c8c8c" stroke-width="0.3" stroke-dasharray="1.2,0.8"/>
<line x1="22.415" y1="210.8" x2="13.708" y2="210.8" stroke="#8c8c8c" stroke-width="0.3" stroke-dasharray="1.2,0.8"/>
<line x1="13.708" y1="191.519" x2="22.415" y2="191.519" stroke="#8c8c8c" stroke-width="0.3" stroke-dasharray="1.2,0.8"/>
<line x1="13.708" y1="182.811" x2="22.415" y2="182.811" stroke="#8c8c8c" stroke-width="0.3" stroke-dasharray="1.2,0.8"/>
<line x1="13.708" y1="182.811" x2="13.708" y2="163.531" stroke="#8c8c8c" stroke-width="0.3" stroke-dasharray="1.2,0.8"/>
<line x1="31.123" y1="210.8" x2="22.415" y2="210.8" stroke="#8c8c8c" stroke-width="0.3" stroke-dasharray="1.2,0.8"/>
<line x1="31.123" y1="191.519" x2="22.415" y2="191.519" stroke="#8c8c8c" stroke-width="0.3" stroke-dasharray="1.2,0.8"/>
<line x1="31.123" y1="191.519" x2="31.123" y2="210.8" stroke="#8c8c8c" stroke-width="0.3" stroke-dasharray="1.2,0.8"/>
<line x1="13.708" y1="219.507" x2="22.415" y2="219.507" stroke="#8c8c8c" stroke-width="0.3" stroke-dasharray="1.2,0.8"/>
<line x1="13.708" y1="191.519" x2="13.708" y2="210.8" stroke="#8c8c8c" stroke-width="0.3" stroke-dasharray="1.2,0.8"/>
<line x1="13.708" y1="219.507" x2="13.708" y2="210.8" stroke="#8c8c8c" stroke-width="0.3" stroke-dasharray="1.2,0.8"/>
<line x1="13.708" y1="182.811" x2="13.708" y2="191.519" stroke="#8c8c8c" stroke-width="0.3" stroke-dasharray="1.2,0.8"/>
<line x1="22.415" y1="210.8" x2="22.415" y2="219.507" stroke="#141414" stroke-width="0.4"/>
<line x1="22.415" y1="182.811" x2="22.415" y2="191.519" stroke="#141414" stroke-width="0.4"/>
<line x1="22.415" y1="163.531" x2="22.415" y2="182.811" stroke="#141414" stroke-width="0.4"/>
<line x1="13.708" y1="163.531" x2="22.415" y2="163.531" stroke="#141414" stroke-width="0.4"/>
<line x1="5.0" y1="182.811" x2="5.0" y2="163.531" stroke="#141414" stroke-width="0.4"/>
<line x1="5.0" y1="163.531" x2="13.708" y2="163.531" stroke="#141414" stroke-width="0.4"/>
<line x1="13.708" y1="182.811" x2="5.0" y2="182.811" stroke="#141414" stroke-width="0.4"/>
<line x1="22.415" y1="210.8" x2="23.721" y2="215.154" stroke="#141414" stroke-width="0.4"/>
<line x1="23.721" y1="215.154" x2="29.817" y2="215.154" stroke="#141414" stroke-width="0.4"/>
<line x1="29.817" y1="215.154" x2="31.123" y2="210.8" stroke="#141414" stroke-width="0.4"/>
<line x1="22.415" y1="191.519" x2="23.721" y2="187.165" stroke="#141414" stroke-width="0.4"/>
<line x1="23.721" y1="187.165" x2="29.817" y2="187.165" stroke="#141414" stroke-width="0.4"/>
<line x1="29.817" y1="187.165" x2="31.123" y2="191.519" stroke="#141414" stroke-width="0.4"/>
<line x1="31.123" y1="210.8" x2="38.123" y2="207.908" stroke="#141414" stroke-width="0.4"/>
<line x1="38.123" y1="207.908" x2="38.123" y2="194.411" stroke="#141414" stroke-width="0.4"/>
<line x1="38.123" y1="194.411" x2="31.123" y2="191.519" stroke="#141414" stroke-width="0.4"/>
<line x1="22.415" y1="219.507" x2="21.109" y2="223.861" stroke="#141414" stroke-width="0.4"/>
<line x1="21.109" y1="223.861" x2="15.014" y2="223.861" stroke="#141414" stroke-width="0.4"/>
<line x1="15.014" y1="223.861" x2="13.708" y2="219.507" stroke="#141414" stroke-width="0.4"/>
<line x1="13.708" y1="210.8" x2="6.708" y2="207.908" stroke="#141414" stroke-width="0.4"/>
<line x1="6.708" y1="207.908" x2="6.708" y2="194.411" stroke="#141414" stroke-width="0.4"/>
<line x1="6.708" y1="194.411" x2="13.708" y2="191.519" stroke="#141414" stroke-width="0.4"/>
<line x1="13.708" y1="210.8" x2="9.354" y2="212.106" stroke="#141414" stroke-width="0.4"/>
<line x1="9.354" y1="212.106" x2="9.354" y2="218.201" stroke="#141414" stroke-width="0.4"/>
<line x1="9.354" y1="218.201" x2="13.708" y2="219.507" stroke="#141414" stroke-width="0.4"/>
<line x1="13.708" y1="191.519" x2="9.354" y2="190.213" stroke="#141414" stroke-width="0.4"/>
<line x1="9.354" y1="190.213" x2="9.354" y2="184.118" stroke="#141414" stroke-width="0.4"/>
<line x1="9.354" y1="184.118" x2="13.708" y2="182.811" stroke="#141414" stroke-width="0.4"/>
<circle cx="26.769" cy="212.977" r="1.88" fill="#99d9fa" stroke="#464646" stroke-width="0.2"/>
<text x="26.769" y="213.62" font-size="1.84" text-anchor="middle" fill="#141414">44</text>
<circle cx="26.769" cy="189.342" r="1.88" fill="#ffe082" stroke="#464646" stroke-width="0.2"/>
<text x="26.769" y="189.99" font-size="1.84" text-anchor="middle" fill="#141414">45</text>
<circle cx="34.623" cy="201.159" r="1.88" fill="#ffe082" stroke="#464646" stroke-width="0.2"/>
<text x="34.623" y="201.80" font-size="1.84" text-anchor="middle" fill="#141414">46</text>
<circle cx="18.062" cy="221.684" r="1.88" fill="#ffe082" stroke="#464646" stroke-width="0.2"/>
<text x="18.062" y="222.33" font-size="1.84" text-anchor="middle" fill="#141414">47</text>
<circle cx="10.208" cy="201.159" r="1.88" fill="#ffe082" stroke="#464646" stroke-width="0.2"/>
<text x="10.208" y="201.80" font-size="1.84" text-anchor="middle" fill="#141414">48</text>
<circle cx="11.531" cy="215.154" r="1.88" fill="#ffe082" stroke="#464646" stroke-width="0.2"/>
<text x="11.531" y="215.80" font-size="1.84" text-anchor="middle" fill="#141414">49</text>
<circle cx="11.531" cy="187.165" r="1.88" fill="#ffe082" stroke="#464646" stroke-width="0.2"/>
<text x="11.531" y="187.81" font-size="1.84" text-anchor="middle" fill="#141414">50</text>
<circle cx="19.513" cy="204.373" r="2.12" fill="#eaf1fe" stroke="#2e78e6" stroke-width="0.3"/>
<text x="19.513" y="205.20" font-size="2.60" text-anchor="middle" fill="#14306e" font-weight="bold">8</text>
<polygon points="58.538,210.8 59.844,215.154 65.94,215.154 67.246,210.8" fill="rgb(216,216,216)"/>
<polygon points="58.538,191.519 59.844,187.165 65.94,187.165 67.246,191.519" fill="rgb(216,216,216)"/>
<polygon points="67.246,210.8 74.246,207.908 74.246,194.411 67.246,191.519" fill="rgb(216,216,216)"/>
<polygon points="58.538,219.507 57.232,223.861 51.137,223.861 49.831,219.507" fill="rgb(216,216,216)"/>
<polygon points="49.831,210.8 42.831,207.908 42.831,194.411 49.831,191.519" fill="rgb(216,216,216)"/>
<polygon points="49.831,210.8 45.477,212.106 45.477,218.201 49.831,219.507" fill="rgb(216,216,216)"/>
<polygon points="49.831,191.519 45.477,190.213 45.477,184.118 49.831,182.811" fill="rgb(216,216,216)"/>
<polygon points="58.538,210.8 59.844,215.154 65.94,215.154 67.246,210.8" fill="#99d9fa"/>
<line x1="58.538" y1="210.8" x2="58.538" y2="191.519" stroke="#8c8c8c" stroke-width="0.3" stroke-dasharray="1.2,0.8"/>
<line x1="58.538" y1="210.8" x2="49.831" y2="210.8" stroke="#8c8c8c" stroke-width="0.3" stroke-dasharray="1.2,0.8"/>
<line x1="49.831" y1="191.519" x2="58.538" y2="191.519" stroke="#8c8c8c" stroke-width="0.3" stroke-dasharray="1.2,0.8"/>
<line x1="49.831" y1="182.811" x2="58.538" y2="182.811" stroke="#8c8c8c" stroke-width="0.3" stroke-dasharray="1.2,0.8"/>
<line x1="49.831" y1="182.811" x2="49.831" y2="163.531" stroke="#8c8c8c" stroke-width="0.3" stroke-dasharray="1.2,0.8"/>
<line x1="67.246" y1="210.8" x2="58.538" y2="210.8" stroke="#8c8c8c" stroke-width="0.3" stroke-dasharray="1.2,0.8"/>
<line x1="67.246" y1="191.519" x2="58.538" y2="191.519" stroke="#8c8c8c" stroke-width="0.3" stroke-dasharray="1.2,0.8"/>
<line x1="67.246" y1="191.519" x2="67.246" y2="210.8" stroke="#8c8c8c" stroke-width="0.3" stroke-dasharray="1.2,0.8"/>
<line x1="49.831" y1="219.507" x2="58.538" y2="219.507" stroke="#8c8c8c" stroke-width="0.3" stroke-dasharray="1.2,0.8"/>
<line x1="49.831" y1="191.519" x2="49.831" y2="210.8" stroke="#8c8c8c" stroke-width="0.3" stroke-dasharray="1.2,0.8"/>
<line x1="49.831" y1="219.507" x2="49.831" y2="210.8" stroke="#8c8c8c" stroke-width="0.3" stroke-dasharray="1.2,0.8"/>
<line x1="49.831" y1="182.811" x2="49.831" y2="191.519" stroke="#8c8c8c" stroke-width="0.3" stroke-dasharray="1.2,0.8"/>
<line x1="58.538" y1="210.8" x2="58.538" y2="219.507" stroke="#141414" stroke-width="0.4"/>
<line x1="58.538" y1="182.811" x2="58.538" y2="191.519" stroke="#141414" stroke-width="0.4"/>
<line x1="58.538" y1="163.531" x2="58.538" y2="182.811" stroke="#141414" stroke-width="0.4"/>
<line x1="49.831" y1="163.531" x2="58.538" y2="163.531" stroke="#141414" stroke-width="0.4"/>
<line x1="41.123" y1="182.811" x2="41.123" y2="163.531" stroke="#141414" stroke-width="0.4"/>
<line x1="41.123" y1="163.531" x2="49.831" y2="163.531" stroke="#141414" stroke-width="0.4"/>
<line x1="49.831" y1="182.811" x2="41.123" y2="182.811" stroke="#141414" stroke-width="0.4"/>
<line x1="58.538" y1="210.8" x2="59.844" y2="215.154" stroke="#141414" stroke-width="0.4"/>
<line x1="59.844" y1="215.154" x2="65.94" y2="215.154" stroke="#141414" stroke-width="0.4"/>
<line x1="65.94" y1="215.154" x2="67.246" y2="210.8" stroke="#141414" stroke-width="0.4"/>
<line x1="58.538" y1="191.519" x2="59.844" y2="187.165" stroke="#141414" stroke-width="0.4"/>
<line x1="59.844" y1="187.165" x2="65.94" y2="187.165" stroke="#141414" stroke-width="0.4"/>
<line x1="65.94" y1="187.165" x2="67.246" y2="191.519" stroke="#141414" stroke-width="0.4"/>
<line x1="67.246" y1="210.8" x2="74.246" y2="207.908" stroke="#141414" stroke-width="0.4"/>
<line x1="74.246" y1="207.908" x2="74.246" y2="194.411" stroke="#141414" stroke-width="0.4"/>
<line x1="74.246" y1="194.411" x2="67.246" y2="191.519" stroke="#141414" stroke-width="0.4"/>
<line x1="58.538" y1="219.507" x2="57.232" y2="223.861" stroke="#141414" stroke-width="0.4"/>
<line x1="57.232" y1="223.861" x2="51.137" y2="223.861" stroke="#141414" stroke-width="0.4"/>
<line x1="51.137" y1="223.861" x2="49.831" y2="219.507" stroke="#141414" stroke-width="0.4"/>
<line x1="49.831" y1="210.8" x2="42.831" y2="207.908" stroke="#141414" stroke-width="0.4"/>
<line x1="42.831" y1="207.908" x2="42.831" y2="194.411" stroke="#141414" stroke-width="0.4"/>
<line x1="42.831" y1="194.411" x2="49.831" y2="191.519" stroke="#141414" stroke-width="0.4"/>
<line x1="49.831" y1="210.8" x2="45.477" y2="212.106" stroke="#141414" stroke-width="0.4"/>
<line x1="45.477" y1="212.106" x2="45.477" y2="218.201" stroke="#141414" stroke-width="0.4"/>
<line x1="45.477" y1="218.201" x2="49.831" y2="219.507" stroke="#141414" stroke-width="0.4"/>
<line x1="49.831" y1="191.519" x2="45.477" y2="190.213" stroke="#141414" stroke-width="0.4"/>
<line x1="45.477" y1="190.213" x2="45.477" y2="184.118" stroke="#141414" stroke-width="0.4"/>
<line x1="45.477" y1="184.118" x2="49.831" y2="182.811" stroke="#141414" stroke-width="0.4"/>
<circle cx="62.892" cy="212.977" r="1.88" fill="#99d9fa" stroke="#464646" stroke-width="0.2"/>
<text x="62.892" y="213.62" font-size="1.84" text-anchor="middle" fill="#141414">51</text>
<circle cx="62.892" cy="189.342" r="1.88" fill="#ffe082" stroke="#464646" stroke-width="0.2"/>
<text x="62.892" y="189.99" font-size="1.84" text-anchor="middle" fill="#141414">52</text>
<circle cx="70.746" cy="201.159" r="1.88" fill="#ffe082" stroke="#464646" stroke-width="0.2"/>
<text x="70.746" y="201.80" font-size="1.84" text-anchor="middle" fill="#141414">53</text>
<circle cx="54.184" cy="221.684" r="1.88" fill="#ffe082" stroke="#464646" stroke-width="0.2"/>
<text x="54.184" y="222.33" font-size="1.84" text-anchor="middle" fill="#141414">54</text>
<circle cx="46.331" cy="201.159" r="1.88" fill="#ffe082" stroke="#464646" stroke-width="0.2"/>
<text x="46.331" y="201.80" font-size="1.84" text-anchor="middle" fill="#141414">55</text>
<circle cx="47.654" cy="215.154" r="1.88" fill="#ffe082" stroke="#464646" stroke-width="0.2"/>
<text x="47.654" y="215.80" font-size="1.84" text-anchor="middle" fill="#141414">56</text>
<circle cx="47.654" cy="187.165" r="1.88" fill="#ffe082" stroke="#464646" stroke-width="0.2"/>
<text x="47.654" y="187.81" font-size="1.84" text-anchor="middle" fill="#141414">57</text>
<circle cx="55.636" cy="204.373" r="2.12" fill="#eaf1fe" stroke="#2e78e6" stroke-width="0.3"/>
<text x="55.636" y="205.20" font-size="2.60" text-anchor="middle" fill="#14306e" font-weight="bold">9</text>
<polygon points="94.661,210.8 95.968,215.154 102.063,215.154 103.369,210.8" fill="rgb(216,216,216)"/>
<polygon points="94.661,191.519 95.968,187.165 102.063,187.165 103.369,191.519" fill="rgb(216,216,216)"/>
<polygon points="103.369,210.8 110.369,207.908 110.369,194.411 103.369,191.519" fill="rgb(216,216,216)"/>
<polygon points="94.661,219.507 93.355,223.861 87.26,223.861 85.954,219.507" fill="rgb(216,216,216)"/>
<polygon points="85.954,210.8 78.954,207.908 78.954,194.411 85.954,191.519" fill="rgb(216,216,216)"/>
<polygon points="85.954,210.8 81.6,212.106 81.6,218.201 85.954,219.507" fill="rgb(216,216,216)"/>
<polygon points="85.954,191.519 81.6,190.213 81.6,184.118 85.954,182.811" fill="rgb(216,216,216)"/>
<polygon points="94.661,210.8 95.968,215.154 102.063,215.154 103.369,210.8" fill="#99d9fa"/>
<line x1="94.661" y1="210.8" x2="94.661" y2="191.519" stroke="#8c8c8c" stroke-width="0.3" stroke-dasharray="1.2,0.8"/>
<line x1="94.661" y1="210.8" x2="85.954" y2="210.8" stroke="#8c8c8c" stroke-width="0.3" stroke-dasharray="1.2,0.8"/>
<line x1="85.954" y1="191.519" x2="94.661" y2="191.519" stroke="#8c8c8c" stroke-width="0.3" stroke-dasharray="1.2,0.8"/>
<line x1="85.954" y1="182.811" x2="94.661" y2="182.811" stroke="#8c8c8c" stroke-width="0.3" stroke-dasharray="1.2,0.8"/>
<line x1="85.954" y1="182.811" x2="85.954" y2="163.531" stroke="#8c8c8c" stroke-width="0.3" stroke-dasharray="1.2,0.8"/>
<line x1="103.369" y1="210.8" x2="94.661" y2="210.8" stroke="#8c8c8c" stroke-width="0.3" stroke-dasharray="1.2,0.8"/>
<line x1="103.369" y1="191.519" x2="94.661" y2="191.519" stroke="#8c8c8c" stroke-width="0.3" stroke-dasharray="1.2,0.8"/>
<line x1="103.369" y1="191.519" x2="103.369" y2="210.8" stroke="#8c8c8c" stroke-width="0.3" stroke-dasharray="1.2,0.8"/>
<line x1="85.954" y1="219.507" x2="94.661" y2="219.507" stroke="#8c8c8c" stroke-width="0.3" stroke-dasharray="1.2,0.8"/>
<line x1="85.954" y1="191.519" x2="85.954" y2="210.8" stroke="#8c8c8c" stroke-width="0.3" stroke-dasharray="1.2,0.8"/>
<line x1="85.954" y1="219.507" x2="85.954" y2="210.8" stroke="#8c8c8c" stroke-width="0.3" stroke-dasharray="1.2,0.8"/>
<line x1="85.954" y1="182.811" x2="85.954" y2="191.519" stroke="#8c8c8c" stroke-width="0.3" stroke-dasharray="1.2,0.8"/>
<line x1="94.661" y1="210.8" x2="94.661" y2="219.507" stroke="#141414" stroke-width="0.4"/>
<line x1="94.661" y1="182.811" x2="94.661" y2="191.519" stroke="#141414" stroke-width="0.4"/>
<line x1="94.661" y1="163.531" x2="94.661" y2="182.811" stroke="#141414" stroke-width="0.4"/>
<line x1="85.954" y1="163.531" x2="94.661" y2="163.531" stroke="#141414" stroke-width="0.4"/>
<line x1="77.246" y1="182.811" x2="77.246" y2="163.531" stroke="#141414" stroke-width="0.4"/>
<line x1="77.246" y1="163.531" x2="85.954" y2="163.531" stroke="#141414" stroke-width="0.4"/>
<line x1="85.954" y1="182.811" x2="77.246" y2="182.811" stroke="#141414" stroke-width="0.4"/>
<line x1="94.661" y1="210.8" x2="95.968" y2="215.154" stroke="#141414" stroke-width="0.4"/>
<line x1="95.968" y1="215.154" x2="102.063" y2="215.154" stroke="#141414" stroke-width="0.4"/>
<line x1="102.063" y1="215.154" x2="103.369" y2="210.8" stroke="#141414" stroke-width="0.4"/>
<line x1="94.661" y1="191.519" x2="95.968" y2="187.165" stroke="#141414" stroke-width="0.4"/>
<line x1="95.968" y1="187.165" x2="102.063" y2="187.165" stroke="#141414" stroke-width="0.4"/>
<line x1="102.063" y1="187.165" x2="103.369" y2="191.519" stroke="#141414" stroke-width="0.4"/>
<line x1="103.369" y1="210.8" x2="110.369" y2="207.908" stroke="#141414" stroke-width="0.4"/>
<line x1="110.369" y1="207.908" x2="110.369" y2="194.411" stroke="#141414" stroke-width="0.4"/>
<line x1="110.369" y1="194.411" x2="103.369" y2="191.519" stroke="#141414" stroke-width="0.4"/>
<line x1="94.661" y1="219.507" x2="93.355" y2="223.861" stroke="#141414" stroke-width="0.4"/>
<line x1="93.355" y1="223.861" x2="87.26" y2="223.861" stroke="#141414" stroke-width="0.4"/>
<line x1="87.26" y1="223.861" x2="85.954" y2="219.507" stroke="#141414" stroke-width="0.4"/>
<line x1="85.954" y1="210.8" x2="78.954" y2="207.908" stroke="#141414" stroke-width="0.4"/>
<line x1="78.954" y1="207.908" x2="78.954" y2="194.411" stroke="#141414" stroke-width="0.4"/>
<line x1="78.954" y1="194.411" x2="85.954" y2="191.519" stroke="#141414" stroke-width="0.4"/>
<line x1="85.954" y1="210.8" x2="81.6" y2="212.106" stroke="#141414" stroke-width="0.4"/>
<line x1="81.6" y1="212.106" x2="81.6" y2="218.201" stroke="#141414" stroke-width="0.4"/>
<line x1="81.6" y1="218.201" x2="85.954" y2="219.507" stroke="#141414" stroke-width="0.4"/>
<line x1="85.954" y1="191.519" x2="81.6" y2="190.213" stroke="#141414" stroke-width="0.4"/>
<line x1="81.6" y1="190.213" x2="81.6" y2="184.118" stroke="#141414" stroke-width="0.4"/>
<line x1="81.6" y1="184.118" x2="85.954" y2="182.811" stroke="#141414" stroke-width="0.4"/>
<circle cx="99.015" cy="212.977" r="1.88" fill="#99d9fa" stroke="#464646" stroke-width="0.2"/>
<text x="99.015" y="213.62" font-size="1.84" text-anchor="middle" fill="#141414">58</text>
<circle cx="99.015" cy="189.342" r="1.88" fill="#ffe082" stroke="#464646" stroke-width="0.2"/>
<text x="99.015" y="189.99" font-size="1.84" text-anchor="middle" fill="#141414">59</text>
<circle cx="106.869" cy="201.159" r="1.88" fill="#ffe082" stroke="#464646" stroke-width="0.2"/>
<text x="106.869" y="201.80" font-size="1.84" text-anchor="middle" fill="#141414">60</text>
<circle cx="90.308" cy="221.684" r="1.88" fill="#ffe082" stroke="#464646" stroke-width="0.2"/>
<text x="90.308" y="222.33" font-size="1.84" text-anchor="middle" fill="#141414">61</text>
<circle cx="82.454" cy="201.159" r="1.88" fill="#ffe082" stroke="#464646" stroke-width="0.2"/>
<text x="82.454" y="201.80" font-size="1.84" text-anchor="middle" fill="#141414">62</text>
<circle cx="83.777" cy="215.154" r="1.88" fill="#ffe082" stroke="#464646" stroke-width="0.2"/>
<text x="83.777" y="215.80" font-size="1.84" text-anchor="middle" fill="#141414">63</text>
<circle cx="83.777" cy="187.165" r="1.88" fill="#ffe082" stroke="#464646" stroke-width="0.2"/>
<text x="83.777" y="187.81" font-size="1.84" text-anchor="middle" fill="#141414">64</text>
<circle cx="91.759" cy="204.373" r="2.12" fill="#eaf1fe" stroke="#2e78e6" stroke-width="0.3"/>
<text x="91.759" y="205.20" font-size="2.60" text-anchor="middle" fill="#14306e" font-weight="bold">10</text>
<polygon points="130.784,210.8 132.09,215.154 138.186,215.154 139.492,210.8" fill="rgb(216,216,216)"/>
<polygon points="130.784,191.519 132.09,187.165 138.186,187.165 139.492,191.519" fill="rgb(216,216,216)"/>
<polygon points="139.492,210.8 146.492,207.908 146.492,194.411 139.492,191.519" fill="rgb(216,216,216)"/>
<polygon points="130.784,219.507 129.478,223.861 123.383,223.861 122.077,219.507" fill="rgb(216,216,216)"/>
<polygon points="122.077,210.8 115.077,207.908 115.077,194.411 122.077,191.519" fill="rgb(216,216,216)"/>
<polygon points="122.077,210.8 117.723,212.106 117.723,218.201 122.077,219.507" fill="rgb(216,216,216)"/>
<polygon points="122.077,191.519 117.723,190.213 117.723,184.118 122.077,182.811" fill="rgb(216,216,216)"/>
<polygon points="130.784,210.8 132.09,215.154 138.186,215.154 139.492,210.8" fill="#99d9fa"/>
<line x1="130.784" y1="210.8" x2="130.784" y2="191.519" stroke="#8c8c8c" stroke-width="0.3" stroke-dasharray="1.2,0.8"/>
<line x1="130.784" y1="210.8" x2="122.077" y2="210.8" stroke="#8c8c8c" stroke-width="0.3" stroke-dasharray="1.2,0.8"/>
<line x1="122.077" y1="191.519" x2="130.784" y2="191.519" stroke="#8c8c8c" stroke-width="0.3" stroke-dasharray="1.2,0.8"/>
<line x1="122.077" y1="182.811" x2="130.784" y2="182.811" stroke="#8c8c8c" stroke-width="0.3" stroke-dasharray="1.2,0.8"/>
<line x1="122.077" y1="182.811" x2="122.077" y2="163.531" stroke="#8c8c8c" stroke-width="0.3" stroke-dasharray="1.2,0.8"/>
<line x1="139.492" y1="210.8" x2="130.784" y2="210.8" stroke="#8c8c8c" stroke-width="0.3" stroke-dasharray="1.2,0.8"/>
<line x1="139.492" y1="191.519" x2="130.784" y2="191.519" stroke="#8c8c8c" stroke-width="0.3" stroke-dasharray="1.2,0.8"/>
<line x1="139.492" y1="191.519" x2="139.492" y2="210.8" stroke="#8c8c8c" stroke-width="0.3" stroke-dasharray="1.2,0.8"/>
<line x1="122.077" y1="219.507" x2="130.784" y2="219.507" stroke="#8c8c8c" stroke-width="0.3" stroke-dasharray="1.2,0.8"/>
<line x1="122.077" y1="191.519" x2="122.077" y2="210.8" stroke="#8c8c8c" stroke-width="0.3" stroke-dasharray="1.2,0.8"/>
<line x1="122.077" y1="219.507" x2="122.077" y2="210.8" stroke="#8c8c8c" stroke-width="0.3" stroke-dasharray="1.2,0.8"/>
<line x1="122.077" y1="182.811" x2="122.077" y2="191.519" stroke="#8c8c8c" stroke-width="0.3" stroke-dasharray="1.2,0.8"/>
<line x1="130.784" y1="210.8" x2="130.784" y2="219.507" stroke="#141414" stroke-width="0.4"/>
<line x1="130.784" y1="182.811" x2="130.784" y2="191.519" stroke="#141414" stroke-width="0.4"/>
<line x1="130.784" y1="163.531" x2="130.784" y2="182.811" stroke="#141414" stroke-width="0.4"/>
<line x1="122.077" y1="163.531" x2="130.784" y2="163.531" stroke="#141414" stroke-width="0.4"/>
<line x1="113.369" y1="182.811" x2="113.369" y2="163.531" stroke="#141414" stroke-width="0.4"/>
<line x1="113.369" y1="163.531" x2="122.077" y2="163.531" stroke="#141414" stroke-width="0.4"/>
<line x1="122.077" y1="182.811" x2="113.369" y2="182.811" stroke="#141414" stroke-width="0.4"/>
<line x1="130.784" y1="210.8" x2="132.09" y2="215.154" stroke="#141414" stroke-width="0.4"/>
<line x1="132.09" y1="215.154" x2="138.186" y2="215.154" stroke="#141414" stroke-width="0.4"/>
<line x1="138.186" y1="215.154" x2="139.492" y2="210.8" stroke="#141414" stroke-width="0.4"/>
<line x1="130.784" y1="191.519" x2="132.09" y2="187.165" stroke="#141414" stroke-width="0.4"/>
<line x1="132.09" y1="187.165" x2="138.186" y2="187.165" stroke="#141414" stroke-width="0.4"/>
<line x1="138.186" y1="187.165" x2="139.492" y2="191.519" stroke="#141414" stroke-width="0.4"/>
<line x1="139.492" y1="210.8" x2="146.492" y2="207.908" stroke="#141414" stroke-width="0.4"/>
<line x1="146.492" y1="207.908" x2="146.492" y2="194.411" stroke="#141414" stroke-width="0.4"/>
<line x1="146.492" y1="194.411" x2="139.492" y2="191.519" stroke="#141414" stroke-width="0.4"/>
<line x1="130.784" y1="219.507" x2="129.478" y2="223.861" stroke="#141414" stroke-width="0.4"/>
<line x1="129.478" y1="223.861" x2="123.383" y2="223.861" stroke="#141414" stroke-width="0.4"/>
<line x1="123.383" y1="223.861" x2="122.077" y2="219.507" stroke="#141414" stroke-width="0.4"/>
<line x1="122.077" y1="210.8" x2="115.077" y2="207.908" stroke="#141414" stroke-width="0.4"/>
<line x1="115.077" y1="207.908" x2="115.077" y2="194.411" stroke="#141414" stroke-width="0.4"/>
<line x1="115.077" y1="194.411" x2="122.077" y2="191.519" stroke="#141414" stroke-width="0.4"/>
<line x1="122.077" y1="210.8" x2="117.723" y2="212.106" stroke="#141414" stroke-width="0.4"/>
<line x1="117.723" y1="212.106" x2="117.723" y2="218.201" stroke="#141414" stroke-width="0.4"/>
<line x1="117.723" y1="218.201" x2="122.077" y2="219.507" stroke="#141414" stroke-width="0.4"/>
<line x1="122.077" y1="191.519" x2="117.723" y2="190.213" stroke="#141414" stroke-width="0.4"/>
<line x1="117.723" y1="190.213" x2="117.723" y2="184.118" stroke="#141414" stroke-width="0.4"/>
<line x1="117.723" y1="184.118" x2="122.077" y2="182.811" stroke="#141414" stroke-width="0.4"/>
<circle cx="135.138" cy="212.977" r="1.88" fill="#99d9fa" stroke="#464646" stroke-width="0.2"/>
<text x="135.138" y="213.62" font-size="1.84" text-anchor="middle" fill="#141414">65</text>
<circle cx="135.138" cy="189.342" r="1.88" fill="#ffe082" stroke="#464646" stroke-width="0.2"/>
<text x="135.138" y="189.99" font-size="1.84" text-anchor="middle" fill="#141414">66</text>
<circle cx="142.992" cy="201.159" r="1.88" fill="#ffe082" stroke="#464646" stroke-width="0.2"/>
<text x="142.992" y="201.80" font-size="1.84" text-anchor="middle" fill="#141414">67</text>
<circle cx="126.43" cy="221.684" r="1.88" fill="#ffe082" stroke="#464646" stroke-width="0.2"/>
<text x="126.43" y="222.33" font-size="1.84" text-anchor="middle" fill="#141414">68</text>
<circle cx="118.577" cy="201.159" r="1.88" fill="#ffe082" stroke="#464646" stroke-width="0.2"/>
<text x="118.577" y="201.80" font-size="1.84" text-anchor="middle" fill="#141414">69</text>
<circle cx="119.9" cy="215.154" r="1.88" fill="#ffe082" stroke="#464646" stroke-width="0.2"/>
<text x="119.9" y="215.80" font-size="1.84" text-anchor="middle" fill="#141414">70</text>
<circle cx="119.9" cy="187.165" r="1.88" fill="#ffe082" stroke="#464646" stroke-width="0.2"/>
<text x="119.9" y="187.81" font-size="1.84" text-anchor="middle" fill="#141414">71</text>
<circle cx="127.882" cy="204.373" r="2.12" fill="#eaf1fe" stroke="#2e78e6" stroke-width="0.3"/>
<text x="127.882" y="205.20" font-size="2.60" text-anchor="middle" fill="#14306e" font-weight="bold">11</text>
<polygon points="164.716,178.682 161.405,172.093 169.053,164.445 175.641,167.756" fill="rgb(216,216,216)"/>
<polygon points="152.93,201.393 150.981,209.134 164.107,221.32 171.682,218.8" fill="rgb(216,216,216)"/>
<polygon points="175.641,189.607 182.23,192.918 189.878,185.27 186.567,178.682" fill="rgb(216,216,216)"/>
<polygon points="186.567,178.682 189.878,172.093 182.23,164.445 175.641,167.756" fill="rgb(216,216,216)"/>
<polygon points="164.716,178.682 161.405,172.093 169.053,164.445 175.641,167.756" fill="#99d9fa"/>
<line x1="152.93" y1="201.393" x2="164.715" y2="178.682" stroke="#8c8c8c" stroke-width="0.3" stroke-dasharray="1.2,0.8"/>
<line x1="175.641" y1="189.607" x2="164.715" y2="178.682" stroke="#8c8c8c" stroke-width="0.3" stroke-dasharray="1.2,0.8"/>
<line x1="175.641" y1="189.607" x2="152.93" y2="201.393" stroke="#8c8c8c" stroke-width="0.3" stroke-dasharray="1.2,0.8"/>
<line x1="178.285" y1="204.831" x2="152.93" y2="201.393" stroke="#8c8c8c" stroke-width="0.3" stroke-dasharray="1.2,0.8"/>
<line x1="175.641" y1="167.756" x2="164.716" y2="178.682" stroke="#8c8c8c" stroke-width="0.3" stroke-dasharray="1.2,0.8"/>
<line x1="171.682" y1="218.8" x2="152.93" y2="201.393" stroke="#8c8c8c" stroke-width="0.3" stroke-dasharray="1.2,0.8"/>
<line x1="186.567" y1="178.682" x2="175.641" y2="189.607" stroke="#8c8c8c" stroke-width="0.3" stroke-dasharray="1.2,0.8"/>
<line x1="175.641" y1="167.756" x2="186.567" y2="178.682" stroke="#8c8c8c" stroke-width="0.3" stroke-dasharray="1.2,0.8"/>
<line x1="149.492" y1="176.038" x2="164.715" y2="178.682" stroke="#141414" stroke-width="0.4"/>
<line x1="152.93" y1="201.393" x2="149.492" y2="176.038" stroke="#141414" stroke-width="0.4"/>
<line x1="175.641" y1="189.607" x2="178.285" y2="204.831" stroke="#141414" stroke-width="0.4"/>
<line x1="178.285" y1="204.831" x2="171.683" y2="218.8" stroke="#141414" stroke-width="0.4"/>
<line x1="164.716" y1="178.682" x2="161.405" y2="172.093" stroke="#141414" stroke-width="0.4"/>
<line x1="161.405" y1="172.093" x2="169.053" y2="164.445" stroke="#141414" stroke-width="0.4"/>
<line x1="169.053" y1="164.445" x2="175.641" y2="167.756" stroke="#141414" stroke-width="0.4"/>
<line x1="152.93" y1="201.393" x2="150.981" y2="209.134" stroke="#141414" stroke-width="0.4"/>
<line x1="150.981" y1="209.134" x2="164.107" y2="221.32" stroke="#141414" stroke-width="0.4"/>
<line x1="164.107" y1="221.32" x2="171.682" y2="218.8" stroke="#141414" stroke-width="0.4"/>
<line x1="175.641" y1="189.607" x2="182.23" y2="192.918" stroke="#141414" stroke-width="0.4"/>
<line x1="182.23" y1="192.918" x2="189.878" y2="185.27" stroke="#141414" stroke-width="0.4"/>
<line x1="189.878" y1="185.27" x2="186.567" y2="178.682" stroke="#141414" stroke-width="0.4"/>
<line x1="186.567" y1="178.682" x2="189.878" y2="172.093" stroke="#141414" stroke-width="0.4"/>
<line x1="189.878" y1="172.093" x2="182.23" y2="164.445" stroke="#141414" stroke-width="0.4"/>
<line x1="182.23" y1="164.445" x2="175.641" y2="167.756" stroke="#141414" stroke-width="0.4"/>
<circle cx="167.703" cy="170.744" r="1.88" fill="#99d9fa" stroke="#464646" stroke-width="0.2"/>
<text x="167.703" y="171.39" font-size="1.84" text-anchor="middle" fill="#141414">131</text>
<circle cx="159.925" cy="212.662" r="1.88" fill="#ffe082" stroke="#464646" stroke-width="0.2"/>
<text x="159.925" y="213.31" font-size="1.84" text-anchor="middle" fill="#141414">132</text>
<circle cx="183.579" cy="186.619" r="1.88" fill="#ffe082" stroke="#464646" stroke-width="0.2"/>
<text x="183.579" y="187.26" font-size="1.84" text-anchor="middle" fill="#141414">133</text>
<circle cx="183.579" cy="170.744" r="1.88" fill="#ffe082" stroke="#464646" stroke-width="0.2"/>
<text x="183.579" y="171.39" font-size="1.84" text-anchor="middle" fill="#141414">134</text>
<circle cx="168.952" cy="198.61" r="3.93" fill="#eaf1fe" stroke="#2e78e6" stroke-width="0.3"/>
<text x="168.952" y="200.15" font-size="4.44" text-anchor="middle" fill="#14306e" font-weight="bold">17</text>
<text x="205.0" y="295.0" font-size="3.2" text-anchor="end" fill="#737373" font-family="sans-serif">2 / 5</text>
</svg>
