<svg xmlns="http://www.w3.org/2000/svg" xmlns:xlink="http://www.w3.org/1999/xlink" width="210.00mm" height="297.00mm" viewBox="0 0 210.00 297.00">
<rect x="0" y="0" width="210.00" height="297.00" fill="#ffffff" stroke="#cccccc" stroke-width="0.2"/>
<polygon points="37.391,29.095 35.743,20.844 51.15,5.437 59.401,7.086" fill="rgb(216,216,216)"/>
<polygon points="29.095,37.391 27.447,45.642 42.854,61.049 51.105,59.401" fill="rgb(216,216,216)"/>
<polygon points="29.095,37.391 20.844,39.04 5.437,23.633 7.086,15.382" fill="rgb(216,216,216)"/>
<polygon points="59.401,51.105 67.652,52.753 83.059,37.346 81.41,29.095" fill="rgb(216,216,216)"/>
<polygon points="51.105,59.401 49.457,67.652 64.863,83.059 73.114,81.41" fill="rgb(216,216,216)"/>
<polygon points="81.41,29.095 83.059,20.844 67.652,5.437 59.401,7.086" fill="rgb(216,216,216)"/>
<polygon points="103.42,95.124 106.324,100.517 100.517,106.324 95.124,103.42" fill="rgb(216,216,216)"/>
<polygon points="37.391,29.095 35.743,20.844 51.15,5.437 59.401,7.086" fill="#99d9fa"/>
<line x1="29.095" y1="37.391" x2="37.391" y2="29.095" stroke="#8c8c8c" stroke-width="0.3" stroke-dasharray="1.2,0.8"/>
<line x1="59.401" y1="51.105" x2="37.391" y2="29.095" stroke="#8c8c8c" stroke-width="0.3" stroke-dasharray="1.2,0.8"/>
<line x1="59.401" y1="51.105" x2="51.105" y2="59.401" stroke="#8c8c8c" stroke-width="0.3" stroke-dasharray="1.2,0.8"/>
<line x1="81.41" y1="73.115" x2="73.115" y2="81.41" stroke="#8c8c8c" stroke-width="0.3" stroke-dasharray="1.2,0.8"/>
<line x1="95.124" y1="103.42" x2="73.115" y2="81.41" stroke="#8c8c8c" stroke-width="0.3" stroke-dasharray="1.2,0.8"/>
<line x1="59.401" y1="7.086" x2="37.391" y2="29.095" stroke="#8c8c8c" stroke-width="0.3" stroke-dasharray="1.2,0.8"/>
<line x1="51.105" y1="59.401" x2="29.095" y2="37.391" stroke="#8c8c8c" stroke-width="0.3" stroke-dasharray="1.2,0.8"/>
<line x1="7.086" y1="15.382" x2="29.095" y2="37.391" stroke="#8c8c8c" stroke-width="0.3" stroke-dasharray="1.2,0.8"/>
<line x1="81.41" y1="29.095" x2="59.401" y2="51.105" stroke="#8c8c8c" stroke-width="0.3" stroke-dasharray="1.2,0.8"/>
<line x1="73.114" y1="81.41" x2="51.105" y2="59.401" stroke="#8c8c8c" stroke-width="0.3" stroke-dasharray="1.2,0.8"/>
<line x1="59.401" y1="7.086" x2="81.41" y2="29.095" stroke="#8c8c8c" stroke-width="0.3" stroke-dasharray="1.2,0.8"/>
<line x1="95.124" y1="103.42" x2="103.42" y2="95.124" stroke="#8c8c8c" stroke-width="0.3" stroke-dasharray="1.2,0.8"/>
<line x1="15.382" y1="7.086" x2="37.391" y2="29.095" stroke="#141414" stroke-width="0.4"/>
<line x1="73.115" y1="125.43" x2="51.105" y2="103.42" stroke="#141414" stroke-width="0.4"/>
<line x1="95.124" y1="103.42" x2="73.115" y2="125.43" stroke="#141414" stroke-width="0.4"/>
<line x1="59.401" y1="51.105" x2="81.41" y2="73.115" stroke="#141414" stroke-width="0.4"/>
<line x1="51.105" y1="103.42" x2="73.115" y2="81.41" stroke="#141414" stroke-width="0.4"/>
<line x1="81.41" y1="73.115" x2="103.42" y2="95.124" stroke="#141414" stroke-width="0.4"/>
<line x1="7.086" y1="15.382" x2="15.382" y2="7.086" stroke="#141414" stroke-width="0.4"/>
<line x1="37.391" y1="29.095" x2="35.743" y2="20.844" stroke="#141414" stroke-width="0.4"/>
<line x1="35.743" y1="20.844" x2="51.15" y2="5.437" stroke="#141414" stroke-width="0.4"/>
<line x1="51.15" y1="5.437" x2="59.401" y2="7.086" stroke="#141414" stroke-width="0.4"/>
<line x1="29.095" y1="37.391" x2="27.447" y2="45.642" stroke="#141414" stroke-width="0.4"/>
<line x1="27.447" y1="45.642" x2="42.854" y2="61.049" stroke="#141414" stroke-width="0.4"/>
<line x1="42.854" y1="61.049" x2="51.105" y2="59.401" stroke="#141414" stroke-width="0.4"/>
<line x1="29.095" y1="37.391" x2="20.844" y2="39.04" stroke="#141414" stroke-width="0.4"/>
<line x1="20.844" y1="39.04" x2="5.437" y2="23.633" stroke="#141414" stroke-width="0.4"/>
<line x1="5.437" y1="23.633" x2="7.086" y2="15.382" stroke="#141414" stroke-width="0.4"/>
<line x1="59.401" y1="51.105" x2="67.652" y2="52.753" stroke="#141414" stroke-width="0.4"/>
<line x1="67.652" y1="52.753" x2="83.059" y2="37.346" stroke="#141414" stroke-width="0.4"/>
<line x1="83.059" y1="37.346" x2="81.41" y2="29.095" stroke="#141414" stroke-width="0.4"/>
<line x1="51.105" y1="59.401" x2="49.457" y2="67.652" stroke="#141414" stroke-width="0.4"/>
<line x1="49.457" y1="67.652" x2="64.863" y2="83.059" stroke="#141414" stroke-width="0.4"/>
<line x1="64.863" y1="83.059" x2="73.114" y2="81.41" stroke="#141414" stroke-width="0.4"/>
<line x1="81.41" y1="29.095" x2="83.059" y2="20.844" stroke="#141414" stroke-width="0.4"/>
<line x1="83.059" y1="20.844" x2="67.652" y2="5.437" stroke="#141414" stroke-width="0.4"/>
<line x1="67.652" y1="5.437" x2="59.401" y2="7.086" stroke="#141414" stroke-width="0.4"/>
<line x1="103.42" y1="95.124" x2="106.324" y2="100.517" stroke="#141414" stroke-width="0.4"/>
<line x1="106.324" y1="100.517" x2="100.517" y2="106.324" stroke="#141414" stroke-width="0.4"/>
<line x1="100.517" y1="106.324" x2="95.124" y2="103.42" stroke="#141414" stroke-width="0.4"/>
<circle cx="45.921" cy="15.616" r="1.74" fill="#99d9fa" stroke="#464646" stroke-width="0.2"/>
<text x="45.921" y="16.21" font-size="1.71" text-anchor="middle" fill="#141414">78</text>
<circle cx="37.625" cy="50.871" r="1.74" fill="#ffe082" stroke="#464646" stroke-width="0.2"/>
<text x="37.625" y="51.47" font-size="1.71" text-anchor="middle" fill="#141414">79</text>
<circle cx="15.616" cy="28.861" r="1.74" fill="#ffe082" stroke="#464646" stroke-width="0.2"/>
<text x="15.616" y="29.46" font-size="1.71" text-anchor="middle" fill="#141414">80</text>
<circle cx="72.881" cy="42.575" r="1.74" fill="#ffe082" stroke="#464646" stroke-width="0.2"/>
<text x="72.881" y="43.17" font-size="1.71" text-anchor="middle" fill="#141414">81</text>
<circle cx="59.635" cy="72.881" r="1.74" fill="#ffe082" stroke="#464646" stroke-width="0.2"/>
<text x="59.635" y="73.48" font-size="1.71" text-anchor="middle" fill="#141414">82</text>
<circle cx="72.881" cy="15.616" r="1.74" fill="#ffe082" stroke="#464646" stroke-width="0.2"/>
<text x="72.881" y="16.21" font-size="1.71" text-anchor="middle" fill="#141414">83</text>
<circle cx="101.346" cy="101.346" r="1.74" fill="#ffe082" stroke="#464646" stroke-width="0.2"/>
<text x="101.346" y="101.94" font-size="1.71" text-anchor="middle" fill="#141414">84</text>
<circle cx="52.064" cy="36.432" r="4.15" fill="#eaf1fe" stroke="#2e78e6" stroke-width="0.3"/>
<text x="52.064" y="38.06" font-size="4.69" text-anchor="middle" fill="#14306e" font-weight="bold">12</text>
<polygon points="32.935,152.066 29.813,144.573 30.648,142.557 38.154,139.467" fill="rgb(216,216,216)"/>
<polygon points="16.474,158.884 10.958,163.383 14.611,172.202 21.693,171.483" fill="rgb(216,216,216)"/>
<polygon points="16.474,158.884 9.392,159.603 5.739,150.784 11.256,146.285" fill="rgb(216,216,216)"/>
<polygon points="38.154,164.664 41.244,172.17 43.26,173.005 50.753,169.883" fill="rgb(216,216,216)"/>
<polygon points="21.693,171.483 16.176,175.982 19.829,184.801 26.912,184.081" fill="rgb(216,216,216)"/>
<polygon points="50.753,169.883 55.252,175.399 64.071,171.746 63.351,164.664" fill="rgb(216,216,216)"/>
<polygon points="26.912,184.081 21.395,188.581 25.048,197.399 32.13,196.68" fill="rgb(216,216,216)"/>
<polygon points="63.351,164.664 70.433,165.384 74.087,156.565 68.57,152.066" fill="rgb(216,216,216)"/>
<polygon points="32.13,196.68 29.009,204.172 29.844,206.188 37.349,209.279" fill="rgb(216,216,216)"/>
<polygon points="68.57,152.066 74.087,147.567 70.433,138.747 63.351,139.467" fill="rgb(216,216,216)"/>
<polygon points="63.351,139.467 64.071,132.385 55.252,128.732 50.753,134.248" fill="rgb(216,216,216)"/>
<polygon points="42.567,221.878 39.446,229.37 40.281,231.386 47.786,234.476" fill="rgb(216,216,216)"/>
<polygon points="50.753,134.248 46.254,128.732 37.434,132.385 38.154,139.467" fill="rgb(216,216,216)"/>
<polygon points="47.786,234.476 42.269,238.976 45.922,247.795 53.004,247.075" fill="rgb(216,216,216)"/>
<polygon points="69.465,240.257 69.675,247.747 58.152,252.519 53.004,247.075" fill="rgb(216,216,216)"/>
<polygon points="32.935,152.066 29.813,144.573 30.648,142.557 38.154,139.467" fill="#99d9fa"/>
<line x1="16.474" y1="158.884" x2="32.935" y2="152.066" stroke="#8c8c8c" stroke-width="0.3" stroke-dasharray="1.2,0.8"/>
<line x1="38.154" y1="164.664" x2="32.935" y2="152.066" stroke="#8c8c8c" stroke-width="0.3" stroke-dasharray="1.2,0.8"/>
<line x1="38.154" y1="164.664" x2="21.693" y2="171.483" stroke="#8c8c8c" stroke-width="0.3" stroke-dasharray="1.2,0.8"/>
<line x1="43.373" y1="177.263" x2="26.912" y2="184.081" stroke="#8c8c8c" stroke-width="0.3" stroke-dasharray="1.2,0.8"/>
<line x1="48.591" y1="189.862" x2="32.13" y2="196.68" stroke="#8c8c8c" stroke-width="0.3" stroke-dasharray="1.2,0.8"/>
<line x1="53.81" y1="202.461" x2="37.349" y2="209.279" stroke="#8c8c8c" stroke-width="0.3" stroke-dasharray="1.2,0.8"/>
<line x1="42.567" y1="221.878" x2="37.349" y2="209.279" stroke="#8c8c8c" stroke-width="0.3" stroke-dasharray="1.2,0.8"/>
<line x1="59.028" y1="215.059" x2="42.567" y2="221.878" stroke="#8c8c8c" stroke-width="0.3" stroke-dasharray="1.2,0.8"/>
<line x1="64.247" y1="227.658" x2="47.786" y2="234.476" stroke="#8c8c8c" stroke-width="0.3" stroke-dasharray="1.2,0.8"/>
<line x1="38.154" y1="139.467" x2="32.935" y2="152.066" stroke="#8c8c8c" stroke-width="0.3" stroke-dasharray="1.2,0.8"/>
<line x1="21.693" y1="171.483" x2="16.474" y2="158.884" stroke="#8c8c8c" stroke-width="0.3" stroke-dasharray="1.2,0.8"/>
<line x1="11.256" y1="146.285" x2="16.474" y2="158.884" stroke="#8c8c8c" stroke-width="0.3" stroke-dasharray="1.2,0.8"/>
<line x1="50.753" y1="169.883" x2="38.154" y2="164.664" stroke="#8c8c8c" stroke-width="0.3" stroke-dasharray="1.2,0.8"/>
<line x1="26.912" y1="184.081" x2="21.693" y2="171.483" stroke="#8c8c8c" stroke-width="0.3" stroke-dasharray="1.2,0.8"/>
<line x1="63.351" y1="164.664" x2="50.753" y2="169.883" stroke="#8c8c8c" stroke-width="0.3" stroke-dasharray="1.2,0.8"/>
<line x1="32.13" y1="196.68" x2="26.912" y2="184.081" stroke="#8c8c8c" stroke-width="0.3" stroke-dasharray="1.2,0.8"/>
<line x1="68.57" y1="152.066" x2="63.351" y2="164.664" stroke="#8c8c8c" stroke-width="0.3" stroke-dasharray="1.2,0.8"/>
<line x1="37.349" y1="209.279" x2="32.13" y2="196.68" stroke="#8c8c8c" stroke-width="0.3" stroke-dasharray="1.2,0.8"/>
<line x1="63.351" y1="139.467" x2="68.57" y2="152.066" stroke="#8c8c8c" stroke-width="0.3" stroke-dasharray="1.2,0.8"/>
<line x1="50.753" y1="134.248" x2="63.351" y2="139.467" stroke="#8c8c8c" stroke-width="0.3" stroke-dasharray="1.2,0.8"/>
<line x1="47.786" y1="234.476" x2="42.567" y2="221.878" stroke="#8c8c8c" stroke-width="0.3" stroke-dasharray="1.2,0.8"/>
<line x1="38.154" y1="139.467" x2="50.753" y2="134.248" stroke="#8c8c8c" stroke-width="0.3" stroke-dasharray="1.2,0.8"/>
<line x1="53.004" y1="247.075" x2="47.786" y2="234.476" stroke="#8c8c8c" stroke-width="0.3" stroke-dasharray="1.2,0.8"/>
<line x1="53.004" y1="247.075" x2="69.465" y2="240.257" stroke="#8c8c8c" stroke-width="0.3" stroke-dasharray="1.2,0.8"/>
<line x1="27.717" y1="139.467" x2="32.935" y2="152.066" stroke="#141414" stroke-width="0.4"/>
<line x1="12.151" y1="234.476" x2="6.933" y2="221.878" stroke="#141414" stroke-width="0.4"/>
<line x1="24.75" y1="239.695" x2="12.151" y2="234.476" stroke="#141414" stroke-width="0.4"/>
<line x1="38.154" y1="164.664" x2="43.373" y2="177.263" stroke="#141414" stroke-width="0.4"/>
<line x1="6.933" y1="221.878" x2="12.151" y2="209.279" stroke="#141414" stroke-width="0.4"/>
<line x1="43.373" y1="177.263" x2="48.591" y2="189.862" stroke="#141414" stroke-width="0.4"/>
<line x1="12.151" y1="209.279" x2="24.75" y2="204.06" stroke="#141414" stroke-width="0.4"/>
<line x1="48.591" y1="189.862" x2="53.81" y2="202.461" stroke="#141414" stroke-width="0.4"/>
<line x1="24.75" y1="204.06" x2="37.349" y2="209.279" stroke="#141414" stroke-width="0.4"/>
<line x1="53.81" y1="202.461" x2="59.028" y2="215.059" stroke="#141414" stroke-width="0.4"/>
<line x1="59.028" y1="215.059" x2="64.247" y2="227.658" stroke="#141414" stroke-width="0.4"/>
<line x1="42.567" y1="221.878" x2="37.349" y2="234.476" stroke="#141414" stroke-width="0.4"/>
<line x1="64.247" y1="227.658" x2="69.465" y2="240.257" stroke="#141414" stroke-width="0.4"/>
<line x1="37.349" y1="234.476" x2="24.75" y2="239.695" stroke="#141414" stroke-width="0.4"/>
<line x1="11.256" y1="146.285" x2="27.717" y2="139.467" stroke="#141414" stroke-width="0.4"/>
<line x1="32.935" y1="152.066" x2="29.813" y2="144.573" stroke="#141414" stroke-width="0.4"/>
<line x1="29.813" y1="144.573" x2="30.648" y2="142.557" stroke="#141414" stroke-width="0.4"/>
<line x1="30.648" y1="142.557" x2="38.154" y2="139.467" stroke="#141414" stroke-width="0.4"/>
<line x1="16.474" y1="158.884" x2="10.958" y2="163.383" stroke="#141414" stroke-width="0.4"/>
<line x1="10.958" y1="163.383" x2="14.611" y2="172.202" stroke="#141414" stroke-width="0.4"/>
<line x1="14.611" y1="172.202" x2="21.693" y2="171.483" stroke="#141414" stroke-width="0.4"/>
<line x1="16.474" y1="158.884" x2="9.392" y2="159.603" stroke="#141414" stroke-width="0.4"/>
<line x1="9.392" y1="159.603" x2="5.739" y2="150.784" stroke="#141414" stroke-width="0.4"/>
<line x1="5.739" y1="150.784" x2="11.256" y2="146.285" stroke="#141414" stroke-width="0.4"/>
<line x1="38.154" y1="164.664" x2="41.244" y2="172.17" stroke="#141414" stroke-width="0.4"/>
<line x1="41.244" y1="172.17" x2="43.26" y2="173.005" stroke="#141414" stroke-width="0.4"/>
<line x1="43.26" y1="173.005" x2="50.753" y2="169.883" stroke="#141414" stroke-width="0.4"/>
<line x1="21.693" y1="171.483" x2="16.176" y2="175.982" stroke="#141414" stroke-width="0.4"/>
<line x1="16.176" y1="175.982" x2="19.829" y2="184.801" stroke="#141414" stroke-width="0.4"/>
<line x1="19.829" y1="184.801" x2="26.912" y2="184.081" stroke="#141414" stroke-width="0.4"/>
<line x1="50.753" y1="169.883" x2="55.252" y2="175.399" stroke="#141414" stroke-width="0.4"/>
<line x1="55.252" y1="175.399" x2="64.071" y2="171.746" stroke="#141414" stroke-width="0.4"/>
<line x1="64.071" y1="171.746" x2="63.351" y2="164.664" stroke="#141414" stroke-width="0.4"/>
<line x1="26.912" y1="184.081" x2="21.395" y2="188.581" stroke="#141414" stroke-width="0.4"/>
<line x1="21.395" y1="188.581" x2="25.048" y2="197.399" stroke="#141414" stroke-width="0.4"/>
<line x1="25.048" y1="197.399" x2="32.13" y2="196.68" stroke="#141414" stroke-width="0.4"/>
<line x1="63.351" y1="164.664" x2="70.433" y2="165.384" stroke="#141414" stroke-width="0.4"/>
<line x1="70.433" y1="165.384" x2="74.087" y2="156.565" stroke="#141414" stroke-width="0.4"/>
<line x1="74.087" y1="156.565" x2="68.57" y2="152.066" stroke="#141414" stroke-width="0.4"/>
<line x1="32.13" y1="196.68" x2="29.009" y2="204.172" stroke="#141414" stroke-width="0.4"/>
<line x1="29.009" y1="204.172" x2="29.844" y2="206.188" stroke="#141414" stroke-width="0.4"/>
<line x1="29.844" y1="206.188" x2="37.349" y2="209.279" stroke="#141414" stroke-width="0.4"/>
<line x1="68.57" y1="152.066" x2="74.087" y2="147.567" stroke="#141414" stroke-width="0.4"/>
<line x1="74.087" y1="147.567" x2="70.433" y2="138.747" stroke="#141414" stroke-width="0.4"/>
<line x1="70.433" y1="138.747" x2="63.351" y2="139.467" stroke="#141414" stroke-width="0.4"/>
<line x1="63.351" y1="139.467" x2="64.071" y2="132.385" stroke="#141414" stroke-width="0.4"/>
<line x1="64.071" y1="132.385" x2="55.252" y2="128.732" stroke="#141414" stroke-width="0.4"/>
<line x1="55.252" y1="128.732" x2="50.753" y2="134.248" stroke="#141414" stroke-width="0.4"/>
<line x1="42.567" y1="221.878" x2="39.446" y2="229.37" stroke="#141414" stroke-width="0.4"/>
<line x1="39.446" y1="229.37" x2="40.281" y2="231.386" stroke="#141414" stroke-width="0.4"/>
<line x1="40.281" y1="231.386" x2="47.786" y2="234.476" stroke="#141414" stroke-width="0.4"/>
<line x1="50.753" y1="134.248" x2="46.254" y2="128.732" stroke="#141414" stroke-width="0.4"/>
<line x1="46.254" y1="128.732" x2="37.434" y2="132.385" stroke="#141414" stroke-width="0.4"/>
<line x1="37.434" y1="132.385" x2="38.154" y2="139.467" stroke="#141414" stroke-width="0.4"/>
<line x1="47.786" y1="234.476" x2="42.269" y2="238.976" stroke="#141414" stroke-width="0.4"/>
<line x1="42.269" y1="238.976" x2="45.922" y2="247.795" stroke="#141414" stroke-width="0.4"/>
<line x1="45.922" y1="247.795" x2="53.004" y2="247.075" stroke="#141414" stroke-width="0.4"/>
<line x1="69.465" y1="240.257" x2="69.675" y2="247.747" stroke="#141414" stroke-width="0.4"/>
<line x1="69.675" y1="247.747" x2="58.152" y2="252.519" stroke="#141414" stroke-width="0.4"/>
<line x1="58.152" y1="252.519" x2="53.004" y2="247.075" stroke="#141414" stroke-width="0.4"/>
<circle cx="32.888" cy="144.666" r="1.74" fill="#99d9fa" stroke="#464646" stroke-width="0.2"/>
<text x="32.888" y="145.26" font-size="1.71" text-anchor="middle" fill="#141414">85</text>
<circle cx="15.934" cy="166.488" r="1.74" fill="#ffe082" stroke="#464646" stroke-width="0.2"/>
<text x="15.934" y="167.09" font-size="1.71" text-anchor="middle" fill="#141414">86</text>
<circle cx="10.715" cy="153.889" r="1.74" fill="#ffe082" stroke="#464646" stroke-width="0.2"/>
<text x="10.715" y="154.49" font-size="1.71" text-anchor="middle" fill="#141414">87</text>
<circle cx="43.353" cy="169.931" r="1.74" fill="#ffe082" stroke="#464646" stroke-width="0.2"/>
<text x="43.353" y="170.53" font-size="1.71" text-anchor="middle" fill="#141414">88</text>
<circle cx="21.152" cy="179.087" r="1.74" fill="#ffe082" stroke="#464646" stroke-width="0.2"/>
<text x="21.152" y="179.68" font-size="1.71" text-anchor="middle" fill="#141414">89</text>
<circle cx="58.357" cy="170.423" r="1.74" fill="#ffe082" stroke="#464646" stroke-width="0.2"/>
<text x="58.357" y="171.02" font-size="1.71" text-anchor="middle" fill="#141414">90</text>
<circle cx="26.371" cy="191.685" r="1.74" fill="#ffe082" stroke="#464646" stroke-width="0.2"/>
<text x="26.371" y="192.28" font-size="1.71" text-anchor="middle" fill="#141414">91</text>
<circle cx="69.11" cy="159.67" r="1.74" fill="#ffe082" stroke="#464646" stroke-width="0.2"/>
<text x="69.11" y="160.27" font-size="1.71" text-anchor="middle" fill="#141414">92</text>
<circle cx="32.083" cy="204.08" r="1.74" fill="#ffe082" stroke="#464646" stroke-width="0.2"/>
<text x="32.083" y="204.68" font-size="1.71" text-anchor="middle" fill="#141414">93</text>
<circle cx="69.11" cy="144.462" r="1.74" fill="#ffe082" stroke="#464646" stroke-width="0.2"/>
<text x="69.11" y="145.06" font-size="1.71" text-anchor="middle" fill="#141414">94</text>
<circle cx="58.357" cy="133.708" r="1.74" fill="#ffe082" stroke="#464646" stroke-width="0.2"/>
<text x="58.357" y="134.31" font-size="1.71" text-anchor="middle" fill="#141414">95</text>
<circle cx="42.52" cy="229.277" r="1.74" fill="#ffe082" stroke="#464646" stroke-width="0.2"/>
<text x="42.52" y="229.87" font-size="1.71" text-anchor="middle" fill="#141414">96</text>
<circle cx="43.149" cy="133.708" r="1.74" fill="#ffe082" stroke="#464646" stroke-width="0.2"/>
<text x="43.149" y="134.31" font-size="1.71" text-anchor="middle" fill="#141414">97</text>
<circle cx="47.245" cy="242.08" r="1.74" fill="#ffe082" stroke="#464646" stroke-width="0.2"/>
<text x="47.245" y="242.68" font-size="1.71" text-anchor="middle" fill="#141414">98</text>
<circle cx="62.574" cy="246.9" r="1.74" fill="#ffe082" stroke="#464646" stroke-width="0.2"/>
<text x="62.574" y="247.50" font-size="1.71" text-anchor="middle" fill="#141414">99</text>
<circle cx="54.952" cy="141.927" r="3.36" fill="#eaf1fe" stroke="#2e78e6" stroke-width="0.3"/>
<text x="54.952" y="143.24" font-size="3.80" text-anchor="middle" fill="#14306e" font-weight="bold">13</text>
<polygon points="98.153,160.978 100.068,153.46 106.356,147.172 113.874,145.257" fill="rgb(216,216,216)"/>
<polygon points="82.286,165.316 81.424,174.353 100.499,193.428 109.536,192.566" fill="rgb(216,216,216)"/>
<polygon points="82.286,165.316 76.946,157.974 83.664,131.848 91.883,127.992" fill="rgb(216,216,216)"/>
<polygon points="113.874,176.699 121.392,174.784 127.68,168.496 129.595,160.978" fill="rgb(216,216,216)"/>
<polygon points="109.536,192.566 116.878,197.906 143.004,191.188 146.86,182.969" fill="rgb(216,216,216)"/>
<polygon points="129.595,160.978 132.187,153.67 121.182,142.665 113.874,145.257" fill="rgb(216,216,216)"/>
<polygon points="141.595,149.808 142.354,142.425 153.548,139.728 157.586,145.955" fill="rgb(216,216,216)"/>
<polygon points="98.153,160.978 100.068,153.46 106.356,147.172 113.874,145.257" fill="#99d9fa"/>
<line x1="82.286" y1="165.316" x2="98.153" y2="160.978" stroke="#8c8c8c" stroke-width="0.3" stroke-dasharray="1.2,0.8"/>
<line x1="113.874" y1="176.699" x2="98.153" y2="160.978" stroke="#8c8c8c" stroke-width="0.3" stroke-dasharray="1.2,0.8"/>
<line x1="113.874" y1="176.699" x2="109.536" y2="192.566" stroke="#8c8c8c" stroke-width="0.3" stroke-dasharray="1.2,0.8"/>
<line x1="135.407" y1="171.163" x2="146.86" y2="182.969" stroke="#8c8c8c" stroke-width="0.3" stroke-dasharray="1.2,0.8"/>
<line x1="157.586" y1="145.955" x2="146.86" y2="182.969" stroke="#8c8c8c" stroke-width="0.3" stroke-dasharray="1.2,0.8"/>
<line x1="113.874" y1="145.257" x2="98.153" y2="160.978" stroke="#8c8c8c" stroke-width="0.3" stroke-dasharray="1.2,0.8"/>
<line x1="109.536" y1="192.566" x2="82.286" y2="165.316" stroke="#8c8c8c" stroke-width="0.3" stroke-dasharray="1.2,0.8"/>
<line x1="91.883" y1="127.992" x2="82.286" y2="165.316" stroke="#8c8c8c" stroke-width="0.3" stroke-dasharray="1.2,0.8"/>
<line x1="129.595" y1="160.978" x2="113.874" y2="176.699" stroke="#8c8c8c" stroke-width="0.3" stroke-dasharray="1.2,0.8"/>
<line x1="146.86" y1="182.969" x2="109.536" y2="192.566" stroke="#8c8c8c" stroke-width="0.3" stroke-dasharray="1.2,0.8"/>
<line x1="113.874" y1="145.257" x2="129.595" y2="160.978" stroke="#8c8c8c" stroke-width="0.3" stroke-dasharray="1.2,0.8"/>
<line x1="157.586" y1="145.955" x2="141.595" y2="149.808" stroke="#8c8c8c" stroke-width="0.3" stroke-dasharray="1.2,0.8"/>
<line x1="103.689" y1="139.446" x2="98.153" y2="160.978" stroke="#141414" stroke-width="0.4"/>
<line x1="194.601" y1="156.681" x2="183.874" y2="193.696" stroke="#141414" stroke-width="0.4"/>
<line x1="157.586" y1="145.955" x2="194.601" y2="156.681" stroke="#141414" stroke-width="0.4"/>
<line x1="113.874" y1="176.699" x2="135.407" y2="171.163" stroke="#141414" stroke-width="0.4"/>
<line x1="183.874" y1="193.696" x2="146.86" y2="182.969" stroke="#141414" stroke-width="0.4"/>
<line x1="135.407" y1="171.163" x2="141.595" y2="149.808" stroke="#141414" stroke-width="0.4"/>
<line x1="91.883" y1="127.993" x2="103.689" y2="139.446" stroke="#141414" stroke-width="0.4"/>
<line x1="98.153" y1="160.978" x2="100.068" y2="153.46" stroke="#141414" stroke-width="0.4"/>
<line x1="100.068" y1="153.46" x2="106.356" y2="147.172" stroke="#141414" stroke-width="0.4"/>
<line x1="106.356" y1="147.172" x2="113.874" y2="145.257" stroke="#141414" stroke-width="0.4"/>
<line x1="82.286" y1="165.316" x2="81.424" y2="174.353" stroke="#141414" stroke-width="0.4"/>
<line x1="81.424" y1="174.353" x2="100.499" y2="193.428" stroke="#141414" stroke-width="0.4"/>
<line x1="100.499" y1="193.428" x2="109.536" y2="192.566" stroke="#141414" stroke-width="0.4"/>
<line x1="82.286" y1="165.316" x2="76.946" y2="157.974" stroke="#141414" stroke-width="0.4"/>
<line x1="76.946" y1="157.974" x2="83.664" y2="131.848" stroke="#141414" stroke-width="0.4"/>
<line x1="83.664" y1="131.848" x2="91.883" y2="127.992" stroke="#141414" stroke-width="0.4"/>
<line x1="113.874" y1="176.699" x2="121.392" y2="174.784" stroke="#141414" stroke-width="0.4"/>
<line x1="121.392" y1="174.784" x2="127.68" y2="168.496" stroke="#141414" stroke-width="0.4"/>
<line x1="127.68" y1="168.496" x2="129.595" y2="160.978" stroke="#141414" stroke-width="0.4"/>
<line x1="109.536" y1="192.566" x2="116.878" y2="197.906" stroke="#141414" stroke-width="0.4"/>
<line x1="116.878" y1="197.906" x2="143.004" y2="191.188" stroke="#141414" stroke-width="0.4"/>
<line x1="143.004" y1="191.188" x2="146.86" y2="182.969" stroke="#141414" stroke-width="0.4"/>
<line x1="129.595" y1="160.978" x2="132.187" y2="153.67" stroke="#141414" stroke-width="0.4"/>
<line x1="132.187" y1="153.67" x2="121.182" y2="142.665" stroke="#141414" stroke-width="0.4"/>
<line x1="121.182" y1="142.665" x2="113.874" y2="145.257" stroke="#141414" stroke-width="0.4"/>
<line x1="141.595" y1="149.808" x2="142.354" y2="142.425" stroke="#141414" stroke-width="0.4"/>
<line x1="142.354" y1="142.425" x2="153.548" y2="139.728" stroke="#141414" stroke-width="0.4"/>
<line x1="153.548" y1="139.728" x2="157.586" y2="145.955" stroke="#141414" stroke-width="0.4"/>
<circle cx="104.613" cy="151.717" r="1.74" fill="#99d9fa" stroke="#464646" stroke-width="0.2"/>
<text x="104.613" y="152.31" font-size="1.71" text-anchor="middle" fill="#141414">100</text>
<circle cx="93.437" cy="181.416" r="1.74" fill="#ffe082" stroke="#464646" stroke-width="0.2"/>
<text x="93.437" y="182.01" font-size="1.71" text-anchor="middle" fill="#141414">101</text>
<circle cx="83.695" cy="145.783" r="1.74" fill="#ffe082" stroke="#464646" stroke-width="0.2"/>
<text x="83.695" y="146.38" font-size="1.71" text-anchor="middle" fill="#141414">102</text>
<circle cx="123.135" cy="170.239" r="1.74" fill="#ffe082" stroke="#464646" stroke-width="0.2"/>
<text x="123.135" y="170.84" font-size="1.71" text-anchor="middle" fill="#141414">103</text>
<circle cx="129.07" cy="191.157" r="1.74" fill="#ffe082" stroke="#464646" stroke-width="0.2"/>
<text x="129.07" y="191.75" font-size="1.71" text-anchor="middle" fill="#141414">104</text>
<circle cx="124.21" cy="150.643" r="1.74" fill="#ffe082" stroke="#464646" stroke-width="0.2"/>
<text x="124.21" y="151.24" font-size="1.71" text-anchor="middle" fill="#141414">105</text>
<circle cx="148.771" cy="144.479" r="1.74" fill="#ffe082" stroke="#464646" stroke-width="0.2"/>
<text x="148.771" y="145.08" font-size="1.71" text-anchor="middle" fill="#141414">106</text>
<circle cx="108.634" cy="166.219" r="2.96" fill="#eaf1fe" stroke="#2e78e6" stroke-width="0.3"/>
<text x="108.634" y="167.38" font-size="3.35" text-anchor="middle" fill="#14306e" font-weight="bold">14</text>
<text x="205.0" y="295.0" font-size="3.2" text-anchor="end" fill="#737373" font-family="sans-serif">4 / 4</text>
</svg>
