<svg xmlns="http://www.w3.org/2000/svg" xmlns:xlink="http://www.w3.org/1999/xlink" width="210.00mm" height="297.00mm" viewBox="0 0 210.00 297.00">
<rect x="0" y="0" width="210.00" height="297.00" fill="#ffffff" stroke="#cccccc" stroke-width="0.2"/>
<polygon points="30.326,25.614 27.979,18.061 40.126,5.914 47.678,8.261" fill="rgb(216,216,216)"/>
<polygon points="22.327,38.111 19.306,44.989 28.303,53.986 35.181,50.965" fill="rgb(216,216,216)"/>
<polygon points="22.327,38.111 17.347,43.735 5.408,39.333 5.272,31.822" fill="rgb(216,216,216)"/>
<polygon points="47.678,42.966 55.231,45.313 67.378,33.166 65.031,25.614" fill="rgb(216,216,216)"/>
<polygon points="35.181,50.965 30.5,58.503 33.015,65.325 41.47,68.02" fill="rgb(216,216,216)"/>
<polygon points="65.031,25.614 67.378,18.061 55.231,5.914 47.678,8.261" fill="rgb(216,216,216)"/>
<polygon points="54.234,90.455 50.069,96.506 40.131,93.486 40.037,86.142" fill="rgb(216,216,216)"/>
<polygon points="30.326,25.614 27.979,18.061 40.126,5.914 47.678,8.261" fill="#99d9fa"/>
<line x1="22.327" y1="38.111" x2="30.326" y2="25.614" stroke="#8c8c8c" stroke-width="0.3" stroke-dasharray="1.2,0.8"/>
<line x1="47.678" y1="42.966" x2="30.326" y2="25.614" stroke="#8c8c8c" stroke-width="0.3" stroke-dasharray="1.2,0.8"/>
<line x1="47.678" y1="42.966" x2="35.181" y2="50.965" stroke="#8c8c8c" stroke-width="0.3" stroke-dasharray="1.2,0.8"/>
<line x1="56.168" y1="65.991" x2="41.47" y2="68.02" stroke="#8c8c8c" stroke-width="0.3" stroke-dasharray="1.2,0.8"/>
<line x1="40.037" y1="86.142" x2="41.47" y2="68.02" stroke="#8c8c8c" stroke-width="0.3" stroke-dasharray="1.2,0.8"/>
<line x1="47.678" y1="8.261" x2="30.326" y2="25.614" stroke="#8c8c8c" stroke-width="0.3" stroke-dasharray="1.2,0.8"/>
<line x1="35.181" y1="50.965" x2="22.327" y2="38.111" stroke="#8c8c8c" stroke-width="0.3" stroke-dasharray="1.2,0.8"/>
<line x1="5.272" y1="31.822" x2="22.327" y2="38.111" stroke="#8c8c8c" stroke-width="0.3" stroke-dasharray="1.2,0.8"/>
<line x1="65.031" y1="25.614" x2="47.678" y2="42.966" stroke="#8c8c8c" stroke-width="0.3" stroke-dasharray="1.2,0.8"/>
<line x1="41.47" y1="68.02" x2="35.181" y2="50.965" stroke="#8c8c8c" stroke-width="0.3" stroke-dasharray="1.2,0.8"/>
<line x1="47.678" y1="8.261" x2="65.031" y2="25.614" stroke="#8c8c8c" stroke-width="0.3" stroke-dasharray="1.2,0.8"/>
<line x1="40.037" y1="86.142" x2="54.234" y2="90.455" stroke="#8c8c8c" stroke-width="0.3" stroke-dasharray="1.2,0.8"/>
<line x1="7.3" y1="17.124" x2="30.326" y2="25.614" stroke="#141414" stroke-width="0.4"/>
<line x1="21.915" y1="84.709" x2="23.348" y2="66.587" stroke="#141414" stroke-width="0.4"/>
<line x1="40.037" y1="86.142" x2="21.915" y2="84.709" stroke="#141414" stroke-width="0.4"/>
<line x1="47.678" y1="42.966" x2="56.168" y2="65.991" stroke="#141414" stroke-width="0.4"/>
<line x1="23.348" y1="66.587" x2="41.47" y2="68.02" stroke="#141414" stroke-width="0.4"/>
<line x1="56.168" y1="65.991" x2="54.234" y2="90.455" stroke="#141414" stroke-width="0.4"/>
<line x1="5.271" y1="31.822" x2="7.3" y2="17.124" stroke="#141414" stroke-width="0.4"/>
<line x1="30.326" y1="25.614" x2="27.979" y2="18.061" stroke="#141414" stroke-width="0.4"/>
<line x1="27.979" y1="18.061" x2="40.126" y2="5.914" stroke="#141414" stroke-width="0.4"/>
<line x1="40.126" y1="5.914" x2="47.678" y2="8.261" stroke="#141414" stroke-width="0.4"/>
<line x1="22.327" y1="38.111" x2="19.306" y2="44.989" stroke="#141414" stroke-width="0.4"/>
<line x1="19.306" y1="44.989" x2="28.303" y2="53.986" stroke="#141414" stroke-width="0.4"/>
<line x1="28.303" y1="53.986" x2="35.181" y2="50.965" stroke="#141414" stroke-width="0.4"/>
<line x1="22.327" y1="38.111" x2="17.347" y2="43.735" stroke="#141414" stroke-width="0.4"/>
<line x1="17.347" y1="43.735" x2="5.408" y2="39.333" stroke="#141414" stroke-width="0.4"/>
<line x1="5.408" y1="39.333" x2="5.272" y2="31.822" stroke="#141414" stroke-width="0.4"/>
<line x1="47.678" y1="42.966" x2="55.231" y2="45.313" stroke="#141414" stroke-width="0.4"/>
<line x1="55.231" y1="45.313" x2="67.378" y2="33.166" stroke="#141414" stroke-width="0.4"/>
<line x1="67.378" y1="33.166" x2="65.031" y2="25.614" stroke="#141414" stroke-width="0.4"/>
<line x1="35.181" y1="50.965" x2="30.5" y2="58.503" stroke="#141414" stroke-width="0.4"/>
<line x1="30.5" y1="58.503" x2="33.015" y2="65.325" stroke="#141414" stroke-width="0.4"/>
<line x1="33.015" y1="65.325" x2="41.47" y2="68.02" stroke="#141414" stroke-width="0.4"/>
<line x1="65.031" y1="25.614" x2="67.378" y2="18.061" stroke="#141414" stroke-width="0.4"/>
<line x1="67.378" y1="18.061" x2="55.231" y2="5.914" stroke="#141414" stroke-width="0.4"/>
<line x1="55.231" y1="5.914" x2="47.678" y2="8.261" stroke="#141414" stroke-width="0.4"/>
<line x1="54.234" y1="90.455" x2="50.069" y2="96.506" stroke="#141414" stroke-width="0.4"/>
<line x1="50.069" y1="96.506" x2="40.131" y2="93.486" stroke="#141414" stroke-width="0.4"/>
<line x1="40.131" y1="93.486" x2="40.037" y2="86.142" stroke="#141414" stroke-width="0.4"/>
<circle cx="36.527" cy="14.463" r="1.88" fill="#99d9fa" stroke="#464646" stroke-width="0.2"/>
<text x="36.527" y="15.11" font-size="1.84" text-anchor="middle" fill="#141414">124</text>
<circle cx="26.279" cy="47.013" r="1.88" fill="#ffe082" stroke="#464646" stroke-width="0.2"/>
<text x="26.279" y="47.66" font-size="1.84" text-anchor="middle" fill="#141414">125</text>
<circle cx="12.589" cy="38.25" r="1.88" fill="#ffe082" stroke="#464646" stroke-width="0.2"/>
<text x="12.589" y="38.89" font-size="1.84" text-anchor="middle" fill="#141414">126</text>
<circle cx="58.829" cy="36.765" r="1.88" fill="#ffe082" stroke="#464646" stroke-width="0.2"/>
<text x="58.829" y="37.41" font-size="1.84" text-anchor="middle" fill="#141414">127</text>
<circle cx="35.041" cy="60.703" r="1.88" fill="#ffe082" stroke="#464646" stroke-width="0.2"/>
<text x="35.041" y="61.35" font-size="1.84" text-anchor="middle" fill="#141414">128</text>
<circle cx="58.829" cy="14.463" r="1.88" fill="#ffe082" stroke="#464646" stroke-width="0.2"/>
<text x="58.829" y="15.11" font-size="1.84" text-anchor="middle" fill="#141414">129</text>
<circle cx="46.118" cy="91.647" r="1.88" fill="#ffe082" stroke="#464646" stroke-width="0.2"/>
<text x="46.118" y="92.29" font-size="1.84" text-anchor="middle" fill="#141414">130</text>
<circle cx="41.894" cy="19.829" r="3.27" fill="#eaf1fe" stroke="#2e78e6" stroke-width="0.3"/>
<text x="41.894" y="21.11" font-size="3.70" text-anchor="middle" fill="#14306e" font-weight="bold">16</text>
<text x="205.0" y="295.0" font-size="3.2" text-anchor="end" fill="#737373" font-family="sans-serif">5 / 5</text>
</svg>
