<svg xmlns="http://www.w3.org/2000/svg" xmlns:xlink="http://www.w3.org/1999/xlink" width="210.00mm" height="297.00mm" viewBox="0 0 210.00 297.00">
<rect x="0" y="0" width="210.00" height="297.00" fill="#ffffff" stroke="#cccccc" stroke-width="0.2"/>
<polygon points="29.498,234.905 27.485,241.614 18.092,241.614 16.079,234.905" fill="rgb(216,216,216)"/>
<polygon points="16.079,234.905 9.079,218.493 9.079,141.904 16.079,125.492" fill="rgb(216,216,216)"/>
<polygon points="29.498,125.492 45.909,118.492 122.499,118.492 138.91,125.492" fill="rgb(216,216,216)"/>
<polygon points="138.91,234.905 145.91,218.493 145.91,141.904 138.91,125.492" fill="rgb(216,216,216)"/>
<polygon points="29.498,16.079 27.485,9.37 18.092,9.37 16.079,16.079" fill="rgb(216,216,216)"/>
<polygon points="29.498,125.492 45.909,118.492 122.499,118.492 138.91,125.492" fill="#99d9fa"/>
<line x1="29.497" y1="125.492" x2="29.497" y2="234.905" stroke="#8c8c8c" stroke-width="0.3" stroke-dasharray="1.2,0.8"/>
<line x1="16.079" y1="125.492" x2="29.497" y2="125.492" stroke="#8c8c8c" stroke-width="0.3" stroke-dasharray="1.2,0.8"/>
<line x1="16.079" y1="234.905" x2="29.498" y2="234.905" stroke="#8c8c8c" stroke-width="0.3" stroke-dasharray="1.2,0.8"/>
<line x1="16.079" y1="125.492" x2="16.079" y2="234.905" stroke="#8c8c8c" stroke-width="0.3" stroke-dasharray="1.2,0.8"/>
<line x1="138.91" y1="125.492" x2="29.498" y2="125.492" stroke="#8c8c8c" stroke-width="0.3" stroke-dasharray="1.2,0.8"/>
<line x1="138.91" y1="125.492" x2="138.91" y2="234.905" stroke="#8c8c8c" stroke-width="0.3" stroke-dasharray="1.2,0.8"/>
<line x1="16.079" y1="16.079" x2="29.498" y2="16.079" stroke="#8c8c8c" stroke-width="0.3" stroke-dasharray="1.2,0.8"/>
<line x1="138.91" y1="234.905" x2="29.497" y2="234.905" stroke="#141414" stroke-width="0.4"/>
<line x1="29.497" y1="16.079" x2="29.497" y2="125.492" stroke="#141414" stroke-width="0.4"/>
<line x1="16.079" y1="125.492" x2="16.079" y2="16.079" stroke="#141414" stroke-width="0.4"/>
<line x1="29.498" y1="234.905" x2="27.485" y2="241.614" stroke="#141414" stroke-width="0.4"/>
<line x1="27.485" y1="241.614" x2="18.092" y2="241.614" stroke="#141414" stroke-width="0.4"/>
<line x1="18.092" y1="241.614" x2="16.079" y2="234.905" stroke="#141414" stroke-width="0.4"/>
<line x1="16.079" y1="234.905" x2="9.079" y2="218.493" stroke="#141414" stroke-width="0.4"/>
<line x1="9.079" y1="218.493" x2="9.079" y2="141.904" stroke="#141414" stroke-width="0.4"/>
<line x1="9.079" y1="141.904" x2="16.079" y2="125.492" stroke="#141414" stroke-width="0.4"/>
<line x1="29.498" y1="125.492" x2="45.909" y2="118.492" stroke="#141414" stroke-width="0.4"/>
<line x1="45.909" y1="118.492" x2="122.499" y2="118.492" stroke="#141414" stroke-width="0.4"/>
<line x1="122.499" y1="118.492" x2="138.91" y2="125.492" stroke="#141414" stroke-width="0.4"/>
<line x1="138.91" y1="234.905" x2="145.91" y2="218.493" stroke="#141414" stroke-width="0.4"/>
<line x1="145.91" y1="218.493" x2="145.91" y2="141.904" stroke="#141414" stroke-width="0.4"/>
<line x1="145.91" y1="141.904" x2="138.91" y2="125.492" stroke="#141414" stroke-width="0.4"/>
<line x1="29.498" y1="16.079" x2="27.485" y2="9.37" stroke="#141414" stroke-width="0.4"/>
<line x1="27.485" y1="9.37" x2="18.092" y2="9.37" stroke="#141414" stroke-width="0.4"/>
<line x1="18.092" y1="9.37" x2="16.079" y2="16.079" stroke="#141414" stroke-width="0.4"/>
<circle cx="22.788" cy="238.259" r="2.27" fill="#ffe082" stroke="#464646" stroke-width="0.2"/>
<text x="22.788" y="239.04" font-size="2.22" text-anchor="middle" fill="#141414">72</text>
<circle cx="12.579" cy="180.198" r="2.27" fill="#ffe082" stroke="#464646" stroke-width="0.2"/>
<text x="12.579" y="180.98" font-size="2.22" text-anchor="middle" fill="#141414">73</text>
<circle cx="84.204" cy="121.992" r="2.27" fill="#99d9fa" stroke="#464646" stroke-width="0.2"/>
<text x="84.204" y="122.77" font-size="2.22" text-anchor="middle" fill="#141414">74</text>
<circle cx="142.41" cy="180.198" r="2.27" fill="#ffe082" stroke="#464646" stroke-width="0.2"/>
<text x="142.41" y="180.98" font-size="2.22" text-anchor="middle" fill="#141414">75</text>
<circle cx="22.788" cy="12.724" r="2.27" fill="#ffe082" stroke="#464646" stroke-width="0.2"/>
<text x="22.788" y="13.50" font-size="2.22" text-anchor="middle" fill="#141414">76</text>
<circle cx="102.439" cy="161.963" r="4.60" fill="#eaf1fe" stroke="#2e78e6" stroke-width="0.3"/>
<text x="102.439" y="163.76" font-size="5.20" text-anchor="middle" fill="#14306e" font-weight="bold">12</text>
<text x="205.0" y="295.0" font-size="3.2" text-anchor="end" fill="#737373" font-family="sans-serif">6 / 11</text>
</svg>
