<svg xmlns="http://www.w3.org/2000/svg" xmlns:xlink="http://www.w3.org/1999/xlink" width="210.00mm" height="297.00mm" viewBox="0 0 210.00 297.00">
<rect x="0" y="0" width="210.00" height="297.00" fill="#ffffff" stroke="#cccccc" stroke-width="0.2"/>
<polygon points="83.93,125.466 81.396,131.799 91.023,150.011 97.684,151.484" fill="rgb(216,216,216)"/>
<polygon points="113.789,5.0 119.351,7.667 121.219,23.039 116.457,26.961" fill="rgb(216,216,216)"/>
<polygon points="169.654,125.466 164.345,136.735 123.936,170.763 111.927,174.077" fill="rgb(216,216,216)"/>
<polygon points="97.684,151.484 95.422,157.646 105.392,173.461 111.927,174.077" fill="rgb(216,216,216)"/>
<polygon points="87.426,94.811 99.124,91.243 150.256,98.614 160.471,105.34" fill="rgb(216,216,216)"/>
<polygon points="39.209,16.539 37.163,23.256 48.453,42.164 55.338,43.55" fill="rgb(216,216,216)"/>
<polygon points="54.654,64.884 53.041,97.955 50.488,110.147 38.696,141.086" fill="rgb(216,216,216)"/>
<polygon points="16.326,63.152 11.9,69.984 15.345,99.006 21.247,104.612" fill="rgb(216,216,216)"/>
<polygon points="83.93,125.466 81.396,131.799 91.023,150.011 97.684,151.484" fill="#99d9fa"/>
<line x1="83.93" y1="125.466" x2="58.023" y2="105.47" stroke="#8c8c8c" stroke-width="0.3" stroke-dasharray="1.2,0.8"/>
<line x1="62.786" y1="145.937" x2="58.023" y2="105.47" stroke="#8c8c8c" stroke-width="0.3" stroke-dasharray="1.2,0.8"/>
<line x1="87.426" y1="94.811" x2="58.023" y2="105.47" stroke="#8c8c8c" stroke-width="0.3" stroke-dasharray="1.2,0.8"/>
<line x1="83.93" y1="125.466" x2="169.654" y2="125.466" stroke="#8c8c8c" stroke-width="0.3" stroke-dasharray="1.2,0.8"/>
<line x1="83.93" y1="125.466" x2="87.426" y2="94.811" stroke="#8c8c8c" stroke-width="0.3" stroke-dasharray="1.2,0.8"/>
<line x1="160.471" y1="105.34" x2="83.93" y2="125.466" stroke="#8c8c8c" stroke-width="0.3" stroke-dasharray="1.2,0.8"/>
<line x1="169.654" y1="125.466" x2="97.684" y2="151.484" stroke="#8c8c8c" stroke-width="0.3" stroke-dasharray="1.2,0.8"/>
<line x1="55.337" y1="43.55" x2="113.789" y2="5.0" stroke="#8c8c8c" stroke-width="0.3" stroke-dasharray="1.2,0.8"/>
<line x1="54.654" y1="64.884" x2="87.426" y2="94.811" stroke="#8c8c8c" stroke-width="0.3" stroke-dasharray="1.2,0.8"/>
<line x1="54.654" y1="64.884" x2="116.457" y2="26.961" stroke="#8c8c8c" stroke-width="0.3" stroke-dasharray="1.2,0.8"/>
<line x1="16.326" y1="63.152" x2="54.654" y2="64.884" stroke="#8c8c8c" stroke-width="0.3" stroke-dasharray="1.2,0.8"/>
<line x1="54.654" y1="64.884" x2="21.247" y2="104.612" stroke="#8c8c8c" stroke-width="0.3" stroke-dasharray="1.2,0.8"/>
<line x1="38.696" y1="141.086" x2="21.247" y2="104.612" stroke="#8c8c8c" stroke-width="0.3" stroke-dasharray="1.2,0.8"/>
<line x1="54.654" y1="64.884" x2="55.337" y2="43.55" stroke="#8c8c8c" stroke-width="0.3" stroke-dasharray="1.2,0.8"/>
<line x1="97.684" y1="151.484" x2="83.93" y2="125.466" stroke="#8c8c8c" stroke-width="0.3" stroke-dasharray="1.2,0.8"/>
<line x1="116.457" y1="26.961" x2="113.789" y2="5.0" stroke="#8c8c8c" stroke-width="0.3" stroke-dasharray="1.2,0.8"/>
<line x1="111.927" y1="174.077" x2="169.654" y2="125.466" stroke="#8c8c8c" stroke-width="0.3" stroke-dasharray="1.2,0.8"/>
<line x1="111.927" y1="174.077" x2="97.684" y2="151.484" stroke="#8c8c8c" stroke-width="0.3" stroke-dasharray="1.2,0.8"/>
<line x1="160.471" y1="105.34" x2="87.426" y2="94.811" stroke="#8c8c8c" stroke-width="0.3" stroke-dasharray="1.2,0.8"/>
<line x1="55.338" y1="43.55" x2="39.209" y2="16.539" stroke="#8c8c8c" stroke-width="0.3" stroke-dasharray="1.2,0.8"/>
<line x1="38.696" y1="141.086" x2="54.654" y2="64.884" stroke="#8c8c8c" stroke-width="0.3" stroke-dasharray="1.2,0.8"/>
<line x1="21.247" y1="104.612" x2="16.326" y2="63.152" stroke="#8c8c8c" stroke-width="0.3" stroke-dasharray="1.2,0.8"/>
<line x1="36.097" y1="146.942" x2="58.023" y2="105.47" stroke="#141414" stroke-width="0.4"/>
<line x1="58.023" y1="105.47" x2="54.654" y2="64.884" stroke="#141414" stroke-width="0.4"/>
<line x1="83.93" y1="125.466" x2="62.786" y2="145.937" stroke="#141414" stroke-width="0.4"/>
<line x1="160.471" y1="105.34" x2="169.654" y2="125.466" stroke="#141414" stroke-width="0.4"/>
<line x1="39.209" y1="16.539" x2="113.789" y2="5.0" stroke="#141414" stroke-width="0.4"/>
<line x1="62.786" y1="145.937" x2="36.097" y2="146.942" stroke="#141414" stroke-width="0.4"/>
<line x1="116.457" y1="26.961" x2="87.426" y2="94.811" stroke="#141414" stroke-width="0.4"/>
<line x1="16.326" y1="63.152" x2="55.337" y2="43.55" stroke="#141414" stroke-width="0.4"/>
<line x1="5.0" y1="131.945" x2="21.247" y2="104.612" stroke="#141414" stroke-width="0.4"/>
<line x1="38.696" y1="141.086" x2="5.0" y2="131.945" stroke="#141414" stroke-width="0.4"/>
<line x1="83.93" y1="125.466" x2="81.396" y2="131.799" stroke="#141414" stroke-width="0.4"/>
<line x1="81.396" y1="131.799" x2="91.023" y2="150.011" stroke="#141414" stroke-width="0.4"/>
<line x1="91.023" y1="150.011" x2="97.684" y2="151.484" stroke="#141414" stroke-width="0.4"/>
<line x1="113.789" y1="5.0" x2="119.351" y2="7.667" stroke="#141414" stroke-width="0.4"/>
<line x1="119.351" y1="7.667" x2="121.219" y2="23.039" stroke="#141414" stroke-width="0.4"/>
<line x1="121.219" y1="23.039" x2="116.457" y2="26.961" stroke="#141414" stroke-width="0.4"/>
<line x1="169.654" y1="125.466" x2="164.345" y2="136.735" stroke="#141414" stroke-width="0.4"/>
<line x1="164.345" y1="136.735" x2="123.936" y2="170.763" stroke="#141414" stroke-width="0.4"/>
<line x1="123.936" y1="170.763" x2="111.927" y2="174.077" stroke="#141414" stroke-width="0.4"/>
<line x1="97.684" y1="151.484" x2="95.422" y2="157.646" stroke="#141414" stroke-width="0.4"/>
<line x1="95.422" y1="157.646" x2="105.392" y2="173.461" stroke="#141414" stroke-width="0.4"/>
<line x1="105.392" y1="173.461" x2="111.927" y2="174.077" stroke="#141414" stroke-width="0.4"/>
<line x1="87.426" y1="94.811" x2="99.124" y2="91.243" stroke="#141414" stroke-width="0.4"/>
<line x1="99.124" y1="91.243" x2="150.256" y2="98.614" stroke="#141414" stroke-width="0.4"/>
<line x1="150.256" y1="98.614" x2="160.471" y2="105.34" stroke="#141414" stroke-width="0.4"/>
<line x1="39.209" y1="16.539" x2="37.163" y2="23.256" stroke="#141414" stroke-width="0.4"/>
<line x1="37.163" y1="23.256" x2="48.453" y2="42.164" stroke="#141414" stroke-width="0.4"/>
<line x1="48.453" y1="42.164" x2="55.338" y2="43.55" stroke="#141414" stroke-width="0.4"/>
<line x1="54.654" y1="64.884" x2="53.041" y2="97.955" stroke="#141414" stroke-width="0.4"/>
<line x1="53.041" y1="97.955" x2="50.488" y2="110.147" stroke="#141414" stroke-width="0.4"/>
<line x1="50.488" y1="110.147" x2="38.696" y2="141.086" stroke="#141414" stroke-width="0.4"/>
<line x1="16.326" y1="63.152" x2="11.9" y2="69.984" stroke="#141414" stroke-width="0.4"/>
<line x1="11.9" y1="69.984" x2="15.345" y2="99.006" stroke="#141414" stroke-width="0.4"/>
<line x1="15.345" y1="99.006" x2="21.247" y2="104.612" stroke="#141414" stroke-width="0.4"/>
<circle cx="88.508" cy="139.69" r="1.49" fill="#99d9fa" stroke="#464646" stroke-width="0.2"/>
<text x="88.508" y="140.20" font-size="1.46" text-anchor="middle" fill="#141414">60</text>
<circle cx="117.704" cy="15.667" r="1.49" fill="#ffe082" stroke="#464646" stroke-width="0.2"/>
<text x="117.704" y="16.18" font-size="1.46" text-anchor="middle" fill="#141414">61</text>
<circle cx="142.465" cy="151.76" r="1.49" fill="#ffe082" stroke="#464646" stroke-width="0.2"/>
<text x="142.465" y="152.27" font-size="1.46" text-anchor="middle" fill="#141414">62</text>
<circle cx="102.606" cy="164.167" r="1.49" fill="#ffe082" stroke="#464646" stroke-width="0.2"/>
<text x="102.606" y="164.68" font-size="1.46" text-anchor="middle" fill="#141414">63</text>
<circle cx="124.319" cy="97.502" r="1.49" fill="#ffe082" stroke="#464646" stroke-width="0.2"/>
<text x="124.319" y="98.01" font-size="1.46" text-anchor="middle" fill="#141414">68</text>
<circle cx="45.041" cy="31.377" r="1.49" fill="#ffe082" stroke="#464646" stroke-width="0.2"/>
<text x="45.041" y="31.89" font-size="1.46" text-anchor="middle" fill="#141414">74</text>
<circle cx="49.22" cy="103.518" r="1.49" fill="#ffe082" stroke="#464646" stroke-width="0.2"/>
<text x="49.22" y="104.03" font-size="1.46" text-anchor="middle" fill="#141414">86</text>
<circle cx="16.204" cy="84.189" r="1.49" fill="#ffe082" stroke="#464646" stroke-width="0.2"/>
<text x="16.204" y="84.70" font-size="1.46" text-anchor="middle" fill="#141414">92</text>
<circle cx="68.246" cy="125.624" r="4.60" fill="#eaf1fe" stroke="#2e78e6" stroke-width="0.3"/>
<text x="68.246" y="127.42" font-size="5.20" text-anchor="middle" fill="#14306e" font-weight="bold">17</text>
<polygon points="172.654,15.358 175.797,10.158 190.462,10.158 193.604,15.358" fill="rgb(216,216,216)"/>
<line x1="193.604" y1="15.358" x2="172.654" y2="15.358" stroke="#8c8c8c" stroke-width="0.3" stroke-dasharray="1.2,0.8"/>
<line x1="182.577" y1="33.822" x2="172.654" y2="15.358" stroke="#141414" stroke-width="0.4"/>
<line x1="193.604" y1="15.358" x2="182.577" y2="33.822" stroke="#141414" stroke-width="0.4"/>
<line x1="172.654" y1="15.358" x2="175.797" y2="10.158" stroke="#141414" stroke-width="0.4"/>
<line x1="175.797" y1="10.158" x2="190.462" y2="10.158" stroke="#141414" stroke-width="0.4"/>
<line x1="190.462" y1="10.158" x2="193.604" y2="15.358" stroke="#141414" stroke-width="0.4"/>
<circle cx="183.129" cy="12.758" r="1.49" fill="#ffe082" stroke="#464646" stroke-width="0.2"/>
<text x="183.129" y="13.27" font-size="1.46" text-anchor="middle" fill="#141414">23</text>
<circle cx="182.945" cy="21.513" r="4.60" fill="#eaf1fe" stroke="#2e78e6" stroke-width="0.3"/>
<text x="182.945" y="23.31" font-size="5.20" text-anchor="middle" fill="#14306e" font-weight="bold">18</text>
<text x="205.0" y="295.0" font-size="3.2" text-anchor="end" fill="#737373" font-family="sans-serif">12 / 15</text>
<g pointer-events="none"><text x="105.0" y="83.2" text-anchor="middle" font-family="sans-serif" font-size="12.4" fill="#9aa0a6" fill-opacity="0.3" transform="rotate(-28 105.0 83.2)">papercraft.kr</text><text x="105.0" y="148.5" text-anchor="middle" font-family="sans-serif" font-size="12.4" fill="#9aa0a6" fill-opacity="0.3" transform="rotate(-28 105.0 148.5)">papercraft.kr</text><text x="105.0" y="213.8" text-anchor="middle" font-family="sans-serif" font-size="12.4" fill="#9aa0a6" fill-opacity="0.3" transform="rotate(-28 105.0 213.8)">papercraft.kr</text></g></svg>
