<svg xmlns="http://www.w3.org/2000/svg" xmlns:xlink="http://www.w3.org/1999/xlink" width="210.00mm" height="297.00mm" viewBox="0 0 210.00 297.00">
<rect x="0" y="0" width="210.00" height="297.00" fill="#ffffff" stroke="#cccccc" stroke-width="0.2"/>
<polygon points="190.5,6.753 195.04,29.761 183.753,133.601 174.376,155.096" fill="rgb(216,216,216)"/>
<polygon points="174.376,5.0 164.998,26.495 153.711,130.336 158.251,153.344" fill="rgb(216,216,216)"/>
<polygon points="5.0,182.368 26.495,191.745 130.336,203.032 153.344,198.492" fill="rgb(216,216,216)"/>
<polygon points="174.376,5.0 164.998,26.495 153.711,130.336 158.251,153.344" fill="#99d9fa"/>
<line x1="174.376" y1="155.096" x2="158.251" y2="153.344" stroke="#8c8c8c" stroke-width="0.3" stroke-dasharray="1.2,0.8"/>
<line x1="158.251" y1="153.344" x2="153.344" y2="198.492" stroke="#8c8c8c" stroke-width="0.3" stroke-dasharray="1.2,0.8"/>
<line x1="174.376" y1="155.096" x2="190.5" y2="6.753" stroke="#8c8c8c" stroke-width="0.3" stroke-dasharray="1.2,0.8"/>
<line x1="158.251" y1="153.344" x2="174.376" y2="5.0" stroke="#8c8c8c" stroke-width="0.3" stroke-dasharray="1.2,0.8"/>
<line x1="153.344" y1="198.492" x2="5.0" y2="182.368" stroke="#8c8c8c" stroke-width="0.3" stroke-dasharray="1.2,0.8"/>
<line x1="174.376" y1="5.0" x2="190.5" y2="6.753" stroke="#141414" stroke-width="0.4"/>
<line x1="5.0" y1="182.368" x2="9.907" y2="137.22" stroke="#141414" stroke-width="0.4"/>
<line x1="9.907" y1="137.22" x2="158.251" y2="153.344" stroke="#141414" stroke-width="0.4"/>
<line x1="174.376" y1="155.096" x2="169.468" y2="200.245" stroke="#141414" stroke-width="0.4"/>
<line x1="169.468" y1="200.245" x2="153.344" y2="198.492" stroke="#141414" stroke-width="0.4"/>
<line x1="190.5" y1="6.753" x2="195.04" y2="29.761" stroke="#141414" stroke-width="0.4"/>
<line x1="195.04" y1="29.761" x2="183.753" y2="133.601" stroke="#141414" stroke-width="0.4"/>
<line x1="183.753" y1="133.601" x2="174.376" y2="155.096" stroke="#141414" stroke-width="0.4"/>
<line x1="174.376" y1="5.0" x2="164.998" y2="26.495" stroke="#141414" stroke-width="0.4"/>
<line x1="164.998" y1="26.495" x2="153.711" y2="130.336" stroke="#141414" stroke-width="0.4"/>
<line x1="153.711" y1="130.336" x2="158.251" y2="153.344" stroke="#141414" stroke-width="0.4"/>
<line x1="5.0" y1="182.368" x2="26.495" y2="191.745" stroke="#141414" stroke-width="0.4"/>
<line x1="26.495" y1="191.745" x2="130.336" y2="203.032" stroke="#141414" stroke-width="0.4"/>
<line x1="130.336" y1="203.032" x2="153.344" y2="198.492" stroke="#141414" stroke-width="0.4"/>
<circle cx="185.917" cy="81.303" r="2.47" fill="#ffe082" stroke="#464646" stroke-width="0.2"/>
<text x="185.917" y="82.48" font-size="3.35" text-anchor="middle" fill="#141414">6</text>
<circle cx="162.834" cy="78.794" r="2.47" fill="#99d9fa" stroke="#464646" stroke-width="0.2"/>
<text x="162.834" y="79.97" font-size="3.35" text-anchor="middle" fill="#141414">7</text>
<circle cx="78.794" cy="193.909" r="2.47" fill="#ffe082" stroke="#464646" stroke-width="0.2"/>
<text x="78.794" y="195.08" font-size="3.35" text-anchor="middle" fill="#141414">8</text>
<circle cx="107.168" cy="163.018" r="4.60" fill="#eaf1fe" stroke="#2e78e6" stroke-width="0.3"/>
<text x="107.168" y="164.82" font-size="5.20" text-anchor="middle" fill="#14306e" font-weight="bold">2</text>
<polygon points="96.909,237.152 93.99,244.152 80.366,244.152 77.446,237.152" fill="rgb(216,216,216)"/>
<polygon points="96.909,225.496 106.641,218.496 152.055,218.496 161.787,225.496" fill="rgb(216,216,216)"/>
<polygon points="96.909,225.496 93.99,218.496 80.366,218.496 77.446,225.496" fill="rgb(216,216,216)"/>
<polygon points="161.787,237.152 168.787,240.071 168.787,253.695 161.787,256.615" fill="rgb(216,216,216)"/>
<polygon points="12.569,206.032 5.569,208.952 5.569,222.576 12.569,225.496" fill="rgb(216,216,216)"/>
<polygon points="96.909,256.615 106.641,263.615 152.055,263.615 161.787,256.615" fill="rgb(216,216,216)"/>
<polygon points="181.25,237.152 187.078,235.403 187.078,227.244 181.25,225.496" fill="rgb(216,216,216)"/>
<polygon points="96.909,237.152 93.99,244.152 80.366,244.152 77.446,237.152" fill="#99d9fa"/>
<line x1="96.909" y1="237.152" x2="96.909" y2="225.496" stroke="#8c8c8c" stroke-width="0.3" stroke-dasharray="1.2,0.8"/>
<line x1="161.787" y1="237.152" x2="96.909" y2="237.152" stroke="#8c8c8c" stroke-width="0.3" stroke-dasharray="1.2,0.8"/>
<line x1="161.787" y1="225.496" x2="161.787" y2="237.152" stroke="#8c8c8c" stroke-width="0.3" stroke-dasharray="1.2,0.8"/>
<line x1="77.446" y1="237.152" x2="77.446" y2="225.496" stroke="#8c8c8c" stroke-width="0.3" stroke-dasharray="1.2,0.8"/>
<line x1="77.446" y1="225.496" x2="12.569" y2="225.496" stroke="#8c8c8c" stroke-width="0.3" stroke-dasharray="1.2,0.8"/>
<line x1="77.446" y1="237.152" x2="96.909" y2="237.152" stroke="#8c8c8c" stroke-width="0.3" stroke-dasharray="1.2,0.8"/>
<line x1="161.787" y1="225.496" x2="96.909" y2="225.496" stroke="#8c8c8c" stroke-width="0.3" stroke-dasharray="1.2,0.8"/>
<line x1="77.446" y1="225.496" x2="96.909" y2="225.496" stroke="#8c8c8c" stroke-width="0.3" stroke-dasharray="1.2,0.8"/>
<line x1="161.787" y1="256.615" x2="161.787" y2="237.152" stroke="#8c8c8c" stroke-width="0.3" stroke-dasharray="1.2,0.8"/>
<line x1="12.569" y1="225.496" x2="12.569" y2="206.032" stroke="#8c8c8c" stroke-width="0.3" stroke-dasharray="1.2,0.8"/>
<line x1="161.787" y1="256.615" x2="96.909" y2="256.615" stroke="#8c8c8c" stroke-width="0.3" stroke-dasharray="1.2,0.8"/>
<line x1="181.25" y1="225.496" x2="181.25" y2="237.152" stroke="#8c8c8c" stroke-width="0.3" stroke-dasharray="1.2,0.8"/>
<line x1="96.909" y1="256.615" x2="96.909" y2="237.152" stroke="#141414" stroke-width="0.4"/>
<line x1="12.569" y1="206.032" x2="77.446" y2="206.032" stroke="#141414" stroke-width="0.4"/>
<line x1="77.446" y1="206.032" x2="77.446" y2="225.496" stroke="#141414" stroke-width="0.4"/>
<line x1="181.25" y1="237.152" x2="161.787" y2="237.152" stroke="#141414" stroke-width="0.4"/>
<line x1="161.787" y1="225.496" x2="181.25" y2="225.496" stroke="#141414" stroke-width="0.4"/>
<line x1="77.446" y1="237.152" x2="12.569" y2="237.152" stroke="#141414" stroke-width="0.4"/>
<line x1="12.569" y1="237.152" x2="12.569" y2="225.496" stroke="#141414" stroke-width="0.4"/>
<line x1="96.909" y1="237.152" x2="93.99" y2="244.152" stroke="#141414" stroke-width="0.4"/>
<line x1="93.99" y1="244.152" x2="80.366" y2="244.152" stroke="#141414" stroke-width="0.4"/>
<line x1="80.366" y1="244.152" x2="77.446" y2="237.152" stroke="#141414" stroke-width="0.4"/>
<line x1="96.909" y1="225.496" x2="106.641" y2="218.496" stroke="#141414" stroke-width="0.4"/>
<line x1="106.641" y1="218.496" x2="152.055" y2="218.496" stroke="#141414" stroke-width="0.4"/>
<line x1="152.055" y1="218.496" x2="161.787" y2="225.496" stroke="#141414" stroke-width="0.4"/>
<line x1="96.909" y1="225.496" x2="93.99" y2="218.496" stroke="#141414" stroke-width="0.4"/>
<line x1="93.99" y1="218.496" x2="80.366" y2="218.496" stroke="#141414" stroke-width="0.4"/>
<line x1="80.366" y1="218.496" x2="77.446" y2="225.496" stroke="#141414" stroke-width="0.4"/>
<line x1="161.787" y1="237.152" x2="168.787" y2="240.071" stroke="#141414" stroke-width="0.4"/>
<line x1="168.787" y1="240.071" x2="168.787" y2="253.695" stroke="#141414" stroke-width="0.4"/>
<line x1="168.787" y1="253.695" x2="161.787" y2="256.615" stroke="#141414" stroke-width="0.4"/>
<line x1="12.569" y1="206.032" x2="5.569" y2="208.952" stroke="#141414" stroke-width="0.4"/>
<line x1="5.569" y1="208.952" x2="5.569" y2="222.576" stroke="#141414" stroke-width="0.4"/>
<line x1="5.569" y1="222.576" x2="12.569" y2="225.496" stroke="#141414" stroke-width="0.4"/>
<line x1="96.909" y1="256.615" x2="106.641" y2="263.615" stroke="#141414" stroke-width="0.4"/>
<line x1="106.641" y1="263.615" x2="152.055" y2="263.615" stroke="#141414" stroke-width="0.4"/>
<line x1="152.055" y1="263.615" x2="161.787" y2="256.615" stroke="#141414" stroke-width="0.4"/>
<line x1="181.25" y1="237.152" x2="187.078" y2="235.403" stroke="#141414" stroke-width="0.4"/>
<line x1="187.078" y1="235.403" x2="187.078" y2="227.244" stroke="#141414" stroke-width="0.4"/>
<line x1="187.078" y1="227.244" x2="181.25" y2="225.496" stroke="#141414" stroke-width="0.4"/>
<circle cx="87.178" cy="240.652" r="2.47" fill="#99d9fa" stroke="#464646" stroke-width="0.2"/>
<text x="87.178" y="241.82" font-size="3.35" text-anchor="middle" fill="#141414">23</text>
<circle cx="129.348" cy="221.996" r="2.47" fill="#ffe082" stroke="#464646" stroke-width="0.2"/>
<text x="129.348" y="223.17" font-size="3.35" text-anchor="middle" fill="#141414">24</text>
<circle cx="87.178" cy="221.996" r="2.47" fill="#ffe082" stroke="#464646" stroke-width="0.2"/>
<text x="87.178" y="223.17" font-size="3.35" text-anchor="middle" fill="#141414">25</text>
<circle cx="165.287" cy="246.883" r="2.47" fill="#ffe082" stroke="#464646" stroke-width="0.2"/>
<text x="165.287" y="248.06" font-size="3.35" text-anchor="middle" fill="#141414">26</text>
<circle cx="9.069" cy="215.764" r="2.47" fill="#ffe082" stroke="#464646" stroke-width="0.2"/>
<text x="9.069" y="216.94" font-size="3.35" text-anchor="middle" fill="#141414">27</text>
<circle cx="129.348" cy="260.115" r="2.47" fill="#ffe082" stroke="#464646" stroke-width="0.2"/>
<text x="129.348" y="261.29" font-size="3.35" text-anchor="middle" fill="#141414">28</text>
<circle cx="184.164" cy="231.324" r="2.47" fill="#ffe082" stroke="#464646" stroke-width="0.2"/>
<text x="184.164" y="232.50" font-size="3.35" text-anchor="middle" fill="#141414">29</text>
<circle cx="140.161" cy="250.127" r="4.60" fill="#eaf1fe" stroke="#2e78e6" stroke-width="0.3"/>
<text x="140.161" y="251.93" font-size="5.20" text-anchor="middle" fill="#14306e" font-weight="bold">5</text>
<text x="205.0" y="295.0" font-size="3.2" text-anchor="end" fill="#737373" font-family="sans-serif">2 / 5</text>
</svg>
