<svg xmlns="http://www.w3.org/2000/svg" xmlns:xlink="http://www.w3.org/1999/xlink" width="210.00mm" height="297.00mm" viewBox="0 0 210.00 297.00">
<rect x="0" y="0" width="210.00" height="297.00" fill="#ffffff" stroke="#cccccc" stroke-width="0.2"/>
<polygon points="74.202,60.146 69.337,67.146 46.63,67.146 41.764,60.146" fill="rgb(216,216,216)"/>
<polygon points="74.202,37.439 78.582,30.439 99.018,30.439 103.397,37.439" fill="rgb(216,216,216)"/>
<polygon points="74.202,37.439 69.337,30.439 46.63,30.439 41.764,37.439" fill="rgb(216,216,216)"/>
<polygon points="103.397,60.146 110.397,65.011 110.397,87.719 103.397,92.584" fill="rgb(216,216,216)"/>
<polygon points="12.569,5.0 5.569,9.866 5.569,32.573 12.569,37.439" fill="rgb(216,216,216)"/>
<polygon points="74.202,92.584 78.582,99.584 99.018,99.584 103.397,92.584" fill="rgb(216,216,216)"/>
<polygon points="135.836,60.146 142.836,56.74 142.836,40.845 135.836,37.439" fill="rgb(216,216,216)"/>
<polygon points="74.202,60.146 69.337,67.146 46.63,67.146 41.764,60.146" fill="#99d9fa"/>
<line x1="74.202" y1="60.146" x2="74.202" y2="37.439" stroke="#8c8c8c" stroke-width="0.3" stroke-dasharray="1.2,0.8"/>
<line x1="103.397" y1="60.146" x2="74.202" y2="60.146" stroke="#8c8c8c" stroke-width="0.3" stroke-dasharray="1.2,0.8"/>
<line x1="103.397" y1="37.439" x2="103.397" y2="60.146" stroke="#8c8c8c" stroke-width="0.3" stroke-dasharray="1.2,0.8"/>
<line x1="41.764" y1="60.146" x2="41.764" y2="37.439" stroke="#8c8c8c" stroke-width="0.3" stroke-dasharray="1.2,0.8"/>
<line x1="41.764" y1="37.439" x2="12.569" y2="37.439" stroke="#8c8c8c" stroke-width="0.3" stroke-dasharray="1.2,0.8"/>
<line x1="41.764" y1="60.146" x2="74.202" y2="60.146" stroke="#8c8c8c" stroke-width="0.3" stroke-dasharray="1.2,0.8"/>
<line x1="103.397" y1="37.439" x2="74.202" y2="37.439" stroke="#8c8c8c" stroke-width="0.3" stroke-dasharray="1.2,0.8"/>
<line x1="41.764" y1="37.439" x2="74.202" y2="37.439" stroke="#8c8c8c" stroke-width="0.3" stroke-dasharray="1.2,0.8"/>
<line x1="103.397" y1="92.584" x2="103.397" y2="60.146" stroke="#8c8c8c" stroke-width="0.3" stroke-dasharray="1.2,0.8"/>
<line x1="12.569" y1="37.439" x2="12.569" y2="5.0" stroke="#8c8c8c" stroke-width="0.3" stroke-dasharray="1.2,0.8"/>
<line x1="103.397" y1="92.584" x2="74.202" y2="92.584" stroke="#8c8c8c" stroke-width="0.3" stroke-dasharray="1.2,0.8"/>
<line x1="135.836" y1="37.439" x2="135.836" y2="60.146" stroke="#8c8c8c" stroke-width="0.3" stroke-dasharray="1.2,0.8"/>
<line x1="74.202" y1="92.584" x2="74.202" y2="60.146" stroke="#141414" stroke-width="0.4"/>
<line x1="12.569" y1="5.0" x2="41.764" y2="5.0" stroke="#141414" stroke-width="0.4"/>
<line x1="41.764" y1="5.0" x2="41.764" y2="37.439" stroke="#141414" stroke-width="0.4"/>
<line x1="135.836" y1="60.146" x2="103.397" y2="60.146" stroke="#141414" stroke-width="0.4"/>
<line x1="103.397" y1="37.439" x2="135.836" y2="37.439" stroke="#141414" stroke-width="0.4"/>
<line x1="41.764" y1="60.146" x2="12.569" y2="60.146" stroke="#141414" stroke-width="0.4"/>
<line x1="12.569" y1="60.146" x2="12.569" y2="37.439" stroke="#141414" stroke-width="0.4"/>
<line x1="74.202" y1="60.146" x2="69.337" y2="67.146" stroke="#141414" stroke-width="0.4"/>
<line x1="69.337" y1="67.146" x2="46.63" y2="67.146" stroke="#141414" stroke-width="0.4"/>
<line x1="46.63" y1="67.146" x2="41.764" y2="60.146" stroke="#141414" stroke-width="0.4"/>
<line x1="74.202" y1="37.439" x2="78.582" y2="30.439" stroke="#141414" stroke-width="0.4"/>
<line x1="78.582" y1="30.439" x2="99.018" y2="30.439" stroke="#141414" stroke-width="0.4"/>
<line x1="99.018" y1="30.439" x2="103.397" y2="37.439" stroke="#141414" stroke-width="0.4"/>
<line x1="74.202" y1="37.439" x2="69.337" y2="30.439" stroke="#141414" stroke-width="0.4"/>
<line x1="69.337" y1="30.439" x2="46.63" y2="30.439" stroke="#141414" stroke-width="0.4"/>
<line x1="46.63" y1="30.439" x2="41.764" y2="37.439" stroke="#141414" stroke-width="0.4"/>
<line x1="103.397" y1="60.146" x2="110.397" y2="65.011" stroke="#141414" stroke-width="0.4"/>
<line x1="110.397" y1="65.011" x2="110.397" y2="87.719" stroke="#141414" stroke-width="0.4"/>
<line x1="110.397" y1="87.719" x2="103.397" y2="92.584" stroke="#141414" stroke-width="0.4"/>
<line x1="12.569" y1="5.0" x2="5.569" y2="9.866" stroke="#141414" stroke-width="0.4"/>
<line x1="5.569" y1="9.866" x2="5.569" y2="32.573" stroke="#141414" stroke-width="0.4"/>
<line x1="5.569" y1="32.573" x2="12.569" y2="37.439" stroke="#141414" stroke-width="0.4"/>
<line x1="74.202" y1="92.584" x2="78.582" y2="99.584" stroke="#141414" stroke-width="0.4"/>
<line x1="78.582" y1="99.584" x2="99.018" y2="99.584" stroke="#141414" stroke-width="0.4"/>
<line x1="99.018" y1="99.584" x2="103.397" y2="92.584" stroke="#141414" stroke-width="0.4"/>
<line x1="135.836" y1="60.146" x2="142.836" y2="56.74" stroke="#141414" stroke-width="0.4"/>
<line x1="142.836" y1="56.74" x2="142.836" y2="40.845" stroke="#141414" stroke-width="0.4"/>
<line x1="142.836" y1="40.845" x2="135.836" y2="37.439" stroke="#141414" stroke-width="0.4"/>
<circle cx="57.983" cy="63.646" r="2.56" fill="#99d9fa" stroke="#464646" stroke-width="0.2"/>
<text x="57.983" y="64.86" font-size="3.48" text-anchor="middle" fill="#141414">9</text>
<circle cx="88.8" cy="33.939" r="2.56" fill="#ffe082" stroke="#464646" stroke-width="0.2"/>
<text x="88.8" y="35.16" font-size="3.48" text-anchor="middle" fill="#141414">10</text>
<circle cx="57.983" cy="33.939" r="2.56" fill="#ffe082" stroke="#464646" stroke-width="0.2"/>
<text x="57.983" y="35.16" font-size="3.48" text-anchor="middle" fill="#141414">11</text>
<circle cx="106.897" cy="76.365" r="2.56" fill="#ffe082" stroke="#464646" stroke-width="0.2"/>
<text x="106.897" y="77.58" font-size="3.48" text-anchor="middle" fill="#141414">12</text>
<circle cx="9.069" cy="21.219" r="2.56" fill="#ffe082" stroke="#464646" stroke-width="0.2"/>
<text x="9.069" y="22.44" font-size="3.48" text-anchor="middle" fill="#141414">13</text>
<circle cx="88.8" cy="96.084" r="2.56" fill="#ffe082" stroke="#464646" stroke-width="0.2"/>
<text x="88.8" y="97.30" font-size="3.48" text-anchor="middle" fill="#141414">14</text>
<circle cx="139.336" cy="48.792" r="2.56" fill="#ffe082" stroke="#464646" stroke-width="0.2"/>
<text x="139.336" y="50.01" font-size="3.48" text-anchor="middle" fill="#141414">15</text>
<circle cx="93.666" cy="81.771" r="4.60" fill="#eaf1fe" stroke="#2e78e6" stroke-width="0.3"/>
<text x="93.666" y="83.57" font-size="5.20" text-anchor="middle" fill="#14306e" font-weight="bold">3</text>
<polygon points="36.986,123.101 34.712,115.475 47.201,102.987 54.827,105.26" fill="rgb(216,216,216)"/>
<polygon points="25.517,134.57 23.244,142.196 35.732,154.685 43.358,152.411" fill="rgb(216,216,216)"/>
<polygon points="25.517,134.57 17.891,136.844 5.402,124.355 7.676,116.729" fill="rgb(216,216,216)"/>
<polygon points="54.827,140.943 62.453,143.216 74.942,130.727 72.668,123.101" fill="rgb(216,216,216)"/>
<polygon points="43.358,152.411 41.085,160.037 53.574,172.526 61.2,170.253" fill="rgb(216,216,216)"/>
<polygon points="72.668,123.101 74.942,115.475 62.453,102.987 54.827,105.26" fill="rgb(216,216,216)"/>
<polygon points="90.51,176.625 93.739,183.295 85.711,191.323 79.041,188.094" fill="rgb(216,216,216)"/>
<polygon points="90.51,176.625 93.739,183.295 85.711,191.323 79.041,188.094" fill="#99d9fa"/>
<line x1="25.517" y1="134.57" x2="36.986" y2="123.101" stroke="#8c8c8c" stroke-width="0.3" stroke-dasharray="1.2,0.8"/>
<line x1="54.827" y1="140.943" x2="36.986" y2="123.101" stroke="#8c8c8c" stroke-width="0.3" stroke-dasharray="1.2,0.8"/>
<line x1="54.827" y1="140.943" x2="43.358" y2="152.411" stroke="#8c8c8c" stroke-width="0.3" stroke-dasharray="1.2,0.8"/>
<line x1="72.668" y1="158.784" x2="61.2" y2="170.253" stroke="#8c8c8c" stroke-width="0.3" stroke-dasharray="1.2,0.8"/>
<line x1="79.041" y1="188.094" x2="61.2" y2="170.253" stroke="#8c8c8c" stroke-width="0.3" stroke-dasharray="1.2,0.8"/>
<line x1="54.827" y1="105.26" x2="36.986" y2="123.101" stroke="#8c8c8c" stroke-width="0.3" stroke-dasharray="1.2,0.8"/>
<line x1="43.358" y1="152.411" x2="25.517" y2="134.57" stroke="#8c8c8c" stroke-width="0.3" stroke-dasharray="1.2,0.8"/>
<line x1="7.676" y1="116.729" x2="25.517" y2="134.57" stroke="#8c8c8c" stroke-width="0.3" stroke-dasharray="1.2,0.8"/>
<line x1="72.668" y1="123.101" x2="54.827" y2="140.943" stroke="#8c8c8c" stroke-width="0.3" stroke-dasharray="1.2,0.8"/>
<line x1="61.2" y1="170.253" x2="43.358" y2="152.411" stroke="#8c8c8c" stroke-width="0.3" stroke-dasharray="1.2,0.8"/>
<line x1="54.827" y1="105.26" x2="72.668" y2="123.101" stroke="#8c8c8c" stroke-width="0.3" stroke-dasharray="1.2,0.8"/>
<line x1="79.041" y1="188.094" x2="90.51" y2="176.625" stroke="#8c8c8c" stroke-width="0.3" stroke-dasharray="1.2,0.8"/>
<line x1="19.145" y1="105.26" x2="36.986" y2="123.101" stroke="#141414" stroke-width="0.4"/>
<line x1="61.2" y1="205.935" x2="43.358" y2="188.094" stroke="#141414" stroke-width="0.4"/>
<line x1="79.041" y1="188.094" x2="61.2" y2="205.935" stroke="#141414" stroke-width="0.4"/>
<line x1="54.827" y1="140.943" x2="72.668" y2="158.784" stroke="#141414" stroke-width="0.4"/>
<line x1="43.358" y1="188.094" x2="61.2" y2="170.253" stroke="#141414" stroke-width="0.4"/>
<line x1="72.668" y1="158.784" x2="90.51" y2="176.625" stroke="#141414" stroke-width="0.4"/>
<line x1="7.676" y1="116.729" x2="19.145" y2="105.26" stroke="#141414" stroke-width="0.4"/>
<line x1="36.986" y1="123.101" x2="34.712" y2="115.475" stroke="#141414" stroke-width="0.4"/>
<line x1="34.712" y1="115.475" x2="47.201" y2="102.987" stroke="#141414" stroke-width="0.4"/>
<line x1="47.201" y1="102.987" x2="54.827" y2="105.26" stroke="#141414" stroke-width="0.4"/>
<line x1="25.517" y1="134.57" x2="23.244" y2="142.196" stroke="#141414" stroke-width="0.4"/>
<line x1="23.244" y1="142.196" x2="35.732" y2="154.685" stroke="#141414" stroke-width="0.4"/>
<line x1="35.732" y1="154.685" x2="43.358" y2="152.411" stroke="#141414" stroke-width="0.4"/>
<line x1="25.517" y1="134.57" x2="17.891" y2="136.844" stroke="#141414" stroke-width="0.4"/>
<line x1="17.891" y1="136.844" x2="5.402" y2="124.355" stroke="#141414" stroke-width="0.4"/>
<line x1="5.402" y1="124.355" x2="7.676" y2="116.729" stroke="#141414" stroke-width="0.4"/>
<line x1="54.827" y1="140.943" x2="62.453" y2="143.216" stroke="#141414" stroke-width="0.4"/>
<line x1="62.453" y1="143.216" x2="74.942" y2="130.727" stroke="#141414" stroke-width="0.4"/>
<line x1="74.942" y1="130.727" x2="72.668" y2="123.101" stroke="#141414" stroke-width="0.4"/>
<line x1="43.358" y1="152.411" x2="41.085" y2="160.037" stroke="#141414" stroke-width="0.4"/>
<line x1="41.085" y1="160.037" x2="53.574" y2="172.526" stroke="#141414" stroke-width="0.4"/>
<line x1="53.574" y1="172.526" x2="61.2" y2="170.253" stroke="#141414" stroke-width="0.4"/>
<line x1="72.668" y1="123.101" x2="74.942" y2="115.475" stroke="#141414" stroke-width="0.4"/>
<line x1="74.942" y1="115.475" x2="62.453" y2="102.987" stroke="#141414" stroke-width="0.4"/>
<line x1="62.453" y1="102.987" x2="54.827" y2="105.26" stroke="#141414" stroke-width="0.4"/>
<line x1="90.51" y1="176.625" x2="93.739" y2="183.295" stroke="#141414" stroke-width="0.4"/>
<line x1="93.739" y1="183.295" x2="85.711" y2="191.323" stroke="#141414" stroke-width="0.4"/>
<line x1="85.711" y1="191.323" x2="79.041" y2="188.094" stroke="#141414" stroke-width="0.4"/>
<circle cx="43.432" cy="111.706" r="2.56" fill="#ffe082" stroke="#464646" stroke-width="0.2"/>
<text x="43.432" y="112.92" font-size="3.48" text-anchor="middle" fill="#141414">30</text>
<circle cx="31.963" cy="145.966" r="2.56" fill="#ffe082" stroke="#464646" stroke-width="0.2"/>
<text x="31.963" y="147.18" font-size="3.48" text-anchor="middle" fill="#141414">31</text>
<circle cx="14.122" cy="128.124" r="2.56" fill="#ffe082" stroke="#464646" stroke-width="0.2"/>
<text x="14.122" y="129.34" font-size="3.48" text-anchor="middle" fill="#141414">32</text>
<circle cx="66.223" cy="134.497" r="2.56" fill="#ffe082" stroke="#464646" stroke-width="0.2"/>
<text x="66.223" y="135.72" font-size="3.48" text-anchor="middle" fill="#141414">33</text>
<circle cx="49.804" cy="163.807" r="2.56" fill="#ffe082" stroke="#464646" stroke-width="0.2"/>
<text x="49.804" y="165.03" font-size="3.48" text-anchor="middle" fill="#141414">34</text>
<circle cx="66.223" cy="111.706" r="2.56" fill="#ffe082" stroke="#464646" stroke-width="0.2"/>
<text x="66.223" y="112.92" font-size="3.48" text-anchor="middle" fill="#141414">35</text>
<circle cx="87.25" cy="184.834" r="2.56" fill="#99d9fa" stroke="#464646" stroke-width="0.2"/>
<text x="87.25" y="186.05" font-size="3.48" text-anchor="middle" fill="#141414">36</text>
<circle cx="56.951" cy="150.713" r="3.64" fill="#eaf1fe" stroke="#2e78e6" stroke-width="0.3"/>
<text x="56.951" y="152.14" font-size="4.11" text-anchor="middle" fill="#14306e" font-weight="bold">6</text>
<polygon points="128.323,123.101 126.049,115.475 138.538,102.987 146.164,105.26" fill="rgb(216,216,216)"/>
<polygon points="116.854,134.57 114.58,142.196 127.069,154.685 134.695,152.411" fill="rgb(216,216,216)"/>
<polygon points="116.854,134.57 109.228,136.844 96.739,124.355 99.013,116.729" fill="rgb(216,216,216)"/>
<polygon points="146.164,140.943 153.79,143.216 166.279,130.727 164.005,123.101" fill="rgb(216,216,216)"/>
<polygon points="134.695,152.411 132.421,160.037 144.91,172.526 152.536,170.253" fill="rgb(216,216,216)"/>
<polygon points="164.005,123.101 166.279,115.475 153.79,102.987 146.164,105.26" fill="rgb(216,216,216)"/>
<polygon points="181.846,176.625 185.076,183.295 177.048,191.323 170.378,188.094" fill="rgb(216,216,216)"/>
<polygon points="181.846,176.625 185.076,183.295 177.048,191.323 170.378,188.094" fill="#99d9fa"/>
<line x1="116.854" y1="134.57" x2="128.323" y2="123.101" stroke="#8c8c8c" stroke-width="0.3" stroke-dasharray="1.2,0.8"/>
<line x1="146.164" y1="140.943" x2="128.323" y2="123.101" stroke="#8c8c8c" stroke-width="0.3" stroke-dasharray="1.2,0.8"/>
<line x1="146.164" y1="140.943" x2="134.695" y2="152.411" stroke="#8c8c8c" stroke-width="0.3" stroke-dasharray="1.2,0.8"/>
<line x1="164.005" y1="158.784" x2="152.536" y2="170.253" stroke="#8c8c8c" stroke-width="0.3" stroke-dasharray="1.2,0.8"/>
<line x1="170.377" y1="188.094" x2="152.536" y2="170.253" stroke="#8c8c8c" stroke-width="0.3" stroke-dasharray="1.2,0.8"/>
<line x1="146.164" y1="105.26" x2="128.323" y2="123.101" stroke="#8c8c8c" stroke-width="0.3" stroke-dasharray="1.2,0.8"/>
<line x1="134.695" y1="152.411" x2="116.854" y2="134.57" stroke="#8c8c8c" stroke-width="0.3" stroke-dasharray="1.2,0.8"/>
<line x1="99.013" y1="116.729" x2="116.854" y2="134.57" stroke="#8c8c8c" stroke-width="0.3" stroke-dasharray="1.2,0.8"/>
<line x1="164.005" y1="123.101" x2="146.164" y2="140.943" stroke="#8c8c8c" stroke-width="0.3" stroke-dasharray="1.2,0.8"/>
<line x1="152.536" y1="170.253" x2="134.695" y2="152.411" stroke="#8c8c8c" stroke-width="0.3" stroke-dasharray="1.2,0.8"/>
<line x1="146.164" y1="105.26" x2="164.005" y2="123.101" stroke="#8c8c8c" stroke-width="0.3" stroke-dasharray="1.2,0.8"/>
<line x1="170.378" y1="188.094" x2="181.846" y2="176.625" stroke="#8c8c8c" stroke-width="0.3" stroke-dasharray="1.2,0.8"/>
<line x1="110.481" y1="105.26" x2="128.323" y2="123.101" stroke="#141414" stroke-width="0.4"/>
<line x1="152.536" y1="205.935" x2="134.695" y2="188.094" stroke="#141414" stroke-width="0.4"/>
<line x1="170.377" y1="188.094" x2="152.536" y2="205.935" stroke="#141414" stroke-width="0.4"/>
<line x1="146.164" y1="140.943" x2="164.005" y2="158.784" stroke="#141414" stroke-width="0.4"/>
<line x1="134.695" y1="188.094" x2="152.536" y2="170.253" stroke="#141414" stroke-width="0.4"/>
<line x1="164.005" y1="158.784" x2="181.846" y2="176.625" stroke="#141414" stroke-width="0.4"/>
<line x1="99.013" y1="116.729" x2="110.481" y2="105.26" stroke="#141414" stroke-width="0.4"/>
<line x1="128.323" y1="123.101" x2="126.049" y2="115.475" stroke="#141414" stroke-width="0.4"/>
<line x1="126.049" y1="115.475" x2="138.538" y2="102.987" stroke="#141414" stroke-width="0.4"/>
<line x1="138.538" y1="102.987" x2="146.164" y2="105.26" stroke="#141414" stroke-width="0.4"/>
<line x1="116.854" y1="134.57" x2="114.58" y2="142.196" stroke="#141414" stroke-width="0.4"/>
<line x1="114.58" y1="142.196" x2="127.069" y2="154.685" stroke="#141414" stroke-width="0.4"/>
<line x1="127.069" y1="154.685" x2="134.695" y2="152.411" stroke="#141414" stroke-width="0.4"/>
<line x1="116.854" y1="134.57" x2="109.228" y2="136.844" stroke="#141414" stroke-width="0.4"/>
<line x1="109.228" y1="136.844" x2="96.739" y2="124.355" stroke="#141414" stroke-width="0.4"/>
<line x1="96.739" y1="124.355" x2="99.013" y2="116.729" stroke="#141414" stroke-width="0.4"/>
<line x1="146.164" y1="140.943" x2="153.79" y2="143.216" stroke="#141414" stroke-width="0.4"/>
<line x1="153.79" y1="143.216" x2="166.279" y2="130.727" stroke="#141414" stroke-width="0.4"/>
<line x1="166.279" y1="130.727" x2="164.005" y2="123.101" stroke="#141414" stroke-width="0.4"/>
<line x1="134.695" y1="152.411" x2="132.421" y2="160.037" stroke="#141414" stroke-width="0.4"/>
<line x1="132.421" y1="160.037" x2="144.91" y2="172.526" stroke="#141414" stroke-width="0.4"/>
<line x1="144.91" y1="172.526" x2="152.536" y2="170.253" stroke="#141414" stroke-width="0.4"/>
<line x1="164.005" y1="123.101" x2="166.279" y2="115.475" stroke="#141414" stroke-width="0.4"/>
<line x1="166.279" y1="115.475" x2="153.79" y2="102.987" stroke="#141414" stroke-width="0.4"/>
<line x1="153.79" y1="102.987" x2="146.164" y2="105.26" stroke="#141414" stroke-width="0.4"/>
<line x1="181.846" y1="176.625" x2="185.076" y2="183.295" stroke="#141414" stroke-width="0.4"/>
<line x1="185.076" y1="183.295" x2="177.048" y2="191.323" stroke="#141414" stroke-width="0.4"/>
<line x1="177.048" y1="191.323" x2="170.378" y2="188.094" stroke="#141414" stroke-width="0.4"/>
<circle cx="134.768" cy="111.706" r="2.56" fill="#ffe082" stroke="#464646" stroke-width="0.2"/>
<text x="134.768" y="112.92" font-size="3.48" text-anchor="middle" fill="#141414">37</text>
<circle cx="123.3" cy="145.966" r="2.56" fill="#ffe082" stroke="#464646" stroke-width="0.2"/>
<text x="123.3" y="147.18" font-size="3.48" text-anchor="middle" fill="#141414">38</text>
<circle cx="105.458" cy="128.124" r="2.56" fill="#ffe082" stroke="#464646" stroke-width="0.2"/>
<text x="105.458" y="129.34" font-size="3.48" text-anchor="middle" fill="#141414">39</text>
<circle cx="157.559" cy="134.497" r="2.56" fill="#ffe082" stroke="#464646" stroke-width="0.2"/>
<text x="157.559" y="135.72" font-size="3.48" text-anchor="middle" fill="#141414">40</text>
<circle cx="141.141" cy="163.807" r="2.56" fill="#ffe082" stroke="#464646" stroke-width="0.2"/>
<text x="141.141" y="165.03" font-size="3.48" text-anchor="middle" fill="#141414">41</text>
<circle cx="157.559" cy="111.706" r="2.56" fill="#ffe082" stroke="#464646" stroke-width="0.2"/>
<text x="157.559" y="112.92" font-size="3.48" text-anchor="middle" fill="#141414">42</text>
<circle cx="178.587" cy="184.834" r="2.56" fill="#99d9fa" stroke="#464646" stroke-width="0.2"/>
<text x="178.587" y="186.05" font-size="3.48" text-anchor="middle" fill="#141414">43</text>
<circle cx="148.288" cy="150.713" r="3.64" fill="#eaf1fe" stroke="#2e78e6" stroke-width="0.3"/>
<text x="148.288" y="152.14" font-size="4.11" text-anchor="middle" fill="#14306e" font-weight="bold">7</text>
<text x="205.0" y="295.0" font-size="3.2" text-anchor="end" fill="#737373" font-family="sans-serif">3 / 4</text>
</svg>
