<svg xmlns="http://www.w3.org/2000/svg" xmlns:xlink="http://www.w3.org/1999/xlink" width="210.00mm" height="297.00mm" viewBox="0 0 210.00 297.00">
<rect x="0" y="0" width="210.00" height="297.00" fill="#ffffff" stroke="#cccccc" stroke-width="0.2"/>
<polygon points="54.237,54.244 44.227,52.919 42.499,50.752 43.435,40.698" fill="rgb(216,216,216)"/>
<polygon points="71.562,54.244 81.572,52.919 83.3,50.752 82.364,40.698" fill="rgb(216,216,216)"/>
<polygon points="64.069,107.58 65.487,114.936 77.756,117.092 81.597,110.66" fill="rgb(216,216,216)"/>
<polygon points="82.364,40.698 88.611,36.607 85.912,24.783 78.509,23.807" fill="rgb(216,216,216)"/>
<polygon points="78.509,23.807 79.205,16.373 68.278,11.111 62.899,16.29" fill="rgb(216,216,216)"/>
<polygon points="81.597,110.66 80.652,117.367 88.902,121.164 93.383,116.085" fill="rgb(216,216,216)"/>
<polygon points="120.681,69.894 122.613,80.384 103.504,112.718 93.383,116.085" fill="rgb(216,216,216)"/>
<polygon points="62.899,16.29 57.521,11.111 46.594,16.373 47.29,23.807" fill="rgb(216,216,216)"/>
<polygon points="31.863,116.136 35.198,119.771 41.152,116.888 40.368,112.017" fill="rgb(216,216,216)"/>
<polygon points="47.29,23.807 39.887,24.783 37.188,36.607 43.435,40.698" fill="rgb(216,216,216)"/>
<polygon points="40.368,112.017 43.045,116.13 45.722,120.242 49.385,109.189" fill="rgb(216,216,216)"/>
<polygon points="78.509,23.807 79.205,16.373 68.278,11.111 62.899,16.29" fill="#99d9fa"/>
<line x1="54.237" y1="54.244" x2="71.562" y2="54.244" stroke="#8c8c8c" stroke-width="0.3" stroke-dasharray="1.2,0.8"/>
<line x1="64.069" y1="107.58" x2="54.237" y2="54.244" stroke="#8c8c8c" stroke-width="0.3" stroke-dasharray="1.2,0.8"/>
<line x1="54.237" y1="54.244" x2="49.385" y2="109.189" stroke="#8c8c8c" stroke-width="0.3" stroke-dasharray="1.2,0.8"/>
<line x1="71.562" y1="54.244" x2="64.069" y2="107.58" stroke="#8c8c8c" stroke-width="0.3" stroke-dasharray="1.2,0.8"/>
<line x1="88.694" y1="56.825" x2="64.069" y2="107.58" stroke="#8c8c8c" stroke-width="0.3" stroke-dasharray="1.2,0.8"/>
<line x1="49.385" y1="109.189" x2="64.069" y2="107.58" stroke="#8c8c8c" stroke-width="0.3" stroke-dasharray="1.2,0.8"/>
<line x1="88.694" y1="56.825" x2="81.597" y2="110.66" stroke="#8c8c8c" stroke-width="0.3" stroke-dasharray="1.2,0.8"/>
<line x1="105.177" y1="62.161" x2="81.597" y2="110.66" stroke="#8c8c8c" stroke-width="0.3" stroke-dasharray="1.2,0.8"/>
<line x1="20.594" y1="62.14" x2="40.368" y2="112.017" stroke="#8c8c8c" stroke-width="0.3" stroke-dasharray="1.2,0.8"/>
<line x1="37.125" y1="56.954" x2="49.385" y2="109.189" stroke="#8c8c8c" stroke-width="0.3" stroke-dasharray="1.2,0.8"/>
<line x1="120.681" y1="69.894" x2="81.597" y2="110.66" stroke="#8c8c8c" stroke-width="0.3" stroke-dasharray="1.2,0.8"/>
<line x1="43.435" y1="40.698" x2="54.237" y2="54.244" stroke="#8c8c8c" stroke-width="0.3" stroke-dasharray="1.2,0.8"/>
<line x1="82.364" y1="40.698" x2="71.562" y2="54.244" stroke="#8c8c8c" stroke-width="0.3" stroke-dasharray="1.2,0.8"/>
<line x1="81.597" y1="110.66" x2="64.069" y2="107.58" stroke="#8c8c8c" stroke-width="0.3" stroke-dasharray="1.2,0.8"/>
<line x1="78.509" y1="23.807" x2="82.364" y2="40.698" stroke="#8c8c8c" stroke-width="0.3" stroke-dasharray="1.2,0.8"/>
<line x1="62.899" y1="16.29" x2="78.509" y2="23.807" stroke="#8c8c8c" stroke-width="0.3" stroke-dasharray="1.2,0.8"/>
<line x1="93.383" y1="116.085" x2="81.597" y2="110.66" stroke="#8c8c8c" stroke-width="0.3" stroke-dasharray="1.2,0.8"/>
<line x1="93.383" y1="116.085" x2="120.681" y2="69.894" stroke="#8c8c8c" stroke-width="0.3" stroke-dasharray="1.2,0.8"/>
<line x1="47.29" y1="23.807" x2="62.899" y2="16.29" stroke="#8c8c8c" stroke-width="0.3" stroke-dasharray="1.2,0.8"/>
<line x1="40.368" y1="112.017" x2="31.863" y2="116.136" stroke="#8c8c8c" stroke-width="0.3" stroke-dasharray="1.2,0.8"/>
<line x1="43.435" y1="40.698" x2="47.29" y2="23.807" stroke="#8c8c8c" stroke-width="0.3" stroke-dasharray="1.2,0.8"/>
<line x1="49.385" y1="109.189" x2="40.368" y2="112.017" stroke="#8c8c8c" stroke-width="0.3" stroke-dasharray="1.2,0.8"/>
<line x1="37.125" y1="56.954" x2="54.237" y2="54.244" stroke="#141414" stroke-width="0.4"/>
<line x1="71.562" y1="54.244" x2="88.694" y2="56.825" stroke="#141414" stroke-width="0.4"/>
<line x1="64.069" y1="107.58" x2="64.64" y2="125.367" stroke="#141414" stroke-width="0.4"/>
<line x1="88.694" y1="56.825" x2="105.177" y2="62.161" stroke="#141414" stroke-width="0.4"/>
<line x1="105.177" y1="62.161" x2="120.681" y2="69.894" stroke="#141414" stroke-width="0.4"/>
<line x1="64.64" y1="125.367" x2="51.684" y2="126.061" stroke="#141414" stroke-width="0.4"/>
<line x1="31.863" y1="116.136" x2="5.0" y2="69.691" stroke="#141414" stroke-width="0.4"/>
<line x1="5.0" y1="69.691" x2="20.594" y2="62.14" stroke="#141414" stroke-width="0.4"/>
<line x1="51.684" y1="126.061" x2="46.472" y2="118.178" stroke="#141414" stroke-width="0.4"/>
<line x1="20.594" y1="62.14" x2="37.125" y2="56.954" stroke="#141414" stroke-width="0.4"/>
<line x1="46.472" y1="118.178" x2="49.385" y2="109.189" stroke="#141414" stroke-width="0.4"/>
<line x1="54.237" y1="54.244" x2="44.227" y2="52.919" stroke="#141414" stroke-width="0.4"/>
<line x1="44.227" y1="52.919" x2="42.499" y2="50.752" stroke="#141414" stroke-width="0.4"/>
<line x1="42.499" y1="50.752" x2="43.435" y2="40.698" stroke="#141414" stroke-width="0.4"/>
<line x1="71.562" y1="54.244" x2="81.572" y2="52.919" stroke="#141414" stroke-width="0.4"/>
<line x1="81.572" y1="52.919" x2="83.3" y2="50.752" stroke="#141414" stroke-width="0.4"/>
<line x1="83.3" y1="50.752" x2="82.364" y2="40.698" stroke="#141414" stroke-width="0.4"/>
<line x1="64.069" y1="107.58" x2="65.487" y2="114.936" stroke="#141414" stroke-width="0.4"/>
<line x1="65.487" y1="114.936" x2="77.756" y2="117.092" stroke="#141414" stroke-width="0.4"/>
<line x1="77.756" y1="117.092" x2="81.597" y2="110.66" stroke="#141414" stroke-width="0.4"/>
<line x1="82.364" y1="40.698" x2="88.611" y2="36.607" stroke="#141414" stroke-width="0.4"/>
<line x1="88.611" y1="36.607" x2="85.912" y2="24.783" stroke="#141414" stroke-width="0.4"/>
<line x1="85.912" y1="24.783" x2="78.509" y2="23.807" stroke="#141414" stroke-width="0.4"/>
<line x1="78.509" y1="23.807" x2="79.205" y2="16.373" stroke="#141414" stroke-width="0.4"/>
<line x1="79.205" y1="16.373" x2="68.278" y2="11.111" stroke="#141414" stroke-width="0.4"/>
<line x1="68.278" y1="11.111" x2="62.899" y2="16.29" stroke="#141414" stroke-width="0.4"/>
<line x1="81.597" y1="110.66" x2="80.652" y2="117.367" stroke="#141414" stroke-width="0.4"/>
<line x1="80.652" y1="117.367" x2="88.902" y2="121.164" stroke="#141414" stroke-width="0.4"/>
<line x1="88.902" y1="121.164" x2="93.383" y2="116.085" stroke="#141414" stroke-width="0.4"/>
<line x1="120.681" y1="69.894" x2="122.613" y2="80.384" stroke="#141414" stroke-width="0.4"/>
<line x1="122.613" y1="80.384" x2="103.504" y2="112.718" stroke="#141414" stroke-width="0.4"/>
<line x1="103.504" y1="112.718" x2="93.383" y2="116.085" stroke="#141414" stroke-width="0.4"/>
<line x1="62.899" y1="16.29" x2="57.521" y2="11.111" stroke="#141414" stroke-width="0.4"/>
<line x1="57.521" y1="11.111" x2="46.594" y2="16.373" stroke="#141414" stroke-width="0.4"/>
<line x1="46.594" y1="16.373" x2="47.29" y2="23.807" stroke="#141414" stroke-width="0.4"/>
<line x1="31.863" y1="116.136" x2="35.198" y2="119.771" stroke="#141414" stroke-width="0.4"/>
<line x1="35.198" y1="119.771" x2="41.152" y2="116.888" stroke="#141414" stroke-width="0.4"/>
<line x1="41.152" y1="116.888" x2="40.368" y2="112.017" stroke="#141414" stroke-width="0.4"/>
<line x1="47.29" y1="23.807" x2="39.887" y2="24.783" stroke="#141414" stroke-width="0.4"/>
<line x1="39.887" y1="24.783" x2="37.188" y2="36.607" stroke="#141414" stroke-width="0.4"/>
<line x1="37.188" y1="36.607" x2="43.435" y2="40.698" stroke="#141414" stroke-width="0.4"/>
<line x1="40.368" y1="112.017" x2="43.045" y2="116.13" stroke="#141414" stroke-width="0.4"/>
<line x1="43.045" y1="116.13" x2="45.722" y2="120.242" stroke="#141414" stroke-width="0.4"/>
<line x1="45.722" y1="120.242" x2="49.385" y2="109.189" stroke="#141414" stroke-width="0.4"/>
<circle cx="46.099" cy="49.653" r="2.00" fill="#ffe082" stroke="#464646" stroke-width="0.2"/>
<text x="46.099" y="50.34" font-size="1.96" text-anchor="middle" fill="#141414">74</text>
<circle cx="79.7" cy="49.653" r="2.00" fill="#ffe082" stroke="#464646" stroke-width="0.2"/>
<text x="79.7" y="50.34" font-size="1.96" text-anchor="middle" fill="#141414">75</text>
<circle cx="72.227" cy="112.567" r="2.00" fill="#ffe082" stroke="#464646" stroke-width="0.2"/>
<text x="72.227" y="113.25" font-size="1.96" text-anchor="middle" fill="#141414">76</text>
<circle cx="83.849" cy="31.474" r="2.00" fill="#ffe082" stroke="#464646" stroke-width="0.2"/>
<text x="83.849" y="32.16" font-size="1.96" text-anchor="middle" fill="#141414">77</text>
<circle cx="72.223" cy="16.895" r="2.00" fill="#99d9fa" stroke="#464646" stroke-width="0.2"/>
<text x="72.223" y="17.58" font-size="1.96" text-anchor="middle" fill="#141414">78</text>
<circle cx="86.133" cy="116.319" r="2.00" fill="#ffe082" stroke="#464646" stroke-width="0.2"/>
<text x="86.133" y="117.01" font-size="1.96" text-anchor="middle" fill="#141414">79</text>
<circle cx="110.045" cy="94.77" r="2.00" fill="#ffe082" stroke="#464646" stroke-width="0.2"/>
<text x="110.045" y="95.46" font-size="1.96" text-anchor="middle" fill="#141414">80</text>
<circle cx="53.576" cy="16.895" r="2.00" fill="#ffe082" stroke="#464646" stroke-width="0.2"/>
<text x="53.576" y="17.58" font-size="1.96" text-anchor="middle" fill="#141414">81</text>
<circle cx="37.145" cy="116.203" r="2.00" fill="#ffe082" stroke="#464646" stroke-width="0.2"/>
<text x="37.145" y="116.89" font-size="1.96" text-anchor="middle" fill="#141414">82</text>
<circle cx="41.95" cy="31.474" r="2.00" fill="#ffe082" stroke="#464646" stroke-width="0.2"/>
<text x="41.95" y="32.16" font-size="1.96" text-anchor="middle" fill="#141414">83</text>
<circle cx="44.63" cy="114.394" r="2.00" fill="#ffe082" stroke="#464646" stroke-width="0.2"/>
<text x="44.63" y="115.08" font-size="1.96" text-anchor="middle" fill="#141414">84</text>
<circle cx="78.12" cy="91.688" r="4.56" fill="#eaf1fe" stroke="#2e78e6" stroke-width="0.3"/>
<text x="78.12" y="93.47" font-size="5.16" text-anchor="middle" fill="#14306e" font-weight="bold">8</text>
<polygon points="21.312,182.166 13.896,185.352 11.737,203.98 18.228,208.778" fill="rgb(216,216,216)"/>
<polygon points="23.787,180.286 21.815,182.49 34.065,196.277 34.49,196.94" fill="rgb(216,216,216)"/>
<polygon points="29.856,155.326 31.63,157.541 48.8,147.447 49.527,147.145" fill="rgb(216,216,216)"/>
<polygon points="23.787,180.286 34.982,173.286 49.909,173.286 61.105,180.286" fill="rgb(216,216,216)"/>
<polygon points="38.229,129.879 44.254,123.108 71.093,124.154 76.571,131.373" fill="rgb(216,216,216)"/>
<polygon points="18.228,208.778 30.043,221.263 35.566,223.557 52.75,223.113" fill="rgb(216,216,216)"/>
<polygon points="96.437,195.251 102.898,200.089 100.622,218.703 93.186,221.842" fill="rgb(216,216,216)"/>
<polygon points="96.437,195.251 91.317,183.063 79.104,174.436 65.906,173.683" fill="rgb(216,216,216)"/>
<polygon points="90.852,223.68 92.663,221.495 79.309,206.719 78.866,206.067" fill="rgb(216,216,216)"/>
<polygon points="111.78,150.008 109.938,147.695 94.293,157.46 93.568,157.769" fill="rgb(216,216,216)"/>
<polygon points="110.341,147.254 108.254,138.537 84.616,127.421 76.571,131.373" fill="rgb(216,216,216)"/>
<polygon points="111.78,150.008 109.938,147.695 94.293,157.46 93.568,157.769" fill="#99d9fa"/>
<line x1="65.906" y1="173.683" x2="31.185" y2="157.983" stroke="#8c8c8c" stroke-width="0.3" stroke-dasharray="1.2,0.8"/>
<line x1="34.49" y1="196.94" x2="18.228" y2="208.778" stroke="#8c8c8c" stroke-width="0.3" stroke-dasharray="1.2,0.8"/>
<line x1="38.229" y1="129.879" x2="49.527" y2="147.145" stroke="#8c8c8c" stroke-width="0.3" stroke-dasharray="1.2,0.8"/>
<line x1="78.866" y1="206.067" x2="96.437" y2="195.251" stroke="#8c8c8c" stroke-width="0.3" stroke-dasharray="1.2,0.8"/>
<line x1="103.247" y1="175.402" x2="93.568" y2="157.769" stroke="#8c8c8c" stroke-width="0.3" stroke-dasharray="1.2,0.8"/>
<line x1="96.437" y1="195.251" x2="61.105" y2="180.286" stroke="#8c8c8c" stroke-width="0.3" stroke-dasharray="1.2,0.8"/>
<line x1="90.852" y1="223.68" x2="52.75" y2="223.113" stroke="#8c8c8c" stroke-width="0.3" stroke-dasharray="1.2,0.8"/>
<line x1="78.866" y1="206.067" x2="34.49" y2="196.94" stroke="#8c8c8c" stroke-width="0.3" stroke-dasharray="1.2,0.8"/>
<line x1="52.75" y1="223.113" x2="78.866" y2="206.067" stroke="#8c8c8c" stroke-width="0.3" stroke-dasharray="1.2,0.8"/>
<line x1="61.105" y1="180.286" x2="78.866" y2="206.067" stroke="#8c8c8c" stroke-width="0.3" stroke-dasharray="1.2,0.8"/>
<line x1="34.49" y1="196.94" x2="52.75" y2="223.113" stroke="#8c8c8c" stroke-width="0.3" stroke-dasharray="1.2,0.8"/>
<line x1="61.105" y1="180.286" x2="34.49" y2="196.94" stroke="#8c8c8c" stroke-width="0.3" stroke-dasharray="1.2,0.8"/>
<line x1="49.527" y1="147.145" x2="93.568" y2="157.769" stroke="#8c8c8c" stroke-width="0.3" stroke-dasharray="1.2,0.8"/>
<line x1="93.568" y1="157.769" x2="76.571" y2="131.373" stroke="#8c8c8c" stroke-width="0.3" stroke-dasharray="1.2,0.8"/>
<line x1="93.568" y1="157.769" x2="65.906" y2="173.683" stroke="#8c8c8c" stroke-width="0.3" stroke-dasharray="1.2,0.8"/>
<line x1="76.571" y1="131.373" x2="49.527" y2="147.145" stroke="#8c8c8c" stroke-width="0.3" stroke-dasharray="1.2,0.8"/>
<line x1="49.527" y1="147.145" x2="65.906" y2="173.683" stroke="#8c8c8c" stroke-width="0.3" stroke-dasharray="1.2,0.8"/>
<line x1="54.285" y1="231.131" x2="52.75" y2="223.113" stroke="#8c8c8c" stroke-width="0.3" stroke-dasharray="1.2,0.8"/>
<line x1="65.906" y1="173.683" x2="61.105" y2="180.286" stroke="#8c8c8c" stroke-width="0.3" stroke-dasharray="1.2,0.8"/>
<line x1="18.228" y1="208.778" x2="21.312" y2="182.166" stroke="#8c8c8c" stroke-width="0.3" stroke-dasharray="1.2,0.8"/>
<line x1="34.49" y1="196.94" x2="23.787" y2="180.286" stroke="#8c8c8c" stroke-width="0.3" stroke-dasharray="1.2,0.8"/>
<line x1="49.527" y1="147.145" x2="29.856" y2="155.326" stroke="#8c8c8c" stroke-width="0.3" stroke-dasharray="1.2,0.8"/>
<line x1="61.105" y1="180.286" x2="23.787" y2="180.286" stroke="#8c8c8c" stroke-width="0.3" stroke-dasharray="1.2,0.8"/>
<line x1="76.571" y1="131.373" x2="38.229" y2="129.879" stroke="#8c8c8c" stroke-width="0.3" stroke-dasharray="1.2,0.8"/>
<line x1="52.75" y1="223.113" x2="18.228" y2="208.778" stroke="#8c8c8c" stroke-width="0.3" stroke-dasharray="1.2,0.8"/>
<line x1="93.186" y1="221.842" x2="96.437" y2="195.251" stroke="#8c8c8c" stroke-width="0.3" stroke-dasharray="1.2,0.8"/>
<line x1="65.906" y1="173.683" x2="96.437" y2="195.251" stroke="#8c8c8c" stroke-width="0.3" stroke-dasharray="1.2,0.8"/>
<line x1="78.866" y1="206.067" x2="90.852" y2="223.68" stroke="#8c8c8c" stroke-width="0.3" stroke-dasharray="1.2,0.8"/>
<line x1="93.568" y1="157.769" x2="111.78" y2="150.008" stroke="#8c8c8c" stroke-width="0.3" stroke-dasharray="1.2,0.8"/>
<line x1="76.571" y1="131.373" x2="110.341" y2="147.254" stroke="#8c8c8c" stroke-width="0.3" stroke-dasharray="1.2,0.8"/>
<line x1="29.856" y1="155.326" x2="38.229" y2="129.879" stroke="#141414" stroke-width="0.4"/>
<line x1="21.312" y1="182.167" x2="34.49" y2="196.94" stroke="#141414" stroke-width="0.4"/>
<line x1="31.185" y1="157.983" x2="49.527" y2="147.145" stroke="#141414" stroke-width="0.4"/>
<line x1="61.105" y1="180.286" x2="31.185" y2="157.983" stroke="#141414" stroke-width="0.4"/>
<line x1="54.285" y1="231.131" x2="15.944" y2="229.637" stroke="#141414" stroke-width="0.4"/>
<line x1="15.944" y1="229.637" x2="52.75" y2="223.113" stroke="#141414" stroke-width="0.4"/>
<line x1="111.78" y1="150.008" x2="103.247" y2="175.402" stroke="#141414" stroke-width="0.4"/>
<line x1="103.247" y1="175.402" x2="65.906" y2="173.683" stroke="#141414" stroke-width="0.4"/>
<line x1="93.186" y1="221.842" x2="78.866" y2="206.067" stroke="#141414" stroke-width="0.4"/>
<line x1="110.341" y1="147.254" x2="93.568" y2="157.769" stroke="#141414" stroke-width="0.4"/>
<line x1="90.852" y1="223.68" x2="54.285" y2="231.131" stroke="#141414" stroke-width="0.4"/>
<line x1="21.312" y1="182.166" x2="13.896" y2="185.352" stroke="#141414" stroke-width="0.4"/>
<line x1="13.896" y1="185.352" x2="11.737" y2="203.98" stroke="#141414" stroke-width="0.4"/>
<line x1="11.737" y1="203.98" x2="18.228" y2="208.778" stroke="#141414" stroke-width="0.4"/>
<line x1="23.787" y1="180.286" x2="21.815" y2="182.49" stroke="#141414" stroke-width="0.4"/>
<line x1="21.815" y1="182.49" x2="34.065" y2="196.277" stroke="#141414" stroke-width="0.4"/>
<line x1="34.065" y1="196.277" x2="34.49" y2="196.94" stroke="#141414" stroke-width="0.4"/>
<line x1="29.856" y1="155.326" x2="31.63" y2="157.541" stroke="#141414" stroke-width="0.4"/>
<line x1="31.63" y1="157.541" x2="48.8" y2="147.447" stroke="#141414" stroke-width="0.4"/>
<line x1="48.8" y1="147.447" x2="49.527" y2="147.145" stroke="#141414" stroke-width="0.4"/>
<line x1="23.787" y1="180.286" x2="34.982" y2="173.286" stroke="#141414" stroke-width="0.4"/>
<line x1="34.982" y1="173.286" x2="49.909" y2="173.286" stroke="#141414" stroke-width="0.4"/>
<line x1="49.909" y1="173.286" x2="61.105" y2="180.286" stroke="#141414" stroke-width="0.4"/>
<line x1="38.229" y1="129.879" x2="44.254" y2="123.108" stroke="#141414" stroke-width="0.4"/>
<line x1="44.254" y1="123.108" x2="71.093" y2="124.154" stroke="#141414" stroke-width="0.4"/>
<line x1="71.093" y1="124.154" x2="76.571" y2="131.373" stroke="#141414" stroke-width="0.4"/>
<line x1="18.228" y1="208.778" x2="30.043" y2="221.263" stroke="#141414" stroke-width="0.4"/>
<line x1="30.043" y1="221.263" x2="35.566" y2="223.557" stroke="#141414" stroke-width="0.4"/>
<line x1="35.566" y1="223.557" x2="52.75" y2="223.113" stroke="#141414" stroke-width="0.4"/>
<line x1="96.437" y1="195.251" x2="102.898" y2="200.089" stroke="#141414" stroke-width="0.4"/>
<line x1="102.898" y1="200.089" x2="100.622" y2="218.703" stroke="#141414" stroke-width="0.4"/>
<line x1="100.622" y1="218.703" x2="93.186" y2="221.842" stroke="#141414" stroke-width="0.4"/>
<line x1="96.437" y1="195.251" x2="91.317" y2="183.063" stroke="#141414" stroke-width="0.4"/>
<line x1="91.317" y1="183.063" x2="79.104" y2="174.436" stroke="#141414" stroke-width="0.4"/>
<line x1="79.104" y1="174.436" x2="65.906" y2="173.683" stroke="#141414" stroke-width="0.4"/>
<line x1="90.852" y1="223.68" x2="92.663" y2="221.495" stroke="#141414" stroke-width="0.4"/>
<line x1="92.663" y1="221.495" x2="79.309" y2="206.719" stroke="#141414" stroke-width="0.4"/>
<line x1="79.309" y1="206.719" x2="78.866" y2="206.067" stroke="#141414" stroke-width="0.4"/>
<line x1="111.78" y1="150.008" x2="109.938" y2="147.695" stroke="#141414" stroke-width="0.4"/>
<line x1="109.938" y1="147.695" x2="94.293" y2="157.46" stroke="#141414" stroke-width="0.4"/>
<line x1="94.293" y1="157.46" x2="93.568" y2="157.769" stroke="#141414" stroke-width="0.4"/>
<line x1="110.341" y1="147.254" x2="108.254" y2="138.537" stroke="#141414" stroke-width="0.4"/>
<line x1="108.254" y1="138.537" x2="84.616" y2="127.421" stroke="#141414" stroke-width="0.4"/>
<line x1="84.616" y1="127.421" x2="76.571" y2="131.373" stroke="#141414" stroke-width="0.4"/>
<circle cx="16.294" cy="195.069" r="2.00" fill="#ffe082" stroke="#464646" stroke-width="0.2"/>
<text x="16.294" y="195.76" font-size="1.96" text-anchor="middle" fill="#141414">96</text>
<circle cx="42.446" cy="176.786" r="2.00" fill="#ffe082" stroke="#464646" stroke-width="0.2"/>
<text x="42.446" y="177.47" font-size="1.96" text-anchor="middle" fill="#141414">99</text>
<circle cx="57.537" cy="127.129" r="2.00" fill="#ffe082" stroke="#464646" stroke-width="0.2"/>
<text x="57.537" y="127.82" font-size="1.96" text-anchor="middle" fill="#141414">100</text>
<circle cx="34.147" cy="219.177" r="2.00" fill="#ffe082" stroke="#464646" stroke-width="0.2"/>
<text x="34.147" y="219.86" font-size="1.96" text-anchor="middle" fill="#141414">101</text>
<circle cx="98.286" cy="208.971" r="2.00" fill="#ffe082" stroke="#464646" stroke-width="0.2"/>
<text x="98.286" y="209.66" font-size="1.96" text-anchor="middle" fill="#141414">102</text>
<circle cx="83.191" cy="181.608" r="2.00" fill="#ffe082" stroke="#464646" stroke-width="0.2"/>
<text x="83.191" y="182.29" font-size="1.96" text-anchor="middle" fill="#141414">103</text>
<circle cx="94.946" cy="136.146" r="2.00" fill="#ffe082" stroke="#464646" stroke-width="0.2"/>
<text x="94.946" y="136.83" font-size="1.96" text-anchor="middle" fill="#141414">106</text>
<circle cx="73.222" cy="145.429" r="4.60" fill="#eaf1fe" stroke="#2e78e6" stroke-width="0.3"/>
<text x="73.222" y="147.23" font-size="5.20" text-anchor="middle" fill="#14306e" font-weight="bold">10</text>
<text x="205.0" y="295.0" font-size="3.2" text-anchor="end" fill="#737373" font-family="sans-serif">6 / 7</text>
</svg>
