<svg xmlns="http://www.w3.org/2000/svg" xmlns:xlink="http://www.w3.org/1999/xlink" width="210.00mm" height="297.00mm" viewBox="0 0 210.00 297.00">
<rect x="0" y="0" width="210.00" height="297.00" fill="#ffffff" stroke="#cccccc" stroke-width="0.2"/>
<polygon points="78.979,134.072 69.206,137.052 51.945,167.194 54.321,177.131" fill="rgb(216,216,216)"/>
<polygon points="54.321,177.131 68.534,183.509 87.072,182.689 100.667,175.081" fill="rgb(216,216,216)"/>
<polygon points="29.752,127.837 33.216,112.648 45.032,98.34 59.291,92.065" fill="rgb(216,216,216)"/>
<polygon points="12.971,89.504 10.811,79.516 28.723,49.75 38.559,46.98" fill="rgb(216,216,216)"/>
<polygon points="198.471,175.718 200.847,185.656 183.586,215.798 173.813,218.778" fill="rgb(216,216,216)"/>
<polygon points="198.471,175.718 184.258,169.34 165.72,170.16 152.125,177.768" fill="rgb(216,216,216)"/>
<polygon points="117.664,13.588 114.2,28.777 102.385,43.086 88.126,49.36" fill="rgb(216,216,216)"/>
<polygon points="158.486,94.445 143.597,87.445 123.746,87.445 108.857,94.445" fill="rgb(216,216,216)"/>
<polygon points="158.486,94.445 155.112,110.547 143.161,126.398 128.608,134.072" fill="rgb(216,216,216)"/>
<polygon points="68.438,7.353 58.367,9.083 37.452,36.822 38.559,46.98" fill="rgb(216,216,216)"/>
<polygon points="173.813,218.778 158.924,225.778 139.073,225.778 124.184,218.778" fill="rgb(216,216,216)"/>
<polygon points="29.752,127.837 33.216,112.648 45.032,98.34 59.291,92.065" fill="#99d9fa"/>
<line x1="100.667" y1="175.081" x2="78.979" y2="134.072" stroke="#8c8c8c" stroke-width="0.3" stroke-dasharray="1.2,0.8"/>
<line x1="59.291" y1="92.065" x2="78.979" y2="134.072" stroke="#8c8c8c" stroke-width="0.3" stroke-dasharray="1.2,0.8"/>
<line x1="108.857" y1="94.445" x2="78.979" y2="134.072" stroke="#8c8c8c" stroke-width="0.3" stroke-dasharray="1.2,0.8"/>
<line x1="78.979" y1="134.072" x2="128.608" y2="134.072" stroke="#8c8c8c" stroke-width="0.3" stroke-dasharray="1.2,0.8"/>
<line x1="124.184" y1="218.778" x2="74.825" y2="213.608" stroke="#8c8c8c" stroke-width="0.3" stroke-dasharray="1.2,0.8"/>
<line x1="152.125" y1="177.768" x2="173.813" y2="218.778" stroke="#8c8c8c" stroke-width="0.3" stroke-dasharray="1.2,0.8"/>
<line x1="88.126" y1="49.36" x2="68.438" y2="7.353" stroke="#8c8c8c" stroke-width="0.3" stroke-dasharray="1.2,0.8"/>
<line x1="152.125" y1="177.768" x2="100.667" y2="175.081" stroke="#8c8c8c" stroke-width="0.3" stroke-dasharray="1.2,0.8"/>
<line x1="124.184" y1="218.778" x2="152.125" y2="177.768" stroke="#8c8c8c" stroke-width="0.3" stroke-dasharray="1.2,0.8"/>
<line x1="128.608" y1="134.072" x2="152.125" y2="177.768" stroke="#8c8c8c" stroke-width="0.3" stroke-dasharray="1.2,0.8"/>
<line x1="100.667" y1="175.081" x2="124.184" y2="218.778" stroke="#8c8c8c" stroke-width="0.3" stroke-dasharray="1.2,0.8"/>
<line x1="128.608" y1="134.072" x2="100.667" y2="175.081" stroke="#8c8c8c" stroke-width="0.3" stroke-dasharray="1.2,0.8"/>
<line x1="59.291" y1="92.065" x2="88.126" y2="49.36" stroke="#8c8c8c" stroke-width="0.3" stroke-dasharray="1.2,0.8"/>
<line x1="88.126" y1="49.36" x2="38.559" y2="46.98" stroke="#8c8c8c" stroke-width="0.3" stroke-dasharray="1.2,0.8"/>
<line x1="88.126" y1="49.36" x2="108.857" y2="94.445" stroke="#8c8c8c" stroke-width="0.3" stroke-dasharray="1.2,0.8"/>
<line x1="38.559" y1="46.98" x2="59.291" y2="92.065" stroke="#8c8c8c" stroke-width="0.3" stroke-dasharray="1.2,0.8"/>
<line x1="59.291" y1="92.065" x2="108.857" y2="94.445" stroke="#8c8c8c" stroke-width="0.3" stroke-dasharray="1.2,0.8"/>
<line x1="100.414" y1="256.132" x2="124.184" y2="218.778" stroke="#8c8c8c" stroke-width="0.3" stroke-dasharray="1.2,0.8"/>
<line x1="108.857" y1="94.445" x2="128.608" y2="134.072" stroke="#8c8c8c" stroke-width="0.3" stroke-dasharray="1.2,0.8"/>
<line x1="54.321" y1="177.131" x2="78.979" y2="134.072" stroke="#8c8c8c" stroke-width="0.3" stroke-dasharray="1.2,0.8"/>
<line x1="100.667" y1="175.081" x2="54.321" y2="177.131" stroke="#8c8c8c" stroke-width="0.3" stroke-dasharray="1.2,0.8"/>
<line x1="59.291" y1="92.065" x2="29.752" y2="127.837" stroke="#8c8c8c" stroke-width="0.3" stroke-dasharray="1.2,0.8"/>
<line x1="38.559" y1="46.98" x2="12.971" y2="89.504" stroke="#8c8c8c" stroke-width="0.3" stroke-dasharray="1.2,0.8"/>
<line x1="173.813" y1="218.778" x2="198.471" y2="175.718" stroke="#8c8c8c" stroke-width="0.3" stroke-dasharray="1.2,0.8"/>
<line x1="152.125" y1="177.768" x2="198.471" y2="175.718" stroke="#8c8c8c" stroke-width="0.3" stroke-dasharray="1.2,0.8"/>
<line x1="88.126" y1="49.36" x2="117.664" y2="13.588" stroke="#8c8c8c" stroke-width="0.3" stroke-dasharray="1.2,0.8"/>
<line x1="108.857" y1="94.445" x2="158.486" y2="94.445" stroke="#8c8c8c" stroke-width="0.3" stroke-dasharray="1.2,0.8"/>
<line x1="128.608" y1="134.072" x2="158.486" y2="94.445" stroke="#8c8c8c" stroke-width="0.3" stroke-dasharray="1.2,0.8"/>
<line x1="38.559" y1="46.98" x2="68.438" y2="7.353" stroke="#8c8c8c" stroke-width="0.3" stroke-dasharray="1.2,0.8"/>
<line x1="124.184" y1="218.778" x2="173.813" y2="218.778" stroke="#8c8c8c" stroke-width="0.3" stroke-dasharray="1.2,0.8"/>
<line x1="78.979" y1="134.072" x2="29.752" y2="127.837" stroke="#141414" stroke-width="0.4"/>
<line x1="74.825" y1="213.608" x2="100.667" y2="175.081" stroke="#141414" stroke-width="0.4"/>
<line x1="59.291" y1="92.065" x2="12.971" y2="89.504" stroke="#141414" stroke-width="0.4"/>
<line x1="100.414" y1="256.132" x2="74.825" y2="213.608" stroke="#141414" stroke-width="0.4"/>
<line x1="68.438" y1="7.353" x2="117.664" y2="13.588" stroke="#141414" stroke-width="0.4"/>
<line x1="177.966" y1="139.241" x2="152.125" y2="177.768" stroke="#141414" stroke-width="0.4"/>
<line x1="88.126" y1="49.36" x2="134.446" y2="51.922" stroke="#141414" stroke-width="0.4"/>
<line x1="134.446" y1="51.922" x2="108.857" y2="94.445" stroke="#141414" stroke-width="0.4"/>
<line x1="128.608" y1="134.072" x2="177.966" y2="139.241" stroke="#141414" stroke-width="0.4"/>
<line x1="149.773" y1="261.301" x2="100.414" y2="256.132" stroke="#141414" stroke-width="0.4"/>
<line x1="124.184" y1="218.778" x2="149.773" y2="261.301" stroke="#141414" stroke-width="0.4"/>
<line x1="78.979" y1="134.072" x2="69.206" y2="137.052" stroke="#141414" stroke-width="0.4"/>
<line x1="69.206" y1="137.052" x2="51.945" y2="167.194" stroke="#141414" stroke-width="0.4"/>
<line x1="51.945" y1="167.194" x2="54.321" y2="177.131" stroke="#141414" stroke-width="0.4"/>
<line x1="54.321" y1="177.131" x2="68.534" y2="183.509" stroke="#141414" stroke-width="0.4"/>
<line x1="68.534" y1="183.509" x2="87.072" y2="182.689" stroke="#141414" stroke-width="0.4"/>
<line x1="87.072" y1="182.689" x2="100.667" y2="175.081" stroke="#141414" stroke-width="0.4"/>
<line x1="29.752" y1="127.837" x2="33.216" y2="112.648" stroke="#141414" stroke-width="0.4"/>
<line x1="33.216" y1="112.648" x2="45.032" y2="98.34" stroke="#141414" stroke-width="0.4"/>
<line x1="45.032" y1="98.34" x2="59.291" y2="92.065" stroke="#141414" stroke-width="0.4"/>
<line x1="12.971" y1="89.504" x2="10.811" y2="79.516" stroke="#141414" stroke-width="0.4"/>
<line x1="10.811" y1="79.516" x2="28.723" y2="49.75" stroke="#141414" stroke-width="0.4"/>
<line x1="28.723" y1="49.75" x2="38.559" y2="46.98" stroke="#141414" stroke-width="0.4"/>
<line x1="198.471" y1="175.718" x2="200.847" y2="185.656" stroke="#141414" stroke-width="0.4"/>
<line x1="200.847" y1="185.656" x2="183.586" y2="215.798" stroke="#141414" stroke-width="0.4"/>
<line x1="183.586" y1="215.798" x2="173.813" y2="218.778" stroke="#141414" stroke-width="0.4"/>
<line x1="198.471" y1="175.718" x2="184.258" y2="169.34" stroke="#141414" stroke-width="0.4"/>
<line x1="184.258" y1="169.34" x2="165.72" y2="170.16" stroke="#141414" stroke-width="0.4"/>
<line x1="165.72" y1="170.16" x2="152.125" y2="177.768" stroke="#141414" stroke-width="0.4"/>
<line x1="117.664" y1="13.588" x2="114.2" y2="28.777" stroke="#141414" stroke-width="0.4"/>
<line x1="114.2" y1="28.777" x2="102.385" y2="43.086" stroke="#141414" stroke-width="0.4"/>
<line x1="102.385" y1="43.086" x2="88.126" y2="49.36" stroke="#141414" stroke-width="0.4"/>
<line x1="158.486" y1="94.445" x2="143.597" y2="87.445" stroke="#141414" stroke-width="0.4"/>
<line x1="143.597" y1="87.445" x2="123.746" y2="87.445" stroke="#141414" stroke-width="0.4"/>
<line x1="123.746" y1="87.445" x2="108.857" y2="94.445" stroke="#141414" stroke-width="0.4"/>
<line x1="158.486" y1="94.445" x2="155.112" y2="110.547" stroke="#141414" stroke-width="0.4"/>
<line x1="155.112" y1="110.547" x2="143.161" y2="126.398" stroke="#141414" stroke-width="0.4"/>
<line x1="143.161" y1="126.398" x2="128.608" y2="134.072" stroke="#141414" stroke-width="0.4"/>
<line x1="68.438" y1="7.353" x2="58.367" y2="9.083" stroke="#141414" stroke-width="0.4"/>
<line x1="58.367" y1="9.083" x2="37.452" y2="36.822" stroke="#141414" stroke-width="0.4"/>
<line x1="37.452" y1="36.822" x2="38.559" y2="46.98" stroke="#141414" stroke-width="0.4"/>
<line x1="173.813" y1="218.778" x2="158.924" y2="225.778" stroke="#141414" stroke-width="0.4"/>
<line x1="158.924" y1="225.778" x2="139.073" y2="225.778" stroke="#141414" stroke-width="0.4"/>
<line x1="139.073" y1="225.778" x2="124.184" y2="218.778" stroke="#141414" stroke-width="0.4"/>
<circle cx="63.613" cy="153.862" r="1.76" fill="#ffe082" stroke="#464646" stroke-width="0.2"/>
<text x="63.613" y="154.47" font-size="1.73" text-anchor="middle" fill="#141414">12</text>
<circle cx="77.649" cy="179.603" r="1.76" fill="#ffe082" stroke="#464646" stroke-width="0.2"/>
<text x="77.649" y="180.21" font-size="1.73" text-anchor="middle" fill="#141414">13</text>
<circle cx="41.823" cy="107.722" r="1.76" fill="#99d9fa" stroke="#464646" stroke-width="0.2"/>
<text x="41.823" y="108.33" font-size="1.73" text-anchor="middle" fill="#141414">14</text>
<circle cx="22.766" cy="66.438" r="1.76" fill="#ffe082" stroke="#464646" stroke-width="0.2"/>
<text x="22.766" y="67.04" font-size="1.73" text-anchor="middle" fill="#141414">15</text>
<circle cx="189.179" cy="198.987" r="1.76" fill="#ffe082" stroke="#464646" stroke-width="0.2"/>
<text x="189.179" y="199.59" font-size="1.73" text-anchor="middle" fill="#141414">16</text>
<circle cx="175.143" cy="173.247" r="1.76" fill="#ffe082" stroke="#464646" stroke-width="0.2"/>
<text x="175.143" y="173.85" font-size="1.73" text-anchor="middle" fill="#141414">17</text>
<circle cx="105.594" cy="33.703" r="1.76" fill="#ffe082" stroke="#464646" stroke-width="0.2"/>
<text x="105.594" y="34.31" font-size="1.73" text-anchor="middle" fill="#141414">18</text>
<circle cx="133.672" cy="90.945" r="1.76" fill="#ffe082" stroke="#464646" stroke-width="0.2"/>
<text x="133.672" y="91.55" font-size="1.73" text-anchor="middle" fill="#141414">19</text>
<circle cx="146.342" cy="116.365" r="1.76" fill="#ffe082" stroke="#464646" stroke-width="0.2"/>
<text x="146.342" y="116.97" font-size="1.73" text-anchor="middle" fill="#141414">20</text>
<circle cx="50.704" cy="25.06" r="1.76" fill="#ffe082" stroke="#464646" stroke-width="0.2"/>
<text x="50.704" y="25.66" font-size="1.73" text-anchor="middle" fill="#141414">21</text>
<circle cx="148.998" cy="222.278" r="1.76" fill="#ffe082" stroke="#464646" stroke-width="0.2"/>
<text x="148.998" y="222.88" font-size="1.73" text-anchor="middle" fill="#141414">22</text>
<circle cx="100.018" cy="265.048" r="4.6" fill="#eaf1fe" stroke="#2e78e6" stroke-width="0.3"/>
<text x="100.018" y="266.848" font-size="5.2" text-anchor="middle" fill="#14306e" font-weight="bold">2</text>
</svg>
