<svg xmlns="http://www.w3.org/2000/svg" xmlns:xlink="http://www.w3.org/1999/xlink" width="210.00mm" height="297.00mm" viewBox="0 0 210.00 297.00">
<rect x="0" y="0" width="210.00" height="297.00" fill="#ffffff" stroke="#cccccc" stroke-width="0.2"/>
<polygon points="5.0,18.575 11.219,13.375 40.24,13.375 46.459,18.575" fill="rgb(216,216,216)"/>
<polygon points="46.459,18.575 53.641,24.233 63.965,57.779 61.207,66.496" fill="rgb(216,216,216)"/>
<line x1="61.207" y1="66.496" x2="5.0" y2="18.575" stroke="#8c8c8c" stroke-width="0.3" stroke-dasharray="1.2,0.8"/>
<line x1="46.459" y1="18.575" x2="5.0" y2="18.575" stroke="#8c8c8c" stroke-width="0.3" stroke-dasharray="1.2,0.8"/>
<line x1="61.207" y1="66.496" x2="46.459" y2="18.575" stroke="#8c8c8c" stroke-width="0.3" stroke-dasharray="1.2,0.8"/>
<line x1="45.23" y1="124.166" x2="5.0" y2="18.575" stroke="#141414" stroke-width="0.4"/>
<line x1="61.207" y1="66.496" x2="45.23" y2="124.166" stroke="#141414" stroke-width="0.4"/>
<line x1="5.0" y1="18.575" x2="11.219" y2="13.375" stroke="#141414" stroke-width="0.4"/>
<line x1="11.219" y1="13.375" x2="40.24" y2="13.375" stroke="#141414" stroke-width="0.4"/>
<line x1="40.24" y1="13.375" x2="46.459" y2="18.575" stroke="#141414" stroke-width="0.4"/>
<line x1="46.459" y1="18.575" x2="53.641" y2="24.233" stroke="#141414" stroke-width="0.4"/>
<line x1="53.641" y1="24.233" x2="63.965" y2="57.779" stroke="#141414" stroke-width="0.4"/>
<line x1="63.965" y1="57.779" x2="61.207" y2="66.496" stroke="#141414" stroke-width="0.4"/>
<circle cx="25.73" cy="15.975" r="2.29" fill="#ffe082" stroke="#464646" stroke-width="0.2"/>
<text x="25.73" y="17.06" font-size="3.11" text-anchor="middle" fill="#141414">6</text>
<circle cx="56.318" cy="41.771" r="2.29" fill="#ffe082" stroke="#464646" stroke-width="0.2"/>
<text x="56.318" y="42.86" font-size="3.11" text-anchor="middle" fill="#141414">15</text>
<circle cx="37.146" cy="69.746" r="4.60" fill="#eaf1fe" stroke="#2e78e6" stroke-width="0.3"/>
<text x="37.146" y="71.55" font-size="5.20" text-anchor="middle" fill="#14306e" font-weight="bold">22</text>
<polygon points="124.309,19.197 133.926,22.105 172.794,12.168 179.835,5.0" fill="rgb(216,216,216)"/>
<line x1="179.835" y1="5.0" x2="124.309" y2="19.197" stroke="#8c8c8c" stroke-width="0.3" stroke-dasharray="1.2,0.8"/>
<line x1="124.309" y1="19.197" x2="66.965" y2="5.0" stroke="#141414" stroke-width="0.4"/>
<line x1="66.965" y1="5.0" x2="179.835" y2="5.0" stroke="#141414" stroke-width="0.4"/>
<line x1="124.309" y1="19.197" x2="133.926" y2="22.105" stroke="#141414" stroke-width="0.4"/>
<line x1="133.926" y1="22.105" x2="172.794" y2="12.168" stroke="#141414" stroke-width="0.4"/>
<line x1="172.794" y1="12.168" x2="179.835" y2="5.0" stroke="#141414" stroke-width="0.4"/>
<circle cx="152.716" cy="14.617" r="2.29" fill="#ffe082" stroke="#464646" stroke-width="0.2"/>
<text x="152.716" y="15.70" font-size="3.11" text-anchor="middle" fill="#141414">9</text>
<circle cx="123.703" cy="9.732" r="3.79" fill="#eaf1fe" stroke="#2e78e6" stroke-width="0.3"/>
<text x="123.703" y="11.21" font-size="4.28" text-anchor="middle" fill="#14306e" font-weight="bold">23</text>
<polygon points="27.641,124.611 21.089,126.492 12.635,145.243 15.564,151.399" fill="rgb(216,216,216)"/>
<polygon points="27.641,124.611 35.45,124.861 55.17,143.612 55.813,151.399" fill="rgb(216,216,216)"/>
<polygon points="111.83,183.671 120.242,183.099 145.867,200.5 148.437,208.531" fill="rgb(216,216,216)"/>
<polygon points="57.596,243.569 60.839,250.757 86.02,262.211 93.569,259.932" fill="rgb(216,216,216)"/>
<polygon points="93.569,259.932 100.648,269.299 144.562,291.324 156.303,291.395" fill="rgb(216,216,216)"/>
<polygon points="161.967,227.759 166.297,237.765 162.333,282.311 156.303,291.395" fill="rgb(216,216,216)"/>
<line x1="92.071" y1="219.329" x2="15.564" y2="151.399" stroke="#8c8c8c" stroke-width="0.3" stroke-dasharray="1.2,0.8"/>
<line x1="55.813" y1="151.399" x2="92.071" y2="219.329" stroke="#8c8c8c" stroke-width="0.3" stroke-dasharray="1.2,0.8"/>
<line x1="92.071" y1="219.329" x2="111.83" y2="183.671" stroke="#8c8c8c" stroke-width="0.3" stroke-dasharray="1.2,0.8"/>
<line x1="92.071" y1="219.329" x2="93.569" y2="259.932" stroke="#8c8c8c" stroke-width="0.3" stroke-dasharray="1.2,0.8"/>
<line x1="15.564" y1="151.399" x2="55.813" y2="151.399" stroke="#8c8c8c" stroke-width="0.3" stroke-dasharray="1.2,0.8"/>
<line x1="57.596" y1="243.569" x2="92.071" y2="219.329" stroke="#8c8c8c" stroke-width="0.3" stroke-dasharray="1.2,0.8"/>
<line x1="93.569" y1="259.932" x2="161.967" y2="227.759" stroke="#8c8c8c" stroke-width="0.3" stroke-dasharray="1.2,0.8"/>
<line x1="15.564" y1="151.399" x2="27.641" y2="124.611" stroke="#8c8c8c" stroke-width="0.3" stroke-dasharray="1.2,0.8"/>
<line x1="55.813" y1="151.399" x2="27.641" y2="124.611" stroke="#8c8c8c" stroke-width="0.3" stroke-dasharray="1.2,0.8"/>
<line x1="148.437" y1="208.531" x2="111.83" y2="183.671" stroke="#8c8c8c" stroke-width="0.3" stroke-dasharray="1.2,0.8"/>
<line x1="93.569" y1="259.932" x2="57.596" y2="243.569" stroke="#8c8c8c" stroke-width="0.3" stroke-dasharray="1.2,0.8"/>
<line x1="156.303" y1="291.395" x2="93.569" y2="259.932" stroke="#8c8c8c" stroke-width="0.3" stroke-dasharray="1.2,0.8"/>
<line x1="156.303" y1="291.395" x2="161.967" y2="227.759" stroke="#8c8c8c" stroke-width="0.3" stroke-dasharray="1.2,0.8"/>
<line x1="57.596" y1="243.569" x2="15.564" y2="151.399" stroke="#141414" stroke-width="0.4"/>
<line x1="55.813" y1="151.399" x2="111.83" y2="183.671" stroke="#141414" stroke-width="0.4"/>
<line x1="148.437" y1="208.531" x2="92.071" y2="219.329" stroke="#141414" stroke-width="0.4"/>
<line x1="92.071" y1="219.329" x2="161.967" y2="227.759" stroke="#141414" stroke-width="0.4"/>
<line x1="27.641" y1="124.611" x2="21.089" y2="126.492" stroke="#141414" stroke-width="0.4"/>
<line x1="21.089" y1="126.492" x2="12.635" y2="145.243" stroke="#141414" stroke-width="0.4"/>
<line x1="12.635" y1="145.243" x2="15.564" y2="151.399" stroke="#141414" stroke-width="0.4"/>
<line x1="27.641" y1="124.611" x2="35.45" y2="124.861" stroke="#141414" stroke-width="0.4"/>
<line x1="35.45" y1="124.861" x2="55.17" y2="143.612" stroke="#141414" stroke-width="0.4"/>
<line x1="55.17" y1="143.612" x2="55.813" y2="151.399" stroke="#141414" stroke-width="0.4"/>
<line x1="111.83" y1="183.671" x2="120.242" y2="183.099" stroke="#141414" stroke-width="0.4"/>
<line x1="120.242" y1="183.099" x2="145.867" y2="200.5" stroke="#141414" stroke-width="0.4"/>
<line x1="145.867" y1="200.5" x2="148.437" y2="208.531" stroke="#141414" stroke-width="0.4"/>
<line x1="57.596" y1="243.569" x2="60.839" y2="250.757" stroke="#141414" stroke-width="0.4"/>
<line x1="60.839" y1="250.757" x2="86.02" y2="262.211" stroke="#141414" stroke-width="0.4"/>
<line x1="86.02" y1="262.211" x2="93.569" y2="259.932" stroke="#141414" stroke-width="0.4"/>
<line x1="93.569" y1="259.932" x2="100.648" y2="269.299" stroke="#141414" stroke-width="0.4"/>
<line x1="100.648" y1="269.299" x2="144.562" y2="291.324" stroke="#141414" stroke-width="0.4"/>
<line x1="144.562" y1="291.324" x2="156.303" y2="291.395" stroke="#141414" stroke-width="0.4"/>
<line x1="161.967" y1="227.759" x2="166.297" y2="237.765" stroke="#141414" stroke-width="0.4"/>
<line x1="166.297" y1="237.765" x2="162.333" y2="282.311" stroke="#141414" stroke-width="0.4"/>
<line x1="162.333" y1="282.311" x2="156.303" y2="291.395" stroke="#141414" stroke-width="0.4"/>
<circle cx="19.232" cy="136.936" r="2.29" fill="#ffe082" stroke="#464646" stroke-width="0.2"/>
<text x="19.232" y="138.02" font-size="3.11" text-anchor="middle" fill="#141414">1</text>
<circle cx="43.518" cy="136.12" r="2.29" fill="#ffe082" stroke="#464646" stroke-width="0.2"/>
<text x="43.518" y="137.21" font-size="3.11" text-anchor="middle" fill="#141414">2</text>
<circle cx="131.594" cy="193.95" r="2.29" fill="#ffe082" stroke="#464646" stroke-width="0.2"/>
<text x="131.594" y="195.04" font-size="3.11" text-anchor="middle" fill="#141414">28</text>
<circle cx="74.506" cy="254.117" r="2.29" fill="#ffe082" stroke="#464646" stroke-width="0.2"/>
<text x="74.506" y="255.20" font-size="3.11" text-anchor="middle" fill="#141414">32</text>
<circle cx="123.771" cy="277.988" r="2.29" fill="#ffe082" stroke="#464646" stroke-width="0.2"/>
<text x="123.771" y="279.07" font-size="3.11" text-anchor="middle" fill="#141414">38</text>
<circle cx="161.725" cy="259.808" r="2.29" fill="#ffe082" stroke="#464646" stroke-width="0.2"/>
<text x="161.725" y="260.89" font-size="3.11" text-anchor="middle" fill="#141414">40</text>
<circle cx="55.077" cy="204.765" r="4.60" fill="#eaf1fe" stroke="#2e78e6" stroke-width="0.3"/>
<text x="55.077" y="206.56" font-size="5.20" text-anchor="middle" fill="#14306e" font-weight="bold">24</text>
<text x="205.0" y="295.0" font-size="3.2" text-anchor="end" fill="#737373" font-family="sans-serif">12 / 13</text>
</svg>
