<svg xmlns="http://www.w3.org/2000/svg" xmlns:xlink="http://www.w3.org/1999/xlink" width="210.00mm" height="297.00mm" viewBox="0 0 210.00 297.00">
<rect x="0" y="0" width="210.00" height="297.00" fill="#ffffff" stroke="#cccccc" stroke-width="0.2"/>
<polygon points="5.0,63.591 15.273,68.893 63.452,69.37 73.827,64.273" fill="rgb(216,216,216)"/>
<polygon points="75.233,136.91 77.723,142.609 93.414,145.279 97.648,140.725" fill="rgb(216,216,216)"/>
<polygon points="75.233,136.91 73.281,129.199 85.868,104.087 93.214,101.036" fill="rgb(216,216,216)"/>
<polygon points="125.471,147.441 132.973,143.53 145.906,115.202 143.947,106.972" fill="rgb(216,216,216)"/>
<polygon points="143.947,106.972 148.585,98.475 146.018,60.459 140.28,52.662" fill="rgb(216,216,216)"/>
<polygon points="101.503,5.0 111.353,8.868 138.497,42.231 140.28,52.662" fill="rgb(216,216,216)"/>
<line x1="93.214" y1="101.036" x2="97.648" y2="140.725" stroke="#8c8c8c" stroke-width="0.3" stroke-dasharray="1.2,0.8"/>
<line x1="97.648" y1="140.725" x2="117.224" y2="106.972" stroke="#8c8c8c" stroke-width="0.3" stroke-dasharray="1.2,0.8"/>
<line x1="125.471" y1="147.441" x2="97.648" y2="140.725" stroke="#8c8c8c" stroke-width="0.3" stroke-dasharray="1.2,0.8"/>
<line x1="73.827" y1="64.273" x2="60.751" y2="44.529" stroke="#8c8c8c" stroke-width="0.3" stroke-dasharray="1.2,0.8"/>
<line x1="60.751" y1="44.529" x2="101.503" y2="5.0" stroke="#8c8c8c" stroke-width="0.3" stroke-dasharray="1.2,0.8"/>
<line x1="125.471" y1="147.441" x2="117.224" y2="106.972" stroke="#8c8c8c" stroke-width="0.3" stroke-dasharray="1.2,0.8"/>
<line x1="117.224" y1="106.972" x2="140.28" y2="52.663" stroke="#8c8c8c" stroke-width="0.3" stroke-dasharray="1.2,0.8"/>
<line x1="73.827" y1="64.273" x2="101.503" y2="5.0" stroke="#8c8c8c" stroke-width="0.3" stroke-dasharray="1.2,0.8"/>
<line x1="140.28" y1="52.663" x2="73.827" y2="64.273" stroke="#8c8c8c" stroke-width="0.3" stroke-dasharray="1.2,0.8"/>
<line x1="7.475" y1="17.337" x2="60.751" y2="44.529" stroke="#8c8c8c" stroke-width="0.3" stroke-dasharray="1.2,0.8"/>
<line x1="117.224" y1="106.972" x2="143.947" y2="106.972" stroke="#8c8c8c" stroke-width="0.3" stroke-dasharray="1.2,0.8"/>
<line x1="73.827" y1="64.273" x2="5.0" y2="63.591" stroke="#8c8c8c" stroke-width="0.3" stroke-dasharray="1.2,0.8"/>
<line x1="97.648" y1="140.725" x2="75.233" y2="136.91" stroke="#8c8c8c" stroke-width="0.3" stroke-dasharray="1.2,0.8"/>
<line x1="93.214" y1="101.036" x2="75.233" y2="136.91" stroke="#8c8c8c" stroke-width="0.3" stroke-dasharray="1.2,0.8"/>
<line x1="143.947" y1="106.972" x2="125.471" y2="147.441" stroke="#8c8c8c" stroke-width="0.3" stroke-dasharray="1.2,0.8"/>
<line x1="140.28" y1="52.662" x2="143.947" y2="106.972" stroke="#8c8c8c" stroke-width="0.3" stroke-dasharray="1.2,0.8"/>
<line x1="140.28" y1="52.662" x2="101.503" y2="5.0" stroke="#8c8c8c" stroke-width="0.3" stroke-dasharray="1.2,0.8"/>
<line x1="15.675" y1="31.194" x2="7.475" y2="17.337" stroke="#141414" stroke-width="0.4"/>
<line x1="7.475" y1="17.337" x2="101.503" y2="5.0" stroke="#141414" stroke-width="0.4"/>
<line x1="5.0" y1="63.592" x2="60.751" y2="44.529" stroke="#141414" stroke-width="0.4"/>
<line x1="106.688" y1="161.588" x2="97.648" y2="140.725" stroke="#141414" stroke-width="0.4"/>
<line x1="125.471" y1="147.441" x2="106.688" y2="161.588" stroke="#141414" stroke-width="0.4"/>
<line x1="60.751" y1="44.529" x2="15.675" y2="31.194" stroke="#141414" stroke-width="0.4"/>
<line x1="93.214" y1="101.036" x2="117.224" y2="106.972" stroke="#141414" stroke-width="0.4"/>
<line x1="117.224" y1="106.972" x2="73.827" y2="64.273" stroke="#141414" stroke-width="0.4"/>
<line x1="5.0" y1="63.591" x2="15.273" y2="68.893" stroke="#141414" stroke-width="0.4"/>
<line x1="15.273" y1="68.893" x2="63.452" y2="69.37" stroke="#141414" stroke-width="0.4"/>
<line x1="63.452" y1="69.37" x2="73.827" y2="64.273" stroke="#141414" stroke-width="0.4"/>
<line x1="75.233" y1="136.91" x2="77.723" y2="142.609" stroke="#141414" stroke-width="0.4"/>
<line x1="77.723" y1="142.609" x2="93.414" y2="145.279" stroke="#141414" stroke-width="0.4"/>
<line x1="93.414" y1="145.279" x2="97.648" y2="140.725" stroke="#141414" stroke-width="0.4"/>
<line x1="75.233" y1="136.91" x2="73.281" y2="129.199" stroke="#141414" stroke-width="0.4"/>
<line x1="73.281" y1="129.199" x2="85.868" y2="104.087" stroke="#141414" stroke-width="0.4"/>
<line x1="85.868" y1="104.087" x2="93.214" y2="101.036" stroke="#141414" stroke-width="0.4"/>
<line x1="125.471" y1="147.441" x2="132.973" y2="143.53" stroke="#141414" stroke-width="0.4"/>
<line x1="132.973" y1="143.53" x2="145.906" y2="115.202" stroke="#141414" stroke-width="0.4"/>
<line x1="145.906" y1="115.202" x2="143.947" y2="106.972" stroke="#141414" stroke-width="0.4"/>
<line x1="143.947" y1="106.972" x2="148.585" y2="98.475" stroke="#141414" stroke-width="0.4"/>
<line x1="148.585" y1="98.475" x2="146.018" y2="60.459" stroke="#141414" stroke-width="0.4"/>
<line x1="146.018" y1="60.459" x2="140.28" y2="52.662" stroke="#141414" stroke-width="0.4"/>
<line x1="101.503" y1="5.0" x2="111.353" y2="8.868" stroke="#141414" stroke-width="0.4"/>
<line x1="111.353" y1="8.868" x2="138.497" y2="42.231" stroke="#141414" stroke-width="0.4"/>
<line x1="138.497" y1="42.231" x2="140.28" y2="52.662" stroke="#141414" stroke-width="0.4"/>
<circle cx="39.388" cy="66.532" r="2.29" fill="#ffe082" stroke="#464646" stroke-width="0.2"/>
<text x="39.388" y="67.62" font-size="3.11" text-anchor="middle" fill="#141414">39</text>
<circle cx="86.005" cy="141.381" r="2.29" fill="#ffe082" stroke="#464646" stroke-width="0.2"/>
<text x="86.005" y="142.47" font-size="3.11" text-anchor="middle" fill="#141414">44</text>
<circle cx="81.899" cy="117.808" r="2.29" fill="#ffe082" stroke="#464646" stroke-width="0.2"/>
<text x="81.899" y="118.89" font-size="3.11" text-anchor="middle" fill="#141414">45</text>
<circle cx="137.074" cy="128.286" r="2.29" fill="#ffe082" stroke="#464646" stroke-width="0.2"/>
<text x="137.074" y="129.37" font-size="3.11" text-anchor="middle" fill="#141414">53</text>
<circle cx="144.708" cy="79.642" r="2.29" fill="#ffe082" stroke="#464646" stroke-width="0.2"/>
<text x="144.708" y="80.73" font-size="3.11" text-anchor="middle" fill="#141414">56</text>
<circle cx="122.908" cy="27.19" r="2.29" fill="#ffe082" stroke="#464646" stroke-width="0.2"/>
<text x="122.908" y="28.28" font-size="3.11" text-anchor="middle" fill="#141414">57</text>
<circle cx="76.793" cy="167.688" r="4.6" fill="#eaf1fe" stroke="#2e78e6" stroke-width="0.3"/>
<text x="76.793" y="169.488" font-size="5.2" text-anchor="middle" fill="#14306e" font-weight="bold">6</text>
</svg>
