<svg xmlns="http://www.w3.org/2000/svg" xmlns:xlink="http://www.w3.org/1999/xlink" width="210.00mm" height="297.00mm" viewBox="0 0 210.00 297.00">
<rect x="0" y="0" width="210.00" height="297.00" fill="#ffffff" stroke="#cccccc" stroke-width="0.2"/>
<polygon points="64.047,23.27 60.998,16.419 69.87,7.547 76.721,10.596" fill="rgb(216,216,216)"/>
<polygon points="21.477,65.84 18.428,72.691 27.3,81.564 34.151,78.515" fill="rgb(216,216,216)"/>
<polygon points="21.477,65.84 14.626,68.889 5.754,60.017 8.802,53.166" fill="rgb(216,216,216)"/>
<polygon points="76.721,35.945 83.572,38.993 92.444,30.121 89.396,23.27" fill="rgb(216,216,216)"/>
<polygon points="34.151,78.515 31.102,85.366 39.975,94.238 46.826,91.189" fill="rgb(216,216,216)"/>
<polygon points="89.396,23.27 92.444,16.419 83.572,7.547 76.721,10.596" fill="rgb(216,216,216)"/>
<polygon points="102.07,61.293 100.634,72.629 70.835,102.428 59.5,103.864" fill="rgb(216,216,216)"/>
<polygon points="64.047,23.27 60.998,16.419 69.87,7.547 76.721,10.596" fill="#99d9fa"/>
<line x1="21.477" y1="65.84" x2="64.047" y2="23.27" stroke="#8c8c8c" stroke-width="0.3" stroke-dasharray="1.2,0.8"/>
<line x1="76.721" y1="35.945" x2="64.047" y2="23.27" stroke="#8c8c8c" stroke-width="0.3" stroke-dasharray="1.2,0.8"/>
<line x1="76.721" y1="35.945" x2="34.151" y2="78.515" stroke="#8c8c8c" stroke-width="0.3" stroke-dasharray="1.2,0.8"/>
<line x1="89.396" y1="48.619" x2="46.825" y2="91.189" stroke="#8c8c8c" stroke-width="0.3" stroke-dasharray="1.2,0.8"/>
<line x1="59.5" y1="103.864" x2="46.825" y2="91.189" stroke="#8c8c8c" stroke-width="0.3" stroke-dasharray="1.2,0.8"/>
<line x1="76.721" y1="10.596" x2="64.047" y2="23.27" stroke="#8c8c8c" stroke-width="0.3" stroke-dasharray="1.2,0.8"/>
<line x1="34.151" y1="78.515" x2="21.477" y2="65.84" stroke="#8c8c8c" stroke-width="0.3" stroke-dasharray="1.2,0.8"/>
<line x1="8.802" y1="53.166" x2="21.477" y2="65.84" stroke="#8c8c8c" stroke-width="0.3" stroke-dasharray="1.2,0.8"/>
<line x1="89.396" y1="23.27" x2="76.721" y2="35.945" stroke="#8c8c8c" stroke-width="0.3" stroke-dasharray="1.2,0.8"/>
<line x1="46.826" y1="91.189" x2="34.151" y2="78.515" stroke="#8c8c8c" stroke-width="0.3" stroke-dasharray="1.2,0.8"/>
<line x1="76.721" y1="10.596" x2="89.396" y2="23.27" stroke="#8c8c8c" stroke-width="0.3" stroke-dasharray="1.2,0.8"/>
<line x1="59.5" y1="103.864" x2="102.07" y2="61.293" stroke="#8c8c8c" stroke-width="0.3" stroke-dasharray="1.2,0.8"/>
<line x1="51.373" y1="10.596" x2="64.047" y2="23.27" stroke="#141414" stroke-width="0.4"/>
<line x1="46.825" y1="116.538" x2="34.151" y2="103.864" stroke="#141414" stroke-width="0.4"/>
<line x1="59.5" y1="103.864" x2="46.825" y2="116.538" stroke="#141414" stroke-width="0.4"/>
<line x1="76.721" y1="35.945" x2="89.396" y2="48.619" stroke="#141414" stroke-width="0.4"/>
<line x1="34.151" y1="103.864" x2="46.825" y2="91.189" stroke="#141414" stroke-width="0.4"/>
<line x1="89.396" y1="48.619" x2="102.07" y2="61.293" stroke="#141414" stroke-width="0.4"/>
<line x1="8.802" y1="53.166" x2="51.373" y2="10.596" stroke="#141414" stroke-width="0.4"/>
<line x1="64.047" y1="23.27" x2="60.998" y2="16.419" stroke="#141414" stroke-width="0.4"/>
<line x1="60.998" y1="16.419" x2="69.87" y2="7.547" stroke="#141414" stroke-width="0.4"/>
<line x1="69.87" y1="7.547" x2="76.721" y2="10.596" stroke="#141414" stroke-width="0.4"/>
<line x1="21.477" y1="65.84" x2="18.428" y2="72.691" stroke="#141414" stroke-width="0.4"/>
<line x1="18.428" y1="72.691" x2="27.3" y2="81.564" stroke="#141414" stroke-width="0.4"/>
<line x1="27.3" y1="81.564" x2="34.151" y2="78.515" stroke="#141414" stroke-width="0.4"/>
<line x1="21.477" y1="65.84" x2="14.626" y2="68.889" stroke="#141414" stroke-width="0.4"/>
<line x1="14.626" y1="68.889" x2="5.754" y2="60.017" stroke="#141414" stroke-width="0.4"/>
<line x1="5.754" y1="60.017" x2="8.802" y2="53.166" stroke="#141414" stroke-width="0.4"/>
<line x1="76.721" y1="35.945" x2="83.572" y2="38.993" stroke="#141414" stroke-width="0.4"/>
<line x1="83.572" y1="38.993" x2="92.444" y2="30.121" stroke="#141414" stroke-width="0.4"/>
<line x1="92.444" y1="30.121" x2="89.396" y2="23.27" stroke="#141414" stroke-width="0.4"/>
<line x1="34.151" y1="78.515" x2="31.102" y2="85.366" stroke="#141414" stroke-width="0.4"/>
<line x1="31.102" y1="85.366" x2="39.975" y2="94.238" stroke="#141414" stroke-width="0.4"/>
<line x1="39.975" y1="94.238" x2="46.826" y2="91.189" stroke="#141414" stroke-width="0.4"/>
<line x1="89.396" y1="23.27" x2="92.444" y2="16.419" stroke="#141414" stroke-width="0.4"/>
<line x1="92.444" y1="16.419" x2="83.572" y2="7.547" stroke="#141414" stroke-width="0.4"/>
<line x1="83.572" y1="7.547" x2="76.721" y2="10.596" stroke="#141414" stroke-width="0.4"/>
<line x1="102.07" y1="61.293" x2="100.634" y2="72.629" stroke="#141414" stroke-width="0.4"/>
<line x1="100.634" y1="72.629" x2="70.835" y2="102.428" stroke="#141414" stroke-width="0.4"/>
<line x1="70.835" y1="102.428" x2="59.5" y2="103.864" stroke="#141414" stroke-width="0.4"/>
<circle cx="67.909" cy="14.458" r="2.09" fill="#99d9fa" stroke="#464646" stroke-width="0.2"/>
<text x="67.909" y="15.18" font-size="2.05" text-anchor="middle" fill="#141414">92</text>
<circle cx="25.339" cy="74.653" r="2.09" fill="#ffe082" stroke="#464646" stroke-width="0.2"/>
<text x="25.339" y="75.37" font-size="2.05" text-anchor="middle" fill="#141414">93</text>
<circle cx="12.665" cy="61.978" r="2.09" fill="#ffe082" stroke="#464646" stroke-width="0.2"/>
<text x="12.665" y="62.70" font-size="2.05" text-anchor="middle" fill="#141414">94</text>
<circle cx="85.534" cy="32.082" r="2.09" fill="#ffe082" stroke="#464646" stroke-width="0.2"/>
<text x="85.534" y="32.80" font-size="2.05" text-anchor="middle" fill="#141414">95</text>
<circle cx="38.013" cy="87.327" r="2.09" fill="#ffe082" stroke="#464646" stroke-width="0.2"/>
<text x="38.013" y="88.04" font-size="2.05" text-anchor="middle" fill="#141414">96</text>
<circle cx="85.534" cy="14.458" r="2.09" fill="#ffe082" stroke="#464646" stroke-width="0.2"/>
<text x="85.534" y="15.18" font-size="2.05" text-anchor="middle" fill="#141414">97</text>
<circle cx="83.26" cy="85.053" r="2.09" fill="#ffe082" stroke="#464646" stroke-width="0.2"/>
<text x="83.26" y="85.77" font-size="2.05" text-anchor="middle" fill="#141414">98</text>
<circle cx="44.116" cy="60.1" r="4.58" fill="#eaf1fe" stroke="#2e78e6" stroke-width="0.3"/>
<text x="44.116" y="61.89" font-size="5.18" text-anchor="middle" fill="#14306e" font-weight="bold">14</text>
<polygon points="155.014,81.046 158.817,88.046 176.561,88.046 180.363,81.046" fill="rgb(216,216,216)"/>
<polygon points="155.014,55.698 158.817,48.698 176.561,48.698 180.363,55.698" fill="rgb(216,216,216)"/>
<polygon points="180.363,81.046 187.363,77.244 187.363,59.5 180.363,55.698" fill="rgb(216,216,216)"/>
<polygon points="155.014,106.395 151.212,113.395 133.468,113.395 129.665,106.395" fill="rgb(216,216,216)"/>
<polygon points="129.665,81.046 122.665,77.244 122.665,59.5 129.665,55.698" fill="rgb(216,216,216)"/>
<polygon points="129.665,81.046 122.665,84.849 122.665,102.593 129.665,106.395" fill="rgb(216,216,216)"/>
<polygon points="129.665,55.698 122.665,51.895 122.665,34.151 129.665,30.349" fill="rgb(216,216,216)"/>
<polygon points="155.014,81.046 158.817,88.046 176.561,88.046 180.363,81.046" fill="#99d9fa"/>
<line x1="155.014" y1="81.046" x2="155.014" y2="55.698" stroke="#8c8c8c" stroke-width="0.3" stroke-dasharray="1.2,0.8"/>
<line x1="155.014" y1="81.046" x2="129.665" y2="81.046" stroke="#8c8c8c" stroke-width="0.3" stroke-dasharray="1.2,0.8"/>
<line x1="129.665" y1="55.698" x2="155.014" y2="55.698" stroke="#8c8c8c" stroke-width="0.3" stroke-dasharray="1.2,0.8"/>
<line x1="129.665" y1="30.349" x2="155.014" y2="30.349" stroke="#8c8c8c" stroke-width="0.3" stroke-dasharray="1.2,0.8"/>
<line x1="129.665" y1="30.349" x2="129.665" y2="5.0" stroke="#8c8c8c" stroke-width="0.3" stroke-dasharray="1.2,0.8"/>
<line x1="180.363" y1="81.046" x2="155.014" y2="81.046" stroke="#8c8c8c" stroke-width="0.3" stroke-dasharray="1.2,0.8"/>
<line x1="180.363" y1="55.698" x2="155.014" y2="55.698" stroke="#8c8c8c" stroke-width="0.3" stroke-dasharray="1.2,0.8"/>
<line x1="180.363" y1="55.698" x2="180.363" y2="81.046" stroke="#8c8c8c" stroke-width="0.3" stroke-dasharray="1.2,0.8"/>
<line x1="129.665" y1="106.395" x2="155.014" y2="106.395" stroke="#8c8c8c" stroke-width="0.3" stroke-dasharray="1.2,0.8"/>
<line x1="129.665" y1="55.698" x2="129.665" y2="81.046" stroke="#8c8c8c" stroke-width="0.3" stroke-dasharray="1.2,0.8"/>
<line x1="129.665" y1="106.395" x2="129.665" y2="81.046" stroke="#8c8c8c" stroke-width="0.3" stroke-dasharray="1.2,0.8"/>
<line x1="129.665" y1="30.349" x2="129.665" y2="55.698" stroke="#8c8c8c" stroke-width="0.3" stroke-dasharray="1.2,0.8"/>
<line x1="155.014" y1="81.046" x2="155.014" y2="106.395" stroke="#141414" stroke-width="0.4"/>
<line x1="155.014" y1="30.349" x2="155.014" y2="55.698" stroke="#141414" stroke-width="0.4"/>
<line x1="155.014" y1="5.0" x2="155.014" y2="30.349" stroke="#141414" stroke-width="0.4"/>
<line x1="129.665" y1="5.0" x2="155.014" y2="5.0" stroke="#141414" stroke-width="0.4"/>
<line x1="104.317" y1="30.349" x2="104.317" y2="5.0" stroke="#141414" stroke-width="0.4"/>
<line x1="104.317" y1="5.0" x2="129.665" y2="5.0" stroke="#141414" stroke-width="0.4"/>
<line x1="129.665" y1="30.349" x2="104.317" y2="30.349" stroke="#141414" stroke-width="0.4"/>
<line x1="155.014" y1="81.046" x2="158.817" y2="88.046" stroke="#141414" stroke-width="0.4"/>
<line x1="158.817" y1="88.046" x2="176.561" y2="88.046" stroke="#141414" stroke-width="0.4"/>
<line x1="176.561" y1="88.046" x2="180.363" y2="81.046" stroke="#141414" stroke-width="0.4"/>
<line x1="155.014" y1="55.698" x2="158.817" y2="48.698" stroke="#141414" stroke-width="0.4"/>
<line x1="158.817" y1="48.698" x2="176.561" y2="48.698" stroke="#141414" stroke-width="0.4"/>
<line x1="176.561" y1="48.698" x2="180.363" y2="55.698" stroke="#141414" stroke-width="0.4"/>
<line x1="180.363" y1="81.046" x2="187.363" y2="77.244" stroke="#141414" stroke-width="0.4"/>
<line x1="187.363" y1="77.244" x2="187.363" y2="59.5" stroke="#141414" stroke-width="0.4"/>
<line x1="187.363" y1="59.5" x2="180.363" y2="55.698" stroke="#141414" stroke-width="0.4"/>
<line x1="155.014" y1="106.395" x2="151.212" y2="113.395" stroke="#141414" stroke-width="0.4"/>
<line x1="151.212" y1="113.395" x2="133.468" y2="113.395" stroke="#141414" stroke-width="0.4"/>
<line x1="133.468" y1="113.395" x2="129.665" y2="106.395" stroke="#141414" stroke-width="0.4"/>
<line x1="129.665" y1="81.046" x2="122.665" y2="77.244" stroke="#141414" stroke-width="0.4"/>
<line x1="122.665" y1="77.244" x2="122.665" y2="59.5" stroke="#141414" stroke-width="0.4"/>
<line x1="122.665" y1="59.5" x2="129.665" y2="55.698" stroke="#141414" stroke-width="0.4"/>
<line x1="129.665" y1="81.046" x2="122.665" y2="84.849" stroke="#141414" stroke-width="0.4"/>
<line x1="122.665" y1="84.849" x2="122.665" y2="102.593" stroke="#141414" stroke-width="0.4"/>
<line x1="122.665" y1="102.593" x2="129.665" y2="106.395" stroke="#141414" stroke-width="0.4"/>
<line x1="129.665" y1="55.698" x2="122.665" y2="51.895" stroke="#141414" stroke-width="0.4"/>
<line x1="122.665" y1="51.895" x2="122.665" y2="34.151" stroke="#141414" stroke-width="0.4"/>
<line x1="122.665" y1="34.151" x2="129.665" y2="30.349" stroke="#141414" stroke-width="0.4"/>
<circle cx="167.689" cy="84.546" r="2.09" fill="#99d9fa" stroke="#464646" stroke-width="0.2"/>
<text x="167.689" y="85.26" font-size="2.05" text-anchor="middle" fill="#141414">106</text>
<circle cx="167.689" cy="52.198" r="2.09" fill="#ffe082" stroke="#464646" stroke-width="0.2"/>
<text x="167.689" y="52.92" font-size="2.05" text-anchor="middle" fill="#141414">107</text>
<circle cx="183.863" cy="68.372" r="2.09" fill="#ffe082" stroke="#464646" stroke-width="0.2"/>
<text x="183.863" y="69.09" font-size="2.05" text-anchor="middle" fill="#141414">108</text>
<circle cx="142.34" cy="109.895" r="2.09" fill="#ffe082" stroke="#464646" stroke-width="0.2"/>
<text x="142.34" y="110.61" font-size="2.05" text-anchor="middle" fill="#141414">109</text>
<circle cx="126.165" cy="68.372" r="2.09" fill="#ffe082" stroke="#464646" stroke-width="0.2"/>
<text x="126.165" y="69.09" font-size="2.05" text-anchor="middle" fill="#141414">110</text>
<circle cx="126.165" cy="93.721" r="2.09" fill="#ffe082" stroke="#464646" stroke-width="0.2"/>
<text x="126.165" y="94.44" font-size="2.05" text-anchor="middle" fill="#141414">111</text>
<circle cx="126.165" cy="43.023" r="2.09" fill="#ffe082" stroke="#464646" stroke-width="0.2"/>
<text x="126.165" y="43.74" font-size="2.05" text-anchor="middle" fill="#141414">112</text>
<circle cx="138.115" cy="97.946" r="4.60" fill="#eaf1fe" stroke="#2e78e6" stroke-width="0.3"/>
<text x="138.115" y="99.75" font-size="5.20" text-anchor="middle" fill="#14306e" font-weight="bold">16</text>
<polygon points="64.047,135.261 60.998,128.41 69.87,119.538 76.721,122.587" fill="rgb(216,216,216)"/>
<polygon points="21.477,177.832 18.428,184.682 27.3,193.555 34.151,190.506" fill="rgb(216,216,216)"/>
<polygon points="21.477,177.832 14.626,180.88 5.754,172.008 8.802,165.157" fill="rgb(216,216,216)"/>
<polygon points="76.721,147.936 83.572,150.984 92.444,142.112 89.396,135.261" fill="rgb(216,216,216)"/>
<polygon points="34.151,190.506 31.102,197.357 39.975,206.229 46.826,203.18" fill="rgb(216,216,216)"/>
<polygon points="89.396,135.261 92.444,128.41 83.572,119.538 76.721,122.587" fill="rgb(216,216,216)"/>
<polygon points="102.07,173.284 100.634,184.62 70.835,214.419 59.5,215.855" fill="rgb(216,216,216)"/>
<polygon points="64.047,135.261 60.998,128.41 69.87,119.538 76.721,122.587" fill="#99d9fa"/>
<line x1="21.477" y1="177.832" x2="64.047" y2="135.261" stroke="#8c8c8c" stroke-width="0.3" stroke-dasharray="1.2,0.8"/>
<line x1="76.721" y1="147.935" x2="64.047" y2="135.261" stroke="#8c8c8c" stroke-width="0.3" stroke-dasharray="1.2,0.8"/>
<line x1="76.721" y1="147.935" x2="34.151" y2="190.506" stroke="#8c8c8c" stroke-width="0.3" stroke-dasharray="1.2,0.8"/>
<line x1="89.396" y1="160.61" x2="46.825" y2="203.18" stroke="#8c8c8c" stroke-width="0.3" stroke-dasharray="1.2,0.8"/>
<line x1="59.5" y1="215.855" x2="46.825" y2="203.18" stroke="#8c8c8c" stroke-width="0.3" stroke-dasharray="1.2,0.8"/>
<line x1="76.721" y1="122.587" x2="64.047" y2="135.261" stroke="#8c8c8c" stroke-width="0.3" stroke-dasharray="1.2,0.8"/>
<line x1="34.151" y1="190.506" x2="21.477" y2="177.832" stroke="#8c8c8c" stroke-width="0.3" stroke-dasharray="1.2,0.8"/>
<line x1="8.802" y1="165.157" x2="21.477" y2="177.832" stroke="#8c8c8c" stroke-width="0.3" stroke-dasharray="1.2,0.8"/>
<line x1="89.396" y1="135.261" x2="76.721" y2="147.936" stroke="#8c8c8c" stroke-width="0.3" stroke-dasharray="1.2,0.8"/>
<line x1="46.826" y1="203.18" x2="34.151" y2="190.506" stroke="#8c8c8c" stroke-width="0.3" stroke-dasharray="1.2,0.8"/>
<line x1="76.721" y1="122.587" x2="89.396" y2="135.261" stroke="#8c8c8c" stroke-width="0.3" stroke-dasharray="1.2,0.8"/>
<line x1="59.5" y1="215.855" x2="102.07" y2="173.284" stroke="#8c8c8c" stroke-width="0.3" stroke-dasharray="1.2,0.8"/>
<line x1="51.373" y1="122.587" x2="64.047" y2="135.261" stroke="#141414" stroke-width="0.4"/>
<line x1="46.825" y1="228.529" x2="34.151" y2="215.855" stroke="#141414" stroke-width="0.4"/>
<line x1="59.5" y1="215.855" x2="46.825" y2="228.529" stroke="#141414" stroke-width="0.4"/>
<line x1="76.721" y1="147.935" x2="89.396" y2="160.61" stroke="#141414" stroke-width="0.4"/>
<line x1="34.151" y1="215.855" x2="46.825" y2="203.18" stroke="#141414" stroke-width="0.4"/>
<line x1="89.396" y1="160.61" x2="102.07" y2="173.284" stroke="#141414" stroke-width="0.4"/>
<line x1="8.802" y1="165.157" x2="51.373" y2="122.587" stroke="#141414" stroke-width="0.4"/>
<line x1="64.047" y1="135.261" x2="60.998" y2="128.41" stroke="#141414" stroke-width="0.4"/>
<line x1="60.998" y1="128.41" x2="69.87" y2="119.538" stroke="#141414" stroke-width="0.4"/>
<line x1="69.87" y1="119.538" x2="76.721" y2="122.587" stroke="#141414" stroke-width="0.4"/>
<line x1="21.477" y1="177.832" x2="18.428" y2="184.682" stroke="#141414" stroke-width="0.4"/>
<line x1="18.428" y1="184.682" x2="27.3" y2="193.555" stroke="#141414" stroke-width="0.4"/>
<line x1="27.3" y1="193.555" x2="34.151" y2="190.506" stroke="#141414" stroke-width="0.4"/>
<line x1="21.477" y1="177.832" x2="14.626" y2="180.88" stroke="#141414" stroke-width="0.4"/>
<line x1="14.626" y1="180.88" x2="5.754" y2="172.008" stroke="#141414" stroke-width="0.4"/>
<line x1="5.754" y1="172.008" x2="8.802" y2="165.157" stroke="#141414" stroke-width="0.4"/>
<line x1="76.721" y1="147.936" x2="83.572" y2="150.984" stroke="#141414" stroke-width="0.4"/>
<line x1="83.572" y1="150.984" x2="92.444" y2="142.112" stroke="#141414" stroke-width="0.4"/>
<line x1="92.444" y1="142.112" x2="89.396" y2="135.261" stroke="#141414" stroke-width="0.4"/>
<line x1="34.151" y1="190.506" x2="31.102" y2="197.357" stroke="#141414" stroke-width="0.4"/>
<line x1="31.102" y1="197.357" x2="39.975" y2="206.229" stroke="#141414" stroke-width="0.4"/>
<line x1="39.975" y1="206.229" x2="46.826" y2="203.18" stroke="#141414" stroke-width="0.4"/>
<line x1="89.396" y1="135.261" x2="92.444" y2="128.41" stroke="#141414" stroke-width="0.4"/>
<line x1="92.444" y1="128.41" x2="83.572" y2="119.538" stroke="#141414" stroke-width="0.4"/>
<line x1="83.572" y1="119.538" x2="76.721" y2="122.587" stroke="#141414" stroke-width="0.4"/>
<line x1="102.07" y1="173.284" x2="100.634" y2="184.62" stroke="#141414" stroke-width="0.4"/>
<line x1="100.634" y1="184.62" x2="70.835" y2="214.419" stroke="#141414" stroke-width="0.4"/>
<line x1="70.835" y1="214.419" x2="59.5" y2="215.855" stroke="#141414" stroke-width="0.4"/>
<circle cx="67.909" cy="126.449" r="2.09" fill="#99d9fa" stroke="#464646" stroke-width="0.2"/>
<text x="67.909" y="127.17" font-size="2.05" text-anchor="middle" fill="#141414">113</text>
<circle cx="25.339" cy="186.644" r="2.09" fill="#ffe082" stroke="#464646" stroke-width="0.2"/>
<text x="25.339" y="187.36" font-size="2.05" text-anchor="middle" fill="#141414">114</text>
<circle cx="12.665" cy="173.969" r="2.09" fill="#ffe082" stroke="#464646" stroke-width="0.2"/>
<text x="12.665" y="174.69" font-size="2.05" text-anchor="middle" fill="#141414">115</text>
<circle cx="85.534" cy="144.073" r="2.09" fill="#ffe082" stroke="#464646" stroke-width="0.2"/>
<text x="85.534" y="144.79" font-size="2.05" text-anchor="middle" fill="#141414">116</text>
<circle cx="38.013" cy="199.318" r="2.09" fill="#ffe082" stroke="#464646" stroke-width="0.2"/>
<text x="38.013" y="200.04" font-size="2.05" text-anchor="middle" fill="#141414">117</text>
<circle cx="85.534" cy="126.449" r="2.09" fill="#ffe082" stroke="#464646" stroke-width="0.2"/>
<text x="85.534" y="127.17" font-size="2.05" text-anchor="middle" fill="#141414">118</text>
<circle cx="83.26" cy="197.044" r="2.09" fill="#ffe082" stroke="#464646" stroke-width="0.2"/>
<text x="83.26" y="197.76" font-size="2.05" text-anchor="middle" fill="#141414">119</text>
<circle cx="44.116" cy="172.091" r="4.58" fill="#eaf1fe" stroke="#2e78e6" stroke-width="0.3"/>
<text x="44.116" y="173.88" font-size="5.18" text-anchor="middle" fill="#14306e" font-weight="bold">17</text>
<text x="205.0" y="295.0" font-size="3.2" text-anchor="end" fill="#737373" font-family="sans-serif">5 / 5</text>
<g pointer-events="none"><text x="105.0" y="83.2" text-anchor="middle" font-family="sans-serif" font-size="12.4" fill="#9aa0a6" fill-opacity="0.3" transform="rotate(-28 105.0 83.2)">papercraft.kr</text><text x="105.0" y="148.5" text-anchor="middle" font-family="sans-serif" font-size="12.4" fill="#9aa0a6" fill-opacity="0.3" transform="rotate(-28 105.0 148.5)">papercraft.kr</text><text x="105.0" y="213.8" text-anchor="middle" font-family="sans-serif" font-size="12.4" fill="#9aa0a6" fill-opacity="0.3" transform="rotate(-28 105.0 213.8)">papercraft.kr</text></g></svg>
