<svg xmlns="http://www.w3.org/2000/svg" xmlns:xlink="http://www.w3.org/1999/xlink" width="210.00mm" height="297.00mm" viewBox="0 0 210.00 297.00">
<rect x="0" y="0" width="210.00" height="297.00" fill="#ffffff" stroke="#cccccc" stroke-width="0.2"/>
<polygon points="94.478,56.348 87.767,63.348 56.45,63.348 49.739,56.348" fill="rgb(216,216,216)"/>
<polygon points="94.478,49.739 101.188,42.739 132.506,42.739 139.216,49.739" fill="rgb(216,216,216)"/>
<polygon points="94.478,49.739 87.767,42.739 56.45,42.739 49.739,49.739" fill="rgb(216,216,216)"/>
<polygon points="139.216,56.348 145.927,63.348 177.244,63.348 183.955,56.348" fill="rgb(216,216,216)"/>
<polygon points="139.216,49.739 145.927,42.739 177.244,42.739 183.955,49.739" fill="rgb(216,216,216)"/>
<polygon points="49.739,56.348 43.028,63.348 11.711,63.348 5.0,56.348" fill="rgb(216,216,216)"/>
<polygon points="183.955,56.348 187.355,55.357 187.355,50.73 183.955,49.739" fill="rgb(216,216,216)"/>
<polygon points="94.478,56.348 87.767,63.348 56.45,63.348 49.739,56.348" fill="#99d9fa"/>
<line x1="94.478" y1="56.348" x2="94.478" y2="49.739" stroke="#8c8c8c" stroke-width="0.3" stroke-dasharray="1.2,0.8"/>
<line x1="139.216" y1="56.348" x2="94.478" y2="56.348" stroke="#8c8c8c" stroke-width="0.3" stroke-dasharray="1.2,0.8"/>
<line x1="139.216" y1="49.739" x2="139.216" y2="56.348" stroke="#8c8c8c" stroke-width="0.3" stroke-dasharray="1.2,0.8"/>
<line x1="49.739" y1="56.348" x2="49.739" y2="49.739" stroke="#8c8c8c" stroke-width="0.3" stroke-dasharray="1.2,0.8"/>
<line x1="49.739" y1="49.739" x2="5.0" y2="49.739" stroke="#8c8c8c" stroke-width="0.3" stroke-dasharray="1.2,0.8"/>
<line x1="49.739" y1="56.348" x2="94.478" y2="56.348" stroke="#8c8c8c" stroke-width="0.3" stroke-dasharray="1.2,0.8"/>
<line x1="139.216" y1="49.739" x2="94.478" y2="49.739" stroke="#8c8c8c" stroke-width="0.3" stroke-dasharray="1.2,0.8"/>
<line x1="49.739" y1="49.739" x2="94.478" y2="49.739" stroke="#8c8c8c" stroke-width="0.3" stroke-dasharray="1.2,0.8"/>
<line x1="183.955" y1="56.348" x2="139.216" y2="56.348" stroke="#8c8c8c" stroke-width="0.3" stroke-dasharray="1.2,0.8"/>
<line x1="183.955" y1="49.739" x2="139.216" y2="49.739" stroke="#8c8c8c" stroke-width="0.3" stroke-dasharray="1.2,0.8"/>
<line x1="5.0" y1="56.348" x2="49.739" y2="56.348" stroke="#8c8c8c" stroke-width="0.3" stroke-dasharray="1.2,0.8"/>
<line x1="183.955" y1="49.739" x2="183.955" y2="56.348" stroke="#8c8c8c" stroke-width="0.3" stroke-dasharray="1.2,0.8"/>
<line x1="94.478" y1="101.087" x2="94.478" y2="56.348" stroke="#141414" stroke-width="0.4"/>
<line x1="5.0" y1="5.0" x2="49.739" y2="5.0" stroke="#141414" stroke-width="0.4"/>
<line x1="49.739" y1="5.0" x2="49.739" y2="49.739" stroke="#141414" stroke-width="0.4"/>
<line x1="139.216" y1="56.348" x2="139.216" y2="101.087" stroke="#141414" stroke-width="0.4"/>
<line x1="5.0" y1="49.739" x2="5.0" y2="5.0" stroke="#141414" stroke-width="0.4"/>
<line x1="139.216" y1="101.087" x2="94.478" y2="101.087" stroke="#141414" stroke-width="0.4"/>
<line x1="5.0" y1="56.348" x2="5.0" y2="49.739" stroke="#141414" stroke-width="0.4"/>
<line x1="94.478" y1="56.348" x2="87.767" y2="63.348" stroke="#141414" stroke-width="0.4"/>
<line x1="87.767" y1="63.348" x2="56.45" y2="63.348" stroke="#141414" stroke-width="0.4"/>
<line x1="56.45" y1="63.348" x2="49.739" y2="56.348" stroke="#141414" stroke-width="0.4"/>
<line x1="94.478" y1="49.739" x2="101.188" y2="42.739" stroke="#141414" stroke-width="0.4"/>
<line x1="101.188" y1="42.739" x2="132.506" y2="42.739" stroke="#141414" stroke-width="0.4"/>
<line x1="132.506" y1="42.739" x2="139.216" y2="49.739" stroke="#141414" stroke-width="0.4"/>
<line x1="94.478" y1="49.739" x2="87.767" y2="42.739" stroke="#141414" stroke-width="0.4"/>
<line x1="87.767" y1="42.739" x2="56.45" y2="42.739" stroke="#141414" stroke-width="0.4"/>
<line x1="56.45" y1="42.739" x2="49.739" y2="49.739" stroke="#141414" stroke-width="0.4"/>
<line x1="139.216" y1="56.348" x2="145.927" y2="63.348" stroke="#141414" stroke-width="0.4"/>
<line x1="145.927" y1="63.348" x2="177.244" y2="63.348" stroke="#141414" stroke-width="0.4"/>
<line x1="177.244" y1="63.348" x2="183.955" y2="56.348" stroke="#141414" stroke-width="0.4"/>
<line x1="139.216" y1="49.739" x2="145.927" y2="42.739" stroke="#141414" stroke-width="0.4"/>
<line x1="145.927" y1="42.739" x2="177.244" y2="42.739" stroke="#141414" stroke-width="0.4"/>
<line x1="177.244" y1="42.739" x2="183.955" y2="49.739" stroke="#141414" stroke-width="0.4"/>
<line x1="49.739" y1="56.348" x2="43.028" y2="63.348" stroke="#141414" stroke-width="0.4"/>
<line x1="43.028" y1="63.348" x2="11.711" y2="63.348" stroke="#141414" stroke-width="0.4"/>
<line x1="11.711" y1="63.348" x2="5.0" y2="56.348" stroke="#141414" stroke-width="0.4"/>
<line x1="183.955" y1="56.348" x2="187.355" y2="55.357" stroke="#141414" stroke-width="0.4"/>
<line x1="187.355" y1="55.357" x2="187.355" y2="50.73" stroke="#141414" stroke-width="0.4"/>
<line x1="187.355" y1="50.73" x2="183.955" y2="49.739" stroke="#141414" stroke-width="0.4"/>
<circle cx="72.108" cy="59.848" r="1.50" fill="#99d9fa" stroke="#464646" stroke-width="0.2"/>
<text x="72.108" y="60.56" font-size="2.03" text-anchor="middle" fill="#141414">47</text>
<circle cx="116.847" cy="46.239" r="1.50" fill="#ffe082" stroke="#464646" stroke-width="0.2"/>
<text x="116.847" y="46.95" font-size="2.03" text-anchor="middle" fill="#141414">48</text>
<circle cx="72.108" cy="46.239" r="1.50" fill="#ffe082" stroke="#464646" stroke-width="0.2"/>
<text x="72.108" y="46.95" font-size="2.03" text-anchor="middle" fill="#141414">49</text>
<circle cx="161.586" cy="59.848" r="1.50" fill="#ffe082" stroke="#464646" stroke-width="0.2"/>
<text x="161.586" y="60.56" font-size="2.03" text-anchor="middle" fill="#141414">50</text>
<circle cx="161.586" cy="46.239" r="1.50" fill="#ffe082" stroke="#464646" stroke-width="0.2"/>
<text x="161.586" y="46.95" font-size="2.03" text-anchor="middle" fill="#141414">51</text>
<circle cx="27.369" cy="59.848" r="1.50" fill="#ffe082" stroke="#464646" stroke-width="0.2"/>
<text x="27.369" y="60.56" font-size="2.03" text-anchor="middle" fill="#141414">52</text>
<circle cx="185.655" cy="53.043" r="1.50" fill="#ffe082" stroke="#464646" stroke-width="0.2"/>
<text x="185.655" y="53.75" font-size="2.03" text-anchor="middle" fill="#141414">53</text>
<circle cx="96.178" cy="107.187" r="4.6" fill="#eaf1fe" stroke="#2e78e6" stroke-width="0.3"/>
<text x="96.178" y="108.987" font-size="5.2" text-anchor="middle" fill="#14306e" font-weight="bold">7</text>
<polygon points="81.026,124.596 78.135,117.587 87.744,107.978 94.752,110.869" fill="rgb(216,216,216)"/>
<polygon points="10.327,205.208 8.993,207.305 12.043,210.355 14.14,209.021" fill="rgb(216,216,216)"/>
<polygon points="10.327,205.208 8.422,206.804 5.0,204.178 6.049,201.925" fill="rgb(216,216,216)"/>
<polygon points="94.752,138.322 101.761,141.213 111.37,131.604 108.479,124.596" fill="rgb(216,216,216)"/>
<polygon points="14.14,209.021 12.543,210.926 17.095,212.871 17.423,213.299" fill="rgb(216,216,216)"/>
<polygon points="108.479,124.596 111.37,117.587 101.761,107.978 94.752,110.869" fill="rgb(216,216,216)"/>
<polygon points="116.279,170.533 104.952,183.926 37.64,217.131 20.12,217.968" fill="rgb(216,216,216)"/>
<polygon points="81.026,124.596 78.135,117.587 87.744,107.978 94.752,110.869" fill="#99d9fa"/>
<line x1="10.327" y1="205.208" x2="81.026" y2="124.596" stroke="#8c8c8c" stroke-width="0.3" stroke-dasharray="1.2,0.8"/>
<line x1="94.752" y1="138.322" x2="81.026" y2="124.596" stroke="#8c8c8c" stroke-width="0.3" stroke-dasharray="1.2,0.8"/>
<line x1="94.752" y1="138.322" x2="14.14" y2="209.021" stroke="#8c8c8c" stroke-width="0.3" stroke-dasharray="1.2,0.8"/>
<line x1="106.571" y1="153.722" x2="17.423" y2="213.299" stroke="#8c8c8c" stroke-width="0.3" stroke-dasharray="1.2,0.8"/>
<line x1="20.12" y1="217.968" x2="17.423" y2="213.299" stroke="#8c8c8c" stroke-width="0.3" stroke-dasharray="1.2,0.8"/>
<line x1="94.752" y1="110.869" x2="81.026" y2="124.596" stroke="#8c8c8c" stroke-width="0.3" stroke-dasharray="1.2,0.8"/>
<line x1="14.14" y1="209.021" x2="10.327" y2="205.208" stroke="#8c8c8c" stroke-width="0.3" stroke-dasharray="1.2,0.8"/>
<line x1="6.049" y1="201.925" x2="10.327" y2="205.208" stroke="#8c8c8c" stroke-width="0.3" stroke-dasharray="1.2,0.8"/>
<line x1="108.479" y1="124.596" x2="94.752" y2="138.322" stroke="#8c8c8c" stroke-width="0.3" stroke-dasharray="1.2,0.8"/>
<line x1="17.423" y1="213.299" x2="14.14" y2="209.021" stroke="#8c8c8c" stroke-width="0.3" stroke-dasharray="1.2,0.8"/>
<line x1="94.752" y1="110.869" x2="108.479" y2="124.596" stroke="#8c8c8c" stroke-width="0.3" stroke-dasharray="1.2,0.8"/>
<line x1="20.12" y1="217.968" x2="116.279" y2="170.533" stroke="#8c8c8c" stroke-width="0.3" stroke-dasharray="1.2,0.8"/>
<line x1="65.626" y1="112.777" x2="81.026" y2="124.596" stroke="#141414" stroke-width="0.4"/>
<line x1="15.45" y1="220.665" x2="12.754" y2="215.995" stroke="#141414" stroke-width="0.4"/>
<line x1="20.12" y1="217.968" x2="15.45" y2="220.665" stroke="#141414" stroke-width="0.4"/>
<line x1="94.752" y1="138.322" x2="106.571" y2="153.722" stroke="#141414" stroke-width="0.4"/>
<line x1="12.754" y1="215.995" x2="17.423" y2="213.299" stroke="#141414" stroke-width="0.4"/>
<line x1="106.571" y1="153.722" x2="116.279" y2="170.533" stroke="#141414" stroke-width="0.4"/>
<line x1="6.049" y1="201.925" x2="65.626" y2="112.777" stroke="#141414" stroke-width="0.4"/>
<line x1="81.026" y1="124.596" x2="78.135" y2="117.587" stroke="#141414" stroke-width="0.4"/>
<line x1="78.135" y1="117.587" x2="87.744" y2="107.978" stroke="#141414" stroke-width="0.4"/>
<line x1="87.744" y1="107.978" x2="94.752" y2="110.869" stroke="#141414" stroke-width="0.4"/>
<line x1="10.327" y1="205.208" x2="8.993" y2="207.305" stroke="#141414" stroke-width="0.4"/>
<line x1="8.993" y1="207.305" x2="12.043" y2="210.355" stroke="#141414" stroke-width="0.4"/>
<line x1="12.043" y1="210.355" x2="14.14" y2="209.021" stroke="#141414" stroke-width="0.4"/>
<line x1="10.327" y1="205.208" x2="8.422" y2="206.804" stroke="#141414" stroke-width="0.4"/>
<line x1="8.422" y1="206.804" x2="5.0" y2="204.178" stroke="#141414" stroke-width="0.4"/>
<line x1="5.0" y1="204.178" x2="6.049" y2="201.925" stroke="#141414" stroke-width="0.4"/>
<line x1="94.752" y1="138.322" x2="101.761" y2="141.213" stroke="#141414" stroke-width="0.4"/>
<line x1="101.761" y1="141.213" x2="111.37" y2="131.604" stroke="#141414" stroke-width="0.4"/>
<line x1="111.37" y1="131.604" x2="108.479" y2="124.596" stroke="#141414" stroke-width="0.4"/>
<line x1="14.14" y1="209.021" x2="12.543" y2="210.926" stroke="#141414" stroke-width="0.4"/>
<line x1="12.543" y1="210.926" x2="17.095" y2="212.871" stroke="#141414" stroke-width="0.4"/>
<line x1="17.095" y1="212.871" x2="17.423" y2="213.299" stroke="#141414" stroke-width="0.4"/>
<line x1="108.479" y1="124.596" x2="111.37" y2="117.587" stroke="#141414" stroke-width="0.4"/>
<line x1="111.37" y1="117.587" x2="101.761" y2="107.978" stroke="#141414" stroke-width="0.4"/>
<line x1="101.761" y1="107.978" x2="94.752" y2="110.869" stroke="#141414" stroke-width="0.4"/>
<line x1="116.279" y1="170.533" x2="104.952" y2="183.926" stroke="#141414" stroke-width="0.4"/>
<line x1="104.952" y1="183.926" x2="37.64" y2="217.131" stroke="#141414" stroke-width="0.4"/>
<line x1="37.64" y1="217.131" x2="20.12" y2="217.968" stroke="#141414" stroke-width="0.4"/>
<circle cx="85.414" cy="115.257" r="1.50" fill="#99d9fa" stroke="#464646" stroke-width="0.2"/>
<text x="85.414" y="115.97" font-size="2.03" text-anchor="middle" fill="#141414">54</text>
<circle cx="104.091" cy="133.934" r="1.50" fill="#ffe082" stroke="#464646" stroke-width="0.2"/>
<text x="104.091" y="134.64" font-size="2.03" text-anchor="middle" fill="#141414">57</text>
<circle cx="104.091" cy="115.257" r="1.50" fill="#ffe082" stroke="#464646" stroke-width="0.2"/>
<text x="104.091" y="115.97" font-size="2.03" text-anchor="middle" fill="#141414">59</text>
<circle cx="69.748" cy="197.39" r="1.50" fill="#ffe082" stroke="#464646" stroke-width="0.2"/>
<text x="69.748" y="198.10" font-size="2.03" text-anchor="middle" fill="#141414">60</text>
<circle cx="60.639" cy="97.987" r="4.6" fill="#eaf1fe" stroke="#2e78e6" stroke-width="0.3"/>
<text x="60.639" y="99.78699999999999" font-size="5.2" text-anchor="middle" fill="#14306e" font-weight="bold">8</text>
<text x="205.0" y="295.0" font-size="3.2" text-anchor="end" fill="#737373" font-family="sans-serif">4 / 4</text>
</svg>
