<svg xmlns="http://www.w3.org/2000/svg" xmlns:xlink="http://www.w3.org/1999/xlink" width="210.00mm" height="297.00mm" viewBox="0 0 210.00 297.00">
<rect x="0" y="0" width="210.00" height="297.00" fill="#ffffff" stroke="#cccccc" stroke-width="0.2"/>
<polygon points="61.322,148.485 51.557,152.595 35.392,186.004 38.229,196.212" fill="rgb(216,216,216)"/>
<polygon points="38.229,196.212 57.9,199.607 64.897,198.28 81.959,187.92" fill="rgb(216,216,216)"/>
<polygon points="15.266,122.217 29.559,108.282 36.078,105.414 56.008,104.295" fill="rgb(216,216,216)"/>
<polygon points="12.607,94.422 13.141,83.004 40.492,50.911 51.681,48.575" fill="rgb(216,216,216)"/>
<polygon points="193.268,188.574 196.105,198.782 179.941,232.19 170.176,236.3" fill="rgb(216,216,216)"/>
<polygon points="193.268,188.574 173.597,185.179 166.601,186.505 149.538,196.865" fill="rgb(216,216,216)"/>
<polygon points="147.392,40.74 133.099,54.675 126.58,57.543 106.65,58.662" fill="rgb(216,216,216)"/>
<polygon points="171.216,114.382 153.144,107.382 129.049,107.382 110.977,114.382" fill="rgb(216,216,216)"/>
<polygon points="171.216,114.382 160.282,130.383 140.42,144.024 121.56,148.485" fill="rgb(216,216,216)"/>
<polygon points="101.336,14.472 89.925,13.817 55.166,37.689 51.681,48.575" fill="rgb(216,216,216)"/>
<polygon points="170.176,236.3 152.104,243.3 128.009,243.3 109.937,236.3" fill="rgb(216,216,216)"/>
<line x1="81.959" y1="187.92" x2="61.322" y2="148.485" stroke="#8c8c8c" stroke-width="0.3" stroke-dasharray="1.2,0.8"/>
<line x1="56.008" y1="104.295" x2="61.322" y2="148.485" stroke="#8c8c8c" stroke-width="0.3" stroke-dasharray="1.2,0.8"/>
<line x1="110.977" y1="114.382" x2="61.322" y2="148.485" stroke="#8c8c8c" stroke-width="0.3" stroke-dasharray="1.2,0.8"/>
<line x1="61.322" y1="148.485" x2="121.56" y2="148.485" stroke="#8c8c8c" stroke-width="0.3" stroke-dasharray="1.2,0.8"/>
<line x1="109.937" y1="236.3" x2="51.773" y2="220.629" stroke="#8c8c8c" stroke-width="0.3" stroke-dasharray="1.2,0.8"/>
<line x1="149.538" y1="196.865" x2="170.176" y2="236.3" stroke="#8c8c8c" stroke-width="0.3" stroke-dasharray="1.2,0.8"/>
<line x1="106.65" y1="58.662" x2="101.336" y2="14.472" stroke="#8c8c8c" stroke-width="0.3" stroke-dasharray="1.2,0.8"/>
<line x1="149.538" y1="196.865" x2="81.959" y2="187.92" stroke="#8c8c8c" stroke-width="0.3" stroke-dasharray="1.2,0.8"/>
<line x1="109.937" y1="236.3" x2="149.538" y2="196.865" stroke="#8c8c8c" stroke-width="0.3" stroke-dasharray="1.2,0.8"/>
<line x1="121.56" y1="148.485" x2="149.538" y2="196.865" stroke="#8c8c8c" stroke-width="0.3" stroke-dasharray="1.2,0.8"/>
<line x1="81.959" y1="187.92" x2="109.937" y2="236.3" stroke="#8c8c8c" stroke-width="0.3" stroke-dasharray="1.2,0.8"/>
<line x1="121.56" y1="148.485" x2="81.959" y2="187.92" stroke="#8c8c8c" stroke-width="0.3" stroke-dasharray="1.2,0.8"/>
<line x1="56.008" y1="104.295" x2="106.65" y2="58.662" stroke="#8c8c8c" stroke-width="0.3" stroke-dasharray="1.2,0.8"/>
<line x1="106.65" y1="58.662" x2="51.681" y2="48.575" stroke="#8c8c8c" stroke-width="0.3" stroke-dasharray="1.2,0.8"/>
<line x1="106.65" y1="58.662" x2="110.977" y2="114.382" stroke="#8c8c8c" stroke-width="0.3" stroke-dasharray="1.2,0.8"/>
<line x1="51.681" y1="48.575" x2="56.008" y2="104.295" stroke="#8c8c8c" stroke-width="0.3" stroke-dasharray="1.2,0.8"/>
<line x1="56.008" y1="104.295" x2="110.977" y2="114.382" stroke="#8c8c8c" stroke-width="0.3" stroke-dasharray="1.2,0.8"/>
<line x1="90.846" y1="266.476" x2="109.937" y2="236.3" stroke="#8c8c8c" stroke-width="0.3" stroke-dasharray="1.2,0.8"/>
<line x1="110.977" y1="114.382" x2="121.56" y2="148.485" stroke="#8c8c8c" stroke-width="0.3" stroke-dasharray="1.2,0.8"/>
<line x1="38.229" y1="196.212" x2="61.322" y2="148.485" stroke="#8c8c8c" stroke-width="0.3" stroke-dasharray="1.2,0.8"/>
<line x1="81.959" y1="187.92" x2="38.229" y2="196.212" stroke="#8c8c8c" stroke-width="0.3" stroke-dasharray="1.2,0.8"/>
<line x1="56.008" y1="104.295" x2="15.266" y2="122.217" stroke="#8c8c8c" stroke-width="0.3" stroke-dasharray="1.2,0.8"/>
<line x1="51.681" y1="48.575" x2="12.607" y2="94.422" stroke="#8c8c8c" stroke-width="0.3" stroke-dasharray="1.2,0.8"/>
<line x1="170.176" y1="236.3" x2="193.268" y2="188.574" stroke="#8c8c8c" stroke-width="0.3" stroke-dasharray="1.2,0.8"/>
<line x1="149.538" y1="196.865" x2="193.268" y2="188.574" stroke="#8c8c8c" stroke-width="0.3" stroke-dasharray="1.2,0.8"/>
<line x1="106.65" y1="58.662" x2="147.392" y2="40.74" stroke="#8c8c8c" stroke-width="0.3" stroke-dasharray="1.2,0.8"/>
<line x1="110.977" y1="114.382" x2="171.216" y2="114.382" stroke="#8c8c8c" stroke-width="0.3" stroke-dasharray="1.2,0.8"/>
<line x1="121.56" y1="148.485" x2="171.216" y2="114.382" stroke="#8c8c8c" stroke-width="0.3" stroke-dasharray="1.2,0.8"/>
<line x1="51.681" y1="48.575" x2="101.336" y2="14.472" stroke="#8c8c8c" stroke-width="0.3" stroke-dasharray="1.2,0.8"/>
<line x1="109.937" y1="236.3" x2="170.176" y2="236.3" stroke="#8c8c8c" stroke-width="0.3" stroke-dasharray="1.2,0.8"/>
<line x1="61.322" y1="148.485" x2="15.266" y2="122.217" stroke="#141414" stroke-width="0.4"/>
<line x1="51.773" y1="220.629" x2="81.959" y2="187.92" stroke="#141414" stroke-width="0.4"/>
<line x1="56.008" y1="104.295" x2="12.607" y2="94.422" stroke="#141414" stroke-width="0.4"/>
<line x1="90.846" y1="266.476" x2="51.773" y2="220.629" stroke="#141414" stroke-width="0.4"/>
<line x1="101.336" y1="14.472" x2="147.392" y2="40.74" stroke="#141414" stroke-width="0.4"/>
<line x1="179.724" y1="164.157" x2="149.538" y2="196.865" stroke="#141414" stroke-width="0.4"/>
<line x1="106.65" y1="58.662" x2="150.05" y2="68.535" stroke="#141414" stroke-width="0.4"/>
<line x1="150.05" y1="68.535" x2="110.977" y2="114.382" stroke="#141414" stroke-width="0.4"/>
<line x1="121.56" y1="148.485" x2="179.724" y2="164.157" stroke="#141414" stroke-width="0.4"/>
<line x1="149.01" y1="282.148" x2="90.846" y2="266.476" stroke="#141414" stroke-width="0.4"/>
<line x1="109.937" y1="236.3" x2="149.01" y2="282.148" stroke="#141414" stroke-width="0.4"/>
<line x1="61.322" y1="148.485" x2="51.557" y2="152.595" stroke="#141414" stroke-width="0.4"/>
<line x1="51.557" y1="152.595" x2="35.392" y2="186.004" stroke="#141414" stroke-width="0.4"/>
<line x1="35.392" y1="186.004" x2="38.229" y2="196.212" stroke="#141414" stroke-width="0.4"/>
<line x1="38.229" y1="196.212" x2="57.9" y2="199.607" stroke="#141414" stroke-width="0.4"/>
<line x1="57.9" y1="199.607" x2="64.897" y2="198.28" stroke="#141414" stroke-width="0.4"/>
<line x1="64.897" y1="198.28" x2="81.959" y2="187.92" stroke="#141414" stroke-width="0.4"/>
<line x1="15.266" y1="122.217" x2="29.559" y2="108.282" stroke="#141414" stroke-width="0.4"/>
<line x1="29.559" y1="108.282" x2="36.078" y2="105.414" stroke="#141414" stroke-width="0.4"/>
<line x1="36.078" y1="105.414" x2="56.008" y2="104.295" stroke="#141414" stroke-width="0.4"/>
<line x1="12.607" y1="94.422" x2="13.141" y2="83.004" stroke="#141414" stroke-width="0.4"/>
<line x1="13.141" y1="83.004" x2="40.492" y2="50.911" stroke="#141414" stroke-width="0.4"/>
<line x1="40.492" y1="50.911" x2="51.681" y2="48.575" stroke="#141414" stroke-width="0.4"/>
<line x1="193.268" y1="188.574" x2="196.105" y2="198.782" stroke="#141414" stroke-width="0.4"/>
<line x1="196.105" y1="198.782" x2="179.941" y2="232.19" stroke="#141414" stroke-width="0.4"/>
<line x1="179.941" y1="232.19" x2="170.176" y2="236.3" stroke="#141414" stroke-width="0.4"/>
<line x1="193.268" y1="188.574" x2="173.597" y2="185.179" stroke="#141414" stroke-width="0.4"/>
<line x1="173.597" y1="185.179" x2="166.601" y2="186.505" stroke="#141414" stroke-width="0.4"/>
<line x1="166.601" y1="186.505" x2="149.538" y2="196.865" stroke="#141414" stroke-width="0.4"/>
<line x1="147.392" y1="40.74" x2="133.099" y2="54.675" stroke="#141414" stroke-width="0.4"/>
<line x1="133.099" y1="54.675" x2="126.58" y2="57.543" stroke="#141414" stroke-width="0.4"/>
<line x1="126.58" y1="57.543" x2="106.65" y2="58.662" stroke="#141414" stroke-width="0.4"/>
<line x1="171.216" y1="114.382" x2="153.144" y2="107.382" stroke="#141414" stroke-width="0.4"/>
<line x1="153.144" y1="107.382" x2="129.049" y2="107.382" stroke="#141414" stroke-width="0.4"/>
<line x1="129.049" y1="107.382" x2="110.977" y2="114.382" stroke="#141414" stroke-width="0.4"/>
<line x1="171.216" y1="114.382" x2="160.282" y2="130.383" stroke="#141414" stroke-width="0.4"/>
<line x1="160.282" y1="130.383" x2="140.42" y2="144.024" stroke="#141414" stroke-width="0.4"/>
<line x1="140.42" y1="144.024" x2="121.56" y2="148.485" stroke="#141414" stroke-width="0.4"/>
<line x1="101.336" y1="14.472" x2="89.925" y2="13.817" stroke="#141414" stroke-width="0.4"/>
<line x1="89.925" y1="13.817" x2="55.166" y2="37.689" stroke="#141414" stroke-width="0.4"/>
<line x1="55.166" y1="37.689" x2="51.681" y2="48.575" stroke="#141414" stroke-width="0.4"/>
<line x1="170.176" y1="236.3" x2="152.104" y2="243.3" stroke="#141414" stroke-width="0.4"/>
<line x1="152.104" y1="243.3" x2="128.009" y2="243.3" stroke="#141414" stroke-width="0.4"/>
<line x1="128.009" y1="243.3" x2="109.937" y2="236.3" stroke="#141414" stroke-width="0.4"/>
<circle cx="46.625" cy="170.824" r="2.94" fill="#ffe082" stroke="#464646" stroke-width="0.2"/>
<text x="46.625" y="171.83" font-size="2.88" text-anchor="middle" fill="#141414">1</text>
<circle cx="60.746" cy="195.505" r="2.94" fill="#ffe082" stroke="#464646" stroke-width="0.2"/>
<text x="60.746" y="196.51" font-size="2.88" text-anchor="middle" fill="#141414">2</text>
<circle cx="34.228" cy="110.052" r="2.94" fill="#ffe082" stroke="#464646" stroke-width="0.2"/>
<text x="34.228" y="111.06" font-size="2.88" text-anchor="middle" fill="#141414">3</text>
<circle cx="29.48" cy="69.228" r="2.94" fill="#ffe082" stroke="#464646" stroke-width="0.2"/>
<text x="29.48" y="70.24" font-size="2.88" text-anchor="middle" fill="#141414">4</text>
<circle cx="184.872" cy="213.961" r="2.94" fill="#ffe082" stroke="#464646" stroke-width="0.2"/>
<text x="184.872" y="214.97" font-size="2.88" text-anchor="middle" fill="#141414">5</text>
<circle cx="170.751" cy="189.281" r="2.94" fill="#ffe082" stroke="#464646" stroke-width="0.2"/>
<text x="170.751" y="190.29" font-size="2.88" text-anchor="middle" fill="#141414">6</text>
<circle cx="128.43" cy="52.905" r="2.94" fill="#ffe082" stroke="#464646" stroke-width="0.2"/>
<text x="128.43" y="53.91" font-size="2.88" text-anchor="middle" fill="#141414">7</text>
<circle cx="141.096" cy="110.882" r="2.94" fill="#ffe082" stroke="#464646" stroke-width="0.2"/>
<text x="141.096" y="111.89" font-size="2.88" text-anchor="middle" fill="#141414">8</text>
<circle cx="148.369" cy="134.319" r="2.94" fill="#ffe082" stroke="#464646" stroke-width="0.2"/>
<text x="148.369" y="135.33" font-size="2.88" text-anchor="middle" fill="#141414">9</text>
<circle cx="74.527" cy="28.638" r="2.94" fill="#ffe082" stroke="#464646" stroke-width="0.2"/>
<text x="74.527" y="29.65" font-size="2.88" text-anchor="middle" fill="#141414">10</text>
<circle cx="140.056" cy="239.8" r="2.94" fill="#ffe082" stroke="#464646" stroke-width="0.2"/>
<text x="140.056" y="240.81" font-size="2.88" text-anchor="middle" fill="#141414">11</text>
<circle cx="96.749" cy="279.431" r="4.6" fill="#eaf1fe" stroke="#2e78e6" stroke-width="0.3"/>
<text x="96.749" y="281.231" font-size="5.2" text-anchor="middle" fill="#14306e" font-weight="bold">1</text>
</svg>
