<svg xmlns="http://www.w3.org/2000/svg" xmlns:xlink="http://www.w3.org/1999/xlink" width="210.00mm" height="297.00mm" viewBox="0 0 210.00 297.00">
<rect x="0" y="0" width="210.00" height="297.00" fill="#ffffff" stroke="#cccccc" stroke-width="0.2"/>
<polygon points="81.638,122.146 71.625,124.777 52.375,154.723 54.139,164.925" fill="rgb(216,216,216)"/>
<polygon points="32.233,110.086 23.762,106.989 15.113,81.893 19.877,74.234" fill="rgb(216,216,216)"/>
<polygon points="152.057,141.687 159.282,149.103 160.347,184.686 153.579,192.521" fill="rgb(216,216,216)"/>
<polygon points="152.057,141.687 157.291,134.341 150.227,108.754 141.966,105.134" fill="rgb(216,216,216)"/>
<polygon points="85.294,21.574 78.571,15.562 52.361,19.76 47.851,27.571" fill="rgb(216,216,216)"/>
<polygon points="127.082,167.874 118.114,186.514 117.35,193.889 122.308,213.971" fill="rgb(216,216,216)"/>
<polygon points="89.547,157.458 87.627,178.053 84.481,184.768 69.883,199.423" fill="rgb(216,216,216)"/>
<polygon points="83.07,57.693 63.729,50.361 58.093,45.542 47.851,27.571" fill="rgb(216,216,216)"/>
<polygon points="63.042,91.103 47.46,77.498 40.554,74.799 19.877,74.234" fill="rgb(216,216,216)"/>
<polygon points="145.692,229.612 138.293,233.084 121.924,222.136 122.308,213.971" fill="rgb(216,216,216)"/>
<polygon points="109.123,96.02 118.754,101.261 122.929,111.711 119.559,122.146" fill="rgb(216,216,216)"/>
<line x1="89.547" y1="157.458" x2="81.638" y2="122.146" stroke="#8c8c8c" stroke-width="0.3" stroke-dasharray="1.2,0.8"/>
<line x1="63.041" y1="91.103" x2="81.638" y2="122.146" stroke="#8c8c8c" stroke-width="0.3" stroke-dasharray="1.2,0.8"/>
<line x1="109.123" y1="96.02" x2="81.638" y2="122.146" stroke="#8c8c8c" stroke-width="0.3" stroke-dasharray="1.2,0.8"/>
<line x1="81.638" y1="122.146" x2="119.559" y2="122.146" stroke="#8c8c8c" stroke-width="0.3" stroke-dasharray="1.2,0.8"/>
<line x1="89.547" y1="157.458" x2="54.139" y2="164.925" stroke="#8c8c8c" stroke-width="0.3" stroke-dasharray="1.2,0.8"/>
<line x1="32.233" y1="110.086" x2="63.041" y2="91.103" stroke="#8c8c8c" stroke-width="0.3" stroke-dasharray="1.2,0.8"/>
<line x1="69.883" y1="199.423" x2="54.139" y2="164.925" stroke="#8c8c8c" stroke-width="0.3" stroke-dasharray="1.2,0.8"/>
<line x1="127.082" y1="167.874" x2="152.057" y2="141.687" stroke="#8c8c8c" stroke-width="0.3" stroke-dasharray="1.2,0.8"/>
<line x1="119.214" y1="59.466" x2="83.07" y2="57.693" stroke="#8c8c8c" stroke-width="0.3" stroke-dasharray="1.2,0.8"/>
<line x1="152.057" y1="141.687" x2="119.559" y2="122.146" stroke="#8c8c8c" stroke-width="0.3" stroke-dasharray="1.2,0.8"/>
<line x1="127.082" y1="167.874" x2="153.579" y2="192.521" stroke="#8c8c8c" stroke-width="0.3" stroke-dasharray="1.2,0.8"/>
<line x1="83.07" y1="57.693" x2="85.294" y2="21.574" stroke="#8c8c8c" stroke-width="0.3" stroke-dasharray="1.2,0.8"/>
<line x1="153.579" y1="192.521" x2="122.308" y2="213.971" stroke="#8c8c8c" stroke-width="0.3" stroke-dasharray="1.2,0.8"/>
<line x1="127.082" y1="167.874" x2="89.547" y2="157.458" stroke="#8c8c8c" stroke-width="0.3" stroke-dasharray="1.2,0.8"/>
<line x1="119.559" y1="122.146" x2="127.082" y2="167.874" stroke="#8c8c8c" stroke-width="0.3" stroke-dasharray="1.2,0.8"/>
<line x1="119.559" y1="122.146" x2="89.547" y2="157.458" stroke="#8c8c8c" stroke-width="0.3" stroke-dasharray="1.2,0.8"/>
<line x1="63.041" y1="91.103" x2="83.07" y2="57.693" stroke="#8c8c8c" stroke-width="0.3" stroke-dasharray="1.2,0.8"/>
<line x1="83.07" y1="57.693" x2="109.123" y2="96.02" stroke="#8c8c8c" stroke-width="0.3" stroke-dasharray="1.2,0.8"/>
<line x1="63.041" y1="91.103" x2="109.123" y2="96.02" stroke="#8c8c8c" stroke-width="0.3" stroke-dasharray="1.2,0.8"/>
<line x1="54.139" y1="164.925" x2="81.638" y2="122.146" stroke="#8c8c8c" stroke-width="0.3" stroke-dasharray="1.2,0.8"/>
<line x1="19.877" y1="74.234" x2="32.233" y2="110.086" stroke="#8c8c8c" stroke-width="0.3" stroke-dasharray="1.2,0.8"/>
<line x1="153.579" y1="192.521" x2="152.057" y2="141.687" stroke="#8c8c8c" stroke-width="0.3" stroke-dasharray="1.2,0.8"/>
<line x1="141.966" y1="105.134" x2="152.057" y2="141.687" stroke="#8c8c8c" stroke-width="0.3" stroke-dasharray="1.2,0.8"/>
<line x1="47.851" y1="27.571" x2="85.294" y2="21.574" stroke="#8c8c8c" stroke-width="0.3" stroke-dasharray="1.2,0.8"/>
<line x1="122.308" y1="213.971" x2="127.082" y2="167.874" stroke="#8c8c8c" stroke-width="0.3" stroke-dasharray="1.2,0.8"/>
<line x1="69.883" y1="199.423" x2="89.547" y2="157.458" stroke="#8c8c8c" stroke-width="0.3" stroke-dasharray="1.2,0.8"/>
<line x1="47.851" y1="27.571" x2="83.07" y2="57.693" stroke="#8c8c8c" stroke-width="0.3" stroke-dasharray="1.2,0.8"/>
<line x1="19.877" y1="74.234" x2="63.042" y2="91.103" stroke="#8c8c8c" stroke-width="0.3" stroke-dasharray="1.2,0.8"/>
<line x1="122.308" y1="213.971" x2="145.692" y2="229.612" stroke="#8c8c8c" stroke-width="0.3" stroke-dasharray="1.2,0.8"/>
<line x1="119.559" y1="122.146" x2="109.123" y2="96.02" stroke="#8c8c8c" stroke-width="0.3" stroke-dasharray="1.2,0.8"/>
<line x1="81.638" y1="122.146" x2="32.233" y2="110.086" stroke="#141414" stroke-width="0.4"/>
<line x1="41.783" y1="200.776" x2="54.139" y2="164.925" stroke="#141414" stroke-width="0.4"/>
<line x1="85.294" y1="21.574" x2="119.214" y2="59.466" stroke="#141414" stroke-width="0.4"/>
<line x1="119.214" y1="59.466" x2="109.123" y2="96.02" stroke="#141414" stroke-width="0.4"/>
<line x1="153.579" y1="192.521" x2="145.692" y2="229.612" stroke="#141414" stroke-width="0.4"/>
<line x1="127.082" y1="167.874" x2="97.07" y2="203.187" stroke="#141414" stroke-width="0.4"/>
<line x1="97.07" y1="203.187" x2="89.547" y2="157.458" stroke="#141414" stroke-width="0.4"/>
<line x1="36.989" y1="52.776" x2="83.07" y2="57.693" stroke="#141414" stroke-width="0.4"/>
<line x1="63.041" y1="91.103" x2="36.989" y2="52.776" stroke="#141414" stroke-width="0.4"/>
<line x1="69.883" y1="199.423" x2="41.783" y2="200.776" stroke="#141414" stroke-width="0.4"/>
<line x1="119.559" y1="122.146" x2="141.966" y2="105.134" stroke="#141414" stroke-width="0.4"/>
<line x1="81.638" y1="122.146" x2="71.625" y2="124.777" stroke="#141414" stroke-width="0.4"/>
<line x1="71.625" y1="124.777" x2="52.375" y2="154.723" stroke="#141414" stroke-width="0.4"/>
<line x1="52.375" y1="154.723" x2="54.139" y2="164.925" stroke="#141414" stroke-width="0.4"/>
<line x1="32.233" y1="110.086" x2="23.762" y2="106.989" stroke="#141414" stroke-width="0.4"/>
<line x1="23.762" y1="106.989" x2="15.113" y2="81.893" stroke="#141414" stroke-width="0.4"/>
<line x1="15.113" y1="81.893" x2="19.877" y2="74.234" stroke="#141414" stroke-width="0.4"/>
<line x1="152.057" y1="141.687" x2="159.282" y2="149.103" stroke="#141414" stroke-width="0.4"/>
<line x1="159.282" y1="149.103" x2="160.347" y2="184.686" stroke="#141414" stroke-width="0.4"/>
<line x1="160.347" y1="184.686" x2="153.579" y2="192.521" stroke="#141414" stroke-width="0.4"/>
<line x1="152.057" y1="141.687" x2="157.291" y2="134.341" stroke="#141414" stroke-width="0.4"/>
<line x1="157.291" y1="134.341" x2="150.227" y2="108.754" stroke="#141414" stroke-width="0.4"/>
<line x1="150.227" y1="108.754" x2="141.966" y2="105.134" stroke="#141414" stroke-width="0.4"/>
<line x1="85.294" y1="21.574" x2="78.571" y2="15.562" stroke="#141414" stroke-width="0.4"/>
<line x1="78.571" y1="15.562" x2="52.361" y2="19.76" stroke="#141414" stroke-width="0.4"/>
<line x1="52.361" y1="19.76" x2="47.851" y2="27.571" stroke="#141414" stroke-width="0.4"/>
<line x1="127.082" y1="167.874" x2="118.114" y2="186.514" stroke="#141414" stroke-width="0.4"/>
<line x1="118.114" y1="186.514" x2="117.35" y2="193.889" stroke="#141414" stroke-width="0.4"/>
<line x1="117.35" y1="193.889" x2="122.308" y2="213.971" stroke="#141414" stroke-width="0.4"/>
<line x1="89.547" y1="157.458" x2="87.627" y2="178.053" stroke="#141414" stroke-width="0.4"/>
<line x1="87.627" y1="178.053" x2="84.481" y2="184.768" stroke="#141414" stroke-width="0.4"/>
<line x1="84.481" y1="184.768" x2="69.883" y2="199.423" stroke="#141414" stroke-width="0.4"/>
<line x1="83.07" y1="57.693" x2="63.729" y2="50.361" stroke="#141414" stroke-width="0.4"/>
<line x1="63.729" y1="50.361" x2="58.093" y2="45.542" stroke="#141414" stroke-width="0.4"/>
<line x1="58.093" y1="45.542" x2="47.851" y2="27.571" stroke="#141414" stroke-width="0.4"/>
<line x1="63.042" y1="91.103" x2="47.46" y2="77.498" stroke="#141414" stroke-width="0.4"/>
<line x1="47.46" y1="77.498" x2="40.554" y2="74.799" stroke="#141414" stroke-width="0.4"/>
<line x1="40.554" y1="74.799" x2="19.877" y2="74.234" stroke="#141414" stroke-width="0.4"/>
<line x1="145.692" y1="229.612" x2="138.293" y2="233.084" stroke="#141414" stroke-width="0.4"/>
<line x1="138.293" y1="233.084" x2="121.924" y2="222.136" stroke="#141414" stroke-width="0.4"/>
<line x1="121.924" y1="222.136" x2="122.308" y2="213.971" stroke="#141414" stroke-width="0.4"/>
<line x1="109.123" y1="96.02" x2="118.754" y2="101.261" stroke="#141414" stroke-width="0.4"/>
<line x1="118.754" y1="101.261" x2="122.929" y2="111.711" stroke="#141414" stroke-width="0.4"/>
<line x1="122.929" y1="111.711" x2="119.559" y2="122.146" stroke="#141414" stroke-width="0.4"/>
<circle cx="64.944" cy="141.643" r="2.94" fill="#ffe082" stroke="#464646" stroke-width="0.2"/>
<text x="64.944" y="142.65" font-size="2.88" text-anchor="middle" fill="#141414">23</text>
<circle cx="22.746" cy="93.3" r="2.94" fill="#ffe082" stroke="#464646" stroke-width="0.2"/>
<text x="22.746" y="94.31" font-size="2.88" text-anchor="middle" fill="#141414">24</text>
<circle cx="156.316" cy="166.999" r="2.94" fill="#ffe082" stroke="#464646" stroke-width="0.2"/>
<text x="156.316" y="168.01" font-size="2.88" text-anchor="middle" fill="#141414">25</text>
<circle cx="150.385" cy="122.479" r="2.94" fill="#ffe082" stroke="#464646" stroke-width="0.2"/>
<text x="150.385" y="123.49" font-size="2.88" text-anchor="middle" fill="#141414">26</text>
<circle cx="66.019" cy="21.117" r="2.94" fill="#ffe082" stroke="#464646" stroke-width="0.2"/>
<text x="66.019" y="22.12" font-size="2.88" text-anchor="middle" fill="#141414">27</text>
<circle cx="121.213" cy="190.562" r="2.94" fill="#ffe082" stroke="#464646" stroke-width="0.2"/>
<text x="121.213" y="191.57" font-size="2.88" text-anchor="middle" fill="#141414">28</text>
<circle cx="82.884" cy="179.925" r="2.94" fill="#ffe082" stroke="#464646" stroke-width="0.2"/>
<text x="82.884" y="180.93" font-size="2.88" text-anchor="middle" fill="#141414">29</text>
<circle cx="63.186" cy="45.292" r="2.94" fill="#ffe082" stroke="#464646" stroke-width="0.2"/>
<text x="63.186" y="46.30" font-size="2.88" text-anchor="middle" fill="#141414">30</text>
<circle cx="42.733" cy="79.409" r="2.94" fill="#ffe082" stroke="#464646" stroke-width="0.2"/>
<text x="42.733" y="80.42" font-size="2.88" text-anchor="middle" fill="#141414">31</text>
<circle cx="132.054" cy="224.701" r="2.94" fill="#ffe082" stroke="#464646" stroke-width="0.2"/>
<text x="132.054" y="225.71" font-size="2.88" text-anchor="middle" fill="#141414">32</text>
<circle cx="117.591" cy="107.784" r="2.94" fill="#ffe082" stroke="#464646" stroke-width="0.2"/>
<text x="117.591" y="108.79" font-size="2.88" text-anchor="middle" fill="#141414">33</text>
<circle cx="77.617" cy="228.623" r="4.6" fill="#eaf1fe" stroke="#2e78e6" stroke-width="0.3"/>
<text x="77.617" y="230.423" font-size="5.2" text-anchor="middle" fill="#14306e" font-weight="bold">3</text>
<polygon points="182.998,49.645 185.23,56.645 195.647,56.645 197.88,49.645" fill="rgb(216,216,216)"/>
<polygon points="182.998,34.763 185.23,27.763 195.647,27.763 197.88,34.763" fill="rgb(216,216,216)"/>
<polygon points="197.88,49.645 204.88,47.413 204.88,36.995 197.88,34.763" fill="rgb(216,216,216)"/>
<polygon points="182.998,64.526 180.766,71.526 170.348,71.526 168.116,64.526" fill="rgb(216,216,216)"/>
<polygon points="168.116,49.645 161.116,47.413 161.116,36.995 168.116,34.763" fill="rgb(216,216,216)"/>
<polygon points="168.116,49.645 161.116,51.877 161.116,62.294 168.116,64.526" fill="rgb(216,216,216)"/>
<polygon points="168.116,34.763 161.116,32.531 161.116,22.114 168.116,19.882" fill="rgb(216,216,216)"/>
<line x1="182.998" y1="49.645" x2="182.998" y2="34.763" stroke="#8c8c8c" stroke-width="0.3" stroke-dasharray="1.2,0.8"/>
<line x1="182.998" y1="49.645" x2="168.116" y2="49.645" stroke="#8c8c8c" stroke-width="0.3" stroke-dasharray="1.2,0.8"/>
<line x1="168.116" y1="34.763" x2="182.998" y2="34.763" stroke="#8c8c8c" stroke-width="0.3" stroke-dasharray="1.2,0.8"/>
<line x1="168.116" y1="19.882" x2="182.998" y2="19.882" stroke="#8c8c8c" stroke-width="0.3" stroke-dasharray="1.2,0.8"/>
<line x1="168.116" y1="19.882" x2="168.116" y2="5.0" stroke="#8c8c8c" stroke-width="0.3" stroke-dasharray="1.2,0.8"/>
<line x1="197.88" y1="49.645" x2="182.998" y2="49.645" stroke="#8c8c8c" stroke-width="0.3" stroke-dasharray="1.2,0.8"/>
<line x1="197.88" y1="34.763" x2="182.998" y2="34.763" stroke="#8c8c8c" stroke-width="0.3" stroke-dasharray="1.2,0.8"/>
<line x1="197.88" y1="34.763" x2="197.88" y2="49.645" stroke="#8c8c8c" stroke-width="0.3" stroke-dasharray="1.2,0.8"/>
<line x1="168.116" y1="64.526" x2="182.998" y2="64.526" stroke="#8c8c8c" stroke-width="0.3" stroke-dasharray="1.2,0.8"/>
<line x1="168.116" y1="34.763" x2="168.116" y2="49.645" stroke="#8c8c8c" stroke-width="0.3" stroke-dasharray="1.2,0.8"/>
<line x1="168.116" y1="64.526" x2="168.116" y2="49.645" stroke="#8c8c8c" stroke-width="0.3" stroke-dasharray="1.2,0.8"/>
<line x1="168.116" y1="19.882" x2="168.116" y2="34.763" stroke="#8c8c8c" stroke-width="0.3" stroke-dasharray="1.2,0.8"/>
<line x1="182.998" y1="49.645" x2="182.998" y2="64.527" stroke="#141414" stroke-width="0.4"/>
<line x1="182.998" y1="19.882" x2="182.998" y2="34.763" stroke="#141414" stroke-width="0.4"/>
<line x1="182.998" y1="5.0" x2="182.998" y2="19.882" stroke="#141414" stroke-width="0.4"/>
<line x1="168.116" y1="5.0" x2="182.998" y2="5.0" stroke="#141414" stroke-width="0.4"/>
<line x1="153.234" y1="19.882" x2="153.234" y2="5.0" stroke="#141414" stroke-width="0.4"/>
<line x1="153.234" y1="5.0" x2="168.116" y2="5.0" stroke="#141414" stroke-width="0.4"/>
<line x1="168.116" y1="19.882" x2="153.234" y2="19.882" stroke="#141414" stroke-width="0.4"/>
<line x1="182.998" y1="49.645" x2="185.23" y2="56.645" stroke="#141414" stroke-width="0.4"/>
<line x1="185.23" y1="56.645" x2="195.647" y2="56.645" stroke="#141414" stroke-width="0.4"/>
<line x1="195.647" y1="56.645" x2="197.88" y2="49.645" stroke="#141414" stroke-width="0.4"/>
<line x1="182.998" y1="34.763" x2="185.23" y2="27.763" stroke="#141414" stroke-width="0.4"/>
<line x1="185.23" y1="27.763" x2="195.647" y2="27.763" stroke="#141414" stroke-width="0.4"/>
<line x1="195.647" y1="27.763" x2="197.88" y2="34.763" stroke="#141414" stroke-width="0.4"/>
<line x1="197.88" y1="49.645" x2="204.88" y2="47.413" stroke="#141414" stroke-width="0.4"/>
<line x1="204.88" y1="47.413" x2="204.88" y2="36.995" stroke="#141414" stroke-width="0.4"/>
<line x1="204.88" y1="36.995" x2="197.88" y2="34.763" stroke="#141414" stroke-width="0.4"/>
<line x1="182.998" y1="64.526" x2="180.766" y2="71.526" stroke="#141414" stroke-width="0.4"/>
<line x1="180.766" y1="71.526" x2="170.348" y2="71.526" stroke="#141414" stroke-width="0.4"/>
<line x1="170.348" y1="71.526" x2="168.116" y2="64.526" stroke="#141414" stroke-width="0.4"/>
<line x1="168.116" y1="49.645" x2="161.116" y2="47.413" stroke="#141414" stroke-width="0.4"/>
<line x1="161.116" y1="47.413" x2="161.116" y2="36.995" stroke="#141414" stroke-width="0.4"/>
<line x1="161.116" y1="36.995" x2="168.116" y2="34.763" stroke="#141414" stroke-width="0.4"/>
<line x1="168.116" y1="49.645" x2="161.116" y2="51.877" stroke="#141414" stroke-width="0.4"/>
<line x1="161.116" y1="51.877" x2="161.116" y2="62.294" stroke="#141414" stroke-width="0.4"/>
<line x1="161.116" y1="62.294" x2="168.116" y2="64.526" stroke="#141414" stroke-width="0.4"/>
<line x1="168.116" y1="34.763" x2="161.116" y2="32.531" stroke="#141414" stroke-width="0.4"/>
<line x1="161.116" y1="32.531" x2="161.116" y2="22.114" stroke="#141414" stroke-width="0.4"/>
<line x1="161.116" y1="22.114" x2="168.116" y2="19.882" stroke="#141414" stroke-width="0.4"/>
<circle cx="190.439" cy="53.145" r="2.94" fill="#ffe082" stroke="#464646" stroke-width="0.2"/>
<text x="190.439" y="54.15" font-size="2.88" text-anchor="middle" fill="#141414">45</text>
<circle cx="190.439" cy="31.263" r="2.94" fill="#ffe082" stroke="#464646" stroke-width="0.2"/>
<text x="190.439" y="32.27" font-size="2.88" text-anchor="middle" fill="#141414">46</text>
<circle cx="201.38" cy="42.204" r="2.94" fill="#ffe082" stroke="#464646" stroke-width="0.2"/>
<text x="201.38" y="43.21" font-size="2.88" text-anchor="middle" fill="#141414">47</text>
<circle cx="175.557" cy="68.026" r="2.94" fill="#ffe082" stroke="#464646" stroke-width="0.2"/>
<text x="175.557" y="69.03" font-size="2.88" text-anchor="middle" fill="#141414">48</text>
<circle cx="164.616" cy="42.204" r="2.94" fill="#ffe082" stroke="#464646" stroke-width="0.2"/>
<text x="164.616" y="43.21" font-size="2.88" text-anchor="middle" fill="#141414">49</text>
<circle cx="164.616" cy="57.086" r="2.94" fill="#ffe082" stroke="#464646" stroke-width="0.2"/>
<text x="164.616" y="58.09" font-size="2.88" text-anchor="middle" fill="#141414">50</text>
<circle cx="164.616" cy="27.322" r="2.94" fill="#ffe082" stroke="#464646" stroke-width="0.2"/>
<text x="164.616" y="28.33" font-size="2.88" text-anchor="middle" fill="#141414">51</text>
<circle cx="179.057" cy="77.626" r="4.6" fill="#eaf1fe" stroke="#2e78e6" stroke-width="0.3"/>
<text x="179.057" y="79.426" font-size="5.2" text-anchor="middle" fill="#14306e" font-weight="bold">5</text>
</svg>
