<svg xmlns="http://www.w3.org/2000/svg" xmlns:xlink="http://www.w3.org/1999/xlink" width="210.00mm" height="297.00mm" viewBox="0 0 210.00 297.00">
<rect x="0" y="0" width="210.00" height="297.00" fill="#ffffff" stroke="#cccccc" stroke-width="0.2"/>
<polygon points="126.9,147.517 133.9,157.057 133.9,201.577 126.9,211.117" fill="rgb(216,216,216)"/>
<polygon points="68.6,147.517 61.6,137.182 61.6,88.952 68.6,78.617" fill="rgb(216,216,216)"/>
<polygon points="68.6,147.517 61.6,157.057 61.6,201.577 68.6,211.117" fill="rgb(216,216,216)"/>
<polygon points="126.9,78.617 136.44,71.617 180.96,71.617 190.5,78.617" fill="rgb(216,216,216)"/>
<polygon points="5.0,280.017 14.54,287.017 59.06,287.017 68.6,280.017" fill="rgb(216,216,216)"/>
<polygon points="190.5,147.517 197.5,137.182 197.5,88.952 190.5,78.617" fill="rgb(216,216,216)"/>
<polygon points="126.9,15.017 118.155,8.017 77.345,8.017 68.6,15.017" fill="rgb(216,216,216)"/>
<polygon points="126.9,147.517 133.9,157.057 133.9,201.577 126.9,211.117" fill="#99d9fa"/>
<line x1="126.9" y1="147.517" x2="68.6" y2="147.517" stroke="#8c8c8c" stroke-width="0.3" stroke-dasharray="1.2,0.8"/>
<line x1="126.9" y1="78.617" x2="126.9" y2="147.517" stroke="#8c8c8c" stroke-width="0.3" stroke-dasharray="1.2,0.8"/>
<line x1="68.6" y1="78.617" x2="126.9" y2="78.617" stroke="#8c8c8c" stroke-width="0.3" stroke-dasharray="1.2,0.8"/>
<line x1="126.9" y1="211.117" x2="68.6" y2="211.117" stroke="#8c8c8c" stroke-width="0.3" stroke-dasharray="1.2,0.8"/>
<line x1="68.6" y1="211.117" x2="68.6" y2="280.017" stroke="#8c8c8c" stroke-width="0.3" stroke-dasharray="1.2,0.8"/>
<line x1="126.9" y1="211.117" x2="126.9" y2="147.517" stroke="#8c8c8c" stroke-width="0.3" stroke-dasharray="1.2,0.8"/>
<line x1="68.6" y1="78.617" x2="68.6" y2="147.517" stroke="#8c8c8c" stroke-width="0.3" stroke-dasharray="1.2,0.8"/>
<line x1="68.6" y1="211.117" x2="68.6" y2="147.517" stroke="#8c8c8c" stroke-width="0.3" stroke-dasharray="1.2,0.8"/>
<line x1="190.5" y1="78.617" x2="126.9" y2="78.617" stroke="#8c8c8c" stroke-width="0.3" stroke-dasharray="1.2,0.8"/>
<line x1="68.6" y1="280.017" x2="5.0" y2="280.017" stroke="#8c8c8c" stroke-width="0.3" stroke-dasharray="1.2,0.8"/>
<line x1="190.5" y1="78.617" x2="190.5" y2="147.517" stroke="#8c8c8c" stroke-width="0.3" stroke-dasharray="1.2,0.8"/>
<line x1="68.6" y1="15.017" x2="126.9" y2="15.017" stroke="#8c8c8c" stroke-width="0.3" stroke-dasharray="1.2,0.8"/>
<line x1="190.5" y1="147.517" x2="126.9" y2="147.517" stroke="#141414" stroke-width="0.4"/>
<line x1="5.0" y1="280.017" x2="5.0" y2="211.117" stroke="#141414" stroke-width="0.4"/>
<line x1="5.0" y1="211.117" x2="68.6" y2="211.117" stroke="#141414" stroke-width="0.4"/>
<line x1="126.9" y1="15.017" x2="126.9" y2="78.617" stroke="#141414" stroke-width="0.4"/>
<line x1="68.6" y1="78.617" x2="68.6" y2="15.017" stroke="#141414" stroke-width="0.4"/>
<line x1="126.9" y1="211.117" x2="126.9" y2="280.017" stroke="#141414" stroke-width="0.4"/>
<line x1="126.9" y1="280.017" x2="68.6" y2="280.017" stroke="#141414" stroke-width="0.4"/>
<line x1="126.9" y1="147.517" x2="133.9" y2="157.057" stroke="#141414" stroke-width="0.4"/>
<line x1="133.9" y1="157.057" x2="133.9" y2="201.577" stroke="#141414" stroke-width="0.4"/>
<line x1="133.9" y1="201.577" x2="126.9" y2="211.117" stroke="#141414" stroke-width="0.4"/>
<line x1="68.6" y1="147.517" x2="61.6" y2="137.182" stroke="#141414" stroke-width="0.4"/>
<line x1="61.6" y1="137.182" x2="61.6" y2="88.952" stroke="#141414" stroke-width="0.4"/>
<line x1="61.6" y1="88.952" x2="68.6" y2="78.617" stroke="#141414" stroke-width="0.4"/>
<line x1="68.6" y1="147.517" x2="61.6" y2="157.057" stroke="#141414" stroke-width="0.4"/>
<line x1="61.6" y1="157.057" x2="61.6" y2="201.577" stroke="#141414" stroke-width="0.4"/>
<line x1="61.6" y1="201.577" x2="68.6" y2="211.117" stroke="#141414" stroke-width="0.4"/>
<line x1="126.9" y1="78.617" x2="136.44" y2="71.617" stroke="#141414" stroke-width="0.4"/>
<line x1="136.44" y1="71.617" x2="180.96" y2="71.617" stroke="#141414" stroke-width="0.4"/>
<line x1="180.96" y1="71.617" x2="190.5" y2="78.617" stroke="#141414" stroke-width="0.4"/>
<line x1="5.0" y1="280.017" x2="14.54" y2="287.017" stroke="#141414" stroke-width="0.4"/>
<line x1="14.54" y1="287.017" x2="59.06" y2="287.017" stroke="#141414" stroke-width="0.4"/>
<line x1="59.06" y1="287.017" x2="68.6" y2="280.017" stroke="#141414" stroke-width="0.4"/>
<line x1="190.5" y1="147.517" x2="197.5" y2="137.182" stroke="#141414" stroke-width="0.4"/>
<line x1="197.5" y1="137.182" x2="197.5" y2="88.952" stroke="#141414" stroke-width="0.4"/>
<line x1="197.5" y1="88.952" x2="190.5" y2="78.617" stroke="#141414" stroke-width="0.4"/>
<line x1="126.9" y1="15.017" x2="118.155" y2="8.017" stroke="#141414" stroke-width="0.4"/>
<line x1="118.155" y1="8.017" x2="77.345" y2="8.017" stroke="#141414" stroke-width="0.4"/>
<line x1="77.345" y1="8.017" x2="68.6" y2="15.017" stroke="#141414" stroke-width="0.4"/>
<circle cx="130.4" cy="179.317" r="2.67" fill="#99d9fa" stroke="#464646" stroke-width="0.2"/>
<text x="130.4" y="180.58" font-size="3.62" text-anchor="middle" fill="#141414">1</text>
<circle cx="65.1" cy="113.067" r="2.67" fill="#ffe082" stroke="#464646" stroke-width="0.2"/>
<text x="65.1" y="114.33" font-size="3.62" text-anchor="middle" fill="#141414">2</text>
<circle cx="65.1" cy="179.317" r="2.67" fill="#ffe082" stroke="#464646" stroke-width="0.2"/>
<text x="65.1" y="180.58" font-size="3.62" text-anchor="middle" fill="#141414">3</text>
<circle cx="158.7" cy="75.117" r="2.67" fill="#ffe082" stroke="#464646" stroke-width="0.2"/>
<text x="158.7" y="76.38" font-size="3.62" text-anchor="middle" fill="#141414">4</text>
<circle cx="36.8" cy="283.517" r="2.67" fill="#ffe082" stroke="#464646" stroke-width="0.2"/>
<text x="36.8" y="284.78" font-size="3.62" text-anchor="middle" fill="#141414">5</text>
<circle cx="194.0" cy="113.067" r="2.67" fill="#ffe082" stroke="#464646" stroke-width="0.2"/>
<text x="194.0" y="114.33" font-size="3.62" text-anchor="middle" fill="#141414">6</text>
<circle cx="97.75" cy="11.517" r="2.67" fill="#ffe082" stroke="#464646" stroke-width="0.2"/>
<text x="97.75" y="12.78" font-size="3.62" text-anchor="middle" fill="#141414">7</text>
<circle cx="169.3" cy="101.584" r="4.60" fill="#eaf1fe" stroke="#2e78e6" stroke-width="0.3"/>
<text x="169.3" y="103.38" font-size="5.20" text-anchor="middle" fill="#14306e" font-weight="bold">1</text>
<text x="205.0" y="295.0" font-size="3.2" text-anchor="end" fill="#737373" font-family="sans-serif">1 / 5</text>
</svg>
