<svg xmlns="http://www.w3.org/2000/svg" xmlns:xlink="http://www.w3.org/1999/xlink" width="210.00mm" height="297.00mm" viewBox="0 0 210.00 297.00">
<rect x="0" y="0" width="210.00" height="297.00" fill="#ffffff" stroke="#cccccc" stroke-width="0.2"/>
<polygon points="46.078,279.742 50.5,285.141 72.199,286.091 77.076,281.1" fill="rgb(216,216,216)"/>
<polygon points="70.787,152.857 76.924,171.839 81.326,261.609 77.076,281.1" fill="rgb(216,216,216)"/>
<polygon points="42.696,100.998 53.94,89.313 117.578,56.33 133.607,53.879" fill="rgb(216,216,216)"/>
<polygon points="133.607,53.879 131.252,44.836 143.179,10.62 150.645,5.0" fill="rgb(216,216,216)"/>
<polygon points="170.281,83.546 172.38,70.503 158.635,15.521 150.645,5.0" fill="rgb(216,216,216)"/>
<line x1="46.078" y1="157.011" x2="70.787" y2="152.857" stroke="#8c8c8c" stroke-width="0.3" stroke-dasharray="1.2,0.8"/>
<line x1="46.078" y1="157.011" x2="77.076" y2="281.1" stroke="#8c8c8c" stroke-width="0.3" stroke-dasharray="1.2,0.8"/>
<line x1="70.787" y1="152.857" x2="42.696" y2="100.998" stroke="#8c8c8c" stroke-width="0.3" stroke-dasharray="1.2,0.8"/>
<line x1="42.696" y1="100.998" x2="46.078" y2="157.011" stroke="#8c8c8c" stroke-width="0.3" stroke-dasharray="1.2,0.8"/>
<line x1="170.281" y1="83.546" x2="133.607" y2="53.879" stroke="#8c8c8c" stroke-width="0.3" stroke-dasharray="1.2,0.8"/>
<line x1="77.076" y1="281.1" x2="46.078" y2="279.742" stroke="#8c8c8c" stroke-width="0.3" stroke-dasharray="1.2,0.8"/>
<line x1="77.076" y1="281.1" x2="70.787" y2="152.857" stroke="#8c8c8c" stroke-width="0.3" stroke-dasharray="1.2,0.8"/>
<line x1="133.607" y1="53.879" x2="42.696" y2="100.998" stroke="#8c8c8c" stroke-width="0.3" stroke-dasharray="1.2,0.8"/>
<line x1="150.645" y1="5.0" x2="133.607" y2="53.879" stroke="#8c8c8c" stroke-width="0.3" stroke-dasharray="1.2,0.8"/>
<line x1="150.645" y1="5.0" x2="170.281" y2="83.546" stroke="#8c8c8c" stroke-width="0.3" stroke-dasharray="1.2,0.8"/>
<line x1="46.078" y1="157.011" x2="5.0" y2="138.881" stroke="#141414" stroke-width="0.4"/>
<line x1="5.0" y1="138.881" x2="42.696" y2="100.998" stroke="#141414" stroke-width="0.4"/>
<line x1="46.078" y1="279.742" x2="46.078" y2="157.011" stroke="#141414" stroke-width="0.4"/>
<line x1="157.406" y1="106.635" x2="70.787" y2="152.857" stroke="#141414" stroke-width="0.4"/>
<line x1="170.281" y1="83.546" x2="157.406" y2="106.635" stroke="#141414" stroke-width="0.4"/>
<line x1="46.078" y1="279.742" x2="50.5" y2="285.141" stroke="#141414" stroke-width="0.4"/>
<line x1="50.5" y1="285.141" x2="72.199" y2="286.091" stroke="#141414" stroke-width="0.4"/>
<line x1="72.199" y1="286.091" x2="77.076" y2="281.1" stroke="#141414" stroke-width="0.4"/>
<line x1="70.787" y1="152.857" x2="76.924" y2="171.839" stroke="#141414" stroke-width="0.4"/>
<line x1="76.924" y1="171.839" x2="81.326" y2="261.609" stroke="#141414" stroke-width="0.4"/>
<line x1="81.326" y1="261.609" x2="77.076" y2="281.1" stroke="#141414" stroke-width="0.4"/>
<line x1="42.696" y1="100.998" x2="53.94" y2="89.313" stroke="#141414" stroke-width="0.4"/>
<line x1="53.94" y1="89.313" x2="117.578" y2="56.33" stroke="#141414" stroke-width="0.4"/>
<line x1="117.578" y1="56.33" x2="133.607" y2="53.879" stroke="#141414" stroke-width="0.4"/>
<line x1="133.607" y1="53.879" x2="131.252" y2="44.836" stroke="#141414" stroke-width="0.4"/>
<line x1="131.252" y1="44.836" x2="143.179" y2="10.62" stroke="#141414" stroke-width="0.4"/>
<line x1="143.179" y1="10.62" x2="150.645" y2="5.0" stroke="#141414" stroke-width="0.4"/>
<line x1="170.281" y1="83.546" x2="172.38" y2="70.503" stroke="#141414" stroke-width="0.4"/>
<line x1="172.38" y1="70.503" x2="158.635" y2="15.521" stroke="#141414" stroke-width="0.4"/>
<line x1="158.635" y1="15.521" x2="150.645" y2="5.0" stroke="#141414" stroke-width="0.4"/>
<circle cx="61.463" cy="283.019" r="2.29" fill="#ffe082" stroke="#464646" stroke-width="0.2"/>
<text x="61.463" y="284.11" font-size="3.11" text-anchor="middle" fill="#141414">14</text>
<circle cx="76.529" cy="216.851" r="2.29" fill="#ffe082" stroke="#464646" stroke-width="0.2"/>
<text x="76.529" y="217.94" font-size="3.11" text-anchor="middle" fill="#141414">18</text>
<circle cx="86.955" cy="75.13" r="2.29" fill="#ffe082" stroke="#464646" stroke-width="0.2"/>
<text x="86.955" y="76.22" font-size="3.11" text-anchor="middle" fill="#141414">22</text>
<circle cx="139.671" cy="28.584" r="2.29" fill="#ffe082" stroke="#464646" stroke-width="0.2"/>
<text x="139.671" y="29.67" font-size="3.11" text-anchor="middle" fill="#141414">32</text>
<circle cx="162.985" cy="43.642" r="2.29" fill="#ffe082" stroke="#464646" stroke-width="0.2"/>
<text x="162.985" y="44.73" font-size="3.11" text-anchor="middle" fill="#141414">37</text>
<circle cx="82.364" cy="102.578" r="4.60" fill="#eaf1fe" stroke="#2e78e6" stroke-width="0.3"/>
<text x="82.364" y="104.38" font-size="5.20" text-anchor="middle" fill="#14306e" font-weight="bold">4</text>
<text x="205.0" y="295.0" font-size="3.2" text-anchor="end" fill="#737373" font-family="sans-serif">4 / 9</text>
<g pointer-events="none"><text x="105.0" y="83.2" text-anchor="middle" font-family="sans-serif" font-size="12.4" fill="#9aa0a6" fill-opacity="0.3" transform="rotate(-28 105.0 83.2)">papercraft.kr</text><text x="105.0" y="148.5" text-anchor="middle" font-family="sans-serif" font-size="12.4" fill="#9aa0a6" fill-opacity="0.3" transform="rotate(-28 105.0 148.5)">papercraft.kr</text><text x="105.0" y="213.8" text-anchor="middle" font-family="sans-serif" font-size="12.4" fill="#9aa0a6" fill-opacity="0.3" transform="rotate(-28 105.0 213.8)">papercraft.kr</text></g></svg>
