<svg xmlns="http://www.w3.org/2000/svg" xmlns:xlink="http://www.w3.org/1999/xlink" width="210.00mm" height="297.00mm" viewBox="0 0 210.00 297.00">
<rect x="0" y="0" width="210.00" height="297.00" fill="#ffffff" stroke="#cccccc" stroke-width="0.2"/>
<polygon points="107.452,113.38 112.652,117.731 112.652,138.038 107.452,142.389" fill="rgb(216,216,216)"/>
<polygon points="79.863,75.407 77.331,69.117 58.019,62.842 52.273,66.442" fill="rgb(216,216,216)"/>
<polygon points="152.092,98.876 157.292,103.227 157.292,123.533 152.092,127.885" fill="rgb(216,216,216)"/>
<polygon points="152.092,80.947 149.561,87.237 130.248,93.512 124.503,89.911" fill="rgb(216,216,216)"/>
<polygon points="107.452,37.433 104.92,31.143 85.608,24.868 79.863,28.469" fill="rgb(216,216,216)"/>
<polygon points="124.503,42.973 117.739,43.437 105.803,59.865 107.452,66.442" fill="rgb(216,216,216)"/>
<polygon points="79.863,151.354 73.098,150.89 61.162,134.462 62.812,127.885" fill="rgb(216,216,216)"/>
<polygon points="79.863,151.354 74.663,155.705 74.663,176.011 79.863,180.363" fill="rgb(216,216,216)"/>
<polygon points="35.222,89.911 29.477,86.31 10.164,92.585 7.633,98.876" fill="rgb(216,216,216)"/>
<polygon points="107.452,189.327 114.216,188.863 126.152,172.435 124.503,165.858" fill="rgb(216,216,216)"/>
<polygon points="196.733,66.442 198.382,59.865 186.446,43.437 179.682,42.973" fill="rgb(216,216,216)"/>
<polygon points="7.633,51.938 10.164,45.648 29.477,39.373 35.222,42.973" fill="rgb(216,216,216)"/>
<polygon points="79.863,227.3 85.608,230.901 104.92,224.626 107.452,218.336" fill="rgb(216,216,216)"/>
<polygon points="79.863,227.3 73.098,226.837 61.162,210.408 62.812,203.832" fill="rgb(216,216,216)"/>
<polygon points="107.452,142.389 114.216,142.853 126.152,159.281 124.503,165.858" fill="rgb(216,216,216)"/>
<polygon points="62.812,51.938 61.162,45.361 73.098,28.933 79.863,28.469" fill="rgb(216,216,216)"/>
<polygon points="79.863,104.416 77.331,110.706 58.019,116.981 52.273,113.38" fill="rgb(216,216,216)"/>
<polygon points="152.092,51.938 154.624,45.648 173.936,39.373 179.682,42.973" fill="rgb(216,216,216)"/>
<polygon points="7.633,127.885 2.433,123.533 2.433,103.227 7.633,98.876" fill="rgb(216,216,216)"/>
<line x1="107.452" y1="113.38" x2="79.863" y2="104.416" stroke="#8c8c8c" stroke-width="0.3" stroke-dasharray="1.2,0.8"/>
<line x1="124.503" y1="89.911" x2="107.452" y2="113.38" stroke="#8c8c8c" stroke-width="0.3" stroke-dasharray="1.2,0.8"/>
<line x1="79.863" y1="104.416" x2="79.863" y2="75.407" stroke="#8c8c8c" stroke-width="0.3" stroke-dasharray="1.2,0.8"/>
<line x1="79.863" y1="75.407" x2="107.452" y2="66.442" stroke="#8c8c8c" stroke-width="0.3" stroke-dasharray="1.2,0.8"/>
<line x1="152.092" y1="51.938" x2="152.092" y2="80.947" stroke="#8c8c8c" stroke-width="0.3" stroke-dasharray="1.2,0.8"/>
<line x1="124.503" y1="42.973" x2="152.092" y2="51.938" stroke="#8c8c8c" stroke-width="0.3" stroke-dasharray="1.2,0.8"/>
<line x1="107.452" y1="142.389" x2="79.863" y2="151.353" stroke="#8c8c8c" stroke-width="0.3" stroke-dasharray="1.2,0.8"/>
<line x1="35.222" y1="89.911" x2="52.273" y2="66.442" stroke="#8c8c8c" stroke-width="0.3" stroke-dasharray="1.2,0.8"/>
<line x1="52.273" y1="113.38" x2="35.222" y2="89.911" stroke="#8c8c8c" stroke-width="0.3" stroke-dasharray="1.2,0.8"/>
<line x1="107.452" y1="189.327" x2="79.863" y2="180.363" stroke="#8c8c8c" stroke-width="0.3" stroke-dasharray="1.2,0.8"/>
<line x1="107.452" y1="66.442" x2="124.503" y2="89.911" stroke="#8c8c8c" stroke-width="0.3" stroke-dasharray="1.2,0.8"/>
<line x1="107.452" y1="142.389" x2="107.452" y2="113.38" stroke="#8c8c8c" stroke-width="0.3" stroke-dasharray="1.2,0.8"/>
<line x1="52.273" y1="66.442" x2="79.863" y2="75.407" stroke="#8c8c8c" stroke-width="0.3" stroke-dasharray="1.2,0.8"/>
<line x1="152.092" y1="127.885" x2="152.092" y2="98.876" stroke="#8c8c8c" stroke-width="0.3" stroke-dasharray="1.2,0.8"/>
<line x1="124.503" y1="89.911" x2="152.092" y2="80.947" stroke="#8c8c8c" stroke-width="0.3" stroke-dasharray="1.2,0.8"/>
<line x1="79.863" y1="28.469" x2="107.452" y2="37.433" stroke="#8c8c8c" stroke-width="0.3" stroke-dasharray="1.2,0.8"/>
<line x1="107.452" y1="66.442" x2="124.503" y2="42.973" stroke="#8c8c8c" stroke-width="0.3" stroke-dasharray="1.2,0.8"/>
<line x1="62.812" y1="127.885" x2="79.863" y2="151.354" stroke="#8c8c8c" stroke-width="0.3" stroke-dasharray="1.2,0.8"/>
<line x1="79.863" y1="180.363" x2="79.863" y2="151.354" stroke="#8c8c8c" stroke-width="0.3" stroke-dasharray="1.2,0.8"/>
<line x1="7.633" y1="98.876" x2="35.222" y2="89.911" stroke="#8c8c8c" stroke-width="0.3" stroke-dasharray="1.2,0.8"/>
<line x1="124.503" y1="165.858" x2="107.452" y2="189.327" stroke="#8c8c8c" stroke-width="0.3" stroke-dasharray="1.2,0.8"/>
<line x1="179.682" y1="42.973" x2="196.733" y2="66.442" stroke="#8c8c8c" stroke-width="0.3" stroke-dasharray="1.2,0.8"/>
<line x1="35.222" y1="42.973" x2="7.633" y2="51.938" stroke="#8c8c8c" stroke-width="0.3" stroke-dasharray="1.2,0.8"/>
<line x1="107.452" y1="218.336" x2="79.863" y2="227.3" stroke="#8c8c8c" stroke-width="0.3" stroke-dasharray="1.2,0.8"/>
<line x1="62.812" y1="203.832" x2="79.863" y2="227.3" stroke="#8c8c8c" stroke-width="0.3" stroke-dasharray="1.2,0.8"/>
<line x1="124.503" y1="165.858" x2="107.452" y2="142.389" stroke="#8c8c8c" stroke-width="0.3" stroke-dasharray="1.2,0.8"/>
<line x1="79.863" y1="28.469" x2="62.812" y2="51.938" stroke="#8c8c8c" stroke-width="0.3" stroke-dasharray="1.2,0.8"/>
<line x1="52.273" y1="113.38" x2="79.863" y2="104.416" stroke="#8c8c8c" stroke-width="0.3" stroke-dasharray="1.2,0.8"/>
<line x1="179.682" y1="42.973" x2="152.092" y2="51.938" stroke="#8c8c8c" stroke-width="0.3" stroke-dasharray="1.2,0.8"/>
<line x1="7.633" y1="98.876" x2="7.633" y2="127.885" stroke="#8c8c8c" stroke-width="0.3" stroke-dasharray="1.2,0.8"/>
<line x1="124.503" y1="136.849" x2="107.452" y2="113.38" stroke="#141414" stroke-width="0.4"/>
<line x1="79.863" y1="75.407" x2="62.812" y2="51.938" stroke="#141414" stroke-width="0.4"/>
<line x1="179.682" y1="89.911" x2="152.092" y2="80.947" stroke="#141414" stroke-width="0.4"/>
<line x1="124.503" y1="89.911" x2="152.092" y2="98.876" stroke="#141414" stroke-width="0.4"/>
<line x1="124.503" y1="42.973" x2="124.503" y2="13.964" stroke="#141414" stroke-width="0.4"/>
<line x1="107.452" y1="37.433" x2="107.452" y2="66.442" stroke="#141414" stroke-width="0.4"/>
<line x1="52.273" y1="113.38" x2="35.222" y2="136.849" stroke="#141414" stroke-width="0.4"/>
<line x1="35.222" y1="136.849" x2="7.633" y2="127.885" stroke="#141414" stroke-width="0.4"/>
<line x1="35.222" y1="89.911" x2="7.633" y2="80.947" stroke="#141414" stroke-width="0.4"/>
<line x1="196.733" y1="66.442" x2="179.682" y2="89.911" stroke="#141414" stroke-width="0.4"/>
<line x1="107.452" y1="189.327" x2="107.452" y2="218.336" stroke="#141414" stroke-width="0.4"/>
<line x1="124.503" y1="13.964" x2="152.092" y2="5.0" stroke="#141414" stroke-width="0.4"/>
<line x1="152.092" y1="5.0" x2="169.143" y2="28.469" stroke="#141414" stroke-width="0.4"/>
<line x1="7.633" y1="80.947" x2="7.633" y2="51.938" stroke="#141414" stroke-width="0.4"/>
<line x1="152.092" y1="127.885" x2="124.503" y2="136.849" stroke="#141414" stroke-width="0.4"/>
<line x1="35.222" y1="42.973" x2="52.273" y2="66.442" stroke="#141414" stroke-width="0.4"/>
<line x1="62.812" y1="127.885" x2="79.863" y2="104.416" stroke="#141414" stroke-width="0.4"/>
<line x1="169.143" y1="28.469" x2="152.092" y2="51.938" stroke="#141414" stroke-width="0.4"/>
<line x1="62.812" y1="203.832" x2="79.863" y2="180.363" stroke="#141414" stroke-width="0.4"/>
<line x1="107.452" y1="113.38" x2="112.652" y2="117.731" stroke="#141414" stroke-width="0.4"/>
<line x1="112.652" y1="117.731" x2="112.652" y2="138.038" stroke="#141414" stroke-width="0.4"/>
<line x1="112.652" y1="138.038" x2="107.452" y2="142.389" stroke="#141414" stroke-width="0.4"/>
<line x1="79.863" y1="75.407" x2="77.331" y2="69.117" stroke="#141414" stroke-width="0.4"/>
<line x1="77.331" y1="69.117" x2="58.019" y2="62.842" stroke="#141414" stroke-width="0.4"/>
<line x1="58.019" y1="62.842" x2="52.273" y2="66.442" stroke="#141414" stroke-width="0.4"/>
<line x1="152.092" y1="98.876" x2="157.292" y2="103.227" stroke="#141414" stroke-width="0.4"/>
<line x1="157.292" y1="103.227" x2="157.292" y2="123.533" stroke="#141414" stroke-width="0.4"/>
<line x1="157.292" y1="123.533" x2="152.092" y2="127.885" stroke="#141414" stroke-width="0.4"/>
<line x1="152.092" y1="80.947" x2="149.561" y2="87.237" stroke="#141414" stroke-width="0.4"/>
<line x1="149.561" y1="87.237" x2="130.248" y2="93.512" stroke="#141414" stroke-width="0.4"/>
<line x1="130.248" y1="93.512" x2="124.503" y2="89.911" stroke="#141414" stroke-width="0.4"/>
<line x1="107.452" y1="37.433" x2="104.92" y2="31.143" stroke="#141414" stroke-width="0.4"/>
<line x1="104.92" y1="31.143" x2="85.608" y2="24.868" stroke="#141414" stroke-width="0.4"/>
<line x1="85.608" y1="24.868" x2="79.863" y2="28.469" stroke="#141414" stroke-width="0.4"/>
<line x1="124.503" y1="42.973" x2="117.739" y2="43.437" stroke="#141414" stroke-width="0.4"/>
<line x1="117.739" y1="43.437" x2="105.803" y2="59.865" stroke="#141414" stroke-width="0.4"/>
<line x1="105.803" y1="59.865" x2="107.452" y2="66.442" stroke="#141414" stroke-width="0.4"/>
<line x1="79.863" y1="151.354" x2="73.098" y2="150.89" stroke="#141414" stroke-width="0.4"/>
<line x1="73.098" y1="150.89" x2="61.162" y2="134.462" stroke="#141414" stroke-width="0.4"/>
<line x1="61.162" y1="134.462" x2="62.812" y2="127.885" stroke="#141414" stroke-width="0.4"/>
<line x1="79.863" y1="151.354" x2="74.663" y2="155.705" stroke="#141414" stroke-width="0.4"/>
<line x1="74.663" y1="155.705" x2="74.663" y2="176.011" stroke="#141414" stroke-width="0.4"/>
<line x1="74.663" y1="176.011" x2="79.863" y2="180.363" stroke="#141414" stroke-width="0.4"/>
<line x1="35.222" y1="89.911" x2="29.477" y2="86.31" stroke="#141414" stroke-width="0.4"/>
<line x1="29.477" y1="86.31" x2="10.164" y2="92.585" stroke="#141414" stroke-width="0.4"/>
<line x1="10.164" y1="92.585" x2="7.633" y2="98.876" stroke="#141414" stroke-width="0.4"/>
<line x1="107.452" y1="189.327" x2="114.216" y2="188.863" stroke="#141414" stroke-width="0.4"/>
<line x1="114.216" y1="188.863" x2="126.152" y2="172.435" stroke="#141414" stroke-width="0.4"/>
<line x1="126.152" y1="172.435" x2="124.503" y2="165.858" stroke="#141414" stroke-width="0.4"/>
<line x1="196.733" y1="66.442" x2="198.382" y2="59.865" stroke="#141414" stroke-width="0.4"/>
<line x1="198.382" y1="59.865" x2="186.446" y2="43.437" stroke="#141414" stroke-width="0.4"/>
<line x1="186.446" y1="43.437" x2="179.682" y2="42.973" stroke="#141414" stroke-width="0.4"/>
<line x1="7.633" y1="51.938" x2="10.164" y2="45.648" stroke="#141414" stroke-width="0.4"/>
<line x1="10.164" y1="45.648" x2="29.477" y2="39.373" stroke="#141414" stroke-width="0.4"/>
<line x1="29.477" y1="39.373" x2="35.222" y2="42.973" stroke="#141414" stroke-width="0.4"/>
<line x1="79.863" y1="227.3" x2="85.608" y2="230.901" stroke="#141414" stroke-width="0.4"/>
<line x1="85.608" y1="230.901" x2="104.92" y2="224.626" stroke="#141414" stroke-width="0.4"/>
<line x1="104.92" y1="224.626" x2="107.452" y2="218.336" stroke="#141414" stroke-width="0.4"/>
<line x1="79.863" y1="227.3" x2="73.098" y2="226.837" stroke="#141414" stroke-width="0.4"/>
<line x1="73.098" y1="226.837" x2="61.162" y2="210.408" stroke="#141414" stroke-width="0.4"/>
<line x1="61.162" y1="210.408" x2="62.812" y2="203.832" stroke="#141414" stroke-width="0.4"/>
<line x1="107.452" y1="142.389" x2="114.216" y2="142.853" stroke="#141414" stroke-width="0.4"/>
<line x1="114.216" y1="142.853" x2="126.152" y2="159.281" stroke="#141414" stroke-width="0.4"/>
<line x1="126.152" y1="159.281" x2="124.503" y2="165.858" stroke="#141414" stroke-width="0.4"/>
<line x1="62.812" y1="51.938" x2="61.162" y2="45.361" stroke="#141414" stroke-width="0.4"/>
<line x1="61.162" y1="45.361" x2="73.098" y2="28.933" stroke="#141414" stroke-width="0.4"/>
<line x1="73.098" y1="28.933" x2="79.863" y2="28.469" stroke="#141414" stroke-width="0.4"/>
<line x1="79.863" y1="104.416" x2="77.331" y2="110.706" stroke="#141414" stroke-width="0.4"/>
<line x1="77.331" y1="110.706" x2="58.019" y2="116.981" stroke="#141414" stroke-width="0.4"/>
<line x1="58.019" y1="116.981" x2="52.273" y2="113.38" stroke="#141414" stroke-width="0.4"/>
<line x1="152.092" y1="51.938" x2="154.624" y2="45.648" stroke="#141414" stroke-width="0.4"/>
<line x1="154.624" y1="45.648" x2="173.936" y2="39.373" stroke="#141414" stroke-width="0.4"/>
<line x1="173.936" y1="39.373" x2="179.682" y2="42.973" stroke="#141414" stroke-width="0.4"/>
<line x1="7.633" y1="127.885" x2="2.433" y2="123.533" stroke="#141414" stroke-width="0.4"/>
<line x1="2.433" y1="123.533" x2="2.433" y2="103.227" stroke="#141414" stroke-width="0.4"/>
<line x1="2.433" y1="103.227" x2="7.633" y2="98.876" stroke="#141414" stroke-width="0.4"/>
<circle cx="110.052" cy="127.885" r="2.29" fill="#ffe082" stroke="#464646" stroke-width="0.2"/>
<text x="110.052" y="128.97" font-size="3.11" text-anchor="middle" fill="#141414">1</text>
<circle cx="66.871" cy="68.452" r="2.29" fill="#ffe082" stroke="#464646" stroke-width="0.2"/>
<text x="66.871" y="69.54" font-size="3.11" text-anchor="middle" fill="#141414">2</text>
<circle cx="154.692" cy="113.38" r="2.29" fill="#ffe082" stroke="#464646" stroke-width="0.2"/>
<text x="154.692" y="114.47" font-size="3.11" text-anchor="middle" fill="#141414">3</text>
<circle cx="139.101" cy="87.902" r="2.29" fill="#ffe082" stroke="#464646" stroke-width="0.2"/>
<text x="139.101" y="88.99" font-size="3.11" text-anchor="middle" fill="#141414">4</text>
<circle cx="94.461" cy="30.478" r="2.29" fill="#ffe082" stroke="#464646" stroke-width="0.2"/>
<text x="94.461" y="31.56" font-size="3.11" text-anchor="middle" fill="#141414">5</text>
<circle cx="113.874" cy="53.18" r="2.29" fill="#ffe082" stroke="#464646" stroke-width="0.2"/>
<text x="113.874" y="54.27" font-size="3.11" text-anchor="middle" fill="#141414">6</text>
<circle cx="69.234" cy="141.147" r="2.29" fill="#ffe082" stroke="#464646" stroke-width="0.2"/>
<text x="69.234" y="142.23" font-size="3.11" text-anchor="middle" fill="#141414">7</text>
<circle cx="77.263" cy="165.858" r="2.29" fill="#ffe082" stroke="#464646" stroke-width="0.2"/>
<text x="77.263" y="166.94" font-size="3.11" text-anchor="middle" fill="#141414">8</text>
<circle cx="20.624" cy="91.921" r="2.29" fill="#ffe082" stroke="#464646" stroke-width="0.2"/>
<text x="20.624" y="93.01" font-size="3.11" text-anchor="middle" fill="#141414">9</text>
<circle cx="118.081" cy="179.121" r="2.29" fill="#ffe082" stroke="#464646" stroke-width="0.2"/>
<text x="118.081" y="180.21" font-size="3.11" text-anchor="middle" fill="#141414">10</text>
<circle cx="190.311" cy="53.18" r="2.29" fill="#ffe082" stroke="#464646" stroke-width="0.2"/>
<text x="190.311" y="54.27" font-size="3.11" text-anchor="middle" fill="#141414">11</text>
<circle cx="20.624" cy="44.983" r="2.29" fill="#ffe082" stroke="#464646" stroke-width="0.2"/>
<text x="20.624" y="46.07" font-size="3.11" text-anchor="middle" fill="#141414">12</text>
<circle cx="94.461" cy="225.291" r="2.29" fill="#ffe082" stroke="#464646" stroke-width="0.2"/>
<text x="94.461" y="226.38" font-size="3.11" text-anchor="middle" fill="#141414">13</text>
<circle cx="69.234" cy="217.094" r="2.29" fill="#ffe082" stroke="#464646" stroke-width="0.2"/>
<text x="69.234" y="218.18" font-size="3.11" text-anchor="middle" fill="#141414">14</text>
<circle cx="118.081" cy="152.595" r="2.29" fill="#ffe082" stroke="#464646" stroke-width="0.2"/>
<text x="118.081" y="153.68" font-size="3.11" text-anchor="middle" fill="#141414">15</text>
<circle cx="69.234" cy="38.675" r="2.29" fill="#ffe082" stroke="#464646" stroke-width="0.2"/>
<text x="69.234" y="39.76" font-size="3.11" text-anchor="middle" fill="#141414">16</text>
<circle cx="66.871" cy="111.371" r="2.29" fill="#ffe082" stroke="#464646" stroke-width="0.2"/>
<text x="66.871" y="112.46" font-size="3.11" text-anchor="middle" fill="#141414">17</text>
<circle cx="165.084" cy="44.983" r="2.29" fill="#ffe082" stroke="#464646" stroke-width="0.2"/>
<text x="165.084" y="46.07" font-size="3.11" text-anchor="middle" fill="#141414">18</text>
<circle cx="5.033" cy="113.38" r="2.29" fill="#ffe082" stroke="#464646" stroke-width="0.2"/>
<text x="5.033" y="114.47" font-size="3.11" text-anchor="middle" fill="#141414">19</text>
<g pointer-events="none"><text x="105.0" y="83.2" text-anchor="middle" font-family="sans-serif" font-size="12.4" fill="#9aa0a6" fill-opacity="0.3" transform="rotate(-28 105.0 83.2)">papercraft.kr</text><text x="105.0" y="148.5" text-anchor="middle" font-family="sans-serif" font-size="12.4" fill="#9aa0a6" fill-opacity="0.3" transform="rotate(-28 105.0 148.5)">papercraft.kr</text><text x="105.0" y="213.8" text-anchor="middle" font-family="sans-serif" font-size="12.4" fill="#9aa0a6" fill-opacity="0.3" transform="rotate(-28 105.0 213.8)">papercraft.kr</text></g></svg>
