<svg xmlns="http://www.w3.org/2000/svg" xmlns:xlink="http://www.w3.org/1999/xlink" width="210.00mm" height="297.00mm" viewBox="0 0 210.00 297.00">
<rect x="0" y="0" width="210.00" height="297.00" fill="#ffffff" stroke="#cccccc" stroke-width="0.2"/>
<polygon points="83.14,90.748 88.774,87.155 90.952,67.69 86.25,62.94" fill="rgb(216,216,216)"/>
<polygon points="83.14,90.748 92.99,94.353 120.418,126.836 122.322,137.151" fill="rgb(216,216,216)"/>
<polygon points="49.818,90.748 31.188,96.644 24.017,96.91 5.0,92.414" fill="rgb(216,216,216)"/>
<polygon points="9.19,109.742 36.699,113.776 47.094,113.335 74.162,106.979" fill="rgb(216,216,216)"/>
<polygon points="5.0,92.414 12.609,80.893 61.84,47.143 75.33,44.199" fill="rgb(216,216,216)"/>
<polygon points="75.33,44.199 68.775,40.993 61.201,18.333 64.509,11.829" fill="rgb(216,216,216)"/>
<polygon points="64.509,11.829 71.835,9.486 95.842,20.578 98.806,27.676" fill="rgb(216,216,216)"/>
<polygon points="77.617,147.381 68.798,148.252 43.742,170.474 41.823,179.126" fill="rgb(216,216,216)"/>
<polygon points="116.732,57.644 118.506,50.479 105.957,29.502 98.806,27.676" fill="rgb(216,216,216)"/>
<polygon points="57.158,182.72 69.913,180.146 115.528,148.248 122.322,137.151" fill="rgb(216,216,216)"/>
<polygon points="57.158,182.72 53.672,187.244 42.937,184.728 41.823,179.126" fill="rgb(216,216,216)"/>
<line x1="49.818" y1="90.748" x2="83.14" y2="90.748" stroke="#8c8c8c" stroke-width="0.3" stroke-dasharray="1.2,0.8"/>
<line x1="83.14" y1="90.748" x2="74.162" y2="106.979" stroke="#8c8c8c" stroke-width="0.3" stroke-dasharray="1.2,0.8"/>
<line x1="49.818" y1="90.748" x2="86.251" y2="62.94" stroke="#8c8c8c" stroke-width="0.3" stroke-dasharray="1.2,0.8"/>
<line x1="5.0" y1="92.414" x2="86.251" y2="62.94" stroke="#8c8c8c" stroke-width="0.3" stroke-dasharray="1.2,0.8"/>
<line x1="99.003" y1="120.78" x2="74.162" y2="106.979" stroke="#8c8c8c" stroke-width="0.3" stroke-dasharray="1.2,0.8"/>
<line x1="98.806" y1="27.676" x2="86.251" y2="62.94" stroke="#8c8c8c" stroke-width="0.3" stroke-dasharray="1.2,0.8"/>
<line x1="77.617" y1="147.381" x2="57.158" y2="182.72" stroke="#8c8c8c" stroke-width="0.3" stroke-dasharray="1.2,0.8"/>
<line x1="83.14" y1="90.748" x2="99.003" y2="120.78" stroke="#8c8c8c" stroke-width="0.3" stroke-dasharray="1.2,0.8"/>
<line x1="74.162" y1="106.979" x2="49.818" y2="90.748" stroke="#8c8c8c" stroke-width="0.3" stroke-dasharray="1.2,0.8"/>
<line x1="75.33" y1="44.199" x2="86.251" y2="62.94" stroke="#8c8c8c" stroke-width="0.3" stroke-dasharray="1.2,0.8"/>
<line x1="75.33" y1="44.199" x2="98.806" y2="27.676" stroke="#8c8c8c" stroke-width="0.3" stroke-dasharray="1.2,0.8"/>
<line x1="99.003" y1="120.78" x2="122.322" y2="137.151" stroke="#8c8c8c" stroke-width="0.3" stroke-dasharray="1.2,0.8"/>
<line x1="122.322" y1="137.151" x2="77.617" y2="147.381" stroke="#8c8c8c" stroke-width="0.3" stroke-dasharray="1.2,0.8"/>
<line x1="86.25" y1="62.94" x2="83.14" y2="90.748" stroke="#8c8c8c" stroke-width="0.3" stroke-dasharray="1.2,0.8"/>
<line x1="122.322" y1="137.151" x2="83.14" y2="90.748" stroke="#8c8c8c" stroke-width="0.3" stroke-dasharray="1.2,0.8"/>
<line x1="5.0" y1="92.414" x2="49.818" y2="90.748" stroke="#8c8c8c" stroke-width="0.3" stroke-dasharray="1.2,0.8"/>
<line x1="74.162" y1="106.979" x2="9.19" y2="109.742" stroke="#8c8c8c" stroke-width="0.3" stroke-dasharray="1.2,0.8"/>
<line x1="75.33" y1="44.199" x2="5.0" y2="92.414" stroke="#8c8c8c" stroke-width="0.3" stroke-dasharray="1.2,0.8"/>
<line x1="64.509" y1="11.829" x2="75.33" y2="44.199" stroke="#8c8c8c" stroke-width="0.3" stroke-dasharray="1.2,0.8"/>
<line x1="98.806" y1="27.676" x2="64.509" y2="11.829" stroke="#8c8c8c" stroke-width="0.3" stroke-dasharray="1.2,0.8"/>
<line x1="41.823" y1="179.126" x2="77.617" y2="147.381" stroke="#8c8c8c" stroke-width="0.3" stroke-dasharray="1.2,0.8"/>
<line x1="98.806" y1="27.676" x2="116.732" y2="57.644" stroke="#8c8c8c" stroke-width="0.3" stroke-dasharray="1.2,0.8"/>
<line x1="122.322" y1="137.151" x2="57.158" y2="182.72" stroke="#8c8c8c" stroke-width="0.3" stroke-dasharray="1.2,0.8"/>
<line x1="41.823" y1="179.126" x2="57.158" y2="182.72" stroke="#8c8c8c" stroke-width="0.3" stroke-dasharray="1.2,0.8"/>
<line x1="9.19" y1="109.742" x2="49.818" y2="90.748" stroke="#141414" stroke-width="0.4"/>
<line x1="14.637" y1="133.167" x2="74.162" y2="106.979" stroke="#141414" stroke-width="0.4"/>
<line x1="99.003" y1="120.78" x2="14.637" y2="133.167" stroke="#141414" stroke-width="0.4"/>
<line x1="116.732" y1="57.644" x2="86.251" y2="62.94" stroke="#141414" stroke-width="0.4"/>
<line x1="77.617" y1="147.381" x2="99.003" y2="120.78" stroke="#141414" stroke-width="0.4"/>
<line x1="83.14" y1="90.748" x2="88.774" y2="87.155" stroke="#141414" stroke-width="0.4"/>
<line x1="88.774" y1="87.155" x2="90.952" y2="67.69" stroke="#141414" stroke-width="0.4"/>
<line x1="90.952" y1="67.69" x2="86.25" y2="62.94" stroke="#141414" stroke-width="0.4"/>
<line x1="83.14" y1="90.748" x2="92.99" y2="94.353" stroke="#141414" stroke-width="0.4"/>
<line x1="92.99" y1="94.353" x2="120.418" y2="126.836" stroke="#141414" stroke-width="0.4"/>
<line x1="120.418" y1="126.836" x2="122.322" y2="137.151" stroke="#141414" stroke-width="0.4"/>
<line x1="49.818" y1="90.748" x2="31.188" y2="96.644" stroke="#141414" stroke-width="0.4"/>
<line x1="31.188" y1="96.644" x2="24.017" y2="96.91" stroke="#141414" stroke-width="0.4"/>
<line x1="24.017" y1="96.91" x2="5.0" y2="92.414" stroke="#141414" stroke-width="0.4"/>
<line x1="9.19" y1="109.742" x2="36.699" y2="113.776" stroke="#141414" stroke-width="0.4"/>
<line x1="36.699" y1="113.776" x2="47.094" y2="113.335" stroke="#141414" stroke-width="0.4"/>
<line x1="47.094" y1="113.335" x2="74.162" y2="106.979" stroke="#141414" stroke-width="0.4"/>
<line x1="5.0" y1="92.414" x2="12.609" y2="80.893" stroke="#141414" stroke-width="0.4"/>
<line x1="12.609" y1="80.893" x2="61.84" y2="47.143" stroke="#141414" stroke-width="0.4"/>
<line x1="61.84" y1="47.143" x2="75.33" y2="44.199" stroke="#141414" stroke-width="0.4"/>
<line x1="75.33" y1="44.199" x2="68.775" y2="40.993" stroke="#141414" stroke-width="0.4"/>
<line x1="68.775" y1="40.993" x2="61.201" y2="18.333" stroke="#141414" stroke-width="0.4"/>
<line x1="61.201" y1="18.333" x2="64.509" y2="11.829" stroke="#141414" stroke-width="0.4"/>
<line x1="64.509" y1="11.829" x2="71.835" y2="9.486" stroke="#141414" stroke-width="0.4"/>
<line x1="71.835" y1="9.486" x2="95.842" y2="20.578" stroke="#141414" stroke-width="0.4"/>
<line x1="95.842" y1="20.578" x2="98.806" y2="27.676" stroke="#141414" stroke-width="0.4"/>
<line x1="77.617" y1="147.381" x2="68.798" y2="148.252" stroke="#141414" stroke-width="0.4"/>
<line x1="68.798" y1="148.252" x2="43.742" y2="170.474" stroke="#141414" stroke-width="0.4"/>
<line x1="43.742" y1="170.474" x2="41.823" y2="179.126" stroke="#141414" stroke-width="0.4"/>
<line x1="116.732" y1="57.644" x2="118.506" y2="50.479" stroke="#141414" stroke-width="0.4"/>
<line x1="118.506" y1="50.479" x2="105.957" y2="29.502" stroke="#141414" stroke-width="0.4"/>
<line x1="105.957" y1="29.502" x2="98.806" y2="27.676" stroke="#141414" stroke-width="0.4"/>
<line x1="57.158" y1="182.72" x2="69.913" y2="180.146" stroke="#141414" stroke-width="0.4"/>
<line x1="69.913" y1="180.146" x2="115.528" y2="148.248" stroke="#141414" stroke-width="0.4"/>
<line x1="115.528" y1="148.248" x2="122.322" y2="137.151" stroke="#141414" stroke-width="0.4"/>
<line x1="57.158" y1="182.72" x2="53.672" y2="187.244" stroke="#141414" stroke-width="0.4"/>
<line x1="53.672" y1="187.244" x2="42.937" y2="184.728" stroke="#141414" stroke-width="0.4"/>
<line x1="42.937" y1="184.728" x2="41.823" y2="179.126" stroke="#141414" stroke-width="0.4"/>
<circle cx="87.279" cy="77.133" r="0.97" fill="#ffe082" stroke="#464646" stroke-width="0.2"/>
<text x="87.279" y="77.60" font-size="1.32" text-anchor="middle" fill="#141414">4</text>
<circle cx="104.718" cy="112.272" r="0.97" fill="#ffe082" stroke="#464646" stroke-width="0.2"/>
<text x="104.718" y="112.73" font-size="1.32" text-anchor="middle" fill="#141414">5</text>
<circle cx="27.506" cy="94.179" r="0.97" fill="#ffe082" stroke="#464646" stroke-width="0.2"/>
<text x="27.506" y="94.64" font-size="1.32" text-anchor="middle" fill="#141414">9</text>
<circle cx="41.786" cy="110.958" r="0.97" fill="#ffe082" stroke="#464646" stroke-width="0.2"/>
<text x="41.786" y="111.42" font-size="1.32" text-anchor="middle" fill="#141414">10</text>
<circle cx="38.695" cy="66.162" r="0.97" fill="#ffe082" stroke="#464646" stroke-width="0.2"/>
<text x="38.695" y="66.62" font-size="1.32" text-anchor="middle" fill="#141414">11</text>
<circle cx="67.454" cy="28.839" r="0.97" fill="#ffe082" stroke="#464646" stroke-width="0.2"/>
<text x="67.454" y="29.30" font-size="1.32" text-anchor="middle" fill="#141414">15</text>
<circle cx="82.748" cy="17.392" r="0.97" fill="#ffe082" stroke="#464646" stroke-width="0.2"/>
<text x="82.748" y="17.85" font-size="1.32" text-anchor="middle" fill="#141414">21</text>
<circle cx="57.995" cy="161.308" r="0.97" fill="#ffe082" stroke="#464646" stroke-width="0.2"/>
<text x="57.995" y="161.77" font-size="1.32" text-anchor="middle" fill="#141414">22</text>
<circle cx="110.0" cy="41.325" r="0.97" fill="#ffe082" stroke="#464646" stroke-width="0.2"/>
<text x="110.0" y="41.79" font-size="1.32" text-anchor="middle" fill="#141414">25</text>
<circle cx="91.23" cy="162.066" r="0.97" fill="#ffe082" stroke="#464646" stroke-width="0.2"/>
<text x="91.23" y="162.53" font-size="1.32" text-anchor="middle" fill="#141414">26</text>
<circle cx="48.898" cy="183.455" r="0.97" fill="#ffe082" stroke="#464646" stroke-width="0.2"/>
<text x="48.898" y="183.92" font-size="1.32" text-anchor="middle" fill="#141414">27</text>
<circle cx="63.661" cy="188.858" r="4.6" fill="#eaf1fe" stroke="#2e78e6" stroke-width="0.3"/>
<text x="63.661" y="190.65800000000002" font-size="5.2" text-anchor="middle" fill="#14306e" font-weight="bold">5</text>
<line x1="91.991" y1="210.438" x2="5.0" y2="185.758" stroke="#8c8c8c" stroke-width="0.3" stroke-dasharray="1.2,0.8"/>
<line x1="91.991" y1="210.438" x2="80.013" y2="233.026" stroke="#8c8c8c" stroke-width="0.3" stroke-dasharray="1.2,0.8"/>
<line x1="80.013" y1="233.026" x2="5.0" y2="185.758" stroke="#141414" stroke-width="0.4"/>
<line x1="5.0" y1="185.758" x2="93.82" y2="185.758" stroke="#141414" stroke-width="0.4"/>
<line x1="123.758" y1="208.176" x2="80.013" y2="233.026" stroke="#141414" stroke-width="0.4"/>
<line x1="93.82" y1="185.758" x2="91.991" y2="210.438" stroke="#141414" stroke-width="0.4"/>
<line x1="91.991" y1="210.438" x2="123.758" y2="208.176" stroke="#141414" stroke-width="0.4"/>
<circle cx="64.379" cy="179.658" r="4.6" fill="#eaf1fe" stroke="#2e78e6" stroke-width="0.3"/>
<text x="64.379" y="181.458" font-size="5.2" text-anchor="middle" fill="#14306e" font-weight="bold">6</text>
<g pointer-events="none"><text x="105.0" y="89.1" text-anchor="middle" font-family="sans-serif" font-size="21.2" fill="#9aa0a6" fill-opacity="0.33" transform="rotate(-28 105.0 89.1)">papercraft.kr 미리보기</text><text x="105.0" y="163.4" text-anchor="middle" font-family="sans-serif" font-size="21.2" fill="#9aa0a6" fill-opacity="0.33" transform="rotate(-28 105.0 163.4)">papercraft.kr 미리보기</text><text x="105.0" y="237.6" text-anchor="middle" font-family="sans-serif" font-size="21.2" fill="#9aa0a6" fill-opacity="0.33" transform="rotate(-28 105.0 237.6)">papercraft.kr 미리보기</text></g></svg>
