<svg xmlns="http://www.w3.org/2000/svg" xmlns:xlink="http://www.w3.org/1999/xlink" width="210.00mm" height="297.00mm" viewBox="0 0 210.00 297.00">
<rect x="0" y="0" width="210.00" height="297.00" fill="#ffffff" stroke="#cccccc" stroke-width="0.2"/>
<polygon points="39.167,116.796 34.326,121.218 38.139,129.139 44.614,128.112" fill="rgb(216,216,216)"/>
<polygon points="39.167,116.796 34.327,112.373 38.144,104.452 44.62,105.481" fill="rgb(216,216,216)"/>
<polygon points="83.009,39.729 83.606,33.196 82.475,32.054 75.936,32.594" fill="rgb(216,216,216)"/>
<polygon points="83.009,39.729 87.538,37.083 92.683,41.88 90.358,46.583" fill="rgb(216,216,216)"/>
<polygon points="44.614,128.112 45.054,134.654 53.626,136.611 56.86,130.907" fill="rgb(216,216,216)"/>
<polygon points="56.86,130.907 62.249,134.644 69.125,129.162 66.683,123.076" fill="rgb(216,216,216)"/>
<polygon points="69.149,25.184 70.26,18.716 69.222,17.488 62.659,17.511" fill="rgb(216,216,216)"/>
<polygon points="66.683,123.076 72.963,121.194 72.965,112.402 66.686,110.517" fill="rgb(216,216,216)"/>
<polygon points="62.659,17.511 65.691,13.231 61.362,7.688 56.475,9.592" fill="rgb(216,216,216)"/>
<polygon points="5.0,48.243 8.518,36.848 44.55,9.792 56.475,9.592" fill="rgb(216,216,216)"/>
<polygon points="105.823,59.411 107.777,54.544 102.279,50.159 97.968,53.147" fill="rgb(216,216,216)"/>
<polygon points="56.867,102.686 51.795,97.401 46.896,98.519 44.62,105.481" fill="rgb(216,216,216)"/>
<polygon points="97.968,53.147 100.109,48.357 94.782,43.762 90.358,46.583" fill="rgb(216,216,216)"/>
<polygon points="39.167,116.796 34.327,112.373 38.144,104.452 44.62,105.481" fill="#99d9fa"/>
<line x1="83.009" y1="39.729" x2="38.168" y2="85.914" stroke="#8c8c8c" stroke-width="0.3" stroke-dasharray="1.2,0.8"/>
<line x1="29.327" y1="76.995" x2="75.936" y2="32.594" stroke="#8c8c8c" stroke-width="0.3" stroke-dasharray="1.2,0.8"/>
<line x1="69.149" y1="25.184" x2="75.936" y2="32.594" stroke="#8c8c8c" stroke-width="0.3" stroke-dasharray="1.2,0.8"/>
<line x1="20.843" y1="67.732" x2="69.149" y2="25.184" stroke="#8c8c8c" stroke-width="0.3" stroke-dasharray="1.2,0.8"/>
<line x1="12.731" y1="58.141" x2="62.659" y2="17.511" stroke="#8c8c8c" stroke-width="0.3" stroke-dasharray="1.2,0.8"/>
<line x1="56.867" y1="102.686" x2="66.686" y2="110.517" stroke="#8c8c8c" stroke-width="0.3" stroke-dasharray="1.2,0.8"/>
<line x1="56.867" y1="102.686" x2="97.968" y2="53.147" stroke="#8c8c8c" stroke-width="0.3" stroke-dasharray="1.2,0.8"/>
<line x1="47.355" y1="94.481" x2="90.358" y2="46.583" stroke="#8c8c8c" stroke-width="0.3" stroke-dasharray="1.2,0.8"/>
<line x1="44.614" y1="128.112" x2="39.167" y2="116.796" stroke="#8c8c8c" stroke-width="0.3" stroke-dasharray="1.2,0.8"/>
<line x1="44.62" y1="105.481" x2="39.167" y2="116.796" stroke="#8c8c8c" stroke-width="0.3" stroke-dasharray="1.2,0.8"/>
<line x1="75.936" y1="32.594" x2="83.009" y2="39.729" stroke="#8c8c8c" stroke-width="0.3" stroke-dasharray="1.2,0.8"/>
<line x1="90.358" y1="46.583" x2="83.009" y2="39.729" stroke="#8c8c8c" stroke-width="0.3" stroke-dasharray="1.2,0.8"/>
<line x1="56.86" y1="130.907" x2="44.614" y2="128.112" stroke="#8c8c8c" stroke-width="0.3" stroke-dasharray="1.2,0.8"/>
<line x1="66.683" y1="123.076" x2="56.86" y2="130.907" stroke="#8c8c8c" stroke-width="0.3" stroke-dasharray="1.2,0.8"/>
<line x1="62.659" y1="17.511" x2="69.149" y2="25.184" stroke="#8c8c8c" stroke-width="0.3" stroke-dasharray="1.2,0.8"/>
<line x1="66.686" y1="110.517" x2="66.683" y2="123.076" stroke="#8c8c8c" stroke-width="0.3" stroke-dasharray="1.2,0.8"/>
<line x1="56.475" y1="9.592" x2="62.659" y2="17.511" stroke="#8c8c8c" stroke-width="0.3" stroke-dasharray="1.2,0.8"/>
<line x1="56.475" y1="9.592" x2="5.0" y2="48.243" stroke="#8c8c8c" stroke-width="0.3" stroke-dasharray="1.2,0.8"/>
<line x1="97.968" y1="53.147" x2="105.823" y2="59.411" stroke="#8c8c8c" stroke-width="0.3" stroke-dasharray="1.2,0.8"/>
<line x1="44.62" y1="105.481" x2="56.867" y2="102.686" stroke="#8c8c8c" stroke-width="0.3" stroke-dasharray="1.2,0.8"/>
<line x1="90.358" y1="46.583" x2="97.968" y2="53.147" stroke="#8c8c8c" stroke-width="0.3" stroke-dasharray="1.2,0.8"/>
<line x1="38.168" y1="85.914" x2="29.327" y2="76.995" stroke="#141414" stroke-width="0.4"/>
<line x1="47.355" y1="94.481" x2="38.168" y2="85.914" stroke="#141414" stroke-width="0.4"/>
<line x1="85.96" y1="31.907" x2="75.936" y2="32.594" stroke="#141414" stroke-width="0.4"/>
<line x1="91.672" y1="23.639" x2="85.96" y2="31.907" stroke="#141414" stroke-width="0.4"/>
<line x1="29.327" y1="76.995" x2="20.843" y2="67.732" stroke="#141414" stroke-width="0.4"/>
<line x1="20.843" y1="67.732" x2="12.731" y2="58.141" stroke="#141414" stroke-width="0.4"/>
<line x1="69.149" y1="25.184" x2="70.71" y2="15.256" stroke="#141414" stroke-width="0.4"/>
<line x1="12.731" y1="58.141" x2="5.0" y2="48.243" stroke="#141414" stroke-width="0.4"/>
<line x1="70.71" y1="15.256" x2="79.442" y2="10.286" stroke="#141414" stroke-width="0.4"/>
<line x1="105.823" y1="59.411" x2="66.686" y2="110.517" stroke="#141414" stroke-width="0.4"/>
<line x1="79.442" y1="10.286" x2="88.771" y2="14.018" stroke="#141414" stroke-width="0.4"/>
<line x1="56.867" y1="102.686" x2="47.355" y2="94.481" stroke="#141414" stroke-width="0.4"/>
<line x1="88.771" y1="14.018" x2="91.672" y2="23.639" stroke="#141414" stroke-width="0.4"/>
<line x1="39.167" y1="116.796" x2="34.326" y2="121.218" stroke="#141414" stroke-width="0.4"/>
<line x1="34.326" y1="121.218" x2="38.139" y2="129.139" stroke="#141414" stroke-width="0.4"/>
<line x1="38.139" y1="129.139" x2="44.614" y2="128.112" stroke="#141414" stroke-width="0.4"/>
<line x1="39.167" y1="116.796" x2="34.327" y2="112.373" stroke="#141414" stroke-width="0.4"/>
<line x1="34.327" y1="112.373" x2="38.144" y2="104.452" stroke="#141414" stroke-width="0.4"/>
<line x1="38.144" y1="104.452" x2="44.62" y2="105.481" stroke="#141414" stroke-width="0.4"/>
<line x1="83.009" y1="39.729" x2="83.606" y2="33.196" stroke="#141414" stroke-width="0.4"/>
<line x1="83.606" y1="33.196" x2="82.475" y2="32.054" stroke="#141414" stroke-width="0.4"/>
<line x1="82.475" y1="32.054" x2="75.936" y2="32.594" stroke="#141414" stroke-width="0.4"/>
<line x1="83.009" y1="39.729" x2="87.538" y2="37.083" stroke="#141414" stroke-width="0.4"/>
<line x1="87.538" y1="37.083" x2="92.683" y2="41.88" stroke="#141414" stroke-width="0.4"/>
<line x1="92.683" y1="41.88" x2="90.358" y2="46.583" stroke="#141414" stroke-width="0.4"/>
<line x1="44.614" y1="128.112" x2="45.054" y2="134.654" stroke="#141414" stroke-width="0.4"/>
<line x1="45.054" y1="134.654" x2="53.626" y2="136.611" stroke="#141414" stroke-width="0.4"/>
<line x1="53.626" y1="136.611" x2="56.86" y2="130.907" stroke="#141414" stroke-width="0.4"/>
<line x1="56.86" y1="130.907" x2="62.249" y2="134.644" stroke="#141414" stroke-width="0.4"/>
<line x1="62.249" y1="134.644" x2="69.125" y2="129.162" stroke="#141414" stroke-width="0.4"/>
<line x1="69.125" y1="129.162" x2="66.683" y2="123.076" stroke="#141414" stroke-width="0.4"/>
<line x1="69.149" y1="25.184" x2="70.26" y2="18.716" stroke="#141414" stroke-width="0.4"/>
<line x1="70.26" y1="18.716" x2="69.222" y2="17.488" stroke="#141414" stroke-width="0.4"/>
<line x1="69.222" y1="17.488" x2="62.659" y2="17.511" stroke="#141414" stroke-width="0.4"/>
<line x1="66.683" y1="123.076" x2="72.963" y2="121.194" stroke="#141414" stroke-width="0.4"/>
<line x1="72.963" y1="121.194" x2="72.965" y2="112.402" stroke="#141414" stroke-width="0.4"/>
<line x1="72.965" y1="112.402" x2="66.686" y2="110.517" stroke="#141414" stroke-width="0.4"/>
<line x1="62.659" y1="17.511" x2="65.691" y2="13.231" stroke="#141414" stroke-width="0.4"/>
<line x1="65.691" y1="13.231" x2="61.362" y2="7.688" stroke="#141414" stroke-width="0.4"/>
<line x1="61.362" y1="7.688" x2="56.475" y2="9.592" stroke="#141414" stroke-width="0.4"/>
<line x1="5.0" y1="48.243" x2="8.518" y2="36.848" stroke="#141414" stroke-width="0.4"/>
<line x1="8.518" y1="36.848" x2="44.55" y2="9.792" stroke="#141414" stroke-width="0.4"/>
<line x1="44.55" y1="9.792" x2="56.475" y2="9.592" stroke="#141414" stroke-width="0.4"/>
<line x1="105.823" y1="59.411" x2="107.777" y2="54.544" stroke="#141414" stroke-width="0.4"/>
<line x1="107.777" y1="54.544" x2="102.279" y2="50.159" stroke="#141414" stroke-width="0.4"/>
<line x1="102.279" y1="50.159" x2="97.968" y2="53.147" stroke="#141414" stroke-width="0.4"/>
<line x1="56.867" y1="102.686" x2="51.795" y2="97.401" stroke="#141414" stroke-width="0.4"/>
<line x1="51.795" y1="97.401" x2="46.896" y2="98.519" stroke="#141414" stroke-width="0.4"/>
<line x1="46.896" y1="98.519" x2="44.62" y2="105.481" stroke="#141414" stroke-width="0.4"/>
<line x1="97.968" y1="53.147" x2="100.109" y2="48.357" stroke="#141414" stroke-width="0.4"/>
<line x1="100.109" y1="48.357" x2="94.782" y2="43.762" stroke="#141414" stroke-width="0.4"/>
<line x1="94.782" y1="43.762" x2="90.358" y2="46.583" stroke="#141414" stroke-width="0.4"/>
<circle cx="39.062" cy="123.816" r="0.94" fill="#ffe082" stroke="#464646" stroke-width="0.2"/>
<text x="39.062" y="124.14" font-size="0.92" text-anchor="middle" fill="#141414">37</text>
<circle cx="39.064" cy="109.775" r="0.94" fill="#99d9fa" stroke="#464646" stroke-width="0.2"/>
<text x="39.064" y="110.10" font-size="0.92" text-anchor="middle" fill="#141414">38</text>
<circle cx="81.257" cy="34.393" r="0.94" fill="#ffe082" stroke="#464646" stroke-width="0.2"/>
<text x="81.257" y="34.72" font-size="0.92" text-anchor="middle" fill="#141414">39</text>
<circle cx="88.397" cy="41.319" r="0.94" fill="#ffe082" stroke="#464646" stroke-width="0.2"/>
<text x="88.397" y="41.64" font-size="0.92" text-anchor="middle" fill="#141414">40</text>
<circle cx="50.039" cy="132.571" r="0.94" fill="#ffe082" stroke="#464646" stroke-width="0.2"/>
<text x="50.039" y="132.89" font-size="0.92" text-anchor="middle" fill="#141414">41</text>
<circle cx="63.729" cy="129.447" r="0.94" fill="#ffe082" stroke="#464646" stroke-width="0.2"/>
<text x="63.729" y="129.77" font-size="0.92" text-anchor="middle" fill="#141414">42</text>
<circle cx="67.822" cy="19.725" r="0.94" fill="#ffe082" stroke="#464646" stroke-width="0.2"/>
<text x="67.822" y="20.05" font-size="0.92" text-anchor="middle" fill="#141414">43</text>
<circle cx="69.824" cy="116.797" r="0.94" fill="#ffe082" stroke="#464646" stroke-width="0.2"/>
<text x="69.824" y="117.12" font-size="0.92" text-anchor="middle" fill="#141414">44</text>
<circle cx="61.546" cy="12.005" r="0.94" fill="#ffe082" stroke="#464646" stroke-width="0.2"/>
<text x="61.546" y="12.33" font-size="0.92" text-anchor="middle" fill="#141414">45</text>
<circle cx="28.636" cy="26.119" r="0.94" fill="#ffe082" stroke="#464646" stroke-width="0.2"/>
<text x="28.636" y="26.44" font-size="0.92" text-anchor="middle" fill="#141414">46</text>
<circle cx="103.462" cy="54.315" r="0.94" fill="#ffe082" stroke="#464646" stroke-width="0.2"/>
<text x="103.462" y="54.64" font-size="0.92" text-anchor="middle" fill="#141414">47</text>
<circle cx="50.045" cy="101.022" r="0.94" fill="#ffe082" stroke="#464646" stroke-width="0.2"/>
<text x="50.045" y="101.34" font-size="0.92" text-anchor="middle" fill="#141414">48</text>
<circle cx="95.804" cy="47.962" r="0.94" fill="#ffe082" stroke="#464646" stroke-width="0.2"/>
<text x="95.804" y="48.28" font-size="0.92" text-anchor="middle" fill="#141414">49</text>
<circle cx="56.389" cy="140.023" r="4.6" fill="#eaf1fe" stroke="#2e78e6" stroke-width="0.3"/>
<text x="56.389" y="141.823" font-size="5.2" text-anchor="middle" fill="#14306e" font-weight="bold">5</text>
<polygon points="98.788,156.407 90.678,147.667 46.492,138.926 35.665,143.92" fill="rgb(216,216,216)"/>
<polygon points="70.216,239.291 65.376,243.714 69.192,251.635 75.668,250.606" fill="rgb(216,216,216)"/>
<polygon points="35.665,143.92 30.435,144.324 28.938,151.196 33.526,153.738" fill="rgb(216,216,216)"/>
<polygon points="12.807,210.227 8.935,206.688 11.989,200.351 17.169,201.174" fill="rgb(216,216,216)"/>
<polygon points="75.668,250.606 76.108,257.151 84.684,259.107 87.919,253.401" fill="rgb(216,216,216)"/>
<polygon points="33.526,153.738 27.602,156.565 27.199,158.122 31.005,163.47" fill="rgb(216,216,216)"/>
<polygon points="87.919,253.401 93.308,257.139 100.185,251.657 97.743,245.57" fill="rgb(216,216,216)"/>
<polygon points="97.743,245.57 104.023,243.687 104.023,234.895 97.744,233.011" fill="rgb(216,216,216)"/>
<polygon points="28.104,173.093 21.979,175.444 21.455,176.963 24.828,182.591" fill="rgb(216,216,216)"/>
<polygon points="97.744,233.011 100.186,226.924 93.309,221.443 87.92,225.18" fill="rgb(216,216,216)"/>
<polygon points="24.828,182.591 19.598,182.172 17.044,188.727 21.179,191.956" fill="rgb(216,216,216)"/>
<polygon points="87.92,225.18 82.847,219.893 77.947,221.011 75.669,227.975" fill="rgb(216,216,216)"/>
<polygon points="21.179,191.956 15.969,191.334 13.162,197.787 17.169,201.174" fill="rgb(216,216,216)"/>
<polygon points="97.743,245.57 104.023,243.687 104.023,234.895 97.744,233.011" fill="#99d9fa"/>
<line x1="70.216" y1="239.291" x2="75.669" y2="227.975" stroke="#8c8c8c" stroke-width="0.3" stroke-dasharray="1.2,0.8"/>
<line x1="96.115" y1="168.68" x2="33.526" y2="153.738" stroke="#8c8c8c" stroke-width="0.3" stroke-dasharray="1.2,0.8"/>
<line x1="92.964" y1="180.844" x2="31.005" y2="163.47" stroke="#8c8c8c" stroke-width="0.3" stroke-dasharray="1.2,0.8"/>
<line x1="28.104" y1="173.093" x2="31.005" y2="163.47" stroke="#8c8c8c" stroke-width="0.3" stroke-dasharray="1.2,0.8"/>
<line x1="89.338" y1="192.873" x2="28.104" y2="173.093" stroke="#8c8c8c" stroke-width="0.3" stroke-dasharray="1.2,0.8"/>
<line x1="85.241" y1="204.746" x2="24.828" y2="182.591" stroke="#8c8c8c" stroke-width="0.3" stroke-dasharray="1.2,0.8"/>
<line x1="80.681" y1="216.452" x2="21.179" y2="191.956" stroke="#8c8c8c" stroke-width="0.3" stroke-dasharray="1.2,0.8"/>
<line x1="75.669" y1="227.975" x2="17.169" y2="201.174" stroke="#8c8c8c" stroke-width="0.3" stroke-dasharray="1.2,0.8"/>
<line x1="35.665" y1="143.92" x2="98.788" y2="156.407" stroke="#8c8c8c" stroke-width="0.3" stroke-dasharray="1.2,0.8"/>
<line x1="75.668" y1="250.606" x2="70.216" y2="239.291" stroke="#8c8c8c" stroke-width="0.3" stroke-dasharray="1.2,0.8"/>
<line x1="33.526" y1="153.738" x2="35.665" y2="143.92" stroke="#8c8c8c" stroke-width="0.3" stroke-dasharray="1.2,0.8"/>
<line x1="17.169" y1="201.174" x2="12.807" y2="210.227" stroke="#8c8c8c" stroke-width="0.3" stroke-dasharray="1.2,0.8"/>
<line x1="87.919" y1="253.401" x2="75.668" y2="250.606" stroke="#8c8c8c" stroke-width="0.3" stroke-dasharray="1.2,0.8"/>
<line x1="31.005" y1="163.47" x2="33.526" y2="153.738" stroke="#8c8c8c" stroke-width="0.3" stroke-dasharray="1.2,0.8"/>
<line x1="97.743" y1="245.57" x2="87.919" y2="253.401" stroke="#8c8c8c" stroke-width="0.3" stroke-dasharray="1.2,0.8"/>
<line x1="97.744" y1="233.011" x2="97.743" y2="245.57" stroke="#8c8c8c" stroke-width="0.3" stroke-dasharray="1.2,0.8"/>
<line x1="24.828" y1="182.591" x2="28.104" y2="173.093" stroke="#8c8c8c" stroke-width="0.3" stroke-dasharray="1.2,0.8"/>
<line x1="87.92" y1="225.18" x2="97.744" y2="233.011" stroke="#8c8c8c" stroke-width="0.3" stroke-dasharray="1.2,0.8"/>
<line x1="21.179" y1="191.956" x2="24.828" y2="182.591" stroke="#8c8c8c" stroke-width="0.3" stroke-dasharray="1.2,0.8"/>
<line x1="75.669" y1="227.975" x2="87.92" y2="225.18" stroke="#8c8c8c" stroke-width="0.3" stroke-dasharray="1.2,0.8"/>
<line x1="17.169" y1="201.174" x2="21.179" y2="191.956" stroke="#8c8c8c" stroke-width="0.3" stroke-dasharray="1.2,0.8"/>
<line x1="70.216" y1="239.291" x2="12.807" y2="210.227" stroke="#141414" stroke-width="0.4"/>
<line x1="98.788" y1="156.407" x2="96.115" y2="168.68" stroke="#141414" stroke-width="0.4"/>
<line x1="15.268" y1="154.507" x2="25.293" y2="155.198" stroke="#141414" stroke-width="0.4"/>
<line x1="8.48" y1="161.917" x2="15.268" y2="154.507" stroke="#141414" stroke-width="0.4"/>
<line x1="96.115" y1="168.68" x2="92.964" y2="180.844" stroke="#141414" stroke-width="0.4"/>
<line x1="25.293" y1="155.198" x2="31.005" y2="163.47" stroke="#141414" stroke-width="0.4"/>
<line x1="92.964" y1="180.844" x2="89.338" y2="192.873" stroke="#141414" stroke-width="0.4"/>
<line x1="89.338" y1="192.873" x2="85.241" y2="204.746" stroke="#141414" stroke-width="0.4"/>
<line x1="28.104" y1="173.093" x2="18.774" y2="176.821" stroke="#141414" stroke-width="0.4"/>
<line x1="85.241" y1="204.746" x2="80.681" y2="216.452" stroke="#141414" stroke-width="0.4"/>
<line x1="18.774" y1="176.821" x2="10.04" y2="171.848" stroke="#141414" stroke-width="0.4"/>
<line x1="80.681" y1="216.452" x2="75.669" y2="227.975" stroke="#141414" stroke-width="0.4"/>
<line x1="10.04" y1="171.848" x2="8.48" y2="161.917" stroke="#141414" stroke-width="0.4"/>
<line x1="98.788" y1="156.407" x2="90.678" y2="147.667" stroke="#141414" stroke-width="0.4"/>
<line x1="90.678" y1="147.667" x2="46.492" y2="138.926" stroke="#141414" stroke-width="0.4"/>
<line x1="46.492" y1="138.926" x2="35.665" y2="143.92" stroke="#141414" stroke-width="0.4"/>
<line x1="70.216" y1="239.291" x2="65.376" y2="243.714" stroke="#141414" stroke-width="0.4"/>
<line x1="65.376" y1="243.714" x2="69.192" y2="251.635" stroke="#141414" stroke-width="0.4"/>
<line x1="69.192" y1="251.635" x2="75.668" y2="250.606" stroke="#141414" stroke-width="0.4"/>
<line x1="35.665" y1="143.92" x2="30.435" y2="144.324" stroke="#141414" stroke-width="0.4"/>
<line x1="30.435" y1="144.324" x2="28.938" y2="151.196" stroke="#141414" stroke-width="0.4"/>
<line x1="28.938" y1="151.196" x2="33.526" y2="153.738" stroke="#141414" stroke-width="0.4"/>
<line x1="12.807" y1="210.227" x2="8.935" y2="206.688" stroke="#141414" stroke-width="0.4"/>
<line x1="8.935" y1="206.688" x2="11.989" y2="200.351" stroke="#141414" stroke-width="0.4"/>
<line x1="11.989" y1="200.351" x2="17.169" y2="201.174" stroke="#141414" stroke-width="0.4"/>
<line x1="75.668" y1="250.606" x2="76.108" y2="257.151" stroke="#141414" stroke-width="0.4"/>
<line x1="76.108" y1="257.151" x2="84.684" y2="259.107" stroke="#141414" stroke-width="0.4"/>
<line x1="84.684" y1="259.107" x2="87.919" y2="253.401" stroke="#141414" stroke-width="0.4"/>
<line x1="33.526" y1="153.738" x2="27.602" y2="156.565" stroke="#141414" stroke-width="0.4"/>
<line x1="27.602" y1="156.565" x2="27.199" y2="158.122" stroke="#141414" stroke-width="0.4"/>
<line x1="27.199" y1="158.122" x2="31.005" y2="163.47" stroke="#141414" stroke-width="0.4"/>
<line x1="87.919" y1="253.401" x2="93.308" y2="257.139" stroke="#141414" stroke-width="0.4"/>
<line x1="93.308" y1="257.139" x2="100.185" y2="251.657" stroke="#141414" stroke-width="0.4"/>
<line x1="100.185" y1="251.657" x2="97.743" y2="245.57" stroke="#141414" stroke-width="0.4"/>
<line x1="97.743" y1="245.57" x2="104.023" y2="243.687" stroke="#141414" stroke-width="0.4"/>
<line x1="104.023" y1="243.687" x2="104.023" y2="234.895" stroke="#141414" stroke-width="0.4"/>
<line x1="104.023" y1="234.895" x2="97.744" y2="233.011" stroke="#141414" stroke-width="0.4"/>
<line x1="28.104" y1="173.093" x2="21.979" y2="175.444" stroke="#141414" stroke-width="0.4"/>
<line x1="21.979" y1="175.444" x2="21.455" y2="176.963" stroke="#141414" stroke-width="0.4"/>
<line x1="21.455" y1="176.963" x2="24.828" y2="182.591" stroke="#141414" stroke-width="0.4"/>
<line x1="97.744" y1="233.011" x2="100.186" y2="226.924" stroke="#141414" stroke-width="0.4"/>
<line x1="100.186" y1="226.924" x2="93.309" y2="221.443" stroke="#141414" stroke-width="0.4"/>
<line x1="93.309" y1="221.443" x2="87.92" y2="225.18" stroke="#141414" stroke-width="0.4"/>
<line x1="24.828" y1="182.591" x2="19.598" y2="182.172" stroke="#141414" stroke-width="0.4"/>
<line x1="19.598" y1="182.172" x2="17.044" y2="188.727" stroke="#141414" stroke-width="0.4"/>
<line x1="17.044" y1="188.727" x2="21.179" y2="191.956" stroke="#141414" stroke-width="0.4"/>
<line x1="87.92" y1="225.18" x2="82.847" y2="219.893" stroke="#141414" stroke-width="0.4"/>
<line x1="82.847" y1="219.893" x2="77.947" y2="221.011" stroke="#141414" stroke-width="0.4"/>
<line x1="77.947" y1="221.011" x2="75.669" y2="227.975" stroke="#141414" stroke-width="0.4"/>
<line x1="21.179" y1="191.956" x2="15.969" y2="191.334" stroke="#141414" stroke-width="0.4"/>
<line x1="15.969" y1="191.334" x2="13.162" y2="197.787" stroke="#141414" stroke-width="0.4"/>
<line x1="13.162" y1="197.787" x2="17.169" y2="201.174" stroke="#141414" stroke-width="0.4"/>
<circle cx="67.906" cy="146.73" r="0.94" fill="#ffe082" stroke="#464646" stroke-width="0.2"/>
<text x="67.906" y="147.05" font-size="0.92" text-anchor="middle" fill="#141414">50</text>
<circle cx="70.113" cy="246.311" r="0.94" fill="#ffe082" stroke="#464646" stroke-width="0.2"/>
<text x="70.113" y="246.63" font-size="0.92" text-anchor="middle" fill="#141414">51</text>
<circle cx="32.141" cy="148.295" r="0.94" fill="#ffe082" stroke="#464646" stroke-width="0.2"/>
<text x="32.141" y="148.62" font-size="0.92" text-anchor="middle" fill="#141414">52</text>
<circle cx="12.725" cy="204.61" r="0.94" fill="#ffe082" stroke="#464646" stroke-width="0.2"/>
<text x="12.725" y="204.93" font-size="0.92" text-anchor="middle" fill="#141414">53</text>
<circle cx="81.095" cy="255.066" r="0.94" fill="#ffe082" stroke="#464646" stroke-width="0.2"/>
<text x="81.095" y="255.39" font-size="0.92" text-anchor="middle" fill="#141414">54</text>
<circle cx="29.833" cy="157.974" r="0.94" fill="#ffe082" stroke="#464646" stroke-width="0.2"/>
<text x="29.833" y="158.30" font-size="0.92" text-anchor="middle" fill="#141414">55</text>
<circle cx="94.789" cy="251.942" r="0.94" fill="#ffe082" stroke="#464646" stroke-width="0.2"/>
<text x="94.789" y="252.26" font-size="0.92" text-anchor="middle" fill="#141414">56</text>
<circle cx="100.883" cy="239.291" r="0.94" fill="#99d9fa" stroke="#464646" stroke-width="0.2"/>
<text x="100.883" y="239.61" font-size="0.92" text-anchor="middle" fill="#141414">57</text>
<circle cx="24.091" cy="177.023" r="0.94" fill="#ffe082" stroke="#464646" stroke-width="0.2"/>
<text x="24.091" y="177.35" font-size="0.92" text-anchor="middle" fill="#141414">58</text>
<circle cx="94.789" cy="226.639" r="0.94" fill="#ffe082" stroke="#464646" stroke-width="0.2"/>
<text x="94.789" y="226.96" font-size="0.92" text-anchor="middle" fill="#141414">59</text>
<circle cx="20.662" cy="186.362" r="0.94" fill="#ffe082" stroke="#464646" stroke-width="0.2"/>
<text x="20.662" y="186.68" font-size="0.92" text-anchor="middle" fill="#141414">60</text>
<circle cx="81.095" cy="223.515" r="0.94" fill="#ffe082" stroke="#464646" stroke-width="0.2"/>
<text x="81.095" y="223.84" font-size="0.92" text-anchor="middle" fill="#141414">61</text>
<circle cx="16.87" cy="195.563" r="0.94" fill="#ffe082" stroke="#464646" stroke-width="0.2"/>
<text x="16.87" y="195.89" font-size="0.92" text-anchor="middle" fill="#141414">62</text>
<circle cx="52.772" cy="130.823" r="4.6" fill="#eaf1fe" stroke="#2e78e6" stroke-width="0.3"/>
<text x="52.772" y="132.62300000000002" font-size="5.2" text-anchor="middle" fill="#14306e" font-weight="bold">6</text>
<polygon points="127.493,33.537 121.114,33.923 119.09,37.811 122.432,43.258" fill="rgb(216,216,216)"/>
<polygon points="122.432,43.258 127.507,49.601 129.497,49.648 134.869,43.555" fill="rgb(216,216,216)"/>
<polygon points="116.964,30.497 113.612,24.931 119.47,18.481 125.332,21.283" fill="rgb(216,216,216)"/>
<polygon points="136.99,74.128 137.278,64.586 139.142,62.961 148.634,63.968" fill="rgb(216,216,216)"/>
<polygon points="128.448,54.21 135.556,60.579 138.017,60.35 143.829,52.78" fill="rgb(216,216,216)"/>
<polygon points="164.341,43.054 167.685,48.499 165.663,52.388 159.285,52.777" fill="rgb(216,216,216)"/>
<polygon points="164.341,43.054 159.26,36.711 157.269,36.664 151.898,42.764" fill="rgb(216,216,216)"/>
<polygon points="169.815,55.812 173.168,61.374 167.317,67.823 161.456,65.026" fill="rgb(216,216,216)"/>
<polygon points="153.597,22.345 147.11,15.344 144.639,15.344 138.15,22.343" fill="rgb(216,216,216)"/>
<polygon points="153.597,22.345 154.192,31.872 152.487,33.663 142.942,33.537" fill="rgb(216,216,216)"/>
<polygon points="137.645,9.493 130.957,6.205 122.338,14.458 125.332,21.283" fill="rgb(216,216,216)"/>
<polygon points="164.341,43.054 167.685,48.499 165.663,52.388 159.285,52.777" fill="#99d9fa"/>
<line x1="134.869" y1="43.555" x2="127.493" y2="33.537" stroke="#8c8c8c" stroke-width="0.3" stroke-dasharray="1.2,0.8"/>
<line x1="125.332" y1="21.283" x2="127.493" y2="33.537" stroke="#8c8c8c" stroke-width="0.3" stroke-dasharray="1.2,0.8"/>
<line x1="138.15" y1="22.343" x2="127.493" y2="33.537" stroke="#8c8c8c" stroke-width="0.3" stroke-dasharray="1.2,0.8"/>
<line x1="127.493" y1="33.537" x2="142.942" y2="33.537" stroke="#8c8c8c" stroke-width="0.3" stroke-dasharray="1.2,0.8"/>
<line x1="151.898" y1="42.764" x2="159.285" y2="52.777" stroke="#8c8c8c" stroke-width="0.3" stroke-dasharray="1.2,0.8"/>
<line x1="161.456" y1="65.026" x2="159.285" y2="52.777" stroke="#8c8c8c" stroke-width="0.3" stroke-dasharray="1.2,0.8"/>
<line x1="148.634" y1="63.968" x2="159.285" y2="52.777" stroke="#8c8c8c" stroke-width="0.3" stroke-dasharray="1.2,0.8"/>
<line x1="159.285" y1="52.777" x2="143.829" y2="52.78" stroke="#8c8c8c" stroke-width="0.3" stroke-dasharray="1.2,0.8"/>
<line x1="151.898" y1="42.764" x2="134.869" y2="43.555" stroke="#8c8c8c" stroke-width="0.3" stroke-dasharray="1.2,0.8"/>
<line x1="143.829" y1="52.78" x2="151.898" y2="42.764" stroke="#8c8c8c" stroke-width="0.3" stroke-dasharray="1.2,0.8"/>
<line x1="142.942" y1="33.537" x2="151.898" y2="42.764" stroke="#8c8c8c" stroke-width="0.3" stroke-dasharray="1.2,0.8"/>
<line x1="134.869" y1="43.555" x2="143.829" y2="52.78" stroke="#8c8c8c" stroke-width="0.3" stroke-dasharray="1.2,0.8"/>
<line x1="142.942" y1="33.537" x2="134.869" y2="43.555" stroke="#8c8c8c" stroke-width="0.3" stroke-dasharray="1.2,0.8"/>
<line x1="161.456" y1="65.026" x2="148.634" y2="63.968" stroke="#8c8c8c" stroke-width="0.3" stroke-dasharray="1.2,0.8"/>
<line x1="137.645" y1="9.493" x2="138.15" y2="22.343" stroke="#8c8c8c" stroke-width="0.3" stroke-dasharray="1.2,0.8"/>
<line x1="148.634" y1="63.968" x2="149.143" y2="76.816" stroke="#8c8c8c" stroke-width="0.3" stroke-dasharray="1.2,0.8"/>
<line x1="125.332" y1="21.283" x2="138.15" y2="22.343" stroke="#8c8c8c" stroke-width="0.3" stroke-dasharray="1.2,0.8"/>
<line x1="148.634" y1="63.968" x2="143.829" y2="52.78" stroke="#8c8c8c" stroke-width="0.3" stroke-dasharray="1.2,0.8"/>
<line x1="138.15" y1="22.343" x2="142.942" y2="33.537" stroke="#8c8c8c" stroke-width="0.3" stroke-dasharray="1.2,0.8"/>
<line x1="122.432" y1="43.258" x2="127.493" y2="33.537" stroke="#8c8c8c" stroke-width="0.3" stroke-dasharray="1.2,0.8"/>
<line x1="134.869" y1="43.555" x2="122.432" y2="43.258" stroke="#8c8c8c" stroke-width="0.3" stroke-dasharray="1.2,0.8"/>
<line x1="125.332" y1="21.283" x2="116.964" y2="30.497" stroke="#8c8c8c" stroke-width="0.3" stroke-dasharray="1.2,0.8"/>
<line x1="148.634" y1="63.968" x2="136.99" y2="74.128" stroke="#8c8c8c" stroke-width="0.3" stroke-dasharray="1.2,0.8"/>
<line x1="143.829" y1="52.78" x2="128.448" y2="54.21" stroke="#8c8c8c" stroke-width="0.3" stroke-dasharray="1.2,0.8"/>
<line x1="159.285" y1="52.777" x2="164.341" y2="43.054" stroke="#8c8c8c" stroke-width="0.3" stroke-dasharray="1.2,0.8"/>
<line x1="151.898" y1="42.764" x2="164.341" y2="43.054" stroke="#8c8c8c" stroke-width="0.3" stroke-dasharray="1.2,0.8"/>
<line x1="161.456" y1="65.026" x2="169.815" y2="55.812" stroke="#8c8c8c" stroke-width="0.3" stroke-dasharray="1.2,0.8"/>
<line x1="138.15" y1="22.343" x2="153.597" y2="22.345" stroke="#8c8c8c" stroke-width="0.3" stroke-dasharray="1.2,0.8"/>
<line x1="142.942" y1="33.537" x2="153.597" y2="22.345" stroke="#8c8c8c" stroke-width="0.3" stroke-dasharray="1.2,0.8"/>
<line x1="125.332" y1="21.283" x2="137.645" y2="9.493" stroke="#8c8c8c" stroke-width="0.3" stroke-dasharray="1.2,0.8"/>
<line x1="127.493" y1="33.537" x2="116.964" y2="30.497" stroke="#141414" stroke-width="0.4"/>
<line x1="128.448" y1="54.21" x2="134.869" y2="43.555" stroke="#141414" stroke-width="0.4"/>
<line x1="149.143" y1="76.816" x2="136.99" y2="74.128" stroke="#141414" stroke-width="0.4"/>
<line x1="148.634" y1="63.968" x2="133.181" y2="63.971" stroke="#141414" stroke-width="0.4"/>
<line x1="133.181" y1="63.971" x2="143.829" y2="52.78" stroke="#141414" stroke-width="0.4"/>
<line x1="159.285" y1="52.777" x2="169.815" y2="55.812" stroke="#141414" stroke-width="0.4"/>
<line x1="158.329" y1="32.107" x2="151.898" y2="42.764" stroke="#141414" stroke-width="0.4"/>
<line x1="137.645" y1="9.493" x2="149.79" y2="12.188" stroke="#141414" stroke-width="0.4"/>
<line x1="149.79" y1="12.188" x2="138.15" y2="22.343" stroke="#141414" stroke-width="0.4"/>
<line x1="142.942" y1="33.537" x2="158.329" y2="32.107" stroke="#141414" stroke-width="0.4"/>
<line x1="161.456" y1="65.026" x2="149.143" y2="76.816" stroke="#141414" stroke-width="0.4"/>
<line x1="127.493" y1="33.537" x2="121.114" y2="33.923" stroke="#141414" stroke-width="0.4"/>
<line x1="121.114" y1="33.923" x2="119.09" y2="37.811" stroke="#141414" stroke-width="0.4"/>
<line x1="119.09" y1="37.811" x2="122.432" y2="43.258" stroke="#141414" stroke-width="0.4"/>
<line x1="122.432" y1="43.258" x2="127.507" y2="49.601" stroke="#141414" stroke-width="0.4"/>
<line x1="127.507" y1="49.601" x2="129.497" y2="49.648" stroke="#141414" stroke-width="0.4"/>
<line x1="129.497" y1="49.648" x2="134.869" y2="43.555" stroke="#141414" stroke-width="0.4"/>
<line x1="116.964" y1="30.497" x2="113.612" y2="24.931" stroke="#141414" stroke-width="0.4"/>
<line x1="113.612" y1="24.931" x2="119.47" y2="18.481" stroke="#141414" stroke-width="0.4"/>
<line x1="119.47" y1="18.481" x2="125.332" y2="21.283" stroke="#141414" stroke-width="0.4"/>
<line x1="136.99" y1="74.128" x2="137.278" y2="64.586" stroke="#141414" stroke-width="0.4"/>
<line x1="137.278" y1="64.586" x2="139.142" y2="62.961" stroke="#141414" stroke-width="0.4"/>
<line x1="139.142" y1="62.961" x2="148.634" y2="63.968" stroke="#141414" stroke-width="0.4"/>
<line x1="128.448" y1="54.21" x2="135.556" y2="60.579" stroke="#141414" stroke-width="0.4"/>
<line x1="135.556" y1="60.579" x2="138.017" y2="60.35" stroke="#141414" stroke-width="0.4"/>
<line x1="138.017" y1="60.35" x2="143.829" y2="52.78" stroke="#141414" stroke-width="0.4"/>
<line x1="164.341" y1="43.054" x2="167.685" y2="48.499" stroke="#141414" stroke-width="0.4"/>
<line x1="167.685" y1="48.499" x2="165.663" y2="52.388" stroke="#141414" stroke-width="0.4"/>
<line x1="165.663" y1="52.388" x2="159.285" y2="52.777" stroke="#141414" stroke-width="0.4"/>
<line x1="164.341" y1="43.054" x2="159.26" y2="36.711" stroke="#141414" stroke-width="0.4"/>
<line x1="159.26" y1="36.711" x2="157.269" y2="36.664" stroke="#141414" stroke-width="0.4"/>
<line x1="157.269" y1="36.664" x2="151.898" y2="42.764" stroke="#141414" stroke-width="0.4"/>
<line x1="169.815" y1="55.812" x2="173.168" y2="61.374" stroke="#141414" stroke-width="0.4"/>
<line x1="173.168" y1="61.374" x2="167.317" y2="67.823" stroke="#141414" stroke-width="0.4"/>
<line x1="167.317" y1="67.823" x2="161.456" y2="65.026" stroke="#141414" stroke-width="0.4"/>
<line x1="153.597" y1="22.345" x2="147.11" y2="15.344" stroke="#141414" stroke-width="0.4"/>
<line x1="147.11" y1="15.344" x2="144.639" y2="15.344" stroke="#141414" stroke-width="0.4"/>
<line x1="144.639" y1="15.344" x2="138.15" y2="22.343" stroke="#141414" stroke-width="0.4"/>
<line x1="153.597" y1="22.345" x2="154.192" y2="31.872" stroke="#141414" stroke-width="0.4"/>
<line x1="154.192" y1="31.872" x2="152.487" y2="33.663" stroke="#141414" stroke-width="0.4"/>
<line x1="152.487" y1="33.663" x2="142.942" y2="33.537" stroke="#141414" stroke-width="0.4"/>
<line x1="137.645" y1="9.493" x2="130.957" y2="6.205" stroke="#141414" stroke-width="0.4"/>
<line x1="130.957" y1="6.205" x2="122.338" y2="14.458" stroke="#141414" stroke-width="0.4"/>
<line x1="122.338" y1="14.458" x2="125.332" y2="21.283" stroke="#141414" stroke-width="0.4"/>
<circle cx="122.532" cy="37.132" r="0.94" fill="#ffe082" stroke="#464646" stroke-width="0.2"/>
<text x="122.532" y="37.45" font-size="0.92" text-anchor="middle" fill="#141414">96</text>
<circle cx="128.576" cy="46.515" r="0.94" fill="#ffe082" stroke="#464646" stroke-width="0.2"/>
<text x="128.576" y="46.84" font-size="0.92" text-anchor="middle" fill="#141414">97</text>
<circle cx="118.844" cy="23.798" r="0.94" fill="#ffe082" stroke="#464646" stroke-width="0.2"/>
<text x="118.844" y="24.12" font-size="0.92" text-anchor="middle" fill="#141414">98</text>
<circle cx="140.511" cy="66.411" r="0.94" fill="#ffe082" stroke="#464646" stroke-width="0.2"/>
<text x="140.511" y="66.73" font-size="0.92" text-anchor="middle" fill="#141414">99</text>
<circle cx="136.463" cy="56.98" r="0.94" fill="#ffe082" stroke="#464646" stroke-width="0.2"/>
<text x="136.463" y="57.30" font-size="0.92" text-anchor="middle" fill="#141414">100</text>
<circle cx="164.243" cy="49.18" r="0.94" fill="#99d9fa" stroke="#464646" stroke-width="0.2"/>
<text x="164.243" y="49.50" font-size="0.92" text-anchor="middle" fill="#141414">101</text>
<circle cx="158.192" cy="39.798" r="0.94" fill="#ffe082" stroke="#464646" stroke-width="0.2"/>
<text x="158.192" y="40.12" font-size="0.92" text-anchor="middle" fill="#141414">102</text>
<circle cx="167.939" cy="62.509" r="0.94" fill="#ffe082" stroke="#464646" stroke-width="0.2"/>
<text x="167.939" y="62.83" font-size="0.92" text-anchor="middle" fill="#141414">103</text>
<circle cx="145.874" cy="18.844" r="0.94" fill="#ffe082" stroke="#464646" stroke-width="0.2"/>
<text x="145.874" y="19.17" font-size="0.92" text-anchor="middle" fill="#141414">104</text>
<circle cx="150.804" cy="30.354" r="0.94" fill="#ffe082" stroke="#464646" stroke-width="0.2"/>
<text x="150.804" y="30.68" font-size="0.92" text-anchor="middle" fill="#141414">105</text>
<circle cx="129.068" cy="12.86" r="0.94" fill="#ffe082" stroke="#464646" stroke-width="0.2"/>
<text x="129.068" y="13.18" font-size="0.92" text-anchor="middle" fill="#141414">106</text>
<circle cx="140.555" cy="81.711" r="4.6" fill="#eaf1fe" stroke="#2e78e6" stroke-width="0.3"/>
<text x="140.555" y="83.511" font-size="5.2" text-anchor="middle" fill="#14306e" font-weight="bold">10</text>
<polygon points="126.025,159.302 127.156,155.533 132.432,155.533 133.563,159.302" fill="rgb(216,216,216)"/>
<polygon points="139.441,146.183 139.226,142.256 144.187,140.467 146.529,143.627" fill="rgb(216,216,216)"/>
<polygon points="137.022,153.322 133.825,154.332 136.756,158.901 141.093,159.668" fill="rgb(216,216,216)"/>
<polygon points="130.374,222.787 126.861,223.917 126.959,228.864 130.514,229.854" fill="rgb(216,216,216)"/>
<polygon points="148.588,160.442 153.316,160.994 154.793,159.487 153.864,155.061" fill="rgb(216,216,216)"/>
<polygon points="138.887,223.272 139.332,226.769 143.637,227.38 145.037,224.144" fill="rgb(216,216,216)"/>
<polygon points="156.038,161.576 161.282,172.174 153.581,215.971 145.037,224.144" fill="rgb(216,216,216)"/>
<polygon points="153.864,155.061 157.468,153.48 156.827,148.242 152.948,147.578" fill="rgb(216,216,216)"/>
<polygon points="114.335,224.155 115.976,232.129 119.66,232.301 118.81,223.491" fill="rgb(216,216,216)"/>
<polygon points="152.948,147.578 153.96,143.775 149.467,141.01 146.529,143.627" fill="rgb(216,216,216)"/>
<polygon points="118.81,223.491 119.838,229.22 123.308,227.562 123.31,223.041" fill="rgb(216,216,216)"/>
<polygon points="152.948,147.578 153.96,143.775 149.467,141.01 146.529,143.627" fill="#99d9fa"/>
<line x1="130.374" y1="222.787" x2="126.025" y2="159.302" stroke="#8c8c8c" stroke-width="0.3" stroke-dasharray="1.2,0.8"/>
<line x1="126.025" y1="159.302" x2="123.31" y2="223.041" stroke="#8c8c8c" stroke-width="0.3" stroke-dasharray="1.2,0.8"/>
<line x1="133.563" y1="159.302" x2="130.374" y2="222.787" stroke="#8c8c8c" stroke-width="0.3" stroke-dasharray="1.2,0.8"/>
<line x1="141.093" y1="159.668" x2="130.374" y2="222.787" stroke="#8c8c8c" stroke-width="0.3" stroke-dasharray="1.2,0.8"/>
<line x1="138.887" y1="223.272" x2="130.374" y2="222.787" stroke="#8c8c8c" stroke-width="0.3" stroke-dasharray="1.2,0.8"/>
<line x1="148.589" y1="160.441" x2="141.093" y2="159.668" stroke="#8c8c8c" stroke-width="0.3" stroke-dasharray="1.2,0.8"/>
<line x1="141.093" y1="159.668" x2="138.887" y2="223.272" stroke="#8c8c8c" stroke-width="0.3" stroke-dasharray="1.2,0.8"/>
<line x1="148.589" y1="160.441" x2="138.887" y2="223.272" stroke="#8c8c8c" stroke-width="0.3" stroke-dasharray="1.2,0.8"/>
<line x1="111.001" y1="160.445" x2="118.81" y2="223.491" stroke="#8c8c8c" stroke-width="0.3" stroke-dasharray="1.2,0.8"/>
<line x1="118.501" y1="159.694" x2="123.31" y2="223.041" stroke="#8c8c8c" stroke-width="0.3" stroke-dasharray="1.2,0.8"/>
<line x1="156.038" y1="161.576" x2="138.887" y2="223.272" stroke="#8c8c8c" stroke-width="0.3" stroke-dasharray="1.2,0.8"/>
<line x1="133.563" y1="159.302" x2="126.025" y2="159.302" stroke="#8c8c8c" stroke-width="0.3" stroke-dasharray="1.2,0.8"/>
<line x1="146.529" y1="143.627" x2="139.441" y2="146.183" stroke="#8c8c8c" stroke-width="0.3" stroke-dasharray="1.2,0.8"/>
<line x1="141.093" y1="159.668" x2="137.022" y2="153.322" stroke="#8c8c8c" stroke-width="0.3" stroke-dasharray="1.2,0.8"/>
<line x1="130.514" y1="229.854" x2="130.374" y2="222.787" stroke="#8c8c8c" stroke-width="0.3" stroke-dasharray="1.2,0.8"/>
<line x1="153.864" y1="155.061" x2="148.588" y2="160.442" stroke="#8c8c8c" stroke-width="0.3" stroke-dasharray="1.2,0.8"/>
<line x1="145.037" y1="224.144" x2="138.887" y2="223.272" stroke="#8c8c8c" stroke-width="0.3" stroke-dasharray="1.2,0.8"/>
<line x1="145.037" y1="224.144" x2="156.038" y2="161.576" stroke="#8c8c8c" stroke-width="0.3" stroke-dasharray="1.2,0.8"/>
<line x1="152.948" y1="147.578" x2="153.864" y2="155.061" stroke="#8c8c8c" stroke-width="0.3" stroke-dasharray="1.2,0.8"/>
<line x1="118.81" y1="223.491" x2="114.335" y2="224.155" stroke="#8c8c8c" stroke-width="0.3" stroke-dasharray="1.2,0.8"/>
<line x1="146.529" y1="143.627" x2="152.948" y2="147.578" stroke="#8c8c8c" stroke-width="0.3" stroke-dasharray="1.2,0.8"/>
<line x1="123.31" y1="223.041" x2="118.81" y2="223.491" stroke="#8c8c8c" stroke-width="0.3" stroke-dasharray="1.2,0.8"/>
<line x1="137.022" y1="153.322" x2="139.441" y2="146.183" stroke="#141414" stroke-width="0.4"/>
<line x1="118.501" y1="159.694" x2="126.025" y2="159.302" stroke="#141414" stroke-width="0.4"/>
<line x1="133.563" y1="159.302" x2="141.093" y2="159.668" stroke="#141414" stroke-width="0.4"/>
<line x1="130.374" y1="222.787" x2="123.31" y2="223.041" stroke="#141414" stroke-width="0.4"/>
<line x1="153.864" y1="155.061" x2="148.589" y2="160.441" stroke="#141414" stroke-width="0.4"/>
<line x1="148.589" y1="160.441" x2="156.038" y2="161.576" stroke="#141414" stroke-width="0.4"/>
<line x1="138.887" y1="223.272" x2="138.656" y2="229.479" stroke="#141414" stroke-width="0.4"/>
<line x1="114.335" y1="224.155" x2="103.544" y2="161.551" stroke="#141414" stroke-width="0.4"/>
<line x1="103.544" y1="161.551" x2="111.001" y2="160.445" stroke="#141414" stroke-width="0.4"/>
<line x1="138.656" y1="229.479" x2="134.674" y2="231.626" stroke="#141414" stroke-width="0.4"/>
<line x1="111.001" y1="160.445" x2="118.501" y2="159.694" stroke="#141414" stroke-width="0.4"/>
<line x1="134.674" y1="231.626" x2="130.514" y2="229.854" stroke="#141414" stroke-width="0.4"/>
<line x1="126.025" y1="159.302" x2="127.156" y2="155.533" stroke="#141414" stroke-width="0.4"/>
<line x1="127.156" y1="155.533" x2="132.432" y2="155.533" stroke="#141414" stroke-width="0.4"/>
<line x1="132.432" y1="155.533" x2="133.563" y2="159.302" stroke="#141414" stroke-width="0.4"/>
<line x1="139.441" y1="146.183" x2="139.226" y2="142.256" stroke="#141414" stroke-width="0.4"/>
<line x1="139.226" y1="142.256" x2="144.187" y2="140.467" stroke="#141414" stroke-width="0.4"/>
<line x1="144.187" y1="140.467" x2="146.529" y2="143.627" stroke="#141414" stroke-width="0.4"/>
<line x1="137.022" y1="153.322" x2="133.825" y2="154.332" stroke="#141414" stroke-width="0.4"/>
<line x1="133.825" y1="154.332" x2="136.756" y2="158.901" stroke="#141414" stroke-width="0.4"/>
<line x1="136.756" y1="158.901" x2="141.093" y2="159.668" stroke="#141414" stroke-width="0.4"/>
<line x1="130.374" y1="222.787" x2="126.861" y2="223.917" stroke="#141414" stroke-width="0.4"/>
<line x1="126.861" y1="223.917" x2="126.959" y2="228.864" stroke="#141414" stroke-width="0.4"/>
<line x1="126.959" y1="228.864" x2="130.514" y2="229.854" stroke="#141414" stroke-width="0.4"/>
<line x1="148.588" y1="160.442" x2="153.316" y2="160.994" stroke="#141414" stroke-width="0.4"/>
<line x1="153.316" y1="160.994" x2="154.793" y2="159.487" stroke="#141414" stroke-width="0.4"/>
<line x1="154.793" y1="159.487" x2="153.864" y2="155.061" stroke="#141414" stroke-width="0.4"/>
<line x1="138.887" y1="223.272" x2="139.332" y2="226.769" stroke="#141414" stroke-width="0.4"/>
<line x1="139.332" y1="226.769" x2="143.637" y2="227.38" stroke="#141414" stroke-width="0.4"/>
<line x1="143.637" y1="227.38" x2="145.037" y2="224.144" stroke="#141414" stroke-width="0.4"/>
<line x1="156.038" y1="161.576" x2="161.282" y2="172.174" stroke="#141414" stroke-width="0.4"/>
<line x1="161.282" y1="172.174" x2="153.581" y2="215.971" stroke="#141414" stroke-width="0.4"/>
<line x1="153.581" y1="215.971" x2="145.037" y2="224.144" stroke="#141414" stroke-width="0.4"/>
<line x1="153.864" y1="155.061" x2="157.468" y2="153.48" stroke="#141414" stroke-width="0.4"/>
<line x1="157.468" y1="153.48" x2="156.827" y2="148.242" stroke="#141414" stroke-width="0.4"/>
<line x1="156.827" y1="148.242" x2="152.948" y2="147.578" stroke="#141414" stroke-width="0.4"/>
<line x1="114.335" y1="224.155" x2="115.976" y2="232.129" stroke="#141414" stroke-width="0.4"/>
<line x1="115.976" y1="232.129" x2="119.66" y2="232.301" stroke="#141414" stroke-width="0.4"/>
<line x1="119.66" y1="232.301" x2="118.81" y2="223.491" stroke="#141414" stroke-width="0.4"/>
<line x1="152.948" y1="147.578" x2="153.96" y2="143.775" stroke="#141414" stroke-width="0.4"/>
<line x1="153.96" y1="143.775" x2="149.467" y2="141.01" stroke="#141414" stroke-width="0.4"/>
<line x1="149.467" y1="141.01" x2="146.529" y2="143.627" stroke="#141414" stroke-width="0.4"/>
<line x1="118.81" y1="223.491" x2="119.838" y2="229.22" stroke="#141414" stroke-width="0.4"/>
<line x1="119.838" y1="229.22" x2="123.308" y2="227.562" stroke="#141414" stroke-width="0.4"/>
<line x1="123.308" y1="227.562" x2="123.31" y2="223.041" stroke="#141414" stroke-width="0.4"/>
<circle cx="129.794" cy="157.417" r="0.94" fill="#ffe082" stroke="#464646" stroke-width="0.2"/>
<text x="129.794" y="157.74" font-size="0.92" text-anchor="middle" fill="#141414">107</text>
<circle cx="142.346" cy="143.133" r="0.94" fill="#ffe082" stroke="#464646" stroke-width="0.2"/>
<text x="142.346" y="143.46" font-size="0.92" text-anchor="middle" fill="#141414">108</text>
<circle cx="137.174" cy="156.556" r="0.94" fill="#ffe082" stroke="#464646" stroke-width="0.2"/>
<text x="137.174" y="156.88" font-size="0.92" text-anchor="middle" fill="#141414">109</text>
<circle cx="128.677" cy="226.355" r="0.94" fill="#ffe082" stroke="#464646" stroke-width="0.2"/>
<text x="128.677" y="226.68" font-size="0.92" text-anchor="middle" fill="#141414">110</text>
<circle cx="152.641" cy="158.996" r="0.94" fill="#ffe082" stroke="#464646" stroke-width="0.2"/>
<text x="152.641" y="159.32" font-size="0.92" text-anchor="middle" fill="#141414">111</text>
<circle cx="141.723" cy="225.391" r="0.94" fill="#ffe082" stroke="#464646" stroke-width="0.2"/>
<text x="141.723" y="225.71" font-size="0.92" text-anchor="middle" fill="#141414">112</text>
<circle cx="153.985" cy="193.466" r="0.94" fill="#ffe082" stroke="#464646" stroke-width="0.2"/>
<text x="153.985" y="193.79" font-size="0.92" text-anchor="middle" fill="#141414">113</text>
<circle cx="155.277" cy="151.09" r="0.94" fill="#ffe082" stroke="#464646" stroke-width="0.2"/>
<text x="155.277" y="151.41" font-size="0.92" text-anchor="middle" fill="#141414">114</text>
<circle cx="150.726" cy="143.997" r="0.94" fill="#99d9fa" stroke="#464646" stroke-width="0.2"/>
<text x="150.726" y="144.32" font-size="0.92" text-anchor="middle" fill="#141414">116</text>
<circle cx="132.413" cy="130.823" r="4.6" fill="#eaf1fe" stroke="#2e78e6" stroke-width="0.3"/>
<text x="132.413" y="132.62300000000002" font-size="5.2" text-anchor="middle" fill="#14306e" font-weight="bold">11</text>
<text x="205.0" y="295.0" font-size="3.2" text-anchor="end" fill="#737373" font-family="sans-serif">3 / 5</text>
<g pointer-events="none"><text x="105.0" y="83.2" text-anchor="middle" font-family="sans-serif" font-size="12.4" fill="#9aa0a6" fill-opacity="0.3" transform="rotate(-28 105.0 83.2)">papercraft.kr</text><text x="105.0" y="148.5" text-anchor="middle" font-family="sans-serif" font-size="12.4" fill="#9aa0a6" fill-opacity="0.3" transform="rotate(-28 105.0 148.5)">papercraft.kr</text><text x="105.0" y="213.8" text-anchor="middle" font-family="sans-serif" font-size="12.4" fill="#9aa0a6" fill-opacity="0.3" transform="rotate(-28 105.0 213.8)">papercraft.kr</text></g></svg>
