<svg xmlns="http://www.w3.org/2000/svg" xmlns:xlink="http://www.w3.org/1999/xlink" width="210.00mm" height="297.00mm" viewBox="0 0 210.00 297.00">
<rect x="0" y="0" width="210.00" height="297.00" fill="#ffffff" stroke="#cccccc" stroke-width="0.2"/>
<polygon points="93.033,113.372 100.033,120.975 100.033,156.455 93.033,164.058" fill="rgb(216,216,216)"/>
<polygon points="55.686,113.372 48.686,105.769 48.686,70.289 55.686,62.686" fill="rgb(216,216,216)"/>
<polygon points="55.686,113.372 48.686,120.975 48.686,156.455 55.686,164.058" fill="rgb(216,216,216)"/>
<polygon points="93.033,62.686 100.636,55.686 136.117,55.686 143.719,62.686" fill="rgb(216,216,216)"/>
<polygon points="5.0,214.744 12.603,221.744 48.083,221.744 55.686,214.744" fill="rgb(216,216,216)"/>
<polygon points="143.719,113.372 150.719,105.769 150.719,70.289 143.719,62.686" fill="rgb(216,216,216)"/>
<polygon points="93.033,12.0 87.431,5.0 61.288,5.0 55.686,12.0" fill="rgb(216,216,216)"/>
<polygon points="93.033,113.372 100.033,120.975 100.033,156.455 93.033,164.058" fill="#99d9fa"/>
<line x1="93.034" y1="113.372" x2="55.686" y2="113.372" stroke="#8c8c8c" stroke-width="0.3" stroke-dasharray="1.2,0.8"/>
<line x1="93.034" y1="62.686" x2="93.034" y2="113.372" stroke="#8c8c8c" stroke-width="0.3" stroke-dasharray="1.2,0.8"/>
<line x1="55.686" y1="62.686" x2="93.034" y2="62.686" stroke="#8c8c8c" stroke-width="0.3" stroke-dasharray="1.2,0.8"/>
<line x1="93.034" y1="164.058" x2="55.686" y2="164.058" stroke="#8c8c8c" stroke-width="0.3" stroke-dasharray="1.2,0.8"/>
<line x1="55.686" y1="164.058" x2="55.686" y2="214.744" stroke="#8c8c8c" stroke-width="0.3" stroke-dasharray="1.2,0.8"/>
<line x1="93.033" y1="164.058" x2="93.033" y2="113.372" stroke="#8c8c8c" stroke-width="0.3" stroke-dasharray="1.2,0.8"/>
<line x1="55.686" y1="62.686" x2="55.686" y2="113.372" stroke="#8c8c8c" stroke-width="0.3" stroke-dasharray="1.2,0.8"/>
<line x1="55.686" y1="164.058" x2="55.686" y2="113.372" stroke="#8c8c8c" stroke-width="0.3" stroke-dasharray="1.2,0.8"/>
<line x1="143.719" y1="62.686" x2="93.033" y2="62.686" stroke="#8c8c8c" stroke-width="0.3" stroke-dasharray="1.2,0.8"/>
<line x1="55.686" y1="214.744" x2="5.0" y2="214.744" stroke="#8c8c8c" stroke-width="0.3" stroke-dasharray="1.2,0.8"/>
<line x1="143.719" y1="62.686" x2="143.719" y2="113.372" stroke="#8c8c8c" stroke-width="0.3" stroke-dasharray="1.2,0.8"/>
<line x1="55.686" y1="12.0" x2="93.033" y2="12.0" stroke="#8c8c8c" stroke-width="0.3" stroke-dasharray="1.2,0.8"/>
<line x1="143.719" y1="113.372" x2="93.034" y2="113.372" stroke="#141414" stroke-width="0.4"/>
<line x1="5.0" y1="214.744" x2="5.0" y2="164.058" stroke="#141414" stroke-width="0.4"/>
<line x1="5.0" y1="164.058" x2="55.686" y2="164.058" stroke="#141414" stroke-width="0.4"/>
<line x1="93.034" y1="12.0" x2="93.034" y2="62.686" stroke="#141414" stroke-width="0.4"/>
<line x1="55.686" y1="62.686" x2="55.686" y2="12.0" stroke="#141414" stroke-width="0.4"/>
<line x1="93.034" y1="164.058" x2="93.034" y2="214.744" stroke="#141414" stroke-width="0.4"/>
<line x1="93.034" y1="214.744" x2="55.686" y2="214.744" stroke="#141414" stroke-width="0.4"/>
<line x1="93.033" y1="113.372" x2="100.033" y2="120.975" stroke="#141414" stroke-width="0.4"/>
<line x1="100.033" y1="120.975" x2="100.033" y2="156.455" stroke="#141414" stroke-width="0.4"/>
<line x1="100.033" y1="156.455" x2="93.033" y2="164.058" stroke="#141414" stroke-width="0.4"/>
<line x1="55.686" y1="113.372" x2="48.686" y2="105.769" stroke="#141414" stroke-width="0.4"/>
<line x1="48.686" y1="105.769" x2="48.686" y2="70.289" stroke="#141414" stroke-width="0.4"/>
<line x1="48.686" y1="70.289" x2="55.686" y2="62.686" stroke="#141414" stroke-width="0.4"/>
<line x1="55.686" y1="113.372" x2="48.686" y2="120.975" stroke="#141414" stroke-width="0.4"/>
<line x1="48.686" y1="120.975" x2="48.686" y2="156.455" stroke="#141414" stroke-width="0.4"/>
<line x1="48.686" y1="156.455" x2="55.686" y2="164.058" stroke="#141414" stroke-width="0.4"/>
<line x1="93.033" y1="62.686" x2="100.636" y2="55.686" stroke="#141414" stroke-width="0.4"/>
<line x1="100.636" y1="55.686" x2="136.117" y2="55.686" stroke="#141414" stroke-width="0.4"/>
<line x1="136.117" y1="55.686" x2="143.719" y2="62.686" stroke="#141414" stroke-width="0.4"/>
<line x1="5.0" y1="214.744" x2="12.603" y2="221.744" stroke="#141414" stroke-width="0.4"/>
<line x1="12.603" y1="221.744" x2="48.083" y2="221.744" stroke="#141414" stroke-width="0.4"/>
<line x1="48.083" y1="221.744" x2="55.686" y2="214.744" stroke="#141414" stroke-width="0.4"/>
<line x1="143.719" y1="113.372" x2="150.719" y2="105.769" stroke="#141414" stroke-width="0.4"/>
<line x1="150.719" y1="105.769" x2="150.719" y2="70.289" stroke="#141414" stroke-width="0.4"/>
<line x1="150.719" y1="70.289" x2="143.719" y2="62.686" stroke="#141414" stroke-width="0.4"/>
<line x1="93.033" y1="12.0" x2="87.431" y2="5.0" stroke="#141414" stroke-width="0.4"/>
<line x1="87.431" y1="5.0" x2="61.288" y2="5.0" stroke="#141414" stroke-width="0.4"/>
<line x1="61.288" y1="5.0" x2="55.686" y2="12.0" stroke="#141414" stroke-width="0.4"/>
<circle cx="96.533" cy="138.715" r="3.08" fill="#99d9fa" stroke="#464646" stroke-width="0.2"/>
<text x="96.533" y="140.18" font-size="4.18" text-anchor="middle" fill="#141414">8</text>
<circle cx="52.186" cy="88.029" r="3.08" fill="#ffe082" stroke="#464646" stroke-width="0.2"/>
<text x="52.186" y="89.49" font-size="4.18" text-anchor="middle" fill="#141414">9</text>
<circle cx="52.186" cy="138.715" r="3.08" fill="#ffe082" stroke="#464646" stroke-width="0.2"/>
<text x="52.186" y="140.18" font-size="4.18" text-anchor="middle" fill="#141414">10</text>
<circle cx="118.376" cy="59.186" r="3.08" fill="#ffe082" stroke="#464646" stroke-width="0.2"/>
<text x="118.376" y="60.65" font-size="4.18" text-anchor="middle" fill="#141414">11</text>
<circle cx="30.343" cy="218.244" r="3.08" fill="#ffe082" stroke="#464646" stroke-width="0.2"/>
<text x="30.343" y="219.71" font-size="4.18" text-anchor="middle" fill="#141414">12</text>
<circle cx="147.219" cy="88.029" r="3.08" fill="#ffe082" stroke="#464646" stroke-width="0.2"/>
<text x="147.219" y="89.49" font-size="4.18" text-anchor="middle" fill="#141414">13</text>
<circle cx="74.36" cy="8.5" r="3.08" fill="#ffe082" stroke="#464646" stroke-width="0.2"/>
<text x="74.36" y="9.96" font-size="4.18" text-anchor="middle" fill="#141414">14</text>
<circle cx="126.824" cy="79.581" r="4.60" fill="#eaf1fe" stroke="#2e78e6" stroke-width="0.3"/>
<text x="126.824" y="81.38" font-size="5.20" text-anchor="middle" fill="#14306e" font-weight="bold">2</text>
<text x="205.0" y="295.0" font-size="3.2" text-anchor="end" fill="#737373" font-family="sans-serif">2 / 3</text>
<g pointer-events="none"><text x="105.0" y="83.2" text-anchor="middle" font-family="sans-serif" font-size="12.4" fill="#9aa0a6" fill-opacity="0.3" transform="rotate(-28 105.0 83.2)">papercraft.kr</text><text x="105.0" y="148.5" text-anchor="middle" font-family="sans-serif" font-size="12.4" fill="#9aa0a6" fill-opacity="0.3" transform="rotate(-28 105.0 148.5)">papercraft.kr</text><text x="105.0" y="213.8" text-anchor="middle" font-family="sans-serif" font-size="12.4" fill="#9aa0a6" fill-opacity="0.3" transform="rotate(-28 105.0 213.8)">papercraft.kr</text></g></svg>
