<svg xmlns="http://www.w3.org/2000/svg" xmlns:xlink="http://www.w3.org/1999/xlink" width="210.00mm" height="297.00mm" viewBox="0 0 210.00 297.00">
<rect x="0" y="0" width="210.00" height="297.00" fill="#ffffff" stroke="#cccccc" stroke-width="0.2"/>
<polygon points="85.488,104.683 92.488,111.634 92.488,144.073 85.488,151.024" fill="rgb(216,216,216)"/>
<polygon points="51.342,104.683 44.342,97.732 44.342,65.293 51.342,58.341" fill="rgb(216,216,216)"/>
<polygon points="51.342,104.683 44.342,111.634 44.342,144.073 51.342,151.024" fill="rgb(216,216,216)"/>
<polygon points="85.488,58.341 92.439,51.341 124.878,51.341 131.829,58.341" fill="rgb(216,216,216)"/>
<polygon points="5.0,197.366 11.951,204.366 44.39,204.366 51.342,197.366" fill="rgb(216,216,216)"/>
<polygon points="131.829,104.683 138.829,97.732 138.829,65.293 131.829,58.341" fill="rgb(216,216,216)"/>
<polygon points="85.488,12.0 80.366,5.0 56.464,5.0 51.342,12.0" fill="rgb(216,216,216)"/>
<line x1="85.488" y1="104.683" x2="51.342" y2="104.683" stroke="#8c8c8c" stroke-width="0.3" stroke-dasharray="1.2,0.8"/>
<line x1="85.488" y1="58.341" x2="85.488" y2="104.683" stroke="#8c8c8c" stroke-width="0.3" stroke-dasharray="1.2,0.8"/>
<line x1="51.342" y1="58.341" x2="85.488" y2="58.341" stroke="#8c8c8c" stroke-width="0.3" stroke-dasharray="1.2,0.8"/>
<line x1="85.488" y1="151.024" x2="51.342" y2="151.024" stroke="#8c8c8c" stroke-width="0.3" stroke-dasharray="1.2,0.8"/>
<line x1="51.342" y1="151.024" x2="51.342" y2="197.366" stroke="#8c8c8c" stroke-width="0.3" stroke-dasharray="1.2,0.8"/>
<line x1="85.488" y1="151.024" x2="85.488" y2="104.683" stroke="#8c8c8c" stroke-width="0.3" stroke-dasharray="1.2,0.8"/>
<line x1="51.342" y1="58.341" x2="51.342" y2="104.683" stroke="#8c8c8c" stroke-width="0.3" stroke-dasharray="1.2,0.8"/>
<line x1="51.342" y1="151.024" x2="51.342" y2="104.683" stroke="#8c8c8c" stroke-width="0.3" stroke-dasharray="1.2,0.8"/>
<line x1="131.829" y1="58.341" x2="85.488" y2="58.341" stroke="#8c8c8c" stroke-width="0.3" stroke-dasharray="1.2,0.8"/>
<line x1="51.342" y1="197.366" x2="5.0" y2="197.366" stroke="#8c8c8c" stroke-width="0.3" stroke-dasharray="1.2,0.8"/>
<line x1="131.829" y1="58.341" x2="131.829" y2="104.683" stroke="#8c8c8c" stroke-width="0.3" stroke-dasharray="1.2,0.8"/>
<line x1="51.342" y1="12.0" x2="85.488" y2="12.0" stroke="#8c8c8c" stroke-width="0.3" stroke-dasharray="1.2,0.8"/>
<line x1="131.829" y1="104.683" x2="85.488" y2="104.683" stroke="#141414" stroke-width="0.4"/>
<line x1="5.0" y1="197.366" x2="5.0" y2="151.024" stroke="#141414" stroke-width="0.4"/>
<line x1="5.0" y1="151.024" x2="51.342" y2="151.024" stroke="#141414" stroke-width="0.4"/>
<line x1="85.488" y1="12.0" x2="85.488" y2="58.341" stroke="#141414" stroke-width="0.4"/>
<line x1="51.342" y1="58.341" x2="51.342" y2="12.0" stroke="#141414" stroke-width="0.4"/>
<line x1="85.488" y1="151.024" x2="85.488" y2="197.366" stroke="#141414" stroke-width="0.4"/>
<line x1="85.488" y1="197.366" x2="51.342" y2="197.366" stroke="#141414" stroke-width="0.4"/>
<line x1="85.488" y1="104.683" x2="92.488" y2="111.634" stroke="#141414" stroke-width="0.4"/>
<line x1="92.488" y1="111.634" x2="92.488" y2="144.073" stroke="#141414" stroke-width="0.4"/>
<line x1="92.488" y1="144.073" x2="85.488" y2="151.024" stroke="#141414" stroke-width="0.4"/>
<line x1="51.342" y1="104.683" x2="44.342" y2="97.732" stroke="#141414" stroke-width="0.4"/>
<line x1="44.342" y1="97.732" x2="44.342" y2="65.293" stroke="#141414" stroke-width="0.4"/>
<line x1="44.342" y1="65.293" x2="51.342" y2="58.341" stroke="#141414" stroke-width="0.4"/>
<line x1="51.342" y1="104.683" x2="44.342" y2="111.634" stroke="#141414" stroke-width="0.4"/>
<line x1="44.342" y1="111.634" x2="44.342" y2="144.073" stroke="#141414" stroke-width="0.4"/>
<line x1="44.342" y1="144.073" x2="51.342" y2="151.024" stroke="#141414" stroke-width="0.4"/>
<line x1="85.488" y1="58.341" x2="92.439" y2="51.341" stroke="#141414" stroke-width="0.4"/>
<line x1="92.439" y1="51.341" x2="124.878" y2="51.341" stroke="#141414" stroke-width="0.4"/>
<line x1="124.878" y1="51.341" x2="131.829" y2="58.341" stroke="#141414" stroke-width="0.4"/>
<line x1="5.0" y1="197.366" x2="11.951" y2="204.366" stroke="#141414" stroke-width="0.4"/>
<line x1="11.951" y1="204.366" x2="44.39" y2="204.366" stroke="#141414" stroke-width="0.4"/>
<line x1="44.39" y1="204.366" x2="51.342" y2="197.366" stroke="#141414" stroke-width="0.4"/>
<line x1="131.829" y1="104.683" x2="138.829" y2="97.732" stroke="#141414" stroke-width="0.4"/>
<line x1="138.829" y1="97.732" x2="138.829" y2="65.293" stroke="#141414" stroke-width="0.4"/>
<line x1="138.829" y1="65.293" x2="131.829" y2="58.341" stroke="#141414" stroke-width="0.4"/>
<line x1="85.488" y1="12.0" x2="80.366" y2="5.0" stroke="#141414" stroke-width="0.4"/>
<line x1="80.366" y1="5.0" x2="56.464" y2="5.0" stroke="#141414" stroke-width="0.4"/>
<line x1="56.464" y1="5.0" x2="51.342" y2="12.0" stroke="#141414" stroke-width="0.4"/>
<circle cx="88.988" cy="127.854" r="3.08" fill="#ffe082" stroke="#464646" stroke-width="0.2"/>
<text x="88.988" y="129.32" font-size="4.18" text-anchor="middle" fill="#141414">8</text>
<circle cx="47.842" cy="81.512" r="3.08" fill="#ffe082" stroke="#464646" stroke-width="0.2"/>
<text x="47.842" y="82.97" font-size="4.18" text-anchor="middle" fill="#141414">9</text>
<circle cx="47.842" cy="127.854" r="3.08" fill="#ffe082" stroke="#464646" stroke-width="0.2"/>
<text x="47.842" y="129.32" font-size="4.18" text-anchor="middle" fill="#141414">10</text>
<circle cx="108.659" cy="54.841" r="3.08" fill="#ffe082" stroke="#464646" stroke-width="0.2"/>
<text x="108.659" y="56.30" font-size="4.18" text-anchor="middle" fill="#141414">11</text>
<circle cx="28.171" cy="200.866" r="3.08" fill="#ffe082" stroke="#464646" stroke-width="0.2"/>
<text x="28.171" y="202.33" font-size="4.18" text-anchor="middle" fill="#141414">12</text>
<circle cx="135.329" cy="81.512" r="3.08" fill="#ffe082" stroke="#464646" stroke-width="0.2"/>
<text x="135.329" y="82.97" font-size="4.18" text-anchor="middle" fill="#141414">13</text>
<circle cx="68.415" cy="8.5" r="3.08" fill="#ffe082" stroke="#464646" stroke-width="0.2"/>
<text x="68.415" y="9.96" font-size="4.18" text-anchor="middle" fill="#141414">14</text>
<circle cx="71.915" cy="210.466" r="4.6" fill="#eaf1fe" stroke="#2e78e6" stroke-width="0.3"/>
<text x="71.915" y="212.26600000000002" font-size="5.2" text-anchor="middle" fill="#14306e" font-weight="bold">2</text>
<g pointer-events="none"><text x="105.0" y="89.1" text-anchor="middle" font-family="sans-serif" font-size="21.2" fill="#9aa0a6" fill-opacity="0.33" transform="rotate(-28 105.0 89.1)">papercraft.kr 미리보기</text><text x="105.0" y="163.4" text-anchor="middle" font-family="sans-serif" font-size="21.2" fill="#9aa0a6" fill-opacity="0.33" transform="rotate(-28 105.0 163.4)">papercraft.kr 미리보기</text><text x="105.0" y="237.6" text-anchor="middle" font-family="sans-serif" font-size="21.2" fill="#9aa0a6" fill-opacity="0.33" transform="rotate(-28 105.0 237.6)">papercraft.kr 미리보기</text></g></svg>
