<svg xmlns="http://www.w3.org/2000/svg" xmlns:xlink="http://www.w3.org/1999/xlink" width="210.00mm" height="297.00mm" viewBox="0 0 210.00 297.00">
<rect x="0" y="0" width="210.00" height="297.00" fill="#ffffff" stroke="#cccccc" stroke-width="0.2"/>
<polygon points="97.683,129.073 104.683,137.854 104.683,178.829 97.683,187.61" fill="rgb(216,216,216)"/>
<polygon points="63.537,129.073 56.537,120.293 56.537,79.317 63.537,70.537" fill="rgb(216,216,216)"/>
<polygon points="63.537,129.073 56.537,137.854 56.537,178.829 63.537,187.61" fill="rgb(216,216,216)"/>
<polygon points="97.683,70.537 106.463,63.537 147.439,63.537 156.22,70.537" fill="rgb(216,216,216)"/>
<polygon points="5.0,246.146 13.78,253.146 54.756,253.146 63.537,246.146" fill="rgb(216,216,216)"/>
<polygon points="156.22,129.073 163.22,120.293 163.22,79.317 156.22,70.537" fill="rgb(216,216,216)"/>
<polygon points="97.683,12.0 92.561,5.0 68.659,5.0 63.537,12.0" fill="rgb(216,216,216)"/>
<line x1="97.683" y1="129.073" x2="63.537" y2="129.073" stroke="#8c8c8c" stroke-width="0.3" stroke-dasharray="1.2,0.8"/>
<line x1="97.683" y1="70.537" x2="97.683" y2="129.073" stroke="#8c8c8c" stroke-width="0.3" stroke-dasharray="1.2,0.8"/>
<line x1="63.537" y1="70.537" x2="97.683" y2="70.537" stroke="#8c8c8c" stroke-width="0.3" stroke-dasharray="1.2,0.8"/>
<line x1="97.683" y1="187.61" x2="63.537" y2="187.61" stroke="#8c8c8c" stroke-width="0.3" stroke-dasharray="1.2,0.8"/>
<line x1="63.537" y1="187.61" x2="63.537" y2="246.146" stroke="#8c8c8c" stroke-width="0.3" stroke-dasharray="1.2,0.8"/>
<line x1="97.683" y1="187.61" x2="97.683" y2="129.073" stroke="#8c8c8c" stroke-width="0.3" stroke-dasharray="1.2,0.8"/>
<line x1="63.537" y1="70.537" x2="63.537" y2="129.073" stroke="#8c8c8c" stroke-width="0.3" stroke-dasharray="1.2,0.8"/>
<line x1="63.537" y1="187.61" x2="63.537" y2="129.073" stroke="#8c8c8c" stroke-width="0.3" stroke-dasharray="1.2,0.8"/>
<line x1="156.22" y1="70.537" x2="97.683" y2="70.537" stroke="#8c8c8c" stroke-width="0.3" stroke-dasharray="1.2,0.8"/>
<line x1="63.537" y1="246.146" x2="5.0" y2="246.146" stroke="#8c8c8c" stroke-width="0.3" stroke-dasharray="1.2,0.8"/>
<line x1="156.22" y1="70.537" x2="156.22" y2="129.073" stroke="#8c8c8c" stroke-width="0.3" stroke-dasharray="1.2,0.8"/>
<line x1="63.537" y1="12.0" x2="97.683" y2="12.0" stroke="#8c8c8c" stroke-width="0.3" stroke-dasharray="1.2,0.8"/>
<line x1="156.22" y1="129.073" x2="97.683" y2="129.073" stroke="#141414" stroke-width="0.4"/>
<line x1="5.0" y1="246.146" x2="5.0" y2="187.61" stroke="#141414" stroke-width="0.4"/>
<line x1="5.0" y1="187.61" x2="63.537" y2="187.61" stroke="#141414" stroke-width="0.4"/>
<line x1="97.683" y1="12.0" x2="97.683" y2="70.537" stroke="#141414" stroke-width="0.4"/>
<line x1="63.537" y1="70.537" x2="63.537" y2="12.0" stroke="#141414" stroke-width="0.4"/>
<line x1="97.683" y1="187.61" x2="97.683" y2="246.146" stroke="#141414" stroke-width="0.4"/>
<line x1="97.683" y1="246.146" x2="63.537" y2="246.146" stroke="#141414" stroke-width="0.4"/>
<line x1="97.683" y1="129.073" x2="104.683" y2="137.854" stroke="#141414" stroke-width="0.4"/>
<line x1="104.683" y1="137.854" x2="104.683" y2="178.829" stroke="#141414" stroke-width="0.4"/>
<line x1="104.683" y1="178.829" x2="97.683" y2="187.61" stroke="#141414" stroke-width="0.4"/>
<line x1="63.537" y1="129.073" x2="56.537" y2="120.293" stroke="#141414" stroke-width="0.4"/>
<line x1="56.537" y1="120.293" x2="56.537" y2="79.317" stroke="#141414" stroke-width="0.4"/>
<line x1="56.537" y1="79.317" x2="63.537" y2="70.537" stroke="#141414" stroke-width="0.4"/>
<line x1="63.537" y1="129.073" x2="56.537" y2="137.854" stroke="#141414" stroke-width="0.4"/>
<line x1="56.537" y1="137.854" x2="56.537" y2="178.829" stroke="#141414" stroke-width="0.4"/>
<line x1="56.537" y1="178.829" x2="63.537" y2="187.61" stroke="#141414" stroke-width="0.4"/>
<line x1="97.683" y1="70.537" x2="106.463" y2="63.537" stroke="#141414" stroke-width="0.4"/>
<line x1="106.463" y1="63.537" x2="147.439" y2="63.537" stroke="#141414" stroke-width="0.4"/>
<line x1="147.439" y1="63.537" x2="156.22" y2="70.537" stroke="#141414" stroke-width="0.4"/>
<line x1="5.0" y1="246.146" x2="13.78" y2="253.146" stroke="#141414" stroke-width="0.4"/>
<line x1="13.78" y1="253.146" x2="54.756" y2="253.146" stroke="#141414" stroke-width="0.4"/>
<line x1="54.756" y1="253.146" x2="63.537" y2="246.146" stroke="#141414" stroke-width="0.4"/>
<line x1="156.22" y1="129.073" x2="163.22" y2="120.293" stroke="#141414" stroke-width="0.4"/>
<line x1="163.22" y1="120.293" x2="163.22" y2="79.317" stroke="#141414" stroke-width="0.4"/>
<line x1="163.22" y1="79.317" x2="156.22" y2="70.537" stroke="#141414" stroke-width="0.4"/>
<line x1="97.683" y1="12.0" x2="92.561" y2="5.0" stroke="#141414" stroke-width="0.4"/>
<line x1="92.561" y1="5.0" x2="68.659" y2="5.0" stroke="#141414" stroke-width="0.4"/>
<line x1="68.659" y1="5.0" x2="63.537" y2="12.0" stroke="#141414" stroke-width="0.4"/>
<circle cx="101.183" cy="158.341" r="3.08" fill="#ffe082" stroke="#464646" stroke-width="0.2"/>
<text x="101.183" y="159.80" font-size="4.18" text-anchor="middle" fill="#141414">1</text>
<circle cx="60.037" cy="99.805" r="3.08" fill="#ffe082" stroke="#464646" stroke-width="0.2"/>
<text x="60.037" y="101.27" font-size="4.18" text-anchor="middle" fill="#141414">2</text>
<circle cx="60.037" cy="158.341" r="3.08" fill="#ffe082" stroke="#464646" stroke-width="0.2"/>
<text x="60.037" y="159.80" font-size="4.18" text-anchor="middle" fill="#141414">3</text>
<circle cx="126.951" cy="67.037" r="3.08" fill="#ffe082" stroke="#464646" stroke-width="0.2"/>
<text x="126.951" y="68.50" font-size="4.18" text-anchor="middle" fill="#141414">4</text>
<circle cx="34.268" cy="249.646" r="3.08" fill="#ffe082" stroke="#464646" stroke-width="0.2"/>
<text x="34.268" y="251.11" font-size="4.18" text-anchor="middle" fill="#141414">5</text>
<circle cx="159.72" cy="99.805" r="3.08" fill="#ffe082" stroke="#464646" stroke-width="0.2"/>
<text x="159.72" y="101.27" font-size="4.18" text-anchor="middle" fill="#141414">6</text>
<circle cx="80.61" cy="8.5" r="3.08" fill="#ffe082" stroke="#464646" stroke-width="0.2"/>
<text x="80.61" y="9.96" font-size="4.18" text-anchor="middle" fill="#141414">7</text>
<circle cx="84.11" cy="259.246" r="4.6" fill="#eaf1fe" stroke="#2e78e6" stroke-width="0.3"/>
<text x="84.11" y="261.046" font-size="5.2" text-anchor="middle" fill="#14306e" font-weight="bold">1</text>
<g pointer-events="none"><text x="105.0" y="89.1" text-anchor="middle" font-family="sans-serif" font-size="21.2" fill="#9aa0a6" fill-opacity="0.33" transform="rotate(-28 105.0 89.1)">papercraft.kr 미리보기</text><text x="105.0" y="163.4" text-anchor="middle" font-family="sans-serif" font-size="21.2" fill="#9aa0a6" fill-opacity="0.33" transform="rotate(-28 105.0 163.4)">papercraft.kr 미리보기</text><text x="105.0" y="237.6" text-anchor="middle" font-family="sans-serif" font-size="21.2" fill="#9aa0a6" fill-opacity="0.33" transform="rotate(-28 105.0 237.6)">papercraft.kr 미리보기</text></g></svg>
