<svg xmlns="http://www.w3.org/2000/svg" xmlns:xlink="http://www.w3.org/1999/xlink" width="210.00mm" height="297.00mm" viewBox="0 0 210.00 297.00">
<rect x="0" y="0" width="210.00" height="297.00" fill="#ffffff" stroke="#cccccc" stroke-width="0.2"/>
<polygon points="46.999,105.694 39.392,102.991 36.03,84.526 42.197,79.315" fill="rgb(216,216,216)"/>
<polygon points="5.0,10.531 8.062,3.531 22.348,3.531 25.409,10.531" fill="rgb(216,216,216)"/>
<polygon points="9.157,31.857 10.971,37.904 19.438,37.904 21.252,31.857" fill="rgb(216,216,216)"/>
<polygon points="21.252,31.857 22.343,38.824 26.826,40.641 32.46,36.4" fill="rgb(216,216,216)"/>
<polygon points="44.324,18.196 51.395,15.303 61.65,25.25 58.974,32.406" fill="rgb(216,216,216)"/>
<polygon points="14.628,48.814 11.952,55.97 22.207,65.916 29.279,63.023" fill="rgb(216,216,216)"/>
<polygon points="58.974,32.406 66.614,32.38 72.382,45.45 67.214,51.077" fill="rgb(216,216,216)"/>
<polygon points="41.142,44.82 43.447,54.103 38.702,61.384 29.279,63.023" fill="rgb(216,216,216)"/>
<polygon points="46.025,55.884 40.036,57.883 40.295,66.344 46.395,67.973" fill="rgb(216,216,216)"/>
<polygon points="46.395,67.973 40.094,67.575 37.155,75.515 42.197,79.315" fill="rgb(216,216,216)"/>
<line x1="41.142" y1="44.82" x2="32.46" y2="36.4" stroke="#8c8c8c" stroke-width="0.3" stroke-dasharray="1.2,0.8"/>
<line x1="25.409" y1="10.531" x2="21.252" y2="31.857" stroke="#8c8c8c" stroke-width="0.3" stroke-dasharray="1.2,0.8"/>
<line x1="44.324" y1="18.197" x2="32.46" y2="36.4" stroke="#8c8c8c" stroke-width="0.3" stroke-dasharray="1.2,0.8"/>
<line x1="58.974" y1="32.406" x2="41.142" y2="44.82" stroke="#8c8c8c" stroke-width="0.3" stroke-dasharray="1.2,0.8"/>
<line x1="67.214" y1="51.077" x2="46.025" y2="55.884" stroke="#8c8c8c" stroke-width="0.3" stroke-dasharray="1.2,0.8"/>
<line x1="67.838" y1="71.477" x2="46.395" y2="67.973" stroke="#8c8c8c" stroke-width="0.3" stroke-dasharray="1.2,0.8"/>
<line x1="60.754" y1="90.617" x2="42.197" y2="79.315" stroke="#8c8c8c" stroke-width="0.3" stroke-dasharray="1.2,0.8"/>
<line x1="42.197" y1="79.315" x2="46.999" y2="105.694" stroke="#8c8c8c" stroke-width="0.3" stroke-dasharray="1.2,0.8"/>
<line x1="25.409" y1="10.531" x2="5.0" y2="10.531" stroke="#8c8c8c" stroke-width="0.3" stroke-dasharray="1.2,0.8"/>
<line x1="21.252" y1="31.857" x2="9.157" y2="31.857" stroke="#8c8c8c" stroke-width="0.3" stroke-dasharray="1.2,0.8"/>
<line x1="32.46" y1="36.4" x2="21.252" y2="31.857" stroke="#8c8c8c" stroke-width="0.3" stroke-dasharray="1.2,0.8"/>
<line x1="58.974" y1="32.406" x2="44.324" y2="18.196" stroke="#8c8c8c" stroke-width="0.3" stroke-dasharray="1.2,0.8"/>
<line x1="29.279" y1="63.023" x2="14.628" y2="48.814" stroke="#8c8c8c" stroke-width="0.3" stroke-dasharray="1.2,0.8"/>
<line x1="67.214" y1="51.077" x2="58.974" y2="32.406" stroke="#8c8c8c" stroke-width="0.3" stroke-dasharray="1.2,0.8"/>
<line x1="29.279" y1="63.023" x2="41.142" y2="44.82" stroke="#8c8c8c" stroke-width="0.3" stroke-dasharray="1.2,0.8"/>
<line x1="46.395" y1="67.973" x2="46.025" y2="55.884" stroke="#8c8c8c" stroke-width="0.3" stroke-dasharray="1.2,0.8"/>
<line x1="42.197" y1="79.315" x2="46.395" y2="67.973" stroke="#8c8c8c" stroke-width="0.3" stroke-dasharray="1.2,0.8"/>
<line x1="60.754" y1="90.617" x2="46.999" y2="105.694" stroke="#141414" stroke-width="0.4"/>
<line x1="9.157" y1="31.857" x2="5.0" y2="10.531" stroke="#141414" stroke-width="0.4"/>
<line x1="25.409" y1="10.531" x2="44.324" y2="18.197" stroke="#141414" stroke-width="0.4"/>
<line x1="14.628" y1="48.814" x2="32.46" y2="36.4" stroke="#141414" stroke-width="0.4"/>
<line x1="46.025" y1="55.884" x2="41.142" y2="44.82" stroke="#141414" stroke-width="0.4"/>
<line x1="67.214" y1="51.077" x2="67.838" y2="71.477" stroke="#141414" stroke-width="0.4"/>
<line x1="67.838" y1="71.477" x2="60.754" y2="90.617" stroke="#141414" stroke-width="0.4"/>
<line x1="46.999" y1="105.694" x2="39.392" y2="102.991" stroke="#141414" stroke-width="0.4"/>
<line x1="39.392" y1="102.991" x2="36.03" y2="84.526" stroke="#141414" stroke-width="0.4"/>
<line x1="36.03" y1="84.526" x2="42.197" y2="79.315" stroke="#141414" stroke-width="0.4"/>
<line x1="5.0" y1="10.531" x2="8.062" y2="3.531" stroke="#141414" stroke-width="0.4"/>
<line x1="8.062" y1="3.531" x2="22.348" y2="3.531" stroke="#141414" stroke-width="0.4"/>
<line x1="22.348" y1="3.531" x2="25.409" y2="10.531" stroke="#141414" stroke-width="0.4"/>
<line x1="9.157" y1="31.857" x2="10.971" y2="37.904" stroke="#141414" stroke-width="0.4"/>
<line x1="10.971" y1="37.904" x2="19.438" y2="37.904" stroke="#141414" stroke-width="0.4"/>
<line x1="19.438" y1="37.904" x2="21.252" y2="31.857" stroke="#141414" stroke-width="0.4"/>
<line x1="21.252" y1="31.857" x2="22.343" y2="38.824" stroke="#141414" stroke-width="0.4"/>
<line x1="22.343" y1="38.824" x2="26.826" y2="40.641" stroke="#141414" stroke-width="0.4"/>
<line x1="26.826" y1="40.641" x2="32.46" y2="36.4" stroke="#141414" stroke-width="0.4"/>
<line x1="44.324" y1="18.196" x2="51.395" y2="15.303" stroke="#141414" stroke-width="0.4"/>
<line x1="51.395" y1="15.303" x2="61.65" y2="25.25" stroke="#141414" stroke-width="0.4"/>
<line x1="61.65" y1="25.25" x2="58.974" y2="32.406" stroke="#141414" stroke-width="0.4"/>
<line x1="14.628" y1="48.814" x2="11.952" y2="55.97" stroke="#141414" stroke-width="0.4"/>
<line x1="11.952" y1="55.97" x2="22.207" y2="65.916" stroke="#141414" stroke-width="0.4"/>
<line x1="22.207" y1="65.916" x2="29.279" y2="63.023" stroke="#141414" stroke-width="0.4"/>
<line x1="58.974" y1="32.406" x2="66.614" y2="32.38" stroke="#141414" stroke-width="0.4"/>
<line x1="66.614" y1="32.38" x2="72.382" y2="45.45" stroke="#141414" stroke-width="0.4"/>
<line x1="72.382" y1="45.45" x2="67.214" y2="51.077" stroke="#141414" stroke-width="0.4"/>
<line x1="41.142" y1="44.82" x2="43.447" y2="54.103" stroke="#141414" stroke-width="0.4"/>
<line x1="43.447" y1="54.103" x2="38.702" y2="61.384" stroke="#141414" stroke-width="0.4"/>
<line x1="38.702" y1="61.384" x2="29.279" y2="63.023" stroke="#141414" stroke-width="0.4"/>
<line x1="46.025" y1="55.884" x2="40.036" y2="57.883" stroke="#141414" stroke-width="0.4"/>
<line x1="40.036" y1="57.883" x2="40.295" y2="66.344" stroke="#141414" stroke-width="0.4"/>
<line x1="40.295" y1="66.344" x2="46.395" y2="67.973" stroke="#141414" stroke-width="0.4"/>
<line x1="46.395" y1="67.973" x2="40.094" y2="67.575" stroke="#141414" stroke-width="0.4"/>
<line x1="40.094" y1="67.575" x2="37.155" y2="75.515" stroke="#141414" stroke-width="0.4"/>
<line x1="37.155" y1="75.515" x2="42.197" y2="79.315" stroke="#141414" stroke-width="0.4"/>
<circle cx="41.154" cy="93.132" r="2.66" fill="#ffe082" stroke="#464646" stroke-width="0.2"/>
<text x="41.154" y="94.40" font-size="3.61" text-anchor="middle" fill="#141414">35</text>
<circle cx="15.205" cy="7.031" r="2.66" fill="#ffe082" stroke="#464646" stroke-width="0.2"/>
<text x="15.205" y="8.29" font-size="3.61" text-anchor="middle" fill="#141414">36</text>
<circle cx="15.204" cy="34.88" r="2.66" fill="#ffe082" stroke="#464646" stroke-width="0.2"/>
<text x="15.204" y="36.14" font-size="3.61" text-anchor="middle" fill="#141414">37</text>
<circle cx="25.72" cy="36.93" r="2.66" fill="#ffe082" stroke="#464646" stroke-width="0.2"/>
<text x="25.72" y="38.19" font-size="3.61" text-anchor="middle" fill="#141414">38</text>
<circle cx="54.085" cy="22.789" r="2.66" fill="#ffe082" stroke="#464646" stroke-width="0.2"/>
<text x="54.085" y="24.05" font-size="3.61" text-anchor="middle" fill="#141414">39</text>
<circle cx="19.517" cy="58.431" r="2.66" fill="#ffe082" stroke="#464646" stroke-width="0.2"/>
<text x="19.517" y="59.69" font-size="3.61" text-anchor="middle" fill="#141414">40</text>
<circle cx="66.296" cy="40.328" r="2.66" fill="#ffe082" stroke="#464646" stroke-width="0.2"/>
<text x="66.296" y="41.59" font-size="3.61" text-anchor="middle" fill="#141414">41</text>
<circle cx="38.143" cy="55.832" r="2.66" fill="#ffe082" stroke="#464646" stroke-width="0.2"/>
<text x="38.143" y="57.10" font-size="3.61" text-anchor="middle" fill="#141414">42</text>
<circle cx="43.188" cy="62.021" r="2.66" fill="#ffe082" stroke="#464646" stroke-width="0.2"/>
<text x="43.188" y="63.28" font-size="3.61" text-anchor="middle" fill="#141414">43</text>
<circle cx="41.46" cy="72.595" r="2.66" fill="#ffe082" stroke="#464646" stroke-width="0.2"/>
<text x="41.46" y="73.86" font-size="3.61" text-anchor="middle" fill="#141414">44</text>
<circle cx="38.691" cy="113.264" r="4.6" fill="#eaf1fe" stroke="#2e78e6" stroke-width="0.3"/>
<text x="38.691" y="115.064" font-size="5.2" text-anchor="middle" fill="#14306e" font-weight="bold">4</text>
<text x="205.0" y="295.0" font-size="3.2" text-anchor="end" fill="#737373" font-family="sans-serif">3 / 3</text>
<g pointer-events="none"><text x="105.0" y="83.2" text-anchor="middle" font-family="sans-serif" font-size="12.4" fill="#9aa0a6" fill-opacity="0.3" transform="rotate(-28 105.0 83.2)">papercraft.kr</text><text x="105.0" y="148.5" text-anchor="middle" font-family="sans-serif" font-size="12.4" fill="#9aa0a6" fill-opacity="0.3" transform="rotate(-28 105.0 148.5)">papercraft.kr</text><text x="105.0" y="213.8" text-anchor="middle" font-family="sans-serif" font-size="12.4" fill="#9aa0a6" fill-opacity="0.3" transform="rotate(-28 105.0 213.8)">papercraft.kr</text></g></svg>
