<svg xmlns="http://www.w3.org/2000/svg" xmlns:xlink="http://www.w3.org/1999/xlink" width="210.00mm" height="297.00mm" viewBox="0 0 210.00 297.00">
<rect x="0" y="0" width="210.00" height="297.00" fill="#ffffff" stroke="#cccccc" stroke-width="0.2"/>
<polygon points="134.738,6.38 139.992,21.098 132.085,85.82 123.442,98.841" fill="rgb(216,216,216)"/>
<polygon points="123.442,5.0 114.799,18.02 106.892,82.743 112.146,97.46" fill="rgb(216,216,216)"/>
<polygon points="5.0,206.363 18.02,215.006 82.743,222.913 97.46,217.659" fill="rgb(216,216,216)"/>
<polygon points="123.442,5.0 114.799,18.02 106.892,82.743 112.146,97.46" fill="#99d9fa"/>
<line x1="123.442" y1="98.841" x2="112.146" y2="97.46" stroke="#8c8c8c" stroke-width="0.3" stroke-dasharray="1.2,0.8"/>
<line x1="112.146" y1="97.46" x2="97.46" y2="217.659" stroke="#8c8c8c" stroke-width="0.3" stroke-dasharray="1.2,0.8"/>
<line x1="123.442" y1="98.841" x2="134.738" y2="6.38" stroke="#8c8c8c" stroke-width="0.3" stroke-dasharray="1.2,0.8"/>
<line x1="112.146" y1="97.46" x2="123.442" y2="5.0" stroke="#8c8c8c" stroke-width="0.3" stroke-dasharray="1.2,0.8"/>
<line x1="97.46" y1="217.659" x2="5.0" y2="206.363" stroke="#8c8c8c" stroke-width="0.3" stroke-dasharray="1.2,0.8"/>
<line x1="123.442" y1="5.0" x2="134.738" y2="6.38" stroke="#141414" stroke-width="0.4"/>
<line x1="5.0" y1="206.363" x2="19.685" y2="86.164" stroke="#141414" stroke-width="0.4"/>
<line x1="19.685" y1="86.164" x2="112.146" y2="97.46" stroke="#141414" stroke-width="0.4"/>
<line x1="123.442" y1="98.841" x2="108.757" y2="219.039" stroke="#141414" stroke-width="0.4"/>
<line x1="108.757" y1="219.039" x2="97.46" y2="217.659" stroke="#141414" stroke-width="0.4"/>
<line x1="134.738" y1="6.38" x2="139.992" y2="21.098" stroke="#141414" stroke-width="0.4"/>
<line x1="139.992" y1="21.098" x2="132.085" y2="85.82" stroke="#141414" stroke-width="0.4"/>
<line x1="132.085" y1="85.82" x2="123.442" y2="98.841" stroke="#141414" stroke-width="0.4"/>
<line x1="123.442" y1="5.0" x2="114.799" y2="18.02" stroke="#141414" stroke-width="0.4"/>
<line x1="114.799" y1="18.02" x2="106.892" y2="82.743" stroke="#141414" stroke-width="0.4"/>
<line x1="106.892" y1="82.743" x2="112.146" y2="97.46" stroke="#141414" stroke-width="0.4"/>
<line x1="5.0" y1="206.363" x2="18.02" y2="215.006" stroke="#141414" stroke-width="0.4"/>
<line x1="18.02" y1="215.006" x2="82.743" y2="222.913" stroke="#141414" stroke-width="0.4"/>
<line x1="82.743" y1="222.913" x2="97.46" y2="217.659" stroke="#141414" stroke-width="0.4"/>
<circle cx="132.564" cy="53.035" r="2.05" fill="#ffe082" stroke="#464646" stroke-width="0.2"/>
<text x="132.564" y="54.01" font-size="2.78" text-anchor="middle" fill="#141414">40</text>
<circle cx="114.32" cy="50.806" r="2.05" fill="#99d9fa" stroke="#464646" stroke-width="0.2"/>
<text x="114.32" y="51.78" font-size="2.78" text-anchor="middle" fill="#141414">41</text>
<circle cx="50.806" cy="215.485" r="2.05" fill="#ffe082" stroke="#464646" stroke-width="0.2"/>
<text x="50.806" y="216.46" font-size="2.78" text-anchor="middle" fill="#141414">42</text>
<circle cx="76.43" cy="133.761" r="4.60" fill="#eaf1fe" stroke="#2e78e6" stroke-width="0.3"/>
<text x="76.43" y="135.56" font-size="5.20" text-anchor="middle" fill="#14306e" font-weight="bold">6</text>
<text x="205.0" y="295.0" font-size="3.2" text-anchor="end" fill="#737373" font-family="sans-serif">5 / 6</text>
</svg>
