<svg xmlns="http://www.w3.org/2000/svg" xmlns:xlink="http://www.w3.org/1999/xlink" width="210.00mm" height="297.00mm" viewBox="0 0 210.00 297.00">
<rect x="0" y="0" width="210.00" height="297.00" fill="#ffffff" stroke="#cccccc" stroke-width="0.2"/>
<polygon points="65.675,31.422 62.228,23.771 63.12,21.918 71.251,19.843" fill="rgb(216,216,216)"/>
<polygon points="26.072,50.969 18.601,49.455 17.085,46.458 20.659,40.265" fill="rgb(216,216,216)"/>
<polygon points="71.251,43.0 75.084,50.466 77.088,50.923 83.78,45.86" fill="rgb(216,216,216)"/>
<polygon points="31.276,61.776 27.802,68.561 29.2,71.615 36.269,72.682" fill="rgb(216,216,216)"/>
<polygon points="83.78,45.86 89.294,49.682 96.327,44.073 93.828,37.847" fill="rgb(216,216,216)"/>
<polygon points="36.269,72.682 31.486,76.722 34.833,84.423 41.051,83.682" fill="rgb(216,216,216)"/>
<polygon points="93.828,37.847 100.253,35.92 100.253,26.924 93.828,24.996" fill="rgb(216,216,216)"/>
<polygon points="41.051,83.682 36.19,87.629 39.387,95.393 45.617,94.773" fill="rgb(216,216,216)"/>
<polygon points="93.828,24.996 96.327,18.77 89.294,13.162 83.78,16.984" fill="rgb(216,216,216)"/>
<polygon points="45.617,94.773 40.681,98.625 43.727,106.45 49.968,105.951" fill="rgb(216,216,216)"/>
<polygon points="83.78,16.984 80.471,11.148 71.701,13.15 71.251,19.843" fill="rgb(216,216,216)"/>
<polygon points="49.968,105.951 44.958,109.707 47.852,117.589 54.102,117.211" fill="rgb(216,216,216)"/>
<polygon points="95.707,102.395 91.815,111.212 62.691,121.583 54.102,117.211" fill="rgb(216,216,216)"/>
<line x1="26.072" y1="50.969" x2="65.675" y2="31.422" stroke="#8c8c8c" stroke-width="0.3" stroke-dasharray="1.2,0.8"/>
<line x1="71.251" y1="43.0" x2="65.675" y2="31.422" stroke="#8c8c8c" stroke-width="0.3" stroke-dasharray="1.2,0.8"/>
<line x1="31.276" y1="61.776" x2="26.072" y2="50.969" stroke="#8c8c8c" stroke-width="0.3" stroke-dasharray="1.2,0.8"/>
<line x1="71.251" y1="43.0" x2="31.276" y2="61.776" stroke="#8c8c8c" stroke-width="0.3" stroke-dasharray="1.2,0.8"/>
<line x1="76.601" y1="54.685" x2="36.27" y2="72.682" stroke="#8c8c8c" stroke-width="0.3" stroke-dasharray="1.2,0.8"/>
<line x1="81.724" y1="66.471" x2="41.051" y2="83.682" stroke="#8c8c8c" stroke-width="0.3" stroke-dasharray="1.2,0.8"/>
<line x1="86.617" y1="78.355" x2="45.618" y2="94.773" stroke="#8c8c8c" stroke-width="0.3" stroke-dasharray="1.2,0.8"/>
<line x1="91.279" y1="90.331" x2="49.968" y2="105.951" stroke="#8c8c8c" stroke-width="0.3" stroke-dasharray="1.2,0.8"/>
<line x1="71.251" y1="19.843" x2="65.675" y2="31.422" stroke="#8c8c8c" stroke-width="0.3" stroke-dasharray="1.2,0.8"/>
<line x1="20.659" y1="40.265" x2="26.072" y2="50.969" stroke="#8c8c8c" stroke-width="0.3" stroke-dasharray="1.2,0.8"/>
<line x1="83.78" y1="45.86" x2="71.251" y2="43.0" stroke="#8c8c8c" stroke-width="0.3" stroke-dasharray="1.2,0.8"/>
<line x1="36.269" y1="72.682" x2="31.276" y2="61.776" stroke="#8c8c8c" stroke-width="0.3" stroke-dasharray="1.2,0.8"/>
<line x1="93.828" y1="37.847" x2="83.78" y2="45.86" stroke="#8c8c8c" stroke-width="0.3" stroke-dasharray="1.2,0.8"/>
<line x1="41.051" y1="83.682" x2="36.269" y2="72.682" stroke="#8c8c8c" stroke-width="0.3" stroke-dasharray="1.2,0.8"/>
<line x1="93.828" y1="24.996" x2="93.828" y2="37.847" stroke="#8c8c8c" stroke-width="0.3" stroke-dasharray="1.2,0.8"/>
<line x1="45.617" y1="94.773" x2="41.051" y2="83.682" stroke="#8c8c8c" stroke-width="0.3" stroke-dasharray="1.2,0.8"/>
<line x1="83.78" y1="16.984" x2="93.828" y2="24.996" stroke="#8c8c8c" stroke-width="0.3" stroke-dasharray="1.2,0.8"/>
<line x1="49.968" y1="105.951" x2="45.617" y2="94.773" stroke="#8c8c8c" stroke-width="0.3" stroke-dasharray="1.2,0.8"/>
<line x1="71.251" y1="19.843" x2="83.78" y2="16.984" stroke="#8c8c8c" stroke-width="0.3" stroke-dasharray="1.2,0.8"/>
<line x1="54.102" y1="117.211" x2="49.968" y2="105.951" stroke="#8c8c8c" stroke-width="0.3" stroke-dasharray="1.2,0.8"/>
<line x1="54.102" y1="117.211" x2="95.707" y2="102.395" stroke="#8c8c8c" stroke-width="0.3" stroke-dasharray="1.2,0.8"/>
<line x1="59.876" y1="19.953" x2="65.675" y2="31.422" stroke="#141414" stroke-width="0.4"/>
<line x1="14.378" y1="48.3" x2="26.072" y2="50.969" stroke="#141414" stroke-width="0.4"/>
<line x1="71.251" y1="43.0" x2="76.601" y2="54.685" stroke="#141414" stroke-width="0.4"/>
<line x1="31.276" y1="61.776" x2="26.072" y2="72.583" stroke="#141414" stroke-width="0.4"/>
<line x1="76.601" y1="54.685" x2="81.724" y2="66.471" stroke="#141414" stroke-width="0.4"/>
<line x1="26.072" y1="72.583" x2="14.378" y2="75.252" stroke="#141414" stroke-width="0.4"/>
<line x1="81.724" y1="66.471" x2="86.617" y2="78.355" stroke="#141414" stroke-width="0.4"/>
<line x1="14.378" y1="75.252" x2="5.0" y2="67.773" stroke="#141414" stroke-width="0.4"/>
<line x1="86.617" y1="78.355" x2="91.279" y2="90.331" stroke="#141414" stroke-width="0.4"/>
<line x1="5.0" y1="67.773" x2="5.0" y2="55.779" stroke="#141414" stroke-width="0.4"/>
<line x1="91.279" y1="90.331" x2="95.707" y2="102.395" stroke="#141414" stroke-width="0.4"/>
<line x1="5.0" y1="55.779" x2="14.378" y2="48.3" stroke="#141414" stroke-width="0.4"/>
<line x1="20.659" y1="40.265" x2="59.876" y2="19.953" stroke="#141414" stroke-width="0.4"/>
<line x1="65.675" y1="31.422" x2="62.228" y2="23.771" stroke="#141414" stroke-width="0.4"/>
<line x1="62.228" y1="23.771" x2="63.12" y2="21.918" stroke="#141414" stroke-width="0.4"/>
<line x1="63.12" y1="21.918" x2="71.251" y2="19.843" stroke="#141414" stroke-width="0.4"/>
<line x1="26.072" y1="50.969" x2="18.601" y2="49.455" stroke="#141414" stroke-width="0.4"/>
<line x1="18.601" y1="49.455" x2="17.085" y2="46.458" stroke="#141414" stroke-width="0.4"/>
<line x1="17.085" y1="46.458" x2="20.659" y2="40.265" stroke="#141414" stroke-width="0.4"/>
<line x1="71.251" y1="43.0" x2="75.084" y2="50.466" stroke="#141414" stroke-width="0.4"/>
<line x1="75.084" y1="50.466" x2="77.088" y2="50.923" stroke="#141414" stroke-width="0.4"/>
<line x1="77.088" y1="50.923" x2="83.78" y2="45.86" stroke="#141414" stroke-width="0.4"/>
<line x1="31.276" y1="61.776" x2="27.802" y2="68.561" stroke="#141414" stroke-width="0.4"/>
<line x1="27.802" y1="68.561" x2="29.2" y2="71.615" stroke="#141414" stroke-width="0.4"/>
<line x1="29.2" y1="71.615" x2="36.269" y2="72.682" stroke="#141414" stroke-width="0.4"/>
<line x1="83.78" y1="45.86" x2="89.294" y2="49.682" stroke="#141414" stroke-width="0.4"/>
<line x1="89.294" y1="49.682" x2="96.327" y2="44.073" stroke="#141414" stroke-width="0.4"/>
<line x1="96.327" y1="44.073" x2="93.828" y2="37.847" stroke="#141414" stroke-width="0.4"/>
<line x1="36.269" y1="72.682" x2="31.486" y2="76.722" stroke="#141414" stroke-width="0.4"/>
<line x1="31.486" y1="76.722" x2="34.833" y2="84.423" stroke="#141414" stroke-width="0.4"/>
<line x1="34.833" y1="84.423" x2="41.051" y2="83.682" stroke="#141414" stroke-width="0.4"/>
<line x1="93.828" y1="37.847" x2="100.253" y2="35.92" stroke="#141414" stroke-width="0.4"/>
<line x1="100.253" y1="35.92" x2="100.253" y2="26.924" stroke="#141414" stroke-width="0.4"/>
<line x1="100.253" y1="26.924" x2="93.828" y2="24.996" stroke="#141414" stroke-width="0.4"/>
<line x1="41.051" y1="83.682" x2="36.19" y2="87.629" stroke="#141414" stroke-width="0.4"/>
<line x1="36.19" y1="87.629" x2="39.387" y2="95.393" stroke="#141414" stroke-width="0.4"/>
<line x1="39.387" y1="95.393" x2="45.617" y2="94.773" stroke="#141414" stroke-width="0.4"/>
<line x1="93.828" y1="24.996" x2="96.327" y2="18.77" stroke="#141414" stroke-width="0.4"/>
<line x1="96.327" y1="18.77" x2="89.294" y2="13.162" stroke="#141414" stroke-width="0.4"/>
<line x1="89.294" y1="13.162" x2="83.78" y2="16.984" stroke="#141414" stroke-width="0.4"/>
<line x1="45.617" y1="94.773" x2="40.681" y2="98.625" stroke="#141414" stroke-width="0.4"/>
<line x1="40.681" y1="98.625" x2="43.727" y2="106.45" stroke="#141414" stroke-width="0.4"/>
<line x1="43.727" y1="106.45" x2="49.968" y2="105.951" stroke="#141414" stroke-width="0.4"/>
<line x1="83.78" y1="16.984" x2="80.471" y2="11.148" stroke="#141414" stroke-width="0.4"/>
<line x1="80.471" y1="11.148" x2="71.701" y2="13.15" stroke="#141414" stroke-width="0.4"/>
<line x1="71.701" y1="13.15" x2="71.251" y2="19.843" stroke="#141414" stroke-width="0.4"/>
<line x1="49.968" y1="105.951" x2="44.958" y2="109.707" stroke="#141414" stroke-width="0.4"/>
<line x1="44.958" y1="109.707" x2="47.852" y2="117.589" stroke="#141414" stroke-width="0.4"/>
<line x1="47.852" y1="117.589" x2="54.102" y2="117.211" stroke="#141414" stroke-width="0.4"/>
<line x1="95.707" y1="102.395" x2="91.815" y2="111.212" stroke="#141414" stroke-width="0.4"/>
<line x1="91.815" y1="111.212" x2="62.691" y2="121.583" stroke="#141414" stroke-width="0.4"/>
<line x1="62.691" y1="121.583" x2="54.102" y2="117.211" stroke="#141414" stroke-width="0.4"/>
<circle cx="65.568" cy="24.238" r="2.28" fill="#ffe082" stroke="#464646" stroke-width="0.2"/>
<text x="65.568" y="25.02" font-size="2.24" text-anchor="middle" fill="#141414">143</text>
<circle cx="20.604" cy="46.787" r="2.28" fill="#ffe082" stroke="#464646" stroke-width="0.2"/>
<text x="20.604" y="47.57" font-size="2.24" text-anchor="middle" fill="#141414">144</text>
<circle cx="76.801" cy="47.562" r="2.28" fill="#ffe082" stroke="#464646" stroke-width="0.2"/>
<text x="76.801" y="48.35" font-size="2.24" text-anchor="middle" fill="#141414">145</text>
<circle cx="31.137" cy="68.658" r="2.28" fill="#ffe082" stroke="#464646" stroke-width="0.2"/>
<text x="31.137" y="69.44" font-size="2.24" text-anchor="middle" fill="#141414">146</text>
<circle cx="90.807" cy="44.366" r="2.28" fill="#ffe082" stroke="#464646" stroke-width="0.2"/>
<text x="90.807" y="45.15" font-size="2.24" text-anchor="middle" fill="#141414">147</text>
<circle cx="35.91" cy="79.377" r="2.28" fill="#ffe082" stroke="#464646" stroke-width="0.2"/>
<text x="35.91" y="80.16" font-size="2.24" text-anchor="middle" fill="#141414">148</text>
<circle cx="97.04" cy="31.422" r="2.28" fill="#ffe082" stroke="#464646" stroke-width="0.2"/>
<text x="97.04" y="32.21" font-size="2.24" text-anchor="middle" fill="#141414">149</text>
<circle cx="40.561" cy="90.369" r="2.28" fill="#ffe082" stroke="#464646" stroke-width="0.2"/>
<text x="40.561" y="91.15" font-size="2.24" text-anchor="middle" fill="#141414">150</text>
<circle cx="90.807" cy="18.478" r="2.28" fill="#ffe082" stroke="#464646" stroke-width="0.2"/>
<text x="90.807" y="19.26" font-size="2.24" text-anchor="middle" fill="#141414">151</text>
<circle cx="44.998" cy="101.45" r="2.28" fill="#ffe082" stroke="#464646" stroke-width="0.2"/>
<text x="44.998" y="102.23" font-size="2.24" text-anchor="middle" fill="#141414">152</text>
<circle cx="76.801" cy="15.281" r="2.28" fill="#ffe082" stroke="#464646" stroke-width="0.2"/>
<text x="76.801" y="16.06" font-size="2.24" text-anchor="middle" fill="#141414">153</text>
<circle cx="49.22" cy="112.614" r="2.28" fill="#ffe082" stroke="#464646" stroke-width="0.2"/>
<text x="49.22" y="113.40" font-size="2.24" text-anchor="middle" fill="#141414">154</text>
<circle cx="76.078" cy="113.1" r="2.28" fill="#ffe082" stroke="#464646" stroke-width="0.2"/>
<text x="76.078" y="113.88" font-size="2.24" text-anchor="middle" fill="#141414">155</text>
<circle cx="52.627" cy="121.535" r="4.6" fill="#eaf1fe" stroke="#2e78e6" stroke-width="0.3"/>
<text x="52.627" y="123.335" font-size="5.2" text-anchor="middle" fill="#14306e" font-weight="bold">15</text>
<polygon points="163.928,31.422 160.481,23.771 161.373,21.918 169.504,19.843" fill="rgb(216,216,216)"/>
<polygon points="124.325,50.969 116.854,49.455 115.338,46.458 118.912,40.265" fill="rgb(216,216,216)"/>
<polygon points="169.504,43.0 173.337,50.466 175.341,50.923 182.034,45.86" fill="rgb(216,216,216)"/>
<polygon points="129.529,61.776 126.055,68.561 127.453,71.615 134.523,72.682" fill="rgb(216,216,216)"/>
<polygon points="182.034,45.86 187.547,49.682 194.58,44.073 192.081,37.847" fill="rgb(216,216,216)"/>
<polygon points="134.523,72.682 129.74,76.722 133.087,84.423 139.304,83.682" fill="rgb(216,216,216)"/>
<polygon points="192.081,37.847 198.507,35.92 198.507,26.924 192.081,24.996" fill="rgb(216,216,216)"/>
<polygon points="139.304,83.682 134.443,87.629 137.64,95.393 143.871,94.773" fill="rgb(216,216,216)"/>
<polygon points="192.081,24.996 194.58,18.77 187.547,13.162 182.034,16.984" fill="rgb(216,216,216)"/>
<polygon points="143.871,94.773 138.934,98.625 141.98,106.45 148.222,105.951" fill="rgb(216,216,216)"/>
<polygon points="182.034,16.984 178.724,11.148 169.954,13.15 169.504,19.843" fill="rgb(216,216,216)"/>
<polygon points="148.222,105.951 143.212,109.707 146.105,117.589 152.355,117.211" fill="rgb(216,216,216)"/>
<polygon points="193.96,102.395 190.068,111.212 160.944,121.583 152.355,117.211" fill="rgb(216,216,216)"/>
<line x1="124.325" y1="50.969" x2="163.928" y2="31.422" stroke="#8c8c8c" stroke-width="0.3" stroke-dasharray="1.2,0.8"/>
<line x1="169.504" y1="43.0" x2="163.928" y2="31.422" stroke="#8c8c8c" stroke-width="0.3" stroke-dasharray="1.2,0.8"/>
<line x1="129.529" y1="61.776" x2="124.325" y2="50.969" stroke="#8c8c8c" stroke-width="0.3" stroke-dasharray="1.2,0.8"/>
<line x1="169.504" y1="43.0" x2="129.529" y2="61.776" stroke="#8c8c8c" stroke-width="0.3" stroke-dasharray="1.2,0.8"/>
<line x1="174.855" y1="54.685" x2="134.523" y2="72.682" stroke="#8c8c8c" stroke-width="0.3" stroke-dasharray="1.2,0.8"/>
<line x1="179.977" y1="66.471" x2="139.304" y2="83.682" stroke="#8c8c8c" stroke-width="0.3" stroke-dasharray="1.2,0.8"/>
<line x1="184.87" y1="78.355" x2="143.871" y2="94.773" stroke="#8c8c8c" stroke-width="0.3" stroke-dasharray="1.2,0.8"/>
<line x1="189.532" y1="90.331" x2="148.222" y2="105.951" stroke="#8c8c8c" stroke-width="0.3" stroke-dasharray="1.2,0.8"/>
<line x1="169.504" y1="19.843" x2="163.928" y2="31.422" stroke="#8c8c8c" stroke-width="0.3" stroke-dasharray="1.2,0.8"/>
<line x1="118.912" y1="40.265" x2="124.325" y2="50.969" stroke="#8c8c8c" stroke-width="0.3" stroke-dasharray="1.2,0.8"/>
<line x1="182.034" y1="45.86" x2="169.504" y2="43.0" stroke="#8c8c8c" stroke-width="0.3" stroke-dasharray="1.2,0.8"/>
<line x1="134.523" y1="72.682" x2="129.529" y2="61.776" stroke="#8c8c8c" stroke-width="0.3" stroke-dasharray="1.2,0.8"/>
<line x1="192.081" y1="37.847" x2="182.034" y2="45.86" stroke="#8c8c8c" stroke-width="0.3" stroke-dasharray="1.2,0.8"/>
<line x1="139.304" y1="83.682" x2="134.523" y2="72.682" stroke="#8c8c8c" stroke-width="0.3" stroke-dasharray="1.2,0.8"/>
<line x1="192.081" y1="24.996" x2="192.081" y2="37.847" stroke="#8c8c8c" stroke-width="0.3" stroke-dasharray="1.2,0.8"/>
<line x1="143.871" y1="94.773" x2="139.304" y2="83.682" stroke="#8c8c8c" stroke-width="0.3" stroke-dasharray="1.2,0.8"/>
<line x1="182.034" y1="16.984" x2="192.081" y2="24.996" stroke="#8c8c8c" stroke-width="0.3" stroke-dasharray="1.2,0.8"/>
<line x1="148.222" y1="105.951" x2="143.871" y2="94.773" stroke="#8c8c8c" stroke-width="0.3" stroke-dasharray="1.2,0.8"/>
<line x1="169.504" y1="19.843" x2="182.034" y2="16.984" stroke="#8c8c8c" stroke-width="0.3" stroke-dasharray="1.2,0.8"/>
<line x1="152.355" y1="117.211" x2="148.222" y2="105.951" stroke="#8c8c8c" stroke-width="0.3" stroke-dasharray="1.2,0.8"/>
<line x1="152.355" y1="117.211" x2="193.96" y2="102.395" stroke="#8c8c8c" stroke-width="0.3" stroke-dasharray="1.2,0.8"/>
<line x1="158.129" y1="19.953" x2="163.928" y2="31.422" stroke="#141414" stroke-width="0.4"/>
<line x1="112.631" y1="48.3" x2="124.325" y2="50.969" stroke="#141414" stroke-width="0.4"/>
<line x1="169.504" y1="43.0" x2="174.855" y2="54.685" stroke="#141414" stroke-width="0.4"/>
<line x1="129.529" y1="61.776" x2="124.325" y2="72.583" stroke="#141414" stroke-width="0.4"/>
<line x1="174.855" y1="54.685" x2="179.977" y2="66.471" stroke="#141414" stroke-width="0.4"/>
<line x1="124.325" y1="72.583" x2="112.631" y2="75.252" stroke="#141414" stroke-width="0.4"/>
<line x1="179.977" y1="66.471" x2="184.87" y2="78.355" stroke="#141414" stroke-width="0.4"/>
<line x1="112.631" y1="75.252" x2="103.253" y2="67.773" stroke="#141414" stroke-width="0.4"/>
<line x1="184.87" y1="78.355" x2="189.532" y2="90.331" stroke="#141414" stroke-width="0.4"/>
<line x1="103.253" y1="67.773" x2="103.253" y2="55.779" stroke="#141414" stroke-width="0.4"/>
<line x1="189.532" y1="90.331" x2="193.96" y2="102.395" stroke="#141414" stroke-width="0.4"/>
<line x1="103.253" y1="55.779" x2="112.631" y2="48.3" stroke="#141414" stroke-width="0.4"/>
<line x1="118.912" y1="40.265" x2="158.129" y2="19.953" stroke="#141414" stroke-width="0.4"/>
<line x1="163.928" y1="31.422" x2="160.481" y2="23.771" stroke="#141414" stroke-width="0.4"/>
<line x1="160.481" y1="23.771" x2="161.373" y2="21.918" stroke="#141414" stroke-width="0.4"/>
<line x1="161.373" y1="21.918" x2="169.504" y2="19.843" stroke="#141414" stroke-width="0.4"/>
<line x1="124.325" y1="50.969" x2="116.854" y2="49.455" stroke="#141414" stroke-width="0.4"/>
<line x1="116.854" y1="49.455" x2="115.338" y2="46.458" stroke="#141414" stroke-width="0.4"/>
<line x1="115.338" y1="46.458" x2="118.912" y2="40.265" stroke="#141414" stroke-width="0.4"/>
<line x1="169.504" y1="43.0" x2="173.337" y2="50.466" stroke="#141414" stroke-width="0.4"/>
<line x1="173.337" y1="50.466" x2="175.341" y2="50.923" stroke="#141414" stroke-width="0.4"/>
<line x1="175.341" y1="50.923" x2="182.034" y2="45.86" stroke="#141414" stroke-width="0.4"/>
<line x1="129.529" y1="61.776" x2="126.055" y2="68.561" stroke="#141414" stroke-width="0.4"/>
<line x1="126.055" y1="68.561" x2="127.453" y2="71.615" stroke="#141414" stroke-width="0.4"/>
<line x1="127.453" y1="71.615" x2="134.523" y2="72.682" stroke="#141414" stroke-width="0.4"/>
<line x1="182.034" y1="45.86" x2="187.547" y2="49.682" stroke="#141414" stroke-width="0.4"/>
<line x1="187.547" y1="49.682" x2="194.58" y2="44.073" stroke="#141414" stroke-width="0.4"/>
<line x1="194.58" y1="44.073" x2="192.081" y2="37.847" stroke="#141414" stroke-width="0.4"/>
<line x1="134.523" y1="72.682" x2="129.74" y2="76.722" stroke="#141414" stroke-width="0.4"/>
<line x1="129.74" y1="76.722" x2="133.087" y2="84.423" stroke="#141414" stroke-width="0.4"/>
<line x1="133.087" y1="84.423" x2="139.304" y2="83.682" stroke="#141414" stroke-width="0.4"/>
<line x1="192.081" y1="37.847" x2="198.507" y2="35.92" stroke="#141414" stroke-width="0.4"/>
<line x1="198.507" y1="35.92" x2="198.507" y2="26.924" stroke="#141414" stroke-width="0.4"/>
<line x1="198.507" y1="26.924" x2="192.081" y2="24.996" stroke="#141414" stroke-width="0.4"/>
<line x1="139.304" y1="83.682" x2="134.443" y2="87.629" stroke="#141414" stroke-width="0.4"/>
<line x1="134.443" y1="87.629" x2="137.64" y2="95.393" stroke="#141414" stroke-width="0.4"/>
<line x1="137.64" y1="95.393" x2="143.871" y2="94.773" stroke="#141414" stroke-width="0.4"/>
<line x1="192.081" y1="24.996" x2="194.58" y2="18.77" stroke="#141414" stroke-width="0.4"/>
<line x1="194.58" y1="18.77" x2="187.547" y2="13.162" stroke="#141414" stroke-width="0.4"/>
<line x1="187.547" y1="13.162" x2="182.034" y2="16.984" stroke="#141414" stroke-width="0.4"/>
<line x1="143.871" y1="94.773" x2="138.934" y2="98.625" stroke="#141414" stroke-width="0.4"/>
<line x1="138.934" y1="98.625" x2="141.98" y2="106.45" stroke="#141414" stroke-width="0.4"/>
<line x1="141.98" y1="106.45" x2="148.222" y2="105.951" stroke="#141414" stroke-width="0.4"/>
<line x1="182.034" y1="16.984" x2="178.724" y2="11.148" stroke="#141414" stroke-width="0.4"/>
<line x1="178.724" y1="11.148" x2="169.954" y2="13.15" stroke="#141414" stroke-width="0.4"/>
<line x1="169.954" y1="13.15" x2="169.504" y2="19.843" stroke="#141414" stroke-width="0.4"/>
<line x1="148.222" y1="105.951" x2="143.212" y2="109.707" stroke="#141414" stroke-width="0.4"/>
<line x1="143.212" y1="109.707" x2="146.105" y2="117.589" stroke="#141414" stroke-width="0.4"/>
<line x1="146.105" y1="117.589" x2="152.355" y2="117.211" stroke="#141414" stroke-width="0.4"/>
<line x1="193.96" y1="102.395" x2="190.068" y2="111.212" stroke="#141414" stroke-width="0.4"/>
<line x1="190.068" y1="111.212" x2="160.944" y2="121.583" stroke="#141414" stroke-width="0.4"/>
<line x1="160.944" y1="121.583" x2="152.355" y2="117.211" stroke="#141414" stroke-width="0.4"/>
<circle cx="163.822" cy="24.238" r="2.28" fill="#ffe082" stroke="#464646" stroke-width="0.2"/>
<text x="163.822" y="25.02" font-size="2.24" text-anchor="middle" fill="#141414">156</text>
<circle cx="118.857" cy="46.787" r="2.28" fill="#ffe082" stroke="#464646" stroke-width="0.2"/>
<text x="118.857" y="47.57" font-size="2.24" text-anchor="middle" fill="#141414">157</text>
<circle cx="175.054" cy="47.562" r="2.28" fill="#ffe082" stroke="#464646" stroke-width="0.2"/>
<text x="175.054" y="48.35" font-size="2.24" text-anchor="middle" fill="#141414">158</text>
<circle cx="129.39" cy="68.658" r="2.28" fill="#ffe082" stroke="#464646" stroke-width="0.2"/>
<text x="129.39" y="69.44" font-size="2.24" text-anchor="middle" fill="#141414">159</text>
<circle cx="189.06" cy="44.366" r="2.28" fill="#ffe082" stroke="#464646" stroke-width="0.2"/>
<text x="189.06" y="45.15" font-size="2.24" text-anchor="middle" fill="#141414">160</text>
<circle cx="134.163" cy="79.377" r="2.28" fill="#ffe082" stroke="#464646" stroke-width="0.2"/>
<text x="134.163" y="80.16" font-size="2.24" text-anchor="middle" fill="#141414">161</text>
<circle cx="195.294" cy="31.422" r="2.28" fill="#ffe082" stroke="#464646" stroke-width="0.2"/>
<text x="195.294" y="32.21" font-size="2.24" text-anchor="middle" fill="#141414">162</text>
<circle cx="138.815" cy="90.369" r="2.28" fill="#ffe082" stroke="#464646" stroke-width="0.2"/>
<text x="138.815" y="91.15" font-size="2.24" text-anchor="middle" fill="#141414">163</text>
<circle cx="189.06" cy="18.478" r="2.28" fill="#ffe082" stroke="#464646" stroke-width="0.2"/>
<text x="189.06" y="19.26" font-size="2.24" text-anchor="middle" fill="#141414">164</text>
<circle cx="143.252" cy="101.45" r="2.28" fill="#ffe082" stroke="#464646" stroke-width="0.2"/>
<text x="143.252" y="102.23" font-size="2.24" text-anchor="middle" fill="#141414">165</text>
<circle cx="175.054" cy="15.281" r="2.28" fill="#ffe082" stroke="#464646" stroke-width="0.2"/>
<text x="175.054" y="16.06" font-size="2.24" text-anchor="middle" fill="#141414">166</text>
<circle cx="147.473" cy="112.614" r="2.28" fill="#ffe082" stroke="#464646" stroke-width="0.2"/>
<text x="147.473" y="113.40" font-size="2.24" text-anchor="middle" fill="#141414">167</text>
<circle cx="174.332" cy="113.1" r="2.28" fill="#ffe082" stroke="#464646" stroke-width="0.2"/>
<text x="174.332" y="113.88" font-size="2.24" text-anchor="middle" fill="#141414">168</text>
<circle cx="150.88" cy="121.535" r="4.6" fill="#eaf1fe" stroke="#2e78e6" stroke-width="0.3"/>
<text x="150.88" y="123.335" font-size="5.2" text-anchor="middle" fill="#14306e" font-weight="bold">16</text>
</svg>
