<svg xmlns="http://www.w3.org/2000/svg" xmlns:xlink="http://www.w3.org/1999/xlink" width="210.00mm" height="297.00mm" viewBox="0 0 210.00 297.00">
<rect x="0" y="0" width="210.00" height="297.00" fill="#ffffff" stroke="#cccccc" stroke-width="0.2"/>
<polygon points="64.202,15.701 73.516,13.225 109.575,24.784 115.715,32.212" fill="rgb(216,216,216)"/>
<polygon points="64.202,15.701 59.733,21.663 62.94,46.361 68.784,50.984" fill="rgb(216,216,216)"/>
<polygon points="128.081,50.984 138.371,55.34 167.621,91.046 169.866,101.992" fill="rgb(216,216,216)"/>
<polygon points="129.934,119.495 138.011,121.632 165.964,109.38 169.866,101.992" fill="rgb(216,216,216)"/>
<polygon points="129.934,119.495 132.05,126.884 120.223,150.502 113.039,153.234" fill="rgb(216,216,216)"/>
<polygon points="40.623,77.958 32.563,77.933 10.553,96.405 9.179,104.347" fill="rgb(216,216,216)"/>
<polygon points="113.039,153.234 109.682,159.849 86.284,167.714 79.613,164.47" fill="rgb(216,216,216)"/>
<polygon points="79.613,164.47 65.672,159.407 16.368,117.32 9.179,104.347" fill="rgb(216,216,216)"/>
<line x1="115.715" y1="32.212" x2="68.784" y2="50.984" stroke="#8c8c8c" stroke-width="0.3" stroke-dasharray="1.2,0.8"/>
<line x1="129.934" y1="119.495" x2="68.784" y2="50.984" stroke="#8c8c8c" stroke-width="0.3" stroke-dasharray="1.2,0.8"/>
<line x1="40.623" y1="77.958" x2="129.934" y2="119.495" stroke="#8c8c8c" stroke-width="0.3" stroke-dasharray="1.2,0.8"/>
<line x1="113.039" y1="153.234" x2="40.623" y2="77.958" stroke="#8c8c8c" stroke-width="0.3" stroke-dasharray="1.2,0.8"/>
<line x1="79.613" y1="164.47" x2="40.623" y2="77.958" stroke="#8c8c8c" stroke-width="0.3" stroke-dasharray="1.2,0.8"/>
<line x1="68.784" y1="50.984" x2="128.081" y2="50.984" stroke="#8c8c8c" stroke-width="0.3" stroke-dasharray="1.2,0.8"/>
<line x1="115.715" y1="32.212" x2="64.202" y2="15.701" stroke="#8c8c8c" stroke-width="0.3" stroke-dasharray="1.2,0.8"/>
<line x1="68.784" y1="50.984" x2="64.202" y2="15.701" stroke="#8c8c8c" stroke-width="0.3" stroke-dasharray="1.2,0.8"/>
<line x1="169.866" y1="101.992" x2="128.081" y2="50.984" stroke="#8c8c8c" stroke-width="0.3" stroke-dasharray="1.2,0.8"/>
<line x1="169.866" y1="101.992" x2="129.934" y2="119.495" stroke="#8c8c8c" stroke-width="0.3" stroke-dasharray="1.2,0.8"/>
<line x1="113.039" y1="153.234" x2="129.934" y2="119.495" stroke="#8c8c8c" stroke-width="0.3" stroke-dasharray="1.2,0.8"/>
<line x1="9.179" y1="104.347" x2="40.623" y2="77.958" stroke="#8c8c8c" stroke-width="0.3" stroke-dasharray="1.2,0.8"/>
<line x1="79.613" y1="164.47" x2="113.039" y2="153.234" stroke="#8c8c8c" stroke-width="0.3" stroke-dasharray="1.2,0.8"/>
<line x1="9.179" y1="104.347" x2="79.613" y2="164.47" stroke="#8c8c8c" stroke-width="0.3" stroke-dasharray="1.2,0.8"/>
<line x1="115.715" y1="32.212" x2="128.081" y2="50.984" stroke="#141414" stroke-width="0.4"/>
<line x1="40.623" y1="77.958" x2="68.784" y2="50.984" stroke="#141414" stroke-width="0.4"/>
<line x1="64.202" y1="15.701" x2="73.516" y2="13.225" stroke="#141414" stroke-width="0.4"/>
<line x1="73.516" y1="13.225" x2="109.575" y2="24.784" stroke="#141414" stroke-width="0.4"/>
<line x1="109.575" y1="24.784" x2="115.715" y2="32.212" stroke="#141414" stroke-width="0.4"/>
<line x1="64.202" y1="15.701" x2="59.733" y2="21.663" stroke="#141414" stroke-width="0.4"/>
<line x1="59.733" y1="21.663" x2="62.94" y2="46.361" stroke="#141414" stroke-width="0.4"/>
<line x1="62.94" y1="46.361" x2="68.784" y2="50.984" stroke="#141414" stroke-width="0.4"/>
<line x1="128.081" y1="50.984" x2="138.371" y2="55.34" stroke="#141414" stroke-width="0.4"/>
<line x1="138.371" y1="55.34" x2="167.621" y2="91.046" stroke="#141414" stroke-width="0.4"/>
<line x1="167.621" y1="91.046" x2="169.866" y2="101.992" stroke="#141414" stroke-width="0.4"/>
<line x1="129.934" y1="119.495" x2="138.011" y2="121.632" stroke="#141414" stroke-width="0.4"/>
<line x1="138.011" y1="121.632" x2="165.964" y2="109.38" stroke="#141414" stroke-width="0.4"/>
<line x1="165.964" y1="109.38" x2="169.866" y2="101.992" stroke="#141414" stroke-width="0.4"/>
<line x1="129.934" y1="119.495" x2="132.05" y2="126.884" stroke="#141414" stroke-width="0.4"/>
<line x1="132.05" y1="126.884" x2="120.223" y2="150.502" stroke="#141414" stroke-width="0.4"/>
<line x1="120.223" y1="150.502" x2="113.039" y2="153.234" stroke="#141414" stroke-width="0.4"/>
<line x1="40.623" y1="77.958" x2="32.563" y2="77.933" stroke="#141414" stroke-width="0.4"/>
<line x1="32.563" y1="77.933" x2="10.553" y2="96.405" stroke="#141414" stroke-width="0.4"/>
<line x1="10.553" y1="96.405" x2="9.179" y2="104.347" stroke="#141414" stroke-width="0.4"/>
<line x1="113.039" y1="153.234" x2="109.682" y2="159.849" stroke="#141414" stroke-width="0.4"/>
<line x1="109.682" y1="159.849" x2="86.284" y2="167.714" stroke="#141414" stroke-width="0.4"/>
<line x1="86.284" y1="167.714" x2="79.613" y2="164.47" stroke="#141414" stroke-width="0.4"/>
<line x1="79.613" y1="164.47" x2="65.672" y2="159.407" stroke="#141414" stroke-width="0.4"/>
<line x1="65.672" y1="159.407" x2="16.368" y2="117.32" stroke="#141414" stroke-width="0.4"/>
<line x1="16.368" y1="117.32" x2="9.179" y2="104.347" stroke="#141414" stroke-width="0.4"/>
<circle cx="90.752" cy="21.48" r="2.29" fill="#ffe082" stroke="#464646" stroke-width="0.2"/>
<text x="90.752" y="22.26" font-size="2.24" text-anchor="middle" fill="#141414">114</text>
<circle cx="63.915" cy="33.677" r="2.29" fill="#ffe082" stroke="#464646" stroke-width="0.2"/>
<text x="63.915" y="34.46" font-size="2.24" text-anchor="middle" fill="#141414">115</text>
<circle cx="150.985" cy="74.84" r="2.29" fill="#ffe082" stroke="#464646" stroke-width="0.2"/>
<text x="150.985" y="75.62" font-size="2.24" text-anchor="middle" fill="#141414">127</text>
<circle cx="150.944" cy="113.125" r="2.29" fill="#ffe082" stroke="#464646" stroke-width="0.2"/>
<text x="150.944" y="113.91" font-size="2.24" text-anchor="middle" fill="#141414">130</text>
<circle cx="123.812" cy="137.529" r="2.29" fill="#ffe082" stroke="#464646" stroke-width="0.2"/>
<text x="123.812" y="138.31" font-size="2.24" text-anchor="middle" fill="#141414">131</text>
<circle cx="23.229" cy="89.161" r="2.29" fill="#ffe082" stroke="#464646" stroke-width="0.2"/>
<text x="23.229" y="89.95" font-size="2.24" text-anchor="middle" fill="#141414">156</text>
<circle cx="97.154" cy="161.317" r="2.29" fill="#ffe082" stroke="#464646" stroke-width="0.2"/>
<text x="97.154" y="162.10" font-size="2.24" text-anchor="middle" fill="#141414">164</text>
<circle cx="42.708" cy="136.386" r="2.29" fill="#ffe082" stroke="#464646" stroke-width="0.2"/>
<text x="42.708" y="137.17" font-size="2.24" text-anchor="middle" fill="#141414">175</text>
<circle cx="122.861" cy="90.824" r="4.60" fill="#eaf1fe" stroke="#2e78e6" stroke-width="0.3"/>
<text x="122.861" y="92.62" font-size="5.20" text-anchor="middle" fill="#14306e" font-weight="bold">37</text>
<text x="205.0" y="295.0" font-size="3.2" text-anchor="end" fill="#737373" font-family="sans-serif">27 / 39</text>
</svg>
