<svg xmlns="http://www.w3.org/2000/svg" xmlns:xlink="http://www.w3.org/1999/xlink" width="210.00mm" height="297.00mm" viewBox="0 0 210.00 297.00">
<rect x="0" y="0" width="210.00" height="297.00" fill="#ffffff" stroke="#cccccc" stroke-width="0.2"/>
<polygon points="154.022,47.803 145.934,37.797 97.096,12.682 84.252,11.924" fill="rgb(216,216,216)"/>
<polygon points="154.022,47.803 159.319,59.045 159.775,111.72 154.672,123.052" fill="rgb(216,216,216)"/>
<polygon points="84.252,85.684 79.052,74.62 79.052,22.988 84.252,11.924" fill="rgb(216,216,216)"/>
<polygon points="21.496,119.463 15.885,129.779 13.947,178.881 18.728,189.608" fill="rgb(216,216,216)"/>
<polygon points="86.618,160.471 92.771,170.218 97.327,218.006 93.126,228.74" fill="rgb(216,216,216)"/>
<polygon points="18.728,189.608 13.636,194.2 14.131,215.059 19.435,219.405" fill="rgb(216,216,216)"/>
<polygon points="93.126,228.74 81.419,232.498 29.835,225.964 19.435,219.405" fill="rgb(216,216,216)"/>
<polygon points="86.618,160.471 92.771,170.218 97.327,218.006 93.126,228.74" fill="#99d9fa"/>
<line x1="154.022" y1="47.803" x2="84.252" y2="85.684" stroke="#8c8c8c" stroke-width="0.3" stroke-dasharray="1.2,0.8"/>
<line x1="84.252" y1="85.684" x2="86.618" y2="160.471" stroke="#8c8c8c" stroke-width="0.3" stroke-dasharray="1.2,0.8"/>
<line x1="154.673" y1="123.052" x2="84.252" y2="85.684" stroke="#8c8c8c" stroke-width="0.3" stroke-dasharray="1.2,0.8"/>
<line x1="86.618" y1="160.471" x2="21.496" y2="119.463" stroke="#8c8c8c" stroke-width="0.3" stroke-dasharray="1.2,0.8"/>
<line x1="86.618" y1="160.471" x2="18.728" y2="189.608" stroke="#8c8c8c" stroke-width="0.3" stroke-dasharray="1.2,0.8"/>
<line x1="154.673" y1="123.052" x2="86.618" y2="160.471" stroke="#8c8c8c" stroke-width="0.3" stroke-dasharray="1.2,0.8"/>
<line x1="19.435" y1="219.405" x2="86.618" y2="160.471" stroke="#8c8c8c" stroke-width="0.3" stroke-dasharray="1.2,0.8"/>
<line x1="84.252" y1="11.924" x2="154.022" y2="47.803" stroke="#8c8c8c" stroke-width="0.3" stroke-dasharray="1.2,0.8"/>
<line x1="154.672" y1="123.052" x2="154.022" y2="47.803" stroke="#8c8c8c" stroke-width="0.3" stroke-dasharray="1.2,0.8"/>
<line x1="84.252" y1="11.924" x2="84.252" y2="85.684" stroke="#8c8c8c" stroke-width="0.3" stroke-dasharray="1.2,0.8"/>
<line x1="18.728" y1="189.608" x2="21.496" y2="119.463" stroke="#8c8c8c" stroke-width="0.3" stroke-dasharray="1.2,0.8"/>
<line x1="93.126" y1="228.74" x2="86.618" y2="160.471" stroke="#8c8c8c" stroke-width="0.3" stroke-dasharray="1.2,0.8"/>
<line x1="19.435" y1="219.405" x2="18.728" y2="189.608" stroke="#8c8c8c" stroke-width="0.3" stroke-dasharray="1.2,0.8"/>
<line x1="19.435" y1="219.405" x2="93.126" y2="228.74" stroke="#8c8c8c" stroke-width="0.3" stroke-dasharray="1.2,0.8"/>
<line x1="21.496" y1="119.463" x2="84.252" y2="85.684" stroke="#141414" stroke-width="0.4"/>
<line x1="147.717" y1="191.614" x2="86.618" y2="160.471" stroke="#141414" stroke-width="0.4"/>
<line x1="154.673" y1="123.052" x2="147.717" y2="191.614" stroke="#141414" stroke-width="0.4"/>
<line x1="154.022" y1="47.803" x2="145.934" y2="37.797" stroke="#141414" stroke-width="0.4"/>
<line x1="145.934" y1="37.797" x2="97.096" y2="12.682" stroke="#141414" stroke-width="0.4"/>
<line x1="97.096" y1="12.682" x2="84.252" y2="11.924" stroke="#141414" stroke-width="0.4"/>
<line x1="154.022" y1="47.803" x2="159.319" y2="59.045" stroke="#141414" stroke-width="0.4"/>
<line x1="159.319" y1="59.045" x2="159.775" y2="111.72" stroke="#141414" stroke-width="0.4"/>
<line x1="159.775" y1="111.72" x2="154.672" y2="123.052" stroke="#141414" stroke-width="0.4"/>
<line x1="84.252" y1="85.684" x2="79.052" y2="74.62" stroke="#141414" stroke-width="0.4"/>
<line x1="79.052" y1="74.62" x2="79.052" y2="22.988" stroke="#141414" stroke-width="0.4"/>
<line x1="79.052" y1="22.988" x2="84.252" y2="11.924" stroke="#141414" stroke-width="0.4"/>
<line x1="21.496" y1="119.463" x2="15.885" y2="129.779" stroke="#141414" stroke-width="0.4"/>
<line x1="15.885" y1="129.779" x2="13.947" y2="178.881" stroke="#141414" stroke-width="0.4"/>
<line x1="13.947" y1="178.881" x2="18.728" y2="189.608" stroke="#141414" stroke-width="0.4"/>
<line x1="86.618" y1="160.471" x2="92.771" y2="170.218" stroke="#141414" stroke-width="0.4"/>
<line x1="92.771" y1="170.218" x2="97.327" y2="218.006" stroke="#141414" stroke-width="0.4"/>
<line x1="97.327" y1="218.006" x2="93.126" y2="228.74" stroke="#141414" stroke-width="0.4"/>
<line x1="18.728" y1="189.608" x2="13.636" y2="194.2" stroke="#141414" stroke-width="0.4"/>
<line x1="13.636" y1="194.2" x2="14.131" y2="215.059" stroke="#141414" stroke-width="0.4"/>
<line x1="14.131" y1="215.059" x2="19.435" y2="219.405" stroke="#141414" stroke-width="0.4"/>
<line x1="93.126" y1="228.74" x2="81.419" y2="232.498" stroke="#141414" stroke-width="0.4"/>
<line x1="81.419" y1="232.498" x2="29.835" y2="225.964" stroke="#141414" stroke-width="0.4"/>
<line x1="29.835" y1="225.964" x2="19.435" y2="219.405" stroke="#141414" stroke-width="0.4"/>
<circle cx="120.326" cy="27.551" r="2.29" fill="#ffe082" stroke="#464646" stroke-width="0.2"/>
<text x="120.326" y="28.34" font-size="2.24" text-anchor="middle" fill="#141414">1</text>
<circle cx="156.947" cy="85.405" r="2.29" fill="#ffe082" stroke="#464646" stroke-width="0.2"/>
<text x="156.947" y="86.19" font-size="2.24" text-anchor="middle" fill="#141414">4</text>
<circle cx="81.652" cy="48.804" r="2.29" fill="#ffe082" stroke="#464646" stroke-width="0.2"/>
<text x="81.652" y="49.59" font-size="2.24" text-anchor="middle" fill="#141414">5</text>
<circle cx="17.514" cy="154.433" r="2.29" fill="#ffe082" stroke="#464646" stroke-width="0.2"/>
<text x="17.514" y="155.22" font-size="2.24" text-anchor="middle" fill="#141414">9</text>
<circle cx="92.46" cy="194.359" r="2.29" fill="#99d9fa" stroke="#464646" stroke-width="0.2"/>
<text x="92.46" y="195.14" font-size="2.24" text-anchor="middle" fill="#141414">11</text>
<circle cx="16.482" cy="204.568" r="2.29" fill="#ffe082" stroke="#464646" stroke-width="0.2"/>
<text x="16.482" y="205.35" font-size="2.24" text-anchor="middle" fill="#141414">13</text>
<circle cx="55.954" cy="226.652" r="2.29" fill="#ffe082" stroke="#464646" stroke-width="0.2"/>
<text x="55.954" y="227.44" font-size="2.24" text-anchor="middle" fill="#141414">18</text>
<circle cx="130.982" cy="85.513" r="4.60" fill="#eaf1fe" stroke="#2e78e6" stroke-width="0.3"/>
<text x="130.982" y="87.31" font-size="5.20" text-anchor="middle" fill="#14306e" font-weight="bold">12</text>
<text x="205.0" y="295.0" font-size="3.2" text-anchor="end" fill="#737373" font-family="sans-serif">10 / 39</text>
</svg>
