<svg xmlns="http://www.w3.org/2000/svg" xmlns:xlink="http://www.w3.org/1999/xlink" width="210.00mm" height="297.00mm" viewBox="0 0 210.00 297.00">
<rect x="0" y="0" width="210.00" height="297.00" fill="#ffffff" stroke="#cccccc" stroke-width="0.2"/>
<polygon points="62.01,87.811 44.259,79.037 37.236,78.348 18.118,83.507" fill="rgb(216,216,216)"/>
<polygon points="56.288,105.599 36.75,102.379 30.643,98.844 18.118,83.507" fill="rgb(216,216,216)"/>
<polygon points="74.865,63.256 57.54,53.667 52.972,48.288 46.318,29.638" fill="rgb(216,216,216)"/>
<polygon points="86.223,48.418 72.444,34.197 66.059,31.192 46.318,29.638" fill="rgb(216,216,216)"/>
<polygon points="112.138,99.929 114.829,106.8 106.459,113.783 100.181,109.904" fill="rgb(216,216,216)"/>
<polygon points="114.77,82.036 121.709,78.378 121.43,61.863 114.372,58.442" fill="rgb(216,216,216)"/>
<polygon points="112.138,99.929 107.229,88.833 103.99,86.894 91.891,87.811" fill="rgb(216,216,216)"/>
<polygon points="23.49,53.521 16.31,55.225 15.341,66.082 22.106,69.031" fill="rgb(216,216,216)"/>
<polygon points="54.931,17.339 59.118,10.706 75.561,12.27 78.422,19.574" fill="rgb(216,216,216)"/>
<polygon points="23.49,53.521 35.406,51.233 38.845,52.791 44.985,63.256" fill="rgb(216,216,216)"/>
<polygon points="78.422,19.574 88.953,20.651 114.118,47.859 114.372,58.442" fill="rgb(216,216,216)"/>
<polygon points="23.49,53.521 16.31,55.225 15.341,66.082 22.106,69.031" fill="#99d9fa"/>
<line x1="56.288" y1="105.599" x2="62.011" y2="87.811" stroke="#8c8c8c" stroke-width="0.3" stroke-dasharray="1.2,0.8"/>
<line x1="100.181" y1="109.904" x2="62.011" y2="87.811" stroke="#8c8c8c" stroke-width="0.3" stroke-dasharray="1.2,0.8"/>
<line x1="44.985" y1="63.256" x2="62.011" y2="87.811" stroke="#8c8c8c" stroke-width="0.3" stroke-dasharray="1.2,0.8"/>
<line x1="62.011" y1="87.811" x2="91.891" y2="87.811" stroke="#8c8c8c" stroke-width="0.3" stroke-dasharray="1.2,0.8"/>
<line x1="100.181" y1="109.904" x2="56.288" y2="105.599" stroke="#8c8c8c" stroke-width="0.3" stroke-dasharray="1.2,0.8"/>
<line x1="56.288" y1="105.599" x2="28.14" y2="115.624" stroke="#8c8c8c" stroke-width="0.3" stroke-dasharray="1.2,0.8"/>
<line x1="80.565" y1="123.02" x2="56.288" y2="105.599" stroke="#8c8c8c" stroke-width="0.3" stroke-dasharray="1.2,0.8"/>
<line x1="74.865" y1="63.256" x2="86.223" y2="48.418" stroke="#8c8c8c" stroke-width="0.3" stroke-dasharray="1.2,0.8"/>
<line x1="114.77" y1="82.036" x2="74.865" y2="63.256" stroke="#8c8c8c" stroke-width="0.3" stroke-dasharray="1.2,0.8"/>
<line x1="44.985" y1="63.256" x2="74.865" y2="63.256" stroke="#8c8c8c" stroke-width="0.3" stroke-dasharray="1.2,0.8"/>
<line x1="74.865" y1="63.256" x2="91.891" y2="87.811" stroke="#8c8c8c" stroke-width="0.3" stroke-dasharray="1.2,0.8"/>
<line x1="114.77" y1="82.036" x2="86.223" y2="48.418" stroke="#8c8c8c" stroke-width="0.3" stroke-dasharray="1.2,0.8"/>
<line x1="78.422" y1="19.574" x2="86.223" y2="48.418" stroke="#8c8c8c" stroke-width="0.3" stroke-dasharray="1.2,0.8"/>
<line x1="86.223" y1="48.418" x2="114.372" y2="58.442" stroke="#8c8c8c" stroke-width="0.3" stroke-dasharray="1.2,0.8"/>
<line x1="100.181" y1="109.904" x2="80.565" y2="123.02" stroke="#8c8c8c" stroke-width="0.3" stroke-dasharray="1.2,0.8"/>
<line x1="91.891" y1="87.811" x2="100.181" y2="109.904" stroke="#8c8c8c" stroke-width="0.3" stroke-dasharray="1.2,0.8"/>
<line x1="28.14" y1="115.624" x2="12.918" y2="97.592" stroke="#8c8c8c" stroke-width="0.3" stroke-dasharray="1.2,0.8"/>
<line x1="22.105" y1="69.031" x2="44.985" y2="63.256" stroke="#8c8c8c" stroke-width="0.3" stroke-dasharray="1.2,0.8"/>
<line x1="44.985" y1="63.256" x2="91.891" y2="87.811" stroke="#8c8c8c" stroke-width="0.3" stroke-dasharray="1.2,0.8"/>
<line x1="18.118" y1="83.507" x2="62.01" y2="87.811" stroke="#8c8c8c" stroke-width="0.3" stroke-dasharray="1.2,0.8"/>
<line x1="18.118" y1="83.507" x2="56.288" y2="105.599" stroke="#8c8c8c" stroke-width="0.3" stroke-dasharray="1.2,0.8"/>
<line x1="46.318" y1="29.638" x2="74.865" y2="63.256" stroke="#8c8c8c" stroke-width="0.3" stroke-dasharray="1.2,0.8"/>
<line x1="46.318" y1="29.638" x2="86.223" y2="48.418" stroke="#8c8c8c" stroke-width="0.3" stroke-dasharray="1.2,0.8"/>
<line x1="100.181" y1="109.904" x2="112.138" y2="99.929" stroke="#8c8c8c" stroke-width="0.3" stroke-dasharray="1.2,0.8"/>
<line x1="114.372" y1="58.442" x2="114.77" y2="82.036" stroke="#8c8c8c" stroke-width="0.3" stroke-dasharray="1.2,0.8"/>
<line x1="91.891" y1="87.811" x2="112.138" y2="99.929" stroke="#8c8c8c" stroke-width="0.3" stroke-dasharray="1.2,0.8"/>
<line x1="22.106" y1="69.031" x2="23.49" y2="53.521" stroke="#8c8c8c" stroke-width="0.3" stroke-dasharray="1.2,0.8"/>
<line x1="78.422" y1="19.574" x2="54.931" y2="17.339" stroke="#8c8c8c" stroke-width="0.3" stroke-dasharray="1.2,0.8"/>
<line x1="44.985" y1="63.256" x2="23.49" y2="53.521" stroke="#8c8c8c" stroke-width="0.3" stroke-dasharray="1.2,0.8"/>
<line x1="114.372" y1="58.442" x2="78.422" y2="19.574" stroke="#8c8c8c" stroke-width="0.3" stroke-dasharray="1.2,0.8"/>
<line x1="62.011" y1="87.811" x2="22.105" y2="69.031" stroke="#141414" stroke-width="0.4"/>
<line x1="12.918" y1="97.592" x2="56.288" y2="105.599" stroke="#141414" stroke-width="0.4"/>
<line x1="74.865" y1="63.256" x2="46.318" y2="29.638" stroke="#141414" stroke-width="0.4"/>
<line x1="36.694" y1="41.163" x2="74.865" y2="63.256" stroke="#141414" stroke-width="0.4"/>
<line x1="86.223" y1="48.418" x2="54.931" y2="17.339" stroke="#141414" stroke-width="0.4"/>
<line x1="100.181" y1="109.904" x2="104.081" y2="124.979" stroke="#141414" stroke-width="0.4"/>
<line x1="104.081" y1="124.979" x2="80.565" y2="123.02" stroke="#141414" stroke-width="0.4"/>
<line x1="114.77" y1="82.036" x2="91.891" y2="87.811" stroke="#141414" stroke-width="0.4"/>
<line x1="5.0" y1="111.001" x2="12.918" y2="97.592" stroke="#141414" stroke-width="0.4"/>
<line x1="28.14" y1="115.624" x2="5.0" y2="111.001" stroke="#141414" stroke-width="0.4"/>
<line x1="44.985" y1="63.256" x2="36.694" y2="41.163" stroke="#141414" stroke-width="0.4"/>
<line x1="80.565" y1="123.02" x2="28.14" y2="115.624" stroke="#141414" stroke-width="0.4"/>
<line x1="62.01" y1="87.811" x2="44.259" y2="79.037" stroke="#141414" stroke-width="0.4"/>
<line x1="44.259" y1="79.037" x2="37.236" y2="78.348" stroke="#141414" stroke-width="0.4"/>
<line x1="37.236" y1="78.348" x2="18.118" y2="83.507" stroke="#141414" stroke-width="0.4"/>
<line x1="56.288" y1="105.599" x2="36.75" y2="102.379" stroke="#141414" stroke-width="0.4"/>
<line x1="36.75" y1="102.379" x2="30.643" y2="98.844" stroke="#141414" stroke-width="0.4"/>
<line x1="30.643" y1="98.844" x2="18.118" y2="83.507" stroke="#141414" stroke-width="0.4"/>
<line x1="74.865" y1="63.256" x2="57.54" y2="53.667" stroke="#141414" stroke-width="0.4"/>
<line x1="57.54" y1="53.667" x2="52.972" y2="48.288" stroke="#141414" stroke-width="0.4"/>
<line x1="52.972" y1="48.288" x2="46.318" y2="29.638" stroke="#141414" stroke-width="0.4"/>
<line x1="86.223" y1="48.418" x2="72.444" y2="34.197" stroke="#141414" stroke-width="0.4"/>
<line x1="72.444" y1="34.197" x2="66.059" y2="31.192" stroke="#141414" stroke-width="0.4"/>
<line x1="66.059" y1="31.192" x2="46.318" y2="29.638" stroke="#141414" stroke-width="0.4"/>
<line x1="112.138" y1="99.929" x2="114.829" y2="106.8" stroke="#141414" stroke-width="0.4"/>
<line x1="114.829" y1="106.8" x2="106.459" y2="113.783" stroke="#141414" stroke-width="0.4"/>
<line x1="106.459" y1="113.783" x2="100.181" y2="109.904" stroke="#141414" stroke-width="0.4"/>
<line x1="114.77" y1="82.036" x2="121.709" y2="78.378" stroke="#141414" stroke-width="0.4"/>
<line x1="121.709" y1="78.378" x2="121.43" y2="61.863" stroke="#141414" stroke-width="0.4"/>
<line x1="121.43" y1="61.863" x2="114.372" y2="58.442" stroke="#141414" stroke-width="0.4"/>
<line x1="112.138" y1="99.929" x2="107.229" y2="88.833" stroke="#141414" stroke-width="0.4"/>
<line x1="107.229" y1="88.833" x2="103.99" y2="86.894" stroke="#141414" stroke-width="0.4"/>
<line x1="103.99" y1="86.894" x2="91.891" y2="87.811" stroke="#141414" stroke-width="0.4"/>
<line x1="23.49" y1="53.521" x2="16.31" y2="55.225" stroke="#141414" stroke-width="0.4"/>
<line x1="16.31" y1="55.225" x2="15.341" y2="66.082" stroke="#141414" stroke-width="0.4"/>
<line x1="15.341" y1="66.082" x2="22.106" y2="69.031" stroke="#141414" stroke-width="0.4"/>
<line x1="54.931" y1="17.339" x2="59.118" y2="10.706" stroke="#141414" stroke-width="0.4"/>
<line x1="59.118" y1="10.706" x2="75.561" y2="12.27" stroke="#141414" stroke-width="0.4"/>
<line x1="75.561" y1="12.27" x2="78.422" y2="19.574" stroke="#141414" stroke-width="0.4"/>
<line x1="23.49" y1="53.521" x2="35.406" y2="51.233" stroke="#141414" stroke-width="0.4"/>
<line x1="35.406" y1="51.233" x2="38.845" y2="52.791" stroke="#141414" stroke-width="0.4"/>
<line x1="38.845" y1="52.791" x2="44.985" y2="63.256" stroke="#141414" stroke-width="0.4"/>
<line x1="78.422" y1="19.574" x2="88.953" y2="20.651" stroke="#141414" stroke-width="0.4"/>
<line x1="88.953" y1="20.651" x2="114.118" y2="47.859" stroke="#141414" stroke-width="0.4"/>
<line x1="114.118" y1="47.859" x2="114.372" y2="58.442" stroke="#141414" stroke-width="0.4"/>
<circle cx="40.406" cy="82.176" r="2.28" fill="#ffe082" stroke="#464646" stroke-width="0.2"/>
<text x="40.406" y="82.96" font-size="2.24" text-anchor="middle" fill="#141414">88</text>
<circle cx="35.45" cy="97.582" r="2.28" fill="#ffe082" stroke="#464646" stroke-width="0.2"/>
<text x="35.45" y="98.37" font-size="2.24" text-anchor="middle" fill="#141414">89</text>
<circle cx="57.924" cy="48.712" r="2.28" fill="#ffe082" stroke="#464646" stroke-width="0.2"/>
<text x="57.924" y="49.50" font-size="2.24" text-anchor="middle" fill="#141414">90</text>
<circle cx="67.761" cy="35.861" r="2.28" fill="#ffe082" stroke="#464646" stroke-width="0.2"/>
<text x="67.761" y="36.64" font-size="2.24" text-anchor="middle" fill="#141414">91</text>
<circle cx="108.402" cy="107.604" r="2.28" fill="#ffe082" stroke="#464646" stroke-width="0.2"/>
<text x="108.402" y="108.39" font-size="2.24" text-anchor="middle" fill="#141414">92</text>
<circle cx="118.07" cy="70.18" r="2.28" fill="#ffe082" stroke="#464646" stroke-width="0.2"/>
<text x="118.07" y="70.96" font-size="2.24" text-anchor="middle" fill="#141414">93</text>
<circle cx="103.812" cy="90.867" r="2.28" fill="#ffe082" stroke="#464646" stroke-width="0.2"/>
<text x="103.812" y="91.65" font-size="2.24" text-anchor="middle" fill="#141414">94</text>
<circle cx="19.311" cy="60.965" r="2.28" fill="#99d9fa" stroke="#464646" stroke-width="0.2"/>
<text x="19.311" y="61.75" font-size="2.24" text-anchor="middle" fill="#141414">95</text>
<circle cx="67.008" cy="14.972" r="2.28" fill="#ffe082" stroke="#464646" stroke-width="0.2"/>
<text x="67.008" y="15.76" font-size="2.24" text-anchor="middle" fill="#141414">96</text>
<circle cx="35.681" cy="55.2" r="2.28" fill="#ffe082" stroke="#464646" stroke-width="0.2"/>
<text x="35.681" y="55.98" font-size="2.24" text-anchor="middle" fill="#141414">97</text>
<circle cx="98.966" cy="36.631" r="2.28" fill="#ffe082" stroke="#464646" stroke-width="0.2"/>
<text x="98.966" y="37.41" font-size="2.24" text-anchor="middle" fill="#141414">98</text>
<circle cx="63.355" cy="125.374" r="4.6" fill="#eaf1fe" stroke="#2e78e6" stroke-width="0.3"/>
<text x="63.355" y="127.17399999999999" font-size="5.2" text-anchor="middle" fill="#14306e" font-weight="bold">10</text>
<polygon points="62.01,205.085 44.259,196.31 37.236,195.622 18.118,200.78" fill="rgb(216,216,216)"/>
<polygon points="56.288,222.873 36.75,219.653 30.643,216.118 18.118,200.78" fill="rgb(216,216,216)"/>
<polygon points="74.865,180.53 57.54,170.941 52.972,165.562 46.318,146.912" fill="rgb(216,216,216)"/>
<polygon points="86.223,165.692 72.444,151.47 66.059,148.466 46.318,146.912" fill="rgb(216,216,216)"/>
<polygon points="112.138,217.202 114.829,224.074 106.459,231.056 100.181,227.178" fill="rgb(216,216,216)"/>
<polygon points="114.77,199.31 121.709,195.652 121.43,179.137 114.372,175.716" fill="rgb(216,216,216)"/>
<polygon points="112.138,217.202 107.229,206.107 103.99,204.168 91.891,205.085" fill="rgb(216,216,216)"/>
<polygon points="23.49,170.795 16.31,172.499 15.341,183.356 22.106,186.305" fill="rgb(216,216,216)"/>
<polygon points="54.931,134.613 59.118,127.979 75.561,129.544 78.422,136.848" fill="rgb(216,216,216)"/>
<polygon points="23.49,170.795 35.406,168.507 38.845,170.064 44.985,180.53" fill="rgb(216,216,216)"/>
<polygon points="78.422,136.848 88.953,137.925 114.118,165.132 114.372,175.716" fill="rgb(216,216,216)"/>
<polygon points="23.49,170.795 16.31,172.499 15.341,183.356 22.106,186.305" fill="#99d9fa"/>
<line x1="56.288" y1="222.873" x2="62.011" y2="205.085" stroke="#8c8c8c" stroke-width="0.3" stroke-dasharray="1.2,0.8"/>
<line x1="100.181" y1="227.178" x2="62.011" y2="205.085" stroke="#8c8c8c" stroke-width="0.3" stroke-dasharray="1.2,0.8"/>
<line x1="44.985" y1="180.53" x2="62.011" y2="205.085" stroke="#8c8c8c" stroke-width="0.3" stroke-dasharray="1.2,0.8"/>
<line x1="62.011" y1="205.085" x2="91.891" y2="205.085" stroke="#8c8c8c" stroke-width="0.3" stroke-dasharray="1.2,0.8"/>
<line x1="100.181" y1="227.178" x2="56.288" y2="222.873" stroke="#8c8c8c" stroke-width="0.3" stroke-dasharray="1.2,0.8"/>
<line x1="56.288" y1="222.873" x2="28.14" y2="232.897" stroke="#8c8c8c" stroke-width="0.3" stroke-dasharray="1.2,0.8"/>
<line x1="80.565" y1="240.294" x2="56.288" y2="222.873" stroke="#8c8c8c" stroke-width="0.3" stroke-dasharray="1.2,0.8"/>
<line x1="74.865" y1="180.53" x2="86.223" y2="165.692" stroke="#8c8c8c" stroke-width="0.3" stroke-dasharray="1.2,0.8"/>
<line x1="114.77" y1="199.31" x2="74.865" y2="180.53" stroke="#8c8c8c" stroke-width="0.3" stroke-dasharray="1.2,0.8"/>
<line x1="44.985" y1="180.53" x2="74.865" y2="180.53" stroke="#8c8c8c" stroke-width="0.3" stroke-dasharray="1.2,0.8"/>
<line x1="74.865" y1="180.53" x2="91.891" y2="205.085" stroke="#8c8c8c" stroke-width="0.3" stroke-dasharray="1.2,0.8"/>
<line x1="114.77" y1="199.31" x2="86.223" y2="165.692" stroke="#8c8c8c" stroke-width="0.3" stroke-dasharray="1.2,0.8"/>
<line x1="78.422" y1="136.848" x2="86.223" y2="165.692" stroke="#8c8c8c" stroke-width="0.3" stroke-dasharray="1.2,0.8"/>
<line x1="86.223" y1="165.692" x2="114.372" y2="175.716" stroke="#8c8c8c" stroke-width="0.3" stroke-dasharray="1.2,0.8"/>
<line x1="100.181" y1="227.178" x2="80.565" y2="240.294" stroke="#8c8c8c" stroke-width="0.3" stroke-dasharray="1.2,0.8"/>
<line x1="91.891" y1="205.085" x2="100.181" y2="227.178" stroke="#8c8c8c" stroke-width="0.3" stroke-dasharray="1.2,0.8"/>
<line x1="28.14" y1="232.897" x2="12.918" y2="214.866" stroke="#8c8c8c" stroke-width="0.3" stroke-dasharray="1.2,0.8"/>
<line x1="22.105" y1="186.305" x2="44.985" y2="180.53" stroke="#8c8c8c" stroke-width="0.3" stroke-dasharray="1.2,0.8"/>
<line x1="44.985" y1="180.53" x2="91.891" y2="205.085" stroke="#8c8c8c" stroke-width="0.3" stroke-dasharray="1.2,0.8"/>
<line x1="18.118" y1="200.78" x2="62.01" y2="205.085" stroke="#8c8c8c" stroke-width="0.3" stroke-dasharray="1.2,0.8"/>
<line x1="18.118" y1="200.78" x2="56.288" y2="222.873" stroke="#8c8c8c" stroke-width="0.3" stroke-dasharray="1.2,0.8"/>
<line x1="46.318" y1="146.912" x2="74.865" y2="180.53" stroke="#8c8c8c" stroke-width="0.3" stroke-dasharray="1.2,0.8"/>
<line x1="46.318" y1="146.912" x2="86.223" y2="165.692" stroke="#8c8c8c" stroke-width="0.3" stroke-dasharray="1.2,0.8"/>
<line x1="100.181" y1="227.178" x2="112.138" y2="217.202" stroke="#8c8c8c" stroke-width="0.3" stroke-dasharray="1.2,0.8"/>
<line x1="114.372" y1="175.716" x2="114.77" y2="199.31" stroke="#8c8c8c" stroke-width="0.3" stroke-dasharray="1.2,0.8"/>
<line x1="91.891" y1="205.085" x2="112.138" y2="217.202" stroke="#8c8c8c" stroke-width="0.3" stroke-dasharray="1.2,0.8"/>
<line x1="22.106" y1="186.305" x2="23.49" y2="170.795" stroke="#8c8c8c" stroke-width="0.3" stroke-dasharray="1.2,0.8"/>
<line x1="78.422" y1="136.848" x2="54.931" y2="134.613" stroke="#8c8c8c" stroke-width="0.3" stroke-dasharray="1.2,0.8"/>
<line x1="44.985" y1="180.53" x2="23.49" y2="170.795" stroke="#8c8c8c" stroke-width="0.3" stroke-dasharray="1.2,0.8"/>
<line x1="114.372" y1="175.716" x2="78.422" y2="136.848" stroke="#8c8c8c" stroke-width="0.3" stroke-dasharray="1.2,0.8"/>
<line x1="62.011" y1="205.085" x2="22.105" y2="186.305" stroke="#141414" stroke-width="0.4"/>
<line x1="12.918" y1="214.866" x2="56.288" y2="222.873" stroke="#141414" stroke-width="0.4"/>
<line x1="74.865" y1="180.53" x2="46.318" y2="146.912" stroke="#141414" stroke-width="0.4"/>
<line x1="36.694" y1="158.437" x2="74.865" y2="180.53" stroke="#141414" stroke-width="0.4"/>
<line x1="86.223" y1="165.692" x2="54.931" y2="134.613" stroke="#141414" stroke-width="0.4"/>
<line x1="100.181" y1="227.178" x2="104.081" y2="242.253" stroke="#141414" stroke-width="0.4"/>
<line x1="104.081" y1="242.253" x2="80.565" y2="240.294" stroke="#141414" stroke-width="0.4"/>
<line x1="114.77" y1="199.31" x2="91.891" y2="205.085" stroke="#141414" stroke-width="0.4"/>
<line x1="5.0" y1="228.274" x2="12.918" y2="214.866" stroke="#141414" stroke-width="0.4"/>
<line x1="28.14" y1="232.897" x2="5.0" y2="228.274" stroke="#141414" stroke-width="0.4"/>
<line x1="44.985" y1="180.53" x2="36.694" y2="158.437" stroke="#141414" stroke-width="0.4"/>
<line x1="80.565" y1="240.294" x2="28.14" y2="232.897" stroke="#141414" stroke-width="0.4"/>
<line x1="62.01" y1="205.085" x2="44.259" y2="196.31" stroke="#141414" stroke-width="0.4"/>
<line x1="44.259" y1="196.31" x2="37.236" y2="195.622" stroke="#141414" stroke-width="0.4"/>
<line x1="37.236" y1="195.622" x2="18.118" y2="200.78" stroke="#141414" stroke-width="0.4"/>
<line x1="56.288" y1="222.873" x2="36.75" y2="219.653" stroke="#141414" stroke-width="0.4"/>
<line x1="36.75" y1="219.653" x2="30.643" y2="216.118" stroke="#141414" stroke-width="0.4"/>
<line x1="30.643" y1="216.118" x2="18.118" y2="200.78" stroke="#141414" stroke-width="0.4"/>
<line x1="74.865" y1="180.53" x2="57.54" y2="170.941" stroke="#141414" stroke-width="0.4"/>
<line x1="57.54" y1="170.941" x2="52.972" y2="165.562" stroke="#141414" stroke-width="0.4"/>
<line x1="52.972" y1="165.562" x2="46.318" y2="146.912" stroke="#141414" stroke-width="0.4"/>
<line x1="86.223" y1="165.692" x2="72.444" y2="151.47" stroke="#141414" stroke-width="0.4"/>
<line x1="72.444" y1="151.47" x2="66.059" y2="148.466" stroke="#141414" stroke-width="0.4"/>
<line x1="66.059" y1="148.466" x2="46.318" y2="146.912" stroke="#141414" stroke-width="0.4"/>
<line x1="112.138" y1="217.202" x2="114.829" y2="224.074" stroke="#141414" stroke-width="0.4"/>
<line x1="114.829" y1="224.074" x2="106.459" y2="231.056" stroke="#141414" stroke-width="0.4"/>
<line x1="106.459" y1="231.056" x2="100.181" y2="227.178" stroke="#141414" stroke-width="0.4"/>
<line x1="114.77" y1="199.31" x2="121.709" y2="195.652" stroke="#141414" stroke-width="0.4"/>
<line x1="121.709" y1="195.652" x2="121.43" y2="179.137" stroke="#141414" stroke-width="0.4"/>
<line x1="121.43" y1="179.137" x2="114.372" y2="175.716" stroke="#141414" stroke-width="0.4"/>
<line x1="112.138" y1="217.202" x2="107.229" y2="206.107" stroke="#141414" stroke-width="0.4"/>
<line x1="107.229" y1="206.107" x2="103.99" y2="204.168" stroke="#141414" stroke-width="0.4"/>
<line x1="103.99" y1="204.168" x2="91.891" y2="205.085" stroke="#141414" stroke-width="0.4"/>
<line x1="23.49" y1="170.795" x2="16.31" y2="172.499" stroke="#141414" stroke-width="0.4"/>
<line x1="16.31" y1="172.499" x2="15.341" y2="183.356" stroke="#141414" stroke-width="0.4"/>
<line x1="15.341" y1="183.356" x2="22.106" y2="186.305" stroke="#141414" stroke-width="0.4"/>
<line x1="54.931" y1="134.613" x2="59.118" y2="127.979" stroke="#141414" stroke-width="0.4"/>
<line x1="59.118" y1="127.979" x2="75.561" y2="129.544" stroke="#141414" stroke-width="0.4"/>
<line x1="75.561" y1="129.544" x2="78.422" y2="136.848" stroke="#141414" stroke-width="0.4"/>
<line x1="23.49" y1="170.795" x2="35.406" y2="168.507" stroke="#141414" stroke-width="0.4"/>
<line x1="35.406" y1="168.507" x2="38.845" y2="170.064" stroke="#141414" stroke-width="0.4"/>
<line x1="38.845" y1="170.064" x2="44.985" y2="180.53" stroke="#141414" stroke-width="0.4"/>
<line x1="78.422" y1="136.848" x2="88.953" y2="137.925" stroke="#141414" stroke-width="0.4"/>
<line x1="88.953" y1="137.925" x2="114.118" y2="165.132" stroke="#141414" stroke-width="0.4"/>
<line x1="114.118" y1="165.132" x2="114.372" y2="175.716" stroke="#141414" stroke-width="0.4"/>
<circle cx="40.406" cy="199.449" r="2.28" fill="#ffe082" stroke="#464646" stroke-width="0.2"/>
<text x="40.406" y="200.23" font-size="2.24" text-anchor="middle" fill="#141414">99</text>
<circle cx="35.45" cy="214.856" r="2.28" fill="#ffe082" stroke="#464646" stroke-width="0.2"/>
<text x="35.45" y="215.64" font-size="2.24" text-anchor="middle" fill="#141414">100</text>
<circle cx="57.924" cy="165.986" r="2.28" fill="#ffe082" stroke="#464646" stroke-width="0.2"/>
<text x="57.924" y="166.77" font-size="2.24" text-anchor="middle" fill="#141414">101</text>
<circle cx="67.761" cy="153.135" r="2.28" fill="#ffe082" stroke="#464646" stroke-width="0.2"/>
<text x="67.761" y="153.92" font-size="2.24" text-anchor="middle" fill="#141414">102</text>
<circle cx="108.402" cy="224.878" r="2.28" fill="#ffe082" stroke="#464646" stroke-width="0.2"/>
<text x="108.402" y="225.66" font-size="2.24" text-anchor="middle" fill="#141414">103</text>
<circle cx="118.07" cy="187.453" r="2.28" fill="#ffe082" stroke="#464646" stroke-width="0.2"/>
<text x="118.07" y="188.24" font-size="2.24" text-anchor="middle" fill="#141414">104</text>
<circle cx="103.812" cy="208.14" r="2.28" fill="#ffe082" stroke="#464646" stroke-width="0.2"/>
<text x="103.812" y="208.92" font-size="2.24" text-anchor="middle" fill="#141414">105</text>
<circle cx="19.311" cy="178.239" r="2.28" fill="#99d9fa" stroke="#464646" stroke-width="0.2"/>
<text x="19.311" y="179.02" font-size="2.24" text-anchor="middle" fill="#141414">106</text>
<circle cx="67.008" cy="132.246" r="2.28" fill="#ffe082" stroke="#464646" stroke-width="0.2"/>
<text x="67.008" y="133.03" font-size="2.24" text-anchor="middle" fill="#141414">107</text>
<circle cx="35.681" cy="172.474" r="2.28" fill="#ffe082" stroke="#464646" stroke-width="0.2"/>
<text x="35.681" y="173.26" font-size="2.24" text-anchor="middle" fill="#141414">108</text>
<circle cx="98.966" cy="153.905" r="2.28" fill="#ffe082" stroke="#464646" stroke-width="0.2"/>
<text x="98.966" y="154.69" font-size="2.24" text-anchor="middle" fill="#141414">109</text>
<circle cx="63.355" cy="116.174" r="4.6" fill="#eaf1fe" stroke="#2e78e6" stroke-width="0.3"/>
<text x="63.355" y="117.974" font-size="5.2" text-anchor="middle" fill="#14306e" font-weight="bold">11</text>
<text x="205.0" y="295.0" font-size="3.2" text-anchor="end" fill="#737373" font-family="sans-serif">5 / 9</text>
</svg>
