<svg xmlns="http://www.w3.org/2000/svg" xmlns:xlink="http://www.w3.org/1999/xlink" width="210.00mm" height="297.00mm" viewBox="0 0 210.00 297.00">
<rect x="0" y="0" width="210.00" height="297.00" fill="#ffffff" stroke="#cccccc" stroke-width="0.2"/>
<polygon points="38.997,70.253 31.77,78.273 21.665,121.253 24.562,131.653" fill="rgb(216,216,216)"/>
<polygon points="24.562,131.653 17.878,141.238 10.691,189.542 14.294,200.658" fill="rgb(216,216,216)"/>
<polygon points="73.901,28.11 73.047,21.689 85.973,9.126 92.367,10.162" fill="rgb(216,216,216)"/>
<polygon points="84.121,82.34 81.84,102.875 48.526,190.043 36.53,206.865" fill="rgb(216,216,216)"/>
<polygon points="55.9,90.908 57.375,92.229 36.772,154.834 36.53,155.642" fill="rgb(216,216,216)"/>
<polygon points="36.53,206.865 31.796,210.942 16.231,206.598 14.294,200.658" fill="rgb(216,216,216)"/>
<polygon points="55.9,90.908 57.375,92.229 36.772,154.834 36.53,155.642" fill="#99d9fa"/>
<line x1="36.53" y1="206.865" x2="36.53" y2="155.642" stroke="#8c8c8c" stroke-width="0.3" stroke-dasharray="1.2,0.8"/>
<line x1="36.53" y1="155.642" x2="14.294" y2="200.658" stroke="#8c8c8c" stroke-width="0.3" stroke-dasharray="1.2,0.8"/>
<line x1="55.9" y1="90.908" x2="24.562" y2="131.653" stroke="#8c8c8c" stroke-width="0.3" stroke-dasharray="1.2,0.8"/>
<line x1="36.53" y1="155.642" x2="84.121" y2="82.34" stroke="#8c8c8c" stroke-width="0.3" stroke-dasharray="1.2,0.8"/>
<line x1="24.562" y1="131.653" x2="38.997" y2="70.253" stroke="#8c8c8c" stroke-width="0.3" stroke-dasharray="1.2,0.8"/>
<line x1="14.294" y1="200.658" x2="24.562" y2="131.653" stroke="#8c8c8c" stroke-width="0.3" stroke-dasharray="1.2,0.8"/>
<line x1="92.367" y1="10.162" x2="73.901" y2="28.11" stroke="#8c8c8c" stroke-width="0.3" stroke-dasharray="1.2,0.8"/>
<line x1="36.53" y1="206.865" x2="84.121" y2="82.34" stroke="#8c8c8c" stroke-width="0.3" stroke-dasharray="1.2,0.8"/>
<line x1="36.53" y1="155.642" x2="55.9" y2="90.908" stroke="#8c8c8c" stroke-width="0.3" stroke-dasharray="1.2,0.8"/>
<line x1="14.294" y1="200.658" x2="36.53" y2="206.865" stroke="#8c8c8c" stroke-width="0.3" stroke-dasharray="1.2,0.8"/>
<line x1="38.997" y1="70.253" x2="55.9" y2="90.908" stroke="#141414" stroke-width="0.4"/>
<line x1="57.758" y1="91.493" x2="73.901" y2="28.11" stroke="#141414" stroke-width="0.4"/>
<line x1="92.367" y1="10.162" x2="84.121" y2="82.34" stroke="#141414" stroke-width="0.4"/>
<line x1="36.53" y1="155.642" x2="57.758" y2="91.493" stroke="#141414" stroke-width="0.4"/>
<line x1="38.997" y1="70.253" x2="31.77" y2="78.273" stroke="#141414" stroke-width="0.4"/>
<line x1="31.77" y1="78.273" x2="21.665" y2="121.253" stroke="#141414" stroke-width="0.4"/>
<line x1="21.665" y1="121.253" x2="24.562" y2="131.653" stroke="#141414" stroke-width="0.4"/>
<line x1="24.562" y1="131.653" x2="17.878" y2="141.238" stroke="#141414" stroke-width="0.4"/>
<line x1="17.878" y1="141.238" x2="10.691" y2="189.542" stroke="#141414" stroke-width="0.4"/>
<line x1="10.691" y1="189.542" x2="14.294" y2="200.658" stroke="#141414" stroke-width="0.4"/>
<line x1="73.901" y1="28.11" x2="73.047" y2="21.689" stroke="#141414" stroke-width="0.4"/>
<line x1="73.047" y1="21.689" x2="85.973" y2="9.126" stroke="#141414" stroke-width="0.4"/>
<line x1="85.973" y1="9.126" x2="92.367" y2="10.162" stroke="#141414" stroke-width="0.4"/>
<line x1="84.121" y1="82.34" x2="81.84" y2="102.875" stroke="#141414" stroke-width="0.4"/>
<line x1="81.84" y1="102.875" x2="48.526" y2="190.043" stroke="#141414" stroke-width="0.4"/>
<line x1="48.526" y1="190.043" x2="36.53" y2="206.865" stroke="#141414" stroke-width="0.4"/>
<line x1="55.9" y1="90.908" x2="57.375" y2="92.229" stroke="#141414" stroke-width="0.4"/>
<line x1="57.375" y1="92.229" x2="36.772" y2="154.834" stroke="#141414" stroke-width="0.4"/>
<line x1="36.772" y1="154.834" x2="36.53" y2="155.642" stroke="#141414" stroke-width="0.4"/>
<line x1="36.53" y1="206.865" x2="31.796" y2="210.942" stroke="#141414" stroke-width="0.4"/>
<line x1="31.796" y1="210.942" x2="16.231" y2="206.598" stroke="#141414" stroke-width="0.4"/>
<line x1="16.231" y1="206.598" x2="14.294" y2="200.658" stroke="#141414" stroke-width="0.4"/>
<circle cx="29.248" cy="100.358" r="2.29" fill="#ffe082" stroke="#464646" stroke-width="0.2"/>
<text x="29.248" y="101.44" font-size="3.11" text-anchor="middle" fill="#141414">38</text>
<circle cx="16.856" cy="165.773" r="2.29" fill="#ffe082" stroke="#464646" stroke-width="0.2"/>
<text x="16.856" y="166.86" font-size="3.11" text-anchor="middle" fill="#141414">45</text>
<circle cx="81.322" cy="17.272" r="2.29" fill="#ffe082" stroke="#464646" stroke-width="0.2"/>
<text x="81.322" y="18.36" font-size="3.11" text-anchor="middle" fill="#141414">50</text>
<circle cx="62.754" cy="145.531" r="2.29" fill="#ffe082" stroke="#464646" stroke-width="0.2"/>
<text x="62.754" y="146.62" font-size="3.11" text-anchor="middle" fill="#141414">54</text>
<circle cx="24.713" cy="206.266" r="2.29" fill="#ffe082" stroke="#464646" stroke-width="0.2"/>
<text x="24.713" y="207.35" font-size="3.11" text-anchor="middle" fill="#141414">61</text>
<circle cx="52.393" cy="148.282" r="4.60" fill="#eaf1fe" stroke="#2e78e6" stroke-width="0.3"/>
<text x="52.393" y="150.08" font-size="5.20" text-anchor="middle" fill="#14306e" font-weight="bold">13</text>
<polygon points="94.064,10.725 105.92,9.671 152.619,27.433 160.777,36.1" fill="rgb(216,216,216)"/>
<polygon points="89.676,36.1 104.351,48.196 182.559,82.417 201.403,84.986" fill="rgb(216,216,216)"/>
<line x1="89.676" y1="36.1" x2="160.777" y2="36.1" stroke="#8c8c8c" stroke-width="0.3" stroke-dasharray="1.2,0.8"/>
<line x1="160.777" y1="36.1" x2="94.064" y2="10.725" stroke="#8c8c8c" stroke-width="0.3" stroke-dasharray="1.2,0.8"/>
<line x1="201.403" y1="84.986" x2="89.676" y2="36.1" stroke="#8c8c8c" stroke-width="0.3" stroke-dasharray="1.2,0.8"/>
<line x1="89.676" y1="36.1" x2="94.064" y2="10.725" stroke="#141414" stroke-width="0.4"/>
<line x1="160.777" y1="36.1" x2="201.403" y2="84.986" stroke="#141414" stroke-width="0.4"/>
<line x1="94.064" y1="10.725" x2="105.92" y2="9.671" stroke="#141414" stroke-width="0.4"/>
<line x1="105.92" y1="9.671" x2="152.619" y2="27.433" stroke="#141414" stroke-width="0.4"/>
<line x1="152.619" y1="27.433" x2="160.777" y2="36.1" stroke="#141414" stroke-width="0.4"/>
<line x1="89.676" y1="36.1" x2="104.351" y2="48.196" stroke="#141414" stroke-width="0.4"/>
<line x1="104.351" y1="48.196" x2="182.559" y2="82.417" stroke="#141414" stroke-width="0.4"/>
<line x1="182.559" y1="82.417" x2="201.403" y2="84.986" stroke="#141414" stroke-width="0.4"/>
<circle cx="128.345" cy="20.982" r="2.29" fill="#ffe082" stroke="#464646" stroke-width="0.2"/>
<text x="128.345" y="22.07" font-size="3.11" text-anchor="middle" fill="#141414">51</text>
<circle cx="144.497" cy="62.925" r="2.29" fill="#ffe082" stroke="#464646" stroke-width="0.2"/>
<text x="144.497" y="64.01" font-size="3.11" text-anchor="middle" fill="#141414">57</text>
<circle cx="150.619" cy="52.395" r="4.60" fill="#eaf1fe" stroke="#2e78e6" stroke-width="0.3"/>
<text x="150.619" y="54.20" font-size="5.20" text-anchor="middle" fill="#14306e" font-weight="bold">14</text>
<text x="205.0" y="295.0" font-size="3.2" text-anchor="end" fill="#737373" font-family="sans-serif">7 / 8</text>
</svg>
