<svg xmlns="http://www.w3.org/2000/svg" xmlns:xlink="http://www.w3.org/1999/xlink" width="210.00mm" height="297.00mm" viewBox="0 0 210.00 297.00">
<rect x="0" y="0" width="210.00" height="297.00" fill="#ffffff" stroke="#cccccc" stroke-width="0.2"/>
<polygon points="89.266,15.953 100.948,10.753 155.466,10.753 167.148,15.953" fill="rgb(216,216,216)"/>
<polygon points="5.0,30.034 29.772,33.103 143.275,23.246 167.148,15.953" fill="rgb(216,216,216)"/>
<line x1="167.148" y1="15.953" x2="89.266" y2="15.953" stroke="#8c8c8c" stroke-width="0.3" stroke-dasharray="1.2,0.8"/>
<line x1="167.148" y1="15.953" x2="5.0" y2="30.034" stroke="#8c8c8c" stroke-width="0.3" stroke-dasharray="1.2,0.8"/>
<line x1="5.0" y1="30.034" x2="89.266" y2="15.953" stroke="#141414" stroke-width="0.4"/>
<line x1="89.266" y1="15.953" x2="100.948" y2="10.753" stroke="#141414" stroke-width="0.4"/>
<line x1="100.948" y1="10.753" x2="155.466" y2="10.753" stroke="#141414" stroke-width="0.4"/>
<line x1="155.466" y1="10.753" x2="167.148" y2="15.953" stroke="#141414" stroke-width="0.4"/>
<line x1="5.0" y1="30.034" x2="29.772" y2="33.103" stroke="#141414" stroke-width="0.4"/>
<line x1="29.772" y1="33.103" x2="143.275" y2="23.246" stroke="#141414" stroke-width="0.4"/>
<line x1="143.275" y1="23.246" x2="167.148" y2="15.953" stroke="#141414" stroke-width="0.4"/>
<circle cx="128.207" cy="13.353" r="2.29" fill="#ffe082" stroke="#464646" stroke-width="0.2"/>
<text x="128.207" y="14.44" font-size="3.11" text-anchor="middle" fill="#141414">4</text>
<circle cx="86.299" cy="25.584" r="2.29" fill="#ffe082" stroke="#464646" stroke-width="0.2"/>
<text x="86.299" y="26.67" font-size="3.11" text-anchor="middle" fill="#141414">8</text>
<circle cx="86.074" cy="33.449" r="4.60" fill="#eaf1fe" stroke="#2e78e6" stroke-width="0.3"/>
<text x="86.074" y="35.25" font-size="5.20" text-anchor="middle" fill="#14306e" font-weight="bold">6</text>
<polygon points="56.973,30.349 55.903,37.397 37.159,50.29 30.195,48.768" fill="rgb(216,216,216)"/>
<line x1="30.195" y1="48.768" x2="56.973" y2="30.349" stroke="#8c8c8c" stroke-width="0.3" stroke-dasharray="1.2,0.8"/>
<line x1="5.0" y1="30.349" x2="56.973" y2="30.349" stroke="#141414" stroke-width="0.4"/>
<line x1="30.195" y1="48.769" x2="5.0" y2="30.349" stroke="#141414" stroke-width="0.4"/>
<line x1="56.973" y1="30.349" x2="55.903" y2="37.397" stroke="#141414" stroke-width="0.4"/>
<line x1="55.903" y1="37.397" x2="37.159" y2="50.29" stroke="#141414" stroke-width="0.4"/>
<line x1="37.159" y1="50.29" x2="30.195" y2="48.768" stroke="#141414" stroke-width="0.4"/>
<circle cx="45.058" cy="41.701" r="2.29" fill="#ffe082" stroke="#464646" stroke-width="0.2"/>
<text x="45.058" y="42.79" font-size="3.11" text-anchor="middle" fill="#141414">30</text>
<circle cx="30.723" cy="36.489" r="4.60" fill="#eaf1fe" stroke="#2e78e6" stroke-width="0.3"/>
<text x="30.723" y="38.29" font-size="5.20" text-anchor="middle" fill="#14306e" font-weight="bold">7</text>
<line x1="164.59" y1="30.349" x2="164.246" y2="78.868" stroke="#8c8c8c" stroke-width="0.3" stroke-dasharray="1.2,0.8"/>
<line x1="164.59" y1="30.349" x2="152.269" y2="126.475" stroke="#8c8c8c" stroke-width="0.3" stroke-dasharray="1.2,0.8"/>
<line x1="59.973" y1="30.349" x2="164.59" y2="30.349" stroke="#141414" stroke-width="0.4"/>
<line x1="152.269" y1="126.475" x2="59.973" y2="30.349" stroke="#141414" stroke-width="0.4"/>
<line x1="164.59" y1="30.349" x2="179.703" y2="51.629" stroke="#141414" stroke-width="0.4"/>
<line x1="179.703" y1="51.629" x2="164.246" y2="78.868" stroke="#141414" stroke-width="0.4"/>
<line x1="164.246" y1="78.868" x2="152.269" y2="126.475" stroke="#141414" stroke-width="0.4"/>
<circle cx="125.611" cy="62.391" r="4.60" fill="#eaf1fe" stroke="#2e78e6" stroke-width="0.3"/>
<text x="125.611" y="64.19" font-size="5.20" text-anchor="middle" fill="#14306e" font-weight="bold">8</text>
<text x="205.0" y="295.0" font-size="3.2" text-anchor="end" fill="#737373" font-family="sans-serif">4 / 8</text>
</svg>
