<svg xmlns="http://www.w3.org/2000/svg" xmlns:xlink="http://www.w3.org/1999/xlink" width="210.00mm" height="297.00mm" viewBox="0 0 210.00 297.00">
<rect x="0" y="0" width="210.00" height="297.00" fill="#ffffff" stroke="#cccccc" stroke-width="0.2"/>
<polygon points="67.062,41.307 58.709,41.094 57.433,39.494 59.084,31.303" fill="rgb(216,216,216)"/>
<polygon points="79.856,41.307 88.209,41.093 89.485,39.493 87.833,31.303" fill="rgb(216,216,216)"/>
<polygon points="74.082,142.927 78.137,144.267 78.78,147.125 75.69,150.073" fill="rgb(216,216,216)"/>
<polygon points="92.615,42.264 97.889,58.203 90.033,128.986 81.392,143.382" fill="rgb(216,216,216)"/>
<polygon points="87.833,31.303 93.643,28.008 91.649,19.275 84.984,18.828" fill="rgb(216,216,216)"/>
<polygon points="45.215,148.827 47.187,151.71 50.668,150.364 50.188,146.904" fill="rgb(216,216,216)"/>
<polygon points="84.984,18.828 86.031,12.231 77.962,8.345 73.457,13.276" fill="rgb(216,216,216)"/>
<polygon points="50.188,146.904 51.943,149.923 55.513,148.836 55.287,145.35" fill="rgb(216,216,216)"/>
<polygon points="73.457,13.276 68.952,8.345 60.883,12.232 61.93,18.828" fill="rgb(216,216,216)"/>
<polygon points="55.287,145.35 56.819,148.49 60.458,147.665 60.487,144.172" fill="rgb(216,216,216)"/>
<polygon points="61.93,18.828 55.265,19.276 53.273,28.009 59.084,31.303" fill="rgb(216,216,216)"/>
<polygon points="60.487,144.172 60.486,147.38 64.282,146.806 65.758,143.376" fill="rgb(216,216,216)"/>
<polygon points="60.487,144.172 60.486,147.38 64.282,146.806 65.758,143.376" fill="#99d9fa"/>
<line x1="67.062" y1="41.307" x2="79.856" y2="41.307" stroke="#8c8c8c" stroke-width="0.3" stroke-dasharray="1.2,0.8"/>
<line x1="74.082" y1="142.927" x2="67.062" y2="41.307" stroke="#8c8c8c" stroke-width="0.3" stroke-dasharray="1.2,0.8"/>
<line x1="67.062" y1="41.307" x2="65.758" y2="143.376" stroke="#8c8c8c" stroke-width="0.3" stroke-dasharray="1.2,0.8"/>
<line x1="79.856" y1="41.307" x2="74.082" y2="142.927" stroke="#8c8c8c" stroke-width="0.3" stroke-dasharray="1.2,0.8"/>
<line x1="65.758" y1="143.376" x2="74.082" y2="142.927" stroke="#8c8c8c" stroke-width="0.3" stroke-dasharray="1.2,0.8"/>
<line x1="16.935" y1="50.758" x2="50.188" y2="146.904" stroke="#8c8c8c" stroke-width="0.3" stroke-dasharray="1.2,0.8"/>
<line x1="29.174" y1="47.029" x2="55.288" y2="145.351" stroke="#8c8c8c" stroke-width="0.3" stroke-dasharray="1.2,0.8"/>
<line x1="41.652" y1="44.202" x2="60.487" y2="144.172" stroke="#8c8c8c" stroke-width="0.3" stroke-dasharray="1.2,0.8"/>
<line x1="54.304" y1="42.289" x2="65.758" y2="143.376" stroke="#8c8c8c" stroke-width="0.3" stroke-dasharray="1.2,0.8"/>
<line x1="92.615" y1="42.264" x2="74.082" y2="142.927" stroke="#8c8c8c" stroke-width="0.3" stroke-dasharray="1.2,0.8"/>
<line x1="59.084" y1="31.303" x2="67.062" y2="41.307" stroke="#8c8c8c" stroke-width="0.3" stroke-dasharray="1.2,0.8"/>
<line x1="87.833" y1="31.303" x2="79.856" y2="41.307" stroke="#8c8c8c" stroke-width="0.3" stroke-dasharray="1.2,0.8"/>
<line x1="75.69" y1="150.073" x2="74.082" y2="142.927" stroke="#8c8c8c" stroke-width="0.3" stroke-dasharray="1.2,0.8"/>
<line x1="81.392" y1="143.382" x2="92.615" y2="42.264" stroke="#8c8c8c" stroke-width="0.3" stroke-dasharray="1.2,0.8"/>
<line x1="84.984" y1="18.828" x2="87.833" y2="31.303" stroke="#8c8c8c" stroke-width="0.3" stroke-dasharray="1.2,0.8"/>
<line x1="50.188" y1="146.904" x2="45.215" y2="148.827" stroke="#8c8c8c" stroke-width="0.3" stroke-dasharray="1.2,0.8"/>
<line x1="73.457" y1="13.276" x2="84.984" y2="18.828" stroke="#8c8c8c" stroke-width="0.3" stroke-dasharray="1.2,0.8"/>
<line x1="55.287" y1="145.35" x2="50.188" y2="146.904" stroke="#8c8c8c" stroke-width="0.3" stroke-dasharray="1.2,0.8"/>
<line x1="61.93" y1="18.828" x2="73.457" y2="13.276" stroke="#8c8c8c" stroke-width="0.3" stroke-dasharray="1.2,0.8"/>
<line x1="60.487" y1="144.172" x2="55.287" y2="145.35" stroke="#8c8c8c" stroke-width="0.3" stroke-dasharray="1.2,0.8"/>
<line x1="59.084" y1="31.303" x2="61.93" y2="18.828" stroke="#8c8c8c" stroke-width="0.3" stroke-dasharray="1.2,0.8"/>
<line x1="65.758" y1="143.376" x2="60.487" y2="144.172" stroke="#8c8c8c" stroke-width="0.3" stroke-dasharray="1.2,0.8"/>
<line x1="54.304" y1="42.289" x2="67.062" y2="41.307" stroke="#141414" stroke-width="0.4"/>
<line x1="79.856" y1="41.307" x2="92.615" y2="42.264" stroke="#141414" stroke-width="0.4"/>
<line x1="81.392" y1="143.382" x2="74.082" y2="142.927" stroke="#141414" stroke-width="0.4"/>
<line x1="45.215" y1="148.827" x2="5.0" y2="55.373" stroke="#141414" stroke-width="0.4"/>
<line x1="5.0" y1="55.373" x2="16.935" y2="50.758" stroke="#141414" stroke-width="0.4"/>
<line x1="75.689" y1="150.073" x2="71.799" y2="153.719" stroke="#141414" stroke-width="0.4"/>
<line x1="16.935" y1="50.758" x2="29.174" y2="47.029" stroke="#141414" stroke-width="0.4"/>
<line x1="71.799" y1="153.719" x2="66.524" y2="152.951" stroke="#141414" stroke-width="0.4"/>
<line x1="29.174" y1="47.029" x2="41.652" y2="44.202" stroke="#141414" stroke-width="0.4"/>
<line x1="66.524" y1="152.951" x2="63.835" y2="148.348" stroke="#141414" stroke-width="0.4"/>
<line x1="41.652" y1="44.202" x2="54.304" y2="42.289" stroke="#141414" stroke-width="0.4"/>
<line x1="63.835" y1="148.348" x2="65.758" y2="143.376" stroke="#141414" stroke-width="0.4"/>
<line x1="67.062" y1="41.307" x2="58.709" y2="41.094" stroke="#141414" stroke-width="0.4"/>
<line x1="58.709" y1="41.094" x2="57.433" y2="39.494" stroke="#141414" stroke-width="0.4"/>
<line x1="57.433" y1="39.494" x2="59.084" y2="31.303" stroke="#141414" stroke-width="0.4"/>
<line x1="79.856" y1="41.307" x2="88.209" y2="41.093" stroke="#141414" stroke-width="0.4"/>
<line x1="88.209" y1="41.093" x2="89.485" y2="39.493" stroke="#141414" stroke-width="0.4"/>
<line x1="89.485" y1="39.493" x2="87.833" y2="31.303" stroke="#141414" stroke-width="0.4"/>
<line x1="74.082" y1="142.927" x2="78.137" y2="144.267" stroke="#141414" stroke-width="0.4"/>
<line x1="78.137" y1="144.267" x2="78.78" y2="147.125" stroke="#141414" stroke-width="0.4"/>
<line x1="78.78" y1="147.125" x2="75.69" y2="150.073" stroke="#141414" stroke-width="0.4"/>
<line x1="92.615" y1="42.264" x2="97.889" y2="58.203" stroke="#141414" stroke-width="0.4"/>
<line x1="97.889" y1="58.203" x2="90.033" y2="128.986" stroke="#141414" stroke-width="0.4"/>
<line x1="90.033" y1="128.986" x2="81.392" y2="143.382" stroke="#141414" stroke-width="0.4"/>
<line x1="87.833" y1="31.303" x2="93.643" y2="28.008" stroke="#141414" stroke-width="0.4"/>
<line x1="93.643" y1="28.008" x2="91.649" y2="19.275" stroke="#141414" stroke-width="0.4"/>
<line x1="91.649" y1="19.275" x2="84.984" y2="18.828" stroke="#141414" stroke-width="0.4"/>
<line x1="45.215" y1="148.827" x2="47.187" y2="151.71" stroke="#141414" stroke-width="0.4"/>
<line x1="47.187" y1="151.71" x2="50.668" y2="150.364" stroke="#141414" stroke-width="0.4"/>
<line x1="50.668" y1="150.364" x2="50.188" y2="146.904" stroke="#141414" stroke-width="0.4"/>
<line x1="84.984" y1="18.828" x2="86.031" y2="12.231" stroke="#141414" stroke-width="0.4"/>
<line x1="86.031" y1="12.231" x2="77.962" y2="8.345" stroke="#141414" stroke-width="0.4"/>
<line x1="77.962" y1="8.345" x2="73.457" y2="13.276" stroke="#141414" stroke-width="0.4"/>
<line x1="50.188" y1="146.904" x2="51.943" y2="149.923" stroke="#141414" stroke-width="0.4"/>
<line x1="51.943" y1="149.923" x2="55.513" y2="148.836" stroke="#141414" stroke-width="0.4"/>
<line x1="55.513" y1="148.836" x2="55.287" y2="145.35" stroke="#141414" stroke-width="0.4"/>
<line x1="73.457" y1="13.276" x2="68.952" y2="8.345" stroke="#141414" stroke-width="0.4"/>
<line x1="68.952" y1="8.345" x2="60.883" y2="12.232" stroke="#141414" stroke-width="0.4"/>
<line x1="60.883" y1="12.232" x2="61.93" y2="18.828" stroke="#141414" stroke-width="0.4"/>
<line x1="55.287" y1="145.35" x2="56.819" y2="148.49" stroke="#141414" stroke-width="0.4"/>
<line x1="56.819" y1="148.49" x2="60.458" y2="147.665" stroke="#141414" stroke-width="0.4"/>
<line x1="60.458" y1="147.665" x2="60.487" y2="144.172" stroke="#141414" stroke-width="0.4"/>
<line x1="61.93" y1="18.828" x2="55.265" y2="19.276" stroke="#141414" stroke-width="0.4"/>
<line x1="55.265" y1="19.276" x2="53.273" y2="28.009" stroke="#141414" stroke-width="0.4"/>
<line x1="53.273" y1="28.009" x2="59.084" y2="31.303" stroke="#141414" stroke-width="0.4"/>
<line x1="60.487" y1="144.172" x2="60.486" y2="147.38" stroke="#141414" stroke-width="0.4"/>
<line x1="60.486" y1="147.38" x2="64.282" y2="146.806" stroke="#141414" stroke-width="0.4"/>
<line x1="64.282" y1="146.806" x2="65.758" y2="143.376" stroke="#141414" stroke-width="0.4"/>
<circle cx="60.572" cy="38.3" r="1.40" fill="#ffe082" stroke="#464646" stroke-width="0.2"/>
<text x="60.572" y="38.78" font-size="1.37" text-anchor="middle" fill="#141414">23</text>
<circle cx="86.346" cy="38.299" r="1.40" fill="#ffe082" stroke="#464646" stroke-width="0.2"/>
<text x="86.346" y="38.78" font-size="1.37" text-anchor="middle" fill="#141414">24</text>
<circle cx="76.672" cy="146.098" r="1.40" fill="#ffe082" stroke="#464646" stroke-width="0.2"/>
<text x="76.672" y="146.58" font-size="1.37" text-anchor="middle" fill="#141414">25</text>
<circle cx="90.482" cy="93.209" r="1.40" fill="#ffe082" stroke="#464646" stroke-width="0.2"/>
<text x="90.482" y="93.69" font-size="1.37" text-anchor="middle" fill="#141414">26</text>
<circle cx="89.527" cy="24.353" r="1.40" fill="#ffe082" stroke="#464646" stroke-width="0.2"/>
<text x="89.527" y="24.83" font-size="1.37" text-anchor="middle" fill="#141414">27</text>
<circle cx="48.314" cy="149.451" r="1.40" fill="#ffe082" stroke="#464646" stroke-width="0.2"/>
<text x="48.314" y="149.93" font-size="1.37" text-anchor="middle" fill="#141414">28</text>
<circle cx="80.608" cy="13.17" r="1.40" fill="#ffe082" stroke="#464646" stroke-width="0.2"/>
<text x="80.608" y="13.65" font-size="1.37" text-anchor="middle" fill="#141414">29</text>
<circle cx="53.233" cy="147.754" r="1.40" fill="#ffe082" stroke="#464646" stroke-width="0.2"/>
<text x="53.233" y="148.23" font-size="1.37" text-anchor="middle" fill="#141414">30</text>
<circle cx="66.305" cy="13.17" r="1.40" fill="#ffe082" stroke="#464646" stroke-width="0.2"/>
<text x="66.305" y="13.65" font-size="1.37" text-anchor="middle" fill="#141414">31</text>
<circle cx="58.263" cy="146.419" r="1.40" fill="#ffe082" stroke="#464646" stroke-width="0.2"/>
<text x="58.263" y="146.90" font-size="1.37" text-anchor="middle" fill="#141414">32</text>
<circle cx="57.388" cy="24.354" r="1.40" fill="#ffe082" stroke="#464646" stroke-width="0.2"/>
<text x="57.388" y="24.83" font-size="1.37" text-anchor="middle" fill="#141414">33</text>
<circle cx="62.753" cy="145.433" r="1.40" fill="#99d9fa" stroke="#464646" stroke-width="0.2"/>
<text x="62.753" y="145.91" font-size="1.37" text-anchor="middle" fill="#141414">34</text>
<circle cx="51.445" cy="156.474" r="4.6" fill="#eaf1fe" stroke="#2e78e6" stroke-width="0.3"/>
<text x="51.445" y="158.274" font-size="5.2" text-anchor="middle" fill="#14306e" font-weight="bold">3</text>
<g pointer-events="none"><text x="105.0" y="83.2" text-anchor="middle" font-family="sans-serif" font-size="12.4" fill="#9aa0a6" fill-opacity="0.3" transform="rotate(-28 105.0 83.2)">papercraft.kr</text><text x="105.0" y="148.5" text-anchor="middle" font-family="sans-serif" font-size="12.4" fill="#9aa0a6" fill-opacity="0.3" transform="rotate(-28 105.0 148.5)">papercraft.kr</text><text x="105.0" y="213.8" text-anchor="middle" font-family="sans-serif" font-size="12.4" fill="#9aa0a6" fill-opacity="0.3" transform="rotate(-28 105.0 213.8)">papercraft.kr</text></g></svg>
