<svg xmlns="http://www.w3.org/2000/svg" xmlns:xlink="http://www.w3.org/1999/xlink" width="210.00mm" height="297.00mm" viewBox="0 0 210.00 297.00">
<rect x="0" y="0" width="210.00" height="297.00" fill="#ffffff" stroke="#cccccc" stroke-width="0.2"/>
<polygon points="88.059,76.932 87.892,62.642 79.586,48.256 67.295,40.966" fill="rgb(216,216,216)"/>
<polygon points="67.295,112.898 54.836,119.897 38.224,119.897 25.765,112.898" fill="rgb(216,216,216)"/>
<polygon points="150.354,184.829 153.302,175.934 138.766,150.758 129.589,148.863" fill="rgb(216,216,216)"/>
<polygon points="150.354,184.829 153.302,193.724 138.766,218.9 129.589,220.795" fill="rgb(216,216,216)"/>
<polygon points="150.354,40.966 150.187,55.256 141.881,69.642 129.589,76.932" fill="rgb(216,216,216)"/>
<polygon points="108.824,184.829 96.533,192.119 88.227,206.505 88.059,220.795" fill="rgb(216,216,216)"/>
<polygon points="150.354,112.898 137.895,119.897 121.283,119.897 108.824,112.898" fill="rgb(216,216,216)"/>
<polygon points="129.589,220.795 123.36,227.795 94.289,227.795 88.059,220.795" fill="rgb(216,216,216)"/>
<polygon points="25.765,40.966 31.994,33.966 61.065,33.966 67.295,40.966" fill="rgb(216,216,216)"/>
<polygon points="46.53,76.932 34.238,84.221 25.932,98.608 25.765,112.898" fill="rgb(216,216,216)"/>
<polygon points="67.295,184.829 67.462,170.54 75.768,156.153 88.059,148.863" fill="rgb(216,216,216)"/>
<polygon points="129.589,220.795 123.36,227.795 94.289,227.795 88.059,220.795" fill="#99d9fa"/>
<line x1="67.295" y1="112.897" x2="88.059" y2="76.932" stroke="#8c8c8c" stroke-width="0.3" stroke-dasharray="1.2,0.8"/>
<line x1="108.824" y1="112.897" x2="88.059" y2="76.932" stroke="#8c8c8c" stroke-width="0.3" stroke-dasharray="1.2,0.8"/>
<line x1="46.53" y1="76.932" x2="88.059" y2="76.932" stroke="#8c8c8c" stroke-width="0.3" stroke-dasharray="1.2,0.8"/>
<line x1="88.059" y1="76.932" x2="129.589" y2="76.932" stroke="#8c8c8c" stroke-width="0.3" stroke-dasharray="1.2,0.8"/>
<line x1="108.824" y1="112.897" x2="67.295" y2="112.897" stroke="#8c8c8c" stroke-width="0.3" stroke-dasharray="1.2,0.8"/>
<line x1="67.295" y1="112.897" x2="46.53" y2="76.932" stroke="#8c8c8c" stroke-width="0.3" stroke-dasharray="1.2,0.8"/>
<line x1="88.059" y1="148.863" x2="67.295" y2="112.897" stroke="#8c8c8c" stroke-width="0.3" stroke-dasharray="1.2,0.8"/>
<line x1="150.354" y1="184.829" x2="108.824" y2="184.829" stroke="#8c8c8c" stroke-width="0.3" stroke-dasharray="1.2,0.8"/>
<line x1="108.824" y1="40.966" x2="150.354" y2="40.966" stroke="#8c8c8c" stroke-width="0.3" stroke-dasharray="1.2,0.8"/>
<line x1="129.589" y1="148.863" x2="108.824" y2="184.829" stroke="#8c8c8c" stroke-width="0.3" stroke-dasharray="1.2,0.8"/>
<line x1="129.589" y1="220.795" x2="108.824" y2="184.829" stroke="#8c8c8c" stroke-width="0.3" stroke-dasharray="1.2,0.8"/>
<line x1="108.824" y1="184.829" x2="88.059" y2="148.863" stroke="#8c8c8c" stroke-width="0.3" stroke-dasharray="1.2,0.8"/>
<line x1="88.059" y1="148.863" x2="129.589" y2="148.863" stroke="#8c8c8c" stroke-width="0.3" stroke-dasharray="1.2,0.8"/>
<line x1="129.589" y1="76.932" x2="150.354" y2="112.897" stroke="#8c8c8c" stroke-width="0.3" stroke-dasharray="1.2,0.8"/>
<line x1="108.824" y1="112.897" x2="88.059" y2="148.863" stroke="#8c8c8c" stroke-width="0.3" stroke-dasharray="1.2,0.8"/>
<line x1="129.589" y1="76.932" x2="108.824" y2="112.897" stroke="#8c8c8c" stroke-width="0.3" stroke-dasharray="1.2,0.8"/>
<line x1="46.53" y1="76.932" x2="25.765" y2="40.966" stroke="#8c8c8c" stroke-width="0.3" stroke-dasharray="1.2,0.8"/>
<line x1="46.53" y1="76.932" x2="67.295" y2="40.966" stroke="#8c8c8c" stroke-width="0.3" stroke-dasharray="1.2,0.8"/>
<line x1="108.824" y1="40.966" x2="129.589" y2="76.932" stroke="#8c8c8c" stroke-width="0.3" stroke-dasharray="1.2,0.8"/>
<line x1="67.295" y1="40.966" x2="88.059" y2="76.932" stroke="#8c8c8c" stroke-width="0.3" stroke-dasharray="1.2,0.8"/>
<line x1="25.765" y1="112.898" x2="67.295" y2="112.898" stroke="#8c8c8c" stroke-width="0.3" stroke-dasharray="1.2,0.8"/>
<line x1="129.589" y1="148.863" x2="150.354" y2="184.829" stroke="#8c8c8c" stroke-width="0.3" stroke-dasharray="1.2,0.8"/>
<line x1="129.589" y1="220.795" x2="150.354" y2="184.829" stroke="#8c8c8c" stroke-width="0.3" stroke-dasharray="1.2,0.8"/>
<line x1="129.589" y1="76.932" x2="150.354" y2="40.966" stroke="#8c8c8c" stroke-width="0.3" stroke-dasharray="1.2,0.8"/>
<line x1="88.059" y1="220.795" x2="108.824" y2="184.829" stroke="#8c8c8c" stroke-width="0.3" stroke-dasharray="1.2,0.8"/>
<line x1="108.824" y1="112.898" x2="150.354" y2="112.898" stroke="#8c8c8c" stroke-width="0.3" stroke-dasharray="1.2,0.8"/>
<line x1="88.059" y1="220.795" x2="129.589" y2="220.795" stroke="#8c8c8c" stroke-width="0.3" stroke-dasharray="1.2,0.8"/>
<line x1="67.295" y1="40.966" x2="25.765" y2="40.966" stroke="#8c8c8c" stroke-width="0.3" stroke-dasharray="1.2,0.8"/>
<line x1="25.765" y1="112.898" x2="46.53" y2="76.932" stroke="#8c8c8c" stroke-width="0.3" stroke-dasharray="1.2,0.8"/>
<line x1="88.059" y1="148.863" x2="67.295" y2="184.829" stroke="#8c8c8c" stroke-width="0.3" stroke-dasharray="1.2,0.8"/>
<line x1="88.059" y1="76.932" x2="108.824" y2="40.966" stroke="#141414" stroke-width="0.4"/>
<line x1="46.53" y1="148.863" x2="67.295" y2="112.897" stroke="#141414" stroke-width="0.4"/>
<line x1="171.119" y1="76.932" x2="150.354" y2="112.897" stroke="#141414" stroke-width="0.4"/>
<line x1="129.589" y1="5.0" x2="150.354" y2="40.966" stroke="#141414" stroke-width="0.4"/>
<line x1="129.589" y1="76.932" x2="171.119" y2="76.932" stroke="#141414" stroke-width="0.4"/>
<line x1="108.824" y1="184.829" x2="67.295" y2="184.829" stroke="#141414" stroke-width="0.4"/>
<line x1="108.824" y1="112.897" x2="129.589" y2="148.863" stroke="#141414" stroke-width="0.4"/>
<line x1="5.0" y1="76.932" x2="25.765" y2="40.966" stroke="#141414" stroke-width="0.4"/>
<line x1="108.824" y1="40.966" x2="129.589" y2="5.0" stroke="#141414" stroke-width="0.4"/>
<line x1="46.53" y1="76.932" x2="5.0" y2="76.932" stroke="#141414" stroke-width="0.4"/>
<line x1="88.059" y1="148.863" x2="46.53" y2="148.863" stroke="#141414" stroke-width="0.4"/>
<line x1="88.059" y1="76.932" x2="87.892" y2="62.642" stroke="#141414" stroke-width="0.4"/>
<line x1="87.892" y1="62.642" x2="79.586" y2="48.256" stroke="#141414" stroke-width="0.4"/>
<line x1="79.586" y1="48.256" x2="67.295" y2="40.966" stroke="#141414" stroke-width="0.4"/>
<line x1="67.295" y1="112.898" x2="54.836" y2="119.897" stroke="#141414" stroke-width="0.4"/>
<line x1="54.836" y1="119.897" x2="38.224" y2="119.897" stroke="#141414" stroke-width="0.4"/>
<line x1="38.224" y1="119.897" x2="25.765" y2="112.898" stroke="#141414" stroke-width="0.4"/>
<line x1="150.354" y1="184.829" x2="153.302" y2="175.934" stroke="#141414" stroke-width="0.4"/>
<line x1="153.302" y1="175.934" x2="138.766" y2="150.758" stroke="#141414" stroke-width="0.4"/>
<line x1="138.766" y1="150.758" x2="129.589" y2="148.863" stroke="#141414" stroke-width="0.4"/>
<line x1="150.354" y1="184.829" x2="153.302" y2="193.724" stroke="#141414" stroke-width="0.4"/>
<line x1="153.302" y1="193.724" x2="138.766" y2="218.9" stroke="#141414" stroke-width="0.4"/>
<line x1="138.766" y1="218.9" x2="129.589" y2="220.795" stroke="#141414" stroke-width="0.4"/>
<line x1="150.354" y1="40.966" x2="150.187" y2="55.256" stroke="#141414" stroke-width="0.4"/>
<line x1="150.187" y1="55.256" x2="141.881" y2="69.642" stroke="#141414" stroke-width="0.4"/>
<line x1="141.881" y1="69.642" x2="129.589" y2="76.932" stroke="#141414" stroke-width="0.4"/>
<line x1="108.824" y1="184.829" x2="96.533" y2="192.119" stroke="#141414" stroke-width="0.4"/>
<line x1="96.533" y1="192.119" x2="88.227" y2="206.505" stroke="#141414" stroke-width="0.4"/>
<line x1="88.227" y1="206.505" x2="88.059" y2="220.795" stroke="#141414" stroke-width="0.4"/>
<line x1="150.354" y1="112.898" x2="137.895" y2="119.897" stroke="#141414" stroke-width="0.4"/>
<line x1="137.895" y1="119.897" x2="121.283" y2="119.897" stroke="#141414" stroke-width="0.4"/>
<line x1="121.283" y1="119.897" x2="108.824" y2="112.898" stroke="#141414" stroke-width="0.4"/>
<line x1="129.589" y1="220.795" x2="123.36" y2="227.795" stroke="#141414" stroke-width="0.4"/>
<line x1="123.36" y1="227.795" x2="94.289" y2="227.795" stroke="#141414" stroke-width="0.4"/>
<line x1="94.289" y1="227.795" x2="88.059" y2="220.795" stroke="#141414" stroke-width="0.4"/>
<line x1="25.765" y1="40.966" x2="31.994" y2="33.966" stroke="#141414" stroke-width="0.4"/>
<line x1="31.994" y1="33.966" x2="61.065" y2="33.966" stroke="#141414" stroke-width="0.4"/>
<line x1="61.065" y1="33.966" x2="67.295" y2="40.966" stroke="#141414" stroke-width="0.4"/>
<line x1="46.53" y1="76.932" x2="34.238" y2="84.221" stroke="#141414" stroke-width="0.4"/>
<line x1="34.238" y1="84.221" x2="25.932" y2="98.608" stroke="#141414" stroke-width="0.4"/>
<line x1="25.932" y1="98.608" x2="25.765" y2="112.898" stroke="#141414" stroke-width="0.4"/>
<line x1="67.295" y1="184.829" x2="67.462" y2="170.54" stroke="#141414" stroke-width="0.4"/>
<line x1="67.462" y1="170.54" x2="75.768" y2="156.153" stroke="#141414" stroke-width="0.4"/>
<line x1="75.768" y1="156.153" x2="88.059" y2="148.863" stroke="#141414" stroke-width="0.4"/>
<circle cx="80.708" cy="57.199" r="2.36" fill="#ffe082" stroke="#464646" stroke-width="0.2"/>
<text x="80.708" y="58.01" font-size="2.32" text-anchor="middle" fill="#141414">23</text>
<circle cx="46.53" cy="116.398" r="2.36" fill="#ffe082" stroke="#464646" stroke-width="0.2"/>
<text x="46.53" y="117.21" font-size="2.32" text-anchor="middle" fill="#141414">24</text>
<circle cx="143.003" cy="165.096" r="2.36" fill="#ffe082" stroke="#464646" stroke-width="0.2"/>
<text x="143.003" y="165.91" font-size="2.32" text-anchor="middle" fill="#141414">25</text>
<circle cx="143.003" cy="204.562" r="2.36" fill="#ffe082" stroke="#464646" stroke-width="0.2"/>
<text x="143.003" y="205.37" font-size="2.32" text-anchor="middle" fill="#141414">26</text>
<circle cx="143.003" cy="60.699" r="2.36" fill="#ffe082" stroke="#464646" stroke-width="0.2"/>
<text x="143.003" y="61.51" font-size="2.32" text-anchor="middle" fill="#141414">27</text>
<circle cx="95.411" cy="201.062" r="2.36" fill="#ffe082" stroke="#464646" stroke-width="0.2"/>
<text x="95.411" y="201.87" font-size="2.32" text-anchor="middle" fill="#141414">28</text>
<circle cx="129.589" cy="116.398" r="2.36" fill="#ffe082" stroke="#464646" stroke-width="0.2"/>
<text x="129.589" y="117.21" font-size="2.32" text-anchor="middle" fill="#141414">29</text>
<circle cx="108.824" cy="224.295" r="2.36" fill="#99d9fa" stroke="#464646" stroke-width="0.2"/>
<text x="108.824" y="225.11" font-size="2.32" text-anchor="middle" fill="#141414">30</text>
<circle cx="46.53" cy="37.466" r="2.36" fill="#ffe082" stroke="#464646" stroke-width="0.2"/>
<text x="46.53" y="38.28" font-size="2.32" text-anchor="middle" fill="#141414">31</text>
<circle cx="33.116" cy="93.165" r="2.36" fill="#ffe082" stroke="#464646" stroke-width="0.2"/>
<text x="33.116" y="93.98" font-size="2.32" text-anchor="middle" fill="#141414">32</text>
<circle cx="74.646" cy="165.096" r="2.36" fill="#ffe082" stroke="#464646" stroke-width="0.2"/>
<text x="74.646" y="165.91" font-size="2.32" text-anchor="middle" fill="#141414">33</text>
<circle cx="25.765" cy="64.943" r="4.60" fill="#eaf1fe" stroke="#2e78e6" stroke-width="0.3"/>
<text x="25.765" y="66.74" font-size="5.20" text-anchor="middle" fill="#14306e" font-weight="bold">3</text>
<text x="205.0" y="295.0" font-size="3.2" text-anchor="end" fill="#737373" font-family="sans-serif">3 / 8</text>
<g pointer-events="none"><text x="105.0" y="83.2" text-anchor="middle" font-family="sans-serif" font-size="12.4" fill="#9aa0a6" fill-opacity="0.3" transform="rotate(-28 105.0 83.2)">papercraft.kr</text><text x="105.0" y="148.5" text-anchor="middle" font-family="sans-serif" font-size="12.4" fill="#9aa0a6" fill-opacity="0.3" transform="rotate(-28 105.0 148.5)">papercraft.kr</text><text x="105.0" y="213.8" text-anchor="middle" font-family="sans-serif" font-size="12.4" fill="#9aa0a6" fill-opacity="0.3" transform="rotate(-28 105.0 213.8)">papercraft.kr</text></g></svg>
