<svg xmlns="http://www.w3.org/2000/svg" xmlns:xlink="http://www.w3.org/1999/xlink" width="210.00mm" height="297.00mm" viewBox="0 0 210.00 297.00">
<rect x="0" y="0" width="210.00" height="297.00" fill="#ffffff" stroke="#cccccc" stroke-width="0.2"/>
<polygon points="74.4,123.906 65.108,125.932 49.952,151.868 52.747,160.958" fill="rgb(216,216,216)"/>
<polygon points="31.502,122.726 22.384,120.655 8.482,95.289 11.641,86.489" fill="rgb(216,216,216)"/>
<polygon points="156.952,126.697 166.085,129.346 179.456,156.246 176.053,165.126" fill="rgb(216,216,216)"/>
<polygon points="156.952,126.697 160.222,117.937 146.64,92.398 137.549,90.212" fill="rgb(216,216,216)"/>
<polygon points="93.08,15.816 86.713,8.969 57.795,9.672 51.769,16.82" fill="rgb(216,216,216)"/>
<polygon points="135.231,161.455 134.354,175.925 141.615,191.213 153.384,199.676" fill="rgb(216,216,216)"/>
<polygon points="93.724,160.052 93.622,174.548 85.345,189.311 73.031,196.96" fill="rgb(216,216,216)"/>
<polygon points="74.639,52.421 61.888,45.524 52.74,31.284 51.769,16.82" fill="rgb(216,216,216)"/>
<polygon points="53.911,88.408 41.548,80.839 24.639,80.072 11.641,86.489" fill="rgb(216,216,216)"/>
<polygon points="193.421,202.622 186.902,209.161 158.876,207.099 153.384,199.676" fill="rgb(216,216,216)"/>
<polygon points="96.222,88.815 105.266,90.679 118.917,115.243 115.723,123.906" fill="rgb(216,216,216)"/>
<polygon points="74.639,52.421 61.888,45.524 52.74,31.284 51.769,16.82" fill="#99d9fa"/>
<line x1="93.725" y1="160.052" x2="74.4" y2="123.906" stroke="#8c8c8c" stroke-width="0.3" stroke-dasharray="1.2,0.8"/>
<line x1="53.911" y1="88.408" x2="74.4" y2="123.906" stroke="#8c8c8c" stroke-width="0.3" stroke-dasharray="1.2,0.8"/>
<line x1="96.222" y1="88.815" x2="74.4" y2="123.906" stroke="#8c8c8c" stroke-width="0.3" stroke-dasharray="1.2,0.8"/>
<line x1="74.4" y1="123.906" x2="115.723" y2="123.906" stroke="#8c8c8c" stroke-width="0.3" stroke-dasharray="1.2,0.8"/>
<line x1="93.725" y1="160.052" x2="52.747" y2="160.958" stroke="#8c8c8c" stroke-width="0.3" stroke-dasharray="1.2,0.8"/>
<line x1="31.502" y1="122.727" x2="53.911" y2="88.408" stroke="#8c8c8c" stroke-width="0.3" stroke-dasharray="1.2,0.8"/>
<line x1="73.031" y1="196.96" x2="52.747" y2="160.958" stroke="#8c8c8c" stroke-width="0.3" stroke-dasharray="1.2,0.8"/>
<line x1="135.231" y1="161.455" x2="156.952" y2="126.697" stroke="#8c8c8c" stroke-width="0.3" stroke-dasharray="1.2,0.8"/>
<line x1="115.626" y1="52.331" x2="74.639" y2="52.421" stroke="#8c8c8c" stroke-width="0.3" stroke-dasharray="1.2,0.8"/>
<line x1="156.952" y1="126.697" x2="115.723" y2="123.906" stroke="#8c8c8c" stroke-width="0.3" stroke-dasharray="1.2,0.8"/>
<line x1="135.231" y1="161.455" x2="176.053" y2="165.126" stroke="#8c8c8c" stroke-width="0.3" stroke-dasharray="1.2,0.8"/>
<line x1="74.639" y1="52.421" x2="93.08" y2="15.816" stroke="#8c8c8c" stroke-width="0.3" stroke-dasharray="1.2,0.8"/>
<line x1="176.053" y1="165.126" x2="153.384" y2="199.677" stroke="#8c8c8c" stroke-width="0.3" stroke-dasharray="1.2,0.8"/>
<line x1="135.231" y1="161.455" x2="93.725" y2="160.052" stroke="#8c8c8c" stroke-width="0.3" stroke-dasharray="1.2,0.8"/>
<line x1="115.723" y1="123.906" x2="135.231" y2="161.455" stroke="#8c8c8c" stroke-width="0.3" stroke-dasharray="1.2,0.8"/>
<line x1="115.723" y1="123.906" x2="93.725" y2="160.052" stroke="#8c8c8c" stroke-width="0.3" stroke-dasharray="1.2,0.8"/>
<line x1="53.911" y1="88.408" x2="74.639" y2="52.421" stroke="#8c8c8c" stroke-width="0.3" stroke-dasharray="1.2,0.8"/>
<line x1="74.639" y1="52.421" x2="96.222" y2="88.815" stroke="#8c8c8c" stroke-width="0.3" stroke-dasharray="1.2,0.8"/>
<line x1="53.911" y1="88.408" x2="96.222" y2="88.815" stroke="#8c8c8c" stroke-width="0.3" stroke-dasharray="1.2,0.8"/>
<line x1="52.747" y1="160.958" x2="74.4" y2="123.906" stroke="#8c8c8c" stroke-width="0.3" stroke-dasharray="1.2,0.8"/>
<line x1="11.641" y1="86.489" x2="31.502" y2="122.726" stroke="#8c8c8c" stroke-width="0.3" stroke-dasharray="1.2,0.8"/>
<line x1="176.053" y1="165.126" x2="156.952" y2="126.697" stroke="#8c8c8c" stroke-width="0.3" stroke-dasharray="1.2,0.8"/>
<line x1="137.549" y1="90.212" x2="156.952" y2="126.697" stroke="#8c8c8c" stroke-width="0.3" stroke-dasharray="1.2,0.8"/>
<line x1="51.769" y1="16.82" x2="93.08" y2="15.816" stroke="#8c8c8c" stroke-width="0.3" stroke-dasharray="1.2,0.8"/>
<line x1="153.384" y1="199.676" x2="135.231" y2="161.455" stroke="#8c8c8c" stroke-width="0.3" stroke-dasharray="1.2,0.8"/>
<line x1="73.031" y1="196.96" x2="93.724" y2="160.052" stroke="#8c8c8c" stroke-width="0.3" stroke-dasharray="1.2,0.8"/>
<line x1="51.769" y1="16.82" x2="74.639" y2="52.421" stroke="#8c8c8c" stroke-width="0.3" stroke-dasharray="1.2,0.8"/>
<line x1="11.641" y1="86.489" x2="53.911" y2="88.408" stroke="#8c8c8c" stroke-width="0.3" stroke-dasharray="1.2,0.8"/>
<line x1="153.384" y1="199.676" x2="193.421" y2="202.622" stroke="#8c8c8c" stroke-width="0.3" stroke-dasharray="1.2,0.8"/>
<line x1="115.723" y1="123.906" x2="96.222" y2="88.815" stroke="#8c8c8c" stroke-width="0.3" stroke-dasharray="1.2,0.8"/>
<line x1="74.4" y1="123.906" x2="31.502" y2="122.727" stroke="#141414" stroke-width="0.4"/>
<line x1="32.886" y1="197.195" x2="52.747" y2="160.958" stroke="#141414" stroke-width="0.4"/>
<line x1="93.08" y1="15.816" x2="115.626" y2="52.331" stroke="#141414" stroke-width="0.4"/>
<line x1="115.626" y1="52.331" x2="96.222" y2="88.815" stroke="#141414" stroke-width="0.4"/>
<line x1="176.053" y1="165.126" x2="193.421" y2="202.622" stroke="#141414" stroke-width="0.4"/>
<line x1="135.231" y1="161.455" x2="113.232" y2="197.6" stroke="#141414" stroke-width="0.4"/>
<line x1="113.232" y1="197.6" x2="93.725" y2="160.052" stroke="#141414" stroke-width="0.4"/>
<line x1="32.327" y1="52.013" x2="74.639" y2="52.421" stroke="#141414" stroke-width="0.4"/>
<line x1="53.911" y1="88.408" x2="32.327" y2="52.013" stroke="#141414" stroke-width="0.4"/>
<line x1="73.031" y1="196.96" x2="32.886" y2="197.195" stroke="#141414" stroke-width="0.4"/>
<line x1="115.723" y1="123.906" x2="137.549" y2="90.212" stroke="#141414" stroke-width="0.4"/>
<line x1="74.4" y1="123.906" x2="65.108" y2="125.932" stroke="#141414" stroke-width="0.4"/>
<line x1="65.108" y1="125.932" x2="49.952" y2="151.868" stroke="#141414" stroke-width="0.4"/>
<line x1="49.952" y1="151.868" x2="52.747" y2="160.958" stroke="#141414" stroke-width="0.4"/>
<line x1="31.502" y1="122.726" x2="22.384" y2="120.655" stroke="#141414" stroke-width="0.4"/>
<line x1="22.384" y1="120.655" x2="8.482" y2="95.289" stroke="#141414" stroke-width="0.4"/>
<line x1="8.482" y1="95.289" x2="11.641" y2="86.489" stroke="#141414" stroke-width="0.4"/>
<line x1="156.952" y1="126.697" x2="166.085" y2="129.346" stroke="#141414" stroke-width="0.4"/>
<line x1="166.085" y1="129.346" x2="179.456" y2="156.246" stroke="#141414" stroke-width="0.4"/>
<line x1="179.456" y1="156.246" x2="176.053" y2="165.126" stroke="#141414" stroke-width="0.4"/>
<line x1="156.952" y1="126.697" x2="160.222" y2="117.937" stroke="#141414" stroke-width="0.4"/>
<line x1="160.222" y1="117.937" x2="146.64" y2="92.398" stroke="#141414" stroke-width="0.4"/>
<line x1="146.64" y1="92.398" x2="137.549" y2="90.212" stroke="#141414" stroke-width="0.4"/>
<line x1="93.08" y1="15.816" x2="86.713" y2="8.969" stroke="#141414" stroke-width="0.4"/>
<line x1="86.713" y1="8.969" x2="57.795" y2="9.672" stroke="#141414" stroke-width="0.4"/>
<line x1="57.795" y1="9.672" x2="51.769" y2="16.82" stroke="#141414" stroke-width="0.4"/>
<line x1="135.231" y1="161.455" x2="134.354" y2="175.925" stroke="#141414" stroke-width="0.4"/>
<line x1="134.354" y1="175.925" x2="141.615" y2="191.213" stroke="#141414" stroke-width="0.4"/>
<line x1="141.615" y1="191.213" x2="153.384" y2="199.676" stroke="#141414" stroke-width="0.4"/>
<line x1="93.724" y1="160.052" x2="93.622" y2="174.548" stroke="#141414" stroke-width="0.4"/>
<line x1="93.622" y1="174.548" x2="85.345" y2="189.311" stroke="#141414" stroke-width="0.4"/>
<line x1="85.345" y1="189.311" x2="73.031" y2="196.96" stroke="#141414" stroke-width="0.4"/>
<line x1="74.639" y1="52.421" x2="61.888" y2="45.524" stroke="#141414" stroke-width="0.4"/>
<line x1="61.888" y1="45.524" x2="52.74" y2="31.284" stroke="#141414" stroke-width="0.4"/>
<line x1="52.74" y1="31.284" x2="51.769" y2="16.82" stroke="#141414" stroke-width="0.4"/>
<line x1="53.911" y1="88.408" x2="41.548" y2="80.839" stroke="#141414" stroke-width="0.4"/>
<line x1="41.548" y1="80.839" x2="24.639" y2="80.072" stroke="#141414" stroke-width="0.4"/>
<line x1="24.639" y1="80.072" x2="11.641" y2="86.489" stroke="#141414" stroke-width="0.4"/>
<line x1="193.421" y1="202.622" x2="186.902" y2="209.161" stroke="#141414" stroke-width="0.4"/>
<line x1="186.902" y1="209.161" x2="158.876" y2="207.099" stroke="#141414" stroke-width="0.4"/>
<line x1="158.876" y1="207.099" x2="153.384" y2="199.676" stroke="#141414" stroke-width="0.4"/>
<line x1="96.222" y1="88.815" x2="105.266" y2="90.679" stroke="#141414" stroke-width="0.4"/>
<line x1="105.266" y1="90.679" x2="118.917" y2="115.243" stroke="#141414" stroke-width="0.4"/>
<line x1="118.917" y1="115.243" x2="115.723" y2="123.906" stroke="#141414" stroke-width="0.4"/>
<circle cx="60.552" cy="140.666" r="2.36" fill="#ffe082" stroke="#464646" stroke-width="0.2"/>
<text x="60.552" y="141.48" font-size="2.32" text-anchor="middle" fill="#141414">1</text>
<circle cx="18.502" cy="106.29" r="2.36" fill="#ffe082" stroke="#464646" stroke-width="0.2"/>
<text x="18.502" y="107.10" font-size="2.32" text-anchor="middle" fill="#141414">2</text>
<circle cx="169.637" cy="144.354" r="2.36" fill="#ffe082" stroke="#464646" stroke-width="0.2"/>
<text x="169.637" y="145.16" font-size="2.32" text-anchor="middle" fill="#141414">3</text>
<circle cx="150.341" cy="106.811" r="2.36" fill="#ffe082" stroke="#464646" stroke-width="0.2"/>
<text x="150.341" y="107.62" font-size="2.32" text-anchor="middle" fill="#141414">4</text>
<circle cx="72.339" cy="12.819" r="2.36" fill="#ffe082" stroke="#464646" stroke-width="0.2"/>
<text x="72.339" y="13.63" font-size="2.32" text-anchor="middle" fill="#141414">5</text>
<circle cx="141.146" cy="182.067" r="2.36" fill="#ffe082" stroke="#464646" stroke-width="0.2"/>
<text x="141.146" y="182.88" font-size="2.32" text-anchor="middle" fill="#141414">6</text>
<circle cx="86.431" cy="180.218" r="2.36" fill="#ffe082" stroke="#464646" stroke-width="0.2"/>
<text x="86.431" y="181.03" font-size="2.32" text-anchor="middle" fill="#141414">7</text>
<circle cx="60.259" cy="36.512" r="2.36" fill="#99d9fa" stroke="#464646" stroke-width="0.2"/>
<text x="60.259" y="37.32" font-size="2.32" text-anchor="middle" fill="#141414">8</text>
<circle cx="32.935" cy="83.952" r="2.36" fill="#ffe082" stroke="#464646" stroke-width="0.2"/>
<text x="32.935" y="84.76" font-size="2.32" text-anchor="middle" fill="#141414">9</text>
<circle cx="173.146" cy="204.64" r="2.36" fill="#ffe082" stroke="#464646" stroke-width="0.2"/>
<text x="173.146" y="205.45" font-size="2.32" text-anchor="middle" fill="#141414">10</text>
<circle cx="109.032" cy="104.661" r="2.36" fill="#ffe082" stroke="#464646" stroke-width="0.2"/>
<text x="109.032" y="105.47" font-size="2.32" text-anchor="middle" fill="#141414">11</text>
<circle cx="74.924" cy="76.548" r="4.60" fill="#eaf1fe" stroke="#2e78e6" stroke-width="0.3"/>
<text x="74.924" y="78.35" font-size="5.20" text-anchor="middle" fill="#14306e" font-weight="bold">1</text>
<polygon points="66.725,235.244 66.364,234.732 56.464,215.414 53.637,216.636" fill="rgb(216,216,216)"/>
<polygon points="52.052,263.502 51.425,263.502 29.929,266.517 29.302,263.502" fill="rgb(216,216,216)"/>
<polygon points="112.004,232.081 112.206,231.487 122.002,212.117 119.351,210.55" fill="rgb(216,216,216)"/>
<polygon points="130.463,258.023 131.084,257.936 152.791,257.933 152.992,254.86" fill="rgb(216,216,216)"/>
<polygon points="95.597,263.293 95.62,271.512 112.764,281.996 120.09,278.271" fill="rgb(216,216,216)"/>
<polygon points="87.312,263.872 88.433,272.014 72.912,284.781 65.14,282.11" fill="rgb(216,216,216)"/>
<polygon points="146.869,226.811 154.626,229.525 158.912,249.159 152.992,254.86" fill="rgb(216,216,216)"/>
<polygon points="27.172,227.763 28.429,219.642 46.954,211.852 53.637,216.636" fill="rgb(216,216,216)"/>
<polygon points="31.465,234.874 24.161,238.641 22.646,258.68 29.302,263.502" fill="rgb(216,216,216)"/>
<polygon points="153.213,258.138 151.88,267.14 128.694,281.233 120.09,278.271" fill="rgb(216,216,216)"/>
<polygon points="56.454,214.944 65.073,212.026 88.188,226.236 89.475,235.244" fill="rgb(216,216,216)"/>
<polygon points="146.869,226.811 154.626,229.525 158.912,249.159 152.992,254.86" fill="#99d9fa"/>
<line x1="52.052" y1="263.502" x2="66.725" y2="235.244" stroke="#8c8c8c" stroke-width="0.3" stroke-dasharray="1.2,0.8"/>
<line x1="87.312" y1="263.872" x2="66.725" y2="235.244" stroke="#8c8c8c" stroke-width="0.3" stroke-dasharray="1.2,0.8"/>
<line x1="31.465" y1="234.874" x2="66.725" y2="235.244" stroke="#8c8c8c" stroke-width="0.3" stroke-dasharray="1.2,0.8"/>
<line x1="66.725" y1="235.244" x2="89.475" y2="235.244" stroke="#8c8c8c" stroke-width="0.3" stroke-dasharray="1.2,0.8"/>
<line x1="87.312" y1="263.872" x2="52.052" y2="263.502" stroke="#8c8c8c" stroke-width="0.3" stroke-dasharray="1.2,0.8"/>
<line x1="52.052" y1="263.502" x2="31.465" y2="234.874" stroke="#8c8c8c" stroke-width="0.3" stroke-dasharray="1.2,0.8"/>
<line x1="65.14" y1="282.11" x2="52.052" y2="263.502" stroke="#8c8c8c" stroke-width="0.3" stroke-dasharray="1.2,0.8"/>
<line x1="112.004" y1="232.081" x2="130.463" y2="258.023" stroke="#8c8c8c" stroke-width="0.3" stroke-dasharray="1.2,0.8"/>
<line x1="95.597" y1="263.293" x2="112.004" y2="232.081" stroke="#8c8c8c" stroke-width="0.3" stroke-dasharray="1.2,0.8"/>
<line x1="112.004" y1="232.081" x2="146.869" y2="226.811" stroke="#8c8c8c" stroke-width="0.3" stroke-dasharray="1.2,0.8"/>
<line x1="112.004" y1="232.081" x2="89.475" y2="235.244" stroke="#8c8c8c" stroke-width="0.3" stroke-dasharray="1.2,0.8"/>
<line x1="95.597" y1="263.293" x2="130.463" y2="258.023" stroke="#8c8c8c" stroke-width="0.3" stroke-dasharray="1.2,0.8"/>
<line x1="146.869" y1="226.811" x2="130.463" y2="258.023" stroke="#8c8c8c" stroke-width="0.3" stroke-dasharray="1.2,0.8"/>
<line x1="130.463" y1="258.023" x2="120.09" y2="278.271" stroke="#8c8c8c" stroke-width="0.3" stroke-dasharray="1.2,0.8"/>
<line x1="95.597" y1="263.293" x2="87.312" y2="263.872" stroke="#8c8c8c" stroke-width="0.3" stroke-dasharray="1.2,0.8"/>
<line x1="89.475" y1="235.244" x2="95.597" y2="263.293" stroke="#8c8c8c" stroke-width="0.3" stroke-dasharray="1.2,0.8"/>
<line x1="89.475" y1="235.244" x2="87.312" y2="263.872" stroke="#8c8c8c" stroke-width="0.3" stroke-dasharray="1.2,0.8"/>
<line x1="31.465" y1="234.874" x2="27.172" y2="227.763" stroke="#8c8c8c" stroke-width="0.3" stroke-dasharray="1.2,0.8"/>
<line x1="31.465" y1="234.874" x2="53.637" y2="216.636" stroke="#8c8c8c" stroke-width="0.3" stroke-dasharray="1.2,0.8"/>
<line x1="53.637" y1="216.636" x2="66.725" y2="235.244" stroke="#8c8c8c" stroke-width="0.3" stroke-dasharray="1.2,0.8"/>
<line x1="29.302" y1="263.502" x2="52.052" y2="263.502" stroke="#8c8c8c" stroke-width="0.3" stroke-dasharray="1.2,0.8"/>
<line x1="119.351" y1="210.55" x2="112.004" y2="232.081" stroke="#8c8c8c" stroke-width="0.3" stroke-dasharray="1.2,0.8"/>
<line x1="152.992" y1="254.86" x2="130.463" y2="258.023" stroke="#8c8c8c" stroke-width="0.3" stroke-dasharray="1.2,0.8"/>
<line x1="120.09" y1="278.271" x2="95.597" y2="263.293" stroke="#8c8c8c" stroke-width="0.3" stroke-dasharray="1.2,0.8"/>
<line x1="65.14" y1="282.11" x2="87.312" y2="263.872" stroke="#8c8c8c" stroke-width="0.3" stroke-dasharray="1.2,0.8"/>
<line x1="152.992" y1="254.86" x2="146.869" y2="226.811" stroke="#8c8c8c" stroke-width="0.3" stroke-dasharray="1.2,0.8"/>
<line x1="53.637" y1="216.636" x2="27.172" y2="227.763" stroke="#8c8c8c" stroke-width="0.3" stroke-dasharray="1.2,0.8"/>
<line x1="29.302" y1="263.502" x2="31.465" y2="234.874" stroke="#8c8c8c" stroke-width="0.3" stroke-dasharray="1.2,0.8"/>
<line x1="120.09" y1="278.271" x2="153.213" y2="258.138" stroke="#8c8c8c" stroke-width="0.3" stroke-dasharray="1.2,0.8"/>
<line x1="89.475" y1="235.244" x2="56.454" y2="214.944" stroke="#8c8c8c" stroke-width="0.3" stroke-dasharray="1.2,0.8"/>
<line x1="66.725" y1="235.244" x2="56.454" y2="214.944" stroke="#141414" stroke-width="0.4"/>
<line x1="29.539" y1="266.779" x2="52.052" y2="263.502" stroke="#141414" stroke-width="0.4"/>
<line x1="112.004" y1="232.081" x2="122.376" y2="211.833" stroke="#141414" stroke-width="0.4"/>
<line x1="130.463" y1="258.023" x2="153.213" y2="258.138" stroke="#141414" stroke-width="0.4"/>
<line x1="95.597" y1="263.293" x2="93.434" y2="291.921" stroke="#141414" stroke-width="0.4"/>
<line x1="93.434" y1="291.921" x2="87.312" y2="263.872" stroke="#141414" stroke-width="0.4"/>
<line x1="5.0" y1="246.001" x2="27.172" y2="227.763" stroke="#141414" stroke-width="0.4"/>
<line x1="122.376" y1="211.833" x2="146.869" y2="226.811" stroke="#141414" stroke-width="0.4"/>
<line x1="31.465" y1="234.874" x2="5.0" y2="246.001" stroke="#141414" stroke-width="0.4"/>
<line x1="65.14" y1="282.11" x2="29.539" y2="266.779" stroke="#141414" stroke-width="0.4"/>
<line x1="89.475" y1="235.244" x2="119.351" y2="210.55" stroke="#141414" stroke-width="0.4"/>
<line x1="66.725" y1="235.244" x2="66.364" y2="234.732" stroke="#141414" stroke-width="0.4"/>
<line x1="66.364" y1="234.732" x2="56.464" y2="215.414" stroke="#141414" stroke-width="0.4"/>
<line x1="56.464" y1="215.414" x2="53.637" y2="216.636" stroke="#141414" stroke-width="0.4"/>
<line x1="52.052" y1="263.502" x2="51.425" y2="263.502" stroke="#141414" stroke-width="0.4"/>
<line x1="51.425" y1="263.502" x2="29.929" y2="266.517" stroke="#141414" stroke-width="0.4"/>
<line x1="29.929" y1="266.517" x2="29.302" y2="263.502" stroke="#141414" stroke-width="0.4"/>
<line x1="112.004" y1="232.081" x2="112.206" y2="231.487" stroke="#141414" stroke-width="0.4"/>
<line x1="112.206" y1="231.487" x2="122.002" y2="212.117" stroke="#141414" stroke-width="0.4"/>
<line x1="122.002" y1="212.117" x2="119.351" y2="210.55" stroke="#141414" stroke-width="0.4"/>
<line x1="130.463" y1="258.023" x2="131.084" y2="257.936" stroke="#141414" stroke-width="0.4"/>
<line x1="131.084" y1="257.936" x2="152.791" y2="257.933" stroke="#141414" stroke-width="0.4"/>
<line x1="152.791" y1="257.933" x2="152.992" y2="254.86" stroke="#141414" stroke-width="0.4"/>
<line x1="95.597" y1="263.293" x2="95.62" y2="271.512" stroke="#141414" stroke-width="0.4"/>
<line x1="95.62" y1="271.512" x2="112.764" y2="281.996" stroke="#141414" stroke-width="0.4"/>
<line x1="112.764" y1="281.996" x2="120.09" y2="278.271" stroke="#141414" stroke-width="0.4"/>
<line x1="87.312" y1="263.872" x2="88.433" y2="272.014" stroke="#141414" stroke-width="0.4"/>
<line x1="88.433" y1="272.014" x2="72.912" y2="284.781" stroke="#141414" stroke-width="0.4"/>
<line x1="72.912" y1="284.781" x2="65.14" y2="282.11" stroke="#141414" stroke-width="0.4"/>
<line x1="146.869" y1="226.811" x2="154.626" y2="229.525" stroke="#141414" stroke-width="0.4"/>
<line x1="154.626" y1="229.525" x2="158.912" y2="249.159" stroke="#141414" stroke-width="0.4"/>
<line x1="158.912" y1="249.159" x2="152.992" y2="254.86" stroke="#141414" stroke-width="0.4"/>
<line x1="27.172" y1="227.763" x2="28.429" y2="219.642" stroke="#141414" stroke-width="0.4"/>
<line x1="28.429" y1="219.642" x2="46.954" y2="211.852" stroke="#141414" stroke-width="0.4"/>
<line x1="46.954" y1="211.852" x2="53.637" y2="216.636" stroke="#141414" stroke-width="0.4"/>
<line x1="31.465" y1="234.874" x2="24.161" y2="238.641" stroke="#141414" stroke-width="0.4"/>
<line x1="24.161" y1="238.641" x2="22.646" y2="258.68" stroke="#141414" stroke-width="0.4"/>
<line x1="22.646" y1="258.68" x2="29.302" y2="263.502" stroke="#141414" stroke-width="0.4"/>
<line x1="153.213" y1="258.138" x2="151.88" y2="267.14" stroke="#141414" stroke-width="0.4"/>
<line x1="151.88" y1="267.14" x2="128.694" y2="281.233" stroke="#141414" stroke-width="0.4"/>
<line x1="128.694" y1="281.233" x2="120.09" y2="278.271" stroke="#141414" stroke-width="0.4"/>
<line x1="56.454" y1="214.944" x2="65.073" y2="212.026" stroke="#141414" stroke-width="0.4"/>
<line x1="65.073" y1="212.026" x2="88.188" y2="226.236" stroke="#141414" stroke-width="0.4"/>
<line x1="88.188" y1="226.236" x2="89.475" y2="235.244" stroke="#141414" stroke-width="0.4"/>
<circle cx="106.018" cy="273.768" r="2.36" fill="#ffe082" stroke="#464646" stroke-width="0.2"/>
<text x="106.018" y="274.58" font-size="2.32" text-anchor="middle" fill="#141414">74</text>
<circle cx="78.449" cy="275.694" r="2.36" fill="#ffe082" stroke="#464646" stroke-width="0.2"/>
<text x="78.449" y="276.50" font-size="2.32" text-anchor="middle" fill="#141414">75</text>
<circle cx="153.35" cy="240.089" r="2.36" fill="#99d9fa" stroke="#464646" stroke-width="0.2"/>
<text x="153.35" y="240.90" font-size="2.32" text-anchor="middle" fill="#141414">76</text>
<circle cx="39.048" cy="218.973" r="2.36" fill="#ffe082" stroke="#464646" stroke-width="0.2"/>
<text x="39.048" y="219.78" font-size="2.32" text-anchor="middle" fill="#141414">77</text>
<circle cx="26.894" cy="248.924" r="2.36" fill="#ffe082" stroke="#464646" stroke-width="0.2"/>
<text x="26.894" y="249.73" font-size="2.32" text-anchor="middle" fill="#141414">78</text>
<circle cx="138.469" cy="271.195" r="2.36" fill="#ffe082" stroke="#464646" stroke-width="0.2"/>
<text x="138.469" y="272.01" font-size="2.32" text-anchor="middle" fill="#141414">79</text>
<circle cx="74.798" cy="222.113" r="2.36" fill="#ffe082" stroke="#464646" stroke-width="0.2"/>
<text x="74.798" y="222.92" font-size="2.32" text-anchor="middle" fill="#141414">80</text>
<circle cx="127.083" cy="223.575" r="4.60" fill="#eaf1fe" stroke="#2e78e6" stroke-width="0.3"/>
<text x="127.083" y="225.38" font-size="5.20" text-anchor="middle" fill="#14306e" font-weight="bold">8</text>
<text x="205.0" y="295.0" font-size="3.2" text-anchor="end" fill="#737373" font-family="sans-serif">1 / 8</text>
<g pointer-events="none"><text x="105.0" y="83.2" text-anchor="middle" font-family="sans-serif" font-size="12.4" fill="#9aa0a6" fill-opacity="0.3" transform="rotate(-28 105.0 83.2)">papercraft.kr</text><text x="105.0" y="148.5" text-anchor="middle" font-family="sans-serif" font-size="12.4" fill="#9aa0a6" fill-opacity="0.3" transform="rotate(-28 105.0 148.5)">papercraft.kr</text><text x="105.0" y="213.8" text-anchor="middle" font-family="sans-serif" font-size="12.4" fill="#9aa0a6" fill-opacity="0.3" transform="rotate(-28 105.0 213.8)">papercraft.kr</text></g></svg>
