<svg xmlns="http://www.w3.org/2000/svg" xmlns:xlink="http://www.w3.org/1999/xlink" width="210.00mm" height="297.00mm" viewBox="0 0 210.00 297.00">
<rect x="0" y="0" width="210.00" height="297.00" fill="#ffffff" stroke="#cccccc" stroke-width="0.2"/>
<polygon points="74.4,123.906 65.108,125.932 49.952,151.868 52.747,160.958" fill="rgb(216,216,216)"/>
<polygon points="31.502,122.726 22.384,120.655 8.482,95.289 11.641,86.489" fill="rgb(216,216,216)"/>
<polygon points="156.952,126.697 166.085,129.346 179.456,156.246 176.053,165.126" fill="rgb(216,216,216)"/>
<polygon points="156.952,126.697 160.222,117.937 146.64,92.398 137.549,90.212" fill="rgb(216,216,216)"/>
<polygon points="93.08,15.816 86.713,8.969 57.795,9.672 51.769,16.82" fill="rgb(216,216,216)"/>
<polygon points="135.231,161.455 134.354,175.925 141.615,191.213 153.384,199.676" fill="rgb(216,216,216)"/>
<polygon points="93.724,160.052 93.622,174.548 85.345,189.311 73.031,196.96" fill="rgb(216,216,216)"/>
<polygon points="74.639,52.421 61.888,45.524 52.74,31.284 51.769,16.82" fill="rgb(216,216,216)"/>
<polygon points="53.911,88.408 41.548,80.839 24.639,80.072 11.641,86.489" fill="rgb(216,216,216)"/>
<polygon points="193.421,202.622 186.902,209.161 158.876,207.099 153.384,199.676" fill="rgb(216,216,216)"/>
<polygon points="96.222,88.815 105.266,90.679 118.917,115.243 115.723,123.906" fill="rgb(216,216,216)"/>
<polygon points="74.639,52.421 61.888,45.524 52.74,31.284 51.769,16.82" fill="#99d9fa"/>
<line x1="93.725" y1="160.052" x2="74.4" y2="123.906" stroke="#8c8c8c" stroke-width="0.3" stroke-dasharray="1.2,0.8"/>
<line x1="53.911" y1="88.408" x2="74.4" y2="123.906" stroke="#8c8c8c" stroke-width="0.3" stroke-dasharray="1.2,0.8"/>
<line x1="96.222" y1="88.815" x2="74.4" y2="123.906" stroke="#8c8c8c" stroke-width="0.3" stroke-dasharray="1.2,0.8"/>
<line x1="74.4" y1="123.906" x2="115.723" y2="123.906" stroke="#8c8c8c" stroke-width="0.3" stroke-dasharray="1.2,0.8"/>
<line x1="93.725" y1="160.052" x2="52.747" y2="160.958" stroke="#8c8c8c" stroke-width="0.3" stroke-dasharray="1.2,0.8"/>
<line x1="31.502" y1="122.727" x2="53.911" y2="88.408" stroke="#8c8c8c" stroke-width="0.3" stroke-dasharray="1.2,0.8"/>
<line x1="73.031" y1="196.96" x2="52.747" y2="160.958" stroke="#8c8c8c" stroke-width="0.3" stroke-dasharray="1.2,0.8"/>
<line x1="135.231" y1="161.455" x2="156.952" y2="126.697" stroke="#8c8c8c" stroke-width="0.3" stroke-dasharray="1.2,0.8"/>
<line x1="115.626" y1="52.331" x2="74.639" y2="52.421" stroke="#8c8c8c" stroke-width="0.3" stroke-dasharray="1.2,0.8"/>
<line x1="156.952" y1="126.697" x2="115.723" y2="123.906" stroke="#8c8c8c" stroke-width="0.3" stroke-dasharray="1.2,0.8"/>
<line x1="135.231" y1="161.455" x2="176.053" y2="165.126" stroke="#8c8c8c" stroke-width="0.3" stroke-dasharray="1.2,0.8"/>
<line x1="74.639" y1="52.421" x2="93.08" y2="15.816" stroke="#8c8c8c" stroke-width="0.3" stroke-dasharray="1.2,0.8"/>
<line x1="176.053" y1="165.126" x2="153.384" y2="199.677" stroke="#8c8c8c" stroke-width="0.3" stroke-dasharray="1.2,0.8"/>
<line x1="135.231" y1="161.455" x2="93.725" y2="160.052" stroke="#8c8c8c" stroke-width="0.3" stroke-dasharray="1.2,0.8"/>
<line x1="115.723" y1="123.906" x2="135.231" y2="161.455" stroke="#8c8c8c" stroke-width="0.3" stroke-dasharray="1.2,0.8"/>
<line x1="115.723" y1="123.906" x2="93.725" y2="160.052" stroke="#8c8c8c" stroke-width="0.3" stroke-dasharray="1.2,0.8"/>
<line x1="53.911" y1="88.408" x2="74.639" y2="52.421" stroke="#8c8c8c" stroke-width="0.3" stroke-dasharray="1.2,0.8"/>
<line x1="74.639" y1="52.421" x2="96.222" y2="88.815" stroke="#8c8c8c" stroke-width="0.3" stroke-dasharray="1.2,0.8"/>
<line x1="53.911" y1="88.408" x2="96.222" y2="88.815" stroke="#8c8c8c" stroke-width="0.3" stroke-dasharray="1.2,0.8"/>
<line x1="52.747" y1="160.958" x2="74.4" y2="123.906" stroke="#8c8c8c" stroke-width="0.3" stroke-dasharray="1.2,0.8"/>
<line x1="11.641" y1="86.489" x2="31.502" y2="122.726" stroke="#8c8c8c" stroke-width="0.3" stroke-dasharray="1.2,0.8"/>
<line x1="176.053" y1="165.126" x2="156.952" y2="126.697" stroke="#8c8c8c" stroke-width="0.3" stroke-dasharray="1.2,0.8"/>
<line x1="137.549" y1="90.212" x2="156.952" y2="126.697" stroke="#8c8c8c" stroke-width="0.3" stroke-dasharray="1.2,0.8"/>
<line x1="51.769" y1="16.82" x2="93.08" y2="15.816" stroke="#8c8c8c" stroke-width="0.3" stroke-dasharray="1.2,0.8"/>
<line x1="153.384" y1="199.676" x2="135.231" y2="161.455" stroke="#8c8c8c" stroke-width="0.3" stroke-dasharray="1.2,0.8"/>
<line x1="73.031" y1="196.96" x2="93.724" y2="160.052" stroke="#8c8c8c" stroke-width="0.3" stroke-dasharray="1.2,0.8"/>
<line x1="51.769" y1="16.82" x2="74.639" y2="52.421" stroke="#8c8c8c" stroke-width="0.3" stroke-dasharray="1.2,0.8"/>
<line x1="11.641" y1="86.489" x2="53.911" y2="88.408" stroke="#8c8c8c" stroke-width="0.3" stroke-dasharray="1.2,0.8"/>
<line x1="153.384" y1="199.676" x2="193.421" y2="202.622" stroke="#8c8c8c" stroke-width="0.3" stroke-dasharray="1.2,0.8"/>
<line x1="115.723" y1="123.906" x2="96.222" y2="88.815" stroke="#8c8c8c" stroke-width="0.3" stroke-dasharray="1.2,0.8"/>
<line x1="74.4" y1="123.906" x2="31.502" y2="122.727" stroke="#141414" stroke-width="0.4"/>
<line x1="32.886" y1="197.195" x2="52.747" y2="160.958" stroke="#141414" stroke-width="0.4"/>
<line x1="93.08" y1="15.816" x2="115.626" y2="52.331" stroke="#141414" stroke-width="0.4"/>
<line x1="115.626" y1="52.331" x2="96.222" y2="88.815" stroke="#141414" stroke-width="0.4"/>
<line x1="176.053" y1="165.126" x2="193.421" y2="202.622" stroke="#141414" stroke-width="0.4"/>
<line x1="135.231" y1="161.455" x2="113.232" y2="197.6" stroke="#141414" stroke-width="0.4"/>
<line x1="113.232" y1="197.6" x2="93.725" y2="160.052" stroke="#141414" stroke-width="0.4"/>
<line x1="32.327" y1="52.013" x2="74.639" y2="52.421" stroke="#141414" stroke-width="0.4"/>
<line x1="53.911" y1="88.408" x2="32.327" y2="52.013" stroke="#141414" stroke-width="0.4"/>
<line x1="73.031" y1="196.96" x2="32.886" y2="197.195" stroke="#141414" stroke-width="0.4"/>
<line x1="115.723" y1="123.906" x2="137.549" y2="90.212" stroke="#141414" stroke-width="0.4"/>
<line x1="74.4" y1="123.906" x2="65.108" y2="125.932" stroke="#141414" stroke-width="0.4"/>
<line x1="65.108" y1="125.932" x2="49.952" y2="151.868" stroke="#141414" stroke-width="0.4"/>
<line x1="49.952" y1="151.868" x2="52.747" y2="160.958" stroke="#141414" stroke-width="0.4"/>
<line x1="31.502" y1="122.726" x2="22.384" y2="120.655" stroke="#141414" stroke-width="0.4"/>
<line x1="22.384" y1="120.655" x2="8.482" y2="95.289" stroke="#141414" stroke-width="0.4"/>
<line x1="8.482" y1="95.289" x2="11.641" y2="86.489" stroke="#141414" stroke-width="0.4"/>
<line x1="156.952" y1="126.697" x2="166.085" y2="129.346" stroke="#141414" stroke-width="0.4"/>
<line x1="166.085" y1="129.346" x2="179.456" y2="156.246" stroke="#141414" stroke-width="0.4"/>
<line x1="179.456" y1="156.246" x2="176.053" y2="165.126" stroke="#141414" stroke-width="0.4"/>
<line x1="156.952" y1="126.697" x2="160.222" y2="117.937" stroke="#141414" stroke-width="0.4"/>
<line x1="160.222" y1="117.937" x2="146.64" y2="92.398" stroke="#141414" stroke-width="0.4"/>
<line x1="146.64" y1="92.398" x2="137.549" y2="90.212" stroke="#141414" stroke-width="0.4"/>
<line x1="93.08" y1="15.816" x2="86.713" y2="8.969" stroke="#141414" stroke-width="0.4"/>
<line x1="86.713" y1="8.969" x2="57.795" y2="9.672" stroke="#141414" stroke-width="0.4"/>
<line x1="57.795" y1="9.672" x2="51.769" y2="16.82" stroke="#141414" stroke-width="0.4"/>
<line x1="135.231" y1="161.455" x2="134.354" y2="175.925" stroke="#141414" stroke-width="0.4"/>
<line x1="134.354" y1="175.925" x2="141.615" y2="191.213" stroke="#141414" stroke-width="0.4"/>
<line x1="141.615" y1="191.213" x2="153.384" y2="199.676" stroke="#141414" stroke-width="0.4"/>
<line x1="93.724" y1="160.052" x2="93.622" y2="174.548" stroke="#141414" stroke-width="0.4"/>
<line x1="93.622" y1="174.548" x2="85.345" y2="189.311" stroke="#141414" stroke-width="0.4"/>
<line x1="85.345" y1="189.311" x2="73.031" y2="196.96" stroke="#141414" stroke-width="0.4"/>
<line x1="74.639" y1="52.421" x2="61.888" y2="45.524" stroke="#141414" stroke-width="0.4"/>
<line x1="61.888" y1="45.524" x2="52.74" y2="31.284" stroke="#141414" stroke-width="0.4"/>
<line x1="52.74" y1="31.284" x2="51.769" y2="16.82" stroke="#141414" stroke-width="0.4"/>
<line x1="53.911" y1="88.408" x2="41.548" y2="80.839" stroke="#141414" stroke-width="0.4"/>
<line x1="41.548" y1="80.839" x2="24.639" y2="80.072" stroke="#141414" stroke-width="0.4"/>
<line x1="24.639" y1="80.072" x2="11.641" y2="86.489" stroke="#141414" stroke-width="0.4"/>
<line x1="193.421" y1="202.622" x2="186.902" y2="209.161" stroke="#141414" stroke-width="0.4"/>
<line x1="186.902" y1="209.161" x2="158.876" y2="207.099" stroke="#141414" stroke-width="0.4"/>
<line x1="158.876" y1="207.099" x2="153.384" y2="199.676" stroke="#141414" stroke-width="0.4"/>
<line x1="96.222" y1="88.815" x2="105.266" y2="90.679" stroke="#141414" stroke-width="0.4"/>
<line x1="105.266" y1="90.679" x2="118.917" y2="115.243" stroke="#141414" stroke-width="0.4"/>
<line x1="118.917" y1="115.243" x2="115.723" y2="123.906" stroke="#141414" stroke-width="0.4"/>
<circle cx="60.552" cy="140.666" r="1.91" fill="#ffe082" stroke="#464646" stroke-width="0.2"/>
<text x="60.552" y="141.32" font-size="1.87" text-anchor="middle" fill="#141414">1</text>
<circle cx="18.502" cy="106.29" r="1.91" fill="#ffe082" stroke="#464646" stroke-width="0.2"/>
<text x="18.502" y="106.95" font-size="1.87" text-anchor="middle" fill="#141414">2</text>
<circle cx="169.637" cy="144.354" r="1.91" fill="#ffe082" stroke="#464646" stroke-width="0.2"/>
<text x="169.637" y="145.01" font-size="1.87" text-anchor="middle" fill="#141414">3</text>
<circle cx="150.341" cy="106.811" r="1.91" fill="#ffe082" stroke="#464646" stroke-width="0.2"/>
<text x="150.341" y="107.47" font-size="1.87" text-anchor="middle" fill="#141414">4</text>
<circle cx="72.339" cy="12.819" r="1.91" fill="#ffe082" stroke="#464646" stroke-width="0.2"/>
<text x="72.339" y="13.47" font-size="1.87" text-anchor="middle" fill="#141414">5</text>
<circle cx="141.146" cy="182.067" r="1.91" fill="#ffe082" stroke="#464646" stroke-width="0.2"/>
<text x="141.146" y="182.72" font-size="1.87" text-anchor="middle" fill="#141414">6</text>
<circle cx="86.431" cy="180.218" r="1.91" fill="#ffe082" stroke="#464646" stroke-width="0.2"/>
<text x="86.431" y="180.87" font-size="1.87" text-anchor="middle" fill="#141414">7</text>
<circle cx="60.259" cy="36.512" r="1.91" fill="#99d9fa" stroke="#464646" stroke-width="0.2"/>
<text x="60.259" y="37.17" font-size="1.87" text-anchor="middle" fill="#141414">8</text>
<circle cx="32.935" cy="83.952" r="1.91" fill="#ffe082" stroke="#464646" stroke-width="0.2"/>
<text x="32.935" y="84.61" font-size="1.87" text-anchor="middle" fill="#141414">9</text>
<circle cx="173.146" cy="204.64" r="1.91" fill="#ffe082" stroke="#464646" stroke-width="0.2"/>
<text x="173.146" y="205.30" font-size="1.87" text-anchor="middle" fill="#141414">10</text>
<circle cx="109.032" cy="104.661" r="1.91" fill="#ffe082" stroke="#464646" stroke-width="0.2"/>
<text x="109.032" y="105.32" font-size="1.87" text-anchor="middle" fill="#141414">11</text>
<circle cx="74.924" cy="76.548" r="4.60" fill="#eaf1fe" stroke="#2e78e6" stroke-width="0.3"/>
<text x="74.924" y="78.35" font-size="5.20" text-anchor="middle" fill="#14306e" font-weight="bold">1</text>
<polygon points="36.616,240.695 29.606,240.516 28.534,239.173 29.92,232.299" fill="rgb(216,216,216)"/>
<polygon points="47.355,240.695 54.366,240.516 55.437,239.173 54.051,232.299" fill="rgb(216,216,216)"/>
<polygon points="43.061,266.016 36.217,267.853 35.94,277.352 42.666,279.585" fill="rgb(216,216,216)"/>
<polygon points="54.051,232.299 58.928,229.533 57.255,222.204 51.661,221.829" fill="rgb(216,216,216)"/>
<polygon points="51.661,221.829 52.54,216.292 45.767,213.03 41.986,217.169" fill="rgb(216,216,216)"/>
<polygon points="59.333,267.748 61.22,274.443 65.823,275.696 70.842,270.88" fill="rgb(216,216,216)"/>
<polygon points="78.882,246.785 84.316,252.615 78.689,269.481 70.842,270.88" fill="rgb(216,216,216)"/>
<polygon points="41.986,217.169 38.205,213.03 31.431,216.292 32.31,221.829" fill="rgb(216,216,216)"/>
<polygon points="12.593,270.756 14.979,274.61 20.848,273.029 20.977,268.498" fill="rgb(216,216,216)"/>
<polygon points="32.31,221.829 26.716,222.204 25.044,229.533 29.92,232.299" fill="rgb(216,216,216)"/>
<polygon points="20.977,268.498 23.044,272.532 29.022,271.432 29.516,266.926" fill="rgb(216,216,216)"/>
<polygon points="43.061,266.016 36.217,267.853 35.94,277.352 42.666,279.585" fill="#99d9fa"/>
<line x1="36.616" y1="240.695" x2="47.355" y2="240.695" stroke="#8c8c8c" stroke-width="0.3" stroke-dasharray="1.2,0.8"/>
<line x1="43.061" y1="266.016" x2="36.616" y2="240.695" stroke="#8c8c8c" stroke-width="0.3" stroke-dasharray="1.2,0.8"/>
<line x1="36.616" y1="240.695" x2="29.516" y2="266.926" stroke="#8c8c8c" stroke-width="0.3" stroke-dasharray="1.2,0.8"/>
<line x1="47.355" y1="240.695" x2="43.061" y2="266.016" stroke="#8c8c8c" stroke-width="0.3" stroke-dasharray="1.2,0.8"/>
<line x1="58.055" y1="241.619" x2="43.061" y2="266.016" stroke="#8c8c8c" stroke-width="0.3" stroke-dasharray="1.2,0.8"/>
<line x1="59.333" y1="267.748" x2="43.061" y2="266.016" stroke="#8c8c8c" stroke-width="0.3" stroke-dasharray="1.2,0.8"/>
<line x1="58.055" y1="241.619" x2="59.333" y2="267.748" stroke="#8c8c8c" stroke-width="0.3" stroke-dasharray="1.2,0.8"/>
<line x1="68.58" y1="243.753" x2="59.333" y2="267.748" stroke="#8c8c8c" stroke-width="0.3" stroke-dasharray="1.2,0.8"/>
<line x1="15.37" y1="243.724" x2="20.977" y2="268.498" stroke="#8c8c8c" stroke-width="0.3" stroke-dasharray="1.2,0.8"/>
<line x1="25.932" y1="241.779" x2="29.516" y2="266.926" stroke="#8c8c8c" stroke-width="0.3" stroke-dasharray="1.2,0.8"/>
<line x1="78.882" y1="246.785" x2="59.333" y2="267.748" stroke="#8c8c8c" stroke-width="0.3" stroke-dasharray="1.2,0.8"/>
<line x1="29.92" y1="232.299" x2="36.616" y2="240.695" stroke="#8c8c8c" stroke-width="0.3" stroke-dasharray="1.2,0.8"/>
<line x1="54.051" y1="232.299" x2="47.355" y2="240.695" stroke="#8c8c8c" stroke-width="0.3" stroke-dasharray="1.2,0.8"/>
<line x1="42.666" y1="279.585" x2="43.061" y2="266.016" stroke="#8c8c8c" stroke-width="0.3" stroke-dasharray="1.2,0.8"/>
<line x1="51.661" y1="221.829" x2="54.051" y2="232.299" stroke="#8c8c8c" stroke-width="0.3" stroke-dasharray="1.2,0.8"/>
<line x1="41.986" y1="217.169" x2="51.661" y2="221.829" stroke="#8c8c8c" stroke-width="0.3" stroke-dasharray="1.2,0.8"/>
<line x1="70.842" y1="270.88" x2="59.333" y2="267.748" stroke="#8c8c8c" stroke-width="0.3" stroke-dasharray="1.2,0.8"/>
<line x1="70.842" y1="270.88" x2="78.882" y2="246.785" stroke="#8c8c8c" stroke-width="0.3" stroke-dasharray="1.2,0.8"/>
<line x1="32.31" y1="221.829" x2="41.986" y2="217.169" stroke="#8c8c8c" stroke-width="0.3" stroke-dasharray="1.2,0.8"/>
<line x1="20.977" y1="268.498" x2="12.593" y2="270.756" stroke="#8c8c8c" stroke-width="0.3" stroke-dasharray="1.2,0.8"/>
<line x1="29.92" y1="232.299" x2="32.31" y2="221.829" stroke="#8c8c8c" stroke-width="0.3" stroke-dasharray="1.2,0.8"/>
<line x1="29.516" y1="266.926" x2="20.977" y2="268.498" stroke="#8c8c8c" stroke-width="0.3" stroke-dasharray="1.2,0.8"/>
<line x1="25.932" y1="241.779" x2="36.616" y2="240.695" stroke="#141414" stroke-width="0.4"/>
<line x1="47.355" y1="240.695" x2="58.055" y2="241.619" stroke="#141414" stroke-width="0.4"/>
<line x1="43.061" y1="266.016" x2="29.516" y2="266.926" stroke="#141414" stroke-width="0.4"/>
<line x1="58.055" y1="241.619" x2="68.58" y2="243.753" stroke="#141414" stroke-width="0.4"/>
<line x1="68.58" y1="243.753" x2="78.882" y2="246.785" stroke="#141414" stroke-width="0.4"/>
<line x1="59.333" y1="267.748" x2="58.312" y2="279.633" stroke="#141414" stroke-width="0.4"/>
<line x1="12.593" y1="270.756" x2="5.0" y2="246.516" stroke="#141414" stroke-width="0.4"/>
<line x1="5.0" y1="246.516" x2="15.37" y2="243.724" stroke="#141414" stroke-width="0.4"/>
<line x1="58.312" y1="279.633" x2="50.477" y2="283.376" stroke="#141414" stroke-width="0.4"/>
<line x1="15.37" y1="243.724" x2="25.932" y2="241.779" stroke="#141414" stroke-width="0.4"/>
<line x1="50.477" y1="283.376" x2="42.666" y2="279.585" stroke="#141414" stroke-width="0.4"/>
<line x1="36.616" y1="240.695" x2="29.606" y2="240.516" stroke="#141414" stroke-width="0.4"/>
<line x1="29.606" y1="240.516" x2="28.534" y2="239.173" stroke="#141414" stroke-width="0.4"/>
<line x1="28.534" y1="239.173" x2="29.92" y2="232.299" stroke="#141414" stroke-width="0.4"/>
<line x1="47.355" y1="240.695" x2="54.366" y2="240.516" stroke="#141414" stroke-width="0.4"/>
<line x1="54.366" y1="240.516" x2="55.437" y2="239.173" stroke="#141414" stroke-width="0.4"/>
<line x1="55.437" y1="239.173" x2="54.051" y2="232.299" stroke="#141414" stroke-width="0.4"/>
<line x1="43.061" y1="266.016" x2="36.217" y2="267.853" stroke="#141414" stroke-width="0.4"/>
<line x1="36.217" y1="267.853" x2="35.94" y2="277.352" stroke="#141414" stroke-width="0.4"/>
<line x1="35.94" y1="277.352" x2="42.666" y2="279.585" stroke="#141414" stroke-width="0.4"/>
<line x1="54.051" y1="232.299" x2="58.928" y2="229.533" stroke="#141414" stroke-width="0.4"/>
<line x1="58.928" y1="229.533" x2="57.255" y2="222.204" stroke="#141414" stroke-width="0.4"/>
<line x1="57.255" y1="222.204" x2="51.661" y2="221.829" stroke="#141414" stroke-width="0.4"/>
<line x1="51.661" y1="221.829" x2="52.54" y2="216.292" stroke="#141414" stroke-width="0.4"/>
<line x1="52.54" y1="216.292" x2="45.767" y2="213.03" stroke="#141414" stroke-width="0.4"/>
<line x1="45.767" y1="213.03" x2="41.986" y2="217.169" stroke="#141414" stroke-width="0.4"/>
<line x1="59.333" y1="267.748" x2="61.22" y2="274.443" stroke="#141414" stroke-width="0.4"/>
<line x1="61.22" y1="274.443" x2="65.823" y2="275.696" stroke="#141414" stroke-width="0.4"/>
<line x1="65.823" y1="275.696" x2="70.842" y2="270.88" stroke="#141414" stroke-width="0.4"/>
<line x1="78.882" y1="246.785" x2="84.316" y2="252.615" stroke="#141414" stroke-width="0.4"/>
<line x1="84.316" y1="252.615" x2="78.689" y2="269.481" stroke="#141414" stroke-width="0.4"/>
<line x1="78.689" y1="269.481" x2="70.842" y2="270.88" stroke="#141414" stroke-width="0.4"/>
<line x1="41.986" y1="217.169" x2="38.205" y2="213.03" stroke="#141414" stroke-width="0.4"/>
<line x1="38.205" y1="213.03" x2="31.431" y2="216.292" stroke="#141414" stroke-width="0.4"/>
<line x1="31.431" y1="216.292" x2="32.31" y2="221.829" stroke="#141414" stroke-width="0.4"/>
<line x1="12.593" y1="270.756" x2="14.979" y2="274.61" stroke="#141414" stroke-width="0.4"/>
<line x1="14.979" y1="274.61" x2="20.848" y2="273.029" stroke="#141414" stroke-width="0.4"/>
<line x1="20.848" y1="273.029" x2="20.977" y2="268.498" stroke="#141414" stroke-width="0.4"/>
<line x1="32.31" y1="221.829" x2="26.716" y2="222.204" stroke="#141414" stroke-width="0.4"/>
<line x1="26.716" y1="222.204" x2="25.044" y2="229.533" stroke="#141414" stroke-width="0.4"/>
<line x1="25.044" y1="229.533" x2="29.92" y2="232.299" stroke="#141414" stroke-width="0.4"/>
<line x1="20.977" y1="268.498" x2="23.044" y2="272.532" stroke="#141414" stroke-width="0.4"/>
<line x1="23.044" y1="272.532" x2="29.022" y2="271.432" stroke="#141414" stroke-width="0.4"/>
<line x1="29.022" y1="271.432" x2="29.516" y2="266.926" stroke="#141414" stroke-width="0.4"/>
<circle cx="31.169" cy="238.171" r="1.91" fill="#ffe082" stroke="#464646" stroke-width="0.2"/>
<text x="31.169" y="238.83" font-size="1.87" text-anchor="middle" fill="#141414">58</text>
<circle cx="52.802" cy="238.171" r="1.91" fill="#ffe082" stroke="#464646" stroke-width="0.2"/>
<text x="52.802" y="238.83" font-size="1.87" text-anchor="middle" fill="#141414">59</text>
<circle cx="39.471" cy="272.701" r="1.91" fill="#99d9fa" stroke="#464646" stroke-width="0.2"/>
<text x="39.471" y="273.36" font-size="1.87" text-anchor="middle" fill="#141414">60</text>
<circle cx="55.474" cy="226.466" r="1.91" fill="#ffe082" stroke="#464646" stroke-width="0.2"/>
<text x="55.474" y="227.12" font-size="1.87" text-anchor="middle" fill="#141414">61</text>
<circle cx="47.988" cy="217.08" r="1.91" fill="#ffe082" stroke="#464646" stroke-width="0.2"/>
<text x="47.988" y="217.74" font-size="1.87" text-anchor="middle" fill="#141414">62</text>
<circle cx="64.305" cy="272.192" r="1.91" fill="#ffe082" stroke="#464646" stroke-width="0.2"/>
<text x="64.305" y="272.85" font-size="1.87" text-anchor="middle" fill="#141414">63</text>
<circle cx="78.182" cy="259.94" r="1.91" fill="#ffe082" stroke="#464646" stroke-width="0.2"/>
<text x="78.182" y="260.60" font-size="1.87" text-anchor="middle" fill="#141414">64</text>
<circle cx="35.983" cy="217.08" r="1.91" fill="#ffe082" stroke="#464646" stroke-width="0.2"/>
<text x="35.983" y="217.74" font-size="1.87" text-anchor="middle" fill="#141414">65</text>
<circle cx="17.349" cy="271.723" r="1.91" fill="#ffe082" stroke="#464646" stroke-width="0.2"/>
<text x="17.349" y="272.38" font-size="1.87" text-anchor="middle" fill="#141414">66</text>
<circle cx="28.498" cy="226.466" r="1.91" fill="#ffe082" stroke="#464646" stroke-width="0.2"/>
<text x="28.498" y="227.12" font-size="1.87" text-anchor="middle" fill="#141414">67</text>
<circle cx="25.64" cy="269.847" r="1.91" fill="#ffe082" stroke="#464646" stroke-width="0.2"/>
<text x="25.64" y="270.50" font-size="1.87" text-anchor="middle" fill="#141414">68</text>
<circle cx="53.483" cy="258.461" r="3.94" fill="#eaf1fe" stroke="#2e78e6" stroke-width="0.3"/>
<text x="53.483" y="260.00" font-size="4.45" text-anchor="middle" fill="#14306e" font-weight="bold">6</text>
<text x="205.0" y="295.0" font-size="3.2" text-anchor="end" fill="#737373" font-family="sans-serif">1 / 8</text>
</svg>
