<svg xmlns="http://www.w3.org/2000/svg" xmlns:xlink="http://www.w3.org/1999/xlink" width="210.00mm" height="297.00mm" viewBox="0 0 210.00 297.00">
<rect x="0" y="0" width="210.00" height="297.00" fill="#ffffff" stroke="#cccccc" stroke-width="0.2"/>
<polygon points="5.0,27.746 10.533,41.373 54.158,88.473 67.321,95.032" fill="rgb(216,216,216)"/>
<line x1="5.0" y1="27.746" x2="89.327" y2="27.746" stroke="#8c8c8c" stroke-width="0.3" stroke-dasharray="1.2,0.8"/>
<line x1="89.327" y1="27.746" x2="67.321" y2="95.032" stroke="#8c8c8c" stroke-width="0.3" stroke-dasharray="1.2,0.8"/>
<line x1="92.818" y1="93.836" x2="67.321" y2="95.032" stroke="#8c8c8c" stroke-width="0.3" stroke-dasharray="1.2,0.8"/>
<line x1="92.818" y1="93.836" x2="47.442" y2="132.458" stroke="#8c8c8c" stroke-width="0.3" stroke-dasharray="1.2,0.8"/>
<line x1="67.321" y1="95.032" x2="5.0" y2="27.746" stroke="#8c8c8c" stroke-width="0.3" stroke-dasharray="1.2,0.8"/>
<line x1="5.0" y1="27.746" x2="92.527" y2="5.0" stroke="#141414" stroke-width="0.4"/>
<line x1="47.442" y1="132.458" x2="67.321" y2="95.032" stroke="#141414" stroke-width="0.4"/>
<line x1="83.57" y1="141.663" x2="47.442" y2="132.458" stroke="#141414" stroke-width="0.4"/>
<line x1="112.757" y1="133.301" x2="83.57" y2="141.663" stroke="#141414" stroke-width="0.4"/>
<line x1="92.527" y1="5.0" x2="89.327" y2="27.746" stroke="#141414" stroke-width="0.4"/>
<line x1="89.327" y1="27.746" x2="92.818" y2="93.836" stroke="#141414" stroke-width="0.4"/>
<line x1="92.818" y1="93.836" x2="112.757" y2="133.301" stroke="#141414" stroke-width="0.4"/>
<line x1="5.0" y1="27.746" x2="10.533" y2="41.373" stroke="#141414" stroke-width="0.4"/>
<line x1="10.533" y1="41.373" x2="54.158" y2="88.473" stroke="#141414" stroke-width="0.4"/>
<line x1="54.158" y1="88.473" x2="67.321" y2="95.032" stroke="#141414" stroke-width="0.4"/>
<circle cx="34.253" cy="63.156" r="1.67" fill="#ffe082" stroke="#464646" stroke-width="0.2"/>
<text x="34.253" y="63.73" font-size="1.63" text-anchor="middle" fill="#141414">38</text>
<circle cx="58.879" cy="147.763" r="4.6" fill="#eaf1fe" stroke="#2e78e6" stroke-width="0.3"/>
<text x="58.879" y="149.56300000000002" font-size="5.2" text-anchor="middle" fill="#14306e" font-weight="bold">22</text>
<polygon points="54.389,282.175 64.622,282.261 100.226,261.661 105.251,252.746" fill="rgb(216,216,216)"/>
<polygon points="105.251,252.746 109.055,246.079 103.153,220.4 96.821,216.062" fill="rgb(216,216,216)"/>
<polygon points="96.821,216.062 101.487,210.563 99.121,187.358 93.441,182.914" fill="rgb(216,216,216)"/>
<polygon points="20.929,223.939 14.779,215.485 10.202,173.412 14.391,163.834" fill="rgb(216,216,216)"/>
<polygon points="14.391,163.834 23.108,157.136 67.712,149.827 78.111,153.392" fill="rgb(216,216,216)"/>
<polygon points="93.441,182.914 95.757,176.089 85.026,155.424 78.111,153.392" fill="rgb(216,216,216)"/>
<line x1="54.389" y1="282.175" x2="31.179" y2="252.746" stroke="#8c8c8c" stroke-width="0.3" stroke-dasharray="1.2,0.8"/>
<line x1="31.179" y1="252.746" x2="105.251" y2="252.746" stroke="#8c8c8c" stroke-width="0.3" stroke-dasharray="1.2,0.8"/>
<line x1="96.821" y1="216.062" x2="31.179" y2="252.746" stroke="#8c8c8c" stroke-width="0.3" stroke-dasharray="1.2,0.8"/>
<line x1="20.929" y1="223.939" x2="96.821" y2="216.062" stroke="#8c8c8c" stroke-width="0.3" stroke-dasharray="1.2,0.8"/>
<line x1="93.441" y1="182.913" x2="20.929" y2="223.939" stroke="#8c8c8c" stroke-width="0.3" stroke-dasharray="1.2,0.8"/>
<line x1="14.391" y1="163.833" x2="93.441" y2="182.913" stroke="#8c8c8c" stroke-width="0.3" stroke-dasharray="1.2,0.8"/>
<line x1="31.179" y1="252.746" x2="28.772" y2="287.91" stroke="#8c8c8c" stroke-width="0.3" stroke-dasharray="1.2,0.8"/>
<line x1="105.251" y1="252.746" x2="54.389" y2="282.175" stroke="#8c8c8c" stroke-width="0.3" stroke-dasharray="1.2,0.8"/>
<line x1="96.821" y1="216.062" x2="105.251" y2="252.746" stroke="#8c8c8c" stroke-width="0.3" stroke-dasharray="1.2,0.8"/>
<line x1="93.441" y1="182.914" x2="96.821" y2="216.062" stroke="#8c8c8c" stroke-width="0.3" stroke-dasharray="1.2,0.8"/>
<line x1="14.391" y1="163.834" x2="20.929" y2="223.939" stroke="#8c8c8c" stroke-width="0.3" stroke-dasharray="1.2,0.8"/>
<line x1="78.111" y1="153.392" x2="14.391" y2="163.834" stroke="#8c8c8c" stroke-width="0.3" stroke-dasharray="1.2,0.8"/>
<line x1="78.111" y1="153.392" x2="93.441" y2="182.914" stroke="#8c8c8c" stroke-width="0.3" stroke-dasharray="1.2,0.8"/>
<line x1="19.377" y1="233.011" x2="31.179" y2="252.746" stroke="#141414" stroke-width="0.4"/>
<line x1="28.772" y1="287.91" x2="19.377" y2="233.011" stroke="#141414" stroke-width="0.4"/>
<line x1="54.389" y1="282.175" x2="28.772" y2="287.91" stroke="#141414" stroke-width="0.4"/>
<line x1="31.179" y1="252.746" x2="20.929" y2="223.939" stroke="#141414" stroke-width="0.4"/>
<line x1="54.389" y1="282.175" x2="64.622" y2="282.261" stroke="#141414" stroke-width="0.4"/>
<line x1="64.622" y1="282.261" x2="100.226" y2="261.661" stroke="#141414" stroke-width="0.4"/>
<line x1="100.226" y1="261.661" x2="105.251" y2="252.746" stroke="#141414" stroke-width="0.4"/>
<line x1="105.251" y1="252.746" x2="109.055" y2="246.079" stroke="#141414" stroke-width="0.4"/>
<line x1="109.055" y1="246.079" x2="103.153" y2="220.4" stroke="#141414" stroke-width="0.4"/>
<line x1="103.153" y1="220.4" x2="96.821" y2="216.062" stroke="#141414" stroke-width="0.4"/>
<line x1="96.821" y1="216.062" x2="101.487" y2="210.563" stroke="#141414" stroke-width="0.4"/>
<line x1="101.487" y1="210.563" x2="99.121" y2="187.358" stroke="#141414" stroke-width="0.4"/>
<line x1="99.121" y1="187.358" x2="93.441" y2="182.914" stroke="#141414" stroke-width="0.4"/>
<line x1="20.929" y1="223.939" x2="14.779" y2="215.485" stroke="#141414" stroke-width="0.4"/>
<line x1="14.779" y1="215.485" x2="10.202" y2="173.412" stroke="#141414" stroke-width="0.4"/>
<line x1="10.202" y1="173.412" x2="14.391" y2="163.834" stroke="#141414" stroke-width="0.4"/>
<line x1="14.391" y1="163.834" x2="23.108" y2="157.136" stroke="#141414" stroke-width="0.4"/>
<line x1="23.108" y1="157.136" x2="67.712" y2="149.827" stroke="#141414" stroke-width="0.4"/>
<line x1="67.712" y1="149.827" x2="78.111" y2="153.392" stroke="#141414" stroke-width="0.4"/>
<line x1="93.441" y1="182.914" x2="95.757" y2="176.089" stroke="#141414" stroke-width="0.4"/>
<line x1="95.757" y1="176.089" x2="85.026" y2="155.424" stroke="#141414" stroke-width="0.4"/>
<line x1="85.026" y1="155.424" x2="78.111" y2="153.392" stroke="#141414" stroke-width="0.4"/>
<circle cx="81.122" cy="269.711" r="1.67" fill="#ffe082" stroke="#464646" stroke-width="0.2"/>
<text x="81.122" y="270.28" font-size="1.63" text-anchor="middle" fill="#141414">67</text>
<circle cx="103.57" cy="233.822" r="1.67" fill="#ffe082" stroke="#464646" stroke-width="0.2"/>
<text x="103.57" y="234.39" font-size="1.63" text-anchor="middle" fill="#141414">83</text>
<circle cx="97.718" cy="199.224" r="1.67" fill="#ffe082" stroke="#464646" stroke-width="0.2"/>
<text x="97.718" y="199.80" font-size="1.63" text-anchor="middle" fill="#141414">91</text>
<circle cx="15.075" cy="194.167" r="1.67" fill="#ffe082" stroke="#464646" stroke-width="0.2"/>
<text x="15.075" y="194.74" font-size="1.63" text-anchor="middle" fill="#141414">93</text>
<circle cx="45.831" cy="156.047" r="1.67" fill="#ffe082" stroke="#464646" stroke-width="0.2"/>
<text x="45.831" y="156.62" font-size="1.63" text-anchor="middle" fill="#141414">102</text>
<circle cx="88.084" cy="166.955" r="1.67" fill="#ffe082" stroke="#464646" stroke-width="0.2"/>
<text x="88.084" y="167.53" font-size="1.63" text-anchor="middle" fill="#141414">106</text>
<circle cx="54.426" cy="138.563" r="4.6" fill="#eaf1fe" stroke="#2e78e6" stroke-width="0.3"/>
<text x="54.426" y="140.363" font-size="5.2" text-anchor="middle" fill="#14306e" font-weight="bold">23</text>
</svg>
