<svg xmlns="http://www.w3.org/2000/svg" xmlns:xlink="http://www.w3.org/1999/xlink" width="210.00mm" height="297.00mm" viewBox="0 0 210.00 297.00">
<rect x="0" y="0" width="210.00" height="297.00" fill="#ffffff" stroke="#cccccc" stroke-width="0.2"/>
<polygon points="49.727,93.122 44.664,100.122 21.034,100.122 15.97,93.122" fill="rgb(216,216,216)"/>
<polygon points="49.727,65.939 44.664,58.939 21.034,58.939 15.97,65.939" fill="rgb(216,216,216)"/>
<polygon points="71.498,93.122 78.498,89.044 78.498,70.017 71.498,65.939" fill="rgb(216,216,216)"/>
<polygon points="71.498,93.122 78.498,98.185 78.498,121.815 71.498,126.879" fill="rgb(216,216,216)"/>
<polygon points="71.498,65.939 78.498,60.876 78.498,37.246 71.498,32.182" fill="rgb(216,216,216)"/>
<polygon points="15.97,93.122 8.97,89.044 8.97,70.017 15.97,65.939" fill="rgb(216,216,216)"/>
<polygon points="49.727,126.879 52.993,133.879 68.232,133.879 71.498,126.879" fill="rgb(216,216,216)"/>
<polygon points="49.727,93.122 44.664,100.122 21.034,100.122 15.97,93.122" fill="#99d9fa"/>
<line x1="49.727" y1="93.122" x2="49.727" y2="65.939" stroke="#8c8c8c" stroke-width="0.3" stroke-dasharray="1.2,0.8"/>
<line x1="71.498" y1="93.122" x2="49.727" y2="93.122" stroke="#8c8c8c" stroke-width="0.3" stroke-dasharray="1.2,0.8"/>
<line x1="49.727" y1="65.939" x2="71.498" y2="65.939" stroke="#8c8c8c" stroke-width="0.3" stroke-dasharray="1.2,0.8"/>
<line x1="49.727" y1="32.182" x2="71.498" y2="32.182" stroke="#8c8c8c" stroke-width="0.3" stroke-dasharray="1.2,0.8"/>
<line x1="71.498" y1="32.182" x2="71.498" y2="5.0" stroke="#8c8c8c" stroke-width="0.3" stroke-dasharray="1.2,0.8"/>
<line x1="15.97" y1="93.122" x2="49.727" y2="93.122" stroke="#8c8c8c" stroke-width="0.3" stroke-dasharray="1.2,0.8"/>
<line x1="15.97" y1="65.939" x2="49.727" y2="65.939" stroke="#8c8c8c" stroke-width="0.3" stroke-dasharray="1.2,0.8"/>
<line x1="71.498" y1="65.939" x2="71.498" y2="93.122" stroke="#8c8c8c" stroke-width="0.3" stroke-dasharray="1.2,0.8"/>
<line x1="71.498" y1="126.879" x2="71.498" y2="93.122" stroke="#8c8c8c" stroke-width="0.3" stroke-dasharray="1.2,0.8"/>
<line x1="71.498" y1="32.182" x2="71.498" y2="65.939" stroke="#8c8c8c" stroke-width="0.3" stroke-dasharray="1.2,0.8"/>
<line x1="15.97" y1="65.939" x2="15.97" y2="93.122" stroke="#8c8c8c" stroke-width="0.3" stroke-dasharray="1.2,0.8"/>
<line x1="71.498" y1="126.879" x2="49.727" y2="126.879" stroke="#8c8c8c" stroke-width="0.3" stroke-dasharray="1.2,0.8"/>
<line x1="49.727" y1="126.879" x2="49.727" y2="93.122" stroke="#141414" stroke-width="0.4"/>
<line x1="49.727" y1="65.939" x2="49.727" y2="32.182" stroke="#141414" stroke-width="0.4"/>
<line x1="105.255" y1="5.0" x2="105.255" y2="32.182" stroke="#141414" stroke-width="0.4"/>
<line x1="71.498" y1="5.0" x2="105.255" y2="5.0" stroke="#141414" stroke-width="0.4"/>
<line x1="105.255" y1="32.182" x2="71.498" y2="32.182" stroke="#141414" stroke-width="0.4"/>
<line x1="49.727" y1="32.182" x2="49.727" y2="5.0" stroke="#141414" stroke-width="0.4"/>
<line x1="49.727" y1="5.0" x2="71.498" y2="5.0" stroke="#141414" stroke-width="0.4"/>
<line x1="49.727" y1="93.122" x2="44.664" y2="100.122" stroke="#141414" stroke-width="0.4"/>
<line x1="44.664" y1="100.122" x2="21.034" y2="100.122" stroke="#141414" stroke-width="0.4"/>
<line x1="21.034" y1="100.122" x2="15.97" y2="93.122" stroke="#141414" stroke-width="0.4"/>
<line x1="49.727" y1="65.939" x2="44.664" y2="58.939" stroke="#141414" stroke-width="0.4"/>
<line x1="44.664" y1="58.939" x2="21.034" y2="58.939" stroke="#141414" stroke-width="0.4"/>
<line x1="21.034" y1="58.939" x2="15.97" y2="65.939" stroke="#141414" stroke-width="0.4"/>
<line x1="71.498" y1="93.122" x2="78.498" y2="89.044" stroke="#141414" stroke-width="0.4"/>
<line x1="78.498" y1="89.044" x2="78.498" y2="70.017" stroke="#141414" stroke-width="0.4"/>
<line x1="78.498" y1="70.017" x2="71.498" y2="65.939" stroke="#141414" stroke-width="0.4"/>
<line x1="71.498" y1="93.122" x2="78.498" y2="98.185" stroke="#141414" stroke-width="0.4"/>
<line x1="78.498" y1="98.185" x2="78.498" y2="121.815" stroke="#141414" stroke-width="0.4"/>
<line x1="78.498" y1="121.815" x2="71.498" y2="126.879" stroke="#141414" stroke-width="0.4"/>
<line x1="71.498" y1="65.939" x2="78.498" y2="60.876" stroke="#141414" stroke-width="0.4"/>
<line x1="78.498" y1="60.876" x2="78.498" y2="37.246" stroke="#141414" stroke-width="0.4"/>
<line x1="78.498" y1="37.246" x2="71.498" y2="32.182" stroke="#141414" stroke-width="0.4"/>
<line x1="15.97" y1="93.122" x2="8.97" y2="89.044" stroke="#141414" stroke-width="0.4"/>
<line x1="8.97" y1="89.044" x2="8.97" y2="70.017" stroke="#141414" stroke-width="0.4"/>
<line x1="8.97" y1="70.017" x2="15.97" y2="65.939" stroke="#141414" stroke-width="0.4"/>
<line x1="49.727" y1="126.879" x2="52.993" y2="133.879" stroke="#141414" stroke-width="0.4"/>
<line x1="52.993" y1="133.879" x2="68.232" y2="133.879" stroke="#141414" stroke-width="0.4"/>
<line x1="68.232" y1="133.879" x2="71.498" y2="126.879" stroke="#141414" stroke-width="0.4"/>
<circle cx="32.849" cy="96.622" r="2.36" fill="#99d9fa" stroke="#464646" stroke-width="0.2"/>
<text x="32.849" y="97.43" font-size="2.32" text-anchor="middle" fill="#141414">92</text>
<circle cx="32.849" cy="62.439" r="2.36" fill="#ffe082" stroke="#464646" stroke-width="0.2"/>
<text x="32.849" y="63.25" font-size="2.32" text-anchor="middle" fill="#141414">93</text>
<circle cx="74.998" cy="79.53" r="2.36" fill="#ffe082" stroke="#464646" stroke-width="0.2"/>
<text x="74.998" y="80.34" font-size="2.32" text-anchor="middle" fill="#141414">94</text>
<circle cx="74.998" cy="110.0" r="2.36" fill="#ffe082" stroke="#464646" stroke-width="0.2"/>
<text x="74.998" y="110.81" font-size="2.32" text-anchor="middle" fill="#141414">95</text>
<circle cx="74.998" cy="49.061" r="2.36" fill="#ffe082" stroke="#464646" stroke-width="0.2"/>
<text x="74.998" y="49.87" font-size="2.32" text-anchor="middle" fill="#141414">96</text>
<circle cx="12.47" cy="79.53" r="2.36" fill="#ffe082" stroke="#464646" stroke-width="0.2"/>
<text x="12.47" y="80.34" font-size="2.32" text-anchor="middle" fill="#141414">97</text>
<circle cx="60.612" cy="130.379" r="2.36" fill="#ffe082" stroke="#464646" stroke-width="0.2"/>
<text x="60.612" y="131.19" font-size="2.32" text-anchor="middle" fill="#141414">98</text>
<circle cx="64.241" cy="115.626" r="4.60" fill="#eaf1fe" stroke="#2e78e6" stroke-width="0.3"/>
<text x="64.241" y="117.43" font-size="5.20" text-anchor="middle" fill="#14306e" font-weight="bold">10</text>
<polygon points="149.012,93.122 143.948,100.122 120.318,100.122 115.255,93.122" fill="rgb(216,216,216)"/>
<polygon points="149.012,65.939 143.948,58.939 120.318,58.939 115.255,65.939" fill="rgb(216,216,216)"/>
<polygon points="170.782,93.122 177.782,89.044 177.782,70.017 170.782,65.939" fill="rgb(216,216,216)"/>
<polygon points="170.782,93.122 177.782,98.185 177.782,121.815 170.782,126.879" fill="rgb(216,216,216)"/>
<polygon points="170.782,65.939 177.782,60.876 177.782,37.246 170.782,32.182" fill="rgb(216,216,216)"/>
<polygon points="115.255,93.122 108.255,89.044 108.255,70.017 115.255,65.939" fill="rgb(216,216,216)"/>
<polygon points="149.012,126.879 152.277,133.879 167.517,133.879 170.782,126.879" fill="rgb(216,216,216)"/>
<polygon points="149.012,93.122 143.948,100.122 120.318,100.122 115.255,93.122" fill="#99d9fa"/>
<line x1="149.012" y1="93.122" x2="149.012" y2="65.939" stroke="#8c8c8c" stroke-width="0.3" stroke-dasharray="1.2,0.8"/>
<line x1="170.782" y1="93.122" x2="149.012" y2="93.122" stroke="#8c8c8c" stroke-width="0.3" stroke-dasharray="1.2,0.8"/>
<line x1="149.012" y1="65.939" x2="170.782" y2="65.939" stroke="#8c8c8c" stroke-width="0.3" stroke-dasharray="1.2,0.8"/>
<line x1="149.012" y1="32.182" x2="170.782" y2="32.182" stroke="#8c8c8c" stroke-width="0.3" stroke-dasharray="1.2,0.8"/>
<line x1="170.782" y1="32.182" x2="170.782" y2="5.0" stroke="#8c8c8c" stroke-width="0.3" stroke-dasharray="1.2,0.8"/>
<line x1="115.255" y1="93.122" x2="149.012" y2="93.122" stroke="#8c8c8c" stroke-width="0.3" stroke-dasharray="1.2,0.8"/>
<line x1="115.255" y1="65.939" x2="149.012" y2="65.939" stroke="#8c8c8c" stroke-width="0.3" stroke-dasharray="1.2,0.8"/>
<line x1="170.782" y1="65.939" x2="170.782" y2="93.122" stroke="#8c8c8c" stroke-width="0.3" stroke-dasharray="1.2,0.8"/>
<line x1="170.782" y1="126.879" x2="170.782" y2="93.122" stroke="#8c8c8c" stroke-width="0.3" stroke-dasharray="1.2,0.8"/>
<line x1="170.782" y1="32.182" x2="170.782" y2="65.939" stroke="#8c8c8c" stroke-width="0.3" stroke-dasharray="1.2,0.8"/>
<line x1="115.255" y1="65.939" x2="115.255" y2="93.122" stroke="#8c8c8c" stroke-width="0.3" stroke-dasharray="1.2,0.8"/>
<line x1="170.782" y1="126.879" x2="149.012" y2="126.879" stroke="#8c8c8c" stroke-width="0.3" stroke-dasharray="1.2,0.8"/>
<line x1="149.012" y1="126.879" x2="149.012" y2="93.122" stroke="#141414" stroke-width="0.4"/>
<line x1="149.012" y1="65.939" x2="149.012" y2="32.182" stroke="#141414" stroke-width="0.4"/>
<line x1="204.539" y1="5.0" x2="204.539" y2="32.182" stroke="#141414" stroke-width="0.4"/>
<line x1="170.782" y1="5.0" x2="204.539" y2="5.0" stroke="#141414" stroke-width="0.4"/>
<line x1="204.539" y1="32.182" x2="170.782" y2="32.182" stroke="#141414" stroke-width="0.4"/>
<line x1="149.012" y1="32.182" x2="149.012" y2="5.0" stroke="#141414" stroke-width="0.4"/>
<line x1="149.012" y1="5.0" x2="170.782" y2="5.0" stroke="#141414" stroke-width="0.4"/>
<line x1="149.012" y1="93.122" x2="143.948" y2="100.122" stroke="#141414" stroke-width="0.4"/>
<line x1="143.948" y1="100.122" x2="120.318" y2="100.122" stroke="#141414" stroke-width="0.4"/>
<line x1="120.318" y1="100.122" x2="115.255" y2="93.122" stroke="#141414" stroke-width="0.4"/>
<line x1="149.012" y1="65.939" x2="143.948" y2="58.939" stroke="#141414" stroke-width="0.4"/>
<line x1="143.948" y1="58.939" x2="120.318" y2="58.939" stroke="#141414" stroke-width="0.4"/>
<line x1="120.318" y1="58.939" x2="115.255" y2="65.939" stroke="#141414" stroke-width="0.4"/>
<line x1="170.782" y1="93.122" x2="177.782" y2="89.044" stroke="#141414" stroke-width="0.4"/>
<line x1="177.782" y1="89.044" x2="177.782" y2="70.017" stroke="#141414" stroke-width="0.4"/>
<line x1="177.782" y1="70.017" x2="170.782" y2="65.939" stroke="#141414" stroke-width="0.4"/>
<line x1="170.782" y1="93.122" x2="177.782" y2="98.185" stroke="#141414" stroke-width="0.4"/>
<line x1="177.782" y1="98.185" x2="177.782" y2="121.815" stroke="#141414" stroke-width="0.4"/>
<line x1="177.782" y1="121.815" x2="170.782" y2="126.879" stroke="#141414" stroke-width="0.4"/>
<line x1="170.782" y1="65.939" x2="177.782" y2="60.876" stroke="#141414" stroke-width="0.4"/>
<line x1="177.782" y1="60.876" x2="177.782" y2="37.246" stroke="#141414" stroke-width="0.4"/>
<line x1="177.782" y1="37.246" x2="170.782" y2="32.182" stroke="#141414" stroke-width="0.4"/>
<line x1="115.255" y1="93.122" x2="108.255" y2="89.044" stroke="#141414" stroke-width="0.4"/>
<line x1="108.255" y1="89.044" x2="108.255" y2="70.017" stroke="#141414" stroke-width="0.4"/>
<line x1="108.255" y1="70.017" x2="115.255" y2="65.939" stroke="#141414" stroke-width="0.4"/>
<line x1="149.012" y1="126.879" x2="152.277" y2="133.879" stroke="#141414" stroke-width="0.4"/>
<line x1="152.277" y1="133.879" x2="167.517" y2="133.879" stroke="#141414" stroke-width="0.4"/>
<line x1="167.517" y1="133.879" x2="170.782" y2="126.879" stroke="#141414" stroke-width="0.4"/>
<circle cx="132.133" cy="96.622" r="2.36" fill="#99d9fa" stroke="#464646" stroke-width="0.2"/>
<text x="132.133" y="97.43" font-size="2.32" text-anchor="middle" fill="#141414">99</text>
<circle cx="132.133" cy="62.439" r="2.36" fill="#ffe082" stroke="#464646" stroke-width="0.2"/>
<text x="132.133" y="63.25" font-size="2.32" text-anchor="middle" fill="#141414">100</text>
<circle cx="174.282" cy="79.53" r="2.36" fill="#ffe082" stroke="#464646" stroke-width="0.2"/>
<text x="174.282" y="80.34" font-size="2.32" text-anchor="middle" fill="#141414">101</text>
<circle cx="174.282" cy="110.0" r="2.36" fill="#ffe082" stroke="#464646" stroke-width="0.2"/>
<text x="174.282" y="110.81" font-size="2.32" text-anchor="middle" fill="#141414">102</text>
<circle cx="174.282" cy="49.061" r="2.36" fill="#ffe082" stroke="#464646" stroke-width="0.2"/>
<text x="174.282" y="49.87" font-size="2.32" text-anchor="middle" fill="#141414">103</text>
<circle cx="111.755" cy="79.53" r="2.36" fill="#ffe082" stroke="#464646" stroke-width="0.2"/>
<text x="111.755" y="80.34" font-size="2.32" text-anchor="middle" fill="#141414">104</text>
<circle cx="159.897" cy="130.379" r="2.36" fill="#ffe082" stroke="#464646" stroke-width="0.2"/>
<text x="159.897" y="131.19" font-size="2.32" text-anchor="middle" fill="#141414">105</text>
<circle cx="163.525" cy="115.626" r="4.60" fill="#eaf1fe" stroke="#2e78e6" stroke-width="0.3"/>
<text x="163.525" y="117.43" font-size="5.20" text-anchor="middle" fill="#14306e" font-weight="bold">11</text>
<polygon points="76.634,155.827 73.659,148.902 82.875,139.686 89.8,142.661" fill="rgb(216,216,216)"/>
<polygon points="24.435,206.051 21.756,213.272 32.355,223.871 39.575,221.192" fill="rgb(216,216,216)"/>
<polygon points="24.435,206.051 17.116,208.45 6.934,197.451 9.889,190.338" fill="rgb(216,216,216)"/>
<polygon points="89.8,168.992 96.725,171.967 105.941,162.751 102.966,155.827" fill="rgb(216,216,216)"/>
<polygon points="39.575,221.192 37.177,228.511 48.176,238.692 55.288,235.738" fill="rgb(216,216,216)"/>
<polygon points="102.966,155.827 105.941,148.902 96.725,139.686 89.8,142.661" fill="rgb(216,216,216)"/>
<polygon points="117.604,193.753 116.099,206.59 83.861,245.73 71.55,249.667" fill="rgb(216,216,216)"/>
<polygon points="76.634,155.827 73.659,148.902 82.875,139.686 89.8,142.661" fill="#99d9fa"/>
<line x1="24.435" y1="206.051" x2="76.634" y2="155.827" stroke="#8c8c8c" stroke-width="0.3" stroke-dasharray="1.2,0.8"/>
<line x1="89.8" y1="168.992" x2="76.634" y2="155.827" stroke="#8c8c8c" stroke-width="0.3" stroke-dasharray="1.2,0.8"/>
<line x1="89.8" y1="168.992" x2="39.575" y2="221.192" stroke="#8c8c8c" stroke-width="0.3" stroke-dasharray="1.2,0.8"/>
<line x1="103.463" y1="181.641" x2="55.288" y2="235.738" stroke="#8c8c8c" stroke-width="0.3" stroke-dasharray="1.2,0.8"/>
<line x1="71.55" y1="249.667" x2="55.288" y2="235.738" stroke="#8c8c8c" stroke-width="0.3" stroke-dasharray="1.2,0.8"/>
<line x1="89.8" y1="142.661" x2="76.634" y2="155.827" stroke="#8c8c8c" stroke-width="0.3" stroke-dasharray="1.2,0.8"/>
<line x1="39.575" y1="221.192" x2="24.435" y2="206.051" stroke="#8c8c8c" stroke-width="0.3" stroke-dasharray="1.2,0.8"/>
<line x1="9.889" y1="190.338" x2="24.435" y2="206.051" stroke="#8c8c8c" stroke-width="0.3" stroke-dasharray="1.2,0.8"/>
<line x1="102.966" y1="155.827" x2="89.8" y2="168.992" stroke="#8c8c8c" stroke-width="0.3" stroke-dasharray="1.2,0.8"/>
<line x1="55.288" y1="235.738" x2="39.575" y2="221.192" stroke="#8c8c8c" stroke-width="0.3" stroke-dasharray="1.2,0.8"/>
<line x1="89.8" y1="142.661" x2="102.966" y2="155.827" stroke="#8c8c8c" stroke-width="0.3" stroke-dasharray="1.2,0.8"/>
<line x1="71.55" y1="249.667" x2="117.604" y2="193.753" stroke="#8c8c8c" stroke-width="0.3" stroke-dasharray="1.2,0.8"/>
<line x1="63.986" y1="142.163" x2="76.634" y2="155.827" stroke="#141414" stroke-width="0.4"/>
<line x1="57.621" y1="265.929" x2="41.359" y2="252.0" stroke="#141414" stroke-width="0.4"/>
<line x1="71.55" y1="249.667" x2="57.621" y2="265.929" stroke="#141414" stroke-width="0.4"/>
<line x1="89.8" y1="168.992" x2="103.463" y2="181.641" stroke="#141414" stroke-width="0.4"/>
<line x1="41.359" y1="252.0" x2="55.288" y2="235.738" stroke="#141414" stroke-width="0.4"/>
<line x1="103.463" y1="181.641" x2="117.604" y2="193.753" stroke="#141414" stroke-width="0.4"/>
<line x1="9.889" y1="190.338" x2="63.986" y2="142.163" stroke="#141414" stroke-width="0.4"/>
<line x1="76.634" y1="155.827" x2="73.659" y2="148.902" stroke="#141414" stroke-width="0.4"/>
<line x1="73.659" y1="148.902" x2="82.875" y2="139.686" stroke="#141414" stroke-width="0.4"/>
<line x1="82.875" y1="139.686" x2="89.8" y2="142.661" stroke="#141414" stroke-width="0.4"/>
<line x1="24.435" y1="206.051" x2="21.756" y2="213.272" stroke="#141414" stroke-width="0.4"/>
<line x1="21.756" y1="213.272" x2="32.355" y2="223.871" stroke="#141414" stroke-width="0.4"/>
<line x1="32.355" y1="223.871" x2="39.575" y2="221.192" stroke="#141414" stroke-width="0.4"/>
<line x1="24.435" y1="206.051" x2="17.116" y2="208.45" stroke="#141414" stroke-width="0.4"/>
<line x1="17.116" y1="208.45" x2="6.934" y2="197.451" stroke="#141414" stroke-width="0.4"/>
<line x1="6.934" y1="197.451" x2="9.889" y2="190.338" stroke="#141414" stroke-width="0.4"/>
<line x1="89.8" y1="168.992" x2="96.725" y2="171.967" stroke="#141414" stroke-width="0.4"/>
<line x1="96.725" y1="171.967" x2="105.941" y2="162.751" stroke="#141414" stroke-width="0.4"/>
<line x1="105.941" y1="162.751" x2="102.966" y2="155.827" stroke="#141414" stroke-width="0.4"/>
<line x1="39.575" y1="221.192" x2="37.177" y2="228.511" stroke="#141414" stroke-width="0.4"/>
<line x1="37.177" y1="228.511" x2="48.176" y2="238.692" stroke="#141414" stroke-width="0.4"/>
<line x1="48.176" y1="238.692" x2="55.288" y2="235.738" stroke="#141414" stroke-width="0.4"/>
<line x1="102.966" y1="155.827" x2="105.941" y2="148.902" stroke="#141414" stroke-width="0.4"/>
<line x1="105.941" y1="148.902" x2="96.725" y2="139.686" stroke="#141414" stroke-width="0.4"/>
<line x1="96.725" y1="139.686" x2="89.8" y2="142.661" stroke="#141414" stroke-width="0.4"/>
<line x1="117.604" y1="193.753" x2="116.099" y2="206.59" stroke="#141414" stroke-width="0.4"/>
<line x1="116.099" y1="206.59" x2="83.861" y2="245.73" stroke="#141414" stroke-width="0.4"/>
<line x1="83.861" y1="245.73" x2="71.55" y2="249.667" stroke="#141414" stroke-width="0.4"/>
<circle cx="80.742" cy="146.769" r="2.36" fill="#99d9fa" stroke="#464646" stroke-width="0.2"/>
<text x="80.742" y="147.58" font-size="2.32" text-anchor="middle" fill="#141414">113</text>
<circle cx="29.53" cy="216.096" r="2.36" fill="#ffe082" stroke="#464646" stroke-width="0.2"/>
<text x="29.53" y="216.91" font-size="2.32" text-anchor="middle" fill="#141414">114</text>
<circle cx="14.593" cy="200.572" r="2.36" fill="#ffe082" stroke="#464646" stroke-width="0.2"/>
<text x="14.593" y="201.38" font-size="2.32" text-anchor="middle" fill="#141414">115</text>
<circle cx="98.858" cy="164.884" r="2.36" fill="#ffe082" stroke="#464646" stroke-width="0.2"/>
<text x="98.858" y="165.69" font-size="2.32" text-anchor="middle" fill="#141414">116</text>
<circle cx="45.054" cy="231.033" r="2.36" fill="#ffe082" stroke="#464646" stroke-width="0.2"/>
<text x="45.054" y="231.84" font-size="2.32" text-anchor="middle" fill="#141414">117</text>
<circle cx="98.858" cy="146.769" r="2.36" fill="#ffe082" stroke="#464646" stroke-width="0.2"/>
<text x="98.858" y="147.58" font-size="2.32" text-anchor="middle" fill="#141414">118</text>
<circle cx="97.279" cy="223.935" r="2.36" fill="#ffe082" stroke="#464646" stroke-width="0.2"/>
<text x="97.279" y="224.75" font-size="2.32" text-anchor="middle" fill="#141414">119</text>
<circle cx="51.27" cy="198.745" r="4.60" fill="#eaf1fe" stroke="#2e78e6" stroke-width="0.3"/>
<text x="51.27" y="200.55" font-size="5.20" text-anchor="middle" fill="#14306e" font-weight="bold">13</text>
<text x="205.0" y="295.0" font-size="3.2" text-anchor="end" fill="#737373" font-family="sans-serif">6 / 8</text>
</svg>
