<svg xmlns="http://www.w3.org/2000/svg" xmlns:xlink="http://www.w3.org/1999/xlink" width="210.00mm" height="297.00mm" viewBox="0 0 210.00 297.00">
<rect x="0" y="0" width="210.00" height="297.00" fill="#ffffff" stroke="#cccccc" stroke-width="0.2"/>
<polygon points="131.942,120.376 114.801,128.365 31.0,141.679 12.227,139.397" fill="rgb(216,216,216)"/>
<polygon points="52.259,120.376 55.367,98.52 58.392,90.927 71.162,72.92" fill="rgb(216,216,216)"/>
<polygon points="52.259,120.376 44.022,118.532 16.0,131.847 12.227,139.397" fill="rgb(216,216,216)"/>
<polygon points="30.541,66.502 26.943,73.763 33.744,101.962 40.256,106.785" fill="rgb(216,216,216)"/>
<line x1="52.259" y1="120.376" x2="131.942" y2="120.376" stroke="#8c8c8c" stroke-width="0.3" stroke-dasharray="1.2,0.8"/>
<line x1="52.259" y1="120.376" x2="139.551" y2="88.223" stroke="#8c8c8c" stroke-width="0.3" stroke-dasharray="1.2,0.8"/>
<line x1="71.162" y1="72.92" x2="139.551" y2="88.223" stroke="#8c8c8c" stroke-width="0.3" stroke-dasharray="1.2,0.8"/>
<line x1="108.01" y1="60.748" x2="71.162" y2="72.92" stroke="#8c8c8c" stroke-width="0.3" stroke-dasharray="1.2,0.8"/>
<line x1="30.541" y1="66.502" x2="108.01" y2="60.748" stroke="#8c8c8c" stroke-width="0.3" stroke-dasharray="1.2,0.8"/>
<line x1="30.541" y1="66.502" x2="59.258" y2="23.545" stroke="#8c8c8c" stroke-width="0.3" stroke-dasharray="1.2,0.8"/>
<line x1="12.227" y1="139.397" x2="131.942" y2="120.376" stroke="#8c8c8c" stroke-width="0.3" stroke-dasharray="1.2,0.8"/>
<line x1="71.162" y1="72.92" x2="52.259" y2="120.376" stroke="#8c8c8c" stroke-width="0.3" stroke-dasharray="1.2,0.8"/>
<line x1="12.227" y1="139.397" x2="52.259" y2="120.376" stroke="#8c8c8c" stroke-width="0.3" stroke-dasharray="1.2,0.8"/>
<line x1="40.256" y1="106.785" x2="30.541" y2="66.502" stroke="#8c8c8c" stroke-width="0.3" stroke-dasharray="1.2,0.8"/>
<line x1="139.551" y1="88.223" x2="131.942" y2="120.376" stroke="#141414" stroke-width="0.4"/>
<line x1="108.01" y1="60.748" x2="139.551" y2="88.223" stroke="#141414" stroke-width="0.4"/>
<line x1="59.258" y1="23.545" x2="108.01" y2="60.748" stroke="#141414" stroke-width="0.4"/>
<line x1="71.162" y1="72.92" x2="40.256" y2="106.785" stroke="#141414" stroke-width="0.4"/>
<line x1="30.541" y1="66.502" x2="5.0" y2="5.0" stroke="#141414" stroke-width="0.4"/>
<line x1="5.0" y1="5.0" x2="59.258" y2="23.545" stroke="#141414" stroke-width="0.4"/>
<line x1="131.942" y1="120.376" x2="114.801" y2="128.365" stroke="#141414" stroke-width="0.4"/>
<line x1="114.801" y1="128.365" x2="31.0" y2="141.679" stroke="#141414" stroke-width="0.4"/>
<line x1="31.0" y1="141.679" x2="12.227" y2="139.397" stroke="#141414" stroke-width="0.4"/>
<line x1="52.259" y1="120.376" x2="55.367" y2="98.52" stroke="#141414" stroke-width="0.4"/>
<line x1="55.367" y1="98.52" x2="58.392" y2="90.927" stroke="#141414" stroke-width="0.4"/>
<line x1="58.392" y1="90.927" x2="71.162" y2="72.92" stroke="#141414" stroke-width="0.4"/>
<line x1="52.259" y1="120.376" x2="44.022" y2="118.532" stroke="#141414" stroke-width="0.4"/>
<line x1="44.022" y1="118.532" x2="16.0" y2="131.847" stroke="#141414" stroke-width="0.4"/>
<line x1="16.0" y1="131.847" x2="12.227" y2="139.397" stroke="#141414" stroke-width="0.4"/>
<line x1="30.541" y1="66.502" x2="26.943" y2="73.763" stroke="#141414" stroke-width="0.4"/>
<line x1="26.943" y1="73.763" x2="33.744" y2="101.962" stroke="#141414" stroke-width="0.4"/>
<line x1="33.744" y1="101.962" x2="40.256" y2="106.785" stroke="#141414" stroke-width="0.4"/>
<circle cx="72.492" cy="132.454" r="2.29" fill="#ffe082" stroke="#464646" stroke-width="0.2"/>
<text x="72.492" y="133.54" font-size="3.11" text-anchor="middle" fill="#141414">9</text>
<circle cx="59.295" cy="95.686" r="2.29" fill="#ffe082" stroke="#464646" stroke-width="0.2"/>
<text x="59.295" y="96.77" font-size="3.11" text-anchor="middle" fill="#141414">23</text>
<circle cx="31.127" cy="127.538" r="2.29" fill="#ffe082" stroke="#464646" stroke-width="0.2"/>
<text x="31.127" y="128.62" font-size="3.11" text-anchor="middle" fill="#141414">24</text>
<circle cx="32.871" cy="87.253" r="2.29" fill="#ffe082" stroke="#464646" stroke-width="0.2"/>
<text x="32.871" y="88.34" font-size="3.11" text-anchor="middle" fill="#141414">36</text>
<circle cx="87.657" cy="93.84" r="4.60" fill="#eaf1fe" stroke="#2e78e6" stroke-width="0.3"/>
<text x="87.657" y="95.64" font-size="5.20" text-anchor="middle" fill="#14306e" font-weight="bold">12</text>
<text x="205.0" y="295.0" font-size="3.2" text-anchor="end" fill="#737373" font-family="sans-serif">9 / 11</text>
<g pointer-events="none"><text x="105.0" y="83.2" text-anchor="middle" font-family="sans-serif" font-size="12.4" fill="#9aa0a6" fill-opacity="0.3" transform="rotate(-28 105.0 83.2)">papercraft.kr</text><text x="105.0" y="148.5" text-anchor="middle" font-family="sans-serif" font-size="12.4" fill="#9aa0a6" fill-opacity="0.3" transform="rotate(-28 105.0 148.5)">papercraft.kr</text><text x="105.0" y="213.8" text-anchor="middle" font-family="sans-serif" font-size="12.4" fill="#9aa0a6" fill-opacity="0.3" transform="rotate(-28 105.0 213.8)">papercraft.kr</text></g></svg>
