<svg xmlns="http://www.w3.org/2000/svg" xmlns:xlink="http://www.w3.org/1999/xlink" width="210.00mm" height="297.00mm" viewBox="0 0 210.00 297.00">
<rect x="0" y="0" width="210.00" height="297.00" fill="#ffffff" stroke="#cccccc" stroke-width="0.2"/>
<polygon points="84.173,136.658 105.108,131.458 133.02,131.458 153.955,136.658" fill="rgb(216,216,216)"/>
<polygon points="84.173,136.658 81.582,145.729 92.63,180.761 99.957,186.704" fill="rgb(216,216,216)"/>
<polygon points="99.957,186.704 108.646,192.529 150.9,195.507 160.32,190.958" fill="rgb(216,216,216)"/>
<polygon points="80.027,99.508 79.16,115.529 52.617,181.199 42.108,193.323" fill="rgb(216,216,216)"/>
<polygon points="42.108,193.323 32.931,191.254 7.639,164.819 5.977,155.56" fill="rgb(216,216,216)"/>
<line x1="153.955" y1="136.658" x2="154.518" y2="5.0" stroke="#8c8c8c" stroke-width="0.3" stroke-dasharray="1.2,0.8"/>
<line x1="153.955" y1="136.658" x2="99.957" y2="186.704" stroke="#8c8c8c" stroke-width="0.3" stroke-dasharray="1.2,0.8"/>
<line x1="153.955" y1="136.658" x2="84.173" y2="136.658" stroke="#8c8c8c" stroke-width="0.3" stroke-dasharray="1.2,0.8"/>
<line x1="99.957" y1="186.704" x2="84.173" y2="136.658" stroke="#8c8c8c" stroke-width="0.3" stroke-dasharray="1.2,0.8"/>
<line x1="160.32" y1="190.958" x2="99.957" y2="186.704" stroke="#8c8c8c" stroke-width="0.3" stroke-dasharray="1.2,0.8"/>
<line x1="42.108" y1="193.323" x2="80.027" y2="99.508" stroke="#8c8c8c" stroke-width="0.3" stroke-dasharray="1.2,0.8"/>
<line x1="5.977" y1="155.56" x2="42.108" y2="193.323" stroke="#8c8c8c" stroke-width="0.3" stroke-dasharray="1.2,0.8"/>
<line x1="154.518" y1="5.0" x2="168.415" y2="102.704" stroke="#141414" stroke-width="0.4"/>
<line x1="59.482" y1="83.874" x2="154.518" y2="5.0" stroke="#141414" stroke-width="0.4"/>
<line x1="168.415" y1="102.704" x2="160.32" y2="190.958" stroke="#141414" stroke-width="0.4"/>
<line x1="153.955" y1="136.658" x2="80.027" y2="99.508" stroke="#141414" stroke-width="0.4"/>
<line x1="5.977" y1="155.56" x2="59.482" y2="83.874" stroke="#141414" stroke-width="0.4"/>
<line x1="84.173" y1="136.658" x2="105.108" y2="131.458" stroke="#141414" stroke-width="0.4"/>
<line x1="105.108" y1="131.458" x2="133.02" y2="131.458" stroke="#141414" stroke-width="0.4"/>
<line x1="133.02" y1="131.458" x2="153.955" y2="136.658" stroke="#141414" stroke-width="0.4"/>
<line x1="84.173" y1="136.658" x2="81.582" y2="145.729" stroke="#141414" stroke-width="0.4"/>
<line x1="81.582" y1="145.729" x2="92.63" y2="180.761" stroke="#141414" stroke-width="0.4"/>
<line x1="92.63" y1="180.761" x2="99.957" y2="186.704" stroke="#141414" stroke-width="0.4"/>
<line x1="99.957" y1="186.704" x2="108.646" y2="192.529" stroke="#141414" stroke-width="0.4"/>
<line x1="108.646" y1="192.529" x2="150.9" y2="195.507" stroke="#141414" stroke-width="0.4"/>
<line x1="150.9" y1="195.507" x2="160.32" y2="190.958" stroke="#141414" stroke-width="0.4"/>
<line x1="80.027" y1="99.508" x2="79.16" y2="115.529" stroke="#141414" stroke-width="0.4"/>
<line x1="79.16" y1="115.529" x2="52.617" y2="181.199" stroke="#141414" stroke-width="0.4"/>
<line x1="52.617" y1="181.199" x2="42.108" y2="193.323" stroke="#141414" stroke-width="0.4"/>
<line x1="42.108" y1="193.323" x2="32.931" y2="191.254" stroke="#141414" stroke-width="0.4"/>
<line x1="32.931" y1="191.254" x2="7.639" y2="164.819" stroke="#141414" stroke-width="0.4"/>
<line x1="7.639" y1="164.819" x2="5.977" y2="155.56" stroke="#141414" stroke-width="0.4"/>
<circle cx="119.064" cy="134.058" r="2.29" fill="#ffe082" stroke="#464646" stroke-width="0.2"/>
<text x="119.064" y="135.14" font-size="3.11" text-anchor="middle" fill="#141414">17</text>
<circle cx="89.586" cy="162.463" r="2.29" fill="#ffe082" stroke="#464646" stroke-width="0.2"/>
<text x="89.586" y="163.55" font-size="3.11" text-anchor="middle" fill="#141414">18</text>
<circle cx="129.956" cy="191.425" r="2.29" fill="#ffe082" stroke="#464646" stroke-width="0.2"/>
<text x="129.956" y="192.51" font-size="3.11" text-anchor="middle" fill="#141414">22</text>
<circle cx="63.478" cy="147.39" r="2.29" fill="#ffe082" stroke="#464646" stroke-width="0.2"/>
<text x="63.478" y="148.48" font-size="3.11" text-anchor="middle" fill="#141414">29</text>
<circle cx="22.164" cy="176.239" r="2.29" fill="#ffe082" stroke="#464646" stroke-width="0.2"/>
<text x="22.164" y="177.33" font-size="3.11" text-anchor="middle" fill="#141414">34</text>
<circle cx="129.5" cy="80.389" r="4.60" fill="#eaf1fe" stroke="#2e78e6" stroke-width="0.3"/>
<text x="129.5" y="82.19" font-size="5.20" text-anchor="middle" fill="#14306e" font-weight="bold">1</text>
<text x="205.0" y="295.0" font-size="3.2" text-anchor="end" fill="#737373" font-family="sans-serif">1 / 11</text>
<g pointer-events="none"><text x="105.0" y="83.2" text-anchor="middle" font-family="sans-serif" font-size="12.4" fill="#9aa0a6" fill-opacity="0.3" transform="rotate(-28 105.0 83.2)">papercraft.kr</text><text x="105.0" y="148.5" text-anchor="middle" font-family="sans-serif" font-size="12.4" fill="#9aa0a6" fill-opacity="0.3" transform="rotate(-28 105.0 148.5)">papercraft.kr</text><text x="105.0" y="213.8" text-anchor="middle" font-family="sans-serif" font-size="12.4" fill="#9aa0a6" fill-opacity="0.3" transform="rotate(-28 105.0 213.8)">papercraft.kr</text></g></svg>
