<svg xmlns="http://www.w3.org/2000/svg" xmlns:xlink="http://www.w3.org/1999/xlink" width="210.00mm" height="297.00mm" viewBox="0 0 210.00 297.00">
<rect x="0" y="0" width="210.00" height="297.00" fill="#ffffff" stroke="#cccccc" stroke-width="0.2"/>
<polygon points="119.944,227.016 129.763,210.669 152.162,128.036 151.943,108.968" fill="rgb(216,216,216)"/>
<polygon points="87.49,124.221 78.616,126.323 55.264,152.338 54.13,161.386" fill="rgb(216,216,216)"/>
<polygon points="151.943,108.968 152.648,100.031 135.123,70.806 126.908,67.218" fill="rgb(216,216,216)"/>
<polygon points="6.014,106.356 7.537,97.659 31.497,74.535 40.242,73.322" fill="rgb(216,216,216)"/>
<polygon points="126.908,67.218 128.205,56.031 111.584,12.479 103.164,5.0" fill="rgb(216,216,216)"/>
<line x1="40.242" y1="73.322" x2="87.49" y2="124.221" stroke="#8c8c8c" stroke-width="0.3" stroke-dasharray="1.2,0.8"/>
<line x1="87.49" y1="124.221" x2="74.112" y2="47.134" stroke="#8c8c8c" stroke-width="0.3" stroke-dasharray="1.2,0.8"/>
<line x1="74.112" y1="47.134" x2="126.908" y2="67.218" stroke="#8c8c8c" stroke-width="0.3" stroke-dasharray="1.2,0.8"/>
<line x1="87.49" y1="166.989" x2="87.49" y2="124.221" stroke="#8c8c8c" stroke-width="0.3" stroke-dasharray="1.2,0.8"/>
<line x1="87.49" y1="124.221" x2="119.944" y2="227.016" stroke="#8c8c8c" stroke-width="0.3" stroke-dasharray="1.2,0.8"/>
<line x1="87.49" y1="124.221" x2="126.908" y2="67.218" stroke="#8c8c8c" stroke-width="0.3" stroke-dasharray="1.2,0.8"/>
<line x1="151.943" y1="108.968" x2="119.944" y2="227.016" stroke="#8c8c8c" stroke-width="0.3" stroke-dasharray="1.2,0.8"/>
<line x1="54.13" y1="161.386" x2="87.49" y2="124.221" stroke="#8c8c8c" stroke-width="0.3" stroke-dasharray="1.2,0.8"/>
<line x1="126.908" y1="67.218" x2="151.943" y2="108.968" stroke="#8c8c8c" stroke-width="0.3" stroke-dasharray="1.2,0.8"/>
<line x1="40.242" y1="73.322" x2="6.014" y2="106.356" stroke="#8c8c8c" stroke-width="0.3" stroke-dasharray="1.2,0.8"/>
<line x1="103.164" y1="5.0" x2="126.908" y2="67.218" stroke="#8c8c8c" stroke-width="0.3" stroke-dasharray="1.2,0.8"/>
<line x1="119.944" y1="227.016" x2="87.49" y2="166.989" stroke="#141414" stroke-width="0.4"/>
<line x1="87.49" y1="166.989" x2="54.13" y2="161.387" stroke="#141414" stroke-width="0.4"/>
<line x1="87.49" y1="124.221" x2="6.014" y2="106.356" stroke="#141414" stroke-width="0.4"/>
<line x1="40.242" y1="73.322" x2="74.112" y2="47.134" stroke="#141414" stroke-width="0.4"/>
<line x1="74.112" y1="47.134" x2="103.165" y2="5.0" stroke="#141414" stroke-width="0.4"/>
<line x1="119.944" y1="227.016" x2="129.763" y2="210.669" stroke="#141414" stroke-width="0.4"/>
<line x1="129.763" y1="210.669" x2="152.162" y2="128.036" stroke="#141414" stroke-width="0.4"/>
<line x1="152.162" y1="128.036" x2="151.943" y2="108.968" stroke="#141414" stroke-width="0.4"/>
<line x1="87.49" y1="124.221" x2="78.616" y2="126.323" stroke="#141414" stroke-width="0.4"/>
<line x1="78.616" y1="126.323" x2="55.264" y2="152.338" stroke="#141414" stroke-width="0.4"/>
<line x1="55.264" y1="152.338" x2="54.13" y2="161.386" stroke="#141414" stroke-width="0.4"/>
<line x1="151.943" y1="108.968" x2="152.648" y2="100.031" stroke="#141414" stroke-width="0.4"/>
<line x1="152.648" y1="100.031" x2="135.123" y2="70.806" stroke="#141414" stroke-width="0.4"/>
<line x1="135.123" y1="70.806" x2="126.908" y2="67.218" stroke="#141414" stroke-width="0.4"/>
<line x1="6.014" y1="106.356" x2="7.537" y2="97.659" stroke="#141414" stroke-width="0.4"/>
<line x1="7.537" y1="97.659" x2="31.497" y2="74.535" stroke="#141414" stroke-width="0.4"/>
<line x1="31.497" y1="74.535" x2="40.242" y2="73.322" stroke="#141414" stroke-width="0.4"/>
<line x1="126.908" y1="67.218" x2="128.205" y2="56.031" stroke="#141414" stroke-width="0.4"/>
<line x1="128.205" y1="56.031" x2="111.584" y2="12.479" stroke="#141414" stroke-width="0.4"/>
<line x1="111.584" y1="12.479" x2="103.164" y2="5.0" stroke="#141414" stroke-width="0.4"/>
<circle cx="138.453" cy="168.672" r="2.29" fill="#ffe082" stroke="#464646" stroke-width="0.2"/>
<text x="138.453" y="169.76" font-size="3.11" text-anchor="middle" fill="#141414">5</text>
<circle cx="68.875" cy="141.067" r="2.29" fill="#ffe082" stroke="#464646" stroke-width="0.2"/>
<text x="68.875" y="142.15" font-size="3.11" text-anchor="middle" fill="#141414">13</text>
<circle cx="141.656" cy="86.756" r="2.29" fill="#ffe082" stroke="#464646" stroke-width="0.2"/>
<text x="141.656" y="87.84" font-size="3.11" text-anchor="middle" fill="#141414">25</text>
<circle cx="21.322" cy="87.968" r="2.29" fill="#ffe082" stroke="#464646" stroke-width="0.2"/>
<text x="21.322" y="89.05" font-size="3.11" text-anchor="middle" fill="#141414">28</text>
<circle cx="117.465" cy="35.182" r="2.29" fill="#ffe082" stroke="#464646" stroke-width="0.2"/>
<text x="117.465" y="36.27" font-size="3.11" text-anchor="middle" fill="#141414">37</text>
<circle cx="119.792" cy="153.402" r="4.60" fill="#eaf1fe" stroke="#2e78e6" stroke-width="0.3"/>
<text x="119.792" y="155.20" font-size="5.20" text-anchor="middle" fill="#14306e" font-weight="bold">13</text>
<polygon points="5.0,264.291 8.032,270.931 30.489,279.115 37.082,275.983" fill="rgb(216,216,216)"/>
<polygon points="21.461,238.869 26.1,233.669 47.749,233.669 52.388,238.869" fill="rgb(216,216,216)"/>
<polygon points="5.0,264.291 8.032,270.931 30.489,279.115 37.082,275.983" fill="#99d9fa"/>
<line x1="37.082" y1="275.983" x2="21.461" y2="238.869" stroke="#8c8c8c" stroke-width="0.3" stroke-dasharray="1.2,0.8"/>
<line x1="52.388" y1="238.869" x2="37.082" y2="275.983" stroke="#8c8c8c" stroke-width="0.3" stroke-dasharray="1.2,0.8"/>
<line x1="37.082" y1="275.983" x2="5.0" y2="264.291" stroke="#8c8c8c" stroke-width="0.3" stroke-dasharray="1.2,0.8"/>
<line x1="52.388" y1="238.869" x2="21.461" y2="238.869" stroke="#8c8c8c" stroke-width="0.3" stroke-dasharray="1.2,0.8"/>
<line x1="5.0" y1="264.291" x2="21.461" y2="238.869" stroke="#141414" stroke-width="0.4"/>
<line x1="52.388" y1="238.869" x2="70.962" y2="280.229" stroke="#141414" stroke-width="0.4"/>
<line x1="70.962" y1="280.229" x2="37.082" y2="275.983" stroke="#141414" stroke-width="0.4"/>
<line x1="5.0" y1="264.291" x2="8.032" y2="270.931" stroke="#141414" stroke-width="0.4"/>
<line x1="8.032" y1="270.931" x2="30.489" y2="279.115" stroke="#141414" stroke-width="0.4"/>
<line x1="30.489" y1="279.115" x2="37.082" y2="275.983" stroke="#141414" stroke-width="0.4"/>
<line x1="21.461" y1="238.869" x2="26.1" y2="233.669" stroke="#141414" stroke-width="0.4"/>
<line x1="26.1" y1="233.669" x2="47.749" y2="233.669" stroke="#141414" stroke-width="0.4"/>
<line x1="47.749" y1="233.669" x2="52.388" y2="238.869" stroke="#141414" stroke-width="0.4"/>
<circle cx="20.151" cy="272.58" r="2.29" fill="#99d9fa" stroke="#464646" stroke-width="0.2"/>
<text x="20.151" y="273.67" font-size="3.11" text-anchor="middle" fill="#141414">50</text>
<circle cx="36.924" cy="236.269" r="2.29" fill="#ffe082" stroke="#464646" stroke-width="0.2"/>
<text x="36.924" y="237.36" font-size="3.11" text-anchor="middle" fill="#141414">55</text>
<circle cx="53.477" cy="265.027" r="4.60" fill="#eaf1fe" stroke="#2e78e6" stroke-width="0.3"/>
<text x="53.477" y="266.83" font-size="5.20" text-anchor="middle" fill="#14306e" font-weight="bold">14</text>
<text x="205.0" y="295.0" font-size="3.2" text-anchor="end" fill="#737373" font-family="sans-serif">10 / 11</text>
<g pointer-events="none"><text x="105.0" y="83.2" text-anchor="middle" font-family="sans-serif" font-size="12.4" fill="#9aa0a6" fill-opacity="0.3" transform="rotate(-28 105.0 83.2)">papercraft.kr</text><text x="105.0" y="148.5" text-anchor="middle" font-family="sans-serif" font-size="12.4" fill="#9aa0a6" fill-opacity="0.3" transform="rotate(-28 105.0 148.5)">papercraft.kr</text><text x="105.0" y="213.8" text-anchor="middle" font-family="sans-serif" font-size="12.4" fill="#9aa0a6" fill-opacity="0.3" transform="rotate(-28 105.0 213.8)">papercraft.kr</text></g></svg>
