<svg xmlns="http://www.w3.org/2000/svg" xmlns:xlink="http://www.w3.org/1999/xlink" width="210.00mm" height="297.00mm" viewBox="0 0 210.00 297.00">
<rect x="0" y="0" width="210.00" height="297.00" fill="#ffffff" stroke="#cccccc" stroke-width="0.2"/>
<polygon points="54.208,139.043 48.387,146.043 21.227,146.043 15.407,139.043" fill="rgb(216,216,216)"/>
<polygon points="54.208,91.422 48.387,84.422 21.227,84.422 15.407,91.422" fill="rgb(216,216,216)"/>
<polygon points="80.537,139.043 87.537,131.9 87.537,98.565 80.537,91.422" fill="rgb(216,216,216)"/>
<polygon points="80.537,139.043 87.537,144.863 87.537,172.024 80.537,177.844" fill="rgb(216,216,216)"/>
<polygon points="80.537,91.422 87.537,85.602 87.537,58.441 80.537,52.621" fill="rgb(216,216,216)"/>
<polygon points="15.407,139.043 8.407,131.9 8.407,98.565 15.407,91.422" fill="rgb(216,216,216)"/>
<polygon points="54.208,177.844 58.157,184.844 76.588,184.844 80.537,177.844" fill="rgb(216,216,216)"/>
<polygon points="54.208,139.043 48.387,146.043 21.227,146.043 15.407,139.043" fill="#99d9fa"/>
<line x1="54.208" y1="139.043" x2="54.208" y2="91.422" stroke="#8c8c8c" stroke-width="0.3" stroke-dasharray="1.2,0.8"/>
<line x1="80.537" y1="139.043" x2="54.208" y2="139.043" stroke="#8c8c8c" stroke-width="0.3" stroke-dasharray="1.2,0.8"/>
<line x1="54.208" y1="91.422" x2="80.537" y2="91.422" stroke="#8c8c8c" stroke-width="0.3" stroke-dasharray="1.2,0.8"/>
<line x1="54.208" y1="52.621" x2="80.537" y2="52.621" stroke="#8c8c8c" stroke-width="0.3" stroke-dasharray="1.2,0.8"/>
<line x1="80.537" y1="52.621" x2="80.537" y2="5.0" stroke="#8c8c8c" stroke-width="0.3" stroke-dasharray="1.2,0.8"/>
<line x1="15.407" y1="139.043" x2="54.208" y2="139.043" stroke="#8c8c8c" stroke-width="0.3" stroke-dasharray="1.2,0.8"/>
<line x1="15.407" y1="91.422" x2="54.208" y2="91.422" stroke="#8c8c8c" stroke-width="0.3" stroke-dasharray="1.2,0.8"/>
<line x1="80.537" y1="91.422" x2="80.537" y2="139.043" stroke="#8c8c8c" stroke-width="0.3" stroke-dasharray="1.2,0.8"/>
<line x1="80.537" y1="177.844" x2="80.537" y2="139.043" stroke="#8c8c8c" stroke-width="0.3" stroke-dasharray="1.2,0.8"/>
<line x1="80.537" y1="52.621" x2="80.537" y2="91.422" stroke="#8c8c8c" stroke-width="0.3" stroke-dasharray="1.2,0.8"/>
<line x1="15.407" y1="91.422" x2="15.407" y2="139.043" stroke="#8c8c8c" stroke-width="0.3" stroke-dasharray="1.2,0.8"/>
<line x1="80.537" y1="177.844" x2="54.208" y2="177.844" stroke="#8c8c8c" stroke-width="0.3" stroke-dasharray="1.2,0.8"/>
<line x1="54.208" y1="177.844" x2="54.208" y2="139.043" stroke="#141414" stroke-width="0.4"/>
<line x1="54.208" y1="91.422" x2="54.208" y2="52.621" stroke="#141414" stroke-width="0.4"/>
<line x1="119.338" y1="5.0" x2="119.338" y2="52.621" stroke="#141414" stroke-width="0.4"/>
<line x1="80.537" y1="5.0" x2="119.338" y2="5.0" stroke="#141414" stroke-width="0.4"/>
<line x1="119.338" y1="52.621" x2="80.537" y2="52.621" stroke="#141414" stroke-width="0.4"/>
<line x1="54.208" y1="52.621" x2="54.208" y2="5.0" stroke="#141414" stroke-width="0.4"/>
<line x1="54.208" y1="5.0" x2="80.537" y2="5.0" stroke="#141414" stroke-width="0.4"/>
<line x1="54.208" y1="139.043" x2="48.387" y2="146.043" stroke="#141414" stroke-width="0.4"/>
<line x1="48.387" y1="146.043" x2="21.227" y2="146.043" stroke="#141414" stroke-width="0.4"/>
<line x1="21.227" y1="146.043" x2="15.407" y2="139.043" stroke="#141414" stroke-width="0.4"/>
<line x1="54.208" y1="91.422" x2="48.387" y2="84.422" stroke="#141414" stroke-width="0.4"/>
<line x1="48.387" y1="84.422" x2="21.227" y2="84.422" stroke="#141414" stroke-width="0.4"/>
<line x1="21.227" y1="84.422" x2="15.407" y2="91.422" stroke="#141414" stroke-width="0.4"/>
<line x1="80.537" y1="139.043" x2="87.537" y2="131.9" stroke="#141414" stroke-width="0.4"/>
<line x1="87.537" y1="131.9" x2="87.537" y2="98.565" stroke="#141414" stroke-width="0.4"/>
<line x1="87.537" y1="98.565" x2="80.537" y2="91.422" stroke="#141414" stroke-width="0.4"/>
<line x1="80.537" y1="139.043" x2="87.537" y2="144.863" stroke="#141414" stroke-width="0.4"/>
<line x1="87.537" y1="144.863" x2="87.537" y2="172.024" stroke="#141414" stroke-width="0.4"/>
<line x1="87.537" y1="172.024" x2="80.537" y2="177.844" stroke="#141414" stroke-width="0.4"/>
<line x1="80.537" y1="91.422" x2="87.537" y2="85.602" stroke="#141414" stroke-width="0.4"/>
<line x1="87.537" y1="85.602" x2="87.537" y2="58.441" stroke="#141414" stroke-width="0.4"/>
<line x1="87.537" y1="58.441" x2="80.537" y2="52.621" stroke="#141414" stroke-width="0.4"/>
<line x1="15.407" y1="139.043" x2="8.407" y2="131.9" stroke="#141414" stroke-width="0.4"/>
<line x1="8.407" y1="131.9" x2="8.407" y2="98.565" stroke="#141414" stroke-width="0.4"/>
<line x1="8.407" y1="98.565" x2="15.407" y2="91.422" stroke="#141414" stroke-width="0.4"/>
<line x1="54.208" y1="177.844" x2="58.157" y2="184.844" stroke="#141414" stroke-width="0.4"/>
<line x1="58.157" y1="184.844" x2="76.588" y2="184.844" stroke="#141414" stroke-width="0.4"/>
<line x1="76.588" y1="184.844" x2="80.537" y2="177.844" stroke="#141414" stroke-width="0.4"/>
<circle cx="34.807" cy="142.543" r="2.54" fill="#99d9fa" stroke="#464646" stroke-width="0.2"/>
<text x="34.807" y="143.41" font-size="2.49" text-anchor="middle" fill="#141414">85</text>
<circle cx="34.807" cy="87.922" r="2.54" fill="#ffe082" stroke="#464646" stroke-width="0.2"/>
<text x="34.807" y="88.79" font-size="2.49" text-anchor="middle" fill="#141414">86</text>
<circle cx="84.037" cy="115.233" r="2.54" fill="#ffe082" stroke="#464646" stroke-width="0.2"/>
<text x="84.037" y="116.10" font-size="2.49" text-anchor="middle" fill="#141414">87</text>
<circle cx="84.037" cy="158.443" r="2.54" fill="#ffe082" stroke="#464646" stroke-width="0.2"/>
<text x="84.037" y="159.31" font-size="2.49" text-anchor="middle" fill="#141414">88</text>
<circle cx="84.037" cy="72.022" r="2.54" fill="#ffe082" stroke="#464646" stroke-width="0.2"/>
<text x="84.037" y="72.89" font-size="2.49" text-anchor="middle" fill="#141414">89</text>
<circle cx="11.907" cy="115.233" r="2.54" fill="#ffe082" stroke="#464646" stroke-width="0.2"/>
<text x="11.907" y="116.10" font-size="2.49" text-anchor="middle" fill="#141414">90</text>
<circle cx="67.372" cy="181.344" r="2.54" fill="#ffe082" stroke="#464646" stroke-width="0.2"/>
<text x="67.372" y="182.22" font-size="2.49" text-anchor="middle" fill="#141414">91</text>
<circle cx="71.761" cy="164.91" r="4.60" fill="#eaf1fe" stroke="#2e78e6" stroke-width="0.3"/>
<text x="71.761" y="166.71" font-size="5.20" text-anchor="middle" fill="#14306e" font-weight="bold">9</text>
<polygon points="167.288,21.519 163.955,14.953 171.499,7.409 178.065,10.742" fill="rgb(216,216,216)"/>
<polygon points="135.588,50.825 132.613,57.75 141.833,66.97 148.759,63.996" fill="rgb(216,216,216)"/>
<polygon points="135.588,50.825 128.45,53.247 119.982,43.333 123.489,36.662" fill="rgb(216,216,216)"/>
<polygon points="178.065,32.295 184.631,35.628 192.175,28.085 188.841,21.519" fill="rgb(216,216,216)"/>
<polygon points="148.759,63.996 146.337,71.133 156.25,79.602 162.922,76.094" fill="rgb(216,216,216)"/>
<polygon points="188.841,21.519 192.175,14.953 184.631,7.409 178.065,10.742" fill="rgb(216,216,216)"/>
<polygon points="201.981,51.153 204.202,60.427 187.408,85.551 177.989,87.045" fill="rgb(216,216,216)"/>
<polygon points="167.288,21.519 163.955,14.953 171.499,7.409 178.065,10.742" fill="#99d9fa"/>
<line x1="135.588" y1="50.825" x2="167.288" y2="21.519" stroke="#8c8c8c" stroke-width="0.3" stroke-dasharray="1.2,0.8"/>
<line x1="178.065" y1="32.295" x2="167.288" y2="21.519" stroke="#8c8c8c" stroke-width="0.3" stroke-dasharray="1.2,0.8"/>
<line x1="178.065" y1="32.295" x2="148.759" y2="63.996" stroke="#8c8c8c" stroke-width="0.3" stroke-dasharray="1.2,0.8"/>
<line x1="189.653" y1="42.194" x2="162.922" y2="76.094" stroke="#8c8c8c" stroke-width="0.3" stroke-dasharray="1.2,0.8"/>
<line x1="177.989" y1="87.045" x2="162.922" y2="76.094" stroke="#8c8c8c" stroke-width="0.3" stroke-dasharray="1.2,0.8"/>
<line x1="178.065" y1="10.742" x2="167.288" y2="21.519" stroke="#8c8c8c" stroke-width="0.3" stroke-dasharray="1.2,0.8"/>
<line x1="148.759" y1="63.996" x2="135.588" y2="50.825" stroke="#8c8c8c" stroke-width="0.3" stroke-dasharray="1.2,0.8"/>
<line x1="123.489" y1="36.662" x2="135.588" y2="50.825" stroke="#8c8c8c" stroke-width="0.3" stroke-dasharray="1.2,0.8"/>
<line x1="188.841" y1="21.519" x2="178.065" y2="32.295" stroke="#8c8c8c" stroke-width="0.3" stroke-dasharray="1.2,0.8"/>
<line x1="162.922" y1="76.094" x2="148.759" y2="63.996" stroke="#8c8c8c" stroke-width="0.3" stroke-dasharray="1.2,0.8"/>
<line x1="178.065" y1="10.742" x2="188.841" y2="21.519" stroke="#8c8c8c" stroke-width="0.3" stroke-dasharray="1.2,0.8"/>
<line x1="177.989" y1="87.045" x2="201.981" y2="51.153" stroke="#8c8c8c" stroke-width="0.3" stroke-dasharray="1.2,0.8"/>
<line x1="157.39" y1="9.931" x2="167.288" y2="21.519" stroke="#141414" stroke-width="0.4"/>
<line x1="167.039" y1="102.113" x2="151.971" y2="91.162" stroke="#141414" stroke-width="0.4"/>
<line x1="177.989" y1="87.045" x2="167.039" y2="102.113" stroke="#141414" stroke-width="0.4"/>
<line x1="178.065" y1="32.295" x2="189.653" y2="42.194" stroke="#141414" stroke-width="0.4"/>
<line x1="151.971" y1="91.162" x2="162.922" y2="76.094" stroke="#141414" stroke-width="0.4"/>
<line x1="189.653" y1="42.194" x2="201.981" y2="51.153" stroke="#141414" stroke-width="0.4"/>
<line x1="123.489" y1="36.662" x2="157.39" y2="9.931" stroke="#141414" stroke-width="0.4"/>
<line x1="167.288" y1="21.519" x2="163.955" y2="14.953" stroke="#141414" stroke-width="0.4"/>
<line x1="163.955" y1="14.953" x2="171.499" y2="7.409" stroke="#141414" stroke-width="0.4"/>
<line x1="171.499" y1="7.409" x2="178.065" y2="10.742" stroke="#141414" stroke-width="0.4"/>
<line x1="135.588" y1="50.825" x2="132.613" y2="57.75" stroke="#141414" stroke-width="0.4"/>
<line x1="132.613" y1="57.75" x2="141.833" y2="66.97" stroke="#141414" stroke-width="0.4"/>
<line x1="141.833" y1="66.97" x2="148.759" y2="63.996" stroke="#141414" stroke-width="0.4"/>
<line x1="135.588" y1="50.825" x2="128.45" y2="53.247" stroke="#141414" stroke-width="0.4"/>
<line x1="128.45" y1="53.247" x2="119.982" y2="43.333" stroke="#141414" stroke-width="0.4"/>
<line x1="119.982" y1="43.333" x2="123.489" y2="36.662" stroke="#141414" stroke-width="0.4"/>
<line x1="178.065" y1="32.295" x2="184.631" y2="35.628" stroke="#141414" stroke-width="0.4"/>
<line x1="184.631" y1="35.628" x2="192.175" y2="28.085" stroke="#141414" stroke-width="0.4"/>
<line x1="192.175" y1="28.085" x2="188.841" y2="21.519" stroke="#141414" stroke-width="0.4"/>
<line x1="148.759" y1="63.996" x2="146.337" y2="71.133" stroke="#141414" stroke-width="0.4"/>
<line x1="146.337" y1="71.133" x2="156.25" y2="79.602" stroke="#141414" stroke-width="0.4"/>
<line x1="156.25" y1="79.602" x2="162.922" y2="76.094" stroke="#141414" stroke-width="0.4"/>
<line x1="188.841" y1="21.519" x2="192.175" y2="14.953" stroke="#141414" stroke-width="0.4"/>
<line x1="192.175" y1="14.953" x2="184.631" y2="7.409" stroke="#141414" stroke-width="0.4"/>
<line x1="184.631" y1="7.409" x2="178.065" y2="10.742" stroke="#141414" stroke-width="0.4"/>
<line x1="201.981" y1="51.153" x2="204.202" y2="60.427" stroke="#141414" stroke-width="0.4"/>
<line x1="204.202" y1="60.427" x2="187.408" y2="85.551" stroke="#141414" stroke-width="0.4"/>
<line x1="187.408" y1="85.551" x2="177.989" y2="87.045" stroke="#141414" stroke-width="0.4"/>
<circle cx="170.202" cy="13.656" r="2.54" fill="#99d9fa" stroke="#464646" stroke-width="0.2"/>
<text x="170.202" y="14.53" font-size="2.49" text-anchor="middle" fill="#141414">113</text>
<circle cx="139.698" cy="59.885" r="2.54" fill="#ffe082" stroke="#464646" stroke-width="0.2"/>
<text x="139.698" y="60.76" font-size="2.49" text-anchor="middle" fill="#141414">114</text>
<circle cx="126.877" cy="46.017" r="2.54" fill="#ffe082" stroke="#464646" stroke-width="0.2"/>
<text x="126.877" y="46.89" font-size="2.49" text-anchor="middle" fill="#141414">115</text>
<circle cx="185.928" cy="29.382" r="2.54" fill="#ffe082" stroke="#464646" stroke-width="0.2"/>
<text x="185.928" y="30.25" font-size="2.49" text-anchor="middle" fill="#141414">116</text>
<circle cx="153.567" cy="72.706" r="2.54" fill="#ffe082" stroke="#464646" stroke-width="0.2"/>
<text x="153.567" y="73.58" font-size="2.49" text-anchor="middle" fill="#141414">117</text>
<circle cx="185.928" cy="13.656" r="2.54" fill="#ffe082" stroke="#464646" stroke-width="0.2"/>
<text x="185.928" y="14.53" font-size="2.49" text-anchor="middle" fill="#141414">118</text>
<circle cx="192.895" cy="71.044" r="2.54" fill="#ffe082" stroke="#464646" stroke-width="0.2"/>
<text x="192.895" y="71.92" font-size="2.49" text-anchor="middle" fill="#141414">119</text>
<circle cx="167.111" cy="60.761" r="4.60" fill="#eaf1fe" stroke="#2e78e6" stroke-width="0.3"/>
<text x="167.111" y="62.56" font-size="5.20" text-anchor="middle" fill="#14306e" font-weight="bold">13</text>
<text x="205.0" y="295.0" font-size="3.2" text-anchor="end" fill="#737373" font-family="sans-serif">5 / 5</text>
</svg>
