<svg xmlns="http://www.w3.org/2000/svg" xmlns:xlink="http://www.w3.org/1999/xlink" width="210.00mm" height="297.00mm" viewBox="0 0 210.00 297.00">
<rect x="0" y="0" width="210.00" height="297.00" fill="#ffffff" stroke="#cccccc" stroke-width="0.2"/>
<polygon points="41.216,92.753 36.834,99.753 16.382,99.753 12.0,92.753" fill="rgb(216,216,216)"/>
<polygon points="41.216,63.485 36.834,56.485 16.382,56.485 12.0,63.485" fill="rgb(216,216,216)"/>
<polygon points="64.772,92.753 71.772,88.363 71.772,67.875 64.772,63.485" fill="rgb(216,216,216)"/>
<polygon points="64.772,92.753 71.772,97.136 71.772,117.587 64.772,121.97" fill="rgb(216,216,216)"/>
<polygon points="64.772,63.485 71.772,59.102 71.772,38.651 64.772,34.269" fill="rgb(216,216,216)"/>
<polygon points="12.0,92.753 5.0,88.363 5.0,67.875 12.0,63.485" fill="rgb(216,216,216)"/>
<polygon points="41.216,121.97 44.749,128.97 61.238,128.97 64.772,121.97" fill="rgb(216,216,216)"/>
<polygon points="41.216,92.753 36.834,99.753 16.382,99.753 12.0,92.753" fill="#99d9fa"/>
<line x1="41.216" y1="92.753" x2="41.216" y2="63.485" stroke="#8c8c8c" stroke-width="0.3" stroke-dasharray="1.2,0.8"/>
<line x1="64.772" y1="92.753" x2="41.216" y2="92.753" stroke="#8c8c8c" stroke-width="0.3" stroke-dasharray="1.2,0.8"/>
<line x1="41.216" y1="63.485" x2="64.772" y2="63.485" stroke="#8c8c8c" stroke-width="0.3" stroke-dasharray="1.2,0.8"/>
<line x1="41.216" y1="34.269" x2="64.772" y2="34.269" stroke="#8c8c8c" stroke-width="0.3" stroke-dasharray="1.2,0.8"/>
<line x1="64.772" y1="34.269" x2="64.772" y2="5.0" stroke="#8c8c8c" stroke-width="0.3" stroke-dasharray="1.2,0.8"/>
<line x1="12.0" y1="92.753" x2="41.216" y2="92.753" stroke="#8c8c8c" stroke-width="0.3" stroke-dasharray="1.2,0.8"/>
<line x1="12.0" y1="63.485" x2="41.216" y2="63.485" stroke="#8c8c8c" stroke-width="0.3" stroke-dasharray="1.2,0.8"/>
<line x1="64.772" y1="63.485" x2="64.772" y2="92.753" stroke="#8c8c8c" stroke-width="0.3" stroke-dasharray="1.2,0.8"/>
<line x1="64.772" y1="121.97" x2="64.772" y2="92.753" stroke="#8c8c8c" stroke-width="0.3" stroke-dasharray="1.2,0.8"/>
<line x1="64.772" y1="34.269" x2="64.772" y2="63.485" stroke="#8c8c8c" stroke-width="0.3" stroke-dasharray="1.2,0.8"/>
<line x1="12.0" y1="63.485" x2="12.0" y2="92.753" stroke="#8c8c8c" stroke-width="0.3" stroke-dasharray="1.2,0.8"/>
<line x1="64.772" y1="121.97" x2="41.216" y2="121.97" stroke="#8c8c8c" stroke-width="0.3" stroke-dasharray="1.2,0.8"/>
<line x1="41.216" y1="121.969" x2="41.216" y2="92.753" stroke="#141414" stroke-width="0.4"/>
<line x1="41.216" y1="63.485" x2="41.216" y2="34.269" stroke="#141414" stroke-width="0.4"/>
<line x1="93.988" y1="5.0" x2="93.988" y2="34.269" stroke="#141414" stroke-width="0.4"/>
<line x1="64.772" y1="5.0" x2="93.988" y2="5.0" stroke="#141414" stroke-width="0.4"/>
<line x1="93.988" y1="34.269" x2="64.772" y2="34.269" stroke="#141414" stroke-width="0.4"/>
<line x1="41.216" y1="34.269" x2="41.216" y2="5.0" stroke="#141414" stroke-width="0.4"/>
<line x1="41.216" y1="5.0" x2="64.772" y2="5.0" stroke="#141414" stroke-width="0.4"/>
<line x1="41.216" y1="92.753" x2="36.834" y2="99.753" stroke="#141414" stroke-width="0.4"/>
<line x1="36.834" y1="99.753" x2="16.382" y2="99.753" stroke="#141414" stroke-width="0.4"/>
<line x1="16.382" y1="99.753" x2="12.0" y2="92.753" stroke="#141414" stroke-width="0.4"/>
<line x1="41.216" y1="63.485" x2="36.834" y2="56.485" stroke="#141414" stroke-width="0.4"/>
<line x1="36.834" y1="56.485" x2="16.382" y2="56.485" stroke="#141414" stroke-width="0.4"/>
<line x1="16.382" y1="56.485" x2="12.0" y2="63.485" stroke="#141414" stroke-width="0.4"/>
<line x1="64.772" y1="92.753" x2="71.772" y2="88.363" stroke="#141414" stroke-width="0.4"/>
<line x1="71.772" y1="88.363" x2="71.772" y2="67.875" stroke="#141414" stroke-width="0.4"/>
<line x1="71.772" y1="67.875" x2="64.772" y2="63.485" stroke="#141414" stroke-width="0.4"/>
<line x1="64.772" y1="92.753" x2="71.772" y2="97.136" stroke="#141414" stroke-width="0.4"/>
<line x1="71.772" y1="97.136" x2="71.772" y2="117.587" stroke="#141414" stroke-width="0.4"/>
<line x1="71.772" y1="117.587" x2="64.772" y2="121.97" stroke="#141414" stroke-width="0.4"/>
<line x1="64.772" y1="63.485" x2="71.772" y2="59.102" stroke="#141414" stroke-width="0.4"/>
<line x1="71.772" y1="59.102" x2="71.772" y2="38.651" stroke="#141414" stroke-width="0.4"/>
<line x1="71.772" y1="38.651" x2="64.772" y2="34.269" stroke="#141414" stroke-width="0.4"/>
<line x1="12.0" y1="92.753" x2="5.0" y2="88.363" stroke="#141414" stroke-width="0.4"/>
<line x1="5.0" y1="88.363" x2="5.0" y2="67.875" stroke="#141414" stroke-width="0.4"/>
<line x1="5.0" y1="67.875" x2="12.0" y2="63.485" stroke="#141414" stroke-width="0.4"/>
<line x1="41.216" y1="121.97" x2="44.749" y2="128.97" stroke="#141414" stroke-width="0.4"/>
<line x1="44.749" y1="128.97" x2="61.238" y2="128.97" stroke="#141414" stroke-width="0.4"/>
<line x1="61.238" y1="128.97" x2="64.772" y2="121.97" stroke="#141414" stroke-width="0.4"/>
<circle cx="26.608" cy="96.253" r="3.08" fill="#99d9fa" stroke="#464646" stroke-width="0.2"/>
<text x="26.608" y="97.72" font-size="4.18" text-anchor="middle" fill="#141414">20</text>
<circle cx="26.608" cy="59.985" r="3.08" fill="#ffe082" stroke="#464646" stroke-width="0.2"/>
<text x="26.608" y="61.45" font-size="4.18" text-anchor="middle" fill="#141414">21</text>
<circle cx="68.272" cy="78.119" r="3.08" fill="#ffe082" stroke="#464646" stroke-width="0.2"/>
<text x="68.272" y="79.58" font-size="4.18" text-anchor="middle" fill="#141414">22</text>
<circle cx="68.272" cy="107.361" r="3.08" fill="#ffe082" stroke="#464646" stroke-width="0.2"/>
<text x="68.272" y="108.82" font-size="4.18" text-anchor="middle" fill="#141414">23</text>
<circle cx="68.272" cy="48.877" r="3.08" fill="#ffe082" stroke="#464646" stroke-width="0.2"/>
<text x="68.272" y="50.34" font-size="4.18" text-anchor="middle" fill="#141414">24</text>
<circle cx="8.5" cy="78.119" r="3.08" fill="#ffe082" stroke="#464646" stroke-width="0.2"/>
<text x="8.5" y="79.58" font-size="4.18" text-anchor="middle" fill="#141414">25</text>
<circle cx="52.994" cy="125.47" r="3.08" fill="#ffe082" stroke="#464646" stroke-width="0.2"/>
<text x="52.994" y="126.93" font-size="4.18" text-anchor="middle" fill="#141414">26</text>
<circle cx="56.92" cy="112.231" r="4.60" fill="#eaf1fe" stroke="#2e78e6" stroke-width="0.3"/>
<text x="56.92" y="114.03" font-size="5.20" text-anchor="middle" fill="#14306e" font-weight="bold">4</text>
<polygon points="147.727,63.544 154.727,67.651 154.727,86.82 147.727,90.927" fill="rgb(216,216,216)"/>
<polygon points="124.371,63.544 117.371,59.92 117.371,43.007 124.371,39.383" fill="rgb(216,216,216)"/>
<polygon points="124.371,63.544 117.371,67.651 117.371,86.82 124.371,90.927" fill="rgb(216,216,216)"/>
<polygon points="147.727,39.383 151.834,32.383 171.002,32.383 175.109,39.383" fill="rgb(216,216,216)"/>
<polygon points="96.988,115.088 101.095,122.088 120.263,122.088 124.371,115.088" fill="rgb(216,216,216)"/>
<polygon points="175.109,63.544 182.109,59.92 182.109,43.007 175.109,39.383" fill="rgb(216,216,216)"/>
<polygon points="147.727,12.0 144.223,5.0 127.874,5.0 124.371,12.0" fill="rgb(216,216,216)"/>
<polygon points="147.727,63.544 154.727,67.651 154.727,86.82 147.727,90.927" fill="#99d9fa"/>
<line x1="147.727" y1="63.544" x2="124.371" y2="63.544" stroke="#8c8c8c" stroke-width="0.3" stroke-dasharray="1.2,0.8"/>
<line x1="147.727" y1="39.383" x2="147.727" y2="63.544" stroke="#8c8c8c" stroke-width="0.3" stroke-dasharray="1.2,0.8"/>
<line x1="124.371" y1="39.383" x2="147.727" y2="39.383" stroke="#8c8c8c" stroke-width="0.3" stroke-dasharray="1.2,0.8"/>
<line x1="147.727" y1="90.927" x2="124.371" y2="90.927" stroke="#8c8c8c" stroke-width="0.3" stroke-dasharray="1.2,0.8"/>
<line x1="124.371" y1="90.927" x2="124.371" y2="115.088" stroke="#8c8c8c" stroke-width="0.3" stroke-dasharray="1.2,0.8"/>
<line x1="147.727" y1="90.927" x2="147.727" y2="63.544" stroke="#8c8c8c" stroke-width="0.3" stroke-dasharray="1.2,0.8"/>
<line x1="124.371" y1="39.383" x2="124.371" y2="63.544" stroke="#8c8c8c" stroke-width="0.3" stroke-dasharray="1.2,0.8"/>
<line x1="124.371" y1="90.927" x2="124.371" y2="63.544" stroke="#8c8c8c" stroke-width="0.3" stroke-dasharray="1.2,0.8"/>
<line x1="175.109" y1="39.383" x2="147.727" y2="39.383" stroke="#8c8c8c" stroke-width="0.3" stroke-dasharray="1.2,0.8"/>
<line x1="124.371" y1="115.088" x2="96.988" y2="115.088" stroke="#8c8c8c" stroke-width="0.3" stroke-dasharray="1.2,0.8"/>
<line x1="175.109" y1="39.383" x2="175.109" y2="63.544" stroke="#8c8c8c" stroke-width="0.3" stroke-dasharray="1.2,0.8"/>
<line x1="124.371" y1="12.0" x2="147.727" y2="12.0" stroke="#8c8c8c" stroke-width="0.3" stroke-dasharray="1.2,0.8"/>
<line x1="175.109" y1="63.544" x2="147.727" y2="63.544" stroke="#141414" stroke-width="0.4"/>
<line x1="96.988" y1="115.088" x2="96.988" y2="90.927" stroke="#141414" stroke-width="0.4"/>
<line x1="96.988" y1="90.927" x2="124.371" y2="90.927" stroke="#141414" stroke-width="0.4"/>
<line x1="147.727" y1="12.0" x2="147.727" y2="39.383" stroke="#141414" stroke-width="0.4"/>
<line x1="124.371" y1="39.383" x2="124.371" y2="12.0" stroke="#141414" stroke-width="0.4"/>
<line x1="147.727" y1="90.927" x2="147.727" y2="115.088" stroke="#141414" stroke-width="0.4"/>
<line x1="147.727" y1="115.088" x2="124.371" y2="115.088" stroke="#141414" stroke-width="0.4"/>
<line x1="147.727" y1="63.544" x2="154.727" y2="67.651" stroke="#141414" stroke-width="0.4"/>
<line x1="154.727" y1="67.651" x2="154.727" y2="86.82" stroke="#141414" stroke-width="0.4"/>
<line x1="154.727" y1="86.82" x2="147.727" y2="90.927" stroke="#141414" stroke-width="0.4"/>
<line x1="124.371" y1="63.544" x2="117.371" y2="59.92" stroke="#141414" stroke-width="0.4"/>
<line x1="117.371" y1="59.92" x2="117.371" y2="43.007" stroke="#141414" stroke-width="0.4"/>
<line x1="117.371" y1="43.007" x2="124.371" y2="39.383" stroke="#141414" stroke-width="0.4"/>
<line x1="124.371" y1="63.544" x2="117.371" y2="67.651" stroke="#141414" stroke-width="0.4"/>
<line x1="117.371" y1="67.651" x2="117.371" y2="86.82" stroke="#141414" stroke-width="0.4"/>
<line x1="117.371" y1="86.82" x2="124.371" y2="90.927" stroke="#141414" stroke-width="0.4"/>
<line x1="147.727" y1="39.383" x2="151.834" y2="32.383" stroke="#141414" stroke-width="0.4"/>
<line x1="151.834" y1="32.383" x2="171.002" y2="32.383" stroke="#141414" stroke-width="0.4"/>
<line x1="171.002" y1="32.383" x2="175.109" y2="39.383" stroke="#141414" stroke-width="0.4"/>
<line x1="96.988" y1="115.088" x2="101.095" y2="122.088" stroke="#141414" stroke-width="0.4"/>
<line x1="101.095" y1="122.088" x2="120.263" y2="122.088" stroke="#141414" stroke-width="0.4"/>
<line x1="120.263" y1="122.088" x2="124.371" y2="115.088" stroke="#141414" stroke-width="0.4"/>
<line x1="175.109" y1="63.544" x2="182.109" y2="59.92" stroke="#141414" stroke-width="0.4"/>
<line x1="182.109" y1="59.92" x2="182.109" y2="43.007" stroke="#141414" stroke-width="0.4"/>
<line x1="182.109" y1="43.007" x2="175.109" y2="39.383" stroke="#141414" stroke-width="0.4"/>
<line x1="147.727" y1="12.0" x2="144.223" y2="5.0" stroke="#141414" stroke-width="0.4"/>
<line x1="144.223" y1="5.0" x2="127.874" y2="5.0" stroke="#141414" stroke-width="0.4"/>
<line x1="127.874" y1="5.0" x2="124.371" y2="12.0" stroke="#141414" stroke-width="0.4"/>
<circle cx="151.227" cy="77.236" r="3.08" fill="#99d9fa" stroke="#464646" stroke-width="0.2"/>
<text x="151.227" y="78.70" font-size="4.18" text-anchor="middle" fill="#141414">27</text>
<circle cx="120.871" cy="51.463" r="3.08" fill="#ffe082" stroke="#464646" stroke-width="0.2"/>
<text x="120.871" y="52.93" font-size="4.18" text-anchor="middle" fill="#141414">28</text>
<circle cx="120.871" cy="77.236" r="3.08" fill="#ffe082" stroke="#464646" stroke-width="0.2"/>
<text x="120.871" y="78.70" font-size="4.18" text-anchor="middle" fill="#141414">29</text>
<circle cx="161.418" cy="35.883" r="3.08" fill="#ffe082" stroke="#464646" stroke-width="0.2"/>
<text x="161.418" y="37.35" font-size="4.18" text-anchor="middle" fill="#141414">30</text>
<circle cx="110.679" cy="118.588" r="3.08" fill="#ffe082" stroke="#464646" stroke-width="0.2"/>
<text x="110.679" y="120.05" font-size="4.18" text-anchor="middle" fill="#141414">31</text>
<circle cx="178.609" cy="51.463" r="3.08" fill="#ffe082" stroke="#464646" stroke-width="0.2"/>
<text x="178.609" y="52.93" font-size="4.18" text-anchor="middle" fill="#141414">32</text>
<circle cx="136.049" cy="8.5" r="3.08" fill="#ffe082" stroke="#464646" stroke-width="0.2"/>
<text x="136.049" y="9.96" font-size="4.18" text-anchor="middle" fill="#141414">33</text>
<circle cx="165.982" cy="47.437" r="4.60" fill="#eaf1fe" stroke="#2e78e6" stroke-width="0.3"/>
<text x="165.982" y="49.24" font-size="5.20" text-anchor="middle" fill="#14306e" font-weight="bold">5</text>
<polygon points="46.88,181.655 53.88,185.158 53.88,201.507 46.88,205.011" fill="rgb(216,216,216)"/>
<polygon points="28.356,181.655 21.356,178.755 21.356,165.225 28.356,162.326" fill="rgb(216,216,216)"/>
<polygon points="28.356,181.655 21.356,185.158 21.356,201.507 28.356,205.011" fill="rgb(216,216,216)"/>
<polygon points="46.88,162.326 50.383,155.326 66.732,155.326 70.236,162.326" fill="rgb(216,216,216)"/>
<polygon points="5.0,224.34 8.503,231.34 24.852,231.34 28.356,224.34" fill="rgb(216,216,216)"/>
<polygon points="70.236,181.655 77.236,178.755 77.236,165.225 70.236,162.326" fill="rgb(216,216,216)"/>
<polygon points="46.88,138.97 44.101,131.97 31.134,131.97 28.356,138.97" fill="rgb(216,216,216)"/>
<polygon points="46.88,181.655 53.88,185.158 53.88,201.507 46.88,205.011" fill="#99d9fa"/>
<line x1="46.88" y1="181.655" x2="28.356" y2="181.655" stroke="#8c8c8c" stroke-width="0.3" stroke-dasharray="1.2,0.8"/>
<line x1="46.88" y1="162.326" x2="46.88" y2="181.655" stroke="#8c8c8c" stroke-width="0.3" stroke-dasharray="1.2,0.8"/>
<line x1="28.356" y1="162.326" x2="46.88" y2="162.326" stroke="#8c8c8c" stroke-width="0.3" stroke-dasharray="1.2,0.8"/>
<line x1="46.88" y1="205.011" x2="28.356" y2="205.011" stroke="#8c8c8c" stroke-width="0.3" stroke-dasharray="1.2,0.8"/>
<line x1="28.356" y1="205.011" x2="28.356" y2="224.34" stroke="#8c8c8c" stroke-width="0.3" stroke-dasharray="1.2,0.8"/>
<line x1="46.88" y1="205.011" x2="46.88" y2="181.655" stroke="#8c8c8c" stroke-width="0.3" stroke-dasharray="1.2,0.8"/>
<line x1="28.356" y1="162.326" x2="28.356" y2="181.655" stroke="#8c8c8c" stroke-width="0.3" stroke-dasharray="1.2,0.8"/>
<line x1="28.356" y1="205.011" x2="28.356" y2="181.655" stroke="#8c8c8c" stroke-width="0.3" stroke-dasharray="1.2,0.8"/>
<line x1="70.236" y1="162.326" x2="46.88" y2="162.326" stroke="#8c8c8c" stroke-width="0.3" stroke-dasharray="1.2,0.8"/>
<line x1="28.356" y1="224.34" x2="5.0" y2="224.34" stroke="#8c8c8c" stroke-width="0.3" stroke-dasharray="1.2,0.8"/>
<line x1="70.236" y1="162.326" x2="70.236" y2="181.655" stroke="#8c8c8c" stroke-width="0.3" stroke-dasharray="1.2,0.8"/>
<line x1="28.356" y1="138.97" x2="46.88" y2="138.97" stroke="#8c8c8c" stroke-width="0.3" stroke-dasharray="1.2,0.8"/>
<line x1="70.236" y1="181.655" x2="46.88" y2="181.655" stroke="#141414" stroke-width="0.4"/>
<line x1="5.0" y1="224.34" x2="5.0" y2="205.011" stroke="#141414" stroke-width="0.4"/>
<line x1="5.0" y1="205.011" x2="28.356" y2="205.011" stroke="#141414" stroke-width="0.4"/>
<line x1="46.88" y1="138.97" x2="46.88" y2="162.326" stroke="#141414" stroke-width="0.4"/>
<line x1="28.356" y1="162.326" x2="28.356" y2="138.97" stroke="#141414" stroke-width="0.4"/>
<line x1="46.88" y1="205.011" x2="46.88" y2="224.34" stroke="#141414" stroke-width="0.4"/>
<line x1="46.88" y1="224.34" x2="28.356" y2="224.34" stroke="#141414" stroke-width="0.4"/>
<line x1="46.88" y1="181.655" x2="53.88" y2="185.158" stroke="#141414" stroke-width="0.4"/>
<line x1="53.88" y1="185.158" x2="53.88" y2="201.507" stroke="#141414" stroke-width="0.4"/>
<line x1="53.88" y1="201.507" x2="46.88" y2="205.011" stroke="#141414" stroke-width="0.4"/>
<line x1="28.356" y1="181.655" x2="21.356" y2="178.755" stroke="#141414" stroke-width="0.4"/>
<line x1="21.356" y1="178.755" x2="21.356" y2="165.225" stroke="#141414" stroke-width="0.4"/>
<line x1="21.356" y1="165.225" x2="28.356" y2="162.326" stroke="#141414" stroke-width="0.4"/>
<line x1="28.356" y1="181.655" x2="21.356" y2="185.158" stroke="#141414" stroke-width="0.4"/>
<line x1="21.356" y1="185.158" x2="21.356" y2="201.507" stroke="#141414" stroke-width="0.4"/>
<line x1="21.356" y1="201.507" x2="28.356" y2="205.011" stroke="#141414" stroke-width="0.4"/>
<line x1="46.88" y1="162.326" x2="50.383" y2="155.326" stroke="#141414" stroke-width="0.4"/>
<line x1="50.383" y1="155.326" x2="66.732" y2="155.326" stroke="#141414" stroke-width="0.4"/>
<line x1="66.732" y1="155.326" x2="70.236" y2="162.326" stroke="#141414" stroke-width="0.4"/>
<line x1="5.0" y1="224.34" x2="8.503" y2="231.34" stroke="#141414" stroke-width="0.4"/>
<line x1="8.503" y1="231.34" x2="24.852" y2="231.34" stroke="#141414" stroke-width="0.4"/>
<line x1="24.852" y1="231.34" x2="28.356" y2="224.34" stroke="#141414" stroke-width="0.4"/>
<line x1="70.236" y1="181.655" x2="77.236" y2="178.755" stroke="#141414" stroke-width="0.4"/>
<line x1="77.236" y1="178.755" x2="77.236" y2="165.225" stroke="#141414" stroke-width="0.4"/>
<line x1="77.236" y1="165.225" x2="70.236" y2="162.326" stroke="#141414" stroke-width="0.4"/>
<line x1="46.88" y1="138.97" x2="44.101" y2="131.97" stroke="#141414" stroke-width="0.4"/>
<line x1="44.101" y1="131.97" x2="31.134" y2="131.97" stroke="#141414" stroke-width="0.4"/>
<line x1="31.134" y1="131.97" x2="28.356" y2="138.97" stroke="#141414" stroke-width="0.4"/>
<circle cx="50.38" cy="193.333" r="3.08" fill="#99d9fa" stroke="#464646" stroke-width="0.2"/>
<text x="50.38" y="194.80" font-size="4.18" text-anchor="middle" fill="#141414">34</text>
<circle cx="24.856" cy="171.99" r="3.08" fill="#ffe082" stroke="#464646" stroke-width="0.2"/>
<text x="24.856" y="173.45" font-size="4.18" text-anchor="middle" fill="#141414">35</text>
<circle cx="24.856" cy="193.333" r="3.08" fill="#ffe082" stroke="#464646" stroke-width="0.2"/>
<text x="24.856" y="194.80" font-size="4.18" text-anchor="middle" fill="#141414">36</text>
<circle cx="58.558" cy="158.826" r="3.08" fill="#ffe082" stroke="#464646" stroke-width="0.2"/>
<text x="58.558" y="160.29" font-size="4.18" text-anchor="middle" fill="#141414">37</text>
<circle cx="16.678" cy="227.84" r="3.08" fill="#ffe082" stroke="#464646" stroke-width="0.2"/>
<text x="16.678" y="229.30" font-size="4.18" text-anchor="middle" fill="#141414">38</text>
<circle cx="73.736" cy="171.99" r="3.08" fill="#ffe082" stroke="#464646" stroke-width="0.2"/>
<text x="73.736" y="173.45" font-size="4.18" text-anchor="middle" fill="#141414">39</text>
<circle cx="37.618" cy="135.47" r="3.08" fill="#ffe082" stroke="#464646" stroke-width="0.2"/>
<text x="37.618" y="136.93" font-size="4.18" text-anchor="middle" fill="#141414">40</text>
<circle cx="62.45" cy="168.769" r="3.97" fill="#eaf1fe" stroke="#2e78e6" stroke-width="0.3"/>
<text x="62.45" y="170.32" font-size="4.49" text-anchor="middle" fill="#14306e" font-weight="bold">6</text>
<text x="205.0" y="295.0" font-size="3.2" text-anchor="end" fill="#737373" font-family="sans-serif">2 / 4</text>
</svg>
