<svg xmlns="http://www.w3.org/2000/svg" xmlns:xlink="http://www.w3.org/1999/xlink" width="210.00mm" height="297.00mm" viewBox="0 0 210.00 297.00">
<rect x="0" y="0" width="210.00" height="297.00" fill="#ffffff" stroke="#cccccc" stroke-width="0.2"/>
<polygon points="51.224,98.842 58.224,102.395 58.224,118.974 51.224,122.526" fill="rgb(216,216,216)"/>
<polygon points="28.684,98.842 21.684,89.368 21.684,45.158 28.684,35.684" fill="rgb(216,216,216)"/>
<polygon points="28.684,98.842 21.684,102.395 21.684,118.974 28.684,122.526" fill="rgb(216,216,216)"/>
<polygon points="51.224,35.684 54.777,28.684 71.356,28.684 74.908,35.684" fill="rgb(216,216,216)"/>
<polygon points="5.0,185.684 8.553,192.684 25.132,192.684 28.684,185.684" fill="rgb(216,216,216)"/>
<polygon points="74.908,98.842 81.908,89.368 81.908,45.158 74.908,35.684" fill="rgb(216,216,216)"/>
<polygon points="51.224,12.0 47.843,5.0 32.065,5.0 28.684,12.0" fill="rgb(216,216,216)"/>
<polygon points="51.224,98.842 58.224,102.395 58.224,118.974 51.224,122.526" fill="#99d9fa"/>
<line x1="51.224" y1="98.842" x2="28.684" y2="98.842" stroke="#8c8c8c" stroke-width="0.3" stroke-dasharray="1.2,0.8"/>
<line x1="51.224" y1="35.684" x2="51.224" y2="98.842" stroke="#8c8c8c" stroke-width="0.3" stroke-dasharray="1.2,0.8"/>
<line x1="28.684" y1="35.684" x2="51.224" y2="35.684" stroke="#8c8c8c" stroke-width="0.3" stroke-dasharray="1.2,0.8"/>
<line x1="51.224" y1="122.526" x2="28.684" y2="122.526" stroke="#8c8c8c" stroke-width="0.3" stroke-dasharray="1.2,0.8"/>
<line x1="28.684" y1="122.526" x2="28.684" y2="185.684" stroke="#8c8c8c" stroke-width="0.3" stroke-dasharray="1.2,0.8"/>
<line x1="51.224" y1="122.526" x2="51.224" y2="98.842" stroke="#8c8c8c" stroke-width="0.3" stroke-dasharray="1.2,0.8"/>
<line x1="28.684" y1="35.684" x2="28.684" y2="98.842" stroke="#8c8c8c" stroke-width="0.3" stroke-dasharray="1.2,0.8"/>
<line x1="28.684" y1="122.526" x2="28.684" y2="98.842" stroke="#8c8c8c" stroke-width="0.3" stroke-dasharray="1.2,0.8"/>
<line x1="74.908" y1="35.684" x2="51.224" y2="35.684" stroke="#8c8c8c" stroke-width="0.3" stroke-dasharray="1.2,0.8"/>
<line x1="28.684" y1="185.684" x2="5.0" y2="185.684" stroke="#8c8c8c" stroke-width="0.3" stroke-dasharray="1.2,0.8"/>
<line x1="74.908" y1="35.684" x2="74.908" y2="98.842" stroke="#8c8c8c" stroke-width="0.3" stroke-dasharray="1.2,0.8"/>
<line x1="28.684" y1="12.0" x2="51.224" y2="12.0" stroke="#8c8c8c" stroke-width="0.3" stroke-dasharray="1.2,0.8"/>
<line x1="74.908" y1="98.842" x2="51.224" y2="98.842" stroke="#141414" stroke-width="0.4"/>
<line x1="5.0" y1="185.684" x2="5.0" y2="122.526" stroke="#141414" stroke-width="0.4"/>
<line x1="5.0" y1="122.526" x2="28.684" y2="122.526" stroke="#141414" stroke-width="0.4"/>
<line x1="51.224" y1="12.0" x2="51.224" y2="35.684" stroke="#141414" stroke-width="0.4"/>
<line x1="28.684" y1="35.684" x2="28.684" y2="12.0" stroke="#141414" stroke-width="0.4"/>
<line x1="51.224" y1="122.526" x2="51.224" y2="185.684" stroke="#141414" stroke-width="0.4"/>
<line x1="51.224" y1="185.684" x2="28.684" y2="185.684" stroke="#141414" stroke-width="0.4"/>
<line x1="51.224" y1="98.842" x2="58.224" y2="102.395" stroke="#141414" stroke-width="0.4"/>
<line x1="58.224" y1="102.395" x2="58.224" y2="118.974" stroke="#141414" stroke-width="0.4"/>
<line x1="58.224" y1="118.974" x2="51.224" y2="122.526" stroke="#141414" stroke-width="0.4"/>
<line x1="28.684" y1="98.842" x2="21.684" y2="89.368" stroke="#141414" stroke-width="0.4"/>
<line x1="21.684" y1="89.368" x2="21.684" y2="45.158" stroke="#141414" stroke-width="0.4"/>
<line x1="21.684" y1="45.158" x2="28.684" y2="35.684" stroke="#141414" stroke-width="0.4"/>
<line x1="28.684" y1="98.842" x2="21.684" y2="102.395" stroke="#141414" stroke-width="0.4"/>
<line x1="21.684" y1="102.395" x2="21.684" y2="118.974" stroke="#141414" stroke-width="0.4"/>
<line x1="21.684" y1="118.974" x2="28.684" y2="122.526" stroke="#141414" stroke-width="0.4"/>
<line x1="51.224" y1="35.684" x2="54.777" y2="28.684" stroke="#141414" stroke-width="0.4"/>
<line x1="54.777" y1="28.684" x2="71.356" y2="28.684" stroke="#141414" stroke-width="0.4"/>
<line x1="71.356" y1="28.684" x2="74.908" y2="35.684" stroke="#141414" stroke-width="0.4"/>
<line x1="5.0" y1="185.684" x2="8.553" y2="192.684" stroke="#141414" stroke-width="0.4"/>
<line x1="8.553" y1="192.684" x2="25.132" y2="192.684" stroke="#141414" stroke-width="0.4"/>
<line x1="25.132" y1="192.684" x2="28.684" y2="185.684" stroke="#141414" stroke-width="0.4"/>
<line x1="74.908" y1="98.842" x2="81.908" y2="89.368" stroke="#141414" stroke-width="0.4"/>
<line x1="81.908" y1="89.368" x2="81.908" y2="45.158" stroke="#141414" stroke-width="0.4"/>
<line x1="81.908" y1="45.158" x2="74.908" y2="35.684" stroke="#141414" stroke-width="0.4"/>
<line x1="51.224" y1="12.0" x2="47.843" y2="5.0" stroke="#141414" stroke-width="0.4"/>
<line x1="47.843" y1="5.0" x2="32.065" y2="5.0" stroke="#141414" stroke-width="0.4"/>
<line x1="32.065" y1="5.0" x2="28.684" y2="12.0" stroke="#141414" stroke-width="0.4"/>
<circle cx="54.724" cy="110.684" r="3.08" fill="#99d9fa" stroke="#464646" stroke-width="0.2"/>
<text x="54.724" y="112.15" font-size="4.18" text-anchor="middle" fill="#141414">44</text>
<circle cx="25.184" cy="67.263" r="3.08" fill="#ffe082" stroke="#464646" stroke-width="0.2"/>
<text x="25.184" y="68.73" font-size="4.18" text-anchor="middle" fill="#141414">45</text>
<circle cx="25.184" cy="110.684" r="3.08" fill="#ffe082" stroke="#464646" stroke-width="0.2"/>
<text x="25.184" y="112.15" font-size="4.18" text-anchor="middle" fill="#141414">46</text>
<circle cx="63.066" cy="32.184" r="3.08" fill="#ffe082" stroke="#464646" stroke-width="0.2"/>
<text x="63.066" y="33.65" font-size="4.18" text-anchor="middle" fill="#141414">47</text>
<circle cx="16.842" cy="189.184" r="3.08" fill="#ffe082" stroke="#464646" stroke-width="0.2"/>
<text x="16.842" y="190.65" font-size="4.18" text-anchor="middle" fill="#141414">48</text>
<circle cx="78.408" cy="67.263" r="3.08" fill="#ffe082" stroke="#464646" stroke-width="0.2"/>
<text x="78.408" y="68.73" font-size="4.18" text-anchor="middle" fill="#141414">49</text>
<circle cx="39.954" cy="8.5" r="3.08" fill="#ffe082" stroke="#464646" stroke-width="0.2"/>
<text x="39.954" y="9.96" font-size="4.18" text-anchor="middle" fill="#141414">50</text>
<circle cx="67.014" cy="56.737" r="4.60" fill="#eaf1fe" stroke="#2e78e6" stroke-width="0.3"/>
<text x="67.014" y="58.54" font-size="5.20" text-anchor="middle" fill="#14306e" font-weight="bold">8</text>
<text x="205.0" y="295.0" font-size="3.2" text-anchor="end" fill="#737373" font-family="sans-serif">7 / 7</text>
<g pointer-events="none"><text x="105.0" y="83.2" text-anchor="middle" font-family="sans-serif" font-size="12.4" fill="#9aa0a6" fill-opacity="0.3" transform="rotate(-28 105.0 83.2)">papercraft.kr</text><text x="105.0" y="148.5" text-anchor="middle" font-family="sans-serif" font-size="12.4" fill="#9aa0a6" fill-opacity="0.3" transform="rotate(-28 105.0 148.5)">papercraft.kr</text><text x="105.0" y="213.8" text-anchor="middle" font-family="sans-serif" font-size="12.4" fill="#9aa0a6" fill-opacity="0.3" transform="rotate(-28 105.0 213.8)">papercraft.kr</text></g></svg>
