<svg xmlns="http://www.w3.org/2000/svg" xmlns:xlink="http://www.w3.org/1999/xlink" width="210.00mm" height="297.00mm" viewBox="0 0 210.00 297.00">
<rect x="0" y="0" width="210.00" height="297.00" fill="#ffffff" stroke="#cccccc" stroke-width="0.2"/>
<polygon points="77.36,127.712 67.934,129.932 52.101,156.853 54.742,166.17" fill="rgb(216,216,216)"/>
<polygon points="32.784,125.834 23.634,123.547 9.763,97.513 12.969,88.642" fill="rgb(216,216,216)"/>
<polygon points="161.421,132.027 170.571,135.2 183.564,163.6 179.982,172.598" fill="rgb(216,216,216)"/>
<polygon points="161.421,132.027 164.789,123.217 151.398,96.932 142.291,94.477" fill="rgb(216,216,216)"/>
<polygon points="95.363,17.159 88.791,10.393 59.312,11.465 53.25,18.69" fill="rgb(216,216,216)"/>
<polygon points="138.745,166.933 137.431,181.733 144.268,197.814 155.838,207.137" fill="rgb(216,216,216)"/>
<polygon points="96.344,164.756 96.135,179.613 87.687,194.91 75.224,202.999" fill="rgb(216,216,216)"/>
<polygon points="77.738,54.869 64.594,47.939 54.799,33.468 53.25,18.69" fill="rgb(216,216,216)"/>
<polygon points="56.551,91.662 43.96,83.772 26.527,82.565 12.969,88.642" fill="rgb(216,216,216)"/>
<polygon points="195.886,211.623 189.1,217.907 161.066,214.766 155.838,207.137" fill="rgb(216,216,216)"/>
<polygon points="100.234,92.319 112.162,99.59 119.869,113.747 119.501,127.712" fill="rgb(216,216,216)"/>
<line x1="96.344" y1="164.756" x2="77.36" y2="127.712" stroke="#8c8c8c" stroke-width="0.3" stroke-dasharray="1.2,0.8"/>
<line x1="56.551" y1="91.662" x2="77.36" y2="127.712" stroke="#8c8c8c" stroke-width="0.3" stroke-dasharray="1.2,0.8"/>
<line x1="100.234" y1="92.319" x2="77.36" y2="127.712" stroke="#8c8c8c" stroke-width="0.3" stroke-dasharray="1.2,0.8"/>
<line x1="77.36" y1="127.712" x2="119.501" y2="127.712" stroke="#8c8c8c" stroke-width="0.3" stroke-dasharray="1.2,0.8"/>
<line x1="96.344" y1="164.756" x2="54.742" y2="166.17" stroke="#8c8c8c" stroke-width="0.3" stroke-dasharray="1.2,0.8"/>
<line x1="32.784" y1="125.834" x2="56.551" y2="91.662" stroke="#8c8c8c" stroke-width="0.3" stroke-dasharray="1.2,0.8"/>
<line x1="75.224" y1="202.999" x2="54.742" y2="166.17" stroke="#8c8c8c" stroke-width="0.3" stroke-dasharray="1.2,0.8"/>
<line x1="138.745" y1="166.933" x2="161.421" y2="132.027" stroke="#8c8c8c" stroke-width="0.3" stroke-dasharray="1.2,0.8"/>
<line x1="119.363" y1="54.77" x2="77.738" y2="54.869" stroke="#8c8c8c" stroke-width="0.3" stroke-dasharray="1.2,0.8"/>
<line x1="161.421" y1="132.027" x2="119.501" y2="127.712" stroke="#8c8c8c" stroke-width="0.3" stroke-dasharray="1.2,0.8"/>
<line x1="138.745" y1="166.933" x2="179.982" y2="172.598" stroke="#8c8c8c" stroke-width="0.3" stroke-dasharray="1.2,0.8"/>
<line x1="77.738" y1="54.869" x2="95.363" y2="17.159" stroke="#8c8c8c" stroke-width="0.3" stroke-dasharray="1.2,0.8"/>
<line x1="179.982" y1="172.598" x2="155.838" y2="207.137" stroke="#8c8c8c" stroke-width="0.3" stroke-dasharray="1.2,0.8"/>
<line x1="138.745" y1="166.933" x2="96.344" y2="164.756" stroke="#8c8c8c" stroke-width="0.3" stroke-dasharray="1.2,0.8"/>
<line x1="119.501" y1="127.712" x2="138.745" y2="166.933" stroke="#8c8c8c" stroke-width="0.3" stroke-dasharray="1.2,0.8"/>
<line x1="119.501" y1="127.712" x2="96.344" y2="164.756" stroke="#8c8c8c" stroke-width="0.3" stroke-dasharray="1.2,0.8"/>
<line x1="56.551" y1="91.662" x2="77.738" y2="54.869" stroke="#8c8c8c" stroke-width="0.3" stroke-dasharray="1.2,0.8"/>
<line x1="77.738" y1="54.869" x2="100.234" y2="92.319" stroke="#8c8c8c" stroke-width="0.3" stroke-dasharray="1.2,0.8"/>
<line x1="56.551" y1="91.662" x2="100.234" y2="92.319" stroke="#8c8c8c" stroke-width="0.3" stroke-dasharray="1.2,0.8"/>
<line x1="54.742" y1="166.17" x2="77.36" y2="127.712" stroke="#8c8c8c" stroke-width="0.3" stroke-dasharray="1.2,0.8"/>
<line x1="12.969" y1="88.642" x2="32.784" y2="125.834" stroke="#8c8c8c" stroke-width="0.3" stroke-dasharray="1.2,0.8"/>
<line x1="179.982" y1="172.598" x2="161.421" y2="132.027" stroke="#8c8c8c" stroke-width="0.3" stroke-dasharray="1.2,0.8"/>
<line x1="142.291" y1="94.477" x2="161.421" y2="132.027" stroke="#8c8c8c" stroke-width="0.3" stroke-dasharray="1.2,0.8"/>
<line x1="53.25" y1="18.69" x2="95.363" y2="17.159" stroke="#8c8c8c" stroke-width="0.3" stroke-dasharray="1.2,0.8"/>
<line x1="155.838" y1="207.137" x2="138.745" y2="166.933" stroke="#8c8c8c" stroke-width="0.3" stroke-dasharray="1.2,0.8"/>
<line x1="75.224" y1="202.999" x2="96.344" y2="164.756" stroke="#8c8c8c" stroke-width="0.3" stroke-dasharray="1.2,0.8"/>
<line x1="53.25" y1="18.69" x2="77.738" y2="54.869" stroke="#8c8c8c" stroke-width="0.3" stroke-dasharray="1.2,0.8"/>
<line x1="12.969" y1="88.642" x2="56.551" y2="91.662" stroke="#8c8c8c" stroke-width="0.3" stroke-dasharray="1.2,0.8"/>
<line x1="155.838" y1="207.137" x2="195.886" y2="211.623" stroke="#8c8c8c" stroke-width="0.3" stroke-dasharray="1.2,0.8"/>
<line x1="119.501" y1="127.712" x2="100.234" y2="92.319" stroke="#8c8c8c" stroke-width="0.3" stroke-dasharray="1.2,0.8"/>
<line x1="77.36" y1="127.712" x2="32.784" y2="125.834" stroke="#141414" stroke-width="0.4"/>
<line x1="34.927" y1="203.362" x2="54.742" y2="166.17" stroke="#141414" stroke-width="0.4"/>
<line x1="95.363" y1="17.159" x2="119.363" y2="54.77" stroke="#141414" stroke-width="0.4"/>
<line x1="119.363" y1="54.77" x2="100.234" y2="92.319" stroke="#141414" stroke-width="0.4"/>
<line x1="179.982" y1="172.598" x2="195.886" y2="211.623" stroke="#141414" stroke-width="0.4"/>
<line x1="138.745" y1="166.933" x2="115.587" y2="203.977" stroke="#141414" stroke-width="0.4"/>
<line x1="115.587" y1="203.977" x2="96.344" y2="164.756" stroke="#141414" stroke-width="0.4"/>
<line x1="34.056" y1="54.211" x2="77.738" y2="54.869" stroke="#141414" stroke-width="0.4"/>
<line x1="56.551" y1="91.662" x2="34.056" y2="54.211" stroke="#141414" stroke-width="0.4"/>
<line x1="75.224" y1="202.999" x2="34.927" y2="203.362" stroke="#141414" stroke-width="0.4"/>
<line x1="119.501" y1="127.712" x2="142.291" y2="94.477" stroke="#141414" stroke-width="0.4"/>
<line x1="77.36" y1="127.712" x2="67.934" y2="129.932" stroke="#141414" stroke-width="0.4"/>
<line x1="67.934" y1="129.932" x2="52.101" y2="156.853" stroke="#141414" stroke-width="0.4"/>
<line x1="52.101" y1="156.853" x2="54.742" y2="166.17" stroke="#141414" stroke-width="0.4"/>
<line x1="32.784" y1="125.834" x2="23.634" y2="123.547" stroke="#141414" stroke-width="0.4"/>
<line x1="23.634" y1="123.547" x2="9.763" y2="97.513" stroke="#141414" stroke-width="0.4"/>
<line x1="9.763" y1="97.513" x2="12.969" y2="88.642" stroke="#141414" stroke-width="0.4"/>
<line x1="161.421" y1="132.027" x2="170.571" y2="135.2" stroke="#141414" stroke-width="0.4"/>
<line x1="170.571" y1="135.2" x2="183.564" y2="163.6" stroke="#141414" stroke-width="0.4"/>
<line x1="183.564" y1="163.6" x2="179.982" y2="172.598" stroke="#141414" stroke-width="0.4"/>
<line x1="161.421" y1="132.027" x2="164.789" y2="123.217" stroke="#141414" stroke-width="0.4"/>
<line x1="164.789" y1="123.217" x2="151.398" y2="96.932" stroke="#141414" stroke-width="0.4"/>
<line x1="151.398" y1="96.932" x2="142.291" y2="94.477" stroke="#141414" stroke-width="0.4"/>
<line x1="95.363" y1="17.159" x2="88.791" y2="10.393" stroke="#141414" stroke-width="0.4"/>
<line x1="88.791" y1="10.393" x2="59.312" y2="11.465" stroke="#141414" stroke-width="0.4"/>
<line x1="59.312" y1="11.465" x2="53.25" y2="18.69" stroke="#141414" stroke-width="0.4"/>
<line x1="138.745" y1="166.933" x2="137.431" y2="181.733" stroke="#141414" stroke-width="0.4"/>
<line x1="137.431" y1="181.733" x2="144.268" y2="197.814" stroke="#141414" stroke-width="0.4"/>
<line x1="144.268" y1="197.814" x2="155.838" y2="207.137" stroke="#141414" stroke-width="0.4"/>
<line x1="96.344" y1="164.756" x2="96.135" y2="179.613" stroke="#141414" stroke-width="0.4"/>
<line x1="96.135" y1="179.613" x2="87.687" y2="194.91" stroke="#141414" stroke-width="0.4"/>
<line x1="87.687" y1="194.91" x2="75.224" y2="202.999" stroke="#141414" stroke-width="0.4"/>
<line x1="77.738" y1="54.869" x2="64.594" y2="47.939" stroke="#141414" stroke-width="0.4"/>
<line x1="64.594" y1="47.939" x2="54.799" y2="33.468" stroke="#141414" stroke-width="0.4"/>
<line x1="54.799" y1="33.468" x2="53.25" y2="18.69" stroke="#141414" stroke-width="0.4"/>
<line x1="56.551" y1="91.662" x2="43.96" y2="83.772" stroke="#141414" stroke-width="0.4"/>
<line x1="43.96" y1="83.772" x2="26.527" y2="82.565" stroke="#141414" stroke-width="0.4"/>
<line x1="26.527" y1="82.565" x2="12.969" y2="88.642" stroke="#141414" stroke-width="0.4"/>
<line x1="195.886" y1="211.623" x2="189.1" y2="217.907" stroke="#141414" stroke-width="0.4"/>
<line x1="189.1" y1="217.907" x2="161.066" y2="214.766" stroke="#141414" stroke-width="0.4"/>
<line x1="161.066" y1="214.766" x2="155.838" y2="207.137" stroke="#141414" stroke-width="0.4"/>
<line x1="100.234" y1="92.319" x2="112.162" y2="99.59" stroke="#141414" stroke-width="0.4"/>
<line x1="112.162" y1="99.59" x2="119.869" y2="113.747" stroke="#141414" stroke-width="0.4"/>
<line x1="119.869" y1="113.747" x2="119.501" y2="127.712" stroke="#141414" stroke-width="0.4"/>
<circle cx="63.034" cy="145.167" r="1.30" fill="#ffe082" stroke="#464646" stroke-width="0.2"/>
<text x="63.034" y="145.61" font-size="1.27" text-anchor="middle" fill="#141414">23</text>
<circle cx="19.787" cy="108.884" r="1.30" fill="#ffe082" stroke="#464646" stroke-width="0.2"/>
<text x="19.787" y="109.33" font-size="1.27" text-anchor="middle" fill="#141414">24</text>
<circle cx="173.884" cy="150.856" r="1.30" fill="#ffe082" stroke="#464646" stroke-width="0.2"/>
<text x="173.884" y="151.30" font-size="1.27" text-anchor="middle" fill="#141414">25</text>
<circle cx="154.975" cy="111.663" r="1.30" fill="#ffe082" stroke="#464646" stroke-width="0.2"/>
<text x="154.975" y="112.11" font-size="1.27" text-anchor="middle" fill="#141414">26</text>
<circle cx="74.179" cy="14.427" r="1.30" fill="#ffe082" stroke="#464646" stroke-width="0.2"/>
<text x="74.179" y="14.87" font-size="1.27" text-anchor="middle" fill="#141414">27</text>
<circle cx="144.07" cy="188.404" r="1.30" fill="#ffe082" stroke="#464646" stroke-width="0.2"/>
<text x="144.07" y="188.85" font-size="1.27" text-anchor="middle" fill="#141414">28</text>
<circle cx="88.847" cy="185.57" r="1.30" fill="#ffe082" stroke="#464646" stroke-width="0.2"/>
<text x="88.847" y="186.01" font-size="1.27" text-anchor="middle" fill="#141414">29</text>
<circle cx="62.595" cy="38.741" r="1.30" fill="#ffe082" stroke="#464646" stroke-width="0.2"/>
<text x="62.595" y="39.19" font-size="1.27" text-anchor="middle" fill="#141414">30</text>
<circle cx="35.002" cy="86.66" r="1.30" fill="#ffe082" stroke="#464646" stroke-width="0.2"/>
<text x="35.002" y="87.10" font-size="1.27" text-anchor="middle" fill="#141414">31</text>
<circle cx="175.472" cy="212.858" r="1.30" fill="#ffe082" stroke="#464646" stroke-width="0.2"/>
<text x="175.472" y="213.30" font-size="1.27" text-anchor="middle" fill="#141414">32</text>
<circle cx="112.941" cy="108.342" r="1.30" fill="#ffe082" stroke="#464646" stroke-width="0.2"/>
<text x="112.941" y="108.79" font-size="1.27" text-anchor="middle" fill="#141414">33</text>
<circle cx="98.061" cy="218.613" r="4.6" fill="#eaf1fe" stroke="#2e78e6" stroke-width="0.3"/>
<text x="98.061" y="220.413" font-size="5.2" text-anchor="middle" fill="#14306e" font-weight="bold">3</text>
<polygon points="34.549,246.07 27.959,245.902 26.952,244.639 28.254,238.176" fill="rgb(216,216,216)"/>
<polygon points="44.645,246.07 51.236,245.902 52.243,244.639 50.94,238.176" fill="rgb(216,216,216)"/>
<polygon points="40.406,282.321 35.24,283.638 34.942,290.781 39.98,292.525" fill="rgb(216,216,216)"/>
<polygon points="50.94,238.176 55.525,235.576 53.952,228.686 48.694,228.333" fill="rgb(216,216,216)"/>
<polygon points="48.694,228.333 49.52,223.128 43.152,220.061 39.597,223.953" fill="rgb(216,216,216)"/>
<polygon points="52.63,283.779 53.9,288.855 57.334,289.899 61.215,286.39" fill="rgb(216,216,216)"/>
<polygon points="74.145,252.396 78.748,259.984 69.697,283.779 61.215,286.39" fill="rgb(216,216,216)"/>
<polygon points="39.597,223.953 36.043,220.061 29.675,223.128 30.501,228.333" fill="rgb(216,216,216)"/>
<polygon points="17.596,286.382 19.55,289.332 23.913,287.96 23.828,284.423" fill="rgb(216,216,216)"/>
<polygon points="30.501,228.333 25.243,228.686 23.67,235.576 28.254,238.176" fill="rgb(216,216,216)"/>
<polygon points="23.828,284.423 27.21,287.188 28.234,286.973 30.222,283.082" fill="rgb(216,216,216)"/>
<line x1="34.549" y1="246.07" x2="44.645" y2="246.07" stroke="#8c8c8c" stroke-width="0.3" stroke-dasharray="1.2,0.8"/>
<line x1="40.406" y1="282.321" x2="34.549" y2="246.07" stroke="#8c8c8c" stroke-width="0.3" stroke-dasharray="1.2,0.8"/>
<line x1="34.549" y1="246.07" x2="30.221" y2="283.082" stroke="#8c8c8c" stroke-width="0.3" stroke-dasharray="1.2,0.8"/>
<line x1="44.645" y1="246.07" x2="40.406" y2="282.321" stroke="#8c8c8c" stroke-width="0.3" stroke-dasharray="1.2,0.8"/>
<line x1="54.69" y1="247.085" x2="40.406" y2="282.321" stroke="#8c8c8c" stroke-width="0.3" stroke-dasharray="1.2,0.8"/>
<line x1="52.629" y1="283.779" x2="40.406" y2="282.321" stroke="#8c8c8c" stroke-width="0.3" stroke-dasharray="1.2,0.8"/>
<line x1="54.69" y1="247.085" x2="52.629" y2="283.779" stroke="#8c8c8c" stroke-width="0.3" stroke-dasharray="1.2,0.8"/>
<line x1="64.552" y1="249.25" x2="52.629" y2="283.779" stroke="#8c8c8c" stroke-width="0.3" stroke-dasharray="1.2,0.8"/>
<line x1="14.631" y1="249.235" x2="23.828" y2="284.423" stroke="#8c8c8c" stroke-width="0.3" stroke-dasharray="1.2,0.8"/>
<line x1="24.513" y1="247.164" x2="30.221" y2="283.082" stroke="#8c8c8c" stroke-width="0.3" stroke-dasharray="1.2,0.8"/>
<line x1="74.145" y1="252.397" x2="52.629" y2="283.779" stroke="#8c8c8c" stroke-width="0.3" stroke-dasharray="1.2,0.8"/>
<line x1="28.254" y1="238.176" x2="34.549" y2="246.07" stroke="#8c8c8c" stroke-width="0.3" stroke-dasharray="1.2,0.8"/>
<line x1="50.94" y1="238.176" x2="44.645" y2="246.07" stroke="#8c8c8c" stroke-width="0.3" stroke-dasharray="1.2,0.8"/>
<line x1="39.98" y1="292.525" x2="40.406" y2="282.321" stroke="#8c8c8c" stroke-width="0.3" stroke-dasharray="1.2,0.8"/>
<line x1="48.694" y1="228.333" x2="50.94" y2="238.176" stroke="#8c8c8c" stroke-width="0.3" stroke-dasharray="1.2,0.8"/>
<line x1="39.597" y1="223.953" x2="48.694" y2="228.333" stroke="#8c8c8c" stroke-width="0.3" stroke-dasharray="1.2,0.8"/>
<line x1="61.215" y1="286.39" x2="52.63" y2="283.779" stroke="#8c8c8c" stroke-width="0.3" stroke-dasharray="1.2,0.8"/>
<line x1="61.215" y1="286.39" x2="74.145" y2="252.396" stroke="#8c8c8c" stroke-width="0.3" stroke-dasharray="1.2,0.8"/>
<line x1="30.501" y1="228.333" x2="39.597" y2="223.953" stroke="#8c8c8c" stroke-width="0.3" stroke-dasharray="1.2,0.8"/>
<line x1="23.828" y1="284.423" x2="17.596" y2="286.382" stroke="#8c8c8c" stroke-width="0.3" stroke-dasharray="1.2,0.8"/>
<line x1="28.254" y1="238.176" x2="30.501" y2="228.333" stroke="#8c8c8c" stroke-width="0.3" stroke-dasharray="1.2,0.8"/>
<line x1="30.222" y1="283.082" x2="23.828" y2="284.423" stroke="#8c8c8c" stroke-width="0.3" stroke-dasharray="1.2,0.8"/>
<line x1="24.513" y1="247.164" x2="34.549" y2="246.07" stroke="#141414" stroke-width="0.4"/>
<line x1="44.645" y1="246.07" x2="54.69" y2="247.085" stroke="#141414" stroke-width="0.4"/>
<line x1="40.406" y1="282.321" x2="30.221" y2="283.082" stroke="#141414" stroke-width="0.4"/>
<line x1="54.69" y1="247.085" x2="64.552" y2="249.25" stroke="#141414" stroke-width="0.4"/>
<line x1="64.552" y1="249.25" x2="74.145" y2="252.397" stroke="#141414" stroke-width="0.4"/>
<line x1="52.629" y1="283.779" x2="51.75" y2="292.709" stroke="#141414" stroke-width="0.4"/>
<line x1="17.596" y1="286.382" x2="5.0" y2="252.264" stroke="#141414" stroke-width="0.4"/>
<line x1="5.0" y1="252.264" x2="14.631" y2="249.235" stroke="#141414" stroke-width="0.4"/>
<line x1="51.75" y1="292.709" x2="45.821" y2="295.451" stroke="#141414" stroke-width="0.4"/>
<line x1="14.631" y1="249.235" x2="24.513" y2="247.164" stroke="#141414" stroke-width="0.4"/>
<line x1="45.821" y1="295.451" x2="39.98" y2="292.525" stroke="#141414" stroke-width="0.4"/>
<line x1="34.549" y1="246.07" x2="27.959" y2="245.902" stroke="#141414" stroke-width="0.4"/>
<line x1="27.959" y1="245.902" x2="26.952" y2="244.639" stroke="#141414" stroke-width="0.4"/>
<line x1="26.952" y1="244.639" x2="28.254" y2="238.176" stroke="#141414" stroke-width="0.4"/>
<line x1="44.645" y1="246.07" x2="51.236" y2="245.902" stroke="#141414" stroke-width="0.4"/>
<line x1="51.236" y1="245.902" x2="52.243" y2="244.639" stroke="#141414" stroke-width="0.4"/>
<line x1="52.243" y1="244.639" x2="50.94" y2="238.176" stroke="#141414" stroke-width="0.4"/>
<line x1="40.406" y1="282.321" x2="35.24" y2="283.638" stroke="#141414" stroke-width="0.4"/>
<line x1="35.24" y1="283.638" x2="34.942" y2="290.781" stroke="#141414" stroke-width="0.4"/>
<line x1="34.942" y1="290.781" x2="39.98" y2="292.525" stroke="#141414" stroke-width="0.4"/>
<line x1="50.94" y1="238.176" x2="55.525" y2="235.576" stroke="#141414" stroke-width="0.4"/>
<line x1="55.525" y1="235.576" x2="53.952" y2="228.686" stroke="#141414" stroke-width="0.4"/>
<line x1="53.952" y1="228.686" x2="48.694" y2="228.333" stroke="#141414" stroke-width="0.4"/>
<line x1="48.694" y1="228.333" x2="49.52" y2="223.128" stroke="#141414" stroke-width="0.4"/>
<line x1="49.52" y1="223.128" x2="43.152" y2="220.061" stroke="#141414" stroke-width="0.4"/>
<line x1="43.152" y1="220.061" x2="39.597" y2="223.953" stroke="#141414" stroke-width="0.4"/>
<line x1="52.63" y1="283.779" x2="53.9" y2="288.855" stroke="#141414" stroke-width="0.4"/>
<line x1="53.9" y1="288.855" x2="57.334" y2="289.899" stroke="#141414" stroke-width="0.4"/>
<line x1="57.334" y1="289.899" x2="61.215" y2="286.39" stroke="#141414" stroke-width="0.4"/>
<line x1="74.145" y1="252.396" x2="78.748" y2="259.984" stroke="#141414" stroke-width="0.4"/>
<line x1="78.748" y1="259.984" x2="69.697" y2="283.779" stroke="#141414" stroke-width="0.4"/>
<line x1="69.697" y1="283.779" x2="61.215" y2="286.39" stroke="#141414" stroke-width="0.4"/>
<line x1="39.597" y1="223.953" x2="36.043" y2="220.061" stroke="#141414" stroke-width="0.4"/>
<line x1="36.043" y1="220.061" x2="29.675" y2="223.128" stroke="#141414" stroke-width="0.4"/>
<line x1="29.675" y1="223.128" x2="30.501" y2="228.333" stroke="#141414" stroke-width="0.4"/>
<line x1="17.596" y1="286.382" x2="19.55" y2="289.332" stroke="#141414" stroke-width="0.4"/>
<line x1="19.55" y1="289.332" x2="23.913" y2="287.96" stroke="#141414" stroke-width="0.4"/>
<line x1="23.913" y1="287.96" x2="23.828" y2="284.423" stroke="#141414" stroke-width="0.4"/>
<line x1="30.501" y1="228.333" x2="25.243" y2="228.686" stroke="#141414" stroke-width="0.4"/>
<line x1="25.243" y1="228.686" x2="23.67" y2="235.576" stroke="#141414" stroke-width="0.4"/>
<line x1="23.67" y1="235.576" x2="28.254" y2="238.176" stroke="#141414" stroke-width="0.4"/>
<line x1="23.828" y1="284.423" x2="27.21" y2="287.188" stroke="#141414" stroke-width="0.4"/>
<line x1="27.21" y1="287.188" x2="28.234" y2="286.973" stroke="#141414" stroke-width="0.4"/>
<line x1="28.234" y1="286.973" x2="30.222" y2="283.082" stroke="#141414" stroke-width="0.4"/>
<circle cx="29.429" cy="243.696" r="1.30" fill="#ffe082" stroke="#464646" stroke-width="0.2"/>
<text x="29.429" y="244.14" font-size="1.27" text-anchor="middle" fill="#141414">87</text>
<circle cx="49.766" cy="243.696" r="1.30" fill="#ffe082" stroke="#464646" stroke-width="0.2"/>
<text x="49.766" y="244.14" font-size="1.27" text-anchor="middle" fill="#141414">88</text>
<circle cx="37.642" cy="287.316" r="1.30" fill="#ffe082" stroke="#464646" stroke-width="0.2"/>
<text x="37.642" y="287.76" font-size="1.27" text-anchor="middle" fill="#141414">89</text>
<circle cx="52.278" cy="232.693" r="1.30" fill="#ffe082" stroke="#464646" stroke-width="0.2"/>
<text x="52.278" y="233.14" font-size="1.27" text-anchor="middle" fill="#141414">90</text>
<circle cx="45.241" cy="223.869" r="1.30" fill="#ffe082" stroke="#464646" stroke-width="0.2"/>
<text x="45.241" y="224.31" font-size="1.27" text-anchor="middle" fill="#141414">91</text>
<circle cx="56.269" cy="287.231" r="1.30" fill="#ffe082" stroke="#464646" stroke-width="0.2"/>
<text x="56.269" y="287.68" font-size="1.27" text-anchor="middle" fill="#141414">92</text>
<circle cx="70.951" cy="270.637" r="1.30" fill="#ffe082" stroke="#464646" stroke-width="0.2"/>
<text x="70.951" y="271.08" font-size="1.27" text-anchor="middle" fill="#141414">93</text>
<circle cx="33.954" cy="223.869" r="1.30" fill="#ffe082" stroke="#464646" stroke-width="0.2"/>
<text x="33.954" y="224.31" font-size="1.27" text-anchor="middle" fill="#141414">94</text>
<circle cx="21.222" cy="287.024" r="1.30" fill="#ffe082" stroke="#464646" stroke-width="0.2"/>
<text x="21.222" y="287.47" font-size="1.27" text-anchor="middle" fill="#141414">95</text>
<circle cx="26.917" cy="232.693" r="1.30" fill="#ffe082" stroke="#464646" stroke-width="0.2"/>
<text x="26.917" y="233.14" font-size="1.27" text-anchor="middle" fill="#141414">96</text>
<circle cx="27.373" cy="285.416" r="1.30" fill="#ffe082" stroke="#464646" stroke-width="0.2"/>
<text x="27.373" y="285.86" font-size="1.27" text-anchor="middle" fill="#141414">97</text>
<circle cx="41.874" cy="209.413" r="4.6" fill="#eaf1fe" stroke="#2e78e6" stroke-width="0.3"/>
<text x="41.874" y="211.21300000000002" font-size="5.2" text-anchor="middle" fill="#14306e" font-weight="bold">9</text>
<polygon points="111.297,246.07 104.707,245.902 103.7,244.639 105.003,238.176" fill="rgb(216,216,216)"/>
<polygon points="121.393,246.07 127.984,245.902 128.991,244.639 127.688,238.176" fill="rgb(216,216,216)"/>
<polygon points="117.154,282.321 111.988,283.638 111.69,290.781 116.728,292.525" fill="rgb(216,216,216)"/>
<polygon points="127.688,238.176 132.273,235.576 130.7,228.686 125.442,228.333" fill="rgb(216,216,216)"/>
<polygon points="125.442,228.333 126.268,223.128 119.9,220.061 116.345,223.953" fill="rgb(216,216,216)"/>
<polygon points="129.378,283.779 130.648,288.855 134.082,289.899 137.963,286.39" fill="rgb(216,216,216)"/>
<polygon points="150.893,252.396 155.496,259.984 146.445,283.779 137.963,286.39" fill="rgb(216,216,216)"/>
<polygon points="116.345,223.953 112.791,220.061 106.423,223.128 107.249,228.333" fill="rgb(216,216,216)"/>
<polygon points="94.344,286.382 96.298,289.332 100.661,287.96 100.576,284.423" fill="rgb(216,216,216)"/>
<polygon points="107.249,228.333 101.991,228.686 100.418,235.576 105.003,238.176" fill="rgb(216,216,216)"/>
<polygon points="100.576,284.423 103.958,287.188 104.982,286.973 106.97,283.082" fill="rgb(216,216,216)"/>
<line x1="111.297" y1="246.07" x2="121.393" y2="246.07" stroke="#8c8c8c" stroke-width="0.3" stroke-dasharray="1.2,0.8"/>
<line x1="117.154" y1="282.321" x2="111.297" y2="246.07" stroke="#8c8c8c" stroke-width="0.3" stroke-dasharray="1.2,0.8"/>
<line x1="111.297" y1="246.07" x2="106.97" y2="283.082" stroke="#8c8c8c" stroke-width="0.3" stroke-dasharray="1.2,0.8"/>
<line x1="121.393" y1="246.07" x2="117.154" y2="282.321" stroke="#8c8c8c" stroke-width="0.3" stroke-dasharray="1.2,0.8"/>
<line x1="131.438" y1="247.085" x2="117.154" y2="282.321" stroke="#8c8c8c" stroke-width="0.3" stroke-dasharray="1.2,0.8"/>
<line x1="129.377" y1="283.779" x2="117.154" y2="282.321" stroke="#8c8c8c" stroke-width="0.3" stroke-dasharray="1.2,0.8"/>
<line x1="131.438" y1="247.085" x2="129.377" y2="283.779" stroke="#8c8c8c" stroke-width="0.3" stroke-dasharray="1.2,0.8"/>
<line x1="141.3" y1="249.25" x2="129.377" y2="283.779" stroke="#8c8c8c" stroke-width="0.3" stroke-dasharray="1.2,0.8"/>
<line x1="91.379" y1="249.235" x2="100.576" y2="284.423" stroke="#8c8c8c" stroke-width="0.3" stroke-dasharray="1.2,0.8"/>
<line x1="101.261" y1="247.164" x2="106.97" y2="283.082" stroke="#8c8c8c" stroke-width="0.3" stroke-dasharray="1.2,0.8"/>
<line x1="150.893" y1="252.397" x2="129.377" y2="283.779" stroke="#8c8c8c" stroke-width="0.3" stroke-dasharray="1.2,0.8"/>
<line x1="105.003" y1="238.176" x2="111.297" y2="246.07" stroke="#8c8c8c" stroke-width="0.3" stroke-dasharray="1.2,0.8"/>
<line x1="127.688" y1="238.176" x2="121.393" y2="246.07" stroke="#8c8c8c" stroke-width="0.3" stroke-dasharray="1.2,0.8"/>
<line x1="116.728" y1="292.525" x2="117.154" y2="282.321" stroke="#8c8c8c" stroke-width="0.3" stroke-dasharray="1.2,0.8"/>
<line x1="125.442" y1="228.333" x2="127.688" y2="238.176" stroke="#8c8c8c" stroke-width="0.3" stroke-dasharray="1.2,0.8"/>
<line x1="116.345" y1="223.953" x2="125.442" y2="228.333" stroke="#8c8c8c" stroke-width="0.3" stroke-dasharray="1.2,0.8"/>
<line x1="137.963" y1="286.39" x2="129.378" y2="283.779" stroke="#8c8c8c" stroke-width="0.3" stroke-dasharray="1.2,0.8"/>
<line x1="137.963" y1="286.39" x2="150.893" y2="252.396" stroke="#8c8c8c" stroke-width="0.3" stroke-dasharray="1.2,0.8"/>
<line x1="107.249" y1="228.333" x2="116.345" y2="223.953" stroke="#8c8c8c" stroke-width="0.3" stroke-dasharray="1.2,0.8"/>
<line x1="100.576" y1="284.423" x2="94.344" y2="286.382" stroke="#8c8c8c" stroke-width="0.3" stroke-dasharray="1.2,0.8"/>
<line x1="105.003" y1="238.176" x2="107.249" y2="228.333" stroke="#8c8c8c" stroke-width="0.3" stroke-dasharray="1.2,0.8"/>
<line x1="106.97" y1="283.082" x2="100.576" y2="284.423" stroke="#8c8c8c" stroke-width="0.3" stroke-dasharray="1.2,0.8"/>
<line x1="101.261" y1="247.164" x2="111.297" y2="246.07" stroke="#141414" stroke-width="0.4"/>
<line x1="121.393" y1="246.07" x2="131.438" y2="247.085" stroke="#141414" stroke-width="0.4"/>
<line x1="117.154" y1="282.321" x2="106.97" y2="283.082" stroke="#141414" stroke-width="0.4"/>
<line x1="131.438" y1="247.085" x2="141.3" y2="249.25" stroke="#141414" stroke-width="0.4"/>
<line x1="141.3" y1="249.25" x2="150.893" y2="252.397" stroke="#141414" stroke-width="0.4"/>
<line x1="129.377" y1="283.779" x2="128.498" y2="292.709" stroke="#141414" stroke-width="0.4"/>
<line x1="94.344" y1="286.382" x2="81.748" y2="252.264" stroke="#141414" stroke-width="0.4"/>
<line x1="81.748" y1="252.264" x2="91.379" y2="249.235" stroke="#141414" stroke-width="0.4"/>
<line x1="128.498" y1="292.709" x2="122.569" y2="295.451" stroke="#141414" stroke-width="0.4"/>
<line x1="91.379" y1="249.235" x2="101.261" y2="247.164" stroke="#141414" stroke-width="0.4"/>
<line x1="122.569" y1="295.451" x2="116.728" y2="292.525" stroke="#141414" stroke-width="0.4"/>
<line x1="111.297" y1="246.07" x2="104.707" y2="245.902" stroke="#141414" stroke-width="0.4"/>
<line x1="104.707" y1="245.902" x2="103.7" y2="244.639" stroke="#141414" stroke-width="0.4"/>
<line x1="103.7" y1="244.639" x2="105.003" y2="238.176" stroke="#141414" stroke-width="0.4"/>
<line x1="121.393" y1="246.07" x2="127.984" y2="245.902" stroke="#141414" stroke-width="0.4"/>
<line x1="127.984" y1="245.902" x2="128.991" y2="244.639" stroke="#141414" stroke-width="0.4"/>
<line x1="128.991" y1="244.639" x2="127.688" y2="238.176" stroke="#141414" stroke-width="0.4"/>
<line x1="117.154" y1="282.321" x2="111.988" y2="283.638" stroke="#141414" stroke-width="0.4"/>
<line x1="111.988" y1="283.638" x2="111.69" y2="290.781" stroke="#141414" stroke-width="0.4"/>
<line x1="111.69" y1="290.781" x2="116.728" y2="292.525" stroke="#141414" stroke-width="0.4"/>
<line x1="127.688" y1="238.176" x2="132.273" y2="235.576" stroke="#141414" stroke-width="0.4"/>
<line x1="132.273" y1="235.576" x2="130.7" y2="228.686" stroke="#141414" stroke-width="0.4"/>
<line x1="130.7" y1="228.686" x2="125.442" y2="228.333" stroke="#141414" stroke-width="0.4"/>
<line x1="125.442" y1="228.333" x2="126.268" y2="223.128" stroke="#141414" stroke-width="0.4"/>
<line x1="126.268" y1="223.128" x2="119.9" y2="220.061" stroke="#141414" stroke-width="0.4"/>
<line x1="119.9" y1="220.061" x2="116.345" y2="223.953" stroke="#141414" stroke-width="0.4"/>
<line x1="129.378" y1="283.779" x2="130.648" y2="288.855" stroke="#141414" stroke-width="0.4"/>
<line x1="130.648" y1="288.855" x2="134.082" y2="289.899" stroke="#141414" stroke-width="0.4"/>
<line x1="134.082" y1="289.899" x2="137.963" y2="286.39" stroke="#141414" stroke-width="0.4"/>
<line x1="150.893" y1="252.396" x2="155.496" y2="259.984" stroke="#141414" stroke-width="0.4"/>
<line x1="155.496" y1="259.984" x2="146.445" y2="283.779" stroke="#141414" stroke-width="0.4"/>
<line x1="146.445" y1="283.779" x2="137.963" y2="286.39" stroke="#141414" stroke-width="0.4"/>
<line x1="116.345" y1="223.953" x2="112.791" y2="220.061" stroke="#141414" stroke-width="0.4"/>
<line x1="112.791" y1="220.061" x2="106.423" y2="223.128" stroke="#141414" stroke-width="0.4"/>
<line x1="106.423" y1="223.128" x2="107.249" y2="228.333" stroke="#141414" stroke-width="0.4"/>
<line x1="94.344" y1="286.382" x2="96.298" y2="289.332" stroke="#141414" stroke-width="0.4"/>
<line x1="96.298" y1="289.332" x2="100.661" y2="287.96" stroke="#141414" stroke-width="0.4"/>
<line x1="100.661" y1="287.96" x2="100.576" y2="284.423" stroke="#141414" stroke-width="0.4"/>
<line x1="107.249" y1="228.333" x2="101.991" y2="228.686" stroke="#141414" stroke-width="0.4"/>
<line x1="101.991" y1="228.686" x2="100.418" y2="235.576" stroke="#141414" stroke-width="0.4"/>
<line x1="100.418" y1="235.576" x2="105.003" y2="238.176" stroke="#141414" stroke-width="0.4"/>
<line x1="100.576" y1="284.423" x2="103.958" y2="287.188" stroke="#141414" stroke-width="0.4"/>
<line x1="103.958" y1="287.188" x2="104.982" y2="286.973" stroke="#141414" stroke-width="0.4"/>
<line x1="104.982" y1="286.973" x2="106.97" y2="283.082" stroke="#141414" stroke-width="0.4"/>
<circle cx="106.177" cy="243.696" r="1.30" fill="#ffe082" stroke="#464646" stroke-width="0.2"/>
<text x="106.177" y="244.14" font-size="1.27" text-anchor="middle" fill="#141414">111</text>
<circle cx="126.514" cy="243.696" r="1.30" fill="#ffe082" stroke="#464646" stroke-width="0.2"/>
<text x="126.514" y="244.14" font-size="1.27" text-anchor="middle" fill="#141414">112</text>
<circle cx="114.39" cy="287.316" r="1.30" fill="#ffe082" stroke="#464646" stroke-width="0.2"/>
<text x="114.39" y="287.76" font-size="1.27" text-anchor="middle" fill="#141414">113</text>
<circle cx="129.026" cy="232.693" r="1.30" fill="#ffe082" stroke="#464646" stroke-width="0.2"/>
<text x="129.026" y="233.14" font-size="1.27" text-anchor="middle" fill="#141414">114</text>
<circle cx="121.989" cy="223.869" r="1.30" fill="#ffe082" stroke="#464646" stroke-width="0.2"/>
<text x="121.989" y="224.31" font-size="1.27" text-anchor="middle" fill="#141414">115</text>
<circle cx="133.018" cy="287.231" r="1.30" fill="#ffe082" stroke="#464646" stroke-width="0.2"/>
<text x="133.018" y="287.68" font-size="1.27" text-anchor="middle" fill="#141414">116</text>
<circle cx="147.699" cy="270.637" r="1.30" fill="#ffe082" stroke="#464646" stroke-width="0.2"/>
<text x="147.699" y="271.08" font-size="1.27" text-anchor="middle" fill="#141414">117</text>
<circle cx="110.702" cy="223.869" r="1.30" fill="#ffe082" stroke="#464646" stroke-width="0.2"/>
<text x="110.702" y="224.31" font-size="1.27" text-anchor="middle" fill="#141414">118</text>
<circle cx="97.97" cy="287.024" r="1.30" fill="#ffe082" stroke="#464646" stroke-width="0.2"/>
<text x="97.97" y="287.47" font-size="1.27" text-anchor="middle" fill="#141414">119</text>
<circle cx="103.665" cy="232.693" r="1.30" fill="#ffe082" stroke="#464646" stroke-width="0.2"/>
<text x="103.665" y="233.14" font-size="1.27" text-anchor="middle" fill="#141414">120</text>
<circle cx="104.121" cy="285.416" r="1.30" fill="#ffe082" stroke="#464646" stroke-width="0.2"/>
<text x="104.121" y="285.86" font-size="1.27" text-anchor="middle" fill="#141414">121</text>
<circle cx="118.622" cy="209.413" r="4.6" fill="#eaf1fe" stroke="#2e78e6" stroke-width="0.3"/>
<text x="118.622" y="211.21300000000002" font-size="5.2" text-anchor="middle" fill="#14306e" font-weight="bold">11</text>
<g pointer-events="none"><text x="105.0" y="83.2" text-anchor="middle" font-family="sans-serif" font-size="12.4" fill="#9aa0a6" fill-opacity="0.3" transform="rotate(-28 105.0 83.2)">papercraft.kr</text><text x="105.0" y="148.5" text-anchor="middle" font-family="sans-serif" font-size="12.4" fill="#9aa0a6" fill-opacity="0.3" transform="rotate(-28 105.0 148.5)">papercraft.kr</text><text x="105.0" y="213.8" text-anchor="middle" font-family="sans-serif" font-size="12.4" fill="#9aa0a6" fill-opacity="0.3" transform="rotate(-28 105.0 213.8)">papercraft.kr</text></g></svg>
