<svg xmlns="http://www.w3.org/2000/svg" xmlns:xlink="http://www.w3.org/1999/xlink" width="210.00mm" height="297.00mm" viewBox="0 0 210.00 297.00">
<rect x="0" y="0" width="210.00" height="297.00" fill="#ffffff" stroke="#cccccc" stroke-width="0.2"/>
<polygon points="125.326,141.933 124.374,128.398 98.226,76.083 87.972,67.197" fill="rgb(216,216,216)"/>
<polygon points="62.575,166.691 63.99,144.522 72.5,117.012 83.851,97.917" fill="rgb(216,216,216)"/>
<polygon points="38.048,145.208 29.322,141.768 8.524,111.86 8.337,102.482" fill="rgb(216,216,216)"/>
<polygon points="38.048,107.828 34.512,101.908 13.714,98.166 8.337,102.482" fill="rgb(216,216,216)"/>
<polygon points="88.209,8.853 93.374,17.626 93.207,58.467 87.972,67.197" fill="rgb(216,216,216)"/>
<polygon points="88.209,8.853 78.083,8.713 42.999,29.055 38.09,37.912" fill="rgb(216,216,216)"/>
<polygon points="57.499,69.678 50.15,67.625 36.564,45.388 38.09,37.912" fill="rgb(216,216,216)"/>
<line x1="83.851" y1="97.917" x2="125.326" y2="141.933" stroke="#8c8c8c" stroke-width="0.3" stroke-dasharray="1.2,0.8"/>
<line x1="38.047" y1="107.828" x2="83.851" y2="97.917" stroke="#8c8c8c" stroke-width="0.3" stroke-dasharray="1.2,0.8"/>
<line x1="83.851" y1="97.917" x2="87.972" y2="67.197" stroke="#8c8c8c" stroke-width="0.3" stroke-dasharray="1.2,0.8"/>
<line x1="87.972" y1="67.197" x2="57.499" y2="69.678" stroke="#8c8c8c" stroke-width="0.3" stroke-dasharray="1.2,0.8"/>
<line x1="87.972" y1="67.197" x2="38.09" y2="37.912" stroke="#8c8c8c" stroke-width="0.3" stroke-dasharray="1.2,0.8"/>
<line x1="57.499" y1="69.678" x2="83.851" y2="97.917" stroke="#8c8c8c" stroke-width="0.3" stroke-dasharray="1.2,0.8"/>
<line x1="87.972" y1="67.197" x2="125.326" y2="141.933" stroke="#8c8c8c" stroke-width="0.3" stroke-dasharray="1.2,0.8"/>
<line x1="83.851" y1="97.917" x2="62.575" y2="166.691" stroke="#8c8c8c" stroke-width="0.3" stroke-dasharray="1.2,0.8"/>
<line x1="8.337" y1="102.482" x2="38.048" y2="145.208" stroke="#8c8c8c" stroke-width="0.3" stroke-dasharray="1.2,0.8"/>
<line x1="8.337" y1="102.482" x2="38.048" y2="107.828" stroke="#8c8c8c" stroke-width="0.3" stroke-dasharray="1.2,0.8"/>
<line x1="87.972" y1="67.197" x2="88.209" y2="8.853" stroke="#8c8c8c" stroke-width="0.3" stroke-dasharray="1.2,0.8"/>
<line x1="38.09" y1="37.912" x2="88.209" y2="8.853" stroke="#8c8c8c" stroke-width="0.3" stroke-dasharray="1.2,0.8"/>
<line x1="38.09" y1="37.912" x2="57.499" y2="69.678" stroke="#8c8c8c" stroke-width="0.3" stroke-dasharray="1.2,0.8"/>
<line x1="125.326" y1="141.933" x2="62.575" y2="166.691" stroke="#141414" stroke-width="0.4"/>
<line x1="83.851" y1="97.917" x2="38.047" y2="145.208" stroke="#141414" stroke-width="0.4"/>
<line x1="38.047" y1="107.828" x2="57.499" y2="69.678" stroke="#141414" stroke-width="0.4"/>
<line x1="125.326" y1="141.933" x2="124.374" y2="128.398" stroke="#141414" stroke-width="0.4"/>
<line x1="124.374" y1="128.398" x2="98.226" y2="76.083" stroke="#141414" stroke-width="0.4"/>
<line x1="98.226" y1="76.083" x2="87.972" y2="67.197" stroke="#141414" stroke-width="0.4"/>
<line x1="62.575" y1="166.691" x2="63.99" y2="144.522" stroke="#141414" stroke-width="0.4"/>
<line x1="63.99" y1="144.522" x2="72.5" y2="117.012" stroke="#141414" stroke-width="0.4"/>
<line x1="72.5" y1="117.012" x2="83.851" y2="97.917" stroke="#141414" stroke-width="0.4"/>
<line x1="38.048" y1="145.208" x2="29.322" y2="141.768" stroke="#141414" stroke-width="0.4"/>
<line x1="29.322" y1="141.768" x2="8.524" y2="111.86" stroke="#141414" stroke-width="0.4"/>
<line x1="8.524" y1="111.86" x2="8.337" y2="102.482" stroke="#141414" stroke-width="0.4"/>
<line x1="38.048" y1="107.828" x2="34.512" y2="101.908" stroke="#141414" stroke-width="0.4"/>
<line x1="34.512" y1="101.908" x2="13.714" y2="98.166" stroke="#141414" stroke-width="0.4"/>
<line x1="13.714" y1="98.166" x2="8.337" y2="102.482" stroke="#141414" stroke-width="0.4"/>
<line x1="88.209" y1="8.853" x2="93.374" y2="17.626" stroke="#141414" stroke-width="0.4"/>
<line x1="93.374" y1="17.626" x2="93.207" y2="58.467" stroke="#141414" stroke-width="0.4"/>
<line x1="93.207" y1="58.467" x2="87.972" y2="67.197" stroke="#141414" stroke-width="0.4"/>
<line x1="88.209" y1="8.853" x2="78.083" y2="8.713" stroke="#141414" stroke-width="0.4"/>
<line x1="78.083" y1="8.713" x2="42.999" y2="29.055" stroke="#141414" stroke-width="0.4"/>
<line x1="42.999" y1="29.055" x2="38.09" y2="37.912" stroke="#141414" stroke-width="0.4"/>
<line x1="57.499" y1="69.678" x2="50.15" y2="67.625" stroke="#141414" stroke-width="0.4"/>
<line x1="50.15" y1="67.625" x2="36.564" y2="45.388" stroke="#141414" stroke-width="0.4"/>
<line x1="36.564" y1="45.388" x2="38.09" y2="37.912" stroke="#141414" stroke-width="0.4"/>
<circle cx="108.975" cy="103.403" r="2.29" fill="#ffe082" stroke="#464646" stroke-width="0.2"/>
<text x="108.975" y="104.49" font-size="3.11" text-anchor="middle" fill="#141414">33</text>
<circle cx="70.729" cy="131.536" r="2.29" fill="#ffe082" stroke="#464646" stroke-width="0.2"/>
<text x="70.729" y="132.62" font-size="3.11" text-anchor="middle" fill="#141414">38</text>
<circle cx="21.058" cy="125.33" r="2.29" fill="#ffe082" stroke="#464646" stroke-width="0.2"/>
<text x="21.058" y="126.42" font-size="3.11" text-anchor="middle" fill="#141414">59</text>
<circle cx="23.653" cy="102.596" r="2.29" fill="#ffe082" stroke="#464646" stroke-width="0.2"/>
<text x="23.653" y="103.68" font-size="3.11" text-anchor="middle" fill="#141414">68</text>
<circle cx="90.69" cy="38.036" r="2.29" fill="#ffe082" stroke="#464646" stroke-width="0.2"/>
<text x="90.69" y="39.12" font-size="3.11" text-anchor="middle" fill="#141414">69</text>
<circle cx="61.845" cy="21.133" r="2.29" fill="#ffe082" stroke="#464646" stroke-width="0.2"/>
<text x="61.845" y="22.22" font-size="3.11" text-anchor="middle" fill="#141414">71</text>
<circle cx="45.576" cy="55.151" r="2.29" fill="#ffe082" stroke="#464646" stroke-width="0.2"/>
<text x="45.576" y="56.24" font-size="3.11" text-anchor="middle" fill="#141414">77</text>
<circle cx="63.495" cy="169.078" r="4.6" fill="#eaf1fe" stroke="#2e78e6" stroke-width="0.3"/>
<text x="63.495" y="170.87800000000001" font-size="5.2" text-anchor="middle" fill="#14306e" font-weight="bold">5</text>
</svg>
