<svg xmlns="http://www.w3.org/2000/svg" xmlns:xlink="http://www.w3.org/1999/xlink" width="210.00mm" height="297.00mm" viewBox="0 0 210.00 297.00">
<rect x="0" y="0" width="210.00" height="297.00" fill="#ffffff" stroke="#cccccc" stroke-width="0.2"/>
<polygon points="55.365,68.34 62.712,66.945 83.675,80.713 85.312,88.01" fill="rgb(216,216,216)"/>
<polygon points="85.312,88.01 90.402,91.021 89.904,104.153 84.601,106.77" fill="rgb(216,216,216)"/>
<polygon points="23.01,88.01 17.714,80.276 17.264,43.881 22.367,36.018" fill="rgb(216,216,216)"/>
<polygon points="84.601,106.77 79.216,114.084 46.306,125.231 37.586,122.694" fill="rgb(216,216,216)"/>
<polygon points="37.586,122.694 35.839,130.543 13.029,147.83 5.0,147.39" fill="rgb(216,216,216)"/>
<line x1="23.01" y1="88.01" x2="55.365" y2="68.34" stroke="#8c8c8c" stroke-width="0.3" stroke-dasharray="1.2,0.8"/>
<line x1="22.367" y1="36.018" x2="55.365" y2="68.34" stroke="#8c8c8c" stroke-width="0.3" stroke-dasharray="1.2,0.8"/>
<line x1="23.01" y1="88.01" x2="85.312" y2="88.01" stroke="#8c8c8c" stroke-width="0.3" stroke-dasharray="1.2,0.8"/>
<line x1="85.312" y1="88.01" x2="37.586" y2="122.694" stroke="#8c8c8c" stroke-width="0.3" stroke-dasharray="1.2,0.8"/>
<line x1="37.586" y1="122.694" x2="23.01" y2="88.01" stroke="#8c8c8c" stroke-width="0.3" stroke-dasharray="1.2,0.8"/>
<line x1="22.367" y1="36.018" x2="54.901" y2="38.373" stroke="#8c8c8c" stroke-width="0.3" stroke-dasharray="1.2,0.8"/>
<line x1="50.866" y1="5.0" x2="54.901" y2="38.373" stroke="#8c8c8c" stroke-width="0.3" stroke-dasharray="1.2,0.8"/>
<line x1="85.312" y1="88.01" x2="55.365" y2="68.34" stroke="#8c8c8c" stroke-width="0.3" stroke-dasharray="1.2,0.8"/>
<line x1="84.601" y1="106.77" x2="85.312" y2="88.01" stroke="#8c8c8c" stroke-width="0.3" stroke-dasharray="1.2,0.8"/>
<line x1="22.367" y1="36.018" x2="23.01" y2="88.01" stroke="#8c8c8c" stroke-width="0.3" stroke-dasharray="1.2,0.8"/>
<line x1="37.586" y1="122.694" x2="84.601" y2="106.77" stroke="#8c8c8c" stroke-width="0.3" stroke-dasharray="1.2,0.8"/>
<line x1="5.0" y1="147.39" x2="37.586" y2="122.694" stroke="#8c8c8c" stroke-width="0.3" stroke-dasharray="1.2,0.8"/>
<line x1="54.901" y1="38.373" x2="55.365" y2="68.34" stroke="#141414" stroke-width="0.4"/>
<line x1="5.0" y1="147.391" x2="23.01" y2="88.01" stroke="#141414" stroke-width="0.4"/>
<line x1="89.43" y1="18.587" x2="54.901" y2="38.373" stroke="#141414" stroke-width="0.4"/>
<line x1="50.866" y1="5.0" x2="89.43" y2="18.587" stroke="#141414" stroke-width="0.4"/>
<line x1="22.367" y1="36.018" x2="50.866" y2="5.0" stroke="#141414" stroke-width="0.4"/>
<line x1="55.365" y1="68.34" x2="62.712" y2="66.945" stroke="#141414" stroke-width="0.4"/>
<line x1="62.712" y1="66.945" x2="83.675" y2="80.713" stroke="#141414" stroke-width="0.4"/>
<line x1="83.675" y1="80.713" x2="85.312" y2="88.01" stroke="#141414" stroke-width="0.4"/>
<line x1="85.312" y1="88.01" x2="90.402" y2="91.021" stroke="#141414" stroke-width="0.4"/>
<line x1="90.402" y1="91.021" x2="89.904" y2="104.153" stroke="#141414" stroke-width="0.4"/>
<line x1="89.904" y1="104.153" x2="84.601" y2="106.77" stroke="#141414" stroke-width="0.4"/>
<line x1="23.01" y1="88.01" x2="17.714" y2="80.276" stroke="#141414" stroke-width="0.4"/>
<line x1="17.714" y1="80.276" x2="17.264" y2="43.881" stroke="#141414" stroke-width="0.4"/>
<line x1="17.264" y1="43.881" x2="22.367" y2="36.018" stroke="#141414" stroke-width="0.4"/>
<line x1="84.601" y1="106.77" x2="79.216" y2="114.084" stroke="#141414" stroke-width="0.4"/>
<line x1="79.216" y1="114.084" x2="46.306" y2="125.231" stroke="#141414" stroke-width="0.4"/>
<line x1="46.306" y1="125.231" x2="37.586" y2="122.694" stroke="#141414" stroke-width="0.4"/>
<line x1="37.586" y1="122.694" x2="35.839" y2="130.543" stroke="#141414" stroke-width="0.4"/>
<line x1="35.839" y1="130.543" x2="13.029" y2="147.83" stroke="#141414" stroke-width="0.4"/>
<line x1="13.029" y1="147.83" x2="5.0" y2="147.39" stroke="#141414" stroke-width="0.4"/>
<circle cx="71.766" cy="76.002" r="2.29" fill="#ffe082" stroke="#464646" stroke-width="0.2"/>
<text x="71.766" y="77.09" font-size="3.11" text-anchor="middle" fill="#141414">47</text>
<circle cx="87.555" cy="97.489" r="2.29" fill="#ffe082" stroke="#464646" stroke-width="0.2"/>
<text x="87.555" y="98.58" font-size="3.11" text-anchor="middle" fill="#141414">53</text>
<circle cx="20.089" cy="62.046" r="2.29" fill="#ffe082" stroke="#464646" stroke-width="0.2"/>
<text x="20.089" y="63.13" font-size="3.11" text-anchor="middle" fill="#141414">61</text>
<circle cx="61.927" cy="117.195" r="2.29" fill="#ffe082" stroke="#464646" stroke-width="0.2"/>
<text x="61.927" y="118.28" font-size="3.11" text-anchor="middle" fill="#141414">63</text>
<circle cx="22.863" cy="137.115" r="2.29" fill="#ffe082" stroke="#464646" stroke-width="0.2"/>
<text x="22.863" y="138.20" font-size="3.11" text-anchor="middle" fill="#141414">65</text>
<circle cx="47.701" cy="153.93" r="4.6" fill="#eaf1fe" stroke="#2e78e6" stroke-width="0.3"/>
<text x="47.701" y="155.73000000000002" font-size="5.2" text-anchor="middle" fill="#14306e" font-weight="bold">20</text>
<polygon points="93.402,72.32 100.831,75.055 126.864,65.14 130.592,58.156" fill="rgb(216,216,216)"/>
<line x1="102.45" y1="23.513" x2="138.256" y2="23.513" stroke="#8c8c8c" stroke-width="0.3" stroke-dasharray="1.2,0.8"/>
<line x1="130.592" y1="58.156" x2="93.402" y2="72.32" stroke="#8c8c8c" stroke-width="0.3" stroke-dasharray="1.2,0.8"/>
<line x1="102.45" y1="23.513" x2="105.564" y2="5.0" stroke="#141414" stroke-width="0.4"/>
<line x1="105.564" y1="5.0" x2="138.256" y2="23.513" stroke="#141414" stroke-width="0.4"/>
<line x1="93.402" y1="72.32" x2="102.45" y2="23.513" stroke="#141414" stroke-width="0.4"/>
<line x1="138.256" y1="23.513" x2="130.592" y2="58.156" stroke="#141414" stroke-width="0.4"/>
<line x1="93.402" y1="72.32" x2="100.831" y2="75.055" stroke="#141414" stroke-width="0.4"/>
<line x1="100.831" y1="75.055" x2="126.864" y2="65.14" stroke="#141414" stroke-width="0.4"/>
<line x1="126.864" y1="65.14" x2="130.592" y2="58.156" stroke="#141414" stroke-width="0.4"/>
<circle cx="112.922" cy="67.668" r="2.29" fill="#ffe082" stroke="#464646" stroke-width="0.2"/>
<text x="112.922" y="68.75" font-size="3.11" text-anchor="middle" fill="#141414">64</text>
<circle cx="115.829" cy="81.155" r="4.6" fill="#eaf1fe" stroke="#2e78e6" stroke-width="0.3"/>
<text x="115.829" y="82.955" font-size="5.2" text-anchor="middle" fill="#14306e" font-weight="bold">21</text>
<polygon points="152.53,14.492 157.034,9.292 178.057,9.292 182.562,14.492" fill="rgb(216,216,216)"/>
<polygon points="152.53,14.492 147.019,21.298 145.545,54.144 150.423,61.416" fill="rgb(216,216,216)"/>
<polygon points="182.562,14.492 182.031,24.469 159.534,57.316 150.423,61.416" fill="rgb(216,216,216)"/>
<line x1="182.562" y1="14.492" x2="152.53" y2="14.492" stroke="#8c8c8c" stroke-width="0.3" stroke-dasharray="1.2,0.8"/>
<line x1="150.423" y1="61.416" x2="152.53" y2="14.492" stroke="#8c8c8c" stroke-width="0.3" stroke-dasharray="1.2,0.8"/>
<line x1="150.423" y1="61.416" x2="182.562" y2="14.492" stroke="#8c8c8c" stroke-width="0.3" stroke-dasharray="1.2,0.8"/>
<line x1="152.53" y1="14.492" x2="157.034" y2="9.292" stroke="#141414" stroke-width="0.4"/>
<line x1="157.034" y1="9.292" x2="178.057" y2="9.292" stroke="#141414" stroke-width="0.4"/>
<line x1="178.057" y1="9.292" x2="182.562" y2="14.492" stroke="#141414" stroke-width="0.4"/>
<line x1="152.53" y1="14.492" x2="147.019" y2="21.298" stroke="#141414" stroke-width="0.4"/>
<line x1="147.019" y1="21.298" x2="145.545" y2="54.144" stroke="#141414" stroke-width="0.4"/>
<line x1="145.545" y1="54.144" x2="150.423" y2="61.416" stroke="#141414" stroke-width="0.4"/>
<line x1="182.562" y1="14.492" x2="182.031" y2="24.469" stroke="#141414" stroke-width="0.4"/>
<line x1="182.031" y1="24.469" x2="159.534" y2="57.316" stroke="#141414" stroke-width="0.4"/>
<line x1="159.534" y1="57.316" x2="150.423" y2="61.416" stroke="#141414" stroke-width="0.4"/>
<circle cx="167.546" cy="11.892" r="2.29" fill="#ffe082" stroke="#464646" stroke-width="0.2"/>
<text x="167.546" y="12.98" font-size="3.11" text-anchor="middle" fill="#141414">76</text>
<circle cx="148.879" cy="37.838" r="2.29" fill="#ffe082" stroke="#464646" stroke-width="0.2"/>
<text x="148.879" y="38.92" font-size="3.11" text-anchor="middle" fill="#141414">78</text>
<circle cx="168.638" cy="39.423" r="2.29" fill="#ffe082" stroke="#464646" stroke-width="0.2"/>
<text x="168.638" y="40.51" font-size="3.11" text-anchor="middle" fill="#141414">79</text>
<circle cx="159.765" cy="63.224" r="4.6" fill="#eaf1fe" stroke="#2e78e6" stroke-width="0.3"/>
<text x="159.765" y="65.024" font-size="5.2" text-anchor="middle" fill="#14306e" font-weight="bold">22</text>
<polygon points="5.0,160.323 14.308,155.123 57.744,155.123 67.052,160.323" fill="rgb(216,216,216)"/>
<polygon points="43.514,195.255 51.357,192.921 67.833,168.468 67.052,160.323" fill="rgb(216,216,216)"/>
<line x1="67.052" y1="160.323" x2="5.0" y2="160.323" stroke="#8c8c8c" stroke-width="0.3" stroke-dasharray="1.2,0.8"/>
<line x1="67.052" y1="160.323" x2="43.514" y2="195.255" stroke="#8c8c8c" stroke-width="0.3" stroke-dasharray="1.2,0.8"/>
<line x1="43.514" y1="195.255" x2="5.0" y2="160.323" stroke="#141414" stroke-width="0.4"/>
<line x1="5.0" y1="160.323" x2="14.308" y2="155.123" stroke="#141414" stroke-width="0.4"/>
<line x1="14.308" y1="155.123" x2="57.744" y2="155.123" stroke="#141414" stroke-width="0.4"/>
<line x1="57.744" y1="155.123" x2="67.052" y2="160.323" stroke="#141414" stroke-width="0.4"/>
<line x1="43.514" y1="195.255" x2="51.357" y2="192.921" stroke="#141414" stroke-width="0.4"/>
<line x1="51.357" y1="192.921" x2="67.833" y2="168.468" stroke="#141414" stroke-width="0.4"/>
<line x1="67.833" y1="168.468" x2="67.052" y2="160.323" stroke="#141414" stroke-width="0.4"/>
<circle cx="36.026" cy="157.723" r="2.29" fill="#ffe082" stroke="#464646" stroke-width="0.2"/>
<text x="36.026" y="158.81" font-size="3.11" text-anchor="middle" fill="#141414">62</text>
<circle cx="57.439" cy="179.242" r="2.29" fill="#ffe082" stroke="#464646" stroke-width="0.2"/>
<text x="57.439" y="180.33" font-size="3.11" text-anchor="middle" fill="#141414">74</text>
<circle cx="36.417" cy="144.73" r="4.6" fill="#eaf1fe" stroke="#2e78e6" stroke-width="0.3"/>
<text x="36.417" y="146.53" font-size="5.2" text-anchor="middle" fill="#14306e" font-weight="bold">23</text>
</svg>
