<svg xmlns="http://www.w3.org/2000/svg" xmlns:xlink="http://www.w3.org/1999/xlink" width="210.00mm" height="297.00mm" viewBox="0 0 210.00 297.00">
<rect x="0" y="0" width="210.00" height="297.00" fill="#ffffff" stroke="#cccccc" stroke-width="0.2"/>
<polygon points="77.488,153.45 83.149,160.45 109.564,160.45 115.225,153.45" fill="rgb(216,216,216)"/>
<polygon points="77.488,98.093 83.149,91.093 109.564,91.093 115.225,98.093" fill="rgb(216,216,216)"/>
<polygon points="115.225,153.45 122.225,145.146 122.225,106.397 115.225,98.093" fill="rgb(216,216,216)"/>
<polygon points="77.488,191.186 72.275,198.186 47.95,198.186 42.737,191.186" fill="rgb(216,216,216)"/>
<polygon points="42.737,153.45 35.737,145.146 35.737,106.397 42.737,98.093" fill="rgb(216,216,216)"/>
<polygon points="42.737,153.45 35.737,159.11 35.737,185.526 42.737,191.186" fill="rgb(216,216,216)"/>
<polygon points="42.737,98.093 35.737,92.433 35.737,66.017 42.737,60.356" fill="rgb(216,216,216)"/>
<polygon points="77.488,153.45 83.149,160.45 109.564,160.45 115.225,153.45" fill="#99d9fa"/>
<line x1="77.488" y1="153.45" x2="77.488" y2="98.093" stroke="#8c8c8c" stroke-width="0.3" stroke-dasharray="1.2,0.8"/>
<line x1="77.488" y1="153.45" x2="42.737" y2="153.45" stroke="#8c8c8c" stroke-width="0.3" stroke-dasharray="1.2,0.8"/>
<line x1="42.737" y1="98.093" x2="77.488" y2="98.093" stroke="#8c8c8c" stroke-width="0.3" stroke-dasharray="1.2,0.8"/>
<line x1="42.737" y1="60.356" x2="77.488" y2="60.356" stroke="#8c8c8c" stroke-width="0.3" stroke-dasharray="1.2,0.8"/>
<line x1="42.737" y1="60.356" x2="42.737" y2="5.0" stroke="#8c8c8c" stroke-width="0.3" stroke-dasharray="1.2,0.8"/>
<line x1="115.225" y1="153.45" x2="77.488" y2="153.45" stroke="#8c8c8c" stroke-width="0.3" stroke-dasharray="1.2,0.8"/>
<line x1="115.225" y1="98.093" x2="77.488" y2="98.093" stroke="#8c8c8c" stroke-width="0.3" stroke-dasharray="1.2,0.8"/>
<line x1="115.225" y1="98.093" x2="115.225" y2="153.45" stroke="#8c8c8c" stroke-width="0.3" stroke-dasharray="1.2,0.8"/>
<line x1="42.737" y1="191.186" x2="77.488" y2="191.186" stroke="#8c8c8c" stroke-width="0.3" stroke-dasharray="1.2,0.8"/>
<line x1="42.737" y1="98.093" x2="42.737" y2="153.45" stroke="#8c8c8c" stroke-width="0.3" stroke-dasharray="1.2,0.8"/>
<line x1="42.737" y1="191.186" x2="42.737" y2="153.45" stroke="#8c8c8c" stroke-width="0.3" stroke-dasharray="1.2,0.8"/>
<line x1="42.737" y1="60.356" x2="42.737" y2="98.093" stroke="#8c8c8c" stroke-width="0.3" stroke-dasharray="1.2,0.8"/>
<line x1="77.488" y1="153.45" x2="77.488" y2="191.186" stroke="#141414" stroke-width="0.4"/>
<line x1="77.488" y1="60.356" x2="77.488" y2="98.093" stroke="#141414" stroke-width="0.4"/>
<line x1="77.488" y1="5.0" x2="77.488" y2="60.356" stroke="#141414" stroke-width="0.4"/>
<line x1="42.737" y1="5.0" x2="77.488" y2="5.0" stroke="#141414" stroke-width="0.4"/>
<line x1="5.0" y1="60.356" x2="5.0" y2="5.0" stroke="#141414" stroke-width="0.4"/>
<line x1="5.0" y1="5.0" x2="42.737" y2="5.0" stroke="#141414" stroke-width="0.4"/>
<line x1="42.737" y1="60.356" x2="5.0" y2="60.356" stroke="#141414" stroke-width="0.4"/>
<line x1="77.488" y1="153.45" x2="83.149" y2="160.45" stroke="#141414" stroke-width="0.4"/>
<line x1="83.149" y1="160.45" x2="109.564" y2="160.45" stroke="#141414" stroke-width="0.4"/>
<line x1="109.564" y1="160.45" x2="115.225" y2="153.45" stroke="#141414" stroke-width="0.4"/>
<line x1="77.488" y1="98.093" x2="83.149" y2="91.093" stroke="#141414" stroke-width="0.4"/>
<line x1="83.149" y1="91.093" x2="109.564" y2="91.093" stroke="#141414" stroke-width="0.4"/>
<line x1="109.564" y1="91.093" x2="115.225" y2="98.093" stroke="#141414" stroke-width="0.4"/>
<line x1="115.225" y1="153.45" x2="122.225" y2="145.146" stroke="#141414" stroke-width="0.4"/>
<line x1="122.225" y1="145.146" x2="122.225" y2="106.397" stroke="#141414" stroke-width="0.4"/>
<line x1="122.225" y1="106.397" x2="115.225" y2="98.093" stroke="#141414" stroke-width="0.4"/>
<line x1="77.488" y1="191.186" x2="72.275" y2="198.186" stroke="#141414" stroke-width="0.4"/>
<line x1="72.275" y1="198.186" x2="47.95" y2="198.186" stroke="#141414" stroke-width="0.4"/>
<line x1="47.95" y1="198.186" x2="42.737" y2="191.186" stroke="#141414" stroke-width="0.4"/>
<line x1="42.737" y1="153.45" x2="35.737" y2="145.146" stroke="#141414" stroke-width="0.4"/>
<line x1="35.737" y1="145.146" x2="35.737" y2="106.397" stroke="#141414" stroke-width="0.4"/>
<line x1="35.737" y1="106.397" x2="42.737" y2="98.093" stroke="#141414" stroke-width="0.4"/>
<line x1="42.737" y1="153.45" x2="35.737" y2="159.11" stroke="#141414" stroke-width="0.4"/>
<line x1="35.737" y1="159.11" x2="35.737" y2="185.526" stroke="#141414" stroke-width="0.4"/>
<line x1="35.737" y1="185.526" x2="42.737" y2="191.186" stroke="#141414" stroke-width="0.4"/>
<line x1="42.737" y1="98.093" x2="35.737" y2="92.433" stroke="#141414" stroke-width="0.4"/>
<line x1="35.737" y1="92.433" x2="35.737" y2="66.017" stroke="#141414" stroke-width="0.4"/>
<line x1="35.737" y1="66.017" x2="42.737" y2="60.356" stroke="#141414" stroke-width="0.4"/>
<circle cx="96.357" cy="156.95" r="2.30" fill="#99d9fa" stroke="#464646" stroke-width="0.2"/>
<text x="96.357" y="157.74" font-size="2.25" text-anchor="middle" fill="#141414">103</text>
<circle cx="96.357" cy="94.593" r="2.30" fill="#ffe082" stroke="#464646" stroke-width="0.2"/>
<text x="96.357" y="95.38" font-size="2.25" text-anchor="middle" fill="#141414">104</text>
<circle cx="118.725" cy="125.771" r="2.30" fill="#ffe082" stroke="#464646" stroke-width="0.2"/>
<text x="118.725" y="126.56" font-size="2.25" text-anchor="middle" fill="#141414">105</text>
<circle cx="60.113" cy="194.686" r="2.30" fill="#ffe082" stroke="#464646" stroke-width="0.2"/>
<text x="60.113" y="195.47" font-size="2.25" text-anchor="middle" fill="#141414">106</text>
<circle cx="39.237" cy="125.771" r="2.30" fill="#ffe082" stroke="#464646" stroke-width="0.2"/>
<text x="39.237" y="126.56" font-size="2.25" text-anchor="middle" fill="#141414">107</text>
<circle cx="39.237" cy="172.318" r="2.30" fill="#ffe082" stroke="#464646" stroke-width="0.2"/>
<text x="39.237" y="173.11" font-size="2.25" text-anchor="middle" fill="#141414">108</text>
<circle cx="39.237" cy="79.225" r="2.30" fill="#ffe082" stroke="#464646" stroke-width="0.2"/>
<text x="39.237" y="80.01" font-size="2.25" text-anchor="middle" fill="#141414">109</text>
<circle cx="17.579" cy="23.452" r="4.60" fill="#eaf1fe" stroke="#2e78e6" stroke-width="0.3"/>
<text x="17.579" y="25.25" font-size="5.20" text-anchor="middle" fill="#14306e" font-weight="bold">11</text>
<polygon points="61.004,271.716 63.361,263.84 68.915,262.356 74.887,268.005" fill="rgb(216,216,216)"/>
<polygon points="24.801,271.716 19.187,268.238 18.882,265.326 23.712,261.315" fill="rgb(216,216,216)"/>
<polygon points="54.972,215.838 49.541,208.838 24.199,208.838 18.768,215.838" fill="rgb(216,216,216)"/>
<polygon points="62.537,287.997 62.332,293.452 69.261,295.817 72.434,291.375" fill="rgb(216,216,216)"/>
<polygon points="26.334,287.997 26.06,295.316 16.342,297.914 12.451,291.708" fill="rgb(216,216,216)"/>
<polygon points="72.434,291.375 76.572,294.937 82.741,290.995 81.247,285.744" fill="rgb(216,216,216)"/>
<polygon points="20.322,230.125 15.293,232.25 16.084,239.527 21.452,240.522" fill="rgb(216,216,216)"/>
<polygon points="81.247,285.744 86.611,284.73 87.375,277.449 82.338,275.343" fill="rgb(216,216,216)"/>
<polygon points="21.452,240.522 16.423,242.646 17.214,249.924 22.582,250.919" fill="rgb(216,216,216)"/>
<polygon points="82.338,275.343 84.89,270.517 79.674,265.38 74.887,268.005" fill="rgb(216,216,216)"/>
<polygon points="22.582,250.919 17.553,253.043 18.344,260.321 23.712,261.315" fill="rgb(216,216,216)"/>
<polygon points="26.334,287.997 26.06,295.316 16.342,297.914 12.451,291.708" fill="#99d9fa"/>
<line x1="24.801" y1="271.716" x2="61.004" y2="271.716" stroke="#8c8c8c" stroke-width="0.3" stroke-dasharray="1.2,0.8"/>
<line x1="61.004" y1="271.716" x2="62.537" y2="287.997" stroke="#8c8c8c" stroke-width="0.3" stroke-dasharray="1.2,0.8"/>
<line x1="61.004" y1="271.716" x2="26.334" y2="287.997" stroke="#8c8c8c" stroke-width="0.3" stroke-dasharray="1.2,0.8"/>
<line x1="26.334" y1="287.997" x2="24.801" y2="271.716" stroke="#8c8c8c" stroke-width="0.3" stroke-dasharray="1.2,0.8"/>
<line x1="56.06" y1="226.24" x2="20.322" y2="230.125" stroke="#8c8c8c" stroke-width="0.3" stroke-dasharray="1.2,0.8"/>
<line x1="57.191" y1="236.636" x2="21.452" y2="240.522" stroke="#8c8c8c" stroke-width="0.3" stroke-dasharray="1.2,0.8"/>
<line x1="58.321" y1="247.033" x2="22.582" y2="250.919" stroke="#8c8c8c" stroke-width="0.3" stroke-dasharray="1.2,0.8"/>
<line x1="59.451" y1="257.43" x2="23.712" y2="261.315" stroke="#8c8c8c" stroke-width="0.3" stroke-dasharray="1.2,0.8"/>
<line x1="61.004" y1="271.716" x2="23.712" y2="261.315" stroke="#8c8c8c" stroke-width="0.3" stroke-dasharray="1.2,0.8"/>
<line x1="56.06" y1="226.24" x2="18.768" y2="215.838" stroke="#8c8c8c" stroke-width="0.3" stroke-dasharray="1.2,0.8"/>
<line x1="74.887" y1="268.005" x2="61.004" y2="271.716" stroke="#8c8c8c" stroke-width="0.3" stroke-dasharray="1.2,0.8"/>
<line x1="23.712" y1="261.315" x2="24.801" y2="271.716" stroke="#8c8c8c" stroke-width="0.3" stroke-dasharray="1.2,0.8"/>
<line x1="18.768" y1="215.838" x2="54.972" y2="215.838" stroke="#8c8c8c" stroke-width="0.3" stroke-dasharray="1.2,0.8"/>
<line x1="72.434" y1="291.375" x2="62.537" y2="287.997" stroke="#8c8c8c" stroke-width="0.3" stroke-dasharray="1.2,0.8"/>
<line x1="12.451" y1="291.708" x2="26.334" y2="287.997" stroke="#8c8c8c" stroke-width="0.3" stroke-dasharray="1.2,0.8"/>
<line x1="81.247" y1="285.744" x2="72.434" y2="291.375" stroke="#8c8c8c" stroke-width="0.3" stroke-dasharray="1.2,0.8"/>
<line x1="21.452" y1="240.522" x2="20.322" y2="230.125" stroke="#8c8c8c" stroke-width="0.3" stroke-dasharray="1.2,0.8"/>
<line x1="82.338" y1="275.343" x2="81.247" y2="285.744" stroke="#8c8c8c" stroke-width="0.3" stroke-dasharray="1.2,0.8"/>
<line x1="22.582" y1="250.919" x2="21.452" y2="240.522" stroke="#8c8c8c" stroke-width="0.3" stroke-dasharray="1.2,0.8"/>
<line x1="74.887" y1="268.005" x2="82.338" y2="275.343" stroke="#8c8c8c" stroke-width="0.3" stroke-dasharray="1.2,0.8"/>
<line x1="23.712" y1="261.315" x2="22.582" y2="250.919" stroke="#8c8c8c" stroke-width="0.3" stroke-dasharray="1.2,0.8"/>
<line x1="59.451" y1="257.43" x2="61.004" y2="271.716" stroke="#141414" stroke-width="0.4"/>
<line x1="14.904" y1="268.338" x2="24.801" y2="271.716" stroke="#141414" stroke-width="0.4"/>
<line x1="62.537" y1="287.997" x2="26.334" y2="287.997" stroke="#141414" stroke-width="0.4"/>
<line x1="54.972" y1="215.838" x2="56.06" y2="226.24" stroke="#141414" stroke-width="0.4"/>
<line x1="20.322" y1="230.125" x2="18.768" y2="215.838" stroke="#141414" stroke-width="0.4"/>
<line x1="56.06" y1="226.24" x2="57.191" y2="236.636" stroke="#141414" stroke-width="0.4"/>
<line x1="12.451" y1="291.709" x2="5.0" y2="284.37" stroke="#141414" stroke-width="0.4"/>
<line x1="57.191" y1="236.636" x2="58.321" y2="247.033" stroke="#141414" stroke-width="0.4"/>
<line x1="5.0" y1="284.37" x2="6.092" y2="273.969" stroke="#141414" stroke-width="0.4"/>
<line x1="58.321" y1="247.033" x2="59.451" y2="257.43" stroke="#141414" stroke-width="0.4"/>
<line x1="6.092" y1="273.969" x2="14.904" y2="268.338" stroke="#141414" stroke-width="0.4"/>
<line x1="61.004" y1="271.716" x2="63.361" y2="263.84" stroke="#141414" stroke-width="0.4"/>
<line x1="63.361" y1="263.84" x2="68.915" y2="262.356" stroke="#141414" stroke-width="0.4"/>
<line x1="68.915" y1="262.356" x2="74.887" y2="268.005" stroke="#141414" stroke-width="0.4"/>
<line x1="24.801" y1="271.716" x2="19.187" y2="268.238" stroke="#141414" stroke-width="0.4"/>
<line x1="19.187" y1="268.238" x2="18.882" y2="265.326" stroke="#141414" stroke-width="0.4"/>
<line x1="18.882" y1="265.326" x2="23.712" y2="261.315" stroke="#141414" stroke-width="0.4"/>
<line x1="54.972" y1="215.838" x2="49.541" y2="208.838" stroke="#141414" stroke-width="0.4"/>
<line x1="49.541" y1="208.838" x2="24.199" y2="208.838" stroke="#141414" stroke-width="0.4"/>
<line x1="24.199" y1="208.838" x2="18.768" y2="215.838" stroke="#141414" stroke-width="0.4"/>
<line x1="62.537" y1="287.997" x2="62.332" y2="293.452" stroke="#141414" stroke-width="0.4"/>
<line x1="62.332" y1="293.452" x2="69.261" y2="295.817" stroke="#141414" stroke-width="0.4"/>
<line x1="69.261" y1="295.817" x2="72.434" y2="291.375" stroke="#141414" stroke-width="0.4"/>
<line x1="26.334" y1="287.997" x2="26.06" y2="295.316" stroke="#141414" stroke-width="0.4"/>
<line x1="26.06" y1="295.316" x2="16.342" y2="297.914" stroke="#141414" stroke-width="0.4"/>
<line x1="16.342" y1="297.914" x2="12.451" y2="291.708" stroke="#141414" stroke-width="0.4"/>
<line x1="72.434" y1="291.375" x2="76.572" y2="294.937" stroke="#141414" stroke-width="0.4"/>
<line x1="76.572" y1="294.937" x2="82.741" y2="290.995" stroke="#141414" stroke-width="0.4"/>
<line x1="82.741" y1="290.995" x2="81.247" y2="285.744" stroke="#141414" stroke-width="0.4"/>
<line x1="20.322" y1="230.125" x2="15.293" y2="232.25" stroke="#141414" stroke-width="0.4"/>
<line x1="15.293" y1="232.25" x2="16.084" y2="239.527" stroke="#141414" stroke-width="0.4"/>
<line x1="16.084" y1="239.527" x2="21.452" y2="240.522" stroke="#141414" stroke-width="0.4"/>
<line x1="81.247" y1="285.744" x2="86.611" y2="284.73" stroke="#141414" stroke-width="0.4"/>
<line x1="86.611" y1="284.73" x2="87.375" y2="277.449" stroke="#141414" stroke-width="0.4"/>
<line x1="87.375" y1="277.449" x2="82.338" y2="275.343" stroke="#141414" stroke-width="0.4"/>
<line x1="21.452" y1="240.522" x2="16.423" y2="242.646" stroke="#141414" stroke-width="0.4"/>
<line x1="16.423" y1="242.646" x2="17.214" y2="249.924" stroke="#141414" stroke-width="0.4"/>
<line x1="17.214" y1="249.924" x2="22.582" y2="250.919" stroke="#141414" stroke-width="0.4"/>
<line x1="82.338" y1="275.343" x2="84.89" y2="270.517" stroke="#141414" stroke-width="0.4"/>
<line x1="84.89" y1="270.517" x2="79.674" y2="265.38" stroke="#141414" stroke-width="0.4"/>
<line x1="79.674" y1="265.38" x2="74.887" y2="268.005" stroke="#141414" stroke-width="0.4"/>
<line x1="22.582" y1="250.919" x2="17.553" y2="253.043" stroke="#141414" stroke-width="0.4"/>
<line x1="17.553" y1="253.043" x2="18.344" y2="260.321" stroke="#141414" stroke-width="0.4"/>
<line x1="18.344" y1="260.321" x2="23.712" y2="261.315" stroke="#141414" stroke-width="0.4"/>
<circle cx="67.042" cy="266.479" r="2.30" fill="#ffe082" stroke="#464646" stroke-width="0.2"/>
<text x="67.042" y="267.27" font-size="2.25" text-anchor="middle" fill="#141414">117</text>
<circle cx="21.646" cy="266.649" r="2.30" fill="#ffe082" stroke="#464646" stroke-width="0.2"/>
<text x="21.646" y="267.44" font-size="2.25" text-anchor="middle" fill="#141414">118</text>
<circle cx="36.87" cy="212.338" r="2.30" fill="#ffe082" stroke="#464646" stroke-width="0.2"/>
<text x="36.87" y="213.13" font-size="2.25" text-anchor="middle" fill="#141414">119</text>
<circle cx="66.641" cy="292.16" r="2.30" fill="#ffe082" stroke="#464646" stroke-width="0.2"/>
<text x="66.641" y="292.95" font-size="2.25" text-anchor="middle" fill="#141414">120</text>
<circle cx="20.297" cy="293.234" r="2.30" fill="#99d9fa" stroke="#464646" stroke-width="0.2"/>
<text x="20.297" y="294.02" font-size="2.25" text-anchor="middle" fill="#141414">121</text>
<circle cx="78.248" cy="290.763" r="2.30" fill="#ffe082" stroke="#464646" stroke-width="0.2"/>
<text x="78.248" y="291.55" font-size="2.25" text-anchor="middle" fill="#141414">122</text>
<circle cx="18.287" cy="235.606" r="2.30" fill="#ffe082" stroke="#464646" stroke-width="0.2"/>
<text x="18.287" y="236.39" font-size="2.25" text-anchor="middle" fill="#141414">123</text>
<circle cx="84.393" cy="280.816" r="2.30" fill="#ffe082" stroke="#464646" stroke-width="0.2"/>
<text x="84.393" y="281.60" font-size="2.25" text-anchor="middle" fill="#141414">124</text>
<circle cx="19.418" cy="246.003" r="2.30" fill="#ffe082" stroke="#464646" stroke-width="0.2"/>
<text x="19.418" y="246.79" font-size="2.25" text-anchor="middle" fill="#141414">125</text>
<circle cx="80.447" cy="269.811" r="2.30" fill="#ffe082" stroke="#464646" stroke-width="0.2"/>
<text x="80.447" y="270.60" font-size="2.25" text-anchor="middle" fill="#141414">126</text>
<circle cx="20.548" cy="256.399" r="2.30" fill="#ffe082" stroke="#464646" stroke-width="0.2"/>
<text x="20.548" y="257.19" font-size="2.25" text-anchor="middle" fill="#141414">127</text>
<circle cx="37.38" cy="277.143" r="4.10" fill="#eaf1fe" stroke="#2e78e6" stroke-width="0.3"/>
<text x="37.38" y="278.75" font-size="4.64" text-anchor="middle" fill="#14306e" font-weight="bold">13</text>
<polygon points="146.379,271.716 148.736,263.84 154.29,262.356 160.262,268.005" fill="rgb(216,216,216)"/>
<polygon points="110.176,271.716 104.562,268.238 104.257,265.326 109.087,261.315" fill="rgb(216,216,216)"/>
<polygon points="140.347,215.838 134.916,208.838 109.574,208.838 104.144,215.838" fill="rgb(216,216,216)"/>
<polygon points="147.912,287.997 147.707,293.452 154.636,295.817 157.81,291.375" fill="rgb(216,216,216)"/>
<polygon points="111.709,287.997 111.435,295.316 101.717,297.914 97.826,291.708" fill="rgb(216,216,216)"/>
<polygon points="157.81,291.375 161.947,294.937 168.116,290.995 166.622,285.744" fill="rgb(216,216,216)"/>
<polygon points="105.696,230.125 100.668,232.25 101.459,239.527 106.827,240.522" fill="rgb(216,216,216)"/>
<polygon points="166.622,285.744 171.986,284.73 172.75,277.449 167.713,275.343" fill="rgb(216,216,216)"/>
<polygon points="106.827,240.522 101.798,242.646 102.589,249.924 107.957,250.919" fill="rgb(216,216,216)"/>
<polygon points="167.713,275.343 170.265,270.517 165.049,265.38 160.262,268.005" fill="rgb(216,216,216)"/>
<polygon points="107.957,250.919 102.928,253.043 103.719,260.321 109.087,261.315" fill="rgb(216,216,216)"/>
<polygon points="107.957,250.919 102.928,253.043 103.719,260.321 109.087,261.315" fill="#99d9fa"/>
<line x1="110.176" y1="271.716" x2="146.379" y2="271.716" stroke="#8c8c8c" stroke-width="0.3" stroke-dasharray="1.2,0.8"/>
<line x1="146.379" y1="271.716" x2="147.912" y2="287.997" stroke="#8c8c8c" stroke-width="0.3" stroke-dasharray="1.2,0.8"/>
<line x1="146.379" y1="271.716" x2="111.709" y2="287.997" stroke="#8c8c8c" stroke-width="0.3" stroke-dasharray="1.2,0.8"/>
<line x1="111.709" y1="287.997" x2="110.176" y2="271.716" stroke="#8c8c8c" stroke-width="0.3" stroke-dasharray="1.2,0.8"/>
<line x1="141.435" y1="226.24" x2="105.697" y2="230.125" stroke="#8c8c8c" stroke-width="0.3" stroke-dasharray="1.2,0.8"/>
<line x1="142.566" y1="236.636" x2="106.827" y2="240.522" stroke="#8c8c8c" stroke-width="0.3" stroke-dasharray="1.2,0.8"/>
<line x1="143.696" y1="247.033" x2="107.957" y2="250.919" stroke="#8c8c8c" stroke-width="0.3" stroke-dasharray="1.2,0.8"/>
<line x1="144.826" y1="257.43" x2="109.087" y2="261.315" stroke="#8c8c8c" stroke-width="0.3" stroke-dasharray="1.2,0.8"/>
<line x1="146.379" y1="271.716" x2="109.087" y2="261.315" stroke="#8c8c8c" stroke-width="0.3" stroke-dasharray="1.2,0.8"/>
<line x1="141.435" y1="226.24" x2="104.144" y2="215.838" stroke="#8c8c8c" stroke-width="0.3" stroke-dasharray="1.2,0.8"/>
<line x1="160.262" y1="268.005" x2="146.379" y2="271.716" stroke="#8c8c8c" stroke-width="0.3" stroke-dasharray="1.2,0.8"/>
<line x1="109.087" y1="261.315" x2="110.176" y2="271.716" stroke="#8c8c8c" stroke-width="0.3" stroke-dasharray="1.2,0.8"/>
<line x1="104.144" y1="215.838" x2="140.347" y2="215.838" stroke="#8c8c8c" stroke-width="0.3" stroke-dasharray="1.2,0.8"/>
<line x1="157.81" y1="291.375" x2="147.912" y2="287.997" stroke="#8c8c8c" stroke-width="0.3" stroke-dasharray="1.2,0.8"/>
<line x1="97.826" y1="291.708" x2="111.709" y2="287.997" stroke="#8c8c8c" stroke-width="0.3" stroke-dasharray="1.2,0.8"/>
<line x1="166.622" y1="285.744" x2="157.81" y2="291.375" stroke="#8c8c8c" stroke-width="0.3" stroke-dasharray="1.2,0.8"/>
<line x1="106.827" y1="240.522" x2="105.696" y2="230.125" stroke="#8c8c8c" stroke-width="0.3" stroke-dasharray="1.2,0.8"/>
<line x1="167.713" y1="275.343" x2="166.622" y2="285.744" stroke="#8c8c8c" stroke-width="0.3" stroke-dasharray="1.2,0.8"/>
<line x1="107.957" y1="250.919" x2="106.827" y2="240.522" stroke="#8c8c8c" stroke-width="0.3" stroke-dasharray="1.2,0.8"/>
<line x1="160.262" y1="268.005" x2="167.713" y2="275.343" stroke="#8c8c8c" stroke-width="0.3" stroke-dasharray="1.2,0.8"/>
<line x1="109.087" y1="261.315" x2="107.957" y2="250.919" stroke="#8c8c8c" stroke-width="0.3" stroke-dasharray="1.2,0.8"/>
<line x1="144.826" y1="257.43" x2="146.379" y2="271.716" stroke="#141414" stroke-width="0.4"/>
<line x1="100.279" y1="268.338" x2="110.176" y2="271.716" stroke="#141414" stroke-width="0.4"/>
<line x1="147.912" y1="287.997" x2="111.709" y2="287.997" stroke="#141414" stroke-width="0.4"/>
<line x1="140.347" y1="215.838" x2="141.435" y2="226.24" stroke="#141414" stroke-width="0.4"/>
<line x1="105.697" y1="230.125" x2="104.144" y2="215.838" stroke="#141414" stroke-width="0.4"/>
<line x1="141.435" y1="226.24" x2="142.566" y2="236.636" stroke="#141414" stroke-width="0.4"/>
<line x1="97.826" y1="291.709" x2="90.375" y2="284.37" stroke="#141414" stroke-width="0.4"/>
<line x1="142.566" y1="236.636" x2="143.696" y2="247.033" stroke="#141414" stroke-width="0.4"/>
<line x1="90.375" y1="284.37" x2="91.467" y2="273.969" stroke="#141414" stroke-width="0.4"/>
<line x1="143.696" y1="247.033" x2="144.826" y2="257.43" stroke="#141414" stroke-width="0.4"/>
<line x1="91.467" y1="273.969" x2="100.279" y2="268.338" stroke="#141414" stroke-width="0.4"/>
<line x1="146.379" y1="271.716" x2="148.736" y2="263.84" stroke="#141414" stroke-width="0.4"/>
<line x1="148.736" y1="263.84" x2="154.29" y2="262.356" stroke="#141414" stroke-width="0.4"/>
<line x1="154.29" y1="262.356" x2="160.262" y2="268.005" stroke="#141414" stroke-width="0.4"/>
<line x1="110.176" y1="271.716" x2="104.562" y2="268.238" stroke="#141414" stroke-width="0.4"/>
<line x1="104.562" y1="268.238" x2="104.257" y2="265.326" stroke="#141414" stroke-width="0.4"/>
<line x1="104.257" y1="265.326" x2="109.087" y2="261.315" stroke="#141414" stroke-width="0.4"/>
<line x1="140.347" y1="215.838" x2="134.916" y2="208.838" stroke="#141414" stroke-width="0.4"/>
<line x1="134.916" y1="208.838" x2="109.574" y2="208.838" stroke="#141414" stroke-width="0.4"/>
<line x1="109.574" y1="208.838" x2="104.144" y2="215.838" stroke="#141414" stroke-width="0.4"/>
<line x1="147.912" y1="287.997" x2="147.707" y2="293.452" stroke="#141414" stroke-width="0.4"/>
<line x1="147.707" y1="293.452" x2="154.636" y2="295.817" stroke="#141414" stroke-width="0.4"/>
<line x1="154.636" y1="295.817" x2="157.81" y2="291.375" stroke="#141414" stroke-width="0.4"/>
<line x1="111.709" y1="287.997" x2="111.435" y2="295.316" stroke="#141414" stroke-width="0.4"/>
<line x1="111.435" y1="295.316" x2="101.717" y2="297.914" stroke="#141414" stroke-width="0.4"/>
<line x1="101.717" y1="297.914" x2="97.826" y2="291.708" stroke="#141414" stroke-width="0.4"/>
<line x1="157.81" y1="291.375" x2="161.947" y2="294.937" stroke="#141414" stroke-width="0.4"/>
<line x1="161.947" y1="294.937" x2="168.116" y2="290.995" stroke="#141414" stroke-width="0.4"/>
<line x1="168.116" y1="290.995" x2="166.622" y2="285.744" stroke="#141414" stroke-width="0.4"/>
<line x1="105.696" y1="230.125" x2="100.668" y2="232.25" stroke="#141414" stroke-width="0.4"/>
<line x1="100.668" y1="232.25" x2="101.459" y2="239.527" stroke="#141414" stroke-width="0.4"/>
<line x1="101.459" y1="239.527" x2="106.827" y2="240.522" stroke="#141414" stroke-width="0.4"/>
<line x1="166.622" y1="285.744" x2="171.986" y2="284.73" stroke="#141414" stroke-width="0.4"/>
<line x1="171.986" y1="284.73" x2="172.75" y2="277.449" stroke="#141414" stroke-width="0.4"/>
<line x1="172.75" y1="277.449" x2="167.713" y2="275.343" stroke="#141414" stroke-width="0.4"/>
<line x1="106.827" y1="240.522" x2="101.798" y2="242.646" stroke="#141414" stroke-width="0.4"/>
<line x1="101.798" y1="242.646" x2="102.589" y2="249.924" stroke="#141414" stroke-width="0.4"/>
<line x1="102.589" y1="249.924" x2="107.957" y2="250.919" stroke="#141414" stroke-width="0.4"/>
<line x1="167.713" y1="275.343" x2="170.265" y2="270.517" stroke="#141414" stroke-width="0.4"/>
<line x1="170.265" y1="270.517" x2="165.049" y2="265.38" stroke="#141414" stroke-width="0.4"/>
<line x1="165.049" y1="265.38" x2="160.262" y2="268.005" stroke="#141414" stroke-width="0.4"/>
<line x1="107.957" y1="250.919" x2="102.928" y2="253.043" stroke="#141414" stroke-width="0.4"/>
<line x1="102.928" y1="253.043" x2="103.719" y2="260.321" stroke="#141414" stroke-width="0.4"/>
<line x1="103.719" y1="260.321" x2="109.087" y2="261.315" stroke="#141414" stroke-width="0.4"/>
<circle cx="152.417" cy="266.479" r="2.30" fill="#ffe082" stroke="#464646" stroke-width="0.2"/>
<text x="152.417" y="267.27" font-size="2.25" text-anchor="middle" fill="#141414">128</text>
<circle cx="107.021" cy="266.649" r="2.30" fill="#ffe082" stroke="#464646" stroke-width="0.2"/>
<text x="107.021" y="267.44" font-size="2.25" text-anchor="middle" fill="#141414">129</text>
<circle cx="122.245" cy="212.338" r="2.30" fill="#ffe082" stroke="#464646" stroke-width="0.2"/>
<text x="122.245" y="213.13" font-size="2.25" text-anchor="middle" fill="#141414">130</text>
<circle cx="152.016" cy="292.16" r="2.30" fill="#ffe082" stroke="#464646" stroke-width="0.2"/>
<text x="152.016" y="292.95" font-size="2.25" text-anchor="middle" fill="#141414">131</text>
<circle cx="105.672" cy="293.234" r="2.30" fill="#ffe082" stroke="#464646" stroke-width="0.2"/>
<text x="105.672" y="294.02" font-size="2.25" text-anchor="middle" fill="#141414">132</text>
<circle cx="163.623" cy="290.763" r="2.30" fill="#ffe082" stroke="#464646" stroke-width="0.2"/>
<text x="163.623" y="291.55" font-size="2.25" text-anchor="middle" fill="#141414">133</text>
<circle cx="103.662" cy="235.606" r="2.30" fill="#ffe082" stroke="#464646" stroke-width="0.2"/>
<text x="103.662" y="236.39" font-size="2.25" text-anchor="middle" fill="#141414">134</text>
<circle cx="169.768" cy="280.816" r="2.30" fill="#ffe082" stroke="#464646" stroke-width="0.2"/>
<text x="169.768" y="281.60" font-size="2.25" text-anchor="middle" fill="#141414">135</text>
<circle cx="104.793" cy="246.003" r="2.30" fill="#ffe082" stroke="#464646" stroke-width="0.2"/>
<text x="104.793" y="246.79" font-size="2.25" text-anchor="middle" fill="#141414">136</text>
<circle cx="165.822" cy="269.811" r="2.30" fill="#ffe082" stroke="#464646" stroke-width="0.2"/>
<text x="165.822" y="270.60" font-size="2.25" text-anchor="middle" fill="#141414">137</text>
<circle cx="105.923" cy="256.399" r="2.30" fill="#99d9fa" stroke="#464646" stroke-width="0.2"/>
<text x="105.923" y="257.19" font-size="2.25" text-anchor="middle" fill="#141414">138</text>
<circle cx="122.755" cy="277.143" r="4.10" fill="#eaf1fe" stroke="#2e78e6" stroke-width="0.3"/>
<text x="122.755" y="278.75" font-size="4.64" text-anchor="middle" fill="#14306e" font-weight="bold">14</text>
<text x="205.0" y="295.0" font-size="3.2" text-anchor="end" fill="#737373" font-family="sans-serif">9 / 10</text>
</svg>
