<svg xmlns="http://www.w3.org/2000/svg" xmlns:xlink="http://www.w3.org/1999/xlink" width="210.00mm" height="297.00mm" viewBox="0 0 210.00 297.00">
<rect x="0" y="0" width="210.00" height="297.00" fill="#ffffff" stroke="#cccccc" stroke-width="0.2"/>
<polygon points="109.107,130.024 116.107,142.233 116.107,199.208 109.107,211.417" fill="rgb(216,216,216)"/>
<polygon points="86.393,130.024 79.393,125.198 79.393,102.673 86.393,97.846" fill="rgb(216,216,216)"/>
<polygon points="86.393,130.024 79.393,142.233 79.393,199.208 86.393,211.417" fill="rgb(216,216,216)"/>
<polygon points="109.107,97.846 121.316,90.846 178.291,90.846 190.5,97.846" fill="rgb(216,216,216)"/>
<polygon points="5.0,243.596 17.209,250.596 74.184,250.596 86.393,243.596" fill="rgb(216,216,216)"/>
<polygon points="190.5,130.024 197.5,125.198 197.5,102.673 190.5,97.846" fill="rgb(216,216,216)"/>
<polygon points="109.107,16.453 105.7,9.453 89.8,9.453 86.393,16.453" fill="rgb(216,216,216)"/>
<line x1="109.107" y1="130.024" x2="86.393" y2="130.024" stroke="#8c8c8c" stroke-width="0.3" stroke-dasharray="1.2,0.8"/>
<line x1="109.107" y1="97.846" x2="109.107" y2="130.024" stroke="#8c8c8c" stroke-width="0.3" stroke-dasharray="1.2,0.8"/>
<line x1="86.393" y1="97.846" x2="109.107" y2="97.846" stroke="#8c8c8c" stroke-width="0.3" stroke-dasharray="1.2,0.8"/>
<line x1="109.107" y1="211.417" x2="86.393" y2="211.417" stroke="#8c8c8c" stroke-width="0.3" stroke-dasharray="1.2,0.8"/>
<line x1="86.393" y1="211.417" x2="86.393" y2="243.596" stroke="#8c8c8c" stroke-width="0.3" stroke-dasharray="1.2,0.8"/>
<line x1="109.107" y1="211.417" x2="109.107" y2="130.024" stroke="#8c8c8c" stroke-width="0.3" stroke-dasharray="1.2,0.8"/>
<line x1="86.393" y1="97.846" x2="86.393" y2="130.024" stroke="#8c8c8c" stroke-width="0.3" stroke-dasharray="1.2,0.8"/>
<line x1="86.393" y1="211.417" x2="86.393" y2="130.024" stroke="#8c8c8c" stroke-width="0.3" stroke-dasharray="1.2,0.8"/>
<line x1="190.5" y1="97.846" x2="109.107" y2="97.846" stroke="#8c8c8c" stroke-width="0.3" stroke-dasharray="1.2,0.8"/>
<line x1="86.393" y1="243.596" x2="5.0" y2="243.596" stroke="#8c8c8c" stroke-width="0.3" stroke-dasharray="1.2,0.8"/>
<line x1="190.5" y1="97.846" x2="190.5" y2="130.024" stroke="#8c8c8c" stroke-width="0.3" stroke-dasharray="1.2,0.8"/>
<line x1="86.393" y1="16.453" x2="109.107" y2="16.453" stroke="#8c8c8c" stroke-width="0.3" stroke-dasharray="1.2,0.8"/>
<line x1="190.5" y1="130.024" x2="109.107" y2="130.024" stroke="#141414" stroke-width="0.4"/>
<line x1="5.0" y1="243.596" x2="5.0" y2="211.417" stroke="#141414" stroke-width="0.4"/>
<line x1="5.0" y1="211.417" x2="86.393" y2="211.417" stroke="#141414" stroke-width="0.4"/>
<line x1="109.107" y1="16.453" x2="109.107" y2="97.846" stroke="#141414" stroke-width="0.4"/>
<line x1="86.393" y1="97.846" x2="86.393" y2="16.453" stroke="#141414" stroke-width="0.4"/>
<line x1="109.107" y1="211.417" x2="109.107" y2="243.596" stroke="#141414" stroke-width="0.4"/>
<line x1="109.107" y1="243.596" x2="86.393" y2="243.596" stroke="#141414" stroke-width="0.4"/>
<line x1="109.107" y1="130.024" x2="116.107" y2="142.233" stroke="#141414" stroke-width="0.4"/>
<line x1="116.107" y1="142.233" x2="116.107" y2="199.208" stroke="#141414" stroke-width="0.4"/>
<line x1="116.107" y1="199.208" x2="109.107" y2="211.417" stroke="#141414" stroke-width="0.4"/>
<line x1="86.393" y1="130.024" x2="79.393" y2="125.198" stroke="#141414" stroke-width="0.4"/>
<line x1="79.393" y1="125.198" x2="79.393" y2="102.673" stroke="#141414" stroke-width="0.4"/>
<line x1="79.393" y1="102.673" x2="86.393" y2="97.846" stroke="#141414" stroke-width="0.4"/>
<line x1="86.393" y1="130.024" x2="79.393" y2="142.233" stroke="#141414" stroke-width="0.4"/>
<line x1="79.393" y1="142.233" x2="79.393" y2="199.208" stroke="#141414" stroke-width="0.4"/>
<line x1="79.393" y1="199.208" x2="86.393" y2="211.417" stroke="#141414" stroke-width="0.4"/>
<line x1="109.107" y1="97.846" x2="121.316" y2="90.846" stroke="#141414" stroke-width="0.4"/>
<line x1="121.316" y1="90.846" x2="178.291" y2="90.846" stroke="#141414" stroke-width="0.4"/>
<line x1="178.291" y1="90.846" x2="190.5" y2="97.846" stroke="#141414" stroke-width="0.4"/>
<line x1="5.0" y1="243.596" x2="17.209" y2="250.596" stroke="#141414" stroke-width="0.4"/>
<line x1="17.209" y1="250.596" x2="74.184" y2="250.596" stroke="#141414" stroke-width="0.4"/>
<line x1="74.184" y1="250.596" x2="86.393" y2="243.596" stroke="#141414" stroke-width="0.4"/>
<line x1="190.5" y1="130.024" x2="197.5" y2="125.198" stroke="#141414" stroke-width="0.4"/>
<line x1="197.5" y1="125.198" x2="197.5" y2="102.673" stroke="#141414" stroke-width="0.4"/>
<line x1="197.5" y1="102.673" x2="190.5" y2="97.846" stroke="#141414" stroke-width="0.4"/>
<line x1="109.107" y1="16.453" x2="105.7" y2="9.453" stroke="#141414" stroke-width="0.4"/>
<line x1="105.7" y1="9.453" x2="89.8" y2="9.453" stroke="#141414" stroke-width="0.4"/>
<line x1="89.8" y1="9.453" x2="86.393" y2="16.453" stroke="#141414" stroke-width="0.4"/>
<circle cx="112.607" cy="170.721" r="2.41" fill="#ffe082" stroke="#464646" stroke-width="0.2"/>
<text x="112.607" y="171.55" font-size="2.36" text-anchor="middle" fill="#141414">178</text>
<circle cx="82.893" cy="113.935" r="2.41" fill="#ffe082" stroke="#464646" stroke-width="0.2"/>
<text x="82.893" y="114.76" font-size="2.36" text-anchor="middle" fill="#141414">179</text>
<circle cx="82.893" cy="170.721" r="2.41" fill="#ffe082" stroke="#464646" stroke-width="0.2"/>
<text x="82.893" y="171.55" font-size="2.36" text-anchor="middle" fill="#141414">180</text>
<circle cx="149.804" cy="94.346" r="2.41" fill="#ffe082" stroke="#464646" stroke-width="0.2"/>
<text x="149.804" y="95.17" font-size="2.36" text-anchor="middle" fill="#141414">181</text>
<circle cx="45.696" cy="247.096" r="2.41" fill="#ffe082" stroke="#464646" stroke-width="0.2"/>
<text x="45.696" y="247.92" font-size="2.36" text-anchor="middle" fill="#141414">182</text>
<circle cx="194.0" cy="113.935" r="2.41" fill="#ffe082" stroke="#464646" stroke-width="0.2"/>
<text x="194.0" y="114.76" font-size="2.36" text-anchor="middle" fill="#141414">183</text>
<circle cx="97.75" cy="12.953" r="2.41" fill="#ffe082" stroke="#464646" stroke-width="0.2"/>
<text x="97.75" y="13.78" font-size="2.36" text-anchor="middle" fill="#141414">184</text>
<circle cx="101.25" cy="252.243" r="4.6" fill="#eaf1fe" stroke="#2e78e6" stroke-width="0.3"/>
<text x="101.25" y="254.043" font-size="5.2" text-anchor="middle" fill="#14306e" font-weight="bold">18</text>
</svg>
