<svg xmlns="http://www.w3.org/2000/svg" xmlns:xlink="http://www.w3.org/1999/xlink" width="210.00mm" height="297.00mm" viewBox="0 0 210.00 297.00">
<rect x="0" y="0" width="210.00" height="297.00" fill="#ffffff" stroke="#cccccc" stroke-width="0.2"/>
<polygon points="21.93,38.004 14.484,36.865 7.92,48.066 12.552,54.005" fill="rgb(216,216,216)"/>
<polygon points="12.552,54.005 13.711,55.507 21.759,48.942 22.014,48.801" fill="rgb(216,216,216)"/>
<polygon points="7.576,26.26 8.141,24.449 17.968,27.807 18.256,27.85" fill="rgb(216,216,216)"/>
<polygon points="8.068,24.273 2.781,20.361 5.768,12.062 12.336,12.418" fill="rgb(216,216,216)"/>
<polygon points="13.704,55.697 10.106,61.203 15.792,67.946 21.826,65.329" fill="rgb(216,216,216)"/>
<polygon points="43.804,49.329 48.437,55.268 41.873,66.469 34.427,65.33" fill="rgb(216,216,216)"/>
<polygon points="43.804,49.329 42.645,47.827 34.598,54.392 34.342,54.532" fill="rgb(216,216,216)"/>
<polygon points="38.505,19.783 37.94,21.595 28.113,18.235 27.824,18.192" fill="rgb(216,216,216)"/>
<polygon points="46.344,33.624 44.454,27.325 35.634,27.325 33.744,33.625" fill="rgb(216,216,216)"/>
<polygon points="46.344,33.624 46.762,40.188 38.492,43.254 34.53,38.004" fill="rgb(216,216,216)"/>
<polygon points="24.151,8.039 20.19,2.788 11.919,5.854 12.336,12.418" fill="rgb(216,216,216)"/>
<polygon points="38.505,19.783 37.94,21.595 28.113,18.235 27.824,18.192" fill="#99d9fa"/>
<line x1="22.014" y1="48.801" x2="21.93" y2="38.004" stroke="#8c8c8c" stroke-width="0.3" stroke-dasharray="1.2,0.8"/>
<line x1="18.256" y1="27.85" x2="21.93" y2="38.004" stroke="#8c8c8c" stroke-width="0.3" stroke-dasharray="1.2,0.8"/>
<line x1="33.744" y1="33.625" x2="21.93" y2="38.004" stroke="#8c8c8c" stroke-width="0.3" stroke-dasharray="1.2,0.8"/>
<line x1="21.93" y1="38.004" x2="34.53" y2="38.004" stroke="#8c8c8c" stroke-width="0.3" stroke-dasharray="1.2,0.8"/>
<line x1="34.342" y1="54.532" x2="34.427" y2="65.33" stroke="#8c8c8c" stroke-width="0.3" stroke-dasharray="1.2,0.8"/>
<line x1="27.824" y1="18.192" x2="24.151" y2="8.039" stroke="#8c8c8c" stroke-width="0.3" stroke-dasharray="1.2,0.8"/>
<line x1="34.427" y1="65.33" x2="21.826" y2="65.329" stroke="#8c8c8c" stroke-width="0.3" stroke-dasharray="1.2,0.8"/>
<line x1="34.342" y1="54.532" x2="22.014" y2="48.801" stroke="#8c8c8c" stroke-width="0.3" stroke-dasharray="1.2,0.8"/>
<line x1="21.826" y1="65.329" x2="34.342" y2="54.532" stroke="#8c8c8c" stroke-width="0.3" stroke-dasharray="1.2,0.8"/>
<line x1="34.53" y1="38.004" x2="34.342" y2="54.532" stroke="#8c8c8c" stroke-width="0.3" stroke-dasharray="1.2,0.8"/>
<line x1="22.014" y1="48.801" x2="21.826" y2="65.329" stroke="#8c8c8c" stroke-width="0.3" stroke-dasharray="1.2,0.8"/>
<line x1="34.53" y1="38.004" x2="22.014" y2="48.801" stroke="#8c8c8c" stroke-width="0.3" stroke-dasharray="1.2,0.8"/>
<line x1="18.256" y1="27.85" x2="27.824" y2="18.192" stroke="#8c8c8c" stroke-width="0.3" stroke-dasharray="1.2,0.8"/>
<line x1="27.824" y1="18.192" x2="12.336" y2="12.418" stroke="#8c8c8c" stroke-width="0.3" stroke-dasharray="1.2,0.8"/>
<line x1="27.824" y1="18.192" x2="33.744" y2="33.625" stroke="#8c8c8c" stroke-width="0.3" stroke-dasharray="1.2,0.8"/>
<line x1="12.336" y1="12.418" x2="18.256" y2="27.85" stroke="#8c8c8c" stroke-width="0.3" stroke-dasharray="1.2,0.8"/>
<line x1="18.256" y1="27.85" x2="33.744" y2="33.625" stroke="#8c8c8c" stroke-width="0.3" stroke-dasharray="1.2,0.8"/>
<line x1="22.612" y1="69.709" x2="21.826" y2="65.329" stroke="#8c8c8c" stroke-width="0.3" stroke-dasharray="1.2,0.8"/>
<line x1="33.744" y1="33.625" x2="34.53" y2="38.004" stroke="#8c8c8c" stroke-width="0.3" stroke-dasharray="1.2,0.8"/>
<line x1="12.552" y1="54.005" x2="21.93" y2="38.004" stroke="#8c8c8c" stroke-width="0.3" stroke-dasharray="1.2,0.8"/>
<line x1="22.014" y1="48.801" x2="12.552" y2="54.005" stroke="#8c8c8c" stroke-width="0.3" stroke-dasharray="1.2,0.8"/>
<line x1="18.256" y1="27.85" x2="7.576" y2="26.26" stroke="#8c8c8c" stroke-width="0.3" stroke-dasharray="1.2,0.8"/>
<line x1="12.336" y1="12.418" x2="8.068" y2="24.273" stroke="#8c8c8c" stroke-width="0.3" stroke-dasharray="1.2,0.8"/>
<line x1="21.826" y1="65.329" x2="13.704" y2="55.697" stroke="#8c8c8c" stroke-width="0.3" stroke-dasharray="1.2,0.8"/>
<line x1="34.427" y1="65.33" x2="43.804" y2="49.329" stroke="#8c8c8c" stroke-width="0.3" stroke-dasharray="1.2,0.8"/>
<line x1="34.342" y1="54.532" x2="43.804" y2="49.329" stroke="#8c8c8c" stroke-width="0.3" stroke-dasharray="1.2,0.8"/>
<line x1="27.824" y1="18.192" x2="38.505" y2="19.783" stroke="#8c8c8c" stroke-width="0.3" stroke-dasharray="1.2,0.8"/>
<line x1="33.744" y1="33.625" x2="46.344" y2="33.624" stroke="#8c8c8c" stroke-width="0.3" stroke-dasharray="1.2,0.8"/>
<line x1="34.53" y1="38.004" x2="46.344" y2="33.624" stroke="#8c8c8c" stroke-width="0.3" stroke-dasharray="1.2,0.8"/>
<line x1="12.336" y1="12.418" x2="24.151" y2="8.039" stroke="#8c8c8c" stroke-width="0.3" stroke-dasharray="1.2,0.8"/>
<line x1="21.93" y1="38.004" x2="7.576" y2="26.26" stroke="#141414" stroke-width="0.4"/>
<line x1="13.704" y1="55.697" x2="22.014" y2="48.801" stroke="#141414" stroke-width="0.4"/>
<line x1="18.256" y1="27.85" x2="8.068" y2="24.273" stroke="#141414" stroke-width="0.4"/>
<line x1="22.612" y1="69.709" x2="10.012" y2="69.708" stroke="#141414" stroke-width="0.4"/>
<line x1="10.012" y1="69.708" x2="21.826" y2="65.329" stroke="#141414" stroke-width="0.4"/>
<line x1="24.151" y1="8.039" x2="38.505" y2="19.783" stroke="#141414" stroke-width="0.4"/>
<line x1="42.652" y1="47.637" x2="34.342" y2="54.532" stroke="#141414" stroke-width="0.4"/>
<line x1="27.824" y1="18.192" x2="38.013" y2="21.77" stroke="#141414" stroke-width="0.4"/>
<line x1="38.013" y1="21.77" x2="33.744" y2="33.625" stroke="#141414" stroke-width="0.4"/>
<line x1="34.53" y1="38.004" x2="42.652" y2="47.637" stroke="#141414" stroke-width="0.4"/>
<line x1="34.427" y1="65.33" x2="22.612" y2="69.709" stroke="#141414" stroke-width="0.4"/>
<line x1="21.93" y1="38.004" x2="14.484" y2="36.865" stroke="#141414" stroke-width="0.4"/>
<line x1="14.484" y1="36.865" x2="7.92" y2="48.066" stroke="#141414" stroke-width="0.4"/>
<line x1="7.92" y1="48.066" x2="12.552" y2="54.005" stroke="#141414" stroke-width="0.4"/>
<line x1="12.552" y1="54.005" x2="13.711" y2="55.507" stroke="#141414" stroke-width="0.4"/>
<line x1="13.711" y1="55.507" x2="21.759" y2="48.942" stroke="#141414" stroke-width="0.4"/>
<line x1="21.759" y1="48.942" x2="22.014" y2="48.801" stroke="#141414" stroke-width="0.4"/>
<line x1="7.576" y1="26.26" x2="8.141" y2="24.449" stroke="#141414" stroke-width="0.4"/>
<line x1="8.141" y1="24.449" x2="17.968" y2="27.807" stroke="#141414" stroke-width="0.4"/>
<line x1="17.968" y1="27.807" x2="18.256" y2="27.85" stroke="#141414" stroke-width="0.4"/>
<line x1="8.068" y1="24.273" x2="2.781" y2="20.361" stroke="#141414" stroke-width="0.4"/>
<line x1="2.781" y1="20.361" x2="5.768" y2="12.062" stroke="#141414" stroke-width="0.4"/>
<line x1="5.768" y1="12.062" x2="12.336" y2="12.418" stroke="#141414" stroke-width="0.4"/>
<line x1="13.704" y1="55.697" x2="10.106" y2="61.203" stroke="#141414" stroke-width="0.4"/>
<line x1="10.106" y1="61.203" x2="15.792" y2="67.946" stroke="#141414" stroke-width="0.4"/>
<line x1="15.792" y1="67.946" x2="21.826" y2="65.329" stroke="#141414" stroke-width="0.4"/>
<line x1="43.804" y1="49.329" x2="48.437" y2="55.268" stroke="#141414" stroke-width="0.4"/>
<line x1="48.437" y1="55.268" x2="41.873" y2="66.469" stroke="#141414" stroke-width="0.4"/>
<line x1="41.873" y1="66.469" x2="34.427" y2="65.33" stroke="#141414" stroke-width="0.4"/>
<line x1="43.804" y1="49.329" x2="42.645" y2="47.827" stroke="#141414" stroke-width="0.4"/>
<line x1="42.645" y1="47.827" x2="34.598" y2="54.392" stroke="#141414" stroke-width="0.4"/>
<line x1="34.598" y1="54.392" x2="34.342" y2="54.532" stroke="#141414" stroke-width="0.4"/>
<line x1="38.505" y1="19.783" x2="37.94" y2="21.595" stroke="#141414" stroke-width="0.4"/>
<line x1="37.94" y1="21.595" x2="28.113" y2="18.235" stroke="#141414" stroke-width="0.4"/>
<line x1="28.113" y1="18.235" x2="27.824" y2="18.192" stroke="#141414" stroke-width="0.4"/>
<line x1="46.344" y1="33.624" x2="44.454" y2="27.325" stroke="#141414" stroke-width="0.4"/>
<line x1="44.454" y1="27.325" x2="35.634" y2="27.325" stroke="#141414" stroke-width="0.4"/>
<line x1="35.634" y1="27.325" x2="33.744" y2="33.625" stroke="#141414" stroke-width="0.4"/>
<line x1="46.344" y1="33.624" x2="46.762" y2="40.188" stroke="#141414" stroke-width="0.4"/>
<line x1="46.762" y1="40.188" x2="38.492" y2="43.254" stroke="#141414" stroke-width="0.4"/>
<line x1="38.492" y1="43.254" x2="34.53" y2="38.004" stroke="#141414" stroke-width="0.4"/>
<line x1="24.151" y1="8.039" x2="20.19" y2="2.788" stroke="#141414" stroke-width="0.4"/>
<line x1="20.19" y1="2.788" x2="11.919" y2="5.854" stroke="#141414" stroke-width="0.4"/>
<line x1="11.919" y1="5.854" x2="12.336" y2="12.418" stroke="#141414" stroke-width="0.4"/>
<circle cx="14.221" cy="44.235" r="1.66" fill="#ffe082" stroke="#464646" stroke-width="0.2"/>
<text x="14.221" y="44.81" font-size="1.63" text-anchor="middle" fill="#141414">111</text>
<circle cx="7.238" cy="17.278" r="1.66" fill="#ffe082" stroke="#464646" stroke-width="0.2"/>
<text x="7.238" y="17.85" font-size="1.63" text-anchor="middle" fill="#141414">114</text>
<circle cx="15.357" cy="62.544" r="1.66" fill="#ffe082" stroke="#464646" stroke-width="0.2"/>
<text x="15.357" y="63.11" font-size="1.63" text-anchor="middle" fill="#141414">115</text>
<circle cx="42.135" cy="59.099" r="1.66" fill="#ffe082" stroke="#464646" stroke-width="0.2"/>
<text x="42.135" y="59.67" font-size="1.63" text-anchor="middle" fill="#141414">116</text>
<circle cx="40.044" cy="30.475" r="1.66" fill="#ffe082" stroke="#464646" stroke-width="0.2"/>
<text x="40.044" y="31.05" font-size="1.63" text-anchor="middle" fill="#141414">119</text>
<circle cx="41.532" cy="38.768" r="1.66" fill="#ffe082" stroke="#464646" stroke-width="0.2"/>
<text x="41.532" y="39.34" font-size="1.63" text-anchor="middle" fill="#141414">120</text>
<circle cx="17.149" cy="7.275" r="1.66" fill="#ffe082" stroke="#464646" stroke-width="0.2"/>
<text x="17.149" y="7.85" font-size="1.63" text-anchor="middle" fill="#141414">121</text>
<circle cx="27.828" cy="78.021" r="4.6" fill="#eaf1fe" stroke="#2e78e6" stroke-width="0.3"/>
<text x="27.828" y="79.821" font-size="5.2" text-anchor="middle" fill="#14306e" font-weight="bold">11</text>
<polygon points="16.34,109.999 8.896,109.745 4.461,120.758 10.004,125.733" fill="rgb(216,216,216)"/>
<polygon points="10.004,125.733 11.059,127.014 19.225,120.548 19.48,120.406" fill="rgb(216,216,216)"/>
<polygon points="5.949,96.594 6.614,95.073 16.236,99.063 16.519,99.131" fill="rgb(216,216,216)"/>
<polygon points="6.506,94.901 2.665,88.568 9.881,79.874 16.813,82.482" fill="rgb(216,216,216)"/>
<polygon points="11.001,127.209 11.032,135.72 16.355,139.373 24.308,136.342" fill="rgb(216,216,216)"/>
<polygon points="46.784,120.609 52.327,125.584 47.892,136.597 40.448,136.342" fill="rgb(216,216,216)"/>
<polygon points="46.784,120.609 45.73,119.328 37.563,125.793 37.309,125.936" fill="rgb(216,216,216)"/>
<polygon points="42.731,91.481 42.066,93.001 32.445,89.011 32.161,88.943" fill="rgb(216,216,216)"/>
<polygon points="48.007,105.592 43.165,98.592 36.709,98.593 31.867,105.593" fill="rgb(216,216,216)"/>
<polygon points="48.007,105.592 45.26,113.648 39.05,115.411 32.48,109.999" fill="rgb(216,216,216)"/>
<polygon points="32.34,78.075 28.1,72.002 17.231,75.087 16.813,82.482" fill="rgb(216,216,216)"/>
<polygon points="46.784,120.609 52.327,125.584 47.892,136.597 40.448,136.342" fill="#99d9fa"/>
<line x1="19.48" y1="120.406" x2="16.34" y2="109.999" stroke="#8c8c8c" stroke-width="0.3" stroke-dasharray="1.2,0.8"/>
<line x1="16.519" y1="99.131" x2="16.34" y2="109.999" stroke="#8c8c8c" stroke-width="0.3" stroke-dasharray="1.2,0.8"/>
<line x1="31.867" y1="105.593" x2="16.34" y2="109.999" stroke="#8c8c8c" stroke-width="0.3" stroke-dasharray="1.2,0.8"/>
<line x1="16.34" y1="109.999" x2="32.48" y2="109.999" stroke="#8c8c8c" stroke-width="0.3" stroke-dasharray="1.2,0.8"/>
<line x1="37.309" y1="125.936" x2="40.448" y2="136.343" stroke="#8c8c8c" stroke-width="0.3" stroke-dasharray="1.2,0.8"/>
<line x1="32.161" y1="88.943" x2="32.34" y2="78.075" stroke="#8c8c8c" stroke-width="0.3" stroke-dasharray="1.2,0.8"/>
<line x1="40.448" y1="136.343" x2="24.308" y2="136.342" stroke="#8c8c8c" stroke-width="0.3" stroke-dasharray="1.2,0.8"/>
<line x1="37.309" y1="125.936" x2="19.48" y2="120.406" stroke="#8c8c8c" stroke-width="0.3" stroke-dasharray="1.2,0.8"/>
<line x1="24.308" y1="136.342" x2="37.309" y2="125.936" stroke="#8c8c8c" stroke-width="0.3" stroke-dasharray="1.2,0.8"/>
<line x1="32.48" y1="109.999" x2="37.309" y2="125.936" stroke="#8c8c8c" stroke-width="0.3" stroke-dasharray="1.2,0.8"/>
<line x1="19.48" y1="120.406" x2="24.308" y2="136.342" stroke="#8c8c8c" stroke-width="0.3" stroke-dasharray="1.2,0.8"/>
<line x1="32.48" y1="109.999" x2="19.48" y2="120.406" stroke="#8c8c8c" stroke-width="0.3" stroke-dasharray="1.2,0.8"/>
<line x1="16.519" y1="99.131" x2="32.161" y2="88.943" stroke="#8c8c8c" stroke-width="0.3" stroke-dasharray="1.2,0.8"/>
<line x1="32.161" y1="88.943" x2="16.813" y2="82.482" stroke="#8c8c8c" stroke-width="0.3" stroke-dasharray="1.2,0.8"/>
<line x1="32.161" y1="88.943" x2="31.867" y2="105.593" stroke="#8c8c8c" stroke-width="0.3" stroke-dasharray="1.2,0.8"/>
<line x1="16.813" y1="82.482" x2="16.519" y2="99.131" stroke="#8c8c8c" stroke-width="0.3" stroke-dasharray="1.2,0.8"/>
<line x1="16.519" y1="99.131" x2="31.867" y2="105.593" stroke="#8c8c8c" stroke-width="0.3" stroke-dasharray="1.2,0.8"/>
<line x1="24.921" y1="140.749" x2="24.308" y2="136.342" stroke="#8c8c8c" stroke-width="0.3" stroke-dasharray="1.2,0.8"/>
<line x1="31.867" y1="105.593" x2="32.48" y2="109.999" stroke="#8c8c8c" stroke-width="0.3" stroke-dasharray="1.2,0.8"/>
<line x1="10.004" y1="125.733" x2="16.34" y2="109.999" stroke="#8c8c8c" stroke-width="0.3" stroke-dasharray="1.2,0.8"/>
<line x1="19.48" y1="120.406" x2="10.004" y2="125.733" stroke="#8c8c8c" stroke-width="0.3" stroke-dasharray="1.2,0.8"/>
<line x1="16.519" y1="99.131" x2="5.949" y2="96.594" stroke="#8c8c8c" stroke-width="0.3" stroke-dasharray="1.2,0.8"/>
<line x1="16.813" y1="82.482" x2="6.506" y2="94.901" stroke="#8c8c8c" stroke-width="0.3" stroke-dasharray="1.2,0.8"/>
<line x1="24.308" y1="136.342" x2="11.001" y2="127.209" stroke="#8c8c8c" stroke-width="0.3" stroke-dasharray="1.2,0.8"/>
<line x1="40.448" y1="136.342" x2="46.784" y2="120.609" stroke="#8c8c8c" stroke-width="0.3" stroke-dasharray="1.2,0.8"/>
<line x1="37.309" y1="125.936" x2="46.784" y2="120.609" stroke="#8c8c8c" stroke-width="0.3" stroke-dasharray="1.2,0.8"/>
<line x1="32.161" y1="88.943" x2="42.731" y2="91.481" stroke="#8c8c8c" stroke-width="0.3" stroke-dasharray="1.2,0.8"/>
<line x1="31.867" y1="105.593" x2="48.007" y2="105.592" stroke="#8c8c8c" stroke-width="0.3" stroke-dasharray="1.2,0.8"/>
<line x1="32.48" y1="109.999" x2="48.007" y2="105.592" stroke="#8c8c8c" stroke-width="0.3" stroke-dasharray="1.2,0.8"/>
<line x1="16.813" y1="82.482" x2="32.34" y2="78.075" stroke="#8c8c8c" stroke-width="0.3" stroke-dasharray="1.2,0.8"/>
<line x1="16.34" y1="109.999" x2="5.949" y2="96.594" stroke="#141414" stroke-width="0.4"/>
<line x1="11.001" y1="127.209" x2="19.48" y2="120.406" stroke="#141414" stroke-width="0.4"/>
<line x1="16.519" y1="99.131" x2="6.506" y2="94.901" stroke="#141414" stroke-width="0.4"/>
<line x1="24.921" y1="140.749" x2="8.781" y2="140.748" stroke="#141414" stroke-width="0.4"/>
<line x1="8.781" y1="140.748" x2="24.308" y2="136.342" stroke="#141414" stroke-width="0.4"/>
<line x1="32.34" y1="78.075" x2="42.731" y2="91.481" stroke="#141414" stroke-width="0.4"/>
<line x1="45.787" y1="119.133" x2="37.309" y2="125.936" stroke="#141414" stroke-width="0.4"/>
<line x1="32.161" y1="88.943" x2="42.175" y2="93.173" stroke="#141414" stroke-width="0.4"/>
<line x1="42.175" y1="93.173" x2="31.867" y2="105.593" stroke="#141414" stroke-width="0.4"/>
<line x1="32.48" y1="109.999" x2="45.787" y2="119.133" stroke="#141414" stroke-width="0.4"/>
<line x1="40.448" y1="136.343" x2="24.921" y2="140.749" stroke="#141414" stroke-width="0.4"/>
<line x1="16.34" y1="109.999" x2="8.896" y2="109.745" stroke="#141414" stroke-width="0.4"/>
<line x1="8.896" y1="109.745" x2="4.461" y2="120.758" stroke="#141414" stroke-width="0.4"/>
<line x1="4.461" y1="120.758" x2="10.004" y2="125.733" stroke="#141414" stroke-width="0.4"/>
<line x1="10.004" y1="125.733" x2="11.059" y2="127.014" stroke="#141414" stroke-width="0.4"/>
<line x1="11.059" y1="127.014" x2="19.225" y2="120.548" stroke="#141414" stroke-width="0.4"/>
<line x1="19.225" y1="120.548" x2="19.48" y2="120.406" stroke="#141414" stroke-width="0.4"/>
<line x1="5.949" y1="96.594" x2="6.614" y2="95.073" stroke="#141414" stroke-width="0.4"/>
<line x1="6.614" y1="95.073" x2="16.236" y2="99.063" stroke="#141414" stroke-width="0.4"/>
<line x1="16.236" y1="99.063" x2="16.519" y2="99.131" stroke="#141414" stroke-width="0.4"/>
<line x1="6.506" y1="94.901" x2="2.665" y2="88.568" stroke="#141414" stroke-width="0.4"/>
<line x1="2.665" y1="88.568" x2="9.881" y2="79.874" stroke="#141414" stroke-width="0.4"/>
<line x1="9.881" y1="79.874" x2="16.813" y2="82.482" stroke="#141414" stroke-width="0.4"/>
<line x1="11.001" y1="127.209" x2="11.032" y2="135.72" stroke="#141414" stroke-width="0.4"/>
<line x1="11.032" y1="135.72" x2="16.355" y2="139.373" stroke="#141414" stroke-width="0.4"/>
<line x1="16.355" y1="139.373" x2="24.308" y2="136.342" stroke="#141414" stroke-width="0.4"/>
<line x1="46.784" y1="120.609" x2="52.327" y2="125.584" stroke="#141414" stroke-width="0.4"/>
<line x1="52.327" y1="125.584" x2="47.892" y2="136.597" stroke="#141414" stroke-width="0.4"/>
<line x1="47.892" y1="136.597" x2="40.448" y2="136.342" stroke="#141414" stroke-width="0.4"/>
<line x1="46.784" y1="120.609" x2="45.73" y2="119.328" stroke="#141414" stroke-width="0.4"/>
<line x1="45.73" y1="119.328" x2="37.563" y2="125.793" stroke="#141414" stroke-width="0.4"/>
<line x1="37.563" y1="125.793" x2="37.309" y2="125.936" stroke="#141414" stroke-width="0.4"/>
<line x1="42.731" y1="91.481" x2="42.066" y2="93.001" stroke="#141414" stroke-width="0.4"/>
<line x1="42.066" y1="93.001" x2="32.445" y2="89.011" stroke="#141414" stroke-width="0.4"/>
<line x1="32.445" y1="89.011" x2="32.161" y2="88.943" stroke="#141414" stroke-width="0.4"/>
<line x1="48.007" y1="105.592" x2="43.165" y2="98.592" stroke="#141414" stroke-width="0.4"/>
<line x1="43.165" y1="98.592" x2="36.709" y2="98.593" stroke="#141414" stroke-width="0.4"/>
<line x1="36.709" y1="98.593" x2="31.867" y2="105.593" stroke="#141414" stroke-width="0.4"/>
<line x1="48.007" y1="105.592" x2="45.26" y2="113.648" stroke="#141414" stroke-width="0.4"/>
<line x1="45.26" y1="113.648" x2="39.05" y2="115.411" stroke="#141414" stroke-width="0.4"/>
<line x1="39.05" y1="115.411" x2="32.48" y2="109.999" stroke="#141414" stroke-width="0.4"/>
<line x1="32.34" y1="78.075" x2="28.1" y2="72.002" stroke="#141414" stroke-width="0.4"/>
<line x1="28.1" y1="72.002" x2="17.231" y2="75.087" stroke="#141414" stroke-width="0.4"/>
<line x1="17.231" y1="75.087" x2="16.813" y2="82.482" stroke="#141414" stroke-width="0.4"/>
<circle cx="9.925" cy="116.559" r="1.66" fill="#ffe082" stroke="#464646" stroke-width="0.2"/>
<text x="9.925" y="117.13" font-size="1.63" text-anchor="middle" fill="#141414">122</text>
<circle cx="8.966" cy="86.456" r="1.66" fill="#ffe082" stroke="#464646" stroke-width="0.2"/>
<text x="8.966" y="87.03" font-size="1.63" text-anchor="middle" fill="#141414">125</text>
<circle cx="15.674" cy="134.661" r="1.66" fill="#ffe082" stroke="#464646" stroke-width="0.2"/>
<text x="15.674" y="135.23" font-size="1.63" text-anchor="middle" fill="#141414">126</text>
<circle cx="46.863" cy="129.783" r="1.66" fill="#99d9fa" stroke="#464646" stroke-width="0.2"/>
<text x="46.863" y="130.35" font-size="1.63" text-anchor="middle" fill="#141414">127</text>
<circle cx="39.937" cy="102.092" r="1.66" fill="#ffe082" stroke="#464646" stroke-width="0.2"/>
<text x="39.937" y="102.66" font-size="1.63" text-anchor="middle" fill="#141414">130</text>
<circle cx="41.199" cy="111.163" r="1.66" fill="#ffe082" stroke="#464646" stroke-width="0.2"/>
<text x="41.199" y="111.73" font-size="1.63" text-anchor="middle" fill="#141414">131</text>
<circle cx="23.621" cy="76.911" r="1.66" fill="#ffe082" stroke="#464646" stroke-width="0.2"/>
<text x="23.621" y="77.48" font-size="1.63" text-anchor="middle" fill="#141414">132</text>
<circle cx="29.831" cy="68.821" r="4.6" fill="#eaf1fe" stroke="#2e78e6" stroke-width="0.3"/>
<text x="29.831" y="70.621" font-size="5.2" text-anchor="middle" fill="#14306e" font-weight="bold">12</text>
<text x="205.0" y="295.0" font-size="3.2" text-anchor="end" fill="#737373" font-family="sans-serif">3 / 3</text>
</svg>
