<svg xmlns="http://www.w3.org/2000/svg" xmlns:xlink="http://www.w3.org/1999/xlink" width="210.00mm" height="297.00mm" viewBox="0 0 210.00 297.00">
<rect x="0" y="0" width="210.00" height="297.00" fill="#ffffff" stroke="#cccccc" stroke-width="0.2"/>
<polygon points="91.272,53.708 90.634,53.944 64.499,58.178 65.638,63.208" fill="rgb(216,216,216)"/>
<polygon points="40.782,74.591 41.596,66.519 58.994,58.551 65.638,63.208" fill="rgb(216,216,216)"/>
<polygon points="36.982,59.867 32.669,65.912 21.548,62.724 21.094,55.312" fill="rgb(216,216,216)"/>
<polygon points="110.058,93.514 110.034,101.626 93.493,111.251 86.429,107.263" fill="rgb(216,216,216)"/>
<polygon points="110.058,93.514 114.938,99.111 125.696,94.854 125.426,87.433" fill="rgb(216,216,216)"/>
<polygon points="61.842,119.214 68.59,123.717 85.801,115.351 86.429,107.263" fill="rgb(216,216,216)"/>
<polygon points="33.816,10.626 28.765,5.182 18.144,9.769 18.643,17.178" fill="rgb(216,216,216)"/>
<polygon points="79.591,94.434 78.959,94.685 55.303,102.361 55.264,104.103" fill="rgb(216,216,216)"/>
<polygon points="71.194,76.642 70.599,76.97 49.635,90.352 48.265,89.274" fill="rgb(216,216,216)"/>
<polygon points="61.341,23.721 60.667,23.807 36.25,28.538 35.373,27.032" fill="rgb(216,216,216)"/>
<polygon points="62.603,43.355 61.923,43.356 37.102,41.79 36.425,43.396" fill="rgb(216,216,216)"/>
<polygon points="16.241,30.113 17.647,34.573 34.957,28.726 35.373,27.032" fill="rgb(216,216,216)"/>
<polygon points="17.055,42.79 14.36,38.43 28.305,38.866 36.425,43.396" fill="rgb(216,216,216)"/>
<polygon points="16.24,30.113 13.16,34.612 6.195,32.389 6.29,26.938" fill="rgb(216,216,216)"/>
<polygon points="37.03,110.666 36.103,106.083 54.081,102.823 55.264,104.103" fill="rgb(216,216,216)"/>
<polygon points="31.608,99.178 31.359,104.298 43.352,97.168 48.265,89.274" fill="rgb(216,216,216)"/>
<polygon points="37.03,110.666 32.157,108.22 27.138,113.536 29.86,118.26" fill="rgb(216,216,216)"/>
<polygon points="106.257,30.691 106.02,28.741 88.06,26.386 87.399,26.229" fill="rgb(216,216,216)"/>
<polygon points="106.867,32.602 105.741,30.992 88.782,37.358 88.125,37.531" fill="rgb(216,216,216)"/>
<polygon points="106.867,32.602 111.026,28.153 115.111,29.03 117.079,34.793" fill="rgb(216,216,216)"/>
<polygon points="115.524,66.598 116.26,68.419 101.683,79.172 101.18,79.629" fill="rgb(216,216,216)"/>
<polygon points="115.133,64.631 114.927,66.584 97.006,69.22 96.347,69.387" fill="rgb(216,216,216)"/>
<polygon points="115.133,64.631 120.926,66.511 124.076,63.767 123.009,57.771" fill="rgb(216,216,216)"/>
<polygon points="96.989,93.085 97.592,92.77 118.489,78.254 120.564,80.755" fill="rgb(216,216,216)"/>
<polygon points="68.771,108.126 68.174,108.45 44.473,117.706 45.392,120.823" fill="rgb(216,216,216)"/>
<polygon points="83.295,64.068 83.921,63.803 108.411,56.899 107.799,53.708" fill="rgb(216,216,216)"/>
<polygon points="53.747,76.29 53.117,76.545 30.905,88.957 29.083,86.266" fill="rgb(216,216,216)"/>
<polygon points="75.255,85.603 74.588,85.735 50.118,92.122 49.158,90.774" fill="rgb(216,216,216)"/>
<polygon points="77.219,16.482 77.898,16.466 103.211,19.056 103.816,15.863" fill="rgb(216,216,216)"/>
<polygon points="45.247,16.975 44.567,16.98 19.347,20.351 18.643,17.178" fill="rgb(216,216,216)"/>
<polygon points="79.278,48.502 79.954,48.43 104.726,42.621 105.735,45.709" fill="rgb(216,216,216)"/>
<polygon points="47.505,52.106 46.831,52.188 21.386,52.075 21.094,55.312" fill="rgb(216,216,216)"/>
<polygon points="61.821,33.548 61.173,33.755 36.668,40.007 36.48,41.651" fill="rgb(216,216,216)"/>
<polygon points="20.902,51.856 16.6,57.769 7.285,54.52 7.594,47.214" fill="rgb(216,216,216)"/>
<polygon points="18.894,20.63 13.871,15.316 5.048,19.732 6.29,26.938" fill="rgb(216,216,216)"/>
<polygon points="30.587,89.383 21.423,89.126 19.92,90.806 21.188,99.886" fill="rgb(216,216,216)"/>
<polygon points="43.942,117.68 38.315,124.918 36.062,125.011 29.86,118.26" fill="rgb(216,216,216)"/>
<polygon points="105.149,42.298 113.887,45.071 115.796,43.87 117.079,34.793" fill="rgb(216,216,216)"/>
<polygon points="103.672,19.321 108.528,13.855 117.483,17.996 116.464,25.237" fill="rgb(216,216,216)"/>
<polygon points="108.937,56.977 115.242,50.321 117.493,50.449 123.009,57.771" fill="rgb(216,216,216)"/>
<polygon points="118.764,77.799 127.909,77.163 129.242,75.344 127.096,66.431" fill="rgb(216,216,216)"/>
<polygon points="61.821,33.548 61.173,33.755 36.668,40.007 36.48,41.651" fill="#99d9fa"/>
<line x1="83.295" y1="64.068" x2="91.272" y2="53.708" stroke="#8c8c8c" stroke-width="0.3" stroke-dasharray="1.2,0.8"/>
<line x1="79.278" y1="48.502" x2="91.272" y2="53.708" stroke="#8c8c8c" stroke-width="0.3" stroke-dasharray="1.2,0.8"/>
<line x1="105.735" y1="45.709" x2="91.272" y2="53.708" stroke="#8c8c8c" stroke-width="0.3" stroke-dasharray="1.2,0.8"/>
<line x1="91.272" y1="53.708" x2="107.799" y2="53.708" stroke="#8c8c8c" stroke-width="0.3" stroke-dasharray="1.2,0.8"/>
<line x1="53.747" y1="76.29" x2="40.782" y2="74.591" stroke="#8c8c8c" stroke-width="0.3" stroke-dasharray="1.2,0.8"/>
<line x1="36.982" y1="59.867" x2="47.505" y2="52.106" stroke="#8c8c8c" stroke-width="0.3" stroke-dasharray="1.2,0.8"/>
<line x1="29.083" y1="86.266" x2="40.782" y2="74.591" stroke="#8c8c8c" stroke-width="0.3" stroke-dasharray="1.2,0.8"/>
<line x1="96.989" y1="93.085" x2="110.058" y2="93.514" stroke="#8c8c8c" stroke-width="0.3" stroke-dasharray="1.2,0.8"/>
<line x1="88.448" y1="9.782" x2="77.219" y2="16.482" stroke="#8c8c8c" stroke-width="0.3" stroke-dasharray="1.2,0.8"/>
<line x1="110.058" y1="93.514" x2="120.564" y2="80.755" stroke="#8c8c8c" stroke-width="0.3" stroke-dasharray="1.2,0.8"/>
<line x1="68.771" y1="108.126" x2="61.842" y2="119.214" stroke="#8c8c8c" stroke-width="0.3" stroke-dasharray="1.2,0.8"/>
<line x1="45.247" y1="16.975" x2="33.816" y2="10.626" stroke="#8c8c8c" stroke-width="0.3" stroke-dasharray="1.2,0.8"/>
<line x1="61.842" y1="119.214" x2="45.392" y2="120.823" stroke="#8c8c8c" stroke-width="0.3" stroke-dasharray="1.2,0.8"/>
<line x1="79.591" y1="94.434" x2="96.989" y2="93.085" stroke="#8c8c8c" stroke-width="0.3" stroke-dasharray="1.2,0.8"/>
<line x1="79.591" y1="94.434" x2="68.771" y2="108.126" stroke="#8c8c8c" stroke-width="0.3" stroke-dasharray="1.2,0.8"/>
<line x1="79.591" y1="94.434" x2="75.255" y2="85.603" stroke="#8c8c8c" stroke-width="0.3" stroke-dasharray="1.2,0.8"/>
<line x1="101.18" y1="79.629" x2="79.591" y2="94.434" stroke="#8c8c8c" stroke-width="0.3" stroke-dasharray="1.2,0.8"/>
<line x1="71.194" y1="76.642" x2="83.295" y2="64.068" stroke="#8c8c8c" stroke-width="0.3" stroke-dasharray="1.2,0.8"/>
<line x1="71.194" y1="76.642" x2="53.747" y2="76.29" stroke="#8c8c8c" stroke-width="0.3" stroke-dasharray="1.2,0.8"/>
<line x1="75.255" y1="85.603" x2="71.194" y2="76.642" stroke="#8c8c8c" stroke-width="0.3" stroke-dasharray="1.2,0.8"/>
<line x1="96.347" y1="69.387" x2="71.194" y2="76.642" stroke="#8c8c8c" stroke-width="0.3" stroke-dasharray="1.2,0.8"/>
<line x1="77.219" y1="16.482" x2="61.341" y2="23.721" stroke="#8c8c8c" stroke-width="0.3" stroke-dasharray="1.2,0.8"/>
<line x1="61.341" y1="23.721" x2="45.247" y2="16.975" stroke="#8c8c8c" stroke-width="0.3" stroke-dasharray="1.2,0.8"/>
<line x1="61.821" y1="33.548" x2="61.341" y2="23.721" stroke="#8c8c8c" stroke-width="0.3" stroke-dasharray="1.2,0.8"/>
<line x1="61.341" y1="23.721" x2="87.399" y2="26.229" stroke="#8c8c8c" stroke-width="0.3" stroke-dasharray="1.2,0.8"/>
<line x1="62.603" y1="43.355" x2="79.278" y2="48.502" stroke="#8c8c8c" stroke-width="0.3" stroke-dasharray="1.2,0.8"/>
<line x1="47.505" y1="52.106" x2="62.603" y2="43.355" stroke="#8c8c8c" stroke-width="0.3" stroke-dasharray="1.2,0.8"/>
<line x1="62.603" y1="43.355" x2="61.821" y2="33.548" stroke="#8c8c8c" stroke-width="0.3" stroke-dasharray="1.2,0.8"/>
<line x1="62.603" y1="43.355" x2="88.125" y2="37.531" stroke="#8c8c8c" stroke-width="0.3" stroke-dasharray="1.2,0.8"/>
<line x1="20.902" y1="51.855" x2="17.055" y2="42.79" stroke="#8c8c8c" stroke-width="0.3" stroke-dasharray="1.2,0.8"/>
<line x1="16.241" y1="30.113" x2="18.894" y2="20.63" stroke="#8c8c8c" stroke-width="0.3" stroke-dasharray="1.2,0.8"/>
<line x1="31.608" y1="99.178" x2="30.587" y2="89.383" stroke="#8c8c8c" stroke-width="0.3" stroke-dasharray="1.2,0.8"/>
<line x1="43.942" y1="117.68" x2="37.03" y2="110.666" stroke="#8c8c8c" stroke-width="0.3" stroke-dasharray="1.2,0.8"/>
<line x1="106.867" y1="32.602" x2="105.149" y2="42.298" stroke="#8c8c8c" stroke-width="0.3" stroke-dasharray="1.2,0.8"/>
<line x1="106.617" y1="28.718" x2="103.672" y2="19.321" stroke="#8c8c8c" stroke-width="0.3" stroke-dasharray="1.2,0.8"/>
<line x1="108.937" y1="56.977" x2="115.133" y2="64.631" stroke="#8c8c8c" stroke-width="0.3" stroke-dasharray="1.2,0.8"/>
<line x1="118.764" y1="77.799" x2="116.794" y2="68.15" stroke="#8c8c8c" stroke-width="0.3" stroke-dasharray="1.2,0.8"/>
<line x1="83.295" y1="64.068" x2="65.638" y2="63.208" stroke="#8c8c8c" stroke-width="0.3" stroke-dasharray="1.2,0.8"/>
<line x1="65.638" y1="63.208" x2="53.747" y2="76.29" stroke="#8c8c8c" stroke-width="0.3" stroke-dasharray="1.2,0.8"/>
<line x1="64.242" y1="57.799" x2="79.278" y2="48.502" stroke="#8c8c8c" stroke-width="0.3" stroke-dasharray="1.2,0.8"/>
<line x1="47.505" y1="52.106" x2="64.242" y2="57.799" stroke="#8c8c8c" stroke-width="0.3" stroke-dasharray="1.2,0.8"/>
<line x1="86.429" y1="107.263" x2="96.989" y2="93.085" stroke="#8c8c8c" stroke-width="0.3" stroke-dasharray="1.2,0.8"/>
<line x1="68.771" y1="108.126" x2="86.429" y2="107.263" stroke="#8c8c8c" stroke-width="0.3" stroke-dasharray="1.2,0.8"/>
<line x1="77.219" y1="16.482" x2="61.116" y2="9.186" stroke="#8c8c8c" stroke-width="0.3" stroke-dasharray="1.2,0.8"/>
<line x1="61.116" y1="9.186" x2="45.247" y2="16.975" stroke="#8c8c8c" stroke-width="0.3" stroke-dasharray="1.2,0.8"/>
<line x1="96.989" y1="93.085" x2="68.771" y2="108.126" stroke="#8c8c8c" stroke-width="0.3" stroke-dasharray="1.2,0.8"/>
<line x1="101.18" y1="79.629" x2="96.989" y2="93.085" stroke="#8c8c8c" stroke-width="0.3" stroke-dasharray="1.2,0.8"/>
<line x1="68.771" y1="108.126" x2="55.264" y2="104.103" stroke="#8c8c8c" stroke-width="0.3" stroke-dasharray="1.2,0.8"/>
<line x1="53.747" y1="76.29" x2="83.295" y2="64.068" stroke="#8c8c8c" stroke-width="0.3" stroke-dasharray="1.2,0.8"/>
<line x1="83.295" y1="64.068" x2="96.347" y2="69.387" stroke="#8c8c8c" stroke-width="0.3" stroke-dasharray="1.2,0.8"/>
<line x1="48.265" y1="89.274" x2="53.747" y2="76.29" stroke="#8c8c8c" stroke-width="0.3" stroke-dasharray="1.2,0.8"/>
<line x1="54.673" y1="102.461" x2="75.255" y2="85.603" stroke="#8c8c8c" stroke-width="0.3" stroke-dasharray="1.2,0.8"/>
<line x1="75.255" y1="85.603" x2="101.18" y2="79.629" stroke="#8c8c8c" stroke-width="0.3" stroke-dasharray="1.2,0.8"/>
<line x1="96.347" y1="69.387" x2="75.255" y2="85.603" stroke="#8c8c8c" stroke-width="0.3" stroke-dasharray="1.2,0.8"/>
<line x1="45.247" y1="16.975" x2="77.219" y2="16.482" stroke="#8c8c8c" stroke-width="0.3" stroke-dasharray="1.2,0.8"/>
<line x1="77.219" y1="16.482" x2="87.399" y2="26.229" stroke="#8c8c8c" stroke-width="0.3" stroke-dasharray="1.2,0.8"/>
<line x1="35.373" y1="27.032" x2="45.247" y2="16.975" stroke="#8c8c8c" stroke-width="0.3" stroke-dasharray="1.2,0.8"/>
<line x1="79.278" y1="48.502" x2="47.505" y2="52.106" stroke="#8c8c8c" stroke-width="0.3" stroke-dasharray="1.2,0.8"/>
<line x1="88.125" y1="37.531" x2="79.278" y2="48.502" stroke="#8c8c8c" stroke-width="0.3" stroke-dasharray="1.2,0.8"/>
<line x1="47.505" y1="52.106" x2="36.425" y2="43.396" stroke="#8c8c8c" stroke-width="0.3" stroke-dasharray="1.2,0.8"/>
<line x1="61.821" y1="33.548" x2="35.651" y2="28.755" stroke="#8c8c8c" stroke-width="0.3" stroke-dasharray="1.2,0.8"/>
<line x1="87.399" y1="26.229" x2="61.821" y2="33.548" stroke="#8c8c8c" stroke-width="0.3" stroke-dasharray="1.2,0.8"/>
<line x1="61.821" y1="33.548" x2="88.125" y2="37.531" stroke="#8c8c8c" stroke-width="0.3" stroke-dasharray="1.2,0.8"/>
<line x1="36.425" y1="43.396" x2="20.902" y2="51.855" stroke="#8c8c8c" stroke-width="0.3" stroke-dasharray="1.2,0.8"/>
<line x1="29.083" y1="86.266" x2="24.895" y2="79.146" stroke="#8c8c8c" stroke-width="0.3" stroke-dasharray="1.2,0.8"/>
<line x1="18.894" y1="20.63" x2="35.373" y2="27.032" stroke="#8c8c8c" stroke-width="0.3" stroke-dasharray="1.2,0.8"/>
<line x1="48.226" y1="128.582" x2="45.392" y2="120.823" stroke="#8c8c8c" stroke-width="0.3" stroke-dasharray="1.2,0.8"/>
<line x1="35.651" y1="28.755" x2="36.029" y2="40.074" stroke="#8c8c8c" stroke-width="0.3" stroke-dasharray="1.2,0.8"/>
<line x1="30.587" y1="89.383" x2="48.265" y2="89.274" stroke="#8c8c8c" stroke-width="0.3" stroke-dasharray="1.2,0.8"/>
<line x1="55.264" y1="104.103" x2="43.942" y2="117.68" stroke="#8c8c8c" stroke-width="0.3" stroke-dasharray="1.2,0.8"/>
<line x1="49.527" y1="92.373" x2="54.673" y2="102.461" stroke="#8c8c8c" stroke-width="0.3" stroke-dasharray="1.2,0.8"/>
<line x1="105.149" y1="42.298" x2="88.125" y2="37.531" stroke="#8c8c8c" stroke-width="0.3" stroke-dasharray="1.2,0.8"/>
<line x1="105.735" y1="45.709" x2="107.799" y2="53.708" stroke="#8c8c8c" stroke-width="0.3" stroke-dasharray="1.2,0.8"/>
<line x1="87.399" y1="26.229" x2="103.672" y2="19.321" stroke="#8c8c8c" stroke-width="0.3" stroke-dasharray="1.2,0.8"/>
<line x1="120.564" y1="80.755" x2="125.426" y2="87.433" stroke="#8c8c8c" stroke-width="0.3" stroke-dasharray="1.2,0.8"/>
<line x1="88.125" y1="37.531" x2="87.399" y2="26.229" stroke="#8c8c8c" stroke-width="0.3" stroke-dasharray="1.2,0.8"/>
<line x1="96.347" y1="69.387" x2="108.937" y2="56.977" stroke="#8c8c8c" stroke-width="0.3" stroke-dasharray="1.2,0.8"/>
<line x1="118.764" y1="77.799" x2="101.18" y2="79.629" stroke="#8c8c8c" stroke-width="0.3" stroke-dasharray="1.2,0.8"/>
<line x1="101.18" y1="79.629" x2="96.347" y2="69.387" stroke="#8c8c8c" stroke-width="0.3" stroke-dasharray="1.2,0.8"/>
<line x1="65.638" y1="63.208" x2="91.272" y2="53.708" stroke="#8c8c8c" stroke-width="0.3" stroke-dasharray="1.2,0.8"/>
<line x1="65.638" y1="63.208" x2="40.782" y2="74.591" stroke="#8c8c8c" stroke-width="0.3" stroke-dasharray="1.2,0.8"/>
<line x1="21.094" y1="55.312" x2="36.982" y2="59.867" stroke="#8c8c8c" stroke-width="0.3" stroke-dasharray="1.2,0.8"/>
<line x1="86.429" y1="107.263" x2="110.058" y2="93.514" stroke="#8c8c8c" stroke-width="0.3" stroke-dasharray="1.2,0.8"/>
<line x1="125.426" y1="87.433" x2="110.058" y2="93.514" stroke="#8c8c8c" stroke-width="0.3" stroke-dasharray="1.2,0.8"/>
<line x1="86.429" y1="107.263" x2="61.842" y2="119.214" stroke="#8c8c8c" stroke-width="0.3" stroke-dasharray="1.2,0.8"/>
<line x1="18.643" y1="17.178" x2="33.816" y2="10.626" stroke="#8c8c8c" stroke-width="0.3" stroke-dasharray="1.2,0.8"/>
<line x1="55.264" y1="104.103" x2="79.591" y2="94.434" stroke="#8c8c8c" stroke-width="0.3" stroke-dasharray="1.2,0.8"/>
<line x1="48.265" y1="89.274" x2="71.194" y2="76.642" stroke="#8c8c8c" stroke-width="0.3" stroke-dasharray="1.2,0.8"/>
<line x1="35.373" y1="27.032" x2="61.341" y2="23.721" stroke="#8c8c8c" stroke-width="0.3" stroke-dasharray="1.2,0.8"/>
<line x1="36.425" y1="43.396" x2="62.603" y2="43.355" stroke="#8c8c8c" stroke-width="0.3" stroke-dasharray="1.2,0.8"/>
<line x1="35.373" y1="27.032" x2="16.241" y2="30.113" stroke="#8c8c8c" stroke-width="0.3" stroke-dasharray="1.2,0.8"/>
<line x1="36.425" y1="43.396" x2="17.055" y2="42.79" stroke="#8c8c8c" stroke-width="0.3" stroke-dasharray="1.2,0.8"/>
<line x1="6.29" y1="26.938" x2="16.24" y2="30.113" stroke="#8c8c8c" stroke-width="0.3" stroke-dasharray="1.2,0.8"/>
<line x1="55.264" y1="104.103" x2="37.03" y2="110.666" stroke="#8c8c8c" stroke-width="0.3" stroke-dasharray="1.2,0.8"/>
<line x1="48.265" y1="89.274" x2="31.608" y2="99.178" stroke="#8c8c8c" stroke-width="0.3" stroke-dasharray="1.2,0.8"/>
<line x1="29.86" y1="118.26" x2="37.03" y2="110.666" stroke="#8c8c8c" stroke-width="0.3" stroke-dasharray="1.2,0.8"/>
<line x1="87.399" y1="26.229" x2="106.257" y2="30.691" stroke="#8c8c8c" stroke-width="0.3" stroke-dasharray="1.2,0.8"/>
<line x1="88.125" y1="37.531" x2="106.867" y2="32.602" stroke="#8c8c8c" stroke-width="0.3" stroke-dasharray="1.2,0.8"/>
<line x1="117.079" y1="34.793" x2="106.867" y2="32.602" stroke="#8c8c8c" stroke-width="0.3" stroke-dasharray="1.2,0.8"/>
<line x1="101.18" y1="79.629" x2="115.524" y2="66.598" stroke="#8c8c8c" stroke-width="0.3" stroke-dasharray="1.2,0.8"/>
<line x1="96.347" y1="69.387" x2="115.133" y2="64.631" stroke="#8c8c8c" stroke-width="0.3" stroke-dasharray="1.2,0.8"/>
<line x1="123.009" y1="57.771" x2="115.133" y2="64.631" stroke="#8c8c8c" stroke-width="0.3" stroke-dasharray="1.2,0.8"/>
<line x1="120.564" y1="80.755" x2="96.989" y2="93.085" stroke="#8c8c8c" stroke-width="0.3" stroke-dasharray="1.2,0.8"/>
<line x1="45.392" y1="120.823" x2="68.771" y2="108.126" stroke="#8c8c8c" stroke-width="0.3" stroke-dasharray="1.2,0.8"/>
<line x1="107.799" y1="53.708" x2="83.295" y2="64.068" stroke="#8c8c8c" stroke-width="0.3" stroke-dasharray="1.2,0.8"/>
<line x1="29.083" y1="86.266" x2="53.747" y2="76.29" stroke="#8c8c8c" stroke-width="0.3" stroke-dasharray="1.2,0.8"/>
<line x1="49.158" y1="90.774" x2="75.255" y2="85.603" stroke="#8c8c8c" stroke-width="0.3" stroke-dasharray="1.2,0.8"/>
<line x1="103.816" y1="15.863" x2="77.219" y2="16.482" stroke="#8c8c8c" stroke-width="0.3" stroke-dasharray="1.2,0.8"/>
<line x1="18.643" y1="17.178" x2="45.247" y2="16.975" stroke="#8c8c8c" stroke-width="0.3" stroke-dasharray="1.2,0.8"/>
<line x1="105.735" y1="45.709" x2="79.278" y2="48.502" stroke="#8c8c8c" stroke-width="0.3" stroke-dasharray="1.2,0.8"/>
<line x1="21.094" y1="55.312" x2="47.505" y2="52.106" stroke="#8c8c8c" stroke-width="0.3" stroke-dasharray="1.2,0.8"/>
<line x1="36.48" y1="41.651" x2="61.821" y2="33.548" stroke="#8c8c8c" stroke-width="0.3" stroke-dasharray="1.2,0.8"/>
<line x1="7.594" y1="47.214" x2="20.902" y2="51.856" stroke="#8c8c8c" stroke-width="0.3" stroke-dasharray="1.2,0.8"/>
<line x1="6.29" y1="26.938" x2="18.894" y2="20.63" stroke="#8c8c8c" stroke-width="0.3" stroke-dasharray="1.2,0.8"/>
<line x1="21.188" y1="99.886" x2="30.587" y2="89.383" stroke="#8c8c8c" stroke-width="0.3" stroke-dasharray="1.2,0.8"/>
<line x1="29.86" y1="118.26" x2="43.942" y2="117.68" stroke="#8c8c8c" stroke-width="0.3" stroke-dasharray="1.2,0.8"/>
<line x1="117.079" y1="34.793" x2="105.149" y2="42.298" stroke="#8c8c8c" stroke-width="0.3" stroke-dasharray="1.2,0.8"/>
<line x1="116.464" y1="25.237" x2="103.672" y2="19.321" stroke="#8c8c8c" stroke-width="0.3" stroke-dasharray="1.2,0.8"/>
<line x1="123.009" y1="57.771" x2="108.937" y2="56.977" stroke="#8c8c8c" stroke-width="0.3" stroke-dasharray="1.2,0.8"/>
<line x1="127.096" y1="66.431" x2="118.764" y2="77.799" stroke="#8c8c8c" stroke-width="0.3" stroke-dasharray="1.2,0.8"/>
<line x1="91.272" y1="53.708" x2="64.242" y2="57.799" stroke="#141414" stroke-width="0.4"/>
<line x1="64.242" y1="57.799" x2="36.982" y2="59.867" stroke="#141414" stroke-width="0.4"/>
<line x1="24.895" y1="79.146" x2="40.782" y2="74.591" stroke="#141414" stroke-width="0.4"/>
<line x1="61.116" y1="9.186" x2="88.448" y2="9.782" stroke="#141414" stroke-width="0.4"/>
<line x1="88.448" y1="9.782" x2="103.816" y2="15.863" stroke="#141414" stroke-width="0.4"/>
<line x1="33.816" y1="10.626" x2="61.116" y2="9.186" stroke="#141414" stroke-width="0.4"/>
<line x1="61.842" y1="119.214" x2="48.226" y2="128.582" stroke="#141414" stroke-width="0.4"/>
<line x1="79.591" y1="94.434" x2="54.673" y2="102.461" stroke="#141414" stroke-width="0.4"/>
<line x1="49.158" y1="90.774" x2="71.194" y2="76.642" stroke="#141414" stroke-width="0.4"/>
<line x1="35.651" y1="28.755" x2="61.341" y2="23.721" stroke="#141414" stroke-width="0.4"/>
<line x1="62.603" y1="43.355" x2="36.48" y2="41.651" stroke="#141414" stroke-width="0.4"/>
<line x1="17.317" y1="35.033" x2="35.651" y2="28.755" stroke="#141414" stroke-width="0.4"/>
<line x1="36.029" y1="40.074" x2="17.317" y2="35.033" stroke="#141414" stroke-width="0.4"/>
<line x1="7.594" y1="47.214" x2="17.055" y2="42.79" stroke="#141414" stroke-width="0.4"/>
<line x1="54.673" y1="102.461" x2="35.592" y2="105.84" stroke="#141414" stroke-width="0.4"/>
<line x1="35.592" y1="105.84" x2="49.527" y2="92.373" stroke="#141414" stroke-width="0.4"/>
<line x1="31.608" y1="99.178" x2="21.188" y2="99.886" stroke="#141414" stroke-width="0.4"/>
<line x1="106.617" y1="28.718" x2="87.399" y2="26.229" stroke="#141414" stroke-width="0.4"/>
<line x1="106.257" y1="30.691" x2="88.125" y2="37.531" stroke="#141414" stroke-width="0.4"/>
<line x1="116.464" y1="25.237" x2="106.617" y2="28.718" stroke="#141414" stroke-width="0.4"/>
<line x1="101.18" y1="79.629" x2="116.794" y2="68.15" stroke="#141414" stroke-width="0.4"/>
<line x1="96.347" y1="69.387" x2="115.524" y2="66.598" stroke="#141414" stroke-width="0.4"/>
<line x1="116.794" y1="68.15" x2="127.096" y2="66.431" stroke="#141414" stroke-width="0.4"/>
<line x1="118.764" y1="77.799" x2="96.989" y2="93.085" stroke="#141414" stroke-width="0.4"/>
<line x1="68.771" y1="108.126" x2="43.942" y2="117.68" stroke="#141414" stroke-width="0.4"/>
<line x1="83.295" y1="64.068" x2="108.937" y2="56.977" stroke="#141414" stroke-width="0.4"/>
<line x1="30.587" y1="89.383" x2="53.747" y2="76.29" stroke="#141414" stroke-width="0.4"/>
<line x1="49.527" y1="92.373" x2="75.255" y2="85.603" stroke="#141414" stroke-width="0.4"/>
<line x1="77.219" y1="16.482" x2="103.672" y2="19.321" stroke="#141414" stroke-width="0.4"/>
<line x1="18.894" y1="20.63" x2="45.247" y2="16.975" stroke="#141414" stroke-width="0.4"/>
<line x1="105.149" y1="42.298" x2="79.278" y2="48.502" stroke="#141414" stroke-width="0.4"/>
<line x1="47.505" y1="52.106" x2="20.902" y2="51.855" stroke="#141414" stroke-width="0.4"/>
<line x1="61.821" y1="33.548" x2="36.029" y2="40.074" stroke="#141414" stroke-width="0.4"/>
<line x1="15.375" y1="89.539" x2="24.895" y2="79.146" stroke="#141414" stroke-width="0.4"/>
<line x1="48.226" y1="128.582" x2="34.151" y2="129.325" stroke="#141414" stroke-width="0.4"/>
<line x1="29.083" y1="86.266" x2="15.375" y2="89.539" stroke="#141414" stroke-width="0.4"/>
<line x1="34.151" y1="129.325" x2="45.392" y2="120.823" stroke="#141414" stroke-width="0.4"/>
<line x1="105.735" y1="45.709" x2="119.815" y2="46.341" stroke="#141414" stroke-width="0.4"/>
<line x1="133.889" y1="76.162" x2="125.426" y2="87.433" stroke="#141414" stroke-width="0.4"/>
<line x1="119.815" y1="46.341" x2="107.799" y2="53.708" stroke="#141414" stroke-width="0.4"/>
<line x1="120.564" y1="80.755" x2="133.889" y2="76.162" stroke="#141414" stroke-width="0.4"/>
<line x1="91.272" y1="53.708" x2="90.634" y2="53.944" stroke="#141414" stroke-width="0.4"/>
<line x1="90.634" y1="53.944" x2="64.499" y2="58.178" stroke="#141414" stroke-width="0.4"/>
<line x1="64.499" y1="58.178" x2="65.638" y2="63.208" stroke="#141414" stroke-width="0.4"/>
<line x1="40.782" y1="74.591" x2="41.596" y2="66.519" stroke="#141414" stroke-width="0.4"/>
<line x1="41.596" y1="66.519" x2="58.994" y2="58.551" stroke="#141414" stroke-width="0.4"/>
<line x1="58.994" y1="58.551" x2="65.638" y2="63.208" stroke="#141414" stroke-width="0.4"/>
<line x1="36.982" y1="59.867" x2="32.669" y2="65.912" stroke="#141414" stroke-width="0.4"/>
<line x1="32.669" y1="65.912" x2="21.548" y2="62.724" stroke="#141414" stroke-width="0.4"/>
<line x1="21.548" y1="62.724" x2="21.094" y2="55.312" stroke="#141414" stroke-width="0.4"/>
<line x1="110.058" y1="93.514" x2="110.034" y2="101.626" stroke="#141414" stroke-width="0.4"/>
<line x1="110.034" y1="101.626" x2="93.493" y2="111.251" stroke="#141414" stroke-width="0.4"/>
<line x1="93.493" y1="111.251" x2="86.429" y2="107.263" stroke="#141414" stroke-width="0.4"/>
<line x1="110.058" y1="93.514" x2="114.938" y2="99.111" stroke="#141414" stroke-width="0.4"/>
<line x1="114.938" y1="99.111" x2="125.696" y2="94.854" stroke="#141414" stroke-width="0.4"/>
<line x1="125.696" y1="94.854" x2="125.426" y2="87.433" stroke="#141414" stroke-width="0.4"/>
<line x1="61.842" y1="119.214" x2="68.59" y2="123.717" stroke="#141414" stroke-width="0.4"/>
<line x1="68.59" y1="123.717" x2="85.801" y2="115.351" stroke="#141414" stroke-width="0.4"/>
<line x1="85.801" y1="115.351" x2="86.429" y2="107.263" stroke="#141414" stroke-width="0.4"/>
<line x1="33.816" y1="10.626" x2="28.765" y2="5.182" stroke="#141414" stroke-width="0.4"/>
<line x1="28.765" y1="5.182" x2="18.144" y2="9.769" stroke="#141414" stroke-width="0.4"/>
<line x1="18.144" y1="9.769" x2="18.643" y2="17.178" stroke="#141414" stroke-width="0.4"/>
<line x1="79.591" y1="94.434" x2="78.959" y2="94.685" stroke="#141414" stroke-width="0.4"/>
<line x1="78.959" y1="94.685" x2="55.303" y2="102.361" stroke="#141414" stroke-width="0.4"/>
<line x1="55.303" y1="102.361" x2="55.264" y2="104.103" stroke="#141414" stroke-width="0.4"/>
<line x1="71.194" y1="76.642" x2="70.599" y2="76.97" stroke="#141414" stroke-width="0.4"/>
<line x1="70.599" y1="76.97" x2="49.635" y2="90.352" stroke="#141414" stroke-width="0.4"/>
<line x1="49.635" y1="90.352" x2="48.265" y2="89.274" stroke="#141414" stroke-width="0.4"/>
<line x1="61.341" y1="23.721" x2="60.667" y2="23.807" stroke="#141414" stroke-width="0.4"/>
<line x1="60.667" y1="23.807" x2="36.25" y2="28.538" stroke="#141414" stroke-width="0.4"/>
<line x1="36.25" y1="28.538" x2="35.373" y2="27.032" stroke="#141414" stroke-width="0.4"/>
<line x1="62.603" y1="43.355" x2="61.923" y2="43.356" stroke="#141414" stroke-width="0.4"/>
<line x1="61.923" y1="43.356" x2="37.102" y2="41.79" stroke="#141414" stroke-width="0.4"/>
<line x1="37.102" y1="41.79" x2="36.425" y2="43.396" stroke="#141414" stroke-width="0.4"/>
<line x1="16.241" y1="30.113" x2="17.647" y2="34.573" stroke="#141414" stroke-width="0.4"/>
<line x1="17.647" y1="34.573" x2="34.957" y2="28.726" stroke="#141414" stroke-width="0.4"/>
<line x1="34.957" y1="28.726" x2="35.373" y2="27.032" stroke="#141414" stroke-width="0.4"/>
<line x1="17.055" y1="42.79" x2="14.36" y2="38.43" stroke="#141414" stroke-width="0.4"/>
<line x1="14.36" y1="38.43" x2="28.305" y2="38.866" stroke="#141414" stroke-width="0.4"/>
<line x1="28.305" y1="38.866" x2="36.425" y2="43.396" stroke="#141414" stroke-width="0.4"/>
<line x1="16.24" y1="30.113" x2="13.16" y2="34.612" stroke="#141414" stroke-width="0.4"/>
<line x1="13.16" y1="34.612" x2="6.195" y2="32.389" stroke="#141414" stroke-width="0.4"/>
<line x1="6.195" y1="32.389" x2="6.29" y2="26.938" stroke="#141414" stroke-width="0.4"/>
<line x1="37.03" y1="110.666" x2="36.103" y2="106.083" stroke="#141414" stroke-width="0.4"/>
<line x1="36.103" y1="106.083" x2="54.081" y2="102.823" stroke="#141414" stroke-width="0.4"/>
<line x1="54.081" y1="102.823" x2="55.264" y2="104.103" stroke="#141414" stroke-width="0.4"/>
<line x1="31.608" y1="99.178" x2="31.359" y2="104.298" stroke="#141414" stroke-width="0.4"/>
<line x1="31.359" y1="104.298" x2="43.352" y2="97.168" stroke="#141414" stroke-width="0.4"/>
<line x1="43.352" y1="97.168" x2="48.265" y2="89.274" stroke="#141414" stroke-width="0.4"/>
<line x1="37.03" y1="110.666" x2="32.157" y2="108.22" stroke="#141414" stroke-width="0.4"/>
<line x1="32.157" y1="108.22" x2="27.138" y2="113.536" stroke="#141414" stroke-width="0.4"/>
<line x1="27.138" y1="113.536" x2="29.86" y2="118.26" stroke="#141414" stroke-width="0.4"/>
<line x1="106.257" y1="30.691" x2="106.02" y2="28.741" stroke="#141414" stroke-width="0.4"/>
<line x1="106.02" y1="28.741" x2="88.06" y2="26.386" stroke="#141414" stroke-width="0.4"/>
<line x1="88.06" y1="26.386" x2="87.399" y2="26.229" stroke="#141414" stroke-width="0.4"/>
<line x1="106.867" y1="32.602" x2="105.741" y2="30.992" stroke="#141414" stroke-width="0.4"/>
<line x1="105.741" y1="30.992" x2="88.782" y2="37.358" stroke="#141414" stroke-width="0.4"/>
<line x1="88.782" y1="37.358" x2="88.125" y2="37.531" stroke="#141414" stroke-width="0.4"/>
<line x1="106.867" y1="32.602" x2="111.026" y2="28.153" stroke="#141414" stroke-width="0.4"/>
<line x1="111.026" y1="28.153" x2="115.111" y2="29.03" stroke="#141414" stroke-width="0.4"/>
<line x1="115.111" y1="29.03" x2="117.079" y2="34.793" stroke="#141414" stroke-width="0.4"/>
<line x1="115.524" y1="66.598" x2="116.26" y2="68.419" stroke="#141414" stroke-width="0.4"/>
<line x1="116.26" y1="68.419" x2="101.683" y2="79.172" stroke="#141414" stroke-width="0.4"/>
<line x1="101.683" y1="79.172" x2="101.18" y2="79.629" stroke="#141414" stroke-width="0.4"/>
<line x1="115.133" y1="64.631" x2="114.927" y2="66.584" stroke="#141414" stroke-width="0.4"/>
<line x1="114.927" y1="66.584" x2="97.006" y2="69.22" stroke="#141414" stroke-width="0.4"/>
<line x1="97.006" y1="69.22" x2="96.347" y2="69.387" stroke="#141414" stroke-width="0.4"/>
<line x1="115.133" y1="64.631" x2="120.926" y2="66.511" stroke="#141414" stroke-width="0.4"/>
<line x1="120.926" y1="66.511" x2="124.076" y2="63.767" stroke="#141414" stroke-width="0.4"/>
<line x1="124.076" y1="63.767" x2="123.009" y2="57.771" stroke="#141414" stroke-width="0.4"/>
<line x1="96.989" y1="93.085" x2="97.592" y2="92.77" stroke="#141414" stroke-width="0.4"/>
<line x1="97.592" y1="92.77" x2="118.489" y2="78.254" stroke="#141414" stroke-width="0.4"/>
<line x1="118.489" y1="78.254" x2="120.564" y2="80.755" stroke="#141414" stroke-width="0.4"/>
<line x1="68.771" y1="108.126" x2="68.174" y2="108.45" stroke="#141414" stroke-width="0.4"/>
<line x1="68.174" y1="108.45" x2="44.473" y2="117.706" stroke="#141414" stroke-width="0.4"/>
<line x1="44.473" y1="117.706" x2="45.392" y2="120.823" stroke="#141414" stroke-width="0.4"/>
<line x1="83.295" y1="64.068" x2="83.921" y2="63.803" stroke="#141414" stroke-width="0.4"/>
<line x1="83.921" y1="63.803" x2="108.411" y2="56.899" stroke="#141414" stroke-width="0.4"/>
<line x1="108.411" y1="56.899" x2="107.799" y2="53.708" stroke="#141414" stroke-width="0.4"/>
<line x1="53.747" y1="76.29" x2="53.117" y2="76.545" stroke="#141414" stroke-width="0.4"/>
<line x1="53.117" y1="76.545" x2="30.905" y2="88.957" stroke="#141414" stroke-width="0.4"/>
<line x1="30.905" y1="88.957" x2="29.083" y2="86.266" stroke="#141414" stroke-width="0.4"/>
<line x1="75.255" y1="85.603" x2="74.588" y2="85.735" stroke="#141414" stroke-width="0.4"/>
<line x1="74.588" y1="85.735" x2="50.118" y2="92.122" stroke="#141414" stroke-width="0.4"/>
<line x1="50.118" y1="92.122" x2="49.158" y2="90.774" stroke="#141414" stroke-width="0.4"/>
<line x1="77.219" y1="16.482" x2="77.898" y2="16.466" stroke="#141414" stroke-width="0.4"/>
<line x1="77.898" y1="16.466" x2="103.211" y2="19.056" stroke="#141414" stroke-width="0.4"/>
<line x1="103.211" y1="19.056" x2="103.816" y2="15.863" stroke="#141414" stroke-width="0.4"/>
<line x1="45.247" y1="16.975" x2="44.567" y2="16.98" stroke="#141414" stroke-width="0.4"/>
<line x1="44.567" y1="16.98" x2="19.347" y2="20.351" stroke="#141414" stroke-width="0.4"/>
<line x1="19.347" y1="20.351" x2="18.643" y2="17.178" stroke="#141414" stroke-width="0.4"/>
<line x1="79.278" y1="48.502" x2="79.954" y2="48.43" stroke="#141414" stroke-width="0.4"/>
<line x1="79.954" y1="48.43" x2="104.726" y2="42.621" stroke="#141414" stroke-width="0.4"/>
<line x1="104.726" y1="42.621" x2="105.735" y2="45.709" stroke="#141414" stroke-width="0.4"/>
<line x1="47.505" y1="52.106" x2="46.831" y2="52.188" stroke="#141414" stroke-width="0.4"/>
<line x1="46.831" y1="52.188" x2="21.386" y2="52.075" stroke="#141414" stroke-width="0.4"/>
<line x1="21.386" y1="52.075" x2="21.094" y2="55.312" stroke="#141414" stroke-width="0.4"/>
<line x1="61.821" y1="33.548" x2="61.173" y2="33.755" stroke="#141414" stroke-width="0.4"/>
<line x1="61.173" y1="33.755" x2="36.668" y2="40.007" stroke="#141414" stroke-width="0.4"/>
<line x1="36.668" y1="40.007" x2="36.48" y2="41.651" stroke="#141414" stroke-width="0.4"/>
<line x1="20.902" y1="51.856" x2="16.6" y2="57.769" stroke="#141414" stroke-width="0.4"/>
<line x1="16.6" y1="57.769" x2="7.285" y2="54.52" stroke="#141414" stroke-width="0.4"/>
<line x1="7.285" y1="54.52" x2="7.594" y2="47.214" stroke="#141414" stroke-width="0.4"/>
<line x1="18.894" y1="20.63" x2="13.871" y2="15.316" stroke="#141414" stroke-width="0.4"/>
<line x1="13.871" y1="15.316" x2="5.048" y2="19.732" stroke="#141414" stroke-width="0.4"/>
<line x1="5.048" y1="19.732" x2="6.29" y2="26.938" stroke="#141414" stroke-width="0.4"/>
<line x1="30.587" y1="89.383" x2="21.423" y2="89.126" stroke="#141414" stroke-width="0.4"/>
<line x1="21.423" y1="89.126" x2="19.92" y2="90.806" stroke="#141414" stroke-width="0.4"/>
<line x1="19.92" y1="90.806" x2="21.188" y2="99.886" stroke="#141414" stroke-width="0.4"/>
<line x1="43.942" y1="117.68" x2="38.315" y2="124.918" stroke="#141414" stroke-width="0.4"/>
<line x1="38.315" y1="124.918" x2="36.062" y2="125.011" stroke="#141414" stroke-width="0.4"/>
<line x1="36.062" y1="125.011" x2="29.86" y2="118.26" stroke="#141414" stroke-width="0.4"/>
<line x1="105.149" y1="42.298" x2="113.887" y2="45.071" stroke="#141414" stroke-width="0.4"/>
<line x1="113.887" y1="45.071" x2="115.796" y2="43.87" stroke="#141414" stroke-width="0.4"/>
<line x1="115.796" y1="43.87" x2="117.079" y2="34.793" stroke="#141414" stroke-width="0.4"/>
<line x1="103.672" y1="19.321" x2="108.528" y2="13.855" stroke="#141414" stroke-width="0.4"/>
<line x1="108.528" y1="13.855" x2="117.483" y2="17.996" stroke="#141414" stroke-width="0.4"/>
<line x1="117.483" y1="17.996" x2="116.464" y2="25.237" stroke="#141414" stroke-width="0.4"/>
<line x1="108.937" y1="56.977" x2="115.242" y2="50.321" stroke="#141414" stroke-width="0.4"/>
<line x1="115.242" y1="50.321" x2="117.493" y2="50.449" stroke="#141414" stroke-width="0.4"/>
<line x1="117.493" y1="50.449" x2="123.009" y2="57.771" stroke="#141414" stroke-width="0.4"/>
<line x1="118.764" y1="77.799" x2="127.909" y2="77.163" stroke="#141414" stroke-width="0.4"/>
<line x1="127.909" y1="77.163" x2="129.242" y2="75.344" stroke="#141414" stroke-width="0.4"/>
<line x1="129.242" y1="75.344" x2="127.096" y2="66.431" stroke="#141414" stroke-width="0.4"/>
<circle cx="51.753" cy="65.717" r="1.88" fill="#ffe082" stroke="#464646" stroke-width="0.2"/>
<text x="51.753" y="66.36" font-size="1.84" text-anchor="middle" fill="#141414">104</text>
<circle cx="28.074" cy="60.954" r="1.88" fill="#ffe082" stroke="#464646" stroke-width="0.2"/>
<text x="28.074" y="61.60" font-size="1.84" text-anchor="middle" fill="#141414">105</text>
<circle cx="100.003" cy="103.413" r="1.88" fill="#ffe082" stroke="#464646" stroke-width="0.2"/>
<text x="100.003" y="104.06" font-size="1.84" text-anchor="middle" fill="#141414">106</text>
<circle cx="119.03" cy="93.728" r="1.88" fill="#ffe082" stroke="#464646" stroke-width="0.2"/>
<text x="119.03" y="94.37" font-size="1.84" text-anchor="middle" fill="#141414">107</text>
<circle cx="75.665" cy="116.386" r="1.88" fill="#ffe082" stroke="#464646" stroke-width="0.2"/>
<text x="75.665" y="117.03" font-size="1.84" text-anchor="middle" fill="#141414">108</text>
<circle cx="24.842" cy="10.689" r="1.88" fill="#ffe082" stroke="#464646" stroke-width="0.2"/>
<text x="24.842" y="11.33" font-size="1.84" text-anchor="middle" fill="#141414">109</text>
<circle cx="24.036" cy="40.871" r="1.88" fill="#ffe082" stroke="#464646" stroke-width="0.2"/>
<text x="24.036" y="41.52" font-size="1.84" text-anchor="middle" fill="#141414">115</text>
<circle cx="10.472" cy="31.013" r="1.88" fill="#ffe082" stroke="#464646" stroke-width="0.2"/>
<text x="10.472" y="31.66" font-size="1.84" text-anchor="middle" fill="#141414">116</text>
<circle cx="38.646" cy="97.48" r="1.88" fill="#ffe082" stroke="#464646" stroke-width="0.2"/>
<text x="38.646" y="98.12" font-size="1.84" text-anchor="middle" fill="#141414">118</text>
<circle cx="31.546" cy="112.67" r="1.88" fill="#ffe082" stroke="#464646" stroke-width="0.2"/>
<text x="31.546" y="113.31" font-size="1.84" text-anchor="middle" fill="#141414">119</text>
<circle cx="112.521" cy="31.144" r="1.88" fill="#ffe082" stroke="#464646" stroke-width="0.2"/>
<text x="112.521" y="31.79" font-size="1.84" text-anchor="middle" fill="#141414">122</text>
<circle cx="120.786" cy="63.17" r="1.88" fill="#ffe082" stroke="#464646" stroke-width="0.2"/>
<text x="120.786" y="63.81" font-size="1.84" text-anchor="middle" fill="#141414">125</text>
<circle cx="13.095" cy="52.839" r="1.88" fill="#ffe082" stroke="#464646" stroke-width="0.2"/>
<text x="13.095" y="53.48" font-size="1.84" text-anchor="middle" fill="#141414">136</text>
<circle cx="11.026" cy="20.654" r="1.88" fill="#ffe082" stroke="#464646" stroke-width="0.2"/>
<text x="11.026" y="21.30" font-size="1.84" text-anchor="middle" fill="#141414">137</text>
<circle cx="23.28" cy="92.3" r="1.88" fill="#ffe082" stroke="#464646" stroke-width="0.2"/>
<text x="23.28" y="92.94" font-size="1.84" text-anchor="middle" fill="#141414">138</text>
<circle cx="37.045" cy="121.467" r="1.88" fill="#ffe082" stroke="#464646" stroke-width="0.2"/>
<text x="37.045" y="122.11" font-size="1.84" text-anchor="middle" fill="#141414">139</text>
<circle cx="112.977" cy="41.508" r="1.88" fill="#ffe082" stroke="#464646" stroke-width="0.2"/>
<text x="112.977" y="42.15" font-size="1.84" text-anchor="middle" fill="#141414">140</text>
<circle cx="111.537" cy="19.102" r="1.88" fill="#ffe082" stroke="#464646" stroke-width="0.2"/>
<text x="111.537" y="19.75" font-size="1.84" text-anchor="middle" fill="#141414">141</text>
<circle cx="116.17" cy="53.879" r="1.88" fill="#ffe082" stroke="#464646" stroke-width="0.2"/>
<text x="116.17" y="54.52" font-size="1.84" text-anchor="middle" fill="#141414">142</text>
<circle cx="125.753" cy="74.184" r="1.88" fill="#ffe082" stroke="#464646" stroke-width="0.2"/>
<text x="125.753" y="74.83" font-size="1.84" text-anchor="middle" fill="#141414">143</text>
<circle cx="90.928" cy="78.206" r="2.95" fill="#eaf1fe" stroke="#2e78e6" stroke-width="0.3"/>
<text x="90.928" y="79.36" font-size="3.34" text-anchor="middle" fill="#14306e" font-weight="bold">5</text>
<polygon points="37.546,191.317 31.905,185.639 36.954,168.249 44.758,166.474" fill="rgb(216,216,216)"/>
<polygon points="37.546,191.317 26.681,184.317 22.542,184.317 11.677,191.317" fill="rgb(216,216,216)"/>
<polygon points="88.684,139.45 81.42,136.092 66.804,146.783 67.805,154.724" fill="rgb(216,216,216)"/>
<polygon points="11.677,191.317 9.264,201.298 26.467,231.845 36.252,234.956" fill="rgb(216,216,216)"/>
<polygon points="51.774,234.956 49.446,241.956 38.581,241.956 36.252,234.956" fill="rgb(216,216,216)"/>
<polygon points="56.101,220.049 64.085,215.933 66.469,216.625 71.008,224.377" fill="rgb(216,216,216)"/>
<polygon points="66.68,239.283 74.052,238.998 77.081,228.564 71.008,224.377" fill="rgb(216,216,216)"/>
<polygon points="51.774,234.956 49.446,241.956 38.581,241.956 36.252,234.956" fill="#99d9fa"/>
<line x1="37.546" y1="191.317" x2="51.774" y2="234.956" stroke="#8c8c8c" stroke-width="0.3" stroke-dasharray="1.2,0.8"/>
<line x1="44.758" y1="166.474" x2="56.101" y2="220.049" stroke="#8c8c8c" stroke-width="0.3" stroke-dasharray="1.2,0.8"/>
<line x1="83.078" y1="175.603" x2="67.805" y2="154.724" stroke="#8c8c8c" stroke-width="0.3" stroke-dasharray="1.2,0.8"/>
<line x1="69.93" y1="213.0" x2="67.805" y2="154.724" stroke="#8c8c8c" stroke-width="0.3" stroke-dasharray="1.2,0.8"/>
<line x1="56.101" y1="220.049" x2="51.774" y2="234.956" stroke="#8c8c8c" stroke-width="0.3" stroke-dasharray="1.2,0.8"/>
<line x1="44.758" y1="166.474" x2="37.546" y2="191.317" stroke="#8c8c8c" stroke-width="0.3" stroke-dasharray="1.2,0.8"/>
<line x1="11.677" y1="191.317" x2="37.546" y2="191.317" stroke="#8c8c8c" stroke-width="0.3" stroke-dasharray="1.2,0.8"/>
<line x1="67.805" y1="154.724" x2="88.684" y2="139.45" stroke="#8c8c8c" stroke-width="0.3" stroke-dasharray="1.2,0.8"/>
<line x1="36.252" y1="234.956" x2="11.677" y2="191.317" stroke="#8c8c8c" stroke-width="0.3" stroke-dasharray="1.2,0.8"/>
<line x1="36.252" y1="234.956" x2="51.774" y2="234.956" stroke="#8c8c8c" stroke-width="0.3" stroke-dasharray="1.2,0.8"/>
<line x1="71.008" y1="224.377" x2="56.101" y2="220.049" stroke="#8c8c8c" stroke-width="0.3" stroke-dasharray="1.2,0.8"/>
<line x1="71.008" y1="224.377" x2="66.68" y2="239.283" stroke="#8c8c8c" stroke-width="0.3" stroke-dasharray="1.2,0.8"/>
<line x1="88.684" y1="139.451" x2="103.958" y2="160.33" stroke="#141414" stroke-width="0.4"/>
<line x1="103.958" y1="160.33" x2="83.078" y2="175.603" stroke="#141414" stroke-width="0.4"/>
<line x1="44.758" y1="166.474" x2="67.805" y2="154.724" stroke="#141414" stroke-width="0.4"/>
<line x1="83.078" y1="175.603" x2="79.093" y2="225.527" stroke="#141414" stroke-width="0.4"/>
<line x1="66.68" y1="239.283" x2="51.774" y2="234.956" stroke="#141414" stroke-width="0.4"/>
<line x1="69.93" y1="213.0" x2="56.101" y2="220.049" stroke="#141414" stroke-width="0.4"/>
<line x1="79.093" y1="225.527" x2="69.93" y2="213.0" stroke="#141414" stroke-width="0.4"/>
<line x1="37.546" y1="191.317" x2="31.905" y2="185.639" stroke="#141414" stroke-width="0.4"/>
<line x1="31.905" y1="185.639" x2="36.954" y2="168.249" stroke="#141414" stroke-width="0.4"/>
<line x1="36.954" y1="168.249" x2="44.758" y2="166.474" stroke="#141414" stroke-width="0.4"/>
<line x1="37.546" y1="191.317" x2="26.681" y2="184.317" stroke="#141414" stroke-width="0.4"/>
<line x1="26.681" y1="184.317" x2="22.542" y2="184.317" stroke="#141414" stroke-width="0.4"/>
<line x1="22.542" y1="184.317" x2="11.677" y2="191.317" stroke="#141414" stroke-width="0.4"/>
<line x1="88.684" y1="139.45" x2="81.42" y2="136.092" stroke="#141414" stroke-width="0.4"/>
<line x1="81.42" y1="136.092" x2="66.804" y2="146.783" stroke="#141414" stroke-width="0.4"/>
<line x1="66.804" y1="146.783" x2="67.805" y2="154.724" stroke="#141414" stroke-width="0.4"/>
<line x1="11.677" y1="191.317" x2="9.264" y2="201.298" stroke="#141414" stroke-width="0.4"/>
<line x1="9.264" y1="201.298" x2="26.467" y2="231.845" stroke="#141414" stroke-width="0.4"/>
<line x1="26.467" y1="231.845" x2="36.252" y2="234.956" stroke="#141414" stroke-width="0.4"/>
<line x1="51.774" y1="234.956" x2="49.446" y2="241.956" stroke="#141414" stroke-width="0.4"/>
<line x1="49.446" y1="241.956" x2="38.581" y2="241.956" stroke="#141414" stroke-width="0.4"/>
<line x1="38.581" y1="241.956" x2="36.252" y2="234.956" stroke="#141414" stroke-width="0.4"/>
<line x1="56.101" y1="220.049" x2="64.085" y2="215.933" stroke="#141414" stroke-width="0.4"/>
<line x1="64.085" y1="215.933" x2="66.469" y2="216.625" stroke="#141414" stroke-width="0.4"/>
<line x1="66.469" y1="216.625" x2="71.008" y2="224.377" stroke="#141414" stroke-width="0.4"/>
<line x1="66.68" y1="239.283" x2="74.052" y2="238.998" stroke="#141414" stroke-width="0.4"/>
<line x1="74.052" y1="238.998" x2="77.081" y2="228.564" stroke="#141414" stroke-width="0.4"/>
<line x1="77.081" y1="228.564" x2="71.008" y2="224.377" stroke="#141414" stroke-width="0.4"/>
<circle cx="37.791" cy="177.92" r="1.88" fill="#ffe082" stroke="#464646" stroke-width="0.2"/>
<text x="37.791" y="178.56" font-size="1.84" text-anchor="middle" fill="#141414">172</text>
<circle cx="24.611" cy="187.817" r="1.88" fill="#ffe082" stroke="#464646" stroke-width="0.2"/>
<text x="24.611" y="188.46" font-size="1.84" text-anchor="middle" fill="#141414">173</text>
<circle cx="76.178" cy="144.262" r="1.88" fill="#ffe082" stroke="#464646" stroke-width="0.2"/>
<text x="76.178" y="144.91" font-size="1.84" text-anchor="middle" fill="#141414">174</text>
<circle cx="20.915" cy="214.854" r="1.88" fill="#ffe082" stroke="#464646" stroke-width="0.2"/>
<text x="20.915" y="215.50" font-size="1.84" text-anchor="middle" fill="#141414">175</text>
<circle cx="44.013" cy="238.456" r="1.88" fill="#99d9fa" stroke="#464646" stroke-width="0.2"/>
<text x="44.013" y="239.10" font-size="1.84" text-anchor="middle" fill="#141414">176</text>
<circle cx="64.416" cy="219.246" r="1.88" fill="#ffe082" stroke="#464646" stroke-width="0.2"/>
<text x="64.416" y="219.89" font-size="1.84" text-anchor="middle" fill="#141414">177</text>
<circle cx="72.205" cy="232.805" r="1.88" fill="#ffe082" stroke="#464646" stroke-width="0.2"/>
<text x="72.205" y="233.45" font-size="1.84" text-anchor="middle" fill="#141414">178</text>
<circle cx="56.221" cy="180.416" r="4.60" fill="#eaf1fe" stroke="#2e78e6" stroke-width="0.3"/>
<text x="56.221" y="182.22" font-size="5.20" text-anchor="middle" fill="#14306e" font-weight="bold">10</text>
<text x="205.0" y="295.0" font-size="3.2" text-anchor="end" fill="#737373" font-family="sans-serif">4 / 5</text>
</svg>
