<svg xmlns="http://www.w3.org/2000/svg" xmlns:xlink="http://www.w3.org/1999/xlink" width="210.00mm" height="297.00mm" viewBox="0 0 210.00 297.00">
<rect x="0" y="0" width="210.00" height="297.00" fill="#ffffff" stroke="#cccccc" stroke-width="0.2"/>
<polygon points="57.016,28.336 68.629,37.374 70.612,41.89 69.406,56.556" fill="rgb(216,216,216)"/>
<polygon points="76.058,26.463 77.643,18.472 95.969,11.964 102.238,17.166" fill="rgb(216,216,216)"/>
<polygon points="30.412,69.922 27.351,77.452 39.043,92.78 47.114,91.819" fill="rgb(216,216,216)"/>
<polygon points="30.412,69.922 21.73,66.471 11.954,39.305 16.446,31.114" fill="rgb(216,216,216)"/>
<polygon points="132.152,95.208 132.115,81.253 129.798,77.281 117.669,70.38" fill="rgb(216,216,216)"/>
<polygon points="93.5,93.743 82.573,94.672 74.547,102.565 73.437,113.475" fill="rgb(216,216,216)"/>
<polygon points="88.202,63.498 102.17,59.572 106.884,60.673 117.669,70.38" fill="rgb(216,216,216)"/>
<polygon points="65.44,95.867 61.181,102.095 48.353,99.261 47.114,91.819" fill="rgb(216,216,216)"/>
<polygon points="104.737,136.21 112.385,141.922 142.172,136.447 147.29,128.389" fill="rgb(216,216,216)"/>
<polygon points="144.571,69.286 152.97,69.35 164.808,87.495 161.482,95.208" fill="rgb(216,216,216)"/>
<polygon points="147.29,128.389 155.855,126.165 165.789,102.938 161.482,95.208" fill="rgb(216,216,216)"/>
<polygon points="88.202,63.498 102.17,59.572 106.884,60.673 117.669,70.38" fill="#99d9fa"/>
<line x1="57.016" y1="28.336" x2="30.412" y2="69.922" stroke="#8c8c8c" stroke-width="0.3" stroke-dasharray="1.2,0.8"/>
<line x1="88.202" y1="63.498" x2="76.058" y2="26.463" stroke="#8c8c8c" stroke-width="0.3" stroke-dasharray="1.2,0.8"/>
<line x1="113.016" y1="46.18" x2="76.058" y2="26.463" stroke="#8c8c8c" stroke-width="0.3" stroke-dasharray="1.2,0.8"/>
<line x1="16.445" y1="31.114" x2="57.016" y2="28.336" stroke="#8c8c8c" stroke-width="0.3" stroke-dasharray="1.2,0.8"/>
<line x1="69.406" y1="56.556" x2="30.412" y2="69.922" stroke="#8c8c8c" stroke-width="0.3" stroke-dasharray="1.2,0.8"/>
<line x1="104.737" y1="136.21" x2="80.407" y2="158.902" stroke="#8c8c8c" stroke-width="0.3" stroke-dasharray="1.2,0.8"/>
<line x1="93.5" y1="93.743" x2="132.152" y2="95.208" stroke="#8c8c8c" stroke-width="0.3" stroke-dasharray="1.2,0.8"/>
<line x1="104.737" y1="136.21" x2="132.152" y2="95.208" stroke="#8c8c8c" stroke-width="0.3" stroke-dasharray="1.2,0.8"/>
<line x1="147.29" y1="128.389" x2="132.152" y2="95.208" stroke="#8c8c8c" stroke-width="0.3" stroke-dasharray="1.2,0.8"/>
<line x1="132.152" y1="95.208" x2="161.482" y2="95.208" stroke="#8c8c8c" stroke-width="0.3" stroke-dasharray="1.2,0.8"/>
<line x1="69.406" y1="56.556" x2="88.202" y2="63.498" stroke="#8c8c8c" stroke-width="0.3" stroke-dasharray="1.2,0.8"/>
<line x1="65.44" y1="95.867" x2="69.406" y2="56.556" stroke="#8c8c8c" stroke-width="0.3" stroke-dasharray="1.2,0.8"/>
<line x1="69.406" y1="56.556" x2="47.114" y2="91.819" stroke="#8c8c8c" stroke-width="0.3" stroke-dasharray="1.2,0.8"/>
<line x1="93.5" y1="93.743" x2="88.202" y2="63.498" stroke="#8c8c8c" stroke-width="0.3" stroke-dasharray="1.2,0.8"/>
<line x1="104.737" y1="136.21" x2="93.5" y2="93.743" stroke="#8c8c8c" stroke-width="0.3" stroke-dasharray="1.2,0.8"/>
<line x1="93.5" y1="93.743" x2="117.669" y2="70.38" stroke="#8c8c8c" stroke-width="0.3" stroke-dasharray="1.2,0.8"/>
<line x1="88.202" y1="63.498" x2="65.44" y2="95.867" stroke="#8c8c8c" stroke-width="0.3" stroke-dasharray="1.2,0.8"/>
<line x1="104.737" y1="136.21" x2="73.437" y2="113.475" stroke="#8c8c8c" stroke-width="0.3" stroke-dasharray="1.2,0.8"/>
<line x1="73.499" y1="132.243" x2="104.737" y2="136.21" stroke="#8c8c8c" stroke-width="0.3" stroke-dasharray="1.2,0.8"/>
<line x1="69.406" y1="56.556" x2="57.016" y2="28.336" stroke="#8c8c8c" stroke-width="0.3" stroke-dasharray="1.2,0.8"/>
<line x1="102.238" y1="17.166" x2="76.058" y2="26.463" stroke="#8c8c8c" stroke-width="0.3" stroke-dasharray="1.2,0.8"/>
<line x1="47.114" y1="91.819" x2="30.412" y2="69.922" stroke="#8c8c8c" stroke-width="0.3" stroke-dasharray="1.2,0.8"/>
<line x1="16.446" y1="31.114" x2="30.412" y2="69.922" stroke="#8c8c8c" stroke-width="0.3" stroke-dasharray="1.2,0.8"/>
<line x1="117.669" y1="70.38" x2="132.152" y2="95.208" stroke="#8c8c8c" stroke-width="0.3" stroke-dasharray="1.2,0.8"/>
<line x1="73.437" y1="113.475" x2="93.5" y2="93.743" stroke="#8c8c8c" stroke-width="0.3" stroke-dasharray="1.2,0.8"/>
<line x1="117.669" y1="70.38" x2="88.202" y2="63.498" stroke="#8c8c8c" stroke-width="0.3" stroke-dasharray="1.2,0.8"/>
<line x1="47.114" y1="91.819" x2="65.44" y2="95.867" stroke="#8c8c8c" stroke-width="0.3" stroke-dasharray="1.2,0.8"/>
<line x1="147.29" y1="128.389" x2="104.737" y2="136.21" stroke="#8c8c8c" stroke-width="0.3" stroke-dasharray="1.2,0.8"/>
<line x1="161.482" y1="95.208" x2="144.571" y2="69.286" stroke="#8c8c8c" stroke-width="0.3" stroke-dasharray="1.2,0.8"/>
<line x1="161.482" y1="95.208" x2="147.29" y2="128.389" stroke="#8c8c8c" stroke-width="0.3" stroke-dasharray="1.2,0.8"/>
<line x1="69.406" y1="56.556" x2="76.058" y2="26.463" stroke="#141414" stroke-width="0.4"/>
<line x1="41.593" y1="5.229" x2="57.016" y2="28.336" stroke="#141414" stroke-width="0.4"/>
<line x1="80.407" y1="158.902" x2="73.499" y2="132.243" stroke="#141414" stroke-width="0.4"/>
<line x1="117.14" y1="177.66" x2="80.407" y2="158.902" stroke="#141414" stroke-width="0.4"/>
<line x1="132.152" y1="95.208" x2="144.571" y2="69.286" stroke="#141414" stroke-width="0.4"/>
<line x1="93.5" y1="93.743" x2="65.44" y2="95.867" stroke="#141414" stroke-width="0.4"/>
<line x1="113.016" y1="46.18" x2="88.202" y2="63.498" stroke="#141414" stroke-width="0.4"/>
<line x1="73.499" y1="132.243" x2="73.437" y2="113.475" stroke="#141414" stroke-width="0.4"/>
<line x1="104.737" y1="136.21" x2="117.14" y2="177.66" stroke="#141414" stroke-width="0.4"/>
<line x1="102.238" y1="17.166" x2="113.016" y2="46.18" stroke="#141414" stroke-width="0.4"/>
<line x1="16.445" y1="31.114" x2="41.593" y2="5.229" stroke="#141414" stroke-width="0.4"/>
<line x1="57.016" y1="28.336" x2="68.629" y2="37.374" stroke="#141414" stroke-width="0.4"/>
<line x1="68.629" y1="37.374" x2="70.612" y2="41.89" stroke="#141414" stroke-width="0.4"/>
<line x1="70.612" y1="41.89" x2="69.406" y2="56.556" stroke="#141414" stroke-width="0.4"/>
<line x1="76.058" y1="26.463" x2="77.643" y2="18.472" stroke="#141414" stroke-width="0.4"/>
<line x1="77.643" y1="18.472" x2="95.969" y2="11.964" stroke="#141414" stroke-width="0.4"/>
<line x1="95.969" y1="11.964" x2="102.238" y2="17.166" stroke="#141414" stroke-width="0.4"/>
<line x1="30.412" y1="69.922" x2="27.351" y2="77.452" stroke="#141414" stroke-width="0.4"/>
<line x1="27.351" y1="77.452" x2="39.043" y2="92.78" stroke="#141414" stroke-width="0.4"/>
<line x1="39.043" y1="92.78" x2="47.114" y2="91.819" stroke="#141414" stroke-width="0.4"/>
<line x1="30.412" y1="69.922" x2="21.73" y2="66.471" stroke="#141414" stroke-width="0.4"/>
<line x1="21.73" y1="66.471" x2="11.954" y2="39.305" stroke="#141414" stroke-width="0.4"/>
<line x1="11.954" y1="39.305" x2="16.446" y2="31.114" stroke="#141414" stroke-width="0.4"/>
<line x1="132.152" y1="95.208" x2="132.115" y2="81.253" stroke="#141414" stroke-width="0.4"/>
<line x1="132.115" y1="81.253" x2="129.798" y2="77.281" stroke="#141414" stroke-width="0.4"/>
<line x1="129.798" y1="77.281" x2="117.669" y2="70.38" stroke="#141414" stroke-width="0.4"/>
<line x1="93.5" y1="93.743" x2="82.573" y2="94.672" stroke="#141414" stroke-width="0.4"/>
<line x1="82.573" y1="94.672" x2="74.547" y2="102.565" stroke="#141414" stroke-width="0.4"/>
<line x1="74.547" y1="102.565" x2="73.437" y2="113.475" stroke="#141414" stroke-width="0.4"/>
<line x1="88.202" y1="63.498" x2="102.17" y2="59.572" stroke="#141414" stroke-width="0.4"/>
<line x1="102.17" y1="59.572" x2="106.884" y2="60.673" stroke="#141414" stroke-width="0.4"/>
<line x1="106.884" y1="60.673" x2="117.669" y2="70.38" stroke="#141414" stroke-width="0.4"/>
<line x1="65.44" y1="95.867" x2="61.181" y2="102.095" stroke="#141414" stroke-width="0.4"/>
<line x1="61.181" y1="102.095" x2="48.353" y2="99.261" stroke="#141414" stroke-width="0.4"/>
<line x1="48.353" y1="99.261" x2="47.114" y2="91.819" stroke="#141414" stroke-width="0.4"/>
<line x1="104.737" y1="136.21" x2="112.385" y2="141.922" stroke="#141414" stroke-width="0.4"/>
<line x1="112.385" y1="141.922" x2="142.172" y2="136.447" stroke="#141414" stroke-width="0.4"/>
<line x1="142.172" y1="136.447" x2="147.29" y2="128.389" stroke="#141414" stroke-width="0.4"/>
<line x1="144.571" y1="69.286" x2="152.97" y2="69.35" stroke="#141414" stroke-width="0.4"/>
<line x1="152.97" y1="69.35" x2="164.808" y2="87.495" stroke="#141414" stroke-width="0.4"/>
<line x1="164.808" y1="87.495" x2="161.482" y2="95.208" stroke="#141414" stroke-width="0.4"/>
<line x1="147.29" y1="128.389" x2="155.855" y2="126.165" stroke="#141414" stroke-width="0.4"/>
<line x1="155.855" y1="126.165" x2="165.789" y2="102.938" stroke="#141414" stroke-width="0.4"/>
<line x1="165.789" y1="102.938" x2="161.482" y2="95.208" stroke="#141414" stroke-width="0.4"/>
<circle cx="66.416" cy="41.039" r="1.99" fill="#ffe082" stroke="#464646" stroke-width="0.2"/>
<text x="66.416" y="41.72" font-size="1.95" text-anchor="middle" fill="#141414">12</text>
<circle cx="87.977" cy="18.516" r="1.99" fill="#ffe082" stroke="#464646" stroke-width="0.2"/>
<text x="87.977" y="19.20" font-size="1.95" text-anchor="middle" fill="#141414">13</text>
<circle cx="35.98" cy="82.993" r="1.99" fill="#ffe082" stroke="#464646" stroke-width="0.2"/>
<text x="35.98" y="83.68" font-size="1.95" text-anchor="middle" fill="#141414">14</text>
<circle cx="20.135" cy="51.703" r="1.99" fill="#ffe082" stroke="#464646" stroke-width="0.2"/>
<text x="20.135" y="52.39" font-size="1.95" text-anchor="middle" fill="#141414">15</text>
<circle cx="127.933" cy="81.031" r="1.99" fill="#ffe082" stroke="#464646" stroke-width="0.2"/>
<text x="127.933" y="81.71" font-size="1.95" text-anchor="middle" fill="#141414">16</text>
<circle cx="81.014" cy="101.114" r="1.99" fill="#ffe082" stroke="#464646" stroke-width="0.2"/>
<text x="81.014" y="101.80" font-size="1.95" text-anchor="middle" fill="#141414">17</text>
<circle cx="103.731" cy="63.531" r="1.99" fill="#99d9fa" stroke="#464646" stroke-width="0.2"/>
<text x="103.731" y="64.21" font-size="1.95" text-anchor="middle" fill="#141414">18</text>
<circle cx="55.522" cy="97.261" r="1.99" fill="#ffe082" stroke="#464646" stroke-width="0.2"/>
<text x="55.522" y="97.94" font-size="1.95" text-anchor="middle" fill="#141414">19</text>
<circle cx="126.646" cy="135.742" r="1.99" fill="#ffe082" stroke="#464646" stroke-width="0.2"/>
<text x="126.646" y="136.43" font-size="1.95" text-anchor="middle" fill="#141414">20</text>
<circle cx="155.958" cy="80.335" r="1.99" fill="#ffe082" stroke="#464646" stroke-width="0.2"/>
<text x="155.958" y="81.02" font-size="1.95" text-anchor="middle" fill="#141414">21</text>
<circle cx="157.604" cy="113.175" r="1.99" fill="#ffe082" stroke="#464646" stroke-width="0.2"/>
<text x="157.604" y="113.86" font-size="1.95" text-anchor="middle" fill="#141414">22</text>
<circle cx="82.381" cy="84.369" r="4.60" fill="#eaf1fe" stroke="#2e78e6" stroke-width="0.3"/>
<text x="82.381" y="86.17" font-size="5.20" text-anchor="middle" fill="#14306e" font-weight="bold">2</text>
<polygon points="184.947,226.785 192.886,227.053 200.649,242.768 196.036,249.236" fill="rgb(216,216,216)"/>
<polygon points="169.868,188.34 157.699,186.939 116.39,209.164 110.854,220.091" fill="rgb(216,216,216)"/>
<polygon points="184.947,226.785 167.983,219.785 145.365,219.785 128.401,226.785" fill="rgb(216,216,216)"/>
<polygon points="40.502,216.703 57.413,229.633 82.876,238.007 104.161,237.638" fill="rgb(216,216,216)"/>
<polygon points="26.032,184.382 18.152,185.397 11.905,201.774 17.106,207.778" fill="rgb(216,216,216)"/>
<polygon points="187.11,272.632 174.52,274.811 128.738,255.001 121.707,244.332" fill="rgb(216,216,216)"/>
<polygon points="104.161,237.638 104.298,245.182 116.58,249.868 121.707,244.332" fill="rgb(216,216,216)"/>
<polygon points="184.947,226.785 192.886,227.053 200.649,242.768 196.036,249.236" fill="#99d9fa"/>
<line x1="40.502" y1="216.703" x2="49.427" y2="193.307" stroke="#8c8c8c" stroke-width="0.3" stroke-dasharray="1.2,0.8"/>
<line x1="40.502" y1="216.703" x2="17.106" y2="207.778" stroke="#8c8c8c" stroke-width="0.3" stroke-dasharray="1.2,0.8"/>
<line x1="196.036" y1="249.236" x2="128.401" y2="226.785" stroke="#8c8c8c" stroke-width="0.3" stroke-dasharray="1.2,0.8"/>
<line x1="110.854" y1="220.091" x2="104.161" y2="237.638" stroke="#8c8c8c" stroke-width="0.3" stroke-dasharray="1.2,0.8"/>
<line x1="128.401" y1="226.785" x2="110.854" y2="220.091" stroke="#8c8c8c" stroke-width="0.3" stroke-dasharray="1.2,0.8"/>
<line x1="128.401" y1="226.785" x2="121.707" y2="244.332" stroke="#8c8c8c" stroke-width="0.3" stroke-dasharray="1.2,0.8"/>
<line x1="196.036" y1="249.236" x2="184.947" y2="226.785" stroke="#8c8c8c" stroke-width="0.3" stroke-dasharray="1.2,0.8"/>
<line x1="110.854" y1="220.091" x2="169.868" y2="188.34" stroke="#8c8c8c" stroke-width="0.3" stroke-dasharray="1.2,0.8"/>
<line x1="128.401" y1="226.785" x2="184.947" y2="226.785" stroke="#8c8c8c" stroke-width="0.3" stroke-dasharray="1.2,0.8"/>
<line x1="104.161" y1="237.638" x2="40.502" y2="216.703" stroke="#8c8c8c" stroke-width="0.3" stroke-dasharray="1.2,0.8"/>
<line x1="17.106" y1="207.778" x2="26.032" y2="184.382" stroke="#8c8c8c" stroke-width="0.3" stroke-dasharray="1.2,0.8"/>
<line x1="121.707" y1="244.332" x2="187.11" y2="272.632" stroke="#8c8c8c" stroke-width="0.3" stroke-dasharray="1.2,0.8"/>
<line x1="121.707" y1="244.332" x2="104.161" y2="237.638" stroke="#8c8c8c" stroke-width="0.3" stroke-dasharray="1.2,0.8"/>
<line x1="26.032" y1="184.382" x2="49.427" y2="193.307" stroke="#141414" stroke-width="0.4"/>
<line x1="49.427" y1="193.307" x2="110.854" y2="220.091" stroke="#141414" stroke-width="0.4"/>
<line x1="169.868" y1="188.34" x2="128.401" y2="226.785" stroke="#141414" stroke-width="0.4"/>
<line x1="40.502" y1="216.703" x2="63.374" y2="279.691" stroke="#141414" stroke-width="0.4"/>
<line x1="196.036" y1="249.236" x2="187.111" y2="272.632" stroke="#141414" stroke-width="0.4"/>
<line x1="45.827" y1="272.998" x2="17.106" y2="207.778" stroke="#141414" stroke-width="0.4"/>
<line x1="63.374" y1="279.691" x2="45.827" y2="272.998" stroke="#141414" stroke-width="0.4"/>
<line x1="184.947" y1="226.785" x2="192.886" y2="227.053" stroke="#141414" stroke-width="0.4"/>
<line x1="192.886" y1="227.053" x2="200.649" y2="242.768" stroke="#141414" stroke-width="0.4"/>
<line x1="200.649" y1="242.768" x2="196.036" y2="249.236" stroke="#141414" stroke-width="0.4"/>
<line x1="169.868" y1="188.34" x2="157.699" y2="186.939" stroke="#141414" stroke-width="0.4"/>
<line x1="157.699" y1="186.939" x2="116.39" y2="209.164" stroke="#141414" stroke-width="0.4"/>
<line x1="116.39" y1="209.164" x2="110.854" y2="220.091" stroke="#141414" stroke-width="0.4"/>
<line x1="184.947" y1="226.785" x2="167.983" y2="219.785" stroke="#141414" stroke-width="0.4"/>
<line x1="167.983" y1="219.785" x2="145.365" y2="219.785" stroke="#141414" stroke-width="0.4"/>
<line x1="145.365" y1="219.785" x2="128.401" y2="226.785" stroke="#141414" stroke-width="0.4"/>
<line x1="40.502" y1="216.703" x2="57.413" y2="229.633" stroke="#141414" stroke-width="0.4"/>
<line x1="57.413" y1="229.633" x2="82.876" y2="238.007" stroke="#141414" stroke-width="0.4"/>
<line x1="82.876" y1="238.007" x2="104.161" y2="237.638" stroke="#141414" stroke-width="0.4"/>
<line x1="26.032" y1="184.382" x2="18.152" y2="185.397" stroke="#141414" stroke-width="0.4"/>
<line x1="18.152" y1="185.397" x2="11.905" y2="201.774" stroke="#141414" stroke-width="0.4"/>
<line x1="11.905" y1="201.774" x2="17.106" y2="207.778" stroke="#141414" stroke-width="0.4"/>
<line x1="187.11" y1="272.632" x2="174.52" y2="274.811" stroke="#141414" stroke-width="0.4"/>
<line x1="174.52" y1="274.811" x2="128.738" y2="255.001" stroke="#141414" stroke-width="0.4"/>
<line x1="128.738" y1="255.001" x2="121.707" y2="244.332" stroke="#141414" stroke-width="0.4"/>
<line x1="104.161" y1="237.638" x2="104.298" y2="245.182" stroke="#141414" stroke-width="0.4"/>
<line x1="104.298" y1="245.182" x2="116.58" y2="249.868" stroke="#141414" stroke-width="0.4"/>
<line x1="116.58" y1="249.868" x2="121.707" y2="244.332" stroke="#141414" stroke-width="0.4"/>
<circle cx="193.629" cy="236.46" r="1.99" fill="#99d9fa" stroke="#464646" stroke-width="0.2"/>
<text x="193.629" y="237.14" font-size="1.95" text-anchor="middle" fill="#141414">63</text>
<circle cx="138.703" cy="201.134" r="1.99" fill="#ffe082" stroke="#464646" stroke-width="0.2"/>
<text x="138.703" y="201.82" font-size="1.95" text-anchor="middle" fill="#141414">64</text>
<circle cx="156.674" cy="223.285" r="1.99" fill="#ffe082" stroke="#464646" stroke-width="0.2"/>
<text x="156.674" y="223.97" font-size="1.95" text-anchor="middle" fill="#141414">65</text>
<circle cx="71.238" cy="230.495" r="1.99" fill="#ffe082" stroke="#464646" stroke-width="0.2"/>
<text x="71.238" y="231.18" font-size="1.95" text-anchor="middle" fill="#141414">66</text>
<circle cx="18.299" cy="194.833" r="1.99" fill="#ffe082" stroke="#464646" stroke-width="0.2"/>
<text x="18.299" y="195.52" font-size="1.95" text-anchor="middle" fill="#141414">67</text>
<circle cx="153.019" cy="261.694" r="1.99" fill="#ffe082" stroke="#464646" stroke-width="0.2"/>
<text x="153.019" y="262.38" font-size="1.95" text-anchor="middle" fill="#141414">68</text>
<circle cx="111.686" cy="244.255" r="1.99" fill="#ffe082" stroke="#464646" stroke-width="0.2"/>
<text x="111.686" y="244.94" font-size="1.95" text-anchor="middle" fill="#141414">69</text>
<circle cx="64.697" cy="215.883" r="4.60" fill="#eaf1fe" stroke="#2e78e6" stroke-width="0.3"/>
<text x="64.697" y="217.68" font-size="5.20" text-anchor="middle" fill="#14306e" font-weight="bold">7</text>
<text x="205.0" y="295.0" font-size="3.2" text-anchor="end" fill="#737373" font-family="sans-serif">2 / 7</text>
</svg>
