<svg xmlns="http://www.w3.org/2000/svg" xmlns:xlink="http://www.w3.org/1999/xlink" width="210.00mm" height="297.00mm" viewBox="0 0 210.00 297.00">
<rect x="0" y="0" width="210.00" height="297.00" fill="#ffffff" stroke="#cccccc" stroke-width="0.2"/>
<polygon points="102.434,60.274 95.931,67.274 65.585,67.274 59.082,60.274" fill="rgb(216,216,216)"/>
<polygon points="102.434,48.352 108.937,41.352 139.284,41.352 145.787,48.352" fill="rgb(216,216,216)"/>
<polygon points="102.434,48.352 95.931,41.352 65.585,41.352 59.082,48.352" fill="rgb(216,216,216)"/>
<polygon points="145.787,60.274 152.787,66.777 152.787,97.124 145.787,103.626" fill="rgb(216,216,216)"/>
<polygon points="15.73,5.0 8.73,11.503 8.73,41.849 15.73,48.352" fill="rgb(216,216,216)"/>
<polygon points="102.434,103.626 108.937,110.626 139.284,110.626 145.787,103.626" fill="rgb(216,216,216)"/>
<polygon points="189.139,60.274 195.1,58.486 195.1,50.141 189.139,48.352" fill="rgb(216,216,216)"/>
<polygon points="102.434,60.274 95.931,67.274 65.585,67.274 59.082,60.274" fill="#99d9fa"/>
<line x1="102.434" y1="60.274" x2="102.434" y2="48.352" stroke="#8c8c8c" stroke-width="0.3" stroke-dasharray="1.2,0.8"/>
<line x1="145.787" y1="60.274" x2="102.434" y2="60.274" stroke="#8c8c8c" stroke-width="0.3" stroke-dasharray="1.2,0.8"/>
<line x1="145.787" y1="48.352" x2="145.787" y2="60.274" stroke="#8c8c8c" stroke-width="0.3" stroke-dasharray="1.2,0.8"/>
<line x1="59.082" y1="60.274" x2="59.082" y2="48.352" stroke="#8c8c8c" stroke-width="0.3" stroke-dasharray="1.2,0.8"/>
<line x1="59.082" y1="48.352" x2="15.73" y2="48.352" stroke="#8c8c8c" stroke-width="0.3" stroke-dasharray="1.2,0.8"/>
<line x1="59.082" y1="60.274" x2="102.434" y2="60.274" stroke="#8c8c8c" stroke-width="0.3" stroke-dasharray="1.2,0.8"/>
<line x1="145.787" y1="48.352" x2="102.434" y2="48.352" stroke="#8c8c8c" stroke-width="0.3" stroke-dasharray="1.2,0.8"/>
<line x1="59.082" y1="48.352" x2="102.434" y2="48.352" stroke="#8c8c8c" stroke-width="0.3" stroke-dasharray="1.2,0.8"/>
<line x1="145.787" y1="103.626" x2="145.787" y2="60.274" stroke="#8c8c8c" stroke-width="0.3" stroke-dasharray="1.2,0.8"/>
<line x1="15.73" y1="48.352" x2="15.73" y2="5.0" stroke="#8c8c8c" stroke-width="0.3" stroke-dasharray="1.2,0.8"/>
<line x1="145.787" y1="103.626" x2="102.434" y2="103.626" stroke="#8c8c8c" stroke-width="0.3" stroke-dasharray="1.2,0.8"/>
<line x1="189.139" y1="48.352" x2="189.139" y2="60.274" stroke="#8c8c8c" stroke-width="0.3" stroke-dasharray="1.2,0.8"/>
<line x1="102.434" y1="103.626" x2="102.434" y2="60.274" stroke="#141414" stroke-width="0.4"/>
<line x1="15.73" y1="5.0" x2="59.082" y2="5.0" stroke="#141414" stroke-width="0.4"/>
<line x1="59.082" y1="5.0" x2="59.082" y2="48.352" stroke="#141414" stroke-width="0.4"/>
<line x1="189.139" y1="60.274" x2="145.787" y2="60.274" stroke="#141414" stroke-width="0.4"/>
<line x1="145.787" y1="48.352" x2="189.139" y2="48.352" stroke="#141414" stroke-width="0.4"/>
<line x1="59.082" y1="60.274" x2="15.73" y2="60.274" stroke="#141414" stroke-width="0.4"/>
<line x1="15.73" y1="60.274" x2="15.73" y2="48.352" stroke="#141414" stroke-width="0.4"/>
<line x1="102.434" y1="60.274" x2="95.931" y2="67.274" stroke="#141414" stroke-width="0.4"/>
<line x1="95.931" y1="67.274" x2="65.585" y2="67.274" stroke="#141414" stroke-width="0.4"/>
<line x1="65.585" y1="67.274" x2="59.082" y2="60.274" stroke="#141414" stroke-width="0.4"/>
<line x1="102.434" y1="48.352" x2="108.937" y2="41.352" stroke="#141414" stroke-width="0.4"/>
<line x1="108.937" y1="41.352" x2="139.284" y2="41.352" stroke="#141414" stroke-width="0.4"/>
<line x1="139.284" y1="41.352" x2="145.787" y2="48.352" stroke="#141414" stroke-width="0.4"/>
<line x1="102.434" y1="48.352" x2="95.931" y2="41.352" stroke="#141414" stroke-width="0.4"/>
<line x1="95.931" y1="41.352" x2="65.585" y2="41.352" stroke="#141414" stroke-width="0.4"/>
<line x1="65.585" y1="41.352" x2="59.082" y2="48.352" stroke="#141414" stroke-width="0.4"/>
<line x1="145.787" y1="60.274" x2="152.787" y2="66.777" stroke="#141414" stroke-width="0.4"/>
<line x1="152.787" y1="66.777" x2="152.787" y2="97.124" stroke="#141414" stroke-width="0.4"/>
<line x1="152.787" y1="97.124" x2="145.787" y2="103.626" stroke="#141414" stroke-width="0.4"/>
<line x1="15.73" y1="5.0" x2="8.73" y2="11.503" stroke="#141414" stroke-width="0.4"/>
<line x1="8.73" y1="11.503" x2="8.73" y2="41.849" stroke="#141414" stroke-width="0.4"/>
<line x1="8.73" y1="41.849" x2="15.73" y2="48.352" stroke="#141414" stroke-width="0.4"/>
<line x1="102.434" y1="103.626" x2="108.937" y2="110.626" stroke="#141414" stroke-width="0.4"/>
<line x1="108.937" y1="110.626" x2="139.284" y2="110.626" stroke="#141414" stroke-width="0.4"/>
<line x1="139.284" y1="110.626" x2="145.787" y2="103.626" stroke="#141414" stroke-width="0.4"/>
<line x1="189.139" y1="60.274" x2="195.1" y2="58.486" stroke="#141414" stroke-width="0.4"/>
<line x1="195.1" y1="58.486" x2="195.1" y2="50.141" stroke="#141414" stroke-width="0.4"/>
<line x1="195.1" y1="50.141" x2="189.139" y2="48.352" stroke="#141414" stroke-width="0.4"/>
<circle cx="80.758" cy="63.774" r="1.93" fill="#99d9fa" stroke="#464646" stroke-width="0.2"/>
<text x="80.758" y="64.69" font-size="2.62" text-anchor="middle" fill="#141414">29</text>
<circle cx="124.11" cy="44.852" r="1.93" fill="#ffe082" stroke="#464646" stroke-width="0.2"/>
<text x="124.11" y="45.77" font-size="2.62" text-anchor="middle" fill="#141414">30</text>
<circle cx="80.758" cy="44.852" r="1.93" fill="#ffe082" stroke="#464646" stroke-width="0.2"/>
<text x="80.758" y="45.77" font-size="2.62" text-anchor="middle" fill="#141414">31</text>
<circle cx="149.287" cy="81.95" r="1.93" fill="#ffe082" stroke="#464646" stroke-width="0.2"/>
<text x="149.287" y="82.87" font-size="2.62" text-anchor="middle" fill="#141414">32</text>
<circle cx="12.23" cy="26.676" r="1.93" fill="#ffe082" stroke="#464646" stroke-width="0.2"/>
<text x="12.23" y="27.59" font-size="2.62" text-anchor="middle" fill="#141414">33</text>
<circle cx="124.11" cy="107.126" r="1.93" fill="#ffe082" stroke="#464646" stroke-width="0.2"/>
<text x="124.11" y="108.04" font-size="2.62" text-anchor="middle" fill="#141414">34</text>
<circle cx="192.119" cy="54.313" r="1.93" fill="#ffe082" stroke="#464646" stroke-width="0.2"/>
<text x="192.119" y="55.23" font-size="2.62" text-anchor="middle" fill="#141414">35</text>
<circle cx="131.336" cy="89.176" r="4.60" fill="#eaf1fe" stroke="#2e78e6" stroke-width="0.3"/>
<text x="131.336" y="90.98" font-size="5.20" text-anchor="middle" fill="#14306e" font-weight="bold">5</text>
<polygon points="65.9,160.075 62.184,167.075 44.843,167.075 41.127,160.075" fill="rgb(216,216,216)"/>
<polygon points="65.9,138.399 69.616,131.399 86.956,131.399 90.672,138.399" fill="rgb(216,216,216)"/>
<polygon points="65.9,138.399 62.184,131.399 44.843,131.399 41.127,138.399" fill="rgb(216,216,216)"/>
<polygon points="90.672,160.075 97.672,163.791 97.672,181.132 90.672,184.848" fill="rgb(216,216,216)"/>
<polygon points="16.354,113.626 9.354,117.342 9.354,134.683 16.354,138.399" fill="rgb(216,216,216)"/>
<polygon points="65.9,184.848 69.616,191.848 86.956,191.848 90.672,184.848" fill="rgb(216,216,216)"/>
<polygon points="115.445,160.075 122.445,156.824 122.445,141.65 115.445,138.399" fill="rgb(216,216,216)"/>
<polygon points="65.9,160.075 62.184,167.075 44.843,167.075 41.127,160.075" fill="#99d9fa"/>
<line x1="65.9" y1="160.075" x2="65.9" y2="138.399" stroke="#8c8c8c" stroke-width="0.3" stroke-dasharray="1.2,0.8"/>
<line x1="90.672" y1="160.075" x2="65.9" y2="160.075" stroke="#8c8c8c" stroke-width="0.3" stroke-dasharray="1.2,0.8"/>
<line x1="90.672" y1="138.399" x2="90.672" y2="160.075" stroke="#8c8c8c" stroke-width="0.3" stroke-dasharray="1.2,0.8"/>
<line x1="41.127" y1="160.075" x2="41.127" y2="138.399" stroke="#8c8c8c" stroke-width="0.3" stroke-dasharray="1.2,0.8"/>
<line x1="41.127" y1="138.399" x2="16.354" y2="138.399" stroke="#8c8c8c" stroke-width="0.3" stroke-dasharray="1.2,0.8"/>
<line x1="41.127" y1="160.075" x2="65.9" y2="160.075" stroke="#8c8c8c" stroke-width="0.3" stroke-dasharray="1.2,0.8"/>
<line x1="90.672" y1="138.399" x2="65.9" y2="138.399" stroke="#8c8c8c" stroke-width="0.3" stroke-dasharray="1.2,0.8"/>
<line x1="41.127" y1="138.399" x2="65.9" y2="138.399" stroke="#8c8c8c" stroke-width="0.3" stroke-dasharray="1.2,0.8"/>
<line x1="90.672" y1="184.848" x2="90.672" y2="160.075" stroke="#8c8c8c" stroke-width="0.3" stroke-dasharray="1.2,0.8"/>
<line x1="16.354" y1="138.399" x2="16.354" y2="113.626" stroke="#8c8c8c" stroke-width="0.3" stroke-dasharray="1.2,0.8"/>
<line x1="90.672" y1="184.848" x2="65.9" y2="184.848" stroke="#8c8c8c" stroke-width="0.3" stroke-dasharray="1.2,0.8"/>
<line x1="115.445" y1="138.399" x2="115.445" y2="160.075" stroke="#8c8c8c" stroke-width="0.3" stroke-dasharray="1.2,0.8"/>
<line x1="65.9" y1="184.848" x2="65.9" y2="160.075" stroke="#141414" stroke-width="0.4"/>
<line x1="16.354" y1="113.626" x2="41.127" y2="113.626" stroke="#141414" stroke-width="0.4"/>
<line x1="41.127" y1="113.626" x2="41.127" y2="138.399" stroke="#141414" stroke-width="0.4"/>
<line x1="115.445" y1="160.075" x2="90.672" y2="160.075" stroke="#141414" stroke-width="0.4"/>
<line x1="90.672" y1="138.399" x2="115.445" y2="138.399" stroke="#141414" stroke-width="0.4"/>
<line x1="41.127" y1="160.075" x2="16.354" y2="160.075" stroke="#141414" stroke-width="0.4"/>
<line x1="16.354" y1="160.075" x2="16.354" y2="138.399" stroke="#141414" stroke-width="0.4"/>
<line x1="65.9" y1="160.075" x2="62.184" y2="167.075" stroke="#141414" stroke-width="0.4"/>
<line x1="62.184" y1="167.075" x2="44.843" y2="167.075" stroke="#141414" stroke-width="0.4"/>
<line x1="44.843" y1="167.075" x2="41.127" y2="160.075" stroke="#141414" stroke-width="0.4"/>
<line x1="65.9" y1="138.399" x2="69.616" y2="131.399" stroke="#141414" stroke-width="0.4"/>
<line x1="69.616" y1="131.399" x2="86.956" y2="131.399" stroke="#141414" stroke-width="0.4"/>
<line x1="86.956" y1="131.399" x2="90.672" y2="138.399" stroke="#141414" stroke-width="0.4"/>
<line x1="65.9" y1="138.399" x2="62.184" y2="131.399" stroke="#141414" stroke-width="0.4"/>
<line x1="62.184" y1="131.399" x2="44.843" y2="131.399" stroke="#141414" stroke-width="0.4"/>
<line x1="44.843" y1="131.399" x2="41.127" y2="138.399" stroke="#141414" stroke-width="0.4"/>
<line x1="90.672" y1="160.075" x2="97.672" y2="163.791" stroke="#141414" stroke-width="0.4"/>
<line x1="97.672" y1="163.791" x2="97.672" y2="181.132" stroke="#141414" stroke-width="0.4"/>
<line x1="97.672" y1="181.132" x2="90.672" y2="184.848" stroke="#141414" stroke-width="0.4"/>
<line x1="16.354" y1="113.626" x2="9.354" y2="117.342" stroke="#141414" stroke-width="0.4"/>
<line x1="9.354" y1="117.342" x2="9.354" y2="134.683" stroke="#141414" stroke-width="0.4"/>
<line x1="9.354" y1="134.683" x2="16.354" y2="138.399" stroke="#141414" stroke-width="0.4"/>
<line x1="65.9" y1="184.848" x2="69.616" y2="191.848" stroke="#141414" stroke-width="0.4"/>
<line x1="69.616" y1="191.848" x2="86.956" y2="191.848" stroke="#141414" stroke-width="0.4"/>
<line x1="86.956" y1="191.848" x2="90.672" y2="184.848" stroke="#141414" stroke-width="0.4"/>
<line x1="115.445" y1="160.075" x2="122.445" y2="156.824" stroke="#141414" stroke-width="0.4"/>
<line x1="122.445" y1="156.824" x2="122.445" y2="141.65" stroke="#141414" stroke-width="0.4"/>
<line x1="122.445" y1="141.65" x2="115.445" y2="138.399" stroke="#141414" stroke-width="0.4"/>
<circle cx="53.513" cy="163.575" r="1.93" fill="#99d9fa" stroke="#464646" stroke-width="0.2"/>
<text x="53.513" y="164.49" font-size="2.62" text-anchor="middle" fill="#141414">36</text>
<circle cx="78.286" cy="134.899" r="1.93" fill="#ffe082" stroke="#464646" stroke-width="0.2"/>
<text x="78.286" y="135.81" font-size="2.62" text-anchor="middle" fill="#141414">37</text>
<circle cx="53.513" cy="134.899" r="1.93" fill="#ffe082" stroke="#464646" stroke-width="0.2"/>
<text x="53.513" y="135.81" font-size="2.62" text-anchor="middle" fill="#141414">38</text>
<circle cx="94.172" cy="172.462" r="1.93" fill="#ffe082" stroke="#464646" stroke-width="0.2"/>
<text x="94.172" y="173.38" font-size="2.62" text-anchor="middle" fill="#141414">39</text>
<circle cx="12.854" cy="126.013" r="1.93" fill="#ffe082" stroke="#464646" stroke-width="0.2"/>
<text x="12.854" y="126.93" font-size="2.62" text-anchor="middle" fill="#141414">40</text>
<circle cx="78.286" cy="188.348" r="1.93" fill="#ffe082" stroke="#464646" stroke-width="0.2"/>
<text x="78.286" y="189.26" font-size="2.62" text-anchor="middle" fill="#141414">41</text>
<circle cx="118.945" cy="149.237" r="1.93" fill="#ffe082" stroke="#464646" stroke-width="0.2"/>
<text x="118.945" y="150.15" font-size="2.62" text-anchor="middle" fill="#141414">42</text>
<circle cx="82.415" cy="176.591" r="4.60" fill="#eaf1fe" stroke="#2e78e6" stroke-width="0.3"/>
<text x="82.415" y="178.39" font-size="5.20" text-anchor="middle" fill="#14306e" font-weight="bold">6</text>
<polygon points="83.855,240.832 78.745,247.832 54.901,247.832 49.792,240.832" fill="rgb(216,216,216)"/>
<polygon points="83.855,228.911 88.964,221.911 112.808,221.911 117.917,228.911" fill="rgb(216,216,216)"/>
<polygon points="83.855,228.911 78.745,221.911 54.901,221.911 49.792,228.911" fill="rgb(216,216,216)"/>
<polygon points="117.917,240.832 124.917,245.942 124.917,269.785 117.917,274.895" fill="rgb(216,216,216)"/>
<polygon points="15.73,194.848 8.73,199.957 8.73,223.801 15.73,228.911" fill="rgb(216,216,216)"/>
<polygon points="83.855,274.895 88.964,281.895 112.808,281.895 117.917,274.895" fill="rgb(216,216,216)"/>
<polygon points="151.98,240.832 157.94,239.044 157.94,230.699 151.98,228.911" fill="rgb(216,216,216)"/>
<polygon points="83.855,240.832 78.745,247.832 54.901,247.832 49.792,240.832" fill="#99d9fa"/>
<line x1="83.855" y1="240.832" x2="83.855" y2="228.911" stroke="#8c8c8c" stroke-width="0.3" stroke-dasharray="1.2,0.8"/>
<line x1="117.917" y1="240.832" x2="83.855" y2="240.832" stroke="#8c8c8c" stroke-width="0.3" stroke-dasharray="1.2,0.8"/>
<line x1="117.917" y1="228.911" x2="117.917" y2="240.832" stroke="#8c8c8c" stroke-width="0.3" stroke-dasharray="1.2,0.8"/>
<line x1="49.792" y1="240.832" x2="49.792" y2="228.911" stroke="#8c8c8c" stroke-width="0.3" stroke-dasharray="1.2,0.8"/>
<line x1="49.792" y1="228.911" x2="15.73" y2="228.911" stroke="#8c8c8c" stroke-width="0.3" stroke-dasharray="1.2,0.8"/>
<line x1="49.792" y1="240.832" x2="83.855" y2="240.832" stroke="#8c8c8c" stroke-width="0.3" stroke-dasharray="1.2,0.8"/>
<line x1="117.917" y1="228.911" x2="83.855" y2="228.911" stroke="#8c8c8c" stroke-width="0.3" stroke-dasharray="1.2,0.8"/>
<line x1="49.792" y1="228.911" x2="83.855" y2="228.911" stroke="#8c8c8c" stroke-width="0.3" stroke-dasharray="1.2,0.8"/>
<line x1="117.917" y1="274.895" x2="117.917" y2="240.832" stroke="#8c8c8c" stroke-width="0.3" stroke-dasharray="1.2,0.8"/>
<line x1="15.73" y1="228.911" x2="15.73" y2="194.848" stroke="#8c8c8c" stroke-width="0.3" stroke-dasharray="1.2,0.8"/>
<line x1="117.917" y1="274.895" x2="83.855" y2="274.895" stroke="#8c8c8c" stroke-width="0.3" stroke-dasharray="1.2,0.8"/>
<line x1="151.98" y1="228.911" x2="151.98" y2="240.832" stroke="#8c8c8c" stroke-width="0.3" stroke-dasharray="1.2,0.8"/>
<line x1="83.855" y1="274.895" x2="83.855" y2="240.832" stroke="#141414" stroke-width="0.4"/>
<line x1="15.73" y1="194.848" x2="49.792" y2="194.848" stroke="#141414" stroke-width="0.4"/>
<line x1="49.792" y1="194.848" x2="49.792" y2="228.911" stroke="#141414" stroke-width="0.4"/>
<line x1="151.98" y1="240.832" x2="117.917" y2="240.832" stroke="#141414" stroke-width="0.4"/>
<line x1="117.917" y1="228.911" x2="151.98" y2="228.911" stroke="#141414" stroke-width="0.4"/>
<line x1="49.792" y1="240.832" x2="15.73" y2="240.832" stroke="#141414" stroke-width="0.4"/>
<line x1="15.73" y1="240.832" x2="15.73" y2="228.911" stroke="#141414" stroke-width="0.4"/>
<line x1="83.855" y1="240.832" x2="78.745" y2="247.832" stroke="#141414" stroke-width="0.4"/>
<line x1="78.745" y1="247.832" x2="54.901" y2="247.832" stroke="#141414" stroke-width="0.4"/>
<line x1="54.901" y1="247.832" x2="49.792" y2="240.832" stroke="#141414" stroke-width="0.4"/>
<line x1="83.855" y1="228.911" x2="88.964" y2="221.911" stroke="#141414" stroke-width="0.4"/>
<line x1="88.964" y1="221.911" x2="112.808" y2="221.911" stroke="#141414" stroke-width="0.4"/>
<line x1="112.808" y1="221.911" x2="117.917" y2="228.911" stroke="#141414" stroke-width="0.4"/>
<line x1="83.855" y1="228.911" x2="78.745" y2="221.911" stroke="#141414" stroke-width="0.4"/>
<line x1="78.745" y1="221.911" x2="54.901" y2="221.911" stroke="#141414" stroke-width="0.4"/>
<line x1="54.901" y1="221.911" x2="49.792" y2="228.911" stroke="#141414" stroke-width="0.4"/>
<line x1="117.917" y1="240.832" x2="124.917" y2="245.942" stroke="#141414" stroke-width="0.4"/>
<line x1="124.917" y1="245.942" x2="124.917" y2="269.785" stroke="#141414" stroke-width="0.4"/>
<line x1="124.917" y1="269.785" x2="117.917" y2="274.895" stroke="#141414" stroke-width="0.4"/>
<line x1="15.73" y1="194.848" x2="8.73" y2="199.957" stroke="#141414" stroke-width="0.4"/>
<line x1="8.73" y1="199.957" x2="8.73" y2="223.801" stroke="#141414" stroke-width="0.4"/>
<line x1="8.73" y1="223.801" x2="15.73" y2="228.911" stroke="#141414" stroke-width="0.4"/>
<line x1="83.855" y1="274.895" x2="88.964" y2="281.895" stroke="#141414" stroke-width="0.4"/>
<line x1="88.964" y1="281.895" x2="112.808" y2="281.895" stroke="#141414" stroke-width="0.4"/>
<line x1="112.808" y1="281.895" x2="117.917" y2="274.895" stroke="#141414" stroke-width="0.4"/>
<line x1="151.98" y1="240.832" x2="157.94" y2="239.044" stroke="#141414" stroke-width="0.4"/>
<line x1="157.94" y1="239.044" x2="157.94" y2="230.699" stroke="#141414" stroke-width="0.4"/>
<line x1="157.94" y1="230.699" x2="151.98" y2="228.911" stroke="#141414" stroke-width="0.4"/>
<circle cx="66.823" cy="244.332" r="1.93" fill="#99d9fa" stroke="#464646" stroke-width="0.2"/>
<text x="66.823" y="245.25" font-size="2.62" text-anchor="middle" fill="#141414">43</text>
<circle cx="100.886" cy="225.411" r="1.93" fill="#ffe082" stroke="#464646" stroke-width="0.2"/>
<text x="100.886" y="226.33" font-size="2.62" text-anchor="middle" fill="#141414">44</text>
<circle cx="66.823" cy="225.411" r="1.93" fill="#ffe082" stroke="#464646" stroke-width="0.2"/>
<text x="66.823" y="226.33" font-size="2.62" text-anchor="middle" fill="#141414">45</text>
<circle cx="121.417" cy="257.864" r="1.93" fill="#ffe082" stroke="#464646" stroke-width="0.2"/>
<text x="121.417" y="258.78" font-size="2.62" text-anchor="middle" fill="#141414">46</text>
<circle cx="12.23" cy="211.879" r="1.93" fill="#ffe082" stroke="#464646" stroke-width="0.2"/>
<text x="12.23" y="212.79" font-size="2.62" text-anchor="middle" fill="#141414">47</text>
<circle cx="100.886" cy="278.395" r="1.93" fill="#ffe082" stroke="#464646" stroke-width="0.2"/>
<text x="100.886" y="279.31" font-size="2.62" text-anchor="middle" fill="#141414">48</text>
<circle cx="154.96" cy="234.871" r="1.93" fill="#ffe082" stroke="#464646" stroke-width="0.2"/>
<text x="154.96" y="235.79" font-size="2.62" text-anchor="middle" fill="#141414">49</text>
<circle cx="106.563" cy="263.541" r="4.60" fill="#eaf1fe" stroke="#2e78e6" stroke-width="0.3"/>
<text x="106.563" y="265.34" font-size="5.20" text-anchor="middle" fill="#14306e" font-weight="bold">7</text>
<text x="205.0" y="295.0" font-size="3.2" text-anchor="end" fill="#737373" font-family="sans-serif">4 / 4</text>
<g pointer-events="none"><text x="105.0" y="83.2" text-anchor="middle" font-family="sans-serif" font-size="12.4" fill="#9aa0a6" fill-opacity="0.3" transform="rotate(-28 105.0 83.2)">papercraft.kr</text><text x="105.0" y="148.5" text-anchor="middle" font-family="sans-serif" font-size="12.4" fill="#9aa0a6" fill-opacity="0.3" transform="rotate(-28 105.0 148.5)">papercraft.kr</text><text x="105.0" y="213.8" text-anchor="middle" font-family="sans-serif" font-size="12.4" fill="#9aa0a6" fill-opacity="0.3" transform="rotate(-28 105.0 213.8)">papercraft.kr</text></g></svg>
