<svg xmlns="http://www.w3.org/2000/svg" xmlns:xlink="http://www.w3.org/1999/xlink" width="210.00mm" height="297.00mm" viewBox="0 0 210.00 297.00">
<rect x="0" y="0" width="210.00" height="297.00" fill="#ffffff" stroke="#cccccc" stroke-width="0.2"/>
<polygon points="33.936,202.498 28.199,191.974 25.663,141.638 30.313,130.59" fill="rgb(216,216,216)"/>
<polygon points="33.936,202.498 40.661,203.297 55.373,189.39 54.953,182.631" fill="rgb(216,216,216)"/>
<polygon points="5.0,88.706 24.577,91.057 49.662,87.333 67.712,79.397" fill="rgb(216,216,216)"/>
<polygon points="54.953,182.631 61.286,175.611 66.853,139.182 62.906,130.59" fill="rgb(216,216,216)"/>
<polygon points="14.335,60.161 10.996,51.499 19.063,16.535 25.858,10.211" fill="rgb(216,216,216)"/>
<polygon points="81.889,142.196 88.37,140.829 96.865,123.677 94.025,117.694" fill="rgb(216,216,216)"/>
<polygon points="53.05,43.288 64.16,41.579 67.753,42.803 75.509,50.939" fill="rgb(216,216,216)"/>
<polygon points="95.003,78.058 102.156,75.208 126.94,84.602 130.408,91.477" fill="rgb(216,216,216)"/>
<polygon points="53.05,43.288 64.16,41.579 67.753,42.803 75.509,50.939" fill="#99d9fa"/>
<line x1="54.953" y1="182.631" x2="30.313" y2="130.59" stroke="#8c8c8c" stroke-width="0.3" stroke-dasharray="1.2,0.8"/>
<line x1="30.313" y1="130.59" x2="94.025" y2="117.694" stroke="#8c8c8c" stroke-width="0.3" stroke-dasharray="1.2,0.8"/>
<line x1="53.05" y1="43.288" x2="5.0" y2="88.706" stroke="#8c8c8c" stroke-width="0.3" stroke-dasharray="1.2,0.8"/>
<line x1="14.335" y1="60.16" x2="53.05" y2="43.288" stroke="#8c8c8c" stroke-width="0.3" stroke-dasharray="1.2,0.8"/>
<line x1="67.712" y1="79.397" x2="94.025" y2="117.694" stroke="#8c8c8c" stroke-width="0.3" stroke-dasharray="1.2,0.8"/>
<line x1="94.025" y1="117.694" x2="95.003" y2="78.058" stroke="#8c8c8c" stroke-width="0.3" stroke-dasharray="1.2,0.8"/>
<line x1="130.408" y1="91.477" x2="94.025" y2="117.694" stroke="#8c8c8c" stroke-width="0.3" stroke-dasharray="1.2,0.8"/>
<line x1="53.05" y1="43.288" x2="25.858" y2="10.211" stroke="#8c8c8c" stroke-width="0.3" stroke-dasharray="1.2,0.8"/>
<line x1="67.712" y1="79.397" x2="53.05" y2="43.288" stroke="#8c8c8c" stroke-width="0.3" stroke-dasharray="1.2,0.8"/>
<line x1="75.509" y1="50.939" x2="67.712" y2="79.397" stroke="#8c8c8c" stroke-width="0.3" stroke-dasharray="1.2,0.8"/>
<line x1="67.712" y1="79.397" x2="95.003" y2="78.058" stroke="#8c8c8c" stroke-width="0.3" stroke-dasharray="1.2,0.8"/>
<line x1="42.411" y1="5.0" x2="53.05" y2="43.288" stroke="#8c8c8c" stroke-width="0.3" stroke-dasharray="1.2,0.8"/>
<line x1="30.313" y1="130.59" x2="62.906" y2="130.59" stroke="#8c8c8c" stroke-width="0.3" stroke-dasharray="1.2,0.8"/>
<line x1="62.906" y1="130.59" x2="94.025" y2="117.694" stroke="#8c8c8c" stroke-width="0.3" stroke-dasharray="1.2,0.8"/>
<line x1="94.025" y1="117.694" x2="135.089" y2="107.295" stroke="#8c8c8c" stroke-width="0.3" stroke-dasharray="1.2,0.8"/>
<line x1="30.313" y1="130.59" x2="33.936" y2="202.498" stroke="#8c8c8c" stroke-width="0.3" stroke-dasharray="1.2,0.8"/>
<line x1="54.953" y1="182.631" x2="33.936" y2="202.498" stroke="#8c8c8c" stroke-width="0.3" stroke-dasharray="1.2,0.8"/>
<line x1="67.712" y1="79.397" x2="5.0" y2="88.706" stroke="#8c8c8c" stroke-width="0.3" stroke-dasharray="1.2,0.8"/>
<line x1="62.906" y1="130.59" x2="54.953" y2="182.631" stroke="#8c8c8c" stroke-width="0.3" stroke-dasharray="1.2,0.8"/>
<line x1="25.858" y1="10.211" x2="14.335" y2="60.161" stroke="#8c8c8c" stroke-width="0.3" stroke-dasharray="1.2,0.8"/>
<line x1="94.025" y1="117.694" x2="81.889" y2="142.196" stroke="#8c8c8c" stroke-width="0.3" stroke-dasharray="1.2,0.8"/>
<line x1="75.509" y1="50.939" x2="53.05" y2="43.288" stroke="#8c8c8c" stroke-width="0.3" stroke-dasharray="1.2,0.8"/>
<line x1="130.408" y1="91.477" x2="95.003" y2="78.058" stroke="#8c8c8c" stroke-width="0.3" stroke-dasharray="1.2,0.8"/>
<line x1="5.0" y1="88.706" x2="14.335" y2="60.16" stroke="#141414" stroke-width="0.4"/>
<line x1="30.313" y1="130.59" x2="67.712" y2="79.397" stroke="#141414" stroke-width="0.4"/>
<line x1="81.889" y1="142.196" x2="62.906" y2="130.59" stroke="#141414" stroke-width="0.4"/>
<line x1="113.244" y1="135.883" x2="94.025" y2="117.694" stroke="#141414" stroke-width="0.4"/>
<line x1="135.089" y1="107.295" x2="113.244" y2="135.883" stroke="#141414" stroke-width="0.4"/>
<line x1="25.858" y1="10.211" x2="42.411" y2="5.0" stroke="#141414" stroke-width="0.4"/>
<line x1="72.563" y1="29.791" x2="53.05" y2="43.288" stroke="#141414" stroke-width="0.4"/>
<line x1="130.408" y1="91.477" x2="135.089" y2="107.295" stroke="#141414" stroke-width="0.4"/>
<line x1="75.509" y1="50.939" x2="95.003" y2="78.058" stroke="#141414" stroke-width="0.4"/>
<line x1="42.411" y1="5.0" x2="72.563" y2="29.791" stroke="#141414" stroke-width="0.4"/>
<line x1="33.936" y1="202.498" x2="28.199" y2="191.974" stroke="#141414" stroke-width="0.4"/>
<line x1="28.199" y1="191.974" x2="25.663" y2="141.638" stroke="#141414" stroke-width="0.4"/>
<line x1="25.663" y1="141.638" x2="30.313" y2="130.59" stroke="#141414" stroke-width="0.4"/>
<line x1="33.936" y1="202.498" x2="40.661" y2="203.297" stroke="#141414" stroke-width="0.4"/>
<line x1="40.661" y1="203.297" x2="55.373" y2="189.39" stroke="#141414" stroke-width="0.4"/>
<line x1="55.373" y1="189.39" x2="54.953" y2="182.631" stroke="#141414" stroke-width="0.4"/>
<line x1="5.0" y1="88.706" x2="24.577" y2="91.057" stroke="#141414" stroke-width="0.4"/>
<line x1="24.577" y1="91.057" x2="49.662" y2="87.333" stroke="#141414" stroke-width="0.4"/>
<line x1="49.662" y1="87.333" x2="67.712" y2="79.397" stroke="#141414" stroke-width="0.4"/>
<line x1="54.953" y1="182.631" x2="61.286" y2="175.611" stroke="#141414" stroke-width="0.4"/>
<line x1="61.286" y1="175.611" x2="66.853" y2="139.182" stroke="#141414" stroke-width="0.4"/>
<line x1="66.853" y1="139.182" x2="62.906" y2="130.59" stroke="#141414" stroke-width="0.4"/>
<line x1="14.335" y1="60.161" x2="10.996" y2="51.499" stroke="#141414" stroke-width="0.4"/>
<line x1="10.996" y1="51.499" x2="19.063" y2="16.535" stroke="#141414" stroke-width="0.4"/>
<line x1="19.063" y1="16.535" x2="25.858" y2="10.211" stroke="#141414" stroke-width="0.4"/>
<line x1="81.889" y1="142.196" x2="88.37" y2="140.829" stroke="#141414" stroke-width="0.4"/>
<line x1="88.37" y1="140.829" x2="96.865" y2="123.677" stroke="#141414" stroke-width="0.4"/>
<line x1="96.865" y1="123.677" x2="94.025" y2="117.694" stroke="#141414" stroke-width="0.4"/>
<line x1="53.05" y1="43.288" x2="64.16" y2="41.579" stroke="#141414" stroke-width="0.4"/>
<line x1="64.16" y1="41.579" x2="67.753" y2="42.803" stroke="#141414" stroke-width="0.4"/>
<line x1="67.753" y1="42.803" x2="75.509" y2="50.939" stroke="#141414" stroke-width="0.4"/>
<line x1="95.003" y1="78.058" x2="102.156" y2="75.208" stroke="#141414" stroke-width="0.4"/>
<line x1="102.156" y1="75.208" x2="126.94" y2="84.602" stroke="#141414" stroke-width="0.4"/>
<line x1="126.94" y1="84.602" x2="130.408" y2="91.477" stroke="#141414" stroke-width="0.4"/>
<circle cx="29.528" cy="166.675" r="0.97" fill="#ffe082" stroke="#464646" stroke-width="0.2"/>
<text x="29.528" y="167.14" font-size="1.32" text-anchor="middle" fill="#141414">1</text>
<circle cx="46.231" cy="194.454" r="0.97" fill="#ffe082" stroke="#464646" stroke-width="0.2"/>
<text x="46.231" y="194.92" font-size="1.32" text-anchor="middle" fill="#141414">2</text>
<circle cx="36.738" cy="86.623" r="0.97" fill="#ffe082" stroke="#464646" stroke-width="0.2"/>
<text x="36.738" y="87.09" font-size="1.32" text-anchor="middle" fill="#141414">11</text>
<circle cx="61.5" cy="157.003" r="0.97" fill="#ffe082" stroke="#464646" stroke-width="0.2"/>
<text x="61.5" y="157.47" font-size="1.32" text-anchor="middle" fill="#141414">12</text>
<circle cx="17.563" cy="34.602" r="0.97" fill="#ffe082" stroke="#464646" stroke-width="0.2"/>
<text x="17.563" y="35.06" font-size="1.32" text-anchor="middle" fill="#141414">15</text>
<circle cx="90.287" cy="131.099" r="0.97" fill="#ffe082" stroke="#464646" stroke-width="0.2"/>
<text x="90.287" y="131.56" font-size="1.32" text-anchor="middle" fill="#141414">16</text>
<circle cx="65.118" cy="44.653" r="0.97" fill="#99d9fa" stroke="#464646" stroke-width="0.2"/>
<text x="65.118" y="45.12" font-size="1.32" text-anchor="middle" fill="#141414">20</text>
<circle cx="113.627" cy="82.336" r="0.97" fill="#ffe082" stroke="#464646" stroke-width="0.2"/>
<text x="113.627" y="82.80" font-size="1.32" text-anchor="middle" fill="#141414">26</text>
<circle cx="31.081" cy="37.887" r="4.60" fill="#eaf1fe" stroke="#2e78e6" stroke-width="0.3"/>
<text x="31.081" y="39.69" font-size="5.20" text-anchor="middle" fill="#14306e" font-weight="bold">9</text>
<text x="205.0" y="295.0" font-size="3.2" text-anchor="end" fill="#737373" font-family="sans-serif">6 / 8</text>
<g pointer-events="none"><text x="105.0" y="83.2" text-anchor="middle" font-family="sans-serif" font-size="12.4" fill="#9aa0a6" fill-opacity="0.3" transform="rotate(-28 105.0 83.2)">papercraft.kr</text><text x="105.0" y="148.5" text-anchor="middle" font-family="sans-serif" font-size="12.4" fill="#9aa0a6" fill-opacity="0.3" transform="rotate(-28 105.0 148.5)">papercraft.kr</text><text x="105.0" y="213.8" text-anchor="middle" font-family="sans-serif" font-size="12.4" fill="#9aa0a6" fill-opacity="0.3" transform="rotate(-28 105.0 213.8)">papercraft.kr</text></g></svg>
