<svg xmlns="http://www.w3.org/2000/svg" xmlns:xlink="http://www.w3.org/1999/xlink" width="210.00mm" height="297.00mm" viewBox="0 0 210.00 297.00">
<rect x="0" y="0" width="210.00" height="297.00" fill="#ffffff" stroke="#cccccc" stroke-width="0.2"/>
<polygon points="61.496,253.679 65.785,245.625 61.697,210.872 55.656,204.032" fill="rgb(216,216,216)"/>
<polygon points="61.496,253.679 57.484,261.593 27.652,276.95 18.879,275.617" fill="rgb(216,216,216)"/>
<polygon points="140.268,154.186 136.313,163.062 104.418,184.275 94.704,184.491" fill="rgb(216,216,216)"/>
<polygon points="140.268,154.186 146.834,151.568 154.809,130.691 151.66,124.362" fill="rgb(216,216,216)"/>
<polygon points="47.464,163.788 51.409,154.744 83.607,132.51 93.461,132.024" fill="rgb(216,216,216)"/>
<polygon points="47.464,163.788 38.628,169.005 18.618,205.116 18.879,215.374" fill="rgb(216,216,216)"/>
<polygon points="93.461,132.024 90.587,112.351 101.268,23.433 108.719,5.0" fill="rgb(216,216,216)"/>
<polygon points="18.879,215.374 13.679,224.411 13.679,266.581 18.879,275.617" fill="rgb(216,216,216)"/>
<polygon points="108.719,5.0 120.053,21.144 150.112,104.698 151.66,124.362" fill="rgb(216,216,216)"/>
<line x1="18.879" y1="215.374" x2="61.496" y2="253.679" stroke="#8c8c8c" stroke-width="0.3" stroke-dasharray="1.2,0.8"/>
<line x1="47.464" y1="163.788" x2="55.657" y2="204.032" stroke="#8c8c8c" stroke-width="0.3" stroke-dasharray="1.2,0.8"/>
<line x1="18.879" y1="215.374" x2="55.657" y2="204.032" stroke="#8c8c8c" stroke-width="0.3" stroke-dasharray="1.2,0.8"/>
<line x1="140.268" y1="154.186" x2="93.461" y2="132.024" stroke="#8c8c8c" stroke-width="0.3" stroke-dasharray="1.2,0.8"/>
<line x1="47.464" y1="163.788" x2="94.704" y2="184.491" stroke="#8c8c8c" stroke-width="0.3" stroke-dasharray="1.2,0.8"/>
<line x1="94.704" y1="184.491" x2="93.461" y2="132.024" stroke="#8c8c8c" stroke-width="0.3" stroke-dasharray="1.2,0.8"/>
<line x1="93.461" y1="132.024" x2="151.66" y2="124.362" stroke="#8c8c8c" stroke-width="0.3" stroke-dasharray="1.2,0.8"/>
<line x1="55.656" y1="204.032" x2="61.496" y2="253.679" stroke="#8c8c8c" stroke-width="0.3" stroke-dasharray="1.2,0.8"/>
<line x1="18.879" y1="275.617" x2="61.496" y2="253.679" stroke="#8c8c8c" stroke-width="0.3" stroke-dasharray="1.2,0.8"/>
<line x1="94.704" y1="184.491" x2="140.268" y2="154.186" stroke="#8c8c8c" stroke-width="0.3" stroke-dasharray="1.2,0.8"/>
<line x1="151.66" y1="124.362" x2="140.268" y2="154.186" stroke="#8c8c8c" stroke-width="0.3" stroke-dasharray="1.2,0.8"/>
<line x1="93.461" y1="132.024" x2="47.464" y2="163.788" stroke="#8c8c8c" stroke-width="0.3" stroke-dasharray="1.2,0.8"/>
<line x1="18.879" y1="215.374" x2="47.464" y2="163.788" stroke="#8c8c8c" stroke-width="0.3" stroke-dasharray="1.2,0.8"/>
<line x1="108.719" y1="5.0" x2="93.461" y2="132.024" stroke="#8c8c8c" stroke-width="0.3" stroke-dasharray="1.2,0.8"/>
<line x1="18.879" y1="275.617" x2="18.879" y2="215.374" stroke="#8c8c8c" stroke-width="0.3" stroke-dasharray="1.2,0.8"/>
<line x1="151.66" y1="124.362" x2="108.719" y2="5.0" stroke="#8c8c8c" stroke-width="0.3" stroke-dasharray="1.2,0.8"/>
<line x1="94.704" y1="184.491" x2="55.657" y2="204.032" stroke="#141414" stroke-width="0.4"/>
<line x1="61.496" y1="253.679" x2="65.785" y2="245.625" stroke="#141414" stroke-width="0.4"/>
<line x1="65.785" y1="245.625" x2="61.697" y2="210.872" stroke="#141414" stroke-width="0.4"/>
<line x1="61.697" y1="210.872" x2="55.656" y2="204.032" stroke="#141414" stroke-width="0.4"/>
<line x1="61.496" y1="253.679" x2="57.484" y2="261.593" stroke="#141414" stroke-width="0.4"/>
<line x1="57.484" y1="261.593" x2="27.652" y2="276.95" stroke="#141414" stroke-width="0.4"/>
<line x1="27.652" y1="276.95" x2="18.879" y2="275.617" stroke="#141414" stroke-width="0.4"/>
<line x1="140.268" y1="154.186" x2="136.313" y2="163.062" stroke="#141414" stroke-width="0.4"/>
<line x1="136.313" y1="163.062" x2="104.418" y2="184.275" stroke="#141414" stroke-width="0.4"/>
<line x1="104.418" y1="184.275" x2="94.704" y2="184.491" stroke="#141414" stroke-width="0.4"/>
<line x1="140.268" y1="154.186" x2="146.834" y2="151.568" stroke="#141414" stroke-width="0.4"/>
<line x1="146.834" y1="151.568" x2="154.809" y2="130.691" stroke="#141414" stroke-width="0.4"/>
<line x1="154.809" y1="130.691" x2="151.66" y2="124.362" stroke="#141414" stroke-width="0.4"/>
<line x1="47.464" y1="163.788" x2="51.409" y2="154.744" stroke="#141414" stroke-width="0.4"/>
<line x1="51.409" y1="154.744" x2="83.607" y2="132.51" stroke="#141414" stroke-width="0.4"/>
<line x1="83.607" y1="132.51" x2="93.461" y2="132.024" stroke="#141414" stroke-width="0.4"/>
<line x1="47.464" y1="163.788" x2="38.628" y2="169.005" stroke="#141414" stroke-width="0.4"/>
<line x1="38.628" y1="169.005" x2="18.618" y2="205.116" stroke="#141414" stroke-width="0.4"/>
<line x1="18.618" y1="205.116" x2="18.879" y2="215.374" stroke="#141414" stroke-width="0.4"/>
<line x1="93.461" y1="132.024" x2="90.587" y2="112.351" stroke="#141414" stroke-width="0.4"/>
<line x1="90.587" y1="112.351" x2="101.268" y2="23.433" stroke="#141414" stroke-width="0.4"/>
<line x1="101.268" y1="23.433" x2="108.719" y2="5.0" stroke="#141414" stroke-width="0.4"/>
<line x1="18.879" y1="215.374" x2="13.679" y2="224.411" stroke="#141414" stroke-width="0.4"/>
<line x1="13.679" y1="224.411" x2="13.679" y2="266.581" stroke="#141414" stroke-width="0.4"/>
<line x1="13.679" y1="266.581" x2="18.879" y2="275.617" stroke="#141414" stroke-width="0.4"/>
<line x1="108.719" y1="5.0" x2="120.053" y2="21.144" stroke="#141414" stroke-width="0.4"/>
<line x1="120.053" y1="21.144" x2="150.112" y2="104.698" stroke="#141414" stroke-width="0.4"/>
<line x1="150.112" y1="104.698" x2="151.66" y2="124.362" stroke="#141414" stroke-width="0.4"/>
<circle cx="61.159" cy="228.552" r="2.29" fill="#ffe082" stroke="#464646" stroke-width="0.2"/>
<text x="61.159" y="229.64" font-size="3.11" text-anchor="middle" fill="#141414">42</text>
<circle cx="41.378" cy="266.96" r="2.29" fill="#ffe082" stroke="#464646" stroke-width="0.2"/>
<text x="41.378" y="268.05" font-size="3.11" text-anchor="middle" fill="#141414">43</text>
<circle cx="118.926" cy="171.504" r="2.29" fill="#ffe082" stroke="#464646" stroke-width="0.2"/>
<text x="118.926" y="172.59" font-size="3.11" text-anchor="middle" fill="#141414">47</text>
<circle cx="148.393" cy="140.202" r="2.29" fill="#ffe082" stroke="#464646" stroke-width="0.2"/>
<text x="148.393" y="141.29" font-size="3.11" text-anchor="middle" fill="#141414">48</text>
<circle cx="68.985" cy="145.767" r="2.29" fill="#ffe082" stroke="#464646" stroke-width="0.2"/>
<text x="68.985" y="146.85" font-size="3.11" text-anchor="middle" fill="#141414">52</text>
<circle cx="30.897" cy="188.321" r="2.29" fill="#ffe082" stroke="#464646" stroke-width="0.2"/>
<text x="30.897" y="189.41" font-size="3.11" text-anchor="middle" fill="#141414">53</text>
<circle cx="98.509" cy="68.202" r="2.29" fill="#ffe082" stroke="#464646" stroke-width="0.2"/>
<text x="98.509" y="69.29" font-size="3.11" text-anchor="middle" fill="#141414">55</text>
<circle cx="16.279" cy="245.496" r="2.29" fill="#ffe082" stroke="#464646" stroke-width="0.2"/>
<text x="16.279" y="246.58" font-size="3.11" text-anchor="middle" fill="#141414">56</text>
<circle cx="132.636" cy="63.801" r="2.29" fill="#ffe082" stroke="#464646" stroke-width="0.2"/>
<text x="132.636" y="64.89" font-size="3.11" text-anchor="middle" fill="#141414">59</text>
<circle cx="75.565" cy="283.05" r="4.6" fill="#eaf1fe" stroke="#2e78e6" stroke-width="0.3"/>
<text x="75.565" y="284.85" font-size="5.2" text-anchor="middle" fill="#14306e" font-weight="bold">2</text>
<g pointer-events="none"><text x="105.0" y="89.1" text-anchor="middle" font-family="sans-serif" font-size="21.2" fill="#9aa0a6" fill-opacity="0.33" transform="rotate(-28 105.0 89.1)">papercraft.kr 미리보기</text><text x="105.0" y="163.4" text-anchor="middle" font-family="sans-serif" font-size="21.2" fill="#9aa0a6" fill-opacity="0.33" transform="rotate(-28 105.0 163.4)">papercraft.kr 미리보기</text><text x="105.0" y="237.6" text-anchor="middle" font-family="sans-serif" font-size="21.2" fill="#9aa0a6" fill-opacity="0.33" transform="rotate(-28 105.0 237.6)">papercraft.kr 미리보기</text></g></svg>
