<svg xmlns="http://www.w3.org/2000/svg" xmlns:xlink="http://www.w3.org/1999/xlink" width="210.00mm" height="297.00mm" viewBox="0 0 210.00 297.00">
<rect x="0" y="0" width="210.00" height="297.00" fill="#ffffff" stroke="#cccccc" stroke-width="0.2"/>
<polygon points="5.0,157.248 15.544,161.139 61.668,155.226 70.89,148.802" fill="rgb(216,216,216)"/>
<polygon points="57.87,113.33 57.555,112.31 42.237,54.264 39.572,53.969" fill="rgb(216,216,216)"/>
<polygon points="42.144,53.236 55.148,53.464 105.746,76.6 114.426,86.286" fill="rgb(216,216,216)"/>
<polygon points="147.001,115.025 152.831,103.431 155.805,48.024 151.25,35.872" fill="rgb(216,216,216)"/>
<line x1="12.84" y1="113.33" x2="57.87" y2="113.33" stroke="#8c8c8c" stroke-width="0.3" stroke-dasharray="1.2,0.8"/>
<line x1="70.89" y1="148.802" x2="12.84" y2="113.33" stroke="#8c8c8c" stroke-width="0.3" stroke-dasharray="1.2,0.8"/>
<line x1="57.87" y1="113.33" x2="70.89" y2="148.802" stroke="#8c8c8c" stroke-width="0.3" stroke-dasharray="1.2,0.8"/>
<line x1="114.426" y1="86.286" x2="147.002" y2="115.025" stroke="#8c8c8c" stroke-width="0.3" stroke-dasharray="1.2,0.8"/>
<line x1="114.426" y1="86.286" x2="151.25" y2="35.872" stroke="#8c8c8c" stroke-width="0.3" stroke-dasharray="1.2,0.8"/>
<line x1="70.89" y1="148.802" x2="5.0" y2="157.248" stroke="#8c8c8c" stroke-width="0.3" stroke-dasharray="1.2,0.8"/>
<line x1="39.572" y1="53.969" x2="57.87" y2="113.33" stroke="#8c8c8c" stroke-width="0.3" stroke-dasharray="1.2,0.8"/>
<line x1="114.426" y1="86.286" x2="42.144" y2="53.236" stroke="#8c8c8c" stroke-width="0.3" stroke-dasharray="1.2,0.8"/>
<line x1="151.25" y1="35.872" x2="147.001" y2="115.025" stroke="#8c8c8c" stroke-width="0.3" stroke-dasharray="1.2,0.8"/>
<line x1="5.0" y1="157.248" x2="12.84" y2="113.33" stroke="#141414" stroke-width="0.4"/>
<line x1="12.84" y1="113.33" x2="39.572" y2="53.969" stroke="#141414" stroke-width="0.4"/>
<line x1="57.87" y1="113.33" x2="42.144" y2="53.236" stroke="#141414" stroke-width="0.4"/>
<line x1="147.002" y1="115.025" x2="70.89" y2="148.802" stroke="#141414" stroke-width="0.4"/>
<line x1="114.426" y1="86.286" x2="106.069" y2="5.0" stroke="#141414" stroke-width="0.4"/>
<line x1="106.069" y1="5.0" x2="151.25" y2="35.872" stroke="#141414" stroke-width="0.4"/>
<line x1="5.0" y1="157.248" x2="15.544" y2="161.139" stroke="#141414" stroke-width="0.4"/>
<line x1="15.544" y1="161.139" x2="61.668" y2="155.226" stroke="#141414" stroke-width="0.4"/>
<line x1="61.668" y1="155.226" x2="70.89" y2="148.802" stroke="#141414" stroke-width="0.4"/>
<line x1="57.87" y1="113.33" x2="57.555" y2="112.31" stroke="#141414" stroke-width="0.4"/>
<line x1="57.555" y1="112.31" x2="42.237" y2="54.264" stroke="#141414" stroke-width="0.4"/>
<line x1="42.237" y1="54.264" x2="39.572" y2="53.969" stroke="#141414" stroke-width="0.4"/>
<line x1="42.144" y1="53.236" x2="55.148" y2="53.464" stroke="#141414" stroke-width="0.4"/>
<line x1="55.148" y1="53.464" x2="105.746" y2="76.6" stroke="#141414" stroke-width="0.4"/>
<line x1="105.746" y1="76.6" x2="114.426" y2="86.286" stroke="#141414" stroke-width="0.4"/>
<line x1="147.001" y1="115.025" x2="152.831" y2="103.431" stroke="#141414" stroke-width="0.4"/>
<line x1="152.831" y1="103.431" x2="155.805" y2="48.024" stroke="#141414" stroke-width="0.4"/>
<line x1="155.805" y1="48.024" x2="151.25" y2="35.872" stroke="#141414" stroke-width="0.4"/>
<circle cx="38.275" cy="155.604" r="2.29" fill="#ffe082" stroke="#464646" stroke-width="0.2"/>
<text x="38.275" y="156.69" font-size="3.11" text-anchor="middle" fill="#141414">25</text>
<circle cx="79.366" cy="67.396" r="2.29" fill="#ffe082" stroke="#464646" stroke-width="0.2"/>
<text x="79.366" y="68.48" font-size="3.11" text-anchor="middle" fill="#141414">35</text>
<circle cx="151.722" cy="75.588" r="2.29" fill="#ffe082" stroke="#464646" stroke-width="0.2"/>
<text x="151.722" y="76.67" font-size="3.11" text-anchor="middle" fill="#141414">39</text>
<circle cx="80.403" cy="167.239" r="4.6" fill="#eaf1fe" stroke="#2e78e6" stroke-width="0.3"/>
<text x="80.403" y="169.03900000000002" font-size="5.2" text-anchor="middle" fill="#14306e" font-weight="bold">8</text>
<g pointer-events="none"><text x="105.0" y="89.1" text-anchor="middle" font-family="sans-serif" font-size="21.2" fill="#9aa0a6" fill-opacity="0.33" transform="rotate(-28 105.0 89.1)">papercraft.kr 미리보기</text><text x="105.0" y="163.4" text-anchor="middle" font-family="sans-serif" font-size="21.2" fill="#9aa0a6" fill-opacity="0.33" transform="rotate(-28 105.0 163.4)">papercraft.kr 미리보기</text><text x="105.0" y="237.6" text-anchor="middle" font-family="sans-serif" font-size="21.2" fill="#9aa0a6" fill-opacity="0.33" transform="rotate(-28 105.0 237.6)">papercraft.kr 미리보기</text></g></svg>
