<svg xmlns="http://www.w3.org/2000/svg" xmlns:xlink="http://www.w3.org/1999/xlink" width="210.00mm" height="297.00mm" viewBox="0 0 210.00 297.00">
<rect x="0" y="0" width="210.00" height="297.00" fill="#ffffff" stroke="#cccccc" stroke-width="0.2"/>
<polygon points="12.528,77.373 35.182,75.518 133.444,43.768 152.901,32.016" fill="rgb(216,216,216)"/>
<polygon points="5.0,18.879 20.127,13.679 90.721,13.679 105.848,18.879" fill="rgb(216,216,216)"/>
<line x1="152.901" y1="32.016" x2="12.528" y2="77.373" stroke="#8c8c8c" stroke-width="0.3" stroke-dasharray="1.2,0.8"/>
<line x1="105.848" y1="18.879" x2="5.0" y2="18.879" stroke="#8c8c8c" stroke-width="0.3" stroke-dasharray="1.2,0.8"/>
<line x1="12.528" y1="77.373" x2="5.0" y2="18.879" stroke="#141414" stroke-width="0.4"/>
<line x1="105.848" y1="18.879" x2="152.901" y2="32.017" stroke="#141414" stroke-width="0.4"/>
<line x1="12.528" y1="77.373" x2="35.182" y2="75.518" stroke="#141414" stroke-width="0.4"/>
<line x1="35.182" y1="75.518" x2="133.444" y2="43.768" stroke="#141414" stroke-width="0.4"/>
<line x1="133.444" y1="43.768" x2="152.901" y2="32.016" stroke="#141414" stroke-width="0.4"/>
<line x1="5.0" y1="18.879" x2="20.127" y2="13.679" stroke="#141414" stroke-width="0.4"/>
<line x1="20.127" y1="13.679" x2="90.721" y2="13.679" stroke="#141414" stroke-width="0.4"/>
<line x1="90.721" y1="13.679" x2="105.848" y2="18.879" stroke="#141414" stroke-width="0.4"/>
<circle cx="83.514" cy="57.169" r="2.29" fill="#ffe082" stroke="#464646" stroke-width="0.2"/>
<text x="83.514" y="58.26" font-size="3.11" text-anchor="middle" fill="#141414">54</text>
<circle cx="55.424" cy="16.279" r="2.29" fill="#ffe082" stroke="#464646" stroke-width="0.2"/>
<text x="55.424" y="17.37" font-size="3.11" text-anchor="middle" fill="#141414">57</text>
<circle cx="78.95" cy="74.794" r="4.6" fill="#eaf1fe" stroke="#2e78e6" stroke-width="0.3"/>
<text x="78.95" y="76.594" font-size="5.2" text-anchor="middle" fill="#14306e" font-weight="bold">10</text>
<polygon points="10.483,85.573 22.878,80.373 80.719,80.373 93.114,85.573" fill="rgb(216,216,216)"/>
<polygon points="10.483,85.573 12.56,99.842 43.388,154.507 54.523,163.667" fill="rgb(216,216,216)"/>
<polygon points="93.114,85.573 96.481,86.98 90.181,115.183 90.076,116.246" fill="rgb(216,216,216)"/>
<polygon points="96.866,86.18 111.471,94.327 161.807,148.814 168.774,164.018" fill="rgb(216,216,216)"/>
<polygon points="54.523,163.667 48.077,170.878 41.942,208.439 45.759,217.326" fill="rgb(216,216,216)"/>
<polygon points="45.759,217.326 53.317,225.406 96.437,240.152 107.36,238.391" fill="rgb(216,216,216)"/>
<polygon points="135.358,214.641 142.626,215.836 162.425,201.675 163.643,194.41" fill="rgb(216,216,216)"/>
<polygon points="135.358,214.641 134.522,222.169 114.923,238.794 107.36,238.391" fill="rgb(216,216,216)"/>
<line x1="93.114" y1="85.573" x2="54.523" y2="163.667" stroke="#8c8c8c" stroke-width="0.3" stroke-dasharray="1.2,0.8"/>
<line x1="90.076" y1="116.246" x2="54.523" y2="163.667" stroke="#8c8c8c" stroke-width="0.3" stroke-dasharray="1.2,0.8"/>
<line x1="168.774" y1="164.018" x2="90.076" y2="116.246" stroke="#8c8c8c" stroke-width="0.3" stroke-dasharray="1.2,0.8"/>
<line x1="135.358" y1="214.641" x2="90.076" y2="116.246" stroke="#8c8c8c" stroke-width="0.3" stroke-dasharray="1.2,0.8"/>
<line x1="135.358" y1="214.641" x2="54.523" y2="163.667" stroke="#8c8c8c" stroke-width="0.3" stroke-dasharray="1.2,0.8"/>
<line x1="54.523" y1="163.667" x2="107.36" y2="238.391" stroke="#8c8c8c" stroke-width="0.3" stroke-dasharray="1.2,0.8"/>
<line x1="168.774" y1="164.018" x2="135.358" y2="214.641" stroke="#8c8c8c" stroke-width="0.3" stroke-dasharray="1.2,0.8"/>
<line x1="93.114" y1="85.573" x2="10.483" y2="85.573" stroke="#8c8c8c" stroke-width="0.3" stroke-dasharray="1.2,0.8"/>
<line x1="54.523" y1="163.667" x2="10.483" y2="85.573" stroke="#8c8c8c" stroke-width="0.3" stroke-dasharray="1.2,0.8"/>
<line x1="90.076" y1="116.246" x2="93.114" y2="85.573" stroke="#8c8c8c" stroke-width="0.3" stroke-dasharray="1.2,0.8"/>
<line x1="168.774" y1="164.018" x2="96.866" y2="86.18" stroke="#8c8c8c" stroke-width="0.3" stroke-dasharray="1.2,0.8"/>
<line x1="45.759" y1="217.326" x2="54.523" y2="163.667" stroke="#8c8c8c" stroke-width="0.3" stroke-dasharray="1.2,0.8"/>
<line x1="107.36" y1="238.391" x2="45.759" y2="217.326" stroke="#8c8c8c" stroke-width="0.3" stroke-dasharray="1.2,0.8"/>
<line x1="163.643" y1="194.41" x2="135.358" y2="214.641" stroke="#8c8c8c" stroke-width="0.3" stroke-dasharray="1.2,0.8"/>
<line x1="107.36" y1="238.391" x2="135.358" y2="214.641" stroke="#8c8c8c" stroke-width="0.3" stroke-dasharray="1.2,0.8"/>
<line x1="90.076" y1="116.246" x2="96.866" y2="86.18" stroke="#141414" stroke-width="0.4"/>
<line x1="168.774" y1="164.018" x2="163.643" y2="194.411" stroke="#141414" stroke-width="0.4"/>
<line x1="10.483" y1="85.573" x2="22.878" y2="80.373" stroke="#141414" stroke-width="0.4"/>
<line x1="22.878" y1="80.373" x2="80.719" y2="80.373" stroke="#141414" stroke-width="0.4"/>
<line x1="80.719" y1="80.373" x2="93.114" y2="85.573" stroke="#141414" stroke-width="0.4"/>
<line x1="10.483" y1="85.573" x2="12.56" y2="99.842" stroke="#141414" stroke-width="0.4"/>
<line x1="12.56" y1="99.842" x2="43.388" y2="154.507" stroke="#141414" stroke-width="0.4"/>
<line x1="43.388" y1="154.507" x2="54.523" y2="163.667" stroke="#141414" stroke-width="0.4"/>
<line x1="93.114" y1="85.573" x2="96.481" y2="86.98" stroke="#141414" stroke-width="0.4"/>
<line x1="96.481" y1="86.98" x2="90.181" y2="115.183" stroke="#141414" stroke-width="0.4"/>
<line x1="90.181" y1="115.183" x2="90.076" y2="116.246" stroke="#141414" stroke-width="0.4"/>
<line x1="96.866" y1="86.18" x2="111.471" y2="94.327" stroke="#141414" stroke-width="0.4"/>
<line x1="111.471" y1="94.327" x2="161.807" y2="148.814" stroke="#141414" stroke-width="0.4"/>
<line x1="161.807" y1="148.814" x2="168.774" y2="164.018" stroke="#141414" stroke-width="0.4"/>
<line x1="54.523" y1="163.667" x2="48.077" y2="170.878" stroke="#141414" stroke-width="0.4"/>
<line x1="48.077" y1="170.878" x2="41.942" y2="208.439" stroke="#141414" stroke-width="0.4"/>
<line x1="41.942" y1="208.439" x2="45.759" y2="217.326" stroke="#141414" stroke-width="0.4"/>
<line x1="45.759" y1="217.326" x2="53.317" y2="225.406" stroke="#141414" stroke-width="0.4"/>
<line x1="53.317" y1="225.406" x2="96.437" y2="240.152" stroke="#141414" stroke-width="0.4"/>
<line x1="96.437" y1="240.152" x2="107.36" y2="238.391" stroke="#141414" stroke-width="0.4"/>
<line x1="135.358" y1="214.641" x2="142.626" y2="215.836" stroke="#141414" stroke-width="0.4"/>
<line x1="142.626" y1="215.836" x2="162.425" y2="201.675" stroke="#141414" stroke-width="0.4"/>
<line x1="162.425" y1="201.675" x2="163.643" y2="194.41" stroke="#141414" stroke-width="0.4"/>
<line x1="135.358" y1="214.641" x2="134.522" y2="222.169" stroke="#141414" stroke-width="0.4"/>
<line x1="134.522" y1="222.169" x2="114.923" y2="238.794" stroke="#141414" stroke-width="0.4"/>
<line x1="114.923" y1="238.794" x2="107.36" y2="238.391" stroke="#141414" stroke-width="0.4"/>
<circle cx="51.799" cy="82.973" r="2.29" fill="#ffe082" stroke="#464646" stroke-width="0.2"/>
<text x="51.799" y="84.06" font-size="3.11" text-anchor="middle" fill="#141414">1</text>
<circle cx="30.239" cy="125.897" r="2.29" fill="#ffe082" stroke="#464646" stroke-width="0.2"/>
<text x="30.239" y="126.98" font-size="3.11" text-anchor="middle" fill="#141414">2</text>
<circle cx="134.73" cy="123.335" r="2.29" fill="#ffe082" stroke="#464646" stroke-width="0.2"/>
<text x="134.73" y="124.42" font-size="3.11" text-anchor="middle" fill="#141414">6</text>
<circle cx="47.575" cy="190.077" r="2.29" fill="#ffe082" stroke="#464646" stroke-width="0.2"/>
<text x="47.575" y="191.16" font-size="3.11" text-anchor="middle" fill="#141414">7</text>
<circle cx="75.718" cy="230.319" r="2.29" fill="#ffe082" stroke="#464646" stroke-width="0.2"/>
<text x="75.718" y="231.41" font-size="3.11" text-anchor="middle" fill="#141414">16</text>
<circle cx="151.013" cy="206.641" r="2.29" fill="#ffe082" stroke="#464646" stroke-width="0.2"/>
<text x="151.013" y="207.73" font-size="3.11" text-anchor="middle" fill="#141414">23</text>
<circle cx="123.041" cy="228.499" r="2.29" fill="#ffe082" stroke="#464646" stroke-width="0.2"/>
<text x="123.041" y="229.59" font-size="3.11" text-anchor="middle" fill="#141414">24</text>
<circle cx="84.145" cy="65.594" r="4.6" fill="#eaf1fe" stroke="#2e78e6" stroke-width="0.3"/>
<text x="84.145" y="67.39399999999999" font-size="5.2" text-anchor="middle" fill="#14306e" font-weight="bold">11</text>
<g pointer-events="none"><text x="105.0" y="89.1" text-anchor="middle" font-family="sans-serif" font-size="21.2" fill="#9aa0a6" fill-opacity="0.33" transform="rotate(-28 105.0 89.1)">papercraft.kr 미리보기</text><text x="105.0" y="163.4" text-anchor="middle" font-family="sans-serif" font-size="21.2" fill="#9aa0a6" fill-opacity="0.33" transform="rotate(-28 105.0 163.4)">papercraft.kr 미리보기</text><text x="105.0" y="237.6" text-anchor="middle" font-family="sans-serif" font-size="21.2" fill="#9aa0a6" fill-opacity="0.33" transform="rotate(-28 105.0 237.6)">papercraft.kr 미리보기</text></g></svg>
