<svg xmlns="http://www.w3.org/2000/svg" xmlns:xlink="http://www.w3.org/1999/xlink" width="210.00mm" height="297.00mm" viewBox="0 0 210.00 297.00">
<rect x="0" y="0" width="210.00" height="297.00" fill="#ffffff" stroke="#cccccc" stroke-width="0.2"/>
<polygon points="190.5,7.59 194.586,29.432 181.289,126.945 171.504,146.895" fill="rgb(216,216,216)"/>
<polygon points="171.504,5.0 161.719,24.95 148.421,122.463 152.508,144.305" fill="rgb(216,216,216)"/>
<polygon points="5.0,185.463 24.95,195.248 122.463,208.546 144.305,204.459" fill="rgb(216,216,216)"/>
<polygon points="171.504,5.0 161.719,24.95 148.421,122.463 152.508,144.305" fill="#99d9fa"/>
<line x1="171.504" y1="146.895" x2="152.508" y2="144.305" stroke="#8c8c8c" stroke-width="0.3" stroke-dasharray="1.2,0.8"/>
<line x1="152.508" y1="144.305" x2="144.305" y2="204.459" stroke="#8c8c8c" stroke-width="0.3" stroke-dasharray="1.2,0.8"/>
<line x1="171.504" y1="146.895" x2="190.5" y2="7.59" stroke="#8c8c8c" stroke-width="0.3" stroke-dasharray="1.2,0.8"/>
<line x1="152.508" y1="144.305" x2="171.504" y2="5.0" stroke="#8c8c8c" stroke-width="0.3" stroke-dasharray="1.2,0.8"/>
<line x1="144.305" y1="204.459" x2="5.0" y2="185.463" stroke="#8c8c8c" stroke-width="0.3" stroke-dasharray="1.2,0.8"/>
<line x1="171.504" y1="5.0" x2="190.5" y2="7.59" stroke="#141414" stroke-width="0.4"/>
<line x1="5.0" y1="185.463" x2="13.203" y2="125.309" stroke="#141414" stroke-width="0.4"/>
<line x1="13.203" y1="125.309" x2="152.508" y2="144.305" stroke="#141414" stroke-width="0.4"/>
<line x1="144.305" y1="204.459" x2="5.0" y2="185.463" stroke="#141414" stroke-width="0.4"/>
<line x1="171.504" y1="146.895" x2="163.301" y2="207.05" stroke="#141414" stroke-width="0.4"/>
<line x1="163.301" y1="207.05" x2="144.305" y2="204.459" stroke="#141414" stroke-width="0.4"/>
<line x1="190.5" y1="7.59" x2="194.586" y2="29.432" stroke="#141414" stroke-width="0.4"/>
<line x1="194.586" y1="29.432" x2="181.289" y2="126.945" stroke="#141414" stroke-width="0.4"/>
<line x1="181.289" y1="126.945" x2="171.504" y2="146.895" stroke="#141414" stroke-width="0.4"/>
<line x1="171.504" y1="5.0" x2="161.719" y2="24.95" stroke="#141414" stroke-width="0.4"/>
<line x1="161.719" y1="24.95" x2="148.421" y2="122.463" stroke="#141414" stroke-width="0.4"/>
<line x1="148.421" y1="122.463" x2="152.508" y2="144.305" stroke="#141414" stroke-width="0.4"/>
<line x1="5.0" y1="185.463" x2="24.95" y2="195.248" stroke="#141414" stroke-width="0.4"/>
<line x1="24.95" y1="195.248" x2="122.463" y2="208.546" stroke="#141414" stroke-width="0.4"/>
<line x1="122.463" y1="208.546" x2="144.305" y2="204.459" stroke="#141414" stroke-width="0.4"/>
<circle cx="184.47" cy="77.716" r="2.21" fill="#ffe082" stroke="#464646" stroke-width="0.2"/>
<text x="184.47" y="78.77" font-size="3.00" text-anchor="middle" fill="#141414">6</text>
<circle cx="158.538" cy="74.18" r="2.21" fill="#99d9fa" stroke="#464646" stroke-width="0.2"/>
<text x="158.538" y="75.23" font-size="3.00" text-anchor="middle" fill="#141414">7</text>
<circle cx="74.18" cy="198.429" r="2.21" fill="#ffe082" stroke="#464646" stroke-width="0.2"/>
<text x="74.18" y="199.48" font-size="3.00" text-anchor="middle" fill="#141414">8</text>
<circle cx="54.169" cy="171.744" r="4.60" fill="#eaf1fe" stroke="#2e78e6" stroke-width="0.3"/>
<text x="54.169" y="173.54" font-size="5.20" text-anchor="middle" fill="#14306e" font-weight="bold">2</text>
<text x="205.0" y="295.0" font-size="3.2" text-anchor="end" fill="#737373" font-family="sans-serif">2 / 5</text>
<g pointer-events="none"><text x="105.0" y="83.2" text-anchor="middle" font-family="sans-serif" font-size="12.4" fill="#9aa0a6" fill-opacity="0.3" transform="rotate(-28 105.0 83.2)">papercraft.kr</text><text x="105.0" y="148.5" text-anchor="middle" font-family="sans-serif" font-size="12.4" fill="#9aa0a6" fill-opacity="0.3" transform="rotate(-28 105.0 148.5)">papercraft.kr</text><text x="105.0" y="213.8" text-anchor="middle" font-family="sans-serif" font-size="12.4" fill="#9aa0a6" fill-opacity="0.3" transform="rotate(-28 105.0 213.8)">papercraft.kr</text></g></svg>
