<svg xmlns="http://www.w3.org/2000/svg" xmlns:xlink="http://www.w3.org/1999/xlink" width="210.00mm" height="297.00mm" viewBox="0 0 210.00 297.00">
<rect x="0" y="0" width="210.00" height="297.00" fill="#ffffff" stroke="#cccccc" stroke-width="0.2"/>
<polygon points="31.316,87.644 24.269,84.053 24.047,66.871 30.999,63.099" fill="rgb(216,216,216)"/>
<polygon points="31.316,87.644 24.403,92.537 24.802,114.785 31.887,119.427" fill="rgb(216,216,216)"/>
<polygon points="57.349,87.644 64.464,84.928 65.024,70.947 58.15,67.67" fill="rgb(216,216,216)"/>
<polygon points="57.349,87.644 64.384,92.328 64.546,114.426 57.581,119.213" fill="rgb(216,216,216)"/>
<polygon points="56.463,61.855 60.381,63.177 60.854,64.805 58.15,67.67" fill="rgb(216,216,216)"/>
<polygon points="30.107,5.571 23.02,8.408 22.6,22.616 29.507,25.867" fill="rgb(216,216,216)"/>
<polygon points="31.887,119.427 35.799,126.394 53.785,126.245 57.581,119.213" fill="rgb(216,216,216)"/>
<polygon points="31.288,31.84 27.342,30.487 26.843,28.814 29.507,25.867" fill="rgb(216,216,216)"/>
<polygon points="82.276,30.635 82.088,27.135 78.183,26.376 76.698,29.551" fill="rgb(216,216,216)"/>
<polygon points="76.698,29.551 74.425,22.573 64.133,22.671 61.994,29.692" fill="rgb(216,216,216)"/>
<polygon points="56.428,30.839 58.08,27.028 58.971,26.844 61.994,29.692" fill="rgb(216,216,216)"/>
<line x1="31.316" y1="87.644" x2="57.349" y2="87.644" stroke="#8c8c8c" stroke-width="0.3" stroke-dasharray="1.2,0.8"/>
<line x1="56.463" y1="61.855" x2="30.999" y2="63.099" stroke="#8c8c8c" stroke-width="0.3" stroke-dasharray="1.2,0.8"/>
<line x1="58.15" y1="67.671" x2="30.999" y2="63.099" stroke="#8c8c8c" stroke-width="0.3" stroke-dasharray="1.2,0.8"/>
<line x1="30.999" y1="63.099" x2="31.288" y2="31.84" stroke="#8c8c8c" stroke-width="0.3" stroke-dasharray="1.2,0.8"/>
<line x1="30.999" y1="63.099" x2="25.239" y2="30.337" stroke="#8c8c8c" stroke-width="0.3" stroke-dasharray="1.2,0.8"/>
<line x1="56.428" y1="30.839" x2="56.463" y2="61.855" stroke="#8c8c8c" stroke-width="0.3" stroke-dasharray="1.2,0.8"/>
<line x1="62.318" y1="63.4" x2="76.698" y2="29.551" stroke="#8c8c8c" stroke-width="0.3" stroke-dasharray="1.2,0.8"/>
<line x1="61.994" y1="29.692" x2="62.318" y2="63.4" stroke="#8c8c8c" stroke-width="0.3" stroke-dasharray="1.2,0.8"/>
<line x1="31.288" y1="31.84" x2="56.428" y2="30.839" stroke="#8c8c8c" stroke-width="0.3" stroke-dasharray="1.2,0.8"/>
<line x1="29.507" y1="25.867" x2="57.066" y2="10.539" stroke="#8c8c8c" stroke-width="0.3" stroke-dasharray="1.2,0.8"/>
<line x1="29.507" y1="25.867" x2="56.428" y2="30.839" stroke="#8c8c8c" stroke-width="0.3" stroke-dasharray="1.2,0.8"/>
<line x1="57.397" y1="25.239" x2="29.507" y2="25.867" stroke="#8c8c8c" stroke-width="0.3" stroke-dasharray="1.2,0.8"/>
<line x1="62.318" y1="63.4" x2="82.276" y2="30.635" stroke="#8c8c8c" stroke-width="0.3" stroke-dasharray="1.2,0.8"/>
<line x1="55.796" y1="5.0" x2="29.507" y2="25.867" stroke="#8c8c8c" stroke-width="0.3" stroke-dasharray="1.2,0.8"/>
<line x1="30.999" y1="63.099" x2="31.316" y2="87.644" stroke="#8c8c8c" stroke-width="0.3" stroke-dasharray="1.2,0.8"/>
<line x1="31.887" y1="119.427" x2="31.316" y2="87.644" stroke="#8c8c8c" stroke-width="0.3" stroke-dasharray="1.2,0.8"/>
<line x1="58.15" y1="67.67" x2="57.349" y2="87.644" stroke="#8c8c8c" stroke-width="0.3" stroke-dasharray="1.2,0.8"/>
<line x1="57.581" y1="119.213" x2="57.349" y2="87.644" stroke="#8c8c8c" stroke-width="0.3" stroke-dasharray="1.2,0.8"/>
<line x1="58.15" y1="67.67" x2="56.463" y2="61.855" stroke="#8c8c8c" stroke-width="0.3" stroke-dasharray="1.2,0.8"/>
<line x1="29.507" y1="25.867" x2="30.107" y2="5.571" stroke="#8c8c8c" stroke-width="0.3" stroke-dasharray="1.2,0.8"/>
<line x1="57.581" y1="119.213" x2="31.887" y2="119.427" stroke="#8c8c8c" stroke-width="0.3" stroke-dasharray="1.2,0.8"/>
<line x1="29.507" y1="25.867" x2="31.288" y2="31.84" stroke="#8c8c8c" stroke-width="0.3" stroke-dasharray="1.2,0.8"/>
<line x1="76.698" y1="29.551" x2="82.276" y2="30.635" stroke="#8c8c8c" stroke-width="0.3" stroke-dasharray="1.2,0.8"/>
<line x1="61.994" y1="29.692" x2="76.698" y2="29.551" stroke="#8c8c8c" stroke-width="0.3" stroke-dasharray="1.2,0.8"/>
<line x1="61.994" y1="29.692" x2="56.428" y2="30.839" stroke="#8c8c8c" stroke-width="0.3" stroke-dasharray="1.2,0.8"/>
<line x1="30.999" y1="63.099" x2="6.46" y2="63.726" stroke="#141414" stroke-width="0.4"/>
<line x1="6.46" y1="63.726" x2="5.0" y2="31.972" stroke="#141414" stroke-width="0.4"/>
<line x1="82.272" y1="62.205" x2="62.318" y2="63.4" stroke="#141414" stroke-width="0.4"/>
<line x1="82.276" y1="30.635" x2="82.272" y2="62.205" stroke="#141414" stroke-width="0.4"/>
<line x1="62.318" y1="63.4" x2="56.463" y2="61.855" stroke="#141414" stroke-width="0.4"/>
<line x1="5.0" y1="31.972" x2="25.239" y2="30.337" stroke="#141414" stroke-width="0.4"/>
<line x1="30.107" y1="5.571" x2="55.796" y2="5.0" stroke="#141414" stroke-width="0.4"/>
<line x1="25.239" y1="30.337" x2="31.288" y2="31.84" stroke="#141414" stroke-width="0.4"/>
<line x1="55.796" y1="5.0" x2="57.066" y2="10.539" stroke="#141414" stroke-width="0.4"/>
<line x1="57.066" y1="10.539" x2="57.397" y2="25.239" stroke="#141414" stroke-width="0.4"/>
<line x1="57.397" y1="25.239" x2="56.428" y2="30.839" stroke="#141414" stroke-width="0.4"/>
<line x1="31.316" y1="87.644" x2="24.269" y2="84.053" stroke="#141414" stroke-width="0.4"/>
<line x1="24.269" y1="84.053" x2="24.047" y2="66.871" stroke="#141414" stroke-width="0.4"/>
<line x1="24.047" y1="66.871" x2="30.999" y2="63.099" stroke="#141414" stroke-width="0.4"/>
<line x1="31.316" y1="87.644" x2="24.403" y2="92.537" stroke="#141414" stroke-width="0.4"/>
<line x1="24.403" y1="92.537" x2="24.802" y2="114.785" stroke="#141414" stroke-width="0.4"/>
<line x1="24.802" y1="114.785" x2="31.887" y2="119.427" stroke="#141414" stroke-width="0.4"/>
<line x1="57.349" y1="87.644" x2="64.464" y2="84.928" stroke="#141414" stroke-width="0.4"/>
<line x1="64.464" y1="84.928" x2="65.024" y2="70.947" stroke="#141414" stroke-width="0.4"/>
<line x1="65.024" y1="70.947" x2="58.15" y2="67.67" stroke="#141414" stroke-width="0.4"/>
<line x1="57.349" y1="87.644" x2="64.384" y2="92.328" stroke="#141414" stroke-width="0.4"/>
<line x1="64.384" y1="92.328" x2="64.546" y2="114.426" stroke="#141414" stroke-width="0.4"/>
<line x1="64.546" y1="114.426" x2="57.581" y2="119.213" stroke="#141414" stroke-width="0.4"/>
<line x1="56.463" y1="61.855" x2="60.381" y2="63.177" stroke="#141414" stroke-width="0.4"/>
<line x1="60.381" y1="63.177" x2="60.854" y2="64.805" stroke="#141414" stroke-width="0.4"/>
<line x1="60.854" y1="64.805" x2="58.15" y2="67.67" stroke="#141414" stroke-width="0.4"/>
<line x1="30.107" y1="5.571" x2="23.02" y2="8.408" stroke="#141414" stroke-width="0.4"/>
<line x1="23.02" y1="8.408" x2="22.6" y2="22.616" stroke="#141414" stroke-width="0.4"/>
<line x1="22.6" y1="22.616" x2="29.507" y2="25.867" stroke="#141414" stroke-width="0.4"/>
<line x1="31.887" y1="119.427" x2="35.799" y2="126.394" stroke="#141414" stroke-width="0.4"/>
<line x1="35.799" y1="126.394" x2="53.785" y2="126.245" stroke="#141414" stroke-width="0.4"/>
<line x1="53.785" y1="126.245" x2="57.581" y2="119.213" stroke="#141414" stroke-width="0.4"/>
<line x1="31.288" y1="31.84" x2="27.342" y2="30.487" stroke="#141414" stroke-width="0.4"/>
<line x1="27.342" y1="30.487" x2="26.843" y2="28.814" stroke="#141414" stroke-width="0.4"/>
<line x1="26.843" y1="28.814" x2="29.507" y2="25.867" stroke="#141414" stroke-width="0.4"/>
<line x1="82.276" y1="30.635" x2="82.088" y2="27.135" stroke="#141414" stroke-width="0.4"/>
<line x1="82.088" y1="27.135" x2="78.183" y2="26.376" stroke="#141414" stroke-width="0.4"/>
<line x1="78.183" y1="26.376" x2="76.698" y2="29.551" stroke="#141414" stroke-width="0.4"/>
<line x1="76.698" y1="29.551" x2="74.425" y2="22.573" stroke="#141414" stroke-width="0.4"/>
<line x1="74.425" y1="22.573" x2="64.133" y2="22.671" stroke="#141414" stroke-width="0.4"/>
<line x1="64.133" y1="22.671" x2="61.994" y2="29.692" stroke="#141414" stroke-width="0.4"/>
<line x1="56.428" y1="30.839" x2="58.08" y2="27.028" stroke="#141414" stroke-width="0.4"/>
<line x1="58.08" y1="27.028" x2="58.971" y2="26.844" stroke="#141414" stroke-width="0.4"/>
<line x1="58.971" y1="26.844" x2="61.994" y2="29.692" stroke="#141414" stroke-width="0.4"/>
<circle cx="27.658" cy="75.417" r="1.19" fill="#ffe082" stroke="#464646" stroke-width="0.2"/>
<text x="27.658" y="75.82" font-size="1.16" text-anchor="middle" fill="#141414">98</text>
<circle cx="28.102" cy="103.598" r="1.19" fill="#ffe082" stroke="#464646" stroke-width="0.2"/>
<text x="28.102" y="104.01" font-size="1.16" text-anchor="middle" fill="#141414">99</text>
<circle cx="61.247" cy="77.797" r="1.19" fill="#ffe082" stroke="#464646" stroke-width="0.2"/>
<text x="61.247" y="78.20" font-size="1.16" text-anchor="middle" fill="#141414">100</text>
<circle cx="60.965" cy="103.403" r="1.19" fill="#ffe082" stroke="#464646" stroke-width="0.2"/>
<text x="60.965" y="103.81" font-size="1.16" text-anchor="middle" fill="#141414">101</text>
<circle cx="58.962" cy="64.377" r="1.19" fill="#ffe082" stroke="#464646" stroke-width="0.2"/>
<text x="58.962" y="64.78" font-size="1.16" text-anchor="middle" fill="#141414">102</text>
<circle cx="26.308" cy="15.615" r="1.19" fill="#ffe082" stroke="#464646" stroke-width="0.2"/>
<text x="26.308" y="16.02" font-size="1.16" text-anchor="middle" fill="#141414">103</text>
<circle cx="44.763" cy="122.82" r="1.19" fill="#ffe082" stroke="#464646" stroke-width="0.2"/>
<text x="44.763" y="123.23" font-size="1.16" text-anchor="middle" fill="#141414">104</text>
<circle cx="28.745" cy="29.252" r="1.19" fill="#ffe082" stroke="#464646" stroke-width="0.2"/>
<text x="28.745" y="29.66" font-size="1.16" text-anchor="middle" fill="#141414">105</text>
<circle cx="79.811" cy="28.424" r="1.19" fill="#ffe082" stroke="#464646" stroke-width="0.2"/>
<text x="79.811" y="28.83" font-size="1.16" text-anchor="middle" fill="#141414">106</text>
<circle cx="69.313" cy="26.122" r="1.19" fill="#ffe082" stroke="#464646" stroke-width="0.2"/>
<text x="69.313" y="26.53" font-size="1.16" text-anchor="middle" fill="#141414">107</text>
<circle cx="58.868" cy="28.601" r="1.19" fill="#ffe082" stroke="#464646" stroke-width="0.2"/>
<text x="58.868" y="29.01" font-size="1.16" text-anchor="middle" fill="#141414">108</text>
<circle cx="43.638" cy="132.494" r="4.6" fill="#eaf1fe" stroke="#2e78e6" stroke-width="0.3"/>
<text x="43.638" y="134.294" font-size="5.2" text-anchor="middle" fill="#14306e" font-weight="bold">6</text>
<polygon points="132.221,21.036 128.84,14.517 136.163,7.194 142.682,10.575" fill="rgb(216,216,216)"/>
<polygon points="101.446,49.486 98.415,56.353 107.365,65.303 114.232,62.272" fill="rgb(216,216,216)"/>
<polygon points="101.446,49.486 94.362,51.97 86.141,42.346 89.702,35.737" fill="rgb(216,216,216)"/>
<polygon points="142.682,31.497 149.201,34.878 156.524,27.555 153.144,21.036" fill="rgb(216,216,216)"/>
<polygon points="114.232,62.272 111.748,69.356 121.373,77.577 127.981,74.016" fill="rgb(216,216,216)"/>
<polygon points="153.144,21.036 156.524,14.517 149.201,7.194 142.682,10.575" fill="rgb(216,216,216)"/>
<polygon points="165.899,49.804 168.225,58.921 151.922,83.311 142.609,84.647" fill="rgb(216,216,216)"/>
<line x1="101.446" y1="49.486" x2="132.221" y2="21.036" stroke="#8c8c8c" stroke-width="0.3" stroke-dasharray="1.2,0.8"/>
<line x1="142.682" y1="31.497" x2="132.221" y2="21.036" stroke="#8c8c8c" stroke-width="0.3" stroke-dasharray="1.2,0.8"/>
<line x1="142.682" y1="31.497" x2="114.233" y2="62.272" stroke="#8c8c8c" stroke-width="0.3" stroke-dasharray="1.2,0.8"/>
<line x1="153.931" y1="41.106" x2="127.981" y2="74.016" stroke="#8c8c8c" stroke-width="0.3" stroke-dasharray="1.2,0.8"/>
<line x1="142.609" y1="84.647" x2="127.981" y2="74.016" stroke="#8c8c8c" stroke-width="0.3" stroke-dasharray="1.2,0.8"/>
<line x1="142.682" y1="10.575" x2="132.221" y2="21.036" stroke="#8c8c8c" stroke-width="0.3" stroke-dasharray="1.2,0.8"/>
<line x1="114.232" y1="62.272" x2="101.446" y2="49.486" stroke="#8c8c8c" stroke-width="0.3" stroke-dasharray="1.2,0.8"/>
<line x1="89.702" y1="35.737" x2="101.446" y2="49.486" stroke="#8c8c8c" stroke-width="0.3" stroke-dasharray="1.2,0.8"/>
<line x1="153.144" y1="21.036" x2="142.682" y2="31.497" stroke="#8c8c8c" stroke-width="0.3" stroke-dasharray="1.2,0.8"/>
<line x1="127.981" y1="74.016" x2="114.232" y2="62.272" stroke="#8c8c8c" stroke-width="0.3" stroke-dasharray="1.2,0.8"/>
<line x1="142.682" y1="10.575" x2="153.144" y2="21.036" stroke="#8c8c8c" stroke-width="0.3" stroke-dasharray="1.2,0.8"/>
<line x1="142.609" y1="84.647" x2="165.899" y2="49.804" stroke="#8c8c8c" stroke-width="0.3" stroke-dasharray="1.2,0.8"/>
<line x1="122.612" y1="9.787" x2="132.221" y2="21.036" stroke="#141414" stroke-width="0.4"/>
<line x1="131.978" y1="99.274" x2="117.351" y2="88.644" stroke="#141414" stroke-width="0.4"/>
<line x1="142.609" y1="84.647" x2="131.978" y2="99.274" stroke="#141414" stroke-width="0.4"/>
<line x1="142.682" y1="31.497" x2="153.931" y2="41.106" stroke="#141414" stroke-width="0.4"/>
<line x1="117.351" y1="88.644" x2="127.981" y2="74.016" stroke="#141414" stroke-width="0.4"/>
<line x1="153.931" y1="41.106" x2="165.899" y2="49.804" stroke="#141414" stroke-width="0.4"/>
<line x1="89.702" y1="35.737" x2="122.612" y2="9.787" stroke="#141414" stroke-width="0.4"/>
<line x1="132.221" y1="21.036" x2="128.84" y2="14.517" stroke="#141414" stroke-width="0.4"/>
<line x1="128.84" y1="14.517" x2="136.163" y2="7.194" stroke="#141414" stroke-width="0.4"/>
<line x1="136.163" y1="7.194" x2="142.682" y2="10.575" stroke="#141414" stroke-width="0.4"/>
<line x1="101.446" y1="49.486" x2="98.415" y2="56.353" stroke="#141414" stroke-width="0.4"/>
<line x1="98.415" y1="56.353" x2="107.365" y2="65.303" stroke="#141414" stroke-width="0.4"/>
<line x1="107.365" y1="65.303" x2="114.232" y2="62.272" stroke="#141414" stroke-width="0.4"/>
<line x1="101.446" y1="49.486" x2="94.362" y2="51.97" stroke="#141414" stroke-width="0.4"/>
<line x1="94.362" y1="51.97" x2="86.141" y2="42.346" stroke="#141414" stroke-width="0.4"/>
<line x1="86.141" y1="42.346" x2="89.702" y2="35.737" stroke="#141414" stroke-width="0.4"/>
<line x1="142.682" y1="31.497" x2="149.201" y2="34.878" stroke="#141414" stroke-width="0.4"/>
<line x1="149.201" y1="34.878" x2="156.524" y2="27.555" stroke="#141414" stroke-width="0.4"/>
<line x1="156.524" y1="27.555" x2="153.144" y2="21.036" stroke="#141414" stroke-width="0.4"/>
<line x1="114.232" y1="62.272" x2="111.748" y2="69.356" stroke="#141414" stroke-width="0.4"/>
<line x1="111.748" y1="69.356" x2="121.373" y2="77.577" stroke="#141414" stroke-width="0.4"/>
<line x1="121.373" y1="77.577" x2="127.981" y2="74.016" stroke="#141414" stroke-width="0.4"/>
<line x1="153.144" y1="21.036" x2="156.524" y2="14.517" stroke="#141414" stroke-width="0.4"/>
<line x1="156.524" y1="14.517" x2="149.201" y2="7.194" stroke="#141414" stroke-width="0.4"/>
<line x1="149.201" y1="7.194" x2="142.682" y2="10.575" stroke="#141414" stroke-width="0.4"/>
<line x1="165.899" y1="49.804" x2="168.225" y2="58.921" stroke="#141414" stroke-width="0.4"/>
<line x1="168.225" y1="58.921" x2="151.922" y2="83.311" stroke="#141414" stroke-width="0.4"/>
<line x1="151.922" y1="83.311" x2="142.609" y2="84.647" stroke="#141414" stroke-width="0.4"/>
<circle cx="134.977" cy="13.33" r="1.19" fill="#ffe082" stroke="#464646" stroke-width="0.2"/>
<text x="134.977" y="13.74" font-size="1.16" text-anchor="middle" fill="#141414">142</text>
<circle cx="105.365" cy="58.354" r="1.19" fill="#ffe082" stroke="#464646" stroke-width="0.2"/>
<text x="105.365" y="58.76" font-size="1.16" text-anchor="middle" fill="#141414">143</text>
<circle cx="92.913" cy="44.884" r="1.19" fill="#ffe082" stroke="#464646" stroke-width="0.2"/>
<text x="92.913" y="45.29" font-size="1.16" text-anchor="middle" fill="#141414">144</text>
<circle cx="150.388" cy="28.742" r="1.19" fill="#ffe082" stroke="#464646" stroke-width="0.2"/>
<text x="150.388" y="29.15" font-size="1.16" text-anchor="middle" fill="#141414">145</text>
<circle cx="118.834" cy="70.805" r="1.19" fill="#ffe082" stroke="#464646" stroke-width="0.2"/>
<text x="118.834" y="71.21" font-size="1.16" text-anchor="middle" fill="#141414">146</text>
<circle cx="150.388" cy="13.33" r="1.19" fill="#ffe082" stroke="#464646" stroke-width="0.2"/>
<text x="150.388" y="13.74" font-size="1.16" text-anchor="middle" fill="#141414">147</text>
<circle cx="157.164" cy="69.171" r="1.19" fill="#ffe082" stroke="#464646" stroke-width="0.2"/>
<text x="157.164" y="69.58" font-size="1.16" text-anchor="middle" fill="#141414">148</text>
<circle cx="126.319" cy="103.18" r="4.6" fill="#eaf1fe" stroke="#2e78e6" stroke-width="0.3"/>
<text x="126.319" y="104.98" font-size="5.2" text-anchor="middle" fill="#14306e" font-weight="bold">10</text>
<polygon points="51.944,145.43 48.564,138.912 55.887,131.589 62.406,134.969" fill="rgb(216,216,216)"/>
<polygon points="21.17,173.88 18.138,180.748 27.088,189.698 33.956,186.666" fill="rgb(216,216,216)"/>
<polygon points="21.17,173.88 14.086,176.364 5.864,166.74 9.425,160.131" fill="rgb(216,216,216)"/>
<polygon points="62.406,155.892 68.924,159.272 76.248,151.949 72.867,145.43" fill="rgb(216,216,216)"/>
<polygon points="33.956,186.666 31.472,193.75 41.096,201.972 47.705,198.411" fill="rgb(216,216,216)"/>
<polygon points="72.867,145.43 76.248,138.912 68.924,131.589 62.406,134.969" fill="rgb(216,216,216)"/>
<polygon points="85.623,174.199 87.949,183.315 71.645,207.705 62.332,209.041" fill="rgb(216,216,216)"/>
<line x1="21.17" y1="173.88" x2="51.944" y2="145.43" stroke="#8c8c8c" stroke-width="0.3" stroke-dasharray="1.2,0.8"/>
<line x1="62.406" y1="155.892" x2="51.944" y2="145.43" stroke="#8c8c8c" stroke-width="0.3" stroke-dasharray="1.2,0.8"/>
<line x1="62.406" y1="155.892" x2="33.956" y2="186.666" stroke="#8c8c8c" stroke-width="0.3" stroke-dasharray="1.2,0.8"/>
<line x1="73.655" y1="165.501" x2="47.705" y2="198.411" stroke="#8c8c8c" stroke-width="0.3" stroke-dasharray="1.2,0.8"/>
<line x1="62.332" y1="209.041" x2="47.705" y2="198.411" stroke="#8c8c8c" stroke-width="0.3" stroke-dasharray="1.2,0.8"/>
<line x1="62.406" y1="134.969" x2="51.944" y2="145.43" stroke="#8c8c8c" stroke-width="0.3" stroke-dasharray="1.2,0.8"/>
<line x1="33.956" y1="186.666" x2="21.17" y2="173.88" stroke="#8c8c8c" stroke-width="0.3" stroke-dasharray="1.2,0.8"/>
<line x1="9.425" y1="160.131" x2="21.17" y2="173.88" stroke="#8c8c8c" stroke-width="0.3" stroke-dasharray="1.2,0.8"/>
<line x1="72.867" y1="145.43" x2="62.406" y2="155.892" stroke="#8c8c8c" stroke-width="0.3" stroke-dasharray="1.2,0.8"/>
<line x1="47.705" y1="198.411" x2="33.956" y2="186.666" stroke="#8c8c8c" stroke-width="0.3" stroke-dasharray="1.2,0.8"/>
<line x1="62.406" y1="134.969" x2="72.867" y2="145.43" stroke="#8c8c8c" stroke-width="0.3" stroke-dasharray="1.2,0.8"/>
<line x1="62.332" y1="209.041" x2="85.623" y2="174.199" stroke="#8c8c8c" stroke-width="0.3" stroke-dasharray="1.2,0.8"/>
<line x1="42.335" y1="134.181" x2="51.944" y2="145.43" stroke="#141414" stroke-width="0.4"/>
<line x1="51.702" y1="223.669" x2="37.074" y2="213.038" stroke="#141414" stroke-width="0.4"/>
<line x1="62.332" y1="209.041" x2="51.702" y2="223.669" stroke="#141414" stroke-width="0.4"/>
<line x1="62.406" y1="155.892" x2="73.655" y2="165.501" stroke="#141414" stroke-width="0.4"/>
<line x1="37.074" y1="213.038" x2="47.705" y2="198.411" stroke="#141414" stroke-width="0.4"/>
<line x1="73.655" y1="165.501" x2="85.623" y2="174.199" stroke="#141414" stroke-width="0.4"/>
<line x1="9.425" y1="160.131" x2="42.335" y2="134.181" stroke="#141414" stroke-width="0.4"/>
<line x1="51.944" y1="145.43" x2="48.564" y2="138.912" stroke="#141414" stroke-width="0.4"/>
<line x1="48.564" y1="138.912" x2="55.887" y2="131.589" stroke="#141414" stroke-width="0.4"/>
<line x1="55.887" y1="131.589" x2="62.406" y2="134.969" stroke="#141414" stroke-width="0.4"/>
<line x1="21.17" y1="173.88" x2="18.138" y2="180.748" stroke="#141414" stroke-width="0.4"/>
<line x1="18.138" y1="180.748" x2="27.088" y2="189.698" stroke="#141414" stroke-width="0.4"/>
<line x1="27.088" y1="189.698" x2="33.956" y2="186.666" stroke="#141414" stroke-width="0.4"/>
<line x1="21.17" y1="173.88" x2="14.086" y2="176.364" stroke="#141414" stroke-width="0.4"/>
<line x1="14.086" y1="176.364" x2="5.864" y2="166.74" stroke="#141414" stroke-width="0.4"/>
<line x1="5.864" y1="166.74" x2="9.425" y2="160.131" stroke="#141414" stroke-width="0.4"/>
<line x1="62.406" y1="155.892" x2="68.924" y2="159.272" stroke="#141414" stroke-width="0.4"/>
<line x1="68.924" y1="159.272" x2="76.248" y2="151.949" stroke="#141414" stroke-width="0.4"/>
<line x1="76.248" y1="151.949" x2="72.867" y2="145.43" stroke="#141414" stroke-width="0.4"/>
<line x1="33.956" y1="186.666" x2="31.472" y2="193.75" stroke="#141414" stroke-width="0.4"/>
<line x1="31.472" y1="193.75" x2="41.096" y2="201.972" stroke="#141414" stroke-width="0.4"/>
<line x1="41.096" y1="201.972" x2="47.705" y2="198.411" stroke="#141414" stroke-width="0.4"/>
<line x1="72.867" y1="145.43" x2="76.248" y2="138.912" stroke="#141414" stroke-width="0.4"/>
<line x1="76.248" y1="138.912" x2="68.924" y2="131.589" stroke="#141414" stroke-width="0.4"/>
<line x1="68.924" y1="131.589" x2="62.406" y2="134.969" stroke="#141414" stroke-width="0.4"/>
<line x1="85.623" y1="174.199" x2="87.949" y2="183.315" stroke="#141414" stroke-width="0.4"/>
<line x1="87.949" y1="183.315" x2="71.645" y2="207.705" stroke="#141414" stroke-width="0.4"/>
<line x1="71.645" y1="207.705" x2="62.332" y2="209.041" stroke="#141414" stroke-width="0.4"/>
<circle cx="54.7" cy="137.725" r="1.19" fill="#ffe082" stroke="#464646" stroke-width="0.2"/>
<text x="54.7" y="138.13" font-size="1.16" text-anchor="middle" fill="#141414">149</text>
<circle cx="25.088" cy="182.748" r="1.19" fill="#ffe082" stroke="#464646" stroke-width="0.2"/>
<text x="25.088" y="183.16" font-size="1.16" text-anchor="middle" fill="#141414">150</text>
<circle cx="12.636" cy="169.279" r="1.19" fill="#ffe082" stroke="#464646" stroke-width="0.2"/>
<text x="12.636" y="169.69" font-size="1.16" text-anchor="middle" fill="#141414">151</text>
<circle cx="70.111" cy="153.136" r="1.19" fill="#ffe082" stroke="#464646" stroke-width="0.2"/>
<text x="70.111" y="153.54" font-size="1.16" text-anchor="middle" fill="#141414">152</text>
<circle cx="38.557" cy="195.2" r="1.19" fill="#ffe082" stroke="#464646" stroke-width="0.2"/>
<text x="38.557" y="195.61" font-size="1.16" text-anchor="middle" fill="#141414">153</text>
<circle cx="70.111" cy="137.725" r="1.19" fill="#ffe082" stroke="#464646" stroke-width="0.2"/>
<text x="70.111" y="138.13" font-size="1.16" text-anchor="middle" fill="#141414">154</text>
<circle cx="76.887" cy="193.565" r="1.19" fill="#ffe082" stroke="#464646" stroke-width="0.2"/>
<text x="76.887" y="193.97" font-size="1.16" text-anchor="middle" fill="#141414">155</text>
<circle cx="46.042" cy="123.294" r="4.6" fill="#eaf1fe" stroke="#2e78e6" stroke-width="0.3"/>
<text x="46.042" y="125.094" font-size="5.2" text-anchor="middle" fill="#14306e" font-weight="bold">11</text>
<polygon points="137.028,145.43 133.648,138.912 140.971,131.589 147.49,134.969" fill="rgb(216,216,216)"/>
<polygon points="106.254,173.88 103.222,180.748 112.173,189.698 119.04,186.666" fill="rgb(216,216,216)"/>
<polygon points="106.254,173.88 99.17,176.364 90.949,166.74 94.509,160.131" fill="rgb(216,216,216)"/>
<polygon points="147.49,155.892 154.009,159.272 161.332,151.949 157.951,145.43" fill="rgb(216,216,216)"/>
<polygon points="119.04,186.666 116.556,193.75 126.18,201.972 132.789,198.411" fill="rgb(216,216,216)"/>
<polygon points="157.951,145.43 161.332,138.912 154.009,131.589 147.49,134.969" fill="rgb(216,216,216)"/>
<polygon points="170.707,174.199 173.033,183.315 156.73,207.705 147.416,209.041" fill="rgb(216,216,216)"/>
<line x1="106.254" y1="173.88" x2="137.028" y2="145.43" stroke="#8c8c8c" stroke-width="0.3" stroke-dasharray="1.2,0.8"/>
<line x1="147.49" y1="155.892" x2="137.028" y2="145.43" stroke="#8c8c8c" stroke-width="0.3" stroke-dasharray="1.2,0.8"/>
<line x1="147.49" y1="155.892" x2="119.04" y2="186.666" stroke="#8c8c8c" stroke-width="0.3" stroke-dasharray="1.2,0.8"/>
<line x1="158.739" y1="165.501" x2="132.789" y2="198.411" stroke="#8c8c8c" stroke-width="0.3" stroke-dasharray="1.2,0.8"/>
<line x1="147.416" y1="209.041" x2="132.789" y2="198.411" stroke="#8c8c8c" stroke-width="0.3" stroke-dasharray="1.2,0.8"/>
<line x1="147.49" y1="134.969" x2="137.028" y2="145.43" stroke="#8c8c8c" stroke-width="0.3" stroke-dasharray="1.2,0.8"/>
<line x1="119.04" y1="186.666" x2="106.254" y2="173.88" stroke="#8c8c8c" stroke-width="0.3" stroke-dasharray="1.2,0.8"/>
<line x1="94.509" y1="160.131" x2="106.254" y2="173.88" stroke="#8c8c8c" stroke-width="0.3" stroke-dasharray="1.2,0.8"/>
<line x1="157.951" y1="145.43" x2="147.49" y2="155.892" stroke="#8c8c8c" stroke-width="0.3" stroke-dasharray="1.2,0.8"/>
<line x1="132.789" y1="198.411" x2="119.04" y2="186.666" stroke="#8c8c8c" stroke-width="0.3" stroke-dasharray="1.2,0.8"/>
<line x1="147.49" y1="134.969" x2="157.951" y2="145.43" stroke="#8c8c8c" stroke-width="0.3" stroke-dasharray="1.2,0.8"/>
<line x1="147.416" y1="209.041" x2="170.707" y2="174.199" stroke="#8c8c8c" stroke-width="0.3" stroke-dasharray="1.2,0.8"/>
<line x1="127.419" y1="134.181" x2="137.028" y2="145.43" stroke="#141414" stroke-width="0.4"/>
<line x1="136.786" y1="223.669" x2="122.158" y2="213.038" stroke="#141414" stroke-width="0.4"/>
<line x1="147.416" y1="209.041" x2="136.786" y2="223.669" stroke="#141414" stroke-width="0.4"/>
<line x1="147.49" y1="155.892" x2="158.739" y2="165.501" stroke="#141414" stroke-width="0.4"/>
<line x1="122.158" y1="213.038" x2="132.789" y2="198.411" stroke="#141414" stroke-width="0.4"/>
<line x1="158.739" y1="165.501" x2="170.707" y2="174.199" stroke="#141414" stroke-width="0.4"/>
<line x1="94.509" y1="160.131" x2="127.419" y2="134.181" stroke="#141414" stroke-width="0.4"/>
<line x1="137.028" y1="145.43" x2="133.648" y2="138.912" stroke="#141414" stroke-width="0.4"/>
<line x1="133.648" y1="138.912" x2="140.971" y2="131.589" stroke="#141414" stroke-width="0.4"/>
<line x1="140.971" y1="131.589" x2="147.49" y2="134.969" stroke="#141414" stroke-width="0.4"/>
<line x1="106.254" y1="173.88" x2="103.222" y2="180.748" stroke="#141414" stroke-width="0.4"/>
<line x1="103.222" y1="180.748" x2="112.173" y2="189.698" stroke="#141414" stroke-width="0.4"/>
<line x1="112.173" y1="189.698" x2="119.04" y2="186.666" stroke="#141414" stroke-width="0.4"/>
<line x1="106.254" y1="173.88" x2="99.17" y2="176.364" stroke="#141414" stroke-width="0.4"/>
<line x1="99.17" y1="176.364" x2="90.949" y2="166.74" stroke="#141414" stroke-width="0.4"/>
<line x1="90.949" y1="166.74" x2="94.509" y2="160.131" stroke="#141414" stroke-width="0.4"/>
<line x1="147.49" y1="155.892" x2="154.009" y2="159.272" stroke="#141414" stroke-width="0.4"/>
<line x1="154.009" y1="159.272" x2="161.332" y2="151.949" stroke="#141414" stroke-width="0.4"/>
<line x1="161.332" y1="151.949" x2="157.951" y2="145.43" stroke="#141414" stroke-width="0.4"/>
<line x1="119.04" y1="186.666" x2="116.556" y2="193.75" stroke="#141414" stroke-width="0.4"/>
<line x1="116.556" y1="193.75" x2="126.18" y2="201.972" stroke="#141414" stroke-width="0.4"/>
<line x1="126.18" y1="201.972" x2="132.789" y2="198.411" stroke="#141414" stroke-width="0.4"/>
<line x1="157.951" y1="145.43" x2="161.332" y2="138.912" stroke="#141414" stroke-width="0.4"/>
<line x1="161.332" y1="138.912" x2="154.009" y2="131.589" stroke="#141414" stroke-width="0.4"/>
<line x1="154.009" y1="131.589" x2="147.49" y2="134.969" stroke="#141414" stroke-width="0.4"/>
<line x1="170.707" y1="174.199" x2="173.033" y2="183.315" stroke="#141414" stroke-width="0.4"/>
<line x1="173.033" y1="183.315" x2="156.73" y2="207.705" stroke="#141414" stroke-width="0.4"/>
<line x1="156.73" y1="207.705" x2="147.416" y2="209.041" stroke="#141414" stroke-width="0.4"/>
<circle cx="139.784" cy="137.725" r="1.19" fill="#ffe082" stroke="#464646" stroke-width="0.2"/>
<text x="139.784" y="138.13" font-size="1.16" text-anchor="middle" fill="#141414">156</text>
<circle cx="110.172" cy="182.748" r="1.19" fill="#ffe082" stroke="#464646" stroke-width="0.2"/>
<text x="110.172" y="183.16" font-size="1.16" text-anchor="middle" fill="#141414">157</text>
<circle cx="97.72" cy="169.279" r="1.19" fill="#ffe082" stroke="#464646" stroke-width="0.2"/>
<text x="97.72" y="169.69" font-size="1.16" text-anchor="middle" fill="#141414">158</text>
<circle cx="155.195" cy="153.136" r="1.19" fill="#ffe082" stroke="#464646" stroke-width="0.2"/>
<text x="155.195" y="153.54" font-size="1.16" text-anchor="middle" fill="#141414">159</text>
<circle cx="123.641" cy="195.2" r="1.19" fill="#ffe082" stroke="#464646" stroke-width="0.2"/>
<text x="123.641" y="195.61" font-size="1.16" text-anchor="middle" fill="#141414">160</text>
<circle cx="155.195" cy="137.725" r="1.19" fill="#ffe082" stroke="#464646" stroke-width="0.2"/>
<text x="155.195" y="138.13" font-size="1.16" text-anchor="middle" fill="#141414">161</text>
<circle cx="161.971" cy="193.565" r="1.19" fill="#ffe082" stroke="#464646" stroke-width="0.2"/>
<text x="161.971" y="193.97" font-size="1.16" text-anchor="middle" fill="#141414">162</text>
<circle cx="131.126" cy="123.294" r="4.6" fill="#eaf1fe" stroke="#2e78e6" stroke-width="0.3"/>
<text x="131.126" y="125.094" font-size="5.2" text-anchor="middle" fill="#14306e" font-weight="bold">12</text>
<g pointer-events="none"><text x="105.0" y="83.2" text-anchor="middle" font-family="sans-serif" font-size="12.4" fill="#9aa0a6" fill-opacity="0.3" transform="rotate(-28 105.0 83.2)">papercraft.kr</text><text x="105.0" y="148.5" text-anchor="middle" font-family="sans-serif" font-size="12.4" fill="#9aa0a6" fill-opacity="0.3" transform="rotate(-28 105.0 148.5)">papercraft.kr</text><text x="105.0" y="213.8" text-anchor="middle" font-family="sans-serif" font-size="12.4" fill="#9aa0a6" fill-opacity="0.3" transform="rotate(-28 105.0 213.8)">papercraft.kr</text></g></svg>
