<svg xmlns="http://www.w3.org/2000/svg" xmlns:xlink="http://www.w3.org/1999/xlink" width="210.00mm" height="297.00mm" viewBox="0 0 210.00 297.00">
<rect x="0" y="0" width="210.00" height="297.00" fill="#ffffff" stroke="#cccccc" stroke-width="0.2"/>
<polygon points="43.601,117.92 33.357,124.903 15.979,169.381 18.775,181.459" fill="rgb(216,216,216)"/>
<polygon points="43.601,117.92 52.475,110.92 93.888,110.92 102.762,117.92" fill="rgb(216,216,216)"/>
<polygon points="18.775,181.459 19.549,182.021 51.142,157.748 51.377,157.576" fill="rgb(216,216,216)"/>
<polygon points="85.911,10.304 86.863,10.392 94.593,49.475 94.656,49.759" fill="rgb(216,216,216)"/>
<polygon points="86.879,10.102 95.754,3.102 137.165,3.104 146.039,10.104" fill="rgb(216,216,216)"/>
<polygon points="19.37,182.25 21.422,193.365 52.545,220.683 63.832,221.276" fill="rgb(216,216,216)"/>
<polygon points="147.818,157.737 150.615,169.815 133.237,214.292 122.993,221.276" fill="rgb(216,216,216)"/>
<polygon points="147.818,157.737 147.045,157.174 115.452,181.447 115.217,181.619" fill="rgb(216,216,216)"/>
<polygon points="167.24,113.262 166.288,113.175 158.558,74.091 158.495,73.806" fill="rgb(216,216,216)"/>
<polygon points="147.224,156.945 146.352,145.677 118.274,115.238 107.112,113.461" fill="rgb(216,216,216)"/>
<polygon points="190.5,49.133 188.449,38.018 157.326,10.698 146.039,10.104" fill="rgb(216,216,216)"/>
<line x1="51.377" y1="157.576" x2="43.601" y2="117.92" stroke="#8c8c8c" stroke-width="0.3" stroke-dasharray="1.2,0.8"/>
<line x1="94.656" y1="49.759" x2="62.651" y2="74.433" stroke="#8c8c8c" stroke-width="0.3" stroke-dasharray="1.2,0.8"/>
<line x1="107.112" y1="113.461" x2="62.651" y2="74.433" stroke="#8c8c8c" stroke-width="0.3" stroke-dasharray="1.2,0.8"/>
<line x1="147.224" y1="156.945" x2="102.762" y2="117.92" stroke="#8c8c8c" stroke-width="0.3" stroke-dasharray="1.2,0.8"/>
<line x1="115.217" y1="181.619" x2="122.993" y2="221.276" stroke="#8c8c8c" stroke-width="0.3" stroke-dasharray="1.2,0.8"/>
<line x1="158.495" y1="73.806" x2="190.5" y2="49.133" stroke="#8c8c8c" stroke-width="0.3" stroke-dasharray="1.2,0.8"/>
<line x1="122.993" y1="221.276" x2="63.832" y2="221.275" stroke="#8c8c8c" stroke-width="0.3" stroke-dasharray="1.2,0.8"/>
<line x1="63.832" y1="221.275" x2="115.217" y2="181.619" stroke="#8c8c8c" stroke-width="0.3" stroke-dasharray="1.2,0.8"/>
<line x1="102.762" y1="117.92" x2="115.217" y2="181.619" stroke="#8c8c8c" stroke-width="0.3" stroke-dasharray="1.2,0.8"/>
<line x1="51.377" y1="157.576" x2="63.832" y2="221.275" stroke="#8c8c8c" stroke-width="0.3" stroke-dasharray="1.2,0.8"/>
<line x1="102.762" y1="117.92" x2="51.377" y2="157.576" stroke="#8c8c8c" stroke-width="0.3" stroke-dasharray="1.2,0.8"/>
<line x1="158.495" y1="73.806" x2="146.039" y2="10.104" stroke="#8c8c8c" stroke-width="0.3" stroke-dasharray="1.2,0.8"/>
<line x1="158.495" y1="73.806" x2="107.112" y2="113.461" stroke="#8c8c8c" stroke-width="0.3" stroke-dasharray="1.2,0.8"/>
<line x1="146.039" y1="10.104" x2="94.656" y2="49.759" stroke="#8c8c8c" stroke-width="0.3" stroke-dasharray="1.2,0.8"/>
<line x1="94.656" y1="49.759" x2="107.112" y2="113.461" stroke="#8c8c8c" stroke-width="0.3" stroke-dasharray="1.2,0.8"/>
<line x1="64.159" y1="227.496" x2="63.832" y2="221.275" stroke="#8c8c8c" stroke-width="0.3" stroke-dasharray="1.2,0.8"/>
<line x1="107.112" y1="113.461" x2="102.762" y2="117.92" stroke="#8c8c8c" stroke-width="0.3" stroke-dasharray="1.2,0.8"/>
<line x1="18.775" y1="181.459" x2="43.601" y2="117.92" stroke="#8c8c8c" stroke-width="0.3" stroke-dasharray="1.2,0.8"/>
<line x1="102.762" y1="117.92" x2="43.601" y2="117.92" stroke="#8c8c8c" stroke-width="0.3" stroke-dasharray="1.2,0.8"/>
<line x1="51.377" y1="157.576" x2="18.775" y2="181.459" stroke="#8c8c8c" stroke-width="0.3" stroke-dasharray="1.2,0.8"/>
<line x1="94.656" y1="49.759" x2="85.911" y2="10.304" stroke="#8c8c8c" stroke-width="0.3" stroke-dasharray="1.2,0.8"/>
<line x1="146.039" y1="10.104" x2="86.879" y2="10.102" stroke="#8c8c8c" stroke-width="0.3" stroke-dasharray="1.2,0.8"/>
<line x1="63.832" y1="221.276" x2="19.37" y2="182.25" stroke="#8c8c8c" stroke-width="0.3" stroke-dasharray="1.2,0.8"/>
<line x1="122.993" y1="221.276" x2="147.818" y2="157.737" stroke="#8c8c8c" stroke-width="0.3" stroke-dasharray="1.2,0.8"/>
<line x1="115.217" y1="181.619" x2="147.818" y2="157.737" stroke="#8c8c8c" stroke-width="0.3" stroke-dasharray="1.2,0.8"/>
<line x1="158.495" y1="73.806" x2="167.24" y2="113.262" stroke="#8c8c8c" stroke-width="0.3" stroke-dasharray="1.2,0.8"/>
<line x1="107.112" y1="113.461" x2="147.224" y2="156.945" stroke="#8c8c8c" stroke-width="0.3" stroke-dasharray="1.2,0.8"/>
<line x1="146.039" y1="10.104" x2="190.5" y2="49.133" stroke="#8c8c8c" stroke-width="0.3" stroke-dasharray="1.2,0.8"/>
<line x1="62.651" y1="74.433" x2="85.911" y2="10.304" stroke="#141414" stroke-width="0.4"/>
<line x1="102.762" y1="117.92" x2="62.651" y2="74.433" stroke="#141414" stroke-width="0.4"/>
<line x1="19.37" y1="182.25" x2="51.377" y2="157.576" stroke="#141414" stroke-width="0.4"/>
<line x1="94.656" y1="49.759" x2="86.879" y2="10.102" stroke="#141414" stroke-width="0.4"/>
<line x1="64.159" y1="227.496" x2="5.0" y2="227.493" stroke="#141414" stroke-width="0.4"/>
<line x1="5.0" y1="227.493" x2="63.832" y2="221.275" stroke="#141414" stroke-width="0.4"/>
<line x1="190.5" y1="49.133" x2="167.24" y2="113.262" stroke="#141414" stroke-width="0.4"/>
<line x1="147.224" y1="156.945" x2="115.217" y2="181.619" stroke="#141414" stroke-width="0.4"/>
<line x1="158.495" y1="73.806" x2="166.271" y2="113.465" stroke="#141414" stroke-width="0.4"/>
<line x1="166.271" y1="113.465" x2="107.112" y2="113.461" stroke="#141414" stroke-width="0.4"/>
<line x1="122.993" y1="221.276" x2="64.159" y2="227.496" stroke="#141414" stroke-width="0.4"/>
<line x1="43.601" y1="117.92" x2="33.357" y2="124.903" stroke="#141414" stroke-width="0.4"/>
<line x1="33.357" y1="124.903" x2="15.979" y2="169.381" stroke="#141414" stroke-width="0.4"/>
<line x1="15.979" y1="169.381" x2="18.775" y2="181.459" stroke="#141414" stroke-width="0.4"/>
<line x1="43.601" y1="117.92" x2="52.475" y2="110.92" stroke="#141414" stroke-width="0.4"/>
<line x1="52.475" y1="110.92" x2="93.888" y2="110.92" stroke="#141414" stroke-width="0.4"/>
<line x1="93.888" y1="110.92" x2="102.762" y2="117.92" stroke="#141414" stroke-width="0.4"/>
<line x1="18.775" y1="181.459" x2="19.549" y2="182.021" stroke="#141414" stroke-width="0.4"/>
<line x1="19.549" y1="182.021" x2="51.142" y2="157.748" stroke="#141414" stroke-width="0.4"/>
<line x1="51.142" y1="157.748" x2="51.377" y2="157.576" stroke="#141414" stroke-width="0.4"/>
<line x1="85.911" y1="10.304" x2="86.863" y2="10.392" stroke="#141414" stroke-width="0.4"/>
<line x1="86.863" y1="10.392" x2="94.593" y2="49.475" stroke="#141414" stroke-width="0.4"/>
<line x1="94.593" y1="49.475" x2="94.656" y2="49.759" stroke="#141414" stroke-width="0.4"/>
<line x1="86.879" y1="10.102" x2="95.754" y2="3.102" stroke="#141414" stroke-width="0.4"/>
<line x1="95.754" y1="3.102" x2="137.165" y2="3.104" stroke="#141414" stroke-width="0.4"/>
<line x1="137.165" y1="3.104" x2="146.039" y2="10.104" stroke="#141414" stroke-width="0.4"/>
<line x1="19.37" y1="182.25" x2="21.422" y2="193.365" stroke="#141414" stroke-width="0.4"/>
<line x1="21.422" y1="193.365" x2="52.545" y2="220.683" stroke="#141414" stroke-width="0.4"/>
<line x1="52.545" y1="220.683" x2="63.832" y2="221.276" stroke="#141414" stroke-width="0.4"/>
<line x1="147.818" y1="157.737" x2="150.615" y2="169.815" stroke="#141414" stroke-width="0.4"/>
<line x1="150.615" y1="169.815" x2="133.237" y2="214.292" stroke="#141414" stroke-width="0.4"/>
<line x1="133.237" y1="214.292" x2="122.993" y2="221.276" stroke="#141414" stroke-width="0.4"/>
<line x1="147.818" y1="157.737" x2="147.045" y2="157.174" stroke="#141414" stroke-width="0.4"/>
<line x1="147.045" y1="157.174" x2="115.452" y2="181.447" stroke="#141414" stroke-width="0.4"/>
<line x1="115.452" y1="181.447" x2="115.217" y2="181.619" stroke="#141414" stroke-width="0.4"/>
<line x1="167.24" y1="113.262" x2="166.288" y2="113.175" stroke="#141414" stroke-width="0.4"/>
<line x1="166.288" y1="113.175" x2="158.558" y2="74.091" stroke="#141414" stroke-width="0.4"/>
<line x1="158.558" y1="74.091" x2="158.495" y2="73.806" stroke="#141414" stroke-width="0.4"/>
<line x1="147.224" y1="156.945" x2="146.352" y2="145.677" stroke="#141414" stroke-width="0.4"/>
<line x1="146.352" y1="145.677" x2="118.274" y2="115.238" stroke="#141414" stroke-width="0.4"/>
<line x1="118.274" y1="115.238" x2="107.112" y2="113.461" stroke="#141414" stroke-width="0.4"/>
<line x1="190.5" y1="49.133" x2="188.449" y2="38.018" stroke="#141414" stroke-width="0.4"/>
<line x1="188.449" y1="38.018" x2="157.326" y2="10.698" stroke="#141414" stroke-width="0.4"/>
<line x1="157.326" y1="10.698" x2="146.039" y2="10.104" stroke="#141414" stroke-width="0.4"/>
<circle cx="27.928" cy="148.416" r="1.66" fill="#ffe082" stroke="#464646" stroke-width="0.2"/>
<text x="27.928" y="148.99" font-size="1.63" text-anchor="middle" fill="#141414">1</text>
<circle cx="73.182" cy="114.42" r="1.66" fill="#ffe082" stroke="#464646" stroke-width="0.2"/>
<text x="73.182" y="114.99" font-size="1.63" text-anchor="middle" fill="#141414">2</text>
<circle cx="116.459" cy="6.603" r="1.66" fill="#ffe082" stroke="#464646" stroke-width="0.2"/>
<text x="116.459" y="7.17" font-size="1.63" text-anchor="middle" fill="#141414">5</text>
<circle cx="39.292" cy="204.393" r="1.66" fill="#ffe082" stroke="#464646" stroke-width="0.2"/>
<text x="39.292" y="204.96" font-size="1.63" text-anchor="middle" fill="#141414">6</text>
<circle cx="138.666" cy="190.78" r="1.66" fill="#ffe082" stroke="#464646" stroke-width="0.2"/>
<text x="138.666" y="191.35" font-size="1.63" text-anchor="middle" fill="#141414">7</text>
<circle cx="129.741" cy="132.83" r="1.66" fill="#ffe082" stroke="#464646" stroke-width="0.2"/>
<text x="129.741" y="133.40" font-size="1.63" text-anchor="middle" fill="#141414">10</text>
<circle cx="170.578" cy="26.988" r="1.66" fill="#ffe082" stroke="#464646" stroke-width="0.2"/>
<text x="170.578" y="27.56" font-size="1.63" text-anchor="middle" fill="#141414">11</text>
<circle cx="97.75" cy="235.494" r="4.6" fill="#eaf1fe" stroke="#2e78e6" stroke-width="0.3"/>
<text x="97.75" y="237.294" font-size="5.2" text-anchor="middle" fill="#14306e" font-weight="bold">1</text>
<polygon points="11.243,260.016 6.189,260.767 5.206,267.547 9.839,269.702" fill="rgb(216,216,216)"/>
<polygon points="9.839,269.702 10.52,271.302 22.451,266.693 22.734,266.626" fill="rgb(216,216,216)"/>
<polygon points="8.499,250.62 8.95,248.941 21.408,251.837 21.698,251.865" fill="rgb(216,216,216)"/>
<polygon points="8.805,248.777 11.303,240.742 32.203,234.575 38.662,239.967" fill="rgb(216,216,216)"/>
<polygon points="10.399,271.484 22.309,280.321 27.237,281.049 41.194,276.037" fill="rgb(216,216,216)"/>
<polygon points="73.729,266.35 78.361,268.505 77.379,275.286 72.325,276.037" fill="rgb(216,216,216)"/>
<polygon points="73.729,266.35 73.047,264.75 61.117,269.359 60.833,269.426" fill="rgb(216,216,216)"/>
<polygon points="72.231,245.013 71.78,246.692 59.322,243.796 59.032,243.768" fill="rgb(216,216,216)"/>
<polygon points="73.198,255.666 60.123,248.666 55.142,248.666 42.068,255.666" fill="rgb(216,216,216)"/>
<polygon points="73.198,255.666 61.23,264.424 56.297,265.12 42.373,260.016" fill="rgb(216,216,216)"/>
<polygon points="69.487,235.618 63.886,229.338 42.308,232.383 38.662,239.967" fill="rgb(216,216,216)"/>
<line x1="22.734" y1="266.626" x2="11.243" y2="260.016" stroke="#8c8c8c" stroke-width="0.3" stroke-dasharray="1.2,0.8"/>
<line x1="21.698" y1="251.865" x2="11.243" y2="260.016" stroke="#8c8c8c" stroke-width="0.3" stroke-dasharray="1.2,0.8"/>
<line x1="42.068" y1="255.666" x2="11.243" y2="260.016" stroke="#8c8c8c" stroke-width="0.3" stroke-dasharray="1.2,0.8"/>
<line x1="11.243" y1="260.016" x2="42.373" y2="260.016" stroke="#8c8c8c" stroke-width="0.3" stroke-dasharray="1.2,0.8"/>
<line x1="60.833" y1="269.426" x2="72.325" y2="276.037" stroke="#8c8c8c" stroke-width="0.3" stroke-dasharray="1.2,0.8"/>
<line x1="59.032" y1="243.768" x2="69.487" y2="235.618" stroke="#8c8c8c" stroke-width="0.3" stroke-dasharray="1.2,0.8"/>
<line x1="72.325" y1="276.037" x2="41.194" y2="276.037" stroke="#8c8c8c" stroke-width="0.3" stroke-dasharray="1.2,0.8"/>
<line x1="60.833" y1="269.426" x2="22.734" y2="266.626" stroke="#8c8c8c" stroke-width="0.3" stroke-dasharray="1.2,0.8"/>
<line x1="41.194" y1="276.037" x2="60.833" y2="269.426" stroke="#8c8c8c" stroke-width="0.3" stroke-dasharray="1.2,0.8"/>
<line x1="42.373" y1="260.016" x2="60.833" y2="269.426" stroke="#8c8c8c" stroke-width="0.3" stroke-dasharray="1.2,0.8"/>
<line x1="22.734" y1="266.626" x2="41.194" y2="276.037" stroke="#8c8c8c" stroke-width="0.3" stroke-dasharray="1.2,0.8"/>
<line x1="42.373" y1="260.016" x2="22.734" y2="266.626" stroke="#8c8c8c" stroke-width="0.3" stroke-dasharray="1.2,0.8"/>
<line x1="21.698" y1="251.865" x2="59.032" y2="243.768" stroke="#8c8c8c" stroke-width="0.3" stroke-dasharray="1.2,0.8"/>
<line x1="59.032" y1="243.768" x2="38.662" y2="239.967" stroke="#8c8c8c" stroke-width="0.3" stroke-dasharray="1.2,0.8"/>
<line x1="59.032" y1="243.768" x2="42.068" y2="255.666" stroke="#8c8c8c" stroke-width="0.3" stroke-dasharray="1.2,0.8"/>
<line x1="38.662" y1="239.967" x2="21.698" y2="251.865" stroke="#8c8c8c" stroke-width="0.3" stroke-dasharray="1.2,0.8"/>
<line x1="21.698" y1="251.865" x2="42.068" y2="255.666" stroke="#8c8c8c" stroke-width="0.3" stroke-dasharray="1.2,0.8"/>
<line x1="41.5" y1="280.386" x2="41.194" y2="276.037" stroke="#8c8c8c" stroke-width="0.3" stroke-dasharray="1.2,0.8"/>
<line x1="42.068" y1="255.666" x2="42.373" y2="260.016" stroke="#8c8c8c" stroke-width="0.3" stroke-dasharray="1.2,0.8"/>
<line x1="9.839" y1="269.702" x2="11.243" y2="260.016" stroke="#8c8c8c" stroke-width="0.3" stroke-dasharray="1.2,0.8"/>
<line x1="22.734" y1="266.626" x2="9.839" y2="269.702" stroke="#8c8c8c" stroke-width="0.3" stroke-dasharray="1.2,0.8"/>
<line x1="21.698" y1="251.865" x2="8.499" y2="250.62" stroke="#8c8c8c" stroke-width="0.3" stroke-dasharray="1.2,0.8"/>
<line x1="38.662" y1="239.967" x2="8.805" y2="248.777" stroke="#8c8c8c" stroke-width="0.3" stroke-dasharray="1.2,0.8"/>
<line x1="41.194" y1="276.037" x2="10.399" y2="271.484" stroke="#8c8c8c" stroke-width="0.3" stroke-dasharray="1.2,0.8"/>
<line x1="72.325" y1="276.037" x2="73.729" y2="266.35" stroke="#8c8c8c" stroke-width="0.3" stroke-dasharray="1.2,0.8"/>
<line x1="60.833" y1="269.426" x2="73.729" y2="266.35" stroke="#8c8c8c" stroke-width="0.3" stroke-dasharray="1.2,0.8"/>
<line x1="59.032" y1="243.768" x2="72.231" y2="245.013" stroke="#8c8c8c" stroke-width="0.3" stroke-dasharray="1.2,0.8"/>
<line x1="42.068" y1="255.666" x2="73.198" y2="255.666" stroke="#8c8c8c" stroke-width="0.3" stroke-dasharray="1.2,0.8"/>
<line x1="42.373" y1="260.016" x2="73.198" y2="255.666" stroke="#8c8c8c" stroke-width="0.3" stroke-dasharray="1.2,0.8"/>
<line x1="38.662" y1="239.967" x2="69.487" y2="235.618" stroke="#8c8c8c" stroke-width="0.3" stroke-dasharray="1.2,0.8"/>
<line x1="11.243" y1="260.016" x2="8.499" y2="250.62" stroke="#141414" stroke-width="0.4"/>
<line x1="10.399" y1="271.484" x2="22.734" y2="266.626" stroke="#141414" stroke-width="0.4"/>
<line x1="21.698" y1="251.865" x2="8.805" y2="248.777" stroke="#141414" stroke-width="0.4"/>
<line x1="41.5" y1="280.386" x2="10.37" y2="280.386" stroke="#141414" stroke-width="0.4"/>
<line x1="10.37" y1="280.386" x2="41.194" y2="276.037" stroke="#141414" stroke-width="0.4"/>
<line x1="69.487" y1="235.618" x2="72.231" y2="245.013" stroke="#141414" stroke-width="0.4"/>
<line x1="73.168" y1="264.568" x2="60.833" y2="269.426" stroke="#141414" stroke-width="0.4"/>
<line x1="59.032" y1="243.768" x2="71.925" y2="246.856" stroke="#141414" stroke-width="0.4"/>
<line x1="71.925" y1="246.856" x2="42.068" y2="255.666" stroke="#141414" stroke-width="0.4"/>
<line x1="42.373" y1="260.016" x2="73.168" y2="264.568" stroke="#141414" stroke-width="0.4"/>
<line x1="72.325" y1="276.037" x2="41.5" y2="280.386" stroke="#141414" stroke-width="0.4"/>
<line x1="11.243" y1="260.016" x2="6.189" y2="260.767" stroke="#141414" stroke-width="0.4"/>
<line x1="6.189" y1="260.767" x2="5.206" y2="267.547" stroke="#141414" stroke-width="0.4"/>
<line x1="5.206" y1="267.547" x2="9.839" y2="269.702" stroke="#141414" stroke-width="0.4"/>
<line x1="9.839" y1="269.702" x2="10.52" y2="271.302" stroke="#141414" stroke-width="0.4"/>
<line x1="10.52" y1="271.302" x2="22.451" y2="266.693" stroke="#141414" stroke-width="0.4"/>
<line x1="22.451" y1="266.693" x2="22.734" y2="266.626" stroke="#141414" stroke-width="0.4"/>
<line x1="8.499" y1="250.62" x2="8.95" y2="248.941" stroke="#141414" stroke-width="0.4"/>
<line x1="8.95" y1="248.941" x2="21.408" y2="251.837" stroke="#141414" stroke-width="0.4"/>
<line x1="21.408" y1="251.837" x2="21.698" y2="251.865" stroke="#141414" stroke-width="0.4"/>
<line x1="8.805" y1="248.777" x2="11.303" y2="240.742" stroke="#141414" stroke-width="0.4"/>
<line x1="11.303" y1="240.742" x2="32.203" y2="234.575" stroke="#141414" stroke-width="0.4"/>
<line x1="32.203" y1="234.575" x2="38.662" y2="239.967" stroke="#141414" stroke-width="0.4"/>
<line x1="10.399" y1="271.484" x2="22.309" y2="280.321" stroke="#141414" stroke-width="0.4"/>
<line x1="22.309" y1="280.321" x2="27.237" y2="281.049" stroke="#141414" stroke-width="0.4"/>
<line x1="27.237" y1="281.049" x2="41.194" y2="276.037" stroke="#141414" stroke-width="0.4"/>
<line x1="73.729" y1="266.35" x2="78.361" y2="268.505" stroke="#141414" stroke-width="0.4"/>
<line x1="78.361" y1="268.505" x2="77.379" y2="275.286" stroke="#141414" stroke-width="0.4"/>
<line x1="77.379" y1="275.286" x2="72.325" y2="276.037" stroke="#141414" stroke-width="0.4"/>
<line x1="73.729" y1="266.35" x2="73.047" y2="264.75" stroke="#141414" stroke-width="0.4"/>
<line x1="73.047" y1="264.75" x2="61.117" y2="269.359" stroke="#141414" stroke-width="0.4"/>
<line x1="61.117" y1="269.359" x2="60.833" y2="269.426" stroke="#141414" stroke-width="0.4"/>
<line x1="72.231" y1="245.013" x2="71.78" y2="246.692" stroke="#141414" stroke-width="0.4"/>
<line x1="71.78" y1="246.692" x2="59.322" y2="243.796" stroke="#141414" stroke-width="0.4"/>
<line x1="59.322" y1="243.796" x2="59.032" y2="243.768" stroke="#141414" stroke-width="0.4"/>
<line x1="73.198" y1="255.666" x2="60.123" y2="248.666" stroke="#141414" stroke-width="0.4"/>
<line x1="60.123" y1="248.666" x2="55.142" y2="248.666" stroke="#141414" stroke-width="0.4"/>
<line x1="55.142" y1="248.666" x2="42.068" y2="255.666" stroke="#141414" stroke-width="0.4"/>
<line x1="73.198" y1="255.666" x2="61.23" y2="264.424" stroke="#141414" stroke-width="0.4"/>
<line x1="61.23" y1="264.424" x2="56.297" y2="265.12" stroke="#141414" stroke-width="0.4"/>
<line x1="56.297" y1="265.12" x2="42.373" y2="260.016" stroke="#141414" stroke-width="0.4"/>
<line x1="69.487" y1="235.618" x2="63.886" y2="229.338" stroke="#141414" stroke-width="0.4"/>
<line x1="63.886" y1="229.338" x2="42.308" y2="232.383" stroke="#141414" stroke-width="0.4"/>
<line x1="42.308" y1="232.383" x2="38.662" y2="239.967" stroke="#141414" stroke-width="0.4"/>
<circle cx="8.119" cy="264.508" r="1.66" fill="#ffe082" stroke="#464646" stroke-width="0.2"/>
<text x="8.119" y="265.08" font-size="1.63" text-anchor="middle" fill="#141414">12</text>
<circle cx="22.743" cy="241.015" r="1.66" fill="#ffe082" stroke="#464646" stroke-width="0.2"/>
<text x="22.743" y="241.59" font-size="1.63" text-anchor="middle" fill="#141414">15</text>
<circle cx="25.285" cy="277.223" r="1.66" fill="#ffe082" stroke="#464646" stroke-width="0.2"/>
<text x="25.285" y="277.79" font-size="1.63" text-anchor="middle" fill="#141414">16</text>
<circle cx="75.448" cy="271.545" r="1.66" fill="#ffe082" stroke="#464646" stroke-width="0.2"/>
<text x="75.448" y="272.12" font-size="1.63" text-anchor="middle" fill="#141414">17</text>
<circle cx="57.633" cy="252.166" r="1.66" fill="#ffe082" stroke="#464646" stroke-width="0.2"/>
<text x="57.633" y="252.74" font-size="1.63" text-anchor="middle" fill="#141414">20</text>
<circle cx="58.274" cy="261.306" r="1.66" fill="#ffe082" stroke="#464646" stroke-width="0.2"/>
<text x="58.274" y="261.88" font-size="1.63" text-anchor="middle" fill="#141414">21</text>
<circle cx="53.586" cy="234.326" r="1.66" fill="#ffe082" stroke="#464646" stroke-width="0.2"/>
<text x="53.586" y="234.90" font-size="1.63" text-anchor="middle" fill="#141414">22</text>
<circle cx="41.578" cy="226.294" r="4.6" fill="#eaf1fe" stroke="#2e78e6" stroke-width="0.3"/>
<text x="41.578" y="228.09400000000002" font-size="5.2" text-anchor="middle" fill="#14306e" font-weight="bold">2</text>
<polygon points="88.279,257.403 83.634,257.352 81.779,263.298 85.628,265.897" fill="rgb(216,216,216)"/>
<polygon points="85.628,265.897 86.611,267.975 92.661,263.607 92.938,263.517" fill="rgb(216,216,216)"/>
<polygon points="83.08,250.182 83.355,247.9 90.475,250.131 90.767,250.129" fill="rgb(216,216,216)"/>
<polygon points="83.473,247.701 81.284,240.786 89.322,235.309 94.956,239.877" fill="rgb(216,216,216)"/>
<polygon points="86.786,268.127 90.503,276.403 92.642,277.01 100.153,271.92" fill="rgb(216,216,216)"/>
<polygon points="116.699,263.426 120.548,266.026 118.693,271.971 114.048,271.92" fill="rgb(216,216,216)"/>
<polygon points="116.699,263.426 115.715,261.348 109.666,265.716 109.389,265.806" fill="rgb(216,216,216)"/>
<polygon points="113.338,242.706 113.062,244.988 105.942,242.756 105.651,242.758" fill="rgb(216,216,216)"/>
<polygon points="115.356,253.011 109.52,246.064 107.297,246.064 101.462,253.011" fill="rgb(216,216,216)"/>
<polygon points="115.356,253.011 112.016,261.447 109.907,262.149 102.174,257.403" fill="rgb(216,216,216)"/>
<polygon points="108.139,235.485 103.966,229.552 94.738,232.626 94.956,239.877" fill="rgb(216,216,216)"/>
<line x1="92.938" y1="263.517" x2="88.279" y2="257.403" stroke="#8c8c8c" stroke-width="0.3" stroke-dasharray="1.2,0.8"/>
<line x1="90.767" y1="250.129" x2="88.279" y2="257.403" stroke="#8c8c8c" stroke-width="0.3" stroke-dasharray="1.2,0.8"/>
<line x1="101.462" y1="253.011" x2="88.279" y2="257.403" stroke="#8c8c8c" stroke-width="0.3" stroke-dasharray="1.2,0.8"/>
<line x1="88.279" y1="257.403" x2="102.174" y2="257.403" stroke="#8c8c8c" stroke-width="0.3" stroke-dasharray="1.2,0.8"/>
<line x1="109.389" y1="265.806" x2="114.048" y2="271.92" stroke="#8c8c8c" stroke-width="0.3" stroke-dasharray="1.2,0.8"/>
<line x1="105.651" y1="242.758" x2="108.139" y2="235.485" stroke="#8c8c8c" stroke-width="0.3" stroke-dasharray="1.2,0.8"/>
<line x1="114.048" y1="271.92" x2="100.153" y2="271.92" stroke="#8c8c8c" stroke-width="0.3" stroke-dasharray="1.2,0.8"/>
<line x1="109.389" y1="265.806" x2="92.938" y2="263.517" stroke="#8c8c8c" stroke-width="0.3" stroke-dasharray="1.2,0.8"/>
<line x1="100.153" y1="271.92" x2="109.389" y2="265.806" stroke="#8c8c8c" stroke-width="0.3" stroke-dasharray="1.2,0.8"/>
<line x1="102.174" y1="257.403" x2="109.389" y2="265.806" stroke="#8c8c8c" stroke-width="0.3" stroke-dasharray="1.2,0.8"/>
<line x1="92.938" y1="263.517" x2="100.153" y2="271.92" stroke="#8c8c8c" stroke-width="0.3" stroke-dasharray="1.2,0.8"/>
<line x1="102.174" y1="257.403" x2="92.938" y2="263.517" stroke="#8c8c8c" stroke-width="0.3" stroke-dasharray="1.2,0.8"/>
<line x1="90.767" y1="250.129" x2="105.651" y2="242.758" stroke="#8c8c8c" stroke-width="0.3" stroke-dasharray="1.2,0.8"/>
<line x1="105.651" y1="242.758" x2="94.956" y2="239.877" stroke="#8c8c8c" stroke-width="0.3" stroke-dasharray="1.2,0.8"/>
<line x1="105.651" y1="242.758" x2="101.462" y2="253.011" stroke="#8c8c8c" stroke-width="0.3" stroke-dasharray="1.2,0.8"/>
<line x1="94.956" y1="239.877" x2="90.767" y2="250.129" stroke="#8c8c8c" stroke-width="0.3" stroke-dasharray="1.2,0.8"/>
<line x1="90.767" y1="250.129" x2="101.462" y2="253.011" stroke="#8c8c8c" stroke-width="0.3" stroke-dasharray="1.2,0.8"/>
<line x1="100.865" y1="276.312" x2="100.153" y2="271.92" stroke="#8c8c8c" stroke-width="0.3" stroke-dasharray="1.2,0.8"/>
<line x1="101.462" y1="253.011" x2="102.174" y2="257.403" stroke="#8c8c8c" stroke-width="0.3" stroke-dasharray="1.2,0.8"/>
<line x1="85.628" y1="265.897" x2="88.279" y2="257.403" stroke="#8c8c8c" stroke-width="0.3" stroke-dasharray="1.2,0.8"/>
<line x1="92.938" y1="263.517" x2="85.628" y2="265.897" stroke="#8c8c8c" stroke-width="0.3" stroke-dasharray="1.2,0.8"/>
<line x1="90.767" y1="250.129" x2="83.08" y2="250.182" stroke="#8c8c8c" stroke-width="0.3" stroke-dasharray="1.2,0.8"/>
<line x1="94.956" y1="239.877" x2="83.473" y2="247.701" stroke="#8c8c8c" stroke-width="0.3" stroke-dasharray="1.2,0.8"/>
<line x1="100.153" y1="271.92" x2="86.786" y2="268.127" stroke="#8c8c8c" stroke-width="0.3" stroke-dasharray="1.2,0.8"/>
<line x1="114.048" y1="271.92" x2="116.699" y2="263.426" stroke="#8c8c8c" stroke-width="0.3" stroke-dasharray="1.2,0.8"/>
<line x1="109.389" y1="265.806" x2="116.699" y2="263.426" stroke="#8c8c8c" stroke-width="0.3" stroke-dasharray="1.2,0.8"/>
<line x1="105.651" y1="242.758" x2="113.338" y2="242.706" stroke="#8c8c8c" stroke-width="0.3" stroke-dasharray="1.2,0.8"/>
<line x1="101.462" y1="253.011" x2="115.356" y2="253.011" stroke="#8c8c8c" stroke-width="0.3" stroke-dasharray="1.2,0.8"/>
<line x1="102.174" y1="257.403" x2="115.356" y2="253.011" stroke="#8c8c8c" stroke-width="0.3" stroke-dasharray="1.2,0.8"/>
<line x1="94.956" y1="239.877" x2="108.139" y2="235.485" stroke="#8c8c8c" stroke-width="0.3" stroke-dasharray="1.2,0.8"/>
<line x1="88.279" y1="257.403" x2="83.08" y2="250.182" stroke="#141414" stroke-width="0.4"/>
<line x1="86.786" y1="268.127" x2="92.938" y2="263.517" stroke="#141414" stroke-width="0.4"/>
<line x1="90.767" y1="250.129" x2="83.473" y2="247.701" stroke="#141414" stroke-width="0.4"/>
<line x1="100.865" y1="276.312" x2="86.97" y2="276.311" stroke="#141414" stroke-width="0.4"/>
<line x1="86.97" y1="276.311" x2="100.153" y2="271.92" stroke="#141414" stroke-width="0.4"/>
<line x1="108.139" y1="235.485" x2="113.338" y2="242.706" stroke="#141414" stroke-width="0.4"/>
<line x1="115.541" y1="261.197" x2="109.389" y2="265.806" stroke="#141414" stroke-width="0.4"/>
<line x1="105.651" y1="242.758" x2="112.944" y2="245.187" stroke="#141414" stroke-width="0.4"/>
<line x1="112.944" y1="245.187" x2="101.462" y2="253.011" stroke="#141414" stroke-width="0.4"/>
<line x1="102.174" y1="257.403" x2="115.541" y2="261.197" stroke="#141414" stroke-width="0.4"/>
<line x1="114.048" y1="271.92" x2="100.865" y2="276.312" stroke="#141414" stroke-width="0.4"/>
<line x1="88.279" y1="257.403" x2="83.634" y2="257.352" stroke="#141414" stroke-width="0.4"/>
<line x1="83.634" y1="257.352" x2="81.779" y2="263.298" stroke="#141414" stroke-width="0.4"/>
<line x1="81.779" y1="263.298" x2="85.628" y2="265.897" stroke="#141414" stroke-width="0.4"/>
<line x1="85.628" y1="265.897" x2="86.611" y2="267.975" stroke="#141414" stroke-width="0.4"/>
<line x1="86.611" y1="267.975" x2="92.661" y2="263.607" stroke="#141414" stroke-width="0.4"/>
<line x1="92.661" y1="263.607" x2="92.938" y2="263.517" stroke="#141414" stroke-width="0.4"/>
<line x1="83.08" y1="250.182" x2="83.355" y2="247.9" stroke="#141414" stroke-width="0.4"/>
<line x1="83.355" y1="247.9" x2="90.475" y2="250.131" stroke="#141414" stroke-width="0.4"/>
<line x1="90.475" y1="250.131" x2="90.767" y2="250.129" stroke="#141414" stroke-width="0.4"/>
<line x1="83.473" y1="247.701" x2="81.284" y2="240.786" stroke="#141414" stroke-width="0.4"/>
<line x1="81.284" y1="240.786" x2="89.322" y2="235.309" stroke="#141414" stroke-width="0.4"/>
<line x1="89.322" y1="235.309" x2="94.956" y2="239.877" stroke="#141414" stroke-width="0.4"/>
<line x1="86.786" y1="268.127" x2="90.503" y2="276.403" stroke="#141414" stroke-width="0.4"/>
<line x1="90.503" y1="276.403" x2="92.642" y2="277.01" stroke="#141414" stroke-width="0.4"/>
<line x1="92.642" y1="277.01" x2="100.153" y2="271.92" stroke="#141414" stroke-width="0.4"/>
<line x1="116.699" y1="263.426" x2="120.548" y2="266.026" stroke="#141414" stroke-width="0.4"/>
<line x1="120.548" y1="266.026" x2="118.693" y2="271.971" stroke="#141414" stroke-width="0.4"/>
<line x1="118.693" y1="271.971" x2="114.048" y2="271.92" stroke="#141414" stroke-width="0.4"/>
<line x1="116.699" y1="263.426" x2="115.715" y2="261.348" stroke="#141414" stroke-width="0.4"/>
<line x1="115.715" y1="261.348" x2="109.666" y2="265.716" stroke="#141414" stroke-width="0.4"/>
<line x1="109.666" y1="265.716" x2="109.389" y2="265.806" stroke="#141414" stroke-width="0.4"/>
<line x1="113.338" y1="242.706" x2="113.062" y2="244.988" stroke="#141414" stroke-width="0.4"/>
<line x1="113.062" y1="244.988" x2="105.942" y2="242.756" stroke="#141414" stroke-width="0.4"/>
<line x1="105.942" y1="242.756" x2="105.651" y2="242.758" stroke="#141414" stroke-width="0.4"/>
<line x1="115.356" y1="253.011" x2="109.52" y2="246.064" stroke="#141414" stroke-width="0.4"/>
<line x1="109.52" y1="246.064" x2="107.297" y2="246.064" stroke="#141414" stroke-width="0.4"/>
<line x1="107.297" y1="246.064" x2="101.462" y2="253.011" stroke="#141414" stroke-width="0.4"/>
<line x1="115.356" y1="253.011" x2="112.016" y2="261.447" stroke="#141414" stroke-width="0.4"/>
<line x1="112.016" y1="261.447" x2="109.907" y2="262.149" stroke="#141414" stroke-width="0.4"/>
<line x1="109.907" y1="262.149" x2="102.174" y2="257.403" stroke="#141414" stroke-width="0.4"/>
<line x1="108.139" y1="235.485" x2="103.966" y2="229.552" stroke="#141414" stroke-width="0.4"/>
<line x1="103.966" y1="229.552" x2="94.738" y2="232.626" stroke="#141414" stroke-width="0.4"/>
<line x1="94.738" y1="232.626" x2="94.956" y2="239.877" stroke="#141414" stroke-width="0.4"/>
<circle cx="84.83" cy="260.987" r="1.66" fill="#ffe082" stroke="#464646" stroke-width="0.2"/>
<text x="84.83" y="261.56" font-size="1.63" text-anchor="middle" fill="#141414">100</text>
<circle cx="87.259" cy="240.918" r="1.66" fill="#ffe082" stroke="#464646" stroke-width="0.2"/>
<text x="87.259" y="241.49" font-size="1.63" text-anchor="middle" fill="#141414">103</text>
<circle cx="92.521" cy="273.365" r="1.66" fill="#ffe082" stroke="#464646" stroke-width="0.2"/>
<text x="92.521" y="273.94" font-size="1.63" text-anchor="middle" fill="#141414">104</text>
<circle cx="117.497" cy="268.336" r="1.66" fill="#ffe082" stroke="#464646" stroke-width="0.2"/>
<text x="117.497" y="268.91" font-size="1.63" text-anchor="middle" fill="#141414">105</text>
<circle cx="108.409" cy="249.537" r="1.66" fill="#ffe082" stroke="#464646" stroke-width="0.2"/>
<text x="108.409" y="250.11" font-size="1.63" text-anchor="middle" fill="#141414">108</text>
<circle cx="109.863" cy="258.502" r="1.66" fill="#ffe082" stroke="#464646" stroke-width="0.2"/>
<text x="109.863" y="259.07" font-size="1.63" text-anchor="middle" fill="#141414">109</text>
<circle cx="100.45" cy="234.385" r="1.66" fill="#ffe082" stroke="#464646" stroke-width="0.2"/>
<text x="100.45" y="234.96" font-size="1.63" text-anchor="middle" fill="#141414">110</text>
<circle cx="100.788" cy="226.294" r="4.6" fill="#eaf1fe" stroke="#2e78e6" stroke-width="0.3"/>
<text x="100.788" y="228.09400000000002" font-size="5.2" text-anchor="middle" fill="#14306e" font-weight="bold">10</text>
<polygon points="139.753,256.698 134.565,256.777 132.78,259.856 135.291,264.396" fill="rgb(216,216,216)"/>
<polygon points="135.291,264.396 138.971,268.565 140.333,268.531 143.803,264.187" fill="rgb(216,216,216)"/>
<polygon points="130.869,256.19 129.412,250.825 130.189,249.705 135.725,249.196" fill="rgb(216,216,216)"/>
<polygon points="127.212,249.031 124.051,245.731 127.07,240.4 131.526,241.414" fill="rgb(216,216,216)"/>
<polygon points="139.26,271.388 142.635,276.001 144.033,276.095 147.994,271.974" fill="rgb(216,216,216)"/>
<polygon points="161.208,264.275 164.389,267.661 161.266,273.05 156.747,271.974" fill="rgb(216,216,216)"/>
<polygon points="161.208,264.275 157.529,260.107 156.167,260.141 152.696,264.485" fill="rgb(216,216,216)"/>
<polygon points="145.223,234.61 146.681,239.976 145.904,241.095 140.367,241.605" fill="rgb(216,216,216)"/>
<polygon points="153.32,249.387 149.643,245.01 148.243,245.01 144.566,249.387" fill="rgb(216,216,216)"/>
<polygon points="153.32,249.387 154.954,254.864 154.184,256.034 148.506,256.698" fill="rgb(216,216,216)"/>
<polygon points="136.34,234.103 131.962,232.793 128.592,237.91 131.526,241.414" fill="rgb(216,216,216)"/>
<line x1="143.803" y1="264.187" x2="139.753" y2="256.698" stroke="#8c8c8c" stroke-width="0.3" stroke-dasharray="1.2,0.8"/>
<line x1="135.725" y1="249.196" x2="139.753" y2="256.698" stroke="#8c8c8c" stroke-width="0.3" stroke-dasharray="1.2,0.8"/>
<line x1="144.566" y1="249.387" x2="139.753" y2="256.698" stroke="#8c8c8c" stroke-width="0.3" stroke-dasharray="1.2,0.8"/>
<line x1="139.753" y1="256.698" x2="148.506" y2="256.698" stroke="#8c8c8c" stroke-width="0.3" stroke-dasharray="1.2,0.8"/>
<line x1="152.696" y1="264.485" x2="156.747" y2="271.974" stroke="#8c8c8c" stroke-width="0.3" stroke-dasharray="1.2,0.8"/>
<line x1="140.367" y1="241.605" x2="136.34" y2="234.103" stroke="#8c8c8c" stroke-width="0.3" stroke-dasharray="1.2,0.8"/>
<line x1="156.747" y1="271.974" x2="147.994" y2="271.974" stroke="#8c8c8c" stroke-width="0.3" stroke-dasharray="1.2,0.8"/>
<line x1="152.696" y1="264.485" x2="143.803" y2="264.187" stroke="#8c8c8c" stroke-width="0.3" stroke-dasharray="1.2,0.8"/>
<line x1="147.994" y1="271.974" x2="152.696" y2="264.485" stroke="#8c8c8c" stroke-width="0.3" stroke-dasharray="1.2,0.8"/>
<line x1="148.506" y1="256.698" x2="152.696" y2="264.485" stroke="#8c8c8c" stroke-width="0.3" stroke-dasharray="1.2,0.8"/>
<line x1="143.803" y1="264.187" x2="147.994" y2="271.974" stroke="#8c8c8c" stroke-width="0.3" stroke-dasharray="1.2,0.8"/>
<line x1="148.506" y1="256.698" x2="143.803" y2="264.187" stroke="#8c8c8c" stroke-width="0.3" stroke-dasharray="1.2,0.8"/>
<line x1="135.725" y1="249.196" x2="140.367" y2="241.605" stroke="#8c8c8c" stroke-width="0.3" stroke-dasharray="1.2,0.8"/>
<line x1="140.367" y1="241.605" x2="131.526" y2="241.414" stroke="#8c8c8c" stroke-width="0.3" stroke-dasharray="1.2,0.8"/>
<line x1="140.367" y1="241.605" x2="144.566" y2="249.387" stroke="#8c8c8c" stroke-width="0.3" stroke-dasharray="1.2,0.8"/>
<line x1="131.526" y1="241.414" x2="135.725" y2="249.196" stroke="#8c8c8c" stroke-width="0.3" stroke-dasharray="1.2,0.8"/>
<line x1="135.725" y1="249.196" x2="144.566" y2="249.387" stroke="#8c8c8c" stroke-width="0.3" stroke-dasharray="1.2,0.8"/>
<line x1="151.933" y1="279.285" x2="147.994" y2="271.974" stroke="#8c8c8c" stroke-width="0.3" stroke-dasharray="1.2,0.8"/>
<line x1="144.566" y1="249.387" x2="148.506" y2="256.698" stroke="#8c8c8c" stroke-width="0.3" stroke-dasharray="1.2,0.8"/>
<line x1="135.291" y1="264.396" x2="139.753" y2="256.698" stroke="#8c8c8c" stroke-width="0.3" stroke-dasharray="1.2,0.8"/>
<line x1="143.803" y1="264.187" x2="135.291" y2="264.396" stroke="#8c8c8c" stroke-width="0.3" stroke-dasharray="1.2,0.8"/>
<line x1="135.725" y1="249.196" x2="130.869" y2="256.19" stroke="#8c8c8c" stroke-width="0.3" stroke-dasharray="1.2,0.8"/>
<line x1="131.526" y1="241.414" x2="127.212" y2="249.031" stroke="#8c8c8c" stroke-width="0.3" stroke-dasharray="1.2,0.8"/>
<line x1="147.994" y1="271.974" x2="139.26" y2="271.388" stroke="#8c8c8c" stroke-width="0.3" stroke-dasharray="1.2,0.8"/>
<line x1="156.747" y1="271.974" x2="161.208" y2="264.275" stroke="#8c8c8c" stroke-width="0.3" stroke-dasharray="1.2,0.8"/>
<line x1="152.696" y1="264.485" x2="161.208" y2="264.275" stroke="#8c8c8c" stroke-width="0.3" stroke-dasharray="1.2,0.8"/>
<line x1="140.367" y1="241.605" x2="145.223" y2="234.61" stroke="#8c8c8c" stroke-width="0.3" stroke-dasharray="1.2,0.8"/>
<line x1="144.566" y1="249.387" x2="153.32" y2="249.387" stroke="#8c8c8c" stroke-width="0.3" stroke-dasharray="1.2,0.8"/>
<line x1="148.506" y1="256.698" x2="153.32" y2="249.387" stroke="#8c8c8c" stroke-width="0.3" stroke-dasharray="1.2,0.8"/>
<line x1="131.526" y1="241.414" x2="136.34" y2="234.103" stroke="#8c8c8c" stroke-width="0.3" stroke-dasharray="1.2,0.8"/>
<line x1="139.753" y1="256.698" x2="130.869" y2="256.19" stroke="#141414" stroke-width="0.4"/>
<line x1="139.26" y1="271.388" x2="143.803" y2="264.187" stroke="#141414" stroke-width="0.4"/>
<line x1="135.725" y1="249.196" x2="127.212" y2="249.031" stroke="#141414" stroke-width="0.4"/>
<line x1="151.933" y1="279.285" x2="143.18" y2="279.285" stroke="#141414" stroke-width="0.4"/>
<line x1="143.18" y1="279.285" x2="147.994" y2="271.974" stroke="#141414" stroke-width="0.4"/>
<line x1="136.34" y1="234.103" x2="145.223" y2="234.61" stroke="#141414" stroke-width="0.4"/>
<line x1="157.24" y1="257.284" x2="152.696" y2="264.485" stroke="#141414" stroke-width="0.4"/>
<line x1="140.367" y1="241.605" x2="148.88" y2="241.77" stroke="#141414" stroke-width="0.4"/>
<line x1="148.88" y1="241.77" x2="144.566" y2="249.387" stroke="#141414" stroke-width="0.4"/>
<line x1="148.506" y1="256.698" x2="157.24" y2="257.284" stroke="#141414" stroke-width="0.4"/>
<line x1="156.747" y1="271.974" x2="151.933" y2="279.285" stroke="#141414" stroke-width="0.4"/>
<line x1="139.753" y1="256.698" x2="134.565" y2="256.777" stroke="#141414" stroke-width="0.4"/>
<line x1="134.565" y1="256.777" x2="132.78" y2="259.856" stroke="#141414" stroke-width="0.4"/>
<line x1="132.78" y1="259.856" x2="135.291" y2="264.396" stroke="#141414" stroke-width="0.4"/>
<line x1="135.291" y1="264.396" x2="138.971" y2="268.565" stroke="#141414" stroke-width="0.4"/>
<line x1="138.971" y1="268.565" x2="140.333" y2="268.531" stroke="#141414" stroke-width="0.4"/>
<line x1="140.333" y1="268.531" x2="143.803" y2="264.187" stroke="#141414" stroke-width="0.4"/>
<line x1="130.869" y1="256.19" x2="129.412" y2="250.825" stroke="#141414" stroke-width="0.4"/>
<line x1="129.412" y1="250.825" x2="130.189" y2="249.705" stroke="#141414" stroke-width="0.4"/>
<line x1="130.189" y1="249.705" x2="135.725" y2="249.196" stroke="#141414" stroke-width="0.4"/>
<line x1="127.212" y1="249.031" x2="124.051" y2="245.731" stroke="#141414" stroke-width="0.4"/>
<line x1="124.051" y1="245.731" x2="127.07" y2="240.4" stroke="#141414" stroke-width="0.4"/>
<line x1="127.07" y1="240.4" x2="131.526" y2="241.414" stroke="#141414" stroke-width="0.4"/>
<line x1="139.26" y1="271.388" x2="142.635" y2="276.001" stroke="#141414" stroke-width="0.4"/>
<line x1="142.635" y1="276.001" x2="144.033" y2="276.095" stroke="#141414" stroke-width="0.4"/>
<line x1="144.033" y1="276.095" x2="147.994" y2="271.974" stroke="#141414" stroke-width="0.4"/>
<line x1="161.208" y1="264.275" x2="164.389" y2="267.661" stroke="#141414" stroke-width="0.4"/>
<line x1="164.389" y1="267.661" x2="161.266" y2="273.05" stroke="#141414" stroke-width="0.4"/>
<line x1="161.266" y1="273.05" x2="156.747" y2="271.974" stroke="#141414" stroke-width="0.4"/>
<line x1="161.208" y1="264.275" x2="157.529" y2="260.107" stroke="#141414" stroke-width="0.4"/>
<line x1="157.529" y1="260.107" x2="156.167" y2="260.141" stroke="#141414" stroke-width="0.4"/>
<line x1="156.167" y1="260.141" x2="152.696" y2="264.485" stroke="#141414" stroke-width="0.4"/>
<line x1="145.223" y1="234.61" x2="146.681" y2="239.976" stroke="#141414" stroke-width="0.4"/>
<line x1="146.681" y1="239.976" x2="145.904" y2="241.095" stroke="#141414" stroke-width="0.4"/>
<line x1="145.904" y1="241.095" x2="140.367" y2="241.605" stroke="#141414" stroke-width="0.4"/>
<line x1="153.32" y1="249.387" x2="149.643" y2="245.01" stroke="#141414" stroke-width="0.4"/>
<line x1="149.643" y1="245.01" x2="148.243" y2="245.01" stroke="#141414" stroke-width="0.4"/>
<line x1="148.243" y1="245.01" x2="144.566" y2="249.387" stroke="#141414" stroke-width="0.4"/>
<line x1="153.32" y1="249.387" x2="154.954" y2="254.864" stroke="#141414" stroke-width="0.4"/>
<line x1="154.954" y1="254.864" x2="154.184" y2="256.034" stroke="#141414" stroke-width="0.4"/>
<line x1="154.184" y1="256.034" x2="148.506" y2="256.698" stroke="#141414" stroke-width="0.4"/>
<line x1="136.34" y1="234.103" x2="131.962" y2="232.793" stroke="#141414" stroke-width="0.4"/>
<line x1="131.962" y1="232.793" x2="128.592" y2="237.91" stroke="#141414" stroke-width="0.4"/>
<line x1="128.592" y1="237.91" x2="131.526" y2="241.414" stroke="#141414" stroke-width="0.4"/>
<circle cx="135.597" cy="259.432" r="1.66" fill="#ffe082" stroke="#464646" stroke-width="0.2"/>
<text x="135.597" y="260.00" font-size="1.63" text-anchor="middle" fill="#141414">133</text>
<circle cx="139.6" cy="266.42" r="1.66" fill="#ffe082" stroke="#464646" stroke-width="0.2"/>
<text x="139.6" y="266.99" font-size="1.63" text-anchor="middle" fill="#141414">134</text>
<circle cx="131.549" cy="251.479" r="1.66" fill="#ffe082" stroke="#464646" stroke-width="0.2"/>
<text x="131.549" y="252.05" font-size="1.63" text-anchor="middle" fill="#141414">135</text>
<circle cx="127.465" cy="244.144" r="1.66" fill="#ffe082" stroke="#464646" stroke-width="0.2"/>
<text x="127.465" y="244.71" font-size="1.63" text-anchor="middle" fill="#141414">136</text>
<circle cx="143.48" cy="273.865" r="1.66" fill="#ffe082" stroke="#464646" stroke-width="0.2"/>
<text x="143.48" y="274.44" font-size="1.63" text-anchor="middle" fill="#141414">137</text>
<circle cx="160.903" cy="269.24" r="1.66" fill="#ffe082" stroke="#464646" stroke-width="0.2"/>
<text x="160.903" y="269.81" font-size="1.63" text-anchor="middle" fill="#141414">138</text>
<circle cx="156.9" cy="262.252" r="1.66" fill="#ffe082" stroke="#464646" stroke-width="0.2"/>
<text x="156.9" y="262.82" font-size="1.63" text-anchor="middle" fill="#141414">139</text>
<circle cx="144.544" cy="239.322" r="1.66" fill="#ffe082" stroke="#464646" stroke-width="0.2"/>
<text x="144.544" y="239.89" font-size="1.63" text-anchor="middle" fill="#141414">140</text>
<circle cx="148.943" cy="247.198" r="1.66" fill="#ffe082" stroke="#464646" stroke-width="0.2"/>
<text x="148.943" y="247.77" font-size="1.63" text-anchor="middle" fill="#141414">141</text>
<circle cx="152.741" cy="254.246" r="1.66" fill="#ffe082" stroke="#464646" stroke-width="0.2"/>
<text x="152.741" y="254.82" font-size="1.63" text-anchor="middle" fill="#141414">142</text>
<circle cx="132.105" cy="236.555" r="1.66" fill="#ffe082" stroke="#464646" stroke-width="0.2"/>
<text x="132.105" y="237.13" font-size="1.63" text-anchor="middle" fill="#141414">143</text>
<circle cx="143.589" cy="226.294" r="4.6" fill="#eaf1fe" stroke="#2e78e6" stroke-width="0.3"/>
<text x="143.589" y="228.09400000000002" font-size="5.2" text-anchor="middle" fill="#14306e" font-weight="bold">13</text>
<g pointer-events="none"><text x="105.0" y="83.2" text-anchor="middle" font-family="sans-serif" font-size="12.4" fill="#9aa0a6" fill-opacity="0.3" transform="rotate(-28 105.0 83.2)">papercraft.kr</text><text x="105.0" y="148.5" text-anchor="middle" font-family="sans-serif" font-size="12.4" fill="#9aa0a6" fill-opacity="0.3" transform="rotate(-28 105.0 148.5)">papercraft.kr</text><text x="105.0" y="213.8" text-anchor="middle" font-family="sans-serif" font-size="12.4" fill="#9aa0a6" fill-opacity="0.3" transform="rotate(-28 105.0 213.8)">papercraft.kr</text></g></svg>
