<svg xmlns="http://www.w3.org/2000/svg" xmlns:xlink="http://www.w3.org/1999/xlink" width="210.00mm" height="297.00mm" viewBox="0 0 210.00 297.00">
<rect x="0" y="0" width="210.00" height="297.00" fill="#ffffff" stroke="#cccccc" stroke-width="0.2"/>
<polygon points="63.917,118.734 56.985,123.842 34.732,116.611 32.126,108.404" fill="rgb(216,216,216)"/>
<polygon points="92.962,171.515 96.171,176.15 103.361,173.814 103.233,168.178" fill="rgb(216,216,216)"/>
<polygon points="92.962,171.515 95.16,176.706 89.34,181.53 84.647,178.406" fill="rgb(216,216,216)"/>
<polygon points="95.707,108.404 104.317,108.463 118.071,89.533 115.355,81.362" fill="rgb(216,216,216)"/>
<polygon points="103.233,168.178 104.506,173.669 112.05,174.15 114.01,168.865" fill="rgb(216,216,216)"/>
<polygon points="115.355,81.362 122.355,76.348 122.355,52.949 115.355,47.935" fill="rgb(216,216,216)"/>
<polygon points="114.01,168.865 114.632,175.131 118.538,176.977 123.774,173.479" fill="rgb(216,216,216)"/>
<polygon points="115.355,47.935 118.071,39.764 104.317,20.835 95.707,20.893" fill="rgb(216,216,216)"/>
<polygon points="123.774,173.479 122.041,179.533 124.99,182.689 131.147,181.37" fill="rgb(216,216,216)"/>
<polygon points="95.707,20.893 93.102,12.686 70.849,5.455 63.917,10.563" fill="rgb(216,216,216)"/>
<polygon points="131.147,181.37 129.01,182.667 134.933,191.026 135.089,191.424" fill="rgb(216,216,216)"/>
<polygon points="63.917,10.563 56.985,5.455 34.732,12.686 32.126,20.893" fill="rgb(216,216,216)"/>
<polygon points="32.126,20.893 23.516,20.835 9.763,39.764 12.479,47.935" fill="rgb(216,216,216)"/>
<polygon points="135.044,202.224 134.885,202.62 128.892,210.93 131.018,212.244" fill="rgb(216,216,216)"/>
<polygon points="12.479,47.935 5.479,52.949 5.479,76.348 12.479,81.362" fill="rgb(216,216,216)"/>
<polygon points="131.018,212.244 124.872,210.874 121.897,214.005 123.58,220.073" fill="rgb(216,216,216)"/>
<polygon points="12.479,81.362 9.763,89.533 23.516,108.462 32.126,108.404" fill="rgb(216,216,216)"/>
<polygon points="123.58,220.073 118.373,216.532 114.452,218.345 113.778,224.606" fill="rgb(216,216,216)"/>
<polygon points="128.345,283.064 119.368,275.988 109.171,235.067 113.778,224.606" fill="rgb(216,216,216)"/>
<polygon points="63.917,118.734 56.985,123.842 34.732,116.611 32.126,108.404" fill="#99d9fa"/>
<line x1="92.962" y1="171.515" x2="63.917" y2="118.734" stroke="#8c8c8c" stroke-width="0.3" stroke-dasharray="1.2,0.8"/>
<line x1="95.707" y1="108.404" x2="63.917" y2="118.734" stroke="#8c8c8c" stroke-width="0.3" stroke-dasharray="1.2,0.8"/>
<line x1="95.707" y1="108.404" x2="103.233" y2="168.178" stroke="#8c8c8c" stroke-width="0.3" stroke-dasharray="1.2,0.8"/>
<line x1="129.066" y1="110.531" x2="114.01" y2="168.865" stroke="#8c8c8c" stroke-width="0.3" stroke-dasharray="1.2,0.8"/>
<line x1="159.287" y1="124.814" x2="123.774" y2="173.479" stroke="#8c8c8c" stroke-width="0.3" stroke-dasharray="1.2,0.8"/>
<line x1="182.108" y1="149.238" x2="131.147" y2="181.37" stroke="#8c8c8c" stroke-width="0.3" stroke-dasharray="1.2,0.8"/>
<line x1="194.309" y1="180.358" x2="135.089" y2="191.424" stroke="#8c8c8c" stroke-width="0.3" stroke-dasharray="1.2,0.8"/>
<line x1="135.044" y1="202.224" x2="135.089" y2="191.424" stroke="#8c8c8c" stroke-width="0.3" stroke-dasharray="1.2,0.8"/>
<line x1="194.17" y1="213.784" x2="135.044" y2="202.224" stroke="#8c8c8c" stroke-width="0.3" stroke-dasharray="1.2,0.8"/>
<line x1="181.709" y1="244.801" x2="131.018" y2="212.244" stroke="#8c8c8c" stroke-width="0.3" stroke-dasharray="1.2,0.8"/>
<line x1="158.685" y1="269.034" x2="123.58" y2="220.073" stroke="#8c8c8c" stroke-width="0.3" stroke-dasharray="1.2,0.8"/>
<line x1="32.126" y1="108.404" x2="63.917" y2="118.734" stroke="#8c8c8c" stroke-width="0.3" stroke-dasharray="1.2,0.8"/>
<line x1="103.233" y1="168.178" x2="92.962" y2="171.515" stroke="#8c8c8c" stroke-width="0.3" stroke-dasharray="1.2,0.8"/>
<line x1="84.647" y1="178.406" x2="92.962" y2="171.515" stroke="#8c8c8c" stroke-width="0.3" stroke-dasharray="1.2,0.8"/>
<line x1="115.355" y1="81.362" x2="95.707" y2="108.404" stroke="#8c8c8c" stroke-width="0.3" stroke-dasharray="1.2,0.8"/>
<line x1="114.01" y1="168.865" x2="103.233" y2="168.178" stroke="#8c8c8c" stroke-width="0.3" stroke-dasharray="1.2,0.8"/>
<line x1="115.355" y1="47.935" x2="115.355" y2="81.362" stroke="#8c8c8c" stroke-width="0.3" stroke-dasharray="1.2,0.8"/>
<line x1="123.774" y1="173.479" x2="114.01" y2="168.865" stroke="#8c8c8c" stroke-width="0.3" stroke-dasharray="1.2,0.8"/>
<line x1="95.707" y1="20.893" x2="115.355" y2="47.935" stroke="#8c8c8c" stroke-width="0.3" stroke-dasharray="1.2,0.8"/>
<line x1="131.147" y1="181.37" x2="123.774" y2="173.479" stroke="#8c8c8c" stroke-width="0.3" stroke-dasharray="1.2,0.8"/>
<line x1="63.917" y1="10.563" x2="95.707" y2="20.893" stroke="#8c8c8c" stroke-width="0.3" stroke-dasharray="1.2,0.8"/>
<line x1="135.089" y1="191.424" x2="131.147" y2="181.37" stroke="#8c8c8c" stroke-width="0.3" stroke-dasharray="1.2,0.8"/>
<line x1="32.126" y1="20.893" x2="63.917" y2="10.563" stroke="#8c8c8c" stroke-width="0.3" stroke-dasharray="1.2,0.8"/>
<line x1="12.479" y1="47.935" x2="32.126" y2="20.893" stroke="#8c8c8c" stroke-width="0.3" stroke-dasharray="1.2,0.8"/>
<line x1="131.018" y1="212.244" x2="135.044" y2="202.224" stroke="#8c8c8c" stroke-width="0.3" stroke-dasharray="1.2,0.8"/>
<line x1="12.479" y1="81.362" x2="12.479" y2="47.935" stroke="#8c8c8c" stroke-width="0.3" stroke-dasharray="1.2,0.8"/>
<line x1="123.58" y1="220.073" x2="131.018" y2="212.244" stroke="#8c8c8c" stroke-width="0.3" stroke-dasharray="1.2,0.8"/>
<line x1="32.126" y1="108.404" x2="12.479" y2="81.362" stroke="#8c8c8c" stroke-width="0.3" stroke-dasharray="1.2,0.8"/>
<line x1="113.778" y1="224.606" x2="123.58" y2="220.073" stroke="#8c8c8c" stroke-width="0.3" stroke-dasharray="1.2,0.8"/>
<line x1="113.778" y1="224.606" x2="128.345" y2="283.064" stroke="#8c8c8c" stroke-width="0.3" stroke-dasharray="1.2,0.8"/>
<line x1="38.179" y1="140.062" x2="63.917" y2="118.734" stroke="#141414" stroke-width="0.4"/>
<line x1="101.807" y1="202.085" x2="101.852" y2="191.285" stroke="#141414" stroke-width="0.4"/>
<line x1="108.118" y1="210.848" x2="101.807" y2="202.085" stroke="#141414" stroke-width="0.4"/>
<line x1="95.707" y1="108.404" x2="129.066" y2="110.531" stroke="#141414" stroke-width="0.4"/>
<line x1="101.852" y1="191.285" x2="108.237" y2="182.575" stroke="#141414" stroke-width="0.4"/>
<line x1="129.066" y1="110.531" x2="159.287" y2="124.814" stroke="#141414" stroke-width="0.4"/>
<line x1="108.237" y1="182.575" x2="118.521" y2="179.281" stroke="#141414" stroke-width="0.4"/>
<line x1="159.287" y1="124.814" x2="182.108" y2="149.238" stroke="#141414" stroke-width="0.4"/>
<line x1="118.521" y1="179.281" x2="128.778" y2="182.661" stroke="#141414" stroke-width="0.4"/>
<line x1="182.108" y1="149.238" x2="194.309" y2="180.358" stroke="#141414" stroke-width="0.4"/>
<line x1="128.778" y1="182.661" x2="135.089" y2="191.424" stroke="#141414" stroke-width="0.4"/>
<line x1="194.309" y1="180.358" x2="194.17" y2="213.784" stroke="#141414" stroke-width="0.4"/>
<line x1="194.17" y1="213.784" x2="181.709" y2="244.801" stroke="#141414" stroke-width="0.4"/>
<line x1="135.044" y1="202.224" x2="128.66" y2="210.934" stroke="#141414" stroke-width="0.4"/>
<line x1="181.709" y1="244.801" x2="158.685" y2="269.034" stroke="#141414" stroke-width="0.4"/>
<line x1="128.66" y1="210.934" x2="118.375" y2="214.228" stroke="#141414" stroke-width="0.4"/>
<line x1="158.685" y1="269.034" x2="128.345" y2="283.063" stroke="#141414" stroke-width="0.4"/>
<line x1="118.375" y1="214.228" x2="108.118" y2="210.848" stroke="#141414" stroke-width="0.4"/>
<line x1="84.647" y1="178.405" x2="38.179" y2="140.062" stroke="#141414" stroke-width="0.4"/>
<line x1="63.917" y1="118.734" x2="56.985" y2="123.842" stroke="#141414" stroke-width="0.4"/>
<line x1="56.985" y1="123.842" x2="34.732" y2="116.611" stroke="#141414" stroke-width="0.4"/>
<line x1="34.732" y1="116.611" x2="32.126" y2="108.404" stroke="#141414" stroke-width="0.4"/>
<line x1="92.962" y1="171.515" x2="96.171" y2="176.15" stroke="#141414" stroke-width="0.4"/>
<line x1="96.171" y1="176.15" x2="103.361" y2="173.814" stroke="#141414" stroke-width="0.4"/>
<line x1="103.361" y1="173.814" x2="103.233" y2="168.178" stroke="#141414" stroke-width="0.4"/>
<line x1="92.962" y1="171.515" x2="95.16" y2="176.706" stroke="#141414" stroke-width="0.4"/>
<line x1="95.16" y1="176.706" x2="89.34" y2="181.53" stroke="#141414" stroke-width="0.4"/>
<line x1="89.34" y1="181.53" x2="84.647" y2="178.406" stroke="#141414" stroke-width="0.4"/>
<line x1="95.707" y1="108.404" x2="104.317" y2="108.463" stroke="#141414" stroke-width="0.4"/>
<line x1="104.317" y1="108.463" x2="118.071" y2="89.533" stroke="#141414" stroke-width="0.4"/>
<line x1="118.071" y1="89.533" x2="115.355" y2="81.362" stroke="#141414" stroke-width="0.4"/>
<line x1="103.233" y1="168.178" x2="104.506" y2="173.669" stroke="#141414" stroke-width="0.4"/>
<line x1="104.506" y1="173.669" x2="112.05" y2="174.15" stroke="#141414" stroke-width="0.4"/>
<line x1="112.05" y1="174.15" x2="114.01" y2="168.865" stroke="#141414" stroke-width="0.4"/>
<line x1="115.355" y1="81.362" x2="122.355" y2="76.348" stroke="#141414" stroke-width="0.4"/>
<line x1="122.355" y1="76.348" x2="122.355" y2="52.949" stroke="#141414" stroke-width="0.4"/>
<line x1="122.355" y1="52.949" x2="115.355" y2="47.935" stroke="#141414" stroke-width="0.4"/>
<line x1="114.01" y1="168.865" x2="114.632" y2="175.131" stroke="#141414" stroke-width="0.4"/>
<line x1="114.632" y1="175.131" x2="118.538" y2="176.977" stroke="#141414" stroke-width="0.4"/>
<line x1="118.538" y1="176.977" x2="123.774" y2="173.479" stroke="#141414" stroke-width="0.4"/>
<line x1="115.355" y1="47.935" x2="118.071" y2="39.764" stroke="#141414" stroke-width="0.4"/>
<line x1="118.071" y1="39.764" x2="104.317" y2="20.835" stroke="#141414" stroke-width="0.4"/>
<line x1="104.317" y1="20.835" x2="95.707" y2="20.893" stroke="#141414" stroke-width="0.4"/>
<line x1="123.774" y1="173.479" x2="122.041" y2="179.533" stroke="#141414" stroke-width="0.4"/>
<line x1="122.041" y1="179.533" x2="124.99" y2="182.689" stroke="#141414" stroke-width="0.4"/>
<line x1="124.99" y1="182.689" x2="131.147" y2="181.37" stroke="#141414" stroke-width="0.4"/>
<line x1="95.707" y1="20.893" x2="93.102" y2="12.686" stroke="#141414" stroke-width="0.4"/>
<line x1="93.102" y1="12.686" x2="70.849" y2="5.455" stroke="#141414" stroke-width="0.4"/>
<line x1="70.849" y1="5.455" x2="63.917" y2="10.563" stroke="#141414" stroke-width="0.4"/>
<line x1="131.147" y1="181.37" x2="129.01" y2="182.667" stroke="#141414" stroke-width="0.4"/>
<line x1="129.01" y1="182.667" x2="134.933" y2="191.026" stroke="#141414" stroke-width="0.4"/>
<line x1="134.933" y1="191.026" x2="135.089" y2="191.424" stroke="#141414" stroke-width="0.4"/>
<line x1="63.917" y1="10.563" x2="56.985" y2="5.455" stroke="#141414" stroke-width="0.4"/>
<line x1="56.985" y1="5.455" x2="34.732" y2="12.686" stroke="#141414" stroke-width="0.4"/>
<line x1="34.732" y1="12.686" x2="32.126" y2="20.893" stroke="#141414" stroke-width="0.4"/>
<line x1="32.126" y1="20.893" x2="23.516" y2="20.835" stroke="#141414" stroke-width="0.4"/>
<line x1="23.516" y1="20.835" x2="9.763" y2="39.764" stroke="#141414" stroke-width="0.4"/>
<line x1="9.763" y1="39.764" x2="12.479" y2="47.935" stroke="#141414" stroke-width="0.4"/>
<line x1="135.044" y1="202.224" x2="134.885" y2="202.62" stroke="#141414" stroke-width="0.4"/>
<line x1="134.885" y1="202.62" x2="128.892" y2="210.93" stroke="#141414" stroke-width="0.4"/>
<line x1="128.892" y1="210.93" x2="131.018" y2="212.244" stroke="#141414" stroke-width="0.4"/>
<line x1="12.479" y1="47.935" x2="5.479" y2="52.949" stroke="#141414" stroke-width="0.4"/>
<line x1="5.479" y1="52.949" x2="5.479" y2="76.348" stroke="#141414" stroke-width="0.4"/>
<line x1="5.479" y1="76.348" x2="12.479" y2="81.362" stroke="#141414" stroke-width="0.4"/>
<line x1="131.018" y1="212.244" x2="124.872" y2="210.874" stroke="#141414" stroke-width="0.4"/>
<line x1="124.872" y1="210.874" x2="121.897" y2="214.005" stroke="#141414" stroke-width="0.4"/>
<line x1="121.897" y1="214.005" x2="123.58" y2="220.073" stroke="#141414" stroke-width="0.4"/>
<line x1="12.479" y1="81.362" x2="9.763" y2="89.533" stroke="#141414" stroke-width="0.4"/>
<line x1="9.763" y1="89.533" x2="23.516" y2="108.462" stroke="#141414" stroke-width="0.4"/>
<line x1="23.516" y1="108.462" x2="32.126" y2="108.404" stroke="#141414" stroke-width="0.4"/>
<line x1="123.58" y1="220.073" x2="118.373" y2="216.532" stroke="#141414" stroke-width="0.4"/>
<line x1="118.373" y1="216.532" x2="114.452" y2="218.345" stroke="#141414" stroke-width="0.4"/>
<line x1="114.452" y1="218.345" x2="113.778" y2="224.606" stroke="#141414" stroke-width="0.4"/>
<line x1="128.345" y1="283.064" x2="119.368" y2="275.988" stroke="#141414" stroke-width="0.4"/>
<line x1="119.368" y1="275.988" x2="109.171" y2="235.067" stroke="#141414" stroke-width="0.4"/>
<line x1="109.171" y1="235.067" x2="113.778" y2="224.606" stroke="#141414" stroke-width="0.4"/>
<circle cx="46.94" cy="116.898" r="1.13" fill="#99d9fa" stroke="#464646" stroke-width="0.2"/>
<text x="46.94" y="117.44" font-size="1.53" text-anchor="middle" fill="#141414">16</text>
<circle cx="98.932" cy="172.414" r="1.13" fill="#ffe082" stroke="#464646" stroke-width="0.2"/>
<text x="98.932" y="172.95" font-size="1.53" text-anchor="middle" fill="#141414">17</text>
<circle cx="90.527" cy="177.039" r="1.13" fill="#ffe082" stroke="#464646" stroke-width="0.2"/>
<text x="90.527" y="177.58" font-size="1.53" text-anchor="middle" fill="#141414">18</text>
<circle cx="108.363" cy="96.94" r="1.13" fill="#ffe082" stroke="#464646" stroke-width="0.2"/>
<text x="108.363" y="97.48" font-size="1.53" text-anchor="middle" fill="#141414">19</text>
<circle cx="108.45" cy="171.216" r="1.13" fill="#ffe082" stroke="#464646" stroke-width="0.2"/>
<text x="108.45" y="171.75" font-size="1.53" text-anchor="middle" fill="#141414">20</text>
<circle cx="118.855" cy="64.648" r="1.13" fill="#ffe082" stroke="#464646" stroke-width="0.2"/>
<text x="118.855" y="65.19" font-size="1.53" text-anchor="middle" fill="#141414">21</text>
<circle cx="117.739" cy="173.613" r="1.13" fill="#ffe082" stroke="#464646" stroke-width="0.2"/>
<text x="117.739" y="174.15" font-size="1.53" text-anchor="middle" fill="#141414">22</text>
<circle cx="108.363" cy="32.357" r="1.13" fill="#ffe082" stroke="#464646" stroke-width="0.2"/>
<text x="108.363" y="32.89" font-size="1.53" text-anchor="middle" fill="#141414">23</text>
<circle cx="125.488" cy="179.268" r="1.13" fill="#ffe082" stroke="#464646" stroke-width="0.2"/>
<text x="125.488" y="179.81" font-size="1.53" text-anchor="middle" fill="#141414">24</text>
<circle cx="80.894" cy="12.399" r="1.13" fill="#ffe082" stroke="#464646" stroke-width="0.2"/>
<text x="80.894" y="12.94" font-size="1.53" text-anchor="middle" fill="#141414">25</text>
<circle cx="46.94" cy="12.399" r="1.13" fill="#ffe082" stroke="#464646" stroke-width="0.2"/>
<text x="46.94" y="12.94" font-size="1.53" text-anchor="middle" fill="#141414">27</text>
<circle cx="19.471" cy="32.357" r="1.13" fill="#ffe082" stroke="#464646" stroke-width="0.2"/>
<text x="19.471" y="32.89" font-size="1.53" text-anchor="middle" fill="#141414">28</text>
<circle cx="8.979" cy="64.648" r="1.13" fill="#ffe082" stroke="#464646" stroke-width="0.2"/>
<text x="8.979" y="65.19" font-size="1.53" text-anchor="middle" fill="#141414">30</text>
<circle cx="125.342" cy="214.299" r="1.13" fill="#ffe082" stroke="#464646" stroke-width="0.2"/>
<text x="125.342" y="214.84" font-size="1.53" text-anchor="middle" fill="#141414">31</text>
<circle cx="19.471" cy="96.94" r="1.13" fill="#ffe082" stroke="#464646" stroke-width="0.2"/>
<text x="19.471" y="97.48" font-size="1.53" text-anchor="middle" fill="#141414">32</text>
<circle cx="117.545" cy="219.889" r="1.13" fill="#ffe082" stroke="#464646" stroke-width="0.2"/>
<text x="117.545" y="220.43" font-size="1.53" text-anchor="middle" fill="#141414">33</text>
<circle cx="117.665" cy="254.681" r="1.13" fill="#ffe082" stroke="#464646" stroke-width="0.2"/>
<text x="117.665" y="255.22" font-size="1.53" text-anchor="middle" fill="#141414">34</text>
<circle cx="99.415" cy="143.804" r="4.6" fill="#eaf1fe" stroke="#2e78e6" stroke-width="0.3"/>
<text x="99.415" y="145.604" font-size="5.2" text-anchor="middle" fill="#14306e" font-weight="bold">2</text>
<text x="205.0" y="295.0" font-size="3.2" text-anchor="end" fill="#737373" font-family="sans-serif">2 / 3</text>
</svg>
