<svg xmlns="http://www.w3.org/2000/svg" xmlns:xlink="http://www.w3.org/1999/xlink" width="210.00mm" height="297.00mm" viewBox="0 0 210.00 297.00">
<rect x="0" y="0" width="210.00" height="297.00" fill="#ffffff" stroke="#cccccc" stroke-width="0.2"/>
<polygon points="14.916,193.857 9.937,187.355 10.957,157.848 16.372,151.705" fill="rgb(216,216,216)"/>
<polygon points="29.329,124.882 22.703,126.644 13.633,145.42 16.372,151.705" fill="rgb(216,216,216)"/>
<polygon points="77.296,134.882 78.03,144.465 60.105,177.656 51.688,182.297" fill="rgb(216,216,216)"/>
<line x1="6.663" y1="42.133" x2="50.373" y2="42.133" stroke="#8c8c8c" stroke-width="0.3" stroke-dasharray="1.2,0.8"/>
<line x1="50.373" y1="42.133" x2="15.368" y2="99.793" stroke="#8c8c8c" stroke-width="0.3" stroke-dasharray="1.2,0.8"/>
<line x1="46.673" y1="117.625" x2="29.329" y2="124.882" stroke="#8c8c8c" stroke-width="0.3" stroke-dasharray="1.2,0.8"/>
<line x1="29.329" y1="124.882" x2="77.296" y2="134.882" stroke="#8c8c8c" stroke-width="0.3" stroke-dasharray="1.2,0.8"/>
<line x1="51.688" y1="182.297" x2="29.329" y2="124.882" stroke="#8c8c8c" stroke-width="0.3" stroke-dasharray="1.2,0.8"/>
<line x1="29.329" y1="124.882" x2="14.916" y2="193.857" stroke="#8c8c8c" stroke-width="0.3" stroke-dasharray="1.2,0.8"/>
<line x1="46.673" y1="117.625" x2="15.368" y2="99.793" stroke="#8c8c8c" stroke-width="0.3" stroke-dasharray="1.2,0.8"/>
<line x1="16.372" y1="151.705" x2="14.916" y2="193.857" stroke="#8c8c8c" stroke-width="0.3" stroke-dasharray="1.2,0.8"/>
<line x1="16.372" y1="151.705" x2="29.329" y2="124.882" stroke="#8c8c8c" stroke-width="0.3" stroke-dasharray="1.2,0.8"/>
<line x1="51.688" y1="182.297" x2="77.296" y2="134.882" stroke="#8c8c8c" stroke-width="0.3" stroke-dasharray="1.2,0.8"/>
<line x1="51.688" y1="182.297" x2="14.916" y2="193.857" stroke="#141414" stroke-width="0.4"/>
<line x1="15.368" y1="99.793" x2="6.663" y2="42.133" stroke="#141414" stroke-width="0.4"/>
<line x1="6.663" y1="42.133" x2="18.329" y2="5.0" stroke="#141414" stroke-width="0.4"/>
<line x1="50.373" y1="42.133" x2="46.673" y2="117.625" stroke="#141414" stroke-width="0.4"/>
<line x1="18.329" y1="5.0" x2="50.373" y2="42.133" stroke="#141414" stroke-width="0.4"/>
<line x1="29.329" y1="124.882" x2="15.368" y2="99.793" stroke="#141414" stroke-width="0.4"/>
<line x1="46.673" y1="117.625" x2="77.296" y2="134.882" stroke="#141414" stroke-width="0.4"/>
<line x1="14.916" y1="193.857" x2="9.937" y2="187.355" stroke="#141414" stroke-width="0.4"/>
<line x1="9.937" y1="187.355" x2="10.957" y2="157.848" stroke="#141414" stroke-width="0.4"/>
<line x1="10.957" y1="157.848" x2="16.372" y2="151.705" stroke="#141414" stroke-width="0.4"/>
<line x1="29.329" y1="124.882" x2="22.703" y2="126.644" stroke="#141414" stroke-width="0.4"/>
<line x1="22.703" y1="126.644" x2="13.633" y2="145.42" stroke="#141414" stroke-width="0.4"/>
<line x1="13.633" y1="145.42" x2="16.372" y2="151.705" stroke="#141414" stroke-width="0.4"/>
<line x1="77.296" y1="134.882" x2="78.03" y2="144.465" stroke="#141414" stroke-width="0.4"/>
<line x1="78.03" y1="144.465" x2="60.105" y2="177.656" stroke="#141414" stroke-width="0.4"/>
<line x1="60.105" y1="177.656" x2="51.688" y2="182.297" stroke="#141414" stroke-width="0.4"/>
<circle cx="13.046" cy="172.691" r="2.29" fill="#ffe082" stroke="#464646" stroke-width="0.2"/>
<text x="13.046" y="173.48" font-size="2.24" text-anchor="middle" fill="#141414">54</text>
<circle cx="20.509" cy="137.163" r="2.29" fill="#ffe082" stroke="#464646" stroke-width="0.2"/>
<text x="20.509" y="137.95" font-size="2.24" text-anchor="middle" fill="#141414">69</text>
<circle cx="66.78" cy="159.825" r="2.29" fill="#ffe082" stroke="#464646" stroke-width="0.2"/>
<text x="66.78" y="160.61" font-size="2.24" text-anchor="middle" fill="#141414">76</text>
<circle cx="25.122" cy="29.755" r="4.60" fill="#eaf1fe" stroke="#2e78e6" stroke-width="0.3"/>
<text x="25.122" y="31.55" font-size="5.20" text-anchor="middle" fill="#14306e" font-weight="bold">9</text>
<polygon points="188.023,49.38 192.436,64.649 188.798,134.645 182.825,149.374" fill="rgb(216,216,216)"/>
<polygon points="182.825,149.374 188.762,151.159 193.175,166.282 189.128,170.979" fill="rgb(216,216,216)"/>
<polygon points="174.026,195.399 180.714,194.471 191.286,177.377 189.128,170.979" fill="rgb(216,216,216)"/>
<polygon points="174.026,195.399 169.582,205.569 133.752,234.022 122.84,236.047" fill="rgb(216,216,216)"/>
<line x1="171.392" y1="46.422" x2="188.023" y2="49.38" stroke="#8c8c8c" stroke-width="0.3" stroke-dasharray="1.2,0.8"/>
<line x1="182.825" y1="149.375" x2="171.392" y2="46.422" stroke="#8c8c8c" stroke-width="0.3" stroke-dasharray="1.2,0.8"/>
<line x1="189.128" y1="170.979" x2="161.863" y2="162.635" stroke="#8c8c8c" stroke-width="0.3" stroke-dasharray="1.2,0.8"/>
<line x1="122.84" y1="236.047" x2="98.648" y2="195.399" stroke="#8c8c8c" stroke-width="0.3" stroke-dasharray="1.2,0.8"/>
<line x1="182.825" y1="149.375" x2="161.863" y2="162.635" stroke="#8c8c8c" stroke-width="0.3" stroke-dasharray="1.2,0.8"/>
<line x1="161.863" y1="162.635" x2="174.026" y2="195.399" stroke="#8c8c8c" stroke-width="0.3" stroke-dasharray="1.2,0.8"/>
<line x1="182.825" y1="149.374" x2="188.023" y2="49.38" stroke="#8c8c8c" stroke-width="0.3" stroke-dasharray="1.2,0.8"/>
<line x1="189.128" y1="170.979" x2="182.825" y2="149.374" stroke="#8c8c8c" stroke-width="0.3" stroke-dasharray="1.2,0.8"/>
<line x1="189.128" y1="170.979" x2="174.026" y2="195.399" stroke="#8c8c8c" stroke-width="0.3" stroke-dasharray="1.2,0.8"/>
<line x1="122.84" y1="236.047" x2="174.026" y2="195.399" stroke="#8c8c8c" stroke-width="0.3" stroke-dasharray="1.2,0.8"/>
<line x1="171.392" y1="46.422" x2="169.889" y2="5.0" stroke="#141414" stroke-width="0.4"/>
<line x1="169.889" y1="5.0" x2="188.023" y2="49.38" stroke="#141414" stroke-width="0.4"/>
<line x1="161.863" y1="162.635" x2="171.392" y2="46.422" stroke="#141414" stroke-width="0.4"/>
<line x1="98.648" y1="195.399" x2="161.863" y2="162.635" stroke="#141414" stroke-width="0.4"/>
<line x1="79.367" y1="228.988" x2="98.648" y2="195.399" stroke="#141414" stroke-width="0.4"/>
<line x1="122.84" y1="236.047" x2="79.367" y2="228.988" stroke="#141414" stroke-width="0.4"/>
<line x1="188.023" y1="49.38" x2="192.436" y2="64.649" stroke="#141414" stroke-width="0.4"/>
<line x1="192.436" y1="64.649" x2="188.798" y2="134.645" stroke="#141414" stroke-width="0.4"/>
<line x1="188.798" y1="134.645" x2="182.825" y2="149.374" stroke="#141414" stroke-width="0.4"/>
<line x1="182.825" y1="149.374" x2="188.762" y2="151.159" stroke="#141414" stroke-width="0.4"/>
<line x1="188.762" y1="151.159" x2="193.175" y2="166.282" stroke="#141414" stroke-width="0.4"/>
<line x1="193.175" y1="166.282" x2="189.128" y2="170.979" stroke="#141414" stroke-width="0.4"/>
<line x1="174.026" y1="195.399" x2="180.714" y2="194.471" stroke="#141414" stroke-width="0.4"/>
<line x1="180.714" y1="194.471" x2="191.286" y2="177.377" stroke="#141414" stroke-width="0.4"/>
<line x1="191.286" y1="177.377" x2="189.128" y2="170.979" stroke="#141414" stroke-width="0.4"/>
<line x1="174.026" y1="195.399" x2="169.582" y2="205.569" stroke="#141414" stroke-width="0.4"/>
<line x1="169.582" y1="205.569" x2="133.752" y2="234.022" stroke="#141414" stroke-width="0.4"/>
<line x1="133.752" y1="234.022" x2="122.84" y2="236.047" stroke="#141414" stroke-width="0.4"/>
<circle cx="188.021" cy="99.512" r="2.29" fill="#ffe082" stroke="#464646" stroke-width="0.2"/>
<text x="188.021" y="100.30" font-size="2.24" text-anchor="middle" fill="#141414">52</text>
<circle cx="188.473" cy="159.448" r="2.29" fill="#ffe082" stroke="#464646" stroke-width="0.2"/>
<text x="188.473" y="160.23" font-size="2.24" text-anchor="middle" fill="#141414">53</text>
<circle cx="183.789" cy="184.556" r="2.29" fill="#ffe082" stroke="#464646" stroke-width="0.2"/>
<text x="183.789" y="185.34" font-size="2.24" text-anchor="middle" fill="#141414">70</text>
<circle cx="150.05" cy="217.759" r="2.29" fill="#ffe082" stroke="#464646" stroke-width="0.2"/>
<text x="150.05" y="218.54" font-size="2.24" text-anchor="middle" fill="#141414">71</text>
<circle cx="100.285" cy="220.145" r="4.60" fill="#eaf1fe" stroke="#2e78e6" stroke-width="0.3"/>
<text x="100.285" y="221.95" font-size="5.20" text-anchor="middle" fill="#14306e" font-weight="bold">10</text>
<text x="205.0" y="295.0" font-size="3.2" text-anchor="end" fill="#737373" font-family="sans-serif">5 / 17</text>
</svg>
