<svg xmlns="http://www.w3.org/2000/svg" xmlns:xlink="http://www.w3.org/1999/xlink" width="210.00mm" height="297.00mm" viewBox="0 0 210.00 297.00">
<rect x="0" y="0" width="210.00" height="297.00" fill="#ffffff" stroke="#cccccc" stroke-width="0.2"/>
<polygon points="5.257,170.5 8.679,158.892 42.716,120.918 53.882,116.251" fill="rgb(216,216,216)"/>
<polygon points="94.139,121.084 104.618,113.32 132.498,64.965 133.967,52.006" fill="rgb(216,216,216)"/>
<polygon points="133.967,52.006 140.48,45.978 147.078,13.073 143.393,5.0" fill="rgb(216,216,216)"/>
<line x1="53.882" y1="116.251" x2="94.139" y2="121.084" stroke="#8c8c8c" stroke-width="0.3" stroke-dasharray="1.2,0.8"/>
<line x1="133.967" y1="52.006" x2="120.717" y2="40.49" stroke="#8c8c8c" stroke-width="0.3" stroke-dasharray="1.2,0.8"/>
<line x1="53.882" y1="116.251" x2="5.257" y2="170.5" stroke="#8c8c8c" stroke-width="0.3" stroke-dasharray="1.2,0.8"/>
<line x1="133.967" y1="52.006" x2="94.139" y2="121.084" stroke="#8c8c8c" stroke-width="0.3" stroke-dasharray="1.2,0.8"/>
<line x1="143.393" y1="5.0" x2="133.967" y2="52.006" stroke="#8c8c8c" stroke-width="0.3" stroke-dasharray="1.2,0.8"/>
<line x1="36.276" y1="196.135" x2="5.257" y2="170.5" stroke="#141414" stroke-width="0.4"/>
<line x1="94.139" y1="121.084" x2="36.276" y2="196.135" stroke="#141414" stroke-width="0.4"/>
<line x1="53.882" y1="116.251" x2="94.139" y2="46.821" stroke="#141414" stroke-width="0.4"/>
<line x1="94.139" y1="46.821" x2="120.717" y2="40.49" stroke="#141414" stroke-width="0.4"/>
<line x1="120.717" y1="40.49" x2="143.393" y2="5.0" stroke="#141414" stroke-width="0.4"/>
<line x1="5.257" y1="170.5" x2="8.679" y2="158.892" stroke="#141414" stroke-width="0.4"/>
<line x1="8.679" y1="158.892" x2="42.716" y2="120.918" stroke="#141414" stroke-width="0.4"/>
<line x1="42.716" y1="120.918" x2="53.882" y2="116.251" stroke="#141414" stroke-width="0.4"/>
<line x1="94.139" y1="121.084" x2="104.618" y2="113.32" stroke="#141414" stroke-width="0.4"/>
<line x1="104.618" y1="113.32" x2="132.498" y2="64.965" stroke="#141414" stroke-width="0.4"/>
<line x1="132.498" y1="64.965" x2="133.967" y2="52.006" stroke="#141414" stroke-width="0.4"/>
<line x1="133.967" y1="52.006" x2="140.48" y2="45.978" stroke="#141414" stroke-width="0.4"/>
<line x1="140.48" y1="45.978" x2="147.078" y2="13.073" stroke="#141414" stroke-width="0.4"/>
<line x1="147.078" y1="13.073" x2="143.393" y2="5.0" stroke="#141414" stroke-width="0.4"/>
<circle cx="27.634" cy="141.64" r="2.29" fill="#ffe082" stroke="#464646" stroke-width="0.2"/>
<text x="27.634" y="142.42" font-size="2.24" text-anchor="middle" fill="#141414">6</text>
<circle cx="116.306" cy="87.844" r="2.29" fill="#ffe082" stroke="#464646" stroke-width="0.2"/>
<text x="116.306" y="88.63" font-size="2.24" text-anchor="middle" fill="#141414">10</text>
<circle cx="141.23" cy="29.014" r="2.29" fill="#ffe082" stroke="#464646" stroke-width="0.2"/>
<text x="141.23" y="29.80" font-size="2.24" text-anchor="middle" fill="#141414">27</text>
<circle cx="31.805" cy="160.962" r="4.60" fill="#eaf1fe" stroke="#2e78e6" stroke-width="0.3"/>
<text x="31.805" y="162.76" font-size="5.20" text-anchor="middle" fill="#14306e" font-weight="bold">12</text>
<text x="205.0" y="295.0" font-size="3.2" text-anchor="end" fill="#737373" font-family="sans-serif">7 / 17</text>
</svg>
