<svg xmlns="http://www.w3.org/2000/svg" xmlns:xlink="http://www.w3.org/1999/xlink" width="210.00mm" height="297.00mm" viewBox="0 0 210.00 297.00">
<rect x="0" y="0" width="210.00" height="297.00" fill="#ffffff" stroke="#cccccc" stroke-width="0.2"/>
<polygon points="5.0,18.64 9.496,12.644 34.36,8.616 40.52,12.886" fill="rgb(216,216,216)"/>
<polygon points="20.903,111.212 20.505,117.433 33.298,127.122 39.179,125.053" fill="rgb(216,216,216)"/>
<polygon points="39.179,125.053 41.214,131.963 61.872,142.662 68.69,140.337" fill="rgb(216,216,216)"/>
<polygon points="86.042,125.053 86.876,131.248 74.73,141.947 68.69,140.337" fill="rgb(216,216,216)"/>
<polygon points="86.042,125.053 96.839,123.244 132.329,95.647 136.741,85.629" fill="rgb(216,216,216)"/>
<polygon points="86.489,65.868 95.93,63.993 131.106,77.826 136.741,85.629" fill="rgb(216,216,216)"/>
<line x1="36.851" y1="59.43" x2="39.179" y2="125.053" stroke="#8c8c8c" stroke-width="0.3" stroke-dasharray="1.2,0.8"/>
<line x1="65.519" y1="94.56" x2="39.179" y2="125.053" stroke="#8c8c8c" stroke-width="0.3" stroke-dasharray="1.2,0.8"/>
<line x1="136.742" y1="85.629" x2="65.519" y2="94.56" stroke="#8c8c8c" stroke-width="0.3" stroke-dasharray="1.2,0.8"/>
<line x1="65.519" y1="94.56" x2="86.042" y2="125.053" stroke="#8c8c8c" stroke-width="0.3" stroke-dasharray="1.2,0.8"/>
<line x1="86.489" y1="65.868" x2="65.519" y2="94.56" stroke="#8c8c8c" stroke-width="0.3" stroke-dasharray="1.2,0.8"/>
<line x1="39.179" y1="125.053" x2="86.042" y2="125.053" stroke="#8c8c8c" stroke-width="0.3" stroke-dasharray="1.2,0.8"/>
<line x1="40.52" y1="12.886" x2="5.0" y2="18.64" stroke="#8c8c8c" stroke-width="0.3" stroke-dasharray="1.2,0.8"/>
<line x1="39.179" y1="125.053" x2="20.903" y2="111.212" stroke="#8c8c8c" stroke-width="0.3" stroke-dasharray="1.2,0.8"/>
<line x1="68.69" y1="140.337" x2="39.179" y2="125.053" stroke="#8c8c8c" stroke-width="0.3" stroke-dasharray="1.2,0.8"/>
<line x1="68.69" y1="140.337" x2="86.042" y2="125.053" stroke="#8c8c8c" stroke-width="0.3" stroke-dasharray="1.2,0.8"/>
<line x1="136.741" y1="85.629" x2="86.042" y2="125.053" stroke="#8c8c8c" stroke-width="0.3" stroke-dasharray="1.2,0.8"/>
<line x1="136.741" y1="85.629" x2="86.489" y2="65.868" stroke="#8c8c8c" stroke-width="0.3" stroke-dasharray="1.2,0.8"/>
<line x1="65.519" y1="94.56" x2="5.0" y2="18.64" stroke="#141414" stroke-width="0.4"/>
<line x1="20.903" y1="111.212" x2="36.851" y2="59.43" stroke="#141414" stroke-width="0.4"/>
<line x1="36.851" y1="59.43" x2="65.519" y2="94.56" stroke="#141414" stroke-width="0.4"/>
<line x1="40.52" y1="12.886" x2="86.489" y2="65.868" stroke="#141414" stroke-width="0.4"/>
<line x1="5.0" y1="18.64" x2="9.496" y2="12.644" stroke="#141414" stroke-width="0.4"/>
<line x1="9.496" y1="12.644" x2="34.36" y2="8.616" stroke="#141414" stroke-width="0.4"/>
<line x1="34.36" y1="8.616" x2="40.52" y2="12.886" stroke="#141414" stroke-width="0.4"/>
<line x1="20.903" y1="111.212" x2="20.505" y2="117.433" stroke="#141414" stroke-width="0.4"/>
<line x1="20.505" y1="117.433" x2="33.298" y2="127.122" stroke="#141414" stroke-width="0.4"/>
<line x1="33.298" y1="127.122" x2="39.179" y2="125.053" stroke="#141414" stroke-width="0.4"/>
<line x1="39.179" y1="125.053" x2="41.214" y2="131.963" stroke="#141414" stroke-width="0.4"/>
<line x1="41.214" y1="131.963" x2="61.872" y2="142.662" stroke="#141414" stroke-width="0.4"/>
<line x1="61.872" y1="142.662" x2="68.69" y2="140.337" stroke="#141414" stroke-width="0.4"/>
<line x1="86.042" y1="125.053" x2="86.876" y2="131.248" stroke="#141414" stroke-width="0.4"/>
<line x1="86.876" y1="131.248" x2="74.73" y2="141.947" stroke="#141414" stroke-width="0.4"/>
<line x1="74.73" y1="141.947" x2="68.69" y2="140.337" stroke="#141414" stroke-width="0.4"/>
<line x1="86.042" y1="125.053" x2="96.839" y2="123.244" stroke="#141414" stroke-width="0.4"/>
<line x1="96.839" y1="123.244" x2="132.329" y2="95.647" stroke="#141414" stroke-width="0.4"/>
<line x1="132.329" y1="95.647" x2="136.741" y2="85.629" stroke="#141414" stroke-width="0.4"/>
<line x1="86.489" y1="65.868" x2="95.93" y2="63.993" stroke="#141414" stroke-width="0.4"/>
<line x1="95.93" y1="63.993" x2="131.106" y2="77.826" stroke="#141414" stroke-width="0.4"/>
<line x1="131.106" y1="77.826" x2="136.741" y2="85.629" stroke="#141414" stroke-width="0.4"/>
<circle cx="22.344" cy="13.197" r="2.29" fill="#ffe082" stroke="#464646" stroke-width="0.2"/>
<text x="22.344" y="14.28" font-size="3.11" text-anchor="middle" fill="#141414">39</text>
<circle cx="28.471" cy="120.205" r="2.29" fill="#ffe082" stroke="#464646" stroke-width="0.2"/>
<text x="28.471" y="121.29" font-size="3.11" text-anchor="middle" fill="#141414">42</text>
<circle cx="52.739" cy="135.004" r="2.29" fill="#ffe082" stroke="#464646" stroke-width="0.2"/>
<text x="52.739" y="136.09" font-size="3.11" text-anchor="middle" fill="#141414">53</text>
<circle cx="79.085" cy="134.646" r="2.29" fill="#ffe082" stroke="#464646" stroke-width="0.2"/>
<text x="79.085" y="135.73" font-size="3.11" text-anchor="middle" fill="#141414">55</text>
<circle cx="112.988" cy="107.393" r="2.29" fill="#ffe082" stroke="#464646" stroke-width="0.2"/>
<text x="112.988" y="108.48" font-size="3.11" text-anchor="middle" fill="#141414">57</text>
<circle cx="112.567" cy="73.329" r="2.29" fill="#ffe082" stroke="#464646" stroke-width="0.2"/>
<text x="112.567" y="74.42" font-size="3.11" text-anchor="middle" fill="#141414">60</text>
<circle cx="96.25" cy="82.019" r="4.60" fill="#eaf1fe" stroke="#2e78e6" stroke-width="0.3"/>
<text x="96.25" y="83.82" font-size="5.20" text-anchor="middle" fill="#14306e" font-weight="bold">10</text>
<polygon points="170.138,13.863 174.103,8.663 192.609,8.663 196.574,13.863" fill="rgb(216,216,216)"/>
<line x1="196.574" y1="13.863" x2="170.138" y2="13.863" stroke="#8c8c8c" stroke-width="0.3" stroke-dasharray="1.2,0.8"/>
<line x1="139.742" y1="139.802" x2="170.138" y2="13.863" stroke="#141414" stroke-width="0.4"/>
<line x1="196.575" y1="13.863" x2="139.742" y2="139.802" stroke="#141414" stroke-width="0.4"/>
<line x1="170.138" y1="13.863" x2="174.103" y2="8.663" stroke="#141414" stroke-width="0.4"/>
<line x1="174.103" y1="8.663" x2="192.609" y2="8.663" stroke="#141414" stroke-width="0.4"/>
<line x1="192.609" y1="8.663" x2="196.574" y2="13.863" stroke="#141414" stroke-width="0.4"/>
<circle cx="183.356" cy="11.263" r="2.29" fill="#ffe082" stroke="#464646" stroke-width="0.2"/>
<text x="183.356" y="12.35" font-size="3.11" text-anchor="middle" fill="#141414">24</text>
<circle cx="168.818" cy="55.843" r="4.60" fill="#eaf1fe" stroke="#2e78e6" stroke-width="0.3"/>
<text x="168.818" y="57.64" font-size="5.20" text-anchor="middle" fill="#14306e" font-weight="bold">11</text>
<polygon points="5.0,200.156 16.79,209.722 79.722,231.42 94.902,231.154" fill="rgb(216,216,216)"/>
<polygon points="126.346,150.909 116.77,152.089 87.562,176.284 84.62,185.473" fill="rgb(216,216,216)"/>
<polygon points="126.346,150.909 134.435,145.709 172.18,145.709 180.268,150.909" fill="rgb(216,216,216)"/>
<polygon points="140.264,212.756 154.69,216.358 173.146,214.272 186.404,207.54" fill="rgb(216,216,216)"/>
<polygon points="140.396,181.831 149.564,181.301 177.474,159.656 180.268,150.909" fill="rgb(216,216,216)"/>
<polygon points="140.396,181.831 162.256,188.089 169.617,192.203 186.404,207.54" fill="rgb(216,216,216)"/>
<polygon points="133.519,230.801 127.774,236.053 100.742,236.3 94.902,231.154" fill="rgb(216,216,216)"/>
<polygon points="133.519,230.801 139.44,238.674 175.844,252.791 185.525,250.968" fill="rgb(216,216,216)"/>
<line x1="84.62" y1="185.473" x2="140.263" y2="212.756" stroke="#8c8c8c" stroke-width="0.3" stroke-dasharray="1.2,0.8"/>
<line x1="140.263" y1="212.756" x2="133.519" y2="230.801" stroke="#8c8c8c" stroke-width="0.3" stroke-dasharray="1.2,0.8"/>
<line x1="133.519" y1="230.801" x2="84.62" y2="185.473" stroke="#8c8c8c" stroke-width="0.3" stroke-dasharray="1.2,0.8"/>
<line x1="140.396" y1="181.831" x2="126.346" y2="150.909" stroke="#8c8c8c" stroke-width="0.3" stroke-dasharray="1.2,0.8"/>
<line x1="140.263" y1="212.756" x2="140.396" y2="181.831" stroke="#8c8c8c" stroke-width="0.3" stroke-dasharray="1.2,0.8"/>
<line x1="140.396" y1="181.831" x2="84.62" y2="185.473" stroke="#8c8c8c" stroke-width="0.3" stroke-dasharray="1.2,0.8"/>
<line x1="84.62" y1="185.473" x2="94.902" y2="231.154" stroke="#8c8c8c" stroke-width="0.3" stroke-dasharray="1.2,0.8"/>
<line x1="94.902" y1="231.154" x2="5.0" y2="200.156" stroke="#8c8c8c" stroke-width="0.3" stroke-dasharray="1.2,0.8"/>
<line x1="84.62" y1="185.473" x2="126.346" y2="150.909" stroke="#8c8c8c" stroke-width="0.3" stroke-dasharray="1.2,0.8"/>
<line x1="180.268" y1="150.909" x2="126.346" y2="150.909" stroke="#8c8c8c" stroke-width="0.3" stroke-dasharray="1.2,0.8"/>
<line x1="186.404" y1="207.54" x2="140.264" y2="212.756" stroke="#8c8c8c" stroke-width="0.3" stroke-dasharray="1.2,0.8"/>
<line x1="180.268" y1="150.909" x2="140.396" y2="181.831" stroke="#8c8c8c" stroke-width="0.3" stroke-dasharray="1.2,0.8"/>
<line x1="186.404" y1="207.54" x2="140.396" y2="181.831" stroke="#8c8c8c" stroke-width="0.3" stroke-dasharray="1.2,0.8"/>
<line x1="94.902" y1="231.154" x2="133.519" y2="230.801" stroke="#8c8c8c" stroke-width="0.3" stroke-dasharray="1.2,0.8"/>
<line x1="185.525" y1="250.968" x2="133.519" y2="230.801" stroke="#8c8c8c" stroke-width="0.3" stroke-dasharray="1.2,0.8"/>
<line x1="5.0" y1="200.156" x2="84.62" y2="185.473" stroke="#141414" stroke-width="0.4"/>
<line x1="140.263" y1="212.756" x2="185.525" y2="250.968" stroke="#141414" stroke-width="0.4"/>
<line x1="5.0" y1="200.156" x2="16.79" y2="209.722" stroke="#141414" stroke-width="0.4"/>
<line x1="16.79" y1="209.722" x2="79.722" y2="231.42" stroke="#141414" stroke-width="0.4"/>
<line x1="79.722" y1="231.42" x2="94.902" y2="231.154" stroke="#141414" stroke-width="0.4"/>
<line x1="126.346" y1="150.909" x2="116.77" y2="152.089" stroke="#141414" stroke-width="0.4"/>
<line x1="116.77" y1="152.089" x2="87.562" y2="176.284" stroke="#141414" stroke-width="0.4"/>
<line x1="87.562" y1="176.284" x2="84.62" y2="185.473" stroke="#141414" stroke-width="0.4"/>
<line x1="126.346" y1="150.909" x2="134.435" y2="145.709" stroke="#141414" stroke-width="0.4"/>
<line x1="134.435" y1="145.709" x2="172.18" y2="145.709" stroke="#141414" stroke-width="0.4"/>
<line x1="172.18" y1="145.709" x2="180.268" y2="150.909" stroke="#141414" stroke-width="0.4"/>
<line x1="140.264" y1="212.756" x2="154.69" y2="216.358" stroke="#141414" stroke-width="0.4"/>
<line x1="154.69" y1="216.358" x2="173.146" y2="214.272" stroke="#141414" stroke-width="0.4"/>
<line x1="173.146" y1="214.272" x2="186.404" y2="207.54" stroke="#141414" stroke-width="0.4"/>
<line x1="140.396" y1="181.831" x2="149.564" y2="181.301" stroke="#141414" stroke-width="0.4"/>
<line x1="149.564" y1="181.301" x2="177.474" y2="159.656" stroke="#141414" stroke-width="0.4"/>
<line x1="177.474" y1="159.656" x2="180.268" y2="150.909" stroke="#141414" stroke-width="0.4"/>
<line x1="140.396" y1="181.831" x2="162.256" y2="188.089" stroke="#141414" stroke-width="0.4"/>
<line x1="162.256" y1="188.089" x2="169.617" y2="192.203" stroke="#141414" stroke-width="0.4"/>
<line x1="169.617" y1="192.203" x2="186.404" y2="207.54" stroke="#141414" stroke-width="0.4"/>
<line x1="133.519" y1="230.801" x2="127.774" y2="236.053" stroke="#141414" stroke-width="0.4"/>
<line x1="127.774" y1="236.053" x2="100.742" y2="236.3" stroke="#141414" stroke-width="0.4"/>
<line x1="100.742" y1="236.3" x2="94.902" y2="231.154" stroke="#141414" stroke-width="0.4"/>
<line x1="133.519" y1="230.801" x2="139.44" y2="238.674" stroke="#141414" stroke-width="0.4"/>
<line x1="139.44" y1="238.674" x2="175.844" y2="252.791" stroke="#141414" stroke-width="0.4"/>
<line x1="175.844" y1="252.791" x2="185.525" y2="250.968" stroke="#141414" stroke-width="0.4"/>
<circle cx="49.104" cy="218.113" r="2.29" fill="#ffe082" stroke="#464646" stroke-width="0.2"/>
<text x="49.104" y="219.20" font-size="3.11" text-anchor="middle" fill="#141414">38</text>
<circle cx="103.825" cy="166.189" r="2.29" fill="#ffe082" stroke="#464646" stroke-width="0.2"/>
<text x="103.825" y="167.28" font-size="3.11" text-anchor="middle" fill="#141414">41</text>
<circle cx="153.307" cy="148.309" r="2.29" fill="#ffe082" stroke="#464646" stroke-width="0.2"/>
<text x="153.307" y="149.40" font-size="3.11" text-anchor="middle" fill="#141414">43</text>
<circle cx="163.626" cy="212.731" r="2.29" fill="#ffe082" stroke="#464646" stroke-width="0.2"/>
<text x="163.626" y="213.82" font-size="3.11" text-anchor="middle" fill="#141414">44</text>
<circle cx="161.926" cy="168.424" r="2.29" fill="#ffe082" stroke="#464646" stroke-width="0.2"/>
<text x="161.926" y="169.51" font-size="3.11" text-anchor="middle" fill="#141414">48</text>
<circle cx="164.668" cy="192.416" r="2.29" fill="#ffe082" stroke="#464646" stroke-width="0.2"/>
<text x="164.668" y="193.50" font-size="3.11" text-anchor="middle" fill="#141414">49</text>
<circle cx="114.234" cy="233.577" r="2.29" fill="#ffe082" stroke="#464646" stroke-width="0.2"/>
<text x="114.234" y="234.66" font-size="3.11" text-anchor="middle" fill="#141414">50</text>
<circle cx="158.582" cy="243.308" r="2.29" fill="#ffe082" stroke="#464646" stroke-width="0.2"/>
<text x="158.582" y="244.39" font-size="3.11" text-anchor="middle" fill="#141414">51</text>
<circle cx="104.347" cy="215.809" r="4.60" fill="#eaf1fe" stroke="#2e78e6" stroke-width="0.3"/>
<text x="104.347" y="217.61" font-size="5.20" text-anchor="middle" fill="#14306e" font-weight="bold">12</text>
<text x="205.0" y="295.0" font-size="3.2" text-anchor="end" fill="#737373" font-family="sans-serif">8 / 9</text>
</svg>
