<svg xmlns="http://www.w3.org/2000/svg" xmlns:xlink="http://www.w3.org/1999/xlink" width="210.00mm" height="297.00mm" viewBox="0 0 210.00 297.00">
<rect x="0" y="0" width="210.00" height="297.00" fill="#ffffff" stroke="#cccccc" stroke-width="0.2"/>
<polygon points="96.768,142.652 103.651,149.652 135.77,149.652 142.652,142.652" fill="rgb(216,216,216)"/>
<polygon points="96.768,96.768 103.651,89.768 135.77,89.768 142.652,96.768" fill="rgb(216,216,216)"/>
<polygon points="142.652,142.652 149.652,135.77 149.652,103.651 142.652,96.768" fill="rgb(216,216,216)"/>
<polygon points="96.768,188.536 89.886,195.536 57.767,195.536 50.884,188.536" fill="rgb(216,216,216)"/>
<polygon points="50.884,142.652 43.884,135.77 43.884,103.651 50.884,96.768" fill="rgb(216,216,216)"/>
<polygon points="50.884,142.652 43.884,149.535 43.884,181.654 50.884,188.536" fill="rgb(216,216,216)"/>
<polygon points="50.884,96.768 43.884,89.886 43.884,57.767 50.884,50.884" fill="rgb(216,216,216)"/>
<polygon points="96.768,142.652 103.651,149.652 135.77,149.652 142.652,142.652" fill="#99d9fa"/>
<line x1="96.768" y1="142.652" x2="96.768" y2="96.768" stroke="#8c8c8c" stroke-width="0.3" stroke-dasharray="1.2,0.8"/>
<line x1="96.768" y1="142.652" x2="50.884" y2="142.652" stroke="#8c8c8c" stroke-width="0.3" stroke-dasharray="1.2,0.8"/>
<line x1="50.884" y1="96.768" x2="96.768" y2="96.768" stroke="#8c8c8c" stroke-width="0.3" stroke-dasharray="1.2,0.8"/>
<line x1="50.884" y1="50.884" x2="96.768" y2="50.884" stroke="#8c8c8c" stroke-width="0.3" stroke-dasharray="1.2,0.8"/>
<line x1="50.884" y1="50.884" x2="50.884" y2="5.0" stroke="#8c8c8c" stroke-width="0.3" stroke-dasharray="1.2,0.8"/>
<line x1="142.652" y1="142.652" x2="96.768" y2="142.652" stroke="#8c8c8c" stroke-width="0.3" stroke-dasharray="1.2,0.8"/>
<line x1="142.652" y1="96.768" x2="96.768" y2="96.768" stroke="#8c8c8c" stroke-width="0.3" stroke-dasharray="1.2,0.8"/>
<line x1="142.652" y1="96.768" x2="142.652" y2="142.652" stroke="#8c8c8c" stroke-width="0.3" stroke-dasharray="1.2,0.8"/>
<line x1="50.884" y1="188.536" x2="96.768" y2="188.536" stroke="#8c8c8c" stroke-width="0.3" stroke-dasharray="1.2,0.8"/>
<line x1="50.884" y1="96.768" x2="50.884" y2="142.652" stroke="#8c8c8c" stroke-width="0.3" stroke-dasharray="1.2,0.8"/>
<line x1="50.884" y1="188.536" x2="50.884" y2="142.652" stroke="#8c8c8c" stroke-width="0.3" stroke-dasharray="1.2,0.8"/>
<line x1="50.884" y1="50.884" x2="50.884" y2="96.768" stroke="#8c8c8c" stroke-width="0.3" stroke-dasharray="1.2,0.8"/>
<line x1="96.768" y1="142.652" x2="96.768" y2="188.536" stroke="#141414" stroke-width="0.4"/>
<line x1="96.768" y1="50.884" x2="96.768" y2="96.768" stroke="#141414" stroke-width="0.4"/>
<line x1="96.768" y1="5.0" x2="96.768" y2="50.884" stroke="#141414" stroke-width="0.4"/>
<line x1="50.884" y1="5.0" x2="96.768" y2="5.0" stroke="#141414" stroke-width="0.4"/>
<line x1="5.0" y1="50.884" x2="5.0" y2="5.0" stroke="#141414" stroke-width="0.4"/>
<line x1="5.0" y1="5.0" x2="50.884" y2="5.0" stroke="#141414" stroke-width="0.4"/>
<line x1="50.884" y1="50.884" x2="5.0" y2="50.884" stroke="#141414" stroke-width="0.4"/>
<line x1="96.768" y1="142.652" x2="103.651" y2="149.652" stroke="#141414" stroke-width="0.4"/>
<line x1="103.651" y1="149.652" x2="135.77" y2="149.652" stroke="#141414" stroke-width="0.4"/>
<line x1="135.77" y1="149.652" x2="142.652" y2="142.652" stroke="#141414" stroke-width="0.4"/>
<line x1="96.768" y1="96.768" x2="103.651" y2="89.768" stroke="#141414" stroke-width="0.4"/>
<line x1="103.651" y1="89.768" x2="135.77" y2="89.768" stroke="#141414" stroke-width="0.4"/>
<line x1="135.77" y1="89.768" x2="142.652" y2="96.768" stroke="#141414" stroke-width="0.4"/>
<line x1="142.652" y1="142.652" x2="149.652" y2="135.77" stroke="#141414" stroke-width="0.4"/>
<line x1="149.652" y1="135.77" x2="149.652" y2="103.651" stroke="#141414" stroke-width="0.4"/>
<line x1="149.652" y1="103.651" x2="142.652" y2="96.768" stroke="#141414" stroke-width="0.4"/>
<line x1="96.768" y1="188.536" x2="89.886" y2="195.536" stroke="#141414" stroke-width="0.4"/>
<line x1="89.886" y1="195.536" x2="57.767" y2="195.536" stroke="#141414" stroke-width="0.4"/>
<line x1="57.767" y1="195.536" x2="50.884" y2="188.536" stroke="#141414" stroke-width="0.4"/>
<line x1="50.884" y1="142.652" x2="43.884" y2="135.77" stroke="#141414" stroke-width="0.4"/>
<line x1="43.884" y1="135.77" x2="43.884" y2="103.651" stroke="#141414" stroke-width="0.4"/>
<line x1="43.884" y1="103.651" x2="50.884" y2="96.768" stroke="#141414" stroke-width="0.4"/>
<line x1="50.884" y1="142.652" x2="43.884" y2="149.535" stroke="#141414" stroke-width="0.4"/>
<line x1="43.884" y1="149.535" x2="43.884" y2="181.654" stroke="#141414" stroke-width="0.4"/>
<line x1="43.884" y1="181.654" x2="50.884" y2="188.536" stroke="#141414" stroke-width="0.4"/>
<line x1="50.884" y1="96.768" x2="43.884" y2="89.886" stroke="#141414" stroke-width="0.4"/>
<line x1="43.884" y1="89.886" x2="43.884" y2="57.767" stroke="#141414" stroke-width="0.4"/>
<line x1="43.884" y1="57.767" x2="50.884" y2="50.884" stroke="#141414" stroke-width="0.4"/>
<circle cx="119.71" cy="146.152" r="2.05" fill="#99d9fa" stroke="#464646" stroke-width="0.2"/>
<text x="119.71" y="146.85" font-size="2.01" text-anchor="middle" fill="#141414">81</text>
<circle cx="119.71" cy="93.268" r="2.05" fill="#ffe082" stroke="#464646" stroke-width="0.2"/>
<text x="119.71" y="93.97" font-size="2.01" text-anchor="middle" fill="#141414">82</text>
<circle cx="146.152" cy="119.71" r="2.05" fill="#ffe082" stroke="#464646" stroke-width="0.2"/>
<text x="146.152" y="120.41" font-size="2.01" text-anchor="middle" fill="#141414">83</text>
<circle cx="73.826" cy="192.036" r="2.05" fill="#ffe082" stroke="#464646" stroke-width="0.2"/>
<text x="73.826" y="192.74" font-size="2.01" text-anchor="middle" fill="#141414">84</text>
<circle cx="47.384" cy="119.71" r="2.05" fill="#ffe082" stroke="#464646" stroke-width="0.2"/>
<text x="47.384" y="120.41" font-size="2.01" text-anchor="middle" fill="#141414">85</text>
<circle cx="47.384" cy="165.594" r="2.05" fill="#ffe082" stroke="#464646" stroke-width="0.2"/>
<text x="47.384" y="166.30" font-size="2.01" text-anchor="middle" fill="#141414">86</text>
<circle cx="47.384" cy="73.826" r="2.05" fill="#ffe082" stroke="#464646" stroke-width="0.2"/>
<text x="47.384" y="74.53" font-size="2.01" text-anchor="middle" fill="#141414">87</text>
<circle cx="66.179" cy="173.242" r="4.60" fill="#eaf1fe" stroke="#2e78e6" stroke-width="0.3"/>
<text x="66.179" y="175.04" font-size="5.20" text-anchor="middle" fill="#14306e" font-weight="bold">11</text>
<text x="205.0" y="295.0" font-size="3.2" text-anchor="end" fill="#737373" font-family="sans-serif">10 / 14</text>
</svg>
