<svg xmlns="http://www.w3.org/2000/svg" xmlns:xlink="http://www.w3.org/1999/xlink" width="210.00mm" height="297.00mm" viewBox="0 0 210.00 297.00">
<rect x="0" y="0" width="210.00" height="297.00" fill="#ffffff" stroke="#cccccc" stroke-width="0.2"/>
<polygon points="56.291,41.364 56.796,30.959 82.25,5.505 92.655,5.0" fill="rgb(216,216,216)"/>
<polygon points="34.716,99.302 29.82,109.839 38.906,152.151 47.697,159.749" fill="rgb(216,216,216)"/>
<polygon points="92.655,77.727 103.059,77.222 128.513,51.768 129.018,41.364" fill="rgb(216,216,216)"/>
<polygon points="129.018,41.364 128.513,30.959 103.059,5.505 92.655,5.0" fill="rgb(216,216,216)"/>
<line x1="34.716" y1="99.302" x2="56.291" y2="41.364" stroke="#8c8c8c" stroke-width="0.3" stroke-dasharray="1.2,0.8"/>
<line x1="92.655" y1="77.727" x2="56.291" y2="41.364" stroke="#8c8c8c" stroke-width="0.3" stroke-dasharray="1.2,0.8"/>
<line x1="92.655" y1="77.727" x2="34.716" y2="99.302" stroke="#8c8c8c" stroke-width="0.3" stroke-dasharray="1.2,0.8"/>
<line x1="88.931" y1="129.018" x2="34.716" y2="99.302" stroke="#8c8c8c" stroke-width="0.3" stroke-dasharray="1.2,0.8"/>
<line x1="92.655" y1="5.0" x2="56.291" y2="41.364" stroke="#8c8c8c" stroke-width="0.3" stroke-dasharray="1.2,0.8"/>
<line x1="47.697" y1="159.749" x2="34.716" y2="99.302" stroke="#8c8c8c" stroke-width="0.3" stroke-dasharray="1.2,0.8"/>
<line x1="129.018" y1="41.364" x2="92.655" y2="77.727" stroke="#8c8c8c" stroke-width="0.3" stroke-dasharray="1.2,0.8"/>
<line x1="92.655" y1="5.0" x2="129.018" y2="41.364" stroke="#8c8c8c" stroke-width="0.3" stroke-dasharray="1.2,0.8"/>
<line x1="5.0" y1="45.087" x2="56.291" y2="41.364" stroke="#141414" stroke-width="0.4"/>
<line x1="34.716" y1="99.302" x2="5.0" y2="45.087" stroke="#141414" stroke-width="0.4"/>
<line x1="92.655" y1="77.727" x2="88.931" y2="129.018" stroke="#141414" stroke-width="0.4"/>
<line x1="88.931" y1="129.018" x2="47.697" y2="159.749" stroke="#141414" stroke-width="0.4"/>
<line x1="56.291" y1="41.364" x2="56.796" y2="30.959" stroke="#141414" stroke-width="0.4"/>
<line x1="56.796" y1="30.959" x2="82.25" y2="5.505" stroke="#141414" stroke-width="0.4"/>
<line x1="82.25" y1="5.505" x2="92.655" y2="5.0" stroke="#141414" stroke-width="0.4"/>
<line x1="34.716" y1="99.302" x2="29.82" y2="109.839" stroke="#141414" stroke-width="0.4"/>
<line x1="29.82" y1="109.839" x2="38.906" y2="152.151" stroke="#141414" stroke-width="0.4"/>
<line x1="38.906" y1="152.151" x2="47.697" y2="159.749" stroke="#141414" stroke-width="0.4"/>
<line x1="92.655" y1="77.727" x2="103.059" y2="77.222" stroke="#141414" stroke-width="0.4"/>
<line x1="103.059" y1="77.222" x2="128.513" y2="51.768" stroke="#141414" stroke-width="0.4"/>
<line x1="128.513" y1="51.768" x2="129.018" y2="41.364" stroke="#141414" stroke-width="0.4"/>
<line x1="129.018" y1="41.364" x2="128.513" y2="30.959" stroke="#141414" stroke-width="0.4"/>
<line x1="128.513" y1="30.959" x2="103.059" y2="5.505" stroke="#141414" stroke-width="0.4"/>
<line x1="103.059" y1="5.505" x2="92.655" y2="5.0" stroke="#141414" stroke-width="0.4"/>
<circle cx="71.998" cy="20.707" r="3.08" fill="#ffe082" stroke="#464646" stroke-width="0.2"/>
<text x="71.998" y="22.17" font-size="4.18" text-anchor="middle" fill="#141414">1</text>
<circle cx="37.785" cy="130.26" r="3.08" fill="#ffe082" stroke="#464646" stroke-width="0.2"/>
<text x="37.785" y="131.72" font-size="4.18" text-anchor="middle" fill="#141414">2</text>
<circle cx="113.311" cy="62.02" r="3.08" fill="#ffe082" stroke="#464646" stroke-width="0.2"/>
<text x="113.311" y="63.48" font-size="4.18" text-anchor="middle" fill="#141414">3</text>
<circle cx="113.311" cy="20.707" r="3.08" fill="#ffe082" stroke="#464646" stroke-width="0.2"/>
<text x="113.311" y="22.17" font-size="4.18" text-anchor="middle" fill="#141414">4</text>
<circle cx="67.009" cy="165.849" r="4.6" fill="#eaf1fe" stroke="#2e78e6" stroke-width="0.3"/>
<text x="67.009" y="167.649" font-size="5.2" text-anchor="middle" fill="#14306e" font-weight="bold">1</text>
<polygon points="43.41,190.88 42.551,181.84 61.642,162.749 70.683,163.608" fill="rgb(216,216,216)"/>
<polygon points="27.942,233.622 22.16,241.5 27.4,272.883 35.428,278.456" fill="rgb(216,216,216)"/>
<polygon points="70.683,218.153 79.724,219.012 98.814,199.921 97.956,190.88" fill="rgb(216,216,216)"/>
<polygon points="97.956,190.88 98.814,181.84 79.724,162.749 70.683,163.608" fill="rgb(216,216,216)"/>
<line x1="27.942" y1="233.622" x2="43.41" y2="190.88" stroke="#8c8c8c" stroke-width="0.3" stroke-dasharray="1.2,0.8"/>
<line x1="70.683" y1="218.153" x2="43.41" y2="190.88" stroke="#8c8c8c" stroke-width="0.3" stroke-dasharray="1.2,0.8"/>
<line x1="70.683" y1="218.153" x2="27.942" y2="233.622" stroke="#8c8c8c" stroke-width="0.3" stroke-dasharray="1.2,0.8"/>
<line x1="67.182" y1="256.563" x2="27.942" y2="233.622" stroke="#8c8c8c" stroke-width="0.3" stroke-dasharray="1.2,0.8"/>
<line x1="70.683" y1="163.608" x2="43.41" y2="190.88" stroke="#8c8c8c" stroke-width="0.3" stroke-dasharray="1.2,0.8"/>
<line x1="35.428" y1="278.456" x2="27.942" y2="233.622" stroke="#8c8c8c" stroke-width="0.3" stroke-dasharray="1.2,0.8"/>
<line x1="97.956" y1="190.88" x2="70.683" y2="218.153" stroke="#8c8c8c" stroke-width="0.3" stroke-dasharray="1.2,0.8"/>
<line x1="70.683" y1="163.608" x2="97.956" y2="190.88" stroke="#8c8c8c" stroke-width="0.3" stroke-dasharray="1.2,0.8"/>
<line x1="5.0" y1="194.381" x2="43.41" y2="190.88" stroke="#141414" stroke-width="0.4"/>
<line x1="27.942" y1="233.622" x2="5.0" y2="194.381" stroke="#141414" stroke-width="0.4"/>
<line x1="70.683" y1="218.153" x2="67.182" y2="256.563" stroke="#141414" stroke-width="0.4"/>
<line x1="67.182" y1="256.563" x2="35.428" y2="278.456" stroke="#141414" stroke-width="0.4"/>
<line x1="43.41" y1="190.88" x2="42.551" y2="181.84" stroke="#141414" stroke-width="0.4"/>
<line x1="42.551" y1="181.84" x2="61.642" y2="162.749" stroke="#141414" stroke-width="0.4"/>
<line x1="61.642" y1="162.749" x2="70.683" y2="163.608" stroke="#141414" stroke-width="0.4"/>
<line x1="27.942" y1="233.622" x2="22.16" y2="241.5" stroke="#141414" stroke-width="0.4"/>
<line x1="22.16" y1="241.5" x2="27.4" y2="272.883" stroke="#141414" stroke-width="0.4"/>
<line x1="27.4" y1="272.883" x2="35.428" y2="278.456" stroke="#141414" stroke-width="0.4"/>
<line x1="70.683" y1="218.153" x2="79.724" y2="219.012" stroke="#141414" stroke-width="0.4"/>
<line x1="79.724" y1="219.012" x2="98.814" y2="199.921" stroke="#141414" stroke-width="0.4"/>
<line x1="98.814" y1="199.921" x2="97.956" y2="190.88" stroke="#141414" stroke-width="0.4"/>
<line x1="97.956" y1="190.88" x2="98.814" y2="181.84" stroke="#141414" stroke-width="0.4"/>
<line x1="98.814" y1="181.84" x2="79.724" y2="162.749" stroke="#141414" stroke-width="0.4"/>
<line x1="79.724" y1="162.749" x2="70.683" y2="163.608" stroke="#141414" stroke-width="0.4"/>
<circle cx="54.572" cy="174.769" r="3.08" fill="#ffe082" stroke="#464646" stroke-width="0.2"/>
<text x="54.572" y="176.23" font-size="4.18" text-anchor="middle" fill="#141414">5</text>
<circle cx="28.232" cy="256.615" r="3.08" fill="#ffe082" stroke="#464646" stroke-width="0.2"/>
<text x="28.232" y="258.08" font-size="4.18" text-anchor="middle" fill="#141414">6</text>
<circle cx="86.794" cy="206.992" r="3.08" fill="#ffe082" stroke="#464646" stroke-width="0.2"/>
<text x="86.794" y="208.45" font-size="4.18" text-anchor="middle" fill="#141414">7</text>
<circle cx="86.794" cy="174.769" r="3.08" fill="#ffe082" stroke="#464646" stroke-width="0.2"/>
<text x="86.794" y="176.23" font-size="4.18" text-anchor="middle" fill="#141414">8</text>
<circle cx="51.907" cy="156.649" r="4.6" fill="#eaf1fe" stroke="#2e78e6" stroke-width="0.3"/>
<text x="51.907" y="158.449" font-size="5.2" text-anchor="middle" fill="#14306e" font-weight="bold">2</text>
<polygon points="157.664,25.404 155.441,17.727 168.169,5.0 175.846,7.223" fill="rgb(216,216,216)"/>
<polygon points="146.877,54.373 141.006,60.377 145.549,81.533 153.367,84.597" fill="rgb(216,216,216)"/>
<polygon points="175.846,43.586 183.523,45.809 196.25,33.081 194.027,25.404" fill="rgb(216,216,216)"/>
<polygon points="194.027,25.404 196.25,17.727 183.523,5.0 175.846,7.223" fill="rgb(216,216,216)"/>
<line x1="146.877" y1="54.373" x2="157.664" y2="25.404" stroke="#8c8c8c" stroke-width="0.3" stroke-dasharray="1.2,0.8"/>
<line x1="175.846" y1="43.586" x2="157.664" y2="25.404" stroke="#8c8c8c" stroke-width="0.3" stroke-dasharray="1.2,0.8"/>
<line x1="175.846" y1="43.586" x2="146.877" y2="54.373" stroke="#8c8c8c" stroke-width="0.3" stroke-dasharray="1.2,0.8"/>
<line x1="173.984" y1="69.232" x2="146.877" y2="54.373" stroke="#8c8c8c" stroke-width="0.3" stroke-dasharray="1.2,0.8"/>
<line x1="175.846" y1="7.223" x2="157.664" y2="25.404" stroke="#8c8c8c" stroke-width="0.3" stroke-dasharray="1.2,0.8"/>
<line x1="153.367" y1="84.597" x2="146.877" y2="54.373" stroke="#8c8c8c" stroke-width="0.3" stroke-dasharray="1.2,0.8"/>
<line x1="194.027" y1="25.404" x2="175.846" y2="43.586" stroke="#8c8c8c" stroke-width="0.3" stroke-dasharray="1.2,0.8"/>
<line x1="175.846" y1="7.223" x2="194.027" y2="25.404" stroke="#8c8c8c" stroke-width="0.3" stroke-dasharray="1.2,0.8"/>
<line x1="132.018" y1="27.266" x2="157.664" y2="25.404" stroke="#141414" stroke-width="0.4"/>
<line x1="146.877" y1="54.373" x2="132.018" y2="27.266" stroke="#141414" stroke-width="0.4"/>
<line x1="175.846" y1="43.586" x2="173.984" y2="69.232" stroke="#141414" stroke-width="0.4"/>
<line x1="173.984" y1="69.232" x2="153.367" y2="84.597" stroke="#141414" stroke-width="0.4"/>
<line x1="157.664" y1="25.404" x2="155.441" y2="17.727" stroke="#141414" stroke-width="0.4"/>
<line x1="155.441" y1="17.727" x2="168.169" y2="5.0" stroke="#141414" stroke-width="0.4"/>
<line x1="168.169" y1="5.0" x2="175.846" y2="7.223" stroke="#141414" stroke-width="0.4"/>
<line x1="146.877" y1="54.373" x2="141.006" y2="60.377" stroke="#141414" stroke-width="0.4"/>
<line x1="141.006" y1="60.377" x2="145.549" y2="81.533" stroke="#141414" stroke-width="0.4"/>
<line x1="145.549" y1="81.533" x2="153.367" y2="84.597" stroke="#141414" stroke-width="0.4"/>
<line x1="175.846" y1="43.586" x2="183.523" y2="45.809" stroke="#141414" stroke-width="0.4"/>
<line x1="183.523" y1="45.809" x2="196.25" y2="33.081" stroke="#141414" stroke-width="0.4"/>
<line x1="196.25" y1="33.081" x2="194.027" y2="25.404" stroke="#141414" stroke-width="0.4"/>
<line x1="194.027" y1="25.404" x2="196.25" y2="17.727" stroke="#141414" stroke-width="0.4"/>
<line x1="196.25" y1="17.727" x2="183.523" y2="5.0" stroke="#141414" stroke-width="0.4"/>
<line x1="183.523" y1="5.0" x2="175.846" y2="7.223" stroke="#141414" stroke-width="0.4"/>
<circle cx="164.28" cy="13.839" r="3.08" fill="#ffe082" stroke="#464646" stroke-width="0.2"/>
<text x="164.28" y="15.30" font-size="4.18" text-anchor="middle" fill="#141414">9</text>
<circle cx="146.7" cy="70.22" r="3.08" fill="#ffe082" stroke="#464646" stroke-width="0.2"/>
<text x="146.7" y="71.68" font-size="4.18" text-anchor="middle" fill="#141414">10</text>
<circle cx="187.411" cy="36.97" r="3.08" fill="#ffe082" stroke="#464646" stroke-width="0.2"/>
<text x="187.411" y="38.43" font-size="4.18" text-anchor="middle" fill="#141414">11</text>
<circle cx="187.411" cy="13.839" r="3.08" fill="#ffe082" stroke="#464646" stroke-width="0.2"/>
<text x="187.411" y="15.30" font-size="4.18" text-anchor="middle" fill="#141414">12</text>
<circle cx="164.134" cy="90.697" r="4.6" fill="#eaf1fe" stroke="#2e78e6" stroke-width="0.3"/>
<text x="164.134" y="92.497" font-size="5.2" text-anchor="middle" fill="#14306e" font-weight="bold">3</text>
<g pointer-events="none"><text x="105.0" y="83.2" text-anchor="middle" font-family="sans-serif" font-size="12.4" fill="#9aa0a6" fill-opacity="0.3" transform="rotate(-28 105.0 83.2)">papercraft.kr</text><text x="105.0" y="148.5" text-anchor="middle" font-family="sans-serif" font-size="12.4" fill="#9aa0a6" fill-opacity="0.3" transform="rotate(-28 105.0 148.5)">papercraft.kr</text><text x="105.0" y="213.8" text-anchor="middle" font-family="sans-serif" font-size="12.4" fill="#9aa0a6" fill-opacity="0.3" transform="rotate(-28 105.0 213.8)">papercraft.kr</text></g></svg>
