<svg xmlns="http://www.w3.org/2000/svg" xmlns:xlink="http://www.w3.org/1999/xlink" width="210.00mm" height="297.00mm" viewBox="0 0 210.00 297.00">
<rect x="0" y="0" width="210.00" height="297.00" fill="#ffffff" stroke="#cccccc" stroke-width="0.2"/>
<polygon points="175.36,6.779 180.07,26.436 169.609,114.306 160.416,132.308" fill="rgb(216,216,216)"/>
<polygon points="160.416,5.0 151.224,23.002 140.763,110.872 145.473,130.529" fill="rgb(216,216,216)"/>
<polygon points="5.0,241.114 23.002,250.306 110.872,260.767 130.529,256.058" fill="rgb(216,216,216)"/>
<polygon points="160.416,5.0 151.224,23.002 140.763,110.872 145.473,130.529" fill="#99d9fa"/>
<line x1="160.417" y1="132.308" x2="145.473" y2="130.529" stroke="#8c8c8c" stroke-width="0.3" stroke-dasharray="1.2,0.8"/>
<line x1="145.473" y1="130.529" x2="130.529" y2="256.058" stroke="#8c8c8c" stroke-width="0.3" stroke-dasharray="1.2,0.8"/>
<line x1="160.416" y1="132.308" x2="175.36" y2="6.779" stroke="#8c8c8c" stroke-width="0.3" stroke-dasharray="1.2,0.8"/>
<line x1="145.473" y1="130.529" x2="160.416" y2="5.0" stroke="#8c8c8c" stroke-width="0.3" stroke-dasharray="1.2,0.8"/>
<line x1="130.529" y1="256.058" x2="5.0" y2="241.114" stroke="#8c8c8c" stroke-width="0.3" stroke-dasharray="1.2,0.8"/>
<line x1="160.417" y1="5.0" x2="175.36" y2="6.779" stroke="#141414" stroke-width="0.4"/>
<line x1="5.0" y1="241.114" x2="19.944" y2="115.585" stroke="#141414" stroke-width="0.4"/>
<line x1="19.944" y1="115.585" x2="145.473" y2="130.529" stroke="#141414" stroke-width="0.4"/>
<line x1="160.417" y1="132.308" x2="145.473" y2="257.837" stroke="#141414" stroke-width="0.4"/>
<line x1="145.473" y1="257.837" x2="130.529" y2="256.058" stroke="#141414" stroke-width="0.4"/>
<line x1="175.36" y1="6.779" x2="180.07" y2="26.436" stroke="#141414" stroke-width="0.4"/>
<line x1="180.07" y1="26.436" x2="169.609" y2="114.306" stroke="#141414" stroke-width="0.4"/>
<line x1="169.609" y1="114.306" x2="160.416" y2="132.308" stroke="#141414" stroke-width="0.4"/>
<line x1="160.416" y1="5.0" x2="151.224" y2="23.002" stroke="#141414" stroke-width="0.4"/>
<line x1="151.224" y1="23.002" x2="140.763" y2="110.872" stroke="#141414" stroke-width="0.4"/>
<line x1="140.763" y1="110.872" x2="145.473" y2="130.529" stroke="#141414" stroke-width="0.4"/>
<line x1="5.0" y1="241.114" x2="23.002" y2="250.306" stroke="#141414" stroke-width="0.4"/>
<line x1="23.002" y1="250.306" x2="110.872" y2="260.767" stroke="#141414" stroke-width="0.4"/>
<line x1="110.872" y1="260.767" x2="130.529" y2="256.058" stroke="#141414" stroke-width="0.4"/>
<circle cx="171.364" cy="69.957" r="1.10" fill="#ffe082" stroke="#464646" stroke-width="0.2"/>
<text x="171.364" y="70.34" font-size="1.08" text-anchor="middle" fill="#141414">6</text>
<circle cx="149.469" cy="67.351" r="1.10" fill="#99d9fa" stroke="#464646" stroke-width="0.2"/>
<text x="149.469" y="67.73" font-size="1.08" text-anchor="middle" fill="#141414">7</text>
<circle cx="67.351" cy="252.061" r="1.10" fill="#ffe082" stroke="#464646" stroke-width="0.2"/>
<text x="67.351" y="252.44" font-size="1.08" text-anchor="middle" fill="#141414">8</text>
<circle cx="98.648" cy="167.39" r="4.60" fill="#eaf1fe" stroke="#2e78e6" stroke-width="0.3"/>
<text x="98.648" y="169.19" font-size="5.20" text-anchor="middle" fill="#14306e" font-weight="bold">2</text>
<text x="205.0" y="295.0" font-size="3.2" text-anchor="end" fill="#737373" font-family="sans-serif">2 / 7</text>
<g pointer-events="none"><text x="105.0" y="83.2" text-anchor="middle" font-family="sans-serif" font-size="12.4" fill="#9aa0a6" fill-opacity="0.3" transform="rotate(-28 105.0 83.2)">papercraft.kr</text><text x="105.0" y="148.5" text-anchor="middle" font-family="sans-serif" font-size="12.4" fill="#9aa0a6" fill-opacity="0.3" transform="rotate(-28 105.0 148.5)">papercraft.kr</text><text x="105.0" y="213.8" text-anchor="middle" font-family="sans-serif" font-size="12.4" fill="#9aa0a6" fill-opacity="0.3" transform="rotate(-28 105.0 213.8)">papercraft.kr</text></g></svg>
