<svg xmlns="http://www.w3.org/2000/svg" xmlns:xlink="http://www.w3.org/1999/xlink" width="210.00mm" height="297.00mm" viewBox="0 0 210.00 297.00">
<rect x="0" y="0" width="210.00" height="297.00" fill="#ffffff" stroke="#cccccc" stroke-width="0.2"/>
<polygon points="75.078,153.543 68.018,159.765 67.735,189.115 74.674,195.471" fill="rgb(216,216,216)"/>
<polygon points="110.906,174.366 108.994,183.58 83.632,198.354 74.674,195.471" fill="rgb(216,216,216)"/>
<polygon points="74.132,72.823 66.928,66.769 65.957,37.434 72.745,30.916" fill="rgb(216,216,216)"/>
<polygon points="109.461,51.166 107.335,41.999 81.633,27.824 72.745,30.916" fill="rgb(216,216,216)"/>
<polygon points="110.848,93.073 119.851,95.485 143.753,79.557 144.993,70.319" fill="rgb(216,216,216)"/>
<polygon points="111.309,132.438 120.254,129.815 144.523,145.178 145.979,154.385" fill="rgb(216,216,216)"/>
<polygon points="105.85,9.392 114.502,5.925 140.13,18.895 142.461,27.92" fill="rgb(216,216,216)"/>
<polygon points="5.0,158.56 6.164,149.312 29.934,133.188 38.957,135.525" fill="rgb(216,216,216)"/>
<polygon points="108.274,216.213 117.005,219.476 142.322,205.91 144.441,196.832" fill="rgb(216,216,216)"/>
<polygon points="142.461,27.92 149.828,33.862 151.601,63.542 144.993,70.319" fill="rgb(216,216,216)"/>
<polygon points="38.957,135.525 40.692,126.22 65.977,110.577 75.078,113.178" fill="rgb(216,216,216)"/>
<line x1="110.906" y1="174.366" x2="75.078" y2="153.543" stroke="#8c8c8c" stroke-width="0.3" stroke-dasharray="1.2,0.8"/>
<line x1="111.309" y1="132.438" x2="75.078" y2="153.543" stroke="#8c8c8c" stroke-width="0.3" stroke-dasharray="1.2,0.8"/>
<line x1="38.957" y1="135.525" x2="75.078" y2="153.543" stroke="#8c8c8c" stroke-width="0.3" stroke-dasharray="1.2,0.8"/>
<line x1="75.078" y1="153.543" x2="75.078" y2="113.177" stroke="#8c8c8c" stroke-width="0.3" stroke-dasharray="1.2,0.8"/>
<line x1="111.309" y1="132.438" x2="110.906" y2="174.366" stroke="#8c8c8c" stroke-width="0.3" stroke-dasharray="1.2,0.8"/>
<line x1="110.906" y1="174.366" x2="144.441" y2="196.833" stroke="#8c8c8c" stroke-width="0.3" stroke-dasharray="1.2,0.8"/>
<line x1="145.979" y1="154.385" x2="110.906" y2="174.366" stroke="#8c8c8c" stroke-width="0.3" stroke-dasharray="1.2,0.8"/>
<line x1="74.132" y1="72.823" x2="109.461" y2="51.166" stroke="#8c8c8c" stroke-width="0.3" stroke-dasharray="1.2,0.8"/>
<line x1="110.848" y1="93.073" x2="74.132" y2="72.823" stroke="#8c8c8c" stroke-width="0.3" stroke-dasharray="1.2,0.8"/>
<line x1="38.443" y1="91.683" x2="74.132" y2="72.823" stroke="#8c8c8c" stroke-width="0.3" stroke-dasharray="1.2,0.8"/>
<line x1="74.132" y1="72.823" x2="75.078" y2="113.177" stroke="#8c8c8c" stroke-width="0.3" stroke-dasharray="1.2,0.8"/>
<line x1="110.848" y1="93.073" x2="109.461" y2="51.166" stroke="#8c8c8c" stroke-width="0.3" stroke-dasharray="1.2,0.8"/>
<line x1="142.461" y1="27.919" x2="109.461" y2="51.166" stroke="#8c8c8c" stroke-width="0.3" stroke-dasharray="1.2,0.8"/>
<line x1="109.461" y1="51.166" x2="144.993" y2="70.319" stroke="#8c8c8c" stroke-width="0.3" stroke-dasharray="1.2,0.8"/>
<line x1="110.848" y1="93.073" x2="111.309" y2="132.438" stroke="#8c8c8c" stroke-width="0.3" stroke-dasharray="1.2,0.8"/>
<line x1="75.078" y1="113.177" x2="110.848" y2="93.073" stroke="#8c8c8c" stroke-width="0.3" stroke-dasharray="1.2,0.8"/>
<line x1="75.078" y1="113.177" x2="111.309" y2="132.438" stroke="#8c8c8c" stroke-width="0.3" stroke-dasharray="1.2,0.8"/>
<line x1="40.02" y1="176.544" x2="5.0" y2="158.56" stroke="#8c8c8c" stroke-width="0.3" stroke-dasharray="1.2,0.8"/>
<line x1="40.02" y1="176.544" x2="38.957" y2="135.525" stroke="#8c8c8c" stroke-width="0.3" stroke-dasharray="1.2,0.8"/>
<line x1="74.674" y1="195.471" x2="75.078" y2="153.543" stroke="#8c8c8c" stroke-width="0.3" stroke-dasharray="1.2,0.8"/>
<line x1="74.674" y1="195.471" x2="110.906" y2="174.366" stroke="#8c8c8c" stroke-width="0.3" stroke-dasharray="1.2,0.8"/>
<line x1="72.745" y1="30.916" x2="74.132" y2="72.823" stroke="#8c8c8c" stroke-width="0.3" stroke-dasharray="1.2,0.8"/>
<line x1="72.745" y1="30.916" x2="109.461" y2="51.166" stroke="#8c8c8c" stroke-width="0.3" stroke-dasharray="1.2,0.8"/>
<line x1="144.993" y1="70.319" x2="110.848" y2="93.073" stroke="#8c8c8c" stroke-width="0.3" stroke-dasharray="1.2,0.8"/>
<line x1="145.979" y1="154.385" x2="111.309" y2="132.438" stroke="#8c8c8c" stroke-width="0.3" stroke-dasharray="1.2,0.8"/>
<line x1="142.461" y1="27.92" x2="105.85" y2="9.392" stroke="#8c8c8c" stroke-width="0.3" stroke-dasharray="1.2,0.8"/>
<line x1="38.957" y1="135.525" x2="5.0" y2="158.56" stroke="#8c8c8c" stroke-width="0.3" stroke-dasharray="1.2,0.8"/>
<line x1="144.441" y1="196.832" x2="108.274" y2="216.213" stroke="#8c8c8c" stroke-width="0.3" stroke-dasharray="1.2,0.8"/>
<line x1="144.993" y1="70.319" x2="142.461" y2="27.92" stroke="#8c8c8c" stroke-width="0.3" stroke-dasharray="1.2,0.8"/>
<line x1="75.078" y1="113.178" x2="38.957" y2="135.525" stroke="#8c8c8c" stroke-width="0.3" stroke-dasharray="1.2,0.8"/>
<line x1="75.078" y1="153.543" x2="40.02" y2="176.544" stroke="#141414" stroke-width="0.4"/>
<line x1="108.274" y1="216.213" x2="110.906" y2="174.366" stroke="#141414" stroke-width="0.4"/>
<line x1="38.544" y1="50.65" x2="74.132" y2="72.823" stroke="#141414" stroke-width="0.4"/>
<line x1="109.461" y1="51.166" x2="105.85" y2="9.392" stroke="#141414" stroke-width="0.4"/>
<line x1="110.848" y1="93.073" x2="147.079" y2="112.334" stroke="#141414" stroke-width="0.4"/>
<line x1="147.079" y1="112.334" x2="111.309" y2="132.438" stroke="#141414" stroke-width="0.4"/>
<line x1="6.063" y1="199.579" x2="5.0" y2="158.56" stroke="#141414" stroke-width="0.4"/>
<line x1="38.443" y1="91.683" x2="38.544" y2="50.65" stroke="#141414" stroke-width="0.4"/>
<line x1="40.02" y1="176.544" x2="6.063" y2="199.579" stroke="#141414" stroke-width="0.4"/>
<line x1="145.979" y1="154.385" x2="144.441" y2="196.833" stroke="#141414" stroke-width="0.4"/>
<line x1="75.078" y1="113.177" x2="38.443" y2="91.683" stroke="#141414" stroke-width="0.4"/>
<line x1="75.078" y1="153.543" x2="68.018" y2="159.765" stroke="#141414" stroke-width="0.4"/>
<line x1="68.018" y1="159.765" x2="67.735" y2="189.115" stroke="#141414" stroke-width="0.4"/>
<line x1="67.735" y1="189.115" x2="74.674" y2="195.471" stroke="#141414" stroke-width="0.4"/>
<line x1="110.906" y1="174.366" x2="108.994" y2="183.58" stroke="#141414" stroke-width="0.4"/>
<line x1="108.994" y1="183.58" x2="83.632" y2="198.354" stroke="#141414" stroke-width="0.4"/>
<line x1="83.632" y1="198.354" x2="74.674" y2="195.471" stroke="#141414" stroke-width="0.4"/>
<line x1="74.132" y1="72.823" x2="66.928" y2="66.769" stroke="#141414" stroke-width="0.4"/>
<line x1="66.928" y1="66.769" x2="65.957" y2="37.434" stroke="#141414" stroke-width="0.4"/>
<line x1="65.957" y1="37.434" x2="72.745" y2="30.916" stroke="#141414" stroke-width="0.4"/>
<line x1="109.461" y1="51.166" x2="107.335" y2="41.999" stroke="#141414" stroke-width="0.4"/>
<line x1="107.335" y1="41.999" x2="81.633" y2="27.824" stroke="#141414" stroke-width="0.4"/>
<line x1="81.633" y1="27.824" x2="72.745" y2="30.916" stroke="#141414" stroke-width="0.4"/>
<line x1="110.848" y1="93.073" x2="119.851" y2="95.485" stroke="#141414" stroke-width="0.4"/>
<line x1="119.851" y1="95.485" x2="143.753" y2="79.557" stroke="#141414" stroke-width="0.4"/>
<line x1="143.753" y1="79.557" x2="144.993" y2="70.319" stroke="#141414" stroke-width="0.4"/>
<line x1="111.309" y1="132.438" x2="120.254" y2="129.815" stroke="#141414" stroke-width="0.4"/>
<line x1="120.254" y1="129.815" x2="144.523" y2="145.178" stroke="#141414" stroke-width="0.4"/>
<line x1="144.523" y1="145.178" x2="145.979" y2="154.385" stroke="#141414" stroke-width="0.4"/>
<line x1="105.85" y1="9.392" x2="114.502" y2="5.925" stroke="#141414" stroke-width="0.4"/>
<line x1="114.502" y1="5.925" x2="140.13" y2="18.895" stroke="#141414" stroke-width="0.4"/>
<line x1="140.13" y1="18.895" x2="142.461" y2="27.92" stroke="#141414" stroke-width="0.4"/>
<line x1="5.0" y1="158.56" x2="6.164" y2="149.312" stroke="#141414" stroke-width="0.4"/>
<line x1="6.164" y1="149.312" x2="29.934" y2="133.188" stroke="#141414" stroke-width="0.4"/>
<line x1="29.934" y1="133.188" x2="38.957" y2="135.525" stroke="#141414" stroke-width="0.4"/>
<line x1="108.274" y1="216.213" x2="117.005" y2="219.476" stroke="#141414" stroke-width="0.4"/>
<line x1="117.005" y1="219.476" x2="142.322" y2="205.91" stroke="#141414" stroke-width="0.4"/>
<line x1="142.322" y1="205.91" x2="144.441" y2="196.832" stroke="#141414" stroke-width="0.4"/>
<line x1="142.461" y1="27.92" x2="149.828" y2="33.862" stroke="#141414" stroke-width="0.4"/>
<line x1="149.828" y1="33.862" x2="151.601" y2="63.542" stroke="#141414" stroke-width="0.4"/>
<line x1="151.601" y1="63.542" x2="144.993" y2="70.319" stroke="#141414" stroke-width="0.4"/>
<line x1="38.957" y1="135.525" x2="40.692" y2="126.22" stroke="#141414" stroke-width="0.4"/>
<line x1="40.692" y1="126.22" x2="65.977" y2="110.577" stroke="#141414" stroke-width="0.4"/>
<line x1="65.977" y1="110.577" x2="75.078" y2="113.178" stroke="#141414" stroke-width="0.4"/>
<circle cx="71.376" cy="174.473" r="1.17" fill="#ffe082" stroke="#464646" stroke-width="0.2"/>
<text x="71.376" y="174.88" font-size="1.15" text-anchor="middle" fill="#141414">1</text>
<circle cx="94.552" cy="187.943" r="1.17" fill="#ffe082" stroke="#464646" stroke-width="0.2"/>
<text x="94.552" y="188.35" font-size="1.15" text-anchor="middle" fill="#141414">2</text>
<circle cx="69.94" cy="51.985" r="1.17" fill="#ffe082" stroke="#464646" stroke-width="0.2"/>
<text x="69.94" y="52.39" font-size="1.15" text-anchor="middle" fill="#141414">3</text>
<circle cx="92.794" cy="37.976" r="1.17" fill="#ffe082" stroke="#464646" stroke-width="0.2"/>
<text x="92.794" y="38.38" font-size="1.15" text-anchor="middle" fill="#141414">4</text>
<circle cx="129.861" cy="84.609" r="1.17" fill="#ffe082" stroke="#464646" stroke-width="0.2"/>
<text x="129.861" y="85.01" font-size="1.15" text-anchor="middle" fill="#141414">5</text>
<circle cx="130.516" cy="140.454" r="1.17" fill="#ffe082" stroke="#464646" stroke-width="0.2"/>
<text x="130.516" y="140.86" font-size="1.15" text-anchor="middle" fill="#141414">6</text>
<circle cx="125.736" cy="15.533" r="1.17" fill="#ffe082" stroke="#464646" stroke-width="0.2"/>
<text x="125.736" y="15.94" font-size="1.15" text-anchor="middle" fill="#141414">7</text>
<circle cx="20.014" cy="144.146" r="1.17" fill="#ffe082" stroke="#464646" stroke-width="0.2"/>
<text x="20.014" y="144.55" font-size="1.15" text-anchor="middle" fill="#141414">8</text>
<circle cx="128.011" cy="209.608" r="1.17" fill="#ffe082" stroke="#464646" stroke-width="0.2"/>
<text x="128.011" y="210.01" font-size="1.15" text-anchor="middle" fill="#141414">9</text>
<circle cx="147.221" cy="48.911" r="1.17" fill="#ffe082" stroke="#464646" stroke-width="0.2"/>
<text x="147.221" y="49.31" font-size="1.15" text-anchor="middle" fill="#141414">10</text>
<circle cx="55.176" cy="121.375" r="1.17" fill="#ffe082" stroke="#464646" stroke-width="0.2"/>
<text x="55.176" y="121.78" font-size="1.15" text-anchor="middle" fill="#141414">11</text>
<circle cx="78.3" cy="224.651" r="4.6" fill="#eaf1fe" stroke="#2e78e6" stroke-width="0.3"/>
<text x="78.3" y="226.45100000000002" font-size="5.2" text-anchor="middle" fill="#14306e" font-weight="bold">1</text>
<polygon points="33.84,254.15 26.945,255.071 23.969,251.34 26.402,244.823" fill="rgb(216,216,216)"/>
<polygon points="45.77,254.15 52.665,255.071 55.641,251.34 53.208,244.823" fill="rgb(216,216,216)"/>
<polygon points="40.173,284.273 43.856,286.15 43.975,287.038 40.919,289.821" fill="rgb(216,216,216)"/>
<polygon points="53.208,244.823 58.626,241.751 56.767,233.609 50.554,233.192" fill="rgb(216,216,216)"/>
<polygon points="50.554,233.192 51.53,227.041 44.005,223.418 39.805,228.015" fill="rgb(216,216,216)"/>
<polygon points="45.456,286.124 43.753,288.5 45.676,290.616 48.204,289.146" fill="rgb(216,216,216)"/>
<polygon points="74.537,273.617 74.143,281.976 55.71,292.846 48.204,289.146" fill="rgb(216,216,216)"/>
<polygon points="39.805,228.015 35.604,223.418 28.08,227.041 29.056,233.192" fill="rgb(216,216,216)"/>
<polygon points="31.259,289.224 35.117,291.987 34.542,288.438 33.145,286.913" fill="rgb(216,216,216)"/>
<polygon points="29.056,233.192 22.842,233.609 20.984,241.751 26.402,244.823" fill="rgb(216,216,216)"/>
<polygon points="33.145,286.913 34.456,288.327 35.371,285.414 35.619,285.247" fill="rgb(216,216,216)"/>
<line x1="33.84" y1="254.15" x2="45.77" y2="254.15" stroke="#8c8c8c" stroke-width="0.3" stroke-dasharray="1.2,0.8"/>
<line x1="40.173" y1="284.273" x2="33.84" y2="254.15" stroke="#8c8c8c" stroke-width="0.3" stroke-dasharray="1.2,0.8"/>
<line x1="33.84" y1="254.15" x2="35.619" y2="285.247" stroke="#8c8c8c" stroke-width="0.3" stroke-dasharray="1.2,0.8"/>
<line x1="45.77" y1="254.15" x2="40.173" y2="284.273" stroke="#8c8c8c" stroke-width="0.3" stroke-dasharray="1.2,0.8"/>
<line x1="57.185" y1="257.62" x2="40.173" y2="284.273" stroke="#8c8c8c" stroke-width="0.3" stroke-dasharray="1.2,0.8"/>
<line x1="35.619" y1="285.247" x2="40.173" y2="284.273" stroke="#8c8c8c" stroke-width="0.3" stroke-dasharray="1.2,0.8"/>
<line x1="57.185" y1="257.62" x2="45.456" y2="286.124" stroke="#8c8c8c" stroke-width="0.3" stroke-dasharray="1.2,0.8"/>
<line x1="67.049" y1="264.329" x2="45.456" y2="286.124" stroke="#8c8c8c" stroke-width="0.3" stroke-dasharray="1.2,0.8"/>
<line x1="12.543" y1="264.326" x2="33.145" y2="286.913" stroke="#8c8c8c" stroke-width="0.3" stroke-dasharray="1.2,0.8"/>
<line x1="22.439" y1="257.663" x2="35.619" y2="285.247" stroke="#8c8c8c" stroke-width="0.3" stroke-dasharray="1.2,0.8"/>
<line x1="74.537" y1="273.617" x2="45.456" y2="286.124" stroke="#8c8c8c" stroke-width="0.3" stroke-dasharray="1.2,0.8"/>
<line x1="26.402" y1="244.823" x2="33.84" y2="254.15" stroke="#8c8c8c" stroke-width="0.3" stroke-dasharray="1.2,0.8"/>
<line x1="53.208" y1="244.823" x2="45.77" y2="254.15" stroke="#8c8c8c" stroke-width="0.3" stroke-dasharray="1.2,0.8"/>
<line x1="40.919" y1="289.821" x2="40.173" y2="284.273" stroke="#8c8c8c" stroke-width="0.3" stroke-dasharray="1.2,0.8"/>
<line x1="50.554" y1="233.192" x2="53.208" y2="244.823" stroke="#8c8c8c" stroke-width="0.3" stroke-dasharray="1.2,0.8"/>
<line x1="39.805" y1="228.015" x2="50.554" y2="233.192" stroke="#8c8c8c" stroke-width="0.3" stroke-dasharray="1.2,0.8"/>
<line x1="48.204" y1="289.146" x2="45.456" y2="286.124" stroke="#8c8c8c" stroke-width="0.3" stroke-dasharray="1.2,0.8"/>
<line x1="48.204" y1="289.146" x2="74.537" y2="273.617" stroke="#8c8c8c" stroke-width="0.3" stroke-dasharray="1.2,0.8"/>
<line x1="29.056" y1="233.192" x2="39.805" y2="228.015" stroke="#8c8c8c" stroke-width="0.3" stroke-dasharray="1.2,0.8"/>
<line x1="33.145" y1="286.913" x2="31.259" y2="289.224" stroke="#8c8c8c" stroke-width="0.3" stroke-dasharray="1.2,0.8"/>
<line x1="26.402" y1="244.823" x2="29.056" y2="233.192" stroke="#8c8c8c" stroke-width="0.3" stroke-dasharray="1.2,0.8"/>
<line x1="35.619" y1="285.247" x2="33.145" y2="286.913" stroke="#8c8c8c" stroke-width="0.3" stroke-dasharray="1.2,0.8"/>
<line x1="22.439" y1="257.663" x2="33.84" y2="254.15" stroke="#141414" stroke-width="0.4"/>
<line x1="45.77" y1="254.15" x2="57.185" y2="257.62" stroke="#141414" stroke-width="0.4"/>
<line x1="45.456" y1="286.124" x2="40.173" y2="284.273" stroke="#141414" stroke-width="0.4"/>
<line x1="57.185" y1="257.62" x2="67.049" y2="264.329" stroke="#141414" stroke-width="0.4"/>
<line x1="67.049" y1="264.329" x2="74.537" y2="273.617" stroke="#141414" stroke-width="0.4"/>
<line x1="40.919" y1="289.821" x2="36.886" y2="290.47" stroke="#141414" stroke-width="0.4"/>
<line x1="31.259" y1="289.224" x2="5.0" y2="273.57" stroke="#141414" stroke-width="0.4"/>
<line x1="5.0" y1="273.57" x2="12.543" y2="264.326" stroke="#141414" stroke-width="0.4"/>
<line x1="36.886" y1="290.47" x2="34.995" y2="288.164" stroke="#141414" stroke-width="0.4"/>
<line x1="12.543" y1="264.326" x2="22.439" y2="257.663" stroke="#141414" stroke-width="0.4"/>
<line x1="34.995" y1="288.164" x2="35.619" y2="285.247" stroke="#141414" stroke-width="0.4"/>
<line x1="33.84" y1="254.15" x2="26.945" y2="255.071" stroke="#141414" stroke-width="0.4"/>
<line x1="26.945" y1="255.071" x2="23.969" y2="251.34" stroke="#141414" stroke-width="0.4"/>
<line x1="23.969" y1="251.34" x2="26.402" y2="244.823" stroke="#141414" stroke-width="0.4"/>
<line x1="45.77" y1="254.15" x2="52.665" y2="255.071" stroke="#141414" stroke-width="0.4"/>
<line x1="52.665" y1="255.071" x2="55.641" y2="251.34" stroke="#141414" stroke-width="0.4"/>
<line x1="55.641" y1="251.34" x2="53.208" y2="244.823" stroke="#141414" stroke-width="0.4"/>
<line x1="40.173" y1="284.273" x2="43.856" y2="286.15" stroke="#141414" stroke-width="0.4"/>
<line x1="43.856" y1="286.15" x2="43.975" y2="287.038" stroke="#141414" stroke-width="0.4"/>
<line x1="43.975" y1="287.038" x2="40.919" y2="289.821" stroke="#141414" stroke-width="0.4"/>
<line x1="53.208" y1="244.823" x2="58.626" y2="241.751" stroke="#141414" stroke-width="0.4"/>
<line x1="58.626" y1="241.751" x2="56.767" y2="233.609" stroke="#141414" stroke-width="0.4"/>
<line x1="56.767" y1="233.609" x2="50.554" y2="233.192" stroke="#141414" stroke-width="0.4"/>
<line x1="50.554" y1="233.192" x2="51.53" y2="227.041" stroke="#141414" stroke-width="0.4"/>
<line x1="51.53" y1="227.041" x2="44.005" y2="223.418" stroke="#141414" stroke-width="0.4"/>
<line x1="44.005" y1="223.418" x2="39.805" y2="228.015" stroke="#141414" stroke-width="0.4"/>
<line x1="45.456" y1="286.124" x2="43.753" y2="288.5" stroke="#141414" stroke-width="0.4"/>
<line x1="43.753" y1="288.5" x2="45.676" y2="290.616" stroke="#141414" stroke-width="0.4"/>
<line x1="45.676" y1="290.616" x2="48.204" y2="289.146" stroke="#141414" stroke-width="0.4"/>
<line x1="74.537" y1="273.617" x2="74.143" y2="281.976" stroke="#141414" stroke-width="0.4"/>
<line x1="74.143" y1="281.976" x2="55.71" y2="292.846" stroke="#141414" stroke-width="0.4"/>
<line x1="55.71" y1="292.846" x2="48.204" y2="289.146" stroke="#141414" stroke-width="0.4"/>
<line x1="39.805" y1="228.015" x2="35.604" y2="223.418" stroke="#141414" stroke-width="0.4"/>
<line x1="35.604" y1="223.418" x2="28.08" y2="227.041" stroke="#141414" stroke-width="0.4"/>
<line x1="28.08" y1="227.041" x2="29.056" y2="233.192" stroke="#141414" stroke-width="0.4"/>
<line x1="31.259" y1="289.224" x2="35.117" y2="291.987" stroke="#141414" stroke-width="0.4"/>
<line x1="35.117" y1="291.987" x2="34.542" y2="288.438" stroke="#141414" stroke-width="0.4"/>
<line x1="34.542" y1="288.438" x2="33.145" y2="286.913" stroke="#141414" stroke-width="0.4"/>
<line x1="29.056" y1="233.192" x2="22.842" y2="233.609" stroke="#141414" stroke-width="0.4"/>
<line x1="22.842" y1="233.609" x2="20.984" y2="241.751" stroke="#141414" stroke-width="0.4"/>
<line x1="20.984" y1="241.751" x2="26.402" y2="244.823" stroke="#141414" stroke-width="0.4"/>
<line x1="33.145" y1="286.913" x2="34.456" y2="288.327" stroke="#141414" stroke-width="0.4"/>
<line x1="34.456" y1="288.327" x2="35.371" y2="285.414" stroke="#141414" stroke-width="0.4"/>
<line x1="35.371" y1="285.414" x2="35.619" y2="285.247" stroke="#141414" stroke-width="0.4"/>
<circle cx="27.789" cy="251.346" r="1.17" fill="#ffe082" stroke="#464646" stroke-width="0.2"/>
<text x="27.789" y="251.75" font-size="1.15" text-anchor="middle" fill="#141414">34</text>
<circle cx="51.821" cy="251.346" r="1.17" fill="#ffe082" stroke="#464646" stroke-width="0.2"/>
<text x="51.821" y="251.75" font-size="1.15" text-anchor="middle" fill="#141414">35</text>
<circle cx="42.231" cy="286.82" r="1.17" fill="#ffe082" stroke="#464646" stroke-width="0.2"/>
<text x="42.231" y="287.22" font-size="1.15" text-anchor="middle" fill="#141414">36</text>
<circle cx="54.789" cy="238.344" r="1.17" fill="#ffe082" stroke="#464646" stroke-width="0.2"/>
<text x="54.789" y="238.75" font-size="1.15" text-anchor="middle" fill="#141414">37</text>
<circle cx="46.473" cy="227.916" r="1.17" fill="#ffe082" stroke="#464646" stroke-width="0.2"/>
<text x="46.473" y="228.32" font-size="1.15" text-anchor="middle" fill="#141414">38</text>
<circle cx="45.772" cy="288.597" r="1.17" fill="#ffe082" stroke="#464646" stroke-width="0.2"/>
<text x="45.772" y="289.00" font-size="1.15" text-anchor="middle" fill="#141414">39</text>
<circle cx="63.148" cy="284.396" r="1.17" fill="#ffe082" stroke="#464646" stroke-width="0.2"/>
<text x="63.148" y="284.80" font-size="1.15" text-anchor="middle" fill="#141414">40</text>
<circle cx="33.136" cy="227.916" r="1.17" fill="#ffe082" stroke="#464646" stroke-width="0.2"/>
<text x="33.136" y="228.32" font-size="1.15" text-anchor="middle" fill="#141414">41</text>
<circle cx="24.821" cy="238.344" r="1.17" fill="#ffe082" stroke="#464646" stroke-width="0.2"/>
<text x="24.821" y="238.75" font-size="1.15" text-anchor="middle" fill="#141414">43</text>
<circle cx="39.769" cy="215.451" r="4.6" fill="#eaf1fe" stroke="#2e78e6" stroke-width="0.3"/>
<text x="39.769" y="217.251" font-size="5.2" text-anchor="middle" fill="#14306e" font-weight="bold">4</text>
<polygon points="171.753,36.966 170.233,42.034 163.138,42.034 161.618,36.966" fill="rgb(216,216,216)"/>
<polygon points="171.753,26.051 170.233,20.983 163.138,20.983 161.618,26.051" fill="rgb(216,216,216)"/>
<polygon points="179.55,36.966 185.007,35.329 185.007,27.688 179.55,26.051" fill="rgb(216,216,216)"/>
<polygon points="179.55,36.966 184.618,38.486 184.618,45.581 179.55,47.101" fill="rgb(216,216,216)"/>
<polygon points="179.55,26.051 184.618,24.53 184.618,17.435 179.55,15.915" fill="rgb(216,216,216)"/>
<polygon points="161.618,36.966 156.16,35.329 156.16,27.688 161.618,26.051" fill="rgb(216,216,216)"/>
<polygon points="171.753,47.101 172.923,51.0 178.38,51.0 179.55,47.101" fill="rgb(216,216,216)"/>
<line x1="171.753" y1="36.966" x2="171.753" y2="26.051" stroke="#8c8c8c" stroke-width="0.3" stroke-dasharray="1.2,0.8"/>
<line x1="179.55" y1="36.966" x2="171.753" y2="36.966" stroke="#8c8c8c" stroke-width="0.3" stroke-dasharray="1.2,0.8"/>
<line x1="171.753" y1="26.051" x2="179.55" y2="26.051" stroke="#8c8c8c" stroke-width="0.3" stroke-dasharray="1.2,0.8"/>
<line x1="171.753" y1="15.915" x2="179.55" y2="15.915" stroke="#8c8c8c" stroke-width="0.3" stroke-dasharray="1.2,0.8"/>
<line x1="179.55" y1="15.915" x2="179.55" y2="5.0" stroke="#8c8c8c" stroke-width="0.3" stroke-dasharray="1.2,0.8"/>
<line x1="161.618" y1="36.966" x2="171.753" y2="36.966" stroke="#8c8c8c" stroke-width="0.3" stroke-dasharray="1.2,0.8"/>
<line x1="161.618" y1="26.051" x2="171.753" y2="26.051" stroke="#8c8c8c" stroke-width="0.3" stroke-dasharray="1.2,0.8"/>
<line x1="179.55" y1="26.051" x2="179.55" y2="36.966" stroke="#8c8c8c" stroke-width="0.3" stroke-dasharray="1.2,0.8"/>
<line x1="179.55" y1="47.101" x2="179.55" y2="36.966" stroke="#8c8c8c" stroke-width="0.3" stroke-dasharray="1.2,0.8"/>
<line x1="179.55" y1="15.915" x2="179.55" y2="26.051" stroke="#8c8c8c" stroke-width="0.3" stroke-dasharray="1.2,0.8"/>
<line x1="161.618" y1="26.051" x2="161.618" y2="36.966" stroke="#8c8c8c" stroke-width="0.3" stroke-dasharray="1.2,0.8"/>
<line x1="179.55" y1="47.101" x2="171.753" y2="47.101" stroke="#8c8c8c" stroke-width="0.3" stroke-dasharray="1.2,0.8"/>
<line x1="171.753" y1="47.101" x2="171.753" y2="36.966" stroke="#141414" stroke-width="0.4"/>
<line x1="171.753" y1="26.051" x2="171.753" y2="15.915" stroke="#141414" stroke-width="0.4"/>
<line x1="189.685" y1="5.0" x2="189.685" y2="15.915" stroke="#141414" stroke-width="0.4"/>
<line x1="179.55" y1="5.0" x2="189.685" y2="5.0" stroke="#141414" stroke-width="0.4"/>
<line x1="189.685" y1="15.915" x2="179.55" y2="15.915" stroke="#141414" stroke-width="0.4"/>
<line x1="171.753" y1="15.915" x2="171.753" y2="5.0" stroke="#141414" stroke-width="0.4"/>
<line x1="171.753" y1="5.0" x2="179.55" y2="5.0" stroke="#141414" stroke-width="0.4"/>
<line x1="171.753" y1="36.966" x2="170.233" y2="42.034" stroke="#141414" stroke-width="0.4"/>
<line x1="170.233" y1="42.034" x2="163.138" y2="42.034" stroke="#141414" stroke-width="0.4"/>
<line x1="163.138" y1="42.034" x2="161.618" y2="36.966" stroke="#141414" stroke-width="0.4"/>
<line x1="171.753" y1="26.051" x2="170.233" y2="20.983" stroke="#141414" stroke-width="0.4"/>
<line x1="170.233" y1="20.983" x2="163.138" y2="20.983" stroke="#141414" stroke-width="0.4"/>
<line x1="163.138" y1="20.983" x2="161.618" y2="26.051" stroke="#141414" stroke-width="0.4"/>
<line x1="179.55" y1="36.966" x2="185.007" y2="35.329" stroke="#141414" stroke-width="0.4"/>
<line x1="185.007" y1="35.329" x2="185.007" y2="27.688" stroke="#141414" stroke-width="0.4"/>
<line x1="185.007" y1="27.688" x2="179.55" y2="26.051" stroke="#141414" stroke-width="0.4"/>
<line x1="179.55" y1="36.966" x2="184.618" y2="38.486" stroke="#141414" stroke-width="0.4"/>
<line x1="184.618" y1="38.486" x2="184.618" y2="45.581" stroke="#141414" stroke-width="0.4"/>
<line x1="184.618" y1="45.581" x2="179.55" y2="47.101" stroke="#141414" stroke-width="0.4"/>
<line x1="179.55" y1="26.051" x2="184.618" y2="24.53" stroke="#141414" stroke-width="0.4"/>
<line x1="184.618" y1="24.53" x2="184.618" y2="17.435" stroke="#141414" stroke-width="0.4"/>
<line x1="184.618" y1="17.435" x2="179.55" y2="15.915" stroke="#141414" stroke-width="0.4"/>
<line x1="161.618" y1="36.966" x2="156.16" y2="35.329" stroke="#141414" stroke-width="0.4"/>
<line x1="156.16" y1="35.329" x2="156.16" y2="27.688" stroke="#141414" stroke-width="0.4"/>
<line x1="156.16" y1="27.688" x2="161.618" y2="26.051" stroke="#141414" stroke-width="0.4"/>
<line x1="171.753" y1="47.101" x2="172.923" y2="51.0" stroke="#141414" stroke-width="0.4"/>
<line x1="172.923" y1="51.0" x2="178.38" y2="51.0" stroke="#141414" stroke-width="0.4"/>
<line x1="178.38" y1="51.0" x2="179.55" y2="47.101" stroke="#141414" stroke-width="0.4"/>
<circle cx="166.686" cy="39.5" r="1.17" fill="#ffe082" stroke="#464646" stroke-width="0.2"/>
<text x="166.686" y="39.90" font-size="1.15" text-anchor="middle" fill="#141414">45</text>
<circle cx="166.686" cy="23.517" r="1.17" fill="#ffe082" stroke="#464646" stroke-width="0.2"/>
<text x="166.686" y="23.92" font-size="1.15" text-anchor="middle" fill="#141414">46</text>
<circle cx="182.279" cy="31.508" r="1.17" fill="#ffe082" stroke="#464646" stroke-width="0.2"/>
<text x="182.279" y="31.91" font-size="1.15" text-anchor="middle" fill="#141414">47</text>
<circle cx="182.084" cy="42.034" r="1.17" fill="#ffe082" stroke="#464646" stroke-width="0.2"/>
<text x="182.084" y="42.44" font-size="1.15" text-anchor="middle" fill="#141414">48</text>
<circle cx="182.084" cy="20.983" r="1.17" fill="#ffe082" stroke="#464646" stroke-width="0.2"/>
<text x="182.084" y="21.39" font-size="1.15" text-anchor="middle" fill="#141414">49</text>
<circle cx="158.889" cy="31.508" r="1.17" fill="#ffe082" stroke="#464646" stroke-width="0.2"/>
<text x="158.889" y="31.91" font-size="1.15" text-anchor="middle" fill="#141414">50</text>
<circle cx="175.652" cy="49.05" r="1.17" fill="#ffe082" stroke="#464646" stroke-width="0.2"/>
<text x="175.652" y="49.45" font-size="1.15" text-anchor="middle" fill="#141414">51</text>
<circle cx="171.364" cy="57.1" r="4.6" fill="#eaf1fe" stroke="#2e78e6" stroke-width="0.3"/>
<text x="171.364" y="58.9" font-size="5.2" text-anchor="middle" fill="#14306e" font-weight="bold">5</text>
<polygon points="94.689,253.517 93.169,258.585 86.074,258.585 84.554,253.517" fill="rgb(216,216,216)"/>
<polygon points="94.689,242.602 93.169,237.534 86.074,237.534 84.554,242.602" fill="rgb(216,216,216)"/>
<polygon points="102.486,253.517 107.944,251.88 107.944,244.239 102.486,242.602" fill="rgb(216,216,216)"/>
<polygon points="102.486,253.517 107.554,255.037 107.554,262.132 102.486,263.652" fill="rgb(216,216,216)"/>
<polygon points="102.486,242.602 107.554,241.081 107.554,233.986 102.486,232.466" fill="rgb(216,216,216)"/>
<polygon points="84.554,253.517 79.096,251.88 79.096,244.239 84.554,242.602" fill="rgb(216,216,216)"/>
<polygon points="94.689,263.652 95.859,267.551 101.316,267.551 102.486,263.652" fill="rgb(216,216,216)"/>
<line x1="94.689" y1="253.517" x2="94.689" y2="242.602" stroke="#8c8c8c" stroke-width="0.3" stroke-dasharray="1.2,0.8"/>
<line x1="102.486" y1="253.517" x2="94.689" y2="253.517" stroke="#8c8c8c" stroke-width="0.3" stroke-dasharray="1.2,0.8"/>
<line x1="94.689" y1="242.602" x2="102.486" y2="242.602" stroke="#8c8c8c" stroke-width="0.3" stroke-dasharray="1.2,0.8"/>
<line x1="94.689" y1="232.466" x2="102.486" y2="232.466" stroke="#8c8c8c" stroke-width="0.3" stroke-dasharray="1.2,0.8"/>
<line x1="102.486" y1="232.466" x2="102.486" y2="221.551" stroke="#8c8c8c" stroke-width="0.3" stroke-dasharray="1.2,0.8"/>
<line x1="84.554" y1="253.517" x2="94.689" y2="253.517" stroke="#8c8c8c" stroke-width="0.3" stroke-dasharray="1.2,0.8"/>
<line x1="84.554" y1="242.602" x2="94.689" y2="242.602" stroke="#8c8c8c" stroke-width="0.3" stroke-dasharray="1.2,0.8"/>
<line x1="102.486" y1="242.602" x2="102.486" y2="253.517" stroke="#8c8c8c" stroke-width="0.3" stroke-dasharray="1.2,0.8"/>
<line x1="102.486" y1="263.652" x2="102.486" y2="253.517" stroke="#8c8c8c" stroke-width="0.3" stroke-dasharray="1.2,0.8"/>
<line x1="102.486" y1="232.466" x2="102.486" y2="242.602" stroke="#8c8c8c" stroke-width="0.3" stroke-dasharray="1.2,0.8"/>
<line x1="84.554" y1="242.602" x2="84.554" y2="253.517" stroke="#8c8c8c" stroke-width="0.3" stroke-dasharray="1.2,0.8"/>
<line x1="102.486" y1="263.652" x2="94.689" y2="263.652" stroke="#8c8c8c" stroke-width="0.3" stroke-dasharray="1.2,0.8"/>
<line x1="94.689" y1="263.652" x2="94.689" y2="253.517" stroke="#141414" stroke-width="0.4"/>
<line x1="94.689" y1="242.602" x2="94.689" y2="232.466" stroke="#141414" stroke-width="0.4"/>
<line x1="112.621" y1="221.551" x2="112.621" y2="232.466" stroke="#141414" stroke-width="0.4"/>
<line x1="102.486" y1="221.551" x2="112.621" y2="221.551" stroke="#141414" stroke-width="0.4"/>
<line x1="112.621" y1="232.466" x2="102.486" y2="232.466" stroke="#141414" stroke-width="0.4"/>
<line x1="94.689" y1="232.466" x2="94.689" y2="221.551" stroke="#141414" stroke-width="0.4"/>
<line x1="94.689" y1="221.551" x2="102.486" y2="221.551" stroke="#141414" stroke-width="0.4"/>
<line x1="94.689" y1="253.517" x2="93.169" y2="258.585" stroke="#141414" stroke-width="0.4"/>
<line x1="93.169" y1="258.585" x2="86.074" y2="258.585" stroke="#141414" stroke-width="0.4"/>
<line x1="86.074" y1="258.585" x2="84.554" y2="253.517" stroke="#141414" stroke-width="0.4"/>
<line x1="94.689" y1="242.602" x2="93.169" y2="237.534" stroke="#141414" stroke-width="0.4"/>
<line x1="93.169" y1="237.534" x2="86.074" y2="237.534" stroke="#141414" stroke-width="0.4"/>
<line x1="86.074" y1="237.534" x2="84.554" y2="242.602" stroke="#141414" stroke-width="0.4"/>
<line x1="102.486" y1="253.517" x2="107.944" y2="251.88" stroke="#141414" stroke-width="0.4"/>
<line x1="107.944" y1="251.88" x2="107.944" y2="244.239" stroke="#141414" stroke-width="0.4"/>
<line x1="107.944" y1="244.239" x2="102.486" y2="242.602" stroke="#141414" stroke-width="0.4"/>
<line x1="102.486" y1="253.517" x2="107.554" y2="255.037" stroke="#141414" stroke-width="0.4"/>
<line x1="107.554" y1="255.037" x2="107.554" y2="262.132" stroke="#141414" stroke-width="0.4"/>
<line x1="107.554" y1="262.132" x2="102.486" y2="263.652" stroke="#141414" stroke-width="0.4"/>
<line x1="102.486" y1="242.602" x2="107.554" y2="241.081" stroke="#141414" stroke-width="0.4"/>
<line x1="107.554" y1="241.081" x2="107.554" y2="233.986" stroke="#141414" stroke-width="0.4"/>
<line x1="107.554" y1="233.986" x2="102.486" y2="232.466" stroke="#141414" stroke-width="0.4"/>
<line x1="84.554" y1="253.517" x2="79.096" y2="251.88" stroke="#141414" stroke-width="0.4"/>
<line x1="79.096" y1="251.88" x2="79.096" y2="244.239" stroke="#141414" stroke-width="0.4"/>
<line x1="79.096" y1="244.239" x2="84.554" y2="242.602" stroke="#141414" stroke-width="0.4"/>
<line x1="94.689" y1="263.652" x2="95.859" y2="267.551" stroke="#141414" stroke-width="0.4"/>
<line x1="95.859" y1="267.551" x2="101.316" y2="267.551" stroke="#141414" stroke-width="0.4"/>
<line x1="101.316" y1="267.551" x2="102.486" y2="263.652" stroke="#141414" stroke-width="0.4"/>
<circle cx="89.622" cy="256.051" r="1.17" fill="#ffe082" stroke="#464646" stroke-width="0.2"/>
<text x="89.622" y="256.45" font-size="1.15" text-anchor="middle" fill="#141414">52</text>
<circle cx="89.622" cy="240.068" r="1.17" fill="#ffe082" stroke="#464646" stroke-width="0.2"/>
<text x="89.622" y="240.47" font-size="1.15" text-anchor="middle" fill="#141414">53</text>
<circle cx="105.215" cy="248.059" r="1.17" fill="#ffe082" stroke="#464646" stroke-width="0.2"/>
<text x="105.215" y="248.46" font-size="1.15" text-anchor="middle" fill="#141414">54</text>
<circle cx="105.02" cy="258.585" r="1.17" fill="#ffe082" stroke="#464646" stroke-width="0.2"/>
<text x="105.02" y="258.99" font-size="1.15" text-anchor="middle" fill="#141414">55</text>
<circle cx="105.02" cy="237.534" r="1.17" fill="#ffe082" stroke="#464646" stroke-width="0.2"/>
<text x="105.02" y="237.94" font-size="1.15" text-anchor="middle" fill="#141414">56</text>
<circle cx="81.825" cy="248.059" r="1.17" fill="#ffe082" stroke="#464646" stroke-width="0.2"/>
<text x="81.825" y="248.46" font-size="1.15" text-anchor="middle" fill="#141414">57</text>
<circle cx="98.588" cy="265.602" r="1.17" fill="#ffe082" stroke="#464646" stroke-width="0.2"/>
<text x="98.588" y="266.00" font-size="1.15" text-anchor="middle" fill="#141414">58</text>
<circle cx="94.3" cy="215.451" r="4.6" fill="#eaf1fe" stroke="#2e78e6" stroke-width="0.3"/>
<text x="94.3" y="217.251" font-size="5.2" text-anchor="middle" fill="#14306e" font-weight="bold">6</text>
<polygon points="145.555,237.66 145.26,237.308 139.683,227.533 137.854,228.466" fill="rgb(216,216,216)"/>
<polygon points="139.236,251.195 138.777,251.195 127.702,253.196 127.243,251.195" fill="rgb(216,216,216)"/>
<polygon points="168.761,233.405 168.83,232.951 172.487,222.308 170.579,221.551" fill="rgb(216,216,216)"/>
<polygon points="179.47,243.818 179.899,243.656 190.964,241.598 190.683,239.564" fill="rgb(216,216,216)"/>
<polygon points="162.384,250.677 162.121,257.921 171.325,261.05 175.532,255.146" fill="rgb(216,216,216)"/>
<polygon points="157.644,251.546 160.459,258.226 152.964,264.416 146.937,260.389" fill="rgb(216,216,216)"/>
<polygon points="185.847,226.546 193.081,226.081 196.466,235.193 190.683,239.564" fill="rgb(216,216,216)"/>
<polygon points="124.769,233.117 124.406,225.877 133.565,222.621 137.854,228.466" fill="rgb(216,216,216)"/>
<polygon points="127.147,237.309 120.218,239.44 120.285,249.16 127.243,251.195" fill="rgb(216,216,216)"/>
<polygon points="191.269,241.668 193.461,249.007 182.446,258.441 175.532,255.146" fill="rgb(216,216,216)"/>
<polygon points="139.649,227.222 145.861,222.74 158.389,230.047 157.548,237.66" fill="rgb(216,216,216)"/>
<line x1="139.236" y1="251.195" x2="145.555" y2="237.66" stroke="#8c8c8c" stroke-width="0.3" stroke-dasharray="1.2,0.8"/>
<line x1="157.644" y1="251.546" x2="145.555" y2="237.66" stroke="#8c8c8c" stroke-width="0.3" stroke-dasharray="1.2,0.8"/>
<line x1="127.147" y1="237.309" x2="145.555" y2="237.66" stroke="#8c8c8c" stroke-width="0.3" stroke-dasharray="1.2,0.8"/>
<line x1="145.555" y1="237.66" x2="157.548" y2="237.66" stroke="#8c8c8c" stroke-width="0.3" stroke-dasharray="1.2,0.8"/>
<line x1="157.644" y1="251.546" x2="139.236" y2="251.195" stroke="#8c8c8c" stroke-width="0.3" stroke-dasharray="1.2,0.8"/>
<line x1="139.236" y1="251.195" x2="127.147" y2="237.309" stroke="#8c8c8c" stroke-width="0.3" stroke-dasharray="1.2,0.8"/>
<line x1="146.937" y1="260.389" x2="139.236" y2="251.195" stroke="#8c8c8c" stroke-width="0.3" stroke-dasharray="1.2,0.8"/>
<line x1="168.761" y1="233.405" x2="179.47" y2="243.818" stroke="#8c8c8c" stroke-width="0.3" stroke-dasharray="1.2,0.8"/>
<line x1="162.384" y1="250.677" x2="168.761" y2="233.405" stroke="#8c8c8c" stroke-width="0.3" stroke-dasharray="1.2,0.8"/>
<line x1="168.761" y1="233.405" x2="185.847" y2="226.546" stroke="#8c8c8c" stroke-width="0.3" stroke-dasharray="1.2,0.8"/>
<line x1="168.761" y1="233.405" x2="157.548" y2="237.66" stroke="#8c8c8c" stroke-width="0.3" stroke-dasharray="1.2,0.8"/>
<line x1="162.384" y1="250.677" x2="179.47" y2="243.818" stroke="#8c8c8c" stroke-width="0.3" stroke-dasharray="1.2,0.8"/>
<line x1="185.847" y1="226.546" x2="179.47" y2="243.818" stroke="#8c8c8c" stroke-width="0.3" stroke-dasharray="1.2,0.8"/>
<line x1="179.47" y1="243.818" x2="175.532" y2="255.146" stroke="#8c8c8c" stroke-width="0.3" stroke-dasharray="1.2,0.8"/>
<line x1="162.384" y1="250.677" x2="157.644" y2="251.546" stroke="#8c8c8c" stroke-width="0.3" stroke-dasharray="1.2,0.8"/>
<line x1="157.548" y1="237.66" x2="162.384" y2="250.677" stroke="#8c8c8c" stroke-width="0.3" stroke-dasharray="1.2,0.8"/>
<line x1="157.548" y1="237.66" x2="157.644" y2="251.546" stroke="#8c8c8c" stroke-width="0.3" stroke-dasharray="1.2,0.8"/>
<line x1="127.147" y1="237.309" x2="124.77" y2="233.117" stroke="#8c8c8c" stroke-width="0.3" stroke-dasharray="1.2,0.8"/>
<line x1="127.147" y1="237.309" x2="137.854" y2="228.466" stroke="#8c8c8c" stroke-width="0.3" stroke-dasharray="1.2,0.8"/>
<line x1="137.854" y1="228.466" x2="145.555" y2="237.66" stroke="#8c8c8c" stroke-width="0.3" stroke-dasharray="1.2,0.8"/>
<line x1="127.243" y1="251.195" x2="139.236" y2="251.195" stroke="#8c8c8c" stroke-width="0.3" stroke-dasharray="1.2,0.8"/>
<line x1="170.579" y1="221.551" x2="168.761" y2="233.405" stroke="#8c8c8c" stroke-width="0.3" stroke-dasharray="1.2,0.8"/>
<line x1="190.683" y1="239.564" x2="179.47" y2="243.818" stroke="#8c8c8c" stroke-width="0.3" stroke-dasharray="1.2,0.8"/>
<line x1="175.532" y1="255.146" x2="162.384" y2="250.677" stroke="#8c8c8c" stroke-width="0.3" stroke-dasharray="1.2,0.8"/>
<line x1="146.937" y1="260.389" x2="157.644" y2="251.546" stroke="#8c8c8c" stroke-width="0.3" stroke-dasharray="1.2,0.8"/>
<line x1="190.683" y1="239.564" x2="185.847" y2="226.546" stroke="#8c8c8c" stroke-width="0.3" stroke-dasharray="1.2,0.8"/>
<line x1="137.854" y1="228.466" x2="124.769" y2="233.117" stroke="#8c8c8c" stroke-width="0.3" stroke-dasharray="1.2,0.8"/>
<line x1="127.243" y1="251.195" x2="127.147" y2="237.309" stroke="#8c8c8c" stroke-width="0.3" stroke-dasharray="1.2,0.8"/>
<line x1="175.532" y1="255.146" x2="191.269" y2="241.668" stroke="#8c8c8c" stroke-width="0.3" stroke-dasharray="1.2,0.8"/>
<line x1="157.548" y1="237.66" x2="139.649" y2="227.222" stroke="#8c8c8c" stroke-width="0.3" stroke-dasharray="1.2,0.8"/>
<line x1="145.555" y1="237.66" x2="139.649" y2="227.222" stroke="#141414" stroke-width="0.4"/>
<line x1="127.442" y1="253.37" x2="139.236" y2="251.195" stroke="#141414" stroke-width="0.4"/>
<line x1="168.761" y1="233.405" x2="172.699" y2="222.077" stroke="#141414" stroke-width="0.4"/>
<line x1="179.47" y1="243.818" x2="191.269" y2="241.668" stroke="#141414" stroke-width="0.4"/>
<line x1="162.384" y1="250.677" x2="162.48" y2="264.563" stroke="#141414" stroke-width="0.4"/>
<line x1="162.48" y1="264.563" x2="157.644" y2="251.546" stroke="#141414" stroke-width="0.4"/>
<line x1="114.062" y1="241.96" x2="124.77" y2="233.117" stroke="#141414" stroke-width="0.4"/>
<line x1="172.699" y1="222.077" x2="185.847" y2="226.546" stroke="#141414" stroke-width="0.4"/>
<line x1="127.147" y1="237.309" x2="114.062" y2="241.96" stroke="#141414" stroke-width="0.4"/>
<line x1="146.937" y1="260.389" x2="127.442" y2="253.37" stroke="#141414" stroke-width="0.4"/>
<line x1="157.548" y1="237.66" x2="170.579" y2="221.551" stroke="#141414" stroke-width="0.4"/>
<line x1="145.555" y1="237.66" x2="145.26" y2="237.308" stroke="#141414" stroke-width="0.4"/>
<line x1="145.26" y1="237.308" x2="139.683" y2="227.533" stroke="#141414" stroke-width="0.4"/>
<line x1="139.683" y1="227.533" x2="137.854" y2="228.466" stroke="#141414" stroke-width="0.4"/>
<line x1="139.236" y1="251.195" x2="138.777" y2="251.195" stroke="#141414" stroke-width="0.4"/>
<line x1="138.777" y1="251.195" x2="127.702" y2="253.196" stroke="#141414" stroke-width="0.4"/>
<line x1="127.702" y1="253.196" x2="127.243" y2="251.195" stroke="#141414" stroke-width="0.4"/>
<line x1="168.761" y1="233.405" x2="168.83" y2="232.951" stroke="#141414" stroke-width="0.4"/>
<line x1="168.83" y1="232.951" x2="172.487" y2="222.308" stroke="#141414" stroke-width="0.4"/>
<line x1="172.487" y1="222.308" x2="170.579" y2="221.551" stroke="#141414" stroke-width="0.4"/>
<line x1="179.47" y1="243.818" x2="179.899" y2="243.656" stroke="#141414" stroke-width="0.4"/>
<line x1="179.899" y1="243.656" x2="190.964" y2="241.598" stroke="#141414" stroke-width="0.4"/>
<line x1="190.964" y1="241.598" x2="190.683" y2="239.564" stroke="#141414" stroke-width="0.4"/>
<line x1="162.384" y1="250.677" x2="162.121" y2="257.921" stroke="#141414" stroke-width="0.4"/>
<line x1="162.121" y1="257.921" x2="171.325" y2="261.05" stroke="#141414" stroke-width="0.4"/>
<line x1="171.325" y1="261.05" x2="175.532" y2="255.146" stroke="#141414" stroke-width="0.4"/>
<line x1="157.644" y1="251.546" x2="160.459" y2="258.226" stroke="#141414" stroke-width="0.4"/>
<line x1="160.459" y1="258.226" x2="152.964" y2="264.416" stroke="#141414" stroke-width="0.4"/>
<line x1="152.964" y1="264.416" x2="146.937" y2="260.389" stroke="#141414" stroke-width="0.4"/>
<line x1="185.847" y1="226.546" x2="193.081" y2="226.081" stroke="#141414" stroke-width="0.4"/>
<line x1="193.081" y1="226.081" x2="196.466" y2="235.193" stroke="#141414" stroke-width="0.4"/>
<line x1="196.466" y1="235.193" x2="190.683" y2="239.564" stroke="#141414" stroke-width="0.4"/>
<line x1="124.769" y1="233.117" x2="124.406" y2="225.877" stroke="#141414" stroke-width="0.4"/>
<line x1="124.406" y1="225.877" x2="133.565" y2="222.621" stroke="#141414" stroke-width="0.4"/>
<line x1="133.565" y1="222.621" x2="137.854" y2="228.466" stroke="#141414" stroke-width="0.4"/>
<line x1="127.147" y1="237.309" x2="120.218" y2="239.44" stroke="#141414" stroke-width="0.4"/>
<line x1="120.218" y1="239.44" x2="120.285" y2="249.16" stroke="#141414" stroke-width="0.4"/>
<line x1="120.285" y1="249.16" x2="127.243" y2="251.195" stroke="#141414" stroke-width="0.4"/>
<line x1="191.269" y1="241.668" x2="193.461" y2="249.007" stroke="#141414" stroke-width="0.4"/>
<line x1="193.461" y1="249.007" x2="182.446" y2="258.441" stroke="#141414" stroke-width="0.4"/>
<line x1="182.446" y1="258.441" x2="175.532" y2="255.146" stroke="#141414" stroke-width="0.4"/>
<line x1="139.649" y1="227.222" x2="145.861" y2="222.74" stroke="#141414" stroke-width="0.4"/>
<line x1="145.861" y1="222.74" x2="158.389" y2="230.047" stroke="#141414" stroke-width="0.4"/>
<line x1="158.389" y1="230.047" x2="157.548" y2="237.66" stroke="#141414" stroke-width="0.4"/>
<circle cx="167.84" cy="256.199" r="1.17" fill="#ffe082" stroke="#464646" stroke-width="0.2"/>
<text x="167.84" y="256.60" font-size="1.15" text-anchor="middle" fill="#141414">63</text>
<circle cx="154.501" cy="258.644" r="1.17" fill="#ffe082" stroke="#464646" stroke-width="0.2"/>
<text x="154.501" y="259.05" font-size="1.15" text-anchor="middle" fill="#141414">64</text>
<circle cx="191.519" cy="231.846" r="1.17" fill="#ffe082" stroke="#464646" stroke-width="0.2"/>
<text x="191.519" y="232.25" font-size="1.15" text-anchor="middle" fill="#141414">65</text>
<circle cx="130.149" cy="227.521" r="1.17" fill="#ffe082" stroke="#464646" stroke-width="0.2"/>
<text x="130.149" y="227.92" font-size="1.15" text-anchor="middle" fill="#141414">66</text>
<circle cx="123.723" cy="244.276" r="1.17" fill="#ffe082" stroke="#464646" stroke-width="0.2"/>
<text x="123.723" y="244.68" font-size="1.15" text-anchor="middle" fill="#141414">67</text>
<circle cx="185.677" cy="251.066" r="1.17" fill="#ffe082" stroke="#464646" stroke-width="0.2"/>
<text x="185.677" y="251.47" font-size="1.15" text-anchor="middle" fill="#141414">68</text>
<circle cx="150.362" cy="229.417" r="1.17" fill="#ffe082" stroke="#464646" stroke-width="0.2"/>
<text x="150.362" y="229.82" font-size="1.15" text-anchor="middle" fill="#141414">69</text>
<circle cx="155.264" cy="215.451" r="4.6" fill="#eaf1fe" stroke="#2e78e6" stroke-width="0.3"/>
<text x="155.264" y="217.251" font-size="5.2" text-anchor="middle" fill="#14306e" font-weight="bold">7</text>
</svg>
