<svg xmlns="http://www.w3.org/2000/svg" xmlns:xlink="http://www.w3.org/1999/xlink" width="210.00mm" height="297.00mm" viewBox="0 0 210.00 297.00">
<rect x="0" y="0" width="210.00" height="297.00" fill="#ffffff" stroke="#cccccc" stroke-width="0.2"/>
<polygon points="16.856,119.879 10.88,113.417 7.1,80.494 11.456,72.845" fill="rgb(216,216,216)"/>
<polygon points="11.456,72.845 14.901,64.302 44.433,44.626 53.645,44.737" fill="rgb(216,216,216)"/>
<polygon points="56.695,94.577 65.385,92.675 96.29,106.067 100.845,113.708" fill="rgb(216,216,216)"/>
<polygon points="100.845,113.708 108.462,113.416 128.141,130.418 128.959,137.996" fill="rgb(216,216,216)"/>
<polygon points="112.59,158.699 113.085,161.891 106.699,160.709 106.166,160.891" fill="rgb(216,216,216)"/>
<polygon points="112.811,162.277 118.477,161.82 123.58,171.243 120.101,175.739" fill="rgb(216,216,216)"/>
<polygon points="112.59,158.699 119.125,158.819 130.583,144.327 128.959,137.996" fill="rgb(216,216,216)"/>
<polygon points="107.438,58.43 113.994,58.779 126.183,44.595 124.851,38.166" fill="rgb(216,216,216)"/>
<polygon points="103.716,20.511 103.149,14.976 111.408,10.82 115.515,14.575" fill="rgb(216,216,216)"/>
<polygon points="115.515,14.575 120.5,8.987 145.575,7.107 151.337,11.89" fill="rgb(216,216,216)"/>
<polygon points="124.851,38.166 132.486,37.917 151.026,19.523 151.337,11.89" fill="rgb(216,216,216)"/>
<line x1="56.695" y1="94.577" x2="16.856" y2="119.879" stroke="#8c8c8c" stroke-width="0.3" stroke-dasharray="1.2,0.8"/>
<line x1="11.456" y1="72.845" x2="56.695" y2="94.577" stroke="#8c8c8c" stroke-width="0.3" stroke-dasharray="1.2,0.8"/>
<line x1="56.695" y1="94.577" x2="44.353" y2="132.534" stroke="#8c8c8c" stroke-width="0.3" stroke-dasharray="1.2,0.8"/>
<line x1="53.645" y1="44.737" x2="56.695" y2="94.577" stroke="#8c8c8c" stroke-width="0.3" stroke-dasharray="1.2,0.8"/>
<line x1="59.687" y1="148.2" x2="56.695" y2="94.577" stroke="#8c8c8c" stroke-width="0.3" stroke-dasharray="1.2,0.8"/>
<line x1="110.908" y1="210.601" x2="112.811" y2="162.277" stroke="#8c8c8c" stroke-width="0.3" stroke-dasharray="1.2,0.8"/>
<line x1="106.166" y1="160.891" x2="110.908" y2="210.601" stroke="#8c8c8c" stroke-width="0.3" stroke-dasharray="1.2,0.8"/>
<line x1="62.768" y1="184.861" x2="106.166" y2="160.891" stroke="#8c8c8c" stroke-width="0.3" stroke-dasharray="1.2,0.8"/>
<line x1="53.645" y1="44.737" x2="96.499" y2="67.542" stroke="#8c8c8c" stroke-width="0.3" stroke-dasharray="1.2,0.8"/>
<line x1="100.845" y1="113.708" x2="59.687" y2="148.2" stroke="#8c8c8c" stroke-width="0.3" stroke-dasharray="1.2,0.8"/>
<line x1="106.166" y1="160.891" x2="59.687" y2="148.2" stroke="#8c8c8c" stroke-width="0.3" stroke-dasharray="1.2,0.8"/>
<line x1="92.102" y1="18.306" x2="96.499" y2="67.542" stroke="#8c8c8c" stroke-width="0.3" stroke-dasharray="1.2,0.8"/>
<line x1="106.166" y1="160.891" x2="100.845" y2="113.708" stroke="#8c8c8c" stroke-width="0.3" stroke-dasharray="1.2,0.8"/>
<line x1="107.438" y1="32.037" x2="124.851" y2="38.166" stroke="#8c8c8c" stroke-width="0.3" stroke-dasharray="1.2,0.8"/>
<line x1="115.515" y1="14.575" x2="124.851" y2="38.166" stroke="#8c8c8c" stroke-width="0.3" stroke-dasharray="1.2,0.8"/>
<line x1="128.959" y1="137.996" x2="106.166" y2="160.891" stroke="#8c8c8c" stroke-width="0.3" stroke-dasharray="1.2,0.8"/>
<line x1="103.716" y1="20.511" x2="107.438" y2="32.037" stroke="#8c8c8c" stroke-width="0.3" stroke-dasharray="1.2,0.8"/>
<line x1="11.456" y1="72.845" x2="16.856" y2="119.879" stroke="#8c8c8c" stroke-width="0.3" stroke-dasharray="1.2,0.8"/>
<line x1="53.645" y1="44.737" x2="11.456" y2="72.845" stroke="#8c8c8c" stroke-width="0.3" stroke-dasharray="1.2,0.8"/>
<line x1="100.845" y1="113.708" x2="56.695" y2="94.577" stroke="#8c8c8c" stroke-width="0.3" stroke-dasharray="1.2,0.8"/>
<line x1="128.959" y1="137.996" x2="100.845" y2="113.708" stroke="#8c8c8c" stroke-width="0.3" stroke-dasharray="1.2,0.8"/>
<line x1="106.166" y1="160.891" x2="112.59" y2="158.699" stroke="#8c8c8c" stroke-width="0.3" stroke-dasharray="1.2,0.8"/>
<line x1="120.101" y1="175.739" x2="112.811" y2="162.277" stroke="#8c8c8c" stroke-width="0.3" stroke-dasharray="1.2,0.8"/>
<line x1="128.959" y1="137.996" x2="112.59" y2="158.699" stroke="#8c8c8c" stroke-width="0.3" stroke-dasharray="1.2,0.8"/>
<line x1="124.851" y1="38.166" x2="107.438" y2="58.43" stroke="#8c8c8c" stroke-width="0.3" stroke-dasharray="1.2,0.8"/>
<line x1="115.515" y1="14.575" x2="103.716" y2="20.511" stroke="#8c8c8c" stroke-width="0.3" stroke-dasharray="1.2,0.8"/>
<line x1="151.337" y1="11.89" x2="115.515" y2="14.575" stroke="#8c8c8c" stroke-width="0.3" stroke-dasharray="1.2,0.8"/>
<line x1="151.337" y1="11.89" x2="124.851" y2="38.166" stroke="#8c8c8c" stroke-width="0.3" stroke-dasharray="1.2,0.8"/>
<line x1="44.353" y1="132.534" x2="16.856" y2="119.879" stroke="#141414" stroke-width="0.4"/>
<line x1="59.687" y1="148.2" x2="44.353" y2="132.534" stroke="#141414" stroke-width="0.4"/>
<line x1="96.499" y1="67.542" x2="56.695" y2="94.577" stroke="#141414" stroke-width="0.4"/>
<line x1="110.908" y1="210.601" x2="62.768" y2="184.861" stroke="#141414" stroke-width="0.4"/>
<line x1="120.101" y1="175.739" x2="110.908" y2="210.601" stroke="#141414" stroke-width="0.4"/>
<line x1="62.768" y1="184.861" x2="59.687" y2="148.2" stroke="#141414" stroke-width="0.4"/>
<line x1="53.645" y1="44.737" x2="92.102" y2="18.306" stroke="#141414" stroke-width="0.4"/>
<line x1="92.102" y1="18.306" x2="103.716" y2="20.511" stroke="#141414" stroke-width="0.4"/>
<line x1="107.438" y1="32.037" x2="96.499" y2="67.542" stroke="#141414" stroke-width="0.4"/>
<line x1="106.166" y1="160.891" x2="112.811" y2="162.277" stroke="#141414" stroke-width="0.4"/>
<line x1="107.438" y1="58.429" x2="107.438" y2="32.037" stroke="#141414" stroke-width="0.4"/>
<line x1="16.856" y1="119.879" x2="10.88" y2="113.417" stroke="#141414" stroke-width="0.4"/>
<line x1="10.88" y1="113.417" x2="7.1" y2="80.494" stroke="#141414" stroke-width="0.4"/>
<line x1="7.1" y1="80.494" x2="11.456" y2="72.845" stroke="#141414" stroke-width="0.4"/>
<line x1="11.456" y1="72.845" x2="14.901" y2="64.302" stroke="#141414" stroke-width="0.4"/>
<line x1="14.901" y1="64.302" x2="44.433" y2="44.626" stroke="#141414" stroke-width="0.4"/>
<line x1="44.433" y1="44.626" x2="53.645" y2="44.737" stroke="#141414" stroke-width="0.4"/>
<line x1="56.695" y1="94.577" x2="65.385" y2="92.675" stroke="#141414" stroke-width="0.4"/>
<line x1="65.385" y1="92.675" x2="96.29" y2="106.067" stroke="#141414" stroke-width="0.4"/>
<line x1="96.29" y1="106.067" x2="100.845" y2="113.708" stroke="#141414" stroke-width="0.4"/>
<line x1="100.845" y1="113.708" x2="108.462" y2="113.416" stroke="#141414" stroke-width="0.4"/>
<line x1="108.462" y1="113.416" x2="128.141" y2="130.418" stroke="#141414" stroke-width="0.4"/>
<line x1="128.141" y1="130.418" x2="128.959" y2="137.996" stroke="#141414" stroke-width="0.4"/>
<line x1="112.59" y1="158.699" x2="113.085" y2="161.891" stroke="#141414" stroke-width="0.4"/>
<line x1="113.085" y1="161.891" x2="106.699" y2="160.709" stroke="#141414" stroke-width="0.4"/>
<line x1="106.699" y1="160.709" x2="106.166" y2="160.891" stroke="#141414" stroke-width="0.4"/>
<line x1="112.811" y1="162.277" x2="118.477" y2="161.82" stroke="#141414" stroke-width="0.4"/>
<line x1="118.477" y1="161.82" x2="123.58" y2="171.243" stroke="#141414" stroke-width="0.4"/>
<line x1="123.58" y1="171.243" x2="120.101" y2="175.739" stroke="#141414" stroke-width="0.4"/>
<line x1="112.59" y1="158.699" x2="119.125" y2="158.819" stroke="#141414" stroke-width="0.4"/>
<line x1="119.125" y1="158.819" x2="130.583" y2="144.327" stroke="#141414" stroke-width="0.4"/>
<line x1="130.583" y1="144.327" x2="128.959" y2="137.996" stroke="#141414" stroke-width="0.4"/>
<line x1="107.438" y1="58.43" x2="113.994" y2="58.779" stroke="#141414" stroke-width="0.4"/>
<line x1="113.994" y1="58.779" x2="126.183" y2="44.595" stroke="#141414" stroke-width="0.4"/>
<line x1="126.183" y1="44.595" x2="124.851" y2="38.166" stroke="#141414" stroke-width="0.4"/>
<line x1="103.716" y1="20.511" x2="103.149" y2="14.976" stroke="#141414" stroke-width="0.4"/>
<line x1="103.149" y1="14.976" x2="111.408" y2="10.82" stroke="#141414" stroke-width="0.4"/>
<line x1="111.408" y1="10.82" x2="115.515" y2="14.575" stroke="#141414" stroke-width="0.4"/>
<line x1="115.515" y1="14.575" x2="120.5" y2="8.987" stroke="#141414" stroke-width="0.4"/>
<line x1="120.5" y1="8.987" x2="145.575" y2="7.107" stroke="#141414" stroke-width="0.4"/>
<line x1="145.575" y1="7.107" x2="151.337" y2="11.89" stroke="#141414" stroke-width="0.4"/>
<line x1="124.851" y1="38.166" x2="132.486" y2="37.917" stroke="#141414" stroke-width="0.4"/>
<line x1="132.486" y1="37.917" x2="151.026" y2="19.523" stroke="#141414" stroke-width="0.4"/>
<line x1="151.026" y1="19.523" x2="151.337" y2="11.89" stroke="#141414" stroke-width="0.4"/>
<circle cx="11.573" cy="96.659" r="2.29" fill="#ffe082" stroke="#464646" stroke-width="0.2"/>
<text x="11.573" y="97.75" font-size="3.11" text-anchor="middle" fill="#141414">18</text>
<circle cx="31.109" cy="56.627" r="2.29" fill="#ffe082" stroke="#464646" stroke-width="0.2"/>
<text x="31.109" y="57.71" font-size="3.11" text-anchor="middle" fill="#141414">21</text>
<circle cx="79.804" cy="101.757" r="2.29" fill="#ffe082" stroke="#464646" stroke-width="0.2"/>
<text x="79.804" y="102.84" font-size="3.11" text-anchor="middle" fill="#141414">26</text>
<circle cx="116.602" cy="123.885" r="2.29" fill="#ffe082" stroke="#464646" stroke-width="0.2"/>
<text x="116.602" y="124.97" font-size="3.11" text-anchor="middle" fill="#141414">45</text>
<circle cx="118.742" cy="167.77" r="2.29" fill="#ffe082" stroke="#464646" stroke-width="0.2"/>
<text x="118.742" y="168.86" font-size="3.11" text-anchor="middle" fill="#141414">47</text>
<circle cx="122.814" cy="149.96" r="2.29" fill="#ffe082" stroke="#464646" stroke-width="0.2"/>
<text x="122.814" y="151.05" font-size="3.11" text-anchor="middle" fill="#141414">48</text>
<circle cx="118.116" cy="49.993" r="2.29" fill="#ffe082" stroke="#464646" stroke-width="0.2"/>
<text x="118.116" y="51.08" font-size="3.11" text-anchor="middle" fill="#141414">49</text>
<circle cx="108.447" cy="15.221" r="2.29" fill="#ffe082" stroke="#464646" stroke-width="0.2"/>
<text x="108.447" y="16.31" font-size="3.11" text-anchor="middle" fill="#141414">51</text>
<circle cx="133.232" cy="10.64" r="2.29" fill="#ffe082" stroke="#464646" stroke-width="0.2"/>
<text x="133.232" y="11.73" font-size="3.11" text-anchor="middle" fill="#141414">53</text>
<circle cx="139.925" cy="26.874" r="2.29" fill="#ffe082" stroke="#464646" stroke-width="0.2"/>
<text x="139.925" y="27.96" font-size="3.11" text-anchor="middle" fill="#141414">54</text>
<circle cx="77.119" cy="214.594" r="4.6" fill="#eaf1fe" stroke="#2e78e6" stroke-width="0.3"/>
<text x="77.119" y="216.394" font-size="5.2" text-anchor="middle" fill="#14306e" font-weight="bold">1</text>
</svg>
