<svg xmlns="http://www.w3.org/2000/svg" xmlns:xlink="http://www.w3.org/1999/xlink" width="210.00mm" height="297.00mm" viewBox="0 0 210.00 297.00">
<rect x="0" y="0" width="210.00" height="297.00" fill="#ffffff" stroke="#cccccc" stroke-width="0.2"/>
<polygon points="129.541,125.67 135.338,129.418 138.378,150.387 133.883,155.626" fill="rgb(216,216,216)"/>
<polygon points="127.064,29.71 123.181,37.979 92.871,55.582 83.765,54.857" fill="rgb(216,216,216)"/>
<polygon points="86.236,105.227 77.27,104.657 48.192,122.637 44.696,130.913" fill="rgb(216,216,216)"/>
<polygon points="8.732,201.828 6.939,192.885 20.841,160.797 28.592,155.988" fill="rgb(216,216,216)"/>
<polygon points="44.696,130.913 48.899,139.655 81.339,159.85 91.039,159.763" fill="rgb(216,216,216)"/>
<polygon points="42.983,82.546 35.487,82.236 18.032,64.007 18.047,56.505" fill="rgb(216,216,216)"/>
<polygon points="105.64,207.135 103.802,214.187 83.139,226.055 76.121,224.089" fill="rgb(216,216,216)"/>
<polygon points="91.039,159.763 75.027,162.615 69.88,165.438 58.869,177.408" fill="rgb(216,216,216)"/>
<polygon points="81.667,7.148 72.956,6.752 45.877,25.021 42.983,33.246" fill="rgb(216,216,216)"/>
<polygon points="52.138,232.597 57.474,236.221 74.262,230.266 76.121,224.089" fill="rgb(216,216,216)"/>
<polygon points="28.592,155.988 36.137,154.956 57.331,169.95 58.869,177.408" fill="rgb(216,216,216)"/>
<polygon points="42.983,33.246 39.114,29.346 31.672,32.965 32.352,38.417" fill="rgb(216,216,216)"/>
<polygon points="18.047,56.505 16.114,50.566 26.127,37.904 32.352,38.417" fill="rgb(216,216,216)"/>
<line x1="129.541" y1="125.671" x2="102.344" y2="141.927" stroke="#8c8c8c" stroke-width="0.3" stroke-dasharray="1.2,0.8"/>
<line x1="86.236" y1="105.227" x2="129.541" y2="125.671" stroke="#8c8c8c" stroke-width="0.3" stroke-dasharray="1.2,0.8"/>
<line x1="105.639" y1="207.135" x2="112.915" y2="148.912" stroke="#8c8c8c" stroke-width="0.3" stroke-dasharray="1.2,0.8"/>
<line x1="86.236" y1="105.227" x2="127.982" y2="78.353" stroke="#8c8c8c" stroke-width="0.3" stroke-dasharray="1.2,0.8"/>
<line x1="102.344" y1="141.927" x2="86.236" y2="105.227" stroke="#8c8c8c" stroke-width="0.3" stroke-dasharray="1.2,0.8"/>
<line x1="91.039" y1="159.763" x2="86.236" y2="105.227" stroke="#8c8c8c" stroke-width="0.3" stroke-dasharray="1.2,0.8"/>
<line x1="86.236" y1="105.227" x2="83.765" y2="54.857" stroke="#8c8c8c" stroke-width="0.3" stroke-dasharray="1.2,0.8"/>
<line x1="8.732" y1="201.828" x2="58.869" y2="177.409" stroke="#8c8c8c" stroke-width="0.3" stroke-dasharray="1.2,0.8"/>
<line x1="83.765" y1="54.857" x2="42.983" y2="82.546" stroke="#8c8c8c" stroke-width="0.3" stroke-dasharray="1.2,0.8"/>
<line x1="42.983" y1="82.546" x2="42.983" y2="33.246" stroke="#8c8c8c" stroke-width="0.3" stroke-dasharray="1.2,0.8"/>
<line x1="32.352" y1="38.417" x2="42.983" y2="82.546" stroke="#8c8c8c" stroke-width="0.3" stroke-dasharray="1.2,0.8"/>
<line x1="105.639" y1="207.135" x2="91.039" y2="159.763" stroke="#8c8c8c" stroke-width="0.3" stroke-dasharray="1.2,0.8"/>
<line x1="105.639" y1="207.135" x2="58.869" y2="177.409" stroke="#8c8c8c" stroke-width="0.3" stroke-dasharray="1.2,0.8"/>
<line x1="83.765" y1="54.857" x2="81.667" y2="7.148" stroke="#8c8c8c" stroke-width="0.3" stroke-dasharray="1.2,0.8"/>
<line x1="58.869" y1="177.409" x2="52.138" y2="232.597" stroke="#8c8c8c" stroke-width="0.3" stroke-dasharray="1.2,0.8"/>
<line x1="42.983" y1="33.246" x2="83.765" y2="54.857" stroke="#8c8c8c" stroke-width="0.3" stroke-dasharray="1.2,0.8"/>
<line x1="76.121" y1="224.089" x2="58.869" y2="177.409" stroke="#8c8c8c" stroke-width="0.3" stroke-dasharray="1.2,0.8"/>
<line x1="102.344" y1="141.927" x2="105.639" y2="207.135" stroke="#8c8c8c" stroke-width="0.3" stroke-dasharray="1.2,0.8"/>
<line x1="91.039" y1="159.763" x2="102.344" y2="141.927" stroke="#8c8c8c" stroke-width="0.3" stroke-dasharray="1.2,0.8"/>
<line x1="133.883" y1="155.626" x2="129.541" y2="125.67" stroke="#8c8c8c" stroke-width="0.3" stroke-dasharray="1.2,0.8"/>
<line x1="83.765" y1="54.857" x2="127.064" y2="29.71" stroke="#8c8c8c" stroke-width="0.3" stroke-dasharray="1.2,0.8"/>
<line x1="44.696" y1="130.913" x2="86.236" y2="105.227" stroke="#8c8c8c" stroke-width="0.3" stroke-dasharray="1.2,0.8"/>
<line x1="28.592" y1="155.988" x2="8.732" y2="201.828" stroke="#8c8c8c" stroke-width="0.3" stroke-dasharray="1.2,0.8"/>
<line x1="91.039" y1="159.763" x2="44.696" y2="130.913" stroke="#8c8c8c" stroke-width="0.3" stroke-dasharray="1.2,0.8"/>
<line x1="18.047" y1="56.505" x2="42.983" y2="82.546" stroke="#8c8c8c" stroke-width="0.3" stroke-dasharray="1.2,0.8"/>
<line x1="76.121" y1="224.089" x2="105.64" y2="207.135" stroke="#8c8c8c" stroke-width="0.3" stroke-dasharray="1.2,0.8"/>
<line x1="58.869" y1="177.408" x2="91.039" y2="159.763" stroke="#8c8c8c" stroke-width="0.3" stroke-dasharray="1.2,0.8"/>
<line x1="42.983" y1="33.246" x2="81.667" y2="7.148" stroke="#8c8c8c" stroke-width="0.3" stroke-dasharray="1.2,0.8"/>
<line x1="76.121" y1="224.089" x2="52.138" y2="232.597" stroke="#8c8c8c" stroke-width="0.3" stroke-dasharray="1.2,0.8"/>
<line x1="58.869" y1="177.408" x2="28.592" y2="155.988" stroke="#8c8c8c" stroke-width="0.3" stroke-dasharray="1.2,0.8"/>
<line x1="32.352" y1="38.417" x2="42.983" y2="33.246" stroke="#8c8c8c" stroke-width="0.3" stroke-dasharray="1.2,0.8"/>
<line x1="32.352" y1="38.417" x2="18.047" y2="56.505" stroke="#8c8c8c" stroke-width="0.3" stroke-dasharray="1.2,0.8"/>
<line x1="112.915" y1="148.912" x2="158.673" y2="180.282" stroke="#141414" stroke-width="0.4"/>
<line x1="158.673" y1="180.282" x2="105.639" y2="207.135" stroke="#141414" stroke-width="0.4"/>
<line x1="127.982" y1="78.353" x2="129.541" y2="125.671" stroke="#141414" stroke-width="0.4"/>
<line x1="102.344" y1="141.927" x2="112.915" y2="148.912" stroke="#141414" stroke-width="0.4"/>
<line x1="81.667" y1="7.148" x2="127.064" y2="29.71" stroke="#141414" stroke-width="0.4"/>
<line x1="83.765" y1="54.857" x2="127.982" y2="78.353" stroke="#141414" stroke-width="0.4"/>
<line x1="133.883" y1="155.626" x2="102.344" y2="141.927" stroke="#141414" stroke-width="0.4"/>
<line x1="86.236" y1="105.227" x2="42.983" y2="82.546" stroke="#141414" stroke-width="0.4"/>
<line x1="52.138" y1="232.597" x2="8.732" y2="201.828" stroke="#141414" stroke-width="0.4"/>
<line x1="129.541" y1="125.67" x2="135.338" y2="129.418" stroke="#141414" stroke-width="0.4"/>
<line x1="135.338" y1="129.418" x2="138.378" y2="150.387" stroke="#141414" stroke-width="0.4"/>
<line x1="138.378" y1="150.387" x2="133.883" y2="155.626" stroke="#141414" stroke-width="0.4"/>
<line x1="127.064" y1="29.71" x2="123.181" y2="37.979" stroke="#141414" stroke-width="0.4"/>
<line x1="123.181" y1="37.979" x2="92.871" y2="55.582" stroke="#141414" stroke-width="0.4"/>
<line x1="92.871" y1="55.582" x2="83.765" y2="54.857" stroke="#141414" stroke-width="0.4"/>
<line x1="86.236" y1="105.227" x2="77.27" y2="104.657" stroke="#141414" stroke-width="0.4"/>
<line x1="77.27" y1="104.657" x2="48.192" y2="122.637" stroke="#141414" stroke-width="0.4"/>
<line x1="48.192" y1="122.637" x2="44.696" y2="130.913" stroke="#141414" stroke-width="0.4"/>
<line x1="8.732" y1="201.828" x2="6.939" y2="192.885" stroke="#141414" stroke-width="0.4"/>
<line x1="6.939" y1="192.885" x2="20.841" y2="160.797" stroke="#141414" stroke-width="0.4"/>
<line x1="20.841" y1="160.797" x2="28.592" y2="155.988" stroke="#141414" stroke-width="0.4"/>
<line x1="44.696" y1="130.913" x2="48.899" y2="139.655" stroke="#141414" stroke-width="0.4"/>
<line x1="48.899" y1="139.655" x2="81.339" y2="159.85" stroke="#141414" stroke-width="0.4"/>
<line x1="81.339" y1="159.85" x2="91.039" y2="159.763" stroke="#141414" stroke-width="0.4"/>
<line x1="42.983" y1="82.546" x2="35.487" y2="82.236" stroke="#141414" stroke-width="0.4"/>
<line x1="35.487" y1="82.236" x2="18.032" y2="64.007" stroke="#141414" stroke-width="0.4"/>
<line x1="18.032" y1="64.007" x2="18.047" y2="56.505" stroke="#141414" stroke-width="0.4"/>
<line x1="105.64" y1="207.135" x2="103.802" y2="214.187" stroke="#141414" stroke-width="0.4"/>
<line x1="103.802" y1="214.187" x2="83.139" y2="226.055" stroke="#141414" stroke-width="0.4"/>
<line x1="83.139" y1="226.055" x2="76.121" y2="224.089" stroke="#141414" stroke-width="0.4"/>
<line x1="91.039" y1="159.763" x2="75.027" y2="162.615" stroke="#141414" stroke-width="0.4"/>
<line x1="75.027" y1="162.615" x2="69.88" y2="165.438" stroke="#141414" stroke-width="0.4"/>
<line x1="69.88" y1="165.438" x2="58.869" y2="177.408" stroke="#141414" stroke-width="0.4"/>
<line x1="81.667" y1="7.148" x2="72.956" y2="6.752" stroke="#141414" stroke-width="0.4"/>
<line x1="72.956" y1="6.752" x2="45.877" y2="25.021" stroke="#141414" stroke-width="0.4"/>
<line x1="45.877" y1="25.021" x2="42.983" y2="33.246" stroke="#141414" stroke-width="0.4"/>
<line x1="52.138" y1="232.597" x2="57.474" y2="236.221" stroke="#141414" stroke-width="0.4"/>
<line x1="57.474" y1="236.221" x2="74.262" y2="230.266" stroke="#141414" stroke-width="0.4"/>
<line x1="74.262" y1="230.266" x2="76.121" y2="224.089" stroke="#141414" stroke-width="0.4"/>
<line x1="28.592" y1="155.988" x2="36.137" y2="154.956" stroke="#141414" stroke-width="0.4"/>
<line x1="36.137" y1="154.956" x2="57.331" y2="169.95" stroke="#141414" stroke-width="0.4"/>
<line x1="57.331" y1="169.95" x2="58.869" y2="177.408" stroke="#141414" stroke-width="0.4"/>
<line x1="42.983" y1="33.246" x2="39.114" y2="29.346" stroke="#141414" stroke-width="0.4"/>
<line x1="39.114" y1="29.346" x2="31.672" y2="32.965" stroke="#141414" stroke-width="0.4"/>
<line x1="31.672" y1="32.965" x2="32.352" y2="38.417" stroke="#141414" stroke-width="0.4"/>
<line x1="18.047" y1="56.505" x2="16.114" y2="50.566" stroke="#141414" stroke-width="0.4"/>
<line x1="16.114" y1="50.566" x2="26.127" y2="37.904" stroke="#141414" stroke-width="0.4"/>
<line x1="26.127" y1="37.904" x2="32.352" y2="38.417" stroke="#141414" stroke-width="0.4"/>
<circle cx="134.285" cy="140.276" r="2.29" fill="#ffe082" stroke="#464646" stroke-width="0.2"/>
<text x="134.285" y="141.36" font-size="3.11" text-anchor="middle" fill="#141414">19</text>
<circle cx="106.72" cy="44.532" r="2.29" fill="#ffe082" stroke="#464646" stroke-width="0.2"/>
<text x="106.72" y="45.62" font-size="3.11" text-anchor="middle" fill="#141414">22</text>
<circle cx="64.098" cy="115.859" r="2.29" fill="#ffe082" stroke="#464646" stroke-width="0.2"/>
<text x="64.098" y="116.95" font-size="3.11" text-anchor="middle" fill="#141414">25</text>
<circle cx="16.276" cy="177.874" r="2.29" fill="#ffe082" stroke="#464646" stroke-width="0.2"/>
<text x="16.276" y="178.96" font-size="3.11" text-anchor="middle" fill="#141414">31</text>
<circle cx="66.493" cy="147.545" r="2.29" fill="#ffe082" stroke="#464646" stroke-width="0.2"/>
<text x="66.493" y="148.63" font-size="3.11" text-anchor="middle" fill="#141414">32</text>
<circle cx="28.637" cy="71.323" r="2.29" fill="#ffe082" stroke="#464646" stroke-width="0.2"/>
<text x="28.637" y="72.41" font-size="3.11" text-anchor="middle" fill="#141414">33</text>
<circle cx="92.175" cy="217.866" r="2.29" fill="#ffe082" stroke="#464646" stroke-width="0.2"/>
<text x="92.175" y="218.95" font-size="3.11" text-anchor="middle" fill="#141414">37</text>
<circle cx="73.704" cy="166.306" r="2.29" fill="#ffe082" stroke="#464646" stroke-width="0.2"/>
<text x="73.704" y="167.39" font-size="3.11" text-anchor="middle" fill="#141414">39</text>
<circle cx="60.871" cy="18.042" r="2.29" fill="#ffe082" stroke="#464646" stroke-width="0.2"/>
<text x="60.871" y="19.13" font-size="3.11" text-anchor="middle" fill="#141414">40</text>
<circle cx="64.999" cy="230.793" r="2.29" fill="#ffe082" stroke="#464646" stroke-width="0.2"/>
<text x="64.999" y="231.88" font-size="3.11" text-anchor="middle" fill="#141414">41</text>
<circle cx="45.232" cy="164.576" r="2.29" fill="#ffe082" stroke="#464646" stroke-width="0.2"/>
<text x="45.232" y="165.66" font-size="3.11" text-anchor="middle" fill="#141414">42</text>
<circle cx="36.53" cy="33.493" r="2.29" fill="#ffe082" stroke="#464646" stroke-width="0.2"/>
<text x="36.53" y="34.58" font-size="3.11" text-anchor="middle" fill="#141414">44</text>
<circle cx="23.16" cy="45.848" r="2.29" fill="#ffe082" stroke="#464646" stroke-width="0.2"/>
<text x="23.16" y="46.93" font-size="3.11" text-anchor="middle" fill="#141414">50</text>
<circle cx="80.867" cy="240.569" r="4.6" fill="#eaf1fe" stroke="#2e78e6" stroke-width="0.3"/>
<text x="80.867" y="242.369" font-size="5.2" text-anchor="middle" fill="#14306e" font-weight="bold">2</text>
</svg>
