<svg xmlns="http://www.w3.org/2000/svg" xmlns:xlink="http://www.w3.org/1999/xlink" width="210.00mm" height="297.00mm" viewBox="0 0 210.00 297.00">
<rect x="0" y="0" width="210.00" height="297.00" fill="#ffffff" stroke="#cccccc" stroke-width="0.2"/>
<polygon points="131.099,95.581 140.039,92.897 164.505,108.114 166.051,117.318" fill="rgb(216,216,216)"/>
<polygon points="89.939,95.581 80.813,93.064 55.661,108.942 54.008,118.264" fill="rgb(216,216,216)"/>
<polygon points="54.008,118.264 44.591,117.294 22.416,137.118 22.33,146.584" fill="rgb(216,216,216)"/>
<polygon points="54.008,72.898 46.737,62.901 45.462,15.373 52.186,5.0" fill="rgb(216,216,216)"/>
<polygon points="22.33,146.584 13.903,150.599 5.991,178.303 11.026,186.162" fill="rgb(216,216,216)"/>
<polygon points="11.026,186.162 17.2,193.162 46.012,193.162 52.186,186.162" fill="rgb(216,216,216)"/>
<polygon points="185.223,235.913 193.649,231.898 201.561,204.194 196.526,196.335" fill="rgb(216,216,216)"/>
<polygon points="119.796,135.158 119.709,144.625 97.534,164.449 88.117,163.478" fill="rgb(216,216,216)"/>
<polygon points="88.117,163.478 86.464,172.8 61.312,188.678 52.186,186.162" fill="rgb(216,216,216)"/>
<polygon points="166.051,117.318 175.13,120.001 188.102,146.768 184.582,155.556" fill="rgb(216,216,216)"/>
<polygon points="184.582,155.556 193.092,159.706 201.452,188.251 196.526,196.335" fill="rgb(216,216,216)"/>
<polygon points="89.939,95.581 80.813,93.064 55.661,108.942 54.008,118.264" fill="#99d9fa"/>
<line x1="89.939" y1="95.581" x2="131.099" y2="95.581" stroke="#8c8c8c" stroke-width="0.3" stroke-dasharray="1.2,0.8"/>
<line x1="131.099" y1="95.581" x2="119.796" y2="135.158" stroke="#8c8c8c" stroke-width="0.3" stroke-dasharray="1.2,0.8"/>
<line x1="119.796" y1="135.158" x2="89.939" y2="95.581" stroke="#8c8c8c" stroke-width="0.3" stroke-dasharray="1.2,0.8"/>
<line x1="89.939" y1="95.581" x2="119.796" y2="56.004" stroke="#8c8c8c" stroke-width="0.3" stroke-dasharray="1.2,0.8"/>
<line x1="88.117" y1="163.478" x2="54.008" y2="118.264" stroke="#8c8c8c" stroke-width="0.3" stroke-dasharray="1.2,0.8"/>
<line x1="54.008" y1="72.898" x2="88.117" y2="27.683" stroke="#8c8c8c" stroke-width="0.3" stroke-dasharray="1.2,0.8"/>
<line x1="52.186" y1="186.162" x2="22.329" y2="146.584" stroke="#8c8c8c" stroke-width="0.3" stroke-dasharray="1.2,0.8"/>
<line x1="166.051" y1="117.319" x2="119.796" y2="135.158" stroke="#8c8c8c" stroke-width="0.3" stroke-dasharray="1.2,0.8"/>
<line x1="184.583" y1="155.556" x2="131.739" y2="175.937" stroke="#8c8c8c" stroke-width="0.3" stroke-dasharray="1.2,0.8"/>
<line x1="196.526" y1="196.335" x2="150.271" y2="214.175" stroke="#8c8c8c" stroke-width="0.3" stroke-dasharray="1.2,0.8"/>
<line x1="166.051" y1="117.318" x2="131.099" y2="95.581" stroke="#8c8c8c" stroke-width="0.3" stroke-dasharray="1.2,0.8"/>
<line x1="54.008" y1="118.264" x2="89.939" y2="95.581" stroke="#8c8c8c" stroke-width="0.3" stroke-dasharray="1.2,0.8"/>
<line x1="22.33" y1="146.584" x2="54.008" y2="118.264" stroke="#8c8c8c" stroke-width="0.3" stroke-dasharray="1.2,0.8"/>
<line x1="52.186" y1="5.0" x2="54.008" y2="72.898" stroke="#8c8c8c" stroke-width="0.3" stroke-dasharray="1.2,0.8"/>
<line x1="11.026" y1="186.162" x2="22.33" y2="146.584" stroke="#8c8c8c" stroke-width="0.3" stroke-dasharray="1.2,0.8"/>
<line x1="52.186" y1="186.162" x2="11.026" y2="186.162" stroke="#8c8c8c" stroke-width="0.3" stroke-dasharray="1.2,0.8"/>
<line x1="196.526" y1="196.335" x2="185.223" y2="235.913" stroke="#8c8c8c" stroke-width="0.3" stroke-dasharray="1.2,0.8"/>
<line x1="88.117" y1="163.478" x2="119.796" y2="135.158" stroke="#8c8c8c" stroke-width="0.3" stroke-dasharray="1.2,0.8"/>
<line x1="52.186" y1="186.162" x2="88.117" y2="163.478" stroke="#8c8c8c" stroke-width="0.3" stroke-dasharray="1.2,0.8"/>
<line x1="184.582" y1="155.556" x2="166.051" y2="117.318" stroke="#8c8c8c" stroke-width="0.3" stroke-dasharray="1.2,0.8"/>
<line x1="196.526" y1="196.335" x2="184.582" y2="155.556" stroke="#8c8c8c" stroke-width="0.3" stroke-dasharray="1.2,0.8"/>
<line x1="119.796" y1="56.004" x2="131.099" y2="95.581" stroke="#141414" stroke-width="0.4"/>
<line x1="89.939" y1="95.581" x2="54.008" y2="72.898" stroke="#141414" stroke-width="0.4"/>
<line x1="185.223" y1="235.913" x2="150.271" y2="214.175" stroke="#141414" stroke-width="0.4"/>
<line x1="131.739" y1="175.937" x2="119.796" y2="135.158" stroke="#141414" stroke-width="0.4"/>
<line x1="150.271" y1="214.175" x2="131.739" y2="175.937" stroke="#141414" stroke-width="0.4"/>
<line x1="88.117" y1="27.683" x2="119.796" y2="56.004" stroke="#141414" stroke-width="0.4"/>
<line x1="52.186" y1="5.0" x2="88.117" y2="27.683" stroke="#141414" stroke-width="0.4"/>
<line x1="131.099" y1="95.581" x2="140.039" y2="92.897" stroke="#141414" stroke-width="0.4"/>
<line x1="140.039" y1="92.897" x2="164.505" y2="108.114" stroke="#141414" stroke-width="0.4"/>
<line x1="164.505" y1="108.114" x2="166.051" y2="117.318" stroke="#141414" stroke-width="0.4"/>
<line x1="89.939" y1="95.581" x2="80.813" y2="93.064" stroke="#141414" stroke-width="0.4"/>
<line x1="80.813" y1="93.064" x2="55.661" y2="108.942" stroke="#141414" stroke-width="0.4"/>
<line x1="55.661" y1="108.942" x2="54.008" y2="118.264" stroke="#141414" stroke-width="0.4"/>
<line x1="54.008" y1="118.264" x2="44.591" y2="117.294" stroke="#141414" stroke-width="0.4"/>
<line x1="44.591" y1="117.294" x2="22.416" y2="137.118" stroke="#141414" stroke-width="0.4"/>
<line x1="22.416" y1="137.118" x2="22.33" y2="146.584" stroke="#141414" stroke-width="0.4"/>
<line x1="54.008" y1="72.898" x2="46.737" y2="62.901" stroke="#141414" stroke-width="0.4"/>
<line x1="46.737" y1="62.901" x2="45.462" y2="15.373" stroke="#141414" stroke-width="0.4"/>
<line x1="45.462" y1="15.373" x2="52.186" y2="5.0" stroke="#141414" stroke-width="0.4"/>
<line x1="22.33" y1="146.584" x2="13.903" y2="150.599" stroke="#141414" stroke-width="0.4"/>
<line x1="13.903" y1="150.599" x2="5.991" y2="178.303" stroke="#141414" stroke-width="0.4"/>
<line x1="5.991" y1="178.303" x2="11.026" y2="186.162" stroke="#141414" stroke-width="0.4"/>
<line x1="11.026" y1="186.162" x2="17.2" y2="193.162" stroke="#141414" stroke-width="0.4"/>
<line x1="17.2" y1="193.162" x2="46.012" y2="193.162" stroke="#141414" stroke-width="0.4"/>
<line x1="46.012" y1="193.162" x2="52.186" y2="186.162" stroke="#141414" stroke-width="0.4"/>
<line x1="185.223" y1="235.913" x2="193.649" y2="231.898" stroke="#141414" stroke-width="0.4"/>
<line x1="193.649" y1="231.898" x2="201.561" y2="204.194" stroke="#141414" stroke-width="0.4"/>
<line x1="201.561" y1="204.194" x2="196.526" y2="196.335" stroke="#141414" stroke-width="0.4"/>
<line x1="119.796" y1="135.158" x2="119.709" y2="144.625" stroke="#141414" stroke-width="0.4"/>
<line x1="119.709" y1="144.625" x2="97.534" y2="164.449" stroke="#141414" stroke-width="0.4"/>
<line x1="97.534" y1="164.449" x2="88.117" y2="163.478" stroke="#141414" stroke-width="0.4"/>
<line x1="88.117" y1="163.478" x2="86.464" y2="172.8" stroke="#141414" stroke-width="0.4"/>
<line x1="86.464" y1="172.8" x2="61.312" y2="188.678" stroke="#141414" stroke-width="0.4"/>
<line x1="61.312" y1="188.678" x2="52.186" y2="186.162" stroke="#141414" stroke-width="0.4"/>
<line x1="166.051" y1="117.318" x2="175.13" y2="120.001" stroke="#141414" stroke-width="0.4"/>
<line x1="175.13" y1="120.001" x2="188.102" y2="146.768" stroke="#141414" stroke-width="0.4"/>
<line x1="188.102" y1="146.768" x2="184.582" y2="155.556" stroke="#141414" stroke-width="0.4"/>
<line x1="184.582" y1="155.556" x2="193.092" y2="159.706" stroke="#141414" stroke-width="0.4"/>
<line x1="193.092" y1="159.706" x2="201.452" y2="188.251" stroke="#141414" stroke-width="0.4"/>
<line x1="201.452" y1="188.251" x2="196.526" y2="196.335" stroke="#141414" stroke-width="0.4"/>
<circle cx="150.423" cy="103.478" r="2.65" fill="#ffe082" stroke="#464646" stroke-width="0.2"/>
<text x="150.423" y="104.39" font-size="2.59" text-anchor="middle" fill="#141414">1</text>
<circle cx="70.105" cy="103.963" r="2.65" fill="#99d9fa" stroke="#464646" stroke-width="0.2"/>
<text x="70.105" y="104.87" font-size="2.59" text-anchor="middle" fill="#141414">2</text>
<circle cx="35.836" cy="129.815" r="2.65" fill="#ffe082" stroke="#464646" stroke-width="0.2"/>
<text x="35.836" y="130.72" font-size="2.59" text-anchor="middle" fill="#141414">3</text>
<circle cx="49.598" cy="39.043" r="2.65" fill="#ffe082" stroke="#464646" stroke-width="0.2"/>
<text x="49.598" y="39.95" font-size="2.59" text-anchor="middle" fill="#141414">4</text>
<circle cx="13.312" cy="165.412" r="2.65" fill="#ffe082" stroke="#464646" stroke-width="0.2"/>
<text x="13.312" y="166.32" font-size="2.59" text-anchor="middle" fill="#141414">5</text>
<circle cx="31.606" cy="189.662" r="2.65" fill="#ffe082" stroke="#464646" stroke-width="0.2"/>
<text x="31.606" y="190.57" font-size="2.59" text-anchor="middle" fill="#141414">6</text>
<circle cx="194.24" cy="217.085" r="2.65" fill="#ffe082" stroke="#464646" stroke-width="0.2"/>
<text x="194.24" y="217.99" font-size="2.59" text-anchor="middle" fill="#141414">7</text>
<circle cx="106.289" cy="151.928" r="2.65" fill="#ffe082" stroke="#464646" stroke-width="0.2"/>
<text x="106.289" y="152.84" font-size="2.59" text-anchor="middle" fill="#141414">8</text>
<circle cx="72.02" cy="177.78" r="2.65" fill="#ffe082" stroke="#464646" stroke-width="0.2"/>
<text x="72.02" y="178.69" font-size="2.59" text-anchor="middle" fill="#141414">9</text>
<circle cx="178.466" cy="134.911" r="2.65" fill="#ffe082" stroke="#464646" stroke-width="0.2"/>
<text x="178.466" y="135.82" font-size="2.59" text-anchor="middle" fill="#141414">10</text>
<circle cx="193.913" cy="174.962" r="2.65" fill="#ffe082" stroke="#464646" stroke-width="0.2"/>
<text x="193.913" y="175.87" font-size="2.59" text-anchor="middle" fill="#141414">11</text>
<circle cx="64.77" cy="35.194" r="4.60" fill="#eaf1fe" stroke="#2e78e6" stroke-width="0.3"/>
<text x="64.77" y="36.99" font-size="5.20" text-anchor="middle" fill="#14306e" font-weight="bold">1</text>
<text x="205.0" y="295.0" font-size="3.2" text-anchor="end" fill="#737373" font-family="sans-serif">1 / 5</text>
</svg>
