<svg xmlns="http://www.w3.org/2000/svg" xmlns:xlink="http://www.w3.org/1999/xlink" width="210.00mm" height="297.00mm" viewBox="0 0 210.00 297.00">
<rect x="0" y="0" width="210.00" height="297.00" fill="#ffffff" stroke="#cccccc" stroke-width="0.2"/>
<polygon points="16.189,43.092 11.279,47.544 12.575,66.677 18.041,70.425" fill="rgb(216,216,216)"/>
<polygon points="83.465,74.216 87.524,80.058 82.745,102.202 76.638,105.85" fill="rgb(216,216,216)"/>
<polygon points="83.465,74.216 78.245,70.125 59.563,74.624 56.778,80.643" fill="rgb(216,216,216)"/>
<polygon points="18.041,70.425 11.94,75.516 7.415,103.188 11.577,109.957" fill="rgb(216,216,216)"/>
<polygon points="11.577,109.957 6.374,116.078 6.359,144.654 11.555,150.78" fill="rgb(216,216,216)"/>
<line x1="56.778" y1="80.643" x2="16.189" y2="43.092" stroke="#8c8c8c" stroke-width="0.3" stroke-dasharray="1.2,0.8"/>
<line x1="56.778" y1="80.643" x2="76.638" y2="105.849" stroke="#8c8c8c" stroke-width="0.3" stroke-dasharray="1.2,0.8"/>
<line x1="56.778" y1="80.643" x2="18.041" y2="70.425" stroke="#8c8c8c" stroke-width="0.3" stroke-dasharray="1.2,0.8"/>
<line x1="47.636" y1="109.957" x2="56.778" y2="80.643" stroke="#8c8c8c" stroke-width="0.3" stroke-dasharray="1.2,0.8"/>
<line x1="11.577" y1="109.957" x2="47.636" y2="109.957" stroke="#8c8c8c" stroke-width="0.3" stroke-dasharray="1.2,0.8"/>
<line x1="47.636" y1="109.957" x2="11.555" y2="150.78" stroke="#8c8c8c" stroke-width="0.3" stroke-dasharray="1.2,0.8"/>
<line x1="18.041" y1="70.425" x2="47.636" y2="109.957" stroke="#8c8c8c" stroke-width="0.3" stroke-dasharray="1.2,0.8"/>
<line x1="18.041" y1="70.425" x2="16.189" y2="43.092" stroke="#8c8c8c" stroke-width="0.3" stroke-dasharray="1.2,0.8"/>
<line x1="76.638" y1="105.85" x2="83.465" y2="74.216" stroke="#8c8c8c" stroke-width="0.3" stroke-dasharray="1.2,0.8"/>
<line x1="56.778" y1="80.643" x2="83.465" y2="74.216" stroke="#8c8c8c" stroke-width="0.3" stroke-dasharray="1.2,0.8"/>
<line x1="11.577" y1="109.957" x2="18.041" y2="70.425" stroke="#8c8c8c" stroke-width="0.3" stroke-dasharray="1.2,0.8"/>
<line x1="11.555" y1="150.78" x2="11.577" y2="109.957" stroke="#8c8c8c" stroke-width="0.3" stroke-dasharray="1.2,0.8"/>
<line x1="16.189" y1="43.092" x2="63.396" y2="5.0" stroke="#141414" stroke-width="0.4"/>
<line x1="63.396" y1="5.0" x2="56.778" y2="80.643" stroke="#141414" stroke-width="0.4"/>
<line x1="76.638" y1="105.849" x2="47.636" y2="109.957" stroke="#141414" stroke-width="0.4"/>
<line x1="47.636" y1="109.957" x2="43.938" y2="157.885" stroke="#141414" stroke-width="0.4"/>
<line x1="43.938" y1="157.885" x2="11.555" y2="150.78" stroke="#141414" stroke-width="0.4"/>
<line x1="16.189" y1="43.092" x2="11.279" y2="47.544" stroke="#141414" stroke-width="0.4"/>
<line x1="11.279" y1="47.544" x2="12.575" y2="66.677" stroke="#141414" stroke-width="0.4"/>
<line x1="12.575" y1="66.677" x2="18.041" y2="70.425" stroke="#141414" stroke-width="0.4"/>
<line x1="83.465" y1="74.216" x2="87.524" y2="80.058" stroke="#141414" stroke-width="0.4"/>
<line x1="87.524" y1="80.058" x2="82.745" y2="102.202" stroke="#141414" stroke-width="0.4"/>
<line x1="82.745" y1="102.202" x2="76.638" y2="105.85" stroke="#141414" stroke-width="0.4"/>
<line x1="83.465" y1="74.216" x2="78.245" y2="70.125" stroke="#141414" stroke-width="0.4"/>
<line x1="78.245" y1="70.125" x2="59.563" y2="74.624" stroke="#141414" stroke-width="0.4"/>
<line x1="59.563" y1="74.624" x2="56.778" y2="80.643" stroke="#141414" stroke-width="0.4"/>
<line x1="18.041" y1="70.425" x2="11.94" y2="75.516" stroke="#141414" stroke-width="0.4"/>
<line x1="11.94" y1="75.516" x2="7.415" y2="103.188" stroke="#141414" stroke-width="0.4"/>
<line x1="7.415" y1="103.188" x2="11.577" y2="109.957" stroke="#141414" stroke-width="0.4"/>
<line x1="11.577" y1="109.957" x2="6.374" y2="116.078" stroke="#141414" stroke-width="0.4"/>
<line x1="6.374" y1="116.078" x2="6.359" y2="144.654" stroke="#141414" stroke-width="0.4"/>
<line x1="6.359" y1="144.654" x2="11.555" y2="150.78" stroke="#141414" stroke-width="0.4"/>
<circle cx="14.521" cy="56.934" r="2.04" fill="#ffe082" stroke="#464646" stroke-width="0.2"/>
<text x="14.521" y="57.63" font-size="2.00" text-anchor="middle" fill="#141414">98</text>
<circle cx="82.593" cy="90.581" r="2.04" fill="#ffe082" stroke="#464646" stroke-width="0.2"/>
<text x="82.593" y="91.28" font-size="2.00" text-anchor="middle" fill="#141414">107</text>
<circle cx="69.513" cy="74.902" r="2.04" fill="#ffe082" stroke="#464646" stroke-width="0.2"/>
<text x="69.513" y="75.60" font-size="2.00" text-anchor="middle" fill="#141414">109</text>
<circle cx="12.243" cy="89.772" r="2.04" fill="#ffe082" stroke="#464646" stroke-width="0.2"/>
<text x="12.243" y="90.47" font-size="2.00" text-anchor="middle" fill="#141414">115</text>
<circle cx="8.966" cy="130.367" r="2.04" fill="#ffe082" stroke="#464646" stroke-width="0.2"/>
<text x="8.966" y="131.07" font-size="2.00" text-anchor="middle" fill="#141414">119</text>
<circle cx="40.818" cy="87.008" r="4.60" fill="#eaf1fe" stroke="#2e78e6" stroke-width="0.3"/>
<text x="40.818" y="88.81" font-size="5.20" text-anchor="middle" fill="#14306e" font-weight="bold">21</text>
<polygon points="189.148,58.553 193.806,53.304 191.417,31.441 185.736,27.321" fill="rgb(216,216,216)"/>
<polygon points="189.148,58.553 183.564,64.502 154.451,68.189 147.559,63.82" fill="rgb(216,216,216)"/>
<polygon points="141.941,5.0 135.592,6.009 127.589,21.729 130.508,27.456" fill="rgb(216,216,216)"/>
<polygon points="147.559,63.82 144.154,70.32 121.076,77.475 114.59,74.041" fill="rgb(216,216,216)"/>
<polygon points="105.673,27.456 99.387,27.534 90.299,41.28 92.689,47.093" fill="rgb(216,216,216)"/>
<polygon points="117.485,49.314 113.302,54.16 95.944,52.606 92.689,47.093" fill="rgb(216,216,216)"/>
<polygon points="117.485,49.314 113.302,54.16 95.944,52.606 92.689,47.093" fill="#99d9fa"/>
<line x1="147.559" y1="63.82" x2="185.736" y2="27.321" stroke="#8c8c8c" stroke-width="0.3" stroke-dasharray="1.2,0.8"/>
<line x1="148.84" y1="31.755" x2="117.485" y2="49.314" stroke="#8c8c8c" stroke-width="0.3" stroke-dasharray="1.2,0.8"/>
<line x1="147.559" y1="63.82" x2="117.485" y2="49.314" stroke="#8c8c8c" stroke-width="0.3" stroke-dasharray="1.2,0.8"/>
<line x1="130.508" y1="27.456" x2="117.485" y2="49.314" stroke="#8c8c8c" stroke-width="0.3" stroke-dasharray="1.2,0.8"/>
<line x1="148.84" y1="31.755" x2="130.508" y2="27.456" stroke="#8c8c8c" stroke-width="0.3" stroke-dasharray="1.2,0.8"/>
<line x1="185.736" y1="27.321" x2="189.148" y2="58.553" stroke="#8c8c8c" stroke-width="0.3" stroke-dasharray="1.2,0.8"/>
<line x1="147.559" y1="63.82" x2="189.148" y2="58.553" stroke="#8c8c8c" stroke-width="0.3" stroke-dasharray="1.2,0.8"/>
<line x1="130.508" y1="27.456" x2="141.941" y2="5.0" stroke="#8c8c8c" stroke-width="0.3" stroke-dasharray="1.2,0.8"/>
<line x1="114.59" y1="74.041" x2="147.559" y2="63.82" stroke="#8c8c8c" stroke-width="0.3" stroke-dasharray="1.2,0.8"/>
<line x1="92.689" y1="47.093" x2="105.673" y2="27.456" stroke="#8c8c8c" stroke-width="0.3" stroke-dasharray="1.2,0.8"/>
<line x1="92.689" y1="47.093" x2="117.485" y2="49.314" stroke="#8c8c8c" stroke-width="0.3" stroke-dasharray="1.2,0.8"/>
<line x1="148.84" y1="31.755" x2="185.736" y2="27.321" stroke="#141414" stroke-width="0.4"/>
<line x1="141.941" y1="5.0" x2="148.84" y2="31.755" stroke="#141414" stroke-width="0.4"/>
<line x1="105.673" y1="27.456" x2="130.508" y2="27.456" stroke="#141414" stroke-width="0.4"/>
<line x1="114.59" y1="74.041" x2="117.485" y2="49.314" stroke="#141414" stroke-width="0.4"/>
<line x1="189.148" y1="58.553" x2="193.806" y2="53.304" stroke="#141414" stroke-width="0.4"/>
<line x1="193.806" y1="53.304" x2="191.417" y2="31.441" stroke="#141414" stroke-width="0.4"/>
<line x1="191.417" y1="31.441" x2="185.736" y2="27.321" stroke="#141414" stroke-width="0.4"/>
<line x1="189.148" y1="58.553" x2="183.564" y2="64.502" stroke="#141414" stroke-width="0.4"/>
<line x1="183.564" y1="64.502" x2="154.451" y2="68.189" stroke="#141414" stroke-width="0.4"/>
<line x1="154.451" y1="68.189" x2="147.559" y2="63.82" stroke="#141414" stroke-width="0.4"/>
<line x1="141.941" y1="5.0" x2="135.592" y2="6.009" stroke="#141414" stroke-width="0.4"/>
<line x1="135.592" y1="6.009" x2="127.589" y2="21.729" stroke="#141414" stroke-width="0.4"/>
<line x1="127.589" y1="21.729" x2="130.508" y2="27.456" stroke="#141414" stroke-width="0.4"/>
<line x1="147.559" y1="63.82" x2="144.154" y2="70.32" stroke="#141414" stroke-width="0.4"/>
<line x1="144.154" y1="70.32" x2="121.076" y2="77.475" stroke="#141414" stroke-width="0.4"/>
<line x1="121.076" y1="77.475" x2="114.59" y2="74.041" stroke="#141414" stroke-width="0.4"/>
<line x1="105.673" y1="27.456" x2="99.387" y2="27.534" stroke="#141414" stroke-width="0.4"/>
<line x1="99.387" y1="27.534" x2="90.299" y2="41.28" stroke="#141414" stroke-width="0.4"/>
<line x1="90.299" y1="41.28" x2="92.689" y2="47.093" stroke="#141414" stroke-width="0.4"/>
<line x1="117.485" y1="49.314" x2="113.302" y2="54.16" stroke="#141414" stroke-width="0.4"/>
<line x1="113.302" y1="54.16" x2="95.944" y2="52.606" stroke="#141414" stroke-width="0.4"/>
<line x1="95.944" y1="52.606" x2="92.689" y2="47.093" stroke="#141414" stroke-width="0.4"/>
<circle cx="190.027" cy="42.655" r="2.04" fill="#ffe082" stroke="#464646" stroke-width="0.2"/>
<text x="190.027" y="43.35" font-size="2.00" text-anchor="middle" fill="#141414">90</text>
<circle cx="168.681" cy="63.766" r="2.04" fill="#ffe082" stroke="#464646" stroke-width="0.2"/>
<text x="168.681" y="64.47" font-size="2.00" text-anchor="middle" fill="#141414">91</text>
<circle cx="133.907" cy="15.049" r="2.04" fill="#ffe082" stroke="#464646" stroke-width="0.2"/>
<text x="133.907" y="15.75" font-size="2.00" text-anchor="middle" fill="#141414">106</text>
<circle cx="131.845" cy="71.414" r="2.04" fill="#ffe082" stroke="#464646" stroke-width="0.2"/>
<text x="131.845" y="72.11" font-size="2.00" text-anchor="middle" fill="#141414">110</text>
<circle cx="97.012" cy="35.841" r="2.04" fill="#ffe082" stroke="#464646" stroke-width="0.2"/>
<text x="97.012" y="36.54" font-size="2.00" text-anchor="middle" fill="#141414">116</text>
<circle cx="104.855" cy="50.793" r="2.04" fill="#99d9fa" stroke="#464646" stroke-width="0.2"/>
<text x="104.855" y="51.49" font-size="2.00" text-anchor="middle" fill="#141414">117</text>
<circle cx="150.26" cy="46.819" r="4.60" fill="#eaf1fe" stroke="#2e78e6" stroke-width="0.3"/>
<text x="150.26" y="48.62" font-size="5.20" text-anchor="middle" fill="#14306e" font-weight="bold">22</text>
<line x1="5.0" y1="160.885" x2="44.429" y2="160.885" stroke="#141414" stroke-width="0.4"/>
<line x1="44.429" y1="160.885" x2="51.778" y2="200.263" stroke="#141414" stroke-width="0.4"/>
<line x1="12.206" y1="210.29" x2="5.0" y2="160.885" stroke="#141414" stroke-width="0.4"/>
<line x1="51.778" y1="200.263" x2="12.206" y2="210.29" stroke="#141414" stroke-width="0.4"/>
<circle cx="20.545" cy="177.353" r="4.60" fill="#eaf1fe" stroke="#2e78e6" stroke-width="0.3"/>
<text x="20.545" y="179.15" font-size="5.20" text-anchor="middle" fill="#14306e" font-weight="bold">23</text>
<polygon points="71.864,226.795 79.493,227.799 101.177,212.611 102.84,205.097" fill="rgb(216,216,216)"/>
<polygon points="102.84,205.097 109.249,207.941 129.312,199.034 131.501,192.372" fill="rgb(216,216,216)"/>
<polygon points="109.023,192.372 112.395,187.172 128.129,187.172 131.501,192.372" fill="rgb(216,216,216)"/>
<line x1="102.84" y1="205.097" x2="109.023" y2="192.372" stroke="#8c8c8c" stroke-width="0.3" stroke-dasharray="1.2,0.8"/>
<line x1="90.055" y1="160.885" x2="102.84" y2="205.097" stroke="#8c8c8c" stroke-width="0.3" stroke-dasharray="1.2,0.8"/>
<line x1="102.84" y1="205.097" x2="71.864" y2="226.795" stroke="#8c8c8c" stroke-width="0.3" stroke-dasharray="1.2,0.8"/>
<line x1="131.501" y1="192.372" x2="102.84" y2="205.097" stroke="#8c8c8c" stroke-width="0.3" stroke-dasharray="1.2,0.8"/>
<line x1="131.501" y1="192.372" x2="109.023" y2="192.372" stroke="#8c8c8c" stroke-width="0.3" stroke-dasharray="1.2,0.8"/>
<line x1="71.864" y1="226.795" x2="54.778" y2="171.166" stroke="#141414" stroke-width="0.4"/>
<line x1="54.778" y1="171.166" x2="90.055" y2="160.885" stroke="#141414" stroke-width="0.4"/>
<line x1="90.055" y1="160.885" x2="109.023" y2="192.372" stroke="#141414" stroke-width="0.4"/>
<line x1="71.864" y1="226.795" x2="79.493" y2="227.799" stroke="#141414" stroke-width="0.4"/>
<line x1="79.493" y1="227.799" x2="101.177" y2="212.611" stroke="#141414" stroke-width="0.4"/>
<line x1="101.177" y1="212.611" x2="102.84" y2="205.097" stroke="#141414" stroke-width="0.4"/>
<line x1="102.84" y1="205.097" x2="109.249" y2="207.941" stroke="#141414" stroke-width="0.4"/>
<line x1="109.249" y1="207.941" x2="129.312" y2="199.034" stroke="#141414" stroke-width="0.4"/>
<line x1="129.312" y1="199.034" x2="131.501" y2="192.372" stroke="#141414" stroke-width="0.4"/>
<line x1="109.023" y1="192.372" x2="112.395" y2="187.172" stroke="#141414" stroke-width="0.4"/>
<line x1="112.395" y1="187.172" x2="128.129" y2="187.172" stroke="#141414" stroke-width="0.4"/>
<line x1="128.129" y1="187.172" x2="131.501" y2="192.372" stroke="#141414" stroke-width="0.4"/>
<circle cx="88.843" cy="218.075" r="2.04" fill="#ffe082" stroke="#464646" stroke-width="0.2"/>
<text x="88.843" y="218.77" font-size="2.00" text-anchor="middle" fill="#141414">43</text>
<circle cx="118.225" cy="201.111" r="2.04" fill="#ffe082" stroke="#464646" stroke-width="0.2"/>
<text x="118.225" y="201.81" font-size="2.00" text-anchor="middle" fill="#141414">80</text>
<circle cx="120.262" cy="189.772" r="2.04" fill="#ffe082" stroke="#464646" stroke-width="0.2"/>
<text x="120.262" y="190.47" font-size="2.00" text-anchor="middle" fill="#141414">95</text>
<circle cx="76.494" cy="201.019" r="4.60" fill="#eaf1fe" stroke="#2e78e6" stroke-width="0.3"/>
<text x="76.494" y="202.82" font-size="5.20" text-anchor="middle" fill="#14306e" font-weight="bold">24</text>
<text x="205.0" y="295.0" font-size="3.2" text-anchor="end" fill="#737373" font-family="sans-serif">13 / 15</text>
</svg>
