<svg xmlns="http://www.w3.org/2000/svg" xmlns:xlink="http://www.w3.org/1999/xlink" width="210.00mm" height="297.00mm" viewBox="0 0 210.00 297.00">
<rect x="0" y="0" width="210.00" height="297.00" fill="#ffffff" stroke="#cccccc" stroke-width="0.2"/>
<polygon points="38.661,58.246 29.459,60.134 25.253,67.35 28.147,76.288" fill="rgb(216,216,216)"/>
<polygon points="28.147,76.288 34.277,83.117 42.188,82.893 47.923,75.728" fill="rgb(216,216,216)"/>
<polygon points="17.806,57.185 15.44,48.318 19.953,41.817 29.087,40.933" fill="rgb(216,216,216)"/>
<polygon points="9.304,40.723 4.602,34.717 11.357,22.286 18.956,22.964" fill="rgb(216,216,216)"/>
<polygon points="88.154,75.995 92.625,82.226 85.265,94.855 77.64,94.036" fill="rgb(216,216,216)"/>
<polygon points="88.154,75.995 82.023,69.165 74.113,69.389 68.378,76.554" fill="rgb(216,216,216)"/>
<polygon points="50.861,7.102 53.227,15.969 48.715,22.47 39.58,23.354" fill="rgb(216,216,216)"/>
<polygon points="69.924,41.323 63.86,34.323 55.776,34.323 49.712,41.323" fill="rgb(216,216,216)"/>
<polygon points="69.924,41.323 72.47,50.227 68.049,56.997 58.873,58.246" fill="rgb(216,216,216)"/>
<polygon points="30.007,6.041 22.488,4.752 14.752,16.599 18.956,22.964" fill="rgb(216,216,216)"/>
<polygon points="77.64,94.036 71.576,101.036 63.492,101.036 57.428,94.036" fill="rgb(216,216,216)"/>
<polygon points="17.806,57.185 15.44,48.318 19.953,41.817 29.087,40.933" fill="#99d9fa"/>
<line x1="47.923" y1="75.728" x2="38.661" y2="58.246" stroke="#8c8c8c" stroke-width="0.3" stroke-dasharray="1.2,0.8"/>
<line x1="29.087" y1="40.933" x2="38.661" y2="58.246" stroke="#8c8c8c" stroke-width="0.3" stroke-dasharray="1.2,0.8"/>
<line x1="49.712" y1="41.323" x2="38.661" y2="58.246" stroke="#8c8c8c" stroke-width="0.3" stroke-dasharray="1.2,0.8"/>
<line x1="38.661" y1="58.246" x2="58.873" y2="58.246" stroke="#8c8c8c" stroke-width="0.3" stroke-dasharray="1.2,0.8"/>
<line x1="57.428" y1="94.036" x2="37.282" y2="92.407" stroke="#8c8c8c" stroke-width="0.3" stroke-dasharray="1.2,0.8"/>
<line x1="68.378" y1="76.554" x2="77.64" y2="94.036" stroke="#8c8c8c" stroke-width="0.3" stroke-dasharray="1.2,0.8"/>
<line x1="39.58" y1="23.354" x2="30.007" y2="6.041" stroke="#8c8c8c" stroke-width="0.3" stroke-dasharray="1.2,0.8"/>
<line x1="68.378" y1="76.554" x2="47.923" y2="75.728" stroke="#8c8c8c" stroke-width="0.3" stroke-dasharray="1.2,0.8"/>
<line x1="57.428" y1="94.036" x2="68.378" y2="76.554" stroke="#8c8c8c" stroke-width="0.3" stroke-dasharray="1.2,0.8"/>
<line x1="58.873" y1="58.246" x2="68.378" y2="76.554" stroke="#8c8c8c" stroke-width="0.3" stroke-dasharray="1.2,0.8"/>
<line x1="47.923" y1="75.728" x2="57.428" y2="94.036" stroke="#8c8c8c" stroke-width="0.3" stroke-dasharray="1.2,0.8"/>
<line x1="58.873" y1="58.246" x2="47.923" y2="75.728" stroke="#8c8c8c" stroke-width="0.3" stroke-dasharray="1.2,0.8"/>
<line x1="29.087" y1="40.933" x2="39.58" y2="23.354" stroke="#8c8c8c" stroke-width="0.3" stroke-dasharray="1.2,0.8"/>
<line x1="39.58" y1="23.354" x2="18.956" y2="22.964" stroke="#8c8c8c" stroke-width="0.3" stroke-dasharray="1.2,0.8"/>
<line x1="39.58" y1="23.354" x2="49.712" y2="41.323" stroke="#8c8c8c" stroke-width="0.3" stroke-dasharray="1.2,0.8"/>
<line x1="18.956" y1="22.964" x2="29.087" y2="40.933" stroke="#8c8c8c" stroke-width="0.3" stroke-dasharray="1.2,0.8"/>
<line x1="29.087" y1="40.933" x2="49.712" y2="41.323" stroke="#8c8c8c" stroke-width="0.3" stroke-dasharray="1.2,0.8"/>
<line x1="46.933" y1="110.166" x2="57.428" y2="94.036" stroke="#8c8c8c" stroke-width="0.3" stroke-dasharray="1.2,0.8"/>
<line x1="49.712" y1="41.323" x2="58.873" y2="58.246" stroke="#8c8c8c" stroke-width="0.3" stroke-dasharray="1.2,0.8"/>
<line x1="28.147" y1="76.288" x2="38.661" y2="58.246" stroke="#8c8c8c" stroke-width="0.3" stroke-dasharray="1.2,0.8"/>
<line x1="47.923" y1="75.728" x2="28.147" y2="76.288" stroke="#8c8c8c" stroke-width="0.3" stroke-dasharray="1.2,0.8"/>
<line x1="29.087" y1="40.933" x2="17.806" y2="57.185" stroke="#8c8c8c" stroke-width="0.3" stroke-dasharray="1.2,0.8"/>
<line x1="18.956" y1="22.964" x2="9.304" y2="40.723" stroke="#8c8c8c" stroke-width="0.3" stroke-dasharray="1.2,0.8"/>
<line x1="77.64" y1="94.036" x2="88.154" y2="75.995" stroke="#8c8c8c" stroke-width="0.3" stroke-dasharray="1.2,0.8"/>
<line x1="68.378" y1="76.554" x2="88.154" y2="75.995" stroke="#8c8c8c" stroke-width="0.3" stroke-dasharray="1.2,0.8"/>
<line x1="39.58" y1="23.354" x2="50.861" y2="7.102" stroke="#8c8c8c" stroke-width="0.3" stroke-dasharray="1.2,0.8"/>
<line x1="49.712" y1="41.323" x2="69.924" y2="41.323" stroke="#8c8c8c" stroke-width="0.3" stroke-dasharray="1.2,0.8"/>
<line x1="58.873" y1="58.246" x2="69.924" y2="41.323" stroke="#8c8c8c" stroke-width="0.3" stroke-dasharray="1.2,0.8"/>
<line x1="18.956" y1="22.964" x2="30.007" y2="6.041" stroke="#8c8c8c" stroke-width="0.3" stroke-dasharray="1.2,0.8"/>
<line x1="57.428" y1="94.036" x2="77.64" y2="94.036" stroke="#8c8c8c" stroke-width="0.3" stroke-dasharray="1.2,0.8"/>
<line x1="38.661" y1="58.246" x2="17.806" y2="57.185" stroke="#141414" stroke-width="0.4"/>
<line x1="37.282" y1="92.407" x2="47.923" y2="75.728" stroke="#141414" stroke-width="0.4"/>
<line x1="29.087" y1="40.933" x2="9.305" y2="40.723" stroke="#141414" stroke-width="0.4"/>
<line x1="46.933" y1="110.166" x2="37.282" y2="92.407" stroke="#141414" stroke-width="0.4"/>
<line x1="30.007" y1="6.041" x2="50.861" y2="7.102" stroke="#141414" stroke-width="0.4"/>
<line x1="79.019" y1="59.875" x2="68.378" y2="76.554" stroke="#141414" stroke-width="0.4"/>
<line x1="39.58" y1="23.354" x2="59.363" y2="23.564" stroke="#141414" stroke-width="0.4"/>
<line x1="59.363" y1="23.564" x2="49.712" y2="41.323" stroke="#141414" stroke-width="0.4"/>
<line x1="58.873" y1="58.246" x2="79.019" y2="59.875" stroke="#141414" stroke-width="0.4"/>
<line x1="67.079" y1="111.795" x2="46.933" y2="110.166" stroke="#141414" stroke-width="0.4"/>
<line x1="57.428" y1="94.036" x2="67.079" y2="111.795" stroke="#141414" stroke-width="0.4"/>
<line x1="38.661" y1="58.246" x2="29.459" y2="60.134" stroke="#141414" stroke-width="0.4"/>
<line x1="29.459" y1="60.134" x2="25.253" y2="67.35" stroke="#141414" stroke-width="0.4"/>
<line x1="25.253" y1="67.35" x2="28.147" y2="76.288" stroke="#141414" stroke-width="0.4"/>
<line x1="28.147" y1="76.288" x2="34.277" y2="83.117" stroke="#141414" stroke-width="0.4"/>
<line x1="34.277" y1="83.117" x2="42.188" y2="82.893" stroke="#141414" stroke-width="0.4"/>
<line x1="42.188" y1="82.893" x2="47.923" y2="75.728" stroke="#141414" stroke-width="0.4"/>
<line x1="17.806" y1="57.185" x2="15.44" y2="48.318" stroke="#141414" stroke-width="0.4"/>
<line x1="15.44" y1="48.318" x2="19.953" y2="41.817" stroke="#141414" stroke-width="0.4"/>
<line x1="19.953" y1="41.817" x2="29.087" y2="40.933" stroke="#141414" stroke-width="0.4"/>
<line x1="9.304" y1="40.723" x2="4.602" y2="34.717" stroke="#141414" stroke-width="0.4"/>
<line x1="4.602" y1="34.717" x2="11.357" y2="22.286" stroke="#141414" stroke-width="0.4"/>
<line x1="11.357" y1="22.286" x2="18.956" y2="22.964" stroke="#141414" stroke-width="0.4"/>
<line x1="88.154" y1="75.995" x2="92.625" y2="82.226" stroke="#141414" stroke-width="0.4"/>
<line x1="92.625" y1="82.226" x2="85.265" y2="94.855" stroke="#141414" stroke-width="0.4"/>
<line x1="85.265" y1="94.855" x2="77.64" y2="94.036" stroke="#141414" stroke-width="0.4"/>
<line x1="88.154" y1="75.995" x2="82.023" y2="69.165" stroke="#141414" stroke-width="0.4"/>
<line x1="82.023" y1="69.165" x2="74.113" y2="69.389" stroke="#141414" stroke-width="0.4"/>
<line x1="74.113" y1="69.389" x2="68.378" y2="76.554" stroke="#141414" stroke-width="0.4"/>
<line x1="50.861" y1="7.102" x2="53.227" y2="15.969" stroke="#141414" stroke-width="0.4"/>
<line x1="53.227" y1="15.969" x2="48.715" y2="22.47" stroke="#141414" stroke-width="0.4"/>
<line x1="48.715" y1="22.47" x2="39.58" y2="23.354" stroke="#141414" stroke-width="0.4"/>
<line x1="69.924" y1="41.323" x2="63.86" y2="34.323" stroke="#141414" stroke-width="0.4"/>
<line x1="63.86" y1="34.323" x2="55.776" y2="34.323" stroke="#141414" stroke-width="0.4"/>
<line x1="55.776" y1="34.323" x2="49.712" y2="41.323" stroke="#141414" stroke-width="0.4"/>
<line x1="69.924" y1="41.323" x2="72.47" y2="50.227" stroke="#141414" stroke-width="0.4"/>
<line x1="72.47" y1="50.227" x2="68.049" y2="56.997" stroke="#141414" stroke-width="0.4"/>
<line x1="68.049" y1="56.997" x2="58.873" y2="58.246" stroke="#141414" stroke-width="0.4"/>
<line x1="30.007" y1="6.041" x2="22.488" y2="4.752" stroke="#141414" stroke-width="0.4"/>
<line x1="22.488" y1="4.752" x2="14.752" y2="16.599" stroke="#141414" stroke-width="0.4"/>
<line x1="14.752" y1="16.599" x2="18.956" y2="22.964" stroke="#141414" stroke-width="0.4"/>
<line x1="77.64" y1="94.036" x2="71.576" y2="101.036" stroke="#141414" stroke-width="0.4"/>
<line x1="71.576" y1="101.036" x2="63.492" y2="101.036" stroke="#141414" stroke-width="0.4"/>
<line x1="63.492" y1="101.036" x2="57.428" y2="94.036" stroke="#141414" stroke-width="0.4"/>
<circle cx="30.38" cy="65.505" r="0.93" fill="#ffe082" stroke="#464646" stroke-width="0.2"/>
<text x="30.38" y="65.82" font-size="0.91" text-anchor="middle" fill="#141414">26</text>
<circle cx="38.134" cy="79.506" r="0.93" fill="#ffe082" stroke="#464646" stroke-width="0.2"/>
<text x="38.134" y="79.83" font-size="0.91" text-anchor="middle" fill="#141414">27</text>
<circle cx="20.572" cy="47.063" r="0.93" fill="#99d9fa" stroke="#464646" stroke-width="0.2"/>
<text x="20.572" y="47.38" font-size="0.91" text-anchor="middle" fill="#141414">28</text>
<circle cx="11.055" cy="30.172" r="0.93" fill="#ffe082" stroke="#464646" stroke-width="0.2"/>
<text x="11.055" y="30.49" font-size="0.91" text-anchor="middle" fill="#141414">29</text>
<circle cx="85.921" cy="86.778" r="0.93" fill="#ffe082" stroke="#464646" stroke-width="0.2"/>
<text x="85.921" y="87.10" font-size="0.91" text-anchor="middle" fill="#141414">30</text>
<circle cx="78.167" cy="72.776" r="0.93" fill="#ffe082" stroke="#464646" stroke-width="0.2"/>
<text x="78.167" y="73.10" font-size="0.91" text-anchor="middle" fill="#141414">31</text>
<circle cx="48.096" cy="17.224" r="0.93" fill="#ffe082" stroke="#464646" stroke-width="0.2"/>
<text x="48.096" y="17.54" font-size="0.91" text-anchor="middle" fill="#141414">32</text>
<circle cx="59.818" cy="37.823" r="0.93" fill="#ffe082" stroke="#464646" stroke-width="0.2"/>
<text x="59.818" y="38.14" font-size="0.91" text-anchor="middle" fill="#141414">33</text>
<circle cx="67.329" cy="51.698" r="0.93" fill="#ffe082" stroke="#464646" stroke-width="0.2"/>
<text x="67.329" y="52.02" font-size="0.91" text-anchor="middle" fill="#141414">34</text>
<circle cx="21.551" cy="12.589" r="0.93" fill="#ffe082" stroke="#464646" stroke-width="0.2"/>
<text x="21.551" y="12.91" font-size="0.91" text-anchor="middle" fill="#141414">35</text>
<circle cx="67.534" cy="97.536" r="0.93" fill="#ffe082" stroke="#464646" stroke-width="0.2"/>
<text x="67.534" y="97.86" font-size="0.91" text-anchor="middle" fill="#141414">36</text>
<circle cx="39.46" cy="35.203" r="4.60" fill="#eaf1fe" stroke="#2e78e6" stroke-width="0.3"/>
<text x="39.46" y="37.00" font-size="5.20" text-anchor="middle" fill="#14306e" font-weight="bold">2</text>
<polygon points="121.409,26.984 125.001,20.514 122.462,16.117 115.062,15.992" fill="rgb(216,216,216)"/>
<polygon points="115.062,37.976 111.254,44.323 106.177,44.323 102.37,37.976" fill="rgb(216,216,216)"/>
<polygon points="140.448,59.961 144.992,55.139 140.549,47.444 134.101,48.968" fill="rgb(216,216,216)"/>
<polygon points="140.448,59.961 144.992,64.783 140.549,72.477 134.101,70.953" fill="rgb(216,216,216)"/>
<polygon points="140.448,15.992 144.04,22.463 141.501,26.86 134.101,26.984" fill="rgb(216,216,216)"/>
<polygon points="127.755,59.961 120.355,60.085 117.816,64.482 121.409,70.953" fill="rgb(216,216,216)"/>
<polygon points="140.448,37.976 136.64,44.323 131.563,44.323 127.755,37.976" fill="rgb(216,216,216)"/>
<polygon points="134.101,70.953 132.197,77.299 123.312,77.299 121.409,70.953" fill="rgb(216,216,216)"/>
<polygon points="102.37,15.992 104.274,9.646 113.158,9.646 115.062,15.992" fill="rgb(216,216,216)"/>
<polygon points="108.716,26.984 101.316,27.109 98.778,31.506 102.37,37.976" fill="rgb(216,216,216)"/>
<polygon points="115.062,59.961 111.47,53.49 114.009,49.093 121.409,48.968" fill="rgb(216,216,216)"/>
<polygon points="134.101,70.953 132.197,77.299 123.312,77.299 121.409,70.953" fill="#99d9fa"/>
<line x1="115.062" y1="37.976" x2="121.409" y2="26.984" stroke="#8c8c8c" stroke-width="0.3" stroke-dasharray="1.2,0.8"/>
<line x1="127.755" y1="37.976" x2="121.409" y2="26.984" stroke="#8c8c8c" stroke-width="0.3" stroke-dasharray="1.2,0.8"/>
<line x1="108.716" y1="26.984" x2="121.409" y2="26.984" stroke="#8c8c8c" stroke-width="0.3" stroke-dasharray="1.2,0.8"/>
<line x1="121.409" y1="26.984" x2="134.101" y2="26.984" stroke="#8c8c8c" stroke-width="0.3" stroke-dasharray="1.2,0.8"/>
<line x1="127.755" y1="37.976" x2="115.062" y2="37.976" stroke="#8c8c8c" stroke-width="0.3" stroke-dasharray="1.2,0.8"/>
<line x1="115.062" y1="37.976" x2="108.716" y2="26.984" stroke="#8c8c8c" stroke-width="0.3" stroke-dasharray="1.2,0.8"/>
<line x1="121.409" y1="48.968" x2="115.062" y2="37.976" stroke="#8c8c8c" stroke-width="0.3" stroke-dasharray="1.2,0.8"/>
<line x1="140.447" y1="59.961" x2="127.755" y2="59.961" stroke="#8c8c8c" stroke-width="0.3" stroke-dasharray="1.2,0.8"/>
<line x1="127.755" y1="15.992" x2="140.447" y2="15.992" stroke="#8c8c8c" stroke-width="0.3" stroke-dasharray="1.2,0.8"/>
<line x1="134.101" y1="48.968" x2="127.755" y2="59.961" stroke="#8c8c8c" stroke-width="0.3" stroke-dasharray="1.2,0.8"/>
<line x1="134.101" y1="70.953" x2="127.755" y2="59.961" stroke="#8c8c8c" stroke-width="0.3" stroke-dasharray="1.2,0.8"/>
<line x1="127.755" y1="59.961" x2="121.409" y2="48.968" stroke="#8c8c8c" stroke-width="0.3" stroke-dasharray="1.2,0.8"/>
<line x1="121.409" y1="48.968" x2="134.101" y2="48.968" stroke="#8c8c8c" stroke-width="0.3" stroke-dasharray="1.2,0.8"/>
<line x1="134.101" y1="26.984" x2="140.447" y2="37.976" stroke="#8c8c8c" stroke-width="0.3" stroke-dasharray="1.2,0.8"/>
<line x1="127.755" y1="37.976" x2="121.409" y2="48.968" stroke="#8c8c8c" stroke-width="0.3" stroke-dasharray="1.2,0.8"/>
<line x1="134.101" y1="26.984" x2="127.755" y2="37.976" stroke="#8c8c8c" stroke-width="0.3" stroke-dasharray="1.2,0.8"/>
<line x1="108.716" y1="26.984" x2="102.37" y2="15.992" stroke="#8c8c8c" stroke-width="0.3" stroke-dasharray="1.2,0.8"/>
<line x1="108.716" y1="26.984" x2="115.062" y2="15.992" stroke="#8c8c8c" stroke-width="0.3" stroke-dasharray="1.2,0.8"/>
<line x1="127.755" y1="15.992" x2="134.101" y2="26.984" stroke="#8c8c8c" stroke-width="0.3" stroke-dasharray="1.2,0.8"/>
<line x1="115.062" y1="15.992" x2="121.409" y2="26.984" stroke="#8c8c8c" stroke-width="0.3" stroke-dasharray="1.2,0.8"/>
<line x1="102.37" y1="37.976" x2="115.062" y2="37.976" stroke="#8c8c8c" stroke-width="0.3" stroke-dasharray="1.2,0.8"/>
<line x1="134.101" y1="48.968" x2="140.448" y2="59.961" stroke="#8c8c8c" stroke-width="0.3" stroke-dasharray="1.2,0.8"/>
<line x1="134.101" y1="70.953" x2="140.448" y2="59.961" stroke="#8c8c8c" stroke-width="0.3" stroke-dasharray="1.2,0.8"/>
<line x1="134.101" y1="26.984" x2="140.448" y2="15.992" stroke="#8c8c8c" stroke-width="0.3" stroke-dasharray="1.2,0.8"/>
<line x1="121.409" y1="70.953" x2="127.755" y2="59.961" stroke="#8c8c8c" stroke-width="0.3" stroke-dasharray="1.2,0.8"/>
<line x1="127.755" y1="37.976" x2="140.448" y2="37.976" stroke="#8c8c8c" stroke-width="0.3" stroke-dasharray="1.2,0.8"/>
<line x1="121.409" y1="70.953" x2="134.101" y2="70.953" stroke="#8c8c8c" stroke-width="0.3" stroke-dasharray="1.2,0.8"/>
<line x1="115.062" y1="15.992" x2="102.37" y2="15.992" stroke="#8c8c8c" stroke-width="0.3" stroke-dasharray="1.2,0.8"/>
<line x1="102.37" y1="37.976" x2="108.716" y2="26.984" stroke="#8c8c8c" stroke-width="0.3" stroke-dasharray="1.2,0.8"/>
<line x1="121.409" y1="48.968" x2="115.062" y2="59.961" stroke="#8c8c8c" stroke-width="0.3" stroke-dasharray="1.2,0.8"/>
<line x1="121.409" y1="26.984" x2="127.755" y2="15.992" stroke="#141414" stroke-width="0.4"/>
<line x1="108.716" y1="48.968" x2="115.062" y2="37.976" stroke="#141414" stroke-width="0.4"/>
<line x1="146.794" y1="26.984" x2="140.447" y2="37.976" stroke="#141414" stroke-width="0.4"/>
<line x1="134.101" y1="5.0" x2="140.447" y2="15.992" stroke="#141414" stroke-width="0.4"/>
<line x1="134.101" y1="26.984" x2="146.794" y2="26.984" stroke="#141414" stroke-width="0.4"/>
<line x1="127.755" y1="59.961" x2="115.062" y2="59.961" stroke="#141414" stroke-width="0.4"/>
<line x1="127.755" y1="37.976" x2="134.101" y2="48.968" stroke="#141414" stroke-width="0.4"/>
<line x1="96.023" y1="26.984" x2="102.37" y2="15.992" stroke="#141414" stroke-width="0.4"/>
<line x1="127.755" y1="15.992" x2="134.101" y2="5.0" stroke="#141414" stroke-width="0.4"/>
<line x1="108.716" y1="26.984" x2="96.023" y2="26.984" stroke="#141414" stroke-width="0.4"/>
<line x1="121.409" y1="48.968" x2="108.716" y2="48.968" stroke="#141414" stroke-width="0.4"/>
<line x1="121.409" y1="26.984" x2="125.001" y2="20.514" stroke="#141414" stroke-width="0.4"/>
<line x1="125.001" y1="20.514" x2="122.462" y2="16.117" stroke="#141414" stroke-width="0.4"/>
<line x1="122.462" y1="16.117" x2="115.062" y2="15.992" stroke="#141414" stroke-width="0.4"/>
<line x1="115.062" y1="37.976" x2="111.254" y2="44.323" stroke="#141414" stroke-width="0.4"/>
<line x1="111.254" y1="44.323" x2="106.177" y2="44.323" stroke="#141414" stroke-width="0.4"/>
<line x1="106.177" y1="44.323" x2="102.37" y2="37.976" stroke="#141414" stroke-width="0.4"/>
<line x1="140.448" y1="59.961" x2="144.992" y2="55.139" stroke="#141414" stroke-width="0.4"/>
<line x1="144.992" y1="55.139" x2="140.549" y2="47.444" stroke="#141414" stroke-width="0.4"/>
<line x1="140.549" y1="47.444" x2="134.101" y2="48.968" stroke="#141414" stroke-width="0.4"/>
<line x1="140.448" y1="59.961" x2="144.992" y2="64.783" stroke="#141414" stroke-width="0.4"/>
<line x1="144.992" y1="64.783" x2="140.549" y2="72.477" stroke="#141414" stroke-width="0.4"/>
<line x1="140.549" y1="72.477" x2="134.101" y2="70.953" stroke="#141414" stroke-width="0.4"/>
<line x1="140.448" y1="15.992" x2="144.04" y2="22.463" stroke="#141414" stroke-width="0.4"/>
<line x1="144.04" y1="22.463" x2="141.501" y2="26.86" stroke="#141414" stroke-width="0.4"/>
<line x1="141.501" y1="26.86" x2="134.101" y2="26.984" stroke="#141414" stroke-width="0.4"/>
<line x1="127.755" y1="59.961" x2="120.355" y2="60.085" stroke="#141414" stroke-width="0.4"/>
<line x1="120.355" y1="60.085" x2="117.816" y2="64.482" stroke="#141414" stroke-width="0.4"/>
<line x1="117.816" y1="64.482" x2="121.409" y2="70.953" stroke="#141414" stroke-width="0.4"/>
<line x1="140.448" y1="37.976" x2="136.64" y2="44.323" stroke="#141414" stroke-width="0.4"/>
<line x1="136.64" y1="44.323" x2="131.563" y2="44.323" stroke="#141414" stroke-width="0.4"/>
<line x1="131.563" y1="44.323" x2="127.755" y2="37.976" stroke="#141414" stroke-width="0.4"/>
<line x1="134.101" y1="70.953" x2="132.197" y2="77.299" stroke="#141414" stroke-width="0.4"/>
<line x1="132.197" y1="77.299" x2="123.312" y2="77.299" stroke="#141414" stroke-width="0.4"/>
<line x1="123.312" y1="77.299" x2="121.409" y2="70.953" stroke="#141414" stroke-width="0.4"/>
<line x1="102.37" y1="15.992" x2="104.274" y2="9.646" stroke="#141414" stroke-width="0.4"/>
<line x1="104.274" y1="9.646" x2="113.158" y2="9.646" stroke="#141414" stroke-width="0.4"/>
<line x1="113.158" y1="9.646" x2="115.062" y2="15.992" stroke="#141414" stroke-width="0.4"/>
<line x1="108.716" y1="26.984" x2="101.316" y2="27.109" stroke="#141414" stroke-width="0.4"/>
<line x1="101.316" y1="27.109" x2="98.778" y2="31.506" stroke="#141414" stroke-width="0.4"/>
<line x1="98.778" y1="31.506" x2="102.37" y2="37.976" stroke="#141414" stroke-width="0.4"/>
<line x1="115.062" y1="59.961" x2="111.47" y2="53.49" stroke="#141414" stroke-width="0.4"/>
<line x1="111.47" y1="53.49" x2="114.009" y2="49.093" stroke="#141414" stroke-width="0.4"/>
<line x1="114.009" y1="49.093" x2="121.409" y2="48.968" stroke="#141414" stroke-width="0.4"/>
<circle cx="120.983" cy="19.902" r="0.93" fill="#ffe082" stroke="#464646" stroke-width="0.2"/>
<text x="120.983" y="20.22" font-size="0.91" text-anchor="middle" fill="#141414">62</text>
<circle cx="108.716" cy="41.15" r="0.93" fill="#ffe082" stroke="#464646" stroke-width="0.2"/>
<text x="108.716" y="41.47" font-size="0.91" text-anchor="middle" fill="#141414">63</text>
<circle cx="140.022" cy="52.878" r="0.93" fill="#ffe082" stroke="#464646" stroke-width="0.2"/>
<text x="140.022" y="53.20" font-size="0.91" text-anchor="middle" fill="#141414">64</text>
<circle cx="140.022" cy="67.043" r="0.93" fill="#ffe082" stroke="#464646" stroke-width="0.2"/>
<text x="140.022" y="67.36" font-size="0.91" text-anchor="middle" fill="#141414">65</text>
<circle cx="140.022" cy="23.075" r="0.93" fill="#ffe082" stroke="#464646" stroke-width="0.2"/>
<text x="140.022" y="23.39" font-size="0.91" text-anchor="middle" fill="#141414">66</text>
<circle cx="121.834" cy="63.87" r="0.93" fill="#ffe082" stroke="#464646" stroke-width="0.2"/>
<text x="121.834" y="64.19" font-size="0.91" text-anchor="middle" fill="#141414">67</text>
<circle cx="134.101" cy="41.15" r="0.93" fill="#ffe082" stroke="#464646" stroke-width="0.2"/>
<text x="134.101" y="41.47" font-size="0.91" text-anchor="middle" fill="#141414">68</text>
<circle cx="127.755" cy="74.126" r="0.93" fill="#99d9fa" stroke="#464646" stroke-width="0.2"/>
<text x="127.755" y="74.45" font-size="0.91" text-anchor="middle" fill="#141414">69</text>
<circle cx="108.716" cy="12.819" r="0.93" fill="#ffe082" stroke="#464646" stroke-width="0.2"/>
<text x="108.716" y="13.14" font-size="0.91" text-anchor="middle" fill="#141414">70</text>
<circle cx="102.795" cy="30.894" r="0.93" fill="#ffe082" stroke="#464646" stroke-width="0.2"/>
<text x="102.795" y="31.21" font-size="0.91" text-anchor="middle" fill="#141414">71</text>
<circle cx="115.487" cy="52.878" r="0.93" fill="#ffe082" stroke="#464646" stroke-width="0.2"/>
<text x="115.487" y="53.20" font-size="0.91" text-anchor="middle" fill="#141414">72</text>
<circle cx="102.37" cy="23.32" r="2.93" fill="#eaf1fe" stroke="#2e78e6" stroke-width="0.3"/>
<text x="102.37" y="24.47" font-size="3.31" text-anchor="middle" fill="#14306e" font-weight="bold">6</text>
<polygon points="168.928,51.115 167.04,57.408 158.228,57.408 156.34,51.115" fill="rgb(216,216,216)"/>
<polygon points="168.928,34.351 167.04,28.057 158.228,28.057 156.34,34.351" fill="rgb(216,216,216)"/>
<polygon points="180.45,51.115 187.45,48.6 187.45,36.866 180.45,34.351" fill="rgb(216,216,216)"/>
<polygon points="180.45,51.115 186.743,53.003 186.743,61.814 180.45,63.702" fill="rgb(216,216,216)"/>
<polygon points="180.45,34.351 186.743,32.463 186.743,23.652 180.45,21.764" fill="rgb(216,216,216)"/>
<polygon points="156.34,51.115 149.34,48.6 149.34,36.866 156.34,34.351" fill="rgb(216,216,216)"/>
<polygon points="168.928,63.702 170.656,69.463 178.721,69.463 180.45,63.702" fill="rgb(216,216,216)"/>
<polygon points="168.928,51.115 167.04,57.408 158.228,57.408 156.34,51.115" fill="#99d9fa"/>
<line x1="168.928" y1="51.115" x2="168.928" y2="34.351" stroke="#8c8c8c" stroke-width="0.3" stroke-dasharray="1.2,0.8"/>
<line x1="180.45" y1="51.115" x2="168.928" y2="51.115" stroke="#8c8c8c" stroke-width="0.3" stroke-dasharray="1.2,0.8"/>
<line x1="168.928" y1="34.351" x2="180.45" y2="34.351" stroke="#8c8c8c" stroke-width="0.3" stroke-dasharray="1.2,0.8"/>
<line x1="168.928" y1="21.764" x2="180.45" y2="21.764" stroke="#8c8c8c" stroke-width="0.3" stroke-dasharray="1.2,0.8"/>
<line x1="180.45" y1="21.764" x2="180.45" y2="5.0" stroke="#8c8c8c" stroke-width="0.3" stroke-dasharray="1.2,0.8"/>
<line x1="156.34" y1="51.115" x2="168.928" y2="51.115" stroke="#8c8c8c" stroke-width="0.3" stroke-dasharray="1.2,0.8"/>
<line x1="156.34" y1="34.351" x2="168.928" y2="34.351" stroke="#8c8c8c" stroke-width="0.3" stroke-dasharray="1.2,0.8"/>
<line x1="180.45" y1="34.351" x2="180.45" y2="51.115" stroke="#8c8c8c" stroke-width="0.3" stroke-dasharray="1.2,0.8"/>
<line x1="180.45" y1="63.702" x2="180.45" y2="51.115" stroke="#8c8c8c" stroke-width="0.3" stroke-dasharray="1.2,0.8"/>
<line x1="180.45" y1="21.764" x2="180.45" y2="34.351" stroke="#8c8c8c" stroke-width="0.3" stroke-dasharray="1.2,0.8"/>
<line x1="156.34" y1="34.351" x2="156.34" y2="51.115" stroke="#8c8c8c" stroke-width="0.3" stroke-dasharray="1.2,0.8"/>
<line x1="180.45" y1="63.702" x2="168.928" y2="63.702" stroke="#8c8c8c" stroke-width="0.3" stroke-dasharray="1.2,0.8"/>
<line x1="168.928" y1="63.702" x2="168.928" y2="51.115" stroke="#141414" stroke-width="0.4"/>
<line x1="168.928" y1="34.351" x2="168.928" y2="21.764" stroke="#141414" stroke-width="0.4"/>
<line x1="193.037" y1="5.0" x2="193.037" y2="21.764" stroke="#141414" stroke-width="0.4"/>
<line x1="180.45" y1="5.0" x2="193.037" y2="5.0" stroke="#141414" stroke-width="0.4"/>
<line x1="193.037" y1="21.764" x2="180.45" y2="21.764" stroke="#141414" stroke-width="0.4"/>
<line x1="168.928" y1="21.764" x2="168.928" y2="5.0" stroke="#141414" stroke-width="0.4"/>
<line x1="168.928" y1="5.0" x2="180.45" y2="5.0" stroke="#141414" stroke-width="0.4"/>
<line x1="168.928" y1="51.115" x2="167.04" y2="57.408" stroke="#141414" stroke-width="0.4"/>
<line x1="167.04" y1="57.408" x2="158.228" y2="57.408" stroke="#141414" stroke-width="0.4"/>
<line x1="158.228" y1="57.408" x2="156.34" y2="51.115" stroke="#141414" stroke-width="0.4"/>
<line x1="168.928" y1="34.351" x2="167.04" y2="28.057" stroke="#141414" stroke-width="0.4"/>
<line x1="167.04" y1="28.057" x2="158.228" y2="28.057" stroke="#141414" stroke-width="0.4"/>
<line x1="158.228" y1="28.057" x2="156.34" y2="34.351" stroke="#141414" stroke-width="0.4"/>
<line x1="180.45" y1="51.115" x2="187.45" y2="48.6" stroke="#141414" stroke-width="0.4"/>
<line x1="187.45" y1="48.6" x2="187.45" y2="36.866" stroke="#141414" stroke-width="0.4"/>
<line x1="187.45" y1="36.866" x2="180.45" y2="34.351" stroke="#141414" stroke-width="0.4"/>
<line x1="180.45" y1="51.115" x2="186.743" y2="53.003" stroke="#141414" stroke-width="0.4"/>
<line x1="186.743" y1="53.003" x2="186.743" y2="61.814" stroke="#141414" stroke-width="0.4"/>
<line x1="186.743" y1="61.814" x2="180.45" y2="63.702" stroke="#141414" stroke-width="0.4"/>
<line x1="180.45" y1="34.351" x2="186.743" y2="32.463" stroke="#141414" stroke-width="0.4"/>
<line x1="186.743" y1="32.463" x2="186.743" y2="23.652" stroke="#141414" stroke-width="0.4"/>
<line x1="186.743" y1="23.652" x2="180.45" y2="21.764" stroke="#141414" stroke-width="0.4"/>
<line x1="156.34" y1="51.115" x2="149.34" y2="48.6" stroke="#141414" stroke-width="0.4"/>
<line x1="149.34" y1="48.6" x2="149.34" y2="36.866" stroke="#141414" stroke-width="0.4"/>
<line x1="149.34" y1="36.866" x2="156.34" y2="34.351" stroke="#141414" stroke-width="0.4"/>
<line x1="168.928" y1="63.702" x2="170.656" y2="69.463" stroke="#141414" stroke-width="0.4"/>
<line x1="170.656" y1="69.463" x2="178.721" y2="69.463" stroke="#141414" stroke-width="0.4"/>
<line x1="178.721" y1="69.463" x2="180.45" y2="63.702" stroke="#141414" stroke-width="0.4"/>
<circle cx="162.634" cy="54.262" r="0.93" fill="#99d9fa" stroke="#464646" stroke-width="0.2"/>
<text x="162.634" y="54.58" font-size="0.91" text-anchor="middle" fill="#141414">80</text>
<circle cx="162.634" cy="31.204" r="0.93" fill="#ffe082" stroke="#464646" stroke-width="0.2"/>
<text x="162.634" y="31.52" font-size="0.91" text-anchor="middle" fill="#141414">81</text>
<circle cx="183.95" cy="42.733" r="0.93" fill="#ffe082" stroke="#464646" stroke-width="0.2"/>
<text x="183.95" y="43.05" font-size="0.91" text-anchor="middle" fill="#141414">82</text>
<circle cx="183.597" cy="57.408" r="0.93" fill="#ffe082" stroke="#464646" stroke-width="0.2"/>
<text x="183.597" y="57.73" font-size="0.91" text-anchor="middle" fill="#141414">83</text>
<circle cx="183.597" cy="28.057" r="0.93" fill="#ffe082" stroke="#464646" stroke-width="0.2"/>
<text x="183.597" y="28.38" font-size="0.91" text-anchor="middle" fill="#141414">84</text>
<circle cx="152.84" cy="42.733" r="0.93" fill="#ffe082" stroke="#464646" stroke-width="0.2"/>
<text x="152.84" y="43.05" font-size="0.91" text-anchor="middle" fill="#141414">85</text>
<circle cx="174.689" cy="66.582" r="0.93" fill="#ffe082" stroke="#464646" stroke-width="0.2"/>
<text x="174.689" y="66.90" font-size="0.91" text-anchor="middle" fill="#141414">86</text>
<circle cx="188.841" cy="16.176" r="2.68" fill="#eaf1fe" stroke="#2e78e6" stroke-width="0.3"/>
<text x="188.841" y="17.23" font-size="3.03" text-anchor="middle" fill="#14306e" font-weight="bold">8</text>
<polygon points="45.949,128.94 42.635,122.355 50.267,114.722 56.852,118.037" fill="rgb(216,216,216)"/>
<polygon points="19.826,153.505 16.745,160.324 25.468,169.047 32.287,165.966" fill="rgb(216,216,216)"/>
<polygon points="19.826,153.505 12.831,156.161 4.66,146.92 8.154,140.303" fill="rgb(216,216,216)"/>
<polygon points="56.852,139.843 63.437,143.158 71.07,135.525 67.755,128.94" fill="rgb(216,216,216)"/>
<polygon points="32.287,165.966 29.631,172.961 38.872,181.132 45.489,177.638" fill="rgb(216,216,216)"/>
<polygon points="67.755,128.94 71.069,122.355 63.437,114.722 56.852,118.037" fill="rgb(216,216,216)"/>
<polygon points="80.561,159.541 83.034,168.016 68.209,188.271 59.383,188.478" fill="rgb(216,216,216)"/>
<polygon points="45.949,128.94 42.635,122.355 50.267,114.722 56.852,118.037" fill="#99d9fa"/>
<line x1="19.826" y1="153.505" x2="45.949" y2="128.94" stroke="#8c8c8c" stroke-width="0.3" stroke-dasharray="1.2,0.8"/>
<line x1="56.852" y1="139.843" x2="45.949" y2="128.94" stroke="#8c8c8c" stroke-width="0.3" stroke-dasharray="1.2,0.8"/>
<line x1="56.852" y1="139.843" x2="32.287" y2="165.966" stroke="#8c8c8c" stroke-width="0.3" stroke-dasharray="1.2,0.8"/>
<line x1="68.404" y1="150.056" x2="45.489" y2="177.638" stroke="#8c8c8c" stroke-width="0.3" stroke-dasharray="1.2,0.8"/>
<line x1="59.383" y1="188.478" x2="45.489" y2="177.638" stroke="#8c8c8c" stroke-width="0.3" stroke-dasharray="1.2,0.8"/>
<line x1="56.852" y1="118.037" x2="45.949" y2="128.94" stroke="#8c8c8c" stroke-width="0.3" stroke-dasharray="1.2,0.8"/>
<line x1="32.287" y1="165.966" x2="19.826" y2="153.505" stroke="#8c8c8c" stroke-width="0.3" stroke-dasharray="1.2,0.8"/>
<line x1="8.154" y1="140.303" x2="19.826" y2="153.505" stroke="#8c8c8c" stroke-width="0.3" stroke-dasharray="1.2,0.8"/>
<line x1="67.755" y1="128.94" x2="56.852" y2="139.843" stroke="#8c8c8c" stroke-width="0.3" stroke-dasharray="1.2,0.8"/>
<line x1="45.489" y1="177.638" x2="32.287" y2="165.966" stroke="#8c8c8c" stroke-width="0.3" stroke-dasharray="1.2,0.8"/>
<line x1="56.852" y1="118.037" x2="67.755" y2="128.94" stroke="#8c8c8c" stroke-width="0.3" stroke-dasharray="1.2,0.8"/>
<line x1="59.383" y1="188.478" x2="80.561" y2="159.541" stroke="#8c8c8c" stroke-width="0.3" stroke-dasharray="1.2,0.8"/>
<line x1="35.736" y1="117.388" x2="45.949" y2="128.94" stroke="#141414" stroke-width="0.4"/>
<line x1="48.544" y1="202.372" x2="34.65" y2="191.532" stroke="#141414" stroke-width="0.4"/>
<line x1="59.383" y1="188.478" x2="48.544" y2="202.372" stroke="#141414" stroke-width="0.4"/>
<line x1="56.852" y1="139.843" x2="68.404" y2="150.056" stroke="#141414" stroke-width="0.4"/>
<line x1="34.65" y1="191.532" x2="45.489" y2="177.638" stroke="#141414" stroke-width="0.4"/>
<line x1="68.404" y1="150.056" x2="80.561" y2="159.541" stroke="#141414" stroke-width="0.4"/>
<line x1="8.154" y1="140.303" x2="35.736" y2="117.388" stroke="#141414" stroke-width="0.4"/>
<line x1="45.949" y1="128.94" x2="42.635" y2="122.355" stroke="#141414" stroke-width="0.4"/>
<line x1="42.635" y1="122.355" x2="50.267" y2="114.722" stroke="#141414" stroke-width="0.4"/>
<line x1="50.267" y1="114.722" x2="56.852" y2="118.037" stroke="#141414" stroke-width="0.4"/>
<line x1="19.826" y1="153.505" x2="16.745" y2="160.324" stroke="#141414" stroke-width="0.4"/>
<line x1="16.745" y1="160.324" x2="25.468" y2="169.047" stroke="#141414" stroke-width="0.4"/>
<line x1="25.468" y1="169.047" x2="32.287" y2="165.966" stroke="#141414" stroke-width="0.4"/>
<line x1="19.826" y1="153.505" x2="12.831" y2="156.161" stroke="#141414" stroke-width="0.4"/>
<line x1="12.831" y1="156.161" x2="4.66" y2="146.92" stroke="#141414" stroke-width="0.4"/>
<line x1="4.66" y1="146.92" x2="8.154" y2="140.303" stroke="#141414" stroke-width="0.4"/>
<line x1="56.852" y1="139.843" x2="63.437" y2="143.158" stroke="#141414" stroke-width="0.4"/>
<line x1="63.437" y1="143.158" x2="71.07" y2="135.525" stroke="#141414" stroke-width="0.4"/>
<line x1="71.07" y1="135.525" x2="67.755" y2="128.94" stroke="#141414" stroke-width="0.4"/>
<line x1="32.287" y1="165.966" x2="29.631" y2="172.961" stroke="#141414" stroke-width="0.4"/>
<line x1="29.631" y1="172.961" x2="38.872" y2="181.132" stroke="#141414" stroke-width="0.4"/>
<line x1="38.872" y1="181.132" x2="45.489" y2="177.638" stroke="#141414" stroke-width="0.4"/>
<line x1="67.755" y1="128.94" x2="71.069" y2="122.355" stroke="#141414" stroke-width="0.4"/>
<line x1="71.069" y1="122.355" x2="63.437" y2="114.722" stroke="#141414" stroke-width="0.4"/>
<line x1="63.437" y1="114.722" x2="56.852" y2="118.037" stroke="#141414" stroke-width="0.4"/>
<line x1="80.561" y1="159.541" x2="83.034" y2="168.016" stroke="#141414" stroke-width="0.4"/>
<line x1="83.034" y1="168.016" x2="68.209" y2="188.271" stroke="#141414" stroke-width="0.4"/>
<line x1="68.209" y1="188.271" x2="59.383" y2="188.478" stroke="#141414" stroke-width="0.4"/>
<circle cx="48.926" cy="121.014" r="0.93" fill="#99d9fa" stroke="#464646" stroke-width="0.2"/>
<text x="48.926" y="121.33" font-size="0.91" text-anchor="middle" fill="#141414">87</text>
<circle cx="23.582" cy="162.21" r="0.93" fill="#ffe082" stroke="#464646" stroke-width="0.2"/>
<text x="23.582" y="162.53" font-size="0.91" text-anchor="middle" fill="#141414">88</text>
<circle cx="11.368" cy="149.222" r="0.93" fill="#ffe082" stroke="#464646" stroke-width="0.2"/>
<text x="11.368" y="149.54" font-size="0.91" text-anchor="middle" fill="#141414">89</text>
<circle cx="64.778" cy="136.867" r="0.93" fill="#ffe082" stroke="#464646" stroke-width="0.2"/>
<text x="64.778" y="137.19" font-size="0.91" text-anchor="middle" fill="#141414">90</text>
<circle cx="36.57" cy="174.424" r="0.93" fill="#ffe082" stroke="#464646" stroke-width="0.2"/>
<text x="36.57" y="174.74" font-size="0.91" text-anchor="middle" fill="#141414">91</text>
<circle cx="64.778" cy="121.014" r="0.93" fill="#ffe082" stroke="#464646" stroke-width="0.2"/>
<text x="64.778" y="121.33" font-size="0.91" text-anchor="middle" fill="#141414">92</text>
<circle cx="72.797" cy="176.076" r="0.93" fill="#ffe082" stroke="#464646" stroke-width="0.2"/>
<text x="72.797" y="176.40" font-size="0.91" text-anchor="middle" fill="#141414">93</text>
<circle cx="61.811" cy="175.219" r="4.27" fill="#eaf1fe" stroke="#2e78e6" stroke-width="0.3"/>
<text x="61.811" y="176.89" font-size="4.82" text-anchor="middle" fill="#14306e" font-weight="bold">9</text>
<polygon points="127.322,128.94 124.008,122.355 131.64,114.722 138.225,118.037" fill="rgb(216,216,216)"/>
<polygon points="101.199,153.505 98.118,160.324 106.841,169.047 113.66,165.966" fill="rgb(216,216,216)"/>
<polygon points="101.199,153.505 94.204,156.161 86.033,146.92 89.527,140.303" fill="rgb(216,216,216)"/>
<polygon points="138.225,139.843 144.81,143.158 152.443,135.525 149.128,128.94" fill="rgb(216,216,216)"/>
<polygon points="113.66,165.966 111.004,172.961 120.245,181.132 126.862,177.638" fill="rgb(216,216,216)"/>
<polygon points="149.128,128.94 152.442,122.355 144.81,114.722 138.225,118.037" fill="rgb(216,216,216)"/>
<polygon points="161.934,159.541 164.407,168.016 149.582,188.271 140.756,188.478" fill="rgb(216,216,216)"/>
<polygon points="127.322,128.94 124.008,122.355 131.64,114.722 138.225,118.037" fill="#99d9fa"/>
<line x1="101.199" y1="153.505" x2="127.322" y2="128.94" stroke="#8c8c8c" stroke-width="0.3" stroke-dasharray="1.2,0.8"/>
<line x1="138.225" y1="139.843" x2="127.322" y2="128.94" stroke="#8c8c8c" stroke-width="0.3" stroke-dasharray="1.2,0.8"/>
<line x1="138.225" y1="139.843" x2="113.66" y2="165.966" stroke="#8c8c8c" stroke-width="0.3" stroke-dasharray="1.2,0.8"/>
<line x1="149.777" y1="150.056" x2="126.862" y2="177.638" stroke="#8c8c8c" stroke-width="0.3" stroke-dasharray="1.2,0.8"/>
<line x1="140.756" y1="188.478" x2="126.862" y2="177.638" stroke="#8c8c8c" stroke-width="0.3" stroke-dasharray="1.2,0.8"/>
<line x1="138.225" y1="118.037" x2="127.322" y2="128.94" stroke="#8c8c8c" stroke-width="0.3" stroke-dasharray="1.2,0.8"/>
<line x1="113.66" y1="165.966" x2="101.199" y2="153.505" stroke="#8c8c8c" stroke-width="0.3" stroke-dasharray="1.2,0.8"/>
<line x1="89.527" y1="140.303" x2="101.199" y2="153.505" stroke="#8c8c8c" stroke-width="0.3" stroke-dasharray="1.2,0.8"/>
<line x1="149.128" y1="128.94" x2="138.225" y2="139.843" stroke="#8c8c8c" stroke-width="0.3" stroke-dasharray="1.2,0.8"/>
<line x1="126.862" y1="177.638" x2="113.66" y2="165.966" stroke="#8c8c8c" stroke-width="0.3" stroke-dasharray="1.2,0.8"/>
<line x1="138.225" y1="118.037" x2="149.128" y2="128.94" stroke="#8c8c8c" stroke-width="0.3" stroke-dasharray="1.2,0.8"/>
<line x1="140.756" y1="188.478" x2="161.934" y2="159.541" stroke="#8c8c8c" stroke-width="0.3" stroke-dasharray="1.2,0.8"/>
<line x1="117.109" y1="117.388" x2="127.322" y2="128.94" stroke="#141414" stroke-width="0.4"/>
<line x1="129.917" y1="202.372" x2="116.023" y2="191.532" stroke="#141414" stroke-width="0.4"/>
<line x1="140.756" y1="188.478" x2="129.917" y2="202.372" stroke="#141414" stroke-width="0.4"/>
<line x1="138.225" y1="139.843" x2="149.777" y2="150.056" stroke="#141414" stroke-width="0.4"/>
<line x1="116.023" y1="191.532" x2="126.862" y2="177.638" stroke="#141414" stroke-width="0.4"/>
<line x1="149.777" y1="150.056" x2="161.935" y2="159.541" stroke="#141414" stroke-width="0.4"/>
<line x1="89.527" y1="140.303" x2="117.109" y2="117.388" stroke="#141414" stroke-width="0.4"/>
<line x1="127.322" y1="128.94" x2="124.008" y2="122.355" stroke="#141414" stroke-width="0.4"/>
<line x1="124.008" y1="122.355" x2="131.64" y2="114.722" stroke="#141414" stroke-width="0.4"/>
<line x1="131.64" y1="114.722" x2="138.225" y2="118.037" stroke="#141414" stroke-width="0.4"/>
<line x1="101.199" y1="153.505" x2="98.118" y2="160.324" stroke="#141414" stroke-width="0.4"/>
<line x1="98.118" y1="160.324" x2="106.841" y2="169.047" stroke="#141414" stroke-width="0.4"/>
<line x1="106.841" y1="169.047" x2="113.66" y2="165.966" stroke="#141414" stroke-width="0.4"/>
<line x1="101.199" y1="153.505" x2="94.204" y2="156.161" stroke="#141414" stroke-width="0.4"/>
<line x1="94.204" y1="156.161" x2="86.033" y2="146.92" stroke="#141414" stroke-width="0.4"/>
<line x1="86.033" y1="146.92" x2="89.527" y2="140.303" stroke="#141414" stroke-width="0.4"/>
<line x1="138.225" y1="139.843" x2="144.81" y2="143.158" stroke="#141414" stroke-width="0.4"/>
<line x1="144.81" y1="143.158" x2="152.443" y2="135.525" stroke="#141414" stroke-width="0.4"/>
<line x1="152.443" y1="135.525" x2="149.128" y2="128.94" stroke="#141414" stroke-width="0.4"/>
<line x1="113.66" y1="165.966" x2="111.004" y2="172.961" stroke="#141414" stroke-width="0.4"/>
<line x1="111.004" y1="172.961" x2="120.245" y2="181.132" stroke="#141414" stroke-width="0.4"/>
<line x1="120.245" y1="181.132" x2="126.862" y2="177.638" stroke="#141414" stroke-width="0.4"/>
<line x1="149.128" y1="128.94" x2="152.442" y2="122.355" stroke="#141414" stroke-width="0.4"/>
<line x1="152.442" y1="122.355" x2="144.81" y2="114.722" stroke="#141414" stroke-width="0.4"/>
<line x1="144.81" y1="114.722" x2="138.225" y2="118.037" stroke="#141414" stroke-width="0.4"/>
<line x1="161.934" y1="159.541" x2="164.407" y2="168.016" stroke="#141414" stroke-width="0.4"/>
<line x1="164.407" y1="168.016" x2="149.582" y2="188.271" stroke="#141414" stroke-width="0.4"/>
<line x1="149.582" y1="188.271" x2="140.756" y2="188.478" stroke="#141414" stroke-width="0.4"/>
<circle cx="130.299" cy="121.014" r="0.93" fill="#99d9fa" stroke="#464646" stroke-width="0.2"/>
<text x="130.299" y="121.33" font-size="0.91" text-anchor="middle" fill="#141414">94</text>
<circle cx="104.955" cy="162.21" r="0.93" fill="#ffe082" stroke="#464646" stroke-width="0.2"/>
<text x="104.955" y="162.53" font-size="0.91" text-anchor="middle" fill="#141414">95</text>
<circle cx="92.741" cy="149.222" r="0.93" fill="#ffe082" stroke="#464646" stroke-width="0.2"/>
<text x="92.741" y="149.54" font-size="0.91" text-anchor="middle" fill="#141414">96</text>
<circle cx="146.152" cy="136.867" r="0.93" fill="#ffe082" stroke="#464646" stroke-width="0.2"/>
<text x="146.152" y="137.19" font-size="0.91" text-anchor="middle" fill="#141414">97</text>
<circle cx="117.943" cy="174.424" r="0.93" fill="#ffe082" stroke="#464646" stroke-width="0.2"/>
<text x="117.943" y="174.74" font-size="0.91" text-anchor="middle" fill="#141414">98</text>
<circle cx="146.152" cy="121.014" r="0.93" fill="#ffe082" stroke="#464646" stroke-width="0.2"/>
<text x="146.152" y="121.33" font-size="0.91" text-anchor="middle" fill="#141414">99</text>
<circle cx="154.17" cy="176.076" r="0.93" fill="#ffe082" stroke="#464646" stroke-width="0.2"/>
<text x="154.17" y="176.40" font-size="0.91" text-anchor="middle" fill="#141414">100</text>
<circle cx="143.184" cy="175.219" r="4.27" fill="#eaf1fe" stroke="#2e78e6" stroke-width="0.3"/>
<text x="143.184" y="176.89" font-size="4.82" text-anchor="middle" fill="#14306e" font-weight="bold">10</text>
<text x="205.0" y="295.0" font-size="3.2" text-anchor="end" fill="#737373" font-family="sans-serif">2 / 3</text>
</svg>
