<svg xmlns="http://www.w3.org/2000/svg" xmlns:xlink="http://www.w3.org/1999/xlink" width="210.00mm" height="297.00mm" viewBox="0 0 210.00 297.00">
<rect x="0" y="0" width="210.00" height="297.00" fill="#ffffff" stroke="#cccccc" stroke-width="0.2"/>
<polygon points="6.598,102.573 6.046,95.095 22.143,75.694 29.595,74.858" fill="rgb(216,216,216)"/>
<polygon points="64.473,160.118 72.153,157.685 87.464,133.392 86.345,125.414" fill="rgb(216,216,216)"/>
<polygon points="127.877,18.4 130.593,24.853 121.299,44.655 114.6,46.689" fill="rgb(216,216,216)"/>
<polygon points="127.877,18.4 120.874,12.041 84.44,6.342 75.83,10.259" fill="rgb(216,216,216)"/>
<polygon points="29.595,74.858 29.268,67.248 46.167,47.53 53.737,46.689" fill="rgb(216,216,216)"/>
<polygon points="86.345,125.414 92.925,124.932 103.462,109.188 101.398,102.922" fill="rgb(216,216,216)"/>
<polygon points="53.737,46.689 52.604,38.528 68.069,13.027 75.83,10.259" fill="rgb(216,216,216)"/>
<polygon points="114.6,46.689 120.637,52.048 124.799,80.564 120.545,87.425" fill="rgb(216,216,216)"/>
<polygon points="101.398,102.922 107.541,104.639 120.944,93.791 120.545,87.425" fill="rgb(216,216,216)"/>
<line x1="6.598" y1="102.573" x2="86.345" y2="125.414" stroke="#8c8c8c" stroke-width="0.3" stroke-dasharray="1.2,0.8"/>
<line x1="29.595" y1="74.858" x2="86.345" y2="125.414" stroke="#8c8c8c" stroke-width="0.3" stroke-dasharray="1.2,0.8"/>
<line x1="29.595" y1="74.858" x2="101.398" y2="102.922" stroke="#8c8c8c" stroke-width="0.3" stroke-dasharray="1.2,0.8"/>
<line x1="53.737" y1="46.689" x2="114.6" y2="46.689" stroke="#8c8c8c" stroke-width="0.3" stroke-dasharray="1.2,0.8"/>
<line x1="53.737" y1="46.689" x2="101.398" y2="102.922" stroke="#8c8c8c" stroke-width="0.3" stroke-dasharray="1.2,0.8"/>
<line x1="120.545" y1="87.425" x2="53.737" y2="46.689" stroke="#8c8c8c" stroke-width="0.3" stroke-dasharray="1.2,0.8"/>
<line x1="114.6" y1="46.689" x2="75.829" y2="10.259" stroke="#8c8c8c" stroke-width="0.3" stroke-dasharray="1.2,0.8"/>
<line x1="29.595" y1="74.858" x2="6.598" y2="102.573" stroke="#8c8c8c" stroke-width="0.3" stroke-dasharray="1.2,0.8"/>
<line x1="86.345" y1="125.414" x2="64.473" y2="160.118" stroke="#8c8c8c" stroke-width="0.3" stroke-dasharray="1.2,0.8"/>
<line x1="114.6" y1="46.689" x2="127.877" y2="18.4" stroke="#8c8c8c" stroke-width="0.3" stroke-dasharray="1.2,0.8"/>
<line x1="75.83" y1="10.259" x2="127.877" y2="18.4" stroke="#8c8c8c" stroke-width="0.3" stroke-dasharray="1.2,0.8"/>
<line x1="53.737" y1="46.689" x2="29.595" y2="74.858" stroke="#8c8c8c" stroke-width="0.3" stroke-dasharray="1.2,0.8"/>
<line x1="101.398" y1="102.922" x2="86.345" y2="125.414" stroke="#8c8c8c" stroke-width="0.3" stroke-dasharray="1.2,0.8"/>
<line x1="75.83" y1="10.259" x2="53.737" y2="46.689" stroke="#8c8c8c" stroke-width="0.3" stroke-dasharray="1.2,0.8"/>
<line x1="120.545" y1="87.425" x2="114.6" y2="46.689" stroke="#8c8c8c" stroke-width="0.3" stroke-dasharray="1.2,0.8"/>
<line x1="120.545" y1="87.425" x2="101.398" y2="102.922" stroke="#8c8c8c" stroke-width="0.3" stroke-dasharray="1.2,0.8"/>
<line x1="64.473" y1="160.118" x2="6.598" y2="102.573" stroke="#141414" stroke-width="0.4"/>
<line x1="6.598" y1="102.573" x2="6.046" y2="95.095" stroke="#141414" stroke-width="0.4"/>
<line x1="6.046" y1="95.095" x2="22.143" y2="75.694" stroke="#141414" stroke-width="0.4"/>
<line x1="22.143" y1="75.694" x2="29.595" y2="74.858" stroke="#141414" stroke-width="0.4"/>
<line x1="64.473" y1="160.118" x2="72.153" y2="157.685" stroke="#141414" stroke-width="0.4"/>
<line x1="72.153" y1="157.685" x2="87.464" y2="133.392" stroke="#141414" stroke-width="0.4"/>
<line x1="87.464" y1="133.392" x2="86.345" y2="125.414" stroke="#141414" stroke-width="0.4"/>
<line x1="127.877" y1="18.4" x2="130.593" y2="24.853" stroke="#141414" stroke-width="0.4"/>
<line x1="130.593" y1="24.853" x2="121.299" y2="44.655" stroke="#141414" stroke-width="0.4"/>
<line x1="121.299" y1="44.655" x2="114.6" y2="46.689" stroke="#141414" stroke-width="0.4"/>
<line x1="127.877" y1="18.4" x2="120.874" y2="12.041" stroke="#141414" stroke-width="0.4"/>
<line x1="120.874" y1="12.041" x2="84.44" y2="6.342" stroke="#141414" stroke-width="0.4"/>
<line x1="84.44" y1="6.342" x2="75.83" y2="10.259" stroke="#141414" stroke-width="0.4"/>
<line x1="29.595" y1="74.858" x2="29.268" y2="67.248" stroke="#141414" stroke-width="0.4"/>
<line x1="29.268" y1="67.248" x2="46.167" y2="47.53" stroke="#141414" stroke-width="0.4"/>
<line x1="46.167" y1="47.53" x2="53.737" y2="46.689" stroke="#141414" stroke-width="0.4"/>
<line x1="86.345" y1="125.414" x2="92.925" y2="124.932" stroke="#141414" stroke-width="0.4"/>
<line x1="92.925" y1="124.932" x2="103.462" y2="109.188" stroke="#141414" stroke-width="0.4"/>
<line x1="103.462" y1="109.188" x2="101.398" y2="102.922" stroke="#141414" stroke-width="0.4"/>
<line x1="53.737" y1="46.689" x2="52.604" y2="38.528" stroke="#141414" stroke-width="0.4"/>
<line x1="52.604" y1="38.528" x2="68.069" y2="13.027" stroke="#141414" stroke-width="0.4"/>
<line x1="68.069" y1="13.027" x2="75.83" y2="10.259" stroke="#141414" stroke-width="0.4"/>
<line x1="114.6" y1="46.689" x2="120.637" y2="52.048" stroke="#141414" stroke-width="0.4"/>
<line x1="120.637" y1="52.048" x2="124.799" y2="80.564" stroke="#141414" stroke-width="0.4"/>
<line x1="124.799" y1="80.564" x2="120.545" y2="87.425" stroke="#141414" stroke-width="0.4"/>
<line x1="101.398" y1="102.922" x2="107.541" y2="104.639" stroke="#141414" stroke-width="0.4"/>
<line x1="107.541" y1="104.639" x2="120.944" y2="93.791" stroke="#141414" stroke-width="0.4"/>
<line x1="120.944" y1="93.791" x2="120.545" y2="87.425" stroke="#141414" stroke-width="0.4"/>
<circle cx="16.095" cy="87.055" r="2.04" fill="#ffe082" stroke="#464646" stroke-width="0.2"/>
<text x="16.095" y="87.75" font-size="2.00" text-anchor="middle" fill="#141414">11</text>
<circle cx="77.609" cy="144.152" r="2.04" fill="#ffe082" stroke="#464646" stroke-width="0.2"/>
<text x="77.609" y="144.85" font-size="2.00" text-anchor="middle" fill="#141414">15</text>
<circle cx="123.592" cy="33.649" r="2.04" fill="#ffe082" stroke="#464646" stroke-width="0.2"/>
<text x="123.592" y="34.35" font-size="2.00" text-anchor="middle" fill="#141414">19</text>
<circle cx="102.255" cy="11.761" r="2.04" fill="#ffe082" stroke="#464646" stroke-width="0.2"/>
<text x="102.255" y="12.46" font-size="2.00" text-anchor="middle" fill="#141414">20</text>
<circle cx="39.692" cy="59.081" r="2.04" fill="#ffe082" stroke="#464646" stroke-width="0.2"/>
<text x="39.692" y="59.78" font-size="2.00" text-anchor="middle" fill="#141414">28</text>
<circle cx="96.032" cy="115.614" r="2.04" fill="#ffe082" stroke="#464646" stroke-width="0.2"/>
<text x="96.032" y="116.31" font-size="2.00" text-anchor="middle" fill="#141414">30</text>
<circle cx="62.56" cy="27.126" r="2.04" fill="#ffe082" stroke="#464646" stroke-width="0.2"/>
<text x="62.56" y="27.83" font-size="2.00" text-anchor="middle" fill="#141414">32</text>
<circle cx="120.145" cy="66.681" r="2.04" fill="#ffe082" stroke="#464646" stroke-width="0.2"/>
<text x="120.145" y="67.38" font-size="2.00" text-anchor="middle" fill="#141414">33</text>
<circle cx="112.607" cy="97.194" r="2.04" fill="#ffe082" stroke="#464646" stroke-width="0.2"/>
<text x="112.607" y="97.89" font-size="2.00" text-anchor="middle" fill="#141414">36</text>
<circle cx="52.472" cy="129.368" r="4.60" fill="#eaf1fe" stroke="#2e78e6" stroke-width="0.3"/>
<text x="52.472" y="131.17" font-size="5.20" text-anchor="middle" fill="#14306e" font-weight="bold">1</text>
<text x="205.0" y="295.0" font-size="3.2" text-anchor="end" fill="#737373" font-family="sans-serif">1 / 15</text>
</svg>
