<svg xmlns="http://www.w3.org/2000/svg" xmlns:xlink="http://www.w3.org/1999/xlink" width="210.00mm" height="297.00mm" viewBox="0 0 210.00 297.00">
<rect x="0" y="0" width="210.00" height="297.00" fill="#ffffff" stroke="#cccccc" stroke-width="0.2"/>
<polygon points="69.109,158.882 73.633,150.889 70.57,115.69 64.733,108.598" fill="rgb(216,216,216)"/>
<polygon points="5.818,113.438 6.089,104.382 26.799,76.63 35.404,73.793" fill="rgb(216,216,216)"/>
<polygon points="77.506,5.0 69.968,7.253 55.375,30.622 56.658,38.384" fill="rgb(216,216,216)"/>
<polygon points="35.404,73.793 34.134,65.806 49.012,41.019 56.658,38.384" fill="rgb(216,216,216)"/>
<polygon points="156.697,63.581 154.006,70.491 131.5,80.604 124.546,78.028" fill="rgb(216,216,216)"/>
<polygon points="64.733,108.598 70.841,110.348 84.09,99.64 83.661,93.301" fill="rgb(216,216,216)"/>
<polygon points="124.546,78.028 120.233,85.191 91.613,95.882 83.661,93.301" fill="rgb(216,216,216)"/>
<line x1="5.818" y1="113.439" x2="64.733" y2="108.598" stroke="#8c8c8c" stroke-width="0.3" stroke-dasharray="1.2,0.8"/>
<line x1="56.658" y1="38.384" x2="141.981" y2="38.384" stroke="#8c8c8c" stroke-width="0.3" stroke-dasharray="1.2,0.8"/>
<line x1="141.981" y1="38.384" x2="124.546" y2="78.028" stroke="#8c8c8c" stroke-width="0.3" stroke-dasharray="1.2,0.8"/>
<line x1="35.404" y1="73.793" x2="64.733" y2="108.598" stroke="#8c8c8c" stroke-width="0.3" stroke-dasharray="1.2,0.8"/>
<line x1="35.404" y1="73.793" x2="83.661" y2="93.301" stroke="#8c8c8c" stroke-width="0.3" stroke-dasharray="1.2,0.8"/>
<line x1="124.546" y1="78.028" x2="56.658" y2="38.384" stroke="#8c8c8c" stroke-width="0.3" stroke-dasharray="1.2,0.8"/>
<line x1="56.658" y1="38.384" x2="83.661" y2="93.301" stroke="#8c8c8c" stroke-width="0.3" stroke-dasharray="1.2,0.8"/>
<line x1="64.733" y1="108.598" x2="69.109" y2="158.882" stroke="#8c8c8c" stroke-width="0.3" stroke-dasharray="1.2,0.8"/>
<line x1="35.404" y1="73.793" x2="5.818" y2="113.438" stroke="#8c8c8c" stroke-width="0.3" stroke-dasharray="1.2,0.8"/>
<line x1="56.658" y1="38.384" x2="77.506" y2="5.0" stroke="#8c8c8c" stroke-width="0.3" stroke-dasharray="1.2,0.8"/>
<line x1="56.658" y1="38.384" x2="35.404" y2="73.793" stroke="#8c8c8c" stroke-width="0.3" stroke-dasharray="1.2,0.8"/>
<line x1="124.546" y1="78.028" x2="156.697" y2="63.581" stroke="#8c8c8c" stroke-width="0.3" stroke-dasharray="1.2,0.8"/>
<line x1="83.661" y1="93.301" x2="64.733" y2="108.598" stroke="#8c8c8c" stroke-width="0.3" stroke-dasharray="1.2,0.8"/>
<line x1="83.661" y1="93.301" x2="124.546" y2="78.028" stroke="#8c8c8c" stroke-width="0.3" stroke-dasharray="1.2,0.8"/>
<line x1="69.109" y1="158.882" x2="5.818" y2="113.439" stroke="#141414" stroke-width="0.4"/>
<line x1="77.506" y1="5.0" x2="141.981" y2="38.384" stroke="#141414" stroke-width="0.4"/>
<line x1="141.981" y1="38.384" x2="156.697" y2="63.581" stroke="#141414" stroke-width="0.4"/>
<line x1="69.109" y1="158.882" x2="73.633" y2="150.889" stroke="#141414" stroke-width="0.4"/>
<line x1="73.633" y1="150.889" x2="70.57" y2="115.69" stroke="#141414" stroke-width="0.4"/>
<line x1="70.57" y1="115.69" x2="64.733" y2="108.598" stroke="#141414" stroke-width="0.4"/>
<line x1="5.818" y1="113.438" x2="6.089" y2="104.382" stroke="#141414" stroke-width="0.4"/>
<line x1="6.089" y1="104.382" x2="26.799" y2="76.63" stroke="#141414" stroke-width="0.4"/>
<line x1="26.799" y1="76.63" x2="35.404" y2="73.793" stroke="#141414" stroke-width="0.4"/>
<line x1="77.506" y1="5.0" x2="69.968" y2="7.253" stroke="#141414" stroke-width="0.4"/>
<line x1="69.968" y1="7.253" x2="55.375" y2="30.622" stroke="#141414" stroke-width="0.4"/>
<line x1="55.375" y1="30.622" x2="56.658" y2="38.384" stroke="#141414" stroke-width="0.4"/>
<line x1="35.404" y1="73.793" x2="34.134" y2="65.806" stroke="#141414" stroke-width="0.4"/>
<line x1="34.134" y1="65.806" x2="49.012" y2="41.019" stroke="#141414" stroke-width="0.4"/>
<line x1="49.012" y1="41.019" x2="56.658" y2="38.384" stroke="#141414" stroke-width="0.4"/>
<line x1="156.697" y1="63.581" x2="154.006" y2="70.491" stroke="#141414" stroke-width="0.4"/>
<line x1="154.006" y1="70.491" x2="131.5" y2="80.604" stroke="#141414" stroke-width="0.4"/>
<line x1="131.5" y1="80.604" x2="124.546" y2="78.028" stroke="#141414" stroke-width="0.4"/>
<line x1="64.733" y1="108.598" x2="70.841" y2="110.348" stroke="#141414" stroke-width="0.4"/>
<line x1="70.841" y1="110.348" x2="84.09" y2="99.64" stroke="#141414" stroke-width="0.4"/>
<line x1="84.09" y1="99.64" x2="83.661" y2="93.301" stroke="#141414" stroke-width="0.4"/>
<line x1="124.546" y1="78.028" x2="120.233" y2="85.191" stroke="#141414" stroke-width="0.4"/>
<line x1="120.233" y1="85.191" x2="91.613" y2="95.882" stroke="#141414" stroke-width="0.4"/>
<line x1="91.613" y1="95.882" x2="83.661" y2="93.301" stroke="#141414" stroke-width="0.4"/>
<circle cx="69.511" cy="133.515" r="2.04" fill="#ffe082" stroke="#464646" stroke-width="0.2"/>
<text x="69.511" y="134.21" font-size="2.00" text-anchor="middle" fill="#141414">8</text>
<circle cx="18.528" cy="92.061" r="2.04" fill="#ffe082" stroke="#464646" stroke-width="0.2"/>
<text x="18.528" y="92.76" font-size="2.00" text-anchor="middle" fill="#141414">16</text>
<circle cx="64.877" cy="20.315" r="2.04" fill="#ffe082" stroke="#464646" stroke-width="0.2"/>
<text x="64.877" y="21.01" font-size="2.00" text-anchor="middle" fill="#141414">22</text>
<circle cx="43.802" cy="54.751" r="2.04" fill="#ffe082" stroke="#464646" stroke-width="0.2"/>
<text x="43.802" y="55.45" font-size="2.00" text-anchor="middle" fill="#141414">26</text>
<circle cx="141.687" cy="73.176" r="2.04" fill="#ffe082" stroke="#464646" stroke-width="0.2"/>
<text x="141.687" y="73.88" font-size="2.00" text-anchor="middle" fill="#141414">29</text>
<circle cx="75.831" cy="102.972" r="2.04" fill="#ffe082" stroke="#464646" stroke-width="0.2"/>
<text x="75.831" y="103.67" font-size="2.00" text-anchor="middle" fill="#141414">31</text>
<circle cx="105.013" cy="88.1" r="2.04" fill="#ffe082" stroke="#464646" stroke-width="0.2"/>
<text x="105.013" y="88.80" font-size="2.00" text-anchor="middle" fill="#141414">37</text>
<circle cx="107.728" cy="51.599" r="4.60" fill="#eaf1fe" stroke="#2e78e6" stroke-width="0.3"/>
<text x="107.728" y="53.40" font-size="5.20" text-anchor="middle" fill="#14306e" font-weight="bold">7</text>
<text x="205.0" y="295.0" font-size="3.2" text-anchor="end" fill="#737373" font-family="sans-serif">4 / 15</text>
</svg>
