<svg xmlns="http://www.w3.org/2000/svg" xmlns:xlink="http://www.w3.org/1999/xlink" width="210.00mm" height="297.00mm" viewBox="0 0 210.00 297.00">
<rect x="0" y="0" width="210.00" height="297.00" fill="#ffffff" stroke="#cccccc" stroke-width="0.2"/>
<polygon points="35.413,32.612 30.537,38.408 36.764,50.389 44.31,49.728" fill="rgb(216,216,216)"/>
<polygon points="44.31,49.728 35.84,55.902 35.065,58.89 39.47,68.401" fill="rgb(216,216,216)"/>
<polygon points="171.051,134.339 165.667,145.725 123.751,170.84 111.172,170.217" fill="rgb(216,216,216)"/>
<polygon points="18.401,74.643 31.11,80.686 87.914,76.317 99.549,68.401" fill="rgb(216,216,216)"/>
<polygon points="18.401,74.643 10.228,65.009 4.532,16.259 10.264,5.0" fill="rgb(216,216,216)"/>
<polygon points="90.653,51.285 98.442,58.764 98.941,59.723 99.549,68.401" fill="rgb(216,216,216)"/>
<polygon points="81.863,85.398 75.005,92.457 75.664,124.736 82.804,131.51" fill="rgb(216,216,216)"/>
<polygon points="82.804,131.51 81.413,141.454 101.271,168.549 111.172,170.217" fill="rgb(216,216,216)"/>
<polygon points="146.44,132.556 142.818,137.201 129.464,135.202 127.362,129.699" fill="rgb(216,216,216)"/>
<polygon points="127.362,129.699 122.971,137.747 120.396,139.449 111.272,140.34" fill="rgb(216,216,216)"/>
<polygon points="171.051,134.339 165.667,145.725 123.751,170.84 111.172,170.217" fill="#99d9fa"/>
<line x1="90.653" y1="51.285" x2="44.31" y2="49.728" stroke="#8c8c8c" stroke-width="0.3" stroke-dasharray="1.2,0.8"/>
<line x1="99.549" y1="68.401" x2="39.47" y2="68.401" stroke="#8c8c8c" stroke-width="0.3" stroke-dasharray="1.2,0.8"/>
<line x1="127.362" y1="129.699" x2="124.055" y2="83.448" stroke="#8c8c8c" stroke-width="0.3" stroke-dasharray="1.2,0.8"/>
<line x1="111.272" y1="140.34" x2="104.977" y2="80.591" stroke="#8c8c8c" stroke-width="0.3" stroke-dasharray="1.2,0.8"/>
<line x1="111.272" y1="140.34" x2="82.803" y2="131.51" stroke="#8c8c8c" stroke-width="0.3" stroke-dasharray="1.2,0.8"/>
<line x1="95.493" y1="32.612" x2="44.31" y2="49.728" stroke="#8c8c8c" stroke-width="0.3" stroke-dasharray="1.2,0.8"/>
<line x1="90.653" y1="51.285" x2="39.47" y2="68.401" stroke="#8c8c8c" stroke-width="0.3" stroke-dasharray="1.2,0.8"/>
<line x1="95.493" y1="32.612" x2="90.653" y2="51.285" stroke="#8c8c8c" stroke-width="0.3" stroke-dasharray="1.2,0.8"/>
<line x1="140.145" y1="72.807" x2="90.653" y2="51.285" stroke="#8c8c8c" stroke-width="0.3" stroke-dasharray="1.2,0.8"/>
<line x1="140.145" y1="72.807" x2="124.055" y2="83.448" stroke="#8c8c8c" stroke-width="0.3" stroke-dasharray="1.2,0.8"/>
<line x1="146.44" y1="132.556" x2="124.055" y2="83.448" stroke="#8c8c8c" stroke-width="0.3" stroke-dasharray="1.2,0.8"/>
<line x1="127.362" y1="129.699" x2="104.977" y2="80.591" stroke="#8c8c8c" stroke-width="0.3" stroke-dasharray="1.2,0.8"/>
<line x1="44.31" y1="49.728" x2="35.413" y2="32.612" stroke="#8c8c8c" stroke-width="0.3" stroke-dasharray="1.2,0.8"/>
<line x1="39.47" y1="68.401" x2="44.31" y2="49.728" stroke="#8c8c8c" stroke-width="0.3" stroke-dasharray="1.2,0.8"/>
<line x1="111.172" y1="170.217" x2="171.051" y2="134.339" stroke="#8c8c8c" stroke-width="0.3" stroke-dasharray="1.2,0.8"/>
<line x1="99.549" y1="68.401" x2="18.401" y2="74.643" stroke="#8c8c8c" stroke-width="0.3" stroke-dasharray="1.2,0.8"/>
<line x1="10.264" y1="5.0" x2="18.401" y2="74.643" stroke="#8c8c8c" stroke-width="0.3" stroke-dasharray="1.2,0.8"/>
<line x1="99.549" y1="68.401" x2="90.653" y2="51.285" stroke="#8c8c8c" stroke-width="0.3" stroke-dasharray="1.2,0.8"/>
<line x1="82.804" y1="131.51" x2="81.863" y2="85.398" stroke="#8c8c8c" stroke-width="0.3" stroke-dasharray="1.2,0.8"/>
<line x1="111.172" y1="170.217" x2="82.804" y2="131.51" stroke="#8c8c8c" stroke-width="0.3" stroke-dasharray="1.2,0.8"/>
<line x1="127.362" y1="129.699" x2="146.44" y2="132.556" stroke="#8c8c8c" stroke-width="0.3" stroke-dasharray="1.2,0.8"/>
<line x1="111.272" y1="140.34" x2="127.362" y2="129.699" stroke="#8c8c8c" stroke-width="0.3" stroke-dasharray="1.2,0.8"/>
<line x1="35.413" y1="32.612" x2="95.493" y2="32.612" stroke="#141414" stroke-width="0.4"/>
<line x1="10.264" y1="5.0" x2="39.47" y2="68.401" stroke="#141414" stroke-width="0.4"/>
<line x1="111.272" y1="140.34" x2="171.051" y2="134.339" stroke="#141414" stroke-width="0.4"/>
<line x1="95.493" y1="32.612" x2="140.145" y2="72.807" stroke="#141414" stroke-width="0.4"/>
<line x1="124.055" y1="83.448" x2="90.653" y2="51.285" stroke="#141414" stroke-width="0.4"/>
<line x1="140.145" y1="72.807" x2="146.44" y2="132.556" stroke="#141414" stroke-width="0.4"/>
<line x1="104.977" y1="80.591" x2="124.055" y2="83.448" stroke="#141414" stroke-width="0.4"/>
<line x1="81.863" y1="85.397" x2="104.977" y2="80.591" stroke="#141414" stroke-width="0.4"/>
<line x1="35.413" y1="32.612" x2="30.537" y2="38.408" stroke="#141414" stroke-width="0.4"/>
<line x1="30.537" y1="38.408" x2="36.764" y2="50.389" stroke="#141414" stroke-width="0.4"/>
<line x1="36.764" y1="50.389" x2="44.31" y2="49.728" stroke="#141414" stroke-width="0.4"/>
<line x1="44.31" y1="49.728" x2="35.84" y2="55.902" stroke="#141414" stroke-width="0.4"/>
<line x1="35.84" y1="55.902" x2="35.065" y2="58.89" stroke="#141414" stroke-width="0.4"/>
<line x1="35.065" y1="58.89" x2="39.47" y2="68.401" stroke="#141414" stroke-width="0.4"/>
<line x1="171.051" y1="134.339" x2="165.667" y2="145.725" stroke="#141414" stroke-width="0.4"/>
<line x1="165.667" y1="145.725" x2="123.751" y2="170.84" stroke="#141414" stroke-width="0.4"/>
<line x1="123.751" y1="170.84" x2="111.172" y2="170.217" stroke="#141414" stroke-width="0.4"/>
<line x1="18.401" y1="74.643" x2="31.11" y2="80.686" stroke="#141414" stroke-width="0.4"/>
<line x1="31.11" y1="80.686" x2="87.914" y2="76.317" stroke="#141414" stroke-width="0.4"/>
<line x1="87.914" y1="76.317" x2="99.549" y2="68.401" stroke="#141414" stroke-width="0.4"/>
<line x1="18.401" y1="74.643" x2="10.228" y2="65.009" stroke="#141414" stroke-width="0.4"/>
<line x1="10.228" y1="65.009" x2="4.532" y2="16.259" stroke="#141414" stroke-width="0.4"/>
<line x1="4.532" y1="16.259" x2="10.264" y2="5.0" stroke="#141414" stroke-width="0.4"/>
<line x1="90.653" y1="51.285" x2="98.442" y2="58.764" stroke="#141414" stroke-width="0.4"/>
<line x1="98.442" y1="58.764" x2="98.941" y2="59.723" stroke="#141414" stroke-width="0.4"/>
<line x1="98.941" y1="59.723" x2="99.549" y2="68.401" stroke="#141414" stroke-width="0.4"/>
<line x1="81.863" y1="85.398" x2="75.005" y2="92.457" stroke="#141414" stroke-width="0.4"/>
<line x1="75.005" y1="92.457" x2="75.664" y2="124.736" stroke="#141414" stroke-width="0.4"/>
<line x1="75.664" y1="124.736" x2="82.804" y2="131.51" stroke="#141414" stroke-width="0.4"/>
<line x1="82.804" y1="131.51" x2="81.413" y2="141.454" stroke="#141414" stroke-width="0.4"/>
<line x1="81.413" y1="141.454" x2="101.271" y2="168.549" stroke="#141414" stroke-width="0.4"/>
<line x1="101.271" y1="168.549" x2="111.172" y2="170.217" stroke="#141414" stroke-width="0.4"/>
<line x1="146.44" y1="132.556" x2="142.818" y2="137.201" stroke="#141414" stroke-width="0.4"/>
<line x1="142.818" y1="137.201" x2="129.464" y2="135.202" stroke="#141414" stroke-width="0.4"/>
<line x1="129.464" y1="135.202" x2="127.362" y2="129.699" stroke="#141414" stroke-width="0.4"/>
<line x1="127.362" y1="129.699" x2="122.971" y2="137.747" stroke="#141414" stroke-width="0.4"/>
<line x1="122.971" y1="137.747" x2="120.396" y2="139.449" stroke="#141414" stroke-width="0.4"/>
<line x1="120.396" y1="139.449" x2="111.272" y2="140.34" stroke="#141414" stroke-width="0.4"/>
<circle cx="36.756" cy="42.784" r="1.40" fill="#ffe082" stroke="#464646" stroke-width="0.2"/>
<text x="36.756" y="43.45" font-size="1.89" text-anchor="middle" fill="#141414">21</text>
<circle cx="38.671" cy="58.231" r="1.40" fill="#ffe082" stroke="#464646" stroke-width="0.2"/>
<text x="38.671" y="58.89" font-size="1.89" text-anchor="middle" fill="#141414">22</text>
<circle cx="142.91" cy="155.28" r="1.40" fill="#99d9fa" stroke="#464646" stroke-width="0.2"/>
<text x="142.91" y="155.94" font-size="1.89" text-anchor="middle" fill="#141414">23</text>
<circle cx="59.244" cy="75.012" r="1.40" fill="#ffe082" stroke="#464646" stroke-width="0.2"/>
<text x="59.244" y="75.67" font-size="1.89" text-anchor="middle" fill="#141414">24</text>
<circle cx="10.856" cy="40.228" r="1.40" fill="#ffe082" stroke="#464646" stroke-width="0.2"/>
<text x="10.856" y="40.89" font-size="1.89" text-anchor="middle" fill="#141414">25</text>
<circle cx="96.896" cy="59.543" r="1.40" fill="#ffe082" stroke="#464646" stroke-width="0.2"/>
<text x="96.896" y="60.21" font-size="1.89" text-anchor="middle" fill="#141414">26</text>
<circle cx="78.834" cy="108.525" r="1.40" fill="#ffe082" stroke="#464646" stroke-width="0.2"/>
<text x="78.834" y="109.19" font-size="1.89" text-anchor="middle" fill="#141414">27</text>
<circle cx="94.165" cy="152.932" r="1.40" fill="#ffe082" stroke="#464646" stroke-width="0.2"/>
<text x="94.165" y="153.59" font-size="1.89" text-anchor="middle" fill="#141414">28</text>
<circle cx="136.521" cy="133.665" r="1.40" fill="#ffe082" stroke="#464646" stroke-width="0.2"/>
<text x="136.521" y="134.33" font-size="1.89" text-anchor="middle" fill="#141414">29</text>
<circle cx="120.5" cy="136.809" r="1.40" fill="#ffe082" stroke="#464646" stroke-width="0.2"/>
<text x="120.5" y="137.47" font-size="1.89" text-anchor="middle" fill="#141414">30</text>
<circle cx="99.371" cy="102.11" r="4.60" fill="#eaf1fe" stroke="#2e78e6" stroke-width="0.3"/>
<text x="99.371" y="103.91" font-size="5.20" text-anchor="middle" fill="#14306e" font-weight="bold">3</text>
<text x="205.0" y="295.0" font-size="3.2" text-anchor="end" fill="#737373" font-family="sans-serif">3 / 3</text>
<g pointer-events="none"><text x="105.0" y="83.2" text-anchor="middle" font-family="sans-serif" font-size="12.4" fill="#9aa0a6" fill-opacity="0.3" transform="rotate(-28 105.0 83.2)">papercraft.kr</text><text x="105.0" y="148.5" text-anchor="middle" font-family="sans-serif" font-size="12.4" fill="#9aa0a6" fill-opacity="0.3" transform="rotate(-28 105.0 148.5)">papercraft.kr</text><text x="105.0" y="213.8" text-anchor="middle" font-family="sans-serif" font-size="12.4" fill="#9aa0a6" fill-opacity="0.3" transform="rotate(-28 105.0 213.8)">papercraft.kr</text></g></svg>
