<svg xmlns="http://www.w3.org/2000/svg" xmlns:xlink="http://www.w3.org/1999/xlink" width="210.00mm" height="297.00mm" viewBox="0 0 210.00 297.00">
<rect x="0" y="0" width="210.00" height="297.00" fill="#ffffff" stroke="#cccccc" stroke-width="0.2"/>
<polygon points="81.967,49.319 87.434,54.923 82.08,70.392 74.317,71.417" fill="rgb(216,216,216)"/>
<polygon points="21.488,28.384 13.726,29.409 8.372,44.877 13.839,50.482" fill="rgb(216,216,216)"/>
<polygon points="89.213,28.384 94.818,22.917 110.286,28.271 111.311,36.033" fill="rgb(216,216,216)"/>
<polygon points="74.317,71.417 79.845,76.847 74.773,91.501 67.071,92.351" fill="rgb(216,216,216)"/>
<polygon points="13.839,50.482 17.496,62.264 54.758,91.573 67.071,92.351" fill="rgb(216,216,216)"/>
<polygon points="81.967,49.319 87.434,54.923 82.08,70.392 74.317,71.417" fill="#99d9fa"/>
<line x1="81.967" y1="49.319" x2="21.488" y2="28.384" stroke="#8c8c8c" stroke-width="0.3" stroke-dasharray="1.2,0.8"/>
<line x1="89.213" y1="28.384" x2="81.967" y2="49.319" stroke="#8c8c8c" stroke-width="0.3" stroke-dasharray="1.2,0.8"/>
<line x1="21.488" y1="28.384" x2="89.213" y2="28.384" stroke="#8c8c8c" stroke-width="0.3" stroke-dasharray="1.2,0.8"/>
<line x1="13.839" y1="50.482" x2="74.317" y2="71.417" stroke="#8c8c8c" stroke-width="0.3" stroke-dasharray="1.2,0.8"/>
<line x1="74.317" y1="71.417" x2="81.967" y2="49.319" stroke="#8c8c8c" stroke-width="0.3" stroke-dasharray="1.2,0.8"/>
<line x1="13.839" y1="50.482" x2="21.488" y2="28.384" stroke="#8c8c8c" stroke-width="0.3" stroke-dasharray="1.2,0.8"/>
<line x1="111.311" y1="36.033" x2="89.213" y2="28.384" stroke="#8c8c8c" stroke-width="0.3" stroke-dasharray="1.2,0.8"/>
<line x1="67.071" y1="92.351" x2="74.317" y2="71.417" stroke="#8c8c8c" stroke-width="0.3" stroke-dasharray="1.2,0.8"/>
<line x1="67.071" y1="92.351" x2="13.839" y2="50.482" stroke="#8c8c8c" stroke-width="0.3" stroke-dasharray="1.2,0.8"/>
<line x1="104.064" y1="56.968" x2="81.967" y2="49.319" stroke="#141414" stroke-width="0.4"/>
<line x1="21.488" y1="28.384" x2="21.488" y2="5.0" stroke="#141414" stroke-width="0.4"/>
<line x1="89.213" y1="5.0" x2="89.213" y2="28.384" stroke="#141414" stroke-width="0.4"/>
<line x1="111.311" y1="36.033" x2="104.064" y2="56.968" stroke="#141414" stroke-width="0.4"/>
<line x1="21.488" y1="5.0" x2="89.213" y2="5.0" stroke="#141414" stroke-width="0.4"/>
<line x1="81.967" y1="49.319" x2="87.434" y2="54.923" stroke="#141414" stroke-width="0.4"/>
<line x1="87.434" y1="54.923" x2="82.08" y2="70.392" stroke="#141414" stroke-width="0.4"/>
<line x1="82.08" y1="70.392" x2="74.317" y2="71.417" stroke="#141414" stroke-width="0.4"/>
<line x1="21.488" y1="28.384" x2="13.726" y2="29.409" stroke="#141414" stroke-width="0.4"/>
<line x1="13.726" y1="29.409" x2="8.372" y2="44.877" stroke="#141414" stroke-width="0.4"/>
<line x1="8.372" y1="44.877" x2="13.839" y2="50.482" stroke="#141414" stroke-width="0.4"/>
<line x1="89.213" y1="28.384" x2="94.818" y2="22.917" stroke="#141414" stroke-width="0.4"/>
<line x1="94.818" y1="22.917" x2="110.286" y2="28.271" stroke="#141414" stroke-width="0.4"/>
<line x1="110.286" y1="28.271" x2="111.311" y2="36.033" stroke="#141414" stroke-width="0.4"/>
<line x1="74.317" y1="71.417" x2="79.845" y2="76.847" stroke="#141414" stroke-width="0.4"/>
<line x1="79.845" y1="76.847" x2="74.773" y2="91.501" stroke="#141414" stroke-width="0.4"/>
<line x1="74.773" y1="91.501" x2="67.071" y2="92.351" stroke="#141414" stroke-width="0.4"/>
<line x1="13.839" y1="50.482" x2="17.496" y2="62.264" stroke="#141414" stroke-width="0.4"/>
<line x1="17.496" y1="62.264" x2="54.758" y2="91.573" stroke="#141414" stroke-width="0.4"/>
<line x1="54.758" y1="91.573" x2="67.071" y2="92.351" stroke="#141414" stroke-width="0.4"/>
<circle cx="81.449" cy="61.513" r="1.28" fill="#99d9fa" stroke="#464646" stroke-width="0.2"/>
<text x="81.449" y="61.95" font-size="1.25" text-anchor="middle" fill="#141414">69</text>
<circle cx="14.356" cy="38.288" r="1.28" fill="#ffe082" stroke="#464646" stroke-width="0.2"/>
<text x="14.356" y="38.73" font-size="1.25" text-anchor="middle" fill="#141414">70</text>
<circle cx="101.407" cy="28.901" r="1.28" fill="#ffe082" stroke="#464646" stroke-width="0.2"/>
<text x="101.407" y="29.34" font-size="1.25" text-anchor="middle" fill="#141414">71</text>
<circle cx="74.001" cy="83.029" r="1.28" fill="#ffe082" stroke="#464646" stroke-width="0.2"/>
<text x="74.001" y="83.47" font-size="1.25" text-anchor="middle" fill="#141414">72</text>
<circle cx="38.291" cy="74.168" r="1.28" fill="#ffe082" stroke="#464646" stroke-width="0.2"/>
<text x="38.291" y="74.61" font-size="1.25" text-anchor="middle" fill="#141414">73</text>
<circle cx="56.47" cy="98.451" r="4.6" fill="#eaf1fe" stroke="#2e78e6" stroke-width="0.3"/>
<text x="56.47" y="100.25099999999999" font-size="5.2" text-anchor="middle" fill="#14306e" font-weight="bold">5</text>
<polygon points="82.537,183.965 92.875,190.965 141.121,190.965 151.459,183.965" fill="rgb(216,216,216)"/>
<polygon points="82.537,174.119 92.875,167.119 141.121,167.119 151.459,174.119" fill="rgb(216,216,216)"/>
<polygon points="151.459,183.965 156.382,182.488 156.382,175.596 151.459,174.119" fill="rgb(216,216,216)"/>
<polygon points="82.537,252.887 81.245,257.195 75.214,257.195 73.922,252.887" fill="rgb(216,216,216)"/>
<polygon points="73.922,183.965 68.999,182.488 68.999,175.596 73.922,174.119" fill="rgb(216,216,216)"/>
<polygon points="73.922,183.965 66.922,194.303 66.922,242.549 73.922,252.887" fill="rgb(216,216,216)"/>
<polygon points="73.922,174.119 66.922,163.781 66.922,115.535 73.922,105.197" fill="rgb(216,216,216)"/>
<polygon points="82.537,183.965 92.875,190.965 141.121,190.965 151.459,183.965" fill="#99d9fa"/>
<line x1="82.537" y1="183.965" x2="82.537" y2="174.119" stroke="#8c8c8c" stroke-width="0.3" stroke-dasharray="1.2,0.8"/>
<line x1="82.537" y1="183.965" x2="73.922" y2="183.965" stroke="#8c8c8c" stroke-width="0.3" stroke-dasharray="1.2,0.8"/>
<line x1="73.922" y1="174.119" x2="82.537" y2="174.119" stroke="#8c8c8c" stroke-width="0.3" stroke-dasharray="1.2,0.8"/>
<line x1="73.922" y1="105.197" x2="82.537" y2="105.197" stroke="#8c8c8c" stroke-width="0.3" stroke-dasharray="1.2,0.8"/>
<line x1="73.922" y1="105.197" x2="73.922" y2="95.351" stroke="#8c8c8c" stroke-width="0.3" stroke-dasharray="1.2,0.8"/>
<line x1="151.459" y1="183.965" x2="82.537" y2="183.965" stroke="#8c8c8c" stroke-width="0.3" stroke-dasharray="1.2,0.8"/>
<line x1="151.459" y1="174.119" x2="82.537" y2="174.119" stroke="#8c8c8c" stroke-width="0.3" stroke-dasharray="1.2,0.8"/>
<line x1="151.459" y1="174.119" x2="151.459" y2="183.965" stroke="#8c8c8c" stroke-width="0.3" stroke-dasharray="1.2,0.8"/>
<line x1="73.922" y1="252.887" x2="82.537" y2="252.887" stroke="#8c8c8c" stroke-width="0.3" stroke-dasharray="1.2,0.8"/>
<line x1="73.922" y1="174.119" x2="73.922" y2="183.965" stroke="#8c8c8c" stroke-width="0.3" stroke-dasharray="1.2,0.8"/>
<line x1="73.922" y1="252.887" x2="73.922" y2="183.965" stroke="#8c8c8c" stroke-width="0.3" stroke-dasharray="1.2,0.8"/>
<line x1="73.922" y1="105.197" x2="73.922" y2="174.119" stroke="#8c8c8c" stroke-width="0.3" stroke-dasharray="1.2,0.8"/>
<line x1="82.537" y1="183.965" x2="82.537" y2="252.887" stroke="#141414" stroke-width="0.4"/>
<line x1="82.537" y1="105.197" x2="82.537" y2="174.119" stroke="#141414" stroke-width="0.4"/>
<line x1="82.537" y1="95.351" x2="82.537" y2="105.197" stroke="#141414" stroke-width="0.4"/>
<line x1="73.922" y1="95.351" x2="82.537" y2="95.351" stroke="#141414" stroke-width="0.4"/>
<line x1="5.0" y1="105.197" x2="5.0" y2="95.351" stroke="#141414" stroke-width="0.4"/>
<line x1="5.0" y1="95.351" x2="73.922" y2="95.351" stroke="#141414" stroke-width="0.4"/>
<line x1="73.922" y1="105.197" x2="5.0" y2="105.197" stroke="#141414" stroke-width="0.4"/>
<line x1="82.537" y1="183.965" x2="92.875" y2="190.965" stroke="#141414" stroke-width="0.4"/>
<line x1="92.875" y1="190.965" x2="141.121" y2="190.965" stroke="#141414" stroke-width="0.4"/>
<line x1="141.121" y1="190.965" x2="151.459" y2="183.965" stroke="#141414" stroke-width="0.4"/>
<line x1="82.537" y1="174.119" x2="92.875" y2="167.119" stroke="#141414" stroke-width="0.4"/>
<line x1="92.875" y1="167.119" x2="141.121" y2="167.119" stroke="#141414" stroke-width="0.4"/>
<line x1="141.121" y1="167.119" x2="151.459" y2="174.119" stroke="#141414" stroke-width="0.4"/>
<line x1="151.459" y1="183.965" x2="156.382" y2="182.488" stroke="#141414" stroke-width="0.4"/>
<line x1="156.382" y1="182.488" x2="156.382" y2="175.596" stroke="#141414" stroke-width="0.4"/>
<line x1="156.382" y1="175.596" x2="151.459" y2="174.119" stroke="#141414" stroke-width="0.4"/>
<line x1="82.537" y1="252.887" x2="81.245" y2="257.195" stroke="#141414" stroke-width="0.4"/>
<line x1="81.245" y1="257.195" x2="75.214" y2="257.195" stroke="#141414" stroke-width="0.4"/>
<line x1="75.214" y1="257.195" x2="73.922" y2="252.887" stroke="#141414" stroke-width="0.4"/>
<line x1="73.922" y1="183.965" x2="68.999" y2="182.488" stroke="#141414" stroke-width="0.4"/>
<line x1="68.999" y1="182.488" x2="68.999" y2="175.596" stroke="#141414" stroke-width="0.4"/>
<line x1="68.999" y1="175.596" x2="73.922" y2="174.119" stroke="#141414" stroke-width="0.4"/>
<line x1="73.922" y1="183.965" x2="66.922" y2="194.303" stroke="#141414" stroke-width="0.4"/>
<line x1="66.922" y1="194.303" x2="66.922" y2="242.549" stroke="#141414" stroke-width="0.4"/>
<line x1="66.922" y1="242.549" x2="73.922" y2="252.887" stroke="#141414" stroke-width="0.4"/>
<line x1="73.922" y1="174.119" x2="66.922" y2="163.781" stroke="#141414" stroke-width="0.4"/>
<line x1="66.922" y1="163.781" x2="66.922" y2="115.535" stroke="#141414" stroke-width="0.4"/>
<line x1="66.922" y1="115.535" x2="73.922" y2="105.197" stroke="#141414" stroke-width="0.4"/>
<circle cx="116.998" cy="187.465" r="1.28" fill="#99d9fa" stroke="#464646" stroke-width="0.2"/>
<text x="116.998" y="187.90" font-size="1.25" text-anchor="middle" fill="#141414">96</text>
<circle cx="116.998" cy="170.619" r="1.28" fill="#ffe082" stroke="#464646" stroke-width="0.2"/>
<text x="116.998" y="171.06" font-size="1.25" text-anchor="middle" fill="#141414">97</text>
<circle cx="153.92" cy="179.042" r="1.28" fill="#ffe082" stroke="#464646" stroke-width="0.2"/>
<text x="153.92" y="179.48" font-size="1.25" text-anchor="middle" fill="#141414">98</text>
<circle cx="78.23" cy="255.041" r="1.28" fill="#ffe082" stroke="#464646" stroke-width="0.2"/>
<text x="78.23" y="255.48" font-size="1.25" text-anchor="middle" fill="#141414">99</text>
<circle cx="71.46" cy="179.042" r="1.28" fill="#ffe082" stroke="#464646" stroke-width="0.2"/>
<text x="71.46" y="179.48" font-size="1.25" text-anchor="middle" fill="#141414">100</text>
<circle cx="70.422" cy="218.426" r="1.28" fill="#ffe082" stroke="#464646" stroke-width="0.2"/>
<text x="70.422" y="218.86" font-size="1.25" text-anchor="middle" fill="#141414">101</text>
<circle cx="70.422" cy="139.658" r="1.28" fill="#ffe082" stroke="#464646" stroke-width="0.2"/>
<text x="70.422" y="140.10" font-size="1.25" text-anchor="middle" fill="#141414">102</text>
<circle cx="80.691" cy="89.251" r="4.6" fill="#eaf1fe" stroke="#2e78e6" stroke-width="0.3"/>
<text x="80.691" y="91.051" font-size="5.2" text-anchor="middle" fill="#14306e" font-weight="bold">8</text>
<polygon points="185.83,17.397 184.69,12.813 185.37,11.877 190.082,11.545" fill="rgb(216,216,216)"/>
<polygon points="119.195,64.916 114.146,65.271 112.155,62.426 114.218,57.804" fill="rgb(216,216,216)"/>
<polygon points="190.082,23.25 194.089,25.751 195.19,25.393 196.962,21.014" fill="rgb(216,216,216)"/>
<polygon points="124.298,71.939 122.4,76.632 124.49,79.404 129.524,78.871" fill="rgb(216,216,216)"/>
<polygon points="196.962,21.014 200.579,19.929 200.579,14.865 196.962,13.78" fill="rgb(216,216,216)"/>
<polygon points="129.524,78.871 126.907,82.57 130.65,87.357 134.872,85.709" fill="rgb(216,216,216)"/>
<polygon points="196.962,13.78 197.048,10.005 192.232,8.44 190.082,11.545" fill="rgb(216,216,216)"/>
<polygon points="134.872,85.709 132.32,89.454 136.148,94.174 140.339,92.452" fill="rgb(216,216,216)"/>
<polygon points="203.45,40.344 198.44,53.558 154.262,90.033 140.339,92.452" fill="rgb(216,216,216)"/>
<polygon points="196.962,21.014 200.579,19.929 200.579,14.865 196.962,13.78" fill="#99d9fa"/>
<line x1="119.195" y1="64.916" x2="185.83" y2="17.397" stroke="#8c8c8c" stroke-width="0.3" stroke-dasharray="1.2,0.8"/>
<line x1="190.082" y1="23.25" x2="185.83" y2="17.397" stroke="#8c8c8c" stroke-width="0.3" stroke-dasharray="1.2,0.8"/>
<line x1="124.298" y1="71.939" x2="119.195" y2="64.916" stroke="#8c8c8c" stroke-width="0.3" stroke-dasharray="1.2,0.8"/>
<line x1="190.082" y1="23.25" x2="124.298" y2="71.939" stroke="#8c8c8c" stroke-width="0.3" stroke-dasharray="1.2,0.8"/>
<line x1="194.437" y1="29.026" x2="129.524" y2="78.871" stroke="#8c8c8c" stroke-width="0.3" stroke-dasharray="1.2,0.8"/>
<line x1="198.893" y1="34.725" x2="134.871" y2="85.709" stroke="#8c8c8c" stroke-width="0.3" stroke-dasharray="1.2,0.8"/>
<line x1="190.082" y1="11.545" x2="185.83" y2="17.397" stroke="#8c8c8c" stroke-width="0.3" stroke-dasharray="1.2,0.8"/>
<line x1="114.218" y1="57.804" x2="119.195" y2="64.916" stroke="#8c8c8c" stroke-width="0.3" stroke-dasharray="1.2,0.8"/>
<line x1="196.962" y1="21.014" x2="190.082" y2="23.25" stroke="#8c8c8c" stroke-width="0.3" stroke-dasharray="1.2,0.8"/>
<line x1="129.524" y1="78.871" x2="124.298" y2="71.939" stroke="#8c8c8c" stroke-width="0.3" stroke-dasharray="1.2,0.8"/>
<line x1="196.962" y1="13.78" x2="196.962" y2="21.014" stroke="#8c8c8c" stroke-width="0.3" stroke-dasharray="1.2,0.8"/>
<line x1="134.872" y1="85.709" x2="129.524" y2="78.871" stroke="#8c8c8c" stroke-width="0.3" stroke-dasharray="1.2,0.8"/>
<line x1="190.082" y1="11.545" x2="196.962" y2="13.78" stroke="#8c8c8c" stroke-width="0.3" stroke-dasharray="1.2,0.8"/>
<line x1="140.339" y1="92.452" x2="134.872" y2="85.709" stroke="#8c8c8c" stroke-width="0.3" stroke-dasharray="1.2,0.8"/>
<line x1="140.339" y1="92.452" x2="203.45" y2="40.344" stroke="#8c8c8c" stroke-width="0.3" stroke-dasharray="1.2,0.8"/>
<line x1="181.682" y1="11.471" x2="185.83" y2="17.397" stroke="#141414" stroke-width="0.4"/>
<line x1="110.939" y1="67.599" x2="119.195" y2="64.916" stroke="#141414" stroke-width="0.4"/>
<line x1="190.082" y1="23.25" x2="194.437" y2="29.026" stroke="#141414" stroke-width="0.4"/>
<line x1="124.298" y1="71.939" x2="119.195" y2="78.962" stroke="#141414" stroke-width="0.4"/>
<line x1="194.437" y1="29.026" x2="198.893" y2="34.725" stroke="#141414" stroke-width="0.4"/>
<line x1="119.195" y1="78.962" x2="110.939" y2="76.279" stroke="#141414" stroke-width="0.4"/>
<line x1="198.893" y1="34.725" x2="203.45" y2="40.344" stroke="#141414" stroke-width="0.4"/>
<line x1="110.939" y1="76.279" x2="110.939" y2="67.599" stroke="#141414" stroke-width="0.4"/>
<line x1="114.218" y1="57.804" x2="181.682" y2="11.471" stroke="#141414" stroke-width="0.4"/>
<line x1="185.83" y1="17.397" x2="184.69" y2="12.813" stroke="#141414" stroke-width="0.4"/>
<line x1="184.69" y1="12.813" x2="185.37" y2="11.877" stroke="#141414" stroke-width="0.4"/>
<line x1="185.37" y1="11.877" x2="190.082" y2="11.545" stroke="#141414" stroke-width="0.4"/>
<line x1="119.195" y1="64.916" x2="114.146" y2="65.271" stroke="#141414" stroke-width="0.4"/>
<line x1="114.146" y1="65.271" x2="112.155" y2="62.426" stroke="#141414" stroke-width="0.4"/>
<line x1="112.155" y1="62.426" x2="114.218" y2="57.804" stroke="#141414" stroke-width="0.4"/>
<line x1="190.082" y1="23.25" x2="194.089" y2="25.751" stroke="#141414" stroke-width="0.4"/>
<line x1="194.089" y1="25.751" x2="195.19" y2="25.393" stroke="#141414" stroke-width="0.4"/>
<line x1="195.19" y1="25.393" x2="196.962" y2="21.014" stroke="#141414" stroke-width="0.4"/>
<line x1="124.298" y1="71.939" x2="122.4" y2="76.632" stroke="#141414" stroke-width="0.4"/>
<line x1="122.4" y1="76.632" x2="124.49" y2="79.404" stroke="#141414" stroke-width="0.4"/>
<line x1="124.49" y1="79.404" x2="129.524" y2="78.871" stroke="#141414" stroke-width="0.4"/>
<line x1="196.962" y1="21.014" x2="200.579" y2="19.929" stroke="#141414" stroke-width="0.4"/>
<line x1="200.579" y1="19.929" x2="200.579" y2="14.865" stroke="#141414" stroke-width="0.4"/>
<line x1="200.579" y1="14.865" x2="196.962" y2="13.78" stroke="#141414" stroke-width="0.4"/>
<line x1="129.524" y1="78.871" x2="126.907" y2="82.57" stroke="#141414" stroke-width="0.4"/>
<line x1="126.907" y1="82.57" x2="130.65" y2="87.357" stroke="#141414" stroke-width="0.4"/>
<line x1="130.65" y1="87.357" x2="134.872" y2="85.709" stroke="#141414" stroke-width="0.4"/>
<line x1="196.962" y1="13.78" x2="197.048" y2="10.005" stroke="#141414" stroke-width="0.4"/>
<line x1="197.048" y1="10.005" x2="192.232" y2="8.44" stroke="#141414" stroke-width="0.4"/>
<line x1="192.232" y1="8.44" x2="190.082" y2="11.545" stroke="#141414" stroke-width="0.4"/>
<line x1="134.872" y1="85.709" x2="132.32" y2="89.454" stroke="#141414" stroke-width="0.4"/>
<line x1="132.32" y1="89.454" x2="136.148" y2="94.174" stroke="#141414" stroke-width="0.4"/>
<line x1="136.148" y1="94.174" x2="140.339" y2="92.452" stroke="#141414" stroke-width="0.4"/>
<line x1="203.45" y1="40.344" x2="198.44" y2="53.558" stroke="#141414" stroke-width="0.4"/>
<line x1="198.44" y1="53.558" x2="154.262" y2="90.033" stroke="#141414" stroke-width="0.4"/>
<line x1="154.262" y1="90.033" x2="140.339" y2="92.452" stroke="#141414" stroke-width="0.4"/>
<circle cx="186.493" cy="13.408" r="1.28" fill="#ffe082" stroke="#464646" stroke-width="0.2"/>
<text x="186.493" y="13.85" font-size="1.25" text-anchor="middle" fill="#141414">114</text>
<circle cx="114.929" cy="62.604" r="1.28" fill="#ffe082" stroke="#464646" stroke-width="0.2"/>
<text x="114.929" y="63.04" font-size="1.25" text-anchor="middle" fill="#141414">115</text>
<circle cx="194.081" cy="23.852" r="1.28" fill="#ffe082" stroke="#464646" stroke-width="0.2"/>
<text x="194.081" y="24.29" font-size="1.25" text-anchor="middle" fill="#141414">116</text>
<circle cx="125.178" cy="76.711" r="1.28" fill="#ffe082" stroke="#464646" stroke-width="0.2"/>
<text x="125.178" y="77.15" font-size="1.25" text-anchor="middle" fill="#141414">117</text>
<circle cx="198.771" cy="17.397" r="1.28" fill="#99d9fa" stroke="#464646" stroke-width="0.2"/>
<text x="198.771" y="17.84" font-size="1.25" text-anchor="middle" fill="#141414">118</text>
<circle cx="130.488" cy="83.627" r="1.28" fill="#ffe082" stroke="#464646" stroke-width="0.2"/>
<text x="130.488" y="84.07" font-size="1.25" text-anchor="middle" fill="#141414">119</text>
<circle cx="194.081" cy="10.942" r="1.28" fill="#ffe082" stroke="#464646" stroke-width="0.2"/>
<text x="194.081" y="11.38" font-size="1.25" text-anchor="middle" fill="#141414">120</text>
<circle cx="135.92" cy="90.447" r="1.28" fill="#ffe082" stroke="#464646" stroke-width="0.2"/>
<text x="135.92" y="90.89" font-size="1.25" text-anchor="middle" fill="#141414">121</text>
<circle cx="174.123" cy="69.097" r="1.28" fill="#ffe082" stroke="#464646" stroke-width="0.2"/>
<text x="174.123" y="69.54" font-size="1.25" text-anchor="middle" fill="#141414">122</text>
<circle cx="157.195" cy="96.834" r="4.6" fill="#eaf1fe" stroke="#2e78e6" stroke-width="0.3"/>
<text x="157.195" y="98.634" font-size="5.2" text-anchor="middle" fill="#14306e" font-weight="bold">10</text>
<text x="205.0" y="295.0" font-size="3.2" text-anchor="end" fill="#737373" font-family="sans-serif">4 / 4</text>
</svg>
