<svg xmlns="http://www.w3.org/2000/svg" xmlns:xlink="http://www.w3.org/1999/xlink" width="210.00mm" height="297.00mm" viewBox="0 0 210.00 297.00">
<rect x="0" y="0" width="210.00" height="297.00" fill="#ffffff" stroke="#cccccc" stroke-width="0.2"/>
<polygon points="79.151,83.424 85.423,83.202 94.114,69.301 91.567,63.566" fill="rgb(216,216,216)"/>
<polygon points="98.686,134.768 95.387,144.402 64.265,170.876 54.227,172.588" fill="rgb(216,216,216)"/>
<polygon points="76.336,34.201 72.63,29.112 56.077,29.618 52.689,34.924" fill="rgb(216,216,216)"/>
<polygon points="66.962,102.762 59.733,93.657 49.741,46.171 52.689,34.924" fill="rgb(216,216,216)"/>
<polygon points="66.962,102.762 56.326,109.239 26.813,153.026 24.8,165.316" fill="rgb(216,216,216)"/>
<polygon points="119.566,47.424 123.441,41.674 118.044,20.956 111.856,17.828" fill="rgb(216,216,216)"/>
<polygon points="91.567,63.566 100.184,71.78 104.07,73.022 115.854,71.33" fill="rgb(216,216,216)"/>
<polygon points="99.477,34.201 109.148,43.241 115.699,58.093 115.854,71.33" fill="rgb(216,216,216)"/>
<polygon points="111.856,17.828 109.876,11.874 94.094,7.457 89.311,11.518" fill="rgb(216,216,216)"/>
<polygon points="24.8,165.316 17.523,177.812 7.519,239.983 10.51,254.132" fill="rgb(216,216,216)"/>
<polygon points="24.983,263.714 19.941,266.612 9.81,259.905 10.51,254.132" fill="rgb(216,216,216)"/>
<line x1="66.962" y1="102.762" x2="109.166" y2="93.682" stroke="#8c8c8c" stroke-width="0.3" stroke-dasharray="1.2,0.8"/>
<line x1="76.336" y1="34.201" x2="79.151" y2="83.424" stroke="#8c8c8c" stroke-width="0.3" stroke-dasharray="1.2,0.8"/>
<line x1="79.151" y1="83.424" x2="52.689" y2="34.924" stroke="#8c8c8c" stroke-width="0.3" stroke-dasharray="1.2,0.8"/>
<line x1="98.686" y1="134.768" x2="66.962" y2="102.762" stroke="#8c8c8c" stroke-width="0.3" stroke-dasharray="1.2,0.8"/>
<line x1="91.567" y1="63.566" x2="76.336" y2="34.201" stroke="#8c8c8c" stroke-width="0.3" stroke-dasharray="1.2,0.8"/>
<line x1="99.477" y1="34.201" x2="111.856" y2="17.828" stroke="#8c8c8c" stroke-width="0.3" stroke-dasharray="1.2,0.8"/>
<line x1="99.477" y1="34.201" x2="89.311" y2="11.518" stroke="#8c8c8c" stroke-width="0.3" stroke-dasharray="1.2,0.8"/>
<line x1="54.227" y1="172.588" x2="24.983" y2="263.714" stroke="#8c8c8c" stroke-width="0.3" stroke-dasharray="1.2,0.8"/>
<line x1="24.8" y1="165.316" x2="24.983" y2="263.714" stroke="#8c8c8c" stroke-width="0.3" stroke-dasharray="1.2,0.8"/>
<line x1="38.398" y1="265.223" x2="24.983" y2="263.714" stroke="#8c8c8c" stroke-width="0.3" stroke-dasharray="1.2,0.8"/>
<line x1="79.151" y1="83.424" x2="66.962" y2="102.762" stroke="#8c8c8c" stroke-width="0.3" stroke-dasharray="1.2,0.8"/>
<line x1="76.336" y1="34.201" x2="99.477" y2="34.201" stroke="#8c8c8c" stroke-width="0.3" stroke-dasharray="1.2,0.8"/>
<line x1="115.854" y1="71.33" x2="76.336" y2="34.201" stroke="#8c8c8c" stroke-width="0.3" stroke-dasharray="1.2,0.8"/>
<line x1="24.8" y1="165.316" x2="54.227" y2="172.588" stroke="#8c8c8c" stroke-width="0.3" stroke-dasharray="1.2,0.8"/>
<line x1="91.567" y1="63.566" x2="79.151" y2="83.424" stroke="#8c8c8c" stroke-width="0.3" stroke-dasharray="1.2,0.8"/>
<line x1="54.227" y1="172.588" x2="98.686" y2="134.768" stroke="#8c8c8c" stroke-width="0.3" stroke-dasharray="1.2,0.8"/>
<line x1="52.689" y1="34.924" x2="76.336" y2="34.201" stroke="#8c8c8c" stroke-width="0.3" stroke-dasharray="1.2,0.8"/>
<line x1="52.689" y1="34.924" x2="66.962" y2="102.762" stroke="#8c8c8c" stroke-width="0.3" stroke-dasharray="1.2,0.8"/>
<line x1="24.8" y1="165.316" x2="66.962" y2="102.762" stroke="#8c8c8c" stroke-width="0.3" stroke-dasharray="1.2,0.8"/>
<line x1="111.856" y1="17.828" x2="119.566" y2="47.424" stroke="#8c8c8c" stroke-width="0.3" stroke-dasharray="1.2,0.8"/>
<line x1="115.854" y1="71.33" x2="91.567" y2="63.566" stroke="#8c8c8c" stroke-width="0.3" stroke-dasharray="1.2,0.8"/>
<line x1="115.854" y1="71.33" x2="99.477" y2="34.201" stroke="#8c8c8c" stroke-width="0.3" stroke-dasharray="1.2,0.8"/>
<line x1="89.311" y1="11.518" x2="111.856" y2="17.828" stroke="#8c8c8c" stroke-width="0.3" stroke-dasharray="1.2,0.8"/>
<line x1="10.51" y1="254.132" x2="24.8" y2="165.316" stroke="#8c8c8c" stroke-width="0.3" stroke-dasharray="1.2,0.8"/>
<line x1="10.51" y1="254.132" x2="24.983" y2="263.714" stroke="#8c8c8c" stroke-width="0.3" stroke-dasharray="1.2,0.8"/>
<line x1="79.151" y1="83.424" x2="109.166" y2="93.682" stroke="#141414" stroke-width="0.4"/>
<line x1="109.166" y1="93.682" x2="98.686" y2="134.768" stroke="#141414" stroke-width="0.4"/>
<line x1="76.336" y1="34.201" x2="89.311" y2="11.518" stroke="#141414" stroke-width="0.4"/>
<line x1="119.566" y1="47.424" x2="99.477" y2="34.201" stroke="#141414" stroke-width="0.4"/>
<line x1="54.227" y1="172.588" x2="38.398" y2="265.223" stroke="#141414" stroke-width="0.4"/>
<line x1="38.398" y1="265.223" x2="29.991" y2="287.618" stroke="#141414" stroke-width="0.4"/>
<line x1="29.991" y1="287.618" x2="24.983" y2="263.714" stroke="#141414" stroke-width="0.4"/>
<line x1="79.151" y1="83.424" x2="85.423" y2="83.202" stroke="#141414" stroke-width="0.4"/>
<line x1="85.423" y1="83.202" x2="94.114" y2="69.301" stroke="#141414" stroke-width="0.4"/>
<line x1="94.114" y1="69.301" x2="91.567" y2="63.566" stroke="#141414" stroke-width="0.4"/>
<line x1="98.686" y1="134.768" x2="95.387" y2="144.402" stroke="#141414" stroke-width="0.4"/>
<line x1="95.387" y1="144.402" x2="64.265" y2="170.876" stroke="#141414" stroke-width="0.4"/>
<line x1="64.265" y1="170.876" x2="54.227" y2="172.588" stroke="#141414" stroke-width="0.4"/>
<line x1="76.336" y1="34.201" x2="72.63" y2="29.112" stroke="#141414" stroke-width="0.4"/>
<line x1="72.63" y1="29.112" x2="56.077" y2="29.618" stroke="#141414" stroke-width="0.4"/>
<line x1="56.077" y1="29.618" x2="52.689" y2="34.924" stroke="#141414" stroke-width="0.4"/>
<line x1="66.962" y1="102.762" x2="59.733" y2="93.657" stroke="#141414" stroke-width="0.4"/>
<line x1="59.733" y1="93.657" x2="49.741" y2="46.171" stroke="#141414" stroke-width="0.4"/>
<line x1="49.741" y1="46.171" x2="52.689" y2="34.924" stroke="#141414" stroke-width="0.4"/>
<line x1="66.962" y1="102.762" x2="56.326" y2="109.239" stroke="#141414" stroke-width="0.4"/>
<line x1="56.326" y1="109.239" x2="26.813" y2="153.026" stroke="#141414" stroke-width="0.4"/>
<line x1="26.813" y1="153.026" x2="24.8" y2="165.316" stroke="#141414" stroke-width="0.4"/>
<line x1="119.566" y1="47.424" x2="123.441" y2="41.674" stroke="#141414" stroke-width="0.4"/>
<line x1="123.441" y1="41.674" x2="118.044" y2="20.956" stroke="#141414" stroke-width="0.4"/>
<line x1="118.044" y1="20.956" x2="111.856" y2="17.828" stroke="#141414" stroke-width="0.4"/>
<line x1="91.567" y1="63.566" x2="100.184" y2="71.78" stroke="#141414" stroke-width="0.4"/>
<line x1="100.184" y1="71.78" x2="104.07" y2="73.022" stroke="#141414" stroke-width="0.4"/>
<line x1="104.07" y1="73.022" x2="115.854" y2="71.33" stroke="#141414" stroke-width="0.4"/>
<line x1="99.477" y1="34.201" x2="109.148" y2="43.241" stroke="#141414" stroke-width="0.4"/>
<line x1="109.148" y1="43.241" x2="115.699" y2="58.093" stroke="#141414" stroke-width="0.4"/>
<line x1="115.699" y1="58.093" x2="115.854" y2="71.33" stroke="#141414" stroke-width="0.4"/>
<line x1="111.856" y1="17.828" x2="109.876" y2="11.874" stroke="#141414" stroke-width="0.4"/>
<line x1="109.876" y1="11.874" x2="94.094" y2="7.457" stroke="#141414" stroke-width="0.4"/>
<line x1="94.094" y1="7.457" x2="89.311" y2="11.518" stroke="#141414" stroke-width="0.4"/>
<line x1="24.8" y1="165.316" x2="17.523" y2="177.812" stroke="#141414" stroke-width="0.4"/>
<line x1="17.523" y1="177.812" x2="7.519" y2="239.983" stroke="#141414" stroke-width="0.4"/>
<line x1="7.519" y1="239.983" x2="10.51" y2="254.132" stroke="#141414" stroke-width="0.4"/>
<line x1="24.983" y1="263.714" x2="19.941" y2="266.612" stroke="#141414" stroke-width="0.4"/>
<line x1="19.941" y1="266.612" x2="9.81" y2="259.905" stroke="#141414" stroke-width="0.4"/>
<line x1="9.81" y1="259.905" x2="10.51" y2="254.132" stroke="#141414" stroke-width="0.4"/>
<circle cx="87.564" cy="74.873" r="1.21" fill="#ffe082" stroke="#464646" stroke-width="0.2"/>
<text x="87.564" y="75.45" font-size="1.64" text-anchor="middle" fill="#141414">8</text>
<circle cx="78.141" cy="155.658" r="1.21" fill="#ffe082" stroke="#464646" stroke-width="0.2"/>
<text x="78.141" y="156.23" font-size="1.64" text-anchor="middle" fill="#141414">12</text>
<circle cx="64.433" cy="31.964" r="1.21" fill="#ffe082" stroke="#464646" stroke-width="0.2"/>
<text x="64.433" y="32.54" font-size="1.64" text-anchor="middle" fill="#141414">16</text>
<circle cx="57.281" cy="69.379" r="1.21" fill="#ffe082" stroke="#464646" stroke-width="0.2"/>
<text x="57.281" y="69.95" font-size="1.64" text-anchor="middle" fill="#141414">18</text>
<circle cx="43.725" cy="132.586" r="1.21" fill="#ffe082" stroke="#464646" stroke-width="0.2"/>
<text x="43.725" y="133.16" font-size="1.64" text-anchor="middle" fill="#141414">21</text>
<circle cx="118.227" cy="31.971" r="1.21" fill="#ffe082" stroke="#464646" stroke-width="0.2"/>
<text x="118.227" y="32.55" font-size="1.64" text-anchor="middle" fill="#141414">25</text>
<circle cx="102.919" cy="69.924" r="1.21" fill="#ffe082" stroke="#464646" stroke-width="0.2"/>
<text x="102.919" y="70.50" font-size="1.64" text-anchor="middle" fill="#141414">27</text>
<circle cx="110.044" cy="51.716" r="1.21" fill="#ffe082" stroke="#464646" stroke-width="0.2"/>
<text x="110.044" y="52.29" font-size="1.64" text-anchor="middle" fill="#141414">28</text>
<circle cx="101.284" cy="12.169" r="1.21" fill="#ffe082" stroke="#464646" stroke-width="0.2"/>
<text x="101.284" y="12.74" font-size="1.64" text-anchor="middle" fill="#141414">29</text>
<circle cx="15.088" cy="209.311" r="1.21" fill="#ffe082" stroke="#464646" stroke-width="0.2"/>
<text x="15.088" y="209.89" font-size="1.64" text-anchor="middle" fill="#141414">50</text>
<circle cx="16.311" cy="261.091" r="1.21" fill="#ffe082" stroke="#464646" stroke-width="0.2"/>
<text x="16.311" y="261.67" font-size="1.64" text-anchor="middle" fill="#141414">55</text>
<circle cx="62.961" cy="145.081" r="4.6" fill="#eaf1fe" stroke="#2e78e6" stroke-width="0.3"/>
<text x="62.961" y="146.881" font-size="5.2" text-anchor="middle" fill="#14306e" font-weight="bold">2</text>
</svg>
