<svg xmlns="http://www.w3.org/2000/svg" xmlns:xlink="http://www.w3.org/1999/xlink" width="210.00mm" height="297.00mm" viewBox="0 0 210.00 297.00">
<rect x="0" y="0" width="210.00" height="297.00" fill="#ffffff" stroke="#cccccc" stroke-width="0.2"/>
<polygon points="79.982,48.788 79.649,48.514 55.654,24.183 53.081,26.628" fill="rgb(216,216,216)"/>
<polygon points="57.089,75.069 56.826,74.727 47.298,60.772 46.261,61.027" fill="rgb(216,216,216)"/>
<polygon points="46.261,61.027 47.047,60.425 45.566,43.508 42.698,43.656" fill="rgb(216,216,216)"/>
<polygon points="42.698,43.656 48.158,37.372 48.867,34.625 47.123,26.485" fill="rgb(216,216,216)"/>
<polygon points="13.666,9.089 21.913,5.487 45.334,17.665 47.123,26.485" fill="rgb(216,216,216)"/>
<polygon points="57.089,75.069 56.826,74.727 47.298,60.772 46.261,61.027" fill="#99d9fa"/>
<line x1="79.982" y1="48.788" x2="71.116" y2="15.082" stroke="#8c8c8c" stroke-width="0.3" stroke-dasharray="1.2,0.8"/>
<line x1="88.848" y1="15.082" x2="79.982" y2="48.788" stroke="#8c8c8c" stroke-width="0.3" stroke-dasharray="1.2,0.8"/>
<line x1="104.285" y1="23.807" x2="79.982" y2="48.788" stroke="#8c8c8c" stroke-width="0.3" stroke-dasharray="1.2,0.8"/>
<line x1="113.431" y1="38.998" x2="79.982" y2="48.788" stroke="#8c8c8c" stroke-width="0.3" stroke-dasharray="1.2,0.8"/>
<line x1="113.919" y1="56.724" x2="79.982" y2="48.788" stroke="#8c8c8c" stroke-width="0.3" stroke-dasharray="1.2,0.8"/>
<line x1="105.623" y1="72.395" x2="79.982" y2="48.788" stroke="#8c8c8c" stroke-width="0.3" stroke-dasharray="1.2,0.8"/>
<line x1="90.689" y1="81.956" x2="79.982" y2="48.788" stroke="#8c8c8c" stroke-width="0.3" stroke-dasharray="1.2,0.8"/>
<line x1="72.983" y1="82.931" x2="79.982" y2="48.788" stroke="#8c8c8c" stroke-width="0.3" stroke-dasharray="1.2,0.8"/>
<line x1="57.089" y1="75.069" x2="79.982" y2="48.788" stroke="#8c8c8c" stroke-width="0.3" stroke-dasharray="1.2,0.8"/>
<line x1="47.121" y1="60.404" x2="79.982" y2="48.788" stroke="#8c8c8c" stroke-width="0.3" stroke-dasharray="1.2,0.8"/>
<line x1="45.659" y1="42.732" x2="79.982" y2="48.788" stroke="#8c8c8c" stroke-width="0.3" stroke-dasharray="1.2,0.8"/>
<line x1="57.089" y1="75.069" x2="72.983" y2="82.931" stroke="#8c8c8c" stroke-width="0.3" stroke-dasharray="1.2,0.8"/>
<line x1="33.183" y1="104.233" x2="57.089" y2="75.069" stroke="#8c8c8c" stroke-width="0.3" stroke-dasharray="1.2,0.8"/>
<line x1="11.978" y1="76.733" x2="46.261" y2="61.027" stroke="#8c8c8c" stroke-width="0.3" stroke-dasharray="1.2,0.8"/>
<line x1="5.0" y1="42.716" x2="42.698" y2="43.656" stroke="#8c8c8c" stroke-width="0.3" stroke-dasharray="1.2,0.8"/>
<line x1="53.081" y1="26.628" x2="79.982" y2="48.788" stroke="#8c8c8c" stroke-width="0.3" stroke-dasharray="1.2,0.8"/>
<line x1="46.261" y1="61.027" x2="57.089" y2="75.069" stroke="#8c8c8c" stroke-width="0.3" stroke-dasharray="1.2,0.8"/>
<line x1="42.698" y1="43.656" x2="46.261" y2="61.027" stroke="#8c8c8c" stroke-width="0.3" stroke-dasharray="1.2,0.8"/>
<line x1="47.123" y1="26.485" x2="42.698" y2="43.656" stroke="#8c8c8c" stroke-width="0.3" stroke-dasharray="1.2,0.8"/>
<line x1="47.123" y1="26.485" x2="13.666" y2="9.089" stroke="#8c8c8c" stroke-width="0.3" stroke-dasharray="1.2,0.8"/>
<line x1="71.116" y1="15.082" x2="88.848" y2="15.082" stroke="#141414" stroke-width="0.4"/>
<line x1="55.678" y1="23.807" x2="71.116" y2="15.082" stroke="#141414" stroke-width="0.4"/>
<line x1="79.982" y1="48.788" x2="55.678" y2="23.807" stroke="#141414" stroke-width="0.4"/>
<line x1="88.848" y1="15.082" x2="104.285" y2="23.807" stroke="#141414" stroke-width="0.4"/>
<line x1="104.285" y1="23.807" x2="113.431" y2="38.998" stroke="#141414" stroke-width="0.4"/>
<line x1="113.431" y1="38.998" x2="113.919" y2="56.724" stroke="#141414" stroke-width="0.4"/>
<line x1="113.919" y1="56.724" x2="105.623" y2="72.395" stroke="#141414" stroke-width="0.4"/>
<line x1="105.623" y1="72.395" x2="90.689" y2="81.956" stroke="#141414" stroke-width="0.4"/>
<line x1="90.689" y1="81.956" x2="72.983" y2="82.931" stroke="#141414" stroke-width="0.4"/>
<line x1="72.983" y1="82.931" x2="64.309" y2="119.63" stroke="#141414" stroke-width="0.4"/>
<line x1="64.309" y1="119.63" x2="33.183" y2="104.233" stroke="#141414" stroke-width="0.4"/>
<line x1="33.183" y1="104.233" x2="11.978" y2="76.733" stroke="#141414" stroke-width="0.4"/>
<line x1="57.089" y1="75.069" x2="47.121" y2="60.404" stroke="#141414" stroke-width="0.4"/>
<line x1="11.978" y1="76.733" x2="5.0" y2="42.716" stroke="#141414" stroke-width="0.4"/>
<line x1="47.121" y1="60.404" x2="45.659" y2="42.732" stroke="#141414" stroke-width="0.4"/>
<line x1="5.0" y1="42.716" x2="13.666" y2="9.089" stroke="#141414" stroke-width="0.4"/>
<line x1="45.659" y1="42.732" x2="53.081" y2="26.628" stroke="#141414" stroke-width="0.4"/>
<line x1="79.982" y1="48.788" x2="79.649" y2="48.514" stroke="#141414" stroke-width="0.4"/>
<line x1="79.649" y1="48.514" x2="55.654" y2="24.183" stroke="#141414" stroke-width="0.4"/>
<line x1="55.654" y1="24.183" x2="53.081" y2="26.628" stroke="#141414" stroke-width="0.4"/>
<line x1="57.089" y1="75.069" x2="56.826" y2="74.727" stroke="#141414" stroke-width="0.4"/>
<line x1="56.826" y1="74.727" x2="47.298" y2="60.772" stroke="#141414" stroke-width="0.4"/>
<line x1="47.298" y1="60.772" x2="46.261" y2="61.027" stroke="#141414" stroke-width="0.4"/>
<line x1="46.261" y1="61.027" x2="47.047" y2="60.425" stroke="#141414" stroke-width="0.4"/>
<line x1="47.047" y1="60.425" x2="45.566" y2="43.508" stroke="#141414" stroke-width="0.4"/>
<line x1="45.566" y1="43.508" x2="42.698" y2="43.656" stroke="#141414" stroke-width="0.4"/>
<line x1="42.698" y1="43.656" x2="48.158" y2="37.372" stroke="#141414" stroke-width="0.4"/>
<line x1="48.158" y1="37.372" x2="48.867" y2="34.625" stroke="#141414" stroke-width="0.4"/>
<line x1="48.867" y1="34.625" x2="47.123" y2="26.485" stroke="#141414" stroke-width="0.4"/>
<line x1="13.666" y1="9.089" x2="21.913" y2="5.487" stroke="#141414" stroke-width="0.4"/>
<line x1="21.913" y1="5.487" x2="45.334" y2="17.665" stroke="#141414" stroke-width="0.4"/>
<line x1="45.334" y1="17.665" x2="47.123" y2="26.485" stroke="#141414" stroke-width="0.4"/>
<circle cx="46.712" cy="35.534" r="1.64" fill="#ffe082" stroke="#464646" stroke-width="0.2"/>
<text x="46.712" y="36.10" font-size="1.60" text-anchor="middle" fill="#141414">62</text>
<circle cx="32.009" cy="14.681" r="1.64" fill="#ffe082" stroke="#464646" stroke-width="0.2"/>
<text x="32.009" y="15.24" font-size="1.60" text-anchor="middle" fill="#141414">63</text>
<circle cx="34.084" cy="85.345" r="4.60" fill="#eaf1fe" stroke="#2e78e6" stroke-width="0.3"/>
<text x="34.084" y="87.14" font-size="5.20" text-anchor="middle" fill="#14306e" font-weight="bold">7</text>
<polygon points="7.771,148.519 12.979,155.519 37.288,155.519 42.496,148.519" fill="rgb(216,216,216)"/>
<polygon points="42.496,148.519 46.137,156.448 69.914,161.499 76.464,155.734" fill="rgb(216,216,216)"/>
<polygon points="76.464,155.734 78.377,164.248 100.586,174.129 108.191,169.851" fill="rgb(216,216,216)"/>
<polygon points="108.191,169.851 108.293,178.576 127.964,192.857 136.292,190.252" fill="rgb(216,216,216)"/>
<polygon points="154.03,170.536 156.573,178.175 144.156,191.977 136.292,190.252" fill="rgb(216,216,216)"/>
<line x1="45.267" y1="122.142" x2="42.496" y2="148.519" stroke="#8c8c8c" stroke-width="0.3" stroke-dasharray="1.2,0.8"/>
<line x1="84.655" y1="130.51" x2="76.464" y2="155.734" stroke="#8c8c8c" stroke-width="0.3" stroke-dasharray="1.2,0.8"/>
<line x1="121.445" y1="146.879" x2="108.191" y2="169.851" stroke="#8c8c8c" stroke-width="0.3" stroke-dasharray="1.2,0.8"/>
<line x1="42.496" y1="148.519" x2="7.771" y2="148.519" stroke="#8c8c8c" stroke-width="0.3" stroke-dasharray="1.2,0.8"/>
<line x1="76.464" y1="155.734" x2="42.496" y2="148.519" stroke="#8c8c8c" stroke-width="0.3" stroke-dasharray="1.2,0.8"/>
<line x1="108.191" y1="169.851" x2="76.464" y2="155.734" stroke="#8c8c8c" stroke-width="0.3" stroke-dasharray="1.2,0.8"/>
<line x1="136.292" y1="190.252" x2="108.191" y2="169.851" stroke="#8c8c8c" stroke-width="0.3" stroke-dasharray="1.2,0.8"/>
<line x1="136.292" y1="190.252" x2="154.03" y2="170.536" stroke="#8c8c8c" stroke-width="0.3" stroke-dasharray="1.2,0.8"/>
<line x1="7.771" y1="148.519" x2="5.0" y2="122.142" stroke="#141414" stroke-width="0.4"/>
<line x1="5.0" y1="122.142" x2="45.267" y2="122.142" stroke="#141414" stroke-width="0.4"/>
<line x1="45.267" y1="122.142" x2="84.655" y2="130.51" stroke="#141414" stroke-width="0.4"/>
<line x1="84.655" y1="130.51" x2="121.445" y2="146.879" stroke="#141414" stroke-width="0.4"/>
<line x1="121.445" y1="146.879" x2="154.03" y2="170.536" stroke="#141414" stroke-width="0.4"/>
<line x1="7.771" y1="148.519" x2="12.979" y2="155.519" stroke="#141414" stroke-width="0.4"/>
<line x1="12.979" y1="155.519" x2="37.288" y2="155.519" stroke="#141414" stroke-width="0.4"/>
<line x1="37.288" y1="155.519" x2="42.496" y2="148.519" stroke="#141414" stroke-width="0.4"/>
<line x1="42.496" y1="148.519" x2="46.137" y2="156.448" stroke="#141414" stroke-width="0.4"/>
<line x1="46.137" y1="156.448" x2="69.914" y2="161.499" stroke="#141414" stroke-width="0.4"/>
<line x1="69.914" y1="161.499" x2="76.464" y2="155.734" stroke="#141414" stroke-width="0.4"/>
<line x1="76.464" y1="155.734" x2="78.377" y2="164.248" stroke="#141414" stroke-width="0.4"/>
<line x1="78.377" y1="164.248" x2="100.586" y2="174.129" stroke="#141414" stroke-width="0.4"/>
<line x1="100.586" y1="174.129" x2="108.191" y2="169.851" stroke="#141414" stroke-width="0.4"/>
<line x1="108.191" y1="169.851" x2="108.293" y2="178.576" stroke="#141414" stroke-width="0.4"/>
<line x1="108.293" y1="178.576" x2="127.964" y2="192.857" stroke="#141414" stroke-width="0.4"/>
<line x1="127.964" y1="192.857" x2="136.292" y2="190.252" stroke="#141414" stroke-width="0.4"/>
<line x1="154.03" y1="170.536" x2="156.573" y2="178.175" stroke="#141414" stroke-width="0.4"/>
<line x1="156.573" y1="178.175" x2="144.156" y2="191.977" stroke="#141414" stroke-width="0.4"/>
<line x1="144.156" y1="191.977" x2="136.292" y2="190.252" stroke="#141414" stroke-width="0.4"/>
<circle cx="25.133" cy="152.019" r="1.64" fill="#ffe082" stroke="#464646" stroke-width="0.2"/>
<text x="25.133" y="152.58" font-size="1.60" text-anchor="middle" fill="#141414">75</text>
<circle cx="58.753" cy="155.55" r="1.64" fill="#ffe082" stroke="#464646" stroke-width="0.2"/>
<text x="58.753" y="156.11" font-size="1.60" text-anchor="middle" fill="#141414">76</text>
<circle cx="90.905" cy="165.991" r="1.64" fill="#ffe082" stroke="#464646" stroke-width="0.2"/>
<text x="90.905" y="166.55" font-size="1.60" text-anchor="middle" fill="#141414">77</text>
<circle cx="120.185" cy="182.884" r="1.64" fill="#ffe082" stroke="#464646" stroke-width="0.2"/>
<text x="120.185" y="183.45" font-size="1.60" text-anchor="middle" fill="#141414">78</text>
<circle cx="147.763" cy="182.735" r="1.64" fill="#ffe082" stroke="#464646" stroke-width="0.2"/>
<text x="147.763" y="183.30" font-size="1.60" text-anchor="middle" fill="#141414">79</text>
<circle cx="127.888" cy="162.422" r="4.60" fill="#eaf1fe" stroke="#2e78e6" stroke-width="0.3"/>
<text x="127.888" y="164.22" font-size="5.20" text-anchor="middle" fill="#14306e" font-weight="bold">9</text>
<polygon points="69.957,243.817 65.628,250.817 45.425,250.817 41.096,243.817" fill="rgb(216,216,216)"/>
<polygon points="69.957,224.718 74.239,217.718 94.222,217.718 98.504,224.718" fill="rgb(216,216,216)"/>
<polygon points="69.957,224.718 65.628,217.718 45.425,217.718 41.096,224.718" fill="rgb(216,216,216)"/>
<polygon points="98.504,243.817 105.504,248.147 105.504,268.349 98.504,272.678" fill="rgb(216,216,216)"/>
<polygon points="12.549,195.857 5.549,200.186 5.549,220.388 12.549,224.718" fill="rgb(216,216,216)"/>
<polygon points="69.957,272.678 74.239,279.678 94.222,279.678 98.504,272.678" fill="rgb(216,216,216)"/>
<polygon points="127.364,243.817 134.364,240.952 134.364,227.583 127.364,224.718" fill="rgb(216,216,216)"/>
<polygon points="69.957,243.817 65.628,250.817 45.425,250.817 41.096,243.817" fill="#99d9fa"/>
<line x1="69.957" y1="243.817" x2="69.957" y2="224.718" stroke="#8c8c8c" stroke-width="0.3" stroke-dasharray="1.2,0.8"/>
<line x1="98.504" y1="243.817" x2="69.957" y2="243.817" stroke="#8c8c8c" stroke-width="0.3" stroke-dasharray="1.2,0.8"/>
<line x1="98.504" y1="224.718" x2="98.504" y2="243.817" stroke="#8c8c8c" stroke-width="0.3" stroke-dasharray="1.2,0.8"/>
<line x1="41.096" y1="243.817" x2="41.096" y2="224.718" stroke="#8c8c8c" stroke-width="0.3" stroke-dasharray="1.2,0.8"/>
<line x1="41.096" y1="224.718" x2="12.549" y2="224.718" stroke="#8c8c8c" stroke-width="0.3" stroke-dasharray="1.2,0.8"/>
<line x1="41.096" y1="243.817" x2="69.957" y2="243.817" stroke="#8c8c8c" stroke-width="0.3" stroke-dasharray="1.2,0.8"/>
<line x1="98.504" y1="224.718" x2="69.957" y2="224.718" stroke="#8c8c8c" stroke-width="0.3" stroke-dasharray="1.2,0.8"/>
<line x1="41.096" y1="224.718" x2="69.957" y2="224.718" stroke="#8c8c8c" stroke-width="0.3" stroke-dasharray="1.2,0.8"/>
<line x1="98.504" y1="272.678" x2="98.504" y2="243.817" stroke="#8c8c8c" stroke-width="0.3" stroke-dasharray="1.2,0.8"/>
<line x1="12.549" y1="224.718" x2="12.549" y2="195.857" stroke="#8c8c8c" stroke-width="0.3" stroke-dasharray="1.2,0.8"/>
<line x1="98.504" y1="272.678" x2="69.957" y2="272.678" stroke="#8c8c8c" stroke-width="0.3" stroke-dasharray="1.2,0.8"/>
<line x1="127.364" y1="224.718" x2="127.364" y2="243.817" stroke="#8c8c8c" stroke-width="0.3" stroke-dasharray="1.2,0.8"/>
<line x1="69.957" y1="272.678" x2="69.957" y2="243.817" stroke="#141414" stroke-width="0.4"/>
<line x1="12.549" y1="195.857" x2="41.096" y2="195.857" stroke="#141414" stroke-width="0.4"/>
<line x1="41.096" y1="195.857" x2="41.096" y2="224.718" stroke="#141414" stroke-width="0.4"/>
<line x1="127.364" y1="243.817" x2="98.504" y2="243.817" stroke="#141414" stroke-width="0.4"/>
<line x1="98.504" y1="224.718" x2="127.364" y2="224.718" stroke="#141414" stroke-width="0.4"/>
<line x1="41.096" y1="243.817" x2="12.549" y2="243.817" stroke="#141414" stroke-width="0.4"/>
<line x1="12.549" y1="243.817" x2="12.549" y2="224.718" stroke="#141414" stroke-width="0.4"/>
<line x1="69.957" y1="243.817" x2="65.628" y2="250.817" stroke="#141414" stroke-width="0.4"/>
<line x1="65.628" y1="250.817" x2="45.425" y2="250.817" stroke="#141414" stroke-width="0.4"/>
<line x1="45.425" y1="250.817" x2="41.096" y2="243.817" stroke="#141414" stroke-width="0.4"/>
<line x1="69.957" y1="224.718" x2="74.239" y2="217.718" stroke="#141414" stroke-width="0.4"/>
<line x1="74.239" y1="217.718" x2="94.222" y2="217.718" stroke="#141414" stroke-width="0.4"/>
<line x1="94.222" y1="217.718" x2="98.504" y2="224.718" stroke="#141414" stroke-width="0.4"/>
<line x1="69.957" y1="224.718" x2="65.628" y2="217.718" stroke="#141414" stroke-width="0.4"/>
<line x1="65.628" y1="217.718" x2="45.425" y2="217.718" stroke="#141414" stroke-width="0.4"/>
<line x1="45.425" y1="217.718" x2="41.096" y2="224.718" stroke="#141414" stroke-width="0.4"/>
<line x1="98.504" y1="243.817" x2="105.504" y2="248.147" stroke="#141414" stroke-width="0.4"/>
<line x1="105.504" y1="248.147" x2="105.504" y2="268.349" stroke="#141414" stroke-width="0.4"/>
<line x1="105.504" y1="268.349" x2="98.504" y2="272.678" stroke="#141414" stroke-width="0.4"/>
<line x1="12.549" y1="195.857" x2="5.549" y2="200.186" stroke="#141414" stroke-width="0.4"/>
<line x1="5.549" y1="200.186" x2="5.549" y2="220.388" stroke="#141414" stroke-width="0.4"/>
<line x1="5.549" y1="220.388" x2="12.549" y2="224.718" stroke="#141414" stroke-width="0.4"/>
<line x1="69.957" y1="272.678" x2="74.239" y2="279.678" stroke="#141414" stroke-width="0.4"/>
<line x1="74.239" y1="279.678" x2="94.222" y2="279.678" stroke="#141414" stroke-width="0.4"/>
<line x1="94.222" y1="279.678" x2="98.504" y2="272.678" stroke="#141414" stroke-width="0.4"/>
<line x1="127.364" y1="243.817" x2="134.364" y2="240.952" stroke="#141414" stroke-width="0.4"/>
<line x1="134.364" y1="240.952" x2="134.364" y2="227.583" stroke="#141414" stroke-width="0.4"/>
<line x1="134.364" y1="227.583" x2="127.364" y2="224.718" stroke="#141414" stroke-width="0.4"/>
<circle cx="55.526" cy="247.317" r="1.64" fill="#99d9fa" stroke="#464646" stroke-width="0.2"/>
<text x="55.526" y="247.88" font-size="1.60" text-anchor="middle" fill="#141414">80</text>
<circle cx="84.23" cy="221.218" r="1.64" fill="#ffe082" stroke="#464646" stroke-width="0.2"/>
<text x="84.23" y="221.78" font-size="1.60" text-anchor="middle" fill="#141414">81</text>
<circle cx="55.526" cy="221.218" r="1.64" fill="#ffe082" stroke="#464646" stroke-width="0.2"/>
<text x="55.526" y="221.78" font-size="1.60" text-anchor="middle" fill="#141414">82</text>
<circle cx="102.004" cy="258.248" r="1.64" fill="#ffe082" stroke="#464646" stroke-width="0.2"/>
<text x="102.004" y="258.81" font-size="1.60" text-anchor="middle" fill="#141414">83</text>
<circle cx="9.049" cy="210.287" r="1.64" fill="#ffe082" stroke="#464646" stroke-width="0.2"/>
<text x="9.049" y="210.85" font-size="1.60" text-anchor="middle" fill="#141414">84</text>
<circle cx="84.23" cy="276.178" r="1.64" fill="#ffe082" stroke="#464646" stroke-width="0.2"/>
<text x="84.23" y="276.74" font-size="1.60" text-anchor="middle" fill="#141414">85</text>
<circle cx="130.864" cy="234.267" r="1.64" fill="#ffe082" stroke="#464646" stroke-width="0.2"/>
<text x="130.864" y="234.83" font-size="1.60" text-anchor="middle" fill="#141414">86</text>
<circle cx="88.988" cy="263.058" r="4.60" fill="#eaf1fe" stroke="#2e78e6" stroke-width="0.3"/>
<text x="88.988" y="264.86" font-size="5.20" text-anchor="middle" fill="#14306e" font-weight="bold">10</text>
<text x="205.0" y="295.0" font-size="3.2" text-anchor="end" fill="#737373" font-family="sans-serif">4 / 7</text>
<g pointer-events="none"><text x="105.0" y="83.2" text-anchor="middle" font-family="sans-serif" font-size="12.4" fill="#9aa0a6" fill-opacity="0.3" transform="rotate(-28 105.0 83.2)">papercraft.kr</text><text x="105.0" y="148.5" text-anchor="middle" font-family="sans-serif" font-size="12.4" fill="#9aa0a6" fill-opacity="0.3" transform="rotate(-28 105.0 148.5)">papercraft.kr</text><text x="105.0" y="213.8" text-anchor="middle" font-family="sans-serif" font-size="12.4" fill="#9aa0a6" fill-opacity="0.3" transform="rotate(-28 105.0 213.8)">papercraft.kr</text></g></svg>
