<svg xmlns="http://www.w3.org/2000/svg" xmlns:xlink="http://www.w3.org/1999/xlink" width="210.00mm" height="297.00mm" viewBox="0 0 210.00 297.00">
<rect x="0" y="0" width="210.00" height="297.00" fill="#ffffff" stroke="#cccccc" stroke-width="0.2"/>
<polygon points="113.409,27.93 104.827,27.607 90.678,46.012 93.196,54.222" fill="rgb(216,216,216)"/>
<polygon points="113.409,27.93 111.804,19.634 127.416,4.022 135.712,5.627" fill="rgb(216,216,216)"/>
<polygon points="93.196,54.222 84.68,53.046 68.692,69.982 70.356,78.417" fill="rgb(216,216,216)"/>
<polygon points="135.712,50.232 136.034,58.814 117.629,72.963 109.419,70.445" fill="rgb(216,216,216)"/>
<polygon points="135.712,50.232 144.007,51.837 159.619,36.225 158.014,27.93" fill="rgb(216,216,216)"/>
<polygon points="109.419,70.445 110.595,78.961 93.659,94.949 85.224,93.285" fill="rgb(216,216,216)"/>
<polygon points="113.409,158.641 104.827,158.964 90.678,140.559 93.196,132.348" fill="rgb(216,216,216)"/>
<polygon points="158.014,27.93 159.619,19.634 144.007,4.022 135.712,5.627" fill="rgb(216,216,216)"/>
<polygon points="93.196,132.348 84.68,133.524 68.692,116.588 70.356,108.154" fill="rgb(216,216,216)"/>
<polygon points="5.0,136.338 4.678,127.757 23.082,113.608 31.293,116.125" fill="rgb(216,216,216)"/>
<polygon points="31.293,116.125 30.117,107.609 47.053,91.621 55.487,93.285" fill="rgb(216,216,216)"/>
<polygon points="113.409,27.93 111.804,19.634 127.416,4.022 135.712,5.627" fill="#99d9fa"/>
<line x1="135.712" y1="50.232" x2="113.409" y2="27.93" stroke="#8c8c8c" stroke-width="0.3" stroke-dasharray="1.2,0.8"/>
<line x1="85.224" y1="93.285" x2="70.356" y2="78.417" stroke="#8c8c8c" stroke-width="0.3" stroke-dasharray="1.2,0.8"/>
<line x1="70.356" y1="78.417" x2="55.487" y2="93.285" stroke="#8c8c8c" stroke-width="0.3" stroke-dasharray="1.2,0.8"/>
<line x1="70.356" y1="108.154" x2="85.224" y2="93.285" stroke="#8c8c8c" stroke-width="0.3" stroke-dasharray="1.2,0.8"/>
<line x1="55.487" y1="93.285" x2="70.356" y2="108.154" stroke="#8c8c8c" stroke-width="0.3" stroke-dasharray="1.2,0.8"/>
<line x1="109.419" y1="70.445" x2="93.196" y2="54.222" stroke="#8c8c8c" stroke-width="0.3" stroke-dasharray="1.2,0.8"/>
<line x1="47.516" y1="54.222" x2="31.293" y2="70.445" stroke="#8c8c8c" stroke-width="0.3" stroke-dasharray="1.2,0.8"/>
<line x1="93.196" y1="132.348" x2="109.419" y2="116.125" stroke="#8c8c8c" stroke-width="0.3" stroke-dasharray="1.2,0.8"/>
<line x1="31.293" y1="116.125" x2="47.516" y2="132.348" stroke="#8c8c8c" stroke-width="0.3" stroke-dasharray="1.2,0.8"/>
<line x1="93.196" y1="54.222" x2="113.409" y2="27.93" stroke="#8c8c8c" stroke-width="0.3" stroke-dasharray="1.2,0.8"/>
<line x1="135.712" y1="5.627" x2="113.409" y2="27.93" stroke="#8c8c8c" stroke-width="0.3" stroke-dasharray="1.2,0.8"/>
<line x1="70.356" y1="78.417" x2="93.196" y2="54.222" stroke="#8c8c8c" stroke-width="0.3" stroke-dasharray="1.2,0.8"/>
<line x1="109.419" y1="70.445" x2="135.712" y2="50.232" stroke="#8c8c8c" stroke-width="0.3" stroke-dasharray="1.2,0.8"/>
<line x1="158.014" y1="27.93" x2="135.712" y2="50.232" stroke="#8c8c8c" stroke-width="0.3" stroke-dasharray="1.2,0.8"/>
<line x1="85.224" y1="93.285" x2="109.419" y2="70.445" stroke="#8c8c8c" stroke-width="0.3" stroke-dasharray="1.2,0.8"/>
<line x1="93.196" y1="132.348" x2="113.409" y2="158.641" stroke="#8c8c8c" stroke-width="0.3" stroke-dasharray="1.2,0.8"/>
<line x1="135.712" y1="5.627" x2="158.014" y2="27.93" stroke="#8c8c8c" stroke-width="0.3" stroke-dasharray="1.2,0.8"/>
<line x1="70.356" y1="108.154" x2="93.196" y2="132.348" stroke="#8c8c8c" stroke-width="0.3" stroke-dasharray="1.2,0.8"/>
<line x1="31.293" y1="116.125" x2="5.0" y2="136.338" stroke="#8c8c8c" stroke-width="0.3" stroke-dasharray="1.2,0.8"/>
<line x1="55.487" y1="93.285" x2="31.293" y2="116.125" stroke="#8c8c8c" stroke-width="0.3" stroke-dasharray="1.2,0.8"/>
<line x1="27.303" y1="27.93" x2="47.516" y2="54.222" stroke="#141414" stroke-width="0.4"/>
<line x1="5.0" y1="50.232" x2="27.303" y2="27.93" stroke="#141414" stroke-width="0.4"/>
<line x1="47.516" y1="54.222" x2="70.356" y2="78.417" stroke="#141414" stroke-width="0.4"/>
<line x1="109.419" y1="116.125" x2="135.712" y2="136.338" stroke="#141414" stroke-width="0.4"/>
<line x1="135.712" y1="136.338" x2="113.409" y2="158.641" stroke="#141414" stroke-width="0.4"/>
<line x1="85.224" y1="93.285" x2="109.419" y2="116.125" stroke="#141414" stroke-width="0.4"/>
<line x1="47.516" y1="132.348" x2="27.303" y2="158.641" stroke="#141414" stroke-width="0.4"/>
<line x1="27.303" y1="158.641" x2="5.0" y2="136.338" stroke="#141414" stroke-width="0.4"/>
<line x1="70.356" y1="108.154" x2="47.516" y2="132.348" stroke="#141414" stroke-width="0.4"/>
<line x1="31.293" y1="70.445" x2="5.0" y2="50.232" stroke="#141414" stroke-width="0.4"/>
<line x1="55.487" y1="93.285" x2="31.293" y2="70.445" stroke="#141414" stroke-width="0.4"/>
<line x1="113.409" y1="27.93" x2="104.827" y2="27.607" stroke="#141414" stroke-width="0.4"/>
<line x1="104.827" y1="27.607" x2="90.678" y2="46.012" stroke="#141414" stroke-width="0.4"/>
<line x1="90.678" y1="46.012" x2="93.196" y2="54.222" stroke="#141414" stroke-width="0.4"/>
<line x1="113.409" y1="27.93" x2="111.804" y2="19.634" stroke="#141414" stroke-width="0.4"/>
<line x1="111.804" y1="19.634" x2="127.416" y2="4.022" stroke="#141414" stroke-width="0.4"/>
<line x1="127.416" y1="4.022" x2="135.712" y2="5.627" stroke="#141414" stroke-width="0.4"/>
<line x1="93.196" y1="54.222" x2="84.68" y2="53.046" stroke="#141414" stroke-width="0.4"/>
<line x1="84.68" y1="53.046" x2="68.692" y2="69.982" stroke="#141414" stroke-width="0.4"/>
<line x1="68.692" y1="69.982" x2="70.356" y2="78.417" stroke="#141414" stroke-width="0.4"/>
<line x1="135.712" y1="50.232" x2="136.034" y2="58.814" stroke="#141414" stroke-width="0.4"/>
<line x1="136.034" y1="58.814" x2="117.629" y2="72.963" stroke="#141414" stroke-width="0.4"/>
<line x1="117.629" y1="72.963" x2="109.419" y2="70.445" stroke="#141414" stroke-width="0.4"/>
<line x1="135.712" y1="50.232" x2="144.007" y2="51.837" stroke="#141414" stroke-width="0.4"/>
<line x1="144.007" y1="51.837" x2="159.619" y2="36.225" stroke="#141414" stroke-width="0.4"/>
<line x1="159.619" y1="36.225" x2="158.014" y2="27.93" stroke="#141414" stroke-width="0.4"/>
<line x1="109.419" y1="70.445" x2="110.595" y2="78.961" stroke="#141414" stroke-width="0.4"/>
<line x1="110.595" y1="78.961" x2="93.659" y2="94.949" stroke="#141414" stroke-width="0.4"/>
<line x1="93.659" y1="94.949" x2="85.224" y2="93.285" stroke="#141414" stroke-width="0.4"/>
<line x1="113.409" y1="158.641" x2="104.827" y2="158.964" stroke="#141414" stroke-width="0.4"/>
<line x1="104.827" y1="158.964" x2="90.678" y2="140.559" stroke="#141414" stroke-width="0.4"/>
<line x1="90.678" y1="140.559" x2="93.196" y2="132.348" stroke="#141414" stroke-width="0.4"/>
<line x1="158.014" y1="27.93" x2="159.619" y2="19.634" stroke="#141414" stroke-width="0.4"/>
<line x1="159.619" y1="19.634" x2="144.007" y2="4.022" stroke="#141414" stroke-width="0.4"/>
<line x1="144.007" y1="4.022" x2="135.712" y2="5.627" stroke="#141414" stroke-width="0.4"/>
<line x1="93.196" y1="132.348" x2="84.68" y2="133.524" stroke="#141414" stroke-width="0.4"/>
<line x1="84.68" y1="133.524" x2="68.692" y2="116.588" stroke="#141414" stroke-width="0.4"/>
<line x1="68.692" y1="116.588" x2="70.356" y2="108.154" stroke="#141414" stroke-width="0.4"/>
<line x1="5.0" y1="136.338" x2="4.678" y2="127.757" stroke="#141414" stroke-width="0.4"/>
<line x1="4.678" y1="127.757" x2="23.082" y2="113.608" stroke="#141414" stroke-width="0.4"/>
<line x1="23.082" y1="113.608" x2="31.293" y2="116.125" stroke="#141414" stroke-width="0.4"/>
<line x1="31.293" y1="116.125" x2="30.117" y2="107.609" stroke="#141414" stroke-width="0.4"/>
<line x1="30.117" y1="107.609" x2="47.053" y2="91.621" stroke="#141414" stroke-width="0.4"/>
<line x1="47.053" y1="91.621" x2="55.487" y2="93.285" stroke="#141414" stroke-width="0.4"/>
<circle cx="100.527" cy="38.943" r="2.93" fill="#ffe082" stroke="#464646" stroke-width="0.2"/>
<text x="100.527" y="40.33" font-size="3.97" text-anchor="middle" fill="#141414">1</text>
<circle cx="122.085" cy="14.303" r="2.93" fill="#99d9fa" stroke="#464646" stroke-width="0.2"/>
<text x="122.085" y="15.69" font-size="3.97" text-anchor="middle" fill="#141414">2</text>
<circle cx="79.231" cy="63.917" r="2.93" fill="#ffe082" stroke="#464646" stroke-width="0.2"/>
<text x="79.231" y="65.31" font-size="3.97" text-anchor="middle" fill="#141414">3</text>
<circle cx="124.698" cy="63.114" r="2.93" fill="#ffe082" stroke="#464646" stroke-width="0.2"/>
<text x="124.698" y="64.50" font-size="3.97" text-anchor="middle" fill="#141414">4</text>
<circle cx="149.338" cy="41.556" r="2.93" fill="#ffe082" stroke="#464646" stroke-width="0.2"/>
<text x="149.338" y="42.95" font-size="3.97" text-anchor="middle" fill="#141414">5</text>
<circle cx="99.724" cy="84.41" r="2.93" fill="#ffe082" stroke="#464646" stroke-width="0.2"/>
<text x="99.724" y="85.80" font-size="3.97" text-anchor="middle" fill="#141414">6</text>
<circle cx="100.527" cy="147.628" r="2.93" fill="#ffe082" stroke="#464646" stroke-width="0.2"/>
<text x="100.527" y="149.02" font-size="3.97" text-anchor="middle" fill="#141414">7</text>
<circle cx="149.338" cy="14.303" r="2.93" fill="#ffe082" stroke="#464646" stroke-width="0.2"/>
<text x="149.338" y="15.69" font-size="3.97" text-anchor="middle" fill="#141414">8</text>
<circle cx="79.231" cy="122.654" r="2.93" fill="#ffe082" stroke="#464646" stroke-width="0.2"/>
<text x="79.231" y="124.04" font-size="3.97" text-anchor="middle" fill="#141414">9</text>
<circle cx="16.013" cy="123.457" r="2.93" fill="#ffe082" stroke="#464646" stroke-width="0.2"/>
<text x="16.013" y="124.85" font-size="3.97" text-anchor="middle" fill="#141414">10</text>
<circle cx="40.987" cy="102.16" r="2.93" fill="#ffe082" stroke="#464646" stroke-width="0.2"/>
<text x="40.987" y="103.55" font-size="3.97" text-anchor="middle" fill="#141414">11</text>
<circle cx="128.277" cy="35.364" r="4.21" fill="#eaf1fe" stroke="#2e78e6" stroke-width="0.3"/>
<text x="128.277" y="37.01" font-size="4.75" text-anchor="middle" fill="#14306e" font-weight="bold">1</text>
<polygon points="53.333,198.288 50.111,205.288 35.079,205.288 31.858,198.288" fill="rgb(216,216,216)"/>
<polygon points="53.333,184.416 56.519,177.416 71.388,177.416 74.574,184.416" fill="rgb(216,216,216)"/>
<polygon points="53.333,184.416 50.111,177.416 35.079,177.416 31.858,184.416" fill="rgb(216,216,216)"/>
<polygon points="74.574,198.288 81.574,201.509 81.574,216.541 74.574,219.762" fill="rgb(216,216,216)"/>
<polygon points="10.617,162.941 3.617,166.162 3.617,181.195 10.617,184.416" fill="rgb(216,216,216)"/>
<polygon points="53.333,219.762 56.519,226.762 71.388,226.762 74.574,219.762" fill="rgb(216,216,216)"/>
<polygon points="96.048,198.288 102.984,196.207 102.984,186.496 96.048,184.416" fill="rgb(216,216,216)"/>
<polygon points="53.333,198.288 50.111,205.288 35.079,205.288 31.858,198.288" fill="#99d9fa"/>
<line x1="53.333" y1="198.288" x2="53.333" y2="184.416" stroke="#8c8c8c" stroke-width="0.3" stroke-dasharray="1.2,0.8"/>
<line x1="74.574" y1="198.288" x2="53.333" y2="198.288" stroke="#8c8c8c" stroke-width="0.3" stroke-dasharray="1.2,0.8"/>
<line x1="74.574" y1="184.416" x2="74.574" y2="198.288" stroke="#8c8c8c" stroke-width="0.3" stroke-dasharray="1.2,0.8"/>
<line x1="31.858" y1="198.288" x2="31.858" y2="184.416" stroke="#8c8c8c" stroke-width="0.3" stroke-dasharray="1.2,0.8"/>
<line x1="31.858" y1="184.416" x2="10.617" y2="184.416" stroke="#8c8c8c" stroke-width="0.3" stroke-dasharray="1.2,0.8"/>
<line x1="31.858" y1="198.288" x2="53.333" y2="198.288" stroke="#8c8c8c" stroke-width="0.3" stroke-dasharray="1.2,0.8"/>
<line x1="74.574" y1="184.416" x2="53.333" y2="184.416" stroke="#8c8c8c" stroke-width="0.3" stroke-dasharray="1.2,0.8"/>
<line x1="31.858" y1="184.416" x2="53.333" y2="184.416" stroke="#8c8c8c" stroke-width="0.3" stroke-dasharray="1.2,0.8"/>
<line x1="74.574" y1="219.762" x2="74.574" y2="198.288" stroke="#8c8c8c" stroke-width="0.3" stroke-dasharray="1.2,0.8"/>
<line x1="10.617" y1="184.416" x2="10.617" y2="162.941" stroke="#8c8c8c" stroke-width="0.3" stroke-dasharray="1.2,0.8"/>
<line x1="74.574" y1="219.762" x2="53.333" y2="219.762" stroke="#8c8c8c" stroke-width="0.3" stroke-dasharray="1.2,0.8"/>
<line x1="96.048" y1="184.416" x2="96.048" y2="198.288" stroke="#8c8c8c" stroke-width="0.3" stroke-dasharray="1.2,0.8"/>
<line x1="53.333" y1="219.762" x2="53.333" y2="198.288" stroke="#141414" stroke-width="0.4"/>
<line x1="10.617" y1="162.941" x2="31.858" y2="162.941" stroke="#141414" stroke-width="0.4"/>
<line x1="31.858" y1="162.941" x2="31.858" y2="184.416" stroke="#141414" stroke-width="0.4"/>
<line x1="96.048" y1="198.288" x2="74.574" y2="198.288" stroke="#141414" stroke-width="0.4"/>
<line x1="74.574" y1="184.416" x2="96.048" y2="184.416" stroke="#141414" stroke-width="0.4"/>
<line x1="31.858" y1="198.288" x2="10.617" y2="198.288" stroke="#141414" stroke-width="0.4"/>
<line x1="10.617" y1="198.288" x2="10.617" y2="184.416" stroke="#141414" stroke-width="0.4"/>
<line x1="53.333" y1="198.288" x2="50.111" y2="205.288" stroke="#141414" stroke-width="0.4"/>
<line x1="50.111" y1="205.288" x2="35.079" y2="205.288" stroke="#141414" stroke-width="0.4"/>
<line x1="35.079" y1="205.288" x2="31.858" y2="198.288" stroke="#141414" stroke-width="0.4"/>
<line x1="53.333" y1="184.416" x2="56.519" y2="177.416" stroke="#141414" stroke-width="0.4"/>
<line x1="56.519" y1="177.416" x2="71.388" y2="177.416" stroke="#141414" stroke-width="0.4"/>
<line x1="71.388" y1="177.416" x2="74.574" y2="184.416" stroke="#141414" stroke-width="0.4"/>
<line x1="53.333" y1="184.416" x2="50.111" y2="177.416" stroke="#141414" stroke-width="0.4"/>
<line x1="50.111" y1="177.416" x2="35.079" y2="177.416" stroke="#141414" stroke-width="0.4"/>
<line x1="35.079" y1="177.416" x2="31.858" y2="184.416" stroke="#141414" stroke-width="0.4"/>
<line x1="74.574" y1="198.288" x2="81.574" y2="201.509" stroke="#141414" stroke-width="0.4"/>
<line x1="81.574" y1="201.509" x2="81.574" y2="216.541" stroke="#141414" stroke-width="0.4"/>
<line x1="81.574" y1="216.541" x2="74.574" y2="219.762" stroke="#141414" stroke-width="0.4"/>
<line x1="10.617" y1="162.941" x2="3.617" y2="166.162" stroke="#141414" stroke-width="0.4"/>
<line x1="3.617" y1="166.162" x2="3.617" y2="181.195" stroke="#141414" stroke-width="0.4"/>
<line x1="3.617" y1="181.195" x2="10.617" y2="184.416" stroke="#141414" stroke-width="0.4"/>
<line x1="53.333" y1="219.762" x2="56.519" y2="226.762" stroke="#141414" stroke-width="0.4"/>
<line x1="56.519" y1="226.762" x2="71.388" y2="226.762" stroke="#141414" stroke-width="0.4"/>
<line x1="71.388" y1="226.762" x2="74.574" y2="219.762" stroke="#141414" stroke-width="0.4"/>
<line x1="96.048" y1="198.288" x2="102.984" y2="196.207" stroke="#141414" stroke-width="0.4"/>
<line x1="102.984" y1="196.207" x2="102.984" y2="186.496" stroke="#141414" stroke-width="0.4"/>
<line x1="102.984" y1="186.496" x2="96.048" y2="184.416" stroke="#141414" stroke-width="0.4"/>
<circle cx="42.595" cy="201.788" r="2.93" fill="#99d9fa" stroke="#464646" stroke-width="0.2"/>
<text x="42.595" y="203.18" font-size="3.97" text-anchor="middle" fill="#141414">23</text>
<circle cx="63.953" cy="180.916" r="2.93" fill="#ffe082" stroke="#464646" stroke-width="0.2"/>
<text x="63.953" y="182.31" font-size="3.97" text-anchor="middle" fill="#141414">24</text>
<circle cx="42.595" cy="180.916" r="2.93" fill="#ffe082" stroke="#464646" stroke-width="0.2"/>
<text x="42.595" y="182.31" font-size="3.97" text-anchor="middle" fill="#141414">25</text>
<circle cx="78.074" cy="209.025" r="2.93" fill="#ffe082" stroke="#464646" stroke-width="0.2"/>
<text x="78.074" y="210.41" font-size="3.97" text-anchor="middle" fill="#141414">26</text>
<circle cx="7.117" cy="173.678" r="2.93" fill="#ffe082" stroke="#464646" stroke-width="0.2"/>
<text x="7.117" y="175.07" font-size="3.97" text-anchor="middle" fill="#141414">27</text>
<circle cx="63.953" cy="223.262" r="2.93" fill="#ffe082" stroke="#464646" stroke-width="0.2"/>
<text x="63.953" y="224.65" font-size="3.97" text-anchor="middle" fill="#141414">28</text>
<circle cx="99.516" cy="191.352" r="2.93" fill="#ffe082" stroke="#464646" stroke-width="0.2"/>
<text x="99.516" y="192.74" font-size="3.97" text-anchor="middle" fill="#141414">29</text>
<circle cx="67.493" cy="212.604" r="4.03" fill="#eaf1fe" stroke="#2e78e6" stroke-width="0.3"/>
<text x="67.493" y="214.18" font-size="4.55" text-anchor="middle" fill="#14306e" font-weight="bold">3</text>
<text x="205.0" y="295.0" font-size="3.2" text-anchor="end" fill="#737373" font-family="sans-serif">1 / 4</text>
<g pointer-events="none"><text x="105.0" y="83.2" text-anchor="middle" font-family="sans-serif" font-size="12.4" fill="#9aa0a6" fill-opacity="0.3" transform="rotate(-28 105.0 83.2)">papercraft.kr</text><text x="105.0" y="148.5" text-anchor="middle" font-family="sans-serif" font-size="12.4" fill="#9aa0a6" fill-opacity="0.3" transform="rotate(-28 105.0 148.5)">papercraft.kr</text><text x="105.0" y="213.8" text-anchor="middle" font-family="sans-serif" font-size="12.4" fill="#9aa0a6" fill-opacity="0.3" transform="rotate(-28 105.0 213.8)">papercraft.kr</text></g></svg>
