<svg xmlns="http://www.w3.org/2000/svg" xmlns:xlink="http://www.w3.org/1999/xlink" width="210.00mm" height="297.00mm" viewBox="0 0 210.00 297.00">
<rect x="0" y="0" width="210.00" height="297.00" fill="#ffffff" stroke="#cccccc" stroke-width="0.2"/>
<polygon points="5.0,48.873 10.032,43.206 35.658,40.932 41.609,45.624" fill="rgb(216,216,216)"/>
<polygon points="80.835,173.479 88.153,176.307 100.75,200.656 98.831,208.263" fill="rgb(216,216,216)"/>
<polygon points="52.34,185.779 57.05,193.833 89.593,209.572 98.831,208.263" fill="rgb(216,216,216)"/>
<polygon points="52.34,185.779 48.754,179.722 55.229,158.556 61.589,155.542" fill="rgb(216,216,216)"/>
<polygon points="88.92,50.021 90.806,41.219 77.3,9.705 69.626,5.0" fill="rgb(216,216,216)"/>
<polygon points="77.098,116.921 66.522,121.826 64.04,124.932 61.589,136.329" fill="rgb(216,216,216)"/>
<polygon points="33.534,125.566 29.275,120.984 33.015,105.192 38.876,103.006" fill="rgb(216,216,216)"/>
<polygon points="41.86,76.36 36.245,79.778 34.156,98.431 38.876,103.006" fill="rgb(216,216,216)"/>
<polygon points="66.97,61.657 71.786,67.605 70.047,93.75 64.486,99.008" fill="rgb(216,216,216)"/>
<polygon points="66.97,61.657 71.786,67.605 70.047,93.75 64.486,99.008" fill="#99d9fa"/>
<line x1="52.34" y1="185.779" x2="80.835" y2="173.479" stroke="#8c8c8c" stroke-width="0.3" stroke-dasharray="1.2,0.8"/>
<line x1="80.835" y1="173.479" x2="61.589" y2="155.542" stroke="#8c8c8c" stroke-width="0.3" stroke-dasharray="1.2,0.8"/>
<line x1="114.152" y1="152.893" x2="61.589" y2="155.542" stroke="#8c8c8c" stroke-width="0.3" stroke-dasharray="1.2,0.8"/>
<line x1="61.589" y1="136.329" x2="114.152" y2="152.893" stroke="#8c8c8c" stroke-width="0.3" stroke-dasharray="1.2,0.8"/>
<line x1="61.589" y1="155.542" x2="61.589" y2="136.329" stroke="#8c8c8c" stroke-width="0.3" stroke-dasharray="1.2,0.8"/>
<line x1="66.97" y1="61.657" x2="69.626" y2="5.0" stroke="#8c8c8c" stroke-width="0.3" stroke-dasharray="1.2,0.8"/>
<line x1="41.609" y1="45.624" x2="41.86" y2="76.36" stroke="#8c8c8c" stroke-width="0.3" stroke-dasharray="1.2,0.8"/>
<line x1="41.86" y1="76.36" x2="64.486" y2="99.008" stroke="#8c8c8c" stroke-width="0.3" stroke-dasharray="1.2,0.8"/>
<line x1="64.486" y1="99.008" x2="38.876" y2="103.007" stroke="#8c8c8c" stroke-width="0.3" stroke-dasharray="1.2,0.8"/>
<line x1="61.589" y1="136.329" x2="28.259" y2="156.766" stroke="#8c8c8c" stroke-width="0.3" stroke-dasharray="1.2,0.8"/>
<line x1="61.589" y1="136.329" x2="33.534" y2="125.566" stroke="#8c8c8c" stroke-width="0.3" stroke-dasharray="1.2,0.8"/>
<line x1="33.534" y1="125.566" x2="64.486" y2="99.008" stroke="#8c8c8c" stroke-width="0.3" stroke-dasharray="1.2,0.8"/>
<line x1="41.609" y1="45.624" x2="66.97" y2="61.657" stroke="#8c8c8c" stroke-width="0.3" stroke-dasharray="1.2,0.8"/>
<line x1="66.97" y1="61.657" x2="41.86" y2="76.36" stroke="#8c8c8c" stroke-width="0.3" stroke-dasharray="1.2,0.8"/>
<line x1="41.609" y1="45.624" x2="5.0" y2="48.873" stroke="#8c8c8c" stroke-width="0.3" stroke-dasharray="1.2,0.8"/>
<line x1="98.831" y1="208.263" x2="80.835" y2="173.479" stroke="#8c8c8c" stroke-width="0.3" stroke-dasharray="1.2,0.8"/>
<line x1="98.831" y1="208.263" x2="52.34" y2="185.779" stroke="#8c8c8c" stroke-width="0.3" stroke-dasharray="1.2,0.8"/>
<line x1="61.589" y1="155.542" x2="52.34" y2="185.779" stroke="#8c8c8c" stroke-width="0.3" stroke-dasharray="1.2,0.8"/>
<line x1="69.626" y1="5.0" x2="88.92" y2="50.021" stroke="#8c8c8c" stroke-width="0.3" stroke-dasharray="1.2,0.8"/>
<line x1="61.589" y1="136.329" x2="77.098" y2="116.921" stroke="#8c8c8c" stroke-width="0.3" stroke-dasharray="1.2,0.8"/>
<line x1="38.876" y1="103.006" x2="33.534" y2="125.566" stroke="#8c8c8c" stroke-width="0.3" stroke-dasharray="1.2,0.8"/>
<line x1="38.876" y1="103.006" x2="41.86" y2="76.36" stroke="#8c8c8c" stroke-width="0.3" stroke-dasharray="1.2,0.8"/>
<line x1="64.486" y1="99.008" x2="66.97" y2="61.657" stroke="#8c8c8c" stroke-width="0.3" stroke-dasharray="1.2,0.8"/>
<line x1="41.86" y1="76.36" x2="5.0" y2="48.873" stroke="#141414" stroke-width="0.4"/>
<line x1="114.152" y1="152.893" x2="80.835" y2="173.479" stroke="#141414" stroke-width="0.4"/>
<line x1="61.589" y1="155.542" x2="28.259" y2="156.766" stroke="#141414" stroke-width="0.4"/>
<line x1="28.259" y1="156.766" x2="33.534" y2="125.566" stroke="#141414" stroke-width="0.4"/>
<line x1="77.098" y1="116.921" x2="114.152" y2="152.893" stroke="#141414" stroke-width="0.4"/>
<line x1="88.92" y1="50.021" x2="66.97" y2="61.657" stroke="#141414" stroke-width="0.4"/>
<line x1="41.609" y1="45.624" x2="69.626" y2="5.0" stroke="#141414" stroke-width="0.4"/>
<line x1="64.486" y1="99.008" x2="61.589" y2="136.329" stroke="#141414" stroke-width="0.4"/>
<line x1="5.0" y1="48.873" x2="10.032" y2="43.206" stroke="#141414" stroke-width="0.4"/>
<line x1="10.032" y1="43.206" x2="35.658" y2="40.932" stroke="#141414" stroke-width="0.4"/>
<line x1="35.658" y1="40.932" x2="41.609" y2="45.624" stroke="#141414" stroke-width="0.4"/>
<line x1="80.835" y1="173.479" x2="88.153" y2="176.307" stroke="#141414" stroke-width="0.4"/>
<line x1="88.153" y1="176.307" x2="100.75" y2="200.656" stroke="#141414" stroke-width="0.4"/>
<line x1="100.75" y1="200.656" x2="98.831" y2="208.263" stroke="#141414" stroke-width="0.4"/>
<line x1="52.34" y1="185.779" x2="57.05" y2="193.833" stroke="#141414" stroke-width="0.4"/>
<line x1="57.05" y1="193.833" x2="89.593" y2="209.572" stroke="#141414" stroke-width="0.4"/>
<line x1="89.593" y1="209.572" x2="98.831" y2="208.263" stroke="#141414" stroke-width="0.4"/>
<line x1="52.34" y1="185.779" x2="48.754" y2="179.722" stroke="#141414" stroke-width="0.4"/>
<line x1="48.754" y1="179.722" x2="55.229" y2="158.556" stroke="#141414" stroke-width="0.4"/>
<line x1="55.229" y1="158.556" x2="61.589" y2="155.542" stroke="#141414" stroke-width="0.4"/>
<line x1="88.92" y1="50.021" x2="90.806" y2="41.219" stroke="#141414" stroke-width="0.4"/>
<line x1="90.806" y1="41.219" x2="77.3" y2="9.705" stroke="#141414" stroke-width="0.4"/>
<line x1="77.3" y1="9.705" x2="69.626" y2="5.0" stroke="#141414" stroke-width="0.4"/>
<line x1="77.098" y1="116.921" x2="66.522" y2="121.826" stroke="#141414" stroke-width="0.4"/>
<line x1="66.522" y1="121.826" x2="64.04" y2="124.932" stroke="#141414" stroke-width="0.4"/>
<line x1="64.04" y1="124.932" x2="61.589" y2="136.329" stroke="#141414" stroke-width="0.4"/>
<line x1="33.534" y1="125.566" x2="29.275" y2="120.984" stroke="#141414" stroke-width="0.4"/>
<line x1="29.275" y1="120.984" x2="33.015" y2="105.192" stroke="#141414" stroke-width="0.4"/>
<line x1="33.015" y1="105.192" x2="38.876" y2="103.006" stroke="#141414" stroke-width="0.4"/>
<line x1="41.86" y1="76.36" x2="36.245" y2="79.778" stroke="#141414" stroke-width="0.4"/>
<line x1="36.245" y1="79.778" x2="34.156" y2="98.431" stroke="#141414" stroke-width="0.4"/>
<line x1="34.156" y1="98.431" x2="38.876" y2="103.006" stroke="#141414" stroke-width="0.4"/>
<line x1="66.97" y1="61.657" x2="71.786" y2="67.605" stroke="#141414" stroke-width="0.4"/>
<line x1="71.786" y1="67.605" x2="70.047" y2="93.75" stroke="#141414" stroke-width="0.4"/>
<line x1="70.047" y1="93.75" x2="64.486" y2="99.008" stroke="#141414" stroke-width="0.4"/>
<circle cx="23.075" cy="44.659" r="1.07" fill="#ffe082" stroke="#464646" stroke-width="0.2"/>
<text x="23.075" y="45.17" font-size="1.45" text-anchor="middle" fill="#141414">40</text>
<circle cx="92.142" cy="189.676" r="1.07" fill="#ffe082" stroke="#464646" stroke-width="0.2"/>
<text x="92.142" y="190.18" font-size="1.45" text-anchor="middle" fill="#141414">42</text>
<circle cx="74.453" cy="199.362" r="1.07" fill="#ffe082" stroke="#464646" stroke-width="0.2"/>
<text x="74.453" y="199.87" font-size="1.45" text-anchor="middle" fill="#141414">45</text>
<circle cx="54.478" cy="169.9" r="1.07" fill="#ffe082" stroke="#464646" stroke-width="0.2"/>
<text x="54.478" y="170.41" font-size="1.45" text-anchor="middle" fill="#141414">46</text>
<circle cx="81.663" cy="26.486" r="1.07" fill="#ffe082" stroke="#464646" stroke-width="0.2"/>
<text x="81.663" y="26.99" font-size="1.45" text-anchor="middle" fill="#141414">47</text>
<circle cx="67.312" cy="125.002" r="1.07" fill="#ffe082" stroke="#464646" stroke-width="0.2"/>
<text x="67.312" y="125.51" font-size="1.45" text-anchor="middle" fill="#141414">48</text>
<circle cx="33.675" cy="113.687" r="1.07" fill="#ffe082" stroke="#464646" stroke-width="0.2"/>
<text x="33.675" y="114.20" font-size="1.45" text-anchor="middle" fill="#141414">50</text>
<circle cx="37.784" cy="89.394" r="1.07" fill="#ffe082" stroke="#464646" stroke-width="0.2"/>
<text x="37.784" y="89.90" font-size="1.45" text-anchor="middle" fill="#141414">51</text>
<circle cx="68.322" cy="80.505" r="1.07" fill="#99d9fa" stroke="#464646" stroke-width="0.2"/>
<text x="68.322" y="81.01" font-size="1.45" text-anchor="middle" fill="#141414">52</text>
<circle cx="64.921" cy="171.6" r="4.60" fill="#eaf1fe" stroke="#2e78e6" stroke-width="0.3"/>
<text x="64.921" y="173.40" font-size="5.20" text-anchor="middle" fill="#14306e" font-weight="bold">3</text>
<text x="205.0" y="295.0" font-size="3.2" text-anchor="end" fill="#737373" font-family="sans-serif">3 / 5</text>
</svg>
