<svg xmlns="http://www.w3.org/2000/svg" xmlns:xlink="http://www.w3.org/1999/xlink" width="210.00mm" height="297.00mm" viewBox="0 0 210.00 297.00">
<rect x="0" y="0" width="210.00" height="297.00" fill="#ffffff" stroke="#cccccc" stroke-width="0.2"/>
<polygon points="61.358,93.324 65.589,100.324 85.333,100.324 89.564,93.324" fill="rgb(216,216,216)"/>
<polygon points="61.358,63.265 65.589,56.265 85.333,56.265 89.564,63.265" fill="rgb(216,216,216)"/>
<polygon points="89.564,93.324 96.564,88.816 96.564,67.774 89.564,63.265" fill="rgb(216,216,216)"/>
<polygon points="61.358,121.53 57.135,128.531 37.429,128.531 33.206,121.53" fill="rgb(216,216,216)"/>
<polygon points="33.206,93.324 26.206,88.816 26.206,67.774 33.206,63.265" fill="rgb(216,216,216)"/>
<polygon points="33.206,93.324 26.206,97.555 26.206,117.3 33.206,121.53" fill="rgb(216,216,216)"/>
<polygon points="33.206,63.265 26.206,59.034 26.206,39.29 33.206,35.059" fill="rgb(216,216,216)"/>
<polygon points="61.358,93.324 65.589,100.324 85.333,100.324 89.564,93.324" fill="#99d9fa"/>
<line x1="61.358" y1="93.324" x2="61.358" y2="63.265" stroke="#8c8c8c" stroke-width="0.3" stroke-dasharray="1.2,0.8"/>
<line x1="61.358" y1="93.324" x2="33.206" y2="93.324" stroke="#8c8c8c" stroke-width="0.3" stroke-dasharray="1.2,0.8"/>
<line x1="33.206" y1="63.265" x2="61.358" y2="63.265" stroke="#8c8c8c" stroke-width="0.3" stroke-dasharray="1.2,0.8"/>
<line x1="33.206" y1="35.059" x2="61.358" y2="35.059" stroke="#8c8c8c" stroke-width="0.3" stroke-dasharray="1.2,0.8"/>
<line x1="33.206" y1="35.059" x2="33.206" y2="5.0" stroke="#8c8c8c" stroke-width="0.3" stroke-dasharray="1.2,0.8"/>
<line x1="89.564" y1="93.324" x2="61.358" y2="93.324" stroke="#8c8c8c" stroke-width="0.3" stroke-dasharray="1.2,0.8"/>
<line x1="89.564" y1="63.265" x2="61.358" y2="63.265" stroke="#8c8c8c" stroke-width="0.3" stroke-dasharray="1.2,0.8"/>
<line x1="89.564" y1="63.265" x2="89.564" y2="93.324" stroke="#8c8c8c" stroke-width="0.3" stroke-dasharray="1.2,0.8"/>
<line x1="33.206" y1="121.53" x2="61.358" y2="121.53" stroke="#8c8c8c" stroke-width="0.3" stroke-dasharray="1.2,0.8"/>
<line x1="33.206" y1="63.265" x2="33.206" y2="93.324" stroke="#8c8c8c" stroke-width="0.3" stroke-dasharray="1.2,0.8"/>
<line x1="33.206" y1="121.53" x2="33.206" y2="93.324" stroke="#8c8c8c" stroke-width="0.3" stroke-dasharray="1.2,0.8"/>
<line x1="33.206" y1="35.059" x2="33.206" y2="63.265" stroke="#8c8c8c" stroke-width="0.3" stroke-dasharray="1.2,0.8"/>
<line x1="61.358" y1="93.324" x2="61.358" y2="121.53" stroke="#141414" stroke-width="0.4"/>
<line x1="61.358" y1="35.059" x2="61.358" y2="63.265" stroke="#141414" stroke-width="0.4"/>
<line x1="61.358" y1="5.0" x2="61.358" y2="35.059" stroke="#141414" stroke-width="0.4"/>
<line x1="33.206" y1="5.0" x2="61.358" y2="5.0" stroke="#141414" stroke-width="0.4"/>
<line x1="5.0" y1="35.059" x2="5.0" y2="5.0" stroke="#141414" stroke-width="0.4"/>
<line x1="5.0" y1="5.0" x2="33.206" y2="5.0" stroke="#141414" stroke-width="0.4"/>
<line x1="33.206" y1="35.059" x2="5.0" y2="35.059" stroke="#141414" stroke-width="0.4"/>
<line x1="61.358" y1="93.324" x2="65.589" y2="100.324" stroke="#141414" stroke-width="0.4"/>
<line x1="65.589" y1="100.324" x2="85.333" y2="100.324" stroke="#141414" stroke-width="0.4"/>
<line x1="85.333" y1="100.324" x2="89.564" y2="93.324" stroke="#141414" stroke-width="0.4"/>
<line x1="61.358" y1="63.265" x2="65.589" y2="56.265" stroke="#141414" stroke-width="0.4"/>
<line x1="65.589" y1="56.265" x2="85.333" y2="56.265" stroke="#141414" stroke-width="0.4"/>
<line x1="85.333" y1="56.265" x2="89.564" y2="63.265" stroke="#141414" stroke-width="0.4"/>
<line x1="89.564" y1="93.324" x2="96.564" y2="88.816" stroke="#141414" stroke-width="0.4"/>
<line x1="96.564" y1="88.816" x2="96.564" y2="67.774" stroke="#141414" stroke-width="0.4"/>
<line x1="96.564" y1="67.774" x2="89.564" y2="63.265" stroke="#141414" stroke-width="0.4"/>
<line x1="61.358" y1="121.53" x2="57.135" y2="128.531" stroke="#141414" stroke-width="0.4"/>
<line x1="57.135" y1="128.531" x2="37.429" y2="128.531" stroke="#141414" stroke-width="0.4"/>
<line x1="37.429" y1="128.531" x2="33.206" y2="121.53" stroke="#141414" stroke-width="0.4"/>
<line x1="33.206" y1="93.324" x2="26.206" y2="88.816" stroke="#141414" stroke-width="0.4"/>
<line x1="26.206" y1="88.816" x2="26.206" y2="67.774" stroke="#141414" stroke-width="0.4"/>
<line x1="26.206" y1="67.774" x2="33.206" y2="63.265" stroke="#141414" stroke-width="0.4"/>
<line x1="33.206" y1="93.324" x2="26.206" y2="97.555" stroke="#141414" stroke-width="0.4"/>
<line x1="26.206" y1="97.555" x2="26.206" y2="117.3" stroke="#141414" stroke-width="0.4"/>
<line x1="26.206" y1="117.3" x2="33.206" y2="121.53" stroke="#141414" stroke-width="0.4"/>
<line x1="33.206" y1="63.265" x2="26.206" y2="59.034" stroke="#141414" stroke-width="0.4"/>
<line x1="26.206" y1="59.034" x2="26.206" y2="39.29" stroke="#141414" stroke-width="0.4"/>
<line x1="26.206" y1="39.29" x2="33.206" y2="35.059" stroke="#141414" stroke-width="0.4"/>
<circle cx="75.461" cy="96.824" r="1.58" fill="#99d9fa" stroke="#464646" stroke-width="0.2"/>
<text x="75.461" y="97.37" font-size="1.55" text-anchor="middle" fill="#141414">58</text>
<circle cx="75.461" cy="59.765" r="1.58" fill="#ffe082" stroke="#464646" stroke-width="0.2"/>
<text x="75.461" y="60.31" font-size="1.55" text-anchor="middle" fill="#141414">59</text>
<circle cx="93.064" cy="78.295" r="1.58" fill="#ffe082" stroke="#464646" stroke-width="0.2"/>
<text x="93.064" y="78.84" font-size="1.55" text-anchor="middle" fill="#141414">60</text>
<circle cx="47.282" cy="125.03" r="1.58" fill="#ffe082" stroke="#464646" stroke-width="0.2"/>
<text x="47.282" y="125.57" font-size="1.55" text-anchor="middle" fill="#141414">61</text>
<circle cx="29.706" cy="78.295" r="1.58" fill="#ffe082" stroke="#464646" stroke-width="0.2"/>
<text x="29.706" y="78.84" font-size="1.55" text-anchor="middle" fill="#141414">62</text>
<circle cx="29.706" cy="107.427" r="1.58" fill="#ffe082" stroke="#464646" stroke-width="0.2"/>
<text x="29.706" y="107.97" font-size="1.55" text-anchor="middle" fill="#141414">63</text>
<circle cx="29.706" cy="49.162" r="1.58" fill="#ffe082" stroke="#464646" stroke-width="0.2"/>
<text x="29.706" y="49.70" font-size="1.55" text-anchor="middle" fill="#141414">64</text>
<circle cx="42.59" cy="112.128" r="4.60" fill="#eaf1fe" stroke="#2e78e6" stroke-width="0.3"/>
<text x="42.59" y="113.93" font-size="5.20" text-anchor="middle" fill="#14306e" font-weight="bold">8</text>
<polygon points="143.063,25.383 140.8,17.747 153.337,5.21 160.973,7.473" fill="rgb(216,216,216)"/>
<polygon points="119.947,48.5 117.684,56.136 130.221,68.673 137.857,66.41" fill="rgb(216,216,216)"/>
<polygon points="119.947,48.5 112.311,50.763 99.774,38.226 102.037,30.59" fill="rgb(216,216,216)"/>
<polygon points="160.973,43.293 168.609,45.557 181.147,33.02 178.883,25.383" fill="rgb(216,216,216)"/>
<polygon points="137.857,66.41 135.594,74.046 148.131,86.583 155.767,84.319" fill="rgb(216,216,216)"/>
<polygon points="178.883,25.383 181.147,17.747 168.609,5.21 160.973,7.473" fill="rgb(216,216,216)"/>
<polygon points="196.793,79.113 198.276,87.53 182.094,103.712 173.677,102.229" fill="rgb(216,216,216)"/>
<polygon points="196.793,79.113 198.276,87.53 182.094,103.712 173.677,102.229" fill="#99d9fa"/>
<line x1="119.947" y1="48.5" x2="143.063" y2="25.383" stroke="#8c8c8c" stroke-width="0.3" stroke-dasharray="1.2,0.8"/>
<line x1="160.973" y1="43.293" x2="143.063" y2="25.383" stroke="#8c8c8c" stroke-width="0.3" stroke-dasharray="1.2,0.8"/>
<line x1="160.973" y1="43.293" x2="137.857" y2="66.41" stroke="#8c8c8c" stroke-width="0.3" stroke-dasharray="1.2,0.8"/>
<line x1="178.883" y1="61.203" x2="155.767" y2="84.319" stroke="#8c8c8c" stroke-width="0.3" stroke-dasharray="1.2,0.8"/>
<line x1="173.677" y1="102.229" x2="155.767" y2="84.319" stroke="#8c8c8c" stroke-width="0.3" stroke-dasharray="1.2,0.8"/>
<line x1="160.973" y1="7.473" x2="143.063" y2="25.383" stroke="#8c8c8c" stroke-width="0.3" stroke-dasharray="1.2,0.8"/>
<line x1="137.857" y1="66.41" x2="119.947" y2="48.5" stroke="#8c8c8c" stroke-width="0.3" stroke-dasharray="1.2,0.8"/>
<line x1="102.037" y1="30.59" x2="119.947" y2="48.5" stroke="#8c8c8c" stroke-width="0.3" stroke-dasharray="1.2,0.8"/>
<line x1="178.883" y1="25.383" x2="160.973" y2="43.293" stroke="#8c8c8c" stroke-width="0.3" stroke-dasharray="1.2,0.8"/>
<line x1="155.767" y1="84.319" x2="137.857" y2="66.41" stroke="#8c8c8c" stroke-width="0.3" stroke-dasharray="1.2,0.8"/>
<line x1="160.973" y1="7.473" x2="178.883" y2="25.383" stroke="#8c8c8c" stroke-width="0.3" stroke-dasharray="1.2,0.8"/>
<line x1="173.677" y1="102.229" x2="196.793" y2="79.113" stroke="#8c8c8c" stroke-width="0.3" stroke-dasharray="1.2,0.8"/>
<line x1="125.153" y1="7.473" x2="143.063" y2="25.383" stroke="#141414" stroke-width="0.4"/>
<line x1="155.767" y1="120.139" x2="137.857" y2="102.229" stroke="#141414" stroke-width="0.4"/>
<line x1="173.677" y1="102.229" x2="155.767" y2="120.139" stroke="#141414" stroke-width="0.4"/>
<line x1="160.973" y1="43.293" x2="178.883" y2="61.203" stroke="#141414" stroke-width="0.4"/>
<line x1="137.857" y1="102.229" x2="155.767" y2="84.319" stroke="#141414" stroke-width="0.4"/>
<line x1="178.883" y1="61.203" x2="196.793" y2="79.113" stroke="#141414" stroke-width="0.4"/>
<line x1="102.037" y1="30.59" x2="125.153" y2="7.473" stroke="#141414" stroke-width="0.4"/>
<line x1="143.063" y1="25.383" x2="140.8" y2="17.747" stroke="#141414" stroke-width="0.4"/>
<line x1="140.8" y1="17.747" x2="153.337" y2="5.21" stroke="#141414" stroke-width="0.4"/>
<line x1="153.337" y1="5.21" x2="160.973" y2="7.473" stroke="#141414" stroke-width="0.4"/>
<line x1="119.947" y1="48.5" x2="117.684" y2="56.136" stroke="#141414" stroke-width="0.4"/>
<line x1="117.684" y1="56.136" x2="130.221" y2="68.673" stroke="#141414" stroke-width="0.4"/>
<line x1="130.221" y1="68.673" x2="137.857" y2="66.41" stroke="#141414" stroke-width="0.4"/>
<line x1="119.947" y1="48.5" x2="112.311" y2="50.763" stroke="#141414" stroke-width="0.4"/>
<line x1="112.311" y1="50.763" x2="99.774" y2="38.226" stroke="#141414" stroke-width="0.4"/>
<line x1="99.774" y1="38.226" x2="102.037" y2="30.59" stroke="#141414" stroke-width="0.4"/>
<line x1="160.973" y1="43.293" x2="168.609" y2="45.557" stroke="#141414" stroke-width="0.4"/>
<line x1="168.609" y1="45.557" x2="181.147" y2="33.02" stroke="#141414" stroke-width="0.4"/>
<line x1="181.147" y1="33.02" x2="178.883" y2="25.383" stroke="#141414" stroke-width="0.4"/>
<line x1="137.857" y1="66.41" x2="135.594" y2="74.046" stroke="#141414" stroke-width="0.4"/>
<line x1="135.594" y1="74.046" x2="148.131" y2="86.583" stroke="#141414" stroke-width="0.4"/>
<line x1="148.131" y1="86.583" x2="155.767" y2="84.319" stroke="#141414" stroke-width="0.4"/>
<line x1="178.883" y1="25.383" x2="181.147" y2="17.747" stroke="#141414" stroke-width="0.4"/>
<line x1="181.147" y1="17.747" x2="168.609" y2="5.21" stroke="#141414" stroke-width="0.4"/>
<line x1="168.609" y1="5.21" x2="160.973" y2="7.473" stroke="#141414" stroke-width="0.4"/>
<line x1="196.793" y1="79.113" x2="198.276" y2="87.53" stroke="#141414" stroke-width="0.4"/>
<line x1="198.276" y1="87.53" x2="182.094" y2="103.712" stroke="#141414" stroke-width="0.4"/>
<line x1="182.094" y1="103.712" x2="173.677" y2="102.229" stroke="#141414" stroke-width="0.4"/>
<circle cx="149.543" cy="13.953" r="1.58" fill="#ffe082" stroke="#464646" stroke-width="0.2"/>
<text x="149.543" y="14.49" font-size="1.55" text-anchor="middle" fill="#141414">65</text>
<circle cx="126.427" cy="59.929" r="1.58" fill="#ffe082" stroke="#464646" stroke-width="0.2"/>
<text x="126.427" y="60.47" font-size="1.55" text-anchor="middle" fill="#141414">66</text>
<circle cx="108.517" cy="42.02" r="1.58" fill="#ffe082" stroke="#464646" stroke-width="0.2"/>
<text x="108.517" y="42.56" font-size="1.55" text-anchor="middle" fill="#141414">67</text>
<circle cx="172.403" cy="36.813" r="1.58" fill="#ffe082" stroke="#464646" stroke-width="0.2"/>
<text x="172.403" y="37.35" font-size="1.55" text-anchor="middle" fill="#141414">68</text>
<circle cx="144.337" cy="77.839" r="1.58" fill="#ffe082" stroke="#464646" stroke-width="0.2"/>
<text x="144.337" y="78.38" font-size="1.55" text-anchor="middle" fill="#141414">69</text>
<circle cx="172.403" cy="13.953" r="1.58" fill="#ffe082" stroke="#464646" stroke-width="0.2"/>
<text x="172.403" y="14.49" font-size="1.55" text-anchor="middle" fill="#141414">70</text>
<circle cx="187.71" cy="93.146" r="1.58" fill="#99d9fa" stroke="#464646" stroke-width="0.2"/>
<text x="187.71" y="93.69" font-size="1.55" text-anchor="middle" fill="#141414">71</text>
<circle cx="157.502" cy="70.644" r="4.60" fill="#eaf1fe" stroke="#2e78e6" stroke-width="0.3"/>
<text x="157.502" y="72.44" font-size="5.20" text-anchor="middle" fill="#14306e" font-weight="bold">9</text>
<polygon points="48.5,151.914 46.236,144.278 58.773,131.741 66.409,134.004" fill="rgb(216,216,216)"/>
<polygon points="25.383,175.03 23.12,182.666 35.657,195.203 43.293,192.94" fill="rgb(216,216,216)"/>
<polygon points="25.383,175.03 17.747,177.293 5.21,164.756 7.473,157.12" fill="rgb(216,216,216)"/>
<polygon points="66.409,169.824 74.046,172.087 86.583,159.55 84.319,151.914" fill="rgb(216,216,216)"/>
<polygon points="43.293,192.94 41.03,200.576 53.567,213.113 61.203,210.85" fill="rgb(216,216,216)"/>
<polygon points="84.319,151.914 86.583,144.278 74.046,131.741 66.409,134.004" fill="rgb(216,216,216)"/>
<polygon points="102.229,205.644 103.712,214.061 87.53,230.242 79.113,228.76" fill="rgb(216,216,216)"/>
<polygon points="102.229,205.644 103.712,214.061 87.53,230.242 79.113,228.76" fill="#99d9fa"/>
<line x1="25.383" y1="175.03" x2="48.499" y2="151.914" stroke="#8c8c8c" stroke-width="0.3" stroke-dasharray="1.2,0.8"/>
<line x1="66.409" y1="169.824" x2="48.499" y2="151.914" stroke="#8c8c8c" stroke-width="0.3" stroke-dasharray="1.2,0.8"/>
<line x1="66.409" y1="169.824" x2="43.293" y2="192.94" stroke="#8c8c8c" stroke-width="0.3" stroke-dasharray="1.2,0.8"/>
<line x1="84.319" y1="187.734" x2="61.203" y2="210.85" stroke="#8c8c8c" stroke-width="0.3" stroke-dasharray="1.2,0.8"/>
<line x1="79.113" y1="228.76" x2="61.203" y2="210.85" stroke="#8c8c8c" stroke-width="0.3" stroke-dasharray="1.2,0.8"/>
<line x1="66.409" y1="134.004" x2="48.5" y2="151.914" stroke="#8c8c8c" stroke-width="0.3" stroke-dasharray="1.2,0.8"/>
<line x1="43.293" y1="192.94" x2="25.383" y2="175.03" stroke="#8c8c8c" stroke-width="0.3" stroke-dasharray="1.2,0.8"/>
<line x1="7.473" y1="157.12" x2="25.383" y2="175.03" stroke="#8c8c8c" stroke-width="0.3" stroke-dasharray="1.2,0.8"/>
<line x1="84.319" y1="151.914" x2="66.409" y2="169.824" stroke="#8c8c8c" stroke-width="0.3" stroke-dasharray="1.2,0.8"/>
<line x1="61.203" y1="210.85" x2="43.293" y2="192.94" stroke="#8c8c8c" stroke-width="0.3" stroke-dasharray="1.2,0.8"/>
<line x1="66.409" y1="134.004" x2="84.319" y2="151.914" stroke="#8c8c8c" stroke-width="0.3" stroke-dasharray="1.2,0.8"/>
<line x1="79.113" y1="228.76" x2="102.229" y2="205.644" stroke="#8c8c8c" stroke-width="0.3" stroke-dasharray="1.2,0.8"/>
<line x1="30.59" y1="134.004" x2="48.499" y2="151.914" stroke="#141414" stroke-width="0.4"/>
<line x1="61.203" y1="246.67" x2="43.293" y2="228.76" stroke="#141414" stroke-width="0.4"/>
<line x1="79.113" y1="228.76" x2="61.203" y2="246.67" stroke="#141414" stroke-width="0.4"/>
<line x1="66.409" y1="169.824" x2="84.319" y2="187.734" stroke="#141414" stroke-width="0.4"/>
<line x1="43.293" y1="228.76" x2="61.203" y2="210.85" stroke="#141414" stroke-width="0.4"/>
<line x1="84.319" y1="187.734" x2="102.229" y2="205.644" stroke="#141414" stroke-width="0.4"/>
<line x1="7.473" y1="157.12" x2="30.59" y2="134.004" stroke="#141414" stroke-width="0.4"/>
<line x1="48.5" y1="151.914" x2="46.236" y2="144.278" stroke="#141414" stroke-width="0.4"/>
<line x1="46.236" y1="144.278" x2="58.773" y2="131.741" stroke="#141414" stroke-width="0.4"/>
<line x1="58.773" y1="131.741" x2="66.409" y2="134.004" stroke="#141414" stroke-width="0.4"/>
<line x1="25.383" y1="175.03" x2="23.12" y2="182.666" stroke="#141414" stroke-width="0.4"/>
<line x1="23.12" y1="182.666" x2="35.657" y2="195.203" stroke="#141414" stroke-width="0.4"/>
<line x1="35.657" y1="195.203" x2="43.293" y2="192.94" stroke="#141414" stroke-width="0.4"/>
<line x1="25.383" y1="175.03" x2="17.747" y2="177.293" stroke="#141414" stroke-width="0.4"/>
<line x1="17.747" y1="177.293" x2="5.21" y2="164.756" stroke="#141414" stroke-width="0.4"/>
<line x1="5.21" y1="164.756" x2="7.473" y2="157.12" stroke="#141414" stroke-width="0.4"/>
<line x1="66.409" y1="169.824" x2="74.046" y2="172.087" stroke="#141414" stroke-width="0.4"/>
<line x1="74.046" y1="172.087" x2="86.583" y2="159.55" stroke="#141414" stroke-width="0.4"/>
<line x1="86.583" y1="159.55" x2="84.319" y2="151.914" stroke="#141414" stroke-width="0.4"/>
<line x1="43.293" y1="192.94" x2="41.03" y2="200.576" stroke="#141414" stroke-width="0.4"/>
<line x1="41.03" y1="200.576" x2="53.567" y2="213.113" stroke="#141414" stroke-width="0.4"/>
<line x1="53.567" y1="213.113" x2="61.203" y2="210.85" stroke="#141414" stroke-width="0.4"/>
<line x1="84.319" y1="151.914" x2="86.583" y2="144.278" stroke="#141414" stroke-width="0.4"/>
<line x1="86.583" y1="144.278" x2="74.046" y2="131.741" stroke="#141414" stroke-width="0.4"/>
<line x1="74.046" y1="131.741" x2="66.409" y2="134.004" stroke="#141414" stroke-width="0.4"/>
<line x1="102.229" y1="205.644" x2="103.712" y2="214.061" stroke="#141414" stroke-width="0.4"/>
<line x1="103.712" y1="214.061" x2="87.53" y2="230.242" stroke="#141414" stroke-width="0.4"/>
<line x1="87.53" y1="230.242" x2="79.113" y2="228.76" stroke="#141414" stroke-width="0.4"/>
<circle cx="54.98" cy="140.484" r="1.58" fill="#ffe082" stroke="#464646" stroke-width="0.2"/>
<text x="54.98" y="141.03" font-size="1.55" text-anchor="middle" fill="#141414">79</text>
<circle cx="31.863" cy="186.46" r="1.58" fill="#ffe082" stroke="#464646" stroke-width="0.2"/>
<text x="31.863" y="187.00" font-size="1.55" text-anchor="middle" fill="#141414">80</text>
<circle cx="13.953" cy="168.55" r="1.58" fill="#ffe082" stroke="#464646" stroke-width="0.2"/>
<text x="13.953" y="169.09" font-size="1.55" text-anchor="middle" fill="#141414">81</text>
<circle cx="77.839" cy="163.344" r="1.58" fill="#ffe082" stroke="#464646" stroke-width="0.2"/>
<text x="77.839" y="163.89" font-size="1.55" text-anchor="middle" fill="#141414">82</text>
<circle cx="49.773" cy="204.37" r="1.58" fill="#ffe082" stroke="#464646" stroke-width="0.2"/>
<text x="49.773" y="204.91" font-size="1.55" text-anchor="middle" fill="#141414">83</text>
<circle cx="77.839" cy="140.484" r="1.58" fill="#ffe082" stroke="#464646" stroke-width="0.2"/>
<text x="77.839" y="141.03" font-size="1.55" text-anchor="middle" fill="#141414">84</text>
<circle cx="93.146" cy="219.677" r="1.58" fill="#99d9fa" stroke="#464646" stroke-width="0.2"/>
<text x="93.146" y="220.22" font-size="1.55" text-anchor="middle" fill="#141414">85</text>
<circle cx="62.939" cy="197.175" r="4.60" fill="#eaf1fe" stroke="#2e78e6" stroke-width="0.3"/>
<text x="62.939" y="198.98" font-size="5.20" text-anchor="middle" fill="#14306e" font-weight="bold">11</text>
<polygon points="157.873,208.588 161.726,215.588 179.707,215.588 183.56,208.588" fill="rgb(216,216,216)"/>
<polygon points="157.873,182.902 161.726,175.902 179.707,175.902 183.56,182.902" fill="rgb(216,216,216)"/>
<polygon points="183.56,208.588 190.56,204.736 190.56,186.755 183.56,182.902" fill="rgb(216,216,216)"/>
<polygon points="157.873,234.274 154.021,241.274 136.041,241.274 132.188,234.274" fill="rgb(216,216,216)"/>
<polygon points="132.188,208.588 125.188,204.736 125.188,186.755 132.188,182.902" fill="rgb(216,216,216)"/>
<polygon points="132.188,208.588 125.188,212.441 125.188,230.422 132.188,234.274" fill="rgb(216,216,216)"/>
<polygon points="132.188,182.902 125.188,179.05 125.188,161.069 132.188,157.217" fill="rgb(216,216,216)"/>
<polygon points="157.873,208.588 161.726,215.588 179.707,215.588 183.56,208.588" fill="#99d9fa"/>
<line x1="157.873" y1="208.588" x2="157.873" y2="182.902" stroke="#8c8c8c" stroke-width="0.3" stroke-dasharray="1.2,0.8"/>
<line x1="157.873" y1="208.588" x2="132.188" y2="208.588" stroke="#8c8c8c" stroke-width="0.3" stroke-dasharray="1.2,0.8"/>
<line x1="132.188" y1="182.902" x2="157.873" y2="182.902" stroke="#8c8c8c" stroke-width="0.3" stroke-dasharray="1.2,0.8"/>
<line x1="132.188" y1="157.217" x2="157.873" y2="157.217" stroke="#8c8c8c" stroke-width="0.3" stroke-dasharray="1.2,0.8"/>
<line x1="132.188" y1="157.217" x2="132.188" y2="131.531" stroke="#8c8c8c" stroke-width="0.3" stroke-dasharray="1.2,0.8"/>
<line x1="183.56" y1="208.588" x2="157.873" y2="208.588" stroke="#8c8c8c" stroke-width="0.3" stroke-dasharray="1.2,0.8"/>
<line x1="183.56" y1="182.902" x2="157.873" y2="182.902" stroke="#8c8c8c" stroke-width="0.3" stroke-dasharray="1.2,0.8"/>
<line x1="183.56" y1="182.902" x2="183.56" y2="208.588" stroke="#8c8c8c" stroke-width="0.3" stroke-dasharray="1.2,0.8"/>
<line x1="132.188" y1="234.274" x2="157.873" y2="234.274" stroke="#8c8c8c" stroke-width="0.3" stroke-dasharray="1.2,0.8"/>
<line x1="132.188" y1="182.902" x2="132.188" y2="208.588" stroke="#8c8c8c" stroke-width="0.3" stroke-dasharray="1.2,0.8"/>
<line x1="132.188" y1="234.274" x2="132.188" y2="208.588" stroke="#8c8c8c" stroke-width="0.3" stroke-dasharray="1.2,0.8"/>
<line x1="132.188" y1="157.217" x2="132.188" y2="182.902" stroke="#8c8c8c" stroke-width="0.3" stroke-dasharray="1.2,0.8"/>
<line x1="157.873" y1="208.588" x2="157.873" y2="234.274" stroke="#141414" stroke-width="0.4"/>
<line x1="157.873" y1="157.217" x2="157.873" y2="182.902" stroke="#141414" stroke-width="0.4"/>
<line x1="157.873" y1="131.531" x2="157.873" y2="157.217" stroke="#141414" stroke-width="0.4"/>
<line x1="132.188" y1="131.531" x2="157.873" y2="131.531" stroke="#141414" stroke-width="0.4"/>
<line x1="106.502" y1="157.217" x2="106.502" y2="131.531" stroke="#141414" stroke-width="0.4"/>
<line x1="106.502" y1="131.531" x2="132.188" y2="131.531" stroke="#141414" stroke-width="0.4"/>
<line x1="132.188" y1="157.217" x2="106.502" y2="157.217" stroke="#141414" stroke-width="0.4"/>
<line x1="157.873" y1="208.588" x2="161.726" y2="215.588" stroke="#141414" stroke-width="0.4"/>
<line x1="161.726" y1="215.588" x2="179.707" y2="215.588" stroke="#141414" stroke-width="0.4"/>
<line x1="179.707" y1="215.588" x2="183.56" y2="208.588" stroke="#141414" stroke-width="0.4"/>
<line x1="157.873" y1="182.902" x2="161.726" y2="175.902" stroke="#141414" stroke-width="0.4"/>
<line x1="161.726" y1="175.902" x2="179.707" y2="175.902" stroke="#141414" stroke-width="0.4"/>
<line x1="179.707" y1="175.902" x2="183.56" y2="182.902" stroke="#141414" stroke-width="0.4"/>
<line x1="183.56" y1="208.588" x2="190.56" y2="204.736" stroke="#141414" stroke-width="0.4"/>
<line x1="190.56" y1="204.736" x2="190.56" y2="186.755" stroke="#141414" stroke-width="0.4"/>
<line x1="190.56" y1="186.755" x2="183.56" y2="182.902" stroke="#141414" stroke-width="0.4"/>
<line x1="157.873" y1="234.274" x2="154.021" y2="241.274" stroke="#141414" stroke-width="0.4"/>
<line x1="154.021" y1="241.274" x2="136.041" y2="241.274" stroke="#141414" stroke-width="0.4"/>
<line x1="136.041" y1="241.274" x2="132.188" y2="234.274" stroke="#141414" stroke-width="0.4"/>
<line x1="132.188" y1="208.588" x2="125.188" y2="204.736" stroke="#141414" stroke-width="0.4"/>
<line x1="125.188" y1="204.736" x2="125.188" y2="186.755" stroke="#141414" stroke-width="0.4"/>
<line x1="125.188" y1="186.755" x2="132.188" y2="182.902" stroke="#141414" stroke-width="0.4"/>
<line x1="132.188" y1="208.588" x2="125.188" y2="212.441" stroke="#141414" stroke-width="0.4"/>
<line x1="125.188" y1="212.441" x2="125.188" y2="230.422" stroke="#141414" stroke-width="0.4"/>
<line x1="125.188" y1="230.422" x2="132.188" y2="234.274" stroke="#141414" stroke-width="0.4"/>
<line x1="132.188" y1="182.902" x2="125.188" y2="179.05" stroke="#141414" stroke-width="0.4"/>
<line x1="125.188" y1="179.05" x2="125.188" y2="161.069" stroke="#141414" stroke-width="0.4"/>
<line x1="125.188" y1="161.069" x2="132.188" y2="157.217" stroke="#141414" stroke-width="0.4"/>
<circle cx="170.716" cy="212.088" r="1.58" fill="#99d9fa" stroke="#464646" stroke-width="0.2"/>
<text x="170.716" y="212.63" font-size="1.55" text-anchor="middle" fill="#141414">86</text>
<circle cx="170.716" cy="179.402" r="1.58" fill="#ffe082" stroke="#464646" stroke-width="0.2"/>
<text x="170.716" y="179.94" font-size="1.55" text-anchor="middle" fill="#141414">87</text>
<circle cx="187.06" cy="195.745" r="1.58" fill="#ffe082" stroke="#464646" stroke-width="0.2"/>
<text x="187.06" y="196.29" font-size="1.55" text-anchor="middle" fill="#141414">88</text>
<circle cx="145.031" cy="237.774" r="1.58" fill="#ffe082" stroke="#464646" stroke-width="0.2"/>
<text x="145.031" y="238.32" font-size="1.55" text-anchor="middle" fill="#141414">89</text>
<circle cx="128.688" cy="195.745" r="1.58" fill="#ffe082" stroke="#464646" stroke-width="0.2"/>
<text x="128.688" y="196.29" font-size="1.55" text-anchor="middle" fill="#141414">90</text>
<circle cx="128.688" cy="221.431" r="1.58" fill="#ffe082" stroke="#464646" stroke-width="0.2"/>
<text x="128.688" y="221.97" font-size="1.55" text-anchor="middle" fill="#141414">91</text>
<circle cx="128.688" cy="170.059" r="1.58" fill="#ffe082" stroke="#464646" stroke-width="0.2"/>
<text x="128.688" y="170.60" font-size="1.55" text-anchor="middle" fill="#141414">92</text>
<circle cx="140.75" cy="225.712" r="4.60" fill="#eaf1fe" stroke="#2e78e6" stroke-width="0.3"/>
<text x="140.75" y="227.51" font-size="5.20" text-anchor="middle" fill="#14306e" font-weight="bold">12</text>
<text x="205.0" y="295.0" font-size="3.2" text-anchor="end" fill="#737373" font-family="sans-serif">4 / 6</text>
</svg>
