<svg xmlns="http://www.w3.org/2000/svg" xmlns:xlink="http://www.w3.org/1999/xlink" width="210.00mm" height="297.00mm" viewBox="0 0 210.00 297.00">
<rect x="0" y="0" width="210.00" height="297.00" fill="#ffffff" stroke="#cccccc" stroke-width="0.2"/>
<polygon points="44.222,78.548 35.576,79.486 23.462,100.3 26.916,108.282" fill="rgb(216,216,216)"/>
<polygon points="26.916,108.282 38.733,112.669 42.618,111.746 51.199,102.512" fill="rgb(216,216,216)"/>
<polygon points="12.127,66.157 18.608,55.346 22.218,53.638 34.688,55.481" fill="rgb(216,216,216)"/>
<polygon points="9.944,52.209 5.272,45.448 13.367,27.063 21.509,25.944" fill="rgb(216,216,216)"/>
<polygon points="105.38,104.071 108.834,112.052 96.72,132.866 88.074,133.805" fill="rgb(216,216,216)"/>
<polygon points="105.38,104.071 93.564,99.684 89.678,100.607 81.097,109.841" fill="rgb(216,216,216)"/>
<polygon points="76.004,20.395 69.523,31.206 65.913,32.915 53.443,31.072" fill="rgb(216,216,216)"/>
<polygon points="95.321,60.608 91.016,53.608 70.927,53.608 66.622,60.608" fill="rgb(216,216,216)"/>
<polygon points="95.321,60.608 96.336,68.763 80.656,81.32 72.92,78.548" fill="rgb(216,216,216)"/>
<polygon points="43.909,8.005 36.173,5.232 20.493,17.789 21.509,25.944" fill="rgb(216,216,216)"/>
<polygon points="88.074,133.805 83.769,140.805 63.681,140.805 59.376,133.805" fill="rgb(216,216,216)"/>
<polygon points="12.127,66.157 18.608,55.346 22.218,53.638 34.688,55.481" fill="#99d9fa"/>
<line x1="51.199" y1="102.512" x2="44.222" y2="78.548" stroke="#8c8c8c" stroke-width="0.3" stroke-dasharray="1.2,0.8"/>
<line x1="34.688" y1="55.481" x2="44.222" y2="78.548" stroke="#8c8c8c" stroke-width="0.3" stroke-dasharray="1.2,0.8"/>
<line x1="66.623" y1="60.608" x2="44.222" y2="78.548" stroke="#8c8c8c" stroke-width="0.3" stroke-dasharray="1.2,0.8"/>
<line x1="44.222" y1="78.548" x2="72.92" y2="78.548" stroke="#8c8c8c" stroke-width="0.3" stroke-dasharray="1.2,0.8"/>
<line x1="59.376" y1="133.805" x2="33.931" y2="120.534" stroke="#8c8c8c" stroke-width="0.3" stroke-dasharray="1.2,0.8"/>
<line x1="81.097" y1="109.841" x2="88.074" y2="133.805" stroke="#8c8c8c" stroke-width="0.3" stroke-dasharray="1.2,0.8"/>
<line x1="53.443" y1="31.072" x2="43.909" y2="8.005" stroke="#8c8c8c" stroke-width="0.3" stroke-dasharray="1.2,0.8"/>
<line x1="81.097" y1="109.841" x2="51.199" y2="102.512" stroke="#8c8c8c" stroke-width="0.3" stroke-dasharray="1.2,0.8"/>
<line x1="59.376" y1="133.805" x2="81.097" y2="109.841" stroke="#8c8c8c" stroke-width="0.3" stroke-dasharray="1.2,0.8"/>
<line x1="72.92" y1="78.548" x2="81.097" y2="109.841" stroke="#8c8c8c" stroke-width="0.3" stroke-dasharray="1.2,0.8"/>
<line x1="51.199" y1="102.512" x2="59.376" y2="133.805" stroke="#8c8c8c" stroke-width="0.3" stroke-dasharray="1.2,0.8"/>
<line x1="72.92" y1="78.548" x2="51.199" y2="102.512" stroke="#8c8c8c" stroke-width="0.3" stroke-dasharray="1.2,0.8"/>
<line x1="34.688" y1="55.481" x2="53.443" y2="31.072" stroke="#8c8c8c" stroke-width="0.3" stroke-dasharray="1.2,0.8"/>
<line x1="53.443" y1="31.072" x2="21.509" y2="25.944" stroke="#8c8c8c" stroke-width="0.3" stroke-dasharray="1.2,0.8"/>
<line x1="53.443" y1="31.072" x2="66.623" y2="60.608" stroke="#8c8c8c" stroke-width="0.3" stroke-dasharray="1.2,0.8"/>
<line x1="21.509" y1="25.944" x2="34.688" y2="55.481" stroke="#8c8c8c" stroke-width="0.3" stroke-dasharray="1.2,0.8"/>
<line x1="34.688" y1="55.481" x2="66.623" y2="60.608" stroke="#8c8c8c" stroke-width="0.3" stroke-dasharray="1.2,0.8"/>
<line x1="45.496" y1="146.798" x2="59.376" y2="133.805" stroke="#8c8c8c" stroke-width="0.3" stroke-dasharray="1.2,0.8"/>
<line x1="66.623" y1="60.608" x2="72.92" y2="78.548" stroke="#8c8c8c" stroke-width="0.3" stroke-dasharray="1.2,0.8"/>
<line x1="26.916" y1="108.282" x2="44.222" y2="78.548" stroke="#8c8c8c" stroke-width="0.3" stroke-dasharray="1.2,0.8"/>
<line x1="51.199" y1="102.512" x2="26.916" y2="108.282" stroke="#8c8c8c" stroke-width="0.3" stroke-dasharray="1.2,0.8"/>
<line x1="34.688" y1="55.481" x2="12.127" y2="66.157" stroke="#8c8c8c" stroke-width="0.3" stroke-dasharray="1.2,0.8"/>
<line x1="21.509" y1="25.944" x2="9.944" y2="52.209" stroke="#8c8c8c" stroke-width="0.3" stroke-dasharray="1.2,0.8"/>
<line x1="88.074" y1="133.805" x2="105.38" y2="104.071" stroke="#8c8c8c" stroke-width="0.3" stroke-dasharray="1.2,0.8"/>
<line x1="81.097" y1="109.841" x2="105.38" y2="104.071" stroke="#8c8c8c" stroke-width="0.3" stroke-dasharray="1.2,0.8"/>
<line x1="53.443" y1="31.072" x2="76.004" y2="20.395" stroke="#8c8c8c" stroke-width="0.3" stroke-dasharray="1.2,0.8"/>
<line x1="66.622" y1="60.608" x2="95.321" y2="60.608" stroke="#8c8c8c" stroke-width="0.3" stroke-dasharray="1.2,0.8"/>
<line x1="72.92" y1="78.548" x2="95.321" y2="60.608" stroke="#8c8c8c" stroke-width="0.3" stroke-dasharray="1.2,0.8"/>
<line x1="21.509" y1="25.944" x2="43.909" y2="8.005" stroke="#8c8c8c" stroke-width="0.3" stroke-dasharray="1.2,0.8"/>
<line x1="59.376" y1="133.805" x2="88.074" y2="133.805" stroke="#8c8c8c" stroke-width="0.3" stroke-dasharray="1.2,0.8"/>
<line x1="44.222" y1="78.548" x2="12.127" y2="66.157" stroke="#141414" stroke-width="0.4"/>
<line x1="33.931" y1="120.534" x2="51.199" y2="102.512" stroke="#141414" stroke-width="0.4"/>
<line x1="34.688" y1="55.481" x2="9.944" y2="52.209" stroke="#141414" stroke-width="0.4"/>
<line x1="45.496" y1="146.798" x2="33.931" y2="120.534" stroke="#141414" stroke-width="0.4"/>
<line x1="43.909" y1="8.005" x2="76.004" y2="20.395" stroke="#141414" stroke-width="0.4"/>
<line x1="98.366" y1="91.819" x2="81.097" y2="109.841" stroke="#141414" stroke-width="0.4"/>
<line x1="53.443" y1="31.072" x2="78.187" y2="34.344" stroke="#141414" stroke-width="0.4"/>
<line x1="78.187" y1="34.344" x2="66.623" y2="60.608" stroke="#141414" stroke-width="0.4"/>
<line x1="72.92" y1="78.548" x2="98.366" y2="91.819" stroke="#141414" stroke-width="0.4"/>
<line x1="70.941" y1="160.07" x2="45.496" y2="146.798" stroke="#141414" stroke-width="0.4"/>
<line x1="59.376" y1="133.805" x2="70.941" y2="160.07" stroke="#141414" stroke-width="0.4"/>
<line x1="44.222" y1="78.548" x2="35.576" y2="79.486" stroke="#141414" stroke-width="0.4"/>
<line x1="35.576" y1="79.486" x2="23.462" y2="100.3" stroke="#141414" stroke-width="0.4"/>
<line x1="23.462" y1="100.3" x2="26.916" y2="108.282" stroke="#141414" stroke-width="0.4"/>
<line x1="26.916" y1="108.282" x2="38.733" y2="112.669" stroke="#141414" stroke-width="0.4"/>
<line x1="38.733" y1="112.669" x2="42.618" y2="111.746" stroke="#141414" stroke-width="0.4"/>
<line x1="42.618" y1="111.746" x2="51.199" y2="102.512" stroke="#141414" stroke-width="0.4"/>
<line x1="12.127" y1="66.157" x2="18.608" y2="55.346" stroke="#141414" stroke-width="0.4"/>
<line x1="18.608" y1="55.346" x2="22.218" y2="53.638" stroke="#141414" stroke-width="0.4"/>
<line x1="22.218" y1="53.638" x2="34.688" y2="55.481" stroke="#141414" stroke-width="0.4"/>
<line x1="9.944" y1="52.209" x2="5.272" y2="45.448" stroke="#141414" stroke-width="0.4"/>
<line x1="5.272" y1="45.448" x2="13.367" y2="27.063" stroke="#141414" stroke-width="0.4"/>
<line x1="13.367" y1="27.063" x2="21.509" y2="25.944" stroke="#141414" stroke-width="0.4"/>
<line x1="105.38" y1="104.071" x2="108.834" y2="112.052" stroke="#141414" stroke-width="0.4"/>
<line x1="108.834" y1="112.052" x2="96.72" y2="132.866" stroke="#141414" stroke-width="0.4"/>
<line x1="96.72" y1="132.866" x2="88.074" y2="133.805" stroke="#141414" stroke-width="0.4"/>
<line x1="105.38" y1="104.071" x2="93.564" y2="99.684" stroke="#141414" stroke-width="0.4"/>
<line x1="93.564" y1="99.684" x2="89.678" y2="100.607" stroke="#141414" stroke-width="0.4"/>
<line x1="89.678" y1="100.607" x2="81.097" y2="109.841" stroke="#141414" stroke-width="0.4"/>
<line x1="76.004" y1="20.395" x2="69.523" y2="31.206" stroke="#141414" stroke-width="0.4"/>
<line x1="69.523" y1="31.206" x2="65.913" y2="32.915" stroke="#141414" stroke-width="0.4"/>
<line x1="65.913" y1="32.915" x2="53.443" y2="31.072" stroke="#141414" stroke-width="0.4"/>
<line x1="95.321" y1="60.608" x2="91.016" y2="53.608" stroke="#141414" stroke-width="0.4"/>
<line x1="91.016" y1="53.608" x2="70.927" y2="53.608" stroke="#141414" stroke-width="0.4"/>
<line x1="70.927" y1="53.608" x2="66.622" y2="60.608" stroke="#141414" stroke-width="0.4"/>
<line x1="95.321" y1="60.608" x2="96.336" y2="68.763" stroke="#141414" stroke-width="0.4"/>
<line x1="96.336" y1="68.763" x2="80.656" y2="81.32" stroke="#141414" stroke-width="0.4"/>
<line x1="80.656" y1="81.32" x2="72.92" y2="78.548" stroke="#141414" stroke-width="0.4"/>
<line x1="43.909" y1="8.005" x2="36.173" y2="5.232" stroke="#141414" stroke-width="0.4"/>
<line x1="36.173" y1="5.232" x2="20.493" y2="17.789" stroke="#141414" stroke-width="0.4"/>
<line x1="20.493" y1="17.789" x2="21.509" y2="25.944" stroke="#141414" stroke-width="0.4"/>
<line x1="88.074" y1="133.805" x2="83.769" y2="140.805" stroke="#141414" stroke-width="0.4"/>
<line x1="83.769" y1="140.805" x2="63.681" y2="140.805" stroke="#141414" stroke-width="0.4"/>
<line x1="63.681" y1="140.805" x2="59.376" y2="133.805" stroke="#141414" stroke-width="0.4"/>
<circle cx="32.544" cy="91.654" r="1.10" fill="#ffe082" stroke="#464646" stroke-width="0.2"/>
<text x="32.544" y="92.03" font-size="1.08" text-anchor="middle" fill="#141414">12</text>
<circle cx="39.867" cy="108.802" r="1.10" fill="#ffe082" stroke="#464646" stroke-width="0.2"/>
<text x="39.867" y="109.18" font-size="1.08" text-anchor="middle" fill="#141414">13</text>
<circle cx="21.91" cy="57.655" r="1.10" fill="#99d9fa" stroke="#464646" stroke-width="0.2"/>
<text x="21.91" y="58.03" font-size="1.08" text-anchor="middle" fill="#141414">14</text>
<circle cx="12.523" cy="37.666" r="1.10" fill="#ffe082" stroke="#464646" stroke-width="0.2"/>
<text x="12.523" y="38.04" font-size="1.08" text-anchor="middle" fill="#141414">15</text>
<circle cx="99.752" cy="120.699" r="1.10" fill="#ffe082" stroke="#464646" stroke-width="0.2"/>
<text x="99.752" y="121.08" font-size="1.08" text-anchor="middle" fill="#141414">16</text>
<circle cx="92.43" cy="103.551" r="1.10" fill="#ffe082" stroke="#464646" stroke-width="0.2"/>
<text x="92.43" y="103.93" font-size="1.08" text-anchor="middle" fill="#141414">17</text>
<circle cx="66.221" cy="28.897" r="1.10" fill="#ffe082" stroke="#464646" stroke-width="0.2"/>
<text x="66.221" y="29.28" font-size="1.08" text-anchor="middle" fill="#141414">18</text>
<circle cx="80.972" cy="57.108" r="1.10" fill="#ffe082" stroke="#464646" stroke-width="0.2"/>
<text x="80.972" y="57.49" font-size="1.08" text-anchor="middle" fill="#141414">19</text>
<circle cx="86.308" cy="72.31" r="1.10" fill="#ffe082" stroke="#464646" stroke-width="0.2"/>
<text x="86.308" y="72.69" font-size="1.08" text-anchor="middle" fill="#141414">20</text>
<circle cx="30.521" cy="14.243" r="1.10" fill="#ffe082" stroke="#464646" stroke-width="0.2"/>
<text x="30.521" y="14.62" font-size="1.08" text-anchor="middle" fill="#141414">21</text>
<circle cx="73.725" cy="137.305" r="1.10" fill="#ffe082" stroke="#464646" stroke-width="0.2"/>
<text x="73.725" y="137.68" font-size="1.08" text-anchor="middle" fill="#141414">22</text>
<circle cx="56.781" cy="165.938" r="4.6" fill="#eaf1fe" stroke="#2e78e6" stroke-width="0.3"/>
<text x="56.781" y="167.738" font-size="5.2" text-anchor="middle" fill="#14306e" font-weight="bold">2</text>
<polygon points="139.817,38.256 132.562,39.225 129.432,35.3 131.991,28.442" fill="rgb(216,216,216)"/>
<polygon points="152.37,38.256 159.625,39.226 162.756,35.3 160.197,28.442" fill="rgb(216,216,216)"/>
<polygon points="146.537,64.581 147.875,68.793 148.872,69.197 152.766,67.108" fill="rgb(216,216,216)"/>
<polygon points="160.197,28.442 165.897,25.21 163.942,16.643 157.404,16.204" fill="rgb(216,216,216)"/>
<polygon points="157.404,16.204 158.43,9.732 150.513,5.92 146.094,10.758" fill="rgb(216,216,216)"/>
<polygon points="152.766,67.108 150.422,69.678 152.413,72.477 155.61,71.105" fill="rgb(216,216,216)"/>
<polygon points="180.516,61.033 179.404,69.034 161.971,76.084 155.61,71.105" fill="rgb(216,216,216)"/>
<polygon points="146.094,10.758 141.674,5.92 133.757,9.732 134.784,16.204" fill="rgb(216,216,216)"/>
<polygon points="136.406,71.207 138.82,72.08 140.15,69.951 138.305,68.165" fill="rgb(216,216,216)"/>
<polygon points="134.784,16.204 128.246,16.643 126.291,25.21 131.991,28.442" fill="rgb(216,216,216)"/>
<polygon points="138.305,68.165 139.467,69.037 140.82,66.142 141.1,65.917" fill="rgb(216,216,216)"/>
<polygon points="160.197,28.442 165.897,25.21 163.942,16.643 157.404,16.204" fill="#99d9fa"/>
<line x1="139.817" y1="38.257" x2="152.37" y2="38.257" stroke="#8c8c8c" stroke-width="0.3" stroke-dasharray="1.2,0.8"/>
<line x1="146.537" y1="64.581" x2="139.817" y2="38.257" stroke="#8c8c8c" stroke-width="0.3" stroke-dasharray="1.2,0.8"/>
<line x1="139.817" y1="38.257" x2="141.1" y2="65.917" stroke="#8c8c8c" stroke-width="0.3" stroke-dasharray="1.2,0.8"/>
<line x1="152.37" y1="38.257" x2="146.537" y2="64.581" stroke="#8c8c8c" stroke-width="0.3" stroke-dasharray="1.2,0.8"/>
<line x1="164.217" y1="42.408" x2="146.537" y2="64.581" stroke="#8c8c8c" stroke-width="0.3" stroke-dasharray="1.2,0.8"/>
<line x1="141.1" y1="65.917" x2="146.537" y2="64.581" stroke="#8c8c8c" stroke-width="0.3" stroke-dasharray="1.2,0.8"/>
<line x1="164.217" y1="42.408" x2="152.766" y2="67.108" stroke="#8c8c8c" stroke-width="0.3" stroke-dasharray="1.2,0.8"/>
<line x1="173.951" y1="50.334" x2="152.766" y2="67.108" stroke="#8c8c8c" stroke-width="0.3" stroke-dasharray="1.2,0.8"/>
<line x1="118.21" y1="50.334" x2="138.305" y2="68.165" stroke="#8c8c8c" stroke-width="0.3" stroke-dasharray="1.2,0.8"/>
<line x1="127.992" y1="42.467" x2="141.1" y2="65.917" stroke="#8c8c8c" stroke-width="0.3" stroke-dasharray="1.2,0.8"/>
<line x1="180.516" y1="61.033" x2="152.766" y2="67.108" stroke="#8c8c8c" stroke-width="0.3" stroke-dasharray="1.2,0.8"/>
<line x1="131.991" y1="28.442" x2="139.817" y2="38.256" stroke="#8c8c8c" stroke-width="0.3" stroke-dasharray="1.2,0.8"/>
<line x1="160.197" y1="28.442" x2="152.37" y2="38.256" stroke="#8c8c8c" stroke-width="0.3" stroke-dasharray="1.2,0.8"/>
<line x1="152.766" y1="67.108" x2="146.537" y2="64.581" stroke="#8c8c8c" stroke-width="0.3" stroke-dasharray="1.2,0.8"/>
<line x1="157.404" y1="16.204" x2="160.197" y2="28.442" stroke="#8c8c8c" stroke-width="0.3" stroke-dasharray="1.2,0.8"/>
<line x1="146.094" y1="10.758" x2="157.404" y2="16.204" stroke="#8c8c8c" stroke-width="0.3" stroke-dasharray="1.2,0.8"/>
<line x1="155.61" y1="71.105" x2="152.766" y2="67.108" stroke="#8c8c8c" stroke-width="0.3" stroke-dasharray="1.2,0.8"/>
<line x1="155.61" y1="71.105" x2="180.516" y2="61.033" stroke="#8c8c8c" stroke-width="0.3" stroke-dasharray="1.2,0.8"/>
<line x1="134.784" y1="16.204" x2="146.094" y2="10.758" stroke="#8c8c8c" stroke-width="0.3" stroke-dasharray="1.2,0.8"/>
<line x1="138.305" y1="68.165" x2="136.406" y2="71.207" stroke="#8c8c8c" stroke-width="0.3" stroke-dasharray="1.2,0.8"/>
<line x1="131.991" y1="28.442" x2="134.784" y2="16.204" stroke="#8c8c8c" stroke-width="0.3" stroke-dasharray="1.2,0.8"/>
<line x1="141.1" y1="65.917" x2="138.305" y2="68.165" stroke="#8c8c8c" stroke-width="0.3" stroke-dasharray="1.2,0.8"/>
<line x1="127.992" y1="42.467" x2="139.817" y2="38.257" stroke="#141414" stroke-width="0.4"/>
<line x1="152.37" y1="38.257" x2="164.217" y2="42.408" stroke="#141414" stroke-width="0.4"/>
<line x1="146.537" y1="64.581" x2="147.632" y2="71.213" stroke="#141414" stroke-width="0.4"/>
<line x1="164.217" y1="42.408" x2="173.951" y2="50.334" stroke="#141414" stroke-width="0.4"/>
<line x1="173.951" y1="50.334" x2="180.516" y2="61.033" stroke="#141414" stroke-width="0.4"/>
<line x1="147.632" y1="71.213" x2="142.815" y2="72.148" stroke="#141414" stroke-width="0.4"/>
<line x1="136.405" y1="71.207" x2="111.562" y2="60.982" stroke="#141414" stroke-width="0.4"/>
<line x1="111.562" y1="60.982" x2="118.21" y2="50.334" stroke="#141414" stroke-width="0.4"/>
<line x1="142.815" y1="72.148" x2="140.457" y2="69.445" stroke="#141414" stroke-width="0.4"/>
<line x1="118.21" y1="50.334" x2="127.992" y2="42.467" stroke="#141414" stroke-width="0.4"/>
<line x1="140.457" y1="69.445" x2="141.1" y2="65.917" stroke="#141414" stroke-width="0.4"/>
<line x1="139.817" y1="38.256" x2="132.562" y2="39.225" stroke="#141414" stroke-width="0.4"/>
<line x1="132.562" y1="39.225" x2="129.432" y2="35.3" stroke="#141414" stroke-width="0.4"/>
<line x1="129.432" y1="35.3" x2="131.991" y2="28.442" stroke="#141414" stroke-width="0.4"/>
<line x1="152.37" y1="38.256" x2="159.625" y2="39.226" stroke="#141414" stroke-width="0.4"/>
<line x1="159.625" y1="39.226" x2="162.756" y2="35.3" stroke="#141414" stroke-width="0.4"/>
<line x1="162.756" y1="35.3" x2="160.197" y2="28.442" stroke="#141414" stroke-width="0.4"/>
<line x1="146.537" y1="64.581" x2="147.875" y2="68.793" stroke="#141414" stroke-width="0.4"/>
<line x1="147.875" y1="68.793" x2="148.872" y2="69.197" stroke="#141414" stroke-width="0.4"/>
<line x1="148.872" y1="69.197" x2="152.766" y2="67.108" stroke="#141414" stroke-width="0.4"/>
<line x1="160.197" y1="28.442" x2="165.897" y2="25.21" stroke="#141414" stroke-width="0.4"/>
<line x1="165.897" y1="25.21" x2="163.942" y2="16.643" stroke="#141414" stroke-width="0.4"/>
<line x1="163.942" y1="16.643" x2="157.404" y2="16.204" stroke="#141414" stroke-width="0.4"/>
<line x1="157.404" y1="16.204" x2="158.43" y2="9.732" stroke="#141414" stroke-width="0.4"/>
<line x1="158.43" y1="9.732" x2="150.513" y2="5.92" stroke="#141414" stroke-width="0.4"/>
<line x1="150.513" y1="5.92" x2="146.094" y2="10.758" stroke="#141414" stroke-width="0.4"/>
<line x1="152.766" y1="67.108" x2="150.422" y2="69.678" stroke="#141414" stroke-width="0.4"/>
<line x1="150.422" y1="69.678" x2="152.413" y2="72.477" stroke="#141414" stroke-width="0.4"/>
<line x1="152.413" y1="72.477" x2="155.61" y2="71.105" stroke="#141414" stroke-width="0.4"/>
<line x1="180.516" y1="61.033" x2="179.404" y2="69.034" stroke="#141414" stroke-width="0.4"/>
<line x1="179.404" y1="69.034" x2="161.971" y2="76.084" stroke="#141414" stroke-width="0.4"/>
<line x1="161.971" y1="76.084" x2="155.61" y2="71.105" stroke="#141414" stroke-width="0.4"/>
<line x1="146.094" y1="10.758" x2="141.674" y2="5.92" stroke="#141414" stroke-width="0.4"/>
<line x1="141.674" y1="5.92" x2="133.757" y2="9.732" stroke="#141414" stroke-width="0.4"/>
<line x1="133.757" y1="9.732" x2="134.784" y2="16.204" stroke="#141414" stroke-width="0.4"/>
<line x1="136.406" y1="71.207" x2="138.82" y2="72.08" stroke="#141414" stroke-width="0.4"/>
<line x1="138.82" y1="72.08" x2="140.15" y2="69.951" stroke="#141414" stroke-width="0.4"/>
<line x1="140.15" y1="69.951" x2="138.305" y2="68.165" stroke="#141414" stroke-width="0.4"/>
<line x1="134.784" y1="16.204" x2="128.246" y2="16.643" stroke="#141414" stroke-width="0.4"/>
<line x1="128.246" y1="16.643" x2="126.291" y2="25.21" stroke="#141414" stroke-width="0.4"/>
<line x1="126.291" y1="25.21" x2="131.991" y2="28.442" stroke="#141414" stroke-width="0.4"/>
<line x1="138.305" y1="68.165" x2="139.467" y2="69.037" stroke="#141414" stroke-width="0.4"/>
<line x1="139.467" y1="69.037" x2="140.82" y2="66.142" stroke="#141414" stroke-width="0.4"/>
<line x1="140.82" y1="66.142" x2="141.1" y2="65.917" stroke="#141414" stroke-width="0.4"/>
<circle cx="133.451" cy="35.306" r="1.10" fill="#ffe082" stroke="#464646" stroke-width="0.2"/>
<text x="133.451" y="35.68" font-size="1.08" text-anchor="middle" fill="#141414">23</text>
<circle cx="158.737" cy="35.306" r="1.10" fill="#ffe082" stroke="#464646" stroke-width="0.2"/>
<text x="158.737" y="35.68" font-size="1.08" text-anchor="middle" fill="#141414">24</text>
<circle cx="149.012" cy="67.42" r="1.10" fill="#ffe082" stroke="#464646" stroke-width="0.2"/>
<text x="149.012" y="67.80" font-size="1.08" text-anchor="middle" fill="#141414">25</text>
<circle cx="161.86" cy="21.625" r="1.10" fill="#99d9fa" stroke="#464646" stroke-width="0.2"/>
<text x="161.86" y="22.00" font-size="1.08" text-anchor="middle" fill="#141414">26</text>
<circle cx="153.11" cy="10.653" r="1.10" fill="#ffe082" stroke="#464646" stroke-width="0.2"/>
<text x="153.11" y="11.03" font-size="1.08" text-anchor="middle" fill="#141414">27</text>
<circle cx="152.803" cy="70.092" r="1.10" fill="#ffe082" stroke="#464646" stroke-width="0.2"/>
<text x="152.803" y="70.47" font-size="1.08" text-anchor="middle" fill="#141414">28</text>
<circle cx="169.375" cy="69.314" r="1.10" fill="#ffe082" stroke="#464646" stroke-width="0.2"/>
<text x="169.375" y="69.69" font-size="1.08" text-anchor="middle" fill="#141414">29</text>
<circle cx="139.077" cy="10.653" r="1.10" fill="#ffe082" stroke="#464646" stroke-width="0.2"/>
<text x="139.077" y="11.03" font-size="1.08" text-anchor="middle" fill="#141414">30</text>
<circle cx="138.42" cy="70.351" r="1.10" fill="#ffe082" stroke="#464646" stroke-width="0.2"/>
<text x="138.42" y="70.73" font-size="1.08" text-anchor="middle" fill="#141414">31</text>
<circle cx="130.328" cy="21.625" r="1.10" fill="#ffe082" stroke="#464646" stroke-width="0.2"/>
<text x="130.328" y="22.00" font-size="1.08" text-anchor="middle" fill="#141414">32</text>
<circle cx="146.039" cy="81.264" r="4.6" fill="#eaf1fe" stroke="#2e78e6" stroke-width="0.3"/>
<text x="146.039" y="83.064" font-size="5.2" text-anchor="middle" fill="#14306e" font-weight="bold">3</text>
<polygon points="33.255,196.094 26.0,197.063 22.869,193.138 25.428,186.28" fill="rgb(216,216,216)"/>
<polygon points="45.808,196.094 53.063,197.064 56.194,193.138 53.634,186.28" fill="rgb(216,216,216)"/>
<polygon points="39.974,222.419 41.313,226.631 42.309,227.035 46.204,224.946" fill="rgb(216,216,216)"/>
<polygon points="53.634,186.28 59.335,183.048 57.379,174.481 50.841,174.042" fill="rgb(216,216,216)"/>
<polygon points="50.841,174.042 51.868,167.57 43.951,163.758 39.532,168.596" fill="rgb(216,216,216)"/>
<polygon points="46.204,224.946 43.86,227.516 45.851,230.315 49.048,228.943" fill="rgb(216,216,216)"/>
<polygon points="73.953,218.871 72.842,226.872 55.408,233.922 49.048,228.943" fill="rgb(216,216,216)"/>
<polygon points="39.532,168.596 35.112,163.758 27.195,167.57 28.222,174.042" fill="rgb(216,216,216)"/>
<polygon points="29.843,229.045 32.258,229.918 33.587,227.789 31.742,226.003" fill="rgb(216,216,216)"/>
<polygon points="28.222,174.042 21.684,174.481 19.728,183.048 25.428,186.28" fill="rgb(216,216,216)"/>
<polygon points="31.742,226.003 32.904,226.875 34.258,223.98 34.537,223.755" fill="rgb(216,216,216)"/>
<polygon points="39.532,168.596 35.112,163.758 27.195,167.57 28.222,174.042" fill="#99d9fa"/>
<line x1="33.255" y1="196.094" x2="45.808" y2="196.094" stroke="#8c8c8c" stroke-width="0.3" stroke-dasharray="1.2,0.8"/>
<line x1="39.974" y1="222.419" x2="33.255" y2="196.094" stroke="#8c8c8c" stroke-width="0.3" stroke-dasharray="1.2,0.8"/>
<line x1="33.255" y1="196.094" x2="34.537" y2="223.755" stroke="#8c8c8c" stroke-width="0.3" stroke-dasharray="1.2,0.8"/>
<line x1="45.808" y1="196.094" x2="39.974" y2="222.419" stroke="#8c8c8c" stroke-width="0.3" stroke-dasharray="1.2,0.8"/>
<line x1="57.654" y1="200.246" x2="39.974" y2="222.419" stroke="#8c8c8c" stroke-width="0.3" stroke-dasharray="1.2,0.8"/>
<line x1="34.537" y1="223.755" x2="39.974" y2="222.419" stroke="#8c8c8c" stroke-width="0.3" stroke-dasharray="1.2,0.8"/>
<line x1="57.654" y1="200.246" x2="46.203" y2="224.946" stroke="#8c8c8c" stroke-width="0.3" stroke-dasharray="1.2,0.8"/>
<line x1="67.388" y1="208.172" x2="46.203" y2="224.946" stroke="#8c8c8c" stroke-width="0.3" stroke-dasharray="1.2,0.8"/>
<line x1="11.648" y1="208.172" x2="31.742" y2="226.003" stroke="#8c8c8c" stroke-width="0.3" stroke-dasharray="1.2,0.8"/>
<line x1="21.429" y1="200.305" x2="34.537" y2="223.755" stroke="#8c8c8c" stroke-width="0.3" stroke-dasharray="1.2,0.8"/>
<line x1="73.953" y1="218.871" x2="46.203" y2="224.946" stroke="#8c8c8c" stroke-width="0.3" stroke-dasharray="1.2,0.8"/>
<line x1="25.428" y1="186.28" x2="33.255" y2="196.094" stroke="#8c8c8c" stroke-width="0.3" stroke-dasharray="1.2,0.8"/>
<line x1="53.634" y1="186.28" x2="45.808" y2="196.094" stroke="#8c8c8c" stroke-width="0.3" stroke-dasharray="1.2,0.8"/>
<line x1="46.204" y1="224.946" x2="39.974" y2="222.419" stroke="#8c8c8c" stroke-width="0.3" stroke-dasharray="1.2,0.8"/>
<line x1="50.841" y1="174.042" x2="53.634" y2="186.28" stroke="#8c8c8c" stroke-width="0.3" stroke-dasharray="1.2,0.8"/>
<line x1="39.532" y1="168.596" x2="50.841" y2="174.042" stroke="#8c8c8c" stroke-width="0.3" stroke-dasharray="1.2,0.8"/>
<line x1="49.048" y1="228.943" x2="46.204" y2="224.946" stroke="#8c8c8c" stroke-width="0.3" stroke-dasharray="1.2,0.8"/>
<line x1="49.048" y1="228.943" x2="73.953" y2="218.871" stroke="#8c8c8c" stroke-width="0.3" stroke-dasharray="1.2,0.8"/>
<line x1="28.222" y1="174.042" x2="39.532" y2="168.596" stroke="#8c8c8c" stroke-width="0.3" stroke-dasharray="1.2,0.8"/>
<line x1="31.742" y1="226.003" x2="29.843" y2="229.045" stroke="#8c8c8c" stroke-width="0.3" stroke-dasharray="1.2,0.8"/>
<line x1="25.428" y1="186.28" x2="28.222" y2="174.042" stroke="#8c8c8c" stroke-width="0.3" stroke-dasharray="1.2,0.8"/>
<line x1="34.537" y1="223.755" x2="31.742" y2="226.003" stroke="#8c8c8c" stroke-width="0.3" stroke-dasharray="1.2,0.8"/>
<line x1="21.429" y1="200.305" x2="33.255" y2="196.094" stroke="#141414" stroke-width="0.4"/>
<line x1="45.808" y1="196.094" x2="57.654" y2="200.246" stroke="#141414" stroke-width="0.4"/>
<line x1="39.974" y1="222.419" x2="41.069" y2="229.051" stroke="#141414" stroke-width="0.4"/>
<line x1="57.654" y1="200.246" x2="67.388" y2="208.172" stroke="#141414" stroke-width="0.4"/>
<line x1="67.388" y1="208.172" x2="73.953" y2="218.871" stroke="#141414" stroke-width="0.4"/>
<line x1="41.069" y1="229.051" x2="36.252" y2="229.986" stroke="#141414" stroke-width="0.4"/>
<line x1="29.843" y1="229.045" x2="5.0" y2="218.82" stroke="#141414" stroke-width="0.4"/>
<line x1="5.0" y1="218.82" x2="11.648" y2="208.172" stroke="#141414" stroke-width="0.4"/>
<line x1="36.252" y1="229.986" x2="33.895" y2="227.283" stroke="#141414" stroke-width="0.4"/>
<line x1="11.648" y1="208.172" x2="21.429" y2="200.305" stroke="#141414" stroke-width="0.4"/>
<line x1="33.895" y1="227.283" x2="34.537" y2="223.755" stroke="#141414" stroke-width="0.4"/>
<line x1="33.255" y1="196.094" x2="26.0" y2="197.063" stroke="#141414" stroke-width="0.4"/>
<line x1="26.0" y1="197.063" x2="22.869" y2="193.138" stroke="#141414" stroke-width="0.4"/>
<line x1="22.869" y1="193.138" x2="25.428" y2="186.28" stroke="#141414" stroke-width="0.4"/>
<line x1="45.808" y1="196.094" x2="53.063" y2="197.064" stroke="#141414" stroke-width="0.4"/>
<line x1="53.063" y1="197.064" x2="56.194" y2="193.138" stroke="#141414" stroke-width="0.4"/>
<line x1="56.194" y1="193.138" x2="53.634" y2="186.28" stroke="#141414" stroke-width="0.4"/>
<line x1="39.974" y1="222.419" x2="41.313" y2="226.631" stroke="#141414" stroke-width="0.4"/>
<line x1="41.313" y1="226.631" x2="42.309" y2="227.035" stroke="#141414" stroke-width="0.4"/>
<line x1="42.309" y1="227.035" x2="46.204" y2="224.946" stroke="#141414" stroke-width="0.4"/>
<line x1="53.634" y1="186.28" x2="59.335" y2="183.048" stroke="#141414" stroke-width="0.4"/>
<line x1="59.335" y1="183.048" x2="57.379" y2="174.481" stroke="#141414" stroke-width="0.4"/>
<line x1="57.379" y1="174.481" x2="50.841" y2="174.042" stroke="#141414" stroke-width="0.4"/>
<line x1="50.841" y1="174.042" x2="51.868" y2="167.57" stroke="#141414" stroke-width="0.4"/>
<line x1="51.868" y1="167.57" x2="43.951" y2="163.758" stroke="#141414" stroke-width="0.4"/>
<line x1="43.951" y1="163.758" x2="39.532" y2="168.596" stroke="#141414" stroke-width="0.4"/>
<line x1="46.204" y1="224.946" x2="43.86" y2="227.516" stroke="#141414" stroke-width="0.4"/>
<line x1="43.86" y1="227.516" x2="45.851" y2="230.315" stroke="#141414" stroke-width="0.4"/>
<line x1="45.851" y1="230.315" x2="49.048" y2="228.943" stroke="#141414" stroke-width="0.4"/>
<line x1="73.953" y1="218.871" x2="72.842" y2="226.872" stroke="#141414" stroke-width="0.4"/>
<line x1="72.842" y1="226.872" x2="55.408" y2="233.922" stroke="#141414" stroke-width="0.4"/>
<line x1="55.408" y1="233.922" x2="49.048" y2="228.943" stroke="#141414" stroke-width="0.4"/>
<line x1="39.532" y1="168.596" x2="35.112" y2="163.758" stroke="#141414" stroke-width="0.4"/>
<line x1="35.112" y1="163.758" x2="27.195" y2="167.57" stroke="#141414" stroke-width="0.4"/>
<line x1="27.195" y1="167.57" x2="28.222" y2="174.042" stroke="#141414" stroke-width="0.4"/>
<line x1="29.843" y1="229.045" x2="32.258" y2="229.918" stroke="#141414" stroke-width="0.4"/>
<line x1="32.258" y1="229.918" x2="33.587" y2="227.789" stroke="#141414" stroke-width="0.4"/>
<line x1="33.587" y1="227.789" x2="31.742" y2="226.003" stroke="#141414" stroke-width="0.4"/>
<line x1="28.222" y1="174.042" x2="21.684" y2="174.481" stroke="#141414" stroke-width="0.4"/>
<line x1="21.684" y1="174.481" x2="19.728" y2="183.048" stroke="#141414" stroke-width="0.4"/>
<line x1="19.728" y1="183.048" x2="25.428" y2="186.28" stroke="#141414" stroke-width="0.4"/>
<line x1="31.742" y1="226.003" x2="32.904" y2="226.875" stroke="#141414" stroke-width="0.4"/>
<line x1="32.904" y1="226.875" x2="34.258" y2="223.98" stroke="#141414" stroke-width="0.4"/>
<line x1="34.258" y1="223.98" x2="34.537" y2="223.755" stroke="#141414" stroke-width="0.4"/>
<circle cx="26.888" cy="193.144" r="1.10" fill="#ffe082" stroke="#464646" stroke-width="0.2"/>
<text x="26.888" y="193.52" font-size="1.08" text-anchor="middle" fill="#141414">34</text>
<circle cx="52.175" cy="193.144" r="1.10" fill="#ffe082" stroke="#464646" stroke-width="0.2"/>
<text x="52.175" y="193.52" font-size="1.08" text-anchor="middle" fill="#141414">35</text>
<circle cx="42.45" cy="225.258" r="1.10" fill="#ffe082" stroke="#464646" stroke-width="0.2"/>
<text x="42.45" y="225.64" font-size="1.08" text-anchor="middle" fill="#141414">36</text>
<circle cx="55.297" cy="179.463" r="1.10" fill="#ffe082" stroke="#464646" stroke-width="0.2"/>
<text x="55.297" y="179.84" font-size="1.08" text-anchor="middle" fill="#141414">37</text>
<circle cx="46.548" cy="168.491" r="1.10" fill="#ffe082" stroke="#464646" stroke-width="0.2"/>
<text x="46.548" y="168.87" font-size="1.08" text-anchor="middle" fill="#141414">38</text>
<circle cx="46.241" cy="227.93" r="1.10" fill="#ffe082" stroke="#464646" stroke-width="0.2"/>
<text x="46.241" y="228.31" font-size="1.08" text-anchor="middle" fill="#141414">39</text>
<circle cx="62.813" cy="227.152" r="1.10" fill="#ffe082" stroke="#464646" stroke-width="0.2"/>
<text x="62.813" y="227.53" font-size="1.08" text-anchor="middle" fill="#141414">40</text>
<circle cx="32.515" cy="168.491" r="1.10" fill="#99d9fa" stroke="#464646" stroke-width="0.2"/>
<text x="32.515" y="168.87" font-size="1.08" text-anchor="middle" fill="#141414">41</text>
<circle cx="31.858" cy="228.189" r="1.10" fill="#ffe082" stroke="#464646" stroke-width="0.2"/>
<text x="31.858" y="228.57" font-size="1.08" text-anchor="middle" fill="#141414">42</text>
<circle cx="23.766" cy="179.463" r="1.10" fill="#ffe082" stroke="#464646" stroke-width="0.2"/>
<text x="23.766" y="179.84" font-size="1.08" text-anchor="middle" fill="#141414">43</text>
<circle cx="39.477" cy="156.738" r="4.6" fill="#eaf1fe" stroke="#2e78e6" stroke-width="0.3"/>
<text x="39.477" y="158.538" font-size="5.2" text-anchor="middle" fill="#14306e" font-weight="bold">4</text>
<polygon points="105.208,196.094 97.953,197.063 94.823,193.138 97.382,186.28" fill="rgb(216,216,216)"/>
<polygon points="117.761,196.094 125.016,197.064 128.147,193.138 125.588,186.28" fill="rgb(216,216,216)"/>
<polygon points="111.928,222.419 113.266,226.631 114.263,227.035 118.157,224.946" fill="rgb(216,216,216)"/>
<polygon points="125.588,186.28 131.288,183.048 129.333,174.481 122.795,174.042" fill="rgb(216,216,216)"/>
<polygon points="122.795,174.042 123.822,167.57 115.904,163.758 111.485,168.596" fill="rgb(216,216,216)"/>
<polygon points="118.157,224.946 115.813,227.516 117.805,230.315 121.002,228.943" fill="rgb(216,216,216)"/>
<polygon points="145.907,218.871 144.796,226.872 127.362,233.922 121.002,228.943" fill="rgb(216,216,216)"/>
<polygon points="111.485,168.596 107.065,163.758 99.148,167.57 100.175,174.042" fill="rgb(216,216,216)"/>
<polygon points="101.797,229.045 104.211,229.918 105.541,227.789 103.696,226.003" fill="rgb(216,216,216)"/>
<polygon points="100.175,174.042 93.637,174.481 91.682,183.048 97.382,186.28" fill="rgb(216,216,216)"/>
<polygon points="103.696,226.003 104.858,226.875 106.211,223.98 106.491,223.755" fill="rgb(216,216,216)"/>
<polygon points="122.795,174.042 123.822,167.57 115.904,163.758 111.485,168.596" fill="#99d9fa"/>
<line x1="105.208" y1="196.094" x2="117.761" y2="196.094" stroke="#8c8c8c" stroke-width="0.3" stroke-dasharray="1.2,0.8"/>
<line x1="111.928" y1="222.419" x2="105.208" y2="196.094" stroke="#8c8c8c" stroke-width="0.3" stroke-dasharray="1.2,0.8"/>
<line x1="105.208" y1="196.094" x2="106.491" y2="223.755" stroke="#8c8c8c" stroke-width="0.3" stroke-dasharray="1.2,0.8"/>
<line x1="117.761" y1="196.094" x2="111.928" y2="222.419" stroke="#8c8c8c" stroke-width="0.3" stroke-dasharray="1.2,0.8"/>
<line x1="129.608" y1="200.246" x2="111.928" y2="222.419" stroke="#8c8c8c" stroke-width="0.3" stroke-dasharray="1.2,0.8"/>
<line x1="106.491" y1="223.755" x2="111.928" y2="222.419" stroke="#8c8c8c" stroke-width="0.3" stroke-dasharray="1.2,0.8"/>
<line x1="129.608" y1="200.246" x2="118.157" y2="224.946" stroke="#8c8c8c" stroke-width="0.3" stroke-dasharray="1.2,0.8"/>
<line x1="139.342" y1="208.172" x2="118.157" y2="224.946" stroke="#8c8c8c" stroke-width="0.3" stroke-dasharray="1.2,0.8"/>
<line x1="83.601" y1="208.172" x2="103.696" y2="226.003" stroke="#8c8c8c" stroke-width="0.3" stroke-dasharray="1.2,0.8"/>
<line x1="93.383" y1="200.305" x2="106.491" y2="223.755" stroke="#8c8c8c" stroke-width="0.3" stroke-dasharray="1.2,0.8"/>
<line x1="145.907" y1="218.871" x2="118.157" y2="224.946" stroke="#8c8c8c" stroke-width="0.3" stroke-dasharray="1.2,0.8"/>
<line x1="97.382" y1="186.28" x2="105.208" y2="196.094" stroke="#8c8c8c" stroke-width="0.3" stroke-dasharray="1.2,0.8"/>
<line x1="125.588" y1="186.28" x2="117.761" y2="196.094" stroke="#8c8c8c" stroke-width="0.3" stroke-dasharray="1.2,0.8"/>
<line x1="118.157" y1="224.946" x2="111.928" y2="222.419" stroke="#8c8c8c" stroke-width="0.3" stroke-dasharray="1.2,0.8"/>
<line x1="122.795" y1="174.042" x2="125.588" y2="186.28" stroke="#8c8c8c" stroke-width="0.3" stroke-dasharray="1.2,0.8"/>
<line x1="111.485" y1="168.596" x2="122.795" y2="174.042" stroke="#8c8c8c" stroke-width="0.3" stroke-dasharray="1.2,0.8"/>
<line x1="121.002" y1="228.943" x2="118.157" y2="224.946" stroke="#8c8c8c" stroke-width="0.3" stroke-dasharray="1.2,0.8"/>
<line x1="121.002" y1="228.943" x2="145.907" y2="218.871" stroke="#8c8c8c" stroke-width="0.3" stroke-dasharray="1.2,0.8"/>
<line x1="100.175" y1="174.042" x2="111.485" y2="168.596" stroke="#8c8c8c" stroke-width="0.3" stroke-dasharray="1.2,0.8"/>
<line x1="103.696" y1="226.003" x2="101.797" y2="229.045" stroke="#8c8c8c" stroke-width="0.3" stroke-dasharray="1.2,0.8"/>
<line x1="97.382" y1="186.28" x2="100.175" y2="174.042" stroke="#8c8c8c" stroke-width="0.3" stroke-dasharray="1.2,0.8"/>
<line x1="106.491" y1="223.755" x2="103.696" y2="226.003" stroke="#8c8c8c" stroke-width="0.3" stroke-dasharray="1.2,0.8"/>
<line x1="93.383" y1="200.305" x2="105.208" y2="196.094" stroke="#141414" stroke-width="0.4"/>
<line x1="117.761" y1="196.094" x2="129.608" y2="200.246" stroke="#141414" stroke-width="0.4"/>
<line x1="111.928" y1="222.419" x2="113.023" y2="229.051" stroke="#141414" stroke-width="0.4"/>
<line x1="129.608" y1="200.246" x2="139.342" y2="208.172" stroke="#141414" stroke-width="0.4"/>
<line x1="139.342" y1="208.172" x2="145.907" y2="218.871" stroke="#141414" stroke-width="0.4"/>
<line x1="113.023" y1="229.051" x2="108.206" y2="229.986" stroke="#141414" stroke-width="0.4"/>
<line x1="101.797" y1="229.045" x2="76.953" y2="218.82" stroke="#141414" stroke-width="0.4"/>
<line x1="76.953" y1="218.82" x2="83.601" y2="208.172" stroke="#141414" stroke-width="0.4"/>
<line x1="108.206" y1="229.986" x2="105.848" y2="227.283" stroke="#141414" stroke-width="0.4"/>
<line x1="83.601" y1="208.172" x2="93.383" y2="200.305" stroke="#141414" stroke-width="0.4"/>
<line x1="105.848" y1="227.283" x2="106.491" y2="223.755" stroke="#141414" stroke-width="0.4"/>
<line x1="105.208" y1="196.094" x2="97.953" y2="197.063" stroke="#141414" stroke-width="0.4"/>
<line x1="97.953" y1="197.063" x2="94.823" y2="193.138" stroke="#141414" stroke-width="0.4"/>
<line x1="94.823" y1="193.138" x2="97.382" y2="186.28" stroke="#141414" stroke-width="0.4"/>
<line x1="117.761" y1="196.094" x2="125.016" y2="197.064" stroke="#141414" stroke-width="0.4"/>
<line x1="125.016" y1="197.064" x2="128.147" y2="193.138" stroke="#141414" stroke-width="0.4"/>
<line x1="128.147" y1="193.138" x2="125.588" y2="186.28" stroke="#141414" stroke-width="0.4"/>
<line x1="111.928" y1="222.419" x2="113.266" y2="226.631" stroke="#141414" stroke-width="0.4"/>
<line x1="113.266" y1="226.631" x2="114.263" y2="227.035" stroke="#141414" stroke-width="0.4"/>
<line x1="114.263" y1="227.035" x2="118.157" y2="224.946" stroke="#141414" stroke-width="0.4"/>
<line x1="125.588" y1="186.28" x2="131.288" y2="183.048" stroke="#141414" stroke-width="0.4"/>
<line x1="131.288" y1="183.048" x2="129.333" y2="174.481" stroke="#141414" stroke-width="0.4"/>
<line x1="129.333" y1="174.481" x2="122.795" y2="174.042" stroke="#141414" stroke-width="0.4"/>
<line x1="122.795" y1="174.042" x2="123.822" y2="167.57" stroke="#141414" stroke-width="0.4"/>
<line x1="123.822" y1="167.57" x2="115.904" y2="163.758" stroke="#141414" stroke-width="0.4"/>
<line x1="115.904" y1="163.758" x2="111.485" y2="168.596" stroke="#141414" stroke-width="0.4"/>
<line x1="118.157" y1="224.946" x2="115.813" y2="227.516" stroke="#141414" stroke-width="0.4"/>
<line x1="115.813" y1="227.516" x2="117.805" y2="230.315" stroke="#141414" stroke-width="0.4"/>
<line x1="117.805" y1="230.315" x2="121.002" y2="228.943" stroke="#141414" stroke-width="0.4"/>
<line x1="145.907" y1="218.871" x2="144.796" y2="226.872" stroke="#141414" stroke-width="0.4"/>
<line x1="144.796" y1="226.872" x2="127.362" y2="233.922" stroke="#141414" stroke-width="0.4"/>
<line x1="127.362" y1="233.922" x2="121.002" y2="228.943" stroke="#141414" stroke-width="0.4"/>
<line x1="111.485" y1="168.596" x2="107.065" y2="163.758" stroke="#141414" stroke-width="0.4"/>
<line x1="107.065" y1="163.758" x2="99.148" y2="167.57" stroke="#141414" stroke-width="0.4"/>
<line x1="99.148" y1="167.57" x2="100.175" y2="174.042" stroke="#141414" stroke-width="0.4"/>
<line x1="101.797" y1="229.045" x2="104.211" y2="229.918" stroke="#141414" stroke-width="0.4"/>
<line x1="104.211" y1="229.918" x2="105.541" y2="227.789" stroke="#141414" stroke-width="0.4"/>
<line x1="105.541" y1="227.789" x2="103.696" y2="226.003" stroke="#141414" stroke-width="0.4"/>
<line x1="100.175" y1="174.042" x2="93.637" y2="174.481" stroke="#141414" stroke-width="0.4"/>
<line x1="93.637" y1="174.481" x2="91.682" y2="183.048" stroke="#141414" stroke-width="0.4"/>
<line x1="91.682" y1="183.048" x2="97.382" y2="186.28" stroke="#141414" stroke-width="0.4"/>
<line x1="103.696" y1="226.003" x2="104.858" y2="226.875" stroke="#141414" stroke-width="0.4"/>
<line x1="104.858" y1="226.875" x2="106.211" y2="223.98" stroke="#141414" stroke-width="0.4"/>
<line x1="106.211" y1="223.98" x2="106.491" y2="223.755" stroke="#141414" stroke-width="0.4"/>
<circle cx="98.842" cy="193.144" r="1.10" fill="#ffe082" stroke="#464646" stroke-width="0.2"/>
<text x="98.842" y="193.52" font-size="1.08" text-anchor="middle" fill="#141414">45</text>
<circle cx="124.128" cy="193.144" r="1.10" fill="#ffe082" stroke="#464646" stroke-width="0.2"/>
<text x="124.128" y="193.52" font-size="1.08" text-anchor="middle" fill="#141414">46</text>
<circle cx="114.403" cy="225.258" r="1.10" fill="#ffe082" stroke="#464646" stroke-width="0.2"/>
<text x="114.403" y="225.64" font-size="1.08" text-anchor="middle" fill="#141414">47</text>
<circle cx="127.251" cy="179.463" r="1.10" fill="#ffe082" stroke="#464646" stroke-width="0.2"/>
<text x="127.251" y="179.84" font-size="1.08" text-anchor="middle" fill="#141414">48</text>
<circle cx="118.501" cy="168.491" r="1.10" fill="#99d9fa" stroke="#464646" stroke-width="0.2"/>
<text x="118.501" y="168.87" font-size="1.08" text-anchor="middle" fill="#141414">49</text>
<circle cx="118.194" cy="227.93" r="1.10" fill="#ffe082" stroke="#464646" stroke-width="0.2"/>
<text x="118.194" y="228.31" font-size="1.08" text-anchor="middle" fill="#141414">50</text>
<circle cx="134.766" cy="227.152" r="1.10" fill="#ffe082" stroke="#464646" stroke-width="0.2"/>
<text x="134.766" y="227.53" font-size="1.08" text-anchor="middle" fill="#141414">51</text>
<circle cx="104.468" cy="168.491" r="1.10" fill="#ffe082" stroke="#464646" stroke-width="0.2"/>
<text x="104.468" y="168.87" font-size="1.08" text-anchor="middle" fill="#141414">52</text>
<circle cx="103.811" cy="228.189" r="1.10" fill="#ffe082" stroke="#464646" stroke-width="0.2"/>
<text x="103.811" y="228.57" font-size="1.08" text-anchor="middle" fill="#141414">53</text>
<circle cx="95.719" cy="179.463" r="1.10" fill="#ffe082" stroke="#464646" stroke-width="0.2"/>
<text x="95.719" y="179.84" font-size="1.08" text-anchor="middle" fill="#141414">54</text>
<circle cx="111.43" cy="156.738" r="4.6" fill="#eaf1fe" stroke="#2e78e6" stroke-width="0.3"/>
<text x="111.43" y="158.538" font-size="5.2" text-anchor="middle" fill="#14306e" font-weight="bold">5</text>
<polygon points="170.62,176.781 167.22,170.281 174.453,163.048 180.952,166.448" fill="rgb(216,216,216)"/>
<polygon points="162.339,185.061 158.939,191.561 166.172,198.794 172.672,195.394" fill="rgb(216,216,216)"/>
<polygon points="162.339,185.061 155.84,188.461 148.607,181.228 152.007,174.728" fill="rgb(216,216,216)"/>
<polygon points="180.952,187.113 187.452,190.513 194.685,183.28 191.285,176.781" fill="rgb(216,216,216)"/>
<polygon points="172.672,195.394 169.272,201.893 176.505,209.126 183.004,205.726" fill="rgb(216,216,216)"/>
<polygon points="191.285,176.781 194.685,170.281 187.452,163.048 180.952,166.448" fill="rgb(216,216,216)"/>
<polygon points="201.618,207.779 204.516,213.161 198.72,218.957 193.337,216.059" fill="rgb(216,216,216)"/>
<polygon points="201.618,207.779 204.516,213.161 198.72,218.957 193.337,216.059" fill="#99d9fa"/>
<line x1="162.339" y1="185.061" x2="170.62" y2="176.781" stroke="#8c8c8c" stroke-width="0.3" stroke-dasharray="1.2,0.8"/>
<line x1="180.952" y1="187.113" x2="170.62" y2="176.781" stroke="#8c8c8c" stroke-width="0.3" stroke-dasharray="1.2,0.8"/>
<line x1="180.952" y1="187.113" x2="172.672" y2="195.394" stroke="#8c8c8c" stroke-width="0.3" stroke-dasharray="1.2,0.8"/>
<line x1="191.285" y1="197.446" x2="183.005" y2="205.726" stroke="#8c8c8c" stroke-width="0.3" stroke-dasharray="1.2,0.8"/>
<line x1="193.337" y1="216.059" x2="183.005" y2="205.726" stroke="#8c8c8c" stroke-width="0.3" stroke-dasharray="1.2,0.8"/>
<line x1="180.952" y1="166.448" x2="170.62" y2="176.781" stroke="#8c8c8c" stroke-width="0.3" stroke-dasharray="1.2,0.8"/>
<line x1="172.672" y1="195.394" x2="162.339" y2="185.061" stroke="#8c8c8c" stroke-width="0.3" stroke-dasharray="1.2,0.8"/>
<line x1="152.007" y1="174.728" x2="162.339" y2="185.061" stroke="#8c8c8c" stroke-width="0.3" stroke-dasharray="1.2,0.8"/>
<line x1="191.285" y1="176.781" x2="180.952" y2="187.113" stroke="#8c8c8c" stroke-width="0.3" stroke-dasharray="1.2,0.8"/>
<line x1="183.004" y1="205.726" x2="172.672" y2="195.394" stroke="#8c8c8c" stroke-width="0.3" stroke-dasharray="1.2,0.8"/>
<line x1="180.952" y1="166.448" x2="191.285" y2="176.781" stroke="#8c8c8c" stroke-width="0.3" stroke-dasharray="1.2,0.8"/>
<line x1="193.337" y1="216.059" x2="201.618" y2="207.779" stroke="#8c8c8c" stroke-width="0.3" stroke-dasharray="1.2,0.8"/>
<line x1="160.287" y1="166.448" x2="170.62" y2="176.781" stroke="#141414" stroke-width="0.4"/>
<line x1="183.005" y1="226.392" x2="172.672" y2="216.059" stroke="#141414" stroke-width="0.4"/>
<line x1="193.337" y1="216.059" x2="183.005" y2="226.392" stroke="#141414" stroke-width="0.4"/>
<line x1="180.952" y1="187.113" x2="191.285" y2="197.446" stroke="#141414" stroke-width="0.4"/>
<line x1="172.672" y1="216.059" x2="183.005" y2="205.726" stroke="#141414" stroke-width="0.4"/>
<line x1="191.285" y1="197.446" x2="201.618" y2="207.779" stroke="#141414" stroke-width="0.4"/>
<line x1="152.007" y1="174.728" x2="160.287" y2="166.448" stroke="#141414" stroke-width="0.4"/>
<line x1="170.62" y1="176.781" x2="167.22" y2="170.281" stroke="#141414" stroke-width="0.4"/>
<line x1="167.22" y1="170.281" x2="174.453" y2="163.048" stroke="#141414" stroke-width="0.4"/>
<line x1="174.453" y1="163.048" x2="180.952" y2="166.448" stroke="#141414" stroke-width="0.4"/>
<line x1="162.339" y1="185.061" x2="158.939" y2="191.561" stroke="#141414" stroke-width="0.4"/>
<line x1="158.939" y1="191.561" x2="166.172" y2="198.794" stroke="#141414" stroke-width="0.4"/>
<line x1="166.172" y1="198.794" x2="172.672" y2="195.394" stroke="#141414" stroke-width="0.4"/>
<line x1="162.339" y1="185.061" x2="155.84" y2="188.461" stroke="#141414" stroke-width="0.4"/>
<line x1="155.84" y1="188.461" x2="148.607" y2="181.228" stroke="#141414" stroke-width="0.4"/>
<line x1="148.607" y1="181.228" x2="152.007" y2="174.728" stroke="#141414" stroke-width="0.4"/>
<line x1="180.952" y1="187.113" x2="187.452" y2="190.513" stroke="#141414" stroke-width="0.4"/>
<line x1="187.452" y1="190.513" x2="194.685" y2="183.28" stroke="#141414" stroke-width="0.4"/>
<line x1="194.685" y1="183.28" x2="191.285" y2="176.781" stroke="#141414" stroke-width="0.4"/>
<line x1="172.672" y1="195.394" x2="169.272" y2="201.893" stroke="#141414" stroke-width="0.4"/>
<line x1="169.272" y1="201.893" x2="176.505" y2="209.126" stroke="#141414" stroke-width="0.4"/>
<line x1="176.505" y1="209.126" x2="183.004" y2="205.726" stroke="#141414" stroke-width="0.4"/>
<line x1="191.285" y1="176.781" x2="194.685" y2="170.281" stroke="#141414" stroke-width="0.4"/>
<line x1="194.685" y1="170.281" x2="187.452" y2="163.048" stroke="#141414" stroke-width="0.4"/>
<line x1="187.452" y1="163.048" x2="180.952" y2="166.448" stroke="#141414" stroke-width="0.4"/>
<line x1="201.618" y1="207.779" x2="204.516" y2="213.161" stroke="#141414" stroke-width="0.4"/>
<line x1="204.516" y1="213.161" x2="198.72" y2="218.957" stroke="#141414" stroke-width="0.4"/>
<line x1="198.72" y1="218.957" x2="193.337" y2="216.059" stroke="#141414" stroke-width="0.4"/>
<circle cx="173.311" cy="169.139" r="1.10" fill="#ffe082" stroke="#464646" stroke-width="0.2"/>
<text x="173.311" y="169.52" font-size="1.08" text-anchor="middle" fill="#141414">104</text>
<circle cx="165.031" cy="192.702" r="1.10" fill="#ffe082" stroke="#464646" stroke-width="0.2"/>
<text x="165.031" y="193.08" font-size="1.08" text-anchor="middle" fill="#141414">105</text>
<circle cx="154.698" cy="182.37" r="1.10" fill="#ffe082" stroke="#464646" stroke-width="0.2"/>
<text x="154.698" y="182.75" font-size="1.08" text-anchor="middle" fill="#141414">106</text>
<circle cx="188.594" cy="184.422" r="1.10" fill="#ffe082" stroke="#464646" stroke-width="0.2"/>
<text x="188.594" y="184.80" font-size="1.08" text-anchor="middle" fill="#141414">107</text>
<circle cx="175.363" cy="203.035" r="1.10" fill="#ffe082" stroke="#464646" stroke-width="0.2"/>
<text x="175.363" y="203.41" font-size="1.08" text-anchor="middle" fill="#141414">108</text>
<circle cx="188.594" cy="169.14" r="1.10" fill="#ffe082" stroke="#464646" stroke-width="0.2"/>
<text x="188.594" y="169.52" font-size="1.08" text-anchor="middle" fill="#141414">109</text>
<circle cx="199.548" cy="213.989" r="1.10" fill="#99d9fa" stroke="#464646" stroke-width="0.2"/>
<text x="199.548" y="214.37" font-size="1.08" text-anchor="middle" fill="#141414">110</text>
<circle cx="176.861" cy="156.738" r="4.6" fill="#eaf1fe" stroke="#2e78e6" stroke-width="0.3"/>
<text x="176.861" y="158.538" font-size="5.2" text-anchor="middle" fill="#14306e" font-weight="bold">10</text>
<text x="205.0" y="295.0" font-size="3.2" text-anchor="end" fill="#737373" font-family="sans-serif">2 / 5</text>
</svg>
