<svg xmlns="http://www.w3.org/2000/svg" xmlns:xlink="http://www.w3.org/1999/xlink" width="210.00mm" height="297.00mm" viewBox="0 0 210.00 297.00">
<rect x="0" y="0" width="210.00" height="297.00" fill="#ffffff" stroke="#cccccc" stroke-width="0.2"/>
<polygon points="32.621,19.996 29.477,13.241 37.902,4.816 44.657,7.96" fill="rgb(216,216,216)"/>
<polygon points="5.0,59.653 11.516,67.34 45.178,70.707 53.088,64.464" fill="rgb(216,216,216)"/>
<polygon points="44.657,32.032 51.412,35.176 59.837,26.751 56.692,19.996" fill="rgb(216,216,216)"/>
<polygon points="56.692,19.996 59.837,13.241 51.412,4.816 44.657,7.96" fill="rgb(216,216,216)"/>
<line x1="5.0" y1="59.653" x2="32.621" y2="19.996" stroke="#8c8c8c" stroke-width="0.3" stroke-dasharray="1.2,0.8"/>
<line x1="44.657" y1="32.032" x2="32.621" y2="19.996" stroke="#8c8c8c" stroke-width="0.3" stroke-dasharray="1.2,0.8"/>
<line x1="44.657" y1="32.032" x2="5.0" y2="59.653" stroke="#8c8c8c" stroke-width="0.3" stroke-dasharray="1.2,0.8"/>
<line x1="51.773" y1="47.494" x2="5.0" y2="59.653" stroke="#8c8c8c" stroke-width="0.3" stroke-dasharray="1.2,0.8"/>
<line x1="44.657" y1="7.96" x2="32.621" y2="19.996" stroke="#8c8c8c" stroke-width="0.3" stroke-dasharray="1.2,0.8"/>
<line x1="53.088" y1="64.464" x2="5.0" y2="59.653" stroke="#8c8c8c" stroke-width="0.3" stroke-dasharray="1.2,0.8"/>
<line x1="56.692" y1="19.996" x2="44.657" y2="32.032" stroke="#8c8c8c" stroke-width="0.3" stroke-dasharray="1.2,0.8"/>
<line x1="44.657" y1="7.96" x2="56.692" y2="19.996" stroke="#8c8c8c" stroke-width="0.3" stroke-dasharray="1.2,0.8"/>
<line x1="17.159" y1="12.88" x2="32.621" y2="19.996" stroke="#141414" stroke-width="0.4"/>
<line x1="5.0" y1="59.653" x2="17.159" y2="12.88" stroke="#141414" stroke-width="0.4"/>
<line x1="44.657" y1="32.032" x2="51.773" y2="47.494" stroke="#141414" stroke-width="0.4"/>
<line x1="51.773" y1="47.494" x2="53.088" y2="64.464" stroke="#141414" stroke-width="0.4"/>
<line x1="32.621" y1="19.996" x2="29.477" y2="13.241" stroke="#141414" stroke-width="0.4"/>
<line x1="29.477" y1="13.241" x2="37.902" y2="4.816" stroke="#141414" stroke-width="0.4"/>
<line x1="37.902" y1="4.816" x2="44.657" y2="7.96" stroke="#141414" stroke-width="0.4"/>
<line x1="5.0" y1="59.653" x2="11.516" y2="67.34" stroke="#141414" stroke-width="0.4"/>
<line x1="11.516" y1="67.34" x2="45.178" y2="70.707" stroke="#141414" stroke-width="0.4"/>
<line x1="45.178" y1="70.707" x2="53.088" y2="64.464" stroke="#141414" stroke-width="0.4"/>
<line x1="44.657" y1="32.032" x2="51.412" y2="35.176" stroke="#141414" stroke-width="0.4"/>
<line x1="51.412" y1="35.176" x2="59.837" y2="26.751" stroke="#141414" stroke-width="0.4"/>
<line x1="59.837" y1="26.751" x2="56.692" y2="19.996" stroke="#141414" stroke-width="0.4"/>
<line x1="56.692" y1="19.996" x2="59.837" y2="13.241" stroke="#141414" stroke-width="0.4"/>
<line x1="59.837" y1="13.241" x2="51.412" y2="4.816" stroke="#141414" stroke-width="0.4"/>
<line x1="51.412" y1="4.816" x2="44.657" y2="7.96" stroke="#141414" stroke-width="0.4"/>
<circle cx="36.164" cy="11.503" r="3.08" fill="#ffe082" stroke="#464646" stroke-width="0.2"/>
<text x="36.164" y="12.97" font-size="4.18" text-anchor="middle" fill="#141414">21</text>
<circle cx="28.696" cy="65.541" r="3.08" fill="#ffe082" stroke="#464646" stroke-width="0.2"/>
<text x="28.696" y="67.00" font-size="4.18" text-anchor="middle" fill="#141414">22</text>
<circle cx="53.149" cy="28.489" r="3.08" fill="#ffe082" stroke="#464646" stroke-width="0.2"/>
<text x="53.149" y="29.95" font-size="4.18" text-anchor="middle" fill="#141414">23</text>
<circle cx="53.15" cy="11.503" r="3.08" fill="#ffe082" stroke="#464646" stroke-width="0.2"/>
<text x="53.15" y="12.97" font-size="4.18" text-anchor="middle" fill="#141414">24</text>
<circle cx="32.418" cy="76.991" r="4.6" fill="#eaf1fe" stroke="#2e78e6" stroke-width="0.3"/>
<text x="32.418" y="78.791" font-size="5.2" text-anchor="middle" fill="#14306e" font-weight="bold">3</text>
<polygon points="90.458,19.996 87.314,13.241 95.739,4.816 102.494,7.96" fill="rgb(216,216,216)"/>
<polygon points="62.837,59.653 69.353,67.34 103.015,70.707 110.925,64.464" fill="rgb(216,216,216)"/>
<polygon points="102.494,32.032 109.249,35.176 117.674,26.751 114.529,19.996" fill="rgb(216,216,216)"/>
<polygon points="114.529,19.996 117.674,13.241 109.249,4.816 102.494,7.96" fill="rgb(216,216,216)"/>
<line x1="62.837" y1="59.653" x2="90.458" y2="19.996" stroke="#8c8c8c" stroke-width="0.3" stroke-dasharray="1.2,0.8"/>
<line x1="102.494" y1="32.032" x2="90.458" y2="19.996" stroke="#8c8c8c" stroke-width="0.3" stroke-dasharray="1.2,0.8"/>
<line x1="102.494" y1="32.032" x2="62.837" y2="59.653" stroke="#8c8c8c" stroke-width="0.3" stroke-dasharray="1.2,0.8"/>
<line x1="109.61" y1="47.494" x2="62.837" y2="59.653" stroke="#8c8c8c" stroke-width="0.3" stroke-dasharray="1.2,0.8"/>
<line x1="102.494" y1="7.96" x2="90.458" y2="19.996" stroke="#8c8c8c" stroke-width="0.3" stroke-dasharray="1.2,0.8"/>
<line x1="110.925" y1="64.464" x2="62.837" y2="59.653" stroke="#8c8c8c" stroke-width="0.3" stroke-dasharray="1.2,0.8"/>
<line x1="114.529" y1="19.996" x2="102.494" y2="32.032" stroke="#8c8c8c" stroke-width="0.3" stroke-dasharray="1.2,0.8"/>
<line x1="102.494" y1="7.96" x2="114.529" y2="19.996" stroke="#8c8c8c" stroke-width="0.3" stroke-dasharray="1.2,0.8"/>
<line x1="74.996" y1="12.88" x2="90.458" y2="19.996" stroke="#141414" stroke-width="0.4"/>
<line x1="62.837" y1="59.653" x2="74.996" y2="12.88" stroke="#141414" stroke-width="0.4"/>
<line x1="102.494" y1="32.032" x2="109.61" y2="47.494" stroke="#141414" stroke-width="0.4"/>
<line x1="109.61" y1="47.494" x2="110.925" y2="64.464" stroke="#141414" stroke-width="0.4"/>
<line x1="90.458" y1="19.996" x2="87.314" y2="13.241" stroke="#141414" stroke-width="0.4"/>
<line x1="87.314" y1="13.241" x2="95.739" y2="4.816" stroke="#141414" stroke-width="0.4"/>
<line x1="95.739" y1="4.816" x2="102.494" y2="7.96" stroke="#141414" stroke-width="0.4"/>
<line x1="62.837" y1="59.653" x2="69.353" y2="67.34" stroke="#141414" stroke-width="0.4"/>
<line x1="69.353" y1="67.34" x2="103.015" y2="70.707" stroke="#141414" stroke-width="0.4"/>
<line x1="103.015" y1="70.707" x2="110.925" y2="64.464" stroke="#141414" stroke-width="0.4"/>
<line x1="102.494" y1="32.032" x2="109.249" y2="35.176" stroke="#141414" stroke-width="0.4"/>
<line x1="109.249" y1="35.176" x2="117.674" y2="26.751" stroke="#141414" stroke-width="0.4"/>
<line x1="117.674" y1="26.751" x2="114.529" y2="19.996" stroke="#141414" stroke-width="0.4"/>
<line x1="114.529" y1="19.996" x2="117.674" y2="13.241" stroke="#141414" stroke-width="0.4"/>
<line x1="117.674" y1="13.241" x2="109.249" y2="4.816" stroke="#141414" stroke-width="0.4"/>
<line x1="109.249" y1="4.816" x2="102.494" y2="7.96" stroke="#141414" stroke-width="0.4"/>
<circle cx="94.001" cy="11.503" r="3.08" fill="#ffe082" stroke="#464646" stroke-width="0.2"/>
<text x="94.001" y="12.97" font-size="4.18" text-anchor="middle" fill="#141414">25</text>
<circle cx="86.532" cy="65.541" r="3.08" fill="#ffe082" stroke="#464646" stroke-width="0.2"/>
<text x="86.532" y="67.00" font-size="4.18" text-anchor="middle" fill="#141414">26</text>
<circle cx="110.986" cy="28.489" r="3.08" fill="#ffe082" stroke="#464646" stroke-width="0.2"/>
<text x="110.986" y="29.95" font-size="4.18" text-anchor="middle" fill="#141414">27</text>
<circle cx="110.986" cy="11.503" r="3.08" fill="#ffe082" stroke="#464646" stroke-width="0.2"/>
<text x="110.986" y="12.97" font-size="4.18" text-anchor="middle" fill="#141414">28</text>
<circle cx="90.255" cy="76.991" r="4.6" fill="#eaf1fe" stroke="#2e78e6" stroke-width="0.3"/>
<text x="90.255" y="78.791" font-size="5.2" text-anchor="middle" fill="#14306e" font-weight="bold">4</text>
<polygon points="148.295,19.996 145.15,13.241 153.576,4.816 160.331,7.96" fill="rgb(216,216,216)"/>
<polygon points="120.674,59.653 127.19,67.34 160.852,70.707 168.762,64.464" fill="rgb(216,216,216)"/>
<polygon points="160.331,32.032 167.086,35.176 175.511,26.751 172.366,19.996" fill="rgb(216,216,216)"/>
<polygon points="172.366,19.996 175.511,13.241 167.086,4.816 160.331,7.96" fill="rgb(216,216,216)"/>
<line x1="120.674" y1="59.653" x2="148.295" y2="19.996" stroke="#8c8c8c" stroke-width="0.3" stroke-dasharray="1.2,0.8"/>
<line x1="160.331" y1="32.032" x2="148.295" y2="19.996" stroke="#8c8c8c" stroke-width="0.3" stroke-dasharray="1.2,0.8"/>
<line x1="160.331" y1="32.032" x2="120.674" y2="59.653" stroke="#8c8c8c" stroke-width="0.3" stroke-dasharray="1.2,0.8"/>
<line x1="167.447" y1="47.494" x2="120.674" y2="59.653" stroke="#8c8c8c" stroke-width="0.3" stroke-dasharray="1.2,0.8"/>
<line x1="160.331" y1="7.96" x2="148.295" y2="19.996" stroke="#8c8c8c" stroke-width="0.3" stroke-dasharray="1.2,0.8"/>
<line x1="168.762" y1="64.464" x2="120.674" y2="59.653" stroke="#8c8c8c" stroke-width="0.3" stroke-dasharray="1.2,0.8"/>
<line x1="172.366" y1="19.996" x2="160.331" y2="32.032" stroke="#8c8c8c" stroke-width="0.3" stroke-dasharray="1.2,0.8"/>
<line x1="160.331" y1="7.96" x2="172.366" y2="19.996" stroke="#8c8c8c" stroke-width="0.3" stroke-dasharray="1.2,0.8"/>
<line x1="132.833" y1="12.88" x2="148.295" y2="19.996" stroke="#141414" stroke-width="0.4"/>
<line x1="120.674" y1="59.653" x2="132.833" y2="12.88" stroke="#141414" stroke-width="0.4"/>
<line x1="160.331" y1="32.032" x2="167.447" y2="47.494" stroke="#141414" stroke-width="0.4"/>
<line x1="167.447" y1="47.494" x2="168.762" y2="64.464" stroke="#141414" stroke-width="0.4"/>
<line x1="148.295" y1="19.996" x2="145.15" y2="13.241" stroke="#141414" stroke-width="0.4"/>
<line x1="145.15" y1="13.241" x2="153.576" y2="4.816" stroke="#141414" stroke-width="0.4"/>
<line x1="153.576" y1="4.816" x2="160.331" y2="7.96" stroke="#141414" stroke-width="0.4"/>
<line x1="120.674" y1="59.653" x2="127.19" y2="67.34" stroke="#141414" stroke-width="0.4"/>
<line x1="127.19" y1="67.34" x2="160.852" y2="70.707" stroke="#141414" stroke-width="0.4"/>
<line x1="160.852" y1="70.707" x2="168.762" y2="64.464" stroke="#141414" stroke-width="0.4"/>
<line x1="160.331" y1="32.032" x2="167.086" y2="35.176" stroke="#141414" stroke-width="0.4"/>
<line x1="167.086" y1="35.176" x2="175.511" y2="26.751" stroke="#141414" stroke-width="0.4"/>
<line x1="175.511" y1="26.751" x2="172.366" y2="19.996" stroke="#141414" stroke-width="0.4"/>
<line x1="172.366" y1="19.996" x2="175.511" y2="13.241" stroke="#141414" stroke-width="0.4"/>
<line x1="175.511" y1="13.241" x2="167.086" y2="4.816" stroke="#141414" stroke-width="0.4"/>
<line x1="167.086" y1="4.816" x2="160.331" y2="7.96" stroke="#141414" stroke-width="0.4"/>
<circle cx="151.838" cy="11.503" r="3.08" fill="#ffe082" stroke="#464646" stroke-width="0.2"/>
<text x="151.838" y="12.97" font-size="4.18" text-anchor="middle" fill="#141414">29</text>
<circle cx="144.369" cy="65.541" r="3.08" fill="#ffe082" stroke="#464646" stroke-width="0.2"/>
<text x="144.369" y="67.00" font-size="4.18" text-anchor="middle" fill="#141414">30</text>
<circle cx="168.823" cy="28.489" r="3.08" fill="#ffe082" stroke="#464646" stroke-width="0.2"/>
<text x="168.823" y="29.95" font-size="4.18" text-anchor="middle" fill="#141414">31</text>
<circle cx="168.823" cy="11.503" r="3.08" fill="#ffe082" stroke="#464646" stroke-width="0.2"/>
<text x="168.823" y="12.97" font-size="4.18" text-anchor="middle" fill="#141414">32</text>
<circle cx="148.092" cy="76.991" r="4.6" fill="#eaf1fe" stroke="#2e78e6" stroke-width="0.3"/>
<text x="148.092" y="78.791" font-size="5.2" text-anchor="middle" fill="#14306e" font-weight="bold">5</text>
<polygon points="32.621,88.887 29.477,82.132 37.902,73.707 44.657,76.852" fill="rgb(216,216,216)"/>
<polygon points="5.0,128.544 11.516,136.231 45.178,139.599 53.088,133.355" fill="rgb(216,216,216)"/>
<polygon points="44.657,100.923 51.412,104.067 59.837,95.642 56.692,88.887" fill="rgb(216,216,216)"/>
<polygon points="56.692,88.887 59.837,82.132 51.412,73.707 44.657,76.852" fill="rgb(216,216,216)"/>
<line x1="5.0" y1="128.544" x2="32.621" y2="88.887" stroke="#8c8c8c" stroke-width="0.3" stroke-dasharray="1.2,0.8"/>
<line x1="44.657" y1="100.923" x2="32.621" y2="88.887" stroke="#8c8c8c" stroke-width="0.3" stroke-dasharray="1.2,0.8"/>
<line x1="44.657" y1="100.923" x2="5.0" y2="128.544" stroke="#8c8c8c" stroke-width="0.3" stroke-dasharray="1.2,0.8"/>
<line x1="51.773" y1="116.385" x2="5.0" y2="128.544" stroke="#8c8c8c" stroke-width="0.3" stroke-dasharray="1.2,0.8"/>
<line x1="44.657" y1="76.852" x2="32.621" y2="88.887" stroke="#8c8c8c" stroke-width="0.3" stroke-dasharray="1.2,0.8"/>
<line x1="53.088" y1="133.355" x2="5.0" y2="128.544" stroke="#8c8c8c" stroke-width="0.3" stroke-dasharray="1.2,0.8"/>
<line x1="56.692" y1="88.887" x2="44.657" y2="100.923" stroke="#8c8c8c" stroke-width="0.3" stroke-dasharray="1.2,0.8"/>
<line x1="44.657" y1="76.852" x2="56.692" y2="88.887" stroke="#8c8c8c" stroke-width="0.3" stroke-dasharray="1.2,0.8"/>
<line x1="17.159" y1="81.771" x2="32.621" y2="88.887" stroke="#141414" stroke-width="0.4"/>
<line x1="5.0" y1="128.544" x2="17.159" y2="81.771" stroke="#141414" stroke-width="0.4"/>
<line x1="44.657" y1="100.923" x2="51.773" y2="116.385" stroke="#141414" stroke-width="0.4"/>
<line x1="51.773" y1="116.385" x2="53.088" y2="133.355" stroke="#141414" stroke-width="0.4"/>
<line x1="32.621" y1="88.887" x2="29.477" y2="82.132" stroke="#141414" stroke-width="0.4"/>
<line x1="29.477" y1="82.132" x2="37.902" y2="73.707" stroke="#141414" stroke-width="0.4"/>
<line x1="37.902" y1="73.707" x2="44.657" y2="76.852" stroke="#141414" stroke-width="0.4"/>
<line x1="5.0" y1="128.544" x2="11.516" y2="136.231" stroke="#141414" stroke-width="0.4"/>
<line x1="11.516" y1="136.231" x2="45.178" y2="139.599" stroke="#141414" stroke-width="0.4"/>
<line x1="45.178" y1="139.599" x2="53.088" y2="133.355" stroke="#141414" stroke-width="0.4"/>
<line x1="44.657" y1="100.923" x2="51.412" y2="104.067" stroke="#141414" stroke-width="0.4"/>
<line x1="51.412" y1="104.067" x2="59.837" y2="95.642" stroke="#141414" stroke-width="0.4"/>
<line x1="59.837" y1="95.642" x2="56.692" y2="88.887" stroke="#141414" stroke-width="0.4"/>
<line x1="56.692" y1="88.887" x2="59.837" y2="82.132" stroke="#141414" stroke-width="0.4"/>
<line x1="59.837" y1="82.132" x2="51.412" y2="73.707" stroke="#141414" stroke-width="0.4"/>
<line x1="51.412" y1="73.707" x2="44.657" y2="76.852" stroke="#141414" stroke-width="0.4"/>
<circle cx="36.164" cy="80.395" r="3.08" fill="#ffe082" stroke="#464646" stroke-width="0.2"/>
<text x="36.164" y="81.86" font-size="4.18" text-anchor="middle" fill="#141414">33</text>
<circle cx="28.696" cy="134.432" r="3.08" fill="#ffe082" stroke="#464646" stroke-width="0.2"/>
<text x="28.696" y="135.89" font-size="4.18" text-anchor="middle" fill="#141414">34</text>
<circle cx="53.149" cy="97.38" r="3.08" fill="#ffe082" stroke="#464646" stroke-width="0.2"/>
<text x="53.149" y="98.84" font-size="4.18" text-anchor="middle" fill="#141414">35</text>
<circle cx="53.15" cy="80.395" r="3.08" fill="#ffe082" stroke="#464646" stroke-width="0.2"/>
<text x="53.15" y="81.86" font-size="4.18" text-anchor="middle" fill="#141414">36</text>
<circle cx="32.418" cy="67.791" r="4.6" fill="#eaf1fe" stroke="#2e78e6" stroke-width="0.3"/>
<text x="32.418" y="69.591" font-size="5.2" text-anchor="middle" fill="#14306e" font-weight="bold">6</text>
<polygon points="90.458,88.887 87.314,82.132 95.739,73.707 102.494,76.852" fill="rgb(216,216,216)"/>
<polygon points="62.837,128.544 69.353,136.231 103.015,139.599 110.925,133.355" fill="rgb(216,216,216)"/>
<polygon points="102.494,100.923 109.249,104.067 117.674,95.642 114.529,88.887" fill="rgb(216,216,216)"/>
<polygon points="114.529,88.887 117.674,82.132 109.249,73.707 102.494,76.852" fill="rgb(216,216,216)"/>
<line x1="62.837" y1="128.544" x2="90.458" y2="88.887" stroke="#8c8c8c" stroke-width="0.3" stroke-dasharray="1.2,0.8"/>
<line x1="102.494" y1="100.923" x2="90.458" y2="88.887" stroke="#8c8c8c" stroke-width="0.3" stroke-dasharray="1.2,0.8"/>
<line x1="102.494" y1="100.923" x2="62.837" y2="128.544" stroke="#8c8c8c" stroke-width="0.3" stroke-dasharray="1.2,0.8"/>
<line x1="109.61" y1="116.385" x2="62.837" y2="128.544" stroke="#8c8c8c" stroke-width="0.3" stroke-dasharray="1.2,0.8"/>
<line x1="102.494" y1="76.852" x2="90.458" y2="88.887" stroke="#8c8c8c" stroke-width="0.3" stroke-dasharray="1.2,0.8"/>
<line x1="110.925" y1="133.355" x2="62.837" y2="128.544" stroke="#8c8c8c" stroke-width="0.3" stroke-dasharray="1.2,0.8"/>
<line x1="114.529" y1="88.887" x2="102.494" y2="100.923" stroke="#8c8c8c" stroke-width="0.3" stroke-dasharray="1.2,0.8"/>
<line x1="102.494" y1="76.852" x2="114.529" y2="88.887" stroke="#8c8c8c" stroke-width="0.3" stroke-dasharray="1.2,0.8"/>
<line x1="74.996" y1="81.771" x2="90.458" y2="88.887" stroke="#141414" stroke-width="0.4"/>
<line x1="62.837" y1="128.544" x2="74.996" y2="81.771" stroke="#141414" stroke-width="0.4"/>
<line x1="102.494" y1="100.923" x2="109.61" y2="116.385" stroke="#141414" stroke-width="0.4"/>
<line x1="109.61" y1="116.385" x2="110.925" y2="133.355" stroke="#141414" stroke-width="0.4"/>
<line x1="90.458" y1="88.887" x2="87.314" y2="82.132" stroke="#141414" stroke-width="0.4"/>
<line x1="87.314" y1="82.132" x2="95.739" y2="73.707" stroke="#141414" stroke-width="0.4"/>
<line x1="95.739" y1="73.707" x2="102.494" y2="76.852" stroke="#141414" stroke-width="0.4"/>
<line x1="62.837" y1="128.544" x2="69.353" y2="136.231" stroke="#141414" stroke-width="0.4"/>
<line x1="69.353" y1="136.231" x2="103.015" y2="139.599" stroke="#141414" stroke-width="0.4"/>
<line x1="103.015" y1="139.599" x2="110.925" y2="133.355" stroke="#141414" stroke-width="0.4"/>
<line x1="102.494" y1="100.923" x2="109.249" y2="104.067" stroke="#141414" stroke-width="0.4"/>
<line x1="109.249" y1="104.067" x2="117.674" y2="95.642" stroke="#141414" stroke-width="0.4"/>
<line x1="117.674" y1="95.642" x2="114.529" y2="88.887" stroke="#141414" stroke-width="0.4"/>
<line x1="114.529" y1="88.887" x2="117.674" y2="82.132" stroke="#141414" stroke-width="0.4"/>
<line x1="117.674" y1="82.132" x2="109.249" y2="73.707" stroke="#141414" stroke-width="0.4"/>
<line x1="109.249" y1="73.707" x2="102.494" y2="76.852" stroke="#141414" stroke-width="0.4"/>
<circle cx="94.001" cy="80.395" r="3.08" fill="#ffe082" stroke="#464646" stroke-width="0.2"/>
<text x="94.001" y="81.86" font-size="4.18" text-anchor="middle" fill="#141414">37</text>
<circle cx="86.532" cy="134.432" r="3.08" fill="#ffe082" stroke="#464646" stroke-width="0.2"/>
<text x="86.532" y="135.89" font-size="4.18" text-anchor="middle" fill="#141414">38</text>
<circle cx="110.986" cy="97.38" r="3.08" fill="#ffe082" stroke="#464646" stroke-width="0.2"/>
<text x="110.986" y="98.84" font-size="4.18" text-anchor="middle" fill="#141414">39</text>
<circle cx="110.986" cy="80.395" r="3.08" fill="#ffe082" stroke="#464646" stroke-width="0.2"/>
<text x="110.986" y="81.86" font-size="4.18" text-anchor="middle" fill="#141414">40</text>
<circle cx="90.255" cy="67.791" r="4.6" fill="#eaf1fe" stroke="#2e78e6" stroke-width="0.3"/>
<text x="90.255" y="69.591" font-size="5.2" text-anchor="middle" fill="#14306e" font-weight="bold">7</text>
<polygon points="148.295,88.887 145.15,82.132 153.576,73.707 160.331,76.852" fill="rgb(216,216,216)"/>
<polygon points="120.674,128.544 127.19,136.231 160.852,139.599 168.762,133.355" fill="rgb(216,216,216)"/>
<polygon points="160.331,100.923 167.086,104.067 175.511,95.642 172.366,88.887" fill="rgb(216,216,216)"/>
<polygon points="172.366,88.887 175.511,82.132 167.086,73.707 160.331,76.852" fill="rgb(216,216,216)"/>
<line x1="120.674" y1="128.544" x2="148.295" y2="88.887" stroke="#8c8c8c" stroke-width="0.3" stroke-dasharray="1.2,0.8"/>
<line x1="160.331" y1="100.923" x2="148.295" y2="88.887" stroke="#8c8c8c" stroke-width="0.3" stroke-dasharray="1.2,0.8"/>
<line x1="160.331" y1="100.923" x2="120.674" y2="128.544" stroke="#8c8c8c" stroke-width="0.3" stroke-dasharray="1.2,0.8"/>
<line x1="167.447" y1="116.385" x2="120.674" y2="128.544" stroke="#8c8c8c" stroke-width="0.3" stroke-dasharray="1.2,0.8"/>
<line x1="160.331" y1="76.852" x2="148.295" y2="88.887" stroke="#8c8c8c" stroke-width="0.3" stroke-dasharray="1.2,0.8"/>
<line x1="168.762" y1="133.355" x2="120.674" y2="128.544" stroke="#8c8c8c" stroke-width="0.3" stroke-dasharray="1.2,0.8"/>
<line x1="172.366" y1="88.887" x2="160.331" y2="100.923" stroke="#8c8c8c" stroke-width="0.3" stroke-dasharray="1.2,0.8"/>
<line x1="160.331" y1="76.852" x2="172.366" y2="88.887" stroke="#8c8c8c" stroke-width="0.3" stroke-dasharray="1.2,0.8"/>
<line x1="132.833" y1="81.771" x2="148.295" y2="88.887" stroke="#141414" stroke-width="0.4"/>
<line x1="120.674" y1="128.544" x2="132.833" y2="81.771" stroke="#141414" stroke-width="0.4"/>
<line x1="160.331" y1="100.923" x2="167.447" y2="116.385" stroke="#141414" stroke-width="0.4"/>
<line x1="167.447" y1="116.385" x2="168.762" y2="133.355" stroke="#141414" stroke-width="0.4"/>
<line x1="148.295" y1="88.887" x2="145.15" y2="82.132" stroke="#141414" stroke-width="0.4"/>
<line x1="145.15" y1="82.132" x2="153.576" y2="73.707" stroke="#141414" stroke-width="0.4"/>
<line x1="153.576" y1="73.707" x2="160.331" y2="76.852" stroke="#141414" stroke-width="0.4"/>
<line x1="120.674" y1="128.544" x2="127.19" y2="136.231" stroke="#141414" stroke-width="0.4"/>
<line x1="127.19" y1="136.231" x2="160.852" y2="139.599" stroke="#141414" stroke-width="0.4"/>
<line x1="160.852" y1="139.599" x2="168.762" y2="133.355" stroke="#141414" stroke-width="0.4"/>
<line x1="160.331" y1="100.923" x2="167.086" y2="104.067" stroke="#141414" stroke-width="0.4"/>
<line x1="167.086" y1="104.067" x2="175.511" y2="95.642" stroke="#141414" stroke-width="0.4"/>
<line x1="175.511" y1="95.642" x2="172.366" y2="88.887" stroke="#141414" stroke-width="0.4"/>
<line x1="172.366" y1="88.887" x2="175.511" y2="82.132" stroke="#141414" stroke-width="0.4"/>
<line x1="175.511" y1="82.132" x2="167.086" y2="73.707" stroke="#141414" stroke-width="0.4"/>
<line x1="167.086" y1="73.707" x2="160.331" y2="76.852" stroke="#141414" stroke-width="0.4"/>
<circle cx="151.838" cy="80.395" r="3.08" fill="#ffe082" stroke="#464646" stroke-width="0.2"/>
<text x="151.838" y="81.86" font-size="4.18" text-anchor="middle" fill="#141414">41</text>
<circle cx="144.369" cy="134.432" r="3.08" fill="#ffe082" stroke="#464646" stroke-width="0.2"/>
<text x="144.369" y="135.89" font-size="4.18" text-anchor="middle" fill="#141414">42</text>
<circle cx="168.823" cy="97.38" r="3.08" fill="#ffe082" stroke="#464646" stroke-width="0.2"/>
<text x="168.823" y="98.84" font-size="4.18" text-anchor="middle" fill="#141414">43</text>
<circle cx="168.823" cy="80.395" r="3.08" fill="#ffe082" stroke="#464646" stroke-width="0.2"/>
<text x="168.823" y="81.86" font-size="4.18" text-anchor="middle" fill="#141414">44</text>
<circle cx="148.092" cy="67.791" r="4.6" fill="#eaf1fe" stroke="#2e78e6" stroke-width="0.3"/>
<text x="148.092" y="69.591" font-size="5.2" text-anchor="middle" fill="#14306e" font-weight="bold">8</text>
</svg>
