<svg xmlns="http://www.w3.org/2000/svg" xmlns:xlink="http://www.w3.org/1999/xlink" width="210.00mm" height="297.00mm" viewBox="0 0 210.00 297.00">
<rect x="0" y="0" width="210.00" height="297.00" fill="#ffffff" stroke="#cccccc" stroke-width="0.2"/>
<polygon points="56.472,152.064 60.609,159.064 79.911,159.064 84.047,152.064" fill="rgb(216,216,216)"/>
<polygon points="56.472,92.32 60.609,85.32 79.911,85.32 84.047,92.32" fill="rgb(216,216,216)"/>
<polygon points="84.047,152.064 91.047,143.103 91.047,101.281 84.047,92.32" fill="rgb(216,216,216)"/>
<polygon points="56.472,179.639 52.888,186.639 36.159,186.639 32.574,179.639" fill="rgb(216,216,216)"/>
<polygon points="32.574,152.064 25.575,143.103 25.575,101.281 32.574,92.32" fill="rgb(216,216,216)"/>
<polygon points="32.574,152.064 25.575,156.201 25.575,175.503 32.574,179.639" fill="rgb(216,216,216)"/>
<polygon points="32.574,92.32 25.575,88.183 25.575,68.881 32.574,64.745" fill="rgb(216,216,216)"/>
<polygon points="56.472,152.064 60.609,159.064 79.911,159.064 84.047,152.064" fill="#99d9fa"/>
<line x1="56.472" y1="152.064" x2="56.472" y2="92.32" stroke="#8c8c8c" stroke-width="0.3" stroke-dasharray="1.2,0.8"/>
<line x1="56.472" y1="152.064" x2="32.575" y2="152.064" stroke="#8c8c8c" stroke-width="0.3" stroke-dasharray="1.2,0.8"/>
<line x1="32.575" y1="92.32" x2="56.472" y2="92.32" stroke="#8c8c8c" stroke-width="0.3" stroke-dasharray="1.2,0.8"/>
<line x1="32.575" y1="64.745" x2="56.472" y2="64.745" stroke="#8c8c8c" stroke-width="0.3" stroke-dasharray="1.2,0.8"/>
<line x1="32.575" y1="64.745" x2="32.575" y2="5.0" stroke="#8c8c8c" stroke-width="0.3" stroke-dasharray="1.2,0.8"/>
<line x1="84.047" y1="152.064" x2="56.472" y2="152.064" stroke="#8c8c8c" stroke-width="0.3" stroke-dasharray="1.2,0.8"/>
<line x1="84.047" y1="92.32" x2="56.472" y2="92.32" stroke="#8c8c8c" stroke-width="0.3" stroke-dasharray="1.2,0.8"/>
<line x1="84.047" y1="92.32" x2="84.047" y2="152.064" stroke="#8c8c8c" stroke-width="0.3" stroke-dasharray="1.2,0.8"/>
<line x1="32.574" y1="179.639" x2="56.472" y2="179.639" stroke="#8c8c8c" stroke-width="0.3" stroke-dasharray="1.2,0.8"/>
<line x1="32.574" y1="92.32" x2="32.574" y2="152.064" stroke="#8c8c8c" stroke-width="0.3" stroke-dasharray="1.2,0.8"/>
<line x1="32.574" y1="179.639" x2="32.574" y2="152.064" stroke="#8c8c8c" stroke-width="0.3" stroke-dasharray="1.2,0.8"/>
<line x1="32.574" y1="64.745" x2="32.574" y2="92.32" stroke="#8c8c8c" stroke-width="0.3" stroke-dasharray="1.2,0.8"/>
<line x1="56.472" y1="152.064" x2="56.472" y2="179.639" stroke="#141414" stroke-width="0.4"/>
<line x1="56.472" y1="64.745" x2="56.472" y2="92.32" stroke="#141414" stroke-width="0.4"/>
<line x1="56.472" y1="5.0" x2="56.472" y2="64.745" stroke="#141414" stroke-width="0.4"/>
<line x1="32.575" y1="5.0" x2="56.472" y2="5.0" stroke="#141414" stroke-width="0.4"/>
<line x1="5.0" y1="64.745" x2="5.0" y2="5.0" stroke="#141414" stroke-width="0.4"/>
<line x1="5.0" y1="5.0" x2="32.575" y2="5.0" stroke="#141414" stroke-width="0.4"/>
<line x1="32.575" y1="64.745" x2="5.0" y2="64.745" stroke="#141414" stroke-width="0.4"/>
<line x1="56.472" y1="152.064" x2="60.609" y2="159.064" stroke="#141414" stroke-width="0.4"/>
<line x1="60.609" y1="159.064" x2="79.911" y2="159.064" stroke="#141414" stroke-width="0.4"/>
<line x1="79.911" y1="159.064" x2="84.047" y2="152.064" stroke="#141414" stroke-width="0.4"/>
<line x1="56.472" y1="92.32" x2="60.609" y2="85.32" stroke="#141414" stroke-width="0.4"/>
<line x1="60.609" y1="85.32" x2="79.911" y2="85.32" stroke="#141414" stroke-width="0.4"/>
<line x1="79.911" y1="85.32" x2="84.047" y2="92.32" stroke="#141414" stroke-width="0.4"/>
<line x1="84.047" y1="152.064" x2="91.047" y2="143.103" stroke="#141414" stroke-width="0.4"/>
<line x1="91.047" y1="143.103" x2="91.047" y2="101.281" stroke="#141414" stroke-width="0.4"/>
<line x1="91.047" y1="101.281" x2="84.047" y2="92.32" stroke="#141414" stroke-width="0.4"/>
<line x1="56.472" y1="179.639" x2="52.888" y2="186.639" stroke="#141414" stroke-width="0.4"/>
<line x1="52.888" y1="186.639" x2="36.159" y2="186.639" stroke="#141414" stroke-width="0.4"/>
<line x1="36.159" y1="186.639" x2="32.574" y2="179.639" stroke="#141414" stroke-width="0.4"/>
<line x1="32.574" y1="152.064" x2="25.575" y2="143.103" stroke="#141414" stroke-width="0.4"/>
<line x1="25.575" y1="143.103" x2="25.575" y2="101.281" stroke="#141414" stroke-width="0.4"/>
<line x1="25.575" y1="101.281" x2="32.574" y2="92.32" stroke="#141414" stroke-width="0.4"/>
<line x1="32.574" y1="152.064" x2="25.575" y2="156.201" stroke="#141414" stroke-width="0.4"/>
<line x1="25.575" y1="156.201" x2="25.575" y2="175.503" stroke="#141414" stroke-width="0.4"/>
<line x1="25.575" y1="175.503" x2="32.574" y2="179.639" stroke="#141414" stroke-width="0.4"/>
<line x1="32.574" y1="92.32" x2="25.575" y2="88.183" stroke="#141414" stroke-width="0.4"/>
<line x1="25.575" y1="88.183" x2="25.575" y2="68.881" stroke="#141414" stroke-width="0.4"/>
<line x1="25.575" y1="68.881" x2="32.574" y2="64.745" stroke="#141414" stroke-width="0.4"/>
<circle cx="70.26" cy="155.564" r="3.08" fill="#99d9fa" stroke="#464646" stroke-width="0.2"/>
<text x="70.26" y="157.03" font-size="4.18" text-anchor="middle" fill="#141414">36</text>
<circle cx="70.26" cy="88.82" r="3.08" fill="#ffe082" stroke="#464646" stroke-width="0.2"/>
<text x="70.26" y="90.28" font-size="4.18" text-anchor="middle" fill="#141414">37</text>
<circle cx="87.547" cy="122.192" r="3.08" fill="#ffe082" stroke="#464646" stroke-width="0.2"/>
<text x="87.547" y="123.65" font-size="4.18" text-anchor="middle" fill="#141414">38</text>
<circle cx="44.524" cy="183.139" r="3.08" fill="#ffe082" stroke="#464646" stroke-width="0.2"/>
<text x="44.524" y="184.60" font-size="4.18" text-anchor="middle" fill="#141414">39</text>
<circle cx="29.074" cy="122.192" r="3.08" fill="#ffe082" stroke="#464646" stroke-width="0.2"/>
<text x="29.074" y="123.65" font-size="4.18" text-anchor="middle" fill="#141414">40</text>
<circle cx="29.074" cy="165.852" r="3.08" fill="#ffe082" stroke="#464646" stroke-width="0.2"/>
<text x="29.074" y="167.31" font-size="4.18" text-anchor="middle" fill="#141414">41</text>
<circle cx="29.074" cy="78.532" r="3.08" fill="#ffe082" stroke="#464646" stroke-width="0.2"/>
<text x="29.074" y="79.99" font-size="4.18" text-anchor="middle" fill="#141414">42</text>
<circle cx="40.541" cy="170.447" r="4.60" fill="#eaf1fe" stroke="#2e78e6" stroke-width="0.3"/>
<text x="40.541" y="172.25" font-size="5.20" text-anchor="middle" fill="#14306e" font-weight="bold">6</text>
<polygon points="145.52,152.064 149.656,159.064 168.958,159.064 173.094,152.064" fill="rgb(216,216,216)"/>
<polygon points="145.52,92.32 149.656,85.32 168.958,85.32 173.094,92.32" fill="rgb(216,216,216)"/>
<polygon points="173.094,152.064 180.094,143.103 180.094,101.281 173.094,92.32" fill="rgb(216,216,216)"/>
<polygon points="145.52,179.639 141.935,186.639 125.206,186.639 121.622,179.639" fill="rgb(216,216,216)"/>
<polygon points="121.622,152.064 114.622,143.103 114.622,101.281 121.622,92.32" fill="rgb(216,216,216)"/>
<polygon points="121.622,152.064 114.622,156.201 114.622,175.503 121.622,179.639" fill="rgb(216,216,216)"/>
<polygon points="121.622,92.32 114.622,88.183 114.622,68.881 121.622,64.745" fill="rgb(216,216,216)"/>
<polygon points="145.52,152.064 149.656,159.064 168.958,159.064 173.094,152.064" fill="#99d9fa"/>
<line x1="145.52" y1="152.064" x2="145.52" y2="92.32" stroke="#8c8c8c" stroke-width="0.3" stroke-dasharray="1.2,0.8"/>
<line x1="145.52" y1="152.064" x2="121.622" y2="152.064" stroke="#8c8c8c" stroke-width="0.3" stroke-dasharray="1.2,0.8"/>
<line x1="121.622" y1="92.32" x2="145.52" y2="92.32" stroke="#8c8c8c" stroke-width="0.3" stroke-dasharray="1.2,0.8"/>
<line x1="121.622" y1="64.745" x2="145.52" y2="64.745" stroke="#8c8c8c" stroke-width="0.3" stroke-dasharray="1.2,0.8"/>
<line x1="121.622" y1="64.745" x2="121.622" y2="5.0" stroke="#8c8c8c" stroke-width="0.3" stroke-dasharray="1.2,0.8"/>
<line x1="173.094" y1="152.064" x2="145.52" y2="152.064" stroke="#8c8c8c" stroke-width="0.3" stroke-dasharray="1.2,0.8"/>
<line x1="173.094" y1="92.32" x2="145.52" y2="92.32" stroke="#8c8c8c" stroke-width="0.3" stroke-dasharray="1.2,0.8"/>
<line x1="173.094" y1="92.32" x2="173.094" y2="152.064" stroke="#8c8c8c" stroke-width="0.3" stroke-dasharray="1.2,0.8"/>
<line x1="121.622" y1="179.639" x2="145.52" y2="179.639" stroke="#8c8c8c" stroke-width="0.3" stroke-dasharray="1.2,0.8"/>
<line x1="121.622" y1="92.32" x2="121.622" y2="152.064" stroke="#8c8c8c" stroke-width="0.3" stroke-dasharray="1.2,0.8"/>
<line x1="121.622" y1="179.639" x2="121.622" y2="152.064" stroke="#8c8c8c" stroke-width="0.3" stroke-dasharray="1.2,0.8"/>
<line x1="121.622" y1="64.745" x2="121.622" y2="92.32" stroke="#8c8c8c" stroke-width="0.3" stroke-dasharray="1.2,0.8"/>
<line x1="145.52" y1="152.064" x2="145.52" y2="179.639" stroke="#141414" stroke-width="0.4"/>
<line x1="145.52" y1="64.745" x2="145.52" y2="92.32" stroke="#141414" stroke-width="0.4"/>
<line x1="145.52" y1="5.0" x2="145.52" y2="64.745" stroke="#141414" stroke-width="0.4"/>
<line x1="121.622" y1="5.0" x2="145.52" y2="5.0" stroke="#141414" stroke-width="0.4"/>
<line x1="94.047" y1="64.745" x2="94.047" y2="5.0" stroke="#141414" stroke-width="0.4"/>
<line x1="94.047" y1="5.0" x2="121.622" y2="5.0" stroke="#141414" stroke-width="0.4"/>
<line x1="121.622" y1="64.745" x2="94.047" y2="64.745" stroke="#141414" stroke-width="0.4"/>
<line x1="145.52" y1="152.064" x2="149.656" y2="159.064" stroke="#141414" stroke-width="0.4"/>
<line x1="149.656" y1="159.064" x2="168.958" y2="159.064" stroke="#141414" stroke-width="0.4"/>
<line x1="168.958" y1="159.064" x2="173.094" y2="152.064" stroke="#141414" stroke-width="0.4"/>
<line x1="145.52" y1="92.32" x2="149.656" y2="85.32" stroke="#141414" stroke-width="0.4"/>
<line x1="149.656" y1="85.32" x2="168.958" y2="85.32" stroke="#141414" stroke-width="0.4"/>
<line x1="168.958" y1="85.32" x2="173.094" y2="92.32" stroke="#141414" stroke-width="0.4"/>
<line x1="173.094" y1="152.064" x2="180.094" y2="143.103" stroke="#141414" stroke-width="0.4"/>
<line x1="180.094" y1="143.103" x2="180.094" y2="101.281" stroke="#141414" stroke-width="0.4"/>
<line x1="180.094" y1="101.281" x2="173.094" y2="92.32" stroke="#141414" stroke-width="0.4"/>
<line x1="145.52" y1="179.639" x2="141.935" y2="186.639" stroke="#141414" stroke-width="0.4"/>
<line x1="141.935" y1="186.639" x2="125.206" y2="186.639" stroke="#141414" stroke-width="0.4"/>
<line x1="125.206" y1="186.639" x2="121.622" y2="179.639" stroke="#141414" stroke-width="0.4"/>
<line x1="121.622" y1="152.064" x2="114.622" y2="143.103" stroke="#141414" stroke-width="0.4"/>
<line x1="114.622" y1="143.103" x2="114.622" y2="101.281" stroke="#141414" stroke-width="0.4"/>
<line x1="114.622" y1="101.281" x2="121.622" y2="92.32" stroke="#141414" stroke-width="0.4"/>
<line x1="121.622" y1="152.064" x2="114.622" y2="156.201" stroke="#141414" stroke-width="0.4"/>
<line x1="114.622" y1="156.201" x2="114.622" y2="175.503" stroke="#141414" stroke-width="0.4"/>
<line x1="114.622" y1="175.503" x2="121.622" y2="179.639" stroke="#141414" stroke-width="0.4"/>
<line x1="121.622" y1="92.32" x2="114.622" y2="88.183" stroke="#141414" stroke-width="0.4"/>
<line x1="114.622" y1="88.183" x2="114.622" y2="68.881" stroke="#141414" stroke-width="0.4"/>
<line x1="114.622" y1="68.881" x2="121.622" y2="64.745" stroke="#141414" stroke-width="0.4"/>
<circle cx="159.307" cy="155.564" r="3.08" fill="#99d9fa" stroke="#464646" stroke-width="0.2"/>
<text x="159.307" y="157.03" font-size="4.18" text-anchor="middle" fill="#141414">43</text>
<circle cx="159.307" cy="88.82" r="3.08" fill="#ffe082" stroke="#464646" stroke-width="0.2"/>
<text x="159.307" y="90.28" font-size="4.18" text-anchor="middle" fill="#141414">44</text>
<circle cx="176.594" cy="122.192" r="3.08" fill="#ffe082" stroke="#464646" stroke-width="0.2"/>
<text x="176.594" y="123.65" font-size="4.18" text-anchor="middle" fill="#141414">45</text>
<circle cx="133.571" cy="183.139" r="3.08" fill="#ffe082" stroke="#464646" stroke-width="0.2"/>
<text x="133.571" y="184.60" font-size="4.18" text-anchor="middle" fill="#141414">46</text>
<circle cx="118.122" cy="122.192" r="3.08" fill="#ffe082" stroke="#464646" stroke-width="0.2"/>
<text x="118.122" y="123.65" font-size="4.18" text-anchor="middle" fill="#141414">47</text>
<circle cx="118.122" cy="165.852" r="3.08" fill="#ffe082" stroke="#464646" stroke-width="0.2"/>
<text x="118.122" y="167.31" font-size="4.18" text-anchor="middle" fill="#141414">48</text>
<circle cx="118.122" cy="78.532" r="3.08" fill="#ffe082" stroke="#464646" stroke-width="0.2"/>
<text x="118.122" y="79.99" font-size="4.18" text-anchor="middle" fill="#141414">49</text>
<circle cx="129.588" cy="170.447" r="4.60" fill="#eaf1fe" stroke="#2e78e6" stroke-width="0.3"/>
<text x="129.588" y="172.25" font-size="5.20" text-anchor="middle" fill="#14306e" font-weight="bold">7</text>
<polygon points="73.112,234.678 68.562,241.678 47.33,241.678 42.78,234.678" fill="rgb(216,216,216)"/>
<polygon points="73.112,219.971 77.386,212.971 97.332,212.971 101.606,219.971" fill="rgb(216,216,216)"/>
<polygon points="73.112,219.971 68.562,212.971 47.33,212.971 42.78,219.971" fill="rgb(216,216,216)"/>
<polygon points="101.606,234.678 108.606,239.227 108.606,260.46 101.606,265.009" fill="rgb(216,216,216)"/>
<polygon points="14.286,189.639 7.287,194.189 7.287,215.421 14.286,219.971" fill="rgb(216,216,216)"/>
<polygon points="73.112,265.009 77.386,272.009 97.332,272.009 101.606,265.009" fill="rgb(216,216,216)"/>
<polygon points="131.938,234.678 138.938,232.471 138.938,222.177 131.938,219.971" fill="rgb(216,216,216)"/>
<polygon points="73.112,234.678 68.562,241.678 47.33,241.678 42.78,234.678" fill="#99d9fa"/>
<line x1="73.112" y1="234.678" x2="73.112" y2="219.971" stroke="#8c8c8c" stroke-width="0.3" stroke-dasharray="1.2,0.8"/>
<line x1="101.606" y1="234.678" x2="73.112" y2="234.678" stroke="#8c8c8c" stroke-width="0.3" stroke-dasharray="1.2,0.8"/>
<line x1="101.606" y1="219.971" x2="101.606" y2="234.678" stroke="#8c8c8c" stroke-width="0.3" stroke-dasharray="1.2,0.8"/>
<line x1="42.78" y1="234.678" x2="42.78" y2="219.971" stroke="#8c8c8c" stroke-width="0.3" stroke-dasharray="1.2,0.8"/>
<line x1="42.78" y1="219.971" x2="14.287" y2="219.971" stroke="#8c8c8c" stroke-width="0.3" stroke-dasharray="1.2,0.8"/>
<line x1="42.78" y1="234.678" x2="73.112" y2="234.678" stroke="#8c8c8c" stroke-width="0.3" stroke-dasharray="1.2,0.8"/>
<line x1="101.606" y1="219.971" x2="73.112" y2="219.971" stroke="#8c8c8c" stroke-width="0.3" stroke-dasharray="1.2,0.8"/>
<line x1="42.78" y1="219.971" x2="73.112" y2="219.971" stroke="#8c8c8c" stroke-width="0.3" stroke-dasharray="1.2,0.8"/>
<line x1="101.606" y1="265.009" x2="101.606" y2="234.678" stroke="#8c8c8c" stroke-width="0.3" stroke-dasharray="1.2,0.8"/>
<line x1="14.286" y1="219.971" x2="14.286" y2="189.639" stroke="#8c8c8c" stroke-width="0.3" stroke-dasharray="1.2,0.8"/>
<line x1="101.606" y1="265.009" x2="73.112" y2="265.009" stroke="#8c8c8c" stroke-width="0.3" stroke-dasharray="1.2,0.8"/>
<line x1="131.938" y1="219.971" x2="131.938" y2="234.678" stroke="#8c8c8c" stroke-width="0.3" stroke-dasharray="1.2,0.8"/>
<line x1="73.112" y1="265.009" x2="73.112" y2="234.678" stroke="#141414" stroke-width="0.4"/>
<line x1="14.287" y1="189.639" x2="42.78" y2="189.639" stroke="#141414" stroke-width="0.4"/>
<line x1="42.78" y1="189.639" x2="42.78" y2="219.971" stroke="#141414" stroke-width="0.4"/>
<line x1="131.938" y1="234.678" x2="101.606" y2="234.678" stroke="#141414" stroke-width="0.4"/>
<line x1="101.606" y1="219.971" x2="131.938" y2="219.971" stroke="#141414" stroke-width="0.4"/>
<line x1="42.78" y1="234.678" x2="14.287" y2="234.678" stroke="#141414" stroke-width="0.4"/>
<line x1="14.287" y1="234.678" x2="14.287" y2="219.971" stroke="#141414" stroke-width="0.4"/>
<line x1="73.112" y1="234.678" x2="68.562" y2="241.678" stroke="#141414" stroke-width="0.4"/>
<line x1="68.562" y1="241.678" x2="47.33" y2="241.678" stroke="#141414" stroke-width="0.4"/>
<line x1="47.33" y1="241.678" x2="42.78" y2="234.678" stroke="#141414" stroke-width="0.4"/>
<line x1="73.112" y1="219.971" x2="77.386" y2="212.971" stroke="#141414" stroke-width="0.4"/>
<line x1="77.386" y1="212.971" x2="97.332" y2="212.971" stroke="#141414" stroke-width="0.4"/>
<line x1="97.332" y1="212.971" x2="101.606" y2="219.971" stroke="#141414" stroke-width="0.4"/>
<line x1="73.112" y1="219.971" x2="68.562" y2="212.971" stroke="#141414" stroke-width="0.4"/>
<line x1="68.562" y1="212.971" x2="47.33" y2="212.971" stroke="#141414" stroke-width="0.4"/>
<line x1="47.33" y1="212.971" x2="42.78" y2="219.971" stroke="#141414" stroke-width="0.4"/>
<line x1="101.606" y1="234.678" x2="108.606" y2="239.227" stroke="#141414" stroke-width="0.4"/>
<line x1="108.606" y1="239.227" x2="108.606" y2="260.46" stroke="#141414" stroke-width="0.4"/>
<line x1="108.606" y1="260.46" x2="101.606" y2="265.009" stroke="#141414" stroke-width="0.4"/>
<line x1="14.286" y1="189.639" x2="7.287" y2="194.189" stroke="#141414" stroke-width="0.4"/>
<line x1="7.287" y1="194.189" x2="7.287" y2="215.421" stroke="#141414" stroke-width="0.4"/>
<line x1="7.287" y1="215.421" x2="14.286" y2="219.971" stroke="#141414" stroke-width="0.4"/>
<line x1="73.112" y1="265.009" x2="77.386" y2="272.009" stroke="#141414" stroke-width="0.4"/>
<line x1="77.386" y1="272.009" x2="97.332" y2="272.009" stroke="#141414" stroke-width="0.4"/>
<line x1="97.332" y1="272.009" x2="101.606" y2="265.009" stroke="#141414" stroke-width="0.4"/>
<line x1="131.938" y1="234.678" x2="138.938" y2="232.471" stroke="#141414" stroke-width="0.4"/>
<line x1="138.938" y1="232.471" x2="138.938" y2="222.177" stroke="#141414" stroke-width="0.4"/>
<line x1="138.938" y1="222.177" x2="131.938" y2="219.971" stroke="#141414" stroke-width="0.4"/>
<circle cx="57.946" cy="238.178" r="3.08" fill="#99d9fa" stroke="#464646" stroke-width="0.2"/>
<text x="57.946" y="239.64" font-size="4.18" text-anchor="middle" fill="#141414">57</text>
<circle cx="87.359" cy="216.471" r="3.08" fill="#ffe082" stroke="#464646" stroke-width="0.2"/>
<text x="87.359" y="217.93" font-size="4.18" text-anchor="middle" fill="#141414">58</text>
<circle cx="57.946" cy="216.471" r="3.08" fill="#ffe082" stroke="#464646" stroke-width="0.2"/>
<text x="57.946" y="217.93" font-size="4.18" text-anchor="middle" fill="#141414">59</text>
<circle cx="105.106" cy="249.843" r="3.08" fill="#ffe082" stroke="#464646" stroke-width="0.2"/>
<text x="105.106" y="251.31" font-size="4.18" text-anchor="middle" fill="#141414">60</text>
<circle cx="10.786" cy="204.805" r="3.08" fill="#ffe082" stroke="#464646" stroke-width="0.2"/>
<text x="10.786" y="206.27" font-size="4.18" text-anchor="middle" fill="#141414">61</text>
<circle cx="87.359" cy="268.509" r="3.08" fill="#ffe082" stroke="#464646" stroke-width="0.2"/>
<text x="87.359" y="269.97" font-size="4.18" text-anchor="middle" fill="#141414">62</text>
<circle cx="135.438" cy="227.324" r="3.08" fill="#ffe082" stroke="#464646" stroke-width="0.2"/>
<text x="135.438" y="228.79" font-size="4.18" text-anchor="middle" fill="#141414">63</text>
<circle cx="92.108" cy="254.899" r="4.60" fill="#eaf1fe" stroke="#2e78e6" stroke-width="0.3"/>
<text x="92.108" y="256.70" font-size="5.20" text-anchor="middle" fill="#14306e" font-weight="bold">9</text>
<text x="205.0" y="295.0" font-size="3.2" text-anchor="end" fill="#737373" font-family="sans-serif">5 / 5</text>
<g pointer-events="none"><text x="105.0" y="83.2" text-anchor="middle" font-family="sans-serif" font-size="12.4" fill="#9aa0a6" fill-opacity="0.3" transform="rotate(-28 105.0 83.2)">papercraft.kr</text><text x="105.0" y="148.5" text-anchor="middle" font-family="sans-serif" font-size="12.4" fill="#9aa0a6" fill-opacity="0.3" transform="rotate(-28 105.0 148.5)">papercraft.kr</text><text x="105.0" y="213.8" text-anchor="middle" font-family="sans-serif" font-size="12.4" fill="#9aa0a6" fill-opacity="0.3" transform="rotate(-28 105.0 213.8)">papercraft.kr</text></g></svg>
