<svg xmlns="http://www.w3.org/2000/svg" xmlns:xlink="http://www.w3.org/1999/xlink" width="210.00mm" height="297.00mm" viewBox="0 0 210.00 297.00">
<rect x="0" y="0" width="210.00" height="297.00" fill="#ffffff" stroke="#cccccc" stroke-width="0.2"/>
<polygon points="60.244,188.83 53.35,195.83 21.18,195.83 14.286,188.83" fill="rgb(216,216,216)"/>
<polygon points="60.244,119.894 53.35,112.894 21.18,112.894 14.286,119.894" fill="rgb(216,216,216)"/>
<polygon points="90.576,188.83 97.576,178.49 97.576,130.234 90.576,119.894" fill="rgb(216,216,216)"/>
<polygon points="90.576,188.83 97.576,195.724 97.576,227.894 90.576,234.788" fill="rgb(216,216,216)"/>
<polygon points="90.576,119.894 97.576,113.0 97.576,80.83 90.576,73.936" fill="rgb(216,216,216)"/>
<polygon points="14.286,188.83 7.287,178.49 7.287,130.234 14.286,119.894" fill="rgb(216,216,216)"/>
<polygon points="60.244,234.788 64.794,241.788 86.026,241.788 90.576,234.788" fill="rgb(216,216,216)"/>
<polygon points="60.244,188.83 53.35,195.83 21.18,195.83 14.286,188.83" fill="#99d9fa"/>
<line x1="60.244" y1="188.83" x2="60.244" y2="119.894" stroke="#8c8c8c" stroke-width="0.3" stroke-dasharray="1.2,0.8"/>
<line x1="90.576" y1="188.83" x2="60.244" y2="188.83" stroke="#8c8c8c" stroke-width="0.3" stroke-dasharray="1.2,0.8"/>
<line x1="60.244" y1="119.894" x2="90.576" y2="119.894" stroke="#8c8c8c" stroke-width="0.3" stroke-dasharray="1.2,0.8"/>
<line x1="60.244" y1="73.936" x2="90.576" y2="73.936" stroke="#8c8c8c" stroke-width="0.3" stroke-dasharray="1.2,0.8"/>
<line x1="90.576" y1="73.936" x2="90.576" y2="5.0" stroke="#8c8c8c" stroke-width="0.3" stroke-dasharray="1.2,0.8"/>
<line x1="14.286" y1="188.83" x2="60.244" y2="188.83" stroke="#8c8c8c" stroke-width="0.3" stroke-dasharray="1.2,0.8"/>
<line x1="14.286" y1="119.894" x2="60.244" y2="119.894" stroke="#8c8c8c" stroke-width="0.3" stroke-dasharray="1.2,0.8"/>
<line x1="90.576" y1="119.894" x2="90.576" y2="188.83" stroke="#8c8c8c" stroke-width="0.3" stroke-dasharray="1.2,0.8"/>
<line x1="90.576" y1="234.788" x2="90.576" y2="188.83" stroke="#8c8c8c" stroke-width="0.3" stroke-dasharray="1.2,0.8"/>
<line x1="90.576" y1="73.936" x2="90.576" y2="119.894" stroke="#8c8c8c" stroke-width="0.3" stroke-dasharray="1.2,0.8"/>
<line x1="14.286" y1="119.894" x2="14.286" y2="188.83" stroke="#8c8c8c" stroke-width="0.3" stroke-dasharray="1.2,0.8"/>
<line x1="90.576" y1="234.788" x2="60.244" y2="234.788" stroke="#8c8c8c" stroke-width="0.3" stroke-dasharray="1.2,0.8"/>
<line x1="60.244" y1="234.788" x2="60.244" y2="188.83" stroke="#141414" stroke-width="0.4"/>
<line x1="60.244" y1="119.894" x2="60.244" y2="73.936" stroke="#141414" stroke-width="0.4"/>
<line x1="136.534" y1="5.0" x2="136.534" y2="73.936" stroke="#141414" stroke-width="0.4"/>
<line x1="90.576" y1="5.0" x2="136.534" y2="5.0" stroke="#141414" stroke-width="0.4"/>
<line x1="136.534" y1="73.936" x2="90.576" y2="73.936" stroke="#141414" stroke-width="0.4"/>
<line x1="60.244" y1="73.936" x2="60.244" y2="5.0" stroke="#141414" stroke-width="0.4"/>
<line x1="60.244" y1="5.0" x2="90.576" y2="5.0" stroke="#141414" stroke-width="0.4"/>
<line x1="60.244" y1="188.83" x2="53.35" y2="195.83" stroke="#141414" stroke-width="0.4"/>
<line x1="53.35" y1="195.83" x2="21.18" y2="195.83" stroke="#141414" stroke-width="0.4"/>
<line x1="21.18" y1="195.83" x2="14.286" y2="188.83" stroke="#141414" stroke-width="0.4"/>
<line x1="60.244" y1="119.894" x2="53.35" y2="112.894" stroke="#141414" stroke-width="0.4"/>
<line x1="53.35" y1="112.894" x2="21.18" y2="112.894" stroke="#141414" stroke-width="0.4"/>
<line x1="21.18" y1="112.894" x2="14.286" y2="119.894" stroke="#141414" stroke-width="0.4"/>
<line x1="90.576" y1="188.83" x2="97.576" y2="178.49" stroke="#141414" stroke-width="0.4"/>
<line x1="97.576" y1="178.49" x2="97.576" y2="130.234" stroke="#141414" stroke-width="0.4"/>
<line x1="97.576" y1="130.234" x2="90.576" y2="119.894" stroke="#141414" stroke-width="0.4"/>
<line x1="90.576" y1="188.83" x2="97.576" y2="195.724" stroke="#141414" stroke-width="0.4"/>
<line x1="97.576" y1="195.724" x2="97.576" y2="227.894" stroke="#141414" stroke-width="0.4"/>
<line x1="97.576" y1="227.894" x2="90.576" y2="234.788" stroke="#141414" stroke-width="0.4"/>
<line x1="90.576" y1="119.894" x2="97.576" y2="113.0" stroke="#141414" stroke-width="0.4"/>
<line x1="97.576" y1="113.0" x2="97.576" y2="80.83" stroke="#141414" stroke-width="0.4"/>
<line x1="97.576" y1="80.83" x2="90.576" y2="73.936" stroke="#141414" stroke-width="0.4"/>
<line x1="14.286" y1="188.83" x2="7.287" y2="178.49" stroke="#141414" stroke-width="0.4"/>
<line x1="7.287" y1="178.49" x2="7.287" y2="130.234" stroke="#141414" stroke-width="0.4"/>
<line x1="7.287" y1="130.234" x2="14.286" y2="119.894" stroke="#141414" stroke-width="0.4"/>
<line x1="60.244" y1="234.788" x2="64.794" y2="241.788" stroke="#141414" stroke-width="0.4"/>
<line x1="64.794" y1="241.788" x2="86.026" y2="241.788" stroke="#141414" stroke-width="0.4"/>
<line x1="86.026" y1="241.788" x2="90.576" y2="234.788" stroke="#141414" stroke-width="0.4"/>
<circle cx="37.265" cy="192.33" r="3.08" fill="#99d9fa" stroke="#464646" stroke-width="0.2"/>
<text x="37.265" y="193.79" font-size="4.18" text-anchor="middle" fill="#141414">15</text>
<circle cx="37.265" cy="116.394" r="3.08" fill="#ffe082" stroke="#464646" stroke-width="0.2"/>
<text x="37.265" y="117.86" font-size="4.18" text-anchor="middle" fill="#141414">16</text>
<circle cx="94.076" cy="154.362" r="3.08" fill="#ffe082" stroke="#464646" stroke-width="0.2"/>
<text x="94.076" y="155.82" font-size="4.18" text-anchor="middle" fill="#141414">17</text>
<circle cx="94.076" cy="211.809" r="3.08" fill="#ffe082" stroke="#464646" stroke-width="0.2"/>
<text x="94.076" y="213.27" font-size="4.18" text-anchor="middle" fill="#141414">18</text>
<circle cx="94.076" cy="96.915" r="3.08" fill="#ffe082" stroke="#464646" stroke-width="0.2"/>
<text x="94.076" y="98.38" font-size="4.18" text-anchor="middle" fill="#141414">19</text>
<circle cx="10.786" cy="154.362" r="3.08" fill="#ffe082" stroke="#464646" stroke-width="0.2"/>
<text x="10.786" y="155.82" font-size="4.18" text-anchor="middle" fill="#141414">20</text>
<circle cx="75.41" cy="238.288" r="3.08" fill="#ffe082" stroke="#464646" stroke-width="0.2"/>
<text x="75.41" y="239.75" font-size="4.18" text-anchor="middle" fill="#141414">21</text>
<circle cx="80.465" cy="219.469" r="4.60" fill="#eaf1fe" stroke="#2e78e6" stroke-width="0.3"/>
<text x="80.465" y="221.27" font-size="5.20" text-anchor="middle" fill="#14306e" font-weight="bold">3</text>
<text x="205.0" y="295.0" font-size="3.2" text-anchor="end" fill="#737373" font-family="sans-serif">3 / 5</text>
<g pointer-events="none"><text x="105.0" y="83.2" text-anchor="middle" font-family="sans-serif" font-size="12.4" fill="#9aa0a6" fill-opacity="0.3" transform="rotate(-28 105.0 83.2)">papercraft.kr</text><text x="105.0" y="148.5" text-anchor="middle" font-family="sans-serif" font-size="12.4" fill="#9aa0a6" fill-opacity="0.3" transform="rotate(-28 105.0 148.5)">papercraft.kr</text><text x="105.0" y="213.8" text-anchor="middle" font-family="sans-serif" font-size="12.4" fill="#9aa0a6" fill-opacity="0.3" transform="rotate(-28 105.0 213.8)">papercraft.kr</text></g></svg>
