<svg xmlns="http://www.w3.org/2000/svg" xmlns:xlink="http://www.w3.org/1999/xlink" width="210.00mm" height="297.00mm" viewBox="0 0 210.00 297.00">
<rect x="0" y="0" width="210.00" height="297.00" fill="#ffffff" stroke="#cccccc" stroke-width="0.2"/>
<polygon points="51.877,157.579 55.462,164.579 72.19,164.579 75.775,157.579" fill="rgb(216,216,216)"/>
<polygon points="51.877,93.239 55.462,86.239 72.19,86.239 75.775,93.239" fill="rgb(216,216,216)"/>
<polygon points="75.775,157.579 82.775,147.928 82.775,102.89 75.775,93.239" fill="rgb(216,216,216)"/>
<polygon points="51.877,181.477 48.43,188.477 32.345,188.477 28.898,181.477" fill="rgb(216,216,216)"/>
<polygon points="28.898,157.579 21.898,147.928 21.898,102.89 28.898,93.239" fill="rgb(216,216,216)"/>
<polygon points="28.898,157.579 21.898,161.164 21.898,177.893 28.898,181.477" fill="rgb(216,216,216)"/>
<polygon points="28.898,93.239 21.898,89.654 21.898,72.925 28.898,69.341" fill="rgb(216,216,216)"/>
<polygon points="51.877,157.579 55.462,164.579 72.19,164.579 75.775,157.579" fill="#99d9fa"/>
<line x1="51.877" y1="157.579" x2="51.877" y2="93.239" stroke="#8c8c8c" stroke-width="0.3" stroke-dasharray="1.2,0.8"/>
<line x1="51.877" y1="157.579" x2="28.898" y2="157.579" stroke="#8c8c8c" stroke-width="0.3" stroke-dasharray="1.2,0.8"/>
<line x1="28.898" y1="93.239" x2="51.877" y2="93.239" stroke="#8c8c8c" stroke-width="0.3" stroke-dasharray="1.2,0.8"/>
<line x1="28.898" y1="69.341" x2="51.877" y2="69.341" stroke="#8c8c8c" stroke-width="0.3" stroke-dasharray="1.2,0.8"/>
<line x1="28.898" y1="69.341" x2="28.898" y2="5.0" stroke="#8c8c8c" stroke-width="0.3" stroke-dasharray="1.2,0.8"/>
<line x1="75.775" y1="157.579" x2="51.877" y2="157.579" stroke="#8c8c8c" stroke-width="0.3" stroke-dasharray="1.2,0.8"/>
<line x1="75.775" y1="93.239" x2="51.877" y2="93.239" stroke="#8c8c8c" stroke-width="0.3" stroke-dasharray="1.2,0.8"/>
<line x1="75.775" y1="93.239" x2="75.775" y2="157.579" stroke="#8c8c8c" stroke-width="0.3" stroke-dasharray="1.2,0.8"/>
<line x1="28.898" y1="181.477" x2="51.877" y2="181.477" stroke="#8c8c8c" stroke-width="0.3" stroke-dasharray="1.2,0.8"/>
<line x1="28.898" y1="93.239" x2="28.898" y2="157.579" stroke="#8c8c8c" stroke-width="0.3" stroke-dasharray="1.2,0.8"/>
<line x1="28.898" y1="181.477" x2="28.898" y2="157.579" stroke="#8c8c8c" stroke-width="0.3" stroke-dasharray="1.2,0.8"/>
<line x1="28.898" y1="69.341" x2="28.898" y2="93.239" stroke="#8c8c8c" stroke-width="0.3" stroke-dasharray="1.2,0.8"/>
<line x1="51.877" y1="157.579" x2="51.877" y2="181.477" stroke="#141414" stroke-width="0.4"/>
<line x1="51.877" y1="69.341" x2="51.877" y2="93.239" stroke="#141414" stroke-width="0.4"/>
<line x1="51.877" y1="5.0" x2="51.877" y2="69.341" stroke="#141414" stroke-width="0.4"/>
<line x1="28.898" y1="5.0" x2="51.877" y2="5.0" stroke="#141414" stroke-width="0.4"/>
<line x1="5.0" y1="69.341" x2="5.0" y2="5.0" stroke="#141414" stroke-width="0.4"/>
<line x1="5.0" y1="5.0" x2="28.898" y2="5.0" stroke="#141414" stroke-width="0.4"/>
<line x1="28.898" y1="69.341" x2="5.0" y2="69.341" stroke="#141414" stroke-width="0.4"/>
<line x1="51.877" y1="157.579" x2="55.462" y2="164.579" stroke="#141414" stroke-width="0.4"/>
<line x1="55.462" y1="164.579" x2="72.19" y2="164.579" stroke="#141414" stroke-width="0.4"/>
<line x1="72.19" y1="164.579" x2="75.775" y2="157.579" stroke="#141414" stroke-width="0.4"/>
<line x1="51.877" y1="93.239" x2="55.462" y2="86.239" stroke="#141414" stroke-width="0.4"/>
<line x1="55.462" y1="86.239" x2="72.19" y2="86.239" stroke="#141414" stroke-width="0.4"/>
<line x1="72.19" y1="86.239" x2="75.775" y2="93.239" stroke="#141414" stroke-width="0.4"/>
<line x1="75.775" y1="157.579" x2="82.775" y2="147.928" stroke="#141414" stroke-width="0.4"/>
<line x1="82.775" y1="147.928" x2="82.775" y2="102.89" stroke="#141414" stroke-width="0.4"/>
<line x1="82.775" y1="102.89" x2="75.775" y2="93.239" stroke="#141414" stroke-width="0.4"/>
<line x1="51.877" y1="181.477" x2="48.43" y2="188.477" stroke="#141414" stroke-width="0.4"/>
<line x1="48.43" y1="188.477" x2="32.345" y2="188.477" stroke="#141414" stroke-width="0.4"/>
<line x1="32.345" y1="188.477" x2="28.898" y2="181.477" stroke="#141414" stroke-width="0.4"/>
<line x1="28.898" y1="157.579" x2="21.898" y2="147.928" stroke="#141414" stroke-width="0.4"/>
<line x1="21.898" y1="147.928" x2="21.898" y2="102.89" stroke="#141414" stroke-width="0.4"/>
<line x1="21.898" y1="102.89" x2="28.898" y2="93.239" stroke="#141414" stroke-width="0.4"/>
<line x1="28.898" y1="157.579" x2="21.898" y2="161.164" stroke="#141414" stroke-width="0.4"/>
<line x1="21.898" y1="161.164" x2="21.898" y2="177.893" stroke="#141414" stroke-width="0.4"/>
<line x1="21.898" y1="177.893" x2="28.898" y2="181.477" stroke="#141414" stroke-width="0.4"/>
<line x1="28.898" y1="93.239" x2="21.898" y2="89.654" stroke="#141414" stroke-width="0.4"/>
<line x1="21.898" y1="89.654" x2="21.898" y2="72.925" stroke="#141414" stroke-width="0.4"/>
<line x1="21.898" y1="72.925" x2="28.898" y2="69.341" stroke="#141414" stroke-width="0.4"/>
<circle cx="63.826" cy="161.079" r="3.08" fill="#99d9fa" stroke="#464646" stroke-width="0.2"/>
<text x="63.826" y="162.54" font-size="4.18" text-anchor="middle" fill="#141414">22</text>
<circle cx="63.826" cy="89.739" r="3.08" fill="#ffe082" stroke="#464646" stroke-width="0.2"/>
<text x="63.826" y="91.20" font-size="4.18" text-anchor="middle" fill="#141414">23</text>
<circle cx="79.275" cy="125.409" r="3.08" fill="#ffe082" stroke="#464646" stroke-width="0.2"/>
<text x="79.275" y="126.87" font-size="4.18" text-anchor="middle" fill="#141414">24</text>
<circle cx="40.387" cy="184.977" r="3.08" fill="#ffe082" stroke="#464646" stroke-width="0.2"/>
<text x="40.387" y="186.44" font-size="4.18" text-anchor="middle" fill="#141414">25</text>
<circle cx="25.398" cy="125.409" r="3.08" fill="#ffe082" stroke="#464646" stroke-width="0.2"/>
<text x="25.398" y="126.87" font-size="4.18" text-anchor="middle" fill="#141414">26</text>
<circle cx="25.398" cy="169.528" r="3.08" fill="#ffe082" stroke="#464646" stroke-width="0.2"/>
<text x="25.398" y="170.99" font-size="4.18" text-anchor="middle" fill="#141414">27</text>
<circle cx="25.398" cy="81.29" r="3.08" fill="#ffe082" stroke="#464646" stroke-width="0.2"/>
<text x="25.398" y="82.75" font-size="4.18" text-anchor="middle" fill="#141414">28</text>
<circle cx="36.558" cy="173.511" r="4.42" fill="#eaf1fe" stroke="#2e78e6" stroke-width="0.3"/>
<text x="36.558" y="175.24" font-size="4.99" text-anchor="middle" fill="#14306e" font-weight="bold">4</text>
<polygon points="132.652,157.579 136.236,164.579 152.965,164.579 156.55,157.579" fill="rgb(216,216,216)"/>
<polygon points="132.652,93.239 136.236,86.239 152.965,86.239 156.55,93.239" fill="rgb(216,216,216)"/>
<polygon points="156.55,157.579 163.55,147.928 163.55,102.89 156.55,93.239" fill="rgb(216,216,216)"/>
<polygon points="132.652,181.477 129.205,188.477 113.12,188.477 109.673,181.477" fill="rgb(216,216,216)"/>
<polygon points="109.673,157.579 102.673,147.928 102.673,102.89 109.673,93.239" fill="rgb(216,216,216)"/>
<polygon points="109.673,157.579 102.673,161.164 102.673,177.893 109.673,181.477" fill="rgb(216,216,216)"/>
<polygon points="109.673,93.239 102.673,89.654 102.673,72.925 109.673,69.341" fill="rgb(216,216,216)"/>
<polygon points="132.652,157.579 136.236,164.579 152.965,164.579 156.55,157.579" fill="#99d9fa"/>
<line x1="132.652" y1="157.579" x2="132.652" y2="93.239" stroke="#8c8c8c" stroke-width="0.3" stroke-dasharray="1.2,0.8"/>
<line x1="132.652" y1="157.579" x2="109.673" y2="157.579" stroke="#8c8c8c" stroke-width="0.3" stroke-dasharray="1.2,0.8"/>
<line x1="109.673" y1="93.239" x2="132.652" y2="93.239" stroke="#8c8c8c" stroke-width="0.3" stroke-dasharray="1.2,0.8"/>
<line x1="109.673" y1="69.341" x2="132.652" y2="69.341" stroke="#8c8c8c" stroke-width="0.3" stroke-dasharray="1.2,0.8"/>
<line x1="109.673" y1="69.341" x2="109.673" y2="5.0" stroke="#8c8c8c" stroke-width="0.3" stroke-dasharray="1.2,0.8"/>
<line x1="156.55" y1="157.579" x2="132.652" y2="157.579" stroke="#8c8c8c" stroke-width="0.3" stroke-dasharray="1.2,0.8"/>
<line x1="156.55" y1="93.239" x2="132.652" y2="93.239" stroke="#8c8c8c" stroke-width="0.3" stroke-dasharray="1.2,0.8"/>
<line x1="156.55" y1="93.239" x2="156.55" y2="157.579" stroke="#8c8c8c" stroke-width="0.3" stroke-dasharray="1.2,0.8"/>
<line x1="109.673" y1="181.477" x2="132.652" y2="181.477" stroke="#8c8c8c" stroke-width="0.3" stroke-dasharray="1.2,0.8"/>
<line x1="109.673" y1="93.239" x2="109.673" y2="157.579" stroke="#8c8c8c" stroke-width="0.3" stroke-dasharray="1.2,0.8"/>
<line x1="109.673" y1="181.477" x2="109.673" y2="157.579" stroke="#8c8c8c" stroke-width="0.3" stroke-dasharray="1.2,0.8"/>
<line x1="109.673" y1="69.341" x2="109.673" y2="93.239" stroke="#8c8c8c" stroke-width="0.3" stroke-dasharray="1.2,0.8"/>
<line x1="132.652" y1="157.579" x2="132.652" y2="181.477" stroke="#141414" stroke-width="0.4"/>
<line x1="132.652" y1="69.341" x2="132.652" y2="93.239" stroke="#141414" stroke-width="0.4"/>
<line x1="132.652" y1="5.0" x2="132.652" y2="69.341" stroke="#141414" stroke-width="0.4"/>
<line x1="109.673" y1="5.0" x2="132.652" y2="5.0" stroke="#141414" stroke-width="0.4"/>
<line x1="85.775" y1="69.341" x2="85.775" y2="5.0" stroke="#141414" stroke-width="0.4"/>
<line x1="85.775" y1="5.0" x2="109.673" y2="5.0" stroke="#141414" stroke-width="0.4"/>
<line x1="109.673" y1="69.341" x2="85.775" y2="69.341" stroke="#141414" stroke-width="0.4"/>
<line x1="132.652" y1="157.579" x2="136.236" y2="164.579" stroke="#141414" stroke-width="0.4"/>
<line x1="136.236" y1="164.579" x2="152.965" y2="164.579" stroke="#141414" stroke-width="0.4"/>
<line x1="152.965" y1="164.579" x2="156.55" y2="157.579" stroke="#141414" stroke-width="0.4"/>
<line x1="132.652" y1="93.239" x2="136.236" y2="86.239" stroke="#141414" stroke-width="0.4"/>
<line x1="136.236" y1="86.239" x2="152.965" y2="86.239" stroke="#141414" stroke-width="0.4"/>
<line x1="152.965" y1="86.239" x2="156.55" y2="93.239" stroke="#141414" stroke-width="0.4"/>
<line x1="156.55" y1="157.579" x2="163.55" y2="147.928" stroke="#141414" stroke-width="0.4"/>
<line x1="163.55" y1="147.928" x2="163.55" y2="102.89" stroke="#141414" stroke-width="0.4"/>
<line x1="163.55" y1="102.89" x2="156.55" y2="93.239" stroke="#141414" stroke-width="0.4"/>
<line x1="132.652" y1="181.477" x2="129.205" y2="188.477" stroke="#141414" stroke-width="0.4"/>
<line x1="129.205" y1="188.477" x2="113.12" y2="188.477" stroke="#141414" stroke-width="0.4"/>
<line x1="113.12" y1="188.477" x2="109.673" y2="181.477" stroke="#141414" stroke-width="0.4"/>
<line x1="109.673" y1="157.579" x2="102.673" y2="147.928" stroke="#141414" stroke-width="0.4"/>
<line x1="102.673" y1="147.928" x2="102.673" y2="102.89" stroke="#141414" stroke-width="0.4"/>
<line x1="102.673" y1="102.89" x2="109.673" y2="93.239" stroke="#141414" stroke-width="0.4"/>
<line x1="109.673" y1="157.579" x2="102.673" y2="161.164" stroke="#141414" stroke-width="0.4"/>
<line x1="102.673" y1="161.164" x2="102.673" y2="177.893" stroke="#141414" stroke-width="0.4"/>
<line x1="102.673" y1="177.893" x2="109.673" y2="181.477" stroke="#141414" stroke-width="0.4"/>
<line x1="109.673" y1="93.239" x2="102.673" y2="89.654" stroke="#141414" stroke-width="0.4"/>
<line x1="102.673" y1="89.654" x2="102.673" y2="72.925" stroke="#141414" stroke-width="0.4"/>
<line x1="102.673" y1="72.925" x2="109.673" y2="69.341" stroke="#141414" stroke-width="0.4"/>
<circle cx="144.601" cy="161.079" r="3.08" fill="#99d9fa" stroke="#464646" stroke-width="0.2"/>
<text x="144.601" y="162.54" font-size="4.18" text-anchor="middle" fill="#141414">29</text>
<circle cx="144.601" cy="89.739" r="3.08" fill="#ffe082" stroke="#464646" stroke-width="0.2"/>
<text x="144.601" y="91.20" font-size="4.18" text-anchor="middle" fill="#141414">30</text>
<circle cx="160.05" cy="125.409" r="3.08" fill="#ffe082" stroke="#464646" stroke-width="0.2"/>
<text x="160.05" y="126.87" font-size="4.18" text-anchor="middle" fill="#141414">31</text>
<circle cx="121.162" cy="184.977" r="3.08" fill="#ffe082" stroke="#464646" stroke-width="0.2"/>
<text x="121.162" y="186.44" font-size="4.18" text-anchor="middle" fill="#141414">32</text>
<circle cx="106.173" cy="125.409" r="3.08" fill="#ffe082" stroke="#464646" stroke-width="0.2"/>
<text x="106.173" y="126.87" font-size="4.18" text-anchor="middle" fill="#141414">33</text>
<circle cx="106.173" cy="169.528" r="3.08" fill="#ffe082" stroke="#464646" stroke-width="0.2"/>
<text x="106.173" y="170.99" font-size="4.18" text-anchor="middle" fill="#141414">34</text>
<circle cx="106.173" cy="81.29" r="3.08" fill="#ffe082" stroke="#464646" stroke-width="0.2"/>
<text x="106.173" y="82.75" font-size="4.18" text-anchor="middle" fill="#141414">35</text>
<circle cx="117.332" cy="173.511" r="4.42" fill="#eaf1fe" stroke="#2e78e6" stroke-width="0.3"/>
<text x="117.332" y="175.24" font-size="4.99" text-anchor="middle" fill="#14306e" font-weight="bold">5</text>
<polygon points="73.112,236.516 68.562,243.516 47.33,243.516 42.78,236.516" fill="rgb(216,216,216)"/>
<polygon points="73.112,221.809 77.386,214.809 97.332,214.809 101.606,221.809" fill="rgb(216,216,216)"/>
<polygon points="73.112,221.809 68.562,214.809 47.33,214.809 42.78,221.809" fill="rgb(216,216,216)"/>
<polygon points="101.606,236.516 108.606,241.065 108.606,262.298 101.606,266.848" fill="rgb(216,216,216)"/>
<polygon points="14.286,191.477 7.287,196.027 7.287,217.259 14.286,221.809" fill="rgb(216,216,216)"/>
<polygon points="73.112,266.848 77.386,273.848 97.332,273.848 101.606,266.848" fill="rgb(216,216,216)"/>
<polygon points="131.938,236.516 138.938,234.31 138.938,224.015 131.938,221.809" fill="rgb(216,216,216)"/>
<polygon points="73.112,236.516 68.562,243.516 47.33,243.516 42.78,236.516" fill="#99d9fa"/>
<line x1="73.112" y1="236.516" x2="73.112" y2="221.809" stroke="#8c8c8c" stroke-width="0.3" stroke-dasharray="1.2,0.8"/>
<line x1="101.606" y1="236.516" x2="73.112" y2="236.516" stroke="#8c8c8c" stroke-width="0.3" stroke-dasharray="1.2,0.8"/>
<line x1="101.606" y1="221.809" x2="101.606" y2="236.516" stroke="#8c8c8c" stroke-width="0.3" stroke-dasharray="1.2,0.8"/>
<line x1="42.78" y1="236.516" x2="42.78" y2="221.809" stroke="#8c8c8c" stroke-width="0.3" stroke-dasharray="1.2,0.8"/>
<line x1="42.78" y1="221.809" x2="14.287" y2="221.809" stroke="#8c8c8c" stroke-width="0.3" stroke-dasharray="1.2,0.8"/>
<line x1="42.78" y1="236.516" x2="73.112" y2="236.516" stroke="#8c8c8c" stroke-width="0.3" stroke-dasharray="1.2,0.8"/>
<line x1="101.606" y1="221.809" x2="73.112" y2="221.809" stroke="#8c8c8c" stroke-width="0.3" stroke-dasharray="1.2,0.8"/>
<line x1="42.78" y1="221.809" x2="73.112" y2="221.809" stroke="#8c8c8c" stroke-width="0.3" stroke-dasharray="1.2,0.8"/>
<line x1="101.606" y1="266.848" x2="101.606" y2="236.516" stroke="#8c8c8c" stroke-width="0.3" stroke-dasharray="1.2,0.8"/>
<line x1="14.286" y1="221.809" x2="14.286" y2="191.477" stroke="#8c8c8c" stroke-width="0.3" stroke-dasharray="1.2,0.8"/>
<line x1="101.606" y1="266.848" x2="73.112" y2="266.848" stroke="#8c8c8c" stroke-width="0.3" stroke-dasharray="1.2,0.8"/>
<line x1="131.938" y1="221.809" x2="131.938" y2="236.516" stroke="#8c8c8c" stroke-width="0.3" stroke-dasharray="1.2,0.8"/>
<line x1="73.112" y1="266.848" x2="73.112" y2="236.516" stroke="#141414" stroke-width="0.4"/>
<line x1="14.287" y1="191.477" x2="42.78" y2="191.477" stroke="#141414" stroke-width="0.4"/>
<line x1="42.78" y1="191.477" x2="42.78" y2="221.809" stroke="#141414" stroke-width="0.4"/>
<line x1="131.938" y1="236.516" x2="101.606" y2="236.516" stroke="#141414" stroke-width="0.4"/>
<line x1="101.606" y1="221.809" x2="131.938" y2="221.809" stroke="#141414" stroke-width="0.4"/>
<line x1="42.78" y1="236.516" x2="14.287" y2="236.516" stroke="#141414" stroke-width="0.4"/>
<line x1="14.287" y1="236.516" x2="14.287" y2="221.809" stroke="#141414" stroke-width="0.4"/>
<line x1="73.112" y1="236.516" x2="68.562" y2="243.516" stroke="#141414" stroke-width="0.4"/>
<line x1="68.562" y1="243.516" x2="47.33" y2="243.516" stroke="#141414" stroke-width="0.4"/>
<line x1="47.33" y1="243.516" x2="42.78" y2="236.516" stroke="#141414" stroke-width="0.4"/>
<line x1="73.112" y1="221.809" x2="77.386" y2="214.809" stroke="#141414" stroke-width="0.4"/>
<line x1="77.386" y1="214.809" x2="97.332" y2="214.809" stroke="#141414" stroke-width="0.4"/>
<line x1="97.332" y1="214.809" x2="101.606" y2="221.809" stroke="#141414" stroke-width="0.4"/>
<line x1="73.112" y1="221.809" x2="68.562" y2="214.809" stroke="#141414" stroke-width="0.4"/>
<line x1="68.562" y1="214.809" x2="47.33" y2="214.809" stroke="#141414" stroke-width="0.4"/>
<line x1="47.33" y1="214.809" x2="42.78" y2="221.809" stroke="#141414" stroke-width="0.4"/>
<line x1="101.606" y1="236.516" x2="108.606" y2="241.065" stroke="#141414" stroke-width="0.4"/>
<line x1="108.606" y1="241.065" x2="108.606" y2="262.298" stroke="#141414" stroke-width="0.4"/>
<line x1="108.606" y1="262.298" x2="101.606" y2="266.848" stroke="#141414" stroke-width="0.4"/>
<line x1="14.286" y1="191.477" x2="7.287" y2="196.027" stroke="#141414" stroke-width="0.4"/>
<line x1="7.287" y1="196.027" x2="7.287" y2="217.259" stroke="#141414" stroke-width="0.4"/>
<line x1="7.287" y1="217.259" x2="14.286" y2="221.809" stroke="#141414" stroke-width="0.4"/>
<line x1="73.112" y1="266.848" x2="77.386" y2="273.848" stroke="#141414" stroke-width="0.4"/>
<line x1="77.386" y1="273.848" x2="97.332" y2="273.848" stroke="#141414" stroke-width="0.4"/>
<line x1="97.332" y1="273.848" x2="101.606" y2="266.848" stroke="#141414" stroke-width="0.4"/>
<line x1="131.938" y1="236.516" x2="138.938" y2="234.31" stroke="#141414" stroke-width="0.4"/>
<line x1="138.938" y1="234.31" x2="138.938" y2="224.015" stroke="#141414" stroke-width="0.4"/>
<line x1="138.938" y1="224.015" x2="131.938" y2="221.809" stroke="#141414" stroke-width="0.4"/>
<circle cx="57.946" cy="240.016" r="3.08" fill="#99d9fa" stroke="#464646" stroke-width="0.2"/>
<text x="57.946" y="241.48" font-size="4.18" text-anchor="middle" fill="#141414">50</text>
<circle cx="87.359" cy="218.309" r="3.08" fill="#ffe082" stroke="#464646" stroke-width="0.2"/>
<text x="87.359" y="219.77" font-size="4.18" text-anchor="middle" fill="#141414">51</text>
<circle cx="57.946" cy="218.309" r="3.08" fill="#ffe082" stroke="#464646" stroke-width="0.2"/>
<text x="57.946" y="219.77" font-size="4.18" text-anchor="middle" fill="#141414">52</text>
<circle cx="105.106" cy="251.682" r="3.08" fill="#ffe082" stroke="#464646" stroke-width="0.2"/>
<text x="105.106" y="253.14" font-size="4.18" text-anchor="middle" fill="#141414">53</text>
<circle cx="10.786" cy="206.643" r="3.08" fill="#ffe082" stroke="#464646" stroke-width="0.2"/>
<text x="10.786" y="208.11" font-size="4.18" text-anchor="middle" fill="#141414">54</text>
<circle cx="87.359" cy="270.348" r="3.08" fill="#ffe082" stroke="#464646" stroke-width="0.2"/>
<text x="87.359" y="271.81" font-size="4.18" text-anchor="middle" fill="#141414">55</text>
<circle cx="135.438" cy="229.162" r="3.08" fill="#ffe082" stroke="#464646" stroke-width="0.2"/>
<text x="135.438" y="230.62" font-size="4.18" text-anchor="middle" fill="#141414">56</text>
<circle cx="92.108" cy="256.737" r="4.60" fill="#eaf1fe" stroke="#2e78e6" stroke-width="0.3"/>
<text x="92.108" y="258.54" font-size="5.20" text-anchor="middle" fill="#14306e" font-weight="bold">8</text>
<text x="205.0" y="295.0" font-size="3.2" text-anchor="end" fill="#737373" font-family="sans-serif">4 / 5</text>
<g pointer-events="none"><text x="105.0" y="83.2" text-anchor="middle" font-family="sans-serif" font-size="12.4" fill="#9aa0a6" fill-opacity="0.3" transform="rotate(-28 105.0 83.2)">papercraft.kr</text><text x="105.0" y="148.5" text-anchor="middle" font-family="sans-serif" font-size="12.4" fill="#9aa0a6" fill-opacity="0.3" transform="rotate(-28 105.0 148.5)">papercraft.kr</text><text x="105.0" y="213.8" text-anchor="middle" font-family="sans-serif" font-size="12.4" fill="#9aa0a6" fill-opacity="0.3" transform="rotate(-28 105.0 213.8)">papercraft.kr</text></g></svg>
