<svg xmlns="http://www.w3.org/2000/svg" xmlns:xlink="http://www.w3.org/1999/xlink" width="210.00mm" height="297.00mm" viewBox="0 0 210.00 297.00">
<rect x="0" y="0" width="210.00" height="297.00" fill="#ffffff" stroke="#cccccc" stroke-width="0.2"/>
<polygon points="29.564,50.286 21.358,53.632 15.082,50.008 13.876,41.229" fill="rgb(216,216,216)"/>
<polygon points="97.494,167.944 103.347,172.648 114.328,166.308 113.181,158.887" fill="rgb(216,216,216)"/>
<polygon points="97.494,167.944 98.64,175.365 87.659,181.705 81.806,177.001" fill="rgb(216,216,216)"/>
<polygon points="45.252,41.229 52.252,35.795 52.252,28.549 45.252,23.115" fill="rgb(216,216,216)"/>
<polygon points="113.181,158.887 119.034,163.59 130.016,157.25 128.869,149.83" fill="rgb(216,216,216)"/>
<polygon points="45.252,23.115 46.398,15.694 35.417,9.354 29.564,14.057" fill="rgb(216,216,216)"/>
<polygon points="128.869,149.83 137.075,153.174 143.35,149.552 144.556,140.772" fill="rgb(216,216,216)"/>
<polygon points="29.564,14.057 23.711,9.354 12.729,15.694 13.876,23.115" fill="rgb(216,216,216)"/>
<polygon points="13.876,23.115 6.876,25.832 6.876,38.512 13.876,41.229" fill="rgb(216,216,216)"/>
<polygon points="160.244,131.715 168.451,135.06 174.726,131.437 175.932,122.658" fill="rgb(216,216,216)"/>
<polygon points="108.002,5.0 124.254,19.149 171.805,101.509 175.932,122.658" fill="rgb(216,216,216)"/>
<line x1="97.493" y1="167.944" x2="29.564" y2="50.286" stroke="#8c8c8c" stroke-width="0.3" stroke-dasharray="1.2,0.8"/>
<line x1="45.252" y1="41.229" x2="29.564" y2="50.286" stroke="#8c8c8c" stroke-width="0.3" stroke-dasharray="1.2,0.8"/>
<line x1="45.252" y1="41.229" x2="113.181" y2="158.887" stroke="#8c8c8c" stroke-width="0.3" stroke-dasharray="1.2,0.8"/>
<line x1="60.939" y1="32.172" x2="128.869" y2="149.829" stroke="#8c8c8c" stroke-width="0.3" stroke-dasharray="1.2,0.8"/>
<line x1="76.627" y1="23.115" x2="144.556" y2="140.772" stroke="#8c8c8c" stroke-width="0.3" stroke-dasharray="1.2,0.8"/>
<line x1="160.244" y1="131.715" x2="144.556" y2="140.772" stroke="#8c8c8c" stroke-width="0.3" stroke-dasharray="1.2,0.8"/>
<line x1="92.315" y1="14.057" x2="160.244" y2="131.715" stroke="#8c8c8c" stroke-width="0.3" stroke-dasharray="1.2,0.8"/>
<line x1="13.876" y1="41.229" x2="29.564" y2="50.286" stroke="#8c8c8c" stroke-width="0.3" stroke-dasharray="1.2,0.8"/>
<line x1="113.181" y1="158.887" x2="97.494" y2="167.944" stroke="#8c8c8c" stroke-width="0.3" stroke-dasharray="1.2,0.8"/>
<line x1="81.806" y1="177.001" x2="97.494" y2="167.944" stroke="#8c8c8c" stroke-width="0.3" stroke-dasharray="1.2,0.8"/>
<line x1="45.252" y1="23.115" x2="45.252" y2="41.229" stroke="#8c8c8c" stroke-width="0.3" stroke-dasharray="1.2,0.8"/>
<line x1="128.869" y1="149.83" x2="113.181" y2="158.887" stroke="#8c8c8c" stroke-width="0.3" stroke-dasharray="1.2,0.8"/>
<line x1="29.564" y1="14.057" x2="45.252" y2="23.115" stroke="#8c8c8c" stroke-width="0.3" stroke-dasharray="1.2,0.8"/>
<line x1="144.556" y1="140.772" x2="128.869" y2="149.83" stroke="#8c8c8c" stroke-width="0.3" stroke-dasharray="1.2,0.8"/>
<line x1="13.876" y1="23.115" x2="29.564" y2="14.057" stroke="#8c8c8c" stroke-width="0.3" stroke-dasharray="1.2,0.8"/>
<line x1="13.876" y1="41.229" x2="13.876" y2="23.115" stroke="#8c8c8c" stroke-width="0.3" stroke-dasharray="1.2,0.8"/>
<line x1="175.932" y1="122.658" x2="160.244" y2="131.715" stroke="#8c8c8c" stroke-width="0.3" stroke-dasharray="1.2,0.8"/>
<line x1="175.932" y1="122.658" x2="108.002" y2="5.0" stroke="#8c8c8c" stroke-width="0.3" stroke-dasharray="1.2,0.8"/>
<line x1="13.876" y1="59.344" x2="29.564" y2="50.286" stroke="#141414" stroke-width="0.4"/>
<line x1="175.932" y1="158.887" x2="160.244" y2="167.944" stroke="#141414" stroke-width="0.4"/>
<line x1="175.932" y1="140.772" x2="175.932" y2="158.887" stroke="#141414" stroke-width="0.4"/>
<line x1="45.252" y1="41.229" x2="60.939" y2="32.172" stroke="#141414" stroke-width="0.4"/>
<line x1="160.244" y1="167.944" x2="144.556" y2="158.887" stroke="#141414" stroke-width="0.4"/>
<line x1="60.939" y1="32.172" x2="76.627" y2="23.115" stroke="#141414" stroke-width="0.4"/>
<line x1="144.556" y1="158.887" x2="144.556" y2="140.772" stroke="#141414" stroke-width="0.4"/>
<line x1="76.627" y1="23.115" x2="92.315" y2="14.057" stroke="#141414" stroke-width="0.4"/>
<line x1="92.315" y1="14.057" x2="108.002" y2="5.0" stroke="#141414" stroke-width="0.4"/>
<line x1="160.244" y1="131.715" x2="175.932" y2="140.772" stroke="#141414" stroke-width="0.4"/>
<line x1="81.806" y1="177.001" x2="13.876" y2="59.344" stroke="#141414" stroke-width="0.4"/>
<line x1="29.564" y1="50.286" x2="21.358" y2="53.632" stroke="#141414" stroke-width="0.4"/>
<line x1="21.358" y1="53.632" x2="15.082" y2="50.008" stroke="#141414" stroke-width="0.4"/>
<line x1="15.082" y1="50.008" x2="13.876" y2="41.229" stroke="#141414" stroke-width="0.4"/>
<line x1="97.494" y1="167.944" x2="103.347" y2="172.648" stroke="#141414" stroke-width="0.4"/>
<line x1="103.347" y1="172.648" x2="114.328" y2="166.308" stroke="#141414" stroke-width="0.4"/>
<line x1="114.328" y1="166.308" x2="113.181" y2="158.887" stroke="#141414" stroke-width="0.4"/>
<line x1="97.494" y1="167.944" x2="98.64" y2="175.365" stroke="#141414" stroke-width="0.4"/>
<line x1="98.64" y1="175.365" x2="87.659" y2="181.705" stroke="#141414" stroke-width="0.4"/>
<line x1="87.659" y1="181.705" x2="81.806" y2="177.001" stroke="#141414" stroke-width="0.4"/>
<line x1="45.252" y1="41.229" x2="52.252" y2="35.795" stroke="#141414" stroke-width="0.4"/>
<line x1="52.252" y1="35.795" x2="52.252" y2="28.549" stroke="#141414" stroke-width="0.4"/>
<line x1="52.252" y1="28.549" x2="45.252" y2="23.115" stroke="#141414" stroke-width="0.4"/>
<line x1="113.181" y1="158.887" x2="119.034" y2="163.59" stroke="#141414" stroke-width="0.4"/>
<line x1="119.034" y1="163.59" x2="130.016" y2="157.25" stroke="#141414" stroke-width="0.4"/>
<line x1="130.016" y1="157.25" x2="128.869" y2="149.83" stroke="#141414" stroke-width="0.4"/>
<line x1="45.252" y1="23.115" x2="46.398" y2="15.694" stroke="#141414" stroke-width="0.4"/>
<line x1="46.398" y1="15.694" x2="35.417" y2="9.354" stroke="#141414" stroke-width="0.4"/>
<line x1="35.417" y1="9.354" x2="29.564" y2="14.057" stroke="#141414" stroke-width="0.4"/>
<line x1="128.869" y1="149.83" x2="137.075" y2="153.174" stroke="#141414" stroke-width="0.4"/>
<line x1="137.075" y1="153.174" x2="143.35" y2="149.552" stroke="#141414" stroke-width="0.4"/>
<line x1="143.35" y1="149.552" x2="144.556" y2="140.772" stroke="#141414" stroke-width="0.4"/>
<line x1="29.564" y1="14.057" x2="23.711" y2="9.354" stroke="#141414" stroke-width="0.4"/>
<line x1="23.711" y1="9.354" x2="12.729" y2="15.694" stroke="#141414" stroke-width="0.4"/>
<line x1="12.729" y1="15.694" x2="13.876" y2="23.115" stroke="#141414" stroke-width="0.4"/>
<line x1="13.876" y1="23.115" x2="6.876" y2="25.832" stroke="#141414" stroke-width="0.4"/>
<line x1="6.876" y1="25.832" x2="6.876" y2="38.512" stroke="#141414" stroke-width="0.4"/>
<line x1="6.876" y1="38.512" x2="13.876" y2="41.229" stroke="#141414" stroke-width="0.4"/>
<line x1="160.244" y1="131.715" x2="168.451" y2="135.06" stroke="#141414" stroke-width="0.4"/>
<line x1="168.451" y1="135.06" x2="174.726" y2="131.437" stroke="#141414" stroke-width="0.4"/>
<line x1="174.726" y1="131.437" x2="175.932" y2="122.658" stroke="#141414" stroke-width="0.4"/>
<line x1="108.002" y1="5.0" x2="124.254" y2="19.149" stroke="#141414" stroke-width="0.4"/>
<line x1="124.254" y1="19.149" x2="171.805" y2="101.509" stroke="#141414" stroke-width="0.4"/>
<line x1="171.805" y1="101.509" x2="175.932" y2="122.658" stroke="#141414" stroke-width="0.4"/>
<circle cx="19.97" cy="48.789" r="3.08" fill="#ffe082" stroke="#464646" stroke-width="0.2"/>
<text x="19.97" y="50.25" font-size="4.18" text-anchor="middle" fill="#141414">1</text>
<circle cx="107.087" cy="166.446" r="3.08" fill="#ffe082" stroke="#464646" stroke-width="0.2"/>
<text x="107.087" y="167.91" font-size="4.18" text-anchor="middle" fill="#141414">2</text>
<circle cx="91.4" cy="175.504" r="3.08" fill="#ffe082" stroke="#464646" stroke-width="0.2"/>
<text x="91.4" y="176.97" font-size="4.18" text-anchor="middle" fill="#141414">3</text>
<circle cx="48.752" cy="32.172" r="3.08" fill="#ffe082" stroke="#464646" stroke-width="0.2"/>
<text x="48.752" y="33.63" font-size="4.18" text-anchor="middle" fill="#141414">4</text>
<circle cx="122.775" cy="157.389" r="3.08" fill="#ffe082" stroke="#464646" stroke-width="0.2"/>
<text x="122.775" y="158.85" font-size="4.18" text-anchor="middle" fill="#141414">5</text>
<circle cx="39.158" cy="15.555" r="3.08" fill="#ffe082" stroke="#464646" stroke-width="0.2"/>
<text x="39.158" y="17.02" font-size="4.18" text-anchor="middle" fill="#141414">6</text>
<circle cx="138.463" cy="148.332" r="3.08" fill="#ffe082" stroke="#464646" stroke-width="0.2"/>
<text x="138.463" y="149.79" font-size="4.18" text-anchor="middle" fill="#141414">7</text>
<circle cx="19.97" cy="15.555" r="3.08" fill="#ffe082" stroke="#464646" stroke-width="0.2"/>
<text x="19.97" y="17.02" font-size="4.18" text-anchor="middle" fill="#141414">8</text>
<circle cx="10.376" cy="32.172" r="3.08" fill="#ffe082" stroke="#464646" stroke-width="0.2"/>
<text x="10.376" y="33.63" font-size="4.18" text-anchor="middle" fill="#141414">9</text>
<circle cx="169.838" cy="130.217" r="3.08" fill="#ffe082" stroke="#464646" stroke-width="0.2"/>
<text x="169.838" y="131.68" font-size="4.18" text-anchor="middle" fill="#141414">10</text>
<circle cx="144.998" cy="62.079" r="3.08" fill="#ffe082" stroke="#464646" stroke-width="0.2"/>
<text x="144.998" y="63.54" font-size="4.18" text-anchor="middle" fill="#141414">11</text>
<circle cx="89.528" cy="187.805" r="4.6" fill="#eaf1fe" stroke="#2e78e6" stroke-width="0.3"/>
<text x="89.528" y="189.60500000000002" font-size="5.2" text-anchor="middle" fill="#14306e" font-weight="bold">1</text>
<polygon points="43.126,209.269 38.422,203.416 44.763,192.434 52.183,193.581" fill="rgb(216,216,216)"/>
<polygon points="13.464,236.853 6.872,243.369 8.707,271.663 16.086,277.273" fill="rgb(216,216,216)"/>
<polygon points="52.183,224.956 54.9,231.957 67.581,231.957 70.298,224.956" fill="rgb(216,216,216)"/>
<polygon points="70.298,224.956 77.719,226.103 84.059,215.122 79.355,209.269" fill="rgb(216,216,216)"/>
<polygon points="79.355,209.269 84.059,203.416 77.719,192.434 70.298,193.581" fill="rgb(216,216,216)"/>
<polygon points="70.298,193.581 67.581,186.581 54.901,186.581 52.183,193.581" fill="rgb(216,216,216)"/>
<line x1="13.464" y1="236.853" x2="43.126" y2="209.269" stroke="#8c8c8c" stroke-width="0.3" stroke-dasharray="1.2,0.8"/>
<line x1="52.183" y1="224.957" x2="43.126" y2="209.269" stroke="#8c8c8c" stroke-width="0.3" stroke-dasharray="1.2,0.8"/>
<line x1="52.183" y1="224.957" x2="13.464" y2="236.853" stroke="#8c8c8c" stroke-width="0.3" stroke-dasharray="1.2,0.8"/>
<line x1="53.497" y1="243.023" x2="13.464" y2="236.853" stroke="#8c8c8c" stroke-width="0.3" stroke-dasharray="1.2,0.8"/>
<line x1="46.804" y1="259.856" x2="13.464" y2="236.853" stroke="#8c8c8c" stroke-width="0.3" stroke-dasharray="1.2,0.8"/>
<line x1="33.443" y1="272.088" x2="13.464" y2="236.853" stroke="#8c8c8c" stroke-width="0.3" stroke-dasharray="1.2,0.8"/>
<line x1="52.183" y1="193.581" x2="43.126" y2="209.269" stroke="#8c8c8c" stroke-width="0.3" stroke-dasharray="1.2,0.8"/>
<line x1="16.086" y1="277.273" x2="13.464" y2="236.853" stroke="#8c8c8c" stroke-width="0.3" stroke-dasharray="1.2,0.8"/>
<line x1="70.298" y1="224.956" x2="52.183" y2="224.956" stroke="#8c8c8c" stroke-width="0.3" stroke-dasharray="1.2,0.8"/>
<line x1="79.355" y1="209.269" x2="70.298" y2="224.956" stroke="#8c8c8c" stroke-width="0.3" stroke-dasharray="1.2,0.8"/>
<line x1="70.298" y1="193.581" x2="79.355" y2="209.269" stroke="#8c8c8c" stroke-width="0.3" stroke-dasharray="1.2,0.8"/>
<line x1="52.183" y1="193.581" x2="70.298" y2="193.581" stroke="#8c8c8c" stroke-width="0.3" stroke-dasharray="1.2,0.8"/>
<line x1="28.136" y1="199.098" x2="43.126" y2="209.269" stroke="#141414" stroke-width="0.4"/>
<line x1="13.464" y1="236.853" x2="28.136" y2="199.098" stroke="#141414" stroke-width="0.4"/>
<line x1="52.183" y1="224.957" x2="53.497" y2="243.023" stroke="#141414" stroke-width="0.4"/>
<line x1="53.497" y1="243.023" x2="46.804" y2="259.856" stroke="#141414" stroke-width="0.4"/>
<line x1="46.804" y1="259.856" x2="33.443" y2="272.088" stroke="#141414" stroke-width="0.4"/>
<line x1="33.443" y1="272.088" x2="16.086" y2="277.273" stroke="#141414" stroke-width="0.4"/>
<line x1="43.126" y1="209.269" x2="38.422" y2="203.416" stroke="#141414" stroke-width="0.4"/>
<line x1="38.422" y1="203.416" x2="44.763" y2="192.434" stroke="#141414" stroke-width="0.4"/>
<line x1="44.763" y1="192.434" x2="52.183" y2="193.581" stroke="#141414" stroke-width="0.4"/>
<line x1="13.464" y1="236.853" x2="6.872" y2="243.369" stroke="#141414" stroke-width="0.4"/>
<line x1="6.872" y1="243.369" x2="8.707" y2="271.663" stroke="#141414" stroke-width="0.4"/>
<line x1="8.707" y1="271.663" x2="16.086" y2="277.273" stroke="#141414" stroke-width="0.4"/>
<line x1="52.183" y1="224.956" x2="54.9" y2="231.957" stroke="#141414" stroke-width="0.4"/>
<line x1="54.9" y1="231.957" x2="67.581" y2="231.957" stroke="#141414" stroke-width="0.4"/>
<line x1="67.581" y1="231.957" x2="70.298" y2="224.956" stroke="#141414" stroke-width="0.4"/>
<line x1="70.298" y1="224.956" x2="77.719" y2="226.103" stroke="#141414" stroke-width="0.4"/>
<line x1="77.719" y1="226.103" x2="84.059" y2="215.122" stroke="#141414" stroke-width="0.4"/>
<line x1="84.059" y1="215.122" x2="79.355" y2="209.269" stroke="#141414" stroke-width="0.4"/>
<line x1="79.355" y1="209.269" x2="84.059" y2="203.416" stroke="#141414" stroke-width="0.4"/>
<line x1="84.059" y1="203.416" x2="77.719" y2="192.434" stroke="#141414" stroke-width="0.4"/>
<line x1="77.719" y1="192.434" x2="70.298" y2="193.581" stroke="#141414" stroke-width="0.4"/>
<line x1="70.298" y1="193.581" x2="67.581" y2="186.581" stroke="#141414" stroke-width="0.4"/>
<line x1="67.581" y1="186.581" x2="54.901" y2="186.581" stroke="#141414" stroke-width="0.4"/>
<line x1="54.901" y1="186.581" x2="52.183" y2="193.581" stroke="#141414" stroke-width="0.4"/>
<circle cx="44.624" cy="199.675" r="3.08" fill="#ffe082" stroke="#464646" stroke-width="0.2"/>
<text x="44.624" y="201.14" font-size="4.18" text-anchor="middle" fill="#141414">12</text>
<circle cx="11.282" cy="257.289" r="3.08" fill="#ffe082" stroke="#464646" stroke-width="0.2"/>
<text x="11.282" y="258.75" font-size="4.18" text-anchor="middle" fill="#141414">13</text>
<circle cx="61.241" cy="228.456" r="3.08" fill="#ffe082" stroke="#464646" stroke-width="0.2"/>
<text x="61.241" y="229.92" font-size="4.18" text-anchor="middle" fill="#141414">14</text>
<circle cx="77.858" cy="218.863" r="3.08" fill="#ffe082" stroke="#464646" stroke-width="0.2"/>
<text x="77.858" y="220.33" font-size="4.18" text-anchor="middle" fill="#141414">15</text>
<circle cx="77.858" cy="199.675" r="3.08" fill="#ffe082" stroke="#464646" stroke-width="0.2"/>
<text x="77.858" y="201.14" font-size="4.18" text-anchor="middle" fill="#141414">16</text>
<circle cx="61.241" cy="190.081" r="3.08" fill="#ffe082" stroke="#464646" stroke-width="0.2"/>
<text x="61.241" y="191.54" font-size="4.18" text-anchor="middle" fill="#141414">17</text>
<circle cx="43.593" cy="178.605" r="4.6" fill="#eaf1fe" stroke="#2e78e6" stroke-width="0.3"/>
<text x="43.593" y="180.405" font-size="5.2" text-anchor="middle" fill="#14306e" font-weight="bold">2</text>
<g pointer-events="none"><text x="105.0" y="89.1" text-anchor="middle" font-family="sans-serif" font-size="21.2" fill="#9aa0a6" fill-opacity="0.33" transform="rotate(-28 105.0 89.1)">papercraft.kr 미리보기</text><text x="105.0" y="163.4" text-anchor="middle" font-family="sans-serif" font-size="21.2" fill="#9aa0a6" fill-opacity="0.33" transform="rotate(-28 105.0 163.4)">papercraft.kr 미리보기</text><text x="105.0" y="237.6" text-anchor="middle" font-family="sans-serif" font-size="21.2" fill="#9aa0a6" fill-opacity="0.33" transform="rotate(-28 105.0 237.6)">papercraft.kr 미리보기</text></g></svg>
