<svg xmlns="http://www.w3.org/2000/svg" xmlns:xlink="http://www.w3.org/1999/xlink" width="210.00mm" height="297.00mm" viewBox="0 0 210.00 297.00">
<rect x="0" y="0" width="210.00" height="297.00" fill="#ffffff" stroke="#cccccc" stroke-width="0.2"/>
<polygon points="58.439,56.814 48.115,55.095 46.267,52.778 46.889,42.33" fill="rgb(216,216,216)"/>
<polygon points="76.964,56.814 87.288,55.095 89.136,52.778 88.514,42.33" fill="rgb(216,216,216)"/>
<polygon points="68.411,156.956 69.221,162.528 76.689,163.635 79.08,158.537" fill="rgb(216,216,216)"/>
<polygon points="88.514,42.33 94.721,38.063 91.835,25.421 84.392,24.27" fill="rgb(216,216,216)"/>
<polygon points="84.392,24.27 84.926,16.757 73.243,11.131 67.702,16.232" fill="rgb(216,216,216)"/>
<polygon points="79.08,158.537 78.783,162.631 83.926,164.59 86.428,161.336" fill="rgb(216,216,216)"/>
<polygon points="130.368,71.012 130.072,87.623 99.314,150.85 86.428,161.336" fill="rgb(216,216,216)"/>
<polygon points="67.702,16.232 62.161,11.131 50.478,16.757 51.011,24.27" fill="rgb(216,216,216)"/>
<polygon points="48.657,161.398 52.885,170.284 55.179,163.759 53.962,159.242" fill="rgb(216,216,216)"/>
<polygon points="51.011,24.27 43.569,25.421 40.683,38.063 46.889,42.33" fill="rgb(216,216,216)"/>
<polygon points="53.962,159.242 55.635,163.331 58.944,157.926 59.498,157.779" fill="rgb(216,216,216)"/>
<polygon points="79.08,158.537 78.783,162.631 83.926,164.59 86.428,161.336" fill="#99d9fa"/>
<line x1="58.439" y1="56.813" x2="76.964" y2="56.813" stroke="#8c8c8c" stroke-width="0.3" stroke-dasharray="1.2,0.8"/>
<line x1="68.411" y1="156.956" x2="58.439" y2="56.813" stroke="#8c8c8c" stroke-width="0.3" stroke-dasharray="1.2,0.8"/>
<line x1="58.439" y1="56.813" x2="59.498" y2="157.779" stroke="#8c8c8c" stroke-width="0.3" stroke-dasharray="1.2,0.8"/>
<line x1="76.964" y1="56.813" x2="68.411" y2="156.956" stroke="#8c8c8c" stroke-width="0.3" stroke-dasharray="1.2,0.8"/>
<line x1="95.337" y1="59.185" x2="68.411" y2="156.956" stroke="#8c8c8c" stroke-width="0.3" stroke-dasharray="1.2,0.8"/>
<line x1="59.498" y1="157.779" x2="68.411" y2="156.956" stroke="#8c8c8c" stroke-width="0.3" stroke-dasharray="1.2,0.8"/>
<line x1="95.337" y1="59.185" x2="79.08" y2="158.537" stroke="#8c8c8c" stroke-width="0.3" stroke-dasharray="1.2,0.8"/>
<line x1="113.232" y1="63.973" x2="79.08" y2="158.537" stroke="#8c8c8c" stroke-width="0.3" stroke-dasharray="1.2,0.8"/>
<line x1="22.163" y1="63.964" x2="53.962" y2="159.242" stroke="#8c8c8c" stroke-width="0.3" stroke-dasharray="1.2,0.8"/>
<line x1="40.073" y1="59.231" x2="59.498" y2="157.779" stroke="#8c8c8c" stroke-width="0.3" stroke-dasharray="1.2,0.8"/>
<line x1="130.368" y1="71.012" x2="79.08" y2="158.537" stroke="#8c8c8c" stroke-width="0.3" stroke-dasharray="1.2,0.8"/>
<line x1="46.889" y1="42.33" x2="58.439" y2="56.814" stroke="#8c8c8c" stroke-width="0.3" stroke-dasharray="1.2,0.8"/>
<line x1="88.514" y1="42.33" x2="76.964" y2="56.814" stroke="#8c8c8c" stroke-width="0.3" stroke-dasharray="1.2,0.8"/>
<line x1="79.08" y1="158.537" x2="68.411" y2="156.956" stroke="#8c8c8c" stroke-width="0.3" stroke-dasharray="1.2,0.8"/>
<line x1="84.392" y1="24.27" x2="88.514" y2="42.33" stroke="#8c8c8c" stroke-width="0.3" stroke-dasharray="1.2,0.8"/>
<line x1="67.702" y1="16.232" x2="84.392" y2="24.27" stroke="#8c8c8c" stroke-width="0.3" stroke-dasharray="1.2,0.8"/>
<line x1="86.428" y1="161.336" x2="79.08" y2="158.537" stroke="#8c8c8c" stroke-width="0.3" stroke-dasharray="1.2,0.8"/>
<line x1="86.428" y1="161.336" x2="130.368" y2="71.012" stroke="#8c8c8c" stroke-width="0.3" stroke-dasharray="1.2,0.8"/>
<line x1="51.011" y1="24.27" x2="67.702" y2="16.232" stroke="#8c8c8c" stroke-width="0.3" stroke-dasharray="1.2,0.8"/>
<line x1="53.962" y1="159.242" x2="48.657" y2="161.398" stroke="#8c8c8c" stroke-width="0.3" stroke-dasharray="1.2,0.8"/>
<line x1="46.889" y1="42.33" x2="51.011" y2="24.27" stroke="#8c8c8c" stroke-width="0.3" stroke-dasharray="1.2,0.8"/>
<line x1="59.498" y1="157.779" x2="53.962" y2="159.242" stroke="#8c8c8c" stroke-width="0.3" stroke-dasharray="1.2,0.8"/>
<line x1="40.073" y1="59.231" x2="58.439" y2="56.813" stroke="#141414" stroke-width="0.4"/>
<line x1="76.964" y1="56.813" x2="95.337" y2="59.185" stroke="#141414" stroke-width="0.4"/>
<line x1="68.411" y1="156.956" x2="68.573" y2="167.741" stroke="#141414" stroke-width="0.4"/>
<line x1="95.337" y1="59.185" x2="113.232" y2="63.973" stroke="#141414" stroke-width="0.4"/>
<line x1="113.232" y1="63.973" x2="130.368" y2="71.012" stroke="#141414" stroke-width="0.4"/>
<line x1="68.573" y1="167.741" x2="60.715" y2="168.025" stroke="#141414" stroke-width="0.4"/>
<line x1="48.657" y1="161.398" x2="5.0" y2="70.936" stroke="#141414" stroke-width="0.4"/>
<line x1="5.0" y1="70.936" x2="22.163" y2="63.964" stroke="#141414" stroke-width="0.4"/>
<line x1="60.715" y1="168.025" x2="57.64" y2="163.196" stroke="#141414" stroke-width="0.4"/>
<line x1="22.163" y1="63.964" x2="40.073" y2="59.231" stroke="#141414" stroke-width="0.4"/>
<line x1="57.64" y1="163.196" x2="59.498" y2="157.779" stroke="#141414" stroke-width="0.4"/>
<line x1="58.439" y1="56.814" x2="48.115" y2="55.095" stroke="#141414" stroke-width="0.4"/>
<line x1="48.115" y1="55.095" x2="46.267" y2="52.778" stroke="#141414" stroke-width="0.4"/>
<line x1="46.267" y1="52.778" x2="46.889" y2="42.33" stroke="#141414" stroke-width="0.4"/>
<line x1="76.964" y1="56.814" x2="87.288" y2="55.095" stroke="#141414" stroke-width="0.4"/>
<line x1="87.288" y1="55.095" x2="89.136" y2="52.778" stroke="#141414" stroke-width="0.4"/>
<line x1="89.136" y1="52.778" x2="88.514" y2="42.33" stroke="#141414" stroke-width="0.4"/>
<line x1="68.411" y1="156.956" x2="69.221" y2="162.528" stroke="#141414" stroke-width="0.4"/>
<line x1="69.221" y1="162.528" x2="76.689" y2="163.635" stroke="#141414" stroke-width="0.4"/>
<line x1="76.689" y1="163.635" x2="79.08" y2="158.537" stroke="#141414" stroke-width="0.4"/>
<line x1="88.514" y1="42.33" x2="94.721" y2="38.063" stroke="#141414" stroke-width="0.4"/>
<line x1="94.721" y1="38.063" x2="91.835" y2="25.421" stroke="#141414" stroke-width="0.4"/>
<line x1="91.835" y1="25.421" x2="84.392" y2="24.27" stroke="#141414" stroke-width="0.4"/>
<line x1="84.392" y1="24.27" x2="84.926" y2="16.757" stroke="#141414" stroke-width="0.4"/>
<line x1="84.926" y1="16.757" x2="73.243" y2="11.131" stroke="#141414" stroke-width="0.4"/>
<line x1="73.243" y1="11.131" x2="67.702" y2="16.232" stroke="#141414" stroke-width="0.4"/>
<line x1="79.08" y1="158.537" x2="78.783" y2="162.631" stroke="#141414" stroke-width="0.4"/>
<line x1="78.783" y1="162.631" x2="83.926" y2="164.59" stroke="#141414" stroke-width="0.4"/>
<line x1="83.926" y1="164.59" x2="86.428" y2="161.336" stroke="#141414" stroke-width="0.4"/>
<line x1="130.368" y1="71.012" x2="130.072" y2="87.623" stroke="#141414" stroke-width="0.4"/>
<line x1="130.072" y1="87.623" x2="99.314" y2="150.85" stroke="#141414" stroke-width="0.4"/>
<line x1="99.314" y1="150.85" x2="86.428" y2="161.336" stroke="#141414" stroke-width="0.4"/>
<line x1="67.702" y1="16.232" x2="62.161" y2="11.131" stroke="#141414" stroke-width="0.4"/>
<line x1="62.161" y1="11.131" x2="50.478" y2="16.757" stroke="#141414" stroke-width="0.4"/>
<line x1="50.478" y1="16.757" x2="51.011" y2="24.27" stroke="#141414" stroke-width="0.4"/>
<line x1="48.657" y1="161.398" x2="52.885" y2="170.284" stroke="#141414" stroke-width="0.4"/>
<line x1="52.885" y1="170.284" x2="55.179" y2="163.759" stroke="#141414" stroke-width="0.4"/>
<line x1="55.179" y1="163.759" x2="53.962" y2="159.242" stroke="#141414" stroke-width="0.4"/>
<line x1="51.011" y1="24.27" x2="43.569" y2="25.421" stroke="#141414" stroke-width="0.4"/>
<line x1="43.569" y1="25.421" x2="40.683" y2="38.063" stroke="#141414" stroke-width="0.4"/>
<line x1="40.683" y1="38.063" x2="46.889" y2="42.33" stroke="#141414" stroke-width="0.4"/>
<line x1="53.962" y1="159.242" x2="55.635" y2="163.331" stroke="#141414" stroke-width="0.4"/>
<line x1="55.635" y1="163.331" x2="58.944" y2="157.926" stroke="#141414" stroke-width="0.4"/>
<line x1="58.944" y1="157.926" x2="59.498" y2="157.779" stroke="#141414" stroke-width="0.4"/>
<circle cx="49.928" cy="51.754" r="1.53" fill="#ffe082" stroke="#464646" stroke-width="0.2"/>
<text x="49.928" y="52.28" font-size="1.50" text-anchor="middle" fill="#141414">147</text>
<circle cx="85.476" cy="51.754" r="1.53" fill="#ffe082" stroke="#464646" stroke-width="0.2"/>
<text x="85.476" y="52.28" font-size="1.50" text-anchor="middle" fill="#141414">148</text>
<circle cx="73.35" cy="160.414" r="1.53" fill="#ffe082" stroke="#464646" stroke-width="0.2"/>
<text x="73.35" y="160.94" font-size="1.50" text-anchor="middle" fill="#141414">149</text>
<circle cx="89.866" cy="32.521" r="1.53" fill="#ffe082" stroke="#464646" stroke-width="0.2"/>
<text x="89.866" y="33.04" font-size="1.50" text-anchor="middle" fill="#141414">150</text>
<circle cx="77.565" cy="17.097" r="1.53" fill="#ffe082" stroke="#464646" stroke-width="0.2"/>
<text x="77.565" y="17.62" font-size="1.50" text-anchor="middle" fill="#141414">151</text>
<circle cx="82.054" cy="161.774" r="1.53" fill="#99d9fa" stroke="#464646" stroke-width="0.2"/>
<text x="82.054" y="162.30" font-size="1.50" text-anchor="middle" fill="#141414">152</text>
<circle cx="111.545" cy="117.705" r="1.53" fill="#ffe082" stroke="#464646" stroke-width="0.2"/>
<text x="111.545" y="118.23" font-size="1.50" text-anchor="middle" fill="#141414">153</text>
<circle cx="57.838" cy="17.097" r="1.53" fill="#ffe082" stroke="#464646" stroke-width="0.2"/>
<text x="57.838" y="17.62" font-size="1.50" text-anchor="middle" fill="#141414">154</text>
<circle cx="45.538" cy="32.521" r="1.53" fill="#ffe082" stroke="#464646" stroke-width="0.2"/>
<text x="45.538" y="33.04" font-size="1.50" text-anchor="middle" fill="#141414">156</text>
<circle cx="67.684" cy="170.253" r="4.6" fill="#eaf1fe" stroke="#2e78e6" stroke-width="0.3"/>
<text x="67.684" y="172.053" font-size="5.2" text-anchor="middle" fill="#14306e" font-weight="bold">9</text>
<polygon points="48.231,195.492 50.706,186.531 52.806,185.52 61.355,189.172" fill="rgb(216,216,216)"/>
<polygon points="49.073,181.342 55.313,175.037 62.528,175.898 67.109,183.494" fill="rgb(216,216,216)"/>
<polygon points="125.795,187.765 122.337,181.097 109.696,182.457 107.736,189.708" fill="rgb(216,216,216)"/>
<polygon points="23.053,205.37 16.969,201.277 9.015,207.657 11.69,214.484" fill="rgb(216,216,216)"/>
<polygon points="23.053,205.37 33.956,205.295 42.55,212.39 44.54,223.11" fill="rgb(216,216,216)"/>
<polygon points="56.315,195.492 62.249,204.454 60.899,215.244 52.941,222.468" fill="rgb(216,216,216)"/>
<polygon points="77.195,212.903 79.092,217.031 89.84,214.216 89.47,209.688" fill="rgb(216,216,216)"/>
<polygon points="22.385,251.768 25.216,250.117 22.368,240.387 19.093,240.523" fill="rgb(216,216,216)"/>
<polygon points="83.673,205.084 83.514,196.879 100.357,186.116 107.736,189.708" fill="rgb(216,216,216)"/>
<polygon points="13.99,242.253 6.669,238.665 5.059,219.227 11.69,214.484" fill="rgb(216,216,216)"/>
<polygon points="42.71,228.179 31.869,229.339 22.611,223.133 19.566,212.664" fill="rgb(216,216,216)"/>
<polygon points="22.385,251.768 25.216,250.117 22.368,240.387 19.093,240.523" fill="#99d9fa"/>
<line x1="48.231" y1="195.492" x2="56.315" y2="195.492" stroke="#8c8c8c" stroke-width="0.3" stroke-dasharray="1.2,0.8"/>
<line x1="52.941" y1="222.468" x2="48.231" y2="195.492" stroke="#8c8c8c" stroke-width="0.3" stroke-dasharray="1.2,0.8"/>
<line x1="23.053" y1="205.37" x2="19.566" y2="212.663" stroke="#8c8c8c" stroke-width="0.3" stroke-dasharray="1.2,0.8"/>
<line x1="61.355" y1="189.172" x2="56.315" y2="195.492" stroke="#8c8c8c" stroke-width="0.3" stroke-dasharray="1.2,0.8"/>
<line x1="61.355" y1="189.172" x2="77.195" y2="212.903" stroke="#8c8c8c" stroke-width="0.3" stroke-dasharray="1.2,0.8"/>
<line x1="83.673" y1="205.083" x2="77.195" y2="212.903" stroke="#8c8c8c" stroke-width="0.3" stroke-dasharray="1.2,0.8"/>
<line x1="44.54" y1="223.111" x2="52.941" y2="222.468" stroke="#8c8c8c" stroke-width="0.3" stroke-dasharray="1.2,0.8"/>
<line x1="67.109" y1="183.494" x2="61.355" y2="189.172" stroke="#8c8c8c" stroke-width="0.3" stroke-dasharray="1.2,0.8"/>
<line x1="61.355" y1="189.172" x2="83.673" y2="205.083" stroke="#8c8c8c" stroke-width="0.3" stroke-dasharray="1.2,0.8"/>
<line x1="67.109" y1="183.494" x2="83.673" y2="205.083" stroke="#8c8c8c" stroke-width="0.3" stroke-dasharray="1.2,0.8"/>
<line x1="73.413" y1="178.435" x2="67.109" y2="183.494" stroke="#8c8c8c" stroke-width="0.3" stroke-dasharray="1.2,0.8"/>
<line x1="89.47" y1="209.688" x2="83.673" y2="205.083" stroke="#8c8c8c" stroke-width="0.3" stroke-dasharray="1.2,0.8"/>
<line x1="107.736" y1="189.708" x2="89.47" y2="209.688" stroke="#8c8c8c" stroke-width="0.3" stroke-dasharray="1.2,0.8"/>
<line x1="113.423" y1="195.453" x2="107.736" y2="189.708" stroke="#8c8c8c" stroke-width="0.3" stroke-dasharray="1.2,0.8"/>
<line x1="19.093" y1="240.523" x2="13.99" y2="242.253" stroke="#8c8c8c" stroke-width="0.3" stroke-dasharray="1.2,0.8"/>
<line x1="11.69" y1="214.484" x2="19.093" y2="240.523" stroke="#8c8c8c" stroke-width="0.3" stroke-dasharray="1.2,0.8"/>
<line x1="19.566" y1="212.663" x2="11.69" y2="214.484" stroke="#8c8c8c" stroke-width="0.3" stroke-dasharray="1.2,0.8"/>
<line x1="44.54" y1="223.111" x2="42.71" y2="228.179" stroke="#8c8c8c" stroke-width="0.3" stroke-dasharray="1.2,0.8"/>
<line x1="19.566" y1="212.663" x2="44.54" y2="223.111" stroke="#8c8c8c" stroke-width="0.3" stroke-dasharray="1.2,0.8"/>
<line x1="61.355" y1="189.172" x2="48.231" y2="195.492" stroke="#8c8c8c" stroke-width="0.3" stroke-dasharray="1.2,0.8"/>
<line x1="67.109" y1="183.494" x2="49.073" y2="181.342" stroke="#8c8c8c" stroke-width="0.3" stroke-dasharray="1.2,0.8"/>
<line x1="107.736" y1="189.708" x2="125.795" y2="187.765" stroke="#8c8c8c" stroke-width="0.3" stroke-dasharray="1.2,0.8"/>
<line x1="11.69" y1="214.484" x2="23.053" y2="205.37" stroke="#8c8c8c" stroke-width="0.3" stroke-dasharray="1.2,0.8"/>
<line x1="44.54" y1="223.11" x2="23.053" y2="205.37" stroke="#8c8c8c" stroke-width="0.3" stroke-dasharray="1.2,0.8"/>
<line x1="52.941" y1="222.468" x2="56.315" y2="195.492" stroke="#8c8c8c" stroke-width="0.3" stroke-dasharray="1.2,0.8"/>
<line x1="89.47" y1="209.688" x2="77.195" y2="212.903" stroke="#8c8c8c" stroke-width="0.3" stroke-dasharray="1.2,0.8"/>
<line x1="19.093" y1="240.523" x2="22.385" y2="251.768" stroke="#8c8c8c" stroke-width="0.3" stroke-dasharray="1.2,0.8"/>
<line x1="107.736" y1="189.708" x2="83.673" y2="205.084" stroke="#8c8c8c" stroke-width="0.3" stroke-dasharray="1.2,0.8"/>
<line x1="11.69" y1="214.484" x2="13.99" y2="242.253" stroke="#8c8c8c" stroke-width="0.3" stroke-dasharray="1.2,0.8"/>
<line x1="19.566" y1="212.664" x2="42.71" y2="228.179" stroke="#8c8c8c" stroke-width="0.3" stroke-dasharray="1.2,0.8"/>
<line x1="61.355" y1="189.172" x2="49.073" y2="181.342" stroke="#141414" stroke-width="0.4"/>
<line x1="67.109" y1="183.494" x2="59.179" y2="167.153" stroke="#141414" stroke-width="0.4"/>
<line x1="59.179" y1="167.153" x2="73.413" y2="178.435" stroke="#141414" stroke-width="0.4"/>
<line x1="107.736" y1="189.708" x2="125.795" y2="187.765" stroke="#141414" stroke-width="0.4"/>
<line x1="125.795" y1="187.765" x2="113.423" y2="195.453" stroke="#141414" stroke-width="0.4"/>
<line x1="44.54" y1="223.111" x2="48.231" y2="195.492" stroke="#141414" stroke-width="0.4"/>
<line x1="77.195" y1="212.903" x2="56.315" y2="195.492" stroke="#141414" stroke-width="0.4"/>
<line x1="22.385" y1="251.768" x2="13.99" y2="242.253" stroke="#141414" stroke-width="0.4"/>
<line x1="52.941" y1="222.468" x2="42.71" y2="228.179" stroke="#141414" stroke-width="0.4"/>
<line x1="73.413" y1="178.435" x2="83.673" y2="205.083" stroke="#141414" stroke-width="0.4"/>
<line x1="83.673" y1="205.083" x2="107.736" y2="189.708" stroke="#141414" stroke-width="0.4"/>
<line x1="113.423" y1="195.453" x2="89.47" y2="209.688" stroke="#141414" stroke-width="0.4"/>
<line x1="19.566" y1="212.663" x2="19.093" y2="240.523" stroke="#141414" stroke-width="0.4"/>
<line x1="48.231" y1="195.492" x2="50.706" y2="186.531" stroke="#141414" stroke-width="0.4"/>
<line x1="50.706" y1="186.531" x2="52.806" y2="185.52" stroke="#141414" stroke-width="0.4"/>
<line x1="52.806" y1="185.52" x2="61.355" y2="189.172" stroke="#141414" stroke-width="0.4"/>
<line x1="49.073" y1="181.342" x2="55.313" y2="175.037" stroke="#141414" stroke-width="0.4"/>
<line x1="55.313" y1="175.037" x2="62.528" y2="175.898" stroke="#141414" stroke-width="0.4"/>
<line x1="62.528" y1="175.898" x2="67.109" y2="183.494" stroke="#141414" stroke-width="0.4"/>
<line x1="125.795" y1="187.765" x2="122.337" y2="181.097" stroke="#141414" stroke-width="0.4"/>
<line x1="122.337" y1="181.097" x2="109.696" y2="182.457" stroke="#141414" stroke-width="0.4"/>
<line x1="109.696" y1="182.457" x2="107.736" y2="189.708" stroke="#141414" stroke-width="0.4"/>
<line x1="23.053" y1="205.37" x2="16.969" y2="201.277" stroke="#141414" stroke-width="0.4"/>
<line x1="16.969" y1="201.277" x2="9.015" y2="207.657" stroke="#141414" stroke-width="0.4"/>
<line x1="9.015" y1="207.657" x2="11.69" y2="214.484" stroke="#141414" stroke-width="0.4"/>
<line x1="23.053" y1="205.37" x2="33.956" y2="205.295" stroke="#141414" stroke-width="0.4"/>
<line x1="33.956" y1="205.295" x2="42.55" y2="212.39" stroke="#141414" stroke-width="0.4"/>
<line x1="42.55" y1="212.39" x2="44.54" y2="223.11" stroke="#141414" stroke-width="0.4"/>
<line x1="56.315" y1="195.492" x2="62.249" y2="204.454" stroke="#141414" stroke-width="0.4"/>
<line x1="62.249" y1="204.454" x2="60.899" y2="215.244" stroke="#141414" stroke-width="0.4"/>
<line x1="60.899" y1="215.244" x2="52.941" y2="222.468" stroke="#141414" stroke-width="0.4"/>
<line x1="77.195" y1="212.903" x2="79.092" y2="217.031" stroke="#141414" stroke-width="0.4"/>
<line x1="79.092" y1="217.031" x2="89.84" y2="214.216" stroke="#141414" stroke-width="0.4"/>
<line x1="89.84" y1="214.216" x2="89.47" y2="209.688" stroke="#141414" stroke-width="0.4"/>
<line x1="22.385" y1="251.768" x2="25.216" y2="250.117" stroke="#141414" stroke-width="0.4"/>
<line x1="25.216" y1="250.117" x2="22.368" y2="240.387" stroke="#141414" stroke-width="0.4"/>
<line x1="22.368" y1="240.387" x2="19.093" y2="240.523" stroke="#141414" stroke-width="0.4"/>
<line x1="83.673" y1="205.084" x2="83.514" y2="196.879" stroke="#141414" stroke-width="0.4"/>
<line x1="83.514" y1="196.879" x2="100.357" y2="186.116" stroke="#141414" stroke-width="0.4"/>
<line x1="100.357" y1="186.116" x2="107.736" y2="189.708" stroke="#141414" stroke-width="0.4"/>
<line x1="13.99" y1="242.253" x2="6.669" y2="238.665" stroke="#141414" stroke-width="0.4"/>
<line x1="6.669" y1="238.665" x2="5.059" y2="219.227" stroke="#141414" stroke-width="0.4"/>
<line x1="5.059" y1="219.227" x2="11.69" y2="214.484" stroke="#141414" stroke-width="0.4"/>
<line x1="42.71" y1="228.179" x2="31.869" y2="229.339" stroke="#141414" stroke-width="0.4"/>
<line x1="31.869" y1="229.339" x2="22.611" y2="223.133" stroke="#141414" stroke-width="0.4"/>
<line x1="22.611" y1="223.133" x2="19.566" y2="212.664" stroke="#141414" stroke-width="0.4"/>
<circle cx="53.275" cy="189.179" r="1.53" fill="#ffe082" stroke="#464646" stroke-width="0.2"/>
<text x="53.275" y="189.70" font-size="1.50" text-anchor="middle" fill="#141414">202</text>
<circle cx="58.506" cy="178.943" r="1.53" fill="#ffe082" stroke="#464646" stroke-width="0.2"/>
<text x="58.506" y="179.47" font-size="1.50" text-anchor="middle" fill="#141414">203</text>
<circle cx="116.391" cy="185.257" r="1.53" fill="#ffe082" stroke="#464646" stroke-width="0.2"/>
<text x="116.391" y="185.78" font-size="1.50" text-anchor="middle" fill="#141414">204</text>
<circle cx="15.182" cy="207.197" r="1.53" fill="#ffe082" stroke="#464646" stroke-width="0.2"/>
<text x="15.182" y="207.72" font-size="1.50" text-anchor="middle" fill="#141414">205</text>
<circle cx="36.025" cy="211.542" r="1.53" fill="#ffe082" stroke="#464646" stroke-width="0.2"/>
<text x="36.025" y="212.07" font-size="1.50" text-anchor="middle" fill="#141414">206</text>
<circle cx="58.101" cy="209.415" r="1.53" fill="#ffe082" stroke="#464646" stroke-width="0.2"/>
<text x="58.101" y="209.94" font-size="1.50" text-anchor="middle" fill="#141414">207</text>
<circle cx="93.82" cy="194.447" r="1.53" fill="#ffe082" stroke="#464646" stroke-width="0.2"/>
<text x="93.82" y="194.97" font-size="1.50" text-anchor="middle" fill="#141414">210</text>
<circle cx="9.352" cy="228.658" r="1.53" fill="#ffe082" stroke="#464646" stroke-width="0.2"/>
<text x="9.352" y="229.18" font-size="1.50" text-anchor="middle" fill="#141414">211</text>
<circle cx="29.189" cy="223.329" r="1.53" fill="#ffe082" stroke="#464646" stroke-width="0.2"/>
<text x="29.189" y="223.85" font-size="1.50" text-anchor="middle" fill="#141414">212</text>
<circle cx="65.368" cy="161.053" r="4.6" fill="#eaf1fe" stroke="#2e78e6" stroke-width="0.3"/>
<text x="65.368" y="162.853" font-size="5.2" text-anchor="middle" fill="#14306e" font-weight="bold">14</text>
<g pointer-events="none"><text x="105.0" y="83.2" text-anchor="middle" font-family="sans-serif" font-size="12.4" fill="#9aa0a6" fill-opacity="0.3" transform="rotate(-28 105.0 83.2)">papercraft.kr</text><text x="105.0" y="148.5" text-anchor="middle" font-family="sans-serif" font-size="12.4" fill="#9aa0a6" fill-opacity="0.3" transform="rotate(-28 105.0 148.5)">papercraft.kr</text><text x="105.0" y="213.8" text-anchor="middle" font-family="sans-serif" font-size="12.4" fill="#9aa0a6" fill-opacity="0.3" transform="rotate(-28 105.0 213.8)">papercraft.kr</text></g></svg>
