<svg xmlns="http://www.w3.org/2000/svg" xmlns:xlink="http://www.w3.org/1999/xlink" width="210.00mm" height="297.00mm" viewBox="0 0 210.00 297.00">
<rect x="0" y="0" width="210.00" height="297.00" fill="#ffffff" stroke="#cccccc" stroke-width="0.2"/>
<polygon points="10.514,55.891 4.884,60.59 8.789,70.019 16.093,69.36" fill="rgb(216,216,216)"/>
<polygon points="10.514,55.891 4.884,51.191 8.789,41.763 16.093,42.421" fill="rgb(216,216,216)"/>
<polygon points="82.662,104.909 91.472,107.888 92.365,110.043 88.241,118.379" fill="rgb(216,216,216)"/>
<polygon points="16.093,69.36 15.435,76.664 24.864,80.57 29.563,74.94" fill="rgb(216,216,216)"/>
<polygon points="77.082,91.44 81.206,83.104 80.314,80.949 71.503,77.97" fill="rgb(216,216,216)"/>
<polygon points="29.563,74.94 34.262,80.57 43.691,76.664 43.032,69.36" fill="rgb(216,216,216)"/>
<polygon points="71.503,77.97 77.133,73.271 73.228,63.842 65.924,64.5" fill="rgb(216,216,216)"/>
<polygon points="43.032,69.36 51.843,66.382 52.736,64.227 48.612,55.891" fill="rgb(216,216,216)"/>
<polygon points="65.924,64.5 71.554,59.801 67.648,50.372 60.344,51.031" fill="rgb(216,216,216)"/>
<polygon points="60.344,51.031 65.975,46.331 62.069,36.903 54.765,37.561" fill="rgb(216,216,216)"/>
<polygon points="43.032,42.421 40.054,33.611 37.899,32.718 29.563,36.842" fill="rgb(216,216,216)"/>
<polygon points="54.765,37.561 60.395,32.862 56.49,23.433 49.186,24.092" fill="rgb(216,216,216)"/>
<polygon points="29.563,36.842 24.863,31.211 15.435,35.117 16.093,42.421" fill="rgb(216,216,216)"/>
<polygon points="49.186,24.092 54.816,19.392 50.91,9.963 43.606,10.622" fill="rgb(216,216,216)"/>
<polygon points="31.874,15.482 31.204,8.886 39.417,5.485 43.606,10.622" fill="rgb(216,216,216)"/>
<line x1="82.662" y1="104.909" x2="70.929" y2="109.769" stroke="#8c8c8c" stroke-width="0.3" stroke-dasharray="1.2,0.8"/>
<line x1="77.082" y1="91.44" x2="82.662" y2="104.909" stroke="#8c8c8c" stroke-width="0.3" stroke-dasharray="1.2,0.8"/>
<line x1="65.35" y1="96.299" x2="77.082" y2="91.44" stroke="#8c8c8c" stroke-width="0.3" stroke-dasharray="1.2,0.8"/>
<line x1="59.77" y1="82.83" x2="71.503" y2="77.97" stroke="#8c8c8c" stroke-width="0.3" stroke-dasharray="1.2,0.8"/>
<line x1="54.191" y1="69.36" x2="65.924" y2="64.5" stroke="#8c8c8c" stroke-width="0.3" stroke-dasharray="1.2,0.8"/>
<line x1="48.612" y1="55.891" x2="60.344" y2="51.031" stroke="#8c8c8c" stroke-width="0.3" stroke-dasharray="1.2,0.8"/>
<line x1="43.032" y1="42.421" x2="48.612" y2="55.891" stroke="#8c8c8c" stroke-width="0.3" stroke-dasharray="1.2,0.8"/>
<line x1="43.032" y1="42.421" x2="54.765" y2="37.561" stroke="#8c8c8c" stroke-width="0.3" stroke-dasharray="1.2,0.8"/>
<line x1="37.453" y1="28.951" x2="49.186" y2="24.091" stroke="#8c8c8c" stroke-width="0.3" stroke-dasharray="1.2,0.8"/>
<line x1="16.093" y1="69.36" x2="10.514" y2="55.891" stroke="#8c8c8c" stroke-width="0.3" stroke-dasharray="1.2,0.8"/>
<line x1="16.093" y1="42.421" x2="10.514" y2="55.891" stroke="#8c8c8c" stroke-width="0.3" stroke-dasharray="1.2,0.8"/>
<line x1="88.241" y1="118.379" x2="82.662" y2="104.909" stroke="#8c8c8c" stroke-width="0.3" stroke-dasharray="1.2,0.8"/>
<line x1="29.563" y1="74.94" x2="16.093" y2="69.36" stroke="#8c8c8c" stroke-width="0.3" stroke-dasharray="1.2,0.8"/>
<line x1="71.503" y1="77.97" x2="77.082" y2="91.44" stroke="#8c8c8c" stroke-width="0.3" stroke-dasharray="1.2,0.8"/>
<line x1="43.032" y1="69.36" x2="29.563" y2="74.94" stroke="#8c8c8c" stroke-width="0.3" stroke-dasharray="1.2,0.8"/>
<line x1="65.924" y1="64.5" x2="71.503" y2="77.97" stroke="#8c8c8c" stroke-width="0.3" stroke-dasharray="1.2,0.8"/>
<line x1="48.612" y1="55.891" x2="43.032" y2="69.36" stroke="#8c8c8c" stroke-width="0.3" stroke-dasharray="1.2,0.8"/>
<line x1="60.344" y1="51.031" x2="65.924" y2="64.5" stroke="#8c8c8c" stroke-width="0.3" stroke-dasharray="1.2,0.8"/>
<line x1="54.765" y1="37.561" x2="60.344" y2="51.031" stroke="#8c8c8c" stroke-width="0.3" stroke-dasharray="1.2,0.8"/>
<line x1="29.563" y1="36.842" x2="43.032" y2="42.421" stroke="#8c8c8c" stroke-width="0.3" stroke-dasharray="1.2,0.8"/>
<line x1="49.186" y1="24.092" x2="54.765" y2="37.561" stroke="#8c8c8c" stroke-width="0.3" stroke-dasharray="1.2,0.8"/>
<line x1="16.093" y1="42.421" x2="29.563" y2="36.842" stroke="#8c8c8c" stroke-width="0.3" stroke-dasharray="1.2,0.8"/>
<line x1="43.606" y1="10.622" x2="49.186" y2="24.092" stroke="#8c8c8c" stroke-width="0.3" stroke-dasharray="1.2,0.8"/>
<line x1="43.606" y1="10.622" x2="31.874" y2="15.482" stroke="#8c8c8c" stroke-width="0.3" stroke-dasharray="1.2,0.8"/>
<line x1="70.929" y1="109.769" x2="65.35" y2="96.299" stroke="#141414" stroke-width="0.4"/>
<line x1="76.508" y1="123.239" x2="70.929" y2="109.769" stroke="#141414" stroke-width="0.4"/>
<line x1="96.131" y1="110.489" x2="82.662" y2="104.909" stroke="#141414" stroke-width="0.4"/>
<line x1="65.35" y1="96.299" x2="59.77" y2="82.83" stroke="#141414" stroke-width="0.4"/>
<line x1="77.082" y1="91.44" x2="82.662" y2="77.97" stroke="#141414" stroke-width="0.4"/>
<line x1="59.77" y1="82.83" x2="54.191" y2="69.36" stroke="#141414" stroke-width="0.4"/>
<line x1="82.662" y1="77.97" x2="96.131" y2="72.391" stroke="#141414" stroke-width="0.4"/>
<line x1="54.191" y1="69.36" x2="48.612" y2="55.891" stroke="#141414" stroke-width="0.4"/>
<line x1="96.131" y1="72.391" x2="109.601" y2="77.97" stroke="#141414" stroke-width="0.4"/>
<line x1="109.601" y1="77.97" x2="115.18" y2="91.44" stroke="#141414" stroke-width="0.4"/>
<line x1="43.032" y1="42.421" x2="37.453" y2="28.951" stroke="#141414" stroke-width="0.4"/>
<line x1="115.18" y1="91.44" x2="109.601" y2="104.909" stroke="#141414" stroke-width="0.4"/>
<line x1="37.453" y1="28.951" x2="31.874" y2="15.482" stroke="#141414" stroke-width="0.4"/>
<line x1="109.601" y1="104.909" x2="96.131" y2="110.489" stroke="#141414" stroke-width="0.4"/>
<line x1="88.241" y1="118.379" x2="76.508" y2="123.239" stroke="#141414" stroke-width="0.4"/>
<line x1="10.514" y1="55.891" x2="4.884" y2="60.59" stroke="#141414" stroke-width="0.4"/>
<line x1="4.884" y1="60.59" x2="8.789" y2="70.019" stroke="#141414" stroke-width="0.4"/>
<line x1="8.789" y1="70.019" x2="16.093" y2="69.36" stroke="#141414" stroke-width="0.4"/>
<line x1="10.514" y1="55.891" x2="4.884" y2="51.191" stroke="#141414" stroke-width="0.4"/>
<line x1="4.884" y1="51.191" x2="8.789" y2="41.763" stroke="#141414" stroke-width="0.4"/>
<line x1="8.789" y1="41.763" x2="16.093" y2="42.421" stroke="#141414" stroke-width="0.4"/>
<line x1="82.662" y1="104.909" x2="91.472" y2="107.888" stroke="#141414" stroke-width="0.4"/>
<line x1="91.472" y1="107.888" x2="92.365" y2="110.043" stroke="#141414" stroke-width="0.4"/>
<line x1="92.365" y1="110.043" x2="88.241" y2="118.379" stroke="#141414" stroke-width="0.4"/>
<line x1="16.093" y1="69.36" x2="15.435" y2="76.664" stroke="#141414" stroke-width="0.4"/>
<line x1="15.435" y1="76.664" x2="24.864" y2="80.57" stroke="#141414" stroke-width="0.4"/>
<line x1="24.864" y1="80.57" x2="29.563" y2="74.94" stroke="#141414" stroke-width="0.4"/>
<line x1="77.082" y1="91.44" x2="81.206" y2="83.104" stroke="#141414" stroke-width="0.4"/>
<line x1="81.206" y1="83.104" x2="80.314" y2="80.949" stroke="#141414" stroke-width="0.4"/>
<line x1="80.314" y1="80.949" x2="71.503" y2="77.97" stroke="#141414" stroke-width="0.4"/>
<line x1="29.563" y1="74.94" x2="34.262" y2="80.57" stroke="#141414" stroke-width="0.4"/>
<line x1="34.262" y1="80.57" x2="43.691" y2="76.664" stroke="#141414" stroke-width="0.4"/>
<line x1="43.691" y1="76.664" x2="43.032" y2="69.36" stroke="#141414" stroke-width="0.4"/>
<line x1="71.503" y1="77.97" x2="77.133" y2="73.271" stroke="#141414" stroke-width="0.4"/>
<line x1="77.133" y1="73.271" x2="73.228" y2="63.842" stroke="#141414" stroke-width="0.4"/>
<line x1="73.228" y1="63.842" x2="65.924" y2="64.5" stroke="#141414" stroke-width="0.4"/>
<line x1="43.032" y1="69.36" x2="51.843" y2="66.382" stroke="#141414" stroke-width="0.4"/>
<line x1="51.843" y1="66.382" x2="52.736" y2="64.227" stroke="#141414" stroke-width="0.4"/>
<line x1="52.736" y1="64.227" x2="48.612" y2="55.891" stroke="#141414" stroke-width="0.4"/>
<line x1="65.924" y1="64.5" x2="71.554" y2="59.801" stroke="#141414" stroke-width="0.4"/>
<line x1="71.554" y1="59.801" x2="67.648" y2="50.372" stroke="#141414" stroke-width="0.4"/>
<line x1="67.648" y1="50.372" x2="60.344" y2="51.031" stroke="#141414" stroke-width="0.4"/>
<line x1="60.344" y1="51.031" x2="65.975" y2="46.331" stroke="#141414" stroke-width="0.4"/>
<line x1="65.975" y1="46.331" x2="62.069" y2="36.903" stroke="#141414" stroke-width="0.4"/>
<line x1="62.069" y1="36.903" x2="54.765" y2="37.561" stroke="#141414" stroke-width="0.4"/>
<line x1="43.032" y1="42.421" x2="40.054" y2="33.611" stroke="#141414" stroke-width="0.4"/>
<line x1="40.054" y1="33.611" x2="37.899" y2="32.718" stroke="#141414" stroke-width="0.4"/>
<line x1="37.899" y1="32.718" x2="29.563" y2="36.842" stroke="#141414" stroke-width="0.4"/>
<line x1="54.765" y1="37.561" x2="60.395" y2="32.862" stroke="#141414" stroke-width="0.4"/>
<line x1="60.395" y1="32.862" x2="56.49" y2="23.433" stroke="#141414" stroke-width="0.4"/>
<line x1="56.49" y1="23.433" x2="49.186" y2="24.092" stroke="#141414" stroke-width="0.4"/>
<line x1="29.563" y1="36.842" x2="24.863" y2="31.211" stroke="#141414" stroke-width="0.4"/>
<line x1="24.863" y1="31.211" x2="15.435" y2="35.117" stroke="#141414" stroke-width="0.4"/>
<line x1="15.435" y1="35.117" x2="16.093" y2="42.421" stroke="#141414" stroke-width="0.4"/>
<line x1="49.186" y1="24.092" x2="54.816" y2="19.392" stroke="#141414" stroke-width="0.4"/>
<line x1="54.816" y1="19.392" x2="50.91" y2="9.963" stroke="#141414" stroke-width="0.4"/>
<line x1="50.91" y1="9.963" x2="43.606" y2="10.622" stroke="#141414" stroke-width="0.4"/>
<line x1="31.874" y1="15.482" x2="31.204" y2="8.886" stroke="#141414" stroke-width="0.4"/>
<line x1="31.204" y1="8.886" x2="39.417" y2="5.485" stroke="#141414" stroke-width="0.4"/>
<line x1="39.417" y1="5.485" x2="43.606" y2="10.622" stroke="#141414" stroke-width="0.4"/>
<circle cx="10.07" cy="63.965" r="1.90" fill="#ffe082" stroke="#464646" stroke-width="0.2"/>
<text x="10.07" y="64.87" font-size="2.58" text-anchor="middle" fill="#141414">46</text>
<circle cx="10.07" cy="47.816" r="1.90" fill="#ffe082" stroke="#464646" stroke-width="0.2"/>
<text x="10.07" y="48.72" font-size="2.58" text-anchor="middle" fill="#141414">47</text>
<circle cx="88.685" cy="110.305" r="1.90" fill="#ffe082" stroke="#464646" stroke-width="0.2"/>
<text x="88.685" y="111.21" font-size="2.58" text-anchor="middle" fill="#141414">48</text>
<circle cx="21.489" cy="75.383" r="1.90" fill="#ffe082" stroke="#464646" stroke-width="0.2"/>
<text x="21.489" y="76.29" font-size="2.58" text-anchor="middle" fill="#141414">49</text>
<circle cx="77.526" cy="83.366" r="1.90" fill="#ffe082" stroke="#464646" stroke-width="0.2"/>
<text x="77.526" y="84.27" font-size="2.58" text-anchor="middle" fill="#141414">50</text>
<circle cx="37.637" cy="75.383" r="1.90" fill="#ffe082" stroke="#464646" stroke-width="0.2"/>
<text x="37.637" y="76.29" font-size="2.58" text-anchor="middle" fill="#141414">51</text>
<circle cx="71.947" cy="69.896" r="1.90" fill="#ffe082" stroke="#464646" stroke-width="0.2"/>
<text x="71.947" y="70.80" font-size="2.58" text-anchor="middle" fill="#141414">52</text>
<circle cx="49.056" cy="63.965" r="1.90" fill="#ffe082" stroke="#464646" stroke-width="0.2"/>
<text x="49.056" y="64.87" font-size="2.58" text-anchor="middle" fill="#141414">53</text>
<circle cx="66.368" cy="56.426" r="1.90" fill="#ffe082" stroke="#464646" stroke-width="0.2"/>
<text x="66.368" y="57.33" font-size="2.58" text-anchor="middle" fill="#141414">54</text>
<circle cx="60.788" cy="42.957" r="1.90" fill="#ffe082" stroke="#464646" stroke-width="0.2"/>
<text x="60.788" y="43.86" font-size="2.58" text-anchor="middle" fill="#141414">55</text>
<circle cx="37.637" cy="36.398" r="1.90" fill="#ffe082" stroke="#464646" stroke-width="0.2"/>
<text x="37.637" y="37.30" font-size="2.58" text-anchor="middle" fill="#141414">56</text>
<circle cx="55.209" cy="29.487" r="1.90" fill="#ffe082" stroke="#464646" stroke-width="0.2"/>
<text x="55.209" y="30.39" font-size="2.58" text-anchor="middle" fill="#141414">57</text>
<circle cx="21.489" cy="36.398" r="1.90" fill="#ffe082" stroke="#464646" stroke-width="0.2"/>
<text x="21.489" y="37.30" font-size="2.58" text-anchor="middle" fill="#141414">58</text>
<circle cx="49.63" cy="16.017" r="1.90" fill="#ffe082" stroke="#464646" stroke-width="0.2"/>
<text x="49.63" y="16.92" font-size="2.58" text-anchor="middle" fill="#141414">59</text>
<circle cx="36.525" cy="10.119" r="1.90" fill="#ffe082" stroke="#464646" stroke-width="0.2"/>
<text x="36.525" y="11.02" font-size="2.58" text-anchor="middle" fill="#141414">60</text>
<circle cx="60.148" cy="128.854" r="4.6" fill="#eaf1fe" stroke="#2e78e6" stroke-width="0.3"/>
<text x="60.148" y="130.65400000000002" font-size="5.2" text-anchor="middle" fill="#14306e" font-weight="bold">6</text>
<polygon points="10.514,176.645 4.884,181.344 8.789,190.773 16.093,190.114" fill="rgb(216,216,216)"/>
<polygon points="10.514,176.645 4.884,171.946 8.789,162.517 16.093,163.175" fill="rgb(216,216,216)"/>
<polygon points="82.662,225.664 91.472,228.642 92.365,230.797 88.241,239.133" fill="rgb(216,216,216)"/>
<polygon points="16.093,190.114 15.435,197.418 24.864,201.324 29.563,195.694" fill="rgb(216,216,216)"/>
<polygon points="77.082,212.194 81.206,203.858 80.314,201.703 71.503,198.724" fill="rgb(216,216,216)"/>
<polygon points="29.563,195.694 34.262,201.324 43.691,197.418 43.032,190.114" fill="rgb(216,216,216)"/>
<polygon points="71.503,198.724 77.133,194.025 73.228,184.596 65.924,185.255" fill="rgb(216,216,216)"/>
<polygon points="43.032,190.114 51.843,187.136 52.736,184.981 48.612,176.645" fill="rgb(216,216,216)"/>
<polygon points="65.924,185.255 71.554,180.555 67.648,171.127 60.344,171.785" fill="rgb(216,216,216)"/>
<polygon points="60.344,171.785 65.975,167.086 62.069,157.657 54.765,158.315" fill="rgb(216,216,216)"/>
<polygon points="43.032,163.175 40.054,154.365 37.899,153.472 29.563,157.596" fill="rgb(216,216,216)"/>
<polygon points="54.765,158.315 60.395,153.616 56.49,144.187 49.186,144.846" fill="rgb(216,216,216)"/>
<polygon points="29.563,157.596 24.863,151.966 15.435,155.871 16.093,163.175" fill="rgb(216,216,216)"/>
<polygon points="49.186,144.846 54.816,140.147 50.91,130.718 43.606,131.376" fill="rgb(216,216,216)"/>
<polygon points="31.874,136.236 31.204,129.641 39.417,126.239 43.606,131.376" fill="rgb(216,216,216)"/>
<line x1="82.662" y1="225.663" x2="70.929" y2="230.523" stroke="#8c8c8c" stroke-width="0.3" stroke-dasharray="1.2,0.8"/>
<line x1="77.082" y1="212.194" x2="82.662" y2="225.663" stroke="#8c8c8c" stroke-width="0.3" stroke-dasharray="1.2,0.8"/>
<line x1="65.35" y1="217.054" x2="77.082" y2="212.194" stroke="#8c8c8c" stroke-width="0.3" stroke-dasharray="1.2,0.8"/>
<line x1="59.77" y1="203.584" x2="71.503" y2="198.724" stroke="#8c8c8c" stroke-width="0.3" stroke-dasharray="1.2,0.8"/>
<line x1="54.191" y1="190.114" x2="65.924" y2="185.255" stroke="#8c8c8c" stroke-width="0.3" stroke-dasharray="1.2,0.8"/>
<line x1="48.612" y1="176.645" x2="60.344" y2="171.785" stroke="#8c8c8c" stroke-width="0.3" stroke-dasharray="1.2,0.8"/>
<line x1="43.032" y1="163.175" x2="48.612" y2="176.645" stroke="#8c8c8c" stroke-width="0.3" stroke-dasharray="1.2,0.8"/>
<line x1="43.032" y1="163.175" x2="54.765" y2="158.315" stroke="#8c8c8c" stroke-width="0.3" stroke-dasharray="1.2,0.8"/>
<line x1="37.453" y1="149.706" x2="49.186" y2="144.846" stroke="#8c8c8c" stroke-width="0.3" stroke-dasharray="1.2,0.8"/>
<line x1="16.093" y1="190.114" x2="10.514" y2="176.645" stroke="#8c8c8c" stroke-width="0.3" stroke-dasharray="1.2,0.8"/>
<line x1="16.093" y1="163.175" x2="10.514" y2="176.645" stroke="#8c8c8c" stroke-width="0.3" stroke-dasharray="1.2,0.8"/>
<line x1="88.241" y1="239.133" x2="82.662" y2="225.664" stroke="#8c8c8c" stroke-width="0.3" stroke-dasharray="1.2,0.8"/>
<line x1="29.563" y1="195.694" x2="16.093" y2="190.114" stroke="#8c8c8c" stroke-width="0.3" stroke-dasharray="1.2,0.8"/>
<line x1="71.503" y1="198.724" x2="77.082" y2="212.194" stroke="#8c8c8c" stroke-width="0.3" stroke-dasharray="1.2,0.8"/>
<line x1="43.032" y1="190.114" x2="29.563" y2="195.694" stroke="#8c8c8c" stroke-width="0.3" stroke-dasharray="1.2,0.8"/>
<line x1="65.924" y1="185.255" x2="71.503" y2="198.724" stroke="#8c8c8c" stroke-width="0.3" stroke-dasharray="1.2,0.8"/>
<line x1="48.612" y1="176.645" x2="43.032" y2="190.114" stroke="#8c8c8c" stroke-width="0.3" stroke-dasharray="1.2,0.8"/>
<line x1="60.344" y1="171.785" x2="65.924" y2="185.255" stroke="#8c8c8c" stroke-width="0.3" stroke-dasharray="1.2,0.8"/>
<line x1="54.765" y1="158.315" x2="60.344" y2="171.785" stroke="#8c8c8c" stroke-width="0.3" stroke-dasharray="1.2,0.8"/>
<line x1="29.563" y1="157.596" x2="43.032" y2="163.175" stroke="#8c8c8c" stroke-width="0.3" stroke-dasharray="1.2,0.8"/>
<line x1="49.186" y1="144.846" x2="54.765" y2="158.315" stroke="#8c8c8c" stroke-width="0.3" stroke-dasharray="1.2,0.8"/>
<line x1="16.093" y1="163.175" x2="29.563" y2="157.596" stroke="#8c8c8c" stroke-width="0.3" stroke-dasharray="1.2,0.8"/>
<line x1="43.606" y1="131.376" x2="49.186" y2="144.846" stroke="#8c8c8c" stroke-width="0.3" stroke-dasharray="1.2,0.8"/>
<line x1="43.606" y1="131.376" x2="31.874" y2="136.236" stroke="#8c8c8c" stroke-width="0.3" stroke-dasharray="1.2,0.8"/>
<line x1="70.929" y1="230.523" x2="65.35" y2="217.054" stroke="#141414" stroke-width="0.4"/>
<line x1="76.508" y1="243.993" x2="70.929" y2="230.523" stroke="#141414" stroke-width="0.4"/>
<line x1="96.131" y1="231.243" x2="82.662" y2="225.663" stroke="#141414" stroke-width="0.4"/>
<line x1="65.35" y1="217.054" x2="59.77" y2="203.584" stroke="#141414" stroke-width="0.4"/>
<line x1="77.082" y1="212.194" x2="82.662" y2="198.724" stroke="#141414" stroke-width="0.4"/>
<line x1="59.77" y1="203.584" x2="54.191" y2="190.114" stroke="#141414" stroke-width="0.4"/>
<line x1="82.662" y1="198.724" x2="96.131" y2="193.145" stroke="#141414" stroke-width="0.4"/>
<line x1="54.191" y1="190.114" x2="48.612" y2="176.645" stroke="#141414" stroke-width="0.4"/>
<line x1="96.131" y1="193.145" x2="109.601" y2="198.724" stroke="#141414" stroke-width="0.4"/>
<line x1="109.601" y1="198.724" x2="115.18" y2="212.194" stroke="#141414" stroke-width="0.4"/>
<line x1="43.032" y1="163.175" x2="37.453" y2="149.706" stroke="#141414" stroke-width="0.4"/>
<line x1="115.18" y1="212.194" x2="109.601" y2="225.663" stroke="#141414" stroke-width="0.4"/>
<line x1="37.453" y1="149.706" x2="31.874" y2="136.236" stroke="#141414" stroke-width="0.4"/>
<line x1="109.601" y1="225.663" x2="96.131" y2="231.243" stroke="#141414" stroke-width="0.4"/>
<line x1="88.241" y1="239.133" x2="76.508" y2="243.993" stroke="#141414" stroke-width="0.4"/>
<line x1="10.514" y1="176.645" x2="4.884" y2="181.344" stroke="#141414" stroke-width="0.4"/>
<line x1="4.884" y1="181.344" x2="8.789" y2="190.773" stroke="#141414" stroke-width="0.4"/>
<line x1="8.789" y1="190.773" x2="16.093" y2="190.114" stroke="#141414" stroke-width="0.4"/>
<line x1="10.514" y1="176.645" x2="4.884" y2="171.946" stroke="#141414" stroke-width="0.4"/>
<line x1="4.884" y1="171.946" x2="8.789" y2="162.517" stroke="#141414" stroke-width="0.4"/>
<line x1="8.789" y1="162.517" x2="16.093" y2="163.175" stroke="#141414" stroke-width="0.4"/>
<line x1="82.662" y1="225.664" x2="91.472" y2="228.642" stroke="#141414" stroke-width="0.4"/>
<line x1="91.472" y1="228.642" x2="92.365" y2="230.797" stroke="#141414" stroke-width="0.4"/>
<line x1="92.365" y1="230.797" x2="88.241" y2="239.133" stroke="#141414" stroke-width="0.4"/>
<line x1="16.093" y1="190.114" x2="15.435" y2="197.418" stroke="#141414" stroke-width="0.4"/>
<line x1="15.435" y1="197.418" x2="24.864" y2="201.324" stroke="#141414" stroke-width="0.4"/>
<line x1="24.864" y1="201.324" x2="29.563" y2="195.694" stroke="#141414" stroke-width="0.4"/>
<line x1="77.082" y1="212.194" x2="81.206" y2="203.858" stroke="#141414" stroke-width="0.4"/>
<line x1="81.206" y1="203.858" x2="80.314" y2="201.703" stroke="#141414" stroke-width="0.4"/>
<line x1="80.314" y1="201.703" x2="71.503" y2="198.724" stroke="#141414" stroke-width="0.4"/>
<line x1="29.563" y1="195.694" x2="34.262" y2="201.324" stroke="#141414" stroke-width="0.4"/>
<line x1="34.262" y1="201.324" x2="43.691" y2="197.418" stroke="#141414" stroke-width="0.4"/>
<line x1="43.691" y1="197.418" x2="43.032" y2="190.114" stroke="#141414" stroke-width="0.4"/>
<line x1="71.503" y1="198.724" x2="77.133" y2="194.025" stroke="#141414" stroke-width="0.4"/>
<line x1="77.133" y1="194.025" x2="73.228" y2="184.596" stroke="#141414" stroke-width="0.4"/>
<line x1="73.228" y1="184.596" x2="65.924" y2="185.255" stroke="#141414" stroke-width="0.4"/>
<line x1="43.032" y1="190.114" x2="51.843" y2="187.136" stroke="#141414" stroke-width="0.4"/>
<line x1="51.843" y1="187.136" x2="52.736" y2="184.981" stroke="#141414" stroke-width="0.4"/>
<line x1="52.736" y1="184.981" x2="48.612" y2="176.645" stroke="#141414" stroke-width="0.4"/>
<line x1="65.924" y1="185.255" x2="71.554" y2="180.555" stroke="#141414" stroke-width="0.4"/>
<line x1="71.554" y1="180.555" x2="67.648" y2="171.127" stroke="#141414" stroke-width="0.4"/>
<line x1="67.648" y1="171.127" x2="60.344" y2="171.785" stroke="#141414" stroke-width="0.4"/>
<line x1="60.344" y1="171.785" x2="65.975" y2="167.086" stroke="#141414" stroke-width="0.4"/>
<line x1="65.975" y1="167.086" x2="62.069" y2="157.657" stroke="#141414" stroke-width="0.4"/>
<line x1="62.069" y1="157.657" x2="54.765" y2="158.315" stroke="#141414" stroke-width="0.4"/>
<line x1="43.032" y1="163.175" x2="40.054" y2="154.365" stroke="#141414" stroke-width="0.4"/>
<line x1="40.054" y1="154.365" x2="37.899" y2="153.472" stroke="#141414" stroke-width="0.4"/>
<line x1="37.899" y1="153.472" x2="29.563" y2="157.596" stroke="#141414" stroke-width="0.4"/>
<line x1="54.765" y1="158.315" x2="60.395" y2="153.616" stroke="#141414" stroke-width="0.4"/>
<line x1="60.395" y1="153.616" x2="56.49" y2="144.187" stroke="#141414" stroke-width="0.4"/>
<line x1="56.49" y1="144.187" x2="49.186" y2="144.846" stroke="#141414" stroke-width="0.4"/>
<line x1="29.563" y1="157.596" x2="24.863" y2="151.966" stroke="#141414" stroke-width="0.4"/>
<line x1="24.863" y1="151.966" x2="15.435" y2="155.871" stroke="#141414" stroke-width="0.4"/>
<line x1="15.435" y1="155.871" x2="16.093" y2="163.175" stroke="#141414" stroke-width="0.4"/>
<line x1="49.186" y1="144.846" x2="54.816" y2="140.147" stroke="#141414" stroke-width="0.4"/>
<line x1="54.816" y1="140.147" x2="50.91" y2="130.718" stroke="#141414" stroke-width="0.4"/>
<line x1="50.91" y1="130.718" x2="43.606" y2="131.376" stroke="#141414" stroke-width="0.4"/>
<line x1="31.874" y1="136.236" x2="31.204" y2="129.641" stroke="#141414" stroke-width="0.4"/>
<line x1="31.204" y1="129.641" x2="39.417" y2="126.239" stroke="#141414" stroke-width="0.4"/>
<line x1="39.417" y1="126.239" x2="43.606" y2="131.376" stroke="#141414" stroke-width="0.4"/>
<circle cx="10.07" cy="184.719" r="1.90" fill="#ffe082" stroke="#464646" stroke-width="0.2"/>
<text x="10.07" y="185.62" font-size="2.58" text-anchor="middle" fill="#141414">61</text>
<circle cx="10.07" cy="168.571" r="1.90" fill="#ffe082" stroke="#464646" stroke-width="0.2"/>
<text x="10.07" y="169.47" font-size="2.58" text-anchor="middle" fill="#141414">62</text>
<circle cx="88.685" cy="231.059" r="1.90" fill="#ffe082" stroke="#464646" stroke-width="0.2"/>
<text x="88.685" y="231.96" font-size="2.58" text-anchor="middle" fill="#141414">63</text>
<circle cx="21.489" cy="196.138" r="1.90" fill="#ffe082" stroke="#464646" stroke-width="0.2"/>
<text x="21.489" y="197.04" font-size="2.58" text-anchor="middle" fill="#141414">64</text>
<circle cx="77.526" cy="204.12" r="1.90" fill="#ffe082" stroke="#464646" stroke-width="0.2"/>
<text x="77.526" y="205.02" font-size="2.58" text-anchor="middle" fill="#141414">65</text>
<circle cx="37.637" cy="196.138" r="1.90" fill="#ffe082" stroke="#464646" stroke-width="0.2"/>
<text x="37.637" y="197.04" font-size="2.58" text-anchor="middle" fill="#141414">66</text>
<circle cx="71.947" cy="190.65" r="1.90" fill="#ffe082" stroke="#464646" stroke-width="0.2"/>
<text x="71.947" y="191.55" font-size="2.58" text-anchor="middle" fill="#141414">67</text>
<circle cx="49.056" cy="184.719" r="1.90" fill="#ffe082" stroke="#464646" stroke-width="0.2"/>
<text x="49.056" y="185.62" font-size="2.58" text-anchor="middle" fill="#141414">68</text>
<circle cx="66.368" cy="177.18" r="1.90" fill="#ffe082" stroke="#464646" stroke-width="0.2"/>
<text x="66.368" y="178.08" font-size="2.58" text-anchor="middle" fill="#141414">69</text>
<circle cx="60.788" cy="163.711" r="1.90" fill="#ffe082" stroke="#464646" stroke-width="0.2"/>
<text x="60.788" y="164.61" font-size="2.58" text-anchor="middle" fill="#141414">70</text>
<circle cx="37.637" cy="157.152" r="1.90" fill="#ffe082" stroke="#464646" stroke-width="0.2"/>
<text x="37.637" y="158.05" font-size="2.58" text-anchor="middle" fill="#141414">71</text>
<circle cx="55.209" cy="150.241" r="1.90" fill="#ffe082" stroke="#464646" stroke-width="0.2"/>
<text x="55.209" y="151.14" font-size="2.58" text-anchor="middle" fill="#141414">72</text>
<circle cx="21.489" cy="157.152" r="1.90" fill="#ffe082" stroke="#464646" stroke-width="0.2"/>
<text x="21.489" y="158.05" font-size="2.58" text-anchor="middle" fill="#141414">73</text>
<circle cx="49.63" cy="136.772" r="1.90" fill="#ffe082" stroke="#464646" stroke-width="0.2"/>
<text x="49.63" y="137.67" font-size="2.58" text-anchor="middle" fill="#141414">74</text>
<circle cx="36.525" cy="130.873" r="1.90" fill="#ffe082" stroke="#464646" stroke-width="0.2"/>
<text x="36.525" y="131.78" font-size="2.58" text-anchor="middle" fill="#141414">75</text>
<circle cx="60.148" cy="119.654" r="4.6" fill="#eaf1fe" stroke="#2e78e6" stroke-width="0.3"/>
<text x="60.148" y="121.454" font-size="5.2" text-anchor="middle" fill="#14306e" font-weight="bold">7</text>
<g pointer-events="none"><text x="105.0" y="83.2" text-anchor="middle" font-family="sans-serif" font-size="12.4" fill="#9aa0a6" fill-opacity="0.3" transform="rotate(-28 105.0 83.2)">papercraft.kr</text><text x="105.0" y="148.5" text-anchor="middle" font-family="sans-serif" font-size="12.4" fill="#9aa0a6" fill-opacity="0.3" transform="rotate(-28 105.0 148.5)">papercraft.kr</text><text x="105.0" y="213.8" text-anchor="middle" font-family="sans-serif" font-size="12.4" fill="#9aa0a6" fill-opacity="0.3" transform="rotate(-28 105.0 213.8)">papercraft.kr</text></g></svg>
