<svg xmlns="http://www.w3.org/2000/svg" xmlns:xlink="http://www.w3.org/1999/xlink" width="210.00mm" height="297.00mm" viewBox="0 0 210.00 297.00">
<rect x="0" y="0" width="210.00" height="297.00" fill="#ffffff" stroke="#cccccc" stroke-width="0.2"/>
<polygon points="50.588,20.655 47.543,13.801 56.432,4.911 63.287,7.956" fill="rgb(216,216,216)"/>
<polygon points="20.655,50.588 17.61,57.442 26.5,66.332 33.354,63.287" fill="rgb(216,216,216)"/>
<polygon points="20.655,50.588 13.8,53.633 4.911,44.743 7.956,37.888" fill="rgb(216,216,216)"/>
<polygon points="63.287,33.354 70.142,36.399 79.031,27.51 75.986,20.655" fill="rgb(216,216,216)"/>
<polygon points="33.354,63.287 30.31,70.141 39.199,79.031 46.054,75.986" fill="rgb(216,216,216)"/>
<polygon points="75.986,20.655 79.031,13.8 70.142,4.911 63.287,7.956" fill="rgb(216,216,216)"/>
<polygon points="88.686,58.753 89.145,68.193 68.193,89.145 58.753,88.686" fill="rgb(216,216,216)"/>
<polygon points="50.588,20.655 47.543,13.801 56.432,4.911 63.287,7.956" fill="#99d9fa"/>
<line x1="20.655" y1="50.588" x2="50.588" y2="20.655" stroke="#8c8c8c" stroke-width="0.3" stroke-dasharray="1.2,0.8"/>
<line x1="63.287" y1="33.355" x2="50.588" y2="20.655" stroke="#8c8c8c" stroke-width="0.3" stroke-dasharray="1.2,0.8"/>
<line x1="63.287" y1="33.355" x2="33.355" y2="63.287" stroke="#8c8c8c" stroke-width="0.3" stroke-dasharray="1.2,0.8"/>
<line x1="75.986" y1="46.054" x2="46.054" y2="75.986" stroke="#8c8c8c" stroke-width="0.3" stroke-dasharray="1.2,0.8"/>
<line x1="58.753" y1="88.686" x2="46.054" y2="75.986" stroke="#8c8c8c" stroke-width="0.3" stroke-dasharray="1.2,0.8"/>
<line x1="63.287" y1="7.956" x2="50.588" y2="20.655" stroke="#8c8c8c" stroke-width="0.3" stroke-dasharray="1.2,0.8"/>
<line x1="33.354" y1="63.287" x2="20.655" y2="50.588" stroke="#8c8c8c" stroke-width="0.3" stroke-dasharray="1.2,0.8"/>
<line x1="7.956" y1="37.888" x2="20.655" y2="50.588" stroke="#8c8c8c" stroke-width="0.3" stroke-dasharray="1.2,0.8"/>
<line x1="75.986" y1="20.655" x2="63.287" y2="33.354" stroke="#8c8c8c" stroke-width="0.3" stroke-dasharray="1.2,0.8"/>
<line x1="46.054" y1="75.986" x2="33.354" y2="63.287" stroke="#8c8c8c" stroke-width="0.3" stroke-dasharray="1.2,0.8"/>
<line x1="63.287" y1="7.956" x2="75.986" y2="20.655" stroke="#8c8c8c" stroke-width="0.3" stroke-dasharray="1.2,0.8"/>
<line x1="58.753" y1="88.686" x2="88.686" y2="58.753" stroke="#8c8c8c" stroke-width="0.3" stroke-dasharray="1.2,0.8"/>
<line x1="37.888" y1="7.956" x2="50.588" y2="20.655" stroke="#141414" stroke-width="0.4"/>
<line x1="46.054" y1="101.385" x2="33.355" y2="88.686" stroke="#141414" stroke-width="0.4"/>
<line x1="58.753" y1="88.686" x2="46.054" y2="101.385" stroke="#141414" stroke-width="0.4"/>
<line x1="63.287" y1="33.355" x2="75.986" y2="46.054" stroke="#141414" stroke-width="0.4"/>
<line x1="33.355" y1="88.686" x2="46.054" y2="75.986" stroke="#141414" stroke-width="0.4"/>
<line x1="75.986" y1="46.054" x2="88.686" y2="58.753" stroke="#141414" stroke-width="0.4"/>
<line x1="7.956" y1="37.888" x2="37.888" y2="7.956" stroke="#141414" stroke-width="0.4"/>
<line x1="50.588" y1="20.655" x2="47.543" y2="13.801" stroke="#141414" stroke-width="0.4"/>
<line x1="47.543" y1="13.801" x2="56.432" y2="4.911" stroke="#141414" stroke-width="0.4"/>
<line x1="56.432" y1="4.911" x2="63.287" y2="7.956" stroke="#141414" stroke-width="0.4"/>
<line x1="20.655" y1="50.588" x2="17.61" y2="57.442" stroke="#141414" stroke-width="0.4"/>
<line x1="17.61" y1="57.442" x2="26.5" y2="66.332" stroke="#141414" stroke-width="0.4"/>
<line x1="26.5" y1="66.332" x2="33.354" y2="63.287" stroke="#141414" stroke-width="0.4"/>
<line x1="20.655" y1="50.588" x2="13.8" y2="53.633" stroke="#141414" stroke-width="0.4"/>
<line x1="13.8" y1="53.633" x2="4.911" y2="44.743" stroke="#141414" stroke-width="0.4"/>
<line x1="4.911" y1="44.743" x2="7.956" y2="37.888" stroke="#141414" stroke-width="0.4"/>
<line x1="63.287" y1="33.354" x2="70.142" y2="36.399" stroke="#141414" stroke-width="0.4"/>
<line x1="70.142" y1="36.399" x2="79.031" y2="27.51" stroke="#141414" stroke-width="0.4"/>
<line x1="79.031" y1="27.51" x2="75.986" y2="20.655" stroke="#141414" stroke-width="0.4"/>
<line x1="33.354" y1="63.287" x2="30.31" y2="70.141" stroke="#141414" stroke-width="0.4"/>
<line x1="30.31" y1="70.141" x2="39.199" y2="79.031" stroke="#141414" stroke-width="0.4"/>
<line x1="39.199" y1="79.031" x2="46.054" y2="75.986" stroke="#141414" stroke-width="0.4"/>
<line x1="75.986" y1="20.655" x2="79.031" y2="13.8" stroke="#141414" stroke-width="0.4"/>
<line x1="79.031" y1="13.8" x2="70.142" y2="4.911" stroke="#141414" stroke-width="0.4"/>
<line x1="70.142" y1="4.911" x2="63.287" y2="7.956" stroke="#141414" stroke-width="0.4"/>
<line x1="88.686" y1="58.753" x2="89.145" y2="68.193" stroke="#141414" stroke-width="0.4"/>
<line x1="89.145" y1="68.193" x2="68.193" y2="89.145" stroke="#141414" stroke-width="0.4"/>
<line x1="68.193" y1="89.145" x2="58.753" y2="88.686" stroke="#141414" stroke-width="0.4"/>
<circle cx="54.462" cy="11.831" r="2.64" fill="#99d9fa" stroke="#464646" stroke-width="0.2"/>
<text x="54.462" y="13.08" font-size="3.58" text-anchor="middle" fill="#141414">16</text>
<circle cx="24.53" cy="59.412" r="2.64" fill="#ffe082" stroke="#464646" stroke-width="0.2"/>
<text x="24.53" y="60.66" font-size="3.58" text-anchor="middle" fill="#141414">17</text>
<circle cx="11.831" cy="46.713" r="2.64" fill="#ffe082" stroke="#464646" stroke-width="0.2"/>
<text x="11.831" y="47.96" font-size="3.58" text-anchor="middle" fill="#141414">18</text>
<circle cx="72.112" cy="29.48" r="2.64" fill="#ffe082" stroke="#464646" stroke-width="0.2"/>
<text x="72.112" y="30.73" font-size="3.58" text-anchor="middle" fill="#141414">19</text>
<circle cx="37.229" cy="72.111" r="2.64" fill="#ffe082" stroke="#464646" stroke-width="0.2"/>
<text x="37.229" y="73.36" font-size="3.58" text-anchor="middle" fill="#141414">20</text>
<circle cx="72.112" cy="11.831" r="2.64" fill="#ffe082" stroke="#464646" stroke-width="0.2"/>
<text x="72.112" y="13.08" font-size="3.58" text-anchor="middle" fill="#141414">21</text>
<circle cx="76.194" cy="76.194" r="2.64" fill="#ffe082" stroke="#464646" stroke-width="0.2"/>
<text x="76.194" y="77.45" font-size="3.58" text-anchor="middle" fill="#141414">22</text>
<circle cx="70.242" cy="60.264" r="4.41" fill="#eaf1fe" stroke="#2e78e6" stroke-width="0.3"/>
<text x="70.242" y="61.99" font-size="4.98" text-anchor="middle" fill="#14306e" font-weight="bold">4</text>
<polygon points="10.514,155.365 4.884,160.064 8.789,169.493 16.093,168.834" fill="rgb(216,216,216)"/>
<polygon points="10.514,155.365 4.884,150.666 8.789,141.237 16.093,141.895" fill="rgb(216,216,216)"/>
<polygon points="82.662,204.383 90.685,207.688 91.578,209.843 88.241,217.853" fill="rgb(216,216,216)"/>
<polygon points="16.093,168.834 15.435,176.138 24.864,180.044 29.563,174.414" fill="rgb(216,216,216)"/>
<polygon points="77.082,190.914 80.419,182.904 79.527,180.749 71.503,177.444" fill="rgb(216,216,216)"/>
<polygon points="29.563,174.414 34.262,180.044 43.691,176.138 43.032,168.834" fill="rgb(216,216,216)"/>
<polygon points="71.503,177.444 77.133,172.745 73.228,163.316 65.924,163.974" fill="rgb(216,216,216)"/>
<polygon points="43.032,168.834 51.052,165.528 51.945,163.373 48.612,155.365" fill="rgb(216,216,216)"/>
<polygon points="65.924,163.974 71.554,159.275 67.648,149.846 60.344,150.505" fill="rgb(216,216,216)"/>
<polygon points="60.344,150.505 65.975,145.805 62.069,136.377 54.765,137.035" fill="rgb(216,216,216)"/>
<polygon points="43.032,141.895 39.727,133.876 37.571,132.983 29.563,136.316" fill="rgb(216,216,216)"/>
<polygon points="54.765,137.035 60.395,132.336 56.49,122.907 49.186,123.566" fill="rgb(216,216,216)"/>
<polygon points="29.563,136.316 24.863,130.685 15.435,134.591 16.093,141.895" fill="rgb(216,216,216)"/>
<polygon points="49.186,123.566 54.816,118.866 50.91,109.438 43.606,110.096" fill="rgb(216,216,216)"/>
<polygon points="31.874,114.956 31.204,108.36 39.417,104.959 43.606,110.096" fill="rgb(216,216,216)"/>
<polygon points="43.032,141.895 39.727,133.876 37.571,132.983 29.563,136.316" fill="#99d9fa"/>
<line x1="82.662" y1="204.383" x2="70.929" y2="209.243" stroke="#8c8c8c" stroke-width="0.3" stroke-dasharray="1.2,0.8"/>
<line x1="77.082" y1="190.914" x2="82.662" y2="204.383" stroke="#8c8c8c" stroke-width="0.3" stroke-dasharray="1.2,0.8"/>
<line x1="65.35" y1="195.774" x2="77.082" y2="190.914" stroke="#8c8c8c" stroke-width="0.3" stroke-dasharray="1.2,0.8"/>
<line x1="59.77" y1="182.304" x2="71.503" y2="177.444" stroke="#8c8c8c" stroke-width="0.3" stroke-dasharray="1.2,0.8"/>
<line x1="54.191" y1="168.834" x2="65.924" y2="163.974" stroke="#8c8c8c" stroke-width="0.3" stroke-dasharray="1.2,0.8"/>
<line x1="48.612" y1="155.365" x2="60.344" y2="150.505" stroke="#8c8c8c" stroke-width="0.3" stroke-dasharray="1.2,0.8"/>
<line x1="43.032" y1="141.895" x2="48.612" y2="155.365" stroke="#8c8c8c" stroke-width="0.3" stroke-dasharray="1.2,0.8"/>
<line x1="43.032" y1="141.895" x2="54.765" y2="137.035" stroke="#8c8c8c" stroke-width="0.3" stroke-dasharray="1.2,0.8"/>
<line x1="37.453" y1="128.425" x2="49.186" y2="123.566" stroke="#8c8c8c" stroke-width="0.3" stroke-dasharray="1.2,0.8"/>
<line x1="16.093" y1="168.834" x2="10.514" y2="155.365" stroke="#8c8c8c" stroke-width="0.3" stroke-dasharray="1.2,0.8"/>
<line x1="16.093" y1="141.895" x2="10.514" y2="155.365" stroke="#8c8c8c" stroke-width="0.3" stroke-dasharray="1.2,0.8"/>
<line x1="88.241" y1="217.853" x2="82.662" y2="204.383" stroke="#8c8c8c" stroke-width="0.3" stroke-dasharray="1.2,0.8"/>
<line x1="29.563" y1="174.414" x2="16.093" y2="168.834" stroke="#8c8c8c" stroke-width="0.3" stroke-dasharray="1.2,0.8"/>
<line x1="71.503" y1="177.444" x2="77.082" y2="190.914" stroke="#8c8c8c" stroke-width="0.3" stroke-dasharray="1.2,0.8"/>
<line x1="43.032" y1="168.834" x2="29.563" y2="174.414" stroke="#8c8c8c" stroke-width="0.3" stroke-dasharray="1.2,0.8"/>
<line x1="65.924" y1="163.974" x2="71.503" y2="177.444" stroke="#8c8c8c" stroke-width="0.3" stroke-dasharray="1.2,0.8"/>
<line x1="48.612" y1="155.365" x2="43.032" y2="168.834" stroke="#8c8c8c" stroke-width="0.3" stroke-dasharray="1.2,0.8"/>
<line x1="60.344" y1="150.505" x2="65.924" y2="163.974" stroke="#8c8c8c" stroke-width="0.3" stroke-dasharray="1.2,0.8"/>
<line x1="54.765" y1="137.035" x2="60.344" y2="150.505" stroke="#8c8c8c" stroke-width="0.3" stroke-dasharray="1.2,0.8"/>
<line x1="29.563" y1="136.316" x2="43.032" y2="141.895" stroke="#8c8c8c" stroke-width="0.3" stroke-dasharray="1.2,0.8"/>
<line x1="49.186" y1="123.566" x2="54.765" y2="137.035" stroke="#8c8c8c" stroke-width="0.3" stroke-dasharray="1.2,0.8"/>
<line x1="16.093" y1="141.895" x2="29.563" y2="136.316" stroke="#8c8c8c" stroke-width="0.3" stroke-dasharray="1.2,0.8"/>
<line x1="43.606" y1="110.096" x2="49.186" y2="123.566" stroke="#8c8c8c" stroke-width="0.3" stroke-dasharray="1.2,0.8"/>
<line x1="43.606" y1="110.096" x2="31.874" y2="114.956" stroke="#8c8c8c" stroke-width="0.3" stroke-dasharray="1.2,0.8"/>
<line x1="70.929" y1="209.243" x2="65.35" y2="195.774" stroke="#141414" stroke-width="0.4"/>
<line x1="76.508" y1="222.713" x2="70.929" y2="209.243" stroke="#141414" stroke-width="0.4"/>
<line x1="96.131" y1="209.963" x2="82.662" y2="204.383" stroke="#141414" stroke-width="0.4"/>
<line x1="65.35" y1="195.774" x2="59.77" y2="182.304" stroke="#141414" stroke-width="0.4"/>
<line x1="77.082" y1="190.914" x2="82.662" y2="177.444" stroke="#141414" stroke-width="0.4"/>
<line x1="59.77" y1="182.304" x2="54.191" y2="168.834" stroke="#141414" stroke-width="0.4"/>
<line x1="82.662" y1="177.444" x2="96.131" y2="171.865" stroke="#141414" stroke-width="0.4"/>
<line x1="54.191" y1="168.834" x2="48.612" y2="155.365" stroke="#141414" stroke-width="0.4"/>
<line x1="96.131" y1="171.865" x2="109.601" y2="177.444" stroke="#141414" stroke-width="0.4"/>
<line x1="109.601" y1="177.444" x2="115.18" y2="190.914" stroke="#141414" stroke-width="0.4"/>
<line x1="43.032" y1="141.895" x2="37.453" y2="128.425" stroke="#141414" stroke-width="0.4"/>
<line x1="115.18" y1="190.914" x2="109.601" y2="204.383" stroke="#141414" stroke-width="0.4"/>
<line x1="37.453" y1="128.425" x2="31.874" y2="114.956" stroke="#141414" stroke-width="0.4"/>
<line x1="109.601" y1="204.383" x2="96.131" y2="209.963" stroke="#141414" stroke-width="0.4"/>
<line x1="88.241" y1="217.853" x2="76.508" y2="222.713" stroke="#141414" stroke-width="0.4"/>
<line x1="10.514" y1="155.365" x2="4.884" y2="160.064" stroke="#141414" stroke-width="0.4"/>
<line x1="4.884" y1="160.064" x2="8.789" y2="169.493" stroke="#141414" stroke-width="0.4"/>
<line x1="8.789" y1="169.493" x2="16.093" y2="168.834" stroke="#141414" stroke-width="0.4"/>
<line x1="10.514" y1="155.365" x2="4.884" y2="150.666" stroke="#141414" stroke-width="0.4"/>
<line x1="4.884" y1="150.666" x2="8.789" y2="141.237" stroke="#141414" stroke-width="0.4"/>
<line x1="8.789" y1="141.237" x2="16.093" y2="141.895" stroke="#141414" stroke-width="0.4"/>
<line x1="82.662" y1="204.383" x2="90.685" y2="207.688" stroke="#141414" stroke-width="0.4"/>
<line x1="90.685" y1="207.688" x2="91.578" y2="209.843" stroke="#141414" stroke-width="0.4"/>
<line x1="91.578" y1="209.843" x2="88.241" y2="217.853" stroke="#141414" stroke-width="0.4"/>
<line x1="16.093" y1="168.834" x2="15.435" y2="176.138" stroke="#141414" stroke-width="0.4"/>
<line x1="15.435" y1="176.138" x2="24.864" y2="180.044" stroke="#141414" stroke-width="0.4"/>
<line x1="24.864" y1="180.044" x2="29.563" y2="174.414" stroke="#141414" stroke-width="0.4"/>
<line x1="77.082" y1="190.914" x2="80.419" y2="182.904" stroke="#141414" stroke-width="0.4"/>
<line x1="80.419" y1="182.904" x2="79.527" y2="180.749" stroke="#141414" stroke-width="0.4"/>
<line x1="79.527" y1="180.749" x2="71.503" y2="177.444" stroke="#141414" stroke-width="0.4"/>
<line x1="29.563" y1="174.414" x2="34.262" y2="180.044" stroke="#141414" stroke-width="0.4"/>
<line x1="34.262" y1="180.044" x2="43.691" y2="176.138" stroke="#141414" stroke-width="0.4"/>
<line x1="43.691" y1="176.138" x2="43.032" y2="168.834" stroke="#141414" stroke-width="0.4"/>
<line x1="71.503" y1="177.444" x2="77.133" y2="172.745" stroke="#141414" stroke-width="0.4"/>
<line x1="77.133" y1="172.745" x2="73.228" y2="163.316" stroke="#141414" stroke-width="0.4"/>
<line x1="73.228" y1="163.316" x2="65.924" y2="163.974" stroke="#141414" stroke-width="0.4"/>
<line x1="43.032" y1="168.834" x2="51.052" y2="165.528" stroke="#141414" stroke-width="0.4"/>
<line x1="51.052" y1="165.528" x2="51.945" y2="163.373" stroke="#141414" stroke-width="0.4"/>
<line x1="51.945" y1="163.373" x2="48.612" y2="155.365" stroke="#141414" stroke-width="0.4"/>
<line x1="65.924" y1="163.974" x2="71.554" y2="159.275" stroke="#141414" stroke-width="0.4"/>
<line x1="71.554" y1="159.275" x2="67.648" y2="149.846" stroke="#141414" stroke-width="0.4"/>
<line x1="67.648" y1="149.846" x2="60.344" y2="150.505" stroke="#141414" stroke-width="0.4"/>
<line x1="60.344" y1="150.505" x2="65.975" y2="145.805" stroke="#141414" stroke-width="0.4"/>
<line x1="65.975" y1="145.805" x2="62.069" y2="136.377" stroke="#141414" stroke-width="0.4"/>
<line x1="62.069" y1="136.377" x2="54.765" y2="137.035" stroke="#141414" stroke-width="0.4"/>
<line x1="43.032" y1="141.895" x2="39.727" y2="133.876" stroke="#141414" stroke-width="0.4"/>
<line x1="39.727" y1="133.876" x2="37.571" y2="132.983" stroke="#141414" stroke-width="0.4"/>
<line x1="37.571" y1="132.983" x2="29.563" y2="136.316" stroke="#141414" stroke-width="0.4"/>
<line x1="54.765" y1="137.035" x2="60.395" y2="132.336" stroke="#141414" stroke-width="0.4"/>
<line x1="60.395" y1="132.336" x2="56.49" y2="122.907" stroke="#141414" stroke-width="0.4"/>
<line x1="56.49" y1="122.907" x2="49.186" y2="123.566" stroke="#141414" stroke-width="0.4"/>
<line x1="29.563" y1="136.316" x2="24.863" y2="130.685" stroke="#141414" stroke-width="0.4"/>
<line x1="24.863" y1="130.685" x2="15.435" y2="134.591" stroke="#141414" stroke-width="0.4"/>
<line x1="15.435" y1="134.591" x2="16.093" y2="141.895" stroke="#141414" stroke-width="0.4"/>
<line x1="49.186" y1="123.566" x2="54.816" y2="118.866" stroke="#141414" stroke-width="0.4"/>
<line x1="54.816" y1="118.866" x2="50.91" y2="109.438" stroke="#141414" stroke-width="0.4"/>
<line x1="50.91" y1="109.438" x2="43.606" y2="110.096" stroke="#141414" stroke-width="0.4"/>
<line x1="31.874" y1="114.956" x2="31.204" y2="108.36" stroke="#141414" stroke-width="0.4"/>
<line x1="31.204" y1="108.36" x2="39.417" y2="104.959" stroke="#141414" stroke-width="0.4"/>
<line x1="39.417" y1="104.959" x2="43.606" y2="110.096" stroke="#141414" stroke-width="0.4"/>
<circle cx="10.07" cy="163.439" r="2.64" fill="#ffe082" stroke="#464646" stroke-width="0.2"/>
<text x="10.07" y="164.69" font-size="3.58" text-anchor="middle" fill="#141414">23</text>
<circle cx="10.07" cy="147.29" r="2.64" fill="#ffe082" stroke="#464646" stroke-width="0.2"/>
<text x="10.07" y="148.54" font-size="3.58" text-anchor="middle" fill="#141414">24</text>
<circle cx="88.291" cy="209.942" r="2.64" fill="#ffe082" stroke="#464646" stroke-width="0.2"/>
<text x="88.291" y="211.19" font-size="3.58" text-anchor="middle" fill="#141414">25</text>
<circle cx="21.489" cy="174.857" r="2.64" fill="#ffe082" stroke="#464646" stroke-width="0.2"/>
<text x="21.489" y="176.11" font-size="3.58" text-anchor="middle" fill="#141414">26</text>
<circle cx="77.133" cy="183.002" r="2.64" fill="#ffe082" stroke="#464646" stroke-width="0.2"/>
<text x="77.133" y="184.25" font-size="3.58" text-anchor="middle" fill="#141414">27</text>
<circle cx="37.637" cy="174.857" r="2.64" fill="#ffe082" stroke="#464646" stroke-width="0.2"/>
<text x="37.637" y="176.11" font-size="3.58" text-anchor="middle" fill="#141414">28</text>
<circle cx="71.947" cy="169.37" r="2.64" fill="#ffe082" stroke="#464646" stroke-width="0.2"/>
<text x="71.947" y="170.62" font-size="3.58" text-anchor="middle" fill="#141414">29</text>
<circle cx="48.66" cy="163.275" r="2.64" fill="#ffe082" stroke="#464646" stroke-width="0.2"/>
<text x="48.66" y="164.53" font-size="3.58" text-anchor="middle" fill="#141414">30</text>
<circle cx="66.368" cy="155.9" r="2.64" fill="#ffe082" stroke="#464646" stroke-width="0.2"/>
<text x="66.368" y="157.15" font-size="3.58" text-anchor="middle" fill="#141414">31</text>
<circle cx="60.788" cy="142.431" r="2.64" fill="#ffe082" stroke="#464646" stroke-width="0.2"/>
<text x="60.788" y="143.68" font-size="3.58" text-anchor="middle" fill="#141414">32</text>
<circle cx="37.473" cy="136.267" r="2.64" fill="#99d9fa" stroke="#464646" stroke-width="0.2"/>
<text x="37.473" y="137.52" font-size="3.58" text-anchor="middle" fill="#141414">33</text>
<circle cx="55.209" cy="128.961" r="2.64" fill="#ffe082" stroke="#464646" stroke-width="0.2"/>
<text x="55.209" y="130.21" font-size="3.58" text-anchor="middle" fill="#141414">34</text>
<circle cx="21.489" cy="135.872" r="2.64" fill="#ffe082" stroke="#464646" stroke-width="0.2"/>
<text x="21.489" y="137.12" font-size="3.58" text-anchor="middle" fill="#141414">35</text>
<circle cx="49.63" cy="115.491" r="2.64" fill="#ffe082" stroke="#464646" stroke-width="0.2"/>
<text x="49.63" y="116.74" font-size="3.58" text-anchor="middle" fill="#141414">36</text>
<circle cx="36.525" cy="109.593" r="2.64" fill="#ffe082" stroke="#464646" stroke-width="0.2"/>
<text x="36.525" y="110.84" font-size="3.58" text-anchor="middle" fill="#141414">37</text>
<circle cx="47.135" cy="129.675" r="2.55" fill="#eaf1fe" stroke="#2e78e6" stroke-width="0.3"/>
<text x="47.135" y="130.67" font-size="2.89" text-anchor="middle" fill="#14306e" font-weight="bold">5</text>
<text x="205.0" y="295.0" font-size="3.2" text-anchor="end" fill="#737373" font-family="sans-serif">4 / 6</text>
<g pointer-events="none"><text x="105.0" y="83.2" text-anchor="middle" font-family="sans-serif" font-size="12.4" fill="#9aa0a6" fill-opacity="0.3" transform="rotate(-28 105.0 83.2)">papercraft.kr</text><text x="105.0" y="148.5" text-anchor="middle" font-family="sans-serif" font-size="12.4" fill="#9aa0a6" fill-opacity="0.3" transform="rotate(-28 105.0 148.5)">papercraft.kr</text><text x="105.0" y="213.8" text-anchor="middle" font-family="sans-serif" font-size="12.4" fill="#9aa0a6" fill-opacity="0.3" transform="rotate(-28 105.0 213.8)">papercraft.kr</text></g></svg>
