<svg xmlns="http://www.w3.org/2000/svg" xmlns:xlink="http://www.w3.org/1999/xlink" width="210.00mm" height="297.00mm" viewBox="0 0 210.00 297.00">
<rect x="0" y="0" width="210.00" height="297.00" fill="#ffffff" stroke="#cccccc" stroke-width="0.2"/>
<polygon points="102.064,116.726 109.064,129.991 109.064,191.897 102.064,205.162" fill="rgb(216,216,216)"/>
<polygon points="93.436,116.726 86.436,114.073 86.436,101.692 93.436,99.039" fill="rgb(216,216,216)"/>
<polygon points="93.436,116.726 86.436,129.991 86.436,191.897 93.436,205.162" fill="rgb(216,216,216)"/>
<polygon points="102.064,99.039 115.329,92.039 177.234,92.039 190.5,99.039" fill="rgb(216,216,216)"/>
<polygon points="5.0,222.849 18.265,229.849 80.171,229.849 93.436,222.849" fill="rgb(216,216,216)"/>
<polygon points="190.5,116.726 197.5,114.073 197.5,101.692 190.5,99.039" fill="rgb(216,216,216)"/>
<polygon points="102.064,10.602 100.77,6.289 94.73,6.289 93.436,10.602" fill="rgb(216,216,216)"/>
<polygon points="102.064,116.726 109.064,129.991 109.064,191.897 102.064,205.162" fill="#99d9fa"/>
<line x1="102.064" y1="116.726" x2="93.436" y2="116.726" stroke="#8c8c8c" stroke-width="0.3" stroke-dasharray="1.2,0.8"/>
<line x1="102.064" y1="99.039" x2="102.064" y2="116.726" stroke="#8c8c8c" stroke-width="0.3" stroke-dasharray="1.2,0.8"/>
<line x1="93.436" y1="99.039" x2="102.064" y2="99.039" stroke="#8c8c8c" stroke-width="0.3" stroke-dasharray="1.2,0.8"/>
<line x1="102.064" y1="205.162" x2="93.436" y2="205.162" stroke="#8c8c8c" stroke-width="0.3" stroke-dasharray="1.2,0.8"/>
<line x1="93.436" y1="205.162" x2="93.436" y2="222.849" stroke="#8c8c8c" stroke-width="0.3" stroke-dasharray="1.2,0.8"/>
<line x1="102.064" y1="205.162" x2="102.064" y2="116.726" stroke="#8c8c8c" stroke-width="0.3" stroke-dasharray="1.2,0.8"/>
<line x1="93.436" y1="99.039" x2="93.436" y2="116.726" stroke="#8c8c8c" stroke-width="0.3" stroke-dasharray="1.2,0.8"/>
<line x1="93.436" y1="205.162" x2="93.436" y2="116.726" stroke="#8c8c8c" stroke-width="0.3" stroke-dasharray="1.2,0.8"/>
<line x1="190.5" y1="99.039" x2="102.064" y2="99.039" stroke="#8c8c8c" stroke-width="0.3" stroke-dasharray="1.2,0.8"/>
<line x1="93.436" y1="222.849" x2="5.0" y2="222.849" stroke="#8c8c8c" stroke-width="0.3" stroke-dasharray="1.2,0.8"/>
<line x1="190.5" y1="99.039" x2="190.5" y2="116.726" stroke="#8c8c8c" stroke-width="0.3" stroke-dasharray="1.2,0.8"/>
<line x1="93.436" y1="10.602" x2="102.064" y2="10.602" stroke="#8c8c8c" stroke-width="0.3" stroke-dasharray="1.2,0.8"/>
<line x1="190.5" y1="116.726" x2="102.064" y2="116.726" stroke="#141414" stroke-width="0.4"/>
<line x1="5.0" y1="222.849" x2="5.0" y2="205.162" stroke="#141414" stroke-width="0.4"/>
<line x1="5.0" y1="205.162" x2="93.436" y2="205.162" stroke="#141414" stroke-width="0.4"/>
<line x1="102.064" y1="10.602" x2="102.064" y2="99.039" stroke="#141414" stroke-width="0.4"/>
<line x1="93.436" y1="99.039" x2="93.436" y2="10.602" stroke="#141414" stroke-width="0.4"/>
<line x1="102.064" y1="205.162" x2="102.064" y2="222.849" stroke="#141414" stroke-width="0.4"/>
<line x1="102.064" y1="222.849" x2="93.436" y2="222.849" stroke="#141414" stroke-width="0.4"/>
<line x1="102.064" y1="116.726" x2="109.064" y2="129.991" stroke="#141414" stroke-width="0.4"/>
<line x1="109.064" y1="129.991" x2="109.064" y2="191.897" stroke="#141414" stroke-width="0.4"/>
<line x1="109.064" y1="191.897" x2="102.064" y2="205.162" stroke="#141414" stroke-width="0.4"/>
<line x1="93.436" y1="116.726" x2="86.436" y2="114.073" stroke="#141414" stroke-width="0.4"/>
<line x1="86.436" y1="114.073" x2="86.436" y2="101.692" stroke="#141414" stroke-width="0.4"/>
<line x1="86.436" y1="101.692" x2="93.436" y2="99.039" stroke="#141414" stroke-width="0.4"/>
<line x1="93.436" y1="116.726" x2="86.436" y2="129.991" stroke="#141414" stroke-width="0.4"/>
<line x1="86.436" y1="129.991" x2="86.436" y2="191.897" stroke="#141414" stroke-width="0.4"/>
<line x1="86.436" y1="191.897" x2="93.436" y2="205.162" stroke="#141414" stroke-width="0.4"/>
<line x1="102.064" y1="99.039" x2="115.329" y2="92.039" stroke="#141414" stroke-width="0.4"/>
<line x1="115.329" y1="92.039" x2="177.234" y2="92.039" stroke="#141414" stroke-width="0.4"/>
<line x1="177.234" y1="92.039" x2="190.5" y2="99.039" stroke="#141414" stroke-width="0.4"/>
<line x1="5.0" y1="222.849" x2="18.265" y2="229.849" stroke="#141414" stroke-width="0.4"/>
<line x1="18.265" y1="229.849" x2="80.171" y2="229.849" stroke="#141414" stroke-width="0.4"/>
<line x1="80.171" y1="229.849" x2="93.436" y2="222.849" stroke="#141414" stroke-width="0.4"/>
<line x1="190.5" y1="116.726" x2="197.5" y2="114.073" stroke="#141414" stroke-width="0.4"/>
<line x1="197.5" y1="114.073" x2="197.5" y2="101.692" stroke="#141414" stroke-width="0.4"/>
<line x1="197.5" y1="101.692" x2="190.5" y2="99.039" stroke="#141414" stroke-width="0.4"/>
<line x1="102.064" y1="10.602" x2="100.77" y2="6.289" stroke="#141414" stroke-width="0.4"/>
<line x1="100.77" y1="6.289" x2="94.73" y2="6.289" stroke="#141414" stroke-width="0.4"/>
<line x1="94.73" y1="6.289" x2="93.436" y2="10.602" stroke="#141414" stroke-width="0.4"/>
<circle cx="105.564" cy="160.944" r="1.90" fill="#99d9fa" stroke="#464646" stroke-width="0.2"/>
<text x="105.564" y="161.85" font-size="2.58" text-anchor="middle" fill="#141414">10</text>
<circle cx="89.936" cy="107.882" r="1.90" fill="#ffe082" stroke="#464646" stroke-width="0.2"/>
<text x="89.936" y="108.78" font-size="2.58" text-anchor="middle" fill="#141414">11</text>
<circle cx="89.936" cy="160.944" r="1.90" fill="#ffe082" stroke="#464646" stroke-width="0.2"/>
<text x="89.936" y="161.85" font-size="2.58" text-anchor="middle" fill="#141414">12</text>
<circle cx="146.282" cy="95.539" r="1.90" fill="#ffe082" stroke="#464646" stroke-width="0.2"/>
<text x="146.282" y="96.44" font-size="2.58" text-anchor="middle" fill="#141414">13</text>
<circle cx="49.218" cy="226.349" r="1.90" fill="#ffe082" stroke="#464646" stroke-width="0.2"/>
<text x="49.218" y="227.25" font-size="2.58" text-anchor="middle" fill="#141414">14</text>
<circle cx="194.0" cy="107.882" r="1.90" fill="#ffe082" stroke="#464646" stroke-width="0.2"/>
<text x="194.0" y="108.78" font-size="2.58" text-anchor="middle" fill="#141414">15</text>
<circle cx="97.75" cy="8.446" r="1.90" fill="#ffe082" stroke="#464646" stroke-width="0.2"/>
<text x="97.75" y="9.35" font-size="2.58" text-anchor="middle" fill="#141414">16</text>
<circle cx="161.021" cy="104.934" r="4.60" fill="#eaf1fe" stroke="#2e78e6" stroke-width="0.3"/>
<text x="161.021" y="106.73" font-size="5.20" text-anchor="middle" fill="#14306e" font-weight="bold">2</text>
<text x="205.0" y="295.0" font-size="3.2" text-anchor="end" fill="#737373" font-family="sans-serif">2 / 4</text>
<g pointer-events="none"><text x="105.0" y="83.2" text-anchor="middle" font-family="sans-serif" font-size="12.4" fill="#9aa0a6" fill-opacity="0.3" transform="rotate(-28 105.0 83.2)">papercraft.kr</text><text x="105.0" y="148.5" text-anchor="middle" font-family="sans-serif" font-size="12.4" fill="#9aa0a6" fill-opacity="0.3" transform="rotate(-28 105.0 148.5)">papercraft.kr</text><text x="105.0" y="213.8" text-anchor="middle" font-family="sans-serif" font-size="12.4" fill="#9aa0a6" fill-opacity="0.3" transform="rotate(-28 105.0 213.8)">papercraft.kr</text></g></svg>
