<svg xmlns="http://www.w3.org/2000/svg" xmlns:xlink="http://www.w3.org/1999/xlink" width="210.00mm" height="297.00mm" viewBox="0 0 210.00 297.00">
<rect x="0" y="0" width="210.00" height="297.00" fill="#ffffff" stroke="#cccccc" stroke-width="0.2"/>
<polygon points="44.172,135.005 51.172,140.114 51.172,163.958 44.172,169.068" fill="rgb(216,216,216)"/>
<polygon points="39.062,135.005 32.062,121.38 32.062,57.797 39.062,44.172" fill="rgb(216,216,216)"/>
<polygon points="39.062,135.005 32.062,140.114 32.062,163.958 39.062,169.068" fill="rgb(216,216,216)"/>
<polygon points="44.172,44.172 51.172,39.062 51.172,15.219 44.172,10.109" fill="rgb(216,216,216)"/>
<polygon points="39.062,44.172 32.062,39.062 32.062,15.219 39.062,10.109" fill="rgb(216,216,216)"/>
<polygon points="44.172,169.068 51.172,182.693 51.172,246.276 44.172,259.901" fill="rgb(216,216,216)"/>
<polygon points="44.172,10.109 43.405,6.709 39.829,6.709 39.062,10.109" fill="rgb(216,216,216)"/>
<polygon points="44.172,135.005 51.172,140.114 51.172,163.958 44.172,169.068" fill="#99d9fa"/>
<line x1="44.172" y1="135.005" x2="39.062" y2="135.005" stroke="#8c8c8c" stroke-width="0.3" stroke-dasharray="1.2,0.8"/>
<line x1="44.172" y1="44.172" x2="44.172" y2="135.005" stroke="#8c8c8c" stroke-width="0.3" stroke-dasharray="1.2,0.8"/>
<line x1="39.062" y1="44.172" x2="44.172" y2="44.172" stroke="#8c8c8c" stroke-width="0.3" stroke-dasharray="1.2,0.8"/>
<line x1="44.172" y1="169.068" x2="39.062" y2="169.068" stroke="#8c8c8c" stroke-width="0.3" stroke-dasharray="1.2,0.8"/>
<line x1="39.062" y1="169.068" x2="39.062" y2="259.901" stroke="#8c8c8c" stroke-width="0.3" stroke-dasharray="1.2,0.8"/>
<line x1="44.172" y1="169.068" x2="44.172" y2="135.005" stroke="#8c8c8c" stroke-width="0.3" stroke-dasharray="1.2,0.8"/>
<line x1="39.062" y1="44.172" x2="39.062" y2="135.005" stroke="#8c8c8c" stroke-width="0.3" stroke-dasharray="1.2,0.8"/>
<line x1="39.062" y1="169.068" x2="39.062" y2="135.005" stroke="#8c8c8c" stroke-width="0.3" stroke-dasharray="1.2,0.8"/>
<line x1="44.172" y1="10.109" x2="44.172" y2="44.172" stroke="#8c8c8c" stroke-width="0.3" stroke-dasharray="1.2,0.8"/>
<line x1="39.062" y1="10.109" x2="39.062" y2="44.172" stroke="#8c8c8c" stroke-width="0.3" stroke-dasharray="1.2,0.8"/>
<line x1="44.172" y1="259.901" x2="44.172" y2="169.068" stroke="#8c8c8c" stroke-width="0.3" stroke-dasharray="1.2,0.8"/>
<line x1="39.062" y1="10.109" x2="44.172" y2="10.109" stroke="#8c8c8c" stroke-width="0.3" stroke-dasharray="1.2,0.8"/>
<line x1="78.234" y1="135.005" x2="44.172" y2="135.005" stroke="#141414" stroke-width="0.4"/>
<line x1="5.0" y1="259.901" x2="5.0" y2="169.068" stroke="#141414" stroke-width="0.4"/>
<line x1="5.0" y1="169.068" x2="39.062" y2="169.068" stroke="#141414" stroke-width="0.4"/>
<line x1="44.172" y1="44.172" x2="78.234" y2="44.172" stroke="#141414" stroke-width="0.4"/>
<line x1="39.062" y1="259.901" x2="5.0" y2="259.901" stroke="#141414" stroke-width="0.4"/>
<line x1="78.234" y1="44.172" x2="78.234" y2="135.005" stroke="#141414" stroke-width="0.4"/>
<line x1="44.172" y1="259.901" x2="39.062" y2="259.901" stroke="#141414" stroke-width="0.4"/>
<line x1="44.172" y1="135.005" x2="51.172" y2="140.114" stroke="#141414" stroke-width="0.4"/>
<line x1="51.172" y1="140.114" x2="51.172" y2="163.958" stroke="#141414" stroke-width="0.4"/>
<line x1="51.172" y1="163.958" x2="44.172" y2="169.068" stroke="#141414" stroke-width="0.4"/>
<line x1="39.062" y1="135.005" x2="32.062" y2="121.38" stroke="#141414" stroke-width="0.4"/>
<line x1="32.062" y1="121.38" x2="32.062" y2="57.797" stroke="#141414" stroke-width="0.4"/>
<line x1="32.062" y1="57.797" x2="39.062" y2="44.172" stroke="#141414" stroke-width="0.4"/>
<line x1="39.062" y1="135.005" x2="32.062" y2="140.114" stroke="#141414" stroke-width="0.4"/>
<line x1="32.062" y1="140.114" x2="32.062" y2="163.958" stroke="#141414" stroke-width="0.4"/>
<line x1="32.062" y1="163.958" x2="39.062" y2="169.068" stroke="#141414" stroke-width="0.4"/>
<line x1="44.172" y1="44.172" x2="51.172" y2="39.062" stroke="#141414" stroke-width="0.4"/>
<line x1="51.172" y1="39.062" x2="51.172" y2="15.219" stroke="#141414" stroke-width="0.4"/>
<line x1="51.172" y1="15.219" x2="44.172" y2="10.109" stroke="#141414" stroke-width="0.4"/>
<line x1="39.062" y1="44.172" x2="32.062" y2="39.062" stroke="#141414" stroke-width="0.4"/>
<line x1="32.062" y1="39.062" x2="32.062" y2="15.219" stroke="#141414" stroke-width="0.4"/>
<line x1="32.062" y1="15.219" x2="39.062" y2="10.109" stroke="#141414" stroke-width="0.4"/>
<line x1="44.172" y1="169.068" x2="51.172" y2="182.693" stroke="#141414" stroke-width="0.4"/>
<line x1="51.172" y1="182.693" x2="51.172" y2="246.276" stroke="#141414" stroke-width="0.4"/>
<line x1="51.172" y1="246.276" x2="44.172" y2="259.901" stroke="#141414" stroke-width="0.4"/>
<line x1="44.172" y1="10.109" x2="43.405" y2="6.709" stroke="#141414" stroke-width="0.4"/>
<line x1="43.405" y1="6.709" x2="39.829" y2="6.709" stroke="#141414" stroke-width="0.4"/>
<line x1="39.829" y1="6.709" x2="39.062" y2="10.109" stroke="#141414" stroke-width="0.4"/>
<circle cx="47.672" cy="152.036" r="1.50" fill="#99d9fa" stroke="#464646" stroke-width="0.2"/>
<text x="47.672" y="152.55" font-size="1.47" text-anchor="middle" fill="#141414">90</text>
<circle cx="35.562" cy="89.588" r="1.50" fill="#ffe082" stroke="#464646" stroke-width="0.2"/>
<text x="35.562" y="90.10" font-size="1.47" text-anchor="middle" fill="#141414">91</text>
<circle cx="35.562" cy="152.036" r="1.50" fill="#ffe082" stroke="#464646" stroke-width="0.2"/>
<text x="35.562" y="152.55" font-size="1.47" text-anchor="middle" fill="#141414">92</text>
<circle cx="47.672" cy="27.141" r="1.50" fill="#ffe082" stroke="#464646" stroke-width="0.2"/>
<text x="47.672" y="27.65" font-size="1.47" text-anchor="middle" fill="#141414">93</text>
<circle cx="35.562" cy="27.141" r="1.50" fill="#ffe082" stroke="#464646" stroke-width="0.2"/>
<text x="35.562" y="27.65" font-size="1.47" text-anchor="middle" fill="#141414">94</text>
<circle cx="47.672" cy="214.484" r="1.50" fill="#ffe082" stroke="#464646" stroke-width="0.2"/>
<text x="47.672" y="215.00" font-size="1.47" text-anchor="middle" fill="#141414">95</text>
<circle cx="41.617" cy="8.409" r="1.50" fill="#ffe082" stroke="#464646" stroke-width="0.2"/>
<text x="41.617" y="8.92" font-size="1.47" text-anchor="middle" fill="#141414">96</text>
<circle cx="41.617" cy="264.292" r="4.6" fill="#eaf1fe" stroke="#2e78e6" stroke-width="0.3"/>
<text x="41.617" y="266.092" font-size="5.2" text-anchor="middle" fill="#14306e" font-weight="bold">11</text>
<text x="205.0" y="295.0" font-size="3.2" text-anchor="end" fill="#737373" font-family="sans-serif">8 / 8</text>
</svg>
