<svg xmlns="http://www.w3.org/2000/svg" xmlns:xlink="http://www.w3.org/1999/xlink" width="210.00mm" height="297.00mm" viewBox="0 0 210.00 297.00">
<rect x="0" y="0" width="210.00" height="297.00" fill="#ffffff" stroke="#cccccc" stroke-width="0.2"/>
<polygon points="119.494,79.64 128.129,78.159 146.023,95.02 145.056,103.728" fill="rgb(216,216,216)"/>
<polygon points="84.371,79.64 75.836,76.882 53.989,91.287 53.161,100.218" fill="rgb(216,216,216)"/>
<polygon points="53.161,100.218 44.555,97.693 23.106,112.684 22.521,121.634" fill="rgb(216,216,216)"/>
<polygon points="53.161,59.062 44.974,52.037 39.042,14.194 44.686,5.0" fill="rgb(216,216,216)"/>
<polygon points="22.521,121.634 14.071,123.948 5.0,146.8 9.562,154.28" fill="rgb(216,216,216)"/>
<polygon points="9.562,154.28 14.831,161.28 39.417,161.28 44.686,154.28" fill="rgb(216,216,216)"/>
<polygon points="148.311,209.354 156.761,207.04 165.832,184.188 161.27,176.708" fill="rgb(216,216,216)"/>
<polygon points="106.536,112.286 105.95,121.236 84.502,136.227 75.896,133.702" fill="rgb(216,216,216)"/>
<polygon points="75.896,133.702 75.067,142.633 53.221,157.037 44.686,154.28" fill="rgb(216,216,216)"/>
<polygon points="145.056,103.728 153.159,107.574 159.18,133.04 153.658,140.108" fill="rgb(216,216,216)"/>
<polygon points="153.658,140.108 161.653,144.173 166.981,169.793 161.27,176.708" fill="rgb(216,216,216)"/>
<polygon points="84.371,79.64 75.836,76.882 53.989,91.287 53.161,100.218" fill="#99d9fa"/>
<line x1="84.371" y1="79.64" x2="119.494" y2="79.64" stroke="#8c8c8c" stroke-width="0.3" stroke-dasharray="1.2,0.8"/>
<line x1="119.494" y1="79.64" x2="106.536" y2="112.286" stroke="#8c8c8c" stroke-width="0.3" stroke-dasharray="1.2,0.8"/>
<line x1="106.536" y1="112.286" x2="84.371" y2="79.64" stroke="#8c8c8c" stroke-width="0.3" stroke-dasharray="1.2,0.8"/>
<line x1="84.371" y1="79.64" x2="106.536" y2="46.994" stroke="#8c8c8c" stroke-width="0.3" stroke-dasharray="1.2,0.8"/>
<line x1="44.686" y1="154.28" x2="22.521" y2="121.634" stroke="#8c8c8c" stroke-width="0.3" stroke-dasharray="1.2,0.8"/>
<line x1="145.056" y1="103.728" x2="106.536" y2="112.286" stroke="#8c8c8c" stroke-width="0.3" stroke-dasharray="1.2,0.8"/>
<line x1="161.27" y1="176.708" x2="122.749" y2="185.266" stroke="#8c8c8c" stroke-width="0.3" stroke-dasharray="1.2,0.8"/>
<line x1="145.056" y1="103.728" x2="119.494" y2="79.64" stroke="#8c8c8c" stroke-width="0.3" stroke-dasharray="1.2,0.8"/>
<line x1="53.161" y1="100.218" x2="84.371" y2="79.64" stroke="#8c8c8c" stroke-width="0.3" stroke-dasharray="1.2,0.8"/>
<line x1="22.521" y1="121.634" x2="53.161" y2="100.218" stroke="#8c8c8c" stroke-width="0.3" stroke-dasharray="1.2,0.8"/>
<line x1="44.686" y1="5.0" x2="53.161" y2="59.062" stroke="#8c8c8c" stroke-width="0.3" stroke-dasharray="1.2,0.8"/>
<line x1="9.562" y1="154.28" x2="22.521" y2="121.634" stroke="#8c8c8c" stroke-width="0.3" stroke-dasharray="1.2,0.8"/>
<line x1="44.686" y1="154.28" x2="9.562" y2="154.28" stroke="#8c8c8c" stroke-width="0.3" stroke-dasharray="1.2,0.8"/>
<line x1="161.27" y1="176.708" x2="148.311" y2="209.354" stroke="#8c8c8c" stroke-width="0.3" stroke-dasharray="1.2,0.8"/>
<line x1="75.896" y1="133.702" x2="106.536" y2="112.286" stroke="#8c8c8c" stroke-width="0.3" stroke-dasharray="1.2,0.8"/>
<line x1="44.686" y1="154.28" x2="75.896" y2="133.702" stroke="#8c8c8c" stroke-width="0.3" stroke-dasharray="1.2,0.8"/>
<line x1="153.658" y1="140.108" x2="145.056" y2="103.728" stroke="#8c8c8c" stroke-width="0.3" stroke-dasharray="1.2,0.8"/>
<line x1="161.27" y1="176.708" x2="153.658" y2="140.108" stroke="#8c8c8c" stroke-width="0.3" stroke-dasharray="1.2,0.8"/>
<line x1="106.536" y1="46.994" x2="119.494" y2="79.64" stroke="#141414" stroke-width="0.4"/>
<line x1="84.371" y1="79.64" x2="53.161" y2="59.062" stroke="#141414" stroke-width="0.4"/>
<line x1="148.311" y1="209.354" x2="122.749" y2="185.266" stroke="#141414" stroke-width="0.4"/>
<line x1="114.148" y1="148.886" x2="106.536" y2="112.286" stroke="#141414" stroke-width="0.4"/>
<line x1="122.749" y1="185.266" x2="114.148" y2="148.886" stroke="#141414" stroke-width="0.4"/>
<line x1="75.896" y1="25.578" x2="106.536" y2="46.994" stroke="#141414" stroke-width="0.4"/>
<line x1="44.686" y1="5.0" x2="75.896" y2="25.578" stroke="#141414" stroke-width="0.4"/>
<line x1="119.494" y1="79.64" x2="128.129" y2="78.159" stroke="#141414" stroke-width="0.4"/>
<line x1="128.129" y1="78.159" x2="146.023" y2="95.02" stroke="#141414" stroke-width="0.4"/>
<line x1="146.023" y1="95.02" x2="145.056" y2="103.728" stroke="#141414" stroke-width="0.4"/>
<line x1="84.371" y1="79.64" x2="75.836" y2="76.882" stroke="#141414" stroke-width="0.4"/>
<line x1="75.836" y1="76.882" x2="53.989" y2="91.287" stroke="#141414" stroke-width="0.4"/>
<line x1="53.989" y1="91.287" x2="53.161" y2="100.218" stroke="#141414" stroke-width="0.4"/>
<line x1="53.161" y1="100.218" x2="44.555" y2="97.693" stroke="#141414" stroke-width="0.4"/>
<line x1="44.555" y1="97.693" x2="23.106" y2="112.684" stroke="#141414" stroke-width="0.4"/>
<line x1="23.106" y1="112.684" x2="22.521" y2="121.634" stroke="#141414" stroke-width="0.4"/>
<line x1="53.161" y1="59.062" x2="44.974" y2="52.037" stroke="#141414" stroke-width="0.4"/>
<line x1="44.974" y1="52.037" x2="39.042" y2="14.194" stroke="#141414" stroke-width="0.4"/>
<line x1="39.042" y1="14.194" x2="44.686" y2="5.0" stroke="#141414" stroke-width="0.4"/>
<line x1="22.521" y1="121.634" x2="14.071" y2="123.948" stroke="#141414" stroke-width="0.4"/>
<line x1="14.071" y1="123.948" x2="5.0" y2="146.8" stroke="#141414" stroke-width="0.4"/>
<line x1="5.0" y1="146.8" x2="9.562" y2="154.28" stroke="#141414" stroke-width="0.4"/>
<line x1="9.562" y1="154.28" x2="14.831" y2="161.28" stroke="#141414" stroke-width="0.4"/>
<line x1="14.831" y1="161.28" x2="39.417" y2="161.28" stroke="#141414" stroke-width="0.4"/>
<line x1="39.417" y1="161.28" x2="44.686" y2="154.28" stroke="#141414" stroke-width="0.4"/>
<line x1="148.311" y1="209.354" x2="156.761" y2="207.04" stroke="#141414" stroke-width="0.4"/>
<line x1="156.761" y1="207.04" x2="165.832" y2="184.188" stroke="#141414" stroke-width="0.4"/>
<line x1="165.832" y1="184.188" x2="161.27" y2="176.708" stroke="#141414" stroke-width="0.4"/>
<line x1="106.536" y1="112.286" x2="105.95" y2="121.236" stroke="#141414" stroke-width="0.4"/>
<line x1="105.95" y1="121.236" x2="84.502" y2="136.227" stroke="#141414" stroke-width="0.4"/>
<line x1="84.502" y1="136.227" x2="75.896" y2="133.702" stroke="#141414" stroke-width="0.4"/>
<line x1="75.896" y1="133.702" x2="75.067" y2="142.633" stroke="#141414" stroke-width="0.4"/>
<line x1="75.067" y1="142.633" x2="53.221" y2="157.037" stroke="#141414" stroke-width="0.4"/>
<line x1="53.221" y1="157.037" x2="44.686" y2="154.28" stroke="#141414" stroke-width="0.4"/>
<line x1="145.056" y1="103.728" x2="153.159" y2="107.574" stroke="#141414" stroke-width="0.4"/>
<line x1="153.159" y1="107.574" x2="159.18" y2="133.04" stroke="#141414" stroke-width="0.4"/>
<line x1="159.18" y1="133.04" x2="153.658" y2="140.108" stroke="#141414" stroke-width="0.4"/>
<line x1="153.658" y1="140.108" x2="161.653" y2="144.173" stroke="#141414" stroke-width="0.4"/>
<line x1="161.653" y1="144.173" x2="166.981" y2="169.793" stroke="#141414" stroke-width="0.4"/>
<line x1="166.981" y1="169.793" x2="161.27" y2="176.708" stroke="#141414" stroke-width="0.4"/>
<circle cx="134.676" cy="89.137" r="3.08" fill="#ffe082" stroke="#464646" stroke-width="0.2"/>
<text x="134.676" y="90.19" font-size="3.02" text-anchor="middle" fill="#141414">1</text>
<circle cx="66.839" cy="87.007" r="3.08" fill="#99d9fa" stroke="#464646" stroke-width="0.2"/>
<text x="66.839" y="88.06" font-size="3.02" text-anchor="middle" fill="#141414">2</text>
<circle cx="35.836" cy="108.057" r="3.08" fill="#ffe082" stroke="#464646" stroke-width="0.2"/>
<text x="35.836" y="109.11" font-size="3.02" text-anchor="middle" fill="#141414">3</text>
<circle cx="45.466" cy="32.573" r="3.08" fill="#ffe082" stroke="#464646" stroke-width="0.2"/>
<text x="45.466" y="33.63" font-size="3.02" text-anchor="middle" fill="#141414">4</text>
<circle cx="12.788" cy="136.666" r="3.08" fill="#ffe082" stroke="#464646" stroke-width="0.2"/>
<text x="12.788" y="137.72" font-size="3.02" text-anchor="middle" fill="#141414">5</text>
<circle cx="27.124" cy="157.78" r="3.08" fill="#ffe082" stroke="#464646" stroke-width="0.2"/>
<text x="27.124" y="158.84" font-size="3.02" text-anchor="middle" fill="#141414">6</text>
<circle cx="158.044" cy="194.322" r="3.08" fill="#ffe082" stroke="#464646" stroke-width="0.2"/>
<text x="158.044" y="195.38" font-size="3.02" text-anchor="middle" fill="#141414">7</text>
<circle cx="93.221" cy="125.863" r="3.08" fill="#ffe082" stroke="#464646" stroke-width="0.2"/>
<text x="93.221" y="126.92" font-size="3.02" text-anchor="middle" fill="#141414">8</text>
<circle cx="62.217" cy="146.913" r="3.08" fill="#ffe082" stroke="#464646" stroke-width="0.2"/>
<text x="62.217" y="147.97" font-size="3.02" text-anchor="middle" fill="#141414">9</text>
<circle cx="152.763" cy="121.113" r="3.08" fill="#ffe082" stroke="#464646" stroke-width="0.2"/>
<text x="152.763" y="122.17" font-size="3.02" text-anchor="middle" fill="#141414">10</text>
<circle cx="160.891" cy="157.695" r="3.08" fill="#ffe082" stroke="#464646" stroke-width="0.2"/>
<text x="160.891" y="158.75" font-size="3.02" text-anchor="middle" fill="#141414">11</text>
<circle cx="71.143" cy="54.76" r="4.60" fill="#eaf1fe" stroke="#2e78e6" stroke-width="0.3"/>
<text x="71.143" y="56.56" font-size="5.20" text-anchor="middle" fill="#14306e" font-weight="bold">1</text>
<polygon points="56.848,253.94 53.668,260.94 38.827,260.94 35.647,253.94" fill="rgb(216,216,216)"/>
<polygon points="56.848,233.555 60.395,226.555 76.948,226.555 80.495,233.555" fill="rgb(216,216,216)"/>
<polygon points="56.848,233.555 53.668,226.555 38.827,226.555 35.647,233.555" fill="rgb(216,216,216)"/>
<polygon points="80.495,253.94 87.495,257.12 87.495,271.961 80.495,275.141" fill="rgb(216,216,216)"/>
<polygon points="12.0,212.354 5.0,215.534 5.0,230.375 12.0,233.555" fill="rgb(216,216,216)"/>
<polygon points="56.848,275.141 60.395,282.141 76.948,282.141 80.495,275.141" fill="rgb(216,216,216)"/>
<polygon points="101.696,253.94 108.696,250.882 108.696,236.613 101.696,233.555" fill="rgb(216,216,216)"/>
<polygon points="56.848,253.94 53.668,260.94 38.827,260.94 35.647,253.94" fill="#99d9fa"/>
<line x1="56.848" y1="253.94" x2="56.848" y2="233.555" stroke="#8c8c8c" stroke-width="0.3" stroke-dasharray="1.2,0.8"/>
<line x1="80.495" y1="253.94" x2="56.848" y2="253.94" stroke="#8c8c8c" stroke-width="0.3" stroke-dasharray="1.2,0.8"/>
<line x1="80.495" y1="233.555" x2="80.495" y2="253.94" stroke="#8c8c8c" stroke-width="0.3" stroke-dasharray="1.2,0.8"/>
<line x1="35.647" y1="253.94" x2="35.647" y2="233.555" stroke="#8c8c8c" stroke-width="0.3" stroke-dasharray="1.2,0.8"/>
<line x1="35.647" y1="233.555" x2="12.0" y2="233.555" stroke="#8c8c8c" stroke-width="0.3" stroke-dasharray="1.2,0.8"/>
<line x1="35.647" y1="253.94" x2="56.848" y2="253.94" stroke="#8c8c8c" stroke-width="0.3" stroke-dasharray="1.2,0.8"/>
<line x1="80.495" y1="233.555" x2="56.848" y2="233.555" stroke="#8c8c8c" stroke-width="0.3" stroke-dasharray="1.2,0.8"/>
<line x1="35.647" y1="233.555" x2="56.848" y2="233.555" stroke="#8c8c8c" stroke-width="0.3" stroke-dasharray="1.2,0.8"/>
<line x1="80.495" y1="275.141" x2="80.495" y2="253.94" stroke="#8c8c8c" stroke-width="0.3" stroke-dasharray="1.2,0.8"/>
<line x1="12.0" y1="233.555" x2="12.0" y2="212.354" stroke="#8c8c8c" stroke-width="0.3" stroke-dasharray="1.2,0.8"/>
<line x1="80.495" y1="275.141" x2="56.848" y2="275.141" stroke="#8c8c8c" stroke-width="0.3" stroke-dasharray="1.2,0.8"/>
<line x1="101.696" y1="233.555" x2="101.696" y2="253.94" stroke="#8c8c8c" stroke-width="0.3" stroke-dasharray="1.2,0.8"/>
<line x1="56.848" y1="275.141" x2="56.848" y2="253.94" stroke="#141414" stroke-width="0.4"/>
<line x1="12.0" y1="212.354" x2="35.647" y2="212.354" stroke="#141414" stroke-width="0.4"/>
<line x1="35.647" y1="212.354" x2="35.647" y2="233.555" stroke="#141414" stroke-width="0.4"/>
<line x1="101.696" y1="253.94" x2="80.495" y2="253.94" stroke="#141414" stroke-width="0.4"/>
<line x1="80.495" y1="233.555" x2="101.696" y2="233.555" stroke="#141414" stroke-width="0.4"/>
<line x1="35.647" y1="253.94" x2="12.0" y2="253.94" stroke="#141414" stroke-width="0.4"/>
<line x1="12.0" y1="253.94" x2="12.0" y2="233.555" stroke="#141414" stroke-width="0.4"/>
<line x1="56.848" y1="253.94" x2="53.668" y2="260.94" stroke="#141414" stroke-width="0.4"/>
<line x1="53.668" y1="260.94" x2="38.827" y2="260.94" stroke="#141414" stroke-width="0.4"/>
<line x1="38.827" y1="260.94" x2="35.647" y2="253.94" stroke="#141414" stroke-width="0.4"/>
<line x1="56.848" y1="233.555" x2="60.395" y2="226.555" stroke="#141414" stroke-width="0.4"/>
<line x1="60.395" y1="226.555" x2="76.948" y2="226.555" stroke="#141414" stroke-width="0.4"/>
<line x1="76.948" y1="226.555" x2="80.495" y2="233.555" stroke="#141414" stroke-width="0.4"/>
<line x1="56.848" y1="233.555" x2="53.668" y2="226.555" stroke="#141414" stroke-width="0.4"/>
<line x1="53.668" y1="226.555" x2="38.827" y2="226.555" stroke="#141414" stroke-width="0.4"/>
<line x1="38.827" y1="226.555" x2="35.647" y2="233.555" stroke="#141414" stroke-width="0.4"/>
<line x1="80.495" y1="253.94" x2="87.495" y2="257.12" stroke="#141414" stroke-width="0.4"/>
<line x1="87.495" y1="257.12" x2="87.495" y2="271.961" stroke="#141414" stroke-width="0.4"/>
<line x1="87.495" y1="271.961" x2="80.495" y2="275.141" stroke="#141414" stroke-width="0.4"/>
<line x1="12.0" y1="212.354" x2="5.0" y2="215.534" stroke="#141414" stroke-width="0.4"/>
<line x1="5.0" y1="215.534" x2="5.0" y2="230.375" stroke="#141414" stroke-width="0.4"/>
<line x1="5.0" y1="230.375" x2="12.0" y2="233.555" stroke="#141414" stroke-width="0.4"/>
<line x1="56.848" y1="275.141" x2="60.395" y2="282.141" stroke="#141414" stroke-width="0.4"/>
<line x1="60.395" y1="282.141" x2="76.948" y2="282.141" stroke="#141414" stroke-width="0.4"/>
<line x1="76.948" y1="282.141" x2="80.495" y2="275.141" stroke="#141414" stroke-width="0.4"/>
<line x1="101.696" y1="253.94" x2="108.696" y2="250.882" stroke="#141414" stroke-width="0.4"/>
<line x1="108.696" y1="250.882" x2="108.696" y2="236.613" stroke="#141414" stroke-width="0.4"/>
<line x1="108.696" y1="236.613" x2="101.696" y2="233.555" stroke="#141414" stroke-width="0.4"/>
<circle cx="46.248" cy="257.44" r="3.08" fill="#99d9fa" stroke="#464646" stroke-width="0.2"/>
<text x="46.248" y="258.50" font-size="3.02" text-anchor="middle" fill="#141414">33</text>
<circle cx="68.672" cy="230.055" r="3.08" fill="#ffe082" stroke="#464646" stroke-width="0.2"/>
<text x="68.672" y="231.11" font-size="3.02" text-anchor="middle" fill="#141414">34</text>
<circle cx="46.248" cy="230.055" r="3.08" fill="#ffe082" stroke="#464646" stroke-width="0.2"/>
<text x="46.248" y="231.11" font-size="3.02" text-anchor="middle" fill="#141414">35</text>
<circle cx="83.995" cy="264.541" r="3.08" fill="#ffe082" stroke="#464646" stroke-width="0.2"/>
<text x="83.995" y="265.60" font-size="3.02" text-anchor="middle" fill="#141414">36</text>
<circle cx="8.5" cy="222.954" r="3.08" fill="#ffe082" stroke="#464646" stroke-width="0.2"/>
<text x="8.5" y="224.01" font-size="3.02" text-anchor="middle" fill="#141414">37</text>
<circle cx="68.672" cy="278.641" r="3.08" fill="#ffe082" stroke="#464646" stroke-width="0.2"/>
<text x="68.672" y="279.70" font-size="3.02" text-anchor="middle" fill="#141414">38</text>
<circle cx="105.196" cy="243.747" r="3.08" fill="#ffe082" stroke="#464646" stroke-width="0.2"/>
<text x="105.196" y="244.80" font-size="3.02" text-anchor="middle" fill="#141414">39</text>
<circle cx="72.613" cy="268.074" r="4.21" fill="#eaf1fe" stroke="#2e78e6" stroke-width="0.3"/>
<text x="72.613" y="269.72" font-size="4.76" text-anchor="middle" fill="#14306e" font-weight="bold">5</text>
<polygon points="156.376,248.894 153.586,255.894 140.565,255.894 137.775,248.894" fill="rgb(216,216,216)"/>
<polygon points="156.376,230.955 159.238,223.955 172.594,223.955 175.456,230.955" fill="rgb(216,216,216)"/>
<polygon points="156.376,230.955 153.586,223.955 140.565,223.955 137.775,230.955" fill="rgb(216,216,216)"/>
<polygon points="175.456,248.894 182.456,251.684 182.456,264.705 175.456,267.495" fill="rgb(216,216,216)"/>
<polygon points="118.696,212.354 111.696,215.144 111.696,228.165 118.696,230.955" fill="rgb(216,216,216)"/>
<polygon points="156.376,267.495 159.238,274.495 172.594,274.495 175.456,267.495" fill="rgb(216,216,216)"/>
<polygon points="194.057,248.894 201.057,246.203 201.057,233.646 194.057,230.955" fill="rgb(216,216,216)"/>
<polygon points="156.376,248.894 153.586,255.894 140.565,255.894 137.775,248.894" fill="#99d9fa"/>
<line x1="156.376" y1="248.894" x2="156.376" y2="230.955" stroke="#8c8c8c" stroke-width="0.3" stroke-dasharray="1.2,0.8"/>
<line x1="175.456" y1="248.894" x2="156.376" y2="248.894" stroke="#8c8c8c" stroke-width="0.3" stroke-dasharray="1.2,0.8"/>
<line x1="175.456" y1="230.955" x2="175.456" y2="248.894" stroke="#8c8c8c" stroke-width="0.3" stroke-dasharray="1.2,0.8"/>
<line x1="137.775" y1="248.894" x2="137.775" y2="230.955" stroke="#8c8c8c" stroke-width="0.3" stroke-dasharray="1.2,0.8"/>
<line x1="137.775" y1="230.955" x2="118.696" y2="230.955" stroke="#8c8c8c" stroke-width="0.3" stroke-dasharray="1.2,0.8"/>
<line x1="137.775" y1="248.894" x2="156.376" y2="248.894" stroke="#8c8c8c" stroke-width="0.3" stroke-dasharray="1.2,0.8"/>
<line x1="175.456" y1="230.955" x2="156.376" y2="230.955" stroke="#8c8c8c" stroke-width="0.3" stroke-dasharray="1.2,0.8"/>
<line x1="137.775" y1="230.955" x2="156.376" y2="230.955" stroke="#8c8c8c" stroke-width="0.3" stroke-dasharray="1.2,0.8"/>
<line x1="175.456" y1="267.495" x2="175.456" y2="248.894" stroke="#8c8c8c" stroke-width="0.3" stroke-dasharray="1.2,0.8"/>
<line x1="118.696" y1="230.955" x2="118.696" y2="212.354" stroke="#8c8c8c" stroke-width="0.3" stroke-dasharray="1.2,0.8"/>
<line x1="175.456" y1="267.495" x2="156.376" y2="267.495" stroke="#8c8c8c" stroke-width="0.3" stroke-dasharray="1.2,0.8"/>
<line x1="194.057" y1="230.955" x2="194.057" y2="248.894" stroke="#8c8c8c" stroke-width="0.3" stroke-dasharray="1.2,0.8"/>
<line x1="156.376" y1="267.495" x2="156.376" y2="248.894" stroke="#141414" stroke-width="0.4"/>
<line x1="118.696" y1="212.354" x2="137.775" y2="212.354" stroke="#141414" stroke-width="0.4"/>
<line x1="137.775" y1="212.354" x2="137.775" y2="230.955" stroke="#141414" stroke-width="0.4"/>
<line x1="194.057" y1="248.894" x2="175.456" y2="248.894" stroke="#141414" stroke-width="0.4"/>
<line x1="175.456" y1="230.955" x2="194.057" y2="230.955" stroke="#141414" stroke-width="0.4"/>
<line x1="137.775" y1="248.894" x2="118.696" y2="248.894" stroke="#141414" stroke-width="0.4"/>
<line x1="118.696" y1="248.894" x2="118.696" y2="230.955" stroke="#141414" stroke-width="0.4"/>
<line x1="156.376" y1="248.894" x2="153.586" y2="255.894" stroke="#141414" stroke-width="0.4"/>
<line x1="153.586" y1="255.894" x2="140.565" y2="255.894" stroke="#141414" stroke-width="0.4"/>
<line x1="140.565" y1="255.894" x2="137.775" y2="248.894" stroke="#141414" stroke-width="0.4"/>
<line x1="156.376" y1="230.955" x2="159.238" y2="223.955" stroke="#141414" stroke-width="0.4"/>
<line x1="159.238" y1="223.955" x2="172.594" y2="223.955" stroke="#141414" stroke-width="0.4"/>
<line x1="172.594" y1="223.955" x2="175.456" y2="230.955" stroke="#141414" stroke-width="0.4"/>
<line x1="156.376" y1="230.955" x2="153.586" y2="223.955" stroke="#141414" stroke-width="0.4"/>
<line x1="153.586" y1="223.955" x2="140.565" y2="223.955" stroke="#141414" stroke-width="0.4"/>
<line x1="140.565" y1="223.955" x2="137.775" y2="230.955" stroke="#141414" stroke-width="0.4"/>
<line x1="175.456" y1="248.894" x2="182.456" y2="251.684" stroke="#141414" stroke-width="0.4"/>
<line x1="182.456" y1="251.684" x2="182.456" y2="264.705" stroke="#141414" stroke-width="0.4"/>
<line x1="182.456" y1="264.705" x2="175.456" y2="267.495" stroke="#141414" stroke-width="0.4"/>
<line x1="118.696" y1="212.354" x2="111.696" y2="215.144" stroke="#141414" stroke-width="0.4"/>
<line x1="111.696" y1="215.144" x2="111.696" y2="228.165" stroke="#141414" stroke-width="0.4"/>
<line x1="111.696" y1="228.165" x2="118.696" y2="230.955" stroke="#141414" stroke-width="0.4"/>
<line x1="156.376" y1="267.495" x2="159.238" y2="274.495" stroke="#141414" stroke-width="0.4"/>
<line x1="159.238" y1="274.495" x2="172.594" y2="274.495" stroke="#141414" stroke-width="0.4"/>
<line x1="172.594" y1="274.495" x2="175.456" y2="267.495" stroke="#141414" stroke-width="0.4"/>
<line x1="194.057" y1="248.894" x2="201.057" y2="246.203" stroke="#141414" stroke-width="0.4"/>
<line x1="201.057" y1="246.203" x2="201.057" y2="233.646" stroke="#141414" stroke-width="0.4"/>
<line x1="201.057" y1="233.646" x2="194.057" y2="230.955" stroke="#141414" stroke-width="0.4"/>
<circle cx="147.076" cy="252.394" r="3.08" fill="#99d9fa" stroke="#464646" stroke-width="0.2"/>
<text x="147.076" y="253.45" font-size="3.02" text-anchor="middle" fill="#141414">75</text>
<circle cx="165.916" cy="227.455" r="3.08" fill="#ffe082" stroke="#464646" stroke-width="0.2"/>
<text x="165.916" y="228.51" font-size="3.02" text-anchor="middle" fill="#141414">76</text>
<circle cx="147.076" cy="227.455" r="3.08" fill="#ffe082" stroke="#464646" stroke-width="0.2"/>
<text x="147.076" y="228.51" font-size="3.02" text-anchor="middle" fill="#141414">77</text>
<circle cx="178.956" cy="258.195" r="3.08" fill="#ffe082" stroke="#464646" stroke-width="0.2"/>
<text x="178.956" y="259.25" font-size="3.02" text-anchor="middle" fill="#141414">78</text>
<circle cx="115.196" cy="221.654" r="3.08" fill="#ffe082" stroke="#464646" stroke-width="0.2"/>
<text x="115.196" y="222.71" font-size="3.02" text-anchor="middle" fill="#141414">79</text>
<circle cx="165.916" cy="270.995" r="3.08" fill="#ffe082" stroke="#464646" stroke-width="0.2"/>
<text x="165.916" y="272.05" font-size="3.02" text-anchor="middle" fill="#141414">80</text>
<circle cx="197.557" cy="239.924" r="3.08" fill="#ffe082" stroke="#464646" stroke-width="0.2"/>
<text x="197.557" y="240.98" font-size="3.02" text-anchor="middle" fill="#141414">81</text>
<circle cx="169.096" cy="261.295" r="3.55" fill="#eaf1fe" stroke="#2e78e6" stroke-width="0.3"/>
<text x="169.096" y="262.68" font-size="4.01" text-anchor="middle" fill="#14306e" font-weight="bold">11</text>
<text x="205.0" y="295.0" font-size="3.2" text-anchor="end" fill="#737373" font-family="sans-serif">1 / 4</text>
<g pointer-events="none"><text x="105.0" y="83.2" text-anchor="middle" font-family="sans-serif" font-size="12.4" fill="#9aa0a6" fill-opacity="0.3" transform="rotate(-28 105.0 83.2)">papercraft.kr</text><text x="105.0" y="148.5" text-anchor="middle" font-family="sans-serif" font-size="12.4" fill="#9aa0a6" fill-opacity="0.3" transform="rotate(-28 105.0 148.5)">papercraft.kr</text><text x="105.0" y="213.8" text-anchor="middle" font-family="sans-serif" font-size="12.4" fill="#9aa0a6" fill-opacity="0.3" transform="rotate(-28 105.0 213.8)">papercraft.kr</text></g></svg>
