<svg xmlns="http://www.w3.org/2000/svg" xmlns:xlink="http://www.w3.org/1999/xlink" width="210.00mm" height="297.00mm" viewBox="0 0 210.00 297.00">
<rect x="0" y="0" width="210.00" height="297.00" fill="#ffffff" stroke="#cccccc" stroke-width="0.2"/>
<polygon points="108.595,121.158 115.595,133.444 115.595,190.778 108.595,203.063" fill="rgb(216,216,216)"/>
<polygon points="86.905,121.158 79.905,116.981 79.905,97.487 86.905,93.31" fill="rgb(216,216,216)"/>
<polygon points="86.905,121.158 79.905,133.444 79.905,190.778 86.905,203.063" fill="rgb(216,216,216)"/>
<polygon points="108.595,93.31 120.88,86.31 178.214,86.31 190.5,93.31" fill="rgb(216,216,216)"/>
<polygon points="5.0,230.911 17.286,237.911 74.619,237.911 86.905,230.911" fill="rgb(216,216,216)"/>
<polygon points="190.5,121.158 197.5,116.981 197.5,97.487 190.5,93.31" fill="rgb(216,216,216)"/>
<polygon points="108.595,11.405 105.341,4.405 90.159,4.405 86.905,11.405" fill="rgb(216,216,216)"/>
<polygon points="108.595,121.158 115.595,133.444 115.595,190.778 108.595,203.063" fill="#99d9fa"/>
<line x1="108.595" y1="121.158" x2="86.905" y2="121.158" stroke="#8c8c8c" stroke-width="0.3" stroke-dasharray="1.2,0.8"/>
<line x1="108.595" y1="93.31" x2="108.595" y2="121.158" stroke="#8c8c8c" stroke-width="0.3" stroke-dasharray="1.2,0.8"/>
<line x1="86.905" y1="93.31" x2="108.595" y2="93.31" stroke="#8c8c8c" stroke-width="0.3" stroke-dasharray="1.2,0.8"/>
<line x1="108.595" y1="203.063" x2="86.905" y2="203.063" stroke="#8c8c8c" stroke-width="0.3" stroke-dasharray="1.2,0.8"/>
<line x1="86.905" y1="203.063" x2="86.905" y2="230.911" stroke="#8c8c8c" stroke-width="0.3" stroke-dasharray="1.2,0.8"/>
<line x1="108.595" y1="203.063" x2="108.595" y2="121.158" stroke="#8c8c8c" stroke-width="0.3" stroke-dasharray="1.2,0.8"/>
<line x1="86.905" y1="93.31" x2="86.905" y2="121.158" stroke="#8c8c8c" stroke-width="0.3" stroke-dasharray="1.2,0.8"/>
<line x1="86.905" y1="203.063" x2="86.905" y2="121.158" stroke="#8c8c8c" stroke-width="0.3" stroke-dasharray="1.2,0.8"/>
<line x1="190.5" y1="93.31" x2="108.595" y2="93.31" stroke="#8c8c8c" stroke-width="0.3" stroke-dasharray="1.2,0.8"/>
<line x1="86.905" y1="230.911" x2="5.0" y2="230.911" stroke="#8c8c8c" stroke-width="0.3" stroke-dasharray="1.2,0.8"/>
<line x1="190.5" y1="93.31" x2="190.5" y2="121.158" stroke="#8c8c8c" stroke-width="0.3" stroke-dasharray="1.2,0.8"/>
<line x1="86.905" y1="11.405" x2="108.595" y2="11.405" stroke="#8c8c8c" stroke-width="0.3" stroke-dasharray="1.2,0.8"/>
<line x1="190.5" y1="121.158" x2="108.595" y2="121.158" stroke="#141414" stroke-width="0.4"/>
<line x1="5.0" y1="230.911" x2="5.0" y2="203.063" stroke="#141414" stroke-width="0.4"/>
<line x1="5.0" y1="203.063" x2="86.905" y2="203.063" stroke="#141414" stroke-width="0.4"/>
<line x1="108.595" y1="11.405" x2="108.595" y2="93.31" stroke="#141414" stroke-width="0.4"/>
<line x1="86.905" y1="93.31" x2="86.905" y2="11.405" stroke="#141414" stroke-width="0.4"/>
<line x1="108.595" y1="203.063" x2="108.595" y2="230.911" stroke="#141414" stroke-width="0.4"/>
<line x1="108.595" y1="230.911" x2="86.905" y2="230.911" stroke="#141414" stroke-width="0.4"/>
<line x1="108.595" y1="121.158" x2="115.595" y2="133.444" stroke="#141414" stroke-width="0.4"/>
<line x1="115.595" y1="133.444" x2="115.595" y2="190.778" stroke="#141414" stroke-width="0.4"/>
<line x1="115.595" y1="190.778" x2="108.595" y2="203.063" stroke="#141414" stroke-width="0.4"/>
<line x1="86.905" y1="121.158" x2="79.905" y2="116.981" stroke="#141414" stroke-width="0.4"/>
<line x1="79.905" y1="116.981" x2="79.905" y2="97.487" stroke="#141414" stroke-width="0.4"/>
<line x1="79.905" y1="97.487" x2="86.905" y2="93.31" stroke="#141414" stroke-width="0.4"/>
<line x1="86.905" y1="121.158" x2="79.905" y2="133.444" stroke="#141414" stroke-width="0.4"/>
<line x1="79.905" y1="133.444" x2="79.905" y2="190.778" stroke="#141414" stroke-width="0.4"/>
<line x1="79.905" y1="190.778" x2="86.905" y2="203.063" stroke="#141414" stroke-width="0.4"/>
<line x1="108.595" y1="93.31" x2="120.88" y2="86.31" stroke="#141414" stroke-width="0.4"/>
<line x1="120.88" y1="86.31" x2="178.214" y2="86.31" stroke="#141414" stroke-width="0.4"/>
<line x1="178.214" y1="86.31" x2="190.5" y2="93.31" stroke="#141414" stroke-width="0.4"/>
<line x1="5.0" y1="230.911" x2="17.286" y2="237.911" stroke="#141414" stroke-width="0.4"/>
<line x1="17.286" y1="237.911" x2="74.619" y2="237.911" stroke="#141414" stroke-width="0.4"/>
<line x1="74.619" y1="237.911" x2="86.905" y2="230.911" stroke="#141414" stroke-width="0.4"/>
<line x1="190.5" y1="121.158" x2="197.5" y2="116.981" stroke="#141414" stroke-width="0.4"/>
<line x1="197.5" y1="116.981" x2="197.5" y2="97.487" stroke="#141414" stroke-width="0.4"/>
<line x1="197.5" y1="97.487" x2="190.5" y2="93.31" stroke="#141414" stroke-width="0.4"/>
<line x1="108.595" y1="11.405" x2="105.341" y2="4.405" stroke="#141414" stroke-width="0.4"/>
<line x1="105.341" y1="4.405" x2="90.159" y2="4.405" stroke="#141414" stroke-width="0.4"/>
<line x1="90.159" y1="4.405" x2="86.905" y2="11.405" stroke="#141414" stroke-width="0.4"/>
<circle cx="112.095" cy="162.111" r="2.69" fill="#99d9fa" stroke="#464646" stroke-width="0.2"/>
<text x="112.095" y="163.39" font-size="3.65" text-anchor="middle" fill="#141414">1</text>
<circle cx="83.405" cy="107.234" r="2.69" fill="#ffe082" stroke="#464646" stroke-width="0.2"/>
<text x="83.405" y="108.51" font-size="3.65" text-anchor="middle" fill="#141414">2</text>
<circle cx="83.405" cy="162.111" r="2.69" fill="#ffe082" stroke="#464646" stroke-width="0.2"/>
<text x="83.405" y="163.39" font-size="3.65" text-anchor="middle" fill="#141414">3</text>
<circle cx="149.547" cy="89.81" r="2.69" fill="#ffe082" stroke="#464646" stroke-width="0.2"/>
<text x="149.547" y="91.09" font-size="3.65" text-anchor="middle" fill="#141414">4</text>
<circle cx="45.953" cy="234.411" r="2.69" fill="#ffe082" stroke="#464646" stroke-width="0.2"/>
<text x="45.953" y="235.69" font-size="3.65" text-anchor="middle" fill="#141414">5</text>
<circle cx="194.0" cy="107.234" r="2.69" fill="#ffe082" stroke="#464646" stroke-width="0.2"/>
<text x="194.0" y="108.51" font-size="3.65" text-anchor="middle" fill="#141414">6</text>
<circle cx="97.75" cy="7.905" r="2.69" fill="#ffe082" stroke="#464646" stroke-width="0.2"/>
<text x="97.75" y="9.18" font-size="3.65" text-anchor="middle" fill="#141414">7</text>
<circle cx="135.897" cy="111.876" r="4.60" fill="#eaf1fe" stroke="#2e78e6" stroke-width="0.3"/>
<text x="135.897" y="113.68" font-size="5.20" text-anchor="middle" fill="#14306e" font-weight="bold">1</text>
<text x="205.0" y="295.0" font-size="3.2" text-anchor="end" fill="#737373" font-family="sans-serif">1 / 3</text>
<g pointer-events="none"><text x="105.0" y="83.2" text-anchor="middle" font-family="sans-serif" font-size="12.4" fill="#9aa0a6" fill-opacity="0.3" transform="rotate(-28 105.0 83.2)">papercraft.kr</text><text x="105.0" y="148.5" text-anchor="middle" font-family="sans-serif" font-size="12.4" fill="#9aa0a6" fill-opacity="0.3" transform="rotate(-28 105.0 148.5)">papercraft.kr</text><text x="105.0" y="213.8" text-anchor="middle" font-family="sans-serif" font-size="12.4" fill="#9aa0a6" fill-opacity="0.3" transform="rotate(-28 105.0 213.8)">papercraft.kr</text></g></svg>
