<svg xmlns="http://www.w3.org/2000/svg" xmlns:xlink="http://www.w3.org/1999/xlink" width="210.00mm" height="297.00mm" viewBox="0 0 210.00 297.00">
<rect x="0" y="0" width="210.00" height="297.00" fill="#ffffff" stroke="#cccccc" stroke-width="0.2"/>
<polygon points="32.47,242.26 29.621,249.26 16.327,249.26 13.478,242.26" fill="rgb(216,216,216)"/>
<polygon points="13.478,242.26 6.478,215.008 6.478,87.832 13.478,60.58" fill="rgb(216,216,216)"/>
<polygon points="32.47,60.58 39.535,53.58 72.507,53.58 79.572,60.58" fill="rgb(216,216,216)"/>
<polygon points="79.572,242.26 86.572,215.008 86.572,87.832 79.572,60.58" fill="rgb(216,216,216)"/>
<polygon points="32.47,13.478 29.621,6.478 16.327,6.478 13.478,13.478" fill="rgb(216,216,216)"/>
<polygon points="32.47,60.58 39.535,53.58 72.507,53.58 79.572,60.58" fill="#99d9fa"/>
<line x1="32.47" y1="60.58" x2="32.47" y2="242.26" stroke="#8c8c8c" stroke-width="0.3" stroke-dasharray="1.2,0.8"/>
<line x1="13.478" y1="60.58" x2="32.47" y2="60.58" stroke="#8c8c8c" stroke-width="0.3" stroke-dasharray="1.2,0.8"/>
<line x1="13.478" y1="242.26" x2="32.47" y2="242.26" stroke="#8c8c8c" stroke-width="0.3" stroke-dasharray="1.2,0.8"/>
<line x1="13.478" y1="60.58" x2="13.478" y2="242.26" stroke="#8c8c8c" stroke-width="0.3" stroke-dasharray="1.2,0.8"/>
<line x1="79.572" y1="60.58" x2="32.47" y2="60.58" stroke="#8c8c8c" stroke-width="0.3" stroke-dasharray="1.2,0.8"/>
<line x1="79.572" y1="60.58" x2="79.572" y2="242.26" stroke="#8c8c8c" stroke-width="0.3" stroke-dasharray="1.2,0.8"/>
<line x1="13.478" y1="13.478" x2="32.47" y2="13.478" stroke="#8c8c8c" stroke-width="0.3" stroke-dasharray="1.2,0.8"/>
<line x1="79.572" y1="242.26" x2="32.47" y2="242.26" stroke="#141414" stroke-width="0.4"/>
<line x1="32.47" y1="13.478" x2="32.47" y2="60.58" stroke="#141414" stroke-width="0.4"/>
<line x1="13.478" y1="60.58" x2="13.478" y2="13.478" stroke="#141414" stroke-width="0.4"/>
<line x1="32.47" y1="242.26" x2="29.621" y2="249.26" stroke="#141414" stroke-width="0.4"/>
<line x1="29.621" y1="249.26" x2="16.327" y2="249.26" stroke="#141414" stroke-width="0.4"/>
<line x1="16.327" y1="249.26" x2="13.478" y2="242.26" stroke="#141414" stroke-width="0.4"/>
<line x1="13.478" y1="242.26" x2="6.478" y2="215.008" stroke="#141414" stroke-width="0.4"/>
<line x1="6.478" y1="215.008" x2="6.478" y2="87.832" stroke="#141414" stroke-width="0.4"/>
<line x1="6.478" y1="87.832" x2="13.478" y2="60.58" stroke="#141414" stroke-width="0.4"/>
<line x1="32.47" y1="60.58" x2="39.535" y2="53.58" stroke="#141414" stroke-width="0.4"/>
<line x1="39.535" y1="53.58" x2="72.507" y2="53.58" stroke="#141414" stroke-width="0.4"/>
<line x1="72.507" y1="53.58" x2="79.572" y2="60.58" stroke="#141414" stroke-width="0.4"/>
<line x1="79.572" y1="242.26" x2="86.572" y2="215.008" stroke="#141414" stroke-width="0.4"/>
<line x1="86.572" y1="215.008" x2="86.572" y2="87.832" stroke="#141414" stroke-width="0.4"/>
<line x1="86.572" y1="87.832" x2="79.572" y2="60.58" stroke="#141414" stroke-width="0.4"/>
<line x1="32.47" y1="13.478" x2="29.621" y2="6.478" stroke="#141414" stroke-width="0.4"/>
<line x1="29.621" y1="6.478" x2="16.327" y2="6.478" stroke="#141414" stroke-width="0.4"/>
<line x1="16.327" y1="6.478" x2="13.478" y2="13.478" stroke="#141414" stroke-width="0.4"/>
<circle cx="22.974" cy="245.76" r="3.08" fill="#ffe082" stroke="#464646" stroke-width="0.2"/>
<text x="22.974" y="246.82" font-size="3.02" text-anchor="middle" fill="#141414">1</text>
<circle cx="9.978" cy="151.42" r="3.08" fill="#ffe082" stroke="#464646" stroke-width="0.2"/>
<text x="9.978" y="152.48" font-size="3.02" text-anchor="middle" fill="#141414">2</text>
<circle cx="56.021" cy="57.08" r="3.08" fill="#99d9fa" stroke="#464646" stroke-width="0.2"/>
<text x="56.021" y="58.14" font-size="3.02" text-anchor="middle" fill="#141414">3</text>
<circle cx="83.072" cy="151.42" r="3.08" fill="#ffe082" stroke="#464646" stroke-width="0.2"/>
<text x="83.072" y="152.48" font-size="3.02" text-anchor="middle" fill="#141414">4</text>
<circle cx="22.974" cy="9.978" r="3.08" fill="#ffe082" stroke="#464646" stroke-width="0.2"/>
<text x="22.974" y="11.03" font-size="3.02" text-anchor="middle" fill="#141414">5</text>
<circle cx="63.871" cy="121.14" r="4.60" fill="#eaf1fe" stroke="#2e78e6" stroke-width="0.3"/>
<text x="63.871" y="122.94" font-size="5.20" text-anchor="middle" fill="#14306e" font-weight="bold">1</text>
<polygon points="126.852,230.484 122.31,237.484 101.114,237.484 96.572,230.484" fill="rgb(216,216,216)"/>
<polygon points="96.572,230.484 89.572,204.242 89.572,81.776 96.572,55.534" fill="rgb(216,216,216)"/>
<polygon points="126.852,55.534 133.16,48.534 162.599,48.534 168.907,55.534" fill="rgb(216,216,216)"/>
<polygon points="168.907,230.484 175.907,204.242 175.907,81.776 168.907,55.534" fill="rgb(216,216,216)"/>
<polygon points="126.852,13.478 122.31,6.478 101.114,6.478 96.572,13.478" fill="rgb(216,216,216)"/>
<polygon points="126.852,55.534 133.16,48.534 162.599,48.534 168.907,55.534" fill="#99d9fa"/>
<line x1="126.852" y1="55.534" x2="126.852" y2="230.484" stroke="#8c8c8c" stroke-width="0.3" stroke-dasharray="1.2,0.8"/>
<line x1="96.572" y1="55.534" x2="126.852" y2="55.534" stroke="#8c8c8c" stroke-width="0.3" stroke-dasharray="1.2,0.8"/>
<line x1="96.572" y1="230.484" x2="126.852" y2="230.484" stroke="#8c8c8c" stroke-width="0.3" stroke-dasharray="1.2,0.8"/>
<line x1="96.572" y1="55.534" x2="96.572" y2="230.484" stroke="#8c8c8c" stroke-width="0.3" stroke-dasharray="1.2,0.8"/>
<line x1="168.907" y1="55.534" x2="126.852" y2="55.534" stroke="#8c8c8c" stroke-width="0.3" stroke-dasharray="1.2,0.8"/>
<line x1="168.907" y1="55.534" x2="168.907" y2="230.484" stroke="#8c8c8c" stroke-width="0.3" stroke-dasharray="1.2,0.8"/>
<line x1="96.572" y1="13.478" x2="126.852" y2="13.478" stroke="#8c8c8c" stroke-width="0.3" stroke-dasharray="1.2,0.8"/>
<line x1="168.907" y1="230.484" x2="126.852" y2="230.484" stroke="#141414" stroke-width="0.4"/>
<line x1="126.852" y1="13.478" x2="126.852" y2="55.534" stroke="#141414" stroke-width="0.4"/>
<line x1="96.572" y1="55.534" x2="96.572" y2="13.478" stroke="#141414" stroke-width="0.4"/>
<line x1="126.852" y1="230.484" x2="122.31" y2="237.484" stroke="#141414" stroke-width="0.4"/>
<line x1="122.31" y1="237.484" x2="101.114" y2="237.484" stroke="#141414" stroke-width="0.4"/>
<line x1="101.114" y1="237.484" x2="96.572" y2="230.484" stroke="#141414" stroke-width="0.4"/>
<line x1="96.572" y1="230.484" x2="89.572" y2="204.242" stroke="#141414" stroke-width="0.4"/>
<line x1="89.572" y1="204.242" x2="89.572" y2="81.776" stroke="#141414" stroke-width="0.4"/>
<line x1="89.572" y1="81.776" x2="96.572" y2="55.534" stroke="#141414" stroke-width="0.4"/>
<line x1="126.852" y1="55.534" x2="133.16" y2="48.534" stroke="#141414" stroke-width="0.4"/>
<line x1="133.16" y1="48.534" x2="162.599" y2="48.534" stroke="#141414" stroke-width="0.4"/>
<line x1="162.599" y1="48.534" x2="168.907" y2="55.534" stroke="#141414" stroke-width="0.4"/>
<line x1="168.907" y1="230.484" x2="175.907" y2="204.242" stroke="#141414" stroke-width="0.4"/>
<line x1="175.907" y1="204.242" x2="175.907" y2="81.776" stroke="#141414" stroke-width="0.4"/>
<line x1="175.907" y1="81.776" x2="168.907" y2="55.534" stroke="#141414" stroke-width="0.4"/>
<line x1="126.852" y1="13.478" x2="122.31" y2="6.478" stroke="#141414" stroke-width="0.4"/>
<line x1="122.31" y1="6.478" x2="101.114" y2="6.478" stroke="#141414" stroke-width="0.4"/>
<line x1="101.114" y1="6.478" x2="96.572" y2="13.478" stroke="#141414" stroke-width="0.4"/>
<circle cx="111.712" cy="233.984" r="3.08" fill="#ffe082" stroke="#464646" stroke-width="0.2"/>
<text x="111.712" y="235.04" font-size="3.02" text-anchor="middle" fill="#141414">9</text>
<circle cx="93.072" cy="143.009" r="3.08" fill="#ffe082" stroke="#464646" stroke-width="0.2"/>
<text x="93.072" y="144.07" font-size="3.02" text-anchor="middle" fill="#141414">10</text>
<circle cx="147.879" cy="52.034" r="3.08" fill="#99d9fa" stroke="#464646" stroke-width="0.2"/>
<text x="147.879" y="53.09" font-size="3.02" text-anchor="middle" fill="#141414">11</text>
<circle cx="172.407" cy="143.009" r="3.08" fill="#ffe082" stroke="#464646" stroke-width="0.2"/>
<text x="172.407" y="144.07" font-size="3.02" text-anchor="middle" fill="#141414">12</text>
<circle cx="111.712" cy="9.978" r="3.08" fill="#ffe082" stroke="#464646" stroke-width="0.2"/>
<text x="111.712" y="11.03" font-size="3.02" text-anchor="middle" fill="#141414">13</text>
<circle cx="154.889" cy="113.851" r="4.60" fill="#eaf1fe" stroke="#2e78e6" stroke-width="0.3"/>
<text x="154.889" y="115.65" font-size="5.20" text-anchor="middle" fill="#14306e" font-weight="bold">3</text>
<text x="205.0" y="295.0" font-size="3.2" text-anchor="end" fill="#737373" font-family="sans-serif">1 / 7</text>
<g pointer-events="none"><text x="105.0" y="83.2" text-anchor="middle" font-family="sans-serif" font-size="12.4" fill="#9aa0a6" fill-opacity="0.3" transform="rotate(-28 105.0 83.2)">papercraft.kr</text><text x="105.0" y="148.5" text-anchor="middle" font-family="sans-serif" font-size="12.4" fill="#9aa0a6" fill-opacity="0.3" transform="rotate(-28 105.0 148.5)">papercraft.kr</text><text x="105.0" y="213.8" text-anchor="middle" font-family="sans-serif" font-size="12.4" fill="#9aa0a6" fill-opacity="0.3" transform="rotate(-28 105.0 213.8)">papercraft.kr</text></g></svg>
