<svg xmlns="http://www.w3.org/2000/svg" xmlns:xlink="http://www.w3.org/1999/xlink" width="210.00mm" height="297.00mm" viewBox="0 0 210.00 297.00">
<rect x="0" y="0" width="210.00" height="297.00" fill="#ffffff" stroke="#cccccc" stroke-width="0.2"/>
<polygon points="72.398,130.362 79.398,139.121 79.398,179.996 72.398,188.755" fill="rgb(216,216,216)"/>
<polygon points="63.393,130.362 56.393,121.603 56.393,80.728 63.393,71.969" fill="rgb(216,216,216)"/>
<polygon points="63.393,130.362 56.393,139.121 56.393,179.996 63.393,188.755" fill="rgb(216,216,216)"/>
<polygon points="72.398,71.969 81.157,64.969 122.032,64.969 130.791,71.969" fill="rgb(216,216,216)"/>
<polygon points="5.0,247.148 13.759,254.148 54.634,254.148 63.393,247.148" fill="rgb(216,216,216)"/>
<polygon points="130.791,130.362 137.791,121.603 137.791,80.728 130.791,71.969" fill="rgb(216,216,216)"/>
<polygon points="72.398,13.576 71.047,9.074 64.744,9.074 63.393,13.576" fill="rgb(216,216,216)"/>
<polygon points="72.398,130.362 79.398,139.121 79.398,179.996 72.398,188.755" fill="#99d9fa"/>
<line x1="72.398" y1="130.362" x2="63.393" y2="130.362" stroke="#8c8c8c" stroke-width="0.3" stroke-dasharray="1.2,0.8"/>
<line x1="72.398" y1="71.969" x2="72.398" y2="130.362" stroke="#8c8c8c" stroke-width="0.3" stroke-dasharray="1.2,0.8"/>
<line x1="63.393" y1="71.969" x2="72.398" y2="71.969" stroke="#8c8c8c" stroke-width="0.3" stroke-dasharray="1.2,0.8"/>
<line x1="72.398" y1="188.755" x2="63.393" y2="188.755" stroke="#8c8c8c" stroke-width="0.3" stroke-dasharray="1.2,0.8"/>
<line x1="63.393" y1="188.755" x2="63.393" y2="247.148" stroke="#8c8c8c" stroke-width="0.3" stroke-dasharray="1.2,0.8"/>
<line x1="72.398" y1="188.755" x2="72.398" y2="130.362" stroke="#8c8c8c" stroke-width="0.3" stroke-dasharray="1.2,0.8"/>
<line x1="63.393" y1="71.969" x2="63.393" y2="130.362" stroke="#8c8c8c" stroke-width="0.3" stroke-dasharray="1.2,0.8"/>
<line x1="63.393" y1="188.755" x2="63.393" y2="130.362" stroke="#8c8c8c" stroke-width="0.3" stroke-dasharray="1.2,0.8"/>
<line x1="130.791" y1="71.969" x2="72.398" y2="71.969" stroke="#8c8c8c" stroke-width="0.3" stroke-dasharray="1.2,0.8"/>
<line x1="63.393" y1="247.148" x2="5.0" y2="247.148" stroke="#8c8c8c" stroke-width="0.3" stroke-dasharray="1.2,0.8"/>
<line x1="130.791" y1="71.969" x2="130.791" y2="130.362" stroke="#8c8c8c" stroke-width="0.3" stroke-dasharray="1.2,0.8"/>
<line x1="63.393" y1="13.576" x2="72.398" y2="13.576" stroke="#8c8c8c" stroke-width="0.3" stroke-dasharray="1.2,0.8"/>
<line x1="130.791" y1="130.362" x2="72.398" y2="130.362" stroke="#141414" stroke-width="0.4"/>
<line x1="5.0" y1="247.148" x2="5.0" y2="188.755" stroke="#141414" stroke-width="0.4"/>
<line x1="5.0" y1="188.755" x2="63.393" y2="188.755" stroke="#141414" stroke-width="0.4"/>
<line x1="72.398" y1="13.576" x2="72.398" y2="71.969" stroke="#141414" stroke-width="0.4"/>
<line x1="63.393" y1="71.969" x2="63.393" y2="13.576" stroke="#141414" stroke-width="0.4"/>
<line x1="72.398" y1="188.755" x2="72.398" y2="247.148" stroke="#141414" stroke-width="0.4"/>
<line x1="72.398" y1="247.148" x2="63.393" y2="247.148" stroke="#141414" stroke-width="0.4"/>
<line x1="72.398" y1="130.362" x2="79.398" y2="139.121" stroke="#141414" stroke-width="0.4"/>
<line x1="79.398" y1="139.121" x2="79.398" y2="179.996" stroke="#141414" stroke-width="0.4"/>
<line x1="79.398" y1="179.996" x2="72.398" y2="188.755" stroke="#141414" stroke-width="0.4"/>
<line x1="63.393" y1="130.362" x2="56.393" y2="121.603" stroke="#141414" stroke-width="0.4"/>
<line x1="56.393" y1="121.603" x2="56.393" y2="80.728" stroke="#141414" stroke-width="0.4"/>
<line x1="56.393" y1="80.728" x2="63.393" y2="71.969" stroke="#141414" stroke-width="0.4"/>
<line x1="63.393" y1="130.362" x2="56.393" y2="139.121" stroke="#141414" stroke-width="0.4"/>
<line x1="56.393" y1="139.121" x2="56.393" y2="179.996" stroke="#141414" stroke-width="0.4"/>
<line x1="56.393" y1="179.996" x2="63.393" y2="188.755" stroke="#141414" stroke-width="0.4"/>
<line x1="72.398" y1="71.969" x2="81.157" y2="64.969" stroke="#141414" stroke-width="0.4"/>
<line x1="81.157" y1="64.969" x2="122.032" y2="64.969" stroke="#141414" stroke-width="0.4"/>
<line x1="122.032" y1="64.969" x2="130.791" y2="71.969" stroke="#141414" stroke-width="0.4"/>
<line x1="5.0" y1="247.148" x2="13.759" y2="254.148" stroke="#141414" stroke-width="0.4"/>
<line x1="13.759" y1="254.148" x2="54.634" y2="254.148" stroke="#141414" stroke-width="0.4"/>
<line x1="54.634" y1="254.148" x2="63.393" y2="247.148" stroke="#141414" stroke-width="0.4"/>
<line x1="130.791" y1="130.362" x2="137.791" y2="121.603" stroke="#141414" stroke-width="0.4"/>
<line x1="137.791" y1="121.603" x2="137.791" y2="80.728" stroke="#141414" stroke-width="0.4"/>
<line x1="137.791" y1="80.728" x2="130.791" y2="71.969" stroke="#141414" stroke-width="0.4"/>
<line x1="72.398" y1="13.576" x2="71.047" y2="9.074" stroke="#141414" stroke-width="0.4"/>
<line x1="71.047" y1="9.074" x2="64.744" y2="9.074" stroke="#141414" stroke-width="0.4"/>
<line x1="64.744" y1="9.074" x2="63.393" y2="13.576" stroke="#141414" stroke-width="0.4"/>
<circle cx="75.898" cy="159.558" r="1.88" fill="#99d9fa" stroke="#464646" stroke-width="0.2"/>
<text x="75.898" y="160.20" font-size="1.84" text-anchor="middle" fill="#141414">8</text>
<circle cx="59.893" cy="101.166" r="1.88" fill="#ffe082" stroke="#464646" stroke-width="0.2"/>
<text x="59.893" y="101.81" font-size="1.84" text-anchor="middle" fill="#141414">9</text>
<circle cx="59.893" cy="159.558" r="1.88" fill="#ffe082" stroke="#464646" stroke-width="0.2"/>
<text x="59.893" y="160.20" font-size="1.84" text-anchor="middle" fill="#141414">10</text>
<circle cx="101.594" cy="68.469" r="1.88" fill="#ffe082" stroke="#464646" stroke-width="0.2"/>
<text x="101.594" y="69.11" font-size="1.84" text-anchor="middle" fill="#141414">11</text>
<circle cx="34.196" cy="250.648" r="1.88" fill="#ffe082" stroke="#464646" stroke-width="0.2"/>
<text x="34.196" y="251.29" font-size="1.84" text-anchor="middle" fill="#141414">12</text>
<circle cx="134.291" cy="101.166" r="1.88" fill="#ffe082" stroke="#464646" stroke-width="0.2"/>
<text x="134.291" y="101.81" font-size="1.84" text-anchor="middle" fill="#141414">13</text>
<circle cx="67.895" cy="11.325" r="1.88" fill="#ffe082" stroke="#464646" stroke-width="0.2"/>
<text x="67.895" y="11.97" font-size="1.84" text-anchor="middle" fill="#141414">14</text>
<circle cx="111.326" cy="91.433" r="4.60" fill="#eaf1fe" stroke="#2e78e6" stroke-width="0.3"/>
<text x="111.326" y="93.23" font-size="5.20" text-anchor="middle" fill="#14306e" font-weight="bold">2</text>
<polygon points="172.724,27.056 170.972,32.895 162.797,32.895 161.045,27.056" fill="rgb(216,216,216)"/>
<polygon points="172.724,16.679 174.476,10.839 182.651,10.839 184.402,16.679" fill="rgb(216,216,216)"/>
<polygon points="172.724,16.679 170.972,10.839 162.797,10.839 161.045,16.679" fill="rgb(216,216,216)"/>
<polygon points="184.402,27.056 190.242,28.808 190.242,36.983 184.402,38.734" fill="rgb(216,216,216)"/>
<polygon points="149.367,5.0 143.528,6.752 143.528,14.927 149.367,16.679" fill="rgb(216,216,216)"/>
<polygon points="172.724,38.734 174.476,44.574 182.651,44.574 184.402,38.734" fill="rgb(216,216,216)"/>
<polygon points="196.081,27.056 201.27,25.499 201.27,18.235 196.081,16.679" fill="rgb(216,216,216)"/>
<polygon points="172.724,27.056 170.972,32.895 162.797,32.895 161.045,27.056" fill="#99d9fa"/>
<line x1="172.724" y1="27.056" x2="172.724" y2="16.679" stroke="#8c8c8c" stroke-width="0.3" stroke-dasharray="1.2,0.8"/>
<line x1="184.402" y1="27.056" x2="172.724" y2="27.056" stroke="#8c8c8c" stroke-width="0.3" stroke-dasharray="1.2,0.8"/>
<line x1="184.402" y1="16.679" x2="184.402" y2="27.056" stroke="#8c8c8c" stroke-width="0.3" stroke-dasharray="1.2,0.8"/>
<line x1="161.045" y1="27.056" x2="161.045" y2="16.679" stroke="#8c8c8c" stroke-width="0.3" stroke-dasharray="1.2,0.8"/>
<line x1="161.045" y1="16.679" x2="149.367" y2="16.679" stroke="#8c8c8c" stroke-width="0.3" stroke-dasharray="1.2,0.8"/>
<line x1="161.045" y1="27.056" x2="172.724" y2="27.056" stroke="#8c8c8c" stroke-width="0.3" stroke-dasharray="1.2,0.8"/>
<line x1="184.402" y1="16.679" x2="172.724" y2="16.679" stroke="#8c8c8c" stroke-width="0.3" stroke-dasharray="1.2,0.8"/>
<line x1="161.045" y1="16.679" x2="172.724" y2="16.679" stroke="#8c8c8c" stroke-width="0.3" stroke-dasharray="1.2,0.8"/>
<line x1="184.402" y1="38.734" x2="184.402" y2="27.056" stroke="#8c8c8c" stroke-width="0.3" stroke-dasharray="1.2,0.8"/>
<line x1="149.367" y1="16.679" x2="149.367" y2="5.0" stroke="#8c8c8c" stroke-width="0.3" stroke-dasharray="1.2,0.8"/>
<line x1="184.402" y1="38.734" x2="172.724" y2="38.734" stroke="#8c8c8c" stroke-width="0.3" stroke-dasharray="1.2,0.8"/>
<line x1="196.081" y1="16.679" x2="196.081" y2="27.056" stroke="#8c8c8c" stroke-width="0.3" stroke-dasharray="1.2,0.8"/>
<line x1="172.724" y1="38.734" x2="172.724" y2="27.056" stroke="#141414" stroke-width="0.4"/>
<line x1="149.367" y1="5.0" x2="161.045" y2="5.0" stroke="#141414" stroke-width="0.4"/>
<line x1="161.045" y1="5.0" x2="161.045" y2="16.679" stroke="#141414" stroke-width="0.4"/>
<line x1="196.081" y1="27.056" x2="184.402" y2="27.056" stroke="#141414" stroke-width="0.4"/>
<line x1="184.402" y1="16.679" x2="196.081" y2="16.679" stroke="#141414" stroke-width="0.4"/>
<line x1="161.045" y1="27.056" x2="149.367" y2="27.056" stroke="#141414" stroke-width="0.4"/>
<line x1="149.367" y1="27.056" x2="149.367" y2="16.679" stroke="#141414" stroke-width="0.4"/>
<line x1="172.724" y1="27.056" x2="170.972" y2="32.895" stroke="#141414" stroke-width="0.4"/>
<line x1="170.972" y1="32.895" x2="162.797" y2="32.895" stroke="#141414" stroke-width="0.4"/>
<line x1="162.797" y1="32.895" x2="161.045" y2="27.056" stroke="#141414" stroke-width="0.4"/>
<line x1="172.724" y1="16.679" x2="174.476" y2="10.839" stroke="#141414" stroke-width="0.4"/>
<line x1="174.476" y1="10.839" x2="182.651" y2="10.839" stroke="#141414" stroke-width="0.4"/>
<line x1="182.651" y1="10.839" x2="184.402" y2="16.679" stroke="#141414" stroke-width="0.4"/>
<line x1="172.724" y1="16.679" x2="170.972" y2="10.839" stroke="#141414" stroke-width="0.4"/>
<line x1="170.972" y1="10.839" x2="162.797" y2="10.839" stroke="#141414" stroke-width="0.4"/>
<line x1="162.797" y1="10.839" x2="161.045" y2="16.679" stroke="#141414" stroke-width="0.4"/>
<line x1="184.402" y1="27.056" x2="190.242" y2="28.808" stroke="#141414" stroke-width="0.4"/>
<line x1="190.242" y1="28.808" x2="190.242" y2="36.983" stroke="#141414" stroke-width="0.4"/>
<line x1="190.242" y1="36.983" x2="184.402" y2="38.734" stroke="#141414" stroke-width="0.4"/>
<line x1="149.367" y1="5.0" x2="143.528" y2="6.752" stroke="#141414" stroke-width="0.4"/>
<line x1="143.528" y1="6.752" x2="143.528" y2="14.927" stroke="#141414" stroke-width="0.4"/>
<line x1="143.528" y1="14.927" x2="149.367" y2="16.679" stroke="#141414" stroke-width="0.4"/>
<line x1="172.724" y1="38.734" x2="174.476" y2="44.574" stroke="#141414" stroke-width="0.4"/>
<line x1="174.476" y1="44.574" x2="182.651" y2="44.574" stroke="#141414" stroke-width="0.4"/>
<line x1="182.651" y1="44.574" x2="184.402" y2="38.734" stroke="#141414" stroke-width="0.4"/>
<line x1="196.081" y1="27.056" x2="201.27" y2="25.499" stroke="#141414" stroke-width="0.4"/>
<line x1="201.27" y1="25.499" x2="201.27" y2="18.235" stroke="#141414" stroke-width="0.4"/>
<line x1="201.27" y1="18.235" x2="196.081" y2="16.679" stroke="#141414" stroke-width="0.4"/>
<circle cx="166.885" cy="29.975" r="1.88" fill="#99d9fa" stroke="#464646" stroke-width="0.2"/>
<text x="166.885" y="30.62" font-size="1.84" text-anchor="middle" fill="#141414">85</text>
<circle cx="178.563" cy="13.759" r="1.88" fill="#ffe082" stroke="#464646" stroke-width="0.2"/>
<text x="178.563" y="14.40" font-size="1.84" text-anchor="middle" fill="#141414">86</text>
<circle cx="166.885" cy="13.759" r="1.88" fill="#ffe082" stroke="#464646" stroke-width="0.2"/>
<text x="166.885" y="14.40" font-size="1.84" text-anchor="middle" fill="#141414">87</text>
<circle cx="187.322" cy="32.895" r="1.88" fill="#ffe082" stroke="#464646" stroke-width="0.2"/>
<text x="187.322" y="33.54" font-size="1.84" text-anchor="middle" fill="#141414">88</text>
<circle cx="146.447" cy="10.839" r="1.88" fill="#ffe082" stroke="#464646" stroke-width="0.2"/>
<text x="146.447" y="11.48" font-size="1.84" text-anchor="middle" fill="#141414">89</text>
<circle cx="178.563" cy="41.654" r="1.88" fill="#ffe082" stroke="#464646" stroke-width="0.2"/>
<text x="178.563" y="42.30" font-size="1.84" text-anchor="middle" fill="#141414">90</text>
<circle cx="198.675" cy="21.867" r="1.88" fill="#ffe082" stroke="#464646" stroke-width="0.2"/>
<text x="198.675" y="22.51" font-size="1.84" text-anchor="middle" fill="#141414">91</text>
<circle cx="176.617" cy="30.949" r="2.20" fill="#eaf1fe" stroke="#2e78e6" stroke-width="0.3"/>
<text x="176.617" y="31.81" font-size="2.60" text-anchor="middle" fill="#14306e" font-weight="bold">13</text>
<text x="205.0" y="295.0" font-size="3.2" text-anchor="end" fill="#737373" font-family="sans-serif">2 / 6</text>
</svg>
