<svg xmlns="http://www.w3.org/2000/svg" xmlns:xlink="http://www.w3.org/1999/xlink" width="210.00mm" height="297.00mm" viewBox="0 0 210.00 297.00">
<rect x="0" y="0" width="210.00" height="297.00" fill="#ffffff" stroke="#cccccc" stroke-width="0.2"/>
<polygon points="75.558,114.142 82.558,121.684 82.558,156.882 75.558,164.424" fill="rgb(216,216,216)"/>
<polygon points="55.283,114.142 48.283,106.599 48.283,71.401 55.283,63.859" fill="rgb(216,216,216)"/>
<polygon points="55.283,114.142 48.283,121.684 48.283,156.882 55.283,164.424" fill="rgb(216,216,216)"/>
<polygon points="75.558,63.859 83.1,56.859 118.298,56.859 125.841,63.859" fill="rgb(216,216,216)"/>
<polygon points="5.0,214.707 12.542,221.707 47.74,221.707 55.283,214.707" fill="rgb(216,216,216)"/>
<polygon points="125.841,114.142 132.841,106.599 132.841,71.401 125.841,63.859" fill="rgb(216,216,216)"/>
<polygon points="75.558,13.576 72.517,6.576 58.324,6.576 55.283,13.576" fill="rgb(216,216,216)"/>
<polygon points="75.558,114.142 82.558,121.684 82.558,156.882 75.558,164.424" fill="#99d9fa"/>
<line x1="75.558" y1="114.142" x2="55.283" y2="114.142" stroke="#8c8c8c" stroke-width="0.3" stroke-dasharray="1.2,0.8"/>
<line x1="75.558" y1="63.859" x2="75.558" y2="114.142" stroke="#8c8c8c" stroke-width="0.3" stroke-dasharray="1.2,0.8"/>
<line x1="55.283" y1="63.859" x2="75.558" y2="63.859" stroke="#8c8c8c" stroke-width="0.3" stroke-dasharray="1.2,0.8"/>
<line x1="75.558" y1="164.424" x2="55.283" y2="164.424" stroke="#8c8c8c" stroke-width="0.3" stroke-dasharray="1.2,0.8"/>
<line x1="55.283" y1="164.424" x2="55.283" y2="214.707" stroke="#8c8c8c" stroke-width="0.3" stroke-dasharray="1.2,0.8"/>
<line x1="75.558" y1="164.424" x2="75.558" y2="114.142" stroke="#8c8c8c" stroke-width="0.3" stroke-dasharray="1.2,0.8"/>
<line x1="55.283" y1="63.859" x2="55.283" y2="114.142" stroke="#8c8c8c" stroke-width="0.3" stroke-dasharray="1.2,0.8"/>
<line x1="55.283" y1="164.424" x2="55.283" y2="114.142" stroke="#8c8c8c" stroke-width="0.3" stroke-dasharray="1.2,0.8"/>
<line x1="125.841" y1="63.859" x2="75.558" y2="63.859" stroke="#8c8c8c" stroke-width="0.3" stroke-dasharray="1.2,0.8"/>
<line x1="55.283" y1="214.707" x2="5.0" y2="214.707" stroke="#8c8c8c" stroke-width="0.3" stroke-dasharray="1.2,0.8"/>
<line x1="125.841" y1="63.859" x2="125.841" y2="114.142" stroke="#8c8c8c" stroke-width="0.3" stroke-dasharray="1.2,0.8"/>
<line x1="55.283" y1="13.576" x2="75.558" y2="13.576" stroke="#8c8c8c" stroke-width="0.3" stroke-dasharray="1.2,0.8"/>
<line x1="125.841" y1="114.142" x2="75.558" y2="114.142" stroke="#141414" stroke-width="0.4"/>
<line x1="5.0" y1="214.707" x2="5.0" y2="164.424" stroke="#141414" stroke-width="0.4"/>
<line x1="5.0" y1="164.424" x2="55.283" y2="164.424" stroke="#141414" stroke-width="0.4"/>
<line x1="75.558" y1="13.576" x2="75.558" y2="63.859" stroke="#141414" stroke-width="0.4"/>
<line x1="55.283" y1="63.859" x2="55.283" y2="13.576" stroke="#141414" stroke-width="0.4"/>
<line x1="75.558" y1="164.424" x2="75.558" y2="214.707" stroke="#141414" stroke-width="0.4"/>
<line x1="75.558" y1="214.707" x2="55.283" y2="214.707" stroke="#141414" stroke-width="0.4"/>
<line x1="75.558" y1="114.142" x2="82.558" y2="121.684" stroke="#141414" stroke-width="0.4"/>
<line x1="82.558" y1="121.684" x2="82.558" y2="156.882" stroke="#141414" stroke-width="0.4"/>
<line x1="82.558" y1="156.882" x2="75.558" y2="164.424" stroke="#141414" stroke-width="0.4"/>
<line x1="55.283" y1="114.142" x2="48.283" y2="106.599" stroke="#141414" stroke-width="0.4"/>
<line x1="48.283" y1="106.599" x2="48.283" y2="71.401" stroke="#141414" stroke-width="0.4"/>
<line x1="48.283" y1="71.401" x2="55.283" y2="63.859" stroke="#141414" stroke-width="0.4"/>
<line x1="55.283" y1="114.142" x2="48.283" y2="121.684" stroke="#141414" stroke-width="0.4"/>
<line x1="48.283" y1="121.684" x2="48.283" y2="156.882" stroke="#141414" stroke-width="0.4"/>
<line x1="48.283" y1="156.882" x2="55.283" y2="164.424" stroke="#141414" stroke-width="0.4"/>
<line x1="75.558" y1="63.859" x2="83.1" y2="56.859" stroke="#141414" stroke-width="0.4"/>
<line x1="83.1" y1="56.859" x2="118.298" y2="56.859" stroke="#141414" stroke-width="0.4"/>
<line x1="118.298" y1="56.859" x2="125.841" y2="63.859" stroke="#141414" stroke-width="0.4"/>
<line x1="5.0" y1="214.707" x2="12.542" y2="221.707" stroke="#141414" stroke-width="0.4"/>
<line x1="12.542" y1="221.707" x2="47.74" y2="221.707" stroke="#141414" stroke-width="0.4"/>
<line x1="47.74" y1="221.707" x2="55.283" y2="214.707" stroke="#141414" stroke-width="0.4"/>
<line x1="125.841" y1="114.142" x2="132.841" y2="106.599" stroke="#141414" stroke-width="0.4"/>
<line x1="132.841" y1="106.599" x2="132.841" y2="71.401" stroke="#141414" stroke-width="0.4"/>
<line x1="132.841" y1="71.401" x2="125.841" y2="63.859" stroke="#141414" stroke-width="0.4"/>
<line x1="75.558" y1="13.576" x2="72.517" y2="6.576" stroke="#141414" stroke-width="0.4"/>
<line x1="72.517" y1="6.576" x2="58.324" y2="6.576" stroke="#141414" stroke-width="0.4"/>
<line x1="58.324" y1="6.576" x2="55.283" y2="13.576" stroke="#141414" stroke-width="0.4"/>
<circle cx="79.058" cy="139.283" r="3.08" fill="#99d9fa" stroke="#464646" stroke-width="0.2"/>
<text x="79.058" y="140.34" font-size="3.02" text-anchor="middle" fill="#141414">15</text>
<circle cx="51.783" cy="89.0" r="3.08" fill="#ffe082" stroke="#464646" stroke-width="0.2"/>
<text x="51.783" y="90.06" font-size="3.02" text-anchor="middle" fill="#141414">16</text>
<circle cx="51.783" cy="139.283" r="3.08" fill="#ffe082" stroke="#464646" stroke-width="0.2"/>
<text x="51.783" y="140.34" font-size="3.02" text-anchor="middle" fill="#141414">17</text>
<circle cx="100.699" cy="60.359" r="3.08" fill="#ffe082" stroke="#464646" stroke-width="0.2"/>
<text x="100.699" y="61.42" font-size="3.02" text-anchor="middle" fill="#141414">18</text>
<circle cx="30.141" cy="218.207" r="3.08" fill="#ffe082" stroke="#464646" stroke-width="0.2"/>
<text x="30.141" y="219.26" font-size="3.02" text-anchor="middle" fill="#141414">19</text>
<circle cx="129.341" cy="89.0" r="3.08" fill="#ffe082" stroke="#464646" stroke-width="0.2"/>
<text x="129.341" y="90.06" font-size="3.02" text-anchor="middle" fill="#141414">20</text>
<circle cx="65.42" cy="10.076" r="3.08" fill="#ffe082" stroke="#464646" stroke-width="0.2"/>
<text x="65.42" y="11.13" font-size="3.02" text-anchor="middle" fill="#141414">21</text>
<circle cx="109.08" cy="80.62" r="4.60" fill="#eaf1fe" stroke="#2e78e6" stroke-width="0.3"/>
<text x="109.08" y="82.42" font-size="5.20" text-anchor="middle" fill="#14306e" font-weight="bold">3</text>
<polygon points="60.29,261.582 56.787,268.582 40.437,268.582 36.933,261.582" fill="rgb(216,216,216)"/>
<polygon points="60.29,246.488 63.794,239.488 80.144,239.488 83.648,246.488" fill="rgb(216,216,216)"/>
<polygon points="60.29,246.488 56.787,239.488 40.437,239.488 36.933,246.488" fill="rgb(216,216,216)"/>
<polygon points="83.648,261.582 90.648,265.086 90.648,281.436 83.648,284.939" fill="rgb(216,216,216)"/>
<polygon points="13.576,223.131 6.576,226.635 6.576,242.985 13.576,246.488" fill="rgb(216,216,216)"/>
<polygon points="60.29,284.939 63.794,291.939 80.144,291.939 83.648,284.939" fill="rgb(216,216,216)"/>
<polygon points="107.005,261.582 114.005,259.318 114.005,248.752 107.005,246.488" fill="rgb(216,216,216)"/>
<polygon points="60.29,261.582 56.787,268.582 40.437,268.582 36.933,261.582" fill="#99d9fa"/>
<line x1="60.291" y1="261.582" x2="60.291" y2="246.488" stroke="#8c8c8c" stroke-width="0.3" stroke-dasharray="1.2,0.8"/>
<line x1="83.648" y1="261.582" x2="60.291" y2="261.582" stroke="#8c8c8c" stroke-width="0.3" stroke-dasharray="1.2,0.8"/>
<line x1="83.648" y1="246.488" x2="83.648" y2="261.582" stroke="#8c8c8c" stroke-width="0.3" stroke-dasharray="1.2,0.8"/>
<line x1="36.933" y1="261.582" x2="36.933" y2="246.488" stroke="#8c8c8c" stroke-width="0.3" stroke-dasharray="1.2,0.8"/>
<line x1="36.933" y1="246.488" x2="13.576" y2="246.488" stroke="#8c8c8c" stroke-width="0.3" stroke-dasharray="1.2,0.8"/>
<line x1="36.933" y1="261.582" x2="60.29" y2="261.582" stroke="#8c8c8c" stroke-width="0.3" stroke-dasharray="1.2,0.8"/>
<line x1="83.648" y1="246.488" x2="60.29" y2="246.488" stroke="#8c8c8c" stroke-width="0.3" stroke-dasharray="1.2,0.8"/>
<line x1="36.933" y1="246.488" x2="60.29" y2="246.488" stroke="#8c8c8c" stroke-width="0.3" stroke-dasharray="1.2,0.8"/>
<line x1="83.648" y1="284.939" x2="83.648" y2="261.582" stroke="#8c8c8c" stroke-width="0.3" stroke-dasharray="1.2,0.8"/>
<line x1="13.576" y1="246.488" x2="13.576" y2="223.131" stroke="#8c8c8c" stroke-width="0.3" stroke-dasharray="1.2,0.8"/>
<line x1="83.648" y1="284.939" x2="60.29" y2="284.939" stroke="#8c8c8c" stroke-width="0.3" stroke-dasharray="1.2,0.8"/>
<line x1="107.005" y1="246.488" x2="107.005" y2="261.582" stroke="#8c8c8c" stroke-width="0.3" stroke-dasharray="1.2,0.8"/>
<line x1="60.291" y1="284.939" x2="60.291" y2="261.582" stroke="#141414" stroke-width="0.4"/>
<line x1="13.576" y1="223.131" x2="36.933" y2="223.131" stroke="#141414" stroke-width="0.4"/>
<line x1="36.933" y1="223.131" x2="36.933" y2="246.488" stroke="#141414" stroke-width="0.4"/>
<line x1="107.005" y1="261.582" x2="83.648" y2="261.582" stroke="#141414" stroke-width="0.4"/>
<line x1="83.648" y1="246.488" x2="107.005" y2="246.488" stroke="#141414" stroke-width="0.4"/>
<line x1="36.933" y1="261.582" x2="13.576" y2="261.582" stroke="#141414" stroke-width="0.4"/>
<line x1="13.576" y1="261.582" x2="13.576" y2="246.488" stroke="#141414" stroke-width="0.4"/>
<line x1="60.29" y1="261.582" x2="56.787" y2="268.582" stroke="#141414" stroke-width="0.4"/>
<line x1="56.787" y1="268.582" x2="40.437" y2="268.582" stroke="#141414" stroke-width="0.4"/>
<line x1="40.437" y1="268.582" x2="36.933" y2="261.582" stroke="#141414" stroke-width="0.4"/>
<line x1="60.29" y1="246.488" x2="63.794" y2="239.488" stroke="#141414" stroke-width="0.4"/>
<line x1="63.794" y1="239.488" x2="80.144" y2="239.488" stroke="#141414" stroke-width="0.4"/>
<line x1="80.144" y1="239.488" x2="83.648" y2="246.488" stroke="#141414" stroke-width="0.4"/>
<line x1="60.29" y1="246.488" x2="56.787" y2="239.488" stroke="#141414" stroke-width="0.4"/>
<line x1="56.787" y1="239.488" x2="40.437" y2="239.488" stroke="#141414" stroke-width="0.4"/>
<line x1="40.437" y1="239.488" x2="36.933" y2="246.488" stroke="#141414" stroke-width="0.4"/>
<line x1="83.648" y1="261.582" x2="90.648" y2="265.086" stroke="#141414" stroke-width="0.4"/>
<line x1="90.648" y1="265.086" x2="90.648" y2="281.436" stroke="#141414" stroke-width="0.4"/>
<line x1="90.648" y1="281.436" x2="83.648" y2="284.939" stroke="#141414" stroke-width="0.4"/>
<line x1="13.576" y1="223.131" x2="6.576" y2="226.635" stroke="#141414" stroke-width="0.4"/>
<line x1="6.576" y1="226.635" x2="6.576" y2="242.985" stroke="#141414" stroke-width="0.4"/>
<line x1="6.576" y1="242.985" x2="13.576" y2="246.488" stroke="#141414" stroke-width="0.4"/>
<line x1="60.29" y1="284.939" x2="63.794" y2="291.939" stroke="#141414" stroke-width="0.4"/>
<line x1="63.794" y1="291.939" x2="80.144" y2="291.939" stroke="#141414" stroke-width="0.4"/>
<line x1="80.144" y1="291.939" x2="83.648" y2="284.939" stroke="#141414" stroke-width="0.4"/>
<line x1="107.005" y1="261.582" x2="114.005" y2="259.318" stroke="#141414" stroke-width="0.4"/>
<line x1="114.005" y1="259.318" x2="114.005" y2="248.752" stroke="#141414" stroke-width="0.4"/>
<line x1="114.005" y1="248.752" x2="107.005" y2="246.488" stroke="#141414" stroke-width="0.4"/>
<circle cx="48.612" cy="265.082" r="3.08" fill="#99d9fa" stroke="#464646" stroke-width="0.2"/>
<text x="48.612" y="266.14" font-size="3.02" text-anchor="middle" fill="#141414">71</text>
<circle cx="71.969" cy="242.988" r="3.08" fill="#ffe082" stroke="#464646" stroke-width="0.2"/>
<text x="71.969" y="244.04" font-size="3.02" text-anchor="middle" fill="#141414">72</text>
<circle cx="48.612" cy="242.988" r="3.08" fill="#ffe082" stroke="#464646" stroke-width="0.2"/>
<text x="48.612" y="244.04" font-size="3.02" text-anchor="middle" fill="#141414">73</text>
<circle cx="87.148" cy="273.261" r="3.08" fill="#ffe082" stroke="#464646" stroke-width="0.2"/>
<text x="87.148" y="274.32" font-size="3.02" text-anchor="middle" fill="#141414">74</text>
<circle cx="10.076" cy="234.81" r="3.08" fill="#ffe082" stroke="#464646" stroke-width="0.2"/>
<text x="10.076" y="235.87" font-size="3.02" text-anchor="middle" fill="#141414">75</text>
<circle cx="71.969" cy="288.439" r="3.08" fill="#ffe082" stroke="#464646" stroke-width="0.2"/>
<text x="71.969" y="289.50" font-size="3.02" text-anchor="middle" fill="#141414">76</text>
<circle cx="110.505" cy="254.035" r="3.08" fill="#ffe082" stroke="#464646" stroke-width="0.2"/>
<text x="110.505" y="255.09" font-size="3.02" text-anchor="middle" fill="#141414">77</text>
<circle cx="75.862" cy="277.154" r="4.40" fill="#eaf1fe" stroke="#2e78e6" stroke-width="0.3"/>
<text x="75.862" y="278.88" font-size="4.98" text-anchor="middle" fill="#14306e" font-weight="bold">11</text>
<polygon points="154.193,253.319 151.929,260.319 141.363,260.319 139.099,253.319" fill="rgb(216,216,216)"/>
<polygon points="154.193,238.225 156.457,231.225 167.023,231.225 169.287,238.225" fill="rgb(216,216,216)"/>
<polygon points="154.193,238.225 151.929,231.225 141.363,231.225 139.099,238.225" fill="rgb(216,216,216)"/>
<polygon points="169.287,253.319 176.287,255.583 176.287,266.149 169.287,268.413" fill="rgb(216,216,216)"/>
<polygon points="124.005,223.131 117.005,225.395 117.005,235.961 124.005,238.225" fill="rgb(216,216,216)"/>
<polygon points="154.193,268.413 156.457,275.413 167.023,275.413 169.287,268.413" fill="rgb(216,216,216)"/>
<polygon points="184.381,253.319 191.381,251.055 191.381,240.489 184.381,238.225" fill="rgb(216,216,216)"/>
<polygon points="154.193,253.319 151.929,260.319 141.363,260.319 139.099,253.319" fill="#99d9fa"/>
<line x1="154.193" y1="253.319" x2="154.193" y2="238.225" stroke="#8c8c8c" stroke-width="0.3" stroke-dasharray="1.2,0.8"/>
<line x1="169.287" y1="253.319" x2="154.193" y2="253.319" stroke="#8c8c8c" stroke-width="0.3" stroke-dasharray="1.2,0.8"/>
<line x1="169.287" y1="238.225" x2="169.287" y2="253.319" stroke="#8c8c8c" stroke-width="0.3" stroke-dasharray="1.2,0.8"/>
<line x1="139.099" y1="253.319" x2="139.099" y2="238.225" stroke="#8c8c8c" stroke-width="0.3" stroke-dasharray="1.2,0.8"/>
<line x1="139.099" y1="238.225" x2="124.005" y2="238.225" stroke="#8c8c8c" stroke-width="0.3" stroke-dasharray="1.2,0.8"/>
<line x1="139.099" y1="253.319" x2="154.193" y2="253.319" stroke="#8c8c8c" stroke-width="0.3" stroke-dasharray="1.2,0.8"/>
<line x1="169.287" y1="238.225" x2="154.193" y2="238.225" stroke="#8c8c8c" stroke-width="0.3" stroke-dasharray="1.2,0.8"/>
<line x1="139.099" y1="238.225" x2="154.193" y2="238.225" stroke="#8c8c8c" stroke-width="0.3" stroke-dasharray="1.2,0.8"/>
<line x1="169.287" y1="268.413" x2="169.287" y2="253.319" stroke="#8c8c8c" stroke-width="0.3" stroke-dasharray="1.2,0.8"/>
<line x1="124.005" y1="238.225" x2="124.005" y2="223.131" stroke="#8c8c8c" stroke-width="0.3" stroke-dasharray="1.2,0.8"/>
<line x1="169.287" y1="268.413" x2="154.193" y2="268.413" stroke="#8c8c8c" stroke-width="0.3" stroke-dasharray="1.2,0.8"/>
<line x1="184.381" y1="238.225" x2="184.381" y2="253.319" stroke="#8c8c8c" stroke-width="0.3" stroke-dasharray="1.2,0.8"/>
<line x1="154.193" y1="268.413" x2="154.193" y2="253.319" stroke="#141414" stroke-width="0.4"/>
<line x1="124.005" y1="223.131" x2="139.099" y2="223.131" stroke="#141414" stroke-width="0.4"/>
<line x1="139.099" y1="223.131" x2="139.099" y2="238.225" stroke="#141414" stroke-width="0.4"/>
<line x1="184.381" y1="253.319" x2="169.287" y2="253.319" stroke="#141414" stroke-width="0.4"/>
<line x1="169.287" y1="238.225" x2="184.381" y2="238.225" stroke="#141414" stroke-width="0.4"/>
<line x1="139.099" y1="253.319" x2="124.005" y2="253.319" stroke="#141414" stroke-width="0.4"/>
<line x1="124.005" y1="253.319" x2="124.005" y2="238.225" stroke="#141414" stroke-width="0.4"/>
<line x1="154.193" y1="253.319" x2="151.929" y2="260.319" stroke="#141414" stroke-width="0.4"/>
<line x1="151.929" y1="260.319" x2="141.363" y2="260.319" stroke="#141414" stroke-width="0.4"/>
<line x1="141.363" y1="260.319" x2="139.099" y2="253.319" stroke="#141414" stroke-width="0.4"/>
<line x1="154.193" y1="238.225" x2="156.457" y2="231.225" stroke="#141414" stroke-width="0.4"/>
<line x1="156.457" y1="231.225" x2="167.023" y2="231.225" stroke="#141414" stroke-width="0.4"/>
<line x1="167.023" y1="231.225" x2="169.287" y2="238.225" stroke="#141414" stroke-width="0.4"/>
<line x1="154.193" y1="238.225" x2="151.929" y2="231.225" stroke="#141414" stroke-width="0.4"/>
<line x1="151.929" y1="231.225" x2="141.363" y2="231.225" stroke="#141414" stroke-width="0.4"/>
<line x1="141.363" y1="231.225" x2="139.099" y2="238.225" stroke="#141414" stroke-width="0.4"/>
<line x1="169.287" y1="253.319" x2="176.287" y2="255.583" stroke="#141414" stroke-width="0.4"/>
<line x1="176.287" y1="255.583" x2="176.287" y2="266.149" stroke="#141414" stroke-width="0.4"/>
<line x1="176.287" y1="266.149" x2="169.287" y2="268.413" stroke="#141414" stroke-width="0.4"/>
<line x1="124.005" y1="223.131" x2="117.005" y2="225.395" stroke="#141414" stroke-width="0.4"/>
<line x1="117.005" y1="225.395" x2="117.005" y2="235.961" stroke="#141414" stroke-width="0.4"/>
<line x1="117.005" y1="235.961" x2="124.005" y2="238.225" stroke="#141414" stroke-width="0.4"/>
<line x1="154.193" y1="268.413" x2="156.457" y2="275.413" stroke="#141414" stroke-width="0.4"/>
<line x1="156.457" y1="275.413" x2="167.023" y2="275.413" stroke="#141414" stroke-width="0.4"/>
<line x1="167.023" y1="275.413" x2="169.287" y2="268.413" stroke="#141414" stroke-width="0.4"/>
<line x1="184.381" y1="253.319" x2="191.381" y2="251.055" stroke="#141414" stroke-width="0.4"/>
<line x1="191.381" y1="251.055" x2="191.381" y2="240.489" stroke="#141414" stroke-width="0.4"/>
<line x1="191.381" y1="240.489" x2="184.381" y2="238.225" stroke="#141414" stroke-width="0.4"/>
<circle cx="146.646" cy="256.819" r="3.08" fill="#99d9fa" stroke="#464646" stroke-width="0.2"/>
<text x="146.646" y="257.88" font-size="3.02" text-anchor="middle" fill="#141414">85</text>
<circle cx="161.74" cy="234.725" r="3.08" fill="#ffe082" stroke="#464646" stroke-width="0.2"/>
<text x="161.74" y="235.78" font-size="3.02" text-anchor="middle" fill="#141414">86</text>
<circle cx="146.646" cy="234.725" r="3.08" fill="#ffe082" stroke="#464646" stroke-width="0.2"/>
<text x="146.646" y="235.78" font-size="3.02" text-anchor="middle" fill="#141414">87</text>
<circle cx="172.787" cy="260.866" r="3.08" fill="#ffe082" stroke="#464646" stroke-width="0.2"/>
<text x="172.787" y="261.92" font-size="3.02" text-anchor="middle" fill="#141414">88</text>
<circle cx="120.505" cy="230.678" r="3.08" fill="#ffe082" stroke="#464646" stroke-width="0.2"/>
<text x="120.505" y="231.73" font-size="3.02" text-anchor="middle" fill="#141414">89</text>
<circle cx="161.74" cy="271.913" r="3.08" fill="#ffe082" stroke="#464646" stroke-width="0.2"/>
<text x="161.74" y="272.97" font-size="3.02" text-anchor="middle" fill="#141414">90</text>
<circle cx="187.881" cy="245.772" r="3.08" fill="#ffe082" stroke="#464646" stroke-width="0.2"/>
<text x="187.881" y="246.83" font-size="3.02" text-anchor="middle" fill="#141414">91</text>
<circle cx="159.224" cy="243.256" r="2.85" fill="#eaf1fe" stroke="#2e78e6" stroke-width="0.3"/>
<text x="159.224" y="244.37" font-size="3.22" text-anchor="middle" fill="#14306e" font-weight="bold">13</text>
<text x="205.0" y="295.0" font-size="3.2" text-anchor="end" fill="#737373" font-family="sans-serif">3 / 7</text>
</svg>
