<svg xmlns="http://www.w3.org/2000/svg" xmlns:xlink="http://www.w3.org/1999/xlink" width="210.00mm" height="297.00mm" viewBox="0 0 210.00 297.00">
<rect x="0" y="0" width="210.00" height="297.00" fill="#ffffff" stroke="#cccccc" stroke-width="0.2"/>
<polygon points="17.821,66.25 11.522,57.702 6.209,14.827 10.231,5.0" fill="rgb(216,216,216)"/>
<polygon points="17.821,66.25 24.464,72.019 57.467,74.755 64.968,70.159" fill="rgb(216,216,216)"/>
<polygon points="71.475,5.0 75.673,15.29 71.119,60.902 64.968,70.159" fill="rgb(216,216,216)"/>
<line x1="10.231" y1="5.0" x2="17.821" y2="66.25" stroke="#8c8c8c" stroke-width="0.3" stroke-dasharray="1.2,0.8"/>
<line x1="64.968" y1="70.159" x2="17.821" y2="66.25" stroke="#8c8c8c" stroke-width="0.3" stroke-dasharray="1.2,0.8"/>
<line x1="64.968" y1="70.159" x2="71.475" y2="5.0" stroke="#8c8c8c" stroke-width="0.3" stroke-dasharray="1.2,0.8"/>
<line x1="10.231" y1="5.0" x2="71.475" y2="5.0" stroke="#141414" stroke-width="0.4"/>
<line x1="17.821" y1="66.25" x2="11.522" y2="57.702" stroke="#141414" stroke-width="0.4"/>
<line x1="11.522" y1="57.702" x2="6.209" y2="14.827" stroke="#141414" stroke-width="0.4"/>
<line x1="6.209" y1="14.827" x2="10.231" y2="5.0" stroke="#141414" stroke-width="0.4"/>
<line x1="17.821" y1="66.25" x2="24.464" y2="72.019" stroke="#141414" stroke-width="0.4"/>
<line x1="24.464" y1="72.019" x2="57.467" y2="74.755" stroke="#141414" stroke-width="0.4"/>
<line x1="57.467" y1="74.755" x2="64.968" y2="70.159" stroke="#141414" stroke-width="0.4"/>
<line x1="71.475" y1="5.0" x2="75.673" y2="15.29" stroke="#141414" stroke-width="0.4"/>
<line x1="75.673" y1="15.29" x2="71.119" y2="60.902" stroke="#141414" stroke-width="0.4"/>
<line x1="71.119" y1="60.902" x2="64.968" y2="70.159" stroke="#141414" stroke-width="0.4"/>
<circle cx="11.446" cy="35.945" r="2.02" fill="#ffe082" stroke="#464646" stroke-width="0.2"/>
<text x="11.446" y="36.90" font-size="2.74" text-anchor="middle" fill="#141414">7</text>
<circle cx="41.18" cy="70.796" r="2.02" fill="#ffe082" stroke="#464646" stroke-width="0.2"/>
<text x="41.18" y="71.75" font-size="2.74" text-anchor="middle" fill="#141414">8</text>
<circle cx="70.809" cy="37.838" r="2.02" fill="#ffe082" stroke="#464646" stroke-width="0.2"/>
<text x="70.809" y="38.80" font-size="2.74" text-anchor="middle" fill="#141414">18</text>
<circle cx="33.176" cy="25.417" r="4.60" fill="#eaf1fe" stroke="#2e78e6" stroke-width="0.3"/>
<text x="33.176" y="27.22" font-size="5.20" text-anchor="middle" fill="#14306e" font-weight="bold">6</text>
<polygon points="77.464,207.86 87.401,212.12 131.43,207.849 140.362,201.758" fill="rgb(216,216,216)"/>
<polygon points="125.405,219.885 129.374,225.029 147.551,224.771 151.372,219.516" fill="rgb(216,216,216)"/>
<polygon points="104.479,11.418 107.52,6.218 121.711,6.218 124.752,11.418" fill="rgb(216,216,216)"/>
<polygon points="124.752,11.418 130.253,26.995 131.662,100.151 126.765,115.927" fill="rgb(216,216,216)"/>
<polygon points="151.372,219.516 158.137,214.075 166.206,182.645 162.898,174.617" fill="rgb(216,216,216)"/>
<line x1="112.499" y1="154.359" x2="140.362" y2="201.757" stroke="#8c8c8c" stroke-width="0.3" stroke-dasharray="1.2,0.8"/>
<line x1="119.557" y1="191.913" x2="140.362" y2="201.757" stroke="#8c8c8c" stroke-width="0.3" stroke-dasharray="1.2,0.8"/>
<line x1="126.765" y1="115.927" x2="104.479" y2="11.418" stroke="#8c8c8c" stroke-width="0.3" stroke-dasharray="1.2,0.8"/>
<line x1="126.765" y1="115.927" x2="143.531" y2="159.907" stroke="#8c8c8c" stroke-width="0.3" stroke-dasharray="1.2,0.8"/>
<line x1="172.956" y1="156.524" x2="126.765" y2="115.927" stroke="#8c8c8c" stroke-width="0.3" stroke-dasharray="1.2,0.8"/>
<line x1="140.362" y1="201.757" x2="107.619" y2="126.413" stroke="#8c8c8c" stroke-width="0.3" stroke-dasharray="1.2,0.8"/>
<line x1="107.619" y1="126.413" x2="143.531" y2="159.907" stroke="#8c8c8c" stroke-width="0.3" stroke-dasharray="1.2,0.8"/>
<line x1="107.619" y1="126.413" x2="126.765" y2="115.927" stroke="#8c8c8c" stroke-width="0.3" stroke-dasharray="1.2,0.8"/>
<line x1="140.362" y1="201.757" x2="151.372" y2="219.516" stroke="#8c8c8c" stroke-width="0.3" stroke-dasharray="1.2,0.8"/>
<line x1="143.531" y1="159.907" x2="140.362" y2="201.757" stroke="#8c8c8c" stroke-width="0.3" stroke-dasharray="1.2,0.8"/>
<line x1="140.362" y1="201.757" x2="162.899" y2="174.617" stroke="#8c8c8c" stroke-width="0.3" stroke-dasharray="1.2,0.8"/>
<line x1="140.362" y1="201.758" x2="77.464" y2="207.86" stroke="#8c8c8c" stroke-width="0.3" stroke-dasharray="1.2,0.8"/>
<line x1="151.372" y1="219.516" x2="125.405" y2="219.885" stroke="#8c8c8c" stroke-width="0.3" stroke-dasharray="1.2,0.8"/>
<line x1="124.752" y1="11.418" x2="104.479" y2="11.418" stroke="#8c8c8c" stroke-width="0.3" stroke-dasharray="1.2,0.8"/>
<line x1="126.765" y1="115.927" x2="124.752" y2="11.418" stroke="#8c8c8c" stroke-width="0.3" stroke-dasharray="1.2,0.8"/>
<line x1="162.898" y1="174.617" x2="151.372" y2="219.516" stroke="#8c8c8c" stroke-width="0.3" stroke-dasharray="1.2,0.8"/>
<line x1="77.464" y1="207.86" x2="119.557" y2="191.913" stroke="#141414" stroke-width="0.4"/>
<line x1="125.405" y1="219.885" x2="140.362" y2="201.757" stroke="#141414" stroke-width="0.4"/>
<line x1="119.557" y1="191.913" x2="112.499" y2="154.359" stroke="#141414" stroke-width="0.4"/>
<line x1="112.499" y1="154.359" x2="107.619" y2="126.413" stroke="#141414" stroke-width="0.4"/>
<line x1="107.619" y1="126.413" x2="104.479" y2="11.418" stroke="#141414" stroke-width="0.4"/>
<line x1="172.956" y1="156.524" x2="143.531" y2="159.907" stroke="#141414" stroke-width="0.4"/>
<line x1="143.531" y1="159.907" x2="162.899" y2="174.617" stroke="#141414" stroke-width="0.4"/>
<line x1="126.765" y1="115.927" x2="143.482" y2="106.502" stroke="#141414" stroke-width="0.4"/>
<line x1="143.482" y1="106.502" x2="172.956" y2="156.524" stroke="#141414" stroke-width="0.4"/>
<line x1="77.464" y1="207.86" x2="87.401" y2="212.12" stroke="#141414" stroke-width="0.4"/>
<line x1="87.401" y1="212.12" x2="131.43" y2="207.849" stroke="#141414" stroke-width="0.4"/>
<line x1="131.43" y1="207.849" x2="140.362" y2="201.758" stroke="#141414" stroke-width="0.4"/>
<line x1="125.405" y1="219.885" x2="129.374" y2="225.029" stroke="#141414" stroke-width="0.4"/>
<line x1="129.374" y1="225.029" x2="147.551" y2="224.771" stroke="#141414" stroke-width="0.4"/>
<line x1="147.551" y1="224.771" x2="151.372" y2="219.516" stroke="#141414" stroke-width="0.4"/>
<line x1="104.479" y1="11.418" x2="107.52" y2="6.218" stroke="#141414" stroke-width="0.4"/>
<line x1="107.52" y1="6.218" x2="121.711" y2="6.218" stroke="#141414" stroke-width="0.4"/>
<line x1="121.711" y1="6.218" x2="124.752" y2="11.418" stroke="#141414" stroke-width="0.4"/>
<line x1="124.752" y1="11.418" x2="130.253" y2="26.995" stroke="#141414" stroke-width="0.4"/>
<line x1="130.253" y1="26.995" x2="131.662" y2="100.151" stroke="#141414" stroke-width="0.4"/>
<line x1="131.662" y1="100.151" x2="126.765" y2="115.927" stroke="#141414" stroke-width="0.4"/>
<line x1="151.372" y1="219.516" x2="158.137" y2="214.075" stroke="#141414" stroke-width="0.4"/>
<line x1="158.137" y1="214.075" x2="166.206" y2="182.645" stroke="#141414" stroke-width="0.4"/>
<line x1="166.206" y1="182.645" x2="162.898" y2="174.617" stroke="#141414" stroke-width="0.4"/>
<circle cx="109.164" cy="207.397" r="2.02" fill="#ffe082" stroke="#464646" stroke-width="0.2"/>
<text x="109.164" y="208.35" font-size="2.74" text-anchor="middle" fill="#141414">40</text>
<circle cx="138.426" cy="222.3" r="2.02" fill="#ffe082" stroke="#464646" stroke-width="0.2"/>
<text x="138.426" y="223.26" font-size="2.74" text-anchor="middle" fill="#141414">57</text>
<circle cx="114.615" cy="8.818" r="2.02" fill="#ffe082" stroke="#464646" stroke-width="0.2"/>
<text x="114.615" y="9.78" font-size="2.74" text-anchor="middle" fill="#141414">69</text>
<circle cx="128.358" cy="63.623" r="2.02" fill="#ffe082" stroke="#464646" stroke-width="0.2"/>
<text x="128.358" y="64.58" font-size="2.74" text-anchor="middle" fill="#141414">75</text>
<circle cx="159.654" cy="197.713" r="2.02" fill="#ffe082" stroke="#464646" stroke-width="0.2"/>
<text x="159.654" y="198.67" font-size="2.74" text-anchor="middle" fill="#141414">76</text>
<circle cx="130.504" cy="162.692" r="4.60" fill="#eaf1fe" stroke="#2e78e6" stroke-width="0.3"/>
<text x="130.504" y="164.49" font-size="5.20" text-anchor="middle" fill="#14306e" font-weight="bold">7</text>
<text x="205.0" y="295.0" font-size="3.2" text-anchor="end" fill="#737373" font-family="sans-serif">5 / 9</text>
<g pointer-events="none"><text x="105.0" y="83.2" text-anchor="middle" font-family="sans-serif" font-size="12.4" fill="#9aa0a6" fill-opacity="0.3" transform="rotate(-28 105.0 83.2)">papercraft.kr</text><text x="105.0" y="148.5" text-anchor="middle" font-family="sans-serif" font-size="12.4" fill="#9aa0a6" fill-opacity="0.3" transform="rotate(-28 105.0 148.5)">papercraft.kr</text><text x="105.0" y="213.8" text-anchor="middle" font-family="sans-serif" font-size="12.4" fill="#9aa0a6" fill-opacity="0.3" transform="rotate(-28 105.0 213.8)">papercraft.kr</text></g></svg>
