<svg xmlns="http://www.w3.org/2000/svg" xmlns:xlink="http://www.w3.org/1999/xlink" width="210.00mm" height="297.00mm" viewBox="0 0 210.00 297.00">
<rect x="0" y="0" width="210.00" height="297.00" fill="#ffffff" stroke="#cccccc" stroke-width="0.2"/>
<polygon points="61.045,83.936 66.965,90.936 94.593,90.936 100.513,83.936" fill="rgb(216,216,216)"/>
<polygon points="61.045,64.202 66.965,57.202 94.593,57.202 100.513,64.202" fill="rgb(216,216,216)"/>
<polygon points="100.513,83.936 107.513,80.976 107.513,67.162 100.513,64.202" fill="rgb(216,216,216)"/>
<polygon points="61.045,123.404 58.558,130.404 46.955,130.404 44.468,123.404" fill="rgb(216,216,216)"/>
<polygon points="44.468,83.936 37.468,80.976 37.468,67.162 44.468,64.202" fill="rgb(216,216,216)"/>
<polygon points="44.468,83.936 37.468,89.856 37.468,117.484 44.468,123.404" fill="rgb(216,216,216)"/>
<polygon points="44.468,64.202 37.468,58.282 37.468,30.654 44.468,24.734" fill="rgb(216,216,216)"/>
<line x1="61.045" y1="83.936" x2="61.045" y2="64.202" stroke="#8c8c8c" stroke-width="0.3" stroke-dasharray="1.2,0.8"/>
<line x1="61.045" y1="83.936" x2="44.468" y2="83.936" stroke="#8c8c8c" stroke-width="0.3" stroke-dasharray="1.2,0.8"/>
<line x1="44.468" y1="64.202" x2="61.045" y2="64.202" stroke="#8c8c8c" stroke-width="0.3" stroke-dasharray="1.2,0.8"/>
<line x1="44.468" y1="24.734" x2="61.045" y2="24.734" stroke="#8c8c8c" stroke-width="0.3" stroke-dasharray="1.2,0.8"/>
<line x1="44.468" y1="24.734" x2="44.468" y2="5.0" stroke="#8c8c8c" stroke-width="0.3" stroke-dasharray="1.2,0.8"/>
<line x1="100.513" y1="83.936" x2="61.045" y2="83.936" stroke="#8c8c8c" stroke-width="0.3" stroke-dasharray="1.2,0.8"/>
<line x1="100.513" y1="64.202" x2="61.045" y2="64.202" stroke="#8c8c8c" stroke-width="0.3" stroke-dasharray="1.2,0.8"/>
<line x1="100.513" y1="64.202" x2="100.513" y2="83.936" stroke="#8c8c8c" stroke-width="0.3" stroke-dasharray="1.2,0.8"/>
<line x1="44.468" y1="123.404" x2="61.045" y2="123.404" stroke="#8c8c8c" stroke-width="0.3" stroke-dasharray="1.2,0.8"/>
<line x1="44.468" y1="64.202" x2="44.468" y2="83.936" stroke="#8c8c8c" stroke-width="0.3" stroke-dasharray="1.2,0.8"/>
<line x1="44.468" y1="123.404" x2="44.468" y2="83.936" stroke="#8c8c8c" stroke-width="0.3" stroke-dasharray="1.2,0.8"/>
<line x1="44.468" y1="24.734" x2="44.468" y2="64.202" stroke="#8c8c8c" stroke-width="0.3" stroke-dasharray="1.2,0.8"/>
<line x1="61.045" y1="83.936" x2="61.045" y2="123.404" stroke="#141414" stroke-width="0.4"/>
<line x1="61.045" y1="24.734" x2="61.045" y2="64.202" stroke="#141414" stroke-width="0.4"/>
<line x1="61.045" y1="5.0" x2="61.045" y2="24.734" stroke="#141414" stroke-width="0.4"/>
<line x1="44.468" y1="5.0" x2="61.045" y2="5.0" stroke="#141414" stroke-width="0.4"/>
<line x1="5.0" y1="24.734" x2="5.0" y2="5.0" stroke="#141414" stroke-width="0.4"/>
<line x1="5.0" y1="5.0" x2="44.468" y2="5.0" stroke="#141414" stroke-width="0.4"/>
<line x1="44.468" y1="24.734" x2="5.0" y2="24.734" stroke="#141414" stroke-width="0.4"/>
<line x1="61.045" y1="83.936" x2="66.965" y2="90.936" stroke="#141414" stroke-width="0.4"/>
<line x1="66.965" y1="90.936" x2="94.593" y2="90.936" stroke="#141414" stroke-width="0.4"/>
<line x1="94.593" y1="90.936" x2="100.513" y2="83.936" stroke="#141414" stroke-width="0.4"/>
<line x1="61.045" y1="64.202" x2="66.965" y2="57.202" stroke="#141414" stroke-width="0.4"/>
<line x1="66.965" y1="57.202" x2="94.593" y2="57.202" stroke="#141414" stroke-width="0.4"/>
<line x1="94.593" y1="57.202" x2="100.513" y2="64.202" stroke="#141414" stroke-width="0.4"/>
<line x1="100.513" y1="83.936" x2="107.513" y2="80.976" stroke="#141414" stroke-width="0.4"/>
<line x1="107.513" y1="80.976" x2="107.513" y2="67.162" stroke="#141414" stroke-width="0.4"/>
<line x1="107.513" y1="67.162" x2="100.513" y2="64.202" stroke="#141414" stroke-width="0.4"/>
<line x1="61.045" y1="123.404" x2="58.558" y2="130.404" stroke="#141414" stroke-width="0.4"/>
<line x1="58.558" y1="130.404" x2="46.955" y2="130.404" stroke="#141414" stroke-width="0.4"/>
<line x1="46.955" y1="130.404" x2="44.468" y2="123.404" stroke="#141414" stroke-width="0.4"/>
<line x1="44.468" y1="83.936" x2="37.468" y2="80.976" stroke="#141414" stroke-width="0.4"/>
<line x1="37.468" y1="80.976" x2="37.468" y2="67.162" stroke="#141414" stroke-width="0.4"/>
<line x1="37.468" y1="67.162" x2="44.468" y2="64.202" stroke="#141414" stroke-width="0.4"/>
<line x1="44.468" y1="83.936" x2="37.468" y2="89.856" stroke="#141414" stroke-width="0.4"/>
<line x1="37.468" y1="89.856" x2="37.468" y2="117.484" stroke="#141414" stroke-width="0.4"/>
<line x1="37.468" y1="117.484" x2="44.468" y2="123.404" stroke="#141414" stroke-width="0.4"/>
<line x1="44.468" y1="64.202" x2="37.468" y2="58.282" stroke="#141414" stroke-width="0.4"/>
<line x1="37.468" y1="58.282" x2="37.468" y2="30.654" stroke="#141414" stroke-width="0.4"/>
<line x1="37.468" y1="30.654" x2="44.468" y2="24.734" stroke="#141414" stroke-width="0.4"/>
<circle cx="80.779" cy="87.436" r="3.08" fill="#ffe082" stroke="#464646" stroke-width="0.2"/>
<text x="80.779" y="88.90" font-size="4.18" text-anchor="middle" fill="#141414">23</text>
<circle cx="80.779" cy="60.702" r="3.08" fill="#ffe082" stroke="#464646" stroke-width="0.2"/>
<text x="80.779" y="62.16" font-size="4.18" text-anchor="middle" fill="#141414">24</text>
<circle cx="104.013" cy="74.069" r="3.08" fill="#ffe082" stroke="#464646" stroke-width="0.2"/>
<text x="104.013" y="75.53" font-size="4.18" text-anchor="middle" fill="#141414">25</text>
<circle cx="52.756" cy="126.904" r="3.08" fill="#ffe082" stroke="#464646" stroke-width="0.2"/>
<text x="52.756" y="128.37" font-size="4.18" text-anchor="middle" fill="#141414">26</text>
<circle cx="40.968" cy="74.069" r="3.08" fill="#ffe082" stroke="#464646" stroke-width="0.2"/>
<text x="40.968" y="75.53" font-size="4.18" text-anchor="middle" fill="#141414">27</text>
<circle cx="40.968" cy="103.67" r="3.08" fill="#ffe082" stroke="#464646" stroke-width="0.2"/>
<text x="40.968" y="105.13" font-size="4.18" text-anchor="middle" fill="#141414">28</text>
<circle cx="40.968" cy="44.468" r="3.08" fill="#ffe082" stroke="#464646" stroke-width="0.2"/>
<text x="40.968" y="45.93" font-size="4.18" text-anchor="middle" fill="#141414">29</text>
<circle cx="56.256" cy="136.504" r="4.6" fill="#eaf1fe" stroke="#2e78e6" stroke-width="0.3"/>
<text x="56.256" y="138.304" font-size="5.2" text-anchor="middle" fill="#14306e" font-weight="bold">5</text>
<g pointer-events="none"><text x="105.0" y="89.1" text-anchor="middle" font-family="sans-serif" font-size="21.2" fill="#9aa0a6" fill-opacity="0.33" transform="rotate(-28 105.0 89.1)">papercraft.kr 미리보기</text><text x="105.0" y="163.4" text-anchor="middle" font-family="sans-serif" font-size="21.2" fill="#9aa0a6" fill-opacity="0.33" transform="rotate(-28 105.0 163.4)">papercraft.kr 미리보기</text><text x="105.0" y="237.6" text-anchor="middle" font-family="sans-serif" font-size="21.2" fill="#9aa0a6" fill-opacity="0.33" transform="rotate(-28 105.0 237.6)">papercraft.kr 미리보기</text></g></svg>
