<svg xmlns="http://www.w3.org/2000/svg" xmlns:xlink="http://www.w3.org/1999/xlink" width="210.00mm" height="297.00mm" viewBox="0 0 210.00 297.00">
<rect x="0" y="0" width="210.00" height="297.00" fill="#ffffff" stroke="#cccccc" stroke-width="0.2"/>
<polygon points="51.099,153.716 59.387,160.716 98.066,160.716 106.354,153.716" fill="rgb(216,216,216)"/>
<polygon points="51.099,153.716 45.178,160.716 17.551,160.716 11.631,153.716" fill="rgb(216,216,216)"/>
<polygon points="51.099,66.886 59.387,59.886 98.066,59.886 106.354,66.886" fill="rgb(216,216,216)"/>
<polygon points="106.354,153.716 113.354,140.691 113.354,79.91 106.354,66.886" fill="rgb(216,216,216)"/>
<polygon points="51.099,11.631 45.178,4.631 17.551,4.631 11.631,11.631" fill="rgb(216,216,216)"/>
<polygon points="11.631,153.716 4.631,140.691 4.631,79.91 11.631,66.886" fill="rgb(216,216,216)"/>
<polygon points="11.631,66.886 4.631,58.598 4.631,19.919 11.631,11.631" fill="rgb(216,216,216)"/>
<line x1="51.099" y1="153.716" x2="51.099" y2="66.886" stroke="#8c8c8c" stroke-width="0.3" stroke-dasharray="1.2,0.8"/>
<line x1="11.631" y1="66.886" x2="51.099" y2="66.886" stroke="#8c8c8c" stroke-width="0.3" stroke-dasharray="1.2,0.8"/>
<line x1="106.354" y1="153.716" x2="51.099" y2="153.716" stroke="#8c8c8c" stroke-width="0.3" stroke-dasharray="1.2,0.8"/>
<line x1="11.631" y1="153.716" x2="51.099" y2="153.716" stroke="#8c8c8c" stroke-width="0.3" stroke-dasharray="1.2,0.8"/>
<line x1="106.354" y1="66.886" x2="51.099" y2="66.886" stroke="#8c8c8c" stroke-width="0.3" stroke-dasharray="1.2,0.8"/>
<line x1="106.354" y1="66.886" x2="106.354" y2="153.716" stroke="#8c8c8c" stroke-width="0.3" stroke-dasharray="1.2,0.8"/>
<line x1="11.631" y1="11.631" x2="51.099" y2="11.631" stroke="#8c8c8c" stroke-width="0.3" stroke-dasharray="1.2,0.8"/>
<line x1="11.631" y1="66.886" x2="11.631" y2="153.716" stroke="#8c8c8c" stroke-width="0.3" stroke-dasharray="1.2,0.8"/>
<line x1="11.631" y1="11.631" x2="11.631" y2="66.886" stroke="#8c8c8c" stroke-width="0.3" stroke-dasharray="1.2,0.8"/>
<line x1="51.099" y1="11.631" x2="51.099" y2="66.886" stroke="#141414" stroke-width="0.4"/>
<line x1="51.099" y1="153.716" x2="59.387" y2="160.716" stroke="#141414" stroke-width="0.4"/>
<line x1="59.387" y1="160.716" x2="98.066" y2="160.716" stroke="#141414" stroke-width="0.4"/>
<line x1="98.066" y1="160.716" x2="106.354" y2="153.716" stroke="#141414" stroke-width="0.4"/>
<line x1="51.099" y1="153.716" x2="45.178" y2="160.716" stroke="#141414" stroke-width="0.4"/>
<line x1="45.178" y1="160.716" x2="17.551" y2="160.716" stroke="#141414" stroke-width="0.4"/>
<line x1="17.551" y1="160.716" x2="11.631" y2="153.716" stroke="#141414" stroke-width="0.4"/>
<line x1="51.099" y1="66.886" x2="59.387" y2="59.886" stroke="#141414" stroke-width="0.4"/>
<line x1="59.387" y1="59.886" x2="98.066" y2="59.886" stroke="#141414" stroke-width="0.4"/>
<line x1="98.066" y1="59.886" x2="106.354" y2="66.886" stroke="#141414" stroke-width="0.4"/>
<line x1="106.354" y1="153.716" x2="113.354" y2="140.691" stroke="#141414" stroke-width="0.4"/>
<line x1="113.354" y1="140.691" x2="113.354" y2="79.91" stroke="#141414" stroke-width="0.4"/>
<line x1="113.354" y1="79.91" x2="106.354" y2="66.886" stroke="#141414" stroke-width="0.4"/>
<line x1="51.099" y1="11.631" x2="45.178" y2="4.631" stroke="#141414" stroke-width="0.4"/>
<line x1="45.178" y1="4.631" x2="17.551" y2="4.631" stroke="#141414" stroke-width="0.4"/>
<line x1="17.551" y1="4.631" x2="11.631" y2="11.631" stroke="#141414" stroke-width="0.4"/>
<line x1="11.631" y1="153.716" x2="4.631" y2="140.691" stroke="#141414" stroke-width="0.4"/>
<line x1="4.631" y1="140.691" x2="4.631" y2="79.91" stroke="#141414" stroke-width="0.4"/>
<line x1="4.631" y1="79.91" x2="11.631" y2="66.886" stroke="#141414" stroke-width="0.4"/>
<line x1="11.631" y1="66.886" x2="4.631" y2="58.598" stroke="#141414" stroke-width="0.4"/>
<line x1="4.631" y1="58.598" x2="4.631" y2="19.919" stroke="#141414" stroke-width="0.4"/>
<line x1="4.631" y1="19.919" x2="11.631" y2="11.631" stroke="#141414" stroke-width="0.4"/>
<circle cx="78.726" cy="157.216" r="3.08" fill="#ffe082" stroke="#464646" stroke-width="0.2"/>
<text x="78.726" y="158.68" font-size="4.18" text-anchor="middle" fill="#141414">1</text>
<circle cx="31.365" cy="157.216" r="3.08" fill="#ffe082" stroke="#464646" stroke-width="0.2"/>
<text x="31.365" y="158.68" font-size="4.18" text-anchor="middle" fill="#141414">2</text>
<circle cx="78.726" cy="63.386" r="3.08" fill="#ffe082" stroke="#464646" stroke-width="0.2"/>
<text x="78.726" y="64.85" font-size="4.18" text-anchor="middle" fill="#141414">3</text>
<circle cx="109.854" cy="110.301" r="3.08" fill="#ffe082" stroke="#464646" stroke-width="0.2"/>
<text x="109.854" y="111.76" font-size="4.18" text-anchor="middle" fill="#141414">4</text>
<circle cx="31.365" cy="8.131" r="3.08" fill="#ffe082" stroke="#464646" stroke-width="0.2"/>
<text x="31.365" y="9.59" font-size="4.18" text-anchor="middle" fill="#141414">5</text>
<circle cx="8.131" cy="110.301" r="3.08" fill="#ffe082" stroke="#464646" stroke-width="0.2"/>
<text x="8.131" y="111.76" font-size="4.18" text-anchor="middle" fill="#141414">6</text>
<circle cx="8.131" cy="39.258" r="3.08" fill="#ffe082" stroke="#464646" stroke-width="0.2"/>
<text x="8.131" y="40.72" font-size="4.18" text-anchor="middle" fill="#141414">7</text>
<circle cx="59.362" cy="167.185" r="4.6" fill="#eaf1fe" stroke="#2e78e6" stroke-width="0.3"/>
<text x="59.362" y="168.985" font-size="5.2" text-anchor="middle" fill="#14306e" font-weight="bold">1</text>
<polygon points="88.199,200.396 85.239,207.396 71.425,207.396 68.465,200.396" fill="rgb(216,216,216)"/>
<polygon points="88.199,183.819 96.724,176.819 136.508,176.819 145.033,183.819" fill="rgb(216,216,216)"/>
<polygon points="88.199,183.819 85.239,176.819 71.425,176.819 68.465,183.819" fill="rgb(216,216,216)"/>
<polygon points="145.033,200.396 152.033,203.356 152.033,217.17 145.033,220.13" fill="rgb(216,216,216)"/>
<polygon points="11.631,164.085 4.631,167.045 4.631,180.859 11.631,183.819" fill="rgb(216,216,216)"/>
<polygon points="88.199,220.13 96.724,227.13 136.508,227.13 145.033,220.13" fill="rgb(216,216,216)"/>
<polygon points="164.767,200.396 171.767,197.909 171.767,186.306 164.767,183.819" fill="rgb(216,216,216)"/>
<line x1="88.199" y1="200.396" x2="88.199" y2="183.819" stroke="#8c8c8c" stroke-width="0.3" stroke-dasharray="1.2,0.8"/>
<line x1="145.033" y1="200.396" x2="88.199" y2="200.396" stroke="#8c8c8c" stroke-width="0.3" stroke-dasharray="1.2,0.8"/>
<line x1="145.033" y1="183.819" x2="145.033" y2="200.396" stroke="#8c8c8c" stroke-width="0.3" stroke-dasharray="1.2,0.8"/>
<line x1="68.465" y1="200.396" x2="68.465" y2="183.819" stroke="#8c8c8c" stroke-width="0.3" stroke-dasharray="1.2,0.8"/>
<line x1="68.465" y1="183.819" x2="11.631" y2="183.819" stroke="#8c8c8c" stroke-width="0.3" stroke-dasharray="1.2,0.8"/>
<line x1="68.465" y1="200.396" x2="88.199" y2="200.396" stroke="#8c8c8c" stroke-width="0.3" stroke-dasharray="1.2,0.8"/>
<line x1="145.033" y1="183.819" x2="88.199" y2="183.819" stroke="#8c8c8c" stroke-width="0.3" stroke-dasharray="1.2,0.8"/>
<line x1="68.465" y1="183.819" x2="88.199" y2="183.819" stroke="#8c8c8c" stroke-width="0.3" stroke-dasharray="1.2,0.8"/>
<line x1="145.033" y1="220.13" x2="145.033" y2="200.396" stroke="#8c8c8c" stroke-width="0.3" stroke-dasharray="1.2,0.8"/>
<line x1="11.631" y1="183.819" x2="11.631" y2="164.085" stroke="#8c8c8c" stroke-width="0.3" stroke-dasharray="1.2,0.8"/>
<line x1="145.033" y1="220.13" x2="88.199" y2="220.13" stroke="#8c8c8c" stroke-width="0.3" stroke-dasharray="1.2,0.8"/>
<line x1="164.767" y1="183.819" x2="164.767" y2="200.396" stroke="#8c8c8c" stroke-width="0.3" stroke-dasharray="1.2,0.8"/>
<line x1="88.199" y1="220.13" x2="88.199" y2="200.396" stroke="#141414" stroke-width="0.4"/>
<line x1="11.631" y1="164.085" x2="68.465" y2="164.085" stroke="#141414" stroke-width="0.4"/>
<line x1="68.465" y1="164.085" x2="68.465" y2="183.819" stroke="#141414" stroke-width="0.4"/>
<line x1="164.767" y1="200.396" x2="145.033" y2="200.396" stroke="#141414" stroke-width="0.4"/>
<line x1="145.033" y1="183.819" x2="164.767" y2="183.819" stroke="#141414" stroke-width="0.4"/>
<line x1="68.465" y1="200.396" x2="11.631" y2="200.396" stroke="#141414" stroke-width="0.4"/>
<line x1="11.631" y1="200.396" x2="11.631" y2="183.819" stroke="#141414" stroke-width="0.4"/>
<line x1="88.199" y1="200.396" x2="85.239" y2="207.396" stroke="#141414" stroke-width="0.4"/>
<line x1="85.239" y1="207.396" x2="71.425" y2="207.396" stroke="#141414" stroke-width="0.4"/>
<line x1="71.425" y1="207.396" x2="68.465" y2="200.396" stroke="#141414" stroke-width="0.4"/>
<line x1="88.199" y1="183.819" x2="96.724" y2="176.819" stroke="#141414" stroke-width="0.4"/>
<line x1="96.724" y1="176.819" x2="136.508" y2="176.819" stroke="#141414" stroke-width="0.4"/>
<line x1="136.508" y1="176.819" x2="145.033" y2="183.819" stroke="#141414" stroke-width="0.4"/>
<line x1="88.199" y1="183.819" x2="85.239" y2="176.819" stroke="#141414" stroke-width="0.4"/>
<line x1="85.239" y1="176.819" x2="71.425" y2="176.819" stroke="#141414" stroke-width="0.4"/>
<line x1="71.425" y1="176.819" x2="68.465" y2="183.819" stroke="#141414" stroke-width="0.4"/>
<line x1="145.033" y1="200.396" x2="152.033" y2="203.356" stroke="#141414" stroke-width="0.4"/>
<line x1="152.033" y1="203.356" x2="152.033" y2="217.17" stroke="#141414" stroke-width="0.4"/>
<line x1="152.033" y1="217.17" x2="145.033" y2="220.13" stroke="#141414" stroke-width="0.4"/>
<line x1="11.631" y1="164.085" x2="4.631" y2="167.045" stroke="#141414" stroke-width="0.4"/>
<line x1="4.631" y1="167.045" x2="4.631" y2="180.859" stroke="#141414" stroke-width="0.4"/>
<line x1="4.631" y1="180.859" x2="11.631" y2="183.819" stroke="#141414" stroke-width="0.4"/>
<line x1="88.199" y1="220.13" x2="96.724" y2="227.13" stroke="#141414" stroke-width="0.4"/>
<line x1="96.724" y1="227.13" x2="136.508" y2="227.13" stroke="#141414" stroke-width="0.4"/>
<line x1="136.508" y1="227.13" x2="145.033" y2="220.13" stroke="#141414" stroke-width="0.4"/>
<line x1="164.767" y1="200.396" x2="171.767" y2="197.909" stroke="#141414" stroke-width="0.4"/>
<line x1="171.767" y1="197.909" x2="171.767" y2="186.306" stroke="#141414" stroke-width="0.4"/>
<line x1="171.767" y1="186.306" x2="164.767" y2="183.819" stroke="#141414" stroke-width="0.4"/>
<circle cx="78.332" cy="203.896" r="3.08" fill="#ffe082" stroke="#464646" stroke-width="0.2"/>
<text x="78.332" y="205.36" font-size="4.18" text-anchor="middle" fill="#141414">9</text>
<circle cx="116.616" cy="180.319" r="3.08" fill="#ffe082" stroke="#464646" stroke-width="0.2"/>
<text x="116.616" y="181.78" font-size="4.18" text-anchor="middle" fill="#141414">10</text>
<circle cx="78.332" cy="180.319" r="3.08" fill="#ffe082" stroke="#464646" stroke-width="0.2"/>
<text x="78.332" y="181.78" font-size="4.18" text-anchor="middle" fill="#141414">11</text>
<circle cx="148.533" cy="210.263" r="3.08" fill="#ffe082" stroke="#464646" stroke-width="0.2"/>
<text x="148.533" y="211.73" font-size="4.18" text-anchor="middle" fill="#141414">12</text>
<circle cx="8.131" cy="173.952" r="3.08" fill="#ffe082" stroke="#464646" stroke-width="0.2"/>
<text x="8.131" y="175.41" font-size="4.18" text-anchor="middle" fill="#141414">13</text>
<circle cx="116.616" cy="223.63" r="3.08" fill="#ffe082" stroke="#464646" stroke-width="0.2"/>
<text x="116.616" y="225.09" font-size="4.18" text-anchor="middle" fill="#141414">14</text>
<circle cx="168.267" cy="192.108" r="3.08" fill="#ffe082" stroke="#464646" stroke-width="0.2"/>
<text x="168.267" y="193.57" font-size="4.18" text-anchor="middle" fill="#141414">15</text>
<circle cx="88.568" cy="157.985" r="4.6" fill="#eaf1fe" stroke="#2e78e6" stroke-width="0.3"/>
<text x="88.568" y="159.78500000000003" font-size="5.2" text-anchor="middle" fill="#14306e" font-weight="bold">3</text>
<polygon points="145.062,117.484 141.806,124.484 126.61,124.484 123.354,117.484" fill="rgb(216,216,216)"/>
<polygon points="145.062,72.096 141.806,65.096 126.61,65.096 123.354,72.096" fill="rgb(216,216,216)"/>
<polygon points="159.27,117.484 166.27,110.676 166.27,78.904 159.27,72.096" fill="rgb(216,216,216)"/>
<polygon points="159.27,117.484 166.27,120.74 166.27,135.935 159.27,139.191" fill="rgb(216,216,216)"/>
<polygon points="159.27,72.096 166.27,68.84 166.27,53.644 159.27,50.388" fill="rgb(216,216,216)"/>
<polygon points="123.354,117.484 116.354,110.676 116.354,78.904 123.354,72.096" fill="rgb(216,216,216)"/>
<polygon points="145.062,139.191 147.193,146.191 157.139,146.191 159.27,139.191" fill="rgb(216,216,216)"/>
<line x1="145.062" y1="117.484" x2="145.062" y2="72.096" stroke="#8c8c8c" stroke-width="0.3" stroke-dasharray="1.2,0.8"/>
<line x1="159.27" y1="117.484" x2="145.062" y2="117.484" stroke="#8c8c8c" stroke-width="0.3" stroke-dasharray="1.2,0.8"/>
<line x1="145.062" y1="72.096" x2="159.27" y2="72.096" stroke="#8c8c8c" stroke-width="0.3" stroke-dasharray="1.2,0.8"/>
<line x1="145.062" y1="50.388" x2="159.27" y2="50.388" stroke="#8c8c8c" stroke-width="0.3" stroke-dasharray="1.2,0.8"/>
<line x1="159.27" y1="50.388" x2="159.27" y2="5.0" stroke="#8c8c8c" stroke-width="0.3" stroke-dasharray="1.2,0.8"/>
<line x1="123.354" y1="117.484" x2="145.062" y2="117.484" stroke="#8c8c8c" stroke-width="0.3" stroke-dasharray="1.2,0.8"/>
<line x1="123.354" y1="72.096" x2="145.062" y2="72.096" stroke="#8c8c8c" stroke-width="0.3" stroke-dasharray="1.2,0.8"/>
<line x1="159.27" y1="72.096" x2="159.27" y2="117.484" stroke="#8c8c8c" stroke-width="0.3" stroke-dasharray="1.2,0.8"/>
<line x1="159.27" y1="139.191" x2="159.27" y2="117.484" stroke="#8c8c8c" stroke-width="0.3" stroke-dasharray="1.2,0.8"/>
<line x1="159.27" y1="50.388" x2="159.27" y2="72.096" stroke="#8c8c8c" stroke-width="0.3" stroke-dasharray="1.2,0.8"/>
<line x1="123.354" y1="72.096" x2="123.354" y2="117.484" stroke="#8c8c8c" stroke-width="0.3" stroke-dasharray="1.2,0.8"/>
<line x1="159.27" y1="139.191" x2="145.062" y2="139.191" stroke="#8c8c8c" stroke-width="0.3" stroke-dasharray="1.2,0.8"/>
<line x1="145.062" y1="139.191" x2="145.062" y2="117.484" stroke="#141414" stroke-width="0.4"/>
<line x1="145.062" y1="72.096" x2="145.062" y2="50.388" stroke="#141414" stroke-width="0.4"/>
<line x1="180.978" y1="5.0" x2="180.978" y2="50.388" stroke="#141414" stroke-width="0.4"/>
<line x1="159.27" y1="5.0" x2="180.978" y2="5.0" stroke="#141414" stroke-width="0.4"/>
<line x1="180.978" y1="50.388" x2="159.27" y2="50.388" stroke="#141414" stroke-width="0.4"/>
<line x1="145.062" y1="50.388" x2="145.062" y2="5.0" stroke="#141414" stroke-width="0.4"/>
<line x1="145.062" y1="5.0" x2="159.27" y2="5.0" stroke="#141414" stroke-width="0.4"/>
<line x1="145.062" y1="117.484" x2="141.806" y2="124.484" stroke="#141414" stroke-width="0.4"/>
<line x1="141.806" y1="124.484" x2="126.61" y2="124.484" stroke="#141414" stroke-width="0.4"/>
<line x1="126.61" y1="124.484" x2="123.354" y2="117.484" stroke="#141414" stroke-width="0.4"/>
<line x1="145.062" y1="72.096" x2="141.806" y2="65.096" stroke="#141414" stroke-width="0.4"/>
<line x1="141.806" y1="65.096" x2="126.61" y2="65.096" stroke="#141414" stroke-width="0.4"/>
<line x1="126.61" y1="65.096" x2="123.354" y2="72.096" stroke="#141414" stroke-width="0.4"/>
<line x1="159.27" y1="117.484" x2="166.27" y2="110.676" stroke="#141414" stroke-width="0.4"/>
<line x1="166.27" y1="110.676" x2="166.27" y2="78.904" stroke="#141414" stroke-width="0.4"/>
<line x1="166.27" y1="78.904" x2="159.27" y2="72.096" stroke="#141414" stroke-width="0.4"/>
<line x1="159.27" y1="117.484" x2="166.27" y2="120.74" stroke="#141414" stroke-width="0.4"/>
<line x1="166.27" y1="120.74" x2="166.27" y2="135.935" stroke="#141414" stroke-width="0.4"/>
<line x1="166.27" y1="135.935" x2="159.27" y2="139.191" stroke="#141414" stroke-width="0.4"/>
<line x1="159.27" y1="72.096" x2="166.27" y2="68.84" stroke="#141414" stroke-width="0.4"/>
<line x1="166.27" y1="68.84" x2="166.27" y2="53.644" stroke="#141414" stroke-width="0.4"/>
<line x1="166.27" y1="53.644" x2="159.27" y2="50.388" stroke="#141414" stroke-width="0.4"/>
<line x1="123.354" y1="117.484" x2="116.354" y2="110.676" stroke="#141414" stroke-width="0.4"/>
<line x1="116.354" y1="110.676" x2="116.354" y2="78.904" stroke="#141414" stroke-width="0.4"/>
<line x1="116.354" y1="78.904" x2="123.354" y2="72.096" stroke="#141414" stroke-width="0.4"/>
<line x1="145.062" y1="139.191" x2="147.193" y2="146.191" stroke="#141414" stroke-width="0.4"/>
<line x1="147.193" y1="146.191" x2="157.139" y2="146.191" stroke="#141414" stroke-width="0.4"/>
<line x1="157.139" y1="146.191" x2="159.27" y2="139.191" stroke="#141414" stroke-width="0.4"/>
<circle cx="134.208" cy="120.984" r="3.08" fill="#ffe082" stroke="#464646" stroke-width="0.2"/>
<text x="134.208" y="122.45" font-size="4.18" text-anchor="middle" fill="#141414">16</text>
<circle cx="134.208" cy="68.596" r="3.08" fill="#ffe082" stroke="#464646" stroke-width="0.2"/>
<text x="134.208" y="70.06" font-size="4.18" text-anchor="middle" fill="#141414">17</text>
<circle cx="162.77" cy="94.79" r="3.08" fill="#ffe082" stroke="#464646" stroke-width="0.2"/>
<text x="162.77" y="96.25" font-size="4.18" text-anchor="middle" fill="#141414">18</text>
<circle cx="162.77" cy="128.338" r="3.08" fill="#ffe082" stroke="#464646" stroke-width="0.2"/>
<text x="162.77" y="129.80" font-size="4.18" text-anchor="middle" fill="#141414">19</text>
<circle cx="162.77" cy="61.242" r="3.08" fill="#ffe082" stroke="#464646" stroke-width="0.2"/>
<text x="162.77" y="62.70" font-size="4.18" text-anchor="middle" fill="#141414">20</text>
<circle cx="119.854" cy="94.79" r="3.08" fill="#ffe082" stroke="#464646" stroke-width="0.2"/>
<text x="119.854" y="96.25" font-size="4.18" text-anchor="middle" fill="#141414">21</text>
<circle cx="152.166" cy="142.691" r="3.08" fill="#ffe082" stroke="#464646" stroke-width="0.2"/>
<text x="152.166" y="144.15" font-size="4.18" text-anchor="middle" fill="#141414">22</text>
<circle cx="149.035" cy="152.291" r="4.6" fill="#eaf1fe" stroke="#2e78e6" stroke-width="0.3"/>
<text x="149.035" y="154.091" font-size="5.2" text-anchor="middle" fill="#14306e" font-weight="bold">4</text>
<g pointer-events="none"><text x="105.0" y="89.1" text-anchor="middle" font-family="sans-serif" font-size="21.2" fill="#9aa0a6" fill-opacity="0.33" transform="rotate(-28 105.0 89.1)">papercraft.kr 미리보기</text><text x="105.0" y="163.4" text-anchor="middle" font-family="sans-serif" font-size="21.2" fill="#9aa0a6" fill-opacity="0.33" transform="rotate(-28 105.0 163.4)">papercraft.kr 미리보기</text><text x="105.0" y="237.6" text-anchor="middle" font-family="sans-serif" font-size="21.2" fill="#9aa0a6" fill-opacity="0.33" transform="rotate(-28 105.0 237.6)">papercraft.kr 미리보기</text></g></svg>
