<svg xmlns="http://www.w3.org/2000/svg" xmlns:xlink="http://www.w3.org/1999/xlink" width="210.00mm" height="297.00mm" viewBox="0 0 210.00 297.00">
<rect x="0" y="0" width="210.00" height="297.00" fill="#ffffff" stroke="#cccccc" stroke-width="0.2"/>
<polygon points="77.74,84.384 65.768,76.297 48.983,74.812 35.777,80.671" fill="rgb(216,216,216)"/>
<polygon points="61.584,113.967 48.309,108.266 37.986,94.948 35.777,80.671" fill="rgb(216,216,216)"/>
<polygon points="84.648,219.127 93.93,217.463 109.516,192.43 106.914,183.366" fill="rgb(216,216,216)"/>
<polygon points="84.648,219.127 79.77,227.198 50.816,232.788 43.284,227.113" fill="rgb(216,216,216)"/>
<polygon points="65.551,191.351 52.929,198.38 44.022,212.684 43.284,227.113" fill="rgb(216,216,216)"/>
<polygon points="149.269,111.594 143.335,119.445 111.329,123.706 103.547,117.68" fill="rgb(216,216,216)"/>
<polygon points="106.914,183.366 103.837,166.113 100.445,161.018 85.714,151.524" fill="rgb(216,216,216)"/>
<polygon points="149.269,111.594 142.955,95.245 138.653,90.892 122.38,84.384" fill="rgb(216,216,216)"/>
<polygon points="90.504,8.926 80.728,10.067 60.845,35.506 62.099,45.268" fill="rgb(216,216,216)"/>
<polygon points="23.588,187.638 24.885,170.161 27.738,164.746 41.421,153.795" fill="rgb(216,216,216)"/>
<polygon points="90.504,8.926 101.403,22.65 102.978,28.565 100.348,45.892" fill="rgb(216,216,216)"/>
<polygon points="90.504,8.926 80.728,10.067 60.845,35.506 62.099,45.268" fill="#99d9fa"/>
<line x1="61.584" y1="113.967" x2="77.74" y2="84.384" stroke="#8c8c8c" stroke-width="0.3" stroke-dasharray="1.2,0.8"/>
<line x1="103.547" y1="117.68" x2="77.74" y2="84.384" stroke="#8c8c8c" stroke-width="0.3" stroke-dasharray="1.2,0.8"/>
<line x1="100.348" y1="45.892" x2="77.74" y2="84.384" stroke="#8c8c8c" stroke-width="0.3" stroke-dasharray="1.2,0.8"/>
<line x1="77.74" y1="84.384" x2="122.381" y2="84.384" stroke="#8c8c8c" stroke-width="0.3" stroke-dasharray="1.2,0.8"/>
<line x1="103.547" y1="117.68" x2="61.584" y2="113.967" stroke="#8c8c8c" stroke-width="0.3" stroke-dasharray="1.2,0.8"/>
<line x1="61.584" y1="113.967" x2="41.421" y2="153.795" stroke="#8c8c8c" stroke-width="0.3" stroke-dasharray="1.2,0.8"/>
<line x1="85.714" y1="151.524" x2="61.584" y2="113.967" stroke="#8c8c8c" stroke-width="0.3" stroke-dasharray="1.2,0.8"/>
<line x1="84.648" y1="219.127" x2="65.551" y2="191.351" stroke="#8c8c8c" stroke-width="0.3" stroke-dasharray="1.2,0.8"/>
<line x1="100.348" y1="45.892" x2="144.989" y2="45.892" stroke="#8c8c8c" stroke-width="0.3" stroke-dasharray="1.2,0.8"/>
<line x1="144.989" y1="45.892" x2="122.381" y2="84.384" stroke="#8c8c8c" stroke-width="0.3" stroke-dasharray="1.2,0.8"/>
<line x1="106.914" y1="183.366" x2="65.551" y2="191.351" stroke="#8c8c8c" stroke-width="0.3" stroke-dasharray="1.2,0.8"/>
<line x1="41.421" y1="153.795" x2="65.551" y2="191.351" stroke="#8c8c8c" stroke-width="0.3" stroke-dasharray="1.2,0.8"/>
<line x1="65.551" y1="191.351" x2="85.714" y2="151.524" stroke="#8c8c8c" stroke-width="0.3" stroke-dasharray="1.2,0.8"/>
<line x1="103.547" y1="117.68" x2="85.714" y2="151.524" stroke="#8c8c8c" stroke-width="0.3" stroke-dasharray="1.2,0.8"/>
<line x1="122.381" y1="84.384" x2="103.547" y2="117.68" stroke="#8c8c8c" stroke-width="0.3" stroke-dasharray="1.2,0.8"/>
<line x1="41.421" y1="153.795" x2="20.221" y2="121.952" stroke="#8c8c8c" stroke-width="0.3" stroke-dasharray="1.2,0.8"/>
<line x1="62.099" y1="45.268" x2="100.348" y2="45.892" stroke="#8c8c8c" stroke-width="0.3" stroke-dasharray="1.2,0.8"/>
<line x1="41.421" y1="153.795" x2="85.714" y2="151.524" stroke="#8c8c8c" stroke-width="0.3" stroke-dasharray="1.2,0.8"/>
<line x1="100.348" y1="45.892" x2="122.381" y2="84.384" stroke="#8c8c8c" stroke-width="0.3" stroke-dasharray="1.2,0.8"/>
<line x1="35.777" y1="80.671" x2="77.74" y2="84.384" stroke="#8c8c8c" stroke-width="0.3" stroke-dasharray="1.2,0.8"/>
<line x1="35.777" y1="80.671" x2="61.584" y2="113.967" stroke="#8c8c8c" stroke-width="0.3" stroke-dasharray="1.2,0.8"/>
<line x1="106.914" y1="183.366" x2="84.648" y2="219.127" stroke="#8c8c8c" stroke-width="0.3" stroke-dasharray="1.2,0.8"/>
<line x1="43.284" y1="227.113" x2="84.648" y2="219.127" stroke="#8c8c8c" stroke-width="0.3" stroke-dasharray="1.2,0.8"/>
<line x1="43.284" y1="227.113" x2="65.551" y2="191.351" stroke="#8c8c8c" stroke-width="0.3" stroke-dasharray="1.2,0.8"/>
<line x1="103.547" y1="117.68" x2="149.269" y2="111.594" stroke="#8c8c8c" stroke-width="0.3" stroke-dasharray="1.2,0.8"/>
<line x1="85.714" y1="151.524" x2="106.914" y2="183.366" stroke="#8c8c8c" stroke-width="0.3" stroke-dasharray="1.2,0.8"/>
<line x1="122.38" y1="84.384" x2="149.269" y2="111.594" stroke="#8c8c8c" stroke-width="0.3" stroke-dasharray="1.2,0.8"/>
<line x1="62.099" y1="45.268" x2="90.504" y2="8.926" stroke="#8c8c8c" stroke-width="0.3" stroke-dasharray="1.2,0.8"/>
<line x1="41.421" y1="153.795" x2="23.588" y2="187.638" stroke="#8c8c8c" stroke-width="0.3" stroke-dasharray="1.2,0.8"/>
<line x1="100.348" y1="45.892" x2="90.504" y2="8.926" stroke="#8c8c8c" stroke-width="0.3" stroke-dasharray="1.2,0.8"/>
<line x1="77.74" y1="84.384" x2="62.099" y2="45.268" stroke="#141414" stroke-width="0.4"/>
<line x1="20.221" y1="121.952" x2="61.584" y2="113.967" stroke="#141414" stroke-width="0.4"/>
<line x1="144.989" y1="45.892" x2="160.63" y2="85.008" stroke="#141414" stroke-width="0.4"/>
<line x1="119.182" y1="12.595" x2="144.989" y2="45.892" stroke="#141414" stroke-width="0.4"/>
<line x1="65.551" y1="191.351" x2="23.588" y2="187.638" stroke="#141414" stroke-width="0.4"/>
<line x1="103.547" y1="117.68" x2="123.141" y2="159.438" stroke="#141414" stroke-width="0.4"/>
<line x1="123.141" y1="159.438" x2="85.714" y2="151.524" stroke="#141414" stroke-width="0.4"/>
<line x1="160.63" y1="85.008" x2="122.381" y2="84.384" stroke="#141414" stroke-width="0.4"/>
<line x1="5.0" y1="165.494" x2="20.221" y2="121.952" stroke="#141414" stroke-width="0.4"/>
<line x1="41.421" y1="153.795" x2="5.0" y2="165.494" stroke="#141414" stroke-width="0.4"/>
<line x1="100.348" y1="45.892" x2="119.182" y2="12.595" stroke="#141414" stroke-width="0.4"/>
<line x1="77.74" y1="84.384" x2="65.768" y2="76.297" stroke="#141414" stroke-width="0.4"/>
<line x1="65.768" y1="76.297" x2="48.983" y2="74.812" stroke="#141414" stroke-width="0.4"/>
<line x1="48.983" y1="74.812" x2="35.777" y2="80.671" stroke="#141414" stroke-width="0.4"/>
<line x1="61.584" y1="113.967" x2="48.309" y2="108.266" stroke="#141414" stroke-width="0.4"/>
<line x1="48.309" y1="108.266" x2="37.986" y2="94.948" stroke="#141414" stroke-width="0.4"/>
<line x1="37.986" y1="94.948" x2="35.777" y2="80.671" stroke="#141414" stroke-width="0.4"/>
<line x1="84.648" y1="219.127" x2="93.93" y2="217.463" stroke="#141414" stroke-width="0.4"/>
<line x1="93.93" y1="217.463" x2="109.516" y2="192.43" stroke="#141414" stroke-width="0.4"/>
<line x1="109.516" y1="192.43" x2="106.914" y2="183.366" stroke="#141414" stroke-width="0.4"/>
<line x1="84.648" y1="219.127" x2="79.77" y2="227.198" stroke="#141414" stroke-width="0.4"/>
<line x1="79.77" y1="227.198" x2="50.816" y2="232.788" stroke="#141414" stroke-width="0.4"/>
<line x1="50.816" y1="232.788" x2="43.284" y2="227.113" stroke="#141414" stroke-width="0.4"/>
<line x1="65.551" y1="191.351" x2="52.929" y2="198.38" stroke="#141414" stroke-width="0.4"/>
<line x1="52.929" y1="198.38" x2="44.022" y2="212.684" stroke="#141414" stroke-width="0.4"/>
<line x1="44.022" y1="212.684" x2="43.284" y2="227.113" stroke="#141414" stroke-width="0.4"/>
<line x1="149.269" y1="111.594" x2="143.335" y2="119.445" stroke="#141414" stroke-width="0.4"/>
<line x1="143.335" y1="119.445" x2="111.329" y2="123.706" stroke="#141414" stroke-width="0.4"/>
<line x1="111.329" y1="123.706" x2="103.547" y2="117.68" stroke="#141414" stroke-width="0.4"/>
<line x1="106.914" y1="183.366" x2="103.837" y2="166.113" stroke="#141414" stroke-width="0.4"/>
<line x1="103.837" y1="166.113" x2="100.445" y2="161.018" stroke="#141414" stroke-width="0.4"/>
<line x1="100.445" y1="161.018" x2="85.714" y2="151.524" stroke="#141414" stroke-width="0.4"/>
<line x1="149.269" y1="111.594" x2="142.955" y2="95.245" stroke="#141414" stroke-width="0.4"/>
<line x1="142.955" y1="95.245" x2="138.653" y2="90.892" stroke="#141414" stroke-width="0.4"/>
<line x1="138.653" y1="90.892" x2="122.38" y2="84.384" stroke="#141414" stroke-width="0.4"/>
<line x1="90.504" y1="8.926" x2="80.728" y2="10.067" stroke="#141414" stroke-width="0.4"/>
<line x1="80.728" y1="10.067" x2="60.845" y2="35.506" stroke="#141414" stroke-width="0.4"/>
<line x1="60.845" y1="35.506" x2="62.099" y2="45.268" stroke="#141414" stroke-width="0.4"/>
<line x1="23.588" y1="187.638" x2="24.885" y2="170.161" stroke="#141414" stroke-width="0.4"/>
<line x1="24.885" y1="170.161" x2="27.738" y2="164.746" stroke="#141414" stroke-width="0.4"/>
<line x1="27.738" y1="164.746" x2="41.421" y2="153.795" stroke="#141414" stroke-width="0.4"/>
<line x1="90.504" y1="8.926" x2="101.403" y2="22.65" stroke="#141414" stroke-width="0.4"/>
<line x1="101.403" y1="22.65" x2="102.978" y2="28.565" stroke="#141414" stroke-width="0.4"/>
<line x1="102.978" y1="28.565" x2="100.348" y2="45.892" stroke="#141414" stroke-width="0.4"/>
<circle cx="57.067" cy="79.041" r="3.08" fill="#ffe082" stroke="#464646" stroke-width="0.2"/>
<text x="57.067" y="80.10" font-size="3.02" text-anchor="middle" fill="#141414">23</text>
<circle cx="45.914" cy="99.463" r="3.08" fill="#ffe082" stroke="#464646" stroke-width="0.2"/>
<text x="45.914" y="100.52" font-size="3.02" text-anchor="middle" fill="#141414">24</text>
<circle cx="98.752" cy="203.097" r="3.08" fill="#ffe082" stroke="#464646" stroke-width="0.2"/>
<text x="98.752" y="204.15" font-size="3.02" text-anchor="middle" fill="#141414">25</text>
<circle cx="64.629" cy="226.557" r="3.08" fill="#ffe082" stroke="#464646" stroke-width="0.2"/>
<text x="64.629" y="227.61" font-size="3.02" text-anchor="middle" fill="#141414">26</text>
<circle cx="51.447" cy="207.382" r="3.08" fill="#ffe082" stroke="#464646" stroke-width="0.2"/>
<text x="51.447" y="208.44" font-size="3.02" text-anchor="middle" fill="#141414">27</text>
<circle cx="126.87" cy="118.106" r="3.08" fill="#ffe082" stroke="#464646" stroke-width="0.2"/>
<text x="126.87" y="119.16" font-size="3.02" text-anchor="middle" fill="#141414">28</text>
<circle cx="99.228" cy="165.505" r="3.08" fill="#ffe082" stroke="#464646" stroke-width="0.2"/>
<text x="99.228" y="166.56" font-size="3.02" text-anchor="middle" fill="#141414">29</text>
<circle cx="138.314" cy="95.529" r="3.08" fill="#ffe082" stroke="#464646" stroke-width="0.2"/>
<text x="138.314" y="96.59" font-size="3.02" text-anchor="middle" fill="#141414">30</text>
<circle cx="73.544" cy="24.942" r="3.08" fill="#99d9fa" stroke="#464646" stroke-width="0.2"/>
<text x="73.544" y="26.00" font-size="3.02" text-anchor="middle" fill="#141414">31</text>
<circle cx="29.408" cy="169.085" r="3.08" fill="#ffe082" stroke="#464646" stroke-width="0.2"/>
<text x="29.408" y="170.14" font-size="3.02" text-anchor="middle" fill="#141414">32</text>
<circle cx="98.808" cy="26.508" r="3.08" fill="#ffe082" stroke="#464646" stroke-width="0.2"/>
<text x="98.808" y="27.56" font-size="3.02" text-anchor="middle" fill="#141414">33</text>
<circle cx="22.214" cy="147.08" r="4.60" fill="#eaf1fe" stroke="#2e78e6" stroke-width="0.3"/>
<text x="22.214" y="148.88" font-size="5.20" text-anchor="middle" fill="#14306e" font-weight="bold">3</text>
<text x="205.0" y="295.0" font-size="3.2" text-anchor="end" fill="#737373" font-family="sans-serif">3 / 11</text>
<g pointer-events="none"><text x="105.0" y="83.2" text-anchor="middle" font-family="sans-serif" font-size="12.4" fill="#9aa0a6" fill-opacity="0.3" transform="rotate(-28 105.0 83.2)">papercraft.kr</text><text x="105.0" y="148.5" text-anchor="middle" font-family="sans-serif" font-size="12.4" fill="#9aa0a6" fill-opacity="0.3" transform="rotate(-28 105.0 148.5)">papercraft.kr</text><text x="105.0" y="213.8" text-anchor="middle" font-family="sans-serif" font-size="12.4" fill="#9aa0a6" fill-opacity="0.3" transform="rotate(-28 105.0 213.8)">papercraft.kr</text></g></svg>
