<svg xmlns="http://www.w3.org/2000/svg" xmlns:xlink="http://www.w3.org/1999/xlink" width="210.00mm" height="297.00mm" viewBox="0 0 210.00 297.00">
<rect x="0" y="0" width="210.00" height="297.00" fill="#ffffff" stroke="#cccccc" stroke-width="0.2"/>
<polygon points="116.452,14.76 106.157,16.296 83.408,44.132 83.954,54.526" fill="rgb(216,216,216)"/>
<polygon points="47.502,26.42 43.133,29.312 59.12,51.449 59.45,52.16" fill="rgb(216,216,216)"/>
<polygon points="116.452,14.76 120.509,7.76 139.442,7.76 143.499,14.76" fill="rgb(216,216,216)"/>
<polygon points="83.954,54.526 86.898,58.867 108.846,42.619 109.553,42.281" fill="rgb(216,216,216)"/>
<polygon points="156.99,44.5 157.537,54.895 134.791,82.734 124.496,84.27" fill="rgb(216,216,216)"/>
<polygon points="156.99,44.5 154.048,40.164 132.095,56.404 131.389,56.742" fill="rgb(216,216,216)"/>
<polygon points="16.399,72.201 17.478,67.067 43.948,73.778 44.73,73.823" fill="rgb(216,216,216)"/>
<polygon points="154.052,39.664 161.099,35.69 161.321,16.763 154.37,12.625" fill="rgb(216,216,216)"/>
<polygon points="61.551,96.67 67.96,101.609 85.478,94.428 86.577,86.412" fill="rgb(216,216,216)"/>
<polygon points="99.717,95.109 93.954,94.618 92.365,87.028 97.446,84.266" fill="rgb(216,216,216)"/>
<polygon points="17.604,39.566 11.855,38.937 10.447,31.311 15.593,28.671" fill="rgb(216,216,216)"/>
<polygon points="61.551,96.67 67.96,101.609 85.478,94.428 86.577,86.412" fill="#99d9fa"/>
<line x1="109.553" y1="42.281" x2="116.452" y2="14.76" stroke="#8c8c8c" stroke-width="0.3" stroke-dasharray="1.2,0.8"/>
<line x1="17.604" y1="39.566" x2="42.632" y2="29.303" stroke="#8c8c8c" stroke-width="0.3" stroke-dasharray="1.2,0.8"/>
<line x1="86.897" y1="59.368" x2="59.45" y2="52.16" stroke="#8c8c8c" stroke-width="0.3" stroke-dasharray="1.2,0.8"/>
<line x1="86.897" y1="59.368" x2="86.577" y2="86.412" stroke="#8c8c8c" stroke-width="0.3" stroke-dasharray="1.2,0.8"/>
<line x1="97.446" y1="84.266" x2="86.897" y2="59.368" stroke="#8c8c8c" stroke-width="0.3" stroke-dasharray="1.2,0.8"/>
<line x1="154.052" y1="39.663" x2="143.499" y2="14.76" stroke="#8c8c8c" stroke-width="0.3" stroke-dasharray="1.2,0.8"/>
<line x1="131.389" y1="56.742" x2="124.496" y2="84.27" stroke="#8c8c8c" stroke-width="0.3" stroke-dasharray="1.2,0.8"/>
<line x1="44.73" y1="73.823" x2="61.551" y2="96.67" stroke="#8c8c8c" stroke-width="0.3" stroke-dasharray="1.2,0.8"/>
<line x1="124.496" y1="84.27" x2="97.446" y2="84.266" stroke="#8c8c8c" stroke-width="0.3" stroke-dasharray="1.2,0.8"/>
<line x1="131.389" y1="56.742" x2="109.553" y2="42.281" stroke="#8c8c8c" stroke-width="0.3" stroke-dasharray="1.2,0.8"/>
<line x1="97.446" y1="84.266" x2="131.389" y2="56.742" stroke="#8c8c8c" stroke-width="0.3" stroke-dasharray="1.2,0.8"/>
<line x1="143.499" y1="14.76" x2="131.389" y2="56.742" stroke="#8c8c8c" stroke-width="0.3" stroke-dasharray="1.2,0.8"/>
<line x1="109.553" y1="42.281" x2="97.446" y2="84.266" stroke="#8c8c8c" stroke-width="0.3" stroke-dasharray="1.2,0.8"/>
<line x1="143.499" y1="14.76" x2="109.553" y2="42.281" stroke="#8c8c8c" stroke-width="0.3" stroke-dasharray="1.2,0.8"/>
<line x1="59.45" y1="52.16" x2="44.73" y2="73.823" stroke="#8c8c8c" stroke-width="0.3" stroke-dasharray="1.2,0.8"/>
<line x1="44.73" y1="73.823" x2="86.577" y2="86.412" stroke="#8c8c8c" stroke-width="0.3" stroke-dasharray="1.2,0.8"/>
<line x1="44.73" y1="73.823" x2="17.604" y2="39.566" stroke="#8c8c8c" stroke-width="0.3" stroke-dasharray="1.2,0.8"/>
<line x1="86.577" y1="86.412" x2="59.45" y2="52.16" stroke="#8c8c8c" stroke-width="0.3" stroke-dasharray="1.2,0.8"/>
<line x1="59.45" y1="52.16" x2="17.604" y2="39.566" stroke="#8c8c8c" stroke-width="0.3" stroke-dasharray="1.2,0.8"/>
<line x1="83.954" y1="54.526" x2="116.452" y2="14.76" stroke="#8c8c8c" stroke-width="0.3" stroke-dasharray="1.2,0.8"/>
<line x1="59.45" y1="52.16" x2="47.502" y2="26.42" stroke="#8c8c8c" stroke-width="0.3" stroke-dasharray="1.2,0.8"/>
<line x1="143.499" y1="14.76" x2="116.452" y2="14.76" stroke="#8c8c8c" stroke-width="0.3" stroke-dasharray="1.2,0.8"/>
<line x1="109.553" y1="42.281" x2="83.954" y2="54.526" stroke="#8c8c8c" stroke-width="0.3" stroke-dasharray="1.2,0.8"/>
<line x1="124.496" y1="84.27" x2="156.99" y2="44.5" stroke="#8c8c8c" stroke-width="0.3" stroke-dasharray="1.2,0.8"/>
<line x1="131.389" y1="56.742" x2="156.99" y2="44.5" stroke="#8c8c8c" stroke-width="0.3" stroke-dasharray="1.2,0.8"/>
<line x1="44.73" y1="73.823" x2="16.399" y2="72.201" stroke="#8c8c8c" stroke-width="0.3" stroke-dasharray="1.2,0.8"/>
<line x1="154.37" y1="12.625" x2="154.052" y2="39.664" stroke="#8c8c8c" stroke-width="0.3" stroke-dasharray="1.2,0.8"/>
<line x1="86.577" y1="86.412" x2="61.551" y2="96.67" stroke="#8c8c8c" stroke-width="0.3" stroke-dasharray="1.2,0.8"/>
<line x1="97.446" y1="84.266" x2="99.717" y2="95.109" stroke="#8c8c8c" stroke-width="0.3" stroke-dasharray="1.2,0.8"/>
<line x1="15.593" y1="28.671" x2="17.604" y2="39.566" stroke="#8c8c8c" stroke-width="0.3" stroke-dasharray="1.2,0.8"/>
<line x1="47.502" y1="26.42" x2="86.897" y2="59.368" stroke="#141414" stroke-width="0.4"/>
<line x1="42.632" y1="29.303" x2="59.45" y2="52.16" stroke="#141414" stroke-width="0.4"/>
<line x1="15.593" y1="28.671" x2="42.632" y2="29.303" stroke="#141414" stroke-width="0.4"/>
<line x1="86.897" y1="59.368" x2="109.553" y2="42.281" stroke="#141414" stroke-width="0.4"/>
<line x1="61.551" y1="96.67" x2="16.399" y2="72.201" stroke="#141414" stroke-width="0.4"/>
<line x1="154.052" y1="39.663" x2="131.389" y2="56.742" stroke="#141414" stroke-width="0.4"/>
<line x1="44.73" y1="73.823" x2="17.286" y2="66.605" stroke="#141414" stroke-width="0.4"/>
<line x1="17.286" y1="66.605" x2="17.604" y2="39.566" stroke="#141414" stroke-width="0.4"/>
<line x1="124.496" y1="84.27" x2="99.717" y2="95.109" stroke="#141414" stroke-width="0.4"/>
<line x1="97.446" y1="84.266" x2="86.577" y2="86.412" stroke="#141414" stroke-width="0.4"/>
<line x1="143.499" y1="14.76" x2="154.369" y2="12.625" stroke="#141414" stroke-width="0.4"/>
<line x1="116.452" y1="14.76" x2="106.157" y2="16.296" stroke="#141414" stroke-width="0.4"/>
<line x1="106.157" y1="16.296" x2="83.408" y2="44.132" stroke="#141414" stroke-width="0.4"/>
<line x1="83.408" y1="44.132" x2="83.954" y2="54.526" stroke="#141414" stroke-width="0.4"/>
<line x1="47.502" y1="26.42" x2="43.133" y2="29.312" stroke="#141414" stroke-width="0.4"/>
<line x1="43.133" y1="29.312" x2="59.12" y2="51.449" stroke="#141414" stroke-width="0.4"/>
<line x1="59.12" y1="51.449" x2="59.45" y2="52.16" stroke="#141414" stroke-width="0.4"/>
<line x1="116.452" y1="14.76" x2="120.509" y2="7.76" stroke="#141414" stroke-width="0.4"/>
<line x1="120.509" y1="7.76" x2="139.442" y2="7.76" stroke="#141414" stroke-width="0.4"/>
<line x1="139.442" y1="7.76" x2="143.499" y2="14.76" stroke="#141414" stroke-width="0.4"/>
<line x1="83.954" y1="54.526" x2="86.898" y2="58.867" stroke="#141414" stroke-width="0.4"/>
<line x1="86.898" y1="58.867" x2="108.846" y2="42.619" stroke="#141414" stroke-width="0.4"/>
<line x1="108.846" y1="42.619" x2="109.553" y2="42.281" stroke="#141414" stroke-width="0.4"/>
<line x1="156.99" y1="44.5" x2="157.537" y2="54.895" stroke="#141414" stroke-width="0.4"/>
<line x1="157.537" y1="54.895" x2="134.791" y2="82.734" stroke="#141414" stroke-width="0.4"/>
<line x1="134.791" y1="82.734" x2="124.496" y2="84.27" stroke="#141414" stroke-width="0.4"/>
<line x1="156.99" y1="44.5" x2="154.048" y2="40.164" stroke="#141414" stroke-width="0.4"/>
<line x1="154.048" y1="40.164" x2="132.095" y2="56.404" stroke="#141414" stroke-width="0.4"/>
<line x1="132.095" y1="56.404" x2="131.389" y2="56.742" stroke="#141414" stroke-width="0.4"/>
<line x1="16.399" y1="72.201" x2="17.478" y2="67.067" stroke="#141414" stroke-width="0.4"/>
<line x1="17.478" y1="67.067" x2="43.948" y2="73.778" stroke="#141414" stroke-width="0.4"/>
<line x1="43.948" y1="73.778" x2="44.73" y2="73.823" stroke="#141414" stroke-width="0.4"/>
<line x1="154.052" y1="39.664" x2="161.099" y2="35.69" stroke="#141414" stroke-width="0.4"/>
<line x1="161.099" y1="35.69" x2="161.321" y2="16.763" stroke="#141414" stroke-width="0.4"/>
<line x1="161.321" y1="16.763" x2="154.37" y2="12.625" stroke="#141414" stroke-width="0.4"/>
<line x1="61.551" y1="96.67" x2="67.96" y2="101.609" stroke="#141414" stroke-width="0.4"/>
<line x1="67.96" y1="101.609" x2="85.478" y2="94.428" stroke="#141414" stroke-width="0.4"/>
<line x1="85.478" y1="94.428" x2="86.577" y2="86.412" stroke="#141414" stroke-width="0.4"/>
<line x1="99.717" y1="95.109" x2="93.954" y2="94.618" stroke="#141414" stroke-width="0.4"/>
<line x1="93.954" y1="94.618" x2="92.365" y2="87.028" stroke="#141414" stroke-width="0.4"/>
<line x1="92.365" y1="87.028" x2="97.446" y2="84.266" stroke="#141414" stroke-width="0.4"/>
<line x1="17.604" y1="39.566" x2="11.855" y2="38.937" stroke="#141414" stroke-width="0.4"/>
<line x1="11.855" y1="38.937" x2="10.447" y2="31.311" stroke="#141414" stroke-width="0.4"/>
<line x1="10.447" y1="31.311" x2="15.593" y2="28.671" stroke="#141414" stroke-width="0.4"/>
<circle cx="97.493" cy="32.429" r="1.21" fill="#ffe082" stroke="#464646" stroke-width="0.2"/>
<text x="97.493" y="32.85" font-size="1.19" text-anchor="middle" fill="#141414">168</text>
<circle cx="129.975" cy="11.26" r="1.21" fill="#ffe082" stroke="#464646" stroke-width="0.2"/>
<text x="129.975" y="11.68" font-size="1.19" text-anchor="middle" fill="#141414">170</text>
<circle cx="143.454" cy="66.6" r="1.21" fill="#ffe082" stroke="#464646" stroke-width="0.2"/>
<text x="143.454" y="67.02" font-size="1.19" text-anchor="middle" fill="#141414">172</text>
<circle cx="157.71" cy="26.185" r="1.21" fill="#ffe082" stroke="#464646" stroke-width="0.2"/>
<text x="157.71" y="26.60" font-size="1.19" text-anchor="middle" fill="#141414">175</text>
<circle cx="75.392" cy="94.78" r="1.21" fill="#99d9fa" stroke="#464646" stroke-width="0.2"/>
<text x="75.392" y="95.20" font-size="1.19" text-anchor="middle" fill="#141414">176</text>
<circle cx="95.87" cy="90.255" r="1.21" fill="#ffe082" stroke="#464646" stroke-width="0.2"/>
<text x="95.87" y="90.67" font-size="1.19" text-anchor="middle" fill="#141414">177</text>
<circle cx="13.875" cy="34.622" r="1.21" fill="#ffe082" stroke="#464646" stroke-width="0.2"/>
<text x="13.875" y="35.04" font-size="1.19" text-anchor="middle" fill="#141414">178</text>
<circle cx="40.595" cy="55.183" r="4.60" fill="#eaf1fe" stroke="#2e78e6" stroke-width="0.3"/>
<text x="40.595" y="56.98" font-size="5.20" text-anchor="middle" fill="#14306e" font-weight="bold">16</text>
<text x="205.0" y="295.0" font-size="3.2" text-anchor="end" fill="#737373" font-family="sans-serif">6 / 6</text>
<g pointer-events="none"><text x="105.0" y="83.2" text-anchor="middle" font-family="sans-serif" font-size="12.4" fill="#9aa0a6" fill-opacity="0.3" transform="rotate(-28 105.0 83.2)">papercraft.kr</text><text x="105.0" y="148.5" text-anchor="middle" font-family="sans-serif" font-size="12.4" fill="#9aa0a6" fill-opacity="0.3" transform="rotate(-28 105.0 148.5)">papercraft.kr</text><text x="105.0" y="213.8" text-anchor="middle" font-family="sans-serif" font-size="12.4" fill="#9aa0a6" fill-opacity="0.3" transform="rotate(-28 105.0 213.8)">papercraft.kr</text></g></svg>
