<svg xmlns="http://www.w3.org/2000/svg" xmlns:xlink="http://www.w3.org/1999/xlink" width="210.00mm" height="297.00mm" viewBox="0 0 210.00 297.00">
<rect x="0" y="0" width="210.00" height="297.00" fill="#ffffff" stroke="#cccccc" stroke-width="0.2"/>
<polygon points="47.676,74.772 39.109,76.184 28.26,97.558 32.178,105.307" fill="rgb(216,216,216)"/>
<polygon points="32.178,105.307 31.358,109.991 47.315,104.264 54.339,97.352" fill="rgb(216,216,216)"/>
<polygon points="19.463,55.365 16.503,51.644 33.263,49.04 42.739,51.748" fill="rgb(216,216,216)"/>
<polygon points="19.918,45.915 18.612,34.445 24.886,23.933 35.602,19.638" fill="rgb(216,216,216)"/>
<polygon points="37.102,113.392 37.489,121.754 55.924,132.654 63.437,128.965" fill="rgb(216,216,216)"/>
<polygon points="109.541,98.426 113.459,106.174 102.615,127.55 94.048,128.964" fill="rgb(216,216,216)"/>
<polygon points="109.541,98.426 110.36,93.743 94.397,99.472 87.37,106.384" fill="rgb(216,216,216)"/>
<polygon points="90.693,24.401 93.653,28.123 76.901,30.726 67.426,28.017" fill="rgb(216,216,216)"/>
<polygon points="105.153,60.135 95.976,53.133 83.737,53.131 74.558,60.13" fill="rgb(216,216,216)"/>
<polygon points="105.153,60.135 100.439,70.673 89.689,76.528 78.278,74.772" fill="rgb(216,216,216)"/>
<polygon points="94.048,128.964 89.456,135.964 68.029,135.964 63.437,128.965" fill="rgb(216,216,216)"/>
<line x1="54.34" y1="97.352" x2="47.676" y2="74.772" stroke="#8c8c8c" stroke-width="0.3" stroke-dasharray="1.2,0.8"/>
<line x1="42.74" y1="51.748" x2="47.676" y2="74.772" stroke="#8c8c8c" stroke-width="0.3" stroke-dasharray="1.2,0.8"/>
<line x1="74.558" y1="60.13" x2="47.676" y2="74.772" stroke="#8c8c8c" stroke-width="0.3" stroke-dasharray="1.2,0.8"/>
<line x1="47.676" y1="74.772" x2="78.278" y2="74.772" stroke="#8c8c8c" stroke-width="0.3" stroke-dasharray="1.2,0.8"/>
<line x1="87.37" y1="106.384" x2="94.048" y2="128.964" stroke="#8c8c8c" stroke-width="0.3" stroke-dasharray="1.2,0.8"/>
<line x1="67.426" y1="28.017" x2="62.476" y2="5.0" stroke="#8c8c8c" stroke-width="0.3" stroke-dasharray="1.2,0.8"/>
<line x1="35.602" y1="19.638" x2="62.476" y2="5.0" stroke="#8c8c8c" stroke-width="0.3" stroke-dasharray="1.2,0.8"/>
<line x1="87.37" y1="106.384" x2="54.34" y2="97.352" stroke="#8c8c8c" stroke-width="0.3" stroke-dasharray="1.2,0.8"/>
<line x1="63.437" y1="128.965" x2="87.37" y2="106.384" stroke="#8c8c8c" stroke-width="0.3" stroke-dasharray="1.2,0.8"/>
<line x1="78.278" y1="74.772" x2="87.37" y2="106.384" stroke="#8c8c8c" stroke-width="0.3" stroke-dasharray="1.2,0.8"/>
<line x1="54.34" y1="97.352" x2="63.437" y2="128.965" stroke="#8c8c8c" stroke-width="0.3" stroke-dasharray="1.2,0.8"/>
<line x1="78.278" y1="74.772" x2="54.34" y2="97.352" stroke="#8c8c8c" stroke-width="0.3" stroke-dasharray="1.2,0.8"/>
<line x1="42.74" y1="51.748" x2="67.426" y2="28.017" stroke="#8c8c8c" stroke-width="0.3" stroke-dasharray="1.2,0.8"/>
<line x1="67.426" y1="28.017" x2="35.602" y2="19.638" stroke="#8c8c8c" stroke-width="0.3" stroke-dasharray="1.2,0.8"/>
<line x1="67.426" y1="28.017" x2="74.558" y2="60.13" stroke="#8c8c8c" stroke-width="0.3" stroke-dasharray="1.2,0.8"/>
<line x1="35.602" y1="19.638" x2="42.74" y2="51.748" stroke="#8c8c8c" stroke-width="0.3" stroke-dasharray="1.2,0.8"/>
<line x1="42.74" y1="51.748" x2="74.558" y2="60.13" stroke="#8c8c8c" stroke-width="0.3" stroke-dasharray="1.2,0.8"/>
<line x1="35.602" y1="19.638" x2="31.865" y2="5.0" stroke="#8c8c8c" stroke-width="0.3" stroke-dasharray="1.2,0.8"/>
<line x1="74.558" y1="60.13" x2="78.278" y2="74.772" stroke="#8c8c8c" stroke-width="0.3" stroke-dasharray="1.2,0.8"/>
<line x1="32.178" y1="105.307" x2="47.676" y2="74.772" stroke="#8c8c8c" stroke-width="0.3" stroke-dasharray="1.2,0.8"/>
<line x1="54.339" y1="97.352" x2="32.178" y2="105.307" stroke="#8c8c8c" stroke-width="0.3" stroke-dasharray="1.2,0.8"/>
<line x1="42.739" y1="51.748" x2="19.463" y2="55.365" stroke="#8c8c8c" stroke-width="0.3" stroke-dasharray="1.2,0.8"/>
<line x1="35.602" y1="19.638" x2="19.918" y2="45.915" stroke="#8c8c8c" stroke-width="0.3" stroke-dasharray="1.2,0.8"/>
<line x1="63.437" y1="128.965" x2="37.102" y2="113.392" stroke="#8c8c8c" stroke-width="0.3" stroke-dasharray="1.2,0.8"/>
<line x1="94.048" y1="128.964" x2="109.541" y2="98.426" stroke="#8c8c8c" stroke-width="0.3" stroke-dasharray="1.2,0.8"/>
<line x1="87.37" y1="106.384" x2="109.541" y2="98.426" stroke="#8c8c8c" stroke-width="0.3" stroke-dasharray="1.2,0.8"/>
<line x1="67.426" y1="28.017" x2="90.693" y2="24.401" stroke="#8c8c8c" stroke-width="0.3" stroke-dasharray="1.2,0.8"/>
<line x1="74.558" y1="60.13" x2="105.153" y2="60.135" stroke="#8c8c8c" stroke-width="0.3" stroke-dasharray="1.2,0.8"/>
<line x1="78.278" y1="74.772" x2="105.153" y2="60.135" stroke="#8c8c8c" stroke-width="0.3" stroke-dasharray="1.2,0.8"/>
<line x1="63.437" y1="128.965" x2="94.048" y2="128.964" stroke="#8c8c8c" stroke-width="0.3" stroke-dasharray="1.2,0.8"/>
<line x1="47.676" y1="74.772" x2="19.463" y2="55.365" stroke="#141414" stroke-width="0.4"/>
<line x1="37.102" y1="113.392" x2="54.34" y2="97.352" stroke="#141414" stroke-width="0.4"/>
<line x1="19.463" y1="55.365" x2="42.74" y2="51.748" stroke="#141414" stroke-width="0.4"/>
<line x1="42.74" y1="51.748" x2="19.918" y2="45.916" stroke="#141414" stroke-width="0.4"/>
<line x1="35.602" y1="19.638" x2="5.0" y2="19.64" stroke="#141414" stroke-width="0.4"/>
<line x1="5.0" y1="19.64" x2="31.865" y2="5.0" stroke="#141414" stroke-width="0.4"/>
<line x1="62.476" y1="5.0" x2="90.693" y2="24.401" stroke="#141414" stroke-width="0.4"/>
<line x1="104.622" y1="90.345" x2="87.37" y2="106.384" stroke="#141414" stroke-width="0.4"/>
<line x1="67.426" y1="28.017" x2="90.236" y2="33.857" stroke="#141414" stroke-width="0.4"/>
<line x1="90.236" y1="33.857" x2="74.558" y2="60.13" stroke="#141414" stroke-width="0.4"/>
<line x1="78.278" y1="74.772" x2="104.622" y2="90.345" stroke="#141414" stroke-width="0.4"/>
<line x1="31.865" y1="5.0" x2="62.476" y2="5.0" stroke="#141414" stroke-width="0.4"/>
<line x1="47.676" y1="74.772" x2="39.109" y2="76.184" stroke="#141414" stroke-width="0.4"/>
<line x1="39.109" y1="76.184" x2="28.26" y2="97.558" stroke="#141414" stroke-width="0.4"/>
<line x1="28.26" y1="97.558" x2="32.178" y2="105.307" stroke="#141414" stroke-width="0.4"/>
<line x1="32.178" y1="105.307" x2="31.358" y2="109.991" stroke="#141414" stroke-width="0.4"/>
<line x1="31.358" y1="109.991" x2="47.315" y2="104.264" stroke="#141414" stroke-width="0.4"/>
<line x1="47.315" y1="104.264" x2="54.339" y2="97.352" stroke="#141414" stroke-width="0.4"/>
<line x1="19.463" y1="55.365" x2="16.503" y2="51.644" stroke="#141414" stroke-width="0.4"/>
<line x1="16.503" y1="51.644" x2="33.263" y2="49.04" stroke="#141414" stroke-width="0.4"/>
<line x1="33.263" y1="49.04" x2="42.739" y2="51.748" stroke="#141414" stroke-width="0.4"/>
<line x1="19.918" y1="45.915" x2="18.612" y2="34.445" stroke="#141414" stroke-width="0.4"/>
<line x1="18.612" y1="34.445" x2="24.886" y2="23.933" stroke="#141414" stroke-width="0.4"/>
<line x1="24.886" y1="23.933" x2="35.602" y2="19.638" stroke="#141414" stroke-width="0.4"/>
<line x1="37.102" y1="113.392" x2="37.489" y2="121.754" stroke="#141414" stroke-width="0.4"/>
<line x1="37.489" y1="121.754" x2="55.924" y2="132.654" stroke="#141414" stroke-width="0.4"/>
<line x1="55.924" y1="132.654" x2="63.437" y2="128.965" stroke="#141414" stroke-width="0.4"/>
<line x1="109.541" y1="98.426" x2="113.459" y2="106.174" stroke="#141414" stroke-width="0.4"/>
<line x1="113.459" y1="106.174" x2="102.615" y2="127.55" stroke="#141414" stroke-width="0.4"/>
<line x1="102.615" y1="127.55" x2="94.048" y2="128.964" stroke="#141414" stroke-width="0.4"/>
<line x1="109.541" y1="98.426" x2="110.36" y2="93.743" stroke="#141414" stroke-width="0.4"/>
<line x1="110.36" y1="93.743" x2="94.397" y2="99.472" stroke="#141414" stroke-width="0.4"/>
<line x1="94.397" y1="99.472" x2="87.37" y2="106.384" stroke="#141414" stroke-width="0.4"/>
<line x1="90.693" y1="24.401" x2="93.653" y2="28.123" stroke="#141414" stroke-width="0.4"/>
<line x1="93.653" y1="28.123" x2="76.901" y2="30.726" stroke="#141414" stroke-width="0.4"/>
<line x1="76.901" y1="30.726" x2="67.426" y2="28.017" stroke="#141414" stroke-width="0.4"/>
<line x1="105.153" y1="60.135" x2="95.976" y2="53.133" stroke="#141414" stroke-width="0.4"/>
<line x1="95.976" y1="53.133" x2="83.737" y2="53.131" stroke="#141414" stroke-width="0.4"/>
<line x1="83.737" y1="53.131" x2="74.558" y2="60.13" stroke="#141414" stroke-width="0.4"/>
<line x1="105.153" y1="60.135" x2="100.439" y2="70.673" stroke="#141414" stroke-width="0.4"/>
<line x1="100.439" y1="70.673" x2="89.689" y2="76.528" stroke="#141414" stroke-width="0.4"/>
<line x1="89.689" y1="76.528" x2="78.278" y2="74.772" stroke="#141414" stroke-width="0.4"/>
<line x1="94.048" y1="128.964" x2="89.456" y2="135.964" stroke="#141414" stroke-width="0.4"/>
<line x1="89.456" y1="135.964" x2="68.029" y2="135.964" stroke="#141414" stroke-width="0.4"/>
<line x1="68.029" y1="135.964" x2="63.437" y2="128.965" stroke="#141414" stroke-width="0.4"/>
<circle cx="36.806" cy="88.455" r="1.21" fill="#ffe082" stroke="#464646" stroke-width="0.2"/>
<text x="36.806" y="88.87" font-size="1.19" text-anchor="middle" fill="#141414">12</text>
<circle cx="41.297" cy="104.229" r="1.21" fill="#ffe082" stroke="#464646" stroke-width="0.2"/>
<text x="41.297" y="104.65" font-size="1.19" text-anchor="middle" fill="#141414">13</text>
<circle cx="27.992" cy="51.949" r="1.21" fill="#ffe082" stroke="#464646" stroke-width="0.2"/>
<text x="27.992" y="52.37" font-size="1.19" text-anchor="middle" fill="#141414">14</text>
<circle cx="24.755" cy="30.983" r="1.21" fill="#ffe082" stroke="#464646" stroke-width="0.2"/>
<text x="24.755" y="31.40" font-size="1.19" text-anchor="middle" fill="#141414">15</text>
<circle cx="48.488" cy="124.191" r="1.21" fill="#ffe082" stroke="#464646" stroke-width="0.2"/>
<text x="48.488" y="124.61" font-size="1.19" text-anchor="middle" fill="#141414">16</text>
<circle cx="104.916" cy="115.278" r="1.21" fill="#ffe082" stroke="#464646" stroke-width="0.2"/>
<text x="104.916" y="115.69" font-size="1.19" text-anchor="middle" fill="#141414">17</text>
<circle cx="100.417" cy="99.506" r="1.21" fill="#ffe082" stroke="#464646" stroke-width="0.2"/>
<text x="100.417" y="99.92" font-size="1.19" text-anchor="middle" fill="#141414">18</text>
<circle cx="82.168" cy="27.817" r="1.21" fill="#ffe082" stroke="#464646" stroke-width="0.2"/>
<text x="82.168" y="28.23" font-size="1.19" text-anchor="middle" fill="#141414">19</text>
<circle cx="89.856" cy="56.632" r="1.21" fill="#ffe082" stroke="#464646" stroke-width="0.2"/>
<text x="89.856" y="57.05" font-size="1.19" text-anchor="middle" fill="#141414">20</text>
<circle cx="93.389" cy="70.527" r="1.21" fill="#ffe082" stroke="#464646" stroke-width="0.2"/>
<text x="93.389" y="70.94" font-size="1.19" text-anchor="middle" fill="#141414">21</text>
<circle cx="78.743" cy="132.464" r="1.21" fill="#ffe082" stroke="#464646" stroke-width="0.2"/>
<text x="78.743" y="132.88" font-size="1.19" text-anchor="middle" fill="#141414">22</text>
<circle cx="59.23" cy="142.064" r="4.6" fill="#eaf1fe" stroke="#2e78e6" stroke-width="0.3"/>
<text x="59.23" y="143.864" font-size="5.2" text-anchor="middle" fill="#14306e" font-weight="bold">2</text>
<polygon points="156.023,31.457 162.308,24.508 166.542,24.508 171.144,31.457" fill="rgb(216,216,216)"/>
<polygon points="131.58,53.978 124.142,59.675 123.798,63.894 130.349,69.046" fill="rgb(216,216,216)"/>
<polygon points="176.815,45.474 185.95,43.393 188.021,39.701 184.211,32.289" fill="rgb(216,216,216)"/>
<polygon points="165.082,76.57 160.991,85.0 162.576,88.926 170.742,90.592" fill="rgb(216,216,216)"/>
<polygon points="160.53,57.094 150.413,65.304 147.902,72.657 151.562,83.356" fill="rgb(216,216,216)"/>
<polygon points="151.343,50.903 147.518,63.356 141.639,68.436 130.349,69.046" fill="rgb(216,216,216)"/>
<polygon points="181.362,64.952 186.236,71.476 178.803,89.425 170.742,90.592" fill="rgb(216,216,216)"/>
<polygon points="127.079,28.326 125.146,20.415 139.009,6.81 146.882,8.89" fill="rgb(216,216,216)"/>
<polygon points="136.26,34.527 140.085,22.073 145.963,16.991 157.254,16.38" fill="rgb(216,216,216)"/>
<polygon points="161.924,91.358 156.369,95.34 149.115,89.738 151.562,83.356" fill="rgb(216,216,216)"/>
<polygon points="157.254,16.38 162.256,11.722 170.166,16.351 168.554,22.993" fill="rgb(216,216,216)"/>
<line x1="131.58" y1="53.978" x2="156.023" y2="31.457" stroke="#8c8c8c" stroke-width="0.3" stroke-dasharray="1.2,0.8"/>
<line x1="151.343" y1="50.903" x2="156.023" y2="31.457" stroke="#8c8c8c" stroke-width="0.3" stroke-dasharray="1.2,0.8"/>
<line x1="136.26" y1="34.527" x2="156.023" y2="31.457" stroke="#8c8c8c" stroke-width="0.3" stroke-dasharray="1.2,0.8"/>
<line x1="157.254" y1="16.38" x2="156.023" y2="31.457" stroke="#8c8c8c" stroke-width="0.3" stroke-dasharray="1.2,0.8"/>
<line x1="151.343" y1="50.903" x2="131.58" y2="53.978" stroke="#8c8c8c" stroke-width="0.3" stroke-dasharray="1.2,0.8"/>
<line x1="131.58" y1="53.978" x2="136.26" y2="34.527" stroke="#8c8c8c" stroke-width="0.3" stroke-dasharray="1.2,0.8"/>
<line x1="131.58" y1="53.978" x2="116.459" y2="53.967" stroke="#8c8c8c" stroke-width="0.3" stroke-dasharray="1.2,0.8"/>
<line x1="176.815" y1="45.474" x2="165.082" y2="76.57" stroke="#8c8c8c" stroke-width="0.3" stroke-dasharray="1.2,0.8"/>
<line x1="160.53" y1="57.094" x2="176.815" y2="45.474" stroke="#8c8c8c" stroke-width="0.3" stroke-dasharray="1.2,0.8"/>
<line x1="176.815" y1="45.474" x2="181.362" y2="64.952" stroke="#8c8c8c" stroke-width="0.3" stroke-dasharray="1.2,0.8"/>
<line x1="176.815" y1="45.474" x2="171.144" y2="31.457" stroke="#8c8c8c" stroke-width="0.3" stroke-dasharray="1.2,0.8"/>
<line x1="160.53" y1="57.094" x2="165.082" y2="76.57" stroke="#8c8c8c" stroke-width="0.3" stroke-dasharray="1.2,0.8"/>
<line x1="181.362" y1="64.952" x2="165.082" y2="76.57" stroke="#8c8c8c" stroke-width="0.3" stroke-dasharray="1.2,0.8"/>
<line x1="165.082" y1="76.57" x2="151.562" y2="83.356" stroke="#8c8c8c" stroke-width="0.3" stroke-dasharray="1.2,0.8"/>
<line x1="160.53" y1="57.094" x2="151.343" y2="50.903" stroke="#8c8c8c" stroke-width="0.3" stroke-dasharray="1.2,0.8"/>
<line x1="171.144" y1="31.457" x2="160.53" y2="57.094" stroke="#8c8c8c" stroke-width="0.3" stroke-dasharray="1.2,0.8"/>
<line x1="171.144" y1="31.457" x2="151.343" y2="50.903" stroke="#8c8c8c" stroke-width="0.3" stroke-dasharray="1.2,0.8"/>
<line x1="136.26" y1="34.527" x2="127.079" y2="28.326" stroke="#8c8c8c" stroke-width="0.3" stroke-dasharray="1.2,0.8"/>
<line x1="116.459" y1="53.967" x2="136.26" y2="34.527" stroke="#8c8c8c" stroke-width="0.3" stroke-dasharray="1.2,0.8"/>
<line x1="171.144" y1="31.457" x2="156.023" y2="31.457" stroke="#8c8c8c" stroke-width="0.3" stroke-dasharray="1.2,0.8"/>
<line x1="130.349" y1="69.046" x2="131.58" y2="53.978" stroke="#8c8c8c" stroke-width="0.3" stroke-dasharray="1.2,0.8"/>
<line x1="184.211" y1="32.289" x2="176.815" y2="45.474" stroke="#8c8c8c" stroke-width="0.3" stroke-dasharray="1.2,0.8"/>
<line x1="170.742" y1="90.592" x2="165.082" y2="76.57" stroke="#8c8c8c" stroke-width="0.3" stroke-dasharray="1.2,0.8"/>
<line x1="151.562" y1="83.356" x2="160.53" y2="57.094" stroke="#8c8c8c" stroke-width="0.3" stroke-dasharray="1.2,0.8"/>
<line x1="130.349" y1="69.046" x2="151.343" y2="50.903" stroke="#8c8c8c" stroke-width="0.3" stroke-dasharray="1.2,0.8"/>
<line x1="170.742" y1="90.592" x2="181.362" y2="64.952" stroke="#8c8c8c" stroke-width="0.3" stroke-dasharray="1.2,0.8"/>
<line x1="146.882" y1="8.89" x2="127.079" y2="28.326" stroke="#8c8c8c" stroke-width="0.3" stroke-dasharray="1.2,0.8"/>
<line x1="157.254" y1="16.38" x2="136.26" y2="34.527" stroke="#8c8c8c" stroke-width="0.3" stroke-dasharray="1.2,0.8"/>
<line x1="151.562" y1="83.356" x2="161.924" y2="91.358" stroke="#8c8c8c" stroke-width="0.3" stroke-dasharray="1.2,0.8"/>
<line x1="168.554" y1="22.993" x2="157.254" y2="16.38" stroke="#8c8c8c" stroke-width="0.3" stroke-dasharray="1.2,0.8"/>
<line x1="168.554" y1="22.993" x2="156.023" y2="31.457" stroke="#141414" stroke-width="0.4"/>
<line x1="131.58" y1="53.978" x2="122.122" y2="65.772" stroke="#141414" stroke-width="0.4"/>
<line x1="176.815" y1="45.474" x2="190.327" y2="38.692" stroke="#141414" stroke-width="0.4"/>
<line x1="165.082" y1="76.57" x2="161.924" y2="91.359" stroke="#141414" stroke-width="0.4"/>
<line x1="160.53" y1="57.094" x2="140.734" y2="76.542" stroke="#141414" stroke-width="0.4"/>
<line x1="140.734" y1="76.542" x2="151.343" y2="50.903" stroke="#141414" stroke-width="0.4"/>
<line x1="116.459" y1="53.967" x2="127.079" y2="28.326" stroke="#141414" stroke-width="0.4"/>
<line x1="190.327" y1="38.692" x2="181.362" y2="64.952" stroke="#141414" stroke-width="0.4"/>
<line x1="146.882" y1="8.89" x2="136.26" y2="34.527" stroke="#141414" stroke-width="0.4"/>
<line x1="122.122" y1="65.772" x2="116.459" y2="53.967" stroke="#141414" stroke-width="0.4"/>
<line x1="171.144" y1="31.457" x2="184.211" y2="32.289" stroke="#141414" stroke-width="0.4"/>
<line x1="156.023" y1="31.457" x2="162.308" y2="24.508" stroke="#141414" stroke-width="0.4"/>
<line x1="162.308" y1="24.508" x2="166.542" y2="24.508" stroke="#141414" stroke-width="0.4"/>
<line x1="166.542" y1="24.508" x2="171.144" y2="31.457" stroke="#141414" stroke-width="0.4"/>
<line x1="131.58" y1="53.978" x2="124.142" y2="59.675" stroke="#141414" stroke-width="0.4"/>
<line x1="124.142" y1="59.675" x2="123.798" y2="63.894" stroke="#141414" stroke-width="0.4"/>
<line x1="123.798" y1="63.894" x2="130.349" y2="69.046" stroke="#141414" stroke-width="0.4"/>
<line x1="176.815" y1="45.474" x2="185.95" y2="43.393" stroke="#141414" stroke-width="0.4"/>
<line x1="185.95" y1="43.393" x2="188.021" y2="39.701" stroke="#141414" stroke-width="0.4"/>
<line x1="188.021" y1="39.701" x2="184.211" y2="32.289" stroke="#141414" stroke-width="0.4"/>
<line x1="165.082" y1="76.57" x2="160.991" y2="85.0" stroke="#141414" stroke-width="0.4"/>
<line x1="160.991" y1="85.0" x2="162.576" y2="88.926" stroke="#141414" stroke-width="0.4"/>
<line x1="162.576" y1="88.926" x2="170.742" y2="90.592" stroke="#141414" stroke-width="0.4"/>
<line x1="160.53" y1="57.094" x2="150.413" y2="65.304" stroke="#141414" stroke-width="0.4"/>
<line x1="150.413" y1="65.304" x2="147.902" y2="72.657" stroke="#141414" stroke-width="0.4"/>
<line x1="147.902" y1="72.657" x2="151.562" y2="83.356" stroke="#141414" stroke-width="0.4"/>
<line x1="151.343" y1="50.903" x2="147.518" y2="63.356" stroke="#141414" stroke-width="0.4"/>
<line x1="147.518" y1="63.356" x2="141.639" y2="68.436" stroke="#141414" stroke-width="0.4"/>
<line x1="141.639" y1="68.436" x2="130.349" y2="69.046" stroke="#141414" stroke-width="0.4"/>
<line x1="181.362" y1="64.952" x2="186.236" y2="71.476" stroke="#141414" stroke-width="0.4"/>
<line x1="186.236" y1="71.476" x2="178.803" y2="89.425" stroke="#141414" stroke-width="0.4"/>
<line x1="178.803" y1="89.425" x2="170.742" y2="90.592" stroke="#141414" stroke-width="0.4"/>
<line x1="127.079" y1="28.326" x2="125.146" y2="20.415" stroke="#141414" stroke-width="0.4"/>
<line x1="125.146" y1="20.415" x2="139.009" y2="6.81" stroke="#141414" stroke-width="0.4"/>
<line x1="139.009" y1="6.81" x2="146.882" y2="8.89" stroke="#141414" stroke-width="0.4"/>
<line x1="136.26" y1="34.527" x2="140.085" y2="22.073" stroke="#141414" stroke-width="0.4"/>
<line x1="140.085" y1="22.073" x2="145.963" y2="16.991" stroke="#141414" stroke-width="0.4"/>
<line x1="145.963" y1="16.991" x2="157.254" y2="16.38" stroke="#141414" stroke-width="0.4"/>
<line x1="161.924" y1="91.358" x2="156.369" y2="95.34" stroke="#141414" stroke-width="0.4"/>
<line x1="156.369" y1="95.34" x2="149.115" y2="89.738" stroke="#141414" stroke-width="0.4"/>
<line x1="149.115" y1="89.738" x2="151.562" y2="83.356" stroke="#141414" stroke-width="0.4"/>
<line x1="157.254" y1="16.38" x2="162.256" y2="11.722" stroke="#141414" stroke-width="0.4"/>
<line x1="162.256" y1="11.722" x2="170.166" y2="16.351" stroke="#141414" stroke-width="0.4"/>
<line x1="170.166" y1="16.351" x2="168.554" y2="22.993" stroke="#141414" stroke-width="0.4"/>
<circle cx="164.005" cy="27.982" r="1.21" fill="#ffe082" stroke="#464646" stroke-width="0.2"/>
<text x="164.005" y="28.40" font-size="1.19" text-anchor="middle" fill="#141414">23</text>
<circle cx="127.467" cy="61.648" r="1.21" fill="#ffe082" stroke="#464646" stroke-width="0.2"/>
<text x="127.467" y="62.06" font-size="1.19" text-anchor="middle" fill="#141414">24</text>
<circle cx="183.749" cy="40.214" r="1.21" fill="#ffe082" stroke="#464646" stroke-width="0.2"/>
<text x="183.749" y="40.63" font-size="1.19" text-anchor="middle" fill="#141414">25</text>
<circle cx="164.848" cy="85.272" r="1.21" fill="#ffe082" stroke="#464646" stroke-width="0.2"/>
<text x="164.848" y="85.69" font-size="1.19" text-anchor="middle" fill="#141414">26</text>
<circle cx="152.602" cy="69.603" r="1.21" fill="#ffe082" stroke="#464646" stroke-width="0.2"/>
<text x="152.602" y="70.02" font-size="1.19" text-anchor="middle" fill="#141414">27</text>
<circle cx="142.712" cy="62.935" r="1.21" fill="#ffe082" stroke="#464646" stroke-width="0.2"/>
<text x="142.712" y="63.35" font-size="1.19" text-anchor="middle" fill="#141414">28</text>
<circle cx="179.286" cy="79.111" r="1.21" fill="#ffe082" stroke="#464646" stroke-width="0.2"/>
<text x="179.286" y="79.53" font-size="1.19" text-anchor="middle" fill="#141414">29</text>
<circle cx="134.529" cy="16.11" r="1.21" fill="#ffe082" stroke="#464646" stroke-width="0.2"/>
<text x="134.529" y="16.53" font-size="1.19" text-anchor="middle" fill="#141414">30</text>
<circle cx="144.89" cy="22.493" r="1.21" fill="#ffe082" stroke="#464646" stroke-width="0.2"/>
<text x="144.89" y="22.91" font-size="1.19" text-anchor="middle" fill="#141414">31</text>
<circle cx="154.742" cy="89.948" r="1.21" fill="#ffe082" stroke="#464646" stroke-width="0.2"/>
<text x="154.742" y="90.36" font-size="1.19" text-anchor="middle" fill="#141414">32</text>
<circle cx="164.557" cy="16.862" r="1.21" fill="#ffe082" stroke="#464646" stroke-width="0.2"/>
<text x="164.557" y="17.28" font-size="1.19" text-anchor="middle" fill="#141414">33</text>
<circle cx="153.393" cy="99.63" r="4.6" fill="#eaf1fe" stroke="#2e78e6" stroke-width="0.3"/>
<text x="153.393" y="101.42999999999999" font-size="5.2" text-anchor="middle" fill="#14306e" font-weight="bold">3</text>
<polygon points="44.565,165.419 52.003,159.718 52.348,155.496 45.797,150.342" fill="rgb(216,216,216)"/>
<polygon points="20.121,187.947 12.682,193.644 12.337,197.864 18.887,203.017" fill="rgb(216,216,216)"/>
<polygon points="65.353,179.437 74.489,177.355 76.561,173.662 72.751,166.249" fill="rgb(216,216,216)"/>
<polygon points="53.618,210.538 51.117,219.57 47.332,221.471 40.099,217.326" fill="rgb(216,216,216)"/>
<polygon points="49.067,191.062 38.95,199.273 36.439,206.627 40.099,217.326" fill="rgb(216,216,216)"/>
<polygon points="39.883,184.87 36.057,197.325 30.178,202.406 18.887,203.017" fill="rgb(216,216,216)"/>
<polygon points="69.901,198.913 74.775,205.438 67.34,223.39 59.28,224.558" fill="rgb(216,216,216)"/>
<polygon points="15.621,162.295 13.687,154.383 27.549,140.774 35.424,142.853" fill="rgb(216,216,216)"/>
<polygon points="24.802,168.492 28.627,156.037 34.506,150.954 45.797,150.342" fill="rgb(216,216,216)"/>
<polygon points="59.28,224.558 56.905,230.967 47.758,230.387 46.213,223.729" fill="rgb(216,216,216)"/>
<polygon points="54.023,153.613 60.775,152.553 64.738,160.817 59.685,165.419" fill="rgb(216,216,216)"/>
<line x1="20.121" y1="187.947" x2="44.565" y2="165.419" stroke="#8c8c8c" stroke-width="0.3" stroke-dasharray="1.2,0.8"/>
<line x1="39.883" y1="184.87" x2="44.565" y2="165.419" stroke="#8c8c8c" stroke-width="0.3" stroke-dasharray="1.2,0.8"/>
<line x1="24.802" y1="168.492" x2="44.565" y2="165.419" stroke="#8c8c8c" stroke-width="0.3" stroke-dasharray="1.2,0.8"/>
<line x1="44.565" y1="165.419" x2="59.685" y2="165.419" stroke="#8c8c8c" stroke-width="0.3" stroke-dasharray="1.2,0.8"/>
<line x1="39.883" y1="184.87" x2="20.121" y2="187.947" stroke="#8c8c8c" stroke-width="0.3" stroke-dasharray="1.2,0.8"/>
<line x1="20.121" y1="187.947" x2="24.802" y2="168.492" stroke="#8c8c8c" stroke-width="0.3" stroke-dasharray="1.2,0.8"/>
<line x1="20.121" y1="187.947" x2="5.0" y2="187.94" stroke="#8c8c8c" stroke-width="0.3" stroke-dasharray="1.2,0.8"/>
<line x1="65.353" y1="179.437" x2="53.618" y2="210.538" stroke="#8c8c8c" stroke-width="0.3" stroke-dasharray="1.2,0.8"/>
<line x1="49.067" y1="191.062" x2="65.353" y2="179.437" stroke="#8c8c8c" stroke-width="0.3" stroke-dasharray="1.2,0.8"/>
<line x1="65.353" y1="179.437" x2="69.901" y2="198.913" stroke="#8c8c8c" stroke-width="0.3" stroke-dasharray="1.2,0.8"/>
<line x1="65.353" y1="179.437" x2="59.685" y2="165.419" stroke="#8c8c8c" stroke-width="0.3" stroke-dasharray="1.2,0.8"/>
<line x1="49.067" y1="191.062" x2="53.618" y2="210.538" stroke="#8c8c8c" stroke-width="0.3" stroke-dasharray="1.2,0.8"/>
<line x1="69.901" y1="198.913" x2="53.618" y2="210.538" stroke="#8c8c8c" stroke-width="0.3" stroke-dasharray="1.2,0.8"/>
<line x1="59.28" y1="224.558" x2="53.618" y2="210.538" stroke="#8c8c8c" stroke-width="0.3" stroke-dasharray="1.2,0.8"/>
<line x1="49.067" y1="191.062" x2="39.883" y2="184.87" stroke="#8c8c8c" stroke-width="0.3" stroke-dasharray="1.2,0.8"/>
<line x1="59.685" y1="165.419" x2="49.067" y2="191.062" stroke="#8c8c8c" stroke-width="0.3" stroke-dasharray="1.2,0.8"/>
<line x1="59.685" y1="165.419" x2="39.883" y2="184.87" stroke="#8c8c8c" stroke-width="0.3" stroke-dasharray="1.2,0.8"/>
<line x1="24.802" y1="168.492" x2="15.621" y2="162.295" stroke="#8c8c8c" stroke-width="0.3" stroke-dasharray="1.2,0.8"/>
<line x1="5.0" y1="187.94" x2="24.802" y2="168.492" stroke="#8c8c8c" stroke-width="0.3" stroke-dasharray="1.2,0.8"/>
<line x1="45.797" y1="150.342" x2="44.565" y2="165.419" stroke="#8c8c8c" stroke-width="0.3" stroke-dasharray="1.2,0.8"/>
<line x1="18.887" y1="203.017" x2="20.121" y2="187.947" stroke="#8c8c8c" stroke-width="0.3" stroke-dasharray="1.2,0.8"/>
<line x1="72.751" y1="166.249" x2="65.353" y2="179.437" stroke="#8c8c8c" stroke-width="0.3" stroke-dasharray="1.2,0.8"/>
<line x1="40.099" y1="217.326" x2="53.618" y2="210.538" stroke="#8c8c8c" stroke-width="0.3" stroke-dasharray="1.2,0.8"/>
<line x1="40.099" y1="217.326" x2="49.067" y2="191.062" stroke="#8c8c8c" stroke-width="0.3" stroke-dasharray="1.2,0.8"/>
<line x1="18.887" y1="203.017" x2="39.883" y2="184.87" stroke="#8c8c8c" stroke-width="0.3" stroke-dasharray="1.2,0.8"/>
<line x1="59.28" y1="224.558" x2="69.901" y2="198.913" stroke="#8c8c8c" stroke-width="0.3" stroke-dasharray="1.2,0.8"/>
<line x1="35.424" y1="142.853" x2="15.621" y2="162.295" stroke="#8c8c8c" stroke-width="0.3" stroke-dasharray="1.2,0.8"/>
<line x1="45.797" y1="150.342" x2="24.802" y2="168.492" stroke="#8c8c8c" stroke-width="0.3" stroke-dasharray="1.2,0.8"/>
<line x1="46.213" y1="223.729" x2="59.28" y2="224.558" stroke="#8c8c8c" stroke-width="0.3" stroke-dasharray="1.2,0.8"/>
<line x1="59.685" y1="165.419" x2="54.023" y2="153.613" stroke="#8c8c8c" stroke-width="0.3" stroke-dasharray="1.2,0.8"/>
<line x1="44.565" y1="165.419" x2="54.023" y2="153.613" stroke="#141414" stroke-width="0.4"/>
<line x1="20.121" y1="187.947" x2="10.663" y2="199.745" stroke="#141414" stroke-width="0.4"/>
<line x1="65.353" y1="179.437" x2="78.866" y2="172.65" stroke="#141414" stroke-width="0.4"/>
<line x1="46.213" y1="223.729" x2="53.618" y2="210.538" stroke="#141414" stroke-width="0.4"/>
<line x1="49.067" y1="191.062" x2="29.271" y2="210.512" stroke="#141414" stroke-width="0.4"/>
<line x1="29.271" y1="210.512" x2="39.883" y2="184.87" stroke="#141414" stroke-width="0.4"/>
<line x1="5.0" y1="187.94" x2="15.621" y2="162.295" stroke="#141414" stroke-width="0.4"/>
<line x1="78.866" y1="172.65" x2="69.901" y2="198.913" stroke="#141414" stroke-width="0.4"/>
<line x1="35.424" y1="142.853" x2="24.802" y2="168.492" stroke="#141414" stroke-width="0.4"/>
<line x1="10.663" y1="199.745" x2="5.0" y2="187.94" stroke="#141414" stroke-width="0.4"/>
<line x1="59.685" y1="165.419" x2="72.751" y2="166.249" stroke="#141414" stroke-width="0.4"/>
<line x1="44.565" y1="165.419" x2="52.003" y2="159.718" stroke="#141414" stroke-width="0.4"/>
<line x1="52.003" y1="159.718" x2="52.348" y2="155.496" stroke="#141414" stroke-width="0.4"/>
<line x1="52.348" y1="155.496" x2="45.797" y2="150.342" stroke="#141414" stroke-width="0.4"/>
<line x1="20.121" y1="187.947" x2="12.682" y2="193.644" stroke="#141414" stroke-width="0.4"/>
<line x1="12.682" y1="193.644" x2="12.337" y2="197.864" stroke="#141414" stroke-width="0.4"/>
<line x1="12.337" y1="197.864" x2="18.887" y2="203.017" stroke="#141414" stroke-width="0.4"/>
<line x1="65.353" y1="179.437" x2="74.489" y2="177.355" stroke="#141414" stroke-width="0.4"/>
<line x1="74.489" y1="177.355" x2="76.561" y2="173.662" stroke="#141414" stroke-width="0.4"/>
<line x1="76.561" y1="173.662" x2="72.751" y2="166.249" stroke="#141414" stroke-width="0.4"/>
<line x1="53.618" y1="210.538" x2="51.117" y2="219.57" stroke="#141414" stroke-width="0.4"/>
<line x1="51.117" y1="219.57" x2="47.332" y2="221.471" stroke="#141414" stroke-width="0.4"/>
<line x1="47.332" y1="221.471" x2="40.099" y2="217.326" stroke="#141414" stroke-width="0.4"/>
<line x1="49.067" y1="191.062" x2="38.95" y2="199.273" stroke="#141414" stroke-width="0.4"/>
<line x1="38.95" y1="199.273" x2="36.439" y2="206.627" stroke="#141414" stroke-width="0.4"/>
<line x1="36.439" y1="206.627" x2="40.099" y2="217.326" stroke="#141414" stroke-width="0.4"/>
<line x1="39.883" y1="184.87" x2="36.057" y2="197.325" stroke="#141414" stroke-width="0.4"/>
<line x1="36.057" y1="197.325" x2="30.178" y2="202.406" stroke="#141414" stroke-width="0.4"/>
<line x1="30.178" y1="202.406" x2="18.887" y2="203.017" stroke="#141414" stroke-width="0.4"/>
<line x1="69.901" y1="198.913" x2="74.775" y2="205.438" stroke="#141414" stroke-width="0.4"/>
<line x1="74.775" y1="205.438" x2="67.34" y2="223.39" stroke="#141414" stroke-width="0.4"/>
<line x1="67.34" y1="223.39" x2="59.28" y2="224.558" stroke="#141414" stroke-width="0.4"/>
<line x1="15.621" y1="162.295" x2="13.687" y2="154.383" stroke="#141414" stroke-width="0.4"/>
<line x1="13.687" y1="154.383" x2="27.549" y2="140.774" stroke="#141414" stroke-width="0.4"/>
<line x1="27.549" y1="140.774" x2="35.424" y2="142.853" stroke="#141414" stroke-width="0.4"/>
<line x1="24.802" y1="168.492" x2="28.627" y2="156.037" stroke="#141414" stroke-width="0.4"/>
<line x1="28.627" y1="156.037" x2="34.506" y2="150.954" stroke="#141414" stroke-width="0.4"/>
<line x1="34.506" y1="150.954" x2="45.797" y2="150.342" stroke="#141414" stroke-width="0.4"/>
<line x1="59.28" y1="224.558" x2="56.905" y2="230.967" stroke="#141414" stroke-width="0.4"/>
<line x1="56.905" y1="230.967" x2="47.758" y2="230.387" stroke="#141414" stroke-width="0.4"/>
<line x1="47.758" y1="230.387" x2="46.213" y2="223.729" stroke="#141414" stroke-width="0.4"/>
<line x1="54.023" y1="153.613" x2="60.775" y2="152.553" stroke="#141414" stroke-width="0.4"/>
<line x1="60.775" y1="152.553" x2="64.738" y2="160.817" stroke="#141414" stroke-width="0.4"/>
<line x1="64.738" y1="160.817" x2="59.685" y2="165.419" stroke="#141414" stroke-width="0.4"/>
<circle cx="48.678" cy="157.744" r="1.21" fill="#ffe082" stroke="#464646" stroke-width="0.2"/>
<text x="48.678" y="158.16" font-size="1.19" text-anchor="middle" fill="#141414">34</text>
<circle cx="16.007" cy="195.618" r="1.21" fill="#ffe082" stroke="#464646" stroke-width="0.2"/>
<text x="16.007" y="196.03" font-size="1.19" text-anchor="middle" fill="#141414">35</text>
<circle cx="72.289" cy="174.176" r="1.21" fill="#ffe082" stroke="#464646" stroke-width="0.2"/>
<text x="72.289" y="174.59" font-size="1.19" text-anchor="middle" fill="#141414">36</text>
<circle cx="48.042" cy="217.226" r="1.21" fill="#ffe082" stroke="#464646" stroke-width="0.2"/>
<text x="48.042" y="217.64" font-size="1.19" text-anchor="middle" fill="#141414">37</text>
<circle cx="41.139" cy="203.572" r="1.21" fill="#ffe082" stroke="#464646" stroke-width="0.2"/>
<text x="41.139" y="203.99" font-size="1.19" text-anchor="middle" fill="#141414">38</text>
<circle cx="31.251" cy="196.905" r="1.21" fill="#ffe082" stroke="#464646" stroke-width="0.2"/>
<text x="31.251" y="197.32" font-size="1.19" text-anchor="middle" fill="#141414">39</text>
<circle cx="67.824" cy="213.075" r="1.21" fill="#ffe082" stroke="#464646" stroke-width="0.2"/>
<text x="67.824" y="213.49" font-size="1.19" text-anchor="middle" fill="#141414">40</text>
<circle cx="23.07" cy="150.076" r="1.21" fill="#ffe082" stroke="#464646" stroke-width="0.2"/>
<text x="23.07" y="150.49" font-size="1.19" text-anchor="middle" fill="#141414">41</text>
<circle cx="33.433" cy="156.456" r="1.21" fill="#ffe082" stroke="#464646" stroke-width="0.2"/>
<text x="33.433" y="156.87" font-size="1.19" text-anchor="middle" fill="#141414">42</text>
<circle cx="52.539" cy="227.41" r="1.21" fill="#ffe082" stroke="#464646" stroke-width="0.2"/>
<text x="52.539" y="227.83" font-size="1.19" text-anchor="middle" fill="#141414">43</text>
<circle cx="59.805" cy="158.101" r="1.21" fill="#ffe082" stroke="#464646" stroke-width="0.2"/>
<text x="59.805" y="158.52" font-size="1.19" text-anchor="middle" fill="#141414">44</text>
<circle cx="41.933" cy="132.864" r="4.6" fill="#eaf1fe" stroke="#2e78e6" stroke-width="0.3"/>
<text x="41.933" y="134.66400000000002" font-size="5.2" text-anchor="middle" fill="#14306e" font-weight="bold">4</text>
<polygon points="121.424,165.411 128.861,159.709 129.204,155.488 122.651,150.337" fill="rgb(216,216,216)"/>
<polygon points="96.987,187.947 89.549,193.647 89.205,197.868 95.756,203.022" fill="rgb(216,216,216)"/>
<polygon points="142.212,179.429 151.349,177.344 153.42,173.65 149.609,166.236" fill="rgb(216,216,216)"/>
<polygon points="130.486,210.534 127.989,219.566 124.205,221.467 116.972,217.325" fill="rgb(216,216,216)"/>
<polygon points="125.93,191.06 115.816,199.273 113.308,206.627 116.972,217.325" fill="rgb(216,216,216)"/>
<polygon points="116.747,184.867 112.925,197.323 107.047,202.407 95.756,203.022" fill="rgb(216,216,216)"/>
<polygon points="146.767,198.902 151.644,205.425 144.215,223.378 136.156,224.548" fill="rgb(216,216,216)"/>
<polygon points="92.478,162.301 90.541,154.39 104.398,140.774 112.273,142.849" fill="rgb(216,216,216)"/>
<polygon points="101.663,168.491 105.484,156.035 111.361,150.952 122.651,150.337" fill="rgb(216,216,216)"/>
<polygon points="136.156,224.548 133.784,230.959 124.637,230.383 123.088,223.726" fill="rgb(216,216,216)"/>
<polygon points="130.879,153.606 137.631,152.545 141.595,160.809 136.542,165.411" fill="rgb(216,216,216)"/>
<line x1="96.987" y1="187.947" x2="121.424" y2="165.411" stroke="#8c8c8c" stroke-width="0.3" stroke-dasharray="1.2,0.8"/>
<line x1="116.747" y1="184.867" x2="121.424" y2="165.411" stroke="#8c8c8c" stroke-width="0.3" stroke-dasharray="1.2,0.8"/>
<line x1="101.663" y1="168.491" x2="121.424" y2="165.411" stroke="#8c8c8c" stroke-width="0.3" stroke-dasharray="1.2,0.8"/>
<line x1="121.424" y1="165.411" x2="136.542" y2="165.411" stroke="#8c8c8c" stroke-width="0.3" stroke-dasharray="1.2,0.8"/>
<line x1="116.747" y1="184.867" x2="96.987" y2="187.947" stroke="#8c8c8c" stroke-width="0.3" stroke-dasharray="1.2,0.8"/>
<line x1="96.987" y1="187.947" x2="101.663" y2="168.491" stroke="#8c8c8c" stroke-width="0.3" stroke-dasharray="1.2,0.8"/>
<line x1="96.987" y1="187.947" x2="81.866" y2="187.947" stroke="#8c8c8c" stroke-width="0.3" stroke-dasharray="1.2,0.8"/>
<line x1="142.213" y1="179.429" x2="130.486" y2="210.534" stroke="#8c8c8c" stroke-width="0.3" stroke-dasharray="1.2,0.8"/>
<line x1="125.931" y1="191.06" x2="142.213" y2="179.429" stroke="#8c8c8c" stroke-width="0.3" stroke-dasharray="1.2,0.8"/>
<line x1="142.213" y1="179.429" x2="146.767" y2="198.902" stroke="#8c8c8c" stroke-width="0.3" stroke-dasharray="1.2,0.8"/>
<line x1="142.213" y1="179.429" x2="136.542" y2="165.411" stroke="#8c8c8c" stroke-width="0.3" stroke-dasharray="1.2,0.8"/>
<line x1="125.931" y1="191.06" x2="130.486" y2="210.534" stroke="#8c8c8c" stroke-width="0.3" stroke-dasharray="1.2,0.8"/>
<line x1="146.767" y1="198.902" x2="130.486" y2="210.534" stroke="#8c8c8c" stroke-width="0.3" stroke-dasharray="1.2,0.8"/>
<line x1="136.155" y1="224.548" x2="130.486" y2="210.534" stroke="#8c8c8c" stroke-width="0.3" stroke-dasharray="1.2,0.8"/>
<line x1="125.931" y1="191.06" x2="116.747" y2="184.867" stroke="#8c8c8c" stroke-width="0.3" stroke-dasharray="1.2,0.8"/>
<line x1="136.542" y1="165.411" x2="125.931" y2="191.06" stroke="#8c8c8c" stroke-width="0.3" stroke-dasharray="1.2,0.8"/>
<line x1="136.542" y1="165.411" x2="116.747" y2="184.867" stroke="#8c8c8c" stroke-width="0.3" stroke-dasharray="1.2,0.8"/>
<line x1="101.663" y1="168.491" x2="92.478" y2="162.301" stroke="#8c8c8c" stroke-width="0.3" stroke-dasharray="1.2,0.8"/>
<line x1="81.866" y1="187.947" x2="101.663" y2="168.491" stroke="#8c8c8c" stroke-width="0.3" stroke-dasharray="1.2,0.8"/>
<line x1="122.651" y1="150.337" x2="121.424" y2="165.411" stroke="#8c8c8c" stroke-width="0.3" stroke-dasharray="1.2,0.8"/>
<line x1="95.756" y1="203.022" x2="96.987" y2="187.947" stroke="#8c8c8c" stroke-width="0.3" stroke-dasharray="1.2,0.8"/>
<line x1="149.609" y1="166.236" x2="142.212" y2="179.429" stroke="#8c8c8c" stroke-width="0.3" stroke-dasharray="1.2,0.8"/>
<line x1="116.972" y1="217.325" x2="130.486" y2="210.534" stroke="#8c8c8c" stroke-width="0.3" stroke-dasharray="1.2,0.8"/>
<line x1="116.972" y1="217.325" x2="125.93" y2="191.06" stroke="#8c8c8c" stroke-width="0.3" stroke-dasharray="1.2,0.8"/>
<line x1="95.756" y1="203.022" x2="116.747" y2="184.867" stroke="#8c8c8c" stroke-width="0.3" stroke-dasharray="1.2,0.8"/>
<line x1="136.156" y1="224.548" x2="146.767" y2="198.902" stroke="#8c8c8c" stroke-width="0.3" stroke-dasharray="1.2,0.8"/>
<line x1="112.273" y1="142.849" x2="92.478" y2="162.301" stroke="#8c8c8c" stroke-width="0.3" stroke-dasharray="1.2,0.8"/>
<line x1="122.651" y1="150.337" x2="101.663" y2="168.491" stroke="#8c8c8c" stroke-width="0.3" stroke-dasharray="1.2,0.8"/>
<line x1="123.088" y1="223.726" x2="136.156" y2="224.548" stroke="#8c8c8c" stroke-width="0.3" stroke-dasharray="1.2,0.8"/>
<line x1="136.542" y1="165.411" x2="130.879" y2="153.606" stroke="#8c8c8c" stroke-width="0.3" stroke-dasharray="1.2,0.8"/>
<line x1="121.424" y1="165.411" x2="130.879" y2="153.606" stroke="#141414" stroke-width="0.4"/>
<line x1="96.987" y1="187.947" x2="87.531" y2="199.751" stroke="#141414" stroke-width="0.4"/>
<line x1="142.213" y1="179.429" x2="155.726" y2="172.635" stroke="#141414" stroke-width="0.4"/>
<line x1="123.088" y1="223.726" x2="130.486" y2="210.534" stroke="#141414" stroke-width="0.4"/>
<line x1="125.931" y1="191.06" x2="106.139" y2="210.512" stroke="#141414" stroke-width="0.4"/>
<line x1="106.139" y1="210.512" x2="116.747" y2="184.867" stroke="#141414" stroke-width="0.4"/>
<line x1="81.866" y1="187.947" x2="92.478" y2="162.301" stroke="#141414" stroke-width="0.4"/>
<line x1="155.726" y1="172.635" x2="146.767" y2="198.902" stroke="#141414" stroke-width="0.4"/>
<line x1="112.274" y1="142.849" x2="101.663" y2="168.491" stroke="#141414" stroke-width="0.4"/>
<line x1="87.531" y1="199.751" x2="81.866" y2="187.947" stroke="#141414" stroke-width="0.4"/>
<line x1="136.542" y1="165.411" x2="149.609" y2="166.236" stroke="#141414" stroke-width="0.4"/>
<line x1="121.424" y1="165.411" x2="128.861" y2="159.709" stroke="#141414" stroke-width="0.4"/>
<line x1="128.861" y1="159.709" x2="129.204" y2="155.488" stroke="#141414" stroke-width="0.4"/>
<line x1="129.204" y1="155.488" x2="122.651" y2="150.337" stroke="#141414" stroke-width="0.4"/>
<line x1="96.987" y1="187.947" x2="89.549" y2="193.647" stroke="#141414" stroke-width="0.4"/>
<line x1="89.549" y1="193.647" x2="89.205" y2="197.868" stroke="#141414" stroke-width="0.4"/>
<line x1="89.205" y1="197.868" x2="95.756" y2="203.022" stroke="#141414" stroke-width="0.4"/>
<line x1="142.212" y1="179.429" x2="151.349" y2="177.344" stroke="#141414" stroke-width="0.4"/>
<line x1="151.349" y1="177.344" x2="153.42" y2="173.65" stroke="#141414" stroke-width="0.4"/>
<line x1="153.42" y1="173.65" x2="149.609" y2="166.236" stroke="#141414" stroke-width="0.4"/>
<line x1="130.486" y1="210.534" x2="127.989" y2="219.566" stroke="#141414" stroke-width="0.4"/>
<line x1="127.989" y1="219.566" x2="124.205" y2="221.467" stroke="#141414" stroke-width="0.4"/>
<line x1="124.205" y1="221.467" x2="116.972" y2="217.325" stroke="#141414" stroke-width="0.4"/>
<line x1="125.93" y1="191.06" x2="115.816" y2="199.273" stroke="#141414" stroke-width="0.4"/>
<line x1="115.816" y1="199.273" x2="113.308" y2="206.627" stroke="#141414" stroke-width="0.4"/>
<line x1="113.308" y1="206.627" x2="116.972" y2="217.325" stroke="#141414" stroke-width="0.4"/>
<line x1="116.747" y1="184.867" x2="112.925" y2="197.323" stroke="#141414" stroke-width="0.4"/>
<line x1="112.925" y1="197.323" x2="107.047" y2="202.407" stroke="#141414" stroke-width="0.4"/>
<line x1="107.047" y1="202.407" x2="95.756" y2="203.022" stroke="#141414" stroke-width="0.4"/>
<line x1="146.767" y1="198.902" x2="151.644" y2="205.425" stroke="#141414" stroke-width="0.4"/>
<line x1="151.644" y1="205.425" x2="144.215" y2="223.378" stroke="#141414" stroke-width="0.4"/>
<line x1="144.215" y1="223.378" x2="136.156" y2="224.548" stroke="#141414" stroke-width="0.4"/>
<line x1="92.478" y1="162.301" x2="90.541" y2="154.39" stroke="#141414" stroke-width="0.4"/>
<line x1="90.541" y1="154.39" x2="104.398" y2="140.774" stroke="#141414" stroke-width="0.4"/>
<line x1="104.398" y1="140.774" x2="112.273" y2="142.849" stroke="#141414" stroke-width="0.4"/>
<line x1="101.663" y1="168.491" x2="105.484" y2="156.035" stroke="#141414" stroke-width="0.4"/>
<line x1="105.484" y1="156.035" x2="111.361" y2="150.952" stroke="#141414" stroke-width="0.4"/>
<line x1="111.361" y1="150.952" x2="122.651" y2="150.337" stroke="#141414" stroke-width="0.4"/>
<line x1="136.156" y1="224.548" x2="133.784" y2="230.959" stroke="#141414" stroke-width="0.4"/>
<line x1="133.784" y1="230.959" x2="124.637" y2="230.383" stroke="#141414" stroke-width="0.4"/>
<line x1="124.637" y1="230.383" x2="123.088" y2="223.726" stroke="#141414" stroke-width="0.4"/>
<line x1="130.879" y1="153.606" x2="137.631" y2="152.545" stroke="#141414" stroke-width="0.4"/>
<line x1="137.631" y1="152.545" x2="141.595" y2="160.809" stroke="#141414" stroke-width="0.4"/>
<line x1="141.595" y1="160.809" x2="136.542" y2="165.411" stroke="#141414" stroke-width="0.4"/>
<circle cx="125.535" cy="157.736" r="1.21" fill="#ffe082" stroke="#464646" stroke-width="0.2"/>
<text x="125.535" y="158.15" font-size="1.19" text-anchor="middle" fill="#141414">45</text>
<circle cx="92.875" cy="195.621" r="1.21" fill="#ffe082" stroke="#464646" stroke-width="0.2"/>
<text x="92.875" y="196.04" font-size="1.19" text-anchor="middle" fill="#141414">46</text>
<circle cx="149.147" cy="174.165" r="1.21" fill="#ffe082" stroke="#464646" stroke-width="0.2"/>
<text x="149.147" y="174.58" font-size="1.19" text-anchor="middle" fill="#141414">47</text>
<circle cx="124.913" cy="217.223" r="1.21" fill="#ffe082" stroke="#464646" stroke-width="0.2"/>
<text x="124.913" y="217.64" font-size="1.19" text-anchor="middle" fill="#141414">48</text>
<circle cx="118.007" cy="203.571" r="1.21" fill="#ffe082" stroke="#464646" stroke-width="0.2"/>
<text x="118.007" y="203.99" font-size="1.19" text-anchor="middle" fill="#141414">49</text>
<circle cx="108.119" cy="196.905" r="1.21" fill="#ffe082" stroke="#464646" stroke-width="0.2"/>
<text x="108.119" y="197.32" font-size="1.19" text-anchor="middle" fill="#141414">50</text>
<circle cx="144.695" cy="213.063" r="1.21" fill="#ffe082" stroke="#464646" stroke-width="0.2"/>
<text x="144.695" y="213.48" font-size="1.19" text-anchor="middle" fill="#141414">51</text>
<circle cx="99.923" cy="150.079" r="1.21" fill="#ffe082" stroke="#464646" stroke-width="0.2"/>
<text x="99.923" y="150.50" font-size="1.19" text-anchor="middle" fill="#141414">52</text>
<circle cx="110.29" cy="156.454" r="1.21" fill="#ffe082" stroke="#464646" stroke-width="0.2"/>
<text x="110.29" y="156.87" font-size="1.19" text-anchor="middle" fill="#141414">53</text>
<circle cx="129.416" cy="227.404" r="1.21" fill="#ffe082" stroke="#464646" stroke-width="0.2"/>
<text x="129.416" y="227.82" font-size="1.19" text-anchor="middle" fill="#141414">54</text>
<circle cx="136.662" cy="158.093" r="1.21" fill="#ffe082" stroke="#464646" stroke-width="0.2"/>
<text x="136.662" y="158.51" font-size="1.19" text-anchor="middle" fill="#141414">55</text>
<circle cx="118.796" cy="132.864" r="4.6" fill="#eaf1fe" stroke="#2e78e6" stroke-width="0.3"/>
<text x="118.796" y="134.66400000000002" font-size="5.2" text-anchor="middle" fill="#14306e" font-weight="bold">5</text>
<g pointer-events="none"><text x="105.0" y="83.2" text-anchor="middle" font-family="sans-serif" font-size="12.4" fill="#9aa0a6" fill-opacity="0.3" transform="rotate(-28 105.0 83.2)">papercraft.kr</text><text x="105.0" y="148.5" text-anchor="middle" font-family="sans-serif" font-size="12.4" fill="#9aa0a6" fill-opacity="0.3" transform="rotate(-28 105.0 148.5)">papercraft.kr</text><text x="105.0" y="213.8" text-anchor="middle" font-family="sans-serif" font-size="12.4" fill="#9aa0a6" fill-opacity="0.3" transform="rotate(-28 105.0 213.8)">papercraft.kr</text></g></svg>
