<svg xmlns="http://www.w3.org/2000/svg" xmlns:xlink="http://www.w3.org/1999/xlink" width="210.00mm" height="297.00mm" viewBox="0 0 210.00 297.00">
<rect x="0" y="0" width="210.00" height="297.00" fill="#ffffff" stroke="#cccccc" stroke-width="0.2"/>
<polygon points="48.512,85.924 37.896,89.104 27.314,84.721 22.057,74.966" fill="rgb(216,216,216)"/>
<polygon points="117.234,251.836 123.881,256.659 142.4,248.989 143.689,240.878" fill="rgb(216,216,216)"/>
<polygon points="117.234,251.836 115.945,259.947 97.427,267.617 90.78,262.794" fill="rgb(216,216,216)"/>
<polygon points="74.966,74.966 84.721,69.709 89.104,59.127 85.924,48.512" fill="rgb(216,216,216)"/>
<polygon points="143.689,240.878 150.336,245.701 168.855,238.031 170.144,229.92" fill="rgb(216,216,216)"/>
<polygon points="85.924,48.512 90.748,41.865 83.077,23.346 74.966,22.057" fill="rgb(216,216,216)"/>
<polygon points="170.144,229.92 176.791,234.743 195.309,227.073 196.599,218.962" fill="rgb(216,216,216)"/>
<polygon points="127.876,53.051 144.652,75.258 192.758,191.397 196.599,218.962" fill="rgb(216,216,216)"/>
<polygon points="74.966,22.057 73.677,13.946 55.159,6.275 48.512,11.099" fill="rgb(216,216,216)"/>
<polygon points="48.512,11.099 41.864,6.275 23.346,13.946 22.057,22.057" fill="rgb(216,216,216)"/>
<polygon points="22.057,22.057 13.946,23.346 6.275,41.865 11.099,48.512" fill="rgb(216,216,216)"/>
<polygon points="11.099,48.512 6.275,55.158 13.946,73.677 22.057,74.966" fill="rgb(216,216,216)"/>
<line x1="117.234" y1="251.836" x2="48.512" y2="85.924" stroke="#8c8c8c" stroke-width="0.3" stroke-dasharray="1.2,0.8"/>
<line x1="74.966" y1="74.966" x2="48.512" y2="85.924" stroke="#8c8c8c" stroke-width="0.3" stroke-dasharray="1.2,0.8"/>
<line x1="74.966" y1="74.966" x2="143.689" y2="240.878" stroke="#8c8c8c" stroke-width="0.3" stroke-dasharray="1.2,0.8"/>
<line x1="101.421" y1="64.008" x2="170.144" y2="229.92" stroke="#8c8c8c" stroke-width="0.3" stroke-dasharray="1.2,0.8"/>
<line x1="22.057" y1="74.966" x2="48.512" y2="85.924" stroke="#8c8c8c" stroke-width="0.3" stroke-dasharray="1.2,0.8"/>
<line x1="143.689" y1="240.878" x2="117.234" y2="251.836" stroke="#8c8c8c" stroke-width="0.3" stroke-dasharray="1.2,0.8"/>
<line x1="90.78" y1="262.794" x2="117.234" y2="251.836" stroke="#8c8c8c" stroke-width="0.3" stroke-dasharray="1.2,0.8"/>
<line x1="85.924" y1="48.512" x2="74.966" y2="74.966" stroke="#8c8c8c" stroke-width="0.3" stroke-dasharray="1.2,0.8"/>
<line x1="170.144" y1="229.92" x2="143.689" y2="240.878" stroke="#8c8c8c" stroke-width="0.3" stroke-dasharray="1.2,0.8"/>
<line x1="74.966" y1="22.057" x2="85.924" y2="48.512" stroke="#8c8c8c" stroke-width="0.3" stroke-dasharray="1.2,0.8"/>
<line x1="196.599" y1="218.962" x2="170.144" y2="229.92" stroke="#8c8c8c" stroke-width="0.3" stroke-dasharray="1.2,0.8"/>
<line x1="196.599" y1="218.962" x2="127.876" y2="53.051" stroke="#8c8c8c" stroke-width="0.3" stroke-dasharray="1.2,0.8"/>
<line x1="48.512" y1="11.099" x2="74.966" y2="22.057" stroke="#8c8c8c" stroke-width="0.3" stroke-dasharray="1.2,0.8"/>
<line x1="22.057" y1="22.057" x2="48.512" y2="11.099" stroke="#8c8c8c" stroke-width="0.3" stroke-dasharray="1.2,0.8"/>
<line x1="11.099" y1="48.512" x2="22.057" y2="22.057" stroke="#8c8c8c" stroke-width="0.3" stroke-dasharray="1.2,0.8"/>
<line x1="22.057" y1="74.966" x2="11.099" y2="48.512" stroke="#8c8c8c" stroke-width="0.3" stroke-dasharray="1.2,0.8"/>
<line x1="22.057" y1="96.882" x2="48.512" y2="85.924" stroke="#141414" stroke-width="0.4"/>
<line x1="74.966" y1="74.966" x2="101.421" y2="64.008" stroke="#141414" stroke-width="0.4"/>
<line x1="101.421" y1="64.008" x2="127.876" y2="53.051" stroke="#141414" stroke-width="0.4"/>
<line x1="90.779" y1="262.794" x2="22.057" y2="96.882" stroke="#141414" stroke-width="0.4"/>
<line x1="48.512" y1="85.924" x2="37.896" y2="89.104" stroke="#141414" stroke-width="0.4"/>
<line x1="37.896" y1="89.104" x2="27.314" y2="84.721" stroke="#141414" stroke-width="0.4"/>
<line x1="27.314" y1="84.721" x2="22.057" y2="74.966" stroke="#141414" stroke-width="0.4"/>
<line x1="117.234" y1="251.836" x2="123.881" y2="256.659" stroke="#141414" stroke-width="0.4"/>
<line x1="123.881" y1="256.659" x2="142.4" y2="248.989" stroke="#141414" stroke-width="0.4"/>
<line x1="142.4" y1="248.989" x2="143.689" y2="240.878" stroke="#141414" stroke-width="0.4"/>
<line x1="117.234" y1="251.836" x2="115.945" y2="259.947" stroke="#141414" stroke-width="0.4"/>
<line x1="115.945" y1="259.947" x2="97.427" y2="267.617" stroke="#141414" stroke-width="0.4"/>
<line x1="97.427" y1="267.617" x2="90.78" y2="262.794" stroke="#141414" stroke-width="0.4"/>
<line x1="74.966" y1="74.966" x2="84.721" y2="69.709" stroke="#141414" stroke-width="0.4"/>
<line x1="84.721" y1="69.709" x2="89.104" y2="59.127" stroke="#141414" stroke-width="0.4"/>
<line x1="89.104" y1="59.127" x2="85.924" y2="48.512" stroke="#141414" stroke-width="0.4"/>
<line x1="143.689" y1="240.878" x2="150.336" y2="245.701" stroke="#141414" stroke-width="0.4"/>
<line x1="150.336" y1="245.701" x2="168.855" y2="238.031" stroke="#141414" stroke-width="0.4"/>
<line x1="168.855" y1="238.031" x2="170.144" y2="229.92" stroke="#141414" stroke-width="0.4"/>
<line x1="85.924" y1="48.512" x2="90.748" y2="41.865" stroke="#141414" stroke-width="0.4"/>
<line x1="90.748" y1="41.865" x2="83.077" y2="23.346" stroke="#141414" stroke-width="0.4"/>
<line x1="83.077" y1="23.346" x2="74.966" y2="22.057" stroke="#141414" stroke-width="0.4"/>
<line x1="170.144" y1="229.92" x2="176.791" y2="234.743" stroke="#141414" stroke-width="0.4"/>
<line x1="176.791" y1="234.743" x2="195.309" y2="227.073" stroke="#141414" stroke-width="0.4"/>
<line x1="195.309" y1="227.073" x2="196.599" y2="218.962" stroke="#141414" stroke-width="0.4"/>
<line x1="127.876" y1="53.051" x2="144.652" y2="75.258" stroke="#141414" stroke-width="0.4"/>
<line x1="144.652" y1="75.258" x2="192.758" y2="191.397" stroke="#141414" stroke-width="0.4"/>
<line x1="192.758" y1="191.397" x2="196.599" y2="218.962" stroke="#141414" stroke-width="0.4"/>
<line x1="74.966" y1="22.057" x2="73.677" y2="13.946" stroke="#141414" stroke-width="0.4"/>
<line x1="73.677" y1="13.946" x2="55.159" y2="6.275" stroke="#141414" stroke-width="0.4"/>
<line x1="55.159" y1="6.275" x2="48.512" y2="11.099" stroke="#141414" stroke-width="0.4"/>
<line x1="48.512" y1="11.099" x2="41.864" y2="6.275" stroke="#141414" stroke-width="0.4"/>
<line x1="41.864" y1="6.275" x2="23.346" y2="13.946" stroke="#141414" stroke-width="0.4"/>
<line x1="23.346" y1="13.946" x2="22.057" y2="22.057" stroke="#141414" stroke-width="0.4"/>
<line x1="22.057" y1="22.057" x2="13.946" y2="23.346" stroke="#141414" stroke-width="0.4"/>
<line x1="13.946" y1="23.346" x2="6.275" y2="41.865" stroke="#141414" stroke-width="0.4"/>
<line x1="6.275" y1="41.865" x2="11.099" y2="48.512" stroke="#141414" stroke-width="0.4"/>
<line x1="11.099" y1="48.512" x2="6.275" y2="55.158" stroke="#141414" stroke-width="0.4"/>
<line x1="6.275" y1="55.158" x2="13.946" y2="73.677" stroke="#141414" stroke-width="0.4"/>
<line x1="13.946" y1="73.677" x2="22.057" y2="74.966" stroke="#141414" stroke-width="0.4"/>
<circle cx="33.945" cy="83.679" r="3.08" fill="#ffe082" stroke="#464646" stroke-width="0.2"/>
<text x="33.945" y="85.14" font-size="4.18" text-anchor="middle" fill="#141414">1</text>
<circle cx="131.801" cy="249.59" r="3.08" fill="#ffe082" stroke="#464646" stroke-width="0.2"/>
<text x="131.801" y="251.05" font-size="4.18" text-anchor="middle" fill="#141414">2</text>
<circle cx="105.346" cy="260.548" r="3.08" fill="#ffe082" stroke="#464646" stroke-width="0.2"/>
<text x="105.346" y="262.01" font-size="4.18" text-anchor="middle" fill="#141414">3</text>
<circle cx="83.679" cy="63.078" r="3.08" fill="#ffe082" stroke="#464646" stroke-width="0.2"/>
<text x="83.679" y="64.54" font-size="4.18" text-anchor="middle" fill="#141414">4</text>
<circle cx="158.256" cy="238.632" r="3.08" fill="#ffe082" stroke="#464646" stroke-width="0.2"/>
<text x="158.256" y="240.09" font-size="4.18" text-anchor="middle" fill="#141414">5</text>
<circle cx="83.679" cy="33.945" r="3.08" fill="#ffe082" stroke="#464646" stroke-width="0.2"/>
<text x="83.679" y="35.41" font-size="4.18" text-anchor="middle" fill="#141414">6</text>
<circle cx="184.711" cy="227.675" r="3.08" fill="#ffe082" stroke="#464646" stroke-width="0.2"/>
<text x="184.711" y="229.14" font-size="4.18" text-anchor="middle" fill="#141414">7</text>
<circle cx="165.471" cy="134.667" r="3.08" fill="#ffe082" stroke="#464646" stroke-width="0.2"/>
<text x="165.471" y="136.13" font-size="4.18" text-anchor="middle" fill="#141414">8</text>
<circle cx="63.078" cy="13.344" r="3.08" fill="#ffe082" stroke="#464646" stroke-width="0.2"/>
<text x="63.078" y="14.81" font-size="4.18" text-anchor="middle" fill="#141414">9</text>
<circle cx="33.945" cy="13.344" r="3.08" fill="#ffe082" stroke="#464646" stroke-width="0.2"/>
<text x="33.945" y="14.81" font-size="4.18" text-anchor="middle" fill="#141414">10</text>
<circle cx="13.344" cy="33.945" r="3.08" fill="#ffe082" stroke="#464646" stroke-width="0.2"/>
<text x="13.344" y="35.41" font-size="4.18" text-anchor="middle" fill="#141414">11</text>
<circle cx="13.344" cy="63.078" r="3.08" fill="#ffe082" stroke="#464646" stroke-width="0.2"/>
<text x="13.344" y="64.54" font-size="4.18" text-anchor="middle" fill="#141414">12</text>
<circle cx="100.162" cy="272.442" r="4.6" fill="#eaf1fe" stroke="#2e78e6" stroke-width="0.3"/>
<text x="100.162" y="274.242" font-size="5.2" text-anchor="middle" fill="#14306e" font-weight="bold">1</text>
</svg>
