<svg xmlns="http://www.w3.org/2000/svg" xmlns:xlink="http://www.w3.org/1999/xlink" width="210.00mm" height="297.00mm" viewBox="0 0 210.00 297.00">
<rect x="0" y="0" width="210.00" height="297.00" fill="#ffffff" stroke="#cccccc" stroke-width="0.2"/>
<polygon points="72.703,30.627 67.88,23.98 70.072,18.689 78.182,17.4" fill="rgb(216,216,216)"/>
<polygon points="17.4,53.535 11.754,58.197 15.59,67.457 22.879,66.762" fill="rgb(216,216,216)"/>
<polygon points="17.4,53.535 10.111,54.23 6.275,44.97 11.921,40.307" fill="rgb(216,216,216)"/>
<polygon points="78.182,43.854 79.472,51.965 84.763,54.157 91.41,49.334" fill="rgb(216,216,216)"/>
<polygon points="22.879,66.762 17.233,71.425 21.069,80.684 28.358,79.99" fill="rgb(216,216,216)"/>
<polygon points="91.41,49.334 96.073,54.979 105.332,51.143 104.637,43.854" fill="rgb(216,216,216)"/>
<polygon points="28.358,79.99 22.712,84.652 26.548,93.912 33.837,93.217" fill="rgb(216,216,216)"/>
<polygon points="104.637,43.854 111.926,44.549 115.761,35.29 110.116,30.627" fill="rgb(216,216,216)"/>
<polygon points="33.837,93.217 29.013,99.864 31.205,105.155 39.316,106.444" fill="rgb(216,216,216)"/>
<polygon points="110.116,30.627 115.761,25.964 111.926,16.705 104.637,17.4" fill="rgb(216,216,216)"/>
<polygon points="104.637,17.4 105.332,10.111 96.073,6.275 91.41,11.921" fill="rgb(216,216,216)"/>
<polygon points="44.794,119.672 39.971,126.319 42.163,131.61 50.274,132.899" fill="rgb(216,216,216)"/>
<polygon points="91.41,11.921 86.747,6.275 77.488,10.111 78.182,17.4" fill="rgb(216,216,216)"/>
<polygon points="50.274,132.899 44.628,137.562 48.463,146.821 55.752,146.127" fill="rgb(216,216,216)"/>
<polygon points="111.056,123.219 105.439,133.122 66.727,149.158 55.752,146.127" fill="rgb(216,216,216)"/>
<line x1="17.4" y1="53.535" x2="72.703" y2="30.627" stroke="#8c8c8c" stroke-width="0.3" stroke-dasharray="1.2,0.8"/>
<line x1="78.183" y1="43.854" x2="72.703" y2="30.627" stroke="#8c8c8c" stroke-width="0.3" stroke-dasharray="1.2,0.8"/>
<line x1="78.183" y1="43.854" x2="22.879" y2="66.762" stroke="#8c8c8c" stroke-width="0.3" stroke-dasharray="1.2,0.8"/>
<line x1="83.661" y1="57.082" x2="28.358" y2="79.99" stroke="#8c8c8c" stroke-width="0.3" stroke-dasharray="1.2,0.8"/>
<line x1="89.14" y1="70.309" x2="33.837" y2="93.217" stroke="#8c8c8c" stroke-width="0.3" stroke-dasharray="1.2,0.8"/>
<line x1="94.619" y1="83.537" x2="39.316" y2="106.444" stroke="#8c8c8c" stroke-width="0.3" stroke-dasharray="1.2,0.8"/>
<line x1="44.794" y1="119.672" x2="39.316" y2="106.444" stroke="#8c8c8c" stroke-width="0.3" stroke-dasharray="1.2,0.8"/>
<line x1="100.098" y1="96.764" x2="44.794" y2="119.672" stroke="#8c8c8c" stroke-width="0.3" stroke-dasharray="1.2,0.8"/>
<line x1="105.577" y1="109.992" x2="50.273" y2="132.899" stroke="#8c8c8c" stroke-width="0.3" stroke-dasharray="1.2,0.8"/>
<line x1="78.182" y1="17.4" x2="72.703" y2="30.627" stroke="#8c8c8c" stroke-width="0.3" stroke-dasharray="1.2,0.8"/>
<line x1="22.879" y1="66.762" x2="17.4" y2="53.535" stroke="#8c8c8c" stroke-width="0.3" stroke-dasharray="1.2,0.8"/>
<line x1="11.921" y1="40.307" x2="17.4" y2="53.535" stroke="#8c8c8c" stroke-width="0.3" stroke-dasharray="1.2,0.8"/>
<line x1="91.41" y1="49.334" x2="78.182" y2="43.854" stroke="#8c8c8c" stroke-width="0.3" stroke-dasharray="1.2,0.8"/>
<line x1="28.358" y1="79.99" x2="22.879" y2="66.762" stroke="#8c8c8c" stroke-width="0.3" stroke-dasharray="1.2,0.8"/>
<line x1="104.637" y1="43.854" x2="91.41" y2="49.334" stroke="#8c8c8c" stroke-width="0.3" stroke-dasharray="1.2,0.8"/>
<line x1="33.837" y1="93.217" x2="28.358" y2="79.99" stroke="#8c8c8c" stroke-width="0.3" stroke-dasharray="1.2,0.8"/>
<line x1="110.116" y1="30.627" x2="104.637" y2="43.854" stroke="#8c8c8c" stroke-width="0.3" stroke-dasharray="1.2,0.8"/>
<line x1="39.316" y1="106.444" x2="33.837" y2="93.217" stroke="#8c8c8c" stroke-width="0.3" stroke-dasharray="1.2,0.8"/>
<line x1="104.637" y1="17.4" x2="110.116" y2="30.627" stroke="#8c8c8c" stroke-width="0.3" stroke-dasharray="1.2,0.8"/>
<line x1="91.41" y1="11.921" x2="104.637" y2="17.4" stroke="#8c8c8c" stroke-width="0.3" stroke-dasharray="1.2,0.8"/>
<line x1="50.274" y1="132.899" x2="44.794" y2="119.672" stroke="#8c8c8c" stroke-width="0.3" stroke-dasharray="1.2,0.8"/>
<line x1="78.182" y1="17.4" x2="91.41" y2="11.921" stroke="#8c8c8c" stroke-width="0.3" stroke-dasharray="1.2,0.8"/>
<line x1="55.752" y1="146.127" x2="50.274" y2="132.899" stroke="#8c8c8c" stroke-width="0.3" stroke-dasharray="1.2,0.8"/>
<line x1="55.752" y1="146.127" x2="111.056" y2="123.219" stroke="#8c8c8c" stroke-width="0.3" stroke-dasharray="1.2,0.8"/>
<line x1="67.224" y1="17.4" x2="72.703" y2="30.627" stroke="#141414" stroke-width="0.4"/>
<line x1="12.861" y1="132.899" x2="7.382" y2="119.672" stroke="#141414" stroke-width="0.4"/>
<line x1="26.088" y1="138.378" x2="12.861" y2="132.899" stroke="#141414" stroke-width="0.4"/>
<line x1="78.183" y1="43.854" x2="83.661" y2="57.082" stroke="#141414" stroke-width="0.4"/>
<line x1="7.382" y1="119.672" x2="12.861" y2="106.444" stroke="#141414" stroke-width="0.4"/>
<line x1="83.661" y1="57.082" x2="89.14" y2="70.309" stroke="#141414" stroke-width="0.4"/>
<line x1="12.861" y1="106.444" x2="26.088" y2="100.965" stroke="#141414" stroke-width="0.4"/>
<line x1="89.14" y1="70.309" x2="94.619" y2="83.537" stroke="#141414" stroke-width="0.4"/>
<line x1="26.088" y1="100.965" x2="39.316" y2="106.444" stroke="#141414" stroke-width="0.4"/>
<line x1="94.619" y1="83.537" x2="100.098" y2="96.764" stroke="#141414" stroke-width="0.4"/>
<line x1="100.098" y1="96.764" x2="105.577" y2="109.992" stroke="#141414" stroke-width="0.4"/>
<line x1="44.794" y1="119.672" x2="39.316" y2="132.899" stroke="#141414" stroke-width="0.4"/>
<line x1="105.577" y1="109.992" x2="111.056" y2="123.219" stroke="#141414" stroke-width="0.4"/>
<line x1="39.316" y1="132.899" x2="26.088" y2="138.378" stroke="#141414" stroke-width="0.4"/>
<line x1="11.921" y1="40.307" x2="67.224" y2="17.4" stroke="#141414" stroke-width="0.4"/>
<line x1="72.703" y1="30.627" x2="67.88" y2="23.98" stroke="#141414" stroke-width="0.4"/>
<line x1="67.88" y1="23.98" x2="70.072" y2="18.689" stroke="#141414" stroke-width="0.4"/>
<line x1="70.072" y1="18.689" x2="78.182" y2="17.4" stroke="#141414" stroke-width="0.4"/>
<line x1="17.4" y1="53.535" x2="11.754" y2="58.197" stroke="#141414" stroke-width="0.4"/>
<line x1="11.754" y1="58.197" x2="15.59" y2="67.457" stroke="#141414" stroke-width="0.4"/>
<line x1="15.59" y1="67.457" x2="22.879" y2="66.762" stroke="#141414" stroke-width="0.4"/>
<line x1="17.4" y1="53.535" x2="10.111" y2="54.23" stroke="#141414" stroke-width="0.4"/>
<line x1="10.111" y1="54.23" x2="6.275" y2="44.97" stroke="#141414" stroke-width="0.4"/>
<line x1="6.275" y1="44.97" x2="11.921" y2="40.307" stroke="#141414" stroke-width="0.4"/>
<line x1="78.182" y1="43.854" x2="79.472" y2="51.965" stroke="#141414" stroke-width="0.4"/>
<line x1="79.472" y1="51.965" x2="84.763" y2="54.157" stroke="#141414" stroke-width="0.4"/>
<line x1="84.763" y1="54.157" x2="91.41" y2="49.334" stroke="#141414" stroke-width="0.4"/>
<line x1="22.879" y1="66.762" x2="17.233" y2="71.425" stroke="#141414" stroke-width="0.4"/>
<line x1="17.233" y1="71.425" x2="21.069" y2="80.684" stroke="#141414" stroke-width="0.4"/>
<line x1="21.069" y1="80.684" x2="28.358" y2="79.99" stroke="#141414" stroke-width="0.4"/>
<line x1="91.41" y1="49.334" x2="96.073" y2="54.979" stroke="#141414" stroke-width="0.4"/>
<line x1="96.073" y1="54.979" x2="105.332" y2="51.143" stroke="#141414" stroke-width="0.4"/>
<line x1="105.332" y1="51.143" x2="104.637" y2="43.854" stroke="#141414" stroke-width="0.4"/>
<line x1="28.358" y1="79.99" x2="22.712" y2="84.652" stroke="#141414" stroke-width="0.4"/>
<line x1="22.712" y1="84.652" x2="26.548" y2="93.912" stroke="#141414" stroke-width="0.4"/>
<line x1="26.548" y1="93.912" x2="33.837" y2="93.217" stroke="#141414" stroke-width="0.4"/>
<line x1="104.637" y1="43.854" x2="111.926" y2="44.549" stroke="#141414" stroke-width="0.4"/>
<line x1="111.926" y1="44.549" x2="115.761" y2="35.29" stroke="#141414" stroke-width="0.4"/>
<line x1="115.761" y1="35.29" x2="110.116" y2="30.627" stroke="#141414" stroke-width="0.4"/>
<line x1="33.837" y1="93.217" x2="29.013" y2="99.864" stroke="#141414" stroke-width="0.4"/>
<line x1="29.013" y1="99.864" x2="31.205" y2="105.155" stroke="#141414" stroke-width="0.4"/>
<line x1="31.205" y1="105.155" x2="39.316" y2="106.444" stroke="#141414" stroke-width="0.4"/>
<line x1="110.116" y1="30.627" x2="115.761" y2="25.964" stroke="#141414" stroke-width="0.4"/>
<line x1="115.761" y1="25.964" x2="111.926" y2="16.705" stroke="#141414" stroke-width="0.4"/>
<line x1="111.926" y1="16.705" x2="104.637" y2="17.4" stroke="#141414" stroke-width="0.4"/>
<line x1="104.637" y1="17.4" x2="105.332" y2="10.111" stroke="#141414" stroke-width="0.4"/>
<line x1="105.332" y1="10.111" x2="96.073" y2="6.275" stroke="#141414" stroke-width="0.4"/>
<line x1="96.073" y1="6.275" x2="91.41" y2="11.921" stroke="#141414" stroke-width="0.4"/>
<line x1="44.794" y1="119.672" x2="39.971" y2="126.319" stroke="#141414" stroke-width="0.4"/>
<line x1="39.971" y1="126.319" x2="42.163" y2="131.61" stroke="#141414" stroke-width="0.4"/>
<line x1="42.163" y1="131.61" x2="50.274" y2="132.899" stroke="#141414" stroke-width="0.4"/>
<line x1="91.41" y1="11.921" x2="86.747" y2="6.275" stroke="#141414" stroke-width="0.4"/>
<line x1="86.747" y1="6.275" x2="77.488" y2="10.111" stroke="#141414" stroke-width="0.4"/>
<line x1="77.488" y1="10.111" x2="78.182" y2="17.4" stroke="#141414" stroke-width="0.4"/>
<line x1="50.274" y1="132.899" x2="44.628" y2="137.562" stroke="#141414" stroke-width="0.4"/>
<line x1="44.628" y1="137.562" x2="48.463" y2="146.821" stroke="#141414" stroke-width="0.4"/>
<line x1="48.463" y1="146.821" x2="55.752" y2="146.127" stroke="#141414" stroke-width="0.4"/>
<line x1="111.056" y1="123.219" x2="105.439" y2="133.122" stroke="#141414" stroke-width="0.4"/>
<line x1="105.439" y1="133.122" x2="66.727" y2="149.158" stroke="#141414" stroke-width="0.4"/>
<line x1="66.727" y1="149.158" x2="55.752" y2="146.127" stroke="#141414" stroke-width="0.4"/>
<circle cx="72.209" cy="22.674" r="3.08" fill="#ffe082" stroke="#464646" stroke-width="0.2"/>
<text x="72.209" y="24.14" font-size="4.18" text-anchor="middle" fill="#141414">47</text>
<circle cx="16.906" cy="61.488" r="3.08" fill="#ffe082" stroke="#464646" stroke-width="0.2"/>
<text x="16.906" y="62.95" font-size="4.18" text-anchor="middle" fill="#141414">48</text>
<circle cx="11.427" cy="48.26" r="3.08" fill="#ffe082" stroke="#464646" stroke-width="0.2"/>
<text x="11.427" y="49.72" font-size="4.18" text-anchor="middle" fill="#141414">49</text>
<circle cx="83.457" cy="49.828" r="3.08" fill="#ffe082" stroke="#464646" stroke-width="0.2"/>
<text x="83.457" y="51.29" font-size="4.18" text-anchor="middle" fill="#141414">50</text>
<circle cx="22.384" cy="74.715" r="3.08" fill="#ffe082" stroke="#464646" stroke-width="0.2"/>
<text x="22.384" y="76.18" font-size="4.18" text-anchor="middle" fill="#141414">51</text>
<circle cx="99.363" cy="49.828" r="3.08" fill="#ffe082" stroke="#464646" stroke-width="0.2"/>
<text x="99.363" y="51.29" font-size="4.18" text-anchor="middle" fill="#141414">52</text>
<circle cx="27.863" cy="87.943" r="3.08" fill="#ffe082" stroke="#464646" stroke-width="0.2"/>
<text x="27.863" y="89.41" font-size="4.18" text-anchor="middle" fill="#141414">53</text>
<circle cx="110.61" cy="38.58" r="3.08" fill="#ffe082" stroke="#464646" stroke-width="0.2"/>
<text x="110.61" y="40.04" font-size="4.18" text-anchor="middle" fill="#141414">54</text>
<circle cx="33.342" cy="101.17" r="3.08" fill="#ffe082" stroke="#464646" stroke-width="0.2"/>
<text x="33.342" y="102.63" font-size="4.18" text-anchor="middle" fill="#141414">55</text>
<circle cx="110.61" cy="22.674" r="3.08" fill="#ffe082" stroke="#464646" stroke-width="0.2"/>
<text x="110.61" y="24.14" font-size="4.18" text-anchor="middle" fill="#141414">56</text>
<circle cx="99.363" cy="11.427" r="3.08" fill="#ffe082" stroke="#464646" stroke-width="0.2"/>
<text x="99.363" y="12.89" font-size="4.18" text-anchor="middle" fill="#141414">57</text>
<circle cx="44.3" cy="127.625" r="3.08" fill="#ffe082" stroke="#464646" stroke-width="0.2"/>
<text x="44.3" y="129.09" font-size="4.18" text-anchor="middle" fill="#141414">58</text>
<circle cx="83.457" cy="11.427" r="3.08" fill="#ffe082" stroke="#464646" stroke-width="0.2"/>
<text x="83.457" y="12.89" font-size="4.18" text-anchor="middle" fill="#141414">59</text>
<circle cx="49.779" cy="140.852" r="3.08" fill="#ffe082" stroke="#464646" stroke-width="0.2"/>
<text x="49.779" y="142.31" font-size="4.18" text-anchor="middle" fill="#141414">60</text>
<circle cx="84.744" cy="137.906" r="3.08" fill="#ffe082" stroke="#464646" stroke-width="0.2"/>
<text x="84.744" y="139.37" font-size="4.18" text-anchor="middle" fill="#141414">61</text>
<circle cx="59.743" cy="153.982" r="4.6" fill="#eaf1fe" stroke="#2e78e6" stroke-width="0.3"/>
<text x="59.743" y="155.782" font-size="5.2" text-anchor="middle" fill="#14306e" font-weight="bold">5</text>
</svg>
