<svg xmlns="http://www.w3.org/2000/svg" xmlns:xlink="http://www.w3.org/1999/xlink" width="210.00mm" height="297.00mm" viewBox="0 0 210.00 297.00">
<rect x="0" y="0" width="210.00" height="297.00" fill="#ffffff" stroke="#cccccc" stroke-width="0.2"/>
<polygon points="79.616,30.627 74.793,23.98 76.985,18.689 85.096,17.4" fill="rgb(216,216,216)"/>
<polygon points="17.4,56.398 11.754,61.061 15.59,70.32 22.879,69.626" fill="rgb(216,216,216)"/>
<polygon points="17.4,56.398 10.111,57.093 6.275,47.834 11.921,43.171" fill="rgb(216,216,216)"/>
<polygon points="85.096,43.854 86.385,51.965 91.676,54.157 98.323,49.334" fill="rgb(216,216,216)"/>
<polygon points="22.879,69.626 17.233,74.288 21.069,83.548 28.358,82.853" fill="rgb(216,216,216)"/>
<polygon points="98.323,49.334 102.986,54.979 112.245,51.143 111.55,43.854" fill="rgb(216,216,216)"/>
<polygon points="28.358,82.853 22.712,87.516 26.548,96.775 33.837,96.08" fill="rgb(216,216,216)"/>
<polygon points="111.55,43.854 118.839,44.549 122.674,35.29 117.029,30.627" fill="rgb(216,216,216)"/>
<polygon points="33.837,96.08 29.013,102.728 31.205,108.018 39.316,109.308" fill="rgb(216,216,216)"/>
<polygon points="117.029,30.627 122.674,25.964 118.839,16.705 111.55,17.4" fill="rgb(216,216,216)"/>
<polygon points="111.55,17.4 112.245,10.111 102.986,6.275 98.323,11.921" fill="rgb(216,216,216)"/>
<polygon points="44.795,122.535 39.971,129.182 42.163,134.473 50.274,135.763" fill="rgb(216,216,216)"/>
<polygon points="98.323,11.921 93.66,6.275 84.401,10.111 85.096,17.4" fill="rgb(216,216,216)"/>
<polygon points="50.274,135.763 44.628,140.425 48.464,149.685 55.752,148.99" fill="rgb(216,216,216)"/>
<polygon points="117.969,123.219 111.316,133.552 67.764,151.591 55.752,148.99" fill="rgb(216,216,216)"/>
<line x1="17.4" y1="56.398" x2="79.617" y2="30.627" stroke="#8c8c8c" stroke-width="0.3" stroke-dasharray="1.2,0.8"/>
<line x1="85.096" y1="43.854" x2="79.617" y2="30.627" stroke="#8c8c8c" stroke-width="0.3" stroke-dasharray="1.2,0.8"/>
<line x1="85.096" y1="43.854" x2="22.879" y2="69.626" stroke="#8c8c8c" stroke-width="0.3" stroke-dasharray="1.2,0.8"/>
<line x1="90.574" y1="57.082" x2="28.358" y2="82.853" stroke="#8c8c8c" stroke-width="0.3" stroke-dasharray="1.2,0.8"/>
<line x1="96.053" y1="70.309" x2="33.837" y2="96.08" stroke="#8c8c8c" stroke-width="0.3" stroke-dasharray="1.2,0.8"/>
<line x1="101.532" y1="83.537" x2="39.316" y2="109.308" stroke="#8c8c8c" stroke-width="0.3" stroke-dasharray="1.2,0.8"/>
<line x1="44.795" y1="122.535" x2="39.316" y2="109.308" stroke="#8c8c8c" stroke-width="0.3" stroke-dasharray="1.2,0.8"/>
<line x1="107.011" y1="96.764" x2="44.795" y2="122.535" stroke="#8c8c8c" stroke-width="0.3" stroke-dasharray="1.2,0.8"/>
<line x1="112.49" y1="109.992" x2="50.273" y2="135.763" stroke="#8c8c8c" stroke-width="0.3" stroke-dasharray="1.2,0.8"/>
<line x1="85.096" y1="17.4" x2="79.616" y2="30.627" stroke="#8c8c8c" stroke-width="0.3" stroke-dasharray="1.2,0.8"/>
<line x1="22.879" y1="69.626" x2="17.4" y2="56.398" stroke="#8c8c8c" stroke-width="0.3" stroke-dasharray="1.2,0.8"/>
<line x1="11.921" y1="43.171" x2="17.4" y2="56.398" stroke="#8c8c8c" stroke-width="0.3" stroke-dasharray="1.2,0.8"/>
<line x1="98.323" y1="49.334" x2="85.096" y2="43.854" stroke="#8c8c8c" stroke-width="0.3" stroke-dasharray="1.2,0.8"/>
<line x1="28.358" y1="82.853" x2="22.879" y2="69.626" stroke="#8c8c8c" stroke-width="0.3" stroke-dasharray="1.2,0.8"/>
<line x1="111.55" y1="43.854" x2="98.323" y2="49.334" stroke="#8c8c8c" stroke-width="0.3" stroke-dasharray="1.2,0.8"/>
<line x1="33.837" y1="96.08" x2="28.358" y2="82.853" stroke="#8c8c8c" stroke-width="0.3" stroke-dasharray="1.2,0.8"/>
<line x1="117.029" y1="30.627" x2="111.55" y2="43.854" stroke="#8c8c8c" stroke-width="0.3" stroke-dasharray="1.2,0.8"/>
<line x1="39.316" y1="109.308" x2="33.837" y2="96.08" stroke="#8c8c8c" stroke-width="0.3" stroke-dasharray="1.2,0.8"/>
<line x1="111.55" y1="17.4" x2="117.029" y2="30.627" stroke="#8c8c8c" stroke-width="0.3" stroke-dasharray="1.2,0.8"/>
<line x1="98.323" y1="11.921" x2="111.55" y2="17.4" stroke="#8c8c8c" stroke-width="0.3" stroke-dasharray="1.2,0.8"/>
<line x1="50.274" y1="135.763" x2="44.795" y2="122.535" stroke="#8c8c8c" stroke-width="0.3" stroke-dasharray="1.2,0.8"/>
<line x1="85.096" y1="17.4" x2="98.323" y2="11.921" stroke="#8c8c8c" stroke-width="0.3" stroke-dasharray="1.2,0.8"/>
<line x1="55.752" y1="148.99" x2="50.274" y2="135.763" stroke="#8c8c8c" stroke-width="0.3" stroke-dasharray="1.2,0.8"/>
<line x1="55.752" y1="148.99" x2="117.969" y2="123.219" stroke="#8c8c8c" stroke-width="0.3" stroke-dasharray="1.2,0.8"/>
<line x1="74.138" y1="17.4" x2="79.617" y2="30.627" stroke="#141414" stroke-width="0.4"/>
<line x1="12.861" y1="135.763" x2="7.382" y2="122.535" stroke="#141414" stroke-width="0.4"/>
<line x1="26.088" y1="141.242" x2="12.861" y2="135.763" stroke="#141414" stroke-width="0.4"/>
<line x1="85.096" y1="43.854" x2="90.574" y2="57.082" stroke="#141414" stroke-width="0.4"/>
<line x1="7.382" y1="122.535" x2="12.861" y2="109.308" stroke="#141414" stroke-width="0.4"/>
<line x1="90.574" y1="57.082" x2="96.053" y2="70.309" stroke="#141414" stroke-width="0.4"/>
<line x1="12.861" y1="109.308" x2="26.088" y2="103.829" stroke="#141414" stroke-width="0.4"/>
<line x1="96.053" y1="70.309" x2="101.532" y2="83.537" stroke="#141414" stroke-width="0.4"/>
<line x1="26.088" y1="103.829" x2="39.316" y2="109.308" stroke="#141414" stroke-width="0.4"/>
<line x1="101.532" y1="83.537" x2="107.011" y2="96.764" stroke="#141414" stroke-width="0.4"/>
<line x1="107.011" y1="96.764" x2="112.49" y2="109.992" stroke="#141414" stroke-width="0.4"/>
<line x1="44.795" y1="122.535" x2="39.316" y2="135.763" stroke="#141414" stroke-width="0.4"/>
<line x1="112.49" y1="109.992" x2="117.969" y2="123.219" stroke="#141414" stroke-width="0.4"/>
<line x1="39.316" y1="135.763" x2="26.088" y2="141.242" stroke="#141414" stroke-width="0.4"/>
<line x1="11.921" y1="43.171" x2="74.138" y2="17.4" stroke="#141414" stroke-width="0.4"/>
<line x1="79.616" y1="30.627" x2="74.793" y2="23.98" stroke="#141414" stroke-width="0.4"/>
<line x1="74.793" y1="23.98" x2="76.985" y2="18.689" stroke="#141414" stroke-width="0.4"/>
<line x1="76.985" y1="18.689" x2="85.096" y2="17.4" stroke="#141414" stroke-width="0.4"/>
<line x1="17.4" y1="56.398" x2="11.754" y2="61.061" stroke="#141414" stroke-width="0.4"/>
<line x1="11.754" y1="61.061" x2="15.59" y2="70.32" stroke="#141414" stroke-width="0.4"/>
<line x1="15.59" y1="70.32" x2="22.879" y2="69.626" stroke="#141414" stroke-width="0.4"/>
<line x1="17.4" y1="56.398" x2="10.111" y2="57.093" stroke="#141414" stroke-width="0.4"/>
<line x1="10.111" y1="57.093" x2="6.275" y2="47.834" stroke="#141414" stroke-width="0.4"/>
<line x1="6.275" y1="47.834" x2="11.921" y2="43.171" stroke="#141414" stroke-width="0.4"/>
<line x1="85.096" y1="43.854" x2="86.385" y2="51.965" stroke="#141414" stroke-width="0.4"/>
<line x1="86.385" y1="51.965" x2="91.676" y2="54.157" stroke="#141414" stroke-width="0.4"/>
<line x1="91.676" y1="54.157" x2="98.323" y2="49.334" stroke="#141414" stroke-width="0.4"/>
<line x1="22.879" y1="69.626" x2="17.233" y2="74.288" stroke="#141414" stroke-width="0.4"/>
<line x1="17.233" y1="74.288" x2="21.069" y2="83.548" stroke="#141414" stroke-width="0.4"/>
<line x1="21.069" y1="83.548" x2="28.358" y2="82.853" stroke="#141414" stroke-width="0.4"/>
<line x1="98.323" y1="49.334" x2="102.986" y2="54.979" stroke="#141414" stroke-width="0.4"/>
<line x1="102.986" y1="54.979" x2="112.245" y2="51.143" stroke="#141414" stroke-width="0.4"/>
<line x1="112.245" y1="51.143" x2="111.55" y2="43.854" stroke="#141414" stroke-width="0.4"/>
<line x1="28.358" y1="82.853" x2="22.712" y2="87.516" stroke="#141414" stroke-width="0.4"/>
<line x1="22.712" y1="87.516" x2="26.548" y2="96.775" stroke="#141414" stroke-width="0.4"/>
<line x1="26.548" y1="96.775" x2="33.837" y2="96.08" stroke="#141414" stroke-width="0.4"/>
<line x1="111.55" y1="43.854" x2="118.839" y2="44.549" stroke="#141414" stroke-width="0.4"/>
<line x1="118.839" y1="44.549" x2="122.674" y2="35.29" stroke="#141414" stroke-width="0.4"/>
<line x1="122.674" y1="35.29" x2="117.029" y2="30.627" stroke="#141414" stroke-width="0.4"/>
<line x1="33.837" y1="96.08" x2="29.013" y2="102.728" stroke="#141414" stroke-width="0.4"/>
<line x1="29.013" y1="102.728" x2="31.205" y2="108.018" stroke="#141414" stroke-width="0.4"/>
<line x1="31.205" y1="108.018" x2="39.316" y2="109.308" stroke="#141414" stroke-width="0.4"/>
<line x1="117.029" y1="30.627" x2="122.674" y2="25.964" stroke="#141414" stroke-width="0.4"/>
<line x1="122.674" y1="25.964" x2="118.839" y2="16.705" stroke="#141414" stroke-width="0.4"/>
<line x1="118.839" y1="16.705" x2="111.55" y2="17.4" stroke="#141414" stroke-width="0.4"/>
<line x1="111.55" y1="17.4" x2="112.245" y2="10.111" stroke="#141414" stroke-width="0.4"/>
<line x1="112.245" y1="10.111" x2="102.986" y2="6.275" stroke="#141414" stroke-width="0.4"/>
<line x1="102.986" y1="6.275" x2="98.323" y2="11.921" stroke="#141414" stroke-width="0.4"/>
<line x1="44.795" y1="122.535" x2="39.971" y2="129.182" stroke="#141414" stroke-width="0.4"/>
<line x1="39.971" y1="129.182" x2="42.163" y2="134.473" stroke="#141414" stroke-width="0.4"/>
<line x1="42.163" y1="134.473" x2="50.274" y2="135.763" stroke="#141414" stroke-width="0.4"/>
<line x1="98.323" y1="11.921" x2="93.66" y2="6.275" stroke="#141414" stroke-width="0.4"/>
<line x1="93.66" y1="6.275" x2="84.401" y2="10.111" stroke="#141414" stroke-width="0.4"/>
<line x1="84.401" y1="10.111" x2="85.096" y2="17.4" stroke="#141414" stroke-width="0.4"/>
<line x1="50.274" y1="135.763" x2="44.628" y2="140.425" stroke="#141414" stroke-width="0.4"/>
<line x1="44.628" y1="140.425" x2="48.464" y2="149.685" stroke="#141414" stroke-width="0.4"/>
<line x1="48.464" y1="149.685" x2="55.752" y2="148.99" stroke="#141414" stroke-width="0.4"/>
<line x1="117.969" y1="123.219" x2="111.316" y2="133.552" stroke="#141414" stroke-width="0.4"/>
<line x1="111.316" y1="133.552" x2="67.764" y2="151.591" stroke="#141414" stroke-width="0.4"/>
<line x1="67.764" y1="151.591" x2="55.752" y2="148.99" stroke="#141414" stroke-width="0.4"/>
<circle cx="79.122" cy="22.674" r="3.08" fill="#ffe082" stroke="#464646" stroke-width="0.2"/>
<text x="79.122" y="24.14" font-size="4.18" text-anchor="middle" fill="#141414">17</text>
<circle cx="16.906" cy="64.351" r="3.08" fill="#ffe082" stroke="#464646" stroke-width="0.2"/>
<text x="16.906" y="65.81" font-size="4.18" text-anchor="middle" fill="#141414">18</text>
<circle cx="11.427" cy="51.124" r="3.08" fill="#ffe082" stroke="#464646" stroke-width="0.2"/>
<text x="11.427" y="52.59" font-size="4.18" text-anchor="middle" fill="#141414">19</text>
<circle cx="90.37" cy="49.828" r="3.08" fill="#ffe082" stroke="#464646" stroke-width="0.2"/>
<text x="90.37" y="51.29" font-size="4.18" text-anchor="middle" fill="#141414">20</text>
<circle cx="22.385" cy="77.579" r="3.08" fill="#ffe082" stroke="#464646" stroke-width="0.2"/>
<text x="22.385" y="79.04" font-size="4.18" text-anchor="middle" fill="#141414">21</text>
<circle cx="106.276" cy="49.828" r="3.08" fill="#ffe082" stroke="#464646" stroke-width="0.2"/>
<text x="106.276" y="51.29" font-size="4.18" text-anchor="middle" fill="#141414">22</text>
<circle cx="27.864" cy="90.806" r="3.08" fill="#ffe082" stroke="#464646" stroke-width="0.2"/>
<text x="27.864" y="92.27" font-size="4.18" text-anchor="middle" fill="#141414">23</text>
<circle cx="117.523" cy="38.58" r="3.08" fill="#ffe082" stroke="#464646" stroke-width="0.2"/>
<text x="117.523" y="40.04" font-size="4.18" text-anchor="middle" fill="#141414">24</text>
<circle cx="33.343" cy="104.034" r="3.08" fill="#ffe082" stroke="#464646" stroke-width="0.2"/>
<text x="33.343" y="105.50" font-size="4.18" text-anchor="middle" fill="#141414">25</text>
<circle cx="117.523" cy="22.674" r="3.08" fill="#ffe082" stroke="#464646" stroke-width="0.2"/>
<text x="117.523" y="24.14" font-size="4.18" text-anchor="middle" fill="#141414">26</text>
<circle cx="106.276" cy="11.427" r="3.08" fill="#ffe082" stroke="#464646" stroke-width="0.2"/>
<text x="106.276" y="12.89" font-size="4.18" text-anchor="middle" fill="#141414">27</text>
<circle cx="44.3" cy="130.488" r="3.08" fill="#ffe082" stroke="#464646" stroke-width="0.2"/>
<text x="44.3" y="131.95" font-size="4.18" text-anchor="middle" fill="#141414">28</text>
<circle cx="90.37" cy="11.427" r="3.08" fill="#ffe082" stroke="#464646" stroke-width="0.2"/>
<text x="90.37" y="12.89" font-size="4.18" text-anchor="middle" fill="#141414">29</text>
<circle cx="49.779" cy="143.716" r="3.08" fill="#ffe082" stroke="#464646" stroke-width="0.2"/>
<text x="49.779" y="145.18" font-size="4.18" text-anchor="middle" fill="#141414">30</text>
<circle cx="88.2" cy="139.338" r="3.08" fill="#ffe082" stroke="#464646" stroke-width="0.2"/>
<text x="88.2" y="140.80" font-size="4.18" text-anchor="middle" fill="#141414">31</text>
<circle cx="63.2" cy="156.416" r="4.6" fill="#eaf1fe" stroke="#2e78e6" stroke-width="0.3"/>
<text x="63.2" y="158.216" font-size="5.2" text-anchor="middle" fill="#14306e" font-weight="bold">3</text>
<polygon points="25.976,178.943 20.331,183.606 24.166,192.865 31.455,192.17" fill="rgb(216,216,216)"/>
<polygon points="25.976,178.943 20.331,174.28 24.166,165.021 31.455,165.716" fill="rgb(216,216,216)"/>
<polygon points="38.272,256.998 42.934,262.644 52.194,258.808 51.499,251.519" fill="rgb(216,216,216)"/>
<polygon points="38.272,256.998 38.966,264.287 29.707,268.123 25.044,262.477" fill="rgb(216,216,216)"/>
<polygon points="31.455,192.17 32.744,200.281 38.035,202.473 44.682,197.65" fill="rgb(216,216,216)"/>
<polygon points="51.499,251.519 56.162,257.165 65.421,253.329 64.726,246.04" fill="rgb(216,216,216)"/>
<polygon points="64.726,246.04 69.389,251.686 78.648,247.85 77.954,240.561" fill="rgb(216,216,216)"/>
<polygon points="57.91,192.17 66.02,190.881 68.212,185.59 63.389,178.943" fill="rgb(216,216,216)"/>
<polygon points="77.954,240.561 82.617,246.207 91.876,242.371 91.181,235.082" fill="rgb(216,216,216)"/>
<polygon points="63.389,178.943 69.034,174.28 65.198,165.021 57.91,165.716" fill="rgb(216,216,216)"/>
<polygon points="91.181,235.082 95.844,240.728 105.103,236.892 104.408,229.603" fill="rgb(216,216,216)"/>
<polygon points="57.91,165.716 58.604,158.427 49.345,154.591 44.682,160.237" fill="rgb(216,216,216)"/>
<polygon points="104.408,229.603 111.056,234.427 116.347,232.235 117.636,224.124" fill="rgb(216,216,216)"/>
<polygon points="44.682,160.237 40.019,154.591 30.76,158.427 31.455,165.716" fill="rgb(216,216,216)"/>
<polygon points="110.819,170.255 120.293,174.834 134.324,208.708 130.863,218.645" fill="rgb(216,216,216)"/>
<line x1="38.272" y1="256.998" x2="18.227" y2="208.607" stroke="#8c8c8c" stroke-width="0.3" stroke-dasharray="1.2,0.8"/>
<line x1="31.455" y1="203.129" x2="51.499" y2="251.519" stroke="#8c8c8c" stroke-width="0.3" stroke-dasharray="1.2,0.8"/>
<line x1="44.682" y1="197.649" x2="64.726" y2="246.04" stroke="#8c8c8c" stroke-width="0.3" stroke-dasharray="1.2,0.8"/>
<line x1="57.91" y1="192.17" x2="44.682" y2="197.649" stroke="#8c8c8c" stroke-width="0.3" stroke-dasharray="1.2,0.8"/>
<line x1="57.91" y1="192.17" x2="77.954" y2="240.561" stroke="#8c8c8c" stroke-width="0.3" stroke-dasharray="1.2,0.8"/>
<line x1="71.137" y1="186.692" x2="91.181" y2="235.082" stroke="#8c8c8c" stroke-width="0.3" stroke-dasharray="1.2,0.8"/>
<line x1="84.365" y1="181.213" x2="104.409" y2="229.603" stroke="#8c8c8c" stroke-width="0.3" stroke-dasharray="1.2,0.8"/>
<line x1="97.592" y1="175.734" x2="117.636" y2="224.124" stroke="#8c8c8c" stroke-width="0.3" stroke-dasharray="1.2,0.8"/>
<line x1="130.863" y1="218.645" x2="117.636" y2="224.124" stroke="#8c8c8c" stroke-width="0.3" stroke-dasharray="1.2,0.8"/>
<line x1="31.455" y1="192.17" x2="25.976" y2="178.943" stroke="#8c8c8c" stroke-width="0.3" stroke-dasharray="1.2,0.8"/>
<line x1="31.455" y1="165.716" x2="25.976" y2="178.943" stroke="#8c8c8c" stroke-width="0.3" stroke-dasharray="1.2,0.8"/>
<line x1="51.499" y1="251.519" x2="38.272" y2="256.998" stroke="#8c8c8c" stroke-width="0.3" stroke-dasharray="1.2,0.8"/>
<line x1="25.044" y1="262.477" x2="38.272" y2="256.998" stroke="#8c8c8c" stroke-width="0.3" stroke-dasharray="1.2,0.8"/>
<line x1="44.682" y1="197.65" x2="31.455" y2="192.17" stroke="#8c8c8c" stroke-width="0.3" stroke-dasharray="1.2,0.8"/>
<line x1="64.726" y1="246.04" x2="51.499" y2="251.519" stroke="#8c8c8c" stroke-width="0.3" stroke-dasharray="1.2,0.8"/>
<line x1="77.954" y1="240.561" x2="64.726" y2="246.04" stroke="#8c8c8c" stroke-width="0.3" stroke-dasharray="1.2,0.8"/>
<line x1="63.389" y1="178.943" x2="57.91" y2="192.17" stroke="#8c8c8c" stroke-width="0.3" stroke-dasharray="1.2,0.8"/>
<line x1="91.181" y1="235.082" x2="77.954" y2="240.561" stroke="#8c8c8c" stroke-width="0.3" stroke-dasharray="1.2,0.8"/>
<line x1="57.91" y1="165.716" x2="63.389" y2="178.943" stroke="#8c8c8c" stroke-width="0.3" stroke-dasharray="1.2,0.8"/>
<line x1="104.408" y1="229.603" x2="91.181" y2="235.082" stroke="#8c8c8c" stroke-width="0.3" stroke-dasharray="1.2,0.8"/>
<line x1="44.682" y1="160.237" x2="57.91" y2="165.716" stroke="#8c8c8c" stroke-width="0.3" stroke-dasharray="1.2,0.8"/>
<line x1="117.636" y1="224.124" x2="104.408" y2="229.603" stroke="#8c8c8c" stroke-width="0.3" stroke-dasharray="1.2,0.8"/>
<line x1="31.455" y1="165.716" x2="44.682" y2="160.237" stroke="#8c8c8c" stroke-width="0.3" stroke-dasharray="1.2,0.8"/>
<line x1="130.863" y1="218.645" x2="110.819" y2="170.255" stroke="#8c8c8c" stroke-width="0.3" stroke-dasharray="1.2,0.8"/>
<line x1="18.227" y1="208.607" x2="31.455" y2="203.129" stroke="#141414" stroke-width="0.4"/>
<line x1="5.0" y1="214.086" x2="18.227" y2="208.607" stroke="#141414" stroke-width="0.4"/>
<line x1="144.091" y1="224.124" x2="149.57" y2="237.352" stroke="#141414" stroke-width="0.4"/>
<line x1="130.863" y1="218.645" x2="144.091" y2="224.124" stroke="#141414" stroke-width="0.4"/>
<line x1="31.455" y1="203.129" x2="44.682" y2="197.649" stroke="#141414" stroke-width="0.4"/>
<line x1="149.57" y1="237.352" x2="144.091" y2="250.579" stroke="#141414" stroke-width="0.4"/>
<line x1="144.091" y1="250.579" x2="130.863" y2="256.058" stroke="#141414" stroke-width="0.4"/>
<line x1="57.91" y1="192.17" x2="71.137" y2="186.692" stroke="#141414" stroke-width="0.4"/>
<line x1="130.863" y1="256.058" x2="117.636" y2="250.579" stroke="#141414" stroke-width="0.4"/>
<line x1="71.137" y1="186.692" x2="84.365" y2="181.213" stroke="#141414" stroke-width="0.4"/>
<line x1="117.636" y1="250.579" x2="112.157" y2="237.352" stroke="#141414" stroke-width="0.4"/>
<line x1="84.365" y1="181.213" x2="97.592" y2="175.734" stroke="#141414" stroke-width="0.4"/>
<line x1="112.157" y1="237.352" x2="117.636" y2="224.124" stroke="#141414" stroke-width="0.4"/>
<line x1="97.592" y1="175.734" x2="110.819" y2="170.255" stroke="#141414" stroke-width="0.4"/>
<line x1="25.044" y1="262.477" x2="5.0" y2="214.086" stroke="#141414" stroke-width="0.4"/>
<line x1="25.976" y1="178.943" x2="20.331" y2="183.606" stroke="#141414" stroke-width="0.4"/>
<line x1="20.331" y1="183.606" x2="24.166" y2="192.865" stroke="#141414" stroke-width="0.4"/>
<line x1="24.166" y1="192.865" x2="31.455" y2="192.17" stroke="#141414" stroke-width="0.4"/>
<line x1="25.976" y1="178.943" x2="20.331" y2="174.28" stroke="#141414" stroke-width="0.4"/>
<line x1="20.331" y1="174.28" x2="24.166" y2="165.021" stroke="#141414" stroke-width="0.4"/>
<line x1="24.166" y1="165.021" x2="31.455" y2="165.716" stroke="#141414" stroke-width="0.4"/>
<line x1="38.272" y1="256.998" x2="42.934" y2="262.644" stroke="#141414" stroke-width="0.4"/>
<line x1="42.934" y1="262.644" x2="52.194" y2="258.808" stroke="#141414" stroke-width="0.4"/>
<line x1="52.194" y1="258.808" x2="51.499" y2="251.519" stroke="#141414" stroke-width="0.4"/>
<line x1="38.272" y1="256.998" x2="38.966" y2="264.287" stroke="#141414" stroke-width="0.4"/>
<line x1="38.966" y1="264.287" x2="29.707" y2="268.123" stroke="#141414" stroke-width="0.4"/>
<line x1="29.707" y1="268.123" x2="25.044" y2="262.477" stroke="#141414" stroke-width="0.4"/>
<line x1="31.455" y1="192.17" x2="32.744" y2="200.281" stroke="#141414" stroke-width="0.4"/>
<line x1="32.744" y1="200.281" x2="38.035" y2="202.473" stroke="#141414" stroke-width="0.4"/>
<line x1="38.035" y1="202.473" x2="44.682" y2="197.65" stroke="#141414" stroke-width="0.4"/>
<line x1="51.499" y1="251.519" x2="56.162" y2="257.165" stroke="#141414" stroke-width="0.4"/>
<line x1="56.162" y1="257.165" x2="65.421" y2="253.329" stroke="#141414" stroke-width="0.4"/>
<line x1="65.421" y1="253.329" x2="64.726" y2="246.04" stroke="#141414" stroke-width="0.4"/>
<line x1="64.726" y1="246.04" x2="69.389" y2="251.686" stroke="#141414" stroke-width="0.4"/>
<line x1="69.389" y1="251.686" x2="78.648" y2="247.85" stroke="#141414" stroke-width="0.4"/>
<line x1="78.648" y1="247.85" x2="77.954" y2="240.561" stroke="#141414" stroke-width="0.4"/>
<line x1="57.91" y1="192.17" x2="66.02" y2="190.881" stroke="#141414" stroke-width="0.4"/>
<line x1="66.02" y1="190.881" x2="68.212" y2="185.59" stroke="#141414" stroke-width="0.4"/>
<line x1="68.212" y1="185.59" x2="63.389" y2="178.943" stroke="#141414" stroke-width="0.4"/>
<line x1="77.954" y1="240.561" x2="82.617" y2="246.207" stroke="#141414" stroke-width="0.4"/>
<line x1="82.617" y1="246.207" x2="91.876" y2="242.371" stroke="#141414" stroke-width="0.4"/>
<line x1="91.876" y1="242.371" x2="91.181" y2="235.082" stroke="#141414" stroke-width="0.4"/>
<line x1="63.389" y1="178.943" x2="69.034" y2="174.28" stroke="#141414" stroke-width="0.4"/>
<line x1="69.034" y1="174.28" x2="65.198" y2="165.021" stroke="#141414" stroke-width="0.4"/>
<line x1="65.198" y1="165.021" x2="57.91" y2="165.716" stroke="#141414" stroke-width="0.4"/>
<line x1="91.181" y1="235.082" x2="95.844" y2="240.728" stroke="#141414" stroke-width="0.4"/>
<line x1="95.844" y1="240.728" x2="105.103" y2="236.892" stroke="#141414" stroke-width="0.4"/>
<line x1="105.103" y1="236.892" x2="104.408" y2="229.603" stroke="#141414" stroke-width="0.4"/>
<line x1="57.91" y1="165.716" x2="58.604" y2="158.427" stroke="#141414" stroke-width="0.4"/>
<line x1="58.604" y1="158.427" x2="49.345" y2="154.591" stroke="#141414" stroke-width="0.4"/>
<line x1="49.345" y1="154.591" x2="44.682" y2="160.237" stroke="#141414" stroke-width="0.4"/>
<line x1="104.408" y1="229.603" x2="111.056" y2="234.427" stroke="#141414" stroke-width="0.4"/>
<line x1="111.056" y1="234.427" x2="116.347" y2="232.235" stroke="#141414" stroke-width="0.4"/>
<line x1="116.347" y1="232.235" x2="117.636" y2="224.124" stroke="#141414" stroke-width="0.4"/>
<line x1="44.682" y1="160.237" x2="40.019" y2="154.591" stroke="#141414" stroke-width="0.4"/>
<line x1="40.019" y1="154.591" x2="30.76" y2="158.427" stroke="#141414" stroke-width="0.4"/>
<line x1="30.76" y1="158.427" x2="31.455" y2="165.716" stroke="#141414" stroke-width="0.4"/>
<line x1="110.819" y1="170.255" x2="120.293" y2="174.834" stroke="#141414" stroke-width="0.4"/>
<line x1="120.293" y1="174.834" x2="134.324" y2="208.708" stroke="#141414" stroke-width="0.4"/>
<line x1="134.324" y1="208.708" x2="130.863" y2="218.645" stroke="#141414" stroke-width="0.4"/>
<circle cx="25.482" cy="186.896" r="3.08" fill="#ffe082" stroke="#464646" stroke-width="0.2"/>
<text x="25.482" y="188.36" font-size="4.18" text-anchor="middle" fill="#141414">32</text>
<circle cx="25.482" cy="170.99" r="3.08" fill="#ffe082" stroke="#464646" stroke-width="0.2"/>
<text x="25.482" y="172.45" font-size="4.18" text-anchor="middle" fill="#141414">33</text>
<circle cx="46.225" cy="257.492" r="3.08" fill="#ffe082" stroke="#464646" stroke-width="0.2"/>
<text x="46.225" y="258.95" font-size="4.18" text-anchor="middle" fill="#141414">34</text>
<circle cx="32.997" cy="262.971" r="3.08" fill="#ffe082" stroke="#464646" stroke-width="0.2"/>
<text x="32.997" y="264.43" font-size="4.18" text-anchor="middle" fill="#141414">35</text>
<circle cx="36.729" cy="198.144" r="3.08" fill="#ffe082" stroke="#464646" stroke-width="0.2"/>
<text x="36.729" y="199.61" font-size="4.18" text-anchor="middle" fill="#141414">36</text>
<circle cx="59.452" cy="252.013" r="3.08" fill="#ffe082" stroke="#464646" stroke-width="0.2"/>
<text x="59.452" y="253.48" font-size="4.18" text-anchor="middle" fill="#141414">37</text>
<circle cx="72.679" cy="246.534" r="3.08" fill="#ffe082" stroke="#464646" stroke-width="0.2"/>
<text x="72.679" y="248.00" font-size="4.18" text-anchor="middle" fill="#141414">38</text>
<circle cx="63.883" cy="186.896" r="3.08" fill="#ffe082" stroke="#464646" stroke-width="0.2"/>
<text x="63.883" y="188.36" font-size="4.18" text-anchor="middle" fill="#141414">39</text>
<circle cx="85.907" cy="241.055" r="3.08" fill="#ffe082" stroke="#464646" stroke-width="0.2"/>
<text x="85.907" y="242.52" font-size="4.18" text-anchor="middle" fill="#141414">40</text>
<circle cx="63.883" cy="170.99" r="3.08" fill="#ffe082" stroke="#464646" stroke-width="0.2"/>
<text x="63.883" y="172.45" font-size="4.18" text-anchor="middle" fill="#141414">41</text>
<circle cx="99.134" cy="235.576" r="3.08" fill="#ffe082" stroke="#464646" stroke-width="0.2"/>
<text x="99.134" y="237.04" font-size="4.18" text-anchor="middle" fill="#141414">42</text>
<circle cx="52.635" cy="159.743" r="3.08" fill="#ffe082" stroke="#464646" stroke-width="0.2"/>
<text x="52.635" y="161.21" font-size="4.18" text-anchor="middle" fill="#141414">43</text>
<circle cx="112.362" cy="230.097" r="3.08" fill="#ffe082" stroke="#464646" stroke-width="0.2"/>
<text x="112.362" y="231.56" font-size="4.18" text-anchor="middle" fill="#141414">44</text>
<circle cx="36.729" cy="159.743" r="3.08" fill="#ffe082" stroke="#464646" stroke-width="0.2"/>
<text x="36.729" y="161.21" font-size="4.18" text-anchor="middle" fill="#141414">45</text>
<circle cx="124.075" cy="193.111" r="3.08" fill="#ffe082" stroke="#464646" stroke-width="0.2"/>
<text x="124.075" y="194.57" font-size="4.18" text-anchor="middle" fill="#141414">46</text>
<circle cx="77.285" cy="147.216" r="4.6" fill="#eaf1fe" stroke="#2e78e6" stroke-width="0.3"/>
<text x="77.285" y="149.01600000000002" font-size="5.2" text-anchor="middle" fill="#14306e" font-weight="bold">4</text>
</svg>
