<svg xmlns="http://www.w3.org/2000/svg" xmlns:xlink="http://www.w3.org/1999/xlink" width="210.00mm" height="297.00mm" viewBox="0 0 210.00 297.00">
<rect x="0" y="0" width="210.00" height="297.00" fill="#ffffff" stroke="#cccccc" stroke-width="0.2"/>
<polygon points="154.889,12.59 135.877,8.267 51.83,20.421 34.821,29.953" fill="rgb(216,216,216)"/>
<polygon points="124.696,182.909 120.027,189.344 127.662,205.188 135.605,205.544" fill="rgb(216,216,216)"/>
<polygon points="34.821,29.953 28.062,32.742 29.031,42.544 36.204,43.956" fill="rgb(216,216,216)"/>
<polygon points="17.913,125.332 12.522,120.393 16.795,111.521 24.017,112.656" fill="rgb(216,216,216)"/>
<polygon points="135.605,205.544 137.723,213.207 154.875,217.12 160.108,211.134" fill="rgb(216,216,216)"/>
<polygon points="36.204,43.956 29.248,49.918 29.264,52.17 36.308,58.03" fill="rgb(216,216,216)"/>
<polygon points="160.108,211.134 167.418,214.258 181.171,203.293 179.754,195.471" fill="rgb(216,216,216)"/>
<polygon points="179.754,195.471 186.753,191.701 186.75,174.115 179.75,170.348" fill="rgb(216,216,216)"/>
<polygon points="35.125,72.05 27.2,76.644 26.806,78.86 32.665,85.902" fill="rgb(216,216,216)"/>
<polygon points="179.75,170.348 181.165,162.525 167.409,151.56 160.098,154.684" fill="rgb(216,216,216)"/>
<polygon points="32.665,85.902 25.356,86.09 22.755,95.592 28.95,99.476" fill="rgb(216,216,216)"/>
<polygon points="160.098,154.684 151.19,149.537 141.39,151.773 135.597,160.275" fill="rgb(216,216,216)"/>
<polygon points="28.95,99.476 21.654,99.0 18.201,108.226 24.017,112.656" fill="rgb(216,216,216)"/>
<polygon points="179.754,195.471 186.753,191.701 186.75,174.115 179.75,170.348" fill="#99d9fa"/>
<line x1="124.696" y1="182.909" x2="135.597" y2="160.275" stroke="#8c8c8c" stroke-width="0.3" stroke-dasharray="1.2,0.8"/>
<line x1="157.359" y1="37.595" x2="36.204" y2="43.956" stroke="#8c8c8c" stroke-width="0.3" stroke-dasharray="1.2,0.8"/>
<line x1="157.544" y1="62.727" x2="36.308" y2="58.029" stroke="#8c8c8c" stroke-width="0.3" stroke-dasharray="1.2,0.8"/>
<line x1="35.125" y1="72.05" x2="36.308" y2="58.029" stroke="#8c8c8c" stroke-width="0.3" stroke-dasharray="1.2,0.8"/>
<line x1="155.432" y1="87.764" x2="35.125" y2="72.05" stroke="#8c8c8c" stroke-width="0.3" stroke-dasharray="1.2,0.8"/>
<line x1="151.038" y1="112.499" x2="32.665" y2="85.902" stroke="#8c8c8c" stroke-width="0.3" stroke-dasharray="1.2,0.8"/>
<line x1="144.404" y1="136.738" x2="28.95" y2="99.476" stroke="#8c8c8c" stroke-width="0.3" stroke-dasharray="1.2,0.8"/>
<line x1="135.597" y1="160.275" x2="24.017" y2="112.656" stroke="#8c8c8c" stroke-width="0.3" stroke-dasharray="1.2,0.8"/>
<line x1="34.821" y1="29.953" x2="154.889" y2="12.59" stroke="#8c8c8c" stroke-width="0.3" stroke-dasharray="1.2,0.8"/>
<line x1="135.605" y1="205.544" x2="124.696" y2="182.909" stroke="#8c8c8c" stroke-width="0.3" stroke-dasharray="1.2,0.8"/>
<line x1="36.204" y1="43.956" x2="34.821" y2="29.953" stroke="#8c8c8c" stroke-width="0.3" stroke-dasharray="1.2,0.8"/>
<line x1="24.017" y1="112.656" x2="17.913" y2="125.332" stroke="#8c8c8c" stroke-width="0.3" stroke-dasharray="1.2,0.8"/>
<line x1="160.108" y1="211.134" x2="135.605" y2="205.544" stroke="#8c8c8c" stroke-width="0.3" stroke-dasharray="1.2,0.8"/>
<line x1="36.308" y1="58.03" x2="36.204" y2="43.956" stroke="#8c8c8c" stroke-width="0.3" stroke-dasharray="1.2,0.8"/>
<line x1="179.754" y1="195.471" x2="160.108" y2="211.134" stroke="#8c8c8c" stroke-width="0.3" stroke-dasharray="1.2,0.8"/>
<line x1="179.75" y1="170.348" x2="179.754" y2="195.471" stroke="#8c8c8c" stroke-width="0.3" stroke-dasharray="1.2,0.8"/>
<line x1="32.665" y1="85.902" x2="35.125" y2="72.05" stroke="#8c8c8c" stroke-width="0.3" stroke-dasharray="1.2,0.8"/>
<line x1="160.098" y1="154.684" x2="179.75" y2="170.348" stroke="#8c8c8c" stroke-width="0.3" stroke-dasharray="1.2,0.8"/>
<line x1="28.95" y1="99.476" x2="32.665" y2="85.902" stroke="#8c8c8c" stroke-width="0.3" stroke-dasharray="1.2,0.8"/>
<line x1="135.597" y1="160.275" x2="160.098" y2="154.684" stroke="#8c8c8c" stroke-width="0.3" stroke-dasharray="1.2,0.8"/>
<line x1="24.017" y1="112.656" x2="28.95" y2="99.476" stroke="#8c8c8c" stroke-width="0.3" stroke-dasharray="1.2,0.8"/>
<line x1="124.696" y1="182.909" x2="17.913" y2="125.332" stroke="#141414" stroke-width="0.4"/>
<line x1="154.889" y1="12.59" x2="157.359" y2="37.595" stroke="#141414" stroke-width="0.4"/>
<line x1="12.149" y1="50.32" x2="26.082" y2="48.358" stroke="#141414" stroke-width="0.4"/>
<line x1="5.0" y1="62.437" x2="12.149" y2="50.32" stroke="#141414" stroke-width="0.4"/>
<line x1="157.359" y1="37.595" x2="157.544" y2="62.727" stroke="#141414" stroke-width="0.4"/>
<line x1="26.082" y1="48.358" x2="36.308" y2="58.029" stroke="#141414" stroke-width="0.4"/>
<line x1="157.544" y1="62.727" x2="155.432" y2="87.764" stroke="#141414" stroke-width="0.4"/>
<line x1="155.432" y1="87.764" x2="151.038" y2="112.499" stroke="#141414" stroke-width="0.4"/>
<line x1="35.125" y1="72.05" x2="23.425" y2="79.863" stroke="#141414" stroke-width="0.4"/>
<line x1="151.038" y1="112.499" x2="144.404" y2="136.738" stroke="#141414" stroke-width="0.4"/>
<line x1="23.425" y1="79.863" x2="10.018" y2="75.585" stroke="#141414" stroke-width="0.4"/>
<line x1="144.404" y1="136.738" x2="135.597" y2="160.275" stroke="#141414" stroke-width="0.4"/>
<line x1="10.018" y1="75.585" x2="5.0" y2="62.437" stroke="#141414" stroke-width="0.4"/>
<line x1="154.889" y1="12.59" x2="135.877" y2="8.267" stroke="#141414" stroke-width="0.4"/>
<line x1="135.877" y1="8.267" x2="51.83" y2="20.421" stroke="#141414" stroke-width="0.4"/>
<line x1="51.83" y1="20.421" x2="34.821" y2="29.953" stroke="#141414" stroke-width="0.4"/>
<line x1="124.696" y1="182.909" x2="120.027" y2="189.344" stroke="#141414" stroke-width="0.4"/>
<line x1="120.027" y1="189.344" x2="127.662" y2="205.188" stroke="#141414" stroke-width="0.4"/>
<line x1="127.662" y1="205.188" x2="135.605" y2="205.544" stroke="#141414" stroke-width="0.4"/>
<line x1="34.821" y1="29.953" x2="28.062" y2="32.742" stroke="#141414" stroke-width="0.4"/>
<line x1="28.062" y1="32.742" x2="29.031" y2="42.544" stroke="#141414" stroke-width="0.4"/>
<line x1="29.031" y1="42.544" x2="36.204" y2="43.956" stroke="#141414" stroke-width="0.4"/>
<line x1="17.913" y1="125.332" x2="12.522" y2="120.393" stroke="#141414" stroke-width="0.4"/>
<line x1="12.522" y1="120.393" x2="16.795" y2="111.521" stroke="#141414" stroke-width="0.4"/>
<line x1="16.795" y1="111.521" x2="24.017" y2="112.656" stroke="#141414" stroke-width="0.4"/>
<line x1="135.605" y1="205.544" x2="137.723" y2="213.207" stroke="#141414" stroke-width="0.4"/>
<line x1="137.723" y1="213.207" x2="154.875" y2="217.12" stroke="#141414" stroke-width="0.4"/>
<line x1="154.875" y1="217.12" x2="160.108" y2="211.134" stroke="#141414" stroke-width="0.4"/>
<line x1="36.204" y1="43.956" x2="29.248" y2="49.918" stroke="#141414" stroke-width="0.4"/>
<line x1="29.248" y1="49.918" x2="29.264" y2="52.17" stroke="#141414" stroke-width="0.4"/>
<line x1="29.264" y1="52.17" x2="36.308" y2="58.03" stroke="#141414" stroke-width="0.4"/>
<line x1="160.108" y1="211.134" x2="167.418" y2="214.258" stroke="#141414" stroke-width="0.4"/>
<line x1="167.418" y1="214.258" x2="181.171" y2="203.293" stroke="#141414" stroke-width="0.4"/>
<line x1="181.171" y1="203.293" x2="179.754" y2="195.471" stroke="#141414" stroke-width="0.4"/>
<line x1="179.754" y1="195.471" x2="186.753" y2="191.701" stroke="#141414" stroke-width="0.4"/>
<line x1="186.753" y1="191.701" x2="186.75" y2="174.115" stroke="#141414" stroke-width="0.4"/>
<line x1="186.75" y1="174.115" x2="179.75" y2="170.348" stroke="#141414" stroke-width="0.4"/>
<line x1="35.125" y1="72.05" x2="27.2" y2="76.644" stroke="#141414" stroke-width="0.4"/>
<line x1="27.2" y1="76.644" x2="26.806" y2="78.86" stroke="#141414" stroke-width="0.4"/>
<line x1="26.806" y1="78.86" x2="32.665" y2="85.902" stroke="#141414" stroke-width="0.4"/>
<line x1="179.75" y1="170.348" x2="181.165" y2="162.525" stroke="#141414" stroke-width="0.4"/>
<line x1="181.165" y1="162.525" x2="167.409" y2="151.56" stroke="#141414" stroke-width="0.4"/>
<line x1="167.409" y1="151.56" x2="160.098" y2="154.684" stroke="#141414" stroke-width="0.4"/>
<line x1="32.665" y1="85.902" x2="25.356" y2="86.09" stroke="#141414" stroke-width="0.4"/>
<line x1="25.356" y1="86.09" x2="22.755" y2="95.592" stroke="#141414" stroke-width="0.4"/>
<line x1="22.755" y1="95.592" x2="28.95" y2="99.476" stroke="#141414" stroke-width="0.4"/>
<line x1="160.098" y1="154.684" x2="151.19" y2="149.537" stroke="#141414" stroke-width="0.4"/>
<line x1="151.19" y1="149.537" x2="141.39" y2="151.773" stroke="#141414" stroke-width="0.4"/>
<line x1="141.39" y1="151.773" x2="135.597" y2="160.275" stroke="#141414" stroke-width="0.4"/>
<line x1="28.95" y1="99.476" x2="21.654" y2="99.0" stroke="#141414" stroke-width="0.4"/>
<line x1="21.654" y1="99.0" x2="18.201" y2="108.226" stroke="#141414" stroke-width="0.4"/>
<line x1="18.201" y1="108.226" x2="24.017" y2="112.656" stroke="#141414" stroke-width="0.4"/>
<circle cx="94.354" cy="17.808" r="1.31" fill="#ffe082" stroke="#464646" stroke-width="0.2"/>
<text x="94.354" y="18.26" font-size="1.28" text-anchor="middle" fill="#141414">132</text>
<circle cx="126.998" cy="195.746" r="1.31" fill="#ffe082" stroke="#464646" stroke-width="0.2"/>
<text x="126.998" y="196.19" font-size="1.28" text-anchor="middle" fill="#141414">133</text>
<circle cx="32.03" cy="37.299" r="1.31" fill="#ffe082" stroke="#464646" stroke-width="0.2"/>
<text x="32.03" y="37.75" font-size="1.28" text-anchor="middle" fill="#141414">134</text>
<circle cx="17.812" cy="117.476" r="1.31" fill="#ffe082" stroke="#464646" stroke-width="0.2"/>
<text x="17.812" y="117.92" font-size="1.28" text-anchor="middle" fill="#141414">135</text>
<circle cx="147.078" cy="211.751" r="1.31" fill="#ffe082" stroke="#464646" stroke-width="0.2"/>
<text x="147.078" y="212.20" font-size="1.28" text-anchor="middle" fill="#141414">136</text>
<circle cx="32.756" cy="51.018" r="1.31" fill="#ffe082" stroke="#464646" stroke-width="0.2"/>
<text x="32.756" y="51.47" font-size="1.28" text-anchor="middle" fill="#141414">137</text>
<circle cx="172.112" cy="206.039" r="1.31" fill="#ffe082" stroke="#464646" stroke-width="0.2"/>
<text x="172.112" y="206.49" font-size="1.28" text-anchor="middle" fill="#141414">138</text>
<circle cx="183.252" cy="182.909" r="1.31" fill="#99d9fa" stroke="#464646" stroke-width="0.2"/>
<text x="183.252" y="183.36" font-size="1.28" text-anchor="middle" fill="#141414">139</text>
<circle cx="30.449" cy="78.364" r="1.31" fill="#ffe082" stroke="#464646" stroke-width="0.2"/>
<text x="30.449" y="78.81" font-size="1.28" text-anchor="middle" fill="#141414">140</text>
<circle cx="172.105" cy="159.779" r="1.31" fill="#ffe082" stroke="#464646" stroke-width="0.2"/>
<text x="172.105" y="160.23" font-size="1.28" text-anchor="middle" fill="#141414">141</text>
<circle cx="27.431" cy="91.765" r="1.31" fill="#ffe082" stroke="#464646" stroke-width="0.2"/>
<text x="27.431" y="92.21" font-size="1.28" text-anchor="middle" fill="#141414">142</text>
<circle cx="147.069" cy="154.067" r="1.31" fill="#ffe082" stroke="#464646" stroke-width="0.2"/>
<text x="147.069" y="154.52" font-size="1.28" text-anchor="middle" fill="#141414">143</text>
<circle cx="23.205" cy="104.84" r="1.31" fill="#ffe082" stroke="#464646" stroke-width="0.2"/>
<text x="23.205" y="105.29" font-size="1.28" text-anchor="middle" fill="#141414">144</text>
<circle cx="95.877" cy="219.953" r="4.6" fill="#eaf1fe" stroke="#2e78e6" stroke-width="0.3"/>
<text x="95.877" y="221.75300000000001" font-size="5.2" text-anchor="middle" fill="#14306e" font-weight="bold">13</text>
</svg>
