<svg xmlns="http://www.w3.org/2000/svg" xmlns:xlink="http://www.w3.org/1999/xlink" width="210.00mm" height="297.00mm" viewBox="0 0 210.00 297.00">
<rect x="0" y="0" width="210.00" height="297.00" fill="#ffffff" stroke="#cccccc" stroke-width="0.2"/>
<polygon points="94.403,38.814 91.115,28.462 92.325,25.539 101.971,20.544" fill="rgb(216,216,216)"/>
<polygon points="21.999,73.744 17.692,77.257 20.544,84.144 26.074,83.582" fill="rgb(216,216,216)"/>
<polygon points="21.999,73.744 16.569,74.929 12.954,68.411 16.836,64.432" fill="rgb(216,216,216)"/>
<polygon points="101.971,57.084 106.965,66.73 109.889,67.94 120.241,64.652" fill="rgb(216,216,216)"/>
<polygon points="26.074,83.582 21.396,86.584 23.45,93.749 29.008,93.818" fill="rgb(216,216,216)"/>
<polygon points="120.241,64.652 125.66,69.984 138.449,64.686 138.511,57.084" fill="rgb(216,216,216)"/>
<polygon points="29.008,93.818 24.02,96.271 25.247,103.622 30.762,104.321" fill="rgb(216,216,216)"/>
<polygon points="138.511,57.084 146.113,57.022 151.41,44.233 146.078,38.814" fill="rgb(216,216,216)"/>
<polygon points="30.762,104.321 26.627,102.553 27.025,110.21 31.314,114.954" fill="rgb(216,216,216)"/>
<polygon points="146.078,38.814 151.41,33.395 146.113,20.606 138.511,20.544" fill="rgb(216,216,216)"/>
<polygon points="138.511,20.544 138.449,12.942 125.66,7.644 120.241,12.976" fill="rgb(216,216,216)"/>
<polygon points="30.658,125.582 24.674,129.052 24.154,131.988 28.801,136.067" fill="rgb(216,216,216)"/>
<polygon points="120.241,12.976 114.822,7.644 102.033,12.942 101.971,20.544" fill="rgb(216,216,216)"/>
<polygon points="28.801,136.067 23.242,136.082 21.119,143.227 25.768,146.274" fill="rgb(216,216,216)"/>
<polygon points="101.402,173.513 87.685,176.013 34.741,156.946 25.768,146.274" fill="rgb(216,216,216)"/>
<line x1="21.999" y1="73.744" x2="94.403" y2="38.814" stroke="#8c8c8c" stroke-width="0.3" stroke-dasharray="1.2,0.8"/>
<line x1="101.971" y1="57.084" x2="94.403" y2="38.814" stroke="#8c8c8c" stroke-width="0.3" stroke-dasharray="1.2,0.8"/>
<line x1="101.971" y1="57.084" x2="26.074" y2="83.582" stroke="#8c8c8c" stroke-width="0.3" stroke-dasharray="1.2,0.8"/>
<line x1="107.419" y1="76.094" x2="29.008" y2="93.818" stroke="#8c8c8c" stroke-width="0.3" stroke-dasharray="1.2,0.8"/>
<line x1="110.677" y1="95.599" x2="30.762" y2="104.321" stroke="#8c8c8c" stroke-width="0.3" stroke-dasharray="1.2,0.8"/>
<line x1="111.703" y1="115.347" x2="31.314" y2="114.954" stroke="#8c8c8c" stroke-width="0.3" stroke-dasharray="1.2,0.8"/>
<line x1="30.658" y1="125.582" x2="31.314" y2="114.954" stroke="#8c8c8c" stroke-width="0.3" stroke-dasharray="1.2,0.8"/>
<line x1="110.484" y1="135.085" x2="30.658" y2="125.582" stroke="#8c8c8c" stroke-width="0.3" stroke-dasharray="1.2,0.8"/>
<line x1="107.035" y1="154.557" x2="28.801" y2="136.067" stroke="#8c8c8c" stroke-width="0.3" stroke-dasharray="1.2,0.8"/>
<line x1="101.971" y1="20.544" x2="94.403" y2="38.814" stroke="#8c8c8c" stroke-width="0.3" stroke-dasharray="1.2,0.8"/>
<line x1="26.074" y1="83.582" x2="21.999" y2="73.744" stroke="#8c8c8c" stroke-width="0.3" stroke-dasharray="1.2,0.8"/>
<line x1="16.836" y1="64.432" x2="21.999" y2="73.744" stroke="#8c8c8c" stroke-width="0.3" stroke-dasharray="1.2,0.8"/>
<line x1="120.241" y1="64.652" x2="101.971" y2="57.084" stroke="#8c8c8c" stroke-width="0.3" stroke-dasharray="1.2,0.8"/>
<line x1="29.008" y1="93.818" x2="26.074" y2="83.582" stroke="#8c8c8c" stroke-width="0.3" stroke-dasharray="1.2,0.8"/>
<line x1="138.511" y1="57.084" x2="120.241" y2="64.652" stroke="#8c8c8c" stroke-width="0.3" stroke-dasharray="1.2,0.8"/>
<line x1="30.762" y1="104.321" x2="29.008" y2="93.818" stroke="#8c8c8c" stroke-width="0.3" stroke-dasharray="1.2,0.8"/>
<line x1="146.078" y1="38.814" x2="138.511" y2="57.084" stroke="#8c8c8c" stroke-width="0.3" stroke-dasharray="1.2,0.8"/>
<line x1="31.314" y1="114.954" x2="30.762" y2="104.321" stroke="#8c8c8c" stroke-width="0.3" stroke-dasharray="1.2,0.8"/>
<line x1="138.511" y1="20.544" x2="146.078" y2="38.814" stroke="#8c8c8c" stroke-width="0.3" stroke-dasharray="1.2,0.8"/>
<line x1="120.241" y1="12.976" x2="138.511" y2="20.544" stroke="#8c8c8c" stroke-width="0.3" stroke-dasharray="1.2,0.8"/>
<line x1="28.801" y1="136.067" x2="30.658" y2="125.582" stroke="#8c8c8c" stroke-width="0.3" stroke-dasharray="1.2,0.8"/>
<line x1="101.971" y1="20.544" x2="120.241" y2="12.976" stroke="#8c8c8c" stroke-width="0.3" stroke-dasharray="1.2,0.8"/>
<line x1="25.768" y1="146.274" x2="28.801" y2="136.067" stroke="#8c8c8c" stroke-width="0.3" stroke-dasharray="1.2,0.8"/>
<line x1="25.768" y1="146.274" x2="101.402" y2="173.513" stroke="#8c8c8c" stroke-width="0.3" stroke-dasharray="1.2,0.8"/>
<line x1="84.814" y1="21.52" x2="94.403" y2="38.814" stroke="#141414" stroke-width="0.4"/>
<line x1="5.0" y1="123.998" x2="5.656" y2="113.37" stroke="#141414" stroke-width="0.4"/>
<line x1="12.051" y1="131.977" x2="5.0" y2="123.998" stroke="#141414" stroke-width="0.4"/>
<line x1="101.971" y1="57.084" x2="107.419" y2="76.094" stroke="#141414" stroke-width="0.4"/>
<line x1="5.656" y1="113.37" x2="13.636" y2="106.319" stroke="#141414" stroke-width="0.4"/>
<line x1="107.419" y1="76.094" x2="110.677" y2="95.599" stroke="#141414" stroke-width="0.4"/>
<line x1="13.636" y1="106.319" x2="24.264" y2="106.975" stroke="#141414" stroke-width="0.4"/>
<line x1="110.677" y1="95.599" x2="111.703" y2="115.347" stroke="#141414" stroke-width="0.4"/>
<line x1="24.264" y1="106.975" x2="31.314" y2="114.954" stroke="#141414" stroke-width="0.4"/>
<line x1="111.703" y1="115.347" x2="110.484" y2="135.085" stroke="#141414" stroke-width="0.4"/>
<line x1="110.484" y1="135.085" x2="107.035" y2="154.557" stroke="#141414" stroke-width="0.4"/>
<line x1="30.658" y1="125.582" x2="22.679" y2="132.633" stroke="#141414" stroke-width="0.4"/>
<line x1="107.035" y1="154.557" x2="101.402" y2="173.513" stroke="#141414" stroke-width="0.4"/>
<line x1="22.679" y1="132.633" x2="12.051" y2="131.977" stroke="#141414" stroke-width="0.4"/>
<line x1="16.836" y1="64.432" x2="84.814" y2="21.52" stroke="#141414" stroke-width="0.4"/>
<line x1="94.403" y1="38.814" x2="91.115" y2="28.462" stroke="#141414" stroke-width="0.4"/>
<line x1="91.115" y1="28.462" x2="92.325" y2="25.539" stroke="#141414" stroke-width="0.4"/>
<line x1="92.325" y1="25.539" x2="101.971" y2="20.544" stroke="#141414" stroke-width="0.4"/>
<line x1="21.999" y1="73.744" x2="17.692" y2="77.257" stroke="#141414" stroke-width="0.4"/>
<line x1="17.692" y1="77.257" x2="20.544" y2="84.144" stroke="#141414" stroke-width="0.4"/>
<line x1="20.544" y1="84.144" x2="26.074" y2="83.582" stroke="#141414" stroke-width="0.4"/>
<line x1="21.999" y1="73.744" x2="16.569" y2="74.929" stroke="#141414" stroke-width="0.4"/>
<line x1="16.569" y1="74.929" x2="12.954" y2="68.411" stroke="#141414" stroke-width="0.4"/>
<line x1="12.954" y1="68.411" x2="16.836" y2="64.432" stroke="#141414" stroke-width="0.4"/>
<line x1="101.971" y1="57.084" x2="106.965" y2="66.73" stroke="#141414" stroke-width="0.4"/>
<line x1="106.965" y1="66.73" x2="109.889" y2="67.94" stroke="#141414" stroke-width="0.4"/>
<line x1="109.889" y1="67.94" x2="120.241" y2="64.652" stroke="#141414" stroke-width="0.4"/>
<line x1="26.074" y1="83.582" x2="21.396" y2="86.584" stroke="#141414" stroke-width="0.4"/>
<line x1="21.396" y1="86.584" x2="23.45" y2="93.749" stroke="#141414" stroke-width="0.4"/>
<line x1="23.45" y1="93.749" x2="29.008" y2="93.818" stroke="#141414" stroke-width="0.4"/>
<line x1="120.241" y1="64.652" x2="125.66" y2="69.984" stroke="#141414" stroke-width="0.4"/>
<line x1="125.66" y1="69.984" x2="138.449" y2="64.686" stroke="#141414" stroke-width="0.4"/>
<line x1="138.449" y1="64.686" x2="138.511" y2="57.084" stroke="#141414" stroke-width="0.4"/>
<line x1="29.008" y1="93.818" x2="24.02" y2="96.271" stroke="#141414" stroke-width="0.4"/>
<line x1="24.02" y1="96.271" x2="25.247" y2="103.622" stroke="#141414" stroke-width="0.4"/>
<line x1="25.247" y1="103.622" x2="30.762" y2="104.321" stroke="#141414" stroke-width="0.4"/>
<line x1="138.511" y1="57.084" x2="146.113" y2="57.022" stroke="#141414" stroke-width="0.4"/>
<line x1="146.113" y1="57.022" x2="151.41" y2="44.233" stroke="#141414" stroke-width="0.4"/>
<line x1="151.41" y1="44.233" x2="146.078" y2="38.814" stroke="#141414" stroke-width="0.4"/>
<line x1="30.762" y1="104.321" x2="26.627" y2="102.553" stroke="#141414" stroke-width="0.4"/>
<line x1="26.627" y1="102.553" x2="27.025" y2="110.21" stroke="#141414" stroke-width="0.4"/>
<line x1="27.025" y1="110.21" x2="31.314" y2="114.954" stroke="#141414" stroke-width="0.4"/>
<line x1="146.078" y1="38.814" x2="151.41" y2="33.395" stroke="#141414" stroke-width="0.4"/>
<line x1="151.41" y1="33.395" x2="146.113" y2="20.606" stroke="#141414" stroke-width="0.4"/>
<line x1="146.113" y1="20.606" x2="138.511" y2="20.544" stroke="#141414" stroke-width="0.4"/>
<line x1="138.511" y1="20.544" x2="138.449" y2="12.942" stroke="#141414" stroke-width="0.4"/>
<line x1="138.449" y1="12.942" x2="125.66" y2="7.644" stroke="#141414" stroke-width="0.4"/>
<line x1="125.66" y1="7.644" x2="120.241" y2="12.976" stroke="#141414" stroke-width="0.4"/>
<line x1="30.658" y1="125.582" x2="24.674" y2="129.052" stroke="#141414" stroke-width="0.4"/>
<line x1="24.674" y1="129.052" x2="24.154" y2="131.988" stroke="#141414" stroke-width="0.4"/>
<line x1="24.154" y1="131.988" x2="28.801" y2="136.067" stroke="#141414" stroke-width="0.4"/>
<line x1="120.241" y1="12.976" x2="114.822" y2="7.644" stroke="#141414" stroke-width="0.4"/>
<line x1="114.822" y1="7.644" x2="102.033" y2="12.942" stroke="#141414" stroke-width="0.4"/>
<line x1="102.033" y1="12.942" x2="101.971" y2="20.544" stroke="#141414" stroke-width="0.4"/>
<line x1="28.801" y1="136.067" x2="23.242" y2="136.082" stroke="#141414" stroke-width="0.4"/>
<line x1="23.242" y1="136.082" x2="21.119" y2="143.227" stroke="#141414" stroke-width="0.4"/>
<line x1="21.119" y1="143.227" x2="25.768" y2="146.274" stroke="#141414" stroke-width="0.4"/>
<line x1="101.402" y1="173.513" x2="87.685" y2="176.013" stroke="#141414" stroke-width="0.4"/>
<line x1="87.685" y1="176.013" x2="34.741" y2="156.946" stroke="#141414" stroke-width="0.4"/>
<line x1="34.741" y1="156.946" x2="25.768" y2="146.274" stroke="#141414" stroke-width="0.4"/>
<circle cx="94.954" cy="28.34" r="1.50" fill="#ffe082" stroke="#464646" stroke-width="0.2"/>
<text x="94.954" y="29.05" font-size="2.03" text-anchor="middle" fill="#141414">23</text>
<circle cx="21.577" cy="79.682" r="1.50" fill="#ffe082" stroke="#464646" stroke-width="0.2"/>
<text x="21.577" y="80.39" font-size="2.03" text-anchor="middle" fill="#141414">24</text>
<circle cx="17.089" cy="70.379" r="1.50" fill="#ffe082" stroke="#464646" stroke-width="0.2"/>
<text x="17.089" y="71.09" font-size="2.03" text-anchor="middle" fill="#141414">25</text>
<circle cx="109.766" cy="64.101" r="1.50" fill="#ffe082" stroke="#464646" stroke-width="0.2"/>
<text x="109.766" y="64.81" font-size="2.03" text-anchor="middle" fill="#141414">26</text>
<circle cx="24.982" cy="89.433" r="1.50" fill="#ffe082" stroke="#464646" stroke-width="0.2"/>
<text x="24.982" y="90.14" font-size="2.03" text-anchor="middle" fill="#141414">27</text>
<circle cx="130.715" cy="64.101" r="1.50" fill="#ffe082" stroke="#464646" stroke-width="0.2"/>
<text x="130.715" y="64.81" font-size="2.03" text-anchor="middle" fill="#141414">28</text>
<circle cx="27.259" cy="99.508" r="1.50" fill="#ffe082" stroke="#464646" stroke-width="0.2"/>
<text x="27.259" y="100.22" font-size="2.03" text-anchor="middle" fill="#141414">29</text>
<circle cx="145.528" cy="49.288" r="1.50" fill="#ffe082" stroke="#464646" stroke-width="0.2"/>
<text x="145.528" y="50.00" font-size="2.03" text-anchor="middle" fill="#141414">30</text>
<circle cx="28.932" cy="108.009" r="1.50" fill="#ffe082" stroke="#464646" stroke-width="0.2"/>
<text x="28.932" y="108.72" font-size="2.03" text-anchor="middle" fill="#141414">31</text>
<circle cx="145.528" cy="28.34" r="1.50" fill="#ffe082" stroke="#464646" stroke-width="0.2"/>
<text x="145.528" y="29.05" font-size="2.03" text-anchor="middle" fill="#141414">32</text>
<circle cx="130.715" cy="13.527" r="1.50" fill="#ffe082" stroke="#464646" stroke-width="0.2"/>
<text x="130.715" y="14.24" font-size="2.03" text-anchor="middle" fill="#141414">33</text>
<circle cx="27.072" cy="130.672" r="1.50" fill="#ffe082" stroke="#464646" stroke-width="0.2"/>
<text x="27.072" y="131.38" font-size="2.03" text-anchor="middle" fill="#141414">34</text>
<circle cx="109.766" cy="13.527" r="1.50" fill="#ffe082" stroke="#464646" stroke-width="0.2"/>
<text x="109.766" y="14.24" font-size="2.03" text-anchor="middle" fill="#141414">35</text>
<circle cx="24.733" cy="140.412" r="1.50" fill="#ffe082" stroke="#464646" stroke-width="0.2"/>
<text x="24.733" y="141.12" font-size="2.03" text-anchor="middle" fill="#141414">36</text>
<circle cx="62.399" cy="163.187" r="1.50" fill="#ffe082" stroke="#464646" stroke-width="0.2"/>
<text x="62.399" y="163.90" font-size="2.03" text-anchor="middle" fill="#141414">37</text>
<circle cx="78.205" cy="179.469" r="4.6" fill="#eaf1fe" stroke="#2e78e6" stroke-width="0.3"/>
<text x="78.205" y="181.269" font-size="5.2" text-anchor="middle" fill="#14306e" font-weight="bold">3</text>
<polygon points="25.869,231.113 24.179,236.744 16.296,236.744 14.606,231.113" fill="rgb(216,216,216)"/>
<polygon points="36.5,227.395 42.482,220.741 38.18,195.09 30.355,190.751" fill="rgb(216,216,216)"/>
<polygon points="29.586,241.744 34.634,245.945 38.886,244.458 40.217,238.027" fill="rgb(216,216,216)"/>
<polygon points="14.606,231.113 7.46,225.67 6.764,199.407 13.613,193.594" fill="rgb(216,216,216)"/>
<polygon points="22.225,193.594 24.218,188.335 25.519,187.88 30.355,190.751" fill="rgb(216,216,216)"/>
<polygon points="22.225,184.981 20.933,180.675 14.905,180.675 13.613,184.981" fill="rgb(216,216,216)"/>
<polygon points="13.613,193.594 9.306,192.302 9.306,186.273 13.613,184.981" fill="rgb(216,216,216)"/>
<line x1="36.5" y1="227.395" x2="25.869" y2="231.113" stroke="#8c8c8c" stroke-width="0.3" stroke-dasharray="1.2,0.8"/>
<line x1="22.225" y1="193.594" x2="25.869" y2="231.113" stroke="#8c8c8c" stroke-width="0.3" stroke-dasharray="1.2,0.8"/>
<line x1="36.5" y1="227.395" x2="40.217" y2="238.027" stroke="#8c8c8c" stroke-width="0.3" stroke-dasharray="1.2,0.8"/>
<line x1="40.217" y1="238.027" x2="75.45" y2="226.76" stroke="#8c8c8c" stroke-width="0.3" stroke-dasharray="1.2,0.8"/>
<line x1="13.613" y1="193.594" x2="22.225" y2="193.594" stroke="#8c8c8c" stroke-width="0.3" stroke-dasharray="1.2,0.8"/>
<line x1="14.606" y1="231.113" x2="25.869" y2="231.113" stroke="#8c8c8c" stroke-width="0.3" stroke-dasharray="1.2,0.8"/>
<line x1="30.355" y1="190.751" x2="36.5" y2="227.395" stroke="#8c8c8c" stroke-width="0.3" stroke-dasharray="1.2,0.8"/>
<line x1="40.217" y1="238.027" x2="29.586" y2="241.744" stroke="#8c8c8c" stroke-width="0.3" stroke-dasharray="1.2,0.8"/>
<line x1="13.613" y1="193.594" x2="14.606" y2="231.113" stroke="#8c8c8c" stroke-width="0.3" stroke-dasharray="1.2,0.8"/>
<line x1="30.355" y1="190.751" x2="22.225" y2="193.594" stroke="#8c8c8c" stroke-width="0.3" stroke-dasharray="1.2,0.8"/>
<line x1="13.613" y1="184.981" x2="22.225" y2="184.981" stroke="#8c8c8c" stroke-width="0.3" stroke-dasharray="1.2,0.8"/>
<line x1="13.613" y1="184.981" x2="13.613" y2="193.594" stroke="#8c8c8c" stroke-width="0.3" stroke-dasharray="1.2,0.8"/>
<line x1="29.586" y1="241.744" x2="25.869" y2="231.113" stroke="#141414" stroke-width="0.4"/>
<line x1="36.5" y1="227.395" x2="72.608" y2="218.631" stroke="#141414" stroke-width="0.4"/>
<line x1="41.773" y1="249.181" x2="40.217" y2="238.027" stroke="#141414" stroke-width="0.4"/>
<line x1="76.639" y1="235.29" x2="41.773" y2="249.181" stroke="#141414" stroke-width="0.4"/>
<line x1="22.225" y1="184.981" x2="22.225" y2="193.594" stroke="#141414" stroke-width="0.4"/>
<line x1="72.608" y1="218.631" x2="75.45" y2="226.76" stroke="#141414" stroke-width="0.4"/>
<line x1="75.45" y1="226.76" x2="76.639" y2="235.29" stroke="#141414" stroke-width="0.4"/>
<line x1="25.869" y1="231.113" x2="24.179" y2="236.744" stroke="#141414" stroke-width="0.4"/>
<line x1="24.179" y1="236.744" x2="16.296" y2="236.744" stroke="#141414" stroke-width="0.4"/>
<line x1="16.296" y1="236.744" x2="14.606" y2="231.113" stroke="#141414" stroke-width="0.4"/>
<line x1="36.5" y1="227.395" x2="42.482" y2="220.741" stroke="#141414" stroke-width="0.4"/>
<line x1="42.482" y1="220.741" x2="38.18" y2="195.09" stroke="#141414" stroke-width="0.4"/>
<line x1="38.18" y1="195.09" x2="30.355" y2="190.751" stroke="#141414" stroke-width="0.4"/>
<line x1="29.586" y1="241.744" x2="34.634" y2="245.945" stroke="#141414" stroke-width="0.4"/>
<line x1="34.634" y1="245.945" x2="38.886" y2="244.458" stroke="#141414" stroke-width="0.4"/>
<line x1="38.886" y1="244.458" x2="40.217" y2="238.027" stroke="#141414" stroke-width="0.4"/>
<line x1="14.606" y1="231.113" x2="7.46" y2="225.67" stroke="#141414" stroke-width="0.4"/>
<line x1="7.46" y1="225.67" x2="6.764" y2="199.407" stroke="#141414" stroke-width="0.4"/>
<line x1="6.764" y1="199.407" x2="13.613" y2="193.594" stroke="#141414" stroke-width="0.4"/>
<line x1="22.225" y1="193.594" x2="24.218" y2="188.335" stroke="#141414" stroke-width="0.4"/>
<line x1="24.218" y1="188.335" x2="25.519" y2="187.88" stroke="#141414" stroke-width="0.4"/>
<line x1="25.519" y1="187.88" x2="30.355" y2="190.751" stroke="#141414" stroke-width="0.4"/>
<line x1="22.225" y1="184.981" x2="20.933" y2="180.675" stroke="#141414" stroke-width="0.4"/>
<line x1="20.933" y1="180.675" x2="14.905" y2="180.675" stroke="#141414" stroke-width="0.4"/>
<line x1="14.905" y1="180.675" x2="13.613" y2="184.981" stroke="#141414" stroke-width="0.4"/>
<line x1="13.613" y1="193.594" x2="9.306" y2="192.302" stroke="#141414" stroke-width="0.4"/>
<line x1="9.306" y1="192.302" x2="9.306" y2="186.273" stroke="#141414" stroke-width="0.4"/>
<line x1="9.306" y1="186.273" x2="13.613" y2="184.981" stroke="#141414" stroke-width="0.4"/>
<circle cx="20.238" cy="233.928" r="1.50" fill="#ffe082" stroke="#464646" stroke-width="0.2"/>
<text x="20.238" y="234.64" font-size="2.03" text-anchor="middle" fill="#141414">49</text>
<circle cx="36.879" cy="208.494" r="1.50" fill="#ffe082" stroke="#464646" stroke-width="0.2"/>
<text x="36.879" y="209.20" font-size="2.03" text-anchor="middle" fill="#141414">50</text>
<circle cx="35.831" cy="242.543" r="1.50" fill="#ffe082" stroke="#464646" stroke-width="0.2"/>
<text x="35.831" y="243.25" font-size="2.03" text-anchor="middle" fill="#141414">51</text>
<circle cx="10.611" cy="212.446" r="1.50" fill="#ffe082" stroke="#464646" stroke-width="0.2"/>
<text x="10.611" y="213.16" font-size="2.03" text-anchor="middle" fill="#141414">52</text>
<circle cx="25.579" cy="190.14" r="1.50" fill="#ffe082" stroke="#464646" stroke-width="0.2"/>
<text x="25.579" y="190.85" font-size="2.03" text-anchor="middle" fill="#141414">53</text>
<circle cx="17.919" cy="182.828" r="1.50" fill="#ffe082" stroke="#464646" stroke-width="0.2"/>
<text x="17.919" y="183.54" font-size="2.03" text-anchor="middle" fill="#141414">54</text>
<circle cx="11.459" cy="189.287" r="1.50" fill="#ffe082" stroke="#464646" stroke-width="0.2"/>
<text x="11.459" y="190.00" font-size="2.03" text-anchor="middle" fill="#141414">55</text>
<circle cx="39.938" cy="170.269" r="4.6" fill="#eaf1fe" stroke="#2e78e6" stroke-width="0.3"/>
<text x="39.938" y="172.06900000000002" font-size="5.2" text-anchor="middle" fill="#14306e" font-weight="bold">6</text>
<polygon points="178.26,50.05 180.049,56.012 188.397,56.012 190.185,50.05" fill="rgb(216,216,216)"/>
<polygon points="178.26,33.488 180.049,27.525 188.397,27.525 190.185,33.488" fill="rgb(216,216,216)"/>
<polygon points="190.185,50.05 197.185,47.566 197.185,35.972 190.185,33.488" fill="rgb(216,216,216)"/>
<polygon points="178.26,61.975 176.471,67.937 168.124,67.937 166.335,61.975" fill="rgb(216,216,216)"/>
<polygon points="166.335,50.05 159.335,47.566 159.335,35.972 166.335,33.488" fill="rgb(216,216,216)"/>
<polygon points="166.335,50.05 160.373,51.839 160.373,60.186 166.335,61.975" fill="rgb(216,216,216)"/>
<polygon points="166.335,33.488 160.373,31.699 160.373,23.351 166.335,21.562" fill="rgb(216,216,216)"/>
<line x1="178.26" y1="50.05" x2="178.26" y2="33.487" stroke="#8c8c8c" stroke-width="0.3" stroke-dasharray="1.2,0.8"/>
<line x1="178.26" y1="50.05" x2="166.335" y2="50.05" stroke="#8c8c8c" stroke-width="0.3" stroke-dasharray="1.2,0.8"/>
<line x1="166.335" y1="33.487" x2="178.26" y2="33.487" stroke="#8c8c8c" stroke-width="0.3" stroke-dasharray="1.2,0.8"/>
<line x1="166.335" y1="21.562" x2="178.26" y2="21.562" stroke="#8c8c8c" stroke-width="0.3" stroke-dasharray="1.2,0.8"/>
<line x1="166.335" y1="21.562" x2="166.335" y2="5.0" stroke="#8c8c8c" stroke-width="0.3" stroke-dasharray="1.2,0.8"/>
<line x1="190.185" y1="50.05" x2="178.26" y2="50.05" stroke="#8c8c8c" stroke-width="0.3" stroke-dasharray="1.2,0.8"/>
<line x1="190.185" y1="33.488" x2="178.26" y2="33.488" stroke="#8c8c8c" stroke-width="0.3" stroke-dasharray="1.2,0.8"/>
<line x1="190.185" y1="33.488" x2="190.185" y2="50.05" stroke="#8c8c8c" stroke-width="0.3" stroke-dasharray="1.2,0.8"/>
<line x1="166.335" y1="61.975" x2="178.26" y2="61.975" stroke="#8c8c8c" stroke-width="0.3" stroke-dasharray="1.2,0.8"/>
<line x1="166.335" y1="33.488" x2="166.335" y2="50.05" stroke="#8c8c8c" stroke-width="0.3" stroke-dasharray="1.2,0.8"/>
<line x1="166.335" y1="61.975" x2="166.335" y2="50.05" stroke="#8c8c8c" stroke-width="0.3" stroke-dasharray="1.2,0.8"/>
<line x1="166.335" y1="21.562" x2="166.335" y2="33.488" stroke="#8c8c8c" stroke-width="0.3" stroke-dasharray="1.2,0.8"/>
<line x1="178.26" y1="50.05" x2="178.26" y2="61.975" stroke="#141414" stroke-width="0.4"/>
<line x1="178.26" y1="21.562" x2="178.26" y2="33.487" stroke="#141414" stroke-width="0.4"/>
<line x1="178.26" y1="5.0" x2="178.26" y2="21.562" stroke="#141414" stroke-width="0.4"/>
<line x1="178.26" y1="61.975" x2="166.335" y2="61.975" stroke="#141414" stroke-width="0.4"/>
<line x1="166.335" y1="5.0" x2="178.26" y2="5.0" stroke="#141414" stroke-width="0.4"/>
<line x1="166.335" y1="50.05" x2="166.335" y2="33.487" stroke="#141414" stroke-width="0.4"/>
<line x1="154.41" y1="21.562" x2="154.41" y2="5.0" stroke="#141414" stroke-width="0.4"/>
<line x1="166.335" y1="61.975" x2="166.335" y2="50.05" stroke="#141414" stroke-width="0.4"/>
<line x1="154.41" y1="5.0" x2="166.335" y2="5.0" stroke="#141414" stroke-width="0.4"/>
<line x1="166.335" y1="33.487" x2="166.335" y2="21.562" stroke="#141414" stroke-width="0.4"/>
<line x1="166.335" y1="21.562" x2="154.41" y2="21.562" stroke="#141414" stroke-width="0.4"/>
<line x1="178.26" y1="50.05" x2="180.049" y2="56.012" stroke="#141414" stroke-width="0.4"/>
<line x1="180.049" y1="56.012" x2="188.397" y2="56.012" stroke="#141414" stroke-width="0.4"/>
<line x1="188.397" y1="56.012" x2="190.185" y2="50.05" stroke="#141414" stroke-width="0.4"/>
<line x1="178.26" y1="33.488" x2="180.049" y2="27.525" stroke="#141414" stroke-width="0.4"/>
<line x1="180.049" y1="27.525" x2="188.397" y2="27.525" stroke="#141414" stroke-width="0.4"/>
<line x1="188.397" y1="27.525" x2="190.185" y2="33.488" stroke="#141414" stroke-width="0.4"/>
<line x1="190.185" y1="50.05" x2="197.185" y2="47.566" stroke="#141414" stroke-width="0.4"/>
<line x1="197.185" y1="47.566" x2="197.185" y2="35.972" stroke="#141414" stroke-width="0.4"/>
<line x1="197.185" y1="35.972" x2="190.185" y2="33.488" stroke="#141414" stroke-width="0.4"/>
<line x1="178.26" y1="61.975" x2="176.471" y2="67.937" stroke="#141414" stroke-width="0.4"/>
<line x1="176.471" y1="67.937" x2="168.124" y2="67.937" stroke="#141414" stroke-width="0.4"/>
<line x1="168.124" y1="67.937" x2="166.335" y2="61.975" stroke="#141414" stroke-width="0.4"/>
<line x1="166.335" y1="50.05" x2="159.335" y2="47.566" stroke="#141414" stroke-width="0.4"/>
<line x1="159.335" y1="47.566" x2="159.335" y2="35.972" stroke="#141414" stroke-width="0.4"/>
<line x1="159.335" y1="35.972" x2="166.335" y2="33.488" stroke="#141414" stroke-width="0.4"/>
<line x1="166.335" y1="50.05" x2="160.373" y2="51.839" stroke="#141414" stroke-width="0.4"/>
<line x1="160.373" y1="51.839" x2="160.373" y2="60.186" stroke="#141414" stroke-width="0.4"/>
<line x1="160.373" y1="60.186" x2="166.335" y2="61.975" stroke="#141414" stroke-width="0.4"/>
<line x1="166.335" y1="33.488" x2="160.373" y2="31.699" stroke="#141414" stroke-width="0.4"/>
<line x1="160.373" y1="31.699" x2="160.373" y2="23.351" stroke="#141414" stroke-width="0.4"/>
<line x1="160.373" y1="23.351" x2="166.335" y2="21.562" stroke="#141414" stroke-width="0.4"/>
<circle cx="184.223" cy="53.031" r="1.50" fill="#ffe082" stroke="#464646" stroke-width="0.2"/>
<text x="184.223" y="53.74" font-size="2.03" text-anchor="middle" fill="#141414">56</text>
<circle cx="184.223" cy="30.506" r="1.50" fill="#ffe082" stroke="#464646" stroke-width="0.2"/>
<text x="184.223" y="31.22" font-size="2.03" text-anchor="middle" fill="#141414">57</text>
<circle cx="193.685" cy="41.769" r="1.50" fill="#ffe082" stroke="#464646" stroke-width="0.2"/>
<text x="193.685" y="42.48" font-size="2.03" text-anchor="middle" fill="#141414">58</text>
<circle cx="172.298" cy="64.956" r="1.50" fill="#ffe082" stroke="#464646" stroke-width="0.2"/>
<text x="172.298" y="65.67" font-size="2.03" text-anchor="middle" fill="#141414">59</text>
<circle cx="162.835" cy="41.769" r="1.50" fill="#ffe082" stroke="#464646" stroke-width="0.2"/>
<text x="162.835" y="42.48" font-size="2.03" text-anchor="middle" fill="#141414">60</text>
<circle cx="163.354" cy="56.012" r="1.50" fill="#ffe082" stroke="#464646" stroke-width="0.2"/>
<text x="163.354" y="56.72" font-size="2.03" text-anchor="middle" fill="#141414">61</text>
<circle cx="163.354" cy="27.525" r="1.50" fill="#ffe082" stroke="#464646" stroke-width="0.2"/>
<text x="163.354" y="28.24" font-size="2.03" text-anchor="middle" fill="#141414">62</text>
<circle cx="175.798" cy="74.037" r="4.6" fill="#eaf1fe" stroke="#2e78e6" stroke-width="0.3"/>
<text x="175.798" y="75.837" font-size="5.2" text-anchor="middle" fill="#14306e" font-weight="bold">7</text>
<polygon points="91.788,226.718 84.832,228.805 84.832,238.544 91.788,240.631" fill="rgb(216,216,216)"/>
<polygon points="91.788,208.5 84.832,206.413 84.832,196.674 91.788,194.587" fill="rgb(216,216,216)"/>
<polygon points="97.088,226.718 104.088,223.986 104.088,211.233 97.088,208.5" fill="rgb(216,216,216)"/>
<polygon points="97.088,226.718 104.044,228.805 104.044,238.544 97.088,240.631" fill="rgb(216,216,216)"/>
<polygon points="97.088,208.5 104.044,206.413 104.044,196.674 97.088,194.587" fill="rgb(216,216,216)"/>
<polygon points="91.788,176.369 84.788,179.101 84.788,191.854 91.788,194.587" fill="rgb(216,216,216)"/>
<polygon points="91.788,240.631 92.583,244.031 96.293,244.031 97.088,240.631" fill="rgb(216,216,216)"/>
<line x1="91.788" y1="226.719" x2="91.788" y2="208.5" stroke="#8c8c8c" stroke-width="0.3" stroke-dasharray="1.2,0.8"/>
<line x1="97.088" y1="226.719" x2="91.788" y2="226.719" stroke="#8c8c8c" stroke-width="0.3" stroke-dasharray="1.2,0.8"/>
<line x1="91.788" y1="208.5" x2="97.088" y2="208.5" stroke="#8c8c8c" stroke-width="0.3" stroke-dasharray="1.2,0.8"/>
<line x1="91.788" y1="194.587" x2="97.088" y2="194.587" stroke="#8c8c8c" stroke-width="0.3" stroke-dasharray="1.2,0.8"/>
<line x1="97.088" y1="194.587" x2="97.088" y2="176.369" stroke="#8c8c8c" stroke-width="0.3" stroke-dasharray="1.2,0.8"/>
<line x1="91.788" y1="240.631" x2="91.788" y2="226.718" stroke="#8c8c8c" stroke-width="0.3" stroke-dasharray="1.2,0.8"/>
<line x1="91.788" y1="194.587" x2="91.788" y2="208.5" stroke="#8c8c8c" stroke-width="0.3" stroke-dasharray="1.2,0.8"/>
<line x1="97.088" y1="208.5" x2="97.088" y2="226.718" stroke="#8c8c8c" stroke-width="0.3" stroke-dasharray="1.2,0.8"/>
<line x1="97.088" y1="240.631" x2="97.088" y2="226.718" stroke="#8c8c8c" stroke-width="0.3" stroke-dasharray="1.2,0.8"/>
<line x1="97.088" y1="194.587" x2="97.088" y2="208.5" stroke="#8c8c8c" stroke-width="0.3" stroke-dasharray="1.2,0.8"/>
<line x1="91.788" y1="194.587" x2="91.788" y2="176.369" stroke="#8c8c8c" stroke-width="0.3" stroke-dasharray="1.2,0.8"/>
<line x1="97.088" y1="240.631" x2="91.788" y2="240.631" stroke="#8c8c8c" stroke-width="0.3" stroke-dasharray="1.2,0.8"/>
<line x1="91.788" y1="226.719" x2="77.875" y2="226.719" stroke="#141414" stroke-width="0.4"/>
<line x1="77.875" y1="208.5" x2="91.788" y2="208.5" stroke="#141414" stroke-width="0.4"/>
<line x1="111.001" y1="176.369" x2="111.001" y2="194.587" stroke="#141414" stroke-width="0.4"/>
<line x1="97.088" y1="176.369" x2="111.001" y2="176.369" stroke="#141414" stroke-width="0.4"/>
<line x1="111.001" y1="194.587" x2="97.088" y2="194.587" stroke="#141414" stroke-width="0.4"/>
<line x1="77.875" y1="226.719" x2="77.875" y2="208.5" stroke="#141414" stroke-width="0.4"/>
<line x1="91.788" y1="176.369" x2="97.088" y2="176.369" stroke="#141414" stroke-width="0.4"/>
<line x1="91.788" y1="226.718" x2="84.832" y2="228.805" stroke="#141414" stroke-width="0.4"/>
<line x1="84.832" y1="228.805" x2="84.832" y2="238.544" stroke="#141414" stroke-width="0.4"/>
<line x1="84.832" y1="238.544" x2="91.788" y2="240.631" stroke="#141414" stroke-width="0.4"/>
<line x1="91.788" y1="208.5" x2="84.832" y2="206.413" stroke="#141414" stroke-width="0.4"/>
<line x1="84.832" y1="206.413" x2="84.832" y2="196.674" stroke="#141414" stroke-width="0.4"/>
<line x1="84.832" y1="196.674" x2="91.788" y2="194.587" stroke="#141414" stroke-width="0.4"/>
<line x1="97.088" y1="226.718" x2="104.088" y2="223.986" stroke="#141414" stroke-width="0.4"/>
<line x1="104.088" y1="223.986" x2="104.088" y2="211.233" stroke="#141414" stroke-width="0.4"/>
<line x1="104.088" y1="211.233" x2="97.088" y2="208.5" stroke="#141414" stroke-width="0.4"/>
<line x1="97.088" y1="226.718" x2="104.044" y2="228.805" stroke="#141414" stroke-width="0.4"/>
<line x1="104.044" y1="228.805" x2="104.044" y2="238.544" stroke="#141414" stroke-width="0.4"/>
<line x1="104.044" y1="238.544" x2="97.088" y2="240.631" stroke="#141414" stroke-width="0.4"/>
<line x1="97.088" y1="208.5" x2="104.044" y2="206.413" stroke="#141414" stroke-width="0.4"/>
<line x1="104.044" y1="206.413" x2="104.044" y2="196.674" stroke="#141414" stroke-width="0.4"/>
<line x1="104.044" y1="196.674" x2="97.088" y2="194.587" stroke="#141414" stroke-width="0.4"/>
<line x1="91.788" y1="176.369" x2="84.788" y2="179.101" stroke="#141414" stroke-width="0.4"/>
<line x1="84.788" y1="179.101" x2="84.788" y2="191.854" stroke="#141414" stroke-width="0.4"/>
<line x1="84.788" y1="191.854" x2="91.788" y2="194.587" stroke="#141414" stroke-width="0.4"/>
<line x1="91.788" y1="240.631" x2="92.583" y2="244.031" stroke="#141414" stroke-width="0.4"/>
<line x1="92.583" y1="244.031" x2="96.293" y2="244.031" stroke="#141414" stroke-width="0.4"/>
<line x1="96.293" y1="244.031" x2="97.088" y2="240.631" stroke="#141414" stroke-width="0.4"/>
<circle cx="88.31" cy="233.675" r="1.50" fill="#ffe082" stroke="#464646" stroke-width="0.2"/>
<text x="88.31" y="234.39" font-size="2.03" text-anchor="middle" fill="#141414">70</text>
<circle cx="88.31" cy="201.544" r="1.50" fill="#ffe082" stroke="#464646" stroke-width="0.2"/>
<text x="88.31" y="202.25" font-size="2.03" text-anchor="middle" fill="#141414">71</text>
<circle cx="100.588" cy="217.609" r="1.50" fill="#ffe082" stroke="#464646" stroke-width="0.2"/>
<text x="100.588" y="218.32" font-size="2.03" text-anchor="middle" fill="#141414">72</text>
<circle cx="100.566" cy="233.675" r="1.50" fill="#ffe082" stroke="#464646" stroke-width="0.2"/>
<text x="100.566" y="234.39" font-size="2.03" text-anchor="middle" fill="#141414">73</text>
<circle cx="100.566" cy="201.544" r="1.50" fill="#ffe082" stroke="#464646" stroke-width="0.2"/>
<text x="100.566" y="202.25" font-size="2.03" text-anchor="middle" fill="#141414">74</text>
<circle cx="88.288" cy="185.478" r="1.50" fill="#ffe082" stroke="#464646" stroke-width="0.2"/>
<text x="88.288" y="186.19" font-size="2.03" text-anchor="middle" fill="#141414">75</text>
<circle cx="94.438" cy="242.331" r="1.50" fill="#ffe082" stroke="#464646" stroke-width="0.2"/>
<text x="94.438" y="243.04" font-size="2.03" text-anchor="middle" fill="#141414">76</text>
<circle cx="94.438" cy="170.269" r="4.6" fill="#eaf1fe" stroke="#2e78e6" stroke-width="0.3"/>
<text x="94.438" y="172.06900000000002" font-size="5.2" text-anchor="middle" fill="#14306e" font-weight="bold">9</text>
<g pointer-events="none"><text x="105.0" y="89.1" text-anchor="middle" font-family="sans-serif" font-size="21.2" fill="#9aa0a6" fill-opacity="0.33" transform="rotate(-28 105.0 89.1)">papercraft.kr 미리보기</text><text x="105.0" y="163.4" text-anchor="middle" font-family="sans-serif" font-size="21.2" fill="#9aa0a6" fill-opacity="0.33" transform="rotate(-28 105.0 163.4)">papercraft.kr 미리보기</text><text x="105.0" y="237.6" text-anchor="middle" font-family="sans-serif" font-size="21.2" fill="#9aa0a6" fill-opacity="0.33" transform="rotate(-28 105.0 237.6)">papercraft.kr 미리보기</text></g></svg>
