<svg xmlns="http://www.w3.org/2000/svg" xmlns:xlink="http://www.w3.org/1999/xlink" width="210.00mm" height="297.00mm" viewBox="0 0 210.00 297.00">
<rect x="0" y="0" width="210.00" height="297.00" fill="#ffffff" stroke="#cccccc" stroke-width="0.2"/>
<polygon points="95.384,98.47 101.548,88.608 101.924,84.664 97.735,73.815" fill="rgb(216,216,216)"/>
<polygon points="61.52,134.414 63.997,123.052 66.483,119.966 77.059,115.13" fill="rgb(216,216,216)"/>
<polygon points="61.52,134.414 69.845,142.534 73.619,143.74 85.11,141.954" fill="rgb(216,216,216)"/>
<polygon points="56.387,128.768 51.915,133.334 34.786,130.663 31.916,124.953" fill="rgb(216,216,216)"/>
<polygon points="172.542,229.985 163.066,236.726 159.151,237.336 148.072,233.801" fill="rgb(216,216,216)"/>
<polygon points="172.542,229.985 175.188,224.168 166.52,209.154 160.16,208.537" fill="rgb(216,216,216)"/>
<polygon points="172.542,237.616 175.188,243.433 166.52,258.447 160.16,259.064" fill="rgb(216,216,216)"/>
<polygon points="164.759,42.567 153.68,39.032 149.765,39.642 140.288,46.382" fill="rgb(216,216,216)"/>
<polygon points="164.759,42.567 169.05,47.303 165.364,64.242 159.493,66.767" fill="rgb(216,216,216)"/>
<polygon points="123.306,233.801 112.112,236.95 109.18,239.616 104.981,250.461" fill="rgb(216,216,216)"/>
<polygon points="144.62,189.253 151.0,188.883 161.878,202.382 160.16,208.537" fill="rgb(216,216,216)"/>
<polygon points="137.503,186.501 140.372,197.771 139.53,201.643 132.237,210.701" fill="rgb(216,216,216)"/>
<polygon points="172.542,143.017 169.673,148.727 152.544,151.398 148.072,146.832" fill="rgb(216,216,216)"/>
<polygon points="172.542,143.017 171.845,131.409 169.864,127.977 160.16,121.569" fill="rgb(216,216,216)"/>
<polygon points="116.698,143.017 106.994,136.609 105.012,133.177 104.315,121.569" fill="rgb(216,216,216)"/>
<polygon points="123.306,146.832 127.021,152.032 144.357,152.032 148.072,146.832" fill="rgb(216,216,216)"/>
<polygon points="116.698,143.017 127.273,138.18 129.76,135.095 132.237,123.733" fill="rgb(216,216,216)"/>
<polygon points="144.62,278.348 151.0,278.718 161.878,265.219 160.16,259.064" fill="rgb(216,216,216)"/>
<polygon points="144.62,278.348 134.916,271.94 132.935,268.508 132.237,256.9" fill="rgb(216,216,216)"/>
<polygon points="46.32,24.101 41.749,34.793 41.985,38.749 47.795,48.823" fill="rgb(216,216,216)"/>
<polygon points="137.503,281.1 133.031,285.666 115.902,282.995 113.033,277.285" fill="rgb(216,216,216)"/>
<polygon points="46.32,24.101 51.442,20.278 67.955,25.556 69.911,31.64" fill="rgb(216,216,216)"/>
<polygon points="49.646,79.846 61.137,78.06 64.911,79.266 73.236,87.386" fill="rgb(216,216,216)"/>
<polygon points="49.646,79.846 45.075,90.539 45.31,94.495 51.121,104.568" fill="rgb(216,216,216)"/>
<polygon points="42.19,81.469 35.943,80.12 23.116,91.782 23.865,98.129" fill="rgb(216,216,216)"/>
<polygon points="8.326,117.413 10.281,123.497 26.794,128.775 31.916,124.953" fill="rgb(216,216,216)"/>
<polygon points="89.442,269.745 87.724,263.59 98.602,250.091 104.981,250.461" fill="rgb(216,216,216)"/>
<polygon points="89.442,269.745 91.398,275.829 107.911,281.107 113.033,277.285" fill="rgb(216,216,216)"/>
<polygon points="8.326,117.413 6.608,111.258 17.485,97.759 23.865,98.129" fill="rgb(216,216,216)"/>
<polygon points="77.568,252.424 72.599,248.406 73.631,231.101 79.043,227.702" fill="rgb(216,216,216)"/>
<polygon points="81.658,186.501 71.954,180.093 69.973,176.661 69.275,165.053" fill="rgb(216,216,216)"/>
<polygon points="89.442,197.856 91.92,209.218 94.406,212.304 104.981,217.14" fill="rgb(216,216,216)"/>
<polygon points="89.442,197.856 97.767,189.736 101.541,188.53 113.033,190.317" fill="rgb(216,216,216)"/>
<polygon points="81.658,186.501 92.234,181.665 94.72,178.579 97.198,167.217" fill="rgb(216,216,216)"/>
<polygon points="84.309,203.502 78.438,206.026 74.752,222.966 79.043,227.702" fill="rgb(216,216,216)"/>
<polygon points="96.26,49.093 101.672,52.492 102.704,69.797 97.735,73.815" fill="rgb(216,216,216)"/>
<polygon points="92.058,42.724 91.063,36.411 75.56,28.652 69.911,31.64" fill="rgb(216,216,216)"/>
<polygon points="96.26,49.093 84.638,48.685 81.034,50.332 73.733,59.384" fill="rgb(216,216,216)"/>
<polygon points="144.62,102.285 135.144,95.544 131.228,94.934 120.15,98.47" fill="rgb(216,216,216)"/>
<polygon points="150.562,89.866 156.751,88.277 163.003,72.107 159.493,66.767" fill="rgb(216,216,216)"/>
<polygon points="144.62,94.654 143.923,83.046 141.941,79.614 132.237,73.206" fill="rgb(216,216,216)"/>
<polygon points="46.32,24.101 41.749,34.793 41.985,38.749 47.795,48.823" fill="#99d9fa"/>
<line x1="77.059" y1="115.13" x2="95.384" y2="98.469" stroke="#8c8c8c" stroke-width="0.3" stroke-dasharray="1.2,0.8"/>
<line x1="104.315" y1="121.569" x2="95.384" y2="98.469" stroke="#8c8c8c" stroke-width="0.3" stroke-dasharray="1.2,0.8"/>
<line x1="73.236" y1="87.386" x2="95.384" y2="98.469" stroke="#8c8c8c" stroke-width="0.3" stroke-dasharray="1.2,0.8"/>
<line x1="95.384" y1="98.469" x2="120.15" y2="98.469" stroke="#8c8c8c" stroke-width="0.3" stroke-dasharray="1.2,0.8"/>
<line x1="56.386" y1="128.768" x2="51.121" y2="104.568" stroke="#8c8c8c" stroke-width="0.3" stroke-dasharray="1.2,0.8"/>
<line x1="69.275" y1="165.053" x2="60.344" y2="141.953" stroke="#8c8c8c" stroke-width="0.3" stroke-dasharray="1.2,0.8"/>
<line x1="148.072" y1="233.801" x2="123.306" y2="233.801" stroke="#8c8c8c" stroke-width="0.3" stroke-dasharray="1.2,0.8"/>
<line x1="132.237" y1="210.701" x2="123.306" y2="233.801" stroke="#8c8c8c" stroke-width="0.3" stroke-dasharray="1.2,0.8"/>
<line x1="132.237" y1="256.9" x2="123.306" y2="233.801" stroke="#8c8c8c" stroke-width="0.3" stroke-dasharray="1.2,0.8"/>
<line x1="123.306" y1="233.801" x2="104.981" y2="217.14" stroke="#8c8c8c" stroke-width="0.3" stroke-dasharray="1.2,0.8"/>
<line x1="113.032" y1="190.316" x2="137.503" y2="186.501" stroke="#8c8c8c" stroke-width="0.3" stroke-dasharray="1.2,0.8"/>
<line x1="109.581" y1="145.769" x2="85.11" y2="141.953" stroke="#8c8c8c" stroke-width="0.3" stroke-dasharray="1.2,0.8"/>
<line x1="109.581" y1="145.769" x2="97.198" y2="167.217" stroke="#8c8c8c" stroke-width="0.3" stroke-dasharray="1.2,0.8"/>
<line x1="53.061" y1="73.022" x2="47.795" y2="48.823" stroke="#8c8c8c" stroke-width="0.3" stroke-dasharray="1.2,0.8"/>
<line x1="53.061" y1="73.022" x2="73.733" y2="59.384" stroke="#8c8c8c" stroke-width="0.3" stroke-dasharray="1.2,0.8"/>
<line x1="116.698" y1="53.922" x2="140.288" y2="46.382" stroke="#8c8c8c" stroke-width="0.3" stroke-dasharray="1.2,0.8"/>
<line x1="116.698" y1="53.922" x2="132.237" y2="73.206" stroke="#8c8c8c" stroke-width="0.3" stroke-dasharray="1.2,0.8"/>
<line x1="144.62" y1="102.285" x2="160.16" y2="121.569" stroke="#8c8c8c" stroke-width="0.3" stroke-dasharray="1.2,0.8"/>
<line x1="144.62" y1="102.285" x2="132.237" y2="123.733" stroke="#8c8c8c" stroke-width="0.3" stroke-dasharray="1.2,0.8"/>
<line x1="104.315" y1="121.569" x2="77.059" y2="115.13" stroke="#8c8c8c" stroke-width="0.3" stroke-dasharray="1.2,0.8"/>
<line x1="77.059" y1="115.13" x2="85.11" y2="141.953" stroke="#8c8c8c" stroke-width="0.3" stroke-dasharray="1.2,0.8"/>
<line x1="77.059" y1="115.13" x2="73.236" y2="87.386" stroke="#8c8c8c" stroke-width="0.3" stroke-dasharray="1.2,0.8"/>
<line x1="51.121" y1="104.568" x2="77.059" y2="115.13" stroke="#8c8c8c" stroke-width="0.3" stroke-dasharray="1.2,0.8"/>
<line x1="148.072" y1="233.801" x2="160.16" y2="208.537" stroke="#8c8c8c" stroke-width="0.3" stroke-dasharray="1.2,0.8"/>
<line x1="132.237" y1="210.701" x2="148.072" y2="233.801" stroke="#8c8c8c" stroke-width="0.3" stroke-dasharray="1.2,0.8"/>
<line x1="160.16" y1="259.064" x2="148.072" y2="233.801" stroke="#8c8c8c" stroke-width="0.3" stroke-dasharray="1.2,0.8"/>
<line x1="148.072" y1="233.801" x2="132.237" y2="256.9" stroke="#8c8c8c" stroke-width="0.3" stroke-dasharray="1.2,0.8"/>
<line x1="160.16" y1="208.537" x2="132.237" y2="210.701" stroke="#8c8c8c" stroke-width="0.3" stroke-dasharray="1.2,0.8"/>
<line x1="187.415" y1="115.13" x2="168.211" y2="94.745" stroke="#8c8c8c" stroke-width="0.3" stroke-dasharray="1.2,0.8"/>
<line x1="160.16" y1="121.569" x2="187.415" y2="115.13" stroke="#8c8c8c" stroke-width="0.3" stroke-dasharray="1.2,0.8"/>
<line x1="104.981" y1="217.14" x2="132.237" y2="210.701" stroke="#8c8c8c" stroke-width="0.3" stroke-dasharray="1.2,0.8"/>
<line x1="132.237" y1="210.701" x2="113.032" y2="190.316" stroke="#8c8c8c" stroke-width="0.3" stroke-dasharray="1.2,0.8"/>
<line x1="85.11" y1="141.953" x2="104.315" y2="121.569" stroke="#8c8c8c" stroke-width="0.3" stroke-dasharray="1.2,0.8"/>
<line x1="120.15" y1="98.469" x2="104.315" y2="121.569" stroke="#8c8c8c" stroke-width="0.3" stroke-dasharray="1.2,0.8"/>
<line x1="104.315" y1="121.569" x2="132.237" y2="123.733" stroke="#8c8c8c" stroke-width="0.3" stroke-dasharray="1.2,0.8"/>
<line x1="85.11" y1="141.953" x2="69.275" y2="165.053" stroke="#8c8c8c" stroke-width="0.3" stroke-dasharray="1.2,0.8"/>
<line x1="97.198" y1="167.217" x2="85.11" y2="141.953" stroke="#8c8c8c" stroke-width="0.3" stroke-dasharray="1.2,0.8"/>
<line x1="113.032" y1="190.316" x2="125.12" y2="165.053" stroke="#8c8c8c" stroke-width="0.3" stroke-dasharray="1.2,0.8"/>
<line x1="125.12" y1="165.053" x2="97.198" y2="167.217" stroke="#8c8c8c" stroke-width="0.3" stroke-dasharray="1.2,0.8"/>
<line x1="148.072" y1="146.833" x2="160.16" y2="121.569" stroke="#8c8c8c" stroke-width="0.3" stroke-dasharray="1.2,0.8"/>
<line x1="132.237" y1="123.733" x2="148.072" y2="146.833" stroke="#8c8c8c" stroke-width="0.3" stroke-dasharray="1.2,0.8"/>
<line x1="132.237" y1="256.9" x2="160.16" y2="259.064" stroke="#8c8c8c" stroke-width="0.3" stroke-dasharray="1.2,0.8"/>
<line x1="140.288" y1="46.382" x2="144.111" y2="18.638" stroke="#8c8c8c" stroke-width="0.3" stroke-dasharray="1.2,0.8"/>
<line x1="144.111" y1="18.638" x2="118.173" y2="29.2" stroke="#8c8c8c" stroke-width="0.3" stroke-dasharray="1.2,0.8"/>
<line x1="132.237" y1="256.9" x2="104.981" y2="250.461" stroke="#8c8c8c" stroke-width="0.3" stroke-dasharray="1.2,0.8"/>
<line x1="113.032" y1="277.285" x2="132.237" y2="256.9" stroke="#8c8c8c" stroke-width="0.3" stroke-dasharray="1.2,0.8"/>
<line x1="73.236" y1="87.386" x2="51.121" y2="104.568" stroke="#8c8c8c" stroke-width="0.3" stroke-dasharray="1.2,0.8"/>
<line x1="73.236" y1="87.386" x2="97.735" y2="73.815" stroke="#8c8c8c" stroke-width="0.3" stroke-dasharray="1.2,0.8"/>
<line x1="73.733" y1="59.384" x2="73.236" y2="87.386" stroke="#8c8c8c" stroke-width="0.3" stroke-dasharray="1.2,0.8"/>
<line x1="31.916" y1="124.953" x2="51.121" y2="104.568" stroke="#8c8c8c" stroke-width="0.3" stroke-dasharray="1.2,0.8"/>
<line x1="51.121" y1="104.568" x2="23.865" y2="98.129" stroke="#8c8c8c" stroke-width="0.3" stroke-dasharray="1.2,0.8"/>
<line x1="47.795" y1="48.823" x2="20.539" y2="42.383" stroke="#8c8c8c" stroke-width="0.3" stroke-dasharray="1.2,0.8"/>
<line x1="28.59" y1="69.207" x2="47.795" y2="48.823" stroke="#8c8c8c" stroke-width="0.3" stroke-dasharray="1.2,0.8"/>
<line x1="69.911" y1="31.64" x2="47.795" y2="48.823" stroke="#8c8c8c" stroke-width="0.3" stroke-dasharray="1.2,0.8"/>
<line x1="47.795" y1="48.823" x2="73.733" y2="59.384" stroke="#8c8c8c" stroke-width="0.3" stroke-dasharray="1.2,0.8"/>
<line x1="23.865" y1="98.129" x2="31.916" y2="124.953" stroke="#8c8c8c" stroke-width="0.3" stroke-dasharray="1.2,0.8"/>
<line x1="69.275" y1="165.053" x2="42.02" y2="158.614" stroke="#8c8c8c" stroke-width="0.3" stroke-dasharray="1.2,0.8"/>
<line x1="42.02" y1="158.614" x2="50.071" y2="185.438" stroke="#8c8c8c" stroke-width="0.3" stroke-dasharray="1.2,0.8"/>
<line x1="104.981" y1="250.461" x2="113.032" y2="277.285" stroke="#8c8c8c" stroke-width="0.3" stroke-dasharray="1.2,0.8"/>
<line x1="101.159" y1="244.884" x2="104.981" y2="217.14" stroke="#8c8c8c" stroke-width="0.3" stroke-dasharray="1.2,0.8"/>
<line x1="79.043" y1="227.702" x2="101.159" y2="244.884" stroke="#8c8c8c" stroke-width="0.3" stroke-dasharray="1.2,0.8"/>
<line x1="20.539" y1="42.383" x2="28.59" y2="69.207" stroke="#8c8c8c" stroke-width="0.3" stroke-dasharray="1.2,0.8"/>
<line x1="69.275" y1="165.053" x2="97.198" y2="167.217" stroke="#8c8c8c" stroke-width="0.3" stroke-dasharray="1.2,0.8"/>
<line x1="50.071" y1="185.438" x2="69.275" y2="165.053" stroke="#8c8c8c" stroke-width="0.3" stroke-dasharray="1.2,0.8"/>
<line x1="113.032" y1="190.316" x2="104.981" y2="217.14" stroke="#8c8c8c" stroke-width="0.3" stroke-dasharray="1.2,0.8"/>
<line x1="104.981" y1="217.14" x2="79.043" y2="227.702" stroke="#8c8c8c" stroke-width="0.3" stroke-dasharray="1.2,0.8"/>
<line x1="97.198" y1="167.217" x2="113.032" y2="190.316" stroke="#8c8c8c" stroke-width="0.3" stroke-dasharray="1.2,0.8"/>
<line x1="97.735" y1="73.815" x2="73.733" y2="59.384" stroke="#8c8c8c" stroke-width="0.3" stroke-dasharray="1.2,0.8"/>
<line x1="104.315" y1="75.37" x2="120.15" y2="98.469" stroke="#8c8c8c" stroke-width="0.3" stroke-dasharray="1.2,0.8"/>
<line x1="132.237" y1="73.206" x2="104.315" y2="75.37" stroke="#8c8c8c" stroke-width="0.3" stroke-dasharray="1.2,0.8"/>
<line x1="118.173" y1="29.2" x2="140.288" y2="46.382" stroke="#8c8c8c" stroke-width="0.3" stroke-dasharray="1.2,0.8"/>
<line x1="159.493" y1="66.767" x2="140.288" y2="46.382" stroke="#8c8c8c" stroke-width="0.3" stroke-dasharray="1.2,0.8"/>
<line x1="140.288" y1="46.382" x2="132.237" y2="73.206" stroke="#8c8c8c" stroke-width="0.3" stroke-dasharray="1.2,0.8"/>
<line x1="73.733" y1="59.384" x2="69.911" y2="31.64" stroke="#8c8c8c" stroke-width="0.3" stroke-dasharray="1.2,0.8"/>
<line x1="132.237" y1="123.733" x2="120.15" y2="98.469" stroke="#8c8c8c" stroke-width="0.3" stroke-dasharray="1.2,0.8"/>
<line x1="120.15" y1="98.469" x2="132.237" y2="73.206" stroke="#8c8c8c" stroke-width="0.3" stroke-dasharray="1.2,0.8"/>
<line x1="168.211" y1="94.745" x2="160.16" y2="121.569" stroke="#8c8c8c" stroke-width="0.3" stroke-dasharray="1.2,0.8"/>
<line x1="132.237" y1="73.206" x2="159.493" y2="66.767" stroke="#8c8c8c" stroke-width="0.3" stroke-dasharray="1.2,0.8"/>
<line x1="160.16" y1="121.569" x2="132.237" y2="123.733" stroke="#8c8c8c" stroke-width="0.3" stroke-dasharray="1.2,0.8"/>
<line x1="97.735" y1="73.815" x2="95.384" y2="98.47" stroke="#8c8c8c" stroke-width="0.3" stroke-dasharray="1.2,0.8"/>
<line x1="77.059" y1="115.13" x2="61.52" y2="134.414" stroke="#8c8c8c" stroke-width="0.3" stroke-dasharray="1.2,0.8"/>
<line x1="85.11" y1="141.954" x2="61.52" y2="134.414" stroke="#8c8c8c" stroke-width="0.3" stroke-dasharray="1.2,0.8"/>
<line x1="31.916" y1="124.953" x2="56.387" y2="128.768" stroke="#8c8c8c" stroke-width="0.3" stroke-dasharray="1.2,0.8"/>
<line x1="148.072" y1="233.801" x2="172.542" y2="229.985" stroke="#8c8c8c" stroke-width="0.3" stroke-dasharray="1.2,0.8"/>
<line x1="160.16" y1="208.537" x2="172.542" y2="229.985" stroke="#8c8c8c" stroke-width="0.3" stroke-dasharray="1.2,0.8"/>
<line x1="160.16" y1="259.064" x2="172.542" y2="237.616" stroke="#8c8c8c" stroke-width="0.3" stroke-dasharray="1.2,0.8"/>
<line x1="140.288" y1="46.382" x2="164.759" y2="42.567" stroke="#8c8c8c" stroke-width="0.3" stroke-dasharray="1.2,0.8"/>
<line x1="159.493" y1="66.767" x2="164.759" y2="42.567" stroke="#8c8c8c" stroke-width="0.3" stroke-dasharray="1.2,0.8"/>
<line x1="104.981" y1="250.461" x2="123.306" y2="233.801" stroke="#8c8c8c" stroke-width="0.3" stroke-dasharray="1.2,0.8"/>
<line x1="160.16" y1="208.537" x2="144.62" y2="189.253" stroke="#8c8c8c" stroke-width="0.3" stroke-dasharray="1.2,0.8"/>
<line x1="132.237" y1="210.701" x2="137.503" y2="186.501" stroke="#8c8c8c" stroke-width="0.3" stroke-dasharray="1.2,0.8"/>
<line x1="148.072" y1="146.832" x2="172.542" y2="143.017" stroke="#8c8c8c" stroke-width="0.3" stroke-dasharray="1.2,0.8"/>
<line x1="160.16" y1="121.569" x2="172.542" y2="143.017" stroke="#8c8c8c" stroke-width="0.3" stroke-dasharray="1.2,0.8"/>
<line x1="104.315" y1="121.569" x2="116.698" y2="143.017" stroke="#8c8c8c" stroke-width="0.3" stroke-dasharray="1.2,0.8"/>
<line x1="148.072" y1="146.832" x2="123.306" y2="146.832" stroke="#8c8c8c" stroke-width="0.3" stroke-dasharray="1.2,0.8"/>
<line x1="132.237" y1="123.733" x2="116.698" y2="143.017" stroke="#8c8c8c" stroke-width="0.3" stroke-dasharray="1.2,0.8"/>
<line x1="160.16" y1="259.064" x2="144.62" y2="278.348" stroke="#8c8c8c" stroke-width="0.3" stroke-dasharray="1.2,0.8"/>
<line x1="132.237" y1="256.9" x2="144.62" y2="278.348" stroke="#8c8c8c" stroke-width="0.3" stroke-dasharray="1.2,0.8"/>
<line x1="47.795" y1="48.823" x2="46.32" y2="24.101" stroke="#8c8c8c" stroke-width="0.3" stroke-dasharray="1.2,0.8"/>
<line x1="113.033" y1="277.285" x2="137.503" y2="281.1" stroke="#8c8c8c" stroke-width="0.3" stroke-dasharray="1.2,0.8"/>
<line x1="69.911" y1="31.64" x2="46.32" y2="24.101" stroke="#8c8c8c" stroke-width="0.3" stroke-dasharray="1.2,0.8"/>
<line x1="73.236" y1="87.386" x2="49.646" y2="79.846" stroke="#8c8c8c" stroke-width="0.3" stroke-dasharray="1.2,0.8"/>
<line x1="51.121" y1="104.568" x2="49.646" y2="79.846" stroke="#8c8c8c" stroke-width="0.3" stroke-dasharray="1.2,0.8"/>
<line x1="23.865" y1="98.129" x2="42.19" y2="81.469" stroke="#8c8c8c" stroke-width="0.3" stroke-dasharray="1.2,0.8"/>
<line x1="31.916" y1="124.953" x2="8.326" y2="117.413" stroke="#8c8c8c" stroke-width="0.3" stroke-dasharray="1.2,0.8"/>
<line x1="104.981" y1="250.461" x2="89.442" y2="269.745" stroke="#8c8c8c" stroke-width="0.3" stroke-dasharray="1.2,0.8"/>
<line x1="113.033" y1="277.285" x2="89.442" y2="269.745" stroke="#8c8c8c" stroke-width="0.3" stroke-dasharray="1.2,0.8"/>
<line x1="23.865" y1="98.129" x2="8.326" y2="117.413" stroke="#8c8c8c" stroke-width="0.3" stroke-dasharray="1.2,0.8"/>
<line x1="79.043" y1="227.702" x2="77.568" y2="252.424" stroke="#8c8c8c" stroke-width="0.3" stroke-dasharray="1.2,0.8"/>
<line x1="69.275" y1="165.053" x2="81.658" y2="186.501" stroke="#8c8c8c" stroke-width="0.3" stroke-dasharray="1.2,0.8"/>
<line x1="104.981" y1="217.14" x2="89.442" y2="197.856" stroke="#8c8c8c" stroke-width="0.3" stroke-dasharray="1.2,0.8"/>
<line x1="113.033" y1="190.317" x2="89.442" y2="197.856" stroke="#8c8c8c" stroke-width="0.3" stroke-dasharray="1.2,0.8"/>
<line x1="97.198" y1="167.217" x2="81.658" y2="186.501" stroke="#8c8c8c" stroke-width="0.3" stroke-dasharray="1.2,0.8"/>
<line x1="79.043" y1="227.702" x2="84.309" y2="203.502" stroke="#8c8c8c" stroke-width="0.3" stroke-dasharray="1.2,0.8"/>
<line x1="97.735" y1="73.815" x2="96.26" y2="49.093" stroke="#8c8c8c" stroke-width="0.3" stroke-dasharray="1.2,0.8"/>
<line x1="69.911" y1="31.64" x2="92.058" y2="42.724" stroke="#8c8c8c" stroke-width="0.3" stroke-dasharray="1.2,0.8"/>
<line x1="73.733" y1="59.384" x2="96.26" y2="49.093" stroke="#8c8c8c" stroke-width="0.3" stroke-dasharray="1.2,0.8"/>
<line x1="120.15" y1="98.47" x2="144.62" y2="102.285" stroke="#8c8c8c" stroke-width="0.3" stroke-dasharray="1.2,0.8"/>
<line x1="159.493" y1="66.767" x2="150.562" y2="89.866" stroke="#8c8c8c" stroke-width="0.3" stroke-dasharray="1.2,0.8"/>
<line x1="132.237" y1="73.206" x2="144.62" y2="94.654" stroke="#8c8c8c" stroke-width="0.3" stroke-dasharray="1.2,0.8"/>
<line x1="95.384" y1="98.469" x2="104.315" y2="75.37" stroke="#141414" stroke-width="0.4"/>
<line x1="77.059" y1="115.13" x2="56.386" y2="128.768" stroke="#141414" stroke-width="0.4"/>
<line x1="60.344" y1="141.953" x2="85.11" y2="141.953" stroke="#141414" stroke-width="0.4"/>
<line x1="42.02" y1="158.614" x2="60.344" y2="141.953" stroke="#141414" stroke-width="0.4"/>
<line x1="148.072" y1="233.801" x2="172.542" y2="237.616" stroke="#141414" stroke-width="0.4"/>
<line x1="192.681" y1="90.93" x2="187.415" y2="115.13" stroke="#141414" stroke-width="0.4"/>
<line x1="144.111" y1="18.638" x2="162.436" y2="35.299" stroke="#141414" stroke-width="0.4"/>
<line x1="162.436" y1="35.299" x2="140.288" y2="46.382" stroke="#141414" stroke-width="0.4"/>
<line x1="168.211" y1="94.745" x2="192.681" y2="90.93" stroke="#141414" stroke-width="0.4"/>
<line x1="123.306" y1="233.801" x2="101.159" y2="244.884" stroke="#141414" stroke-width="0.4"/>
<line x1="187.415" y1="115.13" x2="178.484" y2="138.229" stroke="#141414" stroke-width="0.4"/>
<line x1="132.237" y1="210.701" x2="144.62" y2="189.253" stroke="#141414" stroke-width="0.4"/>
<line x1="125.12" y1="165.053" x2="137.503" y2="186.501" stroke="#141414" stroke-width="0.4"/>
<line x1="178.484" y1="138.229" x2="160.16" y2="121.569" stroke="#141414" stroke-width="0.4"/>
<line x1="104.315" y1="121.569" x2="109.581" y2="145.769" stroke="#141414" stroke-width="0.4"/>
<line x1="109.581" y1="145.769" x2="125.12" y2="165.053" stroke="#141414" stroke-width="0.4"/>
<line x1="123.306" y1="146.833" x2="132.237" y2="123.733" stroke="#141414" stroke-width="0.4"/>
<line x1="123.438" y1="5.0" x2="144.111" y2="18.638" stroke="#141414" stroke-width="0.4"/>
<line x1="132.237" y1="256.9" x2="137.503" y2="281.1" stroke="#141414" stroke-width="0.4"/>
<line x1="38.864" y1="25.723" x2="47.795" y2="48.823" stroke="#141414" stroke-width="0.4"/>
<line x1="20.539" y1="42.383" x2="38.864" y2="25.723" stroke="#141414" stroke-width="0.4"/>
<line x1="118.173" y1="29.2" x2="123.438" y2="5.0" stroke="#141414" stroke-width="0.4"/>
<line x1="73.236" y1="87.386" x2="53.061" y2="73.022" stroke="#141414" stroke-width="0.4"/>
<line x1="42.19" y1="81.469" x2="51.121" y2="104.568" stroke="#141414" stroke-width="0.4"/>
<line x1="53.061" y1="73.022" x2="28.59" y2="69.207" stroke="#141414" stroke-width="0.4"/>
<line x1="26.48" y1="177.898" x2="42.02" y2="158.614" stroke="#141414" stroke-width="0.4"/>
<line x1="101.159" y1="244.884" x2="77.568" y2="252.424" stroke="#141414" stroke-width="0.4"/>
<line x1="5.0" y1="61.667" x2="20.539" y2="42.383" stroke="#141414" stroke-width="0.4"/>
<line x1="28.59" y1="69.207" x2="5.0" y2="61.667" stroke="#141414" stroke-width="0.4"/>
<line x1="50.071" y1="185.438" x2="26.48" y2="177.898" stroke="#141414" stroke-width="0.4"/>
<line x1="69.275" y1="165.053" x2="74.541" y2="189.253" stroke="#141414" stroke-width="0.4"/>
<line x1="84.309" y1="203.502" x2="104.981" y2="217.14" stroke="#141414" stroke-width="0.4"/>
<line x1="113.032" y1="190.316" x2="88.267" y2="190.316" stroke="#141414" stroke-width="0.4"/>
<line x1="88.267" y1="190.316" x2="97.198" y2="167.217" stroke="#141414" stroke-width="0.4"/>
<line x1="74.541" y1="189.253" x2="50.071" y2="185.438" stroke="#141414" stroke-width="0.4"/>
<line x1="104.315" y1="75.37" x2="116.698" y2="53.922" stroke="#141414" stroke-width="0.4"/>
<line x1="116.698" y1="53.922" x2="118.173" y2="29.2" stroke="#141414" stroke-width="0.4"/>
<line x1="92.058" y1="42.724" x2="73.733" y2="59.384" stroke="#141414" stroke-width="0.4"/>
<line x1="144.62" y1="94.654" x2="120.15" y2="98.469" stroke="#141414" stroke-width="0.4"/>
<line x1="144.62" y1="102.285" x2="168.211" y2="94.745" stroke="#141414" stroke-width="0.4"/>
<line x1="150.562" y1="89.866" x2="132.237" y2="73.206" stroke="#141414" stroke-width="0.4"/>
<line x1="95.384" y1="98.47" x2="101.548" y2="88.608" stroke="#141414" stroke-width="0.4"/>
<line x1="101.548" y1="88.608" x2="101.924" y2="84.664" stroke="#141414" stroke-width="0.4"/>
<line x1="101.924" y1="84.664" x2="97.735" y2="73.815" stroke="#141414" stroke-width="0.4"/>
<line x1="61.52" y1="134.414" x2="63.997" y2="123.052" stroke="#141414" stroke-width="0.4"/>
<line x1="63.997" y1="123.052" x2="66.483" y2="119.966" stroke="#141414" stroke-width="0.4"/>
<line x1="66.483" y1="119.966" x2="77.059" y2="115.13" stroke="#141414" stroke-width="0.4"/>
<line x1="61.52" y1="134.414" x2="69.845" y2="142.534" stroke="#141414" stroke-width="0.4"/>
<line x1="69.845" y1="142.534" x2="73.619" y2="143.74" stroke="#141414" stroke-width="0.4"/>
<line x1="73.619" y1="143.74" x2="85.11" y2="141.954" stroke="#141414" stroke-width="0.4"/>
<line x1="56.387" y1="128.768" x2="51.915" y2="133.334" stroke="#141414" stroke-width="0.4"/>
<line x1="51.915" y1="133.334" x2="34.786" y2="130.663" stroke="#141414" stroke-width="0.4"/>
<line x1="34.786" y1="130.663" x2="31.916" y2="124.953" stroke="#141414" stroke-width="0.4"/>
<line x1="172.542" y1="229.985" x2="163.066" y2="236.726" stroke="#141414" stroke-width="0.4"/>
<line x1="163.066" y1="236.726" x2="159.151" y2="237.336" stroke="#141414" stroke-width="0.4"/>
<line x1="159.151" y1="237.336" x2="148.072" y2="233.801" stroke="#141414" stroke-width="0.4"/>
<line x1="172.542" y1="229.985" x2="175.188" y2="224.168" stroke="#141414" stroke-width="0.4"/>
<line x1="175.188" y1="224.168" x2="166.52" y2="209.154" stroke="#141414" stroke-width="0.4"/>
<line x1="166.52" y1="209.154" x2="160.16" y2="208.537" stroke="#141414" stroke-width="0.4"/>
<line x1="172.542" y1="237.616" x2="175.188" y2="243.433" stroke="#141414" stroke-width="0.4"/>
<line x1="175.188" y1="243.433" x2="166.52" y2="258.447" stroke="#141414" stroke-width="0.4"/>
<line x1="166.52" y1="258.447" x2="160.16" y2="259.064" stroke="#141414" stroke-width="0.4"/>
<line x1="164.759" y1="42.567" x2="153.68" y2="39.032" stroke="#141414" stroke-width="0.4"/>
<line x1="153.68" y1="39.032" x2="149.765" y2="39.642" stroke="#141414" stroke-width="0.4"/>
<line x1="149.765" y1="39.642" x2="140.288" y2="46.382" stroke="#141414" stroke-width="0.4"/>
<line x1="164.759" y1="42.567" x2="169.05" y2="47.303" stroke="#141414" stroke-width="0.4"/>
<line x1="169.05" y1="47.303" x2="165.364" y2="64.242" stroke="#141414" stroke-width="0.4"/>
<line x1="165.364" y1="64.242" x2="159.493" y2="66.767" stroke="#141414" stroke-width="0.4"/>
<line x1="123.306" y1="233.801" x2="112.112" y2="236.95" stroke="#141414" stroke-width="0.4"/>
<line x1="112.112" y1="236.95" x2="109.18" y2="239.616" stroke="#141414" stroke-width="0.4"/>
<line x1="109.18" y1="239.616" x2="104.981" y2="250.461" stroke="#141414" stroke-width="0.4"/>
<line x1="144.62" y1="189.253" x2="151.0" y2="188.883" stroke="#141414" stroke-width="0.4"/>
<line x1="151.0" y1="188.883" x2="161.878" y2="202.382" stroke="#141414" stroke-width="0.4"/>
<line x1="161.878" y1="202.382" x2="160.16" y2="208.537" stroke="#141414" stroke-width="0.4"/>
<line x1="137.503" y1="186.501" x2="140.372" y2="197.771" stroke="#141414" stroke-width="0.4"/>
<line x1="140.372" y1="197.771" x2="139.53" y2="201.643" stroke="#141414" stroke-width="0.4"/>
<line x1="139.53" y1="201.643" x2="132.237" y2="210.701" stroke="#141414" stroke-width="0.4"/>
<line x1="172.542" y1="143.017" x2="169.673" y2="148.727" stroke="#141414" stroke-width="0.4"/>
<line x1="169.673" y1="148.727" x2="152.544" y2="151.398" stroke="#141414" stroke-width="0.4"/>
<line x1="152.544" y1="151.398" x2="148.072" y2="146.832" stroke="#141414" stroke-width="0.4"/>
<line x1="172.542" y1="143.017" x2="171.845" y2="131.409" stroke="#141414" stroke-width="0.4"/>
<line x1="171.845" y1="131.409" x2="169.864" y2="127.977" stroke="#141414" stroke-width="0.4"/>
<line x1="169.864" y1="127.977" x2="160.16" y2="121.569" stroke="#141414" stroke-width="0.4"/>
<line x1="116.698" y1="143.017" x2="106.994" y2="136.609" stroke="#141414" stroke-width="0.4"/>
<line x1="106.994" y1="136.609" x2="105.012" y2="133.177" stroke="#141414" stroke-width="0.4"/>
<line x1="105.012" y1="133.177" x2="104.315" y2="121.569" stroke="#141414" stroke-width="0.4"/>
<line x1="123.306" y1="146.832" x2="127.021" y2="152.032" stroke="#141414" stroke-width="0.4"/>
<line x1="127.021" y1="152.032" x2="144.357" y2="152.032" stroke="#141414" stroke-width="0.4"/>
<line x1="144.357" y1="152.032" x2="148.072" y2="146.832" stroke="#141414" stroke-width="0.4"/>
<line x1="116.698" y1="143.017" x2="127.273" y2="138.18" stroke="#141414" stroke-width="0.4"/>
<line x1="127.273" y1="138.18" x2="129.76" y2="135.095" stroke="#141414" stroke-width="0.4"/>
<line x1="129.76" y1="135.095" x2="132.237" y2="123.733" stroke="#141414" stroke-width="0.4"/>
<line x1="144.62" y1="278.348" x2="151.0" y2="278.718" stroke="#141414" stroke-width="0.4"/>
<line x1="151.0" y1="278.718" x2="161.878" y2="265.219" stroke="#141414" stroke-width="0.4"/>
<line x1="161.878" y1="265.219" x2="160.16" y2="259.064" stroke="#141414" stroke-width="0.4"/>
<line x1="144.62" y1="278.348" x2="134.916" y2="271.94" stroke="#141414" stroke-width="0.4"/>
<line x1="134.916" y1="271.94" x2="132.935" y2="268.508" stroke="#141414" stroke-width="0.4"/>
<line x1="132.935" y1="268.508" x2="132.237" y2="256.9" stroke="#141414" stroke-width="0.4"/>
<line x1="46.32" y1="24.101" x2="41.749" y2="34.793" stroke="#141414" stroke-width="0.4"/>
<line x1="41.749" y1="34.793" x2="41.985" y2="38.749" stroke="#141414" stroke-width="0.4"/>
<line x1="41.985" y1="38.749" x2="47.795" y2="48.823" stroke="#141414" stroke-width="0.4"/>
<line x1="137.503" y1="281.1" x2="133.031" y2="285.666" stroke="#141414" stroke-width="0.4"/>
<line x1="133.031" y1="285.666" x2="115.902" y2="282.995" stroke="#141414" stroke-width="0.4"/>
<line x1="115.902" y1="282.995" x2="113.033" y2="277.285" stroke="#141414" stroke-width="0.4"/>
<line x1="46.32" y1="24.101" x2="51.442" y2="20.278" stroke="#141414" stroke-width="0.4"/>
<line x1="51.442" y1="20.278" x2="67.955" y2="25.556" stroke="#141414" stroke-width="0.4"/>
<line x1="67.955" y1="25.556" x2="69.911" y2="31.64" stroke="#141414" stroke-width="0.4"/>
<line x1="49.646" y1="79.846" x2="61.137" y2="78.06" stroke="#141414" stroke-width="0.4"/>
<line x1="61.137" y1="78.06" x2="64.911" y2="79.266" stroke="#141414" stroke-width="0.4"/>
<line x1="64.911" y1="79.266" x2="73.236" y2="87.386" stroke="#141414" stroke-width="0.4"/>
<line x1="49.646" y1="79.846" x2="45.075" y2="90.539" stroke="#141414" stroke-width="0.4"/>
<line x1="45.075" y1="90.539" x2="45.31" y2="94.495" stroke="#141414" stroke-width="0.4"/>
<line x1="45.31" y1="94.495" x2="51.121" y2="104.568" stroke="#141414" stroke-width="0.4"/>
<line x1="42.19" y1="81.469" x2="35.943" y2="80.12" stroke="#141414" stroke-width="0.4"/>
<line x1="35.943" y1="80.12" x2="23.116" y2="91.782" stroke="#141414" stroke-width="0.4"/>
<line x1="23.116" y1="91.782" x2="23.865" y2="98.129" stroke="#141414" stroke-width="0.4"/>
<line x1="8.326" y1="117.413" x2="10.281" y2="123.497" stroke="#141414" stroke-width="0.4"/>
<line x1="10.281" y1="123.497" x2="26.794" y2="128.775" stroke="#141414" stroke-width="0.4"/>
<line x1="26.794" y1="128.775" x2="31.916" y2="124.953" stroke="#141414" stroke-width="0.4"/>
<line x1="89.442" y1="269.745" x2="87.724" y2="263.59" stroke="#141414" stroke-width="0.4"/>
<line x1="87.724" y1="263.59" x2="98.602" y2="250.091" stroke="#141414" stroke-width="0.4"/>
<line x1="98.602" y1="250.091" x2="104.981" y2="250.461" stroke="#141414" stroke-width="0.4"/>
<line x1="89.442" y1="269.745" x2="91.398" y2="275.829" stroke="#141414" stroke-width="0.4"/>
<line x1="91.398" y1="275.829" x2="107.911" y2="281.107" stroke="#141414" stroke-width="0.4"/>
<line x1="107.911" y1="281.107" x2="113.033" y2="277.285" stroke="#141414" stroke-width="0.4"/>
<line x1="8.326" y1="117.413" x2="6.608" y2="111.258" stroke="#141414" stroke-width="0.4"/>
<line x1="6.608" y1="111.258" x2="17.485" y2="97.759" stroke="#141414" stroke-width="0.4"/>
<line x1="17.485" y1="97.759" x2="23.865" y2="98.129" stroke="#141414" stroke-width="0.4"/>
<line x1="77.568" y1="252.424" x2="72.599" y2="248.406" stroke="#141414" stroke-width="0.4"/>
<line x1="72.599" y1="248.406" x2="73.631" y2="231.101" stroke="#141414" stroke-width="0.4"/>
<line x1="73.631" y1="231.101" x2="79.043" y2="227.702" stroke="#141414" stroke-width="0.4"/>
<line x1="81.658" y1="186.501" x2="71.954" y2="180.093" stroke="#141414" stroke-width="0.4"/>
<line x1="71.954" y1="180.093" x2="69.973" y2="176.661" stroke="#141414" stroke-width="0.4"/>
<line x1="69.973" y1="176.661" x2="69.275" y2="165.053" stroke="#141414" stroke-width="0.4"/>
<line x1="89.442" y1="197.856" x2="91.92" y2="209.218" stroke="#141414" stroke-width="0.4"/>
<line x1="91.92" y1="209.218" x2="94.406" y2="212.304" stroke="#141414" stroke-width="0.4"/>
<line x1="94.406" y1="212.304" x2="104.981" y2="217.14" stroke="#141414" stroke-width="0.4"/>
<line x1="89.442" y1="197.856" x2="97.767" y2="189.736" stroke="#141414" stroke-width="0.4"/>
<line x1="97.767" y1="189.736" x2="101.541" y2="188.53" stroke="#141414" stroke-width="0.4"/>
<line x1="101.541" y1="188.53" x2="113.033" y2="190.317" stroke="#141414" stroke-width="0.4"/>
<line x1="81.658" y1="186.501" x2="92.234" y2="181.665" stroke="#141414" stroke-width="0.4"/>
<line x1="92.234" y1="181.665" x2="94.72" y2="178.579" stroke="#141414" stroke-width="0.4"/>
<line x1="94.72" y1="178.579" x2="97.198" y2="167.217" stroke="#141414" stroke-width="0.4"/>
<line x1="84.309" y1="203.502" x2="78.438" y2="206.026" stroke="#141414" stroke-width="0.4"/>
<line x1="78.438" y1="206.026" x2="74.752" y2="222.966" stroke="#141414" stroke-width="0.4"/>
<line x1="74.752" y1="222.966" x2="79.043" y2="227.702" stroke="#141414" stroke-width="0.4"/>
<line x1="96.26" y1="49.093" x2="101.672" y2="52.492" stroke="#141414" stroke-width="0.4"/>
<line x1="101.672" y1="52.492" x2="102.704" y2="69.797" stroke="#141414" stroke-width="0.4"/>
<line x1="102.704" y1="69.797" x2="97.735" y2="73.815" stroke="#141414" stroke-width="0.4"/>
<line x1="92.058" y1="42.724" x2="91.063" y2="36.411" stroke="#141414" stroke-width="0.4"/>
<line x1="91.063" y1="36.411" x2="75.56" y2="28.652" stroke="#141414" stroke-width="0.4"/>
<line x1="75.56" y1="28.652" x2="69.911" y2="31.64" stroke="#141414" stroke-width="0.4"/>
<line x1="96.26" y1="49.093" x2="84.638" y2="48.685" stroke="#141414" stroke-width="0.4"/>
<line x1="84.638" y1="48.685" x2="81.034" y2="50.332" stroke="#141414" stroke-width="0.4"/>
<line x1="81.034" y1="50.332" x2="73.733" y2="59.384" stroke="#141414" stroke-width="0.4"/>
<line x1="144.62" y1="102.285" x2="135.144" y2="95.544" stroke="#141414" stroke-width="0.4"/>
<line x1="135.144" y1="95.544" x2="131.228" y2="94.934" stroke="#141414" stroke-width="0.4"/>
<line x1="131.228" y1="94.934" x2="120.15" y2="98.47" stroke="#141414" stroke-width="0.4"/>
<line x1="150.562" y1="89.866" x2="156.751" y2="88.277" stroke="#141414" stroke-width="0.4"/>
<line x1="156.751" y1="88.277" x2="163.003" y2="72.107" stroke="#141414" stroke-width="0.4"/>
<line x1="163.003" y1="72.107" x2="159.493" y2="66.767" stroke="#141414" stroke-width="0.4"/>
<line x1="144.62" y1="94.654" x2="143.923" y2="83.046" stroke="#141414" stroke-width="0.4"/>
<line x1="143.923" y1="83.046" x2="141.941" y2="79.614" stroke="#141414" stroke-width="0.4"/>
<line x1="141.941" y1="79.614" x2="132.237" y2="73.206" stroke="#141414" stroke-width="0.4"/>
<circle cx="99.148" cy="86.389" r="2.29" fill="#ffe082" stroke="#464646" stroke-width="0.2"/>
<text x="99.148" y="87.48" font-size="3.11" text-anchor="middle" fill="#141414">1</text>
<circle cx="67.265" cy="123.141" r="2.29" fill="#ffe082" stroke="#464646" stroke-width="0.2"/>
<text x="67.265" y="124.23" font-size="3.11" text-anchor="middle" fill="#141414">2</text>
<circle cx="72.523" cy="140.66" r="2.29" fill="#ffe082" stroke="#464646" stroke-width="0.2"/>
<text x="72.523" y="141.75" font-size="3.11" text-anchor="middle" fill="#141414">3</text>
<circle cx="43.751" cy="129.429" r="2.29" fill="#ffe082" stroke="#464646" stroke-width="0.2"/>
<text x="43.751" y="130.52" font-size="3.11" text-anchor="middle" fill="#141414">4</text>
<circle cx="160.708" cy="234.462" r="2.29" fill="#ffe082" stroke="#464646" stroke-width="0.2"/>
<text x="160.708" y="235.55" font-size="3.11" text-anchor="middle" fill="#141414">5</text>
<circle cx="168.603" cy="217.961" r="2.29" fill="#ffe082" stroke="#464646" stroke-width="0.2"/>
<text x="168.603" y="219.05" font-size="3.11" text-anchor="middle" fill="#141414">6</text>
<circle cx="168.603" cy="249.64" r="2.29" fill="#ffe082" stroke="#464646" stroke-width="0.2"/>
<text x="168.603" y="250.73" font-size="3.11" text-anchor="middle" fill="#141414">7</text>
<circle cx="152.123" cy="41.906" r="2.29" fill="#ffe082" stroke="#464646" stroke-width="0.2"/>
<text x="152.123" y="42.99" font-size="3.11" text-anchor="middle" fill="#141414">8</text>
<circle cx="164.666" cy="55.22" r="2.29" fill="#ffe082" stroke="#464646" stroke-width="0.2"/>
<text x="164.666" y="56.31" font-size="3.11" text-anchor="middle" fill="#141414">9</text>
<circle cx="112.395" cy="240.207" r="2.29" fill="#ffe082" stroke="#464646" stroke-width="0.2"/>
<text x="112.395" y="241.29" font-size="3.11" text-anchor="middle" fill="#141414">10</text>
<circle cx="154.414" cy="197.264" r="2.29" fill="#ffe082" stroke="#464646" stroke-width="0.2"/>
<text x="154.414" y="198.35" font-size="3.11" text-anchor="middle" fill="#141414">11</text>
<circle cx="137.411" cy="199.154" r="2.29" fill="#ffe082" stroke="#464646" stroke-width="0.2"/>
<text x="137.411" y="200.24" font-size="3.11" text-anchor="middle" fill="#141414">12</text>
<circle cx="160.708" cy="147.494" r="2.29" fill="#ffe082" stroke="#464646" stroke-width="0.2"/>
<text x="160.708" y="148.58" font-size="3.11" text-anchor="middle" fill="#141414">13</text>
<circle cx="168.603" cy="130.993" r="2.29" fill="#ffe082" stroke="#464646" stroke-width="0.2"/>
<text x="168.603" y="132.08" font-size="3.11" text-anchor="middle" fill="#141414">14</text>
<circle cx="108.255" cy="133.593" r="2.29" fill="#ffe082" stroke="#464646" stroke-width="0.2"/>
<text x="108.255" y="134.68" font-size="3.11" text-anchor="middle" fill="#141414">15</text>
<circle cx="135.689" cy="149.432" r="2.29" fill="#ffe082" stroke="#464646" stroke-width="0.2"/>
<text x="135.689" y="150.52" font-size="3.11" text-anchor="middle" fill="#141414">16</text>
<circle cx="126.492" cy="135.006" r="2.29" fill="#ffe082" stroke="#464646" stroke-width="0.2"/>
<text x="126.492" y="136.09" font-size="3.11" text-anchor="middle" fill="#141414">17</text>
<circle cx="154.414" cy="270.338" r="2.29" fill="#ffe082" stroke="#464646" stroke-width="0.2"/>
<text x="154.414" y="271.42" font-size="3.11" text-anchor="middle" fill="#141414">18</text>
<circle cx="136.177" cy="268.924" r="2.29" fill="#ffe082" stroke="#464646" stroke-width="0.2"/>
<text x="136.177" y="270.01" font-size="3.11" text-anchor="middle" fill="#141414">19</text>
<circle cx="44.462" cy="36.616" r="2.29" fill="#99d9fa" stroke="#464646" stroke-width="0.2"/>
<text x="44.462" y="37.70" font-size="3.11" text-anchor="middle" fill="#141414">20</text>
<circle cx="124.867" cy="281.761" r="2.29" fill="#ffe082" stroke="#464646" stroke-width="0.2"/>
<text x="124.867" y="282.85" font-size="3.11" text-anchor="middle" fill="#141414">21</text>
<circle cx="58.907" cy="25.394" r="2.29" fill="#ffe082" stroke="#464646" stroke-width="0.2"/>
<text x="58.907" y="26.48" font-size="3.11" text-anchor="middle" fill="#141414">22</text>
<circle cx="62.233" cy="81.139" r="2.29" fill="#ffe082" stroke="#464646" stroke-width="0.2"/>
<text x="62.233" y="82.23" font-size="3.11" text-anchor="middle" fill="#141414">23</text>
<circle cx="47.788" cy="92.362" r="2.29" fill="#ffe082" stroke="#464646" stroke-width="0.2"/>
<text x="47.788" y="93.45" font-size="3.11" text-anchor="middle" fill="#141414">24</text>
<circle cx="31.278" cy="87.875" r="2.29" fill="#ffe082" stroke="#464646" stroke-width="0.2"/>
<text x="31.278" y="88.96" font-size="3.11" text-anchor="middle" fill="#141414">25</text>
<circle cx="19.329" cy="123.66" r="2.29" fill="#ffe082" stroke="#464646" stroke-width="0.2"/>
<text x="19.329" y="124.75" font-size="3.11" text-anchor="middle" fill="#141414">26</text>
<circle cx="95.187" cy="258.472" r="2.29" fill="#ffe082" stroke="#464646" stroke-width="0.2"/>
<text x="95.187" y="259.56" font-size="3.11" text-anchor="middle" fill="#141414">27</text>
<circle cx="100.446" cy="275.991" r="2.29" fill="#ffe082" stroke="#464646" stroke-width="0.2"/>
<text x="100.446" y="277.08" font-size="3.11" text-anchor="middle" fill="#141414">28</text>
<circle cx="14.071" cy="106.14" r="2.29" fill="#ffe082" stroke="#464646" stroke-width="0.2"/>
<text x="14.071" y="107.23" font-size="3.11" text-anchor="middle" fill="#141414">29</text>
<circle cx="75.71" cy="239.908" r="2.29" fill="#ffe082" stroke="#464646" stroke-width="0.2"/>
<text x="75.71" y="240.99" font-size="3.11" text-anchor="middle" fill="#141414">30</text>
<circle cx="73.215" cy="177.077" r="2.29" fill="#ffe082" stroke="#464646" stroke-width="0.2"/>
<text x="73.215" y="178.16" font-size="3.11" text-anchor="middle" fill="#141414">31</text>
<circle cx="95.187" cy="209.13" r="2.29" fill="#ffe082" stroke="#464646" stroke-width="0.2"/>
<text x="95.187" y="210.22" font-size="3.11" text-anchor="middle" fill="#141414">32</text>
<circle cx="100.446" cy="191.61" r="2.29" fill="#ffe082" stroke="#464646" stroke-width="0.2"/>
<text x="100.446" y="192.70" font-size="3.11" text-anchor="middle" fill="#141414">33</text>
<circle cx="91.452" cy="178.49" r="2.29" fill="#ffe082" stroke="#464646" stroke-width="0.2"/>
<text x="91.452" y="179.58" font-size="3.11" text-anchor="middle" fill="#141414">34</text>
<circle cx="79.135" cy="215.049" r="2.29" fill="#ffe082" stroke="#464646" stroke-width="0.2"/>
<text x="79.135" y="216.14" font-size="3.11" text-anchor="middle" fill="#141414">35</text>
<circle cx="99.593" cy="61.299" r="2.29" fill="#ffe082" stroke="#464646" stroke-width="0.2"/>
<text x="99.593" y="62.39" font-size="3.11" text-anchor="middle" fill="#141414">36</text>
<circle cx="82.148" cy="34.857" r="2.29" fill="#ffe082" stroke="#464646" stroke-width="0.2"/>
<text x="82.148" y="35.94" font-size="3.11" text-anchor="middle" fill="#141414">37</text>
<circle cx="83.916" cy="51.874" r="2.29" fill="#ffe082" stroke="#464646" stroke-width="0.2"/>
<text x="83.916" y="52.96" font-size="3.11" text-anchor="middle" fill="#141414">38</text>
<circle cx="132.786" cy="97.808" r="2.29" fill="#ffe082" stroke="#464646" stroke-width="0.2"/>
<text x="132.786" y="98.89" font-size="3.11" text-anchor="middle" fill="#141414">39</text>
<circle cx="157.452" cy="79.254" r="2.29" fill="#ffe082" stroke="#464646" stroke-width="0.2"/>
<text x="157.452" y="80.34" font-size="3.11" text-anchor="middle" fill="#141414">40</text>
<circle cx="140.68" cy="82.63" r="2.29" fill="#ffe082" stroke="#464646" stroke-width="0.2"/>
<text x="140.68" y="83.72" font-size="3.11" text-anchor="middle" fill="#141414">41</text>
</svg>
