<svg xmlns="http://www.w3.org/2000/svg" xmlns:xlink="http://www.w3.org/1999/xlink" width="210.00mm" height="297.00mm" viewBox="0 0 210.00 297.00">
<rect x="0" y="0" width="210.00" height="297.00" fill="#ffffff" stroke="#cccccc" stroke-width="0.2"/>
<polygon points="11.942,57.359 4.942,50.546 4.942,18.755 11.942,11.942" fill="rgb(216,216,216)"/>
<polygon points="11.942,11.942 21.026,4.942 63.414,4.942 72.498,11.942" fill="rgb(216,216,216)"/>
<polygon points="72.498,57.359 79.498,69.848 79.498,128.133 72.498,140.623" fill="rgb(216,216,216)"/>
<polygon points="11.942,140.623 21.026,147.623 63.414,147.623 72.498,140.623" fill="rgb(216,216,216)"/>
<polygon points="155.762,57.359 162.762,50.546 162.762,18.755 155.762,11.942" fill="rgb(216,216,216)"/>
<polygon points="72.498,57.359 79.498,69.848 79.498,128.133 72.498,140.623" fill="#99d9fa"/>
<line x1="72.498" y1="57.359" x2="11.942" y2="57.359" stroke="#8c8c8c" stroke-width="0.3" stroke-dasharray="1.2,0.8"/>
<line x1="72.498" y1="11.942" x2="72.498" y2="57.359" stroke="#8c8c8c" stroke-width="0.3" stroke-dasharray="1.2,0.8"/>
<line x1="11.942" y1="11.942" x2="11.942" y2="57.359" stroke="#8c8c8c" stroke-width="0.3" stroke-dasharray="1.2,0.8"/>
<line x1="72.498" y1="11.942" x2="11.942" y2="11.942" stroke="#8c8c8c" stroke-width="0.3" stroke-dasharray="1.2,0.8"/>
<line x1="72.498" y1="140.623" x2="72.498" y2="57.359" stroke="#8c8c8c" stroke-width="0.3" stroke-dasharray="1.2,0.8"/>
<line x1="72.498" y1="140.623" x2="11.942" y2="140.623" stroke="#8c8c8c" stroke-width="0.3" stroke-dasharray="1.2,0.8"/>
<line x1="155.762" y1="11.942" x2="155.762" y2="57.359" stroke="#8c8c8c" stroke-width="0.3" stroke-dasharray="1.2,0.8"/>
<line x1="11.942" y1="140.623" x2="11.942" y2="57.359" stroke="#141414" stroke-width="0.4"/>
<line x1="155.762" y1="57.359" x2="72.498" y2="57.359" stroke="#141414" stroke-width="0.4"/>
<line x1="72.498" y1="11.942" x2="155.762" y2="11.942" stroke="#141414" stroke-width="0.4"/>
<line x1="11.942" y1="57.359" x2="4.942" y2="50.546" stroke="#141414" stroke-width="0.4"/>
<line x1="4.942" y1="50.546" x2="4.942" y2="18.755" stroke="#141414" stroke-width="0.4"/>
<line x1="4.942" y1="18.755" x2="11.942" y2="11.942" stroke="#141414" stroke-width="0.4"/>
<line x1="11.942" y1="11.942" x2="21.026" y2="4.942" stroke="#141414" stroke-width="0.4"/>
<line x1="21.026" y1="4.942" x2="63.414" y2="4.942" stroke="#141414" stroke-width="0.4"/>
<line x1="63.414" y1="4.942" x2="72.498" y2="11.942" stroke="#141414" stroke-width="0.4"/>
<line x1="72.498" y1="57.359" x2="79.498" y2="69.848" stroke="#141414" stroke-width="0.4"/>
<line x1="79.498" y1="69.848" x2="79.498" y2="128.133" stroke="#141414" stroke-width="0.4"/>
<line x1="79.498" y1="128.133" x2="72.498" y2="140.623" stroke="#141414" stroke-width="0.4"/>
<line x1="11.942" y1="140.623" x2="21.026" y2="147.623" stroke="#141414" stroke-width="0.4"/>
<line x1="21.026" y1="147.623" x2="63.414" y2="147.623" stroke="#141414" stroke-width="0.4"/>
<line x1="63.414" y1="147.623" x2="72.498" y2="140.623" stroke="#141414" stroke-width="0.4"/>
<line x1="155.762" y1="57.359" x2="162.762" y2="50.546" stroke="#141414" stroke-width="0.4"/>
<line x1="162.762" y1="50.546" x2="162.762" y2="18.755" stroke="#141414" stroke-width="0.4"/>
<line x1="162.762" y1="18.755" x2="155.762" y2="11.942" stroke="#141414" stroke-width="0.4"/>
<circle cx="8.442" cy="34.651" r="1.40" fill="#ffe082" stroke="#464646" stroke-width="0.2"/>
<text x="8.442" y="35.32" font-size="1.90" text-anchor="middle" fill="#141414">1</text>
<circle cx="42.22" cy="8.442" r="1.40" fill="#ffe082" stroke="#464646" stroke-width="0.2"/>
<text x="42.22" y="9.11" font-size="1.90" text-anchor="middle" fill="#141414">2</text>
<circle cx="75.998" cy="98.991" r="1.40" fill="#99d9fa" stroke="#464646" stroke-width="0.2"/>
<text x="75.998" y="99.66" font-size="1.90" text-anchor="middle" fill="#141414">3</text>
<circle cx="42.22" cy="144.123" r="1.40" fill="#ffe082" stroke="#464646" stroke-width="0.2"/>
<text x="42.22" y="144.79" font-size="1.90" text-anchor="middle" fill="#141414">4</text>
<circle cx="159.262" cy="34.651" r="1.40" fill="#ffe082" stroke="#464646" stroke-width="0.2"/>
<text x="159.262" y="35.32" font-size="1.90" text-anchor="middle" fill="#141414">5</text>
<circle cx="83.91" cy="153.78" r="4.6" fill="#eaf1fe" stroke="#2e78e6" stroke-width="0.3"/>
<text x="83.91" y="155.58" font-size="5.2" text-anchor="middle" fill="#14306e" font-weight="bold">1</text>
<polygon points="99.921,200.639 93.108,207.639 61.317,207.639 54.504,200.639" fill="rgb(216,216,216)"/>
<polygon points="99.921,196.097 106.733,189.097 138.525,189.097 145.338,196.097" fill="rgb(216,216,216)"/>
<polygon points="99.921,196.097 93.108,189.097 61.317,189.097 54.504,196.097" fill="rgb(216,216,216)"/>
<polygon points="145.338,200.639 152.338,207.451 152.338,239.243 145.338,246.056" fill="rgb(216,216,216)"/>
<polygon points="9.088,150.68 2.088,157.493 2.088,189.285 9.088,196.097" fill="rgb(216,216,216)"/>
<polygon points="99.921,246.056 106.733,253.055 138.525,253.055 145.338,246.056" fill="rgb(216,216,216)"/>
<polygon points="190.754,200.639 193.933,199.958 193.933,196.778 190.754,196.097" fill="rgb(216,216,216)"/>
<polygon points="99.921,200.639 93.108,207.639 61.317,207.639 54.504,200.639" fill="#99d9fa"/>
<line x1="99.921" y1="200.639" x2="99.921" y2="196.097" stroke="#8c8c8c" stroke-width="0.3" stroke-dasharray="1.2,0.8"/>
<line x1="145.338" y1="200.639" x2="99.921" y2="200.639" stroke="#8c8c8c" stroke-width="0.3" stroke-dasharray="1.2,0.8"/>
<line x1="145.338" y1="196.097" x2="145.338" y2="200.639" stroke="#8c8c8c" stroke-width="0.3" stroke-dasharray="1.2,0.8"/>
<line x1="54.504" y1="200.639" x2="54.504" y2="196.097" stroke="#8c8c8c" stroke-width="0.3" stroke-dasharray="1.2,0.8"/>
<line x1="54.504" y1="196.097" x2="9.088" y2="196.097" stroke="#8c8c8c" stroke-width="0.3" stroke-dasharray="1.2,0.8"/>
<line x1="54.504" y1="200.639" x2="99.921" y2="200.639" stroke="#8c8c8c" stroke-width="0.3" stroke-dasharray="1.2,0.8"/>
<line x1="145.338" y1="196.097" x2="99.921" y2="196.097" stroke="#8c8c8c" stroke-width="0.3" stroke-dasharray="1.2,0.8"/>
<line x1="54.504" y1="196.097" x2="99.921" y2="196.097" stroke="#8c8c8c" stroke-width="0.3" stroke-dasharray="1.2,0.8"/>
<line x1="145.338" y1="246.056" x2="145.338" y2="200.639" stroke="#8c8c8c" stroke-width="0.3" stroke-dasharray="1.2,0.8"/>
<line x1="9.088" y1="196.097" x2="9.088" y2="150.68" stroke="#8c8c8c" stroke-width="0.3" stroke-dasharray="1.2,0.8"/>
<line x1="145.338" y1="246.056" x2="99.921" y2="246.056" stroke="#8c8c8c" stroke-width="0.3" stroke-dasharray="1.2,0.8"/>
<line x1="190.754" y1="196.097" x2="190.754" y2="200.639" stroke="#8c8c8c" stroke-width="0.3" stroke-dasharray="1.2,0.8"/>
<line x1="99.921" y1="246.055" x2="99.921" y2="200.639" stroke="#141414" stroke-width="0.4"/>
<line x1="9.088" y1="150.68" x2="54.504" y2="150.68" stroke="#141414" stroke-width="0.4"/>
<line x1="54.504" y1="150.68" x2="54.504" y2="196.097" stroke="#141414" stroke-width="0.4"/>
<line x1="190.754" y1="200.639" x2="145.338" y2="200.639" stroke="#141414" stroke-width="0.4"/>
<line x1="145.338" y1="196.097" x2="190.754" y2="196.097" stroke="#141414" stroke-width="0.4"/>
<line x1="54.504" y1="200.639" x2="9.088" y2="200.639" stroke="#141414" stroke-width="0.4"/>
<line x1="9.088" y1="200.639" x2="9.088" y2="196.097" stroke="#141414" stroke-width="0.4"/>
<line x1="99.921" y1="200.639" x2="93.108" y2="207.639" stroke="#141414" stroke-width="0.4"/>
<line x1="93.108" y1="207.639" x2="61.317" y2="207.639" stroke="#141414" stroke-width="0.4"/>
<line x1="61.317" y1="207.639" x2="54.504" y2="200.639" stroke="#141414" stroke-width="0.4"/>
<line x1="99.921" y1="196.097" x2="106.733" y2="189.097" stroke="#141414" stroke-width="0.4"/>
<line x1="106.733" y1="189.097" x2="138.525" y2="189.097" stroke="#141414" stroke-width="0.4"/>
<line x1="138.525" y1="189.097" x2="145.338" y2="196.097" stroke="#141414" stroke-width="0.4"/>
<line x1="99.921" y1="196.097" x2="93.108" y2="189.097" stroke="#141414" stroke-width="0.4"/>
<line x1="93.108" y1="189.097" x2="61.317" y2="189.097" stroke="#141414" stroke-width="0.4"/>
<line x1="61.317" y1="189.097" x2="54.504" y2="196.097" stroke="#141414" stroke-width="0.4"/>
<line x1="145.338" y1="200.639" x2="152.338" y2="207.451" stroke="#141414" stroke-width="0.4"/>
<line x1="152.338" y1="207.451" x2="152.338" y2="239.243" stroke="#141414" stroke-width="0.4"/>
<line x1="152.338" y1="239.243" x2="145.338" y2="246.056" stroke="#141414" stroke-width="0.4"/>
<line x1="9.088" y1="150.68" x2="2.088" y2="157.493" stroke="#141414" stroke-width="0.4"/>
<line x1="2.088" y1="157.493" x2="2.088" y2="189.285" stroke="#141414" stroke-width="0.4"/>
<line x1="2.088" y1="189.285" x2="9.088" y2="196.097" stroke="#141414" stroke-width="0.4"/>
<line x1="99.921" y1="246.056" x2="106.733" y2="253.055" stroke="#141414" stroke-width="0.4"/>
<line x1="106.733" y1="253.055" x2="138.525" y2="253.055" stroke="#141414" stroke-width="0.4"/>
<line x1="138.525" y1="253.055" x2="145.338" y2="246.056" stroke="#141414" stroke-width="0.4"/>
<line x1="190.754" y1="200.639" x2="193.933" y2="199.958" stroke="#141414" stroke-width="0.4"/>
<line x1="193.933" y1="199.958" x2="193.933" y2="196.778" stroke="#141414" stroke-width="0.4"/>
<line x1="193.933" y1="196.778" x2="190.754" y2="196.097" stroke="#141414" stroke-width="0.4"/>
<circle cx="77.213" cy="204.139" r="1.40" fill="#99d9fa" stroke="#464646" stroke-width="0.2"/>
<text x="77.213" y="204.80" font-size="1.90" text-anchor="middle" fill="#141414">23</text>
<circle cx="122.629" cy="192.597" r="1.40" fill="#ffe082" stroke="#464646" stroke-width="0.2"/>
<text x="122.629" y="193.26" font-size="1.90" text-anchor="middle" fill="#141414">24</text>
<circle cx="77.213" cy="192.597" r="1.40" fill="#ffe082" stroke="#464646" stroke-width="0.2"/>
<text x="77.213" y="193.26" font-size="1.90" text-anchor="middle" fill="#141414">25</text>
<circle cx="148.838" cy="223.347" r="1.40" fill="#ffe082" stroke="#464646" stroke-width="0.2"/>
<text x="148.838" y="224.01" font-size="1.90" text-anchor="middle" fill="#141414">26</text>
<circle cx="5.588" cy="173.389" r="1.40" fill="#ffe082" stroke="#464646" stroke-width="0.2"/>
<text x="5.588" y="174.05" font-size="1.90" text-anchor="middle" fill="#141414">27</text>
<circle cx="122.629" cy="249.556" r="1.40" fill="#ffe082" stroke="#464646" stroke-width="0.2"/>
<text x="122.629" y="250.22" font-size="1.90" text-anchor="middle" fill="#141414">28</text>
<circle cx="192.344" cy="198.368" r="1.40" fill="#ffe082" stroke="#464646" stroke-width="0.2"/>
<text x="192.344" y="199.03" font-size="1.90" text-anchor="middle" fill="#141414">29</text>
<circle cx="100.923" cy="144.581" r="4.6" fill="#eaf1fe" stroke="#2e78e6" stroke-width="0.3"/>
<text x="100.923" y="146.381" font-size="5.2" text-anchor="middle" fill="#14306e" font-weight="bold">5</text>
</svg>
