<svg xmlns="http://www.w3.org/2000/svg" xmlns:xlink="http://www.w3.org/1999/xlink" width="210.00mm" height="297.00mm" viewBox="0 0 210.00 297.00">
<rect x="0" y="0" width="210.00" height="297.00" fill="#ffffff" stroke="#cccccc" stroke-width="0.2"/>
<polygon points="32.414,24.385 30.019,16.881 41.941,4.959 49.445,7.354" fill="rgb(216,216,216)"/>
<polygon points="24.386,32.414 21.991,39.919 33.912,51.84 41.417,49.445" fill="rgb(216,216,216)"/>
<polygon points="24.386,32.414 16.881,34.809 4.959,22.887 7.354,15.383" fill="rgb(216,216,216)"/>
<polygon points="49.445,41.417 56.95,43.812 68.872,31.89 66.477,24.385" fill="rgb(216,216,216)"/>
<polygon points="41.417,49.445 39.022,56.95 50.944,68.872 58.448,66.476" fill="rgb(216,216,216)"/>
<polygon points="66.477,24.385 68.872,16.881 56.95,4.959 49.445,7.354" fill="rgb(216,216,216)"/>
<polygon points="83.508,75.479 86.318,80.698 80.698,86.318 75.479,83.508" fill="rgb(216,216,216)"/>
<polygon points="83.508,75.479 86.318,80.698 80.698,86.318 75.479,83.508" fill="#99d9fa"/>
<line x1="24.386" y1="32.414" x2="32.414" y2="24.385" stroke="#8c8c8c" stroke-width="0.3" stroke-dasharray="1.2,0.8"/>
<line x1="49.445" y1="41.417" x2="32.414" y2="24.385" stroke="#8c8c8c" stroke-width="0.3" stroke-dasharray="1.2,0.8"/>
<line x1="49.445" y1="41.417" x2="41.417" y2="49.445" stroke="#8c8c8c" stroke-width="0.3" stroke-dasharray="1.2,0.8"/>
<line x1="66.477" y1="58.448" x2="58.448" y2="66.477" stroke="#8c8c8c" stroke-width="0.3" stroke-dasharray="1.2,0.8"/>
<line x1="75.479" y1="83.508" x2="58.448" y2="66.477" stroke="#8c8c8c" stroke-width="0.3" stroke-dasharray="1.2,0.8"/>
<line x1="49.445" y1="7.354" x2="32.414" y2="24.385" stroke="#8c8c8c" stroke-width="0.3" stroke-dasharray="1.2,0.8"/>
<line x1="41.417" y1="49.445" x2="24.386" y2="32.414" stroke="#8c8c8c" stroke-width="0.3" stroke-dasharray="1.2,0.8"/>
<line x1="7.354" y1="15.383" x2="24.386" y2="32.414" stroke="#8c8c8c" stroke-width="0.3" stroke-dasharray="1.2,0.8"/>
<line x1="66.477" y1="24.385" x2="49.445" y2="41.417" stroke="#8c8c8c" stroke-width="0.3" stroke-dasharray="1.2,0.8"/>
<line x1="58.448" y1="66.476" x2="41.417" y2="49.445" stroke="#8c8c8c" stroke-width="0.3" stroke-dasharray="1.2,0.8"/>
<line x1="49.445" y1="7.354" x2="66.477" y2="24.385" stroke="#8c8c8c" stroke-width="0.3" stroke-dasharray="1.2,0.8"/>
<line x1="75.479" y1="83.508" x2="83.508" y2="75.479" stroke="#8c8c8c" stroke-width="0.3" stroke-dasharray="1.2,0.8"/>
<line x1="15.383" y1="7.354" x2="32.414" y2="24.385" stroke="#141414" stroke-width="0.4"/>
<line x1="58.448" y1="100.539" x2="41.417" y2="83.508" stroke="#141414" stroke-width="0.4"/>
<line x1="75.479" y1="83.508" x2="58.448" y2="100.539" stroke="#141414" stroke-width="0.4"/>
<line x1="49.445" y1="41.417" x2="66.477" y2="58.448" stroke="#141414" stroke-width="0.4"/>
<line x1="41.417" y1="83.508" x2="58.448" y2="66.477" stroke="#141414" stroke-width="0.4"/>
<line x1="66.477" y1="58.448" x2="83.508" y2="75.479" stroke="#141414" stroke-width="0.4"/>
<line x1="7.354" y1="15.383" x2="15.383" y2="7.354" stroke="#141414" stroke-width="0.4"/>
<line x1="32.414" y1="24.385" x2="30.019" y2="16.881" stroke="#141414" stroke-width="0.4"/>
<line x1="30.019" y1="16.881" x2="41.941" y2="4.959" stroke="#141414" stroke-width="0.4"/>
<line x1="41.941" y1="4.959" x2="49.445" y2="7.354" stroke="#141414" stroke-width="0.4"/>
<line x1="24.386" y1="32.414" x2="21.991" y2="39.919" stroke="#141414" stroke-width="0.4"/>
<line x1="21.991" y1="39.919" x2="33.912" y2="51.84" stroke="#141414" stroke-width="0.4"/>
<line x1="33.912" y1="51.84" x2="41.417" y2="49.445" stroke="#141414" stroke-width="0.4"/>
<line x1="24.386" y1="32.414" x2="16.881" y2="34.809" stroke="#141414" stroke-width="0.4"/>
<line x1="16.881" y1="34.809" x2="4.959" y2="22.887" stroke="#141414" stroke-width="0.4"/>
<line x1="4.959" y1="22.887" x2="7.354" y2="15.383" stroke="#141414" stroke-width="0.4"/>
<line x1="49.445" y1="41.417" x2="56.95" y2="43.812" stroke="#141414" stroke-width="0.4"/>
<line x1="56.95" y1="43.812" x2="68.872" y2="31.89" stroke="#141414" stroke-width="0.4"/>
<line x1="68.872" y1="31.89" x2="66.477" y2="24.385" stroke="#141414" stroke-width="0.4"/>
<line x1="41.417" y1="49.445" x2="39.022" y2="56.95" stroke="#141414" stroke-width="0.4"/>
<line x1="39.022" y1="56.95" x2="50.944" y2="68.872" stroke="#141414" stroke-width="0.4"/>
<line x1="50.944" y1="68.872" x2="58.448" y2="66.476" stroke="#141414" stroke-width="0.4"/>
<line x1="66.477" y1="24.385" x2="68.872" y2="16.881" stroke="#141414" stroke-width="0.4"/>
<line x1="68.872" y1="16.881" x2="56.95" y2="4.959" stroke="#141414" stroke-width="0.4"/>
<line x1="56.95" y1="4.959" x2="49.445" y2="7.354" stroke="#141414" stroke-width="0.4"/>
<line x1="83.508" y1="75.479" x2="86.318" y2="80.698" stroke="#141414" stroke-width="0.4"/>
<line x1="86.318" y1="80.698" x2="80.698" y2="86.318" stroke="#141414" stroke-width="0.4"/>
<line x1="80.698" y1="86.318" x2="75.479" y2="83.508" stroke="#141414" stroke-width="0.4"/>
<circle cx="38.455" cy="13.395" r="2.37" fill="#ffe082" stroke="#464646" stroke-width="0.2"/>
<text x="38.455" y="14.52" font-size="3.22" text-anchor="middle" fill="#141414">51</text>
<circle cx="30.426" cy="43.405" r="2.37" fill="#ffe082" stroke="#464646" stroke-width="0.2"/>
<text x="30.426" y="44.53" font-size="3.22" text-anchor="middle" fill="#141414">52</text>
<circle cx="13.395" cy="26.373" r="2.37" fill="#ffe082" stroke="#464646" stroke-width="0.2"/>
<text x="13.395" y="27.50" font-size="3.22" text-anchor="middle" fill="#141414">53</text>
<circle cx="60.436" cy="35.376" r="2.37" fill="#ffe082" stroke="#464646" stroke-width="0.2"/>
<text x="60.436" y="36.50" font-size="3.22" text-anchor="middle" fill="#141414">54</text>
<circle cx="47.457" cy="60.436" r="2.37" fill="#ffe082" stroke="#464646" stroke-width="0.2"/>
<text x="47.457" y="61.56" font-size="3.22" text-anchor="middle" fill="#141414">55</text>
<circle cx="60.436" cy="13.395" r="2.37" fill="#ffe082" stroke="#464646" stroke-width="0.2"/>
<text x="60.436" y="14.52" font-size="3.22" text-anchor="middle" fill="#141414">56</text>
<circle cx="81.501" cy="81.501" r="2.37" fill="#99d9fa" stroke="#464646" stroke-width="0.2"/>
<text x="81.501" y="82.63" font-size="3.22" text-anchor="middle" fill="#141414">57</text>
<circle cx="52.446" cy="49.77" r="2.74" fill="#eaf1fe" stroke="#2e78e6" stroke-width="0.3"/>
<text x="52.446" y="50.84" font-size="3.10" text-anchor="middle" fill="#14306e" font-weight="bold">9</text>
<text x="205.0" y="295.0" font-size="3.2" text-anchor="end" fill="#737373" font-family="sans-serif">5 / 5</text>
</svg>
