<svg xmlns="http://www.w3.org/2000/svg" xmlns:xlink="http://www.w3.org/1999/xlink" width="210.00mm" height="297.00mm" viewBox="0 0 210.00 297.00">
<rect x="0" y="0" width="210.00" height="297.00" fill="#ffffff" stroke="#cccccc" stroke-width="0.2"/>
<polygon points="81.026,25.509 78.135,18.5 87.744,8.891 94.752,11.782" fill="rgb(216,216,216)"/>
<polygon points="10.327,106.121 8.993,108.218 12.043,111.269 14.14,109.934" fill="rgb(216,216,216)"/>
<polygon points="10.327,106.121 8.422,107.718 5.0,105.091 6.049,102.838" fill="rgb(216,216,216)"/>
<polygon points="94.752,39.235 101.761,42.126 111.37,32.517 108.479,25.509" fill="rgb(216,216,216)"/>
<polygon points="14.14,109.934 12.543,111.839 17.095,113.784 17.423,114.212" fill="rgb(216,216,216)"/>
<polygon points="108.479,25.509 111.37,18.5 101.761,8.891 94.752,11.782" fill="rgb(216,216,216)"/>
<polygon points="116.279,71.446 104.952,84.839 37.64,118.044 20.12,118.881" fill="rgb(216,216,216)"/>
<polygon points="81.026,25.509 78.135,18.5 87.744,8.891 94.752,11.782" fill="#99d9fa"/>
<line x1="10.327" y1="106.121" x2="81.026" y2="25.509" stroke="#8c8c8c" stroke-width="0.3" stroke-dasharray="1.2,0.8"/>
<line x1="94.752" y1="39.235" x2="81.026" y2="25.509" stroke="#8c8c8c" stroke-width="0.3" stroke-dasharray="1.2,0.8"/>
<line x1="94.752" y1="39.235" x2="14.14" y2="109.934" stroke="#8c8c8c" stroke-width="0.3" stroke-dasharray="1.2,0.8"/>
<line x1="106.571" y1="54.636" x2="17.423" y2="114.212" stroke="#8c8c8c" stroke-width="0.3" stroke-dasharray="1.2,0.8"/>
<line x1="20.12" y1="118.881" x2="17.423" y2="114.212" stroke="#8c8c8c" stroke-width="0.3" stroke-dasharray="1.2,0.8"/>
<line x1="94.752" y1="11.782" x2="81.026" y2="25.509" stroke="#8c8c8c" stroke-width="0.3" stroke-dasharray="1.2,0.8"/>
<line x1="14.14" y1="109.934" x2="10.327" y2="106.121" stroke="#8c8c8c" stroke-width="0.3" stroke-dasharray="1.2,0.8"/>
<line x1="6.049" y1="102.838" x2="10.327" y2="106.121" stroke="#8c8c8c" stroke-width="0.3" stroke-dasharray="1.2,0.8"/>
<line x1="108.479" y1="25.509" x2="94.752" y2="39.235" stroke="#8c8c8c" stroke-width="0.3" stroke-dasharray="1.2,0.8"/>
<line x1="17.423" y1="114.212" x2="14.14" y2="109.934" stroke="#8c8c8c" stroke-width="0.3" stroke-dasharray="1.2,0.8"/>
<line x1="94.752" y1="11.782" x2="108.479" y2="25.509" stroke="#8c8c8c" stroke-width="0.3" stroke-dasharray="1.2,0.8"/>
<line x1="20.12" y1="118.881" x2="116.279" y2="71.446" stroke="#8c8c8c" stroke-width="0.3" stroke-dasharray="1.2,0.8"/>
<line x1="65.626" y1="13.69" x2="81.026" y2="25.509" stroke="#141414" stroke-width="0.4"/>
<line x1="15.45" y1="121.578" x2="12.754" y2="116.908" stroke="#141414" stroke-width="0.4"/>
<line x1="20.12" y1="118.881" x2="15.45" y2="121.578" stroke="#141414" stroke-width="0.4"/>
<line x1="94.752" y1="39.235" x2="106.571" y2="54.636" stroke="#141414" stroke-width="0.4"/>
<line x1="12.754" y1="116.908" x2="17.423" y2="114.212" stroke="#141414" stroke-width="0.4"/>
<line x1="106.571" y1="54.636" x2="116.279" y2="71.447" stroke="#141414" stroke-width="0.4"/>
<line x1="6.049" y1="102.838" x2="65.626" y2="13.69" stroke="#141414" stroke-width="0.4"/>
<line x1="81.026" y1="25.509" x2="78.135" y2="18.5" stroke="#141414" stroke-width="0.4"/>
<line x1="78.135" y1="18.5" x2="87.744" y2="8.891" stroke="#141414" stroke-width="0.4"/>
<line x1="87.744" y1="8.891" x2="94.752" y2="11.782" stroke="#141414" stroke-width="0.4"/>
<line x1="10.327" y1="106.121" x2="8.993" y2="108.218" stroke="#141414" stroke-width="0.4"/>
<line x1="8.993" y1="108.218" x2="12.043" y2="111.269" stroke="#141414" stroke-width="0.4"/>
<line x1="12.043" y1="111.269" x2="14.14" y2="109.934" stroke="#141414" stroke-width="0.4"/>
<line x1="10.327" y1="106.121" x2="8.422" y2="107.718" stroke="#141414" stroke-width="0.4"/>
<line x1="8.422" y1="107.718" x2="5.0" y2="105.091" stroke="#141414" stroke-width="0.4"/>
<line x1="5.0" y1="105.091" x2="6.049" y2="102.838" stroke="#141414" stroke-width="0.4"/>
<line x1="94.752" y1="39.235" x2="101.761" y2="42.126" stroke="#141414" stroke-width="0.4"/>
<line x1="101.761" y1="42.126" x2="111.37" y2="32.517" stroke="#141414" stroke-width="0.4"/>
<line x1="111.37" y1="32.517" x2="108.479" y2="25.509" stroke="#141414" stroke-width="0.4"/>
<line x1="14.14" y1="109.934" x2="12.543" y2="111.839" stroke="#141414" stroke-width="0.4"/>
<line x1="12.543" y1="111.839" x2="17.095" y2="113.784" stroke="#141414" stroke-width="0.4"/>
<line x1="17.095" y1="113.784" x2="17.423" y2="114.212" stroke="#141414" stroke-width="0.4"/>
<line x1="108.479" y1="25.509" x2="111.37" y2="18.5" stroke="#141414" stroke-width="0.4"/>
<line x1="111.37" y1="18.5" x2="101.761" y2="8.891" stroke="#141414" stroke-width="0.4"/>
<line x1="101.761" y1="8.891" x2="94.752" y2="11.782" stroke="#141414" stroke-width="0.4"/>
<line x1="116.279" y1="71.446" x2="104.952" y2="84.839" stroke="#141414" stroke-width="0.4"/>
<line x1="104.952" y1="84.839" x2="37.64" y2="118.044" stroke="#141414" stroke-width="0.4"/>
<line x1="37.64" y1="118.044" x2="20.12" y2="118.881" stroke="#141414" stroke-width="0.4"/>
<circle cx="85.414" cy="16.171" r="2.25" fill="#99d9fa" stroke="#464646" stroke-width="0.2"/>
<text x="85.414" y="17.24" font-size="3.06" text-anchor="middle" fill="#141414">54</text>
<circle cx="104.091" cy="34.847" r="2.25" fill="#ffe082" stroke="#464646" stroke-width="0.2"/>
<text x="104.091" y="35.92" font-size="3.06" text-anchor="middle" fill="#141414">57</text>
<circle cx="104.091" cy="16.171" r="2.25" fill="#ffe082" stroke="#464646" stroke-width="0.2"/>
<text x="104.091" y="17.24" font-size="3.06" text-anchor="middle" fill="#141414">59</text>
<circle cx="69.748" cy="98.303" r="2.25" fill="#ffe082" stroke="#464646" stroke-width="0.2"/>
<text x="69.748" y="99.37" font-size="3.06" text-anchor="middle" fill="#141414">60</text>
<circle cx="80.091" cy="80.098" r="4.60" fill="#eaf1fe" stroke="#2e78e6" stroke-width="0.3"/>
<text x="80.091" y="81.90" font-size="5.20" text-anchor="middle" fill="#14306e" font-weight="bold">8</text>
<text x="205.0" y="295.0" font-size="3.2" text-anchor="end" fill="#737373" font-family="sans-serif">5 / 5</text>
<g pointer-events="none"><text x="105.0" y="83.2" text-anchor="middle" font-family="sans-serif" font-size="12.4" fill="#9aa0a6" fill-opacity="0.3" transform="rotate(-28 105.0 83.2)">papercraft.kr</text><text x="105.0" y="148.5" text-anchor="middle" font-family="sans-serif" font-size="12.4" fill="#9aa0a6" fill-opacity="0.3" transform="rotate(-28 105.0 148.5)">papercraft.kr</text><text x="105.0" y="213.8" text-anchor="middle" font-family="sans-serif" font-size="12.4" fill="#9aa0a6" fill-opacity="0.3" transform="rotate(-28 105.0 213.8)">papercraft.kr</text></g></svg>
