<svg xmlns="http://www.w3.org/2000/svg" xmlns:xlink="http://www.w3.org/1999/xlink" width="210.00mm" height="297.00mm" viewBox="0 0 210.00 297.00">
<rect x="0" y="0" width="210.00" height="297.00" fill="#ffffff" stroke="#cccccc" stroke-width="0.2"/>
<polygon points="64.783,48.13 60.291,55.13 39.325,55.13 34.832,48.13" fill="rgb(216,216,216)"/>
<polygon points="64.783,34.951 67.479,27.951 80.059,27.951 82.754,34.951" fill="rgb(216,216,216)"/>
<polygon points="64.783,34.951 60.291,27.951 39.325,27.951 34.832,34.951" fill="rgb(216,216,216)"/>
<polygon points="82.754,48.13 89.754,52.623 89.754,73.589 82.754,78.082" fill="rgb(216,216,216)"/>
<polygon points="16.861,5.0 9.861,9.493 9.861,30.459 16.861,34.951" fill="rgb(216,216,216)"/>
<polygon points="64.783,78.082 67.479,85.082 80.059,85.082 82.754,78.082" fill="rgb(216,216,216)"/>
<polygon points="112.706,48.13 119.295,46.153 119.295,36.928 112.706,34.951" fill="rgb(216,216,216)"/>
<line x1="64.783" y1="48.13" x2="64.783" y2="34.951" stroke="#8c8c8c" stroke-width="0.3" stroke-dasharray="1.2,0.8"/>
<line x1="82.754" y1="48.13" x2="64.783" y2="48.13" stroke="#8c8c8c" stroke-width="0.3" stroke-dasharray="1.2,0.8"/>
<line x1="82.754" y1="34.951" x2="82.754" y2="48.13" stroke="#8c8c8c" stroke-width="0.3" stroke-dasharray="1.2,0.8"/>
<line x1="34.832" y1="48.13" x2="34.832" y2="34.951" stroke="#8c8c8c" stroke-width="0.3" stroke-dasharray="1.2,0.8"/>
<line x1="34.832" y1="34.951" x2="16.861" y2="34.951" stroke="#8c8c8c" stroke-width="0.3" stroke-dasharray="1.2,0.8"/>
<line x1="34.832" y1="48.13" x2="64.783" y2="48.13" stroke="#8c8c8c" stroke-width="0.3" stroke-dasharray="1.2,0.8"/>
<line x1="82.754" y1="34.951" x2="64.783" y2="34.951" stroke="#8c8c8c" stroke-width="0.3" stroke-dasharray="1.2,0.8"/>
<line x1="34.832" y1="34.951" x2="64.783" y2="34.951" stroke="#8c8c8c" stroke-width="0.3" stroke-dasharray="1.2,0.8"/>
<line x1="82.754" y1="78.082" x2="82.754" y2="48.13" stroke="#8c8c8c" stroke-width="0.3" stroke-dasharray="1.2,0.8"/>
<line x1="16.861" y1="34.951" x2="16.861" y2="5.0" stroke="#8c8c8c" stroke-width="0.3" stroke-dasharray="1.2,0.8"/>
<line x1="82.754" y1="78.082" x2="64.783" y2="78.082" stroke="#8c8c8c" stroke-width="0.3" stroke-dasharray="1.2,0.8"/>
<line x1="112.706" y1="34.951" x2="112.706" y2="48.13" stroke="#8c8c8c" stroke-width="0.3" stroke-dasharray="1.2,0.8"/>
<line x1="64.783" y1="78.082" x2="64.783" y2="48.13" stroke="#141414" stroke-width="0.4"/>
<line x1="16.861" y1="5.0" x2="34.832" y2="5.0" stroke="#141414" stroke-width="0.4"/>
<line x1="34.832" y1="5.0" x2="34.832" y2="34.951" stroke="#141414" stroke-width="0.4"/>
<line x1="112.706" y1="48.13" x2="82.754" y2="48.13" stroke="#141414" stroke-width="0.4"/>
<line x1="82.754" y1="34.951" x2="112.706" y2="34.951" stroke="#141414" stroke-width="0.4"/>
<line x1="34.832" y1="48.13" x2="16.861" y2="48.13" stroke="#141414" stroke-width="0.4"/>
<line x1="16.861" y1="48.13" x2="16.861" y2="34.951" stroke="#141414" stroke-width="0.4"/>
<line x1="64.783" y1="48.13" x2="60.291" y2="55.13" stroke="#141414" stroke-width="0.4"/>
<line x1="60.291" y1="55.13" x2="39.325" y2="55.13" stroke="#141414" stroke-width="0.4"/>
<line x1="39.325" y1="55.13" x2="34.832" y2="48.13" stroke="#141414" stroke-width="0.4"/>
<line x1="64.783" y1="34.951" x2="67.479" y2="27.951" stroke="#141414" stroke-width="0.4"/>
<line x1="67.479" y1="27.951" x2="80.059" y2="27.951" stroke="#141414" stroke-width="0.4"/>
<line x1="80.059" y1="27.951" x2="82.754" y2="34.951" stroke="#141414" stroke-width="0.4"/>
<line x1="64.783" y1="34.951" x2="60.291" y2="27.951" stroke="#141414" stroke-width="0.4"/>
<line x1="60.291" y1="27.951" x2="39.325" y2="27.951" stroke="#141414" stroke-width="0.4"/>
<line x1="39.325" y1="27.951" x2="34.832" y2="34.951" stroke="#141414" stroke-width="0.4"/>
<line x1="82.754" y1="48.13" x2="89.754" y2="52.623" stroke="#141414" stroke-width="0.4"/>
<line x1="89.754" y1="52.623" x2="89.754" y2="73.589" stroke="#141414" stroke-width="0.4"/>
<line x1="89.754" y1="73.589" x2="82.754" y2="78.082" stroke="#141414" stroke-width="0.4"/>
<line x1="16.861" y1="5.0" x2="9.861" y2="9.493" stroke="#141414" stroke-width="0.4"/>
<line x1="9.861" y1="9.493" x2="9.861" y2="30.459" stroke="#141414" stroke-width="0.4"/>
<line x1="9.861" y1="30.459" x2="16.861" y2="34.951" stroke="#141414" stroke-width="0.4"/>
<line x1="64.783" y1="78.082" x2="67.479" y2="85.082" stroke="#141414" stroke-width="0.4"/>
<line x1="67.479" y1="85.082" x2="80.059" y2="85.082" stroke="#141414" stroke-width="0.4"/>
<line x1="80.059" y1="85.082" x2="82.754" y2="78.082" stroke="#141414" stroke-width="0.4"/>
<line x1="112.706" y1="48.13" x2="119.295" y2="46.153" stroke="#141414" stroke-width="0.4"/>
<line x1="119.295" y1="46.153" x2="119.295" y2="36.928" stroke="#141414" stroke-width="0.4"/>
<line x1="119.295" y1="36.928" x2="112.706" y2="34.951" stroke="#141414" stroke-width="0.4"/>
<circle cx="49.808" cy="51.63" r="1.63" fill="#ffe082" stroke="#464646" stroke-width="0.2"/>
<text x="49.808" y="52.19" font-size="1.59" text-anchor="middle" fill="#141414">40</text>
<circle cx="73.769" cy="31.452" r="1.63" fill="#ffe082" stroke="#464646" stroke-width="0.2"/>
<text x="73.769" y="32.01" font-size="1.59" text-anchor="middle" fill="#141414">41</text>
<circle cx="49.808" cy="31.452" r="1.63" fill="#ffe082" stroke="#464646" stroke-width="0.2"/>
<text x="49.808" y="32.01" font-size="1.59" text-anchor="middle" fill="#141414">42</text>
<circle cx="86.254" cy="63.106" r="1.63" fill="#ffe082" stroke="#464646" stroke-width="0.2"/>
<text x="86.254" y="63.66" font-size="1.59" text-anchor="middle" fill="#141414">43</text>
<circle cx="13.361" cy="19.976" r="1.63" fill="#ffe082" stroke="#464646" stroke-width="0.2"/>
<text x="13.361" y="20.53" font-size="1.59" text-anchor="middle" fill="#141414">44</text>
<circle cx="73.769" cy="81.582" r="1.63" fill="#ffe082" stroke="#464646" stroke-width="0.2"/>
<text x="73.769" y="82.14" font-size="1.59" text-anchor="middle" fill="#141414">45</text>
<circle cx="116.001" cy="41.541" r="1.63" fill="#ffe082" stroke="#464646" stroke-width="0.2"/>
<text x="116.001" y="42.10" font-size="1.59" text-anchor="middle" fill="#141414">46</text>
<circle cx="59.717" cy="91.182" r="4.6" fill="#eaf1fe" stroke="#2e78e6" stroke-width="0.3"/>
<text x="59.717" y="92.982" font-size="5.2" text-anchor="middle" fill="#14306e" font-weight="bold">4</text>
<polygon points="46.687,130.56 37.539,130.315 36.139,128.56 37.936,119.586" fill="rgb(216,216,216)"/>
<polygon points="60.722,130.56 67.059,123.957 69.299,124.102 74.728,131.47" fill="rgb(216,216,216)"/>
<polygon points="54.413,259.994 55.623,265.488 63.146,266.052 65.16,260.798" fill="rgb(216,216,216)"/>
<polygon points="69.473,119.586 75.829,115.976 73.643,106.398 66.35,105.903" fill="rgb(216,216,216)"/>
<polygon points="66.35,105.903 67.49,98.683 58.639,94.42 53.705,99.814" fill="rgb(216,216,216)"/>
<polygon points="65.16,260.798 65.595,264.876 71.001,265.888 72.882,262.244" fill="rgb(216,216,216)"/>
<polygon points="102.398,136.103 104.787,156.619 84.125,244.918 72.882,262.244" fill="rgb(216,216,216)"/>
<polygon points="53.705,99.814 48.771,94.42 39.919,98.683 41.059,105.903" fill="rgb(216,216,216)"/>
<polygon points="34.204,262.269 36.656,271.719 40.177,265.943 39.813,261.159" fill="rgb(216,216,216)"/>
<polygon points="41.059,105.903 33.767,106.398 31.58,115.976 37.936,119.586" fill="rgb(216,216,216)"/>
<polygon points="39.813,261.159 40.981,265.644 44.916,260.487 45.483,260.412" fill="rgb(216,216,216)"/>
<line x1="46.687" y1="130.56" x2="60.722" y2="130.56" stroke="#8c8c8c" stroke-width="0.3" stroke-dasharray="1.2,0.8"/>
<line x1="54.413" y1="259.994" x2="46.687" y2="130.56" stroke="#8c8c8c" stroke-width="0.3" stroke-dasharray="1.2,0.8"/>
<line x1="46.687" y1="130.56" x2="45.482" y2="260.412" stroke="#8c8c8c" stroke-width="0.3" stroke-dasharray="1.2,0.8"/>
<line x1="60.722" y1="130.56" x2="54.413" y2="259.994" stroke="#8c8c8c" stroke-width="0.3" stroke-dasharray="1.2,0.8"/>
<line x1="74.728" y1="131.47" x2="54.413" y2="259.994" stroke="#8c8c8c" stroke-width="0.3" stroke-dasharray="1.2,0.8"/>
<line x1="45.482" y1="260.412" x2="54.413" y2="259.994" stroke="#8c8c8c" stroke-width="0.3" stroke-dasharray="1.2,0.8"/>
<line x1="74.728" y1="131.47" x2="65.16" y2="260.798" stroke="#8c8c8c" stroke-width="0.3" stroke-dasharray="1.2,0.8"/>
<line x1="88.638" y1="133.337" x2="65.16" y2="260.798" stroke="#8c8c8c" stroke-width="0.3" stroke-dasharray="1.2,0.8"/>
<line x1="18.768" y1="133.331" x2="39.813" y2="261.159" stroke="#8c8c8c" stroke-width="0.3" stroke-dasharray="1.2,0.8"/>
<line x1="32.683" y1="131.497" x2="45.482" y2="260.412" stroke="#8c8c8c" stroke-width="0.3" stroke-dasharray="1.2,0.8"/>
<line x1="102.398" y1="136.103" x2="65.16" y2="260.798" stroke="#8c8c8c" stroke-width="0.3" stroke-dasharray="1.2,0.8"/>
<line x1="37.936" y1="119.586" x2="46.687" y2="130.56" stroke="#8c8c8c" stroke-width="0.3" stroke-dasharray="1.2,0.8"/>
<line x1="74.728" y1="131.47" x2="60.722" y2="130.56" stroke="#8c8c8c" stroke-width="0.3" stroke-dasharray="1.2,0.8"/>
<line x1="65.16" y1="260.798" x2="54.413" y2="259.994" stroke="#8c8c8c" stroke-width="0.3" stroke-dasharray="1.2,0.8"/>
<line x1="66.35" y1="105.903" x2="69.473" y2="119.586" stroke="#8c8c8c" stroke-width="0.3" stroke-dasharray="1.2,0.8"/>
<line x1="53.705" y1="99.814" x2="66.35" y2="105.903" stroke="#8c8c8c" stroke-width="0.3" stroke-dasharray="1.2,0.8"/>
<line x1="72.882" y1="262.244" x2="65.16" y2="260.798" stroke="#8c8c8c" stroke-width="0.3" stroke-dasharray="1.2,0.8"/>
<line x1="72.882" y1="262.244" x2="102.398" y2="136.103" stroke="#8c8c8c" stroke-width="0.3" stroke-dasharray="1.2,0.8"/>
<line x1="41.059" y1="105.903" x2="53.705" y2="99.814" stroke="#8c8c8c" stroke-width="0.3" stroke-dasharray="1.2,0.8"/>
<line x1="39.813" y1="261.159" x2="34.204" y2="262.269" stroke="#8c8c8c" stroke-width="0.3" stroke-dasharray="1.2,0.8"/>
<line x1="37.936" y1="119.586" x2="41.059" y2="105.903" stroke="#8c8c8c" stroke-width="0.3" stroke-dasharray="1.2,0.8"/>
<line x1="45.483" y1="260.412" x2="39.813" y2="261.159" stroke="#8c8c8c" stroke-width="0.3" stroke-dasharray="1.2,0.8"/>
<line x1="32.683" y1="131.497" x2="46.687" y2="130.56" stroke="#141414" stroke-width="0.4"/>
<line x1="69.473" y1="119.586" x2="60.722" y2="130.56" stroke="#141414" stroke-width="0.4"/>
<line x1="54.413" y1="259.994" x2="54.088" y2="270.766" stroke="#141414" stroke-width="0.4"/>
<line x1="74.728" y1="131.47" x2="88.638" y2="133.337" stroke="#141414" stroke-width="0.4"/>
<line x1="88.638" y1="133.337" x2="102.398" y2="136.103" stroke="#141414" stroke-width="0.4"/>
<line x1="54.088" y1="270.766" x2="46.232" y2="270.688" stroke="#141414" stroke-width="0.4"/>
<line x1="34.204" y1="262.269" x2="5.0" y2="136.055" stroke="#141414" stroke-width="0.4"/>
<line x1="5.0" y1="136.055" x2="18.768" y2="133.331" stroke="#141414" stroke-width="0.4"/>
<line x1="46.232" y1="270.688" x2="43.383" y2="265.731" stroke="#141414" stroke-width="0.4"/>
<line x1="18.768" y1="133.331" x2="32.683" y2="131.497" stroke="#141414" stroke-width="0.4"/>
<line x1="43.383" y1="265.731" x2="45.482" y2="260.412" stroke="#141414" stroke-width="0.4"/>
<line x1="46.687" y1="130.56" x2="37.539" y2="130.315" stroke="#141414" stroke-width="0.4"/>
<line x1="37.539" y1="130.315" x2="36.139" y2="128.56" stroke="#141414" stroke-width="0.4"/>
<line x1="36.139" y1="128.56" x2="37.936" y2="119.586" stroke="#141414" stroke-width="0.4"/>
<line x1="60.722" y1="130.56" x2="67.059" y2="123.957" stroke="#141414" stroke-width="0.4"/>
<line x1="67.059" y1="123.957" x2="69.299" y2="124.102" stroke="#141414" stroke-width="0.4"/>
<line x1="69.299" y1="124.102" x2="74.728" y2="131.47" stroke="#141414" stroke-width="0.4"/>
<line x1="54.413" y1="259.994" x2="55.623" y2="265.488" stroke="#141414" stroke-width="0.4"/>
<line x1="55.623" y1="265.488" x2="63.146" y2="266.052" stroke="#141414" stroke-width="0.4"/>
<line x1="63.146" y1="266.052" x2="65.16" y2="260.798" stroke="#141414" stroke-width="0.4"/>
<line x1="69.473" y1="119.586" x2="75.829" y2="115.976" stroke="#141414" stroke-width="0.4"/>
<line x1="75.829" y1="115.976" x2="73.643" y2="106.398" stroke="#141414" stroke-width="0.4"/>
<line x1="73.643" y1="106.398" x2="66.35" y2="105.903" stroke="#141414" stroke-width="0.4"/>
<line x1="66.35" y1="105.903" x2="67.49" y2="98.683" stroke="#141414" stroke-width="0.4"/>
<line x1="67.49" y1="98.683" x2="58.639" y2="94.42" stroke="#141414" stroke-width="0.4"/>
<line x1="58.639" y1="94.42" x2="53.705" y2="99.814" stroke="#141414" stroke-width="0.4"/>
<line x1="65.16" y1="260.798" x2="65.595" y2="264.876" stroke="#141414" stroke-width="0.4"/>
<line x1="65.595" y1="264.876" x2="71.001" y2="265.888" stroke="#141414" stroke-width="0.4"/>
<line x1="71.001" y1="265.888" x2="72.882" y2="262.244" stroke="#141414" stroke-width="0.4"/>
<line x1="102.398" y1="136.103" x2="104.787" y2="156.619" stroke="#141414" stroke-width="0.4"/>
<line x1="104.787" y1="156.619" x2="84.125" y2="244.918" stroke="#141414" stroke-width="0.4"/>
<line x1="84.125" y1="244.918" x2="72.882" y2="262.244" stroke="#141414" stroke-width="0.4"/>
<line x1="53.705" y1="99.814" x2="48.771" y2="94.42" stroke="#141414" stroke-width="0.4"/>
<line x1="48.771" y1="94.42" x2="39.919" y2="98.683" stroke="#141414" stroke-width="0.4"/>
<line x1="39.919" y1="98.683" x2="41.059" y2="105.903" stroke="#141414" stroke-width="0.4"/>
<line x1="34.204" y1="262.269" x2="36.656" y2="271.719" stroke="#141414" stroke-width="0.4"/>
<line x1="36.656" y1="271.719" x2="40.177" y2="265.943" stroke="#141414" stroke-width="0.4"/>
<line x1="40.177" y1="265.943" x2="39.813" y2="261.159" stroke="#141414" stroke-width="0.4"/>
<line x1="41.059" y1="105.903" x2="33.767" y2="106.398" stroke="#141414" stroke-width="0.4"/>
<line x1="33.767" y1="106.398" x2="31.58" y2="115.976" stroke="#141414" stroke-width="0.4"/>
<line x1="31.58" y1="115.976" x2="37.936" y2="119.586" stroke="#141414" stroke-width="0.4"/>
<line x1="39.813" y1="261.159" x2="40.981" y2="265.644" stroke="#141414" stroke-width="0.4"/>
<line x1="40.981" y1="265.644" x2="44.916" y2="260.487" stroke="#141414" stroke-width="0.4"/>
<line x1="44.916" y1="260.487" x2="45.483" y2="260.412" stroke="#141414" stroke-width="0.4"/>
<circle cx="39.575" cy="127.255" r="1.63" fill="#ffe082" stroke="#464646" stroke-width="0.2"/>
<text x="39.575" y="127.81" font-size="1.59" text-anchor="middle" fill="#141414">47</text>
<circle cx="67.952" cy="127.522" r="1.63" fill="#ffe082" stroke="#464646" stroke-width="0.2"/>
<text x="67.952" y="128.08" font-size="1.59" text-anchor="middle" fill="#141414">48</text>
<circle cx="59.585" cy="263.083" r="1.63" fill="#ffe082" stroke="#464646" stroke-width="0.2"/>
<text x="59.585" y="263.64" font-size="1.59" text-anchor="middle" fill="#141414">49</text>
<circle cx="71.324" cy="111.966" r="1.63" fill="#ffe082" stroke="#464646" stroke-width="0.2"/>
<text x="71.324" y="112.52" font-size="1.59" text-anchor="middle" fill="#141414">50</text>
<circle cx="61.546" cy="99.705" r="1.63" fill="#ffe082" stroke="#464646" stroke-width="0.2"/>
<text x="61.546" y="100.26" font-size="1.59" text-anchor="middle" fill="#141414">51</text>
<circle cx="68.66" cy="263.452" r="1.63" fill="#ffe082" stroke="#464646" stroke-width="0.2"/>
<text x="68.66" y="264.01" font-size="1.59" text-anchor="middle" fill="#141414">52</text>
<circle cx="91.048" cy="199.971" r="1.63" fill="#ffe082" stroke="#464646" stroke-width="0.2"/>
<text x="91.048" y="200.53" font-size="1.59" text-anchor="middle" fill="#141414">53</text>
<circle cx="45.863" cy="99.705" r="1.63" fill="#ffe082" stroke="#464646" stroke-width="0.2"/>
<text x="45.863" y="100.26" font-size="1.59" text-anchor="middle" fill="#141414">54</text>
<circle cx="36.086" cy="111.966" r="1.63" fill="#ffe082" stroke="#464646" stroke-width="0.2"/>
<text x="36.086" y="112.52" font-size="1.59" text-anchor="middle" fill="#141414">56</text>
<circle cx="54.893" cy="81.982" r="4.6" fill="#eaf1fe" stroke="#2e78e6" stroke-width="0.3"/>
<text x="54.893" y="83.782" font-size="5.2" text-anchor="middle" fill="#14306e" font-weight="bold">5</text>
<polygon points="140.022,121.12 132.896,120.939 131.807,119.573 133.216,112.586" fill="rgb(216,216,216)"/>
<polygon points="150.938,121.12 157.837,121.21 159.742,118.821 157.744,112.586" fill="rgb(216,216,216)"/>
<polygon points="146.446,161.432 140.317,163.147 140.157,171.678 146.217,173.621" fill="rgb(216,216,216)"/>
<polygon points="157.744,112.586 162.701,109.775 161.001,102.325 155.315,101.943" fill="rgb(216,216,216)"/>
<polygon points="155.315,101.943 156.208,96.315 149.323,92.999 145.48,97.206" fill="rgb(216,216,216)"/>
<polygon points="161.073,162.837 162.931,168.8 167.094,169.813 171.482,165.368" fill="rgb(216,216,216)"/>
<polygon points="183.126,126.675 188.083,134.496 179.932,161.581 171.482,165.368" fill="rgb(216,216,216)"/>
<polygon points="145.48,97.206 141.636,92.999 134.752,96.315 135.645,101.943" fill="rgb(216,216,216)"/>
<polygon points="119.018,165.331 121.092,168.833 126.39,167.52 126.586,163.454" fill="rgb(216,216,216)"/>
<polygon points="135.645,101.943 129.959,102.325 128.259,109.775 133.216,112.586" fill="rgb(216,216,216)"/>
<polygon points="126.586,163.454 129.537,166.913 132.614,166.398 134.277,162.167" fill="rgb(216,216,216)"/>
<line x1="140.022" y1="121.12" x2="150.938" y2="121.12" stroke="#8c8c8c" stroke-width="0.3" stroke-dasharray="1.2,0.8"/>
<line x1="146.446" y1="161.432" x2="140.022" y2="121.12" stroke="#8c8c8c" stroke-width="0.3" stroke-dasharray="1.2,0.8"/>
<line x1="140.022" y1="121.12" x2="134.277" y2="162.167" stroke="#8c8c8c" stroke-width="0.3" stroke-dasharray="1.2,0.8"/>
<line x1="150.938" y1="121.12" x2="146.446" y2="161.432" stroke="#8c8c8c" stroke-width="0.3" stroke-dasharray="1.2,0.8"/>
<line x1="161.819" y1="121.994" x2="146.446" y2="161.432" stroke="#8c8c8c" stroke-width="0.3" stroke-dasharray="1.2,0.8"/>
<line x1="161.073" y1="162.837" x2="146.446" y2="161.432" stroke="#8c8c8c" stroke-width="0.3" stroke-dasharray="1.2,0.8"/>
<line x1="161.819" y1="121.994" x2="161.073" y2="162.837" stroke="#8c8c8c" stroke-width="0.3" stroke-dasharray="1.2,0.8"/>
<line x1="172.566" y1="123.907" x2="161.073" y2="162.837" stroke="#8c8c8c" stroke-width="0.3" stroke-dasharray="1.2,0.8"/>
<line x1="118.382" y1="123.889" x2="126.587" y2="163.454" stroke="#8c8c8c" stroke-width="0.3" stroke-dasharray="1.2,0.8"/>
<line x1="129.148" y1="122.087" x2="134.277" y2="162.167" stroke="#8c8c8c" stroke-width="0.3" stroke-dasharray="1.2,0.8"/>
<line x1="183.126" y1="126.675" x2="161.073" y2="162.837" stroke="#8c8c8c" stroke-width="0.3" stroke-dasharray="1.2,0.8"/>
<line x1="133.216" y1="112.586" x2="140.022" y2="121.12" stroke="#8c8c8c" stroke-width="0.3" stroke-dasharray="1.2,0.8"/>
<line x1="157.744" y1="112.586" x2="150.938" y2="121.12" stroke="#8c8c8c" stroke-width="0.3" stroke-dasharray="1.2,0.8"/>
<line x1="146.217" y1="173.621" x2="146.446" y2="161.432" stroke="#8c8c8c" stroke-width="0.3" stroke-dasharray="1.2,0.8"/>
<line x1="155.315" y1="101.943" x2="157.744" y2="112.586" stroke="#8c8c8c" stroke-width="0.3" stroke-dasharray="1.2,0.8"/>
<line x1="145.48" y1="97.206" x2="155.315" y2="101.943" stroke="#8c8c8c" stroke-width="0.3" stroke-dasharray="1.2,0.8"/>
<line x1="171.482" y1="165.368" x2="161.073" y2="162.837" stroke="#8c8c8c" stroke-width="0.3" stroke-dasharray="1.2,0.8"/>
<line x1="171.482" y1="165.368" x2="183.126" y2="126.675" stroke="#8c8c8c" stroke-width="0.3" stroke-dasharray="1.2,0.8"/>
<line x1="135.645" y1="101.943" x2="145.48" y2="97.206" stroke="#8c8c8c" stroke-width="0.3" stroke-dasharray="1.2,0.8"/>
<line x1="126.586" y1="163.454" x2="119.018" y2="165.331" stroke="#8c8c8c" stroke-width="0.3" stroke-dasharray="1.2,0.8"/>
<line x1="133.216" y1="112.586" x2="135.645" y2="101.943" stroke="#8c8c8c" stroke-width="0.3" stroke-dasharray="1.2,0.8"/>
<line x1="134.277" y1="162.167" x2="126.586" y2="163.454" stroke="#8c8c8c" stroke-width="0.3" stroke-dasharray="1.2,0.8"/>
<line x1="129.148" y1="122.087" x2="140.022" y2="121.12" stroke="#141414" stroke-width="0.4"/>
<line x1="150.938" y1="121.12" x2="161.819" y2="121.994" stroke="#141414" stroke-width="0.4"/>
<line x1="146.446" y1="161.432" x2="134.277" y2="162.167" stroke="#141414" stroke-width="0.4"/>
<line x1="161.819" y1="121.994" x2="172.566" y2="123.907" stroke="#141414" stroke-width="0.4"/>
<line x1="172.566" y1="123.907" x2="183.126" y2="126.675" stroke="#141414" stroke-width="0.4"/>
<line x1="161.073" y1="162.837" x2="160.267" y2="173.519" stroke="#141414" stroke-width="0.4"/>
<line x1="119.018" y1="165.331" x2="107.787" y2="126.516" stroke="#141414" stroke-width="0.4"/>
<line x1="107.787" y1="126.516" x2="118.382" y2="123.889" stroke="#141414" stroke-width="0.4"/>
<line x1="160.267" y1="173.519" x2="153.267" y2="176.953" stroke="#141414" stroke-width="0.4"/>
<line x1="118.382" y1="123.889" x2="129.148" y2="122.087" stroke="#141414" stroke-width="0.4"/>
<line x1="153.267" y1="176.953" x2="146.217" y2="173.621" stroke="#141414" stroke-width="0.4"/>
<line x1="140.022" y1="121.12" x2="132.896" y2="120.939" stroke="#141414" stroke-width="0.4"/>
<line x1="132.896" y1="120.939" x2="131.807" y2="119.573" stroke="#141414" stroke-width="0.4"/>
<line x1="131.807" y1="119.573" x2="133.216" y2="112.586" stroke="#141414" stroke-width="0.4"/>
<line x1="150.938" y1="121.12" x2="157.837" y2="121.21" stroke="#141414" stroke-width="0.4"/>
<line x1="157.837" y1="121.21" x2="159.742" y2="118.821" stroke="#141414" stroke-width="0.4"/>
<line x1="159.742" y1="118.821" x2="157.744" y2="112.586" stroke="#141414" stroke-width="0.4"/>
<line x1="146.446" y1="161.432" x2="140.317" y2="163.147" stroke="#141414" stroke-width="0.4"/>
<line x1="140.317" y1="163.147" x2="140.157" y2="171.678" stroke="#141414" stroke-width="0.4"/>
<line x1="140.157" y1="171.678" x2="146.217" y2="173.621" stroke="#141414" stroke-width="0.4"/>
<line x1="157.744" y1="112.586" x2="162.701" y2="109.775" stroke="#141414" stroke-width="0.4"/>
<line x1="162.701" y1="109.775" x2="161.001" y2="102.325" stroke="#141414" stroke-width="0.4"/>
<line x1="161.001" y1="102.325" x2="155.315" y2="101.943" stroke="#141414" stroke-width="0.4"/>
<line x1="155.315" y1="101.943" x2="156.208" y2="96.315" stroke="#141414" stroke-width="0.4"/>
<line x1="156.208" y1="96.315" x2="149.323" y2="92.999" stroke="#141414" stroke-width="0.4"/>
<line x1="149.323" y1="92.999" x2="145.48" y2="97.206" stroke="#141414" stroke-width="0.4"/>
<line x1="161.073" y1="162.837" x2="162.931" y2="168.8" stroke="#141414" stroke-width="0.4"/>
<line x1="162.931" y1="168.8" x2="167.094" y2="169.813" stroke="#141414" stroke-width="0.4"/>
<line x1="167.094" y1="169.813" x2="171.482" y2="165.368" stroke="#141414" stroke-width="0.4"/>
<line x1="183.126" y1="126.675" x2="188.083" y2="134.496" stroke="#141414" stroke-width="0.4"/>
<line x1="188.083" y1="134.496" x2="179.932" y2="161.581" stroke="#141414" stroke-width="0.4"/>
<line x1="179.932" y1="161.581" x2="171.482" y2="165.368" stroke="#141414" stroke-width="0.4"/>
<line x1="145.48" y1="97.206" x2="141.636" y2="92.999" stroke="#141414" stroke-width="0.4"/>
<line x1="141.636" y1="92.999" x2="134.752" y2="96.315" stroke="#141414" stroke-width="0.4"/>
<line x1="134.752" y1="96.315" x2="135.645" y2="101.943" stroke="#141414" stroke-width="0.4"/>
<line x1="119.018" y1="165.331" x2="121.092" y2="168.833" stroke="#141414" stroke-width="0.4"/>
<line x1="121.092" y1="168.833" x2="126.39" y2="167.52" stroke="#141414" stroke-width="0.4"/>
<line x1="126.39" y1="167.52" x2="126.586" y2="163.454" stroke="#141414" stroke-width="0.4"/>
<line x1="135.645" y1="101.943" x2="129.959" y2="102.325" stroke="#141414" stroke-width="0.4"/>
<line x1="129.959" y1="102.325" x2="128.259" y2="109.775" stroke="#141414" stroke-width="0.4"/>
<line x1="128.259" y1="109.775" x2="133.216" y2="112.586" stroke="#141414" stroke-width="0.4"/>
<line x1="126.586" y1="163.454" x2="129.537" y2="166.913" stroke="#141414" stroke-width="0.4"/>
<line x1="129.537" y1="166.913" x2="132.614" y2="166.398" stroke="#141414" stroke-width="0.4"/>
<line x1="132.614" y1="166.398" x2="134.277" y2="162.167" stroke="#141414" stroke-width="0.4"/>
<circle cx="134.485" cy="118.554" r="1.63" fill="#ffe082" stroke="#464646" stroke-width="0.2"/>
<text x="134.485" y="119.11" font-size="1.59" text-anchor="middle" fill="#141414">80</text>
<circle cx="156.565" cy="118.434" r="1.63" fill="#ffe082" stroke="#464646" stroke-width="0.2"/>
<text x="156.565" y="118.99" font-size="1.59" text-anchor="middle" fill="#141414">81</text>
<circle cx="143.284" cy="167.47" r="1.63" fill="#ffe082" stroke="#464646" stroke-width="0.2"/>
<text x="143.284" y="168.03" font-size="1.59" text-anchor="middle" fill="#141414">82</text>
<circle cx="159.19" cy="106.657" r="1.63" fill="#ffe082" stroke="#464646" stroke-width="0.2"/>
<text x="159.19" y="107.21" font-size="1.59" text-anchor="middle" fill="#141414">83</text>
<circle cx="151.581" cy="97.116" r="1.63" fill="#ffe082" stroke="#464646" stroke-width="0.2"/>
<text x="151.581" y="97.67" font-size="1.59" text-anchor="middle" fill="#141414">84</text>
<circle cx="165.645" cy="166.705" r="1.63" fill="#ffe082" stroke="#464646" stroke-width="0.2"/>
<text x="165.645" y="167.26" font-size="1.59" text-anchor="middle" fill="#141414">85</text>
<circle cx="180.656" cy="147.03" r="1.63" fill="#ffe082" stroke="#464646" stroke-width="0.2"/>
<text x="180.656" y="147.59" font-size="1.59" text-anchor="middle" fill="#141414">86</text>
<circle cx="139.378" cy="97.116" r="1.63" fill="#ffe082" stroke="#464646" stroke-width="0.2"/>
<text x="139.378" y="97.67" font-size="1.59" text-anchor="middle" fill="#141414">87</text>
<circle cx="123.272" cy="166.285" r="1.63" fill="#ffe082" stroke="#464646" stroke-width="0.2"/>
<text x="123.272" y="166.84" font-size="1.59" text-anchor="middle" fill="#141414">88</text>
<circle cx="131.769" cy="106.657" r="1.63" fill="#ffe082" stroke="#464646" stroke-width="0.2"/>
<text x="131.769" y="107.21" font-size="1.59" text-anchor="middle" fill="#141414">89</text>
<circle cx="130.753" cy="164.733" r="1.63" fill="#ffe082" stroke="#464646" stroke-width="0.2"/>
<text x="130.753" y="165.29" font-size="1.59" text-anchor="middle" fill="#141414">90</text>
<circle cx="147.935" cy="81.982" r="4.6" fill="#eaf1fe" stroke="#2e78e6" stroke-width="0.3"/>
<text x="147.935" y="83.782" font-size="5.2" text-anchor="middle" fill="#14306e" font-weight="bold">8</text>
<g pointer-events="none"><text x="105.0" y="83.2" text-anchor="middle" font-family="sans-serif" font-size="12.4" fill="#9aa0a6" fill-opacity="0.3" transform="rotate(-28 105.0 83.2)">papercraft.kr</text><text x="105.0" y="148.5" text-anchor="middle" font-family="sans-serif" font-size="12.4" fill="#9aa0a6" fill-opacity="0.3" transform="rotate(-28 105.0 148.5)">papercraft.kr</text><text x="105.0" y="213.8" text-anchor="middle" font-family="sans-serif" font-size="12.4" fill="#9aa0a6" fill-opacity="0.3" transform="rotate(-28 105.0 213.8)">papercraft.kr</text></g></svg>
