<svg xmlns="http://www.w3.org/2000/svg" xmlns:xlink="http://www.w3.org/1999/xlink" width="210.00mm" height="297.00mm" viewBox="0 0 210.00 297.00">
<rect x="0" y="0" width="210.00" height="297.00" fill="#ffffff" stroke="#cccccc" stroke-width="0.2"/>
<polygon points="44.188,127.405 32.829,132.457 7.596,173.226 8.141,185.646" fill="rgb(216,216,216)"/>
<polygon points="44.188,127.405 50.842,120.405 81.896,120.405 88.55,127.405" fill="rgb(216,216,216)"/>
<polygon points="8.141,185.646 8.156,188.076 33.012,174.458 42.663,166.732" fill="rgb(216,216,216)"/>
<polygon points="100.443,20.98 102.387,19.523 106.572,47.561 106.256,59.921" fill="rgb(216,216,216)"/>
<polygon points="12.238,191.709 10.683,201.24 29.448,225.971 39.045,227.04" fill="rgb(216,216,216)"/>
<polygon points="119.459,168.798 120.005,181.218 94.776,221.988 83.417,227.042" fill="rgb(216,216,216)"/>
<polygon points="119.459,168.798 119.444,166.369 94.581,179.986 84.927,187.711" fill="rgb(216,216,216)"/>
<polygon points="154.325,119.835 152.38,121.292 148.2,93.261 148.518,80.902" fill="rgb(216,216,216)"/>
<polygon points="115.366,162.738 120.168,154.36 111.28,124.615 102.668,120.245" fill="rgb(216,216,216)"/>
<polygon points="178.922,55.911 180.475,46.378 161.7,21.643 152.101,20.574" fill="rgb(216,216,216)"/>
<polygon points="83.417,227.042 76.761,234.041 45.701,234.04 39.045,227.04" fill="rgb(216,216,216)"/>
<polygon points="119.459,168.798 120.005,181.218 94.776,221.988 83.417,227.042" fill="#99d9fa"/>
<line x1="42.663" y1="166.732" x2="44.188" y2="127.405" stroke="#8c8c8c" stroke-width="0.3" stroke-dasharray="1.2,0.8"/>
<line x1="106.256" y1="59.921" x2="75.84" y2="84.902" stroke="#8c8c8c" stroke-width="0.3" stroke-dasharray="1.2,0.8"/>
<line x1="102.668" y1="120.245" x2="75.84" y2="84.902" stroke="#8c8c8c" stroke-width="0.3" stroke-dasharray="1.2,0.8"/>
<line x1="107.745" y1="20.576" x2="152.101" y2="20.574" stroke="#8c8c8c" stroke-width="0.3" stroke-dasharray="1.2,0.8"/>
<line x1="115.366" y1="162.738" x2="88.55" y2="127.405" stroke="#8c8c8c" stroke-width="0.3" stroke-dasharray="1.2,0.8"/>
<line x1="84.927" y1="187.711" x2="83.417" y2="227.042" stroke="#8c8c8c" stroke-width="0.3" stroke-dasharray="1.2,0.8"/>
<line x1="148.518" y1="80.902" x2="178.922" y2="55.911" stroke="#8c8c8c" stroke-width="0.3" stroke-dasharray="1.2,0.8"/>
<line x1="84.927" y1="187.711" x2="42.663" y2="166.732" stroke="#8c8c8c" stroke-width="0.3" stroke-dasharray="1.2,0.8"/>
<line x1="39.045" y1="227.04" x2="84.927" y2="187.711" stroke="#8c8c8c" stroke-width="0.3" stroke-dasharray="1.2,0.8"/>
<line x1="88.55" y1="127.405" x2="84.927" y2="187.711" stroke="#8c8c8c" stroke-width="0.3" stroke-dasharray="1.2,0.8"/>
<line x1="42.663" y1="166.732" x2="39.045" y2="227.04" stroke="#8c8c8c" stroke-width="0.3" stroke-dasharray="1.2,0.8"/>
<line x1="88.55" y1="127.405" x2="42.663" y2="166.732" stroke="#8c8c8c" stroke-width="0.3" stroke-dasharray="1.2,0.8"/>
<line x1="106.256" y1="59.921" x2="148.518" y2="80.902" stroke="#8c8c8c" stroke-width="0.3" stroke-dasharray="1.2,0.8"/>
<line x1="148.518" y1="80.902" x2="152.101" y2="20.574" stroke="#8c8c8c" stroke-width="0.3" stroke-dasharray="1.2,0.8"/>
<line x1="148.518" y1="80.902" x2="102.668" y2="120.245" stroke="#8c8c8c" stroke-width="0.3" stroke-dasharray="1.2,0.8"/>
<line x1="152.101" y1="20.574" x2="106.256" y2="59.921" stroke="#8c8c8c" stroke-width="0.3" stroke-dasharray="1.2,0.8"/>
<line x1="106.256" y1="59.921" x2="102.668" y2="120.245" stroke="#8c8c8c" stroke-width="0.3" stroke-dasharray="1.2,0.8"/>
<line x1="152.101" y1="20.574" x2="149.269" y2="5.0" stroke="#8c8c8c" stroke-width="0.3" stroke-dasharray="1.2,0.8"/>
<line x1="102.668" y1="120.245" x2="88.55" y2="127.405" stroke="#8c8c8c" stroke-width="0.3" stroke-dasharray="1.2,0.8"/>
<line x1="8.141" y1="185.646" x2="44.188" y2="127.405" stroke="#8c8c8c" stroke-width="0.3" stroke-dasharray="1.2,0.8"/>
<line x1="88.55" y1="127.405" x2="44.188" y2="127.405" stroke="#8c8c8c" stroke-width="0.3" stroke-dasharray="1.2,0.8"/>
<line x1="42.663" y1="166.732" x2="8.141" y2="185.646" stroke="#8c8c8c" stroke-width="0.3" stroke-dasharray="1.2,0.8"/>
<line x1="106.256" y1="59.921" x2="100.443" y2="20.98" stroke="#8c8c8c" stroke-width="0.3" stroke-dasharray="1.2,0.8"/>
<line x1="39.045" y1="227.04" x2="12.238" y2="191.709" stroke="#8c8c8c" stroke-width="0.3" stroke-dasharray="1.2,0.8"/>
<line x1="83.417" y1="227.042" x2="119.459" y2="168.798" stroke="#8c8c8c" stroke-width="0.3" stroke-dasharray="1.2,0.8"/>
<line x1="84.927" y1="187.711" x2="119.459" y2="168.798" stroke="#8c8c8c" stroke-width="0.3" stroke-dasharray="1.2,0.8"/>
<line x1="148.518" y1="80.902" x2="154.325" y2="119.835" stroke="#8c8c8c" stroke-width="0.3" stroke-dasharray="1.2,0.8"/>
<line x1="102.668" y1="120.245" x2="115.366" y2="162.738" stroke="#8c8c8c" stroke-width="0.3" stroke-dasharray="1.2,0.8"/>
<line x1="152.101" y1="20.574" x2="178.922" y2="55.911" stroke="#8c8c8c" stroke-width="0.3" stroke-dasharray="1.2,0.8"/>
<line x1="39.045" y1="227.04" x2="83.417" y2="227.042" stroke="#8c8c8c" stroke-width="0.3" stroke-dasharray="1.2,0.8"/>
<line x1="75.84" y1="84.902" x2="100.443" y2="20.98" stroke="#141414" stroke-width="0.4"/>
<line x1="88.55" y1="127.405" x2="75.84" y2="84.902" stroke="#141414" stroke-width="0.4"/>
<line x1="12.239" y1="191.709" x2="42.663" y2="166.732" stroke="#141414" stroke-width="0.4"/>
<line x1="106.256" y1="59.921" x2="107.745" y2="20.576" stroke="#141414" stroke-width="0.4"/>
<line x1="107.745" y1="20.576" x2="149.269" y2="5.0" stroke="#141414" stroke-width="0.4"/>
<line x1="178.922" y1="55.911" x2="154.325" y2="119.835" stroke="#141414" stroke-width="0.4"/>
<line x1="115.366" y1="162.738" x2="84.927" y2="187.711" stroke="#141414" stroke-width="0.4"/>
<line x1="148.518" y1="80.902" x2="147.018" y2="120.237" stroke="#141414" stroke-width="0.4"/>
<line x1="147.018" y1="120.237" x2="102.668" y2="120.245" stroke="#141414" stroke-width="0.4"/>
<line x1="193.641" y1="5.002" x2="152.101" y2="20.574" stroke="#141414" stroke-width="0.4"/>
<line x1="149.269" y1="5.0" x2="193.641" y2="5.002" stroke="#141414" stroke-width="0.4"/>
<line x1="44.188" y1="127.405" x2="32.829" y2="132.457" stroke="#141414" stroke-width="0.4"/>
<line x1="32.829" y1="132.457" x2="7.596" y2="173.226" stroke="#141414" stroke-width="0.4"/>
<line x1="7.596" y1="173.226" x2="8.141" y2="185.646" stroke="#141414" stroke-width="0.4"/>
<line x1="44.188" y1="127.405" x2="50.842" y2="120.405" stroke="#141414" stroke-width="0.4"/>
<line x1="50.842" y1="120.405" x2="81.896" y2="120.405" stroke="#141414" stroke-width="0.4"/>
<line x1="81.896" y1="120.405" x2="88.55" y2="127.405" stroke="#141414" stroke-width="0.4"/>
<line x1="8.141" y1="185.646" x2="8.156" y2="188.076" stroke="#141414" stroke-width="0.4"/>
<line x1="8.156" y1="188.076" x2="33.012" y2="174.458" stroke="#141414" stroke-width="0.4"/>
<line x1="33.012" y1="174.458" x2="42.663" y2="166.732" stroke="#141414" stroke-width="0.4"/>
<line x1="100.443" y1="20.98" x2="102.387" y2="19.523" stroke="#141414" stroke-width="0.4"/>
<line x1="102.387" y1="19.523" x2="106.572" y2="47.561" stroke="#141414" stroke-width="0.4"/>
<line x1="106.572" y1="47.561" x2="106.256" y2="59.921" stroke="#141414" stroke-width="0.4"/>
<line x1="12.238" y1="191.709" x2="10.683" y2="201.24" stroke="#141414" stroke-width="0.4"/>
<line x1="10.683" y1="201.24" x2="29.448" y2="225.971" stroke="#141414" stroke-width="0.4"/>
<line x1="29.448" y1="225.971" x2="39.045" y2="227.04" stroke="#141414" stroke-width="0.4"/>
<line x1="119.459" y1="168.798" x2="120.005" y2="181.218" stroke="#141414" stroke-width="0.4"/>
<line x1="120.005" y1="181.218" x2="94.776" y2="221.988" stroke="#141414" stroke-width="0.4"/>
<line x1="94.776" y1="221.988" x2="83.417" y2="227.042" stroke="#141414" stroke-width="0.4"/>
<line x1="119.459" y1="168.798" x2="119.444" y2="166.369" stroke="#141414" stroke-width="0.4"/>
<line x1="119.444" y1="166.369" x2="94.581" y2="179.986" stroke="#141414" stroke-width="0.4"/>
<line x1="94.581" y1="179.986" x2="84.927" y2="187.711" stroke="#141414" stroke-width="0.4"/>
<line x1="154.325" y1="119.835" x2="152.38" y2="121.292" stroke="#141414" stroke-width="0.4"/>
<line x1="152.38" y1="121.292" x2="148.2" y2="93.261" stroke="#141414" stroke-width="0.4"/>
<line x1="148.2" y1="93.261" x2="148.518" y2="80.902" stroke="#141414" stroke-width="0.4"/>
<line x1="115.366" y1="162.738" x2="120.168" y2="154.36" stroke="#141414" stroke-width="0.4"/>
<line x1="120.168" y1="154.36" x2="111.28" y2="124.615" stroke="#141414" stroke-width="0.4"/>
<line x1="111.28" y1="124.615" x2="102.668" y2="120.245" stroke="#141414" stroke-width="0.4"/>
<line x1="178.922" y1="55.911" x2="180.475" y2="46.378" stroke="#141414" stroke-width="0.4"/>
<line x1="180.475" y1="46.378" x2="161.7" y2="21.643" stroke="#141414" stroke-width="0.4"/>
<line x1="161.7" y1="21.643" x2="152.101" y2="20.574" stroke="#141414" stroke-width="0.4"/>
<line x1="83.417" y1="227.042" x2="76.761" y2="234.041" stroke="#141414" stroke-width="0.4"/>
<line x1="76.761" y1="234.041" x2="45.701" y2="234.04" stroke="#141414" stroke-width="0.4"/>
<line x1="45.701" y1="234.04" x2="39.045" y2="227.04" stroke="#141414" stroke-width="0.4"/>
<circle cx="23.188" cy="154.683" r="0.94" fill="#ffe082" stroke="#464646" stroke-width="0.2"/>
<text x="23.188" y="155.01" font-size="0.92" text-anchor="middle" fill="#141414">1</text>
<circle cx="66.369" cy="123.905" r="0.94" fill="#ffe082" stroke="#464646" stroke-width="0.2"/>
<text x="66.369" y="124.23" font-size="0.92" text-anchor="middle" fill="#141414">2</text>
<circle cx="22.993" cy="178.728" r="0.94" fill="#ffe082" stroke="#464646" stroke-width="0.2"/>
<text x="22.993" y="179.05" font-size="0.92" text-anchor="middle" fill="#141414">3</text>
<circle cx="103.915" cy="36.996" r="0.94" fill="#ffe082" stroke="#464646" stroke-width="0.2"/>
<text x="103.915" y="37.32" font-size="0.92" text-anchor="middle" fill="#141414">4</text>
<circle cx="22.854" cy="211.49" r="0.94" fill="#ffe082" stroke="#464646" stroke-width="0.2"/>
<text x="22.854" y="211.81" font-size="0.92" text-anchor="middle" fill="#141414">5</text>
<circle cx="104.414" cy="199.761" r="0.94" fill="#99d9fa" stroke="#464646" stroke-width="0.2"/>
<text x="104.414" y="200.08" font-size="0.92" text-anchor="middle" fill="#141414">6</text>
<circle cx="104.603" cy="175.716" r="0.94" fill="#ffe082" stroke="#464646" stroke-width="0.2"/>
<text x="104.603" y="176.04" font-size="0.92" text-anchor="middle" fill="#141414">7</text>
<circle cx="150.856" cy="103.823" r="0.94" fill="#ffe082" stroke="#464646" stroke-width="0.2"/>
<text x="150.856" y="104.15" font-size="0.92" text-anchor="middle" fill="#141414">8</text>
<circle cx="112.37" cy="140.489" r="0.94" fill="#ffe082" stroke="#464646" stroke-width="0.2"/>
<text x="112.37" y="140.81" font-size="0.92" text-anchor="middle" fill="#141414">9</text>
<circle cx="168.3" cy="36.126" r="0.94" fill="#ffe082" stroke="#464646" stroke-width="0.2"/>
<text x="168.3" y="36.45" font-size="0.92" text-anchor="middle" fill="#141414">10</text>
<circle cx="61.231" cy="230.541" r="0.94" fill="#ffe082" stroke="#464646" stroke-width="0.2"/>
<text x="61.231" y="230.86" font-size="0.92" text-anchor="middle" fill="#141414">11</text>
<circle cx="98.022" cy="240.141" r="4.6" fill="#eaf1fe" stroke="#2e78e6" stroke-width="0.3"/>
<text x="98.022" y="241.941" font-size="5.2" text-anchor="middle" fill="#14306e" font-weight="bold">1</text>
<polygon points="33.251,255.58 31.741,260.615 24.692,260.615 23.182,255.58" fill="rgb(216,216,216)"/>
<polygon points="33.251,247.11 34.835,241.831 42.226,241.831 43.81,247.11" fill="rgb(216,216,216)"/>
<polygon points="33.251,247.11 31.741,242.076 24.692,242.076 23.182,247.11" fill="rgb(216,216,216)"/>
<polygon points="43.81,255.58 48.844,257.091 48.844,264.139 43.81,265.649" fill="rgb(216,216,216)"/>
<polygon points="12.623,237.041 7.589,238.552 7.589,245.6 12.623,247.11" fill="rgb(216,216,216)"/>
<polygon points="33.251,265.649 34.835,270.929 42.226,270.929 43.81,265.649" fill="rgb(216,216,216)"/>
<polygon points="53.878,255.58 58.114,254.31 58.114,248.381 53.878,247.11" fill="rgb(216,216,216)"/>
<polygon points="33.251,255.58 31.741,260.615 24.692,260.615 23.182,255.58" fill="#99d9fa"/>
<line x1="33.251" y1="255.58" x2="33.251" y2="247.11" stroke="#8c8c8c" stroke-width="0.3" stroke-dasharray="1.2,0.8"/>
<line x1="43.81" y1="255.58" x2="33.251" y2="255.58" stroke="#8c8c8c" stroke-width="0.3" stroke-dasharray="1.2,0.8"/>
<line x1="43.81" y1="247.11" x2="43.81" y2="255.58" stroke="#8c8c8c" stroke-width="0.3" stroke-dasharray="1.2,0.8"/>
<line x1="23.182" y1="255.58" x2="23.182" y2="247.11" stroke="#8c8c8c" stroke-width="0.3" stroke-dasharray="1.2,0.8"/>
<line x1="23.182" y1="247.11" x2="12.623" y2="247.11" stroke="#8c8c8c" stroke-width="0.3" stroke-dasharray="1.2,0.8"/>
<line x1="23.182" y1="255.58" x2="33.251" y2="255.58" stroke="#8c8c8c" stroke-width="0.3" stroke-dasharray="1.2,0.8"/>
<line x1="43.81" y1="247.11" x2="33.251" y2="247.11" stroke="#8c8c8c" stroke-width="0.3" stroke-dasharray="1.2,0.8"/>
<line x1="23.182" y1="247.11" x2="33.251" y2="247.11" stroke="#8c8c8c" stroke-width="0.3" stroke-dasharray="1.2,0.8"/>
<line x1="43.81" y1="265.649" x2="43.81" y2="255.58" stroke="#8c8c8c" stroke-width="0.3" stroke-dasharray="1.2,0.8"/>
<line x1="12.623" y1="247.11" x2="12.623" y2="237.041" stroke="#8c8c8c" stroke-width="0.3" stroke-dasharray="1.2,0.8"/>
<line x1="43.81" y1="265.649" x2="33.251" y2="265.649" stroke="#8c8c8c" stroke-width="0.3" stroke-dasharray="1.2,0.8"/>
<line x1="53.878" y1="247.11" x2="53.878" y2="255.58" stroke="#8c8c8c" stroke-width="0.3" stroke-dasharray="1.2,0.8"/>
<line x1="33.251" y1="265.649" x2="33.251" y2="255.58" stroke="#141414" stroke-width="0.4"/>
<line x1="12.623" y1="237.041" x2="23.182" y2="237.041" stroke="#141414" stroke-width="0.4"/>
<line x1="23.182" y1="237.041" x2="23.182" y2="247.11" stroke="#141414" stroke-width="0.4"/>
<line x1="53.879" y1="255.58" x2="43.81" y2="255.58" stroke="#141414" stroke-width="0.4"/>
<line x1="43.81" y1="247.11" x2="53.879" y2="247.11" stroke="#141414" stroke-width="0.4"/>
<line x1="23.182" y1="255.58" x2="12.623" y2="255.58" stroke="#141414" stroke-width="0.4"/>
<line x1="12.623" y1="255.58" x2="12.623" y2="247.11" stroke="#141414" stroke-width="0.4"/>
<line x1="33.251" y1="255.58" x2="31.741" y2="260.615" stroke="#141414" stroke-width="0.4"/>
<line x1="31.741" y1="260.615" x2="24.692" y2="260.615" stroke="#141414" stroke-width="0.4"/>
<line x1="24.692" y1="260.615" x2="23.182" y2="255.58" stroke="#141414" stroke-width="0.4"/>
<line x1="33.251" y1="247.11" x2="34.835" y2="241.831" stroke="#141414" stroke-width="0.4"/>
<line x1="34.835" y1="241.831" x2="42.226" y2="241.831" stroke="#141414" stroke-width="0.4"/>
<line x1="42.226" y1="241.831" x2="43.81" y2="247.11" stroke="#141414" stroke-width="0.4"/>
<line x1="33.251" y1="247.11" x2="31.741" y2="242.076" stroke="#141414" stroke-width="0.4"/>
<line x1="31.741" y1="242.076" x2="24.692" y2="242.076" stroke="#141414" stroke-width="0.4"/>
<line x1="24.692" y1="242.076" x2="23.182" y2="247.11" stroke="#141414" stroke-width="0.4"/>
<line x1="43.81" y1="255.58" x2="48.844" y2="257.091" stroke="#141414" stroke-width="0.4"/>
<line x1="48.844" y1="257.091" x2="48.844" y2="264.139" stroke="#141414" stroke-width="0.4"/>
<line x1="48.844" y1="264.139" x2="43.81" y2="265.649" stroke="#141414" stroke-width="0.4"/>
<line x1="12.623" y1="237.041" x2="7.589" y2="238.552" stroke="#141414" stroke-width="0.4"/>
<line x1="7.589" y1="238.552" x2="7.589" y2="245.6" stroke="#141414" stroke-width="0.4"/>
<line x1="7.589" y1="245.6" x2="12.623" y2="247.11" stroke="#141414" stroke-width="0.4"/>
<line x1="33.251" y1="265.649" x2="34.835" y2="270.929" stroke="#141414" stroke-width="0.4"/>
<line x1="34.835" y1="270.929" x2="42.226" y2="270.929" stroke="#141414" stroke-width="0.4"/>
<line x1="42.226" y1="270.929" x2="43.81" y2="265.649" stroke="#141414" stroke-width="0.4"/>
<line x1="53.878" y1="255.58" x2="58.114" y2="254.31" stroke="#141414" stroke-width="0.4"/>
<line x1="58.114" y1="254.31" x2="58.114" y2="248.381" stroke="#141414" stroke-width="0.4"/>
<line x1="58.114" y1="248.381" x2="53.878" y2="247.11" stroke="#141414" stroke-width="0.4"/>
<circle cx="28.216" cy="258.098" r="0.94" fill="#99d9fa" stroke="#464646" stroke-width="0.2"/>
<text x="28.216" y="258.42" font-size="0.92" text-anchor="middle" fill="#141414">23</text>
<circle cx="38.53" cy="244.471" r="0.94" fill="#ffe082" stroke="#464646" stroke-width="0.2"/>
<text x="38.53" y="244.79" font-size="0.92" text-anchor="middle" fill="#141414">24</text>
<circle cx="28.216" cy="244.593" r="0.94" fill="#ffe082" stroke="#464646" stroke-width="0.2"/>
<text x="28.216" y="244.92" font-size="0.92" text-anchor="middle" fill="#141414">25</text>
<circle cx="46.327" cy="260.615" r="0.94" fill="#ffe082" stroke="#464646" stroke-width="0.2"/>
<text x="46.327" y="260.94" font-size="0.92" text-anchor="middle" fill="#141414">26</text>
<circle cx="10.106" cy="242.076" r="0.94" fill="#ffe082" stroke="#464646" stroke-width="0.2"/>
<text x="10.106" y="242.40" font-size="0.92" text-anchor="middle" fill="#141414">27</text>
<circle cx="38.53" cy="268.289" r="0.94" fill="#ffe082" stroke="#464646" stroke-width="0.2"/>
<text x="38.53" y="268.61" font-size="0.92" text-anchor="middle" fill="#141414">28</text>
<circle cx="55.996" cy="251.345" r="0.94" fill="#ffe082" stroke="#464646" stroke-width="0.2"/>
<text x="55.996" y="251.67" font-size="0.92" text-anchor="middle" fill="#141414">29</text>
<circle cx="30.262" cy="230.941" r="4.6" fill="#eaf1fe" stroke="#2e78e6" stroke-width="0.3"/>
<text x="30.262" y="232.741" font-size="5.2" text-anchor="middle" fill="#14306e" font-weight="bold">3</text>
<polygon points="86.776,255.58 85.265,260.615 78.217,260.615 76.707,255.58" fill="rgb(216,216,216)"/>
<polygon points="86.776,247.11 88.36,241.831 95.751,241.831 97.334,247.11" fill="rgb(216,216,216)"/>
<polygon points="86.776,247.11 85.265,242.076 78.217,242.076 76.707,247.11" fill="rgb(216,216,216)"/>
<polygon points="97.334,255.58 102.369,257.091 102.369,264.139 97.334,265.649" fill="rgb(216,216,216)"/>
<polygon points="66.148,237.041 61.114,238.552 61.114,245.6 66.148,247.11" fill="rgb(216,216,216)"/>
<polygon points="86.776,265.649 88.36,270.929 95.751,270.929 97.334,265.649" fill="rgb(216,216,216)"/>
<polygon points="107.403,255.58 111.638,254.31 111.638,248.381 107.403,247.11" fill="rgb(216,216,216)"/>
<polygon points="86.776,255.58 85.265,260.615 78.217,260.615 76.707,255.58" fill="#99d9fa"/>
<line x1="86.776" y1="255.58" x2="86.776" y2="247.11" stroke="#8c8c8c" stroke-width="0.3" stroke-dasharray="1.2,0.8"/>
<line x1="97.334" y1="255.58" x2="86.776" y2="255.58" stroke="#8c8c8c" stroke-width="0.3" stroke-dasharray="1.2,0.8"/>
<line x1="97.334" y1="247.11" x2="97.334" y2="255.58" stroke="#8c8c8c" stroke-width="0.3" stroke-dasharray="1.2,0.8"/>
<line x1="76.707" y1="255.58" x2="76.707" y2="247.11" stroke="#8c8c8c" stroke-width="0.3" stroke-dasharray="1.2,0.8"/>
<line x1="76.707" y1="247.11" x2="66.148" y2="247.11" stroke="#8c8c8c" stroke-width="0.3" stroke-dasharray="1.2,0.8"/>
<line x1="76.707" y1="255.58" x2="86.776" y2="255.58" stroke="#8c8c8c" stroke-width="0.3" stroke-dasharray="1.2,0.8"/>
<line x1="97.334" y1="247.11" x2="86.776" y2="247.11" stroke="#8c8c8c" stroke-width="0.3" stroke-dasharray="1.2,0.8"/>
<line x1="76.707" y1="247.11" x2="86.776" y2="247.11" stroke="#8c8c8c" stroke-width="0.3" stroke-dasharray="1.2,0.8"/>
<line x1="97.334" y1="265.649" x2="97.334" y2="255.58" stroke="#8c8c8c" stroke-width="0.3" stroke-dasharray="1.2,0.8"/>
<line x1="66.148" y1="247.11" x2="66.148" y2="237.041" stroke="#8c8c8c" stroke-width="0.3" stroke-dasharray="1.2,0.8"/>
<line x1="97.334" y1="265.649" x2="86.776" y2="265.649" stroke="#8c8c8c" stroke-width="0.3" stroke-dasharray="1.2,0.8"/>
<line x1="107.403" y1="247.11" x2="107.403" y2="255.58" stroke="#8c8c8c" stroke-width="0.3" stroke-dasharray="1.2,0.8"/>
<line x1="86.776" y1="265.649" x2="86.776" y2="255.58" stroke="#141414" stroke-width="0.4"/>
<line x1="66.148" y1="237.041" x2="76.707" y2="237.041" stroke="#141414" stroke-width="0.4"/>
<line x1="76.707" y1="237.041" x2="76.707" y2="247.11" stroke="#141414" stroke-width="0.4"/>
<line x1="107.403" y1="255.58" x2="97.334" y2="255.58" stroke="#141414" stroke-width="0.4"/>
<line x1="97.334" y1="247.11" x2="107.403" y2="247.11" stroke="#141414" stroke-width="0.4"/>
<line x1="76.707" y1="255.58" x2="66.148" y2="255.58" stroke="#141414" stroke-width="0.4"/>
<line x1="66.148" y1="255.58" x2="66.148" y2="247.11" stroke="#141414" stroke-width="0.4"/>
<line x1="86.776" y1="255.58" x2="85.265" y2="260.615" stroke="#141414" stroke-width="0.4"/>
<line x1="85.265" y1="260.615" x2="78.217" y2="260.615" stroke="#141414" stroke-width="0.4"/>
<line x1="78.217" y1="260.615" x2="76.707" y2="255.58" stroke="#141414" stroke-width="0.4"/>
<line x1="86.776" y1="247.11" x2="88.36" y2="241.831" stroke="#141414" stroke-width="0.4"/>
<line x1="88.36" y1="241.831" x2="95.751" y2="241.831" stroke="#141414" stroke-width="0.4"/>
<line x1="95.751" y1="241.831" x2="97.334" y2="247.11" stroke="#141414" stroke-width="0.4"/>
<line x1="86.776" y1="247.11" x2="85.265" y2="242.076" stroke="#141414" stroke-width="0.4"/>
<line x1="85.265" y1="242.076" x2="78.217" y2="242.076" stroke="#141414" stroke-width="0.4"/>
<line x1="78.217" y1="242.076" x2="76.707" y2="247.11" stroke="#141414" stroke-width="0.4"/>
<line x1="97.334" y1="255.58" x2="102.369" y2="257.091" stroke="#141414" stroke-width="0.4"/>
<line x1="102.369" y1="257.091" x2="102.369" y2="264.139" stroke="#141414" stroke-width="0.4"/>
<line x1="102.369" y1="264.139" x2="97.334" y2="265.649" stroke="#141414" stroke-width="0.4"/>
<line x1="66.148" y1="237.041" x2="61.114" y2="238.552" stroke="#141414" stroke-width="0.4"/>
<line x1="61.114" y1="238.552" x2="61.114" y2="245.6" stroke="#141414" stroke-width="0.4"/>
<line x1="61.114" y1="245.6" x2="66.148" y2="247.11" stroke="#141414" stroke-width="0.4"/>
<line x1="86.776" y1="265.649" x2="88.36" y2="270.929" stroke="#141414" stroke-width="0.4"/>
<line x1="88.36" y1="270.929" x2="95.751" y2="270.929" stroke="#141414" stroke-width="0.4"/>
<line x1="95.751" y1="270.929" x2="97.334" y2="265.649" stroke="#141414" stroke-width="0.4"/>
<line x1="107.403" y1="255.58" x2="111.638" y2="254.31" stroke="#141414" stroke-width="0.4"/>
<line x1="111.638" y1="254.31" x2="111.638" y2="248.381" stroke="#141414" stroke-width="0.4"/>
<line x1="111.638" y1="248.381" x2="107.403" y2="247.11" stroke="#141414" stroke-width="0.4"/>
<circle cx="81.741" cy="258.098" r="0.94" fill="#99d9fa" stroke="#464646" stroke-width="0.2"/>
<text x="81.741" y="258.42" font-size="0.92" text-anchor="middle" fill="#141414">30</text>
<circle cx="92.055" cy="244.471" r="0.94" fill="#ffe082" stroke="#464646" stroke-width="0.2"/>
<text x="92.055" y="244.79" font-size="0.92" text-anchor="middle" fill="#141414">31</text>
<circle cx="81.741" cy="244.593" r="0.94" fill="#ffe082" stroke="#464646" stroke-width="0.2"/>
<text x="81.741" y="244.92" font-size="0.92" text-anchor="middle" fill="#141414">32</text>
<circle cx="99.852" cy="260.615" r="0.94" fill="#ffe082" stroke="#464646" stroke-width="0.2"/>
<text x="99.852" y="260.94" font-size="0.92" text-anchor="middle" fill="#141414">33</text>
<circle cx="63.631" cy="242.076" r="0.94" fill="#ffe082" stroke="#464646" stroke-width="0.2"/>
<text x="63.631" y="242.40" font-size="0.92" text-anchor="middle" fill="#141414">34</text>
<circle cx="92.055" cy="268.289" r="0.94" fill="#ffe082" stroke="#464646" stroke-width="0.2"/>
<text x="92.055" y="268.61" font-size="0.92" text-anchor="middle" fill="#141414">35</text>
<circle cx="109.521" cy="251.345" r="0.94" fill="#ffe082" stroke="#464646" stroke-width="0.2"/>
<text x="109.521" y="251.67" font-size="0.92" text-anchor="middle" fill="#141414">36</text>
<circle cx="83.787" cy="230.941" r="4.6" fill="#eaf1fe" stroke="#2e78e6" stroke-width="0.3"/>
<text x="83.787" y="232.741" font-size="5.2" text-anchor="middle" fill="#14306e" font-weight="bold">4</text>
<text x="205.0" y="295.0" font-size="3.2" text-anchor="end" fill="#737373" font-family="sans-serif">1 / 5</text>
</svg>
