<svg xmlns="http://www.w3.org/2000/svg" xmlns:xlink="http://www.w3.org/1999/xlink" width="210.00mm" height="297.00mm" viewBox="0 0 210.00 297.00">
<rect x="0" y="0" width="210.00" height="297.00" fill="#ffffff" stroke="#cccccc" stroke-width="0.2"/>
<polygon points="9.71,165.241 6.088,160.066 11.928,144.387 18.052,142.842" fill="rgb(216,216,216)"/>
<polygon points="115.94,44.1 124.464,47.989 143.611,78.912 143.293,88.276" fill="rgb(216,216,216)"/>
<polygon points="60.314,177.026 65.132,184.693 97.022,198.102 105.871,196.182" fill="rgb(216,216,216)"/>
<polygon points="89.687,40.544 84.938,46.831 86.976,74.383 92.599,79.904" fill="rgb(216,216,216)"/>
<polygon points="118.691,185.796 124.326,189.841 145.214,185.06 148.529,178.966" fill="rgb(216,216,216)"/>
<polygon points="105.871,196.182 107.335,184.702 106.024,180.987 97.681,172.967" fill="rgb(216,216,216)"/>
<polygon points="148.529,178.966 146.857,171.722 125.97,158.352 118.691,159.866" fill="rgb(216,216,216)"/>
<polygon points="133.696,125.525 138.714,133.975 148.589,139.082 158.384,138.293" fill="rgb(216,216,216)"/>
<polygon points="92.599,79.904 88.867,89.299 95.398,129.229 101.93,136.946" fill="rgb(216,216,216)"/>
<polygon points="115.94,44.1 124.464,47.989 143.611,78.912 143.293,88.276" fill="#99d9fa"/>
<line x1="139.444" y1="5.0" x2="89.687" y2="40.544" stroke="#8c8c8c" stroke-width="0.3" stroke-dasharray="1.2,0.8"/>
<line x1="18.052" y1="142.842" x2="60.314" y2="177.026" stroke="#8c8c8c" stroke-width="0.3" stroke-dasharray="1.2,0.8"/>
<line x1="60.314" y1="177.026" x2="97.681" y2="172.967" stroke="#8c8c8c" stroke-width="0.3" stroke-dasharray="1.2,0.8"/>
<line x1="143.293" y1="88.276" x2="133.696" y2="125.525" stroke="#8c8c8c" stroke-width="0.3" stroke-dasharray="1.2,0.8"/>
<line x1="133.696" y1="125.525" x2="89.687" y2="40.544" stroke="#8c8c8c" stroke-width="0.3" stroke-dasharray="1.2,0.8"/>
<line x1="180.155" y1="121.193" x2="158.384" y2="138.293" stroke="#8c8c8c" stroke-width="0.3" stroke-dasharray="1.2,0.8"/>
<line x1="8.563" y1="132.772" x2="57.863" y2="72.147" stroke="#8c8c8c" stroke-width="0.3" stroke-dasharray="1.2,0.8"/>
<line x1="97.681" y1="172.967" x2="71.707" y2="148.724" stroke="#8c8c8c" stroke-width="0.3" stroke-dasharray="1.2,0.8"/>
<line x1="97.681" y1="172.967" x2="118.691" y2="159.866" stroke="#8c8c8c" stroke-width="0.3" stroke-dasharray="1.2,0.8"/>
<line x1="101.93" y1="136.946" x2="97.681" y2="172.967" stroke="#8c8c8c" stroke-width="0.3" stroke-dasharray="1.2,0.8"/>
<line x1="71.707" y1="148.724" x2="101.93" y2="136.946" stroke="#8c8c8c" stroke-width="0.3" stroke-dasharray="1.2,0.8"/>
<line x1="133.696" y1="125.525" x2="92.599" y2="79.904" stroke="#8c8c8c" stroke-width="0.3" stroke-dasharray="1.2,0.8"/>
<line x1="133.696" y1="125.525" x2="101.93" y2="136.946" stroke="#8c8c8c" stroke-width="0.3" stroke-dasharray="1.2,0.8"/>
<line x1="101.93" y1="136.946" x2="142.111" y2="152.015" stroke="#8c8c8c" stroke-width="0.3" stroke-dasharray="1.2,0.8"/>
<line x1="57.863" y1="72.147" x2="46.952" y2="119.106" stroke="#8c8c8c" stroke-width="0.3" stroke-dasharray="1.2,0.8"/>
<line x1="118.691" y1="159.866" x2="101.93" y2="136.946" stroke="#8c8c8c" stroke-width="0.3" stroke-dasharray="1.2,0.8"/>
<line x1="143.293" y1="88.276" x2="89.687" y2="40.544" stroke="#8c8c8c" stroke-width="0.3" stroke-dasharray="1.2,0.8"/>
<line x1="60.314" y1="177.026" x2="71.707" y2="148.724" stroke="#8c8c8c" stroke-width="0.3" stroke-dasharray="1.2,0.8"/>
<line x1="180.155" y1="121.193" x2="133.696" y2="125.525" stroke="#8c8c8c" stroke-width="0.3" stroke-dasharray="1.2,0.8"/>
<line x1="118.691" y1="185.796" x2="118.691" y2="159.866" stroke="#8c8c8c" stroke-width="0.3" stroke-dasharray="1.2,0.8"/>
<line x1="8.563" y1="132.772" x2="46.952" y2="119.106" stroke="#8c8c8c" stroke-width="0.3" stroke-dasharray="1.2,0.8"/>
<line x1="46.952" y1="119.106" x2="71.707" y2="148.724" stroke="#8c8c8c" stroke-width="0.3" stroke-dasharray="1.2,0.8"/>
<line x1="18.052" y1="142.842" x2="9.71" y2="165.241" stroke="#8c8c8c" stroke-width="0.3" stroke-dasharray="1.2,0.8"/>
<line x1="143.293" y1="88.276" x2="115.94" y2="44.1" stroke="#8c8c8c" stroke-width="0.3" stroke-dasharray="1.2,0.8"/>
<line x1="105.871" y1="196.182" x2="60.314" y2="177.026" stroke="#8c8c8c" stroke-width="0.3" stroke-dasharray="1.2,0.8"/>
<line x1="92.599" y1="79.904" x2="89.687" y2="40.544" stroke="#8c8c8c" stroke-width="0.3" stroke-dasharray="1.2,0.8"/>
<line x1="148.529" y1="178.966" x2="118.691" y2="185.796" stroke="#8c8c8c" stroke-width="0.3" stroke-dasharray="1.2,0.8"/>
<line x1="97.681" y1="172.967" x2="105.871" y2="196.182" stroke="#8c8c8c" stroke-width="0.3" stroke-dasharray="1.2,0.8"/>
<line x1="118.691" y1="159.866" x2="148.529" y2="178.966" stroke="#8c8c8c" stroke-width="0.3" stroke-dasharray="1.2,0.8"/>
<line x1="158.384" y1="138.293" x2="133.696" y2="125.525" stroke="#8c8c8c" stroke-width="0.3" stroke-dasharray="1.2,0.8"/>
<line x1="101.93" y1="136.946" x2="92.599" y2="79.904" stroke="#8c8c8c" stroke-width="0.3" stroke-dasharray="1.2,0.8"/>
<line x1="139.444" y1="5.0" x2="115.94" y2="44.1" stroke="#141414" stroke-width="0.4"/>
<line x1="51.113" y1="25.558" x2="139.444" y2="5.0" stroke="#141414" stroke-width="0.4"/>
<line x1="60.314" y1="177.026" x2="9.71" y2="165.241" stroke="#141414" stroke-width="0.4"/>
<line x1="18.052" y1="142.842" x2="71.707" y2="148.724" stroke="#141414" stroke-width="0.4"/>
<line x1="143.293" y1="88.276" x2="180.155" y2="121.193" stroke="#141414" stroke-width="0.4"/>
<line x1="89.687" y1="40.544" x2="51.113" y2="25.558" stroke="#141414" stroke-width="0.4"/>
<line x1="180.155" y1="121.193" x2="185.943" y2="151.251" stroke="#141414" stroke-width="0.4"/>
<line x1="118.691" y1="185.796" x2="97.681" y2="172.967" stroke="#141414" stroke-width="0.4"/>
<line x1="71.707" y1="148.724" x2="8.563" y2="132.772" stroke="#141414" stroke-width="0.4"/>
<line x1="8.563" y1="132.772" x2="34.195" y2="87.37" stroke="#141414" stroke-width="0.4"/>
<line x1="185.943" y1="151.251" x2="158.384" y2="138.293" stroke="#141414" stroke-width="0.4"/>
<line x1="65.418" y1="91.41" x2="46.952" y2="119.106" stroke="#141414" stroke-width="0.4"/>
<line x1="57.863" y1="72.147" x2="65.418" y2="91.41" stroke="#141414" stroke-width="0.4"/>
<line x1="34.195" y1="87.37" x2="57.863" y2="72.147" stroke="#141414" stroke-width="0.4"/>
<line x1="133.696" y1="125.525" x2="142.111" y2="152.015" stroke="#141414" stroke-width="0.4"/>
<line x1="142.111" y1="152.015" x2="118.691" y2="159.866" stroke="#141414" stroke-width="0.4"/>
<line x1="46.952" y1="119.106" x2="101.93" y2="136.946" stroke="#141414" stroke-width="0.4"/>
<line x1="9.71" y1="165.241" x2="6.088" y2="160.066" stroke="#141414" stroke-width="0.4"/>
<line x1="6.088" y1="160.066" x2="11.928" y2="144.387" stroke="#141414" stroke-width="0.4"/>
<line x1="11.928" y1="144.387" x2="18.052" y2="142.842" stroke="#141414" stroke-width="0.4"/>
<line x1="115.94" y1="44.1" x2="124.464" y2="47.989" stroke="#141414" stroke-width="0.4"/>
<line x1="124.464" y1="47.989" x2="143.611" y2="78.912" stroke="#141414" stroke-width="0.4"/>
<line x1="143.611" y1="78.912" x2="143.293" y2="88.276" stroke="#141414" stroke-width="0.4"/>
<line x1="60.314" y1="177.026" x2="65.132" y2="184.693" stroke="#141414" stroke-width="0.4"/>
<line x1="65.132" y1="184.693" x2="97.022" y2="198.102" stroke="#141414" stroke-width="0.4"/>
<line x1="97.022" y1="198.102" x2="105.871" y2="196.182" stroke="#141414" stroke-width="0.4"/>
<line x1="89.687" y1="40.544" x2="84.938" y2="46.831" stroke="#141414" stroke-width="0.4"/>
<line x1="84.938" y1="46.831" x2="86.976" y2="74.383" stroke="#141414" stroke-width="0.4"/>
<line x1="86.976" y1="74.383" x2="92.599" y2="79.904" stroke="#141414" stroke-width="0.4"/>
<line x1="118.691" y1="185.796" x2="124.326" y2="189.841" stroke="#141414" stroke-width="0.4"/>
<line x1="124.326" y1="189.841" x2="145.214" y2="185.06" stroke="#141414" stroke-width="0.4"/>
<line x1="145.214" y1="185.06" x2="148.529" y2="178.966" stroke="#141414" stroke-width="0.4"/>
<line x1="105.871" y1="196.182" x2="107.335" y2="184.702" stroke="#141414" stroke-width="0.4"/>
<line x1="107.335" y1="184.702" x2="106.024" y2="180.987" stroke="#141414" stroke-width="0.4"/>
<line x1="106.024" y1="180.987" x2="97.681" y2="172.967" stroke="#141414" stroke-width="0.4"/>
<line x1="148.529" y1="178.966" x2="146.857" y2="171.722" stroke="#141414" stroke-width="0.4"/>
<line x1="146.857" y1="171.722" x2="125.97" y2="158.352" stroke="#141414" stroke-width="0.4"/>
<line x1="125.97" y1="158.352" x2="118.691" y2="159.866" stroke="#141414" stroke-width="0.4"/>
<line x1="133.696" y1="125.525" x2="138.714" y2="133.975" stroke="#141414" stroke-width="0.4"/>
<line x1="138.714" y1="133.975" x2="148.589" y2="139.082" stroke="#141414" stroke-width="0.4"/>
<line x1="148.589" y1="139.082" x2="158.384" y2="138.293" stroke="#141414" stroke-width="0.4"/>
<line x1="92.599" y1="79.904" x2="88.867" y2="89.299" stroke="#141414" stroke-width="0.4"/>
<line x1="88.867" y1="89.299" x2="95.398" y2="129.229" stroke="#141414" stroke-width="0.4"/>
<line x1="95.398" y1="129.229" x2="101.93" y2="136.946" stroke="#141414" stroke-width="0.4"/>
<circle cx="11.444" cy="153.134" r="1.58" fill="#ffe082" stroke="#464646" stroke-width="0.2"/>
<text x="11.444" y="153.88" font-size="2.14" text-anchor="middle" fill="#141414">40</text>
<circle cx="131.827" cy="64.819" r="1.58" fill="#99d9fa" stroke="#464646" stroke-width="0.2"/>
<text x="131.827" y="65.57" font-size="2.14" text-anchor="middle" fill="#141414">41</text>
<circle cx="82.085" cy="189.001" r="1.58" fill="#ffe082" stroke="#464646" stroke-width="0.2"/>
<text x="82.085" y="189.75" font-size="2.14" text-anchor="middle" fill="#141414">48</text>
<circle cx="88.55" cy="60.416" r="1.58" fill="#ffe082" stroke="#464646" stroke-width="0.2"/>
<text x="88.55" y="61.17" font-size="2.14" text-anchor="middle" fill="#141414">51</text>
<circle cx="134.19" cy="184.916" r="1.58" fill="#ffe082" stroke="#464646" stroke-width="0.2"/>
<text x="134.19" y="185.67" font-size="2.14" text-anchor="middle" fill="#141414">56</text>
<circle cx="104.228" cy="183.709" r="1.58" fill="#ffe082" stroke="#464646" stroke-width="0.2"/>
<text x="104.228" y="184.46" font-size="2.14" text-anchor="middle" fill="#141414">57</text>
<circle cx="135.012" cy="167.227" r="1.58" fill="#ffe082" stroke="#464646" stroke-width="0.2"/>
<text x="135.012" y="167.98" font-size="2.14" text-anchor="middle" fill="#141414">61</text>
<circle cx="144.846" cy="134.219" r="1.58" fill="#ffe082" stroke="#464646" stroke-width="0.2"/>
<text x="144.846" y="134.97" font-size="2.14" text-anchor="middle" fill="#141414">67</text>
<circle cx="94.698" cy="108.844" r="1.58" fill="#ffe082" stroke="#464646" stroke-width="0.2"/>
<text x="94.698" y="109.59" font-size="2.14" text-anchor="middle" fill="#141414">74</text>
<circle cx="105.327" cy="81.991" r="4.14" fill="#eaf1fe" stroke="#2e78e6" stroke-width="0.3"/>
<text x="105.327" y="83.61" font-size="4.68" text-anchor="middle" fill="#14306e" font-weight="bold">2</text>
<polygon points="25.1,220.315 17.827,223.875 6.061,250.345 8.291,258.13" fill="rgb(216,216,216)"/>
<polygon points="8.291,258.13 17.925,266.211 32.631,270.308 45.056,268.372" fill="rgb(216,216,216)"/>
<polygon points="91.959,218.245 89.462,211.482 68.104,202.166 61.448,204.936" fill="rgb(216,216,216)"/>
<polygon points="91.959,218.245 98.007,218.554 104.786,231.354 101.643,236.531" fill="rgb(216,216,216)"/>
<polygon points="78.94,258.13 84.657,260.038 87.6,273.962 83.142,278.021" fill="rgb(216,216,216)"/>
<polygon points="73.701,239.876 82.702,244.036 93.879,242.697 101.643,236.531" fill="rgb(216,216,216)"/>
<polygon points="78.94,258.13 84.657,260.038 87.6,273.962 83.142,278.021" fill="#99d9fa"/>
<line x1="25.1" y1="220.315" x2="91.959" y2="218.245" stroke="#8c8c8c" stroke-width="0.3" stroke-dasharray="1.2,0.8"/>
<line x1="25.1" y1="220.315" x2="78.939" y2="258.13" stroke="#8c8c8c" stroke-width="0.3" stroke-dasharray="1.2,0.8"/>
<line x1="8.291" y1="258.13" x2="78.939" y2="258.13" stroke="#8c8c8c" stroke-width="0.3" stroke-dasharray="1.2,0.8"/>
<line x1="73.701" y1="239.876" x2="78.939" y2="258.13" stroke="#8c8c8c" stroke-width="0.3" stroke-dasharray="1.2,0.8"/>
<line x1="45.056" y1="268.372" x2="83.142" y2="278.021" stroke="#8c8c8c" stroke-width="0.3" stroke-dasharray="1.2,0.8"/>
<line x1="25.1" y1="220.315" x2="73.701" y2="239.876" stroke="#8c8c8c" stroke-width="0.3" stroke-dasharray="1.2,0.8"/>
<line x1="78.939" y1="258.13" x2="45.056" y2="268.372" stroke="#8c8c8c" stroke-width="0.3" stroke-dasharray="1.2,0.8"/>
<line x1="8.291" y1="258.13" x2="25.1" y2="220.315" stroke="#8c8c8c" stroke-width="0.3" stroke-dasharray="1.2,0.8"/>
<line x1="45.056" y1="268.372" x2="8.291" y2="258.13" stroke="#8c8c8c" stroke-width="0.3" stroke-dasharray="1.2,0.8"/>
<line x1="61.448" y1="204.936" x2="91.959" y2="218.245" stroke="#8c8c8c" stroke-width="0.3" stroke-dasharray="1.2,0.8"/>
<line x1="101.643" y1="236.531" x2="91.959" y2="218.245" stroke="#8c8c8c" stroke-width="0.3" stroke-dasharray="1.2,0.8"/>
<line x1="83.142" y1="278.021" x2="78.94" y2="258.13" stroke="#8c8c8c" stroke-width="0.3" stroke-dasharray="1.2,0.8"/>
<line x1="101.643" y1="236.531" x2="73.701" y2="239.876" stroke="#8c8c8c" stroke-width="0.3" stroke-dasharray="1.2,0.8"/>
<line x1="25.1" y1="220.315" x2="61.448" y2="204.936" stroke="#141414" stroke-width="0.4"/>
<line x1="99.221" y1="256.724" x2="78.939" y2="258.13" stroke="#141414" stroke-width="0.4"/>
<line x1="73.701" y1="239.876" x2="99.221" y2="256.724" stroke="#141414" stroke-width="0.4"/>
<line x1="83.142" y1="278.021" x2="12.773" y2="282.243" stroke="#141414" stroke-width="0.4"/>
<line x1="12.773" y1="282.243" x2="45.056" y2="268.372" stroke="#141414" stroke-width="0.4"/>
<line x1="25.1" y1="220.315" x2="17.827" y2="223.875" stroke="#141414" stroke-width="0.4"/>
<line x1="17.827" y1="223.875" x2="6.061" y2="250.345" stroke="#141414" stroke-width="0.4"/>
<line x1="6.061" y1="250.345" x2="8.291" y2="258.13" stroke="#141414" stroke-width="0.4"/>
<line x1="8.291" y1="258.13" x2="17.925" y2="266.211" stroke="#141414" stroke-width="0.4"/>
<line x1="17.925" y1="266.211" x2="32.631" y2="270.308" stroke="#141414" stroke-width="0.4"/>
<line x1="32.631" y1="270.308" x2="45.056" y2="268.372" stroke="#141414" stroke-width="0.4"/>
<line x1="91.959" y1="218.245" x2="89.462" y2="211.482" stroke="#141414" stroke-width="0.4"/>
<line x1="89.462" y1="211.482" x2="68.104" y2="202.166" stroke="#141414" stroke-width="0.4"/>
<line x1="68.104" y1="202.166" x2="61.448" y2="204.936" stroke="#141414" stroke-width="0.4"/>
<line x1="91.959" y1="218.245" x2="98.007" y2="218.554" stroke="#141414" stroke-width="0.4"/>
<line x1="98.007" y1="218.554" x2="104.786" y2="231.354" stroke="#141414" stroke-width="0.4"/>
<line x1="104.786" y1="231.354" x2="101.643" y2="236.531" stroke="#141414" stroke-width="0.4"/>
<line x1="78.94" y1="258.13" x2="84.657" y2="260.038" stroke="#141414" stroke-width="0.4"/>
<line x1="84.657" y1="260.038" x2="87.6" y2="273.962" stroke="#141414" stroke-width="0.4"/>
<line x1="87.6" y1="273.962" x2="83.142" y2="278.021" stroke="#141414" stroke-width="0.4"/>
<line x1="73.701" y1="239.876" x2="82.702" y2="244.036" stroke="#141414" stroke-width="0.4"/>
<line x1="82.702" y1="244.036" x2="93.879" y2="242.697" stroke="#141414" stroke-width="0.4"/>
<line x1="93.879" y1="242.697" x2="101.643" y2="236.531" stroke="#141414" stroke-width="0.4"/>
<circle cx="14.32" cy="238.166" r="1.58" fill="#ffe082" stroke="#464646" stroke-width="0.2"/>
<text x="14.32" y="238.92" font-size="2.14" text-anchor="middle" fill="#141414">50</text>
<circle cx="25.976" cy="265.755" r="1.58" fill="#ffe082" stroke="#464646" stroke-width="0.2"/>
<text x="25.976" y="266.50" font-size="2.14" text-anchor="middle" fill="#141414">55</text>
<circle cx="77.743" cy="209.207" r="1.58" fill="#ffe082" stroke="#464646" stroke-width="0.2"/>
<text x="77.743" y="209.96" font-size="2.14" text-anchor="middle" fill="#141414">62</text>
<circle cx="99.099" cy="226.171" r="1.58" fill="#ffe082" stroke="#464646" stroke-width="0.2"/>
<text x="99.099" y="226.92" font-size="2.14" text-anchor="middle" fill="#141414">63</text>
<circle cx="83.585" cy="267.538" r="1.58" fill="#99d9fa" stroke="#464646" stroke-width="0.2"/>
<text x="83.585" y="268.29" font-size="2.14" text-anchor="middle" fill="#141414">64</text>
<circle cx="87.981" cy="240.785" r="1.58" fill="#ffe082" stroke="#464646" stroke-width="0.2"/>
<text x="87.981" y="241.53" font-size="2.14" text-anchor="middle" fill="#141414">66</text>
<circle cx="69.046" cy="268.174" r="4.60" fill="#eaf1fe" stroke="#2e78e6" stroke-width="0.3"/>
<text x="69.046" y="269.97" font-size="5.20" text-anchor="middle" fill="#14306e" font-weight="bold">3</text>
<text x="205.0" y="295.0" font-size="3.2" text-anchor="end" fill="#737373" font-family="sans-serif">2 / 5</text>
</svg>
