<svg xmlns="http://www.w3.org/2000/svg" xmlns:xlink="http://www.w3.org/1999/xlink" width="210.00mm" height="297.00mm" viewBox="0 0 210.00 297.00">
<rect x="0" y="0" width="210.00" height="297.00" fill="#ffffff" stroke="#cccccc" stroke-width="0.2"/>
<polygon points="56.784,114.504 51.0,121.504 24.003,121.504 18.218,114.504" fill="rgb(216,216,216)"/>
<polygon points="56.784,79.035 51.0,72.035 24.003,72.035 18.218,79.035" fill="rgb(216,216,216)"/>
<polygon points="83.469,114.504 90.469,109.183 90.469,84.355 83.469,79.035" fill="rgb(216,216,216)"/>
<polygon points="83.469,114.504 90.469,120.289 90.469,147.285 83.469,153.07" fill="rgb(216,216,216)"/>
<polygon points="83.469,79.035 90.469,73.25 90.469,46.254 83.469,40.469" fill="rgb(216,216,216)"/>
<polygon points="18.218,114.504 11.218,109.183 11.218,84.355 18.218,79.035" fill="rgb(216,216,216)"/>
<polygon points="56.784,153.07 60.787,160.07 79.467,160.07 83.469,153.07" fill="rgb(216,216,216)"/>
<polygon points="56.784,114.504 51.0,121.504 24.003,121.504 18.218,114.504" fill="#99d9fa"/>
<line x1="56.784" y1="114.504" x2="56.784" y2="79.035" stroke="#8c8c8c" stroke-width="0.3" stroke-dasharray="1.2,0.8"/>
<line x1="83.469" y1="114.504" x2="56.784" y2="114.504" stroke="#8c8c8c" stroke-width="0.3" stroke-dasharray="1.2,0.8"/>
<line x1="56.784" y1="79.035" x2="83.469" y2="79.035" stroke="#8c8c8c" stroke-width="0.3" stroke-dasharray="1.2,0.8"/>
<line x1="56.784" y1="40.469" x2="83.469" y2="40.469" stroke="#8c8c8c" stroke-width="0.3" stroke-dasharray="1.2,0.8"/>
<line x1="83.469" y1="40.469" x2="83.469" y2="5.0" stroke="#8c8c8c" stroke-width="0.3" stroke-dasharray="1.2,0.8"/>
<line x1="18.218" y1="114.504" x2="56.784" y2="114.504" stroke="#8c8c8c" stroke-width="0.3" stroke-dasharray="1.2,0.8"/>
<line x1="18.218" y1="79.035" x2="56.784" y2="79.035" stroke="#8c8c8c" stroke-width="0.3" stroke-dasharray="1.2,0.8"/>
<line x1="83.469" y1="79.035" x2="83.469" y2="114.504" stroke="#8c8c8c" stroke-width="0.3" stroke-dasharray="1.2,0.8"/>
<line x1="83.469" y1="153.07" x2="83.469" y2="114.504" stroke="#8c8c8c" stroke-width="0.3" stroke-dasharray="1.2,0.8"/>
<line x1="83.469" y1="40.469" x2="83.469" y2="79.035" stroke="#8c8c8c" stroke-width="0.3" stroke-dasharray="1.2,0.8"/>
<line x1="18.218" y1="79.035" x2="18.218" y2="114.504" stroke="#8c8c8c" stroke-width="0.3" stroke-dasharray="1.2,0.8"/>
<line x1="83.469" y1="153.07" x2="56.784" y2="153.07" stroke="#8c8c8c" stroke-width="0.3" stroke-dasharray="1.2,0.8"/>
<line x1="56.784" y1="153.07" x2="56.784" y2="114.504" stroke="#141414" stroke-width="0.4"/>
<line x1="56.784" y1="79.035" x2="56.784" y2="40.469" stroke="#141414" stroke-width="0.4"/>
<line x1="122.035" y1="5.0" x2="122.035" y2="40.469" stroke="#141414" stroke-width="0.4"/>
<line x1="83.469" y1="5.0" x2="122.035" y2="5.0" stroke="#141414" stroke-width="0.4"/>
<line x1="122.035" y1="40.469" x2="83.469" y2="40.469" stroke="#141414" stroke-width="0.4"/>
<line x1="56.784" y1="40.469" x2="56.784" y2="5.0" stroke="#141414" stroke-width="0.4"/>
<line x1="56.784" y1="5.0" x2="83.469" y2="5.0" stroke="#141414" stroke-width="0.4"/>
<line x1="56.784" y1="114.504" x2="51.0" y2="121.504" stroke="#141414" stroke-width="0.4"/>
<line x1="51.0" y1="121.504" x2="24.003" y2="121.504" stroke="#141414" stroke-width="0.4"/>
<line x1="24.003" y1="121.504" x2="18.218" y2="114.504" stroke="#141414" stroke-width="0.4"/>
<line x1="56.784" y1="79.035" x2="51.0" y2="72.035" stroke="#141414" stroke-width="0.4"/>
<line x1="51.0" y1="72.035" x2="24.003" y2="72.035" stroke="#141414" stroke-width="0.4"/>
<line x1="24.003" y1="72.035" x2="18.218" y2="79.035" stroke="#141414" stroke-width="0.4"/>
<line x1="83.469" y1="114.504" x2="90.469" y2="109.183" stroke="#141414" stroke-width="0.4"/>
<line x1="90.469" y1="109.183" x2="90.469" y2="84.355" stroke="#141414" stroke-width="0.4"/>
<line x1="90.469" y1="84.355" x2="83.469" y2="79.035" stroke="#141414" stroke-width="0.4"/>
<line x1="83.469" y1="114.504" x2="90.469" y2="120.289" stroke="#141414" stroke-width="0.4"/>
<line x1="90.469" y1="120.289" x2="90.469" y2="147.285" stroke="#141414" stroke-width="0.4"/>
<line x1="90.469" y1="147.285" x2="83.469" y2="153.07" stroke="#141414" stroke-width="0.4"/>
<line x1="83.469" y1="79.035" x2="90.469" y2="73.25" stroke="#141414" stroke-width="0.4"/>
<line x1="90.469" y1="73.25" x2="90.469" y2="46.254" stroke="#141414" stroke-width="0.4"/>
<line x1="90.469" y1="46.254" x2="83.469" y2="40.469" stroke="#141414" stroke-width="0.4"/>
<line x1="18.218" y1="114.504" x2="11.218" y2="109.183" stroke="#141414" stroke-width="0.4"/>
<line x1="11.218" y1="109.183" x2="11.218" y2="84.355" stroke="#141414" stroke-width="0.4"/>
<line x1="11.218" y1="84.355" x2="18.218" y2="79.035" stroke="#141414" stroke-width="0.4"/>
<line x1="56.784" y1="153.07" x2="60.787" y2="160.07" stroke="#141414" stroke-width="0.4"/>
<line x1="60.787" y1="160.07" x2="79.467" y2="160.07" stroke="#141414" stroke-width="0.4"/>
<line x1="79.467" y1="160.07" x2="83.469" y2="153.07" stroke="#141414" stroke-width="0.4"/>
<circle cx="37.501" cy="118.004" r="1.96" fill="#99d9fa" stroke="#464646" stroke-width="0.2"/>
<text x="37.501" y="118.68" font-size="1.92" text-anchor="middle" fill="#141414">8</text>
<circle cx="37.501" cy="75.535" r="1.96" fill="#ffe082" stroke="#464646" stroke-width="0.2"/>
<text x="37.501" y="76.21" font-size="1.92" text-anchor="middle" fill="#141414">9</text>
<circle cx="86.969" cy="96.769" r="1.96" fill="#ffe082" stroke="#464646" stroke-width="0.2"/>
<text x="86.969" y="97.44" font-size="1.92" text-anchor="middle" fill="#141414">10</text>
<circle cx="86.969" cy="133.787" r="1.96" fill="#ffe082" stroke="#464646" stroke-width="0.2"/>
<text x="86.969" y="134.46" font-size="1.92" text-anchor="middle" fill="#141414">11</text>
<circle cx="86.969" cy="59.752" r="1.96" fill="#ffe082" stroke="#464646" stroke-width="0.2"/>
<text x="86.969" y="60.42" font-size="1.92" text-anchor="middle" fill="#141414">12</text>
<circle cx="14.718" cy="96.769" r="1.96" fill="#ffe082" stroke="#464646" stroke-width="0.2"/>
<text x="14.718" y="97.44" font-size="1.92" text-anchor="middle" fill="#141414">13</text>
<circle cx="70.127" cy="156.57" r="1.96" fill="#ffe082" stroke="#464646" stroke-width="0.2"/>
<text x="70.127" y="157.24" font-size="1.92" text-anchor="middle" fill="#141414">14</text>
<circle cx="74.574" cy="140.215" r="4.60" fill="#eaf1fe" stroke="#2e78e6" stroke-width="0.3"/>
<text x="74.574" y="142.02" font-size="5.20" text-anchor="middle" fill="#14306e" font-weight="bold">2</text>
<polygon points="159.131,41.758 150.497,34.059 147.0,33.785 137.271,40.043" fill="rgb(216,216,216)"/>
<polygon points="150.492,57.535 139.355,54.409 137.24,51.611 137.271,40.043" fill="rgb(216,216,216)"/>
<polygon points="153.869,105.564 161.073,108.379 172.208,97.816 169.777,90.474" fill="rgb(216,216,216)"/>
<polygon points="153.869,105.564 149.989,112.254 134.698,110.932 132.025,103.675" fill="rgb(216,216,216)"/>
<polygon points="147.932,88.585 136.433,89.844 133.888,92.259 132.025,103.675" fill="rgb(216,216,216)"/>
<polygon points="190.122,56.468 185.874,64.218 178.765,65.331 172.351,59.25" fill="rgb(216,216,216)"/>
<polygon points="169.777,90.474 172.291,80.285 170.893,77.655 161.044,74.035" fill="rgb(216,216,216)"/>
<polygon points="190.122,56.468 190.863,46.0 189.039,43.647 178.716,41.758" fill="rgb(216,216,216)"/>
<polygon points="153.166,7.975 145.675,7.556 140.499,19.034 145.771,24.372" fill="rgb(216,216,216)"/>
<polygon points="126.073,86.87 125.262,76.407 127.071,74.042 137.381,72.084" fill="rgb(216,216,216)"/>
<polygon points="153.166,7.975 163.455,10.036 165.24,12.419 164.324,22.873" fill="rgb(216,216,216)"/>
<polygon points="153.166,7.975 145.675,7.556 140.499,19.034 145.771,24.372" fill="#99d9fa"/>
<line x1="150.492" y1="57.535" x2="159.131" y2="41.758" stroke="#8c8c8c" stroke-width="0.3" stroke-dasharray="1.2,0.8"/>
<line x1="172.351" y1="59.25" x2="159.131" y2="41.758" stroke="#8c8c8c" stroke-width="0.3" stroke-dasharray="1.2,0.8"/>
<line x1="164.324" y1="22.873" x2="159.131" y2="41.758" stroke="#8c8c8c" stroke-width="0.3" stroke-dasharray="1.2,0.8"/>
<line x1="159.131" y1="41.758" x2="178.716" y2="41.758" stroke="#8c8c8c" stroke-width="0.3" stroke-dasharray="1.2,0.8"/>
<line x1="172.351" y1="59.25" x2="150.492" y2="57.535" stroke="#8c8c8c" stroke-width="0.3" stroke-dasharray="1.2,0.8"/>
<line x1="150.492" y1="57.535" x2="137.381" y2="72.084" stroke="#8c8c8c" stroke-width="0.3" stroke-dasharray="1.2,0.8"/>
<line x1="161.044" y1="74.035" x2="150.492" y2="57.535" stroke="#8c8c8c" stroke-width="0.3" stroke-dasharray="1.2,0.8"/>
<line x1="153.869" y1="105.564" x2="147.932" y2="88.585" stroke="#8c8c8c" stroke-width="0.3" stroke-dasharray="1.2,0.8"/>
<line x1="164.324" y1="22.873" x2="183.91" y2="22.873" stroke="#8c8c8c" stroke-width="0.3" stroke-dasharray="1.2,0.8"/>
<line x1="183.91" y1="22.873" x2="178.716" y2="41.758" stroke="#8c8c8c" stroke-width="0.3" stroke-dasharray="1.2,0.8"/>
<line x1="169.776" y1="90.474" x2="147.932" y2="88.585" stroke="#8c8c8c" stroke-width="0.3" stroke-dasharray="1.2,0.8"/>
<line x1="137.381" y1="72.084" x2="147.932" y2="88.585" stroke="#8c8c8c" stroke-width="0.3" stroke-dasharray="1.2,0.8"/>
<line x1="147.932" y1="88.585" x2="161.044" y2="74.035" stroke="#8c8c8c" stroke-width="0.3" stroke-dasharray="1.2,0.8"/>
<line x1="172.351" y1="59.25" x2="161.044" y2="74.035" stroke="#8c8c8c" stroke-width="0.3" stroke-dasharray="1.2,0.8"/>
<line x1="178.716" y1="41.758" x2="172.351" y2="59.25" stroke="#8c8c8c" stroke-width="0.3" stroke-dasharray="1.2,0.8"/>
<line x1="137.381" y1="72.084" x2="128.648" y2="55.646" stroke="#8c8c8c" stroke-width="0.3" stroke-dasharray="1.2,0.8"/>
<line x1="145.77" y1="24.372" x2="164.324" y2="22.873" stroke="#8c8c8c" stroke-width="0.3" stroke-dasharray="1.2,0.8"/>
<line x1="137.381" y1="72.084" x2="161.044" y2="74.035" stroke="#8c8c8c" stroke-width="0.3" stroke-dasharray="1.2,0.8"/>
<line x1="164.324" y1="22.873" x2="178.716" y2="41.758" stroke="#8c8c8c" stroke-width="0.3" stroke-dasharray="1.2,0.8"/>
<line x1="137.271" y1="40.043" x2="159.131" y2="41.758" stroke="#8c8c8c" stroke-width="0.3" stroke-dasharray="1.2,0.8"/>
<line x1="137.271" y1="40.043" x2="150.492" y2="57.535" stroke="#8c8c8c" stroke-width="0.3" stroke-dasharray="1.2,0.8"/>
<line x1="169.777" y1="90.474" x2="153.869" y2="105.564" stroke="#8c8c8c" stroke-width="0.3" stroke-dasharray="1.2,0.8"/>
<line x1="132.025" y1="103.675" x2="153.869" y2="105.564" stroke="#8c8c8c" stroke-width="0.3" stroke-dasharray="1.2,0.8"/>
<line x1="132.025" y1="103.675" x2="147.932" y2="88.585" stroke="#8c8c8c" stroke-width="0.3" stroke-dasharray="1.2,0.8"/>
<line x1="172.351" y1="59.25" x2="190.122" y2="56.468" stroke="#8c8c8c" stroke-width="0.3" stroke-dasharray="1.2,0.8"/>
<line x1="161.044" y1="74.035" x2="169.777" y2="90.474" stroke="#8c8c8c" stroke-width="0.3" stroke-dasharray="1.2,0.8"/>
<line x1="178.716" y1="41.758" x2="190.122" y2="56.468" stroke="#8c8c8c" stroke-width="0.3" stroke-dasharray="1.2,0.8"/>
<line x1="145.771" y1="24.372" x2="153.166" y2="7.975" stroke="#8c8c8c" stroke-width="0.3" stroke-dasharray="1.2,0.8"/>
<line x1="137.381" y1="72.084" x2="126.073" y2="86.87" stroke="#8c8c8c" stroke-width="0.3" stroke-dasharray="1.2,0.8"/>
<line x1="164.324" y1="22.873" x2="153.166" y2="7.975" stroke="#8c8c8c" stroke-width="0.3" stroke-dasharray="1.2,0.8"/>
<line x1="159.131" y1="41.758" x2="145.77" y2="24.372" stroke="#141414" stroke-width="0.4"/>
<line x1="150.492" y1="57.535" x2="137.271" y2="40.043" stroke="#141414" stroke-width="0.4"/>
<line x1="128.648" y1="55.646" x2="150.492" y2="57.535" stroke="#141414" stroke-width="0.4"/>
<line x1="183.91" y1="22.873" x2="197.27" y2="40.259" stroke="#141414" stroke-width="0.4"/>
<line x1="170.689" y1="5.381" x2="183.91" y2="22.873" stroke="#141414" stroke-width="0.4"/>
<line x1="147.932" y1="88.585" x2="126.073" y2="86.87" stroke="#141414" stroke-width="0.4"/>
<line x1="172.351" y1="59.25" x2="179.581" y2="75.72" stroke="#141414" stroke-width="0.4"/>
<line x1="179.581" y1="75.72" x2="161.044" y2="74.035" stroke="#141414" stroke-width="0.4"/>
<line x1="197.27" y1="40.259" x2="178.716" y2="41.758" stroke="#141414" stroke-width="0.4"/>
<line x1="118.817" y1="70.709" x2="128.648" y2="55.646" stroke="#141414" stroke-width="0.4"/>
<line x1="137.381" y1="72.084" x2="118.817" y2="70.709" stroke="#141414" stroke-width="0.4"/>
<line x1="164.324" y1="22.873" x2="170.689" y2="5.381" stroke="#141414" stroke-width="0.4"/>
<line x1="159.131" y1="41.758" x2="150.497" y2="34.059" stroke="#141414" stroke-width="0.4"/>
<line x1="150.497" y1="34.059" x2="147.0" y2="33.785" stroke="#141414" stroke-width="0.4"/>
<line x1="147.0" y1="33.785" x2="137.271" y2="40.043" stroke="#141414" stroke-width="0.4"/>
<line x1="150.492" y1="57.535" x2="139.355" y2="54.409" stroke="#141414" stroke-width="0.4"/>
<line x1="139.355" y1="54.409" x2="137.24" y2="51.611" stroke="#141414" stroke-width="0.4"/>
<line x1="137.24" y1="51.611" x2="137.271" y2="40.043" stroke="#141414" stroke-width="0.4"/>
<line x1="153.869" y1="105.564" x2="161.073" y2="108.379" stroke="#141414" stroke-width="0.4"/>
<line x1="161.073" y1="108.379" x2="172.208" y2="97.816" stroke="#141414" stroke-width="0.4"/>
<line x1="172.208" y1="97.816" x2="169.777" y2="90.474" stroke="#141414" stroke-width="0.4"/>
<line x1="153.869" y1="105.564" x2="149.989" y2="112.254" stroke="#141414" stroke-width="0.4"/>
<line x1="149.989" y1="112.254" x2="134.698" y2="110.932" stroke="#141414" stroke-width="0.4"/>
<line x1="134.698" y1="110.932" x2="132.025" y2="103.675" stroke="#141414" stroke-width="0.4"/>
<line x1="147.932" y1="88.585" x2="136.433" y2="89.844" stroke="#141414" stroke-width="0.4"/>
<line x1="136.433" y1="89.844" x2="133.888" y2="92.259" stroke="#141414" stroke-width="0.4"/>
<line x1="133.888" y1="92.259" x2="132.025" y2="103.675" stroke="#141414" stroke-width="0.4"/>
<line x1="190.122" y1="56.468" x2="185.874" y2="64.218" stroke="#141414" stroke-width="0.4"/>
<line x1="185.874" y1="64.218" x2="178.765" y2="65.331" stroke="#141414" stroke-width="0.4"/>
<line x1="178.765" y1="65.331" x2="172.351" y2="59.25" stroke="#141414" stroke-width="0.4"/>
<line x1="169.777" y1="90.474" x2="172.291" y2="80.285" stroke="#141414" stroke-width="0.4"/>
<line x1="172.291" y1="80.285" x2="170.893" y2="77.655" stroke="#141414" stroke-width="0.4"/>
<line x1="170.893" y1="77.655" x2="161.044" y2="74.035" stroke="#141414" stroke-width="0.4"/>
<line x1="190.122" y1="56.468" x2="190.863" y2="46.0" stroke="#141414" stroke-width="0.4"/>
<line x1="190.863" y1="46.0" x2="189.039" y2="43.647" stroke="#141414" stroke-width="0.4"/>
<line x1="189.039" y1="43.647" x2="178.716" y2="41.758" stroke="#141414" stroke-width="0.4"/>
<line x1="153.166" y1="7.975" x2="145.675" y2="7.556" stroke="#141414" stroke-width="0.4"/>
<line x1="145.675" y1="7.556" x2="140.499" y2="19.034" stroke="#141414" stroke-width="0.4"/>
<line x1="140.499" y1="19.034" x2="145.771" y2="24.372" stroke="#141414" stroke-width="0.4"/>
<line x1="126.073" y1="86.87" x2="125.262" y2="76.407" stroke="#141414" stroke-width="0.4"/>
<line x1="125.262" y1="76.407" x2="127.071" y2="74.042" stroke="#141414" stroke-width="0.4"/>
<line x1="127.071" y1="74.042" x2="137.381" y2="72.084" stroke="#141414" stroke-width="0.4"/>
<line x1="153.166" y1="7.975" x2="163.455" y2="10.036" stroke="#141414" stroke-width="0.4"/>
<line x1="163.455" y1="10.036" x2="165.24" y2="12.419" stroke="#141414" stroke-width="0.4"/>
<line x1="165.24" y1="12.419" x2="164.324" y2="22.873" stroke="#141414" stroke-width="0.4"/>
<circle cx="148.475" cy="37.411" r="1.96" fill="#ffe082" stroke="#464646" stroke-width="0.2"/>
<text x="148.475" y="38.08" font-size="1.92" text-anchor="middle" fill="#141414">81</text>
<circle cx="141.09" cy="50.899" r="1.96" fill="#ffe082" stroke="#464646" stroke-width="0.2"/>
<text x="141.09" y="51.57" font-size="1.92" text-anchor="middle" fill="#141414">82</text>
<circle cx="164.232" cy="100.558" r="1.96" fill="#ffe082" stroke="#464646" stroke-width="0.2"/>
<text x="164.232" y="101.23" font-size="1.92" text-anchor="middle" fill="#141414">83</text>
<circle cx="142.645" cy="108.106" r="1.96" fill="#ffe082" stroke="#464646" stroke-width="0.2"/>
<text x="142.645" y="108.78" font-size="1.92" text-anchor="middle" fill="#141414">84</text>
<circle cx="137.569" cy="93.591" r="1.96" fill="#ffe082" stroke="#464646" stroke-width="0.2"/>
<text x="137.569" y="94.26" font-size="1.92" text-anchor="middle" fill="#141414">85</text>
<circle cx="181.778" cy="61.316" r="1.96" fill="#ffe082" stroke="#464646" stroke-width="0.2"/>
<text x="181.778" y="61.99" font-size="1.92" text-anchor="middle" fill="#141414">86</text>
<circle cx="168.501" cy="80.612" r="1.96" fill="#ffe082" stroke="#464646" stroke-width="0.2"/>
<text x="168.501" y="81.28" font-size="1.92" text-anchor="middle" fill="#141414">87</text>
<circle cx="187.185" cy="46.968" r="1.96" fill="#ffe082" stroke="#464646" stroke-width="0.2"/>
<text x="187.185" y="47.64" font-size="1.92" text-anchor="middle" fill="#141414">88</text>
<circle cx="146.278" cy="14.734" r="1.96" fill="#99d9fa" stroke="#464646" stroke-width="0.2"/>
<text x="146.278" y="15.41" font-size="1.92" text-anchor="middle" fill="#141414">89</text>
<circle cx="128.947" cy="77.351" r="1.96" fill="#ffe082" stroke="#464646" stroke-width="0.2"/>
<text x="128.947" y="78.02" font-size="1.92" text-anchor="middle" fill="#141414">90</text>
<circle cx="161.546" cy="13.326" r="1.96" fill="#ffe082" stroke="#464646" stroke-width="0.2"/>
<text x="161.546" y="14.00" font-size="1.92" text-anchor="middle" fill="#141414">91</text>
<circle cx="175.65" cy="29.168" r="4.15" fill="#eaf1fe" stroke="#2e78e6" stroke-width="0.3"/>
<text x="175.65" y="30.79" font-size="4.70" text-anchor="middle" fill="#14306e" font-weight="bold">9</text>
<polygon points="41.717,222.186 33.319,222.32 21.643,240.56 25.036,248.243" fill="rgb(216,216,216)"/>
<polygon points="25.036,248.243 28.012,254.032 42.427,241.726 43.135,241.461" fill="rgb(216,216,216)"/>
<polygon points="13.884,208.676 13.398,202.185 32.118,205.151 32.86,205.008" fill="rgb(216,216,216)"/>
<polygon points="13.849,201.525 7.876,196.682 11.617,182.309 19.193,180.992" fill="rgb(216,216,216)"/>
<polygon points="81.918,243.022 85.312,250.704 73.636,268.944 65.238,269.078" fill="rgb(216,216,216)"/>
<polygon points="81.918,243.022 78.942,237.232 64.527,249.538 63.82,249.803" fill="rgb(216,216,216)"/>
<polygon points="65.119,183.422 65.605,189.913 46.885,186.947 46.143,187.09" fill="rgb(216,216,216)"/>
<polygon points="81.026,211.106 74.662,204.106 66.175,204.106 59.81,211.106" fill="rgb(216,216,216)"/>
<polygon points="81.026,211.106 79.254,220.399 72.017,224.832 62.933,222.186" fill="rgb(216,216,216)"/>
<polygon points="37.286,169.912 30.917,165.605 18.251,173.361 19.193,180.992" fill="rgb(216,216,216)"/>
<polygon points="65.238,269.078 62.056,276.078 47.204,276.078 44.022,269.078" fill="rgb(216,216,216)"/>
<polygon points="81.026,211.106 74.662,204.106 66.175,204.106 59.81,211.106" fill="#99d9fa"/>
<line x1="43.135" y1="241.461" x2="41.717" y2="222.186" stroke="#8c8c8c" stroke-width="0.3" stroke-dasharray="1.2,0.8"/>
<line x1="32.86" y1="205.008" x2="41.717" y2="222.186" stroke="#8c8c8c" stroke-width="0.3" stroke-dasharray="1.2,0.8"/>
<line x1="59.81" y1="211.106" x2="41.717" y2="222.186" stroke="#8c8c8c" stroke-width="0.3" stroke-dasharray="1.2,0.8"/>
<line x1="41.717" y1="222.186" x2="62.933" y2="222.186" stroke="#8c8c8c" stroke-width="0.3" stroke-dasharray="1.2,0.8"/>
<line x1="44.022" y1="269.078" x2="28.741" y2="254.359" stroke="#8c8c8c" stroke-width="0.3" stroke-dasharray="1.2,0.8"/>
<line x1="63.82" y1="249.803" x2="65.238" y2="269.078" stroke="#8c8c8c" stroke-width="0.3" stroke-dasharray="1.2,0.8"/>
<line x1="46.143" y1="187.09" x2="37.286" y2="169.912" stroke="#8c8c8c" stroke-width="0.3" stroke-dasharray="1.2,0.8"/>
<line x1="63.82" y1="249.803" x2="43.135" y2="241.461" stroke="#8c8c8c" stroke-width="0.3" stroke-dasharray="1.2,0.8"/>
<line x1="44.022" y1="269.078" x2="63.82" y2="249.803" stroke="#8c8c8c" stroke-width="0.3" stroke-dasharray="1.2,0.8"/>
<line x1="62.933" y1="222.186" x2="63.82" y2="249.803" stroke="#8c8c8c" stroke-width="0.3" stroke-dasharray="1.2,0.8"/>
<line x1="43.135" y1="241.461" x2="44.022" y2="269.078" stroke="#8c8c8c" stroke-width="0.3" stroke-dasharray="1.2,0.8"/>
<line x1="62.933" y1="222.186" x2="43.135" y2="241.461" stroke="#8c8c8c" stroke-width="0.3" stroke-dasharray="1.2,0.8"/>
<line x1="32.86" y1="205.008" x2="46.143" y2="187.09" stroke="#8c8c8c" stroke-width="0.3" stroke-dasharray="1.2,0.8"/>
<line x1="46.143" y1="187.09" x2="19.193" y2="180.992" stroke="#8c8c8c" stroke-width="0.3" stroke-dasharray="1.2,0.8"/>
<line x1="46.143" y1="187.09" x2="59.81" y2="211.106" stroke="#8c8c8c" stroke-width="0.3" stroke-dasharray="1.2,0.8"/>
<line x1="19.193" y1="180.992" x2="32.86" y2="205.008" stroke="#8c8c8c" stroke-width="0.3" stroke-dasharray="1.2,0.8"/>
<line x1="32.86" y1="205.008" x2="59.81" y2="211.106" stroke="#8c8c8c" stroke-width="0.3" stroke-dasharray="1.2,0.8"/>
<line x1="34.085" y1="274.892" x2="44.022" y2="269.078" stroke="#8c8c8c" stroke-width="0.3" stroke-dasharray="1.2,0.8"/>
<line x1="59.81" y1="211.106" x2="62.933" y2="222.186" stroke="#8c8c8c" stroke-width="0.3" stroke-dasharray="1.2,0.8"/>
<line x1="25.036" y1="248.243" x2="41.717" y2="222.186" stroke="#8c8c8c" stroke-width="0.3" stroke-dasharray="1.2,0.8"/>
<line x1="43.135" y1="241.461" x2="25.036" y2="248.243" stroke="#8c8c8c" stroke-width="0.3" stroke-dasharray="1.2,0.8"/>
<line x1="32.86" y1="205.008" x2="13.884" y2="208.676" stroke="#8c8c8c" stroke-width="0.3" stroke-dasharray="1.2,0.8"/>
<line x1="19.193" y1="180.992" x2="13.849" y2="201.525" stroke="#8c8c8c" stroke-width="0.3" stroke-dasharray="1.2,0.8"/>
<line x1="65.238" y1="269.078" x2="81.918" y2="243.022" stroke="#8c8c8c" stroke-width="0.3" stroke-dasharray="1.2,0.8"/>
<line x1="63.82" y1="249.803" x2="81.918" y2="243.022" stroke="#8c8c8c" stroke-width="0.3" stroke-dasharray="1.2,0.8"/>
<line x1="46.143" y1="187.09" x2="65.119" y2="183.422" stroke="#8c8c8c" stroke-width="0.3" stroke-dasharray="1.2,0.8"/>
<line x1="59.81" y1="211.106" x2="81.026" y2="211.106" stroke="#8c8c8c" stroke-width="0.3" stroke-dasharray="1.2,0.8"/>
<line x1="62.933" y1="222.186" x2="81.026" y2="211.106" stroke="#8c8c8c" stroke-width="0.3" stroke-dasharray="1.2,0.8"/>
<line x1="19.193" y1="180.992" x2="37.286" y2="169.912" stroke="#8c8c8c" stroke-width="0.3" stroke-dasharray="1.2,0.8"/>
<line x1="44.022" y1="269.078" x2="65.238" y2="269.078" stroke="#8c8c8c" stroke-width="0.3" stroke-dasharray="1.2,0.8"/>
<line x1="41.717" y1="222.186" x2="13.884" y2="208.676" stroke="#141414" stroke-width="0.4"/>
<line x1="28.741" y1="254.359" x2="43.135" y2="241.461" stroke="#141414" stroke-width="0.4"/>
<line x1="32.86" y1="205.008" x2="13.849" y2="201.525" stroke="#141414" stroke-width="0.4"/>
<line x1="34.085" y1="274.892" x2="28.741" y2="254.359" stroke="#141414" stroke-width="0.4"/>
<line x1="37.286" y1="169.912" x2="65.119" y2="183.422" stroke="#141414" stroke-width="0.4"/>
<line x1="78.214" y1="236.905" x2="63.82" y2="249.803" stroke="#141414" stroke-width="0.4"/>
<line x1="46.143" y1="187.09" x2="65.154" y2="190.573" stroke="#141414" stroke-width="0.4"/>
<line x1="65.154" y1="190.573" x2="59.81" y2="211.106" stroke="#141414" stroke-width="0.4"/>
<line x1="62.933" y1="222.186" x2="78.214" y2="236.905" stroke="#141414" stroke-width="0.4"/>
<line x1="49.366" y1="289.611" x2="34.085" y2="274.892" stroke="#141414" stroke-width="0.4"/>
<line x1="44.022" y1="269.078" x2="49.366" y2="289.611" stroke="#141414" stroke-width="0.4"/>
<line x1="41.717" y1="222.186" x2="33.319" y2="222.32" stroke="#141414" stroke-width="0.4"/>
<line x1="33.319" y1="222.32" x2="21.643" y2="240.56" stroke="#141414" stroke-width="0.4"/>
<line x1="21.643" y1="240.56" x2="25.036" y2="248.243" stroke="#141414" stroke-width="0.4"/>
<line x1="25.036" y1="248.243" x2="28.012" y2="254.032" stroke="#141414" stroke-width="0.4"/>
<line x1="28.012" y1="254.032" x2="42.427" y2="241.726" stroke="#141414" stroke-width="0.4"/>
<line x1="42.427" y1="241.726" x2="43.135" y2="241.461" stroke="#141414" stroke-width="0.4"/>
<line x1="13.884" y1="208.676" x2="13.398" y2="202.185" stroke="#141414" stroke-width="0.4"/>
<line x1="13.398" y1="202.185" x2="32.118" y2="205.151" stroke="#141414" stroke-width="0.4"/>
<line x1="32.118" y1="205.151" x2="32.86" y2="205.008" stroke="#141414" stroke-width="0.4"/>
<line x1="13.849" y1="201.525" x2="7.876" y2="196.682" stroke="#141414" stroke-width="0.4"/>
<line x1="7.876" y1="196.682" x2="11.617" y2="182.309" stroke="#141414" stroke-width="0.4"/>
<line x1="11.617" y1="182.309" x2="19.193" y2="180.992" stroke="#141414" stroke-width="0.4"/>
<line x1="81.918" y1="243.022" x2="85.312" y2="250.704" stroke="#141414" stroke-width="0.4"/>
<line x1="85.312" y1="250.704" x2="73.636" y2="268.944" stroke="#141414" stroke-width="0.4"/>
<line x1="73.636" y1="268.944" x2="65.238" y2="269.078" stroke="#141414" stroke-width="0.4"/>
<line x1="81.918" y1="243.022" x2="78.942" y2="237.232" stroke="#141414" stroke-width="0.4"/>
<line x1="78.942" y1="237.232" x2="64.527" y2="249.538" stroke="#141414" stroke-width="0.4"/>
<line x1="64.527" y1="249.538" x2="63.82" y2="249.803" stroke="#141414" stroke-width="0.4"/>
<line x1="65.119" y1="183.422" x2="65.605" y2="189.913" stroke="#141414" stroke-width="0.4"/>
<line x1="65.605" y1="189.913" x2="46.885" y2="186.947" stroke="#141414" stroke-width="0.4"/>
<line x1="46.885" y1="186.947" x2="46.143" y2="187.09" stroke="#141414" stroke-width="0.4"/>
<line x1="81.026" y1="211.106" x2="74.662" y2="204.106" stroke="#141414" stroke-width="0.4"/>
<line x1="74.662" y1="204.106" x2="66.175" y2="204.106" stroke="#141414" stroke-width="0.4"/>
<line x1="66.175" y1="204.106" x2="59.81" y2="211.106" stroke="#141414" stroke-width="0.4"/>
<line x1="81.026" y1="211.106" x2="79.254" y2="220.399" stroke="#141414" stroke-width="0.4"/>
<line x1="79.254" y1="220.399" x2="72.017" y2="224.832" stroke="#141414" stroke-width="0.4"/>
<line x1="72.017" y1="224.832" x2="62.933" y2="222.186" stroke="#141414" stroke-width="0.4"/>
<line x1="37.286" y1="169.912" x2="30.917" y2="165.605" stroke="#141414" stroke-width="0.4"/>
<line x1="30.917" y1="165.605" x2="18.251" y2="173.361" stroke="#141414" stroke-width="0.4"/>
<line x1="18.251" y1="173.361" x2="19.193" y2="180.992" stroke="#141414" stroke-width="0.4"/>
<line x1="65.238" y1="269.078" x2="62.056" y2="276.078" stroke="#141414" stroke-width="0.4"/>
<line x1="62.056" y1="276.078" x2="47.204" y2="276.078" stroke="#141414" stroke-width="0.4"/>
<line x1="47.204" y1="276.078" x2="44.022" y2="269.078" stroke="#141414" stroke-width="0.4"/>
<circle cx="30.429" cy="233.327" r="1.96" fill="#ffe082" stroke="#464646" stroke-width="0.2"/>
<text x="30.429" y="234.00" font-size="1.92" text-anchor="middle" fill="#141414">92</text>
<circle cx="13.134" cy="190.377" r="1.96" fill="#ffe082" stroke="#464646" stroke-width="0.2"/>
<text x="13.134" y="191.05" font-size="1.92" text-anchor="middle" fill="#141414">95</text>
<circle cx="76.526" cy="257.937" r="1.96" fill="#ffe082" stroke="#464646" stroke-width="0.2"/>
<text x="76.526" y="258.61" font-size="1.92" text-anchor="middle" fill="#141414">96</text>
<circle cx="70.418" cy="207.606" r="1.96" fill="#99d9fa" stroke="#464646" stroke-width="0.2"/>
<text x="70.418" y="208.28" font-size="1.92" text-anchor="middle" fill="#141414">99</text>
<circle cx="73.808" cy="219.631" r="1.96" fill="#ffe082" stroke="#464646" stroke-width="0.2"/>
<text x="73.808" y="220.30" font-size="1.92" text-anchor="middle" fill="#141414">100</text>
<circle cx="26.412" cy="172.468" r="1.96" fill="#ffe082" stroke="#464646" stroke-width="0.2"/>
<text x="26.412" y="173.14" font-size="1.92" text-anchor="middle" fill="#141414">101</text>
<circle cx="54.63" cy="272.578" r="1.96" fill="#ffe082" stroke="#464646" stroke-width="0.2"/>
<text x="54.63" y="273.25" font-size="1.92" text-anchor="middle" fill="#141414">102</text>
<circle cx="46.271" cy="201.068" r="4.60" fill="#eaf1fe" stroke="#2e78e6" stroke-width="0.3"/>
<text x="46.271" y="202.87" font-size="5.20" text-anchor="middle" fill="#14306e" font-weight="bold">10</text>
<polygon points="122.152,222.186 113.755,222.32 102.078,240.56 105.472,248.243" fill="rgb(216,216,216)"/>
<polygon points="105.472,248.243 108.448,254.032 122.863,241.726 123.57,241.461" fill="rgb(216,216,216)"/>
<polygon points="94.32,208.676 93.834,202.185 112.554,205.151 113.295,205.008" fill="rgb(216,216,216)"/>
<polygon points="94.284,201.525 88.312,196.682 92.053,182.309 99.629,180.992" fill="rgb(216,216,216)"/>
<polygon points="162.354,243.022 165.748,250.704 154.071,268.944 145.674,269.078" fill="rgb(216,216,216)"/>
<polygon points="162.354,243.022 159.378,237.232 144.963,249.538 144.256,249.803" fill="rgb(216,216,216)"/>
<polygon points="145.555,183.422 146.041,189.913 127.321,186.947 126.579,187.09" fill="rgb(216,216,216)"/>
<polygon points="161.462,211.106 155.097,204.106 146.611,204.106 140.246,211.106" fill="rgb(216,216,216)"/>
<polygon points="161.462,211.106 159.69,220.399 152.452,224.832 143.369,222.186" fill="rgb(216,216,216)"/>
<polygon points="117.722,169.912 111.352,165.605 98.687,173.361 99.629,180.992" fill="rgb(216,216,216)"/>
<polygon points="145.674,269.078 142.491,276.078 127.64,276.078 124.457,269.078" fill="rgb(216,216,216)"/>
<polygon points="161.462,211.106 155.097,204.106 146.611,204.106 140.246,211.106" fill="#99d9fa"/>
<line x1="123.57" y1="241.461" x2="122.152" y2="222.186" stroke="#8c8c8c" stroke-width="0.3" stroke-dasharray="1.2,0.8"/>
<line x1="113.295" y1="205.008" x2="122.152" y2="222.186" stroke="#8c8c8c" stroke-width="0.3" stroke-dasharray="1.2,0.8"/>
<line x1="140.246" y1="211.106" x2="122.152" y2="222.186" stroke="#8c8c8c" stroke-width="0.3" stroke-dasharray="1.2,0.8"/>
<line x1="122.152" y1="222.186" x2="143.369" y2="222.186" stroke="#8c8c8c" stroke-width="0.3" stroke-dasharray="1.2,0.8"/>
<line x1="124.457" y1="269.078" x2="109.177" y2="254.359" stroke="#8c8c8c" stroke-width="0.3" stroke-dasharray="1.2,0.8"/>
<line x1="144.256" y1="249.803" x2="145.674" y2="269.078" stroke="#8c8c8c" stroke-width="0.3" stroke-dasharray="1.2,0.8"/>
<line x1="126.579" y1="187.09" x2="117.722" y2="169.912" stroke="#8c8c8c" stroke-width="0.3" stroke-dasharray="1.2,0.8"/>
<line x1="144.256" y1="249.803" x2="123.57" y2="241.461" stroke="#8c8c8c" stroke-width="0.3" stroke-dasharray="1.2,0.8"/>
<line x1="124.457" y1="269.078" x2="144.256" y2="249.803" stroke="#8c8c8c" stroke-width="0.3" stroke-dasharray="1.2,0.8"/>
<line x1="143.369" y1="222.186" x2="144.256" y2="249.803" stroke="#8c8c8c" stroke-width="0.3" stroke-dasharray="1.2,0.8"/>
<line x1="123.57" y1="241.461" x2="124.457" y2="269.078" stroke="#8c8c8c" stroke-width="0.3" stroke-dasharray="1.2,0.8"/>
<line x1="143.369" y1="222.186" x2="123.57" y2="241.461" stroke="#8c8c8c" stroke-width="0.3" stroke-dasharray="1.2,0.8"/>
<line x1="113.295" y1="205.008" x2="126.579" y2="187.09" stroke="#8c8c8c" stroke-width="0.3" stroke-dasharray="1.2,0.8"/>
<line x1="126.579" y1="187.09" x2="99.629" y2="180.992" stroke="#8c8c8c" stroke-width="0.3" stroke-dasharray="1.2,0.8"/>
<line x1="126.579" y1="187.09" x2="140.246" y2="211.106" stroke="#8c8c8c" stroke-width="0.3" stroke-dasharray="1.2,0.8"/>
<line x1="99.629" y1="180.992" x2="113.295" y2="205.008" stroke="#8c8c8c" stroke-width="0.3" stroke-dasharray="1.2,0.8"/>
<line x1="113.295" y1="205.008" x2="140.246" y2="211.106" stroke="#8c8c8c" stroke-width="0.3" stroke-dasharray="1.2,0.8"/>
<line x1="114.521" y1="274.892" x2="124.457" y2="269.078" stroke="#8c8c8c" stroke-width="0.3" stroke-dasharray="1.2,0.8"/>
<line x1="140.246" y1="211.106" x2="143.369" y2="222.186" stroke="#8c8c8c" stroke-width="0.3" stroke-dasharray="1.2,0.8"/>
<line x1="105.472" y1="248.243" x2="122.152" y2="222.186" stroke="#8c8c8c" stroke-width="0.3" stroke-dasharray="1.2,0.8"/>
<line x1="123.57" y1="241.461" x2="105.472" y2="248.243" stroke="#8c8c8c" stroke-width="0.3" stroke-dasharray="1.2,0.8"/>
<line x1="113.295" y1="205.008" x2="94.32" y2="208.676" stroke="#8c8c8c" stroke-width="0.3" stroke-dasharray="1.2,0.8"/>
<line x1="99.629" y1="180.992" x2="94.284" y2="201.525" stroke="#8c8c8c" stroke-width="0.3" stroke-dasharray="1.2,0.8"/>
<line x1="145.674" y1="269.078" x2="162.354" y2="243.022" stroke="#8c8c8c" stroke-width="0.3" stroke-dasharray="1.2,0.8"/>
<line x1="144.256" y1="249.803" x2="162.354" y2="243.022" stroke="#8c8c8c" stroke-width="0.3" stroke-dasharray="1.2,0.8"/>
<line x1="126.579" y1="187.09" x2="145.555" y2="183.422" stroke="#8c8c8c" stroke-width="0.3" stroke-dasharray="1.2,0.8"/>
<line x1="140.246" y1="211.106" x2="161.462" y2="211.106" stroke="#8c8c8c" stroke-width="0.3" stroke-dasharray="1.2,0.8"/>
<line x1="143.369" y1="222.186" x2="161.462" y2="211.106" stroke="#8c8c8c" stroke-width="0.3" stroke-dasharray="1.2,0.8"/>
<line x1="99.629" y1="180.992" x2="117.722" y2="169.912" stroke="#8c8c8c" stroke-width="0.3" stroke-dasharray="1.2,0.8"/>
<line x1="124.457" y1="269.078" x2="145.674" y2="269.078" stroke="#8c8c8c" stroke-width="0.3" stroke-dasharray="1.2,0.8"/>
<line x1="122.152" y1="222.186" x2="94.32" y2="208.676" stroke="#141414" stroke-width="0.4"/>
<line x1="109.177" y1="254.359" x2="123.57" y2="241.461" stroke="#141414" stroke-width="0.4"/>
<line x1="113.295" y1="205.008" x2="94.284" y2="201.525" stroke="#141414" stroke-width="0.4"/>
<line x1="114.521" y1="274.892" x2="109.177" y2="254.359" stroke="#141414" stroke-width="0.4"/>
<line x1="117.722" y1="169.912" x2="145.555" y2="183.422" stroke="#141414" stroke-width="0.4"/>
<line x1="158.649" y1="236.905" x2="144.256" y2="249.803" stroke="#141414" stroke-width="0.4"/>
<line x1="126.579" y1="187.09" x2="145.59" y2="190.573" stroke="#141414" stroke-width="0.4"/>
<line x1="145.59" y1="190.573" x2="140.246" y2="211.106" stroke="#141414" stroke-width="0.4"/>
<line x1="143.369" y1="222.186" x2="158.649" y2="236.905" stroke="#141414" stroke-width="0.4"/>
<line x1="129.802" y1="289.611" x2="114.521" y2="274.892" stroke="#141414" stroke-width="0.4"/>
<line x1="124.457" y1="269.078" x2="129.802" y2="289.611" stroke="#141414" stroke-width="0.4"/>
<line x1="122.152" y1="222.186" x2="113.755" y2="222.32" stroke="#141414" stroke-width="0.4"/>
<line x1="113.755" y1="222.32" x2="102.078" y2="240.56" stroke="#141414" stroke-width="0.4"/>
<line x1="102.078" y1="240.56" x2="105.472" y2="248.243" stroke="#141414" stroke-width="0.4"/>
<line x1="105.472" y1="248.243" x2="108.448" y2="254.032" stroke="#141414" stroke-width="0.4"/>
<line x1="108.448" y1="254.032" x2="122.863" y2="241.726" stroke="#141414" stroke-width="0.4"/>
<line x1="122.863" y1="241.726" x2="123.57" y2="241.461" stroke="#141414" stroke-width="0.4"/>
<line x1="94.32" y1="208.676" x2="93.834" y2="202.185" stroke="#141414" stroke-width="0.4"/>
<line x1="93.834" y1="202.185" x2="112.554" y2="205.151" stroke="#141414" stroke-width="0.4"/>
<line x1="112.554" y1="205.151" x2="113.295" y2="205.008" stroke="#141414" stroke-width="0.4"/>
<line x1="94.284" y1="201.525" x2="88.312" y2="196.682" stroke="#141414" stroke-width="0.4"/>
<line x1="88.312" y1="196.682" x2="92.053" y2="182.309" stroke="#141414" stroke-width="0.4"/>
<line x1="92.053" y1="182.309" x2="99.629" y2="180.992" stroke="#141414" stroke-width="0.4"/>
<line x1="162.354" y1="243.022" x2="165.748" y2="250.704" stroke="#141414" stroke-width="0.4"/>
<line x1="165.748" y1="250.704" x2="154.071" y2="268.944" stroke="#141414" stroke-width="0.4"/>
<line x1="154.071" y1="268.944" x2="145.674" y2="269.078" stroke="#141414" stroke-width="0.4"/>
<line x1="162.354" y1="243.022" x2="159.378" y2="237.232" stroke="#141414" stroke-width="0.4"/>
<line x1="159.378" y1="237.232" x2="144.963" y2="249.538" stroke="#141414" stroke-width="0.4"/>
<line x1="144.963" y1="249.538" x2="144.256" y2="249.803" stroke="#141414" stroke-width="0.4"/>
<line x1="145.555" y1="183.422" x2="146.041" y2="189.913" stroke="#141414" stroke-width="0.4"/>
<line x1="146.041" y1="189.913" x2="127.321" y2="186.947" stroke="#141414" stroke-width="0.4"/>
<line x1="127.321" y1="186.947" x2="126.579" y2="187.09" stroke="#141414" stroke-width="0.4"/>
<line x1="161.462" y1="211.106" x2="155.097" y2="204.106" stroke="#141414" stroke-width="0.4"/>
<line x1="155.097" y1="204.106" x2="146.611" y2="204.106" stroke="#141414" stroke-width="0.4"/>
<line x1="146.611" y1="204.106" x2="140.246" y2="211.106" stroke="#141414" stroke-width="0.4"/>
<line x1="161.462" y1="211.106" x2="159.69" y2="220.399" stroke="#141414" stroke-width="0.4"/>
<line x1="159.69" y1="220.399" x2="152.452" y2="224.832" stroke="#141414" stroke-width="0.4"/>
<line x1="152.452" y1="224.832" x2="143.369" y2="222.186" stroke="#141414" stroke-width="0.4"/>
<line x1="117.722" y1="169.912" x2="111.352" y2="165.605" stroke="#141414" stroke-width="0.4"/>
<line x1="111.352" y1="165.605" x2="98.687" y2="173.361" stroke="#141414" stroke-width="0.4"/>
<line x1="98.687" y1="173.361" x2="99.629" y2="180.992" stroke="#141414" stroke-width="0.4"/>
<line x1="145.674" y1="269.078" x2="142.491" y2="276.078" stroke="#141414" stroke-width="0.4"/>
<line x1="142.491" y1="276.078" x2="127.64" y2="276.078" stroke="#141414" stroke-width="0.4"/>
<line x1="127.64" y1="276.078" x2="124.457" y2="269.078" stroke="#141414" stroke-width="0.4"/>
<circle cx="110.864" cy="233.327" r="1.96" fill="#ffe082" stroke="#464646" stroke-width="0.2"/>
<text x="110.864" y="234.00" font-size="1.92" text-anchor="middle" fill="#141414">103</text>
<circle cx="93.57" cy="190.377" r="1.96" fill="#ffe082" stroke="#464646" stroke-width="0.2"/>
<text x="93.57" y="191.05" font-size="1.92" text-anchor="middle" fill="#141414">106</text>
<circle cx="156.962" cy="257.937" r="1.96" fill="#ffe082" stroke="#464646" stroke-width="0.2"/>
<text x="156.962" y="258.61" font-size="1.92" text-anchor="middle" fill="#141414">107</text>
<circle cx="150.854" cy="207.606" r="1.96" fill="#99d9fa" stroke="#464646" stroke-width="0.2"/>
<text x="150.854" y="208.28" font-size="1.92" text-anchor="middle" fill="#141414">110</text>
<circle cx="154.243" cy="219.631" r="1.96" fill="#ffe082" stroke="#464646" stroke-width="0.2"/>
<text x="154.243" y="220.30" font-size="1.92" text-anchor="middle" fill="#141414">111</text>
<circle cx="106.848" cy="172.468" r="1.96" fill="#ffe082" stroke="#464646" stroke-width="0.2"/>
<text x="106.848" y="173.14" font-size="1.92" text-anchor="middle" fill="#141414">112</text>
<circle cx="135.066" cy="272.578" r="1.96" fill="#ffe082" stroke="#464646" stroke-width="0.2"/>
<text x="135.066" y="273.25" font-size="1.92" text-anchor="middle" fill="#141414">113</text>
<circle cx="126.707" cy="201.068" r="4.60" fill="#eaf1fe" stroke="#2e78e6" stroke-width="0.3"/>
<text x="126.707" y="202.87" font-size="5.20" text-anchor="middle" fill="#14306e" font-weight="bold">11</text>
<text x="205.0" y="295.0" font-size="3.2" text-anchor="end" fill="#737373" font-family="sans-serif">2 / 8</text>
</svg>
