<svg xmlns="http://www.w3.org/2000/svg" xmlns:xlink="http://www.w3.org/1999/xlink" width="210.00mm" height="297.00mm" viewBox="0 0 210.00 297.00">
<rect x="0" y="0" width="210.00" height="297.00" fill="#ffffff" stroke="#cccccc" stroke-width="0.2"/>
<polygon points="89.458,187.629 82.458,192.964 82.458,217.857 89.458,223.191" fill="rgb(216,216,216)"/>
<polygon points="5.0,114.095 18.632,119.269 77.753,111.054 89.458,102.36" fill="rgb(216,216,216)"/>
<polygon points="89.458,223.191 91.811,230.191 102.794,230.191 105.147,223.191" fill="rgb(216,216,216)"/>
<polygon points="5.0,78.534 18.632,73.361 77.753,81.576 89.458,90.269" fill="rgb(216,216,216)"/>
<polygon points="105.147,187.629 111.036,174.246 105.967,114.558 97.906,102.36" fill="rgb(216,216,216)"/>
<polygon points="105.147,5.0 111.036,18.383 105.967,78.071 97.906,90.269" fill="rgb(216,216,216)"/>
<polygon points="189.915,199.364 195.96,201.178 195.96,209.642 189.915,211.456" fill="rgb(216,216,216)"/>
<polygon points="89.458,187.629 82.458,192.964 82.458,217.857 89.458,223.191" fill="#99d9fa"/>
<line x1="89.458" y1="187.629" x2="105.147" y2="187.629" stroke="#8c8c8c" stroke-width="0.3" stroke-dasharray="1.2,0.8"/>
<line x1="105.147" y1="187.629" x2="105.147" y2="223.191" stroke="#8c8c8c" stroke-width="0.3" stroke-dasharray="1.2,0.8"/>
<line x1="89.458" y1="90.269" x2="89.458" y2="102.36" stroke="#8c8c8c" stroke-width="0.3" stroke-dasharray="1.2,0.8"/>
<line x1="89.458" y1="102.36" x2="97.906" y2="102.36" stroke="#8c8c8c" stroke-width="0.3" stroke-dasharray="1.2,0.8"/>
<line x1="97.906" y1="90.269" x2="89.458" y2="90.269" stroke="#8c8c8c" stroke-width="0.3" stroke-dasharray="1.2,0.8"/>
<line x1="89.458" y1="223.191" x2="89.458" y2="187.629" stroke="#8c8c8c" stroke-width="0.3" stroke-dasharray="1.2,0.8"/>
<line x1="89.458" y1="102.36" x2="5.0" y2="114.095" stroke="#8c8c8c" stroke-width="0.3" stroke-dasharray="1.2,0.8"/>
<line x1="105.147" y1="223.191" x2="89.458" y2="223.191" stroke="#8c8c8c" stroke-width="0.3" stroke-dasharray="1.2,0.8"/>
<line x1="89.458" y1="90.269" x2="5.0" y2="78.534" stroke="#8c8c8c" stroke-width="0.3" stroke-dasharray="1.2,0.8"/>
<line x1="97.906" y1="102.36" x2="105.147" y2="187.629" stroke="#8c8c8c" stroke-width="0.3" stroke-dasharray="1.2,0.8"/>
<line x1="97.906" y1="90.269" x2="105.147" y2="5.0" stroke="#8c8c8c" stroke-width="0.3" stroke-dasharray="1.2,0.8"/>
<line x1="189.915" y1="211.456" x2="189.915" y2="199.364" stroke="#8c8c8c" stroke-width="0.3" stroke-dasharray="1.2,0.8"/>
<line x1="5.0" y1="114.095" x2="5.0" y2="78.534" stroke="#141414" stroke-width="0.4"/>
<line x1="89.458" y1="187.629" x2="89.458" y2="102.36" stroke="#141414" stroke-width="0.4"/>
<line x1="89.458" y1="5.0" x2="105.147" y2="5.0" stroke="#141414" stroke-width="0.4"/>
<line x1="89.458" y1="90.269" x2="89.458" y2="5.0" stroke="#141414" stroke-width="0.4"/>
<line x1="105.147" y1="187.629" x2="189.915" y2="199.365" stroke="#141414" stroke-width="0.4"/>
<line x1="189.915" y1="211.456" x2="105.147" y2="223.191" stroke="#141414" stroke-width="0.4"/>
<line x1="97.906" y1="90.269" x2="97.906" y2="102.36" stroke="#141414" stroke-width="0.4"/>
<line x1="89.458" y1="187.629" x2="82.458" y2="192.964" stroke="#141414" stroke-width="0.4"/>
<line x1="82.458" y1="192.964" x2="82.458" y2="217.857" stroke="#141414" stroke-width="0.4"/>
<line x1="82.458" y1="217.857" x2="89.458" y2="223.191" stroke="#141414" stroke-width="0.4"/>
<line x1="5.0" y1="114.095" x2="18.632" y2="119.269" stroke="#141414" stroke-width="0.4"/>
<line x1="18.632" y1="119.269" x2="77.753" y2="111.054" stroke="#141414" stroke-width="0.4"/>
<line x1="77.753" y1="111.054" x2="89.458" y2="102.36" stroke="#141414" stroke-width="0.4"/>
<line x1="89.458" y1="223.191" x2="91.811" y2="230.191" stroke="#141414" stroke-width="0.4"/>
<line x1="91.811" y1="230.191" x2="102.794" y2="230.191" stroke="#141414" stroke-width="0.4"/>
<line x1="102.794" y1="230.191" x2="105.147" y2="223.191" stroke="#141414" stroke-width="0.4"/>
<line x1="5.0" y1="78.534" x2="18.632" y2="73.361" stroke="#141414" stroke-width="0.4"/>
<line x1="18.632" y1="73.361" x2="77.753" y2="81.576" stroke="#141414" stroke-width="0.4"/>
<line x1="77.753" y1="81.576" x2="89.458" y2="90.269" stroke="#141414" stroke-width="0.4"/>
<line x1="105.147" y1="187.629" x2="111.036" y2="174.246" stroke="#141414" stroke-width="0.4"/>
<line x1="111.036" y1="174.246" x2="105.967" y2="114.558" stroke="#141414" stroke-width="0.4"/>
<line x1="105.967" y1="114.558" x2="97.906" y2="102.36" stroke="#141414" stroke-width="0.4"/>
<line x1="105.147" y1="5.0" x2="111.036" y2="18.383" stroke="#141414" stroke-width="0.4"/>
<line x1="111.036" y1="18.383" x2="105.967" y2="78.071" stroke="#141414" stroke-width="0.4"/>
<line x1="105.967" y1="78.071" x2="97.906" y2="90.269" stroke="#141414" stroke-width="0.4"/>
<line x1="189.915" y1="199.364" x2="195.96" y2="201.178" stroke="#141414" stroke-width="0.4"/>
<line x1="195.96" y1="201.178" x2="195.96" y2="209.642" stroke="#141414" stroke-width="0.4"/>
<line x1="195.96" y1="209.642" x2="189.915" y2="211.456" stroke="#141414" stroke-width="0.4"/>
<circle cx="85.958" cy="205.41" r="2.66" fill="#99d9fa" stroke="#464646" stroke-width="0.2"/>
<text x="85.958" y="206.32" font-size="2.61" text-anchor="middle" fill="#141414">71</text>
<circle cx="47.711" cy="111.694" r="2.66" fill="#ffe082" stroke="#464646" stroke-width="0.2"/>
<text x="47.711" y="112.61" font-size="2.61" text-anchor="middle" fill="#141414">72</text>
<circle cx="97.303" cy="226.691" r="2.66" fill="#ffe082" stroke="#464646" stroke-width="0.2"/>
<text x="97.303" y="227.60" font-size="2.61" text-anchor="middle" fill="#141414">73</text>
<circle cx="47.711" cy="80.935" r="2.66" fill="#ffe082" stroke="#464646" stroke-width="0.2"/>
<text x="47.711" y="81.85" font-size="2.61" text-anchor="middle" fill="#141414">74</text>
<circle cx="105.014" cy="144.699" r="2.66" fill="#ffe082" stroke="#464646" stroke-width="0.2"/>
<text x="105.014" y="145.61" font-size="2.61" text-anchor="middle" fill="#141414">75</text>
<circle cx="105.014" cy="47.931" r="2.66" fill="#ffe082" stroke="#464646" stroke-width="0.2"/>
<text x="105.014" y="48.84" font-size="2.61" text-anchor="middle" fill="#141414">76</text>
<circle cx="192.938" cy="205.41" r="2.66" fill="#ffe082" stroke="#464646" stroke-width="0.2"/>
<text x="192.938" y="206.32" font-size="2.61" text-anchor="middle" fill="#141414">77</text>
<circle cx="33.153" cy="94.3" r="4.60" fill="#eaf1fe" stroke="#2e78e6" stroke-width="0.3"/>
<text x="33.153" y="96.10" font-size="5.20" text-anchor="middle" fill="#14306e" font-weight="bold">11</text>
<text x="205.0" y="295.0" font-size="3.2" text-anchor="end" fill="#737373" font-family="sans-serif">11 / 15</text>
</svg>
