<svg xmlns="http://www.w3.org/2000/svg" xmlns:xlink="http://www.w3.org/1999/xlink" width="210.00mm" height="297.00mm" viewBox="0 0 210.00 297.00">
<rect x="0" y="0" width="210.00" height="297.00" fill="#ffffff" stroke="#cccccc" stroke-width="0.2"/>
<polygon points="81.44,116.254 88.44,125.366 88.44,167.892 81.44,177.004" fill="rgb(216,216,216)"/>
<polygon points="65.75,116.254 58.75,110.92 58.75,86.027 65.75,80.692" fill="rgb(216,216,216)"/>
<polygon points="65.75,116.254 58.75,125.366 58.75,167.892 65.75,177.004" fill="rgb(216,216,216)"/>
<polygon points="81.44,80.692 90.552,73.692 133.077,73.692 142.19,80.692" fill="rgb(216,216,216)"/>
<polygon points="5.0,212.565 14.113,219.565 56.638,219.565 65.75,212.565" fill="rgb(216,216,216)"/>
<polygon points="142.19,116.254 149.19,110.92 149.19,86.027 142.19,80.692" fill="rgb(216,216,216)"/>
<polygon points="81.44,19.942 79.086,12.942 68.104,12.942 65.75,19.942" fill="rgb(216,216,216)"/>
<polygon points="81.44,116.254 88.44,125.366 88.44,167.892 81.44,177.004" fill="#99d9fa"/>
<line x1="81.44" y1="116.254" x2="65.75" y2="116.254" stroke="#8c8c8c" stroke-width="0.3" stroke-dasharray="1.2,0.8"/>
<line x1="81.44" y1="80.692" x2="81.44" y2="116.254" stroke="#8c8c8c" stroke-width="0.3" stroke-dasharray="1.2,0.8"/>
<line x1="65.75" y1="80.692" x2="81.44" y2="80.692" stroke="#8c8c8c" stroke-width="0.3" stroke-dasharray="1.2,0.8"/>
<line x1="81.44" y1="177.004" x2="65.75" y2="177.004" stroke="#8c8c8c" stroke-width="0.3" stroke-dasharray="1.2,0.8"/>
<line x1="65.75" y1="177.004" x2="65.75" y2="212.565" stroke="#8c8c8c" stroke-width="0.3" stroke-dasharray="1.2,0.8"/>
<line x1="81.44" y1="177.004" x2="81.44" y2="116.254" stroke="#8c8c8c" stroke-width="0.3" stroke-dasharray="1.2,0.8"/>
<line x1="65.75" y1="80.692" x2="65.75" y2="116.254" stroke="#8c8c8c" stroke-width="0.3" stroke-dasharray="1.2,0.8"/>
<line x1="65.75" y1="177.004" x2="65.75" y2="116.254" stroke="#8c8c8c" stroke-width="0.3" stroke-dasharray="1.2,0.8"/>
<line x1="142.19" y1="80.692" x2="81.44" y2="80.692" stroke="#8c8c8c" stroke-width="0.3" stroke-dasharray="1.2,0.8"/>
<line x1="65.75" y1="212.565" x2="5.0" y2="212.565" stroke="#8c8c8c" stroke-width="0.3" stroke-dasharray="1.2,0.8"/>
<line x1="142.19" y1="80.692" x2="142.19" y2="116.254" stroke="#8c8c8c" stroke-width="0.3" stroke-dasharray="1.2,0.8"/>
<line x1="65.75" y1="19.942" x2="81.44" y2="19.942" stroke="#8c8c8c" stroke-width="0.3" stroke-dasharray="1.2,0.8"/>
<line x1="142.19" y1="116.254" x2="81.44" y2="116.254" stroke="#141414" stroke-width="0.4"/>
<line x1="5.0" y1="212.565" x2="5.0" y2="177.004" stroke="#141414" stroke-width="0.4"/>
<line x1="5.0" y1="177.004" x2="65.75" y2="177.004" stroke="#141414" stroke-width="0.4"/>
<line x1="81.44" y1="19.942" x2="81.44" y2="80.692" stroke="#141414" stroke-width="0.4"/>
<line x1="65.75" y1="80.692" x2="65.75" y2="19.942" stroke="#141414" stroke-width="0.4"/>
<line x1="81.44" y1="177.004" x2="81.44" y2="212.565" stroke="#141414" stroke-width="0.4"/>
<line x1="81.44" y1="212.565" x2="65.75" y2="212.565" stroke="#141414" stroke-width="0.4"/>
<line x1="81.44" y1="116.254" x2="88.44" y2="125.366" stroke="#141414" stroke-width="0.4"/>
<line x1="88.44" y1="125.366" x2="88.44" y2="167.892" stroke="#141414" stroke-width="0.4"/>
<line x1="88.44" y1="167.892" x2="81.44" y2="177.004" stroke="#141414" stroke-width="0.4"/>
<line x1="65.75" y1="116.254" x2="58.75" y2="110.92" stroke="#141414" stroke-width="0.4"/>
<line x1="58.75" y1="110.92" x2="58.75" y2="86.027" stroke="#141414" stroke-width="0.4"/>
<line x1="58.75" y1="86.027" x2="65.75" y2="80.692" stroke="#141414" stroke-width="0.4"/>
<line x1="65.75" y1="116.254" x2="58.75" y2="125.366" stroke="#141414" stroke-width="0.4"/>
<line x1="58.75" y1="125.366" x2="58.75" y2="167.892" stroke="#141414" stroke-width="0.4"/>
<line x1="58.75" y1="167.892" x2="65.75" y2="177.004" stroke="#141414" stroke-width="0.4"/>
<line x1="81.44" y1="80.692" x2="90.552" y2="73.692" stroke="#141414" stroke-width="0.4"/>
<line x1="90.552" y1="73.692" x2="133.077" y2="73.692" stroke="#141414" stroke-width="0.4"/>
<line x1="133.077" y1="73.692" x2="142.19" y2="80.692" stroke="#141414" stroke-width="0.4"/>
<line x1="5.0" y1="212.565" x2="14.113" y2="219.565" stroke="#141414" stroke-width="0.4"/>
<line x1="14.113" y1="219.565" x2="56.638" y2="219.565" stroke="#141414" stroke-width="0.4"/>
<line x1="56.638" y1="219.565" x2="65.75" y2="212.565" stroke="#141414" stroke-width="0.4"/>
<line x1="142.19" y1="116.254" x2="149.19" y2="110.92" stroke="#141414" stroke-width="0.4"/>
<line x1="149.19" y1="110.92" x2="149.19" y2="86.027" stroke="#141414" stroke-width="0.4"/>
<line x1="149.19" y1="86.027" x2="142.19" y2="80.692" stroke="#141414" stroke-width="0.4"/>
<line x1="81.44" y1="19.942" x2="79.086" y2="12.942" stroke="#141414" stroke-width="0.4"/>
<line x1="79.086" y1="12.942" x2="68.104" y2="12.942" stroke="#141414" stroke-width="0.4"/>
<line x1="68.104" y1="12.942" x2="65.75" y2="19.942" stroke="#141414" stroke-width="0.4"/>
<circle cx="84.94" cy="146.629" r="2.66" fill="#99d9fa" stroke="#464646" stroke-width="0.2"/>
<text x="84.94" y="147.54" font-size="2.61" text-anchor="middle" fill="#141414">43</text>
<circle cx="62.25" cy="98.473" r="2.66" fill="#ffe082" stroke="#464646" stroke-width="0.2"/>
<text x="62.25" y="99.39" font-size="2.61" text-anchor="middle" fill="#141414">44</text>
<circle cx="62.25" cy="146.629" r="2.66" fill="#ffe082" stroke="#464646" stroke-width="0.2"/>
<text x="62.25" y="147.54" font-size="2.61" text-anchor="middle" fill="#141414">45</text>
<circle cx="111.815" cy="77.192" r="2.66" fill="#ffe082" stroke="#464646" stroke-width="0.2"/>
<text x="111.815" y="78.10" font-size="2.61" text-anchor="middle" fill="#141414">46</text>
<circle cx="35.375" cy="216.065" r="2.66" fill="#ffe082" stroke="#464646" stroke-width="0.2"/>
<text x="35.375" y="216.98" font-size="2.61" text-anchor="middle" fill="#141414">47</text>
<circle cx="145.69" cy="98.473" r="2.66" fill="#ffe082" stroke="#464646" stroke-width="0.2"/>
<text x="145.69" y="99.39" font-size="2.61" text-anchor="middle" fill="#141414">48</text>
<circle cx="73.595" cy="16.442" r="2.66" fill="#ffe082" stroke="#464646" stroke-width="0.2"/>
<text x="73.595" y="17.35" font-size="2.61" text-anchor="middle" fill="#141414">49</text>
<circle cx="101.69" cy="104.4" r="4.60" fill="#eaf1fe" stroke="#2e78e6" stroke-width="0.3"/>
<text x="101.69" y="106.20" font-size="5.20" text-anchor="middle" fill="#14306e" font-weight="bold">7</text>
<text x="205.0" y="295.0" font-size="3.2" text-anchor="end" fill="#737373" font-family="sans-serif">7 / 15</text>
</svg>
