<svg xmlns="http://www.w3.org/2000/svg" xmlns:xlink="http://www.w3.org/1999/xlink" width="210.00mm" height="297.00mm" viewBox="0 0 210.00 297.00">
<rect x="0" y="0" width="210.00" height="297.00" fill="#ffffff" stroke="#cccccc" stroke-width="0.2"/>
<polygon points="74.851,110.52 81.851,119.66 81.851,162.314 74.851,171.454" fill="rgb(216,216,216)"/>
<polygon points="65.934,110.52 58.934,105.169 58.934,80.201 65.934,74.851" fill="rgb(216,216,216)"/>
<polygon points="65.934,110.52 58.934,119.66 58.934,162.314 65.934,171.454" fill="rgb(216,216,216)"/>
<polygon points="74.851,74.851 83.991,67.851 126.645,67.851 135.785,74.851" fill="rgb(216,216,216)"/>
<polygon points="5.0,207.122 14.14,214.123 56.794,214.123 65.934,207.122" fill="rgb(216,216,216)"/>
<polygon points="135.785,110.52 142.785,105.169 142.785,80.201 135.785,74.851" fill="rgb(216,216,216)"/>
<polygon points="74.851,13.917 73.513,9.459 67.272,9.459 65.934,13.917" fill="rgb(216,216,216)"/>
<polygon points="74.851,110.52 81.851,119.66 81.851,162.314 74.851,171.454" fill="#99d9fa"/>
<line x1="74.851" y1="110.52" x2="65.934" y2="110.52" stroke="#8c8c8c" stroke-width="0.3" stroke-dasharray="1.2,0.8"/>
<line x1="74.851" y1="74.851" x2="74.851" y2="110.52" stroke="#8c8c8c" stroke-width="0.3" stroke-dasharray="1.2,0.8"/>
<line x1="65.934" y1="74.851" x2="74.851" y2="74.851" stroke="#8c8c8c" stroke-width="0.3" stroke-dasharray="1.2,0.8"/>
<line x1="74.851" y1="171.454" x2="65.934" y2="171.454" stroke="#8c8c8c" stroke-width="0.3" stroke-dasharray="1.2,0.8"/>
<line x1="65.934" y1="171.454" x2="65.934" y2="207.123" stroke="#8c8c8c" stroke-width="0.3" stroke-dasharray="1.2,0.8"/>
<line x1="74.851" y1="171.454" x2="74.851" y2="110.52" stroke="#8c8c8c" stroke-width="0.3" stroke-dasharray="1.2,0.8"/>
<line x1="65.934" y1="74.851" x2="65.934" y2="110.52" stroke="#8c8c8c" stroke-width="0.3" stroke-dasharray="1.2,0.8"/>
<line x1="65.934" y1="171.454" x2="65.934" y2="110.52" stroke="#8c8c8c" stroke-width="0.3" stroke-dasharray="1.2,0.8"/>
<line x1="135.785" y1="74.851" x2="74.851" y2="74.851" stroke="#8c8c8c" stroke-width="0.3" stroke-dasharray="1.2,0.8"/>
<line x1="65.934" y1="207.122" x2="5.0" y2="207.122" stroke="#8c8c8c" stroke-width="0.3" stroke-dasharray="1.2,0.8"/>
<line x1="135.785" y1="74.851" x2="135.785" y2="110.52" stroke="#8c8c8c" stroke-width="0.3" stroke-dasharray="1.2,0.8"/>
<line x1="65.934" y1="13.917" x2="74.851" y2="13.917" stroke="#8c8c8c" stroke-width="0.3" stroke-dasharray="1.2,0.8"/>
<line x1="135.785" y1="110.52" x2="74.851" y2="110.52" stroke="#141414" stroke-width="0.4"/>
<line x1="5.0" y1="207.123" x2="5.0" y2="171.454" stroke="#141414" stroke-width="0.4"/>
<line x1="5.0" y1="171.454" x2="65.934" y2="171.454" stroke="#141414" stroke-width="0.4"/>
<line x1="74.851" y1="13.917" x2="74.851" y2="74.851" stroke="#141414" stroke-width="0.4"/>
<line x1="65.934" y1="74.851" x2="65.934" y2="13.917" stroke="#141414" stroke-width="0.4"/>
<line x1="74.851" y1="171.454" x2="74.851" y2="207.123" stroke="#141414" stroke-width="0.4"/>
<line x1="74.851" y1="207.123" x2="65.934" y2="207.123" stroke="#141414" stroke-width="0.4"/>
<line x1="74.851" y1="110.52" x2="81.851" y2="119.66" stroke="#141414" stroke-width="0.4"/>
<line x1="81.851" y1="119.66" x2="81.851" y2="162.314" stroke="#141414" stroke-width="0.4"/>
<line x1="81.851" y1="162.314" x2="74.851" y2="171.454" stroke="#141414" stroke-width="0.4"/>
<line x1="65.934" y1="110.52" x2="58.934" y2="105.169" stroke="#141414" stroke-width="0.4"/>
<line x1="58.934" y1="105.169" x2="58.934" y2="80.201" stroke="#141414" stroke-width="0.4"/>
<line x1="58.934" y1="80.201" x2="65.934" y2="74.851" stroke="#141414" stroke-width="0.4"/>
<line x1="65.934" y1="110.52" x2="58.934" y2="119.66" stroke="#141414" stroke-width="0.4"/>
<line x1="58.934" y1="119.66" x2="58.934" y2="162.314" stroke="#141414" stroke-width="0.4"/>
<line x1="58.934" y1="162.314" x2="65.934" y2="171.454" stroke="#141414" stroke-width="0.4"/>
<line x1="74.851" y1="74.851" x2="83.991" y2="67.851" stroke="#141414" stroke-width="0.4"/>
<line x1="83.991" y1="67.851" x2="126.645" y2="67.851" stroke="#141414" stroke-width="0.4"/>
<line x1="126.645" y1="67.851" x2="135.785" y2="74.851" stroke="#141414" stroke-width="0.4"/>
<line x1="5.0" y1="207.122" x2="14.14" y2="214.123" stroke="#141414" stroke-width="0.4"/>
<line x1="14.14" y1="214.123" x2="56.794" y2="214.123" stroke="#141414" stroke-width="0.4"/>
<line x1="56.794" y1="214.123" x2="65.934" y2="207.122" stroke="#141414" stroke-width="0.4"/>
<line x1="135.785" y1="110.52" x2="142.785" y2="105.169" stroke="#141414" stroke-width="0.4"/>
<line x1="142.785" y1="105.169" x2="142.785" y2="80.201" stroke="#141414" stroke-width="0.4"/>
<line x1="142.785" y1="80.201" x2="135.785" y2="74.851" stroke="#141414" stroke-width="0.4"/>
<line x1="74.851" y1="13.917" x2="73.513" y2="9.459" stroke="#141414" stroke-width="0.4"/>
<line x1="73.513" y1="9.459" x2="67.272" y2="9.459" stroke="#141414" stroke-width="0.4"/>
<line x1="67.272" y1="9.459" x2="65.934" y2="13.917" stroke="#141414" stroke-width="0.4"/>
<circle cx="78.351" cy="140.987" r="1.96" fill="#99d9fa" stroke="#464646" stroke-width="0.2"/>
<text x="78.351" y="141.66" font-size="1.92" text-anchor="middle" fill="#141414">50</text>
<circle cx="62.434" cy="92.685" r="1.96" fill="#ffe082" stroke="#464646" stroke-width="0.2"/>
<text x="62.434" y="93.36" font-size="1.92" text-anchor="middle" fill="#141414">51</text>
<circle cx="62.434" cy="140.987" r="1.96" fill="#ffe082" stroke="#464646" stroke-width="0.2"/>
<text x="62.434" y="141.66" font-size="1.92" text-anchor="middle" fill="#141414">52</text>
<circle cx="105.318" cy="71.351" r="1.96" fill="#ffe082" stroke="#464646" stroke-width="0.2"/>
<text x="105.318" y="72.02" font-size="1.92" text-anchor="middle" fill="#141414">53</text>
<circle cx="35.467" cy="210.622" r="1.96" fill="#ffe082" stroke="#464646" stroke-width="0.2"/>
<text x="35.467" y="211.29" font-size="1.92" text-anchor="middle" fill="#141414">54</text>
<circle cx="139.285" cy="92.685" r="1.96" fill="#ffe082" stroke="#464646" stroke-width="0.2"/>
<text x="139.285" y="93.36" font-size="1.92" text-anchor="middle" fill="#141414">55</text>
<circle cx="70.393" cy="11.688" r="1.96" fill="#ffe082" stroke="#464646" stroke-width="0.2"/>
<text x="70.393" y="12.36" font-size="1.92" text-anchor="middle" fill="#141414">56</text>
<circle cx="115.474" cy="86.741" r="4.60" fill="#eaf1fe" stroke="#2e78e6" stroke-width="0.3"/>
<text x="115.474" y="88.54" font-size="5.20" text-anchor="middle" fill="#14306e" font-weight="bold">8</text>
<text x="205.0" y="295.0" font-size="3.2" text-anchor="end" fill="#737373" font-family="sans-serif">8 / 15</text>
</svg>
