<svg xmlns="http://www.w3.org/2000/svg" xmlns:xlink="http://www.w3.org/1999/xlink" width="210.00mm" height="297.00mm" viewBox="0 0 210.00 297.00">
<rect x="0" y="0" width="210.00" height="297.00" fill="#ffffff" stroke="#cccccc" stroke-width="0.2"/>
<polygon points="19.12,120.187 12.12,114.853 12.12,89.96 19.12,84.626" fill="rgb(216,216,216)"/>
<polygon points="19.12,120.187 32.201,126.428 91.322,122.943 103.578,115.209" fill="rgb(216,216,216)"/>
<polygon points="103.578,235.374 105.932,242.374 116.914,242.374 119.268,235.374" fill="rgb(216,216,216)"/>
<polygon points="19.12,84.626 32.201,78.385 91.322,81.87 103.578,89.604" fill="rgb(216,216,216)"/>
<polygon points="119.268,199.813 125.345,186.625 121.12,127.401 113.233,115.209" fill="rgb(216,216,216)"/>
<polygon points="119.268,5.0 125.345,18.188 121.12,77.412 113.233,89.604" fill="rgb(216,216,216)"/>
<polygon points="113.233,115.209 120.233,111.368 120.233,93.445 113.233,89.604" fill="rgb(216,216,216)"/>
<polygon points="19.12,120.187 12.12,114.853 12.12,89.96 19.12,84.626" fill="#99d9fa"/>
<line x1="119.267" y1="199.813" x2="103.578" y2="199.813" stroke="#8c8c8c" stroke-width="0.3" stroke-dasharray="1.2,0.8"/>
<line x1="119.267" y1="199.813" x2="119.267" y2="235.374" stroke="#8c8c8c" stroke-width="0.3" stroke-dasharray="1.2,0.8"/>
<line x1="103.578" y1="89.604" x2="103.578" y2="115.209" stroke="#8c8c8c" stroke-width="0.3" stroke-dasharray="1.2,0.8"/>
<line x1="103.578" y1="115.209" x2="113.233" y2="115.209" stroke="#8c8c8c" stroke-width="0.3" stroke-dasharray="1.2,0.8"/>
<line x1="103.578" y1="89.604" x2="113.233" y2="89.604" stroke="#8c8c8c" stroke-width="0.3" stroke-dasharray="1.2,0.8"/>
<line x1="19.12" y1="84.626" x2="19.12" y2="120.187" stroke="#8c8c8c" stroke-width="0.3" stroke-dasharray="1.2,0.8"/>
<line x1="103.578" y1="115.209" x2="19.12" y2="120.187" stroke="#8c8c8c" stroke-width="0.3" stroke-dasharray="1.2,0.8"/>
<line x1="119.268" y1="235.374" x2="103.578" y2="235.374" stroke="#8c8c8c" stroke-width="0.3" stroke-dasharray="1.2,0.8"/>
<line x1="103.578" y1="89.604" x2="19.12" y2="84.626" stroke="#8c8c8c" stroke-width="0.3" stroke-dasharray="1.2,0.8"/>
<line x1="113.233" y1="115.209" x2="119.268" y2="199.813" stroke="#8c8c8c" stroke-width="0.3" stroke-dasharray="1.2,0.8"/>
<line x1="113.233" y1="89.604" x2="119.268" y2="5.0" stroke="#8c8c8c" stroke-width="0.3" stroke-dasharray="1.2,0.8"/>
<line x1="113.233" y1="89.604" x2="113.233" y2="115.209" stroke="#8c8c8c" stroke-width="0.3" stroke-dasharray="1.2,0.8"/>
<line x1="103.578" y1="235.374" x2="103.578" y2="199.813" stroke="#141414" stroke-width="0.4"/>
<line x1="103.578" y1="199.813" x2="103.578" y2="115.209" stroke="#141414" stroke-width="0.4"/>
<line x1="103.578" y1="5.0" x2="119.267" y2="5.0" stroke="#141414" stroke-width="0.4"/>
<line x1="103.578" y1="89.604" x2="103.578" y2="5.0" stroke="#141414" stroke-width="0.4"/>
<line x1="119.267" y1="199.813" x2="203.941" y2="204.792" stroke="#141414" stroke-width="0.4"/>
<line x1="203.941" y1="230.396" x2="119.267" y2="235.374" stroke="#141414" stroke-width="0.4"/>
<line x1="203.941" y1="204.792" x2="203.941" y2="230.396" stroke="#141414" stroke-width="0.4"/>
<line x1="19.12" y1="120.187" x2="12.12" y2="114.853" stroke="#141414" stroke-width="0.4"/>
<line x1="12.12" y1="114.853" x2="12.12" y2="89.96" stroke="#141414" stroke-width="0.4"/>
<line x1="12.12" y1="89.96" x2="19.12" y2="84.626" stroke="#141414" stroke-width="0.4"/>
<line x1="19.12" y1="120.187" x2="32.201" y2="126.428" stroke="#141414" stroke-width="0.4"/>
<line x1="32.201" y1="126.428" x2="91.322" y2="122.943" stroke="#141414" stroke-width="0.4"/>
<line x1="91.322" y1="122.943" x2="103.578" y2="115.209" stroke="#141414" stroke-width="0.4"/>
<line x1="103.578" y1="235.374" x2="105.932" y2="242.374" stroke="#141414" stroke-width="0.4"/>
<line x1="105.932" y1="242.374" x2="116.914" y2="242.374" stroke="#141414" stroke-width="0.4"/>
<line x1="116.914" y1="242.374" x2="119.268" y2="235.374" stroke="#141414" stroke-width="0.4"/>
<line x1="19.12" y1="84.626" x2="32.201" y2="78.385" stroke="#141414" stroke-width="0.4"/>
<line x1="32.201" y1="78.385" x2="91.322" y2="81.87" stroke="#141414" stroke-width="0.4"/>
<line x1="91.322" y1="81.87" x2="103.578" y2="89.604" stroke="#141414" stroke-width="0.4"/>
<line x1="119.268" y1="199.813" x2="125.345" y2="186.625" stroke="#141414" stroke-width="0.4"/>
<line x1="125.345" y1="186.625" x2="121.12" y2="127.401" stroke="#141414" stroke-width="0.4"/>
<line x1="121.12" y1="127.401" x2="113.233" y2="115.209" stroke="#141414" stroke-width="0.4"/>
<line x1="119.268" y1="5.0" x2="125.345" y2="18.188" stroke="#141414" stroke-width="0.4"/>
<line x1="125.345" y1="18.188" x2="121.12" y2="77.412" stroke="#141414" stroke-width="0.4"/>
<line x1="121.12" y1="77.412" x2="113.233" y2="89.604" stroke="#141414" stroke-width="0.4"/>
<line x1="113.233" y1="115.209" x2="120.233" y2="111.368" stroke="#141414" stroke-width="0.4"/>
<line x1="120.233" y1="111.368" x2="120.233" y2="93.445" stroke="#141414" stroke-width="0.4"/>
<line x1="120.233" y1="93.445" x2="113.233" y2="89.604" stroke="#141414" stroke-width="0.4"/>
<circle cx="15.62" cy="102.406" r="2.66" fill="#99d9fa" stroke="#464646" stroke-width="0.2"/>
<text x="15.62" y="103.32" font-size="2.61" text-anchor="middle" fill="#141414">92</text>
<circle cx="61.555" cy="121.192" r="2.66" fill="#ffe082" stroke="#464646" stroke-width="0.2"/>
<text x="61.555" y="122.10" font-size="2.61" text-anchor="middle" fill="#141414">93</text>
<circle cx="111.423" cy="238.874" r="2.66" fill="#ffe082" stroke="#464646" stroke-width="0.2"/>
<text x="111.423" y="239.79" font-size="2.61" text-anchor="middle" fill="#141414">94</text>
<circle cx="61.555" cy="83.621" r="2.66" fill="#ffe082" stroke="#464646" stroke-width="0.2"/>
<text x="61.555" y="84.53" font-size="2.61" text-anchor="middle" fill="#141414">95</text>
<circle cx="119.741" cy="157.262" r="2.66" fill="#ffe082" stroke="#464646" stroke-width="0.2"/>
<text x="119.741" y="158.17" font-size="2.61" text-anchor="middle" fill="#141414">96</text>
<circle cx="119.741" cy="47.551" r="2.66" fill="#ffe082" stroke="#464646" stroke-width="0.2"/>
<text x="119.741" y="48.46" font-size="2.61" text-anchor="middle" fill="#141414">97</text>
<circle cx="116.733" cy="102.407" r="2.66" fill="#ffe082" stroke="#464646" stroke-width="0.2"/>
<text x="116.733" y="103.32" font-size="2.61" text-anchor="middle" fill="#141414">98</text>
<circle cx="47.273" cy="98.139" r="4.60" fill="#eaf1fe" stroke="#2e78e6" stroke-width="0.3"/>
<text x="47.273" y="99.94" font-size="5.20" text-anchor="middle" fill="#14306e" font-weight="bold">14</text>
<text x="205.0" y="295.0" font-size="3.2" text-anchor="end" fill="#737373" font-family="sans-serif">14 / 15</text>
</svg>
