<svg xmlns="http://www.w3.org/2000/svg" xmlns:xlink="http://www.w3.org/1999/xlink" width="210.00mm" height="297.00mm" viewBox="0 0 210.00 297.00">
<rect x="0" y="0" width="210.00" height="297.00" fill="#ffffff" stroke="#cccccc" stroke-width="0.2"/>
<polygon points="150.714,166.366 133.109,169.793 57.718,153.828 43.012,143.559" fill="rgb(216,216,216)"/>
<polygon points="155.544,143.559 140.839,133.29 65.448,117.325 47.842,120.752" fill="rgb(216,216,216)"/>
<polygon points="32.637,5.0 22.368,19.705 6.403,95.096 9.83,112.702" fill="rgb(216,216,216)"/>
<line x1="43.012" y1="143.559" x2="47.842" y2="120.752" stroke="#8c8c8c" stroke-width="0.3" stroke-dasharray="1.2,0.8"/>
<line x1="47.842" y1="120.752" x2="9.83" y2="112.702" stroke="#8c8c8c" stroke-width="0.3" stroke-dasharray="1.2,0.8"/>
<line x1="43.012" y1="143.559" x2="150.714" y2="166.366" stroke="#8c8c8c" stroke-width="0.3" stroke-dasharray="1.2,0.8"/>
<line x1="47.842" y1="120.752" x2="155.544" y2="143.559" stroke="#8c8c8c" stroke-width="0.3" stroke-dasharray="1.2,0.8"/>
<line x1="9.83" y1="112.702" x2="32.637" y2="5.0" stroke="#8c8c8c" stroke-width="0.3" stroke-dasharray="1.2,0.8"/>
<line x1="155.544" y1="143.559" x2="150.714" y2="166.367" stroke="#141414" stroke-width="0.4"/>
<line x1="32.637" y1="5.0" x2="70.65" y2="13.05" stroke="#141414" stroke-width="0.4"/>
<line x1="70.65" y1="13.05" x2="47.842" y2="120.752" stroke="#141414" stroke-width="0.4"/>
<line x1="43.012" y1="143.559" x2="5.0" y2="135.509" stroke="#141414" stroke-width="0.4"/>
<line x1="5.0" y1="135.509" x2="9.83" y2="112.702" stroke="#141414" stroke-width="0.4"/>
<line x1="150.714" y1="166.366" x2="133.109" y2="169.793" stroke="#141414" stroke-width="0.4"/>
<line x1="133.109" y1="169.793" x2="57.718" y2="153.828" stroke="#141414" stroke-width="0.4"/>
<line x1="57.718" y1="153.828" x2="43.012" y2="143.559" stroke="#141414" stroke-width="0.4"/>
<line x1="155.544" y1="143.559" x2="140.839" y2="133.29" stroke="#141414" stroke-width="0.4"/>
<line x1="140.839" y1="133.29" x2="65.448" y2="117.325" stroke="#141414" stroke-width="0.4"/>
<line x1="65.448" y1="117.325" x2="47.842" y2="120.752" stroke="#141414" stroke-width="0.4"/>
<line x1="32.637" y1="5.0" x2="22.368" y2="19.705" stroke="#141414" stroke-width="0.4"/>
<line x1="22.368" y1="19.705" x2="6.403" y2="95.096" stroke="#141414" stroke-width="0.4"/>
<line x1="6.403" y1="95.096" x2="9.83" y2="112.702" stroke="#141414" stroke-width="0.4"/>
<circle cx="96.138" cy="158.387" r="0.30" fill="#ffe082" stroke="#464646" stroke-width="0.2"/>
<text x="96.138" y="158.49" font-size="0.29" text-anchor="middle" fill="#141414">6</text>
<circle cx="102.418" cy="128.731" r="0.30" fill="#ffe082" stroke="#464646" stroke-width="0.2"/>
<text x="102.418" y="128.83" font-size="0.29" text-anchor="middle" fill="#141414">7</text>
<circle cx="17.81" cy="58.126" r="0.30" fill="#ffe082" stroke="#464646" stroke-width="0.2"/>
<text x="17.81" y="58.23" font-size="0.29" text-anchor="middle" fill="#141414">8</text>
<circle cx="80.272" cy="175.893" r="4.6" fill="#eaf1fe" stroke="#2e78e6" stroke-width="0.3"/>
<text x="80.272" y="177.693" font-size="5.2" text-anchor="middle" fill="#14306e" font-weight="bold">2</text>
<polygon points="147.14,285.205 131.195,291.716 57.794,289.45 42.281,281.968" fill="rgb(216,216,216)"/>
<polygon points="147.24,281.968 131.727,274.486 58.325,272.221 42.38,278.732" fill="rgb(216,216,216)"/>
<polygon points="10.664,172.794 3.182,188.307 0.916,261.708 7.427,277.653" fill="rgb(216,216,216)"/>
<line x1="42.281" y1="281.968" x2="42.38" y2="278.732" stroke="#8c8c8c" stroke-width="0.3" stroke-dasharray="1.2,0.8"/>
<line x1="42.38" y1="278.732" x2="7.427" y2="277.653" stroke="#8c8c8c" stroke-width="0.3" stroke-dasharray="1.2,0.8"/>
<line x1="42.281" y1="281.968" x2="147.14" y2="285.205" stroke="#8c8c8c" stroke-width="0.3" stroke-dasharray="1.2,0.8"/>
<line x1="42.38" y1="278.732" x2="147.24" y2="281.968" stroke="#8c8c8c" stroke-width="0.3" stroke-dasharray="1.2,0.8"/>
<line x1="7.427" y1="277.653" x2="10.664" y2="172.794" stroke="#8c8c8c" stroke-width="0.3" stroke-dasharray="1.2,0.8"/>
<line x1="147.24" y1="281.968" x2="147.14" y2="285.205" stroke="#141414" stroke-width="0.4"/>
<line x1="10.664" y1="172.793" x2="45.617" y2="173.872" stroke="#141414" stroke-width="0.4"/>
<line x1="45.617" y1="173.872" x2="42.38" y2="278.732" stroke="#141414" stroke-width="0.4"/>
<line x1="42.281" y1="281.968" x2="7.327" y2="280.89" stroke="#141414" stroke-width="0.4"/>
<line x1="7.327" y1="280.89" x2="7.427" y2="277.653" stroke="#141414" stroke-width="0.4"/>
<line x1="147.14" y1="285.205" x2="131.195" y2="291.716" stroke="#141414" stroke-width="0.4"/>
<line x1="131.195" y1="291.716" x2="57.794" y2="289.45" stroke="#141414" stroke-width="0.4"/>
<line x1="57.794" y1="289.45" x2="42.281" y2="281.968" stroke="#141414" stroke-width="0.4"/>
<line x1="147.24" y1="281.968" x2="131.727" y2="274.486" stroke="#141414" stroke-width="0.4"/>
<line x1="131.727" y1="274.486" x2="58.325" y2="272.221" stroke="#141414" stroke-width="0.4"/>
<line x1="58.325" y1="272.221" x2="42.38" y2="278.732" stroke="#141414" stroke-width="0.4"/>
<line x1="10.664" y1="172.794" x2="3.182" y2="188.307" stroke="#141414" stroke-width="0.4"/>
<line x1="3.182" y1="188.307" x2="0.916" y2="261.708" stroke="#141414" stroke-width="0.4"/>
<line x1="0.916" y1="261.708" x2="7.427" y2="277.653" stroke="#141414" stroke-width="0.4"/>
<circle cx="94.602" cy="287.085" r="0.30" fill="#ffe082" stroke="#464646" stroke-width="0.2"/>
<text x="94.602" y="287.19" font-size="0.29" text-anchor="middle" fill="#141414">53</text>
<circle cx="94.918" cy="276.852" r="0.30" fill="#ffe082" stroke="#464646" stroke-width="0.2"/>
<text x="94.918" y="276.95" font-size="0.29" text-anchor="middle" fill="#141414">54</text>
<circle cx="5.547" cy="225.115" r="0.30" fill="#ffe082" stroke="#464646" stroke-width="0.2"/>
<text x="5.547" y="225.22" font-size="0.29" text-anchor="middle" fill="#141414">55</text>
<circle cx="78.162" cy="166.694" r="4.6" fill="#eaf1fe" stroke="#2e78e6" stroke-width="0.3"/>
<text x="78.162" y="168.494" font-size="5.2" text-anchor="middle" fill="#14306e" font-weight="bold">7</text>
<g pointer-events="none"><text x="105.0" y="89.1" text-anchor="middle" font-family="sans-serif" font-size="21.2" fill="#9aa0a6" fill-opacity="0.33" transform="rotate(-28 105.0 89.1)">papercraft.kr 미리보기</text><text x="105.0" y="163.4" text-anchor="middle" font-family="sans-serif" font-size="21.2" fill="#9aa0a6" fill-opacity="0.33" transform="rotate(-28 105.0 163.4)">papercraft.kr 미리보기</text><text x="105.0" y="237.6" text-anchor="middle" font-family="sans-serif" font-size="21.2" fill="#9aa0a6" fill-opacity="0.33" transform="rotate(-28 105.0 237.6)">papercraft.kr 미리보기</text></g></svg>
