<svg xmlns="http://www.w3.org/2000/svg" xmlns:xlink="http://www.w3.org/1999/xlink" width="210.00mm" height="297.00mm" viewBox="0 0 210.00 297.00">
<rect x="0" y="0" width="210.00" height="297.00" fill="#ffffff" stroke="#cccccc" stroke-width="0.2"/>
<polygon points="16.573,208.624 15.762,212.024 11.978,212.024 11.167,208.624" fill="rgb(216,216,216)"/>
<polygon points="11.167,208.624 4.167,198.714 4.167,152.463 11.167,142.552" fill="rgb(216,216,216)"/>
<polygon points="16.573,142.552 36.395,135.552 128.897,135.552 148.718,142.552" fill="rgb(216,216,216)"/>
<polygon points="148.718,208.624 155.718,198.714 155.718,152.463 148.718,142.552" fill="rgb(216,216,216)"/>
<polygon points="16.573,10.406 15.762,7.006 11.978,7.006 11.167,10.406" fill="rgb(216,216,216)"/>
<line x1="16.573" y1="142.552" x2="16.573" y2="208.625" stroke="#8c8c8c" stroke-width="0.3" stroke-dasharray="1.2,0.8"/>
<line x1="11.167" y1="142.552" x2="16.573" y2="142.552" stroke="#8c8c8c" stroke-width="0.3" stroke-dasharray="1.2,0.8"/>
<line x1="11.167" y1="208.624" x2="16.573" y2="208.624" stroke="#8c8c8c" stroke-width="0.3" stroke-dasharray="1.2,0.8"/>
<line x1="11.167" y1="142.552" x2="11.167" y2="208.624" stroke="#8c8c8c" stroke-width="0.3" stroke-dasharray="1.2,0.8"/>
<line x1="148.718" y1="142.552" x2="16.573" y2="142.552" stroke="#8c8c8c" stroke-width="0.3" stroke-dasharray="1.2,0.8"/>
<line x1="148.718" y1="142.552" x2="148.718" y2="208.624" stroke="#8c8c8c" stroke-width="0.3" stroke-dasharray="1.2,0.8"/>
<line x1="11.167" y1="10.406" x2="16.573" y2="10.406" stroke="#8c8c8c" stroke-width="0.3" stroke-dasharray="1.2,0.8"/>
<line x1="148.718" y1="208.625" x2="16.573" y2="208.625" stroke="#141414" stroke-width="0.4"/>
<line x1="16.573" y1="10.406" x2="16.573" y2="142.552" stroke="#141414" stroke-width="0.4"/>
<line x1="11.167" y1="142.552" x2="11.167" y2="10.406" stroke="#141414" stroke-width="0.4"/>
<line x1="16.573" y1="208.624" x2="15.762" y2="212.024" stroke="#141414" stroke-width="0.4"/>
<line x1="15.762" y1="212.024" x2="11.978" y2="212.024" stroke="#141414" stroke-width="0.4"/>
<line x1="11.978" y1="212.024" x2="11.167" y2="208.624" stroke="#141414" stroke-width="0.4"/>
<line x1="11.167" y1="208.624" x2="4.167" y2="198.714" stroke="#141414" stroke-width="0.4"/>
<line x1="4.167" y1="198.714" x2="4.167" y2="152.463" stroke="#141414" stroke-width="0.4"/>
<line x1="4.167" y1="152.463" x2="11.167" y2="142.552" stroke="#141414" stroke-width="0.4"/>
<line x1="16.573" y1="142.552" x2="36.395" y2="135.552" stroke="#141414" stroke-width="0.4"/>
<line x1="36.395" y1="135.552" x2="128.897" y2="135.552" stroke="#141414" stroke-width="0.4"/>
<line x1="128.897" y1="135.552" x2="148.718" y2="142.552" stroke="#141414" stroke-width="0.4"/>
<line x1="148.718" y1="208.624" x2="155.718" y2="198.714" stroke="#141414" stroke-width="0.4"/>
<line x1="155.718" y1="198.714" x2="155.718" y2="152.463" stroke="#141414" stroke-width="0.4"/>
<line x1="155.718" y1="152.463" x2="148.718" y2="142.552" stroke="#141414" stroke-width="0.4"/>
<line x1="16.573" y1="10.406" x2="15.762" y2="7.006" stroke="#141414" stroke-width="0.4"/>
<line x1="15.762" y1="7.006" x2="11.978" y2="7.006" stroke="#141414" stroke-width="0.4"/>
<line x1="11.978" y1="7.006" x2="11.167" y2="10.406" stroke="#141414" stroke-width="0.4"/>
<circle cx="13.87" cy="210.324" r="1.50" fill="#ffe082" stroke="#464646" stroke-width="0.2"/>
<text x="13.87" y="211.03" font-size="2.03" text-anchor="middle" fill="#141414">38</text>
<circle cx="7.667" cy="175.588" r="1.50" fill="#ffe082" stroke="#464646" stroke-width="0.2"/>
<text x="7.667" y="176.30" font-size="2.03" text-anchor="middle" fill="#141414">39</text>
<circle cx="82.646" cy="139.052" r="1.50" fill="#ffe082" stroke="#464646" stroke-width="0.2"/>
<text x="82.646" y="139.76" font-size="2.03" text-anchor="middle" fill="#141414">40</text>
<circle cx="152.218" cy="175.588" r="1.50" fill="#ffe082" stroke="#464646" stroke-width="0.2"/>
<text x="152.218" y="176.30" font-size="2.03" text-anchor="middle" fill="#141414">41</text>
<circle cx="13.87" cy="8.706" r="1.50" fill="#ffe082" stroke="#464646" stroke-width="0.2"/>
<text x="13.87" y="9.42" font-size="2.03" text-anchor="middle" fill="#141414">42</text>
<circle cx="80.776" cy="216.118" r="4.6" fill="#eaf1fe" stroke="#2e78e6" stroke-width="0.3"/>
<text x="80.776" y="217.918" font-size="5.2" text-anchor="middle" fill="#14306e" font-weight="bold">8</text>
<g pointer-events="none"><text x="105.0" y="89.1" text-anchor="middle" font-family="sans-serif" font-size="21.2" fill="#9aa0a6" fill-opacity="0.33" transform="rotate(-28 105.0 89.1)">papercraft.kr 미리보기</text><text x="105.0" y="163.4" text-anchor="middle" font-family="sans-serif" font-size="21.2" fill="#9aa0a6" fill-opacity="0.33" transform="rotate(-28 105.0 163.4)">papercraft.kr 미리보기</text><text x="105.0" y="237.6" text-anchor="middle" font-family="sans-serif" font-size="21.2" fill="#9aa0a6" fill-opacity="0.33" transform="rotate(-28 105.0 237.6)">papercraft.kr 미리보기</text></g></svg>
