<svg xmlns="http://www.w3.org/2000/svg" xmlns:xlink="http://www.w3.org/1999/xlink" width="210.00mm" height="297.00mm" viewBox="0 0 210.00 297.00">
<rect x="0" y="0" width="210.00" height="297.00" fill="#ffffff" stroke="#cccccc" stroke-width="0.2"/>
<polygon points="104.264,246.482 99.064,239.867 99.064,208.998 104.264,202.384" fill="rgb(216,216,216)"/>
<polygon points="104.264,202.384 95.343,201.411 69.834,178.738 67.823,169.992" fill="rgb(216,216,216)"/>
<polygon points="48.766,24.912 47.875,18.82 59.54,8.786 65.431,10.578" fill="rgb(216,216,216)"/>
<line x1="67.823" y1="169.992" x2="132.447" y2="136.254" stroke="#8c8c8c" stroke-width="0.3" stroke-dasharray="1.2,0.8"/>
<line x1="5.0" y1="38.062" x2="48.766" y2="24.912" stroke="#8c8c8c" stroke-width="0.3" stroke-dasharray="1.2,0.8"/>
<line x1="104.264" y1="202.384" x2="123.231" y2="209.617" stroke="#8c8c8c" stroke-width="0.3" stroke-dasharray="1.2,0.8"/>
<line x1="11.277" y1="62.39" x2="48.766" y2="24.912" stroke="#8c8c8c" stroke-width="0.3" stroke-dasharray="1.2,0.8"/>
<line x1="11.277" y1="62.39" x2="65.431" y2="10.578" stroke="#8c8c8c" stroke-width="0.3" stroke-dasharray="1.2,0.8"/>
<line x1="104.264" y1="202.384" x2="104.264" y2="246.482" stroke="#8c8c8c" stroke-width="0.3" stroke-dasharray="1.2,0.8"/>
<line x1="67.823" y1="169.992" x2="104.264" y2="202.384" stroke="#8c8c8c" stroke-width="0.3" stroke-dasharray="1.2,0.8"/>
<line x1="65.431" y1="10.578" x2="48.766" y2="24.912" stroke="#8c8c8c" stroke-width="0.3" stroke-dasharray="1.2,0.8"/>
<line x1="123.231" y1="209.617" x2="104.264" y2="246.482" stroke="#141414" stroke-width="0.4"/>
<line x1="132.447" y1="136.254" x2="123.231" y2="209.617" stroke="#141414" stroke-width="0.4"/>
<line x1="67.823" y1="169.992" x2="11.277" y2="62.39" stroke="#141414" stroke-width="0.4"/>
<line x1="11.277" y1="62.39" x2="5.0" y2="38.062" stroke="#141414" stroke-width="0.4"/>
<line x1="65.431" y1="10.578" x2="132.447" y2="136.254" stroke="#141414" stroke-width="0.4"/>
<line x1="21.379" y1="17.656" x2="48.766" y2="24.912" stroke="#141414" stroke-width="0.4"/>
<line x1="5.0" y1="38.062" x2="21.379" y2="17.656" stroke="#141414" stroke-width="0.4"/>
<line x1="104.264" y1="246.482" x2="99.064" y2="239.867" stroke="#141414" stroke-width="0.4"/>
<line x1="99.064" y1="239.867" x2="99.064" y2="208.998" stroke="#141414" stroke-width="0.4"/>
<line x1="99.064" y1="208.998" x2="104.264" y2="202.384" stroke="#141414" stroke-width="0.4"/>
<line x1="104.264" y1="202.384" x2="95.343" y2="201.411" stroke="#141414" stroke-width="0.4"/>
<line x1="95.343" y1="201.411" x2="69.834" y2="178.738" stroke="#141414" stroke-width="0.4"/>
<line x1="69.834" y1="178.738" x2="67.823" y2="169.992" stroke="#141414" stroke-width="0.4"/>
<line x1="48.766" y1="24.912" x2="47.875" y2="18.82" stroke="#141414" stroke-width="0.4"/>
<line x1="47.875" y1="18.82" x2="59.54" y2="8.786" stroke="#141414" stroke-width="0.4"/>
<line x1="59.54" y1="8.786" x2="65.431" y2="10.578" stroke="#141414" stroke-width="0.4"/>
<circle cx="101.664" cy="224.433" r="2.29" fill="#ffe082" stroke="#464646" stroke-width="0.2"/>
<text x="101.664" y="225.22" font-size="2.24" text-anchor="middle" fill="#141414">11</text>
<circle cx="84.316" cy="188.131" r="2.29" fill="#ffe082" stroke="#464646" stroke-width="0.2"/>
<text x="84.316" y="188.92" font-size="2.24" text-anchor="middle" fill="#141414">21</text>
<circle cx="55.403" cy="15.774" r="2.29" fill="#ffe082" stroke="#464646" stroke-width="0.2"/>
<text x="55.403" y="16.56" font-size="2.24" text-anchor="middle" fill="#141414">51</text>
<circle cx="88.567" cy="105.608" r="4.60" fill="#eaf1fe" stroke="#2e78e6" stroke-width="0.3"/>
<text x="88.567" y="107.41" font-size="5.20" text-anchor="middle" fill="#14306e" font-weight="bold">5</text>
<text x="205.0" y="295.0" font-size="3.2" text-anchor="end" fill="#737373" font-family="sans-serif">5 / 15</text>
<g pointer-events="none"><text x="105.0" y="83.2" text-anchor="middle" font-family="sans-serif" font-size="12.4" fill="#9aa0a6" fill-opacity="0.3" transform="rotate(-28 105.0 83.2)">papercraft.kr</text><text x="105.0" y="148.5" text-anchor="middle" font-family="sans-serif" font-size="12.4" fill="#9aa0a6" fill-opacity="0.3" transform="rotate(-28 105.0 148.5)">papercraft.kr</text><text x="105.0" y="213.8" text-anchor="middle" font-family="sans-serif" font-size="12.4" fill="#9aa0a6" fill-opacity="0.3" transform="rotate(-28 105.0 213.8)">papercraft.kr</text></g></svg>
