<svg xmlns="http://www.w3.org/2000/svg" xmlns:xlink="http://www.w3.org/1999/xlink" width="210.00mm" height="297.00mm" viewBox="0 0 210.00 297.00">
<rect x="0" y="0" width="210.00" height="297.00" fill="#ffffff" stroke="#cccccc" stroke-width="0.2"/>
<polygon points="44.407,89.73 40.17,96.73 20.4,96.73 16.163,89.73" fill="rgb(216,216,216)"/>
<polygon points="44.407,61.487 40.17,54.487 20.4,54.487 16.163,61.487" fill="rgb(216,216,216)"/>
<polygon points="72.65,89.73 79.65,85.494 79.65,65.724 72.65,61.487" fill="rgb(216,216,216)"/>
<polygon points="72.65,89.73 79.65,93.967 79.65,113.737 72.65,117.974" fill="rgb(216,216,216)"/>
<polygon points="72.65,61.487 79.65,57.25 79.65,37.48 72.65,33.244" fill="rgb(216,216,216)"/>
<polygon points="16.163,89.73 9.163,85.494 9.163,65.724 16.163,61.487" fill="rgb(216,216,216)"/>
<polygon points="44.407,117.974 48.643,124.974 68.414,124.974 72.65,117.974" fill="rgb(216,216,216)"/>
<polygon points="44.407,89.73 40.17,96.73 20.4,96.73 16.163,89.73" fill="#99d9fa"/>
<line x1="44.407" y1="89.73" x2="44.407" y2="61.487" stroke="#8c8c8c" stroke-width="0.3" stroke-dasharray="1.2,0.8"/>
<line x1="72.65" y1="89.73" x2="44.407" y2="89.73" stroke="#8c8c8c" stroke-width="0.3" stroke-dasharray="1.2,0.8"/>
<line x1="44.407" y1="61.487" x2="72.65" y2="61.487" stroke="#8c8c8c" stroke-width="0.3" stroke-dasharray="1.2,0.8"/>
<line x1="44.407" y1="33.243" x2="72.65" y2="33.243" stroke="#8c8c8c" stroke-width="0.3" stroke-dasharray="1.2,0.8"/>
<line x1="72.65" y1="33.243" x2="72.65" y2="5.0" stroke="#8c8c8c" stroke-width="0.3" stroke-dasharray="1.2,0.8"/>
<line x1="16.163" y1="89.73" x2="44.407" y2="89.73" stroke="#8c8c8c" stroke-width="0.3" stroke-dasharray="1.2,0.8"/>
<line x1="16.163" y1="61.487" x2="44.407" y2="61.487" stroke="#8c8c8c" stroke-width="0.3" stroke-dasharray="1.2,0.8"/>
<line x1="72.65" y1="61.487" x2="72.65" y2="89.73" stroke="#8c8c8c" stroke-width="0.3" stroke-dasharray="1.2,0.8"/>
<line x1="72.65" y1="117.974" x2="72.65" y2="89.73" stroke="#8c8c8c" stroke-width="0.3" stroke-dasharray="1.2,0.8"/>
<line x1="72.65" y1="33.244" x2="72.65" y2="61.487" stroke="#8c8c8c" stroke-width="0.3" stroke-dasharray="1.2,0.8"/>
<line x1="16.163" y1="61.487" x2="16.163" y2="89.73" stroke="#8c8c8c" stroke-width="0.3" stroke-dasharray="1.2,0.8"/>
<line x1="72.65" y1="117.974" x2="44.407" y2="117.974" stroke="#8c8c8c" stroke-width="0.3" stroke-dasharray="1.2,0.8"/>
<line x1="44.407" y1="117.974" x2="44.407" y2="89.73" stroke="#141414" stroke-width="0.4"/>
<line x1="44.407" y1="61.487" x2="44.407" y2="33.243" stroke="#141414" stroke-width="0.4"/>
<line x1="100.894" y1="5.0" x2="100.894" y2="33.243" stroke="#141414" stroke-width="0.4"/>
<line x1="72.65" y1="5.0" x2="100.894" y2="5.0" stroke="#141414" stroke-width="0.4"/>
<line x1="100.894" y1="33.243" x2="72.65" y2="33.243" stroke="#141414" stroke-width="0.4"/>
<line x1="44.407" y1="33.243" x2="44.407" y2="5.0" stroke="#141414" stroke-width="0.4"/>
<line x1="44.407" y1="5.0" x2="72.65" y2="5.0" stroke="#141414" stroke-width="0.4"/>
<line x1="44.407" y1="89.73" x2="40.17" y2="96.73" stroke="#141414" stroke-width="0.4"/>
<line x1="40.17" y1="96.73" x2="20.4" y2="96.73" stroke="#141414" stroke-width="0.4"/>
<line x1="20.4" y1="96.73" x2="16.163" y2="89.73" stroke="#141414" stroke-width="0.4"/>
<line x1="44.407" y1="61.487" x2="40.17" y2="54.487" stroke="#141414" stroke-width="0.4"/>
<line x1="40.17" y1="54.487" x2="20.4" y2="54.487" stroke="#141414" stroke-width="0.4"/>
<line x1="20.4" y1="54.487" x2="16.163" y2="61.487" stroke="#141414" stroke-width="0.4"/>
<line x1="72.65" y1="89.73" x2="79.65" y2="85.494" stroke="#141414" stroke-width="0.4"/>
<line x1="79.65" y1="85.494" x2="79.65" y2="65.724" stroke="#141414" stroke-width="0.4"/>
<line x1="79.65" y1="65.724" x2="72.65" y2="61.487" stroke="#141414" stroke-width="0.4"/>
<line x1="72.65" y1="89.73" x2="79.65" y2="93.967" stroke="#141414" stroke-width="0.4"/>
<line x1="79.65" y1="93.967" x2="79.65" y2="113.737" stroke="#141414" stroke-width="0.4"/>
<line x1="79.65" y1="113.737" x2="72.65" y2="117.974" stroke="#141414" stroke-width="0.4"/>
<line x1="72.65" y1="61.487" x2="79.65" y2="57.25" stroke="#141414" stroke-width="0.4"/>
<line x1="79.65" y1="57.25" x2="79.65" y2="37.48" stroke="#141414" stroke-width="0.4"/>
<line x1="79.65" y1="37.48" x2="72.65" y2="33.244" stroke="#141414" stroke-width="0.4"/>
<line x1="16.163" y1="89.73" x2="9.163" y2="85.494" stroke="#141414" stroke-width="0.4"/>
<line x1="9.163" y1="85.494" x2="9.163" y2="65.724" stroke="#141414" stroke-width="0.4"/>
<line x1="9.163" y1="65.724" x2="16.163" y2="61.487" stroke="#141414" stroke-width="0.4"/>
<line x1="44.407" y1="117.974" x2="48.643" y2="124.974" stroke="#141414" stroke-width="0.4"/>
<line x1="48.643" y1="124.974" x2="68.414" y2="124.974" stroke="#141414" stroke-width="0.4"/>
<line x1="68.414" y1="124.974" x2="72.65" y2="117.974" stroke="#141414" stroke-width="0.4"/>
<circle cx="30.285" cy="93.23" r="1.86" fill="#99d9fa" stroke="#464646" stroke-width="0.2"/>
<text x="30.285" y="93.87" font-size="1.82" text-anchor="middle" fill="#141414">17</text>
<circle cx="30.285" cy="57.987" r="1.86" fill="#ffe082" stroke="#464646" stroke-width="0.2"/>
<text x="30.285" y="58.62" font-size="1.82" text-anchor="middle" fill="#141414">18</text>
<circle cx="76.15" cy="75.609" r="1.86" fill="#ffe082" stroke="#464646" stroke-width="0.2"/>
<text x="76.15" y="76.25" font-size="1.82" text-anchor="middle" fill="#141414">19</text>
<circle cx="76.15" cy="103.852" r="1.86" fill="#ffe082" stroke="#464646" stroke-width="0.2"/>
<text x="76.15" y="104.49" font-size="1.82" text-anchor="middle" fill="#141414">20</text>
<circle cx="76.15" cy="47.365" r="1.86" fill="#ffe082" stroke="#464646" stroke-width="0.2"/>
<text x="76.15" y="48.00" font-size="1.82" text-anchor="middle" fill="#141414">21</text>
<circle cx="12.663" cy="75.609" r="1.86" fill="#ffe082" stroke="#464646" stroke-width="0.2"/>
<text x="12.663" y="76.25" font-size="1.82" text-anchor="middle" fill="#141414">22</text>
<circle cx="58.529" cy="121.474" r="1.86" fill="#ffe082" stroke="#464646" stroke-width="0.2"/>
<text x="58.529" y="122.11" font-size="1.82" text-anchor="middle" fill="#141414">23</text>
<circle cx="63.236" cy="108.559" r="4.60" fill="#eaf1fe" stroke="#2e78e6" stroke-width="0.3"/>
<text x="63.236" y="110.36" font-size="5.20" text-anchor="middle" fill="#14306e" font-weight="bold">3</text>
<polygon points="139.137,89.73 134.901,96.73 115.13,96.73 110.894,89.73" fill="rgb(216,216,216)"/>
<polygon points="139.137,61.487 134.901,54.487 115.13,54.487 110.894,61.487" fill="rgb(216,216,216)"/>
<polygon points="167.381,89.73 174.381,85.494 174.381,65.724 167.381,61.487" fill="rgb(216,216,216)"/>
<polygon points="167.381,89.73 174.381,93.967 174.381,113.737 167.381,117.974" fill="rgb(216,216,216)"/>
<polygon points="167.381,61.487 174.381,57.25 174.381,37.48 167.381,33.244" fill="rgb(216,216,216)"/>
<polygon points="110.894,89.73 103.894,85.494 103.894,65.724 110.894,61.487" fill="rgb(216,216,216)"/>
<polygon points="139.137,117.974 143.374,124.974 163.144,124.974 167.381,117.974" fill="rgb(216,216,216)"/>
<polygon points="139.137,89.73 134.901,96.73 115.13,96.73 110.894,89.73" fill="#99d9fa"/>
<line x1="139.137" y1="89.73" x2="139.137" y2="61.487" stroke="#8c8c8c" stroke-width="0.3" stroke-dasharray="1.2,0.8"/>
<line x1="167.381" y1="89.73" x2="139.137" y2="89.73" stroke="#8c8c8c" stroke-width="0.3" stroke-dasharray="1.2,0.8"/>
<line x1="139.137" y1="61.487" x2="167.381" y2="61.487" stroke="#8c8c8c" stroke-width="0.3" stroke-dasharray="1.2,0.8"/>
<line x1="139.137" y1="33.243" x2="167.381" y2="33.243" stroke="#8c8c8c" stroke-width="0.3" stroke-dasharray="1.2,0.8"/>
<line x1="167.381" y1="33.243" x2="167.381" y2="5.0" stroke="#8c8c8c" stroke-width="0.3" stroke-dasharray="1.2,0.8"/>
<line x1="110.894" y1="89.73" x2="139.137" y2="89.73" stroke="#8c8c8c" stroke-width="0.3" stroke-dasharray="1.2,0.8"/>
<line x1="110.894" y1="61.487" x2="139.137" y2="61.487" stroke="#8c8c8c" stroke-width="0.3" stroke-dasharray="1.2,0.8"/>
<line x1="167.381" y1="61.487" x2="167.381" y2="89.73" stroke="#8c8c8c" stroke-width="0.3" stroke-dasharray="1.2,0.8"/>
<line x1="167.381" y1="117.974" x2="167.381" y2="89.73" stroke="#8c8c8c" stroke-width="0.3" stroke-dasharray="1.2,0.8"/>
<line x1="167.381" y1="33.244" x2="167.381" y2="61.487" stroke="#8c8c8c" stroke-width="0.3" stroke-dasharray="1.2,0.8"/>
<line x1="110.894" y1="61.487" x2="110.894" y2="89.73" stroke="#8c8c8c" stroke-width="0.3" stroke-dasharray="1.2,0.8"/>
<line x1="167.381" y1="117.974" x2="139.137" y2="117.974" stroke="#8c8c8c" stroke-width="0.3" stroke-dasharray="1.2,0.8"/>
<line x1="139.137" y1="117.974" x2="139.137" y2="89.73" stroke="#141414" stroke-width="0.4"/>
<line x1="139.137" y1="61.487" x2="139.137" y2="33.243" stroke="#141414" stroke-width="0.4"/>
<line x1="195.624" y1="5.0" x2="195.624" y2="33.243" stroke="#141414" stroke-width="0.4"/>
<line x1="167.381" y1="5.0" x2="195.624" y2="5.0" stroke="#141414" stroke-width="0.4"/>
<line x1="195.624" y1="33.243" x2="167.381" y2="33.243" stroke="#141414" stroke-width="0.4"/>
<line x1="139.137" y1="33.243" x2="139.137" y2="5.0" stroke="#141414" stroke-width="0.4"/>
<line x1="139.137" y1="5.0" x2="167.381" y2="5.0" stroke="#141414" stroke-width="0.4"/>
<line x1="139.137" y1="89.73" x2="134.901" y2="96.73" stroke="#141414" stroke-width="0.4"/>
<line x1="134.901" y1="96.73" x2="115.13" y2="96.73" stroke="#141414" stroke-width="0.4"/>
<line x1="115.13" y1="96.73" x2="110.894" y2="89.73" stroke="#141414" stroke-width="0.4"/>
<line x1="139.137" y1="61.487" x2="134.901" y2="54.487" stroke="#141414" stroke-width="0.4"/>
<line x1="134.901" y1="54.487" x2="115.13" y2="54.487" stroke="#141414" stroke-width="0.4"/>
<line x1="115.13" y1="54.487" x2="110.894" y2="61.487" stroke="#141414" stroke-width="0.4"/>
<line x1="167.381" y1="89.73" x2="174.381" y2="85.494" stroke="#141414" stroke-width="0.4"/>
<line x1="174.381" y1="85.494" x2="174.381" y2="65.724" stroke="#141414" stroke-width="0.4"/>
<line x1="174.381" y1="65.724" x2="167.381" y2="61.487" stroke="#141414" stroke-width="0.4"/>
<line x1="167.381" y1="89.73" x2="174.381" y2="93.967" stroke="#141414" stroke-width="0.4"/>
<line x1="174.381" y1="93.967" x2="174.381" y2="113.737" stroke="#141414" stroke-width="0.4"/>
<line x1="174.381" y1="113.737" x2="167.381" y2="117.974" stroke="#141414" stroke-width="0.4"/>
<line x1="167.381" y1="61.487" x2="174.381" y2="57.25" stroke="#141414" stroke-width="0.4"/>
<line x1="174.381" y1="57.25" x2="174.381" y2="37.48" stroke="#141414" stroke-width="0.4"/>
<line x1="174.381" y1="37.48" x2="167.381" y2="33.244" stroke="#141414" stroke-width="0.4"/>
<line x1="110.894" y1="89.73" x2="103.894" y2="85.494" stroke="#141414" stroke-width="0.4"/>
<line x1="103.894" y1="85.494" x2="103.894" y2="65.724" stroke="#141414" stroke-width="0.4"/>
<line x1="103.894" y1="65.724" x2="110.894" y2="61.487" stroke="#141414" stroke-width="0.4"/>
<line x1="139.137" y1="117.974" x2="143.374" y2="124.974" stroke="#141414" stroke-width="0.4"/>
<line x1="143.374" y1="124.974" x2="163.144" y2="124.974" stroke="#141414" stroke-width="0.4"/>
<line x1="163.144" y1="124.974" x2="167.381" y2="117.974" stroke="#141414" stroke-width="0.4"/>
<circle cx="125.016" cy="93.23" r="1.86" fill="#99d9fa" stroke="#464646" stroke-width="0.2"/>
<text x="125.016" y="93.87" font-size="1.82" text-anchor="middle" fill="#141414">24</text>
<circle cx="125.016" cy="57.987" r="1.86" fill="#ffe082" stroke="#464646" stroke-width="0.2"/>
<text x="125.016" y="58.62" font-size="1.82" text-anchor="middle" fill="#141414">25</text>
<circle cx="170.881" cy="75.609" r="1.86" fill="#ffe082" stroke="#464646" stroke-width="0.2"/>
<text x="170.881" y="76.25" font-size="1.82" text-anchor="middle" fill="#141414">26</text>
<circle cx="170.881" cy="103.852" r="1.86" fill="#ffe082" stroke="#464646" stroke-width="0.2"/>
<text x="170.881" y="104.49" font-size="1.82" text-anchor="middle" fill="#141414">27</text>
<circle cx="170.881" cy="47.365" r="1.86" fill="#ffe082" stroke="#464646" stroke-width="0.2"/>
<text x="170.881" y="48.00" font-size="1.82" text-anchor="middle" fill="#141414">28</text>
<circle cx="107.394" cy="75.609" r="1.86" fill="#ffe082" stroke="#464646" stroke-width="0.2"/>
<text x="107.394" y="76.25" font-size="1.82" text-anchor="middle" fill="#141414">29</text>
<circle cx="153.259" cy="121.474" r="1.86" fill="#ffe082" stroke="#464646" stroke-width="0.2"/>
<text x="153.259" y="122.11" font-size="1.82" text-anchor="middle" fill="#141414">30</text>
<circle cx="157.966" cy="108.559" r="4.60" fill="#eaf1fe" stroke="#2e78e6" stroke-width="0.3"/>
<text x="157.966" y="110.36" font-size="5.20" text-anchor="middle" fill="#14306e" font-weight="bold">4</text>
<polygon points="63.952,228.023 68.558,235.023 90.054,235.023 94.66,228.023" fill="rgb(216,216,216)"/>
<polygon points="63.952,193.353 68.558,186.352 90.054,186.352 94.66,193.353" fill="rgb(216,216,216)"/>
<polygon points="94.66,228.023 101.66,222.822 101.66,198.553 94.66,193.353" fill="rgb(216,216,216)"/>
<polygon points="63.952,258.731 59.715,265.731 39.945,265.731 35.708,258.731" fill="rgb(216,216,216)"/>
<polygon points="35.708,228.023 28.708,222.822 28.708,198.553 35.708,193.353" fill="rgb(216,216,216)"/>
<polygon points="35.708,228.023 28.708,232.629 28.708,254.125 35.708,258.731" fill="rgb(216,216,216)"/>
<polygon points="35.708,193.353 28.708,188.746 28.708,167.251 35.708,162.644" fill="rgb(216,216,216)"/>
<polygon points="63.952,228.023 68.558,235.023 90.054,235.023 94.66,228.023" fill="#99d9fa"/>
<line x1="63.952" y1="228.023" x2="63.952" y2="193.353" stroke="#8c8c8c" stroke-width="0.3" stroke-dasharray="1.2,0.8"/>
<line x1="63.952" y1="228.023" x2="35.708" y2="228.023" stroke="#8c8c8c" stroke-width="0.3" stroke-dasharray="1.2,0.8"/>
<line x1="35.708" y1="193.353" x2="63.952" y2="193.353" stroke="#8c8c8c" stroke-width="0.3" stroke-dasharray="1.2,0.8"/>
<line x1="35.708" y1="162.644" x2="63.952" y2="162.644" stroke="#8c8c8c" stroke-width="0.3" stroke-dasharray="1.2,0.8"/>
<line x1="35.708" y1="162.644" x2="35.708" y2="127.974" stroke="#8c8c8c" stroke-width="0.3" stroke-dasharray="1.2,0.8"/>
<line x1="94.66" y1="228.023" x2="63.952" y2="228.023" stroke="#8c8c8c" stroke-width="0.3" stroke-dasharray="1.2,0.8"/>
<line x1="94.66" y1="193.353" x2="63.952" y2="193.353" stroke="#8c8c8c" stroke-width="0.3" stroke-dasharray="1.2,0.8"/>
<line x1="94.66" y1="193.353" x2="94.66" y2="228.023" stroke="#8c8c8c" stroke-width="0.3" stroke-dasharray="1.2,0.8"/>
<line x1="35.708" y1="258.731" x2="63.952" y2="258.731" stroke="#8c8c8c" stroke-width="0.3" stroke-dasharray="1.2,0.8"/>
<line x1="35.708" y1="193.353" x2="35.708" y2="228.023" stroke="#8c8c8c" stroke-width="0.3" stroke-dasharray="1.2,0.8"/>
<line x1="35.708" y1="258.731" x2="35.708" y2="228.023" stroke="#8c8c8c" stroke-width="0.3" stroke-dasharray="1.2,0.8"/>
<line x1="35.708" y1="162.644" x2="35.708" y2="193.353" stroke="#8c8c8c" stroke-width="0.3" stroke-dasharray="1.2,0.8"/>
<line x1="63.952" y1="228.023" x2="63.952" y2="258.731" stroke="#141414" stroke-width="0.4"/>
<line x1="63.952" y1="162.644" x2="63.952" y2="193.353" stroke="#141414" stroke-width="0.4"/>
<line x1="63.952" y1="127.974" x2="63.952" y2="162.644" stroke="#141414" stroke-width="0.4"/>
<line x1="35.708" y1="127.974" x2="63.952" y2="127.974" stroke="#141414" stroke-width="0.4"/>
<line x1="5.0" y1="162.644" x2="5.0" y2="127.974" stroke="#141414" stroke-width="0.4"/>
<line x1="5.0" y1="127.974" x2="35.708" y2="127.974" stroke="#141414" stroke-width="0.4"/>
<line x1="35.708" y1="162.644" x2="5.0" y2="162.644" stroke="#141414" stroke-width="0.4"/>
<line x1="63.952" y1="228.023" x2="68.558" y2="235.023" stroke="#141414" stroke-width="0.4"/>
<line x1="68.558" y1="235.023" x2="90.054" y2="235.023" stroke="#141414" stroke-width="0.4"/>
<line x1="90.054" y1="235.023" x2="94.66" y2="228.023" stroke="#141414" stroke-width="0.4"/>
<line x1="63.952" y1="193.353" x2="68.558" y2="186.352" stroke="#141414" stroke-width="0.4"/>
<line x1="68.558" y1="186.352" x2="90.054" y2="186.352" stroke="#141414" stroke-width="0.4"/>
<line x1="90.054" y1="186.352" x2="94.66" y2="193.353" stroke="#141414" stroke-width="0.4"/>
<line x1="94.66" y1="228.023" x2="101.66" y2="222.822" stroke="#141414" stroke-width="0.4"/>
<line x1="101.66" y1="222.822" x2="101.66" y2="198.553" stroke="#141414" stroke-width="0.4"/>
<line x1="101.66" y1="198.553" x2="94.66" y2="193.353" stroke="#141414" stroke-width="0.4"/>
<line x1="63.952" y1="258.731" x2="59.715" y2="265.731" stroke="#141414" stroke-width="0.4"/>
<line x1="59.715" y1="265.731" x2="39.945" y2="265.731" stroke="#141414" stroke-width="0.4"/>
<line x1="39.945" y1="265.731" x2="35.708" y2="258.731" stroke="#141414" stroke-width="0.4"/>
<line x1="35.708" y1="228.023" x2="28.708" y2="222.822" stroke="#141414" stroke-width="0.4"/>
<line x1="28.708" y1="222.822" x2="28.708" y2="198.553" stroke="#141414" stroke-width="0.4"/>
<line x1="28.708" y1="198.553" x2="35.708" y2="193.353" stroke="#141414" stroke-width="0.4"/>
<line x1="35.708" y1="228.023" x2="28.708" y2="232.629" stroke="#141414" stroke-width="0.4"/>
<line x1="28.708" y1="232.629" x2="28.708" y2="254.125" stroke="#141414" stroke-width="0.4"/>
<line x1="28.708" y1="254.125" x2="35.708" y2="258.731" stroke="#141414" stroke-width="0.4"/>
<line x1="35.708" y1="193.353" x2="28.708" y2="188.746" stroke="#141414" stroke-width="0.4"/>
<line x1="28.708" y1="188.746" x2="28.708" y2="167.251" stroke="#141414" stroke-width="0.4"/>
<line x1="28.708" y1="167.251" x2="35.708" y2="162.644" stroke="#141414" stroke-width="0.4"/>
<circle cx="79.306" cy="231.523" r="1.86" fill="#99d9fa" stroke="#464646" stroke-width="0.2"/>
<text x="79.306" y="232.16" font-size="1.82" text-anchor="middle" fill="#141414">31</text>
<circle cx="79.306" cy="189.853" r="1.86" fill="#ffe082" stroke="#464646" stroke-width="0.2"/>
<text x="79.306" y="190.49" font-size="1.82" text-anchor="middle" fill="#141414">32</text>
<circle cx="98.16" cy="210.688" r="1.86" fill="#ffe082" stroke="#464646" stroke-width="0.2"/>
<text x="98.16" y="211.32" font-size="1.82" text-anchor="middle" fill="#141414">33</text>
<circle cx="49.83" cy="262.231" r="1.86" fill="#ffe082" stroke="#464646" stroke-width="0.2"/>
<text x="49.83" y="262.87" font-size="1.82" text-anchor="middle" fill="#141414">34</text>
<circle cx="32.208" cy="210.688" r="1.86" fill="#ffe082" stroke="#464646" stroke-width="0.2"/>
<text x="32.208" y="211.32" font-size="1.82" text-anchor="middle" fill="#141414">35</text>
<circle cx="32.208" cy="243.377" r="1.86" fill="#ffe082" stroke="#464646" stroke-width="0.2"/>
<text x="32.208" y="244.01" font-size="1.82" text-anchor="middle" fill="#141414">36</text>
<circle cx="32.208" cy="177.998" r="1.86" fill="#ffe082" stroke="#464646" stroke-width="0.2"/>
<text x="32.208" y="178.63" font-size="1.82" text-anchor="middle" fill="#141414">37</text>
<circle cx="45.123" cy="248.495" r="4.60" fill="#eaf1fe" stroke="#2e78e6" stroke-width="0.3"/>
<text x="45.123" y="250.30" font-size="5.20" text-anchor="middle" fill="#14306e" font-weight="bold">5</text>
<polygon points="163.18,214.738 167.722,221.738 188.916,221.738 193.458,214.738" fill="rgb(216,216,216)"/>
<polygon points="163.18,186.495 167.722,179.495 188.916,179.495 193.458,186.495" fill="rgb(216,216,216)"/>
<polygon points="193.458,214.738 200.458,210.502 200.458,190.731 193.458,186.495" fill="rgb(216,216,216)"/>
<polygon points="163.18,245.015 158.944,252.015 139.173,252.015 134.937,245.015" fill="rgb(216,216,216)"/>
<polygon points="134.937,214.738 127.937,210.502 127.937,190.731 134.937,186.495" fill="rgb(216,216,216)"/>
<polygon points="134.937,214.738 127.937,219.28 127.937,240.474 134.937,245.015" fill="rgb(216,216,216)"/>
<polygon points="134.937,186.495 127.937,181.953 127.937,160.759 134.937,156.217" fill="rgb(216,216,216)"/>
<polygon points="163.18,214.738 167.722,221.738 188.916,221.738 193.458,214.738" fill="#99d9fa"/>
<line x1="163.18" y1="214.738" x2="163.18" y2="186.495" stroke="#8c8c8c" stroke-width="0.3" stroke-dasharray="1.2,0.8"/>
<line x1="163.18" y1="214.738" x2="134.937" y2="214.738" stroke="#8c8c8c" stroke-width="0.3" stroke-dasharray="1.2,0.8"/>
<line x1="134.937" y1="186.495" x2="163.18" y2="186.495" stroke="#8c8c8c" stroke-width="0.3" stroke-dasharray="1.2,0.8"/>
<line x1="134.937" y1="156.217" x2="163.18" y2="156.217" stroke="#8c8c8c" stroke-width="0.3" stroke-dasharray="1.2,0.8"/>
<line x1="134.937" y1="156.217" x2="134.937" y2="127.974" stroke="#8c8c8c" stroke-width="0.3" stroke-dasharray="1.2,0.8"/>
<line x1="193.458" y1="214.738" x2="163.18" y2="214.738" stroke="#8c8c8c" stroke-width="0.3" stroke-dasharray="1.2,0.8"/>
<line x1="193.458" y1="186.495" x2="163.18" y2="186.495" stroke="#8c8c8c" stroke-width="0.3" stroke-dasharray="1.2,0.8"/>
<line x1="193.458" y1="186.495" x2="193.458" y2="214.738" stroke="#8c8c8c" stroke-width="0.3" stroke-dasharray="1.2,0.8"/>
<line x1="134.937" y1="245.015" x2="163.18" y2="245.015" stroke="#8c8c8c" stroke-width="0.3" stroke-dasharray="1.2,0.8"/>
<line x1="134.937" y1="186.495" x2="134.937" y2="214.738" stroke="#8c8c8c" stroke-width="0.3" stroke-dasharray="1.2,0.8"/>
<line x1="134.937" y1="245.015" x2="134.937" y2="214.738" stroke="#8c8c8c" stroke-width="0.3" stroke-dasharray="1.2,0.8"/>
<line x1="134.937" y1="156.217" x2="134.937" y2="186.495" stroke="#8c8c8c" stroke-width="0.3" stroke-dasharray="1.2,0.8"/>
<line x1="163.18" y1="214.738" x2="163.18" y2="245.015" stroke="#141414" stroke-width="0.4"/>
<line x1="163.18" y1="156.217" x2="163.18" y2="186.495" stroke="#141414" stroke-width="0.4"/>
<line x1="163.18" y1="127.974" x2="163.18" y2="156.217" stroke="#141414" stroke-width="0.4"/>
<line x1="134.937" y1="127.974" x2="163.18" y2="127.974" stroke="#141414" stroke-width="0.4"/>
<line x1="104.66" y1="156.217" x2="104.66" y2="127.974" stroke="#141414" stroke-width="0.4"/>
<line x1="104.66" y1="127.974" x2="134.937" y2="127.974" stroke="#141414" stroke-width="0.4"/>
<line x1="134.937" y1="156.217" x2="104.66" y2="156.217" stroke="#141414" stroke-width="0.4"/>
<line x1="163.18" y1="214.738" x2="167.722" y2="221.738" stroke="#141414" stroke-width="0.4"/>
<line x1="167.722" y1="221.738" x2="188.916" y2="221.738" stroke="#141414" stroke-width="0.4"/>
<line x1="188.916" y1="221.738" x2="193.458" y2="214.738" stroke="#141414" stroke-width="0.4"/>
<line x1="163.18" y1="186.495" x2="167.722" y2="179.495" stroke="#141414" stroke-width="0.4"/>
<line x1="167.722" y1="179.495" x2="188.916" y2="179.495" stroke="#141414" stroke-width="0.4"/>
<line x1="188.916" y1="179.495" x2="193.458" y2="186.495" stroke="#141414" stroke-width="0.4"/>
<line x1="193.458" y1="214.738" x2="200.458" y2="210.502" stroke="#141414" stroke-width="0.4"/>
<line x1="200.458" y1="210.502" x2="200.458" y2="190.731" stroke="#141414" stroke-width="0.4"/>
<line x1="200.458" y1="190.731" x2="193.458" y2="186.495" stroke="#141414" stroke-width="0.4"/>
<line x1="163.18" y1="245.015" x2="158.944" y2="252.015" stroke="#141414" stroke-width="0.4"/>
<line x1="158.944" y1="252.015" x2="139.173" y2="252.015" stroke="#141414" stroke-width="0.4"/>
<line x1="139.173" y1="252.015" x2="134.937" y2="245.015" stroke="#141414" stroke-width="0.4"/>
<line x1="134.937" y1="214.738" x2="127.937" y2="210.502" stroke="#141414" stroke-width="0.4"/>
<line x1="127.937" y1="210.502" x2="127.937" y2="190.731" stroke="#141414" stroke-width="0.4"/>
<line x1="127.937" y1="190.731" x2="134.937" y2="186.495" stroke="#141414" stroke-width="0.4"/>
<line x1="134.937" y1="214.738" x2="127.937" y2="219.28" stroke="#141414" stroke-width="0.4"/>
<line x1="127.937" y1="219.28" x2="127.937" y2="240.474" stroke="#141414" stroke-width="0.4"/>
<line x1="127.937" y1="240.474" x2="134.937" y2="245.015" stroke="#141414" stroke-width="0.4"/>
<line x1="134.937" y1="186.495" x2="127.937" y2="181.953" stroke="#141414" stroke-width="0.4"/>
<line x1="127.937" y1="181.953" x2="127.937" y2="160.759" stroke="#141414" stroke-width="0.4"/>
<line x1="127.937" y1="160.759" x2="134.937" y2="156.217" stroke="#141414" stroke-width="0.4"/>
<circle cx="178.319" cy="218.238" r="1.86" fill="#99d9fa" stroke="#464646" stroke-width="0.2"/>
<text x="178.319" y="218.87" font-size="1.82" text-anchor="middle" fill="#141414">38</text>
<circle cx="178.319" cy="182.995" r="1.86" fill="#ffe082" stroke="#464646" stroke-width="0.2"/>
<text x="178.319" y="183.63" font-size="1.82" text-anchor="middle" fill="#141414">39</text>
<circle cx="196.958" cy="200.616" r="1.86" fill="#ffe082" stroke="#464646" stroke-width="0.2"/>
<text x="196.958" y="201.25" font-size="1.82" text-anchor="middle" fill="#141414">40</text>
<circle cx="149.059" cy="248.515" r="1.86" fill="#ffe082" stroke="#464646" stroke-width="0.2"/>
<text x="149.059" y="249.15" font-size="1.82" text-anchor="middle" fill="#141414">41</text>
<circle cx="131.437" cy="200.616" r="1.86" fill="#ffe082" stroke="#464646" stroke-width="0.2"/>
<text x="131.437" y="201.25" font-size="1.82" text-anchor="middle" fill="#141414">42</text>
<circle cx="131.437" cy="229.877" r="1.86" fill="#ffe082" stroke="#464646" stroke-width="0.2"/>
<text x="131.437" y="230.51" font-size="1.82" text-anchor="middle" fill="#141414">43</text>
<circle cx="131.437" cy="171.356" r="1.86" fill="#ffe082" stroke="#464646" stroke-width="0.2"/>
<text x="131.437" y="171.99" font-size="1.82" text-anchor="middle" fill="#141414">44</text>
<circle cx="144.351" cy="234.923" r="4.60" fill="#eaf1fe" stroke="#2e78e6" stroke-width="0.3"/>
<text x="144.351" y="236.72" font-size="5.20" text-anchor="middle" fill="#14306e" font-weight="bold">6</text>
<text x="205.0" y="295.0" font-size="3.2" text-anchor="end" fill="#737373" font-family="sans-serif">3 / 11</text>
<g pointer-events="none"><text x="105.0" y="83.2" text-anchor="middle" font-family="sans-serif" font-size="12.4" fill="#9aa0a6" fill-opacity="0.3" transform="rotate(-28 105.0 83.2)">papercraft.kr</text><text x="105.0" y="148.5" text-anchor="middle" font-family="sans-serif" font-size="12.4" fill="#9aa0a6" fill-opacity="0.3" transform="rotate(-28 105.0 148.5)">papercraft.kr</text><text x="105.0" y="213.8" text-anchor="middle" font-family="sans-serif" font-size="12.4" fill="#9aa0a6" fill-opacity="0.3" transform="rotate(-28 105.0 213.8)">papercraft.kr</text></g></svg>
