<svg xmlns="http://www.w3.org/2000/svg" xmlns:xlink="http://www.w3.org/1999/xlink" width="210.00mm" height="297.00mm" viewBox="0 0 210.00 297.00">
<rect x="0" y="0" width="210.00" height="297.00" fill="#ffffff" stroke="#cccccc" stroke-width="0.2"/>
<polygon points="79.211,102.893 75.964,108.636 57.219,111.441 52.433,106.899" fill="rgb(216,216,216)"/>
<polygon points="79.211,102.893 76.774,113.826 77.758,117.475 85.362,125.7" fill="rgb(216,216,216)"/>
<polygon points="113.12,18.197 115.33,12.997 125.643,12.997 127.854,18.197" fill="rgb(216,216,216)"/>
<polygon points="106.568,5.0 89.447,10.061 22.908,53.935 11.512,67.678" fill="rgb(216,216,216)"/>
<polygon points="39.344,76.403 29.955,82.733 7.431,123.918 7.166,135.239" fill="rgb(216,216,216)"/>
<polygon points="39.344,76.403 26.099,77.7 21.646,76.305 11.512,67.678" fill="rgb(216,216,216)"/>
<line x1="79.211" y1="102.893" x2="113.12" y2="18.197" stroke="#8c8c8c" stroke-width="0.3" stroke-dasharray="1.2,0.8"/>
<line x1="52.433" y1="106.899" x2="113.12" y2="18.197" stroke="#8c8c8c" stroke-width="0.3" stroke-dasharray="1.2,0.8"/>
<line x1="113.12" y1="18.197" x2="39.344" y2="76.403" stroke="#8c8c8c" stroke-width="0.3" stroke-dasharray="1.2,0.8"/>
<line x1="127.853" y1="18.197" x2="85.362" y2="125.7" stroke="#8c8c8c" stroke-width="0.3" stroke-dasharray="1.2,0.8"/>
<line x1="106.569" y1="5.0" x2="39.344" y2="76.403" stroke="#8c8c8c" stroke-width="0.3" stroke-dasharray="1.2,0.8"/>
<line x1="127.853" y1="18.197" x2="79.211" y2="102.893" stroke="#8c8c8c" stroke-width="0.3" stroke-dasharray="1.2,0.8"/>
<line x1="52.433" y1="106.899" x2="39.344" y2="76.403" stroke="#8c8c8c" stroke-width="0.3" stroke-dasharray="1.2,0.8"/>
<line x1="52.433" y1="106.899" x2="79.211" y2="102.893" stroke="#8c8c8c" stroke-width="0.3" stroke-dasharray="1.2,0.8"/>
<line x1="85.362" y1="125.7" x2="79.211" y2="102.893" stroke="#8c8c8c" stroke-width="0.3" stroke-dasharray="1.2,0.8"/>
<line x1="127.854" y1="18.197" x2="113.12" y2="18.197" stroke="#8c8c8c" stroke-width="0.3" stroke-dasharray="1.2,0.8"/>
<line x1="11.512" y1="67.678" x2="106.568" y2="5.0" stroke="#8c8c8c" stroke-width="0.3" stroke-dasharray="1.2,0.8"/>
<line x1="7.166" y1="135.239" x2="39.344" y2="76.403" stroke="#8c8c8c" stroke-width="0.3" stroke-dasharray="1.2,0.8"/>
<line x1="11.512" y1="67.678" x2="39.344" y2="76.403" stroke="#8c8c8c" stroke-width="0.3" stroke-dasharray="1.2,0.8"/>
<line x1="52.433" y1="106.899" x2="7.166" y2="135.239" stroke="#141414" stroke-width="0.4"/>
<line x1="106.569" y1="5.0" x2="113.12" y2="18.197" stroke="#141414" stroke-width="0.4"/>
<line x1="119.342" y1="131.74" x2="85.362" y2="125.7" stroke="#141414" stroke-width="0.4"/>
<line x1="127.853" y1="18.197" x2="119.342" y2="131.74" stroke="#141414" stroke-width="0.4"/>
<line x1="79.211" y1="102.893" x2="75.964" y2="108.636" stroke="#141414" stroke-width="0.4"/>
<line x1="75.964" y1="108.636" x2="57.219" y2="111.441" stroke="#141414" stroke-width="0.4"/>
<line x1="57.219" y1="111.441" x2="52.433" y2="106.899" stroke="#141414" stroke-width="0.4"/>
<line x1="79.211" y1="102.893" x2="76.774" y2="113.826" stroke="#141414" stroke-width="0.4"/>
<line x1="76.774" y1="113.826" x2="77.758" y2="117.475" stroke="#141414" stroke-width="0.4"/>
<line x1="77.758" y1="117.475" x2="85.362" y2="125.7" stroke="#141414" stroke-width="0.4"/>
<line x1="113.12" y1="18.197" x2="115.33" y2="12.997" stroke="#141414" stroke-width="0.4"/>
<line x1="115.33" y1="12.997" x2="125.643" y2="12.997" stroke="#141414" stroke-width="0.4"/>
<line x1="125.643" y1="12.997" x2="127.854" y2="18.197" stroke="#141414" stroke-width="0.4"/>
<line x1="106.568" y1="5.0" x2="89.447" y2="10.061" stroke="#141414" stroke-width="0.4"/>
<line x1="89.447" y1="10.061" x2="22.908" y2="53.935" stroke="#141414" stroke-width="0.4"/>
<line x1="22.908" y1="53.935" x2="11.512" y2="67.678" stroke="#141414" stroke-width="0.4"/>
<line x1="39.344" y1="76.403" x2="29.955" y2="82.733" stroke="#141414" stroke-width="0.4"/>
<line x1="29.955" y1="82.733" x2="7.431" y2="123.918" stroke="#141414" stroke-width="0.4"/>
<line x1="7.431" y1="123.918" x2="7.166" y2="135.239" stroke="#141414" stroke-width="0.4"/>
<line x1="39.344" y1="76.403" x2="26.099" y2="77.7" stroke="#141414" stroke-width="0.4"/>
<line x1="26.099" y1="77.7" x2="21.646" y2="76.305" stroke="#141414" stroke-width="0.4"/>
<line x1="21.646" y1="76.305" x2="11.512" y2="67.678" stroke="#141414" stroke-width="0.4"/>
<circle cx="66.207" cy="107.467" r="2.29" fill="#ffe082" stroke="#464646" stroke-width="0.2"/>
<text x="66.207" y="108.55" font-size="3.11" text-anchor="middle" fill="#141414">18</text>
<circle cx="79.776" cy="114.973" r="2.29" fill="#ffe082" stroke="#464646" stroke-width="0.2"/>
<text x="79.776" y="116.06" font-size="3.11" text-anchor="middle" fill="#141414">19</text>
<circle cx="120.487" cy="15.597" r="2.29" fill="#ffe082" stroke="#464646" stroke-width="0.2"/>
<text x="120.487" y="16.68" font-size="3.11" text-anchor="middle" fill="#141414">25</text>
<circle cx="57.609" cy="34.169" r="2.29" fill="#ffe082" stroke="#464646" stroke-width="0.2"/>
<text x="57.609" y="35.26" font-size="3.11" text-anchor="middle" fill="#141414">34</text>
<circle cx="20.974" cy="104.573" r="2.29" fill="#ffe082" stroke="#464646" stroke-width="0.2"/>
<text x="20.974" y="105.66" font-size="3.11" text-anchor="middle" fill="#141414">36</text>
<circle cx="24.65" cy="74.521" r="2.29" fill="#ffe082" stroke="#464646" stroke-width="0.2"/>
<text x="24.65" y="75.61" font-size="3.11" text-anchor="middle" fill="#141414">37</text>
<circle cx="65.344" cy="141.339" r="4.6" fill="#eaf1fe" stroke="#2e78e6" stroke-width="0.3"/>
<text x="65.344" y="143.139" font-size="5.2" text-anchor="middle" fill="#14306e" font-weight="bold">2</text>
</svg>
