<svg xmlns="http://www.w3.org/2000/svg" xmlns:xlink="http://www.w3.org/1999/xlink" width="210.00mm" height="297.00mm" viewBox="0 0 210.00 297.00">
<rect x="0" y="0" width="210.00" height="297.00" fill="#ffffff" stroke="#cccccc" stroke-width="0.2"/>
<polygon points="10.418,161.352 6.485,153.768 17.078,133.51 25.551,132.413" fill="rgb(216,216,216)"/>
<polygon points="10.418,192.835 7.13,200.721 19.374,220.025 27.909,220.413" fill="rgb(216,216,216)"/>
<polygon points="27.909,220.413 28.501,228.836 47.588,239.851 55.177,236.148" fill="rgb(216,216,216)"/>
<polygon points="55.177,236.148 60.362,242.939 83.203,241.989 87.806,234.791" fill="rgb(216,216,216)"/>
<polygon points="87.806,234.791 95.397,238.491 114.48,227.468 115.067,219.044" fill="rgb(216,216,216)"/>
<polygon points="115.067,219.044 123.541,217.949 134.138,197.694 130.207,190.108" fill="rgb(216,216,216)"/>
<polygon points="130.207,190.108 137.206,185.384 137.201,163.346 130.2,158.626" fill="rgb(216,216,216)"/>
<polygon points="176.168,144.254 182.798,133.695 181.093,85.575 173.732,75.512" fill="rgb(216,216,216)"/>
<polygon points="130.2,158.626 128.766,143.294 125.968,138.881 112.711,131.046" fill="rgb(216,216,216)"/>
<polygon points="195.918,37.526 195.452,29.366 178.035,20.175 171.036,24.397" fill="rgb(216,216,216)"/>
<polygon points="119.779,118.122 120.035,117.697 147.799,62.192 152.143,64.222" fill="rgb(216,216,216)"/>
<polygon points="152.143,64.222 148.05,61.732 170.68,24.777 171.036,24.397" fill="rgb(216,216,216)"/>
<polygon points="170.883,24.316 170.652,16.145 153.506,6.459 146.388,10.478" fill="rgb(216,216,216)"/>
<polygon points="85.443,115.311 71.448,108.887 66.227,109.104 52.814,116.668" fill="rgb(216,216,216)"/>
<polygon points="126.378,49.654 123.146,40.593 137.153,13.17 146.388,10.478" fill="rgb(216,216,216)"/>
<polygon points="126.378,49.654 122.04,38.04 118.852,35.796 106.456,35.631" fill="rgb(216,216,216)"/>
<polygon points="58.602,96.708 54.26,90.79 60.351,82.47 67.304,84.822" fill="rgb(216,216,216)"/>
<polygon points="52.814,116.668 45.224,112.968 26.14,123.99 25.551,132.413" fill="rgb(216,216,216)"/>
<polygon points="67.304,84.822 67.7,73.084 95.106,38.65 106.456,35.631" fill="rgb(216,216,216)"/>
<line x1="141.759" y1="145.97" x2="173.732" y2="75.512" stroke="#8c8c8c" stroke-width="0.3" stroke-dasharray="1.2,0.8"/>
<line x1="119.779" y1="118.122" x2="141.759" y2="145.97" stroke="#8c8c8c" stroke-width="0.3" stroke-dasharray="1.2,0.8"/>
<line x1="112.711" y1="131.046" x2="119.779" y2="118.122" stroke="#8c8c8c" stroke-width="0.3" stroke-dasharray="1.2,0.8"/>
<line x1="85.443" y1="115.311" x2="112.711" y2="131.046" stroke="#8c8c8c" stroke-width="0.3" stroke-dasharray="1.2,0.8"/>
<line x1="85.443" y1="115.311" x2="119.779" y2="118.122" stroke="#8c8c8c" stroke-width="0.3" stroke-dasharray="1.2,0.8"/>
<line x1="85.443" y1="115.311" x2="126.379" y2="49.654" stroke="#8c8c8c" stroke-width="0.3" stroke-dasharray="1.2,0.8"/>
<line x1="67.304" y1="84.822" x2="85.443" y2="115.311" stroke="#8c8c8c" stroke-width="0.3" stroke-dasharray="1.2,0.8"/>
<line x1="152.143" y1="64.222" x2="173.732" y2="75.512" stroke="#8c8c8c" stroke-width="0.3" stroke-dasharray="1.2,0.8"/>
<line x1="126.379" y1="49.654" x2="147.589" y2="61.737" stroke="#8c8c8c" stroke-width="0.3" stroke-dasharray="1.2,0.8"/>
<line x1="25.551" y1="132.413" x2="10.418" y2="161.352" stroke="#8c8c8c" stroke-width="0.3" stroke-dasharray="1.2,0.8"/>
<line x1="27.909" y1="220.413" x2="10.418" y2="192.835" stroke="#8c8c8c" stroke-width="0.3" stroke-dasharray="1.2,0.8"/>
<line x1="55.177" y1="236.148" x2="27.909" y2="220.413" stroke="#8c8c8c" stroke-width="0.3" stroke-dasharray="1.2,0.8"/>
<line x1="87.806" y1="234.791" x2="55.177" y2="236.148" stroke="#8c8c8c" stroke-width="0.3" stroke-dasharray="1.2,0.8"/>
<line x1="115.067" y1="219.044" x2="87.806" y2="234.791" stroke="#8c8c8c" stroke-width="0.3" stroke-dasharray="1.2,0.8"/>
<line x1="130.207" y1="190.108" x2="115.067" y2="219.044" stroke="#8c8c8c" stroke-width="0.3" stroke-dasharray="1.2,0.8"/>
<line x1="130.2" y1="158.626" x2="130.207" y2="190.108" stroke="#8c8c8c" stroke-width="0.3" stroke-dasharray="1.2,0.8"/>
<line x1="173.732" y1="75.512" x2="176.168" y2="144.254" stroke="#8c8c8c" stroke-width="0.3" stroke-dasharray="1.2,0.8"/>
<line x1="112.711" y1="131.046" x2="130.2" y2="158.626" stroke="#8c8c8c" stroke-width="0.3" stroke-dasharray="1.2,0.8"/>
<line x1="171.036" y1="24.397" x2="195.918" y2="37.526" stroke="#8c8c8c" stroke-width="0.3" stroke-dasharray="1.2,0.8"/>
<line x1="152.143" y1="64.222" x2="119.779" y2="118.122" stroke="#8c8c8c" stroke-width="0.3" stroke-dasharray="1.2,0.8"/>
<line x1="171.036" y1="24.397" x2="152.143" y2="64.222" stroke="#8c8c8c" stroke-width="0.3" stroke-dasharray="1.2,0.8"/>
<line x1="146.388" y1="10.478" x2="170.883" y2="24.316" stroke="#8c8c8c" stroke-width="0.3" stroke-dasharray="1.2,0.8"/>
<line x1="52.814" y1="116.668" x2="85.443" y2="115.311" stroke="#8c8c8c" stroke-width="0.3" stroke-dasharray="1.2,0.8"/>
<line x1="146.388" y1="10.478" x2="126.378" y2="49.654" stroke="#8c8c8c" stroke-width="0.3" stroke-dasharray="1.2,0.8"/>
<line x1="106.456" y1="35.631" x2="126.378" y2="49.654" stroke="#8c8c8c" stroke-width="0.3" stroke-dasharray="1.2,0.8"/>
<line x1="67.304" y1="84.822" x2="58.602" y2="96.708" stroke="#8c8c8c" stroke-width="0.3" stroke-dasharray="1.2,0.8"/>
<line x1="25.551" y1="132.413" x2="52.814" y2="116.668" stroke="#8c8c8c" stroke-width="0.3" stroke-dasharray="1.2,0.8"/>
<line x1="106.456" y1="35.631" x2="67.304" y2="84.822" stroke="#8c8c8c" stroke-width="0.3" stroke-dasharray="1.2,0.8"/>
<line x1="10.418" y1="192.835" x2="10.418" y2="161.352" stroke="#141414" stroke-width="0.4"/>
<line x1="176.168" y1="144.255" x2="141.759" y2="145.97" stroke="#141414" stroke-width="0.4"/>
<line x1="141.759" y1="145.97" x2="112.711" y2="131.046" stroke="#141414" stroke-width="0.4"/>
<line x1="195.918" y1="37.526" x2="173.732" y2="75.512" stroke="#141414" stroke-width="0.4"/>
<line x1="147.589" y1="61.737" x2="119.779" y2="118.122" stroke="#141414" stroke-width="0.4"/>
<line x1="170.883" y1="24.316" x2="147.589" y2="61.737" stroke="#141414" stroke-width="0.4"/>
<line x1="85.443" y1="115.311" x2="58.602" y2="96.708" stroke="#141414" stroke-width="0.4"/>
<line x1="10.418" y1="161.352" x2="6.485" y2="153.768" stroke="#141414" stroke-width="0.4"/>
<line x1="6.485" y1="153.768" x2="17.078" y2="133.51" stroke="#141414" stroke-width="0.4"/>
<line x1="17.078" y1="133.51" x2="25.551" y2="132.413" stroke="#141414" stroke-width="0.4"/>
<line x1="10.418" y1="192.835" x2="7.13" y2="200.721" stroke="#141414" stroke-width="0.4"/>
<line x1="7.13" y1="200.721" x2="19.374" y2="220.025" stroke="#141414" stroke-width="0.4"/>
<line x1="19.374" y1="220.025" x2="27.909" y2="220.413" stroke="#141414" stroke-width="0.4"/>
<line x1="27.909" y1="220.413" x2="28.501" y2="228.836" stroke="#141414" stroke-width="0.4"/>
<line x1="28.501" y1="228.836" x2="47.588" y2="239.851" stroke="#141414" stroke-width="0.4"/>
<line x1="47.588" y1="239.851" x2="55.177" y2="236.148" stroke="#141414" stroke-width="0.4"/>
<line x1="55.177" y1="236.148" x2="60.362" y2="242.939" stroke="#141414" stroke-width="0.4"/>
<line x1="60.362" y1="242.939" x2="83.203" y2="241.989" stroke="#141414" stroke-width="0.4"/>
<line x1="83.203" y1="241.989" x2="87.806" y2="234.791" stroke="#141414" stroke-width="0.4"/>
<line x1="87.806" y1="234.791" x2="95.397" y2="238.491" stroke="#141414" stroke-width="0.4"/>
<line x1="95.397" y1="238.491" x2="114.48" y2="227.468" stroke="#141414" stroke-width="0.4"/>
<line x1="114.48" y1="227.468" x2="115.067" y2="219.044" stroke="#141414" stroke-width="0.4"/>
<line x1="115.067" y1="219.044" x2="123.541" y2="217.949" stroke="#141414" stroke-width="0.4"/>
<line x1="123.541" y1="217.949" x2="134.138" y2="197.694" stroke="#141414" stroke-width="0.4"/>
<line x1="134.138" y1="197.694" x2="130.207" y2="190.108" stroke="#141414" stroke-width="0.4"/>
<line x1="130.207" y1="190.108" x2="137.206" y2="185.384" stroke="#141414" stroke-width="0.4"/>
<line x1="137.206" y1="185.384" x2="137.201" y2="163.346" stroke="#141414" stroke-width="0.4"/>
<line x1="137.201" y1="163.346" x2="130.2" y2="158.626" stroke="#141414" stroke-width="0.4"/>
<line x1="176.168" y1="144.254" x2="182.798" y2="133.695" stroke="#141414" stroke-width="0.4"/>
<line x1="182.798" y1="133.695" x2="181.093" y2="85.575" stroke="#141414" stroke-width="0.4"/>
<line x1="181.093" y1="85.575" x2="173.732" y2="75.512" stroke="#141414" stroke-width="0.4"/>
<line x1="130.2" y1="158.626" x2="128.766" y2="143.294" stroke="#141414" stroke-width="0.4"/>
<line x1="128.766" y1="143.294" x2="125.968" y2="138.881" stroke="#141414" stroke-width="0.4"/>
<line x1="125.968" y1="138.881" x2="112.711" y2="131.046" stroke="#141414" stroke-width="0.4"/>
<line x1="195.918" y1="37.526" x2="195.452" y2="29.366" stroke="#141414" stroke-width="0.4"/>
<line x1="195.452" y1="29.366" x2="178.035" y2="20.175" stroke="#141414" stroke-width="0.4"/>
<line x1="178.035" y1="20.175" x2="171.036" y2="24.397" stroke="#141414" stroke-width="0.4"/>
<line x1="119.779" y1="118.122" x2="120.035" y2="117.697" stroke="#141414" stroke-width="0.4"/>
<line x1="120.035" y1="117.697" x2="147.799" y2="62.192" stroke="#141414" stroke-width="0.4"/>
<line x1="147.799" y1="62.192" x2="152.143" y2="64.222" stroke="#141414" stroke-width="0.4"/>
<line x1="152.143" y1="64.222" x2="148.05" y2="61.732" stroke="#141414" stroke-width="0.4"/>
<line x1="148.05" y1="61.732" x2="170.68" y2="24.777" stroke="#141414" stroke-width="0.4"/>
<line x1="170.68" y1="24.777" x2="171.036" y2="24.397" stroke="#141414" stroke-width="0.4"/>
<line x1="170.883" y1="24.316" x2="170.652" y2="16.145" stroke="#141414" stroke-width="0.4"/>
<line x1="170.652" y1="16.145" x2="153.506" y2="6.459" stroke="#141414" stroke-width="0.4"/>
<line x1="153.506" y1="6.459" x2="146.388" y2="10.478" stroke="#141414" stroke-width="0.4"/>
<line x1="85.443" y1="115.311" x2="71.448" y2="108.887" stroke="#141414" stroke-width="0.4"/>
<line x1="71.448" y1="108.887" x2="66.227" y2="109.104" stroke="#141414" stroke-width="0.4"/>
<line x1="66.227" y1="109.104" x2="52.814" y2="116.668" stroke="#141414" stroke-width="0.4"/>
<line x1="126.378" y1="49.654" x2="123.146" y2="40.593" stroke="#141414" stroke-width="0.4"/>
<line x1="123.146" y1="40.593" x2="137.153" y2="13.17" stroke="#141414" stroke-width="0.4"/>
<line x1="137.153" y1="13.17" x2="146.388" y2="10.478" stroke="#141414" stroke-width="0.4"/>
<line x1="126.378" y1="49.654" x2="122.04" y2="38.04" stroke="#141414" stroke-width="0.4"/>
<line x1="122.04" y1="38.04" x2="118.852" y2="35.796" stroke="#141414" stroke-width="0.4"/>
<line x1="118.852" y1="35.796" x2="106.456" y2="35.631" stroke="#141414" stroke-width="0.4"/>
<line x1="58.602" y1="96.708" x2="54.26" y2="90.79" stroke="#141414" stroke-width="0.4"/>
<line x1="54.26" y1="90.79" x2="60.351" y2="82.47" stroke="#141414" stroke-width="0.4"/>
<line x1="60.351" y1="82.47" x2="67.304" y2="84.822" stroke="#141414" stroke-width="0.4"/>
<line x1="52.814" y1="116.668" x2="45.224" y2="112.968" stroke="#141414" stroke-width="0.4"/>
<line x1="45.224" y1="112.968" x2="26.14" y2="123.99" stroke="#141414" stroke-width="0.4"/>
<line x1="26.14" y1="123.99" x2="25.551" y2="132.413" stroke="#141414" stroke-width="0.4"/>
<line x1="67.304" y1="84.822" x2="67.7" y2="73.084" stroke="#141414" stroke-width="0.4"/>
<line x1="67.7" y1="73.084" x2="95.106" y2="38.65" stroke="#141414" stroke-width="0.4"/>
<line x1="95.106" y1="38.65" x2="106.456" y2="35.631" stroke="#141414" stroke-width="0.4"/>
<circle cx="14.883" cy="145.261" r="1.72" fill="#ffe082" stroke="#464646" stroke-width="0.2"/>
<text x="14.883" y="145.85" font-size="1.69" text-anchor="middle" fill="#141414">25</text>
<circle cx="16.208" cy="208.498" r="1.72" fill="#ffe082" stroke="#464646" stroke-width="0.2"/>
<text x="16.208" y="209.09" font-size="1.69" text-anchor="middle" fill="#141414">26</text>
<circle cx="39.794" cy="231.312" r="1.72" fill="#ffe082" stroke="#464646" stroke-width="0.2"/>
<text x="39.794" y="231.90" font-size="1.69" text-anchor="middle" fill="#141414">27</text>
<circle cx="71.637" cy="238.967" r="1.72" fill="#ffe082" stroke="#464646" stroke-width="0.2"/>
<text x="71.637" y="239.56" font-size="1.69" text-anchor="middle" fill="#141414">28</text>
<circle cx="103.187" cy="229.948" r="1.72" fill="#ffe082" stroke="#464646" stroke-width="0.2"/>
<text x="103.187" y="230.54" font-size="1.69" text-anchor="middle" fill="#141414">29</text>
<circle cx="125.738" cy="206.199" r="1.72" fill="#ffe082" stroke="#464646" stroke-width="0.2"/>
<text x="125.738" y="206.79" font-size="1.69" text-anchor="middle" fill="#141414">30</text>
<circle cx="133.704" cy="174.366" r="1.72" fill="#ffe082" stroke="#464646" stroke-width="0.2"/>
<text x="133.704" y="174.96" font-size="1.69" text-anchor="middle" fill="#141414">31</text>
<circle cx="178.448" cy="109.759" r="1.72" fill="#ffe082" stroke="#464646" stroke-width="0.2"/>
<text x="178.448" y="110.35" font-size="1.69" text-anchor="middle" fill="#141414">32</text>
<circle cx="124.411" cy="142.962" r="1.72" fill="#ffe082" stroke="#464646" stroke-width="0.2"/>
<text x="124.411" y="143.55" font-size="1.69" text-anchor="middle" fill="#141414">33</text>
<circle cx="185.11" cy="27.866" r="1.72" fill="#ffe082" stroke="#464646" stroke-width="0.2"/>
<text x="185.11" y="28.46" font-size="1.69" text-anchor="middle" fill="#141414">34</text>
<circle cx="160.357" cy="14.35" r="1.72" fill="#ffe082" stroke="#464646" stroke-width="0.2"/>
<text x="160.357" y="14.94" font-size="1.69" text-anchor="middle" fill="#141414">37</text>
<circle cx="68.983" cy="112.492" r="1.72" fill="#ffe082" stroke="#464646" stroke-width="0.2"/>
<text x="68.983" y="113.08" font-size="1.69" text-anchor="middle" fill="#141414">38</text>
<circle cx="133.266" cy="28.474" r="1.72" fill="#ffe082" stroke="#464646" stroke-width="0.2"/>
<text x="133.266" y="29.06" font-size="1.69" text-anchor="middle" fill="#141414">39</text>
<circle cx="118.432" cy="39.78" r="1.72" fill="#ffe082" stroke="#464646" stroke-width="0.2"/>
<text x="118.432" y="40.37" font-size="1.69" text-anchor="middle" fill="#141414">40</text>
<circle cx="60.129" cy="88.698" r="1.72" fill="#ffe082" stroke="#464646" stroke-width="0.2"/>
<text x="60.129" y="89.29" font-size="1.69" text-anchor="middle" fill="#141414">41</text>
<circle cx="37.432" cy="121.51" r="1.72" fill="#ffe082" stroke="#464646" stroke-width="0.2"/>
<text x="37.432" y="122.10" font-size="1.69" text-anchor="middle" fill="#141414">42</text>
<circle cx="84.142" cy="58.047" r="1.72" fill="#ffe082" stroke="#464646" stroke-width="0.2"/>
<text x="84.142" y="58.64" font-size="1.69" text-anchor="middle" fill="#141414">43</text>
<circle cx="99.717" cy="247.58" r="4.6" fill="#eaf1fe" stroke="#2e78e6" stroke-width="0.3"/>
<text x="99.717" y="249.38000000000002" font-size="5.2" text-anchor="middle" fill="#14306e" font-weight="bold">3</text>
</svg>
