<svg xmlns="http://www.w3.org/2000/svg" xmlns:xlink="http://www.w3.org/1999/xlink" width="210.00mm" height="297.00mm" viewBox="0 0 210.00 297.00">
<rect x="0" y="0" width="210.00" height="297.00" fill="#ffffff" stroke="#cccccc" stroke-width="0.2"/>
<polygon points="10.166,89.236 3.166,77.375 3.166,22.026 10.166,10.166" fill="rgb(216,216,216)"/>
<polygon points="10.166,10.166 23.509,3.166 85.776,3.166 99.119,10.166" fill="rgb(216,216,216)"/>
<polygon points="99.119,89.236 106.119,102.578 106.119,164.846 99.119,178.189" fill="rgb(216,216,216)"/>
<polygon points="10.166,178.189 23.509,185.189 85.776,185.189 99.119,178.189" fill="rgb(216,216,216)"/>
<polygon points="188.072,89.236 195.072,77.375 195.072,22.026 188.072,10.166" fill="rgb(216,216,216)"/>
<line x1="99.119" y1="89.236" x2="10.166" y2="89.236" stroke="#8c8c8c" stroke-width="0.3" stroke-dasharray="1.2,0.8"/>
<line x1="99.119" y1="10.166" x2="99.119" y2="89.236" stroke="#8c8c8c" stroke-width="0.3" stroke-dasharray="1.2,0.8"/>
<line x1="10.166" y1="10.166" x2="10.166" y2="89.236" stroke="#8c8c8c" stroke-width="0.3" stroke-dasharray="1.2,0.8"/>
<line x1="99.119" y1="10.166" x2="10.166" y2="10.166" stroke="#8c8c8c" stroke-width="0.3" stroke-dasharray="1.2,0.8"/>
<line x1="99.119" y1="178.189" x2="99.119" y2="89.236" stroke="#8c8c8c" stroke-width="0.3" stroke-dasharray="1.2,0.8"/>
<line x1="99.119" y1="178.189" x2="10.166" y2="178.189" stroke="#8c8c8c" stroke-width="0.3" stroke-dasharray="1.2,0.8"/>
<line x1="188.072" y1="10.166" x2="188.072" y2="89.236" stroke="#8c8c8c" stroke-width="0.3" stroke-dasharray="1.2,0.8"/>
<line x1="10.166" y1="178.189" x2="10.166" y2="89.236" stroke="#141414" stroke-width="0.4"/>
<line x1="188.072" y1="89.236" x2="99.119" y2="89.236" stroke="#141414" stroke-width="0.4"/>
<line x1="99.119" y1="10.166" x2="188.072" y2="10.166" stroke="#141414" stroke-width="0.4"/>
<line x1="10.166" y1="89.236" x2="3.166" y2="77.375" stroke="#141414" stroke-width="0.4"/>
<line x1="3.166" y1="77.375" x2="3.166" y2="22.026" stroke="#141414" stroke-width="0.4"/>
<line x1="3.166" y1="22.026" x2="10.166" y2="10.166" stroke="#141414" stroke-width="0.4"/>
<line x1="10.166" y1="10.166" x2="23.509" y2="3.166" stroke="#141414" stroke-width="0.4"/>
<line x1="23.509" y1="3.166" x2="85.776" y2="3.166" stroke="#141414" stroke-width="0.4"/>
<line x1="85.776" y1="3.166" x2="99.119" y2="10.166" stroke="#141414" stroke-width="0.4"/>
<line x1="99.119" y1="89.236" x2="106.119" y2="102.578" stroke="#141414" stroke-width="0.4"/>
<line x1="106.119" y1="102.578" x2="106.119" y2="164.846" stroke="#141414" stroke-width="0.4"/>
<line x1="106.119" y1="164.846" x2="99.119" y2="178.189" stroke="#141414" stroke-width="0.4"/>
<line x1="10.166" y1="178.189" x2="23.509" y2="185.189" stroke="#141414" stroke-width="0.4"/>
<line x1="23.509" y1="185.189" x2="85.776" y2="185.189" stroke="#141414" stroke-width="0.4"/>
<line x1="85.776" y1="185.189" x2="99.119" y2="178.189" stroke="#141414" stroke-width="0.4"/>
<line x1="188.072" y1="89.236" x2="195.072" y2="77.375" stroke="#141414" stroke-width="0.4"/>
<line x1="195.072" y1="77.375" x2="195.072" y2="22.026" stroke="#141414" stroke-width="0.4"/>
<line x1="195.072" y1="22.026" x2="188.072" y2="10.166" stroke="#141414" stroke-width="0.4"/>
<circle cx="6.666" cy="49.701" r="3.08" fill="#ffe082" stroke="#464646" stroke-width="0.2"/>
<text x="6.666" y="51.16" font-size="4.18" text-anchor="middle" fill="#141414">1</text>
<circle cx="54.643" cy="6.666" r="3.08" fill="#ffe082" stroke="#464646" stroke-width="0.2"/>
<text x="54.643" y="8.13" font-size="4.18" text-anchor="middle" fill="#141414">2</text>
<circle cx="102.619" cy="133.712" r="3.08" fill="#ffe082" stroke="#464646" stroke-width="0.2"/>
<text x="102.619" y="135.17" font-size="4.18" text-anchor="middle" fill="#141414">3</text>
<circle cx="54.643" cy="181.689" r="3.08" fill="#ffe082" stroke="#464646" stroke-width="0.2"/>
<text x="54.643" y="183.15" font-size="4.18" text-anchor="middle" fill="#141414">4</text>
<circle cx="191.572" cy="49.701" r="3.08" fill="#ffe082" stroke="#464646" stroke-width="0.2"/>
<text x="191.572" y="51.16" font-size="4.18" text-anchor="middle" fill="#141414">5</text>
<circle cx="100.953" cy="193.123" r="4.6" fill="#eaf1fe" stroke="#2e78e6" stroke-width="0.3"/>
<text x="100.953" y="194.923" font-size="5.2" text-anchor="middle" fill="#14306e" font-weight="bold">1</text>
</svg>
