<svg xmlns="http://www.w3.org/2000/svg" xmlns:xlink="http://www.w3.org/1999/xlink" width="210.00mm" height="297.00mm" viewBox="0 0 210.00 297.00">
<rect x="0" y="0" width="210.00" height="297.00" fill="#ffffff" stroke="#cccccc" stroke-width="0.2"/>
<polygon points="38.783,141.494 33.062,152.201 29.685,153.896 17.68,152.092" fill="rgb(216,216,216)"/>
<polygon points="38.783,165.109 38.136,164.953 28.146,165.092 28.074,162.541" fill="rgb(216,216,216)"/>
<polygon points="40.267,177.128 38.837,199.658 42.35,214.309 52.815,229.454" fill="rgb(216,216,216)"/>
<polygon points="52.815,229.454 47.741,233.226 50.631,241.196 56.943,240.839" fill="rgb(216,216,216)"/>
<polygon points="39.584,242.982 37.989,248.506 30.28,248.585 28.572,243.095" fill="rgb(216,216,216)"/>
<polygon points="67.653,261.886 57.698,254.939 53.92,254.958 44.039,262.011" fill="rgb(216,216,216)"/>
<polygon points="49.493,162.541 50.0,162.108 58.966,157.701 57.873,155.394" fill="rgb(216,216,216)"/>
<polygon points="53.622,173.926 65.114,193.357 68.627,208.008 66.169,226.251" fill="rgb(216,216,216)"/>
<polygon points="66.169,226.251 72.402,227.312 73.441,235.726 67.653,238.271" fill="rgb(216,216,216)"/>
<polygon points="84.096,232.308 88.023,236.507 94.93,233.082 93.963,227.415" fill="rgb(216,216,216)"/>
<polygon points="57.873,155.394 64.671,153.311 65.855,150.464 62.102,145.225" fill="rgb(216,216,216)"/>
<polygon points="65.925,167.824 81.464,184.2 88.158,197.697 89.834,216.029" fill="rgb(216,216,216)"/>
<polygon points="89.834,216.029 96.146,215.673 99.036,223.642 93.963,227.415" fill="rgb(216,216,216)"/>
<polygon points="108.66,217.932 113.425,221.149 119.393,216.269 117.186,210.96" fill="rgb(216,216,216)"/>
<polygon points="62.102,145.225 67.465,143.156 66.875,135.469 61.258,134.244" fill="rgb(216,216,216)"/>
<polygon points="76.556,159.13 95.358,171.625 104.895,183.288 110.62,200.784" fill="rgb(216,216,216)"/>
<polygon points="110.62,200.784 116.693,199.027 121.29,206.151 117.186,210.96" fill="rgb(216,216,216)"/>
<polygon points="129.397,198.437 134.759,200.51 139.487,194.421 136.151,189.738" fill="rgb(216,216,216)"/>
<polygon points="61.258,134.244 65.1,129.968 61.087,123.385 55.526,124.84" fill="rgb(216,216,216)"/>
<polygon points="84.979,148.283 106.095,156.267 117.995,165.507 127.48,181.284" fill="rgb(216,216,216)"/>
<polygon points="127.48,181.284 133.008,178.216 139.078,184.135 136.151,189.738" fill="rgb(216,216,216)"/>
<polygon points="145.259,174.806 150.949,175.629 154.199,168.639 149.902,164.819" fill="rgb(216,216,216)"/>
<polygon points="55.526,124.84 57.01,119.286 50.449,115.239 46.152,119.058" fill="rgb(216,216,216)"/>
<polygon points="90.768,135.829 113.133,138.899 126.796,145.251 139.562,158.513" fill="rgb(216,216,216)"/>
<polygon points="139.562,158.513 144.267,154.289 151.504,158.703 149.902,164.819" fill="rgb(216,216,216)"/>
<polygon points="155.448,148.231 161.178,147.763 162.785,140.223 157.744,137.459" fill="rgb(216,216,216)"/>
<polygon points="46.152,119.058 44.957,113.435 37.273,112.803 35.176,118.156" fill="rgb(216,216,216)"/>
<polygon points="93.633,122.398 116.119,120.399 130.854,123.541 146.258,133.619" fill="rgb(216,216,216)"/>
<polygon points="146.258,133.619 149.901,128.452 157.941,131.14 157.744,137.459" fill="rgb(216,216,216)"/>
<polygon points="159.448,120.052 164.929,118.317 164.814,110.609 159.283,109.04" fill="rgb(216,216,216)"/>
<polygon points="35.176,118.156 31.56,113.687 24.426,116.609 24.984,122.33" fill="rgb(216,216,216)"/>
<polygon points="93.427,108.666 114.9,101.699 129.965,101.474 147.23,107.86" fill="rgb(216,216,216)"/>
<polygon points="147.23,107.86 149.627,102.01 158.065,102.836 159.283,109.04" fill="rgb(216,216,216)"/>
<polygon points="157.059,91.691 162.015,88.777 160.182,81.289 154.44,80.993" fill="rgb(216,216,216)"/>
<polygon points="24.984,122.33 19.734,119.987 14.701,125.826 17.794,130.673" fill="rgb(216,216,216)"/>
<polygon points="90.162,95.326 109.539,83.743 124.173,80.161 142.428,82.533" fill="rgb(216,216,216)"/>
<polygon points="142.428,82.533 143.46,76.296 151.869,75.218 154.44,80.993" fill="rgb(216,216,216)"/>
<polygon points="148.4,64.578 152.581,60.632 149.124,53.741 143.461,54.735" fill="rgb(216,216,216)"/>
<polygon points="17.794,130.673 12.052,130.965 10.215,138.452 15.169,141.369" fill="rgb(216,216,216)"/>
<polygon points="84.002,83.051 100.305,67.436 113.771,60.679 132.095,58.917" fill="rgb(216,216,216)"/>
<polygon points="132.095,58.917 131.709,52.606 139.665,49.679 143.461,54.735" fill="rgb(216,216,216)"/>
<polygon points="133.91,40.082 137.104,35.302 132.196,29.357 126.898,31.589" fill="rgb(216,216,216)"/>
<polygon points="15.169,141.369 10.184,144.233 11.942,151.739 17.68,152.092" fill="rgb(216,216,216)"/>
<polygon points="75.258,72.461 87.665,53.602 99.283,44.009 116.752,38.202" fill="rgb(216,216,216)"/>
<polygon points="116.752,38.202 114.967,32.137 122.069,27.508 126.898,31.589" fill="rgb(216,216,216)"/>
<polygon points="114.318,19.437 116.365,14.065 110.254,9.365 105.587,12.723" fill="rgb(216,216,216)"/>
<polygon points="58.114,74.458 53.868,69.774 58.249,62.516 64.372,64.09" fill="rgb(216,216,216)"/>
<polygon points="64.372,64.09 63.743,53.424 86.704,23.565 97.173,21.434" fill="rgb(216,216,216)"/>
<polygon points="97.173,21.434 94.079,15.921 99.97,9.823 105.587,12.723" fill="rgb(216,216,216)"/>
<polygon points="84.002,83.051 100.305,67.436 113.771,60.679 132.095,58.917" fill="#99d9fa"/>
<line x1="38.783" y1="165.109" x2="38.783" y2="141.494" stroke="#8c8c8c" stroke-width="0.3" stroke-dasharray="1.2,0.8"/>
<line x1="38.783" y1="141.494" x2="49.493" y2="162.541" stroke="#8c8c8c" stroke-width="0.3" stroke-dasharray="1.2,0.8"/>
<line x1="38.783" y1="141.494" x2="57.873" y2="155.394" stroke="#8c8c8c" stroke-width="0.3" stroke-dasharray="1.2,0.8"/>
<line x1="38.783" y1="141.494" x2="62.102" y2="145.225" stroke="#8c8c8c" stroke-width="0.3" stroke-dasharray="1.2,0.8"/>
<line x1="38.783" y1="141.494" x2="61.258" y2="134.244" stroke="#8c8c8c" stroke-width="0.3" stroke-dasharray="1.2,0.8"/>
<line x1="38.783" y1="141.494" x2="55.526" y2="124.84" stroke="#8c8c8c" stroke-width="0.3" stroke-dasharray="1.2,0.8"/>
<line x1="38.783" y1="141.494" x2="46.152" y2="119.058" stroke="#8c8c8c" stroke-width="0.3" stroke-dasharray="1.2,0.8"/>
<line x1="38.783" y1="141.494" x2="35.176" y2="118.156" stroke="#8c8c8c" stroke-width="0.3" stroke-dasharray="1.2,0.8"/>
<line x1="38.783" y1="141.494" x2="24.984" y2="122.331" stroke="#8c8c8c" stroke-width="0.3" stroke-dasharray="1.2,0.8"/>
<line x1="38.783" y1="141.494" x2="17.794" y2="130.673" stroke="#8c8c8c" stroke-width="0.3" stroke-dasharray="1.2,0.8"/>
<line x1="38.783" y1="141.494" x2="15.169" y2="141.369" stroke="#8c8c8c" stroke-width="0.3" stroke-dasharray="1.2,0.8"/>
<line x1="40.267" y1="177.128" x2="38.783" y2="165.109" stroke="#8c8c8c" stroke-width="0.3" stroke-dasharray="1.2,0.8"/>
<line x1="49.493" y1="162.541" x2="38.783" y2="165.109" stroke="#8c8c8c" stroke-width="0.3" stroke-dasharray="1.2,0.8"/>
<line x1="53.622" y1="173.926" x2="40.267" y2="177.128" stroke="#8c8c8c" stroke-width="0.3" stroke-dasharray="1.2,0.8"/>
<line x1="40.267" y1="177.128" x2="26.534" y2="177.27" stroke="#8c8c8c" stroke-width="0.3" stroke-dasharray="1.2,0.8"/>
<line x1="66.169" y1="226.251" x2="52.815" y2="229.454" stroke="#8c8c8c" stroke-width="0.3" stroke-dasharray="1.2,0.8"/>
<line x1="40.821" y1="230.934" x2="27.088" y2="231.076" stroke="#8c8c8c" stroke-width="0.3" stroke-dasharray="1.2,0.8"/>
<line x1="67.653" y1="261.886" x2="56.943" y2="240.839" stroke="#8c8c8c" stroke-width="0.3" stroke-dasharray="1.2,0.8"/>
<line x1="67.653" y1="238.271" x2="56.943" y2="240.839" stroke="#8c8c8c" stroke-width="0.3" stroke-dasharray="1.2,0.8"/>
<line x1="67.653" y1="238.271" x2="67.653" y2="261.886" stroke="#8c8c8c" stroke-width="0.3" stroke-dasharray="1.2,0.8"/>
<line x1="78.363" y1="240.839" x2="67.653" y2="261.886" stroke="#8c8c8c" stroke-width="0.3" stroke-dasharray="1.2,0.8"/>
<line x1="86.743" y1="247.985" x2="67.653" y2="261.886" stroke="#8c8c8c" stroke-width="0.3" stroke-dasharray="1.2,0.8"/>
<line x1="90.971" y1="258.155" x2="67.653" y2="261.886" stroke="#8c8c8c" stroke-width="0.3" stroke-dasharray="1.2,0.8"/>
<line x1="90.128" y1="269.136" x2="67.653" y2="261.886" stroke="#8c8c8c" stroke-width="0.3" stroke-dasharray="1.2,0.8"/>
<line x1="84.396" y1="278.54" x2="67.653" y2="261.886" stroke="#8c8c8c" stroke-width="0.3" stroke-dasharray="1.2,0.8"/>
<line x1="75.022" y1="284.322" x2="67.653" y2="261.886" stroke="#8c8c8c" stroke-width="0.3" stroke-dasharray="1.2,0.8"/>
<line x1="64.046" y1="285.223" x2="67.653" y2="261.886" stroke="#8c8c8c" stroke-width="0.3" stroke-dasharray="1.2,0.8"/>
<line x1="53.854" y1="281.049" x2="67.653" y2="261.886" stroke="#8c8c8c" stroke-width="0.3" stroke-dasharray="1.2,0.8"/>
<line x1="46.664" y1="272.707" x2="67.653" y2="261.886" stroke="#8c8c8c" stroke-width="0.3" stroke-dasharray="1.2,0.8"/>
<line x1="49.493" y1="162.541" x2="53.622" y2="173.926" stroke="#8c8c8c" stroke-width="0.3" stroke-dasharray="1.2,0.8"/>
<line x1="65.925" y1="167.824" x2="53.622" y2="173.926" stroke="#8c8c8c" stroke-width="0.3" stroke-dasharray="1.2,0.8"/>
<line x1="89.834" y1="216.029" x2="77.531" y2="222.131" stroke="#8c8c8c" stroke-width="0.3" stroke-dasharray="1.2,0.8"/>
<line x1="59.359" y1="157.647" x2="65.925" y2="167.824" stroke="#8c8c8c" stroke-width="0.3" stroke-dasharray="1.2,0.8"/>
<line x1="76.556" y1="159.13" x2="65.925" y2="167.824" stroke="#8c8c8c" stroke-width="0.3" stroke-dasharray="1.2,0.8"/>
<line x1="110.62" y1="200.783" x2="99.989" y2="209.478" stroke="#8c8c8c" stroke-width="0.3" stroke-dasharray="1.2,0.8"/>
<line x1="67.885" y1="150.675" x2="76.556" y2="159.13" stroke="#8c8c8c" stroke-width="0.3" stroke-dasharray="1.2,0.8"/>
<line x1="84.979" y1="148.282" x2="76.556" y2="159.13" stroke="#8c8c8c" stroke-width="0.3" stroke-dasharray="1.2,0.8"/>
<line x1="127.48" y1="181.283" x2="119.057" y2="192.131" stroke="#8c8c8c" stroke-width="0.3" stroke-dasharray="1.2,0.8"/>
<line x1="74.64" y1="141.976" x2="84.979" y2="148.282" stroke="#8c8c8c" stroke-width="0.3" stroke-dasharray="1.2,0.8"/>
<line x1="90.769" y1="135.829" x2="84.979" y2="148.282" stroke="#8c8c8c" stroke-width="0.3" stroke-dasharray="1.2,0.8"/>
<line x1="139.562" y1="158.513" x2="133.773" y2="170.966" stroke="#8c8c8c" stroke-width="0.3" stroke-dasharray="1.2,0.8"/>
<line x1="79.282" y1="131.989" x2="90.769" y2="135.829" stroke="#8c8c8c" stroke-width="0.3" stroke-dasharray="1.2,0.8"/>
<line x1="93.633" y1="122.397" x2="90.769" y2="135.829" stroke="#8c8c8c" stroke-width="0.3" stroke-dasharray="1.2,0.8"/>
<line x1="146.258" y1="133.619" x2="143.394" y2="147.051" stroke="#8c8c8c" stroke-width="0.3" stroke-dasharray="1.2,0.8"/>
<line x1="81.579" y1="121.218" x2="93.633" y2="122.397" stroke="#8c8c8c" stroke-width="0.3" stroke-dasharray="1.2,0.8"/>
<line x1="93.427" y1="108.666" x2="93.633" y2="122.397" stroke="#8c8c8c" stroke-width="0.3" stroke-dasharray="1.2,0.8"/>
<line x1="147.23" y1="107.86" x2="147.435" y2="121.592" stroke="#8c8c8c" stroke-width="0.3" stroke-dasharray="1.2,0.8"/>
<line x1="81.414" y1="110.206" x2="93.427" y2="108.666" stroke="#8c8c8c" stroke-width="0.3" stroke-dasharray="1.2,0.8"/>
<line x1="90.162" y1="95.326" x2="93.427" y2="108.666" stroke="#8c8c8c" stroke-width="0.3" stroke-dasharray="1.2,0.8"/>
<line x1="142.428" y1="82.533" x2="145.693" y2="95.873" stroke="#8c8c8c" stroke-width="0.3" stroke-dasharray="1.2,0.8"/>
<line x1="78.796" y1="99.508" x2="90.162" y2="95.326" stroke="#8c8c8c" stroke-width="0.3" stroke-dasharray="1.2,0.8"/>
<line x1="84.002" y1="83.051" x2="90.162" y2="95.326" stroke="#8c8c8c" stroke-width="0.3" stroke-dasharray="1.2,0.8"/>
<line x1="132.095" y1="58.917" x2="138.255" y2="71.191" stroke="#8c8c8c" stroke-width="0.3" stroke-dasharray="1.2,0.8"/>
<line x1="73.856" y1="89.665" x2="84.002" y2="83.051" stroke="#8c8c8c" stroke-width="0.3" stroke-dasharray="1.2,0.8"/>
<line x1="75.258" y1="72.461" x2="84.002" y2="83.051" stroke="#8c8c8c" stroke-width="0.3" stroke-dasharray="1.2,0.8"/>
<line x1="116.752" y1="38.202" x2="125.496" y2="48.792" stroke="#8c8c8c" stroke-width="0.3" stroke-dasharray="1.2,0.8"/>
<line x1="66.844" y1="81.172" x2="75.258" y2="72.461" stroke="#8c8c8c" stroke-width="0.3" stroke-dasharray="1.2,0.8"/>
<line x1="64.372" y1="64.09" x2="75.258" y2="72.461" stroke="#8c8c8c" stroke-width="0.3" stroke-dasharray="1.2,0.8"/>
<line x1="97.173" y1="21.434" x2="108.059" y2="29.806" stroke="#8c8c8c" stroke-width="0.3" stroke-dasharray="1.2,0.8"/>
<line x1="17.68" y1="152.092" x2="38.783" y2="141.494" stroke="#8c8c8c" stroke-width="0.3" stroke-dasharray="1.2,0.8"/>
<line x1="28.074" y1="162.541" x2="38.783" y2="165.109" stroke="#8c8c8c" stroke-width="0.3" stroke-dasharray="1.2,0.8"/>
<line x1="52.815" y1="229.454" x2="40.267" y2="177.128" stroke="#8c8c8c" stroke-width="0.3" stroke-dasharray="1.2,0.8"/>
<line x1="56.943" y1="240.839" x2="52.815" y2="229.454" stroke="#8c8c8c" stroke-width="0.3" stroke-dasharray="1.2,0.8"/>
<line x1="28.572" y1="243.095" x2="39.584" y2="242.982" stroke="#8c8c8c" stroke-width="0.3" stroke-dasharray="1.2,0.8"/>
<line x1="44.039" y1="262.011" x2="67.653" y2="261.886" stroke="#8c8c8c" stroke-width="0.3" stroke-dasharray="1.2,0.8"/>
<line x1="57.873" y1="155.394" x2="49.493" y2="162.541" stroke="#8c8c8c" stroke-width="0.3" stroke-dasharray="1.2,0.8"/>
<line x1="66.169" y1="226.251" x2="53.622" y2="173.926" stroke="#8c8c8c" stroke-width="0.3" stroke-dasharray="1.2,0.8"/>
<line x1="67.653" y1="238.271" x2="66.169" y2="226.251" stroke="#8c8c8c" stroke-width="0.3" stroke-dasharray="1.2,0.8"/>
<line x1="93.963" y1="227.415" x2="84.096" y2="232.308" stroke="#8c8c8c" stroke-width="0.3" stroke-dasharray="1.2,0.8"/>
<line x1="62.102" y1="145.225" x2="57.873" y2="155.394" stroke="#8c8c8c" stroke-width="0.3" stroke-dasharray="1.2,0.8"/>
<line x1="89.834" y1="216.029" x2="65.925" y2="167.824" stroke="#8c8c8c" stroke-width="0.3" stroke-dasharray="1.2,0.8"/>
<line x1="93.963" y1="227.415" x2="89.834" y2="216.029" stroke="#8c8c8c" stroke-width="0.3" stroke-dasharray="1.2,0.8"/>
<line x1="117.186" y1="210.96" x2="108.66" y2="217.932" stroke="#8c8c8c" stroke-width="0.3" stroke-dasharray="1.2,0.8"/>
<line x1="61.258" y1="134.244" x2="62.102" y2="145.225" stroke="#8c8c8c" stroke-width="0.3" stroke-dasharray="1.2,0.8"/>
<line x1="110.62" y1="200.784" x2="76.556" y2="159.13" stroke="#8c8c8c" stroke-width="0.3" stroke-dasharray="1.2,0.8"/>
<line x1="117.186" y1="210.96" x2="110.62" y2="200.784" stroke="#8c8c8c" stroke-width="0.3" stroke-dasharray="1.2,0.8"/>
<line x1="136.151" y1="189.738" x2="129.397" y2="198.437" stroke="#8c8c8c" stroke-width="0.3" stroke-dasharray="1.2,0.8"/>
<line x1="55.526" y1="124.84" x2="61.258" y2="134.244" stroke="#8c8c8c" stroke-width="0.3" stroke-dasharray="1.2,0.8"/>
<line x1="127.48" y1="181.284" x2="84.979" y2="148.283" stroke="#8c8c8c" stroke-width="0.3" stroke-dasharray="1.2,0.8"/>
<line x1="136.151" y1="189.738" x2="127.48" y2="181.284" stroke="#8c8c8c" stroke-width="0.3" stroke-dasharray="1.2,0.8"/>
<line x1="149.902" y1="164.819" x2="145.259" y2="174.806" stroke="#8c8c8c" stroke-width="0.3" stroke-dasharray="1.2,0.8"/>
<line x1="46.152" y1="119.058" x2="55.526" y2="124.84" stroke="#8c8c8c" stroke-width="0.3" stroke-dasharray="1.2,0.8"/>
<line x1="139.562" y1="158.513" x2="90.768" y2="135.829" stroke="#8c8c8c" stroke-width="0.3" stroke-dasharray="1.2,0.8"/>
<line x1="149.902" y1="164.819" x2="139.562" y2="158.513" stroke="#8c8c8c" stroke-width="0.3" stroke-dasharray="1.2,0.8"/>
<line x1="157.744" y1="137.459" x2="155.448" y2="148.231" stroke="#8c8c8c" stroke-width="0.3" stroke-dasharray="1.2,0.8"/>
<line x1="35.176" y1="118.156" x2="46.152" y2="119.058" stroke="#8c8c8c" stroke-width="0.3" stroke-dasharray="1.2,0.8"/>
<line x1="146.258" y1="133.619" x2="93.633" y2="122.398" stroke="#8c8c8c" stroke-width="0.3" stroke-dasharray="1.2,0.8"/>
<line x1="157.744" y1="137.459" x2="146.258" y2="133.619" stroke="#8c8c8c" stroke-width="0.3" stroke-dasharray="1.2,0.8"/>
<line x1="159.283" y1="109.04" x2="159.448" y2="120.052" stroke="#8c8c8c" stroke-width="0.3" stroke-dasharray="1.2,0.8"/>
<line x1="24.984" y1="122.33" x2="35.176" y2="118.156" stroke="#8c8c8c" stroke-width="0.3" stroke-dasharray="1.2,0.8"/>
<line x1="147.23" y1="107.86" x2="93.427" y2="108.666" stroke="#8c8c8c" stroke-width="0.3" stroke-dasharray="1.2,0.8"/>
<line x1="159.283" y1="109.04" x2="147.23" y2="107.86" stroke="#8c8c8c" stroke-width="0.3" stroke-dasharray="1.2,0.8"/>
<line x1="154.44" y1="80.993" x2="157.059" y2="91.691" stroke="#8c8c8c" stroke-width="0.3" stroke-dasharray="1.2,0.8"/>
<line x1="17.794" y1="130.673" x2="24.984" y2="122.33" stroke="#8c8c8c" stroke-width="0.3" stroke-dasharray="1.2,0.8"/>
<line x1="142.428" y1="82.533" x2="90.162" y2="95.326" stroke="#8c8c8c" stroke-width="0.3" stroke-dasharray="1.2,0.8"/>
<line x1="154.44" y1="80.993" x2="142.428" y2="82.533" stroke="#8c8c8c" stroke-width="0.3" stroke-dasharray="1.2,0.8"/>
<line x1="143.461" y1="54.735" x2="148.4" y2="64.578" stroke="#8c8c8c" stroke-width="0.3" stroke-dasharray="1.2,0.8"/>
<line x1="15.169" y1="141.369" x2="17.794" y2="130.673" stroke="#8c8c8c" stroke-width="0.3" stroke-dasharray="1.2,0.8"/>
<line x1="132.095" y1="58.917" x2="84.002" y2="83.051" stroke="#8c8c8c" stroke-width="0.3" stroke-dasharray="1.2,0.8"/>
<line x1="143.461" y1="54.735" x2="132.095" y2="58.917" stroke="#8c8c8c" stroke-width="0.3" stroke-dasharray="1.2,0.8"/>
<line x1="126.898" y1="31.589" x2="133.91" y2="40.082" stroke="#8c8c8c" stroke-width="0.3" stroke-dasharray="1.2,0.8"/>
<line x1="17.68" y1="152.092" x2="15.169" y2="141.369" stroke="#8c8c8c" stroke-width="0.3" stroke-dasharray="1.2,0.8"/>
<line x1="116.752" y1="38.202" x2="75.258" y2="72.461" stroke="#8c8c8c" stroke-width="0.3" stroke-dasharray="1.2,0.8"/>
<line x1="126.898" y1="31.589" x2="116.752" y2="38.202" stroke="#8c8c8c" stroke-width="0.3" stroke-dasharray="1.2,0.8"/>
<line x1="105.587" y1="12.723" x2="114.318" y2="19.437" stroke="#8c8c8c" stroke-width="0.3" stroke-dasharray="1.2,0.8"/>
<line x1="64.372" y1="64.09" x2="58.114" y2="74.458" stroke="#8c8c8c" stroke-width="0.3" stroke-dasharray="1.2,0.8"/>
<line x1="97.173" y1="21.434" x2="64.372" y2="64.09" stroke="#8c8c8c" stroke-width="0.3" stroke-dasharray="1.2,0.8"/>
<line x1="105.587" y1="12.723" x2="97.173" y2="21.434" stroke="#8c8c8c" stroke-width="0.3" stroke-dasharray="1.2,0.8"/>
<line x1="28.074" y1="162.541" x2="38.783" y2="141.494" stroke="#141414" stroke-width="0.4"/>
<line x1="27.771" y1="165.222" x2="38.783" y2="165.109" stroke="#141414" stroke-width="0.4"/>
<line x1="40.267" y1="177.128" x2="40.821" y2="230.934" stroke="#141414" stroke-width="0.4"/>
<line x1="40.821" y1="230.934" x2="39.584" y2="242.982" stroke="#141414" stroke-width="0.4"/>
<line x1="48.563" y1="247.985" x2="56.943" y2="240.839" stroke="#141414" stroke-width="0.4"/>
<line x1="67.653" y1="261.886" x2="48.563" y2="247.985" stroke="#141414" stroke-width="0.4"/>
<line x1="49.493" y1="162.541" x2="59.359" y2="157.647" stroke="#141414" stroke-width="0.4"/>
<line x1="77.531" y1="222.131" x2="53.622" y2="173.926" stroke="#141414" stroke-width="0.4"/>
<line x1="84.096" y1="232.308" x2="77.531" y2="222.131" stroke="#141414" stroke-width="0.4"/>
<line x1="67.653" y1="238.271" x2="78.363" y2="240.839" stroke="#141414" stroke-width="0.4"/>
<line x1="59.359" y1="157.647" x2="67.885" y2="150.675" stroke="#141414" stroke-width="0.4"/>
<line x1="99.989" y1="209.478" x2="65.925" y2="167.824" stroke="#141414" stroke-width="0.4"/>
<line x1="108.66" y1="217.933" x2="99.989" y2="209.478" stroke="#141414" stroke-width="0.4"/>
<line x1="78.363" y1="240.839" x2="86.743" y2="247.985" stroke="#141414" stroke-width="0.4"/>
<line x1="67.885" y1="150.675" x2="74.64" y2="141.976" stroke="#141414" stroke-width="0.4"/>
<line x1="119.057" y1="192.131" x2="76.556" y2="159.13" stroke="#141414" stroke-width="0.4"/>
<line x1="129.397" y1="198.437" x2="119.057" y2="192.131" stroke="#141414" stroke-width="0.4"/>
<line x1="86.743" y1="247.985" x2="90.971" y2="258.155" stroke="#141414" stroke-width="0.4"/>
<line x1="74.64" y1="141.976" x2="79.282" y2="131.989" stroke="#141414" stroke-width="0.4"/>
<line x1="133.773" y1="170.966" x2="84.979" y2="148.282" stroke="#141414" stroke-width="0.4"/>
<line x1="145.259" y1="174.806" x2="133.773" y2="170.966" stroke="#141414" stroke-width="0.4"/>
<line x1="90.971" y1="258.155" x2="90.128" y2="269.136" stroke="#141414" stroke-width="0.4"/>
<line x1="79.282" y1="131.989" x2="81.579" y2="121.218" stroke="#141414" stroke-width="0.4"/>
<line x1="143.394" y1="147.051" x2="90.769" y2="135.829" stroke="#141414" stroke-width="0.4"/>
<line x1="155.448" y1="148.231" x2="143.394" y2="147.051" stroke="#141414" stroke-width="0.4"/>
<line x1="90.128" y1="269.136" x2="84.396" y2="278.54" stroke="#141414" stroke-width="0.4"/>
<line x1="81.579" y1="121.218" x2="81.414" y2="110.206" stroke="#141414" stroke-width="0.4"/>
<line x1="147.435" y1="121.592" x2="93.633" y2="122.397" stroke="#141414" stroke-width="0.4"/>
<line x1="159.448" y1="120.052" x2="147.435" y2="121.592" stroke="#141414" stroke-width="0.4"/>
<line x1="84.396" y1="278.54" x2="75.022" y2="284.322" stroke="#141414" stroke-width="0.4"/>
<line x1="81.414" y1="110.206" x2="78.796" y2="99.508" stroke="#141414" stroke-width="0.4"/>
<line x1="145.693" y1="95.873" x2="93.427" y2="108.666" stroke="#141414" stroke-width="0.4"/>
<line x1="157.059" y1="91.691" x2="145.693" y2="95.873" stroke="#141414" stroke-width="0.4"/>
<line x1="75.022" y1="284.322" x2="64.046" y2="285.223" stroke="#141414" stroke-width="0.4"/>
<line x1="78.796" y1="99.508" x2="73.856" y2="89.665" stroke="#141414" stroke-width="0.4"/>
<line x1="138.255" y1="71.191" x2="90.162" y2="95.326" stroke="#141414" stroke-width="0.4"/>
<line x1="148.4" y1="64.578" x2="138.255" y2="71.191" stroke="#141414" stroke-width="0.4"/>
<line x1="64.046" y1="285.223" x2="53.854" y2="281.049" stroke="#141414" stroke-width="0.4"/>
<line x1="73.856" y1="89.665" x2="66.844" y2="81.172" stroke="#141414" stroke-width="0.4"/>
<line x1="125.496" y1="48.792" x2="84.002" y2="83.051" stroke="#141414" stroke-width="0.4"/>
<line x1="133.91" y1="40.082" x2="125.496" y2="48.792" stroke="#141414" stroke-width="0.4"/>
<line x1="53.854" y1="281.049" x2="46.664" y2="272.707" stroke="#141414" stroke-width="0.4"/>
<line x1="66.844" y1="81.172" x2="58.114" y2="74.458" stroke="#141414" stroke-width="0.4"/>
<line x1="108.059" y1="29.806" x2="75.258" y2="72.461" stroke="#141414" stroke-width="0.4"/>
<line x1="114.317" y1="19.437" x2="108.059" y2="29.806" stroke="#141414" stroke-width="0.4"/>
<line x1="46.664" y1="272.707" x2="44.039" y2="262.011" stroke="#141414" stroke-width="0.4"/>
<line x1="26.534" y1="177.27" x2="27.771" y2="165.222" stroke="#141414" stroke-width="0.4"/>
<line x1="27.088" y1="231.076" x2="26.534" y2="177.27" stroke="#141414" stroke-width="0.4"/>
<line x1="28.572" y1="243.095" x2="27.088" y2="231.076" stroke="#141414" stroke-width="0.4"/>
<line x1="38.783" y1="141.494" x2="33.062" y2="152.201" stroke="#141414" stroke-width="0.4"/>
<line x1="33.062" y1="152.201" x2="29.685" y2="153.896" stroke="#141414" stroke-width="0.4"/>
<line x1="29.685" y1="153.896" x2="17.68" y2="152.092" stroke="#141414" stroke-width="0.4"/>
<line x1="38.783" y1="165.109" x2="38.136" y2="164.953" stroke="#141414" stroke-width="0.4"/>
<line x1="38.136" y1="164.953" x2="28.146" y2="165.092" stroke="#141414" stroke-width="0.4"/>
<line x1="28.146" y1="165.092" x2="28.074" y2="162.541" stroke="#141414" stroke-width="0.4"/>
<line x1="40.267" y1="177.128" x2="38.837" y2="199.658" stroke="#141414" stroke-width="0.4"/>
<line x1="38.837" y1="199.658" x2="42.35" y2="214.309" stroke="#141414" stroke-width="0.4"/>
<line x1="42.35" y1="214.309" x2="52.815" y2="229.454" stroke="#141414" stroke-width="0.4"/>
<line x1="52.815" y1="229.454" x2="47.741" y2="233.226" stroke="#141414" stroke-width="0.4"/>
<line x1="47.741" y1="233.226" x2="50.631" y2="241.196" stroke="#141414" stroke-width="0.4"/>
<line x1="50.631" y1="241.196" x2="56.943" y2="240.839" stroke="#141414" stroke-width="0.4"/>
<line x1="39.584" y1="242.982" x2="37.989" y2="248.506" stroke="#141414" stroke-width="0.4"/>
<line x1="37.989" y1="248.506" x2="30.28" y2="248.585" stroke="#141414" stroke-width="0.4"/>
<line x1="30.28" y1="248.585" x2="28.572" y2="243.095" stroke="#141414" stroke-width="0.4"/>
<line x1="67.653" y1="261.886" x2="57.698" y2="254.939" stroke="#141414" stroke-width="0.4"/>
<line x1="57.698" y1="254.939" x2="53.92" y2="254.958" stroke="#141414" stroke-width="0.4"/>
<line x1="53.92" y1="254.958" x2="44.039" y2="262.011" stroke="#141414" stroke-width="0.4"/>
<line x1="49.493" y1="162.541" x2="50.0" y2="162.108" stroke="#141414" stroke-width="0.4"/>
<line x1="50.0" y1="162.108" x2="58.966" y2="157.701" stroke="#141414" stroke-width="0.4"/>
<line x1="58.966" y1="157.701" x2="57.873" y2="155.394" stroke="#141414" stroke-width="0.4"/>
<line x1="53.622" y1="173.926" x2="65.114" y2="193.357" stroke="#141414" stroke-width="0.4"/>
<line x1="65.114" y1="193.357" x2="68.627" y2="208.008" stroke="#141414" stroke-width="0.4"/>
<line x1="68.627" y1="208.008" x2="66.169" y2="226.251" stroke="#141414" stroke-width="0.4"/>
<line x1="66.169" y1="226.251" x2="72.402" y2="227.312" stroke="#141414" stroke-width="0.4"/>
<line x1="72.402" y1="227.312" x2="73.441" y2="235.726" stroke="#141414" stroke-width="0.4"/>
<line x1="73.441" y1="235.726" x2="67.653" y2="238.271" stroke="#141414" stroke-width="0.4"/>
<line x1="84.096" y1="232.308" x2="88.023" y2="236.507" stroke="#141414" stroke-width="0.4"/>
<line x1="88.023" y1="236.507" x2="94.93" y2="233.082" stroke="#141414" stroke-width="0.4"/>
<line x1="94.93" y1="233.082" x2="93.963" y2="227.415" stroke="#141414" stroke-width="0.4"/>
<line x1="57.873" y1="155.394" x2="64.671" y2="153.311" stroke="#141414" stroke-width="0.4"/>
<line x1="64.671" y1="153.311" x2="65.855" y2="150.464" stroke="#141414" stroke-width="0.4"/>
<line x1="65.855" y1="150.464" x2="62.102" y2="145.225" stroke="#141414" stroke-width="0.4"/>
<line x1="65.925" y1="167.824" x2="81.464" y2="184.2" stroke="#141414" stroke-width="0.4"/>
<line x1="81.464" y1="184.2" x2="88.158" y2="197.697" stroke="#141414" stroke-width="0.4"/>
<line x1="88.158" y1="197.697" x2="89.834" y2="216.029" stroke="#141414" stroke-width="0.4"/>
<line x1="89.834" y1="216.029" x2="96.146" y2="215.673" stroke="#141414" stroke-width="0.4"/>
<line x1="96.146" y1="215.673" x2="99.036" y2="223.642" stroke="#141414" stroke-width="0.4"/>
<line x1="99.036" y1="223.642" x2="93.963" y2="227.415" stroke="#141414" stroke-width="0.4"/>
<line x1="108.66" y1="217.932" x2="113.425" y2="221.149" stroke="#141414" stroke-width="0.4"/>
<line x1="113.425" y1="221.149" x2="119.393" y2="216.269" stroke="#141414" stroke-width="0.4"/>
<line x1="119.393" y1="216.269" x2="117.186" y2="210.96" stroke="#141414" stroke-width="0.4"/>
<line x1="62.102" y1="145.225" x2="67.465" y2="143.156" stroke="#141414" stroke-width="0.4"/>
<line x1="67.465" y1="143.156" x2="66.875" y2="135.469" stroke="#141414" stroke-width="0.4"/>
<line x1="66.875" y1="135.469" x2="61.258" y2="134.244" stroke="#141414" stroke-width="0.4"/>
<line x1="76.556" y1="159.13" x2="95.358" y2="171.625" stroke="#141414" stroke-width="0.4"/>
<line x1="95.358" y1="171.625" x2="104.895" y2="183.288" stroke="#141414" stroke-width="0.4"/>
<line x1="104.895" y1="183.288" x2="110.62" y2="200.784" stroke="#141414" stroke-width="0.4"/>
<line x1="110.62" y1="200.784" x2="116.693" y2="199.027" stroke="#141414" stroke-width="0.4"/>
<line x1="116.693" y1="199.027" x2="121.29" y2="206.151" stroke="#141414" stroke-width="0.4"/>
<line x1="121.29" y1="206.151" x2="117.186" y2="210.96" stroke="#141414" stroke-width="0.4"/>
<line x1="129.397" y1="198.437" x2="134.759" y2="200.51" stroke="#141414" stroke-width="0.4"/>
<line x1="134.759" y1="200.51" x2="139.487" y2="194.421" stroke="#141414" stroke-width="0.4"/>
<line x1="139.487" y1="194.421" x2="136.151" y2="189.738" stroke="#141414" stroke-width="0.4"/>
<line x1="61.258" y1="134.244" x2="65.1" y2="129.968" stroke="#141414" stroke-width="0.4"/>
<line x1="65.1" y1="129.968" x2="61.087" y2="123.385" stroke="#141414" stroke-width="0.4"/>
<line x1="61.087" y1="123.385" x2="55.526" y2="124.84" stroke="#141414" stroke-width="0.4"/>
<line x1="84.979" y1="148.283" x2="106.095" y2="156.267" stroke="#141414" stroke-width="0.4"/>
<line x1="106.095" y1="156.267" x2="117.995" y2="165.507" stroke="#141414" stroke-width="0.4"/>
<line x1="117.995" y1="165.507" x2="127.48" y2="181.284" stroke="#141414" stroke-width="0.4"/>
<line x1="127.48" y1="181.284" x2="133.008" y2="178.216" stroke="#141414" stroke-width="0.4"/>
<line x1="133.008" y1="178.216" x2="139.078" y2="184.135" stroke="#141414" stroke-width="0.4"/>
<line x1="139.078" y1="184.135" x2="136.151" y2="189.738" stroke="#141414" stroke-width="0.4"/>
<line x1="145.259" y1="174.806" x2="150.949" y2="175.629" stroke="#141414" stroke-width="0.4"/>
<line x1="150.949" y1="175.629" x2="154.199" y2="168.639" stroke="#141414" stroke-width="0.4"/>
<line x1="154.199" y1="168.639" x2="149.902" y2="164.819" stroke="#141414" stroke-width="0.4"/>
<line x1="55.526" y1="124.84" x2="57.01" y2="119.286" stroke="#141414" stroke-width="0.4"/>
<line x1="57.01" y1="119.286" x2="50.449" y2="115.239" stroke="#141414" stroke-width="0.4"/>
<line x1="50.449" y1="115.239" x2="46.152" y2="119.058" stroke="#141414" stroke-width="0.4"/>
<line x1="90.768" y1="135.829" x2="113.133" y2="138.899" stroke="#141414" stroke-width="0.4"/>
<line x1="113.133" y1="138.899" x2="126.796" y2="145.251" stroke="#141414" stroke-width="0.4"/>
<line x1="126.796" y1="145.251" x2="139.562" y2="158.513" stroke="#141414" stroke-width="0.4"/>
<line x1="139.562" y1="158.513" x2="144.267" y2="154.289" stroke="#141414" stroke-width="0.4"/>
<line x1="144.267" y1="154.289" x2="151.504" y2="158.703" stroke="#141414" stroke-width="0.4"/>
<line x1="151.504" y1="158.703" x2="149.902" y2="164.819" stroke="#141414" stroke-width="0.4"/>
<line x1="155.448" y1="148.231" x2="161.178" y2="147.763" stroke="#141414" stroke-width="0.4"/>
<line x1="161.178" y1="147.763" x2="162.785" y2="140.223" stroke="#141414" stroke-width="0.4"/>
<line x1="162.785" y1="140.223" x2="157.744" y2="137.459" stroke="#141414" stroke-width="0.4"/>
<line x1="46.152" y1="119.058" x2="44.957" y2="113.435" stroke="#141414" stroke-width="0.4"/>
<line x1="44.957" y1="113.435" x2="37.273" y2="112.803" stroke="#141414" stroke-width="0.4"/>
<line x1="37.273" y1="112.803" x2="35.176" y2="118.156" stroke="#141414" stroke-width="0.4"/>
<line x1="93.633" y1="122.398" x2="116.119" y2="120.399" stroke="#141414" stroke-width="0.4"/>
<line x1="116.119" y1="120.399" x2="130.854" y2="123.541" stroke="#141414" stroke-width="0.4"/>
<line x1="130.854" y1="123.541" x2="146.258" y2="133.619" stroke="#141414" stroke-width="0.4"/>
<line x1="146.258" y1="133.619" x2="149.901" y2="128.452" stroke="#141414" stroke-width="0.4"/>
<line x1="149.901" y1="128.452" x2="157.941" y2="131.14" stroke="#141414" stroke-width="0.4"/>
<line x1="157.941" y1="131.14" x2="157.744" y2="137.459" stroke="#141414" stroke-width="0.4"/>
<line x1="159.448" y1="120.052" x2="164.929" y2="118.317" stroke="#141414" stroke-width="0.4"/>
<line x1="164.929" y1="118.317" x2="164.814" y2="110.609" stroke="#141414" stroke-width="0.4"/>
<line x1="164.814" y1="110.609" x2="159.283" y2="109.04" stroke="#141414" stroke-width="0.4"/>
<line x1="35.176" y1="118.156" x2="31.56" y2="113.687" stroke="#141414" stroke-width="0.4"/>
<line x1="31.56" y1="113.687" x2="24.426" y2="116.609" stroke="#141414" stroke-width="0.4"/>
<line x1="24.426" y1="116.609" x2="24.984" y2="122.33" stroke="#141414" stroke-width="0.4"/>
<line x1="93.427" y1="108.666" x2="114.9" y2="101.699" stroke="#141414" stroke-width="0.4"/>
<line x1="114.9" y1="101.699" x2="129.965" y2="101.474" stroke="#141414" stroke-width="0.4"/>
<line x1="129.965" y1="101.474" x2="147.23" y2="107.86" stroke="#141414" stroke-width="0.4"/>
<line x1="147.23" y1="107.86" x2="149.627" y2="102.01" stroke="#141414" stroke-width="0.4"/>
<line x1="149.627" y1="102.01" x2="158.065" y2="102.836" stroke="#141414" stroke-width="0.4"/>
<line x1="158.065" y1="102.836" x2="159.283" y2="109.04" stroke="#141414" stroke-width="0.4"/>
<line x1="157.059" y1="91.691" x2="162.015" y2="88.777" stroke="#141414" stroke-width="0.4"/>
<line x1="162.015" y1="88.777" x2="160.182" y2="81.289" stroke="#141414" stroke-width="0.4"/>
<line x1="160.182" y1="81.289" x2="154.44" y2="80.993" stroke="#141414" stroke-width="0.4"/>
<line x1="24.984" y1="122.33" x2="19.734" y2="119.987" stroke="#141414" stroke-width="0.4"/>
<line x1="19.734" y1="119.987" x2="14.701" y2="125.826" stroke="#141414" stroke-width="0.4"/>
<line x1="14.701" y1="125.826" x2="17.794" y2="130.673" stroke="#141414" stroke-width="0.4"/>
<line x1="90.162" y1="95.326" x2="109.539" y2="83.743" stroke="#141414" stroke-width="0.4"/>
<line x1="109.539" y1="83.743" x2="124.173" y2="80.161" stroke="#141414" stroke-width="0.4"/>
<line x1="124.173" y1="80.161" x2="142.428" y2="82.533" stroke="#141414" stroke-width="0.4"/>
<line x1="142.428" y1="82.533" x2="143.46" y2="76.296" stroke="#141414" stroke-width="0.4"/>
<line x1="143.46" y1="76.296" x2="151.869" y2="75.218" stroke="#141414" stroke-width="0.4"/>
<line x1="151.869" y1="75.218" x2="154.44" y2="80.993" stroke="#141414" stroke-width="0.4"/>
<line x1="148.4" y1="64.578" x2="152.581" y2="60.632" stroke="#141414" stroke-width="0.4"/>
<line x1="152.581" y1="60.632" x2="149.124" y2="53.741" stroke="#141414" stroke-width="0.4"/>
<line x1="149.124" y1="53.741" x2="143.461" y2="54.735" stroke="#141414" stroke-width="0.4"/>
<line x1="17.794" y1="130.673" x2="12.052" y2="130.965" stroke="#141414" stroke-width="0.4"/>
<line x1="12.052" y1="130.965" x2="10.215" y2="138.452" stroke="#141414" stroke-width="0.4"/>
<line x1="10.215" y1="138.452" x2="15.169" y2="141.369" stroke="#141414" stroke-width="0.4"/>
<line x1="84.002" y1="83.051" x2="100.305" y2="67.436" stroke="#141414" stroke-width="0.4"/>
<line x1="100.305" y1="67.436" x2="113.771" y2="60.679" stroke="#141414" stroke-width="0.4"/>
<line x1="113.771" y1="60.679" x2="132.095" y2="58.917" stroke="#141414" stroke-width="0.4"/>
<line x1="132.095" y1="58.917" x2="131.709" y2="52.606" stroke="#141414" stroke-width="0.4"/>
<line x1="131.709" y1="52.606" x2="139.665" y2="49.679" stroke="#141414" stroke-width="0.4"/>
<line x1="139.665" y1="49.679" x2="143.461" y2="54.735" stroke="#141414" stroke-width="0.4"/>
<line x1="133.91" y1="40.082" x2="137.104" y2="35.302" stroke="#141414" stroke-width="0.4"/>
<line x1="137.104" y1="35.302" x2="132.196" y2="29.357" stroke="#141414" stroke-width="0.4"/>
<line x1="132.196" y1="29.357" x2="126.898" y2="31.589" stroke="#141414" stroke-width="0.4"/>
<line x1="15.169" y1="141.369" x2="10.184" y2="144.233" stroke="#141414" stroke-width="0.4"/>
<line x1="10.184" y1="144.233" x2="11.942" y2="151.739" stroke="#141414" stroke-width="0.4"/>
<line x1="11.942" y1="151.739" x2="17.68" y2="152.092" stroke="#141414" stroke-width="0.4"/>
<line x1="75.258" y1="72.461" x2="87.665" y2="53.602" stroke="#141414" stroke-width="0.4"/>
<line x1="87.665" y1="53.602" x2="99.283" y2="44.009" stroke="#141414" stroke-width="0.4"/>
<line x1="99.283" y1="44.009" x2="116.752" y2="38.202" stroke="#141414" stroke-width="0.4"/>
<line x1="116.752" y1="38.202" x2="114.967" y2="32.137" stroke="#141414" stroke-width="0.4"/>
<line x1="114.967" y1="32.137" x2="122.069" y2="27.508" stroke="#141414" stroke-width="0.4"/>
<line x1="122.069" y1="27.508" x2="126.898" y2="31.589" stroke="#141414" stroke-width="0.4"/>
<line x1="114.318" y1="19.437" x2="116.365" y2="14.065" stroke="#141414" stroke-width="0.4"/>
<line x1="116.365" y1="14.065" x2="110.254" y2="9.365" stroke="#141414" stroke-width="0.4"/>
<line x1="110.254" y1="9.365" x2="105.587" y2="12.723" stroke="#141414" stroke-width="0.4"/>
<line x1="58.114" y1="74.458" x2="53.868" y2="69.774" stroke="#141414" stroke-width="0.4"/>
<line x1="53.868" y1="69.774" x2="58.249" y2="62.516" stroke="#141414" stroke-width="0.4"/>
<line x1="58.249" y1="62.516" x2="64.372" y2="64.09" stroke="#141414" stroke-width="0.4"/>
<line x1="64.372" y1="64.09" x2="63.743" y2="53.424" stroke="#141414" stroke-width="0.4"/>
<line x1="63.743" y1="53.424" x2="86.704" y2="23.565" stroke="#141414" stroke-width="0.4"/>
<line x1="86.704" y1="23.565" x2="97.173" y2="21.434" stroke="#141414" stroke-width="0.4"/>
<line x1="97.173" y1="21.434" x2="94.079" y2="15.921" stroke="#141414" stroke-width="0.4"/>
<line x1="94.079" y1="15.921" x2="99.97" y2="9.823" stroke="#141414" stroke-width="0.4"/>
<line x1="99.97" y1="9.823" x2="105.587" y2="12.723" stroke="#141414" stroke-width="0.4"/>
<circle cx="29.803" cy="149.921" r="1.51" fill="#ffe082" stroke="#464646" stroke-width="0.2"/>
<text x="29.803" y="150.44" font-size="1.48" text-anchor="middle" fill="#141414">1</text>
<circle cx="43.567" cy="205.137" r="1.51" fill="#ffe082" stroke="#464646" stroke-width="0.2"/>
<text x="43.567" y="205.65" font-size="1.48" text-anchor="middle" fill="#141414">3</text>
<circle cx="52.033" cy="236.179" r="1.51" fill="#ffe082" stroke="#464646" stroke-width="0.2"/>
<text x="52.033" y="236.70" font-size="1.48" text-anchor="middle" fill="#141414">4</text>
<circle cx="34.106" cy="245.792" r="1.51" fill="#ffe082" stroke="#464646" stroke-width="0.2"/>
<text x="34.106" y="246.31" font-size="1.48" text-anchor="middle" fill="#141414">5</text>
<circle cx="55.827" cy="258.448" r="1.51" fill="#ffe082" stroke="#464646" stroke-width="0.2"/>
<text x="55.827" y="258.97" font-size="1.48" text-anchor="middle" fill="#141414">6</text>
<circle cx="63.383" cy="200.385" r="1.51" fill="#ffe082" stroke="#464646" stroke-width="0.2"/>
<text x="63.383" y="200.90" font-size="1.48" text-anchor="middle" fill="#141414">8</text>
<circle cx="69.916" cy="231.89" r="1.51" fill="#ffe082" stroke="#464646" stroke-width="0.2"/>
<text x="69.916" y="232.41" font-size="1.48" text-anchor="middle" fill="#141414">9</text>
<circle cx="90.253" cy="232.328" r="1.51" fill="#ffe082" stroke="#464646" stroke-width="0.2"/>
<text x="90.253" y="232.85" font-size="1.48" text-anchor="middle" fill="#141414">10</text>
<circle cx="62.625" cy="151.099" r="1.51" fill="#ffe082" stroke="#464646" stroke-width="0.2"/>
<text x="62.625" y="151.62" font-size="1.48" text-anchor="middle" fill="#141414">11</text>
<circle cx="81.345" cy="191.438" r="1.51" fill="#ffe082" stroke="#464646" stroke-width="0.2"/>
<text x="81.345" y="191.96" font-size="1.48" text-anchor="middle" fill="#141414">12</text>
<circle cx="94.745" cy="220.69" r="1.51" fill="#ffe082" stroke="#464646" stroke-width="0.2"/>
<text x="94.745" y="221.21" font-size="1.48" text-anchor="middle" fill="#141414">13</text>
<circle cx="114.666" cy="216.578" r="1.51" fill="#ffe082" stroke="#464646" stroke-width="0.2"/>
<text x="114.666" y="217.10" font-size="1.48" text-anchor="middle" fill="#141414">14</text>
<circle cx="64.425" cy="139.524" r="1.51" fill="#ffe082" stroke="#464646" stroke-width="0.2"/>
<text x="64.425" y="140.04" font-size="1.48" text-anchor="middle" fill="#141414">15</text>
<circle cx="96.857" cy="178.707" r="1.51" fill="#ffe082" stroke="#464646" stroke-width="0.2"/>
<text x="96.857" y="179.22" font-size="1.48" text-anchor="middle" fill="#141414">16</text>
<circle cx="116.447" cy="204.231" r="1.51" fill="#ffe082" stroke="#464646" stroke-width="0.2"/>
<text x="116.447" y="204.75" font-size="1.48" text-anchor="middle" fill="#141414">17</text>
<circle cx="134.949" cy="195.776" r="1.51" fill="#ffe082" stroke="#464646" stroke-width="0.2"/>
<text x="134.949" y="196.29" font-size="1.48" text-anchor="middle" fill="#141414">18</text>
<circle cx="60.743" cy="128.109" r="1.51" fill="#ffe082" stroke="#464646" stroke-width="0.2"/>
<text x="60.743" y="128.63" font-size="1.48" text-anchor="middle" fill="#141414">19</text>
<circle cx="109.137" cy="162.835" r="1.51" fill="#ffe082" stroke="#464646" stroke-width="0.2"/>
<text x="109.137" y="163.35" font-size="1.48" text-anchor="middle" fill="#141414">20</text>
<circle cx="133.929" cy="183.343" r="1.51" fill="#ffe082" stroke="#464646" stroke-width="0.2"/>
<text x="133.929" y="183.86" font-size="1.48" text-anchor="middle" fill="#141414">21</text>
<circle cx="150.077" cy="170.973" r="1.51" fill="#ffe082" stroke="#464646" stroke-width="0.2"/>
<text x="150.077" y="171.49" font-size="1.48" text-anchor="middle" fill="#141414">22</text>
<circle cx="52.284" cy="119.606" r="1.51" fill="#ffe082" stroke="#464646" stroke-width="0.2"/>
<text x="52.284" y="120.12" font-size="1.48" text-anchor="middle" fill="#141414">23</text>
<circle cx="117.565" cy="144.623" r="1.51" fill="#ffe082" stroke="#464646" stroke-width="0.2"/>
<text x="117.565" y="145.14" font-size="1.48" text-anchor="middle" fill="#141414">24</text>
<circle cx="146.309" cy="159.081" r="1.51" fill="#ffe082" stroke="#464646" stroke-width="0.2"/>
<text x="146.309" y="159.60" font-size="1.48" text-anchor="middle" fill="#141414">25</text>
<circle cx="159.289" cy="143.419" r="1.51" fill="#ffe082" stroke="#464646" stroke-width="0.2"/>
<text x="159.289" y="143.94" font-size="1.48" text-anchor="middle" fill="#141414">26</text>
<circle cx="40.889" cy="115.863" r="1.51" fill="#ffe082" stroke="#464646" stroke-width="0.2"/>
<text x="40.889" y="116.38" font-size="1.48" text-anchor="middle" fill="#141414">27</text>
<circle cx="121.716" cy="124.989" r="1.51" fill="#ffe082" stroke="#464646" stroke-width="0.2"/>
<text x="121.716" y="125.51" font-size="1.48" text-anchor="middle" fill="#141414">28</text>
<circle cx="152.961" cy="132.668" r="1.51" fill="#ffe082" stroke="#464646" stroke-width="0.2"/>
<text x="152.961" y="133.19" font-size="1.48" text-anchor="middle" fill="#141414">29</text>
<circle cx="162.119" cy="114.504" r="1.51" fill="#ffe082" stroke="#464646" stroke-width="0.2"/>
<text x="162.119" y="115.02" font-size="1.48" text-anchor="middle" fill="#141414">30</text>
<circle cx="29.036" cy="117.695" r="1.51" fill="#ffe082" stroke="#464646" stroke-width="0.2"/>
<text x="29.036" y="118.21" font-size="1.48" text-anchor="middle" fill="#141414">31</text>
<circle cx="121.38" cy="104.925" r="1.51" fill="#ffe082" stroke="#464646" stroke-width="0.2"/>
<text x="121.38" y="105.44" font-size="1.48" text-anchor="middle" fill="#141414">32</text>
<circle cx="153.551" cy="105.436" r="1.51" fill="#ffe082" stroke="#464646" stroke-width="0.2"/>
<text x="153.551" y="105.95" font-size="1.48" text-anchor="middle" fill="#141414">33</text>
<circle cx="158.424" cy="85.687" r="1.51" fill="#ffe082" stroke="#464646" stroke-width="0.2"/>
<text x="158.424" y="86.20" font-size="1.48" text-anchor="middle" fill="#141414">34</text>
<circle cx="19.303" cy="124.704" r="1.51" fill="#ffe082" stroke="#464646" stroke-width="0.2"/>
<text x="19.303" y="125.22" font-size="1.48" text-anchor="middle" fill="#141414">35</text>
<circle cx="116.575" cy="85.441" r="1.51" fill="#ffe082" stroke="#464646" stroke-width="0.2"/>
<text x="116.575" y="85.96" font-size="1.48" text-anchor="middle" fill="#141414">36</text>
<circle cx="148.049" cy="78.76" r="1.51" fill="#ffe082" stroke="#464646" stroke-width="0.2"/>
<text x="148.049" y="79.28" font-size="1.48" text-anchor="middle" fill="#141414">37</text>
<circle cx="148.391" cy="58.422" r="1.51" fill="#ffe082" stroke="#464646" stroke-width="0.2"/>
<text x="148.391" y="58.94" font-size="1.48" text-anchor="middle" fill="#141414">38</text>
<circle cx="13.807" cy="135.365" r="1.51" fill="#ffe082" stroke="#464646" stroke-width="0.2"/>
<text x="13.807" y="135.88" font-size="1.48" text-anchor="middle" fill="#141414">39</text>
<circle cx="107.543" cy="67.521" r="1.51" fill="#99d9fa" stroke="#464646" stroke-width="0.2"/>
<text x="107.543" y="68.04" font-size="1.48" text-anchor="middle" fill="#141414">40</text>
<circle cx="136.732" cy="53.984" r="1.51" fill="#ffe082" stroke="#464646" stroke-width="0.2"/>
<text x="136.732" y="54.50" font-size="1.48" text-anchor="middle" fill="#141414">41</text>
<circle cx="132.527" cy="34.082" r="1.51" fill="#ffe082" stroke="#464646" stroke-width="0.2"/>
<text x="132.527" y="34.60" font-size="1.48" text-anchor="middle" fill="#141414">42</text>
<circle cx="13.744" cy="147.358" r="1.51" fill="#ffe082" stroke="#464646" stroke-width="0.2"/>
<text x="13.744" y="147.88" font-size="1.48" text-anchor="middle" fill="#141414">43</text>
<circle cx="94.74" cy="52.069" r="1.51" fill="#ffe082" stroke="#464646" stroke-width="0.2"/>
<text x="94.74" y="52.59" font-size="1.48" text-anchor="middle" fill="#141414">44</text>
<circle cx="120.172" cy="32.359" r="1.51" fill="#ffe082" stroke="#464646" stroke-width="0.2"/>
<text x="120.172" y="32.88" font-size="1.48" text-anchor="middle" fill="#141414">45</text>
<circle cx="111.631" cy="13.898" r="1.51" fill="#ffe082" stroke="#464646" stroke-width="0.2"/>
<text x="111.631" y="14.42" font-size="1.48" text-anchor="middle" fill="#141414">46</text>
<circle cx="58.65" cy="67.709" r="1.51" fill="#ffe082" stroke="#464646" stroke-width="0.2"/>
<text x="58.65" y="68.23" font-size="1.48" text-anchor="middle" fill="#141414">47</text>
<circle cx="77.998" cy="40.628" r="1.51" fill="#ffe082" stroke="#464646" stroke-width="0.2"/>
<text x="77.998" y="41.15" font-size="1.48" text-anchor="middle" fill="#141414">48</text>
<circle cx="99.202" cy="14.975" r="1.51" fill="#ffe082" stroke="#464646" stroke-width="0.2"/>
<text x="99.202" y="15.49" font-size="1.48" text-anchor="middle" fill="#141414">49</text>
<circle cx="82.373" cy="286.958" r="4.6" fill="#eaf1fe" stroke="#2e78e6" stroke-width="0.3"/>
<text x="82.373" y="288.75800000000004" font-size="5.2" text-anchor="middle" fill="#14306e" font-weight="bold">1</text>
<text x="205.0" y="295.0" font-size="3.2" text-anchor="end" fill="#737373" font-family="sans-serif">1 / 5</text>
</svg>
