<svg xmlns="http://www.w3.org/2000/svg" xmlns:xlink="http://www.w3.org/1999/xlink" width="210.00mm" height="297.00mm" viewBox="0 0 210.00 297.00">
<rect x="0" y="0" width="210.00" height="297.00" fill="#ffffff" stroke="#cccccc" stroke-width="0.2"/>
<polygon points="181.515,51.463 172.89,40.463 120.481,10.132 106.646,8.133" fill="rgb(216,216,216)"/>
<polygon points="181.515,51.463 186.596,64.462 186.043,124.901 180.724,137.805" fill="rgb(216,216,216)"/>
<polygon points="106.646,8.133 101.446,20.783 101.446,79.82 106.646,92.47" fill="rgb(216,216,216)"/>
<polygon points="143.474,151.487 140.809,159.286 115.504,175.109 107.325,174.09" fill="rgb(216,216,216)"/>
<polygon points="143.474,151.487 150.854,154.315 176.93,144.738 180.724,137.805" fill="rgb(216,216,216)"/>
<polygon points="47.925,210.132 43.719,217.89 13.672,232.181 5.0,230.547" fill="rgb(216,216,216)"/>
<line x1="181.516" y1="51.463" x2="106.646" y2="92.47" stroke="#8c8c8c" stroke-width="0.3" stroke-dasharray="1.2,0.8"/>
<line x1="143.474" y1="151.487" x2="106.646" y2="92.47" stroke="#8c8c8c" stroke-width="0.3" stroke-dasharray="1.2,0.8"/>
<line x1="180.725" y1="137.805" x2="106.646" y2="92.47" stroke="#8c8c8c" stroke-width="0.3" stroke-dasharray="1.2,0.8"/>
<line x1="107.325" y1="174.09" x2="66.583" y2="183.954" stroke="#8c8c8c" stroke-width="0.3" stroke-dasharray="1.2,0.8"/>
<line x1="143.474" y1="151.487" x2="106.353" y2="144.686" stroke="#8c8c8c" stroke-width="0.3" stroke-dasharray="1.2,0.8"/>
<line x1="47.925" y1="210.132" x2="66.583" y2="183.954" stroke="#8c8c8c" stroke-width="0.3" stroke-dasharray="1.2,0.8"/>
<line x1="106.646" y1="8.133" x2="181.515" y2="51.463" stroke="#8c8c8c" stroke-width="0.3" stroke-dasharray="1.2,0.8"/>
<line x1="180.724" y1="137.805" x2="181.515" y2="51.463" stroke="#8c8c8c" stroke-width="0.3" stroke-dasharray="1.2,0.8"/>
<line x1="106.646" y1="92.47" x2="106.646" y2="8.133" stroke="#8c8c8c" stroke-width="0.3" stroke-dasharray="1.2,0.8"/>
<line x1="107.325" y1="174.09" x2="143.474" y2="151.487" stroke="#8c8c8c" stroke-width="0.3" stroke-dasharray="1.2,0.8"/>
<line x1="180.724" y1="137.805" x2="143.474" y2="151.487" stroke="#8c8c8c" stroke-width="0.3" stroke-dasharray="1.2,0.8"/>
<line x1="5.0" y1="230.547" x2="47.925" y2="210.132" stroke="#8c8c8c" stroke-width="0.3" stroke-dasharray="1.2,0.8"/>
<line x1="106.353" y1="144.686" x2="106.646" y2="92.47" stroke="#141414" stroke-width="0.4"/>
<line x1="107.325" y1="174.09" x2="47.925" y2="210.132" stroke="#141414" stroke-width="0.4"/>
<line x1="66.583" y1="183.954" x2="106.353" y2="144.686" stroke="#141414" stroke-width="0.4"/>
<line x1="5.0" y1="230.547" x2="66.583" y2="183.954" stroke="#141414" stroke-width="0.4"/>
<line x1="181.515" y1="51.463" x2="172.89" y2="40.463" stroke="#141414" stroke-width="0.4"/>
<line x1="172.89" y1="40.463" x2="120.481" y2="10.132" stroke="#141414" stroke-width="0.4"/>
<line x1="120.481" y1="10.132" x2="106.646" y2="8.133" stroke="#141414" stroke-width="0.4"/>
<line x1="181.515" y1="51.463" x2="186.596" y2="64.462" stroke="#141414" stroke-width="0.4"/>
<line x1="186.596" y1="64.462" x2="186.043" y2="124.901" stroke="#141414" stroke-width="0.4"/>
<line x1="186.043" y1="124.901" x2="180.724" y2="137.805" stroke="#141414" stroke-width="0.4"/>
<line x1="106.646" y1="8.133" x2="101.446" y2="20.783" stroke="#141414" stroke-width="0.4"/>
<line x1="101.446" y1="20.783" x2="101.446" y2="79.82" stroke="#141414" stroke-width="0.4"/>
<line x1="101.446" y1="79.82" x2="106.646" y2="92.47" stroke="#141414" stroke-width="0.4"/>
<line x1="143.474" y1="151.487" x2="140.809" y2="159.286" stroke="#141414" stroke-width="0.4"/>
<line x1="140.809" y1="159.286" x2="115.504" y2="175.109" stroke="#141414" stroke-width="0.4"/>
<line x1="115.504" y1="175.109" x2="107.325" y2="174.09" stroke="#141414" stroke-width="0.4"/>
<line x1="143.474" y1="151.487" x2="150.854" y2="154.315" stroke="#141414" stroke-width="0.4"/>
<line x1="150.854" y1="154.315" x2="176.93" y2="144.738" stroke="#141414" stroke-width="0.4"/>
<line x1="176.93" y1="144.738" x2="180.724" y2="137.805" stroke="#141414" stroke-width="0.4"/>
<line x1="47.925" y1="210.132" x2="43.719" y2="217.89" stroke="#141414" stroke-width="0.4"/>
<line x1="43.719" y1="217.89" x2="13.672" y2="232.181" stroke="#141414" stroke-width="0.4"/>
<line x1="13.672" y1="232.181" x2="5.0" y2="230.547" stroke="#141414" stroke-width="0.4"/>
<circle cx="145.383" cy="27.548" r="2.29" fill="#ffe082" stroke="#464646" stroke-width="0.2"/>
<text x="145.383" y="28.63" font-size="3.11" text-anchor="middle" fill="#141414">1</text>
<circle cx="183.72" cy="94.658" r="2.29" fill="#ffe082" stroke="#464646" stroke-width="0.2"/>
<text x="183.72" y="95.74" font-size="3.11" text-anchor="middle" fill="#141414">3</text>
<circle cx="104.046" cy="50.301" r="2.29" fill="#ffe082" stroke="#464646" stroke-width="0.2"/>
<text x="104.046" y="51.39" font-size="3.11" text-anchor="middle" fill="#141414">4</text>
<circle cx="126.778" cy="164.993" r="2.29" fill="#ffe082" stroke="#464646" stroke-width="0.2"/>
<text x="126.778" y="166.08" font-size="3.11" text-anchor="middle" fill="#141414">9</text>
<circle cx="162.996" cy="147.086" r="2.29" fill="#ffe082" stroke="#464646" stroke-width="0.2"/>
<text x="162.996" y="148.17" font-size="3.11" text-anchor="middle" fill="#141414">10</text>
<circle cx="27.579" cy="222.688" r="2.29" fill="#ffe082" stroke="#464646" stroke-width="0.2"/>
<text x="27.579" y="223.77" font-size="3.11" text-anchor="middle" fill="#141414">27</text>
<circle cx="95.798" cy="235.148" r="4.6" fill="#eaf1fe" stroke="#2e78e6" stroke-width="0.3"/>
<text x="95.798" y="236.948" font-size="5.2" text-anchor="middle" fill="#14306e" font-weight="bold">2</text>
</svg>
