<svg xmlns="http://www.w3.org/2000/svg" xmlns:xlink="http://www.w3.org/1999/xlink" width="210.00mm" height="297.00mm" viewBox="0 0 210.00 297.00">
<rect x="0" y="0" width="210.00" height="297.00" fill="#ffffff" stroke="#cccccc" stroke-width="0.2"/>
<polygon points="117.246,16.129 103.806,10.929 41.087,10.929 27.647,16.129" fill="rgb(216,216,216)"/>
<line x1="27.647" y1="16.129" x2="117.246" y2="16.129" stroke="#8c8c8c" stroke-width="0.3" stroke-dasharray="1.2,0.8"/>
<line x1="117.246" y1="16.129" x2="5.0" y2="91.442" stroke="#141414" stroke-width="0.4"/>
<line x1="5.0" y1="91.442" x2="27.647" y2="16.129" stroke="#141414" stroke-width="0.4"/>
<line x1="117.246" y1="16.129" x2="103.806" y2="10.929" stroke="#141414" stroke-width="0.4"/>
<line x1="103.806" y1="10.929" x2="41.087" y2="10.929" stroke="#141414" stroke-width="0.4"/>
<line x1="41.087" y1="10.929" x2="27.647" y2="16.129" stroke="#141414" stroke-width="0.4"/>
<circle cx="72.446" cy="13.529" r="2.29" fill="#ffe082" stroke="#464646" stroke-width="0.2"/>
<text x="72.446" y="14.62" font-size="3.11" text-anchor="middle" fill="#141414">17</text>
<circle cx="61.123" cy="91.613" r="4.6" fill="#eaf1fe" stroke="#2e78e6" stroke-width="0.3"/>
<text x="61.123" y="93.413" font-size="5.2" text-anchor="middle" fill="#14306e" font-weight="bold">13</text>
<polygon points="194.704,92.624 199.872,86.299 199.722,56.907 194.49,50.636" fill="rgb(216,216,216)"/>
<line x1="194.704" y1="92.623" x2="120.246" y2="50.636" stroke="#8c8c8c" stroke-width="0.3" stroke-dasharray="1.2,0.8"/>
<line x1="120.246" y1="50.636" x2="194.489" y2="50.636" stroke="#8c8c8c" stroke-width="0.3" stroke-dasharray="1.2,0.8"/>
<line x1="194.49" y1="50.636" x2="194.704" y2="92.624" stroke="#8c8c8c" stroke-width="0.3" stroke-dasharray="1.2,0.8"/>
<line x1="194.704" y1="92.623" x2="125.171" y2="134.119" stroke="#141414" stroke-width="0.4"/>
<line x1="125.171" y1="134.119" x2="120.246" y2="50.636" stroke="#141414" stroke-width="0.4"/>
<line x1="193.799" y1="5.0" x2="194.489" y2="50.636" stroke="#141414" stroke-width="0.4"/>
<line x1="120.246" y1="50.636" x2="193.799" y2="5.0" stroke="#141414" stroke-width="0.4"/>
<line x1="194.704" y1="92.624" x2="199.872" y2="86.299" stroke="#141414" stroke-width="0.4"/>
<line x1="199.872" y1="86.299" x2="199.722" y2="56.907" stroke="#141414" stroke-width="0.4"/>
<line x1="199.722" y1="56.907" x2="194.49" y2="50.636" stroke="#141414" stroke-width="0.4"/>
<circle cx="197.197" cy="71.616" r="2.29" fill="#ffe082" stroke="#464646" stroke-width="0.2"/>
<text x="197.197" y="72.70" font-size="3.11" text-anchor="middle" fill="#141414">45</text>
<circle cx="160.059" cy="140.219" r="4.6" fill="#eaf1fe" stroke="#2e78e6" stroke-width="0.3"/>
<text x="160.059" y="142.019" font-size="5.2" text-anchor="middle" fill="#14306e" font-weight="bold">14</text>
<text x="205.0" y="295.0" font-size="3.2" text-anchor="end" fill="#737373" font-family="sans-serif">11 / 11</text>
</svg>
