<svg xmlns="http://www.w3.org/2000/svg" xmlns:xlink="http://www.w3.org/1999/xlink" width="210.00mm" height="297.00mm" viewBox="0 0 210.00 297.00">
<rect x="0" y="0" width="210.00" height="297.00" fill="#ffffff" stroke="#cccccc" stroke-width="0.2"/>
<polygon points="100.24,118.292 107.24,131.831 107.24,195.013 100.24,208.552" fill="rgb(216,216,216)"/>
<polygon points="95.26,118.292 88.26,115.584 88.26,102.948 95.26,100.24" fill="rgb(216,216,216)"/>
<polygon points="95.26,118.292 88.26,131.831 88.26,195.013 95.26,208.552" fill="rgb(216,216,216)"/>
<polygon points="100.24,100.24 113.779,93.24 176.961,93.24 190.5,100.24" fill="rgb(216,216,216)"/>
<polygon points="5.0,226.604 18.539,233.604 81.721,233.604 95.26,226.604" fill="rgb(216,216,216)"/>
<polygon points="190.5,118.292 197.5,115.584 197.5,102.948 190.5,100.24" fill="rgb(216,216,216)"/>
<polygon points="100.24,9.98 99.493,6.58 96.007,6.58 95.26,9.98" fill="rgb(216,216,216)"/>
<polygon points="100.24,118.292 107.24,131.831 107.24,195.013 100.24,208.552" fill="#99d9fa"/>
<line x1="100.24" y1="118.292" x2="95.26" y2="118.292" stroke="#8c8c8c" stroke-width="0.3" stroke-dasharray="1.2,0.8"/>
<line x1="100.24" y1="100.24" x2="100.24" y2="118.292" stroke="#8c8c8c" stroke-width="0.3" stroke-dasharray="1.2,0.8"/>
<line x1="95.26" y1="100.24" x2="100.24" y2="100.24" stroke="#8c8c8c" stroke-width="0.3" stroke-dasharray="1.2,0.8"/>
<line x1="100.24" y1="208.552" x2="95.26" y2="208.552" stroke="#8c8c8c" stroke-width="0.3" stroke-dasharray="1.2,0.8"/>
<line x1="95.26" y1="208.552" x2="95.26" y2="226.604" stroke="#8c8c8c" stroke-width="0.3" stroke-dasharray="1.2,0.8"/>
<line x1="100.24" y1="208.552" x2="100.24" y2="118.292" stroke="#8c8c8c" stroke-width="0.3" stroke-dasharray="1.2,0.8"/>
<line x1="95.26" y1="100.24" x2="95.26" y2="118.292" stroke="#8c8c8c" stroke-width="0.3" stroke-dasharray="1.2,0.8"/>
<line x1="95.26" y1="208.552" x2="95.26" y2="118.292" stroke="#8c8c8c" stroke-width="0.3" stroke-dasharray="1.2,0.8"/>
<line x1="190.5" y1="100.24" x2="100.24" y2="100.24" stroke="#8c8c8c" stroke-width="0.3" stroke-dasharray="1.2,0.8"/>
<line x1="95.26" y1="226.604" x2="5.0" y2="226.604" stroke="#8c8c8c" stroke-width="0.3" stroke-dasharray="1.2,0.8"/>
<line x1="190.5" y1="100.24" x2="190.5" y2="118.292" stroke="#8c8c8c" stroke-width="0.3" stroke-dasharray="1.2,0.8"/>
<line x1="95.26" y1="9.98" x2="100.24" y2="9.98" stroke="#8c8c8c" stroke-width="0.3" stroke-dasharray="1.2,0.8"/>
<line x1="190.5" y1="118.292" x2="100.24" y2="118.292" stroke="#141414" stroke-width="0.4"/>
<line x1="5.0" y1="226.604" x2="5.0" y2="208.552" stroke="#141414" stroke-width="0.4"/>
<line x1="5.0" y1="208.552" x2="95.26" y2="208.552" stroke="#141414" stroke-width="0.4"/>
<line x1="100.24" y1="9.98" x2="100.24" y2="100.24" stroke="#141414" stroke-width="0.4"/>
<line x1="95.26" y1="100.24" x2="95.26" y2="9.98" stroke="#141414" stroke-width="0.4"/>
<line x1="100.24" y1="208.552" x2="100.24" y2="226.604" stroke="#141414" stroke-width="0.4"/>
<line x1="100.24" y1="226.604" x2="95.26" y2="226.604" stroke="#141414" stroke-width="0.4"/>
<line x1="100.24" y1="118.292" x2="107.24" y2="131.831" stroke="#141414" stroke-width="0.4"/>
<line x1="107.24" y1="131.831" x2="107.24" y2="195.013" stroke="#141414" stroke-width="0.4"/>
<line x1="107.24" y1="195.013" x2="100.24" y2="208.552" stroke="#141414" stroke-width="0.4"/>
<line x1="95.26" y1="118.292" x2="88.26" y2="115.584" stroke="#141414" stroke-width="0.4"/>
<line x1="88.26" y1="115.584" x2="88.26" y2="102.948" stroke="#141414" stroke-width="0.4"/>
<line x1="88.26" y1="102.948" x2="95.26" y2="100.24" stroke="#141414" stroke-width="0.4"/>
<line x1="95.26" y1="118.292" x2="88.26" y2="131.831" stroke="#141414" stroke-width="0.4"/>
<line x1="88.26" y1="131.831" x2="88.26" y2="195.013" stroke="#141414" stroke-width="0.4"/>
<line x1="88.26" y1="195.013" x2="95.26" y2="208.552" stroke="#141414" stroke-width="0.4"/>
<line x1="100.24" y1="100.24" x2="113.779" y2="93.24" stroke="#141414" stroke-width="0.4"/>
<line x1="113.779" y1="93.24" x2="176.961" y2="93.24" stroke="#141414" stroke-width="0.4"/>
<line x1="176.961" y1="93.24" x2="190.5" y2="100.24" stroke="#141414" stroke-width="0.4"/>
<line x1="5.0" y1="226.604" x2="18.539" y2="233.604" stroke="#141414" stroke-width="0.4"/>
<line x1="18.539" y1="233.604" x2="81.721" y2="233.604" stroke="#141414" stroke-width="0.4"/>
<line x1="81.721" y1="233.604" x2="95.26" y2="226.604" stroke="#141414" stroke-width="0.4"/>
<line x1="190.5" y1="118.292" x2="197.5" y2="115.584" stroke="#141414" stroke-width="0.4"/>
<line x1="197.5" y1="115.584" x2="197.5" y2="102.948" stroke="#141414" stroke-width="0.4"/>
<line x1="197.5" y1="102.948" x2="190.5" y2="100.24" stroke="#141414" stroke-width="0.4"/>
<line x1="100.24" y1="9.98" x2="99.493" y2="6.58" stroke="#141414" stroke-width="0.4"/>
<line x1="99.493" y1="6.58" x2="96.007" y2="6.58" stroke="#141414" stroke-width="0.4"/>
<line x1="96.007" y1="6.58" x2="95.26" y2="9.98" stroke="#141414" stroke-width="0.4"/>
<circle cx="103.74" cy="163.422" r="1.15" fill="#99d9fa" stroke="#464646" stroke-width="0.2"/>
<text x="103.74" y="163.97" font-size="1.56" text-anchor="middle" fill="#141414">10</text>
<circle cx="91.76" cy="109.266" r="1.15" fill="#ffe082" stroke="#464646" stroke-width="0.2"/>
<text x="91.76" y="109.81" font-size="1.56" text-anchor="middle" fill="#141414">11</text>
<circle cx="91.76" cy="163.422" r="1.15" fill="#ffe082" stroke="#464646" stroke-width="0.2"/>
<text x="91.76" y="163.97" font-size="1.56" text-anchor="middle" fill="#141414">12</text>
<circle cx="145.37" cy="96.74" r="1.15" fill="#ffe082" stroke="#464646" stroke-width="0.2"/>
<text x="145.37" y="97.29" font-size="1.56" text-anchor="middle" fill="#141414">13</text>
<circle cx="50.13" cy="230.104" r="1.15" fill="#ffe082" stroke="#464646" stroke-width="0.2"/>
<text x="50.13" y="230.65" font-size="1.56" text-anchor="middle" fill="#141414">14</text>
<circle cx="194.0" cy="109.266" r="1.15" fill="#ffe082" stroke="#464646" stroke-width="0.2"/>
<text x="194.0" y="109.81" font-size="1.56" text-anchor="middle" fill="#141414">15</text>
<circle cx="97.75" cy="8.28" r="1.15" fill="#ffe082" stroke="#464646" stroke-width="0.2"/>
<text x="97.75" y="8.83" font-size="1.56" text-anchor="middle" fill="#141414">16</text>
<circle cx="101.25" cy="238.124" r="4.6" fill="#eaf1fe" stroke="#2e78e6" stroke-width="0.3"/>
<text x="101.25" y="239.924" font-size="5.2" text-anchor="middle" fill="#14306e" font-weight="bold">2</text>
<text x="205.0" y="295.0" font-size="3.2" text-anchor="end" fill="#737373" font-family="sans-serif">2 / 4</text>
</svg>
