<svg xmlns="http://www.w3.org/2000/svg" xmlns:xlink="http://www.w3.org/1999/xlink" width="210.00mm" height="297.00mm" viewBox="0 0 210.00 297.00">
<rect x="0" y="0" width="210.00" height="297.00" fill="#ffffff" stroke="#cccccc" stroke-width="0.2"/>
<polygon points="42.486,87.815 46.356,82.594 54.553,85.554 54.195,92.043" fill="rgb(216,216,216)"/>
<polygon points="87.434,14.95 91.319,29.262 133.202,73.624 147.267,78.324" fill="rgb(216,216,216)"/>
<polygon points="87.434,14.95 85.128,10.299 90.213,5.545 94.699,8.158" fill="rgb(216,216,216)"/>
<polygon points="54.195,92.043 67.269,85.043 128.278,85.043 141.352,92.043" fill="rgb(216,216,216)"/>
<polygon points="163.201,93.329 163.486,93.488 174.729,97.141 173.893,99.305" fill="rgb(216,216,216)"/>
<polygon points="94.699,8.158 108.743,12.915 150.44,57.444 154.265,71.771" fill="rgb(216,216,216)"/>
<polygon points="54.244,101.988 67.345,108.934 128.348,108.684 141.391,101.631" fill="rgb(216,216,216)"/>
<polygon points="154.265,71.771 162.778,71.125 177.214,88.786 174.887,97.001" fill="rgb(216,216,216)"/>
<polygon points="141.391,101.631 146.766,108.264 169.518,106.636 173.893,99.305" fill="rgb(216,216,216)"/>
<polygon points="42.486,87.815 46.356,82.594 54.553,85.554 54.195,92.043" fill="#99d9fa"/>
<line x1="54.244" y1="101.988" x2="54.195" y2="92.043" stroke="#8c8c8c" stroke-width="0.3" stroke-dasharray="1.2,0.8"/>
<line x1="141.352" y1="92.043" x2="147.267" y2="78.324" stroke="#8c8c8c" stroke-width="0.3" stroke-dasharray="1.2,0.8"/>
<line x1="147.267" y1="78.324" x2="163.201" y2="93.329" stroke="#8c8c8c" stroke-width="0.3" stroke-dasharray="1.2,0.8"/>
<line x1="147.267" y1="78.324" x2="94.699" y2="8.158" stroke="#8c8c8c" stroke-width="0.3" stroke-dasharray="1.2,0.8"/>
<line x1="147.267" y1="78.324" x2="154.265" y2="71.771" stroke="#8c8c8c" stroke-width="0.3" stroke-dasharray="1.2,0.8"/>
<line x1="174.887" y1="97.001" x2="147.267" y2="78.324" stroke="#8c8c8c" stroke-width="0.3" stroke-dasharray="1.2,0.8"/>
<line x1="163.201" y1="93.329" x2="141.352" y2="92.043" stroke="#8c8c8c" stroke-width="0.3" stroke-dasharray="1.2,0.8"/>
<line x1="141.352" y1="92.043" x2="54.244" y2="101.988" stroke="#8c8c8c" stroke-width="0.3" stroke-dasharray="1.2,0.8"/>
<line x1="141.391" y1="101.631" x2="141.352" y2="92.043" stroke="#8c8c8c" stroke-width="0.3" stroke-dasharray="1.2,0.8"/>
<line x1="141.352" y1="92.043" x2="173.893" y2="99.305" stroke="#8c8c8c" stroke-width="0.3" stroke-dasharray="1.2,0.8"/>
<line x1="54.244" y1="101.988" x2="36.094" y2="95.434" stroke="#8c8c8c" stroke-width="0.3" stroke-dasharray="1.2,0.8"/>
<line x1="54.195" y1="92.043" x2="42.486" y2="87.815" stroke="#8c8c8c" stroke-width="0.3" stroke-dasharray="1.2,0.8"/>
<line x1="147.267" y1="78.324" x2="87.434" y2="14.95" stroke="#8c8c8c" stroke-width="0.3" stroke-dasharray="1.2,0.8"/>
<line x1="94.699" y1="8.158" x2="87.434" y2="14.95" stroke="#8c8c8c" stroke-width="0.3" stroke-dasharray="1.2,0.8"/>
<line x1="141.352" y1="92.043" x2="54.195" y2="92.043" stroke="#8c8c8c" stroke-width="0.3" stroke-dasharray="1.2,0.8"/>
<line x1="173.893" y1="99.305" x2="163.201" y2="93.329" stroke="#8c8c8c" stroke-width="0.3" stroke-dasharray="1.2,0.8"/>
<line x1="154.265" y1="71.771" x2="94.699" y2="8.158" stroke="#8c8c8c" stroke-width="0.3" stroke-dasharray="1.2,0.8"/>
<line x1="141.391" y1="101.631" x2="54.244" y2="101.988" stroke="#8c8c8c" stroke-width="0.3" stroke-dasharray="1.2,0.8"/>
<line x1="174.887" y1="97.001" x2="154.265" y2="71.771" stroke="#8c8c8c" stroke-width="0.3" stroke-dasharray="1.2,0.8"/>
<line x1="173.893" y1="99.305" x2="141.391" y2="101.631" stroke="#8c8c8c" stroke-width="0.3" stroke-dasharray="1.2,0.8"/>
<line x1="61.818" y1="56.396" x2="66.747" y2="44.964" stroke="#141414" stroke-width="0.4"/>
<line x1="66.747" y1="44.964" x2="147.267" y2="78.324" stroke="#141414" stroke-width="0.4"/>
<line x1="36.094" y1="95.434" x2="42.486" y2="87.815" stroke="#141414" stroke-width="0.4"/>
<line x1="141.352" y1="92.043" x2="61.818" y2="56.396" stroke="#141414" stroke-width="0.4"/>
<line x1="174.887" y1="97.001" x2="163.201" y2="93.329" stroke="#141414" stroke-width="0.4"/>
<line x1="6.496" y1="177.401" x2="36.094" y2="95.434" stroke="#141414" stroke-width="0.4"/>
<line x1="54.244" y1="101.988" x2="24.646" y2="183.956" stroke="#141414" stroke-width="0.4"/>
<line x1="5.0" y1="209.952" x2="6.496" y2="177.401" stroke="#141414" stroke-width="0.4"/>
<line x1="24.646" y1="183.956" x2="5.0" y2="209.952" stroke="#141414" stroke-width="0.4"/>
<line x1="42.486" y1="87.815" x2="46.356" y2="82.594" stroke="#141414" stroke-width="0.4"/>
<line x1="46.356" y1="82.594" x2="54.553" y2="85.554" stroke="#141414" stroke-width="0.4"/>
<line x1="54.553" y1="85.554" x2="54.195" y2="92.043" stroke="#141414" stroke-width="0.4"/>
<line x1="87.434" y1="14.95" x2="91.319" y2="29.262" stroke="#141414" stroke-width="0.4"/>
<line x1="91.319" y1="29.262" x2="133.202" y2="73.624" stroke="#141414" stroke-width="0.4"/>
<line x1="133.202" y1="73.624" x2="147.267" y2="78.324" stroke="#141414" stroke-width="0.4"/>
<line x1="87.434" y1="14.95" x2="85.128" y2="10.299" stroke="#141414" stroke-width="0.4"/>
<line x1="85.128" y1="10.299" x2="90.213" y2="5.545" stroke="#141414" stroke-width="0.4"/>
<line x1="90.213" y1="5.545" x2="94.699" y2="8.158" stroke="#141414" stroke-width="0.4"/>
<line x1="54.195" y1="92.043" x2="67.269" y2="85.043" stroke="#141414" stroke-width="0.4"/>
<line x1="67.269" y1="85.043" x2="128.278" y2="85.043" stroke="#141414" stroke-width="0.4"/>
<line x1="128.278" y1="85.043" x2="141.352" y2="92.043" stroke="#141414" stroke-width="0.4"/>
<line x1="163.201" y1="93.329" x2="163.486" y2="93.488" stroke="#141414" stroke-width="0.4"/>
<line x1="163.486" y1="93.488" x2="174.729" y2="97.141" stroke="#141414" stroke-width="0.4"/>
<line x1="174.729" y1="97.141" x2="173.893" y2="99.305" stroke="#141414" stroke-width="0.4"/>
<line x1="94.699" y1="8.158" x2="108.743" y2="12.915" stroke="#141414" stroke-width="0.4"/>
<line x1="108.743" y1="12.915" x2="150.44" y2="57.444" stroke="#141414" stroke-width="0.4"/>
<line x1="150.44" y1="57.444" x2="154.265" y2="71.771" stroke="#141414" stroke-width="0.4"/>
<line x1="54.244" y1="101.988" x2="67.345" y2="108.934" stroke="#141414" stroke-width="0.4"/>
<line x1="67.345" y1="108.934" x2="128.348" y2="108.684" stroke="#141414" stroke-width="0.4"/>
<line x1="128.348" y1="108.684" x2="141.391" y2="101.631" stroke="#141414" stroke-width="0.4"/>
<line x1="154.265" y1="71.771" x2="162.778" y2="71.125" stroke="#141414" stroke-width="0.4"/>
<line x1="162.778" y1="71.125" x2="177.214" y2="88.786" stroke="#141414" stroke-width="0.4"/>
<line x1="177.214" y1="88.786" x2="174.887" y2="97.001" stroke="#141414" stroke-width="0.4"/>
<line x1="141.391" y1="101.631" x2="146.766" y2="108.264" stroke="#141414" stroke-width="0.4"/>
<line x1="146.766" y1="108.264" x2="169.518" y2="106.636" stroke="#141414" stroke-width="0.4"/>
<line x1="169.518" y1="106.636" x2="173.893" y2="99.305" stroke="#141414" stroke-width="0.4"/>
<circle cx="49.397" cy="87.001" r="1.15" fill="#99d9fa" stroke="#464646" stroke-width="0.2"/>
<text x="49.397" y="87.55" font-size="1.56" text-anchor="middle" fill="#141414">1</text>
<circle cx="114.805" cy="49.04" r="1.15" fill="#ffe082" stroke="#464646" stroke-width="0.2"/>
<text x="114.805" y="49.59" font-size="1.56" text-anchor="middle" fill="#141414">2</text>
<circle cx="89.368" cy="9.738" r="1.15" fill="#ffe082" stroke="#464646" stroke-width="0.2"/>
<text x="89.368" y="10.28" font-size="1.56" text-anchor="middle" fill="#141414">3</text>
<circle cx="97.773" cy="88.543" r="1.15" fill="#ffe082" stroke="#464646" stroke-width="0.2"/>
<text x="97.773" y="89.09" font-size="1.56" text-anchor="middle" fill="#141414">4</text>
<circle cx="127.037" cy="37.572" r="1.15" fill="#ffe082" stroke="#464646" stroke-width="0.2"/>
<text x="127.037" y="38.12" font-size="1.56" text-anchor="middle" fill="#141414">6</text>
<circle cx="97.832" cy="105.309" r="1.15" fill="#ffe082" stroke="#464646" stroke-width="0.2"/>
<text x="97.832" y="105.86" font-size="1.56" text-anchor="middle" fill="#141414">7</text>
<circle cx="167.286" cy="82.171" r="1.15" fill="#ffe082" stroke="#464646" stroke-width="0.2"/>
<text x="167.286" y="82.72" font-size="1.56" text-anchor="middle" fill="#141414">8</text>
<circle cx="157.892" cy="103.959" r="1.15" fill="#ffe082" stroke="#464646" stroke-width="0.2"/>
<text x="157.892" y="104.51" font-size="1.56" text-anchor="middle" fill="#141414">9</text>
<circle cx="91.107" cy="215.508" r="4.6" fill="#eaf1fe" stroke="#2e78e6" stroke-width="0.3"/>
<text x="91.107" y="217.30800000000002" font-size="5.2" text-anchor="middle" fill="#14306e" font-weight="bold">1</text>
<polygon points="28.106,229.232 31.706,234.243 30.029,238.129 23.913,238.948" fill="rgb(216,216,216)"/>
<polygon points="34.949,221.16 39.581,218.151 45.231,222.941 43.02,228.004" fill="rgb(216,216,216)"/>
<polygon points="34.949,221.16 36.037,216.64 30.65,213.5 27.253,216.676" fill="rgb(216,216,216)"/>
<polygon points="36.177,236.075 41.239,238.286 46.03,232.636 43.02,228.004" fill="rgb(216,216,216)"/>
<polygon points="22.422,222.373 20.298,219.103 23.68,215.115 27.253,216.676" fill="rgb(216,216,216)"/>
<polygon points="22.422,222.373 20.004,220.182 17.874,225.12 19.463,229.232" fill="rgb(216,216,216)"/>
<polygon points="10.203,224.148 6.943,223.999 8.446,229.163 12.291,231.32" fill="rgb(216,216,216)"/>
<polygon points="28.106,229.232 31.706,234.243 30.029,238.129 23.913,238.948" fill="#99d9fa"/>
<line x1="34.949" y1="221.16" x2="28.105" y2="229.232" stroke="#8c8c8c" stroke-width="0.3" stroke-dasharray="1.2,0.8"/>
<line x1="22.422" y1="222.373" x2="28.105" y2="229.232" stroke="#8c8c8c" stroke-width="0.3" stroke-dasharray="1.2,0.8"/>
<line x1="23.913" y1="238.948" x2="19.463" y2="229.232" stroke="#8c8c8c" stroke-width="0.3" stroke-dasharray="1.2,0.8"/>
<line x1="13.753" y1="241.907" x2="12.291" y2="231.32" stroke="#8c8c8c" stroke-width="0.3" stroke-dasharray="1.2,0.8"/>
<line x1="19.463" y1="229.232" x2="12.291" y2="231.32" stroke="#8c8c8c" stroke-width="0.3" stroke-dasharray="1.2,0.8"/>
<line x1="23.913" y1="238.948" x2="28.106" y2="229.232" stroke="#8c8c8c" stroke-width="0.3" stroke-dasharray="1.2,0.8"/>
<line x1="43.02" y1="228.004" x2="34.949" y2="221.16" stroke="#8c8c8c" stroke-width="0.3" stroke-dasharray="1.2,0.8"/>
<line x1="27.253" y1="216.676" x2="34.949" y2="221.16" stroke="#8c8c8c" stroke-width="0.3" stroke-dasharray="1.2,0.8"/>
<line x1="43.02" y1="228.004" x2="36.177" y2="236.075" stroke="#8c8c8c" stroke-width="0.3" stroke-dasharray="1.2,0.8"/>
<line x1="27.253" y1="216.676" x2="22.422" y2="222.373" stroke="#8c8c8c" stroke-width="0.3" stroke-dasharray="1.2,0.8"/>
<line x1="19.463" y1="229.232" x2="22.422" y2="222.373" stroke="#8c8c8c" stroke-width="0.3" stroke-dasharray="1.2,0.8"/>
<line x1="12.291" y1="231.32" x2="10.203" y2="224.148" stroke="#8c8c8c" stroke-width="0.3" stroke-dasharray="1.2,0.8"/>
<line x1="36.177" y1="236.075" x2="28.105" y2="229.232" stroke="#141414" stroke-width="0.4"/>
<line x1="13.753" y1="241.907" x2="5.0" y2="235.96" stroke="#141414" stroke-width="0.4"/>
<line x1="5.0" y1="235.96" x2="6.113" y2="227.122" stroke="#141414" stroke-width="0.4"/>
<line x1="23.913" y1="238.948" x2="13.753" y2="241.907" stroke="#141414" stroke-width="0.4"/>
<line x1="10.203" y1="224.148" x2="17.375" y2="222.06" stroke="#141414" stroke-width="0.4"/>
<line x1="17.375" y1="222.06" x2="19.463" y2="229.232" stroke="#141414" stroke-width="0.4"/>
<line x1="6.113" y1="227.122" x2="12.291" y2="231.32" stroke="#141414" stroke-width="0.4"/>
<line x1="28.106" y1="229.232" x2="31.706" y2="234.243" stroke="#141414" stroke-width="0.4"/>
<line x1="31.706" y1="234.243" x2="30.029" y2="238.129" stroke="#141414" stroke-width="0.4"/>
<line x1="30.029" y1="238.129" x2="23.913" y2="238.948" stroke="#141414" stroke-width="0.4"/>
<line x1="34.949" y1="221.16" x2="39.581" y2="218.151" stroke="#141414" stroke-width="0.4"/>
<line x1="39.581" y1="218.151" x2="45.231" y2="222.941" stroke="#141414" stroke-width="0.4"/>
<line x1="45.231" y1="222.941" x2="43.02" y2="228.004" stroke="#141414" stroke-width="0.4"/>
<line x1="34.949" y1="221.16" x2="36.037" y2="216.64" stroke="#141414" stroke-width="0.4"/>
<line x1="36.037" y1="216.64" x2="30.65" y2="213.5" stroke="#141414" stroke-width="0.4"/>
<line x1="30.65" y1="213.5" x2="27.253" y2="216.676" stroke="#141414" stroke-width="0.4"/>
<line x1="36.177" y1="236.075" x2="41.239" y2="238.286" stroke="#141414" stroke-width="0.4"/>
<line x1="41.239" y1="238.286" x2="46.03" y2="232.636" stroke="#141414" stroke-width="0.4"/>
<line x1="46.03" y1="232.636" x2="43.02" y2="228.004" stroke="#141414" stroke-width="0.4"/>
<line x1="22.422" y1="222.373" x2="20.298" y2="219.103" stroke="#141414" stroke-width="0.4"/>
<line x1="20.298" y1="219.103" x2="23.68" y2="215.115" stroke="#141414" stroke-width="0.4"/>
<line x1="23.68" y1="215.115" x2="27.253" y2="216.676" stroke="#141414" stroke-width="0.4"/>
<line x1="22.422" y1="222.373" x2="20.004" y2="220.182" stroke="#141414" stroke-width="0.4"/>
<line x1="20.004" y1="220.182" x2="17.874" y2="225.12" stroke="#141414" stroke-width="0.4"/>
<line x1="17.874" y1="225.12" x2="19.463" y2="229.232" stroke="#141414" stroke-width="0.4"/>
<line x1="10.203" y1="224.148" x2="6.943" y2="223.999" stroke="#141414" stroke-width="0.4"/>
<line x1="6.943" y1="223.999" x2="8.446" y2="229.163" stroke="#141414" stroke-width="0.4"/>
<line x1="8.446" y1="229.163" x2="12.291" y2="231.32" stroke="#141414" stroke-width="0.4"/>
<circle cx="28.438" cy="235.138" r="1.15" fill="#99d9fa" stroke="#464646" stroke-width="0.2"/>
<text x="28.438" y="235.68" font-size="1.56" text-anchor="middle" fill="#141414">38</text>
<circle cx="40.696" cy="222.564" r="1.15" fill="#ffe082" stroke="#464646" stroke-width="0.2"/>
<text x="40.696" y="223.11" font-size="1.56" text-anchor="middle" fill="#141414">39</text>
<circle cx="32.222" cy="216.994" r="1.15" fill="#ffe082" stroke="#464646" stroke-width="0.2"/>
<text x="32.222" y="217.54" font-size="1.56" text-anchor="middle" fill="#141414">40</text>
<circle cx="41.617" cy="233.75" r="1.15" fill="#ffe082" stroke="#464646" stroke-width="0.2"/>
<text x="41.617" y="234.30" font-size="1.56" text-anchor="middle" fill="#141414">41</text>
<circle cx="23.414" cy="218.317" r="1.15" fill="#ffe082" stroke="#464646" stroke-width="0.2"/>
<text x="23.414" y="218.86" font-size="1.56" text-anchor="middle" fill="#141414">42</text>
<circle cx="19.941" cy="224.227" r="1.15" fill="#ffe082" stroke="#464646" stroke-width="0.2"/>
<text x="19.941" y="224.77" font-size="1.56" text-anchor="middle" fill="#141414">43</text>
<circle cx="9.471" cy="227.158" r="1.15" fill="#ffe082" stroke="#464646" stroke-width="0.2"/>
<text x="9.471" y="227.70" font-size="1.56" text-anchor="middle" fill="#141414">44</text>
<circle cx="25.515" cy="206.308" r="4.6" fill="#eaf1fe" stroke="#2e78e6" stroke-width="0.3"/>
<text x="25.515" y="208.108" font-size="5.2" text-anchor="middle" fill="#14306e" font-weight="bold">6</text>
<text x="205.0" y="295.0" font-size="3.2" text-anchor="end" fill="#737373" font-family="sans-serif">1 / 4</text>
</svg>
