<svg xmlns="http://www.w3.org/2000/svg" xmlns:xlink="http://www.w3.org/1999/xlink" width="210.00mm" height="297.00mm" viewBox="0 0 210.00 297.00">
<rect x="0" y="0" width="210.00" height="297.00" fill="#ffffff" stroke="#cccccc" stroke-width="0.2"/>
<polygon points="71.722,13.534 74.77,19.153 67.174,34.745 60.872,35.809" fill="rgb(216,216,216)"/>
<polygon points="71.722,13.534 64.531,8.334 30.972,8.334 23.781,13.534" fill="rgb(216,216,216)"/>
<polygon points="106.202,113.194 111.719,103.642 112.145,90.678 107.267,80.785" fill="rgb(216,216,216)"/>
<polygon points="81.52,82.915 84.953,77.413 102.976,75.922 107.267,80.785" fill="rgb(216,216,216)"/>
<polygon points="81.52,82.915 83.278,71.632 82.066,67.953 73.946,59.924" fill="rgb(216,216,216)"/>
<polygon points="28.842,82.776 22.851,81.368 17.823,66.851 21.66,62.038" fill="rgb(216,216,216)"/>
<polygon points="165.894,196.744 172.261,191.304 178.158,161.243 174.319,153.8" fill="rgb(216,216,216)"/>
<polygon points="119.224,150.187 113.875,154.459 113.168,175.223 118.214,179.85" fill="rgb(216,216,216)"/>
<polygon points="21.66,62.038 15.329,60.498 8.061,43.682 11.276,38.016" fill="rgb(216,216,216)"/>
<polygon points="23.781,13.534 17.274,14.841 8.521,31.978 11.276,38.016" fill="rgb(216,216,216)"/>
<polygon points="171.19,130.937 176.811,133.661 179.002,149.665 174.319,153.8" fill="rgb(216,216,216)"/>
<polygon points="28.842,82.776 22.851,81.368 17.823,66.851 21.66,62.038" fill="#99d9fa"/>
<line x1="71.722" y1="13.534" x2="11.276" y2="38.016" stroke="#8c8c8c" stroke-width="0.3" stroke-dasharray="1.2,0.8"/>
<line x1="106.202" y1="113.194" x2="81.52" y2="82.915" stroke="#8c8c8c" stroke-width="0.3" stroke-dasharray="1.2,0.8"/>
<line x1="137.917" y1="125.549" x2="106.202" y2="113.194" stroke="#8c8c8c" stroke-width="0.3" stroke-dasharray="1.2,0.8"/>
<line x1="106.202" y1="113.194" x2="73.441" y2="128.234" stroke="#8c8c8c" stroke-width="0.3" stroke-dasharray="1.2,0.8"/>
<line x1="119.224" y1="150.187" x2="106.202" y2="113.194" stroke="#8c8c8c" stroke-width="0.3" stroke-dasharray="1.2,0.8"/>
<line x1="106.202" y1="113.194" x2="91.186" y2="143.164" stroke="#8c8c8c" stroke-width="0.3" stroke-dasharray="1.2,0.8"/>
<line x1="81.52" y1="82.915" x2="28.842" y2="82.776" stroke="#8c8c8c" stroke-width="0.3" stroke-dasharray="1.2,0.8"/>
<line x1="134.843" y1="97.989" x2="137.917" y2="125.549" stroke="#8c8c8c" stroke-width="0.3" stroke-dasharray="1.2,0.8"/>
<line x1="73.946" y1="59.924" x2="28.842" y2="82.776" stroke="#8c8c8c" stroke-width="0.3" stroke-dasharray="1.2,0.8"/>
<line x1="28.842" y1="82.776" x2="55.745" y2="112.488" stroke="#8c8c8c" stroke-width="0.3" stroke-dasharray="1.2,0.8"/>
<line x1="28.27" y1="113.405" x2="28.842" y2="82.776" stroke="#8c8c8c" stroke-width="0.3" stroke-dasharray="1.2,0.8"/>
<line x1="144.072" y1="150.117" x2="171.19" y2="130.937" stroke="#8c8c8c" stroke-width="0.3" stroke-dasharray="1.2,0.8"/>
<line x1="174.319" y1="153.8" x2="144.072" y2="150.117" stroke="#8c8c8c" stroke-width="0.3" stroke-dasharray="1.2,0.8"/>
<line x1="21.66" y1="62.038" x2="73.946" y2="59.924" stroke="#8c8c8c" stroke-width="0.3" stroke-dasharray="1.2,0.8"/>
<line x1="60.872" y1="35.809" x2="21.66" y2="62.038" stroke="#8c8c8c" stroke-width="0.3" stroke-dasharray="1.2,0.8"/>
<line x1="60.872" y1="35.809" x2="11.276" y2="38.016" stroke="#8c8c8c" stroke-width="0.3" stroke-dasharray="1.2,0.8"/>
<line x1="91.186" y1="143.164" x2="73.441" y2="128.234" stroke="#8c8c8c" stroke-width="0.3" stroke-dasharray="1.2,0.8"/>
<line x1="81.52" y1="82.915" x2="55.745" y2="112.488" stroke="#8c8c8c" stroke-width="0.3" stroke-dasharray="1.2,0.8"/>
<line x1="137.917" y1="125.549" x2="119.224" y2="150.187" stroke="#8c8c8c" stroke-width="0.3" stroke-dasharray="1.2,0.8"/>
<line x1="171.19" y1="130.937" x2="137.917" y2="125.549" stroke="#8c8c8c" stroke-width="0.3" stroke-dasharray="1.2,0.8"/>
<line x1="118.214" y1="179.85" x2="137.917" y2="125.549" stroke="#8c8c8c" stroke-width="0.3" stroke-dasharray="1.2,0.8"/>
<line x1="73.441" y1="128.234" x2="55.223" y2="191.22" stroke="#8c8c8c" stroke-width="0.3" stroke-dasharray="1.2,0.8"/>
<line x1="60.872" y1="35.809" x2="71.722" y2="13.534" stroke="#8c8c8c" stroke-width="0.3" stroke-dasharray="1.2,0.8"/>
<line x1="23.781" y1="13.534" x2="71.722" y2="13.534" stroke="#8c8c8c" stroke-width="0.3" stroke-dasharray="1.2,0.8"/>
<line x1="107.267" y1="80.785" x2="106.202" y2="113.194" stroke="#8c8c8c" stroke-width="0.3" stroke-dasharray="1.2,0.8"/>
<line x1="107.267" y1="80.785" x2="81.52" y2="82.915" stroke="#8c8c8c" stroke-width="0.3" stroke-dasharray="1.2,0.8"/>
<line x1="73.946" y1="59.924" x2="81.52" y2="82.915" stroke="#8c8c8c" stroke-width="0.3" stroke-dasharray="1.2,0.8"/>
<line x1="21.66" y1="62.038" x2="28.842" y2="82.776" stroke="#8c8c8c" stroke-width="0.3" stroke-dasharray="1.2,0.8"/>
<line x1="174.319" y1="153.8" x2="165.894" y2="196.744" stroke="#8c8c8c" stroke-width="0.3" stroke-dasharray="1.2,0.8"/>
<line x1="118.214" y1="179.85" x2="119.224" y2="150.187" stroke="#8c8c8c" stroke-width="0.3" stroke-dasharray="1.2,0.8"/>
<line x1="11.276" y1="38.016" x2="21.66" y2="62.038" stroke="#8c8c8c" stroke-width="0.3" stroke-dasharray="1.2,0.8"/>
<line x1="11.276" y1="38.016" x2="23.781" y2="13.534" stroke="#8c8c8c" stroke-width="0.3" stroke-dasharray="1.2,0.8"/>
<line x1="174.319" y1="153.8" x2="171.19" y2="130.937" stroke="#8c8c8c" stroke-width="0.3" stroke-dasharray="1.2,0.8"/>
<line x1="106.202" y1="113.194" x2="134.843" y2="97.989" stroke="#141414" stroke-width="0.4"/>
<line x1="144.072" y1="150.117" x2="137.917" y2="125.549" stroke="#141414" stroke-width="0.4"/>
<line x1="137.917" y1="125.549" x2="146.997" y2="178.847" stroke="#141414" stroke-width="0.4"/>
<line x1="10.245" y1="94.431" x2="28.842" y2="82.776" stroke="#141414" stroke-width="0.4"/>
<line x1="134.843" y1="97.989" x2="171.19" y2="130.937" stroke="#141414" stroke-width="0.4"/>
<line x1="165.894" y1="196.744" x2="144.072" y2="150.117" stroke="#141414" stroke-width="0.4"/>
<line x1="60.872" y1="35.809" x2="73.946" y2="59.924" stroke="#141414" stroke-width="0.4"/>
<line x1="146.997" y1="178.847" x2="118.214" y2="179.85" stroke="#141414" stroke-width="0.4"/>
<line x1="73.441" y1="128.234" x2="55.745" y2="112.488" stroke="#141414" stroke-width="0.4"/>
<line x1="41.668" y1="159.437" x2="73.441" y2="128.234" stroke="#141414" stroke-width="0.4"/>
<line x1="119.224" y1="150.187" x2="91.186" y2="143.164" stroke="#141414" stroke-width="0.4"/>
<line x1="91.186" y1="143.164" x2="55.223" y2="191.22" stroke="#141414" stroke-width="0.4"/>
<line x1="28.27" y1="113.405" x2="10.245" y2="94.431" stroke="#141414" stroke-width="0.4"/>
<line x1="55.745" y1="112.488" x2="28.27" y2="113.405" stroke="#141414" stroke-width="0.4"/>
<line x1="55.223" y1="191.22" x2="41.668" y2="159.437" stroke="#141414" stroke-width="0.4"/>
<line x1="71.722" y1="13.534" x2="74.77" y2="19.153" stroke="#141414" stroke-width="0.4"/>
<line x1="74.77" y1="19.153" x2="67.174" y2="34.745" stroke="#141414" stroke-width="0.4"/>
<line x1="67.174" y1="34.745" x2="60.872" y2="35.809" stroke="#141414" stroke-width="0.4"/>
<line x1="71.722" y1="13.534" x2="64.531" y2="8.334" stroke="#141414" stroke-width="0.4"/>
<line x1="64.531" y1="8.334" x2="30.972" y2="8.334" stroke="#141414" stroke-width="0.4"/>
<line x1="30.972" y1="8.334" x2="23.781" y2="13.534" stroke="#141414" stroke-width="0.4"/>
<line x1="106.202" y1="113.194" x2="111.719" y2="103.642" stroke="#141414" stroke-width="0.4"/>
<line x1="111.719" y1="103.642" x2="112.145" y2="90.678" stroke="#141414" stroke-width="0.4"/>
<line x1="112.145" y1="90.678" x2="107.267" y2="80.785" stroke="#141414" stroke-width="0.4"/>
<line x1="81.52" y1="82.915" x2="84.953" y2="77.413" stroke="#141414" stroke-width="0.4"/>
<line x1="84.953" y1="77.413" x2="102.976" y2="75.922" stroke="#141414" stroke-width="0.4"/>
<line x1="102.976" y1="75.922" x2="107.267" y2="80.785" stroke="#141414" stroke-width="0.4"/>
<line x1="81.52" y1="82.915" x2="83.278" y2="71.632" stroke="#141414" stroke-width="0.4"/>
<line x1="83.278" y1="71.632" x2="82.066" y2="67.953" stroke="#141414" stroke-width="0.4"/>
<line x1="82.066" y1="67.953" x2="73.946" y2="59.924" stroke="#141414" stroke-width="0.4"/>
<line x1="28.842" y1="82.776" x2="22.851" y2="81.368" stroke="#141414" stroke-width="0.4"/>
<line x1="22.851" y1="81.368" x2="17.823" y2="66.851" stroke="#141414" stroke-width="0.4"/>
<line x1="17.823" y1="66.851" x2="21.66" y2="62.038" stroke="#141414" stroke-width="0.4"/>
<line x1="165.894" y1="196.744" x2="172.261" y2="191.304" stroke="#141414" stroke-width="0.4"/>
<line x1="172.261" y1="191.304" x2="178.158" y2="161.243" stroke="#141414" stroke-width="0.4"/>
<line x1="178.158" y1="161.243" x2="174.319" y2="153.8" stroke="#141414" stroke-width="0.4"/>
<line x1="119.224" y1="150.187" x2="113.875" y2="154.459" stroke="#141414" stroke-width="0.4"/>
<line x1="113.875" y1="154.459" x2="113.168" y2="175.223" stroke="#141414" stroke-width="0.4"/>
<line x1="113.168" y1="175.223" x2="118.214" y2="179.85" stroke="#141414" stroke-width="0.4"/>
<line x1="21.66" y1="62.038" x2="15.329" y2="60.498" stroke="#141414" stroke-width="0.4"/>
<line x1="15.329" y1="60.498" x2="8.061" y2="43.682" stroke="#141414" stroke-width="0.4"/>
<line x1="8.061" y1="43.682" x2="11.276" y2="38.016" stroke="#141414" stroke-width="0.4"/>
<line x1="23.781" y1="13.534" x2="17.274" y2="14.841" stroke="#141414" stroke-width="0.4"/>
<line x1="17.274" y1="14.841" x2="8.521" y2="31.978" stroke="#141414" stroke-width="0.4"/>
<line x1="8.521" y1="31.978" x2="11.276" y2="38.016" stroke="#141414" stroke-width="0.4"/>
<line x1="171.19" y1="130.937" x2="176.811" y2="133.661" stroke="#141414" stroke-width="0.4"/>
<line x1="176.811" y1="133.661" x2="179.002" y2="149.665" stroke="#141414" stroke-width="0.4"/>
<line x1="179.002" y1="149.665" x2="174.319" y2="153.8" stroke="#141414" stroke-width="0.4"/>
<circle cx="68.634" cy="25.81" r="2.23" fill="#ffe082" stroke="#464646" stroke-width="0.2"/>
<text x="68.634" y="26.57" font-size="2.18" text-anchor="middle" fill="#141414">94</text>
<circle cx="47.751" cy="10.934" r="2.23" fill="#ffe082" stroke="#464646" stroke-width="0.2"/>
<text x="47.751" y="11.70" font-size="2.18" text-anchor="middle" fill="#141414">95</text>
<circle cx="109.333" cy="97.075" r="2.23" fill="#ffe082" stroke="#464646" stroke-width="0.2"/>
<text x="109.333" y="97.84" font-size="2.18" text-anchor="middle" fill="#141414">96</text>
<circle cx="94.179" cy="79.259" r="2.23" fill="#ffe082" stroke="#464646" stroke-width="0.2"/>
<text x="94.179" y="80.02" font-size="2.18" text-anchor="middle" fill="#141414">99</text>
<circle cx="80.202" cy="70.606" r="2.23" fill="#ffe082" stroke="#464646" stroke-width="0.2"/>
<text x="80.202" y="71.37" font-size="2.18" text-anchor="middle" fill="#141414">100</text>
<circle cx="22.794" cy="73.258" r="2.23" fill="#99d9fa" stroke="#464646" stroke-width="0.2"/>
<text x="22.794" y="74.02" font-size="2.18" text-anchor="middle" fill="#141414">104</text>
<circle cx="172.658" cy="175.773" r="2.23" fill="#ffe082" stroke="#464646" stroke-width="0.2"/>
<text x="172.658" y="176.54" font-size="2.18" text-anchor="middle" fill="#141414">109</text>
<circle cx="116.12" cy="164.93" r="2.23" fill="#ffe082" stroke="#464646" stroke-width="0.2"/>
<text x="116.12" y="165.69" font-size="2.18" text-anchor="middle" fill="#141414">113</text>
<circle cx="14.082" cy="51.059" r="2.23" fill="#ffe082" stroke="#464646" stroke-width="0.2"/>
<text x="14.082" y="51.82" font-size="2.18" text-anchor="middle" fill="#141414">116</text>
<circle cx="15.213" cy="24.592" r="2.23" fill="#ffe082" stroke="#464646" stroke-width="0.2"/>
<text x="15.213" y="25.36" font-size="2.18" text-anchor="middle" fill="#141414">118</text>
<circle cx="175.331" cy="142.016" r="2.23" fill="#ffe082" stroke="#464646" stroke-width="0.2"/>
<text x="175.331" y="142.78" font-size="2.18" text-anchor="middle" fill="#141414">121</text>
<circle cx="56.777" cy="159.63" r="4.60" fill="#eaf1fe" stroke="#2e78e6" stroke-width="0.3"/>
<text x="56.777" y="161.43" font-size="5.20" text-anchor="middle" fill="#14306e" font-weight="bold">14</text>
<text x="205.0" y="295.0" font-size="3.2" text-anchor="end" fill="#737373" font-family="sans-serif">10 / 12</text>
</svg>
