<svg xmlns="http://www.w3.org/2000/svg" xmlns:xlink="http://www.w3.org/1999/xlink" width="210.00mm" height="297.00mm" viewBox="0 0 210.00 297.00">
<rect x="0" y="0" width="210.00" height="297.00" fill="#ffffff" stroke="#cccccc" stroke-width="0.2"/>
<polygon points="55.904,86.792 45.108,91.459 38.789,102.362 40.106,114.05" fill="rgb(216,216,216)"/>
<polygon points="40.106,114.05 49.276,120.778 61.222,120.419 69.972,113.153" fill="rgb(216,216,216)"/>
<polygon points="24.474,84.62 24.034,73.255 31.02,63.558 41.939,60.376" fill="rgb(216,216,216)"/>
<polygon points="12.068,59.672 8.249,52.196 18.878,33.362 27.252,32.767" fill="rgb(216,216,216)"/>
<polygon points="131.318,113.523 135.005,121.122 123.946,140.202 115.52,140.781" fill="rgb(216,216,216)"/>
<polygon points="131.318,113.523 122.148,106.795 110.201,107.154 101.452,114.42" fill="rgb(216,216,216)"/>
<polygon points="75.98,9.341 76.42,20.705 69.434,30.403 58.515,33.584" fill="rgb(216,216,216)"/>
<polygon points="104.096,61.194 94.828,54.194 82.47,54.194 73.202,61.194" fill="rgb(216,216,216)"/>
<polygon points="104.096,61.194 104.707,72.793 97.788,83.032 86.798,86.792" fill="rgb(216,216,216)"/>
<polygon points="44.55,7.169 36.155,7.089 24.047,25.008 27.252,32.767" fill="rgb(216,216,216)"/>
<polygon points="115.52,140.781 106.251,147.781 93.894,147.781 84.625,140.781" fill="rgb(216,216,216)"/>
<polygon points="24.474,84.62 24.034,73.255 31.02,63.558 41.939,60.376" fill="#99d9fa"/>
<line x1="69.972" y1="113.153" x2="55.904" y2="86.792" stroke="#8c8c8c" stroke-width="0.3" stroke-dasharray="1.2,0.8"/>
<line x1="41.939" y1="60.377" x2="55.904" y2="86.792" stroke="#8c8c8c" stroke-width="0.3" stroke-dasharray="1.2,0.8"/>
<line x1="73.202" y1="61.194" x2="55.904" y2="86.792" stroke="#8c8c8c" stroke-width="0.3" stroke-dasharray="1.2,0.8"/>
<line x1="55.904" y1="86.792" x2="86.799" y2="86.792" stroke="#8c8c8c" stroke-width="0.3" stroke-dasharray="1.2,0.8"/>
<line x1="84.625" y1="140.781" x2="53.831" y2="138.298" stroke="#8c8c8c" stroke-width="0.3" stroke-dasharray="1.2,0.8"/>
<line x1="101.452" y1="114.42" x2="115.52" y2="140.781" stroke="#8c8c8c" stroke-width="0.3" stroke-dasharray="1.2,0.8"/>
<line x1="58.515" y1="33.584" x2="44.55" y2="7.169" stroke="#8c8c8c" stroke-width="0.3" stroke-dasharray="1.2,0.8"/>
<line x1="101.452" y1="114.42" x2="69.972" y2="113.153" stroke="#8c8c8c" stroke-width="0.3" stroke-dasharray="1.2,0.8"/>
<line x1="84.625" y1="140.781" x2="101.452" y2="114.42" stroke="#8c8c8c" stroke-width="0.3" stroke-dasharray="1.2,0.8"/>
<line x1="86.799" y1="86.792" x2="101.452" y2="114.42" stroke="#8c8c8c" stroke-width="0.3" stroke-dasharray="1.2,0.8"/>
<line x1="69.972" y1="113.153" x2="84.625" y2="140.781" stroke="#8c8c8c" stroke-width="0.3" stroke-dasharray="1.2,0.8"/>
<line x1="86.799" y1="86.792" x2="69.972" y2="113.153" stroke="#8c8c8c" stroke-width="0.3" stroke-dasharray="1.2,0.8"/>
<line x1="41.939" y1="60.377" x2="58.515" y2="33.584" stroke="#8c8c8c" stroke-width="0.3" stroke-dasharray="1.2,0.8"/>
<line x1="58.515" y1="33.584" x2="27.252" y2="32.767" stroke="#8c8c8c" stroke-width="0.3" stroke-dasharray="1.2,0.8"/>
<line x1="58.515" y1="33.584" x2="73.202" y2="61.194" stroke="#8c8c8c" stroke-width="0.3" stroke-dasharray="1.2,0.8"/>
<line x1="27.252" y1="32.767" x2="41.939" y2="60.377" stroke="#8c8c8c" stroke-width="0.3" stroke-dasharray="1.2,0.8"/>
<line x1="41.939" y1="60.377" x2="73.202" y2="61.194" stroke="#8c8c8c" stroke-width="0.3" stroke-dasharray="1.2,0.8"/>
<line x1="69.015" y1="165.203" x2="84.625" y2="140.781" stroke="#8c8c8c" stroke-width="0.3" stroke-dasharray="1.2,0.8"/>
<line x1="73.202" y1="61.194" x2="86.799" y2="86.792" stroke="#8c8c8c" stroke-width="0.3" stroke-dasharray="1.2,0.8"/>
<line x1="40.106" y1="114.05" x2="55.904" y2="86.792" stroke="#8c8c8c" stroke-width="0.3" stroke-dasharray="1.2,0.8"/>
<line x1="69.972" y1="113.153" x2="40.106" y2="114.05" stroke="#8c8c8c" stroke-width="0.3" stroke-dasharray="1.2,0.8"/>
<line x1="41.939" y1="60.376" x2="24.474" y2="84.62" stroke="#8c8c8c" stroke-width="0.3" stroke-dasharray="1.2,0.8"/>
<line x1="27.252" y1="32.767" x2="12.068" y2="59.672" stroke="#8c8c8c" stroke-width="0.3" stroke-dasharray="1.2,0.8"/>
<line x1="115.52" y1="140.781" x2="131.318" y2="113.523" stroke="#8c8c8c" stroke-width="0.3" stroke-dasharray="1.2,0.8"/>
<line x1="101.452" y1="114.42" x2="131.318" y2="113.523" stroke="#8c8c8c" stroke-width="0.3" stroke-dasharray="1.2,0.8"/>
<line x1="58.515" y1="33.584" x2="75.98" y2="9.341" stroke="#8c8c8c" stroke-width="0.3" stroke-dasharray="1.2,0.8"/>
<line x1="73.202" y1="61.194" x2="104.096" y2="61.194" stroke="#8c8c8c" stroke-width="0.3" stroke-dasharray="1.2,0.8"/>
<line x1="86.798" y1="86.792" x2="104.096" y2="61.194" stroke="#8c8c8c" stroke-width="0.3" stroke-dasharray="1.2,0.8"/>
<line x1="27.252" y1="32.767" x2="44.55" y2="7.169" stroke="#8c8c8c" stroke-width="0.3" stroke-dasharray="1.2,0.8"/>
<line x1="84.625" y1="140.781" x2="115.52" y2="140.781" stroke="#8c8c8c" stroke-width="0.3" stroke-dasharray="1.2,0.8"/>
<line x1="55.904" y1="86.792" x2="24.474" y2="84.62" stroke="#141414" stroke-width="0.4"/>
<line x1="53.831" y1="138.298" x2="69.972" y2="113.153" stroke="#141414" stroke-width="0.4"/>
<line x1="41.939" y1="60.377" x2="12.068" y2="59.672" stroke="#141414" stroke-width="0.4"/>
<line x1="69.015" y1="165.203" x2="53.831" y2="138.298" stroke="#141414" stroke-width="0.4"/>
<line x1="44.55" y1="7.169" x2="75.98" y2="9.341" stroke="#141414" stroke-width="0.4"/>
<line x1="117.593" y1="89.275" x2="101.452" y2="114.42" stroke="#141414" stroke-width="0.4"/>
<line x1="58.515" y1="33.584" x2="88.386" y2="34.289" stroke="#141414" stroke-width="0.4"/>
<line x1="88.386" y1="34.289" x2="73.202" y2="61.194" stroke="#141414" stroke-width="0.4"/>
<line x1="86.799" y1="86.792" x2="117.593" y2="89.275" stroke="#141414" stroke-width="0.4"/>
<line x1="99.809" y1="167.686" x2="69.015" y2="165.203" stroke="#141414" stroke-width="0.4"/>
<line x1="84.625" y1="140.781" x2="99.809" y2="167.686" stroke="#141414" stroke-width="0.4"/>
<line x1="55.904" y1="86.792" x2="45.108" y2="91.459" stroke="#141414" stroke-width="0.4"/>
<line x1="45.108" y1="91.459" x2="38.789" y2="102.362" stroke="#141414" stroke-width="0.4"/>
<line x1="38.789" y1="102.362" x2="40.106" y2="114.05" stroke="#141414" stroke-width="0.4"/>
<line x1="40.106" y1="114.05" x2="49.276" y2="120.778" stroke="#141414" stroke-width="0.4"/>
<line x1="49.276" y1="120.778" x2="61.222" y2="120.419" stroke="#141414" stroke-width="0.4"/>
<line x1="61.222" y1="120.419" x2="69.972" y2="113.153" stroke="#141414" stroke-width="0.4"/>
<line x1="24.474" y1="84.62" x2="24.034" y2="73.255" stroke="#141414" stroke-width="0.4"/>
<line x1="24.034" y1="73.255" x2="31.02" y2="63.558" stroke="#141414" stroke-width="0.4"/>
<line x1="31.02" y1="63.558" x2="41.939" y2="60.376" stroke="#141414" stroke-width="0.4"/>
<line x1="12.068" y1="59.672" x2="8.249" y2="52.196" stroke="#141414" stroke-width="0.4"/>
<line x1="8.249" y1="52.196" x2="18.878" y2="33.362" stroke="#141414" stroke-width="0.4"/>
<line x1="18.878" y1="33.362" x2="27.252" y2="32.767" stroke="#141414" stroke-width="0.4"/>
<line x1="131.318" y1="113.523" x2="135.005" y2="121.122" stroke="#141414" stroke-width="0.4"/>
<line x1="135.005" y1="121.122" x2="123.946" y2="140.202" stroke="#141414" stroke-width="0.4"/>
<line x1="123.946" y1="140.202" x2="115.52" y2="140.781" stroke="#141414" stroke-width="0.4"/>
<line x1="131.318" y1="113.523" x2="122.148" y2="106.795" stroke="#141414" stroke-width="0.4"/>
<line x1="122.148" y1="106.795" x2="110.201" y2="107.154" stroke="#141414" stroke-width="0.4"/>
<line x1="110.201" y1="107.154" x2="101.452" y2="114.42" stroke="#141414" stroke-width="0.4"/>
<line x1="75.98" y1="9.341" x2="76.42" y2="20.705" stroke="#141414" stroke-width="0.4"/>
<line x1="76.42" y1="20.705" x2="69.434" y2="30.403" stroke="#141414" stroke-width="0.4"/>
<line x1="69.434" y1="30.403" x2="58.515" y2="33.584" stroke="#141414" stroke-width="0.4"/>
<line x1="104.096" y1="61.194" x2="94.828" y2="54.194" stroke="#141414" stroke-width="0.4"/>
<line x1="94.828" y1="54.194" x2="82.47" y2="54.194" stroke="#141414" stroke-width="0.4"/>
<line x1="82.47" y1="54.194" x2="73.202" y2="61.194" stroke="#141414" stroke-width="0.4"/>
<line x1="104.096" y1="61.194" x2="104.707" y2="72.793" stroke="#141414" stroke-width="0.4"/>
<line x1="104.707" y1="72.793" x2="97.788" y2="83.032" stroke="#141414" stroke-width="0.4"/>
<line x1="97.788" y1="83.032" x2="86.798" y2="86.792" stroke="#141414" stroke-width="0.4"/>
<line x1="44.55" y1="7.169" x2="36.155" y2="7.089" stroke="#141414" stroke-width="0.4"/>
<line x1="36.155" y1="7.089" x2="24.047" y2="25.008" stroke="#141414" stroke-width="0.4"/>
<line x1="24.047" y1="25.008" x2="27.252" y2="32.767" stroke="#141414" stroke-width="0.4"/>
<line x1="115.52" y1="140.781" x2="106.251" y2="147.781" stroke="#141414" stroke-width="0.4"/>
<line x1="106.251" y1="147.781" x2="93.894" y2="147.781" stroke="#141414" stroke-width="0.4"/>
<line x1="93.894" y1="147.781" x2="84.625" y2="140.781" stroke="#141414" stroke-width="0.4"/>
<circle cx="44.977" cy="98.666" r="2.90" fill="#ffe082" stroke="#464646" stroke-width="0.2"/>
<text x="44.977" y="99.66" font-size="2.84" text-anchor="middle" fill="#141414">12</text>
<circle cx="55.144" cy="117.1" r="2.90" fill="#ffe082" stroke="#464646" stroke-width="0.2"/>
<text x="55.144" y="118.09" font-size="2.84" text-anchor="middle" fill="#141414">13</text>
<circle cx="30.367" cy="70.453" r="2.90" fill="#99d9fa" stroke="#464646" stroke-width="0.2"/>
<text x="30.367" y="71.45" font-size="2.84" text-anchor="middle" fill="#141414">14</text>
<circle cx="16.612" cy="44.499" r="2.90" fill="#ffe082" stroke="#464646" stroke-width="0.2"/>
<text x="16.612" y="45.49" font-size="2.84" text-anchor="middle" fill="#141414">15</text>
<circle cx="126.447" cy="128.907" r="2.90" fill="#ffe082" stroke="#464646" stroke-width="0.2"/>
<text x="126.447" y="129.90" font-size="2.84" text-anchor="middle" fill="#141414">16</text>
<circle cx="116.28" cy="110.473" r="2.90" fill="#ffe082" stroke="#464646" stroke-width="0.2"/>
<text x="116.28" y="111.47" font-size="2.84" text-anchor="middle" fill="#141414">17</text>
<circle cx="70.087" cy="23.508" r="2.90" fill="#ffe082" stroke="#464646" stroke-width="0.2"/>
<text x="70.087" y="24.50" font-size="2.84" text-anchor="middle" fill="#141414">18</text>
<circle cx="88.649" cy="57.694" r="2.90" fill="#ffe082" stroke="#464646" stroke-width="0.2"/>
<text x="88.649" y="58.69" font-size="2.84" text-anchor="middle" fill="#141414">19</text>
<circle cx="98.347" cy="75.953" r="2.90" fill="#ffe082" stroke="#464646" stroke-width="0.2"/>
<text x="98.347" y="76.95" font-size="2.84" text-anchor="middle" fill="#141414">20</text>
<circle cx="33.001" cy="18.008" r="2.90" fill="#ffe082" stroke="#464646" stroke-width="0.2"/>
<text x="33.001" y="19.00" font-size="2.84" text-anchor="middle" fill="#141414">21</text>
<circle cx="100.072" cy="144.281" r="2.90" fill="#ffe082" stroke="#464646" stroke-width="0.2"/>
<text x="100.072" y="145.27" font-size="2.84" text-anchor="middle" fill="#141414">22</text>
<circle cx="42.569" cy="42.242" r="4.60" fill="#eaf1fe" stroke="#2e78e6" stroke-width="0.3"/>
<text x="42.569" y="44.04" font-size="5.20" text-anchor="middle" fill="#14306e" font-weight="bold">2</text>
<polygon points="52.744,214.802 41.558,207.455 37.215,207.321 25.599,213.967" fill="rgb(216,216,216)"/>
<polygon points="39.875,237.07 27.924,231.046 25.64,227.35 25.599,213.967" fill="rgb(216,216,216)"/>
<polygon points="101.395,212.368 111.792,203.941 116.1,203.375 128.322,208.828" fill="rgb(216,216,216)"/>
<polygon points="116.422,233.24 127.712,226.054 129.616,222.148 128.322,208.828" fill="rgb(216,216,216)"/>
<polygon points="89.496,236.781 89.382,247.087 96.15,254.567 106.417,255.48" fill="rgb(216,216,216)"/>
<polygon points="67.021,237.905 68.163,248.149 62.175,256.267 52.051,258.2" fill="rgb(216,216,216)"/>
<polygon points="142.659,226.225 147.976,232.145 142.031,248.766 134.166,249.97" fill="rgb(216,216,216)"/>
<polygon points="43.996,172.883 51.745,171.072 63.451,184.284 60.721,191.757" fill="rgb(216,216,216)"/>
<polygon points="13.07,232.708 8.37,239.129 15.945,255.074 23.891,255.487" fill="rgb(216,216,216)"/>
<polygon points="134.166,249.97 131.366,257.662 111.942,261.519 106.417,255.48" fill="rgb(216,216,216)"/>
<polygon points="60.721,191.757 71.346,194.611 77.91,203.828 77.131,214.802" fill="rgb(216,216,216)"/>
<polygon points="142.659,226.225 147.976,232.145 142.031,248.766 134.166,249.97" fill="#99d9fa"/>
<line x1="39.875" y1="237.07" x2="52.744" y2="214.802" stroke="#8c8c8c" stroke-width="0.3" stroke-dasharray="1.2,0.8"/>
<line x1="67.021" y1="237.905" x2="52.744" y2="214.802" stroke="#8c8c8c" stroke-width="0.3" stroke-dasharray="1.2,0.8"/>
<line x1="60.721" y1="191.757" x2="52.744" y2="214.802" stroke="#8c8c8c" stroke-width="0.3" stroke-dasharray="1.2,0.8"/>
<line x1="52.744" y1="214.802" x2="77.131" y2="214.802" stroke="#8c8c8c" stroke-width="0.3" stroke-dasharray="1.2,0.8"/>
<line x1="67.021" y1="237.905" x2="39.875" y2="237.07" stroke="#8c8c8c" stroke-width="0.3" stroke-dasharray="1.2,0.8"/>
<line x1="39.875" y1="237.07" x2="23.891" y2="255.487" stroke="#8c8c8c" stroke-width="0.3" stroke-dasharray="1.2,0.8"/>
<line x1="52.051" y1="258.2" x2="39.875" y2="237.07" stroke="#8c8c8c" stroke-width="0.3" stroke-dasharray="1.2,0.8"/>
<line x1="101.395" y1="212.368" x2="116.422" y2="233.24" stroke="#8c8c8c" stroke-width="0.3" stroke-dasharray="1.2,0.8"/>
<line x1="89.496" y1="236.781" x2="101.395" y2="212.368" stroke="#8c8c8c" stroke-width="0.3" stroke-dasharray="1.2,0.8"/>
<line x1="91.158" y1="190.234" x2="101.395" y2="212.368" stroke="#8c8c8c" stroke-width="0.3" stroke-dasharray="1.2,0.8"/>
<line x1="101.395" y1="212.368" x2="77.131" y2="214.802" stroke="#8c8c8c" stroke-width="0.3" stroke-dasharray="1.2,0.8"/>
<line x1="89.496" y1="236.781" x2="116.422" y2="233.24" stroke="#8c8c8c" stroke-width="0.3" stroke-dasharray="1.2,0.8"/>
<line x1="134.166" y1="249.97" x2="116.422" y2="233.24" stroke="#8c8c8c" stroke-width="0.3" stroke-dasharray="1.2,0.8"/>
<line x1="116.422" y1="233.24" x2="106.417" y2="255.48" stroke="#8c8c8c" stroke-width="0.3" stroke-dasharray="1.2,0.8"/>
<line x1="89.496" y1="236.781" x2="67.021" y2="237.905" stroke="#8c8c8c" stroke-width="0.3" stroke-dasharray="1.2,0.8"/>
<line x1="77.131" y1="214.802" x2="89.496" y2="236.781" stroke="#8c8c8c" stroke-width="0.3" stroke-dasharray="1.2,0.8"/>
<line x1="77.131" y1="214.802" x2="67.021" y2="237.905" stroke="#8c8c8c" stroke-width="0.3" stroke-dasharray="1.2,0.8"/>
<line x1="35.582" y1="193.754" x2="43.996" y2="172.883" stroke="#8c8c8c" stroke-width="0.3" stroke-dasharray="1.2,0.8"/>
<line x1="35.582" y1="193.754" x2="60.721" y2="191.757" stroke="#8c8c8c" stroke-width="0.3" stroke-dasharray="1.2,0.8"/>
<line x1="25.599" y1="213.967" x2="52.744" y2="214.802" stroke="#8c8c8c" stroke-width="0.3" stroke-dasharray="1.2,0.8"/>
<line x1="25.599" y1="213.967" x2="39.875" y2="237.07" stroke="#8c8c8c" stroke-width="0.3" stroke-dasharray="1.2,0.8"/>
<line x1="128.322" y1="208.828" x2="101.395" y2="212.368" stroke="#8c8c8c" stroke-width="0.3" stroke-dasharray="1.2,0.8"/>
<line x1="128.322" y1="208.828" x2="116.422" y2="233.24" stroke="#8c8c8c" stroke-width="0.3" stroke-dasharray="1.2,0.8"/>
<line x1="106.417" y1="255.48" x2="89.496" y2="236.781" stroke="#8c8c8c" stroke-width="0.3" stroke-dasharray="1.2,0.8"/>
<line x1="52.051" y1="258.2" x2="67.021" y2="237.905" stroke="#8c8c8c" stroke-width="0.3" stroke-dasharray="1.2,0.8"/>
<line x1="134.166" y1="249.97" x2="142.659" y2="226.225" stroke="#8c8c8c" stroke-width="0.3" stroke-dasharray="1.2,0.8"/>
<line x1="60.721" y1="191.757" x2="43.996" y2="172.883" stroke="#8c8c8c" stroke-width="0.3" stroke-dasharray="1.2,0.8"/>
<line x1="23.891" y1="255.487" x2="13.07" y2="232.708" stroke="#8c8c8c" stroke-width="0.3" stroke-dasharray="1.2,0.8"/>
<line x1="106.417" y1="255.48" x2="134.166" y2="249.97" stroke="#8c8c8c" stroke-width="0.3" stroke-dasharray="1.2,0.8"/>
<line x1="77.131" y1="214.802" x2="60.721" y2="191.757" stroke="#8c8c8c" stroke-width="0.3" stroke-dasharray="1.2,0.8"/>
<line x1="52.744" y1="214.802" x2="35.582" y2="193.754" stroke="#141414" stroke-width="0.4"/>
<line x1="13.07" y1="232.708" x2="39.875" y2="237.07" stroke="#141414" stroke-width="0.4"/>
<line x1="116.371" y1="189.712" x2="101.395" y2="212.368" stroke="#141414" stroke-width="0.4"/>
<line x1="116.422" y1="233.24" x2="142.659" y2="226.225" stroke="#141414" stroke-width="0.4"/>
<line x1="89.496" y1="236.781" x2="79.386" y2="259.883" stroke="#141414" stroke-width="0.4"/>
<line x1="79.386" y1="259.883" x2="67.021" y2="237.905" stroke="#141414" stroke-width="0.4"/>
<line x1="18.858" y1="174.88" x2="43.996" y2="172.883" stroke="#141414" stroke-width="0.4"/>
<line x1="91.158" y1="190.234" x2="116.371" y2="189.712" stroke="#141414" stroke-width="0.4"/>
<line x1="35.582" y1="193.754" x2="18.858" y2="174.88" stroke="#141414" stroke-width="0.4"/>
<line x1="52.051" y1="258.2" x2="23.891" y2="255.487" stroke="#141414" stroke-width="0.4"/>
<line x1="77.131" y1="214.802" x2="91.158" y2="190.234" stroke="#141414" stroke-width="0.4"/>
<line x1="52.744" y1="214.802" x2="41.558" y2="207.455" stroke="#141414" stroke-width="0.4"/>
<line x1="41.558" y1="207.455" x2="37.215" y2="207.321" stroke="#141414" stroke-width="0.4"/>
<line x1="37.215" y1="207.321" x2="25.599" y2="213.967" stroke="#141414" stroke-width="0.4"/>
<line x1="39.875" y1="237.07" x2="27.924" y2="231.046" stroke="#141414" stroke-width="0.4"/>
<line x1="27.924" y1="231.046" x2="25.64" y2="227.35" stroke="#141414" stroke-width="0.4"/>
<line x1="25.64" y1="227.35" x2="25.599" y2="213.967" stroke="#141414" stroke-width="0.4"/>
<line x1="101.395" y1="212.368" x2="111.792" y2="203.941" stroke="#141414" stroke-width="0.4"/>
<line x1="111.792" y1="203.941" x2="116.1" y2="203.375" stroke="#141414" stroke-width="0.4"/>
<line x1="116.1" y1="203.375" x2="128.322" y2="208.828" stroke="#141414" stroke-width="0.4"/>
<line x1="116.422" y1="233.24" x2="127.712" y2="226.054" stroke="#141414" stroke-width="0.4"/>
<line x1="127.712" y1="226.054" x2="129.616" y2="222.148" stroke="#141414" stroke-width="0.4"/>
<line x1="129.616" y1="222.148" x2="128.322" y2="208.828" stroke="#141414" stroke-width="0.4"/>
<line x1="89.496" y1="236.781" x2="89.382" y2="247.087" stroke="#141414" stroke-width="0.4"/>
<line x1="89.382" y1="247.087" x2="96.15" y2="254.567" stroke="#141414" stroke-width="0.4"/>
<line x1="96.15" y1="254.567" x2="106.417" y2="255.48" stroke="#141414" stroke-width="0.4"/>
<line x1="67.021" y1="237.905" x2="68.163" y2="248.149" stroke="#141414" stroke-width="0.4"/>
<line x1="68.163" y1="248.149" x2="62.175" y2="256.267" stroke="#141414" stroke-width="0.4"/>
<line x1="62.175" y1="256.267" x2="52.051" y2="258.2" stroke="#141414" stroke-width="0.4"/>
<line x1="142.659" y1="226.225" x2="147.976" y2="232.145" stroke="#141414" stroke-width="0.4"/>
<line x1="147.976" y1="232.145" x2="142.031" y2="248.766" stroke="#141414" stroke-width="0.4"/>
<line x1="142.031" y1="248.766" x2="134.166" y2="249.97" stroke="#141414" stroke-width="0.4"/>
<line x1="43.996" y1="172.883" x2="51.745" y2="171.072" stroke="#141414" stroke-width="0.4"/>
<line x1="51.745" y1="171.072" x2="63.451" y2="184.284" stroke="#141414" stroke-width="0.4"/>
<line x1="63.451" y1="184.284" x2="60.721" y2="191.757" stroke="#141414" stroke-width="0.4"/>
<line x1="13.07" y1="232.708" x2="8.37" y2="239.129" stroke="#141414" stroke-width="0.4"/>
<line x1="8.37" y1="239.129" x2="15.945" y2="255.074" stroke="#141414" stroke-width="0.4"/>
<line x1="15.945" y1="255.074" x2="23.891" y2="255.487" stroke="#141414" stroke-width="0.4"/>
<line x1="134.166" y1="249.97" x2="131.366" y2="257.662" stroke="#141414" stroke-width="0.4"/>
<line x1="131.366" y1="257.662" x2="111.942" y2="261.519" stroke="#141414" stroke-width="0.4"/>
<line x1="111.942" y1="261.519" x2="106.417" y2="255.48" stroke="#141414" stroke-width="0.4"/>
<line x1="60.721" y1="191.757" x2="71.346" y2="194.611" stroke="#141414" stroke-width="0.4"/>
<line x1="71.346" y1="194.611" x2="77.91" y2="203.828" stroke="#141414" stroke-width="0.4"/>
<line x1="77.91" y1="203.828" x2="77.131" y2="214.802" stroke="#141414" stroke-width="0.4"/>
<circle cx="39.279" cy="210.886" r="2.90" fill="#ffe082" stroke="#464646" stroke-width="0.2"/>
<text x="39.279" y="211.88" font-size="2.84" text-anchor="middle" fill="#141414">78</text>
<circle cx="29.76" cy="227.358" r="2.90" fill="#ffe082" stroke="#464646" stroke-width="0.2"/>
<text x="29.76" y="228.35" font-size="2.84" text-anchor="middle" fill="#141414">79</text>
<circle cx="114.402" cy="207.128" r="2.90" fill="#ffe082" stroke="#464646" stroke-width="0.2"/>
<text x="114.402" y="208.12" font-size="2.84" text-anchor="middle" fill="#141414">80</text>
<circle cx="125.518" cy="222.568" r="2.90" fill="#ffe082" stroke="#464646" stroke-width="0.2"/>
<text x="125.518" y="223.56" font-size="2.84" text-anchor="middle" fill="#141414">81</text>
<circle cx="95.361" cy="248.479" r="2.90" fill="#ffe082" stroke="#464646" stroke-width="0.2"/>
<text x="95.361" y="249.47" font-size="2.84" text-anchor="middle" fill="#141414">82</text>
<circle cx="62.352" cy="250.13" r="2.90" fill="#ffe082" stroke="#464646" stroke-width="0.2"/>
<text x="62.352" y="251.12" font-size="2.84" text-anchor="middle" fill="#141414">83</text>
<circle cx="141.708" cy="239.276" r="2.90" fill="#99d9fa" stroke="#464646" stroke-width="0.2"/>
<text x="141.708" y="240.27" font-size="2.84" text-anchor="middle" fill="#141414">84</text>
<circle cx="54.978" cy="179.999" r="2.90" fill="#ffe082" stroke="#464646" stroke-width="0.2"/>
<text x="54.978" y="180.99" font-size="2.84" text-anchor="middle" fill="#141414">85</text>
<circle cx="15.319" cy="245.6" r="2.90" fill="#ffe082" stroke="#464646" stroke-width="0.2"/>
<text x="15.319" y="246.59" font-size="2.84" text-anchor="middle" fill="#141414">86</text>
<circle cx="120.973" cy="256.158" r="2.90" fill="#ffe082" stroke="#464646" stroke-width="0.2"/>
<text x="120.973" y="257.15" font-size="2.84" text-anchor="middle" fill="#141414">87</text>
<circle cx="71.777" cy="201.25" r="2.90" fill="#ffe082" stroke="#464646" stroke-width="0.2"/>
<text x="71.777" y="202.24" font-size="2.84" text-anchor="middle" fill="#141414">88</text>
<circle cx="32.812" cy="180.505" r="4.60" fill="#eaf1fe" stroke="#2e78e6" stroke-width="0.3"/>
<text x="32.812" y="182.31" font-size="5.20" text-anchor="middle" fill="#14306e" font-weight="bold">8</text>
<text x="205.0" y="295.0" font-size="3.2" text-anchor="end" fill="#737373" font-family="sans-serif">2 / 8</text>
</svg>
