<svg xmlns="http://www.w3.org/2000/svg" xmlns:xlink="http://www.w3.org/1999/xlink" width="210.00mm" height="297.00mm" viewBox="0 0 210.00 297.00">
<rect x="0" y="0" width="210.00" height="297.00" fill="#ffffff" stroke="#cccccc" stroke-width="0.2"/>
<polygon points="81.85,139.364 88.85,148.123 88.85,188.998 81.85,197.757" fill="rgb(216,216,216)"/>
<polygon points="63.393,139.364 56.393,130.605 56.393,89.73 63.393,80.971" fill="rgb(216,216,216)"/>
<polygon points="63.393,139.364 56.393,148.123 56.393,188.998 63.393,197.757" fill="rgb(216,216,216)"/>
<polygon points="81.85,80.971 90.609,73.971 131.484,73.971 140.243,80.971" fill="rgb(216,216,216)"/>
<polygon points="5.0,256.15 13.759,263.15 54.634,263.15 63.393,256.15" fill="rgb(216,216,216)"/>
<polygon points="140.243,139.364 147.243,130.605 147.243,89.73 140.243,80.971" fill="rgb(216,216,216)"/>
<polygon points="81.85,22.578 79.081,15.578 66.161,15.578 63.393,22.578" fill="rgb(216,216,216)"/>
<polygon points="81.85,139.364 88.85,148.123 88.85,188.998 81.85,197.757" fill="#99d9fa"/>
<line x1="81.85" y1="139.364" x2="63.393" y2="139.364" stroke="#8c8c8c" stroke-width="0.3" stroke-dasharray="1.2,0.8"/>
<line x1="81.85" y1="80.971" x2="81.85" y2="139.364" stroke="#8c8c8c" stroke-width="0.3" stroke-dasharray="1.2,0.8"/>
<line x1="63.393" y1="80.971" x2="81.85" y2="80.971" stroke="#8c8c8c" stroke-width="0.3" stroke-dasharray="1.2,0.8"/>
<line x1="81.85" y1="197.757" x2="63.393" y2="197.757" stroke="#8c8c8c" stroke-width="0.3" stroke-dasharray="1.2,0.8"/>
<line x1="63.393" y1="197.757" x2="63.393" y2="256.15" stroke="#8c8c8c" stroke-width="0.3" stroke-dasharray="1.2,0.8"/>
<line x1="81.85" y1="197.757" x2="81.85" y2="139.364" stroke="#8c8c8c" stroke-width="0.3" stroke-dasharray="1.2,0.8"/>
<line x1="63.393" y1="80.971" x2="63.393" y2="139.364" stroke="#8c8c8c" stroke-width="0.3" stroke-dasharray="1.2,0.8"/>
<line x1="63.393" y1="197.757" x2="63.393" y2="139.364" stroke="#8c8c8c" stroke-width="0.3" stroke-dasharray="1.2,0.8"/>
<line x1="140.243" y1="80.971" x2="81.85" y2="80.971" stroke="#8c8c8c" stroke-width="0.3" stroke-dasharray="1.2,0.8"/>
<line x1="63.393" y1="256.15" x2="5.0" y2="256.15" stroke="#8c8c8c" stroke-width="0.3" stroke-dasharray="1.2,0.8"/>
<line x1="140.243" y1="80.971" x2="140.243" y2="139.364" stroke="#8c8c8c" stroke-width="0.3" stroke-dasharray="1.2,0.8"/>
<line x1="63.393" y1="22.578" x2="81.85" y2="22.578" stroke="#8c8c8c" stroke-width="0.3" stroke-dasharray="1.2,0.8"/>
<line x1="140.243" y1="139.364" x2="81.85" y2="139.364" stroke="#141414" stroke-width="0.4"/>
<line x1="5.0" y1="256.15" x2="5.0" y2="197.757" stroke="#141414" stroke-width="0.4"/>
<line x1="5.0" y1="197.757" x2="63.393" y2="197.757" stroke="#141414" stroke-width="0.4"/>
<line x1="81.85" y1="22.578" x2="81.85" y2="80.971" stroke="#141414" stroke-width="0.4"/>
<line x1="63.393" y1="80.971" x2="63.393" y2="22.578" stroke="#141414" stroke-width="0.4"/>
<line x1="81.85" y1="197.757" x2="81.85" y2="256.15" stroke="#141414" stroke-width="0.4"/>
<line x1="81.85" y1="256.15" x2="63.393" y2="256.15" stroke="#141414" stroke-width="0.4"/>
<line x1="81.85" y1="139.364" x2="88.85" y2="148.123" stroke="#141414" stroke-width="0.4"/>
<line x1="88.85" y1="148.123" x2="88.85" y2="188.998" stroke="#141414" stroke-width="0.4"/>
<line x1="88.85" y1="188.998" x2="81.85" y2="197.757" stroke="#141414" stroke-width="0.4"/>
<line x1="63.393" y1="139.364" x2="56.393" y2="130.605" stroke="#141414" stroke-width="0.4"/>
<line x1="56.393" y1="130.605" x2="56.393" y2="89.73" stroke="#141414" stroke-width="0.4"/>
<line x1="56.393" y1="89.73" x2="63.393" y2="80.971" stroke="#141414" stroke-width="0.4"/>
<line x1="63.393" y1="139.364" x2="56.393" y2="148.123" stroke="#141414" stroke-width="0.4"/>
<line x1="56.393" y1="148.123" x2="56.393" y2="188.998" stroke="#141414" stroke-width="0.4"/>
<line x1="56.393" y1="188.998" x2="63.393" y2="197.757" stroke="#141414" stroke-width="0.4"/>
<line x1="81.85" y1="80.971" x2="90.609" y2="73.971" stroke="#141414" stroke-width="0.4"/>
<line x1="90.609" y1="73.971" x2="131.484" y2="73.971" stroke="#141414" stroke-width="0.4"/>
<line x1="131.484" y1="73.971" x2="140.243" y2="80.971" stroke="#141414" stroke-width="0.4"/>
<line x1="5.0" y1="256.15" x2="13.759" y2="263.15" stroke="#141414" stroke-width="0.4"/>
<line x1="13.759" y1="263.15" x2="54.634" y2="263.15" stroke="#141414" stroke-width="0.4"/>
<line x1="54.634" y1="263.15" x2="63.393" y2="256.15" stroke="#141414" stroke-width="0.4"/>
<line x1="140.243" y1="139.364" x2="147.243" y2="130.605" stroke="#141414" stroke-width="0.4"/>
<line x1="147.243" y1="130.605" x2="147.243" y2="89.73" stroke="#141414" stroke-width="0.4"/>
<line x1="147.243" y1="89.73" x2="140.243" y2="80.971" stroke="#141414" stroke-width="0.4"/>
<line x1="81.85" y1="22.578" x2="79.081" y2="15.578" stroke="#141414" stroke-width="0.4"/>
<line x1="79.081" y1="15.578" x2="66.161" y2="15.578" stroke="#141414" stroke-width="0.4"/>
<line x1="66.161" y1="15.578" x2="63.393" y2="22.578" stroke="#141414" stroke-width="0.4"/>
<circle cx="85.35" cy="168.56" r="1.96" fill="#99d9fa" stroke="#464646" stroke-width="0.2"/>
<text x="85.35" y="169.23" font-size="1.92" text-anchor="middle" fill="#141414">8</text>
<circle cx="59.893" cy="110.168" r="1.96" fill="#ffe082" stroke="#464646" stroke-width="0.2"/>
<text x="59.893" y="110.84" font-size="1.92" text-anchor="middle" fill="#141414">9</text>
<circle cx="59.893" cy="168.56" r="1.96" fill="#ffe082" stroke="#464646" stroke-width="0.2"/>
<text x="59.893" y="169.23" font-size="1.92" text-anchor="middle" fill="#141414">10</text>
<circle cx="111.046" cy="77.471" r="1.96" fill="#ffe082" stroke="#464646" stroke-width="0.2"/>
<text x="111.046" y="78.14" font-size="1.92" text-anchor="middle" fill="#141414">11</text>
<circle cx="34.196" cy="259.65" r="1.96" fill="#ffe082" stroke="#464646" stroke-width="0.2"/>
<text x="34.196" y="260.32" font-size="1.92" text-anchor="middle" fill="#141414">12</text>
<circle cx="143.743" cy="110.168" r="1.96" fill="#ffe082" stroke="#464646" stroke-width="0.2"/>
<text x="143.743" y="110.84" font-size="1.92" text-anchor="middle" fill="#141414">13</text>
<circle cx="72.621" cy="19.078" r="1.96" fill="#ffe082" stroke="#464646" stroke-width="0.2"/>
<text x="72.621" y="19.75" font-size="1.92" text-anchor="middle" fill="#141414">14</text>
<circle cx="101.314" cy="119.9" r="4.60" fill="#eaf1fe" stroke="#2e78e6" stroke-width="0.3"/>
<text x="101.314" y="121.70" font-size="5.20" text-anchor="middle" fill="#14306e" font-weight="bold">2</text>
<polygon points="179.247,48.506 181.422,55.506 191.574,55.506 193.749,48.506" fill="rgb(216,216,216)"/>
<polygon points="179.247,34.004 181.422,27.004 191.574,27.004 193.749,34.004" fill="rgb(216,216,216)"/>
<polygon points="193.749,48.506 200.749,46.331 200.749,36.179 193.749,34.004" fill="rgb(216,216,216)"/>
<polygon points="179.247,63.008 177.071,70.008 166.92,70.008 164.745,63.008" fill="rgb(216,216,216)"/>
<polygon points="164.745,48.506 157.745,46.331 157.745,36.179 164.745,34.004" fill="rgb(216,216,216)"/>
<polygon points="164.745,48.506 157.745,50.682 157.745,60.833 164.745,63.008" fill="rgb(216,216,216)"/>
<polygon points="164.745,34.004 157.745,31.829 157.745,21.677 164.745,19.502" fill="rgb(216,216,216)"/>
<polygon points="179.247,48.506 181.422,55.506 191.574,55.506 193.749,48.506" fill="#99d9fa"/>
<line x1="179.247" y1="48.506" x2="179.247" y2="34.004" stroke="#8c8c8c" stroke-width="0.3" stroke-dasharray="1.2,0.8"/>
<line x1="179.247" y1="48.506" x2="164.745" y2="48.506" stroke="#8c8c8c" stroke-width="0.3" stroke-dasharray="1.2,0.8"/>
<line x1="164.745" y1="34.004" x2="179.247" y2="34.004" stroke="#8c8c8c" stroke-width="0.3" stroke-dasharray="1.2,0.8"/>
<line x1="164.745" y1="19.502" x2="179.247" y2="19.502" stroke="#8c8c8c" stroke-width="0.3" stroke-dasharray="1.2,0.8"/>
<line x1="164.745" y1="19.502" x2="164.745" y2="5.0" stroke="#8c8c8c" stroke-width="0.3" stroke-dasharray="1.2,0.8"/>
<line x1="193.749" y1="48.506" x2="179.247" y2="48.506" stroke="#8c8c8c" stroke-width="0.3" stroke-dasharray="1.2,0.8"/>
<line x1="193.749" y1="34.004" x2="179.247" y2="34.004" stroke="#8c8c8c" stroke-width="0.3" stroke-dasharray="1.2,0.8"/>
<line x1="193.749" y1="34.004" x2="193.749" y2="48.506" stroke="#8c8c8c" stroke-width="0.3" stroke-dasharray="1.2,0.8"/>
<line x1="164.745" y1="63.008" x2="179.247" y2="63.008" stroke="#8c8c8c" stroke-width="0.3" stroke-dasharray="1.2,0.8"/>
<line x1="164.745" y1="34.004" x2="164.745" y2="48.506" stroke="#8c8c8c" stroke-width="0.3" stroke-dasharray="1.2,0.8"/>
<line x1="164.745" y1="63.008" x2="164.745" y2="48.506" stroke="#8c8c8c" stroke-width="0.3" stroke-dasharray="1.2,0.8"/>
<line x1="164.745" y1="19.502" x2="164.745" y2="34.004" stroke="#8c8c8c" stroke-width="0.3" stroke-dasharray="1.2,0.8"/>
<line x1="179.247" y1="48.506" x2="179.247" y2="63.008" stroke="#141414" stroke-width="0.4"/>
<line x1="179.247" y1="19.502" x2="179.247" y2="34.004" stroke="#141414" stroke-width="0.4"/>
<line x1="179.247" y1="5.0" x2="179.247" y2="19.502" stroke="#141414" stroke-width="0.4"/>
<line x1="164.745" y1="5.0" x2="179.247" y2="5.0" stroke="#141414" stroke-width="0.4"/>
<line x1="150.243" y1="19.502" x2="150.243" y2="5.0" stroke="#141414" stroke-width="0.4"/>
<line x1="150.243" y1="5.0" x2="164.745" y2="5.0" stroke="#141414" stroke-width="0.4"/>
<line x1="164.745" y1="19.502" x2="150.243" y2="19.502" stroke="#141414" stroke-width="0.4"/>
<line x1="179.247" y1="48.506" x2="181.422" y2="55.506" stroke="#141414" stroke-width="0.4"/>
<line x1="181.422" y1="55.506" x2="191.574" y2="55.506" stroke="#141414" stroke-width="0.4"/>
<line x1="191.574" y1="55.506" x2="193.749" y2="48.506" stroke="#141414" stroke-width="0.4"/>
<line x1="179.247" y1="34.004" x2="181.422" y2="27.004" stroke="#141414" stroke-width="0.4"/>
<line x1="181.422" y1="27.004" x2="191.574" y2="27.004" stroke="#141414" stroke-width="0.4"/>
<line x1="191.574" y1="27.004" x2="193.749" y2="34.004" stroke="#141414" stroke-width="0.4"/>
<line x1="193.749" y1="48.506" x2="200.749" y2="46.331" stroke="#141414" stroke-width="0.4"/>
<line x1="200.749" y1="46.331" x2="200.749" y2="36.179" stroke="#141414" stroke-width="0.4"/>
<line x1="200.749" y1="36.179" x2="193.749" y2="34.004" stroke="#141414" stroke-width="0.4"/>
<line x1="179.247" y1="63.008" x2="177.071" y2="70.008" stroke="#141414" stroke-width="0.4"/>
<line x1="177.071" y1="70.008" x2="166.92" y2="70.008" stroke="#141414" stroke-width="0.4"/>
<line x1="166.92" y1="70.008" x2="164.745" y2="63.008" stroke="#141414" stroke-width="0.4"/>
<line x1="164.745" y1="48.506" x2="157.745" y2="46.331" stroke="#141414" stroke-width="0.4"/>
<line x1="157.745" y1="46.331" x2="157.745" y2="36.179" stroke="#141414" stroke-width="0.4"/>
<line x1="157.745" y1="36.179" x2="164.745" y2="34.004" stroke="#141414" stroke-width="0.4"/>
<line x1="164.745" y1="48.506" x2="157.745" y2="50.682" stroke="#141414" stroke-width="0.4"/>
<line x1="157.745" y1="50.682" x2="157.745" y2="60.833" stroke="#141414" stroke-width="0.4"/>
<line x1="157.745" y1="60.833" x2="164.745" y2="63.008" stroke="#141414" stroke-width="0.4"/>
<line x1="164.745" y1="34.004" x2="157.745" y2="31.829" stroke="#141414" stroke-width="0.4"/>
<line x1="157.745" y1="31.829" x2="157.745" y2="21.677" stroke="#141414" stroke-width="0.4"/>
<line x1="157.745" y1="21.677" x2="164.745" y2="19.502" stroke="#141414" stroke-width="0.4"/>
<circle cx="186.498" cy="52.006" r="1.96" fill="#99d9fa" stroke="#464646" stroke-width="0.2"/>
<text x="186.498" y="52.68" font-size="1.92" text-anchor="middle" fill="#141414">99</text>
<circle cx="186.498" cy="30.504" r="1.96" fill="#ffe082" stroke="#464646" stroke-width="0.2"/>
<text x="186.498" y="31.18" font-size="1.92" text-anchor="middle" fill="#141414">100</text>
<circle cx="197.249" cy="41.255" r="1.96" fill="#ffe082" stroke="#464646" stroke-width="0.2"/>
<text x="197.249" y="41.93" font-size="1.92" text-anchor="middle" fill="#141414">101</text>
<circle cx="171.996" cy="66.508" r="1.96" fill="#ffe082" stroke="#464646" stroke-width="0.2"/>
<text x="171.996" y="67.18" font-size="1.92" text-anchor="middle" fill="#141414">102</text>
<circle cx="161.245" cy="41.255" r="1.96" fill="#ffe082" stroke="#464646" stroke-width="0.2"/>
<text x="161.245" y="41.93" font-size="1.92" text-anchor="middle" fill="#141414">103</text>
<circle cx="161.245" cy="55.757" r="1.96" fill="#ffe082" stroke="#464646" stroke-width="0.2"/>
<text x="161.245" y="56.43" font-size="1.92" text-anchor="middle" fill="#141414">104</text>
<circle cx="161.245" cy="26.753" r="1.96" fill="#ffe082" stroke="#464646" stroke-width="0.2"/>
<text x="161.245" y="27.43" font-size="1.92" text-anchor="middle" fill="#141414">105</text>
<circle cx="175.496" cy="76.108" r="4.60" fill="#eaf1fe" stroke="#2e78e6" stroke-width="0.3"/>
<text x="175.496" y="77.91" font-size="5.20" text-anchor="middle" fill="#14306e" font-weight="bold">15</text>
<text x="205.0" y="295.0" font-size="3.2" text-anchor="end" fill="#737373" font-family="sans-serif">2 / 6</text>
<g pointer-events="none"><text x="105.0" y="83.2" text-anchor="middle" font-family="sans-serif" font-size="12.4" fill="#9aa0a6" fill-opacity="0.3" transform="rotate(-28 105.0 83.2)">papercraft.kr</text><text x="105.0" y="148.5" text-anchor="middle" font-family="sans-serif" font-size="12.4" fill="#9aa0a6" fill-opacity="0.3" transform="rotate(-28 105.0 148.5)">papercraft.kr</text><text x="105.0" y="213.8" text-anchor="middle" font-family="sans-serif" font-size="12.4" fill="#9aa0a6" fill-opacity="0.3" transform="rotate(-28 105.0 213.8)">papercraft.kr</text></g></svg>
