<svg xmlns="http://www.w3.org/2000/svg" xmlns:xlink="http://www.w3.org/1999/xlink" width="210.00mm" height="297.00mm" viewBox="0 0 210.00 297.00">
<rect x="0" y="0" width="210.00" height="297.00" fill="#ffffff" stroke="#cccccc" stroke-width="0.2"/>
<polygon points="89.53,128.684 82.53,120.544 82.53,82.562 89.53,74.422" fill="rgb(216,216,216)"/>
<polygon points="89.53,128.684 93.121,135.684 109.878,135.684 113.469,128.684" fill="rgb(216,216,216)"/>
<polygon points="113.469,128.684 120.469,120.544 120.469,82.562 113.469,74.422" fill="rgb(216,216,216)"/>
<polygon points="11.33,74.422 4.33,72.148 4.33,61.535 11.33,59.261" fill="rgb(216,216,216)"/>
<polygon points="35.269,59.261 43.408,52.261 81.391,52.261 89.53,59.261" fill="rgb(216,216,216)"/>
<polygon points="89.53,59.261 93.121,52.261 109.878,52.261 113.469,59.261" fill="rgb(216,216,216)"/>
<polygon points="167.73,59.261 159.591,52.261 121.608,52.261 113.469,59.261" fill="rgb(216,216,216)"/>
<polygon points="89.53,128.684 82.53,120.544 82.53,82.562 89.53,74.422" fill="#99d9fa"/>
<line x1="35.269" y1="74.422" x2="35.269" y2="59.261" stroke="#8c8c8c" stroke-width="0.3" stroke-dasharray="1.2,0.8"/>
<line x1="89.53" y1="74.422" x2="113.469" y2="74.422" stroke="#8c8c8c" stroke-width="0.3" stroke-dasharray="1.2,0.8"/>
<line x1="89.53" y1="59.261" x2="89.53" y2="74.422" stroke="#8c8c8c" stroke-width="0.3" stroke-dasharray="1.2,0.8"/>
<line x1="113.469" y1="59.261" x2="113.469" y2="74.422" stroke="#8c8c8c" stroke-width="0.3" stroke-dasharray="1.2,0.8"/>
<line x1="11.331" y1="59.261" x2="35.269" y2="59.261" stroke="#8c8c8c" stroke-width="0.3" stroke-dasharray="1.2,0.8"/>
<line x1="89.53" y1="74.422" x2="89.53" y2="128.684" stroke="#8c8c8c" stroke-width="0.3" stroke-dasharray="1.2,0.8"/>
<line x1="113.469" y1="128.684" x2="89.53" y2="128.684" stroke="#8c8c8c" stroke-width="0.3" stroke-dasharray="1.2,0.8"/>
<line x1="113.469" y1="74.422" x2="113.469" y2="128.684" stroke="#8c8c8c" stroke-width="0.3" stroke-dasharray="1.2,0.8"/>
<line x1="11.33" y1="59.261" x2="11.33" y2="74.422" stroke="#8c8c8c" stroke-width="0.3" stroke-dasharray="1.2,0.8"/>
<line x1="89.53" y1="59.261" x2="35.269" y2="59.261" stroke="#8c8c8c" stroke-width="0.3" stroke-dasharray="1.2,0.8"/>
<line x1="113.469" y1="59.261" x2="89.53" y2="59.261" stroke="#8c8c8c" stroke-width="0.3" stroke-dasharray="1.2,0.8"/>
<line x1="113.469" y1="59.261" x2="167.73" y2="59.261" stroke="#8c8c8c" stroke-width="0.3" stroke-dasharray="1.2,0.8"/>
<line x1="89.53" y1="74.422" x2="35.269" y2="74.422" stroke="#141414" stroke-width="0.4"/>
<line x1="35.269" y1="74.422" x2="11.331" y2="74.422" stroke="#141414" stroke-width="0.4"/>
<line x1="167.73" y1="74.422" x2="113.469" y2="74.422" stroke="#141414" stroke-width="0.4"/>
<line x1="167.73" y1="59.261" x2="167.73" y2="74.422" stroke="#141414" stroke-width="0.4"/>
<line x1="35.269" y1="5.0" x2="35.269" y2="59.261" stroke="#141414" stroke-width="0.4"/>
<line x1="11.331" y1="5.0" x2="35.269" y2="5.0" stroke="#141414" stroke-width="0.4"/>
<line x1="11.331" y1="59.261" x2="11.331" y2="5.0" stroke="#141414" stroke-width="0.4"/>
<line x1="89.53" y1="128.684" x2="82.53" y2="120.544" stroke="#141414" stroke-width="0.4"/>
<line x1="82.53" y1="120.544" x2="82.53" y2="82.562" stroke="#141414" stroke-width="0.4"/>
<line x1="82.53" y1="82.562" x2="89.53" y2="74.422" stroke="#141414" stroke-width="0.4"/>
<line x1="89.53" y1="128.684" x2="93.121" y2="135.684" stroke="#141414" stroke-width="0.4"/>
<line x1="93.121" y1="135.684" x2="109.878" y2="135.684" stroke="#141414" stroke-width="0.4"/>
<line x1="109.878" y1="135.684" x2="113.469" y2="128.684" stroke="#141414" stroke-width="0.4"/>
<line x1="113.469" y1="128.684" x2="120.469" y2="120.544" stroke="#141414" stroke-width="0.4"/>
<line x1="120.469" y1="120.544" x2="120.469" y2="82.562" stroke="#141414" stroke-width="0.4"/>
<line x1="120.469" y1="82.562" x2="113.469" y2="74.422" stroke="#141414" stroke-width="0.4"/>
<line x1="11.33" y1="74.422" x2="4.33" y2="72.148" stroke="#141414" stroke-width="0.4"/>
<line x1="4.33" y1="72.148" x2="4.33" y2="61.535" stroke="#141414" stroke-width="0.4"/>
<line x1="4.33" y1="61.535" x2="11.33" y2="59.261" stroke="#141414" stroke-width="0.4"/>
<line x1="35.269" y1="59.261" x2="43.408" y2="52.261" stroke="#141414" stroke-width="0.4"/>
<line x1="43.408" y1="52.261" x2="81.391" y2="52.261" stroke="#141414" stroke-width="0.4"/>
<line x1="81.391" y1="52.261" x2="89.53" y2="59.261" stroke="#141414" stroke-width="0.4"/>
<line x1="89.53" y1="59.261" x2="93.121" y2="52.261" stroke="#141414" stroke-width="0.4"/>
<line x1="93.121" y1="52.261" x2="109.878" y2="52.261" stroke="#141414" stroke-width="0.4"/>
<line x1="109.878" y1="52.261" x2="113.469" y2="59.261" stroke="#141414" stroke-width="0.4"/>
<line x1="167.73" y1="59.261" x2="159.591" y2="52.261" stroke="#141414" stroke-width="0.4"/>
<line x1="159.591" y1="52.261" x2="121.608" y2="52.261" stroke="#141414" stroke-width="0.4"/>
<line x1="121.608" y1="52.261" x2="113.469" y2="59.261" stroke="#141414" stroke-width="0.4"/>
<circle cx="86.03" cy="101.553" r="0.50" fill="#99d9fa" stroke="#464646" stroke-width="0.2"/>
<text x="86.03" y="101.79" font-size="0.68" text-anchor="middle" fill="#141414">9</text>
<circle cx="101.5" cy="132.184" r="0.50" fill="#ffe082" stroke="#464646" stroke-width="0.2"/>
<text x="101.5" y="132.42" font-size="0.68" text-anchor="middle" fill="#141414">10</text>
<circle cx="116.969" cy="101.553" r="0.50" fill="#ffe082" stroke="#464646" stroke-width="0.2"/>
<text x="116.969" y="101.79" font-size="0.68" text-anchor="middle" fill="#141414">11</text>
<circle cx="7.83" cy="66.842" r="0.50" fill="#ffe082" stroke="#464646" stroke-width="0.2"/>
<text x="7.83" y="67.08" font-size="0.68" text-anchor="middle" fill="#141414">12</text>
<circle cx="62.4" cy="55.761" r="0.50" fill="#ffe082" stroke="#464646" stroke-width="0.2"/>
<text x="62.4" y="56.00" font-size="0.68" text-anchor="middle" fill="#141414">13</text>
<circle cx="101.5" cy="55.761" r="0.50" fill="#ffe082" stroke="#464646" stroke-width="0.2"/>
<text x="101.5" y="56.00" font-size="0.68" text-anchor="middle" fill="#141414">14</text>
<circle cx="140.6" cy="55.761" r="0.50" fill="#ffe082" stroke="#464646" stroke-width="0.2"/>
<text x="140.6" y="56.00" font-size="0.68" text-anchor="middle" fill="#141414">15</text>
<circle cx="71.443" cy="64.315" r="3.89" fill="#eaf1fe" stroke="#2e78e6" stroke-width="0.3"/>
<text x="71.443" y="65.84" font-size="4.40" text-anchor="middle" fill="#14306e" font-weight="bold">3</text>
<polygon points="85.541,259.175 78.541,251.036 78.541,213.053 85.541,204.914" fill="rgb(216,216,216)"/>
<polygon points="85.541,259.175 88.533,266.175 102.497,266.175 105.49,259.175" fill="rgb(216,216,216)"/>
<polygon points="105.49,259.175 112.49,251.036 112.49,213.053 105.49,204.914" fill="rgb(216,216,216)"/>
<polygon points="11.33,204.914 5.346,203.119 5.346,194.74 11.33,192.945" fill="rgb(216,216,216)"/>
<polygon points="31.279,192.945 39.419,185.945 77.401,185.945 85.541,192.945" fill="rgb(216,216,216)"/>
<polygon points="85.541,192.945 88.533,185.945 102.497,185.945 105.49,192.945" fill="rgb(216,216,216)"/>
<polygon points="159.751,192.945 151.612,185.945 113.629,185.945 105.49,192.945" fill="rgb(216,216,216)"/>
<polygon points="85.541,259.175 78.541,251.036 78.541,213.053 85.541,204.914" fill="#99d9fa"/>
<line x1="31.279" y1="204.914" x2="31.279" y2="192.945" stroke="#8c8c8c" stroke-width="0.3" stroke-dasharray="1.2,0.8"/>
<line x1="85.541" y1="204.914" x2="105.49" y2="204.914" stroke="#8c8c8c" stroke-width="0.3" stroke-dasharray="1.2,0.8"/>
<line x1="85.541" y1="192.945" x2="85.541" y2="204.914" stroke="#8c8c8c" stroke-width="0.3" stroke-dasharray="1.2,0.8"/>
<line x1="105.49" y1="192.945" x2="105.49" y2="204.914" stroke="#8c8c8c" stroke-width="0.3" stroke-dasharray="1.2,0.8"/>
<line x1="11.331" y1="192.945" x2="31.279" y2="192.945" stroke="#8c8c8c" stroke-width="0.3" stroke-dasharray="1.2,0.8"/>
<line x1="85.541" y1="204.914" x2="85.541" y2="259.175" stroke="#8c8c8c" stroke-width="0.3" stroke-dasharray="1.2,0.8"/>
<line x1="105.49" y1="259.175" x2="85.541" y2="259.175" stroke="#8c8c8c" stroke-width="0.3" stroke-dasharray="1.2,0.8"/>
<line x1="105.49" y1="204.914" x2="105.49" y2="259.175" stroke="#8c8c8c" stroke-width="0.3" stroke-dasharray="1.2,0.8"/>
<line x1="11.33" y1="192.945" x2="11.33" y2="204.914" stroke="#8c8c8c" stroke-width="0.3" stroke-dasharray="1.2,0.8"/>
<line x1="85.541" y1="192.945" x2="31.279" y2="192.945" stroke="#8c8c8c" stroke-width="0.3" stroke-dasharray="1.2,0.8"/>
<line x1="105.49" y1="192.945" x2="85.541" y2="192.945" stroke="#8c8c8c" stroke-width="0.3" stroke-dasharray="1.2,0.8"/>
<line x1="105.49" y1="192.945" x2="159.751" y2="192.945" stroke="#8c8c8c" stroke-width="0.3" stroke-dasharray="1.2,0.8"/>
<line x1="85.541" y1="204.914" x2="31.279" y2="204.914" stroke="#141414" stroke-width="0.4"/>
<line x1="31.279" y1="204.914" x2="11.331" y2="204.914" stroke="#141414" stroke-width="0.4"/>
<line x1="159.751" y1="204.914" x2="105.49" y2="204.914" stroke="#141414" stroke-width="0.4"/>
<line x1="159.751" y1="192.945" x2="159.751" y2="204.914" stroke="#141414" stroke-width="0.4"/>
<line x1="31.279" y1="138.684" x2="31.279" y2="192.945" stroke="#141414" stroke-width="0.4"/>
<line x1="11.331" y1="138.684" x2="31.279" y2="138.684" stroke="#141414" stroke-width="0.4"/>
<line x1="11.331" y1="192.945" x2="11.331" y2="138.684" stroke="#141414" stroke-width="0.4"/>
<line x1="85.541" y1="259.175" x2="78.541" y2="251.036" stroke="#141414" stroke-width="0.4"/>
<line x1="78.541" y1="251.036" x2="78.541" y2="213.053" stroke="#141414" stroke-width="0.4"/>
<line x1="78.541" y1="213.053" x2="85.541" y2="204.914" stroke="#141414" stroke-width="0.4"/>
<line x1="85.541" y1="259.175" x2="88.533" y2="266.175" stroke="#141414" stroke-width="0.4"/>
<line x1="88.533" y1="266.175" x2="102.497" y2="266.175" stroke="#141414" stroke-width="0.4"/>
<line x1="102.497" y1="266.175" x2="105.49" y2="259.175" stroke="#141414" stroke-width="0.4"/>
<line x1="105.49" y1="259.175" x2="112.49" y2="251.036" stroke="#141414" stroke-width="0.4"/>
<line x1="112.49" y1="251.036" x2="112.49" y2="213.053" stroke="#141414" stroke-width="0.4"/>
<line x1="112.49" y1="213.053" x2="105.49" y2="204.914" stroke="#141414" stroke-width="0.4"/>
<line x1="11.33" y1="204.914" x2="5.346" y2="203.119" stroke="#141414" stroke-width="0.4"/>
<line x1="5.346" y1="203.119" x2="5.346" y2="194.74" stroke="#141414" stroke-width="0.4"/>
<line x1="5.346" y1="194.74" x2="11.33" y2="192.945" stroke="#141414" stroke-width="0.4"/>
<line x1="31.279" y1="192.945" x2="39.419" y2="185.945" stroke="#141414" stroke-width="0.4"/>
<line x1="39.419" y1="185.945" x2="77.401" y2="185.945" stroke="#141414" stroke-width="0.4"/>
<line x1="77.401" y1="185.945" x2="85.541" y2="192.945" stroke="#141414" stroke-width="0.4"/>
<line x1="85.541" y1="192.945" x2="88.533" y2="185.945" stroke="#141414" stroke-width="0.4"/>
<line x1="88.533" y1="185.945" x2="102.497" y2="185.945" stroke="#141414" stroke-width="0.4"/>
<line x1="102.497" y1="185.945" x2="105.49" y2="192.945" stroke="#141414" stroke-width="0.4"/>
<line x1="159.751" y1="192.945" x2="151.612" y2="185.945" stroke="#141414" stroke-width="0.4"/>
<line x1="151.612" y1="185.945" x2="113.629" y2="185.945" stroke="#141414" stroke-width="0.4"/>
<line x1="113.629" y1="185.945" x2="105.49" y2="192.945" stroke="#141414" stroke-width="0.4"/>
<circle cx="82.041" cy="232.045" r="0.50" fill="#99d9fa" stroke="#464646" stroke-width="0.2"/>
<text x="82.041" y="232.28" font-size="0.68" text-anchor="middle" fill="#141414">16</text>
<circle cx="95.515" cy="262.675" r="0.50" fill="#ffe082" stroke="#464646" stroke-width="0.2"/>
<text x="95.515" y="262.91" font-size="0.68" text-anchor="middle" fill="#141414">17</text>
<circle cx="108.99" cy="232.045" r="0.50" fill="#ffe082" stroke="#464646" stroke-width="0.2"/>
<text x="108.99" y="232.28" font-size="0.68" text-anchor="middle" fill="#141414">18</text>
<circle cx="8.338" cy="198.93" r="0.50" fill="#ffe082" stroke="#464646" stroke-width="0.2"/>
<text x="8.338" y="199.17" font-size="0.68" text-anchor="middle" fill="#141414">19</text>
<circle cx="58.41" cy="189.445" r="0.50" fill="#ffe082" stroke="#464646" stroke-width="0.2"/>
<text x="58.41" y="189.68" font-size="0.68" text-anchor="middle" fill="#141414">20</text>
<circle cx="95.515" cy="189.445" r="0.50" fill="#ffe082" stroke="#464646" stroke-width="0.2"/>
<text x="95.515" y="189.68" font-size="0.68" text-anchor="middle" fill="#141414">21</text>
<circle cx="132.62" cy="189.445" r="0.50" fill="#ffe082" stroke="#464646" stroke-width="0.2"/>
<text x="132.62" y="189.68" font-size="0.68" text-anchor="middle" fill="#141414">22</text>
<circle cx="49.366" cy="200.924" r="3.12" fill="#eaf1fe" stroke="#2e78e6" stroke-width="0.3"/>
<text x="49.366" y="202.14" font-size="3.52" text-anchor="middle" fill="#14306e" font-weight="bold">4</text>
<text x="205.0" y="295.0" font-size="3.2" text-anchor="end" fill="#737373" font-family="sans-serif">3 / 10</text>
</svg>
