<svg xmlns="http://www.w3.org/2000/svg" xmlns:xlink="http://www.w3.org/1999/xlink" width="210.00mm" height="297.00mm" viewBox="0 0 210.00 297.00">
<rect x="0" y="0" width="210.00" height="297.00" fill="#ffffff" stroke="#cccccc" stroke-width="0.2"/>
<polygon points="107.102,191.034 102.223,178.791 104.898,164.143 113.791,154.415" fill="rgb(216,216,216)"/>
<polygon points="5.0,130.312 17.852,131.79 63.407,109.375 70.079,98.291" fill="rgb(216,216,216)"/>
<polygon points="5.0,130.312 4.897,121.358 25.078,104.875 33.831,106.764" fill="rgb(216,216,216)"/>
<polygon points="75.041,214.073 75.211,212.91 97.315,211.679 97.607,211.648" fill="rgb(216,216,216)"/>
<polygon points="102.902,119.084 94.233,121.879 71.256,107.323 70.079,98.291" fill="rgb(216,216,216)"/>
<polygon points="103.994,118.502 98.71,125.731 105.568,150.87 113.791,154.415" fill="rgb(216,216,216)"/>
<polygon points="102.902,119.084 103.79,118.314 92.9,99.039 92.769,98.776" fill="rgb(216,216,216)"/>
<polygon points="121.29,200.101 130.279,202.262 153.168,185.82 153.989,176.611" fill="rgb(216,216,216)"/>
<polygon points="121.29,200.101 120.967,197.122 126.35,146.498 128.766,129.79" fill="rgb(216,216,216)"/>
<polygon points="116.07,5.0 106.593,7.346 90.574,34.772 93.186,44.179" fill="rgb(216,216,216)"/>
<polygon points="79.808,226.83 82.189,239.312 116.71,274.782 129.123,277.5" fill="rgb(216,216,216)"/>
<polygon points="113.791,109.042 122.399,105.67 147.323,118.826 149.396,127.836" fill="rgb(216,216,216)"/>
<polygon points="73.737,85.173 64.42,82.255 36.486,97.369 33.831,106.764" fill="rgb(216,216,216)"/>
<polygon points="133.285,177.498 136.091,170.371 150.583,169.75 153.989,176.611" fill="rgb(216,216,216)"/>
<polygon points="133.285,177.498 146.71,158.8 149.288,150.854 149.396,127.836" fill="rgb(216,216,216)"/>
<polygon points="5.0,130.312 17.852,131.79 63.407,109.375 70.079,98.291" fill="#99d9fa"/>
<line x1="74.942" y1="212.839" x2="107.103" y2="191.034" stroke="#8c8c8c" stroke-width="0.3" stroke-dasharray="1.2,0.8"/>
<line x1="107.103" y1="191.034" x2="66.4" y2="131.002" stroke="#8c8c8c" stroke-width="0.3" stroke-dasharray="1.2,0.8"/>
<line x1="117.673" y1="199.621" x2="107.103" y2="191.034" stroke="#8c8c8c" stroke-width="0.3" stroke-dasharray="1.2,0.8"/>
<line x1="97.607" y1="211.648" x2="107.103" y2="191.034" stroke="#8c8c8c" stroke-width="0.3" stroke-dasharray="1.2,0.8"/>
<line x1="79.808" y1="226.83" x2="75.041" y2="214.073" stroke="#8c8c8c" stroke-width="0.3" stroke-dasharray="1.2,0.8"/>
<line x1="103.994" y1="118.502" x2="113.791" y2="109.042" stroke="#8c8c8c" stroke-width="0.3" stroke-dasharray="1.2,0.8"/>
<line x1="70.079" y1="98.291" x2="73.737" y2="85.173" stroke="#8c8c8c" stroke-width="0.3" stroke-dasharray="1.2,0.8"/>
<line x1="92.769" y1="98.776" x2="70.079" y2="98.291" stroke="#8c8c8c" stroke-width="0.3" stroke-dasharray="1.2,0.8"/>
<line x1="117.673" y1="199.621" x2="79.808" y2="226.83" stroke="#8c8c8c" stroke-width="0.3" stroke-dasharray="1.2,0.8"/>
<line x1="113.791" y1="109.042" x2="117.673" y2="199.621" stroke="#8c8c8c" stroke-width="0.3" stroke-dasharray="1.2,0.8"/>
<line x1="117.673" y1="199.621" x2="113.791" y2="154.415" stroke="#8c8c8c" stroke-width="0.3" stroke-dasharray="1.2,0.8"/>
<line x1="97.607" y1="211.648" x2="117.673" y2="199.621" stroke="#8c8c8c" stroke-width="0.3" stroke-dasharray="1.2,0.8"/>
<line x1="133.285" y1="177.498" x2="121.29" y2="200.101" stroke="#8c8c8c" stroke-width="0.3" stroke-dasharray="1.2,0.8"/>
<line x1="116.07" y1="5.0" x2="73.737" y2="85.173" stroke="#8c8c8c" stroke-width="0.3" stroke-dasharray="1.2,0.8"/>
<line x1="79.808" y1="226.83" x2="97.607" y2="211.648" stroke="#8c8c8c" stroke-width="0.3" stroke-dasharray="1.2,0.8"/>
<line x1="103.204" y1="237.193" x2="79.808" y2="226.83" stroke="#8c8c8c" stroke-width="0.3" stroke-dasharray="1.2,0.8"/>
<line x1="73.737" y1="85.173" x2="113.791" y2="109.042" stroke="#8c8c8c" stroke-width="0.3" stroke-dasharray="1.2,0.8"/>
<line x1="113.791" y1="154.415" x2="113.791" y2="109.042" stroke="#8c8c8c" stroke-width="0.3" stroke-dasharray="1.2,0.8"/>
<line x1="113.791" y1="109.042" x2="92.769" y2="98.776" stroke="#8c8c8c" stroke-width="0.3" stroke-dasharray="1.2,0.8"/>
<line x1="113.791" y1="109.042" x2="128.766" y2="129.79" stroke="#8c8c8c" stroke-width="0.3" stroke-dasharray="1.2,0.8"/>
<line x1="73.737" y1="85.173" x2="92.769" y2="98.776" stroke="#8c8c8c" stroke-width="0.3" stroke-dasharray="1.2,0.8"/>
<line x1="73.737" y1="85.173" x2="96.16" y2="72.846" stroke="#8c8c8c" stroke-width="0.3" stroke-dasharray="1.2,0.8"/>
<line x1="128.766" y1="129.79" x2="133.285" y2="177.498" stroke="#8c8c8c" stroke-width="0.3" stroke-dasharray="1.2,0.8"/>
<line x1="103.204" y1="237.193" x2="129.123" y2="277.5" stroke="#8c8c8c" stroke-width="0.3" stroke-dasharray="1.2,0.8"/>
<line x1="149.396" y1="127.836" x2="128.766" y2="129.79" stroke="#8c8c8c" stroke-width="0.3" stroke-dasharray="1.2,0.8"/>
<line x1="113.791" y1="154.415" x2="107.102" y2="191.034" stroke="#8c8c8c" stroke-width="0.3" stroke-dasharray="1.2,0.8"/>
<line x1="70.079" y1="98.291" x2="5.0" y2="130.312" stroke="#8c8c8c" stroke-width="0.3" stroke-dasharray="1.2,0.8"/>
<line x1="33.831" y1="106.764" x2="5.0" y2="130.312" stroke="#8c8c8c" stroke-width="0.3" stroke-dasharray="1.2,0.8"/>
<line x1="97.607" y1="211.648" x2="75.041" y2="214.073" stroke="#8c8c8c" stroke-width="0.3" stroke-dasharray="1.2,0.8"/>
<line x1="70.079" y1="98.291" x2="102.902" y2="119.084" stroke="#8c8c8c" stroke-width="0.3" stroke-dasharray="1.2,0.8"/>
<line x1="113.791" y1="154.415" x2="103.994" y2="118.502" stroke="#8c8c8c" stroke-width="0.3" stroke-dasharray="1.2,0.8"/>
<line x1="92.769" y1="98.776" x2="102.902" y2="119.084" stroke="#8c8c8c" stroke-width="0.3" stroke-dasharray="1.2,0.8"/>
<line x1="153.989" y1="176.611" x2="121.29" y2="200.101" stroke="#8c8c8c" stroke-width="0.3" stroke-dasharray="1.2,0.8"/>
<line x1="128.766" y1="129.79" x2="121.29" y2="200.101" stroke="#8c8c8c" stroke-width="0.3" stroke-dasharray="1.2,0.8"/>
<line x1="93.186" y1="44.179" x2="116.07" y2="5.0" stroke="#8c8c8c" stroke-width="0.3" stroke-dasharray="1.2,0.8"/>
<line x1="129.123" y1="277.5" x2="79.808" y2="226.83" stroke="#8c8c8c" stroke-width="0.3" stroke-dasharray="1.2,0.8"/>
<line x1="149.396" y1="127.836" x2="113.791" y2="109.042" stroke="#8c8c8c" stroke-width="0.3" stroke-dasharray="1.2,0.8"/>
<line x1="33.831" y1="106.764" x2="73.737" y2="85.173" stroke="#8c8c8c" stroke-width="0.3" stroke-dasharray="1.2,0.8"/>
<line x1="153.989" y1="176.611" x2="133.285" y2="177.498" stroke="#8c8c8c" stroke-width="0.3" stroke-dasharray="1.2,0.8"/>
<line x1="149.396" y1="127.836" x2="133.285" y2="177.498" stroke="#8c8c8c" stroke-width="0.3" stroke-dasharray="1.2,0.8"/>
<line x1="93.704" y1="156.304" x2="107.103" y2="191.034" stroke="#141414" stroke-width="0.4"/>
<line x1="74.942" y1="212.839" x2="34.239" y2="152.807" stroke="#141414" stroke-width="0.4"/>
<line x1="38.201" y1="208.732" x2="75.041" y2="214.073" stroke="#141414" stroke-width="0.4"/>
<line x1="97.607" y1="211.648" x2="74.942" y2="212.839" stroke="#141414" stroke-width="0.4"/>
<line x1="34.239" y1="152.807" x2="66.4" y2="131.002" stroke="#141414" stroke-width="0.4"/>
<line x1="66.4" y1="131.002" x2="93.704" y2="156.304" stroke="#141414" stroke-width="0.4"/>
<line x1="103.994" y1="118.502" x2="92.769" y2="98.776" stroke="#141414" stroke-width="0.4"/>
<line x1="117.673" y1="199.621" x2="103.204" y2="237.193" stroke="#141414" stroke-width="0.4"/>
<line x1="128.766" y1="129.79" x2="117.673" y2="199.621" stroke="#141414" stroke-width="0.4"/>
<line x1="79.808" y1="226.83" x2="38.201" y2="208.732" stroke="#141414" stroke-width="0.4"/>
<line x1="116.07" y1="5.0" x2="96.16" y2="72.846" stroke="#141414" stroke-width="0.4"/>
<line x1="96.16" y1="72.846" x2="113.791" y2="109.042" stroke="#141414" stroke-width="0.4"/>
<line x1="73.737" y1="85.173" x2="93.186" y2="44.179" stroke="#141414" stroke-width="0.4"/>
<line x1="103.204" y1="237.193" x2="120.634" y2="225.984" stroke="#141414" stroke-width="0.4"/>
<line x1="120.634" y1="225.984" x2="129.123" y2="277.5" stroke="#141414" stroke-width="0.4"/>
<line x1="107.102" y1="191.034" x2="102.223" y2="178.791" stroke="#141414" stroke-width="0.4"/>
<line x1="102.223" y1="178.791" x2="104.898" y2="164.143" stroke="#141414" stroke-width="0.4"/>
<line x1="104.898" y1="164.143" x2="113.791" y2="154.415" stroke="#141414" stroke-width="0.4"/>
<line x1="5.0" y1="130.312" x2="17.852" y2="131.79" stroke="#141414" stroke-width="0.4"/>
<line x1="17.852" y1="131.79" x2="63.407" y2="109.375" stroke="#141414" stroke-width="0.4"/>
<line x1="63.407" y1="109.375" x2="70.079" y2="98.291" stroke="#141414" stroke-width="0.4"/>
<line x1="5.0" y1="130.312" x2="4.897" y2="121.358" stroke="#141414" stroke-width="0.4"/>
<line x1="4.897" y1="121.358" x2="25.078" y2="104.875" stroke="#141414" stroke-width="0.4"/>
<line x1="25.078" y1="104.875" x2="33.831" y2="106.764" stroke="#141414" stroke-width="0.4"/>
<line x1="75.041" y1="214.073" x2="75.211" y2="212.91" stroke="#141414" stroke-width="0.4"/>
<line x1="75.211" y1="212.91" x2="97.315" y2="211.679" stroke="#141414" stroke-width="0.4"/>
<line x1="97.315" y1="211.679" x2="97.607" y2="211.648" stroke="#141414" stroke-width="0.4"/>
<line x1="102.902" y1="119.084" x2="94.233" y2="121.879" stroke="#141414" stroke-width="0.4"/>
<line x1="94.233" y1="121.879" x2="71.256" y2="107.323" stroke="#141414" stroke-width="0.4"/>
<line x1="71.256" y1="107.323" x2="70.079" y2="98.291" stroke="#141414" stroke-width="0.4"/>
<line x1="103.994" y1="118.502" x2="98.71" y2="125.731" stroke="#141414" stroke-width="0.4"/>
<line x1="98.71" y1="125.731" x2="105.568" y2="150.87" stroke="#141414" stroke-width="0.4"/>
<line x1="105.568" y1="150.87" x2="113.791" y2="154.415" stroke="#141414" stroke-width="0.4"/>
<line x1="102.902" y1="119.084" x2="103.79" y2="118.314" stroke="#141414" stroke-width="0.4"/>
<line x1="103.79" y1="118.314" x2="92.9" y2="99.039" stroke="#141414" stroke-width="0.4"/>
<line x1="92.9" y1="99.039" x2="92.769" y2="98.776" stroke="#141414" stroke-width="0.4"/>
<line x1="121.29" y1="200.101" x2="130.279" y2="202.262" stroke="#141414" stroke-width="0.4"/>
<line x1="130.279" y1="202.262" x2="153.168" y2="185.82" stroke="#141414" stroke-width="0.4"/>
<line x1="153.168" y1="185.82" x2="153.989" y2="176.611" stroke="#141414" stroke-width="0.4"/>
<line x1="121.29" y1="200.101" x2="120.967" y2="197.122" stroke="#141414" stroke-width="0.4"/>
<line x1="120.967" y1="197.122" x2="126.35" y2="146.498" stroke="#141414" stroke-width="0.4"/>
<line x1="126.35" y1="146.498" x2="128.766" y2="129.79" stroke="#141414" stroke-width="0.4"/>
<line x1="116.07" y1="5.0" x2="106.593" y2="7.346" stroke="#141414" stroke-width="0.4"/>
<line x1="106.593" y1="7.346" x2="90.574" y2="34.772" stroke="#141414" stroke-width="0.4"/>
<line x1="90.574" y1="34.772" x2="93.186" y2="44.179" stroke="#141414" stroke-width="0.4"/>
<line x1="79.808" y1="226.83" x2="82.189" y2="239.312" stroke="#141414" stroke-width="0.4"/>
<line x1="82.189" y1="239.312" x2="116.71" y2="274.782" stroke="#141414" stroke-width="0.4"/>
<line x1="116.71" y1="274.782" x2="129.123" y2="277.5" stroke="#141414" stroke-width="0.4"/>
<line x1="113.791" y1="109.042" x2="122.399" y2="105.67" stroke="#141414" stroke-width="0.4"/>
<line x1="122.399" y1="105.67" x2="147.323" y2="118.826" stroke="#141414" stroke-width="0.4"/>
<line x1="147.323" y1="118.826" x2="149.396" y2="127.836" stroke="#141414" stroke-width="0.4"/>
<line x1="73.737" y1="85.173" x2="64.42" y2="82.255" stroke="#141414" stroke-width="0.4"/>
<line x1="64.42" y1="82.255" x2="36.486" y2="97.369" stroke="#141414" stroke-width="0.4"/>
<line x1="36.486" y1="97.369" x2="33.831" y2="106.764" stroke="#141414" stroke-width="0.4"/>
<line x1="133.285" y1="177.498" x2="136.091" y2="170.371" stroke="#141414" stroke-width="0.4"/>
<line x1="136.091" y1="170.371" x2="150.583" y2="169.75" stroke="#141414" stroke-width="0.4"/>
<line x1="150.583" y1="169.75" x2="153.989" y2="176.611" stroke="#141414" stroke-width="0.4"/>
<line x1="133.285" y1="177.498" x2="146.71" y2="158.8" stroke="#141414" stroke-width="0.4"/>
<line x1="146.71" y1="158.8" x2="149.288" y2="150.854" stroke="#141414" stroke-width="0.4"/>
<line x1="149.288" y1="150.854" x2="149.396" y2="127.836" stroke="#141414" stroke-width="0.4"/>
<circle cx="107.004" cy="172.096" r="0.30" fill="#ffe082" stroke="#464646" stroke-width="0.2"/>
<text x="107.004" y="172.20" font-size="0.29" text-anchor="middle" fill="#141414">63</text>
<circle cx="39.085" cy="117.442" r="0.30" fill="#99d9fa" stroke="#464646" stroke-width="0.2"/>
<text x="39.085" y="117.54" font-size="0.29" text-anchor="middle" fill="#141414">64</text>
<circle cx="17.202" cy="115.827" r="0.30" fill="#ffe082" stroke="#464646" stroke-width="0.2"/>
<text x="17.202" y="115.93" font-size="0.29" text-anchor="middle" fill="#141414">65</text>
<circle cx="84.618" cy="111.644" r="0.30" fill="#ffe082" stroke="#464646" stroke-width="0.2"/>
<text x="84.618" y="111.75" font-size="0.29" text-anchor="middle" fill="#141414">67</text>
<circle cx="105.516" cy="137.379" r="0.30" fill="#ffe082" stroke="#464646" stroke-width="0.2"/>
<text x="105.516" y="137.48" font-size="0.29" text-anchor="middle" fill="#141414">68</text>
<circle cx="139.681" cy="191.198" r="0.30" fill="#ffe082" stroke="#464646" stroke-width="0.2"/>
<text x="139.681" y="191.30" font-size="0.29" text-anchor="middle" fill="#141414">70</text>
<circle cx="124.343" cy="168.378" r="0.30" fill="#ffe082" stroke="#464646" stroke-width="0.2"/>
<text x="124.343" y="168.48" font-size="0.29" text-anchor="middle" fill="#141414">71</text>
<circle cx="101.605" cy="22.824" r="0.30" fill="#ffe082" stroke="#464646" stroke-width="0.2"/>
<text x="101.605" y="22.93" font-size="0.29" text-anchor="middle" fill="#141414">72</text>
<circle cx="101.957" cy="254.606" r="0.30" fill="#ffe082" stroke="#464646" stroke-width="0.2"/>
<text x="101.957" y="254.71" font-size="0.29" text-anchor="middle" fill="#141414">73</text>
<circle cx="133.227" cy="115.344" r="0.30" fill="#ffe082" stroke="#464646" stroke-width="0.2"/>
<text x="133.227" y="115.45" font-size="0.29" text-anchor="middle" fill="#141414">74</text>
<circle cx="52.119" cy="92.89" r="0.30" fill="#ffe082" stroke="#464646" stroke-width="0.2"/>
<text x="52.119" y="92.99" font-size="0.29" text-anchor="middle" fill="#141414">75</text>
<circle cx="143.487" cy="173.558" r="0.30" fill="#ffe082" stroke="#464646" stroke-width="0.2"/>
<text x="143.487" y="173.66" font-size="0.29" text-anchor="middle" fill="#141414">76</text>
<circle cx="144.67" cy="153.747" r="0.30" fill="#ffe082" stroke="#464646" stroke-width="0.2"/>
<text x="144.67" y="153.85" font-size="0.29" text-anchor="middle" fill="#141414">77</text>
<circle cx="79.546" cy="283.6" r="4.6" fill="#eaf1fe" stroke="#2e78e6" stroke-width="0.3"/>
<text x="79.546" y="285.40000000000003" font-size="5.2" text-anchor="middle" fill="#14306e" font-weight="bold">9</text>
<text x="205.0" y="295.0" font-size="3.2" text-anchor="end" fill="#737373" font-family="sans-serif">4 / 6</text>
</svg>
