<svg xmlns="http://www.w3.org/2000/svg" xmlns:xlink="http://www.w3.org/1999/xlink" width="210.00mm" height="297.00mm" viewBox="0 0 210.00 297.00">
<rect x="0" y="0" width="210.00" height="297.00" fill="#ffffff" stroke="#cccccc" stroke-width="0.2"/>
<polygon points="26.629,13.181 29.569,8.74 36.406,10.805 36.396,16.131" fill="rgb(216,216,216)"/>
<polygon points="62.973,104.969 60.729,107.999 57.508,102.544 58.5,97.391" fill="rgb(216,216,216)"/>
<polygon points="57.384,106.12 49.344,109.868 26.706,98.283 25.044,89.569" fill="rgb(216,216,216)"/>
<polygon points="72.609,101.614 79.605,103.057 84.153,94.627 79.106,89.572" fill="rgb(216,216,216)"/>
<polygon points="36.396,16.131 39.241,18.35 18.27,47.843 18.015,48.289" fill="rgb(216,216,216)"/>
<polygon points="79.106,89.572 85.877,87.297 85.564,77.723 78.659,75.895" fill="rgb(216,216,216)"/>
<polygon points="50.365,26.763 51.063,28.171 24.653,52.926 24.292,53.293" fill="rgb(216,216,216)"/>
<polygon points="78.659,75.895 81.239,71.236 76.248,66.127 71.529,68.596" fill="rgb(216,216,216)"/>
<polygon points="59.739,38.837 61.325,42.077 29.557,59.409 29.131,59.699" fill="rgb(216,216,216)"/>
<polygon points="71.529,68.596 70.871,64.883 65.556,68.331 64.147,73.385" fill="rgb(216,216,216)"/>
<polygon points="64.452,51.999 52.877,64.159 47.479,66.314 30.712,65.472" fill="rgb(216,216,216)"/>
<polygon points="25.044,89.569 17.814,92.267 7.037,81.618 9.647,74.357" fill="rgb(216,216,216)"/>
<polygon points="29.015,70.347 28.507,70.43 10.636,72.24 10.301,73.385" fill="rgb(216,216,216)"/>
<polygon points="25.698,84.448 25.28,84.148 10.091,74.56 10.301,73.385" fill="rgb(216,216,216)"/>
<polygon points="10.358,66.87 9.599,70.28 5.848,70.329 5.0,66.94" fill="rgb(216,216,216)"/>
<polygon points="26.629,13.181 29.569,8.74 36.406,10.805 36.396,16.131" fill="#99d9fa"/>
<line x1="64.147" y1="73.385" x2="58.5" y2="97.391" stroke="#8c8c8c" stroke-width="0.3" stroke-dasharray="1.2,0.8"/>
<line x1="29.016" y1="70.347" x2="64.147" y2="73.385" stroke="#8c8c8c" stroke-width="0.3" stroke-dasharray="1.2,0.8"/>
<line x1="58.5" y1="97.391" x2="25.698" y2="84.448" stroke="#8c8c8c" stroke-width="0.3" stroke-dasharray="1.2,0.8"/>
<line x1="12.285" y1="46.559" x2="18.015" y2="48.289" stroke="#8c8c8c" stroke-width="0.3" stroke-dasharray="1.2,0.8"/>
<line x1="25.698" y1="84.448" x2="25.044" y2="89.569" stroke="#8c8c8c" stroke-width="0.3" stroke-dasharray="1.2,0.8"/>
<line x1="10.358" y1="66.87" x2="12.285" y2="46.559" stroke="#8c8c8c" stroke-width="0.3" stroke-dasharray="1.2,0.8"/>
<line x1="18.015" y1="48.289" x2="24.292" y2="53.293" stroke="#8c8c8c" stroke-width="0.3" stroke-dasharray="1.2,0.8"/>
<line x1="10.358" y1="66.87" x2="18.015" y2="48.289" stroke="#8c8c8c" stroke-width="0.3" stroke-dasharray="1.2,0.8"/>
<line x1="24.292" y1="53.293" x2="29.131" y2="59.699" stroke="#8c8c8c" stroke-width="0.3" stroke-dasharray="1.2,0.8"/>
<line x1="24.292" y1="53.293" x2="10.358" y2="66.87" stroke="#8c8c8c" stroke-width="0.3" stroke-dasharray="1.2,0.8"/>
<line x1="29.131" y1="59.699" x2="30.712" y2="65.472" stroke="#8c8c8c" stroke-width="0.3" stroke-dasharray="1.2,0.8"/>
<line x1="29.131" y1="59.699" x2="10.358" y2="66.87" stroke="#8c8c8c" stroke-width="0.3" stroke-dasharray="1.2,0.8"/>
<line x1="30.712" y1="65.472" x2="29.016" y2="70.347" stroke="#8c8c8c" stroke-width="0.3" stroke-dasharray="1.2,0.8"/>
<line x1="30.712" y1="65.472" x2="10.358" y2="66.87" stroke="#8c8c8c" stroke-width="0.3" stroke-dasharray="1.2,0.8"/>
<line x1="10.149" y1="72.225" x2="30.712" y2="65.472" stroke="#8c8c8c" stroke-width="0.3" stroke-dasharray="1.2,0.8"/>
<line x1="36.396" y1="16.131" x2="26.629" y2="13.181" stroke="#8c8c8c" stroke-width="0.3" stroke-dasharray="1.2,0.8"/>
<line x1="58.5" y1="97.391" x2="62.973" y2="104.969" stroke="#8c8c8c" stroke-width="0.3" stroke-dasharray="1.2,0.8"/>
<line x1="25.044" y1="89.569" x2="57.384" y2="106.12" stroke="#8c8c8c" stroke-width="0.3" stroke-dasharray="1.2,0.8"/>
<line x1="79.106" y1="89.572" x2="72.609" y2="101.614" stroke="#8c8c8c" stroke-width="0.3" stroke-dasharray="1.2,0.8"/>
<line x1="18.015" y1="48.289" x2="36.396" y2="16.131" stroke="#8c8c8c" stroke-width="0.3" stroke-dasharray="1.2,0.8"/>
<line x1="78.659" y1="75.895" x2="79.106" y2="89.572" stroke="#8c8c8c" stroke-width="0.3" stroke-dasharray="1.2,0.8"/>
<line x1="24.292" y1="53.293" x2="50.365" y2="26.763" stroke="#8c8c8c" stroke-width="0.3" stroke-dasharray="1.2,0.8"/>
<line x1="71.529" y1="68.596" x2="78.659" y2="75.895" stroke="#8c8c8c" stroke-width="0.3" stroke-dasharray="1.2,0.8"/>
<line x1="29.131" y1="59.699" x2="59.739" y2="38.837" stroke="#8c8c8c" stroke-width="0.3" stroke-dasharray="1.2,0.8"/>
<line x1="64.147" y1="73.385" x2="71.529" y2="68.596" stroke="#8c8c8c" stroke-width="0.3" stroke-dasharray="1.2,0.8"/>
<line x1="30.712" y1="65.472" x2="64.452" y2="51.999" stroke="#8c8c8c" stroke-width="0.3" stroke-dasharray="1.2,0.8"/>
<line x1="9.647" y1="74.357" x2="25.044" y2="89.569" stroke="#8c8c8c" stroke-width="0.3" stroke-dasharray="1.2,0.8"/>
<line x1="10.301" y1="73.385" x2="29.015" y2="70.347" stroke="#8c8c8c" stroke-width="0.3" stroke-dasharray="1.2,0.8"/>
<line x1="10.301" y1="73.385" x2="25.698" y2="84.448" stroke="#8c8c8c" stroke-width="0.3" stroke-dasharray="1.2,0.8"/>
<line x1="5.0" y1="66.94" x2="10.358" y2="66.87" stroke="#8c8c8c" stroke-width="0.3" stroke-dasharray="1.2,0.8"/>
<line x1="72.609" y1="101.614" x2="62.973" y2="104.969" stroke="#141414" stroke-width="0.4"/>
<line x1="58.5" y1="97.391" x2="57.385" y2="106.12" stroke="#141414" stroke-width="0.4"/>
<line x1="12.285" y1="46.559" x2="26.629" y2="13.181" stroke="#141414" stroke-width="0.4"/>
<line x1="39.664" y1="18.234" x2="50.365" y2="26.763" stroke="#141414" stroke-width="0.4"/>
<line x1="18.015" y1="48.289" x2="39.664" y2="18.234" stroke="#141414" stroke-width="0.4"/>
<line x1="51.491" y1="27.919" x2="59.739" y2="38.837" stroke="#141414" stroke-width="0.4"/>
<line x1="24.292" y1="53.293" x2="51.491" y2="27.919" stroke="#141414" stroke-width="0.4"/>
<line x1="61.757" y1="42.159" x2="64.452" y2="51.999" stroke="#141414" stroke-width="0.4"/>
<line x1="29.131" y1="59.699" x2="61.757" y2="42.159" stroke="#141414" stroke-width="0.4"/>
<line x1="67.04" y1="65.075" x2="64.147" y2="73.385" stroke="#141414" stroke-width="0.4"/>
<line x1="30.712" y1="65.472" x2="67.04" y2="65.075" stroke="#141414" stroke-width="0.4"/>
<line x1="5.0" y1="66.94" x2="12.285" y2="46.559" stroke="#141414" stroke-width="0.4"/>
<line x1="29.016" y1="70.347" x2="10.149" y2="72.225" stroke="#141414" stroke-width="0.4"/>
<line x1="9.647" y1="74.357" x2="25.698" y2="84.448" stroke="#141414" stroke-width="0.4"/>
<line x1="10.149" y1="72.225" x2="10.358" y2="66.87" stroke="#141414" stroke-width="0.4"/>
<line x1="26.629" y1="13.181" x2="29.569" y2="8.74" stroke="#141414" stroke-width="0.4"/>
<line x1="29.569" y1="8.74" x2="36.406" y2="10.805" stroke="#141414" stroke-width="0.4"/>
<line x1="36.406" y1="10.805" x2="36.396" y2="16.131" stroke="#141414" stroke-width="0.4"/>
<line x1="62.973" y1="104.969" x2="60.729" y2="107.999" stroke="#141414" stroke-width="0.4"/>
<line x1="60.729" y1="107.999" x2="57.508" y2="102.544" stroke="#141414" stroke-width="0.4"/>
<line x1="57.508" y1="102.544" x2="58.5" y2="97.391" stroke="#141414" stroke-width="0.4"/>
<line x1="57.384" y1="106.12" x2="49.344" y2="109.868" stroke="#141414" stroke-width="0.4"/>
<line x1="49.344" y1="109.868" x2="26.706" y2="98.283" stroke="#141414" stroke-width="0.4"/>
<line x1="26.706" y1="98.283" x2="25.044" y2="89.569" stroke="#141414" stroke-width="0.4"/>
<line x1="72.609" y1="101.614" x2="79.605" y2="103.057" stroke="#141414" stroke-width="0.4"/>
<line x1="79.605" y1="103.057" x2="84.153" y2="94.627" stroke="#141414" stroke-width="0.4"/>
<line x1="84.153" y1="94.627" x2="79.106" y2="89.572" stroke="#141414" stroke-width="0.4"/>
<line x1="36.396" y1="16.131" x2="39.241" y2="18.35" stroke="#141414" stroke-width="0.4"/>
<line x1="39.241" y1="18.35" x2="18.27" y2="47.843" stroke="#141414" stroke-width="0.4"/>
<line x1="18.27" y1="47.843" x2="18.015" y2="48.289" stroke="#141414" stroke-width="0.4"/>
<line x1="79.106" y1="89.572" x2="85.877" y2="87.297" stroke="#141414" stroke-width="0.4"/>
<line x1="85.877" y1="87.297" x2="85.564" y2="77.723" stroke="#141414" stroke-width="0.4"/>
<line x1="85.564" y1="77.723" x2="78.659" y2="75.895" stroke="#141414" stroke-width="0.4"/>
<line x1="50.365" y1="26.763" x2="51.063" y2="28.171" stroke="#141414" stroke-width="0.4"/>
<line x1="51.063" y1="28.171" x2="24.653" y2="52.926" stroke="#141414" stroke-width="0.4"/>
<line x1="24.653" y1="52.926" x2="24.292" y2="53.293" stroke="#141414" stroke-width="0.4"/>
<line x1="78.659" y1="75.895" x2="81.239" y2="71.236" stroke="#141414" stroke-width="0.4"/>
<line x1="81.239" y1="71.236" x2="76.248" y2="66.127" stroke="#141414" stroke-width="0.4"/>
<line x1="76.248" y1="66.127" x2="71.529" y2="68.596" stroke="#141414" stroke-width="0.4"/>
<line x1="59.739" y1="38.837" x2="61.325" y2="42.077" stroke="#141414" stroke-width="0.4"/>
<line x1="61.325" y1="42.077" x2="29.557" y2="59.409" stroke="#141414" stroke-width="0.4"/>
<line x1="29.557" y1="59.409" x2="29.131" y2="59.699" stroke="#141414" stroke-width="0.4"/>
<line x1="71.529" y1="68.596" x2="70.871" y2="64.883" stroke="#141414" stroke-width="0.4"/>
<line x1="70.871" y1="64.883" x2="65.556" y2="68.331" stroke="#141414" stroke-width="0.4"/>
<line x1="65.556" y1="68.331" x2="64.147" y2="73.385" stroke="#141414" stroke-width="0.4"/>
<line x1="64.452" y1="51.999" x2="52.877" y2="64.159" stroke="#141414" stroke-width="0.4"/>
<line x1="52.877" y1="64.159" x2="47.479" y2="66.314" stroke="#141414" stroke-width="0.4"/>
<line x1="47.479" y1="66.314" x2="30.712" y2="65.472" stroke="#141414" stroke-width="0.4"/>
<line x1="25.044" y1="89.569" x2="17.814" y2="92.267" stroke="#141414" stroke-width="0.4"/>
<line x1="17.814" y1="92.267" x2="7.037" y2="81.618" stroke="#141414" stroke-width="0.4"/>
<line x1="7.037" y1="81.618" x2="9.647" y2="74.357" stroke="#141414" stroke-width="0.4"/>
<line x1="29.015" y1="70.347" x2="28.507" y2="70.43" stroke="#141414" stroke-width="0.4"/>
<line x1="28.507" y1="70.43" x2="10.636" y2="72.24" stroke="#141414" stroke-width="0.4"/>
<line x1="10.636" y1="72.24" x2="10.301" y2="73.385" stroke="#141414" stroke-width="0.4"/>
<line x1="25.698" y1="84.448" x2="25.28" y2="84.148" stroke="#141414" stroke-width="0.4"/>
<line x1="25.28" y1="84.148" x2="10.091" y2="74.56" stroke="#141414" stroke-width="0.4"/>
<line x1="10.091" y1="74.56" x2="10.301" y2="73.385" stroke="#141414" stroke-width="0.4"/>
<line x1="10.358" y1="66.87" x2="9.599" y2="70.28" stroke="#141414" stroke-width="0.4"/>
<line x1="9.599" y1="70.28" x2="5.848" y2="70.329" stroke="#141414" stroke-width="0.4"/>
<line x1="5.848" y1="70.329" x2="5.0" y2="66.94" stroke="#141414" stroke-width="0.4"/>
<circle cx="32.25" cy="12.214" r="1.50" fill="#99d9fa" stroke="#464646" stroke-width="0.2"/>
<text x="32.25" y="12.92" font-size="2.03" text-anchor="middle" fill="#141414">62</text>
<circle cx="59.927" cy="103.226" r="1.50" fill="#ffe082" stroke="#464646" stroke-width="0.2"/>
<text x="59.927" y="103.94" font-size="2.03" text-anchor="middle" fill="#141414">63</text>
<circle cx="39.62" cy="100.96" r="1.50" fill="#ffe082" stroke="#464646" stroke-width="0.2"/>
<text x="39.62" y="101.67" font-size="2.03" text-anchor="middle" fill="#141414">64</text>
<circle cx="78.868" cy="97.217" r="1.50" fill="#ffe082" stroke="#464646" stroke-width="0.2"/>
<text x="78.868" y="97.93" font-size="2.03" text-anchor="middle" fill="#141414">65</text>
<circle cx="82.302" cy="82.622" r="1.50" fill="#ffe082" stroke="#464646" stroke-width="0.2"/>
<text x="82.302" y="83.33" font-size="2.03" text-anchor="middle" fill="#141414">67</text>
<circle cx="76.919" cy="70.463" r="1.50" fill="#ffe082" stroke="#464646" stroke-width="0.2"/>
<text x="76.919" y="71.17" font-size="2.03" text-anchor="middle" fill="#141414">69</text>
<circle cx="68.026" cy="68.799" r="1.50" fill="#ffe082" stroke="#464646" stroke-width="0.2"/>
<text x="68.026" y="69.51" font-size="2.03" text-anchor="middle" fill="#141414">71</text>
<circle cx="48.88" cy="61.986" r="1.50" fill="#ffe082" stroke="#464646" stroke-width="0.2"/>
<text x="48.88" y="62.70" font-size="2.03" text-anchor="middle" fill="#141414">72</text>
<circle cx="14.886" cy="84.453" r="1.50" fill="#ffe082" stroke="#464646" stroke-width="0.2"/>
<text x="14.886" y="85.16" font-size="2.03" text-anchor="middle" fill="#141414">73</text>
<circle cx="7.701" cy="68.605" r="1.50" fill="#ffe082" stroke="#464646" stroke-width="0.2"/>
<text x="7.701" y="69.32" font-size="2.03" text-anchor="middle" fill="#141414">76</text>
<circle cx="45.439" cy="112.229" r="4.6" fill="#eaf1fe" stroke="#2e78e6" stroke-width="0.3"/>
<text x="45.439" y="114.029" font-size="5.2" text-anchor="middle" fill="#14306e" font-weight="bold">8</text>
<text x="205.0" y="295.0" font-size="3.2" text-anchor="end" fill="#737373" font-family="sans-serif">6 / 6</text>
<g pointer-events="none"><text x="105.0" y="83.2" text-anchor="middle" font-family="sans-serif" font-size="12.4" fill="#9aa0a6" fill-opacity="0.3" transform="rotate(-28 105.0 83.2)">papercraft.kr</text><text x="105.0" y="148.5" text-anchor="middle" font-family="sans-serif" font-size="12.4" fill="#9aa0a6" fill-opacity="0.3" transform="rotate(-28 105.0 148.5)">papercraft.kr</text><text x="105.0" y="213.8" text-anchor="middle" font-family="sans-serif" font-size="12.4" fill="#9aa0a6" fill-opacity="0.3" transform="rotate(-28 105.0 213.8)">papercraft.kr</text></g></svg>
