<svg xmlns="http://www.w3.org/2000/svg" xmlns:xlink="http://www.w3.org/1999/xlink" width="210.00mm" height="297.00mm" viewBox="0 0 210.00 297.00">
<rect x="0" y="0" width="210.00" height="297.00" fill="#ffffff" stroke="#cccccc" stroke-width="0.2"/>
<polygon points="17.755,73.492 18.056,64.383 24.018,56.38 32.659,53.484" fill="rgb(216,216,216)"/>
<polygon points="17.755,73.492 11.853,76.342 8.071,94.569 12.352,99.531" fill="rgb(216,216,216)"/>
<polygon points="80.629,102.313 86.015,99.826 86.939,86.537 81.949,83.329" fill="rgb(216,216,216)"/>
<polygon points="80.629,102.313 79.12,108.621 62.5,115.763 56.885,112.515" fill="rgb(216,216,216)"/>
<polygon points="85.252,6.995 91.708,8.715 99.658,26.597 96.611,32.541" fill="rgb(216,216,216)"/>
<polygon points="56.885,112.515 48.75,115.56 17.577,106.471 12.352,99.531" fill="rgb(216,216,216)"/>
<polygon points="87.118,53.743 93.288,52.688 99.933,37.846 96.611,32.541" fill="rgb(216,216,216)"/>
<polygon points="32.775,32.541 28.619,27.28 32.913,8.001 38.908,5.0" fill="rgb(216,216,216)"/>
<polygon points="17.755,73.492 11.853,76.342 8.071,94.569 12.352,99.531" fill="#99d9fa"/>
<line x1="80.629" y1="102.313" x2="17.755" y2="73.492" stroke="#8c8c8c" stroke-width="0.3" stroke-dasharray="1.2,0.8"/>
<line x1="81.949" y1="83.329" x2="17.755" y2="73.492" stroke="#8c8c8c" stroke-width="0.3" stroke-dasharray="1.2,0.8"/>
<line x1="17.755" y1="73.492" x2="56.885" y2="112.515" stroke="#8c8c8c" stroke-width="0.3" stroke-dasharray="1.2,0.8"/>
<line x1="7.716" y1="54.026" x2="32.775" y2="32.541" stroke="#8c8c8c" stroke-width="0.3" stroke-dasharray="1.2,0.8"/>
<line x1="32.659" y1="53.484" x2="81.949" y2="83.329" stroke="#8c8c8c" stroke-width="0.3" stroke-dasharray="1.2,0.8"/>
<line x1="32.659" y1="53.484" x2="87.118" y2="53.743" stroke="#8c8c8c" stroke-width="0.3" stroke-dasharray="1.2,0.8"/>
<line x1="32.659" y1="53.484" x2="32.775" y2="32.541" stroke="#8c8c8c" stroke-width="0.3" stroke-dasharray="1.2,0.8"/>
<line x1="87.118" y1="53.743" x2="81.949" y2="83.329" stroke="#8c8c8c" stroke-width="0.3" stroke-dasharray="1.2,0.8"/>
<line x1="87.118" y1="53.743" x2="32.775" y2="32.541" stroke="#8c8c8c" stroke-width="0.3" stroke-dasharray="1.2,0.8"/>
<line x1="32.775" y1="32.541" x2="96.611" y2="32.541" stroke="#8c8c8c" stroke-width="0.3" stroke-dasharray="1.2,0.8"/>
<line x1="96.611" y1="32.541" x2="38.908" y2="5.0" stroke="#8c8c8c" stroke-width="0.3" stroke-dasharray="1.2,0.8"/>
<line x1="110.256" y1="55.809" x2="81.949" y2="83.329" stroke="#8c8c8c" stroke-width="0.3" stroke-dasharray="1.2,0.8"/>
<line x1="32.659" y1="53.484" x2="17.755" y2="73.492" stroke="#8c8c8c" stroke-width="0.3" stroke-dasharray="1.2,0.8"/>
<line x1="12.352" y1="99.531" x2="17.755" y2="73.492" stroke="#8c8c8c" stroke-width="0.3" stroke-dasharray="1.2,0.8"/>
<line x1="81.949" y1="83.329" x2="80.629" y2="102.313" stroke="#8c8c8c" stroke-width="0.3" stroke-dasharray="1.2,0.8"/>
<line x1="56.885" y1="112.515" x2="80.629" y2="102.313" stroke="#8c8c8c" stroke-width="0.3" stroke-dasharray="1.2,0.8"/>
<line x1="96.611" y1="32.541" x2="85.252" y2="6.995" stroke="#8c8c8c" stroke-width="0.3" stroke-dasharray="1.2,0.8"/>
<line x1="12.352" y1="99.531" x2="56.885" y2="112.515" stroke="#8c8c8c" stroke-width="0.3" stroke-dasharray="1.2,0.8"/>
<line x1="96.611" y1="32.541" x2="87.118" y2="53.743" stroke="#8c8c8c" stroke-width="0.3" stroke-dasharray="1.2,0.8"/>
<line x1="38.908" y1="5.0" x2="32.775" y2="32.541" stroke="#8c8c8c" stroke-width="0.3" stroke-dasharray="1.2,0.8"/>
<line x1="32.659" y1="53.484" x2="7.716" y2="54.026" stroke="#141414" stroke-width="0.4"/>
<line x1="7.716" y1="54.026" x2="5.0" y2="27.572" stroke="#141414" stroke-width="0.4"/>
<line x1="100.872" y1="85.352" x2="81.949" y2="83.329" stroke="#141414" stroke-width="0.4"/>
<line x1="110.256" y1="55.809" x2="100.872" y2="85.352" stroke="#141414" stroke-width="0.4"/>
<line x1="38.908" y1="5.0" x2="85.253" y2="6.995" stroke="#141414" stroke-width="0.4"/>
<line x1="87.118" y1="53.743" x2="110.256" y2="55.809" stroke="#141414" stroke-width="0.4"/>
<line x1="5.0" y1="27.572" x2="32.775" y2="32.541" stroke="#141414" stroke-width="0.4"/>
<line x1="17.755" y1="73.492" x2="18.056" y2="64.383" stroke="#141414" stroke-width="0.4"/>
<line x1="18.056" y1="64.383" x2="24.018" y2="56.38" stroke="#141414" stroke-width="0.4"/>
<line x1="24.018" y1="56.38" x2="32.659" y2="53.484" stroke="#141414" stroke-width="0.4"/>
<line x1="17.755" y1="73.492" x2="11.853" y2="76.342" stroke="#141414" stroke-width="0.4"/>
<line x1="11.853" y1="76.342" x2="8.071" y2="94.569" stroke="#141414" stroke-width="0.4"/>
<line x1="8.071" y1="94.569" x2="12.352" y2="99.531" stroke="#141414" stroke-width="0.4"/>
<line x1="80.629" y1="102.313" x2="86.015" y2="99.826" stroke="#141414" stroke-width="0.4"/>
<line x1="86.015" y1="99.826" x2="86.939" y2="86.537" stroke="#141414" stroke-width="0.4"/>
<line x1="86.939" y1="86.537" x2="81.949" y2="83.329" stroke="#141414" stroke-width="0.4"/>
<line x1="80.629" y1="102.313" x2="79.12" y2="108.621" stroke="#141414" stroke-width="0.4"/>
<line x1="79.12" y1="108.621" x2="62.5" y2="115.763" stroke="#141414" stroke-width="0.4"/>
<line x1="62.5" y1="115.763" x2="56.885" y2="112.515" stroke="#141414" stroke-width="0.4"/>
<line x1="85.252" y1="6.995" x2="91.708" y2="8.715" stroke="#141414" stroke-width="0.4"/>
<line x1="91.708" y1="8.715" x2="99.658" y2="26.597" stroke="#141414" stroke-width="0.4"/>
<line x1="99.658" y1="26.597" x2="96.611" y2="32.541" stroke="#141414" stroke-width="0.4"/>
<line x1="56.885" y1="112.515" x2="48.75" y2="115.56" stroke="#141414" stroke-width="0.4"/>
<line x1="48.75" y1="115.56" x2="17.577" y2="106.471" stroke="#141414" stroke-width="0.4"/>
<line x1="17.577" y1="106.471" x2="12.352" y2="99.531" stroke="#141414" stroke-width="0.4"/>
<line x1="87.118" y1="53.743" x2="93.288" y2="52.688" stroke="#141414" stroke-width="0.4"/>
<line x1="93.288" y1="52.688" x2="99.933" y2="37.846" stroke="#141414" stroke-width="0.4"/>
<line x1="99.933" y1="37.846" x2="96.611" y2="32.541" stroke="#141414" stroke-width="0.4"/>
<line x1="32.775" y1="32.541" x2="28.619" y2="27.28" stroke="#141414" stroke-width="0.4"/>
<line x1="28.619" y1="27.28" x2="32.913" y2="8.001" stroke="#141414" stroke-width="0.4"/>
<line x1="32.913" y1="8.001" x2="38.908" y2="5.0" stroke="#141414" stroke-width="0.4"/>
<circle cx="23.122" cy="61.935" r="2.29" fill="#ffe082" stroke="#464646" stroke-width="0.2"/>
<text x="23.122" y="63.02" font-size="3.11" text-anchor="middle" fill="#141414">16</text>
<circle cx="12.508" cy="85.983" r="2.29" fill="#99d9fa" stroke="#464646" stroke-width="0.2"/>
<text x="12.508" y="87.07" font-size="3.11" text-anchor="middle" fill="#141414">17</text>
<circle cx="83.883" cy="93.001" r="2.29" fill="#ffe082" stroke="#464646" stroke-width="0.2"/>
<text x="83.883" y="94.09" font-size="3.11" text-anchor="middle" fill="#141414">19</text>
<circle cx="69.784" cy="109.803" r="2.29" fill="#ffe082" stroke="#464646" stroke-width="0.2"/>
<text x="69.784" y="110.89" font-size="3.11" text-anchor="middle" fill="#141414">20</text>
<circle cx="93.307" cy="18.712" r="2.29" fill="#ffe082" stroke="#464646" stroke-width="0.2"/>
<text x="93.307" y="19.80" font-size="3.11" text-anchor="middle" fill="#141414">30</text>
<circle cx="33.891" cy="108.519" r="2.29" fill="#ffe082" stroke="#464646" stroke-width="0.2"/>
<text x="33.891" y="109.61" font-size="3.11" text-anchor="middle" fill="#141414">31</text>
<circle cx="94.237" cy="44.205" r="2.29" fill="#ffe082" stroke="#464646" stroke-width="0.2"/>
<text x="94.237" y="45.29" font-size="3.11" text-anchor="middle" fill="#141414">33</text>
<circle cx="33.304" cy="18.205" r="2.29" fill="#ffe082" stroke="#464646" stroke-width="0.2"/>
<text x="33.304" y="19.29" font-size="3.11" text-anchor="middle" fill="#141414">34</text>
<circle cx="15.163" cy="38.046" r="4.60" fill="#eaf1fe" stroke="#2e78e6" stroke-width="0.3"/>
<text x="15.163" y="39.85" font-size="5.20" text-anchor="middle" fill="#14306e" font-weight="bold">3</text>
<polygon points="19.002,122.464 28.538,120.649 64.102,134.74 69.807,142.594" fill="rgb(216,216,216)"/>
<polygon points="5.0,134.911 24.887,149.037 30.998,155.752 43.193,176.878" fill="rgb(216,216,216)"/>
<polygon points="19.002,122.464 13.319,128.074 12.652,136.126 17.334,142.594" fill="rgb(216,216,216)"/>
<polygon points="69.807,142.594 78.071,141.334 104.572,156.514 107.667,164.28" fill="rgb(216,216,216)"/>
<polygon points="53.453,216.147 59.24,219.031 75.213,210.875 76.271,204.496" fill="rgb(216,216,216)"/>
<polygon points="75.331,184.062 80.666,186.888 81.324,201.192 76.271,204.496" fill="rgb(216,216,216)"/>
<polygon points="19.002,122.464 28.538,120.649 64.102,134.74 69.807,142.594" fill="#99d9fa"/>
<line x1="43.193" y1="176.878" x2="20.78" y2="187.231" stroke="#8c8c8c" stroke-width="0.3" stroke-dasharray="1.2,0.8"/>
<line x1="17.334" y1="142.594" x2="69.807" y2="142.594" stroke="#8c8c8c" stroke-width="0.3" stroke-dasharray="1.2,0.8"/>
<line x1="69.807" y1="142.594" x2="93.267" y2="188.0" stroke="#8c8c8c" stroke-width="0.3" stroke-dasharray="1.2,0.8"/>
<line x1="53.453" y1="216.147" x2="43.193" y2="176.878" stroke="#8c8c8c" stroke-width="0.3" stroke-dasharray="1.2,0.8"/>
<line x1="75.331" y1="184.062" x2="43.193" y2="176.878" stroke="#8c8c8c" stroke-width="0.3" stroke-dasharray="1.2,0.8"/>
<line x1="43.193" y1="176.878" x2="76.271" y2="204.496" stroke="#8c8c8c" stroke-width="0.3" stroke-dasharray="1.2,0.8"/>
<line x1="93.267" y1="188.0" x2="60.128" y2="162.709" stroke="#8c8c8c" stroke-width="0.3" stroke-dasharray="1.2,0.8"/>
<line x1="60.128" y1="162.709" x2="75.331" y2="184.062" stroke="#8c8c8c" stroke-width="0.3" stroke-dasharray="1.2,0.8"/>
<line x1="107.667" y1="164.28" x2="93.267" y2="188.0" stroke="#8c8c8c" stroke-width="0.3" stroke-dasharray="1.2,0.8"/>
<line x1="69.807" y1="142.594" x2="60.128" y2="162.709" stroke="#8c8c8c" stroke-width="0.3" stroke-dasharray="1.2,0.8"/>
<line x1="69.807" y1="142.594" x2="19.002" y2="122.464" stroke="#8c8c8c" stroke-width="0.3" stroke-dasharray="1.2,0.8"/>
<line x1="43.193" y1="176.878" x2="5.0" y2="134.911" stroke="#8c8c8c" stroke-width="0.3" stroke-dasharray="1.2,0.8"/>
<line x1="17.334" y1="142.594" x2="19.002" y2="122.464" stroke="#8c8c8c" stroke-width="0.3" stroke-dasharray="1.2,0.8"/>
<line x1="107.667" y1="164.28" x2="69.807" y2="142.594" stroke="#8c8c8c" stroke-width="0.3" stroke-dasharray="1.2,0.8"/>
<line x1="76.271" y1="204.496" x2="53.453" y2="216.147" stroke="#8c8c8c" stroke-width="0.3" stroke-dasharray="1.2,0.8"/>
<line x1="76.271" y1="204.496" x2="75.331" y2="184.062" stroke="#8c8c8c" stroke-width="0.3" stroke-dasharray="1.2,0.8"/>
<line x1="20.78" y1="187.231" x2="5.0" y2="134.911" stroke="#141414" stroke-width="0.4"/>
<line x1="53.453" y1="216.147" x2="20.78" y2="187.231" stroke="#141414" stroke-width="0.4"/>
<line x1="43.193" y1="176.878" x2="60.128" y2="162.709" stroke="#141414" stroke-width="0.4"/>
<line x1="60.128" y1="162.709" x2="17.334" y2="142.594" stroke="#141414" stroke-width="0.4"/>
<line x1="107.667" y1="164.28" x2="110.503" y2="189.742" stroke="#141414" stroke-width="0.4"/>
<line x1="93.267" y1="188.0" x2="75.331" y2="184.062" stroke="#141414" stroke-width="0.4"/>
<line x1="110.503" y1="189.742" x2="93.267" y2="188.0" stroke="#141414" stroke-width="0.4"/>
<line x1="19.002" y1="122.464" x2="28.538" y2="120.649" stroke="#141414" stroke-width="0.4"/>
<line x1="28.538" y1="120.649" x2="64.102" y2="134.74" stroke="#141414" stroke-width="0.4"/>
<line x1="64.102" y1="134.74" x2="69.807" y2="142.594" stroke="#141414" stroke-width="0.4"/>
<line x1="5.0" y1="134.911" x2="24.887" y2="149.037" stroke="#141414" stroke-width="0.4"/>
<line x1="24.887" y1="149.037" x2="30.998" y2="155.752" stroke="#141414" stroke-width="0.4"/>
<line x1="30.998" y1="155.752" x2="43.193" y2="176.878" stroke="#141414" stroke-width="0.4"/>
<line x1="19.002" y1="122.464" x2="13.319" y2="128.074" stroke="#141414" stroke-width="0.4"/>
<line x1="13.319" y1="128.074" x2="12.652" y2="136.126" stroke="#141414" stroke-width="0.4"/>
<line x1="12.652" y1="136.126" x2="17.334" y2="142.594" stroke="#141414" stroke-width="0.4"/>
<line x1="69.807" y1="142.594" x2="78.071" y2="141.334" stroke="#141414" stroke-width="0.4"/>
<line x1="78.071" y1="141.334" x2="104.572" y2="156.514" stroke="#141414" stroke-width="0.4"/>
<line x1="104.572" y1="156.514" x2="107.667" y2="164.28" stroke="#141414" stroke-width="0.4"/>
<line x1="53.453" y1="216.147" x2="59.24" y2="219.031" stroke="#141414" stroke-width="0.4"/>
<line x1="59.24" y1="219.031" x2="75.213" y2="210.875" stroke="#141414" stroke-width="0.4"/>
<line x1="75.213" y1="210.875" x2="76.271" y2="204.496" stroke="#141414" stroke-width="0.4"/>
<line x1="75.331" y1="184.062" x2="80.666" y2="186.888" stroke="#141414" stroke-width="0.4"/>
<line x1="80.666" y1="186.888" x2="81.324" y2="201.192" stroke="#141414" stroke-width="0.4"/>
<line x1="81.324" y1="201.192" x2="76.271" y2="204.496" stroke="#141414" stroke-width="0.4"/>
<circle cx="45.362" cy="130.112" r="2.29" fill="#99d9fa" stroke="#464646" stroke-width="0.2"/>
<text x="45.362" y="131.20" font-size="3.11" text-anchor="middle" fill="#141414">1</text>
<circle cx="26.019" cy="154.145" r="2.29" fill="#ffe082" stroke="#464646" stroke-width="0.2"/>
<text x="26.019" y="155.23" font-size="3.11" text-anchor="middle" fill="#141414">2</text>
<circle cx="15.577" cy="132.314" r="2.29" fill="#ffe082" stroke="#464646" stroke-width="0.2"/>
<text x="15.577" y="133.40" font-size="3.11" text-anchor="middle" fill="#141414">3</text>
<circle cx="90.029" cy="151.18" r="2.29" fill="#ffe082" stroke="#464646" stroke-width="0.2"/>
<text x="90.029" y="152.27" font-size="3.11" text-anchor="middle" fill="#141414">4</text>
<circle cx="66.044" cy="212.637" r="2.29" fill="#ffe082" stroke="#464646" stroke-width="0.2"/>
<text x="66.044" y="213.72" font-size="3.11" text-anchor="middle" fill="#141414">7</text>
<circle cx="78.398" cy="194.16" r="2.29" fill="#ffe082" stroke="#464646" stroke-width="0.2"/>
<text x="78.398" y="195.25" font-size="3.11" text-anchor="middle" fill="#141414">11</text>
<circle cx="59.551" cy="174.55" r="4.60" fill="#eaf1fe" stroke="#2e78e6" stroke-width="0.3"/>
<text x="59.551" y="176.35" font-size="5.20" text-anchor="middle" fill="#14306e" font-weight="bold">4</text>
<text x="205.0" y="295.0" font-size="3.2" text-anchor="end" fill="#737373" font-family="sans-serif">3 / 5</text>
<g pointer-events="none"><text x="105.0" y="83.2" text-anchor="middle" font-family="sans-serif" font-size="12.4" fill="#9aa0a6" fill-opacity="0.3" transform="rotate(-28 105.0 83.2)">papercraft.kr</text><text x="105.0" y="148.5" text-anchor="middle" font-family="sans-serif" font-size="12.4" fill="#9aa0a6" fill-opacity="0.3" transform="rotate(-28 105.0 148.5)">papercraft.kr</text><text x="105.0" y="213.8" text-anchor="middle" font-family="sans-serif" font-size="12.4" fill="#9aa0a6" fill-opacity="0.3" transform="rotate(-28 105.0 213.8)">papercraft.kr</text></g></svg>
