<svg xmlns="http://www.w3.org/2000/svg" xmlns:xlink="http://www.w3.org/1999/xlink" width="210.00mm" height="297.00mm" viewBox="0 0 210.00 297.00">
<rect x="0" y="0" width="210.00" height="297.00" fill="#ffffff" stroke="#cccccc" stroke-width="0.2"/>
<polygon points="41.317,39.689 33.35,32.49 30.249,32.414 21.936,39.211" fill="rgb(216,216,216)"/>
<polygon points="31.937,55.82 21.74,52.455 20.14,49.798 21.936,39.211" fill="rgb(216,216,216)"/>
<polygon points="76.388,38.398 83.805,30.634 86.892,30.329 95.682,36.497" fill="rgb(216,216,216)"/>
<polygon points="86.928,53.796 96.851,49.691 98.251,46.923 95.682,36.497" fill="rgb(216,216,216)"/>
<polygon points="67.635,55.697 65.807,64.393 70.508,69.976 79.389,69.654" fill="rgb(216,216,216)"/>
<polygon points="51.319,56.297 53.781,64.835 49.502,70.749 40.622,71.08" fill="rgb(216,216,216)"/>
<polygon points="105.805,49.374 111.333,54.467 106.695,66.367 99.178,66.376" fill="rgb(216,216,216)"/>
<polygon points="35.452,9.449 42.531,6.924 50.908,16.567 47.419,23.224" fill="rgb(216,216,216)"/>
<polygon points="12.787,52.798 7.648,58.282 13.149,69.81 20.645,69.266" fill="rgb(216,216,216)"/>
<polygon points="99.178,66.376 97.354,73.773 83.501,76.068 79.389,69.654" fill="rgb(216,216,216)"/>
<polygon points="47.419,23.224 56.602,24.165 61.185,30.751 58.876,39.689" fill="rgb(216,216,216)"/>
<polygon points="105.805,49.374 111.333,54.467 106.695,66.367 99.178,66.376" fill="#99d9fa"/>
<line x1="31.937" y1="55.82" x2="41.317" y2="39.689" stroke="#8c8c8c" stroke-width="0.3" stroke-dasharray="1.2,0.8"/>
<line x1="51.319" y1="56.297" x2="41.317" y2="39.689" stroke="#8c8c8c" stroke-width="0.3" stroke-dasharray="1.2,0.8"/>
<line x1="47.419" y1="23.224" x2="41.317" y2="39.689" stroke="#8c8c8c" stroke-width="0.3" stroke-dasharray="1.2,0.8"/>
<line x1="41.317" y1="39.689" x2="58.877" y2="39.689" stroke="#8c8c8c" stroke-width="0.3" stroke-dasharray="1.2,0.8"/>
<line x1="51.319" y1="56.297" x2="31.937" y2="55.82" stroke="#8c8c8c" stroke-width="0.3" stroke-dasharray="1.2,0.8"/>
<line x1="31.937" y1="55.82" x2="20.645" y2="69.266" stroke="#8c8c8c" stroke-width="0.3" stroke-dasharray="1.2,0.8"/>
<line x1="40.622" y1="71.081" x2="31.937" y2="55.82" stroke="#8c8c8c" stroke-width="0.3" stroke-dasharray="1.2,0.8"/>
<line x1="76.388" y1="38.398" x2="86.928" y2="53.796" stroke="#8c8c8c" stroke-width="0.3" stroke-dasharray="1.2,0.8"/>
<line x1="67.635" y1="55.697" x2="76.388" y2="38.398" stroke="#8c8c8c" stroke-width="0.3" stroke-dasharray="1.2,0.8"/>
<line x1="69.093" y1="22.426" x2="76.388" y2="38.398" stroke="#8c8c8c" stroke-width="0.3" stroke-dasharray="1.2,0.8"/>
<line x1="76.388" y1="38.398" x2="58.877" y2="39.689" stroke="#8c8c8c" stroke-width="0.3" stroke-dasharray="1.2,0.8"/>
<line x1="67.635" y1="55.697" x2="86.928" y2="53.796" stroke="#8c8c8c" stroke-width="0.3" stroke-dasharray="1.2,0.8"/>
<line x1="99.178" y1="66.376" x2="86.928" y2="53.796" stroke="#8c8c8c" stroke-width="0.3" stroke-dasharray="1.2,0.8"/>
<line x1="86.928" y1="53.796" x2="79.389" y2="69.654" stroke="#8c8c8c" stroke-width="0.3" stroke-dasharray="1.2,0.8"/>
<line x1="67.635" y1="55.697" x2="51.319" y2="56.297" stroke="#8c8c8c" stroke-width="0.3" stroke-dasharray="1.2,0.8"/>
<line x1="58.877" y1="39.689" x2="67.635" y2="55.697" stroke="#8c8c8c" stroke-width="0.3" stroke-dasharray="1.2,0.8"/>
<line x1="58.877" y1="39.689" x2="51.319" y2="56.297" stroke="#8c8c8c" stroke-width="0.3" stroke-dasharray="1.2,0.8"/>
<line x1="29.219" y1="24.54" x2="35.452" y2="9.449" stroke="#8c8c8c" stroke-width="0.3" stroke-dasharray="1.2,0.8"/>
<line x1="29.219" y1="24.54" x2="47.419" y2="23.224" stroke="#8c8c8c" stroke-width="0.3" stroke-dasharray="1.2,0.8"/>
<line x1="21.936" y1="39.211" x2="41.317" y2="39.689" stroke="#8c8c8c" stroke-width="0.3" stroke-dasharray="1.2,0.8"/>
<line x1="21.936" y1="39.211" x2="31.937" y2="55.82" stroke="#8c8c8c" stroke-width="0.3" stroke-dasharray="1.2,0.8"/>
<line x1="95.682" y1="36.497" x2="76.388" y2="38.398" stroke="#8c8c8c" stroke-width="0.3" stroke-dasharray="1.2,0.8"/>
<line x1="95.682" y1="36.497" x2="86.928" y2="53.796" stroke="#8c8c8c" stroke-width="0.3" stroke-dasharray="1.2,0.8"/>
<line x1="79.389" y1="69.654" x2="67.635" y2="55.697" stroke="#8c8c8c" stroke-width="0.3" stroke-dasharray="1.2,0.8"/>
<line x1="40.622" y1="71.08" x2="51.319" y2="56.297" stroke="#8c8c8c" stroke-width="0.3" stroke-dasharray="1.2,0.8"/>
<line x1="99.178" y1="66.376" x2="105.805" y2="49.374" stroke="#8c8c8c" stroke-width="0.3" stroke-dasharray="1.2,0.8"/>
<line x1="47.419" y1="23.224" x2="35.452" y2="9.449" stroke="#8c8c8c" stroke-width="0.3" stroke-dasharray="1.2,0.8"/>
<line x1="20.645" y1="69.266" x2="12.787" y2="52.798" stroke="#8c8c8c" stroke-width="0.3" stroke-dasharray="1.2,0.8"/>
<line x1="79.389" y1="69.654" x2="99.178" y2="66.376" stroke="#8c8c8c" stroke-width="0.3" stroke-dasharray="1.2,0.8"/>
<line x1="58.876" y1="39.689" x2="47.419" y2="23.224" stroke="#8c8c8c" stroke-width="0.3" stroke-dasharray="1.2,0.8"/>
<line x1="41.317" y1="39.689" x2="29.219" y2="24.54" stroke="#141414" stroke-width="0.4"/>
<line x1="12.787" y1="52.798" x2="31.937" y2="55.82" stroke="#141414" stroke-width="0.4"/>
<line x1="87.34" y1="22.401" x2="76.388" y2="38.398" stroke="#141414" stroke-width="0.4"/>
<line x1="86.928" y1="53.796" x2="105.805" y2="49.374" stroke="#141414" stroke-width="0.4"/>
<line x1="67.635" y1="55.697" x2="60.077" y2="72.305" stroke="#141414" stroke-width="0.4"/>
<line x1="60.077" y1="72.305" x2="51.319" y2="56.297" stroke="#141414" stroke-width="0.4"/>
<line x1="17.252" y1="10.765" x2="35.452" y2="9.449" stroke="#141414" stroke-width="0.4"/>
<line x1="69.093" y1="22.426" x2="87.34" y2="22.401" stroke="#141414" stroke-width="0.4"/>
<line x1="29.219" y1="24.54" x2="17.252" y2="10.765" stroke="#141414" stroke-width="0.4"/>
<line x1="40.622" y1="71.081" x2="20.645" y2="69.266" stroke="#141414" stroke-width="0.4"/>
<line x1="58.877" y1="39.689" x2="69.093" y2="22.426" stroke="#141414" stroke-width="0.4"/>
<line x1="41.317" y1="39.689" x2="33.35" y2="32.49" stroke="#141414" stroke-width="0.4"/>
<line x1="33.35" y1="32.49" x2="30.249" y2="32.414" stroke="#141414" stroke-width="0.4"/>
<line x1="30.249" y1="32.414" x2="21.936" y2="39.211" stroke="#141414" stroke-width="0.4"/>
<line x1="31.937" y1="55.82" x2="21.74" y2="52.455" stroke="#141414" stroke-width="0.4"/>
<line x1="21.74" y1="52.455" x2="20.14" y2="49.798" stroke="#141414" stroke-width="0.4"/>
<line x1="20.14" y1="49.798" x2="21.936" y2="39.211" stroke="#141414" stroke-width="0.4"/>
<line x1="76.388" y1="38.398" x2="83.805" y2="30.634" stroke="#141414" stroke-width="0.4"/>
<line x1="83.805" y1="30.634" x2="86.892" y2="30.329" stroke="#141414" stroke-width="0.4"/>
<line x1="86.892" y1="30.329" x2="95.682" y2="36.497" stroke="#141414" stroke-width="0.4"/>
<line x1="86.928" y1="53.796" x2="96.851" y2="49.691" stroke="#141414" stroke-width="0.4"/>
<line x1="96.851" y1="49.691" x2="98.251" y2="46.923" stroke="#141414" stroke-width="0.4"/>
<line x1="98.251" y1="46.923" x2="95.682" y2="36.497" stroke="#141414" stroke-width="0.4"/>
<line x1="67.635" y1="55.697" x2="65.807" y2="64.393" stroke="#141414" stroke-width="0.4"/>
<line x1="65.807" y1="64.393" x2="70.508" y2="69.976" stroke="#141414" stroke-width="0.4"/>
<line x1="70.508" y1="69.976" x2="79.389" y2="69.654" stroke="#141414" stroke-width="0.4"/>
<line x1="51.319" y1="56.297" x2="53.781" y2="64.835" stroke="#141414" stroke-width="0.4"/>
<line x1="53.781" y1="64.835" x2="49.502" y2="70.749" stroke="#141414" stroke-width="0.4"/>
<line x1="49.502" y1="70.749" x2="40.622" y2="71.08" stroke="#141414" stroke-width="0.4"/>
<line x1="105.805" y1="49.374" x2="111.333" y2="54.467" stroke="#141414" stroke-width="0.4"/>
<line x1="111.333" y1="54.467" x2="106.695" y2="66.367" stroke="#141414" stroke-width="0.4"/>
<line x1="106.695" y1="66.367" x2="99.178" y2="66.376" stroke="#141414" stroke-width="0.4"/>
<line x1="35.452" y1="9.449" x2="42.531" y2="6.924" stroke="#141414" stroke-width="0.4"/>
<line x1="42.531" y1="6.924" x2="50.908" y2="16.567" stroke="#141414" stroke-width="0.4"/>
<line x1="50.908" y1="16.567" x2="47.419" y2="23.224" stroke="#141414" stroke-width="0.4"/>
<line x1="12.787" y1="52.798" x2="7.648" y2="58.282" stroke="#141414" stroke-width="0.4"/>
<line x1="7.648" y1="58.282" x2="13.149" y2="69.81" stroke="#141414" stroke-width="0.4"/>
<line x1="13.149" y1="69.81" x2="20.645" y2="69.266" stroke="#141414" stroke-width="0.4"/>
<line x1="99.178" y1="66.376" x2="97.354" y2="73.773" stroke="#141414" stroke-width="0.4"/>
<line x1="97.354" y1="73.773" x2="83.501" y2="76.068" stroke="#141414" stroke-width="0.4"/>
<line x1="83.501" y1="76.068" x2="79.389" y2="69.654" stroke="#141414" stroke-width="0.4"/>
<line x1="47.419" y1="23.224" x2="56.602" y2="24.165" stroke="#141414" stroke-width="0.4"/>
<line x1="56.602" y1="24.165" x2="61.185" y2="30.751" stroke="#141414" stroke-width="0.4"/>
<line x1="61.185" y1="30.751" x2="58.876" y2="39.689" stroke="#141414" stroke-width="0.4"/>
<circle cx="31.713" cy="35.951" r="2.29" fill="#ffe082" stroke="#464646" stroke-width="0.2"/>
<text x="31.713" y="36.74" font-size="2.25" text-anchor="middle" fill="#141414">33</text>
<circle cx="23.938" cy="49.321" r="2.29" fill="#ffe082" stroke="#464646" stroke-width="0.2"/>
<text x="23.938" y="50.11" font-size="2.25" text-anchor="middle" fill="#141414">34</text>
<circle cx="85.692" cy="33.965" r="2.29" fill="#ffe082" stroke="#464646" stroke-width="0.2"/>
<text x="85.692" y="34.75" font-size="2.25" text-anchor="middle" fill="#141414">35</text>
<circle cx="94.428" cy="46.727" r="2.29" fill="#ffe082" stroke="#464646" stroke-width="0.2"/>
<text x="94.428" y="47.51" font-size="2.25" text-anchor="middle" fill="#141414">36</text>
<circle cx="70.835" cy="64.93" r="2.29" fill="#ffe082" stroke="#464646" stroke-width="0.2"/>
<text x="70.835" y="65.72" font-size="2.25" text-anchor="middle" fill="#141414">37</text>
<circle cx="48.806" cy="65.741" r="2.29" fill="#ffe082" stroke="#464646" stroke-width="0.2"/>
<text x="48.806" y="66.53" font-size="2.25" text-anchor="middle" fill="#141414">38</text>
<circle cx="105.753" cy="59.146" r="2.29" fill="#99d9fa" stroke="#464646" stroke-width="0.2"/>
<text x="105.753" y="59.93" font-size="2.25" text-anchor="middle" fill="#141414">39</text>
<circle cx="44.077" cy="14.041" r="2.29" fill="#ffe082" stroke="#464646" stroke-width="0.2"/>
<text x="44.077" y="14.83" font-size="2.25" text-anchor="middle" fill="#141414">40</text>
<circle cx="13.557" cy="62.539" r="2.29" fill="#ffe082" stroke="#464646" stroke-width="0.2"/>
<text x="13.557" y="63.33" font-size="2.25" text-anchor="middle" fill="#141414">41</text>
<circle cx="89.856" cy="71.468" r="2.29" fill="#ffe082" stroke="#464646" stroke-width="0.2"/>
<text x="89.856" y="72.26" font-size="2.25" text-anchor="middle" fill="#141414">42</text>
<circle cx="56.02" cy="29.457" r="2.29" fill="#ffe082" stroke="#464646" stroke-width="0.2"/>
<text x="56.02" y="30.24" font-size="2.25" text-anchor="middle" fill="#141414">43</text>
<circle cx="27.308" cy="14.918" r="3.89" fill="#eaf1fe" stroke="#2e78e6" stroke-width="0.3"/>
<text x="27.308" y="16.44" font-size="4.40" text-anchor="middle" fill="#14306e" font-weight="bold">3</text>
<polygon points="49.742,118.828 40.236,118.135 38.7,116.209 40.14,106.788" fill="rgb(216,216,216)"/>
<polygon points="65.142,118.828 74.647,118.135 76.183,116.209 74.743,106.788" fill="rgb(216,216,216)"/>
<polygon points="58.776,160.554 51.64,162.667 50.947,174.443 57.787,177.378" fill="rgb(216,216,216)"/>
<polygon points="74.743,106.788 81.054,102.978 78.655,92.468 71.316,91.774" fill="rgb(216,216,216)"/>
<polygon points="71.316,91.774 72.272,84.465 62.56,79.788 57.442,85.092" fill="rgb(216,216,216)"/>
<polygon points="78.9,163.303 80.769,171.38 86.356,173.343 92.868,168.212" fill="rgb(216,216,216)"/>
<polygon points="109.762,129.846 113.634,138.422 101.808,165.278 92.868,168.212" fill="rgb(216,216,216)"/>
<polygon points="57.442,85.092 52.323,79.788 42.611,84.465 43.567,91.774" fill="rgb(216,216,216)"/>
<polygon points="21.362,168.162 24.71,172.685 31.809,170.127 31.503,164.508" fill="rgb(216,216,216)"/>
<polygon points="43.567,91.774 36.228,92.468 33.83,102.978 40.14,106.788" fill="rgb(216,216,216)"/>
<polygon points="31.503,164.508 34.333,169.372 41.671,167.611 41.985,161.992" fill="rgb(216,216,216)"/>
<polygon points="49.742,118.828 40.236,118.135 38.7,116.209 40.14,106.788" fill="#99d9fa"/>
<line x1="49.742" y1="118.828" x2="65.142" y2="118.828" stroke="#8c8c8c" stroke-width="0.3" stroke-dasharray="1.2,0.8"/>
<line x1="58.776" y1="160.554" x2="49.742" y2="118.828" stroke="#8c8c8c" stroke-width="0.3" stroke-dasharray="1.2,0.8"/>
<line x1="49.742" y1="118.828" x2="41.985" y2="161.992" stroke="#8c8c8c" stroke-width="0.3" stroke-dasharray="1.2,0.8"/>
<line x1="65.142" y1="118.828" x2="58.776" y2="160.554" stroke="#8c8c8c" stroke-width="0.3" stroke-dasharray="1.2,0.8"/>
<line x1="80.441" y1="120.581" x2="58.776" y2="160.554" stroke="#8c8c8c" stroke-width="0.3" stroke-dasharray="1.2,0.8"/>
<line x1="78.9" y1="163.303" x2="58.776" y2="160.554" stroke="#8c8c8c" stroke-width="0.3" stroke-dasharray="1.2,0.8"/>
<line x1="80.441" y1="120.581" x2="78.9" y2="163.303" stroke="#8c8c8c" stroke-width="0.3" stroke-dasharray="1.2,0.8"/>
<line x1="95.366" y1="124.376" x2="78.9" y2="163.303" stroke="#8c8c8c" stroke-width="0.3" stroke-dasharray="1.2,0.8"/>
<line x1="19.488" y1="124.346" x2="31.503" y2="164.508" stroke="#8c8c8c" stroke-width="0.3" stroke-dasharray="1.2,0.8"/>
<line x1="34.463" y1="120.752" x2="41.985" y2="161.992" stroke="#8c8c8c" stroke-width="0.3" stroke-dasharray="1.2,0.8"/>
<line x1="109.762" y1="129.846" x2="78.9" y2="163.303" stroke="#8c8c8c" stroke-width="0.3" stroke-dasharray="1.2,0.8"/>
<line x1="40.14" y1="106.788" x2="49.742" y2="118.828" stroke="#8c8c8c" stroke-width="0.3" stroke-dasharray="1.2,0.8"/>
<line x1="74.743" y1="106.788" x2="65.142" y2="118.828" stroke="#8c8c8c" stroke-width="0.3" stroke-dasharray="1.2,0.8"/>
<line x1="57.787" y1="177.378" x2="58.776" y2="160.554" stroke="#8c8c8c" stroke-width="0.3" stroke-dasharray="1.2,0.8"/>
<line x1="71.316" y1="91.774" x2="74.743" y2="106.788" stroke="#8c8c8c" stroke-width="0.3" stroke-dasharray="1.2,0.8"/>
<line x1="57.442" y1="85.092" x2="71.316" y2="91.774" stroke="#8c8c8c" stroke-width="0.3" stroke-dasharray="1.2,0.8"/>
<line x1="92.868" y1="168.212" x2="78.9" y2="163.303" stroke="#8c8c8c" stroke-width="0.3" stroke-dasharray="1.2,0.8"/>
<line x1="92.868" y1="168.212" x2="109.762" y2="129.846" stroke="#8c8c8c" stroke-width="0.3" stroke-dasharray="1.2,0.8"/>
<line x1="43.567" y1="91.774" x2="57.442" y2="85.092" stroke="#8c8c8c" stroke-width="0.3" stroke-dasharray="1.2,0.8"/>
<line x1="31.503" y1="164.508" x2="21.362" y2="168.162" stroke="#8c8c8c" stroke-width="0.3" stroke-dasharray="1.2,0.8"/>
<line x1="40.14" y1="106.788" x2="43.567" y2="91.774" stroke="#8c8c8c" stroke-width="0.3" stroke-dasharray="1.2,0.8"/>
<line x1="41.985" y1="161.992" x2="31.503" y2="164.508" stroke="#8c8c8c" stroke-width="0.3" stroke-dasharray="1.2,0.8"/>
<line x1="34.463" y1="120.752" x2="49.742" y2="118.828" stroke="#141414" stroke-width="0.4"/>
<line x1="65.142" y1="118.828" x2="80.441" y2="120.581" stroke="#141414" stroke-width="0.4"/>
<line x1="58.776" y1="160.554" x2="41.985" y2="161.992" stroke="#141414" stroke-width="0.4"/>
<line x1="80.441" y1="120.581" x2="95.366" y2="124.376" stroke="#141414" stroke-width="0.4"/>
<line x1="95.366" y1="124.376" x2="109.762" y2="129.846" stroke="#141414" stroke-width="0.4"/>
<line x1="78.9" y1="163.303" x2="77.201" y2="178.011" stroke="#141414" stroke-width="0.4"/>
<line x1="21.362" y1="168.162" x2="5.0" y2="129.566" stroke="#141414" stroke-width="0.4"/>
<line x1="5.0" y1="129.566" x2="19.488" y2="124.346" stroke="#141414" stroke-width="0.4"/>
<line x1="77.201" y1="178.011" x2="67.342" y2="182.369" stroke="#141414" stroke-width="0.4"/>
<line x1="19.488" y1="124.346" x2="34.463" y2="120.752" stroke="#141414" stroke-width="0.4"/>
<line x1="67.342" y1="182.369" x2="57.787" y2="177.378" stroke="#141414" stroke-width="0.4"/>
<line x1="49.742" y1="118.828" x2="40.236" y2="118.135" stroke="#141414" stroke-width="0.4"/>
<line x1="40.236" y1="118.135" x2="38.7" y2="116.209" stroke="#141414" stroke-width="0.4"/>
<line x1="38.7" y1="116.209" x2="40.14" y2="106.788" stroke="#141414" stroke-width="0.4"/>
<line x1="65.142" y1="118.828" x2="74.647" y2="118.135" stroke="#141414" stroke-width="0.4"/>
<line x1="74.647" y1="118.135" x2="76.183" y2="116.209" stroke="#141414" stroke-width="0.4"/>
<line x1="76.183" y1="116.209" x2="74.743" y2="106.788" stroke="#141414" stroke-width="0.4"/>
<line x1="58.776" y1="160.554" x2="51.64" y2="162.667" stroke="#141414" stroke-width="0.4"/>
<line x1="51.64" y1="162.667" x2="50.947" y2="174.443" stroke="#141414" stroke-width="0.4"/>
<line x1="50.947" y1="174.443" x2="57.787" y2="177.378" stroke="#141414" stroke-width="0.4"/>
<line x1="74.743" y1="106.788" x2="81.054" y2="102.978" stroke="#141414" stroke-width="0.4"/>
<line x1="81.054" y1="102.978" x2="78.655" y2="92.468" stroke="#141414" stroke-width="0.4"/>
<line x1="78.655" y1="92.468" x2="71.316" y2="91.774" stroke="#141414" stroke-width="0.4"/>
<line x1="71.316" y1="91.774" x2="72.272" y2="84.465" stroke="#141414" stroke-width="0.4"/>
<line x1="72.272" y1="84.465" x2="62.56" y2="79.788" stroke="#141414" stroke-width="0.4"/>
<line x1="62.56" y1="79.788" x2="57.442" y2="85.092" stroke="#141414" stroke-width="0.4"/>
<line x1="78.9" y1="163.303" x2="80.769" y2="171.38" stroke="#141414" stroke-width="0.4"/>
<line x1="80.769" y1="171.38" x2="86.356" y2="173.343" stroke="#141414" stroke-width="0.4"/>
<line x1="86.356" y1="173.343" x2="92.868" y2="168.212" stroke="#141414" stroke-width="0.4"/>
<line x1="109.762" y1="129.846" x2="113.634" y2="138.422" stroke="#141414" stroke-width="0.4"/>
<line x1="113.634" y1="138.422" x2="101.808" y2="165.278" stroke="#141414" stroke-width="0.4"/>
<line x1="101.808" y1="165.278" x2="92.868" y2="168.212" stroke="#141414" stroke-width="0.4"/>
<line x1="57.442" y1="85.092" x2="52.323" y2="79.788" stroke="#141414" stroke-width="0.4"/>
<line x1="52.323" y1="79.788" x2="42.611" y2="84.465" stroke="#141414" stroke-width="0.4"/>
<line x1="42.611" y1="84.465" x2="43.567" y2="91.774" stroke="#141414" stroke-width="0.4"/>
<line x1="21.362" y1="168.162" x2="24.71" y2="172.685" stroke="#141414" stroke-width="0.4"/>
<line x1="24.71" y1="172.685" x2="31.809" y2="170.127" stroke="#141414" stroke-width="0.4"/>
<line x1="31.809" y1="170.127" x2="31.503" y2="164.508" stroke="#141414" stroke-width="0.4"/>
<line x1="43.567" y1="91.774" x2="36.228" y2="92.468" stroke="#141414" stroke-width="0.4"/>
<line x1="36.228" y1="92.468" x2="33.83" y2="102.978" stroke="#141414" stroke-width="0.4"/>
<line x1="33.83" y1="102.978" x2="40.14" y2="106.788" stroke="#141414" stroke-width="0.4"/>
<line x1="31.503" y1="164.508" x2="34.333" y2="169.372" stroke="#141414" stroke-width="0.4"/>
<line x1="34.333" y1="169.372" x2="41.671" y2="167.611" stroke="#141414" stroke-width="0.4"/>
<line x1="41.671" y1="167.611" x2="41.985" y2="161.992" stroke="#141414" stroke-width="0.4"/>
<circle cx="42.205" cy="114.99" r="2.29" fill="#99d9fa" stroke="#464646" stroke-width="0.2"/>
<text x="42.205" y="115.78" font-size="2.25" text-anchor="middle" fill="#141414">44</text>
<circle cx="72.679" cy="114.99" r="2.29" fill="#ffe082" stroke="#464646" stroke-width="0.2"/>
<text x="72.679" y="115.78" font-size="2.25" text-anchor="middle" fill="#141414">45</text>
<circle cx="54.788" cy="168.76" r="2.29" fill="#ffe082" stroke="#464646" stroke-width="0.2"/>
<text x="54.788" y="169.55" font-size="2.25" text-anchor="middle" fill="#141414">46</text>
<circle cx="76.442" cy="98.502" r="2.29" fill="#ffe082" stroke="#464646" stroke-width="0.2"/>
<text x="76.442" y="99.29" font-size="2.25" text-anchor="middle" fill="#141414">47</text>
<circle cx="65.898" cy="85.28" r="2.29" fill="#ffe082" stroke="#464646" stroke-width="0.2"/>
<text x="65.898" y="86.07" font-size="2.25" text-anchor="middle" fill="#141414">48</text>
<circle cx="84.723" cy="169.059" r="2.29" fill="#ffe082" stroke="#464646" stroke-width="0.2"/>
<text x="84.723" y="169.85" font-size="2.25" text-anchor="middle" fill="#141414">49</text>
<circle cx="104.518" cy="150.44" r="2.29" fill="#ffe082" stroke="#464646" stroke-width="0.2"/>
<text x="104.518" y="151.23" font-size="2.25" text-anchor="middle" fill="#141414">50</text>
<circle cx="48.986" cy="85.28" r="2.29" fill="#ffe082" stroke="#464646" stroke-width="0.2"/>
<text x="48.986" y="86.07" font-size="2.25" text-anchor="middle" fill="#141414">51</text>
<circle cx="27.346" cy="168.871" r="2.29" fill="#ffe082" stroke="#464646" stroke-width="0.2"/>
<text x="27.346" y="169.66" font-size="2.25" text-anchor="middle" fill="#141414">52</text>
<circle cx="38.441" cy="98.502" r="2.29" fill="#ffe082" stroke="#464646" stroke-width="0.2"/>
<text x="38.441" y="99.29" font-size="2.25" text-anchor="middle" fill="#141414">53</text>
<circle cx="37.373" cy="165.871" r="2.29" fill="#ffe082" stroke="#464646" stroke-width="0.2"/>
<text x="37.373" y="166.66" font-size="2.25" text-anchor="middle" fill="#141414">54</text>
<circle cx="59.5" cy="98.564" r="4.00" fill="#eaf1fe" stroke="#2e78e6" stroke-width="0.3"/>
<text x="59.5" y="100.13" font-size="4.53" text-anchor="middle" fill="#14306e" font-weight="bold">4</text>
<polygon points="75.099,219.62 68.099,215.494 68.099,196.239 75.099,192.113" fill="rgb(216,216,216)"/>
<polygon points="75.099,192.113 77.361,185.113 87.921,185.113 90.183,192.113" fill="rgb(216,216,216)"/>
<polygon points="90.183,219.62 97.183,215.494 97.183,196.239 90.183,192.113" fill="rgb(216,216,216)"/>
<polygon points="90.183,219.62 95.399,221.185 95.399,228.487 90.183,230.051" fill="rgb(216,216,216)"/>
<polygon points="75.099,230.051 70.973,237.051 51.718,237.051 47.592,230.051" fill="rgb(216,216,216)"/>
<polygon points="75.099,230.051 77.361,237.051 87.921,237.051 90.183,230.051" fill="rgb(216,216,216)"/>
<polygon points="5.0,230.051 9.126,237.051 28.381,237.051 32.507,230.051" fill="rgb(216,216,216)"/>
<polygon points="75.099,219.62 68.099,215.494 68.099,196.239 75.099,192.113" fill="#99d9fa"/>
<line x1="90.183" y1="219.62" x2="75.099" y2="219.62" stroke="#8c8c8c" stroke-width="0.3" stroke-dasharray="1.2,0.8"/>
<line x1="75.099" y1="219.62" x2="75.099" y2="230.051" stroke="#8c8c8c" stroke-width="0.3" stroke-dasharray="1.2,0.8"/>
<line x1="47.592" y1="230.051" x2="47.592" y2="219.62" stroke="#8c8c8c" stroke-width="0.3" stroke-dasharray="1.2,0.8"/>
<line x1="32.507" y1="230.051" x2="32.507" y2="219.62" stroke="#8c8c8c" stroke-width="0.3" stroke-dasharray="1.2,0.8"/>
<line x1="47.592" y1="230.051" x2="32.507" y2="230.051" stroke="#8c8c8c" stroke-width="0.3" stroke-dasharray="1.2,0.8"/>
<line x1="75.099" y1="192.113" x2="75.099" y2="219.62" stroke="#8c8c8c" stroke-width="0.3" stroke-dasharray="1.2,0.8"/>
<line x1="90.183" y1="192.113" x2="75.099" y2="192.113" stroke="#8c8c8c" stroke-width="0.3" stroke-dasharray="1.2,0.8"/>
<line x1="90.183" y1="192.113" x2="90.183" y2="219.62" stroke="#8c8c8c" stroke-width="0.3" stroke-dasharray="1.2,0.8"/>
<line x1="90.183" y1="230.051" x2="90.183" y2="219.62" stroke="#8c8c8c" stroke-width="0.3" stroke-dasharray="1.2,0.8"/>
<line x1="47.592" y1="230.051" x2="75.099" y2="230.051" stroke="#8c8c8c" stroke-width="0.3" stroke-dasharray="1.2,0.8"/>
<line x1="90.183" y1="230.051" x2="75.099" y2="230.051" stroke="#8c8c8c" stroke-width="0.3" stroke-dasharray="1.2,0.8"/>
<line x1="32.507" y1="230.051" x2="5.0" y2="230.051" stroke="#8c8c8c" stroke-width="0.3" stroke-dasharray="1.2,0.8"/>
<line x1="47.592" y1="219.62" x2="75.099" y2="219.62" stroke="#141414" stroke-width="0.4"/>
<line x1="32.507" y1="219.62" x2="47.592" y2="219.62" stroke="#141414" stroke-width="0.4"/>
<line x1="5.0" y1="219.62" x2="32.507" y2="219.62" stroke="#141414" stroke-width="0.4"/>
<line x1="5.0" y1="230.051" x2="5.0" y2="219.62" stroke="#141414" stroke-width="0.4"/>
<line x1="47.592" y1="230.051" x2="47.592" y2="257.558" stroke="#141414" stroke-width="0.4"/>
<line x1="47.592" y1="257.558" x2="32.507" y2="257.558" stroke="#141414" stroke-width="0.4"/>
<line x1="32.507" y1="257.558" x2="32.507" y2="230.051" stroke="#141414" stroke-width="0.4"/>
<line x1="75.099" y1="219.62" x2="68.099" y2="215.494" stroke="#141414" stroke-width="0.4"/>
<line x1="68.099" y1="215.494" x2="68.099" y2="196.239" stroke="#141414" stroke-width="0.4"/>
<line x1="68.099" y1="196.239" x2="75.099" y2="192.113" stroke="#141414" stroke-width="0.4"/>
<line x1="75.099" y1="192.113" x2="77.361" y2="185.113" stroke="#141414" stroke-width="0.4"/>
<line x1="77.361" y1="185.113" x2="87.921" y2="185.113" stroke="#141414" stroke-width="0.4"/>
<line x1="87.921" y1="185.113" x2="90.183" y2="192.113" stroke="#141414" stroke-width="0.4"/>
<line x1="90.183" y1="219.62" x2="97.183" y2="215.494" stroke="#141414" stroke-width="0.4"/>
<line x1="97.183" y1="215.494" x2="97.183" y2="196.239" stroke="#141414" stroke-width="0.4"/>
<line x1="97.183" y1="196.239" x2="90.183" y2="192.113" stroke="#141414" stroke-width="0.4"/>
<line x1="90.183" y1="219.62" x2="95.399" y2="221.185" stroke="#141414" stroke-width="0.4"/>
<line x1="95.399" y1="221.185" x2="95.399" y2="228.487" stroke="#141414" stroke-width="0.4"/>
<line x1="95.399" y1="228.487" x2="90.183" y2="230.051" stroke="#141414" stroke-width="0.4"/>
<line x1="75.099" y1="230.051" x2="70.973" y2="237.051" stroke="#141414" stroke-width="0.4"/>
<line x1="70.973" y1="237.051" x2="51.718" y2="237.051" stroke="#141414" stroke-width="0.4"/>
<line x1="51.718" y1="237.051" x2="47.592" y2="230.051" stroke="#141414" stroke-width="0.4"/>
<line x1="75.099" y1="230.051" x2="77.361" y2="237.051" stroke="#141414" stroke-width="0.4"/>
<line x1="77.361" y1="237.051" x2="87.921" y2="237.051" stroke="#141414" stroke-width="0.4"/>
<line x1="87.921" y1="237.051" x2="90.183" y2="230.051" stroke="#141414" stroke-width="0.4"/>
<line x1="5.0" y1="230.051" x2="9.126" y2="237.051" stroke="#141414" stroke-width="0.4"/>
<line x1="9.126" y1="237.051" x2="28.381" y2="237.051" stroke="#141414" stroke-width="0.4"/>
<line x1="28.381" y1="237.051" x2="32.507" y2="230.051" stroke="#141414" stroke-width="0.4"/>
<circle cx="71.599" cy="205.867" r="2.29" fill="#99d9fa" stroke="#464646" stroke-width="0.2"/>
<text x="71.599" y="206.65" font-size="2.25" text-anchor="middle" fill="#141414">55</text>
<circle cx="82.641" cy="188.613" r="2.29" fill="#ffe082" stroke="#464646" stroke-width="0.2"/>
<text x="82.641" y="189.40" font-size="2.25" text-anchor="middle" fill="#141414">56</text>
<circle cx="93.683" cy="205.867" r="2.29" fill="#ffe082" stroke="#464646" stroke-width="0.2"/>
<text x="93.683" y="206.65" font-size="2.25" text-anchor="middle" fill="#141414">57</text>
<circle cx="92.791" cy="224.836" r="2.29" fill="#ffe082" stroke="#464646" stroke-width="0.2"/>
<text x="92.791" y="225.62" font-size="2.25" text-anchor="middle" fill="#141414">58</text>
<circle cx="61.345" cy="233.551" r="2.29" fill="#ffe082" stroke="#464646" stroke-width="0.2"/>
<text x="61.345" y="234.34" font-size="2.25" text-anchor="middle" fill="#141414">59</text>
<circle cx="82.641" cy="233.551" r="2.29" fill="#ffe082" stroke="#464646" stroke-width="0.2"/>
<text x="82.641" y="234.34" font-size="2.25" text-anchor="middle" fill="#141414">60</text>
<circle cx="18.754" cy="233.551" r="2.29" fill="#ffe082" stroke="#464646" stroke-width="0.2"/>
<text x="18.754" y="234.34" font-size="2.25" text-anchor="middle" fill="#141414">61</text>
<circle cx="80.127" cy="201.282" r="3.53" fill="#eaf1fe" stroke="#2e78e6" stroke-width="0.3"/>
<text x="80.127" y="202.66" font-size="3.99" text-anchor="middle" fill="#14306e" font-weight="bold">5</text>
<polygon points="136.988,54.128 138.905,60.518 147.851,60.518 149.768,54.128" fill="rgb(216,216,216)"/>
<polygon points="136.988,35.954 138.905,29.564 147.851,29.564 149.768,35.954" fill="rgb(216,216,216)"/>
<polygon points="149.768,54.128 156.768,51.402 156.768,38.68 149.768,35.954" fill="rgb(216,216,216)"/>
<polygon points="136.988,66.908 135.109,73.17 126.343,73.17 124.464,66.908" fill="rgb(216,216,216)"/>
<polygon points="124.464,54.128 117.464,51.402 117.464,38.68 124.464,35.954" fill="rgb(216,216,216)"/>
<polygon points="124.464,54.128 118.074,56.045 118.074,64.991 124.464,66.908" fill="rgb(216,216,216)"/>
<polygon points="124.464,35.954 118.074,34.037 118.074,25.091 124.464,23.174" fill="rgb(216,216,216)"/>
<polygon points="136.988,54.128 138.905,60.518 147.851,60.518 149.768,54.128" fill="#99d9fa"/>
<line x1="136.988" y1="54.129" x2="136.988" y2="35.954" stroke="#8c8c8c" stroke-width="0.3" stroke-dasharray="1.2,0.8"/>
<line x1="136.988" y1="54.129" x2="124.464" y2="54.129" stroke="#8c8c8c" stroke-width="0.3" stroke-dasharray="1.2,0.8"/>
<line x1="124.464" y1="35.954" x2="136.988" y2="35.954" stroke="#8c8c8c" stroke-width="0.3" stroke-dasharray="1.2,0.8"/>
<line x1="124.464" y1="23.174" x2="136.988" y2="23.174" stroke="#8c8c8c" stroke-width="0.3" stroke-dasharray="1.2,0.8"/>
<line x1="124.464" y1="23.174" x2="124.464" y2="5.0" stroke="#8c8c8c" stroke-width="0.3" stroke-dasharray="1.2,0.8"/>
<line x1="149.768" y1="54.128" x2="136.988" y2="54.128" stroke="#8c8c8c" stroke-width="0.3" stroke-dasharray="1.2,0.8"/>
<line x1="149.768" y1="35.954" x2="136.988" y2="35.954" stroke="#8c8c8c" stroke-width="0.3" stroke-dasharray="1.2,0.8"/>
<line x1="149.768" y1="35.954" x2="149.768" y2="54.128" stroke="#8c8c8c" stroke-width="0.3" stroke-dasharray="1.2,0.8"/>
<line x1="124.464" y1="66.908" x2="136.988" y2="66.908" stroke="#8c8c8c" stroke-width="0.3" stroke-dasharray="1.2,0.8"/>
<line x1="124.464" y1="35.954" x2="124.464" y2="54.128" stroke="#8c8c8c" stroke-width="0.3" stroke-dasharray="1.2,0.8"/>
<line x1="124.464" y1="66.908" x2="124.464" y2="54.128" stroke="#8c8c8c" stroke-width="0.3" stroke-dasharray="1.2,0.8"/>
<line x1="124.464" y1="23.174" x2="124.464" y2="35.954" stroke="#8c8c8c" stroke-width="0.3" stroke-dasharray="1.2,0.8"/>
<line x1="136.988" y1="54.129" x2="136.988" y2="66.908" stroke="#141414" stroke-width="0.4"/>
<line x1="136.988" y1="23.174" x2="136.988" y2="35.954" stroke="#141414" stroke-width="0.4"/>
<line x1="136.988" y1="5.0" x2="136.988" y2="23.174" stroke="#141414" stroke-width="0.4"/>
<line x1="124.464" y1="5.0" x2="136.988" y2="5.0" stroke="#141414" stroke-width="0.4"/>
<line x1="111.684" y1="23.174" x2="111.684" y2="5.0" stroke="#141414" stroke-width="0.4"/>
<line x1="111.684" y1="5.0" x2="124.464" y2="5.0" stroke="#141414" stroke-width="0.4"/>
<line x1="124.464" y1="23.174" x2="111.684" y2="23.174" stroke="#141414" stroke-width="0.4"/>
<line x1="136.988" y1="54.128" x2="138.905" y2="60.518" stroke="#141414" stroke-width="0.4"/>
<line x1="138.905" y1="60.518" x2="147.851" y2="60.518" stroke="#141414" stroke-width="0.4"/>
<line x1="147.851" y1="60.518" x2="149.768" y2="54.128" stroke="#141414" stroke-width="0.4"/>
<line x1="136.988" y1="35.954" x2="138.905" y2="29.564" stroke="#141414" stroke-width="0.4"/>
<line x1="138.905" y1="29.564" x2="147.851" y2="29.564" stroke="#141414" stroke-width="0.4"/>
<line x1="147.851" y1="29.564" x2="149.768" y2="35.954" stroke="#141414" stroke-width="0.4"/>
<line x1="149.768" y1="54.128" x2="156.768" y2="51.402" stroke="#141414" stroke-width="0.4"/>
<line x1="156.768" y1="51.402" x2="156.768" y2="38.68" stroke="#141414" stroke-width="0.4"/>
<line x1="156.768" y1="38.68" x2="149.768" y2="35.954" stroke="#141414" stroke-width="0.4"/>
<line x1="136.988" y1="66.908" x2="135.109" y2="73.17" stroke="#141414" stroke-width="0.4"/>
<line x1="135.109" y1="73.17" x2="126.343" y2="73.17" stroke="#141414" stroke-width="0.4"/>
<line x1="126.343" y1="73.17" x2="124.464" y2="66.908" stroke="#141414" stroke-width="0.4"/>
<line x1="124.464" y1="54.128" x2="117.464" y2="51.402" stroke="#141414" stroke-width="0.4"/>
<line x1="117.464" y1="51.402" x2="117.464" y2="38.68" stroke="#141414" stroke-width="0.4"/>
<line x1="117.464" y1="38.68" x2="124.464" y2="35.954" stroke="#141414" stroke-width="0.4"/>
<line x1="124.464" y1="54.128" x2="118.074" y2="56.045" stroke="#141414" stroke-width="0.4"/>
<line x1="118.074" y1="56.045" x2="118.074" y2="64.991" stroke="#141414" stroke-width="0.4"/>
<line x1="118.074" y1="64.991" x2="124.464" y2="66.908" stroke="#141414" stroke-width="0.4"/>
<line x1="124.464" y1="35.954" x2="118.074" y2="34.037" stroke="#141414" stroke-width="0.4"/>
<line x1="118.074" y1="34.037" x2="118.074" y2="25.091" stroke="#141414" stroke-width="0.4"/>
<line x1="118.074" y1="25.091" x2="124.464" y2="23.174" stroke="#141414" stroke-width="0.4"/>
<circle cx="143.378" cy="57.323" r="2.29" fill="#99d9fa" stroke="#464646" stroke-width="0.2"/>
<text x="143.378" y="58.11" font-size="2.25" text-anchor="middle" fill="#141414">76</text>
<circle cx="143.378" cy="32.759" r="2.29" fill="#ffe082" stroke="#464646" stroke-width="0.2"/>
<text x="143.378" y="33.55" font-size="2.25" text-anchor="middle" fill="#141414">77</text>
<circle cx="153.268" cy="45.041" r="2.29" fill="#ffe082" stroke="#464646" stroke-width="0.2"/>
<text x="153.268" y="45.83" font-size="2.25" text-anchor="middle" fill="#141414">78</text>
<circle cx="130.726" cy="70.039" r="2.29" fill="#ffe082" stroke="#464646" stroke-width="0.2"/>
<text x="130.726" y="70.83" font-size="2.25" text-anchor="middle" fill="#141414">79</text>
<circle cx="120.964" cy="45.041" r="2.29" fill="#ffe082" stroke="#464646" stroke-width="0.2"/>
<text x="120.964" y="45.83" font-size="2.25" text-anchor="middle" fill="#141414">80</text>
<circle cx="121.269" cy="60.518" r="2.29" fill="#ffe082" stroke="#464646" stroke-width="0.2"/>
<text x="121.269" y="61.31" font-size="2.25" text-anchor="middle" fill="#141414">81</text>
<circle cx="121.269" cy="29.564" r="2.29" fill="#ffe082" stroke="#464646" stroke-width="0.2"/>
<text x="121.269" y="30.35" font-size="2.25" text-anchor="middle" fill="#141414">82</text>
<circle cx="115.944" cy="11.058" r="2.79" fill="#eaf1fe" stroke="#2e78e6" stroke-width="0.3"/>
<text x="115.944" y="12.15" font-size="3.15" text-anchor="middle" fill="#14306e" font-weight="bold">8</text>
<polygon points="185.071,54.128 186.988,60.518 195.934,60.518 197.851,54.128" fill="rgb(216,216,216)"/>
<polygon points="185.071,35.954 186.988,29.564 195.934,29.564 197.851,35.954" fill="rgb(216,216,216)"/>
<polygon points="197.851,54.128 204.851,51.402 204.851,38.68 197.851,35.954" fill="rgb(216,216,216)"/>
<polygon points="185.071,66.908 183.192,73.17 174.426,73.17 172.547,66.908" fill="rgb(216,216,216)"/>
<polygon points="172.547,54.128 165.547,51.402 165.547,38.68 172.547,35.954" fill="rgb(216,216,216)"/>
<polygon points="172.547,54.128 166.158,56.045 166.158,64.991 172.547,66.908" fill="rgb(216,216,216)"/>
<polygon points="172.547,35.954 166.158,34.037 166.158,25.091 172.547,23.174" fill="rgb(216,216,216)"/>
<polygon points="185.071,54.128 186.988,60.518 195.934,60.518 197.851,54.128" fill="#99d9fa"/>
<line x1="185.071" y1="54.129" x2="185.071" y2="35.954" stroke="#8c8c8c" stroke-width="0.3" stroke-dasharray="1.2,0.8"/>
<line x1="185.071" y1="54.129" x2="172.547" y2="54.129" stroke="#8c8c8c" stroke-width="0.3" stroke-dasharray="1.2,0.8"/>
<line x1="172.547" y1="35.954" x2="185.071" y2="35.954" stroke="#8c8c8c" stroke-width="0.3" stroke-dasharray="1.2,0.8"/>
<line x1="172.547" y1="23.174" x2="185.071" y2="23.174" stroke="#8c8c8c" stroke-width="0.3" stroke-dasharray="1.2,0.8"/>
<line x1="172.547" y1="23.174" x2="172.547" y2="5.0" stroke="#8c8c8c" stroke-width="0.3" stroke-dasharray="1.2,0.8"/>
<line x1="197.851" y1="54.128" x2="185.071" y2="54.128" stroke="#8c8c8c" stroke-width="0.3" stroke-dasharray="1.2,0.8"/>
<line x1="197.851" y1="35.954" x2="185.071" y2="35.954" stroke="#8c8c8c" stroke-width="0.3" stroke-dasharray="1.2,0.8"/>
<line x1="197.851" y1="35.954" x2="197.851" y2="54.128" stroke="#8c8c8c" stroke-width="0.3" stroke-dasharray="1.2,0.8"/>
<line x1="172.547" y1="66.908" x2="185.071" y2="66.908" stroke="#8c8c8c" stroke-width="0.3" stroke-dasharray="1.2,0.8"/>
<line x1="172.547" y1="35.954" x2="172.547" y2="54.128" stroke="#8c8c8c" stroke-width="0.3" stroke-dasharray="1.2,0.8"/>
<line x1="172.547" y1="66.908" x2="172.547" y2="54.128" stroke="#8c8c8c" stroke-width="0.3" stroke-dasharray="1.2,0.8"/>
<line x1="172.547" y1="23.174" x2="172.547" y2="35.954" stroke="#8c8c8c" stroke-width="0.3" stroke-dasharray="1.2,0.8"/>
<line x1="185.071" y1="54.129" x2="185.071" y2="66.908" stroke="#141414" stroke-width="0.4"/>
<line x1="185.071" y1="23.174" x2="185.071" y2="35.954" stroke="#141414" stroke-width="0.4"/>
<line x1="185.071" y1="5.0" x2="185.071" y2="23.174" stroke="#141414" stroke-width="0.4"/>
<line x1="172.547" y1="5.0" x2="185.071" y2="5.0" stroke="#141414" stroke-width="0.4"/>
<line x1="159.768" y1="23.174" x2="159.768" y2="5.0" stroke="#141414" stroke-width="0.4"/>
<line x1="159.768" y1="5.0" x2="172.547" y2="5.0" stroke="#141414" stroke-width="0.4"/>
<line x1="172.547" y1="23.174" x2="159.768" y2="23.174" stroke="#141414" stroke-width="0.4"/>
<line x1="185.071" y1="54.128" x2="186.988" y2="60.518" stroke="#141414" stroke-width="0.4"/>
<line x1="186.988" y1="60.518" x2="195.934" y2="60.518" stroke="#141414" stroke-width="0.4"/>
<line x1="195.934" y1="60.518" x2="197.851" y2="54.128" stroke="#141414" stroke-width="0.4"/>
<line x1="185.071" y1="35.954" x2="186.988" y2="29.564" stroke="#141414" stroke-width="0.4"/>
<line x1="186.988" y1="29.564" x2="195.934" y2="29.564" stroke="#141414" stroke-width="0.4"/>
<line x1="195.934" y1="29.564" x2="197.851" y2="35.954" stroke="#141414" stroke-width="0.4"/>
<line x1="197.851" y1="54.128" x2="204.851" y2="51.402" stroke="#141414" stroke-width="0.4"/>
<line x1="204.851" y1="51.402" x2="204.851" y2="38.68" stroke="#141414" stroke-width="0.4"/>
<line x1="204.851" y1="38.68" x2="197.851" y2="35.954" stroke="#141414" stroke-width="0.4"/>
<line x1="185.071" y1="66.908" x2="183.192" y2="73.17" stroke="#141414" stroke-width="0.4"/>
<line x1="183.192" y1="73.17" x2="174.426" y2="73.17" stroke="#141414" stroke-width="0.4"/>
<line x1="174.426" y1="73.17" x2="172.547" y2="66.908" stroke="#141414" stroke-width="0.4"/>
<line x1="172.547" y1="54.128" x2="165.547" y2="51.402" stroke="#141414" stroke-width="0.4"/>
<line x1="165.547" y1="51.402" x2="165.547" y2="38.68" stroke="#141414" stroke-width="0.4"/>
<line x1="165.547" y1="38.68" x2="172.547" y2="35.954" stroke="#141414" stroke-width="0.4"/>
<line x1="172.547" y1="54.128" x2="166.158" y2="56.045" stroke="#141414" stroke-width="0.4"/>
<line x1="166.158" y1="56.045" x2="166.158" y2="64.991" stroke="#141414" stroke-width="0.4"/>
<line x1="166.158" y1="64.991" x2="172.547" y2="66.908" stroke="#141414" stroke-width="0.4"/>
<line x1="172.547" y1="35.954" x2="166.158" y2="34.037" stroke="#141414" stroke-width="0.4"/>
<line x1="166.158" y1="34.037" x2="166.158" y2="25.091" stroke="#141414" stroke-width="0.4"/>
<line x1="166.158" y1="25.091" x2="172.547" y2="23.174" stroke="#141414" stroke-width="0.4"/>
<circle cx="191.461" cy="57.323" r="2.29" fill="#99d9fa" stroke="#464646" stroke-width="0.2"/>
<text x="191.461" y="58.11" font-size="2.25" text-anchor="middle" fill="#141414">83</text>
<circle cx="191.461" cy="32.759" r="2.29" fill="#ffe082" stroke="#464646" stroke-width="0.2"/>
<text x="191.461" y="33.55" font-size="2.25" text-anchor="middle" fill="#141414">84</text>
<circle cx="201.351" cy="45.041" r="2.29" fill="#ffe082" stroke="#464646" stroke-width="0.2"/>
<text x="201.351" y="45.83" font-size="2.25" text-anchor="middle" fill="#141414">85</text>
<circle cx="178.809" cy="70.039" r="2.29" fill="#ffe082" stroke="#464646" stroke-width="0.2"/>
<text x="178.809" y="70.83" font-size="2.25" text-anchor="middle" fill="#141414">86</text>
<circle cx="169.047" cy="45.041" r="2.29" fill="#ffe082" stroke="#464646" stroke-width="0.2"/>
<text x="169.047" y="45.83" font-size="2.25" text-anchor="middle" fill="#141414">87</text>
<circle cx="169.353" cy="60.518" r="2.29" fill="#ffe082" stroke="#464646" stroke-width="0.2"/>
<text x="169.353" y="61.31" font-size="2.25" text-anchor="middle" fill="#141414">88</text>
<circle cx="169.353" cy="29.564" r="2.29" fill="#ffe082" stroke="#464646" stroke-width="0.2"/>
<text x="169.353" y="30.35" font-size="2.25" text-anchor="middle" fill="#141414">89</text>
<circle cx="164.028" cy="11.058" r="2.79" fill="#eaf1fe" stroke="#2e78e6" stroke-width="0.3"/>
<text x="164.028" y="12.15" font-size="3.15" text-anchor="middle" fill="#14306e" font-weight="bold">9</text>
<polygon points="167.914,93.219 164.562,86.672 172.015,79.219 178.562,82.571" fill="rgb(216,216,216)"/>
<polygon points="132.507,126.852 129.42,133.665 138.116,142.361 144.929,139.274" fill="rgb(216,216,216)"/>
<polygon points="132.507,126.852 125.544,129.584 117.306,120.453 120.739,113.808" fill="rgb(216,216,216)"/>
<polygon points="178.562,103.867 185.109,107.22 192.563,99.766 189.21,93.219" fill="rgb(216,216,216)"/>
<polygon points="144.929,139.274 142.197,146.237 151.328,154.475 157.974,151.042" fill="rgb(216,216,216)"/>
<polygon points="189.21,93.219 192.563,86.672 185.109,79.219 178.562,82.571" fill="rgb(216,216,216)"/>
<polygon points="201.427,123.453 202.497,133.528 181.622,160.599 171.605,162.125" fill="rgb(216,216,216)"/>
<polygon points="167.914,93.219 164.562,86.672 172.015,79.219 178.562,82.571" fill="#99d9fa"/>
<line x1="132.507" y1="126.852" x2="167.914" y2="93.219" stroke="#8c8c8c" stroke-width="0.3" stroke-dasharray="1.2,0.8"/>
<line x1="178.562" y1="103.867" x2="167.914" y2="93.219" stroke="#8c8c8c" stroke-width="0.3" stroke-dasharray="1.2,0.8"/>
<line x1="178.562" y1="103.867" x2="144.929" y2="139.274" stroke="#8c8c8c" stroke-width="0.3" stroke-dasharray="1.2,0.8"/>
<line x1="189.743" y1="113.954" x2="157.974" y2="151.042" stroke="#8c8c8c" stroke-width="0.3" stroke-dasharray="1.2,0.8"/>
<line x1="171.605" y1="162.125" x2="157.974" y2="151.042" stroke="#8c8c8c" stroke-width="0.3" stroke-dasharray="1.2,0.8"/>
<line x1="178.562" y1="82.571" x2="167.914" y2="93.219" stroke="#8c8c8c" stroke-width="0.3" stroke-dasharray="1.2,0.8"/>
<line x1="144.929" y1="139.274" x2="132.507" y2="126.852" stroke="#8c8c8c" stroke-width="0.3" stroke-dasharray="1.2,0.8"/>
<line x1="120.739" y1="113.808" x2="132.507" y2="126.852" stroke="#8c8c8c" stroke-width="0.3" stroke-dasharray="1.2,0.8"/>
<line x1="189.21" y1="93.219" x2="178.562" y2="103.867" stroke="#8c8c8c" stroke-width="0.3" stroke-dasharray="1.2,0.8"/>
<line x1="157.974" y1="151.042" x2="144.929" y2="139.274" stroke="#8c8c8c" stroke-width="0.3" stroke-dasharray="1.2,0.8"/>
<line x1="178.562" y1="82.571" x2="189.21" y2="93.219" stroke="#8c8c8c" stroke-width="0.3" stroke-dasharray="1.2,0.8"/>
<line x1="171.605" y1="162.125" x2="201.427" y2="123.453" stroke="#8c8c8c" stroke-width="0.3" stroke-dasharray="1.2,0.8"/>
<line x1="157.827" y1="82.038" x2="167.914" y2="93.219" stroke="#141414" stroke-width="0.4"/>
<line x1="160.523" y1="175.756" x2="146.891" y2="164.674" stroke="#141414" stroke-width="0.4"/>
<line x1="171.605" y1="162.125" x2="160.523" y2="175.756" stroke="#141414" stroke-width="0.4"/>
<line x1="178.562" y1="103.867" x2="189.743" y2="113.954" stroke="#141414" stroke-width="0.4"/>
<line x1="146.891" y1="164.674" x2="157.974" y2="151.042" stroke="#141414" stroke-width="0.4"/>
<line x1="189.743" y1="113.954" x2="201.427" y2="123.453" stroke="#141414" stroke-width="0.4"/>
<line x1="120.739" y1="113.808" x2="157.827" y2="82.038" stroke="#141414" stroke-width="0.4"/>
<line x1="167.914" y1="93.219" x2="164.562" y2="86.672" stroke="#141414" stroke-width="0.4"/>
<line x1="164.562" y1="86.672" x2="172.015" y2="79.219" stroke="#141414" stroke-width="0.4"/>
<line x1="172.015" y1="79.219" x2="178.562" y2="82.571" stroke="#141414" stroke-width="0.4"/>
<line x1="132.507" y1="126.852" x2="129.42" y2="133.665" stroke="#141414" stroke-width="0.4"/>
<line x1="129.42" y1="133.665" x2="138.116" y2="142.361" stroke="#141414" stroke-width="0.4"/>
<line x1="138.116" y1="142.361" x2="144.929" y2="139.274" stroke="#141414" stroke-width="0.4"/>
<line x1="132.507" y1="126.852" x2="125.544" y2="129.584" stroke="#141414" stroke-width="0.4"/>
<line x1="125.544" y1="129.584" x2="117.306" y2="120.453" stroke="#141414" stroke-width="0.4"/>
<line x1="117.306" y1="120.453" x2="120.739" y2="113.808" stroke="#141414" stroke-width="0.4"/>
<line x1="178.562" y1="103.867" x2="185.109" y2="107.22" stroke="#141414" stroke-width="0.4"/>
<line x1="185.109" y1="107.22" x2="192.563" y2="99.766" stroke="#141414" stroke-width="0.4"/>
<line x1="192.563" y1="99.766" x2="189.21" y2="93.219" stroke="#141414" stroke-width="0.4"/>
<line x1="144.929" y1="139.274" x2="142.197" y2="146.237" stroke="#141414" stroke-width="0.4"/>
<line x1="142.197" y1="146.237" x2="151.328" y2="154.475" stroke="#141414" stroke-width="0.4"/>
<line x1="151.328" y1="154.475" x2="157.974" y2="151.042" stroke="#141414" stroke-width="0.4"/>
<line x1="189.21" y1="93.219" x2="192.563" y2="86.672" stroke="#141414" stroke-width="0.4"/>
<line x1="192.563" y1="86.672" x2="185.109" y2="79.219" stroke="#141414" stroke-width="0.4"/>
<line x1="185.109" y1="79.219" x2="178.562" y2="82.571" stroke="#141414" stroke-width="0.4"/>
<line x1="201.427" y1="123.453" x2="202.497" y2="133.528" stroke="#141414" stroke-width="0.4"/>
<line x1="202.497" y1="133.528" x2="181.622" y2="160.599" stroke="#141414" stroke-width="0.4"/>
<line x1="181.622" y1="160.599" x2="171.605" y2="162.125" stroke="#141414" stroke-width="0.4"/>
<circle cx="170.763" cy="85.42" r="2.29" fill="#99d9fa" stroke="#464646" stroke-width="0.2"/>
<text x="170.763" y="86.21" font-size="2.25" text-anchor="middle" fill="#141414">90</text>
<circle cx="136.243" cy="135.538" r="2.29" fill="#ffe082" stroke="#464646" stroke-width="0.2"/>
<text x="136.243" y="136.33" font-size="2.25" text-anchor="middle" fill="#141414">91</text>
<circle cx="124.024" cy="122.674" r="2.29" fill="#ffe082" stroke="#464646" stroke-width="0.2"/>
<text x="124.024" y="123.46" font-size="2.25" text-anchor="middle" fill="#141414">92</text>
<circle cx="186.361" cy="101.018" r="2.29" fill="#ffe082" stroke="#464646" stroke-width="0.2"/>
<text x="186.361" y="101.81" font-size="2.25" text-anchor="middle" fill="#141414">93</text>
<circle cx="149.107" cy="147.757" r="2.29" fill="#ffe082" stroke="#464646" stroke-width="0.2"/>
<text x="149.107" y="148.54" font-size="2.25" text-anchor="middle" fill="#141414">94</text>
<circle cx="186.361" cy="85.42" r="2.29" fill="#ffe082" stroke="#464646" stroke-width="0.2"/>
<text x="186.361" y="86.21" font-size="2.25" text-anchor="middle" fill="#141414">95</text>
<circle cx="189.288" cy="144.926" r="2.29" fill="#ffe082" stroke="#464646" stroke-width="0.2"/>
<text x="189.288" y="145.71" font-size="2.25" text-anchor="middle" fill="#141414">96</text>
<circle cx="164.215" cy="134.757" r="4.44" fill="#eaf1fe" stroke="#2e78e6" stroke-width="0.3"/>
<text x="164.215" y="136.50" font-size="5.02" text-anchor="middle" fill="#14306e" font-weight="bold">10</text>
<text x="205.0" y="295.0" font-size="3.2" text-anchor="end" fill="#737373" font-family="sans-serif">2 / 4</text>
<g pointer-events="none"><text x="105.0" y="83.2" text-anchor="middle" font-family="sans-serif" font-size="12.4" fill="#9aa0a6" fill-opacity="0.3" transform="rotate(-28 105.0 83.2)">papercraft.kr</text><text x="105.0" y="148.5" text-anchor="middle" font-family="sans-serif" font-size="12.4" fill="#9aa0a6" fill-opacity="0.3" transform="rotate(-28 105.0 148.5)">papercraft.kr</text><text x="105.0" y="213.8" text-anchor="middle" font-family="sans-serif" font-size="12.4" fill="#9aa0a6" fill-opacity="0.3" transform="rotate(-28 105.0 213.8)">papercraft.kr</text></g></svg>
