<svg xmlns="http://www.w3.org/2000/svg" xmlns:xlink="http://www.w3.org/1999/xlink" width="210.00mm" height="297.00mm" viewBox="0 0 210.00 297.00">
<rect x="0" y="0" width="210.00" height="297.00" fill="#ffffff" stroke="#cccccc" stroke-width="0.2"/>
<polygon points="44.146,106.854 39.764,113.854 19.316,113.854 14.934,106.854" fill="rgb(216,216,216)"/>
<polygon points="44.146,70.533 39.764,63.533 19.316,63.533 14.934,70.533" fill="rgb(216,216,216)"/>
<polygon points="61.63,106.854 68.63,101.406 68.63,75.981 61.63,70.533" fill="rgb(216,216,216)"/>
<polygon points="61.63,106.854 68.63,111.236 68.63,131.684 61.63,136.066" fill="rgb(216,216,216)"/>
<polygon points="61.63,70.533 68.63,66.151 68.63,45.703 61.63,41.321" fill="rgb(216,216,216)"/>
<polygon points="14.934,106.854 7.934,101.406 7.934,75.981 14.934,70.533" fill="rgb(216,216,216)"/>
<polygon points="44.146,136.066 46.769,143.066 59.008,143.066 61.63,136.066" fill="rgb(216,216,216)"/>
<polygon points="44.146,106.854 39.764,113.854 19.316,113.854 14.934,106.854" fill="#99d9fa"/>
<line x1="44.146" y1="106.854" x2="44.146" y2="70.533" stroke="#8c8c8c" stroke-width="0.3" stroke-dasharray="1.2,0.8"/>
<line x1="61.63" y1="106.854" x2="44.146" y2="106.854" stroke="#8c8c8c" stroke-width="0.3" stroke-dasharray="1.2,0.8"/>
<line x1="44.146" y1="70.533" x2="61.63" y2="70.533" stroke="#8c8c8c" stroke-width="0.3" stroke-dasharray="1.2,0.8"/>
<line x1="44.146" y1="41.321" x2="61.63" y2="41.321" stroke="#8c8c8c" stroke-width="0.3" stroke-dasharray="1.2,0.8"/>
<line x1="61.63" y1="41.321" x2="61.63" y2="5.0" stroke="#8c8c8c" stroke-width="0.3" stroke-dasharray="1.2,0.8"/>
<line x1="14.934" y1="106.854" x2="44.146" y2="106.854" stroke="#8c8c8c" stroke-width="0.3" stroke-dasharray="1.2,0.8"/>
<line x1="14.934" y1="70.533" x2="44.146" y2="70.533" stroke="#8c8c8c" stroke-width="0.3" stroke-dasharray="1.2,0.8"/>
<line x1="61.63" y1="70.533" x2="61.63" y2="106.854" stroke="#8c8c8c" stroke-width="0.3" stroke-dasharray="1.2,0.8"/>
<line x1="61.63" y1="136.066" x2="61.63" y2="106.854" stroke="#8c8c8c" stroke-width="0.3" stroke-dasharray="1.2,0.8"/>
<line x1="61.63" y1="41.321" x2="61.63" y2="70.533" stroke="#8c8c8c" stroke-width="0.3" stroke-dasharray="1.2,0.8"/>
<line x1="14.934" y1="70.533" x2="14.934" y2="106.854" stroke="#8c8c8c" stroke-width="0.3" stroke-dasharray="1.2,0.8"/>
<line x1="61.63" y1="136.066" x2="44.146" y2="136.066" stroke="#8c8c8c" stroke-width="0.3" stroke-dasharray="1.2,0.8"/>
<line x1="44.146" y1="136.066" x2="44.146" y2="106.854" stroke="#141414" stroke-width="0.4"/>
<line x1="44.146" y1="70.533" x2="44.146" y2="41.321" stroke="#141414" stroke-width="0.4"/>
<line x1="90.842" y1="5.0" x2="90.842" y2="41.321" stroke="#141414" stroke-width="0.4"/>
<line x1="61.63" y1="5.0" x2="90.842" y2="5.0" stroke="#141414" stroke-width="0.4"/>
<line x1="90.842" y1="41.321" x2="61.63" y2="41.321" stroke="#141414" stroke-width="0.4"/>
<line x1="44.146" y1="41.321" x2="44.146" y2="5.0" stroke="#141414" stroke-width="0.4"/>
<line x1="44.146" y1="5.0" x2="61.63" y2="5.0" stroke="#141414" stroke-width="0.4"/>
<line x1="44.146" y1="106.854" x2="39.764" y2="113.854" stroke="#141414" stroke-width="0.4"/>
<line x1="39.764" y1="113.854" x2="19.316" y2="113.854" stroke="#141414" stroke-width="0.4"/>
<line x1="19.316" y1="113.854" x2="14.934" y2="106.854" stroke="#141414" stroke-width="0.4"/>
<line x1="44.146" y1="70.533" x2="39.764" y2="63.533" stroke="#141414" stroke-width="0.4"/>
<line x1="39.764" y1="63.533" x2="19.316" y2="63.533" stroke="#141414" stroke-width="0.4"/>
<line x1="19.316" y1="63.533" x2="14.934" y2="70.533" stroke="#141414" stroke-width="0.4"/>
<line x1="61.63" y1="106.854" x2="68.63" y2="101.406" stroke="#141414" stroke-width="0.4"/>
<line x1="68.63" y1="101.406" x2="68.63" y2="75.981" stroke="#141414" stroke-width="0.4"/>
<line x1="68.63" y1="75.981" x2="61.63" y2="70.533" stroke="#141414" stroke-width="0.4"/>
<line x1="61.63" y1="106.854" x2="68.63" y2="111.236" stroke="#141414" stroke-width="0.4"/>
<line x1="68.63" y1="111.236" x2="68.63" y2="131.684" stroke="#141414" stroke-width="0.4"/>
<line x1="68.63" y1="131.684" x2="61.63" y2="136.066" stroke="#141414" stroke-width="0.4"/>
<line x1="61.63" y1="70.533" x2="68.63" y2="66.151" stroke="#141414" stroke-width="0.4"/>
<line x1="68.63" y1="66.151" x2="68.63" y2="45.703" stroke="#141414" stroke-width="0.4"/>
<line x1="68.63" y1="45.703" x2="61.63" y2="41.321" stroke="#141414" stroke-width="0.4"/>
<line x1="14.934" y1="106.854" x2="7.934" y2="101.406" stroke="#141414" stroke-width="0.4"/>
<line x1="7.934" y1="101.406" x2="7.934" y2="75.981" stroke="#141414" stroke-width="0.4"/>
<line x1="7.934" y1="75.981" x2="14.934" y2="70.533" stroke="#141414" stroke-width="0.4"/>
<line x1="44.146" y1="136.066" x2="46.769" y2="143.066" stroke="#141414" stroke-width="0.4"/>
<line x1="46.769" y1="143.066" x2="59.008" y2="143.066" stroke="#141414" stroke-width="0.4"/>
<line x1="59.008" y1="143.066" x2="61.63" y2="136.066" stroke="#141414" stroke-width="0.4"/>
<circle cx="29.54" cy="110.354" r="2.29" fill="#99d9fa" stroke="#464646" stroke-width="0.2"/>
<text x="29.54" y="111.14" font-size="2.25" text-anchor="middle" fill="#141414">118</text>
<circle cx="29.54" cy="67.033" r="2.29" fill="#ffe082" stroke="#464646" stroke-width="0.2"/>
<text x="29.54" y="67.82" font-size="2.25" text-anchor="middle" fill="#141414">119</text>
<circle cx="65.13" cy="88.693" r="2.29" fill="#ffe082" stroke="#464646" stroke-width="0.2"/>
<text x="65.13" y="89.48" font-size="2.25" text-anchor="middle" fill="#141414">120</text>
<circle cx="65.13" cy="121.46" r="2.29" fill="#ffe082" stroke="#464646" stroke-width="0.2"/>
<text x="65.13" y="122.25" font-size="2.25" text-anchor="middle" fill="#141414">121</text>
<circle cx="65.13" cy="55.927" r="2.29" fill="#ffe082" stroke="#464646" stroke-width="0.2"/>
<text x="65.13" y="56.71" font-size="2.25" text-anchor="middle" fill="#141414">122</text>
<circle cx="11.434" cy="88.693" r="2.29" fill="#ffe082" stroke="#464646" stroke-width="0.2"/>
<text x="11.434" y="89.48" font-size="2.25" text-anchor="middle" fill="#141414">123</text>
<circle cx="52.888" cy="139.566" r="2.29" fill="#ffe082" stroke="#464646" stroke-width="0.2"/>
<text x="52.888" y="140.35" font-size="2.25" text-anchor="middle" fill="#141414">124</text>
<circle cx="55.802" cy="126.328" r="4.00" fill="#eaf1fe" stroke="#2e78e6" stroke-width="0.3"/>
<text x="55.802" y="127.89" font-size="4.52" text-anchor="middle" fill="#14306e" font-weight="bold">14</text>
<polygon points="40.068,253.079 36.298,260.079 18.704,260.079 14.934,253.079" fill="rgb(216,216,216)"/>
<polygon points="40.068,212.139 36.298,205.139 18.704,205.139 14.934,212.139" fill="rgb(216,216,216)"/>
<polygon points="65.202,253.079 72.202,246.938 72.202,218.28 65.202,212.139" fill="rgb(216,216,216)"/>
<polygon points="65.202,253.079 72.202,256.849 72.202,274.443 65.202,278.213" fill="rgb(216,216,216)"/>
<polygon points="65.202,212.139 72.202,208.369 72.202,190.776 65.202,187.005" fill="rgb(216,216,216)"/>
<polygon points="14.934,253.079 7.934,246.938 7.934,218.28 14.934,212.139" fill="rgb(216,216,216)"/>
<polygon points="40.068,278.213 43.838,285.213 61.432,285.213 65.202,278.213" fill="rgb(216,216,216)"/>
<polygon points="40.068,253.079 36.298,260.079 18.704,260.079 14.934,253.079" fill="#99d9fa"/>
<line x1="40.068" y1="253.079" x2="40.068" y2="212.139" stroke="#8c8c8c" stroke-width="0.3" stroke-dasharray="1.2,0.8"/>
<line x1="65.202" y1="253.079" x2="40.068" y2="253.079" stroke="#8c8c8c" stroke-width="0.3" stroke-dasharray="1.2,0.8"/>
<line x1="40.068" y1="212.139" x2="65.202" y2="212.139" stroke="#8c8c8c" stroke-width="0.3" stroke-dasharray="1.2,0.8"/>
<line x1="40.068" y1="187.005" x2="65.202" y2="187.005" stroke="#8c8c8c" stroke-width="0.3" stroke-dasharray="1.2,0.8"/>
<line x1="65.202" y1="187.005" x2="65.202" y2="146.066" stroke="#8c8c8c" stroke-width="0.3" stroke-dasharray="1.2,0.8"/>
<line x1="14.934" y1="253.079" x2="40.068" y2="253.079" stroke="#8c8c8c" stroke-width="0.3" stroke-dasharray="1.2,0.8"/>
<line x1="14.934" y1="212.139" x2="40.068" y2="212.139" stroke="#8c8c8c" stroke-width="0.3" stroke-dasharray="1.2,0.8"/>
<line x1="65.202" y1="212.139" x2="65.202" y2="253.079" stroke="#8c8c8c" stroke-width="0.3" stroke-dasharray="1.2,0.8"/>
<line x1="65.202" y1="278.213" x2="65.202" y2="253.079" stroke="#8c8c8c" stroke-width="0.3" stroke-dasharray="1.2,0.8"/>
<line x1="65.202" y1="187.005" x2="65.202" y2="212.139" stroke="#8c8c8c" stroke-width="0.3" stroke-dasharray="1.2,0.8"/>
<line x1="14.934" y1="212.139" x2="14.934" y2="253.079" stroke="#8c8c8c" stroke-width="0.3" stroke-dasharray="1.2,0.8"/>
<line x1="65.202" y1="278.213" x2="40.068" y2="278.213" stroke="#8c8c8c" stroke-width="0.3" stroke-dasharray="1.2,0.8"/>
<line x1="40.068" y1="278.213" x2="40.068" y2="253.079" stroke="#141414" stroke-width="0.4"/>
<line x1="40.068" y1="212.139" x2="40.068" y2="187.005" stroke="#141414" stroke-width="0.4"/>
<line x1="90.336" y1="146.066" x2="90.336" y2="187.005" stroke="#141414" stroke-width="0.4"/>
<line x1="65.202" y1="146.066" x2="90.336" y2="146.066" stroke="#141414" stroke-width="0.4"/>
<line x1="90.336" y1="187.005" x2="65.202" y2="187.005" stroke="#141414" stroke-width="0.4"/>
<line x1="40.068" y1="187.005" x2="40.068" y2="146.066" stroke="#141414" stroke-width="0.4"/>
<line x1="40.068" y1="146.066" x2="65.202" y2="146.066" stroke="#141414" stroke-width="0.4"/>
<line x1="40.068" y1="253.079" x2="36.298" y2="260.079" stroke="#141414" stroke-width="0.4"/>
<line x1="36.298" y1="260.079" x2="18.704" y2="260.079" stroke="#141414" stroke-width="0.4"/>
<line x1="18.704" y1="260.079" x2="14.934" y2="253.079" stroke="#141414" stroke-width="0.4"/>
<line x1="40.068" y1="212.139" x2="36.298" y2="205.139" stroke="#141414" stroke-width="0.4"/>
<line x1="36.298" y1="205.139" x2="18.704" y2="205.139" stroke="#141414" stroke-width="0.4"/>
<line x1="18.704" y1="205.139" x2="14.934" y2="212.139" stroke="#141414" stroke-width="0.4"/>
<line x1="65.202" y1="253.079" x2="72.202" y2="246.938" stroke="#141414" stroke-width="0.4"/>
<line x1="72.202" y1="246.938" x2="72.202" y2="218.28" stroke="#141414" stroke-width="0.4"/>
<line x1="72.202" y1="218.28" x2="65.202" y2="212.139" stroke="#141414" stroke-width="0.4"/>
<line x1="65.202" y1="253.079" x2="72.202" y2="256.849" stroke="#141414" stroke-width="0.4"/>
<line x1="72.202" y1="256.849" x2="72.202" y2="274.443" stroke="#141414" stroke-width="0.4"/>
<line x1="72.202" y1="274.443" x2="65.202" y2="278.213" stroke="#141414" stroke-width="0.4"/>
<line x1="65.202" y1="212.139" x2="72.202" y2="208.369" stroke="#141414" stroke-width="0.4"/>
<line x1="72.202" y1="208.369" x2="72.202" y2="190.776" stroke="#141414" stroke-width="0.4"/>
<line x1="72.202" y1="190.776" x2="65.202" y2="187.005" stroke="#141414" stroke-width="0.4"/>
<line x1="14.934" y1="253.079" x2="7.934" y2="246.938" stroke="#141414" stroke-width="0.4"/>
<line x1="7.934" y1="246.938" x2="7.934" y2="218.28" stroke="#141414" stroke-width="0.4"/>
<line x1="7.934" y1="218.28" x2="14.934" y2="212.139" stroke="#141414" stroke-width="0.4"/>
<line x1="40.068" y1="278.213" x2="43.838" y2="285.213" stroke="#141414" stroke-width="0.4"/>
<line x1="43.838" y1="285.213" x2="61.432" y2="285.213" stroke="#141414" stroke-width="0.4"/>
<line x1="61.432" y1="285.213" x2="65.202" y2="278.213" stroke="#141414" stroke-width="0.4"/>
<circle cx="27.501" cy="256.579" r="2.29" fill="#99d9fa" stroke="#464646" stroke-width="0.2"/>
<text x="27.501" y="257.37" font-size="2.25" text-anchor="middle" fill="#141414">125</text>
<circle cx="27.501" cy="208.639" r="2.29" fill="#ffe082" stroke="#464646" stroke-width="0.2"/>
<text x="27.501" y="209.43" font-size="2.25" text-anchor="middle" fill="#141414">126</text>
<circle cx="68.702" cy="232.609" r="2.29" fill="#ffe082" stroke="#464646" stroke-width="0.2"/>
<text x="68.702" y="233.40" font-size="2.25" text-anchor="middle" fill="#141414">127</text>
<circle cx="68.702" cy="265.646" r="2.29" fill="#ffe082" stroke="#464646" stroke-width="0.2"/>
<text x="68.702" y="266.43" font-size="2.25" text-anchor="middle" fill="#141414">128</text>
<circle cx="68.702" cy="199.572" r="2.29" fill="#ffe082" stroke="#464646" stroke-width="0.2"/>
<text x="68.702" y="200.36" font-size="2.25" text-anchor="middle" fill="#141414">129</text>
<circle cx="11.434" cy="232.609" r="2.29" fill="#ffe082" stroke="#464646" stroke-width="0.2"/>
<text x="11.434" y="233.40" font-size="2.25" text-anchor="middle" fill="#141414">130</text>
<circle cx="52.635" cy="281.713" r="2.29" fill="#ffe082" stroke="#464646" stroke-width="0.2"/>
<text x="52.635" y="282.50" font-size="2.25" text-anchor="middle" fill="#141414">131</text>
<circle cx="56.824" cy="269.835" r="4.60" fill="#eaf1fe" stroke="#2e78e6" stroke-width="0.3"/>
<text x="56.824" y="271.63" font-size="5.20" text-anchor="middle" fill="#14306e" font-weight="bold">15</text>
<text x="205.0" y="295.0" font-size="3.2" text-anchor="end" fill="#737373" font-family="sans-serif">4 / 4</text>
<g pointer-events="none"><text x="105.0" y="83.2" text-anchor="middle" font-family="sans-serif" font-size="12.4" fill="#9aa0a6" fill-opacity="0.3" transform="rotate(-28 105.0 83.2)">papercraft.kr</text><text x="105.0" y="148.5" text-anchor="middle" font-family="sans-serif" font-size="12.4" fill="#9aa0a6" fill-opacity="0.3" transform="rotate(-28 105.0 148.5)">papercraft.kr</text><text x="105.0" y="213.8" text-anchor="middle" font-family="sans-serif" font-size="12.4" fill="#9aa0a6" fill-opacity="0.3" transform="rotate(-28 105.0 213.8)">papercraft.kr</text></g></svg>
