<svg xmlns="http://www.w3.org/2000/svg" xmlns:xlink="http://www.w3.org/1999/xlink" width="210.00mm" height="297.00mm" viewBox="0 0 210.00 297.00">
<rect x="0" y="0" width="210.00" height="297.00" fill="#ffffff" stroke="#cccccc" stroke-width="0.2"/>
<polygon points="19.733,31.115 28.221,37.324 70.599,42.191 80.273,38.068" fill="rgb(216,216,216)"/>
<polygon points="80.273,38.068 87.163,55.754 91.366,61.294 106.541,72.694" fill="rgb(216,216,216)"/>
<polygon points="122.854,31.115 130.302,40.666 141.372,90.5 138.668,102.306" fill="rgb(216,216,216)"/>
<polygon points="69.178,57.573 63.129,67.796 59.088,117.469 63.405,128.535" fill="rgb(216,216,216)"/>
<polygon points="138.668,102.306 139.201,109.163 124.434,124.1 117.572,123.646" fill="rgb(216,216,216)"/>
<line x1="19.733" y1="31.115" x2="29.641" y2="5.0" stroke="#8c8c8c" stroke-width="0.3" stroke-dasharray="1.2,0.8"/>
<line x1="19.733" y1="31.115" x2="122.854" y2="31.115" stroke="#8c8c8c" stroke-width="0.3" stroke-dasharray="1.2,0.8"/>
<line x1="122.854" y1="31.115" x2="106.541" y2="72.695" stroke="#8c8c8c" stroke-width="0.3" stroke-dasharray="1.2,0.8"/>
<line x1="138.668" y1="102.306" x2="106.541" y2="72.695" stroke="#8c8c8c" stroke-width="0.3" stroke-dasharray="1.2,0.8"/>
<line x1="106.541" y1="72.695" x2="117.572" y2="123.646" stroke="#8c8c8c" stroke-width="0.3" stroke-dasharray="1.2,0.8"/>
<line x1="122.854" y1="31.115" x2="80.273" y2="38.068" stroke="#8c8c8c" stroke-width="0.3" stroke-dasharray="1.2,0.8"/>
<line x1="80.273" y1="38.068" x2="19.733" y2="31.115" stroke="#8c8c8c" stroke-width="0.3" stroke-dasharray="1.2,0.8"/>
<line x1="106.541" y1="72.694" x2="80.273" y2="38.068" stroke="#8c8c8c" stroke-width="0.3" stroke-dasharray="1.2,0.8"/>
<line x1="138.668" y1="102.306" x2="122.854" y2="31.115" stroke="#8c8c8c" stroke-width="0.3" stroke-dasharray="1.2,0.8"/>
<line x1="63.405" y1="128.535" x2="69.178" y2="57.573" stroke="#8c8c8c" stroke-width="0.3" stroke-dasharray="1.2,0.8"/>
<line x1="117.572" y1="123.646" x2="138.668" y2="102.306" stroke="#8c8c8c" stroke-width="0.3" stroke-dasharray="1.2,0.8"/>
<line x1="5.0" y1="7.143" x2="29.641" y2="5.0" stroke="#141414" stroke-width="0.4"/>
<line x1="29.641" y1="5.0" x2="122.854" y2="31.115" stroke="#141414" stroke-width="0.4"/>
<line x1="19.733" y1="31.115" x2="5.0" y2="7.143" stroke="#141414" stroke-width="0.4"/>
<line x1="69.178" y1="57.573" x2="106.541" y2="72.695" stroke="#141414" stroke-width="0.4"/>
<line x1="117.572" y1="123.646" x2="63.405" y2="128.535" stroke="#141414" stroke-width="0.4"/>
<line x1="19.733" y1="31.115" x2="28.221" y2="37.324" stroke="#141414" stroke-width="0.4"/>
<line x1="28.221" y1="37.324" x2="70.599" y2="42.191" stroke="#141414" stroke-width="0.4"/>
<line x1="70.599" y1="42.191" x2="80.273" y2="38.068" stroke="#141414" stroke-width="0.4"/>
<line x1="80.273" y1="38.068" x2="87.163" y2="55.754" stroke="#141414" stroke-width="0.4"/>
<line x1="87.163" y1="55.754" x2="91.366" y2="61.294" stroke="#141414" stroke-width="0.4"/>
<line x1="91.366" y1="61.294" x2="106.541" y2="72.694" stroke="#141414" stroke-width="0.4"/>
<line x1="122.854" y1="31.115" x2="130.302" y2="40.666" stroke="#141414" stroke-width="0.4"/>
<line x1="130.302" y1="40.666" x2="141.372" y2="90.5" stroke="#141414" stroke-width="0.4"/>
<line x1="141.372" y1="90.5" x2="138.668" y2="102.306" stroke="#141414" stroke-width="0.4"/>
<line x1="69.178" y1="57.573" x2="63.129" y2="67.796" stroke="#141414" stroke-width="0.4"/>
<line x1="63.129" y1="67.796" x2="59.088" y2="117.469" stroke="#141414" stroke-width="0.4"/>
<line x1="59.088" y1="117.469" x2="63.405" y2="128.535" stroke="#141414" stroke-width="0.4"/>
<line x1="138.668" y1="102.306" x2="139.201" y2="109.163" stroke="#141414" stroke-width="0.4"/>
<line x1="139.201" y1="109.163" x2="124.434" y2="124.1" stroke="#141414" stroke-width="0.4"/>
<line x1="124.434" y1="124.1" x2="117.572" y2="123.646" stroke="#141414" stroke-width="0.4"/>
<circle cx="49.706" cy="37.175" r="2.29" fill="#ffe082" stroke="#464646" stroke-width="0.2"/>
<text x="49.706" y="38.26" font-size="3.11" text-anchor="middle" fill="#141414">7</text>
<circle cx="91.336" cy="56.953" r="2.29" fill="#ffe082" stroke="#464646" stroke-width="0.2"/>
<text x="91.336" y="58.04" font-size="3.11" text-anchor="middle" fill="#141414">9</text>
<circle cx="133.299" cy="66.147" r="2.29" fill="#ffe082" stroke="#464646" stroke-width="0.2"/>
<text x="133.299" y="67.23" font-size="3.11" text-anchor="middle" fill="#141414">16</text>
<circle cx="63.7" cy="92.843" r="2.29" fill="#ffe082" stroke="#464646" stroke-width="0.2"/>
<text x="63.7" y="93.93" font-size="3.11" text-anchor="middle" fill="#141414">27</text>
<circle cx="129.969" cy="114.804" r="2.29" fill="#ffe082" stroke="#464646" stroke-width="0.2"/>
<text x="129.969" y="115.89" font-size="3.11" text-anchor="middle" fill="#141414">29</text>
<circle cx="18.125" cy="14.419" r="4.60" fill="#eaf1fe" stroke="#2e78e6" stroke-width="0.3"/>
<text x="18.125" y="16.22" font-size="5.20" text-anchor="middle" fill="#14306e" font-weight="bold">12</text>
<polygon points="13.66,131.535 8.969,136.456 11.199,156.773 16.846,160.56" fill="rgb(216,216,216)"/>
<polygon points="156.446,160.56 152.502,166.543 129.843,170.575 124.076,166.32" fill="rgb(216,216,216)"/>
<line x1="16.846" y1="160.56" x2="156.446" y2="160.56" stroke="#8c8c8c" stroke-width="0.3" stroke-dasharray="1.2,0.8"/>
<line x1="16.846" y1="160.56" x2="13.66" y2="131.535" stroke="#8c8c8c" stroke-width="0.3" stroke-dasharray="1.2,0.8"/>
<line x1="124.076" y1="166.32" x2="156.446" y2="160.56" stroke="#8c8c8c" stroke-width="0.3" stroke-dasharray="1.2,0.8"/>
<line x1="13.66" y1="131.535" x2="156.446" y2="160.56" stroke="#141414" stroke-width="0.4"/>
<line x1="124.076" y1="166.32" x2="16.846" y2="160.56" stroke="#141414" stroke-width="0.4"/>
<line x1="13.66" y1="131.535" x2="8.969" y2="136.456" stroke="#141414" stroke-width="0.4"/>
<line x1="8.969" y1="136.456" x2="11.199" y2="156.773" stroke="#141414" stroke-width="0.4"/>
<line x1="11.199" y1="156.773" x2="16.846" y2="160.56" stroke="#141414" stroke-width="0.4"/>
<line x1="156.446" y1="160.56" x2="152.502" y2="166.543" stroke="#141414" stroke-width="0.4"/>
<line x1="152.502" y1="166.543" x2="129.843" y2="170.575" stroke="#141414" stroke-width="0.4"/>
<line x1="129.843" y1="170.575" x2="124.076" y2="166.32" stroke="#141414" stroke-width="0.4"/>
<circle cx="12.668" cy="146.331" r="2.29" fill="#ffe082" stroke="#464646" stroke-width="0.2"/>
<text x="12.668" y="147.42" font-size="3.11" text-anchor="middle" fill="#141414">37</text>
<circle cx="140.717" cy="166.0" r="2.29" fill="#ffe082" stroke="#464646" stroke-width="0.2"/>
<text x="140.717" y="167.09" font-size="3.11" text-anchor="middle" fill="#141414">51</text>
<circle cx="62.317" cy="150.885" r="4.60" fill="#eaf1fe" stroke="#2e78e6" stroke-width="0.3"/>
<text x="62.317" y="152.69" font-size="5.20" text-anchor="middle" fill="#14306e" font-weight="bold">13</text>
<text x="205.0" y="295.0" font-size="3.2" text-anchor="end" fill="#737373" font-family="sans-serif">8 / 11</text>
<g pointer-events="none"><text x="105.0" y="83.2" text-anchor="middle" font-family="sans-serif" font-size="12.4" fill="#9aa0a6" fill-opacity="0.3" transform="rotate(-28 105.0 83.2)">papercraft.kr</text><text x="105.0" y="148.5" text-anchor="middle" font-family="sans-serif" font-size="12.4" fill="#9aa0a6" fill-opacity="0.3" transform="rotate(-28 105.0 148.5)">papercraft.kr</text><text x="105.0" y="213.8" text-anchor="middle" font-family="sans-serif" font-size="12.4" fill="#9aa0a6" fill-opacity="0.3" transform="rotate(-28 105.0 213.8)">papercraft.kr</text></g></svg>
