<svg xmlns="http://www.w3.org/2000/svg" xmlns:xlink="http://www.w3.org/1999/xlink" width="210.00mm" height="297.00mm" viewBox="0 0 210.00 297.00">
<rect x="0" y="0" width="210.00" height="297.00" fill="#ffffff" stroke="#cccccc" stroke-width="0.2"/>
<polygon points="10.631,14.193 14.852,8.993 34.548,8.993 38.768,14.193" fill="rgb(216,216,216)"/>
<polygon points="38.768,14.193 38.554,29.19 14.916,90.442 5.0,101.695" fill="rgb(216,216,216)"/>
<line x1="38.768" y1="14.193" x2="10.631" y2="14.193" stroke="#8c8c8c" stroke-width="0.3" stroke-dasharray="1.2,0.8"/>
<line x1="5.0" y1="101.695" x2="38.768" y2="14.193" stroke="#8c8c8c" stroke-width="0.3" stroke-dasharray="1.2,0.8"/>
<line x1="5.0" y1="101.695" x2="10.631" y2="14.193" stroke="#141414" stroke-width="0.4"/>
<line x1="10.631" y1="14.193" x2="14.852" y2="8.993" stroke="#141414" stroke-width="0.4"/>
<line x1="14.852" y1="8.993" x2="34.548" y2="8.993" stroke="#141414" stroke-width="0.4"/>
<line x1="34.548" y1="8.993" x2="38.768" y2="14.193" stroke="#141414" stroke-width="0.4"/>
<line x1="38.768" y1="14.193" x2="38.554" y2="29.19" stroke="#141414" stroke-width="0.4"/>
<line x1="38.554" y1="29.19" x2="14.916" y2="90.442" stroke="#141414" stroke-width="0.4"/>
<line x1="14.916" y1="90.442" x2="5.0" y2="101.695" stroke="#141414" stroke-width="0.4"/>
<circle cx="24.7" cy="11.593" r="2.29" fill="#ffe082" stroke="#464646" stroke-width="0.2"/>
<text x="24.7" y="12.68" font-size="3.11" text-anchor="middle" fill="#141414">3</text>
<circle cx="24.31" cy="58.88" r="2.29" fill="#ffe082" stroke="#464646" stroke-width="0.2"/>
<text x="24.31" y="59.97" font-size="3.11" text-anchor="middle" fill="#141414">8</text>
<circle cx="18.133" cy="43.36" r="4.60" fill="#eaf1fe" stroke="#2e78e6" stroke-width="0.3"/>
<text x="18.133" y="45.16" font-size="5.20" text-anchor="middle" fill="#14306e" font-weight="bold">10</text>
<polygon points="50.961,5.0 68.236,13.86 132.4,73.041 142.624,89.545" fill="rgb(216,216,216)"/>
<polygon points="50.961,5.0 45.761,13.158 45.761,51.229 50.961,59.387" fill="rgb(216,216,216)"/>
<polygon points="117.435,112.954 104.201,108.968 57.669,71.471 50.961,59.387" fill="rgb(216,216,216)"/>
<polygon points="121.475,223.139 130.199,208.634 147.28,135.431 145.877,118.563" fill="rgb(216,216,216)"/>
<polygon points="117.435,112.954 104.201,108.968 57.669,71.471 50.961,59.387" fill="#99d9fa"/>
<line x1="50.961" y1="5.0" x2="117.435" y2="112.954" stroke="#8c8c8c" stroke-width="0.3" stroke-dasharray="1.2,0.8"/>
<line x1="142.625" y1="89.546" x2="117.435" y2="112.954" stroke="#8c8c8c" stroke-width="0.3" stroke-dasharray="1.2,0.8"/>
<line x1="117.435" y1="112.954" x2="145.877" y2="118.563" stroke="#8c8c8c" stroke-width="0.3" stroke-dasharray="1.2,0.8"/>
<line x1="121.475" y1="223.139" x2="86.576" y2="257.957" stroke="#8c8c8c" stroke-width="0.3" stroke-dasharray="1.2,0.8"/>
<line x1="121.475" y1="223.139" x2="102.588" y2="197.023" stroke="#8c8c8c" stroke-width="0.3" stroke-dasharray="1.2,0.8"/>
<line x1="127.13" y1="255.527" x2="86.576" y2="257.957" stroke="#8c8c8c" stroke-width="0.3" stroke-dasharray="1.2,0.8"/>
<line x1="142.624" y1="89.545" x2="50.961" y2="5.0" stroke="#8c8c8c" stroke-width="0.3" stroke-dasharray="1.2,0.8"/>
<line x1="50.961" y1="59.387" x2="50.961" y2="5.0" stroke="#8c8c8c" stroke-width="0.3" stroke-dasharray="1.2,0.8"/>
<line x1="50.961" y1="59.387" x2="117.435" y2="112.954" stroke="#8c8c8c" stroke-width="0.3" stroke-dasharray="1.2,0.8"/>
<line x1="145.877" y1="118.563" x2="121.475" y2="223.139" stroke="#8c8c8c" stroke-width="0.3" stroke-dasharray="1.2,0.8"/>
<line x1="102.588" y1="197.023" x2="117.435" y2="112.954" stroke="#141414" stroke-width="0.4"/>
<line x1="142.625" y1="89.546" x2="145.877" y2="118.563" stroke="#141414" stroke-width="0.4"/>
<line x1="86.576" y1="257.957" x2="102.588" y2="197.023" stroke="#141414" stroke-width="0.4"/>
<line x1="114.075" y1="278.769" x2="86.576" y2="257.957" stroke="#141414" stroke-width="0.4"/>
<line x1="121.475" y1="223.139" x2="127.13" y2="255.527" stroke="#141414" stroke-width="0.4"/>
<line x1="127.13" y1="255.527" x2="114.075" y2="278.769" stroke="#141414" stroke-width="0.4"/>
<line x1="50.961" y1="5.0" x2="68.236" y2="13.86" stroke="#141414" stroke-width="0.4"/>
<line x1="68.236" y1="13.86" x2="132.4" y2="73.041" stroke="#141414" stroke-width="0.4"/>
<line x1="132.4" y1="73.041" x2="142.624" y2="89.545" stroke="#141414" stroke-width="0.4"/>
<line x1="50.961" y1="5.0" x2="45.761" y2="13.158" stroke="#141414" stroke-width="0.4"/>
<line x1="45.761" y1="13.158" x2="45.761" y2="51.229" stroke="#141414" stroke-width="0.4"/>
<line x1="45.761" y1="51.229" x2="50.961" y2="59.387" stroke="#141414" stroke-width="0.4"/>
<line x1="117.435" y1="112.954" x2="104.201" y2="108.968" stroke="#141414" stroke-width="0.4"/>
<line x1="104.201" y1="108.968" x2="57.669" y2="71.471" stroke="#141414" stroke-width="0.4"/>
<line x1="57.669" y1="71.471" x2="50.961" y2="59.387" stroke="#141414" stroke-width="0.4"/>
<line x1="121.475" y1="223.139" x2="130.199" y2="208.634" stroke="#141414" stroke-width="0.4"/>
<line x1="130.199" y1="208.634" x2="147.28" y2="135.431" stroke="#141414" stroke-width="0.4"/>
<line x1="147.28" y1="135.431" x2="145.877" y2="118.563" stroke="#141414" stroke-width="0.4"/>
<circle cx="98.556" cy="45.361" r="2.29" fill="#ffe082" stroke="#464646" stroke-width="0.2"/>
<text x="98.556" y="46.45" font-size="3.11" text-anchor="middle" fill="#141414">30</text>
<circle cx="48.361" cy="32.194" r="2.29" fill="#ffe082" stroke="#464646" stroke-width="0.2"/>
<text x="48.361" y="33.28" font-size="3.11" text-anchor="middle" fill="#141414">31</text>
<circle cx="82.566" cy="88.195" r="2.29" fill="#99d9fa" stroke="#464646" stroke-width="0.2"/>
<text x="82.566" y="89.28" font-size="3.11" text-anchor="middle" fill="#141414">35</text>
<circle cx="136.208" cy="171.441" r="2.29" fill="#ffe082" stroke="#464646" stroke-width="0.2"/>
<text x="136.208" y="172.53" font-size="3.11" text-anchor="middle" fill="#141414">53</text>
<circle cx="135.312" cy="107.021" r="4.60" fill="#eaf1fe" stroke="#2e78e6" stroke-width="0.3"/>
<text x="135.312" y="108.82" font-size="5.20" text-anchor="middle" fill="#14306e" font-weight="bold">11</text>
<text x="205.0" y="295.0" font-size="3.2" text-anchor="end" fill="#737373" font-family="sans-serif">7 / 11</text>
<g pointer-events="none"><text x="105.0" y="83.2" text-anchor="middle" font-family="sans-serif" font-size="12.4" fill="#9aa0a6" fill-opacity="0.3" transform="rotate(-28 105.0 83.2)">papercraft.kr</text><text x="105.0" y="148.5" text-anchor="middle" font-family="sans-serif" font-size="12.4" fill="#9aa0a6" fill-opacity="0.3" transform="rotate(-28 105.0 148.5)">papercraft.kr</text><text x="105.0" y="213.8" text-anchor="middle" font-family="sans-serif" font-size="12.4" fill="#9aa0a6" fill-opacity="0.3" transform="rotate(-28 105.0 213.8)">papercraft.kr</text></g></svg>
