<svg xmlns="http://www.w3.org/2000/svg" xmlns:xlink="http://www.w3.org/1999/xlink" width="210.00mm" height="297.00mm" viewBox="0 0 210.00 297.00">
<rect x="0" y="0" width="210.00" height="297.00" fill="#ffffff" stroke="#cccccc" stroke-width="0.2"/>
<polygon points="124.734,30.039 122.162,22.711 133.262,11.612 140.589,14.184" fill="rgb(216,216,216)"/>
<polygon points="29.462,122.14 27.366,129.943 40.685,143.262 48.489,141.166" fill="rgb(216,216,216)"/>
<polygon points="29.462,122.14 21.592,123.97 8.732,110.209 11.091,102.48" fill="rgb(216,216,216)"/>
<polygon points="140.589,45.894 147.917,48.466 159.016,37.367 156.445,30.039" fill="rgb(216,216,216)"/>
<polygon points="48.489,141.166 46.658,149.036 60.42,161.896 68.148,159.537" fill="rgb(216,216,216)"/>
<polygon points="156.445,30.039 159.016,22.711 147.917,11.612 140.589,14.184" fill="rgb(216,216,216)"/>
<polygon points="173.863,75.95 166.397,95.656 106.585,166.554 88.417,177.233" fill="rgb(216,216,216)"/>
<polygon points="124.734,30.039 122.162,22.711 133.262,11.612 140.589,14.184" fill="#99d9fa"/>
<line x1="29.462" y1="122.139" x2="124.734" y2="30.039" stroke="#8c8c8c" stroke-width="0.3" stroke-dasharray="1.2,0.8"/>
<line x1="140.589" y1="45.894" x2="124.734" y2="30.039" stroke="#8c8c8c" stroke-width="0.3" stroke-dasharray="1.2,0.8"/>
<line x1="140.589" y1="45.894" x2="48.489" y2="141.166" stroke="#8c8c8c" stroke-width="0.3" stroke-dasharray="1.2,0.8"/>
<line x1="156.972" y1="61.204" x2="68.148" y2="159.537" stroke="#8c8c8c" stroke-width="0.3" stroke-dasharray="1.2,0.8"/>
<line x1="88.417" y1="177.233" x2="68.148" y2="159.537" stroke="#8c8c8c" stroke-width="0.3" stroke-dasharray="1.2,0.8"/>
<line x1="140.589" y1="14.184" x2="124.734" y2="30.039" stroke="#8c8c8c" stroke-width="0.3" stroke-dasharray="1.2,0.8"/>
<line x1="48.489" y1="141.166" x2="29.462" y2="122.14" stroke="#8c8c8c" stroke-width="0.3" stroke-dasharray="1.2,0.8"/>
<line x1="11.091" y1="102.48" x2="29.462" y2="122.14" stroke="#8c8c8c" stroke-width="0.3" stroke-dasharray="1.2,0.8"/>
<line x1="156.445" y1="30.039" x2="140.589" y2="45.894" stroke="#8c8c8c" stroke-width="0.3" stroke-dasharray="1.2,0.8"/>
<line x1="68.148" y1="159.537" x2="48.489" y2="141.166" stroke="#8c8c8c" stroke-width="0.3" stroke-dasharray="1.2,0.8"/>
<line x1="140.589" y1="14.184" x2="156.445" y2="30.039" stroke="#8c8c8c" stroke-width="0.3" stroke-dasharray="1.2,0.8"/>
<line x1="88.417" y1="177.233" x2="173.863" y2="75.95" stroke="#8c8c8c" stroke-width="0.3" stroke-dasharray="1.2,0.8"/>
<line x1="109.424" y1="13.656" x2="124.734" y2="30.039" stroke="#141414" stroke-width="0.4"/>
<line x1="70.722" y1="197.503" x2="50.452" y2="179.807" stroke="#141414" stroke-width="0.4"/>
<line x1="88.417" y1="177.233" x2="70.722" y2="197.503" stroke="#141414" stroke-width="0.4"/>
<line x1="140.589" y1="45.894" x2="156.972" y2="61.204" stroke="#141414" stroke-width="0.4"/>
<line x1="50.452" y1="179.807" x2="68.148" y2="159.537" stroke="#141414" stroke-width="0.4"/>
<line x1="156.972" y1="61.204" x2="173.863" y2="75.95" stroke="#141414" stroke-width="0.4"/>
<line x1="11.091" y1="102.48" x2="109.424" y2="13.656" stroke="#141414" stroke-width="0.4"/>
<line x1="124.734" y1="30.039" x2="122.162" y2="22.711" stroke="#141414" stroke-width="0.4"/>
<line x1="122.162" y1="22.711" x2="133.262" y2="11.612" stroke="#141414" stroke-width="0.4"/>
<line x1="133.262" y1="11.612" x2="140.589" y2="14.184" stroke="#141414" stroke-width="0.4"/>
<line x1="29.462" y1="122.14" x2="27.366" y2="129.943" stroke="#141414" stroke-width="0.4"/>
<line x1="27.366" y1="129.943" x2="40.685" y2="143.262" stroke="#141414" stroke-width="0.4"/>
<line x1="40.685" y1="143.262" x2="48.489" y2="141.166" stroke="#141414" stroke-width="0.4"/>
<line x1="29.462" y1="122.14" x2="21.592" y2="123.97" stroke="#141414" stroke-width="0.4"/>
<line x1="21.592" y1="123.97" x2="8.732" y2="110.209" stroke="#141414" stroke-width="0.4"/>
<line x1="8.732" y1="110.209" x2="11.091" y2="102.48" stroke="#141414" stroke-width="0.4"/>
<line x1="140.589" y1="45.894" x2="147.917" y2="48.466" stroke="#141414" stroke-width="0.4"/>
<line x1="147.917" y1="48.466" x2="159.016" y2="37.367" stroke="#141414" stroke-width="0.4"/>
<line x1="159.016" y1="37.367" x2="156.445" y2="30.039" stroke="#141414" stroke-width="0.4"/>
<line x1="48.489" y1="141.166" x2="46.658" y2="149.036" stroke="#141414" stroke-width="0.4"/>
<line x1="46.658" y1="149.036" x2="60.42" y2="161.896" stroke="#141414" stroke-width="0.4"/>
<line x1="60.42" y1="161.896" x2="68.148" y2="159.537" stroke="#141414" stroke-width="0.4"/>
<line x1="156.445" y1="30.039" x2="159.016" y2="22.711" stroke="#141414" stroke-width="0.4"/>
<line x1="159.016" y1="22.711" x2="147.917" y2="11.612" stroke="#141414" stroke-width="0.4"/>
<line x1="147.917" y1="11.612" x2="140.589" y2="14.184" stroke="#141414" stroke-width="0.4"/>
<line x1="173.863" y1="75.95" x2="166.397" y2="95.656" stroke="#141414" stroke-width="0.4"/>
<line x1="166.397" y1="95.656" x2="106.585" y2="166.554" stroke="#141414" stroke-width="0.4"/>
<line x1="106.585" y1="166.554" x2="88.417" y2="177.233" stroke="#141414" stroke-width="0.4"/>
<circle cx="130.187" cy="19.636" r="2.23" fill="#99d9fa" stroke="#464646" stroke-width="0.2"/>
<text x="130.187" y="20.40" font-size="2.19" text-anchor="middle" fill="#141414">84</text>
<circle cx="36.501" cy="134.128" r="2.23" fill="#ffe082" stroke="#464646" stroke-width="0.2"/>
<text x="36.501" y="134.89" font-size="2.19" text-anchor="middle" fill="#141414">85</text>
<circle cx="17.719" cy="114.7" r="2.23" fill="#ffe082" stroke="#464646" stroke-width="0.2"/>
<text x="17.719" y="115.47" font-size="2.19" text-anchor="middle" fill="#141414">86</text>
<circle cx="150.992" cy="40.441" r="2.23" fill="#ffe082" stroke="#464646" stroke-width="0.2"/>
<text x="150.992" y="41.21" font-size="2.19" text-anchor="middle" fill="#141414">87</text>
<circle cx="55.929" cy="152.909" r="2.23" fill="#ffe082" stroke="#464646" stroke-width="0.2"/>
<text x="55.929" y="153.67" font-size="2.19" text-anchor="middle" fill="#141414">88</text>
<circle cx="150.992" cy="19.636" r="2.23" fill="#ffe082" stroke="#464646" stroke-width="0.2"/>
<text x="150.992" y="20.40" font-size="2.19" text-anchor="middle" fill="#141414">89</text>
<circle cx="133.815" cy="128.849" r="2.23" fill="#ffe082" stroke="#464646" stroke-width="0.2"/>
<text x="133.815" y="129.61" font-size="2.19" text-anchor="middle" fill="#141414">90</text>
<circle cx="72.847" cy="103.066" r="4.60" fill="#eaf1fe" stroke="#2e78e6" stroke-width="0.3"/>
<text x="72.847" y="104.87" font-size="5.20" text-anchor="middle" fill="#14306e" font-weight="bold">12</text>
<polygon points="78.906,251.446 74.589,258.446 54.445,258.446 50.128,251.446" fill="rgb(216,216,216)"/>
<polygon points="78.906,222.668 83.223,215.668 103.367,215.668 107.684,222.668" fill="rgb(216,216,216)"/>
<polygon points="78.906,222.668 74.589,215.668 54.445,215.668 50.128,222.668" fill="rgb(216,216,216)"/>
<polygon points="107.684,251.446 114.684,255.762 114.684,275.907 107.684,280.223" fill="rgb(216,216,216)"/>
<polygon points="21.351,193.891 14.351,198.207 14.351,218.352 21.351,222.668" fill="rgb(216,216,216)"/>
<polygon points="78.906,280.223 83.223,287.223 103.367,287.223 107.684,280.223" fill="rgb(216,216,216)"/>
<polygon points="136.461,251.446 143.461,247.129 143.461,226.985 136.461,222.668" fill="rgb(216,216,216)"/>
<polygon points="78.906,251.446 74.589,258.446 54.445,258.446 50.128,251.446" fill="#99d9fa"/>
<line x1="78.906" y1="251.446" x2="78.906" y2="222.668" stroke="#8c8c8c" stroke-width="0.3" stroke-dasharray="1.2,0.8"/>
<line x1="107.684" y1="251.446" x2="78.906" y2="251.446" stroke="#8c8c8c" stroke-width="0.3" stroke-dasharray="1.2,0.8"/>
<line x1="107.684" y1="222.668" x2="107.684" y2="251.446" stroke="#8c8c8c" stroke-width="0.3" stroke-dasharray="1.2,0.8"/>
<line x1="50.129" y1="251.446" x2="50.129" y2="222.668" stroke="#8c8c8c" stroke-width="0.3" stroke-dasharray="1.2,0.8"/>
<line x1="50.129" y1="222.668" x2="21.351" y2="222.668" stroke="#8c8c8c" stroke-width="0.3" stroke-dasharray="1.2,0.8"/>
<line x1="50.128" y1="251.446" x2="78.906" y2="251.446" stroke="#8c8c8c" stroke-width="0.3" stroke-dasharray="1.2,0.8"/>
<line x1="107.684" y1="222.668" x2="78.906" y2="222.668" stroke="#8c8c8c" stroke-width="0.3" stroke-dasharray="1.2,0.8"/>
<line x1="50.128" y1="222.668" x2="78.906" y2="222.668" stroke="#8c8c8c" stroke-width="0.3" stroke-dasharray="1.2,0.8"/>
<line x1="107.684" y1="280.223" x2="107.684" y2="251.446" stroke="#8c8c8c" stroke-width="0.3" stroke-dasharray="1.2,0.8"/>
<line x1="21.351" y1="222.668" x2="21.351" y2="193.891" stroke="#8c8c8c" stroke-width="0.3" stroke-dasharray="1.2,0.8"/>
<line x1="107.684" y1="280.223" x2="78.906" y2="280.223" stroke="#8c8c8c" stroke-width="0.3" stroke-dasharray="1.2,0.8"/>
<line x1="136.461" y1="222.668" x2="136.461" y2="251.446" stroke="#8c8c8c" stroke-width="0.3" stroke-dasharray="1.2,0.8"/>
<line x1="78.906" y1="280.223" x2="78.906" y2="251.446" stroke="#141414" stroke-width="0.4"/>
<line x1="21.351" y1="193.891" x2="50.129" y2="193.891" stroke="#141414" stroke-width="0.4"/>
<line x1="50.129" y1="193.891" x2="50.129" y2="222.668" stroke="#141414" stroke-width="0.4"/>
<line x1="136.461" y1="251.446" x2="107.684" y2="251.446" stroke="#141414" stroke-width="0.4"/>
<line x1="107.684" y1="222.668" x2="136.461" y2="222.668" stroke="#141414" stroke-width="0.4"/>
<line x1="50.129" y1="251.446" x2="21.351" y2="251.446" stroke="#141414" stroke-width="0.4"/>
<line x1="21.351" y1="251.446" x2="21.351" y2="222.668" stroke="#141414" stroke-width="0.4"/>
<line x1="78.906" y1="251.446" x2="74.589" y2="258.446" stroke="#141414" stroke-width="0.4"/>
<line x1="74.589" y1="258.446" x2="54.445" y2="258.446" stroke="#141414" stroke-width="0.4"/>
<line x1="54.445" y1="258.446" x2="50.128" y2="251.446" stroke="#141414" stroke-width="0.4"/>
<line x1="78.906" y1="222.668" x2="83.223" y2="215.668" stroke="#141414" stroke-width="0.4"/>
<line x1="83.223" y1="215.668" x2="103.367" y2="215.668" stroke="#141414" stroke-width="0.4"/>
<line x1="103.367" y1="215.668" x2="107.684" y2="222.668" stroke="#141414" stroke-width="0.4"/>
<line x1="78.906" y1="222.668" x2="74.589" y2="215.668" stroke="#141414" stroke-width="0.4"/>
<line x1="74.589" y1="215.668" x2="54.445" y2="215.668" stroke="#141414" stroke-width="0.4"/>
<line x1="54.445" y1="215.668" x2="50.128" y2="222.668" stroke="#141414" stroke-width="0.4"/>
<line x1="107.684" y1="251.446" x2="114.684" y2="255.762" stroke="#141414" stroke-width="0.4"/>
<line x1="114.684" y1="255.762" x2="114.684" y2="275.907" stroke="#141414" stroke-width="0.4"/>
<line x1="114.684" y1="275.907" x2="107.684" y2="280.223" stroke="#141414" stroke-width="0.4"/>
<line x1="21.351" y1="193.891" x2="14.351" y2="198.207" stroke="#141414" stroke-width="0.4"/>
<line x1="14.351" y1="198.207" x2="14.351" y2="218.352" stroke="#141414" stroke-width="0.4"/>
<line x1="14.351" y1="218.352" x2="21.351" y2="222.668" stroke="#141414" stroke-width="0.4"/>
<line x1="78.906" y1="280.223" x2="83.223" y2="287.223" stroke="#141414" stroke-width="0.4"/>
<line x1="83.223" y1="287.223" x2="103.367" y2="287.223" stroke="#141414" stroke-width="0.4"/>
<line x1="103.367" y1="287.223" x2="107.684" y2="280.223" stroke="#141414" stroke-width="0.4"/>
<line x1="136.461" y1="251.446" x2="143.461" y2="247.129" stroke="#141414" stroke-width="0.4"/>
<line x1="143.461" y1="247.129" x2="143.461" y2="226.985" stroke="#141414" stroke-width="0.4"/>
<line x1="143.461" y1="226.985" x2="136.461" y2="222.668" stroke="#141414" stroke-width="0.4"/>
<circle cx="64.517" cy="254.946" r="2.23" fill="#99d9fa" stroke="#464646" stroke-width="0.2"/>
<text x="64.517" y="255.71" font-size="2.19" text-anchor="middle" fill="#141414">123</text>
<circle cx="93.295" cy="219.168" r="2.23" fill="#ffe082" stroke="#464646" stroke-width="0.2"/>
<text x="93.295" y="219.93" font-size="2.19" text-anchor="middle" fill="#141414">124</text>
<circle cx="64.517" cy="219.168" r="2.23" fill="#ffe082" stroke="#464646" stroke-width="0.2"/>
<text x="64.517" y="219.93" font-size="2.19" text-anchor="middle" fill="#141414">125</text>
<circle cx="111.184" cy="265.835" r="2.23" fill="#ffe082" stroke="#464646" stroke-width="0.2"/>
<text x="111.184" y="266.60" font-size="2.19" text-anchor="middle" fill="#141414">126</text>
<circle cx="17.851" cy="208.279" r="2.23" fill="#ffe082" stroke="#464646" stroke-width="0.2"/>
<text x="17.851" y="209.04" font-size="2.19" text-anchor="middle" fill="#141414">127</text>
<circle cx="93.295" cy="283.723" r="2.23" fill="#ffe082" stroke="#464646" stroke-width="0.2"/>
<text x="93.295" y="284.49" font-size="2.19" text-anchor="middle" fill="#141414">128</text>
<circle cx="139.961" cy="237.057" r="2.23" fill="#ffe082" stroke="#464646" stroke-width="0.2"/>
<text x="139.961" y="237.82" font-size="2.19" text-anchor="middle" fill="#141414">129</text>
<circle cx="88.499" cy="232.261" r="4.60" fill="#eaf1fe" stroke="#2e78e6" stroke-width="0.3"/>
<text x="88.499" y="234.06" font-size="5.20" text-anchor="middle" fill="#14306e" font-weight="bold">17</text>
<text x="205.0" y="295.0" font-size="3.2" text-anchor="end" fill="#737373" font-family="sans-serif">7 / 11</text>
<g pointer-events="none"><text x="105.0" y="83.2" text-anchor="middle" font-family="sans-serif" font-size="12.4" fill="#9aa0a6" fill-opacity="0.3" transform="rotate(-28 105.0 83.2)">papercraft.kr</text><text x="105.0" y="148.5" text-anchor="middle" font-family="sans-serif" font-size="12.4" fill="#9aa0a6" fill-opacity="0.3" transform="rotate(-28 105.0 148.5)">papercraft.kr</text><text x="105.0" y="213.8" text-anchor="middle" font-family="sans-serif" font-size="12.4" fill="#9aa0a6" fill-opacity="0.3" transform="rotate(-28 105.0 213.8)">papercraft.kr</text></g></svg>
