<svg xmlns="http://www.w3.org/2000/svg" xmlns:xlink="http://www.w3.org/1999/xlink" width="210.00mm" height="297.00mm" viewBox="0 0 210.00 297.00">
<rect x="0" y="0" width="210.00" height="297.00" fill="#ffffff" stroke="#cccccc" stroke-width="0.2"/>
<polygon points="22.767,50.276 19.698,56.462 27.8,76.051 34.341,78.262" fill="rgb(216,216,216)"/>
<polygon points="34.341,78.262 27.809,84.181 21.089,116.714 24.742,124.737" fill="rgb(216,216,216)"/>
<polygon points="76.304,78.262 72.051,89.096 35.958,121.629 24.742,124.737" fill="rgb(216,216,216)"/>
<polygon points="154.426,124.771 162.52,111.607 176.549,45.165 174.467,29.853" fill="rgb(216,216,216)"/>
<polygon points="131.885,15.967 139.885,13.106 169.692,22.826 174.467,29.853" fill="rgb(216,216,216)"/>
<line x1="76.304" y1="78.262" x2="131.885" y2="15.967" stroke="#8c8c8c" stroke-width="0.3" stroke-dasharray="1.2,0.8"/>
<line x1="154.426" y1="124.771" x2="131.885" y2="15.967" stroke="#8c8c8c" stroke-width="0.3" stroke-dasharray="1.2,0.8"/>
<line x1="22.767" y1="50.276" x2="76.304" y2="78.262" stroke="#8c8c8c" stroke-width="0.3" stroke-dasharray="1.2,0.8"/>
<line x1="55.797" y1="27.705" x2="22.767" y2="50.276" stroke="#8c8c8c" stroke-width="0.3" stroke-dasharray="1.2,0.8"/>
<line x1="34.341" y1="78.262" x2="76.304" y2="78.262" stroke="#8c8c8c" stroke-width="0.3" stroke-dasharray="1.2,0.8"/>
<line x1="55.797" y1="27.705" x2="76.304" y2="78.262" stroke="#8c8c8c" stroke-width="0.3" stroke-dasharray="1.2,0.8"/>
<line x1="91.963" y1="113.072" x2="131.885" y2="15.967" stroke="#8c8c8c" stroke-width="0.3" stroke-dasharray="1.2,0.8"/>
<line x1="34.341" y1="78.262" x2="22.767" y2="50.276" stroke="#8c8c8c" stroke-width="0.3" stroke-dasharray="1.2,0.8"/>
<line x1="24.742" y1="124.737" x2="34.341" y2="78.262" stroke="#8c8c8c" stroke-width="0.3" stroke-dasharray="1.2,0.8"/>
<line x1="24.742" y1="124.737" x2="76.304" y2="78.262" stroke="#8c8c8c" stroke-width="0.3" stroke-dasharray="1.2,0.8"/>
<line x1="174.467" y1="29.853" x2="154.426" y2="124.771" stroke="#8c8c8c" stroke-width="0.3" stroke-dasharray="1.2,0.8"/>
<line x1="174.467" y1="29.853" x2="131.885" y2="15.967" stroke="#8c8c8c" stroke-width="0.3" stroke-dasharray="1.2,0.8"/>
<line x1="22.767" y1="50.276" x2="5.0" y2="17.671" stroke="#141414" stroke-width="0.4"/>
<line x1="5.0" y1="17.671" x2="55.797" y2="27.705" stroke="#141414" stroke-width="0.4"/>
<line x1="91.963" y1="113.072" x2="76.304" y2="78.262" stroke="#141414" stroke-width="0.4"/>
<line x1="55.797" y1="27.705" x2="131.885" y2="15.967" stroke="#141414" stroke-width="0.4"/>
<line x1="154.426" y1="124.771" x2="91.963" y2="113.072" stroke="#141414" stroke-width="0.4"/>
<line x1="22.767" y1="50.276" x2="19.698" y2="56.462" stroke="#141414" stroke-width="0.4"/>
<line x1="19.698" y1="56.462" x2="27.8" y2="76.051" stroke="#141414" stroke-width="0.4"/>
<line x1="27.8" y1="76.051" x2="34.341" y2="78.262" stroke="#141414" stroke-width="0.4"/>
<line x1="34.341" y1="78.262" x2="27.809" y2="84.181" stroke="#141414" stroke-width="0.4"/>
<line x1="27.809" y1="84.181" x2="21.089" y2="116.714" stroke="#141414" stroke-width="0.4"/>
<line x1="21.089" y1="116.714" x2="24.742" y2="124.737" stroke="#141414" stroke-width="0.4"/>
<line x1="76.304" y1="78.262" x2="72.051" y2="89.096" stroke="#141414" stroke-width="0.4"/>
<line x1="72.051" y1="89.096" x2="35.958" y2="121.629" stroke="#141414" stroke-width="0.4"/>
<line x1="35.958" y1="121.629" x2="24.742" y2="124.737" stroke="#141414" stroke-width="0.4"/>
<line x1="154.426" y1="124.771" x2="162.52" y2="111.607" stroke="#141414" stroke-width="0.4"/>
<line x1="162.52" y1="111.607" x2="176.549" y2="45.165" stroke="#141414" stroke-width="0.4"/>
<line x1="176.549" y1="45.165" x2="174.467" y2="29.853" stroke="#141414" stroke-width="0.4"/>
<line x1="131.885" y1="15.967" x2="139.885" y2="13.106" stroke="#141414" stroke-width="0.4"/>
<line x1="139.885" y1="13.106" x2="169.692" y2="22.826" stroke="#141414" stroke-width="0.4"/>
<line x1="169.692" y1="22.826" x2="174.467" y2="29.853" stroke="#141414" stroke-width="0.4"/>
<circle cx="26.151" cy="65.263" r="2.29" fill="#ffe082" stroke="#464646" stroke-width="0.2"/>
<text x="26.151" y="66.05" font-size="2.24" text-anchor="middle" fill="#141414">95</text>
<circle cx="26.995" cy="100.974" r="2.29" fill="#ffe082" stroke="#464646" stroke-width="0.2"/>
<text x="26.995" y="101.76" font-size="2.24" text-anchor="middle" fill="#141414">102</text>
<circle cx="52.264" cy="103.431" r="2.29" fill="#ffe082" stroke="#464646" stroke-width="0.2"/>
<text x="52.264" y="104.22" font-size="2.24" text-anchor="middle" fill="#141414">110</text>
<circle cx="166.99" cy="77.849" r="2.29" fill="#ffe082" stroke="#464646" stroke-width="0.2"/>
<text x="166.99" y="78.63" font-size="2.24" text-anchor="middle" fill="#141414">118</text>
<circle cx="153.982" cy="20.438" r="2.29" fill="#ffe082" stroke="#464646" stroke-width="0.2"/>
<text x="153.982" y="21.22" font-size="2.24" text-anchor="middle" fill="#141414">119</text>
<circle cx="126.091" cy="84.603" r="4.60" fill="#eaf1fe" stroke="#2e78e6" stroke-width="0.3"/>
<text x="126.091" y="86.40" font-size="5.20" text-anchor="middle" fill="#14306e" font-weight="bold">29</text>
<polygon points="5.0,123.723 12.633,124.97 29.258,145.887 28.75,153.604" fill="rgb(216,216,216)"/>
<polygon points="28.75,153.604 38.282,148.404 82.766,148.404 92.299,153.604" fill="rgb(216,216,216)"/>
<line x1="17.428" y1="179.952" x2="28.75" y2="153.604" stroke="#8c8c8c" stroke-width="0.3" stroke-dasharray="1.2,0.8"/>
<line x1="28.75" y1="153.604" x2="5.0" y2="123.723" stroke="#8c8c8c" stroke-width="0.3" stroke-dasharray="1.2,0.8"/>
<line x1="92.299" y1="153.604" x2="28.75" y2="153.604" stroke="#8c8c8c" stroke-width="0.3" stroke-dasharray="1.2,0.8"/>
<line x1="17.428" y1="179.952" x2="5.0" y2="123.723" stroke="#141414" stroke-width="0.4"/>
<line x1="92.299" y1="153.604" x2="17.428" y2="179.952" stroke="#141414" stroke-width="0.4"/>
<line x1="5.0" y1="123.723" x2="12.633" y2="124.97" stroke="#141414" stroke-width="0.4"/>
<line x1="12.633" y1="124.97" x2="29.258" y2="145.887" stroke="#141414" stroke-width="0.4"/>
<line x1="29.258" y1="145.887" x2="28.75" y2="153.604" stroke="#141414" stroke-width="0.4"/>
<line x1="28.75" y1="153.604" x2="38.282" y2="148.404" stroke="#141414" stroke-width="0.4"/>
<line x1="38.282" y1="148.404" x2="82.766" y2="148.404" stroke="#141414" stroke-width="0.4"/>
<line x1="82.766" y1="148.404" x2="92.299" y2="153.604" stroke="#141414" stroke-width="0.4"/>
<circle cx="18.91" cy="137.046" r="2.29" fill="#ffe082" stroke="#464646" stroke-width="0.2"/>
<text x="18.91" y="137.83" font-size="2.24" text-anchor="middle" fill="#141414">111</text>
<circle cx="60.524" cy="151.004" r="2.29" fill="#ffe082" stroke="#464646" stroke-width="0.2"/>
<text x="60.524" y="151.79" font-size="2.24" text-anchor="middle" fill="#141414">114</text>
<circle cx="46.159" cy="162.387" r="4.60" fill="#eaf1fe" stroke="#2e78e6" stroke-width="0.3"/>
<text x="46.159" y="164.19" font-size="5.20" text-anchor="middle" fill="#14306e" font-weight="bold">30</text>
<line x1="129.61" y1="145.659" x2="95.299" y2="119.665" stroke="#141414" stroke-width="0.4"/>
<line x1="95.299" y1="119.665" x2="192.309" y2="119.665" stroke="#141414" stroke-width="0.4"/>
<line x1="192.309" y1="119.665" x2="129.61" y2="145.659" stroke="#141414" stroke-width="0.4"/>
<circle cx="139.073" cy="128.329" r="4.60" fill="#eaf1fe" stroke="#2e78e6" stroke-width="0.3"/>
<text x="139.073" y="130.13" font-size="5.20" text-anchor="middle" fill="#14306e" font-weight="bold">31</text>
<text x="205.0" y="295.0" font-size="3.2" text-anchor="end" fill="#737373" font-family="sans-serif">17 / 17</text>
<g pointer-events="none"><text x="105.0" y="83.2" text-anchor="middle" font-family="sans-serif" font-size="12.4" fill="#9aa0a6" fill-opacity="0.3" transform="rotate(-28 105.0 83.2)">papercraft.kr</text><text x="105.0" y="148.5" text-anchor="middle" font-family="sans-serif" font-size="12.4" fill="#9aa0a6" fill-opacity="0.3" transform="rotate(-28 105.0 148.5)">papercraft.kr</text><text x="105.0" y="213.8" text-anchor="middle" font-family="sans-serif" font-size="12.4" fill="#9aa0a6" fill-opacity="0.3" transform="rotate(-28 105.0 213.8)">papercraft.kr</text></g></svg>
