<svg xmlns="http://www.w3.org/2000/svg" xmlns:xlink="http://www.w3.org/1999/xlink" width="210.00mm" height="297.00mm" viewBox="0 0 210.00 297.00">
<rect x="0" y="0" width="210.00" height="297.00" fill="#ffffff" stroke="#cccccc" stroke-width="0.2"/>
<polygon points="109.65,56.969 105.997,64.049 79.872,74.581 72.33,72.015" fill="rgb(216,216,216)"/>
<polygon points="109.65,56.969 107.75,47.651 81.626,21.23 72.33,19.224" fill="rgb(216,216,216)"/>
<polygon points="108.008,108.603 108.649,119.134 89.837,157.62 81.135,163.584" fill="rgb(216,216,216)"/>
<polygon points="72.33,19.224 60.928,16.802 13.797,28.997 5.0,36.644" fill="rgb(216,216,216)"/>
<line x1="72.33" y1="72.015" x2="72.33" y2="19.224" stroke="#8c8c8c" stroke-width="0.3" stroke-dasharray="1.2,0.8"/>
<line x1="72.33" y1="72.015" x2="19.005" y2="91.006" stroke="#8c8c8c" stroke-width="0.3" stroke-dasharray="1.2,0.8"/>
<line x1="5.0" y1="36.644" x2="72.33" y2="72.015" stroke="#8c8c8c" stroke-width="0.3" stroke-dasharray="1.2,0.8"/>
<line x1="81.135" y1="163.584" x2="72.021" y2="97.538" stroke="#8c8c8c" stroke-width="0.3" stroke-dasharray="1.2,0.8"/>
<line x1="72.021" y1="97.538" x2="19.005" y2="91.006" stroke="#8c8c8c" stroke-width="0.3" stroke-dasharray="1.2,0.8"/>
<line x1="81.135" y1="163.584" x2="28.577" y2="188.163" stroke="#8c8c8c" stroke-width="0.3" stroke-dasharray="1.2,0.8"/>
<line x1="81.135" y1="163.584" x2="19.005" y2="91.006" stroke="#8c8c8c" stroke-width="0.3" stroke-dasharray="1.2,0.8"/>
<line x1="72.33" y1="72.015" x2="109.65" y2="56.969" stroke="#8c8c8c" stroke-width="0.3" stroke-dasharray="1.2,0.8"/>
<line x1="72.33" y1="19.224" x2="109.65" y2="56.969" stroke="#8c8c8c" stroke-width="0.3" stroke-dasharray="1.2,0.8"/>
<line x1="81.135" y1="163.584" x2="108.008" y2="108.603" stroke="#8c8c8c" stroke-width="0.3" stroke-dasharray="1.2,0.8"/>
<line x1="5.0" y1="36.644" x2="72.33" y2="19.224" stroke="#8c8c8c" stroke-width="0.3" stroke-dasharray="1.2,0.8"/>
<line x1="72.021" y1="97.538" x2="108.008" y2="108.603" stroke="#141414" stroke-width="0.4"/>
<line x1="72.33" y1="72.015" x2="72.021" y2="97.538" stroke="#141414" stroke-width="0.4"/>
<line x1="81.135" y1="163.584" x2="89.013" y2="192.376" stroke="#141414" stroke-width="0.4"/>
<line x1="89.013" y1="192.376" x2="28.577" y2="188.163" stroke="#141414" stroke-width="0.4"/>
<line x1="28.577" y1="188.163" x2="19.005" y2="91.006" stroke="#141414" stroke-width="0.4"/>
<line x1="19.005" y1="91.006" x2="5.0" y2="36.644" stroke="#141414" stroke-width="0.4"/>
<line x1="109.65" y1="56.969" x2="105.997" y2="64.049" stroke="#141414" stroke-width="0.4"/>
<line x1="105.997" y1="64.049" x2="79.872" y2="74.581" stroke="#141414" stroke-width="0.4"/>
<line x1="79.872" y1="74.581" x2="72.33" y2="72.015" stroke="#141414" stroke-width="0.4"/>
<line x1="109.65" y1="56.969" x2="107.75" y2="47.651" stroke="#141414" stroke-width="0.4"/>
<line x1="107.75" y1="47.651" x2="81.626" y2="21.23" stroke="#141414" stroke-width="0.4"/>
<line x1="81.626" y1="21.23" x2="72.33" y2="19.224" stroke="#141414" stroke-width="0.4"/>
<line x1="108.008" y1="108.603" x2="108.649" y2="119.134" stroke="#141414" stroke-width="0.4"/>
<line x1="108.649" y1="119.134" x2="89.837" y2="157.62" stroke="#141414" stroke-width="0.4"/>
<line x1="89.837" y1="157.62" x2="81.135" y2="163.584" stroke="#141414" stroke-width="0.4"/>
<line x1="72.33" y1="19.224" x2="60.928" y2="16.802" stroke="#141414" stroke-width="0.4"/>
<line x1="60.928" y1="16.802" x2="13.797" y2="28.997" stroke="#141414" stroke-width="0.4"/>
<line x1="13.797" y1="28.997" x2="5.0" y2="36.644" stroke="#141414" stroke-width="0.4"/>
<circle cx="91.962" cy="66.904" r="2.29" fill="#ffe082" stroke="#464646" stroke-width="0.2"/>
<text x="91.962" y="67.69" font-size="2.24" text-anchor="middle" fill="#141414">137</text>
<circle cx="92.839" cy="36.268" r="2.29" fill="#ffe082" stroke="#464646" stroke-width="0.2"/>
<text x="92.839" y="37.05" font-size="2.24" text-anchor="middle" fill="#141414">138</text>
<circle cx="96.907" cy="137.235" r="2.29" fill="#ffe082" stroke="#464646" stroke-width="0.2"/>
<text x="96.907" y="138.02" font-size="2.24" text-anchor="middle" fill="#141414">141</text>
<circle cx="38.014" cy="25.417" r="2.29" fill="#ffe082" stroke="#464646" stroke-width="0.2"/>
<text x="38.014" y="26.20" font-size="2.24" text-anchor="middle" fill="#141414">157</text>
<circle cx="57.325" cy="186.674" r="4.6" fill="#eaf1fe" stroke="#2e78e6" stroke-width="0.3"/>
<text x="57.325" y="188.47400000000002" font-size="5.2" text-anchor="middle" fill="#14306e" font-weight="bold">37</text>
<g pointer-events="none"><text x="105.0" y="89.1" text-anchor="middle" font-family="sans-serif" font-size="21.2" fill="#9aa0a6" fill-opacity="0.33" transform="rotate(-28 105.0 89.1)">papercraft.kr 미리보기</text><text x="105.0" y="163.4" text-anchor="middle" font-family="sans-serif" font-size="21.2" fill="#9aa0a6" fill-opacity="0.33" transform="rotate(-28 105.0 163.4)">papercraft.kr 미리보기</text><text x="105.0" y="237.6" text-anchor="middle" font-family="sans-serif" font-size="21.2" fill="#9aa0a6" fill-opacity="0.33" transform="rotate(-28 105.0 237.6)">papercraft.kr 미리보기</text></g></svg>
