<svg xmlns="http://www.w3.org/2000/svg" xmlns:xlink="http://www.w3.org/1999/xlink" width="210.00mm" height="297.00mm" viewBox="0 0 210.00 297.00">
<rect x="0" y="0" width="210.00" height="297.00" fill="#ffffff" stroke="#cccccc" stroke-width="0.2"/>
<polygon points="24.32,13.86 18.169,19.325 13.417,48.699 17.532,55.824" fill="rgb(216,216,216)"/>
<polygon points="24.32,13.86 32.573,12.469 59.379,27.231 62.615,34.949" fill="rgb(216,216,216)"/>
<polygon points="17.532,55.824 14.242,63.664 22.336,93.995 29.095,99.154" fill="rgb(216,216,216)"/>
<polygon points="62.615,34.949 65.329,43.134 55.013,73.531 47.878,78.373" fill="rgb(216,216,216)"/>
<polygon points="47.878,78.373 64.376,86.93 124.613,144.419 133.93,160.5" fill="rgb(216,216,216)"/>
<polygon points="29.095,99.154 39.167,116.103 103.022,177.74 120.317,187.206" fill="rgb(216,216,216)"/>
<polygon points="120.317,187.206 117.974,196.082 129.887,229.313 137.335,234.679" fill="rgb(216,216,216)"/>
<polygon points="137.335,234.679 144.751,238.534 174.728,232.702 180.159,226.348" fill="rgb(216,216,216)"/>
<polygon points="133.93,160.5 141.849,160.648 162.533,179.343 163.478,187.206" fill="rgb(216,216,216)"/>
<polygon points="163.478,187.206 170.764,191.039 182.44,218.438 180.159,226.348" fill="rgb(216,216,216)"/>
<line x1="62.615" y1="34.949" x2="17.532" y2="55.824" stroke="#8c8c8c" stroke-width="0.3" stroke-dasharray="1.2,0.8"/>
<line x1="17.532" y1="55.824" x2="47.878" y2="78.373" stroke="#8c8c8c" stroke-width="0.3" stroke-dasharray="1.2,0.8"/>
<line x1="163.478" y1="187.206" x2="137.335" y2="234.679" stroke="#8c8c8c" stroke-width="0.3" stroke-dasharray="1.2,0.8"/>
<line x1="47.878" y1="78.373" x2="29.095" y2="99.154" stroke="#8c8c8c" stroke-width="0.3" stroke-dasharray="1.2,0.8"/>
<line x1="29.095" y1="99.154" x2="133.93" y2="160.5" stroke="#8c8c8c" stroke-width="0.3" stroke-dasharray="1.2,0.8"/>
<line x1="133.93" y1="160.5" x2="120.317" y2="187.206" stroke="#8c8c8c" stroke-width="0.3" stroke-dasharray="1.2,0.8"/>
<line x1="120.317" y1="187.206" x2="163.478" y2="187.206" stroke="#8c8c8c" stroke-width="0.3" stroke-dasharray="1.2,0.8"/>
<line x1="17.532" y1="55.824" x2="24.32" y2="13.86" stroke="#8c8c8c" stroke-width="0.3" stroke-dasharray="1.2,0.8"/>
<line x1="62.615" y1="34.949" x2="24.32" y2="13.86" stroke="#8c8c8c" stroke-width="0.3" stroke-dasharray="1.2,0.8"/>
<line x1="29.095" y1="99.154" x2="17.532" y2="55.824" stroke="#8c8c8c" stroke-width="0.3" stroke-dasharray="1.2,0.8"/>
<line x1="47.878" y1="78.373" x2="62.615" y2="34.949" stroke="#8c8c8c" stroke-width="0.3" stroke-dasharray="1.2,0.8"/>
<line x1="133.93" y1="160.5" x2="47.878" y2="78.373" stroke="#8c8c8c" stroke-width="0.3" stroke-dasharray="1.2,0.8"/>
<line x1="120.317" y1="187.206" x2="29.095" y2="99.154" stroke="#8c8c8c" stroke-width="0.3" stroke-dasharray="1.2,0.8"/>
<line x1="137.335" y1="234.679" x2="120.317" y2="187.206" stroke="#8c8c8c" stroke-width="0.3" stroke-dasharray="1.2,0.8"/>
<line x1="180.159" y1="226.348" x2="137.335" y2="234.679" stroke="#8c8c8c" stroke-width="0.3" stroke-dasharray="1.2,0.8"/>
<line x1="163.478" y1="187.206" x2="133.93" y2="160.5" stroke="#8c8c8c" stroke-width="0.3" stroke-dasharray="1.2,0.8"/>
<line x1="180.159" y1="226.348" x2="163.478" y2="187.206" stroke="#8c8c8c" stroke-width="0.3" stroke-dasharray="1.2,0.8"/>
<line x1="24.32" y1="13.86" x2="18.169" y2="19.325" stroke="#141414" stroke-width="0.4"/>
<line x1="18.169" y1="19.325" x2="13.417" y2="48.699" stroke="#141414" stroke-width="0.4"/>
<line x1="13.417" y1="48.699" x2="17.532" y2="55.824" stroke="#141414" stroke-width="0.4"/>
<line x1="24.32" y1="13.86" x2="32.573" y2="12.469" stroke="#141414" stroke-width="0.4"/>
<line x1="32.573" y1="12.469" x2="59.379" y2="27.231" stroke="#141414" stroke-width="0.4"/>
<line x1="59.379" y1="27.231" x2="62.615" y2="34.949" stroke="#141414" stroke-width="0.4"/>
<line x1="17.532" y1="55.824" x2="14.242" y2="63.664" stroke="#141414" stroke-width="0.4"/>
<line x1="14.242" y1="63.664" x2="22.336" y2="93.995" stroke="#141414" stroke-width="0.4"/>
<line x1="22.336" y1="93.995" x2="29.095" y2="99.154" stroke="#141414" stroke-width="0.4"/>
<line x1="62.615" y1="34.949" x2="65.329" y2="43.134" stroke="#141414" stroke-width="0.4"/>
<line x1="65.329" y1="43.134" x2="55.013" y2="73.531" stroke="#141414" stroke-width="0.4"/>
<line x1="55.013" y1="73.531" x2="47.878" y2="78.373" stroke="#141414" stroke-width="0.4"/>
<line x1="47.878" y1="78.373" x2="64.376" y2="86.93" stroke="#141414" stroke-width="0.4"/>
<line x1="64.376" y1="86.93" x2="124.613" y2="144.419" stroke="#141414" stroke-width="0.4"/>
<line x1="124.613" y1="144.419" x2="133.93" y2="160.5" stroke="#141414" stroke-width="0.4"/>
<line x1="29.095" y1="99.154" x2="39.167" y2="116.103" stroke="#141414" stroke-width="0.4"/>
<line x1="39.167" y1="116.103" x2="103.022" y2="177.74" stroke="#141414" stroke-width="0.4"/>
<line x1="103.022" y1="177.74" x2="120.317" y2="187.206" stroke="#141414" stroke-width="0.4"/>
<line x1="120.317" y1="187.206" x2="117.974" y2="196.082" stroke="#141414" stroke-width="0.4"/>
<line x1="117.974" y1="196.082" x2="129.887" y2="229.313" stroke="#141414" stroke-width="0.4"/>
<line x1="129.887" y1="229.313" x2="137.335" y2="234.679" stroke="#141414" stroke-width="0.4"/>
<line x1="137.335" y1="234.679" x2="144.751" y2="238.534" stroke="#141414" stroke-width="0.4"/>
<line x1="144.751" y1="238.534" x2="174.728" y2="232.702" stroke="#141414" stroke-width="0.4"/>
<line x1="174.728" y1="232.702" x2="180.159" y2="226.348" stroke="#141414" stroke-width="0.4"/>
<line x1="133.93" y1="160.5" x2="141.849" y2="160.648" stroke="#141414" stroke-width="0.4"/>
<line x1="141.849" y1="160.648" x2="162.533" y2="179.343" stroke="#141414" stroke-width="0.4"/>
<line x1="162.533" y1="179.343" x2="163.478" y2="187.206" stroke="#141414" stroke-width="0.4"/>
<line x1="163.478" y1="187.206" x2="170.764" y2="191.039" stroke="#141414" stroke-width="0.4"/>
<line x1="170.764" y1="191.039" x2="182.44" y2="218.438" stroke="#141414" stroke-width="0.4"/>
<line x1="182.44" y1="218.438" x2="180.159" y2="226.348" stroke="#141414" stroke-width="0.4"/>
<circle cx="18.359" cy="34.427" r="2.29" fill="#ffe082" stroke="#464646" stroke-width="0.2"/>
<text x="18.359" y="35.21" font-size="2.24" text-anchor="middle" fill="#141414">4</text>
<circle cx="44.722" cy="22.127" r="2.29" fill="#ffe082" stroke="#464646" stroke-width="0.2"/>
<text x="44.722" y="22.91" font-size="2.24" text-anchor="middle" fill="#141414">5</text>
<circle cx="20.801" cy="78.159" r="2.29" fill="#ffe082" stroke="#464646" stroke-width="0.2"/>
<text x="20.801" y="78.94" font-size="2.24" text-anchor="middle" fill="#141414">8</text>
<circle cx="57.709" cy="57.497" r="2.29" fill="#ffe082" stroke="#464646" stroke-width="0.2"/>
<text x="57.709" y="58.28" font-size="2.24" text-anchor="middle" fill="#141414">13</text>
<circle cx="92.699" cy="117.556" r="2.29" fill="#ffe082" stroke="#464646" stroke-width="0.2"/>
<text x="92.699" y="118.34" font-size="2.24" text-anchor="middle" fill="#141414">16</text>
<circle cx="72.9" cy="145.051" r="2.29" fill="#ffe082" stroke="#464646" stroke-width="0.2"/>
<text x="72.9" y="145.84" font-size="2.24" text-anchor="middle" fill="#141414">21</text>
<circle cx="126.378" cy="211.82" r="2.29" fill="#ffe082" stroke="#464646" stroke-width="0.2"/>
<text x="126.378" y="212.60" font-size="2.24" text-anchor="middle" fill="#141414">32</text>
<circle cx="159.243" cy="233.066" r="2.29" fill="#ffe082" stroke="#464646" stroke-width="0.2"/>
<text x="159.243" y="233.85" font-size="2.24" text-anchor="middle" fill="#141414">33</text>
<circle cx="150.448" cy="171.924" r="2.29" fill="#ffe082" stroke="#464646" stroke-width="0.2"/>
<text x="150.448" y="172.71" font-size="2.24" text-anchor="middle" fill="#141414">40</text>
<circle cx="174.21" cy="205.758" r="2.29" fill="#ffe082" stroke="#464646" stroke-width="0.2"/>
<text x="174.21" y="206.54" font-size="2.24" text-anchor="middle" fill="#141414">41</text>
<circle cx="70.301" cy="112.676" r="4.60" fill="#eaf1fe" stroke="#2e78e6" stroke-width="0.3"/>
<text x="70.301" y="114.48" font-size="5.20" text-anchor="middle" fill="#14306e" font-weight="bold">2</text>
<text x="205.0" y="295.0" font-size="3.2" text-anchor="end" fill="#737373" font-family="sans-serif">2 / 17</text>
<g pointer-events="none"><text x="105.0" y="83.2" text-anchor="middle" font-family="sans-serif" font-size="12.4" fill="#9aa0a6" fill-opacity="0.3" transform="rotate(-28 105.0 83.2)">papercraft.kr</text><text x="105.0" y="148.5" text-anchor="middle" font-family="sans-serif" font-size="12.4" fill="#9aa0a6" fill-opacity="0.3" transform="rotate(-28 105.0 148.5)">papercraft.kr</text><text x="105.0" y="213.8" text-anchor="middle" font-family="sans-serif" font-size="12.4" fill="#9aa0a6" fill-opacity="0.3" transform="rotate(-28 105.0 213.8)">papercraft.kr</text></g></svg>
