<svg xmlns="http://www.w3.org/2000/svg" xmlns:xlink="http://www.w3.org/1999/xlink" width="210.00mm" height="297.00mm" viewBox="0 0 210.00 297.00">
<rect x="0" y="0" width="210.00" height="297.00" fill="#ffffff" stroke="#cccccc" stroke-width="0.2"/>
<polygon points="18.788,89.299 16.361,81.201 27.645,52.212 34.909,47.886" fill="rgb(216,216,216)"/>
<polygon points="38.339,71.907 34.054,81.727 34.393,85.279 40.461,94.11" fill="rgb(216,216,216)"/>
<polygon points="29.608,22.149 41.183,17.188 94.695,18.302 106.054,23.74" fill="rgb(216,216,216)"/>
<polygon points="71.38,101.979 66.06,109.602 65.496,145.559 70.575,153.345" fill="rgb(216,216,216)"/>
<line x1="38.339" y1="71.907" x2="115.649" y2="71.907" stroke="#8c8c8c" stroke-width="0.3" stroke-dasharray="1.2,0.8"/>
<line x1="106.054" y1="23.74" x2="34.909" y2="47.886" stroke="#8c8c8c" stroke-width="0.3" stroke-dasharray="1.2,0.8"/>
<line x1="161.179" y1="97.421" x2="115.649" y2="71.907" stroke="#8c8c8c" stroke-width="0.3" stroke-dasharray="1.2,0.8"/>
<line x1="34.909" y1="47.886" x2="38.339" y2="71.907" stroke="#8c8c8c" stroke-width="0.3" stroke-dasharray="1.2,0.8"/>
<line x1="38.339" y1="71.907" x2="106.054" y2="23.74" stroke="#8c8c8c" stroke-width="0.3" stroke-dasharray="1.2,0.8"/>
<line x1="106.054" y1="23.74" x2="115.649" y2="71.907" stroke="#8c8c8c" stroke-width="0.3" stroke-dasharray="1.2,0.8"/>
<line x1="34.909" y1="47.886" x2="18.788" y2="89.299" stroke="#8c8c8c" stroke-width="0.3" stroke-dasharray="1.2,0.8"/>
<line x1="40.461" y1="94.11" x2="38.339" y2="71.907" stroke="#8c8c8c" stroke-width="0.3" stroke-dasharray="1.2,0.8"/>
<line x1="106.054" y1="23.74" x2="29.608" y2="22.149" stroke="#8c8c8c" stroke-width="0.3" stroke-dasharray="1.2,0.8"/>
<line x1="70.575" y1="153.345" x2="71.38" y2="101.979" stroke="#8c8c8c" stroke-width="0.3" stroke-dasharray="1.2,0.8"/>
<line x1="38.339" y1="71.907" x2="18.788" y2="89.299" stroke="#141414" stroke-width="0.4"/>
<line x1="34.909" y1="47.886" x2="29.608" y2="22.149" stroke="#141414" stroke-width="0.4"/>
<line x1="115.649" y1="71.907" x2="40.461" y2="94.11" stroke="#141414" stroke-width="0.4"/>
<line x1="71.38" y1="101.979" x2="115.649" y2="71.907" stroke="#141414" stroke-width="0.4"/>
<line x1="106.054" y1="23.74" x2="161.179" y2="97.421" stroke="#141414" stroke-width="0.4"/>
<line x1="161.179" y1="97.421" x2="70.575" y2="153.345" stroke="#141414" stroke-width="0.4"/>
<line x1="18.788" y1="89.299" x2="16.361" y2="81.201" stroke="#141414" stroke-width="0.4"/>
<line x1="16.361" y1="81.201" x2="27.645" y2="52.212" stroke="#141414" stroke-width="0.4"/>
<line x1="27.645" y1="52.212" x2="34.909" y2="47.886" stroke="#141414" stroke-width="0.4"/>
<line x1="38.339" y1="71.907" x2="34.054" y2="81.727" stroke="#141414" stroke-width="0.4"/>
<line x1="34.054" y1="81.727" x2="34.393" y2="85.279" stroke="#141414" stroke-width="0.4"/>
<line x1="34.393" y1="85.279" x2="40.461" y2="94.11" stroke="#141414" stroke-width="0.4"/>
<line x1="29.608" y1="22.149" x2="41.183" y2="17.188" stroke="#141414" stroke-width="0.4"/>
<line x1="41.183" y1="17.188" x2="94.695" y2="18.302" stroke="#141414" stroke-width="0.4"/>
<line x1="94.695" y1="18.302" x2="106.054" y2="23.74" stroke="#141414" stroke-width="0.4"/>
<line x1="71.38" y1="101.979" x2="66.06" y2="109.602" stroke="#141414" stroke-width="0.4"/>
<line x1="66.06" y1="109.602" x2="65.496" y2="145.559" stroke="#141414" stroke-width="0.4"/>
<line x1="65.496" y1="145.559" x2="70.575" y2="153.345" stroke="#141414" stroke-width="0.4"/>
<circle cx="24.426" cy="67.65" r="2.29" fill="#ffe082" stroke="#464646" stroke-width="0.2"/>
<text x="24.426" y="68.43" font-size="2.24" text-anchor="middle" fill="#141414">14</text>
<circle cx="36.812" cy="83.256" r="2.29" fill="#ffe082" stroke="#464646" stroke-width="0.2"/>
<text x="36.812" y="84.04" font-size="2.24" text-anchor="middle" fill="#141414">16</text>
<circle cx="67.885" cy="20.345" r="2.29" fill="#ffe082" stroke="#464646" stroke-width="0.2"/>
<text x="67.885" y="21.13" font-size="2.24" text-anchor="middle" fill="#141414">20</text>
<circle cx="68.378" cy="127.621" r="2.29" fill="#ffe082" stroke="#464646" stroke-width="0.2"/>
<text x="68.378" y="128.41" font-size="2.24" text-anchor="middle" fill="#141414">24</text>
<circle cx="77.409" cy="147.256" r="4.6" fill="#eaf1fe" stroke="#2e78e6" stroke-width="0.3"/>
<text x="77.409" y="149.056" font-size="5.2" text-anchor="middle" fill="#14306e" font-weight="bold">6</text>
<g pointer-events="none"><text x="105.0" y="89.1" text-anchor="middle" font-family="sans-serif" font-size="21.2" fill="#9aa0a6" fill-opacity="0.33" transform="rotate(-28 105.0 89.1)">papercraft.kr 미리보기</text><text x="105.0" y="163.4" text-anchor="middle" font-family="sans-serif" font-size="21.2" fill="#9aa0a6" fill-opacity="0.33" transform="rotate(-28 105.0 163.4)">papercraft.kr 미리보기</text><text x="105.0" y="237.6" text-anchor="middle" font-family="sans-serif" font-size="21.2" fill="#9aa0a6" fill-opacity="0.33" transform="rotate(-28 105.0 237.6)">papercraft.kr 미리보기</text></g></svg>
