<svg xmlns="http://www.w3.org/2000/svg" xmlns:xlink="http://www.w3.org/1999/xlink" width="210.00mm" height="297.00mm" viewBox="0 0 210.00 297.00">
<rect x="0" y="0" width="210.00" height="297.00" fill="#ffffff" stroke="#cccccc" stroke-width="0.2"/>
<polygon points="101.045,132.042 103.758,123.89 125.987,117.082 132.8,122.316" fill="rgb(216,216,216)"/>
<polygon points="47.988,132.042 39.887,126.361 38.281,117.178 43.971,109.084" fill="rgb(216,216,216)"/>
<polygon points="105.937,169.516 97.805,176.308 60.696,175.351 52.924,168.148" fill="rgb(216,216,216)"/>
<polygon points="105.937,169.516 107.385,177.265 123.584,182.152 129.076,176.497" fill="rgb(216,216,216)"/>
<polygon points="21.344,9.703 15.739,16.081 21.251,37.81 29.217,40.746" fill="rgb(216,216,216)"/>
<polygon points="129.076,176.497 136.038,180.196 149.958,170.579 148.962,162.759" fill="rgb(216,216,216)"/>
<polygon points="29.217,40.746 23.195,45.741 26.901,61.629 34.512,63.443" fill="rgb(216,216,216)"/>
<polygon points="148.962,162.759 156.194,159.622 157.354,142.743 150.619,138.646" fill="rgb(216,216,216)"/>
<polygon points="34.512,63.443 28.407,68.337 31.851,84.285 39.431,86.224" fill="rgb(216,216,216)"/>
<polygon points="150.619,138.646 152.676,131.036 140.202,119.605 132.8,122.316" fill="rgb(216,216,216)"/>
<polygon points="39.431,86.224 33.246,91.017 36.424,107.019 43.971,109.084" fill="rgb(216,216,216)"/>
<polygon points="129.076,176.497 136.038,180.196 149.958,170.579 148.962,162.759" fill="#99d9fa"/>
<line x1="47.987" y1="132.042" x2="101.045" y2="132.042" stroke="#8c8c8c" stroke-width="0.3" stroke-dasharray="1.2,0.8"/>
<line x1="101.045" y1="132.042" x2="105.937" y2="169.516" stroke="#8c8c8c" stroke-width="0.3" stroke-dasharray="1.2,0.8"/>
<line x1="101.045" y1="132.042" x2="52.925" y2="168.148" stroke="#8c8c8c" stroke-width="0.3" stroke-dasharray="1.2,0.8"/>
<line x1="52.925" y1="168.148" x2="47.987" y2="132.042" stroke="#8c8c8c" stroke-width="0.3" stroke-dasharray="1.2,0.8"/>
<line x1="79.901" y1="28.479" x2="29.217" y2="40.746" stroke="#8c8c8c" stroke-width="0.3" stroke-dasharray="1.2,0.8"/>
<line x1="85.392" y1="52.017" x2="34.512" y2="63.443" stroke="#8c8c8c" stroke-width="0.3" stroke-dasharray="1.2,0.8"/>
<line x1="90.492" y1="75.642" x2="39.431" y2="86.225" stroke="#8c8c8c" stroke-width="0.3" stroke-dasharray="1.2,0.8"/>
<line x1="95.201" y1="99.349" x2="43.971" y2="109.084" stroke="#8c8c8c" stroke-width="0.3" stroke-dasharray="1.2,0.8"/>
<line x1="101.045" y1="132.042" x2="43.971" y2="109.084" stroke="#8c8c8c" stroke-width="0.3" stroke-dasharray="1.2,0.8"/>
<line x1="79.901" y1="28.479" x2="21.343" y2="9.703" stroke="#8c8c8c" stroke-width="0.3" stroke-dasharray="1.2,0.8"/>
<line x1="132.8" y1="122.316" x2="101.045" y2="132.042" stroke="#8c8c8c" stroke-width="0.3" stroke-dasharray="1.2,0.8"/>
<line x1="43.971" y1="109.084" x2="47.988" y2="132.042" stroke="#8c8c8c" stroke-width="0.3" stroke-dasharray="1.2,0.8"/>
<line x1="52.924" y1="168.148" x2="105.937" y2="169.516" stroke="#8c8c8c" stroke-width="0.3" stroke-dasharray="1.2,0.8"/>
<line x1="129.076" y1="176.497" x2="105.937" y2="169.516" stroke="#8c8c8c" stroke-width="0.3" stroke-dasharray="1.2,0.8"/>
<line x1="29.217" y1="40.746" x2="21.344" y2="9.703" stroke="#8c8c8c" stroke-width="0.3" stroke-dasharray="1.2,0.8"/>
<line x1="148.962" y1="162.759" x2="129.076" y2="176.497" stroke="#8c8c8c" stroke-width="0.3" stroke-dasharray="1.2,0.8"/>
<line x1="34.512" y1="63.443" x2="29.217" y2="40.746" stroke="#8c8c8c" stroke-width="0.3" stroke-dasharray="1.2,0.8"/>
<line x1="150.619" y1="138.646" x2="148.962" y2="162.759" stroke="#8c8c8c" stroke-width="0.3" stroke-dasharray="1.2,0.8"/>
<line x1="39.431" y1="86.224" x2="34.512" y2="63.443" stroke="#8c8c8c" stroke-width="0.3" stroke-dasharray="1.2,0.8"/>
<line x1="132.8" y1="122.316" x2="150.619" y2="138.646" stroke="#8c8c8c" stroke-width="0.3" stroke-dasharray="1.2,0.8"/>
<line x1="43.971" y1="109.084" x2="39.431" y2="86.224" stroke="#8c8c8c" stroke-width="0.3" stroke-dasharray="1.2,0.8"/>
<line x1="95.201" y1="99.349" x2="101.045" y2="132.042" stroke="#141414" stroke-width="0.4"/>
<line x1="25.634" y1="125.446" x2="47.987" y2="132.042" stroke="#141414" stroke-width="0.4"/>
<line x1="21.343" y1="9.703" x2="74.164" y2="5.0" stroke="#141414" stroke-width="0.4"/>
<line x1="74.164" y1="5.0" x2="79.901" y2="28.479" stroke="#141414" stroke-width="0.4"/>
<line x1="52.925" y1="168.148" x2="22.361" y2="177.713" stroke="#141414" stroke-width="0.4"/>
<line x1="79.901" y1="28.479" x2="85.392" y2="52.017" stroke="#141414" stroke-width="0.4"/>
<line x1="22.361" y1="177.713" x2="5.083" y2="162.071" stroke="#141414" stroke-width="0.4"/>
<line x1="85.392" y1="52.017" x2="90.492" y2="75.642" stroke="#141414" stroke-width="0.4"/>
<line x1="5.083" y1="162.071" x2="6.54" y2="138.81" stroke="#141414" stroke-width="0.4"/>
<line x1="90.492" y1="75.642" x2="95.201" y2="99.349" stroke="#141414" stroke-width="0.4"/>
<line x1="6.54" y1="138.81" x2="25.634" y2="125.446" stroke="#141414" stroke-width="0.4"/>
<line x1="101.045" y1="132.042" x2="103.758" y2="123.89" stroke="#141414" stroke-width="0.4"/>
<line x1="103.758" y1="123.89" x2="125.987" y2="117.082" stroke="#141414" stroke-width="0.4"/>
<line x1="125.987" y1="117.082" x2="132.8" y2="122.316" stroke="#141414" stroke-width="0.4"/>
<line x1="47.988" y1="132.042" x2="39.887" y2="126.361" stroke="#141414" stroke-width="0.4"/>
<line x1="39.887" y1="126.361" x2="38.281" y2="117.178" stroke="#141414" stroke-width="0.4"/>
<line x1="38.281" y1="117.178" x2="43.971" y2="109.084" stroke="#141414" stroke-width="0.4"/>
<line x1="105.937" y1="169.516" x2="97.805" y2="176.308" stroke="#141414" stroke-width="0.4"/>
<line x1="97.805" y1="176.308" x2="60.696" y2="175.351" stroke="#141414" stroke-width="0.4"/>
<line x1="60.696" y1="175.351" x2="52.924" y2="168.148" stroke="#141414" stroke-width="0.4"/>
<line x1="105.937" y1="169.516" x2="107.385" y2="177.265" stroke="#141414" stroke-width="0.4"/>
<line x1="107.385" y1="177.265" x2="123.584" y2="182.152" stroke="#141414" stroke-width="0.4"/>
<line x1="123.584" y1="182.152" x2="129.076" y2="176.497" stroke="#141414" stroke-width="0.4"/>
<line x1="21.344" y1="9.703" x2="15.739" y2="16.081" stroke="#141414" stroke-width="0.4"/>
<line x1="15.739" y1="16.081" x2="21.251" y2="37.81" stroke="#141414" stroke-width="0.4"/>
<line x1="21.251" y1="37.81" x2="29.217" y2="40.746" stroke="#141414" stroke-width="0.4"/>
<line x1="129.076" y1="176.497" x2="136.038" y2="180.196" stroke="#141414" stroke-width="0.4"/>
<line x1="136.038" y1="180.196" x2="149.958" y2="170.579" stroke="#141414" stroke-width="0.4"/>
<line x1="149.958" y1="170.579" x2="148.962" y2="162.759" stroke="#141414" stroke-width="0.4"/>
<line x1="29.217" y1="40.746" x2="23.195" y2="45.741" stroke="#141414" stroke-width="0.4"/>
<line x1="23.195" y1="45.741" x2="26.901" y2="61.629" stroke="#141414" stroke-width="0.4"/>
<line x1="26.901" y1="61.629" x2="34.512" y2="63.443" stroke="#141414" stroke-width="0.4"/>
<line x1="148.962" y1="162.759" x2="156.194" y2="159.622" stroke="#141414" stroke-width="0.4"/>
<line x1="156.194" y1="159.622" x2="157.354" y2="142.743" stroke="#141414" stroke-width="0.4"/>
<line x1="157.354" y1="142.743" x2="150.619" y2="138.646" stroke="#141414" stroke-width="0.4"/>
<line x1="34.512" y1="63.443" x2="28.407" y2="68.337" stroke="#141414" stroke-width="0.4"/>
<line x1="28.407" y1="68.337" x2="31.851" y2="84.285" stroke="#141414" stroke-width="0.4"/>
<line x1="31.851" y1="84.285" x2="39.431" y2="86.224" stroke="#141414" stroke-width="0.4"/>
<line x1="150.619" y1="138.646" x2="152.676" y2="131.036" stroke="#141414" stroke-width="0.4"/>
<line x1="152.676" y1="131.036" x2="140.202" y2="119.605" stroke="#141414" stroke-width="0.4"/>
<line x1="140.202" y1="119.605" x2="132.8" y2="122.316" stroke="#141414" stroke-width="0.4"/>
<line x1="39.431" y1="86.224" x2="33.246" y2="91.017" stroke="#141414" stroke-width="0.4"/>
<line x1="33.246" y1="91.017" x2="36.424" y2="107.019" stroke="#141414" stroke-width="0.4"/>
<line x1="36.424" y1="107.019" x2="43.971" y2="109.084" stroke="#141414" stroke-width="0.4"/>
<circle cx="115.898" cy="123.833" r="3.07" fill="#ffe082" stroke="#464646" stroke-width="0.2"/>
<text x="115.898" y="124.89" font-size="3.01" text-anchor="middle" fill="#141414">12</text>
<circle cx="42.532" cy="121.166" r="3.07" fill="#ffe082" stroke="#464646" stroke-width="0.2"/>
<text x="42.532" y="122.22" font-size="3.01" text-anchor="middle" fill="#141414">13</text>
<circle cx="79.34" cy="172.331" r="3.07" fill="#ffe082" stroke="#464646" stroke-width="0.2"/>
<text x="79.34" y="173.38" font-size="3.01" text-anchor="middle" fill="#141414">14</text>
<circle cx="116.496" cy="176.357" r="3.07" fill="#ffe082" stroke="#464646" stroke-width="0.2"/>
<text x="116.496" y="177.41" font-size="3.01" text-anchor="middle" fill="#141414">15</text>
<circle cx="21.888" cy="26.085" r="3.07" fill="#ffe082" stroke="#464646" stroke-width="0.2"/>
<text x="21.888" y="27.14" font-size="3.01" text-anchor="middle" fill="#141414">16</text>
<circle cx="141.008" cy="172.508" r="3.07" fill="#99d9fa" stroke="#464646" stroke-width="0.2"/>
<text x="141.008" y="173.56" font-size="3.01" text-anchor="middle" fill="#141414">17</text>
<circle cx="28.456" cy="52.89" r="3.07" fill="#ffe082" stroke="#464646" stroke-width="0.2"/>
<text x="28.456" y="53.94" font-size="3.01" text-anchor="middle" fill="#141414">18</text>
<circle cx="153.282" cy="150.942" r="3.07" fill="#ffe082" stroke="#464646" stroke-width="0.2"/>
<text x="153.282" y="151.99" font-size="3.01" text-anchor="middle" fill="#141414">19</text>
<circle cx="33.55" cy="75.572" r="3.07" fill="#ffe082" stroke="#464646" stroke-width="0.2"/>
<text x="33.55" y="76.62" font-size="3.01" text-anchor="middle" fill="#141414">20</text>
<circle cx="144.075" cy="127.901" r="3.07" fill="#ffe082" stroke="#464646" stroke-width="0.2"/>
<text x="144.075" y="128.95" font-size="3.01" text-anchor="middle" fill="#141414">21</text>
<circle cx="38.268" cy="98.336" r="3.07" fill="#ffe082" stroke="#464646" stroke-width="0.2"/>
<text x="38.268" y="99.39" font-size="3.01" text-anchor="middle" fill="#141414">22</text>
<circle cx="81.136" cy="188.252" r="4.6" fill="#eaf1fe" stroke="#2e78e6" stroke-width="0.3"/>
<text x="81.136" y="190.05200000000002" font-size="5.2" text-anchor="middle" fill="#14306e" font-weight="bold">2</text>
<g pointer-events="none"><text x="105.0" y="83.2" text-anchor="middle" font-family="sans-serif" font-size="12.4" fill="#9aa0a6" fill-opacity="0.3" transform="rotate(-28 105.0 83.2)">papercraft.kr</text><text x="105.0" y="148.5" text-anchor="middle" font-family="sans-serif" font-size="12.4" fill="#9aa0a6" fill-opacity="0.3" transform="rotate(-28 105.0 148.5)">papercraft.kr</text><text x="105.0" y="213.8" text-anchor="middle" font-family="sans-serif" font-size="12.4" fill="#9aa0a6" fill-opacity="0.3" transform="rotate(-28 105.0 213.8)">papercraft.kr</text></g></svg>
