<svg xmlns="http://www.w3.org/2000/svg" xmlns:xlink="http://www.w3.org/1999/xlink" width="210.00mm" height="297.00mm" viewBox="0 0 210.00 297.00">
<rect x="0" y="0" width="210.00" height="297.00" fill="#ffffff" stroke="#cccccc" stroke-width="0.2"/>
<polygon points="97.944,123.256 100.4,115.233 121.106,109.125 127.523,114.53" fill="rgb(216,216,216)"/>
<polygon points="45.012,123.256 36.645,115.437 36.089,112.029 41.539,101.957" fill="rgb(216,216,216)"/>
<polygon points="102.126,158.098 94.012,164.891 56.99,163.935 49.237,156.733" fill="rgb(216,216,216)"/>
<polygon points="102.126,158.098 103.247,165.784 118.24,170.477 123.544,164.803" fill="rgb(216,216,216)"/>
<polygon points="21.689,9.694 15.925,15.658 20.788,35.837 28.635,38.522" fill="rgb(216,216,216)"/>
<polygon points="123.544,164.803 130.253,168.718 143.27,159.923 142.14,152.238" fill="rgb(216,216,216)"/>
<polygon points="28.635,38.522 22.497,43.191 25.753,57.943 33.286,59.595" fill="rgb(216,216,216)"/>
<polygon points="142.14,152.238 149.384,149.434 150.624,133.773 143.911,129.865" fill="rgb(216,216,216)"/>
<polygon points="33.286,59.595 27.072,64.162 30.083,78.965 37.588,80.742" fill="rgb(216,216,216)"/>
<polygon points="143.911,129.865 146.236,122.453 134.764,111.719 127.523,114.53" fill="rgb(216,216,216)"/>
<polygon points="37.588,80.742 31.299,85.206 34.064,100.056 41.539,101.957" fill="rgb(216,216,216)"/>
<polygon points="123.544,164.803 130.253,168.718 143.27,159.923 142.14,152.238" fill="#99d9fa"/>
<line x1="45.013" y1="123.256" x2="97.944" y2="123.256" stroke="#8c8c8c" stroke-width="0.3" stroke-dasharray="1.2,0.8"/>
<line x1="97.944" y1="123.256" x2="102.126" y2="158.097" stroke="#8c8c8c" stroke-width="0.3" stroke-dasharray="1.2,0.8"/>
<line x1="97.944" y1="123.256" x2="49.237" y2="156.732" stroke="#8c8c8c" stroke-width="0.3" stroke-dasharray="1.2,0.8"/>
<line x1="49.237" y1="156.732" x2="45.013" y2="123.256" stroke="#8c8c8c" stroke-width="0.3" stroke-dasharray="1.2,0.8"/>
<line x1="79.462" y1="26.862" x2="28.635" y2="38.522" stroke="#8c8c8c" stroke-width="0.3" stroke-dasharray="1.2,0.8"/>
<line x1="84.299" y1="48.778" x2="33.286" y2="59.594" stroke="#8c8c8c" stroke-width="0.3" stroke-dasharray="1.2,0.8"/>
<line x1="88.772" y1="70.771" x2="37.588" y2="80.742" stroke="#8c8c8c" stroke-width="0.3" stroke-dasharray="1.2,0.8"/>
<line x1="92.881" y1="92.834" x2="41.539" y2="101.957" stroke="#8c8c8c" stroke-width="0.3" stroke-dasharray="1.2,0.8"/>
<line x1="97.944" y1="123.256" x2="41.539" y2="101.957" stroke="#8c8c8c" stroke-width="0.3" stroke-dasharray="1.2,0.8"/>
<line x1="79.462" y1="26.862" x2="21.689" y2="9.694" stroke="#8c8c8c" stroke-width="0.3" stroke-dasharray="1.2,0.8"/>
<line x1="127.523" y1="114.53" x2="97.944" y2="123.256" stroke="#8c8c8c" stroke-width="0.3" stroke-dasharray="1.2,0.8"/>
<line x1="41.539" y1="101.957" x2="45.012" y2="123.256" stroke="#8c8c8c" stroke-width="0.3" stroke-dasharray="1.2,0.8"/>
<line x1="49.237" y1="156.733" x2="102.126" y2="158.098" stroke="#8c8c8c" stroke-width="0.3" stroke-dasharray="1.2,0.8"/>
<line x1="123.544" y1="164.803" x2="102.126" y2="158.098" stroke="#8c8c8c" stroke-width="0.3" stroke-dasharray="1.2,0.8"/>
<line x1="28.635" y1="38.522" x2="21.689" y2="9.694" stroke="#8c8c8c" stroke-width="0.3" stroke-dasharray="1.2,0.8"/>
<line x1="142.14" y1="152.238" x2="123.544" y2="164.803" stroke="#8c8c8c" stroke-width="0.3" stroke-dasharray="1.2,0.8"/>
<line x1="33.286" y1="59.595" x2="28.635" y2="38.522" stroke="#8c8c8c" stroke-width="0.3" stroke-dasharray="1.2,0.8"/>
<line x1="143.911" y1="129.865" x2="142.14" y2="152.238" stroke="#8c8c8c" stroke-width="0.3" stroke-dasharray="1.2,0.8"/>
<line x1="37.588" y1="80.742" x2="33.286" y2="59.595" stroke="#8c8c8c" stroke-width="0.3" stroke-dasharray="1.2,0.8"/>
<line x1="127.523" y1="114.53" x2="143.911" y2="129.865" stroke="#8c8c8c" stroke-width="0.3" stroke-dasharray="1.2,0.8"/>
<line x1="41.539" y1="101.957" x2="37.588" y2="80.742" stroke="#8c8c8c" stroke-width="0.3" stroke-dasharray="1.2,0.8"/>
<line x1="92.881" y1="92.834" x2="97.944" y2="123.256" stroke="#141414" stroke-width="0.4"/>
<line x1="24.379" y1="116.934" x2="45.013" y2="123.256" stroke="#141414" stroke-width="0.4"/>
<line x1="21.689" y1="9.694" x2="74.386" y2="5.0" stroke="#141414" stroke-width="0.4"/>
<line x1="74.386" y1="5.0" x2="79.462" y2="26.862" stroke="#141414" stroke-width="0.4"/>
<line x1="49.237" y1="156.732" x2="20.847" y2="165.295" stroke="#141414" stroke-width="0.4"/>
<line x1="79.462" y1="26.862" x2="84.299" y2="48.778" stroke="#141414" stroke-width="0.4"/>
<line x1="20.847" y1="165.295" x2="5.0" y2="150.647" stroke="#141414" stroke-width="0.4"/>
<line x1="84.299" y1="48.778" x2="88.772" y2="70.771" stroke="#141414" stroke-width="0.4"/>
<line x1="5.0" y1="150.647" x2="6.572" y2="129.125" stroke="#141414" stroke-width="0.4"/>
<line x1="88.772" y1="70.771" x2="92.881" y2="92.834" stroke="#141414" stroke-width="0.4"/>
<line x1="6.572" y1="129.125" x2="24.379" y2="116.934" stroke="#141414" stroke-width="0.4"/>
<line x1="97.944" y1="123.256" x2="100.4" y2="115.233" stroke="#141414" stroke-width="0.4"/>
<line x1="100.4" y1="115.233" x2="121.106" y2="109.125" stroke="#141414" stroke-width="0.4"/>
<line x1="121.106" y1="109.125" x2="127.523" y2="114.53" stroke="#141414" stroke-width="0.4"/>
<line x1="45.012" y1="123.256" x2="36.645" y2="115.437" stroke="#141414" stroke-width="0.4"/>
<line x1="36.645" y1="115.437" x2="36.089" y2="112.029" stroke="#141414" stroke-width="0.4"/>
<line x1="36.089" y1="112.029" x2="41.539" y2="101.957" stroke="#141414" stroke-width="0.4"/>
<line x1="102.126" y1="158.098" x2="94.012" y2="164.891" stroke="#141414" stroke-width="0.4"/>
<line x1="94.012" y1="164.891" x2="56.99" y2="163.935" stroke="#141414" stroke-width="0.4"/>
<line x1="56.99" y1="163.935" x2="49.237" y2="156.733" stroke="#141414" stroke-width="0.4"/>
<line x1="102.126" y1="158.098" x2="103.247" y2="165.784" stroke="#141414" stroke-width="0.4"/>
<line x1="103.247" y1="165.784" x2="118.24" y2="170.477" stroke="#141414" stroke-width="0.4"/>
<line x1="118.24" y1="170.477" x2="123.544" y2="164.803" stroke="#141414" stroke-width="0.4"/>
<line x1="21.689" y1="9.694" x2="15.925" y2="15.658" stroke="#141414" stroke-width="0.4"/>
<line x1="15.925" y1="15.658" x2="20.788" y2="35.837" stroke="#141414" stroke-width="0.4"/>
<line x1="20.788" y1="35.837" x2="28.635" y2="38.522" stroke="#141414" stroke-width="0.4"/>
<line x1="123.544" y1="164.803" x2="130.253" y2="168.718" stroke="#141414" stroke-width="0.4"/>
<line x1="130.253" y1="168.718" x2="143.27" y2="159.923" stroke="#141414" stroke-width="0.4"/>
<line x1="143.27" y1="159.923" x2="142.14" y2="152.238" stroke="#141414" stroke-width="0.4"/>
<line x1="28.635" y1="38.522" x2="22.497" y2="43.191" stroke="#141414" stroke-width="0.4"/>
<line x1="22.497" y1="43.191" x2="25.753" y2="57.943" stroke="#141414" stroke-width="0.4"/>
<line x1="25.753" y1="57.943" x2="33.286" y2="59.595" stroke="#141414" stroke-width="0.4"/>
<line x1="142.14" y1="152.238" x2="149.384" y2="149.434" stroke="#141414" stroke-width="0.4"/>
<line x1="149.384" y1="149.434" x2="150.624" y2="133.773" stroke="#141414" stroke-width="0.4"/>
<line x1="150.624" y1="133.773" x2="143.911" y2="129.865" stroke="#141414" stroke-width="0.4"/>
<line x1="33.286" y1="59.595" x2="27.072" y2="64.162" stroke="#141414" stroke-width="0.4"/>
<line x1="27.072" y1="64.162" x2="30.083" y2="78.965" stroke="#141414" stroke-width="0.4"/>
<line x1="30.083" y1="78.965" x2="37.588" y2="80.742" stroke="#141414" stroke-width="0.4"/>
<line x1="143.911" y1="129.865" x2="146.236" y2="122.453" stroke="#141414" stroke-width="0.4"/>
<line x1="146.236" y1="122.453" x2="134.764" y2="111.719" stroke="#141414" stroke-width="0.4"/>
<line x1="134.764" y1="111.719" x2="127.523" y2="114.53" stroke="#141414" stroke-width="0.4"/>
<line x1="37.588" y1="80.742" x2="31.299" y2="85.206" stroke="#141414" stroke-width="0.4"/>
<line x1="31.299" y1="85.206" x2="34.064" y2="100.056" stroke="#141414" stroke-width="0.4"/>
<line x1="34.064" y1="100.056" x2="41.539" y2="101.957" stroke="#141414" stroke-width="0.4"/>
<circle cx="111.743" cy="115.536" r="3.07" fill="#ffe082" stroke="#464646" stroke-width="0.2"/>
<text x="111.743" y="116.59" font-size="3.01" text-anchor="middle" fill="#141414">67</text>
<circle cx="39.821" cy="113.17" r="3.07" fill="#ffe082" stroke="#464646" stroke-width="0.2"/>
<text x="39.821" y="114.22" font-size="3.01" text-anchor="middle" fill="#141414">68</text>
<circle cx="75.591" cy="160.914" r="3.07" fill="#ffe082" stroke="#464646" stroke-width="0.2"/>
<text x="75.591" y="161.97" font-size="3.01" text-anchor="middle" fill="#141414">69</text>
<circle cx="111.789" cy="164.791" r="3.07" fill="#ffe082" stroke="#464646" stroke-width="0.2"/>
<text x="111.789" y="165.84" font-size="3.01" text-anchor="middle" fill="#141414">70</text>
<circle cx="21.759" cy="24.928" r="3.07" fill="#ffe082" stroke="#464646" stroke-width="0.2"/>
<text x="21.759" y="25.98" font-size="3.01" text-anchor="middle" fill="#141414">71</text>
<circle cx="134.802" cy="161.42" r="3.07" fill="#99d9fa" stroke="#464646" stroke-width="0.2"/>
<text x="134.802" y="162.47" font-size="3.01" text-anchor="middle" fill="#141414">72</text>
<circle cx="27.543" cy="49.813" r="3.07" fill="#ffe082" stroke="#464646" stroke-width="0.2"/>
<text x="27.543" y="50.87" font-size="3.01" text-anchor="middle" fill="#141414">73</text>
<circle cx="146.515" cy="141.327" r="3.07" fill="#ffe082" stroke="#464646" stroke-width="0.2"/>
<text x="146.515" y="142.38" font-size="3.01" text-anchor="middle" fill="#141414">74</text>
<circle cx="32.007" cy="70.866" r="3.07" fill="#ffe082" stroke="#464646" stroke-width="0.2"/>
<text x="32.007" y="71.92" font-size="3.01" text-anchor="middle" fill="#141414">75</text>
<circle cx="138.109" cy="119.642" r="3.07" fill="#ffe082" stroke="#464646" stroke-width="0.2"/>
<text x="138.109" y="120.69" font-size="3.01" text-anchor="middle" fill="#141414">76</text>
<circle cx="36.123" cy="91.99" r="3.07" fill="#ffe082" stroke="#464646" stroke-width="0.2"/>
<text x="36.123" y="93.04" font-size="3.01" text-anchor="middle" fill="#141414">77</text>
<circle cx="77.812" cy="176.577" r="4.6" fill="#eaf1fe" stroke="#2e78e6" stroke-width="0.3"/>
<text x="77.812" y="178.377" font-size="5.2" text-anchor="middle" fill="#14306e" font-weight="bold">7</text>
<text x="205.0" y="295.0" font-size="3.2" text-anchor="end" fill="#737373" font-family="sans-serif">7 / 14</text>
<g pointer-events="none"><text x="105.0" y="83.2" text-anchor="middle" font-family="sans-serif" font-size="12.4" fill="#9aa0a6" fill-opacity="0.3" transform="rotate(-28 105.0 83.2)">papercraft.kr</text><text x="105.0" y="148.5" text-anchor="middle" font-family="sans-serif" font-size="12.4" fill="#9aa0a6" fill-opacity="0.3" transform="rotate(-28 105.0 148.5)">papercraft.kr</text><text x="105.0" y="213.8" text-anchor="middle" font-family="sans-serif" font-size="12.4" fill="#9aa0a6" fill-opacity="0.3" transform="rotate(-28 105.0 213.8)">papercraft.kr</text></g></svg>
