<svg xmlns="http://www.w3.org/2000/svg" xmlns:xlink="http://www.w3.org/1999/xlink" width="210.00mm" height="297.00mm" viewBox="0 0 210.00 297.00">
<rect x="0" y="0" width="210.00" height="297.00" fill="#ffffff" stroke="#cccccc" stroke-width="0.2"/>
<polygon points="182.112,187.647 186.501,192.452 194.364,188.667 193.345,182.239" fill="rgb(216,216,216)"/>
<polygon points="182.112,187.647 177.722,192.452 169.858,188.664 170.879,182.236" fill="rgb(216,216,216)"/>
<polygon points="22.768,91.387 15.893,88.891 9.968,96.811 14.304,102.701" fill="rgb(216,216,216)"/>
<polygon points="22.768,91.387 18.49,85.454 24.493,77.592 31.343,80.155" fill="rgb(216,216,216)"/>
<polygon points="145.402,199.804 121.571,190.864 29.802,122.891 14.304,102.701" fill="rgb(216,216,216)"/>
<polygon points="193.345,182.239 199.839,181.803 201.781,173.294 196.12,170.084" fill="rgb(216,216,216)"/>
<polygon points="196.12,170.084 199.828,164.734 194.387,157.91 188.346,160.335" fill="rgb(216,216,216)"/>
<polygon points="66.814,36.155 57.637,36.238 56.19,37.975 57.773,47.015" fill="rgb(216,216,216)"/>
<polygon points="188.346,160.335 189.269,154.701 180.292,154.699 175.878,160.333" fill="rgb(216,216,216)"/>
<polygon points="57.773,47.015 51.008,44.235 44.758,51.901 48.844,57.967" fill="rgb(216,216,216)"/>
<polygon points="48.844,57.967 42.05,55.259 35.883,62.992 40.034,69.013" fill="rgb(216,216,216)"/>
<polygon points="168.105,170.08 163.129,176.236 163.906,179.64 170.879,182.236" fill="rgb(216,216,216)"/>
<polygon points="40.034,69.013 33.211,66.379 27.127,74.178 31.343,80.155" fill="rgb(216,216,216)"/>
<polygon points="40.034,69.013 33.211,66.379 27.127,74.178 31.343,80.155" fill="#99d9fa"/>
<line x1="22.768" y1="91.387" x2="152.869" y2="189.821" stroke="#8c8c8c" stroke-width="0.3" stroke-dasharray="1.2,0.8"/>
<line x1="66.814" y1="36.155" x2="75.96" y2="25.384" stroke="#8c8c8c" stroke-width="0.3" stroke-dasharray="1.2,0.8"/>
<line x1="191.734" y1="141.087" x2="66.814" y2="36.155" stroke="#8c8c8c" stroke-width="0.3" stroke-dasharray="1.2,0.8"/>
<line x1="183.756" y1="150.669" x2="57.773" y2="47.015" stroke="#8c8c8c" stroke-width="0.3" stroke-dasharray="1.2,0.8"/>
<line x1="175.878" y1="160.333" x2="48.844" y2="57.967" stroke="#8c8c8c" stroke-width="0.3" stroke-dasharray="1.2,0.8"/>
<line x1="168.105" y1="170.08" x2="175.878" y2="160.333" stroke="#8c8c8c" stroke-width="0.3" stroke-dasharray="1.2,0.8"/>
<line x1="168.105" y1="170.08" x2="40.034" y2="69.013" stroke="#8c8c8c" stroke-width="0.3" stroke-dasharray="1.2,0.8"/>
<line x1="160.436" y1="179.911" x2="31.343" y2="80.155" stroke="#8c8c8c" stroke-width="0.3" stroke-dasharray="1.2,0.8"/>
<line x1="193.345" y1="182.239" x2="182.112" y2="187.647" stroke="#8c8c8c" stroke-width="0.3" stroke-dasharray="1.2,0.8"/>
<line x1="170.879" y1="182.236" x2="182.112" y2="187.647" stroke="#8c8c8c" stroke-width="0.3" stroke-dasharray="1.2,0.8"/>
<line x1="14.304" y1="102.701" x2="22.768" y2="91.387" stroke="#8c8c8c" stroke-width="0.3" stroke-dasharray="1.2,0.8"/>
<line x1="31.343" y1="80.155" x2="22.768" y2="91.387" stroke="#8c8c8c" stroke-width="0.3" stroke-dasharray="1.2,0.8"/>
<line x1="14.304" y1="102.701" x2="145.402" y2="199.804" stroke="#8c8c8c" stroke-width="0.3" stroke-dasharray="1.2,0.8"/>
<line x1="196.12" y1="170.084" x2="193.345" y2="182.239" stroke="#8c8c8c" stroke-width="0.3" stroke-dasharray="1.2,0.8"/>
<line x1="188.346" y1="160.335" x2="196.12" y2="170.084" stroke="#8c8c8c" stroke-width="0.3" stroke-dasharray="1.2,0.8"/>
<line x1="57.773" y1="47.015" x2="66.814" y2="36.155" stroke="#8c8c8c" stroke-width="0.3" stroke-dasharray="1.2,0.8"/>
<line x1="175.878" y1="160.333" x2="188.346" y2="160.335" stroke="#8c8c8c" stroke-width="0.3" stroke-dasharray="1.2,0.8"/>
<line x1="48.844" y1="57.967" x2="57.773" y2="47.015" stroke="#8c8c8c" stroke-width="0.3" stroke-dasharray="1.2,0.8"/>
<line x1="40.034" y1="69.013" x2="48.844" y2="57.967" stroke="#8c8c8c" stroke-width="0.3" stroke-dasharray="1.2,0.8"/>
<line x1="170.879" y1="182.236" x2="168.105" y2="170.08" stroke="#8c8c8c" stroke-width="0.3" stroke-dasharray="1.2,0.8"/>
<line x1="31.343" y1="80.155" x2="40.034" y2="69.013" stroke="#8c8c8c" stroke-width="0.3" stroke-dasharray="1.2,0.8"/>
<line x1="152.869" y1="189.821" x2="145.401" y2="199.804" stroke="#141414" stroke-width="0.4"/>
<line x1="160.436" y1="179.911" x2="152.869" y2="189.821" stroke="#141414" stroke-width="0.4"/>
<line x1="73.24" y1="11.519" x2="75.96" y2="25.384" stroke="#141414" stroke-width="0.4"/>
<line x1="60.703" y1="5.0" x2="73.24" y2="11.519" stroke="#141414" stroke-width="0.4"/>
<line x1="75.96" y1="25.384" x2="199.804" y2="131.583" stroke="#141414" stroke-width="0.4"/>
<line x1="199.804" y1="131.583" x2="191.734" y2="141.087" stroke="#141414" stroke-width="0.4"/>
<line x1="191.734" y1="141.087" x2="183.756" y2="150.669" stroke="#141414" stroke-width="0.4"/>
<line x1="66.814" y1="36.155" x2="52.69" y2="35.72" stroke="#141414" stroke-width="0.4"/>
<line x1="183.756" y1="150.669" x2="175.878" y2="160.333" stroke="#141414" stroke-width="0.4"/>
<line x1="52.69" y1="35.72" x2="44.222" y2="24.408" stroke="#141414" stroke-width="0.4"/>
<line x1="44.222" y1="24.408" x2="47.788" y2="10.736" stroke="#141414" stroke-width="0.4"/>
<line x1="168.105" y1="170.08" x2="160.436" y2="179.911" stroke="#141414" stroke-width="0.4"/>
<line x1="47.788" y1="10.736" x2="60.703" y2="5.0" stroke="#141414" stroke-width="0.4"/>
<line x1="182.112" y1="187.647" x2="186.501" y2="192.452" stroke="#141414" stroke-width="0.4"/>
<line x1="186.501" y1="192.452" x2="194.364" y2="188.667" stroke="#141414" stroke-width="0.4"/>
<line x1="194.364" y1="188.667" x2="193.345" y2="182.239" stroke="#141414" stroke-width="0.4"/>
<line x1="182.112" y1="187.647" x2="177.722" y2="192.452" stroke="#141414" stroke-width="0.4"/>
<line x1="177.722" y1="192.452" x2="169.858" y2="188.664" stroke="#141414" stroke-width="0.4"/>
<line x1="169.858" y1="188.664" x2="170.879" y2="182.236" stroke="#141414" stroke-width="0.4"/>
<line x1="22.768" y1="91.387" x2="15.893" y2="88.891" stroke="#141414" stroke-width="0.4"/>
<line x1="15.893" y1="88.891" x2="9.968" y2="96.811" stroke="#141414" stroke-width="0.4"/>
<line x1="9.968" y1="96.811" x2="14.304" y2="102.701" stroke="#141414" stroke-width="0.4"/>
<line x1="22.768" y1="91.387" x2="18.49" y2="85.454" stroke="#141414" stroke-width="0.4"/>
<line x1="18.49" y1="85.454" x2="24.493" y2="77.592" stroke="#141414" stroke-width="0.4"/>
<line x1="24.493" y1="77.592" x2="31.343" y2="80.155" stroke="#141414" stroke-width="0.4"/>
<line x1="145.402" y1="199.804" x2="121.571" y2="190.864" stroke="#141414" stroke-width="0.4"/>
<line x1="121.571" y1="190.864" x2="29.802" y2="122.891" stroke="#141414" stroke-width="0.4"/>
<line x1="29.802" y1="122.891" x2="14.304" y2="102.701" stroke="#141414" stroke-width="0.4"/>
<line x1="193.345" y1="182.239" x2="199.839" y2="181.803" stroke="#141414" stroke-width="0.4"/>
<line x1="199.839" y1="181.803" x2="201.781" y2="173.294" stroke="#141414" stroke-width="0.4"/>
<line x1="201.781" y1="173.294" x2="196.12" y2="170.084" stroke="#141414" stroke-width="0.4"/>
<line x1="196.12" y1="170.084" x2="199.828" y2="164.734" stroke="#141414" stroke-width="0.4"/>
<line x1="199.828" y1="164.734" x2="194.387" y2="157.91" stroke="#141414" stroke-width="0.4"/>
<line x1="194.387" y1="157.91" x2="188.346" y2="160.335" stroke="#141414" stroke-width="0.4"/>
<line x1="66.814" y1="36.155" x2="57.637" y2="36.238" stroke="#141414" stroke-width="0.4"/>
<line x1="57.637" y1="36.238" x2="56.19" y2="37.975" stroke="#141414" stroke-width="0.4"/>
<line x1="56.19" y1="37.975" x2="57.773" y2="47.015" stroke="#141414" stroke-width="0.4"/>
<line x1="188.346" y1="160.335" x2="189.269" y2="154.701" stroke="#141414" stroke-width="0.4"/>
<line x1="189.269" y1="154.701" x2="180.292" y2="154.699" stroke="#141414" stroke-width="0.4"/>
<line x1="180.292" y1="154.699" x2="175.878" y2="160.333" stroke="#141414" stroke-width="0.4"/>
<line x1="57.773" y1="47.015" x2="51.008" y2="44.235" stroke="#141414" stroke-width="0.4"/>
<line x1="51.008" y1="44.235" x2="44.758" y2="51.901" stroke="#141414" stroke-width="0.4"/>
<line x1="44.758" y1="51.901" x2="48.844" y2="57.967" stroke="#141414" stroke-width="0.4"/>
<line x1="48.844" y1="57.967" x2="42.05" y2="55.259" stroke="#141414" stroke-width="0.4"/>
<line x1="42.05" y1="55.259" x2="35.883" y2="62.992" stroke="#141414" stroke-width="0.4"/>
<line x1="35.883" y1="62.992" x2="40.034" y2="69.013" stroke="#141414" stroke-width="0.4"/>
<line x1="168.105" y1="170.08" x2="163.129" y2="176.236" stroke="#141414" stroke-width="0.4"/>
<line x1="163.129" y1="176.236" x2="163.906" y2="179.64" stroke="#141414" stroke-width="0.4"/>
<line x1="163.906" y1="179.64" x2="170.879" y2="182.236" stroke="#141414" stroke-width="0.4"/>
<line x1="40.034" y1="69.013" x2="33.211" y2="66.379" stroke="#141414" stroke-width="0.4"/>
<line x1="33.211" y1="66.379" x2="27.127" y2="74.178" stroke="#141414" stroke-width="0.4"/>
<line x1="27.127" y1="74.178" x2="31.343" y2="80.155" stroke="#141414" stroke-width="0.4"/>
<circle cx="189.081" cy="187.751" r="1.21" fill="#ffe082" stroke="#464646" stroke-width="0.2"/>
<text x="189.081" y="188.17" font-size="1.19" text-anchor="middle" fill="#141414">155</text>
<circle cx="175.143" cy="187.749" r="1.21" fill="#ffe082" stroke="#464646" stroke-width="0.2"/>
<text x="175.143" y="188.17" font-size="1.19" text-anchor="middle" fill="#141414">156</text>
<circle cx="15.733" cy="94.947" r="1.21" fill="#ffe082" stroke="#464646" stroke-width="0.2"/>
<text x="15.733" y="95.36" font-size="1.19" text-anchor="middle" fill="#141414">157</text>
<circle cx="24.273" cy="83.647" r="1.21" fill="#ffe082" stroke="#464646" stroke-width="0.2"/>
<text x="24.273" y="84.06" font-size="1.19" text-anchor="middle" fill="#141414">158</text>
<circle cx="77.77" cy="154.065" r="1.21" fill="#ffe082" stroke="#464646" stroke-width="0.2"/>
<text x="77.77" y="154.48" font-size="1.19" text-anchor="middle" fill="#141414">159</text>
<circle cx="197.771" cy="176.855" r="1.21" fill="#ffe082" stroke="#464646" stroke-width="0.2"/>
<text x="197.771" y="177.27" font-size="1.19" text-anchor="middle" fill="#141414">160</text>
<circle cx="194.67" cy="163.266" r="1.21" fill="#ffe082" stroke="#464646" stroke-width="0.2"/>
<text x="194.67" y="163.68" font-size="1.19" text-anchor="middle" fill="#141414">161</text>
<circle cx="59.604" cy="39.346" r="1.21" fill="#ffe082" stroke="#464646" stroke-width="0.2"/>
<text x="59.604" y="39.76" font-size="1.19" text-anchor="middle" fill="#141414">162</text>
<circle cx="183.446" cy="157.517" r="1.21" fill="#ffe082" stroke="#464646" stroke-width="0.2"/>
<text x="183.446" y="157.93" font-size="1.19" text-anchor="middle" fill="#141414">163</text>
<circle cx="50.596" cy="50.28" r="1.21" fill="#ffe082" stroke="#464646" stroke-width="0.2"/>
<text x="50.596" y="50.70" font-size="1.19" text-anchor="middle" fill="#141414">164</text>
<circle cx="41.703" cy="61.308" r="1.21" fill="#ffe082" stroke="#464646" stroke-width="0.2"/>
<text x="41.703" y="61.72" font-size="1.19" text-anchor="middle" fill="#141414">165</text>
<circle cx="166.505" cy="177.048" r="1.21" fill="#ffe082" stroke="#464646" stroke-width="0.2"/>
<text x="166.505" y="177.46" font-size="1.19" text-anchor="middle" fill="#141414">166</text>
<circle cx="32.929" cy="72.432" r="1.21" fill="#99d9fa" stroke="#464646" stroke-width="0.2"/>
<text x="32.929" y="72.85" font-size="1.19" text-anchor="middle" fill="#141414">167</text>
<circle cx="100.906" cy="205.904" r="4.6" fill="#eaf1fe" stroke="#2e78e6" stroke-width="0.3"/>
<text x="100.906" y="207.704" font-size="5.2" text-anchor="middle" fill="#14306e" font-weight="bold">15</text>
</svg>
