<svg xmlns="http://www.w3.org/2000/svg" xmlns:xlink="http://www.w3.org/1999/xlink" width="210.00mm" height="297.00mm" viewBox="0 0 210.00 297.00">
<rect x="0" y="0" width="210.00" height="297.00" fill="#ffffff" stroke="#cccccc" stroke-width="0.2"/>
<polygon points="51.187,29.676 57.464,22.726 61.698,22.726 66.309,29.676" fill="rgb(216,216,216)"/>
<polygon points="26.75,52.203 20.471,59.154 16.236,59.155 11.622,52.206" fill="rgb(216,216,216)"/>
<polygon points="70.977,64.902 73.789,55.967 77.639,54.202 84.728,58.598" fill="rgb(216,216,216)"/>
<polygon points="39.029,74.066 29.828,75.814 27.627,79.431 31.167,86.983" fill="rgb(216,216,216)"/>
<polygon points="51.941,58.781 64.834,56.777 70.711,51.695 72.931,40.63" fill="rgb(216,216,216)"/>
<polygon points="46.517,49.12 59.24,46.323 64.782,40.878 66.309,29.676" fill="rgb(216,216,216)"/>
<polygon points="58.067,80.185 55.747,87.992 36.917,92.75 31.167,86.983" fill="rgb(216,216,216)"/>
<polygon points="25.985,23.104 27.806,15.165 46.301,9.218 52.407,14.608" fill="rgb(216,216,216)"/>
<polygon points="31.417,32.759 18.693,35.558 13.15,41.003 11.622,52.206" fill="rgb(216,216,216)"/>
<polygon points="25.282,80.365 18.772,78.281 18.941,69.117 25.522,67.274" fill="rgb(216,216,216)"/>
<polygon points="52.407,14.608 57.404,9.944 65.319,14.564 63.715,21.208" fill="rgb(216,216,216)"/>
<line x1="26.75" y1="52.203" x2="51.187" y2="29.676" stroke="#8c8c8c" stroke-width="0.3" stroke-dasharray="1.2,0.8"/>
<line x1="46.517" y1="49.12" x2="51.187" y2="29.676" stroke="#8c8c8c" stroke-width="0.3" stroke-dasharray="1.2,0.8"/>
<line x1="31.417" y1="32.759" x2="51.187" y2="29.676" stroke="#8c8c8c" stroke-width="0.3" stroke-dasharray="1.2,0.8"/>
<line x1="52.407" y1="14.608" x2="51.187" y2="29.676" stroke="#8c8c8c" stroke-width="0.3" stroke-dasharray="1.2,0.8"/>
<line x1="46.517" y1="49.12" x2="26.75" y2="52.203" stroke="#8c8c8c" stroke-width="0.3" stroke-dasharray="1.2,0.8"/>
<line x1="26.75" y1="52.203" x2="31.417" y2="32.759" stroke="#8c8c8c" stroke-width="0.3" stroke-dasharray="1.2,0.8"/>
<line x1="25.523" y1="67.274" x2="26.75" y2="52.203" stroke="#8c8c8c" stroke-width="0.3" stroke-dasharray="1.2,0.8"/>
<line x1="70.977" y1="64.902" x2="39.029" y2="74.066" stroke="#8c8c8c" stroke-width="0.3" stroke-dasharray="1.2,0.8"/>
<line x1="51.941" y1="58.781" x2="70.977" y2="64.902" stroke="#8c8c8c" stroke-width="0.3" stroke-dasharray="1.2,0.8"/>
<line x1="70.977" y1="64.902" x2="58.067" y2="80.185" stroke="#8c8c8c" stroke-width="0.3" stroke-dasharray="1.2,0.8"/>
<line x1="84.489" y1="71.689" x2="70.977" y2="64.902" stroke="#8c8c8c" stroke-width="0.3" stroke-dasharray="1.2,0.8"/>
<line x1="51.941" y1="58.781" x2="39.029" y2="74.066" stroke="#8c8c8c" stroke-width="0.3" stroke-dasharray="1.2,0.8"/>
<line x1="58.067" y1="80.185" x2="39.029" y2="74.066" stroke="#8c8c8c" stroke-width="0.3" stroke-dasharray="1.2,0.8"/>
<line x1="39.029" y1="74.066" x2="25.523" y2="67.274" stroke="#8c8c8c" stroke-width="0.3" stroke-dasharray="1.2,0.8"/>
<line x1="51.941" y1="58.781" x2="46.517" y2="49.12" stroke="#8c8c8c" stroke-width="0.3" stroke-dasharray="1.2,0.8"/>
<line x1="25.523" y1="67.274" x2="51.941" y2="58.781" stroke="#8c8c8c" stroke-width="0.3" stroke-dasharray="1.2,0.8"/>
<line x1="46.517" y1="49.12" x2="25.523" y2="67.274" stroke="#8c8c8c" stroke-width="0.3" stroke-dasharray="1.2,0.8"/>
<line x1="31.417" y1="32.759" x2="25.985" y2="23.104" stroke="#8c8c8c" stroke-width="0.3" stroke-dasharray="1.2,0.8"/>
<line x1="31.417" y1="32.759" x2="52.407" y2="14.608" stroke="#8c8c8c" stroke-width="0.3" stroke-dasharray="1.2,0.8"/>
<line x1="66.309" y1="29.676" x2="51.187" y2="29.676" stroke="#8c8c8c" stroke-width="0.3" stroke-dasharray="1.2,0.8"/>
<line x1="11.622" y1="52.206" x2="26.75" y2="52.203" stroke="#8c8c8c" stroke-width="0.3" stroke-dasharray="1.2,0.8"/>
<line x1="84.728" y1="58.598" x2="70.977" y2="64.902" stroke="#8c8c8c" stroke-width="0.3" stroke-dasharray="1.2,0.8"/>
<line x1="31.167" y1="86.983" x2="39.029" y2="74.066" stroke="#8c8c8c" stroke-width="0.3" stroke-dasharray="1.2,0.8"/>
<line x1="72.931" y1="40.63" x2="51.941" y2="58.781" stroke="#8c8c8c" stroke-width="0.3" stroke-dasharray="1.2,0.8"/>
<line x1="66.309" y1="29.676" x2="46.517" y2="49.12" stroke="#8c8c8c" stroke-width="0.3" stroke-dasharray="1.2,0.8"/>
<line x1="31.167" y1="86.983" x2="58.067" y2="80.185" stroke="#8c8c8c" stroke-width="0.3" stroke-dasharray="1.2,0.8"/>
<line x1="52.407" y1="14.608" x2="25.985" y2="23.104" stroke="#8c8c8c" stroke-width="0.3" stroke-dasharray="1.2,0.8"/>
<line x1="11.622" y1="52.206" x2="31.417" y2="32.759" stroke="#8c8c8c" stroke-width="0.3" stroke-dasharray="1.2,0.8"/>
<line x1="25.522" y1="67.274" x2="25.282" y2="80.365" stroke="#8c8c8c" stroke-width="0.3" stroke-dasharray="1.2,0.8"/>
<line x1="63.715" y1="21.208" x2="52.407" y2="14.608" stroke="#8c8c8c" stroke-width="0.3" stroke-dasharray="1.2,0.8"/>
<line x1="63.715" y1="21.208" x2="51.187" y2="29.676" stroke="#141414" stroke-width="0.4"/>
<line x1="14.216" y1="60.672" x2="26.75" y2="52.203" stroke="#141414" stroke-width="0.4"/>
<line x1="78.844" y1="51.981" x2="70.977" y2="64.902" stroke="#141414" stroke-width="0.4"/>
<line x1="39.029" y1="74.066" x2="25.282" y2="80.365" stroke="#141414" stroke-width="0.4"/>
<line x1="51.941" y1="58.781" x2="78.844" y2="51.981" stroke="#141414" stroke-width="0.4"/>
<line x1="46.517" y1="49.12" x2="72.931" y2="40.63" stroke="#141414" stroke-width="0.4"/>
<line x1="5.0" y1="41.254" x2="25.985" y2="23.104" stroke="#141414" stroke-width="0.4"/>
<line x1="84.489" y1="71.689" x2="58.067" y2="80.185" stroke="#141414" stroke-width="0.4"/>
<line x1="31.417" y1="32.759" x2="5.0" y2="41.254" stroke="#141414" stroke-width="0.4"/>
<line x1="25.523" y1="67.274" x2="14.216" y2="60.672" stroke="#141414" stroke-width="0.4"/>
<line x1="84.728" y1="58.598" x2="84.489" y2="71.689" stroke="#141414" stroke-width="0.4"/>
<line x1="51.187" y1="29.676" x2="57.464" y2="22.726" stroke="#141414" stroke-width="0.4"/>
<line x1="57.464" y1="22.726" x2="61.698" y2="22.726" stroke="#141414" stroke-width="0.4"/>
<line x1="61.698" y1="22.726" x2="66.309" y2="29.676" stroke="#141414" stroke-width="0.4"/>
<line x1="26.75" y1="52.203" x2="20.471" y2="59.154" stroke="#141414" stroke-width="0.4"/>
<line x1="20.471" y1="59.154" x2="16.236" y2="59.155" stroke="#141414" stroke-width="0.4"/>
<line x1="16.236" y1="59.155" x2="11.622" y2="52.206" stroke="#141414" stroke-width="0.4"/>
<line x1="70.977" y1="64.902" x2="73.789" y2="55.967" stroke="#141414" stroke-width="0.4"/>
<line x1="73.789" y1="55.967" x2="77.639" y2="54.202" stroke="#141414" stroke-width="0.4"/>
<line x1="77.639" y1="54.202" x2="84.728" y2="58.598" stroke="#141414" stroke-width="0.4"/>
<line x1="39.029" y1="74.066" x2="29.828" y2="75.814" stroke="#141414" stroke-width="0.4"/>
<line x1="29.828" y1="75.814" x2="27.627" y2="79.431" stroke="#141414" stroke-width="0.4"/>
<line x1="27.627" y1="79.431" x2="31.167" y2="86.983" stroke="#141414" stroke-width="0.4"/>
<line x1="51.941" y1="58.781" x2="64.834" y2="56.777" stroke="#141414" stroke-width="0.4"/>
<line x1="64.834" y1="56.777" x2="70.711" y2="51.695" stroke="#141414" stroke-width="0.4"/>
<line x1="70.711" y1="51.695" x2="72.931" y2="40.63" stroke="#141414" stroke-width="0.4"/>
<line x1="46.517" y1="49.12" x2="59.24" y2="46.323" stroke="#141414" stroke-width="0.4"/>
<line x1="59.24" y1="46.323" x2="64.782" y2="40.878" stroke="#141414" stroke-width="0.4"/>
<line x1="64.782" y1="40.878" x2="66.309" y2="29.676" stroke="#141414" stroke-width="0.4"/>
<line x1="58.067" y1="80.185" x2="55.747" y2="87.992" stroke="#141414" stroke-width="0.4"/>
<line x1="55.747" y1="87.992" x2="36.917" y2="92.75" stroke="#141414" stroke-width="0.4"/>
<line x1="36.917" y1="92.75" x2="31.167" y2="86.983" stroke="#141414" stroke-width="0.4"/>
<line x1="25.985" y1="23.104" x2="27.806" y2="15.165" stroke="#141414" stroke-width="0.4"/>
<line x1="27.806" y1="15.165" x2="46.301" y2="9.218" stroke="#141414" stroke-width="0.4"/>
<line x1="46.301" y1="9.218" x2="52.407" y2="14.608" stroke="#141414" stroke-width="0.4"/>
<line x1="31.417" y1="32.759" x2="18.693" y2="35.558" stroke="#141414" stroke-width="0.4"/>
<line x1="18.693" y1="35.558" x2="13.15" y2="41.003" stroke="#141414" stroke-width="0.4"/>
<line x1="13.15" y1="41.003" x2="11.622" y2="52.206" stroke="#141414" stroke-width="0.4"/>
<line x1="25.282" y1="80.365" x2="18.772" y2="78.281" stroke="#141414" stroke-width="0.4"/>
<line x1="18.772" y1="78.281" x2="18.941" y2="69.117" stroke="#141414" stroke-width="0.4"/>
<line x1="18.941" y1="69.117" x2="25.522" y2="67.274" stroke="#141414" stroke-width="0.4"/>
<line x1="52.407" y1="14.608" x2="57.404" y2="9.944" stroke="#141414" stroke-width="0.4"/>
<line x1="57.404" y1="9.944" x2="65.319" y2="14.564" stroke="#141414" stroke-width="0.4"/>
<line x1="65.319" y1="14.564" x2="63.715" y2="21.208" stroke="#141414" stroke-width="0.4"/>
<circle cx="59.164" cy="26.201" r="1.22" fill="#ffe082" stroke="#464646" stroke-width="0.2"/>
<text x="59.164" y="26.62" font-size="1.20" text-anchor="middle" fill="#141414">122</text>
<circle cx="18.77" cy="55.68" r="1.22" fill="#ffe082" stroke="#464646" stroke-width="0.2"/>
<text x="18.77" y="56.10" font-size="1.20" text-anchor="middle" fill="#141414">123</text>
<circle cx="76.783" cy="58.418" r="1.22" fill="#ffe082" stroke="#464646" stroke-width="0.2"/>
<text x="76.783" y="58.84" font-size="1.20" text-anchor="middle" fill="#141414">124</text>
<circle cx="31.913" cy="79.073" r="1.22" fill="#ffe082" stroke="#464646" stroke-width="0.2"/>
<text x="31.913" y="79.49" font-size="1.20" text-anchor="middle" fill="#141414">125</text>
<circle cx="65.104" cy="51.971" r="1.22" fill="#ffe082" stroke="#464646" stroke-width="0.2"/>
<text x="65.104" y="52.39" font-size="1.20" text-anchor="middle" fill="#141414">126</text>
<circle cx="59.212" cy="41.499" r="1.22" fill="#ffe082" stroke="#464646" stroke-width="0.2"/>
<text x="59.212" y="41.92" font-size="1.20" text-anchor="middle" fill="#141414">127</text>
<circle cx="45.475" cy="86.977" r="1.22" fill="#ffe082" stroke="#464646" stroke-width="0.2"/>
<text x="45.475" y="87.40" font-size="1.20" text-anchor="middle" fill="#141414">128</text>
<circle cx="38.125" cy="15.524" r="1.22" fill="#ffe082" stroke="#464646" stroke-width="0.2"/>
<text x="38.125" y="15.94" font-size="1.20" text-anchor="middle" fill="#141414">129</text>
<circle cx="18.721" cy="40.381" r="1.22" fill="#ffe082" stroke="#464646" stroke-width="0.2"/>
<text x="18.721" y="40.80" font-size="1.20" text-anchor="middle" fill="#141414">130</text>
<circle cx="22.129" cy="73.759" r="1.22" fill="#ffe082" stroke="#464646" stroke-width="0.2"/>
<text x="22.129" y="74.18" font-size="1.20" text-anchor="middle" fill="#141414">131</text>
<circle cx="59.711" cy="15.081" r="1.22" fill="#ffe082" stroke="#464646" stroke-width="0.2"/>
<text x="59.711" y="15.50" font-size="1.20" text-anchor="middle" fill="#141414">132</text>
<circle cx="44.864" cy="94.632" r="4.6" fill="#eaf1fe" stroke="#2e78e6" stroke-width="0.3"/>
<text x="44.864" y="96.432" font-size="5.2" text-anchor="middle" fill="#14306e" font-weight="bold">12</text>
<polygon points="51.18,116.208 57.456,109.258 61.69,109.258 66.3,116.208" fill="rgb(216,216,216)"/>
<polygon points="26.746,138.731 20.466,145.68 16.231,145.679 11.619,138.729" fill="rgb(216,216,216)"/>
<polygon points="70.97,151.437 73.783,142.502 77.633,140.738 84.722,145.134" fill="rgb(216,216,216)"/>
<polygon points="39.027,160.595 29.826,162.342 27.625,165.959 31.164,173.511" fill="rgb(216,216,216)"/>
<polygon points="51.935,145.312 64.827,143.311 70.704,138.231 72.924,127.167" fill="rgb(216,216,216)"/>
<polygon points="46.51,135.651 59.232,132.854 64.774,127.41 66.3,116.208" fill="rgb(216,216,216)"/>
<polygon points="58.062,166.717 55.742,174.523 36.913,179.279 31.164,173.511" fill="rgb(216,216,216)"/>
<polygon points="25.982,109.628 27.802,101.691 46.294,95.746 52.399,101.137" fill="rgb(216,216,216)"/>
<polygon points="31.413,119.287 18.69,122.083 13.147,127.526 11.619,138.729" fill="rgb(216,216,216)"/>
<polygon points="25.279,166.891 18.77,164.807 18.938,155.643 25.52,153.8" fill="rgb(216,216,216)"/>
<polygon points="52.399,101.137 57.396,96.474 65.311,101.095 63.706,107.739" fill="rgb(216,216,216)"/>
<line x1="26.746" y1="138.731" x2="51.179" y2="116.208" stroke="#8c8c8c" stroke-width="0.3" stroke-dasharray="1.2,0.8"/>
<line x1="46.51" y1="135.651" x2="51.179" y2="116.208" stroke="#8c8c8c" stroke-width="0.3" stroke-dasharray="1.2,0.8"/>
<line x1="31.413" y1="119.287" x2="51.179" y2="116.208" stroke="#8c8c8c" stroke-width="0.3" stroke-dasharray="1.2,0.8"/>
<line x1="52.399" y1="101.137" x2="51.179" y2="116.208" stroke="#8c8c8c" stroke-width="0.3" stroke-dasharray="1.2,0.8"/>
<line x1="46.51" y1="135.651" x2="26.746" y2="138.731" stroke="#8c8c8c" stroke-width="0.3" stroke-dasharray="1.2,0.8"/>
<line x1="26.746" y1="138.731" x2="31.413" y2="119.287" stroke="#8c8c8c" stroke-width="0.3" stroke-dasharray="1.2,0.8"/>
<line x1="25.52" y1="153.8" x2="26.746" y2="138.731" stroke="#8c8c8c" stroke-width="0.3" stroke-dasharray="1.2,0.8"/>
<line x1="70.971" y1="151.437" x2="39.027" y2="160.595" stroke="#8c8c8c" stroke-width="0.3" stroke-dasharray="1.2,0.8"/>
<line x1="51.935" y1="145.312" x2="70.971" y2="151.437" stroke="#8c8c8c" stroke-width="0.3" stroke-dasharray="1.2,0.8"/>
<line x1="70.971" y1="151.437" x2="58.062" y2="166.717" stroke="#8c8c8c" stroke-width="0.3" stroke-dasharray="1.2,0.8"/>
<line x1="84.48" y1="158.225" x2="70.971" y2="151.437" stroke="#8c8c8c" stroke-width="0.3" stroke-dasharray="1.2,0.8"/>
<line x1="51.935" y1="145.312" x2="39.027" y2="160.595" stroke="#8c8c8c" stroke-width="0.3" stroke-dasharray="1.2,0.8"/>
<line x1="58.062" y1="166.717" x2="39.027" y2="160.595" stroke="#8c8c8c" stroke-width="0.3" stroke-dasharray="1.2,0.8"/>
<line x1="39.027" y1="160.595" x2="25.52" y2="153.8" stroke="#8c8c8c" stroke-width="0.3" stroke-dasharray="1.2,0.8"/>
<line x1="51.935" y1="145.312" x2="46.51" y2="135.651" stroke="#8c8c8c" stroke-width="0.3" stroke-dasharray="1.2,0.8"/>
<line x1="25.52" y1="153.8" x2="51.935" y2="145.312" stroke="#8c8c8c" stroke-width="0.3" stroke-dasharray="1.2,0.8"/>
<line x1="46.51" y1="135.651" x2="25.52" y2="153.8" stroke="#8c8c8c" stroke-width="0.3" stroke-dasharray="1.2,0.8"/>
<line x1="31.413" y1="119.287" x2="25.982" y2="109.628" stroke="#8c8c8c" stroke-width="0.3" stroke-dasharray="1.2,0.8"/>
<line x1="31.413" y1="119.287" x2="52.399" y2="101.137" stroke="#8c8c8c" stroke-width="0.3" stroke-dasharray="1.2,0.8"/>
<line x1="66.3" y1="116.208" x2="51.18" y2="116.208" stroke="#8c8c8c" stroke-width="0.3" stroke-dasharray="1.2,0.8"/>
<line x1="11.619" y1="138.729" x2="26.746" y2="138.731" stroke="#8c8c8c" stroke-width="0.3" stroke-dasharray="1.2,0.8"/>
<line x1="84.722" y1="145.134" x2="70.97" y2="151.437" stroke="#8c8c8c" stroke-width="0.3" stroke-dasharray="1.2,0.8"/>
<line x1="31.164" y1="173.511" x2="39.027" y2="160.595" stroke="#8c8c8c" stroke-width="0.3" stroke-dasharray="1.2,0.8"/>
<line x1="72.924" y1="127.167" x2="51.935" y2="145.312" stroke="#8c8c8c" stroke-width="0.3" stroke-dasharray="1.2,0.8"/>
<line x1="66.3" y1="116.208" x2="46.51" y2="135.651" stroke="#8c8c8c" stroke-width="0.3" stroke-dasharray="1.2,0.8"/>
<line x1="31.164" y1="173.511" x2="58.062" y2="166.717" stroke="#8c8c8c" stroke-width="0.3" stroke-dasharray="1.2,0.8"/>
<line x1="52.399" y1="101.137" x2="25.982" y2="109.628" stroke="#8c8c8c" stroke-width="0.3" stroke-dasharray="1.2,0.8"/>
<line x1="11.619" y1="138.729" x2="31.413" y2="119.287" stroke="#8c8c8c" stroke-width="0.3" stroke-dasharray="1.2,0.8"/>
<line x1="25.52" y1="153.8" x2="25.279" y2="166.891" stroke="#8c8c8c" stroke-width="0.3" stroke-dasharray="1.2,0.8"/>
<line x1="63.706" y1="107.739" x2="52.399" y2="101.137" stroke="#8c8c8c" stroke-width="0.3" stroke-dasharray="1.2,0.8"/>
<line x1="63.706" y1="107.739" x2="51.179" y2="116.208" stroke="#141414" stroke-width="0.4"/>
<line x1="14.212" y1="147.199" x2="26.746" y2="138.731" stroke="#141414" stroke-width="0.4"/>
<line x1="78.834" y1="138.515" x2="70.971" y2="151.437" stroke="#141414" stroke-width="0.4"/>
<line x1="39.027" y1="160.595" x2="25.279" y2="166.891" stroke="#141414" stroke-width="0.4"/>
<line x1="51.935" y1="145.312" x2="78.834" y2="138.515" stroke="#141414" stroke-width="0.4"/>
<line x1="46.51" y1="135.651" x2="72.924" y2="127.167" stroke="#141414" stroke-width="0.4"/>
<line x1="5.0" y1="127.78" x2="25.982" y2="109.628" stroke="#141414" stroke-width="0.4"/>
<line x1="84.48" y1="158.225" x2="58.062" y2="166.717" stroke="#141414" stroke-width="0.4"/>
<line x1="31.413" y1="119.287" x2="5.0" y2="127.78" stroke="#141414" stroke-width="0.4"/>
<line x1="25.52" y1="153.8" x2="14.212" y2="147.199" stroke="#141414" stroke-width="0.4"/>
<line x1="84.722" y1="145.134" x2="84.48" y2="158.225" stroke="#141414" stroke-width="0.4"/>
<line x1="51.18" y1="116.208" x2="57.456" y2="109.258" stroke="#141414" stroke-width="0.4"/>
<line x1="57.456" y1="109.258" x2="61.69" y2="109.258" stroke="#141414" stroke-width="0.4"/>
<line x1="61.69" y1="109.258" x2="66.3" y2="116.208" stroke="#141414" stroke-width="0.4"/>
<line x1="26.746" y1="138.731" x2="20.466" y2="145.68" stroke="#141414" stroke-width="0.4"/>
<line x1="20.466" y1="145.68" x2="16.231" y2="145.679" stroke="#141414" stroke-width="0.4"/>
<line x1="16.231" y1="145.679" x2="11.619" y2="138.729" stroke="#141414" stroke-width="0.4"/>
<line x1="70.97" y1="151.437" x2="73.783" y2="142.502" stroke="#141414" stroke-width="0.4"/>
<line x1="73.783" y1="142.502" x2="77.633" y2="140.738" stroke="#141414" stroke-width="0.4"/>
<line x1="77.633" y1="140.738" x2="84.722" y2="145.134" stroke="#141414" stroke-width="0.4"/>
<line x1="39.027" y1="160.595" x2="29.826" y2="162.342" stroke="#141414" stroke-width="0.4"/>
<line x1="29.826" y1="162.342" x2="27.625" y2="165.959" stroke="#141414" stroke-width="0.4"/>
<line x1="27.625" y1="165.959" x2="31.164" y2="173.511" stroke="#141414" stroke-width="0.4"/>
<line x1="51.935" y1="145.312" x2="64.827" y2="143.311" stroke="#141414" stroke-width="0.4"/>
<line x1="64.827" y1="143.311" x2="70.704" y2="138.231" stroke="#141414" stroke-width="0.4"/>
<line x1="70.704" y1="138.231" x2="72.924" y2="127.167" stroke="#141414" stroke-width="0.4"/>
<line x1="46.51" y1="135.651" x2="59.232" y2="132.854" stroke="#141414" stroke-width="0.4"/>
<line x1="59.232" y1="132.854" x2="64.774" y2="127.41" stroke="#141414" stroke-width="0.4"/>
<line x1="64.774" y1="127.41" x2="66.3" y2="116.208" stroke="#141414" stroke-width="0.4"/>
<line x1="58.062" y1="166.717" x2="55.742" y2="174.523" stroke="#141414" stroke-width="0.4"/>
<line x1="55.742" y1="174.523" x2="36.913" y2="179.279" stroke="#141414" stroke-width="0.4"/>
<line x1="36.913" y1="179.279" x2="31.164" y2="173.511" stroke="#141414" stroke-width="0.4"/>
<line x1="25.982" y1="109.628" x2="27.802" y2="101.691" stroke="#141414" stroke-width="0.4"/>
<line x1="27.802" y1="101.691" x2="46.294" y2="95.746" stroke="#141414" stroke-width="0.4"/>
<line x1="46.294" y1="95.746" x2="52.399" y2="101.137" stroke="#141414" stroke-width="0.4"/>
<line x1="31.413" y1="119.287" x2="18.69" y2="122.083" stroke="#141414" stroke-width="0.4"/>
<line x1="18.69" y1="122.083" x2="13.147" y2="127.526" stroke="#141414" stroke-width="0.4"/>
<line x1="13.147" y1="127.526" x2="11.619" y2="138.729" stroke="#141414" stroke-width="0.4"/>
<line x1="25.279" y1="166.891" x2="18.77" y2="164.807" stroke="#141414" stroke-width="0.4"/>
<line x1="18.77" y1="164.807" x2="18.938" y2="155.643" stroke="#141414" stroke-width="0.4"/>
<line x1="18.938" y1="155.643" x2="25.52" y2="153.8" stroke="#141414" stroke-width="0.4"/>
<line x1="52.399" y1="101.137" x2="57.396" y2="96.474" stroke="#141414" stroke-width="0.4"/>
<line x1="57.396" y1="96.474" x2="65.311" y2="101.095" stroke="#141414" stroke-width="0.4"/>
<line x1="65.311" y1="101.095" x2="63.706" y2="107.739" stroke="#141414" stroke-width="0.4"/>
<circle cx="59.156" cy="112.733" r="1.22" fill="#ffe082" stroke="#464646" stroke-width="0.2"/>
<text x="59.156" y="113.15" font-size="1.20" text-anchor="middle" fill="#141414">133</text>
<circle cx="18.766" cy="142.205" r="1.22" fill="#ffe082" stroke="#464646" stroke-width="0.2"/>
<text x="18.766" y="142.62" font-size="1.20" text-anchor="middle" fill="#141414">134</text>
<circle cx="76.777" cy="144.953" r="1.22" fill="#ffe082" stroke="#464646" stroke-width="0.2"/>
<text x="76.777" y="145.37" font-size="1.20" text-anchor="middle" fill="#141414">135</text>
<circle cx="31.911" cy="165.602" r="1.22" fill="#ffe082" stroke="#464646" stroke-width="0.2"/>
<text x="31.911" y="166.02" font-size="1.20" text-anchor="middle" fill="#141414">136</text>
<circle cx="65.098" cy="138.505" r="1.22" fill="#ffe082" stroke="#464646" stroke-width="0.2"/>
<text x="65.098" y="138.92" font-size="1.20" text-anchor="middle" fill="#141414">137</text>
<circle cx="59.204" cy="128.031" r="1.22" fill="#ffe082" stroke="#464646" stroke-width="0.2"/>
<text x="59.204" y="128.45" font-size="1.20" text-anchor="middle" fill="#141414">138</text>
<circle cx="45.47" cy="173.507" r="1.22" fill="#ffe082" stroke="#464646" stroke-width="0.2"/>
<text x="45.47" y="173.93" font-size="1.20" text-anchor="middle" fill="#141414">139</text>
<circle cx="38.119" cy="102.051" r="1.22" fill="#ffe082" stroke="#464646" stroke-width="0.2"/>
<text x="38.119" y="102.47" font-size="1.20" text-anchor="middle" fill="#141414">140</text>
<circle cx="18.717" cy="126.906" r="1.22" fill="#ffe082" stroke="#464646" stroke-width="0.2"/>
<text x="18.717" y="127.33" font-size="1.20" text-anchor="middle" fill="#141414">141</text>
<circle cx="22.127" cy="160.285" r="1.22" fill="#ffe082" stroke="#464646" stroke-width="0.2"/>
<text x="22.127" y="160.70" font-size="1.20" text-anchor="middle" fill="#141414">142</text>
<circle cx="59.703" cy="101.611" r="1.22" fill="#ffe082" stroke="#464646" stroke-width="0.2"/>
<text x="59.703" y="102.03" font-size="1.20" text-anchor="middle" fill="#141414">143</text>
<circle cx="44.861" cy="85.432" r="4.6" fill="#eaf1fe" stroke="#2e78e6" stroke-width="0.3"/>
<text x="44.861" y="87.232" font-size="5.2" text-anchor="middle" fill="#14306e" font-weight="bold">13</text>
<polygon points="51.177,202.738 57.453,195.788 61.688,195.788 66.298,202.738" fill="rgb(216,216,216)"/>
<polygon points="26.74,225.258 19.303,230.947 18.959,235.166 25.512,240.325" fill="rgb(216,216,216)"/>
<polygon points="70.969,237.968 78.084,244.056 82.282,243.512 85.961,236.028" fill="rgb(216,216,216)"/>
<polygon points="39.024,247.122 29.823,248.867 27.62,252.482 31.157,260.035" fill="rgb(216,216,216)"/>
<polygon points="51.93,231.841 64.822,229.844 70.7,224.765 72.922,213.702" fill="rgb(216,216,216)"/>
<polygon points="46.503,222.181 59.227,219.384 64.769,213.94 66.298,202.738" fill="rgb(216,216,216)"/>
<polygon points="58.06,253.245 55.737,261.051 36.905,265.804 31.157,260.035" fill="rgb(216,216,216)"/>
<polygon points="25.986,196.15 27.807,188.213 46.298,182.272 52.402,187.663" fill="rgb(216,216,216)"/>
<polygon points="31.412,205.811 18.689,208.605 13.146,214.047 11.617,225.249" fill="rgb(216,216,216)"/>
<polygon points="25.275,253.416 18.765,251.333 18.931,242.17 25.512,240.325" fill="rgb(216,216,216)"/>
<polygon points="52.402,187.663 57.401,183.002 65.313,187.628 63.705,194.27" fill="rgb(216,216,216)"/>
<line x1="26.74" y1="225.257" x2="51.177" y2="202.738" stroke="#8c8c8c" stroke-width="0.3" stroke-dasharray="1.2,0.8"/>
<line x1="46.503" y1="222.181" x2="51.177" y2="202.738" stroke="#8c8c8c" stroke-width="0.3" stroke-dasharray="1.2,0.8"/>
<line x1="31.412" y1="205.811" x2="51.177" y2="202.738" stroke="#8c8c8c" stroke-width="0.3" stroke-dasharray="1.2,0.8"/>
<line x1="52.401" y1="187.663" x2="51.177" y2="202.738" stroke="#8c8c8c" stroke-width="0.3" stroke-dasharray="1.2,0.8"/>
<line x1="46.503" y1="222.181" x2="26.74" y2="225.257" stroke="#8c8c8c" stroke-width="0.3" stroke-dasharray="1.2,0.8"/>
<line x1="26.74" y1="225.257" x2="31.412" y2="205.811" stroke="#8c8c8c" stroke-width="0.3" stroke-dasharray="1.2,0.8"/>
<line x1="26.74" y1="225.257" x2="11.617" y2="225.249" stroke="#8c8c8c" stroke-width="0.3" stroke-dasharray="1.2,0.8"/>
<line x1="70.969" y1="237.968" x2="39.024" y2="247.122" stroke="#8c8c8c" stroke-width="0.3" stroke-dasharray="1.2,0.8"/>
<line x1="51.93" y1="231.841" x2="70.969" y2="237.968" stroke="#8c8c8c" stroke-width="0.3" stroke-dasharray="1.2,0.8"/>
<line x1="70.969" y1="237.968" x2="58.06" y2="253.245" stroke="#8c8c8c" stroke-width="0.3" stroke-dasharray="1.2,0.8"/>
<line x1="70.969" y1="237.968" x2="78.829" y2="225.048" stroke="#8c8c8c" stroke-width="0.3" stroke-dasharray="1.2,0.8"/>
<line x1="51.93" y1="231.841" x2="39.024" y2="247.122" stroke="#8c8c8c" stroke-width="0.3" stroke-dasharray="1.2,0.8"/>
<line x1="58.06" y1="253.245" x2="39.024" y2="247.122" stroke="#8c8c8c" stroke-width="0.3" stroke-dasharray="1.2,0.8"/>
<line x1="39.024" y1="247.122" x2="25.512" y2="240.325" stroke="#8c8c8c" stroke-width="0.3" stroke-dasharray="1.2,0.8"/>
<line x1="51.93" y1="231.841" x2="46.503" y2="222.181" stroke="#8c8c8c" stroke-width="0.3" stroke-dasharray="1.2,0.8"/>
<line x1="25.512" y1="240.325" x2="51.93" y2="231.841" stroke="#8c8c8c" stroke-width="0.3" stroke-dasharray="1.2,0.8"/>
<line x1="46.503" y1="222.181" x2="25.512" y2="240.325" stroke="#8c8c8c" stroke-width="0.3" stroke-dasharray="1.2,0.8"/>
<line x1="31.412" y1="205.811" x2="25.986" y2="196.15" stroke="#8c8c8c" stroke-width="0.3" stroke-dasharray="1.2,0.8"/>
<line x1="31.412" y1="205.811" x2="52.401" y2="187.663" stroke="#8c8c8c" stroke-width="0.3" stroke-dasharray="1.2,0.8"/>
<line x1="66.298" y1="202.738" x2="51.177" y2="202.738" stroke="#8c8c8c" stroke-width="0.3" stroke-dasharray="1.2,0.8"/>
<line x1="25.512" y1="240.325" x2="26.74" y2="225.258" stroke="#8c8c8c" stroke-width="0.3" stroke-dasharray="1.2,0.8"/>
<line x1="85.961" y1="236.028" x2="70.969" y2="237.968" stroke="#8c8c8c" stroke-width="0.3" stroke-dasharray="1.2,0.8"/>
<line x1="31.157" y1="260.035" x2="39.024" y2="247.122" stroke="#8c8c8c" stroke-width="0.3" stroke-dasharray="1.2,0.8"/>
<line x1="72.922" y1="213.702" x2="51.93" y2="231.841" stroke="#8c8c8c" stroke-width="0.3" stroke-dasharray="1.2,0.8"/>
<line x1="66.298" y1="202.738" x2="46.503" y2="222.181" stroke="#8c8c8c" stroke-width="0.3" stroke-dasharray="1.2,0.8"/>
<line x1="31.157" y1="260.035" x2="58.06" y2="253.245" stroke="#8c8c8c" stroke-width="0.3" stroke-dasharray="1.2,0.8"/>
<line x1="52.402" y1="187.663" x2="25.986" y2="196.15" stroke="#8c8c8c" stroke-width="0.3" stroke-dasharray="1.2,0.8"/>
<line x1="11.617" y1="225.249" x2="31.412" y2="205.811" stroke="#8c8c8c" stroke-width="0.3" stroke-dasharray="1.2,0.8"/>
<line x1="25.512" y1="240.325" x2="25.275" y2="253.416" stroke="#8c8c8c" stroke-width="0.3" stroke-dasharray="1.2,0.8"/>
<line x1="63.705" y1="194.27" x2="52.402" y2="187.663" stroke="#8c8c8c" stroke-width="0.3" stroke-dasharray="1.2,0.8"/>
<line x1="63.705" y1="194.27" x2="51.177" y2="202.738" stroke="#141414" stroke-width="0.4"/>
<line x1="26.74" y1="225.257" x2="17.284" y2="237.052" stroke="#141414" stroke-width="0.4"/>
<line x1="70.969" y1="237.968" x2="84.475" y2="244.758" stroke="#141414" stroke-width="0.4"/>
<line x1="39.024" y1="247.122" x2="25.275" y2="253.416" stroke="#141414" stroke-width="0.4"/>
<line x1="51.93" y1="231.841" x2="78.829" y2="225.048" stroke="#141414" stroke-width="0.4"/>
<line x1="46.503" y1="222.181" x2="72.922" y2="213.702" stroke="#141414" stroke-width="0.4"/>
<line x1="5.0" y1="214.301" x2="25.986" y2="196.15" stroke="#141414" stroke-width="0.4"/>
<line x1="84.475" y1="244.758" x2="58.06" y2="253.245" stroke="#141414" stroke-width="0.4"/>
<line x1="31.412" y1="205.811" x2="5.0" y2="214.301" stroke="#141414" stroke-width="0.4"/>
<line x1="17.284" y1="237.052" x2="11.617" y2="225.249" stroke="#141414" stroke-width="0.4"/>
<line x1="52.401" y1="187.663" x2="63.705" y2="194.27" stroke="#141414" stroke-width="0.4"/>
<line x1="78.829" y1="225.048" x2="85.961" y2="236.028" stroke="#141414" stroke-width="0.4"/>
<line x1="51.177" y1="202.738" x2="57.453" y2="195.788" stroke="#141414" stroke-width="0.4"/>
<line x1="57.453" y1="195.788" x2="61.688" y2="195.788" stroke="#141414" stroke-width="0.4"/>
<line x1="61.688" y1="195.788" x2="66.298" y2="202.738" stroke="#141414" stroke-width="0.4"/>
<line x1="26.74" y1="225.258" x2="19.303" y2="230.947" stroke="#141414" stroke-width="0.4"/>
<line x1="19.303" y1="230.947" x2="18.959" y2="235.166" stroke="#141414" stroke-width="0.4"/>
<line x1="18.959" y1="235.166" x2="25.512" y2="240.325" stroke="#141414" stroke-width="0.4"/>
<line x1="70.969" y1="237.968" x2="78.084" y2="244.056" stroke="#141414" stroke-width="0.4"/>
<line x1="78.084" y1="244.056" x2="82.282" y2="243.512" stroke="#141414" stroke-width="0.4"/>
<line x1="82.282" y1="243.512" x2="85.961" y2="236.028" stroke="#141414" stroke-width="0.4"/>
<line x1="39.024" y1="247.122" x2="29.823" y2="248.867" stroke="#141414" stroke-width="0.4"/>
<line x1="29.823" y1="248.867" x2="27.62" y2="252.482" stroke="#141414" stroke-width="0.4"/>
<line x1="27.62" y1="252.482" x2="31.157" y2="260.035" stroke="#141414" stroke-width="0.4"/>
<line x1="51.93" y1="231.841" x2="64.822" y2="229.844" stroke="#141414" stroke-width="0.4"/>
<line x1="64.822" y1="229.844" x2="70.7" y2="224.765" stroke="#141414" stroke-width="0.4"/>
<line x1="70.7" y1="224.765" x2="72.922" y2="213.702" stroke="#141414" stroke-width="0.4"/>
<line x1="46.503" y1="222.181" x2="59.227" y2="219.384" stroke="#141414" stroke-width="0.4"/>
<line x1="59.227" y1="219.384" x2="64.769" y2="213.94" stroke="#141414" stroke-width="0.4"/>
<line x1="64.769" y1="213.94" x2="66.298" y2="202.738" stroke="#141414" stroke-width="0.4"/>
<line x1="58.06" y1="253.245" x2="55.737" y2="261.051" stroke="#141414" stroke-width="0.4"/>
<line x1="55.737" y1="261.051" x2="36.905" y2="265.804" stroke="#141414" stroke-width="0.4"/>
<line x1="36.905" y1="265.804" x2="31.157" y2="260.035" stroke="#141414" stroke-width="0.4"/>
<line x1="25.986" y1="196.15" x2="27.807" y2="188.213" stroke="#141414" stroke-width="0.4"/>
<line x1="27.807" y1="188.213" x2="46.298" y2="182.272" stroke="#141414" stroke-width="0.4"/>
<line x1="46.298" y1="182.272" x2="52.402" y2="187.663" stroke="#141414" stroke-width="0.4"/>
<line x1="31.412" y1="205.811" x2="18.689" y2="208.605" stroke="#141414" stroke-width="0.4"/>
<line x1="18.689" y1="208.605" x2="13.146" y2="214.047" stroke="#141414" stroke-width="0.4"/>
<line x1="13.146" y1="214.047" x2="11.617" y2="225.249" stroke="#141414" stroke-width="0.4"/>
<line x1="25.275" y1="253.416" x2="18.765" y2="251.333" stroke="#141414" stroke-width="0.4"/>
<line x1="18.765" y1="251.333" x2="18.931" y2="242.17" stroke="#141414" stroke-width="0.4"/>
<line x1="18.931" y1="242.17" x2="25.512" y2="240.325" stroke="#141414" stroke-width="0.4"/>
<line x1="52.402" y1="187.663" x2="57.401" y2="183.002" stroke="#141414" stroke-width="0.4"/>
<line x1="57.401" y1="183.002" x2="65.313" y2="187.628" stroke="#141414" stroke-width="0.4"/>
<line x1="65.313" y1="187.628" x2="63.705" y2="194.27" stroke="#141414" stroke-width="0.4"/>
<circle cx="59.154" cy="199.263" r="1.22" fill="#ffe082" stroke="#464646" stroke-width="0.2"/>
<text x="59.154" y="199.68" font-size="1.20" text-anchor="middle" fill="#141414">144</text>
<circle cx="22.629" cy="232.924" r="1.22" fill="#ffe082" stroke="#464646" stroke-width="0.2"/>
<text x="22.629" y="233.34" font-size="1.20" text-anchor="middle" fill="#141414">145</text>
<circle cx="79.324" cy="240.391" r="1.22" fill="#ffe082" stroke="#464646" stroke-width="0.2"/>
<text x="79.324" y="240.81" font-size="1.20" text-anchor="middle" fill="#141414">146</text>
<circle cx="31.906" cy="252.126" r="1.22" fill="#ffe082" stroke="#464646" stroke-width="0.2"/>
<text x="31.906" y="252.55" font-size="1.20" text-anchor="middle" fill="#141414">147</text>
<circle cx="65.094" cy="225.038" r="1.22" fill="#ffe082" stroke="#464646" stroke-width="0.2"/>
<text x="65.094" y="225.46" font-size="1.20" text-anchor="middle" fill="#141414">148</text>
<circle cx="59.199" cy="214.561" r="1.22" fill="#ffe082" stroke="#464646" stroke-width="0.2"/>
<text x="59.199" y="214.98" font-size="1.20" text-anchor="middle" fill="#141414">149</text>
<circle cx="45.465" cy="260.034" r="1.22" fill="#ffe082" stroke="#464646" stroke-width="0.2"/>
<text x="45.465" y="260.45" font-size="1.20" text-anchor="middle" fill="#141414">150</text>
<circle cx="38.123" cy="188.574" r="1.22" fill="#ffe082" stroke="#464646" stroke-width="0.2"/>
<text x="38.123" y="188.99" font-size="1.20" text-anchor="middle" fill="#141414">151</text>
<circle cx="18.716" cy="213.428" r="1.22" fill="#ffe082" stroke="#464646" stroke-width="0.2"/>
<text x="18.716" y="213.85" font-size="1.20" text-anchor="middle" fill="#141414">152</text>
<circle cx="22.121" cy="246.811" r="1.22" fill="#ffe082" stroke="#464646" stroke-width="0.2"/>
<text x="22.121" y="247.23" font-size="1.20" text-anchor="middle" fill="#141414">153</text>
<circle cx="59.705" cy="188.141" r="1.22" fill="#ffe082" stroke="#464646" stroke-width="0.2"/>
<text x="59.705" y="188.56" font-size="1.20" text-anchor="middle" fill="#141414">154</text>
<circle cx="45.481" cy="171.964" r="4.6" fill="#eaf1fe" stroke="#2e78e6" stroke-width="0.3"/>
<text x="45.481" y="173.764" font-size="5.2" text-anchor="middle" fill="#14306e" font-weight="bold">14</text>
</svg>
