<svg xmlns="http://www.w3.org/2000/svg" xmlns:xlink="http://www.w3.org/1999/xlink" width="210.00mm" height="297.00mm" viewBox="0 0 210.00 297.00">
<rect x="0" y="0" width="210.00" height="297.00" fill="#ffffff" stroke="#cccccc" stroke-width="0.2"/>
<polygon points="63.537,156.389 68.079,163.389 89.273,163.389 93.815,156.389" fill="rgb(216,216,216)"/>
<polygon points="63.537,95.833 68.079,88.833 89.273,88.833 93.815,95.833" fill="rgb(216,216,216)"/>
<polygon points="93.815,156.389 100.815,147.305 100.815,104.917 93.815,95.833" fill="rgb(216,216,216)"/>
<polygon points="63.537,186.667 59.298,193.667 39.517,193.667 35.278,186.667" fill="rgb(216,216,216)"/>
<polygon points="35.278,156.389 28.278,147.305 28.278,104.917 35.278,95.833" fill="rgb(216,216,216)"/>
<polygon points="35.278,156.389 28.278,160.93 28.278,182.125 35.278,186.667" fill="rgb(216,216,216)"/>
<polygon points="35.278,95.833 28.278,91.292 28.278,70.097 35.278,65.556" fill="rgb(216,216,216)"/>
<polygon points="63.537,156.389 68.079,163.389 89.273,163.389 93.815,156.389" fill="#99d9fa"/>
<line x1="63.537" y1="156.389" x2="63.537" y2="95.833" stroke="#8c8c8c" stroke-width="0.3" stroke-dasharray="1.2,0.8"/>
<line x1="63.537" y1="156.389" x2="35.278" y2="156.389" stroke="#8c8c8c" stroke-width="0.3" stroke-dasharray="1.2,0.8"/>
<line x1="35.278" y1="95.833" x2="63.537" y2="95.833" stroke="#8c8c8c" stroke-width="0.3" stroke-dasharray="1.2,0.8"/>
<line x1="35.278" y1="65.555" x2="63.537" y2="65.555" stroke="#8c8c8c" stroke-width="0.3" stroke-dasharray="1.2,0.8"/>
<line x1="35.278" y1="65.555" x2="35.278" y2="5.0" stroke="#8c8c8c" stroke-width="0.3" stroke-dasharray="1.2,0.8"/>
<line x1="93.815" y1="156.389" x2="63.537" y2="156.389" stroke="#8c8c8c" stroke-width="0.3" stroke-dasharray="1.2,0.8"/>
<line x1="93.815" y1="95.833" x2="63.537" y2="95.833" stroke="#8c8c8c" stroke-width="0.3" stroke-dasharray="1.2,0.8"/>
<line x1="93.815" y1="95.833" x2="93.815" y2="156.389" stroke="#8c8c8c" stroke-width="0.3" stroke-dasharray="1.2,0.8"/>
<line x1="35.278" y1="186.667" x2="63.537" y2="186.667" stroke="#8c8c8c" stroke-width="0.3" stroke-dasharray="1.2,0.8"/>
<line x1="35.278" y1="95.833" x2="35.278" y2="156.389" stroke="#8c8c8c" stroke-width="0.3" stroke-dasharray="1.2,0.8"/>
<line x1="35.278" y1="186.667" x2="35.278" y2="156.389" stroke="#8c8c8c" stroke-width="0.3" stroke-dasharray="1.2,0.8"/>
<line x1="35.278" y1="65.556" x2="35.278" y2="95.833" stroke="#8c8c8c" stroke-width="0.3" stroke-dasharray="1.2,0.8"/>
<line x1="63.537" y1="156.389" x2="63.537" y2="186.667" stroke="#141414" stroke-width="0.4"/>
<line x1="63.537" y1="65.555" x2="63.537" y2="95.833" stroke="#141414" stroke-width="0.4"/>
<line x1="63.537" y1="5.0" x2="63.537" y2="65.555" stroke="#141414" stroke-width="0.4"/>
<line x1="35.278" y1="5.0" x2="63.537" y2="5.0" stroke="#141414" stroke-width="0.4"/>
<line x1="5.0" y1="65.555" x2="5.0" y2="5.0" stroke="#141414" stroke-width="0.4"/>
<line x1="5.0" y1="5.0" x2="35.278" y2="5.0" stroke="#141414" stroke-width="0.4"/>
<line x1="35.278" y1="65.555" x2="5.0" y2="65.555" stroke="#141414" stroke-width="0.4"/>
<line x1="63.537" y1="156.389" x2="68.079" y2="163.389" stroke="#141414" stroke-width="0.4"/>
<line x1="68.079" y1="163.389" x2="89.273" y2="163.389" stroke="#141414" stroke-width="0.4"/>
<line x1="89.273" y1="163.389" x2="93.815" y2="156.389" stroke="#141414" stroke-width="0.4"/>
<line x1="63.537" y1="95.833" x2="68.079" y2="88.833" stroke="#141414" stroke-width="0.4"/>
<line x1="68.079" y1="88.833" x2="89.273" y2="88.833" stroke="#141414" stroke-width="0.4"/>
<line x1="89.273" y1="88.833" x2="93.815" y2="95.833" stroke="#141414" stroke-width="0.4"/>
<line x1="93.815" y1="156.389" x2="100.815" y2="147.305" stroke="#141414" stroke-width="0.4"/>
<line x1="100.815" y1="147.305" x2="100.815" y2="104.917" stroke="#141414" stroke-width="0.4"/>
<line x1="100.815" y1="104.917" x2="93.815" y2="95.833" stroke="#141414" stroke-width="0.4"/>
<line x1="63.537" y1="186.667" x2="59.298" y2="193.667" stroke="#141414" stroke-width="0.4"/>
<line x1="59.298" y1="193.667" x2="39.517" y2="193.667" stroke="#141414" stroke-width="0.4"/>
<line x1="39.517" y1="193.667" x2="35.278" y2="186.667" stroke="#141414" stroke-width="0.4"/>
<line x1="35.278" y1="156.389" x2="28.278" y2="147.305" stroke="#141414" stroke-width="0.4"/>
<line x1="28.278" y1="147.305" x2="28.278" y2="104.917" stroke="#141414" stroke-width="0.4"/>
<line x1="28.278" y1="104.917" x2="35.278" y2="95.833" stroke="#141414" stroke-width="0.4"/>
<line x1="35.278" y1="156.389" x2="28.278" y2="160.93" stroke="#141414" stroke-width="0.4"/>
<line x1="28.278" y1="160.93" x2="28.278" y2="182.125" stroke="#141414" stroke-width="0.4"/>
<line x1="28.278" y1="182.125" x2="35.278" y2="186.667" stroke="#141414" stroke-width="0.4"/>
<line x1="35.278" y1="95.833" x2="28.278" y2="91.292" stroke="#141414" stroke-width="0.4"/>
<line x1="28.278" y1="91.292" x2="28.278" y2="70.097" stroke="#141414" stroke-width="0.4"/>
<line x1="28.278" y1="70.097" x2="35.278" y2="65.556" stroke="#141414" stroke-width="0.4"/>
<circle cx="78.676" cy="159.889" r="2.60" fill="#99d9fa" stroke="#464646" stroke-width="0.2"/>
<text x="78.676" y="161.12" font-size="3.52" text-anchor="middle" fill="#141414">57</text>
<circle cx="78.676" cy="92.333" r="2.60" fill="#ffe082" stroke="#464646" stroke-width="0.2"/>
<text x="78.676" y="93.57" font-size="3.52" text-anchor="middle" fill="#141414">58</text>
<circle cx="97.315" cy="126.111" r="2.60" fill="#ffe082" stroke="#464646" stroke-width="0.2"/>
<text x="97.315" y="127.34" font-size="3.52" text-anchor="middle" fill="#141414">59</text>
<circle cx="49.407" cy="190.167" r="2.60" fill="#ffe082" stroke="#464646" stroke-width="0.2"/>
<text x="49.407" y="191.40" font-size="3.52" text-anchor="middle" fill="#141414">60</text>
<circle cx="31.778" cy="126.111" r="2.60" fill="#ffe082" stroke="#464646" stroke-width="0.2"/>
<text x="31.778" y="127.34" font-size="3.52" text-anchor="middle" fill="#141414">61</text>
<circle cx="31.778" cy="171.528" r="2.60" fill="#ffe082" stroke="#464646" stroke-width="0.2"/>
<text x="31.778" y="172.76" font-size="3.52" text-anchor="middle" fill="#141414">62</text>
<circle cx="31.778" cy="80.694" r="2.60" fill="#ffe082" stroke="#464646" stroke-width="0.2"/>
<text x="31.778" y="81.93" font-size="3.52" text-anchor="middle" fill="#141414">63</text>
<circle cx="44.698" cy="176.574" r="4.60" fill="#eaf1fe" stroke="#2e78e6" stroke-width="0.3"/>
<text x="44.698" y="178.37" font-size="5.20" text-anchor="middle" fill="#14306e" font-weight="bold">9</text>
<polygon points="162.352,156.389 166.894,163.389 188.088,163.389 192.63,156.389" fill="rgb(216,216,216)"/>
<polygon points="162.352,95.833 166.894,88.833 188.088,88.833 192.63,95.833" fill="rgb(216,216,216)"/>
<polygon points="192.63,156.389 199.63,147.305 199.63,104.917 192.63,95.833" fill="rgb(216,216,216)"/>
<polygon points="162.352,186.667 158.113,193.667 138.332,193.667 134.093,186.667" fill="rgb(216,216,216)"/>
<polygon points="134.093,156.389 127.093,147.305 127.093,104.917 134.093,95.833" fill="rgb(216,216,216)"/>
<polygon points="134.093,156.389 127.093,160.93 127.093,182.125 134.093,186.667" fill="rgb(216,216,216)"/>
<polygon points="134.093,95.833 127.093,91.292 127.093,70.097 134.093,65.556" fill="rgb(216,216,216)"/>
<polygon points="162.352,156.389 166.894,163.389 188.088,163.389 192.63,156.389" fill="#99d9fa"/>
<line x1="162.352" y1="156.389" x2="162.352" y2="95.833" stroke="#8c8c8c" stroke-width="0.3" stroke-dasharray="1.2,0.8"/>
<line x1="162.352" y1="156.389" x2="134.093" y2="156.389" stroke="#8c8c8c" stroke-width="0.3" stroke-dasharray="1.2,0.8"/>
<line x1="134.093" y1="95.833" x2="162.352" y2="95.833" stroke="#8c8c8c" stroke-width="0.3" stroke-dasharray="1.2,0.8"/>
<line x1="134.093" y1="65.555" x2="162.352" y2="65.555" stroke="#8c8c8c" stroke-width="0.3" stroke-dasharray="1.2,0.8"/>
<line x1="134.093" y1="65.555" x2="134.093" y2="5.0" stroke="#8c8c8c" stroke-width="0.3" stroke-dasharray="1.2,0.8"/>
<line x1="192.63" y1="156.389" x2="162.352" y2="156.389" stroke="#8c8c8c" stroke-width="0.3" stroke-dasharray="1.2,0.8"/>
<line x1="192.63" y1="95.833" x2="162.352" y2="95.833" stroke="#8c8c8c" stroke-width="0.3" stroke-dasharray="1.2,0.8"/>
<line x1="192.63" y1="95.833" x2="192.63" y2="156.389" stroke="#8c8c8c" stroke-width="0.3" stroke-dasharray="1.2,0.8"/>
<line x1="134.093" y1="186.667" x2="162.352" y2="186.667" stroke="#8c8c8c" stroke-width="0.3" stroke-dasharray="1.2,0.8"/>
<line x1="134.093" y1="95.833" x2="134.093" y2="156.389" stroke="#8c8c8c" stroke-width="0.3" stroke-dasharray="1.2,0.8"/>
<line x1="134.093" y1="186.667" x2="134.093" y2="156.389" stroke="#8c8c8c" stroke-width="0.3" stroke-dasharray="1.2,0.8"/>
<line x1="134.093" y1="65.556" x2="134.093" y2="95.833" stroke="#8c8c8c" stroke-width="0.3" stroke-dasharray="1.2,0.8"/>
<line x1="162.352" y1="156.389" x2="162.352" y2="186.667" stroke="#141414" stroke-width="0.4"/>
<line x1="162.352" y1="65.555" x2="162.352" y2="95.833" stroke="#141414" stroke-width="0.4"/>
<line x1="162.352" y1="5.0" x2="162.352" y2="65.555" stroke="#141414" stroke-width="0.4"/>
<line x1="134.093" y1="5.0" x2="162.352" y2="5.0" stroke="#141414" stroke-width="0.4"/>
<line x1="103.815" y1="65.555" x2="103.815" y2="5.0" stroke="#141414" stroke-width="0.4"/>
<line x1="103.815" y1="5.0" x2="134.093" y2="5.0" stroke="#141414" stroke-width="0.4"/>
<line x1="134.093" y1="65.555" x2="103.815" y2="65.555" stroke="#141414" stroke-width="0.4"/>
<line x1="162.352" y1="156.389" x2="166.894" y2="163.389" stroke="#141414" stroke-width="0.4"/>
<line x1="166.894" y1="163.389" x2="188.088" y2="163.389" stroke="#141414" stroke-width="0.4"/>
<line x1="188.088" y1="163.389" x2="192.63" y2="156.389" stroke="#141414" stroke-width="0.4"/>
<line x1="162.352" y1="95.833" x2="166.894" y2="88.833" stroke="#141414" stroke-width="0.4"/>
<line x1="166.894" y1="88.833" x2="188.088" y2="88.833" stroke="#141414" stroke-width="0.4"/>
<line x1="188.088" y1="88.833" x2="192.63" y2="95.833" stroke="#141414" stroke-width="0.4"/>
<line x1="192.63" y1="156.389" x2="199.63" y2="147.305" stroke="#141414" stroke-width="0.4"/>
<line x1="199.63" y1="147.305" x2="199.63" y2="104.917" stroke="#141414" stroke-width="0.4"/>
<line x1="199.63" y1="104.917" x2="192.63" y2="95.833" stroke="#141414" stroke-width="0.4"/>
<line x1="162.352" y1="186.667" x2="158.113" y2="193.667" stroke="#141414" stroke-width="0.4"/>
<line x1="158.113" y1="193.667" x2="138.332" y2="193.667" stroke="#141414" stroke-width="0.4"/>
<line x1="138.332" y1="193.667" x2="134.093" y2="186.667" stroke="#141414" stroke-width="0.4"/>
<line x1="134.093" y1="156.389" x2="127.093" y2="147.305" stroke="#141414" stroke-width="0.4"/>
<line x1="127.093" y1="147.305" x2="127.093" y2="104.917" stroke="#141414" stroke-width="0.4"/>
<line x1="127.093" y1="104.917" x2="134.093" y2="95.833" stroke="#141414" stroke-width="0.4"/>
<line x1="134.093" y1="156.389" x2="127.093" y2="160.93" stroke="#141414" stroke-width="0.4"/>
<line x1="127.093" y1="160.93" x2="127.093" y2="182.125" stroke="#141414" stroke-width="0.4"/>
<line x1="127.093" y1="182.125" x2="134.093" y2="186.667" stroke="#141414" stroke-width="0.4"/>
<line x1="134.093" y1="95.833" x2="127.093" y2="91.292" stroke="#141414" stroke-width="0.4"/>
<line x1="127.093" y1="91.292" x2="127.093" y2="70.097" stroke="#141414" stroke-width="0.4"/>
<line x1="127.093" y1="70.097" x2="134.093" y2="65.556" stroke="#141414" stroke-width="0.4"/>
<circle cx="177.491" cy="159.889" r="2.60" fill="#99d9fa" stroke="#464646" stroke-width="0.2"/>
<text x="177.491" y="161.12" font-size="3.52" text-anchor="middle" fill="#141414">64</text>
<circle cx="177.491" cy="92.333" r="2.60" fill="#ffe082" stroke="#464646" stroke-width="0.2"/>
<text x="177.491" y="93.57" font-size="3.52" text-anchor="middle" fill="#141414">65</text>
<circle cx="196.13" cy="126.111" r="2.60" fill="#ffe082" stroke="#464646" stroke-width="0.2"/>
<text x="196.13" y="127.34" font-size="3.52" text-anchor="middle" fill="#141414">66</text>
<circle cx="148.222" cy="190.167" r="2.60" fill="#ffe082" stroke="#464646" stroke-width="0.2"/>
<text x="148.222" y="191.40" font-size="3.52" text-anchor="middle" fill="#141414">67</text>
<circle cx="130.593" cy="126.111" r="2.60" fill="#ffe082" stroke="#464646" stroke-width="0.2"/>
<text x="130.593" y="127.34" font-size="3.52" text-anchor="middle" fill="#141414">68</text>
<circle cx="130.593" cy="171.528" r="2.60" fill="#ffe082" stroke="#464646" stroke-width="0.2"/>
<text x="130.593" y="172.76" font-size="3.52" text-anchor="middle" fill="#141414">69</text>
<circle cx="130.593" cy="80.694" r="2.60" fill="#ffe082" stroke="#464646" stroke-width="0.2"/>
<text x="130.593" y="81.93" font-size="3.52" text-anchor="middle" fill="#141414">70</text>
<circle cx="143.512" cy="176.574" r="4.60" fill="#eaf1fe" stroke="#2e78e6" stroke-width="0.3"/>
<text x="143.512" y="178.37" font-size="5.20" text-anchor="middle" fill="#14306e" font-weight="bold">10</text>
<text x="205.0" y="295.0" font-size="3.2" text-anchor="end" fill="#737373" font-family="sans-serif">6 / 6</text>
<g pointer-events="none"><text x="105.0" y="83.2" text-anchor="middle" font-family="sans-serif" font-size="12.4" fill="#9aa0a6" fill-opacity="0.3" transform="rotate(-28 105.0 83.2)">papercraft.kr</text><text x="105.0" y="148.5" text-anchor="middle" font-family="sans-serif" font-size="12.4" fill="#9aa0a6" fill-opacity="0.3" transform="rotate(-28 105.0 148.5)">papercraft.kr</text><text x="105.0" y="213.8" text-anchor="middle" font-family="sans-serif" font-size="12.4" fill="#9aa0a6" fill-opacity="0.3" transform="rotate(-28 105.0 213.8)">papercraft.kr</text></g></svg>
