<svg xmlns="http://www.w3.org/2000/svg" xmlns:xlink="http://www.w3.org/1999/xlink" width="210.00mm" height="297.00mm" viewBox="0 0 210.00 297.00">
<rect x="0" y="0" width="210.00" height="297.00" fill="#ffffff" stroke="#cccccc" stroke-width="0.2"/>
<polygon points="57.482,162.444 61.418,169.444 79.786,169.444 83.722,162.444" fill="rgb(216,216,216)"/>
<polygon points="57.482,96.842 61.418,89.843 79.786,89.843 83.722,96.842" fill="rgb(216,216,216)"/>
<polygon points="83.722,162.444 90.722,152.604 90.722,106.683 83.722,96.842" fill="rgb(216,216,216)"/>
<polygon points="57.482,188.685 53.545,195.685 35.177,195.685 31.241,188.685" fill="rgb(216,216,216)"/>
<polygon points="31.241,162.444 24.241,152.604 24.241,106.683 31.241,96.842" fill="rgb(216,216,216)"/>
<polygon points="31.241,162.444 24.241,166.381 24.241,184.749 31.241,188.685" fill="rgb(216,216,216)"/>
<polygon points="31.241,96.842 24.241,92.906 24.241,74.538 31.241,70.602" fill="rgb(216,216,216)"/>
<polygon points="57.482,162.444 61.418,169.444 79.786,169.444 83.722,162.444" fill="#99d9fa"/>
<line x1="57.481" y1="162.444" x2="57.481" y2="96.843" stroke="#8c8c8c" stroke-width="0.3" stroke-dasharray="1.2,0.8"/>
<line x1="57.481" y1="162.444" x2="31.241" y2="162.444" stroke="#8c8c8c" stroke-width="0.3" stroke-dasharray="1.2,0.8"/>
<line x1="31.241" y1="96.843" x2="57.481" y2="96.843" stroke="#8c8c8c" stroke-width="0.3" stroke-dasharray="1.2,0.8"/>
<line x1="31.241" y1="70.602" x2="57.481" y2="70.602" stroke="#8c8c8c" stroke-width="0.3" stroke-dasharray="1.2,0.8"/>
<line x1="31.241" y1="70.602" x2="31.241" y2="5.0" stroke="#8c8c8c" stroke-width="0.3" stroke-dasharray="1.2,0.8"/>
<line x1="83.722" y1="162.444" x2="57.482" y2="162.444" stroke="#8c8c8c" stroke-width="0.3" stroke-dasharray="1.2,0.8"/>
<line x1="83.722" y1="96.842" x2="57.482" y2="96.842" stroke="#8c8c8c" stroke-width="0.3" stroke-dasharray="1.2,0.8"/>
<line x1="83.722" y1="96.842" x2="83.722" y2="162.444" stroke="#8c8c8c" stroke-width="0.3" stroke-dasharray="1.2,0.8"/>
<line x1="31.241" y1="188.685" x2="57.482" y2="188.685" stroke="#8c8c8c" stroke-width="0.3" stroke-dasharray="1.2,0.8"/>
<line x1="31.241" y1="96.842" x2="31.241" y2="162.444" stroke="#8c8c8c" stroke-width="0.3" stroke-dasharray="1.2,0.8"/>
<line x1="31.241" y1="188.685" x2="31.241" y2="162.444" stroke="#8c8c8c" stroke-width="0.3" stroke-dasharray="1.2,0.8"/>
<line x1="31.241" y1="70.602" x2="31.241" y2="96.842" stroke="#8c8c8c" stroke-width="0.3" stroke-dasharray="1.2,0.8"/>
<line x1="57.481" y1="162.444" x2="57.481" y2="188.685" stroke="#141414" stroke-width="0.4"/>
<line x1="57.481" y1="70.602" x2="57.481" y2="96.843" stroke="#141414" stroke-width="0.4"/>
<line x1="57.481" y1="5.0" x2="57.481" y2="70.602" stroke="#141414" stroke-width="0.4"/>
<line x1="31.241" y1="5.0" x2="57.481" y2="5.0" stroke="#141414" stroke-width="0.4"/>
<line x1="5.0" y1="70.602" x2="5.0" y2="5.0" stroke="#141414" stroke-width="0.4"/>
<line x1="5.0" y1="5.0" x2="31.241" y2="5.0" stroke="#141414" stroke-width="0.4"/>
<line x1="31.241" y1="70.602" x2="5.0" y2="70.602" stroke="#141414" stroke-width="0.4"/>
<line x1="57.482" y1="162.444" x2="61.418" y2="169.444" stroke="#141414" stroke-width="0.4"/>
<line x1="61.418" y1="169.444" x2="79.786" y2="169.444" stroke="#141414" stroke-width="0.4"/>
<line x1="79.786" y1="169.444" x2="83.722" y2="162.444" stroke="#141414" stroke-width="0.4"/>
<line x1="57.482" y1="96.842" x2="61.418" y2="89.843" stroke="#141414" stroke-width="0.4"/>
<line x1="61.418" y1="89.843" x2="79.786" y2="89.843" stroke="#141414" stroke-width="0.4"/>
<line x1="79.786" y1="89.843" x2="83.722" y2="96.842" stroke="#141414" stroke-width="0.4"/>
<line x1="83.722" y1="162.444" x2="90.722" y2="152.604" stroke="#141414" stroke-width="0.4"/>
<line x1="90.722" y1="152.604" x2="90.722" y2="106.683" stroke="#141414" stroke-width="0.4"/>
<line x1="90.722" y1="106.683" x2="83.722" y2="96.842" stroke="#141414" stroke-width="0.4"/>
<line x1="57.482" y1="188.685" x2="53.545" y2="195.685" stroke="#141414" stroke-width="0.4"/>
<line x1="53.545" y1="195.685" x2="35.177" y2="195.685" stroke="#141414" stroke-width="0.4"/>
<line x1="35.177" y1="195.685" x2="31.241" y2="188.685" stroke="#141414" stroke-width="0.4"/>
<line x1="31.241" y1="162.444" x2="24.241" y2="152.604" stroke="#141414" stroke-width="0.4"/>
<line x1="24.241" y1="152.604" x2="24.241" y2="106.683" stroke="#141414" stroke-width="0.4"/>
<line x1="24.241" y1="106.683" x2="31.241" y2="96.842" stroke="#141414" stroke-width="0.4"/>
<line x1="31.241" y1="162.444" x2="24.241" y2="166.381" stroke="#141414" stroke-width="0.4"/>
<line x1="24.241" y1="166.381" x2="24.241" y2="184.749" stroke="#141414" stroke-width="0.4"/>
<line x1="24.241" y1="184.749" x2="31.241" y2="188.685" stroke="#141414" stroke-width="0.4"/>
<line x1="31.241" y1="96.842" x2="24.241" y2="92.906" stroke="#141414" stroke-width="0.4"/>
<line x1="24.241" y1="92.906" x2="24.241" y2="74.538" stroke="#141414" stroke-width="0.4"/>
<line x1="24.241" y1="74.538" x2="31.241" y2="70.602" stroke="#141414" stroke-width="0.4"/>
<circle cx="70.602" cy="165.944" r="2.60" fill="#99d9fa" stroke="#464646" stroke-width="0.2"/>
<text x="70.602" y="167.18" font-size="3.52" text-anchor="middle" fill="#141414">43</text>
<circle cx="70.602" cy="93.342" r="2.60" fill="#ffe082" stroke="#464646" stroke-width="0.2"/>
<text x="70.602" y="94.58" font-size="3.52" text-anchor="middle" fill="#141414">44</text>
<circle cx="87.222" cy="129.643" r="2.60" fill="#ffe082" stroke="#464646" stroke-width="0.2"/>
<text x="87.222" y="130.88" font-size="3.52" text-anchor="middle" fill="#141414">45</text>
<circle cx="44.361" cy="192.185" r="2.60" fill="#ffe082" stroke="#464646" stroke-width="0.2"/>
<text x="44.361" y="193.42" font-size="3.52" text-anchor="middle" fill="#141414">46</text>
<circle cx="27.741" cy="129.643" r="2.60" fill="#ffe082" stroke="#464646" stroke-width="0.2"/>
<text x="27.741" y="130.88" font-size="3.52" text-anchor="middle" fill="#141414">47</text>
<circle cx="27.741" cy="175.565" r="2.60" fill="#ffe082" stroke="#464646" stroke-width="0.2"/>
<text x="27.741" y="176.80" font-size="3.52" text-anchor="middle" fill="#141414">48</text>
<circle cx="27.741" cy="83.722" r="2.60" fill="#ffe082" stroke="#464646" stroke-width="0.2"/>
<text x="27.741" y="84.96" font-size="3.52" text-anchor="middle" fill="#141414">49</text>
<circle cx="39.988" cy="179.938" r="4.60" fill="#eaf1fe" stroke="#2e78e6" stroke-width="0.3"/>
<text x="39.988" y="181.74" font-size="5.20" text-anchor="middle" fill="#14306e" font-weight="bold">7</text>
<polygon points="146.204,162.444 150.14,169.444 168.508,169.444 172.444,162.444" fill="rgb(216,216,216)"/>
<polygon points="146.204,96.842 150.14,89.843 168.508,89.843 172.444,96.842" fill="rgb(216,216,216)"/>
<polygon points="172.444,162.444 179.444,152.604 179.444,106.683 172.444,96.842" fill="rgb(216,216,216)"/>
<polygon points="146.204,188.685 142.267,195.685 123.899,195.685 119.963,188.685" fill="rgb(216,216,216)"/>
<polygon points="119.963,162.444 112.963,152.604 112.963,106.683 119.963,96.842" fill="rgb(216,216,216)"/>
<polygon points="119.963,162.444 112.963,166.381 112.963,184.749 119.963,188.685" fill="rgb(216,216,216)"/>
<polygon points="119.963,96.842 112.963,92.906 112.963,74.538 119.963,70.602" fill="rgb(216,216,216)"/>
<polygon points="146.204,162.444 150.14,169.444 168.508,169.444 172.444,162.444" fill="#99d9fa"/>
<line x1="146.204" y1="162.444" x2="146.204" y2="96.843" stroke="#8c8c8c" stroke-width="0.3" stroke-dasharray="1.2,0.8"/>
<line x1="146.204" y1="162.444" x2="119.963" y2="162.444" stroke="#8c8c8c" stroke-width="0.3" stroke-dasharray="1.2,0.8"/>
<line x1="119.963" y1="96.843" x2="146.204" y2="96.843" stroke="#8c8c8c" stroke-width="0.3" stroke-dasharray="1.2,0.8"/>
<line x1="119.963" y1="70.602" x2="146.204" y2="70.602" stroke="#8c8c8c" stroke-width="0.3" stroke-dasharray="1.2,0.8"/>
<line x1="119.963" y1="70.602" x2="119.963" y2="5.0" stroke="#8c8c8c" stroke-width="0.3" stroke-dasharray="1.2,0.8"/>
<line x1="172.444" y1="162.444" x2="146.204" y2="162.444" stroke="#8c8c8c" stroke-width="0.3" stroke-dasharray="1.2,0.8"/>
<line x1="172.444" y1="96.842" x2="146.204" y2="96.842" stroke="#8c8c8c" stroke-width="0.3" stroke-dasharray="1.2,0.8"/>
<line x1="172.444" y1="96.842" x2="172.444" y2="162.444" stroke="#8c8c8c" stroke-width="0.3" stroke-dasharray="1.2,0.8"/>
<line x1="119.963" y1="188.685" x2="146.204" y2="188.685" stroke="#8c8c8c" stroke-width="0.3" stroke-dasharray="1.2,0.8"/>
<line x1="119.963" y1="96.842" x2="119.963" y2="162.444" stroke="#8c8c8c" stroke-width="0.3" stroke-dasharray="1.2,0.8"/>
<line x1="119.963" y1="188.685" x2="119.963" y2="162.444" stroke="#8c8c8c" stroke-width="0.3" stroke-dasharray="1.2,0.8"/>
<line x1="119.963" y1="70.602" x2="119.963" y2="96.842" stroke="#8c8c8c" stroke-width="0.3" stroke-dasharray="1.2,0.8"/>
<line x1="146.204" y1="162.444" x2="146.204" y2="188.685" stroke="#141414" stroke-width="0.4"/>
<line x1="146.204" y1="70.602" x2="146.204" y2="96.843" stroke="#141414" stroke-width="0.4"/>
<line x1="146.204" y1="5.0" x2="146.204" y2="70.602" stroke="#141414" stroke-width="0.4"/>
<line x1="119.963" y1="5.0" x2="146.204" y2="5.0" stroke="#141414" stroke-width="0.4"/>
<line x1="93.722" y1="70.602" x2="93.722" y2="5.0" stroke="#141414" stroke-width="0.4"/>
<line x1="93.722" y1="5.0" x2="119.963" y2="5.0" stroke="#141414" stroke-width="0.4"/>
<line x1="119.963" y1="70.602" x2="93.722" y2="70.602" stroke="#141414" stroke-width="0.4"/>
<line x1="146.204" y1="162.444" x2="150.14" y2="169.444" stroke="#141414" stroke-width="0.4"/>
<line x1="150.14" y1="169.444" x2="168.508" y2="169.444" stroke="#141414" stroke-width="0.4"/>
<line x1="168.508" y1="169.444" x2="172.444" y2="162.444" stroke="#141414" stroke-width="0.4"/>
<line x1="146.204" y1="96.842" x2="150.14" y2="89.843" stroke="#141414" stroke-width="0.4"/>
<line x1="150.14" y1="89.843" x2="168.508" y2="89.843" stroke="#141414" stroke-width="0.4"/>
<line x1="168.508" y1="89.843" x2="172.444" y2="96.842" stroke="#141414" stroke-width="0.4"/>
<line x1="172.444" y1="162.444" x2="179.444" y2="152.604" stroke="#141414" stroke-width="0.4"/>
<line x1="179.444" y1="152.604" x2="179.444" y2="106.683" stroke="#141414" stroke-width="0.4"/>
<line x1="179.444" y1="106.683" x2="172.444" y2="96.842" stroke="#141414" stroke-width="0.4"/>
<line x1="146.204" y1="188.685" x2="142.267" y2="195.685" stroke="#141414" stroke-width="0.4"/>
<line x1="142.267" y1="195.685" x2="123.899" y2="195.685" stroke="#141414" stroke-width="0.4"/>
<line x1="123.899" y1="195.685" x2="119.963" y2="188.685" stroke="#141414" stroke-width="0.4"/>
<line x1="119.963" y1="162.444" x2="112.963" y2="152.604" stroke="#141414" stroke-width="0.4"/>
<line x1="112.963" y1="152.604" x2="112.963" y2="106.683" stroke="#141414" stroke-width="0.4"/>
<line x1="112.963" y1="106.683" x2="119.963" y2="96.842" stroke="#141414" stroke-width="0.4"/>
<line x1="119.963" y1="162.444" x2="112.963" y2="166.381" stroke="#141414" stroke-width="0.4"/>
<line x1="112.963" y1="166.381" x2="112.963" y2="184.749" stroke="#141414" stroke-width="0.4"/>
<line x1="112.963" y1="184.749" x2="119.963" y2="188.685" stroke="#141414" stroke-width="0.4"/>
<line x1="119.963" y1="96.842" x2="112.963" y2="92.906" stroke="#141414" stroke-width="0.4"/>
<line x1="112.963" y1="92.906" x2="112.963" y2="74.538" stroke="#141414" stroke-width="0.4"/>
<line x1="112.963" y1="74.538" x2="119.963" y2="70.602" stroke="#141414" stroke-width="0.4"/>
<circle cx="159.324" cy="165.944" r="2.60" fill="#99d9fa" stroke="#464646" stroke-width="0.2"/>
<text x="159.324" y="167.18" font-size="3.52" text-anchor="middle" fill="#141414">50</text>
<circle cx="159.324" cy="93.342" r="2.60" fill="#ffe082" stroke="#464646" stroke-width="0.2"/>
<text x="159.324" y="94.58" font-size="3.52" text-anchor="middle" fill="#141414">51</text>
<circle cx="175.944" cy="129.643" r="2.60" fill="#ffe082" stroke="#464646" stroke-width="0.2"/>
<text x="175.944" y="130.88" font-size="3.52" text-anchor="middle" fill="#141414">52</text>
<circle cx="133.083" cy="192.185" r="2.60" fill="#ffe082" stroke="#464646" stroke-width="0.2"/>
<text x="133.083" y="193.42" font-size="3.52" text-anchor="middle" fill="#141414">53</text>
<circle cx="116.463" cy="129.643" r="2.60" fill="#ffe082" stroke="#464646" stroke-width="0.2"/>
<text x="116.463" y="130.88" font-size="3.52" text-anchor="middle" fill="#141414">54</text>
<circle cx="116.463" cy="175.565" r="2.60" fill="#ffe082" stroke="#464646" stroke-width="0.2"/>
<text x="116.463" y="176.80" font-size="3.52" text-anchor="middle" fill="#141414">55</text>
<circle cx="116.463" cy="83.722" r="2.60" fill="#ffe082" stroke="#464646" stroke-width="0.2"/>
<text x="116.463" y="84.96" font-size="3.52" text-anchor="middle" fill="#141414">56</text>
<circle cx="128.71" cy="179.938" r="4.60" fill="#eaf1fe" stroke="#2e78e6" stroke-width="0.3"/>
<text x="128.71" y="181.74" font-size="5.20" text-anchor="middle" fill="#14306e" font-weight="bold">8</text>
<text x="205.0" y="295.0" font-size="3.2" text-anchor="end" fill="#737373" font-family="sans-serif">5 / 6</text>
<g pointer-events="none"><text x="105.0" y="83.2" text-anchor="middle" font-family="sans-serif" font-size="12.4" fill="#9aa0a6" fill-opacity="0.3" transform="rotate(-28 105.0 83.2)">papercraft.kr</text><text x="105.0" y="148.5" text-anchor="middle" font-family="sans-serif" font-size="12.4" fill="#9aa0a6" fill-opacity="0.3" transform="rotate(-28 105.0 148.5)">papercraft.kr</text><text x="105.0" y="213.8" text-anchor="middle" font-family="sans-serif" font-size="12.4" fill="#9aa0a6" fill-opacity="0.3" transform="rotate(-28 105.0 213.8)">papercraft.kr</text></g></svg>
