<svg xmlns="http://www.w3.org/2000/svg" xmlns:xlink="http://www.w3.org/1999/xlink" width="210.00mm" height="297.00mm" viewBox="0 0 210.00 297.00">
<rect x="0" y="0" width="210.00" height="297.00" fill="#ffffff" stroke="#cccccc" stroke-width="0.2"/>
<polygon points="93.26,115.774 104.799,122.774 158.647,122.774 170.186,115.774" fill="rgb(216,216,216)"/>
<polygon points="93.26,98.85 104.799,91.85 158.647,91.85 170.186,98.85" fill="rgb(216,216,216)"/>
<polygon points="170.186,115.774 177.186,113.235 177.186,101.389 170.186,98.85" fill="rgb(216,216,216)"/>
<polygon points="93.26,192.701 91.56,198.367 83.626,198.367 81.926,192.701" fill="rgb(216,216,216)"/>
<polygon points="81.926,115.774 74.926,113.235 74.926,101.389 81.926,98.85" fill="rgb(216,216,216)"/>
<polygon points="81.926,115.774 74.926,127.313 74.926,181.162 81.926,192.701" fill="rgb(216,216,216)"/>
<polygon points="81.926,98.85 74.926,87.311 74.926,33.463 81.926,21.924" fill="rgb(216,216,216)"/>
<polygon points="93.26,115.774 104.799,122.774 158.647,122.774 170.186,115.774" fill="#99d9fa"/>
<line x1="93.26" y1="115.774" x2="93.26" y2="98.85" stroke="#8c8c8c" stroke-width="0.3" stroke-dasharray="1.2,0.8"/>
<line x1="93.26" y1="115.774" x2="81.926" y2="115.774" stroke="#8c8c8c" stroke-width="0.3" stroke-dasharray="1.2,0.8"/>
<line x1="81.926" y1="98.85" x2="93.26" y2="98.85" stroke="#8c8c8c" stroke-width="0.3" stroke-dasharray="1.2,0.8"/>
<line x1="81.926" y1="21.924" x2="93.26" y2="21.924" stroke="#8c8c8c" stroke-width="0.3" stroke-dasharray="1.2,0.8"/>
<line x1="81.926" y1="21.924" x2="81.926" y2="5.0" stroke="#8c8c8c" stroke-width="0.3" stroke-dasharray="1.2,0.8"/>
<line x1="170.186" y1="115.774" x2="93.26" y2="115.774" stroke="#8c8c8c" stroke-width="0.3" stroke-dasharray="1.2,0.8"/>
<line x1="170.186" y1="98.85" x2="93.26" y2="98.85" stroke="#8c8c8c" stroke-width="0.3" stroke-dasharray="1.2,0.8"/>
<line x1="170.186" y1="98.85" x2="170.186" y2="115.774" stroke="#8c8c8c" stroke-width="0.3" stroke-dasharray="1.2,0.8"/>
<line x1="81.926" y1="192.701" x2="93.26" y2="192.701" stroke="#8c8c8c" stroke-width="0.3" stroke-dasharray="1.2,0.8"/>
<line x1="81.926" y1="98.85" x2="81.926" y2="115.774" stroke="#8c8c8c" stroke-width="0.3" stroke-dasharray="1.2,0.8"/>
<line x1="81.926" y1="192.701" x2="81.926" y2="115.774" stroke="#8c8c8c" stroke-width="0.3" stroke-dasharray="1.2,0.8"/>
<line x1="81.926" y1="21.924" x2="81.926" y2="98.85" stroke="#8c8c8c" stroke-width="0.3" stroke-dasharray="1.2,0.8"/>
<line x1="93.26" y1="115.774" x2="93.26" y2="192.701" stroke="#141414" stroke-width="0.4"/>
<line x1="93.26" y1="21.924" x2="93.26" y2="98.85" stroke="#141414" stroke-width="0.4"/>
<line x1="93.26" y1="5.0" x2="93.26" y2="21.924" stroke="#141414" stroke-width="0.4"/>
<line x1="81.926" y1="5.0" x2="93.26" y2="5.0" stroke="#141414" stroke-width="0.4"/>
<line x1="5.0" y1="21.924" x2="5.0" y2="5.0" stroke="#141414" stroke-width="0.4"/>
<line x1="5.0" y1="5.0" x2="81.926" y2="5.0" stroke="#141414" stroke-width="0.4"/>
<line x1="81.926" y1="21.924" x2="5.0" y2="21.924" stroke="#141414" stroke-width="0.4"/>
<line x1="93.26" y1="115.774" x2="104.799" y2="122.774" stroke="#141414" stroke-width="0.4"/>
<line x1="104.799" y1="122.774" x2="158.647" y2="122.774" stroke="#141414" stroke-width="0.4"/>
<line x1="158.647" y1="122.774" x2="170.186" y2="115.774" stroke="#141414" stroke-width="0.4"/>
<line x1="93.26" y1="98.85" x2="104.799" y2="91.85" stroke="#141414" stroke-width="0.4"/>
<line x1="104.799" y1="91.85" x2="158.647" y2="91.85" stroke="#141414" stroke-width="0.4"/>
<line x1="158.647" y1="91.85" x2="170.186" y2="98.85" stroke="#141414" stroke-width="0.4"/>
<line x1="170.186" y1="115.774" x2="177.186" y2="113.235" stroke="#141414" stroke-width="0.4"/>
<line x1="177.186" y1="113.235" x2="177.186" y2="101.389" stroke="#141414" stroke-width="0.4"/>
<line x1="177.186" y1="101.389" x2="170.186" y2="98.85" stroke="#141414" stroke-width="0.4"/>
<line x1="93.26" y1="192.701" x2="91.56" y2="198.367" stroke="#141414" stroke-width="0.4"/>
<line x1="91.56" y1="198.367" x2="83.626" y2="198.367" stroke="#141414" stroke-width="0.4"/>
<line x1="83.626" y1="198.367" x2="81.926" y2="192.701" stroke="#141414" stroke-width="0.4"/>
<line x1="81.926" y1="115.774" x2="74.926" y2="113.235" stroke="#141414" stroke-width="0.4"/>
<line x1="74.926" y1="113.235" x2="74.926" y2="101.389" stroke="#141414" stroke-width="0.4"/>
<line x1="74.926" y1="101.389" x2="81.926" y2="98.85" stroke="#141414" stroke-width="0.4"/>
<line x1="81.926" y1="115.774" x2="74.926" y2="127.313" stroke="#141414" stroke-width="0.4"/>
<line x1="74.926" y1="127.313" x2="74.926" y2="181.162" stroke="#141414" stroke-width="0.4"/>
<line x1="74.926" y1="181.162" x2="81.926" y2="192.701" stroke="#141414" stroke-width="0.4"/>
<line x1="81.926" y1="98.85" x2="74.926" y2="87.311" stroke="#141414" stroke-width="0.4"/>
<line x1="74.926" y1="87.311" x2="74.926" y2="33.463" stroke="#141414" stroke-width="0.4"/>
<line x1="74.926" y1="33.463" x2="81.926" y2="21.924" stroke="#141414" stroke-width="0.4"/>
<circle cx="131.723" cy="119.274" r="2.49" fill="#99d9fa" stroke="#464646" stroke-width="0.2"/>
<text x="131.723" y="120.46" font-size="3.38" text-anchor="middle" fill="#141414">46</text>
<circle cx="131.723" cy="95.35" r="2.49" fill="#ffe082" stroke="#464646" stroke-width="0.2"/>
<text x="131.723" y="96.53" font-size="3.38" text-anchor="middle" fill="#141414">47</text>
<circle cx="173.686" cy="107.312" r="2.49" fill="#ffe082" stroke="#464646" stroke-width="0.2"/>
<text x="173.686" y="108.50" font-size="3.38" text-anchor="middle" fill="#141414">48</text>
<circle cx="87.593" cy="195.534" r="2.49" fill="#ffe082" stroke="#464646" stroke-width="0.2"/>
<text x="87.593" y="196.72" font-size="3.38" text-anchor="middle" fill="#141414">49</text>
<circle cx="78.426" cy="107.312" r="2.49" fill="#ffe082" stroke="#464646" stroke-width="0.2"/>
<text x="78.426" y="108.50" font-size="3.38" text-anchor="middle" fill="#141414">50</text>
<circle cx="78.426" cy="154.237" r="2.49" fill="#ffe082" stroke="#464646" stroke-width="0.2"/>
<text x="78.426" y="155.42" font-size="3.38" text-anchor="middle" fill="#141414">51</text>
<circle cx="78.426" cy="60.387" r="2.49" fill="#ffe082" stroke="#464646" stroke-width="0.2"/>
<text x="78.426" y="61.57" font-size="3.38" text-anchor="middle" fill="#141414">52</text>
<circle cx="85.704" cy="167.058" r="2.99" fill="#eaf1fe" stroke="#2e78e6" stroke-width="0.3"/>
<text x="85.704" y="168.23" font-size="3.38" text-anchor="middle" fill="#14306e" font-weight="bold">7</text>
<text x="205.0" y="295.0" font-size="3.2" text-anchor="end" fill="#737373" font-family="sans-serif">5 / 5</text>
</svg>
