<svg xmlns="http://www.w3.org/2000/svg" xmlns:xlink="http://www.w3.org/1999/xlink" width="210.00mm" height="297.00mm" viewBox="0 0 210.00 297.00">
<rect x="0" y="0" width="210.00" height="297.00" fill="#ffffff" stroke="#cccccc" stroke-width="0.2"/>
<polygon points="26.539,175.777 29.078,182.777 40.925,182.777 43.463,175.777" fill="rgb(216,216,216)"/>
<polygon points="26.539,98.85 29.078,91.85 40.925,91.85 43.463,98.85" fill="rgb(216,216,216)"/>
<polygon points="43.463,175.777 50.463,164.238 50.463,110.389 43.463,98.85" fill="rgb(216,216,216)"/>
<polygon points="26.539,192.701 25.847,195.931 22.616,195.931 21.924,192.701" fill="rgb(216,216,216)"/>
<polygon points="21.924,175.777 14.924,164.238 14.924,110.389 21.924,98.85" fill="rgb(216,216,216)"/>
<polygon points="21.924,175.777 14.924,178.315 14.924,190.162 21.924,192.701" fill="rgb(216,216,216)"/>
<polygon points="21.924,98.85 14.924,96.312 14.924,84.465 21.924,81.926" fill="rgb(216,216,216)"/>
<line x1="26.539" y1="175.777" x2="26.539" y2="98.85" stroke="#8c8c8c" stroke-width="0.3" stroke-dasharray="1.2,0.8"/>
<line x1="26.539" y1="175.777" x2="21.924" y2="175.777" stroke="#8c8c8c" stroke-width="0.3" stroke-dasharray="1.2,0.8"/>
<line x1="21.924" y1="98.85" x2="26.539" y2="98.85" stroke="#8c8c8c" stroke-width="0.3" stroke-dasharray="1.2,0.8"/>
<line x1="21.924" y1="81.926" x2="26.539" y2="81.926" stroke="#8c8c8c" stroke-width="0.3" stroke-dasharray="1.2,0.8"/>
<line x1="21.924" y1="81.926" x2="21.924" y2="5.0" stroke="#8c8c8c" stroke-width="0.3" stroke-dasharray="1.2,0.8"/>
<line x1="43.463" y1="175.777" x2="26.539" y2="175.777" stroke="#8c8c8c" stroke-width="0.3" stroke-dasharray="1.2,0.8"/>
<line x1="43.463" y1="98.85" x2="26.539" y2="98.85" stroke="#8c8c8c" stroke-width="0.3" stroke-dasharray="1.2,0.8"/>
<line x1="43.463" y1="98.85" x2="43.463" y2="175.777" stroke="#8c8c8c" stroke-width="0.3" stroke-dasharray="1.2,0.8"/>
<line x1="21.924" y1="192.701" x2="26.539" y2="192.701" stroke="#8c8c8c" stroke-width="0.3" stroke-dasharray="1.2,0.8"/>
<line x1="21.924" y1="98.85" x2="21.924" y2="175.777" stroke="#8c8c8c" stroke-width="0.3" stroke-dasharray="1.2,0.8"/>
<line x1="21.924" y1="192.701" x2="21.924" y2="175.777" stroke="#8c8c8c" stroke-width="0.3" stroke-dasharray="1.2,0.8"/>
<line x1="21.924" y1="81.926" x2="21.924" y2="98.85" stroke="#8c8c8c" stroke-width="0.3" stroke-dasharray="1.2,0.8"/>
<line x1="26.539" y1="175.777" x2="26.539" y2="192.701" stroke="#141414" stroke-width="0.4"/>
<line x1="26.539" y1="81.926" x2="26.539" y2="98.85" stroke="#141414" stroke-width="0.4"/>
<line x1="26.539" y1="5.0" x2="26.539" y2="81.926" stroke="#141414" stroke-width="0.4"/>
<line x1="21.924" y1="5.0" x2="26.539" y2="5.0" stroke="#141414" stroke-width="0.4"/>
<line x1="5.0" y1="81.926" x2="5.0" y2="5.0" stroke="#141414" stroke-width="0.4"/>
<line x1="5.0" y1="5.0" x2="21.924" y2="5.0" stroke="#141414" stroke-width="0.4"/>
<line x1="21.924" y1="81.926" x2="5.0" y2="81.926" stroke="#141414" stroke-width="0.4"/>
<line x1="26.539" y1="175.777" x2="29.078" y2="182.777" stroke="#141414" stroke-width="0.4"/>
<line x1="29.078" y1="182.777" x2="40.925" y2="182.777" stroke="#141414" stroke-width="0.4"/>
<line x1="40.925" y1="182.777" x2="43.463" y2="175.777" stroke="#141414" stroke-width="0.4"/>
<line x1="26.539" y1="98.85" x2="29.078" y2="91.85" stroke="#141414" stroke-width="0.4"/>
<line x1="29.078" y1="91.85" x2="40.925" y2="91.85" stroke="#141414" stroke-width="0.4"/>
<line x1="40.925" y1="91.85" x2="43.463" y2="98.85" stroke="#141414" stroke-width="0.4"/>
<line x1="43.463" y1="175.777" x2="50.463" y2="164.238" stroke="#141414" stroke-width="0.4"/>
<line x1="50.463" y1="164.238" x2="50.463" y2="110.389" stroke="#141414" stroke-width="0.4"/>
<line x1="50.463" y1="110.389" x2="43.463" y2="98.85" stroke="#141414" stroke-width="0.4"/>
<line x1="26.539" y1="192.701" x2="25.847" y2="195.931" stroke="#141414" stroke-width="0.4"/>
<line x1="25.847" y1="195.931" x2="22.616" y2="195.931" stroke="#141414" stroke-width="0.4"/>
<line x1="22.616" y1="195.931" x2="21.924" y2="192.701" stroke="#141414" stroke-width="0.4"/>
<line x1="21.924" y1="175.777" x2="14.924" y2="164.238" stroke="#141414" stroke-width="0.4"/>
<line x1="14.924" y1="164.238" x2="14.924" y2="110.389" stroke="#141414" stroke-width="0.4"/>
<line x1="14.924" y1="110.389" x2="21.924" y2="98.85" stroke="#141414" stroke-width="0.4"/>
<line x1="21.924" y1="175.777" x2="14.924" y2="178.315" stroke="#141414" stroke-width="0.4"/>
<line x1="14.924" y1="178.315" x2="14.924" y2="190.162" stroke="#141414" stroke-width="0.4"/>
<line x1="14.924" y1="190.162" x2="21.924" y2="192.701" stroke="#141414" stroke-width="0.4"/>
<line x1="21.924" y1="98.85" x2="14.924" y2="96.312" stroke="#141414" stroke-width="0.4"/>
<line x1="14.924" y1="96.312" x2="14.924" y2="84.465" stroke="#141414" stroke-width="0.4"/>
<line x1="14.924" y1="84.465" x2="21.924" y2="81.926" stroke="#141414" stroke-width="0.4"/>
<circle cx="35.001" cy="179.277" r="1.42" fill="#ffe082" stroke="#464646" stroke-width="0.2"/>
<text x="35.001" y="179.95" font-size="1.93" text-anchor="middle" fill="#141414">25</text>
<circle cx="35.001" cy="95.35" r="1.42" fill="#ffe082" stroke="#464646" stroke-width="0.2"/>
<text x="35.001" y="96.03" font-size="1.93" text-anchor="middle" fill="#141414">26</text>
<circle cx="46.963" cy="137.314" r="1.42" fill="#ffe082" stroke="#464646" stroke-width="0.2"/>
<text x="46.963" y="137.99" font-size="1.93" text-anchor="middle" fill="#141414">27</text>
<circle cx="24.232" cy="194.316" r="1.42" fill="#ffe082" stroke="#464646" stroke-width="0.2"/>
<text x="24.232" y="194.99" font-size="1.93" text-anchor="middle" fill="#141414">28</text>
<circle cx="18.424" cy="137.314" r="1.42" fill="#ffe082" stroke="#464646" stroke-width="0.2"/>
<text x="18.424" y="137.99" font-size="1.93" text-anchor="middle" fill="#141414">29</text>
<circle cx="18.424" cy="184.239" r="1.42" fill="#ffe082" stroke="#464646" stroke-width="0.2"/>
<text x="18.424" y="184.91" font-size="1.93" text-anchor="middle" fill="#141414">30</text>
<circle cx="18.424" cy="90.388" r="1.42" fill="#ffe082" stroke="#464646" stroke-width="0.2"/>
<text x="18.424" y="91.06" font-size="1.93" text-anchor="middle" fill="#141414">31</text>
<circle cx="27.732" cy="202.031" r="4.6" fill="#eaf1fe" stroke="#2e78e6" stroke-width="0.3"/>
<text x="27.732" y="203.83100000000002" font-size="5.2" text-anchor="middle" fill="#14306e" font-weight="bold">4</text>
<polygon points="75.003,175.777 77.541,182.777 89.388,182.777 91.927,175.777" fill="rgb(216,216,216)"/>
<polygon points="75.003,98.85 77.541,91.85 89.388,91.85 91.927,98.85" fill="rgb(216,216,216)"/>
<polygon points="91.927,175.777 98.927,164.238 98.927,110.389 91.927,98.85" fill="rgb(216,216,216)"/>
<polygon points="75.003,192.701 74.31,195.931 71.079,195.931 70.387,192.701" fill="rgb(216,216,216)"/>
<polygon points="70.387,175.777 63.387,164.238 63.387,110.389 70.387,98.85" fill="rgb(216,216,216)"/>
<polygon points="70.387,175.777 63.387,178.315 63.387,190.162 70.387,192.701" fill="rgb(216,216,216)"/>
<polygon points="70.387,98.85 63.387,96.312 63.387,84.465 70.387,81.926" fill="rgb(216,216,216)"/>
<line x1="75.003" y1="175.777" x2="75.003" y2="98.85" stroke="#8c8c8c" stroke-width="0.3" stroke-dasharray="1.2,0.8"/>
<line x1="75.003" y1="175.777" x2="70.387" y2="175.777" stroke="#8c8c8c" stroke-width="0.3" stroke-dasharray="1.2,0.8"/>
<line x1="70.387" y1="98.85" x2="75.003" y2="98.85" stroke="#8c8c8c" stroke-width="0.3" stroke-dasharray="1.2,0.8"/>
<line x1="70.387" y1="81.926" x2="75.003" y2="81.926" stroke="#8c8c8c" stroke-width="0.3" stroke-dasharray="1.2,0.8"/>
<line x1="70.387" y1="81.926" x2="70.387" y2="5.0" stroke="#8c8c8c" stroke-width="0.3" stroke-dasharray="1.2,0.8"/>
<line x1="91.927" y1="175.777" x2="75.003" y2="175.777" stroke="#8c8c8c" stroke-width="0.3" stroke-dasharray="1.2,0.8"/>
<line x1="91.927" y1="98.85" x2="75.003" y2="98.85" stroke="#8c8c8c" stroke-width="0.3" stroke-dasharray="1.2,0.8"/>
<line x1="91.927" y1="98.85" x2="91.927" y2="175.777" stroke="#8c8c8c" stroke-width="0.3" stroke-dasharray="1.2,0.8"/>
<line x1="70.387" y1="192.701" x2="75.003" y2="192.701" stroke="#8c8c8c" stroke-width="0.3" stroke-dasharray="1.2,0.8"/>
<line x1="70.387" y1="98.85" x2="70.387" y2="175.777" stroke="#8c8c8c" stroke-width="0.3" stroke-dasharray="1.2,0.8"/>
<line x1="70.387" y1="192.701" x2="70.387" y2="175.777" stroke="#8c8c8c" stroke-width="0.3" stroke-dasharray="1.2,0.8"/>
<line x1="70.387" y1="81.926" x2="70.387" y2="98.85" stroke="#8c8c8c" stroke-width="0.3" stroke-dasharray="1.2,0.8"/>
<line x1="75.003" y1="175.777" x2="75.003" y2="192.701" stroke="#141414" stroke-width="0.4"/>
<line x1="75.003" y1="81.926" x2="75.003" y2="98.85" stroke="#141414" stroke-width="0.4"/>
<line x1="75.003" y1="5.0" x2="75.003" y2="81.926" stroke="#141414" stroke-width="0.4"/>
<line x1="70.387" y1="5.0" x2="75.003" y2="5.0" stroke="#141414" stroke-width="0.4"/>
<line x1="53.463" y1="81.926" x2="53.463" y2="5.0" stroke="#141414" stroke-width="0.4"/>
<line x1="53.463" y1="5.0" x2="70.387" y2="5.0" stroke="#141414" stroke-width="0.4"/>
<line x1="70.387" y1="81.926" x2="53.463" y2="81.926" stroke="#141414" stroke-width="0.4"/>
<line x1="75.003" y1="175.777" x2="77.541" y2="182.777" stroke="#141414" stroke-width="0.4"/>
<line x1="77.541" y1="182.777" x2="89.388" y2="182.777" stroke="#141414" stroke-width="0.4"/>
<line x1="89.388" y1="182.777" x2="91.927" y2="175.777" stroke="#141414" stroke-width="0.4"/>
<line x1="75.003" y1="98.85" x2="77.541" y2="91.85" stroke="#141414" stroke-width="0.4"/>
<line x1="77.541" y1="91.85" x2="89.388" y2="91.85" stroke="#141414" stroke-width="0.4"/>
<line x1="89.388" y1="91.85" x2="91.927" y2="98.85" stroke="#141414" stroke-width="0.4"/>
<line x1="91.927" y1="175.777" x2="98.927" y2="164.238" stroke="#141414" stroke-width="0.4"/>
<line x1="98.927" y1="164.238" x2="98.927" y2="110.389" stroke="#141414" stroke-width="0.4"/>
<line x1="98.927" y1="110.389" x2="91.927" y2="98.85" stroke="#141414" stroke-width="0.4"/>
<line x1="75.003" y1="192.701" x2="74.31" y2="195.931" stroke="#141414" stroke-width="0.4"/>
<line x1="74.31" y1="195.931" x2="71.079" y2="195.931" stroke="#141414" stroke-width="0.4"/>
<line x1="71.079" y1="195.931" x2="70.387" y2="192.701" stroke="#141414" stroke-width="0.4"/>
<line x1="70.387" y1="175.777" x2="63.387" y2="164.238" stroke="#141414" stroke-width="0.4"/>
<line x1="63.387" y1="164.238" x2="63.387" y2="110.389" stroke="#141414" stroke-width="0.4"/>
<line x1="63.387" y1="110.389" x2="70.387" y2="98.85" stroke="#141414" stroke-width="0.4"/>
<line x1="70.387" y1="175.777" x2="63.387" y2="178.315" stroke="#141414" stroke-width="0.4"/>
<line x1="63.387" y1="178.315" x2="63.387" y2="190.162" stroke="#141414" stroke-width="0.4"/>
<line x1="63.387" y1="190.162" x2="70.387" y2="192.701" stroke="#141414" stroke-width="0.4"/>
<line x1="70.387" y1="98.85" x2="63.387" y2="96.312" stroke="#141414" stroke-width="0.4"/>
<line x1="63.387" y1="96.312" x2="63.387" y2="84.465" stroke="#141414" stroke-width="0.4"/>
<line x1="63.387" y1="84.465" x2="70.387" y2="81.926" stroke="#141414" stroke-width="0.4"/>
<circle cx="83.465" cy="179.277" r="1.42" fill="#ffe082" stroke="#464646" stroke-width="0.2"/>
<text x="83.465" y="179.95" font-size="1.93" text-anchor="middle" fill="#141414">39</text>
<circle cx="83.465" cy="95.35" r="1.42" fill="#ffe082" stroke="#464646" stroke-width="0.2"/>
<text x="83.465" y="96.03" font-size="1.93" text-anchor="middle" fill="#141414">40</text>
<circle cx="95.427" cy="137.314" r="1.42" fill="#ffe082" stroke="#464646" stroke-width="0.2"/>
<text x="95.427" y="137.99" font-size="1.93" text-anchor="middle" fill="#141414">41</text>
<circle cx="72.695" cy="194.316" r="1.42" fill="#ffe082" stroke="#464646" stroke-width="0.2"/>
<text x="72.695" y="194.99" font-size="1.93" text-anchor="middle" fill="#141414">42</text>
<circle cx="66.887" cy="137.314" r="1.42" fill="#ffe082" stroke="#464646" stroke-width="0.2"/>
<text x="66.887" y="137.99" font-size="1.93" text-anchor="middle" fill="#141414">43</text>
<circle cx="66.887" cy="184.239" r="1.42" fill="#ffe082" stroke="#464646" stroke-width="0.2"/>
<text x="66.887" y="184.91" font-size="1.93" text-anchor="middle" fill="#141414">44</text>
<circle cx="66.887" cy="90.388" r="1.42" fill="#ffe082" stroke="#464646" stroke-width="0.2"/>
<text x="66.887" y="91.06" font-size="1.93" text-anchor="middle" fill="#141414">45</text>
<circle cx="76.195" cy="202.031" r="4.6" fill="#eaf1fe" stroke="#2e78e6" stroke-width="0.3"/>
<text x="76.195" y="203.83100000000002" font-size="5.2" text-anchor="middle" fill="#14306e" font-weight="bold">6</text>
</svg>
