<svg xmlns="http://www.w3.org/2000/svg" xmlns:xlink="http://www.w3.org/1999/xlink" width="210.00mm" height="297.00mm" viewBox="0 0 210.00 297.00">
<rect x="0" y="0" width="210.00" height="297.00" fill="#ffffff" stroke="#cccccc" stroke-width="0.2"/>
<polygon points="87.339,41.218 82.223,35.275 88.532,20.045 96.351,19.46" fill="rgb(216,216,216)"/>
<polygon points="50.461,69.239 42.302,63.697 10.48,69.899 5.0,78.098" fill="rgb(216,216,216)"/>
<polygon points="96.351,62.976 96.936,70.795 112.167,77.104 118.109,71.988" fill="rgb(216,216,216)"/>
<polygon points="118.109,71.988 124.052,77.104 139.282,70.795 139.867,62.976" fill="rgb(216,216,216)"/>
<polygon points="139.867,62.976 147.686,62.391 153.995,47.16 148.88,41.218" fill="rgb(216,216,216)"/>
<polygon points="148.88,41.218 153.995,35.275 147.686,20.045 139.867,19.46" fill="rgb(216,216,216)"/>
<polygon points="139.867,19.46 139.282,11.641 124.052,5.332 118.109,10.447" fill="rgb(216,216,216)"/>
<polygon points="118.109,10.447 112.167,5.332 96.936,11.641 96.351,19.46" fill="rgb(216,216,216)"/>
<polygon points="87.339,41.218 82.223,35.275 88.532,20.045 96.351,19.46" fill="#99d9fa"/>
<line x1="50.461" y1="69.239" x2="87.339" y2="41.218" stroke="#8c8c8c" stroke-width="0.3" stroke-dasharray="1.2,0.8"/>
<line x1="96.351" y1="62.976" x2="87.339" y2="41.218" stroke="#8c8c8c" stroke-width="0.3" stroke-dasharray="1.2,0.8"/>
<line x1="96.351" y1="62.976" x2="50.461" y2="69.239" stroke="#8c8c8c" stroke-width="0.3" stroke-dasharray="1.2,0.8"/>
<line x1="93.498" y1="86.353" x2="50.461" y2="69.239" stroke="#8c8c8c" stroke-width="0.3" stroke-dasharray="1.2,0.8"/>
<line x1="79.518" y1="105.306" x2="50.461" y2="69.239" stroke="#8c8c8c" stroke-width="0.3" stroke-dasharray="1.2,0.8"/>
<line x1="58.025" y1="114.933" x2="50.461" y2="69.239" stroke="#8c8c8c" stroke-width="0.3" stroke-dasharray="1.2,0.8"/>
<line x1="34.576" y1="112.746" x2="50.461" y2="69.239" stroke="#8c8c8c" stroke-width="0.3" stroke-dasharray="1.2,0.8"/>
<line x1="15.234" y1="99.309" x2="50.461" y2="69.239" stroke="#8c8c8c" stroke-width="0.3" stroke-dasharray="1.2,0.8"/>
<line x1="96.351" y1="19.46" x2="87.339" y2="41.218" stroke="#8c8c8c" stroke-width="0.3" stroke-dasharray="1.2,0.8"/>
<line x1="5.0" y1="78.098" x2="50.461" y2="69.239" stroke="#8c8c8c" stroke-width="0.3" stroke-dasharray="1.2,0.8"/>
<line x1="118.109" y1="71.988" x2="96.351" y2="62.976" stroke="#8c8c8c" stroke-width="0.3" stroke-dasharray="1.2,0.8"/>
<line x1="139.867" y1="62.976" x2="118.109" y2="71.988" stroke="#8c8c8c" stroke-width="0.3" stroke-dasharray="1.2,0.8"/>
<line x1="148.88" y1="41.218" x2="139.867" y2="62.976" stroke="#8c8c8c" stroke-width="0.3" stroke-dasharray="1.2,0.8"/>
<line x1="139.867" y1="19.46" x2="148.88" y2="41.218" stroke="#8c8c8c" stroke-width="0.3" stroke-dasharray="1.2,0.8"/>
<line x1="118.109" y1="10.447" x2="139.867" y2="19.46" stroke="#8c8c8c" stroke-width="0.3" stroke-dasharray="1.2,0.8"/>
<line x1="96.351" y1="19.46" x2="118.109" y2="10.447" stroke="#8c8c8c" stroke-width="0.3" stroke-dasharray="1.2,0.8"/>
<line x1="68.791" y1="26.705" x2="87.339" y2="41.218" stroke="#141414" stroke-width="0.4"/>
<line x1="50.461" y1="69.239" x2="68.791" y2="26.705" stroke="#141414" stroke-width="0.4"/>
<line x1="96.351" y1="62.976" x2="93.498" y2="86.353" stroke="#141414" stroke-width="0.4"/>
<line x1="93.498" y1="86.353" x2="79.518" y2="105.306" stroke="#141414" stroke-width="0.4"/>
<line x1="79.518" y1="105.306" x2="58.025" y2="114.933" stroke="#141414" stroke-width="0.4"/>
<line x1="58.025" y1="114.933" x2="34.576" y2="112.746" stroke="#141414" stroke-width="0.4"/>
<line x1="34.576" y1="112.746" x2="15.234" y2="99.309" stroke="#141414" stroke-width="0.4"/>
<line x1="15.234" y1="99.309" x2="5.0" y2="78.098" stroke="#141414" stroke-width="0.4"/>
<line x1="87.339" y1="41.218" x2="82.223" y2="35.275" stroke="#141414" stroke-width="0.4"/>
<line x1="82.223" y1="35.275" x2="88.532" y2="20.045" stroke="#141414" stroke-width="0.4"/>
<line x1="88.532" y1="20.045" x2="96.351" y2="19.46" stroke="#141414" stroke-width="0.4"/>
<line x1="50.461" y1="69.239" x2="42.302" y2="63.697" stroke="#141414" stroke-width="0.4"/>
<line x1="42.302" y1="63.697" x2="10.48" y2="69.899" stroke="#141414" stroke-width="0.4"/>
<line x1="10.48" y1="69.899" x2="5.0" y2="78.098" stroke="#141414" stroke-width="0.4"/>
<line x1="96.351" y1="62.976" x2="96.936" y2="70.795" stroke="#141414" stroke-width="0.4"/>
<line x1="96.936" y1="70.795" x2="112.167" y2="77.104" stroke="#141414" stroke-width="0.4"/>
<line x1="112.167" y1="77.104" x2="118.109" y2="71.988" stroke="#141414" stroke-width="0.4"/>
<line x1="118.109" y1="71.988" x2="124.052" y2="77.104" stroke="#141414" stroke-width="0.4"/>
<line x1="124.052" y1="77.104" x2="139.282" y2="70.795" stroke="#141414" stroke-width="0.4"/>
<line x1="139.282" y1="70.795" x2="139.867" y2="62.976" stroke="#141414" stroke-width="0.4"/>
<line x1="139.867" y1="62.976" x2="147.686" y2="62.391" stroke="#141414" stroke-width="0.4"/>
<line x1="147.686" y1="62.391" x2="153.995" y2="47.16" stroke="#141414" stroke-width="0.4"/>
<line x1="153.995" y1="47.16" x2="148.88" y2="41.218" stroke="#141414" stroke-width="0.4"/>
<line x1="148.88" y1="41.218" x2="153.995" y2="35.275" stroke="#141414" stroke-width="0.4"/>
<line x1="153.995" y1="35.275" x2="147.686" y2="20.045" stroke="#141414" stroke-width="0.4"/>
<line x1="147.686" y1="20.045" x2="139.867" y2="19.46" stroke="#141414" stroke-width="0.4"/>
<line x1="139.867" y1="19.46" x2="139.282" y2="11.641" stroke="#141414" stroke-width="0.4"/>
<line x1="139.282" y1="11.641" x2="124.052" y2="5.332" stroke="#141414" stroke-width="0.4"/>
<line x1="124.052" y1="5.332" x2="118.109" y2="10.447" stroke="#141414" stroke-width="0.4"/>
<line x1="118.109" y1="10.447" x2="112.167" y2="5.332" stroke="#141414" stroke-width="0.4"/>
<line x1="112.167" y1="5.332" x2="96.936" y2="11.641" stroke="#141414" stroke-width="0.4"/>
<line x1="96.936" y1="11.641" x2="96.351" y2="19.46" stroke="#141414" stroke-width="0.4"/>
<circle cx="88.611" cy="28.999" r="2.49" fill="#99d9fa" stroke="#464646" stroke-width="0.2"/>
<text x="88.611" y="30.18" font-size="3.38" text-anchor="middle" fill="#141414">10</text>
<circle cx="27.061" cy="70.233" r="2.49" fill="#ffe082" stroke="#464646" stroke-width="0.2"/>
<text x="27.061" y="71.42" font-size="3.38" text-anchor="middle" fill="#141414">11</text>
<circle cx="105.891" cy="70.716" r="2.49" fill="#ffe082" stroke="#464646" stroke-width="0.2"/>
<text x="105.891" y="71.90" font-size="3.38" text-anchor="middle" fill="#141414">12</text>
<circle cx="130.328" cy="70.716" r="2.49" fill="#ffe082" stroke="#464646" stroke-width="0.2"/>
<text x="130.328" y="71.90" font-size="3.38" text-anchor="middle" fill="#141414">13</text>
<circle cx="147.607" cy="53.436" r="2.49" fill="#ffe082" stroke="#464646" stroke-width="0.2"/>
<text x="147.607" y="54.62" font-size="3.38" text-anchor="middle" fill="#141414">14</text>
<circle cx="147.607" cy="28.999" r="2.49" fill="#ffe082" stroke="#464646" stroke-width="0.2"/>
<text x="147.607" y="30.18" font-size="3.38" text-anchor="middle" fill="#141414">15</text>
<circle cx="130.328" cy="11.72" r="2.49" fill="#ffe082" stroke="#464646" stroke-width="0.2"/>
<text x="130.328" y="12.90" font-size="3.38" text-anchor="middle" fill="#141414">16</text>
<circle cx="105.891" cy="11.72" r="2.49" fill="#ffe082" stroke="#464646" stroke-width="0.2"/>
<text x="105.891" y="12.90" font-size="3.38" text-anchor="middle" fill="#141414">17</text>
<circle cx="135.619" cy="48.47" r="4.60" fill="#eaf1fe" stroke="#2e78e6" stroke-width="0.3"/>
<text x="135.619" y="50.27" font-size="5.20" text-anchor="middle" fill="#14306e" font-weight="bold">2</text>
<polygon points="44.543,149.785 41.659,156.785 28.196,156.785 25.312,149.785" fill="rgb(216,216,216)"/>
<polygon points="44.543,136.832 46.486,130.356 55.553,130.356 57.496,136.832" fill="rgb(216,216,216)"/>
<polygon points="44.543,136.832 41.659,129.832 28.196,129.832 25.312,136.832" fill="rgb(216,216,216)"/>
<polygon points="57.496,149.785 64.496,152.67 64.496,166.132 57.496,169.016" fill="rgb(216,216,216)"/>
<polygon points="12.359,117.601 5.359,120.486 5.359,133.948 12.359,136.832" fill="rgb(216,216,216)"/>
<polygon points="44.543,169.016 46.486,175.493 55.553,175.493 57.496,169.016" fill="rgb(216,216,216)"/>
<polygon points="76.727,149.785 83.204,147.842 83.204,138.775 76.727,136.832" fill="rgb(216,216,216)"/>
<polygon points="44.543,149.785 41.659,156.785 28.196,156.785 25.312,149.785" fill="#99d9fa"/>
<line x1="44.543" y1="149.785" x2="44.543" y2="136.832" stroke="#8c8c8c" stroke-width="0.3" stroke-dasharray="1.2,0.8"/>
<line x1="57.496" y1="149.785" x2="44.543" y2="149.785" stroke="#8c8c8c" stroke-width="0.3" stroke-dasharray="1.2,0.8"/>
<line x1="57.496" y1="136.832" x2="57.496" y2="149.785" stroke="#8c8c8c" stroke-width="0.3" stroke-dasharray="1.2,0.8"/>
<line x1="25.312" y1="149.785" x2="25.312" y2="136.832" stroke="#8c8c8c" stroke-width="0.3" stroke-dasharray="1.2,0.8"/>
<line x1="25.312" y1="136.832" x2="12.359" y2="136.832" stroke="#8c8c8c" stroke-width="0.3" stroke-dasharray="1.2,0.8"/>
<line x1="25.312" y1="149.785" x2="44.543" y2="149.785" stroke="#8c8c8c" stroke-width="0.3" stroke-dasharray="1.2,0.8"/>
<line x1="57.496" y1="136.832" x2="44.543" y2="136.832" stroke="#8c8c8c" stroke-width="0.3" stroke-dasharray="1.2,0.8"/>
<line x1="25.312" y1="136.832" x2="44.543" y2="136.832" stroke="#8c8c8c" stroke-width="0.3" stroke-dasharray="1.2,0.8"/>
<line x1="57.496" y1="169.016" x2="57.496" y2="149.785" stroke="#8c8c8c" stroke-width="0.3" stroke-dasharray="1.2,0.8"/>
<line x1="12.359" y1="136.832" x2="12.359" y2="117.601" stroke="#8c8c8c" stroke-width="0.3" stroke-dasharray="1.2,0.8"/>
<line x1="57.496" y1="169.016" x2="44.543" y2="169.016" stroke="#8c8c8c" stroke-width="0.3" stroke-dasharray="1.2,0.8"/>
<line x1="76.727" y1="136.832" x2="76.727" y2="149.785" stroke="#8c8c8c" stroke-width="0.3" stroke-dasharray="1.2,0.8"/>
<line x1="44.543" y1="169.017" x2="44.543" y2="149.785" stroke="#141414" stroke-width="0.4"/>
<line x1="12.359" y1="117.601" x2="25.312" y2="117.601" stroke="#141414" stroke-width="0.4"/>
<line x1="25.312" y1="117.601" x2="25.312" y2="136.832" stroke="#141414" stroke-width="0.4"/>
<line x1="76.727" y1="149.785" x2="57.496" y2="149.785" stroke="#141414" stroke-width="0.4"/>
<line x1="57.496" y1="136.832" x2="76.727" y2="136.832" stroke="#141414" stroke-width="0.4"/>
<line x1="25.312" y1="149.785" x2="12.359" y2="149.785" stroke="#141414" stroke-width="0.4"/>
<line x1="12.359" y1="149.785" x2="12.359" y2="136.832" stroke="#141414" stroke-width="0.4"/>
<line x1="44.543" y1="149.785" x2="41.659" y2="156.785" stroke="#141414" stroke-width="0.4"/>
<line x1="41.659" y1="156.785" x2="28.196" y2="156.785" stroke="#141414" stroke-width="0.4"/>
<line x1="28.196" y1="156.785" x2="25.312" y2="149.785" stroke="#141414" stroke-width="0.4"/>
<line x1="44.543" y1="136.832" x2="46.486" y2="130.356" stroke="#141414" stroke-width="0.4"/>
<line x1="46.486" y1="130.356" x2="55.553" y2="130.356" stroke="#141414" stroke-width="0.4"/>
<line x1="55.553" y1="130.356" x2="57.496" y2="136.832" stroke="#141414" stroke-width="0.4"/>
<line x1="44.543" y1="136.832" x2="41.659" y2="129.832" stroke="#141414" stroke-width="0.4"/>
<line x1="41.659" y1="129.832" x2="28.196" y2="129.832" stroke="#141414" stroke-width="0.4"/>
<line x1="28.196" y1="129.832" x2="25.312" y2="136.832" stroke="#141414" stroke-width="0.4"/>
<line x1="57.496" y1="149.785" x2="64.496" y2="152.67" stroke="#141414" stroke-width="0.4"/>
<line x1="64.496" y1="152.67" x2="64.496" y2="166.132" stroke="#141414" stroke-width="0.4"/>
<line x1="64.496" y1="166.132" x2="57.496" y2="169.016" stroke="#141414" stroke-width="0.4"/>
<line x1="12.359" y1="117.601" x2="5.359" y2="120.486" stroke="#141414" stroke-width="0.4"/>
<line x1="5.359" y1="120.486" x2="5.359" y2="133.948" stroke="#141414" stroke-width="0.4"/>
<line x1="5.359" y1="133.948" x2="12.359" y2="136.832" stroke="#141414" stroke-width="0.4"/>
<line x1="44.543" y1="169.016" x2="46.486" y2="175.493" stroke="#141414" stroke-width="0.4"/>
<line x1="46.486" y1="175.493" x2="55.553" y2="175.493" stroke="#141414" stroke-width="0.4"/>
<line x1="55.553" y1="175.493" x2="57.496" y2="169.016" stroke="#141414" stroke-width="0.4"/>
<line x1="76.727" y1="149.785" x2="83.204" y2="147.842" stroke="#141414" stroke-width="0.4"/>
<line x1="83.204" y1="147.842" x2="83.204" y2="138.775" stroke="#141414" stroke-width="0.4"/>
<line x1="83.204" y1="138.775" x2="76.727" y2="136.832" stroke="#141414" stroke-width="0.4"/>
<circle cx="34.927" cy="153.285" r="2.49" fill="#99d9fa" stroke="#464646" stroke-width="0.2"/>
<text x="34.927" y="154.47" font-size="3.38" text-anchor="middle" fill="#141414">18</text>
<circle cx="51.02" cy="133.594" r="2.49" fill="#ffe082" stroke="#464646" stroke-width="0.2"/>
<text x="51.02" y="134.78" font-size="3.38" text-anchor="middle" fill="#141414">19</text>
<circle cx="34.927" cy="133.332" r="2.49" fill="#ffe082" stroke="#464646" stroke-width="0.2"/>
<text x="34.927" y="134.52" font-size="3.38" text-anchor="middle" fill="#141414">20</text>
<circle cx="60.996" cy="159.401" r="2.49" fill="#ffe082" stroke="#464646" stroke-width="0.2"/>
<text x="60.996" y="160.59" font-size="3.38" text-anchor="middle" fill="#141414">21</text>
<circle cx="8.859" cy="127.217" r="2.49" fill="#ffe082" stroke="#464646" stroke-width="0.2"/>
<text x="8.859" y="128.40" font-size="3.38" text-anchor="middle" fill="#141414">22</text>
<circle cx="51.02" cy="172.255" r="2.49" fill="#ffe082" stroke="#464646" stroke-width="0.2"/>
<text x="51.02" y="173.44" font-size="3.38" text-anchor="middle" fill="#141414">23</text>
<circle cx="79.965" cy="143.309" r="2.49" fill="#ffe082" stroke="#464646" stroke-width="0.2"/>
<text x="79.965" y="144.49" font-size="3.38" text-anchor="middle" fill="#141414">24</text>
<circle cx="53.178" cy="162.606" r="2.86" fill="#eaf1fe" stroke="#2e78e6" stroke-width="0.3"/>
<text x="53.178" y="163.73" font-size="3.24" text-anchor="middle" fill="#14306e" font-weight="bold">3</text>
<text x="205.0" y="295.0" font-size="3.2" text-anchor="end" fill="#737373" font-family="sans-serif">2 / 5</text>
</svg>
