<svg xmlns="http://www.w3.org/2000/svg" xmlns:xlink="http://www.w3.org/1999/xlink" width="210.00mm" height="297.00mm" viewBox="0 0 210.00 297.00">
<rect x="0" y="0" width="210.00" height="297.00" fill="#ffffff" stroke="#cccccc" stroke-width="0.2"/>
<polygon points="10.608,46.436 5.951,50.234 9.035,57.678 15.013,57.071" fill="rgb(216,216,216)"/>
<polygon points="10.608,46.436 5.951,42.638 9.035,35.193 15.013,35.801" fill="rgb(216,216,216)"/>
<polygon points="67.574,85.14 74.213,86.128 75.975,90.382 71.979,95.775" fill="rgb(216,216,216)"/>
<polygon points="15.013,57.071 14.406,63.05 21.85,66.133 25.648,61.476" fill="rgb(216,216,216)"/>
<polygon points="63.168,74.504 67.164,69.111 65.402,64.857 58.763,63.869" fill="rgb(216,216,216)"/>
<polygon points="25.648,61.476 29.446,66.133 36.891,63.05 36.284,57.071" fill="rgb(216,216,216)"/>
<polygon points="58.763,63.869 63.42,60.071 60.336,52.627 54.358,53.234" fill="rgb(216,216,216)"/>
<polygon points="36.284,57.071 42.923,56.083 44.685,51.829 40.689,46.436" fill="rgb(216,216,216)"/>
<polygon points="54.358,53.234 59.015,49.436 55.931,41.992 49.953,42.599" fill="rgb(216,216,216)"/>
<polygon points="49.953,42.599 54.609,38.801 51.526,31.356 45.547,31.964" fill="rgb(216,216,216)"/>
<polygon points="36.284,35.801 35.296,29.161 31.041,27.399 25.648,31.395" fill="rgb(216,216,216)"/>
<polygon points="45.547,31.964 50.204,28.166 47.12,20.721 41.142,21.328" fill="rgb(216,216,216)"/>
<polygon points="25.648,31.395 21.85,26.738 14.406,29.822 15.013,35.801" fill="rgb(216,216,216)"/>
<polygon points="41.142,21.328 45.799,17.53 42.715,10.086 36.737,10.693" fill="rgb(216,216,216)"/>
<polygon points="27.473,14.53 26.944,9.323 33.429,6.637 36.737,10.693" fill="rgb(216,216,216)"/>
<line x1="67.574" y1="85.14" x2="58.31" y2="88.977" stroke="#8c8c8c" stroke-width="0.3" stroke-dasharray="1.2,0.8"/>
<line x1="63.168" y1="74.504" x2="67.574" y2="85.14" stroke="#8c8c8c" stroke-width="0.3" stroke-dasharray="1.2,0.8"/>
<line x1="53.905" y1="78.342" x2="63.168" y2="74.504" stroke="#8c8c8c" stroke-width="0.3" stroke-dasharray="1.2,0.8"/>
<line x1="49.499" y1="67.707" x2="58.763" y2="63.869" stroke="#8c8c8c" stroke-width="0.3" stroke-dasharray="1.2,0.8"/>
<line x1="45.094" y1="57.071" x2="54.358" y2="53.234" stroke="#8c8c8c" stroke-width="0.3" stroke-dasharray="1.2,0.8"/>
<line x1="40.689" y1="46.436" x2="49.953" y2="42.599" stroke="#8c8c8c" stroke-width="0.3" stroke-dasharray="1.2,0.8"/>
<line x1="36.284" y1="35.801" x2="40.689" y2="46.436" stroke="#8c8c8c" stroke-width="0.3" stroke-dasharray="1.2,0.8"/>
<line x1="36.284" y1="35.801" x2="45.547" y2="31.963" stroke="#8c8c8c" stroke-width="0.3" stroke-dasharray="1.2,0.8"/>
<line x1="31.878" y1="25.165" x2="41.142" y2="21.328" stroke="#8c8c8c" stroke-width="0.3" stroke-dasharray="1.2,0.8"/>
<line x1="15.013" y1="57.071" x2="10.608" y2="46.436" stroke="#8c8c8c" stroke-width="0.3" stroke-dasharray="1.2,0.8"/>
<line x1="15.013" y1="35.801" x2="10.608" y2="46.436" stroke="#8c8c8c" stroke-width="0.3" stroke-dasharray="1.2,0.8"/>
<line x1="71.979" y1="95.775" x2="67.574" y2="85.14" stroke="#8c8c8c" stroke-width="0.3" stroke-dasharray="1.2,0.8"/>
<line x1="25.648" y1="61.476" x2="15.013" y2="57.071" stroke="#8c8c8c" stroke-width="0.3" stroke-dasharray="1.2,0.8"/>
<line x1="58.763" y1="63.869" x2="63.168" y2="74.504" stroke="#8c8c8c" stroke-width="0.3" stroke-dasharray="1.2,0.8"/>
<line x1="36.284" y1="57.071" x2="25.648" y2="61.476" stroke="#8c8c8c" stroke-width="0.3" stroke-dasharray="1.2,0.8"/>
<line x1="54.358" y1="53.234" x2="58.763" y2="63.869" stroke="#8c8c8c" stroke-width="0.3" stroke-dasharray="1.2,0.8"/>
<line x1="40.689" y1="46.436" x2="36.284" y2="57.071" stroke="#8c8c8c" stroke-width="0.3" stroke-dasharray="1.2,0.8"/>
<line x1="49.953" y1="42.599" x2="54.358" y2="53.234" stroke="#8c8c8c" stroke-width="0.3" stroke-dasharray="1.2,0.8"/>
<line x1="45.547" y1="31.964" x2="49.953" y2="42.599" stroke="#8c8c8c" stroke-width="0.3" stroke-dasharray="1.2,0.8"/>
<line x1="25.648" y1="31.395" x2="36.284" y2="35.801" stroke="#8c8c8c" stroke-width="0.3" stroke-dasharray="1.2,0.8"/>
<line x1="41.142" y1="21.328" x2="45.547" y2="31.964" stroke="#8c8c8c" stroke-width="0.3" stroke-dasharray="1.2,0.8"/>
<line x1="15.013" y1="35.801" x2="25.648" y2="31.395" stroke="#8c8c8c" stroke-width="0.3" stroke-dasharray="1.2,0.8"/>
<line x1="36.737" y1="10.693" x2="41.142" y2="21.328" stroke="#8c8c8c" stroke-width="0.3" stroke-dasharray="1.2,0.8"/>
<line x1="36.737" y1="10.693" x2="27.473" y2="14.53" stroke="#8c8c8c" stroke-width="0.3" stroke-dasharray="1.2,0.8"/>
<line x1="58.31" y1="88.977" x2="53.905" y2="78.342" stroke="#141414" stroke-width="0.4"/>
<line x1="62.715" y1="99.612" x2="58.31" y2="88.977" stroke="#141414" stroke-width="0.4"/>
<line x1="78.209" y1="89.545" x2="67.574" y2="85.14" stroke="#141414" stroke-width="0.4"/>
<line x1="53.905" y1="78.342" x2="49.499" y2="67.707" stroke="#141414" stroke-width="0.4"/>
<line x1="63.168" y1="74.504" x2="67.574" y2="63.869" stroke="#141414" stroke-width="0.4"/>
<line x1="49.499" y1="67.707" x2="45.094" y2="57.071" stroke="#141414" stroke-width="0.4"/>
<line x1="67.574" y1="63.869" x2="78.209" y2="59.464" stroke="#141414" stroke-width="0.4"/>
<line x1="45.094" y1="57.071" x2="40.689" y2="46.436" stroke="#141414" stroke-width="0.4"/>
<line x1="78.209" y1="59.464" x2="88.844" y2="63.869" stroke="#141414" stroke-width="0.4"/>
<line x1="88.844" y1="63.869" x2="93.249" y2="74.504" stroke="#141414" stroke-width="0.4"/>
<line x1="36.284" y1="35.801" x2="31.878" y2="25.165" stroke="#141414" stroke-width="0.4"/>
<line x1="93.249" y1="74.504" x2="88.844" y2="85.14" stroke="#141414" stroke-width="0.4"/>
<line x1="31.878" y1="25.165" x2="27.473" y2="14.53" stroke="#141414" stroke-width="0.4"/>
<line x1="88.844" y1="85.14" x2="78.209" y2="89.545" stroke="#141414" stroke-width="0.4"/>
<line x1="71.979" y1="95.775" x2="62.715" y2="99.612" stroke="#141414" stroke-width="0.4"/>
<line x1="10.608" y1="46.436" x2="5.951" y2="50.234" stroke="#141414" stroke-width="0.4"/>
<line x1="5.951" y1="50.234" x2="9.035" y2="57.678" stroke="#141414" stroke-width="0.4"/>
<line x1="9.035" y1="57.678" x2="15.013" y2="57.071" stroke="#141414" stroke-width="0.4"/>
<line x1="10.608" y1="46.436" x2="5.951" y2="42.638" stroke="#141414" stroke-width="0.4"/>
<line x1="5.951" y1="42.638" x2="9.035" y2="35.193" stroke="#141414" stroke-width="0.4"/>
<line x1="9.035" y1="35.193" x2="15.013" y2="35.801" stroke="#141414" stroke-width="0.4"/>
<line x1="67.574" y1="85.14" x2="74.213" y2="86.128" stroke="#141414" stroke-width="0.4"/>
<line x1="74.213" y1="86.128" x2="75.975" y2="90.382" stroke="#141414" stroke-width="0.4"/>
<line x1="75.975" y1="90.382" x2="71.979" y2="95.775" stroke="#141414" stroke-width="0.4"/>
<line x1="15.013" y1="57.071" x2="14.406" y2="63.05" stroke="#141414" stroke-width="0.4"/>
<line x1="14.406" y1="63.05" x2="21.85" y2="66.133" stroke="#141414" stroke-width="0.4"/>
<line x1="21.85" y1="66.133" x2="25.648" y2="61.476" stroke="#141414" stroke-width="0.4"/>
<line x1="63.168" y1="74.504" x2="67.164" y2="69.111" stroke="#141414" stroke-width="0.4"/>
<line x1="67.164" y1="69.111" x2="65.402" y2="64.857" stroke="#141414" stroke-width="0.4"/>
<line x1="65.402" y1="64.857" x2="58.763" y2="63.869" stroke="#141414" stroke-width="0.4"/>
<line x1="25.648" y1="61.476" x2="29.446" y2="66.133" stroke="#141414" stroke-width="0.4"/>
<line x1="29.446" y1="66.133" x2="36.891" y2="63.05" stroke="#141414" stroke-width="0.4"/>
<line x1="36.891" y1="63.05" x2="36.284" y2="57.071" stroke="#141414" stroke-width="0.4"/>
<line x1="58.763" y1="63.869" x2="63.42" y2="60.071" stroke="#141414" stroke-width="0.4"/>
<line x1="63.42" y1="60.071" x2="60.336" y2="52.627" stroke="#141414" stroke-width="0.4"/>
<line x1="60.336" y1="52.627" x2="54.358" y2="53.234" stroke="#141414" stroke-width="0.4"/>
<line x1="36.284" y1="57.071" x2="42.923" y2="56.083" stroke="#141414" stroke-width="0.4"/>
<line x1="42.923" y1="56.083" x2="44.685" y2="51.829" stroke="#141414" stroke-width="0.4"/>
<line x1="44.685" y1="51.829" x2="40.689" y2="46.436" stroke="#141414" stroke-width="0.4"/>
<line x1="54.358" y1="53.234" x2="59.015" y2="49.436" stroke="#141414" stroke-width="0.4"/>
<line x1="59.015" y1="49.436" x2="55.931" y2="41.992" stroke="#141414" stroke-width="0.4"/>
<line x1="55.931" y1="41.992" x2="49.953" y2="42.599" stroke="#141414" stroke-width="0.4"/>
<line x1="49.953" y1="42.599" x2="54.609" y2="38.801" stroke="#141414" stroke-width="0.4"/>
<line x1="54.609" y1="38.801" x2="51.526" y2="31.356" stroke="#141414" stroke-width="0.4"/>
<line x1="51.526" y1="31.356" x2="45.547" y2="31.964" stroke="#141414" stroke-width="0.4"/>
<line x1="36.284" y1="35.801" x2="35.296" y2="29.161" stroke="#141414" stroke-width="0.4"/>
<line x1="35.296" y1="29.161" x2="31.041" y2="27.399" stroke="#141414" stroke-width="0.4"/>
<line x1="31.041" y1="27.399" x2="25.648" y2="31.395" stroke="#141414" stroke-width="0.4"/>
<line x1="45.547" y1="31.964" x2="50.204" y2="28.166" stroke="#141414" stroke-width="0.4"/>
<line x1="50.204" y1="28.166" x2="47.12" y2="20.721" stroke="#141414" stroke-width="0.4"/>
<line x1="47.12" y1="20.721" x2="41.142" y2="21.328" stroke="#141414" stroke-width="0.4"/>
<line x1="25.648" y1="31.395" x2="21.85" y2="26.738" stroke="#141414" stroke-width="0.4"/>
<line x1="21.85" y1="26.738" x2="14.406" y2="29.822" stroke="#141414" stroke-width="0.4"/>
<line x1="14.406" y1="29.822" x2="15.013" y2="35.801" stroke="#141414" stroke-width="0.4"/>
<line x1="41.142" y1="21.328" x2="45.799" y2="17.53" stroke="#141414" stroke-width="0.4"/>
<line x1="45.799" y1="17.53" x2="42.715" y2="10.086" stroke="#141414" stroke-width="0.4"/>
<line x1="42.715" y1="10.086" x2="36.737" y2="10.693" stroke="#141414" stroke-width="0.4"/>
<line x1="27.473" y1="14.53" x2="26.944" y2="9.323" stroke="#141414" stroke-width="0.4"/>
<line x1="26.944" y1="9.323" x2="33.429" y2="6.637" stroke="#141414" stroke-width="0.4"/>
<line x1="33.429" y1="6.637" x2="36.737" y2="10.693" stroke="#141414" stroke-width="0.4"/>
<circle cx="10.152" cy="52.855" r="1.50" fill="#ffe082" stroke="#464646" stroke-width="0.2"/>
<text x="10.152" y="53.57" font-size="2.03" text-anchor="middle" fill="#141414">83</text>
<circle cx="10.152" cy="40.017" r="1.50" fill="#ffe082" stroke="#464646" stroke-width="0.2"/>
<text x="10.152" y="40.73" font-size="2.03" text-anchor="middle" fill="#141414">84</text>
<circle cx="72.435" cy="89.356" r="1.50" fill="#ffe082" stroke="#464646" stroke-width="0.2"/>
<text x="72.435" y="90.07" font-size="2.03" text-anchor="middle" fill="#141414">85</text>
<circle cx="19.229" cy="61.933" r="1.50" fill="#ffe082" stroke="#464646" stroke-width="0.2"/>
<text x="19.229" y="62.64" font-size="2.03" text-anchor="middle" fill="#141414">86</text>
<circle cx="63.624" cy="68.086" r="1.50" fill="#ffe082" stroke="#464646" stroke-width="0.2"/>
<text x="63.624" y="68.80" font-size="2.03" text-anchor="middle" fill="#141414">87</text>
<circle cx="32.067" cy="61.933" r="1.50" fill="#ffe082" stroke="#464646" stroke-width="0.2"/>
<text x="32.067" y="62.64" font-size="2.03" text-anchor="middle" fill="#141414">88</text>
<circle cx="59.219" cy="57.45" r="1.50" fill="#ffe082" stroke="#464646" stroke-width="0.2"/>
<text x="59.219" y="58.16" font-size="2.03" text-anchor="middle" fill="#141414">89</text>
<circle cx="41.145" cy="52.855" r="1.50" fill="#ffe082" stroke="#464646" stroke-width="0.2"/>
<text x="41.145" y="53.57" font-size="2.03" text-anchor="middle" fill="#141414">90</text>
<circle cx="54.814" cy="46.815" r="1.50" fill="#ffe082" stroke="#464646" stroke-width="0.2"/>
<text x="54.814" y="47.53" font-size="2.03" text-anchor="middle" fill="#141414">91</text>
<circle cx="50.409" cy="36.18" r="1.50" fill="#ffe082" stroke="#464646" stroke-width="0.2"/>
<text x="50.409" y="36.89" font-size="2.03" text-anchor="middle" fill="#141414">92</text>
<circle cx="32.067" cy="30.939" r="1.50" fill="#ffe082" stroke="#464646" stroke-width="0.2"/>
<text x="32.067" y="31.65" font-size="2.03" text-anchor="middle" fill="#141414">93</text>
<circle cx="46.003" cy="25.545" r="1.50" fill="#ffe082" stroke="#464646" stroke-width="0.2"/>
<text x="46.003" y="26.26" font-size="2.03" text-anchor="middle" fill="#141414">94</text>
<circle cx="19.229" cy="30.939" r="1.50" fill="#ffe082" stroke="#464646" stroke-width="0.2"/>
<text x="19.229" y="31.65" font-size="2.03" text-anchor="middle" fill="#141414">95</text>
<circle cx="41.598" cy="14.909" r="1.50" fill="#ffe082" stroke="#464646" stroke-width="0.2"/>
<text x="41.598" y="15.62" font-size="2.03" text-anchor="middle" fill="#141414">96</text>
<circle cx="31.146" cy="10.296" r="1.50" fill="#ffe082" stroke="#464646" stroke-width="0.2"/>
<text x="31.146" y="11.01" font-size="2.03" text-anchor="middle" fill="#141414">97</text>
<circle cx="48.649" cy="104.076" r="4.6" fill="#eaf1fe" stroke="#2e78e6" stroke-width="0.3"/>
<text x="48.649" y="105.87599999999999" font-size="5.2" text-anchor="middle" fill="#14306e" font-weight="bold">9</text>
</svg>
