<svg xmlns="http://www.w3.org/2000/svg" xmlns:xlink="http://www.w3.org/1999/xlink" width="210.00mm" height="297.00mm" viewBox="0 0 210.00 297.00">
<rect x="0" y="0" width="210.00" height="297.00" fill="#ffffff" stroke="#cccccc" stroke-width="0.2"/>
<polygon points="105.907,92.137 98.303,99.137 62.814,99.137 55.21,92.137" fill="rgb(216,216,216)"/>
<polygon points="105.907,55.698 111.849,48.698 139.574,48.698 145.515,55.698" fill="rgb(216,216,216)"/>
<polygon points="105.907,55.698 98.303,48.698 62.814,48.698 55.21,55.698" fill="rgb(216,216,216)"/>
<polygon points="145.515,92.137 152.515,99.741 152.515,135.23 145.515,142.834" fill="rgb(216,216,216)"/>
<polygon points="15.602,5.0 8.602,12.605 8.602,48.093 15.602,55.698" fill="rgb(216,216,216)"/>
<polygon points="105.907,142.834 111.849,149.834 139.574,149.834 145.515,142.834" fill="rgb(216,216,216)"/>
<polygon points="196.212,92.137 203.213,86.671 203.213,61.164 196.212,55.698" fill="rgb(216,216,216)"/>
<polygon points="105.907,92.137 98.303,99.137 62.814,99.137 55.21,92.137" fill="#99d9fa"/>
<line x1="105.907" y1="92.137" x2="105.907" y2="55.698" stroke="#8c8c8c" stroke-width="0.3" stroke-dasharray="1.2,0.8"/>
<line x1="145.515" y1="92.137" x2="105.907" y2="92.137" stroke="#8c8c8c" stroke-width="0.3" stroke-dasharray="1.2,0.8"/>
<line x1="145.515" y1="55.698" x2="145.515" y2="92.137" stroke="#8c8c8c" stroke-width="0.3" stroke-dasharray="1.2,0.8"/>
<line x1="55.21" y1="92.137" x2="55.21" y2="55.698" stroke="#8c8c8c" stroke-width="0.3" stroke-dasharray="1.2,0.8"/>
<line x1="55.21" y1="55.698" x2="15.602" y2="55.698" stroke="#8c8c8c" stroke-width="0.3" stroke-dasharray="1.2,0.8"/>
<line x1="55.21" y1="92.137" x2="105.907" y2="92.137" stroke="#8c8c8c" stroke-width="0.3" stroke-dasharray="1.2,0.8"/>
<line x1="145.515" y1="55.698" x2="105.907" y2="55.698" stroke="#8c8c8c" stroke-width="0.3" stroke-dasharray="1.2,0.8"/>
<line x1="55.21" y1="55.698" x2="105.907" y2="55.698" stroke="#8c8c8c" stroke-width="0.3" stroke-dasharray="1.2,0.8"/>
<line x1="145.515" y1="142.834" x2="145.515" y2="92.137" stroke="#8c8c8c" stroke-width="0.3" stroke-dasharray="1.2,0.8"/>
<line x1="15.602" y1="55.698" x2="15.602" y2="5.0" stroke="#8c8c8c" stroke-width="0.3" stroke-dasharray="1.2,0.8"/>
<line x1="145.515" y1="142.834" x2="105.907" y2="142.834" stroke="#8c8c8c" stroke-width="0.3" stroke-dasharray="1.2,0.8"/>
<line x1="196.212" y1="55.698" x2="196.212" y2="92.137" stroke="#8c8c8c" stroke-width="0.3" stroke-dasharray="1.2,0.8"/>
<line x1="105.907" y1="142.834" x2="105.907" y2="92.137" stroke="#141414" stroke-width="0.4"/>
<line x1="15.602" y1="5.0" x2="55.21" y2="5.0" stroke="#141414" stroke-width="0.4"/>
<line x1="55.21" y1="5.0" x2="55.21" y2="55.698" stroke="#141414" stroke-width="0.4"/>
<line x1="196.213" y1="92.137" x2="145.515" y2="92.137" stroke="#141414" stroke-width="0.4"/>
<line x1="145.515" y1="55.698" x2="196.213" y2="55.698" stroke="#141414" stroke-width="0.4"/>
<line x1="55.21" y1="92.137" x2="15.602" y2="92.137" stroke="#141414" stroke-width="0.4"/>
<line x1="15.602" y1="92.137" x2="15.602" y2="55.698" stroke="#141414" stroke-width="0.4"/>
<line x1="105.907" y1="92.137" x2="98.303" y2="99.137" stroke="#141414" stroke-width="0.4"/>
<line x1="98.303" y1="99.137" x2="62.814" y2="99.137" stroke="#141414" stroke-width="0.4"/>
<line x1="62.814" y1="99.137" x2="55.21" y2="92.137" stroke="#141414" stroke-width="0.4"/>
<line x1="105.907" y1="55.698" x2="111.849" y2="48.698" stroke="#141414" stroke-width="0.4"/>
<line x1="111.849" y1="48.698" x2="139.574" y2="48.698" stroke="#141414" stroke-width="0.4"/>
<line x1="139.574" y1="48.698" x2="145.515" y2="55.698" stroke="#141414" stroke-width="0.4"/>
<line x1="105.907" y1="55.698" x2="98.303" y2="48.698" stroke="#141414" stroke-width="0.4"/>
<line x1="98.303" y1="48.698" x2="62.814" y2="48.698" stroke="#141414" stroke-width="0.4"/>
<line x1="62.814" y1="48.698" x2="55.21" y2="55.698" stroke="#141414" stroke-width="0.4"/>
<line x1="145.515" y1="92.137" x2="152.515" y2="99.741" stroke="#141414" stroke-width="0.4"/>
<line x1="152.515" y1="99.741" x2="152.515" y2="135.23" stroke="#141414" stroke-width="0.4"/>
<line x1="152.515" y1="135.23" x2="145.515" y2="142.834" stroke="#141414" stroke-width="0.4"/>
<line x1="15.602" y1="5.0" x2="8.602" y2="12.605" stroke="#141414" stroke-width="0.4"/>
<line x1="8.602" y1="12.605" x2="8.602" y2="48.093" stroke="#141414" stroke-width="0.4"/>
<line x1="8.602" y1="48.093" x2="15.602" y2="55.698" stroke="#141414" stroke-width="0.4"/>
<line x1="105.907" y1="142.834" x2="111.849" y2="149.834" stroke="#141414" stroke-width="0.4"/>
<line x1="111.849" y1="149.834" x2="139.574" y2="149.834" stroke="#141414" stroke-width="0.4"/>
<line x1="139.574" y1="149.834" x2="145.515" y2="142.834" stroke="#141414" stroke-width="0.4"/>
<line x1="196.212" y1="92.137" x2="203.213" y2="86.671" stroke="#141414" stroke-width="0.4"/>
<line x1="203.213" y1="86.671" x2="203.213" y2="61.164" stroke="#141414" stroke-width="0.4"/>
<line x1="203.213" y1="61.164" x2="196.212" y2="55.698" stroke="#141414" stroke-width="0.4"/>
<circle cx="80.559" cy="95.637" r="2.09" fill="#99d9fa" stroke="#464646" stroke-width="0.2"/>
<text x="80.559" y="96.35" font-size="2.05" text-anchor="middle" fill="#141414">1</text>
<circle cx="125.711" cy="52.198" r="2.09" fill="#ffe082" stroke="#464646" stroke-width="0.2"/>
<text x="125.711" y="52.92" font-size="2.05" text-anchor="middle" fill="#141414">2</text>
<circle cx="80.559" cy="52.198" r="2.09" fill="#ffe082" stroke="#464646" stroke-width="0.2"/>
<text x="80.559" y="52.92" font-size="2.05" text-anchor="middle" fill="#141414">3</text>
<circle cx="149.015" cy="117.486" r="2.09" fill="#ffe082" stroke="#464646" stroke-width="0.2"/>
<text x="149.015" y="118.20" font-size="2.05" text-anchor="middle" fill="#141414">4</text>
<circle cx="12.102" cy="30.349" r="2.09" fill="#ffe082" stroke="#464646" stroke-width="0.2"/>
<text x="12.102" y="31.07" font-size="2.05" text-anchor="middle" fill="#141414">5</text>
<circle cx="125.711" cy="146.334" r="2.09" fill="#ffe082" stroke="#464646" stroke-width="0.2"/>
<text x="125.711" y="147.05" font-size="2.05" text-anchor="middle" fill="#141414">6</text>
<circle cx="199.712" cy="73.917" r="2.09" fill="#ffe082" stroke="#464646" stroke-width="0.2"/>
<text x="199.712" y="74.63" font-size="2.05" text-anchor="middle" fill="#141414">7</text>
<circle cx="119.11" cy="109.036" r="4.60" fill="#eaf1fe" stroke="#2e78e6" stroke-width="0.3"/>
<text x="119.11" y="110.84" font-size="5.20" text-anchor="middle" fill="#14306e" font-weight="bold">1</text>
<polygon points="28.765,198.462 26.483,205.462 15.837,205.462 13.555,198.462" fill="rgb(216,216,216)"/>
<polygon points="28.765,183.253 26.483,176.253 15.837,176.253 13.555,183.253" fill="rgb(216,216,216)"/>
<polygon points="38.27,198.462 45.27,196.181 45.27,185.534 38.27,183.253" fill="rgb(216,216,216)"/>
<polygon points="38.27,198.462 45.27,200.744 45.27,211.39 38.27,213.672" fill="rgb(216,216,216)"/>
<polygon points="38.27,183.253 45.27,180.972 45.27,170.325 38.27,168.044" fill="rgb(216,216,216)"/>
<polygon points="13.555,198.462 6.555,196.181 6.555,185.534 13.555,183.253" fill="rgb(216,216,216)"/>
<polygon points="28.765,213.672 30.19,218.425 36.845,218.425 38.27,213.672" fill="rgb(216,216,216)"/>
<polygon points="28.765,198.462 26.483,205.462 15.837,205.462 13.555,198.462" fill="#99d9fa"/>
<line x1="28.765" y1="198.462" x2="28.765" y2="183.253" stroke="#8c8c8c" stroke-width="0.3" stroke-dasharray="1.2,0.8"/>
<line x1="38.27" y1="198.462" x2="28.765" y2="198.462" stroke="#8c8c8c" stroke-width="0.3" stroke-dasharray="1.2,0.8"/>
<line x1="28.765" y1="183.253" x2="38.27" y2="183.253" stroke="#8c8c8c" stroke-width="0.3" stroke-dasharray="1.2,0.8"/>
<line x1="28.765" y1="168.044" x2="38.27" y2="168.044" stroke="#8c8c8c" stroke-width="0.3" stroke-dasharray="1.2,0.8"/>
<line x1="38.27" y1="168.044" x2="38.27" y2="152.834" stroke="#8c8c8c" stroke-width="0.3" stroke-dasharray="1.2,0.8"/>
<line x1="13.555" y1="198.462" x2="28.765" y2="198.462" stroke="#8c8c8c" stroke-width="0.3" stroke-dasharray="1.2,0.8"/>
<line x1="13.555" y1="183.253" x2="28.765" y2="183.253" stroke="#8c8c8c" stroke-width="0.3" stroke-dasharray="1.2,0.8"/>
<line x1="38.27" y1="183.253" x2="38.27" y2="198.462" stroke="#8c8c8c" stroke-width="0.3" stroke-dasharray="1.2,0.8"/>
<line x1="38.27" y1="213.672" x2="38.27" y2="198.462" stroke="#8c8c8c" stroke-width="0.3" stroke-dasharray="1.2,0.8"/>
<line x1="38.27" y1="168.044" x2="38.27" y2="183.253" stroke="#8c8c8c" stroke-width="0.3" stroke-dasharray="1.2,0.8"/>
<line x1="13.555" y1="183.253" x2="13.555" y2="198.462" stroke="#8c8c8c" stroke-width="0.3" stroke-dasharray="1.2,0.8"/>
<line x1="38.27" y1="213.672" x2="28.765" y2="213.672" stroke="#8c8c8c" stroke-width="0.3" stroke-dasharray="1.2,0.8"/>
<line x1="28.765" y1="213.672" x2="28.765" y2="198.462" stroke="#141414" stroke-width="0.4"/>
<line x1="28.765" y1="183.253" x2="28.765" y2="168.044" stroke="#141414" stroke-width="0.4"/>
<line x1="53.48" y1="152.834" x2="53.48" y2="168.044" stroke="#141414" stroke-width="0.4"/>
<line x1="38.27" y1="152.834" x2="53.48" y2="152.834" stroke="#141414" stroke-width="0.4"/>
<line x1="53.48" y1="168.044" x2="38.27" y2="168.044" stroke="#141414" stroke-width="0.4"/>
<line x1="28.765" y1="168.044" x2="28.765" y2="152.834" stroke="#141414" stroke-width="0.4"/>
<line x1="28.765" y1="152.834" x2="38.27" y2="152.834" stroke="#141414" stroke-width="0.4"/>
<line x1="28.765" y1="198.462" x2="26.483" y2="205.462" stroke="#141414" stroke-width="0.4"/>
<line x1="26.483" y1="205.462" x2="15.837" y2="205.462" stroke="#141414" stroke-width="0.4"/>
<line x1="15.837" y1="205.462" x2="13.555" y2="198.462" stroke="#141414" stroke-width="0.4"/>
<line x1="28.765" y1="183.253" x2="26.483" y2="176.253" stroke="#141414" stroke-width="0.4"/>
<line x1="26.483" y1="176.253" x2="15.837" y2="176.253" stroke="#141414" stroke-width="0.4"/>
<line x1="15.837" y1="176.253" x2="13.555" y2="183.253" stroke="#141414" stroke-width="0.4"/>
<line x1="38.27" y1="198.462" x2="45.27" y2="196.181" stroke="#141414" stroke-width="0.4"/>
<line x1="45.27" y1="196.181" x2="45.27" y2="185.534" stroke="#141414" stroke-width="0.4"/>
<line x1="45.27" y1="185.534" x2="38.27" y2="183.253" stroke="#141414" stroke-width="0.4"/>
<line x1="38.27" y1="198.462" x2="45.27" y2="200.744" stroke="#141414" stroke-width="0.4"/>
<line x1="45.27" y1="200.744" x2="45.27" y2="211.39" stroke="#141414" stroke-width="0.4"/>
<line x1="45.27" y1="211.39" x2="38.27" y2="213.672" stroke="#141414" stroke-width="0.4"/>
<line x1="38.27" y1="183.253" x2="45.27" y2="180.972" stroke="#141414" stroke-width="0.4"/>
<line x1="45.27" y1="180.972" x2="45.27" y2="170.325" stroke="#141414" stroke-width="0.4"/>
<line x1="45.27" y1="170.325" x2="38.27" y2="168.044" stroke="#141414" stroke-width="0.4"/>
<line x1="13.555" y1="198.462" x2="6.555" y2="196.181" stroke="#141414" stroke-width="0.4"/>
<line x1="6.555" y1="196.181" x2="6.555" y2="185.534" stroke="#141414" stroke-width="0.4"/>
<line x1="6.555" y1="185.534" x2="13.555" y2="183.253" stroke="#141414" stroke-width="0.4"/>
<line x1="28.765" y1="213.672" x2="30.19" y2="218.425" stroke="#141414" stroke-width="0.4"/>
<line x1="30.19" y1="218.425" x2="36.845" y2="218.425" stroke="#141414" stroke-width="0.4"/>
<line x1="36.845" y1="218.425" x2="38.27" y2="213.672" stroke="#141414" stroke-width="0.4"/>
<circle cx="21.16" cy="201.962" r="2.09" fill="#99d9fa" stroke="#464646" stroke-width="0.2"/>
<text x="21.16" y="202.68" font-size="2.05" text-anchor="middle" fill="#141414">8</text>
<circle cx="21.16" cy="179.753" r="2.09" fill="#ffe082" stroke="#464646" stroke-width="0.2"/>
<text x="21.16" y="180.47" font-size="2.05" text-anchor="middle" fill="#141414">9</text>
<circle cx="41.77" cy="190.858" r="2.09" fill="#ffe082" stroke="#464646" stroke-width="0.2"/>
<text x="41.77" y="191.58" font-size="2.05" text-anchor="middle" fill="#141414">10</text>
<circle cx="41.77" cy="206.067" r="2.09" fill="#ffe082" stroke="#464646" stroke-width="0.2"/>
<text x="41.77" y="206.78" font-size="2.05" text-anchor="middle" fill="#141414">11</text>
<circle cx="41.77" cy="175.648" r="2.09" fill="#ffe082" stroke="#464646" stroke-width="0.2"/>
<text x="41.77" y="176.37" font-size="2.05" text-anchor="middle" fill="#141414">12</text>
<circle cx="10.055" cy="190.858" r="2.09" fill="#ffe082" stroke="#464646" stroke-width="0.2"/>
<text x="10.055" y="191.58" font-size="2.05" text-anchor="middle" fill="#141414">13</text>
<circle cx="33.518" cy="216.048" r="2.09" fill="#ffe082" stroke="#464646" stroke-width="0.2"/>
<text x="33.518" y="216.77" font-size="2.05" text-anchor="middle" fill="#141414">14</text>
<circle cx="48.41" cy="162.974" r="2.87" fill="#eaf1fe" stroke="#2e78e6" stroke-width="0.3"/>
<text x="48.41" y="164.10" font-size="3.24" text-anchor="middle" fill="#14306e" font-weight="bold">2</text>
<polygon points="78.689,198.462 76.407,205.462 65.761,205.462 63.48,198.462" fill="rgb(216,216,216)"/>
<polygon points="78.689,183.253 76.407,176.253 65.761,176.253 63.48,183.253" fill="rgb(216,216,216)"/>
<polygon points="88.195,198.462 95.195,196.181 95.195,185.534 88.195,183.253" fill="rgb(216,216,216)"/>
<polygon points="88.195,198.462 95.195,200.744 95.195,211.39 88.195,213.672" fill="rgb(216,216,216)"/>
<polygon points="88.195,183.253 95.195,180.972 95.195,170.325 88.195,168.044" fill="rgb(216,216,216)"/>
<polygon points="63.48,198.462 56.48,196.181 56.48,185.534 63.48,183.253" fill="rgb(216,216,216)"/>
<polygon points="78.689,213.672 80.115,218.425 86.769,218.425 88.195,213.672" fill="rgb(216,216,216)"/>
<polygon points="78.689,198.462 76.407,205.462 65.761,205.462 63.48,198.462" fill="#99d9fa"/>
<line x1="78.689" y1="198.462" x2="78.689" y2="183.253" stroke="#8c8c8c" stroke-width="0.3" stroke-dasharray="1.2,0.8"/>
<line x1="88.195" y1="198.462" x2="78.689" y2="198.462" stroke="#8c8c8c" stroke-width="0.3" stroke-dasharray="1.2,0.8"/>
<line x1="78.689" y1="183.253" x2="88.195" y2="183.253" stroke="#8c8c8c" stroke-width="0.3" stroke-dasharray="1.2,0.8"/>
<line x1="78.689" y1="168.044" x2="88.195" y2="168.044" stroke="#8c8c8c" stroke-width="0.3" stroke-dasharray="1.2,0.8"/>
<line x1="88.195" y1="168.044" x2="88.195" y2="152.834" stroke="#8c8c8c" stroke-width="0.3" stroke-dasharray="1.2,0.8"/>
<line x1="63.48" y1="198.462" x2="78.689" y2="198.462" stroke="#8c8c8c" stroke-width="0.3" stroke-dasharray="1.2,0.8"/>
<line x1="63.48" y1="183.253" x2="78.689" y2="183.253" stroke="#8c8c8c" stroke-width="0.3" stroke-dasharray="1.2,0.8"/>
<line x1="88.195" y1="183.253" x2="88.195" y2="198.462" stroke="#8c8c8c" stroke-width="0.3" stroke-dasharray="1.2,0.8"/>
<line x1="88.195" y1="213.672" x2="88.195" y2="198.462" stroke="#8c8c8c" stroke-width="0.3" stroke-dasharray="1.2,0.8"/>
<line x1="88.195" y1="168.044" x2="88.195" y2="183.253" stroke="#8c8c8c" stroke-width="0.3" stroke-dasharray="1.2,0.8"/>
<line x1="63.48" y1="183.253" x2="63.48" y2="198.462" stroke="#8c8c8c" stroke-width="0.3" stroke-dasharray="1.2,0.8"/>
<line x1="88.195" y1="213.672" x2="78.689" y2="213.672" stroke="#8c8c8c" stroke-width="0.3" stroke-dasharray="1.2,0.8"/>
<line x1="78.689" y1="213.672" x2="78.689" y2="198.462" stroke="#141414" stroke-width="0.4"/>
<line x1="78.689" y1="183.253" x2="78.689" y2="168.044" stroke="#141414" stroke-width="0.4"/>
<line x1="103.404" y1="152.834" x2="103.404" y2="168.044" stroke="#141414" stroke-width="0.4"/>
<line x1="88.195" y1="152.834" x2="103.404" y2="152.834" stroke="#141414" stroke-width="0.4"/>
<line x1="103.404" y1="168.044" x2="88.195" y2="168.044" stroke="#141414" stroke-width="0.4"/>
<line x1="78.689" y1="168.044" x2="78.689" y2="152.834" stroke="#141414" stroke-width="0.4"/>
<line x1="78.689" y1="152.834" x2="88.195" y2="152.834" stroke="#141414" stroke-width="0.4"/>
<line x1="78.689" y1="198.462" x2="76.407" y2="205.462" stroke="#141414" stroke-width="0.4"/>
<line x1="76.407" y1="205.462" x2="65.761" y2="205.462" stroke="#141414" stroke-width="0.4"/>
<line x1="65.761" y1="205.462" x2="63.48" y2="198.462" stroke="#141414" stroke-width="0.4"/>
<line x1="78.689" y1="183.253" x2="76.407" y2="176.253" stroke="#141414" stroke-width="0.4"/>
<line x1="76.407" y1="176.253" x2="65.761" y2="176.253" stroke="#141414" stroke-width="0.4"/>
<line x1="65.761" y1="176.253" x2="63.48" y2="183.253" stroke="#141414" stroke-width="0.4"/>
<line x1="88.195" y1="198.462" x2="95.195" y2="196.181" stroke="#141414" stroke-width="0.4"/>
<line x1="95.195" y1="196.181" x2="95.195" y2="185.534" stroke="#141414" stroke-width="0.4"/>
<line x1="95.195" y1="185.534" x2="88.195" y2="183.253" stroke="#141414" stroke-width="0.4"/>
<line x1="88.195" y1="198.462" x2="95.195" y2="200.744" stroke="#141414" stroke-width="0.4"/>
<line x1="95.195" y1="200.744" x2="95.195" y2="211.39" stroke="#141414" stroke-width="0.4"/>
<line x1="95.195" y1="211.39" x2="88.195" y2="213.672" stroke="#141414" stroke-width="0.4"/>
<line x1="88.195" y1="183.253" x2="95.195" y2="180.972" stroke="#141414" stroke-width="0.4"/>
<line x1="95.195" y1="180.972" x2="95.195" y2="170.325" stroke="#141414" stroke-width="0.4"/>
<line x1="95.195" y1="170.325" x2="88.195" y2="168.044" stroke="#141414" stroke-width="0.4"/>
<line x1="63.48" y1="198.462" x2="56.48" y2="196.181" stroke="#141414" stroke-width="0.4"/>
<line x1="56.48" y1="196.181" x2="56.48" y2="185.534" stroke="#141414" stroke-width="0.4"/>
<line x1="56.48" y1="185.534" x2="63.48" y2="183.253" stroke="#141414" stroke-width="0.4"/>
<line x1="78.689" y1="213.672" x2="80.115" y2="218.425" stroke="#141414" stroke-width="0.4"/>
<line x1="80.115" y1="218.425" x2="86.769" y2="218.425" stroke="#141414" stroke-width="0.4"/>
<line x1="86.769" y1="218.425" x2="88.195" y2="213.672" stroke="#141414" stroke-width="0.4"/>
<circle cx="71.084" cy="201.962" r="2.09" fill="#99d9fa" stroke="#464646" stroke-width="0.2"/>
<text x="71.084" y="202.68" font-size="2.05" text-anchor="middle" fill="#141414">15</text>
<circle cx="71.084" cy="179.753" r="2.09" fill="#ffe082" stroke="#464646" stroke-width="0.2"/>
<text x="71.084" y="180.47" font-size="2.05" text-anchor="middle" fill="#141414">16</text>
<circle cx="91.695" cy="190.858" r="2.09" fill="#ffe082" stroke="#464646" stroke-width="0.2"/>
<text x="91.695" y="191.58" font-size="2.05" text-anchor="middle" fill="#141414">17</text>
<circle cx="91.695" cy="206.067" r="2.09" fill="#ffe082" stroke="#464646" stroke-width="0.2"/>
<text x="91.695" y="206.78" font-size="2.05" text-anchor="middle" fill="#141414">18</text>
<circle cx="91.695" cy="175.648" r="2.09" fill="#ffe082" stroke="#464646" stroke-width="0.2"/>
<text x="91.695" y="176.37" font-size="2.05" text-anchor="middle" fill="#141414">19</text>
<circle cx="59.98" cy="190.858" r="2.09" fill="#ffe082" stroke="#464646" stroke-width="0.2"/>
<text x="59.98" y="191.58" font-size="2.05" text-anchor="middle" fill="#141414">20</text>
<circle cx="83.442" cy="216.048" r="2.09" fill="#ffe082" stroke="#464646" stroke-width="0.2"/>
<text x="83.442" y="216.77" font-size="2.05" text-anchor="middle" fill="#141414">21</text>
<circle cx="98.334" cy="162.974" r="2.87" fill="#eaf1fe" stroke="#2e78e6" stroke-width="0.3"/>
<text x="98.334" y="164.10" font-size="3.24" text-anchor="middle" fill="#14306e" font-weight="bold">3</text>
<polygon points="38.853,236.407 35.771,230.683 41.935,224.518 47.659,227.601" fill="rgb(216,216,216)"/>
<polygon points="16.448,258.812 13.366,264.536 19.53,270.7 25.254,267.618" fill="rgb(216,216,216)"/>
<polygon points="16.448,258.812 10.724,261.894 4.56,255.73 7.642,250.006" fill="rgb(216,216,216)"/>
<polygon points="47.659,245.212 53.383,248.295 59.547,242.13 56.465,236.407" fill="rgb(216,216,216)"/>
<polygon points="25.254,267.618 22.172,273.342 28.336,279.506 34.06,276.424" fill="rgb(216,216,216)"/>
<polygon points="56.465,236.407 59.547,230.683 53.383,224.518 47.659,227.601" fill="rgb(216,216,216)"/>
<polygon points="65.271,262.825 66.86,271.135 51.177,286.819 42.866,285.23" fill="rgb(216,216,216)"/>
<polygon points="38.853,236.407 35.771,230.683 41.935,224.518 47.659,227.601" fill="#99d9fa"/>
<line x1="16.448" y1="258.812" x2="38.853" y2="236.407" stroke="#8c8c8c" stroke-width="0.3" stroke-dasharray="1.2,0.8"/>
<line x1="47.659" y1="245.213" x2="38.853" y2="236.407" stroke="#8c8c8c" stroke-width="0.3" stroke-dasharray="1.2,0.8"/>
<line x1="47.659" y1="245.213" x2="25.254" y2="267.618" stroke="#8c8c8c" stroke-width="0.3" stroke-dasharray="1.2,0.8"/>
<line x1="56.465" y1="254.019" x2="34.06" y2="276.424" stroke="#8c8c8c" stroke-width="0.3" stroke-dasharray="1.2,0.8"/>
<line x1="42.866" y1="285.23" x2="34.06" y2="276.424" stroke="#8c8c8c" stroke-width="0.3" stroke-dasharray="1.2,0.8"/>
<line x1="47.659" y1="227.601" x2="38.853" y2="236.407" stroke="#8c8c8c" stroke-width="0.3" stroke-dasharray="1.2,0.8"/>
<line x1="25.254" y1="267.618" x2="16.448" y2="258.812" stroke="#8c8c8c" stroke-width="0.3" stroke-dasharray="1.2,0.8"/>
<line x1="7.642" y1="250.006" x2="16.448" y2="258.812" stroke="#8c8c8c" stroke-width="0.3" stroke-dasharray="1.2,0.8"/>
<line x1="56.465" y1="236.407" x2="47.659" y2="245.212" stroke="#8c8c8c" stroke-width="0.3" stroke-dasharray="1.2,0.8"/>
<line x1="34.06" y1="276.424" x2="25.254" y2="267.618" stroke="#8c8c8c" stroke-width="0.3" stroke-dasharray="1.2,0.8"/>
<line x1="47.659" y1="227.601" x2="56.465" y2="236.407" stroke="#8c8c8c" stroke-width="0.3" stroke-dasharray="1.2,0.8"/>
<line x1="42.866" y1="285.23" x2="65.271" y2="262.825" stroke="#8c8c8c" stroke-width="0.3" stroke-dasharray="1.2,0.8"/>
<line x1="30.047" y1="227.601" x2="38.853" y2="236.407" stroke="#141414" stroke-width="0.4"/>
<line x1="34.06" y1="294.036" x2="25.254" y2="285.23" stroke="#141414" stroke-width="0.4"/>
<line x1="42.866" y1="285.23" x2="34.06" y2="294.036" stroke="#141414" stroke-width="0.4"/>
<line x1="47.659" y1="245.213" x2="56.465" y2="254.019" stroke="#141414" stroke-width="0.4"/>
<line x1="25.254" y1="285.23" x2="34.06" y2="276.424" stroke="#141414" stroke-width="0.4"/>
<line x1="56.465" y1="254.019" x2="65.271" y2="262.825" stroke="#141414" stroke-width="0.4"/>
<line x1="7.642" y1="250.006" x2="30.047" y2="227.601" stroke="#141414" stroke-width="0.4"/>
<line x1="38.853" y1="236.407" x2="35.771" y2="230.683" stroke="#141414" stroke-width="0.4"/>
<line x1="35.771" y1="230.683" x2="41.935" y2="224.518" stroke="#141414" stroke-width="0.4"/>
<line x1="41.935" y1="224.518" x2="47.659" y2="227.601" stroke="#141414" stroke-width="0.4"/>
<line x1="16.448" y1="258.812" x2="13.366" y2="264.536" stroke="#141414" stroke-width="0.4"/>
<line x1="13.366" y1="264.536" x2="19.53" y2="270.7" stroke="#141414" stroke-width="0.4"/>
<line x1="19.53" y1="270.7" x2="25.254" y2="267.618" stroke="#141414" stroke-width="0.4"/>
<line x1="16.448" y1="258.812" x2="10.724" y2="261.894" stroke="#141414" stroke-width="0.4"/>
<line x1="10.724" y1="261.894" x2="4.56" y2="255.73" stroke="#141414" stroke-width="0.4"/>
<line x1="4.56" y1="255.73" x2="7.642" y2="250.006" stroke="#141414" stroke-width="0.4"/>
<line x1="47.659" y1="245.212" x2="53.383" y2="248.295" stroke="#141414" stroke-width="0.4"/>
<line x1="53.383" y1="248.295" x2="59.547" y2="242.13" stroke="#141414" stroke-width="0.4"/>
<line x1="59.547" y1="242.13" x2="56.465" y2="236.407" stroke="#141414" stroke-width="0.4"/>
<line x1="25.254" y1="267.618" x2="22.172" y2="273.342" stroke="#141414" stroke-width="0.4"/>
<line x1="22.172" y1="273.342" x2="28.336" y2="279.506" stroke="#141414" stroke-width="0.4"/>
<line x1="28.336" y1="279.506" x2="34.06" y2="276.424" stroke="#141414" stroke-width="0.4"/>
<line x1="56.465" y1="236.407" x2="59.547" y2="230.683" stroke="#141414" stroke-width="0.4"/>
<line x1="59.547" y1="230.683" x2="53.383" y2="224.518" stroke="#141414" stroke-width="0.4"/>
<line x1="53.383" y1="224.518" x2="47.659" y2="227.601" stroke="#141414" stroke-width="0.4"/>
<line x1="65.271" y1="262.825" x2="66.86" y2="271.135" stroke="#141414" stroke-width="0.4"/>
<line x1="66.86" y1="271.135" x2="51.177" y2="286.819" stroke="#141414" stroke-width="0.4"/>
<line x1="51.177" y1="286.819" x2="42.866" y2="285.23" stroke="#141414" stroke-width="0.4"/>
<circle cx="41.055" cy="229.802" r="2.09" fill="#99d9fa" stroke="#464646" stroke-width="0.2"/>
<text x="41.055" y="230.52" font-size="2.05" text-anchor="middle" fill="#141414">22</text>
<circle cx="18.649" cy="265.416" r="2.09" fill="#ffe082" stroke="#464646" stroke-width="0.2"/>
<text x="18.649" y="266.13" font-size="2.05" text-anchor="middle" fill="#141414">23</text>
<circle cx="9.843" cy="256.61" r="2.09" fill="#ffe082" stroke="#464646" stroke-width="0.2"/>
<text x="9.843" y="257.33" font-size="2.05" text-anchor="middle" fill="#141414">24</text>
<circle cx="54.264" cy="243.011" r="2.09" fill="#ffe082" stroke="#464646" stroke-width="0.2"/>
<text x="54.264" y="243.73" font-size="2.05" text-anchor="middle" fill="#141414">25</text>
<circle cx="27.455" cy="274.223" r="2.09" fill="#ffe082" stroke="#464646" stroke-width="0.2"/>
<text x="27.455" y="274.94" font-size="2.05" text-anchor="middle" fill="#141414">26</text>
<circle cx="54.264" cy="229.802" r="2.09" fill="#ffe082" stroke="#464646" stroke-width="0.2"/>
<text x="54.264" y="230.52" font-size="2.05" text-anchor="middle" fill="#141414">27</text>
<circle cx="56.544" cy="276.502" r="2.09" fill="#ffe082" stroke="#464646" stroke-width="0.2"/>
<text x="56.544" y="277.22" font-size="2.05" text-anchor="middle" fill="#141414">28</text>
<circle cx="43.126" cy="255.616" r="3.09" fill="#eaf1fe" stroke="#2e78e6" stroke-width="0.3"/>
<text x="43.126" y="256.83" font-size="3.49" text-anchor="middle" fill="#14306e" font-weight="bold">4</text>
<polygon points="148.404,185.788 145.933,192.788 134.399,192.788 131.928,185.788" fill="rgb(216,216,216)"/>
<polygon points="148.404,169.311 150.876,162.311 162.41,162.311 164.881,169.311" fill="rgb(216,216,216)"/>
<polygon points="148.404,169.311 145.933,162.311 134.399,162.311 131.928,169.311" fill="rgb(216,216,216)"/>
<polygon points="164.881,185.788 171.881,188.259 171.881,199.793 164.881,202.265" fill="rgb(216,216,216)"/>
<polygon points="115.451,152.834 108.451,155.306 108.451,166.84 115.451,169.311" fill="rgb(216,216,216)"/>
<polygon points="148.404,202.265 150.876,209.265 162.41,209.265 164.881,202.265" fill="rgb(216,216,216)"/>
<polygon points="181.358,185.788 188.358,183.316 188.358,171.783 181.358,169.311" fill="rgb(216,216,216)"/>
<polygon points="148.404,185.788 145.933,192.788 134.399,192.788 131.928,185.788" fill="#99d9fa"/>
<line x1="148.404" y1="185.788" x2="148.404" y2="169.311" stroke="#8c8c8c" stroke-width="0.3" stroke-dasharray="1.2,0.8"/>
<line x1="164.881" y1="185.788" x2="148.404" y2="185.788" stroke="#8c8c8c" stroke-width="0.3" stroke-dasharray="1.2,0.8"/>
<line x1="164.881" y1="169.311" x2="164.881" y2="185.788" stroke="#8c8c8c" stroke-width="0.3" stroke-dasharray="1.2,0.8"/>
<line x1="131.928" y1="185.788" x2="131.928" y2="169.311" stroke="#8c8c8c" stroke-width="0.3" stroke-dasharray="1.2,0.8"/>
<line x1="131.928" y1="169.311" x2="115.451" y2="169.311" stroke="#8c8c8c" stroke-width="0.3" stroke-dasharray="1.2,0.8"/>
<line x1="131.928" y1="185.788" x2="148.404" y2="185.788" stroke="#8c8c8c" stroke-width="0.3" stroke-dasharray="1.2,0.8"/>
<line x1="164.881" y1="169.311" x2="148.404" y2="169.311" stroke="#8c8c8c" stroke-width="0.3" stroke-dasharray="1.2,0.8"/>
<line x1="131.928" y1="169.311" x2="148.404" y2="169.311" stroke="#8c8c8c" stroke-width="0.3" stroke-dasharray="1.2,0.8"/>
<line x1="164.881" y1="202.265" x2="164.881" y2="185.788" stroke="#8c8c8c" stroke-width="0.3" stroke-dasharray="1.2,0.8"/>
<line x1="115.451" y1="169.311" x2="115.451" y2="152.834" stroke="#8c8c8c" stroke-width="0.3" stroke-dasharray="1.2,0.8"/>
<line x1="164.881" y1="202.265" x2="148.404" y2="202.265" stroke="#8c8c8c" stroke-width="0.3" stroke-dasharray="1.2,0.8"/>
<line x1="181.358" y1="169.311" x2="181.358" y2="185.788" stroke="#8c8c8c" stroke-width="0.3" stroke-dasharray="1.2,0.8"/>
<line x1="148.404" y1="202.265" x2="148.404" y2="185.788" stroke="#141414" stroke-width="0.4"/>
<line x1="115.451" y1="152.834" x2="131.928" y2="152.834" stroke="#141414" stroke-width="0.4"/>
<line x1="131.928" y1="152.834" x2="131.928" y2="169.311" stroke="#141414" stroke-width="0.4"/>
<line x1="181.358" y1="185.788" x2="164.881" y2="185.788" stroke="#141414" stroke-width="0.4"/>
<line x1="164.881" y1="169.311" x2="181.358" y2="169.311" stroke="#141414" stroke-width="0.4"/>
<line x1="131.928" y1="185.788" x2="115.451" y2="185.788" stroke="#141414" stroke-width="0.4"/>
<line x1="115.451" y1="185.788" x2="115.451" y2="169.311" stroke="#141414" stroke-width="0.4"/>
<line x1="148.404" y1="185.788" x2="145.933" y2="192.788" stroke="#141414" stroke-width="0.4"/>
<line x1="145.933" y1="192.788" x2="134.399" y2="192.788" stroke="#141414" stroke-width="0.4"/>
<line x1="134.399" y1="192.788" x2="131.928" y2="185.788" stroke="#141414" stroke-width="0.4"/>
<line x1="148.404" y1="169.311" x2="150.876" y2="162.311" stroke="#141414" stroke-width="0.4"/>
<line x1="150.876" y1="162.311" x2="162.41" y2="162.311" stroke="#141414" stroke-width="0.4"/>
<line x1="162.41" y1="162.311" x2="164.881" y2="169.311" stroke="#141414" stroke-width="0.4"/>
<line x1="148.404" y1="169.311" x2="145.933" y2="162.311" stroke="#141414" stroke-width="0.4"/>
<line x1="145.933" y1="162.311" x2="134.399" y2="162.311" stroke="#141414" stroke-width="0.4"/>
<line x1="134.399" y1="162.311" x2="131.928" y2="169.311" stroke="#141414" stroke-width="0.4"/>
<line x1="164.881" y1="185.788" x2="171.881" y2="188.259" stroke="#141414" stroke-width="0.4"/>
<line x1="171.881" y1="188.259" x2="171.881" y2="199.793" stroke="#141414" stroke-width="0.4"/>
<line x1="171.881" y1="199.793" x2="164.881" y2="202.265" stroke="#141414" stroke-width="0.4"/>
<line x1="115.451" y1="152.834" x2="108.451" y2="155.306" stroke="#141414" stroke-width="0.4"/>
<line x1="108.451" y1="155.306" x2="108.451" y2="166.84" stroke="#141414" stroke-width="0.4"/>
<line x1="108.451" y1="166.84" x2="115.451" y2="169.311" stroke="#141414" stroke-width="0.4"/>
<line x1="148.404" y1="202.265" x2="150.876" y2="209.265" stroke="#141414" stroke-width="0.4"/>
<line x1="150.876" y1="209.265" x2="162.41" y2="209.265" stroke="#141414" stroke-width="0.4"/>
<line x1="162.41" y1="209.265" x2="164.881" y2="202.265" stroke="#141414" stroke-width="0.4"/>
<line x1="181.358" y1="185.788" x2="188.358" y2="183.316" stroke="#141414" stroke-width="0.4"/>
<line x1="188.358" y1="183.316" x2="188.358" y2="171.783" stroke="#141414" stroke-width="0.4"/>
<line x1="188.358" y1="171.783" x2="181.358" y2="169.311" stroke="#141414" stroke-width="0.4"/>
<circle cx="140.166" cy="189.288" r="2.09" fill="#99d9fa" stroke="#464646" stroke-width="0.2"/>
<text x="140.166" y="190.01" font-size="2.05" text-anchor="middle" fill="#141414">29</text>
<circle cx="156.643" cy="165.811" r="2.09" fill="#ffe082" stroke="#464646" stroke-width="0.2"/>
<text x="156.643" y="166.53" font-size="2.05" text-anchor="middle" fill="#141414">30</text>
<circle cx="140.166" cy="165.811" r="2.09" fill="#ffe082" stroke="#464646" stroke-width="0.2"/>
<text x="140.166" y="166.53" font-size="2.05" text-anchor="middle" fill="#141414">31</text>
<circle cx="168.381" cy="194.026" r="2.09" fill="#ffe082" stroke="#464646" stroke-width="0.2"/>
<text x="168.381" y="194.74" font-size="2.05" text-anchor="middle" fill="#141414">32</text>
<circle cx="111.951" cy="161.073" r="2.09" fill="#ffe082" stroke="#464646" stroke-width="0.2"/>
<text x="111.951" y="161.79" font-size="2.05" text-anchor="middle" fill="#141414">33</text>
<circle cx="156.643" cy="205.765" r="2.09" fill="#ffe082" stroke="#464646" stroke-width="0.2"/>
<text x="156.643" y="206.48" font-size="2.05" text-anchor="middle" fill="#141414">34</text>
<circle cx="184.858" cy="177.55" r="2.09" fill="#ffe082" stroke="#464646" stroke-width="0.2"/>
<text x="184.858" y="178.27" font-size="2.05" text-anchor="middle" fill="#141414">35</text>
<circle cx="159.389" cy="180.296" r="3.11" fill="#eaf1fe" stroke="#2e78e6" stroke-width="0.3"/>
<text x="159.389" y="181.51" font-size="3.51" text-anchor="middle" fill="#14306e" font-weight="bold">5</text>
<polygon points="137.938,256.913 134.611,263.913 119.085,263.913 115.757,256.913" fill="rgb(216,216,216)"/>
<polygon points="137.938,243.605 143.166,236.605 167.564,236.605 172.793,243.605" fill="rgb(216,216,216)"/>
<polygon points="137.938,243.605 134.611,236.605 119.085,236.605 115.757,243.605" fill="rgb(216,216,216)"/>
<polygon points="172.793,256.913 179.793,260.24 179.793,275.766 172.793,279.093" fill="rgb(216,216,216)"/>
<polygon points="80.903,221.424 73.903,224.752 73.903,240.278 80.903,243.605" fill="rgb(216,216,216)"/>
<polygon points="137.938,279.093 143.166,286.093 167.564,286.093 172.793,279.093" fill="rgb(216,216,216)"/>
<polygon points="194.973,256.913 201.627,254.917 201.627,245.601 194.973,243.605" fill="rgb(216,216,216)"/>
<polygon points="137.938,256.913 134.611,263.913 119.085,263.913 115.757,256.913" fill="#99d9fa"/>
<line x1="137.938" y1="256.913" x2="137.938" y2="243.605" stroke="#8c8c8c" stroke-width="0.3" stroke-dasharray="1.2,0.8"/>
<line x1="172.793" y1="256.913" x2="137.938" y2="256.913" stroke="#8c8c8c" stroke-width="0.3" stroke-dasharray="1.2,0.8"/>
<line x1="172.793" y1="243.605" x2="172.793" y2="256.913" stroke="#8c8c8c" stroke-width="0.3" stroke-dasharray="1.2,0.8"/>
<line x1="115.757" y1="256.913" x2="115.757" y2="243.605" stroke="#8c8c8c" stroke-width="0.3" stroke-dasharray="1.2,0.8"/>
<line x1="115.757" y1="243.605" x2="80.903" y2="243.605" stroke="#8c8c8c" stroke-width="0.3" stroke-dasharray="1.2,0.8"/>
<line x1="115.757" y1="256.913" x2="137.938" y2="256.913" stroke="#8c8c8c" stroke-width="0.3" stroke-dasharray="1.2,0.8"/>
<line x1="172.793" y1="243.605" x2="137.938" y2="243.605" stroke="#8c8c8c" stroke-width="0.3" stroke-dasharray="1.2,0.8"/>
<line x1="115.757" y1="243.605" x2="137.938" y2="243.605" stroke="#8c8c8c" stroke-width="0.3" stroke-dasharray="1.2,0.8"/>
<line x1="172.793" y1="279.093" x2="172.793" y2="256.913" stroke="#8c8c8c" stroke-width="0.3" stroke-dasharray="1.2,0.8"/>
<line x1="80.903" y1="243.605" x2="80.903" y2="221.424" stroke="#8c8c8c" stroke-width="0.3" stroke-dasharray="1.2,0.8"/>
<line x1="172.793" y1="279.093" x2="137.938" y2="279.093" stroke="#8c8c8c" stroke-width="0.3" stroke-dasharray="1.2,0.8"/>
<line x1="194.973" y1="243.605" x2="194.973" y2="256.913" stroke="#8c8c8c" stroke-width="0.3" stroke-dasharray="1.2,0.8"/>
<line x1="137.938" y1="279.093" x2="137.938" y2="256.913" stroke="#141414" stroke-width="0.4"/>
<line x1="80.903" y1="221.424" x2="115.757" y2="221.424" stroke="#141414" stroke-width="0.4"/>
<line x1="115.757" y1="221.424" x2="115.757" y2="243.605" stroke="#141414" stroke-width="0.4"/>
<line x1="194.973" y1="256.913" x2="172.793" y2="256.913" stroke="#141414" stroke-width="0.4"/>
<line x1="172.793" y1="243.605" x2="194.973" y2="243.605" stroke="#141414" stroke-width="0.4"/>
<line x1="115.757" y1="256.913" x2="80.903" y2="256.913" stroke="#141414" stroke-width="0.4"/>
<line x1="80.903" y1="256.913" x2="80.903" y2="243.605" stroke="#141414" stroke-width="0.4"/>
<line x1="137.938" y1="256.913" x2="134.611" y2="263.913" stroke="#141414" stroke-width="0.4"/>
<line x1="134.611" y1="263.913" x2="119.085" y2="263.913" stroke="#141414" stroke-width="0.4"/>
<line x1="119.085" y1="263.913" x2="115.757" y2="256.913" stroke="#141414" stroke-width="0.4"/>
<line x1="137.938" y1="243.605" x2="143.166" y2="236.605" stroke="#141414" stroke-width="0.4"/>
<line x1="143.166" y1="236.605" x2="167.564" y2="236.605" stroke="#141414" stroke-width="0.4"/>
<line x1="167.564" y1="236.605" x2="172.793" y2="243.605" stroke="#141414" stroke-width="0.4"/>
<line x1="137.938" y1="243.605" x2="134.611" y2="236.605" stroke="#141414" stroke-width="0.4"/>
<line x1="134.611" y1="236.605" x2="119.085" y2="236.605" stroke="#141414" stroke-width="0.4"/>
<line x1="119.085" y1="236.605" x2="115.757" y2="243.605" stroke="#141414" stroke-width="0.4"/>
<line x1="172.793" y1="256.913" x2="179.793" y2="260.24" stroke="#141414" stroke-width="0.4"/>
<line x1="179.793" y1="260.24" x2="179.793" y2="275.766" stroke="#141414" stroke-width="0.4"/>
<line x1="179.793" y1="275.766" x2="172.793" y2="279.093" stroke="#141414" stroke-width="0.4"/>
<line x1="80.903" y1="221.424" x2="73.903" y2="224.752" stroke="#141414" stroke-width="0.4"/>
<line x1="73.903" y1="224.752" x2="73.903" y2="240.278" stroke="#141414" stroke-width="0.4"/>
<line x1="73.903" y1="240.278" x2="80.903" y2="243.605" stroke="#141414" stroke-width="0.4"/>
<line x1="137.938" y1="279.093" x2="143.166" y2="286.093" stroke="#141414" stroke-width="0.4"/>
<line x1="143.166" y1="286.093" x2="167.564" y2="286.093" stroke="#141414" stroke-width="0.4"/>
<line x1="167.564" y1="286.093" x2="172.793" y2="279.093" stroke="#141414" stroke-width="0.4"/>
<line x1="194.973" y1="256.913" x2="201.627" y2="254.917" stroke="#141414" stroke-width="0.4"/>
<line x1="201.627" y1="254.917" x2="201.627" y2="245.601" stroke="#141414" stroke-width="0.4"/>
<line x1="201.627" y1="245.601" x2="194.973" y2="243.605" stroke="#141414" stroke-width="0.4"/>
<circle cx="126.848" cy="260.413" r="2.09" fill="#99d9fa" stroke="#464646" stroke-width="0.2"/>
<text x="126.848" y="261.13" font-size="2.05" text-anchor="middle" fill="#141414">99</text>
<circle cx="155.365" cy="240.105" r="2.09" fill="#ffe082" stroke="#464646" stroke-width="0.2"/>
<text x="155.365" y="240.82" font-size="2.05" text-anchor="middle" fill="#141414">100</text>
<circle cx="126.848" cy="240.105" r="2.09" fill="#ffe082" stroke="#464646" stroke-width="0.2"/>
<text x="126.848" y="240.82" font-size="2.05" text-anchor="middle" fill="#141414">101</text>
<circle cx="176.293" cy="268.003" r="2.09" fill="#ffe082" stroke="#464646" stroke-width="0.2"/>
<text x="176.293" y="268.72" font-size="2.05" text-anchor="middle" fill="#141414">102</text>
<circle cx="77.403" cy="232.515" r="2.09" fill="#ffe082" stroke="#464646" stroke-width="0.2"/>
<text x="77.403" y="233.23" font-size="2.05" text-anchor="middle" fill="#141414">103</text>
<circle cx="155.365" cy="282.593" r="2.09" fill="#ffe082" stroke="#464646" stroke-width="0.2"/>
<text x="155.365" y="283.31" font-size="2.05" text-anchor="middle" fill="#141414">104</text>
<circle cx="198.3" cy="250.259" r="2.09" fill="#ffe082" stroke="#464646" stroke-width="0.2"/>
<text x="198.3" y="250.98" font-size="2.05" text-anchor="middle" fill="#141414">105</text>
<circle cx="161.174" cy="271.7" r="4.60" fill="#eaf1fe" stroke="#2e78e6" stroke-width="0.3"/>
<text x="161.174" y="273.50" font-size="5.20" text-anchor="middle" fill="#14306e" font-weight="bold">15</text>
<text x="205.0" y="295.0" font-size="3.2" text-anchor="end" fill="#737373" font-family="sans-serif">1 / 5</text>
</svg>
