<svg xmlns="http://www.w3.org/2000/svg" xmlns:xlink="http://www.w3.org/1999/xlink" width="210.00mm" height="297.00mm" viewBox="0 0 210.00 297.00">
<rect x="0" y="0" width="210.00" height="297.00" fill="#ffffff" stroke="#cccccc" stroke-width="0.2"/>
<polygon points="47.584,132.693 47.169,132.631 33.204,133.207 33.179,130.536" fill="rgb(216,216,216)"/>
<polygon points="47.584,147.258 42.02,155.078 42.729,159.094 50.118,161.601" fill="rgb(216,216,216)"/>
<polygon points="50.118,161.601 44.759,166.607 49.183,175.793 56.438,174.724" fill="rgb(216,216,216)"/>
<polygon points="56.438,174.724 66.166,175.129 89.048,153.354 89.126,143.617" fill="rgb(216,216,216)"/>
<polygon points="38.73,174.724 29.002,175.129 6.12,153.354 6.042,143.617" fill="rgb(216,216,216)"/>
<polygon points="185.866,63.23 187.997,56.214 179.567,50.479 173.823,55.037" fill="rgb(216,216,216)"/>
<polygon points="162.092,123.389 162.978,113.692 142.362,89.76 132.641,89.201" fill="rgb(216,216,216)"/>
<polygon points="162.092,123.389 171.813,123.948 192.428,147.88 191.542,157.577" fill="rgb(216,216,216)"/>
<polygon points="173.823,55.037 178.687,52.716 168.744,49.383 160.013,50.408" fill="rgb(216,216,216)"/>
<polygon points="145.608,48.251 145.608,47.831 148.246,34.106 145.608,33.686" fill="rgb(216,216,216)"/>
<polygon points="62.132,133.414 70.217,128.244 74.193,129.151 76.332,136.655" fill="rgb(216,216,216)"/>
<polygon points="76.332,136.655 81.597,131.551 90.552,136.424 89.126,143.617" fill="rgb(216,216,216)"/>
<polygon points="150.261,90.952 142.188,89.246 140.192,83.772 145.271,77.269" fill="rgb(216,216,216)"/>
<polygon points="145.271,77.269 141.828,81.415 141.034,70.958 144.168,62.745" fill="rgb(216,216,216)"/>
<polygon points="49.025,118.199 44.261,109.867 45.364,105.941 52.965,104.177" fill="rgb(216,216,216)"/>
<polygon points="52.965,104.177 48.128,98.665 53.438,89.962 60.552,91.743" fill="rgb(216,216,216)"/>
<polygon points="42.931,89.992 33.29,88.627 8.367,108.032 7.327,117.714" fill="rgb(216,216,216)"/>
<polygon points="103.19,55.013 102.482,47.714 111.876,43.751 116.61,49.351" fill="rgb(216,216,216)"/>
<polygon points="103.19,55.013 99.659,40.188 87.878,26.512 73.739,20.825" fill="rgb(216,216,216)"/>
<polygon points="116.61,49.351 112.298,46.117 122.703,44.806 131.061,47.53" fill="rgb(216,216,216)"/>
<polygon points="33.179,130.536 26.811,135.784 21.287,133.932 19.369,125.906" fill="rgb(216,216,216)"/>
<polygon points="19.369,125.906 13.625,130.465 5.196,124.73 7.327,117.714" fill="rgb(216,216,216)"/>
<polygon points="31.101,57.555 32.928,46.742 62.775,21.031 73.739,20.825" fill="rgb(216,216,216)"/>
<polygon points="136.755,6.22 144.01,5.151 148.433,14.337 143.075,19.343" fill="rgb(216,216,216)"/>
<polygon points="143.075,19.343 150.728,22.428 151.742,28.165 145.608,33.686" fill="rgb(216,216,216)"/>
<line x1="47.584" y1="147.258" x2="47.584" y2="132.693" stroke="#8c8c8c" stroke-width="0.3" stroke-dasharray="1.2,0.8"/>
<line x1="47.584" y1="132.693" x2="62.132" y2="133.414" stroke="#8c8c8c" stroke-width="0.3" stroke-dasharray="1.2,0.8"/>
<line x1="47.584" y1="132.693" x2="49.025" y2="118.199" stroke="#8c8c8c" stroke-width="0.3" stroke-dasharray="1.2,0.8"/>
<line x1="62.132" y1="133.414" x2="47.584" y2="147.258" stroke="#8c8c8c" stroke-width="0.3" stroke-dasharray="1.2,0.8"/>
<line x1="47.584" y1="147.258" x2="33.037" y2="133.414" stroke="#8c8c8c" stroke-width="0.3" stroke-dasharray="1.2,0.8"/>
<line x1="76.332" y1="136.655" x2="50.118" y2="161.601" stroke="#8c8c8c" stroke-width="0.3" stroke-dasharray="1.2,0.8"/>
<line x1="45.05" y1="161.601" x2="18.837" y2="136.655" stroke="#8c8c8c" stroke-width="0.3" stroke-dasharray="1.2,0.8"/>
<line x1="162.092" y1="123.389" x2="119.453" y2="160.119" stroke="#8c8c8c" stroke-width="0.3" stroke-dasharray="1.2,0.8"/>
<line x1="145.271" y1="77.269" x2="173.823" y2="55.038" stroke="#8c8c8c" stroke-width="0.3" stroke-dasharray="1.2,0.8"/>
<line x1="174.574" y1="50.025" x2="153.784" y2="20.407" stroke="#8c8c8c" stroke-width="0.3" stroke-dasharray="1.2,0.8"/>
<line x1="145.608" y1="48.251" x2="160.013" y2="50.408" stroke="#8c8c8c" stroke-width="0.3" stroke-dasharray="1.2,0.8"/>
<line x1="144.168" y1="62.745" x2="160.013" y2="50.408" stroke="#8c8c8c" stroke-width="0.3" stroke-dasharray="1.2,0.8"/>
<line x1="160.013" y1="50.408" x2="148.476" y2="33.971" stroke="#8c8c8c" stroke-width="0.3" stroke-dasharray="1.2,0.8"/>
<line x1="144.168" y1="62.745" x2="145.608" y2="48.251" stroke="#8c8c8c" stroke-width="0.3" stroke-dasharray="1.2,0.8"/>
<line x1="131.061" y1="47.53" x2="145.608" y2="48.251" stroke="#8c8c8c" stroke-width="0.3" stroke-dasharray="1.2,0.8"/>
<line x1="49.025" y1="118.199" x2="62.132" y2="133.414" stroke="#8c8c8c" stroke-width="0.3" stroke-dasharray="1.2,0.8"/>
<line x1="52.965" y1="104.177" x2="76.583" y2="131.593" stroke="#8c8c8c" stroke-width="0.3" stroke-dasharray="1.2,0.8"/>
<line x1="90.002" y1="125.931" x2="132.641" y2="89.201" stroke="#8c8c8c" stroke-width="0.3" stroke-dasharray="1.2,0.8"/>
<line x1="60.552" y1="91.743" x2="90.002" y2="125.931" stroke="#8c8c8c" stroke-width="0.3" stroke-dasharray="1.2,0.8"/>
<line x1="103.19" y1="55.013" x2="132.641" y2="89.201" stroke="#8c8c8c" stroke-width="0.3" stroke-dasharray="1.2,0.8"/>
<line x1="116.61" y1="49.351" x2="140.228" y2="76.767" stroke="#8c8c8c" stroke-width="0.3" stroke-dasharray="1.2,0.8"/>
<line x1="131.061" y1="47.53" x2="144.168" y2="62.745" stroke="#8c8c8c" stroke-width="0.3" stroke-dasharray="1.2,0.8"/>
<line x1="33.179" y1="130.536" x2="49.025" y2="118.199" stroke="#8c8c8c" stroke-width="0.3" stroke-dasharray="1.2,0.8"/>
<line x1="19.369" y1="125.906" x2="47.922" y2="103.675" stroke="#8c8c8c" stroke-width="0.3" stroke-dasharray="1.2,0.8"/>
<line x1="60.552" y1="91.743" x2="103.19" y2="55.013" stroke="#8c8c8c" stroke-width="0.3" stroke-dasharray="1.2,0.8"/>
<line x1="143.075" y1="19.343" x2="116.861" y2="44.289" stroke="#8c8c8c" stroke-width="0.3" stroke-dasharray="1.2,0.8"/>
<line x1="145.608" y1="33.686" x2="131.061" y2="47.53" stroke="#8c8c8c" stroke-width="0.3" stroke-dasharray="1.2,0.8"/>
<line x1="33.179" y1="130.536" x2="47.584" y2="132.693" stroke="#8c8c8c" stroke-width="0.3" stroke-dasharray="1.2,0.8"/>
<line x1="50.118" y1="161.601" x2="47.584" y2="147.258" stroke="#8c8c8c" stroke-width="0.3" stroke-dasharray="1.2,0.8"/>
<line x1="56.438" y1="174.724" x2="50.118" y2="161.601" stroke="#8c8c8c" stroke-width="0.3" stroke-dasharray="1.2,0.8"/>
<line x1="89.126" y1="143.617" x2="56.438" y2="174.724" stroke="#8c8c8c" stroke-width="0.3" stroke-dasharray="1.2,0.8"/>
<line x1="6.042" y1="143.617" x2="38.73" y2="174.724" stroke="#8c8c8c" stroke-width="0.3" stroke-dasharray="1.2,0.8"/>
<line x1="173.823" y1="55.037" x2="185.866" y2="63.23" stroke="#8c8c8c" stroke-width="0.3" stroke-dasharray="1.2,0.8"/>
<line x1="132.641" y1="89.201" x2="162.092" y2="123.389" stroke="#8c8c8c" stroke-width="0.3" stroke-dasharray="1.2,0.8"/>
<line x1="191.542" y1="157.577" x2="162.092" y2="123.389" stroke="#8c8c8c" stroke-width="0.3" stroke-dasharray="1.2,0.8"/>
<line x1="160.013" y1="50.408" x2="173.823" y2="55.037" stroke="#8c8c8c" stroke-width="0.3" stroke-dasharray="1.2,0.8"/>
<line x1="145.608" y1="33.686" x2="145.608" y2="48.251" stroke="#8c8c8c" stroke-width="0.3" stroke-dasharray="1.2,0.8"/>
<line x1="76.332" y1="136.655" x2="62.132" y2="133.414" stroke="#8c8c8c" stroke-width="0.3" stroke-dasharray="1.2,0.8"/>
<line x1="89.126" y1="143.617" x2="76.332" y2="136.655" stroke="#8c8c8c" stroke-width="0.3" stroke-dasharray="1.2,0.8"/>
<line x1="145.271" y1="77.269" x2="150.261" y2="90.952" stroke="#8c8c8c" stroke-width="0.3" stroke-dasharray="1.2,0.8"/>
<line x1="144.168" y1="62.745" x2="145.271" y2="77.269" stroke="#8c8c8c" stroke-width="0.3" stroke-dasharray="1.2,0.8"/>
<line x1="52.965" y1="104.177" x2="49.025" y2="118.199" stroke="#8c8c8c" stroke-width="0.3" stroke-dasharray="1.2,0.8"/>
<line x1="60.552" y1="91.743" x2="52.965" y2="104.177" stroke="#8c8c8c" stroke-width="0.3" stroke-dasharray="1.2,0.8"/>
<line x1="7.327" y1="117.714" x2="42.931" y2="89.992" stroke="#8c8c8c" stroke-width="0.3" stroke-dasharray="1.2,0.8"/>
<line x1="116.61" y1="49.351" x2="103.19" y2="55.013" stroke="#8c8c8c" stroke-width="0.3" stroke-dasharray="1.2,0.8"/>
<line x1="73.739" y1="20.825" x2="103.19" y2="55.013" stroke="#8c8c8c" stroke-width="0.3" stroke-dasharray="1.2,0.8"/>
<line x1="131.061" y1="47.53" x2="116.61" y2="49.351" stroke="#8c8c8c" stroke-width="0.3" stroke-dasharray="1.2,0.8"/>
<line x1="19.369" y1="125.906" x2="33.179" y2="130.536" stroke="#8c8c8c" stroke-width="0.3" stroke-dasharray="1.2,0.8"/>
<line x1="7.327" y1="117.714" x2="19.369" y2="125.906" stroke="#8c8c8c" stroke-width="0.3" stroke-dasharray="1.2,0.8"/>
<line x1="73.739" y1="20.825" x2="31.101" y2="57.555" stroke="#8c8c8c" stroke-width="0.3" stroke-dasharray="1.2,0.8"/>
<line x1="143.075" y1="19.343" x2="136.755" y2="6.22" stroke="#8c8c8c" stroke-width="0.3" stroke-dasharray="1.2,0.8"/>
<line x1="145.608" y1="33.686" x2="143.075" y2="19.343" stroke="#8c8c8c" stroke-width="0.3" stroke-dasharray="1.2,0.8"/>
<line x1="33.037" y1="133.414" x2="47.584" y2="132.693" stroke="#141414" stroke-width="0.4"/>
<line x1="47.584" y1="147.258" x2="45.05" y2="161.601" stroke="#141414" stroke-width="0.4"/>
<line x1="45.05" y1="161.601" x2="38.73" y2="174.724" stroke="#141414" stroke-width="0.4"/>
<line x1="119.453" y1="160.119" x2="90.002" y2="125.931" stroke="#141414" stroke-width="0.4"/>
<line x1="148.904" y1="194.307" x2="119.453" y2="160.119" stroke="#141414" stroke-width="0.4"/>
<line x1="188.488" y1="45.718" x2="174.574" y2="50.025" stroke="#141414" stroke-width="0.4"/>
<line x1="185.866" y1="63.23" x2="150.261" y2="90.952" stroke="#141414" stroke-width="0.4"/>
<line x1="162.563" y1="8.785" x2="188.488" y2="45.718" stroke="#141414" stroke-width="0.4"/>
<line x1="174.574" y1="50.025" x2="160.013" y2="50.408" stroke="#141414" stroke-width="0.4"/>
<line x1="145.608" y1="48.251" x2="148.476" y2="33.971" stroke="#141414" stroke-width="0.4"/>
<line x1="76.583" y1="131.593" x2="62.132" y2="133.414" stroke="#141414" stroke-width="0.4"/>
<line x1="90.002" y1="125.931" x2="76.583" y2="131.593" stroke="#141414" stroke-width="0.4"/>
<line x1="140.228" y1="76.767" x2="132.641" y2="89.201" stroke="#141414" stroke-width="0.4"/>
<line x1="144.168" y1="62.745" x2="140.228" y2="76.767" stroke="#141414" stroke-width="0.4"/>
<line x1="47.922" y1="103.675" x2="49.025" y2="118.199" stroke="#141414" stroke-width="0.4"/>
<line x1="42.931" y1="89.992" x2="47.922" y2="103.675" stroke="#141414" stroke-width="0.4"/>
<line x1="60.552" y1="91.743" x2="31.101" y2="57.555" stroke="#141414" stroke-width="0.4"/>
<line x1="116.861" y1="44.289" x2="104.067" y2="37.327" stroke="#141414" stroke-width="0.4"/>
<line x1="104.067" y1="37.327" x2="136.755" y2="6.22" stroke="#141414" stroke-width="0.4"/>
<line x1="131.061" y1="47.53" x2="116.861" y2="44.289" stroke="#141414" stroke-width="0.4"/>
<line x1="18.837" y1="136.655" x2="33.037" y2="133.414" stroke="#141414" stroke-width="0.4"/>
<line x1="6.043" y1="143.617" x2="18.837" y2="136.655" stroke="#141414" stroke-width="0.4"/>
<line x1="191.542" y1="157.577" x2="148.904" y2="194.307" stroke="#141414" stroke-width="0.4"/>
<line x1="153.784" y1="20.407" x2="162.563" y2="8.785" stroke="#141414" stroke-width="0.4"/>
<line x1="148.476" y1="33.971" x2="153.784" y2="20.407" stroke="#141414" stroke-width="0.4"/>
<line x1="47.584" y1="132.693" x2="47.169" y2="132.631" stroke="#141414" stroke-width="0.4"/>
<line x1="47.169" y1="132.631" x2="33.204" y2="133.207" stroke="#141414" stroke-width="0.4"/>
<line x1="33.204" y1="133.207" x2="33.179" y2="130.536" stroke="#141414" stroke-width="0.4"/>
<line x1="47.584" y1="147.258" x2="42.02" y2="155.078" stroke="#141414" stroke-width="0.4"/>
<line x1="42.02" y1="155.078" x2="42.729" y2="159.094" stroke="#141414" stroke-width="0.4"/>
<line x1="42.729" y1="159.094" x2="50.118" y2="161.601" stroke="#141414" stroke-width="0.4"/>
<line x1="50.118" y1="161.601" x2="44.759" y2="166.607" stroke="#141414" stroke-width="0.4"/>
<line x1="44.759" y1="166.607" x2="49.183" y2="175.793" stroke="#141414" stroke-width="0.4"/>
<line x1="49.183" y1="175.793" x2="56.438" y2="174.724" stroke="#141414" stroke-width="0.4"/>
<line x1="56.438" y1="174.724" x2="66.166" y2="175.129" stroke="#141414" stroke-width="0.4"/>
<line x1="66.166" y1="175.129" x2="89.048" y2="153.354" stroke="#141414" stroke-width="0.4"/>
<line x1="89.048" y1="153.354" x2="89.126" y2="143.617" stroke="#141414" stroke-width="0.4"/>
<line x1="38.73" y1="174.724" x2="29.002" y2="175.129" stroke="#141414" stroke-width="0.4"/>
<line x1="29.002" y1="175.129" x2="6.12" y2="153.354" stroke="#141414" stroke-width="0.4"/>
<line x1="6.12" y1="153.354" x2="6.042" y2="143.617" stroke="#141414" stroke-width="0.4"/>
<line x1="185.866" y1="63.23" x2="187.997" y2="56.214" stroke="#141414" stroke-width="0.4"/>
<line x1="187.997" y1="56.214" x2="179.567" y2="50.479" stroke="#141414" stroke-width="0.4"/>
<line x1="179.567" y1="50.479" x2="173.823" y2="55.037" stroke="#141414" stroke-width="0.4"/>
<line x1="162.092" y1="123.389" x2="162.978" y2="113.692" stroke="#141414" stroke-width="0.4"/>
<line x1="162.978" y1="113.692" x2="142.362" y2="89.76" stroke="#141414" stroke-width="0.4"/>
<line x1="142.362" y1="89.76" x2="132.641" y2="89.201" stroke="#141414" stroke-width="0.4"/>
<line x1="162.092" y1="123.389" x2="171.813" y2="123.948" stroke="#141414" stroke-width="0.4"/>
<line x1="171.813" y1="123.948" x2="192.428" y2="147.88" stroke="#141414" stroke-width="0.4"/>
<line x1="192.428" y1="147.88" x2="191.542" y2="157.577" stroke="#141414" stroke-width="0.4"/>
<line x1="173.823" y1="55.037" x2="178.687" y2="52.716" stroke="#141414" stroke-width="0.4"/>
<line x1="178.687" y1="52.716" x2="168.744" y2="49.383" stroke="#141414" stroke-width="0.4"/>
<line x1="168.744" y1="49.383" x2="160.013" y2="50.408" stroke="#141414" stroke-width="0.4"/>
<line x1="145.608" y1="48.251" x2="145.608" y2="47.831" stroke="#141414" stroke-width="0.4"/>
<line x1="145.608" y1="47.831" x2="148.246" y2="34.106" stroke="#141414" stroke-width="0.4"/>
<line x1="148.246" y1="34.106" x2="145.608" y2="33.686" stroke="#141414" stroke-width="0.4"/>
<line x1="62.132" y1="133.414" x2="70.217" y2="128.244" stroke="#141414" stroke-width="0.4"/>
<line x1="70.217" y1="128.244" x2="74.193" y2="129.151" stroke="#141414" stroke-width="0.4"/>
<line x1="74.193" y1="129.151" x2="76.332" y2="136.655" stroke="#141414" stroke-width="0.4"/>
<line x1="76.332" y1="136.655" x2="81.597" y2="131.551" stroke="#141414" stroke-width="0.4"/>
<line x1="81.597" y1="131.551" x2="90.552" y2="136.424" stroke="#141414" stroke-width="0.4"/>
<line x1="90.552" y1="136.424" x2="89.126" y2="143.617" stroke="#141414" stroke-width="0.4"/>
<line x1="150.261" y1="90.952" x2="142.188" y2="89.246" stroke="#141414" stroke-width="0.4"/>
<line x1="142.188" y1="89.246" x2="140.192" y2="83.772" stroke="#141414" stroke-width="0.4"/>
<line x1="140.192" y1="83.772" x2="145.271" y2="77.269" stroke="#141414" stroke-width="0.4"/>
<line x1="145.271" y1="77.269" x2="141.828" y2="81.415" stroke="#141414" stroke-width="0.4"/>
<line x1="141.828" y1="81.415" x2="141.034" y2="70.958" stroke="#141414" stroke-width="0.4"/>
<line x1="141.034" y1="70.958" x2="144.168" y2="62.745" stroke="#141414" stroke-width="0.4"/>
<line x1="49.025" y1="118.199" x2="44.261" y2="109.867" stroke="#141414" stroke-width="0.4"/>
<line x1="44.261" y1="109.867" x2="45.364" y2="105.941" stroke="#141414" stroke-width="0.4"/>
<line x1="45.364" y1="105.941" x2="52.965" y2="104.177" stroke="#141414" stroke-width="0.4"/>
<line x1="52.965" y1="104.177" x2="48.128" y2="98.665" stroke="#141414" stroke-width="0.4"/>
<line x1="48.128" y1="98.665" x2="53.438" y2="89.962" stroke="#141414" stroke-width="0.4"/>
<line x1="53.438" y1="89.962" x2="60.552" y2="91.743" stroke="#141414" stroke-width="0.4"/>
<line x1="42.931" y1="89.992" x2="33.29" y2="88.627" stroke="#141414" stroke-width="0.4"/>
<line x1="33.29" y1="88.627" x2="8.367" y2="108.032" stroke="#141414" stroke-width="0.4"/>
<line x1="8.367" y1="108.032" x2="7.327" y2="117.714" stroke="#141414" stroke-width="0.4"/>
<line x1="103.19" y1="55.013" x2="102.482" y2="47.714" stroke="#141414" stroke-width="0.4"/>
<line x1="102.482" y1="47.714" x2="111.876" y2="43.751" stroke="#141414" stroke-width="0.4"/>
<line x1="111.876" y1="43.751" x2="116.61" y2="49.351" stroke="#141414" stroke-width="0.4"/>
<line x1="103.19" y1="55.013" x2="99.659" y2="40.188" stroke="#141414" stroke-width="0.4"/>
<line x1="99.659" y1="40.188" x2="87.878" y2="26.512" stroke="#141414" stroke-width="0.4"/>
<line x1="87.878" y1="26.512" x2="73.739" y2="20.825" stroke="#141414" stroke-width="0.4"/>
<line x1="116.61" y1="49.351" x2="112.298" y2="46.117" stroke="#141414" stroke-width="0.4"/>
<line x1="112.298" y1="46.117" x2="122.703" y2="44.806" stroke="#141414" stroke-width="0.4"/>
<line x1="122.703" y1="44.806" x2="131.061" y2="47.53" stroke="#141414" stroke-width="0.4"/>
<line x1="33.179" y1="130.536" x2="26.811" y2="135.784" stroke="#141414" stroke-width="0.4"/>
<line x1="26.811" y1="135.784" x2="21.287" y2="133.932" stroke="#141414" stroke-width="0.4"/>
<line x1="21.287" y1="133.932" x2="19.369" y2="125.906" stroke="#141414" stroke-width="0.4"/>
<line x1="19.369" y1="125.906" x2="13.625" y2="130.465" stroke="#141414" stroke-width="0.4"/>
<line x1="13.625" y1="130.465" x2="5.196" y2="124.73" stroke="#141414" stroke-width="0.4"/>
<line x1="5.196" y1="124.73" x2="7.327" y2="117.714" stroke="#141414" stroke-width="0.4"/>
<line x1="31.101" y1="57.555" x2="32.928" y2="46.742" stroke="#141414" stroke-width="0.4"/>
<line x1="32.928" y1="46.742" x2="62.775" y2="21.031" stroke="#141414" stroke-width="0.4"/>
<line x1="62.775" y1="21.031" x2="73.739" y2="20.825" stroke="#141414" stroke-width="0.4"/>
<line x1="136.755" y1="6.22" x2="144.01" y2="5.151" stroke="#141414" stroke-width="0.4"/>
<line x1="144.01" y1="5.151" x2="148.433" y2="14.337" stroke="#141414" stroke-width="0.4"/>
<line x1="148.433" y1="14.337" x2="143.075" y2="19.343" stroke="#141414" stroke-width="0.4"/>
<line x1="143.075" y1="19.343" x2="150.728" y2="22.428" stroke="#141414" stroke-width="0.4"/>
<line x1="150.728" y1="22.428" x2="151.742" y2="28.165" stroke="#141414" stroke-width="0.4"/>
<line x1="151.742" y1="28.165" x2="145.608" y2="33.686" stroke="#141414" stroke-width="0.4"/>
<circle cx="45.613" cy="155.758" r="1.08" fill="#ffe082" stroke="#464646" stroke-width="0.2"/>
<text x="45.613" y="156.13" font-size="1.06" text-anchor="middle" fill="#141414">2</text>
<circle cx="50.125" cy="169.681" r="1.08" fill="#ffe082" stroke="#464646" stroke-width="0.2"/>
<text x="50.125" y="170.05" font-size="1.06" text-anchor="middle" fill="#141414">3</text>
<circle cx="75.194" cy="161.706" r="1.08" fill="#ffe082" stroke="#464646" stroke-width="0.2"/>
<text x="75.194" y="162.08" font-size="1.06" text-anchor="middle" fill="#141414">4</text>
<circle cx="19.974" cy="161.706" r="1.08" fill="#ffe082" stroke="#464646" stroke-width="0.2"/>
<text x="19.974" y="162.08" font-size="1.06" text-anchor="middle" fill="#141414">5</text>
<circle cx="181.813" cy="56.24" r="1.08" fill="#ffe082" stroke="#464646" stroke-width="0.2"/>
<text x="181.813" y="56.61" font-size="1.06" text-anchor="middle" fill="#141414">6</text>
<circle cx="150.018" cy="104.011" r="1.08" fill="#ffe082" stroke="#464646" stroke-width="0.2"/>
<text x="150.018" y="104.38" font-size="1.06" text-anchor="middle" fill="#141414">7</text>
<circle cx="179.469" cy="138.199" r="1.08" fill="#ffe082" stroke="#464646" stroke-width="0.2"/>
<text x="179.469" y="138.57" font-size="1.06" text-anchor="middle" fill="#141414">8</text>
<circle cx="170.317" cy="51.886" r="1.08" fill="#ffe082" stroke="#464646" stroke-width="0.2"/>
<text x="170.317" y="52.26" font-size="1.06" text-anchor="middle" fill="#141414">9</text>
<circle cx="70.718" cy="131.866" r="1.08" fill="#ffe082" stroke="#464646" stroke-width="0.2"/>
<text x="70.718" y="132.24" font-size="1.06" text-anchor="middle" fill="#141414">11</text>
<circle cx="84.402" cy="137.062" r="1.08" fill="#ffe082" stroke="#464646" stroke-width="0.2"/>
<text x="84.402" y="137.43" font-size="1.06" text-anchor="middle" fill="#141414">12</text>
<circle cx="144.478" cy="85.31" r="1.08" fill="#ffe082" stroke="#464646" stroke-width="0.2"/>
<text x="144.478" y="85.68" font-size="1.06" text-anchor="middle" fill="#141414">13</text>
<circle cx="143.075" cy="73.097" r="1.08" fill="#ffe082" stroke="#464646" stroke-width="0.2"/>
<text x="143.075" y="73.47" font-size="1.06" text-anchor="middle" fill="#141414">14</text>
<circle cx="47.904" cy="109.546" r="1.08" fill="#ffe082" stroke="#464646" stroke-width="0.2"/>
<text x="47.904" y="109.92" font-size="1.06" text-anchor="middle" fill="#141414">15</text>
<circle cx="53.771" cy="96.137" r="1.08" fill="#ffe082" stroke="#464646" stroke-width="0.2"/>
<text x="53.771" y="96.51" font-size="1.06" text-anchor="middle" fill="#141414">16</text>
<circle cx="22.979" cy="101.091" r="1.08" fill="#ffe082" stroke="#464646" stroke-width="0.2"/>
<text x="22.979" y="101.46" font-size="1.06" text-anchor="middle" fill="#141414">17</text>
<circle cx="108.539" cy="48.957" r="1.08" fill="#ffe082" stroke="#464646" stroke-width="0.2"/>
<text x="108.539" y="49.33" font-size="1.06" text-anchor="middle" fill="#141414">18</text>
<circle cx="91.117" cy="35.634" r="1.08" fill="#ffe082" stroke="#464646" stroke-width="0.2"/>
<text x="91.117" y="36.01" font-size="1.06" text-anchor="middle" fill="#141414">19</text>
<circle cx="120.668" cy="46.951" r="1.08" fill="#ffe082" stroke="#464646" stroke-width="0.2"/>
<text x="120.668" y="47.32" font-size="1.06" text-anchor="middle" fill="#141414">20</text>
<circle cx="25.162" cy="131.54" r="1.08" fill="#ffe082" stroke="#464646" stroke-width="0.2"/>
<text x="25.162" y="131.91" font-size="1.06" text-anchor="middle" fill="#141414">21</text>
<circle cx="11.379" cy="124.704" r="1.08" fill="#ffe082" stroke="#464646" stroke-width="0.2"/>
<text x="11.379" y="125.08" font-size="1.06" text-anchor="middle" fill="#141414">22</text>
<circle cx="50.136" cy="36.538" r="1.08" fill="#ffe082" stroke="#464646" stroke-width="0.2"/>
<text x="50.136" y="36.91" font-size="1.06" text-anchor="middle" fill="#141414">23</text>
<circle cx="143.068" cy="11.263" r="1.08" fill="#ffe082" stroke="#464646" stroke-width="0.2"/>
<text x="143.068" y="11.63" font-size="1.06" text-anchor="middle" fill="#141414">24</text>
<circle cx="147.788" cy="25.905" r="1.08" fill="#ffe082" stroke="#464646" stroke-width="0.2"/>
<text x="147.788" y="26.28" font-size="1.06" text-anchor="middle" fill="#141414">25</text>
<circle cx="98.616" cy="200.256" r="4.6" fill="#eaf1fe" stroke="#2e78e6" stroke-width="0.3"/>
<text x="98.616" y="202.056" font-size="5.2" text-anchor="middle" fill="#14306e" font-weight="bold">1</text>
<polygon points="49.181,239.718 42.634,232.613 33.756,232.471 26.986,239.364" fill="rgb(216,216,216)"/>
<polygon points="38.381,258.414 28.955,256.293 24.397,248.673 26.986,239.364" fill="rgb(216,216,216)"/>
<polygon points="80.083,220.518 76.613,211.501 80.419,203.479 89.597,200.462" fill="rgb(216,216,216)"/>
<polygon points="101.629,219.117 103.902,209.726 99.09,202.265 89.597,200.462" fill="rgb(216,216,216)"/>
<polygon points="81.488,258.284 75.376,265.427 67.011,265.621 60.576,258.768" fill="rgb(216,216,216)"/>
<polygon points="92.114,239.172 96.056,245.797 111.041,244.225 113.522,236.927" fill="rgb(216,216,216)"/>
<polygon points="81.488,258.284 84.258,249.172 79.902,241.746 70.596,239.718" fill="rgb(216,216,216)"/>
<polygon points="46.846,202.529 39.189,202.064 32.401,215.038 37.149,221.063" fill="rgb(216,216,216)"/>
<polygon points="110.462,198.752 118.043,197.357 126.725,209.671 122.864,216.344" fill="rgb(216,216,216)"/>
<polygon points="46.846,202.529 56.242,204.082 60.971,211.277 58.667,220.518" fill="rgb(216,216,216)"/>
<polygon points="122.864,216.344 127.837,222.325 121.297,236.732 113.522,236.927" fill="rgb(216,216,216)"/>
<line x1="38.381" y1="258.414" x2="49.181" y2="239.718" stroke="#8c8c8c" stroke-width="0.3" stroke-dasharray="1.2,0.8"/>
<line x1="60.576" y1="258.768" x2="49.181" y2="239.718" stroke="#8c8c8c" stroke-width="0.3" stroke-dasharray="1.2,0.8"/>
<line x1="58.667" y1="220.518" x2="49.181" y2="239.718" stroke="#8c8c8c" stroke-width="0.3" stroke-dasharray="1.2,0.8"/>
<line x1="49.181" y1="239.718" x2="70.597" y2="239.718" stroke="#8c8c8c" stroke-width="0.3" stroke-dasharray="1.2,0.8"/>
<line x1="60.576" y1="258.768" x2="38.381" y2="258.414" stroke="#8c8c8c" stroke-width="0.3" stroke-dasharray="1.2,0.8"/>
<line x1="38.381" y1="258.414" x2="26.488" y2="276.224" stroke="#8c8c8c" stroke-width="0.3" stroke-dasharray="1.2,0.8"/>
<line x1="49.08" y1="276.966" x2="38.381" y2="258.414" stroke="#8c8c8c" stroke-width="0.3" stroke-dasharray="1.2,0.8"/>
<line x1="80.083" y1="220.518" x2="101.629" y2="219.117" stroke="#8c8c8c" stroke-width="0.3" stroke-dasharray="1.2,0.8"/>
<line x1="92.114" y1="239.172" x2="80.083" y2="220.518" stroke="#8c8c8c" stroke-width="0.3" stroke-dasharray="1.2,0.8"/>
<line x1="58.667" y1="220.518" x2="80.083" y2="220.518" stroke="#8c8c8c" stroke-width="0.3" stroke-dasharray="1.2,0.8"/>
<line x1="80.083" y1="220.518" x2="70.597" y2="239.718" stroke="#8c8c8c" stroke-width="0.3" stroke-dasharray="1.2,0.8"/>
<line x1="92.114" y1="239.172" x2="101.629" y2="219.117" stroke="#8c8c8c" stroke-width="0.3" stroke-dasharray="1.2,0.8"/>
<line x1="122.865" y1="216.344" x2="101.629" y2="219.117" stroke="#8c8c8c" stroke-width="0.3" stroke-dasharray="1.2,0.8"/>
<line x1="101.629" y1="219.117" x2="113.522" y2="236.927" stroke="#8c8c8c" stroke-width="0.3" stroke-dasharray="1.2,0.8"/>
<line x1="60.576" y1="258.768" x2="49.08" y2="276.966" stroke="#8c8c8c" stroke-width="0.3" stroke-dasharray="1.2,0.8"/>
<line x1="70.597" y1="239.718" x2="60.576" y2="258.768" stroke="#8c8c8c" stroke-width="0.3" stroke-dasharray="1.2,0.8"/>
<line x1="26.488" y1="276.224" x2="16.21" y2="257.312" stroke="#8c8c8c" stroke-width="0.3" stroke-dasharray="1.2,0.8"/>
<line x1="37.149" y1="221.063" x2="58.667" y2="220.518" stroke="#8c8c8c" stroke-width="0.3" stroke-dasharray="1.2,0.8"/>
<line x1="58.667" y1="220.518" x2="70.597" y2="239.718" stroke="#8c8c8c" stroke-width="0.3" stroke-dasharray="1.2,0.8"/>
<line x1="26.986" y1="239.364" x2="49.181" y2="239.718" stroke="#8c8c8c" stroke-width="0.3" stroke-dasharray="1.2,0.8"/>
<line x1="26.986" y1="239.364" x2="38.381" y2="258.414" stroke="#8c8c8c" stroke-width="0.3" stroke-dasharray="1.2,0.8"/>
<line x1="89.597" y1="200.462" x2="80.083" y2="220.518" stroke="#8c8c8c" stroke-width="0.3" stroke-dasharray="1.2,0.8"/>
<line x1="89.597" y1="200.462" x2="101.629" y2="219.117" stroke="#8c8c8c" stroke-width="0.3" stroke-dasharray="1.2,0.8"/>
<line x1="60.576" y1="258.768" x2="81.488" y2="258.284" stroke="#8c8c8c" stroke-width="0.3" stroke-dasharray="1.2,0.8"/>
<line x1="113.522" y1="236.927" x2="92.114" y2="239.172" stroke="#8c8c8c" stroke-width="0.3" stroke-dasharray="1.2,0.8"/>
<line x1="70.596" y1="239.718" x2="81.488" y2="258.284" stroke="#8c8c8c" stroke-width="0.3" stroke-dasharray="1.2,0.8"/>
<line x1="37.149" y1="221.063" x2="46.846" y2="202.529" stroke="#8c8c8c" stroke-width="0.3" stroke-dasharray="1.2,0.8"/>
<line x1="122.864" y1="216.344" x2="110.462" y2="198.752" stroke="#8c8c8c" stroke-width="0.3" stroke-dasharray="1.2,0.8"/>
<line x1="58.667" y1="220.518" x2="46.846" y2="202.529" stroke="#8c8c8c" stroke-width="0.3" stroke-dasharray="1.2,0.8"/>
<line x1="113.522" y1="236.927" x2="122.864" y2="216.344" stroke="#8c8c8c" stroke-width="0.3" stroke-dasharray="1.2,0.8"/>
<line x1="49.181" y1="239.718" x2="37.149" y2="221.063" stroke="#141414" stroke-width="0.4"/>
<line x1="16.21" y1="257.312" x2="38.381" y2="258.414" stroke="#141414" stroke-width="0.4"/>
<line x1="68.688" y1="201.468" x2="80.083" y2="220.518" stroke="#141414" stroke-width="0.4"/>
<line x1="101.629" y1="219.117" x2="110.462" y2="198.752" stroke="#141414" stroke-width="0.4"/>
<line x1="60.576" y1="258.768" x2="70.605" y2="277.124" stroke="#141414" stroke-width="0.4"/>
<line x1="70.605" y1="277.124" x2="49.08" y2="276.966" stroke="#141414" stroke-width="0.4"/>
<line x1="92.114" y1="239.172" x2="70.597" y2="239.718" stroke="#141414" stroke-width="0.4"/>
<line x1="5.0" y1="274.972" x2="16.21" y2="257.312" stroke="#141414" stroke-width="0.4"/>
<line x1="26.488" y1="276.224" x2="5.0" y2="274.972" stroke="#141414" stroke-width="0.4"/>
<line x1="58.667" y1="220.518" x2="68.688" y2="201.468" stroke="#141414" stroke-width="0.4"/>
<line x1="49.08" y1="276.966" x2="26.488" y2="276.224" stroke="#141414" stroke-width="0.4"/>
<line x1="49.181" y1="239.718" x2="42.634" y2="232.613" stroke="#141414" stroke-width="0.4"/>
<line x1="42.634" y1="232.613" x2="33.756" y2="232.471" stroke="#141414" stroke-width="0.4"/>
<line x1="33.756" y1="232.471" x2="26.986" y2="239.364" stroke="#141414" stroke-width="0.4"/>
<line x1="38.381" y1="258.414" x2="28.955" y2="256.293" stroke="#141414" stroke-width="0.4"/>
<line x1="28.955" y1="256.293" x2="24.397" y2="248.673" stroke="#141414" stroke-width="0.4"/>
<line x1="24.397" y1="248.673" x2="26.986" y2="239.364" stroke="#141414" stroke-width="0.4"/>
<line x1="80.083" y1="220.518" x2="76.613" y2="211.501" stroke="#141414" stroke-width="0.4"/>
<line x1="76.613" y1="211.501" x2="80.419" y2="203.479" stroke="#141414" stroke-width="0.4"/>
<line x1="80.419" y1="203.479" x2="89.597" y2="200.462" stroke="#141414" stroke-width="0.4"/>
<line x1="101.629" y1="219.117" x2="103.902" y2="209.726" stroke="#141414" stroke-width="0.4"/>
<line x1="103.902" y1="209.726" x2="99.09" y2="202.265" stroke="#141414" stroke-width="0.4"/>
<line x1="99.09" y1="202.265" x2="89.597" y2="200.462" stroke="#141414" stroke-width="0.4"/>
<line x1="81.488" y1="258.284" x2="75.376" y2="265.427" stroke="#141414" stroke-width="0.4"/>
<line x1="75.376" y1="265.427" x2="67.011" y2="265.621" stroke="#141414" stroke-width="0.4"/>
<line x1="67.011" y1="265.621" x2="60.576" y2="258.768" stroke="#141414" stroke-width="0.4"/>
<line x1="92.114" y1="239.172" x2="96.056" y2="245.797" stroke="#141414" stroke-width="0.4"/>
<line x1="96.056" y1="245.797" x2="111.041" y2="244.225" stroke="#141414" stroke-width="0.4"/>
<line x1="111.041" y1="244.225" x2="113.522" y2="236.927" stroke="#141414" stroke-width="0.4"/>
<line x1="81.488" y1="258.284" x2="84.258" y2="249.172" stroke="#141414" stroke-width="0.4"/>
<line x1="84.258" y1="249.172" x2="79.902" y2="241.746" stroke="#141414" stroke-width="0.4"/>
<line x1="79.902" y1="241.746" x2="70.596" y2="239.718" stroke="#141414" stroke-width="0.4"/>
<line x1="46.846" y1="202.529" x2="39.189" y2="202.064" stroke="#141414" stroke-width="0.4"/>
<line x1="39.189" y1="202.064" x2="32.401" y2="215.038" stroke="#141414" stroke-width="0.4"/>
<line x1="32.401" y1="215.038" x2="37.149" y2="221.063" stroke="#141414" stroke-width="0.4"/>
<line x1="110.462" y1="198.752" x2="118.043" y2="197.357" stroke="#141414" stroke-width="0.4"/>
<line x1="118.043" y1="197.357" x2="126.725" y2="209.671" stroke="#141414" stroke-width="0.4"/>
<line x1="126.725" y1="209.671" x2="122.864" y2="216.344" stroke="#141414" stroke-width="0.4"/>
<line x1="46.846" y1="202.529" x2="56.242" y2="204.082" stroke="#141414" stroke-width="0.4"/>
<line x1="56.242" y1="204.082" x2="60.971" y2="211.277" stroke="#141414" stroke-width="0.4"/>
<line x1="60.971" y1="211.277" x2="58.667" y2="220.518" stroke="#141414" stroke-width="0.4"/>
<line x1="122.864" y1="216.344" x2="127.837" y2="222.325" stroke="#141414" stroke-width="0.4"/>
<line x1="127.837" y1="222.325" x2="121.297" y2="236.732" stroke="#141414" stroke-width="0.4"/>
<line x1="121.297" y1="236.732" x2="113.522" y2="236.927" stroke="#141414" stroke-width="0.4"/>
<circle cx="38.139" cy="236.041" r="1.08" fill="#ffe082" stroke="#464646" stroke-width="0.2"/>
<text x="38.139" y="236.41" font-size="1.06" text-anchor="middle" fill="#141414">37</text>
<circle cx="29.68" cy="250.686" r="1.08" fill="#ffe082" stroke="#464646" stroke-width="0.2"/>
<text x="29.68" y="251.06" font-size="1.06" text-anchor="middle" fill="#141414">38</text>
<circle cx="81.678" cy="208.99" r="1.08" fill="#ffe082" stroke="#464646" stroke-width="0.2"/>
<text x="81.678" y="209.36" font-size="1.06" text-anchor="middle" fill="#141414">39</text>
<circle cx="98.555" cy="207.893" r="1.08" fill="#ffe082" stroke="#464646" stroke-width="0.2"/>
<text x="98.555" y="208.26" font-size="1.06" text-anchor="middle" fill="#141414">40</text>
<circle cx="71.113" cy="262.025" r="1.08" fill="#ffe082" stroke="#464646" stroke-width="0.2"/>
<text x="71.113" y="262.40" font-size="1.06" text-anchor="middle" fill="#141414">41</text>
<circle cx="103.183" cy="241.53" r="1.08" fill="#ffe082" stroke="#464646" stroke-width="0.2"/>
<text x="103.183" y="241.90" font-size="1.06" text-anchor="middle" fill="#141414">42</text>
<circle cx="79.061" cy="247.23" r="1.08" fill="#ffe082" stroke="#464646" stroke-width="0.2"/>
<text x="79.061" y="247.60" font-size="1.06" text-anchor="middle" fill="#141414">43</text>
<circle cx="38.897" cy="210.174" r="1.08" fill="#ffe082" stroke="#464646" stroke-width="0.2"/>
<text x="38.897" y="210.55" font-size="1.06" text-anchor="middle" fill="#141414">44</text>
<circle cx="119.524" cy="205.531" r="1.08" fill="#ffe082" stroke="#464646" stroke-width="0.2"/>
<text x="119.524" y="205.90" font-size="1.06" text-anchor="middle" fill="#141414">45</text>
<circle cx="55.682" cy="209.601" r="1.08" fill="#ffe082" stroke="#464646" stroke-width="0.2"/>
<text x="55.682" y="209.97" font-size="1.06" text-anchor="middle" fill="#141414">46</text>
<circle cx="121.38" cy="228.082" r="1.08" fill="#ffe082" stroke="#464646" stroke-width="0.2"/>
<text x="121.38" y="228.45" font-size="1.06" text-anchor="middle" fill="#141414">47</text>
<circle cx="66.419" cy="191.056" r="4.6" fill="#eaf1fe" stroke="#2e78e6" stroke-width="0.3"/>
<text x="66.419" y="192.85600000000002" font-size="5.2" text-anchor="middle" fill="#14306e" font-weight="bold">3</text>
<polygon points="156.038,212.716 157.794,206.213 156.214,203.826 150.394,204.19" fill="rgb(216,216,216)"/>
<polygon points="150.29,223.416 145.836,228.47 142.973,228.47 140.064,223.416" fill="rgb(216,216,216)"/>
<polygon points="176.15,210.102 180.45,204.917 180.004,202.089 174.559,200.001" fill="rgb(216,216,216)"/>
<polygon points="184.442,218.977 190.039,222.724 192.807,221.993 194.328,216.363" fill="rgb(216,216,216)"/>
<polygon points="171.18,223.058 171.373,229.731 175.367,231.974 181.165,228.663" fill="rgb(216,216,216)"/>
<polygon points="164.154,223.971 165.674,230.472 162.386,233.661 155.934,231.942" fill="rgb(216,216,216)"/>
<polygon points="189.411,206.022 195.319,205.115 198.761,212.353 194.328,216.363" fill="rgb(216,216,216)"/>
<polygon points="139.057,205.799 139.953,199.889 147.889,198.763 150.394,204.19" fill="rgb(216,216,216)"/>
<polygon points="142.174,212.162 135.914,214.483 135.07,218.985 140.064,223.416" fill="rgb(216,216,216)"/>
<polygon points="194.412,221.247 195.844,228.468 186.571,233.659 181.165,228.663" fill="rgb(216,216,216)"/>
<polygon points="154.993,202.544 161.374,198.874 169.263,205.994 166.264,212.716" fill="rgb(216,216,216)"/>
<line x1="150.29" y1="223.416" x2="156.038" y2="212.716" stroke="#8c8c8c" stroke-width="0.3" stroke-dasharray="1.2,0.8"/>
<line x1="164.154" y1="223.971" x2="156.038" y2="212.716" stroke="#8c8c8c" stroke-width="0.3" stroke-dasharray="1.2,0.8"/>
<line x1="142.174" y1="212.161" x2="156.038" y2="212.716" stroke="#8c8c8c" stroke-width="0.3" stroke-dasharray="1.2,0.8"/>
<line x1="156.038" y1="212.716" x2="166.264" y2="212.716" stroke="#8c8c8c" stroke-width="0.3" stroke-dasharray="1.2,0.8"/>
<line x1="164.154" y1="223.971" x2="150.29" y2="223.416" stroke="#8c8c8c" stroke-width="0.3" stroke-dasharray="1.2,0.8"/>
<line x1="150.29" y1="223.416" x2="142.174" y2="212.161" stroke="#8c8c8c" stroke-width="0.3" stroke-dasharray="1.2,0.8"/>
<line x1="155.934" y1="231.942" x2="150.29" y2="223.416" stroke="#8c8c8c" stroke-width="0.3" stroke-dasharray="1.2,0.8"/>
<line x1="176.15" y1="210.102" x2="184.442" y2="218.977" stroke="#8c8c8c" stroke-width="0.3" stroke-dasharray="1.2,0.8"/>
<line x1="171.18" y1="223.058" x2="176.15" y2="210.102" stroke="#8c8c8c" stroke-width="0.3" stroke-dasharray="1.2,0.8"/>
<line x1="176.15" y1="210.102" x2="189.411" y2="206.022" stroke="#8c8c8c" stroke-width="0.3" stroke-dasharray="1.2,0.8"/>
<line x1="176.15" y1="210.102" x2="166.264" y2="212.716" stroke="#8c8c8c" stroke-width="0.3" stroke-dasharray="1.2,0.8"/>
<line x1="171.18" y1="223.058" x2="184.442" y2="218.977" stroke="#8c8c8c" stroke-width="0.3" stroke-dasharray="1.2,0.8"/>
<line x1="189.411" y1="206.022" x2="184.442" y2="218.977" stroke="#8c8c8c" stroke-width="0.3" stroke-dasharray="1.2,0.8"/>
<line x1="184.442" y1="218.977" x2="181.165" y2="228.663" stroke="#8c8c8c" stroke-width="0.3" stroke-dasharray="1.2,0.8"/>
<line x1="171.18" y1="223.058" x2="164.154" y2="223.971" stroke="#8c8c8c" stroke-width="0.3" stroke-dasharray="1.2,0.8"/>
<line x1="166.264" y1="212.716" x2="171.18" y2="223.058" stroke="#8c8c8c" stroke-width="0.3" stroke-dasharray="1.2,0.8"/>
<line x1="166.264" y1="212.716" x2="164.154" y2="223.971" stroke="#8c8c8c" stroke-width="0.3" stroke-dasharray="1.2,0.8"/>
<line x1="142.174" y1="212.161" x2="139.057" y2="205.799" stroke="#8c8c8c" stroke-width="0.3" stroke-dasharray="1.2,0.8"/>
<line x1="142.174" y1="212.161" x2="150.394" y2="204.19" stroke="#8c8c8c" stroke-width="0.3" stroke-dasharray="1.2,0.8"/>
<line x1="150.394" y1="204.19" x2="156.038" y2="212.716" stroke="#8c8c8c" stroke-width="0.3" stroke-dasharray="1.2,0.8"/>
<line x1="140.064" y1="223.416" x2="150.29" y2="223.416" stroke="#8c8c8c" stroke-width="0.3" stroke-dasharray="1.2,0.8"/>
<line x1="174.559" y1="200.001" x2="176.15" y2="210.102" stroke="#8c8c8c" stroke-width="0.3" stroke-dasharray="1.2,0.8"/>
<line x1="194.328" y1="216.363" x2="184.442" y2="218.977" stroke="#8c8c8c" stroke-width="0.3" stroke-dasharray="1.2,0.8"/>
<line x1="181.165" y1="228.663" x2="171.18" y2="223.058" stroke="#8c8c8c" stroke-width="0.3" stroke-dasharray="1.2,0.8"/>
<line x1="155.934" y1="231.942" x2="164.154" y2="223.971" stroke="#8c8c8c" stroke-width="0.3" stroke-dasharray="1.2,0.8"/>
<line x1="194.328" y1="216.363" x2="189.411" y2="206.022" stroke="#8c8c8c" stroke-width="0.3" stroke-dasharray="1.2,0.8"/>
<line x1="150.394" y1="204.19" x2="139.057" y2="205.799" stroke="#8c8c8c" stroke-width="0.3" stroke-dasharray="1.2,0.8"/>
<line x1="140.064" y1="223.416" x2="142.174" y2="212.162" stroke="#8c8c8c" stroke-width="0.3" stroke-dasharray="1.2,0.8"/>
<line x1="181.165" y1="228.663" x2="194.412" y2="221.247" stroke="#8c8c8c" stroke-width="0.3" stroke-dasharray="1.2,0.8"/>
<line x1="166.264" y1="212.716" x2="154.993" y2="202.544" stroke="#8c8c8c" stroke-width="0.3" stroke-dasharray="1.2,0.8"/>
<line x1="156.038" y1="212.716" x2="154.993" y2="202.544" stroke="#141414" stroke-width="0.4"/>
<line x1="141.231" y1="228.16" x2="150.29" y2="223.416" stroke="#141414" stroke-width="0.4"/>
<line x1="176.15" y1="210.102" x2="179.427" y2="200.416" stroke="#141414" stroke-width="0.4"/>
<line x1="184.442" y1="218.977" x2="194.412" y2="221.247" stroke="#141414" stroke-width="0.4"/>
<line x1="171.18" y1="223.058" x2="169.071" y2="234.312" stroke="#141414" stroke-width="0.4"/>
<line x1="169.071" y1="234.312" x2="164.154" y2="223.971" stroke="#141414" stroke-width="0.4"/>
<line x1="130.837" y1="213.77" x2="139.057" y2="205.799" stroke="#141414" stroke-width="0.4"/>
<line x1="179.427" y1="200.416" x2="189.411" y2="206.022" stroke="#141414" stroke-width="0.4"/>
<line x1="142.174" y1="212.161" x2="130.837" y2="213.77" stroke="#141414" stroke-width="0.4"/>
<line x1="155.934" y1="231.942" x2="141.231" y2="228.16" stroke="#141414" stroke-width="0.4"/>
<line x1="166.264" y1="212.716" x2="174.559" y2="200.001" stroke="#141414" stroke-width="0.4"/>
<line x1="156.038" y1="212.716" x2="157.794" y2="206.213" stroke="#141414" stroke-width="0.4"/>
<line x1="157.794" y1="206.213" x2="156.214" y2="203.826" stroke="#141414" stroke-width="0.4"/>
<line x1="156.214" y1="203.826" x2="150.394" y2="204.19" stroke="#141414" stroke-width="0.4"/>
<line x1="150.29" y1="223.416" x2="145.836" y2="228.47" stroke="#141414" stroke-width="0.4"/>
<line x1="145.836" y1="228.47" x2="142.973" y2="228.47" stroke="#141414" stroke-width="0.4"/>
<line x1="142.973" y1="228.47" x2="140.064" y2="223.416" stroke="#141414" stroke-width="0.4"/>
<line x1="176.15" y1="210.102" x2="180.45" y2="204.917" stroke="#141414" stroke-width="0.4"/>
<line x1="180.45" y1="204.917" x2="180.004" y2="202.089" stroke="#141414" stroke-width="0.4"/>
<line x1="180.004" y1="202.089" x2="174.559" y2="200.001" stroke="#141414" stroke-width="0.4"/>
<line x1="184.442" y1="218.977" x2="190.039" y2="222.724" stroke="#141414" stroke-width="0.4"/>
<line x1="190.039" y1="222.724" x2="192.807" y2="221.993" stroke="#141414" stroke-width="0.4"/>
<line x1="192.807" y1="221.993" x2="194.328" y2="216.363" stroke="#141414" stroke-width="0.4"/>
<line x1="171.18" y1="223.058" x2="171.373" y2="229.731" stroke="#141414" stroke-width="0.4"/>
<line x1="171.373" y1="229.731" x2="175.367" y2="231.974" stroke="#141414" stroke-width="0.4"/>
<line x1="175.367" y1="231.974" x2="181.165" y2="228.663" stroke="#141414" stroke-width="0.4"/>
<line x1="164.154" y1="223.971" x2="165.674" y2="230.472" stroke="#141414" stroke-width="0.4"/>
<line x1="165.674" y1="230.472" x2="162.386" y2="233.661" stroke="#141414" stroke-width="0.4"/>
<line x1="162.386" y1="233.661" x2="155.934" y2="231.942" stroke="#141414" stroke-width="0.4"/>
<line x1="189.411" y1="206.022" x2="195.319" y2="205.115" stroke="#141414" stroke-width="0.4"/>
<line x1="195.319" y1="205.115" x2="198.761" y2="212.353" stroke="#141414" stroke-width="0.4"/>
<line x1="198.761" y1="212.353" x2="194.328" y2="216.363" stroke="#141414" stroke-width="0.4"/>
<line x1="139.057" y1="205.799" x2="139.953" y2="199.889" stroke="#141414" stroke-width="0.4"/>
<line x1="139.953" y1="199.889" x2="147.889" y2="198.763" stroke="#141414" stroke-width="0.4"/>
<line x1="147.889" y1="198.763" x2="150.394" y2="204.19" stroke="#141414" stroke-width="0.4"/>
<line x1="142.174" y1="212.162" x2="135.914" y2="214.483" stroke="#141414" stroke-width="0.4"/>
<line x1="135.914" y1="214.483" x2="135.07" y2="218.985" stroke="#141414" stroke-width="0.4"/>
<line x1="135.07" y1="218.985" x2="140.064" y2="223.416" stroke="#141414" stroke-width="0.4"/>
<line x1="194.412" y1="221.247" x2="195.844" y2="228.468" stroke="#141414" stroke-width="0.4"/>
<line x1="195.844" y1="228.468" x2="186.571" y2="233.659" stroke="#141414" stroke-width="0.4"/>
<line x1="186.571" y1="233.659" x2="181.165" y2="228.663" stroke="#141414" stroke-width="0.4"/>
<line x1="154.993" y1="202.544" x2="161.374" y2="198.874" stroke="#141414" stroke-width="0.4"/>
<line x1="161.374" y1="198.874" x2="169.263" y2="205.994" stroke="#141414" stroke-width="0.4"/>
<line x1="169.263" y1="205.994" x2="166.264" y2="212.716" stroke="#141414" stroke-width="0.4"/>
<circle cx="155.11" cy="206.736" r="1.08" fill="#ffe082" stroke="#464646" stroke-width="0.2"/>
<text x="155.11" y="207.11" font-size="1.06" text-anchor="middle" fill="#141414">59</text>
<circle cx="144.791" cy="225.943" r="1.08" fill="#ffe082" stroke="#464646" stroke-width="0.2"/>
<text x="144.791" y="226.31" font-size="1.06" text-anchor="middle" fill="#141414">60</text>
<circle cx="177.791" cy="204.277" r="1.08" fill="#ffe082" stroke="#464646" stroke-width="0.2"/>
<text x="177.791" y="204.65" font-size="1.06" text-anchor="middle" fill="#141414">61</text>
<circle cx="190.404" cy="220.014" r="1.08" fill="#ffe082" stroke="#464646" stroke-width="0.2"/>
<text x="190.404" y="220.39" font-size="1.06" text-anchor="middle" fill="#141414">62</text>
<circle cx="174.771" cy="228.356" r="1.08" fill="#ffe082" stroke="#464646" stroke-width="0.2"/>
<text x="174.771" y="228.73" font-size="1.06" text-anchor="middle" fill="#141414">63</text>
<circle cx="162.037" cy="230.011" r="1.08" fill="#ffe082" stroke="#464646" stroke-width="0.2"/>
<text x="162.037" y="230.38" font-size="1.06" text-anchor="middle" fill="#141414">64</text>
<circle cx="194.455" cy="209.963" r="1.08" fill="#ffe082" stroke="#464646" stroke-width="0.2"/>
<text x="194.455" y="210.33" font-size="1.06" text-anchor="middle" fill="#141414">65</text>
<circle cx="144.323" cy="202.16" r="1.08" fill="#ffe082" stroke="#464646" stroke-width="0.2"/>
<text x="144.323" y="202.53" font-size="1.06" text-anchor="middle" fill="#141414">66</text>
<circle cx="138.306" cy="217.261" r="1.08" fill="#ffe082" stroke="#464646" stroke-width="0.2"/>
<text x="138.306" y="217.63" font-size="1.06" text-anchor="middle" fill="#141414">67</text>
<circle cx="189.498" cy="228.009" r="1.08" fill="#ffe082" stroke="#464646" stroke-width="0.2"/>
<text x="189.498" y="228.38" font-size="1.06" text-anchor="middle" fill="#141414">68</text>
<circle cx="162.974" cy="205.032" r="1.08" fill="#ffe082" stroke="#464646" stroke-width="0.2"/>
<text x="162.974" y="205.40" font-size="1.06" text-anchor="middle" fill="#141414">69</text>
<circle cx="164.799" cy="191.056" r="4.6" fill="#eaf1fe" stroke="#2e78e6" stroke-width="0.3"/>
<text x="164.799" y="192.85600000000002" font-size="5.2" text-anchor="middle" fill="#14306e" font-weight="bold">5</text>
</svg>
