<svg xmlns="http://www.w3.org/2000/svg" xmlns:xlink="http://www.w3.org/1999/xlink" width="210.00mm" height="297.00mm" viewBox="0 0 210.00 297.00">
<rect x="0" y="0" width="210.00" height="297.00" fill="#ffffff" stroke="#cccccc" stroke-width="0.2"/>
<polygon points="85.987,48.638 82.645,39.163 83.657,35.715 91.211,30.847" fill="rgb(216,216,216)"/>
<polygon points="46.842,61.205 40.822,65.549 44.072,76.619 51.485,77.019" fill="rgb(216,216,216)"/>
<polygon points="46.842,61.205 39.418,61.177 35.617,50.284 41.412,45.644" fill="rgb(216,216,216)"/>
<polygon points="91.211,66.428 93.522,76.206 96.237,78.559 105.223,78.57" fill="rgb(216,216,216)"/>
<polygon points="51.485,77.019 45.255,81.056 47.947,92.275 55.33,93.046" fill="rgb(216,216,216)"/>
<polygon points="105.223,78.57 106.98,85.895 119.827,87.742 123.576,81.209" fill="rgb(216,216,216)"/>
<polygon points="55.33,93.046 48.906,96.766 51.032,108.105 58.368,109.245" fill="rgb(216,216,216)"/>
<polygon points="123.576,81.209 129.014,86.421 140.821,81.03 140.442,73.507" fill="rgb(216,216,216)"/>
<polygon points="58.368,109.245 51.765,112.638 53.321,124.07 60.59,125.576" fill="rgb(216,216,216)"/>
<polygon points="140.442,73.507 147.835,74.952 154.852,64.033 150.467,57.909" fill="rgb(216,216,216)"/>
<polygon points="60.59,125.576 57.984,128.114 55.379,130.652 61.992,141.998" fill="rgb(216,216,216)"/>
<polygon points="150.467,57.909 157.467,55.127 157.467,42.148 150.467,39.367" fill="rgb(216,216,216)"/>
<polygon points="150.467,39.367 154.852,33.243 147.835,22.324 140.442,23.769" fill="rgb(216,216,216)"/>
<polygon points="62.569,158.469 58.001,166.111 57.964,168.564 62.32,174.949" fill="rgb(216,216,216)"/>
<polygon points="140.442,23.769 140.82,16.246 129.014,10.854 123.576,16.066" fill="rgb(216,216,216)"/>
<polygon points="62.32,174.949 55.174,176.959 54.422,188.472 61.246,191.395" fill="rgb(216,216,216)"/>
<polygon points="123.576,16.066 119.827,9.533 106.98,11.38 105.223,18.705" fill="rgb(216,216,216)"/>
<polygon points="61.246,191.395 54.008,193.046 52.681,204.506 59.35,207.767" fill="rgb(216,216,216)"/>
<polygon points="105.223,18.705 98.538,15.236 88.728,23.736 91.211,30.847" fill="rgb(216,216,216)"/>
<polygon points="59.35,207.767 52.038,209.053 50.138,220.432 56.636,224.024" fill="rgb(216,216,216)"/>
<polygon points="97.005,231.808 89.624,237.514 61.365,232.065 56.636,224.024" fill="rgb(216,216,216)"/>
<polygon points="85.987,48.638 82.645,39.163 83.657,35.715 91.211,30.847" fill="#99d9fa"/>
<line x1="46.842" y1="61.205" x2="85.987" y2="48.638" stroke="#8c8c8c" stroke-width="0.3" stroke-dasharray="1.2,0.8"/>
<line x1="91.21" y1="66.428" x2="85.987" y2="48.638" stroke="#8c8c8c" stroke-width="0.3" stroke-dasharray="1.2,0.8"/>
<line x1="91.21" y1="66.428" x2="51.485" y2="77.019" stroke="#8c8c8c" stroke-width="0.3" stroke-dasharray="1.2,0.8"/>
<line x1="95.537" y1="84.458" x2="55.33" y2="93.046" stroke="#8c8c8c" stroke-width="0.3" stroke-dasharray="1.2,0.8"/>
<line x1="98.954" y1="102.682" x2="58.368" y2="109.245" stroke="#8c8c8c" stroke-width="0.3" stroke-dasharray="1.2,0.8"/>
<line x1="101.454" y1="121.055" x2="60.59" y2="125.576" stroke="#8c8c8c" stroke-width="0.3" stroke-dasharray="1.2,0.8"/>
<line x1="103.031" y1="139.529" x2="61.992" y2="141.998" stroke="#8c8c8c" stroke-width="0.3" stroke-dasharray="1.2,0.8"/>
<line x1="62.569" y1="158.469" x2="61.992" y2="141.998" stroke="#8c8c8c" stroke-width="0.3" stroke-dasharray="1.2,0.8"/>
<line x1="103.68" y1="158.059" x2="62.569" y2="158.469" stroke="#8c8c8c" stroke-width="0.3" stroke-dasharray="1.2,0.8"/>
<line x1="103.4" y1="176.599" x2="62.32" y2="174.949" stroke="#8c8c8c" stroke-width="0.3" stroke-dasharray="1.2,0.8"/>
<line x1="102.192" y1="195.101" x2="61.246" y2="191.395" stroke="#8c8c8c" stroke-width="0.3" stroke-dasharray="1.2,0.8"/>
<line x1="100.058" y1="213.52" x2="59.35" y2="207.767" stroke="#8c8c8c" stroke-width="0.3" stroke-dasharray="1.2,0.8"/>
<line x1="91.211" y1="30.847" x2="85.987" y2="48.638" stroke="#8c8c8c" stroke-width="0.3" stroke-dasharray="1.2,0.8"/>
<line x1="51.485" y1="77.019" x2="46.842" y2="61.205" stroke="#8c8c8c" stroke-width="0.3" stroke-dasharray="1.2,0.8"/>
<line x1="41.412" y1="45.644" x2="46.842" y2="61.205" stroke="#8c8c8c" stroke-width="0.3" stroke-dasharray="1.2,0.8"/>
<line x1="105.223" y1="78.57" x2="91.211" y2="66.428" stroke="#8c8c8c" stroke-width="0.3" stroke-dasharray="1.2,0.8"/>
<line x1="55.33" y1="93.046" x2="51.485" y2="77.019" stroke="#8c8c8c" stroke-width="0.3" stroke-dasharray="1.2,0.8"/>
<line x1="123.576" y1="81.209" x2="105.223" y2="78.57" stroke="#8c8c8c" stroke-width="0.3" stroke-dasharray="1.2,0.8"/>
<line x1="58.368" y1="109.245" x2="55.33" y2="93.046" stroke="#8c8c8c" stroke-width="0.3" stroke-dasharray="1.2,0.8"/>
<line x1="140.442" y1="73.507" x2="123.576" y2="81.209" stroke="#8c8c8c" stroke-width="0.3" stroke-dasharray="1.2,0.8"/>
<line x1="60.59" y1="125.576" x2="58.368" y2="109.245" stroke="#8c8c8c" stroke-width="0.3" stroke-dasharray="1.2,0.8"/>
<line x1="150.467" y1="57.909" x2="140.442" y2="73.507" stroke="#8c8c8c" stroke-width="0.3" stroke-dasharray="1.2,0.8"/>
<line x1="61.992" y1="141.998" x2="60.59" y2="125.576" stroke="#8c8c8c" stroke-width="0.3" stroke-dasharray="1.2,0.8"/>
<line x1="150.467" y1="39.367" x2="150.467" y2="57.909" stroke="#8c8c8c" stroke-width="0.3" stroke-dasharray="1.2,0.8"/>
<line x1="140.442" y1="23.769" x2="150.467" y2="39.367" stroke="#8c8c8c" stroke-width="0.3" stroke-dasharray="1.2,0.8"/>
<line x1="62.32" y1="174.949" x2="62.569" y2="158.469" stroke="#8c8c8c" stroke-width="0.3" stroke-dasharray="1.2,0.8"/>
<line x1="123.576" y1="16.066" x2="140.442" y2="23.769" stroke="#8c8c8c" stroke-width="0.3" stroke-dasharray="1.2,0.8"/>
<line x1="61.246" y1="191.395" x2="62.32" y2="174.949" stroke="#8c8c8c" stroke-width="0.3" stroke-dasharray="1.2,0.8"/>
<line x1="105.223" y1="18.705" x2="123.576" y2="16.066" stroke="#8c8c8c" stroke-width="0.3" stroke-dasharray="1.2,0.8"/>
<line x1="59.35" y1="207.767" x2="61.246" y2="191.395" stroke="#8c8c8c" stroke-width="0.3" stroke-dasharray="1.2,0.8"/>
<line x1="91.211" y1="30.847" x2="105.223" y2="18.705" stroke="#8c8c8c" stroke-width="0.3" stroke-dasharray="1.2,0.8"/>
<line x1="56.636" y1="224.024" x2="59.35" y2="207.767" stroke="#8c8c8c" stroke-width="0.3" stroke-dasharray="1.2,0.8"/>
<line x1="56.636" y1="224.024" x2="97.005" y2="231.808" stroke="#8c8c8c" stroke-width="0.3" stroke-dasharray="1.2,0.8"/>
<line x1="79.878" y1="31.131" x2="85.987" y2="48.638" stroke="#141414" stroke-width="0.4"/>
<line x1="51.485" y1="77.019" x2="46.842" y2="61.205" stroke="#141414" stroke-width="0.4"/>
<line x1="5.0" y1="152.24" x2="9.087" y2="136.274" stroke="#141414" stroke-width="0.4"/>
<line x1="10.194" y1="167.882" x2="5.0" y2="152.24" stroke="#141414" stroke-width="0.4"/>
<line x1="91.21" y1="66.428" x2="95.537" y2="84.458" stroke="#141414" stroke-width="0.4"/>
<line x1="55.33" y1="93.046" x2="51.485" y2="77.019" stroke="#141414" stroke-width="0.4"/>
<line x1="9.087" y1="136.274" x2="21.157" y2="125.051" stroke="#141414" stroke-width="0.4"/>
<line x1="95.537" y1="84.458" x2="98.954" y2="102.682" stroke="#141414" stroke-width="0.4"/>
<line x1="21.157" y1="125.051" x2="37.379" y2="122.136" stroke="#141414" stroke-width="0.4"/>
<line x1="98.954" y1="102.682" x2="101.454" y2="121.055" stroke="#141414" stroke-width="0.4"/>
<line x1="37.379" y1="122.136" x2="52.601" y2="128.453" stroke="#141414" stroke-width="0.4"/>
<line x1="101.454" y1="121.055" x2="103.031" y2="139.529" stroke="#141414" stroke-width="0.4"/>
<line x1="52.601" y1="128.453" x2="61.992" y2="141.998" stroke="#141414" stroke-width="0.4"/>
<line x1="103.031" y1="139.529" x2="103.68" y2="158.059" stroke="#141414" stroke-width="0.4"/>
<line x1="103.68" y1="158.059" x2="103.4" y2="176.599" stroke="#141414" stroke-width="0.4"/>
<line x1="62.569" y1="158.469" x2="54.149" y2="172.638" stroke="#141414" stroke-width="0.4"/>
<line x1="103.4" y1="176.599" x2="102.192" y2="195.101" stroke="#141414" stroke-width="0.4"/>
<line x1="54.149" y1="172.638" x2="39.406" y2="180.005" stroke="#141414" stroke-width="0.4"/>
<line x1="102.192" y1="195.101" x2="100.058" y2="213.52" stroke="#141414" stroke-width="0.4"/>
<line x1="39.406" y1="180.005" x2="23.02" y2="178.232" stroke="#141414" stroke-width="0.4"/>
<line x1="100.058" y1="213.52" x2="97.005" y2="231.808" stroke="#141414" stroke-width="0.4"/>
<line x1="23.02" y1="178.232" x2="10.194" y2="167.882" stroke="#141414" stroke-width="0.4"/>
<line x1="41.412" y1="45.644" x2="79.878" y2="31.131" stroke="#141414" stroke-width="0.4"/>
<line x1="85.987" y1="48.638" x2="82.645" y2="39.163" stroke="#141414" stroke-width="0.4"/>
<line x1="82.645" y1="39.163" x2="83.657" y2="35.715" stroke="#141414" stroke-width="0.4"/>
<line x1="83.657" y1="35.715" x2="91.211" y2="30.847" stroke="#141414" stroke-width="0.4"/>
<line x1="46.842" y1="61.205" x2="40.822" y2="65.549" stroke="#141414" stroke-width="0.4"/>
<line x1="40.822" y1="65.549" x2="44.072" y2="76.619" stroke="#141414" stroke-width="0.4"/>
<line x1="44.072" y1="76.619" x2="51.485" y2="77.019" stroke="#141414" stroke-width="0.4"/>
<line x1="46.842" y1="61.205" x2="39.418" y2="61.177" stroke="#141414" stroke-width="0.4"/>
<line x1="39.418" y1="61.177" x2="35.617" y2="50.284" stroke="#141414" stroke-width="0.4"/>
<line x1="35.617" y1="50.284" x2="41.412" y2="45.644" stroke="#141414" stroke-width="0.4"/>
<line x1="91.211" y1="66.428" x2="93.522" y2="76.206" stroke="#141414" stroke-width="0.4"/>
<line x1="93.522" y1="76.206" x2="96.237" y2="78.559" stroke="#141414" stroke-width="0.4"/>
<line x1="96.237" y1="78.559" x2="105.223" y2="78.57" stroke="#141414" stroke-width="0.4"/>
<line x1="51.485" y1="77.019" x2="45.255" y2="81.056" stroke="#141414" stroke-width="0.4"/>
<line x1="45.255" y1="81.056" x2="47.947" y2="92.275" stroke="#141414" stroke-width="0.4"/>
<line x1="47.947" y1="92.275" x2="55.33" y2="93.046" stroke="#141414" stroke-width="0.4"/>
<line x1="105.223" y1="78.57" x2="106.98" y2="85.895" stroke="#141414" stroke-width="0.4"/>
<line x1="106.98" y1="85.895" x2="119.827" y2="87.742" stroke="#141414" stroke-width="0.4"/>
<line x1="119.827" y1="87.742" x2="123.576" y2="81.209" stroke="#141414" stroke-width="0.4"/>
<line x1="55.33" y1="93.046" x2="48.906" y2="96.766" stroke="#141414" stroke-width="0.4"/>
<line x1="48.906" y1="96.766" x2="51.032" y2="108.105" stroke="#141414" stroke-width="0.4"/>
<line x1="51.032" y1="108.105" x2="58.368" y2="109.245" stroke="#141414" stroke-width="0.4"/>
<line x1="123.576" y1="81.209" x2="129.014" y2="86.421" stroke="#141414" stroke-width="0.4"/>
<line x1="129.014" y1="86.421" x2="140.821" y2="81.03" stroke="#141414" stroke-width="0.4"/>
<line x1="140.821" y1="81.03" x2="140.442" y2="73.507" stroke="#141414" stroke-width="0.4"/>
<line x1="58.368" y1="109.245" x2="51.765" y2="112.638" stroke="#141414" stroke-width="0.4"/>
<line x1="51.765" y1="112.638" x2="53.321" y2="124.07" stroke="#141414" stroke-width="0.4"/>
<line x1="53.321" y1="124.07" x2="60.59" y2="125.576" stroke="#141414" stroke-width="0.4"/>
<line x1="140.442" y1="73.507" x2="147.835" y2="74.952" stroke="#141414" stroke-width="0.4"/>
<line x1="147.835" y1="74.952" x2="154.852" y2="64.033" stroke="#141414" stroke-width="0.4"/>
<line x1="154.852" y1="64.033" x2="150.467" y2="57.909" stroke="#141414" stroke-width="0.4"/>
<line x1="60.59" y1="125.576" x2="57.984" y2="128.114" stroke="#141414" stroke-width="0.4"/>
<line x1="57.984" y1="128.114" x2="55.379" y2="130.652" stroke="#141414" stroke-width="0.4"/>
<line x1="55.379" y1="130.652" x2="61.992" y2="141.998" stroke="#141414" stroke-width="0.4"/>
<line x1="150.467" y1="57.909" x2="157.467" y2="55.127" stroke="#141414" stroke-width="0.4"/>
<line x1="157.467" y1="55.127" x2="157.467" y2="42.148" stroke="#141414" stroke-width="0.4"/>
<line x1="157.467" y1="42.148" x2="150.467" y2="39.367" stroke="#141414" stroke-width="0.4"/>
<line x1="150.467" y1="39.367" x2="154.852" y2="33.243" stroke="#141414" stroke-width="0.4"/>
<line x1="154.852" y1="33.243" x2="147.835" y2="22.324" stroke="#141414" stroke-width="0.4"/>
<line x1="147.835" y1="22.324" x2="140.442" y2="23.769" stroke="#141414" stroke-width="0.4"/>
<line x1="62.569" y1="158.469" x2="58.001" y2="166.111" stroke="#141414" stroke-width="0.4"/>
<line x1="58.001" y1="166.111" x2="57.964" y2="168.564" stroke="#141414" stroke-width="0.4"/>
<line x1="57.964" y1="168.564" x2="62.32" y2="174.949" stroke="#141414" stroke-width="0.4"/>
<line x1="140.442" y1="23.769" x2="140.82" y2="16.246" stroke="#141414" stroke-width="0.4"/>
<line x1="140.82" y1="16.246" x2="129.014" y2="10.854" stroke="#141414" stroke-width="0.4"/>
<line x1="129.014" y1="10.854" x2="123.576" y2="16.066" stroke="#141414" stroke-width="0.4"/>
<line x1="62.32" y1="174.949" x2="55.174" y2="176.959" stroke="#141414" stroke-width="0.4"/>
<line x1="55.174" y1="176.959" x2="54.422" y2="188.472" stroke="#141414" stroke-width="0.4"/>
<line x1="54.422" y1="188.472" x2="61.246" y2="191.395" stroke="#141414" stroke-width="0.4"/>
<line x1="123.576" y1="16.066" x2="119.827" y2="9.533" stroke="#141414" stroke-width="0.4"/>
<line x1="119.827" y1="9.533" x2="106.98" y2="11.38" stroke="#141414" stroke-width="0.4"/>
<line x1="106.98" y1="11.38" x2="105.223" y2="18.705" stroke="#141414" stroke-width="0.4"/>
<line x1="61.246" y1="191.395" x2="54.008" y2="193.046" stroke="#141414" stroke-width="0.4"/>
<line x1="54.008" y1="193.046" x2="52.681" y2="204.506" stroke="#141414" stroke-width="0.4"/>
<line x1="52.681" y1="204.506" x2="59.35" y2="207.767" stroke="#141414" stroke-width="0.4"/>
<line x1="105.223" y1="18.705" x2="98.538" y2="15.236" stroke="#141414" stroke-width="0.4"/>
<line x1="98.538" y1="15.236" x2="88.728" y2="23.736" stroke="#141414" stroke-width="0.4"/>
<line x1="88.728" y1="23.736" x2="91.211" y2="30.847" stroke="#141414" stroke-width="0.4"/>
<line x1="59.35" y1="207.767" x2="52.038" y2="209.053" stroke="#141414" stroke-width="0.4"/>
<line x1="52.038" y1="209.053" x2="50.138" y2="220.432" stroke="#141414" stroke-width="0.4"/>
<line x1="50.138" y1="220.432" x2="56.636" y2="224.024" stroke="#141414" stroke-width="0.4"/>
<line x1="97.005" y1="231.808" x2="89.624" y2="237.514" stroke="#141414" stroke-width="0.4"/>
<line x1="89.624" y1="237.514" x2="61.365" y2="232.065" stroke="#141414" stroke-width="0.4"/>
<line x1="61.365" y1="232.065" x2="56.636" y2="224.024" stroke="#141414" stroke-width="0.4"/>
<circle cx="85.875" cy="38.591" r="1.86" fill="#99d9fa" stroke="#464646" stroke-width="0.2"/>
<text x="85.875" y="39.23" font-size="1.82" text-anchor="middle" fill="#141414">24</text>
<circle cx="45.805" cy="70.098" r="1.86" fill="#ffe082" stroke="#464646" stroke-width="0.2"/>
<text x="45.805" y="70.73" font-size="1.82" text-anchor="middle" fill="#141414">25</text>
<circle cx="40.822" cy="54.578" r="1.86" fill="#ffe082" stroke="#464646" stroke-width="0.2"/>
<text x="40.822" y="55.21" font-size="1.82" text-anchor="middle" fill="#141414">26</text>
<circle cx="96.548" cy="74.941" r="1.86" fill="#ffe082" stroke="#464646" stroke-width="0.2"/>
<text x="96.548" y="75.58" font-size="1.82" text-anchor="middle" fill="#141414">27</text>
<circle cx="50.004" cy="85.849" r="1.86" fill="#ffe082" stroke="#464646" stroke-width="0.2"/>
<text x="50.004" y="86.49" font-size="1.82" text-anchor="middle" fill="#141414">28</text>
<circle cx="113.902" cy="83.354" r="1.86" fill="#ffe082" stroke="#464646" stroke-width="0.2"/>
<text x="113.902" y="83.99" font-size="1.82" text-anchor="middle" fill="#141414">29</text>
<circle cx="53.409" cy="101.79" r="1.86" fill="#ffe082" stroke="#464646" stroke-width="0.2"/>
<text x="53.409" y="102.43" font-size="1.82" text-anchor="middle" fill="#141414">30</text>
<circle cx="133.463" cy="80.542" r="1.86" fill="#ffe082" stroke="#464646" stroke-width="0.2"/>
<text x="133.463" y="81.18" font-size="1.82" text-anchor="middle" fill="#141414">31</text>
<circle cx="56.011" cy="117.882" r="1.86" fill="#ffe082" stroke="#464646" stroke-width="0.2"/>
<text x="56.011" y="118.52" font-size="1.82" text-anchor="middle" fill="#141414">32</text>
<circle cx="148.399" cy="67.6" r="1.86" fill="#ffe082" stroke="#464646" stroke-width="0.2"/>
<text x="148.399" y="68.24" font-size="1.82" text-anchor="middle" fill="#141414">33</text>
<circle cx="58.986" cy="131.585" r="1.86" fill="#ffe082" stroke="#464646" stroke-width="0.2"/>
<text x="58.986" y="132.22" font-size="1.82" text-anchor="middle" fill="#141414">34</text>
<circle cx="153.967" cy="48.638" r="1.86" fill="#ffe082" stroke="#464646" stroke-width="0.2"/>
<text x="153.967" y="49.27" font-size="1.82" text-anchor="middle" fill="#141414">35</text>
<circle cx="148.399" cy="29.676" r="1.86" fill="#ffe082" stroke="#464646" stroke-width="0.2"/>
<text x="148.399" y="30.31" font-size="1.82" text-anchor="middle" fill="#141414">36</text>
<circle cx="60.213" cy="167.023" r="1.86" fill="#ffe082" stroke="#464646" stroke-width="0.2"/>
<text x="60.213" y="167.66" font-size="1.82" text-anchor="middle" fill="#141414">37</text>
<circle cx="133.463" cy="16.734" r="1.86" fill="#ffe082" stroke="#464646" stroke-width="0.2"/>
<text x="133.463" y="17.37" font-size="1.82" text-anchor="middle" fill="#141414">38</text>
<circle cx="58.291" cy="182.944" r="1.86" fill="#ffe082" stroke="#464646" stroke-width="0.2"/>
<text x="58.291" y="183.58" font-size="1.82" text-anchor="middle" fill="#141414">39</text>
<circle cx="113.902" cy="13.921" r="1.86" fill="#ffe082" stroke="#464646" stroke-width="0.2"/>
<text x="113.902" y="14.56" font-size="1.82" text-anchor="middle" fill="#141414">40</text>
<circle cx="56.821" cy="199.178" r="1.86" fill="#ffe082" stroke="#464646" stroke-width="0.2"/>
<text x="56.821" y="199.81" font-size="1.82" text-anchor="middle" fill="#141414">41</text>
<circle cx="95.925" cy="22.131" r="1.86" fill="#ffe082" stroke="#464646" stroke-width="0.2"/>
<text x="95.925" y="22.77" font-size="1.82" text-anchor="middle" fill="#141414">42</text>
<circle cx="54.541" cy="215.319" r="1.86" fill="#ffe082" stroke="#464646" stroke-width="0.2"/>
<text x="54.541" y="215.96" font-size="1.82" text-anchor="middle" fill="#141414">43</text>
<circle cx="76.158" cy="231.353" r="1.86" fill="#ffe082" stroke="#464646" stroke-width="0.2"/>
<text x="76.158" y="231.99" font-size="1.82" text-anchor="middle" fill="#141414">44</text>
<circle cx="127.637" cy="29.491" r="4.60" fill="#eaf1fe" stroke="#2e78e6" stroke-width="0.3"/>
<text x="127.637" y="31.29" font-size="5.20" text-anchor="middle" fill="#14306e" font-weight="bold">2</text>
<text x="205.0" y="295.0" font-size="3.2" text-anchor="end" fill="#737373" font-family="sans-serif">2 / 5</text>
<g pointer-events="none"><text x="105.0" y="83.2" text-anchor="middle" font-family="sans-serif" font-size="12.4" fill="#9aa0a6" fill-opacity="0.3" transform="rotate(-28 105.0 83.2)">papercraft.kr</text><text x="105.0" y="148.5" text-anchor="middle" font-family="sans-serif" font-size="12.4" fill="#9aa0a6" fill-opacity="0.3" transform="rotate(-28 105.0 148.5)">papercraft.kr</text><text x="105.0" y="213.8" text-anchor="middle" font-family="sans-serif" font-size="12.4" fill="#9aa0a6" fill-opacity="0.3" transform="rotate(-28 105.0 213.8)">papercraft.kr</text></g></svg>
