<svg xmlns="http://www.w3.org/2000/svg" xmlns:xlink="http://www.w3.org/1999/xlink" width="210.00mm" height="297.00mm" viewBox="0 0 210.00 297.00">
<rect x="0" y="0" width="210.00" height="297.00" fill="#ffffff" stroke="#cccccc" stroke-width="0.2"/>
<polygon points="14.466,110.492 8.446,115.073 11.909,127.996 19.413,128.954" fill="rgb(216,216,216)"/>
<polygon points="14.466,110.492 8.446,105.912 11.909,92.989 19.413,92.031" fill="rgb(216,216,216)"/>
<polygon points="131.068,217.756 139.787,223.476 141.172,228.645 136.014,236.217" fill="rgb(216,216,216)"/>
<polygon points="19.413,128.954 16.49,135.931 25.95,145.391 32.927,142.468" fill="rgb(216,216,216)"/>
<polygon points="126.121,199.295 130.812,189.981 129.427,184.812 121.174,180.833" fill="rgb(216,216,216)"/>
<polygon points="32.927,142.468 33.885,149.972 46.807,153.434 51.388,147.415" fill="rgb(216,216,216)"/>
<polygon points="121.174,180.833 127.194,176.252 123.731,163.33 116.228,162.372" fill="rgb(216,216,216)"/>
<polygon points="51.388,147.415 55.969,153.434 68.892,149.972 69.85,142.468" fill="rgb(216,216,216)"/>
<polygon points="116.228,162.372 122.247,157.791 118.785,144.869 111.281,143.911" fill="rgb(216,216,216)"/>
<polygon points="69.85,142.468 76.827,145.391 86.287,135.931 83.364,128.954" fill="rgb(216,216,216)"/>
<polygon points="111.281,143.911 117.301,139.33 113.838,126.407 106.334,125.45" fill="rgb(216,216,216)"/>
<polygon points="83.364,128.954 87.738,132.323 91.3,119.031 88.311,110.492" fill="rgb(216,216,216)"/>
<polygon points="106.334,125.45 112.354,120.869 108.891,107.946 101.388,106.988" fill="rgb(216,216,216)"/>
<polygon points="101.388,106.988 107.407,102.408 103.945,89.485 96.441,88.527" fill="rgb(216,216,216)"/>
<polygon points="83.364,92.031 82.77,81.62 78.986,77.836 69.85,78.517" fill="rgb(216,216,216)"/>
<polygon points="96.441,88.527 102.46,83.946 98.998,71.023 91.494,70.066" fill="rgb(216,216,216)"/>
<polygon points="69.85,78.517 68.892,71.013 55.969,67.55 51.388,73.57" fill="rgb(216,216,216)"/>
<polygon points="91.494,70.066 97.514,65.485 94.051,52.562 86.548,51.605" fill="rgb(216,216,216)"/>
<polygon points="51.388,73.57 46.807,67.55 33.885,71.013 32.927,78.517" fill="rgb(216,216,216)"/>
<polygon points="86.548,51.605 92.567,47.024 89.105,34.101 81.601,33.144" fill="rgb(216,216,216)"/>
<polygon points="32.927,78.517 25.95,75.594 16.49,85.054 19.413,92.031" fill="rgb(216,216,216)"/>
<polygon points="81.601,33.144 87.621,28.563 84.158,15.64 76.654,14.682" fill="rgb(216,216,216)"/>
<polygon points="63.578,18.186 63.787,11.122 72.941,8.67 76.654,14.682" fill="rgb(216,216,216)"/>
<line x1="131.068" y1="217.756" x2="117.991" y2="221.26" stroke="#8c8c8c" stroke-width="0.3" stroke-dasharray="1.2,0.8"/>
<line x1="126.121" y1="199.295" x2="131.068" y2="217.756" stroke="#8c8c8c" stroke-width="0.3" stroke-dasharray="1.2,0.8"/>
<line x1="113.044" y1="202.798" x2="126.121" y2="199.295" stroke="#8c8c8c" stroke-width="0.3" stroke-dasharray="1.2,0.8"/>
<line x1="108.097" y1="184.337" x2="121.174" y2="180.833" stroke="#8c8c8c" stroke-width="0.3" stroke-dasharray="1.2,0.8"/>
<line x1="103.151" y1="165.876" x2="116.228" y2="162.372" stroke="#8c8c8c" stroke-width="0.3" stroke-dasharray="1.2,0.8"/>
<line x1="98.204" y1="147.415" x2="111.281" y2="143.911" stroke="#8c8c8c" stroke-width="0.3" stroke-dasharray="1.2,0.8"/>
<line x1="93.257" y1="128.954" x2="106.334" y2="125.45" stroke="#8c8c8c" stroke-width="0.3" stroke-dasharray="1.2,0.8"/>
<line x1="88.311" y1="110.492" x2="101.388" y2="106.989" stroke="#8c8c8c" stroke-width="0.3" stroke-dasharray="1.2,0.8"/>
<line x1="83.364" y1="92.031" x2="88.311" y2="110.492" stroke="#8c8c8c" stroke-width="0.3" stroke-dasharray="1.2,0.8"/>
<line x1="83.364" y1="92.031" x2="96.441" y2="88.527" stroke="#8c8c8c" stroke-width="0.3" stroke-dasharray="1.2,0.8"/>
<line x1="78.417" y1="73.57" x2="91.494" y2="70.066" stroke="#8c8c8c" stroke-width="0.3" stroke-dasharray="1.2,0.8"/>
<line x1="73.471" y1="55.109" x2="86.548" y2="51.605" stroke="#8c8c8c" stroke-width="0.3" stroke-dasharray="1.2,0.8"/>
<line x1="68.524" y1="36.648" x2="81.601" y2="33.144" stroke="#8c8c8c" stroke-width="0.3" stroke-dasharray="1.2,0.8"/>
<line x1="19.413" y1="128.954" x2="14.466" y2="110.492" stroke="#8c8c8c" stroke-width="0.3" stroke-dasharray="1.2,0.8"/>
<line x1="19.413" y1="92.031" x2="14.466" y2="110.492" stroke="#8c8c8c" stroke-width="0.3" stroke-dasharray="1.2,0.8"/>
<line x1="136.014" y1="236.217" x2="131.068" y2="217.756" stroke="#8c8c8c" stroke-width="0.3" stroke-dasharray="1.2,0.8"/>
<line x1="32.927" y1="142.468" x2="19.413" y2="128.954" stroke="#8c8c8c" stroke-width="0.3" stroke-dasharray="1.2,0.8"/>
<line x1="121.174" y1="180.833" x2="126.121" y2="199.295" stroke="#8c8c8c" stroke-width="0.3" stroke-dasharray="1.2,0.8"/>
<line x1="51.388" y1="147.415" x2="32.927" y2="142.468" stroke="#8c8c8c" stroke-width="0.3" stroke-dasharray="1.2,0.8"/>
<line x1="116.228" y1="162.372" x2="121.174" y2="180.833" stroke="#8c8c8c" stroke-width="0.3" stroke-dasharray="1.2,0.8"/>
<line x1="69.85" y1="142.468" x2="51.388" y2="147.415" stroke="#8c8c8c" stroke-width="0.3" stroke-dasharray="1.2,0.8"/>
<line x1="111.281" y1="143.911" x2="116.228" y2="162.372" stroke="#8c8c8c" stroke-width="0.3" stroke-dasharray="1.2,0.8"/>
<line x1="83.364" y1="128.954" x2="69.85" y2="142.468" stroke="#8c8c8c" stroke-width="0.3" stroke-dasharray="1.2,0.8"/>
<line x1="106.334" y1="125.45" x2="111.281" y2="143.911" stroke="#8c8c8c" stroke-width="0.3" stroke-dasharray="1.2,0.8"/>
<line x1="88.311" y1="110.492" x2="83.364" y2="128.954" stroke="#8c8c8c" stroke-width="0.3" stroke-dasharray="1.2,0.8"/>
<line x1="101.388" y1="106.988" x2="106.334" y2="125.45" stroke="#8c8c8c" stroke-width="0.3" stroke-dasharray="1.2,0.8"/>
<line x1="96.441" y1="88.527" x2="101.388" y2="106.988" stroke="#8c8c8c" stroke-width="0.3" stroke-dasharray="1.2,0.8"/>
<line x1="69.85" y1="78.517" x2="83.364" y2="92.031" stroke="#8c8c8c" stroke-width="0.3" stroke-dasharray="1.2,0.8"/>
<line x1="91.494" y1="70.066" x2="96.441" y2="88.527" stroke="#8c8c8c" stroke-width="0.3" stroke-dasharray="1.2,0.8"/>
<line x1="51.388" y1="73.57" x2="69.85" y2="78.517" stroke="#8c8c8c" stroke-width="0.3" stroke-dasharray="1.2,0.8"/>
<line x1="86.548" y1="51.605" x2="91.494" y2="70.066" stroke="#8c8c8c" stroke-width="0.3" stroke-dasharray="1.2,0.8"/>
<line x1="32.927" y1="78.517" x2="51.388" y2="73.57" stroke="#8c8c8c" stroke-width="0.3" stroke-dasharray="1.2,0.8"/>
<line x1="81.601" y1="33.144" x2="86.548" y2="51.605" stroke="#8c8c8c" stroke-width="0.3" stroke-dasharray="1.2,0.8"/>
<line x1="19.413" y1="92.031" x2="32.927" y2="78.517" stroke="#8c8c8c" stroke-width="0.3" stroke-dasharray="1.2,0.8"/>
<line x1="76.654" y1="14.682" x2="81.601" y2="33.144" stroke="#8c8c8c" stroke-width="0.3" stroke-dasharray="1.2,0.8"/>
<line x1="76.654" y1="14.682" x2="63.578" y2="18.186" stroke="#8c8c8c" stroke-width="0.3" stroke-dasharray="1.2,0.8"/>
<line x1="117.991" y1="221.26" x2="113.044" y2="202.798" stroke="#141414" stroke-width="0.4"/>
<line x1="122.937" y1="239.721" x2="117.991" y2="221.26" stroke="#141414" stroke-width="0.4"/>
<line x1="144.582" y1="231.27" x2="131.068" y2="217.756" stroke="#141414" stroke-width="0.4"/>
<line x1="113.044" y1="202.798" x2="108.097" y2="184.337" stroke="#141414" stroke-width="0.4"/>
<line x1="126.121" y1="199.295" x2="131.068" y2="180.833" stroke="#141414" stroke-width="0.4"/>
<line x1="108.097" y1="184.337" x2="103.151" y2="165.876" stroke="#141414" stroke-width="0.4"/>
<line x1="131.068" y1="180.833" x2="144.582" y2="167.319" stroke="#141414" stroke-width="0.4"/>
<line x1="103.151" y1="165.876" x2="98.204" y2="147.415" stroke="#141414" stroke-width="0.4"/>
<line x1="144.582" y1="167.319" x2="163.043" y2="162.372" stroke="#141414" stroke-width="0.4"/>
<line x1="98.204" y1="147.415" x2="93.257" y2="128.954" stroke="#141414" stroke-width="0.4"/>
<line x1="163.043" y1="162.372" x2="181.505" y2="167.319" stroke="#141414" stroke-width="0.4"/>
<line x1="93.257" y1="128.954" x2="88.311" y2="110.492" stroke="#141414" stroke-width="0.4"/>
<line x1="181.505" y1="167.319" x2="195.019" y2="180.833" stroke="#141414" stroke-width="0.4"/>
<line x1="195.019" y1="180.833" x2="199.966" y2="199.295" stroke="#141414" stroke-width="0.4"/>
<line x1="83.364" y1="92.031" x2="78.417" y2="73.57" stroke="#141414" stroke-width="0.4"/>
<line x1="199.966" y1="199.295" x2="195.019" y2="217.756" stroke="#141414" stroke-width="0.4"/>
<line x1="78.417" y1="73.57" x2="73.471" y2="55.109" stroke="#141414" stroke-width="0.4"/>
<line x1="195.019" y1="217.756" x2="181.505" y2="231.27" stroke="#141414" stroke-width="0.4"/>
<line x1="73.471" y1="55.109" x2="68.524" y2="36.648" stroke="#141414" stroke-width="0.4"/>
<line x1="181.505" y1="231.27" x2="163.043" y2="236.217" stroke="#141414" stroke-width="0.4"/>
<line x1="68.524" y1="36.648" x2="63.578" y2="18.186" stroke="#141414" stroke-width="0.4"/>
<line x1="163.043" y1="236.217" x2="144.582" y2="231.27" stroke="#141414" stroke-width="0.4"/>
<line x1="136.014" y1="236.217" x2="122.937" y2="239.721" stroke="#141414" stroke-width="0.4"/>
<line x1="14.466" y1="110.492" x2="8.446" y2="115.073" stroke="#141414" stroke-width="0.4"/>
<line x1="8.446" y1="115.073" x2="11.909" y2="127.996" stroke="#141414" stroke-width="0.4"/>
<line x1="11.909" y1="127.996" x2="19.413" y2="128.954" stroke="#141414" stroke-width="0.4"/>
<line x1="14.466" y1="110.492" x2="8.446" y2="105.912" stroke="#141414" stroke-width="0.4"/>
<line x1="8.446" y1="105.912" x2="11.909" y2="92.989" stroke="#141414" stroke-width="0.4"/>
<line x1="11.909" y1="92.989" x2="19.413" y2="92.031" stroke="#141414" stroke-width="0.4"/>
<line x1="131.068" y1="217.756" x2="139.787" y2="223.476" stroke="#141414" stroke-width="0.4"/>
<line x1="139.787" y1="223.476" x2="141.172" y2="228.645" stroke="#141414" stroke-width="0.4"/>
<line x1="141.172" y1="228.645" x2="136.014" y2="236.217" stroke="#141414" stroke-width="0.4"/>
<line x1="19.413" y1="128.954" x2="16.49" y2="135.931" stroke="#141414" stroke-width="0.4"/>
<line x1="16.49" y1="135.931" x2="25.95" y2="145.391" stroke="#141414" stroke-width="0.4"/>
<line x1="25.95" y1="145.391" x2="32.927" y2="142.468" stroke="#141414" stroke-width="0.4"/>
<line x1="126.121" y1="199.295" x2="130.812" y2="189.981" stroke="#141414" stroke-width="0.4"/>
<line x1="130.812" y1="189.981" x2="129.427" y2="184.812" stroke="#141414" stroke-width="0.4"/>
<line x1="129.427" y1="184.812" x2="121.174" y2="180.833" stroke="#141414" stroke-width="0.4"/>
<line x1="32.927" y1="142.468" x2="33.885" y2="149.972" stroke="#141414" stroke-width="0.4"/>
<line x1="33.885" y1="149.972" x2="46.807" y2="153.434" stroke="#141414" stroke-width="0.4"/>
<line x1="46.807" y1="153.434" x2="51.388" y2="147.415" stroke="#141414" stroke-width="0.4"/>
<line x1="121.174" y1="180.833" x2="127.194" y2="176.252" stroke="#141414" stroke-width="0.4"/>
<line x1="127.194" y1="176.252" x2="123.731" y2="163.33" stroke="#141414" stroke-width="0.4"/>
<line x1="123.731" y1="163.33" x2="116.228" y2="162.372" stroke="#141414" stroke-width="0.4"/>
<line x1="51.388" y1="147.415" x2="55.969" y2="153.434" stroke="#141414" stroke-width="0.4"/>
<line x1="55.969" y1="153.434" x2="68.892" y2="149.972" stroke="#141414" stroke-width="0.4"/>
<line x1="68.892" y1="149.972" x2="69.85" y2="142.468" stroke="#141414" stroke-width="0.4"/>
<line x1="116.228" y1="162.372" x2="122.247" y2="157.791" stroke="#141414" stroke-width="0.4"/>
<line x1="122.247" y1="157.791" x2="118.785" y2="144.869" stroke="#141414" stroke-width="0.4"/>
<line x1="118.785" y1="144.869" x2="111.281" y2="143.911" stroke="#141414" stroke-width="0.4"/>
<line x1="69.85" y1="142.468" x2="76.827" y2="145.391" stroke="#141414" stroke-width="0.4"/>
<line x1="76.827" y1="145.391" x2="86.287" y2="135.931" stroke="#141414" stroke-width="0.4"/>
<line x1="86.287" y1="135.931" x2="83.364" y2="128.954" stroke="#141414" stroke-width="0.4"/>
<line x1="111.281" y1="143.911" x2="117.301" y2="139.33" stroke="#141414" stroke-width="0.4"/>
<line x1="117.301" y1="139.33" x2="113.838" y2="126.407" stroke="#141414" stroke-width="0.4"/>
<line x1="113.838" y1="126.407" x2="106.334" y2="125.45" stroke="#141414" stroke-width="0.4"/>
<line x1="83.364" y1="128.954" x2="87.738" y2="132.323" stroke="#141414" stroke-width="0.4"/>
<line x1="87.738" y1="132.323" x2="91.3" y2="119.031" stroke="#141414" stroke-width="0.4"/>
<line x1="91.3" y1="119.031" x2="88.311" y2="110.492" stroke="#141414" stroke-width="0.4"/>
<line x1="106.334" y1="125.45" x2="112.354" y2="120.869" stroke="#141414" stroke-width="0.4"/>
<line x1="112.354" y1="120.869" x2="108.891" y2="107.946" stroke="#141414" stroke-width="0.4"/>
<line x1="108.891" y1="107.946" x2="101.388" y2="106.988" stroke="#141414" stroke-width="0.4"/>
<line x1="101.388" y1="106.988" x2="107.407" y2="102.408" stroke="#141414" stroke-width="0.4"/>
<line x1="107.407" y1="102.408" x2="103.945" y2="89.485" stroke="#141414" stroke-width="0.4"/>
<line x1="103.945" y1="89.485" x2="96.441" y2="88.527" stroke="#141414" stroke-width="0.4"/>
<line x1="83.364" y1="92.031" x2="82.77" y2="81.62" stroke="#141414" stroke-width="0.4"/>
<line x1="82.77" y1="81.62" x2="78.986" y2="77.836" stroke="#141414" stroke-width="0.4"/>
<line x1="78.986" y1="77.836" x2="69.85" y2="78.517" stroke="#141414" stroke-width="0.4"/>
<line x1="96.441" y1="88.527" x2="102.46" y2="83.946" stroke="#141414" stroke-width="0.4"/>
<line x1="102.46" y1="83.946" x2="98.998" y2="71.023" stroke="#141414" stroke-width="0.4"/>
<line x1="98.998" y1="71.023" x2="91.494" y2="70.066" stroke="#141414" stroke-width="0.4"/>
<line x1="69.85" y1="78.517" x2="68.892" y2="71.013" stroke="#141414" stroke-width="0.4"/>
<line x1="68.892" y1="71.013" x2="55.969" y2="67.55" stroke="#141414" stroke-width="0.4"/>
<line x1="55.969" y1="67.55" x2="51.388" y2="73.57" stroke="#141414" stroke-width="0.4"/>
<line x1="91.494" y1="70.066" x2="97.514" y2="65.485" stroke="#141414" stroke-width="0.4"/>
<line x1="97.514" y1="65.485" x2="94.051" y2="52.562" stroke="#141414" stroke-width="0.4"/>
<line x1="94.051" y1="52.562" x2="86.548" y2="51.605" stroke="#141414" stroke-width="0.4"/>
<line x1="51.388" y1="73.57" x2="46.807" y2="67.55" stroke="#141414" stroke-width="0.4"/>
<line x1="46.807" y1="67.55" x2="33.885" y2="71.013" stroke="#141414" stroke-width="0.4"/>
<line x1="33.885" y1="71.013" x2="32.927" y2="78.517" stroke="#141414" stroke-width="0.4"/>
<line x1="86.548" y1="51.605" x2="92.567" y2="47.024" stroke="#141414" stroke-width="0.4"/>
<line x1="92.567" y1="47.024" x2="89.105" y2="34.101" stroke="#141414" stroke-width="0.4"/>
<line x1="89.105" y1="34.101" x2="81.601" y2="33.144" stroke="#141414" stroke-width="0.4"/>
<line x1="32.927" y1="78.517" x2="25.95" y2="75.594" stroke="#141414" stroke-width="0.4"/>
<line x1="25.95" y1="75.594" x2="16.49" y2="85.054" stroke="#141414" stroke-width="0.4"/>
<line x1="16.49" y1="85.054" x2="19.413" y2="92.031" stroke="#141414" stroke-width="0.4"/>
<line x1="81.601" y1="33.144" x2="87.621" y2="28.563" stroke="#141414" stroke-width="0.4"/>
<line x1="87.621" y1="28.563" x2="84.158" y2="15.64" stroke="#141414" stroke-width="0.4"/>
<line x1="84.158" y1="15.64" x2="76.654" y2="14.682" stroke="#141414" stroke-width="0.4"/>
<line x1="63.578" y1="18.186" x2="63.787" y2="11.122" stroke="#141414" stroke-width="0.4"/>
<line x1="63.787" y1="11.122" x2="72.941" y2="8.67" stroke="#141414" stroke-width="0.4"/>
<line x1="72.941" y1="8.67" x2="76.654" y2="14.682" stroke="#141414" stroke-width="0.4"/>
<circle cx="13.559" cy="120.629" r="1.28" fill="#ffe082" stroke="#464646" stroke-width="0.2"/>
<text x="13.559" y="121.07" font-size="1.25" text-anchor="middle" fill="#141414">1</text>
<circle cx="13.559" cy="100.356" r="1.28" fill="#ffe082" stroke="#464646" stroke-width="0.2"/>
<text x="13.559" y="100.79" font-size="1.25" text-anchor="middle" fill="#141414">2</text>
<circle cx="137.01" cy="226.523" r="1.28" fill="#ffe082" stroke="#464646" stroke-width="0.2"/>
<text x="137.01" y="226.96" font-size="1.25" text-anchor="middle" fill="#141414">3</text>
<circle cx="23.695" cy="138.186" r="1.28" fill="#ffe082" stroke="#464646" stroke-width="0.2"/>
<text x="23.695" y="138.62" font-size="1.25" text-anchor="middle" fill="#141414">4</text>
<circle cx="126.884" cy="188.73" r="1.28" fill="#ffe082" stroke="#464646" stroke-width="0.2"/>
<text x="126.884" y="189.17" font-size="1.25" text-anchor="middle" fill="#141414">5</text>
<circle cx="41.252" cy="148.322" r="1.28" fill="#ffe082" stroke="#464646" stroke-width="0.2"/>
<text x="41.252" y="148.76" font-size="1.25" text-anchor="middle" fill="#141414">6</text>
<circle cx="122.082" cy="170.697" r="1.28" fill="#ffe082" stroke="#464646" stroke-width="0.2"/>
<text x="122.082" y="171.14" font-size="1.25" text-anchor="middle" fill="#141414">7</text>
<circle cx="61.525" cy="148.322" r="1.28" fill="#ffe082" stroke="#464646" stroke-width="0.2"/>
<text x="61.525" y="148.76" font-size="1.25" text-anchor="middle" fill="#141414">8</text>
<circle cx="117.135" cy="152.236" r="1.28" fill="#ffe082" stroke="#464646" stroke-width="0.2"/>
<text x="117.135" y="152.67" font-size="1.25" text-anchor="middle" fill="#141414">9</text>
<circle cx="79.082" cy="138.186" r="1.28" fill="#ffe082" stroke="#464646" stroke-width="0.2"/>
<text x="79.082" y="138.62" font-size="1.25" text-anchor="middle" fill="#141414">10</text>
<circle cx="112.188" cy="133.774" r="1.28" fill="#ffe082" stroke="#464646" stroke-width="0.2"/>
<text x="112.188" y="134.21" font-size="1.25" text-anchor="middle" fill="#141414">11</text>
<circle cx="87.678" cy="122.7" r="1.28" fill="#ffe082" stroke="#464646" stroke-width="0.2"/>
<text x="87.678" y="123.14" font-size="1.25" text-anchor="middle" fill="#141414">12</text>
<circle cx="107.242" cy="115.313" r="1.28" fill="#ffe082" stroke="#464646" stroke-width="0.2"/>
<text x="107.242" y="115.75" font-size="1.25" text-anchor="middle" fill="#141414">13</text>
<circle cx="102.295" cy="96.852" r="1.28" fill="#ffe082" stroke="#464646" stroke-width="0.2"/>
<text x="102.295" y="97.29" font-size="1.25" text-anchor="middle" fill="#141414">14</text>
<circle cx="78.742" cy="82.501" r="1.28" fill="#ffe082" stroke="#464646" stroke-width="0.2"/>
<text x="78.742" y="82.94" font-size="1.25" text-anchor="middle" fill="#141414">15</text>
<circle cx="97.348" cy="78.391" r="1.28" fill="#ffe082" stroke="#464646" stroke-width="0.2"/>
<text x="97.348" y="78.83" font-size="1.25" text-anchor="middle" fill="#141414">16</text>
<circle cx="61.525" cy="72.663" r="1.28" fill="#ffe082" stroke="#464646" stroke-width="0.2"/>
<text x="61.525" y="73.10" font-size="1.25" text-anchor="middle" fill="#141414">17</text>
<circle cx="92.402" cy="59.93" r="1.28" fill="#ffe082" stroke="#464646" stroke-width="0.2"/>
<text x="92.402" y="60.37" font-size="1.25" text-anchor="middle" fill="#141414">18</text>
<circle cx="41.252" cy="72.663" r="1.28" fill="#ffe082" stroke="#464646" stroke-width="0.2"/>
<text x="41.252" y="73.10" font-size="1.25" text-anchor="middle" fill="#141414">19</text>
<circle cx="87.455" cy="41.468" r="1.28" fill="#ffe082" stroke="#464646" stroke-width="0.2"/>
<text x="87.455" y="41.91" font-size="1.25" text-anchor="middle" fill="#141414">20</text>
<circle cx="23.695" cy="82.799" r="1.28" fill="#ffe082" stroke="#464646" stroke-width="0.2"/>
<text x="23.695" y="83.24" font-size="1.25" text-anchor="middle" fill="#141414">21</text>
<circle cx="82.508" cy="23.007" r="1.28" fill="#ffe082" stroke="#464646" stroke-width="0.2"/>
<text x="82.508" y="23.45" font-size="1.25" text-anchor="middle" fill="#141414">22</text>
<circle cx="69.24" cy="13.165" r="1.28" fill="#ffe082" stroke="#464646" stroke-width="0.2"/>
<text x="69.24" y="13.60" font-size="1.25" text-anchor="middle" fill="#141414">23</text>
<circle cx="100.76" cy="242.151" r="4.6" fill="#eaf1fe" stroke="#2e78e6" stroke-width="0.3"/>
<text x="100.76" y="243.95100000000002" font-size="5.2" text-anchor="middle" fill="#14306e" font-weight="bold">1</text>
<polygon points="62.581,270.531 62.986,266.337 68.529,265.242 70.499,268.966" fill="rgb(216,216,216)"/>
<polygon points="15.492,270.531 11.994,268.602 11.919,267.109 15.221,265.198" fill="rgb(216,216,216)"/>
<polygon points="62.835,279.712 55.649,286.586 22.695,286.001 15.758,278.876" fill="rgb(216,216,216)"/>
<polygon points="62.835,279.712 62.339,283.189 66.134,284.772 68.256,281.973" fill="rgb(216,216,216)"/>
<polygon points="15.758,278.876 15.405,282.691 10.37,283.707 8.565,280.329" fill="rgb(216,216,216)"/>
<polygon points="68.256,281.973 70.666,284.529 74.269,282.549 73.404,279.145" fill="rgb(216,216,216)"/>
<polygon points="14.02,249.224 10.702,250.315 11.024,254.039 14.481,254.544" fill="rgb(216,216,216)"/>
<polygon points="73.404,279.145 76.904,278.854 77.603,274.802 74.402,273.356" fill="rgb(216,216,216)"/>
<polygon points="14.481,254.544 11.15,255.597 11.431,259.325 14.881,259.869" fill="rgb(216,216,216)"/>
<polygon points="74.402,273.356 76.358,270.438 73.625,267.366 70.499,268.966" fill="rgb(216,216,216)"/>
<polygon points="14.881,259.869 11.539,260.885 11.777,264.615 15.221,265.198" fill="rgb(216,216,216)"/>
<line x1="15.492" y1="270.531" x2="62.581" y2="270.531" stroke="#8c8c8c" stroke-width="0.3" stroke-dasharray="1.2,0.8"/>
<line x1="62.581" y1="270.531" x2="62.835" y2="279.712" stroke="#8c8c8c" stroke-width="0.3" stroke-dasharray="1.2,0.8"/>
<line x1="62.581" y1="270.531" x2="15.758" y2="278.876" stroke="#8c8c8c" stroke-width="0.3" stroke-dasharray="1.2,0.8"/>
<line x1="15.758" y1="278.876" x2="15.492" y2="270.531" stroke="#8c8c8c" stroke-width="0.3" stroke-dasharray="1.2,0.8"/>
<line x1="60.851" y1="244.898" x2="14.02" y2="249.224" stroke="#8c8c8c" stroke-width="0.3" stroke-dasharray="1.2,0.8"/>
<line x1="61.358" y1="250.75" x2="14.481" y2="254.544" stroke="#8c8c8c" stroke-width="0.3" stroke-dasharray="1.2,0.8"/>
<line x1="61.799" y1="256.608" x2="14.881" y2="259.869" stroke="#8c8c8c" stroke-width="0.3" stroke-dasharray="1.2,0.8"/>
<line x1="62.173" y1="262.47" x2="15.221" y2="265.198" stroke="#8c8c8c" stroke-width="0.3" stroke-dasharray="1.2,0.8"/>
<line x1="62.581" y1="270.531" x2="15.221" y2="265.198" stroke="#8c8c8c" stroke-width="0.3" stroke-dasharray="1.2,0.8"/>
<line x1="60.851" y1="244.898" x2="13.29" y2="241.922" stroke="#8c8c8c" stroke-width="0.3" stroke-dasharray="1.2,0.8"/>
<line x1="70.499" y1="268.966" x2="62.581" y2="270.531" stroke="#8c8c8c" stroke-width="0.3" stroke-dasharray="1.2,0.8"/>
<line x1="15.221" y1="265.198" x2="15.492" y2="270.531" stroke="#8c8c8c" stroke-width="0.3" stroke-dasharray="1.2,0.8"/>
<line x1="15.758" y1="278.876" x2="62.835" y2="279.712" stroke="#8c8c8c" stroke-width="0.3" stroke-dasharray="1.2,0.8"/>
<line x1="68.256" y1="281.973" x2="62.835" y2="279.712" stroke="#8c8c8c" stroke-width="0.3" stroke-dasharray="1.2,0.8"/>
<line x1="8.565" y1="280.329" x2="15.758" y2="278.876" stroke="#8c8c8c" stroke-width="0.3" stroke-dasharray="1.2,0.8"/>
<line x1="73.404" y1="279.145" x2="68.256" y2="281.973" stroke="#8c8c8c" stroke-width="0.3" stroke-dasharray="1.2,0.8"/>
<line x1="14.481" y1="254.544" x2="14.02" y2="249.224" stroke="#8c8c8c" stroke-width="0.3" stroke-dasharray="1.2,0.8"/>
<line x1="74.402" y1="273.356" x2="73.404" y2="279.145" stroke="#8c8c8c" stroke-width="0.3" stroke-dasharray="1.2,0.8"/>
<line x1="14.881" y1="259.869" x2="14.481" y2="254.544" stroke="#8c8c8c" stroke-width="0.3" stroke-dasharray="1.2,0.8"/>
<line x1="70.499" y1="268.966" x2="74.402" y2="273.356" stroke="#8c8c8c" stroke-width="0.3" stroke-dasharray="1.2,0.8"/>
<line x1="15.221" y1="265.198" x2="14.881" y2="259.869" stroke="#8c8c8c" stroke-width="0.3" stroke-dasharray="1.2,0.8"/>
<line x1="62.173" y1="262.47" x2="62.581" y2="270.531" stroke="#141414" stroke-width="0.4"/>
<line x1="10.555" y1="268.496" x2="15.492" y2="270.531" stroke="#141414" stroke-width="0.4"/>
<line x1="13.29" y1="241.922" x2="60.287" y2="239.051" stroke="#141414" stroke-width="0.4"/>
<line x1="60.287" y1="239.051" x2="60.851" y2="244.898" stroke="#141414" stroke-width="0.4"/>
<line x1="14.02" y1="249.224" x2="13.29" y2="241.922" stroke="#141414" stroke-width="0.4"/>
<line x1="15.758" y1="278.876" x2="8.565" y2="280.329" stroke="#141414" stroke-width="0.4"/>
<line x1="60.851" y1="244.898" x2="61.358" y2="250.75" stroke="#141414" stroke-width="0.4"/>
<line x1="8.565" y1="280.329" x2="5.0" y2="276.353" stroke="#141414" stroke-width="0.4"/>
<line x1="61.358" y1="250.75" x2="61.799" y2="256.608" stroke="#141414" stroke-width="0.4"/>
<line x1="5.0" y1="276.353" x2="5.885" y2="271.087" stroke="#141414" stroke-width="0.4"/>
<line x1="61.799" y1="256.608" x2="62.173" y2="262.47" stroke="#141414" stroke-width="0.4"/>
<line x1="5.885" y1="271.087" x2="10.555" y2="268.496" stroke="#141414" stroke-width="0.4"/>
<line x1="62.581" y1="270.531" x2="62.986" y2="266.337" stroke="#141414" stroke-width="0.4"/>
<line x1="62.986" y1="266.337" x2="68.529" y2="265.242" stroke="#141414" stroke-width="0.4"/>
<line x1="68.529" y1="265.242" x2="70.499" y2="268.966" stroke="#141414" stroke-width="0.4"/>
<line x1="15.492" y1="270.531" x2="11.994" y2="268.602" stroke="#141414" stroke-width="0.4"/>
<line x1="11.994" y1="268.602" x2="11.919" y2="267.109" stroke="#141414" stroke-width="0.4"/>
<line x1="11.919" y1="267.109" x2="15.221" y2="265.198" stroke="#141414" stroke-width="0.4"/>
<line x1="62.835" y1="279.712" x2="55.649" y2="286.586" stroke="#141414" stroke-width="0.4"/>
<line x1="55.649" y1="286.586" x2="22.695" y2="286.001" stroke="#141414" stroke-width="0.4"/>
<line x1="22.695" y1="286.001" x2="15.758" y2="278.876" stroke="#141414" stroke-width="0.4"/>
<line x1="62.835" y1="279.712" x2="62.339" y2="283.189" stroke="#141414" stroke-width="0.4"/>
<line x1="62.339" y1="283.189" x2="66.134" y2="284.772" stroke="#141414" stroke-width="0.4"/>
<line x1="66.134" y1="284.772" x2="68.256" y2="281.973" stroke="#141414" stroke-width="0.4"/>
<line x1="15.758" y1="278.876" x2="15.405" y2="282.691" stroke="#141414" stroke-width="0.4"/>
<line x1="15.405" y1="282.691" x2="10.37" y2="283.707" stroke="#141414" stroke-width="0.4"/>
<line x1="10.37" y1="283.707" x2="8.565" y2="280.329" stroke="#141414" stroke-width="0.4"/>
<line x1="68.256" y1="281.973" x2="70.666" y2="284.529" stroke="#141414" stroke-width="0.4"/>
<line x1="70.666" y1="284.529" x2="74.269" y2="282.549" stroke="#141414" stroke-width="0.4"/>
<line x1="74.269" y1="282.549" x2="73.404" y2="279.145" stroke="#141414" stroke-width="0.4"/>
<line x1="14.02" y1="249.224" x2="10.702" y2="250.315" stroke="#141414" stroke-width="0.4"/>
<line x1="10.702" y1="250.315" x2="11.024" y2="254.039" stroke="#141414" stroke-width="0.4"/>
<line x1="11.024" y1="254.039" x2="14.481" y2="254.544" stroke="#141414" stroke-width="0.4"/>
<line x1="73.404" y1="279.145" x2="76.904" y2="278.854" stroke="#141414" stroke-width="0.4"/>
<line x1="76.904" y1="278.854" x2="77.603" y2="274.802" stroke="#141414" stroke-width="0.4"/>
<line x1="77.603" y1="274.802" x2="74.402" y2="273.356" stroke="#141414" stroke-width="0.4"/>
<line x1="14.481" y1="254.544" x2="11.15" y2="255.597" stroke="#141414" stroke-width="0.4"/>
<line x1="11.15" y1="255.597" x2="11.431" y2="259.325" stroke="#141414" stroke-width="0.4"/>
<line x1="11.431" y1="259.325" x2="14.881" y2="259.869" stroke="#141414" stroke-width="0.4"/>
<line x1="74.402" y1="273.356" x2="76.358" y2="270.438" stroke="#141414" stroke-width="0.4"/>
<line x1="76.358" y1="270.438" x2="73.625" y2="267.366" stroke="#141414" stroke-width="0.4"/>
<line x1="73.625" y1="267.366" x2="70.499" y2="268.966" stroke="#141414" stroke-width="0.4"/>
<line x1="14.881" y1="259.869" x2="11.539" y2="260.885" stroke="#141414" stroke-width="0.4"/>
<line x1="11.539" y1="260.885" x2="11.777" y2="264.615" stroke="#141414" stroke-width="0.4"/>
<line x1="11.777" y1="264.615" x2="15.221" y2="265.198" stroke="#141414" stroke-width="0.4"/>
<circle cx="66.149" cy="267.769" r="1.28" fill="#ffe082" stroke="#464646" stroke-width="0.2"/>
<text x="66.149" y="268.21" font-size="1.25" text-anchor="middle" fill="#141414">85</text>
<circle cx="13.656" cy="267.86" r="1.28" fill="#ffe082" stroke="#464646" stroke-width="0.2"/>
<text x="13.656" y="268.30" font-size="1.25" text-anchor="middle" fill="#141414">86</text>
<circle cx="39.234" cy="282.794" r="1.28" fill="#ffe082" stroke="#464646" stroke-width="0.2"/>
<text x="39.234" y="283.23" font-size="1.25" text-anchor="middle" fill="#141414">87</text>
<circle cx="64.891" cy="282.412" r="1.28" fill="#ffe082" stroke="#464646" stroke-width="0.2"/>
<text x="64.891" y="282.85" font-size="1.25" text-anchor="middle" fill="#141414">88</text>
<circle cx="12.525" cy="281.401" r="1.28" fill="#ffe082" stroke="#464646" stroke-width="0.2"/>
<text x="12.525" y="281.84" font-size="1.25" text-anchor="middle" fill="#141414">89</text>
<circle cx="71.649" cy="282.049" r="1.28" fill="#ffe082" stroke="#464646" stroke-width="0.2"/>
<text x="71.649" y="282.49" font-size="1.25" text-anchor="middle" fill="#141414">90</text>
<circle cx="12.557" cy="252.03" r="1.28" fill="#ffe082" stroke="#464646" stroke-width="0.2"/>
<text x="12.557" y="252.47" font-size="1.25" text-anchor="middle" fill="#141414">91</text>
<circle cx="75.579" cy="276.539" r="1.28" fill="#ffe082" stroke="#464646" stroke-width="0.2"/>
<text x="75.579" y="276.98" font-size="1.25" text-anchor="middle" fill="#141414">92</text>
<circle cx="12.986" cy="257.334" r="1.28" fill="#ffe082" stroke="#464646" stroke-width="0.2"/>
<text x="12.986" y="257.77" font-size="1.25" text-anchor="middle" fill="#141414">93</text>
<circle cx="73.721" cy="270.032" r="1.28" fill="#ffe082" stroke="#464646" stroke-width="0.2"/>
<text x="73.721" y="270.47" font-size="1.25" text-anchor="middle" fill="#141414">94</text>
<circle cx="13.355" cy="262.641" r="1.28" fill="#ffe082" stroke="#464646" stroke-width="0.2"/>
<text x="13.355" y="263.08" font-size="1.25" text-anchor="middle" fill="#141414">95</text>
<circle cx="41.302" cy="232.951" r="4.6" fill="#eaf1fe" stroke="#2e78e6" stroke-width="0.3"/>
<text x="41.302" y="234.751" font-size="5.2" text-anchor="middle" fill="#14306e" font-weight="bold">7</text>
<g pointer-events="none"><text x="105.0" y="89.1" text-anchor="middle" font-family="sans-serif" font-size="21.2" fill="#9aa0a6" fill-opacity="0.33" transform="rotate(-28 105.0 89.1)">papercraft.kr 미리보기</text><text x="105.0" y="163.4" text-anchor="middle" font-family="sans-serif" font-size="21.2" fill="#9aa0a6" fill-opacity="0.33" transform="rotate(-28 105.0 163.4)">papercraft.kr 미리보기</text><text x="105.0" y="237.6" text-anchor="middle" font-family="sans-serif" font-size="21.2" fill="#9aa0a6" fill-opacity="0.33" transform="rotate(-28 105.0 237.6)">papercraft.kr 미리보기</text></g></svg>
