<svg xmlns="http://www.w3.org/2000/svg" xmlns:xlink="http://www.w3.org/1999/xlink" width="210.00mm" height="297.00mm" viewBox="0 0 210.00 297.00">
<rect x="0" y="0" width="210.00" height="297.00" fill="#ffffff" stroke="#cccccc" stroke-width="0.2"/>
<polygon points="18.311,213.434 17.4,216.834 13.151,216.834 12.24,213.434" fill="rgb(216,216,216)"/>
<polygon points="12.24,213.434 5.24,202.304 5.24,150.365 12.24,139.235" fill="rgb(216,216,216)"/>
<polygon points="18.311,139.235 37.536,132.235 127.25,132.235 146.475,139.235" fill="rgb(216,216,216)"/>
<polygon points="146.475,213.434 153.475,202.304 153.475,150.364 146.475,139.235" fill="rgb(216,216,216)"/>
<polygon points="18.311,11.071 17.4,7.671 13.151,7.671 12.24,11.071" fill="rgb(216,216,216)"/>
<line x1="18.311" y1="139.235" x2="18.311" y2="213.435" stroke="#8c8c8c" stroke-width="0.3" stroke-dasharray="1.2,0.8"/>
<line x1="12.24" y1="139.235" x2="18.311" y2="139.235" stroke="#8c8c8c" stroke-width="0.3" stroke-dasharray="1.2,0.8"/>
<line x1="12.24" y1="213.434" x2="18.311" y2="213.434" stroke="#8c8c8c" stroke-width="0.3" stroke-dasharray="1.2,0.8"/>
<line x1="12.24" y1="139.235" x2="12.24" y2="213.434" stroke="#8c8c8c" stroke-width="0.3" stroke-dasharray="1.2,0.8"/>
<line x1="146.475" y1="139.235" x2="18.311" y2="139.235" stroke="#8c8c8c" stroke-width="0.3" stroke-dasharray="1.2,0.8"/>
<line x1="146.475" y1="139.235" x2="146.475" y2="213.434" stroke="#8c8c8c" stroke-width="0.3" stroke-dasharray="1.2,0.8"/>
<line x1="12.24" y1="11.071" x2="18.311" y2="11.071" stroke="#8c8c8c" stroke-width="0.3" stroke-dasharray="1.2,0.8"/>
<line x1="146.475" y1="213.435" x2="18.311" y2="213.435" stroke="#141414" stroke-width="0.4"/>
<line x1="18.311" y1="11.071" x2="18.311" y2="139.235" stroke="#141414" stroke-width="0.4"/>
<line x1="12.24" y1="139.235" x2="12.24" y2="11.071" stroke="#141414" stroke-width="0.4"/>
<line x1="18.311" y1="213.434" x2="17.4" y2="216.834" stroke="#141414" stroke-width="0.4"/>
<line x1="17.4" y1="216.834" x2="13.151" y2="216.834" stroke="#141414" stroke-width="0.4"/>
<line x1="13.151" y1="216.834" x2="12.24" y2="213.434" stroke="#141414" stroke-width="0.4"/>
<line x1="12.24" y1="213.434" x2="5.24" y2="202.304" stroke="#141414" stroke-width="0.4"/>
<line x1="5.24" y1="202.304" x2="5.24" y2="150.365" stroke="#141414" stroke-width="0.4"/>
<line x1="5.24" y1="150.365" x2="12.24" y2="139.235" stroke="#141414" stroke-width="0.4"/>
<line x1="18.311" y1="139.235" x2="37.536" y2="132.235" stroke="#141414" stroke-width="0.4"/>
<line x1="37.536" y1="132.235" x2="127.25" y2="132.235" stroke="#141414" stroke-width="0.4"/>
<line x1="127.25" y1="132.235" x2="146.475" y2="139.235" stroke="#141414" stroke-width="0.4"/>
<line x1="146.475" y1="213.434" x2="153.475" y2="202.304" stroke="#141414" stroke-width="0.4"/>
<line x1="153.475" y1="202.304" x2="153.475" y2="150.364" stroke="#141414" stroke-width="0.4"/>
<line x1="153.475" y1="150.364" x2="146.475" y2="139.235" stroke="#141414" stroke-width="0.4"/>
<line x1="18.311" y1="11.071" x2="17.4" y2="7.671" stroke="#141414" stroke-width="0.4"/>
<line x1="17.4" y1="7.671" x2="13.151" y2="7.671" stroke="#141414" stroke-width="0.4"/>
<line x1="13.151" y1="7.671" x2="12.24" y2="11.071" stroke="#141414" stroke-width="0.4"/>
<circle cx="15.276" cy="215.134" r="1.50" fill="#ffe082" stroke="#464646" stroke-width="0.2"/>
<text x="15.276" y="215.84" font-size="2.03" text-anchor="middle" fill="#141414">24</text>
<circle cx="8.74" cy="176.335" r="1.50" fill="#ffe082" stroke="#464646" stroke-width="0.2"/>
<text x="8.74" y="177.05" font-size="2.03" text-anchor="middle" fill="#141414">25</text>
<circle cx="82.393" cy="135.735" r="1.50" fill="#ffe082" stroke="#464646" stroke-width="0.2"/>
<text x="82.393" y="136.45" font-size="2.03" text-anchor="middle" fill="#141414">26</text>
<circle cx="149.975" cy="176.334" r="1.50" fill="#ffe082" stroke="#464646" stroke-width="0.2"/>
<text x="149.975" y="177.04" font-size="2.03" text-anchor="middle" fill="#141414">27</text>
<circle cx="15.276" cy="9.371" r="1.50" fill="#ffe082" stroke="#464646" stroke-width="0.2"/>
<text x="15.276" y="10.08" font-size="2.03" text-anchor="middle" fill="#141414">28</text>
<circle cx="79.117" cy="220.264" r="4.6" fill="#eaf1fe" stroke="#2e78e6" stroke-width="0.3"/>
<text x="79.117" y="222.06400000000002" font-size="5.2" text-anchor="middle" fill="#14306e" font-weight="bold">6</text>
<g pointer-events="none"><text x="105.0" y="89.1" text-anchor="middle" font-family="sans-serif" font-size="21.2" fill="#9aa0a6" fill-opacity="0.33" transform="rotate(-28 105.0 89.1)">papercraft.kr 미리보기</text><text x="105.0" y="163.4" text-anchor="middle" font-family="sans-serif" font-size="21.2" fill="#9aa0a6" fill-opacity="0.33" transform="rotate(-28 105.0 163.4)">papercraft.kr 미리보기</text><text x="105.0" y="237.6" text-anchor="middle" font-family="sans-serif" font-size="21.2" fill="#9aa0a6" fill-opacity="0.33" transform="rotate(-28 105.0 237.6)">papercraft.kr 미리보기</text></g></svg>
