<svg xmlns="http://www.w3.org/2000/svg" xmlns:xlink="http://www.w3.org/1999/xlink" width="210.00mm" height="297.00mm" viewBox="0 0 210.00 297.00">
<rect x="0" y="0" width="210.00" height="297.00" fill="#ffffff" stroke="#cccccc" stroke-width="0.2"/>
<polygon points="100.428,36.721 87.781,43.721 28.758,43.721 16.11,36.721" fill="rgb(216,216,216)"/>
<polygon points="16.11,36.721 9.11,33.63 9.11,19.202 16.11,16.11" fill="rgb(216,216,216)"/>
<polygon points="100.428,16.11 87.781,9.11 28.758,9.11 16.11,16.11" fill="rgb(216,216,216)"/>
<polygon points="100.428,16.11 102.958,9.11 114.763,9.11 117.292,16.11" fill="rgb(216,216,216)"/>
<polygon points="117.292,36.721 124.292,49.369 124.292,108.392 117.292,121.04" fill="rgb(216,216,216)"/>
<polygon points="117.292,36.721 124.292,33.63 124.292,19.202 117.292,16.11" fill="rgb(216,216,216)"/>
<polygon points="117.292,225.969 124.292,213.321 124.292,154.298 117.292,141.651" fill="rgb(216,216,216)"/>
<polygon points="100.428,36.721 87.781,43.721 28.758,43.721 16.11,36.721" fill="#99d9fa"/>
<line x1="100.428" y1="16.11" x2="100.428" y2="36.721" stroke="#8c8c8c" stroke-width="0.3" stroke-dasharray="1.2,0.8"/>
<line x1="100.428" y1="36.721" x2="117.292" y2="36.721" stroke="#8c8c8c" stroke-width="0.3" stroke-dasharray="1.2,0.8"/>
<line x1="117.292" y1="121.04" x2="100.428" y2="121.04" stroke="#8c8c8c" stroke-width="0.3" stroke-dasharray="1.2,0.8"/>
<line x1="117.292" y1="141.651" x2="100.428" y2="141.651" stroke="#8c8c8c" stroke-width="0.3" stroke-dasharray="1.2,0.8"/>
<line x1="117.292" y1="121.04" x2="117.292" y2="141.651" stroke="#8c8c8c" stroke-width="0.3" stroke-dasharray="1.2,0.8"/>
<line x1="16.11" y1="36.721" x2="100.428" y2="36.721" stroke="#8c8c8c" stroke-width="0.3" stroke-dasharray="1.2,0.8"/>
<line x1="16.11" y1="16.11" x2="16.11" y2="36.721" stroke="#8c8c8c" stroke-width="0.3" stroke-dasharray="1.2,0.8"/>
<line x1="16.11" y1="16.11" x2="100.428" y2="16.11" stroke="#8c8c8c" stroke-width="0.3" stroke-dasharray="1.2,0.8"/>
<line x1="117.292" y1="16.11" x2="100.428" y2="16.11" stroke="#8c8c8c" stroke-width="0.3" stroke-dasharray="1.2,0.8"/>
<line x1="117.292" y1="121.04" x2="117.292" y2="36.721" stroke="#8c8c8c" stroke-width="0.3" stroke-dasharray="1.2,0.8"/>
<line x1="117.292" y1="16.11" x2="117.292" y2="36.721" stroke="#8c8c8c" stroke-width="0.3" stroke-dasharray="1.2,0.8"/>
<line x1="117.292" y1="141.651" x2="117.292" y2="225.969" stroke="#8c8c8c" stroke-width="0.3" stroke-dasharray="1.2,0.8"/>
<line x1="100.428" y1="121.04" x2="100.428" y2="36.721" stroke="#141414" stroke-width="0.4"/>
<line x1="100.428" y1="141.651" x2="100.428" y2="121.04" stroke="#141414" stroke-width="0.4"/>
<line x1="100.428" y1="225.969" x2="100.428" y2="141.651" stroke="#141414" stroke-width="0.4"/>
<line x1="117.292" y1="225.969" x2="100.428" y2="225.969" stroke="#141414" stroke-width="0.4"/>
<line x1="117.292" y1="121.04" x2="201.61" y2="121.04" stroke="#141414" stroke-width="0.4"/>
<line x1="201.61" y1="121.04" x2="201.61" y2="141.651" stroke="#141414" stroke-width="0.4"/>
<line x1="201.61" y1="141.651" x2="117.292" y2="141.651" stroke="#141414" stroke-width="0.4"/>
<line x1="100.428" y1="36.721" x2="87.781" y2="43.721" stroke="#141414" stroke-width="0.4"/>
<line x1="87.781" y1="43.721" x2="28.758" y2="43.721" stroke="#141414" stroke-width="0.4"/>
<line x1="28.758" y1="43.721" x2="16.11" y2="36.721" stroke="#141414" stroke-width="0.4"/>
<line x1="16.11" y1="36.721" x2="9.11" y2="33.63" stroke="#141414" stroke-width="0.4"/>
<line x1="9.11" y1="33.63" x2="9.11" y2="19.202" stroke="#141414" stroke-width="0.4"/>
<line x1="9.11" y1="19.202" x2="16.11" y2="16.11" stroke="#141414" stroke-width="0.4"/>
<line x1="100.428" y1="16.11" x2="87.781" y2="9.11" stroke="#141414" stroke-width="0.4"/>
<line x1="87.781" y1="9.11" x2="28.758" y2="9.11" stroke="#141414" stroke-width="0.4"/>
<line x1="28.758" y1="9.11" x2="16.11" y2="16.11" stroke="#141414" stroke-width="0.4"/>
<line x1="100.428" y1="16.11" x2="102.958" y2="9.11" stroke="#141414" stroke-width="0.4"/>
<line x1="102.958" y1="9.11" x2="114.763" y2="9.11" stroke="#141414" stroke-width="0.4"/>
<line x1="114.763" y1="9.11" x2="117.292" y2="16.11" stroke="#141414" stroke-width="0.4"/>
<line x1="117.292" y1="36.721" x2="124.292" y2="49.369" stroke="#141414" stroke-width="0.4"/>
<line x1="124.292" y1="49.369" x2="124.292" y2="108.392" stroke="#141414" stroke-width="0.4"/>
<line x1="124.292" y1="108.392" x2="117.292" y2="121.04" stroke="#141414" stroke-width="0.4"/>
<line x1="117.292" y1="36.721" x2="124.292" y2="33.63" stroke="#141414" stroke-width="0.4"/>
<line x1="124.292" y1="33.63" x2="124.292" y2="19.202" stroke="#141414" stroke-width="0.4"/>
<line x1="124.292" y1="19.202" x2="117.292" y2="16.11" stroke="#141414" stroke-width="0.4"/>
<line x1="117.292" y1="225.969" x2="124.292" y2="213.321" stroke="#141414" stroke-width="0.4"/>
<line x1="124.292" y1="213.321" x2="124.292" y2="154.298" stroke="#141414" stroke-width="0.4"/>
<line x1="124.292" y1="154.298" x2="117.292" y2="141.651" stroke="#141414" stroke-width="0.4"/>
<circle cx="58.269" cy="40.221" r="2.04" fill="#99d9fa" stroke="#464646" stroke-width="0.2"/>
<text x="58.269" y="40.92" font-size="2.00" text-anchor="middle" fill="#141414">61</text>
<circle cx="12.61" cy="26.416" r="2.04" fill="#ffe082" stroke="#464646" stroke-width="0.2"/>
<text x="12.61" y="27.12" font-size="2.00" text-anchor="middle" fill="#141414">62</text>
<circle cx="58.269" cy="12.61" r="2.04" fill="#ffe082" stroke="#464646" stroke-width="0.2"/>
<text x="58.269" y="13.31" font-size="2.00" text-anchor="middle" fill="#141414">63</text>
<circle cx="108.86" cy="12.61" r="2.04" fill="#ffe082" stroke="#464646" stroke-width="0.2"/>
<text x="108.86" y="13.31" font-size="2.00" text-anchor="middle" fill="#141414">64</text>
<circle cx="120.792" cy="78.88" r="2.04" fill="#ffe082" stroke="#464646" stroke-width="0.2"/>
<text x="120.792" y="79.58" font-size="2.00" text-anchor="middle" fill="#141414">65</text>
<circle cx="120.792" cy="26.416" r="2.04" fill="#ffe082" stroke="#464646" stroke-width="0.2"/>
<text x="120.792" y="27.12" font-size="2.00" text-anchor="middle" fill="#141414">66</text>
<circle cx="120.792" cy="183.81" r="2.04" fill="#ffe082" stroke="#464646" stroke-width="0.2"/>
<text x="120.792" y="184.51" font-size="2.00" text-anchor="middle" fill="#141414">67</text>
<circle cx="111.671" cy="92.934" r="4.41" fill="#eaf1fe" stroke="#2e78e6" stroke-width="0.3"/>
<text x="111.671" y="94.66" font-size="4.98" text-anchor="middle" fill="#14306e" font-weight="bold">5</text>
<text x="205.0" y="295.0" font-size="3.2" text-anchor="end" fill="#737373" font-family="sans-serif">3 / 7</text>
</svg>
