<svg xmlns="http://www.w3.org/2000/svg" xmlns:xlink="http://www.w3.org/1999/xlink" width="210.00mm" height="297.00mm" viewBox="0 0 210.00 297.00">
<rect x="0" y="0" width="210.00" height="297.00" fill="#ffffff" stroke="#cccccc" stroke-width="0.2"/>
<polygon points="85.113,167.312 74.678,174.312 25.985,174.312 15.55,167.312" fill="rgb(216,216,216)"/>
<polygon points="85.113,120.938 74.678,113.938 25.985,113.938 15.55,120.938" fill="rgb(216,216,216)"/>
<polygon points="131.488,167.312 138.488,160.356 138.488,127.894 131.488,120.938" fill="rgb(216,216,216)"/>
<polygon points="131.488,167.312 138.488,177.747 138.488,226.441 131.488,236.875" fill="rgb(216,216,216)"/>
<polygon points="131.488,120.938 138.488,110.503 138.488,61.809 131.488,51.375" fill="rgb(216,216,216)"/>
<polygon points="15.55,167.312 8.55,160.356 8.55,127.894 15.55,120.938" fill="rgb(216,216,216)"/>
<polygon points="85.113,236.875 92.069,243.875 124.531,243.875 131.488,236.875" fill="rgb(216,216,216)"/>
<line x1="85.113" y1="167.312" x2="85.113" y2="120.938" stroke="#8c8c8c" stroke-width="0.3" stroke-dasharray="1.2,0.8"/>
<line x1="131.488" y1="167.312" x2="85.113" y2="167.312" stroke="#8c8c8c" stroke-width="0.3" stroke-dasharray="1.2,0.8"/>
<line x1="85.113" y1="120.938" x2="131.488" y2="120.938" stroke="#8c8c8c" stroke-width="0.3" stroke-dasharray="1.2,0.8"/>
<line x1="85.113" y1="51.375" x2="131.488" y2="51.375" stroke="#8c8c8c" stroke-width="0.3" stroke-dasharray="1.2,0.8"/>
<line x1="131.488" y1="51.375" x2="131.488" y2="5.0" stroke="#8c8c8c" stroke-width="0.3" stroke-dasharray="1.2,0.8"/>
<line x1="15.55" y1="167.312" x2="85.113" y2="167.312" stroke="#8c8c8c" stroke-width="0.3" stroke-dasharray="1.2,0.8"/>
<line x1="15.55" y1="120.938" x2="85.113" y2="120.938" stroke="#8c8c8c" stroke-width="0.3" stroke-dasharray="1.2,0.8"/>
<line x1="131.488" y1="120.938" x2="131.488" y2="167.312" stroke="#8c8c8c" stroke-width="0.3" stroke-dasharray="1.2,0.8"/>
<line x1="131.488" y1="236.875" x2="131.488" y2="167.312" stroke="#8c8c8c" stroke-width="0.3" stroke-dasharray="1.2,0.8"/>
<line x1="131.488" y1="51.375" x2="131.488" y2="120.938" stroke="#8c8c8c" stroke-width="0.3" stroke-dasharray="1.2,0.8"/>
<line x1="15.55" y1="120.938" x2="15.55" y2="167.312" stroke="#8c8c8c" stroke-width="0.3" stroke-dasharray="1.2,0.8"/>
<line x1="131.488" y1="236.875" x2="85.113" y2="236.875" stroke="#8c8c8c" stroke-width="0.3" stroke-dasharray="1.2,0.8"/>
<line x1="85.113" y1="236.875" x2="85.113" y2="167.312" stroke="#141414" stroke-width="0.4"/>
<line x1="85.113" y1="120.938" x2="85.113" y2="51.375" stroke="#141414" stroke-width="0.4"/>
<line x1="201.05" y1="5.0" x2="201.05" y2="51.375" stroke="#141414" stroke-width="0.4"/>
<line x1="131.488" y1="5.0" x2="201.05" y2="5.0" stroke="#141414" stroke-width="0.4"/>
<line x1="201.05" y1="51.375" x2="131.488" y2="51.375" stroke="#141414" stroke-width="0.4"/>
<line x1="85.113" y1="51.375" x2="85.113" y2="5.0" stroke="#141414" stroke-width="0.4"/>
<line x1="85.113" y1="5.0" x2="131.488" y2="5.0" stroke="#141414" stroke-width="0.4"/>
<line x1="85.113" y1="167.312" x2="74.678" y2="174.312" stroke="#141414" stroke-width="0.4"/>
<line x1="74.678" y1="174.312" x2="25.985" y2="174.312" stroke="#141414" stroke-width="0.4"/>
<line x1="25.985" y1="174.312" x2="15.55" y2="167.312" stroke="#141414" stroke-width="0.4"/>
<line x1="85.113" y1="120.938" x2="74.678" y2="113.938" stroke="#141414" stroke-width="0.4"/>
<line x1="74.678" y1="113.938" x2="25.985" y2="113.938" stroke="#141414" stroke-width="0.4"/>
<line x1="25.985" y1="113.938" x2="15.55" y2="120.938" stroke="#141414" stroke-width="0.4"/>
<line x1="131.488" y1="167.312" x2="138.488" y2="160.356" stroke="#141414" stroke-width="0.4"/>
<line x1="138.488" y1="160.356" x2="138.488" y2="127.894" stroke="#141414" stroke-width="0.4"/>
<line x1="138.488" y1="127.894" x2="131.488" y2="120.938" stroke="#141414" stroke-width="0.4"/>
<line x1="131.488" y1="167.312" x2="138.488" y2="177.747" stroke="#141414" stroke-width="0.4"/>
<line x1="138.488" y1="177.747" x2="138.488" y2="226.441" stroke="#141414" stroke-width="0.4"/>
<line x1="138.488" y1="226.441" x2="131.488" y2="236.875" stroke="#141414" stroke-width="0.4"/>
<line x1="131.488" y1="120.938" x2="138.488" y2="110.503" stroke="#141414" stroke-width="0.4"/>
<line x1="138.488" y1="110.503" x2="138.488" y2="61.809" stroke="#141414" stroke-width="0.4"/>
<line x1="138.488" y1="61.809" x2="131.488" y2="51.375" stroke="#141414" stroke-width="0.4"/>
<line x1="15.55" y1="167.312" x2="8.55" y2="160.356" stroke="#141414" stroke-width="0.4"/>
<line x1="8.55" y1="160.356" x2="8.55" y2="127.894" stroke="#141414" stroke-width="0.4"/>
<line x1="8.55" y1="127.894" x2="15.55" y2="120.938" stroke="#141414" stroke-width="0.4"/>
<line x1="85.113" y1="236.875" x2="92.069" y2="243.875" stroke="#141414" stroke-width="0.4"/>
<line x1="92.069" y1="243.875" x2="124.531" y2="243.875" stroke="#141414" stroke-width="0.4"/>
<line x1="124.531" y1="243.875" x2="131.488" y2="236.875" stroke="#141414" stroke-width="0.4"/>
<circle cx="50.332" cy="170.812" r="2.96" fill="#ffe082" stroke="#464646" stroke-width="0.2"/>
<text x="50.332" y="172.22" font-size="4.01" text-anchor="middle" fill="#141414">18</text>
<circle cx="50.332" cy="117.438" r="2.96" fill="#ffe082" stroke="#464646" stroke-width="0.2"/>
<text x="50.332" y="118.84" font-size="4.01" text-anchor="middle" fill="#141414">19</text>
<circle cx="134.988" cy="144.125" r="2.96" fill="#ffe082" stroke="#464646" stroke-width="0.2"/>
<text x="134.988" y="145.53" font-size="4.01" text-anchor="middle" fill="#141414">20</text>
<circle cx="134.988" cy="202.094" r="2.96" fill="#ffe082" stroke="#464646" stroke-width="0.2"/>
<text x="134.988" y="203.50" font-size="4.01" text-anchor="middle" fill="#141414">21</text>
<circle cx="134.988" cy="86.156" r="2.96" fill="#ffe082" stroke="#464646" stroke-width="0.2"/>
<text x="134.988" y="87.56" font-size="4.01" text-anchor="middle" fill="#141414">22</text>
<circle cx="12.05" cy="144.125" r="2.96" fill="#ffe082" stroke="#464646" stroke-width="0.2"/>
<text x="12.05" y="145.53" font-size="4.01" text-anchor="middle" fill="#141414">23</text>
<circle cx="108.3" cy="240.375" r="2.96" fill="#ffe082" stroke="#464646" stroke-width="0.2"/>
<text x="108.3" y="241.78" font-size="4.01" text-anchor="middle" fill="#141414">24</text>
<circle cx="101.25" cy="249.975" r="4.6" fill="#eaf1fe" stroke="#2e78e6" stroke-width="0.3"/>
<text x="101.25" y="251.775" font-size="5.2" text-anchor="middle" fill="#14306e" font-weight="bold">3</text>
<g pointer-events="none"><text x="105.0" y="89.1" text-anchor="middle" font-family="sans-serif" font-size="21.2" fill="#9aa0a6" fill-opacity="0.33" transform="rotate(-28 105.0 89.1)">papercraft.kr 미리보기</text><text x="105.0" y="163.4" text-anchor="middle" font-family="sans-serif" font-size="21.2" fill="#9aa0a6" fill-opacity="0.33" transform="rotate(-28 105.0 163.4)">papercraft.kr 미리보기</text><text x="105.0" y="237.6" text-anchor="middle" font-family="sans-serif" font-size="21.2" fill="#9aa0a6" fill-opacity="0.33" transform="rotate(-28 105.0 237.6)">papercraft.kr 미리보기</text></g></svg>
