<svg xmlns="http://www.w3.org/2000/svg" xmlns:xlink="http://www.w3.org/1999/xlink" width="210.00mm" height="297.00mm" viewBox="0 0 210.00 297.00">
<rect x="0" y="0" width="210.00" height="297.00" fill="#ffffff" stroke="#cccccc" stroke-width="0.2"/>
<polygon points="89.725,188.207 82.725,193.558 82.725,218.53 89.725,223.881" fill="rgb(216,216,216)"/>
<polygon points="5.0,114.441 18.672,119.608 77.98,111.367 89.725,102.668" fill="rgb(216,216,216)"/>
<polygon points="89.725,223.881 92.086,230.881 103.103,230.881 105.464,223.881" fill="rgb(216,216,216)"/>
<polygon points="5.0,78.767 18.672,73.599 77.98,81.84 89.725,90.539" fill="rgb(216,216,216)"/>
<polygon points="105.464,188.207 111.349,174.784 106.264,114.907 98.2,102.668" fill="rgb(216,216,216)"/>
<polygon points="105.464,5.0 111.349,18.423 106.264,78.3 98.2,90.539" fill="rgb(216,216,216)"/>
<polygon points="190.5,199.98 196.565,201.799 196.565,210.289 190.5,212.109" fill="rgb(216,216,216)"/>
<polygon points="89.725,188.207 82.725,193.558 82.725,218.53 89.725,223.881" fill="#99d9fa"/>
<line x1="89.725" y1="188.207" x2="105.464" y2="188.207" stroke="#8c8c8c" stroke-width="0.3" stroke-dasharray="1.2,0.8"/>
<line x1="105.464" y1="188.207" x2="105.464" y2="223.881" stroke="#8c8c8c" stroke-width="0.3" stroke-dasharray="1.2,0.8"/>
<line x1="89.725" y1="90.539" x2="89.725" y2="102.668" stroke="#8c8c8c" stroke-width="0.3" stroke-dasharray="1.2,0.8"/>
<line x1="89.725" y1="102.668" x2="98.2" y2="102.668" stroke="#8c8c8c" stroke-width="0.3" stroke-dasharray="1.2,0.8"/>
<line x1="98.2" y1="90.539" x2="89.725" y2="90.539" stroke="#8c8c8c" stroke-width="0.3" stroke-dasharray="1.2,0.8"/>
<line x1="89.725" y1="223.881" x2="89.725" y2="188.207" stroke="#8c8c8c" stroke-width="0.3" stroke-dasharray="1.2,0.8"/>
<line x1="89.725" y1="102.668" x2="5.0" y2="114.441" stroke="#8c8c8c" stroke-width="0.3" stroke-dasharray="1.2,0.8"/>
<line x1="105.464" y1="223.881" x2="89.725" y2="223.881" stroke="#8c8c8c" stroke-width="0.3" stroke-dasharray="1.2,0.8"/>
<line x1="89.725" y1="90.539" x2="5.0" y2="78.767" stroke="#8c8c8c" stroke-width="0.3" stroke-dasharray="1.2,0.8"/>
<line x1="98.2" y1="102.668" x2="105.464" y2="188.207" stroke="#8c8c8c" stroke-width="0.3" stroke-dasharray="1.2,0.8"/>
<line x1="98.2" y1="90.539" x2="105.464" y2="5.0" stroke="#8c8c8c" stroke-width="0.3" stroke-dasharray="1.2,0.8"/>
<line x1="190.5" y1="212.109" x2="190.5" y2="199.98" stroke="#8c8c8c" stroke-width="0.3" stroke-dasharray="1.2,0.8"/>
<line x1="5.0" y1="114.441" x2="5.0" y2="78.767" stroke="#141414" stroke-width="0.4"/>
<line x1="89.725" y1="188.207" x2="89.725" y2="102.668" stroke="#141414" stroke-width="0.4"/>
<line x1="89.725" y1="5.0" x2="105.464" y2="5.0" stroke="#141414" stroke-width="0.4"/>
<line x1="89.725" y1="90.539" x2="89.725" y2="5.0" stroke="#141414" stroke-width="0.4"/>
<line x1="105.464" y1="188.207" x2="190.5" y2="199.98" stroke="#141414" stroke-width="0.4"/>
<line x1="190.5" y1="212.109" x2="105.464" y2="223.881" stroke="#141414" stroke-width="0.4"/>
<line x1="98.2" y1="90.539" x2="98.2" y2="102.668" stroke="#141414" stroke-width="0.4"/>
<line x1="89.725" y1="188.207" x2="82.725" y2="193.558" stroke="#141414" stroke-width="0.4"/>
<line x1="82.725" y1="193.558" x2="82.725" y2="218.53" stroke="#141414" stroke-width="0.4"/>
<line x1="82.725" y1="218.53" x2="89.725" y2="223.881" stroke="#141414" stroke-width="0.4"/>
<line x1="5.0" y1="114.441" x2="18.672" y2="119.608" stroke="#141414" stroke-width="0.4"/>
<line x1="18.672" y1="119.608" x2="77.98" y2="111.367" stroke="#141414" stroke-width="0.4"/>
<line x1="77.98" y1="111.367" x2="89.725" y2="102.668" stroke="#141414" stroke-width="0.4"/>
<line x1="89.725" y1="223.881" x2="92.086" y2="230.881" stroke="#141414" stroke-width="0.4"/>
<line x1="92.086" y1="230.881" x2="103.103" y2="230.881" stroke="#141414" stroke-width="0.4"/>
<line x1="103.103" y1="230.881" x2="105.464" y2="223.881" stroke="#141414" stroke-width="0.4"/>
<line x1="5.0" y1="78.767" x2="18.672" y2="73.599" stroke="#141414" stroke-width="0.4"/>
<line x1="18.672" y1="73.599" x2="77.98" y2="81.84" stroke="#141414" stroke-width="0.4"/>
<line x1="77.98" y1="81.84" x2="89.725" y2="90.539" stroke="#141414" stroke-width="0.4"/>
<line x1="105.464" y1="188.207" x2="111.349" y2="174.784" stroke="#141414" stroke-width="0.4"/>
<line x1="111.349" y1="174.784" x2="106.264" y2="114.907" stroke="#141414" stroke-width="0.4"/>
<line x1="106.264" y1="114.907" x2="98.2" y2="102.668" stroke="#141414" stroke-width="0.4"/>
<line x1="105.464" y1="5.0" x2="111.349" y2="18.423" stroke="#141414" stroke-width="0.4"/>
<line x1="111.349" y1="18.423" x2="106.264" y2="78.3" stroke="#141414" stroke-width="0.4"/>
<line x1="106.264" y1="78.3" x2="98.2" y2="90.539" stroke="#141414" stroke-width="0.4"/>
<line x1="190.5" y1="199.98" x2="196.565" y2="201.799" stroke="#141414" stroke-width="0.4"/>
<line x1="196.565" y1="201.799" x2="196.565" y2="210.289" stroke="#141414" stroke-width="0.4"/>
<line x1="196.565" y1="210.289" x2="190.5" y2="212.109" stroke="#141414" stroke-width="0.4"/>
<circle cx="86.225" cy="206.044" r="1.96" fill="#99d9fa" stroke="#464646" stroke-width="0.2"/>
<text x="86.225" y="206.72" font-size="1.92" text-anchor="middle" fill="#141414">71</text>
<circle cx="47.844" cy="112.021" r="1.96" fill="#ffe082" stroke="#464646" stroke-width="0.2"/>
<text x="47.844" y="112.69" font-size="1.92" text-anchor="middle" fill="#141414">72</text>
<circle cx="97.595" cy="227.381" r="1.96" fill="#ffe082" stroke="#464646" stroke-width="0.2"/>
<text x="97.595" y="228.05" font-size="1.92" text-anchor="middle" fill="#141414">73</text>
<circle cx="47.844" cy="81.186" r="1.96" fill="#ffe082" stroke="#464646" stroke-width="0.2"/>
<text x="47.844" y="81.86" font-size="1.92" text-anchor="middle" fill="#141414">74</text>
<circle cx="105.319" cy="145.142" r="1.96" fill="#ffe082" stroke="#464646" stroke-width="0.2"/>
<text x="105.319" y="145.81" font-size="1.92" text-anchor="middle" fill="#141414">75</text>
<circle cx="105.319" cy="48.066" r="1.96" fill="#ffe082" stroke="#464646" stroke-width="0.2"/>
<text x="105.319" y="48.74" font-size="1.92" text-anchor="middle" fill="#141414">76</text>
<circle cx="193.532" cy="206.044" r="1.96" fill="#ffe082" stroke="#464646" stroke-width="0.2"/>
<text x="193.532" y="206.72" font-size="1.92" text-anchor="middle" fill="#141414">77</text>
<circle cx="33.242" cy="94.582" r="4.60" fill="#eaf1fe" stroke="#2e78e6" stroke-width="0.3"/>
<text x="33.242" y="96.38" font-size="5.20" text-anchor="middle" fill="#14306e" font-weight="bold">11</text>
<text x="205.0" y="295.0" font-size="3.2" text-anchor="end" fill="#737373" font-family="sans-serif">11 / 15</text>
<g pointer-events="none"><text x="105.0" y="83.2" text-anchor="middle" font-family="sans-serif" font-size="12.4" fill="#9aa0a6" fill-opacity="0.3" transform="rotate(-28 105.0 83.2)">papercraft.kr</text><text x="105.0" y="148.5" text-anchor="middle" font-family="sans-serif" font-size="12.4" fill="#9aa0a6" fill-opacity="0.3" transform="rotate(-28 105.0 148.5)">papercraft.kr</text><text x="105.0" y="213.8" text-anchor="middle" font-family="sans-serif" font-size="12.4" fill="#9aa0a6" fill-opacity="0.3" transform="rotate(-28 105.0 213.8)">papercraft.kr</text></g></svg>
