<svg xmlns="http://www.w3.org/2000/svg" xmlns:xlink="http://www.w3.org/1999/xlink" width="210.00mm" height="297.00mm" viewBox="0 0 210.00 297.00">
<rect x="0" y="0" width="210.00" height="297.00" fill="#ffffff" stroke="#cccccc" stroke-width="0.2"/>
<polygon points="109.355,16.277 111.507,10.408 119.875,10.91 121.309,16.995" fill="rgb(216,216,216)"/>
<polygon points="95.477,247.58 82.026,253.011 23.163,245.922 11.386,237.453" fill="rgb(216,216,216)"/>
<polygon points="97.647,211.411 84.942,204.411 25.654,204.411 12.949,211.411" fill="rgb(216,216,216)"/>
<polygon points="107.431,248.297 114.744,243.291 116.263,217.973 109.601,212.128" fill="rgb(216,216,216)"/>
<polygon points="121.309,16.995 126.813,30.433 120.043,89.422 111.639,101.265" fill="rgb(216,216,216)"/>
<polygon points="109.601,212.128 116.672,199.444 117.005,140.069 110.076,127.306" fill="rgb(216,216,216)"/>
<polygon points="11.386,237.453 4.633,233.127 5.727,214.898 12.949,211.411" fill="rgb(216,216,216)"/>
<polygon points="95.477,247.58 82.026,253.011 23.163,245.922 11.386,237.453" fill="#99d9fa"/>
<line x1="97.647" y1="211.411" x2="95.477" y2="247.58" stroke="#8c8c8c" stroke-width="0.3" stroke-dasharray="1.2,0.8"/>
<line x1="97.647" y1="211.411" x2="109.601" y2="212.128" stroke="#8c8c8c" stroke-width="0.3" stroke-dasharray="1.2,0.8"/>
<line x1="111.639" y1="101.265" x2="104.282" y2="100.823" stroke="#8c8c8c" stroke-width="0.3" stroke-dasharray="1.2,0.8"/>
<line x1="110.076" y1="127.306" x2="102.72" y2="126.865" stroke="#8c8c8c" stroke-width="0.3" stroke-dasharray="1.2,0.8"/>
<line x1="111.639" y1="101.265" x2="110.076" y2="127.306" stroke="#8c8c8c" stroke-width="0.3" stroke-dasharray="1.2,0.8"/>
<line x1="121.309" y1="16.995" x2="109.355" y2="16.277" stroke="#8c8c8c" stroke-width="0.3" stroke-dasharray="1.2,0.8"/>
<line x1="11.386" y1="237.453" x2="95.477" y2="247.58" stroke="#8c8c8c" stroke-width="0.3" stroke-dasharray="1.2,0.8"/>
<line x1="12.949" y1="211.411" x2="97.647" y2="211.411" stroke="#8c8c8c" stroke-width="0.3" stroke-dasharray="1.2,0.8"/>
<line x1="109.601" y1="212.128" x2="107.431" y2="248.297" stroke="#8c8c8c" stroke-width="0.3" stroke-dasharray="1.2,0.8"/>
<line x1="111.639" y1="101.265" x2="121.309" y2="16.995" stroke="#8c8c8c" stroke-width="0.3" stroke-dasharray="1.2,0.8"/>
<line x1="110.076" y1="127.306" x2="109.601" y2="212.128" stroke="#8c8c8c" stroke-width="0.3" stroke-dasharray="1.2,0.8"/>
<line x1="12.949" y1="211.411" x2="11.386" y2="237.453" stroke="#8c8c8c" stroke-width="0.3" stroke-dasharray="1.2,0.8"/>
<line x1="107.431" y1="248.297" x2="95.477" y2="247.58" stroke="#141414" stroke-width="0.4"/>
<line x1="104.282" y1="100.823" x2="109.355" y2="16.277" stroke="#141414" stroke-width="0.4"/>
<line x1="97.647" y1="211.411" x2="102.72" y2="126.865" stroke="#141414" stroke-width="0.4"/>
<line x1="196.462" y1="101.272" x2="194.292" y2="137.441" stroke="#141414" stroke-width="0.4"/>
<line x1="111.639" y1="101.265" x2="196.462" y2="101.272" stroke="#141414" stroke-width="0.4"/>
<line x1="194.292" y1="137.441" x2="110.076" y2="127.306" stroke="#141414" stroke-width="0.4"/>
<line x1="102.72" y1="126.865" x2="104.282" y2="100.823" stroke="#141414" stroke-width="0.4"/>
<line x1="109.355" y1="16.277" x2="111.507" y2="10.408" stroke="#141414" stroke-width="0.4"/>
<line x1="111.507" y1="10.408" x2="119.875" y2="10.91" stroke="#141414" stroke-width="0.4"/>
<line x1="119.875" y1="10.91" x2="121.309" y2="16.995" stroke="#141414" stroke-width="0.4"/>
<line x1="95.477" y1="247.58" x2="82.026" y2="253.011" stroke="#141414" stroke-width="0.4"/>
<line x1="82.026" y1="253.011" x2="23.163" y2="245.922" stroke="#141414" stroke-width="0.4"/>
<line x1="23.163" y1="245.922" x2="11.386" y2="237.453" stroke="#141414" stroke-width="0.4"/>
<line x1="97.647" y1="211.411" x2="84.942" y2="204.411" stroke="#141414" stroke-width="0.4"/>
<line x1="84.942" y1="204.411" x2="25.654" y2="204.411" stroke="#141414" stroke-width="0.4"/>
<line x1="25.654" y1="204.411" x2="12.949" y2="211.411" stroke="#141414" stroke-width="0.4"/>
<line x1="107.431" y1="248.297" x2="114.744" y2="243.291" stroke="#141414" stroke-width="0.4"/>
<line x1="114.744" y1="243.291" x2="116.263" y2="217.973" stroke="#141414" stroke-width="0.4"/>
<line x1="116.263" y1="217.973" x2="109.601" y2="212.128" stroke="#141414" stroke-width="0.4"/>
<line x1="121.309" y1="16.995" x2="126.813" y2="30.433" stroke="#141414" stroke-width="0.4"/>
<line x1="126.813" y1="30.433" x2="120.043" y2="89.422" stroke="#141414" stroke-width="0.4"/>
<line x1="120.043" y1="89.422" x2="111.639" y2="101.265" stroke="#141414" stroke-width="0.4"/>
<line x1="109.601" y1="212.128" x2="116.672" y2="199.444" stroke="#141414" stroke-width="0.4"/>
<line x1="116.672" y1="199.444" x2="117.005" y2="140.069" stroke="#141414" stroke-width="0.4"/>
<line x1="117.005" y1="140.069" x2="110.076" y2="127.306" stroke="#141414" stroke-width="0.4"/>
<line x1="11.386" y1="237.453" x2="4.633" y2="233.127" stroke="#141414" stroke-width="0.4"/>
<line x1="4.633" y1="233.127" x2="5.727" y2="214.898" stroke="#141414" stroke-width="0.4"/>
<line x1="5.727" y1="214.898" x2="12.949" y2="211.411" stroke="#141414" stroke-width="0.4"/>
<circle cx="115.511" cy="13.647" r="1.99" fill="#ffe082" stroke="#464646" stroke-width="0.2"/>
<text x="115.511" y="14.33" font-size="1.95" text-anchor="middle" fill="#141414">22</text>
<circle cx="53.013" cy="245.991" r="1.99" fill="#99d9fa" stroke="#464646" stroke-width="0.2"/>
<text x="53.013" y="246.67" font-size="1.95" text-anchor="middle" fill="#141414">23</text>
<circle cx="55.298" cy="207.911" r="1.99" fill="#ffe082" stroke="#464646" stroke-width="0.2"/>
<text x="55.298" y="208.59" font-size="1.95" text-anchor="middle" fill="#141414">24</text>
<circle cx="112.01" cy="230.423" r="1.99" fill="#ffe082" stroke="#464646" stroke-width="0.2"/>
<text x="112.01" y="231.11" font-size="1.95" text-anchor="middle" fill="#141414">25</text>
<circle cx="119.951" cy="59.529" r="1.99" fill="#ffe082" stroke="#464646" stroke-width="0.2"/>
<text x="119.951" y="60.21" font-size="1.95" text-anchor="middle" fill="#141414">26</text>
<circle cx="113.339" cy="169.737" r="1.99" fill="#ffe082" stroke="#464646" stroke-width="0.2"/>
<text x="113.339" y="170.42" font-size="1.95" text-anchor="middle" fill="#141414">27</text>
<circle cx="8.674" cy="224.222" r="1.99" fill="#ffe082" stroke="#464646" stroke-width="0.2"/>
<text x="8.674" y="224.91" font-size="1.95" text-anchor="middle" fill="#141414">28</text>
<circle cx="68.691" cy="223.468" r="4.60" fill="#eaf1fe" stroke="#2e78e6" stroke-width="0.3"/>
<text x="68.691" y="225.27" font-size="5.20" text-anchor="middle" fill="#14306e" font-weight="bold">4</text>
<text x="205.0" y="295.0" font-size="3.2" text-anchor="end" fill="#737373" font-family="sans-serif">4 / 15</text>
<g pointer-events="none"><text x="105.0" y="83.2" text-anchor="middle" font-family="sans-serif" font-size="12.4" fill="#9aa0a6" fill-opacity="0.3" transform="rotate(-28 105.0 83.2)">papercraft.kr</text><text x="105.0" y="148.5" text-anchor="middle" font-family="sans-serif" font-size="12.4" fill="#9aa0a6" fill-opacity="0.3" transform="rotate(-28 105.0 148.5)">papercraft.kr</text><text x="105.0" y="213.8" text-anchor="middle" font-family="sans-serif" font-size="12.4" fill="#9aa0a6" fill-opacity="0.3" transform="rotate(-28 105.0 213.8)">papercraft.kr</text></g></svg>
