<svg xmlns="http://www.w3.org/2000/svg" xmlns:xlink="http://www.w3.org/1999/xlink" width="210.00mm" height="297.00mm" viewBox="0 0 210.00 297.00">
<rect x="0" y="0" width="210.00" height="297.00" fill="#ffffff" stroke="#cccccc" stroke-width="0.2"/>
<polygon points="75.958,112.192 82.958,121.477 82.958,164.807 75.958,174.092" fill="rgb(216,216,216)"/>
<polygon points="66.9,112.192 59.9,106.757 59.9,81.393 66.9,75.958" fill="rgb(216,216,216)"/>
<polygon points="66.9,112.192 59.9,121.477 59.9,164.807 66.9,174.092" fill="rgb(216,216,216)"/>
<polygon points="75.958,75.958 85.243,68.958 128.573,68.958 137.858,75.958" fill="rgb(216,216,216)"/>
<polygon points="5.0,210.326 14.285,217.326 57.615,217.326 66.9,210.326" fill="rgb(216,216,216)"/>
<polygon points="137.858,112.192 144.858,106.757 144.858,81.393 137.858,75.958" fill="rgb(216,216,216)"/>
<polygon points="75.958,14.058 74.599,9.529 68.258,9.529 66.9,14.058" fill="rgb(216,216,216)"/>
<polygon points="75.958,112.192 82.958,121.477 82.958,164.807 75.958,174.092" fill="#99d9fa"/>
<line x1="75.958" y1="112.192" x2="66.9" y2="112.192" stroke="#8c8c8c" stroke-width="0.3" stroke-dasharray="1.2,0.8"/>
<line x1="75.958" y1="75.958" x2="75.958" y2="112.192" stroke="#8c8c8c" stroke-width="0.3" stroke-dasharray="1.2,0.8"/>
<line x1="66.9" y1="75.958" x2="75.958" y2="75.958" stroke="#8c8c8c" stroke-width="0.3" stroke-dasharray="1.2,0.8"/>
<line x1="75.958" y1="174.092" x2="66.9" y2="174.092" stroke="#8c8c8c" stroke-width="0.3" stroke-dasharray="1.2,0.8"/>
<line x1="66.9" y1="174.092" x2="66.9" y2="210.326" stroke="#8c8c8c" stroke-width="0.3" stroke-dasharray="1.2,0.8"/>
<line x1="75.958" y1="174.092" x2="75.958" y2="112.192" stroke="#8c8c8c" stroke-width="0.3" stroke-dasharray="1.2,0.8"/>
<line x1="66.9" y1="75.958" x2="66.9" y2="112.192" stroke="#8c8c8c" stroke-width="0.3" stroke-dasharray="1.2,0.8"/>
<line x1="66.9" y1="174.092" x2="66.9" y2="112.192" stroke="#8c8c8c" stroke-width="0.3" stroke-dasharray="1.2,0.8"/>
<line x1="137.858" y1="75.958" x2="75.958" y2="75.958" stroke="#8c8c8c" stroke-width="0.3" stroke-dasharray="1.2,0.8"/>
<line x1="66.9" y1="210.326" x2="5.0" y2="210.326" stroke="#8c8c8c" stroke-width="0.3" stroke-dasharray="1.2,0.8"/>
<line x1="137.858" y1="75.958" x2="137.858" y2="112.192" stroke="#8c8c8c" stroke-width="0.3" stroke-dasharray="1.2,0.8"/>
<line x1="66.9" y1="14.058" x2="75.958" y2="14.058" stroke="#8c8c8c" stroke-width="0.3" stroke-dasharray="1.2,0.8"/>
<line x1="137.858" y1="112.192" x2="75.958" y2="112.192" stroke="#141414" stroke-width="0.4"/>
<line x1="5.0" y1="210.326" x2="5.0" y2="174.092" stroke="#141414" stroke-width="0.4"/>
<line x1="5.0" y1="174.092" x2="66.9" y2="174.092" stroke="#141414" stroke-width="0.4"/>
<line x1="75.958" y1="14.059" x2="75.958" y2="75.958" stroke="#141414" stroke-width="0.4"/>
<line x1="66.9" y1="75.958" x2="66.9" y2="14.059" stroke="#141414" stroke-width="0.4"/>
<line x1="75.958" y1="174.092" x2="75.958" y2="210.326" stroke="#141414" stroke-width="0.4"/>
<line x1="75.958" y1="210.326" x2="66.9" y2="210.326" stroke="#141414" stroke-width="0.4"/>
<line x1="75.958" y1="112.192" x2="82.958" y2="121.477" stroke="#141414" stroke-width="0.4"/>
<line x1="82.958" y1="121.477" x2="82.958" y2="164.807" stroke="#141414" stroke-width="0.4"/>
<line x1="82.958" y1="164.807" x2="75.958" y2="174.092" stroke="#141414" stroke-width="0.4"/>
<line x1="66.9" y1="112.192" x2="59.9" y2="106.757" stroke="#141414" stroke-width="0.4"/>
<line x1="59.9" y1="106.757" x2="59.9" y2="81.393" stroke="#141414" stroke-width="0.4"/>
<line x1="59.9" y1="81.393" x2="66.9" y2="75.958" stroke="#141414" stroke-width="0.4"/>
<line x1="66.9" y1="112.192" x2="59.9" y2="121.477" stroke="#141414" stroke-width="0.4"/>
<line x1="59.9" y1="121.477" x2="59.9" y2="164.807" stroke="#141414" stroke-width="0.4"/>
<line x1="59.9" y1="164.807" x2="66.9" y2="174.092" stroke="#141414" stroke-width="0.4"/>
<line x1="75.958" y1="75.958" x2="85.243" y2="68.958" stroke="#141414" stroke-width="0.4"/>
<line x1="85.243" y1="68.958" x2="128.573" y2="68.958" stroke="#141414" stroke-width="0.4"/>
<line x1="128.573" y1="68.958" x2="137.858" y2="75.958" stroke="#141414" stroke-width="0.4"/>
<line x1="5.0" y1="210.326" x2="14.285" y2="217.326" stroke="#141414" stroke-width="0.4"/>
<line x1="14.285" y1="217.326" x2="57.615" y2="217.326" stroke="#141414" stroke-width="0.4"/>
<line x1="57.615" y1="217.326" x2="66.9" y2="210.326" stroke="#141414" stroke-width="0.4"/>
<line x1="137.858" y1="112.192" x2="144.858" y2="106.757" stroke="#141414" stroke-width="0.4"/>
<line x1="144.858" y1="106.757" x2="144.858" y2="81.393" stroke="#141414" stroke-width="0.4"/>
<line x1="144.858" y1="81.393" x2="137.858" y2="75.958" stroke="#141414" stroke-width="0.4"/>
<line x1="75.958" y1="14.058" x2="74.599" y2="9.529" stroke="#141414" stroke-width="0.4"/>
<line x1="74.599" y1="9.529" x2="68.258" y2="9.529" stroke="#141414" stroke-width="0.4"/>
<line x1="68.258" y1="9.529" x2="66.9" y2="14.058" stroke="#141414" stroke-width="0.4"/>
<circle cx="79.458" cy="143.142" r="1.73" fill="#99d9fa" stroke="#464646" stroke-width="0.2"/>
<text x="79.458" y="143.73" font-size="1.69" text-anchor="middle" fill="#141414">50</text>
<circle cx="63.4" cy="94.075" r="1.73" fill="#ffe082" stroke="#464646" stroke-width="0.2"/>
<text x="63.4" y="94.67" font-size="1.69" text-anchor="middle" fill="#141414">51</text>
<circle cx="63.4" cy="143.142" r="1.73" fill="#ffe082" stroke="#464646" stroke-width="0.2"/>
<text x="63.4" y="143.73" font-size="1.69" text-anchor="middle" fill="#141414">52</text>
<circle cx="106.908" cy="72.458" r="1.73" fill="#ffe082" stroke="#464646" stroke-width="0.2"/>
<text x="106.908" y="73.05" font-size="1.69" text-anchor="middle" fill="#141414">53</text>
<circle cx="35.95" cy="213.826" r="1.73" fill="#ffe082" stroke="#464646" stroke-width="0.2"/>
<text x="35.95" y="214.42" font-size="1.69" text-anchor="middle" fill="#141414">54</text>
<circle cx="141.358" cy="94.075" r="1.73" fill="#ffe082" stroke="#464646" stroke-width="0.2"/>
<text x="141.358" y="94.67" font-size="1.69" text-anchor="middle" fill="#141414">55</text>
<circle cx="71.429" cy="11.794" r="1.73" fill="#ffe082" stroke="#464646" stroke-width="0.2"/>
<text x="71.429" y="12.39" font-size="1.69" text-anchor="middle" fill="#141414">56</text>
<circle cx="74.929" cy="218.897" r="4.6" fill="#eaf1fe" stroke="#2e78e6" stroke-width="0.3"/>
<text x="74.929" y="220.697" font-size="5.2" text-anchor="middle" fill="#14306e" font-weight="bold">8</text>
<text x="205.0" y="295.0" font-size="3.2" text-anchor="end" fill="#737373" font-family="sans-serif">8 / 15</text>
<g pointer-events="none"><text x="105.0" y="83.2" text-anchor="middle" font-family="sans-serif" font-size="12.4" fill="#9aa0a6" fill-opacity="0.3" transform="rotate(-28 105.0 83.2)">papercraft.kr</text><text x="105.0" y="148.5" text-anchor="middle" font-family="sans-serif" font-size="12.4" fill="#9aa0a6" fill-opacity="0.3" transform="rotate(-28 105.0 148.5)">papercraft.kr</text><text x="105.0" y="213.8" text-anchor="middle" font-family="sans-serif" font-size="12.4" fill="#9aa0a6" fill-opacity="0.3" transform="rotate(-28 105.0 213.8)">papercraft.kr</text></g></svg>
