<svg xmlns="http://www.w3.org/2000/svg" xmlns:xlink="http://www.w3.org/1999/xlink" width="210.00mm" height="297.00mm" viewBox="0 0 210.00 297.00">
<rect x="0" y="0" width="210.00" height="297.00" fill="#ffffff" stroke="#cccccc" stroke-width="0.2"/>
<polygon points="54.612,51.515 44.785,50.419 43.126,48.339 44.245,38.514" fill="rgb(216,216,216)"/>
<polygon points="71.241,51.515 81.069,50.419 82.728,48.339 81.609,38.514" fill="rgb(216,216,216)"/>
<polygon points="64.472,143.645 57.532,146.709 57.806,160.357 64.863,163.141" fill="rgb(216,216,216)"/>
<polygon points="81.609,38.514 87.879,34.525 85.289,23.176 77.909,22.302" fill="rgb(216,216,216)"/>
<polygon points="77.909,22.302 78.699,14.913 68.211,9.863 62.927,15.087" fill="rgb(216,216,216)"/>
<polygon points="87.943,144.982 89.496,152.275 101.371,153.974 104.907,147.408" fill="rgb(216,216,216)"/>
<polygon points="120.823,56.583 125.331,71.415 114.189,134.993 104.907,147.408" fill="rgb(216,216,216)"/>
<polygon points="62.927,15.087 57.642,9.863 47.155,14.913 47.945,22.302" fill="rgb(216,216,216)"/>
<polygon points="20.229,147.35 22.971,153.255 31.612,152.007 32.573,145.568" fill="rgb(216,216,216)"/>
<polygon points="47.945,22.302 40.565,23.176 37.975,34.525 44.245,38.514" fill="rgb(216,216,216)"/>
<polygon points="32.573,145.568 35.046,151.59 43.734,150.734 44.984,144.344" fill="rgb(216,216,216)"/>
<polygon points="62.927,15.087 57.642,9.863 47.155,14.913 47.945,22.302" fill="#99d9fa"/>
<line x1="54.612" y1="51.515" x2="71.241" y2="51.515" stroke="#8c8c8c" stroke-width="0.3" stroke-dasharray="1.2,0.8"/>
<line x1="64.472" y1="143.645" x2="54.612" y2="51.515" stroke="#8c8c8c" stroke-width="0.3" stroke-dasharray="1.2,0.8"/>
<line x1="54.612" y1="51.515" x2="44.984" y2="144.345" stroke="#8c8c8c" stroke-width="0.3" stroke-dasharray="1.2,0.8"/>
<line x1="71.241" y1="51.515" x2="64.472" y2="143.645" stroke="#8c8c8c" stroke-width="0.3" stroke-dasharray="1.2,0.8"/>
<line x1="87.852" y1="52.3" x2="64.472" y2="143.645" stroke="#8c8c8c" stroke-width="0.3" stroke-dasharray="1.2,0.8"/>
<line x1="87.943" y1="144.982" x2="64.472" y2="143.645" stroke="#8c8c8c" stroke-width="0.3" stroke-dasharray="1.2,0.8"/>
<line x1="87.852" y1="52.3" x2="87.943" y2="144.982" stroke="#8c8c8c" stroke-width="0.3" stroke-dasharray="1.2,0.8"/>
<line x1="104.388" y1="54.052" x2="87.943" y2="144.982" stroke="#8c8c8c" stroke-width="0.3" stroke-dasharray="1.2,0.8"/>
<line x1="21.458" y1="54.031" x2="32.573" y2="145.568" stroke="#8c8c8c" stroke-width="0.3" stroke-dasharray="1.2,0.8"/>
<line x1="38.007" y1="52.399" x2="44.984" y2="144.345" stroke="#8c8c8c" stroke-width="0.3" stroke-dasharray="1.2,0.8"/>
<line x1="120.823" y1="56.583" x2="87.943" y2="144.982" stroke="#8c8c8c" stroke-width="0.3" stroke-dasharray="1.2,0.8"/>
<line x1="44.245" y1="38.514" x2="54.612" y2="51.515" stroke="#8c8c8c" stroke-width="0.3" stroke-dasharray="1.2,0.8"/>
<line x1="81.609" y1="38.514" x2="71.241" y2="51.515" stroke="#8c8c8c" stroke-width="0.3" stroke-dasharray="1.2,0.8"/>
<line x1="64.863" y1="163.141" x2="64.472" y2="143.645" stroke="#8c8c8c" stroke-width="0.3" stroke-dasharray="1.2,0.8"/>
<line x1="77.909" y1="22.302" x2="81.609" y2="38.514" stroke="#8c8c8c" stroke-width="0.3" stroke-dasharray="1.2,0.8"/>
<line x1="62.927" y1="15.087" x2="77.909" y2="22.302" stroke="#8c8c8c" stroke-width="0.3" stroke-dasharray="1.2,0.8"/>
<line x1="104.907" y1="147.408" x2="87.943" y2="144.982" stroke="#8c8c8c" stroke-width="0.3" stroke-dasharray="1.2,0.8"/>
<line x1="104.907" y1="147.408" x2="120.823" y2="56.583" stroke="#8c8c8c" stroke-width="0.3" stroke-dasharray="1.2,0.8"/>
<line x1="47.945" y1="22.302" x2="62.927" y2="15.087" stroke="#8c8c8c" stroke-width="0.3" stroke-dasharray="1.2,0.8"/>
<line x1="32.573" y1="145.568" x2="20.229" y2="147.35" stroke="#8c8c8c" stroke-width="0.3" stroke-dasharray="1.2,0.8"/>
<line x1="44.245" y1="38.514" x2="47.945" y2="22.302" stroke="#8c8c8c" stroke-width="0.3" stroke-dasharray="1.2,0.8"/>
<line x1="44.984" y1="144.344" x2="32.573" y2="145.568" stroke="#8c8c8c" stroke-width="0.3" stroke-dasharray="1.2,0.8"/>
<line x1="38.007" y1="52.399" x2="54.612" y2="51.515" stroke="#141414" stroke-width="0.4"/>
<line x1="71.241" y1="51.515" x2="87.852" y2="52.3" stroke="#141414" stroke-width="0.4"/>
<line x1="64.472" y1="143.645" x2="44.984" y2="144.345" stroke="#141414" stroke-width="0.4"/>
<line x1="87.852" y1="52.3" x2="104.388" y2="54.052" stroke="#141414" stroke-width="0.4"/>
<line x1="104.388" y1="54.052" x2="120.823" y2="56.583" stroke="#141414" stroke-width="0.4"/>
<line x1="87.943" y1="144.982" x2="87.312" y2="162.107" stroke="#141414" stroke-width="0.4"/>
<line x1="20.229" y1="147.35" x2="5.0" y2="56.407" stroke="#141414" stroke-width="0.4"/>
<line x1="5.0" y1="56.407" x2="21.458" y2="54.031" stroke="#141414" stroke-width="0.4"/>
<line x1="87.312" y1="162.107" x2="76.337" y2="168.029" stroke="#141414" stroke-width="0.4"/>
<line x1="21.458" y1="54.031" x2="38.007" y2="52.399" stroke="#141414" stroke-width="0.4"/>
<line x1="76.337" y1="168.029" x2="64.863" y2="163.141" stroke="#141414" stroke-width="0.4"/>
<line x1="54.612" y1="51.515" x2="44.785" y2="50.419" stroke="#141414" stroke-width="0.4"/>
<line x1="44.785" y1="50.419" x2="43.126" y2="48.339" stroke="#141414" stroke-width="0.4"/>
<line x1="43.126" y1="48.339" x2="44.245" y2="38.514" stroke="#141414" stroke-width="0.4"/>
<line x1="71.241" y1="51.515" x2="81.069" y2="50.419" stroke="#141414" stroke-width="0.4"/>
<line x1="81.069" y1="50.419" x2="82.728" y2="48.339" stroke="#141414" stroke-width="0.4"/>
<line x1="82.728" y1="48.339" x2="81.609" y2="38.514" stroke="#141414" stroke-width="0.4"/>
<line x1="64.472" y1="143.645" x2="57.532" y2="146.709" stroke="#141414" stroke-width="0.4"/>
<line x1="57.532" y1="146.709" x2="57.806" y2="160.357" stroke="#141414" stroke-width="0.4"/>
<line x1="57.806" y1="160.357" x2="64.863" y2="163.141" stroke="#141414" stroke-width="0.4"/>
<line x1="81.609" y1="38.514" x2="87.879" y2="34.525" stroke="#141414" stroke-width="0.4"/>
<line x1="87.879" y1="34.525" x2="85.289" y2="23.176" stroke="#141414" stroke-width="0.4"/>
<line x1="85.289" y1="23.176" x2="77.909" y2="22.302" stroke="#141414" stroke-width="0.4"/>
<line x1="77.909" y1="22.302" x2="78.699" y2="14.913" stroke="#141414" stroke-width="0.4"/>
<line x1="78.699" y1="14.913" x2="68.211" y2="9.863" stroke="#141414" stroke-width="0.4"/>
<line x1="68.211" y1="9.863" x2="62.927" y2="15.087" stroke="#141414" stroke-width="0.4"/>
<line x1="87.943" y1="144.982" x2="89.496" y2="152.275" stroke="#141414" stroke-width="0.4"/>
<line x1="89.496" y1="152.275" x2="101.371" y2="153.974" stroke="#141414" stroke-width="0.4"/>
<line x1="101.371" y1="153.974" x2="104.907" y2="147.408" stroke="#141414" stroke-width="0.4"/>
<line x1="120.823" y1="56.583" x2="125.331" y2="71.415" stroke="#141414" stroke-width="0.4"/>
<line x1="125.331" y1="71.415" x2="114.189" y2="134.993" stroke="#141414" stroke-width="0.4"/>
<line x1="114.189" y1="134.993" x2="104.907" y2="147.408" stroke="#141414" stroke-width="0.4"/>
<line x1="62.927" y1="15.087" x2="57.642" y2="9.863" stroke="#141414" stroke-width="0.4"/>
<line x1="57.642" y1="9.863" x2="47.155" y2="14.913" stroke="#141414" stroke-width="0.4"/>
<line x1="47.155" y1="14.913" x2="47.945" y2="22.302" stroke="#141414" stroke-width="0.4"/>
<line x1="20.229" y1="147.35" x2="22.971" y2="153.255" stroke="#141414" stroke-width="0.4"/>
<line x1="22.971" y1="153.255" x2="31.612" y2="152.007" stroke="#141414" stroke-width="0.4"/>
<line x1="31.612" y1="152.007" x2="32.573" y2="145.568" stroke="#141414" stroke-width="0.4"/>
<line x1="47.945" y1="22.302" x2="40.565" y2="23.176" stroke="#141414" stroke-width="0.4"/>
<line x1="40.565" y1="23.176" x2="37.975" y2="34.525" stroke="#141414" stroke-width="0.4"/>
<line x1="37.975" y1="34.525" x2="44.245" y2="38.514" stroke="#141414" stroke-width="0.4"/>
<line x1="32.573" y1="145.568" x2="35.046" y2="151.59" stroke="#141414" stroke-width="0.4"/>
<line x1="35.046" y1="151.59" x2="43.734" y2="150.734" stroke="#141414" stroke-width="0.4"/>
<line x1="43.734" y1="150.734" x2="44.984" y2="144.344" stroke="#141414" stroke-width="0.4"/>
<circle cx="46.692" cy="47.197" r="2.69" fill="#ffe082" stroke="#464646" stroke-width="0.2"/>
<text x="46.692" y="48.12" font-size="2.64" text-anchor="middle" fill="#141414">92</text>
<circle cx="79.162" cy="47.197" r="2.69" fill="#ffe082" stroke="#464646" stroke-width="0.2"/>
<text x="79.162" y="48.12" font-size="2.64" text-anchor="middle" fill="#141414">93</text>
<circle cx="61.168" cy="153.463" r="2.69" fill="#ffe082" stroke="#464646" stroke-width="0.2"/>
<text x="61.168" y="154.39" font-size="2.64" text-anchor="middle" fill="#141414">94</text>
<circle cx="83.172" cy="29.629" r="2.69" fill="#ffe082" stroke="#464646" stroke-width="0.2"/>
<text x="83.172" y="30.55" font-size="2.64" text-anchor="middle" fill="#141414">95</text>
<circle cx="71.937" cy="15.541" r="2.69" fill="#ffe082" stroke="#464646" stroke-width="0.2"/>
<text x="71.937" y="16.46" font-size="2.64" text-anchor="middle" fill="#141414">96</text>
<circle cx="95.929" cy="149.66" r="2.69" fill="#ffe082" stroke="#464646" stroke-width="0.2"/>
<text x="95.929" y="150.58" font-size="2.64" text-anchor="middle" fill="#141414">97</text>
<circle cx="116.313" cy="102.6" r="2.69" fill="#ffe082" stroke="#464646" stroke-width="0.2"/>
<text x="116.313" y="103.52" font-size="2.64" text-anchor="middle" fill="#141414">98</text>
<circle cx="53.917" cy="15.541" r="2.69" fill="#99d9fa" stroke="#464646" stroke-width="0.2"/>
<text x="53.917" y="16.46" font-size="2.64" text-anchor="middle" fill="#141414">99</text>
<circle cx="26.846" cy="149.545" r="2.69" fill="#ffe082" stroke="#464646" stroke-width="0.2"/>
<text x="26.846" y="150.47" font-size="2.64" text-anchor="middle" fill="#141414">100</text>
<circle cx="42.682" cy="29.629" r="2.69" fill="#ffe082" stroke="#464646" stroke-width="0.2"/>
<text x="42.682" y="30.55" font-size="2.64" text-anchor="middle" fill="#141414">101</text>
<circle cx="39.084" cy="148.059" r="2.69" fill="#ffe082" stroke="#464646" stroke-width="0.2"/>
<text x="39.084" y="148.98" font-size="2.64" text-anchor="middle" fill="#141414">102</text>
<circle cx="80.089" cy="113.642" r="4.60" fill="#eaf1fe" stroke="#2e78e6" stroke-width="0.3"/>
<text x="80.089" y="115.44" font-size="5.20" text-anchor="middle" fill="#14306e" font-weight="bold">10</text>
<text x="205.0" y="295.0" font-size="3.2" text-anchor="end" fill="#737373" font-family="sans-serif">7 / 9</text>
</svg>
