<svg xmlns="http://www.w3.org/2000/svg" xmlns:xlink="http://www.w3.org/1999/xlink" width="210.00mm" height="297.00mm" viewBox="0 0 210.00 297.00">
<rect x="0" y="0" width="210.00" height="297.00" fill="#ffffff" stroke="#cccccc" stroke-width="0.2"/>
<polygon points="31.689,92.549 23.975,85.448 11.105,44.961 13.303,34.71" fill="rgb(216,216,216)"/>
<polygon points="13.303,34.71 20.239,26.52 61.204,10.991 71.825,12.525" fill="rgb(216,216,216)"/>
<polygon points="96.021,137.527 101.801,147.719 142.378,175.188 153.988,176.768" fill="rgb(216,216,216)"/>
<polygon points="108.581,40.82 106.239,32.456 80.511,12.649 71.825,12.525" fill="rgb(216,216,216)"/>
<polygon points="153.988,176.768 139.399,188.337 135.457,193.89 129.349,211.479" fill="rgb(216,216,216)"/>
<polygon points="132.729,136.071 144.307,139.39 182.237,173.031 186.914,184.13" fill="rgb(216,216,216)"/>
<polygon points="186.914,184.13 186.023,193.516 162.974,222.083 153.988,224.939" fill="rgb(216,216,216)"/>
<polygon points="129.349,211.479 130.552,218.061 147.799,227.483 153.988,224.939" fill="rgb(216,216,216)"/>
<line x1="31.689" y1="92.549" x2="108.581" y2="40.82" stroke="#8c8c8c" stroke-width="0.3" stroke-dasharray="1.2,0.8"/>
<line x1="96.021" y1="137.527" x2="132.729" y2="136.071" stroke="#8c8c8c" stroke-width="0.3" stroke-dasharray="1.2,0.8"/>
<line x1="153.988" y1="176.768" x2="186.914" y2="184.13" stroke="#8c8c8c" stroke-width="0.3" stroke-dasharray="1.2,0.8"/>
<line x1="153.988" y1="224.939" x2="153.988" y2="176.768" stroke="#8c8c8c" stroke-width="0.3" stroke-dasharray="1.2,0.8"/>
<line x1="108.581" y1="40.82" x2="96.021" y2="137.527" stroke="#8c8c8c" stroke-width="0.3" stroke-dasharray="1.2,0.8"/>
<line x1="132.729" y1="136.071" x2="153.988" y2="176.768" stroke="#8c8c8c" stroke-width="0.3" stroke-dasharray="1.2,0.8"/>
<line x1="13.303" y1="34.71" x2="31.689" y2="92.549" stroke="#8c8c8c" stroke-width="0.3" stroke-dasharray="1.2,0.8"/>
<line x1="71.825" y1="12.525" x2="13.303" y2="34.71" stroke="#8c8c8c" stroke-width="0.3" stroke-dasharray="1.2,0.8"/>
<line x1="153.988" y1="176.768" x2="96.021" y2="137.527" stroke="#8c8c8c" stroke-width="0.3" stroke-dasharray="1.2,0.8"/>
<line x1="71.825" y1="12.525" x2="108.581" y2="40.82" stroke="#8c8c8c" stroke-width="0.3" stroke-dasharray="1.2,0.8"/>
<line x1="129.349" y1="211.479" x2="153.988" y2="176.768" stroke="#8c8c8c" stroke-width="0.3" stroke-dasharray="1.2,0.8"/>
<line x1="186.914" y1="184.13" x2="132.729" y2="136.071" stroke="#8c8c8c" stroke-width="0.3" stroke-dasharray="1.2,0.8"/>
<line x1="153.988" y1="224.939" x2="186.914" y2="184.13" stroke="#8c8c8c" stroke-width="0.3" stroke-dasharray="1.2,0.8"/>
<line x1="153.988" y1="224.939" x2="129.349" y2="211.479" stroke="#8c8c8c" stroke-width="0.3" stroke-dasharray="1.2,0.8"/>
<line x1="96.021" y1="137.527" x2="31.689" y2="92.549" stroke="#141414" stroke-width="0.4"/>
<line x1="108.581" y1="40.82" x2="132.729" y2="136.071" stroke="#141414" stroke-width="0.4"/>
<line x1="31.689" y1="92.549" x2="23.975" y2="85.448" stroke="#141414" stroke-width="0.4"/>
<line x1="23.975" y1="85.448" x2="11.105" y2="44.961" stroke="#141414" stroke-width="0.4"/>
<line x1="11.105" y1="44.961" x2="13.303" y2="34.71" stroke="#141414" stroke-width="0.4"/>
<line x1="13.303" y1="34.71" x2="20.239" y2="26.52" stroke="#141414" stroke-width="0.4"/>
<line x1="20.239" y1="26.52" x2="61.204" y2="10.991" stroke="#141414" stroke-width="0.4"/>
<line x1="61.204" y1="10.991" x2="71.825" y2="12.525" stroke="#141414" stroke-width="0.4"/>
<line x1="96.021" y1="137.527" x2="101.801" y2="147.719" stroke="#141414" stroke-width="0.4"/>
<line x1="101.801" y1="147.719" x2="142.378" y2="175.188" stroke="#141414" stroke-width="0.4"/>
<line x1="142.378" y1="175.188" x2="153.988" y2="176.768" stroke="#141414" stroke-width="0.4"/>
<line x1="108.581" y1="40.82" x2="106.239" y2="32.456" stroke="#141414" stroke-width="0.4"/>
<line x1="106.239" y1="32.456" x2="80.511" y2="12.649" stroke="#141414" stroke-width="0.4"/>
<line x1="80.511" y1="12.649" x2="71.825" y2="12.525" stroke="#141414" stroke-width="0.4"/>
<line x1="153.988" y1="176.768" x2="139.399" y2="188.337" stroke="#141414" stroke-width="0.4"/>
<line x1="139.399" y1="188.337" x2="135.457" y2="193.89" stroke="#141414" stroke-width="0.4"/>
<line x1="135.457" y1="193.89" x2="129.349" y2="211.479" stroke="#141414" stroke-width="0.4"/>
<line x1="132.729" y1="136.071" x2="144.307" y2="139.39" stroke="#141414" stroke-width="0.4"/>
<line x1="144.307" y1="139.39" x2="182.237" y2="173.031" stroke="#141414" stroke-width="0.4"/>
<line x1="182.237" y1="173.031" x2="186.914" y2="184.13" stroke="#141414" stroke-width="0.4"/>
<line x1="186.914" y1="184.13" x2="186.023" y2="193.516" stroke="#141414" stroke-width="0.4"/>
<line x1="186.023" y1="193.516" x2="162.974" y2="222.083" stroke="#141414" stroke-width="0.4"/>
<line x1="162.974" y1="222.083" x2="153.988" y2="224.939" stroke="#141414" stroke-width="0.4"/>
<line x1="129.349" y1="211.479" x2="130.552" y2="218.061" stroke="#141414" stroke-width="0.4"/>
<line x1="130.552" y1="218.061" x2="147.799" y2="227.483" stroke="#141414" stroke-width="0.4"/>
<line x1="147.799" y1="227.483" x2="153.988" y2="224.939" stroke="#141414" stroke-width="0.4"/>
<circle cx="20.018" cy="64.417" r="2.29" fill="#ffe082" stroke="#464646" stroke-width="0.2"/>
<text x="20.018" y="65.20" font-size="2.24" text-anchor="middle" fill="#141414">36</text>
<circle cx="41.643" cy="21.187" r="2.29" fill="#ffe082" stroke="#464646" stroke-width="0.2"/>
<text x="41.643" y="21.97" font-size="2.24" text-anchor="middle" fill="#141414">44</text>
<circle cx="123.547" cy="159.3" r="2.29" fill="#ffe082" stroke="#464646" stroke-width="0.2"/>
<text x="123.547" y="160.08" font-size="2.24" text-anchor="middle" fill="#141414">51</text>
<circle cx="91.789" cy="24.613" r="2.29" fill="#ffe082" stroke="#464646" stroke-width="0.2"/>
<text x="91.789" y="25.40" font-size="2.24" text-anchor="middle" fill="#141414">54</text>
<circle cx="139.548" cy="192.619" r="2.29" fill="#ffe082" stroke="#464646" stroke-width="0.2"/>
<text x="139.548" y="193.40" font-size="2.24" text-anchor="middle" fill="#141414">60</text>
<circle cx="161.547" cy="158.155" r="2.29" fill="#ffe082" stroke="#464646" stroke-width="0.2"/>
<text x="161.547" y="158.94" font-size="2.24" text-anchor="middle" fill="#141414">66</text>
<circle cx="172.475" cy="206.167" r="2.29" fill="#ffe082" stroke="#464646" stroke-width="0.2"/>
<text x="172.475" y="206.95" font-size="2.24" text-anchor="middle" fill="#141414">69</text>
<circle cx="140.422" cy="220.491" r="2.29" fill="#ffe082" stroke="#464646" stroke-width="0.2"/>
<text x="140.422" y="221.28" font-size="2.24" text-anchor="middle" fill="#141414">85</text>
<circle cx="78.764" cy="90.299" r="4.60" fill="#eaf1fe" stroke="#2e78e6" stroke-width="0.3"/>
<text x="78.764" y="92.10" font-size="5.20" text-anchor="middle" fill="#14306e" font-weight="bold">20</text>
<text x="205.0" y="295.0" font-size="3.2" text-anchor="end" fill="#737373" font-family="sans-serif">15 / 20</text>
</svg>
