<svg xmlns="http://www.w3.org/2000/svg" xmlns:xlink="http://www.w3.org/1999/xlink" width="210.00mm" height="297.00mm" viewBox="0 0 210.00 297.00">
<rect x="0" y="0" width="210.00" height="297.00" fill="#ffffff" stroke="#cccccc" stroke-width="0.2"/>
<polygon points="16.607,106.126 11.407,120.865 11.407,189.651 16.607,204.39" fill="rgb(216,216,216)"/>
<polygon points="16.607,204.39 26.801,207.32 68.781,197.38 76.579,190.19" fill="rgb(216,216,216)"/>
<polygon points="54.938,47.566 54.02,39.419 70.104,14.591 77.914,12.098" fill="rgb(216,216,216)"/>
<polygon points="61.153,122.966 70.897,124.271 106.38,108.246 111.843,100.073" fill="rgb(216,216,216)"/>
<polygon points="77.914,12.098 89.271,10.965 133.409,28.27 140.97,36.819" fill="rgb(216,216,216)"/>
<polygon points="170.76,154.19 171.331,135.305 150.478,53.145 140.97,36.819" fill="rgb(216,216,216)"/>
<line x1="16.607" y1="106.126" x2="54.938" y2="47.566" stroke="#8c8c8c" stroke-width="0.3" stroke-dasharray="1.2,0.8"/>
<line x1="16.607" y1="106.126" x2="76.579" y2="190.19" stroke="#8c8c8c" stroke-width="0.3" stroke-dasharray="1.2,0.8"/>
<line x1="61.153" y1="122.966" x2="16.607" y2="106.126" stroke="#8c8c8c" stroke-width="0.3" stroke-dasharray="1.2,0.8"/>
<line x1="54.938" y1="47.566" x2="111.843" y2="100.073" stroke="#8c8c8c" stroke-width="0.3" stroke-dasharray="1.2,0.8"/>
<line x1="77.914" y1="12.098" x2="111.843" y2="100.073" stroke="#8c8c8c" stroke-width="0.3" stroke-dasharray="1.2,0.8"/>
<line x1="140.97" y1="36.819" x2="111.843" y2="100.073" stroke="#8c8c8c" stroke-width="0.3" stroke-dasharray="1.2,0.8"/>
<line x1="54.938" y1="47.566" x2="61.153" y2="122.966" stroke="#8c8c8c" stroke-width="0.3" stroke-dasharray="1.2,0.8"/>
<line x1="16.607" y1="204.39" x2="16.607" y2="106.126" stroke="#8c8c8c" stroke-width="0.3" stroke-dasharray="1.2,0.8"/>
<line x1="76.579" y1="190.19" x2="16.607" y2="204.39" stroke="#8c8c8c" stroke-width="0.3" stroke-dasharray="1.2,0.8"/>
<line x1="77.914" y1="12.098" x2="54.938" y2="47.566" stroke="#8c8c8c" stroke-width="0.3" stroke-dasharray="1.2,0.8"/>
<line x1="111.843" y1="100.073" x2="61.153" y2="122.966" stroke="#8c8c8c" stroke-width="0.3" stroke-dasharray="1.2,0.8"/>
<line x1="140.97" y1="36.819" x2="77.914" y2="12.098" stroke="#8c8c8c" stroke-width="0.3" stroke-dasharray="1.2,0.8"/>
<line x1="140.97" y1="36.819" x2="170.76" y2="154.19" stroke="#8c8c8c" stroke-width="0.3" stroke-dasharray="1.2,0.8"/>
<line x1="16.607" y1="106.126" x2="6.965" y2="60.754" stroke="#141414" stroke-width="0.4"/>
<line x1="6.965" y1="60.754" x2="54.938" y2="47.566" stroke="#141414" stroke-width="0.4"/>
<line x1="61.153" y1="122.966" x2="76.579" y2="190.19" stroke="#141414" stroke-width="0.4"/>
<line x1="170.76" y1="154.19" x2="111.843" y2="100.073" stroke="#141414" stroke-width="0.4"/>
<line x1="16.607" y1="106.126" x2="11.407" y2="120.865" stroke="#141414" stroke-width="0.4"/>
<line x1="11.407" y1="120.865" x2="11.407" y2="189.651" stroke="#141414" stroke-width="0.4"/>
<line x1="11.407" y1="189.651" x2="16.607" y2="204.39" stroke="#141414" stroke-width="0.4"/>
<line x1="16.607" y1="204.39" x2="26.801" y2="207.32" stroke="#141414" stroke-width="0.4"/>
<line x1="26.801" y1="207.32" x2="68.781" y2="197.38" stroke="#141414" stroke-width="0.4"/>
<line x1="68.781" y1="197.38" x2="76.579" y2="190.19" stroke="#141414" stroke-width="0.4"/>
<line x1="54.938" y1="47.566" x2="54.02" y2="39.419" stroke="#141414" stroke-width="0.4"/>
<line x1="54.02" y1="39.419" x2="70.104" y2="14.591" stroke="#141414" stroke-width="0.4"/>
<line x1="70.104" y1="14.591" x2="77.914" y2="12.098" stroke="#141414" stroke-width="0.4"/>
<line x1="61.153" y1="122.966" x2="70.897" y2="124.271" stroke="#141414" stroke-width="0.4"/>
<line x1="70.897" y1="124.271" x2="106.38" y2="108.246" stroke="#141414" stroke-width="0.4"/>
<line x1="106.38" y1="108.246" x2="111.843" y2="100.073" stroke="#141414" stroke-width="0.4"/>
<line x1="77.914" y1="12.098" x2="89.271" y2="10.965" stroke="#141414" stroke-width="0.4"/>
<line x1="89.271" y1="10.965" x2="133.409" y2="28.27" stroke="#141414" stroke-width="0.4"/>
<line x1="133.409" y1="28.27" x2="140.97" y2="36.819" stroke="#141414" stroke-width="0.4"/>
<line x1="170.76" y1="154.19" x2="171.331" y2="135.305" stroke="#141414" stroke-width="0.4"/>
<line x1="171.331" y1="135.305" x2="150.478" y2="53.145" stroke="#141414" stroke-width="0.4"/>
<line x1="150.478" y1="53.145" x2="140.97" y2="36.819" stroke="#141414" stroke-width="0.4"/>
<circle cx="14.007" cy="155.258" r="2.29" fill="#ffe082" stroke="#464646" stroke-width="0.2"/>
<text x="14.007" y="156.04" font-size="2.24" text-anchor="middle" fill="#141414">53</text>
<circle cx="47.192" cy="199.82" r="2.29" fill="#ffe082" stroke="#464646" stroke-width="0.2"/>
<text x="47.192" y="200.60" font-size="2.24" text-anchor="middle" fill="#141414">67</text>
<circle cx="64.244" cy="28.418" r="2.29" fill="#ffe082" stroke="#464646" stroke-width="0.2"/>
<text x="64.244" y="29.20" font-size="2.24" text-anchor="middle" fill="#141414">91</text>
<circle cx="87.568" cy="113.889" r="2.29" fill="#ffe082" stroke="#464646" stroke-width="0.2"/>
<text x="87.568" y="114.67" font-size="2.24" text-anchor="middle" fill="#141414">105</text>
<circle cx="110.391" cy="22.038" r="2.29" fill="#ffe082" stroke="#464646" stroke-width="0.2"/>
<text x="110.391" y="22.82" font-size="2.24" text-anchor="middle" fill="#141414">110</text>
<circle cx="158.385" cy="94.865" r="2.29" fill="#ffe082" stroke="#464646" stroke-width="0.2"/>
<text x="158.385" y="95.65" font-size="2.24" text-anchor="middle" fill="#141414">117</text>
<circle cx="36.597" cy="166.902" r="4.60" fill="#eaf1fe" stroke="#2e78e6" stroke-width="0.3"/>
<text x="36.597" y="168.70" font-size="5.20" text-anchor="middle" fill="#14306e" font-weight="bold">24</text>
<text x="205.0" y="295.0" font-size="3.2" text-anchor="end" fill="#737373" font-family="sans-serif">17 / 20</text>
</svg>
