<svg xmlns="http://www.w3.org/2000/svg" xmlns:xlink="http://www.w3.org/1999/xlink" width="210.00mm" height="297.00mm" viewBox="0 0 210.00 297.00">
<rect x="0" y="0" width="210.00" height="297.00" fill="#ffffff" stroke="#cccccc" stroke-width="0.2"/>
<polygon points="71.962,53.543 65.736,42.853 62.229,40.404 50.048,38.241" fill="rgb(216,216,216)"/>
<polygon points="145.32,53.543 147.113,44.657 133.243,12.906 125.506,8.184" fill="rgb(216,216,216)"/>
<polygon points="145.32,53.543 155.193,61.156 179.782,107.968 180.448,120.418" fill="rgb(216,216,216)"/>
<polygon points="104.224,116.782 92.882,121.754 40.444,120.693 29.313,115.266" fill="rgb(216,216,216)"/>
<polygon points="104.224,116.782 115.409,122.522 168.767,125.067 180.448,120.418" fill="rgb(216,216,216)"/>
<polygon points="71.962,53.543 65.736,42.853 62.229,40.404 50.048,38.241" fill="#99d9fa"/>
<line x1="71.963" y1="53.543" x2="145.32" y2="53.543" stroke="#8c8c8c" stroke-width="0.3" stroke-dasharray="1.2,0.8"/>
<line x1="104.223" y1="116.783" x2="71.963" y2="53.543" stroke="#8c8c8c" stroke-width="0.3" stroke-dasharray="1.2,0.8"/>
<line x1="29.313" y1="115.266" x2="71.963" y2="53.543" stroke="#8c8c8c" stroke-width="0.3" stroke-dasharray="1.2,0.8"/>
<line x1="145.32" y1="53.543" x2="104.223" y2="116.783" stroke="#8c8c8c" stroke-width="0.3" stroke-dasharray="1.2,0.8"/>
<line x1="29.313" y1="115.266" x2="50.048" y2="38.241" stroke="#8c8c8c" stroke-width="0.3" stroke-dasharray="1.2,0.8"/>
<line x1="50.048" y1="38.241" x2="5.0" y2="73.832" stroke="#8c8c8c" stroke-width="0.3" stroke-dasharray="1.2,0.8"/>
<line x1="50.048" y1="38.241" x2="71.962" y2="53.543" stroke="#8c8c8c" stroke-width="0.3" stroke-dasharray="1.2,0.8"/>
<line x1="125.506" y1="8.184" x2="145.32" y2="53.543" stroke="#8c8c8c" stroke-width="0.3" stroke-dasharray="1.2,0.8"/>
<line x1="180.448" y1="120.418" x2="145.32" y2="53.543" stroke="#8c8c8c" stroke-width="0.3" stroke-dasharray="1.2,0.8"/>
<line x1="29.313" y1="115.266" x2="104.224" y2="116.782" stroke="#8c8c8c" stroke-width="0.3" stroke-dasharray="1.2,0.8"/>
<line x1="180.448" y1="120.418" x2="104.224" y2="116.782" stroke="#8c8c8c" stroke-width="0.3" stroke-dasharray="1.2,0.8"/>
<line x1="5.0" y1="73.832" x2="67.62" y2="5.0" stroke="#141414" stroke-width="0.4"/>
<line x1="67.62" y1="5.0" x2="50.048" y2="38.241" stroke="#141414" stroke-width="0.4"/>
<line x1="29.313" y1="115.266" x2="5.0" y2="73.832" stroke="#141414" stroke-width="0.4"/>
<line x1="71.963" y1="53.543" x2="67.021" y2="27.276" stroke="#141414" stroke-width="0.4"/>
<line x1="67.021" y1="27.276" x2="125.505" y2="8.184" stroke="#141414" stroke-width="0.4"/>
<line x1="71.962" y1="53.543" x2="65.736" y2="42.853" stroke="#141414" stroke-width="0.4"/>
<line x1="65.736" y1="42.853" x2="62.229" y2="40.404" stroke="#141414" stroke-width="0.4"/>
<line x1="62.229" y1="40.404" x2="50.048" y2="38.241" stroke="#141414" stroke-width="0.4"/>
<line x1="145.32" y1="53.543" x2="147.113" y2="44.657" stroke="#141414" stroke-width="0.4"/>
<line x1="147.113" y1="44.657" x2="133.243" y2="12.906" stroke="#141414" stroke-width="0.4"/>
<line x1="133.243" y1="12.906" x2="125.506" y2="8.184" stroke="#141414" stroke-width="0.4"/>
<line x1="145.32" y1="53.543" x2="155.193" y2="61.156" stroke="#141414" stroke-width="0.4"/>
<line x1="155.193" y1="61.156" x2="179.782" y2="107.968" stroke="#141414" stroke-width="0.4"/>
<line x1="179.782" y1="107.968" x2="180.448" y2="120.418" stroke="#141414" stroke-width="0.4"/>
<line x1="104.224" y1="116.782" x2="92.882" y2="121.754" stroke="#141414" stroke-width="0.4"/>
<line x1="92.882" y1="121.754" x2="40.444" y2="120.693" stroke="#141414" stroke-width="0.4"/>
<line x1="40.444" y1="120.693" x2="29.313" y2="115.266" stroke="#141414" stroke-width="0.4"/>
<line x1="104.224" y1="116.782" x2="115.409" y2="122.522" stroke="#141414" stroke-width="0.4"/>
<line x1="115.409" y1="122.522" x2="168.767" y2="125.067" stroke="#141414" stroke-width="0.4"/>
<line x1="168.767" y1="125.067" x2="180.448" y2="120.418" stroke="#141414" stroke-width="0.4"/>
<circle cx="62.494" cy="43.76" r="2.29" fill="#99d9fa" stroke="#464646" stroke-width="0.2"/>
<text x="62.494" y="44.54" font-size="2.24" text-anchor="middle" fill="#141414">32</text>
<circle cx="137.795" cy="29.822" r="2.29" fill="#ffe082" stroke="#464646" stroke-width="0.2"/>
<text x="137.795" y="30.61" font-size="2.24" text-anchor="middle" fill="#141414">40</text>
<circle cx="165.186" cy="85.771" r="2.29" fill="#ffe082" stroke="#464646" stroke-width="0.2"/>
<text x="165.186" y="86.56" font-size="2.24" text-anchor="middle" fill="#141414">41</text>
<circle cx="66.716" cy="118.624" r="2.29" fill="#ffe082" stroke="#464646" stroke-width="0.2"/>
<text x="66.716" y="119.41" font-size="2.24" text-anchor="middle" fill="#141414">48</text>
<circle cx="142.212" cy="121.197" r="2.29" fill="#ffe082" stroke="#464646" stroke-width="0.2"/>
<text x="142.212" y="121.98" font-size="2.24" text-anchor="middle" fill="#141414">50</text>
<circle cx="88.163" cy="29.668" r="4.60" fill="#eaf1fe" stroke="#2e78e6" stroke-width="0.3"/>
<text x="88.163" y="31.47" font-size="5.20" text-anchor="middle" fill="#14306e" font-weight="bold">13</text>
<polygon points="5.0,186.193 9.811,180.466 34.766,177.881 40.649,182.499" fill="rgb(216,216,216)"/>
<polygon points="93.409,128.067 100.22,135.454 108.224,174.773 104.843,184.235" fill="rgb(216,216,216)"/>
<polygon points="53.308,222.135 60.723,222.35 78.821,205.561 79.163,198.151" fill="rgb(216,216,216)"/>
<polygon points="40.649,182.499 43.35,174.182 70.054,155.121 78.798,155.268" fill="rgb(216,216,216)"/>
<polygon points="141.202,184.235 144.76,195.827 137.354,246.405 130.622,256.49" fill="rgb(216,216,216)"/>
<line x1="40.649" y1="182.499" x2="53.308" y2="222.135" stroke="#8c8c8c" stroke-width="0.3" stroke-dasharray="1.2,0.8"/>
<line x1="79.163" y1="198.151" x2="40.649" y2="182.499" stroke="#8c8c8c" stroke-width="0.3" stroke-dasharray="1.2,0.8"/>
<line x1="104.843" y1="184.235" x2="78.798" y2="155.268" stroke="#8c8c8c" stroke-width="0.3" stroke-dasharray="1.2,0.8"/>
<line x1="78.798" y1="155.268" x2="79.163" y2="198.151" stroke="#8c8c8c" stroke-width="0.3" stroke-dasharray="1.2,0.8"/>
<line x1="130.622" y1="256.49" x2="104.843" y2="184.235" stroke="#8c8c8c" stroke-width="0.3" stroke-dasharray="1.2,0.8"/>
<line x1="104.843" y1="184.235" x2="107.218" y2="265.991" stroke="#8c8c8c" stroke-width="0.3" stroke-dasharray="1.2,0.8"/>
<line x1="79.163" y1="198.151" x2="104.843" y2="184.235" stroke="#8c8c8c" stroke-width="0.3" stroke-dasharray="1.2,0.8"/>
<line x1="40.649" y1="182.499" x2="5.0" y2="186.193" stroke="#8c8c8c" stroke-width="0.3" stroke-dasharray="1.2,0.8"/>
<line x1="104.843" y1="184.235" x2="93.409" y2="128.067" stroke="#8c8c8c" stroke-width="0.3" stroke-dasharray="1.2,0.8"/>
<line x1="79.163" y1="198.151" x2="53.308" y2="222.135" stroke="#8c8c8c" stroke-width="0.3" stroke-dasharray="1.2,0.8"/>
<line x1="78.798" y1="155.268" x2="40.649" y2="182.499" stroke="#8c8c8c" stroke-width="0.3" stroke-dasharray="1.2,0.8"/>
<line x1="130.622" y1="256.49" x2="141.202" y2="184.235" stroke="#8c8c8c" stroke-width="0.3" stroke-dasharray="1.2,0.8"/>
<line x1="53.308" y1="222.135" x2="5.0" y2="186.193" stroke="#141414" stroke-width="0.4"/>
<line x1="78.798" y1="155.268" x2="93.409" y2="128.067" stroke="#141414" stroke-width="0.4"/>
<line x1="104.843" y1="184.235" x2="141.202" y2="184.235" stroke="#141414" stroke-width="0.4"/>
<line x1="107.218" y1="265.991" x2="79.163" y2="198.151" stroke="#141414" stroke-width="0.4"/>
<line x1="130.622" y1="256.49" x2="107.218" y2="265.991" stroke="#141414" stroke-width="0.4"/>
<line x1="5.0" y1="186.193" x2="9.811" y2="180.466" stroke="#141414" stroke-width="0.4"/>
<line x1="9.811" y1="180.466" x2="34.766" y2="177.881" stroke="#141414" stroke-width="0.4"/>
<line x1="34.766" y1="177.881" x2="40.649" y2="182.499" stroke="#141414" stroke-width="0.4"/>
<line x1="93.409" y1="128.067" x2="100.22" y2="135.454" stroke="#141414" stroke-width="0.4"/>
<line x1="100.22" y1="135.454" x2="108.224" y2="174.773" stroke="#141414" stroke-width="0.4"/>
<line x1="108.224" y1="174.773" x2="104.843" y2="184.235" stroke="#141414" stroke-width="0.4"/>
<line x1="53.308" y1="222.135" x2="60.723" y2="222.35" stroke="#141414" stroke-width="0.4"/>
<line x1="60.723" y1="222.35" x2="78.821" y2="205.561" stroke="#141414" stroke-width="0.4"/>
<line x1="78.821" y1="205.561" x2="79.163" y2="198.151" stroke="#141414" stroke-width="0.4"/>
<line x1="40.649" y1="182.499" x2="43.35" y2="174.182" stroke="#141414" stroke-width="0.4"/>
<line x1="43.35" y1="174.182" x2="70.054" y2="155.121" stroke="#141414" stroke-width="0.4"/>
<line x1="70.054" y1="155.121" x2="78.798" y2="155.268" stroke="#141414" stroke-width="0.4"/>
<line x1="141.202" y1="184.235" x2="144.76" y2="195.827" stroke="#141414" stroke-width="0.4"/>
<line x1="144.76" y1="195.827" x2="137.354" y2="246.405" stroke="#141414" stroke-width="0.4"/>
<line x1="137.354" y1="246.405" x2="130.622" y2="256.49" stroke="#141414" stroke-width="0.4"/>
<circle cx="22.556" cy="181.76" r="2.29" fill="#ffe082" stroke="#464646" stroke-width="0.2"/>
<text x="22.556" y="182.54" font-size="2.24" text-anchor="middle" fill="#141414">58</text>
<circle cx="101.674" cy="155.632" r="2.29" fill="#ffe082" stroke="#464646" stroke-width="0.2"/>
<text x="101.674" y="156.42" font-size="2.24" text-anchor="middle" fill="#141414">73</text>
<circle cx="68.004" cy="212.049" r="2.29" fill="#ffe082" stroke="#464646" stroke-width="0.2"/>
<text x="68.004" y="212.83" font-size="2.24" text-anchor="middle" fill="#141414">82</text>
<circle cx="58.213" cy="166.768" r="2.29" fill="#ffe082" stroke="#464646" stroke-width="0.2"/>
<text x="58.213" y="167.55" font-size="2.24" text-anchor="middle" fill="#141414">88</text>
<circle cx="138.485" cy="220.739" r="2.29" fill="#ffe082" stroke="#464646" stroke-width="0.2"/>
<text x="138.485" y="221.52" font-size="2.24" text-anchor="middle" fill="#141414">102</text>
<circle cx="66.203" cy="178.64" r="4.60" fill="#eaf1fe" stroke="#2e78e6" stroke-width="0.3"/>
<text x="66.203" y="180.44" font-size="5.20" text-anchor="middle" fill="#14306e" font-weight="bold">14</text>
<text x="205.0" y="295.0" font-size="3.2" text-anchor="end" fill="#737373" font-family="sans-serif">10 / 20</text>
</svg>
