<svg xmlns="http://www.w3.org/2000/svg" xmlns:xlink="http://www.w3.org/1999/xlink" width="210.00mm" height="297.00mm" viewBox="0 0 210.00 297.00">
<rect x="0" y="0" width="210.00" height="297.00" fill="#ffffff" stroke="#cccccc" stroke-width="0.2"/>
<polygon points="162.622,126.742 148.026,117.929 75.996,109.236 59.723,114.323" fill="rgb(216,216,216)"/>
<line x1="58.224" y1="126.742" x2="59.723" y2="114.323" stroke="#8c8c8c" stroke-width="0.3" stroke-dasharray="1.2,0.8"/>
<line x1="6.499" y1="107.899" x2="59.723" y2="114.323" stroke="#8c8c8c" stroke-width="0.3" stroke-dasharray="1.2,0.8"/>
<line x1="59.723" y1="114.323" x2="162.622" y2="126.742" stroke="#8c8c8c" stroke-width="0.3" stroke-dasharray="1.2,0.8"/>
<line x1="161.123" y1="139.161" x2="58.224" y2="126.742" stroke="#141414" stroke-width="0.4"/>
<line x1="162.622" y1="126.742" x2="161.123" y2="139.161" stroke="#141414" stroke-width="0.4"/>
<line x1="58.224" y1="126.742" x2="5.0" y2="120.318" stroke="#141414" stroke-width="0.4"/>
<line x1="5.0" y1="120.318" x2="6.499" y2="107.899" stroke="#141414" stroke-width="0.4"/>
<line x1="18.918" y1="5.0" x2="72.141" y2="11.424" stroke="#141414" stroke-width="0.4"/>
<line x1="72.141" y1="11.424" x2="59.723" y2="114.323" stroke="#141414" stroke-width="0.4"/>
<line x1="6.499" y1="107.899" x2="18.918" y2="5.0" stroke="#141414" stroke-width="0.4"/>
<line x1="162.622" y1="126.742" x2="148.026" y2="117.929" stroke="#141414" stroke-width="0.4"/>
<line x1="148.026" y1="117.929" x2="75.996" y2="109.236" stroke="#141414" stroke-width="0.4"/>
<line x1="75.996" y1="109.236" x2="59.723" y2="114.323" stroke="#141414" stroke-width="0.4"/>
<circle cx="111.592" cy="117.058" r="1.97" fill="#ffe082" stroke="#464646" stroke-width="0.2"/>
<text x="111.592" y="117.99" font-size="2.67" text-anchor="middle" fill="#141414">30</text>
<circle cx="83.811" cy="145.261" r="4.6" fill="#eaf1fe" stroke="#2e78e6" stroke-width="0.3"/>
<text x="83.811" y="147.061" font-size="5.2" text-anchor="middle" fill="#14306e" font-weight="bold">6</text>
</svg>
