<svg xmlns="http://www.w3.org/2000/svg" xmlns:xlink="http://www.w3.org/1999/xlink" width="210.00mm" height="297.00mm" viewBox="0 0 210.00 297.00">
<rect x="0" y="0" width="210.00" height="297.00" fill="#ffffff" stroke="#cccccc" stroke-width="0.2"/>
<polygon points="24.055,168.802 39.602,175.802 112.154,175.802 127.701,168.802" fill="rgb(216,216,216)"/>
<polygon points="24.055,168.802 22.179,175.057 13.423,175.057 11.546,168.802" fill="rgb(216,216,216)"/>
<polygon points="24.055,115.192 39.602,108.192 112.154,108.192 127.701,115.192" fill="rgb(216,216,216)"/>
<polygon points="127.701,168.802 134.701,160.761 134.701,123.234 127.701,115.192" fill="rgb(216,216,216)"/>
<polygon points="24.055,11.546 22.179,5.292 13.423,5.292 11.546,11.546" fill="rgb(216,216,216)"/>
<polygon points="11.546,168.802 4.546,160.761 4.546,123.234 11.546,115.192" fill="rgb(216,216,216)"/>
<polygon points="11.546,115.192 4.546,99.645 4.546,27.093 11.546,11.546" fill="rgb(216,216,216)"/>
<line x1="24.055" y1="168.802" x2="24.055" y2="115.192" stroke="#8c8c8c" stroke-width="0.3" stroke-dasharray="1.2,0.8"/>
<line x1="11.546" y1="115.192" x2="24.055" y2="115.192" stroke="#8c8c8c" stroke-width="0.3" stroke-dasharray="1.2,0.8"/>
<line x1="127.701" y1="168.802" x2="24.055" y2="168.802" stroke="#8c8c8c" stroke-width="0.3" stroke-dasharray="1.2,0.8"/>
<line x1="11.546" y1="168.802" x2="24.055" y2="168.802" stroke="#8c8c8c" stroke-width="0.3" stroke-dasharray="1.2,0.8"/>
<line x1="127.701" y1="115.192" x2="24.055" y2="115.192" stroke="#8c8c8c" stroke-width="0.3" stroke-dasharray="1.2,0.8"/>
<line x1="127.701" y1="115.192" x2="127.701" y2="168.802" stroke="#8c8c8c" stroke-width="0.3" stroke-dasharray="1.2,0.8"/>
<line x1="11.546" y1="11.546" x2="24.055" y2="11.546" stroke="#8c8c8c" stroke-width="0.3" stroke-dasharray="1.2,0.8"/>
<line x1="11.546" y1="115.192" x2="11.546" y2="168.802" stroke="#8c8c8c" stroke-width="0.3" stroke-dasharray="1.2,0.8"/>
<line x1="11.546" y1="11.546" x2="11.546" y2="115.192" stroke="#8c8c8c" stroke-width="0.3" stroke-dasharray="1.2,0.8"/>
<line x1="24.055" y1="11.546" x2="24.055" y2="115.192" stroke="#141414" stroke-width="0.4"/>
<line x1="24.055" y1="168.802" x2="39.602" y2="175.802" stroke="#141414" stroke-width="0.4"/>
<line x1="39.602" y1="175.802" x2="112.154" y2="175.802" stroke="#141414" stroke-width="0.4"/>
<line x1="112.154" y1="175.802" x2="127.701" y2="168.802" stroke="#141414" stroke-width="0.4"/>
<line x1="24.055" y1="168.802" x2="22.179" y2="175.057" stroke="#141414" stroke-width="0.4"/>
<line x1="22.179" y1="175.057" x2="13.423" y2="175.057" stroke="#141414" stroke-width="0.4"/>
<line x1="13.423" y1="175.057" x2="11.546" y2="168.802" stroke="#141414" stroke-width="0.4"/>
<line x1="24.055" y1="115.192" x2="39.602" y2="108.192" stroke="#141414" stroke-width="0.4"/>
<line x1="39.602" y1="108.192" x2="112.154" y2="108.192" stroke="#141414" stroke-width="0.4"/>
<line x1="112.154" y1="108.192" x2="127.701" y2="115.192" stroke="#141414" stroke-width="0.4"/>
<line x1="127.701" y1="168.802" x2="134.701" y2="160.761" stroke="#141414" stroke-width="0.4"/>
<line x1="134.701" y1="160.761" x2="134.701" y2="123.234" stroke="#141414" stroke-width="0.4"/>
<line x1="134.701" y1="123.234" x2="127.701" y2="115.192" stroke="#141414" stroke-width="0.4"/>
<line x1="24.055" y1="11.546" x2="22.179" y2="5.292" stroke="#141414" stroke-width="0.4"/>
<line x1="22.179" y1="5.292" x2="13.423" y2="5.292" stroke="#141414" stroke-width="0.4"/>
<line x1="13.423" y1="5.292" x2="11.546" y2="11.546" stroke="#141414" stroke-width="0.4"/>
<line x1="11.546" y1="168.802" x2="4.546" y2="160.761" stroke="#141414" stroke-width="0.4"/>
<line x1="4.546" y1="160.761" x2="4.546" y2="123.234" stroke="#141414" stroke-width="0.4"/>
<line x1="4.546" y1="123.234" x2="11.546" y2="115.192" stroke="#141414" stroke-width="0.4"/>
<line x1="11.546" y1="115.192" x2="4.546" y2="99.645" stroke="#141414" stroke-width="0.4"/>
<line x1="4.546" y1="99.645" x2="4.546" y2="27.093" stroke="#141414" stroke-width="0.4"/>
<line x1="4.546" y1="27.093" x2="11.546" y2="11.546" stroke="#141414" stroke-width="0.4"/>
<circle cx="75.878" cy="172.302" r="1.97" fill="#ffe082" stroke="#464646" stroke-width="0.2"/>
<text x="75.878" y="173.24" font-size="2.67" text-anchor="middle" fill="#141414">23</text>
<circle cx="17.801" cy="171.93" r="1.97" fill="#ffe082" stroke="#464646" stroke-width="0.2"/>
<text x="17.801" y="172.86" font-size="2.67" text-anchor="middle" fill="#141414">24</text>
<circle cx="75.878" cy="111.692" r="1.97" fill="#ffe082" stroke="#464646" stroke-width="0.2"/>
<text x="75.878" y="112.63" font-size="2.67" text-anchor="middle" fill="#141414">25</text>
<circle cx="131.201" cy="141.997" r="1.97" fill="#ffe082" stroke="#464646" stroke-width="0.2"/>
<text x="131.201" y="142.93" font-size="2.67" text-anchor="middle" fill="#141414">26</text>
<circle cx="17.801" cy="8.419" r="1.97" fill="#ffe082" stroke="#464646" stroke-width="0.2"/>
<text x="17.801" y="9.35" font-size="2.67" text-anchor="middle" fill="#141414">27</text>
<circle cx="8.046" cy="141.997" r="1.97" fill="#ffe082" stroke="#464646" stroke-width="0.2"/>
<text x="8.046" y="142.93" font-size="2.67" text-anchor="middle" fill="#141414">28</text>
<circle cx="8.046" cy="63.369" r="1.97" fill="#ffe082" stroke="#464646" stroke-width="0.2"/>
<text x="8.046" y="64.30" font-size="2.67" text-anchor="middle" fill="#141414">29</text>
<circle cx="70.078" cy="181.61" r="4.6" fill="#eaf1fe" stroke="#2e78e6" stroke-width="0.3"/>
<text x="70.078" y="183.41000000000003" font-size="5.2" text-anchor="middle" fill="#14306e" font-weight="bold">5</text>
</svg>
