<svg xmlns="http://www.w3.org/2000/svg" xmlns:xlink="http://www.w3.org/1999/xlink" width="210.00mm" height="297.00mm" viewBox="0 0 210.00 297.00">
<rect x="0" y="0" width="210.00" height="297.00" fill="#ffffff" stroke="#cccccc" stroke-width="0.2"/>
<polygon points="59.907,60.346 57.221,55.796 57.652,54.575 62.597,52.715" fill="rgb(216,216,216)"/>
<polygon points="57.309,61.262 53.897,63.752 55.781,69.094 60.0,68.893" fill="rgb(216,216,216)"/>
<polygon points="57.309,61.262 53.09,61.463 51.207,56.121 54.619,53.631" fill="rgb(216,216,216)"/>
<polygon points="62.597,67.978 62.891,73.999 64.067,74.893 69.948,73.564" fill="rgb(216,216,216)"/>
<polygon points="60.0,68.893 56.107,71.734 58.256,77.829 63.07,77.601" fill="rgb(216,216,216)"/>
<polygon points="69.948,73.564 70.432,78.891 77.461,80.323 79.989,75.609" fill="rgb(216,216,216)"/>
<polygon points="63.07,77.601 58.749,80.754 61.134,87.519 66.477,87.265" fill="rgb(216,216,216)"/>
<polygon points="79.989,75.609 82.518,80.323 89.547,78.891 90.03,73.564" fill="rgb(216,216,216)"/>
<polygon points="66.477,87.265 62.156,90.418 64.541,97.183 69.884,96.929" fill="rgb(216,216,216)"/>
<polygon points="90.03,73.564 93.926,76.401 99.072,72.491 97.381,67.978" fill="rgb(216,216,216)"/>
<polygon points="69.884,96.929 65.991,99.77 68.14,105.865 72.954,105.636" fill="rgb(216,216,216)"/>
<polygon points="97.381,67.978 101.6,68.178 103.484,62.836 100.072,60.346" fill="rgb(216,216,216)"/>
<polygon points="72.954,105.636 69.542,108.126 71.426,113.468 75.645,113.268" fill="rgb(216,216,216)"/>
<polygon points="78.242,112.352 78.494,114.307 76.675,114.948 75.645,113.268" fill="rgb(216,216,216)"/>
<polygon points="100.072,60.346 103.484,57.856 101.6,52.514 97.381,52.715" fill="rgb(216,216,216)"/>
<polygon points="97.381,52.715 99.072,48.202 93.926,44.291 90.03,47.128" fill="rgb(216,216,216)"/>
<polygon points="41.665,16.888 38.232,21.035 39.46,24.518 44.734,25.595" fill="rgb(216,216,216)"/>
<polygon points="90.03,47.128 89.547,41.801 82.518,40.37 79.989,45.084" fill="rgb(216,216,216)"/>
<polygon points="44.734,25.595 40.413,28.748 42.799,35.513 48.142,35.259" fill="rgb(216,216,216)"/>
<polygon points="79.989,45.084 77.461,40.37 70.432,41.801 69.948,47.128" fill="rgb(216,216,216)"/>
<polygon points="48.142,35.259 43.821,38.413 46.206,45.177 51.549,44.924" fill="rgb(216,216,216)"/>
<polygon points="69.948,47.128 66.052,44.291 60.907,48.202 62.597,52.715" fill="rgb(216,216,216)"/>
<polygon points="51.549,44.924 47.656,47.764 49.805,53.86 54.619,53.631" fill="rgb(216,216,216)"/>
<line x1="57.309" y1="61.262" x2="59.907" y2="60.346" stroke="#8c8c8c" stroke-width="0.3" stroke-dasharray="1.2,0.8"/>
<line x1="62.597" y1="67.978" x2="59.907" y2="60.346" stroke="#8c8c8c" stroke-width="0.3" stroke-dasharray="1.2,0.8"/>
<line x1="62.597" y1="67.978" x2="60.0" y2="68.893" stroke="#8c8c8c" stroke-width="0.3" stroke-dasharray="1.2,0.8"/>
<line x1="65.667" y1="76.685" x2="63.07" y2="77.601" stroke="#8c8c8c" stroke-width="0.3" stroke-dasharray="1.2,0.8"/>
<line x1="69.075" y1="86.349" x2="66.477" y2="87.265" stroke="#8c8c8c" stroke-width="0.3" stroke-dasharray="1.2,0.8"/>
<line x1="72.482" y1="96.013" x2="69.884" y2="96.929" stroke="#8c8c8c" stroke-width="0.3" stroke-dasharray="1.2,0.8"/>
<line x1="75.552" y1="104.721" x2="72.954" y2="105.636" stroke="#8c8c8c" stroke-width="0.3" stroke-dasharray="1.2,0.8"/>
<line x1="41.665" y1="16.888" x2="38.974" y2="9.256" stroke="#8c8c8c" stroke-width="0.3" stroke-dasharray="1.2,0.8"/>
<line x1="44.262" y1="15.972" x2="41.665" y2="16.888" stroke="#8c8c8c" stroke-width="0.3" stroke-dasharray="1.2,0.8"/>
<line x1="47.332" y1="24.679" x2="44.734" y2="25.595" stroke="#8c8c8c" stroke-width="0.3" stroke-dasharray="1.2,0.8"/>
<line x1="50.739" y1="34.343" x2="48.142" y2="35.259" stroke="#8c8c8c" stroke-width="0.3" stroke-dasharray="1.2,0.8"/>
<line x1="54.147" y1="44.008" x2="51.549" y2="44.923" stroke="#8c8c8c" stroke-width="0.3" stroke-dasharray="1.2,0.8"/>
<line x1="57.216" y1="52.715" x2="54.619" y2="53.631" stroke="#8c8c8c" stroke-width="0.3" stroke-dasharray="1.2,0.8"/>
<line x1="62.597" y1="52.715" x2="59.907" y2="60.346" stroke="#8c8c8c" stroke-width="0.3" stroke-dasharray="1.2,0.8"/>
<line x1="60.0" y1="68.893" x2="57.309" y2="61.262" stroke="#8c8c8c" stroke-width="0.3" stroke-dasharray="1.2,0.8"/>
<line x1="54.619" y1="53.631" x2="57.309" y2="61.262" stroke="#8c8c8c" stroke-width="0.3" stroke-dasharray="1.2,0.8"/>
<line x1="69.948" y1="73.564" x2="62.597" y2="67.978" stroke="#8c8c8c" stroke-width="0.3" stroke-dasharray="1.2,0.8"/>
<line x1="63.07" y1="77.601" x2="60.0" y2="68.893" stroke="#8c8c8c" stroke-width="0.3" stroke-dasharray="1.2,0.8"/>
<line x1="79.989" y1="75.609" x2="69.948" y2="73.564" stroke="#8c8c8c" stroke-width="0.3" stroke-dasharray="1.2,0.8"/>
<line x1="66.477" y1="87.265" x2="63.07" y2="77.601" stroke="#8c8c8c" stroke-width="0.3" stroke-dasharray="1.2,0.8"/>
<line x1="90.03" y1="73.564" x2="79.989" y2="75.609" stroke="#8c8c8c" stroke-width="0.3" stroke-dasharray="1.2,0.8"/>
<line x1="69.884" y1="96.929" x2="66.477" y2="87.265" stroke="#8c8c8c" stroke-width="0.3" stroke-dasharray="1.2,0.8"/>
<line x1="97.381" y1="67.978" x2="90.03" y2="73.564" stroke="#8c8c8c" stroke-width="0.3" stroke-dasharray="1.2,0.8"/>
<line x1="72.954" y1="105.636" x2="69.884" y2="96.929" stroke="#8c8c8c" stroke-width="0.3" stroke-dasharray="1.2,0.8"/>
<line x1="100.072" y1="60.346" x2="97.381" y2="67.978" stroke="#8c8c8c" stroke-width="0.3" stroke-dasharray="1.2,0.8"/>
<line x1="75.645" y1="113.268" x2="72.954" y2="105.636" stroke="#8c8c8c" stroke-width="0.3" stroke-dasharray="1.2,0.8"/>
<line x1="75.645" y1="113.268" x2="78.242" y2="112.352" stroke="#8c8c8c" stroke-width="0.3" stroke-dasharray="1.2,0.8"/>
<line x1="97.381" y1="52.715" x2="100.072" y2="60.346" stroke="#8c8c8c" stroke-width="0.3" stroke-dasharray="1.2,0.8"/>
<line x1="90.03" y1="47.128" x2="97.381" y2="52.715" stroke="#8c8c8c" stroke-width="0.3" stroke-dasharray="1.2,0.8"/>
<line x1="44.734" y1="25.595" x2="41.665" y2="16.888" stroke="#8c8c8c" stroke-width="0.3" stroke-dasharray="1.2,0.8"/>
<line x1="79.989" y1="45.084" x2="90.03" y2="47.128" stroke="#8c8c8c" stroke-width="0.3" stroke-dasharray="1.2,0.8"/>
<line x1="48.142" y1="35.259" x2="44.734" y2="25.595" stroke="#8c8c8c" stroke-width="0.3" stroke-dasharray="1.2,0.8"/>
<line x1="69.948" y1="47.128" x2="79.989" y2="45.084" stroke="#8c8c8c" stroke-width="0.3" stroke-dasharray="1.2,0.8"/>
<line x1="51.549" y1="44.924" x2="48.142" y2="35.259" stroke="#8c8c8c" stroke-width="0.3" stroke-dasharray="1.2,0.8"/>
<line x1="62.597" y1="52.715" x2="69.948" y2="47.128" stroke="#8c8c8c" stroke-width="0.3" stroke-dasharray="1.2,0.8"/>
<line x1="54.619" y1="53.631" x2="51.549" y2="44.924" stroke="#8c8c8c" stroke-width="0.3" stroke-dasharray="1.2,0.8"/>
<line x1="57.216" y1="52.715" x2="59.907" y2="60.346" stroke="#141414" stroke-width="0.4"/>
<line x1="7.691" y1="34.447" x2="5.0" y2="26.815" stroke="#141414" stroke-width="0.4"/>
<line x1="14.572" y1="38.703" x2="7.691" y2="34.447" stroke="#141414" stroke-width="0.4"/>
<line x1="62.597" y1="67.978" x2="65.667" y2="76.685" stroke="#141414" stroke-width="0.4"/>
<line x1="5.0" y1="26.815" x2="7.222" y2="17.854" stroke="#141414" stroke-width="0.4"/>
<line x1="65.667" y1="76.685" x2="69.075" y2="86.349" stroke="#141414" stroke-width="0.4"/>
<line x1="7.222" y1="17.854" x2="13.76" y2="9.964" stroke="#141414" stroke-width="0.4"/>
<line x1="69.075" y1="86.349" x2="72.482" y2="96.013" stroke="#141414" stroke-width="0.4"/>
<line x1="13.76" y1="9.964" x2="22.863" y2="5.259" stroke="#141414" stroke-width="0.4"/>
<line x1="72.482" y1="96.013" x2="75.552" y2="104.721" stroke="#141414" stroke-width="0.4"/>
<line x1="22.863" y1="5.259" x2="32.092" y2="5.0" stroke="#141414" stroke-width="0.4"/>
<line x1="75.552" y1="104.721" x2="78.242" y2="112.352" stroke="#141414" stroke-width="0.4"/>
<line x1="32.092" y1="5.0" x2="38.974" y2="9.256" stroke="#141414" stroke-width="0.4"/>
<line x1="38.974" y1="9.256" x2="41.572" y2="8.341" stroke="#141414" stroke-width="0.4"/>
<line x1="41.572" y1="8.341" x2="44.262" y2="15.972" stroke="#141414" stroke-width="0.4"/>
<line x1="44.262" y1="15.972" x2="47.332" y2="24.679" stroke="#141414" stroke-width="0.4"/>
<line x1="41.665" y1="16.888" x2="39.443" y2="25.849" stroke="#141414" stroke-width="0.4"/>
<line x1="47.332" y1="24.679" x2="50.739" y2="34.343" stroke="#141414" stroke-width="0.4"/>
<line x1="39.443" y1="25.849" x2="32.904" y2="33.739" stroke="#141414" stroke-width="0.4"/>
<line x1="50.739" y1="34.343" x2="54.147" y2="44.008" stroke="#141414" stroke-width="0.4"/>
<line x1="32.904" y1="33.739" x2="23.801" y2="38.444" stroke="#141414" stroke-width="0.4"/>
<line x1="54.147" y1="44.008" x2="57.216" y2="52.715" stroke="#141414" stroke-width="0.4"/>
<line x1="23.801" y1="38.444" x2="14.572" y2="38.703" stroke="#141414" stroke-width="0.4"/>
<line x1="59.907" y1="60.346" x2="57.221" y2="55.796" stroke="#141414" stroke-width="0.4"/>
<line x1="57.221" y1="55.796" x2="57.652" y2="54.575" stroke="#141414" stroke-width="0.4"/>
<line x1="57.652" y1="54.575" x2="62.597" y2="52.715" stroke="#141414" stroke-width="0.4"/>
<line x1="57.309" y1="61.262" x2="53.897" y2="63.752" stroke="#141414" stroke-width="0.4"/>
<line x1="53.897" y1="63.752" x2="55.781" y2="69.094" stroke="#141414" stroke-width="0.4"/>
<line x1="55.781" y1="69.094" x2="60.0" y2="68.893" stroke="#141414" stroke-width="0.4"/>
<line x1="57.309" y1="61.262" x2="53.09" y2="61.463" stroke="#141414" stroke-width="0.4"/>
<line x1="53.09" y1="61.463" x2="51.207" y2="56.121" stroke="#141414" stroke-width="0.4"/>
<line x1="51.207" y1="56.121" x2="54.619" y2="53.631" stroke="#141414" stroke-width="0.4"/>
<line x1="62.597" y1="67.978" x2="62.891" y2="73.999" stroke="#141414" stroke-width="0.4"/>
<line x1="62.891" y1="73.999" x2="64.067" y2="74.893" stroke="#141414" stroke-width="0.4"/>
<line x1="64.067" y1="74.893" x2="69.948" y2="73.564" stroke="#141414" stroke-width="0.4"/>
<line x1="60.0" y1="68.893" x2="56.107" y2="71.734" stroke="#141414" stroke-width="0.4"/>
<line x1="56.107" y1="71.734" x2="58.256" y2="77.829" stroke="#141414" stroke-width="0.4"/>
<line x1="58.256" y1="77.829" x2="63.07" y2="77.601" stroke="#141414" stroke-width="0.4"/>
<line x1="69.948" y1="73.564" x2="70.432" y2="78.891" stroke="#141414" stroke-width="0.4"/>
<line x1="70.432" y1="78.891" x2="77.461" y2="80.323" stroke="#141414" stroke-width="0.4"/>
<line x1="77.461" y1="80.323" x2="79.989" y2="75.609" stroke="#141414" stroke-width="0.4"/>
<line x1="63.07" y1="77.601" x2="58.749" y2="80.754" stroke="#141414" stroke-width="0.4"/>
<line x1="58.749" y1="80.754" x2="61.134" y2="87.519" stroke="#141414" stroke-width="0.4"/>
<line x1="61.134" y1="87.519" x2="66.477" y2="87.265" stroke="#141414" stroke-width="0.4"/>
<line x1="79.989" y1="75.609" x2="82.518" y2="80.323" stroke="#141414" stroke-width="0.4"/>
<line x1="82.518" y1="80.323" x2="89.547" y2="78.891" stroke="#141414" stroke-width="0.4"/>
<line x1="89.547" y1="78.891" x2="90.03" y2="73.564" stroke="#141414" stroke-width="0.4"/>
<line x1="66.477" y1="87.265" x2="62.156" y2="90.418" stroke="#141414" stroke-width="0.4"/>
<line x1="62.156" y1="90.418" x2="64.541" y2="97.183" stroke="#141414" stroke-width="0.4"/>
<line x1="64.541" y1="97.183" x2="69.884" y2="96.929" stroke="#141414" stroke-width="0.4"/>
<line x1="90.03" y1="73.564" x2="93.926" y2="76.401" stroke="#141414" stroke-width="0.4"/>
<line x1="93.926" y1="76.401" x2="99.072" y2="72.491" stroke="#141414" stroke-width="0.4"/>
<line x1="99.072" y1="72.491" x2="97.381" y2="67.978" stroke="#141414" stroke-width="0.4"/>
<line x1="69.884" y1="96.929" x2="65.991" y2="99.77" stroke="#141414" stroke-width="0.4"/>
<line x1="65.991" y1="99.77" x2="68.14" y2="105.865" stroke="#141414" stroke-width="0.4"/>
<line x1="68.14" y1="105.865" x2="72.954" y2="105.636" stroke="#141414" stroke-width="0.4"/>
<line x1="97.381" y1="67.978" x2="101.6" y2="68.178" stroke="#141414" stroke-width="0.4"/>
<line x1="101.6" y1="68.178" x2="103.484" y2="62.836" stroke="#141414" stroke-width="0.4"/>
<line x1="103.484" y1="62.836" x2="100.072" y2="60.346" stroke="#141414" stroke-width="0.4"/>
<line x1="72.954" y1="105.636" x2="69.542" y2="108.126" stroke="#141414" stroke-width="0.4"/>
<line x1="69.542" y1="108.126" x2="71.426" y2="113.468" stroke="#141414" stroke-width="0.4"/>
<line x1="71.426" y1="113.468" x2="75.645" y2="113.268" stroke="#141414" stroke-width="0.4"/>
<line x1="78.242" y1="112.352" x2="78.494" y2="114.307" stroke="#141414" stroke-width="0.4"/>
<line x1="78.494" y1="114.307" x2="76.675" y2="114.948" stroke="#141414" stroke-width="0.4"/>
<line x1="76.675" y1="114.948" x2="75.645" y2="113.268" stroke="#141414" stroke-width="0.4"/>
<line x1="100.072" y1="60.346" x2="103.484" y2="57.856" stroke="#141414" stroke-width="0.4"/>
<line x1="103.484" y1="57.856" x2="101.6" y2="52.514" stroke="#141414" stroke-width="0.4"/>
<line x1="101.6" y1="52.514" x2="97.381" y2="52.715" stroke="#141414" stroke-width="0.4"/>
<line x1="97.381" y1="52.715" x2="99.072" y2="48.202" stroke="#141414" stroke-width="0.4"/>
<line x1="99.072" y1="48.202" x2="93.926" y2="44.291" stroke="#141414" stroke-width="0.4"/>
<line x1="93.926" y1="44.291" x2="90.03" y2="47.128" stroke="#141414" stroke-width="0.4"/>
<line x1="41.665" y1="16.888" x2="38.232" y2="21.035" stroke="#141414" stroke-width="0.4"/>
<line x1="38.232" y1="21.035" x2="39.46" y2="24.518" stroke="#141414" stroke-width="0.4"/>
<line x1="39.46" y1="24.518" x2="44.734" y2="25.595" stroke="#141414" stroke-width="0.4"/>
<line x1="90.03" y1="47.128" x2="89.547" y2="41.801" stroke="#141414" stroke-width="0.4"/>
<line x1="89.547" y1="41.801" x2="82.518" y2="40.37" stroke="#141414" stroke-width="0.4"/>
<line x1="82.518" y1="40.37" x2="79.989" y2="45.084" stroke="#141414" stroke-width="0.4"/>
<line x1="44.734" y1="25.595" x2="40.413" y2="28.748" stroke="#141414" stroke-width="0.4"/>
<line x1="40.413" y1="28.748" x2="42.799" y2="35.513" stroke="#141414" stroke-width="0.4"/>
<line x1="42.799" y1="35.513" x2="48.142" y2="35.259" stroke="#141414" stroke-width="0.4"/>
<line x1="79.989" y1="45.084" x2="77.461" y2="40.37" stroke="#141414" stroke-width="0.4"/>
<line x1="77.461" y1="40.37" x2="70.432" y2="41.801" stroke="#141414" stroke-width="0.4"/>
<line x1="70.432" y1="41.801" x2="69.948" y2="47.128" stroke="#141414" stroke-width="0.4"/>
<line x1="48.142" y1="35.259" x2="43.821" y2="38.413" stroke="#141414" stroke-width="0.4"/>
<line x1="43.821" y1="38.413" x2="46.206" y2="45.177" stroke="#141414" stroke-width="0.4"/>
<line x1="46.206" y1="45.177" x2="51.549" y2="44.924" stroke="#141414" stroke-width="0.4"/>
<line x1="69.948" y1="47.128" x2="66.052" y2="44.291" stroke="#141414" stroke-width="0.4"/>
<line x1="66.052" y1="44.291" x2="60.907" y2="48.202" stroke="#141414" stroke-width="0.4"/>
<line x1="60.907" y1="48.202" x2="62.597" y2="52.715" stroke="#141414" stroke-width="0.4"/>
<line x1="51.549" y1="44.924" x2="47.656" y2="47.764" stroke="#141414" stroke-width="0.4"/>
<line x1="47.656" y1="47.764" x2="49.805" y2="53.86" stroke="#141414" stroke-width="0.4"/>
<line x1="49.805" y1="53.86" x2="54.619" y2="53.631" stroke="#141414" stroke-width="0.4"/>
<circle cx="59.344" cy="55.858" r="0.51" fill="#ffe082" stroke="#464646" stroke-width="0.2"/>
<text x="59.344" y="56.03" font-size="0.50" text-anchor="middle" fill="#141414">91</text>
<circle cx="56.747" cy="65.75" r="0.51" fill="#ffe082" stroke="#464646" stroke-width="0.2"/>
<text x="56.747" y="65.92" font-size="0.50" text-anchor="middle" fill="#141414">92</text>
<circle cx="54.056" cy="58.119" r="0.51" fill="#ffe082" stroke="#464646" stroke-width="0.2"/>
<text x="54.056" y="58.29" font-size="0.50" text-anchor="middle" fill="#141414">93</text>
<circle cx="64.876" cy="72.608" r="0.51" fill="#ffe082" stroke="#464646" stroke-width="0.2"/>
<text x="64.876" y="72.78" font-size="0.50" text-anchor="middle" fill="#141414">94</text>
<circle cx="59.358" cy="74.014" r="0.51" fill="#ffe082" stroke="#464646" stroke-width="0.2"/>
<text x="59.358" y="74.19" font-size="0.50" text-anchor="middle" fill="#141414">95</text>
<circle cx="74.457" cy="77.097" r="0.51" fill="#ffe082" stroke="#464646" stroke-width="0.2"/>
<text x="74.457" y="77.27" font-size="0.50" text-anchor="middle" fill="#141414">96</text>
<circle cx="62.357" cy="83.285" r="0.51" fill="#ffe082" stroke="#464646" stroke-width="0.2"/>
<text x="62.357" y="83.46" font-size="0.50" text-anchor="middle" fill="#141414">97</text>
<circle cx="85.521" cy="77.097" r="0.51" fill="#ffe082" stroke="#464646" stroke-width="0.2"/>
<text x="85.521" y="77.27" font-size="0.50" text-anchor="middle" fill="#141414">98</text>
<circle cx="65.765" cy="92.949" r="0.51" fill="#ffe082" stroke="#464646" stroke-width="0.2"/>
<text x="65.765" y="93.12" font-size="0.50" text-anchor="middle" fill="#141414">99</text>
<circle cx="95.102" cy="72.608" r="0.51" fill="#ffe082" stroke="#464646" stroke-width="0.2"/>
<text x="95.102" y="72.78" font-size="0.50" text-anchor="middle" fill="#141414">100</text>
<circle cx="69.242" cy="102.05" r="0.51" fill="#ffe082" stroke="#464646" stroke-width="0.2"/>
<text x="69.242" y="102.22" font-size="0.50" text-anchor="middle" fill="#141414">101</text>
<circle cx="100.634" cy="64.835" r="0.51" fill="#ffe082" stroke="#464646" stroke-width="0.2"/>
<text x="100.634" y="65.01" font-size="0.50" text-anchor="middle" fill="#141414">102</text>
<circle cx="72.392" cy="110.125" r="0.51" fill="#ffe082" stroke="#464646" stroke-width="0.2"/>
<text x="72.392" y="110.30" font-size="0.50" text-anchor="middle" fill="#141414">103</text>
<circle cx="77.264" cy="113.719" r="0.51" fill="#ffe082" stroke="#464646" stroke-width="0.2"/>
<text x="77.264" y="113.89" font-size="0.50" text-anchor="middle" fill="#141414">104</text>
<circle cx="100.634" cy="55.858" r="0.51" fill="#ffe082" stroke="#464646" stroke-width="0.2"/>
<text x="100.634" y="56.03" font-size="0.50" text-anchor="middle" fill="#141414">105</text>
<circle cx="95.102" cy="48.084" r="0.51" fill="#ffe082" stroke="#464646" stroke-width="0.2"/>
<text x="95.102" y="48.26" font-size="0.50" text-anchor="middle" fill="#141414">106</text>
<circle cx="41.023" cy="22.009" r="0.51" fill="#ffe082" stroke="#464646" stroke-width="0.2"/>
<text x="41.023" y="22.18" font-size="0.50" text-anchor="middle" fill="#141414">107</text>
<circle cx="85.521" cy="43.596" r="0.51" fill="#ffe082" stroke="#464646" stroke-width="0.2"/>
<text x="85.521" y="43.77" font-size="0.50" text-anchor="middle" fill="#141414">108</text>
<circle cx="44.022" cy="31.279" r="0.51" fill="#ffe082" stroke="#464646" stroke-width="0.2"/>
<text x="44.022" y="31.45" font-size="0.50" text-anchor="middle" fill="#141414">109</text>
<circle cx="74.457" cy="43.596" r="0.51" fill="#ffe082" stroke="#464646" stroke-width="0.2"/>
<text x="74.457" y="43.77" font-size="0.50" text-anchor="middle" fill="#141414">110</text>
<circle cx="47.429" cy="40.943" r="0.51" fill="#ffe082" stroke="#464646" stroke-width="0.2"/>
<text x="47.429" y="41.12" font-size="0.50" text-anchor="middle" fill="#141414">111</text>
<circle cx="64.876" cy="48.084" r="0.51" fill="#ffe082" stroke="#464646" stroke-width="0.2"/>
<text x="64.876" y="48.26" font-size="0.50" text-anchor="middle" fill="#141414">112</text>
<circle cx="50.907" cy="50.045" r="0.51" fill="#ffe082" stroke="#464646" stroke-width="0.2"/>
<text x="50.907" y="50.22" font-size="0.50" text-anchor="middle" fill="#141414">113</text>
<circle cx="54.242" cy="121.048" r="4.6" fill="#eaf1fe" stroke="#2e78e6" stroke-width="0.3"/>
<text x="54.242" y="122.848" font-size="5.2" text-anchor="middle" fill="#14306e" font-weight="bold">7</text>
<polygon points="35.425,202.294 31.38,209.294 12.503,209.294 8.457,202.294" fill="rgb(216,216,216)"/>
<polygon points="35.425,173.605 31.38,166.605 12.503,166.605 8.457,173.605" fill="rgb(216,216,216)"/>
<polygon points="41.163,202.294 48.163,197.991 48.163,177.909 41.163,173.605" fill="rgb(216,216,216)"/>
<polygon points="41.163,202.294 48.163,206.34 48.163,225.217 41.163,229.262" fill="rgb(216,216,216)"/>
<polygon points="41.163,173.605 48.163,169.56 48.163,150.683 41.163,146.638" fill="rgb(216,216,216)"/>
<polygon points="8.457,202.294 1.457,197.991 1.457,177.909 8.457,173.605" fill="rgb(216,216,216)"/>
<polygon points="35.425,229.262 36.286,232.662 40.302,232.662 41.163,229.262" fill="rgb(216,216,216)"/>
<line x1="35.425" y1="202.294" x2="35.425" y2="173.605" stroke="#8c8c8c" stroke-width="0.3" stroke-dasharray="1.2,0.8"/>
<line x1="41.163" y1="202.294" x2="35.425" y2="202.294" stroke="#8c8c8c" stroke-width="0.3" stroke-dasharray="1.2,0.8"/>
<line x1="35.425" y1="173.605" x2="41.163" y2="173.605" stroke="#8c8c8c" stroke-width="0.3" stroke-dasharray="1.2,0.8"/>
<line x1="35.425" y1="146.638" x2="41.163" y2="146.638" stroke="#8c8c8c" stroke-width="0.3" stroke-dasharray="1.2,0.8"/>
<line x1="41.163" y1="146.638" x2="41.163" y2="117.948" stroke="#8c8c8c" stroke-width="0.3" stroke-dasharray="1.2,0.8"/>
<line x1="8.457" y1="202.294" x2="35.425" y2="202.294" stroke="#8c8c8c" stroke-width="0.3" stroke-dasharray="1.2,0.8"/>
<line x1="8.457" y1="173.605" x2="35.425" y2="173.605" stroke="#8c8c8c" stroke-width="0.3" stroke-dasharray="1.2,0.8"/>
<line x1="41.163" y1="173.605" x2="41.163" y2="202.294" stroke="#8c8c8c" stroke-width="0.3" stroke-dasharray="1.2,0.8"/>
<line x1="41.163" y1="229.262" x2="41.163" y2="202.294" stroke="#8c8c8c" stroke-width="0.3" stroke-dasharray="1.2,0.8"/>
<line x1="41.163" y1="146.638" x2="41.163" y2="173.605" stroke="#8c8c8c" stroke-width="0.3" stroke-dasharray="1.2,0.8"/>
<line x1="8.457" y1="173.605" x2="8.457" y2="202.294" stroke="#8c8c8c" stroke-width="0.3" stroke-dasharray="1.2,0.8"/>
<line x1="41.163" y1="229.262" x2="35.425" y2="229.262" stroke="#8c8c8c" stroke-width="0.3" stroke-dasharray="1.2,0.8"/>
<line x1="35.425" y1="229.262" x2="35.425" y2="202.294" stroke="#141414" stroke-width="0.4"/>
<line x1="35.425" y1="173.605" x2="35.425" y2="146.638" stroke="#141414" stroke-width="0.4"/>
<line x1="68.131" y1="117.948" x2="68.131" y2="146.638" stroke="#141414" stroke-width="0.4"/>
<line x1="41.163" y1="117.948" x2="68.131" y2="117.948" stroke="#141414" stroke-width="0.4"/>
<line x1="68.131" y1="146.638" x2="41.163" y2="146.638" stroke="#141414" stroke-width="0.4"/>
<line x1="35.425" y1="146.638" x2="35.425" y2="117.948" stroke="#141414" stroke-width="0.4"/>
<line x1="35.425" y1="117.948" x2="41.163" y2="117.948" stroke="#141414" stroke-width="0.4"/>
<line x1="35.425" y1="202.294" x2="31.38" y2="209.294" stroke="#141414" stroke-width="0.4"/>
<line x1="31.38" y1="209.294" x2="12.503" y2="209.294" stroke="#141414" stroke-width="0.4"/>
<line x1="12.503" y1="209.294" x2="8.457" y2="202.294" stroke="#141414" stroke-width="0.4"/>
<line x1="35.425" y1="173.605" x2="31.38" y2="166.605" stroke="#141414" stroke-width="0.4"/>
<line x1="31.38" y1="166.605" x2="12.503" y2="166.605" stroke="#141414" stroke-width="0.4"/>
<line x1="12.503" y1="166.605" x2="8.457" y2="173.605" stroke="#141414" stroke-width="0.4"/>
<line x1="41.163" y1="202.294" x2="48.163" y2="197.991" stroke="#141414" stroke-width="0.4"/>
<line x1="48.163" y1="197.991" x2="48.163" y2="177.909" stroke="#141414" stroke-width="0.4"/>
<line x1="48.163" y1="177.909" x2="41.163" y2="173.605" stroke="#141414" stroke-width="0.4"/>
<line x1="41.163" y1="202.294" x2="48.163" y2="206.34" stroke="#141414" stroke-width="0.4"/>
<line x1="48.163" y1="206.34" x2="48.163" y2="225.217" stroke="#141414" stroke-width="0.4"/>
<line x1="48.163" y1="225.217" x2="41.163" y2="229.262" stroke="#141414" stroke-width="0.4"/>
<line x1="41.163" y1="173.605" x2="48.163" y2="169.56" stroke="#141414" stroke-width="0.4"/>
<line x1="48.163" y1="169.56" x2="48.163" y2="150.683" stroke="#141414" stroke-width="0.4"/>
<line x1="48.163" y1="150.683" x2="41.163" y2="146.638" stroke="#141414" stroke-width="0.4"/>
<line x1="8.457" y1="202.294" x2="1.457" y2="197.991" stroke="#141414" stroke-width="0.4"/>
<line x1="1.457" y1="197.991" x2="1.457" y2="177.909" stroke="#141414" stroke-width="0.4"/>
<line x1="1.457" y1="177.909" x2="8.457" y2="173.605" stroke="#141414" stroke-width="0.4"/>
<line x1="35.425" y1="229.262" x2="36.286" y2="232.662" stroke="#141414" stroke-width="0.4"/>
<line x1="36.286" y1="232.662" x2="40.302" y2="232.662" stroke="#141414" stroke-width="0.4"/>
<line x1="40.302" y1="232.662" x2="41.163" y2="229.262" stroke="#141414" stroke-width="0.4"/>
<circle cx="21.941" cy="205.794" r="0.51" fill="#ffe082" stroke="#464646" stroke-width="0.2"/>
<text x="21.941" y="205.97" font-size="0.50" text-anchor="middle" fill="#141414">219</text>
<circle cx="21.941" cy="170.105" r="0.51" fill="#ffe082" stroke="#464646" stroke-width="0.2"/>
<text x="21.941" y="170.28" font-size="0.50" text-anchor="middle" fill="#141414">220</text>
<circle cx="44.663" cy="187.95" r="0.51" fill="#ffe082" stroke="#464646" stroke-width="0.2"/>
<text x="44.663" y="188.12" font-size="0.50" text-anchor="middle" fill="#141414">221</text>
<circle cx="44.663" cy="215.778" r="0.51" fill="#ffe082" stroke="#464646" stroke-width="0.2"/>
<text x="44.663" y="215.95" font-size="0.50" text-anchor="middle" fill="#141414">222</text>
<circle cx="44.663" cy="160.121" r="0.51" fill="#ffe082" stroke="#464646" stroke-width="0.2"/>
<text x="44.663" y="160.29" font-size="0.50" text-anchor="middle" fill="#141414">223</text>
<circle cx="4.957" cy="187.95" r="0.51" fill="#ffe082" stroke="#464646" stroke-width="0.2"/>
<text x="4.957" y="188.12" font-size="0.50" text-anchor="middle" fill="#141414">224</text>
<circle cx="38.294" cy="230.962" r="0.51" fill="#ffe082" stroke="#464646" stroke-width="0.2"/>
<text x="38.294" y="231.14" font-size="0.50" text-anchor="middle" fill="#141414">225</text>
<circle cx="38.337" cy="111.848" r="4.6" fill="#eaf1fe" stroke="#2e78e6" stroke-width="0.3"/>
<text x="38.337" y="113.648" font-size="5.2" text-anchor="middle" fill="#14306e" font-weight="bold">17</text>
<g pointer-events="none"><text x="105.0" y="83.2" text-anchor="middle" font-family="sans-serif" font-size="12.4" fill="#9aa0a6" fill-opacity="0.3" transform="rotate(-28 105.0 83.2)">papercraft.kr</text><text x="105.0" y="148.5" text-anchor="middle" font-family="sans-serif" font-size="12.4" fill="#9aa0a6" fill-opacity="0.3" transform="rotate(-28 105.0 148.5)">papercraft.kr</text><text x="105.0" y="213.8" text-anchor="middle" font-family="sans-serif" font-size="12.4" fill="#9aa0a6" fill-opacity="0.3" transform="rotate(-28 105.0 213.8)">papercraft.kr</text></g></svg>
