<svg xmlns="http://www.w3.org/2000/svg" xmlns:xlink="http://www.w3.org/1999/xlink" width="210.00mm" height="297.00mm" viewBox="0 0 210.00 297.00">
<rect x="0" y="0" width="210.00" height="297.00" fill="#ffffff" stroke="#cccccc" stroke-width="0.2"/>
<polygon points="17.789,63.986 15.988,60.949 11.687,62.101 11.645,65.632" fill="rgb(216,216,216)"/>
<polygon points="17.789,63.986 13.22,53.991 16.144,43.081 25.098,36.71" fill="rgb(216,216,216)"/>
<polygon points="11.645,65.632 5.98,71.535 11.096,90.629 18.954,92.908" fill="rgb(216,216,216)"/>
<polygon points="25.098,91.262 28.535,104.599 31.729,107.793 45.066,111.23" fill="rgb(216,216,216)"/>
<polygon points="18.954,92.908 13.289,98.812 18.405,117.905 26.262,120.185" fill="rgb(216,216,216)"/>
<polygon points="45.066,111.23 47.345,119.088 66.439,124.204 72.342,118.539" fill="rgb(216,216,216)"/>
<polygon points="26.262,120.185 20.597,126.088 25.713,145.181 33.571,147.461" fill="rgb(216,216,216)"/>
<polygon points="72.342,118.539 78.245,124.204 97.338,119.088 99.618,111.23" fill="rgb(216,216,216)"/>
<polygon points="33.571,147.461 27.906,153.364 33.022,172.458 40.88,174.738" fill="rgb(216,216,216)"/>
<polygon points="99.618,111.23 107.563,113.185 121.54,99.207 119.586,91.262" fill="rgb(216,216,216)"/>
<polygon points="40.88,174.738 35.215,180.641 40.331,199.734 48.188,202.014" fill="rgb(216,216,216)"/>
<polygon points="119.586,91.262 127.444,88.983 132.56,69.889 126.894,63.986" fill="rgb(216,216,216)"/>
<polygon points="48.188,202.014 42.523,207.917 47.639,227.011 55.497,229.29" fill="rgb(216,216,216)"/>
<polygon points="61.641,227.644 61.6,231.175 57.299,232.327 55.497,229.29" fill="rgb(216,216,216)"/>
<polygon points="126.894,63.986 132.56,58.083 127.444,38.989 119.586,36.71" fill="rgb(216,216,216)"/>
<polygon points="119.586,36.71 121.54,28.765 107.563,14.787 99.618,16.742" fill="rgb(216,216,216)"/>
<polygon points="99.618,16.742 97.339,8.884 78.245,3.768 72.342,9.433" fill="rgb(216,216,216)"/>
<polygon points="72.342,9.433 66.439,3.768 47.345,8.884 45.066,16.742" fill="rgb(216,216,216)"/>
<polygon points="45.066,16.742 37.121,14.787 23.143,28.765 25.098,36.71" fill="rgb(216,216,216)"/>
<line x1="25.098" y1="91.262" x2="17.789" y2="63.986" stroke="#8c8c8c" stroke-width="0.3" stroke-dasharray="1.2,0.8"/>
<line x1="25.098" y1="91.262" x2="18.954" y2="92.909" stroke="#8c8c8c" stroke-width="0.3" stroke-dasharray="1.2,0.8"/>
<line x1="32.407" y1="118.539" x2="26.262" y2="120.185" stroke="#8c8c8c" stroke-width="0.3" stroke-dasharray="1.2,0.8"/>
<line x1="39.715" y1="145.815" x2="33.571" y2="147.461" stroke="#8c8c8c" stroke-width="0.3" stroke-dasharray="1.2,0.8"/>
<line x1="47.024" y1="173.091" x2="40.88" y2="174.738" stroke="#8c8c8c" stroke-width="0.3" stroke-dasharray="1.2,0.8"/>
<line x1="54.333" y1="200.368" x2="48.188" y2="202.014" stroke="#8c8c8c" stroke-width="0.3" stroke-dasharray="1.2,0.8"/>
<line x1="11.645" y1="65.632" x2="17.789" y2="63.986" stroke="#8c8c8c" stroke-width="0.3" stroke-dasharray="1.2,0.8"/>
<line x1="25.098" y1="36.71" x2="17.789" y2="63.986" stroke="#8c8c8c" stroke-width="0.3" stroke-dasharray="1.2,0.8"/>
<line x1="18.954" y1="92.908" x2="11.645" y2="65.632" stroke="#8c8c8c" stroke-width="0.3" stroke-dasharray="1.2,0.8"/>
<line x1="45.066" y1="111.23" x2="25.098" y2="91.262" stroke="#8c8c8c" stroke-width="0.3" stroke-dasharray="1.2,0.8"/>
<line x1="26.262" y1="120.185" x2="18.954" y2="92.908" stroke="#8c8c8c" stroke-width="0.3" stroke-dasharray="1.2,0.8"/>
<line x1="72.342" y1="118.539" x2="45.066" y2="111.23" stroke="#8c8c8c" stroke-width="0.3" stroke-dasharray="1.2,0.8"/>
<line x1="33.571" y1="147.461" x2="26.262" y2="120.185" stroke="#8c8c8c" stroke-width="0.3" stroke-dasharray="1.2,0.8"/>
<line x1="99.618" y1="111.23" x2="72.342" y2="118.539" stroke="#8c8c8c" stroke-width="0.3" stroke-dasharray="1.2,0.8"/>
<line x1="40.88" y1="174.738" x2="33.571" y2="147.461" stroke="#8c8c8c" stroke-width="0.3" stroke-dasharray="1.2,0.8"/>
<line x1="119.586" y1="91.262" x2="99.618" y2="111.23" stroke="#8c8c8c" stroke-width="0.3" stroke-dasharray="1.2,0.8"/>
<line x1="48.188" y1="202.014" x2="40.88" y2="174.738" stroke="#8c8c8c" stroke-width="0.3" stroke-dasharray="1.2,0.8"/>
<line x1="126.894" y1="63.986" x2="119.586" y2="91.262" stroke="#8c8c8c" stroke-width="0.3" stroke-dasharray="1.2,0.8"/>
<line x1="55.497" y1="229.29" x2="48.188" y2="202.014" stroke="#8c8c8c" stroke-width="0.3" stroke-dasharray="1.2,0.8"/>
<line x1="55.497" y1="229.29" x2="61.641" y2="227.644" stroke="#8c8c8c" stroke-width="0.3" stroke-dasharray="1.2,0.8"/>
<line x1="119.586" y1="36.71" x2="126.894" y2="63.986" stroke="#8c8c8c" stroke-width="0.3" stroke-dasharray="1.2,0.8"/>
<line x1="99.618" y1="16.742" x2="119.586" y2="36.71" stroke="#8c8c8c" stroke-width="0.3" stroke-dasharray="1.2,0.8"/>
<line x1="72.342" y1="9.433" x2="99.618" y2="16.742" stroke="#8c8c8c" stroke-width="0.3" stroke-dasharray="1.2,0.8"/>
<line x1="45.066" y1="16.742" x2="72.342" y2="9.433" stroke="#8c8c8c" stroke-width="0.3" stroke-dasharray="1.2,0.8"/>
<line x1="25.098" y1="36.71" x2="45.066" y2="16.742" stroke="#8c8c8c" stroke-width="0.3" stroke-dasharray="1.2,0.8"/>
<line x1="25.098" y1="91.262" x2="32.407" y2="118.539" stroke="#141414" stroke-width="0.4"/>
<line x1="32.407" y1="118.539" x2="39.715" y2="145.815" stroke="#141414" stroke-width="0.4"/>
<line x1="39.715" y1="145.815" x2="47.024" y2="173.091" stroke="#141414" stroke-width="0.4"/>
<line x1="47.024" y1="173.091" x2="54.333" y2="200.368" stroke="#141414" stroke-width="0.4"/>
<line x1="54.333" y1="200.368" x2="61.641" y2="227.644" stroke="#141414" stroke-width="0.4"/>
<line x1="17.789" y1="63.986" x2="15.988" y2="60.949" stroke="#141414" stroke-width="0.4"/>
<line x1="15.988" y1="60.949" x2="11.687" y2="62.101" stroke="#141414" stroke-width="0.4"/>
<line x1="11.687" y1="62.101" x2="11.645" y2="65.632" stroke="#141414" stroke-width="0.4"/>
<line x1="17.789" y1="63.986" x2="13.22" y2="53.991" stroke="#141414" stroke-width="0.4"/>
<line x1="13.22" y1="53.991" x2="16.144" y2="43.081" stroke="#141414" stroke-width="0.4"/>
<line x1="16.144" y1="43.081" x2="25.098" y2="36.71" stroke="#141414" stroke-width="0.4"/>
<line x1="11.645" y1="65.632" x2="5.98" y2="71.535" stroke="#141414" stroke-width="0.4"/>
<line x1="5.98" y1="71.535" x2="11.096" y2="90.629" stroke="#141414" stroke-width="0.4"/>
<line x1="11.096" y1="90.629" x2="18.954" y2="92.908" stroke="#141414" stroke-width="0.4"/>
<line x1="25.098" y1="91.262" x2="28.535" y2="104.599" stroke="#141414" stroke-width="0.4"/>
<line x1="28.535" y1="104.599" x2="31.729" y2="107.793" stroke="#141414" stroke-width="0.4"/>
<line x1="31.729" y1="107.793" x2="45.066" y2="111.23" stroke="#141414" stroke-width="0.4"/>
<line x1="18.954" y1="92.908" x2="13.289" y2="98.812" stroke="#141414" stroke-width="0.4"/>
<line x1="13.289" y1="98.812" x2="18.405" y2="117.905" stroke="#141414" stroke-width="0.4"/>
<line x1="18.405" y1="117.905" x2="26.262" y2="120.185" stroke="#141414" stroke-width="0.4"/>
<line x1="45.066" y1="111.23" x2="47.345" y2="119.088" stroke="#141414" stroke-width="0.4"/>
<line x1="47.345" y1="119.088" x2="66.439" y2="124.204" stroke="#141414" stroke-width="0.4"/>
<line x1="66.439" y1="124.204" x2="72.342" y2="118.539" stroke="#141414" stroke-width="0.4"/>
<line x1="26.262" y1="120.185" x2="20.597" y2="126.088" stroke="#141414" stroke-width="0.4"/>
<line x1="20.597" y1="126.088" x2="25.713" y2="145.181" stroke="#141414" stroke-width="0.4"/>
<line x1="25.713" y1="145.181" x2="33.571" y2="147.461" stroke="#141414" stroke-width="0.4"/>
<line x1="72.342" y1="118.539" x2="78.245" y2="124.204" stroke="#141414" stroke-width="0.4"/>
<line x1="78.245" y1="124.204" x2="97.338" y2="119.088" stroke="#141414" stroke-width="0.4"/>
<line x1="97.338" y1="119.088" x2="99.618" y2="111.23" stroke="#141414" stroke-width="0.4"/>
<line x1="33.571" y1="147.461" x2="27.906" y2="153.364" stroke="#141414" stroke-width="0.4"/>
<line x1="27.906" y1="153.364" x2="33.022" y2="172.458" stroke="#141414" stroke-width="0.4"/>
<line x1="33.022" y1="172.458" x2="40.88" y2="174.738" stroke="#141414" stroke-width="0.4"/>
<line x1="99.618" y1="111.23" x2="107.563" y2="113.185" stroke="#141414" stroke-width="0.4"/>
<line x1="107.563" y1="113.185" x2="121.54" y2="99.207" stroke="#141414" stroke-width="0.4"/>
<line x1="121.54" y1="99.207" x2="119.586" y2="91.262" stroke="#141414" stroke-width="0.4"/>
<line x1="40.88" y1="174.738" x2="35.215" y2="180.641" stroke="#141414" stroke-width="0.4"/>
<line x1="35.215" y1="180.641" x2="40.331" y2="199.734" stroke="#141414" stroke-width="0.4"/>
<line x1="40.331" y1="199.734" x2="48.188" y2="202.014" stroke="#141414" stroke-width="0.4"/>
<line x1="119.586" y1="91.262" x2="127.444" y2="88.983" stroke="#141414" stroke-width="0.4"/>
<line x1="127.444" y1="88.983" x2="132.56" y2="69.889" stroke="#141414" stroke-width="0.4"/>
<line x1="132.56" y1="69.889" x2="126.894" y2="63.986" stroke="#141414" stroke-width="0.4"/>
<line x1="48.188" y1="202.014" x2="42.523" y2="207.917" stroke="#141414" stroke-width="0.4"/>
<line x1="42.523" y1="207.917" x2="47.639" y2="227.011" stroke="#141414" stroke-width="0.4"/>
<line x1="47.639" y1="227.011" x2="55.497" y2="229.29" stroke="#141414" stroke-width="0.4"/>
<line x1="61.641" y1="227.644" x2="61.6" y2="231.175" stroke="#141414" stroke-width="0.4"/>
<line x1="61.6" y1="231.175" x2="57.299" y2="232.327" stroke="#141414" stroke-width="0.4"/>
<line x1="57.299" y1="232.327" x2="55.497" y2="229.29" stroke="#141414" stroke-width="0.4"/>
<line x1="126.894" y1="63.986" x2="132.56" y2="58.083" stroke="#141414" stroke-width="0.4"/>
<line x1="132.56" y1="58.083" x2="127.444" y2="38.989" stroke="#141414" stroke-width="0.4"/>
<line x1="127.444" y1="38.989" x2="119.586" y2="36.71" stroke="#141414" stroke-width="0.4"/>
<line x1="119.586" y1="36.71" x2="121.54" y2="28.765" stroke="#141414" stroke-width="0.4"/>
<line x1="121.54" y1="28.765" x2="107.563" y2="14.787" stroke="#141414" stroke-width="0.4"/>
<line x1="107.563" y1="14.787" x2="99.618" y2="16.742" stroke="#141414" stroke-width="0.4"/>
<line x1="99.618" y1="16.742" x2="97.339" y2="8.884" stroke="#141414" stroke-width="0.4"/>
<line x1="97.339" y1="8.884" x2="78.245" y2="3.768" stroke="#141414" stroke-width="0.4"/>
<line x1="78.245" y1="3.768" x2="72.342" y2="9.433" stroke="#141414" stroke-width="0.4"/>
<line x1="72.342" y1="9.433" x2="66.439" y2="3.768" stroke="#141414" stroke-width="0.4"/>
<line x1="66.439" y1="3.768" x2="47.345" y2="8.884" stroke="#141414" stroke-width="0.4"/>
<line x1="47.345" y1="8.884" x2="45.066" y2="16.742" stroke="#141414" stroke-width="0.4"/>
<line x1="45.066" y1="16.742" x2="37.121" y2="14.787" stroke="#141414" stroke-width="0.4"/>
<line x1="37.121" y1="14.787" x2="23.143" y2="28.765" stroke="#141414" stroke-width="0.4"/>
<line x1="23.143" y1="28.765" x2="25.098" y2="36.71" stroke="#141414" stroke-width="0.4"/>
<circle cx="14.277" cy="63.167" r="1.50" fill="#ffe082" stroke="#464646" stroke-width="0.2"/>
<text x="14.277" y="63.88" font-size="2.03" text-anchor="middle" fill="#141414">65</text>
<circle cx="18.063" cy="49.442" r="1.50" fill="#ffe082" stroke="#464646" stroke-width="0.2"/>
<text x="18.063" y="50.15" font-size="2.03" text-anchor="middle" fill="#141414">66</text>
<circle cx="11.919" cy="80.176" r="1.50" fill="#ffe082" stroke="#464646" stroke-width="0.2"/>
<text x="11.919" y="80.89" font-size="2.03" text-anchor="middle" fill="#141414">67</text>
<circle cx="32.607" cy="103.721" r="1.50" fill="#ffe082" stroke="#464646" stroke-width="0.2"/>
<text x="32.607" y="104.43" font-size="2.03" text-anchor="middle" fill="#141414">68</text>
<circle cx="19.227" cy="107.453" r="1.50" fill="#ffe082" stroke="#464646" stroke-width="0.2"/>
<text x="19.227" y="108.16" font-size="2.03" text-anchor="middle" fill="#141414">69</text>
<circle cx="57.798" cy="118.265" r="1.50" fill="#ffe082" stroke="#464646" stroke-width="0.2"/>
<text x="57.798" y="118.98" font-size="2.03" text-anchor="middle" fill="#141414">70</text>
<circle cx="26.536" cy="134.729" r="1.50" fill="#ffe082" stroke="#464646" stroke-width="0.2"/>
<text x="26.536" y="135.44" font-size="2.03" text-anchor="middle" fill="#141414">71</text>
<circle cx="86.886" cy="118.265" r="1.50" fill="#ffe082" stroke="#464646" stroke-width="0.2"/>
<text x="86.886" y="118.98" font-size="2.03" text-anchor="middle" fill="#141414">72</text>
<circle cx="33.845" cy="162.005" r="1.50" fill="#ffe082" stroke="#464646" stroke-width="0.2"/>
<text x="33.845" y="162.72" font-size="2.03" text-anchor="middle" fill="#141414">73</text>
<circle cx="112.077" cy="103.721" r="1.50" fill="#ffe082" stroke="#464646" stroke-width="0.2"/>
<text x="112.077" y="104.43" font-size="2.03" text-anchor="middle" fill="#141414">74</text>
<circle cx="41.153" cy="189.282" r="1.50" fill="#ffe082" stroke="#464646" stroke-width="0.2"/>
<text x="41.153" y="189.99" font-size="2.03" text-anchor="middle" fill="#141414">75</text>
<circle cx="126.621" cy="78.53" r="1.50" fill="#ffe082" stroke="#464646" stroke-width="0.2"/>
<text x="126.621" y="79.24" font-size="2.03" text-anchor="middle" fill="#141414">76</text>
<circle cx="48.462" cy="216.558" r="1.50" fill="#ffe082" stroke="#464646" stroke-width="0.2"/>
<text x="48.462" y="217.27" font-size="2.03" text-anchor="middle" fill="#141414">77</text>
<circle cx="59.009" cy="230.109" r="1.50" fill="#ffe082" stroke="#464646" stroke-width="0.2"/>
<text x="59.009" y="230.82" font-size="2.03" text-anchor="middle" fill="#141414">78</text>
<circle cx="126.621" cy="49.442" r="1.50" fill="#ffe082" stroke="#464646" stroke-width="0.2"/>
<text x="126.621" y="50.15" font-size="2.03" text-anchor="middle" fill="#141414">79</text>
<circle cx="112.077" cy="24.251" r="1.50" fill="#ffe082" stroke="#464646" stroke-width="0.2"/>
<text x="112.077" y="24.96" font-size="2.03" text-anchor="middle" fill="#141414">80</text>
<circle cx="86.886" cy="9.707" r="1.50" fill="#ffe082" stroke="#464646" stroke-width="0.2"/>
<text x="86.886" y="10.42" font-size="2.03" text-anchor="middle" fill="#141414">81</text>
<circle cx="57.798" cy="9.707" r="1.50" fill="#ffe082" stroke="#464646" stroke-width="0.2"/>
<text x="57.798" y="10.42" font-size="2.03" text-anchor="middle" fill="#141414">82</text>
<circle cx="32.607" cy="24.251" r="1.50" fill="#ffe082" stroke="#464646" stroke-width="0.2"/>
<text x="32.607" y="24.96" font-size="2.03" text-anchor="middle" fill="#141414">83</text>
<circle cx="68.29" cy="239.659" r="4.6" fill="#eaf1fe" stroke="#2e78e6" stroke-width="0.3"/>
<text x="68.29" y="241.459" font-size="5.2" text-anchor="middle" fill="#14306e" font-weight="bold">9</text>
<g pointer-events="none"><text x="105.0" y="89.1" text-anchor="middle" font-family="sans-serif" font-size="21.2" fill="#9aa0a6" fill-opacity="0.33" transform="rotate(-28 105.0 89.1)">papercraft.kr 미리보기</text><text x="105.0" y="163.4" text-anchor="middle" font-family="sans-serif" font-size="21.2" fill="#9aa0a6" fill-opacity="0.33" transform="rotate(-28 105.0 163.4)">papercraft.kr 미리보기</text><text x="105.0" y="237.6" text-anchor="middle" font-family="sans-serif" font-size="21.2" fill="#9aa0a6" fill-opacity="0.33" transform="rotate(-28 105.0 237.6)">papercraft.kr 미리보기</text></g></svg>
