<svg xmlns="http://www.w3.org/2000/svg" xmlns:xlink="http://www.w3.org/1999/xlink" width="210.00mm" height="297.00mm" viewBox="0 0 210.00 297.00">
<rect x="0" y="0" width="210.00" height="297.00" fill="#ffffff" stroke="#cccccc" stroke-width="0.2"/>
<polygon points="31.608,164.941 34.549,171.941 48.275,171.941 51.216,164.941" fill="rgb(216,216,216)"/>
<polygon points="31.608,164.941 28.667,171.941 14.941,171.941 12.0,164.941" fill="rgb(216,216,216)"/>
<polygon points="31.608,31.608 34.549,24.608 48.275,24.608 51.216,31.608" fill="rgb(216,216,216)"/>
<polygon points="51.216,164.941 58.216,144.941 58.216,51.608 51.216,31.608" fill="rgb(216,216,216)"/>
<polygon points="31.608,12.0 28.667,5.0 14.941,5.0 12.0,12.0" fill="rgb(216,216,216)"/>
<polygon points="12.0,164.941 5.0,144.941 5.0,51.608 12.0,31.608" fill="rgb(216,216,216)"/>
<polygon points="12.0,31.608 5.0,28.667 5.0,14.941 12.0,12.0" fill="rgb(216,216,216)"/>
<polygon points="31.608,31.608 34.549,24.608 48.275,24.608 51.216,31.608" fill="#99d9fa"/>
<line x1="31.608" y1="164.941" x2="31.608" y2="31.608" stroke="#8c8c8c" stroke-width="0.3" stroke-dasharray="1.2,0.8"/>
<line x1="12.0" y1="31.608" x2="31.608" y2="31.608" stroke="#8c8c8c" stroke-width="0.3" stroke-dasharray="1.2,0.8"/>
<line x1="51.216" y1="164.941" x2="31.608" y2="164.941" stroke="#8c8c8c" stroke-width="0.3" stroke-dasharray="1.2,0.8"/>
<line x1="12.0" y1="164.941" x2="31.608" y2="164.941" stroke="#8c8c8c" stroke-width="0.3" stroke-dasharray="1.2,0.8"/>
<line x1="51.216" y1="31.608" x2="31.608" y2="31.608" stroke="#8c8c8c" stroke-width="0.3" stroke-dasharray="1.2,0.8"/>
<line x1="51.216" y1="31.608" x2="51.216" y2="164.941" stroke="#8c8c8c" stroke-width="0.3" stroke-dasharray="1.2,0.8"/>
<line x1="12.0" y1="12.0" x2="31.608" y2="12.0" stroke="#8c8c8c" stroke-width="0.3" stroke-dasharray="1.2,0.8"/>
<line x1="12.0" y1="31.608" x2="12.0" y2="164.941" stroke="#8c8c8c" stroke-width="0.3" stroke-dasharray="1.2,0.8"/>
<line x1="12.0" y1="12.0" x2="12.0" y2="31.608" stroke="#8c8c8c" stroke-width="0.3" stroke-dasharray="1.2,0.8"/>
<line x1="31.608" y1="12.0" x2="31.608" y2="31.608" stroke="#141414" stroke-width="0.4"/>
<line x1="31.608" y1="164.941" x2="34.549" y2="171.941" stroke="#141414" stroke-width="0.4"/>
<line x1="34.549" y1="171.941" x2="48.275" y2="171.941" stroke="#141414" stroke-width="0.4"/>
<line x1="48.275" y1="171.941" x2="51.216" y2="164.941" stroke="#141414" stroke-width="0.4"/>
<line x1="31.608" y1="164.941" x2="28.667" y2="171.941" stroke="#141414" stroke-width="0.4"/>
<line x1="28.667" y1="171.941" x2="14.941" y2="171.941" stroke="#141414" stroke-width="0.4"/>
<line x1="14.941" y1="171.941" x2="12.0" y2="164.941" stroke="#141414" stroke-width="0.4"/>
<line x1="31.608" y1="31.608" x2="34.549" y2="24.608" stroke="#141414" stroke-width="0.4"/>
<line x1="34.549" y1="24.608" x2="48.275" y2="24.608" stroke="#141414" stroke-width="0.4"/>
<line x1="48.275" y1="24.608" x2="51.216" y2="31.608" stroke="#141414" stroke-width="0.4"/>
<line x1="51.216" y1="164.941" x2="58.216" y2="144.941" stroke="#141414" stroke-width="0.4"/>
<line x1="58.216" y1="144.941" x2="58.216" y2="51.608" stroke="#141414" stroke-width="0.4"/>
<line x1="58.216" y1="51.608" x2="51.216" y2="31.608" stroke="#141414" stroke-width="0.4"/>
<line x1="31.608" y1="12.0" x2="28.667" y2="5.0" stroke="#141414" stroke-width="0.4"/>
<line x1="28.667" y1="5.0" x2="14.941" y2="5.0" stroke="#141414" stroke-width="0.4"/>
<line x1="14.941" y1="5.0" x2="12.0" y2="12.0" stroke="#141414" stroke-width="0.4"/>
<line x1="12.0" y1="164.941" x2="5.0" y2="144.941" stroke="#141414" stroke-width="0.4"/>
<line x1="5.0" y1="144.941" x2="5.0" y2="51.608" stroke="#141414" stroke-width="0.4"/>
<line x1="5.0" y1="51.608" x2="12.0" y2="31.608" stroke="#141414" stroke-width="0.4"/>
<line x1="12.0" y1="31.608" x2="5.0" y2="28.667" stroke="#141414" stroke-width="0.4"/>
<line x1="5.0" y1="28.667" x2="5.0" y2="14.941" stroke="#141414" stroke-width="0.4"/>
<line x1="5.0" y1="14.941" x2="12.0" y2="12.0" stroke="#141414" stroke-width="0.4"/>
<circle cx="41.412" cy="168.441" r="3.08" fill="#ffe082" stroke="#464646" stroke-width="0.2"/>
<text x="41.412" y="169.90" font-size="4.18" text-anchor="middle" fill="#141414">1</text>
<circle cx="21.804" cy="168.441" r="3.08" fill="#ffe082" stroke="#464646" stroke-width="0.2"/>
<text x="21.804" y="169.90" font-size="4.18" text-anchor="middle" fill="#141414">2</text>
<circle cx="41.412" cy="28.108" r="3.08" fill="#99d9fa" stroke="#464646" stroke-width="0.2"/>
<text x="41.412" y="29.57" font-size="4.18" text-anchor="middle" fill="#141414">3</text>
<circle cx="54.716" cy="98.274" r="3.08" fill="#ffe082" stroke="#464646" stroke-width="0.2"/>
<text x="54.716" y="99.74" font-size="4.18" text-anchor="middle" fill="#141414">4</text>
<circle cx="21.804" cy="8.5" r="3.08" fill="#ffe082" stroke="#464646" stroke-width="0.2"/>
<text x="21.804" y="9.96" font-size="4.18" text-anchor="middle" fill="#141414">5</text>
<circle cx="8.5" cy="98.274" r="3.08" fill="#ffe082" stroke="#464646" stroke-width="0.2"/>
<text x="8.5" y="99.74" font-size="4.18" text-anchor="middle" fill="#141414">6</text>
<circle cx="8.5" cy="21.804" r="3.08" fill="#ffe082" stroke="#464646" stroke-width="0.2"/>
<text x="8.5" y="23.27" font-size="4.18" text-anchor="middle" fill="#141414">7</text>
<circle cx="38.144" cy="76.052" r="4.60" fill="#eaf1fe" stroke="#2e78e6" stroke-width="0.3"/>
<text x="38.144" y="77.85" font-size="5.20" text-anchor="middle" fill="#14306e" font-weight="bold">1</text>
<polygon points="183.226,127.011 186.096,119.981 176.391,110.276 169.361,113.146" fill="rgb(216,216,216)"/>
<line x1="155.496" y1="127.011" x2="169.361" y2="113.146" stroke="#8c8c8c" stroke-width="0.3" stroke-dasharray="1.2,0.8"/>
<line x1="75.08" y1="18.865" x2="169.361" y2="113.146" stroke="#8c8c8c" stroke-width="0.3" stroke-dasharray="1.2,0.8"/>
<line x1="169.361" y1="113.146" x2="183.226" y2="127.011" stroke="#8c8c8c" stroke-width="0.3" stroke-dasharray="1.2,0.8"/>
<line x1="169.361" y1="140.875" x2="155.496" y2="127.011" stroke="#141414" stroke-width="0.4"/>
<line x1="183.226" y1="127.011" x2="169.361" y2="140.875" stroke="#141414" stroke-width="0.4"/>
<line x1="155.496" y1="127.011" x2="61.216" y2="32.73" stroke="#141414" stroke-width="0.4"/>
<line x1="61.216" y1="32.73" x2="75.08" y2="18.865" stroke="#141414" stroke-width="0.4"/>
<line x1="88.945" y1="5.0" x2="183.226" y2="99.281" stroke="#141414" stroke-width="0.4"/>
<line x1="183.226" y1="99.281" x2="169.361" y2="113.146" stroke="#141414" stroke-width="0.4"/>
<line x1="75.08" y1="18.865" x2="88.945" y2="5.0" stroke="#141414" stroke-width="0.4"/>
<line x1="183.226" y1="127.011" x2="186.096" y2="119.981" stroke="#141414" stroke-width="0.4"/>
<line x1="186.096" y1="119.981" x2="176.391" y2="110.276" stroke="#141414" stroke-width="0.4"/>
<line x1="176.391" y1="110.276" x2="169.361" y2="113.146" stroke="#141414" stroke-width="0.4"/>
<circle cx="178.769" cy="117.603" r="3.08" fill="#ffe082" stroke="#464646" stroke-width="0.2"/>
<text x="178.769" y="119.07" font-size="4.18" text-anchor="middle" fill="#141414">8</text>
<circle cx="169.361" cy="122.389" r="3.70" fill="#eaf1fe" stroke="#2e78e6" stroke-width="0.3"/>
<text x="169.361" y="123.84" font-size="4.18" text-anchor="middle" fill="#14306e" font-weight="bold">2</text>
<polygon points="59.059,222.0 55.529,229.0 39.059,229.0 35.529,222.0" fill="rgb(216,216,216)"/>
<polygon points="59.059,198.471 62.588,191.471 79.059,191.471 82.588,198.471" fill="rgb(216,216,216)"/>
<polygon points="59.059,198.471 55.529,191.471 39.059,191.471 35.529,198.471" fill="rgb(216,216,216)"/>
<polygon points="82.588,222.0 89.588,225.529 89.588,242.0 82.588,245.529" fill="rgb(216,216,216)"/>
<polygon points="12.0,174.941 5.0,178.471 5.0,194.941 12.0,198.471" fill="rgb(216,216,216)"/>
<polygon points="59.059,245.529 62.588,252.529 79.059,252.529 82.588,245.529" fill="rgb(216,216,216)"/>
<polygon points="106.118,222.0 113.118,218.471 113.118,202.0 106.118,198.471" fill="rgb(216,216,216)"/>
<polygon points="59.059,222.0 55.529,229.0 39.059,229.0 35.529,222.0" fill="#99d9fa"/>
<line x1="59.059" y1="222.0" x2="59.059" y2="198.471" stroke="#8c8c8c" stroke-width="0.3" stroke-dasharray="1.2,0.8"/>
<line x1="82.588" y1="222.0" x2="59.059" y2="222.0" stroke="#8c8c8c" stroke-width="0.3" stroke-dasharray="1.2,0.8"/>
<line x1="82.588" y1="198.471" x2="82.588" y2="222.0" stroke="#8c8c8c" stroke-width="0.3" stroke-dasharray="1.2,0.8"/>
<line x1="35.529" y1="222.0" x2="35.529" y2="198.471" stroke="#8c8c8c" stroke-width="0.3" stroke-dasharray="1.2,0.8"/>
<line x1="35.529" y1="198.471" x2="12.0" y2="198.471" stroke="#8c8c8c" stroke-width="0.3" stroke-dasharray="1.2,0.8"/>
<line x1="35.529" y1="222.0" x2="59.059" y2="222.0" stroke="#8c8c8c" stroke-width="0.3" stroke-dasharray="1.2,0.8"/>
<line x1="82.588" y1="198.471" x2="59.059" y2="198.471" stroke="#8c8c8c" stroke-width="0.3" stroke-dasharray="1.2,0.8"/>
<line x1="35.529" y1="198.471" x2="59.059" y2="198.471" stroke="#8c8c8c" stroke-width="0.3" stroke-dasharray="1.2,0.8"/>
<line x1="82.588" y1="245.529" x2="82.588" y2="222.0" stroke="#8c8c8c" stroke-width="0.3" stroke-dasharray="1.2,0.8"/>
<line x1="12.0" y1="198.471" x2="12.0" y2="174.941" stroke="#8c8c8c" stroke-width="0.3" stroke-dasharray="1.2,0.8"/>
<line x1="82.588" y1="245.529" x2="59.059" y2="245.529" stroke="#8c8c8c" stroke-width="0.3" stroke-dasharray="1.2,0.8"/>
<line x1="106.118" y1="198.471" x2="106.118" y2="222.0" stroke="#8c8c8c" stroke-width="0.3" stroke-dasharray="1.2,0.8"/>
<line x1="59.059" y1="245.529" x2="59.059" y2="222.0" stroke="#141414" stroke-width="0.4"/>
<line x1="12.0" y1="174.941" x2="35.529" y2="174.941" stroke="#141414" stroke-width="0.4"/>
<line x1="35.529" y1="174.941" x2="35.529" y2="198.471" stroke="#141414" stroke-width="0.4"/>
<line x1="106.118" y1="222.0" x2="82.588" y2="222.0" stroke="#141414" stroke-width="0.4"/>
<line x1="82.588" y1="198.471" x2="106.118" y2="198.471" stroke="#141414" stroke-width="0.4"/>
<line x1="35.529" y1="222.0" x2="12.0" y2="222.0" stroke="#141414" stroke-width="0.4"/>
<line x1="12.0" y1="222.0" x2="12.0" y2="198.471" stroke="#141414" stroke-width="0.4"/>
<line x1="59.059" y1="222.0" x2="55.529" y2="229.0" stroke="#141414" stroke-width="0.4"/>
<line x1="55.529" y1="229.0" x2="39.059" y2="229.0" stroke="#141414" stroke-width="0.4"/>
<line x1="39.059" y1="229.0" x2="35.529" y2="222.0" stroke="#141414" stroke-width="0.4"/>
<line x1="59.059" y1="198.471" x2="62.588" y2="191.471" stroke="#141414" stroke-width="0.4"/>
<line x1="62.588" y1="191.471" x2="79.059" y2="191.471" stroke="#141414" stroke-width="0.4"/>
<line x1="79.059" y1="191.471" x2="82.588" y2="198.471" stroke="#141414" stroke-width="0.4"/>
<line x1="59.059" y1="198.471" x2="55.529" y2="191.471" stroke="#141414" stroke-width="0.4"/>
<line x1="55.529" y1="191.471" x2="39.059" y2="191.471" stroke="#141414" stroke-width="0.4"/>
<line x1="39.059" y1="191.471" x2="35.529" y2="198.471" stroke="#141414" stroke-width="0.4"/>
<line x1="82.588" y1="222.0" x2="89.588" y2="225.529" stroke="#141414" stroke-width="0.4"/>
<line x1="89.588" y1="225.529" x2="89.588" y2="242.0" stroke="#141414" stroke-width="0.4"/>
<line x1="89.588" y1="242.0" x2="82.588" y2="245.529" stroke="#141414" stroke-width="0.4"/>
<line x1="12.0" y1="174.941" x2="5.0" y2="178.471" stroke="#141414" stroke-width="0.4"/>
<line x1="5.0" y1="178.471" x2="5.0" y2="194.941" stroke="#141414" stroke-width="0.4"/>
<line x1="5.0" y1="194.941" x2="12.0" y2="198.471" stroke="#141414" stroke-width="0.4"/>
<line x1="59.059" y1="245.529" x2="62.588" y2="252.529" stroke="#141414" stroke-width="0.4"/>
<line x1="62.588" y1="252.529" x2="79.059" y2="252.529" stroke="#141414" stroke-width="0.4"/>
<line x1="79.059" y1="252.529" x2="82.588" y2="245.529" stroke="#141414" stroke-width="0.4"/>
<line x1="106.118" y1="222.0" x2="113.118" y2="218.471" stroke="#141414" stroke-width="0.4"/>
<line x1="113.118" y1="218.471" x2="113.118" y2="202.0" stroke="#141414" stroke-width="0.4"/>
<line x1="113.118" y1="202.0" x2="106.118" y2="198.471" stroke="#141414" stroke-width="0.4"/>
<circle cx="47.294" cy="225.5" r="3.08" fill="#99d9fa" stroke="#464646" stroke-width="0.2"/>
<text x="47.294" y="226.96" font-size="4.18" text-anchor="middle" fill="#141414">9</text>
<circle cx="70.823" cy="194.971" r="3.08" fill="#ffe082" stroke="#464646" stroke-width="0.2"/>
<text x="70.823" y="196.43" font-size="4.18" text-anchor="middle" fill="#141414">10</text>
<circle cx="47.294" cy="194.971" r="3.08" fill="#ffe082" stroke="#464646" stroke-width="0.2"/>
<text x="47.294" y="196.43" font-size="4.18" text-anchor="middle" fill="#141414">11</text>
<circle cx="86.088" cy="233.765" r="3.08" fill="#ffe082" stroke="#464646" stroke-width="0.2"/>
<text x="86.088" y="235.23" font-size="4.18" text-anchor="middle" fill="#141414">12</text>
<circle cx="8.5" cy="186.706" r="3.08" fill="#ffe082" stroke="#464646" stroke-width="0.2"/>
<text x="8.5" y="188.17" font-size="4.18" text-anchor="middle" fill="#141414">13</text>
<circle cx="70.823" cy="249.029" r="3.08" fill="#ffe082" stroke="#464646" stroke-width="0.2"/>
<text x="70.823" y="250.49" font-size="4.18" text-anchor="middle" fill="#141414">14</text>
<circle cx="109.618" cy="210.235" r="3.08" fill="#ffe082" stroke="#464646" stroke-width="0.2"/>
<text x="109.618" y="211.70" font-size="4.18" text-anchor="middle" fill="#141414">15</text>
<circle cx="74.745" cy="237.686" r="4.44" fill="#eaf1fe" stroke="#2e78e6" stroke-width="0.3"/>
<text x="74.745" y="239.42" font-size="5.02" text-anchor="middle" fill="#14306e" font-weight="bold">3</text>
<text x="205.0" y="295.0" font-size="3.2" text-anchor="end" fill="#737373" font-family="sans-serif">1 / 2</text>
</svg>
