<svg xmlns="http://www.w3.org/2000/svg" xmlns:xlink="http://www.w3.org/1999/xlink" width="210.00mm" height="297.00mm" viewBox="0 0 210.00 297.00">
<rect x="0" y="0" width="210.00" height="297.00" fill="#ffffff" stroke="#cccccc" stroke-width="0.2"/>
<polygon points="63.413,115.719 55.187,119.888 29.297,109.164 26.428,100.399" fill="rgb(216,216,216)"/>
<polygon points="113.386,184.059 112.336,198.521 137.113,252.357 148.781,260.966" fill="rgb(216,216,216)"/>
<polygon points="100.399,100.399 109.164,97.53 119.888,71.64 115.719,63.413" fill="rgb(216,216,216)"/>
<polygon points="115.719,63.413 119.888,55.187 109.164,29.297 100.399,26.428" fill="rgb(216,216,216)"/>
<polygon points="100.399,26.428 97.53,17.662 71.64,6.938 63.413,11.108" fill="rgb(216,216,216)"/>
<polygon points="63.413,11.108 55.187,6.938 29.297,17.662 26.428,26.428" fill="rgb(216,216,216)"/>
<polygon points="26.428,26.428 17.663,29.297 6.938,55.187 11.108,63.413" fill="rgb(216,216,216)"/>
<polygon points="11.108,63.413 6.938,71.64 17.662,97.53 26.428,100.399" fill="rgb(216,216,216)"/>
<polygon points="63.413,115.719 55.187,119.888 29.297,109.164 26.428,100.399" fill="#99d9fa"/>
<line x1="113.386" y1="184.059" x2="63.413" y2="115.719" stroke="#8c8c8c" stroke-width="0.3" stroke-dasharray="1.2,0.8"/>
<line x1="100.399" y1="100.399" x2="63.413" y2="115.719" stroke="#8c8c8c" stroke-width="0.3" stroke-dasharray="1.2,0.8"/>
<line x1="100.399" y1="100.399" x2="113.386" y2="184.059" stroke="#8c8c8c" stroke-width="0.3" stroke-dasharray="1.2,0.8"/>
<line x1="140.289" y1="103.785" x2="113.386" y2="184.059" stroke="#8c8c8c" stroke-width="0.3" stroke-dasharray="1.2,0.8"/>
<line x1="174.163" y1="125.12" x2="113.386" y2="184.059" stroke="#8c8c8c" stroke-width="0.3" stroke-dasharray="1.2,0.8"/>
<line x1="194.448" y1="159.633" x2="113.386" y2="184.059" stroke="#8c8c8c" stroke-width="0.3" stroke-dasharray="1.2,0.8"/>
<line x1="196.607" y1="199.608" x2="113.386" y2="184.059" stroke="#8c8c8c" stroke-width="0.3" stroke-dasharray="1.2,0.8"/>
<line x1="180.159" y1="236.106" x2="113.386" y2="184.059" stroke="#8c8c8c" stroke-width="0.3" stroke-dasharray="1.2,0.8"/>
<line x1="26.428" y1="100.399" x2="63.413" y2="115.719" stroke="#8c8c8c" stroke-width="0.3" stroke-dasharray="1.2,0.8"/>
<line x1="148.781" y1="260.966" x2="113.386" y2="184.059" stroke="#8c8c8c" stroke-width="0.3" stroke-dasharray="1.2,0.8"/>
<line x1="115.719" y1="63.413" x2="100.399" y2="100.399" stroke="#8c8c8c" stroke-width="0.3" stroke-dasharray="1.2,0.8"/>
<line x1="100.399" y1="26.428" x2="115.719" y2="63.413" stroke="#8c8c8c" stroke-width="0.3" stroke-dasharray="1.2,0.8"/>
<line x1="63.413" y1="11.108" x2="100.399" y2="26.428" stroke="#8c8c8c" stroke-width="0.3" stroke-dasharray="1.2,0.8"/>
<line x1="26.428" y1="26.428" x2="63.413" y2="11.108" stroke="#8c8c8c" stroke-width="0.3" stroke-dasharray="1.2,0.8"/>
<line x1="11.108" y1="63.413" x2="26.428" y2="26.428" stroke="#8c8c8c" stroke-width="0.3" stroke-dasharray="1.2,0.8"/>
<line x1="26.428" y1="100.399" x2="11.108" y2="63.413" stroke="#8c8c8c" stroke-width="0.3" stroke-dasharray="1.2,0.8"/>
<line x1="37.601" y1="146.319" x2="63.413" y2="115.719" stroke="#141414" stroke-width="0.4"/>
<line x1="113.386" y1="184.059" x2="37.601" y2="146.319" stroke="#141414" stroke-width="0.4"/>
<line x1="100.399" y1="100.399" x2="140.289" y2="103.785" stroke="#141414" stroke-width="0.4"/>
<line x1="140.289" y1="103.785" x2="174.163" y2="125.12" stroke="#141414" stroke-width="0.4"/>
<line x1="174.163" y1="125.12" x2="194.448" y2="159.633" stroke="#141414" stroke-width="0.4"/>
<line x1="194.448" y1="159.633" x2="196.607" y2="199.608" stroke="#141414" stroke-width="0.4"/>
<line x1="196.607" y1="199.608" x2="180.159" y2="236.106" stroke="#141414" stroke-width="0.4"/>
<line x1="180.159" y1="236.106" x2="148.781" y2="260.966" stroke="#141414" stroke-width="0.4"/>
<line x1="63.413" y1="115.719" x2="55.187" y2="119.888" stroke="#141414" stroke-width="0.4"/>
<line x1="55.187" y1="119.888" x2="29.297" y2="109.164" stroke="#141414" stroke-width="0.4"/>
<line x1="29.297" y1="109.164" x2="26.428" y2="100.399" stroke="#141414" stroke-width="0.4"/>
<line x1="113.386" y1="184.059" x2="112.336" y2="198.521" stroke="#141414" stroke-width="0.4"/>
<line x1="112.336" y1="198.521" x2="137.113" y2="252.357" stroke="#141414" stroke-width="0.4"/>
<line x1="137.113" y1="252.357" x2="148.781" y2="260.966" stroke="#141414" stroke-width="0.4"/>
<line x1="100.399" y1="100.399" x2="109.164" y2="97.53" stroke="#141414" stroke-width="0.4"/>
<line x1="109.164" y1="97.53" x2="119.888" y2="71.64" stroke="#141414" stroke-width="0.4"/>
<line x1="119.888" y1="71.64" x2="115.719" y2="63.413" stroke="#141414" stroke-width="0.4"/>
<line x1="115.719" y1="63.413" x2="119.888" y2="55.187" stroke="#141414" stroke-width="0.4"/>
<line x1="119.888" y1="55.187" x2="109.164" y2="29.297" stroke="#141414" stroke-width="0.4"/>
<line x1="109.164" y1="29.297" x2="100.399" y2="26.428" stroke="#141414" stroke-width="0.4"/>
<line x1="100.399" y1="26.428" x2="97.53" y2="17.662" stroke="#141414" stroke-width="0.4"/>
<line x1="97.53" y1="17.662" x2="71.64" y2="6.938" stroke="#141414" stroke-width="0.4"/>
<line x1="71.64" y1="6.938" x2="63.413" y2="11.108" stroke="#141414" stroke-width="0.4"/>
<line x1="63.413" y1="11.108" x2="55.187" y2="6.938" stroke="#141414" stroke-width="0.4"/>
<line x1="55.187" y1="6.938" x2="29.297" y2="17.662" stroke="#141414" stroke-width="0.4"/>
<line x1="29.297" y1="17.662" x2="26.428" y2="26.428" stroke="#141414" stroke-width="0.4"/>
<line x1="26.428" y1="26.428" x2="17.663" y2="29.297" stroke="#141414" stroke-width="0.4"/>
<line x1="17.663" y1="29.297" x2="6.938" y2="55.187" stroke="#141414" stroke-width="0.4"/>
<line x1="6.938" y1="55.187" x2="11.108" y2="63.413" stroke="#141414" stroke-width="0.4"/>
<line x1="11.108" y1="63.413" x2="6.938" y2="71.64" stroke="#141414" stroke-width="0.4"/>
<line x1="6.938" y1="71.64" x2="17.662" y2="97.53" stroke="#141414" stroke-width="0.4"/>
<line x1="17.662" y1="97.53" x2="26.428" y2="100.399" stroke="#141414" stroke-width="0.4"/>
<circle cx="43.581" cy="111.293" r="3.01" fill="#99d9fa" stroke="#464646" stroke-width="0.2"/>
<text x="43.581" y="112.72" font-size="4.08" text-anchor="middle" fill="#141414">12</text>
<circle cx="127.904" cy="223.976" r="3.01" fill="#ffe082" stroke="#464646" stroke-width="0.2"/>
<text x="127.904" y="225.40" font-size="4.08" text-anchor="middle" fill="#141414">13</text>
<circle cx="111.293" cy="83.246" r="3.01" fill="#ffe082" stroke="#464646" stroke-width="0.2"/>
<text x="111.293" y="84.67" font-size="4.08" text-anchor="middle" fill="#141414">14</text>
<circle cx="111.293" cy="43.581" r="3.01" fill="#ffe082" stroke="#464646" stroke-width="0.2"/>
<text x="111.293" y="45.01" font-size="4.08" text-anchor="middle" fill="#141414">15</text>
<circle cx="83.246" cy="15.534" r="3.01" fill="#ffe082" stroke="#464646" stroke-width="0.2"/>
<text x="83.246" y="16.96" font-size="4.08" text-anchor="middle" fill="#141414">16</text>
<circle cx="43.581" cy="15.534" r="3.01" fill="#ffe082" stroke="#464646" stroke-width="0.2"/>
<text x="43.581" y="16.96" font-size="4.08" text-anchor="middle" fill="#141414">17</text>
<circle cx="15.534" cy="43.581" r="3.01" fill="#ffe082" stroke="#464646" stroke-width="0.2"/>
<text x="15.534" y="45.01" font-size="4.08" text-anchor="middle" fill="#141414">18</text>
<circle cx="15.534" cy="83.246" r="3.01" fill="#ffe082" stroke="#464646" stroke-width="0.2"/>
<text x="15.534" y="84.67" font-size="4.08" text-anchor="middle" fill="#141414">19</text>
<circle cx="33.649" cy="51.085" r="4.60" fill="#eaf1fe" stroke="#2e78e6" stroke-width="0.3"/>
<text x="33.649" y="52.88" font-size="5.20" text-anchor="middle" fill="#14306e" font-weight="bold">2</text>
<text x="205.0" y="295.0" font-size="3.2" text-anchor="end" fill="#737373" font-family="sans-serif">2 / 3</text>
</svg>
