<svg xmlns="http://www.w3.org/2000/svg" xmlns:xlink="http://www.w3.org/1999/xlink" width="210.00mm" height="297.00mm" viewBox="0 0 210.00 297.00">
<rect x="0" y="0" width="210.00" height="297.00" fill="#ffffff" stroke="#cccccc" stroke-width="0.2"/>
<polygon points="5.0,12.356 16.571,7.156 70.569,7.156 82.14,12.356" fill="rgb(216,216,216)"/>
<line x1="82.14" y1="12.356" x2="5.0" y2="12.356" stroke="#8c8c8c" stroke-width="0.3" stroke-dasharray="1.2,0.8"/>
<line x1="24.05" y1="59.28" x2="5.0" y2="12.357" stroke="#141414" stroke-width="0.4"/>
<line x1="82.14" y1="12.357" x2="24.05" y2="59.28" stroke="#141414" stroke-width="0.4"/>
<line x1="5.0" y1="12.356" x2="16.571" y2="7.156" stroke="#141414" stroke-width="0.4"/>
<line x1="16.571" y1="7.156" x2="70.569" y2="7.156" stroke="#141414" stroke-width="0.4"/>
<line x1="70.569" y1="7.156" x2="82.14" y2="12.356" stroke="#141414" stroke-width="0.4"/>
<circle cx="43.57" cy="9.756" r="2.29" fill="#ffe082" stroke="#464646" stroke-width="0.2"/>
<text x="43.57" y="10.84" font-size="3.11" text-anchor="middle" fill="#141414">20</text>
<circle cx="37.063" cy="27.998" r="4.60" fill="#eaf1fe" stroke="#2e78e6" stroke-width="0.3"/>
<text x="37.063" y="29.80" font-size="5.20" text-anchor="middle" fill="#14306e" font-weight="bold">11</text>
<polygon points="139.967,135.557 128.291,128.938 93.015,83.226 89.572,70.254" fill="rgb(216,216,216)"/>
<polygon points="139.967,135.557 145.378,125.874 146.369,80.162 141.383,70.254" fill="rgb(216,216,216)"/>
<polygon points="89.572,70.254 87.22,59.099 99.659,13.422 107.342,5.0" fill="rgb(216,216,216)"/>
<polygon points="123.906,41.11 130.987,42.807 143.221,63.208 141.383,70.254" fill="rgb(216,216,216)"/>
<polygon points="123.906,41.11 126.148,33.526 114.553,8.248 107.342,5.0" fill="rgb(216,216,216)"/>
<line x1="89.572" y1="70.254" x2="141.383" y2="70.254" stroke="#8c8c8c" stroke-width="0.3" stroke-dasharray="1.2,0.8"/>
<line x1="89.572" y1="70.254" x2="123.906" y2="41.11" stroke="#8c8c8c" stroke-width="0.3" stroke-dasharray="1.2,0.8"/>
<line x1="89.572" y1="70.254" x2="139.967" y2="135.557" stroke="#8c8c8c" stroke-width="0.3" stroke-dasharray="1.2,0.8"/>
<line x1="141.383" y1="70.254" x2="139.967" y2="135.557" stroke="#8c8c8c" stroke-width="0.3" stroke-dasharray="1.2,0.8"/>
<line x1="107.342" y1="5.0" x2="89.572" y2="70.254" stroke="#8c8c8c" stroke-width="0.3" stroke-dasharray="1.2,0.8"/>
<line x1="141.383" y1="70.254" x2="123.906" y2="41.11" stroke="#8c8c8c" stroke-width="0.3" stroke-dasharray="1.2,0.8"/>
<line x1="107.342" y1="5.0" x2="123.906" y2="41.11" stroke="#8c8c8c" stroke-width="0.3" stroke-dasharray="1.2,0.8"/>
<line x1="139.967" y1="135.557" x2="128.291" y2="128.938" stroke="#141414" stroke-width="0.4"/>
<line x1="128.291" y1="128.938" x2="93.015" y2="83.226" stroke="#141414" stroke-width="0.4"/>
<line x1="93.015" y1="83.226" x2="89.572" y2="70.254" stroke="#141414" stroke-width="0.4"/>
<line x1="139.967" y1="135.557" x2="145.378" y2="125.874" stroke="#141414" stroke-width="0.4"/>
<line x1="145.378" y1="125.874" x2="146.369" y2="80.162" stroke="#141414" stroke-width="0.4"/>
<line x1="146.369" y1="80.162" x2="141.383" y2="70.254" stroke="#141414" stroke-width="0.4"/>
<line x1="89.572" y1="70.254" x2="87.22" y2="59.099" stroke="#141414" stroke-width="0.4"/>
<line x1="87.22" y1="59.099" x2="99.659" y2="13.422" stroke="#141414" stroke-width="0.4"/>
<line x1="99.659" y1="13.422" x2="107.342" y2="5.0" stroke="#141414" stroke-width="0.4"/>
<line x1="123.906" y1="41.11" x2="130.987" y2="42.807" stroke="#141414" stroke-width="0.4"/>
<line x1="130.987" y1="42.807" x2="143.221" y2="63.208" stroke="#141414" stroke-width="0.4"/>
<line x1="143.221" y1="63.208" x2="141.383" y2="70.254" stroke="#141414" stroke-width="0.4"/>
<line x1="123.906" y1="41.11" x2="126.148" y2="33.526" stroke="#141414" stroke-width="0.4"/>
<line x1="126.148" y1="33.526" x2="114.553" y2="8.248" stroke="#141414" stroke-width="0.4"/>
<line x1="114.553" y1="8.248" x2="107.342" y2="5.0" stroke="#141414" stroke-width="0.4"/>
<circle cx="112.711" cy="104.494" r="2.29" fill="#ffe082" stroke="#464646" stroke-width="0.2"/>
<text x="112.711" y="105.58" font-size="3.11" text-anchor="middle" fill="#141414">5</text>
<circle cx="143.274" cy="102.962" r="2.29" fill="#ffe082" stroke="#464646" stroke-width="0.2"/>
<text x="143.274" y="104.05" font-size="3.11" text-anchor="middle" fill="#141414">6</text>
<circle cx="95.948" cy="36.944" r="2.29" fill="#ffe082" stroke="#464646" stroke-width="0.2"/>
<text x="95.948" y="38.03" font-size="3.11" text-anchor="middle" fill="#141414">16</text>
<circle cx="134.874" cy="54.345" r="2.29" fill="#ffe082" stroke="#464646" stroke-width="0.2"/>
<text x="134.874" y="55.43" font-size="3.11" text-anchor="middle" fill="#141414">23</text>
<circle cx="117.987" cy="21.971" r="2.29" fill="#ffe082" stroke="#464646" stroke-width="0.2"/>
<text x="117.987" y="23.06" font-size="3.11" text-anchor="middle" fill="#141414">24</text>
<circle cx="106.94" cy="38.788" r="4.60" fill="#eaf1fe" stroke="#2e78e6" stroke-width="0.3"/>
<text x="106.94" y="40.59" font-size="5.20" text-anchor="middle" fill="#14306e" font-weight="bold">12</text>
<polygon points="152.118,5.0 149.257,11.338 158.056,31.003 164.688,33.093" fill="rgb(216,216,216)"/>
<polygon points="164.688,33.093 173.633,33.119 201.33,13.454 204.255,5.0" fill="rgb(216,216,216)"/>
<line x1="164.688" y1="33.093" x2="152.118" y2="5.0" stroke="#8c8c8c" stroke-width="0.3" stroke-dasharray="1.2,0.8"/>
<line x1="204.255" y1="5.0" x2="164.688" y2="33.093" stroke="#8c8c8c" stroke-width="0.3" stroke-dasharray="1.2,0.8"/>
<line x1="152.118" y1="5.0" x2="204.255" y2="5.0" stroke="#141414" stroke-width="0.4"/>
<line x1="152.118" y1="5.0" x2="149.257" y2="11.338" stroke="#141414" stroke-width="0.4"/>
<line x1="149.257" y1="11.338" x2="158.056" y2="31.003" stroke="#141414" stroke-width="0.4"/>
<line x1="158.056" y1="31.003" x2="164.688" y2="33.093" stroke="#141414" stroke-width="0.4"/>
<line x1="164.688" y1="33.093" x2="173.633" y2="33.119" stroke="#141414" stroke-width="0.4"/>
<line x1="173.633" y1="33.119" x2="201.33" y2="13.454" stroke="#141414" stroke-width="0.4"/>
<line x1="201.33" y1="13.454" x2="204.255" y2="5.0" stroke="#141414" stroke-width="0.4"/>
<circle cx="156.03" cy="20.108" r="2.29" fill="#ffe082" stroke="#464646" stroke-width="0.2"/>
<text x="156.03" y="21.19" font-size="3.11" text-anchor="middle" fill="#141414">7</text>
<circle cx="185.977" cy="21.166" r="2.29" fill="#ffe082" stroke="#464646" stroke-width="0.2"/>
<text x="185.977" y="22.25" font-size="3.11" text-anchor="middle" fill="#141414">15</text>
<circle cx="173.687" cy="14.364" r="4.60" fill="#eaf1fe" stroke="#2e78e6" stroke-width="0.3"/>
<text x="173.687" y="16.16" font-size="5.20" text-anchor="middle" fill="#14306e" font-weight="bold">13</text>
<polygon points="5.0,145.913 14.442,140.713 58.505,140.713 67.947,145.913" fill="rgb(216,216,216)"/>
<line x1="67.947" y1="145.913" x2="5.0" y2="145.913" stroke="#8c8c8c" stroke-width="0.3" stroke-dasharray="1.2,0.8"/>
<line x1="12.44" y1="182.751" x2="5.0" y2="145.913" stroke="#141414" stroke-width="0.4"/>
<line x1="67.947" y1="145.913" x2="12.44" y2="182.751" stroke="#141414" stroke-width="0.4"/>
<line x1="5.0" y1="145.913" x2="14.442" y2="140.713" stroke="#141414" stroke-width="0.4"/>
<line x1="14.442" y1="140.713" x2="58.505" y2="140.713" stroke="#141414" stroke-width="0.4"/>
<line x1="58.505" y1="140.713" x2="67.947" y2="145.913" stroke="#141414" stroke-width="0.4"/>
<circle cx="36.474" cy="143.313" r="2.29" fill="#ffe082" stroke="#464646" stroke-width="0.2"/>
<text x="36.474" y="144.40" font-size="3.11" text-anchor="middle" fill="#141414">25</text>
<circle cx="28.462" cy="158.192" r="4.60" fill="#eaf1fe" stroke="#2e78e6" stroke-width="0.3"/>
<text x="28.462" y="159.99" font-size="5.20" text-anchor="middle" fill="#14306e" font-weight="bold">14</text>
<text x="205.0" y="295.0" font-size="3.2" text-anchor="end" fill="#737373" font-family="sans-serif">8 / 8</text>
<g pointer-events="none"><text x="105.0" y="83.2" text-anchor="middle" font-family="sans-serif" font-size="12.4" fill="#9aa0a6" fill-opacity="0.3" transform="rotate(-28 105.0 83.2)">papercraft.kr</text><text x="105.0" y="148.5" text-anchor="middle" font-family="sans-serif" font-size="12.4" fill="#9aa0a6" fill-opacity="0.3" transform="rotate(-28 105.0 148.5)">papercraft.kr</text><text x="105.0" y="213.8" text-anchor="middle" font-family="sans-serif" font-size="12.4" fill="#9aa0a6" fill-opacity="0.3" transform="rotate(-28 105.0 213.8)">papercraft.kr</text></g></svg>
